<?xml version="1.0" encoding="UTF-8" standalone="no"?>
<svg xmlns:xlink="http://www.w3.org/1999/xlink" height="400.0px" width="800.0px" xmlns="http://www.w3.org/2000/svg">
  <g transform="matrix(1.0, 0.0, 0.0, 1.0, 0.0, 0.0)">
    <use height="400.0" transform="matrix(1.0, 0.0, 0.0, 1.0, 0.0, 0.0)" width="800.0" xlink:href="#shape0"/>
    <use height="57.1" transform="matrix(1.1475, 0.0, 0.0, 2.0241, 5.0909, 283.3488)" width="220.55" xlink:href="#sprite0"/>
  </g>
  <defs>
    <g id="shape0" transform="matrix(1.0, 0.0, 0.0, 1.0, 0.0, 0.0)">
      <path d="M800.0 400.0 L0.0 400.0 0.0 0.0 800.0 0.0 800.0 400.0" fill="url(#gradient0)" fill-rule="evenodd" stroke="none"/>
      <path d="M764.6 280.15 Q777.75 280.9 785.5 283.5 783.9 284.15 780.6 284.4 L754.0 285.05 712.0 286.8 670.75 286.55 641.9 287.35 623.0 288.2 597.0 288.1 Q588.7 288.15 588.0 288.3 587.8 288.35 588.05 288.45 L587.9 288.6 Q585.0 289.05 535.0 289.25 L490.25 289.05 481.0 289.2 462.35 288.55 Q452.05 289.1 443.5 289.0 L436.2 288.55 415.0 289.5 410.95 289.25 398.0 290.05 373.0 289.8 370.2 289.05 365.6 288.55 355.15 288.0 305.0 286.25 398.25 287.1 411.0 286.7 412.15 286.8 416.15 286.25 434.0 284.3 Q450.15 282.9 456.25 284.1 L459.05 282.95 Q465.35 280.85 472.2 281.0 L472.75 280.65 474.6 280.5 Q478.65 279.95 480.25 279.0 482.15 277.7 483.5 277.35 L496.0 276.35 Q500.2 273.85 508.3 271.1 521.85 266.6 534.5 266.7 542.75 266.75 548.65 268.55 L552.45 269.75 556.0 270.35 Q556.55 270.35 560.9 268.7 566.4 266.95 572.5 267.05 L577.7 267.5 582.85 268.0 Q583.95 268.05 588.15 266.15 593.95 263.6 598.85 262.05 617.6 256.1 645.0 256.35 657.35 256.45 661.3 257.5 L663.2 258.2 665.0 258.5 Q666.65 258.55 674.3 256.6 682.65 254.5 686.0 254.15 700.85 252.7 705.6 254.3 708.0 255.15 707.5 256.9 L709.1 257.05 Q709.9 257.0 713.5 259.45 717.05 261.85 734.25 270.65 751.4 279.35 764.6 280.15" fill="url(#gradient1)" fill-rule="evenodd" stroke="none"/>
      <path d="M721.85 324.0 Q743.1 327.0 723.85 325.95 704.6 324.85 693.35 325.4 L665.0 327.75 577.9 328.1 573.2 328.65 568.45 329.15 524.35 329.15 487.7 330.4 Q468.9 331.45 495.35 328.5 L522.15 325.1 Q522.65 324.6 524.4 324.35 L540.2 322.35 Q542.9 321.95 545.1 319.8 547.15 317.8 548.45 317.8 550.0 317.8 563.15 321.1 570.2 321.1 578.15 318.95 L590.9 314.9 Q598.0 312.75 602.8 312.75 609.15 312.7 615.1 316.1 L643.55 316.45 646.15 316.9 682.15 317.15 Q691.2 319.4 698.35 320.35 L700.35 320.8 721.85 324.0" fill="url(#gradient2)" fill-rule="evenodd" stroke="none"/>
      <path d="M405.85 250.75 L356.0 253.35 305.0 253.35 296.1 252.85 286.6 252.6 277.3 253.2 268.0 253.85 Q265.55 253.85 264.65 252.6 264.0 251.65 264.25 250.55 L253.65 250.7 246.5 250.8 Q241.7 250.8 240.5 249.25 L240.25 247.55 Q240.25 245.25 248.4 242.75 255.0 240.7 262.75 239.55 273.9 237.95 280.75 238.2 L283.95 238.25 Q285.15 238.15 286.5 237.4 290.55 235.2 296.5 233.25 315.75 226.95 330.35 229.3 336.6 230.3 340.2 232.8 343.75 235.25 343.75 238.55 L345.25 237.85 Q346.6 237.2 348.45 236.8 354.2 235.4 365.5 235.4 373.25 235.4 384.2 238.45 389.85 239.95 395.5 241.95 402.05 243.8 409.05 245.3 412.75 246.3 412.75 248.3 412.75 249.5 411.95 249.85 L405.85 250.75" fill="url(#gradient3)" fill-rule="evenodd" stroke="none"/>
      <path d="M345.05 352.85 Q372.3 352.85 387.7 349.5 L404.45 345.55 Q417.0 342.65 431.75 340.25 444.45 338.2 449.0 340.6 L452.45 343.05 Q454.6 344.65 457.35 345.35 459.65 346.55 481.25 349.0 L515.0 352.85 553.3 353.1 564.55 353.9 612.45 353.95 Q596.2 354.2 610.3 356.5 L594.15 358.75 574.15 359.0 553.9 360.0 538.95 360.9 276.6 360.9 274.45 359.85 Q273.7 359.45 273.7 359.0 273.7 356.7 287.85 356.3 304.25 355.8 307.85 354.2 309.2 353.55 315.9 352.25 L318.95 351.65 Q327.9 349.9 329.0 349.9 330.9 349.9 336.75 351.4 342.55 352.85 345.05 352.85" fill="url(#gradient4)" fill-rule="evenodd" stroke="none"/>
      <path d="M102.7 249.15 Q115.3 246.5 127.5 246.5 142.1 246.5 151.1 248.55 L156.6 249.95 161.5 250.55 165.75 251.05 170.75 251.85 Q295.2 261.1 340.0 259.85 308.8 265.65 236.3 262.45 L147.95 264.75 Q80.55 266.45 78.05 266.35 L34.0 266.0 Q15.2 265.15 10.3 263.6 8.5 263.0 8.2 262.25 L8.25 261.0 Q8.25 260.25 9.3 258.65 10.8 256.4 13.35 254.6 21.25 249.2 36.0 250.45 L39.8 247.6 Q42.45 245.4 45.0 244.15 53.45 239.95 72.0 239.55 83.7 239.35 89.3 245.55 92.05 248.65 92.5 251.85 L95.25 251.0 102.7 249.15" fill="url(#gradient5)" fill-rule="evenodd" stroke="none"/>
      <path d="M55.3 300.75 Q70.5 295.95 92.0 297.6 95.45 298.0 97.45 299.6 L100.25 302.0 110.95 301.75 134.2 304.6 201.75 307.95 152.75 309.8 142.35 309.2 88.1 311.1 16.0 313.5 Q13.35 313.5 12.55 312.5 12.25 312.15 12.25 311.35 12.25 309.2 15.25 307.2 19.7 304.15 29.0 304.15 34.4 304.15 35.75 305.05 L36.5 305.65 38.1 305.9 Q41.1 305.9 45.7 304.2 L55.3 300.75" fill="url(#gradient6)" fill-rule="evenodd" stroke="none"/>
    </g>
    <radialGradient cx="0" cy="0" gradientTransform="matrix(0.852, -2.0E-4, 2.0E-4, 0.7051, 134.0, 355.95)" gradientUnits="userSpaceOnUse" id="gradient0" r="819.2" spreadMethod="pad">
      <stop offset="0.0" stop-color="#ffde46"/>
      <stop offset="0.06666666666666667" stop-color="#ffce85"/>
      <stop offset="0.10588235294117647" stop-color="#f3c494"/>
      <stop offset="0.17254901960784313" stop-color="#e5b8a7"/>
      <stop offset="0.44313725490196076" stop-color="#c699bf"/>
      <stop offset="0.984313725490196" stop-color="#615179"/>
    </radialGradient>
    <linearGradient gradientTransform="matrix(0.0, -0.0336, 0.0303, 3.0E-4, 744.5, 299.75)" gradientUnits="userSpaceOnUse" id="gradient1" spreadMethod="pad" x1="-819.2" x2="819.2">
      <stop offset="0.09019607843137255" stop-color="#f5fdff" stop-opacity="0.6509804"/>
      <stop offset="0.9921568627450981" stop-color="#eefbff" stop-opacity="0.0"/>
    </linearGradient>
    <linearGradient gradientTransform="matrix(0.0, -0.0227, 0.01, 0.0, 610.45, 330.8)" gradientUnits="userSpaceOnUse" id="gradient2" spreadMethod="pad" x1="-819.2" x2="819.2">
      <stop offset="0.0" stop-color="#f5fdff" stop-opacity="0.6509804"/>
      <stop offset="0.9921568627450981" stop-color="#eefbff" stop-opacity="0.0"/>
    </linearGradient>
    <linearGradient gradientTransform="matrix(0.0, -0.0227, 0.0304, 0.0, 327.95, 248.95)" gradientUnits="userSpaceOnUse" id="gradient3" spreadMethod="pad" x1="-819.2" x2="819.2">
      <stop offset="0.043137254901960784" stop-color="#f5fdff" stop-opacity="0.6509804"/>
      <stop offset="0.9921568627450981" stop-color="#eefbff" stop-opacity="0.0"/>
    </linearGradient>
    <linearGradient gradientTransform="matrix(0.0034, -0.0277, 0.0196, 0.0011, 444.2, 362.0)" gradientUnits="userSpaceOnUse" id="gradient4" spreadMethod="pad" x1="-819.2" x2="819.2">
      <stop offset="0.0" stop-color="#f5fdff" stop-opacity="0.6509804"/>
      <stop offset="0.9921568627450981" stop-color="#eefbff" stop-opacity="0.0"/>
    </linearGradient>
    <linearGradient gradientTransform="matrix(0.0, -0.0208, 0.0323, 0.0, 178.2, 262.95)" gradientUnits="userSpaceOnUse" id="gradient5" spreadMethod="pad" x1="-819.2" x2="819.2">
      <stop offset="0.043137254901960784" stop-color="#f5fdff" stop-opacity="0.6509804"/>
      <stop offset="0.9921568627450981" stop-color="#eefbff" stop-opacity="0.0"/>
    </linearGradient>
    <linearGradient gradientTransform="matrix(-0.0028, -0.0222, 0.0195, 0.0015, 104.05, 311.8)" gradientUnits="userSpaceOnUse" id="gradient6" spreadMethod="pad" x1="-819.2" x2="819.2">
      <stop offset="0.043137254901960784" stop-color="#f5fdff" stop-opacity="0.6509804"/>
      <stop offset="0.9921568627450981" stop-color="#eefbff" stop-opacity="0.0"/>
    </linearGradient>
    <g id="sprite0" transform="matrix(1.0, 0.0, 0.0, 1.0, -2.65, 0.05)">
      <use height="57.1" transform="matrix(1.0, 0.0, 0.0, 1.0, 2.65, -0.05)" width="220.55" xlink:href="#shape1"/>
    </g>
    <g id="shape1" transform="matrix(1.0, 0.0, 0.0, 1.0, -2.65, 0.05)">
      <path d="M223.15 57.05 L2.65 57.05 Q2.95 50.35 7.9 41.95 14.25 31.1 25.85 22.35 57.15 -1.2 112.85 0.0 173.9 1.15 201.1 17.6 224.25 31.65 223.15 57.05" fill="url(#gradient7)" fill-rule="evenodd" stroke="none"/>
    </g>
    <radialGradient cx="0" cy="0" gradientTransform="matrix(0.0971, 0.0, 0.0, 0.0572, 109.5, 53.65)" gradientUnits="userSpaceOnUse" id="gradient7" r="819.2" spreadMethod="pad">
      <stop offset="0.0" stop-color="#cdfdff" stop-opacity="0.45882353"/>
      <stop offset="0.19607843137254902" stop-color="#dafdff" stop-opacity="0.34117648"/>
      <stop offset="1.0" stop-color="#ffffff" stop-opacity="0.0"/>
    </radialGradient>
  </defs>
</svg>
