<?xml version="1.0" encoding="UTF-8" standalone="no"?>
<svg xmlns:xlink="http://www.w3.org/1999/xlink" height="400.0px" width="800.0px" xmlns="http://www.w3.org/2000/svg">
  <g transform="matrix(1.0, 0.0, 0.0, 1.0, 0.0, 0.0)">
    <use height="400.0" transform="matrix(1.0, 0.0, 0.0, 1.0, 0.0, 0.0)" width="800.0" xlink:href="#shape0"/>
    <use height="116.85" transform="matrix(1.1308, 0.0, 0.0, 1.8826, 549.8401, 179.2059)" width="220.6" xlink:href="#sprite0"/>
  </g>
  <defs>
    <g id="shape0" transform="matrix(1.0, 0.0, 0.0, 1.0, 0.0, 0.0)">
      <path d="M800.0 400.0 L0.0 400.0 0.0 0.0 800.0 0.0 800.0 400.0" fill="url(#gradient0)" fill-rule="evenodd" stroke="none"/>
      <path d="M713.5 119.95 Q717.05 123.95 734.25 138.65 751.4 153.15 764.6 154.5 777.75 155.75 785.5 160.05 783.9 161.15 780.6 161.55 L754.0 162.65 Q730.75 163.3 712.0 165.55 L670.75 165.15 641.9 166.5 623.0 167.9 597.0 167.75 588.0 168.05 Q587.8 168.15 588.05 168.3 588.3 168.5 587.9 168.55 585.0 169.3 535.0 169.65 L490.25 169.3 481.0 169.55 462.35 168.5 443.5 169.25 436.2 168.5 Q425.9 170.25 415.0 170.05 L410.95 169.65 398.0 171.0 373.0 170.55 370.2 169.3 Q369.25 168.8 365.6 168.5 L355.15 167.55 305.0 164.65 398.25 166.05 411.0 165.4 412.15 165.55 416.15 164.65 Q425.2 162.55 434.0 161.4 450.15 159.05 456.25 161.05 457.55 160.05 459.05 159.15 465.35 155.65 472.2 155.9 L472.75 155.3 474.6 155.05 Q478.65 154.15 480.25 152.55 482.15 150.4 483.5 149.8 486.85 148.55 496.0 148.15 500.2 143.95 508.3 139.4 521.85 131.9 534.5 132.05 542.75 132.15 548.65 135.15 550.15 135.9 552.45 137.15 554.4 138.05 556.0 138.15 556.55 138.15 560.9 135.4 566.4 132.45 572.5 132.65 L577.7 133.4 582.85 134.2 Q583.95 134.3 588.15 131.15 593.95 126.9 598.85 124.3 617.6 114.4 645.0 114.8 657.35 114.95 661.3 116.7 L663.2 117.9 Q663.95 118.4 665.0 118.4 666.65 118.45 674.3 115.2 682.65 111.7 686.0 111.15 700.85 108.7 705.6 111.4 708.0 112.8 707.5 115.7 L709.1 115.95 Q709.9 115.9 713.5 119.95" fill="url(#gradient1)" fill-rule="evenodd" stroke="none"/>
      <path d="M721.85 227.6 Q743.1 232.6 723.85 230.85 L693.35 229.9 Q682.05 230.85 665.0 233.85 L577.9 234.4 Q577.35 234.75 573.2 235.35 L568.45 236.15 524.35 236.15 487.7 238.25 Q468.9 240.0 495.35 235.1 521.75 230.15 522.15 229.4 522.65 228.6 524.4 228.15 L540.2 224.85 Q542.9 224.15 545.1 220.6 547.15 217.25 548.45 217.25 550.0 217.25 563.15 222.75 570.2 222.75 578.15 219.15 582.7 217.1 590.9 212.4 598.0 208.85 602.8 208.85 609.15 208.75 615.1 214.4 L643.55 215.0 646.15 215.75 682.15 216.15 Q691.2 219.9 698.35 221.5 700.05 221.85 700.35 222.25 700.6 222.5 721.85 227.6" fill="url(#gradient2)" fill-rule="evenodd" stroke="none"/>
      <path d="M508.4 96.35 Q512.1 98.05 512.1 101.35 512.1 103.4 511.3 103.95 510.05 104.9 505.2 105.45 L455.35 109.8 404.35 109.8 395.45 108.95 385.95 108.55 376.65 109.55 367.35 110.65 Q364.9 110.65 364.0 108.55 363.35 106.95 363.6 105.15 L353.0 105.4 345.85 105.55 Q341.05 105.55 339.85 102.95 L339.6 100.1 Q339.6 96.3 347.75 92.1 354.35 88.7 362.1 86.8 373.25 84.1 380.1 84.55 L383.3 84.6 Q384.5 84.45 385.85 83.2 389.9 79.55 395.85 76.3 415.1 65.8 429.7 69.7 435.95 71.35 439.55 75.55 443.1 79.6 443.1 85.1 L444.6 83.95 Q445.95 82.85 447.8 82.2 453.55 79.85 464.85 79.85 472.6 79.85 483.55 84.95 489.2 87.45 494.85 90.8 501.4 93.85 508.4 96.35" fill="url(#gradient3)" fill-rule="evenodd" stroke="none"/>
      <path d="M455.7 275.7 L494.0 276.1 Q496.95 276.85 505.25 277.45 L553.15 277.5 Q536.9 277.95 551.0 281.75 542.2 283.45 534.85 285.5 L514.85 285.95 494.6 287.6 479.65 289.1 217.3 289.1 217.05 288.9 172.05 288.9 Q220.5 281.8 228.55 281.45 244.95 280.6 248.55 277.95 249.9 276.85 256.6 274.7 L259.65 273.7 Q268.6 270.75 269.7 270.75 271.6 270.75 277.45 273.25 283.25 275.7 285.75 275.7 313.0 275.7 328.4 270.1 L345.15 263.5 347.4 262.65 Q359.0 258.35 372.45 254.7 385.15 251.25 389.7 255.25 L393.15 259.35 Q394.85 261.45 396.95 262.65 L398.05 263.2 Q400.35 265.2 421.95 269.25 L455.7 275.7" fill="url(#gradient4)" fill-rule="evenodd" stroke="none"/>
      <path d="M189.2 105.95 L194.2 107.3 Q318.65 122.7 363.45 120.65 332.25 130.3 259.75 124.95 L171.4 128.8 101.5 131.45 61.8 129.05 Q20.5 126.8 6.8 130.15 16.4 126.5 21.85 122.25 L31.95 113.85 Q45.8 103.0 59.45 104.95 60.6 103.95 63.25 100.2 65.9 96.55 68.45 94.45 76.9 87.45 95.45 86.8 107.15 86.45 112.75 96.8 115.5 101.95 115.95 107.3 L118.7 105.9 Q122.2 104.2 126.15 102.8 138.75 98.35 150.95 98.35 165.55 98.35 174.55 101.8 176.8 102.65 180.05 104.15 182.7 105.15 184.95 105.15 L189.2 105.95" fill="url(#gradient5)" fill-rule="evenodd" stroke="none"/>
      <path d="M68.45 197.4 Q71.45 197.4 76.05 194.55 L85.65 188.8 Q100.85 180.8 122.35 183.55 125.8 184.25 127.8 186.9 L130.6 190.9 141.3 190.5 Q143.55 190.4 164.55 195.25 175.05 197.55 232.1 200.85 L183.1 203.9 172.7 202.9 Q168.4 202.15 118.45 206.1 68.15 210.1 52.5 208.4 36.8 206.65 34.9 204.85 33.0 203.0 37.8 202.95 42.6 202.9 45.6 199.6 50.05 194.5 59.35 194.5 64.75 194.5 66.1 196.0 L66.85 197.0 Q67.35 197.4 68.45 197.4" fill="url(#gradient6)" fill-rule="evenodd" stroke="none"/>
    </g>
    <radialGradient cx="0" cy="0" gradientTransform="matrix(0.7361, -1.0E-4, 1.0E-4, 0.6633, 669.7, 295.9)" gradientUnits="userSpaceOnUse" id="gradient0" r="819.2" spreadMethod="pad">
      <stop offset="0.0" stop-color="#fad52b"/>
      <stop offset="0.07058823529411765" stop-color="#ffdc85"/>
      <stop offset="0.1568627450980392" stop-color="#f1bd67"/>
      <stop offset="0.4235294117647059" stop-color="#d47e2a"/>
      <stop offset="1.0" stop-color="#b6491f"/>
    </radialGradient>
    <linearGradient gradientTransform="matrix(0.0, -0.056, 0.0303, 5.0E-4, 744.5, 187.15)" gradientUnits="userSpaceOnUse" id="gradient1" spreadMethod="pad" x1="-819.2" x2="819.2">
      <stop offset="0.09019607843137255" stop-color="#f5fdff" stop-opacity="0.6509804"/>
      <stop offset="0.9921568627450981" stop-color="#eefbff" stop-opacity="0.0"/>
    </linearGradient>
    <linearGradient gradientTransform="matrix(0.0, -0.0379, 0.01, 0.0, 610.45, 238.9)" gradientUnits="userSpaceOnUse" id="gradient2" spreadMethod="pad" x1="-819.2" x2="819.2">
      <stop offset="0.0" stop-color="#f5fdff" stop-opacity="0.6509804"/>
      <stop offset="0.9921568627450981" stop-color="#eefbff" stop-opacity="0.0"/>
    </linearGradient>
    <linearGradient gradientTransform="matrix(0.0, -0.0379, 0.0304, 0.0, 427.3, 102.45)" gradientUnits="userSpaceOnUse" id="gradient3" spreadMethod="pad" x1="-819.2" x2="819.2">
      <stop offset="0.043137254901960784" stop-color="#f5fdff" stop-opacity="0.6509804"/>
      <stop offset="0.9921568627450981" stop-color="#eefbff" stop-opacity="0.0"/>
    </linearGradient>
    <linearGradient gradientTransform="matrix(0.0034, -0.0461, 0.0196, 0.0018, 384.9, 290.95)" gradientUnits="userSpaceOnUse" id="gradient4" spreadMethod="pad" x1="-819.2" x2="819.2">
      <stop offset="0.0" stop-color="#f5fdff" stop-opacity="0.6509804"/>
      <stop offset="0.9921568627450981" stop-color="#eefbff" stop-opacity="0.0"/>
    </linearGradient>
    <linearGradient gradientTransform="matrix(0.0, -0.0346, 0.0323, 0.0, 201.65, 125.8)" gradientUnits="userSpaceOnUse" id="gradient5" spreadMethod="pad" x1="-819.2" x2="819.2">
      <stop offset="0.043137254901960784" stop-color="#f5fdff" stop-opacity="0.6509804"/>
      <stop offset="0.9921568627450981" stop-color="#eefbff" stop-opacity="0.0"/>
    </linearGradient>
    <linearGradient gradientTransform="matrix(-0.0028, -0.037, 0.0195, 0.0026, 134.4, 207.25)" gradientUnits="userSpaceOnUse" id="gradient6" spreadMethod="pad" x1="-819.2" x2="819.2">
      <stop offset="0.043137254901960784" stop-color="#f5fdff" stop-opacity="0.6509804"/>
      <stop offset="0.9921568627450981" stop-color="#eefbff" stop-opacity="0.0"/>
    </linearGradient>
    <g id="sprite0" transform="matrix(1.0, 0.0, 0.0, 1.0, -2.6, 0.05)">
      <use height="116.85" transform="matrix(1.0, 0.0, 0.0, 1.0, 2.6, -0.05)" width="220.6" xlink:href="#shape1"/>
    </g>
    <g id="shape1" transform="matrix(1.0, 0.0, 0.0, 1.0, -2.6, 0.05)">
      <path d="M216.6 72.9 Q209.6 82.3 197.3 90.5 165.65 111.5 112.85 116.1 61.0 120.6 28.05 95.7 15.85 86.45 8.7 74.85 2.6 65.0 2.6 58.05 2.6 51.0 7.9 41.95 14.25 31.1 25.85 22.35 57.15 -1.2 112.85 0.0 173.9 1.15 201.1 17.6 224.7 31.9 223.1 58.05 222.7 64.7 216.6 72.9" fill="url(#gradient7)" fill-rule="evenodd" stroke="none"/>
    </g>
    <radialGradient cx="0" cy="0" gradientTransform="matrix(0.0971, 0.0, 0.0, 0.0572, 109.5, 53.65)" gradientUnits="userSpaceOnUse" id="gradient7" r="819.2" spreadMethod="pad">
      <stop offset="0.0" stop-color="#cdfdff" stop-opacity="0.45882353"/>
      <stop offset="0.19607843137254902" stop-color="#dafdff" stop-opacity="0.34117648"/>
      <stop offset="1.0" stop-color="#ffffff" stop-opacity="0.0"/>
    </radialGradient>
  </defs>
</svg>
