<?xml version="1.0" encoding="UTF-8" standalone="no"?>
<svg xmlns:xlink="http://www.w3.org/1999/xlink" height="401.0px" width="1600.4px" xmlns="http://www.w3.org/2000/svg">
  <g transform="matrix(1.0, 0.0, 0.0, 1.0, 0.2, 0.0)">
    <use height="400.0" transform="matrix(1.0, 0.0, 0.0, 1.0, 0.0, 0.0)" width="800.0" xlink:href="#shape0"/>
    <use height="116.85" transform="matrix(1.2755, 0.0, 0.0, 2.1729, 56.5164, 1.5414)" width="220.6" xlink:href="#sprite0"/>
    <use height="401.0" transform="matrix(1.0, 0.0, 0.0, 1.0, -0.2, 0.0)" width="1600.4" xlink:href="#shape2"/>
    <use height="89.6" transform="matrix(0.1349, 0.0, 0.0, 0.1128, 405.35, 16.85)" width="56.75" xlink:href="#sprite1"/>
    <use height="89.6" transform="matrix(0.1547, 0.0, 0.0, 0.1547, 532.3, 120.05)" width="56.75" xlink:href="#sprite1"/>
    <use height="89.6" transform="matrix(0.1753, 0.0, 0.0, 0.1753, 708.5, 14.35)" width="56.75" xlink:href="#sprite1"/>
    <use height="89.6" transform="matrix(0.1753, 0.0, 0.0, 0.1753, 731.55, 27.8)" width="56.75" xlink:href="#sprite1"/>
    <use height="89.6" transform="matrix(0.1522, 0.0, 0.0, 0.1522, 864.6, 25.75)" width="56.75" xlink:href="#sprite1"/>
    <use height="89.6" transform="matrix(0.1535, 0.0, 0.0, 0.1535, 819.55, 60.35)" width="56.75" xlink:href="#sprite1"/>
    <use height="89.6" transform="matrix(0.0944, 0.0253, -0.0185, 0.0692, 421.7, 28.55)" width="56.75" xlink:href="#sprite1"/>
    <use height="89.6" transform="matrix(0.069, 0.0185, -0.0142, 0.0528, 400.3, 42.1)" width="56.75" xlink:href="#sprite1"/>
    <use height="89.6" transform="matrix(0.0601, 0.0161, -0.0121, 0.0451, 420.7, 65.95)" width="56.75" xlink:href="#sprite1"/>
    <use height="89.6" transform="matrix(0.0601, 0.0161, -0.0161, 0.0601, 691.25, 14.35)" width="56.75" xlink:href="#sprite1"/>
    <use height="89.6" transform="matrix(0.0601, 0.0161, -0.0161, 0.0601, 742.95, 54.0)" width="56.75" xlink:href="#sprite1"/>
    <use height="89.6" transform="matrix(0.0601, 0.0161, -0.0161, 0.0601, 835.55, 10.45)" width="56.75" xlink:href="#sprite1"/>
    <use height="89.6" transform="matrix(0.0601, 0.0161, -0.0161, 0.0601, 894.25, 56.8)" width="56.75" xlink:href="#sprite1"/>
    <use height="89.6" transform="matrix(0.0601, 0.0161, -0.0161, 0.0601, 579.55, 52.05)" width="56.75" xlink:href="#sprite1"/>
    <use height="89.6" transform="matrix(0.0601, 0.0161, -0.0161, 0.0601, 528.9, 82.6)" width="56.75" xlink:href="#sprite1"/>
    <use height="89.6" transform="matrix(0.0601, 0.0161, -0.0121, 0.0451, 543.75, 14.35)" width="56.75" xlink:href="#sprite1"/>
    <use height="89.6" transform="matrix(0.032, 0.0086, -0.0064, 0.024, 533.95, 8.45)" width="56.75" xlink:href="#sprite1"/>
    <use height="89.6" transform="matrix(0.0601, 0.0161, -0.0121, 0.0451, 469.75, 104.35)" width="56.75" xlink:href="#sprite1"/>
    <use height="89.6" transform="matrix(0.032, 0.0086, -0.0064, 0.024, 480.95, 98.45)" width="56.75" xlink:href="#sprite1"/>
    <use height="89.6" transform="matrix(0.0601, 0.0161, -0.0161, 0.0601, 647.25, 60.35)" width="56.75" xlink:href="#sprite1"/>
    <use height="89.6" transform="matrix(0.1753, 0.0, 0.0, 0.1753, 661.5, 66.65)" width="56.75" xlink:href="#sprite1"/>
    <use height="89.6" transform="matrix(0.1414, 0.0, 0.0, 0.1128, 997.35, 27.85)" width="56.75" xlink:href="#sprite1"/>
    <use height="89.6" transform="matrix(0.1621, 0.0, 0.0, 0.1547, 1130.45, 131.05)" width="56.75" xlink:href="#sprite1"/>
    <use height="89.6" transform="matrix(0.1837, 0.0, 0.0, 0.1753, 1315.25, 25.35)" width="56.75" xlink:href="#sprite1"/>
    <use height="89.6" transform="matrix(0.1837, 0.0, 0.0, 0.1753, 1339.2, 38.8)" width="56.75" xlink:href="#sprite1"/>
    <use height="89.6" transform="matrix(0.1596, 0.0, 0.0, 0.1522, 1478.55, 36.75)" width="56.75" xlink:href="#sprite1"/>
    <use height="89.6" transform="matrix(0.1609, 0.0, 0.0, 0.1535, 1431.8, 71.35)" width="56.75" xlink:href="#sprite1"/>
    <use height="89.6" transform="matrix(0.0989, 0.0253, -0.0194, 0.0692, 1014.8, 39.55)" width="56.75" xlink:href="#sprite1"/>
    <use height="89.6" transform="matrix(0.0724, 0.0185, -0.0148, 0.0528, 991.7, 53.1)" width="56.75" xlink:href="#sprite1"/>
    <use height="89.6" transform="matrix(0.063, 0.0161, -0.0127, 0.0451, 1013.5, 76.95)" width="56.75" xlink:href="#sprite1"/>
    <use height="89.6" transform="matrix(0.063, 0.0161, -0.0169, 0.0601, 1296.75, 25.35)" width="56.75" xlink:href="#sprite1"/>
    <use height="89.6" transform="matrix(0.063, 0.0161, -0.0169, 0.0601, 1350.7, 65.0)" width="56.75" xlink:href="#sprite1"/>
    <use height="89.6" transform="matrix(0.063, 0.0161, -0.0169, 0.0601, 1447.55, 21.45)" width="56.75" xlink:href="#sprite1"/>
    <use height="89.6" transform="matrix(0.063, 0.0161, -0.0169, 0.0601, 1510.1, 67.8)" width="56.75" xlink:href="#sprite1"/>
    <use height="89.6" transform="matrix(0.063, 0.0161, -0.0169, 0.0601, 1179.25, 63.05)" width="56.75" xlink:href="#sprite1"/>
    <use height="89.6" transform="matrix(0.063, 0.0161, -0.0169, 0.0601, 1126.9, 93.6)" width="56.75" xlink:href="#sprite1"/>
    <use height="89.6" transform="matrix(0.063, 0.0161, -0.0127, 0.0451, 1142.25, 25.35)" width="56.75" xlink:href="#sprite1"/>
    <use height="89.6" transform="matrix(0.0335, 0.0086, -0.0067, 0.024, 1132.35, 19.45)" width="56.75" xlink:href="#sprite1"/>
    <use height="89.6" transform="matrix(0.063, 0.0161, -0.0127, 0.0451, 1064.85, 115.35)" width="56.75" xlink:href="#sprite1"/>
    <use height="89.6" transform="matrix(0.0335, 0.0086, -0.0067, 0.024, 1076.4, 109.45)" width="56.75" xlink:href="#sprite1"/>
    <use height="89.6" transform="matrix(0.063, 0.0161, -0.0169, 0.0601, 1250.4, 71.35)" width="56.75" xlink:href="#sprite1"/>
    <use height="89.6" transform="matrix(0.1837, 0.0, 0.0, 0.1753, 1265.8, 77.65)" width="56.75" xlink:href="#sprite1"/>
    <use height="128.4" transform="matrix(1.0, 0.0, 0.0, 1.0, 304.65, 13.8)" width="1284.75" xlink:href="#shape4"/>
  </g>
  <defs>
    <g id="shape0" transform="matrix(1.0, 0.0, 0.0, 1.0, 0.0, 0.0)">
      <path d="M800.0 400.0 L0.0 400.0 0.0 0.0 800.0 0.0 800.0 400.0" fill="url(#gradient0)" fill-rule="evenodd" stroke="none"/>
      <path d="M192.65 73.05 L187.2 73.35 192.65 73.05 M187.2 73.35 Q184.9 72.1 181.3 72.1 179.1 72.1 175.9 72.95 171.55 74.15 168.9 76.3 163.9 80.05 162.15 84.2 160.4 88.3 160.4 91.1 L160.4 91.55 Q160.55 97.65 164.75 99.35 L168.5 99.95 Q175.65 99.95 181.1 96.0 183.05 94.55 184.8 92.55 190.45 86.15 190.45 78.9 190.45 75.65 188.0 73.85 L187.2 73.35 M165.6 72.9 L169.4 67.9 Q169.4 66.1 166.0 67.85 162.8 69.5 158.6 73.25 147.75 82.85 147.75 89.4 147.75 91.7 148.1 92.2 148.6 92.85 150.9 92.85 154.8 92.85 157.25 87.7 158.6 85.0 160.05 80.6 161.35 78.25 165.6 72.9 M193.65 92.7 L189.3 90.9 193.65 92.7 M195.75 83.4 L194.1 83.4 195.75 83.4 M181.35 96.45 L181.1 96.0 181.35 96.45 M227.85 69.75 Q227.65 68.35 226.65 67.0 224.65 64.4 220.65 64.4 218.7 64.4 218.15 65.55 217.95 65.9 217.95 66.95 L219.0 69.7 Q220.85 72.35 224.95 72.35 227.05 72.35 227.6 71.6 L227.85 69.75 M235.75 65.85 Q236.1 67.7 236.1 69.85 236.1 73.55 234.75 76.65 233.8 78.7 231.8 81.35 232.05 81.15 232.4 81.1 L234.2 81.0 Q238.45 81.0 242.15 88.35 245.25 94.5 245.65 101.05 L243.8 100.0 241.15 98.9 239.7 98.4 Q232.3 100.7 232.35 113.3 234.55 122.1 240.55 122.15 246.5 122.2 248.75 117.25 250.6 113.25 250.6 108.25 250.6 106.2 249.4 104.45 L250.0 104.1 Q254.35 102.05 258.95 102.05 L261.4 102.35 Q263.5 110.5 263.5 119.55 263.5 146.65 244.35 165.85 235.6 174.6 225.25 179.35 221.7 177.2 219.9 173.55 218.9 174.55 217.95 174.75 L215.7 174.8 Q213.05 174.8 208.4 171.95 202.95 168.6 202.95 165.05 202.95 160.25 205.25 155.4 L208.35 149.9 208.05 149.9 Q206.7 151.65 200.65 154.15 195.1 156.4 189.85 157.0 L187.35 155.05 Q176.7 147.2 161.1 144.9 L160.2 145.1 Q156.45 139.55 155.7 132.35 L155.4 132.65 Q152.05 138.15 149.95 140.2 146.55 143.55 142.3 143.55 L136.65 143.05 Q132.5 132.15 132.5 119.55 132.5 92.4 151.7 73.2 170.9 54.05 198.0 54.05 219.3 54.05 235.75 65.85 M237.0 95.55 L239.7 98.4 237.0 95.55 M230.7 118.2 Q231.05 117.75 231.75 117.6 231.05 117.75 230.7 118.2 M229.65 113.85 L231.2 113.55 232.35 113.3 231.2 113.55 229.65 113.85 M239.15 137.15 Q238.8 137.15 232.15 142.4 L223.35 149.6 Q219.05 153.3 217.2 156.4 215.7 158.95 215.7 161.55 215.7 166.4 217.6 168.15 219.65 170.0 225.6 170.0 235.75 170.0 242.55 158.85 247.95 150.05 247.95 142.75 247.95 139.6 244.4 138.15 242.05 137.15 239.15 137.15 M214.95 134.6 Q211.65 134.15 211.65 138.0 L211.7 139.35 Q212.3 140.7 214.75 140.7 218.25 140.7 218.25 137.85 218.25 135.05 214.95 134.6 M190.8 112.1 L189.9 111.9 190.8 112.1 M183.4 108.85 Q181.65 108.85 180.25 110.95 179.2 112.55 179.2 113.2 L179.2 113.5 Q179.35 116.15 182.4 117.25 184.3 117.95 187.1 117.95 188.65 117.95 189.45 116.6 190.1 115.4 190.1 113.4 L189.9 111.9 Q188.9 108.85 183.4 108.85 M183.3 145.8 Q183.0 145.85 182.45 146.55 183.0 145.85 183.3 145.8 M164.6 100.65 L164.75 99.35 164.6 100.65 M168.6 107.3 Q169.2 106.0 169.2 102.75 169.2 106.0 168.6 107.3 M177.2 115.2 Q178.5 113.9 179.2 113.5 178.5 113.9 177.2 115.2 M182.9 119.75 L183.15 118.05 182.9 119.75 M180.05 148.05 L179.45 148.9 178.95 149.6 179.45 148.9 180.05 148.05 M159.45 93.15 L160.4 91.55 159.45 93.15 M243.6 126.15 Q243.45 125.25 243.9 123.8 L244.35 122.15 244.65 122.15 244.35 122.15 243.9 123.8 Q243.45 125.25 243.6 126.15 M148.8 107.1 Q147.25 103.85 144.85 104.15 142.6 104.4 140.9 107.4 139.1 110.65 139.1 115.05 L139.8 119.75 Q141.5 124.7 146.15 124.7 150.6 124.7 150.6 118.3 150.6 110.85 148.8 107.1" fill="url(#gradient1)" fill-rule="evenodd" stroke="none"/>
      <path d="M187.2 73.35 L188.0 73.85 Q190.45 75.65 190.45 78.9 190.45 86.15 184.8 92.55 183.05 94.55 181.1 96.0 175.65 99.95 168.5 99.95 L164.75 99.35 Q160.55 97.65 160.4 91.55 L160.4 91.1 Q160.4 88.3 162.15 84.2 163.9 80.05 168.9 76.3 171.55 74.15 175.9 72.95 179.1 72.1 181.3 72.1 184.9 72.1 187.2 73.35 M173.85 83.4 Q171.1 83.05 168.75 80.1 171.1 83.05 173.85 83.4 M171.45 95.85 L169.6 96.5 168.15 96.95 169.6 96.5 171.45 95.85" fill="url(#gradient2)" fill-rule="evenodd" stroke="none"/>
      <path d="M165.6 72.9 Q161.35 78.25 160.05 80.6 158.6 85.0 157.25 87.7 154.8 92.85 150.9 92.85 148.6 92.85 148.1 92.2 147.75 91.7 147.75 89.4 147.75 82.85 158.6 73.25 162.8 69.5 166.0 67.85 169.4 66.1 169.4 67.9 L165.6 72.9 M227.85 69.75 L227.6 71.6 Q227.05 72.35 224.95 72.35 220.85 72.35 219.0 69.7 L217.95 66.95 Q217.95 65.9 218.15 65.55 218.7 64.4 220.65 64.4 224.65 64.4 226.65 67.0 227.65 68.35 227.85 69.75" fill="#acc7e2" fill-rule="evenodd" stroke="none"/>
      <path d="M245.65 101.05 Q245.25 94.5 242.15 88.35 238.45 81.0 234.2 81.0 L232.4 81.1 Q232.05 81.15 231.8 81.35 233.8 78.7 234.75 76.65 236.1 73.55 236.1 69.85 236.1 67.7 235.75 65.85 240.25 69.1 244.35 73.2 257.1 86.0 261.4 102.35 L258.95 102.05 Q254.35 102.05 250.0 104.1 L249.4 104.45 Q248.15 102.6 245.65 101.05" fill="#829ab4" fill-rule="evenodd" stroke="none"/>
      <path d="M245.65 101.05 Q248.15 102.6 249.4 104.45 250.6 106.2 250.6 108.25 250.6 113.25 248.75 117.25 246.5 122.2 240.55 122.15 234.55 122.1 232.35 113.3 232.3 100.7 239.7 98.4 L241.15 98.9 243.8 100.0 245.65 101.05" fill="url(#gradient3)" fill-rule="evenodd" stroke="none"/>
      <path d="M214.95 134.6 Q218.25 135.05 218.25 137.85 218.25 140.7 214.75 140.7 212.3 140.7 211.7 139.35 L211.65 138.0 Q211.65 134.15 214.95 134.6 M239.15 137.15 Q242.05 137.15 244.4 138.15 247.95 139.6 247.95 142.75 247.95 150.05 242.55 158.85 235.75 170.0 225.6 170.0 219.65 170.0 217.6 168.15 215.7 166.4 215.7 161.55 215.7 158.95 217.2 156.4 219.05 153.3 223.35 149.6 L232.15 142.4 Q238.8 137.15 239.15 137.15 M148.8 107.1 Q150.6 110.85 150.6 118.3 150.6 124.7 146.15 124.7 141.5 124.7 139.8 119.75 L139.1 115.05 Q139.1 110.65 140.9 107.4 142.6 104.4 144.85 104.15 147.25 103.85 148.8 107.1" fill="#7893af" fill-rule="evenodd" stroke="none"/>
      <path d="M183.4 108.85 Q188.9 108.85 189.9 111.9 L190.1 113.4 Q190.1 115.4 189.45 116.6 188.65 117.95 187.1 117.95 184.3 117.95 182.4 117.25 179.35 116.15 179.2 113.5 L179.2 113.2 Q179.2 112.55 180.25 110.95 181.65 108.85 183.4 108.85" fill="#5e81a6" fill-rule="evenodd" stroke="none"/>
      <path d="M136.65 143.05 L142.3 143.55 Q146.55 143.55 149.95 140.2 152.05 138.15 155.4 132.65 L155.7 132.35 Q156.45 139.55 160.2 145.1 159.4 145.3 158.2 145.9 L157.15 146.4 156.95 149.5 Q157.3 153.15 160.25 156.0 168.1 163.6 173.85 165.35 184.95 168.8 191.65 167.9 195.0 167.5 196.15 166.35 L194.6 163.1 Q192.5 159.4 189.85 157.0 195.1 156.4 200.65 154.15 206.7 151.65 208.05 149.9 L208.35 149.9 205.25 155.4 Q202.95 160.25 202.95 165.05 202.95 168.6 208.4 171.95 213.05 174.8 215.7 174.8 L217.95 174.75 Q218.9 174.55 219.9 173.55 221.7 177.2 225.25 179.35 212.8 185.05 198.0 185.05 170.9 185.05 151.7 165.85 141.45 155.6 136.65 143.05 M196.65 157.95 L194.55 159.0 196.65 157.95 M199.35 166.35 L196.15 166.35 199.35 166.35 M158.55 143.55 L157.15 146.4 158.55 143.55" fill="#8ea6bf" fill-rule="evenodd" stroke="none"/>
      <path d="M160.2 145.1 L161.1 144.9 Q176.7 147.2 187.35 155.05 L189.85 157.0 Q192.5 159.4 194.6 163.1 L196.15 166.35 Q195.0 167.5 191.65 167.9 184.95 168.8 173.85 165.35 168.1 163.6 160.25 156.0 157.3 153.15 156.95 149.5 L157.15 146.4 158.2 145.9 Q159.4 145.3 160.2 145.1" fill="url(#gradient4)" fill-rule="evenodd" stroke="none"/>
      <path d="M187.2 73.35 L192.65 73.05 M187.2 73.35 Q184.9 72.1 181.3 72.1 179.1 72.1 175.9 72.95 171.55 74.15 168.9 76.3 163.9 80.05 162.15 84.2 160.4 88.3 160.4 91.1 L160.4 91.55 Q160.55 97.65 164.75 99.35 L168.5 99.95 Q175.65 99.95 181.1 96.0 183.05 94.55 184.8 92.55 190.45 86.15 190.45 78.9 190.45 75.65 188.0 73.85 L187.2 73.35 M168.15 96.95 L169.6 96.5 171.45 95.85 M168.75 80.1 Q171.1 83.05 173.85 83.4 M181.1 96.0 L181.35 96.45 M194.1 83.4 L195.75 83.4 M189.3 90.9 L193.65 92.7 M245.65 101.05 Q248.15 102.6 249.4 104.45 M261.4 102.35 Q257.1 86.0 244.35 73.2 240.25 69.1 235.75 65.85 219.3 54.05 198.0 54.05 170.9 54.05 151.7 73.2 132.5 92.4 132.5 119.55 132.5 132.15 136.65 143.05 M160.2 145.1 L161.1 144.9 Q176.7 147.2 187.35 155.05 L189.85 157.0 Q192.5 159.4 194.6 163.1 L196.15 166.35 199.35 166.35 M225.25 179.35 Q235.6 174.6 244.35 165.85 263.5 146.65 263.5 119.55 263.5 110.5 261.4 102.35 M239.7 98.4 L237.0 95.55 M245.65 101.05 L243.8 100.0 241.15 98.9 239.7 98.4 Q232.3 100.7 232.35 113.3 234.55 122.1 240.55 122.15 246.5 122.2 248.75 117.25 250.6 113.25 250.6 108.25 250.6 106.2 249.4 104.45 M232.35 113.3 L231.2 113.55 229.65 113.85 M231.75 117.6 Q231.05 117.75 230.7 118.2 M189.9 111.9 L190.8 112.1 M183.4 108.85 Q181.65 108.85 180.25 110.95 179.2 112.55 179.2 113.2 L179.2 113.5 Q179.35 116.15 182.4 117.25 184.3 117.95 187.1 117.95 188.65 117.95 189.45 116.6 190.1 115.4 190.1 113.4 L189.9 111.9 Q188.9 108.85 183.4 108.85 M183.15 118.05 L182.9 119.75 M179.2 113.5 Q178.5 113.9 177.2 115.2 M169.2 102.75 Q169.2 106.0 168.6 107.3 M164.75 99.35 L164.6 100.65 M182.45 146.55 Q183.0 145.85 183.3 145.8 M194.55 159.0 L196.65 157.95 M160.2 145.1 Q159.4 145.3 158.2 145.9 L157.15 146.4 156.95 149.5 Q157.3 153.15 160.25 156.0 168.1 163.6 173.85 165.35 184.95 168.8 191.65 167.9 195.0 167.5 196.15 166.35 M178.95 149.6 L179.45 148.9 180.05 148.05 M225.25 179.35 Q212.8 185.05 198.0 185.05 170.9 185.05 151.7 165.85 141.45 155.6 136.65 143.05 M244.65 122.15 L244.35 122.15 243.9 123.8 Q243.45 125.25 243.6 126.15 M160.4 91.55 L159.45 93.15 M157.15 146.4 L158.55 143.55" fill="none" stroke="#000000" stroke-linecap="round" stroke-linejoin="round" stroke-opacity="0.14901961" stroke-width="0.4"/>
      <path d="M707.5 115.7 L709.1 115.95 Q709.9 115.9 713.5 119.95 717.05 123.95 734.25 138.65 751.4 153.15 764.6 154.5 777.75 155.75 785.5 160.05 783.9 161.15 780.6 161.55 L754.0 162.65 Q730.75 163.3 712.0 165.55 L670.75 165.15 641.9 166.5 623.0 167.9 597.0 167.75 588.0 168.05 Q587.8 168.15 588.05 168.3 588.3 168.5 587.9 168.55 585.0 169.3 535.0 169.65 L490.25 169.3 481.0 169.55 462.35 168.5 443.5 169.25 436.2 168.5 Q425.9 170.25 415.0 170.05 L410.95 169.65 398.0 171.0 373.0 170.55 370.2 169.3 Q369.25 168.8 365.6 168.5 L355.15 167.55 305.0 164.65 398.25 166.05 411.0 165.4 412.15 165.55 416.15 164.65 Q425.2 162.55 434.0 161.4 450.15 159.05 456.25 161.05 457.55 160.05 459.05 159.15 465.35 155.65 472.2 155.9 L472.75 155.3 474.6 155.05 Q478.65 154.15 480.25 152.55 482.15 150.4 483.5 149.8 486.85 148.55 496.0 148.15 500.2 143.95 508.3 139.4 521.85 131.9 534.5 132.05 542.75 132.15 548.65 135.15 550.15 135.9 552.45 137.15 554.4 138.05 556.0 138.15 556.55 138.15 560.9 135.4 566.4 132.45 572.5 132.65 L577.7 133.4 582.85 134.2 Q583.95 134.3 588.15 131.15 593.95 126.9 598.85 124.3 617.6 114.4 645.0 114.8 657.35 114.95 661.3 116.7 L663.2 117.9 Q663.95 118.4 665.0 118.4 666.65 118.45 674.3 115.2 682.65 111.7 686.0 111.15 700.85 108.7 705.6 111.4 708.0 112.8 707.5 115.7" fill="url(#gradient5)" fill-rule="evenodd" stroke="none"/>
      <path d="M693.35 229.9 Q682.05 230.85 665.0 233.85 L577.9 234.4 Q577.35 234.75 573.2 235.35 L568.45 236.15 524.35 236.15 487.7 238.25 Q468.9 240.0 495.35 235.1 521.75 230.15 522.15 229.4 522.65 228.6 524.4 228.15 L540.2 224.85 Q542.9 224.15 545.1 220.6 547.15 217.25 548.45 217.25 550.0 217.25 563.15 222.75 570.2 222.75 578.15 219.15 582.7 217.1 590.9 212.4 598.0 208.85 602.8 208.85 609.15 208.75 615.1 214.4 L643.55 215.0 646.15 215.75 682.15 216.15 Q691.2 219.9 698.35 221.5 700.05 221.85 700.35 222.25 700.6 222.5 721.85 227.6 743.1 232.6 723.85 230.85 L693.35 229.9" fill="url(#gradient6)" fill-rule="evenodd" stroke="none"/>
      <path d="M508.4 96.35 Q512.1 98.05 512.1 101.35 512.1 103.4 511.3 103.95 510.05 104.9 505.2 105.45 L455.35 109.8 404.35 109.8 395.45 108.95 385.95 108.55 376.65 109.55 367.35 110.65 Q364.9 110.65 364.0 108.55 363.35 106.95 363.6 105.15 L353.0 105.4 345.85 105.55 Q341.05 105.55 339.85 102.95 L339.6 100.1 Q339.6 96.3 347.75 92.1 354.35 88.7 362.1 86.8 373.25 84.1 380.1 84.55 L383.3 84.6 Q384.5 84.45 385.85 83.2 389.9 79.55 395.85 76.3 415.1 65.8 429.7 69.7 435.95 71.35 439.55 75.55 443.1 79.6 443.1 85.1 L444.6 83.95 Q445.95 82.85 447.8 82.2 453.55 79.85 464.85 79.85 472.6 79.85 483.55 84.95 489.2 87.45 494.85 90.8 501.4 93.85 508.4 96.35" fill="url(#gradient7)" fill-rule="evenodd" stroke="none"/>
      <path d="M455.7 275.7 L494.0 276.1 Q496.95 276.85 505.25 277.45 L553.15 277.5 Q536.9 277.95 551.0 281.75 542.2 283.45 534.85 285.5 L514.85 285.95 494.6 287.6 479.65 289.1 217.3 289.1 217.05 288.9 172.05 288.9 Q220.5 281.8 228.55 281.45 244.95 280.6 248.55 277.95 249.9 276.85 256.6 274.7 L259.65 273.7 Q268.6 270.75 269.7 270.75 271.6 270.75 277.45 273.25 283.25 275.7 285.75 275.7 313.0 275.7 328.4 270.1 L345.15 263.5 347.4 262.65 Q359.0 258.35 372.45 254.7 385.15 251.25 389.7 255.25 L393.15 259.35 Q394.85 261.45 396.95 262.65 L398.05 263.2 Q400.35 265.2 421.95 269.25 L455.7 275.7" fill="url(#gradient8)" fill-rule="evenodd" stroke="none"/>
      <path d="M194.2 107.3 Q318.65 122.7 363.45 120.65 332.25 130.3 259.75 124.95 L171.4 128.8 101.5 131.45 61.8 129.05 Q20.5 126.8 6.8 130.15 16.4 126.5 21.85 122.25 L31.95 113.85 Q45.8 103.0 59.45 104.95 60.6 103.95 63.25 100.2 65.9 96.55 68.45 94.45 76.9 87.45 95.45 86.8 107.15 86.45 112.75 96.8 115.5 101.95 115.95 107.3 L118.7 105.9 Q122.2 104.2 126.15 102.8 138.75 98.35 150.95 98.35 165.55 98.35 174.55 101.8 176.8 102.65 180.05 104.15 182.7 105.15 184.95 105.15 L189.2 105.95 194.2 107.3" fill="url(#gradient9)" fill-rule="evenodd" stroke="none"/>
      <path d="M76.05 194.55 L85.65 188.8 Q100.85 180.8 122.35 183.55 125.8 184.25 127.8 186.9 L130.6 190.9 141.3 190.5 Q143.55 190.4 164.55 195.25 175.05 197.55 232.1 200.85 L183.1 203.9 172.7 202.9 Q168.4 202.15 118.45 206.1 68.15 210.1 52.5 208.4 36.8 206.65 34.9 204.85 33.0 203.0 37.8 202.95 42.6 202.9 45.6 199.6 50.05 194.5 59.35 194.5 64.75 194.5 66.1 196.0 L66.85 197.0 Q67.35 197.4 68.45 197.4 71.45 197.4 76.05 194.55" fill="url(#gradient10)" fill-rule="evenodd" stroke="none"/>
    </g>
    <radialGradient cx="0" cy="0" gradientTransform="matrix(0.651, -1.0E-4, 1.0E-4, 0.5865, 194.0, 119.0)" gradientUnits="userSpaceOnUse" id="gradient0" r="819.2" spreadMethod="pad">
      <stop offset="0.0" stop-color="#b5cdee"/>
      <stop offset="0.043137254901960784" stop-color="#8a96ad"/>
      <stop offset="0.1843137254901961" stop-color="#263c4f"/>
      <stop offset="1.0" stop-color="#10193f"/>
    </radialGradient>
    <radialGradient cx="0" cy="0" gradientTransform="matrix(0.09, 0.0, 0.0, 0.09, 189.8, 108.15)" gradientUnits="userSpaceOnUse" id="gradient1" r="819.2" spreadMethod="pad">
      <stop offset="0.0" stop-color="#c6dcf3"/>
      <stop offset="1.0" stop-color="#8ea6bf"/>
    </radialGradient>
    <linearGradient gradientTransform="matrix(0.0115, 0.0067, -0.0085, 0.0147, 181.3, 88.45)" gradientUnits="userSpaceOnUse" id="gradient2" spreadMethod="pad" x1="-819.2" x2="819.2">
      <stop offset="0.0" stop-color="#7a95b1"/>
      <stop offset="1.0" stop-color="#597898"/>
    </linearGradient>
    <linearGradient gradientTransform="matrix(-0.015, 0.0087, -0.0073, -0.0127, 251.3, 108.7)" gradientUnits="userSpaceOnUse" id="gradient3" spreadMethod="pad" x1="-819.2" x2="819.2">
      <stop offset="0.0" stop-color="#c6dcf3"/>
      <stop offset="1.0" stop-color="#7b99b8"/>
    </linearGradient>
    <linearGradient gradientTransform="matrix(0.0033, -0.0122, 0.0141, 0.0038, 177.9, 152.45)" gradientUnits="userSpaceOnUse" id="gradient4" spreadMethod="pad" x1="-819.2" x2="819.2">
      <stop offset="0.0" stop-color="#7a95b1"/>
      <stop offset="1.0" stop-color="#597898"/>
    </linearGradient>
    <linearGradient gradientTransform="matrix(0.1977, -0.1141, 0.0148, 0.0265, 564.7, 363.45)" gradientUnits="userSpaceOnUse" id="gradient5" spreadMethod="pad" x1="-819.2" x2="819.2">
      <stop offset="0.09019607843137255" stop-color="#f5fdff" stop-opacity="0.6509804"/>
      <stop offset="0.9921568627450981" stop-color="#eefbff" stop-opacity="0.0"/>
    </linearGradient>
    <linearGradient gradientTransform="matrix(0.0143, 0.0534, -0.0096, 0.0026, 593.05, 219.3)" gradientUnits="userSpaceOnUse" id="gradient6" spreadMethod="pad" x1="-819.2" x2="819.2">
      <stop offset="0.0" stop-color="#f5fdff" stop-opacity="0.6509804"/>
      <stop offset="0.9921568627450981" stop-color="#eefbff" stop-opacity="0.0"/>
    </linearGradient>
    <linearGradient gradientTransform="matrix(0.048, -0.048, 0.0215, 0.0215, 426.9, 103.5)" gradientUnits="userSpaceOnUse" id="gradient7" spreadMethod="pad" x1="-819.2" x2="819.2">
      <stop offset="0.043137254901960784" stop-color="#f5fdff" stop-opacity="0.6509804"/>
      <stop offset="0.9921568627450981" stop-color="#eefbff" stop-opacity="0.0"/>
    </linearGradient>
    <linearGradient gradientTransform="matrix(0.0338, 0.0863, -0.0184, 0.0068, 321.25, 270.75)" gradientUnits="userSpaceOnUse" id="gradient8" spreadMethod="pad" x1="-819.2" x2="819.2">
      <stop offset="0.0" stop-color="#f5fdff" stop-opacity="0.6509804"/>
      <stop offset="0.9921568627450981" stop-color="#eefbff" stop-opacity="0.0"/>
    </linearGradient>
    <linearGradient gradientTransform="matrix(-0.009, -0.0334, 0.0313, -0.0084, 201.1, 121.5)" gradientUnits="userSpaceOnUse" id="gradient9" spreadMethod="pad" x1="-819.2" x2="819.2">
      <stop offset="0.043137254901960784" stop-color="#f5fdff" stop-opacity="0.6509804"/>
      <stop offset="0.9921568627450981" stop-color="#eefbff" stop-opacity="0.0"/>
    </linearGradient>
    <linearGradient gradientTransform="matrix(-0.0185, 0.0321, -0.0146, -0.0131, 133.0, 206.65)" gradientUnits="userSpaceOnUse" id="gradient10" spreadMethod="pad" x1="-819.2" x2="819.2">
      <stop offset="0.043137254901960784" stop-color="#f5fdff" stop-opacity="0.6509804"/>
      <stop offset="0.9921568627450981" stop-color="#eefbff" stop-opacity="0.0"/>
    </linearGradient>
    <g id="sprite0" transform="matrix(1.0, 0.0, 0.0, 1.0, -2.6, 0.05)">
      <use height="116.85" transform="matrix(1.0, 0.0, 0.0, 1.0, 2.6, -0.05)" width="220.6" xlink:href="#shape1"/>
    </g>
    <g id="shape1" transform="matrix(1.0, 0.0, 0.0, 1.0, -2.6, 0.05)">
      <path d="M216.6 72.9 Q209.6 82.3 197.3 90.5 165.65 111.5 112.85 116.1 61.0 120.6 28.05 95.7 15.85 86.45 8.7 74.85 2.6 65.0 2.6 58.05 2.6 51.0 7.9 41.95 14.25 31.1 25.85 22.35 57.15 -1.2 112.85 0.0 173.9 1.15 201.1 17.6 224.7 31.9 223.1 58.05 222.7 64.7 216.6 72.9" fill="url(#gradient11)" fill-rule="evenodd" stroke="none"/>
    </g>
    <radialGradient cx="0" cy="0" gradientTransform="matrix(0.0971, 0.0, 0.0, 0.0572, 109.5, 53.65)" gradientUnits="userSpaceOnUse" id="gradient11" r="819.2" spreadMethod="pad">
      <stop offset="0.0" stop-color="#cdfdff" stop-opacity="0.45882353"/>
      <stop offset="0.19607843137254902" stop-color="#dafdff" stop-opacity="0.34117648"/>
      <stop offset="1.0" stop-color="#ffffff" stop-opacity="0.0"/>
    </radialGradient>
    <g id="shape2" transform="matrix(1.0, 0.0, 0.0, 1.0, 0.2, 0.0)">
      <path d="M751.5 96.8 Q751.4 97.25 750.9 97.5 750.25 97.25 750.25 96.55 L751.5 96.8 M754.0 65.8 Q753.9 66.25 753.4 66.5 752.75 66.25 752.75 65.55 L754.0 65.8 M720.55 31.8 Q720.4 32.25 719.9 32.5 719.3 32.25 719.3 31.55 L720.55 31.8 M677.75 59.7 Q677.0 59.4 676.8 59.05 676.95 58.7 678.05 58.35 L679.65 58.0 Q680.05 58.3 680.05 59.5 680.65 60.05 679.4 60.05 L677.75 59.7 M686.65 102.0 L686.05 102.0 Q685.8 101.55 685.8 100.55 L687.05 100.8 Q687.05 101.55 686.65 102.0 M699.3 191.0 L698.05 191.05 697.8 190.25 699.55 190.3 699.3 191.0 M774.25 157.15 Q774.25 156.6 774.8 156.2 775.4 155.7 776.0 156.3 L776.0 157.5 774.5 158.0 Q774.25 158.4 774.25 157.15 M780.1 205.65 Q779.75 205.65 779.75 204.85 L780.25 204.25 781.15 203.5 782.5 205.0 781.9 205.55 780.1 205.65 M731.8 237.0 Q731.8 236.25 732.1 236.0 L732.4 235.8 733.65 235.8 734.05 237.05 Q733.7 237.65 732.9 238.05 L732.05 238.0 Q731.8 237.85 731.8 237.0 M770.15 267.5 L769.5 267.5 Q769.25 267.05 769.25 266.3 769.55 265.8 770.5 266.3 770.5 267.05 770.15 267.5 M675.55 257.8 Q674.45 259.85 673.4 260.05 672.55 259.35 672.25 258.6 L671.8 257.5 672.6 257.45 675.55 257.8 M681.65 263.5 L681.05 263.5 Q680.8 263.05 680.8 262.05 L682.05 262.3 Q682.05 263.05 681.65 263.5 M608.95 45.7 L607.9 46.75 606.95 45.7 606.65 45.0 606.8 43.5 607.65 43.4 609.4 43.5 609.55 43.55 609.65 44.35 Q609.65 45.05 608.95 45.7 M587.05 75.3 L586.4 76.0 Q585.8 75.75 585.8 75.05 L587.05 75.3 M546.55 61.05 L546.65 61.85 546.55 62.8 546.25 63.05 545.15 63.25 544.2 63.15 544.15 63.0 543.75 62.75 543.65 61.85 Q543.65 61.05 544.45 60.8 L546.4 61.0 546.55 61.05 M623.65 187.0 L623.5 186.4 623.3 185.8 Q623.4 185.5 624.65 185.5 L625.05 185.8 Q625.05 186.55 624.65 187.0 L623.65 187.0 M425.15 32.0 L425.55 32.3 425.55 32.85 427.05 33.3 427.15 33.85 Q427.15 34.05 426.4 34.05 L425.55 34.05 425.5 34.5 425.15 35.0 424.55 35.0 424.3 34.55 424.3 33.95 423.05 33.75 422.8 32.5 424.3 32.6 424.3 32.05 425.15 32.0 M390.55 20.3 L389.9 21.0 Q389.3 20.75 389.3 20.05 L390.55 20.3 M331.25 63.0 L330.55 63.0 Q330.3 62.55 330.3 61.8 330.7 61.35 331.55 61.8 L331.25 63.0 M454.15 125.5 L454.8 126.55 454.9 126.7 455.55 126.8 455.15 127.25 455.55 128.5 Q455.4 128.8 454.55 129.0 453.9 128.6 453.55 127.8 L452.55 128.0 Q452.3 127.55 452.3 126.55 L453.2 126.5 453.3 125.55 454.15 125.5 M440.1 236.95 L441.05 237.3 440.8 238.0 439.05 238.05 438.95 238.15 Q438.8 238.15 438.8 237.35 438.8 236.6 439.1 236.7 L439.4 236.8 440.1 236.95 M364.9 282.5 Q364.3 282.25 364.3 281.55 L365.55 281.8 Q365.4 282.25 364.9 282.5 M336.8 307.55 Q337.15 306.8 337.95 306.55 338.8 306.3 339.55 306.8 339.45 308.0 337.85 308.0 L336.85 307.8 336.8 307.55 M301.8 11.85 Q302.05 11.9 302.05 12.65 L301.8 14.15 301.7 14.5 303.55 14.8 Q303.5 15.45 303.0 15.55 L302.05 15.55 302.05 15.9 302.0 17.0 301.75 17.5 301.05 17.5 300.8 17.05 300.8 15.55 299.05 15.5 Q298.8 16.1 298.8 14.85 298.8 14.1 299.15 14.2 L299.5 14.3 300.35 14.4 300.3 13.75 Q300.3 12.15 301.0 11.8 L301.8 11.85 M117.3 25.55 L117.3 25.0 118.0 24.95 120.05 25.3 120.0 25.75 Q120.75 26.05 119.5 26.05 117.6 26.05 117.3 25.55 M50.55 14.95 L53.75 14.5 54.05 14.8 54.05 15.9 54.0 17.0 53.75 17.5 50.55 17.5 50.35 17.1 50.3 16.1 Q50.3 15.15 50.55 14.95 M74.75 40.0 L74.05 40.0 Q73.8 39.55 73.8 38.8 74.2 38.35 75.05 38.8 L74.75 40.0 M48.55 85.8 L48.0 86.5 Q47.3 86.25 47.3 85.55 L48.55 85.8 M12.75 104.5 L13.05 104.8 13.05 107.05 12.75 107.5 11.05 107.5 Q10.8 107.9 10.8 106.65 10.8 105.9 11.0 105.85 L11.75 105.75 Q10.55 105.5 10.3 105.05 L10.3 104.5 10.95 104.45 12.75 104.5 M34.3 146.55 L34.3 146.0 34.9 145.95 36.05 146.3 Q36.0 146.95 35.5 147.05 34.55 147.0 34.3 146.55 M19.05 153.8 L18.5 154.5 Q17.8 154.25 17.8 153.55 L19.05 153.8 M89.8 236.0 L90.4 235.95 91.55 236.3 Q91.5 236.95 91.0 237.05 90.05 237.0 89.8 236.55 L89.8 236.0 M95.3 294.85 Q95.3 294.1 95.65 293.95 L96.0 293.8 96.9 293.95 98.05 294.3 Q97.95 295.1 97.0 296.05 L95.55 295.15 95.3 294.85 M128.3 285.0 L128.9 284.95 130.05 285.3 Q130.0 285.95 129.5 286.05 128.55 286.0 128.3 285.55 L128.3 285.0 M41.3 267.85 L42.05 267.15 Q42.85 266.5 43.25 266.5 43.55 266.8 43.55 268.0 L43.1 268.2 42.5 268.55 41.55 268.65 Q41.3 268.65 41.3 267.85 M322.8 242.05 L324.05 242.3 323.5 243.0 Q322.8 242.75 322.8 242.05 M312.75 282.55 L313.05 283.05 312.1 283.65 311.0 284.05 310.05 284.05 Q309.8 283.95 309.8 283.15 309.8 282.55 310.4 282.2 L312.5 282.3 312.75 282.55 M238.3 308.0 L238.9 307.95 240.05 308.3 Q240.0 308.95 239.5 309.05 238.55 309.0 238.3 308.55 L238.3 308.0" fill="#d5e7fa" fill-rule="evenodd" stroke="none"/>
      <path d="M1600.0 400.8 L0.0 400.8 0.0 0.8 1600.0 0.8 1600.0 400.8" fill="url(#gradient12)" fill-rule="evenodd" stroke="none"/>
      <path d="M1600.0 400.8 L0.0 400.8 0.0 0.8 1600.0 0.8 1600.0 400.8 Z" fill="none" stroke="#000000" stroke-linecap="round" stroke-linejoin="round" stroke-opacity="0.3019608" stroke-width="0.4"/>
      <path d="M427.0 0.0 Q427.55 8.45 427.55 17.2 427.55 102.95 369.95 163.7 312.35 224.4 230.85 224.4 149.4 224.4 91.8 163.7 34.2 102.95 34.2 17.2 34.2 8.45 34.8 0.0 L427.0 0.0" fill="url(#gradient13)" fill-rule="evenodd" stroke="none"/>
      <path d="M352.0 0.8 L358.6 0.8 358.7 7.45 Q358.7 66.95 316.65 109.0 274.6 151.05 215.1 151.05 203.05 151.05 191.8 149.35 176.25 146.95 162.05 141.4 177.95 146.7 195.45 148.1 L208.4 148.6 Q267.9 148.6 309.95 106.55 352.0 64.5 352.0 5.0 L352.0 0.8 M71.65 0.8 L78.7 0.8 Q78.55 4.25 78.55 7.75 78.55 69.8 120.6 113.7 127.25 120.65 134.35 126.5 123.45 118.9 113.55 109.0 71.5 66.95 71.5 7.45 71.5 4.1 71.65 0.8" fill="#c6c7c9" fill-rule="evenodd" stroke="none"/>
      <path d="M352.0 0.8 L352.0 5.0 Q352.0 64.5 309.95 106.55 267.9 148.6 208.4 148.6 L195.45 148.1 Q177.95 146.7 162.05 141.4 147.5 135.65 134.35 126.5 127.25 120.65 120.6 113.7 78.55 69.8 78.55 7.75 78.55 4.25 78.7 0.8 L95.4 0.8 95.3 1.1 Q94.9 2.25 94.65 3.35 L94.25 5.15 Q93.25 11.5 94.9 17.65 97.55 27.1 105.45 32.15 L105.9 32.5 107.95 33.6 Q116.1 37.9 126.15 35.95 140.35 33.5 149.1 21.2 L151.55 17.5 Q156.3 9.3 155.85 0.8 L352.0 0.8 M280.9 54.8 Q264.65 54.25 252.6 67.5 241.05 80.15 242.0 96.0 242.85 109.9 253.25 117.6 262.45 124.4 274.6 122.85 286.1 121.25 295.25 112.75 304.65 103.95 307.4 91.8 310.45 78.15 303.7 67.45 295.9 55.2 280.9 54.8 M178.6 104.5 Q179.4 93.95 170.25 87.55 161.7 81.55 151.3 84.35 142.75 86.55 138.45 93.75 135.95 97.85 135.75 102.35 135.7 104.35 136.1 106.5 137.25 112.65 142.1 117.1 147.2 121.75 154.3 122.65 L157.2 122.85 Q163.85 122.8 169.5 119.2 177.85 113.85 178.6 104.5 M117.4 64.95 Q117.85 68.4 120.4 70.65 L121.45 71.45 Q124.1 73.05 127.6 72.9 132.75 72.5 136.2 68.45 140.1 63.75 138.65 58.55 137.65 55.15 135.05 53.45 133.8 52.65 132.2 52.25 128.05 51.1 123.85 53.35 121.5 54.55 119.9 56.6 L119.75 56.8 Q119.1 57.6 118.6 58.6 117.0 61.7 117.4 64.95" fill="url(#gradient14)" fill-rule="evenodd" stroke="none"/>
      <path d="M280.7 69.4 Q268.75 69.4 259.8 78.9 251.1 88.05 251.4 99.65 251.6 110.1 259.25 116.1 266.15 121.5 275.75 120.35 284.9 119.15 292.1 112.4 299.55 105.45 301.45 96.0 303.5 85.55 298.05 77.9 291.9 69.3 280.7 69.4 M280.9 54.8 Q295.9 55.2 303.7 67.45 310.45 78.15 307.4 91.8 304.65 103.95 295.25 112.75 286.1 121.25 274.6 122.85 262.45 124.4 253.25 117.6 242.85 109.9 242.0 96.0 241.05 80.15 252.6 67.5 264.65 54.25 280.9 54.8" fill="url(#gradient15)" fill-rule="evenodd" stroke="none"/>
      <path d="M280.7 69.4 Q291.9 69.3 298.05 77.9 303.5 85.55 301.45 96.0 299.55 105.45 292.1 112.4 284.9 119.15 275.75 120.35 266.15 121.5 259.25 116.1 251.6 110.1 251.4 99.65 251.1 88.05 259.8 78.9 268.75 69.4 280.7 69.4" fill="url(#gradient16)" fill-rule="evenodd" stroke="none"/>
      <path d="M171.0 107.6 Q170.75 114.3 165.0 118.35 160.0 121.8 153.6 121.2 147.95 120.5 143.85 116.85 139.9 113.25 139.05 108.35 138.2 103.0 141.25 98.6 144.7 93.5 151.25 92.3 158.8 90.9 164.9 95.4 171.25 100.15 171.0 107.6" fill="url(#gradient17)" fill-rule="evenodd" stroke="none"/>
      <path d="M178.6 104.5 Q177.85 113.85 169.5 119.2 163.85 122.8 157.2 122.85 L154.3 122.65 Q147.2 121.75 142.1 117.1 137.25 112.65 136.1 106.5 135.7 104.35 135.75 102.35 135.95 97.85 138.45 93.75 142.75 86.55 151.3 84.35 161.7 81.55 170.25 87.55 179.4 93.95 178.6 104.5 M171.0 107.6 Q171.25 100.15 164.9 95.4 158.8 90.9 151.25 92.3 144.7 93.5 141.25 98.6 138.2 103.0 139.05 108.35 139.9 113.25 143.85 116.85 147.95 120.5 153.6 121.2 160.0 121.8 165.0 118.35 170.75 114.3 171.0 107.6" fill="url(#gradient18)" fill-rule="evenodd" stroke="none"/>
      <path d="M99.7 0.45 L99.6 0.8 Q98.05 7.05 99.65 12.75 101.9 20.55 108.6 24.3 116.1 28.75 125.4 26.25 136.3 23.55 142.5 13.65 146.75 7.25 147.3 0.8 L147.3 0.45 155.85 0.45 155.85 0.8 Q156.3 9.3 151.55 17.5 L149.1 21.2 Q140.35 33.5 126.15 35.95 116.1 37.9 107.95 33.6 L105.9 32.5 105.45 32.15 Q97.55 27.1 94.9 17.65 93.25 11.5 94.25 5.15 L94.65 3.35 Q94.9 2.25 95.3 1.1 L95.4 0.8 95.5 0.45 99.7 0.45" fill="url(#gradient19)" fill-rule="evenodd" stroke="none"/>
      <path d="M147.3 0.45 L147.3 0.8 Q146.75 7.25 142.5 13.65 136.3 23.55 125.4 26.25 116.1 28.75 108.6 24.3 101.9 20.55 99.65 12.75 98.05 7.05 99.6 0.8 L99.7 0.45 147.3 0.45" fill="url(#gradient20)" fill-rule="evenodd" stroke="none"/>
      <path d="M120.6 69.8 Q122.9 71.65 126.1 71.35 129.75 70.95 132.15 67.95 134.75 64.55 133.85 60.75 132.95 57.15 129.5 55.9 126.45 54.75 123.3 56.25 120.65 57.55 119.15 60.2 117.8 62.65 118.15 65.3 118.55 68.0 120.6 69.8 M117.4 64.95 Q117.0 61.7 118.6 58.6 119.1 57.6 119.75 56.8 L119.9 56.6 Q121.5 54.55 123.85 53.35 128.05 51.1 132.2 52.25 133.8 52.65 135.05 53.45 137.65 55.15 138.65 58.55 140.1 63.75 136.2 68.45 132.75 72.5 127.6 72.9 124.1 73.05 121.45 71.45 L120.4 70.65 Q117.85 68.4 117.4 64.95" fill="url(#gradient21)" fill-rule="evenodd" stroke="none"/>
      <path d="M120.6 69.8 Q118.55 68.0 118.15 65.3 117.8 62.65 119.15 60.2 120.65 57.55 123.3 56.25 126.45 54.75 129.5 55.9 132.95 57.15 133.85 60.75 134.75 64.55 132.15 67.95 129.75 70.95 126.1 71.35 122.9 71.65 120.6 69.8" fill="url(#gradient22)" fill-rule="evenodd" stroke="none"/>
      <path d="M162.05 141.4 Q176.25 146.95 191.8 149.35 203.05 151.05 215.1 151.05 274.6 151.05 316.65 109.0 358.7 66.95 358.7 7.45 L358.6 0.8 M71.65 0.8 Q71.5 4.1 71.5 7.45 71.5 66.95 113.55 109.0 123.45 118.9 134.35 126.5 147.5 135.65 162.05 141.4 Z" fill="none" stroke="#000000" stroke-linecap="round" stroke-linejoin="round" stroke-opacity="0.25882354" stroke-width="0.2"/>
      <path d="M285.7 32.95 Q287.3 30.2 290.05 29.15 292.7 28.15 294.95 29.45 297.2 30.75 297.7 33.6 298.15 36.45 296.55 39.2 294.95 42.0 292.25 43.05 289.5 44.1 287.25 42.8 285.0 41.5 284.6 38.6 284.1 35.75 285.7 32.95" fill="#bdbfc1" fill-rule="evenodd" stroke="none"/>
      <path d="M309.3 47.95 Q310.85 48.85 311.15 50.75 311.5 52.7 310.4 54.6 309.3 56.5 307.45 57.2 L304.05 57.05 Q302.55 56.15 302.25 54.15 301.9 52.25 303.0 50.35 304.1 48.45 305.95 47.75 L309.3 47.95" fill="#bdbfc1" fill-rule="evenodd" stroke="none"/>
    </g>
    <radialGradient cx="0" cy="0" gradientTransform="matrix(0.4251, 0.0, 0.0, 0.3929, 237.0, 45.0)" gradientUnits="userSpaceOnUse" id="gradient12" r="819.2" spreadMethod="pad">
      <stop offset="0.0" stop-color="#475258"/>
      <stop offset="1.0" stop-color="#212c33"/>
    </radialGradient>
    <radialGradient cx="0" cy="0" gradientTransform="matrix(0.2321, 0.0, 0.0, 0.2097, 214.75, 37.2)" gradientUnits="userSpaceOnUse" id="gradient13" r="819.2" spreadMethod="pad">
      <stop offset="0.0" stop-color="#cecfd0" stop-opacity="0.6901961"/>
      <stop offset="1.0" stop-color="#9fa3a6" stop-opacity="0.0"/>
    </radialGradient>
    <radialGradient cx="0" cy="0" gradientTransform="matrix(0.1979, 0.0, 0.0, 0.1979, 205.0, 12.8)" gradientUnits="userSpaceOnUse" id="gradient14" r="819.2" spreadMethod="pad">
      <stop offset="0.0" stop-color="#d9d9d9"/>
      <stop offset="1.0" stop-color="#9fa3a6"/>
    </radialGradient>
    <linearGradient gradientTransform="matrix(0.0219, 0.0502, -0.0382, 0.0166, 268.75, 80.45)" gradientUnits="userSpaceOnUse" id="gradient15" spreadMethod="pad" x1="-819.2" x2="819.2">
      <stop offset="0.00784313725490196" stop-color="#c6c7c9"/>
      <stop offset="1.0" stop-color="#a5a9ac" stop-opacity="0.9607843"/>
    </linearGradient>
    <linearGradient gradientTransform="matrix(-0.0213, -0.0482, 0.0285, -0.0126, 277.1, 95.35)" gradientUnits="userSpaceOnUse" id="gradient16" spreadMethod="pad" x1="-819.2" x2="819.2">
      <stop offset="0.00784313725490196" stop-color="#c6c7c9"/>
      <stop offset="0.9450980392156862" stop-color="#858a8e" stop-opacity="0.95686275"/>
    </linearGradient>
    <linearGradient gradientTransform="matrix(0.014, -0.0317, -0.0188, -0.0083, 155.5, 104.55)" gradientUnits="userSpaceOnUse" id="gradient17" spreadMethod="pad" x1="-819.2" x2="819.2">
      <stop offset="0.00784313725490196" stop-color="#c6c7c9"/>
      <stop offset="0.9450980392156862" stop-color="#858a8e" stop-opacity="0.95686275"/>
    </linearGradient>
    <linearGradient gradientTransform="matrix(-0.0144, 0.033, 0.0251, 0.011, 161.0, 94.75)" gradientUnits="userSpaceOnUse" id="gradient18" spreadMethod="pad" x1="-819.2" x2="819.2">
      <stop offset="0.00784313725490196" stop-color="#c6c7c9"/>
      <stop offset="1.0" stop-color="#a5a9ac" stop-opacity="0.9607843"/>
    </linearGradient>
    <linearGradient gradientTransform="matrix(-0.0316, 0.0452, -0.0307, -0.0215, 116.85, 31.55)" gradientUnits="userSpaceOnUse" id="gradient19" spreadMethod="pad" x1="-819.2" x2="819.2">
      <stop offset="0.00784313725490196" stop-color="#c6c7c9"/>
      <stop offset="1.0" stop-color="#a5a9ac" stop-opacity="0.9607843"/>
    </linearGradient>
    <linearGradient gradientTransform="matrix(0.0382, -0.0502, 0.0223, 0.017, 127.45, 3.65)" gradientUnits="userSpaceOnUse" id="gradient20" spreadMethod="pad" x1="-819.2" x2="819.2">
      <stop offset="0.00784313725490196" stop-color="#c6c7c9"/>
      <stop offset="0.9450980392156862" stop-color="#858a8e" stop-opacity="0.95686275"/>
    </linearGradient>
    <linearGradient gradientTransform="matrix(-0.0179, 0.0103, 0.0079, 0.0135, 131.4, 58.05)" gradientUnits="userSpaceOnUse" id="gradient21" spreadMethod="pad" x1="-819.2" x2="819.2">
      <stop offset="0.00784313725490196" stop-color="#c6c7c9"/>
      <stop offset="1.0" stop-color="#a5a9ac" stop-opacity="0.9607843"/>
    </linearGradient>
    <linearGradient gradientTransform="matrix(0.0172, -0.0099, -0.0059, -0.0101, 125.5, 60.7)" gradientUnits="userSpaceOnUse" id="gradient22" spreadMethod="pad" x1="-819.2" x2="819.2">
      <stop offset="0.00784313725490196" stop-color="#c6c7c9"/>
      <stop offset="0.9450980392156862" stop-color="#858a8e" stop-opacity="0.95686275"/>
    </linearGradient>
    <g id="sprite1" transform="matrix(1.0, 0.0, 0.0, 1.0, 0.0, 0.0)">
      <use height="89.6" transform="matrix(1.0, 0.0, 0.0, 1.0, 0.0, 0.0)" width="56.75" xlink:href="#shape3"/>
    </g>
    <g id="shape3" transform="matrix(1.0, 0.0, 0.0, 1.0, 0.0, 0.0)">
      <path d="M0.0 49.9 Q26.3 47.75 28.4 0.0 29.35 52.25 56.75 48.65 29.65 55.7 29.0 89.6 28.6 57.75 0.0 49.9" fill="#c9c9c9" fill-opacity="0.5882353" fill-rule="evenodd" stroke="none"/>
      <path d="M27.45 15.45 Q36.4 15.45 44.2 22.05 55.25 31.35 54.9 49.65 54.55 68.0 43.8 77.25 36.15 83.85 27.45 83.85 24.45 83.85 20.05 81.4 15.35 78.8 11.15 74.5 0.45 63.55 0.0 49.65 -0.45 35.85 10.65 24.8 14.95 20.55 19.9 17.9 24.45 15.45 27.45 15.45" fill="url(#gradient23)" fill-rule="evenodd" stroke="none"/>
    </g>
    <radialGradient cx="0" cy="0" gradientTransform="matrix(0.0276, 0.0, 0.0, 0.036, 27.45, 49.65)" gradientUnits="userSpaceOnUse" id="gradient23" r="819.2" spreadMethod="pad">
      <stop offset="0.3607843137254902" stop-color="#d7d7d7" stop-opacity="0.28627452"/>
      <stop offset="0.9254901960784314" stop-color="#ffffff" stop-opacity="0.0"/>
    </radialGradient>
    <g id="shape4" transform="matrix(1.0, 0.0, 0.0, 1.0, -304.65, -13.8)">
      <path d="M1551.1 73.45 L1530.85 75.1 1515.9 76.6 1253.55 76.6 1253.3 76.4 1208.3 76.4 Q1256.75 69.3 1264.8 68.95 1281.2 68.1 1284.8 65.45 1286.15 64.35 1292.85 62.2 L1295.9 61.2 Q1304.85 58.25 1305.95 58.25 1307.85 58.25 1313.7 60.75 1319.5 63.2 1322.0 63.2 1349.25 63.2 1364.65 57.6 L1381.4 51.0 1383.65 50.15 Q1395.25 45.85 1408.7 42.2 1421.4 38.75 1425.95 42.75 L1429.4 46.85 Q1431.0 48.8 1432.9 50.0 L1433.2 50.15 1434.3 50.7 Q1436.6 52.7 1458.2 56.75 L1490.9 63.0 1491.9 63.2 1530.25 63.6 1541.5 64.95 1589.4 65.0 Q1573.15 65.45 1587.25 69.25 1578.45 70.95 1571.1 73.0 L1551.1 73.45" fill="url(#gradient24)" fill-rule="evenodd" stroke="none"/>
      <path d="M1167.3 103.55 Q1173.0 101.0 1177.05 101.0 1183.4 100.9 1189.35 106.55 L1217.8 107.15 1220.4 107.9 1256.4 108.3 Q1265.45 112.05 1272.6 113.65 1274.3 114.0 1274.6 114.4 L1296.1 119.75 Q1317.35 124.75 1298.1 123.0 L1267.6 122.05 Q1256.3 123.0 1239.25 126.0 L1152.15 126.55 1147.45 127.5 1142.7 128.3 1098.6 128.3 1061.95 130.4 Q1043.15 132.15 1069.6 127.25 1096.0 122.3 1096.4 121.55 1096.9 120.75 1098.65 120.3 L1114.45 117.0 Q1117.15 116.3 1119.35 112.75 1121.4 109.4 1122.7 109.4 1124.25 109.4 1137.4 114.9 1144.45 114.9 1152.4 111.3 1155.65 109.85 1160.7 107.05 L1165.15 104.55 1167.3 103.55" fill="url(#gradient25)" fill-rule="evenodd" stroke="none"/>
      <path d="M1160.7 107.05 L1139.3 107.8 Q1116.05 108.45 1097.3 110.7 L1056.05 110.3 1027.2 111.65 1008.3 113.05 982.3 112.9 973.3 113.2 Q973.1 113.3 973.35 113.45 973.6 113.65 973.2 113.7 970.3 114.45 920.3 114.8 L875.55 114.45 866.3 114.7 847.65 113.65 828.8 114.4 821.5 113.65 Q811.2 115.4 800.3 115.2 L796.25 114.8 783.3 116.15 758.3 115.7 755.5 114.45 750.9 113.65 740.45 112.7 690.3 109.8 783.55 111.2 796.3 110.55 797.45 110.7 801.45 109.8 Q810.5 107.7 819.3 106.55 835.45 104.2 841.55 106.2 842.85 105.2 844.35 104.3 850.65 100.8 857.5 101.05 L858.05 100.45 859.9 100.2 Q863.95 99.3 865.55 97.7 867.45 95.55 868.8 94.95 872.15 93.7 881.3 93.3 885.5 89.1 893.6 84.55 907.15 77.05 919.8 77.2 928.05 77.3 933.95 80.3 L937.75 82.3 Q939.7 83.2 941.3 83.3 941.85 83.3 946.2 80.55 951.7 77.6 957.8 77.8 L963.0 78.55 968.15 79.35 Q969.25 79.45 973.45 76.3 979.25 72.05 984.15 69.45 1002.9 59.55 1030.3 59.95 1042.65 60.1 1046.6 61.85 L1048.5 63.05 Q1049.25 63.55 1050.3 63.55 1051.95 63.6 1059.6 60.35 1067.95 56.85 1071.3 56.3 1086.15 53.85 1090.9 56.55 1093.3 57.95 1092.8 60.85 L1094.4 61.1 Q1095.2 61.05 1098.8 65.1 1102.35 69.1 1119.55 83.8 1136.7 98.3 1149.9 99.65 1160.3 100.65 1167.3 103.55 L1165.15 104.55 1160.7 107.05" fill="url(#gradient26)" fill-rule="evenodd" stroke="none"/>
      <path d="M896.6 49.1 Q895.35 50.05 890.5 50.6 L840.65 54.95 789.65 54.95 780.75 54.1 771.25 53.7 761.95 54.7 752.65 55.8 Q750.2 55.8 749.3 53.7 748.65 52.1 748.9 50.3 L738.3 50.55 731.15 50.7 Q726.35 50.7 725.15 48.1 L724.9 45.25 Q724.9 41.45 733.05 37.25 739.65 33.85 747.4 31.95 758.55 29.25 765.4 29.7 L768.6 29.75 Q769.8 29.6 771.15 28.35 775.2 24.7 781.15 21.45 800.4 10.95 815.0 14.85 821.25 16.5 824.85 20.7 828.4 24.75 828.4 30.25 L829.9 29.1 Q831.25 28.0 833.1 27.35 838.85 25.0 850.15 25.0 857.9 25.0 868.85 30.1 874.5 32.6 880.15 35.95 886.7 39.0 893.7 41.5 897.4 43.2 897.4 46.5 897.4 48.55 896.6 49.1" fill="url(#gradient27)" fill-rule="evenodd" stroke="none"/>
      <path d="M574.5 51.1 L579.5 52.45 Q703.95 67.85 748.75 65.8 717.55 75.45 645.05 70.1 L556.7 73.95 486.8 76.6 447.1 74.2 Q405.8 71.95 392.1 75.3 401.7 71.65 407.15 67.4 L417.25 59.0 Q431.1 48.15 444.75 50.1 445.9 49.1 448.55 45.35 451.2 41.7 453.75 39.6 462.2 32.6 480.75 31.95 492.45 31.6 498.05 41.95 500.8 47.1 501.25 52.45 L504.0 51.05 Q507.5 49.35 511.45 47.95 524.05 43.5 536.25 43.5 550.85 43.5 559.85 46.95 L565.35 49.3 Q568.0 50.3 570.25 50.3 L574.5 51.1" fill="url(#gradient28)" fill-rule="evenodd" stroke="none"/>
      <path d="M398.1 108.4 L400.9 114.55 411.6 113.95 Q413.85 113.8 434.85 121.25 445.35 124.75 502.4 129.85 459.5 135.05 453.4 134.55 L443.0 133.0 Q438.7 131.85 388.75 137.9 338.45 144.05 322.8 141.45 307.1 138.75 305.2 136.0 303.3 133.15 308.1 133.05 312.9 133.0 315.9 127.9 320.35 120.1 329.65 120.1 335.05 120.1 336.4 122.4 L337.15 123.95 Q337.65 124.55 338.75 124.55 341.75 124.55 346.35 120.15 L355.95 111.3 Q371.15 99.0 392.65 103.25 396.1 104.3 398.1 108.4" fill="url(#gradient29)" fill-rule="evenodd" stroke="none"/>
    </g>
    <linearGradient gradientTransform="matrix(0.0338, 0.0863, -0.0184, 0.0068, 1357.5, 58.25)" gradientUnits="userSpaceOnUse" id="gradient24" spreadMethod="pad" x1="-819.2" x2="819.2">
      <stop offset="0.0" stop-color="#f5fdff" stop-opacity="0.6509804"/>
      <stop offset="0.9921568627450981" stop-color="#eefbff" stop-opacity="0.0"/>
    </linearGradient>
    <linearGradient gradientTransform="matrix(0.0143, 0.0534, -0.0096, 0.0026, 1167.3, 111.45)" gradientUnits="userSpaceOnUse" id="gradient25" spreadMethod="pad" x1="-819.2" x2="819.2">
      <stop offset="0.0" stop-color="#f5fdff" stop-opacity="0.6509804"/>
      <stop offset="0.9921568627450981" stop-color="#eefbff" stop-opacity="0.0"/>
    </linearGradient>
    <linearGradient gradientTransform="matrix(0.2338, -0.1349, 0.0148, 0.0265, 822.3, 313.0)" gradientUnits="userSpaceOnUse" id="gradient26" spreadMethod="pad" x1="-819.2" x2="819.2">
      <stop offset="0.09019607843137255" stop-color="#f5fdff" stop-opacity="0.6509804"/>
      <stop offset="0.9921568627450981" stop-color="#eefbff" stop-opacity="0.0"/>
    </linearGradient>
    <linearGradient gradientTransform="matrix(0.0833, -0.0833, 0.0215, 0.0215, 777.85, 64.9)" gradientUnits="userSpaceOnUse" id="gradient27" spreadMethod="pad" x1="-819.2" x2="819.2">
      <stop offset="0.043137254901960784" stop-color="#f5fdff" stop-opacity="0.6509804"/>
      <stop offset="0.9921568627450981" stop-color="#eefbff" stop-opacity="0.0"/>
    </linearGradient>
    <linearGradient gradientTransform="matrix(-0.009, -0.0334, 0.0313, -0.0084, 622.85, 80.75)" gradientUnits="userSpaceOnUse" id="gradient28" spreadMethod="pad" x1="-819.2" x2="819.2">
      <stop offset="0.043137254901960784" stop-color="#f5fdff" stop-opacity="0.6509804"/>
      <stop offset="0.9921568627450981" stop-color="#eefbff" stop-opacity="0.0"/>
    </linearGradient>
    <linearGradient gradientTransform="matrix(-0.0607, 0.1619, -0.0146, -0.0201, 414.3, 129.7)" gradientUnits="userSpaceOnUse" id="gradient29" spreadMethod="pad" x1="-819.2" x2="819.2">
      <stop offset="0.043137254901960784" stop-color="#f5fdff" stop-opacity="0.6509804"/>
      <stop offset="0.9921568627450981" stop-color="#eefbff" stop-opacity="0.0"/>
    </linearGradient>
  </defs>
</svg>
