<?xml version="1.0" encoding="UTF-8" standalone="no"?>
<svg xmlns:xlink="http://www.w3.org/1999/xlink" height="401.1px" width="800.15px" xmlns="http://www.w3.org/2000/svg">
  <g transform="matrix(1.0, 0.0, 0.0, 1.0, 0.0, 0.0)">
    <use height="401.1" transform="matrix(1.0, 0.0, 0.0, 1.0, 0.0, 0.0)" width="800.15" xlink:href="#shape0"/>
  </g>
  <defs>
    <g id="shape0" transform="matrix(1.0, 0.0, 0.0, 1.0, 0.0, 0.0)">
      <path d="M797.3 400.0 L0.0 400.0 0.0 0.0 797.3 0.0 797.3 400.0" fill="url(#gradient0)" fill-rule="evenodd" stroke="none"/>
      <path d="M769.3 86.6 Q782.4 87.85 790.15 92.15 788.55 93.25 785.25 93.65 L758.75 94.75 Q735.55 95.4 716.9 97.65 L675.75 97.25 647.0 98.6 628.2 100.0 602.25 99.85 593.3 100.15 Q593.1 100.25 593.35 100.4 593.6 100.6 593.2 100.65 590.3 101.4 540.5 101.75 L495.9 101.4 486.65 101.65 468.05 100.6 449.3 101.35 442.0 100.6 Q431.75 102.35 420.9 102.15 L416.85 101.75 403.95 103.1 379.0 102.65 376.25 101.4 Q375.3 100.9 371.65 100.6 L361.25 99.65 311.25 96.75 404.2 98.15 416.9 97.5 418.05 97.65 422.05 96.75 Q431.05 94.65 439.8 93.5 455.9 91.15 462.0 93.15 L464.8 91.25 Q471.05 87.75 477.9 88.0 L478.45 87.4 480.3 87.15 Q484.3 86.25 485.9 84.65 487.8 82.5 489.15 81.9 492.5 80.65 501.6 80.25 505.8 76.05 513.85 71.5 527.35 64.0 540.0 64.15 548.2 64.25 554.1 67.25 L557.85 69.25 Q559.8 70.15 561.4 70.25 561.95 70.25 566.3 67.5 571.75 64.55 577.85 64.75 L583.05 65.5 588.15 66.3 Q589.25 66.4 593.45 63.25 599.25 59.0 604.1 56.4 622.8 46.5 650.1 46.9 662.4 47.05 666.35 48.8 L668.25 50.0 Q669.0 50.5 670.05 50.5 671.7 50.55 679.3 47.3 687.65 43.8 690.95 43.25 705.75 40.8 710.5 43.5 712.9 44.9 712.4 47.8 L714.0 48.05 Q714.8 48.0 718.4 52.05 721.9 56.05 739.05 70.75 756.15 85.25 769.3 86.6" fill="url(#gradient1)" fill-rule="evenodd" stroke="none"/>
      <path d="M651.25 147.85 L687.15 148.25 Q696.15 152.0 703.3 153.6 705.0 153.95 705.25 154.35 L726.7 159.7 Q747.9 164.7 728.7 162.95 L698.3 162.0 Q687.05 162.95 670.05 165.95 L583.25 166.5 578.55 167.45 573.8 168.25 529.85 168.25 493.35 170.35 Q474.6 172.1 500.95 167.2 527.25 162.25 527.65 161.5 528.15 160.7 529.9 160.25 L545.65 156.95 Q548.35 156.25 550.55 152.7 552.6 149.35 553.9 149.35 555.45 149.35 568.55 154.85 575.55 154.85 583.5 151.25 588.0 149.2 596.2 144.5 603.25 140.95 608.05 140.95 614.4 140.85 620.3 146.5 L648.65 147.1 651.25 147.85" fill="url(#gradient2)" fill-rule="evenodd" stroke="none"/>
      <path d="M513.95 28.45 Q517.65 30.15 517.65 33.45 517.65 35.5 516.85 36.05 515.6 37.0 510.8 37.55 L461.1 41.9 410.25 41.9 401.4 41.05 391.95 40.65 382.65 41.65 373.4 42.75 Q370.95 42.75 370.05 40.65 369.4 39.05 369.65 37.25 L359.1 37.5 351.95 37.65 Q347.2 37.65 346.0 35.05 L345.75 32.2 Q345.75 28.4 353.85 24.2 360.45 20.8 368.15 18.9 379.25 16.2 386.1 16.65 L389.3 16.7 Q390.5 16.55 391.85 15.3 395.85 11.65 401.8 8.4 421.0 -2.1 435.55 1.8 441.75 3.45 445.35 7.65 448.9 11.7 448.9 17.2 L450.4 16.05 Q451.75 14.95 453.55 14.3 459.3 11.95 470.55 11.95 478.3 11.95 489.2 17.05 494.85 19.55 500.45 22.9 507.0 25.95 513.95 28.45" fill="url(#gradient3)" fill-rule="evenodd" stroke="none"/>
      <path d="M353.5 194.75 Q365.05 190.45 378.5 186.8 391.15 183.35 395.65 187.35 L399.1 191.45 Q400.8 193.55 402.9 194.75 L404.0 195.3 Q406.3 197.3 427.8 201.35 L461.45 207.8 499.6 208.2 510.85 209.55 558.55 209.6 Q542.35 210.05 556.45 213.85 547.65 215.55 540.35 217.6 L520.4 218.05 500.2 219.7 485.3 221.2 223.85 221.2 223.6 221.0 178.75 221.0 Q227.05 213.9 235.05 213.55 251.4 212.7 255.0 210.05 256.35 208.95 263.0 206.8 L266.05 205.8 Q274.95 202.85 276.05 202.85 277.95 202.85 283.8 205.35 289.55 207.8 292.05 207.8 319.2 207.8 334.55 202.2 L351.25 195.6 353.5 194.75" fill="url(#gradient4)" fill-rule="evenodd" stroke="none"/>
      <path d="M200.8 39.4 Q324.85 54.8 369.5 52.75 338.4 62.4 266.15 57.05 L178.1 60.9 108.45 63.55 68.85 61.15 Q27.7 58.9 14.05 62.25 23.6 58.6 29.05 54.35 L39.1 45.95 Q52.9 35.1 66.55 37.05 L70.3 32.3 Q72.95 28.65 75.5 26.55 83.9 19.55 102.4 18.9 114.05 18.55 119.65 28.9 122.4 34.05 122.85 39.4 L125.6 38.0 Q129.05 36.3 133.0 34.9 145.55 30.45 157.7 30.45 172.25 30.45 181.25 33.9 L186.7 36.25 Q189.35 37.25 191.6 37.25 193.0 37.25 195.85 38.05 L200.8 39.4" fill="url(#gradient5)" fill-rule="evenodd" stroke="none"/>
      <path d="M179.4 135.0 Q175.1 134.25 125.35 138.2 75.2 142.2 59.6 140.5 43.95 138.75 42.05 136.95 40.15 135.1 44.95 135.05 49.75 135.0 52.7 131.7 57.15 126.6 66.45 126.6 71.8 126.6 73.15 128.1 L73.9 129.1 Q74.4 129.5 75.5 129.5 78.5 129.5 83.05 126.65 L92.65 120.9 Q107.8 112.9 129.2 115.65 132.65 116.35 134.65 119.0 L137.45 123.0 148.1 122.6 Q150.35 122.5 171.25 127.35 181.75 129.65 238.6 132.95 L189.75 136.0 179.4 135.0" fill="url(#gradient6)" fill-rule="evenodd" stroke="none"/>
      <path d="M707.95 117.85 L709.4 116.95 Q713.4 114.95 714.65 114.9 716.0 114.85 716.55 114.35 717.25 113.85 717.85 112.45 L718.6 110.55 722.85 101.75 Q726.45 96.8 728.45 95.2 731.45 92.9 736.2 92.8 737.75 92.75 739.7 93.9 L737.1 100.0 Q735.65 103.1 735.65 105.1 735.65 107.5 736.95 108.75 738.25 109.95 738.25 113.05 738.25 114.65 735.4 119.15 732.6 123.7 732.6 128.45 732.6 134.4 734.8 141.05 735.5 143.35 738.75 149.8 741.75 155.7 743.85 159.25 745.95 162.8 745.95 163.85 745.95 164.6 745.6 164.85 745.1 165.25 743.6 165.3 L735.5 162.7 Q727.6 160.1 726.25 160.1 722.9 160.2 720.4 167.15 718.9 171.35 718.25 175.9 L714.85 175.05 Q711.95 174.25 708.9 174.4 L702.35 174.25 695.9 173.55 693.2 173.65 Q693.2 175.85 696.55 178.8 699.9 181.8 699.9 183.1 L699.6 184.55 698.65 187.7 Q698.05 189.75 702.4 197.05 705.25 201.75 710.85 207.95 705.75 209.6 701.45 206.35 L688.6 206.1 Q691.4 208.85 693.1 213.95 695.05 219.8 695.55 220.55 L700.05 225.1 Q704.15 229.1 706.9 233.55 L708.6 232.8 Q710.0 232.05 710.2 232.05 711.95 232.0 713.6 234.0 714.9 235.55 714.9 236.1 L707.45 257.8 Q707.4 258.0 707.25 257.7 L707.1 257.1 Q705.2 252.6 704.05 247.45 L703.6 245.35 Q702.5 240.0 697.4 235.6 695.5 233.95 687.4 228.7 681.1 224.65 678.7 221.25 675.3 216.35 676.55 209.85 L666.85 210.05 665.55 211.1 651.85 199.25 Q652.1 200.15 650.85 202.55 649.5 205.2 649.5 206.6 649.5 207.05 653.1 211.05 657.45 216.0 660.25 222.35 661.4 225.05 665.15 227.0 667.9 228.4 667.9 233.5 667.9 234.75 664.7 245.05 661.5 255.3 661.5 256.05 661.5 257.3 663.85 259.65 L668.9 264.55 Q669.75 265.45 671.4 268.3 L672.9 270.5 639.25 271.35 Q633.35 262.85 631.8 259.45 630.15 255.75 627.25 253.8 625.15 252.45 620.9 251.4 619.85 251.1 618.25 249.1 616.45 246.75 616.45 244.65 617.8 240.1 617.8 239.05 617.8 236.3 617.15 232.35 L616.45 228.55 Q615.85 228.55 614.2 229.45 L612.55 230.35 607.35 225.25 Q601.65 219.8 598.85 218.15 L594.55 226.9 582.2 218.15 Q582.05 218.15 574.85 222.15 569.85 242.35 568.95 242.4 567.5 242.4 564.8 240.8 562.05 239.2 561.1 239.2 560.15 239.2 559.05 242.1 L557.45 245.8 Q556.8 246.7 554.25 246.8 552.0 246.9 551.85 248.0 551.55 250.05 551.7 256.7 550.9 262.3 545.25 262.45 541.4 262.55 539.85 259.95 538.3 257.35 536.45 257.4 533.4 257.45 530.05 259.9 526.45 262.55 525.45 266.3 524.45 270.0 520.9 271.85 517.8 273.4 516.4 274.4 L490.1 275.05 Q495.8 270.75 501.05 265.0 L510.4 254.45 514.85 248.8 Q517.95 245.0 520.1 244.2 523.5 242.9 525.8 239.8 L529.05 234.6 Q530.1 233.05 532.35 228.2 534.65 223.7 537.05 221.85 538.65 220.7 543.7 220.55 L550.45 219.9 Q554.5 218.15 556.0 216.8 557.45 215.5 559.75 211.7 562.8 206.6 564.5 205.1 567.0 202.8 571.1 202.75 572.1 202.7 574.1 203.65 576.15 204.65 576.95 204.65 580.45 204.6 580.9 200.45 581.5 195.4 583.45 194.1 584.15 193.7 589.45 189.5 594.7 185.5 595.75 185.05 L595.85 185.05 Q597.15 187.55 598.2 190.9 599.5 194.95 599.5 197.25 L598.7 199.35 594.9 207.1 Q595.9 209.8 600.15 213.9 L611.4 222.55 Q620.5 229.5 620.35 231.15 619.9 235.05 624.1 241.4 628.25 247.7 636.75 243.45 L632.3 234.05 Q632.15 233.65 632.15 231.95 L632.5 229.85 632.85 227.65 630.15 220.6 631.5 220.55 Q630.3 220.2 629.95 218.2 L629.85 215.35 Q629.85 213.45 631.35 210.25 632.85 207.2 632.85 205.2 632.85 204.45 630.65 200.25 L630.55 200.05 Q630.55 199.4 632.35 197.4 634.15 195.3 634.15 192.5 634.15 186.35 631.75 181.9 630.05 178.65 627.9 177.5 L630.0 170.95 Q630.95 168.05 631.15 165.35 636.95 156.85 640.15 156.1 L641.95 157.95 Q644.9 160.75 644.9 164.3 644.9 165.95 644.4 167.7 643.85 169.4 645.4 172.75 646.85 176.05 652.8 182.55 L660.6 191.2 667.9 198.2 Q673.45 203.3 674.9 204.0 L677.45 197.35 Q678.2 195.5 678.2 191.55 678.2 189.1 676.5 185.7 674.45 181.25 673.95 179.3 673.55 177.85 673.55 174.7 L673.25 168.5 Q672.7 162.9 667.65 153.15 L667.75 153.0 Q671.75 148.1 675.35 148.0 676.3 148.0 680.05 148.95 L682.65 149.55 680.55 149.25 680.2 149.25 Q682.05 149.7 689.75 157.25 L691.25 158.7 Q699.95 167.25 702.25 167.2 704.45 167.15 705.55 164.05 706.55 161.35 706.55 157.2 706.55 155.95 704.95 155.35 703.25 154.75 703.25 153.6 L707.95 117.85" fill="#889986" fill-rule="evenodd" stroke="none"/>
      <path d="M749.5 102.85 L754.7 106.25 Q760.6 109.7 764.1 110.35 782.8 114.0 793.9 97.75 796.2 94.3 797.3 90.0 L797.3 118.6 Q787.0 126.2 794.15 137.2 L794.95 138.4 785.2 142.9 785.35 164.75 Q785.3 178.4 783.9 181.95 783.65 182.6 782.75 182.9 773.35 180.95 767.55 172.9 L764.3 175.45 Q766.5 183.4 761.65 188.7 760.75 189.6 748.0 184.65 L752.75 197.7 756.35 194.85 766.1 209.3 768.9 197.7 778.45 250.15 790.4 267.55 738.4 268.85 736.8 263.4 Q735.1 257.9 734.6 257.95 733.7 257.95 729.5 260.35 L725.55 262.6 Q725.55 262.15 729.4 254.05 730.05 252.65 734.4 245.95 L739.5 238.25 739.55 237.25 728.5 200.25 708.4 184.9 740.5 201.75 740.7 194.2 741.0 179.7 754.45 169.7 758.7 148.05 Q760.6 145.0 760.45 138.15 L759.9 131.9 749.5 102.85 M797.3 192.25 L797.3 225.75 794.55 220.75 Q790.0 212.3 785.8 211.35 L785.65 211.25 Q787.15 192.4 786.65 191.55 786.5 191.4 786.3 187.6 L789.05 187.55 Q791.45 188.8 797.3 192.25 M651.2 159.5 Q652.8 158.6 656.7 158.15 L660.95 158.3 Q661.6 159.15 662.8 159.7 L664.05 158.1 666.85 154.35 667.1 157.55 667.2 164.6 667.2 170.4 Q667.3 173.3 666.3 175.0 665.2 176.7 665.2 177.35 665.2 177.9 666.6 179.6 668.05 181.4 668.2 182.5 L668.7 187.45 668.9 191.55 Q666.5 192.0 665.25 190.35 664.6 189.45 663.5 186.3 661.3 180.05 656.2 180.05 657.55 176.7 657.55 174.6 L652.7 168.0 647.85 161.7 Q647.85 161.35 649.55 160.45 650.35 159.9 651.2 159.5 M756.85 207.9 L756.25 207.75 Q754.35 219.6 763.5 229.3 764.4 230.25 764.5 229.6 766.4 218.25 756.85 207.9 M742.2 213.3 L742.25 212.7 738.5 208.65 740.0 234.75 Q740.4 233.4 741.3 232.7 L741.4 231.3 741.85 222.2 Q741.85 218.4 742.2 213.3 M750.55 233.2 Q750.1 232.15 749.5 232.7 740.5 239.75 738.45 252.45 738.25 253.8 739.2 254.3 745.05 256.5 744.1 247.55 744.9 248.35 746.05 248.2 749.35 247.15 752.0 244.65 757.45 239.6 753.25 235.9 L751.75 236.5 750.55 233.2 M616.65 189.55 L617.35 190.1 Q617.75 190.35 620.6 194.15 L624.15 199.15 625.15 200.65 Q625.95 201.95 625.85 202.95 625.3 208.6 629.05 217.9 L630.15 220.6 626.85 220.65 Q624.1 220.7 622.7 218.0 L621.5 214.15 Q621.15 213.0 619.5 211.6 L607.45 200.55 Q606.45 198.35 607.5 190.3 L614.5 190.65 Q615.1 191.2 616.65 189.55" fill="#607a80" fill-rule="evenodd" stroke="none"/>
      <path d="M707.95 117.85 L703.25 153.6 Q703.25 154.75 704.95 155.35 706.55 155.95 706.55 157.2 706.55 161.35 705.55 164.05 704.45 167.15 702.25 167.2 699.95 167.25 691.25 158.7 L689.75 157.25 Q682.05 149.7 680.2 149.25 L680.55 149.25 682.65 149.55 683.2 149.7 684.05 149.85 Q686.45 149.8 689.05 147.5 690.9 145.8 691.5 144.45 L702.8 124.25 Q704.95 119.9 707.95 117.85 M631.15 165.35 Q630.95 168.05 630.0 170.95 L627.9 177.5 Q630.05 178.65 631.75 181.9 634.15 186.35 634.15 192.5 634.15 195.3 632.35 197.4 630.55 199.4 630.55 200.05 L630.65 200.25 Q632.85 204.45 632.85 205.2 632.85 207.2 631.35 210.25 629.85 213.45 629.85 215.35 L629.95 218.2 Q630.3 220.2 631.5 220.55 L630.15 220.6 629.05 217.9 Q625.3 208.6 625.85 202.95 625.95 201.95 625.15 200.65 L624.15 199.15 620.6 194.15 Q617.75 190.35 617.35 190.1 L616.65 189.55 Q619.75 186.1 626.65 173.75 L631.15 165.35 M516.4 274.4 Q517.8 273.4 520.9 271.85 524.45 270.0 525.45 266.3 526.45 262.55 530.05 259.9 533.4 257.45 536.45 257.4 538.3 257.35 539.85 259.95 541.4 262.55 545.25 262.45 550.9 262.3 551.7 256.7 551.55 250.05 551.85 248.0 552.0 246.9 554.25 246.8 556.8 246.7 557.45 245.8 L559.05 242.1 Q560.15 239.2 561.1 239.2 562.05 239.2 564.8 240.8 567.5 242.4 568.95 242.4 569.85 242.35 574.85 222.15 582.05 218.15 582.2 218.15 L594.55 226.9 598.85 218.15 Q601.65 219.8 607.35 225.25 L612.55 230.35 614.2 229.45 Q615.85 228.55 616.45 228.55 L617.15 232.35 Q617.8 236.3 617.8 239.05 617.8 240.1 616.45 244.65 616.45 246.75 618.25 249.1 619.85 251.1 620.9 251.4 625.15 252.45 627.25 253.8 630.15 255.75 631.8 259.45 633.35 262.85 639.25 271.35 L516.4 274.4 M672.9 270.5 L671.4 268.3 Q669.75 265.45 668.9 264.55 L663.85 259.65 Q661.5 257.3 661.5 256.05 661.5 255.3 664.7 245.05 667.9 234.75 667.9 233.5 667.9 228.4 665.15 227.0 661.4 225.05 660.25 222.35 657.45 216.0 653.1 211.05 649.5 207.05 649.5 206.6 649.5 205.2 650.85 202.55 652.1 200.15 651.85 199.25 L665.55 211.1 666.85 210.05 676.55 209.85 Q675.3 216.35 678.7 221.25 681.1 224.65 687.4 228.7 695.5 233.95 697.4 235.6 702.5 240.0 703.6 245.35 L704.05 247.45 Q705.2 252.6 707.1 257.1 L707.25 257.7 Q707.4 258.0 707.45 257.8 709.7 263.35 710.35 266.1 710.9 268.3 711.4 269.55 L672.9 270.5" fill="#778a75" fill-rule="evenodd" stroke="none"/>
      <path d="M667.65 153.15 Q672.7 162.9 673.25 168.5 L673.55 174.7 Q673.55 177.85 673.95 179.3 674.45 181.25 676.5 185.7 678.2 189.1 678.2 191.55 678.2 195.5 677.45 197.35 L674.9 204.0 Q673.45 203.3 667.9 198.2 L660.6 191.2 652.8 182.55 Q646.85 176.05 645.4 172.75 643.85 169.4 644.4 167.7 644.9 165.95 644.9 164.3 644.9 160.75 641.95 157.95 L640.15 156.1 640.65 156.0 Q642.5 156.0 645.8 157.85 L650.05 159.6 650.8 159.65 651.1 159.5 651.2 159.5 Q650.35 159.9 649.55 160.45 647.85 161.35 647.85 161.7 L652.7 168.0 657.55 174.6 Q657.55 176.7 656.2 180.05 661.3 180.05 663.5 186.3 664.6 189.45 665.25 190.35 666.5 192.0 668.9 191.55 L668.7 187.45 668.2 182.5 Q668.05 181.4 666.6 179.6 665.2 177.9 665.2 177.35 665.2 176.7 666.3 175.0 667.3 173.3 667.2 170.4 L667.2 164.6 667.1 157.55 666.85 154.35 667.65 153.15 M630.15 220.6 L632.85 227.65 632.5 229.85 632.15 231.95 Q632.15 233.65 632.3 234.05 L636.75 243.45 Q628.25 247.7 624.1 241.4 619.9 235.05 620.35 231.15 620.5 229.5 611.4 222.55 L600.15 213.9 Q595.9 209.8 594.9 207.1 L598.7 199.35 599.5 197.25 Q599.5 194.95 598.2 190.9 597.15 187.55 595.85 185.05 597.05 184.75 603.2 188.4 605.4 189.7 607.5 190.3 606.45 198.35 607.45 200.55 L619.5 211.6 Q621.15 213.0 621.5 214.15 L622.7 218.0 Q624.1 220.7 626.85 220.65 L630.15 220.6 M707.45 257.8 L714.9 236.1 Q714.9 235.55 713.6 234.0 711.95 232.0 710.2 232.05 710.0 232.05 708.6 232.8 L706.9 233.55 Q704.15 229.1 700.05 225.1 L695.55 220.55 Q695.05 219.8 693.1 213.95 691.4 208.85 688.6 206.1 L701.45 206.35 Q705.75 209.6 710.85 207.95 705.25 201.75 702.4 197.05 698.05 189.75 698.65 187.7 L699.6 184.55 699.9 183.1 Q699.9 181.8 696.55 178.8 693.2 175.85 693.2 173.65 L695.9 173.55 702.35 174.25 708.9 174.4 Q711.95 174.25 714.85 175.05 L718.25 175.9 Q718.9 171.35 720.4 167.15 722.9 160.2 726.25 160.1 727.6 160.1 735.5 162.7 L743.6 165.3 Q745.1 165.25 745.6 164.85 745.95 164.6 745.95 163.85 745.95 162.8 743.85 159.25 741.75 155.7 738.75 149.8 735.5 143.35 734.8 141.05 732.6 134.4 732.6 128.45 732.6 123.7 735.4 119.15 738.25 114.65 738.25 113.05 738.25 109.95 736.95 108.75 735.65 107.5 735.65 105.1 735.65 103.1 737.1 100.0 L739.7 93.9 Q741.85 95.1 747.2 100.6 L749.5 102.85 759.9 131.9 760.45 138.15 Q760.6 145.0 758.7 148.05 L754.45 169.7 741.0 179.7 740.7 194.2 740.5 201.75 708.4 184.9 728.5 200.25 739.55 237.25 739.5 238.25 734.4 245.95 Q730.05 252.65 729.4 254.05 725.55 262.15 725.55 262.6 L729.5 260.35 Q733.7 257.95 734.6 257.95 735.1 257.9 736.8 263.4 L738.4 268.85 711.4 269.55 Q710.9 268.3 710.35 266.1 709.7 263.35 707.45 257.8 M797.3 118.6 L797.3 192.25 Q791.45 188.8 789.05 187.55 L786.3 187.6 Q786.5 191.4 786.65 191.55 787.15 192.4 785.65 211.25 L785.8 211.35 Q790.0 212.3 794.55 220.75 L797.3 225.75 797.3 267.35 790.4 267.55 778.45 250.15 768.9 197.7 766.1 209.3 756.35 194.85 752.75 197.7 748.0 184.65 Q760.75 189.6 761.65 188.7 766.5 183.4 764.3 175.45 L767.55 172.9 Q773.35 180.95 782.75 182.9 783.65 182.6 783.9 181.95 785.3 178.4 785.35 164.75 L785.2 142.9 794.95 138.4 794.15 137.2 Q787.0 126.2 797.3 118.6 M756.85 207.9 Q766.4 218.25 764.5 229.6 764.4 230.25 763.5 229.3 754.35 219.6 756.25 207.75 L756.85 207.9 M742.2 213.3 Q741.85 218.4 741.85 222.2 L741.4 231.3 741.3 232.7 Q740.4 233.4 740.0 234.75 L738.5 208.65 742.25 212.7 742.2 213.3 M750.55 233.2 L751.75 236.5 753.25 235.9 Q757.45 239.6 752.0 244.65 749.35 247.15 746.05 248.2 744.9 248.35 744.1 247.55 745.05 256.5 739.2 254.3 738.25 253.8 738.45 252.45 740.5 239.75 749.5 232.7 750.1 232.15 750.55 233.2" fill="#778f95" fill-rule="evenodd" stroke="none"/>
      <path d="M739.7 93.9 Q737.75 92.75 736.2 92.8 731.45 92.9 728.45 95.2 726.45 96.8 722.85 101.75 L718.6 110.55 717.85 112.45 Q717.25 113.85 716.55 114.35 716.0 114.85 714.65 114.9 713.4 114.95 709.4 116.95 L707.95 117.85 Q704.95 119.9 702.8 124.25 L691.5 144.45 Q690.9 145.8 689.05 147.5 686.45 149.8 684.05 149.85 L683.2 149.7 M682.65 149.55 L680.05 148.95 Q676.3 148.0 675.35 148.0 671.75 148.1 667.75 153.0 L667.65 153.15 M640.15 156.1 Q636.95 156.85 631.15 165.35 L626.65 173.75 Q619.75 186.1 616.65 189.55 M595.85 185.05 L595.75 185.05 Q594.7 185.5 589.45 189.5 584.15 193.7 583.45 194.1 581.5 195.4 580.9 200.45 580.45 204.6 576.95 204.65 576.15 204.65 574.1 203.65 572.1 202.7 571.1 202.75 567.0 202.8 564.5 205.1 562.8 206.6 559.75 211.7 557.45 215.5 556.0 216.8 554.5 218.15 550.45 219.9 L543.7 220.55 Q538.65 220.7 537.05 221.85 534.65 223.7 532.35 228.2 530.1 233.05 529.05 234.6 L525.8 239.8 Q523.5 242.9 520.1 244.2 517.95 245.0 514.85 248.8 L510.4 254.45 501.05 265.0 Q495.8 270.75 490.1 275.05 L516.4 274.4 639.25 271.35 672.9 270.5 M739.7 93.9 Q741.85 95.1 747.2 100.6 L749.5 102.85 754.7 106.25 Q760.6 109.7 764.1 110.35 782.8 114.0 793.9 97.75 796.2 94.3 797.3 90.0 L797.3 118.6 797.3 192.25 797.3 225.75 797.3 267.35 790.4 267.55 738.4 268.85 711.4 269.55 672.9 270.5 M666.85 154.35 L664.05 158.1 662.8 159.7 Q661.6 159.15 660.95 158.3 L656.7 158.15 Q652.8 158.6 651.2 159.5 L651.1 159.5 650.8 159.65 650.05 159.6 645.8 157.85 Q642.5 156.0 640.65 156.0 L640.15 156.1 M666.85 154.35 L667.65 153.15 M607.5 190.3 Q605.4 189.7 603.2 188.4 597.05 184.75 595.85 185.05 M607.5 190.3 L614.5 190.65 Q615.1 191.2 616.65 189.55 M490.1 275.05 L489.05 275.8 489.05 275.05 490.1 275.05" fill="none" stroke="#000000" stroke-linecap="round" stroke-linejoin="round" stroke-opacity="0.3019608" stroke-width="0.30000000000000004"/>
      <path d="M733.5 90.4 L734.65 89.7 Q734.9 89.65 744.1 94.2 753.8 99.0 755.95 99.7 L764.95 103.6 Q769.45 105.6 773.45 105.55 L778.85 101.95 784.65 97.65 Q787.2 95.95 790.5 92.15 793.6 88.65 797.05 96.35 795.95 97.75 795.65 99.85 794.5 107.45 792.65 112.4 790.85 117.5 787.25 123.4 781.55 132.8 776.85 132.9 775.1 132.95 771.95 131.15 768.15 129.05 766.6 128.65 764.75 128.1 760.25 124.7 756.1 121.55 754.9 121.6 752.1 121.65 751.25 129.3 750.8 133.55 750.65 141.5 L750.3 141.5 Q749.9 141.15 748.85 140.7 747.7 140.15 747.3 140.15 L747.3 142.6 Q747.65 148.85 746.95 150.9 746.3 152.7 744.25 152.7 740.2 152.8 734.2 141.35 L729.8 133.45 Q727.45 129.85 725.55 129.9 719.55 130.0 713.05 138.4 L706.9 147.7 706.9 144.9 706.2 144.9 696.65 154.8 690.25 161.6 689.15 160.95 Q688.1 160.25 687.4 160.25 L683.05 161.4 Q679.25 161.5 675.0 167.0 670.75 172.45 668.35 172.5 665.65 172.6 665.1 171.75 664.8 171.35 665.0 169.7 665.4 165.95 659.9 163.95 L659.9 161.2 662.55 156.1 664.6 152.9 Q665.95 151.0 667.0 150.35 L667.35 149.95 665.55 155.55 665.55 159.35 666.45 159.0 Q667.05 158.6 667.5 158.6 668.2 158.55 669.6 160.5 L671.05 162.3 Q674.6 162.25 675.95 159.85 677.35 157.45 680.2 157.35 683.25 157.25 684.2 154.45 685.05 151.65 686.05 151.65 L686.1 151.65 Q687.0 151.65 688.3 152.45 L689.75 153.25 Q691.55 153.2 696.25 144.4 700.9 135.6 702.9 135.55 704.2 135.55 705.1 136.0 706.05 136.55 706.5 136.55 708.7 136.5 710.35 132.5 L712.55 127.05 Q716.2 122.35 719.4 122.7 L721.9 122.7 Q723.45 122.3 725.25 120.5 727.35 118.4 730.65 110.45 734.3 101.65 734.3 96.85 734.3 93.05 733.5 90.4 M644.35 154.4 Q645.8 154.85 647.75 157.2 L650.9 161.4 654.45 164.95 659.2 169.2 658.95 169.2 655.45 169.35 Q653.7 169.65 653.5 171.05 656.0 172.1 658.7 177.4 L659.15 178.25 Q660.2 180.5 660.85 182.55 660.85 185.5 658.9 185.55 657.1 185.55 656.5 184.65 L655.9 182.05 Q655.6 180.35 654.75 178.95 653.2 176.4 649.85 174.6 L648.65 179.5 646.65 187.45 Q644.6 195.6 641.5 199.45 L639.4 196.55 Q638.0 194.7 637.5 191.25 L637.35 187.95 637.3 184.35 Q637.25 179.8 636.5 176.65 635.4 177.2 632.6 182.45 630.15 187.2 626.85 187.25 625.95 187.3 625.75 185.9 L625.5 183.15 Q625.25 180.4 624.35 179.45 623.5 178.65 623.5 177.3 623.5 176.0 624.1 172.75 L624.4 171.45 Q625.9 170.65 627.35 170.6 L629.35 172.5 Q631.05 174.45 631.3 174.4 632.9 174.4 635.85 173.3 L640.85 171.3 Q641.9 170.95 642.7 169.65 643.45 168.3 644.0 166.2 644.85 162.95 644.85 159.95 644.85 156.75 644.35 154.4 M601.1 185.05 L605.8 187.5 Q614.15 192.0 614.15 193.85 614.15 195.5 612.3 195.65 610.15 195.5 609.5 195.65 609.4 195.8 609.05 198.55 608.5 201.25 607.45 201.3 606.2 201.3 604.25 199.3 602.8 197.7 601.15 197.4 L600.0 197.25 Q592.4 201.35 588.45 204.45 L586.8 204.5 Q586.45 200.7 585.65 198.55 584.85 196.4 582.45 192.75 L585.65 190.0 Q587.4 190.8 590.2 191.8 597.5 194.55 598.45 194.55 600.1 194.5 601.1 192.85 L601.45 191.9 602.1 189.2 Q602.1 186.8 601.1 185.05 M571.4 198.85 Q573.35 197.85 575.9 197.8 577.6 197.75 578.85 201.9 L580.45 207.8 580.45 212.0 Q578.4 212.3 576.75 213.3 574.25 214.75 572.5 217.8 L570.4 221.15 Q569.05 222.65 566.95 222.65 566.7 222.7 565.65 221.7 L564.45 220.65 Q558.4 220.75 552.45 227.0 547.5 233.2 546.6 233.2 L545.4 233.15 Q544.8 232.85 545.1 231.55 541.9 232.25 539.7 235.25 L535.8 241.45 Q534.05 240.15 534.1 239.05 531.0 242.1 525.4 245.0 L507.8 252.75 509.5 250.55 Q515.75 242.55 519.75 240.45 522.5 239.0 523.95 236.55 L528.45 235.65 Q530.3 235.3 532.85 232.15 535.95 228.4 536.75 227.9 540.25 225.6 545.4 221.75 547.2 220.4 553.8 217.75 559.6 215.35 563.1 211.95 L564.55 210.7 569.0 207.2 Q572.75 203.65 572.75 200.45 572.75 199.65 571.45 198.9 L571.4 198.85" fill="#c5d3f0" fill-rule="evenodd" stroke="none"/>
      <path d="M733.5 90.4 Q734.3 93.05 734.3 96.85 734.3 101.65 730.65 110.45 727.35 118.4 725.25 120.5 723.45 122.3 721.9 122.7 L719.4 122.7 Q716.2 122.35 712.55 127.05 L710.35 132.5 Q708.7 136.5 706.5 136.55 706.05 136.55 705.1 136.0 704.2 135.55 702.9 135.55 700.9 135.6 696.25 144.4 691.55 153.2 689.75 153.25 L688.3 152.45 Q687.0 151.65 686.1 151.65 L686.05 151.65 Q685.05 151.65 684.2 154.45 683.25 157.25 680.2 157.35 677.35 157.45 675.95 159.85 674.6 162.25 671.05 162.3 L669.6 160.5 Q668.2 158.55 667.5 158.6 667.05 158.6 666.45 159.0 L665.55 159.35 665.55 155.55 667.35 149.95 668.65 148.2 Q669.4 147.1 673.9 147.0 L681.9 147.5 Q683.8 147.45 688.65 142.85 693.25 138.45 694.2 136.1 L698.05 126.6 Q701.25 119.2 703.6 116.85 704.9 115.55 711.05 111.25 715.05 108.4 717.95 103.25 719.25 100.95 727.0 95.1 L733.5 90.4 M644.35 154.4 Q644.85 156.75 644.85 159.95 644.85 162.95 644.0 166.2 643.45 168.3 642.7 169.65 641.9 170.95 640.85 171.3 L635.85 173.3 Q632.9 174.4 631.3 174.4 631.05 174.45 629.35 172.5 L627.35 170.6 Q625.9 170.65 624.4 171.45 624.85 169.3 625.15 168.9 629.05 164.4 632.1 161.25 L634.65 158.8 635.45 158.15 636.9 157.3 639.4 155.8 Q642.05 154.3 643.55 154.25 L644.35 154.4 M601.1 185.05 Q602.1 186.8 602.1 189.2 L601.45 191.9 601.1 192.85 Q600.1 194.5 598.45 194.55 597.5 194.55 590.2 191.8 587.4 190.8 585.65 190.0 L585.9 189.8 586.65 189.15 588.8 187.15 591.2 185.5 Q594.85 183.2 596.15 183.2 597.25 183.15 601.1 185.05 M523.95 236.55 L524.35 235.7 527.75 228.4 Q528.95 226.55 533.65 221.3 538.6 215.7 539.4 215.65 540.15 215.65 541.4 216.15 L544.1 216.5 Q547.0 216.45 552.2 210.9 557.75 204.95 559.75 204.45 566.05 202.75 569.65 199.9 570.45 199.25 571.4 198.85 L571.45 198.9 Q572.75 199.65 572.75 200.45 572.75 203.65 569.0 207.2 L564.55 210.7 563.1 211.95 Q559.6 215.35 553.8 217.75 547.2 220.4 545.4 221.75 540.25 225.6 536.75 227.9 535.95 228.4 532.85 232.15 530.3 235.3 528.45 235.65 L523.95 236.55" fill="#f3f1e5" fill-rule="evenodd" stroke="none"/>
      <path d="M110.35 272.2 L85.4 269.35 Q88.45 269.4 95.9 263.4 L103.3 257.2 Q99.3 258.5 97.5 258.5 L92.25 258.45 Q90.85 258.25 89.45 257.15 92.2 257.5 97.55 253.55 102.6 249.85 108.0 243.85 120.85 229.6 122.75 221.95 129.75 243.2 147.5 260.35 139.45 259.9 134.05 258.1 140.5 269.25 151.25 278.6 150.75 278.2 144.3 277.0 L137.15 275.65 Q133.15 274.85 110.35 272.2" fill="#7e969a" fill-rule="evenodd" stroke="none"/>
      <path d="M58.3 219.75 Q60.8 229.1 68.5 237.7 L58.55 231.45 Q66.5 241.9 77.7 251.15 72.1 251.6 66.8 249.45 70.55 256.25 79.35 260.55 76.85 261.4 73.7 261.2 76.4 268.1 84.7 272.55 78.4 272.5 72.95 270.35 L81.2 278.35 70.6 273.5 Q32.55 275.8 3.45 269.8 11.3 262.15 16.05 252.55 10.1 257.65 4.15 258.55 10.95 250.95 16.5 238.85 L7.1 243.4 Q16.6 234.2 22.4 221.45 16.75 227.5 11.05 229.7 30.35 208.95 39.25 182.6 48.35 208.6 71.95 227.7 L58.3 219.75 M69.65 260.55 L73.7 261.2 69.65 260.55 M66.55 266.8 Q69.55 268.95 72.95 270.35 69.55 268.95 66.55 266.8" fill="#617e6c" fill-rule="evenodd" stroke="none"/>
      <path d="M110.35 272.2 Q133.15 274.85 137.15 275.65 L144.3 277.0 Q150.75 278.2 151.25 278.6 140.5 269.25 134.05 258.1 139.45 259.9 147.5 260.35 129.75 243.2 122.75 221.95 120.85 229.6 108.0 243.85 102.6 249.85 97.55 253.55 92.2 257.5 89.45 257.15 90.85 258.25 92.25 258.45 L97.5 258.5 Q99.3 258.5 103.3 257.2 L95.9 263.4 Q88.45 269.4 85.4 269.35 L110.35 272.2 M58.3 219.75 Q60.8 229.1 68.5 237.7 L58.55 231.45 Q66.5 241.9 77.7 251.15 72.1 251.6 66.8 249.45 70.55 256.25 79.35 260.55 76.85 261.4 73.7 261.2 76.4 268.1 84.7 272.55 78.4 272.5 72.95 270.35 L81.2 278.35 70.6 273.5 Q32.55 275.8 3.45 269.8 11.3 262.15 16.05 252.55 10.1 257.65 4.15 258.55 10.95 250.95 16.5 238.85 L7.1 243.4 Q16.6 234.2 22.4 221.45 16.75 227.5 11.05 229.7 30.35 208.95 39.25 182.6 48.35 208.6 71.95 227.7 L58.3 219.75 M72.95 270.35 Q69.55 268.95 66.55 266.8 M73.7 261.2 L69.65 260.55" fill="none" stroke="#000000" stroke-linecap="round" stroke-linejoin="round" stroke-opacity="0.3019608" stroke-width="0.30000000000000004"/>
      <path d="M61.4 220.0 L57.7 216.1 49.25 203.55 Q47.55 201.05 46.05 197.4 44.5 193.6 44.2 191.1 43.8 188.0 41.85 183.45 L39.25 177.9 39.4 177.55 Q43.2 181.35 50.2 195.5 53.35 201.9 63.55 218.9 L63.55 219.85 62.55 220.1 61.4 220.0 M121.25 220.6 L121.8 220.55 Q125.55 220.45 127.2 224.8 L128.7 229.3 Q129.65 232.1 130.8 233.65 L136.65 240.6 Q140.75 245.85 140.75 249.0 L140.3 251.2 Q139.85 252.95 139.85 253.95 L138.95 253.95 Q135.8 252.55 133.55 249.75 L132.6 248.65 132.6 247.4 Q132.6 244.55 129.45 240.85 126.1 236.8 125.45 232.3 124.8 227.0 123.7 224.2 122.9 222.2 121.8 221.1 L121.25 220.6 M138.65 265.25 L138.25 263.85 138.1 263.05 Q140.7 264.2 145.5 268.2 151.95 273.5 151.95 275.45 L151.95 275.7 151.5 277.0 151.5 277.05 Q150.05 274.65 147.6 272.45 141.85 268.2 138.65 265.25 M66.85 237.15 Q65.15 236.55 64.0 234.35 L62.35 230.25 Q61.8 229.1 59.35 225.95 L57.4 223.2 57.3 222.6 Q58.45 222.55 59.65 223.15 60.65 223.7 61.35 224.45 L64.6 229.75 Q66.9 233.45 66.9 236.0 L66.85 237.15 M62.4 239.15 L61.2 237.1 61.4 237.1 Q68.5 240.3 71.7 242.65 74.3 244.55 75.15 246.95 72.2 245.9 68.9 243.05 65.2 239.8 62.4 239.15" fill="#fee072" fill-rule="evenodd" stroke="none"/>
      <path d="M35.0 215.65 Q35.1 212.85 33.5 208.45 31.85 203.95 31.85 201.2 31.85 197.95 34.6 189.55 L37.05 182.4 39.25 177.9 41.85 183.45 Q43.8 188.0 44.2 191.1 44.5 193.6 46.05 197.4 47.55 201.05 49.25 203.55 L57.7 216.1 61.4 220.0 Q59.65 219.6 57.45 218.3 L53.35 215.75 53.35 216.0 Q53.4 217.45 52.85 218.45 52.35 219.4 51.6 219.4 48.8 219.4 43.35 211.85 38.9 205.65 38.25 203.75 L38.0 203.75 36.3 211.95 35.0 215.65 M121.8 221.1 Q122.9 222.2 123.7 224.2 124.8 227.0 125.45 232.3 126.1 236.8 129.45 240.85 132.6 244.55 132.6 247.4 L132.6 248.65 Q130.1 245.8 127.65 244.05 L125.0 244.05 125.0 246.75 122.75 246.75 Q121.5 246.15 120.55 243.8 119.75 241.8 118.5 241.8 117.85 241.8 111.1 247.2 L108.85 248.9 106.5 248.6 Q102.0 247.95 102.0 246.6 102.0 245.3 111.2 235.75 120.8 225.65 121.8 223.35 L121.8 221.1 M138.65 265.25 Q141.85 268.2 147.6 272.45 150.05 274.65 151.5 277.05 150.95 277.9 150.15 277.9 148.1 277.9 145.65 275.7 144.05 274.25 142.3 271.9 139.6 268.2 138.65 265.25 M57.4 223.2 L59.35 225.95 Q61.8 229.1 62.35 230.25 L64.0 234.35 Q65.15 236.55 66.85 237.15 L66.7 237.6 Q63.35 235.1 60.45 230.55 57.8 226.3 57.4 223.2 M42.0 233.7 Q43.35 234.9 43.35 236.25 43.35 239.7 42.85 241.5 41.9 245.15 39.05 245.15 L36.5 244.7 Q35.5 244.2 35.5 242.75 35.5 240.5 38.5 236.8 41.4 233.2 42.0 233.7 M62.4 239.15 Q65.2 239.8 68.9 243.05 72.2 245.9 75.15 246.95 L75.4 248.0 75.4 249.55 74.25 249.55 Q71.1 248.3 67.4 245.0 64.35 242.2 62.4 239.15" fill="#dfecfd" fill-rule="evenodd" stroke="none"/>
      <path d="M37.05 182.4 L34.6 189.55 Q31.85 197.95 31.85 201.2 31.85 203.95 33.5 208.45 35.1 212.85 35.0 215.65 33.15 219.85 30.95 219.85 L29.75 219.65 29.75 215.75 30.35 213.3 30.7 211.4 Q29.85 213.6 25.3 218.05 20.8 222.6 19.35 222.6 17.25 222.6 16.25 220.8 15.65 219.65 15.55 218.05 26.95 202.0 37.05 182.4 M121.25 220.6 L121.8 221.1 121.8 223.35 Q120.8 225.65 111.2 235.75 102.0 245.3 102.0 246.6 102.0 247.95 106.5 248.6 L108.85 248.9 Q103.4 252.6 99.1 252.6 L94.85 252.2 Q92.6 251.5 92.6 249.65 92.6 246.85 98.25 242.9 L107.45 236.35 Q118.15 226.1 120.95 220.6 L121.25 220.6" fill="#c5d3f0" fill-rule="evenodd" stroke="none"/>
      <path d="M507.75 272.45 Q516.35 272.6 527.2 269.85 554.05 258.25 571.5 261.85 594.0 266.2 618.9 252.95 644.65 241.5 675.3 243.35 693.25 245.3 716.65 236.0 739.95 226.65 797.8 233.25 L797.8 319.9 Q774.8 322.2 742.85 327.1 727.5 329.5 694.95 329.5 666.95 329.5 652.65 328.7 638.15 327.9 626.95 325.65 619.1 324.1 602.65 319.45 580.1 313.05 564.45 309.1 536.5 302.05 520.1 292.25 506.15 283.95 506.15 277.8 506.15 276.0 507.6 272.85 L507.75 272.45" fill="url(#gradient7)" fill-rule="evenodd" stroke="none"/>
      <path d="M797.8 319.9 L797.8 399.35 369.85 401.1 368.9 388.7 Q368.05 380.25 363.75 369.1 358.9 356.5 332.85 334.35 310.5 315.4 295.75 309.05 330.2 316.95 384.25 300.9 450.0 280.85 495.2 270.25 500.7 272.3 507.75 272.45 L507.6 272.85 Q506.15 276.0 506.15 277.8 506.15 283.95 520.1 292.25 536.5 302.05 564.45 309.1 580.1 313.05 602.65 319.45 619.1 324.1 626.95 325.65 638.15 327.9 652.65 328.7 666.95 329.5 694.95 329.5 727.5 329.5 742.85 327.1 774.8 322.2 797.8 319.9" fill="url(#gradient8)" fill-rule="evenodd" stroke="none"/>
      <path d="M369.85 401.1 L0.0 399.35 0.0 265.05 Q148.3 269.55 286.6 306.4 290.85 307.9 295.5 309.0 L295.75 309.05 Q310.5 315.4 332.85 334.35 358.9 356.5 363.75 369.1 368.05 380.25 368.9 388.7 L369.85 401.1" fill="url(#gradient9)" fill-rule="evenodd" stroke="none"/>
      <path d="M184.15 399.35 L0.5 399.35 0.5 309.85 Q116.2 333.0 184.15 399.35" fill="url(#gradient10)" fill-rule="evenodd" stroke="none"/>
      <path d="M59.4 345.0 Q59.95 343.8 62.2 342.85 63.85 342.15 64.5 342.35 L64.6 342.4 65.1 343.0 Q65.5 343.5 66.4 344.0 L66.35 344.55 Q66.4 344.95 66.8 345.05 L66.6 345.5 66.0 345.6 65.25 345.6 64.8 345.25 64.35 344.95 Q63.6 344.7 62.35 345.2 61.15 345.7 60.8 346.45 L60.65 346.85 60.85 347.1 Q59.8 346.75 59.45 346.3 59.0 345.7 59.4 345.0 M79.4 339.35 Q78.9 339.0 79.3 338.55 79.75 337.8 81.7 337.15 L83.75 336.85 83.8 336.9 84.3 337.3 Q84.6 337.6 85.45 337.95 L85.4 338.3 85.75 338.6 85.55 338.85 85.05 338.95 84.35 338.95 84.0 338.7 83.65 338.55 81.85 338.65 Q80.85 339.0 80.55 339.5 L80.35 339.75 80.55 339.9 Q79.65 339.7 79.4 339.35 M28.15 366.75 L29.3 367.4 Q30.4 368.0 32.45 368.0 32.75 368.35 33.05 369.25 33.45 369.95 34.25 369.85 L34.25 370.9 33.15 371.75 31.7 372.2 30.6 371.95 29.6 371.7 Q28.1 371.7 26.6 373.5 25.15 375.2 25.15 376.65 L25.2 377.55 Q25.3 377.8 25.7 377.9 24.0 377.75 23.3 377.1 22.4 376.4 22.4 374.9 22.4 372.7 24.8 369.65 27.0 366.75 28.15 366.75 M60.9 365.8 L61.0 366.05 Q60.95 366.95 58.25 369.2 54.5 372.25 51.6 372.8 L50.55 372.85 Q49.4 372.85 48.8 372.4 48.1 371.85 47.95 370.6 L48.3 370.9 49.2 370.7 Q50.85 370.4 52.6 368.9 54.3 367.4 54.0 366.45 L53.5 366.0 53.05 365.5 Q53.0 365.2 53.3 364.65 L53.9 363.9 54.95 363.55 Q55.0 363.95 55.85 363.95 L57.4 363.8 Q58.1 364.85 59.4 365.3 L60.9 365.8 M71.85 351.3 Q72.35 352.1 73.35 352.45 L74.5 352.8 74.6 353.0 Q74.55 353.7 72.5 355.45 69.6 357.75 67.35 358.2 L66.6 358.25 65.25 357.9 Q64.7 357.45 64.6 356.5 L64.85 356.75 65.55 356.6 Q66.8 356.35 68.15 355.2 69.45 354.05 69.2 353.3 L68.85 352.95 68.5 352.6 Q68.45 352.35 68.7 351.95 68.85 351.55 69.15 351.35 L69.95 351.1 Q70.0 351.4 70.65 351.4 L71.85 351.3 M29.25 394.85 Q28.25 394.15 27.9 392.65 28.0 393.0 28.4 393.0 L29.5 392.75 Q31.45 392.4 33.45 390.55 35.3 388.7 34.8 387.5 L34.1 386.95 33.5 386.35 Q33.35 385.95 33.7 385.3 33.85 384.65 34.3 384.35 L35.55 383.95 Q35.65 384.45 36.7 384.45 L38.55 384.25 Q39.55 385.55 41.2 386.1 L43.2 386.7 43.3 387.0 Q43.35 388.15 40.4 390.9 36.25 394.6 32.75 395.35 L31.45 395.4 Q30.05 395.4 29.25 394.85 M50.05 352.05 Q50.2 352.5 50.7 352.5 L50.6 353.15 49.85 353.5 48.95 353.7 48.3 353.45 47.6 353.2 Q46.55 353.1 45.2 354.15 43.8 355.2 43.65 356.25 L43.55 356.85 43.95 357.1 41.9 356.55 Q41.15 356.0 41.4 354.9 41.65 353.25 44.15 351.3 46.05 349.85 46.9 349.85 L47.1 349.9 47.9 350.55 49.85 351.3 50.05 352.05 M84.05 345.4 L83.85 345.15 83.95 344.8 84.25 344.4 84.7 344.25 Q84.75 344.45 85.15 344.45 L85.85 344.4 86.75 345.1 87.45 345.3 87.5 345.4 Q87.5 345.85 86.25 346.9 84.5 348.25 83.15 348.55 L82.65 348.55 81.85 348.35 Q81.55 348.1 81.5 347.5 L81.65 347.65 82.05 347.6 Q82.8 347.45 83.65 346.75 84.4 346.05 84.25 345.6 L84.05 345.4" fill="#b3b6c9" fill-rule="evenodd" stroke="none"/>
      <path d="M798.65 283.8 L798.65 399.9 130.55 399.9 Q444.05 293.05 798.65 283.8" fill="url(#gradient11)" fill-rule="evenodd" stroke="none"/>
      <path d="M87.3 270.6 Q96.75 269.2 118.75 272.7 L151.5 278.1 143.85 278.95 Q139.45 279.75 136.3 282.15 L142.4 283.85 Q146.1 285.15 146.9 287.75 141.4 287.45 133.1 288.95 L121.1 291.3 121.1 291.85 Q123.25 291.35 125.45 292.25 127.45 293.05 128.15 294.35 L113.25 297.6 95.25 301.5 95.5 299.0 95.75 296.65 Q95.75 290.8 94.6 288.1 93.6 285.75 90.2 282.65 L95.75 283.25 Q95.3 278.65 91.0 274.9 88.35 272.65 87.3 270.6" fill="url(#gradient12)" fill-rule="evenodd" stroke="none"/>
      <path d="M1.5 265.4 Q13.8 265.35 40.2 266.4 L73.4 268.0 Q73.1 270.25 73.65 271.6 74.4 273.35 76.45 273.0 L76.45 273.5 65.05 275.25 Q61.25 276.0 60.35 280.55 59.55 284.8 61.6 287.8 55.5 282.45 49.4 284.25 43.25 286.05 52.05 294.95 36.35 297.45 34.9 296.9 32.0 295.9 27.65 295.9 24.35 295.9 15.65 300.75 11.25 303.2 1.5 305.6 L1.5 265.4" fill="url(#gradient13)" fill-rule="evenodd" stroke="none"/>
      <path d="M707.75 218.45 Q710.2 212.35 710.15 208.85 711.0 213.1 714.75 217.1 718.15 220.65 720.95 221.5 L720.95 221.7 718.5 221.8 716.2 221.7 Q716.2 223.6 719.75 226.95 722.8 229.9 725.3 231.15 L719.95 232.6 722.6 235.95 725.8 240.3 720.1 240.3 718.15 240.0 718.15 241.75 715.3 241.75 Q714.5 240.9 713.7 240.65 L712.55 240.6 Q711.75 240.6 711.3 241.8 L710.1 244.0 Q709.25 243.65 708.1 242.15 L706.75 240.6 704.65 241.75 702.15 243.45 700.75 242.75 702.05 241.05 Q703.1 239.75 703.3 238.65 703.1 239.75 702.05 241.05 L700.75 242.75 Q699.35 242.05 698.75 242.05 L696.2 241.65 692.35 242.6 689.3 242.65 686.7 242.35 682.25 241.45 Q682.4 242.35 683.45 243.4 L684.45 244.3 684.8 244.3 Q684.55 244.9 682.45 245.2 L675.95 245.5 Q675.95 247.45 676.25 248.05 L671.6 246.85 666.85 246.1 666.4 247.35 665.65 248.65 661.95 245.5 659.7 247.9 Q657.35 250.4 657.15 251.2 L653.6 249.45 653.1 249.15 657.45 248.35 Q657.45 247.45 656.85 246.75 L656.25 245.9 Q656.25 245.4 656.9 245.1 L657.95 244.9 656.9 243.85 657.95 244.9 656.9 245.1 Q656.25 245.4 656.25 245.9 L656.85 246.75 Q657.45 247.45 657.45 248.35 L653.1 249.15 653.6 249.45 657.15 251.2 648.0 251.85 639.7 252.1 637.45 252.1 638.75 253.1 640.05 253.7 640.05 253.75 635.3 254.05 632.0 253.5 629.05 252.9 Q628.65 252.9 626.9 253.95 L625.2 254.95 625.2 253.75 621.4 255.15 617.5 256.05 613.8 255.75 613.8 255.45 Q615.1 255.0 616.15 253.2 L618.0 250.3 Q617.35 250.45 616.85 250.75 616.2 251.1 616.05 251.2 L616.05 250.9 619.45 244.6 617.2 245.2 619.05 242.35 Q620.45 240.1 620.65 238.9 618.6 240.45 617.5 240.0 623.25 233.3 625.15 224.35 624.75 226.95 629.55 233.45 631.65 236.4 633.2 238.05 634.45 237.15 637.95 231.6 L641.15 226.45 Q641.15 227.5 644.6 231.5 647.5 234.9 648.7 235.9 L649.4 232.75 650.25 229.75 Q651.7 237.75 656.7 240.25 L656.55 240.3 656.55 240.6 654.6 240.6 Q654.4 241.2 655.9 242.8 L656.9 243.85 Q658.05 242.3 659.1 240.0 L656.85 240.5 656.85 240.3 656.7 240.25 Q657.55 239.6 658.55 236.75 L659.85 233.0 660.0 232.9 660.0 232.6 659.85 233.0 657.85 233.75 Q656.75 234.05 656.25 234.3 L656.25 234.0 Q658.9 233.0 661.1 227.9 663.05 223.4 663.4 219.15 663.9 222.7 669.1 227.25 L669.3 227.45 670.7 222.1 Q671.6 218.0 671.55 217.0 671.75 219.0 675.05 223.95 678.2 228.8 679.4 229.25 679.8 228.3 683.15 222.1 L686.5 216.0 Q685.9 220.25 687.1 224.4 687.8 226.75 688.95 228.45 690.55 226.45 691.95 222.5 L693.6 217.15 Q693.5 220.2 693.95 222.55 696.6 221.45 700.8 207.4 L703.0 213.5 Q704.7 217.0 707.75 218.45 L707.05 220.0 Q705.05 224.65 702.15 229.75 L704.15 228.85 704.15 233.2 Q703.85 234.75 702.6 236.85 L701.05 239.7 702.6 236.85 Q703.85 234.75 704.15 233.2 L704.15 228.85 702.15 229.75 Q705.05 224.65 707.05 220.0 L707.75 218.45 M701.25 239.85 L701.05 239.7 700.3 239.1 Q699.55 238.45 699.0 236.85 701.9 237.05 701.9 235.9 L699.2 233.7 Q696.6 231.75 697.05 230.05 L698.25 230.15 699.6 230.05 699.6 229.75 Q695.05 228.35 693.95 222.55 695.05 228.35 699.6 229.75 L699.6 230.05 698.25 230.15 697.05 230.05 Q696.6 231.75 699.2 233.7 L701.9 235.9 Q701.9 237.05 699.0 236.85 699.55 238.45 700.3 239.1 L701.05 239.7 701.0 239.8 701.0 240.0 701.25 239.85 Q702.25 239.05 703.3 238.65 L703.35 238.6 703.35 238.35 703.3 238.65 Q702.25 239.05 701.25 239.85 L701.9 240.3 701.25 239.85 M692.15 231.45 L691.05 233.2 Q692.05 235.75 694.7 237.75 L694.7 238.3 693.3 238.3 696.2 241.65 693.3 238.3 694.7 238.3 694.7 237.75 Q692.05 235.75 691.05 233.2 L692.15 231.45 Q690.25 230.35 688.95 228.45 690.25 230.35 692.15 231.45 L692.45 231.45 692.15 231.45 M688.75 228.65 L688.95 228.45 688.75 228.65 M669.1 228.3 L669.1 228.0 669.2 227.75 669.3 227.45 Q674.35 231.8 677.05 231.15 L677.05 231.45 673.65 231.7 673.65 232.85 Q673.65 234.75 676.05 236.7 678.55 238.8 681.05 238.6 L675.65 239.2 Q676.65 241.25 679.5 243.35 681.05 244.5 682.45 245.2 681.05 244.5 679.5 243.35 676.65 241.25 675.65 239.2 L681.05 238.6 Q678.55 238.8 676.05 236.7 673.65 234.75 673.65 232.85 L673.65 231.7 677.05 231.45 677.05 231.15 Q674.35 231.8 669.3 227.45 L669.2 227.75 669.1 228.0 669.1 228.3 M683.9 244.3 L684.45 244.3 683.9 244.3 M682.25 241.45 L685.6 241.45 685.6 240.9 Q684.6 240.95 682.45 239.05 680.3 237.2 680.2 236.35 L683.05 236.35 683.05 235.75 Q681.9 235.2 680.5 233.6 679.1 232.0 679.1 231.3 679.1 230.35 679.8 230.15 L681.95 229.75 681.95 229.45 679.4 229.25 681.95 229.45 681.95 229.75 679.8 230.15 Q679.1 230.35 679.1 231.3 679.1 232.0 680.5 233.6 681.9 235.2 683.05 235.75 L683.05 236.35 680.2 236.35 Q680.3 237.2 682.45 239.05 684.6 240.95 685.6 240.9 L685.6 241.45 682.25 241.45 M653.1 248.65 L653.1 249.15 Q651.75 248.2 651.75 247.15 651.75 246.65 652.9 246.6 L654.9 246.6 Q652.65 245.9 651.35 244.15 650.6 243.15 649.1 239.8 L649.1 238.3 651.75 238.3 651.6 238.0 651.45 237.75 648.7 235.9 651.45 237.75 651.6 238.0 651.75 238.3 649.1 238.3 649.1 239.8 Q650.6 243.15 651.35 244.15 652.65 245.9 654.9 246.6 L652.9 246.6 Q651.75 246.65 651.75 247.15 651.75 248.2 653.1 249.15 L653.1 248.65 M633.2 238.05 Q634.85 239.8 635.75 240.0 L635.9 240.3 636.05 240.6 633.4 240.6 634.7 243.7 Q636.15 246.85 636.85 247.15 636.05 247.75 635.45 247.75 635.3 248.6 636.8 249.85 L639.7 252.1 636.8 249.85 Q635.3 248.6 635.45 247.75 636.05 247.75 636.85 247.15 636.15 246.85 634.7 243.7 L633.4 240.6 636.05 240.6 635.9 240.3 635.75 240.0 Q634.85 239.8 633.2 238.05" fill="#64797c" fill-rule="evenodd" stroke="none"/>
      <path d="M700.75 242.75 L702.15 243.45 704.65 241.75 706.75 240.6 708.1 242.15 Q709.25 243.65 710.1 244.0 L711.3 241.8 Q711.75 240.6 712.55 240.6 L713.7 240.65 Q714.5 240.9 715.3 241.75 L718.15 241.75 718.15 240.0 720.1 240.3 725.8 240.3 722.6 235.95 719.95 232.6 725.3 231.15 Q722.8 229.9 719.75 226.95 716.2 223.6 716.2 221.7 L718.5 221.8 720.95 221.7 720.95 221.5 Q718.15 220.65 714.75 217.1 711.0 213.1 710.15 208.85 710.2 212.35 707.75 218.45 L707.05 220.0 Q705.05 224.65 702.15 229.75 L704.15 228.85 704.15 233.2 Q703.85 234.75 702.6 236.85 L701.05 239.7 701.25 239.85 Q702.25 239.05 703.3 238.65 L703.35 238.35 703.35 238.6 703.3 238.65 Q703.1 239.75 702.05 241.05 L700.75 242.75 Q699.35 242.05 698.75 242.05 L696.2 241.65 692.35 242.6 689.3 242.65 686.7 242.35 682.25 241.45 Q682.4 242.35 683.45 243.4 L684.45 244.3 684.8 244.3 685.1 244.3 M710.15 208.85 L710.15 208.6 710.1 208.0 M663.4 219.15 Q663.9 222.7 669.1 227.25 L669.3 227.45 670.7 222.1 Q671.6 218.0 671.55 217.0 671.75 219.0 675.05 223.95 678.2 228.8 679.4 229.25 679.8 228.3 683.15 222.1 L686.5 216.0 Q685.9 220.25 687.1 224.4 687.8 226.75 688.95 228.45 690.55 226.45 691.95 222.5 L693.6 217.15 Q693.5 220.2 693.95 222.55 696.6 221.45 700.8 207.4 L703.0 213.5 Q704.7 217.0 707.75 218.45 M693.95 222.55 Q695.05 228.35 699.6 229.75 L699.6 230.05 698.25 230.15 697.05 230.05 Q696.6 231.75 699.2 233.7 L701.9 235.9 Q701.9 237.05 699.0 236.85 699.55 238.45 700.3 239.1 L701.05 239.7 701.0 239.8 701.0 240.0 701.25 239.85 701.9 240.3 M688.95 228.45 Q690.25 230.35 692.15 231.45 L692.45 231.45 M688.95 228.45 L688.75 228.65 M696.2 241.65 L693.3 238.3 694.7 238.3 694.7 237.75 Q692.05 235.75 691.05 233.2 L692.15 231.45 M702.15 243.45 L700.2 243.45 700.75 242.75 M663.4 218.85 L663.4 219.15 Q663.05 223.4 661.1 227.9 658.9 233.0 656.25 234.0 L656.25 234.3 Q656.75 234.05 657.85 233.75 L659.85 233.0 660.0 232.6 660.0 232.9 659.85 233.0 658.55 236.75 Q657.55 239.6 656.7 240.25 L656.85 240.3 656.85 240.5 659.1 240.0 Q658.05 242.3 656.9 243.85 L657.95 244.9 656.9 245.1 Q656.25 245.4 656.25 245.9 L656.85 246.75 Q657.45 247.45 657.45 248.35 L653.1 249.15 653.6 249.45 657.15 251.2 Q657.35 250.4 659.7 247.9 L661.95 245.5 665.65 248.65 666.4 247.35 666.85 246.1 671.6 246.85 676.25 248.05 Q675.95 247.45 675.95 245.5 L682.45 245.2 Q681.05 244.5 679.5 243.35 676.65 241.25 675.65 239.2 L681.05 238.6 Q678.55 238.8 676.05 236.7 673.65 234.75 673.65 232.85 L673.65 231.7 677.05 231.45 677.05 231.15 Q674.35 231.8 669.3 227.45 L669.2 227.75 669.1 228.0 669.1 228.3 M625.15 224.35 Q624.75 226.95 629.55 233.45 631.65 236.4 633.2 238.05 634.45 237.15 637.95 231.6 L641.15 226.45 Q641.15 227.5 644.6 231.5 647.5 234.9 648.7 235.9 L649.4 232.75 650.25 229.75 Q651.7 237.75 656.7 240.25 L656.55 240.3 656.55 240.6 656.85 240.5 656.85 240.6 656.55 240.6 654.6 240.6 Q654.4 241.2 655.9 242.8 L656.9 243.85 M648.7 235.9 L651.45 237.75 651.6 238.0 651.75 238.3 649.1 238.3 649.1 239.8 Q650.6 243.15 651.35 244.15 652.65 245.9 654.9 246.6 L652.9 246.6 Q651.75 246.65 651.75 247.15 651.75 248.2 653.1 249.15 L653.1 248.65 M679.4 229.25 L681.95 229.45 681.95 229.75 679.8 230.15 Q679.1 230.35 679.1 231.3 679.1 232.0 680.5 233.6 681.9 235.2 683.05 235.75 L683.05 236.35 680.2 236.35 Q680.3 237.2 682.45 239.05 684.6 240.95 685.6 240.9 L685.6 241.45 682.25 241.45 M684.45 244.3 L683.9 244.3 M682.45 245.2 Q684.55 244.9 684.8 244.3 M682.45 245.2 L683.9 245.8 M657.15 251.2 L648.0 251.85 639.7 252.1 637.45 252.1 638.75 253.1 640.05 253.7 640.05 253.75 635.3 254.05 632.0 253.5 629.05 252.9 Q628.65 252.9 626.9 253.95 L625.2 254.95 625.2 253.75 621.4 255.15 617.5 256.05 613.8 255.75 613.8 255.45 Q615.1 255.0 616.15 253.2 L618.0 250.3 Q617.35 250.45 616.85 250.75 616.2 251.1 616.05 251.2 L616.05 250.9 619.45 244.6 617.2 245.2 619.05 242.35 Q620.45 240.1 620.65 238.9 618.6 240.45 617.5 240.0 623.25 233.3 625.15 224.35 L625.2 224.05 M639.7 252.1 L636.8 249.85 Q635.3 248.6 635.45 247.75 636.05 247.75 636.85 247.15 636.15 246.85 634.7 243.7 L633.4 240.6 636.05 240.6 635.9 240.3 635.75 240.0 Q634.85 239.8 633.2 238.05" fill="none" stroke="#000000" stroke-linecap="round" stroke-linejoin="round" stroke-opacity="0.3019608" stroke-width="0.30000000000000004"/>
      <path d="M712.05 211.15 Q712.95 212.05 713.55 213.7 L716.25 216.5 Q718.75 219.05 718.75 219.55 L718.6 220.25 718.45 220.6 Q717.9 220.6 716.6 220.05 L714.7 219.15 713.25 219.15 713.25 221.2 711.85 221.2 711.0 219.85 709.9 218.55 707.75 222.4 Q706.05 225.45 704.6 225.45 703.65 225.45 703.65 224.3 703.65 223.0 705.65 219.4 L706.7 217.45 Q708.6 215.6 709.05 212.8 709.55 209.85 710.1 209.2 L712.05 211.15 M696.3 219.65 Q696.1 219.5 696.15 218.35 696.75 213.7 697.45 211.6 698.9 207.6 700.2 205.45 702.6 206.7 705.85 215.75 705.85 216.2 705.3 216.55 L704.6 216.85 703.7 216.6 702.75 216.3 Q701.65 216.3 699.9 218.0 698.15 219.7 697.3 219.7 L696.3 219.65 M693.45 215.9 L694.7 219.85 Q696.0 223.95 696.55 224.55 697.65 225.85 697.65 226.3 L696.8 227.45 Q695.85 228.3 695.05 228.3 692.2 227.25 691.6 227.4 690.5 227.65 688.6 226.6 L688.25 226.75 687.65 226.9 Q687.05 226.9 686.5 226.45 685.95 226.0 685.35 226.0 683.65 226.0 682.45 227.2 L680.75 227.2 681.05 226.2 Q682.0 223.25 683.8 219.65 685.7 215.85 686.75 214.9 686.8 217.9 688.05 221.2 689.15 224.1 689.35 225.45 L689.35 223.75 691.2 219.7 693.45 215.9 M690.2 234.0 L688.6 232.25 Q687.55 231.15 687.4 230.55 688.6 230.45 689.55 231.0 L691.65 232.3 691.65 234.0 690.2 234.0 M675.4 220.4 Q678.4 225.6 677.6 226.3 677.05 226.3 675.75 225.4 L673.65 224.05 672.15 225.5 670.3 227.25 672.25 229.45 672.0 229.3 671.95 229.15 668.6 228.05 Q665.7 226.9 664.35 226.9 662.6 226.9 661.3 230.05 660.0 233.2 657.7 233.2 L656.8 233.05 656.25 232.9 Q656.1 232.4 656.95 231.05 657.95 229.55 657.95 229.15 660.5 227.95 661.65 224.4 662.65 220.1 663.4 218.05 L664.0 218.05 Q664.65 220.1 667.45 223.7 L668.5 225.45 669.7 220.35 Q670.55 216.15 671.6 216.05 672.9 216.05 675.4 220.4 M650.85 229.15 Q653.7 234.8 654.6 238.0 L653.1 238.0 651.45 236.0 Q650.5 234.85 649.15 234.85 648.95 234.85 648.5 235.15 L648.35 235.3 649.7 237.45 648.0 237.45 Q645.1 236.35 644.0 236.35 L643.45 239.15 Q642.6 241.75 640.7 241.75 639.15 241.75 638.9 239.45 638.75 237.8 639.2 235.75 635.95 238.6 634.0 238.0 634.45 236.3 636.3 232.7 638.85 227.75 639.85 226.4 640.05 225.7 641.15 225.7 642.15 225.7 647.55 234.1 L648.65 231.3 Q649.4 229.4 650.85 229.15 M650.55 243.45 L650.55 244.9 648.0 244.9 Q647.4 244.35 646.7 243.05 645.95 241.8 645.95 241.3 645.95 240.45 647.1 240.3 L647.7 240.25 648.0 240.25 648.95 241.45 650.55 243.45 M661.6 238.65 L660.0 240.3 658.25 240.3 658.25 238.3 659.7 235.9 660.6 233.8 661.35 235.45 Q661.95 236.5 661.95 237.45 661.95 238.3 661.6 238.65" fill="#c8d3ef" fill-rule="evenodd" stroke="none"/>
      <path d="M619.7 242.5 L620.95 240.6 620.65 244.15 Q620.3 245.9 619.75 246.6 L618.0 246.6 618.0 244.9 619.7 242.5 M627.2 234.2 L625.3 232.9 Q624.3 232.9 623.0 234.95 621.35 237.5 620.05 238.3 L618.6 238.3 618.6 236.65 Q620.6 233.7 622.6 225.65 L622.7 224.35 622.7 224.3 Q622.95 223.15 624.3 223.15 625.4 223.15 628.05 228.05 L630.6 233.2 630.6 235.45 Q629.25 235.45 627.2 234.2" fill="#e2e9fb" fill-rule="evenodd" stroke="none"/>
      <path d="M700.25 380.0 Q700.85 380.0 700.85 379.4 705.25 377.75 709.3 375.4 714.85 372.1 715.8 369.3 L715.2 369.3 700.1 369.75 686.1 369.45 Q692.0 369.4 707.2 362.25 723.9 354.4 731.7 347.2 736.35 344.95 743.95 338.8 749.2 334.55 755.1 329.15 759.55 325.4 771.3 326.7 L778.8 327.8 781.9 327.95 794.15 327.6 798.3 327.45 798.3 400.9 791.7 397.25 Q779.0 390.2 777.55 390.2 L771.05 391.1 Q766.95 392.0 762.6 392.0 754.95 392.0 750.0 390.55 744.3 388.9 737.8 384.2 L745.05 378.95 Q749.5 375.65 752.7 373.5 L752.1 373.5 744.7 376.05 Q738.0 378.4 735.4 378.9 729.55 380.15 719.15 380.5 L707.7 380.6 700.25 380.0" fill="#171717" fill-opacity="0.2901961" fill-rule="evenodd" stroke="none"/>
      <path d="M791.7 80.25 L793.55 73.4 794.0 71.9 796.55 61.75 796.85 91.8 Q790.75 142.05 769.85 184.35 L784.5 169.15 Q775.35 203.5 757.45 230.1 773.25 219.35 783.35 204.2 768.4 254.85 742.55 294.5 L733.65 307.4 744.8 300.55 Q762.9 288.75 775.85 276.4 L751.55 317.3 777.95 294.45 Q775.1 310.05 764.45 325.0 L759.55 331.3 Q748.0 345.15 729.6 358.45 L742.9 343.5 747.35 340.25 750.2 329.15 744.3 335.1 Q728.4 349.85 704.25 359.6 L729.45 335.8 734.7 332.95 743.25 315.8 733.1 324.4 Q720.35 334.4 706.0 342.75 722.4 332.4 738.6 312.75 L720.5 322.65 730.2 304.4 713.65 319.7 720.35 310.45 714.3 314.95 Q694.35 328.8 667.55 337.1 L659.85 337.9 Q681.2 332.25 703.75 316.95 741.5 292.35 753.55 262.4 745.85 273.6 733.75 281.5 748.6 262.85 756.45 244.15 L741.8 259.4 732.05 265.65 Q720.8 272.5 682.95 290.65 L691.7 285.3 Q731.65 260.4 743.15 244.2 L732.3 251.05 Q717.45 259.95 705.75 260.95 744.55 233.8 751.2 216.75 L735.8 228.95 717.3 239.25 Q729.3 228.4 737.2 217.0 L762.7 187.8 740.4 198.85 Q769.3 162.4 791.7 80.25 M752.15 336.35 L747.35 340.25 752.15 336.35" fill="url(#gradient14)" fill-rule="evenodd" stroke="none"/>
      <path d="M729.6 358.45 Q748.0 345.15 759.55 331.3 L764.45 325.0 Q775.1 310.05 777.95 294.45 L751.55 317.3 775.85 276.4 Q762.9 288.75 744.8 300.55 L733.65 307.4 742.55 294.5 Q768.4 254.85 783.35 204.2 773.25 219.35 757.45 230.1 775.35 203.5 784.5 169.15 L769.85 184.35 Q790.75 142.05 796.85 91.8 L799.95 369.85 Q789.65 360.8 784.6 348.9 779.55 353.45 773.6 357.35 765.55 362.55 755.9 366.45 L777.25 342.4 Q756.85 354.2 729.6 358.45 M784.85 337.5 L777.25 342.4 784.85 337.5 M793.2 339.8 Q789.3 344.65 784.6 348.9 789.3 344.65 793.2 339.8" fill="#3a4d4d" fill-rule="evenodd" stroke="none"/>
      <path d="M743.65 206.45 L744.0 206.05 743.4 206.9 743.65 206.45" fill="#597962" fill-rule="evenodd" stroke="none"/>
      <path d="M791.7 80.25 Q769.3 162.4 740.4 198.85 L762.7 187.8 737.2 217.0 Q740.7 212.0 743.4 206.9 L744.0 206.05 743.65 206.45 Q734.75 217.05 724.7 222.85 L734.0 204.2 Q722.1 215.75 711.3 219.95 768.8 156.7 791.7 80.25" fill="url(#gradient15)" fill-rule="evenodd" stroke="none"/>
      <path d="M735.8 228.95 L751.2 216.75 Q744.55 233.8 705.75 260.95 724.6 245.4 735.8 228.95" fill="url(#gradient16)" fill-rule="evenodd" stroke="none"/>
      <path d="M741.8 259.4 L756.45 244.15 Q748.6 262.85 733.75 281.5 745.85 273.6 753.55 262.4 741.5 292.35 703.75 316.95 681.2 332.25 659.85 337.9 L654.25 338.25 Q677.7 330.55 698.8 315.05 L715.0 303.2 708.7 305.7 Q696.2 310.15 685.45 309.7 711.75 303.0 730.25 274.25 L741.8 259.4" fill="url(#gradient17)" fill-rule="evenodd" stroke="none"/>
      <path d="M682.95 290.65 Q720.8 272.5 732.05 265.65 L741.8 259.4 730.25 274.25 Q706.15 286.95 682.95 290.65 M667.55 337.1 Q694.35 328.8 714.3 314.95 L720.35 310.45 713.65 319.7 706.9 329.0 Q686.95 334.8 667.55 337.1 M706.0 342.75 Q720.35 334.4 733.1 324.4 L743.25 315.8 734.7 332.95 729.45 335.8 Q709.4 346.45 686.65 352.75 696.7 348.1 706.0 342.75 M704.25 359.6 Q728.4 349.85 744.3 335.1 L750.2 329.15 747.35 340.25 742.9 343.5 Q724.6 356.15 704.25 359.6 M685.45 309.7 Q696.2 310.15 708.7 305.7 L715.0 303.2 698.8 315.05 685.45 309.7" fill="#455757" fill-rule="evenodd" stroke="none"/>
      <path d="M732.3 251.05 L743.15 244.2 Q731.65 260.4 691.7 285.3 712.8 271.6 732.3 251.05" fill="#c3d77e" fill-rule="evenodd" stroke="none"/>
      <path d="M713.65 319.7 L730.2 304.4 720.5 322.65 738.6 312.75 Q722.4 332.4 706.0 342.75 696.7 348.1 686.65 352.75 L703.85 333.2 704.15 332.8 707.65 328.75 706.9 329.0 713.65 319.7" fill="url(#gradient18)" fill-rule="evenodd" stroke="none"/>
      <path d="M799.95 369.85 L800.0 375.55 Q784.9 381.55 773.8 375.55 L773.6 357.35 Q779.55 353.45 784.6 348.9 789.65 360.8 799.95 369.85" fill="#31381c" fill-rule="evenodd" stroke="none"/>
      <path d="M793.55 73.4 L791.7 80.25 M737.2 217.0 Q729.3 228.4 717.3 239.25 L735.8 228.95 Q724.6 245.4 705.75 260.95 717.45 259.95 732.3 251.05 712.8 271.6 691.7 285.3 L682.95 290.65 Q706.15 286.95 730.25 274.25 711.75 303.0 685.45 309.7 L698.8 315.05 Q677.7 330.55 654.25 338.25 L659.85 337.9 667.55 337.1 Q686.95 334.8 706.9 329.0 L707.65 328.75 704.15 332.8 M734.7 332.95 L729.45 335.8 704.25 359.6 Q724.6 356.15 742.9 343.5 L747.35 340.25 752.15 336.35 M796.85 91.8 L796.55 61.75 794.0 71.9 M729.6 358.45 Q756.85 354.2 777.25 342.4 L784.85 337.5 M743.4 206.9 Q740.7 212.0 737.2 217.0 M743.65 206.45 L744.0 206.05 743.4 206.9 743.65 206.45 Q734.75 217.05 724.7 222.85 L734.0 204.2 Q722.1 215.75 711.3 219.95 768.8 156.7 791.7 80.25 M703.85 333.2 L686.65 352.75 Q709.4 346.45 729.45 335.8 M773.6 357.35 L773.8 375.55 Q784.9 381.55 800.0 375.55 L799.95 369.85 Q789.65 360.8 784.6 348.9 779.55 353.45 773.6 357.35 765.55 362.55 755.9 366.45 L777.25 342.4 M784.6 348.9 Q789.3 344.65 793.2 339.8 M742.9 343.5 L729.6 358.45 M799.95 369.85 L796.85 91.8" fill="none" stroke="#000000" stroke-linecap="round" stroke-linejoin="round" stroke-opacity="0.3019608" stroke-width="0.30000000000000004"/>
      <path d="M794.0 71.9 L793.55 73.4 Z" fill="none" stroke="#00ff00" stroke-linecap="round" stroke-linejoin="round" stroke-width="0.05"/>
      <path d="M796.7 54.3 Q793.5 56.4 791.4 70.45 L789.5 84.4 Q788.4 92.4 787.4 96.1 785.2 104.2 780.5 112.35 777.2 118.15 777.4 123.45 777.55 127.3 772.0 134.65 766.35 142.25 766.2 144.2 765.9 150.4 763.6 154.35 L763.35 154.7 Q760.35 159.3 754.95 159.3 752.25 159.3 750.1 158.4 750.45 154.95 753.3 149.85 755.1 146.6 760.9 138.05 772.45 120.9 773.9 111.75 775.5 101.4 784.75 76.45 794.0 51.45 796.65 50.45 L796.7 54.3 M745.8 175.95 L744.5 175.95 Q741.95 183.7 739.75 191.2 738.2 194.8 733.65 194.8 733.15 194.8 731.35 196.75 728.75 199.45 723.6 205.9 718.3 212.55 714.75 215.2 712.3 217.0 710.65 217.0 708.45 217.0 707.35 215.9 L706.85 215.3 Q708.45 208.1 720.5 196.2 727.35 189.5 739.75 178.25 741.9 177.3 743.2 176.2 743.75 175.75 744.8 175.75 L745.8 175.95 M741.8 226.45 Q741.05 229.05 739.75 231.85 737.45 236.95 734.15 241.4 732.8 243.25 727.35 246.8 722.1 250.15 713.3 255.05 L710.9 254.4 710.55 254.3 Q712.45 251.05 717.05 247.65 719.85 245.6 725.05 242.05 L727.6 240.25 Q731.5 237.1 739.2 229.15 L741.8 226.45 M753.7 294.65 L750.85 299.7 745.55 308.7 Q744.95 309.9 741.5 311.75 L740.7 312.15 Q737.65 313.65 735.0 314.45 737.15 311.95 741.85 307.2 L744.35 304.65 753.7 294.65 M693.45 340.55 Q699.1 334.35 706.2 325.6 L711.3 319.25 Q718.85 310.5 725.45 306.65 723.1 308.75 720.6 312.25 L712.8 324.45 711.1 327.0 Q707.25 332.7 704.1 335.65 698.9 340.45 693.45 340.55 M684.85 308.35 Q682.75 307.65 682.75 306.55 682.75 305.5 689.65 302.2 693.8 300.25 705.05 295.25 728.05 284.75 735.8 274.05 726.3 290.45 714.0 299.7 701.7 308.9 688.45 308.9 L684.85 308.35" fill="#f5f1ee" fill-rule="evenodd" stroke="none"/>
      <path d="M750.1 158.4 Q752.25 159.3 754.95 159.3 760.35 159.3 763.35 154.7 L763.6 154.35 Q765.9 150.4 766.2 144.2 766.35 142.25 772.0 134.65 777.55 127.3 777.4 123.45 777.2 118.15 780.5 112.35 785.2 104.2 787.4 96.1 788.4 92.4 789.5 84.4 L791.4 70.45 Q793.5 56.4 796.7 54.3 L797.65 141.35 Q795.5 140.95 790.5 138.05 784.6 134.65 783.2 134.65 781.2 134.65 769.7 149.5 L764.45 156.1 Q757.45 164.3 755.25 164.3 751.15 164.3 750.55 163.75 750.05 163.25 750.0 159.6 L750.1 158.4 M745.8 175.95 Q746.6 176.3 747.2 177.3 748.25 178.85 748.25 181.15 748.3 183.75 744.35 195.3 L744.0 196.35 Q739.55 209.15 737.65 211.1 L734.65 211.1 Q734.6 207.0 733.95 204.85 L731.9 204.85 722.3 213.85 Q718.45 217.35 715.35 218.85 713.0 220.0 711.05 220.0 L708.95 219.7 706.65 219.4 706.6 216.8 Q706.65 216.1 706.85 215.3 L707.35 215.9 Q708.45 217.0 710.65 217.0 712.3 217.0 714.75 215.2 718.3 212.55 723.6 205.9 728.75 199.45 731.35 196.75 733.15 194.8 733.65 194.8 738.2 194.8 739.75 191.2 741.95 183.7 744.5 175.95 L745.8 175.95 M710.55 254.3 L710.9 254.4 713.3 255.05 Q722.1 250.15 727.35 246.8 732.8 243.25 734.15 241.4 737.45 236.95 739.75 231.85 741.05 229.05 741.8 226.45 L747.1 220.8 Q746.15 223.75 745.75 227.65 745.0 235.55 743.15 239.25 739.95 245.5 732.05 250.0 L729.35 251.25 Q721.95 254.65 718.5 256.35 L709.7 256.35 710.55 254.3 M753.7 294.65 Q756.85 290.95 758.75 288.1 755.15 299.0 757.3 301.65 759.4 304.25 759.9 304.25 L758.3 309.45 Q756.15 314.6 753.55 314.6 751.2 314.6 750.8 313.4 L750.6 308.9 Q749.0 310.65 747.35 313.25 L745.0 317.1 Q742.35 320.85 737.3 320.85 L736.9 320.85 Q734.15 320.8 733.2 320.35 L733.15 316.75 735.0 314.45 Q737.65 313.65 740.7 312.15 L741.5 311.75 Q744.95 309.9 745.55 308.7 L750.85 299.7 753.7 294.65 M693.45 340.55 Q698.9 340.45 704.1 335.65 707.25 332.7 711.1 327.0 L712.8 324.45 720.6 312.25 Q723.1 308.75 725.45 306.65 727.5 305.45 729.45 304.75 729.45 305.25 729.95 304.75 726.8 308.05 724.2 313.55 L719.7 323.25 717.25 327.1 Q710.0 337.3 695.1 345.3 L691.0 345.3 690.95 343.25 693.45 340.55" fill="#c9d2ef" fill-rule="evenodd" stroke="none"/>
    </g>
    <radialGradient cx="0" cy="0" gradientTransform="matrix(0.4921, 0.0, 0.0, 0.525, 383.15, 383.45)" gradientUnits="userSpaceOnUse" id="gradient0" r="819.2" spreadMethod="pad">
      <stop offset="0.0" stop-color="#f9ca22"/>
      <stop offset="0.18823529411764706" stop-color="#ffdc5b"/>
      <stop offset="0.6509803921568628" stop-color="#f8e0b2"/>
      <stop offset="1.0" stop-color="#fff2cd"/>
    </radialGradient>
    <linearGradient gradientTransform="matrix(0.0166, -0.1629, 0.03, 0.0035, 662.5, 156.3)" gradientUnits="userSpaceOnUse" id="gradient1" spreadMethod="pad" x1="-819.2" x2="819.2">
      <stop offset="0.09019607843137255" stop-color="#f5fdff" stop-opacity="0.6509804"/>
      <stop offset="0.9921568627450981" stop-color="#eefbff" stop-opacity="0.0"/>
    </linearGradient>
    <linearGradient gradientTransform="matrix(0.0043, -0.041, 0.0099, 0.0011, 615.75, 150.05)" gradientUnits="userSpaceOnUse" id="gradient2" spreadMethod="pad" x1="-819.2" x2="819.2">
      <stop offset="0.0" stop-color="#f5fdff" stop-opacity="0.6509804"/>
      <stop offset="0.9921568627450981" stop-color="#eefbff" stop-opacity="0.0"/>
    </linearGradient>
    <linearGradient gradientTransform="matrix(0.0, -0.0472, 0.0303, 0.0, 433.5, 33.65)" gradientUnits="userSpaceOnUse" id="gradient3" spreadMethod="pad" x1="-819.2" x2="819.2">
      <stop offset="0.043137254901960784" stop-color="#f5fdff" stop-opacity="0.6509804"/>
      <stop offset="0.9921568627450981" stop-color="#eefbff" stop-opacity="0.0"/>
    </linearGradient>
    <linearGradient gradientTransform="matrix(-0.0197, -0.0563, 0.0186, -0.0062, 392.0, 176.55)" gradientUnits="userSpaceOnUse" id="gradient4" spreadMethod="pad" x1="-819.2" x2="819.2">
      <stop offset="0.0" stop-color="#f5fdff" stop-opacity="0.6509804"/>
      <stop offset="0.9921568627450981" stop-color="#eefbff" stop-opacity="0.0"/>
    </linearGradient>
    <linearGradient gradientTransform="matrix(0.0027, -0.0344, 0.0321, 0.0025, 205.75, 53.25)" gradientUnits="userSpaceOnUse" id="gradient5" spreadMethod="pad" x1="-819.2" x2="819.2">
      <stop offset="0.043137254901960784" stop-color="#f5fdff" stop-opacity="0.6509804"/>
      <stop offset="0.9921568627450981" stop-color="#eefbff" stop-opacity="0.0"/>
    </linearGradient>
    <linearGradient gradientTransform="matrix(-0.0184, -0.0321, 0.0186, -0.0061, 133.8, 128.5)" gradientUnits="userSpaceOnUse" id="gradient6" spreadMethod="pad" x1="-819.2" x2="819.2">
      <stop offset="0.043137254901960784" stop-color="#f5fdff" stop-opacity="0.6509804"/>
      <stop offset="0.9921568627450981" stop-color="#eefbff" stop-opacity="0.0"/>
    </linearGradient>
    <radialGradient cx="0" cy="0" fx="-1571.2" fy="0" gradientTransform="matrix(0.4456, 0.0, 0.0, 0.1962, 790.6, 232.9)" gradientUnits="userSpaceOnUse" id="gradient7" r="819.2" spreadMethod="pad">
      <stop offset="0.0" stop-color="#a1a8de"/>
      <stop offset="0.2784313725490196" stop-color="#c2ccee"/>
      <stop offset="0.6392156862745098" stop-color="#e6ebef"/>
      <stop offset="1.0" stop-color="#f4f4d9"/>
    </radialGradient>
    <radialGradient cx="0" cy="0" fx="-1571.2" fy="0" gradientTransform="matrix(0.5146, 0.0684, -0.0412, 0.3123, 723.7, 490.2)" gradientUnits="userSpaceOnUse" id="gradient8" r="819.2" spreadMethod="pad">
      <stop offset="0.0" stop-color="#a1a8de"/>
      <stop offset="0.2784313725490196" stop-color="#c2ccee"/>
      <stop offset="0.6392156862745098" stop-color="#e6ebef"/>
      <stop offset="1.0" stop-color="#f4f4d9"/>
    </radialGradient>
    <radialGradient cx="0" cy="0" fx="-1571.2" fy="0" gradientTransform="matrix(0.314, 0.0672, -0.0445, 0.2095, 142.85, 451.5)" gradientUnits="userSpaceOnUse" id="gradient9" r="819.2" spreadMethod="pad">
      <stop offset="0.0" stop-color="#a1a8de"/>
      <stop offset="0.2784313725490196" stop-color="#c2ccee"/>
      <stop offset="0.6392156862745098" stop-color="#e6ebef"/>
      <stop offset="1.0" stop-color="#f4f4d9"/>
    </radialGradient>
    <radialGradient cx="0" cy="0" gradientTransform="matrix(0.2066, 0.0, 0.0, 0.1448, 14.3, 422.25)" gradientUnits="userSpaceOnUse" id="gradient10" r="819.2" spreadMethod="pad">
      <stop offset="0.0" stop-color="#cbd0f6"/>
      <stop offset="0.30196078431372547" stop-color="#d2d8ee"/>
      <stop offset="0.6392156862745098" stop-color="#e6ebef"/>
      <stop offset="1.0" stop-color="#f4f4d9"/>
    </radialGradient>
    <radialGradient cx="0" cy="0" fx="-1571.2" fy="0" gradientTransform="matrix(0.6117, 0.0, 0.0, 0.2097, 671.85, 444.1)" gradientUnits="userSpaceOnUse" id="gradient11" r="819.2" spreadMethod="pad">
      <stop offset="0.0" stop-color="#a1a8de"/>
      <stop offset="0.2784313725490196" stop-color="#c2ccee"/>
      <stop offset="0.6392156862745098" stop-color="#e6ebef"/>
      <stop offset="1.0" stop-color="#f4f4d9"/>
    </radialGradient>
    <linearGradient gradientTransform="matrix(-0.0139, 0.0241, -0.016, -0.0093, 115.1, 288.45)" gradientUnits="userSpaceOnUse" id="gradient12" spreadMethod="pad" x1="-819.2" x2="819.2">
      <stop offset="0.0" stop-color="#8a8b8d"/>
      <stop offset="1.0" stop-color="#ecefe4"/>
    </linearGradient>
    <linearGradient gradientTransform="matrix(-0.0297, 0.0349, -0.015, -0.0176, 42.0, 285.25)" gradientUnits="userSpaceOnUse" id="gradient13" spreadMethod="pad" x1="-819.2" x2="819.2">
      <stop offset="0.0" stop-color="#8a8b8d"/>
      <stop offset="1.0" stop-color="#ecefe4"/>
    </linearGradient>
    <linearGradient gradientTransform="matrix(0.0807, 0.0283, -0.058, 0.1714, 788.45, 207.5)" gradientUnits="userSpaceOnUse" id="gradient14" spreadMethod="pad" x1="-819.2" x2="819.2">
      <stop offset="0.00392156862745098" stop-color="#597962"/>
      <stop offset="1.0" stop-color="#455757"/>
    </linearGradient>
    <linearGradient gradientTransform="matrix(-0.0167, 0.0651, -0.084, -0.0225, 735.85, 190.6)" gradientUnits="userSpaceOnUse" id="gradient15" spreadMethod="pad" x1="-819.2" x2="819.2">
      <stop offset="0.00392156862745098" stop-color="#c3d77e"/>
      <stop offset="1.0" stop-color="#597962"/>
    </linearGradient>
    <linearGradient gradientTransform="matrix(-0.0069, 0.0272, -0.026, -0.007, 728.5, 238.85)" gradientUnits="userSpaceOnUse" id="gradient16" spreadMethod="pad" x1="-819.2" x2="819.2">
      <stop offset="0.00392156862745098" stop-color="#c3d77e"/>
      <stop offset="1.0" stop-color="#597962"/>
    </linearGradient>
    <linearGradient gradientTransform="matrix(7.0E-4, 0.0632, -0.0572, 0.0, 704.1, 303.65)" gradientUnits="userSpaceOnUse" id="gradient17" spreadMethod="pad" x1="-819.2" x2="819.2">
      <stop offset="0.00392156862745098" stop-color="#c3d77e"/>
      <stop offset="1.0" stop-color="#597962"/>
    </linearGradient>
    <linearGradient gradientTransform="matrix(-0.0157, 0.0278, -0.0256, -0.0148, 712.6, 328.6)" gradientUnits="userSpaceOnUse" id="gradient18" spreadMethod="pad" x1="-819.2" x2="819.2">
      <stop offset="0.00392156862745098" stop-color="#c3d77e"/>
      <stop offset="1.0" stop-color="#597962"/>
    </linearGradient>
  </defs>
</svg>
