<?xml version="1.0" encoding="UTF-8" standalone="no"?>
<svg xmlns:xlink="http://www.w3.org/1999/xlink" height="72.75px" width="39.5px" xmlns="http://www.w3.org/2000/svg">
  <g transform="matrix(1.0, 0.0, 0.0, 1.0, 36.45, 72.05)">
    <use height="72.75" transform="matrix(1.0, 0.0, 0.0, 1.0, -36.45, -72.05)" width="39.5" xlink:href="#decoration111-shape0"/>
  </g>
  <defs>
    <g id="decoration111-shape0" transform="matrix(1.0, 0.0, 0.0, 1.0, 36.45, 72.05)">
      <path d="M-35.0 -37.95 Q-35.65 -30.65 -33.5 -27.85 -32.3 -26.3 -27.45 -24.4 L-31.1 -36.7 -33.4 -45.4 -34.1 -43.0 Q-34.85 -39.85 -35.0 -37.95 M-24.8 -18.25 Q-26.45 -19.25 -26.45 -16.0 L-26.4 -14.65 -23.6 -15.3 Q-23.15 -15.4 -23.15 -15.75 -23.15 -17.3 -24.8 -18.25 M-31.25 -21.75 Q-28.95 -20.15 -27.65 -18.05 -30.4 -22.75 -31.85 -24.5 -34.5 -27.7 -35.2 -25.7 -35.55 -24.65 -35.45 -22.7 -33.95 -23.7 -31.25 -21.75 M-35.8 -20.95 L-36.45 -17.3 -36.45 -72.05 Q-32.55 -41.15 -26.15 -27.7 -19.8 -14.3 -13.65 -10.0 -7.55 -5.7 3.05 0.7 -3.7 -2.4 -4.7 -2.4 -7.05 -2.4 -9.45 0.55 L-10.4 -2.4 Q-8.85 -5.3 -9.65 -5.65 -10.9 -6.2 -11.35 -5.65 L-11.55 -4.95 -16.5 -9.1 Q-18.3 -9.95 -18.3 -7.2 L-20.05 -2.7 Q-22.45 -13.6 -23.3 -13.85 -24.6 -14.25 -26.65 -12.35 L-28.5 -10.35 Q-28.4 -15.7 -30.7 -19.65 -33.0 -23.65 -35.8 -20.95" fill="#e2e1de" fill-opacity="0.7411765" fill-rule="evenodd" stroke="none"/>
    </g>
  </defs>
</svg>
