<?xml version="1.0" encoding="UTF-8" standalone="no"?>
<svg xmlns:xlink="http://www.w3.org/1999/xlink" height="202.3px" width="156.8px" xmlns="http://www.w3.org/2000/svg">
  <g transform="matrix(1.0, 0.0, 0.0, 1.0, 105.9, 197.35)">
    <use height="202.3" transform="matrix(1.0, 0.0, 0.0, 1.0, -105.9, -197.35)" width="156.8" xlink:href="#decoration170-shape0"/>
  </g>
  <defs>
    <g id="decoration170-shape0" transform="matrix(1.0, 0.0, 0.0, 1.0, 105.9, 197.35)">
      <path d="M6.15 -138.05 L5.65 -142.5 10.05 -143.55 7.1 -140.6 7.1 -140.55 6.15 -138.05 M-5.0 -124.15 L0.45 -123.6 -3.25 -113.2 -3.5 -108.35 Q-4.95 -112.5 -8.15 -117.3 L-7.05 -116.25 -5.25 -123.8 -5.2 -123.85 -5.0 -124.15 M-0.7 -53.05 L-0.75 -52.9 Q-0.9 -52.3 8.45 -32.85 L11.3 -27.1 9.1 -26.2 Q6.2 -24.85 3.9 -23.15 L3.8 -22.6 2.7 -14.55 2.25 -11.65 1.05 -3.3 -4.5 0.0 -10.35 -2.9 -27.4 0.55 -27.0 -1.15 -9.2 -9.85 -8.9 -11.2 -8.0 -15.95 -7.3 -19.5 -3.55 -12.65 -2.95 -40.1 -0.8 -53.15 -0.7 -53.05 M44.05 1.15 L41.4 1.15 43.7 2.75 36.15 1.75 35.8 1.6 29.95 -4.45 37.1 -3.6 44.05 1.15 M13.35 1.75 L11.15 2.8 4.15 2.9 8.35 -2.25 14.95 -10.8 15.15 -11.15 12.2 -1.15 13.35 1.75 M-27.1 -73.95 Q-25.65 -76.4 -25.15 -78.9 L-21.15 -77.1 -27.1 -73.95 M-8.9 -11.2 L-10.35 -3.15 -8.9 -11.2" fill="#241b15" fill-rule="evenodd" stroke="none"/>
      <path d="M-13.5 -141.05 L-13.5 -140.95 -15.7 -140.6 -17.95 -140.45 -18.65 -138.1 -19.95 -133.65 -24.55 -145.1 -31.55 -147.8 -33.55 -149.6 -39.6 -154.75 -46.8 -159.05 -61.15 -163.55 -61.3 -163.5 -62.1 -163.65 -59.95 -166.45 -62.05 -173.65 -59.65 -174.4 Q-57.8 -169.1 -56.8 -167.7 L-48.15 -164.9 -32.25 -157.4 -28.3 -165.95 -35.25 -172.55 -34.45 -194.15 -32.65 -172.9 -21.15 -163.25 -24.2 -153.4 -13.5 -141.05 M10.05 -143.55 L5.65 -142.5 6.15 -138.05 0.45 -123.6 -5.0 -124.15 4.65 -140.9 5.2 -145.3 25.8 -159.3 10.05 -143.55 M-3.5 -108.35 L-3.95 -101.85 -3.95 -101.45 -4.05 -100.5 -10.65 -72.7 -13.0 -76.3 -6.4 -104.0 -9.1 -118.25 -5.25 -123.8 -7.05 -116.25 -8.15 -117.3 Q-4.95 -112.5 -3.5 -108.35 M31.95 -31.3 L41.8 -4.8 50.65 1.25 44.05 1.15 37.1 -3.6 Q36.15 -13.95 31.65 -26.15 L20.95 -21.05 9.5 -20.7 11.35 -21.9 14.1 -21.85 Q20.35 -22.15 25.35 -25.2 L25.65 -25.4 28.3 -27.4 28.8 -27.85 Q30.45 -29.35 31.95 -31.3 M36.15 1.75 L35.95 1.7 35.8 1.6 36.15 1.75 M24.05 2.9 L17.35 0.0 17.25 -0.05 13.35 1.75 12.2 -1.15 15.15 -11.15 14.95 -10.8 17.3 -15.8 17.4 -15.55 17.25 -15.65 24.05 2.9 M4.15 2.9 L-2.65 3.0 1.2 0.3 1.3 0.2 -3.2 0.15 -4.5 0.0 1.05 -3.3 2.25 -11.65 8.35 -2.25 4.15 2.9 M-27.0 -1.15 L-25.85 -6.45 -25.85 -6.55 -25.8 -6.75 -25.9 -6.75 -34.05 -6.4 Q-26.7 -10.95 -22.65 -17.1 L-23.25 -14.8 -23.45 -14.05 -24.05 -11.7 -24.65 -9.55 -25.8 -6.75 -24.65 -9.55 -10.95 -23.35 -7.3 -19.5 -8.0 -15.95 -8.9 -11.2 -9.2 -9.85 -27.0 -1.15 M-25.15 -78.9 L-34.1 -86.1 -19.15 -78.4 -21.15 -77.1 -25.15 -78.9 M-71.6 -165.75 L-75.1 -166.55 -82.15 -166.4 -75.15 -167.75 -73.15 -166.6 -71.6 -165.75 M-84.15 -188.0 L-73.3 -179.7 -70.8 -171.65 -72.7 -171.8 -74.9 -178.95 -84.15 -188.0 M3.85 -137.85 L-3.0 -126.1 3.85 -137.85 M-22.95 -146.2 L-18.65 -138.1 -22.95 -146.2 M-3.95 -101.85 L-4.05 -100.5 -3.95 -101.85 M-26.9 -150.7 L-32.0 -155.6 -26.9 -150.7 M-2.95 -40.1 L-8.65 -49.25 -9.7 -50.95 -9.25 -51.55 -8.65 -49.25 -9.25 -51.55 -5.15 -57.7 -0.8 -53.15 -2.95 -40.1 M5.1 -2.7 L1.3 0.2 5.1 -2.7 M17.8 -6.95 L17.35 0.0 17.8 -6.95" fill="#2e2620" fill-rule="evenodd" stroke="none"/>
      <path d="M4.95 -145.8 L5.15 -145.25 5.2 -145.3 4.65 -140.9 -5.0 -124.15 -5.2 -123.85 -5.25 -123.8 -9.1 -118.25 -6.4 -104.0 -13.0 -76.3 -10.65 -72.7 -12.2 -66.1 -5.15 -57.7 -9.25 -51.55 -9.7 -50.95 -8.65 -49.25 -2.95 -40.1 -3.55 -12.65 -7.3 -19.5 -10.95 -23.35 -21.65 -47.15 Q-22.9 -62.95 -27.15 -73.95 L-27.1 -73.95 -21.15 -77.1 -19.15 -78.4 -34.1 -86.1 -43.55 -93.7 -34.25 -89.3 -34.1 -99.05 -30.6 -86.3 -23.05 -82.35 -22.65 -84.25 -22.55 -85.0 -16.75 -108.3 Q-15.0 -111.4 -14.2 -108.9 -13.4 -106.45 -12.7 -103.35 -12.25 -104.95 -12.25 -106.45 -12.25 -108.3 -12.6 -109.6 -13.25 -111.8 -14.7 -111.8 L-15.55 -111.45 -16.85 -110.6 -17.7 -109.4 -18.65 -107.7 -16.05 -123.9 -16.05 -124.2 -16.3 -124.6 -19.95 -133.65 -18.65 -138.1 -17.95 -140.45 -15.7 -140.6 -13.5 -140.95 -13.5 -141.05 -3.85 -132.8 Q0.55 -138.15 1.6 -141.2 L0.3 -160.35 4.95 -145.8 M-14.6 -130.45 L-18.65 -138.1 -14.6 -130.45 M-34.05 -6.4 L-38.0 -6.3 -22.5 -17.9 -22.65 -17.1 Q-26.7 -10.95 -34.05 -6.4 M-62.1 -163.65 L-68.9 -165.15 Q-70.65 -166.45 -70.1 -167.55 -69.8 -168.3 -68.35 -168.95 L-63.35 -167.45 -63.8 -171.75 -69.95 -175.25 -64.45 -174.25 -64.35 -178.2 -64.15 -181.55 Q-63.25 -178.8 -62.2 -173.6 L-62.05 -173.65 -59.95 -166.45 -62.1 -163.65 M-82.15 -166.4 L-84.5 -166.3 -86.65 -167.75 -88.95 -169.25 -75.3 -169.25 -75.45 -169.8 -73.15 -166.6 -75.15 -167.75 -82.15 -166.4 M-76.0 -172.05 L-77.15 -176.75 -77.25 -176.85 -77.25 -179.85 Q-87.3 -190.15 -91.1 -193.35 L-84.15 -188.0 -74.9 -178.95 -72.7 -171.8 -76.0 -172.05 M-56.8 -167.7 L-47.2 -167.15 -33.1 -160.95 -28.3 -165.95 -32.25 -157.4 -48.15 -164.9 -56.8 -167.7 M-34.45 -194.15 L-30.35 -174.85 -20.4 -165.9 -21.15 -163.25 -32.65 -172.9 -34.45 -194.15 M-26.85 -170.0 L-31.0 -173.8 -26.85 -170.0 M-32.45 -175.35 L-32.6 -179.3 -32.45 -175.35 M-66.05 -166.1 L-70.1 -167.55 -66.05 -166.1 M-17.4 -110.05 L-17.7 -109.8 -17.65 -109.8 -17.4 -110.05 M-15.9 -106.35 Q-15.9 -104.7 -15.15 -103.2 -14.35 -101.6 -13.35 -101.65 L-12.7 -103.35 -13.35 -101.65 Q-14.35 -101.6 -15.15 -103.2 -15.9 -104.7 -15.9 -106.35 M-22.2 -81.9 L-23.05 -82.35 -22.2 -81.9 M-17.15 -80.45 L-13.7 -98.4 -17.15 -80.45 M-16.8 -78.85 L-9.25 -51.55 -16.8 -78.85 M-9.7 -33.4 L-16.8 -58.2 -9.7 -33.4 M9.5 -20.7 L20.95 -21.05 31.65 -26.15 Q36.15 -13.95 37.1 -3.6 L29.95 -4.45 21.65 -13.05 17.4 -15.55 17.3 -15.8 14.95 -10.8 8.35 -2.25 2.25 -11.65 2.7 -14.55 9.5 -20.7 M-83.5 -167.65 L-86.65 -167.75 -83.5 -167.65" fill="#413930" fill-rule="evenodd" stroke="none"/>
      <path d="M-4.05 -100.5 L-5.35 -82.35 -5.05 -77.65 -4.4 -70.8 -4.4 -70.7 4.85 -72.25 7.2 -71.55 -2.95 -66.1 -1.6 -63.7 0.45 -60.35 Q0.6 -59.6 0.0 -56.55 L-0.7 -53.05 -0.8 -53.15 -5.15 -57.7 -10.65 -72.7 -4.05 -100.5 M35.95 1.7 L26.95 0.5 28.4 4.7 26.45 3.9 21.65 -13.05 29.95 -4.45 35.8 1.6 35.95 1.7 M-70.8 -171.65 L-70.15 -169.5 Q-70.55 -168.9 -72.55 -171.25 L-72.7 -171.8 -70.8 -171.65 M11.35 -21.9 L9.5 -20.7 3.8 -22.6 3.9 -23.15 Q7.8 -22.15 11.35 -21.9" fill="#3a3210" fill-rule="evenodd" stroke="none"/>
      <path d="M26.45 3.9 L24.05 2.9 17.25 -15.65 17.4 -15.55 21.65 -13.05 26.45 3.9 M-22.5 -17.9 L-22.5 -18.0 -22.2 -20.7 Q-20.8 -35.2 -21.6 -46.05 L-21.65 -47.15 -10.95 -23.35 -24.65 -9.55 -24.05 -11.7 -23.45 -14.05 -23.25 -14.8 -22.65 -17.1 -22.5 -17.9 M-16.3 -124.6 L-18.5 -128.15 -23.3 -135.35 -31.55 -147.8 -24.55 -145.1 -19.95 -133.65 -16.3 -124.6 M-68.9 -165.15 L-71.6 -165.75 -73.15 -166.6 -75.45 -169.8 -76.0 -172.05 -72.7 -171.8 -72.55 -171.25 Q-70.55 -168.9 -70.15 -169.5 L-68.35 -168.95 Q-69.8 -168.3 -70.1 -167.55 L-71.1 -167.9 -70.1 -167.55 Q-70.65 -166.45 -68.9 -165.15 M-5.15 -57.7 L-12.2 -66.1 -10.65 -72.7 -5.15 -57.7 M3.8 -22.6 L9.5 -20.7 2.7 -14.55 3.8 -22.6" fill="#524a25" fill-rule="evenodd" stroke="none"/>
      <path d="M-22.55 -85.0 L-19.6 -102.25 -18.65 -107.7 -17.7 -109.4 -16.85 -110.6 -15.55 -111.45 -14.7 -111.8 Q-13.25 -111.8 -12.6 -109.6 -12.25 -108.3 -12.25 -106.45 -12.25 -104.95 -12.7 -103.35 -13.4 -106.45 -14.2 -108.9 -15.0 -111.4 -16.75 -108.3 L-22.55 -85.0 M-84.5 -166.3 L-92.3 -166.1 -105.65 -177.4 -91.4 -169.25 -88.95 -169.25 -86.65 -167.75 -89.0 -167.85 -86.65 -167.75 -84.5 -166.3 M-77.25 -176.85 L-95.95 -197.1 -92.7 -194.6 -91.1 -193.35 Q-87.3 -190.15 -77.25 -179.85 L-77.25 -176.85 M-17.4 -110.05 L-17.65 -109.8 -17.7 -109.8 -17.4 -110.05 M-93.35 -194.7 L-92.7 -194.6 -93.35 -194.7" fill="#665c56" fill-rule="evenodd" stroke="none"/>
      <path d="M11.3 -27.1 L12.25 -27.5 Q17.95 -29.65 25.6 -30.8 L31.85 -31.6 31.95 -31.3 Q30.45 -29.35 28.8 -27.85 L28.3 -27.4 25.35 -25.2 28.3 -27.4 25.65 -25.4 25.35 -25.2 Q20.35 -22.15 14.1 -21.85 L11.35 -21.9 Q7.8 -22.15 3.9 -23.15 6.2 -24.85 9.1 -26.2 L11.3 -27.1 M16.55 -26.15 L22.85 -27.05 Q19.45 -25.5 18.1 -25.05 L14.35 -24.95 10.35 -25.05 Q14.8 -27.4 17.8 -27.95 L28.55 -29.95 22.05 -25.0 Q20.65 -24.0 17.95 -23.6 L13.5 -23.05 10.0 -23.4 Q8.2 -23.9 7.85 -24.5 7.45 -25.1 9.1 -26.2 7.45 -25.1 7.85 -24.5 8.2 -23.9 10.0 -23.4 L13.5 -23.05 17.95 -23.6 Q20.65 -24.0 22.05 -25.0 L28.55 -29.95 17.8 -27.95 Q14.8 -27.4 10.35 -25.05 L14.35 -24.95 18.1 -25.05 Q19.45 -25.5 22.85 -27.05 L16.55 -26.15" fill="#665c52" fill-rule="evenodd" stroke="none"/>
      <path d="M4.95 -145.8 L5.15 -145.25 5.2 -145.3 4.95 -145.8 0.3 -160.35 1.6 -141.2 Q0.55 -138.15 -3.85 -132.8 L-13.5 -141.05 M6.15 -138.05 L7.1 -140.55 7.1 -140.6 10.05 -143.55 25.8 -159.3 5.2 -145.3 M0.45 -123.6 L6.15 -138.05 M0.45 -123.6 L-3.25 -113.2 -3.5 -108.35 -3.95 -101.85 -3.95 -101.45 -4.05 -100.5 -5.35 -82.35 -5.05 -77.65 -4.4 -70.8 -4.4 -70.7 4.85 -72.25 7.2 -71.55 -2.95 -66.1 -1.6 -63.7 0.45 -60.35 Q0.6 -59.6 0.0 -56.55 L-0.7 -53.05 -0.75 -52.9 Q-0.9 -52.3 8.45 -32.85 L11.3 -27.1 12.25 -27.5 Q17.95 -29.65 25.6 -30.8 L31.85 -31.6 31.95 -31.3 41.8 -4.8 50.65 1.25 44.05 1.15 41.4 1.15 43.7 2.75 36.15 1.75 35.95 1.7 26.95 0.5 28.4 4.7 26.45 3.9 24.05 2.9 17.35 0.0 17.25 -0.05 13.35 1.75 11.15 2.8 4.15 2.9 -2.65 3.0 1.2 0.3 1.3 0.2 -3.2 0.15 -4.5 0.0 -10.35 -2.9 -27.4 0.55 -27.0 -1.15 -25.85 -6.45 -25.85 -6.55 -25.85 -6.6 -25.9 -6.75 -34.05 -6.4 -38.0 -6.3 -22.5 -17.9 -22.5 -18.0 -22.2 -20.7 Q-20.8 -35.2 -21.6 -46.05 L-21.65 -47.15 Q-22.9 -62.95 -27.15 -73.95 L-27.1 -73.95 Q-25.65 -76.4 -25.15 -78.9 L-34.1 -86.1 -43.55 -93.7 -34.25 -89.3 -34.1 -99.05 -30.6 -86.3 -23.05 -82.35 -22.65 -84.25 -22.55 -85.0 -19.6 -102.25 -18.65 -107.7 -16.05 -123.9 -16.05 -124.2 -16.3 -124.6 -18.5 -128.15 M-23.3 -135.35 L-31.55 -147.8 -33.55 -149.6 -39.6 -154.75 -46.8 -159.05 -61.15 -163.55 -61.3 -163.5 -62.1 -163.65 -68.9 -165.15 -71.6 -165.75 -75.1 -166.55 -82.15 -166.4 -84.5 -166.3 -92.3 -166.1 -105.65 -177.4 -91.4 -169.25 -88.95 -169.25 -75.3 -169.25 -75.45 -169.8 -76.0 -172.05 -77.15 -176.75 -77.25 -176.85 -95.95 -197.1 -92.7 -194.6 -91.1 -193.35 -84.15 -188.0 -73.3 -179.7 -70.8 -171.65 -70.15 -169.5 -68.35 -168.95 -63.35 -167.45 -63.8 -171.75 -69.95 -175.25 -64.45 -174.25 -64.35 -178.2 -64.15 -181.55 Q-63.25 -178.8 -62.2 -173.6 L-62.05 -173.65 -59.65 -174.4 Q-57.8 -169.1 -56.8 -167.7 L-47.2 -167.15 -33.1 -160.95 -28.3 -165.95 -35.25 -172.55 -34.45 -194.15 -30.35 -174.85 -20.4 -165.9 -21.15 -163.25 -24.2 -153.4 -13.5 -141.05 M-4.05 -100.5 L-3.95 -101.85 M-23.05 -82.35 L-22.2 -81.9 M-25.8 -6.75 L-25.85 -6.55 M-25.9 -6.75 L-25.8 -6.75 M-24.05 -11.7 L-23.45 -14.05 -23.25 -14.8 -22.65 -17.1 M-22.5 -17.9 L-22.65 -17.1 M9.1 -26.2 Q7.45 -25.1 7.85 -24.5 8.2 -23.9 10.0 -23.4 L13.5 -23.05 17.95 -23.6 Q20.65 -24.0 22.05 -25.0 L28.55 -29.95 17.8 -27.95 Q14.8 -27.4 10.35 -25.05 L14.35 -24.95 18.1 -25.05 Q19.45 -25.5 22.85 -27.05 L16.55 -26.15 M11.35 -21.9 L14.1 -21.85 Q20.35 -22.15 25.35 -25.2 L28.3 -27.4 28.8 -27.85 Q30.45 -29.35 31.95 -31.3 M3.9 -23.15 Q6.2 -24.85 9.1 -26.2 L11.3 -27.1 M11.35 -21.9 Q7.8 -22.15 3.9 -23.15 L3.8 -22.6 M2.7 -14.55 L2.25 -11.65 1.05 -3.3 -4.5 0.0 M2.7 -14.55 L3.8 -22.6 M25.35 -25.2 L25.65 -25.4 28.3 -27.4 M-92.7 -194.6 L-93.35 -194.7 M1.3 0.2 L5.1 -2.7" fill="none" stroke="#000000" stroke-linecap="round" stroke-linejoin="round" stroke-opacity="0.4" stroke-width="0.5"/>
      <path d="M-18.65 -138.1 L-14.6 -130.45 M-3.0 -126.1 L3.85 -137.85 M-31.0 -173.8 L-26.85 -170.0 M-32.6 -179.3 L-32.45 -175.35 M-70.1 -167.55 L-66.05 -166.1 M-70.1 -167.55 L-71.1 -167.9 M-18.65 -138.1 L-22.95 -146.2 M-32.0 -155.6 L-26.9 -150.7 M-13.7 -98.4 L-17.15 -80.45 M-9.25 -51.55 L-16.8 -78.85 M-9.25 -51.55 L-8.65 -49.25 M-25.8 -6.75 L-24.65 -9.55 M-8.9 -11.2 L-8.0 -15.95 M-16.8 -58.2 L-9.7 -33.4 M-86.65 -167.75 L-89.0 -167.85 M-86.65 -167.75 L-83.5 -167.65 M17.35 0.0 L17.8 -6.95 M-10.35 -3.15 L-8.9 -11.2" fill="none" stroke="#000000" stroke-linecap="round" stroke-linejoin="round" stroke-opacity="0.4" stroke-width="0.1"/>
      <path d="M-18.65 -107.7 L-17.7 -109.4 -16.85 -110.6 -15.55 -111.45 -14.7 -111.8 Q-13.25 -111.8 -12.6 -109.6 -12.25 -108.3 -12.25 -106.45 -12.25 -104.95 -12.7 -103.35 L-13.35 -101.65 Q-14.35 -101.6 -15.15 -103.2 -15.9 -104.7 -15.9 -106.35" fill="none" stroke="#000000" stroke-linecap="round" stroke-linejoin="round" stroke-opacity="0.4" stroke-width="0.30000000000000004"/>
    </g>
  </defs>
</svg>
