<?xml version="1.0" encoding="UTF-8" standalone="no"?>
<svg xmlns:xlink="http://www.w3.org/1999/xlink" height="176.9px" width="75.45px" xmlns="http://www.w3.org/2000/svg">
  <g transform="matrix(1.0, 0.0, 0.0, 1.0, 42.4, 174.7)">
    <use height="176.9" transform="matrix(1.0, 0.0, 0.0, 1.0, -42.4, -174.7)" width="75.45" xlink:href="#decoration171-shape0"/>
  </g>
  <defs>
    <g id="decoration171-shape0" transform="matrix(1.0, 0.0, 0.0, 1.0, 42.4, 174.7)">
      <path d="M17.9 -152.8 L16.25 -146.2 11.55 -133.15 11.6 -133.15 11.3 -132.75 Q9.65 -136.3 8.85 -136.05 7.7 -135.6 6.85 -134.8 L6.3 -134.05 11.0 -145.5 10.95 -145.5 11.05 -145.6 11.55 -146.75 Q14.7 -147.7 17.9 -152.8 M10.05 -125.75 L8.4 -120.45 12.2 -111.2 Q2.35 -76.6 3.9 -68.0 L6.35 -52.65 Q8.05 -49.4 9.9 -46.85 L3.3 -32.5 -2.15 -46.45 1.7 -52.3 -5.0 -70.8 Q-0.7 -85.1 2.0 -101.6 L2.05 -101.65 5.55 -105.15 -13.35 -114.55 -17.85 -124.75 -19.5 -125.1 -19.65 -125.0 -19.85 -124.65 -20.0 -125.15 -28.75 -127.05 -28.85 -127.15 -30.9 -129.55 Q-30.0 -129.7 -29.25 -130.0 -28.5 -130.25 -27.8 -130.6 L-27.1 -130.15 -27.0 -130.1 -26.95 -130.1 -21.3 -129.25 -27.4 -146.75 -12.25 -118.0 -2.7 -114.85 -2.2 -117.25 Q-1.05 -117.9 3.5 -119.15 L4.55 -119.65 11.3 -129.65 11.25 -129.55 10.05 -125.75 M-13.0 -17.05 L-12.45 -32.1 -12.45 -32.15 -12.4 -33.55 Q-12.25 -40.35 -12.45 -43.4 -5.45 -39.35 3.1 -32.45 L-1.85 -32.8 -1.85 -17.35 -10.5 -7.6 -7.25 -13.1 -7.25 -24.65 -8.4 -33.25 -13.0 -17.05 M-5.9 -100.5 L-4.95 -103.3 -2.95 -102.85 1.65 -101.8 -3.5 -100.9 -5.9 -100.5 M-0.95 -122.85 L-4.3 -140.4 -0.7 -153.5 -9.45 -173.15 -3.5 -164.85 2.5 -174.45 -2.05 -162.8 2.95 -155.1 0.95 -141.85 Q0.05 -138.5 3.5 -131.0 L3.5 -130.9 1.85 -127.25 1.85 -127.15 1.6 -126.75 -0.95 -122.85 M11.0 -145.5 L11.05 -145.6 11.0 -145.5 M-1.15 -142.15 L0.5 -147.95 -1.15 -142.15 M-2.95 -140.7 L-2.25 -143.25 -2.95 -140.7 M0.25 -114.25 L-2.7 -114.85 0.25 -114.25" fill="#2e2620" fill-rule="evenodd" stroke="none"/>
      <path d="M11.6 -133.15 L21.1 -133.15 25.6 -134.5 32.8 -143.05 29.25 -135.95 24.65 -131.45 11.25 -129.55 11.3 -129.65 4.55 -119.65 3.5 -119.15 Q-1.05 -117.9 -2.2 -117.25 L-0.95 -122.85 1.6 -126.75 1.85 -127.15 1.75 -121.25 8.0 -130.75 6.85 -134.8 Q7.7 -135.6 8.85 -136.05 9.65 -136.3 11.3 -132.75 L11.6 -133.15 M-12.45 -43.4 L-12.45 -43.45 -18.9 -48.75 -12.95 -48.4 -20.85 -54.5 -20.85 -54.55 -21.1 -56.95 -29.55 -63.95 -21.35 -59.85 -22.3 -69.6 -18.5 -56.05 -18.5 -56.0 -12.6 -51.8 -9.3 -58.15 -17.05 -72.0 -11.45 -77.25 -3.5 -100.9 1.65 -101.8 2.05 -101.65 1.65 -101.8 -2.95 -102.85 -4.95 -103.3 -5.4 -103.75 -15.0 -114.8 -19.65 -125.0 -19.5 -125.1 -17.85 -124.75 -13.35 -114.55 5.55 -105.15 2.05 -101.65 2.0 -101.6 Q-0.7 -85.1 -5.0 -70.8 L1.7 -52.3 -2.15 -46.45 3.3 -32.5 3.3 -32.45 3.1 -32.45 Q-5.45 -39.35 -12.45 -43.4 M11.55 -146.75 L20.6 -168.9 Q20.5 -163.5 17.9 -152.8 14.7 -147.7 11.55 -146.75 M16.15 -153.9 L17.8 -158.7 16.15 -153.9 M-7.95 -63.5 L-10.45 -74.0 -7.95 -63.5 M-5.65 -85.5 L-1.6 -98.5 -5.65 -85.5 M-10.75 -75.25 L-4.75 -92.8 -10.75 -75.25 M-6.75 -42.75 L-12.95 -48.4 -6.75 -42.75 M6.65 -125.15 L9.0 -133.1 6.65 -125.15" fill="#413930" fill-rule="evenodd" stroke="none"/>
      <path d="M-12.6 -51.8 Q-13.55 -55.7 -13.85 -61.1 -14.55 -64.25 -17.15 -71.4 L-17.15 -72.25 -17.05 -72.0 -9.3 -58.15 -12.6 -51.8 M-30.9 -129.55 L-31.0 -129.65 -42.15 -134.1 -33.8 -132.5 -39.85 -139.05 -27.8 -130.6 Q-28.5 -130.25 -29.25 -130.0 -30.0 -129.7 -30.9 -129.55 M3.5 -130.9 L4.3 -129.3 6.3 -134.05 6.85 -134.8 8.0 -130.75 1.75 -121.25 1.85 -127.15 1.85 -127.25 3.5 -130.9" fill="#524a25" fill-rule="evenodd" stroke="none"/>
      <path d="M-17.15 -72.25 Q-16.95 -73.65 -15.1 -76.05 -12.65 -79.35 -11.4 -82.35 -9.7 -89.45 -5.9 -100.5 L-3.5 -100.9 -11.45 -77.25 -17.05 -72.0 -17.15 -72.25 M-5.4 -103.75 L-16.1 -113.85 -19.85 -124.65 -19.65 -125.0 -15.0 -114.8 -5.4 -103.75" fill="#665c56" fill-rule="evenodd" stroke="none"/>
      <path d="M29.25 -135.95 L28.25 -133.95 26.25 -130.0 10.05 -125.75 11.25 -129.55 24.65 -131.45 29.25 -135.95 M9.9 -46.85 Q11.7 -44.4 13.7 -42.6 L13.85 -42.45 13.85 -42.4 13.8 -42.15 Q12.15 -35.2 10.8 -32.55 L20.15 -32.65 11.65 -29.35 Q14.7 -18.75 16.5 -15.15 10.8 -20.2 5.1 -28.55 12.2 -9.7 6.15 1.85 L-2.75 -0.05 -12.05 1.3 -13.8 -2.05 -24.9 -4.15 -13.0 -17.05 -8.4 -33.25 -7.25 -24.65 -7.25 -13.1 -10.5 -7.6 -1.85 -17.35 -1.85 -32.8 3.1 -32.45 3.3 -32.45 3.3 -32.5 9.9 -46.85 M-13.8 -2.05 L-10.5 -7.6 -13.8 -2.05" fill="#241b15" fill-rule="evenodd" stroke="none"/>
      <path d="M16.5 -15.15 L16.9 -14.45 16.95 -14.35 26.7 -2.35 16.05 -1.9 6.55 1.95 6.15 1.85 Q12.2 -9.7 5.1 -28.55 10.8 -20.2 16.5 -15.15 M10.8 -17.25 L16.05 -1.9 10.8 -17.25" fill="#3a3210" fill-rule="evenodd" stroke="none"/>
      <path d="M17.9 -152.8 L16.25 -146.2 11.55 -133.15 11.6 -133.15 21.1 -133.15 25.6 -134.5 32.8 -143.05 M28.25 -133.95 L26.25 -130.0 10.05 -125.75 8.4 -120.45 12.2 -111.2 Q2.35 -76.6 3.9 -68.0 L6.35 -52.65 Q8.05 -49.4 9.9 -46.85 11.7 -44.4 13.7 -42.6 L13.85 -42.45 13.85 -42.4 13.8 -42.15 Q12.15 -35.2 10.8 -32.55 L20.15 -32.65 11.65 -29.35 Q14.7 -18.75 16.5 -15.15 L16.9 -14.45 16.95 -14.35 26.7 -2.35 16.05 -1.9 6.55 1.95 6.15 1.85 -2.75 -0.05 -12.05 1.3 -13.8 -2.05 -24.9 -4.15 -13.0 -17.05 -12.45 -32.1 -12.45 -32.15 -12.4 -33.55 Q-12.25 -40.35 -12.45 -43.4 L-12.45 -43.45 -18.9 -48.75 -12.95 -48.4 -20.85 -54.5 -20.85 -54.55 -21.1 -56.95 -29.55 -63.95 -21.35 -59.85 -22.3 -69.6 -18.5 -56.05 -18.5 -56.0 -12.6 -51.8 Q-13.55 -55.7 -13.85 -61.1 -14.55 -64.25 -17.15 -71.4 L-17.15 -72.25 Q-16.95 -73.65 -15.1 -76.05 -12.65 -79.35 -11.4 -82.35 -9.7 -89.45 -5.9 -100.5 L-4.95 -103.3 -5.4 -103.75 -16.1 -113.85 -19.85 -124.65 -20.0 -125.15 -28.75 -127.05 -28.85 -127.15 -30.9 -129.55 -31.0 -129.65 -42.15 -134.1 -33.8 -132.5 -39.85 -139.05 -27.8 -130.6 -27.1 -130.15 -27.0 -130.1 -26.95 -130.1 -21.3 -129.25 -27.4 -146.75 -12.25 -118.0 -2.7 -114.85 -2.2 -117.25 -0.95 -122.85 -4.3 -140.4 -0.7 -153.5 -9.45 -173.15 -3.5 -164.85 2.5 -174.45 -2.05 -162.8 2.95 -155.1 0.95 -141.85 Q0.05 -138.5 3.5 -131.0 L3.5 -130.9 4.3 -129.3 6.3 -134.05 11.0 -145.5 10.95 -145.5 11.05 -145.6 11.55 -146.75 20.6 -168.9 Q20.5 -163.5 17.9 -152.8 M11.05 -145.6 L11.0 -145.5 M-2.7 -114.85 L0.25 -114.25 M1.6 -126.75 L-0.95 -122.85 M2.05 -101.65 L1.65 -101.8 -2.95 -102.85 -4.95 -103.3 M11.25 -129.55 L11.3 -129.65 M10.05 -125.75 L11.25 -129.55" fill="none" stroke="#000000" stroke-linecap="round" stroke-linejoin="round" stroke-opacity="0.4" stroke-width="0.5"/>
      <path d="M17.8 -158.7 L16.15 -153.9 M-2.25 -143.25 L-2.95 -140.7 M0.5 -147.95 L-1.15 -142.15 M-10.45 -74.0 L-7.95 -63.5 M-12.95 -48.4 L-6.75 -42.75 M-4.75 -92.8 L-10.75 -75.25 M-1.6 -98.5 L-5.65 -85.5 M9.0 -133.1 L6.65 -125.15 M16.05 -1.9 L10.8 -17.25 M-10.5 -7.6 L-13.8 -2.05 M-10.5 -7.6 L-7.25 -13.1 -7.25 -24.65" fill="none" stroke="#000000" stroke-linecap="round" stroke-linejoin="round" stroke-opacity="0.4" stroke-width="0.1"/>
    </g>
  </defs>
</svg>
