<?xml version="1.0" encoding="UTF-8" standalone="no"?>
<svg xmlns:xlink="http://www.w3.org/1999/xlink" height="202.35px" width="234.95px" xmlns="http://www.w3.org/2000/svg">
  <g transform="matrix(1.0, 0.0, 0.0, 1.0, 107.9, 196.7)">
    <use height="202.35" transform="matrix(1.0, 0.0, 0.0, 1.0, -107.9, -196.7)" width="234.95" xlink:href="#decoration172-shape0"/>
  </g>
  <defs>
    <g id="decoration172-shape0" transform="matrix(1.0, 0.0, 0.0, 1.0, 107.9, 196.7)">
      <path d="M-16.55 -193.95 L-14.95 -192.7 Q-11.15 -189.45 -1.1 -179.2 L-1.1 -176.15 -17.4 -193.85 -16.55 -193.95 -17.4 -193.85 -19.8 -196.45 -16.55 -193.95 M53.6 -84.35 L56.55 -101.55 57.5 -107.05 58.45 -108.75 59.3 -109.95 60.55 -110.8 61.45 -111.1 Q62.9 -111.1 63.5 -108.95 63.85 -107.65 63.85 -105.8 L63.4 -102.7 61.95 -108.25 Q61.1 -110.7 59.4 -107.65 L53.6 -84.35 M-82.7 -73.1 Q-82.45 -74.45 -80.65 -76.85 -78.15 -80.15 -76.95 -83.2 -75.2 -90.3 -71.4 -101.35 L-69.0 -101.75 -77.0 -78.1 -82.55 -72.85 -82.7 -73.1 M-70.9 -104.55 L-81.65 -114.7 -85.35 -125.45 -85.15 -125.85 -80.5 -115.65 -70.9 -104.55 M-8.35 -165.6 L-16.2 -165.45 -29.55 -176.75 -15.3 -168.6 -12.85 -168.6 -10.55 -167.05 -8.35 -165.6 M-12.9 -167.15 L-10.55 -167.05 -12.9 -167.15 M58.45 -109.15 L58.7 -109.3 58.5 -109.15 58.45 -109.15" fill="#665c56" fill-rule="evenodd" stroke="none"/>
      <path d="M-8.0 -187.35 L2.8 -179.0 5.3 -171.0 3.45 -171.15 1.25 -178.3 -8.0 -187.35 M14.1 -173.0 L16.5 -173.7 Q18.35 -168.45 19.35 -167.0 L19.9 -167.0 28.1 -166.6 29.05 -166.55 29.0 -166.5 30.1 -166.6 14.8 -162.8 14.05 -163.0 16.15 -165.8 14.1 -173.0 M40.25 -161.6 L43.0 -160.3 43.05 -160.25 47.85 -165.3 40.9 -171.85 41.7 -193.5 45.75 -174.15 55.7 -165.2 51.9 -152.7 62.6 -140.35 62.65 -140.25 62.85 -139.8 58.15 -139.8 57.5 -137.4 56.2 -133.0 51.55 -144.45 44.6 -147.15 Q43.85 -147.65 42.6 -148.9 L42.4 -149.7 Q41.35 -154.75 40.25 -161.6 M81.35 -144.6 L101.95 -158.65 86.2 -142.9 81.8 -141.8 82.3 -137.4 76.6 -122.95 71.1 -123.5 80.8 -140.25 81.35 -144.6 M72.6 -107.7 L72.15 -101.15 72.15 -100.75 72.05 -99.85 65.45 -72.0 63.15 -75.65 69.7 -103.35 67.05 -117.6 67.15 -117.5 67.65 -116.95 68.0 -116.65 68.05 -116.6 Q71.15 -111.85 72.6 -107.7 M108.1 -30.65 L117.9 -4.15 126.8 1.9 120.2 1.8 113.2 -2.95 Q112.3 -13.25 107.8 -25.5 L97.1 -20.4 85.65 -20.0 87.5 -21.25 90.2 -21.2 Q96.45 -21.45 101.5 -24.55 L101.65 -24.65 101.7 -24.65 101.75 -24.7 Q103.15 -25.65 104.45 -26.7 L104.9 -27.15 Q106.6 -28.7 108.1 -30.65 M112.25 2.45 L112.1 2.4 111.95 2.25 112.25 2.45 M100.15 3.55 L93.45 0.65 93.4 0.65 89.5 2.45 88.3 -0.45 91.3 -10.45 91.05 -10.15 93.45 -15.15 93.5 -14.9 93.4 -15.0 100.15 3.55 M80.25 3.55 L73.45 3.65 77.3 0.95 77.4 0.85 72.9 0.8 71.6 0.65 77.2 -2.65 78.4 -11.0 84.45 -1.6 80.25 3.55 M49.1 -0.45 L50.3 -5.8 50.3 -5.9 50.35 -6.05 51.45 -8.9 50.35 -6.05 50.25 -6.05 42.05 -5.75 Q49.45 -10.3 53.45 -16.45 L52.85 -14.15 52.7 -13.35 52.05 -11.05 51.45 -8.9 65.2 -22.7 68.85 -18.85 68.15 -15.25 67.1 -9.8 66.95 -9.2 49.1 -0.45 M50.95 -78.2 L42.0 -85.4 57.0 -77.7 55.0 -76.4 50.95 -78.2 M-55.5 -126.55 L-57.1 -121.25 -53.3 -112.05 Q-63.2 -77.45 -61.65 -68.85 L-59.15 -53.45 -55.6 -47.65 -62.25 -33.3 -70.45 -47.25 -67.5 -53.35 -72.75 -71.65 -63.55 -102.45 -63.5 -102.5 -59.95 -105.95 -78.9 -115.4 -83.35 -125.55 -85.05 -125.95 -85.15 -125.85 -85.35 -125.45 -85.55 -125.95 -94.25 -127.85 -94.35 -127.95 -96.4 -130.35 -94.75 -130.8 -93.3 -131.45 -92.65 -131.0 -92.5 -130.95 -92.45 -130.95 -86.8 -130.1 -92.9 -147.55 -77.75 -118.8 -68.25 -115.7 -67.7 -118.1 Q-66.55 -118.75 -62.05 -120.0 L-60.95 -120.5 -54.2 -130.5 -54.25 -130.4 -55.5 -126.55 M-77.95 -34.4 Q-77.8 -41.2 -78.0 -44.25 -70.95 -40.2 -62.4 -33.3 L-77.95 -34.4 M-71.4 -101.35 L-70.45 -104.15 -68.45 -103.7 -63.85 -102.6 -69.0 -101.75 -71.4 -101.35 M-66.5 -123.65 L-69.85 -141.2 -66.2 -154.35 -75.0 -174.0 -69.0 -165.65 -63.05 -175.25 -67.55 -163.65 -62.6 -155.95 -64.6 -142.65 Q-65.5 -139.3 -62.0 -131.8 L-62.0 -131.7 -63.65 -128.1 -63.65 -128.0 -63.9 -127.6 -66.5 -123.65 M-54.6 -146.35 L-54.5 -146.45 -54.0 -147.6 Q-50.8 -148.55 -47.6 -153.65 L-49.3 -147.0 -49.05 -147.0 -54.6 -146.35 M4.55 -165.1 L1.0 -165.9 -6.0 -165.7 0.95 -167.05 3.0 -165.95 4.55 -165.1 M43.7 -174.65 L43.5 -178.65 43.7 -174.65 M53.2 -145.5 L57.5 -137.4 53.2 -145.5 M-66.65 -143.0 L-65.05 -148.8 -66.65 -143.0 M-68.45 -141.55 L-67.75 -144.05 -68.45 -141.55 M-65.25 -115.05 L-68.25 -115.7 -65.25 -115.05 M49.3 -169.35 L45.15 -173.15 49.3 -169.35 M72.15 -101.15 L72.05 -99.85 72.15 -101.15 M80.0 -137.2 L73.1 -125.45 80.0 -137.2 M73.2 -39.45 L67.5 -48.55 66.4 -50.3 66.85 -50.9 67.5 -48.55 66.85 -50.9 71.0 -57.05 75.3 -52.45 73.2 -39.45 M81.2 -2.05 L77.4 0.85 81.2 -2.05 M93.95 -6.3 L93.45 0.65 93.95 -6.3 M49.2 -150.05 L44.15 -154.95 49.2 -150.05" fill="#2e2620" fill-rule="evenodd" stroke="none"/>
      <path d="M30.1 -166.6 L29.0 -166.5 29.05 -166.55 29.5 -166.6 30.1 -166.6" fill="url(#decoration172-gradient0)" fill-rule="evenodd" stroke="none"/>
      <path d="M29.5 -166.6 L33.35 -167.0 33.5 -166.6 33.75 -164.8 29.35 -158.4 Q18.9 -144.5 0.6 -135.2 -3.35 -133.25 -7.6 -131.5 L-8.4 -131.55 -18.3 -132.2 -19.75 -132.35 -20.3 -132.4 -34.25 -134.25 -37.3 -134.8 -36.3 -136.8 -32.7 -143.9 Q-28.0 -137.4 -19.4 -137.1 -30.1 -135.45 -20.2 -134.75 L-15.5 -134.45 -13.95 -134.35 -13.4 -134.3 -7.8 -134.45 0.9 -138.35 Q8.3 -141.7 -0.55 -140.15 L-6.7 -139.05 Q-4.45 -139.5 -2.65 -141.7 L-1.1 -142.65 0.35 -142.2 Q1.5 -141.75 3.85 -142.15 L6.4 -144.05 9.05 -146.55 15.5 -153.55 Q20.55 -158.8 15.1 -157.05 L4.4 -153.65 Q-3.55 -151.05 -3.8 -150.75 -4.15 -151.3 -5.4 -151.7 L-8.25 -152.2 -4.05 -153.6 2.5 -156.45 Q9.7 -159.65 13.05 -161.6 L15.0 -162.75 14.8 -162.8 30.1 -166.6 29.5 -166.6 M36.55 -163.1 L39.95 -163.65 40.25 -161.6 Q41.35 -154.75 42.4 -149.7 L42.6 -148.9 Q43.6 -144.85 46.65 -140.1 50.05 -134.7 52.85 -134.65 L57.65 -127.45 Q54.0 -124.35 49.45 -123.55 42.05 -123.85 39.0 -130.35 L40.85 -133.9 Q41.6 -135.95 41.55 -140.8 41.5 -145.7 36.55 -154.2 L36.55 -163.1 M62.6 -140.35 Q62.4 -140.7 66.85 -137.85 71.7 -134.7 72.3 -132.15 72.25 -131.2 71.65 -129.55 71.05 -127.85 70.95 -123.9 L70.95 -123.15 70.9 -123.1 Q72.75 -118.65 74.1 -116.6 75.3 -115.55 78.3 -114.45 81.3 -113.25 83.2 -115.7 85.1 -118.15 87.85 -117.1 90.6 -116.15 96.65 -116.2 102.7 -116.25 109.4 -107.5 102.25 -113.75 98.35 -113.25 96.4 -113.05 92.4 -113.15 L87.75 -113.55 Q86.5 -114.1 83.15 -110.0 81.2 -109.85 77.1 -111.1 L72.9 -112.55 Q70.3 -114.4 68.05 -116.6 70.5 -114.45 70.0 -117.45 69.35 -121.05 69.2 -124.05 69.1 -127.1 66.45 -131.8 64.0 -136.1 64.1 -133.25 L63.35 -137.55 62.85 -139.8 62.65 -140.25 62.6 -140.35 M-43.6 -129.95 Q-41.4 -127.8 -38.95 -127.55 L-34.55 -127.8 Q-31.3 -128.1 -29.85 -128.6 -26.9 -129.7 -24.55 -129.7 -22.0 -129.7 -20.45 -128.35 -19.75 -127.85 -18.15 -125.45 -15.25 -121.3 -9.2 -121.3 -5.1 -121.3 1.9 -122.65 3.45 -122.7 -0.85 -121.2 L-6.6 -119.4 Q-8.3 -119.05 -12.75 -119.4 -17.45 -119.75 -18.25 -120.65 L-21.4 -123.75 -24.4 -126.2 Q-25.75 -126.75 -30.5 -125.3 -25.25 -124.55 -25.35 -123.05 L-25.65 -120.55 Q-25.95 -118.85 -26.6 -117.45 -27.3 -116.1 -20.45 -107.1 -22.15 -107.9 -26.0 -112.3 L-30.25 -116.95 Q-30.6 -117.25 -30.15 -118.95 -29.7 -120.7 -30.05 -121.2 -31.25 -122.95 -34.05 -122.95 L-40.3 -122.75 -42.0 -123.05 -43.05 -124.7 Q-43.6 -125.9 -44.85 -126.35 L-46.8 -126.15 -48.8 -128.5 -43.6 -129.95 M-57.0 -140.25 L-57.85 -143.95 -57.8 -144.0 Q-55.5 -139.85 -47.45 -138.5 L-41.2 -138.65 Q-37.45 -139.5 -33.45 -143.25 -35.1 -141.25 -33.85 -142.6 L-39.9 -135.35 -44.5 -136.5 -45.95 -136.9 -47.5 -137.35 -47.65 -137.4 -49.6 -137.95 -52.2 -138.75 -49.6 -137.95 -47.65 -137.4 -47.3 -136.75 -45.5 -134.0 -51.3 -134.0 -53.0 -136.6 -52.2 -138.75 -57.0 -140.25 M10.25 -144.0 Q14.05 -144.95 15.1 -146.45 L14.65 -148.25 9.75 -145.25 Q6.45 -143.05 10.25 -144.0 M-30.1 -137.5 L-31.95 -137.85 -31.5 -137.0 Q-30.9 -136.2 -30.4 -136.2 -29.3 -136.2 -27.65 -136.9 L-30.1 -137.5 M44.0 -127.6 Q46.6 -125.6 49.3 -125.6 49.9 -125.6 53.5 -127.1 L50.45 -128.0 47.15 -128.55 Q45.75 -129.15 44.65 -130.3 43.4 -131.75 41.25 -132.6 40.95 -129.9 44.0 -127.6" fill="#2b1214" fill-rule="evenodd" stroke="none"/>
      <path d="M-1.1 -176.15 L-1.1 -179.2 Q-11.15 -189.45 -14.95 -192.7 L-8.0 -187.35 1.25 -178.3 3.45 -171.15 0.15 -171.35 -1.05 -176.05 -1.1 -176.15 M7.8 -168.3 L12.75 -166.8 12.3 -171.1 6.15 -174.6 11.7 -173.6 11.8 -177.5 11.95 -180.85 Q12.85 -178.15 13.95 -172.95 L14.1 -173.0 16.15 -165.8 14.05 -163.0 7.25 -164.5 Q5.5 -165.8 6.05 -166.9 6.35 -167.65 7.8 -168.3 M72.3 -132.15 Q76.7 -137.45 77.7 -140.55 L76.4 -159.7 81.05 -145.1 81.25 -144.55 81.35 -144.6 80.8 -140.25 71.1 -123.5 70.95 -123.15 70.95 -123.9 Q71.05 -127.85 71.65 -129.55 72.25 -131.2 72.3 -132.15 M42.05 -5.75 L38.1 -5.6 53.65 -17.25 53.45 -16.45 Q49.45 -10.3 42.05 -5.75 M54.45 -46.5 Q53.25 -62.3 49.0 -73.3 L49.05 -73.3 55.0 -76.4 57.0 -77.7 42.0 -85.4 32.6 -93.0 41.85 -88.65 42.0 -98.4 45.55 -85.65 53.05 -81.7 53.45 -83.6 53.6 -84.35 59.4 -107.65 Q61.1 -110.7 61.95 -108.25 L63.4 -102.7 63.85 -105.8 Q63.85 -107.65 63.5 -108.95 62.9 -111.1 61.45 -111.1 L60.55 -110.8 59.3 -109.95 58.45 -108.75 57.5 -107.05 60.05 -123.25 60.05 -123.55 59.85 -123.95 56.2 -133.0 57.5 -137.4 58.15 -139.8 62.85 -139.8 63.35 -137.55 64.1 -133.25 64.15 -132.65 64.15 -132.6 64.3 -126.35 Q64.4 -120.5 67.0 -117.7 L67.05 -117.6 69.7 -103.35 63.15 -75.65 65.45 -72.0 63.9 -65.45 71.0 -57.05 66.85 -50.9 66.4 -50.3 67.5 -48.55 73.2 -39.45 72.55 -12.0 68.85 -18.85 65.2 -22.7 54.45 -46.5 M-78.0 -44.25 L-84.4 -49.55 -78.5 -49.25 -86.35 -55.3 -86.4 -55.35 -86.4 -55.4 -86.6 -57.75 -95.1 -64.8 -86.9 -60.7 -87.85 -70.45 -84.05 -56.9 -84.05 -56.8 -78.1 -52.65 -74.8 -59.0 -82.55 -72.85 -77.0 -78.1 -69.0 -101.75 -63.85 -102.6 -68.45 -103.7 -70.45 -104.15 -70.9 -104.55 -80.5 -115.65 -85.15 -125.85 -85.05 -125.95 -83.35 -125.55 -78.9 -115.4 -59.95 -105.95 -63.5 -102.5 -63.55 -102.45 -72.75 -71.65 -67.5 -53.35 -70.45 -47.25 -62.25 -33.3 -62.4 -33.3 Q-70.95 -40.2 -78.0 -44.25 M-67.7 -118.1 L-66.5 -123.65 -63.9 -127.6 -63.65 -128.0 -63.75 -122.1 -57.5 -131.6 -58.65 -135.65 Q-57.85 -136.45 -56.65 -136.9 -55.9 -137.15 -54.2 -133.55 L-53.9 -134.0 -51.3 -134.0 -45.5 -134.0 -44.45 -134.0 -39.9 -135.35 -33.85 -142.6 -32.7 -143.9 -36.3 -136.8 -40.85 -132.3 -54.25 -130.4 -54.2 -130.5 -60.95 -120.5 -62.05 -120.0 Q-66.55 -118.75 -67.7 -118.1 M-54.0 -147.6 L-44.95 -169.75 Q-45.05 -164.35 -47.6 -153.65 -50.8 -148.55 -54.0 -147.6 M-6.0 -165.7 L-8.35 -165.6 -10.55 -167.05 -12.85 -168.6 0.8 -168.6 0.7 -169.15 3.0 -165.95 0.95 -167.05 -6.0 -165.7 M10.1 -165.45 L6.05 -166.9 10.1 -165.45 M-7.35 -167.0 L-10.55 -167.05 -7.35 -167.0 M-49.35 -154.75 L-47.75 -159.55 -49.35 -154.75 M-63.85 -102.6 L-63.5 -102.5 -63.85 -102.6 M-58.9 -125.95 L-56.5 -133.95 -58.9 -125.95 M-73.45 -64.3 L-76.0 -74.85 -73.45 -64.3 M-72.25 -43.6 L-78.5 -49.25 -72.25 -43.6 M-71.2 -86.3 L-67.1 -99.35 -71.2 -86.3 M-76.25 -76.1 L-70.3 -93.65 -76.25 -76.1 M61.5 -129.75 L57.5 -137.4 61.5 -129.75 M60.25 -105.7 Q60.25 -104.0 61.0 -102.5 61.8 -100.95 62.8 -101.0 L63.4 -102.7 62.8 -101.0 Q61.8 -100.95 61.0 -102.5 60.25 -104.0 60.25 -105.7 M58.45 -109.15 L58.5 -109.15 58.7 -109.3 58.45 -109.15 M53.9 -81.25 L53.05 -81.7 53.9 -81.25 M59.35 -78.15 L66.85 -50.9 59.35 -78.15 M78.4 -11.0 L78.8 -13.9 85.65 -20.0 97.1 -20.4 107.8 -25.5 Q112.3 -13.25 113.2 -2.95 L106.1 -3.75 97.75 -12.35 93.5 -14.9 93.45 -15.15 91.05 -10.15 84.45 -1.6 78.4 -11.0 M66.4 -32.75 L59.35 -57.55 66.4 -32.75 M59.0 -79.8 L62.4 -97.75 59.0 -79.8" fill="#413930" fill-rule="evenodd" stroke="none"/>
      <path d="M6.0 -168.85 L7.8 -168.3 Q6.35 -167.65 6.05 -166.9 L5.05 -167.25 6.05 -166.9 Q5.5 -165.8 7.25 -164.5 L4.55 -165.1 3.0 -165.95 0.7 -169.15 0.15 -171.35 3.45 -171.15 3.6 -170.6 Q5.6 -168.25 6.0 -168.85 M102.55 4.55 L100.15 3.55 93.4 -15.0 93.5 -14.9 97.75 -12.35 102.55 4.55 M53.65 -17.25 L53.65 -17.35 53.9 -20.0 Q55.3 -34.55 54.55 -45.4 L54.45 -46.5 65.2 -22.7 51.45 -8.9 52.05 -11.05 52.7 -13.35 52.85 -14.15 53.45 -16.45 53.65 -17.25 M59.85 -123.95 L57.65 -127.45 52.85 -134.65 44.6 -147.15 51.55 -144.45 56.2 -133.0 59.85 -123.95 M-78.1 -52.65 Q-79.05 -56.55 -79.4 -61.95 -80.05 -65.1 -82.7 -72.25 L-82.7 -73.1 -82.55 -72.85 -74.8 -59.0 -78.1 -52.65 M-96.4 -130.35 L-96.55 -130.5 -107.65 -134.95 -99.35 -133.35 -105.35 -139.85 -93.3 -131.45 -94.75 -130.8 -96.4 -130.35 M-62.0 -131.7 L-61.25 -130.15 -59.25 -134.9 -58.65 -135.65 -57.5 -131.6 -63.75 -122.1 -63.65 -128.0 -63.65 -128.1 -62.0 -131.7 M71.0 -57.05 L63.9 -65.45 65.45 -72.0 71.0 -57.05 M79.95 -21.9 L85.65 -20.0 78.8 -13.9 79.95 -21.9" fill="#524a25" fill-rule="evenodd" stroke="none"/>
      <path d="M5.3 -171.0 L6.0 -168.85 Q5.6 -168.25 3.6 -170.6 L3.45 -171.15 5.3 -171.0 M72.05 -99.85 L70.8 -81.7 71.05 -77.0 Q71.4 -72.05 71.7 -70.1 L71.75 -70.05 81.0 -71.55 83.35 -70.9 73.2 -65.4 74.5 -63.05 76.6 -59.65 Q76.75 -58.95 76.15 -55.85 L75.4 -52.4 75.3 -52.45 71.0 -57.05 65.45 -72.0 72.05 -99.85 M112.1 2.4 L103.05 1.15 104.5 5.4 102.55 4.55 97.75 -12.35 106.1 -3.75 106.05 -3.75 111.95 2.25 112.1 2.4 M-49.0 -16.0 L-48.6 -15.25 -48.55 -15.15 -38.85 -3.2 -49.45 -2.7 -58.95 1.1 -59.35 1.05 Q-53.3 -10.5 -60.4 -29.4 -54.7 -21.0 -49.0 -16.0 M-54.7 -18.05 L-49.45 -2.7 -54.7 -18.05 M79.95 -21.9 L80.05 -22.5 Q83.9 -21.45 87.5 -21.25 L85.65 -20.0 79.95 -21.9" fill="#3a3210" fill-rule="evenodd" stroke="none"/>
      <path d="M39.0 -130.35 L38.1 -132.85 36.55 -154.1 36.55 -154.2 Q41.5 -145.7 41.55 -140.8 41.6 -135.95 40.85 -133.9 L39.0 -130.35 M-57.8 -144.0 L-54.6 -146.35 -49.05 -147.0 Q-31.75 -146.35 -16.35 -149.95 -12.25 -150.9 -8.25 -152.2 L-5.4 -151.7 Q-4.15 -151.3 -3.8 -150.75 -3.55 -151.05 4.4 -153.65 L15.1 -157.05 Q20.55 -158.8 15.5 -153.55 L9.05 -146.55 6.4 -144.05 3.85 -142.15 Q1.5 -141.75 0.35 -142.2 L-1.1 -142.65 -2.65 -141.7 Q-4.45 -139.5 -6.7 -139.05 L-7.0 -139.0 -7.75 -138.85 -12.7 -138.1 -16.85 -137.5 -19.4 -137.1 Q-28.0 -137.4 -32.7 -143.9 L-33.85 -142.6 Q-35.1 -141.25 -33.45 -143.25 -37.45 -139.5 -41.2 -138.65 L-47.45 -138.5 Q-55.5 -139.85 -57.8 -144.0 M5.65 -147.0 L5.2 -146.35 Q4.75 -145.5 4.35 -143.9 L5.55 -144.3 5.8 -144.55 Q6.55 -145.3 6.55 -146.35 L6.05 -147.6 5.65 -147.0 M68.05 -116.6 L68.0 -116.65 67.65 -116.95 67.15 -117.5 67.05 -117.6 67.0 -117.7 Q64.4 -120.5 64.3 -126.35 L64.15 -132.6 64.15 -132.65 64.1 -133.25 Q64.0 -136.1 66.45 -131.8 69.1 -127.1 69.2 -124.05 69.35 -121.05 70.0 -117.45 70.5 -114.45 68.05 -116.6" fill="#332124" fill-rule="evenodd" stroke="none"/>
      <path d="M33.75 -164.8 L36.55 -163.1 36.55 -154.2 36.55 -154.1 29.35 -158.4 33.75 -164.8 M86.2 -142.9 L83.25 -139.9 83.25 -139.85 82.3 -137.4 81.8 -141.8 86.2 -142.9 M76.6 -122.95 L74.1 -116.6 Q72.75 -118.65 70.9 -123.1 L70.95 -123.15 71.1 -123.5 76.6 -122.95 M72.9 -112.55 L72.6 -107.7 Q71.15 -111.85 68.05 -116.6 70.3 -114.4 72.9 -112.55 M75.4 -52.4 L75.35 -52.25 Q75.25 -51.65 84.55 -32.2 L87.4 -26.45 85.25 -25.55 Q82.35 -24.2 80.05 -22.5 L79.95 -21.9 78.8 -13.9 78.4 -11.0 77.2 -2.65 71.6 0.65 65.75 -2.25 48.7 1.2 49.1 -0.45 66.95 -9.2 67.1 -9.8 68.15 -15.25 68.85 -18.85 72.55 -12.0 73.2 -39.45 75.3 -52.45 75.4 -52.4 M120.2 1.8 L117.5 1.8 119.8 3.45 112.25 2.45 111.95 2.25 106.05 -3.75 106.1 -3.75 113.2 -2.95 120.2 1.8 M89.5 2.45 L87.25 3.5 80.25 3.55 84.45 -1.6 91.05 -10.15 91.3 -10.45 88.3 -0.45 89.5 2.45 M49.05 -73.3 Q50.45 -75.75 50.95 -78.2 L55.0 -76.4 49.05 -73.3 M-37.3 -134.8 L-39.3 -130.8 -43.6 -129.95 -48.8 -128.5 -55.5 -126.55 -54.25 -130.4 -40.85 -132.3 -36.3 -136.8 -37.3 -134.8 M-55.6 -47.65 Q-53.8 -45.2 -51.8 -43.4 L-51.7 -43.3 -51.7 -43.25 -51.75 -42.95 Q-53.35 -36.05 -54.7 -33.35 L-45.4 -33.5 -53.85 -30.2 Q-50.8 -19.55 -49.0 -16.0 -54.7 -21.0 -60.4 -29.4 -53.3 -10.5 -59.35 1.05 L-68.3 -0.85 -77.55 0.45 -79.35 -2.85 -90.4 -5.0 -78.5 -17.9 -78.0 -32.9 -78.0 -33.0 -77.95 -34.4 -62.4 -33.3 -62.25 -33.3 -55.6 -47.65 M-59.25 -134.9 L-57.0 -140.25 -52.2 -138.75 -53.0 -136.6 -54.0 -134.0 -53.9 -134.0 -54.2 -133.55 Q-55.9 -137.15 -56.65 -136.9 -57.85 -136.45 -58.65 -135.65 L-59.25 -134.9 M65.75 -2.5 L67.1 -9.8 65.75 -2.5" fill="#241b15" fill-rule="evenodd" stroke="none"/>
      <path d="M87.4 -26.45 L88.35 -26.85 Q94.05 -29.0 101.7 -30.15 L107.95 -30.9 108.1 -30.65 Q106.6 -28.7 104.9 -27.15 L104.45 -26.7 101.7 -24.65 104.45 -26.7 Q103.15 -25.65 101.75 -24.7 L101.7 -24.65 101.65 -24.65 101.5 -24.55 Q96.45 -21.45 90.2 -21.2 L87.5 -21.25 Q83.9 -21.45 80.05 -22.5 82.35 -24.2 85.25 -25.55 L87.4 -26.45 M92.65 -25.5 L99.0 -26.4 Q95.6 -24.8 94.25 -24.35 L90.5 -24.25 86.45 -24.35 Q90.95 -26.7 93.95 -27.3 L104.7 -29.3 98.2 -24.3 Q96.8 -23.3 94.05 -22.9 L89.65 -22.35 86.15 -22.75 Q84.35 -23.25 83.95 -23.8 83.55 -24.45 85.25 -25.55 83.55 -24.45 83.95 -23.8 84.35 -23.25 86.15 -22.75 L89.65 -22.35 94.05 -22.9 Q96.8 -23.3 98.2 -24.3 L104.7 -29.3 93.95 -27.3 Q90.95 -26.7 86.45 -24.35 L90.5 -24.25 94.25 -24.35 Q95.6 -24.8 99.0 -26.4 L92.65 -25.5" fill="#665c52" fill-rule="evenodd" stroke="none"/>
      <path d="M-14.95 -192.7 L-16.55 -193.95 -17.4 -193.85 -1.1 -176.15 M-14.95 -192.7 L-8.0 -187.35 2.8 -179.0 5.3 -171.0 6.0 -168.85 7.8 -168.3 12.75 -166.8 12.3 -171.1 6.15 -174.6 11.7 -173.6 11.8 -177.5 11.95 -180.85 Q12.85 -178.15 13.95 -172.95 L14.1 -173.0 16.5 -173.7 Q18.35 -168.45 19.35 -167.0 L19.9 -167.0 28.1 -166.6 29.5 -166.6 33.35 -167.0 33.5 -166.6 33.75 -164.8 36.55 -163.1 39.95 -163.65 40.25 -161.6 43.0 -160.3 43.05 -160.25 47.85 -165.3 40.9 -171.85 41.7 -193.5 45.75 -174.15 55.7 -165.2 51.9 -152.7 62.6 -140.35 Q62.4 -140.7 66.85 -137.85 71.7 -134.7 72.3 -132.15 76.7 -137.45 77.7 -140.55 L76.4 -159.7 81.05 -145.1 81.35 -144.6 101.95 -158.65 86.2 -142.9 83.25 -139.9 83.25 -139.85 82.3 -137.4 76.6 -122.95 74.1 -116.6 Q75.3 -115.55 78.3 -114.45 81.3 -113.25 83.2 -115.7 85.1 -118.15 87.85 -117.1 90.6 -116.15 96.65 -116.2 102.7 -116.25 109.4 -107.5 102.25 -113.75 98.35 -113.25 96.4 -113.05 92.4 -113.15 L87.75 -113.55 Q86.5 -114.1 83.15 -110.0 81.2 -109.85 77.1 -111.1 L72.9 -112.55 72.6 -107.7 72.15 -101.15 72.15 -100.75 72.05 -99.85 70.8 -81.7 71.05 -77.0 Q71.4 -72.05 71.7 -70.1 L71.75 -70.05 81.0 -71.55 83.35 -70.9 73.2 -65.4 74.5 -63.05 76.6 -59.65 Q76.75 -58.95 76.15 -55.85 L75.4 -52.4 75.35 -52.25 Q75.25 -51.65 84.55 -32.2 L87.4 -26.45 88.35 -26.85 Q94.05 -29.0 101.7 -30.15 L107.95 -30.9 108.1 -30.65 117.9 -4.15 126.8 1.9 120.2 1.8 117.5 1.8 119.8 3.45 112.25 2.45 112.1 2.4 103.05 1.15 104.5 5.4 102.55 4.55 100.15 3.55 93.45 0.65 93.4 0.65 89.5 2.45 87.25 3.5 80.25 3.55 73.45 3.65 77.3 0.95 77.4 0.85 72.9 0.8 71.6 0.65 65.75 -2.25 48.7 1.2 49.1 -0.45 50.3 -5.8 50.3 -5.9 50.3 -5.95 50.25 -6.05 42.05 -5.75 38.1 -5.6 53.65 -17.25 53.65 -17.35 53.9 -20.0 Q55.3 -34.55 54.55 -45.4 L54.45 -46.5 Q53.25 -62.3 49.0 -73.3 L49.05 -73.3 Q50.45 -75.75 50.95 -78.2 L42.0 -85.4 32.6 -93.0 41.85 -88.65 42.0 -98.4 45.55 -85.65 53.05 -81.7 53.45 -83.6 53.6 -84.35 56.55 -101.55 57.5 -107.05 60.05 -123.25 60.05 -123.55 59.85 -123.95 57.65 -127.45 Q54.0 -124.35 49.45 -123.55 42.05 -123.85 39.0 -130.35 L38.1 -132.85 36.55 -154.1 29.35 -158.4 Q18.9 -144.5 0.6 -135.2 -3.35 -133.25 -7.6 -131.5 L-8.4 -131.55 -18.3 -132.2 -19.75 -132.35 -20.3 -132.4 -34.25 -134.25 -37.3 -134.8 -39.3 -130.8 -43.6 -129.95 Q-41.4 -127.8 -38.95 -127.55 L-34.55 -127.8 Q-31.3 -128.1 -29.85 -128.6 -26.9 -129.7 -24.55 -129.7 -22.0 -129.7 -20.45 -128.35 -19.75 -127.85 -18.15 -125.45 -15.25 -121.3 -9.2 -121.3 -5.1 -121.3 1.9 -122.65 3.45 -122.7 -0.85 -121.2 L-6.6 -119.4 Q-8.3 -119.05 -12.75 -119.4 -17.45 -119.75 -18.25 -120.65 L-21.4 -123.75 -24.4 -126.2 Q-25.75 -126.75 -30.5 -125.3 -25.25 -124.55 -25.35 -123.05 L-25.65 -120.55 Q-25.95 -118.85 -26.6 -117.45 -27.3 -116.1 -20.45 -107.1 -22.15 -107.9 -26.0 -112.3 L-30.25 -116.95 Q-30.6 -117.25 -30.15 -118.95 -29.7 -120.7 -30.05 -121.2 -31.25 -122.95 -34.05 -122.95 L-40.3 -122.75 -42.0 -123.05 -43.05 -124.7 Q-43.6 -125.9 -44.85 -126.35 L-46.8 -126.15 -48.8 -128.5 -55.5 -126.55 -57.1 -121.25 -53.3 -112.05 Q-63.2 -77.45 -61.65 -68.85 L-59.15 -53.45 -55.6 -47.65 Q-53.8 -45.2 -51.8 -43.4 L-51.7 -43.3 -51.7 -43.25 -51.75 -42.95 Q-53.35 -36.05 -54.7 -33.35 L-45.4 -33.5 -53.85 -30.2 Q-50.8 -19.55 -49.0 -16.0 L-48.6 -15.25 -48.55 -15.15 -38.85 -3.2 -49.45 -2.7 -58.95 1.1 -59.35 1.05 -68.3 -0.85 -77.55 0.45 -79.35 -2.85 -90.4 -5.0 -78.5 -17.9 -78.0 -32.9 -78.0 -33.0 -77.95 -34.4 Q-77.8 -41.2 -78.0 -44.25 L-84.4 -49.55 -78.5 -49.25 -86.35 -55.3 -86.4 -55.35 -86.4 -55.4 -86.6 -57.75 -95.1 -64.8 -86.9 -60.7 -87.85 -70.45 -84.05 -56.9 -84.05 -56.8 -78.1 -52.65 Q-79.05 -56.55 -79.4 -61.95 -80.05 -65.1 -82.7 -72.25 L-82.7 -73.1 Q-82.45 -74.45 -80.65 -76.85 -78.15 -80.15 -76.95 -83.2 -75.2 -90.3 -71.4 -101.35 L-70.45 -104.15 -70.9 -104.55 -81.65 -114.7 -85.35 -125.45 -85.55 -125.95 -94.25 -127.85 -94.35 -127.95 -96.4 -130.35 -96.55 -130.5 -107.65 -134.95 -99.35 -133.35 -105.35 -139.85 -93.3 -131.45 -92.65 -131.0 -92.5 -130.95 -92.45 -130.95 -86.8 -130.1 -92.9 -147.55 -77.75 -118.8 -68.25 -115.7 -67.7 -118.1 -66.5 -123.65 -69.85 -141.2 -66.2 -154.35 -75.0 -174.0 -69.0 -165.65 -63.05 -175.25 -67.55 -163.65 -62.6 -155.95 -64.6 -142.65 Q-65.5 -139.3 -62.0 -131.8 L-62.0 -131.7 -61.25 -130.15 -59.25 -134.9 -57.0 -140.25 -57.85 -143.95 -57.8 -144.0 -54.6 -146.35 -54.5 -146.45 -54.0 -147.6 -44.95 -169.75 Q-45.05 -164.35 -47.6 -153.65 L-49.3 -147.0 -49.05 -147.0 Q-31.75 -146.35 -16.35 -149.95 -12.25 -150.9 -8.25 -152.2 L-4.05 -153.6 2.5 -156.45 Q9.7 -159.65 13.05 -161.6 L15.0 -162.75 14.5 -162.7 14.8 -162.8 14.05 -163.0 7.25 -164.5 4.55 -165.1 1.0 -165.9 -6.0 -165.7 -8.35 -165.6 -16.2 -165.45 -29.55 -176.75 -15.3 -168.6 -12.85 -168.6 0.8 -168.6 0.7 -169.15 0.15 -171.35 -1.05 -176.05 -1.1 -176.15 M-16.55 -193.95 L-19.8 -196.45 -17.4 -193.85 M30.1 -166.6 L29.0 -166.5 29.05 -166.55 28.1 -166.6 M29.5 -166.6 L30.1 -166.6 14.8 -162.8 15.0 -162.75 M29.05 -166.55 L29.5 -166.6 M-32.7 -143.9 L-36.3 -136.8 -37.3 -134.8 M36.55 -163.1 L36.55 -154.2 M36.55 -154.1 L36.55 -154.2 M40.25 -161.6 Q41.35 -154.75 42.4 -149.7 L42.6 -148.9 Q43.85 -147.65 44.6 -147.15 L52.85 -134.65 Q50.05 -134.7 46.65 -140.1 43.6 -144.85 42.6 -148.9 M29.35 -158.4 L33.75 -164.8 M-33.85 -142.6 L-32.7 -143.9 M-54.6 -146.35 L-49.05 -147.0 M-47.65 -137.4 L-47.5 -137.35 -45.95 -136.9 -44.5 -136.5 -39.9 -135.35 -33.85 -142.6 M-45.5 -134.0 L-44.45 -134.0 -39.9 -135.35 M-52.2 -138.75 L-49.6 -137.95 -47.65 -137.4 -47.3 -136.75 -47.5 -137.35 M-53.0 -136.6 L-52.2 -138.75 -57.0 -140.25 M-53.9 -134.0 L-54.0 -134.0 -53.0 -136.6 -51.3 -134.0 -45.5 -134.0 -47.3 -136.75 M-54.25 -130.4 L-54.2 -130.5 M-53.9 -134.0 L-51.3 -134.0 M-43.6 -129.95 L-48.8 -128.5 M-55.5 -126.55 L-54.25 -130.4 M-63.9 -127.6 L-66.5 -123.65 M-63.85 -102.6 L-68.45 -103.7 -70.45 -104.15 M-63.5 -102.5 L-63.85 -102.6 M-68.25 -115.7 L-65.25 -115.05 M62.85 -139.8 L62.65 -140.25 62.6 -140.35 M81.05 -145.1 L81.25 -144.55 81.35 -144.6 M72.3 -132.15 Q72.25 -131.2 71.65 -129.55 71.05 -127.85 70.95 -123.9 L70.95 -123.15 M74.1 -116.6 Q72.75 -118.65 70.9 -123.1 L70.95 -123.15 M68.05 -116.6 L68.0 -116.65 67.65 -116.95 67.15 -117.5 67.05 -117.6 67.0 -117.7 Q64.4 -120.5 64.3 -126.35 L64.15 -132.6 64.15 -132.65 64.1 -133.25 63.35 -137.55 62.85 -139.8 M72.05 -99.85 L72.15 -101.15 M68.05 -116.6 Q70.3 -114.4 72.9 -112.55 M57.65 -127.45 L52.85 -134.65 M53.05 -81.7 L53.9 -81.25 M50.35 -6.05 L50.3 -5.9 M80.05 -22.5 L79.95 -21.9 M87.5 -21.25 Q83.9 -21.45 80.05 -22.5 82.35 -24.2 85.25 -25.55 L87.4 -26.45 M53.65 -17.25 L53.45 -16.45 52.85 -14.15 52.7 -13.35 52.05 -11.05 M50.25 -6.05 L50.35 -6.05 M78.8 -13.9 L78.4 -11.0 77.2 -2.65 71.6 0.65 M78.8 -13.9 L79.95 -21.9 M77.4 0.85 L81.2 -2.05 M85.25 -25.55 Q83.55 -24.45 83.95 -23.8 84.35 -23.25 86.15 -22.75 L89.65 -22.35 94.05 -22.9 Q96.8 -23.3 98.2 -24.3 L104.7 -29.3 93.95 -27.3 Q90.95 -26.7 86.45 -24.35 L90.5 -24.25 94.25 -24.35 Q95.6 -24.8 99.0 -26.4 L92.65 -25.5 M87.5 -21.25 L90.2 -21.2 Q96.45 -21.45 101.5 -24.55 L101.65 -24.65 101.7 -24.65 104.45 -26.7 104.9 -27.15 Q106.6 -28.7 108.1 -30.65 M101.7 -24.65 L101.75 -24.7 Q103.15 -25.65 104.45 -26.7" fill="none" stroke="#000000" stroke-linecap="round" stroke-linejoin="round" stroke-opacity="0.4" stroke-width="0.5"/>
      <path d="M43.5 -178.65 L43.7 -174.65 M6.05 -166.9 L5.05 -167.25 M6.05 -166.9 L10.1 -165.45 M57.5 -137.4 L53.2 -145.5 M-10.55 -167.05 L-12.9 -167.15 M-10.55 -167.05 L-7.35 -167.0 M-67.75 -144.05 L-68.45 -141.55 M-65.05 -148.8 L-66.65 -143.0 M-47.75 -159.55 L-49.35 -154.75 M-56.5 -133.95 L-58.9 -125.95 M-76.0 -74.85 L-73.45 -64.3 M-49.45 -2.7 L-54.7 -18.05 M-78.5 -49.25 L-72.25 -43.6 M-70.3 -93.65 L-76.25 -76.1 M-67.1 -99.35 L-71.2 -86.3 M45.15 -173.15 L49.3 -169.35 M57.5 -137.4 L61.5 -129.75 M73.1 -125.45 L80.0 -137.2 M66.85 -50.9 L59.35 -78.15 M66.85 -50.9 L67.5 -48.55 M51.45 -8.9 L50.35 -6.05 M68.15 -15.25 L67.1 -9.8 65.75 -2.5 M93.45 0.65 L93.95 -6.3 M59.35 -57.55 L66.4 -32.75 M62.4 -97.75 L59.0 -79.8 M44.15 -154.95 L49.2 -150.05" fill="none" stroke="#000000" stroke-linecap="round" stroke-linejoin="round" stroke-opacity="0.4" stroke-width="0.1"/>
      <path d="M-6.7 -139.05 L-0.55 -140.15 Q8.3 -141.7 0.9 -138.35 L-7.8 -134.45 -13.4 -134.3 -13.95 -134.35 -15.5 -134.45 -20.2 -134.75 Q-30.1 -135.45 -19.4 -137.1 L-16.85 -137.5 -12.7 -138.1 -7.75 -138.85 -7.0 -139.0 -6.7 -139.05 M5.65 -147.0 L6.05 -147.6 6.55 -146.35 Q6.55 -145.3 5.8 -144.55 L5.55 -144.3 4.35 -143.9 Q4.75 -145.5 5.2 -146.35 L5.65 -147.0 M10.25 -144.0 Q14.05 -144.95 15.1 -146.45 L14.65 -148.25 9.75 -145.25 Q6.45 -143.05 10.25 -144.0 M-30.1 -137.5 L-31.95 -137.85 -31.5 -137.0 Q-30.9 -136.2 -30.4 -136.2 -29.3 -136.2 -27.65 -136.9 L-30.1 -137.5 M44.0 -127.6 Q46.6 -125.6 49.3 -125.6 49.9 -125.6 53.5 -127.1 L50.45 -128.0 47.15 -128.55 Q45.75 -129.15 44.65 -130.3 43.4 -131.75 41.25 -132.6 40.95 -129.9 44.0 -127.6" fill="none" stroke="#000000" stroke-linecap="round" stroke-linejoin="round" stroke-opacity="0.4" stroke-width="1.0"/>
      <path d="M57.5 -107.05 L58.45 -108.75 59.3 -109.95 60.55 -110.8 61.45 -111.1 Q62.9 -111.1 63.5 -108.95 63.85 -107.65 63.85 -105.8 L63.4 -102.7 62.8 -101.0 Q61.8 -100.95 61.0 -102.5 60.25 -104.0 60.25 -105.7" fill="none" stroke="#000000" stroke-linecap="round" stroke-linejoin="round" stroke-opacity="0.4" stroke-width="0.30000000000000004"/>
      <path d="M89.1 -43.8 Q90.65 -44.05 91.45 -42.95 92.3 -41.8 92.9 -42.05 93.45 -42.2 93.7 -43.05 L94.0 -44.4 Q94.2 -46.1 94.35 -45.85 L94.6 -44.9 Q94.7 -44.15 94.15 -42.55 93.55 -40.9 92.65 -41.2 91.7 -41.6 90.9 -42.4 L89.85 -43.05 88.75 -42.95 88.0 -42.35 88.3 -42.2 Q89.2 -41.85 89.75 -40.7 L90.5 -38.55 Q90.75 -37.65 90.5 -37.7 90.25 -37.85 89.85 -38.9 L88.65 -41.05 Q87.9 -41.95 87.3 -41.7 86.6 -41.55 86.4 -40.8 86.1 -40.2 86.0 -39.05 85.75 -37.85 86.1 -36.85 86.4 -35.9 85.75 -36.85 85.05 -37.85 85.25 -38.95 85.4 -40.25 85.95 -41.35 84.25 -40.9 83.5 -39.05 82.75 -37.15 83.6 -36.05 84.45 -35.05 84.1 -35.1 L83.35 -35.45 Q82.95 -35.65 82.5 -36.9 82.0 -38.1 82.9 -39.85 83.8 -41.7 84.95 -42.1 L86.75 -42.15 Q87.55 -43.6 89.1 -43.8" fill="#3a3210" fill-rule="evenodd" stroke="none"/>
      <path d="M89.1 -43.8 Q87.55 -43.6 86.75 -42.15 L84.95 -42.1 Q83.8 -41.7 82.9 -39.85 82.0 -38.1 82.5 -36.9 82.95 -35.65 83.35 -35.45 L84.1 -35.1 Q84.45 -35.05 83.6 -36.05 82.75 -37.15 83.5 -39.05 84.25 -40.9 85.95 -41.35 85.4 -40.25 85.25 -38.95 85.05 -37.85 85.75 -36.85 86.4 -35.9 86.1 -36.85 85.75 -37.85 86.0 -39.05 86.1 -40.2 86.4 -40.8 86.6 -41.55 87.3 -41.7 87.9 -41.95 88.65 -41.05 L89.85 -38.9 Q90.25 -37.85 90.5 -37.7 90.75 -37.65 90.5 -38.55 L89.75 -40.7 Q89.2 -41.85 88.3 -42.2 L88.0 -42.35 88.75 -42.95 89.85 -43.05 90.9 -42.4 Q91.7 -41.6 92.65 -41.2 93.55 -40.9 94.15 -42.55 94.7 -44.15 94.6 -44.9 L94.35 -45.85 Q94.2 -46.1 94.0 -44.4 L93.7 -43.05 Q93.45 -42.2 92.9 -42.05 92.3 -41.8 91.45 -42.95 90.65 -44.05 89.1 -43.8 Z" fill="none" stroke="#000000" stroke-linecap="round" stroke-linejoin="round" stroke-opacity="0.4" stroke-width="0.05"/>
      <path d="M92.95 -40.75 Q95.3 -42.0 96.75 -41.8 98.2 -41.7 100.1 -40.9 102.0 -40.15 103.45 -38.8 104.85 -37.4 105.55 -34.6 106.2 -31.85 105.5 -29.75 104.8 -27.6 103.95 -26.75 L102.4 -25.45 Q101.65 -24.95 101.1 -24.8 100.5 -24.65 100.1 -24.3 L100.7 -25.25 Q102.25 -28.0 102.85 -31.3 103.0 -33.5 101.5 -36.0 99.95 -38.5 98.8 -39.3 L97.75 -40.05 97.75 -40.1 Q96.65 -40.85 95.4 -41.1 94.4 -41.3 92.95 -40.75 94.4 -41.3 95.4 -41.1 96.65 -40.85 97.75 -40.1 L97.75 -40.05 98.8 -39.3 Q99.95 -38.5 101.5 -36.0 103.0 -33.5 102.85 -31.3 102.25 -28.0 100.7 -25.25 L100.1 -24.3 99.75 -24.05 98.35 -23.55 96.2 -23.3 94.1 -23.15 Q93.4 -22.9 92.7 -23.15 L91.85 -23.0 Q90.95 -22.85 90.2 -23.0 L89.7 -23.1 89.3 -23.45 88.1 -23.35 Q86.5 -23.75 85.8 -24.4 83.4 -26.6 82.95 -27.5 81.55 -30.15 81.7 -32.15 81.85 -34.15 82.15 -35.35 82.5 -36.55 84.05 -38.3 85.75 -40.0 86.65 -40.25 L89.0 -40.9 90.75 -41.2 92.95 -40.75 95.2 -38.6 92.95 -40.75 Q90.35 -40.75 89.2 -39.75 L87.55 -38.3 86.25 -37.95 85.4 -37.6 84.25 -36.35 Q83.4 -35.3 83.3 -32.8 83.1 -30.3 83.55 -29.1 84.0 -27.85 84.35 -27.5 L84.95 -27.4 85.5 -27.8 85.6 -27.5 Q86.25 -26.1 88.2 -24.45 L89.3 -23.45 88.2 -24.45 Q86.25 -26.1 85.6 -27.5 L85.5 -27.8 85.45 -27.9 85.4 -28.0 85.4 -28.15 Q85.95 -27.0 87.15 -26.3 88.2 -25.75 89.05 -25.9 L89.1 -31.2 89.15 -31.05 90.6 -28.3 92.0 -26.0 Q92.4 -25.95 92.65 -26.4 L93.0 -27.1 92.7 -33.35 92.55 -36.25 Q92.5 -37.0 92.25 -37.4 92.0 -37.8 90.25 -36.35 89.55 -35.75 89.45 -35.95 L90.1 -37.4 90.25 -37.65 90.4 -37.85 90.35 -37.85 90.4 -37.95 Q91.8 -40.45 92.95 -40.75 L92.8 -37.45 92.95 -40.75 M95.35 -38.5 L95.3 -38.55 95.25 -38.55 95.2 -38.6 94.4 -38.75 Q93.9 -38.8 93.55 -38.35 L93.1 -37.85 92.8 -37.45 93.15 -32.4 93.9 -28.85 94.5 -26.9 Q95.35 -26.3 95.7 -26.3 L96.3 -26.3 Q96.85 -26.5 97.2 -26.8 L97.8 -27.6 97.8 -27.4 97.75 -27.35 98.45 -27.35 99.2 -27.45 100.3 -28.8 100.75 -30.3 100.85 -32.7 Q100.65 -35.5 98.95 -37.45 97.2 -39.4 95.65 -38.8 L95.35 -38.5 M96.2 -23.3 L96.8 -24.85 97.35 -26.35 97.75 -27.35 97.35 -26.35 96.8 -24.85 96.2 -23.3 M92.7 -23.15 L92.65 -23.15 90.55 -26.55 Q89.5 -28.85 89.15 -31.05 89.5 -28.85 90.55 -26.55 L92.65 -23.15 92.7 -23.15 M94.1 -23.15 L93.65 -26.4 93.6 -26.6 93.15 -32.4 93.6 -26.6 93.65 -26.4 94.1 -23.15" fill="#da581d" fill-rule="evenodd" stroke="none"/>
      <path d="M95.2 -38.6 L95.25 -38.55 95.3 -38.55 95.35 -38.5 95.65 -38.8 Q97.2 -39.4 98.95 -37.45 100.65 -35.5 100.85 -32.7 L100.75 -30.3 100.3 -28.8 99.2 -27.45 98.45 -27.35 97.75 -27.35 97.8 -27.4 97.8 -27.6 Q98.5 -29.75 98.3 -32.15 98.2 -34.5 95.85 -37.95 98.2 -34.5 98.3 -32.15 98.5 -29.75 97.8 -27.6 L97.2 -26.8 Q96.85 -26.5 96.3 -26.3 L95.7 -26.3 Q95.35 -26.3 94.5 -26.9 L93.9 -28.85 93.15 -32.4 92.8 -37.45 93.1 -37.85 93.55 -38.35 Q93.9 -38.8 94.4 -38.75 L95.2 -38.6 M85.5 -27.8 L84.95 -27.4 84.35 -27.5 Q84.0 -27.85 83.55 -29.1 83.1 -30.3 83.3 -32.8 83.4 -35.3 84.25 -36.35 L85.4 -37.6 86.25 -37.95 87.55 -38.3 89.2 -39.75 Q90.35 -40.75 92.95 -40.75 91.8 -40.45 90.4 -37.95 L90.35 -37.85 90.25 -37.65 90.1 -37.4 89.45 -35.95 89.35 -35.65 Q88.7 -33.85 88.95 -32.15 L89.1 -31.2 88.95 -32.15 Q88.7 -33.85 89.35 -35.65 L89.45 -35.95 Q89.55 -35.75 90.25 -36.35 92.0 -37.8 92.25 -37.4 92.5 -37.0 92.55 -36.25 L92.7 -33.35 93.0 -27.1 92.65 -26.4 Q92.4 -25.95 92.0 -26.0 L90.6 -28.3 89.15 -31.05 89.1 -31.2 89.05 -25.9 Q88.2 -25.75 87.15 -26.3 85.95 -27.0 85.4 -28.15 L85.4 -28.0 85.45 -27.9 85.5 -27.8 M85.4 -28.15 L85.25 -28.5 Q83.15 -34.05 87.5 -38.25 L87.55 -38.3 87.5 -38.25 Q83.15 -34.05 85.25 -28.5 L85.4 -28.15 M95.85 -37.95 L95.6 -38.35 95.35 -38.45 95.85 -37.95 M95.35 -38.5 L95.35 -38.45 95.35 -38.5" fill="#ff7d2d" fill-rule="evenodd" stroke="none"/>
      <path d="M95.35 -38.45 L95.6 -38.35 95.85 -37.95 95.35 -38.45" fill="url(#decoration172-gradient1)" fill-rule="evenodd" stroke="none"/>
      <path d="M90.25 -37.65 L90.35 -37.85 90.4 -37.85 90.25 -37.65" fill="#ff9231" fill-rule="evenodd" stroke="none"/>
      <path d="M100.1 -24.3 Q100.5 -24.65 101.1 -24.8 101.65 -24.95 102.4 -25.45 L103.95 -26.75 Q104.8 -27.6 105.5 -29.75 106.2 -31.85 105.55 -34.6 104.85 -37.4 103.45 -38.8 102.0 -40.15 100.1 -40.9 98.2 -41.7 96.75 -41.8 95.3 -42.0 92.95 -40.75 94.4 -41.3 95.4 -41.1 96.65 -40.85 97.75 -40.1 L97.75 -40.05 98.8 -39.3 Q99.95 -38.5 101.5 -36.0 103.0 -33.5 102.85 -31.3 102.25 -28.0 100.7 -25.25 L100.1 -24.3 99.75 -24.05 98.35 -23.55 96.2 -23.3 94.1 -23.15 Q93.4 -22.9 92.7 -23.15 L91.85 -23.0 Q90.95 -22.85 90.2 -23.0 L89.7 -23.1 89.3 -23.45 88.1 -23.35 Q86.5 -23.75 85.8 -24.4 83.4 -26.6 82.95 -27.5 81.55 -30.15 81.7 -32.15 81.85 -34.15 82.15 -35.35 82.5 -36.55 84.05 -38.3 85.75 -40.0 86.65 -40.25 L89.0 -40.9 90.75 -41.2 92.95 -40.75 95.2 -38.6 95.25 -38.55 95.3 -38.55 95.35 -38.5 M97.75 -27.35 L97.35 -26.35 96.8 -24.85 96.2 -23.3 M87.55 -38.3 L89.2 -39.75 Q90.35 -40.75 92.95 -40.75 L92.8 -37.45 93.15 -32.4 93.6 -26.6 93.65 -26.4 94.1 -23.15 M89.1 -31.2 L88.95 -32.15 Q88.7 -33.85 89.35 -35.65 L89.45 -35.95 90.1 -37.4 90.25 -37.65 90.35 -37.85 90.4 -37.95 Q91.8 -40.45 92.95 -40.75 M85.5 -27.8 L85.6 -27.5 Q86.25 -26.1 88.2 -24.45 L89.3 -23.45 M85.4 -28.15 L85.4 -28.0 85.45 -27.9 85.5 -27.8 M87.55 -38.3 L87.5 -38.25 Q83.15 -34.05 85.25 -28.5 L85.4 -28.15 M95.35 -38.45 L95.85 -37.95 Q98.2 -34.5 98.3 -32.15 98.5 -29.75 97.8 -27.6 L97.8 -27.4 97.75 -27.35 M95.35 -38.45 L95.35 -38.5 M89.15 -31.05 Q89.5 -28.85 90.55 -26.55 L92.65 -23.15 92.7 -23.15 M89.1 -31.2 L89.15 -31.05" fill="none" stroke="#000000" stroke-linecap="round" stroke-linejoin="round" stroke-opacity="0.3019608" stroke-width="0.30000000000000004"/>
      <path d="M92.65 -41.4 Q93.0 -44.3 92.8 -46.2 91.0 -46.95 93.0 -47.8 L95.5 -47.9 Q96.0 -47.3 95.55 -46.4 L94.95 -46.95 Q94.45 -47.4 94.05 -46.75 93.65 -46.1 93.6 -45.3 L93.5 -42.65 93.5 -41.05 91.45 -40.25 92.55 -40.3 Q93.15 -40.4 93.15 -40.0 L92.9 -39.25 93.95 -40.3 95.35 -39.9 95.0 -40.7 96.15 -41.25 94.3 -40.95 94.6 -41.55 97.05 -42.1 Q99.0 -41.4 99.8 -41.4 L95.7 -40.4 Q95.5 -39.8 98.05 -38.8 95.55 -39.7 94.1 -39.65 93.35 -39.55 92.85 -38.55 L92.0 -36.9 92.4 -38.1 92.25 -39.6 Q91.25 -39.55 88.9 -38.7 91.75 -40.15 90.8 -40.35 L86.95 -40.1 Q89.5 -40.65 90.2 -41.35 L92.65 -41.4 92.7 -41.1 92.65 -41.4" fill="#3a3210" fill-rule="evenodd" stroke="none"/>
      <path d="M95.55 -46.4 L95.35 -44.45 94.6 -41.55 94.3 -40.95 96.15 -41.25 95.0 -40.7 95.35 -39.9 93.95 -40.3 92.9 -39.25 93.15 -40.0 Q93.15 -40.4 92.55 -40.3 L91.45 -40.25 93.5 -41.05 93.5 -42.65 93.6 -45.3 Q93.65 -46.1 94.05 -46.75 94.45 -47.4 94.95 -46.95 L95.55 -46.4" fill="#524a25" fill-rule="evenodd" stroke="none"/>
      <path d="M95.55 -46.4 Q96.0 -47.3 95.5 -47.9 L93.0 -47.8 Q91.0 -46.95 92.8 -46.2 93.0 -44.3 92.65 -41.4 L92.7 -41.1 M94.6 -41.55 L95.35 -44.45 95.55 -46.4 M94.3 -40.95 L94.6 -41.55 97.05 -42.1 Q99.0 -41.4 99.8 -41.4 L95.7 -40.4 Q95.5 -39.8 98.05 -38.8 95.55 -39.7 94.1 -39.65 93.35 -39.55 92.85 -38.55 L92.0 -36.9 92.4 -38.1 92.25 -39.6 Q91.25 -39.55 88.9 -38.7 91.75 -40.15 90.8 -40.35 L86.95 -40.1 Q89.5 -40.65 90.2 -41.35 L92.65 -41.4" fill="none" stroke="#000000" stroke-linecap="round" stroke-linejoin="round" stroke-opacity="0.3019608" stroke-width="0.30000000000000004"/>
      <path d="M-75.35 -27.15 L-75.05 -25.35 Q-74.85 -24.3 -74.05 -24.0 -73.35 -23.65 -72.05 -25.05 -70.75 -26.4 -68.7 -25.95 -66.55 -25.5 -65.65 -23.55 L-63.15 -23.3 Q-61.65 -22.7 -60.6 -20.2 -59.5 -17.8 -60.3 -16.3 -61.1 -14.8 -61.6 -14.55 L-62.65 -14.2 Q-63.15 -14.1 -61.9 -15.4 -60.65 -16.65 -61.45 -19.25 -62.3 -21.7 -64.6 -22.45 -63.95 -20.95 -63.9 -19.25 -63.8 -17.8 -64.8 -16.55 -65.75 -15.4 -65.25 -16.6 -64.7 -17.85 -64.9 -19.45 -64.95 -20.95 -65.25 -21.8 -65.5 -22.75 -66.4 -23.05 -67.25 -23.4 -68.35 -22.25 -69.55 -21.1 -70.2 -19.65 -70.85 -18.25 -71.2 -18.15 -71.55 -18.1 -71.15 -19.25 L-69.9 -21.9 Q-69.0 -23.4 -67.75 -23.8 L-67.3 -23.95 Q-67.45 -24.4 -68.25 -24.75 L-69.75 -25.0 Q-70.5 -24.95 -71.3 -24.3 -72.5 -23.3 -73.8 -22.95 -75.05 -22.6 -75.75 -24.75 -76.35 -26.9 -76.15 -27.85 L-75.75 -29.1 Q-75.45 -29.45 -75.35 -27.15" fill="#3a3210" fill-rule="evenodd" stroke="none"/>
      <path d="M-75.35 -27.15 L-75.05 -25.35 Q-74.85 -24.3 -74.05 -24.0 -73.35 -23.65 -72.05 -25.05 -70.75 -26.4 -68.7 -25.95 -66.55 -25.5 -65.65 -23.55 L-63.15 -23.3 Q-61.65 -22.7 -60.6 -20.2 -59.5 -17.8 -60.3 -16.3 -61.1 -14.8 -61.6 -14.55 L-62.65 -14.2 Q-63.15 -14.1 -61.9 -15.4 -60.65 -16.65 -61.45 -19.25 -62.3 -21.7 -64.6 -22.45 -63.95 -20.95 -63.9 -19.25 -63.8 -17.8 -64.8 -16.55 -65.75 -15.4 -65.25 -16.6 -64.7 -17.85 -64.9 -19.45 -64.95 -20.95 -65.25 -21.8 -65.5 -22.75 -66.4 -23.05 -67.25 -23.4 -68.35 -22.25 -69.55 -21.1 -70.2 -19.65 -70.85 -18.25 -71.2 -18.15 -71.55 -18.1 -71.15 -19.25 L-69.9 -21.9 Q-69.0 -23.4 -67.75 -23.8 L-67.3 -23.95 Q-67.45 -24.4 -68.25 -24.75 L-69.75 -25.0 Q-70.5 -24.95 -71.3 -24.3 -72.5 -23.3 -73.8 -22.95 -75.05 -22.6 -75.75 -24.75 -76.35 -26.9 -76.15 -27.85 L-75.75 -29.1 Q-75.45 -29.45 -75.35 -27.15 Z" fill="none" stroke="#000000" stroke-linecap="round" stroke-linejoin="round" stroke-opacity="0.4" stroke-width="0.05"/>
      <path d="M-86.25 -17.9 L-88.05 -17.6 -89.25 -17.2 -91.5 -15.8 Q-93.35 -14.55 -93.6 -11.35 -93.85 -8.15 -92.95 -6.35 L-91.75 -4.2 Q-91.4 -3.8 -90.85 -4.0 L-89.85 -4.15 -86.65 0.2 -85.25 1.6 -86.65 0.2 -89.85 -4.15 -90.0 -4.45 Q-89.2 -3.05 -87.4 -1.65 -85.3 -0.1 -84.55 -1.1 L-83.3 -2.4 Q-82.6 -1.9 -81.2 -1.45 -79.8 -1.0 -79.15 -3.8 L-79.75 -14.8 Q-80.55 -17.95 -82.05 -16.35 L-83.9 -14.15 -84.3 -13.6 -84.25 -13.65 -84.1 -14.05 -83.9 -16.2 Q-83.9 -18.4 -86.3 -17.85 L-86.25 -17.9 M-78.5 -20.5 Q-81.6 -21.05 -84.85 -18.85 L-86.3 -17.85 -84.85 -18.85 Q-81.6 -21.05 -78.5 -20.5 L-78.65 -20.45 Q-80.25 -20.15 -82.35 -17.15 L-82.4 -17.05 -84.1 -14.05 -82.4 -17.05 -82.35 -17.15 Q-80.25 -20.15 -78.65 -20.45 L-78.5 -20.5 Q-75.2 -21.9 -73.25 -21.6 -71.3 -21.25 -68.7 -20.1 -66.15 -18.9 -64.35 -17.0 -62.55 -15.15 -61.85 -11.4 -61.25 -7.75 -62.4 -5.1 -63.6 -2.35 -64.95 -1.15 L-67.3 0.5 -69.1 1.05 Q-69.8 1.05 -70.4 1.45 L-70.8 1.75 -72.0 2.25 -75.85 2.4 -78.2 2.4 -78.75 2.35 -80.65 2.25 -81.85 2.45 -84.1 2.25 -84.75 2.0 -85.25 1.6 -87.0 1.6 Q-89.1 0.9 -90.0 0.0 -93.1 -3.1 -93.7 -4.3 -95.25 -7.85 -94.85 -10.45 L-93.9 -14.6 Q-93.35 -16.1 -90.95 -18.2 -88.55 -20.25 -87.25 -20.6 L-83.95 -21.15 -81.5 -21.3 Q-80.35 -21.3 -78.5 -20.5 L-75.65 -17.55 -74.6 -16.35 -74.5 -16.15 -73.95 -15.2 -73.9 -15.1 Q-71.95 -11.45 -72.0 -8.85 -72.05 -5.8 -73.15 -3.0 L-73.25 -2.65 -73.7 -1.8 -73.9 -1.4 -74.9 0.45 -75.85 2.4 -74.9 0.45 -73.9 -1.4 -73.7 -1.8 -73.25 -2.65 -73.15 -3.0 Q-72.05 -5.8 -72.0 -8.85 -71.95 -11.45 -73.9 -15.1 L-73.95 -15.2 -74.5 -16.15 -74.6 -16.35 -75.65 -17.55 -78.5 -20.5 -75.1 -20.75 Q-73.45 -20.3 -72.05 -19.25 L-71.95 -19.25 -70.6 -18.1 Q-69.15 -16.95 -67.3 -13.55 -65.45 -10.15 -65.9 -7.35 -67.05 -3.1 -69.4 0.3 L-70.4 1.45 -69.4 0.3 Q-67.05 -3.1 -65.9 -7.35 -65.45 -10.15 -67.3 -13.55 -69.15 -16.95 -70.6 -18.1 L-71.95 -19.25 -72.05 -19.25 Q-73.45 -20.3 -75.1 -20.75 L-78.5 -20.5 M-80.65 2.25 L-80.75 2.25 -83.3 -2.4 -80.75 2.25 -80.65 2.25 M-78.35 -13.1 L-78.3 -7.15 Q-78.2 -4.3 -77.6 -3.2 L-76.7 -1.95 -75.45 -1.7 Q-75.0 -1.75 -74.35 -2.75 -73.75 -3.7 -73.5 -4.65 -73.05 -6.5 -73.05 -7.75 -73.05 -10.35 -74.05 -13.5 -75.1 -16.65 -76.7 -16.4 -78.3 -16.25 -78.35 -13.1 M-78.2 2.4 Q-79.3 -8.2 -78.65 -20.45 -79.3 -8.2 -78.2 2.4 M-70.4 -15.55 Q-72.8 -18.45 -73.9 -17.15 -74.05 -16.65 -72.35 -14.2 -71.0 -12.1 -71.35 -9.25 L-72.1 -2.9 Q-72.0 -1.95 -71.15 -2.15 -70.3 -2.45 -69.35 -3.1 -68.4 -3.85 -68.05 -5.7 -67.75 -7.55 -67.9 -10.15 -68.0 -12.7 -70.4 -15.55" fill="#d36719" fill-rule="evenodd" stroke="none"/>
      <path d="M-89.85 -4.15 L-90.85 -4.0 Q-91.4 -3.8 -91.75 -4.2 L-92.95 -6.35 Q-93.85 -8.15 -93.6 -11.35 -93.35 -14.55 -91.5 -15.8 L-89.25 -17.2 -88.05 -17.6 -86.25 -17.9 -86.3 -17.85 Q-92.7 -12.75 -90.4 -5.4 L-90.0 -4.45 -90.4 -5.4 Q-92.7 -12.75 -86.3 -17.85 -83.9 -18.4 -83.9 -16.2 L-84.1 -14.05 -84.25 -13.65 -84.3 -13.6 -83.9 -14.15 -82.05 -16.35 Q-80.55 -17.95 -79.75 -14.8 L-79.15 -3.8 Q-79.8 -1.0 -81.2 -1.45 -82.6 -1.9 -83.3 -2.4 -84.8 -6.35 -84.95 -9.8 -85.05 -11.65 -84.3 -13.6 -85.05 -11.65 -84.95 -9.8 -84.8 -6.35 -83.3 -2.4 L-84.55 -1.1 Q-85.3 -0.1 -87.4 -1.65 -89.2 -3.05 -90.0 -4.45 L-89.85 -4.15 M-78.35 -13.1 Q-78.3 -16.25 -76.7 -16.4 -75.1 -16.65 -74.05 -13.5 -73.05 -10.35 -73.05 -7.75 -73.05 -6.5 -73.5 -4.65 -73.75 -3.7 -74.35 -2.75 -75.0 -1.75 -75.45 -1.7 L-76.7 -1.95 -77.6 -3.2 Q-78.2 -4.3 -78.3 -7.15 L-78.35 -13.1 M-70.4 -15.55 Q-68.0 -12.7 -67.9 -10.15 -67.75 -7.55 -68.05 -5.7 -68.4 -3.85 -69.35 -3.1 -70.3 -2.45 -71.15 -2.15 -72.0 -1.95 -72.1 -2.9 L-71.35 -9.25 Q-71.0 -12.1 -72.35 -14.2 -74.05 -16.65 -73.9 -17.15 -72.8 -18.45 -70.4 -15.55" fill="#ff9231" fill-rule="evenodd" stroke="none"/>
      <path d="M-86.25 -17.9 L-86.3 -17.85 -84.85 -18.85 Q-81.6 -21.05 -78.5 -20.5 -80.35 -21.3 -81.5 -21.3 L-83.95 -21.15 -87.25 -20.6 Q-88.55 -20.25 -90.95 -18.2 -93.35 -16.1 -93.9 -14.6 L-94.85 -10.45 Q-95.25 -7.85 -93.7 -4.3 -93.1 -3.1 -90.0 0.0 -89.1 0.9 -87.0 1.6 L-85.25 1.6 -86.65 0.2 -89.85 -4.15 -90.0 -4.45 -90.4 -5.4 Q-92.7 -12.75 -86.3 -17.85 M-84.1 -14.05 L-82.4 -17.05 -82.35 -17.15 Q-80.25 -20.15 -78.65 -20.45 L-78.5 -20.5 Q-75.2 -21.9 -73.25 -21.6 -71.3 -21.25 -68.7 -20.1 -66.15 -18.9 -64.35 -17.0 -62.55 -15.15 -61.85 -11.4 -61.25 -7.75 -62.4 -5.1 -63.6 -2.35 -64.95 -1.15 L-67.3 0.5 -69.1 1.05 Q-69.8 1.05 -70.4 1.45 L-70.8 1.75 -72.0 2.25 -75.85 2.4 -78.2 2.4 -78.75 2.35 -80.65 2.25 -81.85 2.45 -84.1 2.25 -84.75 2.0 -85.25 1.6 M-78.5 -20.5 L-75.1 -20.75 Q-73.45 -20.3 -72.05 -19.25 L-71.95 -19.25 -70.6 -18.1 Q-69.15 -16.95 -67.3 -13.55 -65.45 -10.15 -65.9 -7.35 -67.05 -3.1 -69.4 0.3 L-70.4 1.45 M-75.85 2.4 L-74.9 0.45 -73.9 -1.4 -73.7 -1.8 -73.25 -2.65 -73.15 -3.0 Q-72.05 -5.8 -72.0 -8.85 -71.95 -11.45 -73.9 -15.1 L-73.95 -15.2 -74.5 -16.15 -74.6 -16.35 -75.65 -17.55 -78.5 -20.5 M-83.3 -2.4 L-80.75 2.25 -80.65 2.25 M-84.1 -14.05 L-84.25 -13.65 -84.3 -13.6 Q-85.05 -11.65 -84.95 -9.8 -84.8 -6.35 -83.3 -2.4 M-78.65 -20.45 Q-79.3 -8.2 -78.2 2.4" fill="none" stroke="#000000" stroke-linecap="round" stroke-linejoin="round" stroke-opacity="0.3019608" stroke-width="0.30000000000000004"/>
      <path d="M-74.65 -27.7 L-75.45 -28.5 Q-76.1 -29.1 -76.7 -28.3 -77.3 -27.55 -77.45 -26.45 L-77.8 -23.0 -78.0 -21.0 Q-78.2 -20.75 -80.9 -20.15 L-79.4 -20.1 Q-78.6 -20.2 -78.7 -19.65 -78.8 -19.15 -79.05 -18.7 L-77.45 -20.0 -75.55 -19.3 -76.05 -20.3 Q-74.35 -20.9 -74.35 -21.0 L-76.9 -20.75 -76.45 -21.55 -72.65 -22.25 Q-71.5 -20.75 -69.35 -20.8 L-75.4 -20.15 Q-75.45 -19.2 -72.0 -17.6 -75.3 -18.95 -77.65 -19.35 L-79.15 -17.8 -80.45 -15.75 -79.85 -17.25 -79.55 -19.4 -84.6 -18.3 Q-80.45 -19.9 -81.8 -20.3 -82.85 -20.7 -87.4 -20.4 -83.55 -20.75 -83.2 -21.75 L-79.2 -21.55 Q-78.4 -25.25 -78.7 -27.8 -80.85 -28.9 -78.05 -29.75 -75.3 -30.65 -74.8 -29.75 -74.5 -29.3 -74.65 -27.7 M-79.2 -21.1 L-79.2 -21.55 -79.2 -21.1" fill="#3a3210" fill-rule="evenodd" stroke="none"/>
      <path d="M-76.9 -20.75 L-74.35 -21.0 Q-74.35 -20.9 -76.05 -20.3 L-75.55 -19.3 -77.45 -20.0 -79.05 -18.7 Q-78.8 -19.15 -78.7 -19.65 -78.6 -20.2 -79.4 -20.1 L-80.9 -20.15 Q-78.2 -20.75 -78.0 -21.0 L-77.8 -23.0 -77.45 -26.45 Q-77.3 -27.55 -76.7 -28.3 -76.1 -29.1 -75.45 -28.5 L-74.65 -27.7 -75.15 -25.15 Q-76.05 -22.15 -76.45 -21.55 L-76.9 -20.75" fill="#524a25" fill-rule="evenodd" stroke="none"/>
      <path d="M-76.9 -20.75 L-76.45 -21.55 Q-76.05 -22.15 -75.15 -25.15 L-74.65 -27.7 Q-74.5 -29.3 -74.8 -29.75 -75.3 -30.65 -78.05 -29.75 -80.85 -28.9 -78.7 -27.8 -78.4 -25.25 -79.2 -21.55 L-79.2 -21.1 M-76.45 -21.55 L-72.65 -22.25 Q-71.5 -20.75 -69.35 -20.8 L-75.4 -20.15 Q-75.45 -19.2 -72.0 -17.6 -75.3 -18.95 -77.65 -19.35 L-79.15 -17.8 -80.45 -15.75 -79.85 -17.25 -79.55 -19.4 -84.6 -18.3 Q-80.45 -19.9 -81.8 -20.3 -82.85 -20.7 -87.4 -20.4 -83.55 -20.75 -83.2 -21.75 L-79.2 -21.55" fill="none" stroke="#000000" stroke-linecap="round" stroke-linejoin="round" stroke-opacity="0.3019608" stroke-width="0.30000000000000004"/>
    </g>
    <linearGradient gradientTransform="matrix(0.0128, -0.009, 0.0059, 0.0083, 23.4, -160.6)" gradientUnits="userSpaceOnUse" id="decoration172-gradient0" spreadMethod="pad" x1="-819.2" x2="819.2">
      <stop offset="0.0" stop-color="#2b1214"/>
      <stop offset="0.2235294117647059" stop-color="#230b07"/>
    </linearGradient>
    <radialGradient cx="0" cy="0" fx="28.8" fy="0" gradientTransform="matrix(0.0137, 0.0028, -0.0014, 0.0078, 93.4, -32.25)" gradientUnits="userSpaceOnUse" id="decoration172-gradient1" r="819.2" spreadMethod="pad">
      <stop offset="0.1803921568627451" stop-color="#ffa545"/>
      <stop offset="0.9725490196078431" stop-color="#ff9d24"/>
    </radialGradient>
  </defs>
</svg>
