<?xml version="1.0" encoding="UTF-8" standalone="no"?>
<svg xmlns:xlink="http://www.w3.org/1999/xlink" height="84.3px" width="108.65px" xmlns="http://www.w3.org/2000/svg">
  <g transform="matrix(1.0, 0.0, 0.0, 1.0, 51.7, 83.65)">
    <use height="38.2" transform="matrix(1.0, 0.0, 0.0, 1.0, 32.85, -38.15)" width="24.1" xlink:href="#decoration92-shape0"/>
    <use height="6.1" id="decoration92-Couleur1_A3468E" filter="url(#decoration92-filter1)" transform="matrix(1.9142, 0.0, 0.0, 1.8307, 34.4629, -12.7246)" width="10.8" xlink:href="#decoration92-sprite0"/>
    <use height="23.15" transform="matrix(1.0, 0.0, 0.0, 1.0, -9.6, -22.85)" width="15.6" xlink:href="#decoration92-shape2"/>
    <use height="6.1" id="decoration92-Couleur0_55A80F" filter="url(#decoration92-filter0)" transform="matrix(1.1389, 0.0, 0.0, 1.1389, -8.0208, -8.2208)" width="10.8" xlink:href="#decoration92-sprite0"/>
    <use height="61.0" transform="matrix(1.0, 0.0, 0.0, 1.0, -51.7, -83.65)" width="97.7" xlink:href="#decoration92-shape3"/>
    <use height="9.6" id="decoration92-Couleur3_C26900" filter="url(#decoration92-filter3)" transform="matrix(0.3351, 0.0, 0.0, 0.3799, -50.0503, -78.057)" width="22.4" xlink:href="#decoration92-sprite1"/>
    <use height="9.6" id="decoration92-Couleur2_34C4A0" filter="url(#decoration92-filter2)" transform="matrix(1.0013, 0.0, 0.0, 1.0795, -37.0002, -44.3619)" width="22.4" xlink:href="#decoration92-sprite1"/>
    <use height="76.65" transform="matrix(1.0, 0.0, 0.0, 1.0, -33.75, -76.1)" width="51.6" xlink:href="#decoration92-shape5"/>
    <use height="0.0" transform="matrix(0.0495, 0.0251, -0.0144, 0.1013, -26.05, -25.05)" width="0.0" xlink:href="#decoration92-sprite2"/>
    <use height="15.05" transform="matrix(1.0, 0.0, 0.0, 1.0, -31.75, -14.4)" width="14.75" xlink:href="#decoration92-shape6"/>
    <use height="116.85" transform="matrix(0.0107, -0.0369, 0.053, 0.0186, -31.6749, -46.3968)" width="220.6" xlink:href="#decoration92-sprite3"/>
    <use height="116.85" transform="matrix(0.0103, -0.0213, 0.0347, 0.0122, -3.5749, -6.256)" width="220.6" xlink:href="#decoration92-sprite3"/>
    <use height="116.85" transform="matrix(0.0128, -0.0349, 0.0347, 0.0122, 39.9315, -10.0414)" width="220.6" xlink:href="#decoration92-sprite3"/>
  </g>
  <defs>
    <g id="decoration92-shape0" transform="matrix(1.0, 0.0, 0.0, 1.0, -32.85, 38.15)">
      <path d="M40.6 -37.9 L44.6 -38.15 49.65 -37.8 47.05 -37.5 41.75 -37.65 40.6 -37.9" fill="#f0c384" fill-rule="evenodd" stroke="none"/>
      <path d="M47.05 -37.5 L49.65 -37.8 48.4 -31.8 Q47.8 -30.1 46.35 -30.0 47.8 -36.05 47.05 -37.5" fill="#4d381b" fill-rule="evenodd" stroke="none"/>
      <path d="M41.75 -37.65 L47.05 -37.5 Q47.8 -36.05 46.35 -30.0 L44.05 -30.25 41.75 -37.65" fill="#966f36" fill-rule="evenodd" stroke="none"/>
      <path d="M40.6 -37.9 L41.75 -37.65 44.05 -30.25 42.9 -31.15 40.6 -37.9" fill="#cc9449" fill-rule="evenodd" stroke="none"/>
      <path d="M49.65 -37.8 L44.6 -38.15 40.6 -37.9 M49.65 -37.8 L48.4 -31.8 Q47.8 -30.1 46.35 -30.0 L44.05 -30.25 42.9 -31.15 40.6 -37.9" fill="none" stroke="#000000" stroke-linecap="round" stroke-linejoin="round" stroke-opacity="0.3019608" stroke-width="0.05"/>
      <path d="M48.05 -36.9 L50.1 -36.8 Q51.05 -35.8 49.8 -34.7 L47.8 -33.4 47.8 -31.15 55.8 -6.5 Q57.25 -3.4 55.95 -0.35 L36.55 -0.35 Q35.85 -1.2 35.7 -2.0 L45.35 -2.0 Q53.15 -3.65 52.25 -9.4 L46.6 -29.6 46.6 -33.2 Q48.4 -34.95 48.05 -36.9 M47.8 -33.4 L46.6 -33.2 47.8 -33.4" fill="#7eaaa8" fill-opacity="0.65882355" fill-rule="evenodd" stroke="none"/>
      <path d="M36.55 -0.35 L33.75 -0.35 Q32.75 -3.35 33.75 -6.5 L42.35 -30.95 42.35 -33.4 40.5 -34.7 Q39.3 -35.8 40.3 -36.8 L42.0 -36.9 Q41.4 -35.0 43.6 -33.2 L43.6 -28.15 36.1 -5.2 Q35.25 -3.55 35.7 -2.0 35.85 -1.2 36.55 -0.35 M42.35 -33.4 L43.6 -33.2 42.35 -33.4" fill="#defffe" fill-opacity="0.7019608" fill-rule="evenodd" stroke="none"/>
      <path d="M42.0 -36.9 L48.05 -36.9 Q48.4 -34.95 46.6 -33.2 L46.6 -29.6 52.25 -9.4 Q53.15 -3.65 45.35 -2.0 L35.7 -2.0 Q35.25 -3.55 36.1 -5.2 L43.6 -28.15 43.6 -33.2 Q41.4 -35.0 42.0 -36.9 M43.6 -33.2 L46.6 -33.2 43.6 -33.2" fill="#c7e3e2" fill-opacity="0.3019608" fill-rule="evenodd" stroke="none"/>
      <path d="M36.55 -0.35 L33.75 -0.35 Q32.75 -3.35 33.75 -6.5 L42.35 -30.95 42.35 -33.4 40.5 -34.7 Q39.3 -35.8 40.3 -36.8 L42.0 -36.9 48.05 -36.9 50.1 -36.8 Q51.05 -35.8 49.8 -34.7 L47.8 -33.4 47.8 -31.15 55.8 -6.5 Q57.25 -3.4 55.95 -0.35 L36.55 -0.35" fill="none" stroke="#3b5424" stroke-linecap="round" stroke-linejoin="round" stroke-opacity="0.3019608" stroke-width="0.8"/>
      <path d="M43.6 -33.2 L42.35 -33.4 M46.6 -33.2 L47.8 -33.4 M46.6 -33.2 L43.6 -33.2" fill="none" stroke="#3b5424" stroke-linecap="round" stroke-linejoin="round" stroke-opacity="0.2" stroke-width="0.5"/>
    </g>
    <g id="decoration92-sprite0" transform="matrix(1.0, 0.0, 0.0, 1.0, 0.15, 0.15)">
      <use height="6.1" transform="matrix(1.0, 0.0, 0.0, 1.0, -0.15, -0.15)" width="10.8" xlink:href="#decoration92-shape1"/>
    </g>
    <g id="decoration92-shape1" transform="matrix(1.0, 0.0, 0.0, 1.0, 0.15, 0.15)">
      <path d="M0.5 3.35 L2.15 0.0 8.35 0.0 10.2 3.5 Q10.85 4.65 10.2 5.8 L0.5 5.8 Q-0.45 4.75 0.5 3.35" fill="#808080" fill-rule="evenodd" stroke="none"/>
      <path d="M0.5 3.35 L2.15 0.0 8.35 0.0 10.2 3.5 Q10.85 4.65 10.2 5.8 L0.5 5.8 Q-0.45 4.75 0.5 3.35 Z" fill="none" stroke="#000000" stroke-linecap="round" stroke-linejoin="round" stroke-opacity="0.3019608" stroke-width="0.30000000000000004"/>
      <path d="M2.25 0.65 Q2.25 0.15 5.25 0.15 L8.0 0.45 8.3 0.65 Q8.35 1.05 5.25 1.15 L3.4 1.0 2.25 0.65" fill="#a1a1a1" fill-rule="evenodd" stroke="none"/>
      <path d="M8.3 0.65 L8.0 0.45 5.25 0.15 Q2.25 0.15 2.25 0.65" fill="none" stroke="#000000" stroke-linecap="round" stroke-linejoin="round" stroke-opacity="0.3019608" stroke-width="0.30000000000000004"/>
      <path d="M5.55 2.45 Q5.7 2.3 5.95 2.3 L6.4 2.45 6.55 2.9 6.4 3.25 5.95 3.4 5.55 3.25 5.4 2.9 Q5.4 2.65 5.55 2.45 M5.3 5.2 L5.15 5.5 4.95 5.55 4.65 5.5 4.55 5.2 4.65 4.9 4.95 4.8 5.15 4.9 5.3 5.2 M8.3 5.1 L7.75 4.9 Q7.6 4.7 7.6 4.4 7.6 4.2 7.75 3.95 L8.3 3.75 8.75 3.95 9.0 4.4 8.75 4.9 8.3 5.1 M2.2 3.95 L2.4 3.25 3.1 3.05 3.7 3.25 4.0 3.95 3.7 4.65 Q3.5 4.95 3.1 4.95 2.7 4.95 2.4 4.65 L2.2 3.95" fill="#a1a1a1" fill-rule="evenodd" stroke="none"/>
    </g>
    <g id="decoration92-shape2" transform="matrix(1.0, 0.0, 0.0, 1.0, 9.6, 22.85)">
      <path d="M1.55 -22.55 L0.5 -18.1 Q0.15 -16.85 -0.95 -16.75 0.15 -21.3 -0.45 -22.35 L1.55 -22.55" fill="#4d381b" fill-rule="evenodd" stroke="none"/>
      <path d="M-5.3 -22.6 L-2.25 -22.85 1.55 -22.55 -0.45 -22.35 -4.45 -22.45 -5.3 -22.6" fill="#f0c384" fill-rule="evenodd" stroke="none"/>
      <path d="M-2.7 -16.95 L-3.6 -17.6 -5.3 -22.6 -4.45 -22.45 -2.7 -16.95" fill="#cc9449" fill-rule="evenodd" stroke="none"/>
      <path d="M-0.95 -16.75 L-2.7 -16.95 -4.45 -22.45 -0.45 -22.35 Q0.15 -21.3 -0.95 -16.75" fill="#966f36" fill-rule="evenodd" stroke="none"/>
      <path d="M1.55 -22.55 L0.5 -18.1 Q0.15 -16.85 -0.95 -16.75 L-2.7 -16.95 -3.6 -17.6 -5.3 -22.6 -2.25 -22.85 1.55 -22.55 Z" fill="none" stroke="#000000" stroke-linecap="round" stroke-linejoin="round" stroke-opacity="0.3019608" stroke-width="0.05"/>
      <path d="M0.7 -20.4 L2.4 -20.4 Q3.15 -19.75 2.15 -19.05 L0.5 -18.25 0.5 -13.95 4.85 -3.9 Q6.3 -1.9 4.95 -0.1 L-7.1 -0.1 -7.65 -1.1 -1.6 -1.1 Q3.2 -2.15 2.65 -5.75 L-0.5 -13.05 -0.5 -18.15 Q1.0 -19.25 0.7 -20.4 M0.5 -18.25 L-0.5 -18.15 0.5 -18.25" fill="#7eaaa8" fill-opacity="0.65882355" fill-rule="evenodd" stroke="none"/>
      <path d="M-7.1 -0.1 L-8.85 -0.1 Q-9.5 -1.95 -8.85 -3.9 L-3.95 -13.95 -3.9 -18.25 -5.45 -19.05 Q-6.4 -19.75 -5.65 -20.4 L-4.25 -20.4 Q-4.7 -19.3 -2.9 -18.15 L-2.9 -12.3 -7.4 -3.1 Q-7.85 -2.05 -7.65 -1.1 L-7.1 -0.1 M-3.9 -18.25 L-2.9 -18.15 -3.9 -18.25" fill="#defffe" fill-opacity="0.7019608" fill-rule="evenodd" stroke="none"/>
      <path d="M-4.25 -20.4 L0.7 -20.4 Q1.0 -19.25 -0.5 -18.15 L-2.9 -18.15 -0.5 -18.15 -0.5 -13.05 2.65 -5.75 Q3.2 -2.15 -1.6 -1.1 L-7.65 -1.1 Q-7.85 -2.05 -7.4 -3.1 L-2.9 -12.3 -2.9 -18.15 Q-4.7 -19.3 -4.25 -20.4" fill="#c7e3e2" fill-opacity="0.3019608" fill-rule="evenodd" stroke="none"/>
      <path d="M0.7 -20.4 L2.4 -20.4 Q3.15 -19.75 2.15 -19.05 L0.5 -18.25 0.5 -13.95 4.85 -3.9 Q6.3 -1.9 4.95 -0.1 L-7.1 -0.1 -8.85 -0.1 Q-9.5 -1.95 -8.85 -3.9 L-3.95 -13.95 -3.9 -18.25 -5.45 -19.05 Q-6.4 -19.75 -5.65 -20.4 L-4.25 -20.4 0.7 -20.4" fill="none" stroke="#3b5424" stroke-linecap="round" stroke-linejoin="round" stroke-opacity="0.3019608" stroke-width="0.8"/>
      <path d="M-0.5 -18.15 L0.5 -18.25 M-0.5 -18.15 L-2.9 -18.15 -3.9 -18.25" fill="none" stroke="#3b5424" stroke-linecap="round" stroke-linejoin="round" stroke-opacity="0.2" stroke-width="0.5"/>
    </g>
    <g id="decoration92-shape3" transform="matrix(1.0, 0.0, 0.0, 1.0, 51.7, 83.65)">
      <path d="M44.3 -72.05 Q45.75 -71.8 45.6 -70.35 L45.55 -55.25 45.55 -38.25 43.75 -38.25 43.8 -53.3 Q43.85 -68.45 43.5 -69.35 43.1 -70.2 39.8 -69.7 L35.1 -69.15 35.15 -71.4 41.45 -71.95 44.3 -72.05" fill="#c7e3e2" fill-opacity="0.3019608" fill-rule="evenodd" stroke="none"/>
      <path d="M44.3 -72.05 L41.45 -71.95 35.15 -71.4 35.1 -69.15 39.8 -69.7 Q43.1 -70.2 43.5 -69.35 43.85 -68.45 43.8 -53.3 L43.75 -38.25 45.55 -38.25 45.55 -55.25 45.6 -70.35 Q45.75 -71.8 44.3 -72.05 Z" fill="none" stroke="#3b5424" stroke-linecap="round" stroke-linejoin="round" stroke-opacity="0.3019608" stroke-width="0.8"/>
      <path d="M-4.7 -35.05 L-1.9 -34.15 Q1.25 -32.95 1.85 -31.55 2.4 -30.45 1.15 -27.7 L-1.25 -22.8 -3.15 -22.8 -1.15 -26.15 Q0.0 -28.0 0.15 -29.8 0.25 -31.65 -1.95 -32.75 -4.15 -33.9 -6.35 -34.1 L-8.25 -34.95 -9.3 -36.3 Q-9.15 -37.95 -8.4 -37.75 -8.0 -36.55 -6.45 -35.6 L-4.7 -35.05 M-28.1 -45.4 L-27.85 -47.2 -26.15 -53.4 Q-25.15 -56.95 -25.05 -61.05 -24.95 -64.0 -25.5 -66.5 -25.6 -68.65 -24.85 -68.4 L-24.75 -68.2 Q-23.7 -65.25 -23.8 -61.2 -24.0 -56.05 -25.25 -51.15 L-25.75 -48.85 Q-26.95 -45.55 -28.1 -45.4 M-32.45 -72.4 Q-35.0 -72.85 -36.25 -74.35 -37.9 -76.25 -39.05 -76.5 -40.2 -76.65 -40.25 -75.6 -41.2 -75.7 -41.65 -74.75 -42.7 -76.15 -40.95 -77.35 -39.15 -78.55 -36.45 -75.9 -33.95 -73.5 -31.45 -73.3 -31.1 -72.7 -32.45 -72.4 M-6.85 -43.7 L-6.25 -43.95 Q-3.55 -44.8 -1.5 -42.65 -0.9 -42.05 -0.75 -41.35 -1.2 -40.5 -2.2 -39.8 L-3.15 -39.2 Q-2.9 -40.05 -3.1 -40.85 -3.5 -42.4 -5.6 -42.25 -6.25 -42.25 -6.65 -42.8 -7.05 -43.35 -6.85 -43.7" fill="#432d0b" fill-rule="evenodd" stroke="none"/>
      <path d="M-25.5 -66.5 L-26.1 -68.5 Q-27.3 -71.9 -30.95 -72.15 L-32.45 -72.4 Q-31.1 -72.7 -31.45 -73.3 L-30.95 -73.3 Q-28.2 -73.2 -27.0 -72.15 -25.9 -71.15 -24.85 -68.4 -25.6 -68.65 -25.5 -66.5 M-9.3 -36.3 L-9.8 -37.65 Q-10.5 -41.15 -7.55 -43.25 L-6.85 -43.7 Q-7.05 -43.35 -6.65 -42.8 -6.25 -42.25 -5.6 -42.25 L-5.45 -42.25 Q-6.9 -42.1 -7.7 -41.3 -8.6 -40.4 -8.6 -38.65 L-8.4 -37.75 Q-9.15 -37.95 -9.3 -36.3" fill="#704c15" fill-rule="evenodd" stroke="none"/>
      <path d="M-40.25 -75.6 L-39.35 -73.9 Q-40.3 -74.4 -40.85 -73.2 L-41.65 -74.75 Q-41.2 -75.7 -40.25 -75.6" fill="#2e1e05" fill-rule="evenodd" stroke="none"/>
      <path d="M-6.35 -34.1 Q-10.25 -31.85 -13.95 -31.45 -18.95 -31.0 -23.05 -33.7 -26.5 -35.9 -27.55 -40.2 -28.25 -43.25 -28.1 -45.4 -26.95 -45.55 -25.75 -48.85 L-26.45 -45.75 Q-26.65 -44.35 -26.5 -42.85 -25.75 -37.4 -21.3 -34.2 -19.7 -33.2 -17.95 -32.85 -12.8 -32.1 -8.25 -34.95 L-6.35 -34.1 M-0.75 -41.35 Q-0.55 -40.5 -1.05 -39.5 -2.55 -36.4 -4.7 -35.05 L-6.45 -35.6 -4.4 -37.45 -3.6 -38.55 -3.15 -39.2 -2.2 -39.8 Q-1.2 -40.5 -0.75 -41.35" fill="#1e1303" fill-rule="evenodd" stroke="none"/>
      <path d="M-4.7 -35.05 L-1.9 -34.15 Q1.25 -32.95 1.85 -31.55 2.4 -30.45 1.15 -27.7 L-1.25 -22.8 -3.15 -22.8 -1.15 -26.15 Q0.0 -28.0 0.15 -29.8 0.25 -31.65 -1.95 -32.75 -4.15 -33.9 -6.35 -34.1 -10.25 -31.85 -13.95 -31.45 -18.95 -31.0 -23.05 -33.7 -26.5 -35.9 -27.55 -40.2 -28.25 -43.25 -28.1 -45.4 L-27.85 -47.2 -26.15 -53.4 Q-25.15 -56.95 -25.05 -61.05 -24.95 -64.0 -25.5 -66.5 L-26.1 -68.5 Q-27.3 -71.9 -30.95 -72.15 L-32.45 -72.4 Q-35.0 -72.85 -36.25 -74.35 -37.9 -76.25 -39.05 -76.5 -40.2 -76.65 -40.25 -75.6 L-39.35 -73.9 Q-40.3 -74.4 -40.85 -73.2 L-41.65 -74.75 Q-42.7 -76.15 -40.95 -77.35 -39.15 -78.55 -36.45 -75.9 -33.95 -73.5 -31.45 -73.3 L-30.95 -73.3 Q-28.2 -73.2 -27.0 -72.15 -25.9 -71.15 -24.85 -68.4 L-24.75 -68.2 Q-23.7 -65.25 -23.8 -61.2 -24.0 -56.05 -25.25 -51.15 L-25.75 -48.85 -26.45 -45.75 Q-26.65 -44.35 -26.5 -42.85 -25.75 -37.4 -21.3 -34.2 -19.7 -33.2 -17.95 -32.85 -12.8 -32.1 -8.25 -34.95 L-9.3 -36.3 -9.8 -37.65 Q-10.5 -41.15 -7.55 -43.25 L-6.85 -43.7 -6.25 -43.95 Q-3.55 -44.8 -1.5 -42.65 -0.9 -42.05 -0.75 -41.35 -0.55 -40.5 -1.05 -39.5 -2.55 -36.4 -4.7 -35.05 L-6.45 -35.6 Q-8.0 -36.55 -8.4 -37.75 L-8.6 -38.65 Q-8.6 -40.4 -7.7 -41.3 -6.9 -42.1 -5.45 -42.25 L-5.6 -42.25 M-6.45 -35.6 L-4.4 -37.45 -3.6 -38.55 -3.15 -39.2 Q-2.9 -40.05 -3.1 -40.85 -3.5 -42.4 -5.6 -42.25 M-6.35 -34.1 L-8.25 -34.95 M-41.65 -74.75 Q-41.2 -75.7 -40.25 -75.6" fill="none" stroke="#000000" stroke-linecap="round" stroke-linejoin="round" stroke-opacity="0.3019608" stroke-width="0.30000000000000004"/>
      <path d="M-40.0 -74.3 L-25.35 -47.45 -25.35 -47.2 Q-25.4 -47.0 -25.55 -46.9 L-25.95 -46.85 Q-26.15 -46.85 -26.25 -47.0 L-32.65 -58.7 Q-33.3 -58.3 -35.55 -57.45 L-37.6 -56.55 -39.35 -56.3 Q-40.6 -56.65 -42.6 -61.1 -44.5 -65.4 -44.3 -66.2 -44.15 -66.7 -43.25 -67.1 -43.5 -67.95 -43.2 -68.65 L-42.85 -69.3 -39.2 -70.7 -40.05 -72.1 Q-42.5 -70.8 -43.35 -71.1 -43.95 -71.3 -44.45 -72.85 L-45.0 -74.45 -44.95 -74.7 -44.35 -75.0 Q-43.9 -75.0 -43.45 -73.6 L-42.8 -72.25 -40.5 -73.15 -40.7 -73.55 -40.9 -74.1 -40.65 -74.4 -40.25 -74.45 -40.0 -74.3 M-38.55 -66.95 L-37.4 -64.45 -36.55 -62.1 -36.65 -60.75 Q-36.85 -60.2 -38.2 -59.6 -39.6 -59.05 -40.4 -60.55 L-43.2 -65.85 -43.2 -65.1 -42.45 -63.25 -40.95 -60.1 Q-39.95 -57.55 -38.7 -57.95 L-33.15 -59.75 -38.85 -70.05 Q-39.05 -69.9 -39.55 -69.7 L-41.15 -69.1 Q-42.65 -68.7 -42.6 -68.05 L-42.25 -67.4 -41.05 -68.05 -39.65 -68.3 Q-39.05 -68.2 -38.55 -66.95 M-39.85 -67.0 L-40.9 -66.85 -41.9 -66.35 -39.5 -61.15 Q-38.6 -60.4 -37.5 -61.6 L-38.7 -64.85 Q-39.5 -66.95 -39.85 -67.0 M-43.25 -67.1 L-42.25 -67.4 -43.25 -67.1 M-43.2 -65.85 L-41.9 -66.35 -43.2 -65.85" fill="#defffe" fill-opacity="0.69411767" fill-rule="evenodd" stroke="none"/>
      <path d="M-40.0 -74.3 L-25.35 -47.45 -25.35 -47.2 Q-25.4 -47.0 -25.55 -46.9 L-25.95 -46.85 Q-26.15 -46.85 -26.25 -47.0 L-32.65 -58.7 Q-33.3 -58.3 -35.55 -57.45 L-37.6 -56.55 -39.35 -56.3 Q-40.6 -56.65 -42.6 -61.1 -44.5 -65.4 -44.3 -66.2 -44.15 -66.7 -43.25 -67.1 -43.5 -67.95 -43.2 -68.65 L-42.85 -69.3 -39.2 -70.7 -40.05 -72.1 Q-42.5 -70.8 -43.35 -71.1 -43.95 -71.3 -44.45 -72.85 L-45.0 -74.45 -44.95 -74.7 -44.35 -75.0 Q-43.9 -75.0 -43.45 -73.6 L-42.8 -72.25 -40.5 -73.15 -40.7 -73.55 -40.9 -74.1 -40.65 -74.4 -40.25 -74.45 -40.0 -74.3 M-38.55 -66.95 L-37.4 -64.45 -36.55 -62.1 -36.65 -60.75 Q-36.85 -60.2 -38.2 -59.6 -39.6 -59.05 -40.4 -60.55 L-43.2 -65.85 -43.2 -65.1 -42.45 -63.25 -40.95 -60.1 Q-39.95 -57.55 -38.7 -57.95 L-33.15 -59.75 -38.85 -70.05 Q-39.05 -69.9 -39.55 -69.7 L-41.15 -69.1 Q-42.65 -68.7 -42.6 -68.05 L-42.25 -67.4 -41.05 -68.05 -39.65 -68.3 Q-39.05 -68.2 -38.55 -66.95 M-39.85 -67.0 L-40.9 -66.85 -41.9 -66.35 -39.5 -61.15 Q-38.6 -60.4 -37.5 -61.6 L-38.7 -64.85 Q-39.5 -66.95 -39.85 -67.0 M-41.9 -66.35 L-43.2 -65.85 M-42.25 -67.4 L-43.25 -67.1" fill="none" stroke="#3b5424" stroke-linecap="round" stroke-linejoin="round" stroke-opacity="0.3019608" stroke-width="0.8"/>
      <path d="M-33.3 -63.5 Q-31.55 -63.85 -30.9 -63.25 L-29.45 -58.55 Q-29.8 -57.95 -30.6 -57.4 -31.15 -58.05 -31.6 -57.55 -31.85 -57.15 -31.6 -56.8 -32.35 -56.25 -32.95 -56.4 -33.05 -56.8 -32.55 -57.4 L-30.8 -58.65 Q-30.7 -59.0 -31.75 -60.9 L-33.3 -63.5 M-29.45 -58.55 L-30.8 -58.65 -29.45 -58.55" fill="#4d381b" fill-rule="evenodd" stroke="none"/>
      <path d="M-36.5 -61.1 Q-35.8 -62.9 -33.3 -63.5 L-31.75 -60.9 Q-30.7 -59.0 -30.8 -58.65 L-32.55 -57.4 Q-35.0 -58.85 -36.5 -61.1" fill="#966f36" fill-rule="evenodd" stroke="none"/>
      <path d="M-32.95 -56.4 L-36.85 -59.45 Q-36.95 -60.15 -36.5 -61.1 -35.0 -58.85 -32.55 -57.4 -33.05 -56.8 -32.95 -56.4" fill="#cc9449" fill-rule="evenodd" stroke="none"/>
      <path d="M-33.3 -63.5 Q-31.55 -63.85 -30.9 -63.25 L-29.45 -58.55 Q-29.8 -57.95 -30.6 -57.4 M-31.6 -56.8 Q-32.35 -56.25 -32.95 -56.4 L-36.85 -59.45 Q-36.95 -60.15 -36.5 -61.1 -35.8 -62.9 -33.3 -63.5 M-30.8 -58.65 L-29.45 -58.55 M-30.8 -58.65 L-32.55 -57.4 Q-33.05 -56.8 -32.95 -56.4" fill="none" stroke="#000000" stroke-linecap="round" stroke-linejoin="round" stroke-opacity="0.3019608" stroke-width="0.05"/>
      <path d="M32.75 -70.45 L36.55 -72.2 36.8 -71.65 36.9 -71.15 35.2 -70.6 Q33.55 -70.1 33.3 -69.85 L32.75 -70.45 33.3 -69.85 33.2 -68.5 32.8 -67.8 Q31.85 -68.85 32.75 -70.45" fill="#4d381b" fill-rule="evenodd" stroke="none"/>
      <path d="M33.3 -69.85 Q33.55 -70.1 35.2 -70.6 L36.9 -71.15 Q37.35 -70.0 37.0 -68.7 L33.2 -68.5 33.3 -69.85" fill="#966f36" fill-rule="evenodd" stroke="none"/>
      <path d="M37.0 -68.7 L36.65 -67.95 32.8 -67.8 33.2 -68.5 37.0 -68.7" fill="#cc9449" fill-rule="evenodd" stroke="none"/>
      <path d="M36.9 -71.15 L36.8 -71.65 36.55 -72.2 32.75 -70.45 33.3 -69.85 M36.9 -71.15 Q37.35 -70.0 37.0 -68.7 L36.65 -67.95 32.8 -67.8 Q31.85 -68.85 32.75 -70.45 M33.2 -68.5 L33.3 -69.85 M33.2 -68.5 L32.8 -67.8" fill="none" stroke="#000000" stroke-linecap="round" stroke-linejoin="round" stroke-opacity="0.3019608" stroke-width="0.05"/>
      <path d="M34.15 -71.35 Q34.75 -73.1 35.45 -72.1 L35.6 -71.05 Q35.1 -71.65 34.15 -70.45 L34.15 -71.35 34.15 -70.45 Q3.15 -65.7 -24.55 -58.95 L-27.4 -58.95 Q-11.55 -64.25 34.15 -71.35 M-29.9 -33.75 Q-32.55 -34.7 -34.7 -36.8 -38.45 -40.55 -38.45 -45.9 -38.45 -51.25 -34.7 -55.0 L-34.1 -56.0 Q-33.75 -57.2 -34.7 -58.15 -35.6 -57.75 -35.9 -58.45 -36.15 -59.1 -35.25 -60.25 L-34.9 -60.7 Q-35.2 -58.9 -33.15 -59.55 L-33.85 -58.95 -34.7 -58.15 -33.85 -58.95 Q-32.5 -57.65 -33.05 -56.0 -36.6 -52.35 -36.8 -44.1 -36.35 -41.05 -34.45 -38.3 -32.8 -35.95 -29.9 -33.75" fill="#defffe" fill-opacity="0.7019608" fill-rule="evenodd" stroke="none"/>
      <path d="M34.15 -70.45 Q35.1 -71.65 35.6 -71.05 L35.75 -70.0 Q35.15 -69.1 34.25 -69.45 L34.15 -70.45 34.25 -69.45 -16.1 -57.8 Q-19.95 -55.35 -17.75 -53.15 -15.2 -49.8 -15.1 -45.2 -15.6 -37.6 -22.2 -35.65 -28.55 -34.8 -34.45 -38.3 -36.35 -41.05 -36.8 -44.1 -36.6 -52.35 -33.05 -56.0 -32.5 -57.65 -33.85 -58.95 L-33.15 -59.55 Q-35.2 -58.9 -34.9 -60.7 -33.85 -61.6 -31.25 -62.4 -29.15 -62.9 -29.9 -60.7 -29.6 -59.45 -27.4 -58.95 L-24.55 -58.95 Q3.15 -65.7 34.15 -70.45 M-29.9 -60.7 Q-31.75 -60.45 -33.15 -59.55 -31.75 -60.45 -29.9 -60.7" fill="#c7e3e2" fill-opacity="0.3019608" fill-rule="evenodd" stroke="none"/>
      <path d="M35.75 -70.0 L36.05 -67.85 Q35.2 -66.95 34.55 -68.65 L-14.65 -56.55 Q-15.85 -55.6 -15.45 -53.9 -12.7 -50.5 -12.7 -45.9 -12.7 -40.55 -16.45 -36.8 -20.25 -33.0 -25.55 -33.0 -27.85 -33.0 -29.9 -33.75 -32.8 -35.95 -34.45 -38.3 -28.55 -34.8 -22.2 -35.65 -15.6 -37.6 -15.1 -45.2 -15.2 -49.8 -17.75 -53.15 -19.95 -55.35 -16.1 -57.8 L34.25 -69.45 Q35.15 -69.1 35.75 -70.0 M34.55 -68.65 L34.25 -69.45 34.55 -68.65" fill="#7eaaa8" fill-opacity="0.65882355" fill-rule="evenodd" stroke="none"/>
      <path d="M35.6 -71.05 L35.45 -72.1 Q34.75 -73.1 34.15 -71.35 L34.15 -70.45 34.25 -69.45 34.55 -68.65 -14.65 -56.55 Q-15.85 -55.6 -15.45 -53.9 -12.7 -50.5 -12.7 -45.9 -12.7 -40.55 -16.45 -36.8 -20.25 -33.0 -25.55 -33.0 -27.85 -33.0 -29.9 -33.75 -32.55 -34.7 -34.7 -36.8 -38.45 -40.55 -38.45 -45.9 -38.45 -51.25 -34.7 -55.0 L-34.1 -56.0 Q-33.75 -57.2 -34.7 -58.15 -35.6 -57.75 -35.9 -58.45 -36.15 -59.1 -35.25 -60.25 L-34.9 -60.7 Q-33.85 -61.6 -31.25 -62.4 -29.15 -62.9 -29.9 -60.7 -29.6 -59.45 -27.4 -58.95 -11.55 -64.25 34.15 -71.35 M35.6 -71.05 L35.75 -70.0 36.05 -67.85 Q35.2 -66.95 34.55 -68.65 M-33.85 -58.95 L-33.15 -59.55 Q-31.75 -60.45 -29.9 -60.7 M-34.7 -58.15 L-33.85 -58.95" fill="none" stroke="#3b5424" stroke-linecap="round" stroke-linejoin="round" stroke-opacity="0.3019608" stroke-width="0.8"/>
      <path d="M-43.7 -83.35 Q-44.45 -82.1 -44.25 -80.8 -42.85 -80.1 -42.5 -78.7 -42.2 -77.7 -42.95 -76.35 -43.85 -74.6 -45.6 -74.15 L-48.1 -74.2 Q-48.85 -74.4 -49.2 -74.7 -47.35 -74.25 -45.75 -75.05 -44.4 -75.65 -44.15 -76.55 -43.35 -78.5 -44.05 -79.6 -44.6 -80.45 -46.3 -81.3 -45.0 -81.8 -45.55 -82.6 L-44.8 -82.9 Q-44.0 -83.1 -43.7 -83.35" fill="#7eaaa8" fill-opacity="0.65882355" fill-rule="evenodd" stroke="none"/>
      <path d="M-50.0 -81.4 L-47.5 -82.05 -45.55 -82.6 Q-45.0 -81.8 -46.3 -81.3 -44.6 -80.45 -44.05 -79.6 -43.35 -78.5 -44.15 -76.55 -44.4 -75.65 -45.75 -75.05 -47.35 -74.25 -49.2 -74.7 -50.95 -79.55 -46.35 -81.25 L-47.45 -81.1 -48.3 -80.8 Q-49.55 -80.8 -50.0 -81.4" fill="#c7e3e2" fill-opacity="0.3019608" fill-rule="evenodd" stroke="none"/>
      <path d="M-49.2 -74.7 Q-50.25 -75.35 -50.55 -76.55 -50.95 -77.95 -50.05 -79.35 L-49.75 -79.7 Q-50.3 -80.85 -51.3 -81.2 L-50.3 -81.45 -50.0 -81.4 Q-49.55 -80.8 -48.3 -80.8 L-47.45 -81.1 -46.35 -81.25 Q-50.95 -79.55 -49.2 -74.7" fill="#defffe" fill-opacity="0.7019608" fill-rule="evenodd" stroke="none"/>
      <path d="M-51.3 -81.2 L-51.45 -81.3 Q-51.5 -81.45 -50.4 -81.8 L-47.65 -82.65 -44.9 -83.3 -43.7 -83.35 Q-44.45 -82.1 -44.25 -80.8 -42.85 -80.1 -42.5 -78.7 -42.2 -77.7 -42.95 -76.35 -43.85 -74.6 -45.6 -74.15 L-48.1 -74.2 Q-48.85 -74.4 -49.2 -74.7 -50.25 -75.35 -50.55 -76.55 -50.95 -77.95 -50.05 -79.35 L-49.75 -79.7 Q-50.3 -80.85 -51.3 -81.2 L-50.3 -81.45 -50.0 -81.4 -47.5 -82.05 -45.55 -82.6 -44.8 -82.9 Q-44.0 -83.1 -43.7 -83.35" fill="none" stroke="#3b5424" stroke-linecap="round" stroke-linejoin="round" stroke-opacity="0.3019608" stroke-width="0.55"/>
    </g>
    <g id="decoration92-sprite1" transform="matrix(1.0, 0.0, 0.0, 1.0, 0.15, 0.15)">
      <use height="9.6" transform="matrix(1.0, 0.0, 0.0, 1.0, -0.15, -0.15)" width="22.4" xlink:href="#decoration92-shape4"/>
    </g>
    <g id="decoration92-shape4" transform="matrix(1.0, 0.0, 0.0, 1.0, 0.15, 0.15)">
      <path d="M0.0 0.65 L3.2 0.15 Q6.45 0.0 11.05 0.0 15.65 0.0 18.9 0.15 L22.1 0.7 22.0 0.8 18.9 1.1 11.05 1.35 3.2 1.1 0.0 0.65 M10.9 3.7 L11.15 4.15 10.9 4.65 10.35 4.9 9.75 4.65 Q9.6 4.5 9.6 4.15 9.6 3.95 9.75 3.7 L10.35 3.45 Q10.75 3.45 10.9 3.7 M14.1 6.0 Q14.45 6.35 14.45 6.75 14.45 7.2 14.1 7.45 L13.35 7.8 Q12.9 7.8 12.5 7.45 12.2 7.2 12.2 6.75 12.2 6.35 12.5 6.0 12.9 5.7 13.35 5.7 13.75 5.7 14.1 6.0 M12.95 3.55 L13.05 3.2 Q13.2 3.05 13.4 3.05 L13.8 3.2 14.05 3.55 13.8 3.85 13.4 4.0 13.05 3.85 12.95 3.55" fill="#989898" fill-rule="evenodd" stroke="none"/>
      <path d="M22.0 0.8 Q21.8 4.15 18.8 6.65 15.55 9.3 10.95 9.3 6.45 9.3 3.2 6.65 0.15 4.1 0.0 0.65 L3.2 1.1 11.05 1.35 18.9 1.1 22.0 0.8 M12.95 3.55 L13.05 3.85 13.4 4.0 13.8 3.85 14.05 3.55 13.8 3.2 13.4 3.05 Q13.2 3.05 13.05 3.2 L12.95 3.55 M14.1 6.0 Q13.75 5.7 13.35 5.7 12.9 5.7 12.5 6.0 12.2 6.35 12.2 6.75 12.2 7.2 12.5 7.45 12.9 7.8 13.35 7.8 L14.1 7.45 Q14.45 7.2 14.45 6.75 14.45 6.35 14.1 6.0 M10.9 3.7 Q10.75 3.45 10.35 3.45 L9.75 3.7 Q9.6 3.95 9.6 4.15 9.6 4.5 9.75 4.65 L10.35 4.9 10.9 4.65 11.15 4.15 10.9 3.7" fill="url(#decoration92-gradient0)" fill-rule="evenodd" stroke="none"/>
      <path d="M0.0 0.65 L3.2 0.15 Q6.45 0.0 11.05 0.0 15.65 0.0 18.9 0.15 L22.1 0.7 22.0 0.8 Q21.8 4.15 18.8 6.65 15.55 9.3 10.95 9.3 6.45 9.3 3.2 6.65 0.15 4.1 0.0 0.65 Z" fill="none" stroke="#000000" stroke-linecap="round" stroke-linejoin="round" stroke-opacity="0.3019608" stroke-width="0.30000000000000004"/>
      <path d="M17.9 3.55 Q18.85 1.75 20.15 1.65 21.15 1.5 21.25 2.6 L21.25 3.0 Q20.95 4.2 19.15 6.15 18.55 6.7 16.15 7.6 14.95 7.9 14.6 8.15 L15.7 6.85 Q17.1 5.2 17.9 3.55" fill="#989898" fill-opacity="0.85882354" fill-rule="evenodd" stroke="none"/>
    </g>
    <linearGradient gradientTransform="matrix(0.0074, -0.0053, 0.0035, 0.0042, 14.25, 3.85)" gradientUnits="userSpaceOnUse" id="decoration92-gradient0" spreadMethod="pad" x1="-819.2" x2="819.2">
      <stop offset="0.00392156862745098" stop-color="#808080"/>
      <stop offset="1.0" stop-color="#3f3f3f"/>
    </linearGradient>
    <g id="decoration92-shape5" transform="matrix(1.0, 0.0, 0.0, 1.0, 33.75, 76.1)">
      <path d="M-16.6 -34.3 L-16.6 -30.2 -32.5 -30.2 Q-34.0 -32.0 -32.5 -34.3 L-16.6 -34.3" fill="#353233" fill-rule="evenodd" stroke="none"/>
      <path d="M-5.45 -58.55 Q-7.55 -58.15 -8.05 -60.7 -8.5 -63.25 -6.9 -64.45 L-6.9 -67.2 -16.6 -67.2 -16.6 -34.3 -16.6 -30.2 -11.75 -30.2 -11.75 -33.1 M-16.6 -67.2 L-20.15 -67.2 -20.15 -64.7 M-20.15 -69.15 L-20.15 -67.2 M-16.6 -67.2 L-16.6 -75.6 M-11.75 -30.2 L-11.75 -28.05 M-16.6 -30.2 L-32.5 -30.2 Q-34.0 -32.0 -32.5 -34.3 L-16.6 -34.3 M-16.6 -30.2 L-16.6 0.05 17.35 0.05" fill="none" stroke="#2a2a2a" stroke-linecap="round" stroke-linejoin="round" stroke-opacity="0.8" stroke-width="1.0"/>
      <path d="M-6.9 -64.45 Q-5.4 -64.65 -4.85 -62.0 -4.3 -59.4 -5.45 -58.55 Z" fill="none" stroke="#2a2a2a" stroke-linecap="round" stroke-linejoin="round" stroke-opacity="0.45882353" stroke-width="1.0"/>
      <path d="M-16.55 -18.25 Q-16.55 -12.55 -18.9 -8.5 -21.25 -4.5 -24.5 -4.5 -27.85 -4.5 -30.15 -8.5 -32.5 -12.55 -32.5 -18.25 -32.5 -23.95 -30.15 -28.0 -27.85 -32.0 -24.5 -32.0 -21.25 -32.0 -18.9 -28.0 -16.55 -23.95 -16.55 -18.25" fill="url(#decoration92-gradient1)" fill-rule="evenodd" stroke="none"/>
      <path d="M-24.1 -14.25 Q-27.15 -14.9 -26.65 -17.95 -26.15 -21.05 -24.75 -22.95 -23.1 -26.1 -24.0 -29.75 -22.05 -25.15 -23.5 -21.55 L-23.25 -19.85 -22.35 -18.0 Q-21.55 -16.25 -22.0 -15.45 -22.5 -14.6 -23.4 -14.55 -22.55 -16.0 -23.3 -17.15 -24.6 -18.85 -24.6 -20.95 -25.0 -18.05 -24.7 -16.0 -25.6 -16.35 -25.25 -18.75 -26.65 -15.85 -24.1 -14.25" fill="url(#decoration92-gradient2)" fill-rule="evenodd" stroke="none"/>
      <path d="M-23.4 -14.55 L-24.1 -14.25 Q-26.65 -15.85 -25.25 -18.75 -25.6 -16.35 -24.7 -16.0 -25.0 -18.05 -24.6 -20.95 -24.6 -18.85 -23.3 -17.15 -22.55 -16.0 -23.4 -14.55" fill="#fff1b4" fill-rule="evenodd" stroke="none"/>
    </g>
    <radialGradient cx="0" cy="0" gradientTransform="matrix(0.0093, 0.0, 0.0, 0.0166, -24.5, -18.25)" gradientUnits="userSpaceOnUse" id="decoration92-gradient1" r="819.2" spreadMethod="pad">
      <stop offset="0.0" stop-color="#fffdf5" stop-opacity="0.8784314"/>
      <stop offset="0.14901960784313725" stop-color="#ffd202" stop-opacity="0.7019608"/>
      <stop offset="0.39215686274509803" stop-color="#f79331" stop-opacity="0.5411765"/>
      <stop offset="0.615686274509804" stop-color="#fcc86f" stop-opacity="0.14117648"/>
      <stop offset="1.0" stop-color="#ffdd87" stop-opacity="0.0"/>
    </radialGradient>
    <linearGradient gradientTransform="matrix(0.0, 0.0062, -0.0061, 0.0, -24.6, -18.35)" gradientUnits="userSpaceOnUse" id="decoration92-gradient2" spreadMethod="pad" x1="-819.2" x2="819.2">
      <stop offset="0.0" stop-color="#f35225"/>
      <stop offset="0.9882352941176471" stop-color="#ffe362"/>
    </linearGradient>
    <g id="decoration92-shape6" transform="matrix(1.0, 0.0, 0.0, 1.0, 31.75, 14.4)">
      <path d="M-17.15 0.5 L-31.6 0.5 -23.95 -3.8 -17.15 0.5" fill="url(#decoration92-gradient3)" fill-rule="evenodd" stroke="none"/>
      <path d="M-17.15 0.5 L-23.95 -3.8 -31.6 0.5 -17.15 0.5 Z" fill="none" stroke="#000000" stroke-linecap="round" stroke-linejoin="round" stroke-opacity="0.3019608" stroke-width="0.30000000000000004"/>
      <path d="M-22.75 -8.05 L-22.75 -3.75 Q-22.75 -2.6 -23.25 -2.6 L-24.8 -2.6 Q-25.3 -2.6 -25.3 -3.75 L-25.3 -13.1 Q-25.3 -14.25 -24.8 -14.25 L-23.25 -14.25 Q-22.75 -14.25 -22.75 -13.1 L-22.75 -8.05 Q-22.75 -8.65 -23.45 -8.65 -24.15 -8.65 -24.15 -8.0 -24.2 -7.4 -23.5 -7.4 -23.25 -7.4 -23.0 -7.65 L-22.75 -8.05 M-25.15 -4.95 Q-25.1 -4.3 -24.5 -4.3 L-24.0 -4.6 -23.9 -4.9 Q-23.9 -5.55 -24.45 -5.55 -25.15 -5.55 -25.15 -4.95 M-25.0 -11.15 Q-25.0 -10.4 -24.4 -10.4 -24.05 -10.4 -23.85 -10.65 L-23.65 -11.05 Q-23.65 -11.65 -24.3 -11.85 -25.0 -12.0 -25.0 -11.15" fill="url(#decoration92-gradient4)" fill-rule="evenodd" stroke="none"/>
      <path d="M-22.75 -8.05 L-23.0 -7.65 Q-23.25 -7.4 -23.5 -7.4 -24.2 -7.4 -24.15 -8.0 -24.15 -8.65 -23.45 -8.65 -22.75 -8.65 -22.75 -8.05 M-25.0 -11.15 Q-25.0 -12.0 -24.3 -11.85 -23.65 -11.65 -23.65 -11.05 L-23.85 -10.65 Q-24.05 -10.4 -24.4 -10.4 -25.0 -10.4 -25.0 -11.15 M-25.15 -4.95 Q-25.15 -5.55 -24.45 -5.55 -23.9 -5.55 -23.9 -4.9 L-24.0 -4.6 -24.5 -4.3 Q-25.1 -4.3 -25.15 -4.95" fill="#464442" fill-rule="evenodd" stroke="none"/>
      <path d="M-22.75 -8.05 L-22.75 -13.1 Q-22.75 -14.25 -23.25 -14.25 L-24.8 -14.25 Q-25.3 -14.25 -25.3 -13.1 L-25.3 -3.75 Q-25.3 -2.6 -24.8 -2.6 L-23.25 -2.6 Q-22.75 -2.6 -22.75 -3.75 L-22.75 -8.05 Z" fill="none" stroke="#000000" stroke-linecap="round" stroke-linejoin="round" stroke-opacity="0.3019608" stroke-width="0.30000000000000004"/>
    </g>
    <linearGradient gradientTransform="matrix(0.0104, 0.0, 0.0, 0.0026, -24.4, -1.65)" gradientUnits="userSpaceOnUse" id="decoration92-gradient3" spreadMethod="pad" x1="-819.2" x2="819.2">
      <stop offset="0.00784313725490196" stop-color="#807e7d"/>
      <stop offset="0.3568627450980392" stop-color="#b4b4b4"/>
      <stop offset="0.5254901960784314" stop-color="#646262"/>
      <stop offset="0.796078431372549" stop-color="#959494"/>
    </linearGradient>
    <linearGradient gradientTransform="matrix(0.002, 0.0, 0.0, 0.0071, -24.05, -8.45)" gradientUnits="userSpaceOnUse" id="decoration92-gradient4" spreadMethod="pad" x1="-819.2" x2="819.2">
      <stop offset="0.00784313725490196" stop-color="#807e7d"/>
      <stop offset="0.3568627450980392" stop-color="#b4b4b4"/>
      <stop offset="0.5254901960784314" stop-color="#646262"/>
      <stop offset="0.796078431372549" stop-color="#959494"/>
    </linearGradient>
    <g id="decoration92-sprite3" transform="matrix(1.0, 0.0, 0.0, 1.0, -2.6, 0.05)">
      <use height="116.85" transform="matrix(1.0, 0.0, 0.0, 1.0, 2.6, -0.05)" width="220.6" xlink:href="#decoration92-shape7"/>
    </g>
    <g id="decoration92-shape7" transform="matrix(1.0, 0.0, 0.0, 1.0, -2.6, 0.05)">
      <path d="M216.6 72.9 Q209.6 82.3 197.3 90.5 165.65 111.5 112.85 116.1 61.0 120.6 28.05 95.7 15.85 86.45 8.7 74.85 2.6 65.0 2.6 58.05 2.6 51.0 7.9 41.95 14.25 31.1 25.85 22.35 57.15 -1.2 112.85 0.0 173.9 1.15 201.1 17.6 224.7 31.9 223.1 58.05 222.7 64.7 216.6 72.9" fill="url(#decoration92-gradient5)" fill-rule="evenodd" stroke="none"/>
    </g>
    <radialGradient cx="0" cy="0" gradientTransform="matrix(0.0971, 0.0, 0.0, 0.0572, 109.5, 53.65)" gradientUnits="userSpaceOnUse" id="decoration92-gradient5" r="819.2" spreadMethod="pad">
      <stop offset="0.0" stop-color="#cdfdff" stop-opacity="0.45882353"/>
      <stop offset="0.19607843137254902" stop-color="#dafdff" stop-opacity="0.34117648"/>
      <stop offset="1.0" stop-color="#ffffff" stop-opacity="0.0"/>
    </radialGradient>
  </defs>
</svg>
