<?xml version="1.0" encoding="UTF-8" standalone="no"?>
<svg xmlns:xlink="http://www.w3.org/1999/xlink" height="1002.0px" width="1002.0px" xmlns="http://www.w3.org/2000/svg">
  <g transform="matrix(1.0, 0.0, 0.0, 1.0, 1.0, 1.0)">
    <use height="1002.0" transform="matrix(1.0, 0.0, 0.0, 1.0, -1.0, -1.0)" width="1002.0" xlink:href="#shape0"/>
  </g>
  <defs>
    <g id="shape0" transform="matrix(1.0, 0.0, 0.0, 1.0, 1.0, 1.0)">
      <path d="M0.0 0.0 L1000.0 0.0 1000.0 8.0 881.0 92.5 361.0 92.5 96.5 92.5 0.0 0.0" fill="#95653f" fill-rule="evenodd" stroke="none"/>
      <path d="M361.0 92.5 L881.0 92.5 1000.0 8.0 910.0 107.45 910.0 765.45 892.0 110.0 361.0 92.5" fill="#bf9f85" fill-rule="evenodd" stroke="none"/>
      <path d="M96.5 92.5 L361.0 92.5 892.0 110.0 910.0 765.45 910.0 859.0 116.5 842.5 96.5 107.45 96.5 92.5" fill="url(#gradient0)" fill-rule="evenodd" stroke="none"/>
      <path d="M1000.0 8.0 L1000.0 1000.0 910.0 859.0 910.0 765.45 910.0 107.45 1000.0 8.0" fill="url(#gradient1)" fill-rule="evenodd" stroke="none"/>
      <path d="M0.0 0.0 L96.5 92.5 96.5 107.45 96.5 847.5 0.0 1000.0 0.0 0.0" fill="url(#gradient2)" fill-rule="evenodd" stroke="none"/>
      <path d="M1000.0 1000.0 L0.0 1000.0 113.0 859.0 910.0 859.0 1000.0 1000.0 M643.0 927.5 Q509.5 944.5 379.0 952.5 L59.5 973.0 Q63.5 979.0 472.0 983.5 881.0 988.0 891.5 981.0 905.0 971.85 919.75 959.75 937.5 945.2 937.5 941.5 937.5 909.0 909.0 901.5 884.5 895.0 815.0 903.5 715.0 918.0 643.0 927.5" fill="#2c0a00" fill-rule="evenodd" stroke="none"/>
      <path d="M643.0 927.5 Q715.0 918.0 815.0 903.5 884.5 895.0 909.0 901.5 937.5 909.0 937.5 941.5 937.5 945.2 919.75 959.75 905.0 971.85 891.5 981.0 881.0 988.0 472.0 983.5 63.5 979.0 59.5 973.0 L379.0 952.5 Q509.5 944.5 643.0 927.5" fill="url(#gradient3)" fill-rule="evenodd" stroke="none"/>
      <path d="M0.0 1000.0 L96.5 847.5 96.5 107.45 116.5 842.5 910.0 859.0 113.0 859.0 0.0 1000.0" fill="url(#gradient4)" fill-rule="evenodd" stroke="none"/>
      <path d="M1000.0 8.0 L1000.0 0.0 0.0 0.0 M1000.0 8.0 L1000.0 1000.0 0.0 1000.0 0.0 0.0" fill="none" stroke="#000000" stroke-linecap="round" stroke-linejoin="round" stroke-opacity="0.3019608" stroke-width="2.0"/>
    </g>
    <linearGradient gradientTransform="matrix(-0.4977, 0.8617, -0.4031, -0.2332, 499.95, -1.5)" gradientUnits="userSpaceOnUse" id="gradient0" spreadMethod="pad" x1="-819.2" x2="819.2">
      <stop offset="0.050980392156862744" stop-color="#955e27"/>
      <stop offset="0.9607843137254902" stop-color="#4d1606"/>
    </linearGradient>
    <linearGradient gradientTransform="matrix(-0.0427, 0.4861, -0.6018, -0.0531, 962.5, 745.55)" gradientUnits="userSpaceOnUse" id="gradient1" spreadMethod="pad" x1="-819.2" x2="819.2">
      <stop offset="0.0" stop-color="#541806"/>
      <stop offset="1.0" stop-color="#280b03"/>
    </linearGradient>
    <linearGradient gradientTransform="matrix(-0.1926, 0.3897, -0.5452, -0.2705, 8.55, 666.5)" gradientUnits="userSpaceOnUse" id="gradient2" spreadMethod="pad" x1="-819.2" x2="819.2">
      <stop offset="0.0" stop-color="#541806"/>
      <stop offset="0.9450980392156862" stop-color="#3c0e00"/>
    </linearGradient>
    <linearGradient gradientTransform="matrix(-0.0123, -0.0848, 0.052, -0.0076, 511.05, 998.4)" gradientUnits="userSpaceOnUse" id="gradient3" spreadMethod="pad" x1="-819.2" x2="819.2">
      <stop offset="0.0" stop-color="#39140c"/>
      <stop offset="0.9725490196078431" stop-color="#2c0a00"/>
    </linearGradient>
    <linearGradient gradientTransform="matrix(-0.1475, 0.256, -0.4708, -0.2724, 195.25, 847.35)" gradientUnits="userSpaceOnUse" id="gradient4" spreadMethod="pad" x1="-819.2" x2="819.2">
      <stop offset="0.0" stop-color="#a8633a"/>
      <stop offset="1.0" stop-color="#5d2c10"/>
    </linearGradient>
  </defs>
</svg>
