<?xml version="1.0" encoding="UTF-8" standalone="no"?>
<svg xmlns:xlink="http://www.w3.org/1999/xlink" height="1000.5px" width="1000.5px" xmlns="http://www.w3.org/2000/svg">
  <g transform="matrix(1.0, 0.0, 0.0, 1.0, 0.25, 0.25)">
    <use height="1000.5" transform="matrix(1.0, 0.0, 0.0, 1.0, -0.25, -0.25)" width="1000.5" xlink:href="#shape0"/>
  </g>
  <defs>
    <g id="shape0" transform="matrix(1.0, 0.0, 0.0, 1.0, 0.25, 0.25)">
      <path d="M0.0 103.5 L0.0 0.0 999.9 0.0 999.9 47.25 Q983.1 49.2 943.35 55.35 903.6 61.5 806.75 90.85 709.85 120.2 665.5 175.0 615.0 146.0 576.0 143.0 484.0 10.0 346.95 74.5 246.45 29.0 154.0 86.0 117.0 112.5 112.5 150.5 108.0 188.5 165.5 177.5 120.5 191.0 104.0 168.0 92.5 121.0 140.5 78.0 60.0 55.0 0.0 103.5" fill="url(#gradient0)" fill-rule="evenodd" stroke="none"/>
      <path d="M665.5 175.0 Q709.85 120.2 806.75 90.85 903.6 61.5 943.35 55.35 983.1 49.2 999.9 47.25 L1000.0 238.5 Q988.2 234.7 961.65 227.45 L896.65 209.45 Q858.25 198.65 821.0 211.2 783.7 223.75 764.95 248.0 710.45 201.0 665.5 175.0" fill="url(#gradient1)" fill-rule="evenodd" stroke="none"/>
      <path d="M1000.0 238.5 L1000.0 331.85 Q974.6 327.55 924.9 327.4 875.2 327.2 835.95 343.5 738.95 365.0 693.0 509.05 676.5 523.05 654.5 552.5 638.0 575.0 649.5 602.0 657.0 621.5 657.0 628.5 L654.0 657.5 Q645.0 682.5 615.5 682.5 580.5 682.5 580.5 664.5 580.5 649.5 595.5 646.0 607.0 649.0 610.0 653.0 591.0 649.0 589.0 661.0 587.0 673.0 615.5 673.0 633.0 673.0 640.0 655.0 645.0 642.0 642.5 628.0 640.5 615.5 623.5 598.5 L607.0 584.0 Q505.5 547.0 426.5 618.0 339.45 504.05 173.5 571.5 89.5 544.05 0.0 556.5 L0.0 248.0 Q130.0 230.5 219.0 269.5 256.45 285.5 286.45 312.0 352.45 412.55 310.95 449.05 289.45 467.05 274.45 470.55 L281.45 471.05 Q322.45 460.55 332.45 427.05 340.95 399.5 329.45 354.0 415.0 241.5 528.5 304.5 571.0 328.0 591.5 365.0 580.5 326.5 539.0 303.0 588.5 197.5 764.95 248.0 783.7 223.75 821.0 211.2 858.25 198.65 896.65 209.45 L961.65 227.45 Q988.2 234.7 1000.0 238.5 M249.45 405.0 Q255.45 401.5 268.45 410.55 280.95 419.55 280.95 426.05 L282.45 411.05 Q282.45 397.5 263.95 396.0 244.95 394.0 235.95 405.0 228.0 415.05 228.0 427.55 L235.45 418.55 249.45 405.0" fill="url(#gradient2)" fill-rule="evenodd" stroke="none"/>
      <path d="M1000.0 331.85 L1000.0 402.5 Q933.2 393.8 834.4 428.85 735.6 463.85 693.0 509.05 738.95 365.0 835.95 343.5 875.2 327.2 924.9 327.4 974.6 327.55 1000.0 331.85" fill="url(#gradient3)" fill-rule="evenodd" stroke="none"/>
      <path d="M576.0 143.0 Q615.0 146.0 665.5 175.0 710.45 201.0 764.95 248.0 588.5 197.5 539.0 303.0 580.5 326.5 591.5 365.0 571.0 328.0 528.5 304.5 415.0 241.5 329.45 354.0 340.95 399.5 332.45 427.05 322.45 460.55 281.45 471.05 L274.45 470.55 Q289.45 467.05 310.95 449.05 352.45 412.55 286.45 312.0 256.45 285.5 219.0 269.5 392.45 95.0 576.0 143.0 M249.45 405.0 L235.45 418.55 228.0 427.55 Q228.0 415.05 235.95 405.0 244.95 394.0 263.95 396.0 282.45 397.5 282.45 411.05 L280.95 426.05 Q280.95 419.55 268.45 410.55 255.45 401.5 249.45 405.0" fill="url(#gradient4)" fill-rule="evenodd" stroke="none"/>
      <path d="M1000.0 402.5 L1000.0 760.0 Q990.6 759.05 975.5 759.95 945.3 761.85 916.8 771.3 876.9 784.55 846.1 811.1 807.55 844.3 785.45 896.5 710.95 834.5 593.5 815.5 526.0 806.0 475.0 826.0 334.45 624.5 173.5 571.5 339.45 504.05 426.5 618.0 505.5 547.0 607.0 584.0 L623.5 598.5 Q640.5 615.5 642.5 628.0 645.0 642.0 640.0 655.0 633.0 673.0 615.5 673.0 587.0 673.0 589.0 661.0 591.0 649.0 610.0 653.0 607.0 649.0 595.5 646.0 580.5 649.5 580.5 664.5 580.5 682.5 615.5 682.5 645.0 682.5 654.0 657.5 L657.0 628.5 Q657.0 621.5 649.5 602.0 638.0 575.0 654.5 552.5 676.5 523.05 693.0 509.05 735.6 463.85 834.4 428.85 933.2 393.8 1000.0 402.5" fill="url(#gradient5)" fill-rule="evenodd" stroke="none"/>
      <path d="M0.0 103.5 Q60.0 55.0 140.5 78.0 92.5 121.0 104.0 168.0 120.5 191.0 165.5 177.5 108.0 188.5 112.5 150.5 117.0 112.5 154.0 86.0 246.45 29.0 346.95 74.5 484.0 10.0 576.0 143.0 392.45 95.0 219.0 269.5 130.0 230.5 0.0 248.0 L0.0 103.5" fill="url(#gradient6)" fill-rule="evenodd" stroke="none"/>
      <path d="M0.0 784.0 L0.0 556.5 Q89.5 544.05 173.5 571.5 334.45 624.5 475.0 826.0 438.5 840.5 410.5 870.0 441.5 907.5 448.5 942.0 431.0 907.0 399.95 879.0 320.45 806.0 201.5 853.0 117.5 788.0 0.0 784.0" fill="url(#gradient7)" fill-rule="evenodd" stroke="none"/>
      <path d="M1000.0 760.0 L999.75 1000.0 0.0 1000.0 0.0 784.0 Q117.5 788.0 201.5 853.0 320.45 806.0 399.95 879.0 431.0 907.0 448.5 942.0 441.5 907.5 410.5 870.0 438.5 840.5 475.0 826.0 526.0 806.0 593.5 815.5 710.95 834.5 785.45 896.5 807.55 844.3 846.1 811.1 876.9 784.55 916.8 771.3 945.3 761.85 975.5 759.95 990.6 759.05 1000.0 760.0" fill="url(#gradient8)" fill-rule="evenodd" stroke="none"/>
      <path d="M999.9 47.25 L999.9 0.0 0.0 0.0 0.0 103.5 M999.9 47.25 L1000.0 238.5 1000.0 331.85 1000.0 402.5 1000.0 760.0 999.75 1000.0 0.0 1000.0 0.0 784.0 0.0 556.5 0.0 248.0 0.0 103.5" fill="none" stroke="#ffffff" stroke-linecap="round" stroke-linejoin="round" stroke-opacity="0.2784314" stroke-width="0.5"/>
    </g>
    <linearGradient gradientTransform="matrix(0.0, 0.2771, -0.1068, 0.0, 494.5, 87.5)" gradientUnits="userSpaceOnUse" id="gradient0" spreadMethod="pad" x1="-819.2" x2="819.2">
      <stop offset="0.0392156862745098" stop-color="#f3fbff" stop-opacity="0.31764707"/>
      <stop offset="0.5215686274509804" stop-color="#ccf0fd" stop-opacity="0.101960786"/>
      <stop offset="1.0" stop-color="#5fc9ec" stop-opacity="0.2784314"/>
    </linearGradient>
    <linearGradient gradientTransform="matrix(-0.025, 0.2025, -0.1187, -0.0146, 801.95, 195.5)" gradientUnits="userSpaceOnUse" id="gradient1" spreadMethod="pad" x1="-819.2" x2="819.2">
      <stop offset="0.0392156862745098" stop-color="#f3fbff" stop-opacity="0.31764707"/>
      <stop offset="0.5215686274509804" stop-color="#ccf0fd" stop-opacity="0.101960786"/>
      <stop offset="1.0" stop-color="#5fc9ec" stop-opacity="0.2784314"/>
    </linearGradient>
    <linearGradient gradientTransform="matrix(0.0699, 0.3658, -0.2543, 0.0485, 521.0, 510.55)" gradientUnits="userSpaceOnUse" id="gradient2" spreadMethod="pad" x1="-819.2" x2="819.2">
      <stop offset="0.0392156862745098" stop-color="#f3fbff" stop-opacity="0.31764707"/>
      <stop offset="0.5215686274509804" stop-color="#ccf0fd" stop-opacity="0.101960786"/>
      <stop offset="1.0" stop-color="#5fc9ec" stop-opacity="0.2784314"/>
    </linearGradient>
    <linearGradient gradientTransform="matrix(0.0333, 0.1242, -0.1395, 0.0374, 854.95, 418.55)" gradientUnits="userSpaceOnUse" id="gradient3" spreadMethod="pad" x1="-819.2" x2="819.2">
      <stop offset="0.0" stop-color="#f3fbff" stop-opacity="0.3882353"/>
      <stop offset="0.5215686274509804" stop-color="#ccf0fd" stop-opacity="0.101960786"/>
      <stop offset="1.0" stop-color="#5fc9ec" stop-opacity="0.2784314"/>
    </linearGradient>
    <linearGradient gradientTransform="matrix(0.0671, 0.2509, -0.132, 0.0354, 487.0, 272.5)" gradientUnits="userSpaceOnUse" id="gradient4" spreadMethod="pad" x1="-819.2" x2="819.2">
      <stop offset="0.0392156862745098" stop-color="#f3fbff" stop-opacity="0.31764707"/>
      <stop offset="0.5215686274509804" stop-color="#ccf0fd" stop-opacity="0.101960786"/>
      <stop offset="1.0" stop-color="#5fc9ec" stop-opacity="0.2784314"/>
    </linearGradient>
    <linearGradient gradientTransform="matrix(0.1942, 0.3365, -0.2611, 0.1508, 645.0, 763.0)" gradientUnits="userSpaceOnUse" id="gradient5" spreadMethod="pad" x1="-819.2" x2="819.2">
      <stop offset="0.03529411764705882" stop-color="#ffffff" stop-opacity="0.36862746"/>
      <stop offset="0.5058823529411764" stop-color="#ccf0fd" stop-opacity="0.2509804"/>
      <stop offset="0.9529411764705882" stop-color="#5fc9ec" stop-opacity="0.21960784"/>
    </linearGradient>
    <linearGradient gradientTransform="matrix(0.0, 0.2734, -0.1318, 0.0, 272.95, 214.0)" gradientUnits="userSpaceOnUse" id="gradient6" spreadMethod="pad" x1="-819.2" x2="819.2">
      <stop offset="0.0392156862745098" stop-color="#f3fbff" stop-opacity="0.31764707"/>
      <stop offset="0.5215686274509804" stop-color="#ccf0fd" stop-opacity="0.101960786"/>
      <stop offset="1.0" stop-color="#5fc9ec" stop-opacity="0.2784314"/>
    </linearGradient>
    <linearGradient gradientTransform="matrix(-5.0E-4, 0.1706, -0.2029, -5.0E-4, 163.5, 832.5)" gradientUnits="userSpaceOnUse" id="gradient7" spreadMethod="pad" x1="-819.2" x2="819.2">
      <stop offset="0.00392156862745098" stop-color="#f3fbff" stop-opacity="0.34117648"/>
      <stop offset="0.5215686274509804" stop-color="#ccf0fd" stop-opacity="0.16862746"/>
      <stop offset="1.0" stop-color="#5fc9ec" stop-opacity="0.2784314"/>
    </linearGradient>
    <linearGradient gradientTransform="matrix(0.0, 0.2356, -0.1465, 0.0, 530.0, 970.5)" gradientUnits="userSpaceOnUse" id="gradient8" spreadMethod="pad" x1="-819.2" x2="819.2">
      <stop offset="0.027450980392156862" stop-color="#dbf3ff" stop-opacity="0.28627452"/>
      <stop offset="0.5215686274509804" stop-color="#ccf0fd" stop-opacity="0.101960786"/>
      <stop offset="1.0" stop-color="#5fc9ec" stop-opacity="0.2784314"/>
    </linearGradient>
  </defs>
</svg>
