<?xml version="1.0" encoding="UTF-8" standalone="no"?>
<svg xmlns:xlink="http://www.w3.org/1999/xlink" height="100.45px" width="99.75px" xmlns="http://www.w3.org/2000/svg">
  <g transform="matrix(1.0, 0.0, 0.0, 1.0, 0.0, 0.0)">
    <use height="100.45" transform="matrix(1.0, 0.0, 0.0, 1.0, 0.0, 0.0)" width="99.75" xlink:href="#shape0"/>
  </g>
  <defs>
    <g id="shape0" transform="matrix(1.0, 0.0, 0.0, 1.0, 0.0, 0.0)">
      <path d="M99.4 7.0 Q53.1 62.05 10.95 99.6 L5.95 99.55 Q-1.9 96.5 0.65 76.7 L71.55 0.2 93.55 0.3 Q98.75 3.4 99.4 7.0" fill="url(#gradient0)" fill-rule="evenodd" stroke="none"/>
      <path d="M99.75 69.95 Q85.5 85.3 73.2 100.45 L63.8 99.95 Q82.65 80.3 99.75 58.9 L99.75 69.95" fill="url(#gradient1)" fill-rule="evenodd" stroke="none"/>
      <path d="M1.0 36.65 Q16.45 23.05 31.55 0.0 L45.35 0.15 Q21.7 25.4 1.0 50.65 L1.0 36.65" fill="url(#gradient2)" fill-rule="evenodd" stroke="none"/>
    </g>
    <linearGradient gradientTransform="matrix(0.1048, -0.0815, 0.0372, 0.0478, 52.1, 52.05)" gradientUnits="userSpaceOnUse" id="gradient0" spreadMethod="pad" x1="-819.2" x2="819.2">
      <stop offset="0.0" stop-color="#ffffff" stop-opacity="0.0"/>
      <stop offset="0.4588235294117647" stop-color="#ffffff" stop-opacity="0.21960784"/>
      <stop offset="1.0" stop-color="#ffffff" stop-opacity="0.0"/>
    </linearGradient>
    <linearGradient gradientTransform="matrix(0.0149, -0.0258, 0.022, 0.0127, 81.7, 79.7)" gradientUnits="userSpaceOnUse" id="gradient1" spreadMethod="pad" x1="-819.2" x2="819.2">
      <stop offset="0.0" stop-color="#ffffff" stop-opacity="0.0"/>
      <stop offset="0.5333333333333333" stop-color="#ffffff" stop-opacity="0.34901962"/>
      <stop offset="1.0" stop-color="#ffffff" stop-opacity="0.0"/>
    </linearGradient>
    <linearGradient gradientTransform="matrix(0.0164, -0.0215, 0.0245, 0.0187, 23.15, 25.3)" gradientUnits="userSpaceOnUse" id="gradient2" spreadMethod="pad" x1="-819.2" x2="819.2">
      <stop offset="0.0" stop-color="#ffffff" stop-opacity="0.0"/>
      <stop offset="0.5333333333333333" stop-color="#ffffff" stop-opacity="0.34901962"/>
      <stop offset="1.0" stop-color="#ffffff" stop-opacity="0.0"/>
    </linearGradient>
  </defs>
</svg>
