<?xml version="1.0" encoding="UTF-8" standalone="no"?>
<svg xmlns:xlink="http://www.w3.org/1999/xlink" height="1002.0px" width="1002.0px" xmlns="http://www.w3.org/2000/svg">
  <g transform="matrix(1.0, 0.0, 0.0, 1.0, 0.85, 1.0)">
    <use height="1002.0" transform="matrix(1.0, 0.0, 0.0, 1.0, -0.85, -1.0)" width="1002.0" xlink:href="#shape0"/>
  </g>
  <defs>
    <g id="shape0" transform="matrix(1.0, 0.0, 0.0, 1.0, 0.85, 1.0)">
      <path d="M1000.15 69.3 Q990.1 76.6 978.05 83.65 954.85 97.35 927.5 107.65 842.8 139.6 736.1 134.0 688.0 131.65 613.5 113.8 585.15 107.0 544.9 96.05 L473.4 76.3 Q382.55 51.3 327.45 40.2 247.2 24.0 187.0 24.0 151.65 24.0 76.95 41.85 49.95 48.3 25.9 55.2 4.3 61.35 0.15 63.45 L0.15 0.0 1000.15 0.0 1000.15 69.3 M1000.15 890.9 Q990.55 864.35 981.25 843.2 963.6 803.15 941.95 775.9 875.9 693.05 774.1 725.95 695.65 751.15 653.3 796.35 618.75 833.25 609.65 881.85 602.75 918.45 610.8 957.9 616.35 985.05 624.6 999.95 L549.6 999.95 Q546.5 994.15 542.4 980.8 537.2 963.65 533.8 944.1 524.15 888.5 532.95 836.6 544.75 767.05 588.75 714.75 642.75 650.5 742.6 616.0 786.15 601.0 851.15 593.15 914.6 585.5 1000.15 584.45 L1000.15 890.9 M0.15 328.5 L11.75 332.6 Q20.05 335.5 26.35 338.3 45.4 346.6 58.7 358.55 97.4 393.35 94.0 463.0 90.6 531.8 50.55 568.05 37.5 579.85 20.25 588.25 11.2 592.65 0.15 596.95 L0.15 328.5" fill="url(#gradient0)" fill-rule="evenodd" stroke="none"/>
      <path d="M0.15 63.45 Q4.3 61.35 25.9 55.2 49.95 48.3 76.95 41.85 151.65 24.0 187.0 24.0 247.2 24.0 327.45 40.2 382.55 51.3 473.4 76.3 L544.9 96.05 Q585.15 107.0 613.5 113.8 688.0 131.65 736.1 134.0 842.8 139.6 927.5 107.65 954.85 97.35 978.05 83.65 990.1 76.6 1000.15 69.3 L1000.15 355.3 Q975.55 344.85 917.9 326.45 833.6 299.65 740.65 277.5 460.1 210.75 203.0 210.0 161.0 209.95 81.95 219.85 52.4 223.55 27.65 227.4 4.65 231.0 0.15 232.45 L0.15 63.45 M624.6 999.95 Q616.35 985.05 610.8 957.9 602.75 918.45 609.65 881.85 618.75 833.25 653.3 796.35 695.65 751.15 774.1 725.95 875.9 693.05 941.95 775.9 963.6 803.15 981.25 843.2 990.55 864.35 1000.15 890.9 L1000.15 890.95 1000.15 1000.0 624.6 999.95 M1000.15 584.45 Q914.6 585.5 851.15 593.15 786.15 601.0 742.6 616.0 642.75 650.5 588.75 714.75 544.75 767.05 532.95 836.6 524.15 888.5 533.8 944.1 537.2 963.65 542.4 980.8 546.5 994.15 549.6 999.95 L407.0 999.95 Q405.45 995.65 400.3 975.0 394.55 951.75 389.15 926.95 374.0 857.4 374.0 831.95 374.0 633.0 502.05 512.0 625.1 395.95 816.1 395.95 896.1 395.95 1000.15 432.45 L1000.15 584.45" fill="url(#gradient1)" fill-rule="evenodd" stroke="none"/>
      <path d="M0.15 232.45 Q4.65 231.0 27.65 227.4 52.4 223.55 81.95 219.85 161.0 209.95 203.0 210.0 460.1 210.75 740.65 277.5 833.6 299.65 917.9 326.45 975.55 344.85 1000.15 355.3 L1000.15 432.45 Q896.1 395.95 816.1 395.95 625.1 395.95 502.05 512.0 374.0 633.0 374.0 831.95 374.0 857.4 389.15 926.95 394.55 951.75 400.3 975.0 405.45 995.65 407.0 999.95 L127.6 1000.0 Q204.25 967.15 246.75 881.75 288.6 797.55 292.0 671.0 295.25 560.1 259.6 474.45 229.9 403.15 174.3 351.55 131.05 311.45 74.9 285.6 37.0 268.2 0.15 260.0 L0.15 232.45" fill="url(#gradient2)" fill-rule="evenodd" stroke="none"/>
      <path d="M0.15 260.0 Q37.0 268.2 74.9 285.6 131.05 311.45 174.3 351.55 229.9 403.15 259.6 474.45 295.25 560.1 292.0 671.0 288.6 797.55 246.75 881.75 204.25 967.15 127.6 1000.0 L0.15 1000.0 0.15 596.95 Q11.2 592.65 20.25 588.25 37.5 579.85 50.55 568.05 90.6 531.8 94.0 463.0 97.4 393.35 58.7 358.55 45.4 346.6 26.35 338.3 20.05 335.5 11.75 332.6 L0.15 328.5 0.15 260.0" fill="url(#gradient3)" fill-rule="evenodd" stroke="none"/>
      <path d="M0.15 63.45 Q4.3 61.35 25.9 55.2 49.95 48.3 76.95 41.85 151.65 24.0 187.0 24.0 247.2 24.0 327.45 40.2 382.55 51.3 473.4 76.3 L544.9 96.05 Q585.15 107.0 613.5 113.8 688.0 131.65 736.1 134.0 842.8 139.6 927.5 107.65 954.85 97.35 978.05 83.65 990.1 76.6 1000.15 69.3 M0.15 232.45 Q4.65 231.0 27.65 227.4 52.4 223.55 81.95 219.85 161.0 209.95 203.0 210.0 460.1 210.75 740.65 277.5 833.6 299.65 917.9 326.45 975.55 344.85 1000.15 355.3 M624.6 999.95 Q616.35 985.05 610.8 957.9 602.75 918.45 609.65 881.85 618.75 833.25 653.3 796.35 695.65 751.15 774.1 725.95 875.9 693.05 941.95 775.9 963.6 803.15 981.25 843.2 990.55 864.35 1000.15 890.9 M1000.15 584.45 Q914.6 585.5 851.15 593.15 786.15 601.0 742.6 616.0 642.75 650.5 588.75 714.75 544.75 767.05 532.95 836.6 524.15 888.5 533.8 944.1 537.2 963.65 542.4 980.8 546.5 994.15 549.6 999.95 M1000.15 890.95 L1000.15 890.9 M407.0 999.95 Q405.45 995.65 400.3 975.0 394.55 951.75 389.15 926.95 374.0 857.4 374.0 831.95 374.0 633.0 502.05 512.0 625.1 395.95 816.1 395.95 896.1 395.95 1000.15 432.45 M0.15 260.0 Q37.0 268.2 74.9 285.6 131.05 311.45 174.3 351.55 229.9 403.15 259.6 474.45 295.25 560.1 292.0 671.0 288.6 797.55 246.75 881.75 204.25 967.15 127.6 1000.0 M0.15 328.5 L11.75 332.6 Q20.05 335.5 26.35 338.3 45.4 346.6 58.7 358.55 97.4 393.35 94.0 463.0 90.6 531.8 50.55 568.05 37.5 579.85 20.25 588.25 11.2 592.65 0.15 596.95" fill="none" stroke="#000000" stroke-linecap="round" stroke-linejoin="round" stroke-opacity="0.15294118" stroke-width="0.8"/>
      <path d="M1000.15 69.3 L1000.15 0.0 0.15 0.0 0.15 63.45 0.15 232.45 0.15 260.0 M1000.15 355.3 L1000.15 69.3 M1000.15 890.9 L1000.15 584.45 M549.6 999.95 L624.6 999.95 1000.15 1000.0 1000.15 890.95 M1000.15 432.45 L1000.15 584.45 M1000.15 432.45 L1000.15 355.3 M127.6 1000.0 L407.0 999.95 549.6 999.95 M0.15 596.95 L0.15 1000.0 127.6 1000.0 M0.15 328.5 L0.15 260.0 M0.15 596.95 L0.15 328.5" fill="none" stroke="#000000" stroke-linecap="round" stroke-linejoin="round" stroke-opacity="0.3019608" stroke-width="2.0"/>
      <path d="M0.0 1000.05 L0.0 0.05 1000.0 0.05 1000.0 1000.05 0.0 1000.05" fill="url(#gradient4)" fill-rule="evenodd" stroke="none"/>
    </g>
    <radialGradient cx="0" cy="0" gradientTransform="matrix(1.1015, 0.0, 0.0, 1.1013, 326.5, -61.5)" gradientUnits="userSpaceOnUse" id="gradient0" r="819.2" spreadMethod="pad">
      <stop offset="0.011764705882352941" stop-color="#dbb289"/>
      <stop offset="0.9529411764705882" stop-color="#98693b"/>
    </radialGradient>
    <radialGradient cx="0" cy="0" gradientTransform="matrix(1.2057, 0.0, 0.0, 1.2056, 358.0, -0.5)" gradientUnits="userSpaceOnUse" id="gradient1" r="819.2" spreadMethod="pad">
      <stop offset="0.023529411764705882" stop-color="#d2a67d"/>
      <stop offset="0.9294117647058824" stop-color="#794b22"/>
    </radialGradient>
    <radialGradient cx="0" cy="0" gradientTransform="matrix(1.1015, 0.0, 0.0, 1.1013, 326.5, -61.5)" gradientUnits="userSpaceOnUse" id="gradient2" r="819.2" spreadMethod="pad">
      <stop offset="0.03529411764705882" stop-color="#e5bd95"/>
      <stop offset="0.9529411764705882" stop-color="#98693b"/>
    </radialGradient>
    <radialGradient cx="0" cy="0" gradientTransform="matrix(1.2057, 0.0, 0.0, 1.2056, 358.0, -0.5)" gradientUnits="userSpaceOnUse" id="gradient3" r="819.2" spreadMethod="pad">
      <stop offset="0.023529411764705882" stop-color="#d2a67d"/>
      <stop offset="0.9568627450980393" stop-color="#74451b"/>
    </radialGradient>
    <linearGradient gradientTransform="matrix(0.0, 0.5839, -0.654, 0.0, 503.7, 500.05)" gradientUnits="userSpaceOnUse" id="gradient4" spreadMethod="pad" x1="-819.2" x2="819.2">
      <stop offset="0.0" stop-color="#ffffff" stop-opacity="0.32156864"/>
      <stop offset="0.4470588235294118" stop-color="#8c8c8c" stop-opacity="0.0"/>
      <stop offset="1.0" stop-color="#000000" stop-opacity="0.5019608"/>
    </linearGradient>
  </defs>
</svg>
