<?xml version="1.0" encoding="UTF-8" standalone="no"?>
<svg xmlns:xlink="http://www.w3.org/1999/xlink" height="400.0px" width="800.0px" xmlns="http://www.w3.org/2000/svg">
  <g transform="matrix(1.0, 0.0, 0.0, 1.0, 0.0, 0.0)">
    <use height="400.0" transform="matrix(1.0, 0.0, 0.0, 1.0, 0.0, 0.0)" width="800.0" xlink:href="#shape0"/>
  </g>
  <defs>
    <g id="shape0" transform="matrix(1.0, 0.0, 0.0, 1.0, 0.0, 0.0)">
      <path d="M800.0 400.0 L0.0 400.0 0.0 0.0 800.0 0.0 800.0 400.0" fill="url(#gradient0)" fill-rule="evenodd" stroke="none"/>
      <path d="M790.0 98.25 Q790.6 99.15 790.6 100.1 790.6 101.9 789.7 102.0 L785.05 101.65 Q776.3 101.15 763.15 104.1 760.25 107.55 755.2 108.6 L737.7 109.6 Q723.4 109.95 712.0 112.5 L670.75 113.0 641.9 115.85 Q627.25 117.3 623.0 118.5 L597.0 118.75 588.0 119.7 Q587.8 119.8 588.05 120.1 588.3 120.35 587.9 120.5 L535.0 123.5 490.25 124.0 481.0 124.5 Q468.8 124.5 462.35 123.25 452.05 125.0 443.5 125.0 438.6 125.0 436.2 123.9 425.9 127.0 415.0 127.0 L410.95 126.45 398.0 128.75 373.0 128.75 370.2 126.7 Q369.25 126.0 365.6 125.55 L355.15 124.3 305.0 120.75 398.25 120.75 Q402.45 119.55 411.0 119.25 L412.15 119.65 416.15 118.0 Q425.2 114.35 434.0 112.15 450.15 108.1 456.25 111.05 457.55 109.45 459.05 108.0 465.35 102.05 472.2 102.35 L472.75 101.4 474.6 100.8 Q478.65 99.35 480.25 96.5 482.15 92.95 483.5 92.05 486.85 89.8 496.0 89.0 500.2 81.95 508.3 74.3 521.85 61.5 534.5 61.5 542.75 61.5 548.65 66.25 L552.45 69.5 Q554.4 71.0 556.0 71.0 556.55 71.0 560.9 66.25 566.4 61.5 572.5 61.5 573.75 61.5 577.7 62.75 L582.85 64.0 Q583.95 64.0 588.15 58.75 593.95 51.6 598.85 47.25 617.6 30.5 645.0 30.5 657.35 30.5 661.3 33.25 L663.2 35.15 Q663.95 36.0 665.0 36.0 666.65 36.0 674.3 30.5 682.65 24.55 686.0 23.5 700.85 19.05 705.6 23.5 708.0 25.7 707.5 30.5 L709.1 31.0 711.1 30.3 711.15 30.65 Q711.35 31.3 730.05 50.25 734.3 34.85 764.9 39.3 795.5 43.7 786.85 96.25 789.05 96.9 790.0 98.25" fill="url(#gradient1)" fill-rule="evenodd" stroke="none"/>
      <path d="M412.75 47.75 Q412.75 50.15 411.95 50.85 410.7 51.9 405.85 52.65 L356.0 57.75 305.0 57.75 296.1 56.8 286.6 56.25 277.3 57.5 268.0 58.75 Q265.55 58.75 264.65 56.25 264.0 54.45 264.25 52.25 L253.65 52.5 246.5 52.75 Q241.7 52.75 240.5 49.65 L240.25 46.25 Q240.25 41.7 248.4 36.75 255.0 32.7 262.75 30.5 273.9 27.3 280.75 27.8 L283.95 27.9 Q285.15 27.7 286.5 26.25 290.55 21.85 296.5 18.0 315.75 5.55 330.35 10.15 336.6 12.15 340.2 17.1 343.75 22.0 343.75 28.5 L345.25 27.1 Q346.6 25.85 348.45 25.0 354.2 22.25 365.5 22.25 373.25 22.25 384.2 28.25 389.85 31.3 395.5 35.25 402.05 38.9 409.05 41.8 412.75 43.8 412.75 47.75" fill="url(#gradient2)" fill-rule="evenodd" stroke="none"/>
      <path d="M170.75 54.75 Q295.2 73.05 340.0 70.65 308.8 82.05 236.3 75.8 L147.95 80.35 78.05 83.5 34.0 82.75 Q15.2 81.15 10.3 78.05 8.5 76.9 8.2 75.35 L8.25 72.85 Q8.25 71.45 9.3 68.25 10.8 63.8 13.35 60.25 21.25 49.55 36.0 52.0 37.15 50.85 39.8 46.4 42.45 42.05 45.0 39.55 53.45 31.3 72.0 30.5 83.7 30.05 89.3 42.35 92.05 48.5 92.5 54.75 L95.25 53.1 Q98.75 51.15 102.7 49.5 115.3 44.25 127.5 44.25 142.1 44.25 151.1 48.25 153.35 49.25 156.6 51.0 159.25 52.25 161.5 52.25 162.9 52.25 165.75 53.2 L170.75 54.75" fill="url(#gradient3)" fill-rule="evenodd" stroke="none"/>
      <path d="M38.1 161.75 Q41.1 161.75 45.7 158.4 L55.3 151.5 Q70.5 142.05 92.0 145.25 95.45 146.05 97.45 149.3 L100.25 154.0 110.95 153.55 Q113.2 153.45 134.2 159.1 144.7 161.9 201.75 165.75 158.85 169.8 152.75 169.4 L142.35 168.2 Q138.05 167.35 88.1 172.05 37.8 176.75 16.0 176.75 13.35 176.75 12.55 174.75 12.25 174.05 12.25 172.5 12.25 168.2 15.25 164.25 19.7 158.25 29.0 158.25 34.4 158.25 35.75 160.0 L36.5 161.2 Q37.0 161.75 38.1 161.75" fill="url(#gradient4)" fill-rule="evenodd" stroke="none"/>
    </g>
    <linearGradient gradientTransform="matrix(0.0, -0.2454, 0.2441, 0.0, 407.0, 260.0)" gradientUnits="userSpaceOnUse" id="gradient0" spreadMethod="pad" x1="-819.2" x2="819.2">
      <stop offset="0.00392156862745098" stop-color="#c7d9e0"/>
      <stop offset="1.0" stop-color="#5fa9d4"/>
    </linearGradient>
    <linearGradient gradientTransform="matrix(0.0667, 0.1035, -0.0551, 0.0355, 562.5, 93.15)" gradientUnits="userSpaceOnUse" id="gradient1" spreadMethod="pad" x1="-819.2" x2="819.2">
      <stop offset="0.043137254901960784" stop-color="#f5fdff" stop-opacity="0.6509804"/>
      <stop offset="0.9921568627450981" stop-color="#eefbff" stop-opacity="0.0"/>
    </linearGradient>
    <linearGradient gradientTransform="matrix(0.0, 0.0449, -0.0304, 0.0, 326.55, 33.85)" gradientUnits="userSpaceOnUse" id="gradient2" spreadMethod="pad" x1="-819.2" x2="819.2">
      <stop offset="0.043137254901960784" stop-color="#f5fdff" stop-opacity="0.6509804"/>
      <stop offset="0.9921568627450981" stop-color="#eefbff" stop-opacity="0.0"/>
    </linearGradient>
    <linearGradient gradientTransform="matrix(0.0, 0.0427, -0.0323, 0.0, 166.9, 62.0)" gradientUnits="userSpaceOnUse" id="gradient3" spreadMethod="pad" x1="-819.2" x2="819.2">
      <stop offset="0.043137254901960784" stop-color="#f5fdff" stop-opacity="0.6509804"/>
      <stop offset="0.9921568627450981" stop-color="#eefbff" stop-opacity="0.0"/>
    </linearGradient>
    <linearGradient gradientTransform="matrix(0.0062, 0.0426, -0.0195, 0.0028, 107.0, 160.6)" gradientUnits="userSpaceOnUse" id="gradient4" spreadMethod="pad" x1="-819.2" x2="819.2">
      <stop offset="0.043137254901960784" stop-color="#f5fdff" stop-opacity="0.6509804"/>
      <stop offset="0.9921568627450981" stop-color="#eefbff" stop-opacity="0.0"/>
    </linearGradient>
  </defs>
</svg>
