<?xml version="1.0" encoding="UTF-8" standalone="no"?>
<svg xmlns:ffdec="https://www.free-decompiler.com/flash" xmlns:xlink="http://www.w3.org/1999/xlink" ffdec:objectType="frame" height="400.1px" width="800.05px" xmlns="http://www.w3.org/2000/svg">
  <g transform="matrix(1.0, 0.0, 0.0, 1.0, 0.0, 0.0)">
    <use ffdec:characterId="1" height="400.1" transform="matrix(1.0, 0.0, 0.0, 1.0, 0.0, 0.0)" width="800.05" xlink:href="#shape0"/>
  </g>
  <defs>
    <g id="shape0" transform="matrix(1.0, 0.0, 0.0, 1.0, 0.0, 0.0)">
      <path d="M800.0 339.7 Q791.25 341.55 780.25 344.5 758.25 350.45 747.0 356.05 730.85 364.1 722.65 367.25 709.45 372.2 686.25 377.65 662.75 383.2 654.15 383.85 650.3 384.1 628.75 383.25 600.05 382.7 581.0 381.9 546.1 380.4 516.0 376.0 488.15 371.95 429.0 374.65 L386.9 376.7 Q365.8 377.65 357.0 377.0 347.7 376.35 340.5 373.6 336.8 372.2 328.5 367.65 320.7 363.4 314.25 361.15 304.4 357.7 291.0 356.05 255.85 351.65 242.05 348.7 220.5 344.05 193.05 333.05 175.8 326.15 167.1 323.3 155.25 319.4 145.05 317.95 125.15 315.05 88.05 320.05 55.55 324.45 32.95 333.9 21.65 338.65 16.85 342.5 L0.0 347.25 0.0 0.0 800.0 0.0 800.0 339.7" fill="url(#gradient0)" fill-rule="evenodd" stroke="none"/>
      <path d="M0.0 347.25 L16.85 342.5 Q21.65 338.65 32.95 333.9 55.55 324.45 88.05 320.05 125.15 315.05 145.05 317.95 155.25 319.4 167.1 323.3 175.8 326.15 193.05 333.05 220.5 344.05 242.05 348.7 255.85 351.65 291.0 356.05 304.4 357.7 314.25 361.15 320.7 363.4 328.5 367.65 336.8 372.2 340.5 373.6 347.7 376.35 357.0 377.0 365.8 377.65 386.9 376.7 L429.0 374.65 Q488.15 371.95 516.0 376.0 546.1 380.4 581.0 381.9 600.05 382.7 628.75 383.25 650.3 384.1 654.15 383.85 662.75 383.2 686.25 377.65 709.45 372.2 722.65 367.25 730.85 364.1 747.0 356.05 758.25 350.45 780.25 344.5 791.25 341.55 800.0 339.7 L800.0 400.0 0.0 400.0 0.0 347.25" fill="url(#gradient1)" fill-rule="evenodd" stroke="none"/>
      <path d="M328.7 305.75 Q299.45 335.05 258.0 335.05 216.55 335.05 187.25 305.75 158.0 276.5 158.0 235.05 158.0 193.6 187.25 164.3 216.55 135.05 258.0 135.05 299.45 135.05 328.7 164.3 358.0 193.6 358.0 235.05 358.0 276.5 328.7 305.75" fill="url(#gradient2)" fill-rule="evenodd" stroke="none"/>
      <path d="M458.45 281.4 L441.65 282.8 230.65 282.8 210.35 284.15 Q192.45 285.65 179.35 287.45 165.7 289.35 169.8 283.2 173.7 277.45 187.65 270.8 193.2 268.15 199.7 268.55 L216.75 270.5 Q250.1 273.8 305.65 265.8 335.3 261.5 355.35 255.95 L377.95 249.3 Q387.15 247.25 401.7 248.75 416.25 250.2 455.0 257.05 520.5 268.75 487.65 276.95 477.35 279.5 458.45 281.4" fill="url(#gradient3)" fill-rule="evenodd" stroke="none"/>
      <path d="M138.4 241.1 L127.8 242.5 Q116.05 243.25 110.4 240.1 104.1 236.6 110.3 233.25 115.35 230.45 130.4 227.1 141.65 224.6 147.15 226.1 149.9 226.85 150.4 228.1 152.15 224.6 155.05 220.6 160.8 212.6 166.4 210.1 173.3 207.05 191.75 210.75 210.55 214.5 219.35 221.1 226.3 226.3 271.45 233.5 L303.3 238.4 Q318.5 240.85 321.35 242.1 327.0 244.6 320.75 246.1 L313.35 247.1 194.5 242.55 138.4 241.1" fill="url(#gradient4)" fill-rule="evenodd" stroke="none"/>
      <path d="M235.45 281.9 L373.45 293.9 385.45 296.55 Q397.45 299.8 397.45 302.9 397.45 304.75 395.65 305.15 393.95 305.55 387.7 305.15 L337.45 302.9 Q304.55 302.3 280.95 306.8 276.15 307.7 264.9 310.35 256.5 312.35 251.45 312.9 246.55 313.45 243.2 314.3 L241.1 314.55 Q238.95 311.4 228.45 304.9 214.7 296.4 221.45 288.3 223.95 285.35 228.45 283.4 232.6 281.65 235.45 281.9" fill="url(#gradient5)" fill-rule="evenodd" stroke="none"/>
      <path d="M573.3 138.0 Q573.85 139.1 573.05 139.85 L572.05 140.4 571.7 140.5 570.3 140.05 570.15 139.75 Q569.7 138.8 569.8 138.25 569.95 137.6 570.5 137.3 570.85 137.0 571.6 137.0 572.25 137.0 572.7 137.3 L573.3 138.0" fill="#ffcc99" fill-rule="evenodd" stroke="none"/>
      <path d="M693.8 75.25 Q693.95 74.6 694.5 74.3 694.85 74.0 695.6 74.0 696.25 74.0 696.7 74.3 L697.3 75.0 Q697.85 76.1 697.05 76.85 L696.05 77.4 695.7 77.5 694.3 77.05 694.15 76.75 Q693.7 75.8 693.8 75.25" fill="#ffcc99" fill-rule="evenodd" stroke="none"/>
      <path d="M603.6 139.0 Q604.25 139.0 604.7 139.3 L605.3 140.0 Q605.85 141.1 605.05 141.85 L604.05 142.4 603.7 142.5 602.3 142.05 602.15 141.75 Q601.7 140.8 601.8 140.25 601.95 139.6 602.5 139.3 L603.6 139.0" fill="#ffcc99" fill-rule="evenodd" stroke="none"/>
      <path d="M300.7 29.3 L301.3 30.0 Q301.85 31.1 301.05 31.85 L300.05 32.4 299.7 32.5 298.3 32.05 298.15 31.75 Q297.7 30.8 297.8 30.25 297.95 29.6 298.5 29.3 298.85 29.0 299.6 29.0 300.25 29.0 300.7 29.3" fill="#ffcc99" fill-rule="evenodd" stroke="none"/>
      <path d="M209.6 120.0 Q210.25 120.0 210.7 120.3 L211.3 121.0 Q211.85 122.1 211.05 122.85 L210.05 123.4 209.7 123.5 208.3 123.05 208.15 122.75 Q207.7 121.8 207.8 121.25 207.95 120.6 208.5 120.3 208.85 120.0 209.6 120.0" fill="#ffcc99" fill-rule="evenodd" stroke="none"/>
      <path d="M64.35 157.0 Q64.9 158.1 64.1 158.85 63.9 159.1 63.1 159.4 L62.75 159.5 61.35 159.05 61.2 158.75 Q60.75 157.8 60.85 157.25 61.0 156.6 61.55 156.3 61.9 156.0 62.65 156.0 63.3 156.0 63.75 156.3 L64.35 157.0" fill="#ffcc99" fill-rule="evenodd" stroke="none"/>
      <path d="M71.1 80.4 L70.75 80.5 69.35 80.05 69.2 79.75 Q68.75 78.8 68.85 78.25 69.0 77.6 69.55 77.3 L70.65 77.0 Q71.3 77.0 71.75 77.3 L72.35 78.0 Q72.9 79.1 72.1 79.85 71.9 80.1 71.1 80.4" fill="#ffcc99" fill-rule="evenodd" stroke="none"/>
      <path d="M151.05 53.9 L150.85 56.0 149.9 57.25 Q148.9 57.75 147.95 57.05 L147.15 56.45 146.05 56.1 Q144.8 55.55 144.8 53.7 144.8 51.4 146.4 50.6 L149.2 50.65 150.5 51.55 Q150.95 52.1 151.05 53.9" fill="#ffcc99" fill-rule="evenodd" stroke="none"/>
      <path d="M125.4 117.45 Q126.65 117.4 127.65 118.0 128.65 118.6 129.25 119.65 129.85 120.7 129.8 121.85 129.8 123.0 129.15 124.05 128.5 125.1 127.45 125.6 126.45 126.15 125.25 126.1 124.05 126.05 123.05 125.4 121.25 124.2 121.1 122.0 121.05 120.85 121.6 119.75 122.2 118.65 123.2 118.05 124.2 117.45 125.4 117.45" fill="#ffcc99" fill-rule="evenodd" stroke="none"/>
      <path d="M581.75 36.3 Q583.2 36.4 584.4 37.4 585.55 38.35 585.9 39.8 586.2 41.25 585.55 42.65 584.85 44.05 583.55 44.7 582.6 45.2 581.4 45.2 579.0 45.05 577.85 42.85 576.75 40.8 577.85 38.6 578.35 37.65 579.25 37.05 580.25 36.45 581.25 36.55 581.75 36.55 581.75 36.3" fill="#ffcc99" fill-rule="evenodd" stroke="none"/>
      <path d="M694.0 128.55 L693.7 129.75 692.0 130.0 691.3 128.75 691.25 128.5 691.55 128.0 691.7 127.8 692.0 127.7 692.9 127.5 693.2 127.55 693.4 127.7 693.8 128.1 693.95 128.3 694.0 128.55" fill="#ffcc99" fill-rule="evenodd" stroke="none"/>
      <path d="M508.2 219.55 L508.4 219.7 508.8 220.1 508.95 220.3 509.0 220.55 508.7 221.75 507.0 222.0 506.3 220.75 506.25 220.5 506.55 220.0 506.7 219.8 507.0 219.7 507.9 219.5 508.2 219.55" fill="#ffcc99" fill-rule="evenodd" stroke="none"/>
      <path d="M418.2 55.55 L418.4 55.7 418.8 56.1 418.95 56.3 419.0 56.55 418.7 57.75 417.0 58.0 416.3 56.75 416.25 56.5 416.55 56.0 416.7 55.8 417.0 55.7 417.9 55.5 418.2 55.55" fill="#ffcc99" fill-rule="evenodd" stroke="none"/>
      <path d="M682.0 21.55 L681.7 22.75 680.0 23.0 679.3 21.75 679.25 21.5 679.55 21.0 679.7 20.8 680.0 20.7 680.9 20.5 681.2 20.55 681.4 20.7 681.8 21.1 681.95 21.3 682.0 21.55" fill="#ffcc99" fill-rule="evenodd" stroke="none"/>
      <path d="M382.2 188.55 L382.4 188.7 382.8 189.1 382.95 189.3 383.0 189.55 382.7 190.75 381.0 191.0 380.3 189.75 380.25 189.5 380.55 189.0 380.7 188.8 381.0 188.7 381.9 188.5 382.2 188.55" fill="#ffcc99" fill-rule="evenodd" stroke="none"/>
      <path d="M226.05 76.55 L225.75 77.75 224.05 78.0 223.35 76.75 223.3 76.5 223.6 76.0 223.75 75.8 224.05 75.7 224.95 75.5 225.25 75.55 225.45 75.7 225.85 76.1 226.0 76.3 226.05 76.55" fill="#ffcc99" fill-rule="evenodd" stroke="none"/>
      <path d="M195.45 58.7 L195.85 59.1 196.0 59.3 196.05 59.55 195.75 60.75 194.05 61.0 193.35 59.75 193.3 59.5 193.6 59.0 193.75 58.8 194.05 58.7 194.95 58.5 195.25 58.55 195.45 58.7" fill="#ffcc99" fill-rule="evenodd" stroke="none"/>
      <path d="M23.35 8.75 L23.3 8.5 23.6 8.0 23.75 7.8 24.05 7.7 24.95 7.5 25.25 7.55 25.45 7.7 25.85 8.1 26.0 8.3 26.05 8.55 25.75 9.75 24.05 10.0 23.35 8.75" fill="#ffcc99" fill-rule="evenodd" stroke="none"/>
      <path d="M78.45 145.7 L78.85 146.1 79.0 146.3 79.05 146.55 78.75 147.75 77.05 148.0 76.35 146.75 76.3 146.5 76.6 146.0 76.75 145.8 77.05 145.7 77.95 145.5 78.25 145.55 78.45 145.7" fill="#ffcc99" fill-rule="evenodd" stroke="none"/>
      <path d="M51.05 203.55 L50.75 204.75 49.05 205.0 48.35 203.75 48.3 203.5 48.6 203.0 48.75 202.8 49.05 202.7 49.95 202.5 50.25 202.55 50.45 202.7 50.85 203.1 51.0 203.3 51.05 203.55" fill="#ffcc99" fill-rule="evenodd" stroke="none"/>
      <path d="M422.55 116.6 L422.55 117.75 Q422.3 119.35 421.35 120.1 420.15 120.95 418.9 120.5 418.05 120.3 417.45 119.5 416.75 118.65 416.7 117.45 416.65 116.3 417.25 115.35 417.65 114.7 418.3 114.35 419.0 113.95 419.7 114.05 L419.7 113.8 Q420.75 113.95 421.55 114.75 422.35 115.55 422.55 116.6" fill="#ffcc99" fill-rule="evenodd" stroke="none"/>
      <path d="M247.7 23.85 Q249.4 24.0 250.15 25.55 250.95 27.1 249.95 28.5 249.3 29.55 248.05 29.7 246.35 29.85 245.2 28.15 L244.8 27.1 244.9 26.3 245.05 25.6 245.55 24.9 Q246.65 23.7 247.7 24.05 L247.7 23.85" fill="#ffcc99" fill-rule="evenodd" stroke="none"/>
      <path d="M750.15 98.55 Q750.95 100.1 749.95 101.5 749.3 102.55 748.05 102.7 746.35 102.85 745.2 101.15 L744.8 100.1 744.9 99.3 745.05 98.6 745.55 97.9 Q746.65 96.7 747.7 97.05 L747.7 96.85 Q749.4 97.0 750.15 98.55" fill="#ffcc99" fill-rule="evenodd" stroke="none"/>
      <path d="M466.7 15.85 Q468.4 16.0 469.15 17.55 469.95 19.1 468.95 20.5 468.3 21.55 467.05 21.7 465.35 21.85 464.2 20.15 L463.8 19.1 463.9 18.3 464.05 17.6 464.55 16.9 Q465.65 15.7 466.7 16.05 L466.7 15.85" fill="#ffcc99" fill-rule="evenodd" stroke="none"/>
      <path d="M479.45 29.75 L480.7 29.55 480.7 29.3 Q482.25 29.8 482.65 30.45 483.05 31.05 482.95 32.0 482.75 33.35 481.95 33.9 481.2 34.4 480.35 34.15 479.55 34.0 478.85 33.45 L478.5 33.05 478.5 32.4 478.3 31.7 Q478.25 31.2 478.55 30.65 478.85 30.05 479.45 29.75" fill="#ffcc99" fill-rule="evenodd" stroke="none"/>
      <path d="M320.45 103.75 L321.7 103.55 321.7 103.3 Q323.25 103.8 323.65 104.45 324.05 105.05 323.95 106.0 323.75 107.35 322.95 107.9 322.2 108.4 321.35 108.15 320.55 108.0 319.85 107.45 L319.5 107.05 319.5 106.4 319.3 105.7 Q319.25 105.2 319.55 104.65 319.85 104.05 320.45 103.75" fill="#ffcc99" fill-rule="evenodd" stroke="none"/>
      <path d="M138.6 126.65 Q138.9 126.05 139.5 125.75 L140.75 125.55 140.75 125.3 Q142.3 125.8 142.7 126.45 143.1 127.05 143.0 128.0 142.8 129.35 142.0 129.9 L140.4 130.15 Q139.6 130.0 138.9 129.45 L138.55 129.05 138.55 128.4 138.35 127.7 Q138.3 127.2 138.6 126.65" fill="#ffcc99" fill-rule="evenodd" stroke="none"/>
      <path d="M669.7 117.3 L670.3 118.0 Q670.85 119.1 670.05 119.85 L669.05 120.4 668.7 120.5 667.55 120.15 667.3 120.05 667.15 119.75 Q666.7 118.8 666.8 118.25 666.95 117.6 667.5 117.3 667.85 117.0 668.6 117.0 L669.7 117.3" fill="#ffcc99" fill-rule="evenodd" stroke="none"/>
      <path d="M623.7 123.05 L623.7 122.8 625.2 123.05 Q626.05 123.45 626.3 124.0 626.85 125.1 625.9 126.15 L625.0 126.7 624.1 126.7 Q622.75 126.6 622.15 125.9 621.8 125.55 621.8 125.25 L621.9 124.45 Q622.2 123.5 622.5 123.3 623.0 122.95 623.7 123.05" fill="#ffcc99" fill-rule="evenodd" stroke="none"/>
      <path d="M452.5 178.3 Q452.85 178.0 453.6 178.0 454.25 178.0 454.7 178.3 L455.3 179.0 Q455.85 180.1 455.05 180.85 L454.05 181.4 453.7 181.5 452.3 181.05 452.15 180.75 Q451.7 179.8 451.8 179.25 451.95 178.6 452.5 178.3" fill="#ffcc99" fill-rule="evenodd" stroke="none"/>
      <path d="M737.3 210.0 Q737.85 211.1 737.05 211.85 L736.05 212.4 735.7 212.5 734.3 212.05 734.15 211.75 Q733.7 210.8 733.8 210.25 733.95 209.6 734.5 209.3 L735.6 209.0 Q736.25 209.0 736.7 209.3 L737.3 210.0" fill="#ffcc99" fill-rule="evenodd" stroke="none"/>
      <path d="M332.6 77.0 Q333.25 77.0 333.7 77.3 L334.3 78.0 Q334.85 79.1 334.05 79.85 L333.05 80.4 332.7 80.5 331.55 80.15 331.3 80.05 331.15 79.75 Q330.7 78.8 330.8 78.25 330.95 77.6 331.5 77.3 331.85 77.0 332.6 77.0" fill="#ffcc99" fill-rule="evenodd" stroke="none"/>
      <path d="M87.85 35.25 Q88.0 34.6 88.55 34.3 88.9 34.0 89.65 34.0 90.3 34.0 90.75 34.3 L91.35 35.0 Q91.9 36.1 91.1 36.85 90.9 37.1 90.1 37.4 L89.75 37.5 88.35 37.05 88.2 36.75 Q87.75 35.8 87.85 35.25" fill="#ffcc99" fill-rule="evenodd" stroke="none"/>
      <path d="M16.75 113.3 L17.35 114.0 Q17.9 115.1 17.1 115.85 16.9 116.1 16.1 116.4 L15.75 116.5 14.6 116.15 14.35 116.05 14.2 115.75 Q13.75 114.8 13.85 114.25 14.0 113.6 14.55 113.3 14.9 113.0 15.65 113.0 16.3 113.0 16.75 113.3" fill="#ffcc99" fill-rule="evenodd" stroke="none"/>
      <path d="M796.3 41.0 Q796.85 42.1 796.05 42.85 L795.05 43.4 794.7 43.5 793.3 43.05 793.15 42.75 Q792.7 41.8 792.8 41.25 792.95 40.6 793.5 40.3 793.85 40.0 794.6 40.0 795.25 40.0 795.7 40.3 L796.3 41.0" fill="#ffcc99" fill-rule="evenodd" stroke="none"/>
      <path d="M734.95 272.55 Q741.65 273.35 748.55 280.05 752.5 283.9 756.4 292.95 759.35 299.85 764.95 302.05 771.35 304.55 786.25 301.65 793.7 300.2 799.85 298.25 L799.85 399.6 0.8 399.6 Q0.35 283.8 0.6 234.65 0.75 219.5 8.8 222.85 12.8 224.5 18.65 230.95 21.75 234.3 23.1 241.4 23.85 245.6 24.45 255.15 25.05 264.4 25.8 268.3 27.15 274.7 30.2 277.05 34.75 280.45 39.6 287.45 43.5 293.05 46.65 294.05 50.55 295.3 59.85 289.55 L75.35 279.05 Q82.1 274.7 93.75 276.7 105.05 278.6 108.2 284.05 L114.0 294.45 Q117.25 299.3 120.5 298.05 122.1 297.4 124.3 299.6 L129.4 305.05 Q138.15 313.9 151.3 315.05 165.4 316.3 172.6 326.8 176.2 332.05 176.95 337.05 L231.45 334.05 235.6 334.3 247.65 333.75 Q268.6 331.65 292.3 322.95 297.25 321.15 310.2 322.8 L324.75 324.6 325.3 323.95 Q325.4 323.4 325.65 323.4 325.85 322.9 326.55 322.35 L328.25 320.4 Q332.1 314.65 338.2 317.4 342.5 319.4 350.45 327.45 361.35 338.6 364.05 340.9 372.0 347.7 378.0 348.0 383.95 348.3 391.9 343.3 396.8 340.25 408.45 331.4 434.7 312.55 464.25 308.05 500.25 302.55 524.7 306.8 544.1 310.15 556.7 319.75 565.65 326.65 573.25 325.5 577.0 324.95 579.0 323.0 L579.0 323.5 Q579.2 324.0 580.15 324.0 583.0 323.95 592.0 319.0 600.95 314.05 606.4 316.55 609.05 317.8 610.0 320.05 L611.0 318.6 Q612.45 316.8 614.5 315.2 620.9 309.95 630.5 308.05 635.3 307.1 637.4 308.55 638.75 309.45 640.25 311.3 644.4 314.0 665.4 304.05 686.2 294.2 702.1 292.95 L711.6 292.4 Q715.8 291.95 718.75 290.05 724.25 286.5 724.65 283.95 L724.85 281.2 Q725.05 279.2 725.95 277.05 728.3 271.75 734.95 272.55" fill="#ff9933" fill-opacity="0.69803923" fill-rule="evenodd" stroke="none"/>
      <path d="M707.0 246.05 Q707.0 254.9 708.75 257.2 L711.2 259.4 Q713.35 261.1 715.0 263.05 716.85 265.2 718.65 265.95 L720.85 266.6 Q722.1 267.25 722.0 276.05 721.8 290.9 721.0 303.05 L732.0 310.05 748.0 316.05 750.0 327.05 765.0 337.05 787.0 345.05 799.85 351.9 799.85 387.0 698.8 387.4 Q696.0 387.0 488.0 386.0 L409.0 380.0 441.0 366.0 475.0 345.05 519.0 344.05 525.3 342.35 Q532.9 340.15 539.4 337.8 560.15 330.3 562.0 324.05 563.9 317.8 565.15 307.8 L566.0 299.05 594.0 292.05 601.65 290.7 Q609.4 288.45 610.0 284.05 610.65 279.7 611.4 264.95 L612.0 251.05 619.0 247.05 621.0 235.05 632.0 234.05 636.0 255.05 637.75 256.95 Q640.25 259.2 644.0 261.05 647.0 262.55 650.25 263.45 652.45 264.7 655.0 271.05 658.2 279.05 659.5 283.7 661.05 289.25 662.0 297.05 663.35 308.0 665.0 317.05 L665.4 320.8 Q666.65 324.8 671.0 326.05 676.6 327.65 680.75 325.2 685.3 322.5 686.0 316.05 686.65 310.45 685.9 292.7 L684.0 262.05 686.0 252.05 692.0 247.05 693.0 235.05 704.0 237.05 704.45 236.5 Q705.05 236.0 705.5 236.3 707.0 237.3 707.0 246.05" fill="url(#gradient6)" fill-rule="evenodd" stroke="none"/>
      <path d="M679.1 357.2 Q685.1 355.25 689.6 355.55 695.8 355.9 705.1 360.05 722.0 367.55 762.6 370.45 L799.85 371.85 800.05 400.1 0.15 399.9 0.05 284.05 Q1.65 281.85 3.65 277.85 7.6 269.95 9.65 261.3 L23.65 195.3 34.65 192.3 38.65 119.3 58.65 110.3 62.65 214.3 70.65 226.3 83.5 162.05 Q83.7 160.15 84.8 158.4 87.05 154.85 91.5 155.4 L100.35 155.7 Q103.9 154.4 104.6 147.15 104.9 144.25 104.65 140.65 104.4 137.7 104.65 136.8 105.3 134.25 113.65 132.3 121.8 130.45 132.0 130.7 L140.6 131.3 149.6 141.3 159.95 136.7 168.6 146.3 162.6 216.3 163.7 219.45 Q165.2 223.35 167.15 227.0 173.3 238.75 181.5 243.95 189.7 249.15 196.45 273.25 199.85 285.3 201.6 296.3 L206.9 301.7 Q214.6 308.15 226.6 313.3 232.9 316.0 238.35 317.1 L247.45 318.4 Q259.05 319.8 272.6 326.3 290.75 335.0 303.0 337.7 314.05 340.1 329.6 339.3 342.1 338.7 354.1 333.2 360.1 330.45 363.6 327.85 L384.6 324.85 404.6 329.3 417.9 340.6 442.6 352.25 450.8 354.05 Q461.05 356.15 471.65 357.5 505.4 361.9 529.15 357.5 552.35 353.25 587.75 356.3 L617.15 359.3 645.6 361.8 Q657.6 362.45 666.7 360.7 670.2 360.0 679.1 357.2" fill="url(#gradient7)" fill-rule="evenodd" stroke="none"/>
    </g>
    <linearGradient gradientTransform="matrix(-9.0E-4, 0.1996, -0.4894, -0.0023, 400.1, 175.6)" gradientUnits="userSpaceOnUse" id="gradient0" spreadMethod="pad" x1="-819.2" x2="819.2">
      <stop offset="0.0" stop-color="#77242c"/>
      <stop offset="0.2823529411764706" stop-color="#ff4e43"/>
      <stop offset="0.6039215686274509" stop-color="#ff8341"/>
      <stop offset="1.0" stop-color="#ffd164"/>
    </linearGradient>
    <linearGradient gradientTransform="matrix(-0.0017, 0.0616, -0.4888, -0.0132, 399.7, 383.95)" gradientUnits="userSpaceOnUse" id="gradient1" spreadMethod="pad" x1="-819.2" x2="819.2">
      <stop offset="0.0" stop-color="#3f1010"/>
      <stop offset="1.0" stop-color="#b12f2f"/>
    </linearGradient>
    <radialGradient cx="0" cy="0" gradientTransform="matrix(0.1229, 0.0, 0.0, 0.1229, 257.95, 235.0)" gradientUnits="userSpaceOnUse" id="gradient2" r="819.2" spreadMethod="pad">
      <stop offset="0.0" stop-color="#ffe8cd" stop-opacity="0.9882353"/>
      <stop offset="0.21568627450980393" stop-color="#ffe5bb" stop-opacity="0.9882353"/>
      <stop offset="0.43529411764705883" stop-color="#ffe9b6" stop-opacity="0.9882353"/>
      <stop offset="0.6196078431372549" stop-color="#ffecaf" stop-opacity="0.34901962"/>
      <stop offset="0.8156862745098039" stop-color="#ffe386" stop-opacity="0.06666667"/>
      <stop offset="1.0" stop-color="#ffe386" stop-opacity="0.0"/>
    </radialGradient>
    <linearGradient gradientTransform="matrix(-0.0995, 0.0641, -0.0564, -0.0875, 347.25, 268.4)" gradientUnits="userSpaceOnUse" id="gradient3" spreadMethod="pad" x1="-819.2" x2="819.2">
      <stop offset="0.0" stop-color="#ff4420" stop-opacity="0.3764706"/>
      <stop offset="0.6549019607843137" stop-color="#ffab2b" stop-opacity="0.32941177"/>
      <stop offset="1.0" stop-color="#ffb23c" stop-opacity="0.0"/>
    </linearGradient>
    <linearGradient gradientTransform="matrix(0.0554, 0.0446, -0.0502, 0.0624, 194.95, 237.25)" gradientUnits="userSpaceOnUse" id="gradient4" spreadMethod="pad" x1="-819.2" x2="819.2">
      <stop offset="0.0" stop-color="#ff5d20" stop-opacity="0.5568628"/>
      <stop offset="0.6549019607843137" stop-color="#ffab2b" stop-opacity="0.3882353"/>
      <stop offset="1.0" stop-color="#ffb23c" stop-opacity="0.0"/>
    </linearGradient>
    <linearGradient gradientTransform="matrix(-0.0061, -0.0189, 0.0972, -0.0312, 305.8, 290.95)" gradientUnits="userSpaceOnUse" id="gradient5" spreadMethod="pad" x1="-819.2" x2="819.2">
      <stop offset="0.0" stop-color="#ff9a20" stop-opacity="0.4"/>
      <stop offset="0.6549019607843137" stop-color="#ffab2b" stop-opacity="0.34901962"/>
      <stop offset="1.0" stop-color="#ffb23c" stop-opacity="0.0"/>
    </linearGradient>
    <linearGradient gradientTransform="matrix(0.0011, 0.064, -0.2388, 0.0043, 603.9, 339.2)" gradientUnits="userSpaceOnUse" id="gradient6" spreadMethod="pad" x1="-819.2" x2="819.2">
      <stop offset="0.0" stop-color="#de532c"/>
      <stop offset="1.0" stop-color="#f78934"/>
    </linearGradient>
    <linearGradient gradientTransform="matrix(-0.018, 0.1355, -0.4883, -0.0647, 402.1, 315.55)" gradientUnits="userSpaceOnUse" id="gradient7" spreadMethod="pad" x1="-819.2" x2="819.2">
      <stop offset="0.0" stop-color="#7e1f1f"/>
      <stop offset="0.5254901960784314" stop-color="#af3921"/>
      <stop offset="1.0" stop-color="#e2613e"/>
    </linearGradient>
  </defs>
</svg>
