<?xml version="1.0" encoding="UTF-8" standalone="no"?>
<svg xmlns:xlink="http://www.w3.org/1999/xlink" height="400.0px" width="800.0px" xmlns="http://www.w3.org/2000/svg">
  <g transform="matrix(1.0, 0.0, 0.0, 1.0, 0.0, 0.0)">
    <use height="400.0" transform="matrix(1.0, 0.0, 0.0, 1.0, 0.0, 0.0)" width="800.0" xlink:href="#shape0"/>
    <use height="116.85" transform="matrix(1.2755, 0.0, 0.0, 2.1729, 56.5164, 1.5414)" width="220.6" xlink:href="#sprite0"/>
    <use height="297.25" transform="matrix(1.0, 0.0, 0.0, 1.0, 10.3, 11.8)" width="772.2" xlink:href="#shape2"/>
  </g>
  <defs>
    <g id="shape0" transform="matrix(1.0, 0.0, 0.0, 1.0, 0.0, 0.0)">
      <path d="M800.0 400.0 L0.0 400.0 0.0 0.0 800.0 0.0 800.0 400.0" fill="url(#gradient0)" fill-rule="evenodd" stroke="none"/>
      <path d="M192.65 73.05 L187.2 73.35 192.65 73.05 M187.2 73.35 Q184.9 72.1 181.3 72.1 179.1 72.1 175.9 72.95 171.55 74.15 168.9 76.3 163.9 80.05 162.15 84.2 160.4 88.3 160.4 91.1 L160.4 91.55 Q160.55 97.65 164.75 99.35 L168.5 99.95 Q175.65 99.95 181.1 96.0 183.05 94.55 184.8 92.55 190.45 86.15 190.45 78.9 190.45 75.65 188.0 73.85 L187.2 73.35 M165.6 72.9 L169.4 67.9 Q169.4 66.1 166.0 67.85 162.8 69.5 158.6 73.25 147.75 82.85 147.75 89.4 147.75 91.7 148.1 92.2 148.6 92.85 150.9 92.85 154.8 92.85 157.25 87.7 158.6 85.0 160.05 80.6 161.35 78.25 165.6 72.9 M193.65 92.7 L189.3 90.9 193.65 92.7 M195.75 83.4 L194.1 83.4 195.75 83.4 M181.35 96.45 L181.1 96.0 181.35 96.45 M227.85 69.75 Q227.65 68.35 226.65 67.0 224.65 64.4 220.65 64.4 218.7 64.4 218.15 65.55 217.95 65.9 217.95 66.95 L219.0 69.7 Q220.85 72.35 224.95 72.35 227.05 72.35 227.6 71.6 L227.85 69.75 M235.75 65.85 Q236.1 67.7 236.1 69.85 236.1 73.55 234.75 76.65 233.8 78.7 231.8 81.35 232.05 81.15 232.4 81.1 L234.2 81.0 Q238.45 81.0 242.15 88.35 245.25 94.5 245.65 101.05 L243.8 100.0 241.15 98.9 239.7 98.4 Q232.3 100.7 232.35 113.3 234.55 122.1 240.55 122.15 246.5 122.2 248.75 117.25 250.6 113.25 250.6 108.25 250.6 106.2 249.4 104.45 L250.0 104.1 Q254.35 102.05 258.95 102.05 L261.4 102.35 Q263.5 110.5 263.5 119.55 263.5 146.65 244.35 165.85 235.6 174.6 225.25 179.35 221.7 177.2 219.9 173.55 218.9 174.55 217.95 174.75 L215.7 174.8 Q213.05 174.8 208.4 171.95 202.95 168.6 202.95 165.05 202.95 160.25 205.25 155.4 L208.35 149.9 208.05 149.9 Q206.7 151.65 200.65 154.15 195.1 156.4 189.85 157.0 L187.35 155.05 Q176.7 147.2 161.1 144.9 L160.2 145.1 Q156.45 139.55 155.7 132.35 L155.4 132.65 Q152.05 138.15 149.95 140.2 146.55 143.55 142.3 143.55 L136.65 143.05 Q132.5 132.15 132.5 119.55 132.5 92.4 151.7 73.2 170.9 54.05 198.0 54.05 219.3 54.05 235.75 65.85 M237.0 95.55 L239.7 98.4 237.0 95.55 M230.7 118.2 Q231.05 117.75 231.75 117.6 231.05 117.75 230.7 118.2 M229.65 113.85 L231.2 113.55 232.35 113.3 231.2 113.55 229.65 113.85 M239.15 137.15 Q238.8 137.15 232.15 142.4 L223.35 149.6 Q219.05 153.3 217.2 156.4 215.7 158.95 215.7 161.55 215.7 166.4 217.6 168.15 219.65 170.0 225.6 170.0 235.75 170.0 242.55 158.85 247.95 150.05 247.95 142.75 247.95 139.6 244.4 138.15 242.05 137.15 239.15 137.15 M214.95 134.6 Q211.65 134.15 211.65 138.0 L211.7 139.35 Q212.3 140.7 214.75 140.7 218.25 140.7 218.25 137.85 218.25 135.05 214.95 134.6 M190.8 112.1 L189.9 111.9 190.8 112.1 M183.4 108.85 Q181.65 108.85 180.25 110.95 179.2 112.55 179.2 113.2 L179.2 113.5 Q179.35 116.15 182.4 117.25 184.3 117.95 187.1 117.95 188.65 117.95 189.45 116.6 190.1 115.4 190.1 113.4 L189.9 111.9 Q188.9 108.85 183.4 108.85 M183.3 145.8 Q183.0 145.85 182.45 146.55 183.0 145.85 183.3 145.8 M164.6 100.65 L164.75 99.35 164.6 100.65 M168.6 107.3 Q169.2 106.0 169.2 102.75 169.2 106.0 168.6 107.3 M177.2 115.2 Q178.5 113.9 179.2 113.5 178.5 113.9 177.2 115.2 M182.9 119.75 L183.15 118.05 182.9 119.75 M180.05 148.05 L179.45 148.9 178.95 149.6 179.45 148.9 180.05 148.05 M159.45 93.15 L160.4 91.55 159.45 93.15 M243.6 126.15 Q243.45 125.25 243.9 123.8 L244.35 122.15 244.65 122.15 244.35 122.15 243.9 123.8 Q243.45 125.25 243.6 126.15 M148.8 107.1 Q147.25 103.85 144.85 104.15 142.6 104.4 140.9 107.4 139.1 110.65 139.1 115.05 L139.8 119.75 Q141.5 124.7 146.15 124.7 150.6 124.7 150.6 118.3 150.6 110.85 148.8 107.1" fill="url(#gradient1)" fill-rule="evenodd" stroke="none"/>
      <path d="M187.2 73.35 L188.0 73.85 Q190.45 75.65 190.45 78.9 190.45 86.15 184.8 92.55 183.05 94.55 181.1 96.0 175.65 99.95 168.5 99.95 L164.75 99.35 Q160.55 97.65 160.4 91.55 L160.4 91.1 Q160.4 88.3 162.15 84.2 163.9 80.05 168.9 76.3 171.55 74.15 175.9 72.95 179.1 72.1 181.3 72.1 184.9 72.1 187.2 73.35 M173.85 83.4 Q171.1 83.05 168.75 80.1 171.1 83.05 173.85 83.4 M171.45 95.85 L169.6 96.5 168.15 96.95 169.6 96.5 171.45 95.85" fill="url(#gradient2)" fill-rule="evenodd" stroke="none"/>
      <path d="M165.6 72.9 Q161.35 78.25 160.05 80.6 158.6 85.0 157.25 87.7 154.8 92.85 150.9 92.85 148.6 92.85 148.1 92.2 147.75 91.7 147.75 89.4 147.75 82.85 158.6 73.25 162.8 69.5 166.0 67.85 169.4 66.1 169.4 67.9 L165.6 72.9 M227.85 69.75 L227.6 71.6 Q227.05 72.35 224.95 72.35 220.85 72.35 219.0 69.7 L217.95 66.95 Q217.95 65.9 218.15 65.55 218.7 64.4 220.65 64.4 224.65 64.4 226.65 67.0 227.65 68.35 227.85 69.75" fill="#acc7e2" fill-rule="evenodd" stroke="none"/>
      <path d="M245.65 101.05 Q245.25 94.5 242.15 88.35 238.45 81.0 234.2 81.0 L232.4 81.1 Q232.05 81.15 231.8 81.35 233.8 78.7 234.75 76.65 236.1 73.55 236.1 69.85 236.1 67.7 235.75 65.85 240.25 69.1 244.35 73.2 257.1 86.0 261.4 102.35 L258.95 102.05 Q254.35 102.05 250.0 104.1 L249.4 104.45 Q248.15 102.6 245.65 101.05" fill="#829ab4" fill-rule="evenodd" stroke="none"/>
      <path d="M245.65 101.05 Q248.15 102.6 249.4 104.45 250.6 106.2 250.6 108.25 250.6 113.25 248.75 117.25 246.5 122.2 240.55 122.15 234.55 122.1 232.35 113.3 232.3 100.7 239.7 98.4 L241.15 98.9 243.8 100.0 245.65 101.05" fill="url(#gradient3)" fill-rule="evenodd" stroke="none"/>
      <path d="M214.95 134.6 Q218.25 135.05 218.25 137.85 218.25 140.7 214.75 140.7 212.3 140.7 211.7 139.35 L211.65 138.0 Q211.65 134.15 214.95 134.6 M239.15 137.15 Q242.05 137.15 244.4 138.15 247.95 139.6 247.95 142.75 247.95 150.05 242.55 158.85 235.75 170.0 225.6 170.0 219.65 170.0 217.6 168.15 215.7 166.4 215.7 161.55 215.7 158.95 217.2 156.4 219.05 153.3 223.35 149.6 L232.15 142.4 Q238.8 137.15 239.15 137.15 M148.8 107.1 Q150.6 110.85 150.6 118.3 150.6 124.7 146.15 124.7 141.5 124.7 139.8 119.75 L139.1 115.05 Q139.1 110.65 140.9 107.4 142.6 104.4 144.85 104.15 147.25 103.85 148.8 107.1" fill="#7893af" fill-rule="evenodd" stroke="none"/>
      <path d="M183.4 108.85 Q188.9 108.85 189.9 111.9 L190.1 113.4 Q190.1 115.4 189.45 116.6 188.65 117.95 187.1 117.95 184.3 117.95 182.4 117.25 179.35 116.15 179.2 113.5 L179.2 113.2 Q179.2 112.55 180.25 110.95 181.65 108.85 183.4 108.85" fill="#5e81a6" fill-rule="evenodd" stroke="none"/>
      <path d="M136.65 143.05 L142.3 143.55 Q146.55 143.55 149.95 140.2 152.05 138.15 155.4 132.65 L155.7 132.35 Q156.45 139.55 160.2 145.1 159.4 145.3 158.2 145.9 L157.15 146.4 156.95 149.5 Q157.3 153.15 160.25 156.0 168.1 163.6 173.85 165.35 184.95 168.8 191.65 167.9 195.0 167.5 196.15 166.35 L194.6 163.1 Q192.5 159.4 189.85 157.0 195.1 156.4 200.65 154.15 206.7 151.65 208.05 149.9 L208.35 149.9 205.25 155.4 Q202.95 160.25 202.95 165.05 202.95 168.6 208.4 171.95 213.05 174.8 215.7 174.8 L217.95 174.75 Q218.9 174.55 219.9 173.55 221.7 177.2 225.25 179.35 212.8 185.05 198.0 185.05 170.9 185.05 151.7 165.85 141.45 155.6 136.65 143.05 M196.65 157.95 L194.55 159.0 196.65 157.95 M199.35 166.35 L196.15 166.35 199.35 166.35 M158.55 143.55 L157.15 146.4 158.55 143.55" fill="#8ea6bf" fill-rule="evenodd" stroke="none"/>
      <path d="M160.2 145.1 L161.1 144.9 Q176.7 147.2 187.35 155.05 L189.85 157.0 Q192.5 159.4 194.6 163.1 L196.15 166.35 Q195.0 167.5 191.65 167.9 184.95 168.8 173.85 165.35 168.1 163.6 160.25 156.0 157.3 153.15 156.95 149.5 L157.15 146.4 158.2 145.9 Q159.4 145.3 160.2 145.1" fill="url(#gradient4)" fill-rule="evenodd" stroke="none"/>
      <path d="M187.2 73.35 L192.65 73.05 M187.2 73.35 Q184.9 72.1 181.3 72.1 179.1 72.1 175.9 72.95 171.55 74.15 168.9 76.3 163.9 80.05 162.15 84.2 160.4 88.3 160.4 91.1 L160.4 91.55 Q160.55 97.65 164.75 99.35 L168.5 99.95 Q175.65 99.95 181.1 96.0 183.05 94.55 184.8 92.55 190.45 86.15 190.45 78.9 190.45 75.65 188.0 73.85 L187.2 73.35 M168.15 96.95 L169.6 96.5 171.45 95.85 M168.75 80.1 Q171.1 83.05 173.85 83.4 M181.1 96.0 L181.35 96.45 M194.1 83.4 L195.75 83.4 M189.3 90.9 L193.65 92.7 M245.65 101.05 Q248.15 102.6 249.4 104.45 M261.4 102.35 Q257.1 86.0 244.35 73.2 240.25 69.1 235.75 65.85 219.3 54.05 198.0 54.05 170.9 54.05 151.7 73.2 132.5 92.4 132.5 119.55 132.5 132.15 136.65 143.05 M160.2 145.1 L161.1 144.9 Q176.7 147.2 187.35 155.05 L189.85 157.0 Q192.5 159.4 194.6 163.1 L196.15 166.35 199.35 166.35 M225.25 179.35 Q235.6 174.6 244.35 165.85 263.5 146.65 263.5 119.55 263.5 110.5 261.4 102.35 M239.7 98.4 L237.0 95.55 M245.65 101.05 L243.8 100.0 241.15 98.9 239.7 98.4 Q232.3 100.7 232.35 113.3 234.55 122.1 240.55 122.15 246.5 122.2 248.75 117.25 250.6 113.25 250.6 108.25 250.6 106.2 249.4 104.45 M232.35 113.3 L231.2 113.55 229.65 113.85 M231.75 117.6 Q231.05 117.75 230.7 118.2 M189.9 111.9 L190.8 112.1 M183.4 108.85 Q181.65 108.85 180.25 110.95 179.2 112.55 179.2 113.2 L179.2 113.5 Q179.35 116.15 182.4 117.25 184.3 117.95 187.1 117.95 188.65 117.95 189.45 116.6 190.1 115.4 190.1 113.4 L189.9 111.9 Q188.9 108.85 183.4 108.85 M183.15 118.05 L182.9 119.75 M179.2 113.5 Q178.5 113.9 177.2 115.2 M169.2 102.75 Q169.2 106.0 168.6 107.3 M164.75 99.35 L164.6 100.65 M182.45 146.55 Q183.0 145.85 183.3 145.8 M194.55 159.0 L196.65 157.95 M160.2 145.1 Q159.4 145.3 158.2 145.9 L157.15 146.4 156.95 149.5 Q157.3 153.15 160.25 156.0 168.1 163.6 173.85 165.35 184.95 168.8 191.65 167.9 195.0 167.5 196.15 166.35 M178.95 149.6 L179.45 148.9 180.05 148.05 M225.25 179.35 Q212.8 185.05 198.0 185.05 170.9 185.05 151.7 165.85 141.45 155.6 136.65 143.05 M244.65 122.15 L244.35 122.15 243.9 123.8 Q243.45 125.25 243.6 126.15 M160.4 91.55 L159.45 93.15 M157.15 146.4 L158.55 143.55" fill="none" stroke="#000000" stroke-linecap="round" stroke-linejoin="round" stroke-opacity="0.14901961" stroke-width="0.4"/>
      <path d="M707.5 115.7 L709.1 115.95 Q709.9 115.9 713.5 119.95 717.05 123.95 734.25 138.65 751.4 153.15 764.6 154.5 777.75 155.75 785.5 160.05 783.9 161.15 780.6 161.55 L754.0 162.65 Q730.75 163.3 712.0 165.55 L670.75 165.15 641.9 166.5 623.0 167.9 597.0 167.75 588.0 168.05 Q587.8 168.15 588.05 168.3 588.3 168.5 587.9 168.55 585.0 169.3 535.0 169.65 L490.25 169.3 481.0 169.55 462.35 168.5 443.5 169.25 436.2 168.5 Q425.9 170.25 415.0 170.05 L410.95 169.65 398.0 171.0 373.0 170.55 370.2 169.3 Q369.25 168.8 365.6 168.5 L355.15 167.55 305.0 164.65 398.25 166.05 411.0 165.4 412.15 165.55 416.15 164.65 Q425.2 162.55 434.0 161.4 450.15 159.05 456.25 161.05 457.55 160.05 459.05 159.15 465.35 155.65 472.2 155.9 L472.75 155.3 474.6 155.05 Q478.65 154.15 480.25 152.55 482.15 150.4 483.5 149.8 486.85 148.55 496.0 148.15 500.2 143.95 508.3 139.4 521.85 131.9 534.5 132.05 542.75 132.15 548.65 135.15 550.15 135.9 552.45 137.15 554.4 138.05 556.0 138.15 556.55 138.15 560.9 135.4 566.4 132.45 572.5 132.65 L577.7 133.4 582.85 134.2 Q583.95 134.3 588.15 131.15 593.95 126.9 598.85 124.3 617.6 114.4 645.0 114.8 657.35 114.95 661.3 116.7 L663.2 117.9 Q663.95 118.4 665.0 118.4 666.65 118.45 674.3 115.2 682.65 111.7 686.0 111.15 700.85 108.7 705.6 111.4 708.0 112.8 707.5 115.7" fill="url(#gradient5)" fill-rule="evenodd" stroke="none"/>
      <path d="M693.35 229.9 Q682.05 230.85 665.0 233.85 L577.9 234.4 Q577.35 234.75 573.2 235.35 L568.45 236.15 524.35 236.15 487.7 238.25 Q468.9 240.0 495.35 235.1 521.75 230.15 522.15 229.4 522.65 228.6 524.4 228.15 L540.2 224.85 Q542.9 224.15 545.1 220.6 547.15 217.25 548.45 217.25 550.0 217.25 563.15 222.75 570.2 222.75 578.15 219.15 582.7 217.1 590.9 212.4 598.0 208.85 602.8 208.85 609.15 208.75 615.1 214.4 L643.55 215.0 646.15 215.75 682.15 216.15 Q691.2 219.9 698.35 221.5 700.05 221.85 700.35 222.25 700.6 222.5 721.85 227.6 743.1 232.6 723.85 230.85 L693.35 229.9" fill="url(#gradient6)" fill-rule="evenodd" stroke="none"/>
      <path d="M508.4 96.35 Q512.1 98.05 512.1 101.35 512.1 103.4 511.3 103.95 510.05 104.9 505.2 105.45 L455.35 109.8 404.35 109.8 395.45 108.95 385.95 108.55 376.65 109.55 367.35 110.65 Q364.9 110.65 364.0 108.55 363.35 106.95 363.6 105.15 L353.0 105.4 345.85 105.55 Q341.05 105.55 339.85 102.95 L339.6 100.1 Q339.6 96.3 347.75 92.1 354.35 88.7 362.1 86.8 373.25 84.1 380.1 84.55 L383.3 84.6 Q384.5 84.45 385.85 83.2 389.9 79.55 395.85 76.3 415.1 65.8 429.7 69.7 435.95 71.35 439.55 75.55 443.1 79.6 443.1 85.1 L444.6 83.95 Q445.95 82.85 447.8 82.2 453.55 79.85 464.85 79.85 472.6 79.85 483.55 84.95 489.2 87.45 494.85 90.8 501.4 93.85 508.4 96.35" fill="url(#gradient7)" fill-rule="evenodd" stroke="none"/>
      <path d="M455.7 275.7 L494.0 276.1 Q496.95 276.85 505.25 277.45 L553.15 277.5 Q536.9 277.95 551.0 281.75 542.2 283.45 534.85 285.5 L514.85 285.95 494.6 287.6 479.65 289.1 217.3 289.1 217.05 288.9 172.05 288.9 Q220.5 281.8 228.55 281.45 244.95 280.6 248.55 277.95 249.9 276.85 256.6 274.7 L259.65 273.7 Q268.6 270.75 269.7 270.75 271.6 270.75 277.45 273.25 283.25 275.7 285.75 275.7 313.0 275.7 328.4 270.1 L345.15 263.5 347.4 262.65 Q359.0 258.35 372.45 254.7 385.15 251.25 389.7 255.25 L393.15 259.35 Q394.85 261.45 396.95 262.65 L398.05 263.2 Q400.35 265.2 421.95 269.25 L455.7 275.7" fill="url(#gradient8)" fill-rule="evenodd" stroke="none"/>
      <path d="M194.2 107.3 Q318.65 122.7 363.45 120.65 332.25 130.3 259.75 124.95 L171.4 128.8 101.5 131.45 61.8 129.05 Q20.5 126.8 6.8 130.15 16.4 126.5 21.85 122.25 L31.95 113.85 Q45.8 103.0 59.45 104.95 60.6 103.95 63.25 100.2 65.9 96.55 68.45 94.45 76.9 87.45 95.45 86.8 107.15 86.45 112.75 96.8 115.5 101.95 115.95 107.3 L118.7 105.9 Q122.2 104.2 126.15 102.8 138.75 98.35 150.95 98.35 165.55 98.35 174.55 101.8 176.8 102.65 180.05 104.15 182.7 105.15 184.95 105.15 L189.2 105.95 194.2 107.3" fill="url(#gradient9)" fill-rule="evenodd" stroke="none"/>
      <path d="M76.05 194.55 L85.65 188.8 Q100.85 180.8 122.35 183.55 125.8 184.25 127.8 186.9 L130.6 190.9 141.3 190.5 Q143.55 190.4 164.55 195.25 175.05 197.55 232.1 200.85 L183.1 203.9 172.7 202.9 Q168.4 202.15 118.45 206.1 68.15 210.1 52.5 208.4 36.8 206.65 34.9 204.85 33.0 203.0 37.8 202.95 42.6 202.9 45.6 199.6 50.05 194.5 59.35 194.5 64.75 194.5 66.1 196.0 L66.85 197.0 Q67.35 197.4 68.45 197.4 71.45 197.4 76.05 194.55" fill="url(#gradient10)" fill-rule="evenodd" stroke="none"/>
    </g>
    <radialGradient cx="0" cy="0" gradientTransform="matrix(0.651, -1.0E-4, 1.0E-4, 0.5865, 194.0, 119.0)" gradientUnits="userSpaceOnUse" id="gradient0" r="819.2" spreadMethod="pad">
      <stop offset="0.0" stop-color="#b5cdee"/>
      <stop offset="0.043137254901960784" stop-color="#8a96ad"/>
      <stop offset="0.1843137254901961" stop-color="#263c4f"/>
      <stop offset="1.0" stop-color="#10193f"/>
    </radialGradient>
    <radialGradient cx="0" cy="0" gradientTransform="matrix(0.09, 0.0, 0.0, 0.09, 189.8, 108.15)" gradientUnits="userSpaceOnUse" id="gradient1" r="819.2" spreadMethod="pad">
      <stop offset="0.0" stop-color="#c6dcf3"/>
      <stop offset="1.0" stop-color="#8ea6bf"/>
    </radialGradient>
    <linearGradient gradientTransform="matrix(0.0115, 0.0067, -0.0085, 0.0147, 181.3, 88.45)" gradientUnits="userSpaceOnUse" id="gradient2" spreadMethod="pad" x1="-819.2" x2="819.2">
      <stop offset="0.0" stop-color="#7a95b1"/>
      <stop offset="1.0" stop-color="#597898"/>
    </linearGradient>
    <linearGradient gradientTransform="matrix(-0.015, 0.0087, -0.0073, -0.0127, 251.3, 108.7)" gradientUnits="userSpaceOnUse" id="gradient3" spreadMethod="pad" x1="-819.2" x2="819.2">
      <stop offset="0.0" stop-color="#c6dcf3"/>
      <stop offset="1.0" stop-color="#7b99b8"/>
    </linearGradient>
    <linearGradient gradientTransform="matrix(0.0033, -0.0122, 0.0141, 0.0038, 177.9, 152.45)" gradientUnits="userSpaceOnUse" id="gradient4" spreadMethod="pad" x1="-819.2" x2="819.2">
      <stop offset="0.0" stop-color="#7a95b1"/>
      <stop offset="1.0" stop-color="#597898"/>
    </linearGradient>
    <linearGradient gradientTransform="matrix(0.1977, -0.1141, 0.0148, 0.0265, 564.7, 363.45)" gradientUnits="userSpaceOnUse" id="gradient5" spreadMethod="pad" x1="-819.2" x2="819.2">
      <stop offset="0.09019607843137255" stop-color="#f5fdff" stop-opacity="0.6509804"/>
      <stop offset="0.9921568627450981" stop-color="#eefbff" stop-opacity="0.0"/>
    </linearGradient>
    <linearGradient gradientTransform="matrix(0.0143, 0.0534, -0.0096, 0.0026, 593.05, 219.3)" gradientUnits="userSpaceOnUse" id="gradient6" spreadMethod="pad" x1="-819.2" x2="819.2">
      <stop offset="0.0" stop-color="#f5fdff" stop-opacity="0.6509804"/>
      <stop offset="0.9921568627450981" stop-color="#eefbff" stop-opacity="0.0"/>
    </linearGradient>
    <linearGradient gradientTransform="matrix(0.048, -0.048, 0.0215, 0.0215, 426.9, 103.5)" gradientUnits="userSpaceOnUse" id="gradient7" spreadMethod="pad" x1="-819.2" x2="819.2">
      <stop offset="0.043137254901960784" stop-color="#f5fdff" stop-opacity="0.6509804"/>
      <stop offset="0.9921568627450981" stop-color="#eefbff" stop-opacity="0.0"/>
    </linearGradient>
    <linearGradient gradientTransform="matrix(0.0338, 0.0863, -0.0184, 0.0068, 321.25, 270.75)" gradientUnits="userSpaceOnUse" id="gradient8" spreadMethod="pad" x1="-819.2" x2="819.2">
      <stop offset="0.0" stop-color="#f5fdff" stop-opacity="0.6509804"/>
      <stop offset="0.9921568627450981" stop-color="#eefbff" stop-opacity="0.0"/>
    </linearGradient>
    <linearGradient gradientTransform="matrix(-0.009, -0.0334, 0.0313, -0.0084, 201.1, 121.5)" gradientUnits="userSpaceOnUse" id="gradient9" spreadMethod="pad" x1="-819.2" x2="819.2">
      <stop offset="0.043137254901960784" stop-color="#f5fdff" stop-opacity="0.6509804"/>
      <stop offset="0.9921568627450981" stop-color="#eefbff" stop-opacity="0.0"/>
    </linearGradient>
    <linearGradient gradientTransform="matrix(-0.0185, 0.0321, -0.0146, -0.0131, 133.0, 206.65)" gradientUnits="userSpaceOnUse" id="gradient10" spreadMethod="pad" x1="-819.2" x2="819.2">
      <stop offset="0.043137254901960784" stop-color="#f5fdff" stop-opacity="0.6509804"/>
      <stop offset="0.9921568627450981" stop-color="#eefbff" stop-opacity="0.0"/>
    </linearGradient>
    <g id="sprite0" transform="matrix(1.0, 0.0, 0.0, 1.0, -2.6, 0.05)">
      <use height="116.85" transform="matrix(1.0, 0.0, 0.0, 1.0, 2.6, -0.05)" width="220.6" xlink:href="#shape1"/>
    </g>
    <g id="shape1" transform="matrix(1.0, 0.0, 0.0, 1.0, -2.6, 0.05)">
      <path d="M216.6 72.9 Q209.6 82.3 197.3 90.5 165.65 111.5 112.85 116.1 61.0 120.6 28.05 95.7 15.85 86.45 8.7 74.85 2.6 65.0 2.6 58.05 2.6 51.0 7.9 41.95 14.25 31.1 25.85 22.35 57.15 -1.2 112.85 0.0 173.9 1.15 201.1 17.6 224.7 31.9 223.1 58.05 222.7 64.7 216.6 72.9" fill="url(#gradient11)" fill-rule="evenodd" stroke="none"/>
    </g>
    <radialGradient cx="0" cy="0" gradientTransform="matrix(0.0971, 0.0, 0.0, 0.0572, 109.5, 53.65)" gradientUnits="userSpaceOnUse" id="gradient11" r="819.2" spreadMethod="pad">
      <stop offset="0.0" stop-color="#cdfdff" stop-opacity="0.45882353"/>
      <stop offset="0.19607843137254902" stop-color="#dafdff" stop-opacity="0.34117648"/>
      <stop offset="1.0" stop-color="#ffffff" stop-opacity="0.0"/>
    </radialGradient>
    <g id="shape2" transform="matrix(1.0, 0.0, 0.0, 1.0, -10.3, -11.8)">
      <path d="M750.25 96.55 L751.5 96.8 Q751.4 97.25 750.9 97.5 750.25 97.25 750.25 96.55 M752.75 65.55 L754.0 65.8 Q753.9 66.25 753.4 66.5 752.75 66.25 752.75 65.55 M719.3 31.55 L720.55 31.8 Q720.4 32.25 719.9 32.5 719.3 32.25 719.3 31.55 M679.4 60.05 L677.75 59.7 Q677.0 59.4 676.8 59.05 676.95 58.7 678.05 58.35 L679.65 58.0 Q680.05 58.3 680.05 59.5 680.65 60.05 679.4 60.05 M687.05 100.8 Q687.05 101.55 686.65 102.0 L686.05 102.0 Q685.8 101.55 685.8 100.55 L687.05 100.8 M699.55 190.3 L699.3 191.0 698.05 191.05 697.8 190.25 699.55 190.3 M774.5 158.0 Q774.25 158.4 774.25 157.15 774.25 156.6 774.8 156.2 775.4 155.7 776.0 156.3 L776.0 157.5 774.5 158.0 M781.9 205.55 L780.1 205.65 Q779.75 205.65 779.75 204.85 L780.25 204.25 781.15 203.5 782.5 205.0 781.9 205.55 M732.05 238.0 Q731.8 237.85 731.8 237.0 731.8 236.25 732.1 236.0 L732.4 235.8 733.65 235.8 734.05 237.05 Q733.7 237.65 732.9 238.05 L732.05 238.0 M769.5 267.5 Q769.25 267.05 769.25 266.3 769.55 265.8 770.5 266.3 770.5 267.05 770.15 267.5 L769.5 267.5 M672.6 257.45 L675.55 257.8 Q674.45 259.85 673.4 260.05 672.55 259.35 672.25 258.6 L671.8 257.5 672.6 257.45 M682.05 262.3 Q682.05 263.05 681.65 263.5 L681.05 263.5 Q680.8 263.05 680.8 262.05 L682.05 262.3 M609.65 44.35 Q609.65 45.05 608.95 45.7 L607.9 46.75 606.95 45.7 606.65 45.0 606.8 43.5 607.65 43.4 609.4 43.5 609.55 43.55 609.65 44.35 M585.8 75.05 L587.05 75.3 586.4 76.0 Q585.8 75.75 585.8 75.05 M546.4 61.0 L546.55 61.05 546.65 61.85 546.55 62.8 546.25 63.05 545.15 63.25 544.2 63.15 544.15 63.0 543.75 62.75 543.65 61.85 Q543.65 61.05 544.45 60.8 L546.4 61.0 M624.65 187.0 L623.65 187.0 623.5 186.4 623.3 185.8 Q623.4 185.5 624.65 185.5 L625.05 185.8 Q625.05 186.55 624.65 187.0 M425.15 32.0 L425.55 32.3 425.55 32.85 427.05 33.3 427.15 33.85 Q427.15 34.05 426.4 34.05 L425.55 34.05 425.5 34.5 425.15 35.0 424.55 35.0 424.3 34.55 424.3 33.95 423.05 33.75 422.8 32.5 424.3 32.6 424.3 32.05 425.15 32.0 M389.3 20.05 L390.55 20.3 389.9 21.0 Q389.3 20.75 389.3 20.05 M331.55 61.8 L331.25 63.0 330.55 63.0 Q330.3 62.55 330.3 61.8 330.7 61.35 331.55 61.8 M453.3 125.55 L454.15 125.5 454.8 126.55 454.9 126.7 455.55 126.8 455.15 127.25 455.55 128.5 Q455.4 128.8 454.55 129.0 453.9 128.6 453.55 127.8 L452.55 128.0 Q452.3 127.55 452.3 126.55 L453.2 126.5 453.3 125.55 M439.4 236.8 L440.1 236.95 441.05 237.3 440.8 238.0 439.05 238.05 438.95 238.15 Q438.8 238.15 438.8 237.35 438.8 236.6 439.1 236.7 L439.4 236.8 M364.9 282.5 Q364.3 282.25 364.3 281.55 L365.55 281.8 Q365.4 282.25 364.9 282.5 M336.85 307.8 L336.8 307.55 Q337.15 306.8 337.95 306.55 338.8 306.3 339.55 306.8 339.45 308.0 337.85 308.0 L336.85 307.8 M301.8 11.85 Q302.05 11.9 302.05 12.65 L301.8 14.15 301.7 14.5 303.55 14.8 Q303.5 15.45 303.0 15.55 L302.05 15.55 302.05 15.9 302.0 17.0 301.75 17.5 301.05 17.5 300.8 17.05 300.8 15.55 299.05 15.5 Q298.8 16.1 298.8 14.85 298.8 14.1 299.15 14.2 L299.5 14.3 300.35 14.4 300.3 13.75 Q300.3 12.15 301.0 11.8 L301.8 11.85 M119.5 26.05 Q117.6 26.05 117.3 25.55 L117.3 25.0 118.0 24.95 120.05 25.3 120.0 25.75 Q120.75 26.05 119.5 26.05 M50.3 16.1 Q50.3 15.15 50.55 14.95 L53.75 14.5 54.05 14.8 54.05 15.9 54.0 17.0 53.75 17.5 50.55 17.5 50.35 17.1 50.3 16.1 M75.05 38.8 L74.75 40.0 74.05 40.0 Q73.8 39.55 73.8 38.8 74.2 38.35 75.05 38.8 M47.3 85.55 L48.55 85.8 48.0 86.5 Q47.3 86.25 47.3 85.55 M12.75 104.5 L13.05 104.8 13.05 107.05 12.75 107.5 11.05 107.5 Q10.8 107.9 10.8 106.65 10.8 105.9 11.0 105.85 L11.75 105.75 Q10.55 105.5 10.3 105.05 L10.3 104.5 10.95 104.45 12.75 104.5 M35.5 147.05 Q34.55 147.0 34.3 146.55 L34.3 146.0 34.9 145.95 36.05 146.3 Q36.0 146.95 35.5 147.05 M17.8 153.55 L19.05 153.8 18.5 154.5 Q17.8 154.25 17.8 153.55 M89.8 236.55 L89.8 236.0 90.4 235.95 91.55 236.3 Q91.5 236.95 91.0 237.05 90.05 237.0 89.8 236.55 M95.55 295.15 L95.3 294.85 Q95.3 294.1 95.65 293.95 L96.0 293.8 96.9 293.95 98.05 294.3 Q97.95 295.1 97.0 296.05 L95.55 295.15 M128.3 285.55 L128.3 285.0 128.9 284.95 130.05 285.3 Q130.0 285.95 129.5 286.05 128.55 286.0 128.3 285.55 M41.55 268.65 Q41.3 268.65 41.3 267.85 L42.05 267.15 Q42.85 266.5 43.25 266.5 43.55 266.8 43.55 268.0 L43.1 268.2 42.5 268.55 41.55 268.65 M322.8 242.05 L324.05 242.3 323.5 243.0 Q322.8 242.75 322.8 242.05 M312.5 282.3 L312.75 282.55 313.05 283.05 312.1 283.65 311.0 284.05 310.05 284.05 Q309.8 283.95 309.8 283.15 309.8 282.55 310.4 282.2 L312.5 282.3 M238.3 308.55 L238.3 308.0 238.9 307.95 240.05 308.3 Q240.0 308.95 239.5 309.05 238.55 309.0 238.3 308.55" fill="#d5e7fa" fill-rule="evenodd" stroke="none"/>
    </g>
  </defs>
</svg>
