<?xml version="1.0" encoding="UTF-8" standalone="no"?>
<svg xmlns:xlink="http://www.w3.org/1999/xlink" height="400.8px" width="4800.2px" xmlns="http://www.w3.org/2000/svg">
  <g transform="matrix(1.0, 0.0, 0.0, 1.0, 0.0, 0.0)">
    <use height="400.0" transform="matrix(1.0, 0.0, 0.0, 1.0, 0.0, 0.0)" width="4800.15" xlink:href="#shape0"/>
    <use height="57.1" transform="matrix(2.2278, 0.0, 0.0, 3.4142, 2603.1538, 201.6293)" width="220.55" xlink:href="#sprite0"/>
    <use height="385.5" transform="matrix(1.0, 0.0, 0.0, 1.0, 3915.25, 15.3)" width="884.95" xlink:href="#shape2"/>
    <use height="78.5" transform="matrix(1.0, 0.0, 0.0, 1.1667, 3916.1, 14.8833)" width="247.45" xlink:href="#sprite1"/>
    <use height="78.5" transform="matrix(1.0, 0.0, 0.0, 1.1667, 4127.6, 14.8833)" width="247.45" xlink:href="#sprite1"/>
    <use height="78.5" transform="matrix(1.0, 0.0, 0.0, 1.1667, 4339.55, 14.8833)" width="247.45" xlink:href="#sprite1"/>
    <use height="166.1" transform="matrix(1.0, 0.0, 0.0, 1.0, 3878.45, 9.7)" width="84.5" xlink:href="#shape4"/>
    <use height="78.5" transform="matrix(1.0, 0.0, 0.0, 1.1667, 4551.5, 14.8833)" width="247.45" xlink:href="#sprite1"/>
  </g>
  <defs>
    <g id="shape0" transform="matrix(1.0, 0.0, 0.0, 1.0, 0.0, 0.0)">
      <path d="M4800.15 400.0 L2400.05 400.0 0.0 400.0 0.0 0.0 2400.05 0.0 4800.15 0.0 4800.15 400.0" fill="url(#gradient0)" fill-rule="evenodd" stroke="none"/>
      <path d="M4142.6 68.5 L4122.35 69.5 4107.4 70.4 3845.05 70.4 3842.9 69.35 Q3842.15 68.95 3842.15 68.5 3842.15 66.2 3856.3 65.8 3872.7 65.3 3876.3 63.7 3877.65 63.05 3884.35 61.75 L3887.4 61.15 Q3896.35 59.4 3897.45 59.4 3899.35 59.4 3905.2 60.9 3911.0 62.35 3913.5 62.35 3940.75 62.35 3956.15 59.0 L3972.9 55.05 Q3985.45 52.15 4000.2 49.75 4012.9 47.7 4017.45 50.1 L4020.9 52.55 Q4023.05 54.15 4025.8 54.85 4028.1 56.05 4049.7 58.5 L4083.45 62.35 4121.75 62.6 4133.0 63.4 4180.9 63.45 Q4164.65 63.7 4178.75 66.0 L4162.6 68.25 4142.6 68.5" fill="url(#gradient1)" fill-rule="evenodd" stroke="none"/>
      <path d="M3731.8 104.3 L3705.2 104.95 3663.2 106.7 3621.95 106.45 3593.1 107.25 3574.2 108.1 3548.2 108.0 Q3539.9 108.05 3539.2 108.2 3539.0 108.25 3539.25 108.35 L3539.1 108.5 Q3536.2 108.95 3486.2 109.15 L3441.45 108.95 3432.2 109.1 3413.55 108.45 Q3403.25 109.0 3394.7 108.9 L3387.4 108.45 3366.2 109.4 3362.15 109.15 3349.2 109.95 3324.2 109.7 3321.4 108.95 3316.8 108.45 3306.35 107.9 3256.2 106.15 3349.45 107.0 3362.2 106.6 3363.35 106.7 3367.35 106.15 3385.2 104.2 Q3401.35 102.8 3407.45 104.0 L3410.25 102.85 Q3416.55 100.75 3423.4 100.9 L3423.95 100.55 3425.8 100.4 Q3429.85 99.85 3431.45 98.9 3433.35 97.6 3434.7 97.25 L3447.2 96.25 Q3451.4 93.75 3459.5 91.0 3473.05 86.5 3485.7 86.6 3493.95 86.65 3499.85 88.45 L3503.65 89.65 3507.2 90.25 3512.1 88.6 Q3517.6 86.85 3523.7 86.95 L3528.9 87.4 3534.05 87.9 Q3535.15 87.95 3539.35 86.05 3545.15 83.5 3550.05 81.95 3568.8 76.0 3596.2 76.25 3608.55 76.35 3612.5 77.4 L3614.4 78.1 3616.2 78.4 Q3617.85 78.45 3625.5 76.5 3633.85 74.4 3637.2 74.05 3652.05 72.6 3656.8 74.2 3659.2 75.05 3658.7 76.8 L3660.3 76.95 Q3661.1 76.9 3664.7 79.35 3668.25 81.75 3685.45 90.55 3702.6 99.25 3715.8 100.05 3728.95 100.8 3736.7 103.4 3735.1 104.05 3731.8 104.3" fill="url(#gradient2)" fill-rule="evenodd" stroke="none"/>
      <path d="M3755.35 148.35 L3783.8 148.7 3786.4 149.15 3822.4 149.4 Q3831.45 151.65 3838.6 152.6 L3840.6 153.05 3862.1 156.25 Q3883.35 159.25 3864.1 158.2 3844.85 157.1 3833.6 157.65 L3805.25 160.0 3718.15 160.35 3713.45 160.9 3708.7 161.4 3664.6 161.4 3627.95 162.65 Q3609.15 163.7 3635.6 160.75 L3662.4 157.35 Q3662.9 156.85 3664.65 156.6 L3680.45 154.6 Q3683.15 154.2 3685.35 152.05 3687.4 150.05 3688.7 150.05 3690.25 150.05 3703.4 153.35 3710.45 153.35 3718.4 151.2 L3731.15 147.15 Q3738.25 145.0 3743.05 145.0 3749.4 144.95 3755.35 148.35" fill="url(#gradient3)" fill-rule="evenodd" stroke="none"/>
      <path d="M3408.7 185.5 Q3410.85 187.1 3413.6 187.8 3415.9 189.0 3437.5 191.45 L3471.25 195.3 3509.55 195.55 3520.8 196.35 3568.7 196.4 Q3552.45 196.65 3566.55 198.95 L3550.4 201.2 3530.4 201.45 3510.15 202.45 3495.2 203.35 3232.85 203.35 3230.7 202.3 Q3229.95 201.9 3229.95 201.45 3229.95 199.15 3244.1 198.75 3260.5 198.25 3264.1 196.65 3265.45 196.0 3272.15 194.7 L3275.2 194.1 3285.25 192.35 Q3287.15 192.35 3293.0 193.85 3298.8 195.3 3301.3 195.3 3328.55 195.3 3343.95 191.95 L3360.7 188.0 Q3373.25 185.1 3388.0 182.7 3400.7 180.65 3405.25 183.05 L3408.7 185.5" fill="url(#gradient4)" fill-rule="evenodd" stroke="none"/>
      <path d="M3160.8 69.35 Q3159.55 69.9 3154.7 70.25 L3104.85 72.85 3053.85 72.85 3044.95 72.35 3035.45 72.1 3026.15 72.7 3016.85 73.35 Q3014.4 73.35 3013.5 72.1 3012.85 71.15 3013.1 70.05 L3002.5 70.2 2995.35 70.3 Q2990.55 70.3 2989.35 68.75 L2989.1 67.05 Q2989.1 64.75 2997.25 62.25 3003.85 60.2 3011.6 59.05 3022.75 57.45 3029.6 57.7 L3032.8 57.75 Q3034.0 57.65 3035.35 56.9 3039.4 54.7 3045.35 52.75 3064.6 46.45 3079.2 48.8 3085.45 49.8 3089.05 52.3 3092.6 54.75 3092.6 58.05 L3094.1 57.35 Q3095.45 56.7 3097.3 56.3 3103.05 54.9 3114.35 54.9 3122.1 54.9 3133.05 57.95 3138.7 59.45 3144.35 61.45 L3157.9 64.8 Q3161.6 65.8 3161.6 67.8 3161.6 69.0 3160.8 69.35" fill="url(#gradient5)" fill-rule="evenodd" stroke="none"/>
      <path d="M2766.05 96.25 L2677.7 98.55 Q2610.3 100.25 2607.8 100.15 L2563.75 99.8 Q2544.95 98.95 2540.05 97.4 2538.25 96.8 2537.95 96.05 L2538.0 94.8 Q2538.0 94.05 2539.05 92.45 2540.55 90.2 2543.1 88.4 2551.0 83.0 2565.75 84.25 2566.9 83.65 2569.55 81.4 2572.2 79.2 2574.75 77.95 2583.2 73.75 2601.75 73.35 2613.45 73.15 2619.05 79.35 2621.8 82.45 2622.25 85.65 L2625.0 84.8 Q2628.5 83.8 2632.45 82.95 2645.05 80.3 2657.25 80.3 2671.85 80.3 2680.85 82.35 L2686.35 83.75 2691.25 84.35 2695.5 84.85 2700.5 85.65 Q2824.95 94.9 2869.75 93.65 2838.55 99.45 2766.05 96.25" fill="url(#gradient6)" fill-rule="evenodd" stroke="none"/>
      <path d="M2441.5 147.0 L2444.3 149.4 2455.0 149.15 2478.25 152.0 2545.8 155.35 2496.8 157.2 2486.4 156.6 2432.15 158.5 2360.05 160.9 Q2357.4 160.9 2356.6 159.9 2356.3 159.55 2356.3 158.75 2356.3 156.6 2359.3 154.6 2363.75 151.55 2373.05 151.55 2378.45 151.55 2379.8 152.45 L2380.55 153.05 2382.15 153.3 Q2385.15 153.3 2389.75 151.6 L2399.35 148.15 Q2414.55 143.35 2436.05 145.0 2439.5 145.4 2441.5 147.0" fill="url(#gradient7)" fill-rule="evenodd" stroke="none"/>
      <path d="M2315.4 220.55 L2299.25 222.8 2279.25 223.05 2259.0 224.05 2244.05 224.95 1981.7 224.95 1979.55 223.9 Q1978.8 223.5 1978.8 223.05 1978.8 220.75 1992.95 220.35 2009.35 219.85 2012.95 218.25 2014.3 217.6 2021.0 216.3 L2024.05 215.7 2034.1 213.95 Q2036.0 213.95 2041.85 215.45 2047.65 216.9 2050.15 216.9 2077.4 216.9 2092.8 213.55 L2109.55 209.6 Q2122.1 206.7 2136.85 204.3 2149.55 202.25 2154.1 204.65 L2157.55 207.1 Q2159.7 208.7 2162.45 209.4 2164.75 210.6 2186.35 213.05 L2220.1 216.9 2258.4 217.15 2269.65 217.95 2317.55 218.0 Q2301.3 218.25 2315.4 220.55" fill="url(#gradient8)" fill-rule="evenodd" stroke="none"/>
      <path d="M1961.15 156.6 L1906.9 158.5 1834.8 160.9 Q1832.15 160.9 1831.35 159.9 1831.05 159.55 1831.05 158.75 1831.05 156.6 1834.05 154.6 1838.5 151.55 1847.8 151.55 1853.2 151.55 1854.55 152.45 L1855.3 153.05 1856.9 153.3 Q1859.9 153.3 1864.5 151.6 L1874.1 148.15 Q1889.3 143.35 1910.8 145.0 1914.25 145.4 1916.25 147.0 L1919.05 149.4 1929.75 149.15 1953.0 152.0 2020.55 155.35 1971.55 157.2 1961.15 156.6" fill="url(#gradient9)" fill-rule="evenodd" stroke="none"/>
      <path d="M1948.1 72.65 L1859.75 74.95 Q1792.35 76.65 1789.85 76.55 L1745.8 76.2 Q1727.0 75.35 1722.1 73.8 1720.3 73.2 1720.0 72.45 L1720.05 71.2 Q1720.05 70.45 1721.1 68.85 1722.6 66.6 1725.15 64.8 1733.05 59.4 1747.8 60.65 1748.95 60.05 1751.6 57.8 1754.25 55.6 1756.8 54.35 1765.25 50.15 1783.8 49.75 1795.5 49.55 1801.1 55.75 1803.85 58.85 1804.3 62.05 L1807.05 61.2 Q1810.55 60.2 1814.5 59.35 1827.1 56.7 1839.3 56.7 1853.9 56.7 1862.9 58.75 L1868.4 60.15 1873.3 60.75 1877.55 61.25 1882.55 62.05 Q2007.0 71.3 2051.8 70.05 2020.6 75.85 1948.1 72.65" fill="url(#gradient10)" fill-rule="evenodd" stroke="none"/>
      <path d="M1539.95 91.6 Q1538.7 92.15 1533.85 92.5 L1484.0 95.1 1433.0 95.1 1424.1 94.6 1414.6 94.35 1405.3 94.95 1396.0 95.6 Q1393.55 95.6 1392.65 94.35 1392.0 93.4 1392.25 92.3 L1381.65 92.45 1374.5 92.55 Q1369.7 92.55 1368.5 91.0 L1368.25 89.3 Q1368.25 87.0 1376.4 84.5 1383.0 82.45 1390.75 81.3 1401.9 79.7 1408.75 79.95 L1411.95 80.0 Q1413.15 79.9 1414.5 79.15 1418.55 76.95 1424.5 75.0 1443.75 68.7 1458.35 71.05 1464.6 72.05 1468.2 74.55 1471.75 77.0 1471.75 80.3 L1473.25 79.6 Q1474.6 78.95 1476.45 78.55 1482.2 77.15 1493.5 77.15 1501.25 77.15 1512.2 80.2 1517.85 81.7 1523.5 83.7 L1537.05 87.05 Q1540.75 88.05 1540.75 90.05 1540.75 91.25 1539.95 91.6" fill="url(#gradient11)" fill-rule="evenodd" stroke="none"/>
    </g>
    <radialGradient cx="0" cy="0" gradientTransform="matrix(1.951, 0.0, 0.0017, 1.3341, 2836.7, 336.05)" gradientUnits="userSpaceOnUse" id="gradient0" r="819.2" spreadMethod="pad">
      <stop offset="0.0" stop-color="#ffde46"/>
      <stop offset="0.06666666666666667" stop-color="#ffce85"/>
      <stop offset="0.10588235294117647" stop-color="#f3c494"/>
      <stop offset="0.17254901960784313" stop-color="#e5b8a7"/>
      <stop offset="0.5490196078431373" stop-color="#c699bf"/>
      <stop offset="0.984313725490196" stop-color="#615179"/>
    </radialGradient>
    <linearGradient gradientTransform="matrix(0.0034, -0.0277, 0.0196, 0.0011, 4012.65, 71.5)" gradientUnits="userSpaceOnUse" id="gradient1" spreadMethod="pad" x1="-819.2" x2="819.2">
      <stop offset="0.0" stop-color="#f5fdff" stop-opacity="0.6509804"/>
      <stop offset="0.9921568627450981" stop-color="#eefbff" stop-opacity="0.0"/>
    </linearGradient>
    <linearGradient gradientTransform="matrix(0.0, -0.0336, 0.0303, 3.0E-4, 3695.7, 119.65)" gradientUnits="userSpaceOnUse" id="gradient2" spreadMethod="pad" x1="-819.2" x2="819.2">
      <stop offset="0.09019607843137255" stop-color="#f5fdff" stop-opacity="0.6509804"/>
      <stop offset="0.9921568627450981" stop-color="#eefbff" stop-opacity="0.0"/>
    </linearGradient>
    <linearGradient gradientTransform="matrix(0.0, -0.0227, 0.01, 0.0, 3750.7, 163.05)" gradientUnits="userSpaceOnUse" id="gradient3" spreadMethod="pad" x1="-819.2" x2="819.2">
      <stop offset="0.0" stop-color="#f5fdff" stop-opacity="0.6509804"/>
      <stop offset="0.9921568627450981" stop-color="#eefbff" stop-opacity="0.0"/>
    </linearGradient>
    <linearGradient gradientTransform="matrix(0.0034, -0.0277, 0.0196, 0.0011, 3400.45, 204.45)" gradientUnits="userSpaceOnUse" id="gradient4" spreadMethod="pad" x1="-819.2" x2="819.2">
      <stop offset="0.0" stop-color="#f5fdff" stop-opacity="0.6509804"/>
      <stop offset="0.9921568627450981" stop-color="#eefbff" stop-opacity="0.0"/>
    </linearGradient>
    <linearGradient gradientTransform="matrix(0.0, -0.0227, 0.0304, 0.0, 3076.8, 68.45)" gradientUnits="userSpaceOnUse" id="gradient5" spreadMethod="pad" x1="-819.2" x2="819.2">
      <stop offset="0.043137254901960784" stop-color="#f5fdff" stop-opacity="0.6509804"/>
      <stop offset="0.9921568627450981" stop-color="#eefbff" stop-opacity="0.0"/>
    </linearGradient>
    <linearGradient gradientTransform="matrix(0.0, -0.0208, 0.0323, 0.0, 2707.95, 96.75)" gradientUnits="userSpaceOnUse" id="gradient6" spreadMethod="pad" x1="-819.2" x2="819.2">
      <stop offset="0.043137254901960784" stop-color="#f5fdff" stop-opacity="0.6509804"/>
      <stop offset="0.9921568627450981" stop-color="#eefbff" stop-opacity="0.0"/>
    </linearGradient>
    <linearGradient gradientTransform="matrix(-0.0028, -0.0222, 0.0195, 0.0015, 2448.1, 159.2)" gradientUnits="userSpaceOnUse" id="gradient7" spreadMethod="pad" x1="-819.2" x2="819.2">
      <stop offset="0.043137254901960784" stop-color="#f5fdff" stop-opacity="0.6509804"/>
      <stop offset="0.9921568627450981" stop-color="#eefbff" stop-opacity="0.0"/>
    </linearGradient>
    <linearGradient gradientTransform="matrix(0.0034, -0.0277, 0.0196, 0.0011, 2149.3, 226.05)" gradientUnits="userSpaceOnUse" id="gradient8" spreadMethod="pad" x1="-819.2" x2="819.2">
      <stop offset="0.0" stop-color="#f5fdff" stop-opacity="0.6509804"/>
      <stop offset="0.9921568627450981" stop-color="#eefbff" stop-opacity="0.0"/>
    </linearGradient>
    <linearGradient gradientTransform="matrix(-0.0028, -0.0222, 0.0195, 0.0015, 1922.85, 159.2)" gradientUnits="userSpaceOnUse" id="gradient9" spreadMethod="pad" x1="-819.2" x2="819.2">
      <stop offset="0.043137254901960784" stop-color="#f5fdff" stop-opacity="0.6509804"/>
      <stop offset="0.9921568627450981" stop-color="#eefbff" stop-opacity="0.0"/>
    </linearGradient>
    <linearGradient gradientTransform="matrix(0.0, -0.0208, 0.0323, 0.0, 1890.0, 73.15)" gradientUnits="userSpaceOnUse" id="gradient10" spreadMethod="pad" x1="-819.2" x2="819.2">
      <stop offset="0.043137254901960784" stop-color="#f5fdff" stop-opacity="0.6509804"/>
      <stop offset="0.9921568627450981" stop-color="#eefbff" stop-opacity="0.0"/>
    </linearGradient>
    <linearGradient gradientTransform="matrix(0.0, -0.0227, 0.0304, 0.0, 1455.95, 90.7)" gradientUnits="userSpaceOnUse" id="gradient11" spreadMethod="pad" x1="-819.2" x2="819.2">
      <stop offset="0.043137254901960784" stop-color="#f5fdff" stop-opacity="0.6509804"/>
      <stop offset="0.9921568627450981" stop-color="#eefbff" stop-opacity="0.0"/>
    </linearGradient>
    <g id="sprite0" transform="matrix(1.0, 0.0, 0.0, 1.0, -2.65, 0.05)">
      <use height="57.1" transform="matrix(1.0, 0.0, 0.0, 1.0, 2.65, -0.05)" width="220.55" xlink:href="#shape1"/>
    </g>
    <g id="shape1" transform="matrix(1.0, 0.0, 0.0, 1.0, -2.65, 0.05)">
      <path d="M223.15 57.05 L2.65 57.05 Q2.95 50.35 7.9 41.95 14.25 31.1 25.85 22.35 57.15 -1.2 112.85 0.0 173.9 1.15 201.1 17.6 224.25 31.65 223.15 57.05" fill="url(#gradient12)" fill-rule="evenodd" stroke="none"/>
    </g>
    <radialGradient cx="0" cy="0" gradientTransform="matrix(0.0971, 0.0, 0.0, 0.0572, 109.5, 53.65)" gradientUnits="userSpaceOnUse" id="gradient12" r="819.2" spreadMethod="pad">
      <stop offset="0.0" stop-color="#cdfdff" stop-opacity="0.45882353"/>
      <stop offset="0.19607843137254902" stop-color="#dafdff" stop-opacity="0.34117648"/>
      <stop offset="1.0" stop-color="#ffffff" stop-opacity="0.0"/>
    </radialGradient>
    <g id="shape2" transform="matrix(1.0, 0.0, 0.0, 1.0, -3915.25, -15.3)">
      <path d="M4799.3 400.8 L3928.2 400.8 3928.2 25.2 4799.3 25.2 4799.3 400.8" fill="url(#gradient13)" fill-rule="evenodd" stroke="none"/>
      <path d="M3935.35 92.75 L3935.35 320.3 3924.35 320.3 3924.35 92.75 3935.35 92.75" fill="url(#gradient14)" fill-rule="evenodd" stroke="none"/>
      <path d="M3935.35 92.75 L3935.35 320.3 3924.35 320.3 3924.35 92.75 3935.35 92.75 Z" fill="none" stroke="#000000" stroke-linecap="round" stroke-linejoin="round" stroke-opacity="0.3019608" stroke-width="0.30000000000000004"/>
      <path d="M4800.2 400.05 L3928.2 400.05 3928.2 15.3 4800.2 15.3 4800.2 400.05" fill="url(#gradient15)" fill-rule="evenodd" stroke="none"/>
      <path d="M4024.95 146.95 Q4025.4 145.2 4027.8 144.95 4030.2 144.65 4031.15 148.6 4032.35 146.0 4035.1 145.95 4036.75 145.9 4037.3 147.45 4037.9 149.25 4035.85 151.85 4034.75 153.25 4030.45 154.75 4027.2 153.25 4025.85 150.95 4024.45 148.7 4024.95 146.95" fill="#770013" fill-rule="evenodd" stroke="none"/>
      <path d="M4024.95 146.95 Q4024.45 148.7 4025.85 150.95 4027.2 153.25 4030.45 154.75 4034.75 153.25 4035.85 151.85 4037.9 149.25 4037.3 147.45 4036.75 145.9 4035.1 145.95 4032.35 146.0 4031.15 148.6 4030.2 144.65 4027.8 144.95 4025.4 145.2 4024.95 146.95 Z" fill="none" stroke="#000000" stroke-linecap="round" stroke-linejoin="round" stroke-opacity="0.3019608" stroke-width="0.30000000000000004"/>
      <path d="M4040.2 100.8 Q4043.05 100.2 4044.8 98.55 4046.55 96.95 4046.55 95.2 4046.55 92.35 4042.4 89.0 4037.85 85.3 4033.25 86.0 L4033.25 85.85 Q4038.4 84.65 4043.1 88.55 4047.25 92.0 4047.25 95.2 4047.25 97.05 4046.15 98.4 4044.8 100.05 4041.25 101.4 L4039.85 101.85 4032.7 103.7 Q4024.55 105.4 4019.75 104.6 4014.5 103.8 4014.5 101.8 4014.5 101.1 4014.75 100.85 4015.3 100.3 4017.3 99.9 L4019.7 99.55 Q4028.05 99.1 4034.5 99.75 L4036.7 100.0 4031.95 100.45 4029.9 100.35 4019.85 100.7 Q4018.45 100.9 4018.75 101.75 4019.1 102.65 4021.15 103.2 4025.95 104.5 4034.6 102.45 L4038.8 101.35 4040.2 100.8 M4046.6 105.75 L4046.8 107.15 Q4046.8 109.4 4045.3 110.9 4043.75 112.45 4039.55 114.0 L4038.1 114.55 4035.65 115.4 4030.1 117.1 4027.65 117.55 4022.15 118.1 Q4014.25 118.25 4014.25 114.3 4014.25 113.55 4017.55 112.7 L4021.45 111.8 Q4025.65 111.2 4030.7 111.9 L4032.7 112.25 4029.05 112.9 Q4025.1 112.6 4020.2 113.05 4018.6 113.2 4017.8 114.1 4017.0 115.05 4018.2 115.7 4021.75 117.45 4036.7 114.1 L4038.45 113.45 Q4042.15 112.4 4043.7 111.2 4046.1 109.3 4046.1 107.25 4046.1 106.2 4045.3 105.2 L4044.4 104.25 4046.6 105.75 M4047.15 120.6 Q4047.4 121.7 4046.3 123.9 4044.7 127.2 4040.75 128.9 L4039.3 129.45 Q4036.35 130.6 4032.2 131.5 L4028.15 132.25 Q4024.8 132.35 4021.75 131.45 4017.95 130.4 4017.95 128.6 4017.95 127.7 4018.75 127.2 4020.0 126.45 4023.4 126.0 4027.7 125.4 4033.1 126.6 L4034.05 126.75 4035.0 127.1 4031.1 127.3 4028.75 127.15 4024.5 127.05 Q4018.85 127.85 4018.85 128.6 4018.85 130.15 4028.0 131.3 L4032.45 130.4 Q4037.3 129.35 4037.95 128.95 L4039.55 128.25 4043.4 125.7 Q4047.0 122.55 4046.1 119.9 L4047.15 120.6 M4040.7 135.2 L4038.95 136.7 Q4036.65 138.25 4032.5 140.15 L4031.55 140.3 4026.3 140.8 Q4021.05 140.9 4021.05 138.85 4021.05 138.4 4021.6 137.7 4022.15 137.05 4023.45 136.9 4024.8 136.75 4026.7 137.45 L4029.05 138.25 4027.9 138.55 4025.8 137.95 Q4022.1 137.2 4021.8 138.75 4021.75 139.3 4023.35 139.8 4024.0 140.0 4027.1 139.85 L4030.7 139.55 4031.85 139.3 4031.9 139.3 Q4034.35 138.45 4037.6 136.6 4040.6 134.8 4041.0 134.15 L4040.7 135.2 M4033.8 141.9 L4034.1 142.9 4034.15 144.55 Q4033.9 145.65 4032.75 146.95 4031.6 148.25 4031.15 148.25 L4030.35 148.0 Q4033.95 145.35 4033.1 142.6 L4032.8 141.85 4033.8 141.9" fill="#e9c7cd" fill-rule="evenodd" stroke="none"/>
      <path d="M4041.25 101.4 Q4044.45 102.75 4045.6 104.0 L4046.05 104.75 4046.6 105.75 4044.4 104.25 Q4043.5 103.6 4039.85 101.85 L4041.25 101.4 M4039.55 114.0 Q4042.95 115.05 4044.4 116.1 4046.15 117.4 4046.9 119.45 L4047.15 120.6 4046.1 119.9 Q4045.15 117.2 4041.55 115.6 4039.7 114.8 4038.1 114.55 L4039.55 114.0 M4040.75 128.9 L4042.0 129.65 Q4042.75 130.5 4042.7 132.2 4042.6 133.7 4040.7 135.2 L4041.0 134.15 Q4042.55 131.65 4041.25 130.3 4040.35 129.35 4039.3 129.45 L4040.75 128.9 M4032.5 140.15 L4033.4 141.25 4033.8 141.9 4032.8 141.85 4032.2 141.0 4031.55 140.3 4032.5 140.15 M4029.05 138.25 L4031.85 139.3 4030.7 139.55 Q4028.65 138.7 4027.9 138.55 L4029.05 138.25 M4035.0 127.1 Q4039.15 128.35 4039.55 128.25 L4037.95 128.95 4032.9 127.7 4032.2 127.5 4031.1 127.3 4035.0 127.1 M4032.7 112.25 L4038.45 113.45 4036.7 114.1 4030.7 112.95 4029.05 112.9 4032.7 112.25 M4036.7 100.0 L4040.2 100.8 4038.8 101.35 4035.3 100.8 4031.95 100.45 4036.7 100.0" fill="#aa7e86" fill-rule="evenodd" stroke="none"/>
      <path d="M4040.2 100.8 Q4043.05 100.2 4044.8 98.55 4046.55 96.95 4046.55 95.2 4046.55 92.35 4042.4 89.0 4037.85 85.3 4033.25 86.0 L4033.25 85.85 Q4038.4 84.65 4043.1 88.55 4047.25 92.0 4047.25 95.2 4047.25 97.05 4046.15 98.4 4044.8 100.05 4041.25 101.4 4044.45 102.75 4045.6 104.0 L4046.05 104.75 4046.6 105.75 4046.8 107.15 Q4046.8 109.4 4045.3 110.9 4043.75 112.45 4039.55 114.0 4042.95 115.05 4044.4 116.1 4046.15 117.4 4046.9 119.45 L4047.15 120.6 Q4047.4 121.7 4046.3 123.9 4044.7 127.2 4040.75 128.9 L4042.0 129.65 Q4042.75 130.5 4042.7 132.2 4042.6 133.7 4040.7 135.2 L4038.95 136.7 Q4036.65 138.25 4032.5 140.15 L4033.4 141.25 4033.8 141.9 4034.1 142.9 4034.15 144.55 Q4033.9 145.65 4032.75 146.95 4031.6 148.25 4031.15 148.25 L4030.35 148.0 Q4033.95 145.35 4033.1 142.6 L4032.8 141.85 4032.2 141.0 4031.55 140.3 4026.3 140.8 Q4021.05 140.9 4021.05 138.85 4021.05 138.4 4021.6 137.7 4022.15 137.05 4023.45 136.9 4024.8 136.75 4026.7 137.45 L4029.05 138.25 4031.85 139.3 4031.9 139.3 Q4034.35 138.45 4037.6 136.6 4040.6 134.8 4041.0 134.15 4042.55 131.65 4041.25 130.3 4040.35 129.35 4039.3 129.45 4036.35 130.6 4032.2 131.5 L4028.15 132.25 Q4024.8 132.35 4021.75 131.45 4017.95 130.4 4017.95 128.6 4017.95 127.7 4018.75 127.2 4020.0 126.45 4023.4 126.0 4027.7 125.4 4033.1 126.6 L4034.05 126.75 4035.0 127.1 Q4039.15 128.35 4039.55 128.25 L4043.4 125.7 Q4047.0 122.55 4046.1 119.9 4045.15 117.2 4041.55 115.6 4039.7 114.8 4038.1 114.55 L4035.65 115.4 4030.1 117.1 4027.65 117.55 4022.15 118.1 Q4014.25 118.25 4014.25 114.3 4014.25 113.55 4017.55 112.7 L4021.45 111.8 Q4025.65 111.2 4030.7 111.9 L4032.7 112.25 4038.45 113.45 Q4042.15 112.4 4043.7 111.2 4046.1 109.3 4046.1 107.25 4046.1 106.2 4045.3 105.2 L4044.4 104.25 Q4043.5 103.6 4039.85 101.85 L4032.7 103.7 Q4024.55 105.4 4019.75 104.6 4014.5 103.8 4014.5 101.8 4014.5 101.1 4014.75 100.85 4015.3 100.3 4017.3 99.9 L4019.7 99.55 Q4028.05 99.1 4034.5 99.75 L4036.7 100.0 4040.2 100.8 4038.8 101.35 4034.6 102.45 Q4025.95 104.5 4021.15 103.2 4019.1 102.65 4018.75 101.75 4018.45 100.9 4019.85 100.7 L4029.9 100.35 4031.95 100.45 M4038.8 101.35 L4035.3 100.8 4031.95 100.45 M4036.7 114.1 L4030.7 112.95 4029.05 112.9 Q4025.1 112.6 4020.2 113.05 4018.6 113.2 4017.8 114.1 4017.0 115.05 4018.2 115.7 4021.75 117.45 4036.7 114.1 L4038.45 113.45 M4039.55 114.0 L4038.1 114.55 M4047.15 120.6 L4046.1 119.9 M4041.25 101.4 L4039.85 101.85 M4037.95 128.95 Q4037.3 129.35 4032.45 130.4 L4028.0 131.3 Q4018.85 130.15 4018.85 128.6 4018.85 127.85 4024.5 127.05 L4028.75 127.15 4031.1 127.3 M4030.7 139.55 L4027.1 139.85 Q4024.0 140.0 4023.35 139.8 4021.75 139.3 4021.8 138.75 4022.1 137.2 4025.8 137.95 L4027.9 138.55 Q4028.65 138.7 4030.7 139.55 L4031.85 139.3 M4039.55 128.25 L4037.95 128.95 4032.9 127.7 4032.2 127.5 4031.1 127.3 M4032.5 140.15 L4031.55 140.3 M4040.75 128.9 L4039.3 129.45" fill="none" stroke="#000000" stroke-linecap="round" stroke-linejoin="round" stroke-opacity="0.3019608" stroke-width="0.30000000000000004"/>
      <path d="M4040.0 115.4 L4043.75 114.6 Q4054.75 112.55 4068.95 111.55 L4073.05 111.55 Q4076.5 111.7 4077.4 112.35 4077.8 112.65 4077.8 113.55 4077.8 116.2 4068.9 118.3 4060.7 120.25 4046.85 119.55 L4034.65 118.5 4032.2 118.15 Q4026.2 117.0 4023.9 115.1 4022.05 113.5 4022.05 111.0 4022.05 106.75 4029.1 101.35 4037.1 95.25 4045.9 95.85 L4045.9 96.1 Q4038.0 96.05 4030.25 101.85 4023.2 107.1 4023.2 110.85 4023.2 113.2 4026.2 115.0 4029.2 116.85 4034.05 117.1 L4036.4 117.6 4043.55 118.3 Q4058.35 119.3 4066.5 116.7 4070.0 115.55 4070.55 114.3 4071.1 113.1 4068.7 113.1 L4051.55 114.6 4048.05 115.1 4040.0 115.4 M4026.6 122.75 L4025.3 124.0 Q4023.95 125.45 4023.95 126.85 4023.95 129.6 4028.05 131.65 4030.7 132.95 4037.0 133.6 L4040.0 134.2 Q4065.45 135.8 4071.5 132.75 4073.6 131.65 4072.2 130.55 4070.85 129.5 4068.1 129.6 4059.8 129.95 4053.05 131.05 L4046.8 130.9 4050.2 130.1 Q4058.85 128.2 4066.0 128.2 L4072.65 128.6 Q4078.25 129.15 4078.25 130.15 4078.25 135.4 4064.75 136.7 L4055.45 137.05 4051.25 136.9 4041.8 135.7 4037.6 135.0 4035.1 134.6 Q4027.95 133.35 4025.3 131.6 4022.75 129.9 4022.75 126.85 4022.75 125.9 4023.15 124.95 L4026.6 122.75 M4023.95 143.7 Q4022.4 147.35 4028.6 150.85 4031.7 152.6 4035.15 153.6 L4037.9 154.15 4047.25 155.0 4054.85 155.4 Q4070.45 152.1 4070.45 150.0 4070.45 149.05 4060.75 149.05 L4053.55 150.0 4049.55 150.65 4042.9 151.15 4044.55 150.55 4046.15 150.1 Q4055.3 147.45 4062.65 147.45 4068.45 147.45 4070.55 148.2 4071.95 148.7 4071.95 149.85 4071.95 152.25 4065.5 154.4 4060.25 156.15 4054.55 156.7 L4047.65 156.5 4035.55 155.1 4033.1 154.6 Q4026.35 153.1 4023.6 149.05 4021.75 146.35 4022.15 144.85 L4023.95 143.7 M4032.65 161.7 Q4033.35 162.5 4038.45 164.25 4044.0 166.15 4048.2 166.75 L4048.25 166.75 4050.25 166.9 4056.35 166.6 4062.75 165.85 Q4065.5 164.85 4065.35 164.15 4064.85 162.1 4058.55 163.8 4056.7 164.35 4054.95 165.0 L4053.0 164.85 4057.05 163.3 Q4060.3 162.0 4062.55 161.95 4064.75 161.9 4065.75 162.7 4066.7 163.5 4066.7 164.15 4066.7 166.85 4057.75 167.75 L4048.75 168.05 4047.15 168.05 Q4040.1 166.35 4036.15 164.65 L4033.15 163.0 4032.65 161.7 M4046.6 170.4 L4046.1 171.4 Q4044.7 175.25 4050.8 178.05 L4049.45 178.6 Q4048.7 178.65 4046.75 177.15 4044.8 175.65 4044.3 174.2 4044.1 173.6 4044.45 172.05 L4044.9 170.65 4046.6 170.4" fill="#a10821" fill-rule="evenodd" stroke="none"/>
      <path d="M4040.0 115.4 L4048.05 115.1 4042.35 116.2 4036.4 117.6 4034.05 117.1 Q4035.0 116.6 4040.0 115.4 M4032.2 118.15 L4034.65 118.5 Q4028.4 121.5 4026.9 122.55 L4026.85 122.55 4026.6 122.75 4023.15 124.95 4024.05 123.5 4024.85 122.45 Q4026.75 120.55 4032.2 118.15 M4037.0 133.6 L4046.8 130.9 4053.05 131.05 4050.25 131.5 Q4044.55 132.6 4040.0 134.2 L4037.0 133.6 M4037.6 135.0 Q4034.85 135.65 4031.75 137.05 4025.6 139.9 4023.95 143.7 L4022.15 144.85 4022.65 143.25 Q4023.85 140.4 4026.9 138.3 4029.3 136.65 4035.1 134.6 L4037.6 135.0 M4035.15 153.6 L4042.9 151.15 4049.55 150.65 4047.7 151.1 4046.45 151.55 4037.9 154.15 4035.15 153.6 M4035.55 155.1 Q4033.75 155.2 4032.2 156.6 4030.05 158.65 4032.65 161.7 L4033.15 163.0 Q4029.95 161.35 4029.8 159.45 4029.65 157.15 4031.0 155.85 4031.25 155.65 4033.1 154.6 L4035.55 155.1 M4048.25 166.75 L4053.0 164.85 4054.95 165.0 4050.25 166.9 4048.25 166.75 M4048.75 168.05 L4047.65 169.15 4046.6 170.4 4044.9 170.65 4045.65 169.65 4047.15 168.05 4048.75 168.05" fill="#6b0011" fill-rule="evenodd" stroke="none"/>
      <path d="M4034.65 118.5 L4046.85 119.55 Q4060.7 120.25 4068.9 118.3 4077.8 116.2 4077.8 113.55 4077.8 112.65 4077.4 112.35 4076.5 111.7 4073.05 111.55 L4068.95 111.55 Q4054.75 112.55 4043.75 114.6 L4040.0 115.4 M4048.05 115.1 L4051.55 114.6 4068.7 113.1 Q4071.1 113.1 4070.55 114.3 4070.0 115.55 4066.5 116.7 4058.35 119.3 4043.55 118.3 L4036.4 117.6 4034.05 117.1 Q4029.2 116.85 4026.2 115.0 4023.2 113.2 4023.2 110.85 4023.2 107.1 4030.25 101.85 4038.0 96.05 4045.9 96.1 L4045.9 95.85 Q4037.1 95.25 4029.1 101.35 4022.05 106.75 4022.05 111.0 4022.05 113.5 4023.9 115.1 4026.2 117.0 4032.2 118.15 L4034.65 118.5 Q4028.4 121.5 4026.9 122.55 L4026.85 122.55 4026.6 122.75 4025.3 124.0 Q4023.95 125.45 4023.95 126.85 4023.95 129.6 4028.05 131.65 4030.7 132.95 4037.0 133.6 L4046.8 130.9 4050.2 130.1 Q4058.85 128.2 4066.0 128.2 L4072.65 128.6 Q4078.25 129.15 4078.25 130.15 4078.25 135.4 4064.75 136.7 L4055.45 137.05 4051.25 136.9 4041.8 135.7 4037.6 135.0 Q4034.85 135.65 4031.75 137.05 4025.6 139.9 4023.95 143.7 4022.4 147.35 4028.6 150.85 4031.7 152.6 4035.15 153.6 L4042.9 151.15 4044.55 150.55 4046.15 150.1 Q4055.3 147.45 4062.65 147.45 4068.45 147.45 4070.55 148.2 4071.95 148.7 4071.95 149.85 4071.95 152.25 4065.5 154.4 4060.25 156.15 4054.55 156.7 L4047.65 156.5 4035.55 155.1 Q4033.75 155.2 4032.2 156.6 4030.05 158.65 4032.65 161.7 4033.35 162.5 4038.45 164.25 4044.0 166.15 4048.2 166.75 L4048.25 166.75 4053.0 164.85 4057.05 163.3 Q4060.3 162.0 4062.55 161.95 4064.75 161.9 4065.75 162.7 4066.7 163.5 4066.7 164.15 4066.7 166.85 4057.75 167.75 L4048.75 168.05 4047.65 169.15 4046.6 170.4 4046.1 171.4 Q4044.7 175.25 4050.8 178.05 L4049.45 178.6 Q4048.7 178.65 4046.75 177.15 4044.8 175.65 4044.3 174.2 4044.1 173.6 4044.45 172.05 L4044.9 170.65 4045.65 169.65 4047.15 168.05 Q4040.1 166.35 4036.15 164.65 L4033.15 163.0 Q4029.95 161.35 4029.8 159.45 4029.65 157.15 4031.0 155.85 4031.25 155.65 4033.1 154.6 4026.35 153.1 4023.6 149.05 4021.75 146.35 4022.15 144.85 L4022.65 143.25 Q4023.85 140.4 4026.9 138.3 4029.3 136.65 4035.1 134.6 4027.95 133.35 4025.3 131.6 4022.75 129.9 4022.75 126.85 4022.75 125.9 4023.15 124.95 L4024.05 123.5 4024.85 122.45 Q4026.75 120.55 4032.2 118.15 M4040.0 134.2 Q4044.55 132.6 4050.25 131.5 L4053.05 131.05 Q4059.8 129.95 4068.1 129.6 4070.85 129.5 4072.2 130.55 4073.6 131.65 4071.5 132.75 4065.45 135.8 4040.0 134.2 L4037.0 133.6 M4050.25 166.9 L4056.35 166.6 4062.75 165.85 Q4065.5 164.85 4065.35 164.15 4064.85 162.1 4058.55 163.8 4056.7 164.35 4054.95 165.0 L4050.25 166.9 4048.25 166.75 M4049.55 150.65 L4053.55 150.0 4060.75 149.05 Q4070.45 149.05 4070.45 150.0 4070.45 152.1 4054.85 155.4 L4047.25 155.0 4037.9 154.15 4035.15 153.6 M4048.05 115.1 L4042.35 116.2 4036.4 117.6 M4034.05 117.1 Q4035.0 116.6 4040.0 115.4 M4023.95 143.7 L4022.15 144.85 M4035.1 134.6 L4037.6 135.0 M4037.9 154.15 L4046.45 151.55 4047.7 151.1 4049.55 150.65 M4033.1 154.6 L4035.55 155.1 M4047.15 168.05 L4048.75 168.05" fill="none" stroke="#000000" stroke-linecap="round" stroke-linejoin="round" stroke-opacity="0.3019608" stroke-width="0.30000000000000004"/>
      <path d="M4056.0 179.25 Q4059.5 179.1 4060.6 182.4 4061.9 186.2 4057.55 191.65 4055.25 194.55 4046.2 197.75 4039.4 194.55 4036.55 189.8 4033.65 185.0 4034.65 181.35 4035.6 177.7 4040.65 177.1 4045.7 176.5 4047.75 184.85 4050.25 179.4 4056.0 179.25" fill="#a10821" fill-rule="evenodd" stroke="none"/>
      <path d="M4048.3 181.4 Q4049.15 176.0 4054.1 174.7 4064.65 174.8 4064.1 183.25 4063.9 185.7 4062.95 188.0 4060.9 192.85 4056.25 195.55 4051.15 198.55 4045.8 200.4 4034.95 193.9 4032.45 186.95 4032.1 185.4 4032.1 184.1 4031.3 173.35 4041.05 173.4 L4041.55 173.4 4044.0 173.6 Q4048.6 175.7 4048.3 181.4 L4048.3 181.7 4048.3 181.4 M4056.0 179.25 Q4050.25 179.4 4047.75 184.85 4045.7 176.5 4040.65 177.1 4035.6 177.7 4034.65 181.35 4033.65 185.0 4036.55 189.8 4039.4 194.55 4046.2 197.75 4055.25 194.55 4057.55 191.65 4061.9 186.2 4060.6 182.4 4059.5 179.1 4056.0 179.25" fill="#e9c7cd" fill-rule="evenodd" stroke="none"/>
      <path d="M4048.3 181.4 Q4048.6 175.7 4044.0 173.6 L4041.55 173.4 4041.05 173.4 Q4031.3 173.35 4032.1 184.1 4032.1 185.4 4032.45 186.95 4034.95 193.9 4045.8 200.4 4051.15 198.55 4056.25 195.55 4060.9 192.85 4062.95 188.0 4063.9 185.7 4064.1 183.25 4064.65 174.8 4054.1 174.7 4049.15 176.0 4048.3 181.4 L4048.3 181.7 M4056.0 179.25 Q4050.25 179.4 4047.75 184.85 4045.7 176.5 4040.65 177.1 4035.6 177.7 4034.65 181.35 4033.65 185.0 4036.55 189.8 4039.4 194.55 4046.2 197.75 4055.25 194.55 4057.55 191.65 4061.9 186.2 4060.6 182.4 4059.5 179.1 4056.0 179.25" fill="none" stroke="#000000" stroke-linecap="round" stroke-linejoin="round" stroke-opacity="0.3019608" stroke-width="0.30000000000000004"/>
      <path d="M4091.55 91.65 Q4094.4 90.85 4096.15 88.65 4097.9 86.55 4097.9 84.2 4097.9 80.45 4093.75 75.95 4089.2 71.05 4084.6 72.0 L4084.6 71.75 Q4089.75 70.15 4094.45 75.35 4098.6 79.95 4098.6 84.2 4098.6 86.7 4097.5 88.5 4096.15 90.65 4092.6 92.5 L4091.2 93.1 4084.05 95.55 Q4075.9 97.8 4071.1 96.75 4065.85 95.65 4065.85 93.0 4065.85 92.1 4066.1 91.75 4066.65 91.0 4068.65 90.5 L4071.05 90.0 Q4079.4 89.4 4085.85 90.25 L4088.05 90.6 4083.3 91.2 4081.25 91.1 4071.2 91.55 Q4069.8 91.8 4070.1 92.95 4070.45 94.15 4072.5 94.9 4077.3 96.6 4085.95 93.9 L4090.15 92.4 4091.55 91.65 M4097.95 98.25 L4098.15 100.1 Q4098.15 103.15 4096.65 105.15 4095.1 107.2 4090.9 109.25 L4089.45 109.95 4087.0 111.1 4081.45 113.4 4079.0 114.0 4073.5 114.7 Q4065.6 114.9 4065.6 109.65 4065.6 108.65 4068.9 107.5 4071.1 106.65 4072.8 106.35 4077.0 105.55 4082.05 106.45 L4084.05 106.9 4080.4 107.75 Q4076.45 107.4 4071.55 107.95 4069.95 108.2 4069.15 109.4 4068.35 110.65 4069.55 111.5 4073.1 113.85 4088.05 109.4 L4089.8 108.5 Q4093.5 107.1 4095.05 105.5 4097.45 103.0 4097.45 100.25 4097.45 98.85 4096.65 97.55 L4095.75 96.3 4097.95 98.25 M4098.5 118.05 Q4098.75 119.5 4097.65 122.4 4096.05 126.8 4092.1 129.05 L4090.65 129.8 Q4087.7 131.35 4083.55 132.55 L4079.5 133.55 Q4076.15 133.65 4073.1 132.5 4069.3 131.05 4069.3 128.65 4069.3 127.5 4070.1 126.85 4071.35 125.85 4074.75 125.2 4079.05 124.4 4084.45 126.0 L4085.4 126.25 4086.35 126.7 4082.45 126.95 4080.1 126.75 4075.85 126.6 Q4070.2 127.7 4070.2 128.65 4070.2 130.75 4079.35 132.3 L4083.8 131.05 Q4088.65 129.65 4089.3 129.15 L4090.9 128.25 Q4092.9 126.9 4094.75 124.8 4098.35 120.6 4097.45 117.1 L4098.5 118.05 M4092.05 137.45 L4090.3 139.45 Q4088.0 141.55 4083.85 144.05 L4082.9 144.25 4077.65 144.95 Q4072.4 145.05 4072.4 142.35 4072.4 141.7 4072.95 140.8 4073.5 139.9 4074.8 139.7 4076.15 139.5 4078.05 140.45 L4080.4 141.5 4079.25 141.9 4077.15 141.1 Q4073.45 140.1 4073.15 142.2 4073.1 142.95 4074.7 143.6 4075.35 143.85 4078.45 143.65 L4082.05 143.25 4083.2 142.9 4083.25 142.9 Q4085.7 141.8 4088.95 139.3 4091.95 136.95 4092.35 136.1 L4092.05 137.45 M4085.15 146.4 L4085.45 147.75 4085.5 149.9 Q4085.25 151.4 4084.1 153.1 4082.95 154.85 4082.5 154.85 L4081.7 154.5 Q4085.3 151.0 4084.45 147.3 L4084.15 146.35 4085.15 146.4" fill="#e9c7cd" fill-rule="evenodd" stroke="none"/>
      <path d="M4092.6 92.5 Q4095.8 94.25 4096.95 95.95 L4097.4 96.9 4097.95 98.25 4095.75 96.3 4091.2 93.1 4092.6 92.5 M4090.9 109.25 Q4094.3 110.65 4095.75 112.05 4097.5 113.8 4098.25 116.5 L4098.5 118.05 4097.45 117.1 Q4096.5 113.5 4092.9 111.35 4091.05 110.3 4089.45 109.95 L4090.9 109.25 M4092.1 129.05 L4093.35 130.05 Q4094.1 131.2 4094.05 133.5 4093.95 135.45 4092.05 137.45 L4092.35 136.1 Q4093.9 132.75 4092.6 130.95 4091.7 129.7 4090.65 129.8 L4092.1 129.05 M4083.85 144.05 L4084.75 145.5 4085.15 146.4 4084.15 146.35 4083.55 145.2 4082.9 144.25 4083.85 144.05 M4080.4 141.5 L4083.2 142.9 4082.05 143.25 Q4080.0 142.15 4079.25 141.9 L4080.4 141.5 M4086.35 126.7 Q4090.5 128.35 4090.9 128.25 L4089.3 129.15 4084.25 127.5 4083.55 127.2 4082.45 126.95 4086.35 126.7 M4084.05 106.9 L4089.8 108.5 4088.05 109.4 Q4085.4 108.3 4082.05 107.85 L4080.4 107.75 4084.05 106.9 M4088.05 90.6 Q4091.0 91.25 4091.55 91.65 L4090.15 92.4 4086.65 91.7 4083.3 91.2 4088.05 90.6" fill="#aa7e86" fill-rule="evenodd" stroke="none"/>
      <path d="M4091.55 91.65 Q4094.4 90.85 4096.15 88.65 4097.9 86.55 4097.9 84.2 4097.9 80.45 4093.75 75.95 4089.2 71.05 4084.6 72.0 L4084.6 71.75 Q4089.75 70.15 4094.45 75.35 4098.6 79.95 4098.6 84.2 4098.6 86.7 4097.5 88.5 4096.15 90.65 4092.6 92.5 4095.8 94.25 4096.95 95.95 L4097.4 96.9 4097.95 98.25 4098.15 100.1 Q4098.15 103.15 4096.65 105.15 4095.1 107.2 4090.9 109.25 4094.3 110.65 4095.75 112.05 4097.5 113.8 4098.25 116.5 L4098.5 118.05 Q4098.75 119.5 4097.65 122.4 4096.05 126.8 4092.1 129.05 L4093.35 130.05 Q4094.1 131.2 4094.05 133.5 4093.95 135.45 4092.05 137.45 L4090.3 139.45 Q4088.0 141.55 4083.85 144.05 L4084.75 145.5 4085.15 146.4 4085.45 147.75 4085.5 149.9 Q4085.25 151.4 4084.1 153.1 4082.95 154.85 4082.5 154.85 L4081.7 154.5 Q4085.3 151.0 4084.45 147.3 L4084.15 146.35 4083.55 145.2 4082.9 144.25 4077.65 144.95 Q4072.4 145.05 4072.4 142.35 4072.4 141.7 4072.95 140.8 4073.5 139.9 4074.8 139.7 4076.15 139.5 4078.05 140.45 L4080.4 141.5 4083.2 142.9 4083.25 142.9 Q4085.7 141.8 4088.95 139.3 4091.95 136.95 4092.35 136.1 4093.9 132.75 4092.6 130.95 4091.7 129.7 4090.65 129.8 4087.7 131.35 4083.55 132.55 L4079.5 133.55 Q4076.15 133.65 4073.1 132.5 4069.3 131.05 4069.3 128.65 4069.3 127.5 4070.1 126.85 4071.35 125.85 4074.75 125.2 4079.05 124.4 4084.45 126.0 L4085.4 126.25 4086.35 126.7 Q4090.5 128.35 4090.9 128.25 4092.9 126.9 4094.75 124.8 4098.35 120.6 4097.45 117.1 4096.5 113.5 4092.9 111.35 4091.05 110.3 4089.45 109.95 L4087.0 111.1 4081.45 113.4 4079.0 114.0 4073.5 114.7 Q4065.6 114.9 4065.6 109.65 4065.6 108.65 4068.9 107.5 4071.1 106.65 4072.8 106.35 4077.0 105.55 4082.05 106.45 L4084.05 106.9 4089.8 108.5 Q4093.5 107.1 4095.05 105.5 4097.45 103.0 4097.45 100.25 4097.45 98.85 4096.65 97.55 L4095.75 96.3 4091.2 93.1 4084.05 95.55 Q4075.9 97.8 4071.1 96.75 4065.85 95.65 4065.85 93.0 4065.85 92.1 4066.1 91.75 4066.65 91.0 4068.65 90.5 L4071.05 90.0 Q4079.4 89.4 4085.85 90.25 L4088.05 90.6 Q4091.0 91.25 4091.55 91.65 L4090.15 92.4 4085.95 93.9 Q4077.3 96.6 4072.5 94.9 4070.45 94.15 4070.1 92.95 4069.8 91.8 4071.2 91.55 L4081.25 91.1 4083.3 91.2 M4090.15 92.4 L4086.65 91.7 4083.3 91.2 M4092.6 92.5 L4091.2 93.1 M4098.5 118.05 L4097.45 117.1 M4092.1 129.05 L4090.65 129.8 M4088.05 109.4 Q4085.4 108.3 4082.05 107.85 L4080.4 107.75 Q4076.45 107.4 4071.55 107.95 4069.95 108.2 4069.15 109.4 4068.35 110.65 4069.55 111.5 4073.1 113.85 4088.05 109.4 L4089.8 108.5 M4089.3 129.15 L4084.25 127.5 4083.55 127.2 4082.45 126.95 4080.1 126.75 4075.85 126.6 Q4070.2 127.7 4070.2 128.65 4070.2 130.75 4079.35 132.3 L4083.8 131.05 Q4088.65 129.65 4089.3 129.15 L4090.9 128.25 M4082.05 143.25 L4078.45 143.65 Q4075.35 143.85 4074.7 143.6 4073.1 142.95 4073.15 142.2 4073.45 140.1 4077.15 141.1 L4079.25 141.9 Q4080.0 142.15 4082.05 143.25 L4083.2 142.9 M4083.85 144.05 L4082.9 144.25 M4090.9 109.25 L4089.45 109.95" fill="none" stroke="#000000" stroke-linecap="round" stroke-linejoin="round" stroke-opacity="0.3019608" stroke-width="0.30000000000000004"/>
      <path d="M4089.75 158.3 L4089.25 157.55 Q4087.2 154.5 4083.6 153.55 4079.55 152.5 4075.85 154.6 4072.25 156.75 4071.15 160.8 4070.05 164.85 4072.15 168.5 4073.45 170.65 4075.45 171.95 4076.7 172.8 4078.3 173.2 4082.4 174.3 4086.05 172.2 4089.7 170.1 4090.8 166.05 4091.9 162.0 4089.75 158.3 M4087.9 153.0 Q4090.3 154.5 4091.85 157.15 4094.35 161.6 4093.05 166.5 4091.75 171.4 4087.35 173.95 4082.9 176.45 4078.0 175.15 4073.65 174.0 4071.15 170.45 L4070.55 169.45 Q4068.0 165.0 4069.3 160.1 4070.6 155.2 4075.05 152.65 4079.5 150.1 4084.4 151.4 4086.35 151.95 4087.9 153.0" fill="#e9c7cd" fill-rule="evenodd" stroke="none"/>
      <path d="M4089.75 158.3 Q4091.9 162.0 4090.8 166.05 4089.7 170.1 4086.05 172.2 4082.4 174.3 4078.3 173.2 4076.7 172.8 4075.45 171.95 4073.45 170.65 4072.15 168.5 4070.05 164.85 4071.15 160.8 4072.25 156.75 4075.85 154.6 4079.55 152.5 4083.6 153.55 4087.2 154.5 4089.25 157.55 L4089.75 158.3" fill="#a10821" fill-rule="evenodd" stroke="none"/>
      <path d="M4089.75 158.3 Q4091.9 162.0 4090.8 166.05 4089.7 170.1 4086.05 172.2 4082.4 174.3 4078.3 173.2 4076.7 172.8 4075.45 171.95 4073.45 170.65 4072.15 168.5 4070.05 164.85 4071.15 160.8 4072.25 156.75 4075.85 154.6 4079.55 152.5 4083.6 153.55 4087.2 154.5 4089.25 157.55 L4089.75 158.3 M4087.9 153.0 Q4090.3 154.5 4091.85 157.15 4094.35 161.6 4093.05 166.5 4091.75 171.4 4087.35 173.95 4082.9 176.45 4078.0 175.15 4073.65 174.0 4071.15 170.45 L4070.55 169.45 Q4068.0 165.0 4069.3 160.1 4070.6 155.2 4075.05 152.65 4079.5 150.1 4084.4 151.4 4086.35 151.95 4087.9 153.0" fill="none" stroke="#000000" stroke-linecap="round" stroke-linejoin="round" stroke-opacity="0.3019608" stroke-width="0.30000000000000004"/>
      <path d="M4079.35 157.25 L4079.55 157.3 Q4080.0 157.35 4080.55 157.65 4082.25 159.0 4081.45 161.4 4082.45 159.25 4084.6 159.25 4089.05 160.4 4087.85 163.9 L4086.8 165.75 Q4085.4 167.55 4083.15 168.15 L4078.25 169.0 Q4074.5 165.1 4074.2 161.9 L4074.4 160.7 Q4075.25 156.15 4079.35 157.25" fill="#e9c7cd" fill-rule="evenodd" stroke="none"/>
      <path d="M4079.35 157.25 Q4075.25 156.15 4074.4 160.7 L4074.2 161.9 Q4074.5 165.1 4078.25 169.0 L4083.15 168.15 Q4085.4 167.55 4086.8 165.75 L4087.85 163.9 Q4089.05 160.4 4084.6 159.25 4082.45 159.25 4081.45 161.4 4082.25 159.0 4080.55 157.65 4080.0 157.35 4079.55 157.3 L4079.35 157.25 Z" fill="none" stroke="#000000" stroke-linecap="round" stroke-linejoin="round" stroke-opacity="0.3019608" stroke-width="0.30000000000000004"/>
      <path d="M3916.5 152.9 L3916.4 151.3 Q3915.95 142.45 3916.15 140.0 3916.5 138.0 3919.9 136.5 L3944.8 129.25 Q3939.95 141.25 3916.5 152.9 M3993.85 114.8 L3994.25 114.7 Q4014.6 108.7 4016.35 110.15 4017.95 112.6 4018.05 116.85 3985.35 128.5 3977.4 140.05 3973.15 146.15 3975.85 152.2 3984.9 170.6 4017.0 149.95 L4016.6 161.45 Q3998.7 169.45 3999.9 179.7 L3987.25 182.95 Q3978.4 157.9 3958.4 156.65 3939.7 159.35 3916.15 187.4 L3916.5 174.95 Q3939.7 138.0 3993.85 114.8 M3968.35 141.9 L3977.4 140.05 3968.35 141.9 M3922.1 194.95 Q3930.2 182.75 3945.55 181.35 3956.6 181.9 3960.0 187.85 L3922.1 194.95" fill="url(#gradient16)" fill-rule="evenodd" stroke="none"/>
      <path d="M4016.35 110.15 Q4019.1 111.45 4020.55 114.05 L4018.05 116.85 Q4017.95 112.6 4016.35 110.15 M4021.4 132.9 L4020.25 170.35 Q4019.85 163.05 4016.6 161.45 L4017.0 149.95 Q4020.8 143.0 4021.4 132.9 M4013.6 180.35 L4012.15 180.95 3998.75 184.25 Q3991.45 185.55 3987.25 182.95 L3999.9 179.7 Q4004.2 181.25 4013.6 180.35 M3949.0 193.5 L3929.1 196.95 3923.85 197.85 Q3917.6 197.55 3915.8 196.1 L3922.1 194.95 3960.0 187.85 Q3958.9 191.15 3949.0 193.5 M3929.1 196.95 L3922.1 194.95 3929.1 196.95" fill="#8c6537" fill-rule="evenodd" stroke="none"/>
      <path d="M3944.8 129.25 L3984.65 117.6 3993.85 114.8 Q3939.7 138.0 3916.5 174.95 L3916.55 174.4 Q3916.85 161.35 3916.5 152.9 3939.95 141.25 3944.8 129.25 M3915.8 196.1 L3916.15 187.4 Q3939.7 159.35 3958.4 156.65 3978.4 157.9 3987.25 182.95 L3979.85 184.65 3975.95 183.1 3975.95 184.85 3960.0 187.85 Q3956.6 181.9 3945.55 181.35 3930.2 182.75 3922.1 194.95 L3915.8 196.1 M3999.9 179.7 Q3998.7 169.45 4016.6 161.45 L4016.35 169.1 Q4014.1 175.4 4003.8 178.55 L3999.9 179.7 M4017.0 149.95 Q3984.9 170.6 3975.85 152.2 3973.15 146.15 3977.4 140.05 L3985.15 138.15 3977.4 140.05 Q3985.35 128.5 4018.05 116.85 L4018.05 118.3 4017.0 149.95 M3965.3 167.8 L3968.5 170.2 3967.7 174.15 3975.95 183.1 3967.7 174.15 3968.5 170.2 3965.3 167.8 M3969.25 166.25 L3968.5 170.2 3969.25 166.25" fill="url(#gradient17)" fill-rule="evenodd" stroke="none"/>
      <path d="M4020.55 114.05 Q4021.55 115.85 4021.85 118.3 L4021.4 132.9 Q4020.8 143.0 4017.0 149.95 L4018.05 118.3 4018.05 116.85 4020.55 114.05 M4020.25 170.35 L4020.1 174.3 Q4017.45 178.5 4013.6 180.35 4004.2 181.25 3999.9 179.7 L4003.8 178.55 Q4014.1 175.4 4016.35 169.1 L4016.6 161.45 Q4019.85 163.05 4020.25 170.35 M3998.75 184.25 L3985.35 187.5 3982.95 185.95 3979.85 184.65 3987.25 182.95 Q3991.45 185.55 3998.75 184.25 M3980.9 188.0 L3949.0 193.5 Q3958.9 191.15 3960.0 187.85 L3975.95 184.85 3980.9 188.0" fill="#855c2d" fill-rule="evenodd" stroke="none"/>
      <path d="M3982.95 185.95 L3980.9 188.0 3975.95 184.85 3975.95 183.1 3979.85 184.65 3982.95 185.95" fill="#583a16" fill-rule="evenodd" stroke="none"/>
      <path d="M3916.5 152.9 L3916.4 151.3 Q3915.95 142.45 3916.15 140.0 3916.5 138.0 3919.9 136.5 L3944.8 129.25 3984.65 117.6 3993.85 114.8 M3994.25 114.7 Q4014.6 108.7 4016.35 110.15 4019.1 111.45 4020.55 114.05 4021.55 115.85 4021.85 118.3 L4021.4 132.9 4020.25 170.35 4020.1 174.3 Q4017.45 178.5 4013.6 180.35 L4012.15 180.95 3998.75 184.25 3985.35 187.5 3982.95 185.95 3980.9 188.0 3949.0 193.5 3929.1 196.95 3923.85 197.85 3922.3 198.1 M3916.5 174.95 L3916.55 174.4 Q3916.85 161.35 3916.5 152.9 M3916.15 187.4 L3916.5 174.95 M3915.8 196.1 L3916.15 187.4 M3987.25 182.95 L3999.9 179.7 M4016.6 161.45 L4017.0 149.95 M3922.1 194.95 L3915.8 196.1 Q3917.6 197.55 3923.85 197.85 M3975.95 183.1 L3967.7 174.15 3968.5 170.2 3965.3 167.8 M3960.0 187.85 L3975.95 184.85 3975.95 183.1 3979.85 184.65 3987.25 182.95 M3960.0 187.85 L3922.1 194.95 M4016.35 110.15 Q4017.95 112.6 4018.05 116.85 L4018.05 118.3 4017.0 149.95 M3979.85 184.65 L3982.95 185.95 M3975.95 184.85 L3980.9 188.0 M4016.6 161.45 L4016.35 169.1 Q4014.1 175.4 4003.8 178.55 L3999.9 179.7 M3968.5 170.2 L3969.25 166.25" fill="none" stroke="#000000" stroke-linecap="round" stroke-linejoin="round" stroke-opacity="0.3019608" stroke-width="0.5"/>
      <path d="M3993.85 114.8 L3994.25 114.7 M3916.5 152.9 Q3939.95 141.25 3944.8 129.25 M3916.5 174.95 Q3939.7 138.0 3993.85 114.8 M3916.15 187.4 Q3939.7 159.35 3958.4 156.65 3978.4 157.9 3987.25 182.95 3991.45 185.55 3998.75 184.25 M3999.9 179.7 Q3998.7 169.45 4016.6 161.45 4019.85 163.05 4020.25 170.35 M4017.0 149.95 Q3984.9 170.6 3975.85 152.2 3973.15 146.15 3977.4 140.05 L3968.35 141.9 M3922.1 194.95 Q3930.2 182.75 3945.55 181.35 3956.6 181.9 3960.0 187.85 3958.9 191.15 3949.0 193.5 M3922.1 194.95 L3929.1 196.95 M4018.05 116.85 L4020.55 114.05 M4017.0 149.95 Q4020.8 143.0 4021.4 132.9 M3977.4 140.05 L3985.15 138.15 M3999.9 179.7 Q4004.2 181.25 4013.6 180.35 M4018.05 116.85 Q3985.35 128.5 3977.4 140.05" fill="none" stroke="#000000" stroke-linecap="round" stroke-linejoin="round" stroke-opacity="0.16078432" stroke-width="0.05"/>
      <path d="M3976.2 138.4 L3984.6 136.5" fill="none" stroke="#000000" stroke-linecap="round" stroke-linejoin="round" stroke-opacity="0.16078432" stroke-width="0.05"/>
      <path d="M3922.15 162.5 L3930.55 160.6" fill="none" stroke="#000000" stroke-linecap="round" stroke-linejoin="round" stroke-opacity="0.16078432" stroke-width="0.05"/>
      <path d="M3978.85 178.4 L3987.25 176.5" fill="none" stroke="#000000" stroke-linecap="round" stroke-linejoin="round" stroke-opacity="0.16078432" stroke-width="0.05"/>
      <path d="M3978.25 176.2 L3994.4 172.55" fill="none" stroke="#000000" stroke-linecap="round" stroke-linejoin="round" stroke-opacity="0.16078432" stroke-width="0.05"/>
      <path d="M3956.0 160.5 L3995.75 151.7" fill="none" stroke="#000000" stroke-linecap="round" stroke-linejoin="round" stroke-opacity="0.16078432" stroke-width="0.05"/>
      <path d="M4011.65 102.8 L4012.0 103.0 Q4015.15 105.0 4014.95 109.8 4012.0 109.8 4010.65 110.4 4009.35 104.35 4007.65 106.15 4006.3 111.15 4010.05 112.45 4011.1 113.95 4009.25 115.25 L4004.6 115.4 Q4003.25 113.7 4002.5 112.1 L4001.9 110.45 Q4003.1 112.9 4005.0 113.3 4006.75 111.8 4005.75 109.85 4005.25 107.6 4005.85 106.0 4006.35 104.55 4007.85 103.4 4008.8 102.7 4011.05 103.75 L4012.0 104.0 Q4012.2 103.9 4011.65 102.8" fill="#23201c" fill-rule="evenodd" stroke="none"/>
      <path d="M4011.65 102.8 Q4012.2 103.9 4012.0 104.0 L4011.05 103.75 Q4008.8 102.7 4007.85 103.4 4006.35 104.55 4005.85 106.0 4005.25 107.6 4005.75 109.85 4006.75 111.8 4005.0 113.3 4003.1 112.9 4001.9 110.45 4001.3 108.25 4002.0 106.2 4003.55 101.6 4007.45 101.7 4009.8 101.8 4011.65 102.8" fill="#43403c" fill-rule="evenodd" stroke="none"/>
      <path d="M4001.9 110.45 L4002.5 112.1 Q4003.25 113.7 4004.6 115.4 L4009.25 115.25 Q4011.1 113.95 4010.05 112.45 4006.3 111.15 4007.65 106.15 4009.35 104.35 4010.65 110.4 4012.0 109.8 4014.95 109.8 4015.15 105.0 4012.0 103.0 L4011.65 102.8 M4001.9 110.45 Q4001.3 108.25 4002.0 106.2 4003.55 101.6 4007.45 101.7 4009.8 101.8 4011.65 102.8" fill="none" stroke="#000000" stroke-linecap="round" stroke-linejoin="round" stroke-opacity="0.3019608" stroke-width="0.5"/>
      <path d="M3928.5 125.85 L3928.85 126.05 Q3930.15 126.9 3931.1 129.95 L3931.8 132.85 3928.5 134.25 3926.95 131.3 Q3925.2 128.45 3924.5 129.2 3923.15 134.2 3926.9 135.5 3927.95 137.0 3926.1 138.3 L3921.45 138.45 3919.35 135.15 3918.75 133.5 Q3919.95 135.95 3921.85 136.35 3923.6 134.85 3922.6 132.9 3922.1 130.65 3922.7 129.05 3923.2 127.6 3924.7 126.45 3925.65 125.75 3927.9 126.8 L3928.85 127.05 Q3929.05 126.95 3928.5 125.85" fill="#23201c" fill-rule="evenodd" stroke="none"/>
      <path d="M3928.5 125.85 Q3929.05 126.95 3928.85 127.05 L3927.9 126.8 Q3925.65 125.75 3924.7 126.45 3923.2 127.6 3922.7 129.05 3922.1 130.65 3922.6 132.9 3923.6 134.85 3921.85 136.35 3919.95 135.95 3918.75 133.5 3918.15 131.3 3918.85 129.25 3920.4 124.65 3924.3 124.75 3926.65 124.85 3928.5 125.85" fill="#43403c" fill-rule="evenodd" stroke="none"/>
      <path d="M3918.75 133.5 L3919.35 135.15 3921.45 138.45 3926.1 138.3 Q3927.95 137.0 3926.9 135.5 3923.15 134.2 3924.5 129.2 3925.2 128.45 3926.95 131.3 L3928.5 134.25 3931.8 132.85 3931.1 129.95 Q3930.15 126.9 3928.85 126.05 L3928.5 125.85 M3918.75 133.5 Q3918.15 131.3 3918.85 129.25 3920.4 124.65 3924.3 124.75 3926.65 124.85 3928.5 125.85" fill="none" stroke="#000000" stroke-linecap="round" stroke-linejoin="round" stroke-opacity="0.3019608" stroke-width="0.5"/>
      <path d="M3938.0 136.1 Q3938.0 138.4 3936.1 139.4 3933.95 140.5 3933.8 141.0 3932.85 144.0 3931.4 146.6 3932.05 147.25 3933.8 147.25 3934.95 147.25 3936.0 146.3 L3937.6 144.6 3937.75 144.3 3936.5 144.3 3936.1 145.15 3935.35 145.75 3934.9 145.55 3934.85 145.05 Q3934.85 144.6 3935.3 143.85 3935.75 143.1 3936.35 142.55 L3938.0 142.55 Q3938.6 142.8 3938.75 143.35 L3938.8 144.25 Q3938.8 145.6 3936.95 147.25 3935.15 148.85 3933.75 148.85 L3931.55 148.55 Q3930.75 148.2 3930.65 148.2 L3929.3 149.25 Q3928.0 150.3 3927.15 150.3 3925.9 150.3 3925.55 149.1 L3925.45 147.8 Q3925.45 146.9 3925.85 146.15 3926.45 145.0 3927.7 145.0 3928.25 145.0 3929.2 145.6 L3930.25 146.15 Q3930.55 146.15 3931.55 143.55 L3932.9 140.05 3930.8 139.1 3929.6 139.55 Q3929.9 140.15 3930.7 140.5 3931.3 140.75 3931.3 141.3 L3931.0 142.05 3930.3 142.05 Q3929.15 142.05 3928.75 140.8 L3928.6 139.6 Q3928.6 137.5 3930.9 137.5 3931.35 137.5 3932.2 137.95 L3933.45 138.4 3935.75 135.75 Q3938.0 133.55 3938.0 136.1 M3935.9 137.5 L3935.8 137.7 3936.55 137.2 3936.85 136.4 3936.4 136.8 3935.9 137.5 M3929.45 147.5 Q3928.45 146.65 3927.45 146.8 3926.5 146.9 3926.5 147.75 3926.5 148.7 3927.3 148.7 3928.2 148.7 3929.3 147.75 L3929.45 147.5 M3946.6 142.25 L3943.55 145.55 3942.35 145.75 Q3941.05 145.75 3940.1 144.85 3939.35 144.15 3939.35 143.85 3939.35 142.55 3939.8 141.35 3940.65 139.15 3942.65 139.75 3943.15 140.05 3943.3 140.45 L3943.3 141.15 3943.05 142.35 3941.6 144.1 3943.25 144.15 Q3944.25 143.7 3947.3 141.15 L3947.45 141.2 3946.6 142.25 M3942.1 141.35 Q3941.25 141.3 3940.85 141.8 L3940.55 142.55 3940.6 142.8 Q3941.6 142.55 3941.95 141.6 L3942.1 141.35 M3963.95 148.15 L3963.4 147.95 3968.45 144.05 Q3968.8 142.0 3969.5 139.4 3970.1 137.0 3970.35 137.05 L3970.55 137.9 3970.1 141.4 3969.95 142.3 3969.7 143.55 3970.8 142.7 3972.55 141.55 3972.5 140.75 Q3972.5 138.15 3974.6 136.85 3976.55 135.4 3977.55 137.0 L3977.55 137.2 3978.05 136.7 Q3978.8 136.0 3979.85 135.5 L3981.55 135.55 Q3984.7 134.05 3985.0 134.0 3984.65 132.9 3984.8 132.75 3984.65 132.25 3985.35 132.1 L3985.5 132.1 3985.85 132.1 3986.1 132.1 3987.1 132.1 3989.45 132.6 3985.85 136.2 Q3985.3 136.3 3985.15 135.85 L3984.95 135.15 Q3983.65 135.6 3982.65 136.25 L3981.85 136.7 Q3981.6 138.95 3978.65 142.7 3975.5 146.25 3974.8 146.0 3974.25 145.75 3973.5 144.25 L3972.7 142.55 Q3971.75 143.2 3970.45 144.55 L3969.05 146.0 3969.05 146.1 3967.6 150.7 Q3966.0 155.35 3966.05 156.45 3966.0 157.0 3966.35 157.45 3966.45 158.0 3967.25 158.75 L3967.35 158.85 3968.5 158.65 Q3969.7 158.05 3971.05 156.3 L3972.4 154.05 3973.65 151.2 Q3974.85 148.45 3974.95 149.3 L3974.95 149.65 3974.25 152.75 Q3973.55 155.45 3973.7 155.5 3974.6 156.3 3975.8 155.9 3977.95 154.55 3979.55 151.4 L3981.95 146.05 Q3982.65 144.2 3983.25 143.9 3984.8 143.15 3984.95 144.75 L3984.8 146.5 3986.25 143.85 Q3987.95 141.0 3989.9 140.15 3991.1 139.5 3991.55 140.5 L3991.75 141.5 3990.9 144.35 Q3990.05 146.7 3990.2 147.7 3990.15 148.5 3990.9 148.95 3991.8 149.5 3993.9 148.65 L3996.9 147.05 4000.85 144.9 Q4002.7 144.0 4004.45 143.65 4004.4 143.5 4004.5 143.5 L4007.6 143.15 Q4010.15 143.0 4011.75 144.35 4013.55 145.9 4013.55 149.45 4013.55 154.05 4009.55 158.55 4002.0 166.75 3995.35 169.2 3991.9 170.3 3988.05 170.0 L3984.7 169.45 3984.55 169.45 3981.1 169.2 3978.05 168.7 3975.0 168.4 3970.75 168.95 3968.15 169.8 Q3966.45 170.3 3966.2 170.5 3961.05 172.25 3956.9 175.75 3953.3 178.75 3952.35 181.5 L3952.25 182.85 Q3952.15 184.3 3952.75 185.35 3954.25 188.6 3960.2 186.7 3964.6 185.05 3967.15 181.55 3969.6 178.05 3973.45 176.95 3973.9 176.7 3974.6 177.6 3974.8 177.8 3974.65 178.35 3974.45 179.9 3972.45 181.9 L3973.25 180.45 Q3973.95 179.0 3973.7 178.45 3972.95 177.35 3971.6 178.45 L3968.75 181.45 Q3963.8 187.1 3961.3 188.05 L3959.15 188.55 3958.3 188.65 3955.9 188.4 Q3952.15 187.05 3951.45 184.2 3951.1 182.4 3951.6 181.1 3953.05 176.95 3958.9 172.8 3963.1 169.75 3967.15 168.3 3973.85 165.6 3981.85 167.85 L3988.2 169.15 Q3991.95 169.45 3996.0 168.05 L4000.75 165.5 4004.0 163.3 Q4006.95 160.9 4009.1 157.05 4011.55 152.4 4011.55 150.0 4011.3 145.15 4006.55 144.8 4003.5 144.55 4000.75 145.7 3999.15 146.35 3997.2 147.7 L3993.9 149.55 3990.05 149.65 Q3989.3 149.0 3989.3 148.1 3989.25 147.45 3989.5 146.65 L3989.5 146.35 Q3989.45 145.9 3989.85 144.85 L3990.3 142.95 Q3990.25 141.75 3989.3 142.2 3987.0 143.2 3984.7 148.45 3983.7 150.6 3983.25 151.9 L3982.5 153.85 3982.15 153.85 3982.0 153.35 Q3981.95 152.8 3982.95 149.3 3983.7 146.15 3983.35 146.15 3982.85 146.0 3981.8 148.5 3980.9 150.25 3980.75 150.85 3979.1 154.5 3977.25 156.35 L3977.05 156.65 3976.1 157.5 3974.25 157.8 3973.05 157.7 3972.75 157.5 3971.2 158.75 3968.3 160.6 3965.3 160.7 Q3964.5 160.3 3964.3 159.7 3963.75 161.05 3961.5 162.35 3960.65 162.65 3960.55 162.05 L3960.5 161.2 3960.8 159.65 Q3961.0 158.0 3960.75 157.8 3960.2 157.45 3959.25 158.9 3958.1 160.5 3957.9 162.0 3957.35 163.75 3957.45 164.55 L3956.8 164.7 3957.0 159.55 Q3956.9 159.45 3956.7 159.65 3956.0 159.8 3955.15 161.75 L3954.5 163.65 Q3953.3 165.7 3951.35 166.65 3948.85 167.7 3947.85 166.6 3947.8 166.45 3946.7 167.75 L3944.85 169.35 3942.35 169.25 3941.8 168.4 3941.3 169.2 3940.15 169.95 3938.75 169.75 3938.35 169.25 3937.2 170.5 3935.9 171.55 Q3934.35 171.55 3934.15 170.15 3933.95 168.9 3934.4 168.05 3935.15 165.85 3936.9 165.3 L3938.85 165.2 3938.9 165.2 Q3938.85 165.1 3938.95 165.15 3939.5 162.95 3939.6 164.45 L3939.25 166.8 Q3938.95 168.8 3939.1 168.9 L3939.75 169.35 3941.45 167.85 3941.1 164.85 Q3941.05 162.1 3941.65 159.7 3942.8 152.6 3943.0 152.35 3943.55 149.4 3944.2 149.5 L3944.25 149.3 Q3945.05 148.75 3945.8 150.5 L3946.3 152.45 3946.55 154.4 Q3946.45 157.3 3945.55 160.6 3944.9 162.7 3943.5 165.4 3942.6 166.65 3942.35 167.35 3942.35 167.85 3942.8 168.2 3943.35 168.85 3944.4 168.6 3945.55 168.15 3947.15 165.5 3947.05 165.45 3947.7 163.05 3948.65 160.4 3950.4 159.65 3951.4 159.1 3952.0 159.45 3953.05 159.55 3952.45 161.75 L3951.3 163.3 3948.6 165.0 Q3948.55 165.35 3949.8 165.7 L3951.45 165.9 Q3952.8 165.25 3953.75 163.5 L3954.2 162.35 Q3954.75 159.65 3956.2 158.6 L3956.25 158.55 3957.05 158.35 3957.95 158.15 3959.55 156.8 Q3961.3 155.5 3962.2 156.3 L3962.25 157.0 3961.45 160.8 3962.0 160.9 Q3963.05 160.35 3963.75 159.05 L3964.15 157.85 3967.8 146.3 Q3967.8 146.05 3964.8 148.1 L3963.95 148.15 M3922.55 160.65 L3923.75 160.65 Q3925.0 161.0 3925.15 162.85 L3924.6 166.35 Q3924.0 170.1 3924.1 171.45 3924.0 171.55 3924.45 173.85 3925.2 175.75 3927.45 175.0 3931.05 173.35 3932.5 167.85 3933.1 165.05 3933.15 162.05 L3932.7 158.8 Q3932.15 156.3 3932.0 156.4 L3930.9 157.45 3929.75 158.5 3928.7 158.55 Q3928.15 158.4 3928.25 158.35 3928.15 157.9 3928.75 156.9 3929.4 155.45 3930.3 155.25 3931.05 154.8 3931.65 155.05 3932.15 155.25 3934.1 153.2 L3936.65 150.3 Q3935.6 152.1 3935.25 153.25 L3932.95 155.45 3932.85 155.5 3933.25 156.3 3933.65 157.65 3933.7 160.5 Q3933.45 164.35 3932.5 169.6 3932.0 172.05 3930.7 174.5 3929.0 177.1 3927.4 177.6 3925.3 178.0 3924.35 176.2 3923.55 174.8 3923.55 173.45 L3923.75 170.3 3924.1 163.2 3923.75 162.15 3922.85 162.05 Q3920.95 162.85 3920.25 164.35 3919.9 165.05 3919.95 165.95 3919.9 166.55 3920.15 167.1 3920.65 167.65 3921.6 167.3 3923.05 166.55 3923.05 165.2 3923.05 164.3 3922.65 164.35 L3922.15 164.55 3922.5 165.25 3922.0 166.05 Q3921.5 166.15 3921.55 165.9 L3921.55 165.4 Q3921.5 164.15 3922.35 163.85 3923.3 163.3 3923.55 163.95 L3923.55 164.9 3923.35 166.3 Q3922.85 167.7 3921.95 168.25 L3920.95 168.55 3920.6 168.6 Q3919.2 168.6 3919.25 166.4 3919.2 165.15 3919.9 163.65 3920.7 161.4 3922.55 160.65 M3949.1 163.05 L3949.35 163.2 3949.7 163.2 Q3951.2 162.45 3951.35 160.8 3951.45 160.25 3950.05 161.05 3949.8 161.2 3949.55 162.05 3949.05 162.85 3949.1 163.05 M3944.5 151.25 Q3944.35 151.2 3943.75 153.65 3943.05 155.8 3943.05 156.45 3942.35 161.6 3942.25 165.95 3943.3 164.0 3944.5 159.8 3945.65 155.65 3945.7 153.65 L3944.5 151.25 M3930.35 156.8 L3930.75 156.3 3930.85 155.95 Q3930.45 156.05 3930.1 156.35 L3929.2 157.7 3930.35 156.8 M3937.2 166.35 Q3935.7 166.95 3935.25 168.15 3935.05 168.65 3935.15 169.25 3935.15 169.7 3935.4 169.8 3935.6 169.65 3936.45 169.25 L3937.65 168.15 3938.2 166.25 3937.2 166.35" fill="#a10821" fill-rule="evenodd" stroke="none"/>
      <path d="M4000.3 100.25 L4000.3 87.5 4002.0 87.5 4002.0 99.9 4002.0 103.3 4002.0 105.85 4001.85 108.7 Q4001.1 108.5 4000.75 107.55 4000.4 106.8 4000.3 105.55 L4000.3 103.95 4000.3 100.25 4002.0 99.9 4000.3 100.25 M4012.8 87.5 L4012.8 95.9 4012.1 100.2 4011.35 104.55 4011.25 105.15 Q4010.8 106.55 4009.65 107.55 L4007.35 108.85 Q4007.25 107.55 4007.75 106.3 4009.05 105.95 4009.8 104.8 4010.4 103.85 4010.65 102.4 L4010.65 100.35 4010.65 87.5 4012.8 87.5 M4010.65 100.35 L4012.1 100.2 4010.65 100.35 M4009.8 104.8 L4011.35 104.55 4009.8 104.8 M4002.0 103.3 L4000.3 103.95 4002.0 103.3 M4002.0 105.85 L4000.75 107.55 4002.0 105.85 M4009.65 107.55 L4007.75 106.3 4009.65 107.55" fill="#a18052" fill-rule="evenodd" stroke="none"/>
      <path d="M3998.65 87.5 L4000.3 87.5 4000.3 100.25 3998.65 100.6 4000.3 100.25 4000.3 103.95 4000.3 105.55 Q4000.4 106.8 4000.75 107.55 L3999.6 109.1 Q3998.95 107.75 3998.65 105.7 L3998.65 104.6 3998.65 100.6 3998.65 87.5 M4001.85 108.7 Q4001.75 111.4 4002.35 111.5 4000.55 111.3 3999.6 109.1 L4000.75 107.55 Q4001.1 108.5 4001.85 108.7 M4012.8 95.9 L4012.8 100.1 4012.8 104.3 Q4012.55 106.9 4011.25 108.6 4010.0 110.15 4007.8 110.9 4007.4 109.85 4007.35 108.85 L4009.65 107.55 Q4010.8 106.55 4011.25 105.15 L4011.35 104.55 4012.1 100.2 4012.8 95.9 M4012.8 100.1 L4012.1 100.2 4012.8 100.1 M4009.65 107.55 L4011.25 108.6 4009.65 107.55 M4012.8 104.3 L4011.35 104.55 4012.8 104.3 M3998.65 104.6 L4000.3 103.95 3998.65 104.6" fill="#c4a375" fill-rule="evenodd" stroke="none"/>
      <path d="M3998.65 87.5 L3998.65 100.6 4000.3 100.25 M4002.0 87.5 L4002.0 99.9 4002.0 103.3 4002.0 105.85 4001.85 108.7 Q4001.75 111.4 4002.35 111.5 4000.55 111.3 3999.6 109.1 3998.95 107.75 3998.65 105.7 L3998.65 104.6 3998.65 100.6 M4012.8 87.5 L4012.8 95.9 4012.8 100.1 4012.8 104.3 Q4012.55 106.9 4011.25 108.6 4010.0 110.15 4007.8 110.9 4007.4 109.85 4007.35 108.85 4007.25 107.55 4007.75 106.3 4009.05 105.95 4009.8 104.8 4010.4 103.85 4010.65 102.4 L4010.65 100.35 4010.65 87.5 M4012.1 100.2 L4012.8 100.1 M4011.35 104.55 L4009.8 104.8 M4012.1 100.2 L4010.65 100.35 M4011.35 104.55 L4012.8 104.3 M4011.25 108.6 L4009.65 107.55 M4000.3 103.95 L4002.0 103.3 M4002.0 99.9 L4000.3 100.25 M4000.75 107.55 L4002.0 105.85 M4000.75 107.55 L3999.6 109.1 M4000.3 103.95 L3998.65 104.6 M4007.75 106.3 L4009.65 107.55" fill="none" stroke="#000000" stroke-linecap="round" stroke-linejoin="round" stroke-opacity="0.3019608" stroke-width="0.30000000000000004"/>
      <path d="M3916.35 84.9 L3917.05 85.9 3917.05 92.85 3915.4 93.05 3917.05 92.85 3917.05 98.75 3917.05 104.15 3915.4 104.35 3915.4 98.95 3915.4 93.05 Q3915.75 86.6 3916.35 84.9 M3918.6 131.6 Q3918.5 134.3 3919.1 134.4 3917.3 134.2 3916.35 132.0 3915.7 130.65 3915.4 128.6 L3915.4 127.5 3915.4 123.5 3915.4 120.0 3915.4 115.7 3915.4 110.45 3915.4 104.35 3917.05 104.15 3917.05 110.25 3915.4 110.45 3917.05 110.25 3917.05 115.5 3915.4 115.7 3917.05 115.5 3917.05 119.8 3917.05 123.15 3915.4 123.5 3917.05 123.15 3917.05 126.85 3917.05 128.45 Q3917.15 129.7 3917.5 130.45 L3916.35 132.0 3917.5 130.45 Q3917.85 131.4 3918.6 131.6 M3915.4 98.95 L3917.05 98.75 3915.4 98.95 M3929.55 118.8 L3929.55 123.0 3929.55 127.2 Q3929.3 129.8 3928.0 131.5 3926.75 133.05 3924.55 133.8 3924.15 132.75 3924.1 131.75 3925.45 131.25 3926.4 130.45 3927.55 129.45 3928.0 128.05 L3928.1 127.45 3928.85 123.1 3929.55 118.8 M3929.55 123.0 L3928.85 123.1 3929.55 123.0 M3929.55 127.2 L3928.1 127.45 3929.55 127.2 M3915.4 120.0 L3917.05 119.8 3915.4 120.0 M3926.4 130.45 L3928.0 131.5 3926.4 130.45 M3915.4 127.5 L3917.05 126.85 3915.4 127.5" fill="#c4a375" fill-rule="evenodd" stroke="none"/>
      <path d="M3917.05 92.85 L3917.05 85.9 3918.75 85.9 3918.75 92.1 3918.75 98.0 3918.75 103.4 3918.75 109.5 3918.75 114.75 3918.75 119.05 3918.75 122.8 3918.75 126.2 3918.75 128.75 3918.6 131.6 Q3917.85 131.4 3917.5 130.45 3917.15 129.7 3917.05 128.45 L3917.05 126.85 3918.75 126.2 3917.05 126.85 3917.05 123.15 3917.05 119.8 3917.05 115.5 3917.05 110.25 3917.05 104.15 3917.05 98.75 3917.05 92.85 3917.7 92.65 3918.05 92.5 3918.75 92.1 3918.05 92.5 3917.7 92.65 3917.05 92.85 M3918.75 98.0 L3918.05 98.4 3917.7 98.55 3917.05 98.75 3917.7 98.55 3918.05 98.4 3918.75 98.0 M3918.75 103.4 L3918.05 103.8 3917.7 103.95 3917.05 104.15 3917.7 103.95 3918.05 103.8 3918.75 103.4 M3929.55 85.9 L3929.55 97.05 3929.55 103.5 3929.55 110.1 3929.55 115.85 3929.55 118.8 3928.85 123.1 3928.1 127.45 3926.55 127.7 Q3927.15 126.75 3927.4 125.3 L3927.4 123.25 3927.4 118.25 3927.4 112.8 3927.4 105.9 3927.4 99.2 3927.4 85.9 3929.55 85.9 M3924.1 131.75 Q3924.0 130.45 3924.5 129.2 3925.8 128.85 3926.55 127.7 L3928.1 127.45 3928.0 128.05 Q3927.55 129.45 3926.4 130.45 3925.45 131.25 3924.1 131.75 M3918.75 109.5 L3918.05 109.9 3917.7 110.05 3917.05 110.25 3917.7 110.05 3918.05 109.9 3918.75 109.5 M3918.75 114.75 L3918.05 115.15 3917.7 115.3 3917.05 115.5 3917.7 115.3 3918.05 115.15 3918.75 114.75 M3918.75 119.05 L3918.05 119.45 3917.7 119.6 3917.05 119.8 3917.7 119.6 3918.05 119.45 3918.75 119.05 M3918.75 122.8 L3917.05 123.15 3918.75 122.8 M3926.4 130.45 L3924.5 129.2 3926.4 130.45 M3918.75 128.75 L3917.5 130.45 3918.75 128.75 M3929.55 97.05 Q3929.3 98.5 3927.4 99.2 3929.3 98.5 3929.55 97.05 M3929.55 103.5 Q3929.35 105.65 3927.4 105.9 3929.35 105.65 3929.55 103.5 M3929.55 115.85 Q3929.25 118.15 3927.4 118.25 3929.25 118.15 3929.55 115.85 M3929.55 110.1 Q3928.85 112.55 3927.4 112.8 3928.85 112.55 3929.55 110.1 M3927.4 123.25 L3928.85 123.1 3927.4 123.25" fill="#a18052" fill-rule="evenodd" stroke="none"/>
      <path d="M3916.35 84.9 Q3915.75 86.6 3915.4 93.05 L3917.05 92.85 M3918.75 85.9 L3918.75 92.1 3918.75 98.0 3918.75 103.4 3918.75 109.5 3918.75 114.75 3918.75 119.05 3918.75 122.8 3918.75 126.2 3918.75 128.75 3918.6 131.6 Q3918.5 134.3 3919.1 134.4 3917.3 134.2 3916.35 132.0 3915.7 130.65 3915.4 128.6 L3915.4 127.5 3915.4 123.5 3915.4 120.0 3915.4 115.7 3915.4 110.45 3915.4 104.35 3915.4 98.95 3915.4 93.05 M3917.05 98.75 L3915.4 98.95 M3917.05 98.75 L3917.7 98.55 3918.05 98.4 3918.75 98.0 M3918.75 92.1 L3918.05 92.5 3917.7 92.65 3917.05 92.85 M3917.05 104.15 L3917.7 103.95 3918.05 103.8 3918.75 103.4 M3929.55 85.9 L3929.55 97.05 3929.55 103.5 3929.55 110.1 3929.55 115.85 3929.55 118.8 3929.55 123.0 3929.55 127.2 Q3929.3 129.8 3928.0 131.5 3926.75 133.05 3924.55 133.8 3924.15 132.75 3924.1 131.75 3924.0 130.45 3924.5 129.2 3925.8 128.85 3926.55 127.7 3927.15 126.75 3927.4 125.3 L3927.4 123.25 3927.4 118.25 3927.4 112.8 3927.4 105.9 3927.4 99.2 3927.4 85.9 M3928.85 123.1 L3929.55 123.0 M3928.1 127.45 L3929.55 127.2 M3915.4 104.35 L3917.05 104.15 M3917.05 110.25 L3917.7 110.05 3918.05 109.9 3918.75 109.5 M3915.4 110.45 L3917.05 110.25 M3917.05 115.5 L3917.7 115.3 3918.05 115.15 3918.75 114.75 M3915.4 115.7 L3917.05 115.5 M3917.05 119.8 L3917.7 119.6 3918.05 119.45 3918.75 119.05 M3915.4 123.5 L3917.05 123.15 3918.75 122.8 M3917.05 119.8 L3915.4 120.0 M3928.1 127.45 L3926.55 127.7 M3928.0 131.5 L3926.4 130.45 M3924.5 129.2 L3926.4 130.45 M3916.35 132.0 L3917.5 130.45 3918.75 128.75 M3917.05 126.85 L3915.4 127.5 M3917.05 126.85 L3918.75 126.2 M3928.85 123.1 L3927.4 123.25 M3927.4 112.8 Q3928.85 112.55 3929.55 110.1 M3927.4 118.25 Q3929.25 118.15 3929.55 115.85 M3927.4 105.9 Q3929.35 105.65 3929.55 103.5 M3927.4 99.2 Q3929.3 98.5 3929.55 97.05" fill="none" stroke="#000000" stroke-linecap="round" stroke-linejoin="round" stroke-opacity="0.3019608" stroke-width="0.30000000000000004"/>
    </g>
    <radialGradient cx="0" cy="0" gradientTransform="matrix(1.0673, 0.0, 0.0, 1.0887, 3996.25, 324.9)" gradientUnits="userSpaceOnUse" id="gradient13" r="819.2" spreadMethod="pad">
      <stop offset="0.0" stop-color="#dba1c9"/>
      <stop offset="1.0" stop-color="#b675a0"/>
    </radialGradient>
    <linearGradient gradientTransform="matrix(0.0, 0.0817, -0.1389, 0.0, 3931.15, 154.35)" gradientUnits="userSpaceOnUse" id="gradient14" spreadMethod="pad" x1="-819.2" x2="819.2">
      <stop offset="0.0" stop-color="#a6a0a0"/>
      <stop offset="1.0" stop-color="#e5dede"/>
    </linearGradient>
    <linearGradient gradientTransform="matrix(0.0, 0.2631, -0.2139, 0.0, 4362.6, 56.65)" gradientUnits="userSpaceOnUse" id="gradient15" spreadMethod="pad" x1="-819.2" x2="819.2">
      <stop offset="0.0392156862745098" stop-color="#2e0c0c" stop-opacity="0.46666667"/>
      <stop offset="1.0" stop-color="#3c1f11" stop-opacity="0.0"/>
    </linearGradient>
    <linearGradient gradientTransform="matrix(0.0087, 0.0616, -0.0468, 0.0066, 3970.85, 151.9)" gradientUnits="userSpaceOnUse" id="gradient16" spreadMethod="pad" x1="-819.2" x2="819.2">
      <stop offset="0.0" stop-color="#d9ae71"/>
      <stop offset="0.9921568627450981" stop-color="#b8915b"/>
    </linearGradient>
    <linearGradient gradientTransform="matrix(0.0089, 0.0335, -0.0233, 0.0062, 3933.55, 150.75)" gradientUnits="userSpaceOnUse" id="gradient17" spreadMethod="pad" x1="-819.2" x2="819.2">
      <stop offset="0.0" stop-color="#cb9f64"/>
      <stop offset="0.9921568627450981" stop-color="#af854d"/>
    </linearGradient>
    <g id="sprite1" transform="matrix(1.0, 0.0, 0.0, 1.0, 0.4, 0.4)">
      <use height="78.5" transform="matrix(1.0, 0.0, 0.0, 1.0, -0.4, -0.4)" width="247.45" xlink:href="#shape3"/>
    </g>
    <g id="shape3" transform="matrix(1.0, 0.0, 0.0, 1.0, 0.4, 0.4)">
      <path d="M160.6 56.4 Q159.1 64.05 153.25 69.9 145.45 77.7 134.4 77.7 123.35 77.7 115.55 69.9 109.45 63.8 108.15 55.7 L160.35 55.7 160.5 55.9 160.6 56.4 M52.55 55.7 Q51.2 63.8 45.1 69.9 37.3 77.7 26.25 77.7 15.2 77.7 7.4 69.9 1.3 63.8 0.0 55.7 L52.55 55.7" fill="#c480a6" fill-rule="evenodd" stroke="none"/>
      <path d="M213.0 55.7 Q211.65 63.8 205.55 69.9 197.75 77.7 186.7 77.7 175.65 77.7 167.85 69.9 162.0 64.05 160.6 56.4 L160.5 55.9 160.45 55.7 160.5 55.9 160.35 55.7 160.45 55.7 213.0 55.7 M108.15 55.7 Q104.45 63.8 98.35 69.9 90.55 77.7 79.5 77.7 68.45 77.7 60.65 69.9 54.55 63.8 53.25 55.7 L108.1 55.7 108.15 55.7" fill="#cdbebe" fill-rule="evenodd" stroke="none"/>
      <path d="M52.9 55.7 L52.55 55.7 0.0 55.7 18.9 25.4 34.2 0.0 86.45 0.0 52.9 55.7 M141.65 0.0 L193.9 0.0 160.35 55.7 108.15 55.7 108.1 55.7 141.65 0.0" fill="url(#gradient18)" fill-rule="evenodd" stroke="none"/>
      <path d="M53.25 55.7 L52.9 55.7 86.45 0.0 141.65 0.0 108.1 55.7 53.25 55.7 M193.9 0.0 L246.65 0.0 213.1 55.7 213.0 55.7 160.45 55.7 160.35 55.7 193.9 0.0" fill="url(#gradient19)" fill-rule="evenodd" stroke="none"/>
      <path d="M160.35 55.7 L160.45 55.7" fill="none" stroke="#00ff00" stroke-linecap="round" stroke-linejoin="round" stroke-width="0.05"/>
      <path d="M213.0 55.7 Q211.65 63.8 205.55 69.9 197.75 77.7 186.7 77.7 175.65 77.7 167.85 69.9 162.0 64.05 160.6 56.4 159.1 64.05 153.25 69.9 145.45 77.7 134.4 77.7 123.35 77.7 115.55 69.9 109.45 63.8 108.15 55.7 104.45 63.8 98.35 69.9 90.55 77.7 79.5 77.7 68.45 77.7 60.65 69.9 54.55 63.8 53.25 55.7 M52.55 55.7 Q51.2 63.8 45.1 69.9 37.3 77.7 26.25 77.7 15.2 77.7 7.4 69.9 1.3 63.8 0.0 55.7 L18.9 25.4 34.2 0.0 86.45 0.0 141.65 0.0 193.9 0.0 246.65 0.0 213.1 55.7 213.0 55.7 160.45 55.7 160.5 55.9 160.6 56.4 M108.15 55.7 L108.1 55.7 53.25 55.7 M160.5 55.9 L160.35 55.7 108.15 55.7 M0.0 55.7 L52.55 55.7" fill="none" stroke="#000000" stroke-linecap="round" stroke-linejoin="round" stroke-opacity="0.3019608" stroke-width="0.8"/>
    </g>
    <linearGradient gradientTransform="matrix(-1.0E-4, 0.0527, -0.034, -1.0E-4, 42.75, 34.45)" gradientUnits="userSpaceOnUse" id="gradient18" spreadMethod="pad" x1="-819.2" x2="819.2">
      <stop offset="0.0" stop-color="#ffd7ed"/>
      <stop offset="0.9921568627450981" stop-color="#de98bf"/>
    </linearGradient>
    <linearGradient gradientTransform="matrix(-0.004, 0.0386, -0.0338, -0.0035, 87.15, 51.4)" gradientUnits="userSpaceOnUse" id="gradient19" spreadMethod="pad" x1="-819.2" x2="819.2">
      <stop offset="0.0" stop-color="#ffffff"/>
      <stop offset="0.9921568627450981" stop-color="#cdbebe"/>
    </linearGradient>
    <g id="shape4" transform="matrix(1.0, 0.0, 0.0, 1.0, -3878.45, -9.7)">
      <path d="M3904.7 104.15 L3904.7 137.65" fill="none" stroke="#000000" stroke-linecap="round" stroke-linejoin="round" stroke-opacity="0.3019608" stroke-width="1.0"/>
      <path d="M3893.2 65.5 Q3899.6 66.05 3902.35 71.1 3907.9 67.3 3913.2 67.3 L3913.55 67.3 Q3920.3 70.85 3919.8 78.3 3919.8 88.1 3908.5 95.15 3903.0 98.25 3897.8 98.3 3891.45 96.5 3886.25 92.1 3881.25 87.85 3879.65 83.1 3885.9 94.7 3901.75 96.4 3911.75 88.0 3914.9 81.05 3917.45 75.35 3914.9 72.05 3912.55 69.1 3908.05 69.8 3903.4 70.5 3900.75 74.75 3899.05 69.0 3893.2 65.5 M3905.5 98.55 L3908.65 105.05 Q3906.85 103.85 3905.5 104.45 L3904.25 105.6 Q3901.55 107.3 3899.25 105.65 L3901.65 99.15 3903.05 99.3 3901.55 104.95 3903.05 99.3 3904.45 98.95 3905.5 98.55 M3905.9 102.0 L3904.45 98.95 3905.9 102.0" fill="#870111" fill-rule="evenodd" stroke="none"/>
      <path d="M3913.55 67.3 Q3915.75 67.3 3918.0 68.0 3926.7 73.95 3923.25 84.75 3918.7 94.3 3905.5 98.55 L3904.45 98.95 3903.05 99.3 3901.65 99.15 3897.8 98.3 Q3903.0 98.25 3908.5 95.15 3919.8 88.1 3919.8 78.3 3920.3 70.85 3913.55 67.3" fill="url(#gradient20)" fill-rule="evenodd" stroke="none"/>
      <path d="M3879.65 83.1 Q3878.8 80.6 3878.9 77.9 3879.2 71.2 3881.95 68.15 3884.6 65.2 3893.2 65.5 3899.05 69.0 3900.75 74.75 3903.4 70.5 3908.05 69.8 3912.55 69.1 3914.9 72.05 3917.45 75.35 3914.9 81.05 3911.75 88.0 3901.75 96.4 3885.9 94.7 3879.65 83.1 M3891.75 68.9 Q3891.15 67.85 3889.7 67.7 3888.3 67.65 3886.85 68.45 3885.4 69.3 3884.8 70.6 3884.2 71.95 3884.8 73.0 3885.4 74.05 3886.85 74.1 3888.3 74.25 3889.75 73.4 3891.15 72.55 3891.75 71.2 3892.35 69.95 3891.75 68.9 M3884.95 79.7 Q3884.95 78.8 3884.5 78.2 3884.05 77.55 3883.4 77.55 3882.75 77.55 3882.3 78.2 3881.85 78.85 3881.85 79.75 3881.85 80.6 3882.3 81.25 L3883.4 81.9 Q3884.05 81.85 3884.45 81.25 3884.95 80.6 3884.95 79.7" fill="url(#gradient21)" fill-rule="evenodd" stroke="none"/>
      <path d="M3891.75 68.9 Q3892.35 69.95 3891.75 71.2 3891.15 72.55 3889.75 73.4 3888.3 74.25 3886.85 74.1 3885.4 74.05 3884.8 73.0 3884.2 71.95 3884.8 70.6 3885.4 69.3 3886.85 68.45 3888.3 67.65 3889.7 67.7 3891.15 67.85 3891.75 68.9 M3884.95 79.7 Q3884.95 80.6 3884.45 81.25 3884.05 81.85 3883.4 81.9 L3882.3 81.25 Q3881.85 80.6 3881.85 79.75 3881.85 78.85 3882.3 78.2 3882.75 77.55 3883.4 77.55 3884.05 77.55 3884.5 78.2 3884.95 78.8 3884.95 79.7" fill="#ff615b" fill-rule="evenodd" stroke="none"/>
      <path d="M3893.2 65.5 Q3899.6 66.05 3902.35 71.1 3907.9 67.3 3913.2 67.3 L3913.55 67.3 Q3915.75 67.3 3918.0 68.0 3926.7 73.95 3923.25 84.75 3918.7 94.3 3905.5 98.55 L3908.65 105.05 Q3906.85 103.85 3905.5 104.45 L3904.25 105.6 Q3901.55 107.3 3899.25 105.65 L3901.65 99.15 3897.8 98.3 Q3891.45 96.5 3886.25 92.1 3881.25 87.85 3879.65 83.1 3878.8 80.6 3878.9 77.9 3879.2 71.2 3881.95 68.15 3884.6 65.2 3893.2 65.5 M3905.5 98.55 L3904.45 98.95 3905.9 102.0 M3903.05 99.3 L3901.55 104.95 M3903.05 99.3 L3901.65 99.15 M3904.45 98.95 L3903.05 99.3" fill="none" stroke="#000000" stroke-linecap="round" stroke-linejoin="round" stroke-opacity="0.3019608" stroke-width="0.30000000000000004"/>
      <path d="M3932.95 68.95 L3932.95 120.1" fill="none" stroke="#000000" stroke-linecap="round" stroke-linejoin="round" stroke-opacity="0.3019608" stroke-width="1.0"/>
      <path d="M3934.15 60.35 L3938.95 70.25 Q3936.2 68.4 3934.15 69.35 3933.15 69.85 3932.3 71.05 3928.15 73.7 3924.65 71.15 L3928.3 61.2 3930.4 61.45 3932.55 60.9 3934.15 60.35 M3922.45 59.95 Q3912.75 57.2 3904.8 50.5 3897.15 44.0 3894.75 36.75 3904.25 54.45 3928.45 57.05 3943.75 44.2 3948.5 33.6 3952.45 24.9 3948.5 19.85 3944.95 15.35 3938.1 16.45 3930.95 17.5 3926.9 24.0 3924.3 15.2 3915.4 9.9 3925.15 10.75 3929.35 18.4 3937.8 12.65 3945.9 12.6 L3946.45 12.6 Q3956.75 18.05 3956.0 29.4 3956.0 44.4 3938.75 55.1 3930.35 59.85 3922.45 59.95 M3934.75 65.6 L3932.55 60.9 3934.75 65.6 M3928.15 70.05 L3930.4 61.45 3928.15 70.05" fill="#870111" fill-rule="evenodd" stroke="none"/>
      <path d="M3894.75 36.75 Q3893.45 32.9 3893.6 28.8 3894.05 18.6 3898.2 13.95 3902.25 9.4 3915.4 9.9 3924.3 15.2 3926.9 24.0 3930.95 17.5 3938.1 16.45 3944.95 15.35 3948.5 19.85 3952.45 24.9 3948.5 33.6 3943.75 44.2 3928.45 57.05 3904.25 54.45 3894.75 36.75 M3900.45 34.9 Q3901.45 34.85 3902.05 33.9 3902.8 32.9 3902.8 31.55 3902.8 30.2 3902.1 29.25 3901.45 28.3 3900.45 28.3 3899.45 28.3 3898.75 29.25 3898.1 30.25 3898.1 31.6 3898.1 32.95 3898.75 33.95 3899.5 34.9 3900.45 34.9 M3910.1 21.95 Q3912.3 20.65 3913.15 18.6 3914.1 16.65 3913.15 15.05 3912.25 13.45 3910.05 13.25 3907.9 13.15 3905.7 14.4 3903.5 15.7 3902.55 17.65 3901.65 19.75 3902.55 21.3 3903.5 22.9 3905.7 23.0 3907.9 23.25 3910.1 21.95" fill="url(#gradient22)" fill-rule="evenodd" stroke="none"/>
      <path d="M3946.45 12.6 Q3949.85 12.6 3953.25 13.7 3966.55 22.8 3961.3 39.25 3954.35 53.8 3934.15 60.35 L3932.55 60.9 3930.4 61.45 3928.3 61.2 3922.45 59.95 Q3930.35 59.85 3938.75 55.1 3956.0 44.4 3956.0 29.4 3956.75 18.05 3946.45 12.6" fill="url(#gradient23)" fill-rule="evenodd" stroke="none"/>
      <path d="M3910.1 21.95 Q3907.9 23.25 3905.7 23.0 3903.5 22.9 3902.55 21.3 3901.65 19.75 3902.55 17.65 3903.5 15.7 3905.7 14.4 3907.9 13.15 3910.05 13.25 3912.25 13.45 3913.15 15.05 3914.1 16.65 3913.15 18.6 3912.3 20.65 3910.1 21.95 M3900.45 34.9 Q3899.5 34.9 3898.75 33.95 3898.1 32.95 3898.1 31.6 3898.1 30.25 3898.75 29.25 3899.45 28.3 3900.45 28.3 3901.45 28.3 3902.1 29.25 3902.8 30.2 3902.8 31.55 3902.8 32.9 3902.05 33.9 3901.45 34.85 3900.45 34.9" fill="#ff615b" fill-rule="evenodd" stroke="none"/>
      <path d="M3946.45 12.6 Q3949.85 12.6 3953.25 13.7 3966.55 22.8 3961.3 39.25 3954.35 53.8 3934.15 60.35 L3938.95 70.25 Q3936.2 68.4 3934.15 69.35 3933.15 69.85 3932.3 71.05 3928.15 73.7 3924.65 71.15 L3928.3 61.2 3922.45 59.95 Q3912.75 57.2 3904.8 50.5 3897.15 44.0 3894.75 36.75 3893.45 32.9 3893.6 28.8 3894.05 18.6 3898.2 13.95 3902.25 9.4 3915.4 9.9 3925.15 10.75 3929.35 18.4 3937.8 12.65 3945.9 12.6 L3946.45 12.6 M3932.55 60.9 L3934.75 65.6 M3934.15 60.35 L3932.55 60.9 3930.4 61.45 3928.15 70.05 M3930.4 61.45 L3928.3 61.2" fill="none" stroke="#000000" stroke-linecap="round" stroke-linejoin="round" stroke-opacity="0.3019608" stroke-width="0.30000000000000004"/>
      <path d="M3896.0 116.2 Q3900.65 117.6 3904.65 121.75 3897.35 125.9 3899.15 132.55 L3897.8 132.6 3890.5 132.2 Q3889.05 132.55 3887.95 133.0 3898.65 123.55 3896.0 116.2" fill="#ff2c4e" fill-rule="evenodd" stroke="none"/>
      <path d="M3904.65 121.75 L3907.4 125.15 Q3910.1 132.2 3899.15 132.55 3897.35 125.9 3904.65 121.75 M3879.8 138.7 Q3874.5 124.2 3892.5 115.65 L3896.0 116.2 Q3898.65 123.55 3887.95 133.0 L3887.8 133.1 Q3881.9 135.75 3879.8 138.7" fill="#d01130" fill-rule="evenodd" stroke="none"/>
      <path d="M3907.4 125.15 L3910.45 129.9 3911.5 136.35 3907.55 139.0 3905.85 139.45 3905.2 139.65 3902.15 140.4 Q3894.4 141.9 3887.45 140.75 3887.05 135.05 3895.55 134.25 3902.7 136.5 3911.5 136.35 3903.2 133.55 3897.8 132.6 L3899.15 132.55 Q3910.1 132.2 3907.4 125.15" fill="#950018" fill-rule="evenodd" stroke="none"/>
      <path d="M3887.45 140.75 Q3883.55 140.15 3879.8 138.7 3881.9 135.75 3887.8 133.1 L3887.95 133.0 Q3889.05 132.55 3890.5 132.2 3892.95 133.45 3895.55 134.25 3887.05 135.05 3887.45 140.75" fill="#640010" fill-rule="evenodd" stroke="none"/>
      <path d="M3896.0 116.2 Q3900.65 117.6 3904.65 121.75 L3907.4 125.15 3910.45 129.9 3911.5 136.35 3907.55 139.0 3905.85 139.45 3905.2 139.65 3902.15 140.4 Q3894.4 141.9 3887.45 140.75 3883.55 140.15 3879.8 138.7 3874.5 124.2 3892.5 115.65 L3896.0 116.2 M3890.5 132.2 L3897.8 132.6 M3890.5 132.2 Q3892.95 133.45 3895.55 134.25 3902.7 136.5 3911.5 136.35 3903.2 133.55 3897.8 132.6" fill="none" stroke="#000000" stroke-linecap="round" stroke-linejoin="round" stroke-opacity="0.3019608" stroke-width="0.30000000000000004"/>
      <path d="M3920.15 148.45 L3916.4 148.45 3916.55 137.0 3944.55 129.3 Q3931.0 139.65 3923.4 136.45 L3920.05 141.05 Q3925.05 152.15 3942.35 152.9 L3934.65 156.25 3931.9 165.75 3920.15 148.45" fill="#000000" fill-opacity="0.23921569" fill-rule="evenodd" stroke="none"/>
      <path d="M3941.15 122.35 L3938.4 122.9 3933.7 124.5 Q3932.95 122.25 3931.85 120.4 3928.65 115.0 3922.0 112.55 3925.1 108.65 3929.7 105.75 3929.3 112.75 3935.95 118.55 3938.2 120.5 3941.15 122.35" fill="#ff2c4e" fill-rule="evenodd" stroke="none"/>
      <path d="M3938.4 122.9 L3941.15 122.35 Q3943.3 122.55 3944.65 124.2 3945.75 125.75 3946.3 128.4 3941.55 131.7 3935.55 133.55 3937.85 130.55 3938.7 128.55 3940.05 125.15 3937.05 124.45 L3938.4 122.9" fill="#640010" fill-rule="evenodd" stroke="none"/>
      <path d="M3941.15 122.35 Q3938.2 120.5 3935.95 118.55 3929.3 112.75 3929.7 105.75 L3931.8 104.55 Q3949.6 106.8 3949.6 117.6 3949.6 122.15 3946.3 128.4 3945.75 125.75 3944.65 124.2 3943.3 122.55 3941.15 122.35 M3922.0 112.55 Q3928.65 115.0 3931.85 120.4 3932.95 122.25 3933.7 124.5 3929.25 124.85 3926.05 124.6 3918.0 123.85 3918.55 118.65 3919.8 115.4 3922.0 112.55" fill="#d01130" fill-rule="evenodd" stroke="none"/>
      <path d="M3937.05 124.45 Q3940.05 125.15 3938.7 128.55 3937.85 130.55 3935.55 133.55 3927.3 135.95 3916.8 135.75 L3915.9 130.45 Q3916.3 123.8 3918.55 118.65 3918.0 123.85 3926.05 124.6 3929.25 124.85 3933.7 124.5 3924.35 127.65 3918.6 132.9 3932.65 128.3 3937.05 124.45" fill="#950018" fill-rule="evenodd" stroke="none"/>
      <path d="M3938.4 122.9 L3941.15 122.35 M3929.7 105.75 Q3925.1 108.65 3922.0 112.55 M3933.7 124.5 L3938.4 122.9 3937.05 124.45 M3935.55 133.55 Q3941.55 131.7 3946.3 128.4 M3929.7 105.75 L3931.8 104.55 Q3949.6 106.8 3949.6 117.6 3949.6 122.15 3946.3 128.4 M3935.55 133.55 Q3927.3 135.95 3916.8 135.75 L3915.9 130.45 Q3916.3 123.8 3918.55 118.65 3919.8 115.4 3922.0 112.55 M3933.7 124.5 Q3924.35 127.65 3918.6 132.9 3932.65 128.3 3937.05 124.45" fill="none" stroke="#000000" stroke-linecap="round" stroke-linejoin="round" stroke-opacity="0.3019608" stroke-width="0.30000000000000004"/>
      <path d="M3904.05 150.4 Q3906.45 145.45 3909.1 141.25 L3911.2 143.55 3911.0 153.05 3911.0 155.65 3910.25 153.75 Q3908.35 149.3 3904.05 150.4 M3920.75 153.95 L3918.65 149.55 Q3916.9 145.7 3915.75 141.25 L3918.2 140.6 Q3918.8 144.75 3925.0 147.55 3922.3 147.9 3921.35 150.2 3920.7 151.7 3920.75 153.95" fill="#950018" fill-rule="evenodd" stroke="none"/>
      <path d="M3911.0 155.65 Q3910.9 156.75 3911.05 157.75 L3907.8 157.4 Q3904.2 156.6 3902.6 153.7 L3904.05 150.4 Q3908.35 149.3 3910.25 153.75 L3911.0 155.65 M3911.35 164.75 Q3911.55 169.85 3912.15 175.25 L3912.15 175.65 3911.75 175.25 3911.55 175.25 3902.4 169.0 3896.15 172.5 Q3897.75 166.4 3899.7 160.9 3903.55 158.75 3906.6 160.3 3909.15 161.35 3911.35 164.75 M3925.0 147.55 Q3926.4 148.15 3928.15 148.75 3927.5 151.0 3926.15 152.75 3924.65 154.85 3922.15 156.25 L3920.75 153.95 Q3920.7 151.7 3921.35 150.2 3922.3 147.9 3925.0 147.55 M3933.15 150.05 L3942.25 151.5 3933.0 155.3 3929.9 165.1 Q3926.7 162.45 3924.1 159.05 3925.35 155.95 3927.35 153.85 3929.65 151.3 3933.15 150.05" fill="#d01130" fill-rule="evenodd" stroke="none"/>
      <path d="M3911.05 157.75 Q3911.05 161.2 3911.35 164.75 3909.15 161.35 3906.6 160.3 3903.55 158.75 3899.7 160.9 3901.0 157.15 3902.6 153.7 3904.2 156.6 3907.8 157.4 L3911.05 157.75 M3928.15 148.75 L3933.15 150.05 Q3929.65 151.3 3927.35 153.85 3925.35 155.95 3924.1 159.05 L3922.15 156.25 Q3924.65 154.85 3926.15 152.75 3927.5 151.0 3928.15 148.75" fill="#ff2c4e" fill-rule="evenodd" stroke="none"/>
      <path d="M3904.05 150.4 Q3906.45 145.45 3909.1 141.25 L3911.2 143.55 3911.0 153.05 3911.0 155.65 Q3910.9 156.75 3911.05 157.75 3911.05 161.2 3911.35 164.75 3911.55 169.85 3912.15 175.25 L3912.15 175.65 3911.75 175.25 M3911.55 175.25 L3902.4 169.0 3896.15 172.5 Q3897.75 166.4 3899.7 160.9 3901.0 157.15 3902.6 153.7 L3904.05 150.4 M3920.75 153.95 L3918.65 149.55 Q3916.9 145.7 3915.75 141.25 L3918.2 140.6 Q3918.8 144.75 3925.0 147.55 3926.4 148.15 3928.15 148.75 L3933.15 150.05 3942.25 151.5 3933.0 155.3 3929.9 165.1 Q3926.7 162.45 3924.1 159.05 L3922.15 156.25 3920.75 153.95" fill="none" stroke="#000000" stroke-linecap="round" stroke-linejoin="round" stroke-opacity="0.3019608" stroke-width="0.30000000000000004"/>
      <path d="M3905.7 139.3 L3905.8 137.45 3906.4 135.15 Q3909.9 136.35 3916.9 130.65 L3915.65 133.4 3914.65 135.0 Q3909.7 134.65 3905.7 139.3" fill="#ff2c4e" fill-rule="evenodd" stroke="none"/>
      <path d="M3905.8 137.45 L3905.7 139.3 Q3905.65 140.2 3905.75 140.95 3906.2 143.75 3908.6 144.8 3904.85 145.95 3904.85 142.4 3904.85 140.5 3905.8 137.45 M3914.65 135.0 L3915.65 133.4 3916.9 130.65 3917.45 129.6 3917.55 133.1 Q3914.9 137.85 3914.55 142.9 3913.75 142.4 3913.55 141.45 L3913.55 143.5 3909.7 144.15 Q3906.95 144.2 3905.75 140.95 L3909.4 140.65 Q3911.5 140.3 3914.65 135.0 M3913.55 141.45 Q3913.75 137.75 3915.65 133.4 3913.75 137.75 3913.55 141.45" fill="#950018" fill-rule="evenodd" stroke="none"/>
      <path d="M3905.7 139.3 Q3909.7 134.65 3914.65 135.0 3911.5 140.3 3909.4 140.65 L3905.75 140.95 Q3906.95 144.2 3909.7 144.15 L3913.55 143.5 3913.55 144.35 3909.3 145.0 3908.6 144.8 Q3906.2 143.75 3905.75 140.95 3905.65 140.2 3905.7 139.3 M3916.9 130.65 Q3909.9 136.35 3906.4 135.15 3910.05 131.8 3913.45 130.45 3915.5 129.7 3917.45 129.6 L3916.9 130.65 M3917.55 133.1 L3917.75 143.65 Q3915.6 143.8 3914.55 142.9 3914.9 137.85 3917.55 133.1" fill="#d01130" fill-rule="evenodd" stroke="none"/>
      <path d="M3905.8 137.45 L3905.7 139.3 M3915.65 133.4 L3916.9 130.65 M3906.4 135.15 L3905.8 137.45 Q3904.85 140.5 3904.85 142.4 3904.85 145.95 3908.6 144.8 3906.2 143.75 3905.75 140.95 3905.65 140.2 3905.7 139.3 M3917.45 129.6 L3917.55 133.1 3917.75 143.65 Q3915.6 143.8 3914.55 142.9 3913.75 142.4 3913.55 141.45 L3913.55 143.5 3913.55 144.35 3909.3 145.0 3908.6 144.8 M3906.4 135.15 Q3910.05 131.8 3913.45 130.45 3915.5 129.7 3917.45 129.6 L3916.9 130.65 M3915.65 133.4 Q3913.75 137.75 3913.55 141.45" fill="none" stroke="#000000" stroke-linecap="round" stroke-linejoin="round" stroke-opacity="0.3019608" stroke-width="0.30000000000000004"/>
    </g>
    <linearGradient gradientTransform="matrix(0.0061, 0.0034, -0.0097, 0.017, 3922.7, 82.0)" gradientUnits="userSpaceOnUse" id="gradient20" spreadMethod="pad" x1="-819.2" x2="819.2">
      <stop offset="0.0" stop-color="#870111"/>
      <stop offset="1.0" stop-color="#b4829b"/>
    </linearGradient>
    <radialGradient cx="0" cy="0" gradientTransform="matrix(0.0275, -4.0E-4, 0.0, 0.0275, 3891.45, 72.65)" gradientUnits="userSpaceOnUse" id="gradient21" r="819.2" spreadMethod="pad">
      <stop offset="0.0" stop-color="#ff4238"/>
      <stop offset="1.0" stop-color="#bd1327"/>
    </radialGradient>
    <radialGradient cx="0" cy="0" gradientTransform="matrix(0.042, -6.0E-4, 0.0, 0.042, 3912.75, 20.75)" gradientUnits="userSpaceOnUse" id="gradient22" r="819.2" spreadMethod="pad">
      <stop offset="0.0" stop-color="#ff4238"/>
      <stop offset="1.0" stop-color="#bd1327"/>
    </radialGradient>
    <linearGradient gradientTransform="matrix(0.0093, 0.0052, -0.0149, 0.0259, 3960.45, 35.05)" gradientUnits="userSpaceOnUse" id="gradient23" spreadMethod="pad" x1="-819.2" x2="819.2">
      <stop offset="0.0" stop-color="#870111"/>
      <stop offset="1.0" stop-color="#b4829b"/>
    </linearGradient>
  </defs>
</svg>
