<?xml version="1.0" encoding="UTF-8" standalone="no"?>
<svg xmlns:ffdec="https://www.free-decompiler.com/flash" xmlns:xlink="http://www.w3.org/1999/xlink" ffdec:objectType="frame" height="25.9px" width="58.65px" xmlns="http://www.w3.org/2000/svg">
  <g transform="matrix(1.0, 0.0, 0.0, 1.0, 29.5, 25.65)">
    <use ffdec:characterId="967" height="25.9" transform="matrix(1.0, 0.0, 0.0, 1.0, -29.5, -25.65)" width="58.65" xlink:href="#decoration0-shape0"/>
  </g>
  <defs>
    <g id="decoration0-shape0" transform="matrix(1.0, 0.0, 0.0, 1.0, 29.5, 25.65)">
      <path d="M19.0 -15.1 Q22.3 -14.35 22.55 -10.9 25.15 -10.95 25.4 -7.9 29.2 -7.25 28.95 -0.05 L26.8 -0.05 Q26.15 -3.1 23.6 -5.25 L21.2 -6.75 Q22.3 -9.6 18.9 -11.6 L17.85 -11.75 17.25 -11.7 18.2 -13.3 19.0 -15.1 M18.9 -11.6 L20.95 -10.8 Q22.1 -9.85 22.55 -7.15 24.5 -7.35 26.45 -4.7 L27.95 -1.95 28.15 -3.25 Q28.15 -5.1 26.65 -6.3 25.55 -7.3 24.6 -7.3 24.8 -8.25 24.1 -9.15 23.45 -10.2 22.55 -9.8 L21.4 -11.95 Q20.45 -13.25 19.9 -13.4 L19.45 -12.5 18.9 -11.6 M-10.35 -20.55 Q-13.6 -17.8 -13.45 -14.45 -14.55 -15.15 -15.65 -14.25 L-19.9 -14.05 -20.6 -14.45 -21.6 -14.65 Q-23.7 -13.45 -23.95 -10.75 -24.1 -9.05 -23.6 -7.55 L-23.85 -5.85 -24.05 -4.2 Q-26.05 -2.05 -26.05 -1.15 L-26.1 0.05 -28.8 0.05 Q-30.75 -6.0 -25.3 -7.35 -28.1 -10.95 -25.55 -15.7 -22.95 -19.9 -18.05 -15.7 -17.85 -18.15 -15.0 -17.6 -13.2 -20.95 -10.35 -20.55 M-25.45 -13.85 L-26.15 -11.05 -25.35 -10.2 Q-23.65 -14.25 -21.4 -15.1 -20.3 -15.5 -19.15 -15.1 L-20.05 -16.0 Q-21.15 -16.85 -21.9 -16.75 -24.35 -16.45 -25.45 -13.85 M-27.65 -5.0 Q-28.3 -4.15 -28.3 -2.75 -28.3 -1.0 -27.4 -1.0 -25.75 -4.85 -24.85 -5.35 -25.4 -5.75 -26.1 -5.75 -27.0 -5.75 -27.65 -5.0" fill="#55690b" fill-rule="evenodd" stroke="none"/>
      <path d="M18.9 -11.6 L19.45 -12.5 19.9 -13.4 Q20.45 -13.25 21.4 -11.95 L22.55 -9.8 Q23.45 -10.2 24.1 -9.15 24.8 -8.25 24.6 -7.3 25.55 -7.3 26.65 -6.3 28.15 -5.1 28.15 -3.25 L27.95 -1.95 26.45 -4.7 Q24.5 -7.35 22.55 -7.15 22.1 -9.85 20.95 -10.8 L18.9 -11.6 M-27.65 -5.0 Q-27.0 -5.75 -26.1 -5.75 -25.4 -5.75 -24.85 -5.35 -25.75 -4.85 -27.4 -1.0 -28.3 -1.0 -28.3 -2.75 -28.3 -4.15 -27.65 -5.0 M-25.45 -13.85 Q-24.35 -16.45 -21.9 -16.75 -21.15 -16.85 -20.05 -16.0 L-19.15 -15.1 Q-20.3 -15.5 -21.4 -15.1 -23.65 -14.25 -25.35 -10.2 L-26.15 -11.05 -25.45 -13.85" fill="#688308" fill-rule="evenodd" stroke="none"/>
      <path d="M18.05 -15.25 L19.0 -15.1 18.2 -13.3 17.25 -11.7 17.85 -11.75 18.9 -11.6 Q22.3 -9.6 21.2 -6.75 L23.6 -5.25 Q26.15 -3.1 26.8 -0.05 L23.3 -0.05 23.7 -1.7 Q23.9 -2.55 23.65 -3.0 22.75 -4.75 20.75 -4.8 19.15 -4.8 18.0 -4.0 L19.2 -5.9 Q20.0 -7.7 19.4 -8.65 18.45 -10.0 16.95 -10.25 L15.1 -10.0 18.05 -15.25 M9.75 -21.0 Q7.25 -19.5 6.9 -18.15 L6.5 -18.8 Q6.35 -18.95 5.85 -18.5 L5.4 -17.95 4.55 -21.5 Q7.35 -23.8 9.75 -21.0 M-23.6 -7.55 Q-24.1 -9.05 -23.95 -10.75 -23.7 -13.45 -21.6 -14.65 L-20.6 -14.45 -19.9 -14.05 -15.65 -14.25 Q-14.55 -15.15 -13.45 -14.45 -13.6 -17.8 -10.35 -20.55 L-9.35 -20.3 Q-10.85 -17.75 -10.45 -14.9 L-9.7 -12.35 Q-11.0 -14.05 -11.95 -13.75 -13.4 -13.3 -13.95 -11.95 L-14.25 -10.65 -15.15 -12.2 Q-16.5 -13.65 -18.6 -13.45 -21.35 -13.15 -23.6 -7.55 M-26.1 0.05 L-26.05 -1.15 Q-26.05 -2.05 -24.05 -4.2 L-23.15 0.05 -26.1 0.05" fill="#455604" fill-rule="evenodd" stroke="none"/>
      <path d="M18.05 -15.25 L19.0 -15.1 Q22.3 -14.35 22.55 -10.9 25.15 -10.95 25.4 -7.9 29.2 -7.25 28.95 -0.05 L26.8 -0.05 23.3 -0.05 M4.55 -21.5 Q7.35 -23.8 9.75 -21.0 M-9.35 -20.3 L-10.35 -20.55 Q-13.2 -20.95 -15.0 -17.6 -17.85 -18.15 -18.05 -15.7 -22.95 -19.9 -25.55 -15.7 -28.1 -10.95 -25.3 -7.35 -30.75 -6.0 -28.8 0.05 L-26.1 0.05 -23.15 0.05" fill="none" stroke="#000000" stroke-linecap="round" stroke-linejoin="round" stroke-opacity="0.3882353" stroke-width="0.4"/>
      <path d="M-14.25 -10.65 L-13.95 -11.95 Q-13.4 -13.3 -11.95 -13.75 -11.0 -14.05 -9.7 -12.35 L-10.45 -14.9 Q-10.85 -17.75 -9.35 -20.3 -8.0 -22.45 -5.65 -23.95 -3.45 -25.35 -1.4 -25.45 1.6 -25.55 3.25 -23.75 L4.55 -21.5 5.4 -17.95 5.85 -18.5 Q6.35 -18.95 6.5 -18.8 L6.9 -18.15 Q7.25 -19.5 9.75 -21.0 13.7 -23.95 17.35 -21.55 18.1 -21.0 18.5 -19.7 19.1 -17.7 18.05 -15.25 L15.1 -10.0 16.95 -10.25 Q18.45 -10.0 19.4 -8.65 20.0 -7.7 19.2 -5.9 L18.0 -4.0 Q19.15 -4.8 20.75 -4.8 22.75 -4.75 23.65 -3.0 23.9 -2.55 23.7 -1.7 L23.3 -0.05 22.45 -0.05 Q22.2 -2.45 19.5 -2.85 L16.8 -2.75 Q17.45 -4.2 17.45 -5.2 17.45 -7.75 15.1 -9.3 12.75 -10.3 12.75 -10.5 L13.25 -11.6 Q13.7 -12.8 13.7 -14.3 13.7 -18.0 11.1 -18.0 9.0 -18.0 5.65 -16.2 3.95 -18.6 1.55 -20.25 -3.2 -23.55 -6.6 -20.4 -8.7 -18.45 -8.6 -15.25 -8.6 -14.1 -8.0 -12.0 L-9.45 -11.95 Q-10.7 -11.55 -11.3 -10.3 L-14.25 -10.65 -15.6 -10.2 Q-17.0 -9.35 -17.2 -7.4 -20.85 -7.45 -20.85 -5.05 L-20.3 -3.65 -19.75 -2.55 -20.9 0.05 -23.15 0.05 -24.05 -4.2 -23.85 -5.85 -23.6 -7.55 Q-21.35 -13.15 -18.6 -13.45 -16.5 -13.65 -15.15 -12.2 L-14.25 -10.65 M0.45 -22.1 L3.55 -20.45 Q2.9 -24.55 -0.7 -24.55 L-2.85 -24.25 Q-4.2 -24.0 -5.65 -22.35 L-2.8 -22.75 Q-1.1 -22.75 0.45 -22.1 M12.4 -20.35 L11.0 -19.25 13.25 -18.6 Q15.5 -17.25 15.45 -13.75 L16.55 -15.5 Q17.6 -17.45 17.6 -18.55 17.6 -19.75 16.65 -20.5 15.7 -21.2 14.15 -21.2 L12.4 -20.35 M-20.65 -8.15 Q-20.2 -8.85 -19.2 -8.8 L-18.05 -8.6 -17.3 -9.8 -16.0 -10.75 Q-17.65 -12.05 -18.6 -11.95 -19.75 -11.8 -20.3 -9.95 L-20.65 -8.15" fill="#799414" fill-rule="evenodd" stroke="none"/>
      <path d="M12.4 -20.35 L14.15 -21.2 Q15.7 -21.2 16.65 -20.5 17.6 -19.75 17.6 -18.55 17.6 -17.45 16.55 -15.5 L15.45 -13.75 Q15.5 -17.25 13.25 -18.6 L11.0 -19.25 12.4 -20.35 M0.45 -22.1 Q-1.1 -22.75 -2.8 -22.75 L-5.65 -22.35 Q-4.2 -24.0 -2.85 -24.25 L-0.7 -24.55 Q2.9 -24.55 3.55 -20.45 L0.45 -22.1 M-20.65 -8.15 L-20.3 -9.95 Q-19.75 -11.8 -18.6 -11.95 -17.65 -12.05 -16.0 -10.75 L-17.3 -9.8 -18.05 -8.6 -19.2 -8.8 Q-20.2 -8.85 -20.65 -8.15" fill="#87a80a" fill-rule="evenodd" stroke="none"/>
      <path d="M-14.25 -10.65 L-11.3 -10.3 Q-10.7 -11.55 -9.45 -11.95 L-8.0 -12.0 Q-8.6 -14.1 -8.6 -15.25 -8.7 -18.45 -6.6 -20.4 -3.2 -23.55 1.55 -20.25 3.95 -18.6 5.65 -16.2 9.0 -18.0 11.1 -18.0 13.7 -18.0 13.7 -14.3 13.7 -12.8 13.25 -11.6 L12.75 -10.5 Q12.75 -10.3 15.1 -9.3 17.45 -7.75 17.45 -5.2 17.45 -4.2 16.8 -2.75 L19.5 -2.85 Q22.2 -2.45 22.45 -0.05 L21.7 -0.05 Q21.5 -1.15 18.85 -2.0 L16.25 -2.6 Q17.4 -8.45 11.85 -10.0 12.75 -11.95 12.3 -14.65 11.75 -17.5 10.05 -17.5 8.7 -17.5 7.35 -16.5 L5.0 -15.0 Q3.55 -18.55 0.7 -20.15 -1.5 -21.4 -3.0 -21.0 -7.05 -19.95 -7.35 -15.4 L-6.85 -11.05 Q-9.9 -11.7 -10.45 -9.45 L-13.9 -9.95 Q-15.4 -9.45 -15.95 -8.35 -16.4 -7.45 -16.05 -6.65 -18.7 -6.95 -19.45 -6.6 -20.25 -6.15 -20.3 -5.05 -20.4 -3.75 -18.95 -2.8 L-19.35 0.05 -20.9 0.05 -19.75 -2.55 -20.3 -3.65 -20.85 -5.05 Q-20.85 -7.45 -17.2 -7.4 -17.0 -9.35 -15.6 -10.2 L-14.25 -10.65 M16.15 -0.05 L-11.45 -0.05 Q-13.35 -0.45 -13.95 -1.2 -14.25 -1.45 -14.25 -2.35 -14.25 -3.2 -13.95 -3.2 L-13.05 -2.85 -12.55 -2.4 Q-12.5 -3.25 -11.2 -3.35 -10.1 -3.4 -9.55 -2.9 -9.3 -6.65 -7.6 -8.9 -5.85 -11.15 -3.3 -10.7 -1.65 -10.4 0.3 -5.2 -0.05 -9.25 5.45 -9.1 7.25 -9.05 7.8 -7.1 8.3 -5.35 7.75 -4.8 L10.1 -6.25 Q12.7 -7.1 14.5 -4.45 14.8 -4.0 14.3 -2.65 L13.6 -1.3 16.15 -0.05 M4.85 -8.35 Q3.5 -8.45 2.15 -7.3 L1.1 -6.1 Q2.1 -5.9 3.95 -4.1 5.7 -2.4 5.95 -1.6 L9.55 -2.15 11.8 -2.4 Q11.7 -5.1 9.0 -4.6 L6.35 -3.6 Q6.85 -4.75 6.8 -6.15 6.65 -8.2 4.85 -8.35 M-4.5 -1.4 Q-3.5 -3.75 0.25 -3.3 -1.0 -7.2 -3.3 -6.9 -6.25 -6.55 -7.05 -4.65 -7.6 -3.45 -7.25 -2.6 -8.65 -2.75 -9.6 -1.35 L-4.5 -1.4" fill="#5f7707" fill-rule="evenodd" stroke="none"/>
      <path d="M21.7 -0.05 L16.15 -0.05 13.6 -1.3 14.3 -2.65 Q14.8 -4.0 14.5 -4.45 12.7 -7.1 10.1 -6.25 L7.75 -4.8 Q8.3 -5.35 7.8 -7.1 7.25 -9.05 5.45 -9.1 -0.05 -9.25 0.3 -5.2 -1.65 -10.4 -3.3 -10.7 -5.85 -11.15 -7.6 -8.9 -9.3 -6.65 -9.55 -2.9 -10.1 -3.4 -11.2 -3.35 -12.5 -3.25 -12.55 -2.4 L-13.05 -2.85 -13.95 -3.2 Q-14.25 -3.2 -14.25 -2.35 -14.25 -1.45 -13.95 -1.2 -13.35 -0.45 -11.45 -0.05 L-19.35 0.05 -18.95 -2.8 Q-20.4 -3.75 -20.3 -5.05 -20.25 -6.15 -19.45 -6.6 -18.7 -6.95 -16.05 -6.65 -16.4 -7.45 -15.95 -8.35 -15.4 -9.45 -13.9 -9.95 L-10.45 -9.45 Q-9.9 -11.7 -6.85 -11.05 L-7.35 -15.4 Q-7.05 -19.95 -3.0 -21.0 -1.5 -21.4 0.7 -20.15 3.55 -18.55 5.0 -15.0 L7.35 -16.5 Q8.7 -17.5 10.05 -17.5 11.75 -17.5 12.3 -14.65 12.75 -11.95 11.85 -10.0 17.4 -8.45 16.25 -2.6 L18.85 -2.0 Q21.5 -1.15 21.7 -0.05 M8.1 -15.4 L5.35 -13.65 10.1 -9.35 11.25 -11.05 Q11.6 -11.75 11.45 -12.85 11.0 -16.45 8.1 -15.4 M3.8 -14.3 L2.35 -17.75 Q0.35 -21.05 -2.55 -20.35 -7.2 -19.25 -6.05 -12.65 -0.55 -17.6 3.8 -14.3 M9.2 -6.4 L12.05 -6.85 10.95 -8.35 9.5 -8.7 8.1 -8.45 9.2 -6.4 M2.35 -9.45 L4.8 -10.1 Q4.05 -12.55 2.95 -13.1 L-1.1 -13.3 Q-2.7 -12.7 -3.3 -11.6 -1.2 -11.55 0.0 -8.15 0.25 -8.7 2.35 -9.45 M-13.75 -9.0 Q-14.9 -8.35 -14.95 -6.65 L-14.8 -5.1 -16.65 -5.6 Q-17.85 -5.7 -18.45 -4.15 -18.75 -3.4 -16.35 -0.85 -16.65 -3.0 -14.45 -3.85 L-10.7 -4.15 Q-11.6 -7.1 -9.3 -8.25 L-11.15 -9.0 Q-12.8 -9.5 -13.75 -9.0" fill="#92b415" fill-rule="evenodd" stroke="none"/>
      <path d="M3.8 -14.3 Q-0.55 -17.6 -6.05 -12.65 -7.2 -19.25 -2.55 -20.35 0.35 -21.05 2.35 -17.75 L3.8 -14.3 M8.1 -15.4 Q11.0 -16.45 11.45 -12.85 11.6 -11.75 11.25 -11.05 L10.1 -9.35 5.35 -13.65 8.1 -15.4 M-13.75 -9.0 Q-12.8 -9.5 -11.15 -9.0 L-9.3 -8.25 Q-11.6 -7.1 -10.7 -4.15 L-14.45 -3.85 Q-16.65 -3.0 -16.35 -0.85 -18.75 -3.4 -18.45 -4.15 -17.85 -5.7 -16.65 -5.6 L-14.8 -5.1 -14.95 -6.65 Q-14.9 -8.35 -13.75 -9.0" fill="#a6d00d" fill-rule="evenodd" stroke="none"/>
      <path d="M9.2 -6.4 L8.1 -8.45 9.5 -8.7 10.95 -8.35 12.05 -6.85 9.2 -6.4 M4.85 -8.35 Q6.65 -8.2 6.8 -6.15 6.85 -4.75 6.35 -3.6 L9.0 -4.6 Q11.7 -5.1 11.8 -2.4 L9.55 -2.15 5.95 -1.6 Q5.7 -2.4 3.95 -4.1 2.1 -5.9 1.1 -6.1 L2.15 -7.3 Q3.5 -8.45 4.85 -8.35 M2.35 -9.45 Q0.25 -8.7 0.0 -8.15 -1.2 -11.55 -3.3 -11.6 -2.7 -12.7 -1.1 -13.3 L2.95 -13.1 Q4.05 -12.55 4.8 -10.1 L2.35 -9.45 M-4.5 -1.4 L-9.6 -1.35 Q-8.65 -2.75 -7.25 -2.6 -7.6 -3.45 -7.05 -4.65 -6.25 -6.55 -3.3 -6.9 -1.0 -7.2 0.25 -3.3 -3.5 -3.75 -4.5 -1.4" fill="#7e9c0e" fill-rule="evenodd" stroke="none"/>
      <path d="M22.45 -0.05 L23.3 -0.05 23.7 -1.7 Q23.9 -2.55 23.65 -3.0 22.75 -4.75 20.75 -4.8 19.15 -4.8 18.0 -4.0 L19.2 -5.9 Q20.0 -7.7 19.4 -8.65 18.45 -10.0 16.95 -10.25 L15.1 -10.0 18.05 -15.25 Q19.1 -17.7 18.5 -19.7 18.1 -21.0 17.35 -21.55 13.7 -23.95 9.75 -21.0 7.25 -19.5 6.9 -18.15 L6.5 -18.8 Q6.35 -18.95 5.85 -18.5 L5.4 -17.95 4.55 -21.5 3.25 -23.75 Q1.6 -25.55 -1.4 -25.45 -3.45 -25.35 -5.65 -23.95 -8.0 -22.45 -9.35 -20.3 -10.85 -17.75 -10.45 -14.9 L-9.7 -12.35 Q-11.0 -14.05 -11.95 -13.75 -13.4 -13.3 -13.95 -11.95 L-14.25 -10.65 -15.15 -12.2 Q-16.5 -13.65 -18.6 -13.45 -21.35 -13.15 -23.6 -7.55 L-23.85 -5.85 -25.3 -7.35 M22.45 -0.05 L21.7 -0.05 16.15 -0.05 -11.45 -0.05 -19.35 0.05 -20.9 0.05 -23.15 0.05 -24.05 -4.2 -23.85 -5.85" fill="none" stroke="#000000" stroke-linecap="round" stroke-linejoin="round" stroke-opacity="0.3882353" stroke-width="0.4"/>
    </g>
  </defs>
</svg>
