<?xml version="1.0" encoding="UTF-8" standalone="no"?>
<svg xmlns:xlink="http://www.w3.org/1999/xlink" height="36.2px" width="25.55px" xmlns="http://www.w3.org/2000/svg">
  <g transform="matrix(1.0, 0.0, 0.0, 1.0, 12.1, 36.05)">
    <use height="36.2" transform="matrix(1.0, 0.0, 0.0, 1.0, -12.1, -36.05)" width="25.55" xlink:href="#decoration100-shape0"/>
    <use height="9.6" id="decoration100-Couleur0_018585" filter="url(#decoration100-filter0)" transform="matrix(1.0, 0.0, 0.0, 1.0, -10.5, -11.15)" width="22.4" xlink:href="#decoration100-sprite0"/>
    <use height="116.85" transform="matrix(0.0245, -0.0425, 0.0711, 0.025, -2.3398, -13.9117)" width="220.6" xlink:href="#decoration100-sprite1"/>
  </g>
  <defs>
    <g id="decoration100-shape0" transform="matrix(1.0, 0.0, 0.0, 1.0, 12.1, 36.05)">
      <path d="M7.6 -22.45 L1.0 -23.0 Q-2.6 -22.6 -7.4 -19.1 -9.55 -17.5 -11.6 -12.3 -11.45 -16.7 -8.0 -20.95 -4.6 -25.05 1.35 -24.45 5.3 -24.0 7.6 -22.45" fill="#defffe" fill-opacity="0.7019608" fill-rule="evenodd" stroke="none"/>
      <path d="M7.6 -22.45 L9.8 -20.5 Q10.35 -19.6 10.6 -17.2 10.95 -14.2 10.35 -11.55 8.55 -3.8 -0.3 -3.3 -4.75 -3.05 -8.4 -6.95 -11.15 -9.95 -11.6 -12.3 -9.55 -17.5 -7.4 -19.1 -2.6 -22.6 1.0 -23.0 L7.6 -22.45" fill="#c7e3e2" fill-opacity="0.3019608" fill-rule="evenodd" stroke="none"/>
      <path d="M-11.6 -12.3 Q-11.15 -9.95 -8.4 -6.95 -4.75 -3.05 -0.3 -3.3 8.55 -3.8 10.35 -11.55 10.95 -14.2 10.6 -17.2 10.35 -19.6 9.8 -20.5 12.95 -17.05 12.95 -12.3 12.95 -9.6 12.0 -6.8 10.95 -3.85 9.25 -2.15 7.45 -0.35 0.55 -0.35 -6.35 -0.35 -8.1 -2.15 -9.8 -3.8 -10.75 -6.8 -11.6 -9.45 -11.6 -12.3" fill="#7eaaa8" fill-opacity="0.65882355" fill-rule="evenodd" stroke="none"/>
      <path d="M9.8 -20.5 L7.6 -22.45 M9.8 -20.5 Q12.95 -17.05 12.95 -12.3 12.95 -9.6 12.0 -6.8 10.95 -3.85 9.25 -2.15 7.45 -0.35 0.55 -0.35 -6.35 -0.35 -8.1 -2.15 -9.8 -3.8 -10.75 -6.8 -11.6 -9.45 -11.6 -12.3 -11.45 -16.7 -8.0 -20.95 -4.6 -25.05 1.35 -24.45 5.3 -24.0 7.6 -22.45" fill="none" stroke="#3b5424" stroke-linecap="round" stroke-linejoin="round" stroke-opacity="0.3019608" stroke-width="1.0"/>
      <path d="M-2.7 -22.45 Q-1.55 -22.45 -1.0 -21.5 -0.35 -20.7 -0.7 -19.3 -1.1 -18.1 -2.1 -17.25 -3.1 -16.4 -4.2 -16.35 -5.4 -16.5 -6.0 -17.3 -6.55 -18.2 -6.2 -19.4 -5.9 -20.75 -4.95 -21.55 -3.9 -22.45 -2.7 -22.45 M-8.4 -12.9 Q-8.95 -13.05 -9.25 -13.55 -9.6 -14.0 -9.45 -14.65 L-8.8 -15.55 -7.65 -15.7 Q-7.0 -15.55 -6.8 -15.0 -6.45 -14.5 -6.7 -13.85 -6.85 -13.3 -7.35 -12.95 L-8.4 -12.9" fill="#ffffff" fill-opacity="0.32156864" fill-rule="evenodd" stroke="none"/>
      <path d="M-3.25 -35.85 L0.0 -36.05 4.0 -35.75 2.0 -35.5 -2.35 -35.6 -3.25 -35.85" fill="#f0c384" fill-rule="evenodd" stroke="none"/>
      <path d="M4.0 -35.75 L3.05 -30.85 Q2.55 -29.55 1.45 -29.5 2.55 -34.3 2.0 -35.5 L4.0 -35.75" fill="#4d381b" fill-rule="evenodd" stroke="none"/>
      <path d="M1.45 -29.5 L-0.5 -29.65 -2.35 -35.6 2.0 -35.5 Q2.55 -34.3 1.45 -29.5" fill="#966f36" fill-rule="evenodd" stroke="none"/>
      <path d="M-0.5 -29.65 L-1.4 -30.45 -3.25 -35.85 -2.35 -35.6 -0.5 -29.65" fill="#cc9449" fill-rule="evenodd" stroke="none"/>
      <path d="M4.0 -35.75 L3.05 -30.85 Q2.55 -29.55 1.45 -29.5 L-0.5 -29.65 -1.4 -30.45 -3.25 -35.85 0.0 -36.05 4.0 -35.75 Z" fill="none" stroke="#000000" stroke-linecap="round" stroke-linejoin="round" stroke-opacity="0.3019608" stroke-width="0.05"/>
      <path d="M3.4 -34.55 L5.3 -34.4 Q6.3 -33.6 5.05 -32.85 L3.55 -31.95 3.55 -22.75 Q2.75 -22.15 1.85 -21.85 L1.85 -31.8 Q3.7 -33.0 3.4 -34.55 M3.55 -31.95 L1.85 -31.8 3.55 -31.95" fill="#7eaaa8" fill-opacity="0.65882355" fill-rule="evenodd" stroke="none"/>
      <path d="M1.85 -21.85 L-1.05 -21.95 -1.05 -31.8 Q-3.1 -33.15 -2.6 -34.55 0.4 -34.75 3.4 -34.55 3.7 -33.0 1.85 -31.8 L1.85 -21.85 M1.85 -31.8 L-1.05 -31.8 1.85 -31.8" fill="#c7e3e2" fill-opacity="0.3019608" fill-rule="evenodd" stroke="none"/>
      <path d="M-1.05 -21.95 L-2.65 -22.75 -2.65 -31.95 -4.1 -32.85 Q-5.25 -33.6 -4.35 -34.4 L-2.6 -34.55 Q-3.1 -33.15 -1.05 -31.8 L-1.05 -21.95 M-1.05 -31.8 L-2.65 -31.95 -1.05 -31.8" fill="#defffe" fill-opacity="0.7019608" fill-rule="evenodd" stroke="none"/>
      <path d="M3.55 -22.75 Q2.75 -22.15 1.85 -21.85 L-1.05 -21.95 -2.65 -22.75 M1.85 -31.8 L3.55 -31.95 M-2.65 -31.95 L-1.05 -31.8 1.85 -31.8" fill="none" stroke="#3b5424" stroke-linecap="round" stroke-linejoin="round" stroke-opacity="0.2" stroke-width="0.5"/>
      <path d="M3.4 -34.55 L5.3 -34.4 Q6.3 -33.6 5.05 -32.85 L3.55 -31.95 3.55 -22.75 M-2.65 -22.75 L-2.65 -31.95 -4.1 -32.85 Q-5.25 -33.6 -4.35 -34.4 L-2.6 -34.55 Q0.4 -34.75 3.4 -34.55" fill="none" stroke="#3b5424" stroke-linecap="round" stroke-linejoin="round" stroke-opacity="0.3019608" stroke-width="0.8"/>
    </g>
    <g id="decoration100-sprite0" transform="matrix(1.0, 0.0, 0.0, 1.0, 0.15, 0.15)">
      <use height="9.6" transform="matrix(1.0, 0.0, 0.0, 1.0, -0.15, -0.15)" width="22.4" xlink:href="#decoration100-shape1"/>
    </g>
    <g id="decoration100-shape1" transform="matrix(1.0, 0.0, 0.0, 1.0, 0.15, 0.15)">
      <path d="M0.0 0.65 L3.2 0.15 Q6.45 0.0 11.05 0.0 15.65 0.0 18.9 0.15 L22.1 0.7 22.0 0.8 18.9 1.1 11.05 1.35 3.2 1.1 0.0 0.65 M10.9 3.7 L11.15 4.15 10.9 4.65 10.35 4.9 9.75 4.65 Q9.6 4.5 9.6 4.15 9.6 3.95 9.75 3.7 L10.35 3.45 Q10.75 3.45 10.9 3.7 M12.95 3.55 L13.05 3.2 Q13.2 3.05 13.4 3.05 L13.8 3.2 14.05 3.55 13.8 3.85 13.4 4.0 13.05 3.85 12.95 3.55 M14.1 6.0 Q14.45 6.35 14.45 6.75 14.45 7.2 14.1 7.45 L13.35 7.8 Q12.9 7.8 12.5 7.45 12.2 7.2 12.2 6.75 12.2 6.35 12.5 6.0 12.9 5.7 13.35 5.7 13.75 5.7 14.1 6.0" fill="#989898" fill-rule="evenodd" stroke="none"/>
      <path d="M22.0 0.8 Q21.8 4.15 18.8 6.65 15.55 9.3 10.95 9.3 6.45 9.3 3.2 6.65 0.15 4.1 0.0 0.65 L3.2 1.1 11.05 1.35 18.9 1.1 22.0 0.8 M14.1 6.0 Q13.75 5.7 13.35 5.7 12.9 5.7 12.5 6.0 12.2 6.35 12.2 6.75 12.2 7.2 12.5 7.45 12.9 7.8 13.35 7.8 L14.1 7.45 Q14.45 7.2 14.45 6.75 14.45 6.35 14.1 6.0 M12.95 3.55 L13.05 3.85 13.4 4.0 13.8 3.85 14.05 3.55 13.8 3.2 13.4 3.05 Q13.2 3.05 13.05 3.2 L12.95 3.55 M10.9 3.7 Q10.75 3.45 10.35 3.45 L9.75 3.7 Q9.6 3.95 9.6 4.15 9.6 4.5 9.75 4.65 L10.35 4.9 10.9 4.65 11.15 4.15 10.9 3.7" fill="url(#decoration100-gradient0)" fill-rule="evenodd" stroke="none"/>
      <path d="M0.0 0.65 L3.2 0.15 Q6.45 0.0 11.05 0.0 15.65 0.0 18.9 0.15 L22.1 0.7 22.0 0.8 Q21.8 4.15 18.8 6.65 15.55 9.3 10.95 9.3 6.45 9.3 3.2 6.65 0.15 4.1 0.0 0.65 Z" fill="none" stroke="#000000" stroke-linecap="round" stroke-linejoin="round" stroke-opacity="0.3019608" stroke-width="0.30000000000000004"/>
      <path d="M15.7 6.85 Q17.1 5.2 17.9 3.55 18.85 1.75 20.15 1.65 21.15 1.5 21.25 2.6 L21.25 3.0 Q20.95 4.2 19.15 6.15 18.55 6.7 16.15 7.6 14.95 7.9 14.6 8.15 L15.7 6.85" fill="#989898" fill-opacity="0.85882354" fill-rule="evenodd" stroke="none"/>
    </g>
    <linearGradient gradientTransform="matrix(0.0074, -0.0053, 0.0035, 0.0042, 14.25, 3.85)" gradientUnits="userSpaceOnUse" id="decoration100-gradient0" spreadMethod="pad" x1="-819.2" x2="819.2">
      <stop offset="0.00392156862745098" stop-color="#808080"/>
      <stop offset="1.0" stop-color="#3f3f3f"/>
    </linearGradient>
    <g id="decoration100-sprite1" transform="matrix(1.0, 0.0, 0.0, 1.0, -2.6, 0.05)">
      <use height="116.85" transform="matrix(1.0, 0.0, 0.0, 1.0, 2.6, -0.05)" width="220.6" xlink:href="#decoration100-shape2"/>
    </g>
    <g id="decoration100-shape2" transform="matrix(1.0, 0.0, 0.0, 1.0, -2.6, 0.05)">
      <path d="M216.6 72.9 Q209.6 82.3 197.3 90.5 165.65 111.5 112.85 116.1 61.0 120.6 28.05 95.7 15.85 86.45 8.7 74.85 2.6 65.0 2.6 58.05 2.6 51.0 7.9 41.95 14.25 31.1 25.85 22.35 57.15 -1.2 112.85 0.0 173.9 1.15 201.1 17.6 224.7 31.9 223.1 58.05 222.7 64.7 216.6 72.9" fill="url(#decoration100-gradient1)" fill-rule="evenodd" stroke="none"/>
    </g>
    <radialGradient cx="0" cy="0" gradientTransform="matrix(0.0971, 0.0, 0.0, 0.0572, 109.5, 53.65)" gradientUnits="userSpaceOnUse" id="decoration100-gradient1" r="819.2" spreadMethod="pad">
      <stop offset="0.0" stop-color="#cdfdff" stop-opacity="0.45882353"/>
      <stop offset="0.19607843137254902" stop-color="#dafdff" stop-opacity="0.34117648"/>
      <stop offset="1.0" stop-color="#ffffff" stop-opacity="0.0"/>
    </radialGradient>
  </defs>
</svg>
