<?xml version="1.0" encoding="UTF-8" standalone="no"?>
<svg xmlns:ffdec="https://www.free-decompiler.com/flash" xmlns:xlink="http://www.w3.org/1999/xlink" ffdec:objectType="frame" height="116.65px" width="86.8px" xmlns="http://www.w3.org/2000/svg">
  <g transform="matrix(1.0, 0.0, 0.0, 1.0, 42.95, 0.15)">
    <use ffdec:characterId="485" height="3.2" id="decoration102-Couleur1_95D9D6" filter="url(#decoration102-filter1)" transform="matrix(1.0, 0.0, 0.0, 1.0, 8.1, 70.65)" width="3.2" xlink:href="#decoration102-sprite0"/>
    <use ffdec:characterId="486" height="48.8" transform="matrix(1.0, 0.0, 0.0, 1.0, -35.8, 55.7)" width="72.9" xlink:href="#decoration102-shape1"/>
    <use ffdec:characterId="485" height="3.2" id="decoration102-Couleur1_95D9D6" filter="url(#decoration102-filter1)" transform="matrix(-1.0, 0.0, 0.0, 1.0, -23.0, 64.2)" width="3.2" xlink:href="#decoration102-sprite0"/>
    <use ffdec:characterId="485" height="3.2" id="decoration102-Couleur1_95D9D6" filter="url(#decoration102-filter1)" transform="matrix(1.0, 0.0, 0.0, 1.0, 22.85, 63.55)" width="3.2" xlink:href="#decoration102-sprite0"/>
    <use ffdec:characterId="488" height="12.6" id="decoration102-Couleur0_CF6A27" filter="url(#decoration102-filter0)" transform="matrix(1.0, 0.0, 0.0, 1.0, 6.1, 96.95)" width="6.8" xlink:href="#decoration102-sprite1"/>
    <use ffdec:characterId="488" height="12.6" id="decoration102-Couleur0_CF6A27" filter="url(#decoration102-filter0)" transform="matrix(-1.0331, 0.0, 0.0, 1.0331, -3.095, 96.795)" width="6.8" xlink:href="#decoration102-sprite1"/>
    <use ffdec:characterId="488" height="12.6" id="decoration102-Couleur0_CF6A27" filter="url(#decoration102-filter0)" transform="matrix(1.0, 0.0, 0.0, 1.0, -3.2, 103.9)" width="6.8" xlink:href="#decoration102-sprite1"/>
    <use ffdec:characterId="488" height="12.6" id="decoration102-Couleur0_CF6A27" filter="url(#decoration102-filter0)" transform="matrix(1.0, 0.0, 0.0, 1.0, 33.5, 96.3)" width="6.8" xlink:href="#decoration102-sprite1"/>
    <use ffdec:characterId="488" height="12.6" id="decoration102-Couleur0_CF6A27" filter="url(#decoration102-filter0)" transform="matrix(0.9187, 0.0, 0.0, 0.9187, 21.1122, 82.5122)" width="6.8" xlink:href="#decoration102-sprite1"/>
    <use ffdec:characterId="488" height="12.6" id="decoration102-Couleur0_CF6A27" filter="url(#decoration102-filter0)" transform="matrix(0.8293, 0.0, 0.0, 0.8293, 12.4256, 88.1756)" width="6.8" xlink:href="#decoration102-sprite1"/>
    <use ffdec:characterId="488" height="12.6" id="decoration102-Couleur0_CF6A27" filter="url(#decoration102-filter0)" transform="matrix(-0.9077, 0.0, 0.0, 0.9077, -21.4638, 82.5638)" width="6.8" xlink:href="#decoration102-sprite1"/>
    <use ffdec:characterId="488" height="12.6" id="decoration102-Couleur0_CF6A27" filter="url(#decoration102-filter0)" transform="matrix(-0.9077, 0.0, 0.0, 0.8856, -32.5638, 96.5172)" width="6.8" xlink:href="#decoration102-sprite1"/>
    <use ffdec:characterId="488" height="12.6" id="decoration102-Couleur0_CF6A27" filter="url(#decoration102-filter0)" transform="matrix(-0.8658, 0.0, 0.0, 0.8658, -11.7701, 88.5201)" width="6.8" xlink:href="#decoration102-sprite1"/>
    <use ffdec:characterId="488" height="12.6" id="decoration102-Couleur0_CF6A27" filter="url(#decoration102-filter0)" transform="matrix(-0.8658, 0.0, 0.0, 0.8161, -2.1201, 90.7776)" width="6.8" xlink:href="#decoration102-sprite1"/>
    <use ffdec:characterId="488" height="12.6" id="decoration102-Couleur0_CF6A27" filter="url(#decoration102-filter0)" transform="matrix(0.8658, 0.0, 0.0, 0.8161, 2.6701, 90.8776)" width="6.8" xlink:href="#decoration102-sprite1"/>
    <use ffdec:characterId="485" height="3.2" id="decoration102-Couleur1_95D9D6" filter="url(#decoration102-filter1)" transform="matrix(1.0, 0.0, 0.0, 1.0, -1.4, 82.35)" width="3.2" xlink:href="#decoration102-sprite0"/>
    <use ffdec:characterId="485" height="3.2" id="decoration102-Couleur1_95D9D6" filter="url(#decoration102-filter1)" transform="matrix(1.0, 0.0, 0.0, 1.0, -1.25, 70.75)" width="3.2" xlink:href="#decoration102-sprite0"/>
    <use ffdec:characterId="485" height="3.2" id="decoration102-Couleur1_95D9D6" filter="url(#decoration102-filter1)" transform="matrix(1.0, 0.0, 0.0, 1.0, -1.3, 93.9)" width="3.2" xlink:href="#decoration102-sprite0"/>
    <use ffdec:characterId="485" height="3.2" id="decoration102-Couleur1_95D9D6" filter="url(#decoration102-filter1)" transform="matrix(-1.0, 0.0, 0.0, 1.0, -5.3, 70.65)" width="3.2" xlink:href="#decoration102-sprite0"/>
    <use ffdec:characterId="485" height="3.2" id="decoration102-Couleur1_95D9D6" filter="url(#decoration102-filter1)" transform="matrix(-1.0, 0.0, 0.0, 1.0, -5.3, 84.1)" width="3.2" xlink:href="#decoration102-sprite0"/>
    <use ffdec:characterId="485" height="3.2" id="decoration102-Couleur1_95D9D6" filter="url(#decoration102-filter1)" transform="matrix(1.0, 0.0, 0.0, 1.0, 22.85, 73.55)" width="3.2" xlink:href="#decoration102-sprite0"/>
    <use ffdec:characterId="485" height="3.2" id="decoration102-Couleur1_95D9D6" filter="url(#decoration102-filter1)" transform="matrix(1.0, 0.0, 0.0, 1.0, 35.35, 74.3)" width="3.2" xlink:href="#decoration102-sprite0"/>
    <use ffdec:characterId="485" height="3.2" id="decoration102-Couleur1_95D9D6" filter="url(#decoration102-filter1)" transform="matrix(1.0, 0.0, 0.0, 1.0, 35.35, 89.55)" width="3.2" xlink:href="#decoration102-sprite0"/>
    <use ffdec:characterId="485" height="3.2" id="decoration102-Couleur1_95D9D6" filter="url(#decoration102-filter1)" transform="matrix(0.7813, 0.0, 0.0, 0.7813, 14.2, 72.2)" width="3.2" xlink:href="#decoration102-sprite0"/>
    <use ffdec:characterId="485" height="3.2" id="decoration102-Couleur1_95D9D6" filter="url(#decoration102-filter1)" transform="matrix(0.7813, 0.0, 0.0, 0.7813, 14.2, 81.0)" width="3.2" xlink:href="#decoration102-sprite0"/>
    <use ffdec:characterId="485" height="3.2" id="decoration102-Couleur1_95D9D6" filter="url(#decoration102-filter1)" transform="matrix(-0.7812, 0.0, 0.0, 0.7813, -13.4, 72.25)" width="3.2" xlink:href="#decoration102-sprite0"/>
    <use ffdec:characterId="485" height="3.2" id="decoration102-Couleur1_95D9D6" filter="url(#decoration102-filter1)" transform="matrix(-0.7812, 0.0, 0.0, 0.7813, -13.4, 81.05)" width="3.2" xlink:href="#decoration102-sprite0"/>
    <use ffdec:characterId="485" height="3.2" id="decoration102-Couleur1_95D9D6" filter="url(#decoration102-filter1)" transform="matrix(-1.0, 0.0, 0.0, 1.0, -23.0, 73.65)" width="3.2" xlink:href="#decoration102-sprite0"/>
    <use ffdec:characterId="485" height="3.2" id="decoration102-Couleur1_95D9D6" filter="url(#decoration102-filter1)" transform="matrix(-1.0, 0.0, 0.0, 1.0, -34.1, 72.4)" width="3.2" xlink:href="#decoration102-sprite0"/>
    <use ffdec:characterId="485" height="3.2" id="decoration102-Couleur1_95D9D6" filter="url(#decoration102-filter1)" transform="matrix(-1.0, 0.0, 0.0, 1.0, -34.05, 88.15)" width="3.2" xlink:href="#decoration102-sprite0"/>
    <use ffdec:characterId="485" height="3.2" id="decoration102-Couleur1_95D9D6" filter="url(#decoration102-filter1)" transform="matrix(1.0, 0.0, 0.0, 1.0, 8.1, 84.1)" width="3.2" xlink:href="#decoration102-sprite0"/>
    <use ffdec:characterId="489" height="10.6" transform="matrix(1.0, 0.0, 0.0, 1.0, 33.2, 32.8)" width="9.9" xlink:href="#decoration102-shape3"/>
    <use ffdec:characterId="490" height="0.0" style="mix-blend-mode: overlay" transform="matrix(-0.0308, 0.0095, 0.009, 0.0389, 39.1, 35.95)" width="0.0" xlink:href="#decoration102-sprite2"/>
    <use ffdec:characterId="492" height="47.7" id="decoration102-Couleur3_E9E2DA" filter="url(#decoration102-filter3)" transform="matrix(-0.384, 0.0, 0.0, 0.3304, 40.042, 41.0348)" width="10.05" xlink:href="#decoration102-sprite3"/>
    <use ffdec:characterId="493" height="10.6" transform="matrix(1.0, 0.0, 0.0, 1.0, 24.95, 18.45)" width="9.9" xlink:href="#decoration102-shape5"/>
    <use ffdec:characterId="490" height="0.0" style="mix-blend-mode: overlay" transform="matrix(-0.0308, 0.0095, 0.009, 0.0389, 30.85, 21.6)" width="0.0" xlink:href="#decoration102-sprite2"/>
    <use ffdec:characterId="492" height="47.7" id="decoration102-Couleur3_E9E2DA" filter="url(#decoration102-filter3)" transform="matrix(-0.384, 0.0, 0.0, 0.3304, 31.792, 26.6848)" width="10.05" xlink:href="#decoration102-sprite3"/>
    <use ffdec:characterId="494" height="10.6" transform="matrix(1.0, 0.0, 0.0, 1.0, -21.95, 19.25)" width="8.55" xlink:href="#decoration102-shape6"/>
    <use ffdec:characterId="490" height="0.0" style="mix-blend-mode: overlay" transform="matrix(-0.0265, 0.0095, 0.0078, 0.0389, -16.85, 22.4)" width="0.0" xlink:href="#decoration102-sprite2"/>
    <use ffdec:characterId="492" height="47.7" id="decoration102-Couleur3_E9E2DA" filter="url(#decoration102-filter3)" transform="matrix(-0.3304, 0.0, 0.0, 0.3304, -16.0348, 27.4848)" width="10.05" xlink:href="#decoration102-sprite3"/>
    <use ffdec:characterId="495" height="10.6" transform="matrix(1.0, 0.0, 0.0, 1.0, -10.45, 18.45)" width="8.55" xlink:href="#decoration102-shape7"/>
    <use ffdec:characterId="490" height="0.0" style="mix-blend-mode: overlay" transform="matrix(-0.0265, 0.0095, 0.0078, 0.0389, -5.35, 21.6)" width="0.0" xlink:href="#decoration102-sprite2"/>
    <use ffdec:characterId="492" height="47.7" id="decoration102-Couleur3_E9E2DA" filter="url(#decoration102-filter3)" transform="matrix(-0.3304, 0.0, 0.0, 0.3304, -4.5348, 26.6848)" width="10.05" xlink:href="#decoration102-sprite3"/>
    <use ffdec:characterId="496" height="10.6" transform="matrix(1.0, 0.0, 0.0, 1.0, 14.3, 18.45)" width="8.55" xlink:href="#decoration102-shape8"/>
    <use ffdec:characterId="490" height="0.0" style="mix-blend-mode: overlay" transform="matrix(-0.0265, 0.0095, 0.0078, 0.0389, 19.4, 21.6)" width="0.0" xlink:href="#decoration102-sprite2"/>
    <use ffdec:characterId="492" height="47.7" id="decoration102-Couleur3_E9E2DA" filter="url(#decoration102-filter3)" transform="matrix(-0.3304, 0.0, 0.0, 0.3304, 20.2152, 26.6848)" width="10.05" xlink:href="#decoration102-sprite3"/>
    <use ffdec:characterId="497" height="10.6" transform="matrix(1.0, 0.0, 0.0, 1.0, -34.3, 19.15)" width="9.15" xlink:href="#decoration102-shape9"/>
    <use ffdec:characterId="490" height="0.0" style="mix-blend-mode: overlay" transform="matrix(-0.0285, 0.0095, 0.0083, 0.0389, -28.85, 22.3)" width="0.0" xlink:href="#decoration102-sprite2"/>
    <use ffdec:characterId="492" height="47.7" id="decoration102-Couleur3_E9E2DA" filter="url(#decoration102-filter3)" transform="matrix(-0.3548, 0.0, 0.0, 0.3304, -27.9726, 27.3848)" width="10.05" xlink:href="#decoration102-sprite3"/>
    <use ffdec:characterId="498" height="10.6" transform="matrix(1.0, 0.0, 0.0, 1.0, 2.85, 18.65)" width="8.55" xlink:href="#decoration102-shape10"/>
    <use ffdec:characterId="490" height="0.0" style="mix-blend-mode: overlay" transform="matrix(-0.0265, 0.0095, 0.0078, 0.0389, 7.95, 21.8)" width="0.0" xlink:href="#decoration102-sprite2"/>
    <use ffdec:characterId="492" height="47.7" id="decoration102-Couleur3_E9E2DA" filter="url(#decoration102-filter3)" transform="matrix(-0.3304, 0.0, 0.0, 0.3304, 8.7652, 26.8848)" width="10.05" xlink:href="#decoration102-sprite3"/>
    <use ffdec:characterId="500" height="73.5" id="decoration102-Couleur2_665C50" filter="url(#decoration102-filter2)" transform="matrix(1.0, 0.0, 0.0, 1.0, -42.95, -0.15)" width="86.8" xlink:href="#decoration102-sprite4"/>
    <use ffdec:characterId="501" height="10.6" transform="matrix(1.0, 0.0, 0.0, 1.0, -41.7, 32.05)" width="9.15" xlink:href="#decoration102-shape12"/>
    <use ffdec:characterId="490" height="0.0" style="mix-blend-mode: overlay" transform="matrix(-0.0285, 0.0095, 0.0083, 0.0389, -36.25, 35.2)" width="0.0" xlink:href="#decoration102-sprite2"/>
    <use ffdec:characterId="492" height="47.7" id="decoration102-Couleur3_E9E2DA" filter="url(#decoration102-filter3)" transform="matrix(-0.3548, 0.0, 0.0, 0.3304, -35.3726, 40.2848)" width="10.05" xlink:href="#decoration102-sprite3"/>
    <use ffdec:characterId="503" height="16.9" id="decoration102-Couleur2_665C50" filter="url(#decoration102-filter2)" transform="matrix(1.0, 0.0, 0.0, 1.0, -39.15, 41.2)" width="79.05" xlink:href="#decoration102-sprite5"/>
    <use ffdec:characterId="504" height="10.6" transform="matrix(1.0, 0.0, 0.0, 1.0, -19.2, 32.05)" width="9.15" xlink:href="#decoration102-shape14"/>
    <use ffdec:characterId="490" height="0.0" style="mix-blend-mode: overlay" transform="matrix(-0.0285, 0.0095, 0.0083, 0.0389, -13.75, 35.2)" width="0.0" xlink:href="#decoration102-sprite2"/>
    <use ffdec:characterId="492" height="47.7" id="decoration102-Couleur3_E9E2DA" filter="url(#decoration102-filter3)" transform="matrix(-0.3548, 0.0, 0.0, 0.3304, -12.8726, 40.2848)" width="10.05" xlink:href="#decoration102-sprite3"/>
    <use ffdec:characterId="505" height="10.6" transform="matrix(1.0, 0.0, 0.0, 1.0, 11.05, 31.95)" width="9.9" xlink:href="#decoration102-shape15"/>
    <use ffdec:characterId="490" height="0.0" style="mix-blend-mode: overlay" transform="matrix(-0.0308, 0.0095, 0.009, 0.0389, 16.95, 35.1)" width="0.0" xlink:href="#decoration102-sprite2"/>
    <use ffdec:characterId="492" height="47.7" id="decoration102-Couleur3_E9E2DA" filter="url(#decoration102-filter3)" transform="matrix(-0.384, 0.0, 0.0, 0.3304, 17.892, 40.1848)" width="10.05" xlink:href="#decoration102-sprite3"/>
  </g>
  <defs>
    <g id="decoration102-sprite0" transform="matrix(1.0, 0.0, 0.0, 1.0, 0.0, 0.0)">
      <use ffdec:characterId="484" height="3.2" transform="matrix(1.0, 0.0, 0.0, 1.0, 0.0, 0.0)" width="3.2" xlink:href="#decoration102-shape0"/>
    </g>
    <g id="decoration102-shape0" transform="matrix(1.0, 0.0, 0.0, 1.0, 0.0, 0.0)">
      <path d="M3.2 1.6 Q3.2 2.4 2.55 2.85 L1.6 3.2 Q0.8 3.15 0.35 2.55 0.0 2.1 0.0 1.6 0.0 0.05 1.6 0.0 2.1 0.0 2.55 0.35 3.2 0.8 3.2 1.6 M1.55 1.4 L2.5 1.5 Q3.0 1.0 2.55 0.55 1.95 -0.05 1.55 0.4 1.1 0.8 1.55 1.4 M0.7 2.6 L2.4 2.5 0.95 2.35 Q0.35 1.9 0.85 0.95 0.1 2.0 0.7 2.6" fill="#808080" fill-rule="evenodd" stroke="none"/>
      <path d="M0.7 2.6 Q0.1 2.0 0.85 0.95 0.35 1.9 0.95 2.35 L2.4 2.5 0.7 2.6" fill="#413d3d" fill-rule="evenodd" stroke="none"/>
      <path d="M1.55 1.4 Q1.1 0.8 1.55 0.4 1.95 -0.05 2.55 0.55 3.0 1.0 2.5 1.5 L1.55 1.4" fill="#bdbdbd" fill-rule="evenodd" stroke="none"/>
      <path d="M3.2 1.6 Q3.2 0.8 2.55 0.35 2.1 0.0 1.6 0.0 0.0 0.05 0.0 1.6 0.0 2.1 0.35 2.55 0.8 3.15 1.6 3.2 L2.55 2.85 Q3.2 2.4 3.2 1.6 Z" fill="none" stroke="#000000" stroke-linecap="round" stroke-linejoin="round" stroke-opacity="0.3019608" stroke-width="0.05"/>
    </g>
    <g id="decoration102-shape1" transform="matrix(1.0, 0.0, 0.0, 1.0, 35.8, -55.7)">
      <path d="M5.7 90.7 L5.7 56.85 M36.95 96.6 L36.95 61.9 M15.3 88.6 L15.3 58.0 M0.2 104.35 L0.2 64.0 M-14.65 88.6 L-14.65 58.0 M-24.6 82.7 L-24.6 55.85 M-35.65 96.65 L-35.65 67.1 M-7.0 92.8 L-7.0 58.7 M-5.1 90.7 L-5.1 56.85" fill="none" stroke="#000000" stroke-linecap="round" stroke-linejoin="round" stroke-opacity="0.29803923" stroke-width="0.30000000000000004" vector-effect="non-scaling-stroke"/>
      <path d="M9.65 97.1 L9.65 58.7" fill="none" stroke="#000000" stroke-linecap="round" stroke-linejoin="round" stroke-opacity="0.29803923" stroke-width="0.30000000000000004" vector-effect="non-scaling-stroke"/>
      <path d="M24.25 82.7 L24.25 55.85" fill="none" stroke="#000000" stroke-linecap="round" stroke-linejoin="round" stroke-opacity="0.29803923" stroke-width="0.30000000000000004" vector-effect="non-scaling-stroke"/>
    </g>
    <g id="decoration102-sprite1" transform="matrix(1.0, 0.0, 0.0, 1.0, 0.15, 0.15)">
      <use ffdec:characterId="487" height="12.6" transform="matrix(1.0, 0.0, 0.0, 1.0, -0.15, -0.15)" width="6.8" xlink:href="#decoration102-shape2"/>
    </g>
    <g id="decoration102-shape2" transform="matrix(1.0, 0.0, 0.0, 1.0, 0.15, 0.15)">
      <path d="M3.25 0.0 L4.45 1.0 Q5.75 2.3 6.3 3.95 7.0 6.3 5.3 9.8 5.15 8.65 5.4 7.2 L5.15 8.1 Q4.55 7.5 3.95 5.6 L3.45 3.85 1.05 5.95 Q0.8 3.0 3.25 0.05 L3.25 0.0 M5.65 6.05 L5.4 7.2 5.65 6.05" fill="#808080" fill-rule="evenodd" stroke="none"/>
      <path d="M5.15 8.1 L3.15 12.3 Q1.75 9.35 1.9 7.0 L1.35 9.6 Q-0.5 6.45 0.2 4.3 0.85 2.1 3.25 0.0 L3.25 0.05 Q0.8 3.0 1.05 5.95 L3.45 3.85 3.95 5.6 Q4.55 7.5 5.15 8.1 M3.35 8.8 Q2.95 10.35 3.15 12.3 2.95 10.35 3.35 8.8 M3.45 3.85 Q2.8 4.6 1.9 7.0 2.8 4.6 3.45 3.85" fill="#4d4b4b" fill-rule="evenodd" stroke="none"/>
      <path d="M3.25 0.0 L4.45 1.0 Q5.75 2.3 6.3 3.95 7.0 6.3 5.3 9.8 5.15 8.65 5.4 7.2 L5.15 8.1 3.15 12.3 Q1.75 9.35 1.9 7.0 L1.35 9.6 Q-0.5 6.45 0.2 4.3 0.85 2.1 3.25 0.0 M3.15 12.3 Q2.95 10.35 3.35 8.8 M5.4 7.2 L5.65 6.05 M1.9 7.0 Q2.8 4.6 3.45 3.85" fill="none" stroke="#000000" stroke-linecap="round" stroke-linejoin="round" stroke-opacity="0.29803923" stroke-width="0.30000000000000004" vector-effect="non-scaling-stroke"/>
    </g>
    <g id="decoration102-shape3" transform="matrix(1.0, 0.0, 0.0, 1.0, -33.2, -32.8)">
      <path d="M38.1 41.2 L38.1 40.5" fill="none" stroke="#000000" stroke-linecap="round" stroke-linejoin="round" stroke-opacity="0.29803923" stroke-width="1.0" vector-effect="non-scaling-stroke"/>
      <path d="M43.1 38.1 Q43.1 40.3 41.65 41.85 40.2 43.4 38.1 43.4 36.05 43.4 34.6 41.85 33.2 40.3 33.2 38.1 33.2 35.9 34.6 34.4 36.05 32.8 38.1 32.8 40.2 32.8 41.65 34.4 43.1 35.9 43.1 38.1" fill="url(#decoration102-gradient0)" fill-rule="evenodd" stroke="none"/>
    </g>
    <radialGradient cx="0" cy="0" gradientTransform="matrix(-0.0058, 0.0, 0.0, 0.0064, 38.1, 38.1)" gradientUnits="userSpaceOnUse" id="decoration102-gradient0" r="819.2" spreadMethod="pad">
      <stop offset="0.0" stop-color="#fffdf5" stop-opacity="0.8784314"/>
      <stop offset="0.14901960784313725" stop-color="#ffd202" stop-opacity="0.7019608"/>
      <stop offset="0.39215686274509803" stop-color="#f79331" stop-opacity="0.5411765"/>
      <stop offset="0.615686274509804" stop-color="#fcc86f" stop-opacity="0.14117648"/>
      <stop offset="1.0" stop-color="#ffdd87" stop-opacity="0.0"/>
    </radialGradient>
    <g id="decoration102-sprite3" transform="matrix(1.0, 0.0, 0.0, 1.0, 0.5, 0.5)">
      <use ffdec:characterId="491" height="47.7" transform="matrix(1.0, 0.0, 0.0, 1.0, -0.5, -0.5)" width="10.05" xlink:href="#decoration102-shape4"/>
    </g>
    <g id="decoration102-shape4" transform="matrix(1.0, 0.0, 0.0, 1.0, 0.5, 0.5)">
      <path d="M0.15 4.9 Q-0.4 4.15 1.3 2.45 L1.3 0.25 Q4.6 -0.2 7.95 0.25 L7.95 2.8 Q9.3 6.05 9.0 7.25 7.95 7.6 7.2 5.9 7.3 7.15 7.95 8.0 L7.95 13.2 Q7.0 47.0 1.3 46.2 L1.3 5.45 Q2.1 5.05 2.0 3.8 1.4 4.6 0.15 4.9" fill="url(#decoration102-gradient1)" fill-rule="evenodd" stroke="none"/>
      <path d="M0.15 4.9 Q1.4 4.6 2.0 3.8 2.1 5.05 1.3 5.45 0.35 5.3 0.15 4.9 M1.3 46.2 Q7.0 47.0 7.95 13.2 L7.95 46.2 Q4.7 47.25 1.3 46.2 M7.95 8.0 Q7.3 7.15 7.2 5.9 7.95 7.6 9.0 7.25 8.8 8.05 7.95 8.0" fill="#4f4b4b" fill-rule="evenodd" stroke="none"/>
      <path d="M9.0 7.25 Q9.3 6.05 7.95 2.8 L7.95 0.25 Q4.6 -0.2 1.3 0.25 L1.3 2.45 Q-0.4 4.15 0.15 4.9 0.35 5.3 1.3 5.45 L1.3 46.2 Q4.7 47.25 7.95 46.2 L7.95 13.2 7.95 8.0 Q8.8 8.05 9.0 7.25 Z" fill="none" stroke="#000000" stroke-linecap="round" stroke-linejoin="round" stroke-opacity="0.29803923" stroke-width="1.0" vector-effect="non-scaling-stroke"/>
      <path d="M2.75 13.85 Q4.0 14.0 5.25 11.75 4.95 14.4 3.9 14.6 2.65 14.9 2.75 13.85" fill="#4f4b4b" fill-rule="evenodd" stroke="none"/>
      <path d="M2.75 13.85 L2.95 12.9 3.8 11.1" fill="none" stroke="#000000" stroke-linecap="round" stroke-linejoin="round" stroke-opacity="0.29803923" stroke-width="1.0" vector-effect="non-scaling-stroke"/>
    </g>
    <linearGradient gradientTransform="matrix(0.0051, -0.0156, 0.0268, 0.0086, 4.35, 30.9)" gradientUnits="userSpaceOnUse" id="decoration102-gradient1" spreadMethod="pad" x1="-819.2" x2="819.2">
      <stop offset="0.0" stop-color="#4f4b4b"/>
      <stop offset="0.9725490196078431" stop-color="#808080"/>
    </linearGradient>
    <g id="decoration102-shape5" transform="matrix(1.0, 0.0, 0.0, 1.0, -24.95, -18.45)">
      <path d="M29.85 26.85 L29.85 26.15" fill="none" stroke="#000000" stroke-linecap="round" stroke-linejoin="round" stroke-opacity="0.29803923" stroke-width="1.0" vector-effect="non-scaling-stroke"/>
      <path d="M24.95 23.75 Q24.95 21.55 26.35 20.05 27.8 18.45 29.85 18.45 31.95 18.45 33.4 20.05 34.85 21.55 34.85 23.75 34.85 25.95 33.4 27.5 31.95 29.05 29.85 29.05 27.8 29.05 26.35 27.5 24.95 25.95 24.95 23.75" fill="url(#decoration102-gradient2)" fill-rule="evenodd" stroke="none"/>
    </g>
    <radialGradient cx="0" cy="0" gradientTransform="matrix(-0.0058, 0.0, 0.0, 0.0064, 29.85, 23.75)" gradientUnits="userSpaceOnUse" id="decoration102-gradient2" r="819.2" spreadMethod="pad">
      <stop offset="0.0" stop-color="#fffdf5" stop-opacity="0.8784314"/>
      <stop offset="0.14901960784313725" stop-color="#ffd202" stop-opacity="0.7019608"/>
      <stop offset="0.39215686274509803" stop-color="#f79331" stop-opacity="0.5411765"/>
      <stop offset="0.615686274509804" stop-color="#fcc86f" stop-opacity="0.14117648"/>
      <stop offset="1.0" stop-color="#ffdd87" stop-opacity="0.0"/>
    </radialGradient>
    <g id="decoration102-shape6" transform="matrix(1.0, 0.0, 0.0, 1.0, 21.95, -19.25)">
      <path d="M-17.7 27.65 L-17.7 26.95" fill="none" stroke="#000000" stroke-linecap="round" stroke-linejoin="round" stroke-opacity="0.29803923" stroke-width="1.0" vector-effect="non-scaling-stroke"/>
      <path d="M-21.95 24.55 Q-21.95 22.35 -20.7 20.85 -19.45 19.25 -17.7 19.25 -15.9 19.25 -14.65 20.85 -13.4 22.35 -13.4 24.55 -13.4 26.75 -14.65 28.3 -15.9 29.85 -17.7 29.85 -19.45 29.85 -20.7 28.3 -21.95 26.75 -21.95 24.55" fill="url(#decoration102-gradient3)" fill-rule="evenodd" stroke="none"/>
    </g>
    <radialGradient cx="0" cy="0" gradientTransform="matrix(-0.005, 0.0, 0.0, 0.0064, -17.7, 24.55)" gradientUnits="userSpaceOnUse" id="decoration102-gradient3" r="819.2" spreadMethod="pad">
      <stop offset="0.0" stop-color="#fffdf5" stop-opacity="0.8784314"/>
      <stop offset="0.14901960784313725" stop-color="#ffd202" stop-opacity="0.7019608"/>
      <stop offset="0.39215686274509803" stop-color="#f79331" stop-opacity="0.5411765"/>
      <stop offset="0.615686274509804" stop-color="#fcc86f" stop-opacity="0.14117648"/>
      <stop offset="1.0" stop-color="#ffdd87" stop-opacity="0.0"/>
    </radialGradient>
    <g id="decoration102-shape7" transform="matrix(1.0, 0.0, 0.0, 1.0, 10.45, -18.45)">
      <path d="M-6.2 26.85 L-6.2 26.15" fill="none" stroke="#000000" stroke-linecap="round" stroke-linejoin="round" stroke-opacity="0.29803923" stroke-width="1.0" vector-effect="non-scaling-stroke"/>
      <path d="M-10.45 23.75 Q-10.45 21.55 -9.2 20.05 -7.95 18.45 -6.2 18.45 -4.4 18.45 -3.15 20.05 -1.9 21.55 -1.9 23.75 -1.9 25.95 -3.15 27.5 -4.4 29.05 -6.2 29.05 -7.95 29.05 -9.2 27.5 -10.45 25.95 -10.45 23.75" fill="url(#decoration102-gradient4)" fill-rule="evenodd" stroke="none"/>
    </g>
    <radialGradient cx="0" cy="0" gradientTransform="matrix(-0.005, 0.0, 0.0, 0.0064, -6.2, 23.75)" gradientUnits="userSpaceOnUse" id="decoration102-gradient4" r="819.2" spreadMethod="pad">
      <stop offset="0.0" stop-color="#fffdf5" stop-opacity="0.8784314"/>
      <stop offset="0.14901960784313725" stop-color="#ffd202" stop-opacity="0.7019608"/>
      <stop offset="0.39215686274509803" stop-color="#f79331" stop-opacity="0.5411765"/>
      <stop offset="0.615686274509804" stop-color="#fcc86f" stop-opacity="0.14117648"/>
      <stop offset="1.0" stop-color="#ffdd87" stop-opacity="0.0"/>
    </radialGradient>
    <g id="decoration102-shape8" transform="matrix(1.0, 0.0, 0.0, 1.0, -14.3, -18.45)">
      <path d="M18.55 26.85 L18.55 26.15" fill="none" stroke="#000000" stroke-linecap="round" stroke-linejoin="round" stroke-opacity="0.29803923" stroke-width="1.0" vector-effect="non-scaling-stroke"/>
      <path d="M14.3 23.75 Q14.3 21.55 15.55 20.05 16.8 18.45 18.55 18.45 20.35 18.45 21.6 20.05 22.85 21.55 22.85 23.75 22.85 25.95 21.6 27.5 20.35 29.05 18.55 29.05 16.8 29.05 15.55 27.5 14.3 25.95 14.3 23.75" fill="url(#decoration102-gradient5)" fill-rule="evenodd" stroke="none"/>
    </g>
    <radialGradient cx="0" cy="0" gradientTransform="matrix(-0.005, 0.0, 0.0, 0.0064, 18.55, 23.75)" gradientUnits="userSpaceOnUse" id="decoration102-gradient5" r="819.2" spreadMethod="pad">
      <stop offset="0.0" stop-color="#fffdf5" stop-opacity="0.8784314"/>
      <stop offset="0.14901960784313725" stop-color="#ffd202" stop-opacity="0.7019608"/>
      <stop offset="0.39215686274509803" stop-color="#f79331" stop-opacity="0.5411765"/>
      <stop offset="0.615686274509804" stop-color="#fcc86f" stop-opacity="0.14117648"/>
      <stop offset="1.0" stop-color="#ffdd87" stop-opacity="0.0"/>
    </radialGradient>
    <g id="decoration102-shape9" transform="matrix(1.0, 0.0, 0.0, 1.0, 34.3, -19.15)">
      <path d="M-29.75 27.55 L-29.75 26.85" fill="none" stroke="#000000" stroke-linecap="round" stroke-linejoin="round" stroke-opacity="0.29803923" stroke-width="1.0" vector-effect="non-scaling-stroke"/>
      <path d="M-34.3 24.45 Q-34.3 22.25 -32.95 20.75 -31.65 19.15 -29.75 19.15 -27.8 19.15 -26.45 20.75 -25.15 22.25 -25.15 24.45 -25.15 26.65 -26.45 28.2 -27.8 29.75 -29.75 29.75 -31.65 29.75 -32.95 28.2 -34.3 26.65 -34.3 24.45" fill="url(#decoration102-gradient6)" fill-rule="evenodd" stroke="none"/>
    </g>
    <radialGradient cx="0" cy="0" gradientTransform="matrix(-0.0053, 0.0, 0.0, 0.0064, -29.75, 24.45)" gradientUnits="userSpaceOnUse" id="decoration102-gradient6" r="819.2" spreadMethod="pad">
      <stop offset="0.0" stop-color="#fffdf5" stop-opacity="0.8784314"/>
      <stop offset="0.14901960784313725" stop-color="#ffd202" stop-opacity="0.7019608"/>
      <stop offset="0.39215686274509803" stop-color="#f79331" stop-opacity="0.5411765"/>
      <stop offset="0.615686274509804" stop-color="#fcc86f" stop-opacity="0.14117648"/>
      <stop offset="1.0" stop-color="#ffdd87" stop-opacity="0.0"/>
    </radialGradient>
    <g id="decoration102-shape10" transform="matrix(1.0, 0.0, 0.0, 1.0, -2.85, -18.65)">
      <path d="M7.1 27.05 L7.1 26.35" fill="none" stroke="#000000" stroke-linecap="round" stroke-linejoin="round" stroke-opacity="0.29803923" stroke-width="1.0" vector-effect="non-scaling-stroke"/>
      <path d="M2.85 23.95 Q2.85 21.75 4.1 20.25 5.35 18.65 7.1 18.65 8.9 18.65 10.15 20.25 11.4 21.75 11.4 23.95 11.4 26.15 10.15 27.7 8.9 29.25 7.1 29.25 5.35 29.25 4.1 27.7 2.85 26.15 2.85 23.95" fill="url(#decoration102-gradient7)" fill-rule="evenodd" stroke="none"/>
    </g>
    <radialGradient cx="0" cy="0" gradientTransform="matrix(-0.005, 0.0, 0.0, 0.0064, 7.1, 23.95)" gradientUnits="userSpaceOnUse" id="decoration102-gradient7" r="819.2" spreadMethod="pad">
      <stop offset="0.0" stop-color="#fffdf5" stop-opacity="0.8784314"/>
      <stop offset="0.14901960784313725" stop-color="#ffd202" stop-opacity="0.7019608"/>
      <stop offset="0.39215686274509803" stop-color="#f79331" stop-opacity="0.5411765"/>
      <stop offset="0.615686274509804" stop-color="#fcc86f" stop-opacity="0.14117648"/>
      <stop offset="1.0" stop-color="#ffdd87" stop-opacity="0.0"/>
    </radialGradient>
    <g id="decoration102-sprite4" transform="matrix(1.0, 0.0, 0.0, 1.0, 5.8, 0.15)">
      <use ffdec:characterId="499" height="73.5" transform="matrix(1.0, 0.0, 0.0, 1.0, -5.8, -0.15)" width="86.8" xlink:href="#decoration102-shape11"/>
    </g>
    <g id="decoration102-shape11" transform="matrix(1.0, 0.0, 0.0, 1.0, 5.8, 0.15)">
      <path d="M37.05 44.0 Q36.7 59.05 32.8 57.5 29.7 55.95 29.5 46.45 L31.85 46.5 Q31.5 53.5 33.1 55.2 36.05 57.0 36.2 44.0 L37.05 44.0" fill="url(#decoration102-gradient8)" fill-rule="evenodd" stroke="none"/>
      <path d="M37.05 44.0 Q36.7 59.05 32.8 57.5 29.7 55.95 29.5 46.45 L31.85 46.5 Q31.5 53.5 33.1 55.2 36.05 57.0 36.2 44.0 L37.05 44.0 Z" fill="none" stroke="#000000" stroke-linecap="round" stroke-linejoin="round" stroke-opacity="0.29803923" stroke-width="0.30000000000000004" vector-effect="non-scaling-stroke"/>
      <path d="M43.05 46.5 L45.4 46.45 Q45.15 55.95 42.1 57.5 38.2 59.05 37.85 44.0 L38.65 44.0 Q38.85 57.0 41.8 55.2 43.4 53.5 43.05 46.5" fill="url(#decoration102-gradient9)" fill-rule="evenodd" stroke="none"/>
      <path d="M43.05 46.5 Q43.4 53.5 41.8 55.2 38.85 57.0 38.65 44.0 L37.85 44.0 Q38.2 59.05 42.1 57.5 45.15 55.95 45.4 46.45 L43.05 46.5 Z" fill="none" stroke="#000000" stroke-linecap="round" stroke-linejoin="round" stroke-opacity="0.29803923" stroke-width="0.30000000000000004" vector-effect="non-scaling-stroke"/>
      <path d="M35.25 53.45 Q35.45 48.7 36.2 44.25 L38.55 44.25 Q39.7 51.2 39.65 58.95 39.4 61.35 38.55 63.05 L37.35 63.05 37.9 58.55 Q37.45 55.85 35.25 53.45" fill="#565454" fill-rule="evenodd" stroke="none"/>
      <path d="M37.35 63.05 L36.2 63.05 Q35.35 61.35 35.1 58.95 35.1 56.15 35.25 53.45 37.45 55.85 37.9 58.55 L37.35 63.05" fill="url(#decoration102-gradient10)" fill-rule="evenodd" stroke="none"/>
      <path d="M35.25 53.45 Q35.45 48.7 36.2 44.25 L38.55 44.25 Q39.7 51.2 39.65 58.95 39.4 61.35 38.55 63.05 L37.35 63.05 36.2 63.05 Q35.35 61.35 35.1 58.95 35.1 56.15 35.25 53.45 Z" fill="none" stroke="#000000" stroke-linecap="round" stroke-linejoin="round" stroke-opacity="0.29803923" stroke-width="0.30000000000000004" vector-effect="non-scaling-stroke"/>
      <path d="M36.2 62.95 Q36.75 62.65 37.45 62.65 38.55 62.65 39.3 63.4 40.1 64.15 40.1 65.3 40.1 66.35 39.3 67.15 38.55 67.95 37.45 67.95 36.3 67.95 35.55 67.15 L35.2 66.7 Q37.1 67.7 37.85 65.75 38.7 62.7 36.2 62.95" fill="#565454" fill-rule="evenodd" stroke="none"/>
      <path d="M36.2 62.95 Q38.7 62.7 37.85 65.75 37.1 67.7 35.2 66.7 34.8 66.05 34.8 65.3 34.8 64.15 35.55 63.4 L36.2 62.95" fill="#808080" fill-rule="evenodd" stroke="none"/>
      <path d="M35.2 66.7 L35.55 67.15 Q36.3 67.95 37.45 67.95 38.55 67.95 39.3 67.15 40.1 66.35 40.1 65.3 40.1 64.15 39.3 63.4 38.55 62.65 37.45 62.65 36.75 62.65 36.2 62.95 L35.55 63.4 Q34.8 64.15 34.8 65.3 34.8 66.05 35.2 66.7 Z" fill="none" stroke="#000000" stroke-linecap="round" stroke-linejoin="round" stroke-opacity="0.3019608" stroke-width="0.05"/>
      <path d="M58.45 46.1 L58.9 46.15 Q59.8 46.35 60.55 47.05 61.0 47.4 61.2 48.1 61.5 48.85 61.45 49.85 61.35 51.7 59.8 53.0 58.5 54.05 56.05 54.5 60.75 53.0 61.0 50.35 61.4 48.65 60.5 47.45 60.05 46.7 58.45 46.1" fill="#aaaaaa" fill-rule="evenodd" stroke="none"/>
      <path d="M59.75 48.75 Q59.2 49.3 58.25 49.35 L57.1 49.05 Q56.4 48.6 56.4 47.7 56.4 46.85 57.4 46.4 L57.8 46.25 Q56.55 46.95 56.65 48.0 56.8 48.65 57.3 48.85 L59.75 48.75 M58.7 48.4 Q58.2 48.6 57.85 48.4 57.5 48.25 57.65 47.95 L58.15 47.65 58.4 47.6 Q57.85 47.8 57.8 48.0 57.75 48.4 58.7 48.4" fill="#585450" fill-rule="evenodd" stroke="none"/>
      <path d="M56.05 54.5 Q49.35 55.2 45.25 53.25 41.1 51.3 39.4 46.55 39.0 45.45 38.75 44.2 L39.85 44.2 Q42.5 55.2 56.1 52.95 58.0 52.5 59.0 51.45 60.0 50.4 59.75 48.75 L57.3 48.85 Q56.8 48.65 56.65 48.0 56.55 46.95 57.8 46.25 L58.45 46.1 Q60.05 46.7 60.5 47.45 61.4 48.65 61.0 50.35 60.75 53.0 56.05 54.5 M58.4 47.6 L58.15 47.65 57.65 47.95 Q57.5 48.25 57.85 48.4 58.2 48.6 58.7 48.4 57.75 48.4 57.8 48.0 57.85 47.8 58.4 47.6 L59.0 47.75 Q59.65 48.05 59.75 48.75 59.65 48.05 59.0 47.75 L58.4 47.6" fill="url(#decoration102-gradient11)" fill-rule="evenodd" stroke="none"/>
      <path d="M58.45 46.1 L58.9 46.15 Q59.8 46.35 60.55 47.05 61.0 47.4 61.2 48.1 61.5 48.85 61.45 49.85 61.35 51.7 59.8 53.0 58.5 54.05 56.05 54.5 49.35 55.2 45.25 53.25 41.1 51.3 39.4 46.55 39.0 45.45 38.75 44.2 L39.85 44.2 Q42.5 55.2 56.1 52.95 58.0 52.5 59.0 51.45 60.0 50.4 59.75 48.75 59.2 49.3 58.25 49.35 L57.1 49.05 Q56.4 48.6 56.4 47.7 56.4 46.85 57.4 46.4 L57.8 46.25 58.45 46.1 M58.4 47.6 L58.15 47.65 57.65 47.95 Q57.5 48.25 57.85 48.4 58.2 48.6 58.7 48.4 M58.4 47.6 L59.0 47.75 Q59.65 48.05 59.75 48.75" fill="none" stroke="#000000" stroke-linecap="round" stroke-linejoin="round" stroke-opacity="0.29803923" stroke-width="0.30000000000000004" vector-effect="non-scaling-stroke"/>
      <path d="M67.65 47.1 Q66.9 47.05 66.25 47.5 66.05 54.1 61.7 55.25 66.1 53.5 65.85 46.6 L68.2 46.6 68.2 47.15 67.65 47.1" fill="#585450" fill-rule="evenodd" stroke="none"/>
      <path d="M61.7 57.6 Q67.9 54.75 67.65 47.1 L68.2 47.15 Q68.05 56.0 61.7 57.6" fill="#aaaaaa" fill-rule="evenodd" stroke="none"/>
      <path d="M61.7 55.25 Q66.05 54.1 66.25 47.5 66.9 47.05 67.65 47.1 67.9 54.75 61.7 57.6 41.0 60.5 38.0 44.1 L39.95 44.1 Q42.8 58.8 61.7 55.25" fill="url(#decoration102-gradient12)" fill-rule="evenodd" stroke="none"/>
      <path d="M61.7 55.25 Q42.8 58.8 39.95 44.1 L38.0 44.1 Q41.0 60.5 61.7 57.6 68.05 56.0 68.2 47.15 L68.2 46.6 65.85 46.6 Q66.1 53.5 61.7 55.25 Z" fill="none" stroke="#000000" stroke-linecap="round" stroke-linejoin="round" stroke-opacity="0.29803923" stroke-width="0.30000000000000004" vector-effect="non-scaling-stroke"/>
      <path d="M65.3 67.85 Q62.45 68.85 58.4 68.35 L56.85 68.15 53.5 67.3 Q48.2 65.45 44.85 61.25 L42.15 57.3 40.7 53.9 39.4 49.15 Q38.8 46.2 38.65 43.85 L39.9 43.85 Q39.9 46.05 40.55 49.15 41.55 53.65 43.55 57.2 49.45 67.8 62.2 67.1 L65.25 66.45 Q66.75 65.8 67.05 65.1 67.4 64.3 67.15 63.65 66.9 62.95 66.15 62.6 L64.2 62.45 Q63.1 62.6 62.9 63.25 62.7 63.95 63.45 64.35 L65.6 64.6 Q62.55 65.45 62.0 64.0 61.45 62.55 63.25 61.65 L63.35 61.6 64.85 61.3 Q66.9 61.7 67.45 62.25 69.25 64.0 67.5 66.4 L65.3 67.85" fill="url(#decoration102-gradient13)" fill-rule="evenodd" stroke="none"/>
      <path d="M64.85 61.3 L65.2 61.25 Q66.8 61.25 67.7 61.95 69.7 64.15 67.75 66.55 L65.3 67.85 67.5 66.4 Q69.25 64.0 67.45 62.25 66.9 61.7 64.85 61.3" fill="#aaaaaa" fill-rule="evenodd" stroke="none"/>
      <path d="M65.6 64.6 L64.6 65.0 63.4 65.1 Q62.05 64.95 61.7 63.9 61.35 62.9 62.1 62.3 62.65 61.9 63.25 61.65 61.45 62.55 62.0 64.0 62.55 65.45 65.6 64.6" fill="#585450" fill-rule="evenodd" stroke="none"/>
      <path d="M65.3 67.85 Q62.45 68.85 58.4 68.35 L56.85 68.15 53.5 67.3 Q48.2 65.45 44.85 61.25 L42.15 57.3 40.7 53.9 39.4 49.15 Q38.8 46.2 38.65 43.85 L39.9 43.85 Q39.9 46.05 40.55 49.15 41.55 53.65 43.55 57.2 49.45 67.8 62.2 67.1 L65.25 66.45 Q66.75 65.8 67.05 65.1 67.4 64.3 67.15 63.65 66.9 62.95 66.15 62.6 L64.2 62.45 Q63.1 62.6 62.9 63.25 62.7 63.95 63.45 64.35 L65.6 64.6 64.6 65.0 63.4 65.1 Q62.05 64.95 61.7 63.9 61.35 62.9 62.1 62.3 62.65 61.9 63.25 61.65 M63.35 61.6 L64.85 61.3 65.2 61.25 Q66.8 61.25 67.7 61.95 69.7 64.15 67.75 66.55 L65.3 67.85" fill="none" stroke="#000000" stroke-linecap="round" stroke-linejoin="round" stroke-opacity="0.29803923" stroke-width="0.30000000000000004" vector-effect="non-scaling-stroke"/>
      <path d="M68.5 72.7 L66.0 73.05 Q60.65 73.35 55.7 71.45 50.8 69.6 46.95 65.8 42.5 61.4 40.2 55.4 38.15 50.4 37.6 44.15 L37.6 43.65 39.05 43.65 39.05 44.15 Q39.6 51.35 42.3 56.9 44.25 61.1 47.5 64.4 50.95 68.0 55.4 69.75 59.85 71.5 64.75 71.2 67.65 71.0 69.65 69.85 73.65 67.8 74.3 61.45 L75.6 61.2 Q75.8 70.2 68.5 72.7" fill="url(#decoration102-gradient14)" fill-rule="evenodd" stroke="none"/>
      <path d="M69.65 69.85 Q71.4 68.8 72.45 67.0 74.05 64.25 73.75 60.7 L76.05 60.7 76.05 61.2 75.6 61.2 74.3 61.45 Q73.65 67.8 69.65 69.85" fill="#585450" fill-rule="evenodd" stroke="none"/>
      <path d="M76.05 61.2 Q76.15 65.8 74.45 68.55 72.55 71.75 68.5 72.7 75.8 70.2 75.6 61.2 L76.05 61.2" fill="#aaaaaa" fill-rule="evenodd" stroke="none"/>
      <path d="M68.5 72.7 L66.0 73.05 Q60.65 73.35 55.7 71.45 50.8 69.6 46.95 65.8 42.5 61.4 40.2 55.4 38.15 50.4 37.6 44.15 L37.6 43.65 39.05 43.65 39.05 44.15 Q39.6 51.35 42.3 56.9 44.25 61.1 47.5 64.4 50.95 68.0 55.4 69.75 59.85 71.5 64.75 71.2 67.65 71.0 69.65 69.85 71.4 68.8 72.45 67.0 74.05 64.25 73.75 60.7 L76.05 60.7 76.05 61.2 Q76.15 65.8 74.45 68.55 72.55 71.75 68.5 72.7 Z" fill="none" stroke="#000000" stroke-linecap="round" stroke-linejoin="round" stroke-opacity="0.29803923" stroke-width="0.30000000000000004" vector-effect="non-scaling-stroke"/>
      <path d="M40.0 45.4 L39.75 45.4 39.75 44.0 39.65 43.75 39.25 43.1 49.9 43.1 49.55 43.75 49.4 44.0 49.4 45.4 49.1 45.4 40.0 45.4 M39.65 43.75 L49.55 43.75 39.65 43.75" fill="#545151" fill-rule="evenodd" stroke="none"/>
      <path d="M49.1 45.4 Q47.65 45.75 46.8 46.6 L42.3 46.6 Q41.4 45.7 40.0 45.4 L49.1 45.4" fill="#3a3a3a" fill-rule="evenodd" stroke="none"/>
      <path d="M49.1 45.4 Q47.65 45.75 46.8 46.6 L42.3 46.6 Q41.4 45.7 40.0 45.4 L39.75 45.4 39.75 44.0 39.65 43.75 39.25 43.1 49.9 43.1 49.55 43.75 49.4 44.0 49.4 45.4 49.1 45.4 40.0 45.4 M49.55 43.75 L39.65 43.75" fill="none" stroke="#000000" stroke-linecap="round" stroke-linejoin="round" stroke-opacity="0.29803923" stroke-width="0.30000000000000004" vector-effect="non-scaling-stroke"/>
      <path d="M49.7 72.75 L47.75 73.2 Q44.85 73.35 42.85 71.05 40.8 68.6 39.65 63.2 38.45 57.5 37.8 44.0 L39.4 44.0 Q39.8 55.55 40.85 61.4 41.8 66.6 43.15 68.85 44.45 71.0 46.55 71.15 47.9 71.25 48.95 70.55 L49.7 69.9 Q51.7 68.05 51.8 61.8 52.55 61.35 53.5 61.3 53.8 70.0 49.7 72.75" fill="url(#decoration102-gradient15)" fill-rule="evenodd" stroke="none"/>
      <path d="M49.7 72.75 Q53.8 70.0 53.5 61.3 L53.9 61.3 Q54.1 66.6 52.85 69.4 51.8 71.9 49.7 72.75" fill="#aaaaaa" fill-rule="evenodd" stroke="none"/>
      <path d="M53.5 61.3 Q52.55 61.35 51.8 61.8 51.7 68.05 49.7 69.9 L50.65 68.05 51.3 64.65 51.5 60.55 53.85 60.55 53.9 61.3 53.5 61.3" fill="#585450" fill-rule="evenodd" stroke="none"/>
      <path d="M49.7 69.9 L48.95 70.55 Q47.9 71.25 46.55 71.15 44.45 71.0 43.15 68.85 41.8 66.6 40.85 61.4 39.8 55.55 39.4 44.0 L37.8 44.0 Q38.45 57.5 39.65 63.2 40.8 68.6 42.85 71.05 44.85 73.35 47.75 73.2 L49.7 72.75 Q51.8 71.9 52.85 69.4 54.1 66.6 53.9 61.3 L53.85 60.55 51.5 60.55 51.3 64.65 50.65 68.05 49.7 69.9 Z" fill="none" stroke="#000000" stroke-linecap="round" stroke-linejoin="round" stroke-opacity="0.29803923" stroke-width="0.30000000000000004" vector-effect="non-scaling-stroke"/>
      <path d="M46.4 68.4 L46.3 68.4 Q44.55 68.75 43.2 67.9 41.4 66.75 40.45 63.45 38.9 58.2 38.55 44.0 L39.4 44.0 Q39.75 52.6 40.55 58.2 41.4 63.75 42.65 65.8 L43.2 66.4 44.2 66.95 46.45 66.9 Q47.35 66.55 47.65 65.25 47.9 64.05 47.4 63.25 47.15 62.9 46.75 62.75 L46.4 62.7 45.65 62.7 45.6 62.75 Q45.2 62.9 44.95 63.25 44.65 63.55 44.65 63.85 44.65 64.35 44.95 64.65 45.2 64.95 45.65 64.95 L45.9 64.95 45.65 65.0 44.25 64.75 Q43.7 64.3 43.8 63.65 43.85 62.9 44.4 62.25 44.8 61.8 45.35 61.6 L46.05 61.45 46.75 61.5 Q49.0 62.95 48.65 65.15 48.35 67.3 46.4 68.4" fill="url(#decoration102-gradient16)" fill-rule="evenodd" stroke="none"/>
      <path d="M46.4 68.4 Q48.35 67.3 48.65 65.15 49.0 62.95 46.75 61.5 47.35 61.6 47.95 62.1 48.9 62.9 49.0 64.2 49.1 65.4 48.55 66.55 47.85 68.05 46.4 68.4" fill="#c3b29e" fill-rule="evenodd" stroke="none"/>
      <path d="M46.75 61.5 L46.05 61.45 45.35 61.6 Q44.8 61.8 44.4 62.25 43.85 62.9 43.8 63.65 43.7 64.3 44.25 64.75 L45.65 65.0 45.9 64.95 45.65 64.95 Q45.2 64.95 44.95 64.65 44.65 64.35 44.65 63.85 44.65 63.55 44.95 63.25 45.2 62.9 45.6 62.75 L45.65 62.7 46.4 62.7 46.75 62.75 Q47.15 62.9 47.4 63.25 47.9 64.05 47.65 65.25 47.35 66.55 46.45 66.9 L44.2 66.95 43.2 66.4 42.65 65.8 Q41.4 63.75 40.55 58.2 39.75 52.6 39.4 44.0 L38.55 44.0 Q38.9 58.2 40.45 63.45 41.4 66.75 43.2 67.9 44.55 68.75 46.3 68.4 L46.4 68.4 Q47.85 68.05 48.55 66.55 49.1 65.4 49.0 64.2 48.9 62.9 47.95 62.1 47.35 61.6 46.75 61.5 Z" fill="none" stroke="#000000" stroke-linecap="round" stroke-linejoin="round" stroke-opacity="0.29803923" stroke-width="0.30000000000000004" vector-effect="non-scaling-stroke"/>
      <path d="M45.85 3.0 Q45.05 3.4 44.6 4.45 43.65 3.4 37.45 3.45 32.3 3.55 30.85 4.15 30.55 3.55 29.85 2.9 L37.35 2.45 45.85 3.0" fill="#464242" fill-rule="evenodd" stroke="none"/>
      <path d="M29.35 0.95 L46.45 0.95 Q46.45 2.35 45.85 3.0 L37.35 2.45 29.85 2.9 Q29.3 2.05 29.35 0.95" fill="#4f4b4b" fill-rule="evenodd" stroke="none"/>
      <path d="M44.6 4.45 L37.5 5.0 31.0 4.55 30.85 4.15 Q32.3 3.55 37.45 3.45 43.65 3.4 44.6 4.45" fill="#2e2b2b" fill-rule="evenodd" stroke="none"/>
      <path d="M31.0 4.55 L30.4 4.45 Q29.9 3.4 29.1 3.0 L29.85 2.9 Q30.55 3.55 30.85 4.15 L31.0 4.55" fill="#565656" fill-rule="evenodd" stroke="none"/>
      <path d="M29.1 3.0 Q28.55 2.35 28.55 0.95 L29.35 0.95 Q29.3 2.05 29.85 2.9 L29.1 3.0" fill="#808080" fill-rule="evenodd" stroke="none"/>
      <path d="M29.35 0.95 L46.45 0.95 Q46.45 2.35 45.85 3.0 45.05 3.4 44.6 4.45 L37.5 5.0 31.0 4.55 30.4 4.45 Q29.9 3.4 29.1 3.0 28.55 2.35 28.55 0.95 L29.35 0.95 Z" fill="none" stroke="#000000" stroke-linecap="round" stroke-linejoin="round" stroke-opacity="0.29803923" stroke-width="0.30000000000000004" vector-effect="non-scaling-stroke"/>
      <path d="M18.9 54.5 Q16.45 54.05 15.1 53.0 13.55 51.7 13.45 49.85 13.4 48.85 13.7 48.1 13.9 47.4 14.35 47.05 15.1 46.35 16.0 46.15 L16.45 46.1 Q14.9 46.7 14.45 47.45 13.55 48.65 13.9 50.35 14.15 53.0 18.9 54.5" fill="#aaaaaa" fill-rule="evenodd" stroke="none"/>
      <path d="M17.1 46.25 L17.5 46.4 Q18.5 46.85 18.5 47.7 18.55 48.6 17.85 49.05 L16.65 49.35 Q15.7 49.3 15.2 48.75 L17.6 48.85 Q18.1 48.65 18.25 48.0 18.35 46.95 17.1 46.25 M16.55 47.6 L16.75 47.65 17.3 47.95 17.05 48.4 Q16.7 48.6 16.25 48.4 17.15 48.4 17.1 48.0 L16.55 47.6" fill="#585450" fill-rule="evenodd" stroke="none"/>
      <path d="M16.45 46.1 L17.1 46.25 Q18.35 46.95 18.25 48.0 18.1 48.65 17.6 48.85 L15.2 48.75 Q14.95 50.4 15.9 51.45 16.9 52.5 18.8 52.95 32.4 55.2 35.1 44.2 L36.2 44.2 35.55 46.55 Q33.8 51.3 29.65 53.25 25.55 55.2 18.9 54.5 14.15 53.0 13.9 50.35 13.55 48.65 14.45 47.45 14.9 46.7 16.45 46.1 M16.25 48.4 Q16.7 48.6 17.05 48.4 L17.3 47.95 16.75 47.65 16.55 47.6 17.1 48.0 Q17.15 48.4 16.25 48.4 M15.2 48.75 Q15.3 48.05 15.9 47.75 L16.55 47.6 15.9 47.75 Q15.3 48.05 15.2 48.75" fill="url(#decoration102-gradient17)" fill-rule="evenodd" stroke="none"/>
      <path d="M18.9 54.5 Q16.45 54.05 15.1 53.0 13.55 51.7 13.45 49.85 13.4 48.85 13.7 48.1 13.9 47.4 14.35 47.05 15.1 46.35 16.0 46.15 L16.45 46.1 17.1 46.25 17.5 46.4 Q18.5 46.85 18.5 47.7 18.55 48.6 17.85 49.05 L16.65 49.35 Q15.7 49.3 15.2 48.75 14.95 50.4 15.9 51.45 16.9 52.5 18.8 52.95 32.4 55.2 35.1 44.2 L36.2 44.2 35.55 46.55 Q33.8 51.3 29.65 53.25 25.55 55.2 18.9 54.5 M16.55 47.6 L16.75 47.65 17.3 47.95 17.05 48.4 Q16.7 48.6 16.25 48.4 M16.55 47.6 L15.9 47.75 Q15.3 48.05 15.2 48.75" fill="none" stroke="#000000" stroke-linecap="round" stroke-linejoin="round" stroke-opacity="0.29803923" stroke-width="0.30000000000000004" vector-effect="non-scaling-stroke"/>
      <path d="M13.2 55.25 Q8.85 54.1 8.7 47.5 8.0 47.05 7.25 47.1 L6.75 47.15 6.75 46.6 9.1 46.6 Q8.8 53.5 13.2 55.25" fill="#585450" fill-rule="evenodd" stroke="none"/>
      <path d="M7.25 47.1 Q7.05 54.75 13.2 57.6 6.9 56.0 6.75 47.15 L7.25 47.1" fill="#aaaaaa" fill-rule="evenodd" stroke="none"/>
      <path d="M13.2 55.25 Q32.1 58.8 34.95 44.1 L36.9 44.1 Q33.9 60.5 13.2 57.6 7.05 54.75 7.25 47.1 8.0 47.05 8.7 47.5 8.85 54.1 13.2 55.25" fill="url(#decoration102-gradient18)" fill-rule="evenodd" stroke="none"/>
      <path d="M13.2 57.6 Q33.9 60.5 36.9 44.1 L34.95 44.1 Q32.1 58.8 13.2 55.25 8.8 53.5 9.1 46.6 L6.75 46.6 6.75 47.15 Q6.9 56.0 13.2 57.6 Z" fill="none" stroke="#000000" stroke-linecap="round" stroke-linejoin="round" stroke-opacity="0.29803923" stroke-width="0.30000000000000004" vector-effect="non-scaling-stroke"/>
      <path d="M11.25 64.6 L13.15 64.35 Q13.85 63.95 13.7 63.25 13.5 62.6 12.5 62.45 L10.75 62.6 Q10.05 62.95 9.85 63.65 9.6 64.3 9.9 65.1 10.15 65.8 11.55 66.45 12.85 67.05 14.3 67.1 25.85 67.8 31.2 57.2 33.0 53.65 33.95 49.15 34.55 46.05 34.55 43.85 L35.65 43.85 Q35.5 46.2 34.95 49.15 L33.8 53.9 32.5 57.3 30.05 61.25 Q27.0 65.45 22.2 67.3 L19.15 68.15 17.75 68.35 Q14.05 68.85 11.5 67.85 10.1 67.05 9.5 66.4 7.95 64.0 9.55 62.25 10.05 61.7 11.9 61.3 L13.3 61.6 13.35 61.65 Q15.0 62.55 14.5 64.0 14.0 65.45 11.25 64.6" fill="url(#decoration102-gradient19)" fill-rule="evenodd" stroke="none"/>
      <path d="M11.9 61.3 Q10.05 61.7 9.55 62.25 7.95 64.0 9.5 66.4 10.1 67.05 11.5 67.85 10.25 67.4 9.3 66.55 7.5 64.15 9.3 61.95 10.15 61.25 11.6 61.25 L11.9 61.3" fill="#aaaaaa" fill-rule="evenodd" stroke="none"/>
      <path d="M11.25 64.6 Q14.0 65.45 14.5 64.0 15.0 62.55 13.35 61.65 L14.4 62.3 Q15.1 62.9 14.8 63.9 14.45 64.95 13.2 65.1 L12.15 65.0 11.25 64.6" fill="#585450" fill-rule="evenodd" stroke="none"/>
      <path d="M11.5 67.85 Q14.05 68.85 17.75 68.35 L19.15 68.15 22.2 67.3 Q27.0 65.45 30.05 61.25 L32.5 57.3 33.8 53.9 34.95 49.15 Q35.5 46.2 35.65 43.85 L34.55 43.85 Q34.55 46.05 33.95 49.15 33.0 53.65 31.2 57.2 25.85 67.8 14.3 67.1 12.85 67.05 11.55 66.45 10.15 65.8 9.9 65.1 9.6 64.3 9.85 63.65 10.05 62.95 10.75 62.6 L12.5 62.45 Q13.5 62.6 13.7 63.25 13.85 63.95 13.15 64.35 L11.25 64.6 12.15 65.0 13.2 65.1 Q14.45 64.95 14.8 63.9 15.1 62.9 14.4 62.3 L13.35 61.65 M13.3 61.6 L11.9 61.3 11.6 61.25 Q10.15 61.25 9.3 61.95 7.5 64.15 9.3 66.55 10.25 67.4 11.5 67.85" fill="none" stroke="#000000" stroke-linecap="round" stroke-linejoin="round" stroke-opacity="0.29803923" stroke-width="0.30000000000000004" vector-effect="non-scaling-stroke"/>
      <path d="M5.25 69.85 Q7.25 71.0 10.05 71.2 14.85 71.5 19.25 69.75 23.6 68.0 27.0 64.4 30.15 61.1 32.1 56.9 34.7 51.35 35.25 44.15 L35.25 43.65 36.7 43.65 36.7 44.15 Q36.1 50.4 34.15 55.4 31.85 61.4 27.5 65.8 23.75 69.6 19.0 71.45 14.15 73.35 8.85 73.05 L6.4 72.7 Q-0.75 70.2 -0.55 61.2 L0.75 61.45 Q1.3 67.8 5.25 69.85" fill="url(#decoration102-gradient20)" fill-rule="evenodd" stroke="none"/>
      <path d="M-0.55 61.2 Q-0.75 70.2 6.4 72.7 2.45 71.75 0.55 68.55 -1.1 65.8 -1.0 61.2 L-0.55 61.2" fill="#aaaaaa" fill-rule="evenodd" stroke="none"/>
      <path d="M5.25 69.85 Q1.3 67.8 0.75 61.45 L-0.55 61.2 -1.0 61.2 -1.0 60.7 1.2 60.7 Q0.95 64.25 2.55 67.0 3.55 68.8 5.25 69.85" fill="#585450" fill-rule="evenodd" stroke="none"/>
      <path d="M6.4 72.7 L8.85 73.05 Q14.15 73.35 19.0 71.45 23.75 69.6 27.5 65.8 31.85 61.4 34.15 55.4 36.1 50.4 36.7 44.15 L36.7 43.65 35.25 43.65 35.25 44.15 Q34.7 51.35 32.1 56.9 30.15 61.1 27.0 64.4 23.6 68.0 19.25 69.75 14.85 71.5 10.05 71.2 7.25 71.0 5.25 69.85 3.55 68.8 2.55 67.0 0.95 64.25 1.2 60.7 L-1.0 60.7 -1.0 61.2 Q-1.1 65.8 0.55 68.55 2.45 71.75 6.4 72.7 Z" fill="none" stroke="#000000" stroke-linecap="round" stroke-linejoin="round" stroke-opacity="0.29803923" stroke-width="0.30000000000000004" vector-effect="non-scaling-stroke"/>
      <path d="M26.25 45.4 L26.0 45.4 26.0 44.0 25.9 43.75 25.5 43.1 36.15 43.1 Q35.85 43.4 35.8 43.75 L35.65 44.0 35.65 45.4 35.35 45.4 26.25 45.4 M25.9 43.75 L35.8 43.75 25.9 43.75" fill="#545151" fill-rule="evenodd" stroke="none"/>
      <path d="M35.35 45.4 Q33.9 45.75 33.05 46.6 L28.55 46.6 Q27.65 45.7 26.25 45.4 L35.35 45.4" fill="#3a3a3a" fill-rule="evenodd" stroke="none"/>
      <path d="M35.35 45.4 Q33.9 45.75 33.05 46.6 L28.55 46.6 Q27.65 45.7 26.25 45.4 L26.0 45.4 26.0 44.0 25.9 43.75 25.5 43.1 36.15 43.1 Q35.85 43.4 35.8 43.75 L35.65 44.0 35.65 45.4 35.35 45.4 26.25 45.4 M35.8 43.75 L25.9 43.75" fill="none" stroke="#000000" stroke-linecap="round" stroke-linejoin="round" stroke-opacity="0.29803923" stroke-width="0.30000000000000004" vector-effect="non-scaling-stroke"/>
      <path d="M25.2 69.9 L26.0 70.55 Q27.05 71.25 28.35 71.15 30.5 71.0 31.75 68.85 33.1 66.6 34.05 61.4 35.15 55.55 35.5 44.0 L37.1 44.0 Q36.45 57.5 35.25 63.2 34.1 68.6 32.05 71.05 30.1 73.35 27.15 73.2 L25.2 72.75 Q21.15 70.0 21.45 61.3 22.35 61.35 23.1 61.8 23.2 68.05 25.2 69.9" fill="url(#decoration102-gradient21)" fill-rule="evenodd" stroke="none"/>
      <path d="M21.05 61.3 L21.05 60.55 23.4 60.55 23.6 64.65 Q23.8 66.65 24.25 68.05 24.6 69.15 25.2 69.9 23.2 68.05 23.1 61.8 22.35 61.35 21.45 61.3 L21.05 61.3" fill="#585450" fill-rule="evenodd" stroke="none"/>
      <path d="M25.2 72.75 Q23.15 71.9 22.05 69.4 20.85 66.6 21.05 61.3 L21.45 61.3 Q21.15 70.0 25.2 72.75" fill="#aaaaaa" fill-rule="evenodd" stroke="none"/>
      <path d="M25.2 69.9 L26.0 70.55 Q27.05 71.25 28.35 71.15 30.5 71.0 31.75 68.85 33.1 66.6 34.05 61.4 35.15 55.55 35.5 44.0 L37.1 44.0 Q36.45 57.5 35.25 63.2 34.1 68.6 32.05 71.05 30.1 73.35 27.15 73.2 L25.2 72.75 Q23.15 71.9 22.05 69.4 20.85 66.6 21.05 61.3 L21.05 60.55 23.4 60.55 23.6 64.65 Q23.8 66.65 24.25 68.05 24.6 69.15 25.2 69.9 Z" fill="none" stroke="#000000" stroke-linecap="round" stroke-linejoin="round" stroke-opacity="0.29803923" stroke-width="0.30000000000000004" vector-effect="non-scaling-stroke"/>
      <path d="M28.2 61.5 L28.85 61.45 29.55 61.6 Q30.1 61.8 30.55 62.25 31.05 62.9 31.15 63.65 31.2 64.3 30.65 64.75 30.05 65.2 29.25 65.0 L29.05 64.95 29.25 64.95 Q29.7 64.95 30.0 64.65 30.3 64.35 30.25 63.85 L30.0 63.25 29.35 62.75 29.25 62.7 28.5 62.7 28.2 62.75 27.55 63.25 Q27.0 64.05 27.25 65.25 27.55 66.55 28.5 66.9 L30.7 66.95 31.7 66.4 32.25 65.8 Q33.5 63.75 34.35 58.2 35.2 52.6 35.5 44.0 L36.35 44.0 Q36.05 58.2 34.5 63.45 33.5 66.75 31.7 67.9 30.4 68.75 28.6 68.4 L28.5 68.4 Q26.55 67.3 26.25 65.15 25.95 62.95 28.2 61.5" fill="url(#decoration102-gradient22)" fill-rule="evenodd" stroke="none"/>
      <path d="M28.5 68.4 Q27.1 68.05 26.35 66.55 25.8 65.4 25.9 64.2 26.0 62.9 27.0 62.1 27.55 61.6 28.2 61.5 25.95 62.95 26.25 65.15 26.55 67.3 28.5 68.4" fill="#aaaaaa" fill-rule="evenodd" stroke="none"/>
      <path d="M28.2 61.5 L28.85 61.45 29.55 61.6 Q30.1 61.8 30.55 62.25 31.05 62.9 31.15 63.65 31.2 64.3 30.65 64.75 30.05 65.2 29.25 65.0 L29.05 64.95 29.25 64.95 Q29.7 64.95 30.0 64.65 30.3 64.35 30.25 63.85 L30.0 63.25 29.35 62.75 29.25 62.7 28.5 62.7 28.2 62.75 27.55 63.25 Q27.0 64.05 27.25 65.25 27.55 66.55 28.5 66.9 L30.7 66.95 31.7 66.4 32.25 65.8 Q33.5 63.75 34.35 58.2 35.2 52.6 35.5 44.0 L36.35 44.0 Q36.05 58.2 34.5 63.45 33.5 66.75 31.7 67.9 30.4 68.75 28.6 68.4 L28.5 68.4 Q27.1 68.05 26.35 66.55 25.8 65.4 25.9 64.2 26.0 62.9 27.0 62.1 27.55 61.6 28.2 61.5 Z" fill="none" stroke="#000000" stroke-linecap="round" stroke-linejoin="round" stroke-opacity="0.29803923" stroke-width="0.30000000000000004" vector-effect="non-scaling-stroke"/>
      <path d="M46.6 1.1 L28.55 1.1 28.55 0.0 46.6 0.0 46.6 1.1" fill="#2e2b2b" fill-rule="evenodd" stroke="none"/>
      <path d="M46.6 1.1 L28.55 1.1 28.55 0.0 46.6 0.0 46.6 1.1 Z" fill="none" stroke="#000000" stroke-linecap="round" stroke-linejoin="round" stroke-opacity="0.29803923" stroke-width="0.30000000000000004" vector-effect="non-scaling-stroke"/>
      <path d="M34.95 39.85 Q34.0 37.0 34.05 34.0 34.45 32.75 35.65 31.9 34.75 31.15 34.5 30.35 35.05 29.5 36.0 28.9 L35.95 28.9 Q35.25 28.4 36.35 27.75 36.6 19.05 35.35 10.3 L35.2 10.3 Q34.9 9.9 35.5 9.4 36.15 8.8 35.35 8.35 34.5 7.95 35.3 7.3 35.1 6.1 32.55 4.9 L33.75 4.9 Q35.45 5.95 36.0 7.3 35.35 7.9 36.25 8.45 36.8 8.95 36.25 9.3 35.35 9.8 35.85 10.3 L35.55 10.3 35.85 10.35 Q36.9 19.2 36.75 27.75 L36.35 27.75 36.75 27.75 Q35.65 28.65 36.55 28.85 L36.4 28.9 36.85 28.9 Q35.15 29.65 35.35 30.35 L36.8 30.35 Q35.35 30.4 35.2 30.9 L35.9 31.85 35.65 31.9 36.5 31.9 Q35.0 32.45 34.35 34.0 34.25 36.85 34.95 39.85 M34.5 30.35 L35.35 30.35 34.5 30.35 M35.3 7.3 L36.0 7.3 35.3 7.3 M35.35 10.3 L35.55 10.3 35.35 10.3 M36.0 28.9 L36.4 28.9 36.0 28.9" fill="#b4b4b4" fill-rule="evenodd" stroke="none"/>
      <path d="M39.4 4.9 L42.2 4.9 Q39.65 6.1 39.45 7.3 40.2 7.95 39.4 8.35 38.6 8.8 39.25 9.4 39.85 9.9 39.55 10.3 L39.4 10.3 Q38.15 19.05 38.4 27.75 39.5 28.4 38.8 28.9 L38.75 28.9 40.2 30.35 Q40.0 31.15 39.1 31.9 40.3 32.75 40.7 34.0 40.75 37.95 39.1 41.5 L38.25 41.55 36.15 41.55 35.65 41.5 Q37.2 41.35 38.5 40.65 40.25 38.7 40.3 34.25 40.15 33.0 39.1 31.9 L36.5 31.9 35.65 31.9 35.9 31.85 Q38.85 31.6 39.15 30.35 39.25 29.7 38.55 28.9 L36.85 28.9 36.4 28.9 36.55 28.85 37.0 28.85 Q38.95 28.65 38.4 27.75 L36.75 27.75 Q37.95 27.4 37.85 24.95 37.75 22.2 38.05 18.35 L38.35 13.8 38.5 11.35 Q38.55 10.55 35.85 10.35 L35.55 10.3 35.85 10.3 37.65 10.3 Q38.85 9.85 38.25 9.3 37.95 8.9 38.25 8.45 39.0 7.8 37.35 7.3 L37.9 7.3 Q38.0 5.7 39.4 4.9 M39.1 41.55 L39.4 41.55 Q40.25 42.9 40.25 44.25 37.4 44.5 34.5 44.25 L34.5 43.95 Q35.75 44.15 37.35 43.95 40.1 43.45 39.1 41.55 M39.4 10.3 L37.65 10.3 39.4 10.3 M37.9 7.3 L39.45 7.3 37.9 7.3 M38.75 28.9 L38.55 28.9 38.75 28.9 M40.2 30.35 L39.15 30.35 40.2 30.35" fill="#5b5854" fill-rule="evenodd" stroke="none"/>
      <path d="M33.75 4.9 L39.4 4.9 Q38.0 5.7 37.9 7.3 L37.35 7.3 36.0 7.3 37.35 7.3 Q39.0 7.8 38.25 8.45 37.95 8.9 38.25 9.3 38.85 9.85 37.65 10.3 L35.85 10.3 Q35.35 9.8 36.25 9.3 36.8 8.95 36.25 8.45 35.35 7.9 36.0 7.3 35.45 5.95 33.75 4.9 M38.25 41.55 L39.1 41.55 Q40.1 43.45 37.35 43.95 35.75 44.15 34.5 43.95 34.8 42.65 35.65 41.55 L36.15 41.55 38.25 41.55 M35.65 41.5 L35.35 40.9 35.35 40.85 34.95 39.85 Q34.25 36.85 34.35 34.0 35.0 32.45 36.5 31.9 L39.1 31.9 Q40.15 33.0 40.3 34.25 40.25 38.7 38.5 40.65 37.2 41.35 35.65 41.5 M35.9 31.85 L35.2 30.9 Q35.35 30.4 36.8 30.35 L35.35 30.35 Q35.15 29.65 36.85 28.9 L38.55 28.9 Q39.25 29.7 39.15 30.35 L38.25 30.35 39.15 30.35 Q38.85 31.6 35.9 31.85 M35.85 10.35 Q38.55 10.55 38.5 11.35 L38.35 13.8 38.05 18.35 Q37.75 22.2 37.85 24.95 37.95 27.4 36.75 27.75 36.9 19.2 35.85 10.35 M36.75 27.75 L38.4 27.75 Q38.95 28.65 37.0 28.85 L36.55 28.85 Q35.65 28.65 36.75 27.75" fill="#808080" fill-rule="evenodd" stroke="none"/>
      <path d="M34.5 43.95 Q34.6 42.75 35.35 41.55 L35.65 41.55 Q34.8 42.65 34.5 43.95" fill="#c3b29e" fill-rule="evenodd" stroke="none"/>
      <path d="M34.95 39.85 Q34.0 37.0 34.05 34.0 34.45 32.75 35.65 31.9 34.75 31.15 34.5 30.35 35.05 29.5 36.0 28.9 L35.95 28.9 Q35.25 28.4 36.35 27.75 36.6 19.05 35.35 10.3 L35.2 10.3 Q34.9 9.9 35.5 9.4 36.15 8.8 35.35 8.35 34.5 7.95 35.3 7.3 35.1 6.1 32.55 4.9 L33.75 4.9 39.4 4.9 42.2 4.9 Q39.65 6.1 39.45 7.3 40.2 7.95 39.4 8.35 38.6 8.8 39.25 9.4 39.85 9.9 39.55 10.3 L39.4 10.3 Q38.15 19.05 38.4 27.75 39.5 28.4 38.8 28.9 L38.75 28.9 40.2 30.35 Q40.0 31.15 39.1 31.9 40.3 32.75 40.7 34.0 40.75 37.95 39.1 41.5 L38.25 41.55 39.1 41.55 39.4 41.55 Q40.25 42.9 40.25 44.25 37.4 44.5 34.5 44.25 L34.5 43.95 Q34.6 42.75 35.35 41.55 L35.65 41.55 36.15 41.55 35.65 41.5 35.35 40.9 M35.35 40.85 L34.95 39.85 M36.5 31.9 L35.65 31.9 M36.8 30.35 L35.35 30.35 34.5 30.35 M37.35 7.3 L37.9 7.3 39.45 7.3 M36.0 7.3 L37.35 7.3 M37.65 10.3 L39.4 10.3 M36.0 7.3 L35.3 7.3 M35.85 10.3 L37.65 10.3 M35.55 10.3 L35.35 10.3 M35.55 10.3 L35.85 10.3 M36.75 27.75 L38.4 27.75 M36.4 28.9 L36.85 28.9 38.55 28.9 38.75 28.9 M36.75 27.75 L36.35 27.75 M36.4 28.9 L36.0 28.9 M39.15 30.35 L40.2 30.35 M39.15 30.35 L38.25 30.35 M39.1 31.9 L36.5 31.9 M36.15 41.55 L38.25 41.55" fill="none" stroke="#000000" stroke-linecap="round" stroke-linejoin="round" stroke-opacity="0.29803923" stroke-width="0.30000000000000004" vector-effect="non-scaling-stroke"/>
      <path d="M35.95 33.05 Q36.5 33.3 36.65 34.05 L36.4 35.45 35.85 36.25 35.25 37.25 Q34.9 38.25 35.45 39.5 36.0 40.75 36.25 40.8 36.1 40.4 36.45 40.3 36.85 40.45 36.6 40.9 L36.2 41.1 35.7 40.7 Q35.15 39.9 34.95 38.9 34.75 37.95 34.95 37.15 L35.55 36.15 36.1 35.3 36.35 34.05 Q36.3 33.5 35.85 33.35 L35.2 33.45 Q34.85 33.65 34.75 34.1 34.95 34.55 34.65 34.75 34.2 34.75 34.55 33.95 34.75 33.5 35.15 33.2 L35.95 33.05" fill="#808080" fill-rule="evenodd" stroke="none"/>
      <path d="M35.95 33.05 Q36.5 33.3 36.65 34.05 L36.4 35.45 35.85 36.25 35.25 37.25 Q34.9 38.25 35.45 39.5 36.0 40.75 36.25 40.8 36.1 40.4 36.45 40.3 36.85 40.45 36.6 40.9 L36.2 41.1 35.7 40.7 Q35.15 39.9 34.95 38.9 34.75 37.95 34.95 37.15 L35.55 36.15 36.1 35.3 36.35 34.05 Q36.3 33.5 35.85 33.35 L35.2 33.45 Q34.85 33.65 34.75 34.1 34.95 34.55 34.65 34.75 34.2 34.75 34.55 33.95 34.75 33.5 35.15 33.2 L35.95 33.05 Z" fill="none" stroke="#000000" stroke-linecap="round" stroke-linejoin="round" stroke-opacity="0.29803923" stroke-width="0.30000000000000004" vector-effect="non-scaling-stroke"/>
      <path d="M35.8 42.6 Q35.55 42.75 35.55 43.05 L35.8 43.55 35.35 43.7 35.1 43.5 35.05 43.35 Q34.9 42.85 35.15 42.5 35.35 42.1 35.85 42.15 L36.3 42.2 36.8 42.65 Q37.15 43.15 37.0 43.75 L36.55 42.75 Q36.2 42.4 35.8 42.6" fill="#808080" fill-rule="evenodd" stroke="none"/>
      <path d="M35.8 42.6 Q35.55 42.75 35.55 43.05 L35.8 43.55 35.35 43.7 35.1 43.5 35.05 43.35 Q34.9 42.85 35.15 42.5 35.35 42.1 35.85 42.15 L36.3 42.2 36.8 42.65 Q37.15 43.15 37.0 43.75 L36.55 42.75 Q36.2 42.4 35.8 42.6 Z" fill="none" stroke="#000000" stroke-linecap="round" stroke-linejoin="round" stroke-opacity="0.29803923" stroke-width="0.30000000000000004" vector-effect="non-scaling-stroke"/>
      <path d="M38.85 33.05 Q38.3 33.3 38.15 34.05 38.05 34.8 38.4 35.45 L38.95 36.25 39.55 37.25 Q39.9 38.25 39.35 39.5 L38.55 40.8 Q38.7 40.4 38.35 40.3 37.95 40.45 38.2 40.9 38.35 41.15 38.6 41.1 L39.1 40.7 39.85 38.9 Q40.05 37.95 39.85 37.15 L39.25 36.15 38.7 35.3 Q38.4 34.6 38.45 34.05 38.5 33.5 38.95 33.35 L39.6 33.45 40.05 34.1 Q39.85 34.55 40.15 34.75 40.6 34.75 40.25 33.95 L39.65 33.2 38.85 33.05" fill="#808080" fill-rule="evenodd" stroke="none"/>
      <path d="M38.85 33.05 Q38.3 33.3 38.15 34.05 38.05 34.8 38.4 35.45 L38.95 36.25 39.55 37.25 Q39.9 38.25 39.35 39.5 L38.55 40.8 Q38.7 40.4 38.35 40.3 37.95 40.45 38.2 40.9 38.35 41.15 38.6 41.1 L39.1 40.7 39.85 38.9 Q40.05 37.95 39.85 37.15 L39.25 36.15 38.7 35.3 Q38.4 34.6 38.45 34.05 38.5 33.5 38.95 33.35 L39.6 33.45 40.05 34.1 Q39.85 34.55 40.15 34.75 40.6 34.75 40.25 33.95 L39.65 33.2 38.85 33.05 Z" fill="none" stroke="#000000" stroke-linecap="round" stroke-linejoin="round" stroke-opacity="0.29803923" stroke-width="0.30000000000000004" vector-effect="non-scaling-stroke"/>
      <path d="M38.95 42.15 Q38.3 42.15 38.0 42.65 37.65 43.15 37.8 43.75 37.95 43.05 38.25 42.75 38.6 42.4 39.0 42.6 L39.25 43.05 39.0 43.55 39.45 43.7 39.75 43.35 Q39.9 42.85 39.65 42.5 39.45 42.1 38.95 42.15" fill="#808080" fill-rule="evenodd" stroke="none"/>
      <path d="M38.95 42.15 Q38.3 42.15 38.0 42.65 37.65 43.15 37.8 43.75 37.95 43.05 38.25 42.75 38.6 42.4 39.0 42.6 L39.25 43.05 39.0 43.55 39.45 43.7 39.75 43.35 Q39.9 42.85 39.65 42.5 39.45 42.1 38.95 42.15 Z" fill="none" stroke="#000000" stroke-linecap="round" stroke-linejoin="round" stroke-opacity="0.29803923" stroke-width="0.30000000000000004" vector-effect="non-scaling-stroke"/>
      <path d="M20.65 46.6 Q20.35 53.5 24.55 55.2 30.7 57.0 35.35 44.2 L37.25 44.05 Q32.1 59.05 23.9 57.5 17.95 55.95 18.0 46.6 L20.65 46.6" fill="url(#decoration102-gradient23)" fill-rule="evenodd" stroke="none"/>
      <path d="M20.65 46.6 Q20.35 53.5 24.55 55.2 30.7 57.0 35.35 44.2 L37.25 44.05 Q32.1 59.05 23.9 57.5 17.95 55.95 18.0 46.6 L20.65 46.6 Z" fill="none" stroke="#000000" stroke-linecap="round" stroke-linejoin="round" stroke-opacity="0.29803923" stroke-width="0.30000000000000004" vector-effect="non-scaling-stroke"/>
      <path d="M54.25 46.6 L56.85 46.6 Q56.95 55.95 51.0 57.5 42.8 59.05 37.6 44.05 L39.5 44.2 Q44.15 57.0 50.35 55.2 54.55 53.5 54.25 46.6" fill="url(#decoration102-gradient24)" fill-rule="evenodd" stroke="none"/>
      <path d="M54.25 46.6 Q54.55 53.5 50.35 55.2 44.15 57.0 39.5 44.2 L37.6 44.05 Q42.8 59.05 51.0 57.5 56.95 55.95 56.85 46.6 L54.25 46.6 Z" fill="none" stroke="#000000" stroke-linecap="round" stroke-linejoin="round" stroke-opacity="0.29803923" stroke-width="0.30000000000000004" vector-effect="non-scaling-stroke"/>
      <path d="M17.6 59.45 L17.35 59.45 17.35 58.15 17.25 57.9 16.8 57.3 27.75 57.3 27.35 57.9 27.25 58.15 27.25 59.45 26.95 59.45 17.6 59.45 M17.25 57.9 L27.35 57.9 17.25 57.9" fill="#808080" fill-rule="evenodd" stroke="none"/>
      <path d="M26.95 59.45 Q25.5 59.85 24.6 60.65 L19.95 60.65 Q19.0 59.75 17.6 59.45 L26.95 59.45" fill="#545151" fill-rule="evenodd" stroke="none"/>
      <path d="M17.6 59.45 L17.35 59.45 17.35 58.15 17.25 57.9 16.8 57.3 27.75 57.3 27.35 57.9 27.25 58.15 27.25 59.45 26.95 59.45 Q25.5 59.85 24.6 60.65 L19.95 60.65 Q19.0 59.75 17.6 59.45 L26.95 59.45 M27.35 57.9 L17.25 57.9" fill="none" stroke="#000000" stroke-linecap="round" stroke-linejoin="round" stroke-opacity="0.29803923" stroke-width="0.30000000000000004" vector-effect="non-scaling-stroke"/>
      <path d="M4.9 59.6 Q3.35 59.95 2.45 60.8 L-2.4 60.8 Q-3.35 59.9 -4.85 59.6 L4.9 59.6" fill="#545151" fill-rule="evenodd" stroke="none"/>
      <path d="M-4.85 59.6 L-5.1 59.6 -5.1 58.2 -5.2 57.95 -5.65 57.3 5.75 57.3 5.35 57.95 5.2 58.2 5.2 59.6 4.9 59.6 -4.85 59.6 M-5.2 57.95 L5.35 57.95 -5.2 57.95" fill="#808080" fill-rule="evenodd" stroke="none"/>
      <path d="M-4.85 59.6 L-5.1 59.6 -5.1 58.2 -5.2 57.95 -5.65 57.3 5.75 57.3 5.35 57.95 5.2 58.2 5.2 59.6 4.9 59.6 Q3.35 59.95 2.45 60.8 L-2.4 60.8 Q-3.35 59.9 -4.85 59.6 L4.9 59.6 M5.35 57.95 L-5.2 57.95" fill="none" stroke="#000000" stroke-linecap="round" stroke-linejoin="round" stroke-opacity="0.29803923" stroke-width="0.30000000000000004" vector-effect="non-scaling-stroke"/>
      <path d="M57.85 59.6 Q56.3 59.95 55.4 60.8 L50.55 60.8 Q49.6 59.9 48.1 59.6 L57.85 59.6" fill="#545151" fill-rule="evenodd" stroke="none"/>
      <path d="M48.1 59.6 L47.85 59.6 47.85 58.2 47.75 57.95 47.3 57.3 58.7 57.3 58.3 57.95 58.15 58.2 58.15 59.6 57.85 59.6 48.1 59.6 M47.75 57.95 L58.3 57.95 47.75 57.95" fill="#808080" fill-rule="evenodd" stroke="none"/>
      <path d="M48.1 59.6 L47.85 59.6 47.85 58.2 47.75 57.95 47.3 57.3 58.7 57.3 58.3 57.95 58.15 58.2 58.15 59.6 57.85 59.6 Q56.3 59.95 55.4 60.8 L50.55 60.8 Q49.6 59.9 48.1 59.6 L57.85 59.6 M58.3 57.95 L47.75 57.95" fill="none" stroke="#000000" stroke-linecap="round" stroke-linejoin="round" stroke-opacity="0.29803923" stroke-width="0.30000000000000004" vector-effect="non-scaling-stroke"/>
      <path d="M70.25 59.95 L70.0 59.95 70.0 58.55 69.9 58.3 69.45 57.65 80.85 57.65 80.45 58.3 80.3 58.55 80.3 59.95 80.0 59.95 70.25 59.95 M69.9 58.3 L80.45 58.3 69.9 58.3" fill="#808080" fill-rule="evenodd" stroke="none"/>
      <path d="M80.0 59.95 Q78.45 60.3 77.55 61.15 L72.7 61.15 Q71.75 60.25 70.25 59.95 L80.0 59.95" fill="#545151" fill-rule="evenodd" stroke="none"/>
      <path d="M80.0 59.95 Q78.45 60.3 77.55 61.15 L72.7 61.15 Q71.75 60.25 70.25 59.95 L70.0 59.95 70.0 58.55 69.9 58.3 69.45 57.65 80.85 57.65 80.45 58.3 80.3 58.55 80.3 59.95 80.0 59.95 70.25 59.95 M80.45 58.3 L69.9 58.3" fill="none" stroke="#000000" stroke-linecap="round" stroke-linejoin="round" stroke-opacity="0.29803923" stroke-width="0.30000000000000004" vector-effect="non-scaling-stroke"/>
      <path d="M62.25 45.4 L62.0 45.4 62.0 44.0 61.9 43.75 61.45 43.1 72.85 43.1 72.45 43.75 72.3 44.0 72.3 45.4 72.0 45.4 62.25 45.4 M61.9 43.75 L72.45 43.75 61.9 43.75" fill="#808080" fill-rule="evenodd" stroke="none"/>
      <path d="M72.0 45.4 Q70.45 45.75 69.55 46.6 L64.7 46.6 Q63.75 45.7 62.25 45.4 L72.0 45.4" fill="#545151" fill-rule="evenodd" stroke="none"/>
      <path d="M72.0 45.4 Q70.45 45.75 69.55 46.6 L64.7 46.6 Q63.75 45.7 62.25 45.4 L62.0 45.4 62.0 44.0 61.9 43.75 61.45 43.1 72.85 43.1 72.45 43.75 72.3 44.0 72.3 45.4 72.0 45.4 62.25 45.4 M72.45 43.75 L61.9 43.75" fill="none" stroke="#000000" stroke-linecap="round" stroke-linejoin="round" stroke-opacity="0.29803923" stroke-width="0.30000000000000004" vector-effect="non-scaling-stroke"/>
      <path d="M60.8 45.4 Q59.25 45.75 58.35 46.6 L53.5 46.6 Q52.55 45.7 51.05 45.4 L60.8 45.4" fill="#545151" fill-rule="evenodd" stroke="none"/>
      <path d="M51.05 45.4 L50.8 45.4 50.8 44.0 50.7 43.75 50.25 43.1 61.65 43.1 61.25 43.75 61.1 44.0 61.1 45.4 60.8 45.4 51.05 45.4 M50.7 43.75 L61.25 43.75 50.7 43.75" fill="#808080" fill-rule="evenodd" stroke="none"/>
      <path d="M60.8 45.4 Q59.25 45.75 58.35 46.6 L53.5 46.6 Q52.55 45.7 51.05 45.4 L50.8 45.4 50.8 44.0 50.7 43.75 50.25 43.1 61.65 43.1 61.25 43.75 61.1 44.0 61.1 45.4 60.8 45.4 51.05 45.4 M61.25 43.75 L50.7 43.75" fill="none" stroke="#000000" stroke-linecap="round" stroke-linejoin="round" stroke-opacity="0.29803923" stroke-width="0.30000000000000004" vector-effect="non-scaling-stroke"/>
      <path d="M24.4 45.8 Q22.95 46.2 22.05 47.0 L17.4 47.0 Q16.45 46.1 15.05 45.8 L24.4 45.8" fill="#545151" fill-rule="evenodd" stroke="none"/>
      <path d="M15.05 45.8 L14.8 45.8 14.8 44.5 14.7 44.25 14.25 43.65 25.2 43.65 24.8 44.25 24.7 44.5 24.7 45.8 24.4 45.8 15.05 45.8 M14.7 44.25 L24.8 44.25 14.7 44.25" fill="#808080" fill-rule="evenodd" stroke="none"/>
      <path d="M24.4 45.8 Q22.95 46.2 22.05 47.0 L17.4 47.0 Q16.45 46.1 15.05 45.8 L14.8 45.8 14.8 44.5 14.7 44.25 14.25 43.65 25.2 43.65 24.8 44.25 24.7 44.5 24.7 45.8 24.4 45.8 15.05 45.8 M24.8 44.25 L14.7 44.25" fill="none" stroke="#000000" stroke-linecap="round" stroke-linejoin="round" stroke-opacity="0.29803923" stroke-width="0.30000000000000004" vector-effect="non-scaling-stroke"/>
      <path d="M3.05 45.8 L2.8 45.8 2.8 44.5 2.7 44.25 2.25 43.65 13.2 43.65 12.8 44.25 12.7 44.5 12.7 45.8 12.4 45.8 3.05 45.8 M2.7 44.25 L12.8 44.25 2.7 44.25" fill="#808080" fill-rule="evenodd" stroke="none"/>
      <path d="M12.4 45.8 Q10.95 46.2 10.05 47.0 L5.4 47.0 Q4.45 46.1 3.05 45.8 L12.4 45.8" fill="#545151" fill-rule="evenodd" stroke="none"/>
      <path d="M12.4 45.8 Q10.95 46.2 10.05 47.0 L5.4 47.0 Q4.45 46.1 3.05 45.8 L2.8 45.8 2.8 44.5 2.7 44.25 2.25 43.65 13.2 43.65 12.8 44.25 12.7 44.5 12.7 45.8 12.4 45.8 3.05 45.8 M12.8 44.25 L2.7 44.25" fill="none" stroke="#000000" stroke-linecap="round" stroke-linejoin="round" stroke-opacity="0.29803923" stroke-width="0.30000000000000004" vector-effect="non-scaling-stroke"/>
    </g>
    <linearGradient gradientTransform="matrix(7.0E-4, -0.0046, 0.0148, 0.0023, 32.55, 48.4)" gradientUnits="userSpaceOnUse" id="decoration102-gradient8" spreadMethod="pad" x1="-819.2" x2="819.2">
      <stop offset="0.0" stop-color="#808080"/>
      <stop offset="1.0" stop-color="#48433e"/>
    </linearGradient>
    <linearGradient gradientTransform="matrix(-7.0E-4, -0.0046, -0.0148, 0.0023, 42.3, 50.75)" gradientUnits="userSpaceOnUse" id="decoration102-gradient9" spreadMethod="pad" x1="-819.2" x2="819.2">
      <stop offset="0.0" stop-color="#808080"/>
      <stop offset="1.0" stop-color="#48433e"/>
    </linearGradient>
    <linearGradient gradientTransform="matrix(7.0E-4, -0.0055, 0.0148, 0.0028, 32.45, 49.45)" gradientUnits="userSpaceOnUse" id="decoration102-gradient10" spreadMethod="pad" x1="-819.2" x2="819.2">
      <stop offset="0.0" stop-color="#808080"/>
      <stop offset="1.0" stop-color="#48433e"/>
    </linearGradient>
    <linearGradient gradientTransform="matrix(-7.0E-4, -0.0046, -0.0148, 0.0023, 42.35, 48.4)" gradientUnits="userSpaceOnUse" id="decoration102-gradient11" spreadMethod="pad" x1="-819.2" x2="819.2">
      <stop offset="0.0" stop-color="#808080"/>
      <stop offset="1.0" stop-color="#48433e"/>
    </linearGradient>
    <linearGradient gradientTransform="matrix(-0.0079, -0.0065, 0.0054, -0.0065, 49.7, 49.35)" gradientUnits="userSpaceOnUse" id="decoration102-gradient12" spreadMethod="pad" x1="-819.2" x2="819.2">
      <stop offset="0.0" stop-color="#808080"/>
      <stop offset="1.0" stop-color="#48433e"/>
    </linearGradient>
    <linearGradient gradientTransform="matrix(-7.0E-4, -0.0046, -0.0148, 0.0023, 42.35, 48.4)" gradientUnits="userSpaceOnUse" id="decoration102-gradient13" spreadMethod="pad" x1="-819.2" x2="819.2">
      <stop offset="0.0" stop-color="#808080"/>
      <stop offset="1.0" stop-color="#48433e"/>
    </linearGradient>
    <linearGradient gradientTransform="matrix(-0.0047, -0.0072, 0.0156, -0.0096, 46.45, 55.7)" gradientUnits="userSpaceOnUse" id="decoration102-gradient14" spreadMethod="pad" x1="-819.2" x2="819.2">
      <stop offset="0.0" stop-color="#808080"/>
      <stop offset="1.0" stop-color="#48433e"/>
    </linearGradient>
    <linearGradient gradientTransform="matrix(-5.0E-4, -0.0096, 0.0178, -9.0E-4, 44.65, 54.9)" gradientUnits="userSpaceOnUse" id="decoration102-gradient15" spreadMethod="pad" x1="-819.2" x2="819.2">
      <stop offset="0.0" stop-color="#808080"/>
      <stop offset="1.0" stop-color="#433e38"/>
    </linearGradient>
    <linearGradient gradientTransform="matrix(-0.0011, -0.0061, 0.0147, -0.0027, 43.6, 56.25)" gradientUnits="userSpaceOnUse" id="decoration102-gradient16" spreadMethod="pad" x1="-819.2" x2="819.2">
      <stop offset="0.0" stop-color="#808080"/>
      <stop offset="1.0" stop-color="#48433e"/>
    </linearGradient>
    <linearGradient gradientTransform="matrix(0.0027, -0.0037, 0.0121, 0.0087, 31.2, 51.75)" gradientUnits="userSpaceOnUse" id="decoration102-gradient17" spreadMethod="pad" x1="-819.2" x2="819.2">
      <stop offset="0.0" stop-color="#808080"/>
      <stop offset="1.0" stop-color="#5b544e"/>
    </linearGradient>
    <linearGradient gradientTransform="matrix(0.0089, -0.0036, 0.0032, 0.0079, 22.85, 50.95)" gradientUnits="userSpaceOnUse" id="decoration102-gradient18" spreadMethod="pad" x1="-819.2" x2="819.2">
      <stop offset="0.0" stop-color="#808080"/>
      <stop offset="1.0" stop-color="#433e38"/>
    </linearGradient>
    <linearGradient gradientTransform="matrix(0.0018, -0.0066, 0.0145, 0.0039, 22.15, 56.2)" gradientUnits="userSpaceOnUse" id="decoration102-gradient19" spreadMethod="pad" x1="-819.2" x2="819.2">
      <stop offset="0.0" stop-color="#808080"/>
      <stop offset="1.0" stop-color="#48433e"/>
    </linearGradient>
    <linearGradient gradientTransform="matrix(0.0096, -0.0095, 0.0128, 0.0127, 17.55, 58.75)" gradientUnits="userSpaceOnUse" id="decoration102-gradient20" spreadMethod="pad" x1="-819.2" x2="819.2">
      <stop offset="0.0" stop-color="#808080"/>
      <stop offset="1.0" stop-color="#48433e"/>
    </linearGradient>
    <linearGradient gradientTransform="matrix(0.0048, -0.0083, 0.0154, 0.0089, 29.3, 58.6)" gradientUnits="userSpaceOnUse" id="decoration102-gradient21" spreadMethod="pad" x1="-819.2" x2="819.2">
      <stop offset="0.0" stop-color="#808080"/>
      <stop offset="1.0" stop-color="#48433e"/>
    </linearGradient>
    <linearGradient gradientTransform="matrix(0.001, -0.0061, 0.0148, 0.0024, 31.25, 56.25)" gradientUnits="userSpaceOnUse" id="decoration102-gradient22" spreadMethod="pad" x1="-819.2" x2="819.2">
      <stop offset="0.0" stop-color="#808080"/>
      <stop offset="1.0" stop-color="#48433e"/>
    </linearGradient>
    <linearGradient gradientTransform="matrix(7.0E-4, -0.0046, 0.0148, 0.0023, 32.55, 48.4)" gradientUnits="userSpaceOnUse" id="decoration102-gradient23" spreadMethod="pad" x1="-819.2" x2="819.2">
      <stop offset="0.0" stop-color="#808080"/>
      <stop offset="1.0" stop-color="#5b544e"/>
    </linearGradient>
    <linearGradient gradientTransform="matrix(-0.0067, -0.0067, 0.0059, -0.0059, 45.2, 48.95)" gradientUnits="userSpaceOnUse" id="decoration102-gradient24" spreadMethod="pad" x1="-819.2" x2="819.2">
      <stop offset="0.0" stop-color="#808080"/>
      <stop offset="1.0" stop-color="#433e38"/>
    </linearGradient>
    <g id="decoration102-shape12" transform="matrix(1.0, 0.0, 0.0, 1.0, 41.7, -32.05)">
      <path d="M-37.15 40.45 L-37.15 39.75" fill="none" stroke="#000000" stroke-linecap="round" stroke-linejoin="round" stroke-opacity="0.29803923" stroke-width="1.0" vector-effect="non-scaling-stroke"/>
      <path d="M-37.15 32.05 Q-35.2 32.05 -33.85 33.65 -32.55 35.15 -32.55 37.35 -32.55 39.55 -33.85 41.1 -35.2 42.65 -37.15 42.65 -39.05 42.65 -40.35 41.1 -41.7 39.55 -41.7 37.35 -41.7 35.15 -40.35 33.65 -39.05 32.05 -37.15 32.05" fill="url(#decoration102-gradient25)" fill-rule="evenodd" stroke="none"/>
    </g>
    <radialGradient cx="0" cy="0" gradientTransform="matrix(-0.0053, 0.0, 0.0, 0.0064, -37.15, 37.35)" gradientUnits="userSpaceOnUse" id="decoration102-gradient25" r="819.2" spreadMethod="pad">
      <stop offset="0.0" stop-color="#fffdf5" stop-opacity="0.8784314"/>
      <stop offset="0.14901960784313725" stop-color="#ffd202" stop-opacity="0.7019608"/>
      <stop offset="0.39215686274509803" stop-color="#f79331" stop-opacity="0.5411765"/>
      <stop offset="0.615686274509804" stop-color="#fcc86f" stop-opacity="0.14117648"/>
      <stop offset="1.0" stop-color="#ffdd87" stop-opacity="0.0"/>
    </radialGradient>
    <g id="decoration102-sprite5" transform="matrix(1.0, 0.0, 0.0, 1.0, 22.5, 14.3)">
      <use ffdec:characterId="502" height="16.9" transform="matrix(1.0, 0.0, 0.0, 1.0, -22.5, -14.3)" width="79.05" xlink:href="#decoration102-shape13"/>
    </g>
    <g id="decoration102-shape13" transform="matrix(1.0, 0.0, 0.0, 1.0, 22.5, 14.3)">
      <path d="M2.95 1.8 L0.75 1.8 0.75 1.4 2.95 1.4 2.95 1.8" fill="#43403e" fill-rule="evenodd" stroke="none"/>
      <path d="M2.95 1.8 L0.75 1.8 0.75 1.4 2.95 1.4 2.95 1.8 Z" fill="none" stroke="#000000" stroke-linecap="round" stroke-linejoin="round" stroke-opacity="0.29803923" stroke-width="1.0" vector-effect="non-scaling-stroke"/>
      <path d="M3.75 0.0 L3.75 1.35 0.45 1.4 0.0 1.35 0.0 0.0 3.75 0.0" fill="#808080" fill-rule="evenodd" stroke="none"/>
      <path d="M3.75 0.0 L3.75 1.35 0.45 1.4 0.0 1.35 0.0 0.0 3.75 0.0 Z" fill="none" stroke="#000000" stroke-linecap="round" stroke-linejoin="round" stroke-opacity="0.3019608" stroke-width="0.05"/>
      <path d="M-21.75 1.8 L-21.75 1.4 -19.55 1.4 -19.55 1.8 -21.75 1.8" fill="#43403e" fill-rule="evenodd" stroke="none"/>
      <path d="M-21.75 1.8 L-21.75 1.4 -19.55 1.4 -19.55 1.8 -21.75 1.8 Z" fill="none" stroke="#000000" stroke-linecap="round" stroke-linejoin="round" stroke-opacity="0.29803923" stroke-width="1.0" vector-effect="non-scaling-stroke"/>
      <path d="M-18.75 1.35 L-22.05 1.4 -22.5 1.35 -22.5 0.0 -18.75 0.0 -18.75 1.35" fill="#808080" fill-rule="evenodd" stroke="none"/>
      <path d="M-18.75 1.35 L-22.05 1.4 -22.5 1.35 -22.5 0.0 -18.75 0.0 -18.75 1.35 Z" fill="none" stroke="#000000" stroke-linecap="round" stroke-linejoin="round" stroke-opacity="0.3019608" stroke-width="0.05"/>
      <path d="M31.5 1.4 L33.7 1.4 33.7 1.8 31.5 1.8 31.5 1.4" fill="#43403e" fill-rule="evenodd" stroke="none"/>
      <path d="M31.5 1.4 L33.7 1.4 33.7 1.8 31.5 1.8 31.5 1.4 Z" fill="none" stroke="#000000" stroke-linecap="round" stroke-linejoin="round" stroke-opacity="0.29803923" stroke-width="1.0" vector-effect="non-scaling-stroke"/>
      <path d="M31.2 1.4 L30.75 1.35 30.75 0.0 34.5 0.0 34.5 1.35 31.2 1.4" fill="#808080" fill-rule="evenodd" stroke="none"/>
      <path d="M31.2 1.4 L30.75 1.35 30.75 0.0 34.5 0.0 34.5 1.35 31.2 1.4 Z" fill="none" stroke="#000000" stroke-linecap="round" stroke-linejoin="round" stroke-opacity="0.3019608" stroke-width="0.05"/>
      <path d="M55.75 1.7 L55.75 2.1 53.55 2.1 53.55 1.7 55.75 1.7" fill="#43403e" fill-rule="evenodd" stroke="none"/>
      <path d="M55.75 1.7 L55.75 2.1 53.55 2.1 53.55 1.7 55.75 1.7 Z" fill="none" stroke="#000000" stroke-linecap="round" stroke-linejoin="round" stroke-opacity="0.29803923" stroke-width="1.0" vector-effect="non-scaling-stroke"/>
      <path d="M52.8 1.65 L52.8 0.3 56.55 0.3 56.55 1.65 53.25 1.7 52.8 1.65" fill="#808080" fill-rule="evenodd" stroke="none"/>
      <path d="M52.8 1.65 L52.8 0.3 56.55 0.3 56.55 1.65 53.25 1.7 52.8 1.65 Z" fill="none" stroke="#000000" stroke-linecap="round" stroke-linejoin="round" stroke-opacity="0.3019608" stroke-width="0.05"/>
      <path d="M47.55 -12.5 L45.35 -12.5 45.35 -12.9 47.55 -12.9 47.55 -12.5" fill="#43403e" fill-rule="evenodd" stroke="none"/>
      <path d="M47.55 -12.5 L45.35 -12.5 45.35 -12.9 47.55 -12.9 47.55 -12.5 Z" fill="none" stroke="#000000" stroke-linecap="round" stroke-linejoin="round" stroke-opacity="0.29803923" stroke-width="1.0" vector-effect="non-scaling-stroke"/>
      <path d="M44.6 -14.3 L48.35 -14.3 48.35 -12.95 45.05 -12.9 44.6 -12.95 44.6 -14.3" fill="#808080" fill-rule="evenodd" stroke="none"/>
      <path d="M44.6 -14.3 L48.35 -14.3 48.35 -12.95 45.05 -12.9 44.6 -12.95 44.6 -14.3 Z" fill="none" stroke="#000000" stroke-linecap="round" stroke-linejoin="round" stroke-opacity="0.3019608" stroke-width="0.05"/>
      <path d="M11.5 -12.9 L11.5 -12.5 9.3 -12.5 9.3 -12.9 11.5 -12.9" fill="#43403e" fill-rule="evenodd" stroke="none"/>
      <path d="M11.5 -12.9 L11.5 -12.5 9.3 -12.5 9.3 -12.9 11.5 -12.9 Z" fill="none" stroke="#000000" stroke-linecap="round" stroke-linejoin="round" stroke-opacity="0.29803923" stroke-width="1.0" vector-effect="non-scaling-stroke"/>
      <path d="M9.0 -12.9 L8.55 -12.95 8.55 -14.3 12.3 -14.3 12.3 -12.95 9.0 -12.9" fill="#545454" fill-rule="evenodd" stroke="none"/>
      <path d="M9.0 -12.9 L8.55 -12.95 8.55 -14.3 12.3 -14.3 12.3 -12.95 9.0 -12.9 Z" fill="none" stroke="#000000" stroke-linecap="round" stroke-linejoin="round" stroke-opacity="0.3019608" stroke-width="0.05"/>
      <path d="M-11.95 -12.25 L-11.95 -11.85 -14.15 -11.85 -14.15 -12.25 -11.95 -12.25" fill="#43403e" fill-rule="evenodd" stroke="none"/>
      <path d="M-11.95 -12.25 L-11.95 -11.85 -14.15 -11.85 -14.15 -12.25 -11.95 -12.25 Z" fill="none" stroke="#000000" stroke-linecap="round" stroke-linejoin="round" stroke-opacity="0.29803923" stroke-width="1.0" vector-effect="non-scaling-stroke"/>
      <path d="M-14.9 -13.65 L-11.15 -13.65 -11.15 -12.3 -14.45 -12.25 -14.9 -12.3 -14.9 -13.65" fill="#808080" fill-rule="evenodd" stroke="none"/>
      <path d="M-14.9 -13.65 L-11.15 -13.65 -11.15 -12.3 -14.45 -12.25 -14.9 -12.3 -14.9 -13.65 Z" fill="none" stroke="#000000" stroke-linecap="round" stroke-linejoin="round" stroke-opacity="0.3019608" stroke-width="0.05"/>
      <path d="M24.8 -12.5 L22.6 -12.5 22.6 -12.9 24.8 -12.9 24.8 -12.5" fill="#43403e" fill-rule="evenodd" stroke="none"/>
      <path d="M24.8 -12.5 L22.6 -12.5 22.6 -12.9 24.8 -12.9 24.8 -12.5 Z" fill="none" stroke="#000000" stroke-linecap="round" stroke-linejoin="round" stroke-opacity="0.29803923" stroke-width="1.0" vector-effect="non-scaling-stroke"/>
      <path d="M21.85 -12.95 L21.85 -14.3 25.6 -14.3 25.6 -12.95 22.3 -12.9 21.85 -12.95" fill="#545454" fill-rule="evenodd" stroke="none"/>
      <path d="M21.85 -12.95 L21.85 -14.3 25.6 -14.3 25.6 -12.95 22.3 -12.9 21.85 -12.95 Z" fill="none" stroke="#000000" stroke-linecap="round" stroke-linejoin="round" stroke-opacity="0.3019608" stroke-width="0.05"/>
      <path d="M34.05 -12.5 L34.05 -12.9 36.25 -12.9 36.25 -12.5 34.05 -12.5" fill="#43403e" fill-rule="evenodd" stroke="none"/>
      <path d="M34.05 -12.5 L34.05 -12.9 36.25 -12.9 36.25 -12.5 34.05 -12.5 Z" fill="none" stroke="#000000" stroke-linecap="round" stroke-linejoin="round" stroke-opacity="0.29803923" stroke-width="1.0" vector-effect="non-scaling-stroke"/>
      <path d="M33.3 -14.3 L37.05 -14.3 37.05 -12.95 33.75 -12.9 33.3 -12.95 33.3 -14.3" fill="#545454" fill-rule="evenodd" stroke="none"/>
      <path d="M33.3 -14.3 L37.05 -14.3 37.05 -12.95 33.75 -12.9 33.3 -12.95 33.3 -14.3 Z" fill="none" stroke="#000000" stroke-linecap="round" stroke-linejoin="round" stroke-opacity="0.3019608" stroke-width="0.05"/>
      <path d="M-2.4 -12.25 L-0.2 -12.25 -0.2 -11.85 -2.4 -11.85 -2.4 -12.25" fill="#43403e" fill-rule="evenodd" stroke="none"/>
      <path d="M-2.4 -12.25 L-0.2 -12.25 -0.2 -11.85 -2.4 -11.85 -2.4 -12.25 Z" fill="none" stroke="#000000" stroke-linecap="round" stroke-linejoin="round" stroke-opacity="0.29803923" stroke-width="1.0" vector-effect="non-scaling-stroke"/>
      <path d="M0.6 -12.3 L-2.7 -12.25 -3.15 -12.3 -3.15 -13.65 0.6 -13.65 0.6 -12.3" fill="#545454" fill-rule="evenodd" stroke="none"/>
      <path d="M0.6 -12.3 L-2.7 -12.25 -3.15 -12.3 -3.15 -13.65 0.6 -13.65 0.6 -12.3 Z" fill="none" stroke="#000000" stroke-linecap="round" stroke-linejoin="round" stroke-opacity="0.3019608" stroke-width="0.05"/>
    </g>
    <g id="decoration102-shape14" transform="matrix(1.0, 0.0, 0.0, 1.0, 19.2, -32.05)">
      <path d="M-14.65 40.45 L-14.65 39.75" fill="none" stroke="#000000" stroke-linecap="round" stroke-linejoin="round" stroke-opacity="0.29803923" stroke-width="1.0" vector-effect="non-scaling-stroke"/>
      <path d="M-19.2 37.35 Q-19.2 35.15 -17.85 33.65 -16.55 32.05 -14.65 32.05 -12.7 32.05 -11.35 33.65 -10.05 35.15 -10.05 37.35 -10.05 39.55 -11.35 41.1 -12.7 42.65 -14.65 42.65 -16.55 42.65 -17.85 41.1 -19.2 39.55 -19.2 37.35" fill="url(#decoration102-gradient26)" fill-rule="evenodd" stroke="none"/>
    </g>
    <radialGradient cx="0" cy="0" gradientTransform="matrix(-0.0053, 0.0, 0.0, 0.0064, -14.65, 37.35)" gradientUnits="userSpaceOnUse" id="decoration102-gradient26" r="819.2" spreadMethod="pad">
      <stop offset="0.0" stop-color="#fffdf5" stop-opacity="0.8784314"/>
      <stop offset="0.14901960784313725" stop-color="#ffd202" stop-opacity="0.7019608"/>
      <stop offset="0.39215686274509803" stop-color="#f79331" stop-opacity="0.5411765"/>
      <stop offset="0.615686274509804" stop-color="#fcc86f" stop-opacity="0.14117648"/>
      <stop offset="1.0" stop-color="#ffdd87" stop-opacity="0.0"/>
    </radialGradient>
    <g id="decoration102-shape15" transform="matrix(1.0, 0.0, 0.0, 1.0, -11.05, -31.95)">
      <path d="M15.95 40.35 L15.95 39.65" fill="none" stroke="#000000" stroke-linecap="round" stroke-linejoin="round" stroke-opacity="0.29803923" stroke-width="1.0" vector-effect="non-scaling-stroke"/>
      <path d="M11.05 37.25 Q11.05 35.05 12.45 33.55 13.9 31.95 15.95 31.95 18.05 31.95 19.5 33.55 20.95 35.05 20.95 37.25 20.95 39.45 19.5 41.0 18.05 42.55 15.95 42.55 13.9 42.55 12.45 41.0 11.05 39.45 11.05 37.25" fill="url(#decoration102-gradient27)" fill-rule="evenodd" stroke="none"/>
    </g>
    <radialGradient cx="0" cy="0" gradientTransform="matrix(-0.0058, 0.0, 0.0, 0.0064, 15.95, 37.25)" gradientUnits="userSpaceOnUse" id="decoration102-gradient27" r="819.2" spreadMethod="pad">
      <stop offset="0.0" stop-color="#fffdf5" stop-opacity="0.8784314"/>
      <stop offset="0.14901960784313725" stop-color="#ffd202" stop-opacity="0.7019608"/>
      <stop offset="0.39215686274509803" stop-color="#f79331" stop-opacity="0.5411765"/>
      <stop offset="0.615686274509804" stop-color="#fcc86f" stop-opacity="0.14117648"/>
      <stop offset="1.0" stop-color="#ffdd87" stop-opacity="0.0"/>
    </radialGradient>
  </defs>
</svg>
