<?xml version="1.0" encoding="UTF-8" standalone="no"?>
<svg xmlns:xlink="http://www.w3.org/1999/xlink" height="61.35px" width="50.75px" xmlns="http://www.w3.org/2000/svg">
  <g transform="matrix(1.0, 0.0, 0.0, 1.0, 25.5, 61.1)">
    <use data-characterId="451" height="61.35" id="decoration103-Couleur0_714330" filter="url(#decoration103-filter0)" transform="matrix(1.0, 0.0, 0.0, 1.0, -25.5, -61.1)" width="50.75" xlink:href="#decoration103-sprite0"/>
    <use data-characterId="452" height="59.25" transform="matrix(1.0, 0.0, 0.0, 1.0, -24.15, -59.9)" width="48.0" xlink:href="#decoration103-shape1"/>
    <use data-characterId="454" height="52.75" id="decoration103-Couleur1_23130C" filter="url(#decoration103-filter1)" transform="matrix(1.0, 0.0, 0.0, 1.0, -25.25, -57.0)" width="50.5" xlink:href="#decoration103-sprite1"/>
    <use data-characterId="455" height="60.85" transform="matrix(1.0, 0.0, 0.0, 1.0, -21.2, -60.85)" width="46.4" xlink:href="#decoration103-shape3"/>
  </g>
  <defs>
    <g id="decoration103-sprite0" transform="matrix(1.0, 0.0, 0.0, 1.0, 0.25, 0.25)">
      <use data-characterId="450" height="61.35" transform="matrix(1.0, 0.0, 0.0, 1.0, -0.25, -0.25)" width="50.75" xlink:href="#decoration103-shape0"/>
    </g>
    <g id="decoration103-shape0" transform="matrix(1.0, 0.0, 0.0, 1.0, 0.25, 0.25)">
      <path d="M42.0 0.0 Q44.75 8.45 46.0 16.7 39.6 11.9 37.5 0.0 L42.0 0.0 M46.45 20.3 Q49.25 25.9 50.1 35.35 49.65 39.6 48.45 44.75 46.05 55.0 42.0 60.35 L42.7 58.4 44.0 54.15 Q45.55 48.45 46.3 42.65 L46.35 42.55 46.3 42.65 Q45.55 48.45 44.0 54.15 L42.7 58.4 Q38.65 49.85 38.4 36.15 L37.65 47.8 Q35.25 58.4 28.9 58.65 L28.9 55.0 Q29.85 46.05 31.4 36.8 34.55 18.25 37.65 16.6 L36.5 7.7 Q45.45 21.65 46.35 42.55 L46.95 36.15 Q47.4 28.3 46.45 20.3 M9.1 60.35 L8.45 60.35 Q4.25 52.45 2.45 45.55 4.6 45.95 8.8 49.9 L12.55 53.75 13.75 57.3 Q10.95 38.1 18.35 30.05 L18.65 23.7 18.85 17.35 Q15.05 31.65 8.7 32.1 L8.95 36.15 Q9.45 41.6 10.75 47.2 4.7 43.95 0.2 33.25 -0.5 27.55 1.05 20.15 1.8 16.5 2.7 13.95 4.05 16.35 5.45 19.8 8.25 26.75 8.7 32.1 8.45 24.8 9.65 17.6 10.3 13.6 11.45 9.65 16.6 7.0 19.3 0.0 L21.1 0.0 23.25 0.0 Q23.4 3.45 28.35 7.85 L28.1 0.0 31.6 0.0 Q34.9 16.55 28.7 25.35 L28.65 21.7 28.35 7.85 28.65 21.7 Q23.2 21.0 20.15 5.8 L19.6 9.7 Q26.4 38.55 20.0 53.45 19.25 48.3 18.65 41.05 18.0 32.75 18.35 30.05 18.0 32.75 18.65 41.05 19.25 48.3 20.0 53.45 L21.05 60.3 14.9 60.3 9.1 60.3 9.1 60.35 M6.1 4.9 L8.45 0.0 14.9 0.0 Q12.85 4.75 11.45 9.65 10.3 13.6 9.65 17.6 6.05 14.45 6.1 4.9 M21.1 0.0 L20.15 5.8 21.1 0.0 M18.85 17.35 Q19.15 13.5 19.6 9.7 19.15 13.5 18.85 17.35 M37.05 52.75 Q40.45 55.0 41.3 60.3 L35.75 60.3 36.85 54.15 37.05 52.75 M28.7 25.35 L28.85 36.15 28.9 55.0 28.9 58.65 28.9 60.3 25.4 60.3 Q22.3 21.5 28.7 25.35 M38.4 36.15 L38.1 27.4 37.65 16.6 38.1 27.4 38.4 36.15 M13.75 57.3 L14.9 60.3 13.75 57.3" fill="url(#decoration103-gradient0)" fill-rule="evenodd" stroke="none"/>
      <path d="M42.0 0.0 L44.45 5.35 Q46.65 10.55 48.25 15.65 49.7 20.15 50.1 27.45 50.4 32.9 50.1 35.35 49.25 25.9 46.45 20.3 L46.0 16.7 46.45 20.3 Q47.4 28.3 46.95 36.15 L46.35 42.55 Q45.45 21.65 36.5 7.7 L35.1 0.0 36.5 7.7 37.65 16.6 Q34.55 18.25 31.4 36.8 29.85 46.05 28.9 55.0 L28.85 36.15 28.7 25.35 Q34.9 16.55 31.6 0.0 L35.1 0.0 37.5 0.0 Q39.6 11.9 46.0 16.7 44.75 8.45 42.0 0.0 M42.0 60.35 L41.3 60.35 41.3 60.3 Q40.45 55.0 37.05 52.75 L37.65 47.8 37.05 52.75 36.85 54.15 35.75 60.3 28.9 60.3 28.9 58.65 Q35.25 58.4 37.65 47.8 L38.4 36.15 Q38.65 49.85 42.7 58.4 L42.0 60.35 M2.45 45.55 Q1.75 43.35 0.95 38.5 L0.2 33.25 Q4.7 43.95 10.75 47.2 9.45 41.6 8.95 36.15 L8.7 32.1 Q8.25 26.75 5.45 19.8 4.05 16.35 2.7 13.95 L3.9 10.55 6.1 4.9 Q6.05 14.45 9.65 17.6 8.45 24.8 8.7 32.1 15.05 31.65 18.85 17.35 L18.65 23.7 18.35 30.05 Q10.95 38.1 13.75 57.3 L12.55 53.75 10.75 47.2 12.55 53.75 8.8 49.9 Q4.6 45.95 2.45 45.55 M14.9 0.0 L19.3 0.0 Q16.6 7.0 11.45 9.65 12.85 4.75 14.9 0.0 M23.25 0.0 L28.1 0.0 28.35 7.85 Q23.4 3.45 23.25 0.0 M28.65 21.7 L28.7 25.35 Q22.3 21.5 25.4 60.3 L21.05 60.3 20.0 53.45 Q26.4 38.55 19.6 9.7 L20.15 5.8 Q23.2 21.0 28.65 21.7" fill="url(#decoration103-gradient1)" fill-rule="evenodd" stroke="none"/>
      <path d="M41.3 60.35 L41.3 60.85 9.1 60.85 9.1 60.35 9.1 60.3 14.9 60.3 21.05 60.3 25.4 60.3 28.9 60.3 35.75 60.3 41.3 60.3 41.3 60.35" fill="#646464" fill-rule="evenodd" stroke="none"/>
      <path d="M50.1 35.35 Q50.4 32.9 50.1 27.45 49.7 20.15 48.25 15.65 46.65 10.55 44.45 5.35 L42.0 0.0 Q44.75 8.45 46.0 16.7 L46.45 20.3 Q47.4 28.3 46.95 36.15 L46.35 42.55 46.3 42.65 Q45.55 48.45 44.0 54.15 L42.7 58.4 42.0 60.35 41.3 60.35 41.3 60.85 9.1 60.85 9.1 60.35 8.45 60.35 Q4.25 52.45 2.45 45.55 1.75 43.35 0.95 38.5 L0.2 33.25 Q-0.5 27.55 1.05 20.15 1.8 16.5 2.7 13.95 L3.9 10.55 6.1 4.9 8.45 0.0 14.9 0.0 19.3 0.0 21.1 0.0 23.25 0.0 28.1 0.0 31.6 0.0 35.1 0.0 37.5 0.0 42.0 0.0 M50.1 35.35 Q49.65 39.6 48.45 44.75 46.05 55.0 42.0 60.35 M35.1 0.0 L36.5 7.7 37.65 16.6 38.1 27.4 38.4 36.15 37.65 47.8 37.05 52.75 36.85 54.15 35.75 60.3 41.3 60.3 41.3 60.35 M28.1 0.0 L28.35 7.85 28.65 21.7 28.7 25.35 28.85 36.15 28.9 55.0 28.9 58.65 28.9 60.3 25.4 60.3 21.05 60.3 14.9 60.3 9.1 60.3 9.1 60.35 M11.45 9.65 Q12.85 4.75 14.9 0.0 M19.6 9.7 L20.15 5.8 21.1 0.0 M18.35 30.05 L18.65 23.7 18.85 17.35 Q19.15 13.5 19.6 9.7 M8.7 32.1 L8.95 36.15 Q9.45 41.6 10.75 47.2 L12.55 53.75 13.75 57.3 14.9 60.3 M18.35 30.05 Q18.0 32.75 18.65 41.05 19.25 48.3 20.0 53.45 L21.05 60.3 M9.65 17.6 Q10.3 13.6 11.45 9.65 M9.65 17.6 Q8.45 24.8 8.7 32.1 M28.9 60.3 L35.75 60.3" fill="none" stroke="#000000" stroke-linecap="round" stroke-linejoin="round" stroke-opacity="0.49803922" stroke-width="0.5"/>
      <path d="M46.45 20.3 Q49.25 25.9 50.1 35.35 M36.5 7.7 Q45.45 21.65 46.35 42.55 M28.35 7.85 Q23.4 3.45 23.25 0.0 M28.7 25.35 Q34.9 16.55 31.6 0.0 M11.45 9.65 Q16.6 7.0 19.3 0.0 M8.7 32.1 Q8.25 26.75 5.45 19.8 4.05 16.35 2.7 13.95 M18.85 17.35 Q15.05 31.65 8.7 32.1 M13.75 57.3 Q10.95 38.1 18.35 30.05 M20.0 53.45 Q26.4 38.55 19.6 9.7 M6.1 4.9 Q6.05 14.45 9.65 17.6 M10.75 47.2 Q4.7 43.95 0.2 33.25 M37.05 52.75 Q40.45 55.0 41.3 60.3 M28.9 55.0 Q29.85 46.05 31.4 36.8 34.55 18.25 37.65 16.6 M38.4 36.15 Q38.65 49.85 42.7 58.4 M20.15 5.8 Q23.2 21.0 28.65 21.7 M25.4 60.3 Q22.3 21.5 28.7 25.35 M2.45 45.55 Q4.6 45.95 8.8 49.9 L12.55 53.75 M37.65 47.8 Q35.25 58.4 28.9 58.65 M37.5 0.0 Q39.6 11.9 46.0 16.7" fill="none" stroke="#000000" stroke-linecap="round" stroke-linejoin="round" stroke-opacity="0.14117648" stroke-width="0.30000000000000004"/>
      <path d="M5.6 35.25 L4.65 35.35 Q3.65 35.3 3.1 34.6 2.0 33.1 2.8 31.4 3.65 29.7 5.6 29.95 3.85 30.8 3.95 32.75 4.05 34.7 5.6 35.25" fill="#4f4f4f" fill-rule="evenodd" stroke="none"/>
      <path d="M5.6 29.95 Q7.05 30.15 7.15 32.6 7.2 34.1 6.4 34.85 L5.6 35.25 Q4.05 34.7 3.95 32.75 3.85 30.8 5.6 29.95" fill="#232323" fill-rule="evenodd" stroke="none"/>
      <path d="M5.6 35.25 L4.65 35.35 Q3.65 35.3 3.1 34.6 2.0 33.1 2.8 31.4 3.65 29.7 5.6 29.95 7.05 30.15 7.15 32.6 7.2 34.1 6.4 34.85 L5.6 35.25 Q4.05 34.7 3.95 32.75 3.85 30.8 5.6 29.95" fill="none" stroke="#000000" stroke-linecap="round" stroke-linejoin="round" stroke-opacity="0.3019608" stroke-width="0.30000000000000004"/>
      <path d="M4.1 33.4 L2.7 33.95" fill="none" stroke="#000000" stroke-linecap="round" stroke-linejoin="round" stroke-opacity="0.3019608" stroke-width="0.30000000000000004"/>
    </g>
    <linearGradient gradientTransform="matrix(0.0, -0.0184, 0.0257, 0.0, 41.0, 13.75)" gradientUnits="userSpaceOnUse" id="decoration103-gradient0" spreadMethod="pad" x1="-819.2" x2="819.2">
      <stop offset="0.0" stop-color="#808080"/>
      <stop offset="1.0" stop-color="#a8a5a5"/>
    </linearGradient>
    <linearGradient gradientTransform="matrix(-0.0034, -0.0289, 0.0242, -0.0029, 20.55, 24.1)" gradientUnits="userSpaceOnUse" id="decoration103-gradient1" spreadMethod="pad" x1="-819.2" x2="819.2">
      <stop offset="0.0" stop-color="#626262"/>
      <stop offset="1.0" stop-color="#919191"/>
    </linearGradient>
    <g id="decoration103-shape1" transform="matrix(1.0, 0.0, 0.0, 1.0, 24.15, 59.9)">
      <path d="M8.9 -59.7 Q10.1 -54.85 10.35 -50.6 M15.55 -59.3 Q16.9 -55.95 17.2 -53.1 M21.7 -36.65 Q22.2 -33.15 22.05 -29.8 M15.4 -42.2 Q16.1 -37.8 16.05 -33.6 M10.3 -30.2 L10.3 -27.95 M10.4 -39.5 L10.4 -37.05 M4.4 -45.5 L4.75 -36.5 M8.05 -35.75 L8.05 -33.85 M6.45 -17.95 L6.45 -14.15 M17.9 -14.25 Q17.3 -10.3 16.2 -6.55 M21.6 -16.2 Q21.2 -13.1 20.15 -10.05 M20.55 -26.65 Q20.3 -21.85 19.55 -17.8 M23.65 -25.5 Q23.65 -22.15 22.85 -19.35 M0.8 -26.65 L0.8 -23.4 M6.3 -30.0 Q6.55 -25.7 6.2 -22.2 M18.4 -51.95 L19.7 -45.35 M19.95 -53.45 Q21.45 -49.75 22.2 -45.65 M-2.6 -36.8 L-2.6 -34.4 M-1.2 -47.15 Q-1.6 -42.25 -1.2 -37.35 M-10.05 -37.0 Q-10.35 -32.65 -9.95 -29.1 M-12.5 -46.85 Q-13.8 -41.95 -13.45 -35.65 M-15.45 -28.6 L-15.45 -25.85 M-23.7 -33.95 Q-24.25 -30.3 -23.5 -26.75 M-8.1 -11.6 Q-7.85 -7.0 -6.75 -2.35 M-13.3 -12.7 L-12.6 -8.6 M-5.7 -19.95 L-5.15 -12.7 M-3.8 -5.6 L-3.1 -2.5 M-19.85 -18.85 L-19.2 -15.35 M-22.4 -15.2 L-20.25 -8.6 M-19.05 -52.85 Q-20.4 -49.4 -21.2 -45.2 M-3.2 -57.8 L-4.55 -48.6 M-12.6 -58.45 Q-14.3 -53.65 -15.35 -49.1" fill="none" stroke="#000000" stroke-linecap="round" stroke-linejoin="round" stroke-opacity="0.30980393" stroke-width="0.4"/>
      <path d="M10.2 -0.85 L10.8 -4.2" fill="none" stroke="#000000" stroke-linecap="round" stroke-linejoin="round" stroke-opacity="0.30980393" stroke-width="0.4"/>
    </g>
    <g id="decoration103-sprite1" transform="matrix(1.0, 0.0, 0.0, 1.0, 0.25, 0.25)">
      <use data-characterId="453" height="52.75" transform="matrix(1.0, 0.0, 0.0, 1.0, -0.25, -0.25)" width="50.5" xlink:href="#decoration103-shape2"/>
    </g>
    <g id="decoration103-shape2" transform="matrix(1.0, 0.0, 0.0, 1.0, 0.25, 0.25)">
      <path d="M44.45 0.5 Q45.65 2.55 46.1 4.65 L3.8 4.65 Q4.4 2.65 5.55 0.5 L44.45 0.5 M4.0 48.25 L45.95 48.25 Q45.4 50.25 44.15 52.25 L5.85 52.25 Q4.65 50.15 4.0 48.25 M49.95 33.95 L49.2 37.9 0.9 37.9 Q0.2 35.95 0.05 33.95 L49.95 33.95 M49.35 14.9 L50.0 18.8 0.0 18.8 Q0.05 16.85 0.65 14.9 L49.35 14.9" fill="#808080" fill-rule="evenodd" stroke="none"/>
      <path d="M5.55 0.5 L5.85 0.0 44.15 0.0 44.45 0.5 5.55 0.5 M4.0 48.25 L3.8 47.65 46.1 47.65 45.95 48.25 4.0 48.25 M0.05 33.95 L0.0 33.35 50.0 33.35 49.95 33.95 0.05 33.95 M0.65 14.9 L0.9 14.25 49.2 14.25 49.35 14.9 0.65 14.9" fill="#cbcbcb" fill-rule="evenodd" stroke="none"/>
      <path d="M44.45 0.5 Q45.65 2.55 46.1 4.65 L3.8 4.65 Q4.4 2.65 5.55 0.5 L5.85 0.0 44.15 0.0 44.45 0.5 M45.95 48.25 L46.1 47.65 3.8 47.65 4.0 48.25 Q4.65 50.15 5.85 52.25 L44.15 52.25 Q45.4 50.25 45.95 48.25 M49.95 33.95 L49.2 37.9 0.9 37.9 Q0.2 35.95 0.05 33.95 L0.0 33.35 50.0 33.35 49.95 33.95 M49.35 14.9 L50.0 18.8 0.0 18.8 Q0.05 16.85 0.65 14.9 L0.9 14.25 49.2 14.25 49.35 14.9 Z" fill="none" stroke="#000000" stroke-linecap="round" stroke-linejoin="round" stroke-opacity="0.3019608" stroke-width="0.5"/>
    </g>
    <g id="decoration103-shape3" transform="matrix(1.0, 0.0, 0.0, 1.0, 21.2, 60.85)">
      <path d="M18.65 -57.0 L19.15 -56.85 Q20.8 -53.6 21.1 -52.2 L20.7 -52.2 Q21.45 -50.75 22.6 -46.85 L23.7 -42.5 24.2 -42.5 24.35 -41.85 25.0 -37.95 24.55 -37.95 Q25.4 -33.9 25.1 -28.4 L24.55 -23.4 25.0 -23.4 24.75 -21.55 24.2 -18.85 23.7 -18.85 Q23.4 -17.15 22.1 -13.2 L20.7 -9.1 21.1 -9.1 20.45 -7.25 19.15 -4.5 18.75 -4.5 16.75 -0.5 16.05 -0.5 16.05 0.0 -16.15 0.0 -16.15 -0.5 -16.8 -0.5 -17.9 -2.7 -18.75 -4.5 -19.15 -4.5 -20.45 -7.25 -21.2 -9.1 Q15.85 -8.75 16.05 -60.85 L16.75 -60.85 18.65 -57.0" fill="#000000" fill-opacity="0.3019608" fill-rule="evenodd" stroke="none"/>
    </g>
  </defs>
</svg>
