<?xml version="1.0" encoding="UTF-8" standalone="no"?>
<svg xmlns:xlink="http://www.w3.org/1999/xlink" height="72.25px" width="43.35px" xmlns="http://www.w3.org/2000/svg">
  <g transform="matrix(1.0, 0.0, 0.0, 1.0, 22.05, 69.7)">
    <use height="66.75" id="decoration105-Couleur1_623B2A" filter="url(#decoration105-filter1)" transform="matrix(1.0, 0.0, 0.0, 1.0, -15.75, -69.7)" width="31.8" xlink:href="#decoration105-sprite0"/>
    <use height="3.85" id="decoration105-Couleur0_CDC5BC" filter="url(#decoration105-filter0)" transform="matrix(1.0, 0.0, 0.0, 1.0, -20.4, -40.25)" width="40.55" xlink:href="#decoration105-sprite1"/>
    <use height="27.4" id="decoration105-Couleur0_CDC5BC" filter="url(#decoration105-filter0)" transform="matrix(1.0, 0.0, 0.0, 1.0, -12.7, -63.35)" width="25.35" xlink:href="#decoration105-sprite2"/>
    <use height="26.55" transform="matrix(1.0, 0.0, 0.0, 1.0, -11.9, -60.65)" width="26.05" xlink:href="#decoration105-shape3"/>
    <use height="40.7" id="decoration105-Couleur1_623B2A" filter="url(#decoration105-filter1)" transform="matrix(1.0, 0.0, 0.0, 1.0, -22.05, -38.15)" width="43.35" xlink:href="#decoration105-sprite3"/>
    <use height="3.7" id="decoration105-Couleur0_CDC5BC" filter="url(#decoration105-filter0)" transform="matrix(1.0, 0.0, 0.0, 1.0, -18.1, -28.55)" width="35.0" xlink:href="#decoration105-sprite5"/>
    <use height="4.6" id="decoration105-B" transform="matrix(1.0, 0.0, 0.0, 5.5612, -17.85, -28.1)" width="35.4" xlink:href="#decoration105-sprite6"/>
    <use height="48.5" transform="matrix(0.4315, 0.1046, -0.1411, 0.4765, -9.5749, -67.2211)" width="51.0" xlink:href="#decoration105-sprite7"/>
  </g>
  <defs>
    <g id="decoration105-sprite0" transform="matrix(1.0, 0.0, 0.0, 1.0, 0.15, 0.1)">
      <use height="66.75" transform="matrix(1.0, 0.0, 0.0, 1.0, -0.15, -0.1)" width="31.8" xlink:href="#decoration105-shape0"/>
    </g>
    <g id="decoration105-shape0" transform="matrix(1.0, 0.0, 0.0, 1.0, 0.15, 0.1)">
      <path d="M12.3 48.65 Q10.95 48.85 10.2 50.35 L9.75 51.3 9.6 51.65 Q8.7 53.85 7.15 54.3 L6.5 54.4 4.85 53.95 Q4.35 53.65 4.1 52.55 3.85 51.25 5.0 50.85 L6.15 50.9 6.75 51.6 Q6.9 52.25 6.45 52.4 5.8 52.5 5.8 51.7 5.3 51.5 5.0 51.95 4.85 52.3 4.95 52.6 L5.7 53.3 7.2 53.35 Q8.05 53.0 8.85 51.25 L9.6 49.65 Q10.55 48.1 11.65 47.75 L13.2 47.75 Q14.7 48.05 14.85 49.4 14.9 50.25 14.45 50.7 14.0 51.1 13.3 51.1 12.35 51.15 12.05 50.4 11.9 49.75 12.35 49.6 13.05 49.55 13.05 50.35 13.65 50.5 13.85 50.0 L13.9 49.4 Q13.55 48.5 12.3 48.65" fill="#3f3d3c" fill-rule="evenodd" stroke="none"/>
      <path d="M12.3 48.65 Q10.95 48.85 10.2 50.35 L9.75 51.3 9.6 51.65 Q8.7 53.85 7.15 54.3 L6.5 54.4 4.85 53.95 Q4.35 53.65 4.1 52.55 3.85 51.25 5.0 50.85 L6.15 50.9 6.75 51.6 Q6.9 52.25 6.45 52.4 5.8 52.5 5.8 51.7 5.3 51.5 5.0 51.95 4.85 52.3 4.95 52.6 L5.7 53.3 7.2 53.35 Q8.05 53.0 8.85 51.25 L9.6 49.65 Q10.55 48.1 11.65 47.75 L13.2 47.75 Q14.7 48.05 14.85 49.4 14.9 50.25 14.45 50.7 14.0 51.1 13.3 51.1 12.35 51.15 12.05 50.4 11.9 49.75 12.35 49.6 13.05 49.55 13.05 50.35 13.65 50.5 13.85 50.0 L13.9 49.4 Q13.55 48.5 12.3 48.65 Z" fill="none" stroke="#000000" stroke-linecap="round" stroke-linejoin="round" stroke-opacity="0.3019608" stroke-width="0.2"/>
      <path d="M0.25 40.85 Q7.25 39.4 7.15 28.65 L9.0 30.25 Q10.45 39.45 4.65 42.25 L0.25 40.85" fill="#3f3d3c" fill-rule="evenodd" stroke="none"/>
      <path d="M0.25 40.85 L4.65 42.25 Q10.45 39.45 9.0 30.25 L7.15 28.65 Q7.25 39.4 0.25 40.85 Z" fill="none" stroke="#000000" stroke-linecap="round" stroke-linejoin="round" stroke-opacity="0.3019608" stroke-width="0.30000000000000004"/>
      <path d="M4.75 32.65 Q7.75 35.9 5.3 42.65 L3.2 42.35 Q4.65 38.9 3.2 35.8 L4.75 32.65" fill="#3f3d3c" fill-rule="evenodd" stroke="none"/>
      <path d="M4.75 32.65 L3.2 35.8 Q4.65 38.9 3.2 42.35 L5.3 42.65 Q7.75 35.9 4.75 32.65 Z" fill="none" stroke="#000000" stroke-linecap="round" stroke-linejoin="round" stroke-opacity="0.3019608" stroke-width="0.30000000000000004"/>
      <path d="M5.0 36.0 Q2.35 36.95 0.0 36.0 L0.0 32.45 Q2.2 31.55 5.0 32.45 5.5 34.25 5.0 36.0" fill="#3f3d3c" fill-rule="evenodd" stroke="none"/>
      <path d="M5.0 36.0 Q2.35 36.95 0.0 36.0 L0.0 32.45 Q2.2 31.55 5.0 32.45 5.5 34.25 5.0 36.0 Z" fill="none" stroke="#000000" stroke-linecap="round" stroke-linejoin="round" stroke-opacity="0.3019608" stroke-width="0.30000000000000004"/>
      <path d="M26.55 42.35 Q20.75 39.55 22.2 30.35 L24.05 28.75 Q23.95 39.5 30.95 40.95 L26.55 42.35" fill="#3f3d3c" fill-rule="evenodd" stroke="none"/>
      <path d="M26.55 42.35 Q20.75 39.55 22.2 30.35 L24.05 28.75 Q23.95 39.5 30.95 40.95 L26.55 42.35 Z" fill="none" stroke="#000000" stroke-linecap="round" stroke-linejoin="round" stroke-opacity="0.3019608" stroke-width="0.30000000000000004"/>
      <path d="M28.2 42.0 L26.1 42.3 Q23.65 35.55 26.65 32.3 L28.2 35.45 Q26.75 38.55 28.2 42.0" fill="#3f3d3c" fill-rule="evenodd" stroke="none"/>
      <path d="M28.2 42.0 L26.1 42.3 Q23.65 35.55 26.65 32.3 L28.2 35.45 Q26.75 38.55 28.2 42.0 Z" fill="none" stroke="#000000" stroke-linecap="round" stroke-linejoin="round" stroke-opacity="0.3019608" stroke-width="0.30000000000000004"/>
      <path d="M16.5 47.75 L18.05 47.75 Q19.15 48.1 20.1 49.65 L20.9 51.25 Q21.7 53.0 22.5 53.35 L24.05 53.3 24.8 52.6 24.75 51.95 Q24.4 51.5 23.95 51.7 23.95 52.5 23.25 52.4 22.8 52.25 22.95 51.6 23.1 51.15 23.55 50.9 L24.75 50.85 Q25.85 51.25 25.6 52.55 25.35 53.65 24.85 53.95 L23.25 54.4 22.55 54.3 Q21.0 53.85 20.1 51.65 L19.95 51.3 19.5 50.35 Q18.8 48.85 17.45 48.65 16.15 48.5 15.8 49.4 15.7 49.7 15.9 50.0 16.05 50.5 16.7 50.35 16.7 49.55 17.4 49.6 17.8 49.75 17.65 50.4 17.4 51.15 16.45 51.1 15.7 51.1 15.25 50.7 14.85 50.25 14.85 49.4 15.0 48.05 16.5 47.75" fill="#3f3d3c" fill-rule="evenodd" stroke="none"/>
      <path d="M16.5 47.75 Q15.0 48.05 14.85 49.4 14.85 50.25 15.25 50.7 15.7 51.1 16.45 51.1 17.4 51.15 17.65 50.4 17.8 49.75 17.4 49.6 16.7 49.55 16.7 50.35 16.05 50.5 15.9 50.0 15.7 49.7 15.8 49.4 16.15 48.5 17.45 48.65 18.8 48.85 19.5 50.35 L19.95 51.3 20.1 51.65 Q21.0 53.85 22.55 54.3 L23.25 54.4 24.85 53.95 Q25.35 53.65 25.6 52.55 25.85 51.25 24.75 50.85 L23.55 50.9 Q23.1 51.15 22.95 51.6 22.8 52.25 23.25 52.4 23.95 52.5 23.95 51.7 24.4 51.5 24.75 51.95 L24.8 52.6 24.05 53.3 22.5 53.35 Q21.7 53.0 20.9 51.25 L20.1 49.65 Q19.15 48.1 18.05 47.75 L16.5 47.75 Z" fill="none" stroke="#000000" stroke-linecap="round" stroke-linejoin="round" stroke-opacity="0.3019608" stroke-width="0.2"/>
      <path d="M15.65 35.55 Q8.1 35.4 4.1 29.0 1.3 24.5 1.3 19.95 1.95 14.55 4.0 11.0 7.75 4.55 15.65 4.3 23.5 4.1 27.45 11.15 30.0 15.75 30.0 19.95 30.0 25.0 27.2 29.45 23.25 35.7 15.65 35.55" fill="#808080" fill-rule="evenodd" stroke="none"/>
      <path d="M15.65 35.55 Q23.25 35.7 27.2 29.45 30.0 25.0 30.0 19.95 30.0 15.75 27.45 11.15 23.5 4.1 15.65 4.3 7.75 4.55 4.0 11.0 1.95 14.55 1.3 19.95 1.3 24.5 4.1 29.0 8.1 35.4 15.65 35.55 Z" fill="none" stroke="#000000" stroke-linecap="round" stroke-linejoin="round" stroke-opacity="0.3019608" stroke-width="0.30000000000000004"/>
      <path d="M15.65 2.25 Q15.85 0.5 17.75 0.1 18.75 -0.05 19.7 0.1 21.05 0.55 22.25 2.6 L23.3 4.65 Q24.25 6.95 25.25 7.45 L27.25 7.35 28.2 6.45 28.1 5.6 Q27.7 5.0 27.1 5.25 27.1 6.3 26.2 6.2 25.65 6.0 25.85 5.15 26.1 4.55 26.6 4.2 L28.1 4.15 Q29.45 4.65 29.2 6.4 28.9 7.8 28.25 8.2 27.25 8.75 26.2 8.8 L25.4 8.65 Q23.4 8.1 22.25 5.2 L22.1 4.75 21.5 3.5 Q20.6 1.55 18.9 1.25 17.3 1.05 16.85 2.25 16.75 2.65 17.0 3.05 17.15 3.7 17.95 3.5 17.95 2.45 18.85 2.5 19.35 2.7 19.2 3.55 18.85 4.55 17.7 4.5 16.75 4.5 16.15 3.95 15.65 3.35 15.65 2.35 L15.65 2.25 15.65 2.35 Q15.65 3.35 15.15 3.95 14.55 4.5 13.6 4.5 12.45 4.55 12.1 3.55 11.95 2.7 12.45 2.5 13.35 2.45 13.35 3.5 14.1 3.7 14.3 3.05 14.55 2.65 14.45 2.25 14.0 1.05 12.4 1.25 10.6 1.55 9.8 3.5 L9.2 4.75 9.05 5.2 Q7.9 8.1 5.9 8.65 L5.1 8.8 Q4.05 8.75 3.05 8.2 2.4 7.8 2.1 6.4 1.85 4.65 3.15 4.15 L4.7 4.2 5.45 5.15 Q5.65 6.0 5.1 6.2 4.2 6.3 4.2 5.25 3.6 5.0 3.15 5.6 3.05 6.05 3.1 6.45 L4.05 7.35 6.05 7.45 Q7.05 6.95 8.0 4.65 L9.05 2.6 Q10.25 0.55 11.6 0.1 12.55 -0.05 13.55 0.1 15.45 0.5 15.65 2.25" fill="#808080" fill-rule="evenodd" stroke="none"/>
      <path d="M15.65 2.35 Q15.65 3.35 16.15 3.95 16.75 4.5 17.7 4.5 18.85 4.55 19.2 3.55 19.35 2.7 18.85 2.5 17.95 2.45 17.95 3.5 17.15 3.7 17.0 3.05 16.75 2.65 16.85 2.25 17.3 1.05 18.9 1.25 20.6 1.55 21.5 3.5 L22.1 4.75 22.25 5.2 Q23.4 8.1 25.4 8.65 L26.2 8.8 Q27.25 8.75 28.25 8.2 28.9 7.8 29.2 6.4 29.45 4.65 28.1 4.15 L26.6 4.2 Q26.1 4.55 25.85 5.15 25.65 6.0 26.2 6.2 27.1 6.3 27.1 5.25 27.7 5.0 28.1 5.6 L28.2 6.45 27.25 7.35 25.25 7.45 Q24.25 6.95 23.3 4.65 L22.25 2.6 Q21.05 0.55 19.7 0.1 18.75 -0.05 17.75 0.1 15.85 0.5 15.65 2.25 L15.65 2.35 Q15.65 3.35 15.15 3.95 14.55 4.5 13.6 4.5 12.45 4.55 12.1 3.55 11.95 2.7 12.45 2.5 13.35 2.45 13.35 3.5 14.1 3.7 14.3 3.05 14.55 2.65 14.45 2.25 14.0 1.05 12.4 1.25 10.6 1.55 9.8 3.5 L9.2 4.75 9.05 5.2 Q7.9 8.1 5.9 8.65 L5.1 8.8 Q4.05 8.75 3.05 8.2 2.4 7.8 2.1 6.4 1.85 4.65 3.15 4.15 L4.7 4.2 5.45 5.15 Q5.65 6.0 5.1 6.2 4.2 6.3 4.2 5.25 3.6 5.0 3.15 5.6 3.05 6.05 3.1 6.45 L4.05 7.35 6.05 7.45 Q7.05 6.95 8.0 4.65 L9.05 2.6 Q10.25 0.55 11.6 0.1 12.55 -0.05 13.55 0.1 15.45 0.5 15.65 2.25" fill="none" stroke="#000000" stroke-linecap="round" stroke-linejoin="round" stroke-opacity="0.3019608" stroke-width="0.2"/>
      <path d="M31.5 35.6 Q29.15 36.55 26.5 35.6 26.0 33.85 26.5 32.05 29.3 31.15 31.5 32.05 L31.5 35.6" fill="#3f3d3c" fill-rule="evenodd" stroke="none"/>
      <path d="M31.5 35.6 L31.5 32.05 Q29.3 31.15 26.5 32.05 26.0 33.85 26.5 35.6 29.15 36.55 31.5 35.6 Z" fill="none" stroke="#000000" stroke-linecap="round" stroke-linejoin="round" stroke-opacity="0.3019608" stroke-width="0.30000000000000004"/>
      <path d="M2.0 63.95 L27.25 63.95 27.25 66.5 19.85 65.65 14.65 65.25 2.0 66.5 2.0 63.95" fill="#3f3d3c" fill-rule="evenodd" stroke="none"/>
      <path d="M2.0 63.95 L2.0 66.5 14.65 65.25 19.85 65.65 27.25 66.5 27.25 63.95 2.0 63.95 Z" fill="none" stroke="#000000" stroke-linecap="round" stroke-linejoin="round" stroke-opacity="0.3019608" stroke-width="0.30000000000000004"/>
    </g>
    <g id="decoration105-sprite1" transform="matrix(1.0, 0.0, 0.0, 1.0, 0.2, 0.2)">
      <use height="3.85" transform="matrix(1.0, 0.0, 0.0, 1.0, -0.2, -0.2)" width="40.55" xlink:href="#decoration105-shape1"/>
    </g>
    <g id="decoration105-shape1" transform="matrix(1.0, 0.0, 0.0, 1.0, 0.2, 0.2)">
      <path d="M32.0 1.85 Q39.65 2.65 39.0 0.6 L39.55 0.9 Q40.15 1.45 40.15 3.45 L31.85 3.45 Q31.8 2.5 32.0 1.85 M0.1 1.7 Q7.7 2.5 7.05 0.45 L7.6 0.75 Q8.2 1.3 8.25 3.3 L0.0 3.3 0.1 1.7" fill="#646464" fill-rule="evenodd" stroke="none"/>
      <path d="M39.0 0.6 Q39.65 2.65 32.0 1.85 32.15 0.9 32.85 0.55 L35.85 0.15 Q38.0 0.2 39.0 0.6 M0.1 1.7 Q0.3 0.75 1.0 0.4 L3.95 0.0 Q6.1 0.05 7.05 0.45 7.7 2.5 0.1 1.7" fill="#808080" fill-rule="evenodd" stroke="none"/>
      <path d="M39.0 0.6 Q38.0 0.2 35.85 0.15 L32.85 0.55 Q32.15 0.9 32.0 1.85 31.8 2.5 31.85 3.45 L40.15 3.45 Q40.15 1.45 39.55 0.9 L39.0 0.6 M7.05 0.45 Q6.1 0.05 3.95 0.0 L1.0 0.4 Q0.3 0.75 0.1 1.7 M7.05 0.45 L7.6 0.75 Q8.2 1.3 8.25 3.3 L0.0 3.3 0.1 1.7" fill="none" stroke="#000000" stroke-linecap="round" stroke-linejoin="round" stroke-opacity="0.3882353" stroke-width="0.4"/>
    </g>
    <g id="decoration105-sprite2" transform="matrix(1.0, 0.0, 0.0, 1.0, 0.15, 0.15)">
      <use height="27.4" transform="matrix(1.0, 0.0, 0.0, 1.0, -0.15, -0.15)" width="25.35" xlink:href="#decoration105-shape2"/>
    </g>
    <g id="decoration105-shape2" transform="matrix(1.0, 0.0, 0.0, 1.0, 0.15, 0.15)">
      <path d="M23.45 6.9 Q24.75 13.65 24.05 19.0 L22.1 21.95 20.4 24.0 Q21.6 13.55 20.1 2.85 L21.8 4.8 23.45 6.9 M12.1 0.0 L16.3 0.6 15.85 26.65 11.7 27.1 Q8.8 14.55 12.1 0.0 M2.4 5.65 L4.75 3.3 Q6.95 1.35 7.95 0.9 2.55 12.8 7.25 25.85 4.3 24.3 2.4 21.5 0.3 13.85 2.4 5.65" fill="#808080" fill-rule="evenodd" stroke="none"/>
      <path d="M24.05 19.0 Q24.75 13.65 23.45 6.9 25.05 9.9 25.05 13.6 25.05 16.55 24.05 19.0 M20.1 2.85 Q21.6 13.55 20.4 24.0 18.35 25.9 15.85 26.65 L16.3 0.6 18.1 1.5 20.1 2.85 M2.4 5.65 Q0.3 13.85 2.4 21.5 1.65 20.5 0.95 18.5 -0.1 15.65 0.0 13.15 0.15 8.75 2.4 5.65 M7.25 25.85 Q2.55 12.8 7.95 0.9 9.9 0.05 12.1 0.0 8.8 14.55 11.7 27.1 9.3 26.95 7.25 25.85" fill="#646464" fill-rule="evenodd" stroke="none"/>
      <path d="M23.45 6.9 Q24.75 13.65 24.05 19.0 25.05 16.55 25.05 13.6 25.05 9.9 23.45 6.9 L21.8 4.8 20.1 2.85 Q21.6 13.55 20.4 24.0 L22.1 21.95 24.05 19.0 M12.1 0.0 L16.3 0.6 18.1 1.5 20.1 2.85 M7.95 0.9 Q6.95 1.35 4.75 3.3 L2.4 5.65 Q0.3 13.85 2.4 21.5 4.3 24.3 7.25 25.85 2.55 12.8 7.95 0.9 9.9 0.05 12.1 0.0 8.8 14.55 11.7 27.1 L15.85 26.65 16.3 0.6 M2.4 5.65 Q0.15 8.75 0.0 13.15 -0.1 15.65 0.95 18.5 1.65 20.5 2.4 21.5 M7.25 25.85 Q9.3 26.95 11.7 27.1 M15.85 26.65 Q18.35 25.9 20.4 24.0" fill="none" stroke="#000000" stroke-linecap="round" stroke-linejoin="round" stroke-opacity="0.3019608" stroke-width="0.30000000000000004"/>
    </g>
    <g id="decoration105-shape3" transform="matrix(1.0, 0.0, 0.0, 1.0, 11.9, 60.65)">
      <path d="M13.85 -52.8 Q14.9 -46.95 12.45 -41.9 9.9 -36.6 4.7 -34.85 0.05 -33.25 -4.25 -35.0 -8.4 -36.65 -11.9 -41.2 9.8 -38.7 10.45 -60.65 13.4 -56.7 13.85 -52.8" fill="#171614" fill-opacity="0.32156864" fill-rule="evenodd" stroke="none"/>
    </g>
    <g id="decoration105-sprite3" transform="matrix(1.0, 0.0, 0.0, 1.0, 0.15, 0.1)">
      <use height="16.6" transform="matrix(1.0, 0.0, 0.0, 1.0, -0.15, -0.1)" width="43.35" xlink:href="#decoration105-shape4"/>
      <use height="84.9" transform="matrix(0.5286, 0.0, 0.0, 0.2861, 3.711, 16.299)" width="13.2" xlink:href="#decoration105-sprite4"/>
      <use height="84.9" transform="matrix(0.5286, 0.0, 0.0, 0.2861, 31.461, 16.299)" width="13.2" xlink:href="#decoration105-sprite4"/>
    </g>
    <g id="decoration105-shape4" transform="matrix(1.0, 0.0, 0.0, 1.0, 0.15, 0.1)">
      <path d="M2.9 5.55 Q2.75 4.8 2.45 4.55 L6.1 4.55 7.15 4.55 Q6.25 9.0 7.0 13.45 L6.4 13.8 5.1 14.35 3.0 14.75 Q1.65 14.05 3.25 10.0 3.75 12.3 4.95 11.8 6.1 10.3 6.0 5.55 L2.9 5.55" fill="#56504d" fill-rule="evenodd" stroke="none"/>
      <path d="M3.25 10.0 L3.25 9.3 2.9 5.55 6.0 5.55 Q6.1 10.3 4.95 11.8 3.75 12.3 3.25 10.0" fill="url(#decoration105-gradient0)" fill-rule="evenodd" stroke="none"/>
      <path d="M3.25 10.0 L3.25 9.3 2.9 5.55 Q2.75 4.8 2.45 4.55 L6.1 4.55 7.15 4.55 Q6.25 9.0 7.0 13.45 L6.4 13.8 5.1 14.35 3.0 14.75 Q1.65 14.05 3.25 10.0 Z" fill="none" stroke="#000000" stroke-linecap="round" stroke-linejoin="round" stroke-opacity="0.3019608" stroke-width="0.30000000000000004"/>
      <path d="M6.6 1.2 Q7.0 1.15 7.1 2.05 7.15 3.05 6.6 4.0 6.05 5.15 5.7 3.75 6.05 5.15 6.6 4.0 7.15 3.05 7.1 2.05 7.0 1.15 6.6 1.2 M5.9 5.2 Q5.55 4.8 5.7 3.75 L5.65 3.7 Q5.45 2.75 5.6 1.5 L5.95 0.05 7.1 0.05 Q8.3 1.45 7.1 5.2 L5.9 5.2" fill="#56504d" fill-rule="evenodd" stroke="none"/>
      <path d="M5.95 0.05 L5.6 1.5 Q5.45 2.75 5.65 3.7 L5.7 3.75 Q5.55 4.8 5.9 5.2 L1.1 5.2 Q0.15 3.85 0.55 1.65 0.85 0.25 1.2 0.05 L5.95 0.05" fill="url(#decoration105-gradient1)" fill-rule="evenodd" stroke="none"/>
      <path d="M5.7 3.75 Q6.05 5.15 6.6 4.0 7.15 3.05 7.1 2.05 7.0 1.15 6.6 1.2 M5.95 0.05 L5.6 1.5 Q5.45 2.75 5.65 3.7 L5.7 3.75 Q5.55 4.8 5.9 5.2 L7.1 5.2 Q8.3 1.45 7.1 0.05 L5.95 0.05 1.2 0.05 Q0.85 0.25 0.55 1.65 0.15 3.85 1.1 5.2 L5.9 5.2" fill="none" stroke="#000000" stroke-linecap="round" stroke-linejoin="round" stroke-opacity="0.3019608" stroke-width="0.30000000000000004"/>
      <path d="M40.15 5.75 L37.05 5.75 Q36.95 10.5 38.1 12.0 39.3 12.5 39.8 10.2 41.4 14.25 40.05 14.95 L37.95 14.55 36.65 14.0 36.05 13.65 Q36.8 9.2 35.9 4.75 L36.95 4.75 40.6 4.75 Q40.3 5.0 40.15 5.75" fill="#56504d" fill-rule="evenodd" stroke="none"/>
      <path d="M40.15 5.75 Q39.85 6.9 39.8 9.5 L39.8 10.2 Q39.3 12.5 38.1 12.0 36.95 10.5 37.05 5.75 L40.15 5.75" fill="url(#decoration105-gradient2)" fill-rule="evenodd" stroke="none"/>
      <path d="M39.8 10.2 L39.8 9.5 Q39.85 6.9 40.15 5.75 M39.8 10.2 Q41.4 14.25 40.05 14.95 L37.95 14.55 36.65 14.0 36.05 13.65 Q36.8 9.2 35.9 4.75 L36.95 4.75 40.6 4.75 Q40.3 5.0 40.15 5.75" fill="none" stroke="#000000" stroke-linecap="round" stroke-linejoin="round" stroke-opacity="0.3019608" stroke-width="0.30000000000000004"/>
      <path d="M37.1 0.25 L41.85 0.25 Q42.2 0.45 42.5 1.85 42.9 4.05 41.95 5.4 L37.15 5.4 Q37.5 5.0 37.35 3.95 L37.4 3.9 Q37.6 2.95 37.45 1.7 L37.1 0.25" fill="url(#decoration105-gradient3)" fill-rule="evenodd" stroke="none"/>
      <path d="M37.1 0.25 L37.45 1.7 Q37.6 2.95 37.4 3.9 L37.35 3.95 Q37.5 5.0 37.15 5.4 L35.95 5.4 Q34.75 1.65 35.95 0.25 L37.1 0.25 M36.45 1.4 Q36.05 1.35 35.95 2.25 35.9 3.25 36.45 4.2 37.0 5.35 37.35 3.95 37.0 5.35 36.45 4.2 35.9 3.25 35.95 2.25 36.05 1.35 36.45 1.4" fill="#56504d" fill-rule="evenodd" stroke="none"/>
      <path d="M37.15 5.4 L41.95 5.4 Q42.9 4.05 42.5 1.85 42.2 0.45 41.85 0.25 L37.1 0.25 37.45 1.7 Q37.6 2.95 37.4 3.9 L37.35 3.95 Q37.5 5.0 37.15 5.4 L35.95 5.4 Q34.75 1.65 35.95 0.25 L37.1 0.25 M37.35 3.95 Q37.0 5.35 36.45 4.2 35.9 3.25 35.95 2.25 36.05 1.35 36.45 1.4" fill="none" stroke="#000000" stroke-linecap="round" stroke-linejoin="round" stroke-opacity="0.3019608" stroke-width="0.30000000000000004"/>
      <path d="M41.9 14.65 Q41.9 15.55 41.1 16.35 L1.8 16.35 Q1.1 15.55 1.1 14.65 L41.9 14.65" fill="#56504d" fill-rule="evenodd" stroke="none"/>
      <path d="M1.1 14.65 Q-1.4 13.8 1.8 13.0 L41.1 13.0 Q44.5 14.0 41.9 14.65 L1.1 14.65" fill="#818180" fill-rule="evenodd" stroke="none"/>
      <path d="M1.1 14.65 Q-1.4 13.8 1.8 13.0 L41.1 13.0 Q44.5 14.0 41.9 14.65 41.9 15.55 41.1 16.35 L1.8 16.35 Q1.1 15.55 1.1 14.65 Z" fill="none" stroke="#000000" stroke-linecap="round" stroke-linejoin="round" stroke-opacity="0.3019608" stroke-width="0.30000000000000004"/>
    </g>
    <linearGradient gradientTransform="matrix(8.0E-4, 0.0059, -0.0018, 0.001, 4.1, 7.0)" gradientUnits="userSpaceOnUse" id="decoration105-gradient0" spreadMethod="pad" x1="-819.2" x2="819.2">
      <stop offset="0.0" stop-color="#aaaaaa"/>
      <stop offset="0.9215686274509803" stop-color="#6b6b6b"/>
    </linearGradient>
    <linearGradient gradientTransform="matrix(0.0, 0.0017, -0.0019, 0.0, 3.2, 3.8)" gradientUnits="userSpaceOnUse" id="decoration105-gradient1" spreadMethod="pad" x1="-819.2" x2="819.2">
      <stop offset="0.0" stop-color="#919191"/>
      <stop offset="0.9450980392156862" stop-color="#564f4c"/>
    </linearGradient>
    <linearGradient gradientTransform="matrix(-8.0E-4, 0.0059, 0.0018, 0.001, 38.95, 7.2)" gradientUnits="userSpaceOnUse" id="decoration105-gradient2" spreadMethod="pad" x1="-819.2" x2="819.2">
      <stop offset="0.0" stop-color="#aaaaaa"/>
      <stop offset="0.9215686274509803" stop-color="#6b6b6b"/>
    </linearGradient>
    <linearGradient gradientTransform="matrix(0.0, 0.0017, 0.0019, 0.0, 39.85, 4.0)" gradientUnits="userSpaceOnUse" id="decoration105-gradient3" spreadMethod="pad" x1="-819.2" x2="819.2">
      <stop offset="0.0" stop-color="#919191"/>
      <stop offset="0.9450980392156862" stop-color="#564f4c"/>
    </linearGradient>
    <g id="decoration105-sprite4" transform="matrix(1.0, 0.0, 0.0, 1.0, 6.6, 84.75)">
      <use height="84.9" transform="matrix(1.0, 0.0, 0.0, 1.0, -6.6, -84.75)" width="13.2" xlink:href="#decoration105-shape5"/>
    </g>
    <g id="decoration105-shape5" transform="matrix(1.0, 0.0, 0.0, 1.0, 6.6, 84.75)">
      <path d="M2.6 -10.45 Q1.15 -5.25 1.1 0.0 L-1.15 0.0 Q-1.1 -5.25 -2.55 -10.45 L2.6 -10.45" fill="#707070" fill-rule="evenodd" stroke="none"/>
      <path d="M2.6 -10.45 L-2.55 -10.45 Q-1.1 -5.25 -1.15 0.0 L1.1 0.0 Q1.15 -5.25 2.6 -10.45 Z" fill="none" stroke="#000000" stroke-linecap="round" stroke-linejoin="round" stroke-opacity="0.3019608" stroke-width="0.30000000000000004"/>
      <path d="M3.55 -11.95 Q3.85 -11.15 2.8 -10.35 L-2.95 -10.35 Q-3.8 -11.0 -3.7 -11.65 L-3.65 -11.95 Q-3.35 -12.7 -2.1 -12.85 L2.05 -12.85 Q3.25 -12.7 3.55 -11.95" fill="#707070" fill-rule="evenodd" stroke="none"/>
      <path d="M3.55 -11.95 Q3.85 -11.15 2.8 -10.35 L-2.95 -10.35 Q-3.8 -11.0 -3.7 -11.65 L-3.65 -11.95 Q-3.35 -12.7 -2.1 -12.85 L2.05 -12.85 Q3.25 -12.7 3.55 -11.95 Z" fill="none" stroke="#000000" stroke-linecap="round" stroke-linejoin="round" stroke-opacity="0.3019608" stroke-width="0.30000000000000004"/>
      <path d="M3.15 -13.5 Q3.9 -13.45 3.9 -12.9 4.0 -12.25 2.9 -12.2 L-0.1 -12.3 -1.65 -12.3 -3.5 -12.3 Q-4.15 -12.35 -4.1 -12.9 -4.05 -13.5 -3.2 -13.55 L-0.1 -13.5 1.75 -13.5 3.15 -13.5" fill="#707070" fill-rule="evenodd" stroke="none"/>
      <path d="M3.15 -13.5 Q3.9 -13.45 3.9 -12.9 4.0 -12.25 2.9 -12.2 L-0.1 -12.3 -1.65 -12.3 -3.5 -12.3 Q-4.15 -12.35 -4.1 -12.9 -4.05 -13.5 -3.2 -13.55 L-0.1 -13.5 1.75 -13.5 3.15 -13.5 Z" fill="none" stroke="#000000" stroke-linecap="round" stroke-linejoin="round" stroke-opacity="0.3019608" stroke-width="0.30000000000000004"/>
      <path d="M4.9 -17.85 Q5.3 -15.55 3.85 -13.25 L-3.95 -13.25 Q-5.1 -15.05 -5.0 -16.95 L-4.9 -17.85 Q-4.5 -20.0 -2.8 -20.4 L2.85 -20.4 Q4.5 -20.0 4.9 -17.85" fill="#707070" fill-rule="evenodd" stroke="none"/>
      <path d="M4.9 -17.85 Q4.5 -20.0 2.85 -20.4 L-2.8 -20.4 Q-4.5 -20.0 -4.9 -17.85 L-5.0 -16.95 Q-5.1 -15.05 -3.95 -13.25 L3.85 -13.25 Q5.3 -15.55 4.9 -17.85 Z" fill="none" stroke="#000000" stroke-linecap="round" stroke-linejoin="round" stroke-opacity="0.3019608" stroke-width="0.30000000000000004"/>
      <path d="M5.05 -76.8 Q6.4 -76.7 6.3 -75.4 6.2 -74.0 4.5 -73.8 L-4.45 -73.8 4.5 -73.8 Q5.55 -73.15 5.9 -71.6 6.35 -69.35 4.65 -67.1 L4.25 -67.1 Q2.7 -64.6 2.7 -61.65 2.7 -58.5 4.3 -55.35 L4.7 -55.35 Q5.8 -55.3 5.8 -54.55 5.85 -54.25 5.3 -53.95 L4.75 -53.65 5.6 -51.9 Q6.05 -49.65 4.4 -47.35 L4.25 -47.35 -4.05 -47.35 -4.85 -47.75 Q-5.65 -48.65 -5.7 -51.05 -5.7 -52.2 -5.35 -52.9 L-4.65 -53.75 -4.9 -53.75 Q-5.75 -53.8 -5.7 -54.55 -5.65 -55.35 -4.45 -55.4 L-4.35 -55.4 Q-2.8 -58.5 -2.8 -61.65 -2.8 -64.6 -4.3 -67.1 L-4.7 -67.1 -5.7 -68.75 -6.0 -70.8 Q-6.0 -73.0 -4.45 -73.8 -6.15 -74.2 -6.15 -75.4 -6.15 -76.65 -5.1 -76.75 L-5.85 -77.8 Q-6.55 -79.35 -6.4 -81.7 -5.9 -84.15 -3.65 -84.6 L3.7 -84.6 Q5.9 -84.15 6.4 -81.7 6.6 -80.7 5.85 -78.65 L5.05 -76.8 -5.1 -76.75 5.05 -76.8 M-4.65 -53.75 L4.75 -53.65 -4.65 -53.75 M-4.3 -67.1 L4.25 -67.1 -4.3 -67.1 M-4.35 -55.4 L4.3 -55.35 -4.35 -55.4" fill="url(#decoration105-gradient4)" fill-rule="evenodd" stroke="none"/>
      <path d="M4.25 -47.35 Q1.9 -33.3 1.85 -18.95 L-1.75 -18.95 Q-1.7 -33.3 -4.05 -47.35 L4.25 -47.35" fill="url(#decoration105-gradient5)" fill-rule="evenodd" stroke="none"/>
      <path d="M4.5 -73.8 Q6.2 -74.0 6.3 -75.4 6.4 -76.7 5.05 -76.8 L-5.1 -76.75 Q-6.15 -76.65 -6.15 -75.4 -6.15 -74.2 -4.45 -73.8 L4.5 -73.8 Q5.55 -73.15 5.9 -71.6 6.35 -69.35 4.65 -67.1 L4.25 -67.1 Q2.7 -64.6 2.7 -61.65 2.7 -58.5 4.3 -55.35 L4.7 -55.35 Q5.8 -55.3 5.8 -54.55 5.85 -54.25 5.3 -53.95 L4.75 -53.65 5.6 -51.9 Q6.05 -49.65 4.4 -47.35 L4.25 -47.35 Q1.9 -33.3 1.85 -18.95 L-1.75 -18.95 Q-1.7 -33.3 -4.05 -47.35 L-4.85 -47.75 Q-5.65 -48.65 -5.7 -51.05 -5.7 -52.2 -5.35 -52.9 L-4.65 -53.75 -4.9 -53.75 Q-5.75 -53.8 -5.7 -54.55 -5.65 -55.35 -4.45 -55.4 L-4.35 -55.4 Q-2.8 -58.5 -2.8 -61.65 -2.8 -64.6 -4.3 -67.1 L-4.7 -67.1 -5.7 -68.75 -6.0 -70.8 Q-6.0 -73.0 -4.45 -73.8 M-5.1 -76.75 L-5.85 -77.8 Q-6.55 -79.35 -6.4 -81.7 -5.9 -84.15 -3.65 -84.6 L3.7 -84.6 Q5.9 -84.15 6.4 -81.7 6.6 -80.7 5.85 -78.65 L5.05 -76.8 M4.25 -67.1 L-4.3 -67.1 M4.75 -53.65 L-4.65 -53.75 M-4.05 -47.35 L4.25 -47.35 M4.3 -55.35 L-4.35 -55.4" fill="none" stroke="#000000" stroke-linecap="round" stroke-linejoin="round" stroke-opacity="0.3019608" stroke-width="0.30000000000000004"/>
    </g>
    <linearGradient gradientTransform="matrix(0.0, -0.0281, 0.0173, 0.0, 18.35, -50.2)" gradientUnits="userSpaceOnUse" id="decoration105-gradient4" spreadMethod="pad" x1="-819.2" x2="819.2">
      <stop offset="0.0" stop-color="#707070"/>
      <stop offset="1.0" stop-color="#35302d"/>
    </linearGradient>
    <linearGradient gradientTransform="matrix(0.0, -0.0281, 0.0173, 0.0, 18.35, -50.2)" gradientUnits="userSpaceOnUse" id="decoration105-gradient5" spreadMethod="pad" x1="-819.2" x2="819.2">
      <stop offset="0.0" stop-color="#707070"/>
      <stop offset="0.9725490196078431" stop-color="#332d2a"/>
    </linearGradient>
    <g id="decoration105-sprite5" transform="matrix(1.0, 0.0, 0.0, 1.0, 0.2, 0.2)">
      <use height="3.7" transform="matrix(1.0, 0.0, 0.0, 1.0, -0.2, -0.2)" width="35.0" xlink:href="#decoration105-shape6"/>
    </g>
    <g id="decoration105-shape6" transform="matrix(1.0, 0.0, 0.0, 1.0, 0.2, 0.2)">
      <path d="M0.5 1.7 Q1.4 0.75 4.15 0.4 L16.65 0.0 29.7 0.45 Q32.4 2.5 0.5 1.7" fill="#808080" fill-rule="evenodd" stroke="none"/>
      <path d="M29.7 0.45 L31.85 0.75 Q34.55 1.3 34.6 3.3 L0.1 3.3 Q-0.2 2.35 0.5 1.7 32.4 2.5 29.7 0.45" fill="#545353" fill-rule="evenodd" stroke="none"/>
      <path d="M0.5 1.7 Q1.4 0.75 4.15 0.4 L16.65 0.0 29.7 0.45 31.85 0.75 Q34.55 1.3 34.6 3.3 L0.1 3.3 Q-0.2 2.35 0.5 1.7 Z" fill="none" stroke="#000000" stroke-linecap="round" stroke-linejoin="round" stroke-opacity="0.3882353" stroke-width="0.4"/>
    </g>
    <g id="decoration105-sprite6" transform="matrix(1.0, 0.0, 0.0, 1.0, 0.0, 0.0)">
      <use height="4.6" transform="matrix(1.0, 0.0, 0.0, 1.0, 0.0, 0.0)" width="35.4" xlink:href="#decoration105-shape7"/>
    </g>
    <g id="decoration105-shape7" transform="matrix(1.0, 0.0, 0.0, 1.0, 0.0, 0.0)">
      <path d="M35.4 0.0 L35.4 4.6 0.0 4.6 0.0 0.0 35.4 0.0" fill="#738a7e" fill-opacity="0.0" fill-rule="evenodd" stroke="none"/>
    </g>
    <g id="decoration105-sprite7" transform="matrix(1.0, 0.0, 0.0, 1.0, -10.95, -16.65)">
      <use height="48.5" transform="matrix(1.0, 0.0, 0.0, 1.0, 10.95, 16.65)" width="51.0" xlink:href="#decoration105-shape8"/>
    </g>
    <g id="decoration105-shape8" transform="matrix(1.0, 0.0, 0.0, 1.0, -10.95, -16.65)">
      <path d="M61.95 40.9 Q61.95 50.95 54.45 58.05 47.0 65.15 36.45 65.15 25.9 65.15 18.4 58.05 10.95 50.95 10.95 40.9 10.95 30.9 18.4 23.75 25.9 16.65 36.45 16.65 47.0 16.65 54.45 23.75 61.95 30.9 61.95 40.9" fill="url(#decoration105-gradient6)" fill-rule="evenodd" stroke="none"/>
    </g>
    <radialGradient cx="0" cy="0" gradientTransform="matrix(0.0313, 0.0, 0.0, 0.0298, 36.45, 40.9)" gradientUnits="userSpaceOnUse" id="decoration105-gradient6" r="819.2" spreadMethod="pad">
      <stop offset="0.0" stop-color="#f7db9d" stop-opacity="0.53333336"/>
      <stop offset="1.0" stop-color="#f0d18d" stop-opacity="0.0"/>
    </radialGradient>
  </defs>
</svg>
