<?xml version="1.0" encoding="UTF-8" standalone="no"?>
<svg xmlns:ffdec="https://www.free-decompiler.com/flash" xmlns:xlink="http://www.w3.org/1999/xlink" ffdec:objectType="frame" height="79.35px" width="138.35px" xmlns="http://www.w3.org/2000/svg">
  <g transform="matrix(1.0, 0.0, 0.0, 1.0, 69.15, 0.0)">
    <use ffdec:characterId="520" height="79.35" transform="matrix(1.0, 0.0, 0.0, 1.0, -69.15, 0.0)" width="138.35" xlink:href="#decoration109-shape0"/>
  </g>
  <defs>
    <g id="decoration109-shape0" transform="matrix(1.0, 0.0, 0.0, 1.0, 69.15, 0.0)">
      <path d="M43.25 1.25 Q38.6 3.45 41.55 6.95 L47.3 8.15 Q45.15 4.85 47.45 1.25 L43.25 1.25 M49.6 19.35 Q44.1 18.9 46.2 23.75 47.5 25.55 57.1 30.85 L67.85 37.05 56.25 31.5 Q47.75 32.8 50.2 40.95 51.25 44.5 57.4 48.9 L69.2 57.8 53.8 47.55 Q50.65 45.85 50.2 48.05 49.75 50.25 51.35 53.5 L58.55 62.1 48.1 52.45 37.8 43.4 Q33.85 42.8 31.7 45.35 29.45 48.0 30.2 53.15 L39.8 68.85 21.2 41.7 Q14.7 36.6 13.9 44.5 15.75 53.8 20.6 64.3 L17.9 62.65 17.9 62.55 Q17.2 56.6 13.8 50.7 9.05 48.85 6.7 53.75 6.2 55.2 7.25 65.5 L4.25 45.2 Q0.6 41.75 -0.95 45.9 -2.5 54.25 -1.65 78.9 L-2.55 79.35 Q-1.0 72.25 -3.65 63.0 -5.95 54.95 -13.25 59.15 L-17.45 66.4 Q-15.3 62.45 -13.3 55.05 -12.55 52.45 -11.7 47.6 -10.9 43.0 -10.3 40.95 -8.65 35.5 -10.1 33.1 -11.15 31.3 -14.35 30.95 L-18.15 31.4 Q-19.9 31.9 -20.25 32.3 -19.4 30.45 -19.6 27.8 -19.85 25.1 -25.1 26.6 L-51.6 50.8 -38.75 37.6 Q-42.25 26.3 -57.2 33.8 -54.7 32.45 -51.3 29.1 -45.4 17.8 -55.3 14.05 -60.05 13.15 -64.5 13.85 -59.15 12.7 -58.25 8.5 -57.85 6.6 -58.55 5.05 -59.3 3.5 -64.0 2.9 L-69.15 2.6 -54.2 2.0 -38.0 1.8 Q-36.8 1.65 2.35 1.05 43.05 0.45 50.8 0.0 40.3 6.85 60.75 12.9 L51.2 10.55 Q46.6 11.75 50.4 17.5 L61.9 23.0 Q55.8 20.25 49.6 19.35 M47.7 18.45 Q44.1 16.35 39.0 15.95 36.0 17.0 37.15 19.8 L44.25 23.4 Q44.35 19.8 47.7 18.45 M48.75 17.15 Q46.7 13.15 49.0 10.05 43.3 6.95 38.8 8.35 34.3 9.65 37.1 13.45 41.95 15.75 48.75 17.15 M53.5 30.15 Q45.25 23.35 36.35 21.25 30.0 23.4 32.6 29.3 32.45 29.65 39.15 34.3 L50.3 41.9 Q49.6 40.5 49.2 37.4 48.8 34.3 53.5 30.15 M51.65 46.0 Q48.7 40.35 42.8 38.2 38.0 38.2 40.35 43.6 42.7 48.95 49.0 51.05 49.1 49.4 49.9 47.6 50.65 45.75 51.65 46.0 M20.25 1.9 Q14.9 2.7 19.1 4.3 23.25 5.9 28.35 5.35 26.1 3.25 28.25 2.05 25.55 1.1 20.25 1.9 M22.1 5.4 Q19.95 5.25 17.7 5.4 15.4 5.55 17.65 7.75 21.45 9.95 26.6 10.2 25.8 8.45 27.15 6.7 24.2 5.5 22.1 5.4 M28.4 10.95 L35.25 12.9 Q34.3 10.15 37.75 8.4 33.8 6.1 29.4 6.95 26.05 7.5 28.4 10.95 M23.8 19.25 Q24.3 17.0 25.9 16.55 22.8 14.2 17.15 12.5 11.45 10.8 15.05 15.0 18.1 18.95 23.75 22.9 23.3 21.45 23.8 19.25 M24.85 23.5 Q26.9 25.95 30.8 27.95 30.85 22.9 35.45 20.3 32.1 17.45 27.3 16.9 23.0 17.3 24.85 23.5 M38.1 15.15 Q34.2 12.55 30.15 12.35 26.0 12.1 27.5 15.9 30.85 17.4 35.2 18.65 35.3 16.8 38.1 15.15 M29.75 5.25 Q32.6 6.85 39.55 6.85 38.7 4.4 41.05 1.8 35.9 1.2 30.8 2.05 25.2 2.75 29.75 5.25 M27.4 11.4 L16.85 8.65 Q14.35 9.0 15.75 10.65 20.95 13.8 26.1 15.45 25.3 12.75 27.4 11.4 M16.95 5.15 Q10.05 3.4 1.8 3.05 7.75 5.6 16.8 7.15 15.35 6.15 16.95 5.15 M15.9 8.15 Q11.6 5.9 5.6 5.55 9.4 8.25 14.8 10.0 14.55 8.7 15.9 8.15 M18.45 1.8 Q10.5 1.3 0.55 2.1 11.55 4.0 17.1 3.95 16.4 2.8 18.45 1.8 M9.4 16.4 Q10.0 15.45 10.75 15.6 7.1 10.45 0.6 5.6 4.55 13.1 9.1 19.05 8.85 17.4 9.4 16.4 M8.5 20.35 Q5.6 14.75 0.1 7.0 L6.0 21.35 Q7.1 19.15 8.5 20.35 M6.4 22.8 L10.2 33.55 Q12.25 30.35 15.15 30.55 12.7 25.15 10.7 22.85 8.65 20.5 7.8 20.85 6.9 21.2 6.4 22.8 M3.25 16.3 Q1.35 10.9 0.05 8.8 0.5 17.15 1.9 24.15 3.5 21.85 5.4 23.35 5.15 21.7 3.25 16.3 M14.6 11.35 Q9.25 7.2 0.5 3.8 5.8 10.6 13.1 14.45 11.6 11.35 14.6 11.35 M10.35 20.2 Q12.55 25.75 15.7 29.35 16.45 24.65 20.35 25.5 17.25 21.55 12.45 17.6 8.15 14.65 10.35 20.2 M14.45 31.75 Q11.45 32.15 10.85 34.45 10.2 36.75 13.0 42.85 14.8 38.05 19.7 39.7 17.4 31.35 14.45 31.75 M4.85 33.9 L3.7 36.6 Q3.25 41.0 4.8 43.45 8.0 41.1 11.35 42.3 11.3 40.3 10.65 37.85 9.95 35.4 8.2 33.5 6.4 31.6 4.85 33.9 M6.15 25.05 Q3.1 21.35 2.15 25.95 2.5 30.2 3.65 34.4 5.0 30.0 8.35 32.55 7.95 28.8 6.15 25.05 M1.15 27.5 Q-0.55 25.2 -1.25 29.1 -2.0 32.7 -1.45 36.4 0.1 33.2 2.1 34.9 2.25 31.3 1.15 27.5 M1.95 37.4 Q0.6 33.7 -1.25 38.35 -1.9 40.95 -1.0 43.75 0.8 41.85 2.6 42.65 2.75 40.05 1.95 37.4 M5.25 44.9 L5.85 48.95 6.25 52.15 Q8.85 48.95 13.8 49.35 14.45 46.15 11.75 43.65 7.85 41.75 5.25 44.9 M24.85 36.1 Q23.15 38.0 22.35 41.5 L27.6 50.55 29.7 47.4 Q31.6 44.75 32.6 44.05 34.4 42.8 36.2 42.1 33.9 38.7 29.45 35.7 26.65 34.1 24.85 36.1 M24.65 28.3 L28.65 32.4 Q28.05 29.45 30.5 29.55 28.4 26.7 25.4 25.3 23.05 24.0 23.15 25.4 23.2 26.75 24.65 28.3 M22.75 28.2 Q16.6 22.8 17.15 30.9 18.0 35.2 22.1 40.4 23.05 34.5 28.05 34.2 L22.75 28.2 M38.95 41.85 Q37.9 38.9 40.5 37.55 36.7 31.5 32.25 30.6 27.8 29.7 29.55 34.4 33.5 38.5 38.95 41.85 M12.35 16.15 Q16.65 21.0 22.35 25.65 21.85 23.85 23.7 24.15 19.5 19.0 12.35 16.15 M-13.2 8.9 Q-7.5 6.85 -2.45 3.4 -7.55 3.3 -12.65 5.15 -11.65 6.95 -13.2 8.9 M-11.9 3.55 Q-7.05 3.75 -2.3 2.0 L-11.2 2.25 -11.9 3.55 M-10.15 17.5 Q-10.15 15.15 -13.6 15.8 L-17.0 18.9 Q-13.95 18.05 -13.15 21.7 -11.6 20.4 -10.15 17.5 M-14.25 20.25 L-18.55 20.35 Q-22.15 22.5 -23.7 25.0 -18.05 24.95 -18.2 29.55 -15.3 27.2 -14.0 23.35 -13.9 22.0 -14.25 20.25 M-14.05 14.0 Q-13.0 11.45 -15.75 12.4 -18.5 13.35 -21.15 15.9 -18.95 15.55 -17.95 17.1 -16.4 16.4 -14.05 14.0 M-9.85 18.7 Q-12.1 21.2 -13.5 24.25 -9.8 22.7 -7.55 25.15 L-6.65 20.95 Q-6.75 15.15 -9.85 18.7 M-6.25 18.85 L-2.9 7.15 Q-6.25 11.05 -8.2 17.05 -6.75 16.85 -6.25 18.85 M-6.45 6.75 Q-10.55 8.1 -14.85 11.15 -12.7 11.85 -13.45 13.5 -10.55 11.4 -6.45 6.75 M-2.45 4.55 Q-7.8 7.8 -12.15 14.45 -10.5 14.15 -9.7 15.9 -5.9 11.3 -2.45 4.55 M-19.6 12.7 Q-11.8 9.6 -13.5 5.55 -19.6 6.35 -24.2 8.25 -21.45 8.45 -20.25 10.2 -19.65 11.1 -19.6 12.7 M-21.7 6.25 Q-10.1 4.95 -13.85 2.2 -17.6 1.15 -21.55 2.25 -19.8 3.6 -21.7 6.25 M-23.65 2.55 Q-28.35 1.6 -33.9 2.5 -32.25 4.15 -32.5 6.15 -32.8 8.15 -35.25 9.55 -28.05 8.2 -23.35 6.65 -20.55 3.6 -23.65 2.55 M-33.15 5.6 Q-32.85 3.5 -34.75 2.85 L-41.6 2.5 -49.55 3.05 Q-44.55 6.15 -46.65 11.05 L-37.6 10.1 Q-33.45 7.7 -33.15 5.6 M-21.05 10.1 Q-22.6 8.7 -26.95 8.5 L-35.6 10.45 Q-30.2 11.75 -29.7 16.0 -29.6 17.0 -31.6 19.2 L-26.85 17.5 Q-22.95 15.85 -21.25 13.7 -19.5 11.5 -21.05 10.1 M-37.45 24.0 Q-35.7 24.1 -32.65 26.2 -30.15 27.95 -29.65 28.7 L-26.7 25.75 Q-24.85 21.8 -26.2 20.8 -27.6 19.75 -31.55 20.75 -35.55 21.7 -37.45 24.0 M-25.1 24.0 Q-21.75 22.65 -19.55 18.35 -18.9 16.15 -23.3 16.55 L-28.95 19.55 -26.4 20.05 Q-24.35 20.3 -25.1 24.0 M-31.95 17.35 Q-31.35 13.1 -33.2 12.25 -36.1 10.95 -40.55 11.5 L-46.65 12.6 Q-37.8 15.05 -40.6 23.5 -32.6 21.55 -31.95 17.35 M-30.5 29.55 L-33.2 27.15 Q-36.55 24.7 -39.7 24.55 -41.8 24.5 -43.3 25.5 L-51.25 30.6 Q-45.9 30.0 -42.75 31.35 -40.9 32.15 -38.95 34.3 L-37.4 36.25 -30.5 29.55 M-8.15 36.0 Q-9.85 38.55 -9.95 44.4 -5.65 40.35 -2.45 43.5 -1.8 40.4 -2.35 36.9 -3.9 33.7 -5.2 33.6 -6.5 33.45 -8.15 36.0 M-4.9 33.35 Q-4.1 33.5 -2.5 35.2 -2.25 32.05 -2.6 28.15 -4.25 25.15 -6.2 28.05 -8.4 31.95 -8.1 34.5 -6.0 33.1 -4.9 33.35 M-2.45 26.9 Q-1.55 19.25 -2.6 8.45 -6.25 19.5 -6.05 26.6 -4.5 25.25 -2.45 26.9 M-7.7 26.95 Q-9.65 21.75 -13.95 25.7 -16.5 28.1 -17.1 30.65 L-13.35 30.55 Q-9.85 31.0 -9.1 32.7 -7.8 30.45 -7.7 26.95 M-10.3 46.55 Q-11.95 49.7 -12.25 53.0 L-12.55 57.45 Q-6.15 55.35 -2.9 61.4 -1.6 52.75 -2.8 45.5 -4.7 39.2 -10.3 46.55 M-1.35 26.6 Q-0.45 24.4 0.35 25.3 0.25 16.7 -1.05 5.55 -2.15 16.95 -1.35 26.6 M-49.6 11.5 Q-46.3 9.85 -47.35 6.95 -48.4 4.0 -50.9 3.2 -53.45 2.4 -58.3 3.2 -56.2 8.75 -58.75 12.6 L-49.6 11.5 M-40.85 18.1 Q-41.5 14.7 -48.4 12.4 -52.2 12.45 -53.45 13.6 -49.45 16.0 -48.65 19.3 -48.0 21.75 -49.15 26.15 L-49.75 28.25 Q-46.15 27.3 -42.75 24.0 -40.25 21.5 -40.85 18.1" fill="#ffffff" fill-opacity="0.4392157" fill-rule="evenodd" stroke="none"/>
    </g>
  </defs>
</svg>
