<?xml version="1.0" encoding="UTF-8" standalone="no"?>
<svg xmlns:xlink="http://www.w3.org/1999/xlink" height="23.45px" width="13.05px" xmlns="http://www.w3.org/2000/svg">
  <g transform="matrix(1.0, 0.0, 0.0, 1.0, 7.25, 23.2)">
    <use height="23.45" transform="matrix(1.0, 0.0, 0.0, 1.0, -7.25, -23.2)" width="13.05" xlink:href="#decoration11-shape0"/>
  </g>
  <defs>
    <g id="decoration11-shape0" transform="matrix(1.0, 0.0, 0.0, 1.0, 7.25, 23.2)">
      <path d="M0.65 -1.75 L-0.8 -3.95 -0.9 -4.05 -0.95 -4.15 -1.05 -4.4 Q-1.25 -6.65 -0.1 -8.1 1.75 -10.35 1.95 -11.5 L2.35 -10.4 2.65 -9.05 Q2.9 -7.1 1.7 -4.75 0.8 -3.15 0.65 -1.75 M-0.9 -4.05 L-0.45 -5.3 Q1.2 -7.6 1.4 -8.55 1.2 -7.6 -0.45 -5.3 L-0.9 -4.05" fill="url(#decoration11-gradient0)" fill-rule="evenodd" stroke="none"/>
      <path d="M0.65 -1.75 L1.05 -1.2" fill="none" stroke="#00ff00" stroke-linecap="round" stroke-linejoin="round" stroke-width="0.05"/>
      <path d="M0.65 -1.75 L-0.8 -3.95 -0.9 -4.05 -0.95 -4.15 -1.05 -4.4 Q-1.25 -6.65 -0.1 -8.1 1.75 -10.35 1.95 -11.5 L2.35 -10.4 2.65 -9.05 Q2.9 -7.1 1.7 -4.75 0.8 -3.15 0.65 -1.75" fill="none" stroke="#000000" stroke-linecap="round" stroke-linejoin="round" stroke-opacity="0.3882353" stroke-width="0.4"/>
      <path d="M1.4 -8.55 Q1.2 -7.6 -0.45 -5.3 L-0.9 -4.05" fill="none" stroke="#000000" stroke-linecap="round" stroke-linejoin="round" stroke-opacity="0.078431375" stroke-width="0.4"/>
      <path d="M-0.05 -0.1 Q-1.2 -6.45 -0.6 -13.4 -0.85 -6.2 0.65 -0.15 L-0.05 -0.1" fill="#657e06" fill-rule="evenodd" stroke="none"/>
      <path d="M-0.05 -0.1 L0.65 -0.15 Q-0.85 -6.2 -0.6 -13.4 -1.2 -6.45 -0.05 -0.1 Z" fill="none" stroke="#000000" stroke-linecap="round" stroke-linejoin="round" stroke-opacity="0.3882353" stroke-width="0.4"/>
      <path d="M-0.15 0.05 L-0.6 0.05 -4.05 -5.55 Q-6.4 -9.2 -7.05 -9.8 -4.55 -9.6 -2.85 -8.5 0.3 -6.3 0.35 0.05 L-0.15 0.05 Q-1.25 -4.6 -4.0 -7.75 -1.25 -4.6 -0.15 0.05" fill="url(#decoration11-gradient1)" fill-rule="evenodd" stroke="none"/>
      <path d="M-0.15 0.05 L0.35 0.05 Q0.3 -6.3 -2.85 -8.5 -4.55 -9.6 -7.05 -9.8 -6.4 -9.2 -4.05 -5.55 L-0.6 0.05 -0.15 0.05" fill="none" stroke="#000000" stroke-linecap="round" stroke-linejoin="round" stroke-opacity="0.3882353" stroke-width="0.4"/>
      <path d="M-0.15 0.05 Q-1.25 -4.6 -4.0 -7.75" fill="none" stroke="#000000" stroke-linecap="round" stroke-linejoin="round" stroke-opacity="0.23137255" stroke-width="0.4"/>
      <path d="M3.15 -3.65 L0.25 0.0 Q-0.05 -4.65 2.25 -5.8 3.25 -6.3 5.6 -6.6 L3.15 -3.65 M2.85 -4.85 Q1.2 -3.0 0.25 0.0 1.2 -3.0 2.85 -4.85" fill="url(#decoration11-gradient2)" fill-rule="evenodd" stroke="none"/>
      <path d="M3.15 -3.65 L0.25 0.0 Q-0.05 -4.65 2.25 -5.8 3.25 -6.3 5.6 -6.6 L3.15 -3.65" fill="none" stroke="#000000" stroke-linecap="round" stroke-linejoin="round" stroke-opacity="0.3882353" stroke-width="0.4"/>
      <path d="M0.25 0.0 Q1.2 -3.0 2.85 -4.85" fill="none" stroke="#000000" stroke-linecap="round" stroke-linejoin="round" stroke-opacity="0.23137255" stroke-width="0.4"/>
      <path d="M0.3 -22.05 L0.0 -22.5 Q1.5 -23.6 3.25 -22.75 4.3 -21.85 4.65 -20.5 5.1 -18.7 4.25 -16.2 4.7 -18.25 3.65 -20.5 3.05 -21.7 2.25 -22.05 1.4 -22.55 0.3 -22.05" fill="#691d00" fill-rule="evenodd" stroke="none"/>
      <path d="M0.0 -22.5 L0.3 -22.05 Q-0.65 -21.65 -1.9 -20.55 -3.05 -18.85 -3.4 -17.3 -3.6 -19.3 -2.65 -21.35 L-2.2 -21.3 -1.9 -21.3 -1.2 -21.7 Q-0.75 -22.05 -0.75 -22.6 L-0.75 -22.8 0.0 -22.5" fill="#641c00" fill-rule="evenodd" stroke="none"/>
      <path d="M0.3 -22.05 Q1.4 -22.55 2.25 -22.05 L2.75 -21.5 Q3.7 -20.3 3.7 -19.1 L3.5 -17.7 2.95 -16.4 1.8 -15.5 Q0.75 -14.8 0.1 -14.8 L-2.05 -15.2 -2.25 -15.55 -2.55 -16.6 -2.25 -15.55 -2.05 -15.2 -2.45 -15.4 -3.5 -16.3 -3.4 -17.3 Q-3.05 -18.85 -1.9 -20.55 -0.65 -21.65 0.3 -22.05 M2.95 -17.95 L2.95 -20.15 2.95 -17.95 M-1.6 -17.85 L-1.55 -18.35 -1.6 -17.85" fill="#b43a09" fill-rule="evenodd" stroke="none"/>
      <path d="M2.25 -22.05 Q3.05 -21.7 3.65 -20.5 4.7 -18.25 4.25 -16.2 L3.7 -14.75 3.2 -13.85 Q-0.95 -11.9 -3.4 -15.0 L-3.5 -16.3 -2.45 -15.4 -2.05 -15.2 0.1 -14.8 Q0.75 -14.8 1.8 -15.5 L2.95 -16.4 3.5 -17.7 3.7 -19.1 Q3.7 -20.3 2.75 -21.5 L2.25 -22.05 M1.8 -14.55 L2.25 -14.9 2.5 -15.45 2.25 -14.9 1.8 -14.55 M-1.75 -14.65 L-2.05 -15.2 -1.75 -14.65" fill="#8c2800" fill-rule="evenodd" stroke="none"/>
      <path d="M4.25 -16.2 Q5.1 -18.7 4.65 -20.5 6.2 -19.9 5.45 -17.75 4.75 -15.55 3.7 -14.75 L4.25 -16.2 M-0.75 -22.8 L-0.75 -22.6 Q-0.75 -22.05 -1.2 -21.7 L-1.9 -21.3 -2.2 -21.3 -2.65 -21.35 -1.9 -22.75 -0.75 -22.8 M-1.8 -21.8 L-1.9 -21.3 -1.8 -21.8" fill="#8e2800" fill-rule="evenodd" stroke="none"/>
      <path d="M0.0 -22.5 L0.3 -22.05 Q1.4 -22.55 2.25 -22.05 3.05 -21.7 3.65 -20.5 4.7 -18.25 4.25 -16.2 5.1 -18.7 4.65 -20.5 4.3 -21.85 3.25 -22.75 1.5 -23.6 0.0 -22.5 L-0.75 -22.8 M-2.65 -21.35 Q-3.6 -19.3 -3.4 -17.3 -3.05 -18.85 -1.9 -20.55 -0.65 -21.65 0.3 -22.05 M3.7 -14.75 L3.2 -13.85 Q-0.95 -11.9 -3.4 -15.0 L-3.5 -16.3 -3.4 -17.3 M3.7 -14.75 L4.25 -16.2 M4.65 -20.5 Q6.2 -19.9 5.45 -17.75 4.75 -15.55 3.7 -14.75 M-2.65 -21.35 L-1.9 -22.75 -0.75 -22.8" fill="none" stroke="#000000" stroke-linecap="round" stroke-linejoin="round" stroke-opacity="0.36862746" stroke-width="0.2"/>
      <path d="M2.5 -15.45 L2.25 -14.9 1.8 -14.55 M2.95 -20.15 L2.95 -17.95 M-1.9 -21.3 L-1.8 -21.8 M-2.05 -15.2 L-2.25 -15.55 -2.55 -16.6 M-2.05 -15.2 L-1.75 -14.65 M-1.55 -18.35 L-1.6 -17.85" fill="none" stroke="#000000" stroke-linecap="round" stroke-linejoin="round" stroke-opacity="0.09019608" stroke-width="0.2"/>
    </g>
    <linearGradient gradientTransform="matrix(-0.0016, 0.0041, -0.0048, -0.003, 1.35, -8.0)" gradientUnits="userSpaceOnUse" id="decoration11-gradient0" spreadMethod="pad" x1="-819.2" x2="819.2">
      <stop offset="0.043137254901960784" stop-color="#96b426"/>
      <stop offset="0.9294117647058824" stop-color="#668003"/>
    </linearGradient>
    <linearGradient gradientTransform="matrix(0.002, 0.003, -0.0023, 0.0046, -2.3, -4.3)" gradientUnits="userSpaceOnUse" id="decoration11-gradient1" spreadMethod="pad" x1="-819.2" x2="819.2">
      <stop offset="0.043137254901960784" stop-color="#96b426"/>
      <stop offset="0.9686274509803922" stop-color="#829f14"/>
    </linearGradient>
    <linearGradient gradientTransform="matrix(-0.0011, 0.0019, 0.0027, 0.0029, 3.2, -3.5)" gradientUnits="userSpaceOnUse" id="decoration11-gradient2" spreadMethod="pad" x1="-819.2" x2="819.2">
      <stop offset="0.043137254901960784" stop-color="#96b426"/>
      <stop offset="0.9294117647058824" stop-color="#668003"/>
    </linearGradient>
  </defs>
</svg>
