<?xml version="1.0" encoding="UTF-8" standalone="no"?>
<svg xmlns:xlink="http://www.w3.org/1999/xlink" height="27.05px" width="13.2px" xmlns="http://www.w3.org/2000/svg">
  <g transform="matrix(1.0, 0.0, 0.0, 1.0, 7.25, 26.8)">
    <use height="27.05" transform="matrix(1.0, 0.0, 0.0, 1.0, -7.25, -26.8)" width="13.2" xlink:href="#decoration11-shape0"/>
  </g>
  <defs>
    <g id="decoration11-shape0" transform="matrix(1.0, 0.0, 0.0, 1.0, 7.25, 26.8)">
      <path d="M0.65 -1.75 L-0.8 -3.95 -0.9 -4.05 -0.95 -4.15 -1.05 -4.4 Q-1.25 -6.65 -0.1 -8.1 1.75 -10.35 1.95 -11.5 L2.35 -10.4 2.65 -9.05 Q2.9 -7.1 1.7 -4.75 0.8 -3.15 0.65 -1.75 M-0.9 -4.05 L-0.45 -5.3 Q1.2 -7.6 1.4 -8.55 1.2 -7.6 -0.45 -5.3 L-0.9 -4.05" fill="url(#decoration11-gradient0)" fill-rule="evenodd" stroke="none"/>
      <path d="M0.65 -1.75 L1.05 -1.2" fill="none" stroke="#00ff00" stroke-linecap="round" stroke-linejoin="round" stroke-width="0.05"/>
      <path d="M0.65 -1.75 L-0.8 -3.95 -0.9 -4.05 -0.95 -4.15 -1.05 -4.4 Q-1.25 -6.65 -0.1 -8.1 1.75 -10.35 1.95 -11.5 L2.35 -10.4 2.65 -9.05 Q2.9 -7.1 1.7 -4.75 0.8 -3.15 0.65 -1.75" fill="none" stroke="#000000" stroke-linecap="round" stroke-linejoin="round" stroke-opacity="0.3882353" stroke-width="0.4"/>
      <path d="M1.4 -8.55 Q1.2 -7.6 -0.45 -5.3 L-0.9 -4.05" fill="none" stroke="#000000" stroke-linecap="round" stroke-linejoin="round" stroke-opacity="0.078431375" stroke-width="0.4"/>
      <path d="M-0.05 -0.1 Q-1.2 -6.45 -0.6 -13.4 -0.85 -6.2 0.65 -0.15 L-0.05 -0.1" fill="#657e06" fill-rule="evenodd" stroke="none"/>
      <path d="M-0.05 -0.1 L0.65 -0.15 Q-0.85 -6.2 -0.6 -13.4 -1.2 -6.45 -0.05 -0.1 Z" fill="none" stroke="#000000" stroke-linecap="round" stroke-linejoin="round" stroke-opacity="0.3882353" stroke-width="0.4"/>
      <path d="M-0.15 0.05 L-0.6 0.05 -4.05 -5.55 Q-6.4 -9.2 -7.05 -9.8 -4.55 -9.6 -2.85 -8.5 0.3 -6.3 0.35 0.05 L-0.15 0.05 Q-1.25 -4.6 -4.0 -7.75 -1.25 -4.6 -0.15 0.05" fill="url(#decoration11-gradient1)" fill-rule="evenodd" stroke="none"/>
      <path d="M-0.15 0.05 L0.35 0.05 Q0.3 -6.3 -2.85 -8.5 -4.55 -9.6 -7.05 -9.8 -6.4 -9.2 -4.05 -5.55 L-0.6 0.05 -0.15 0.05" fill="none" stroke="#000000" stroke-linecap="round" stroke-linejoin="round" stroke-opacity="0.3882353" stroke-width="0.4"/>
      <path d="M-0.15 0.05 Q-1.25 -4.6 -4.0 -7.75" fill="none" stroke="#000000" stroke-linecap="round" stroke-linejoin="round" stroke-opacity="0.23137255" stroke-width="0.4"/>
      <path d="M5.6 -6.6 L3.15 -3.65 0.25 0.0 Q-0.05 -4.65 2.25 -5.8 3.25 -6.3 5.6 -6.6 M2.85 -4.85 Q1.2 -3.0 0.25 0.0 1.2 -3.0 2.85 -4.85" fill="url(#decoration11-gradient2)" fill-rule="evenodd" stroke="none"/>
      <path d="M5.6 -6.6 L3.15 -3.65 0.25 0.0 Q-0.05 -4.65 2.25 -5.8 3.25 -6.3 5.6 -6.6" fill="none" stroke="#000000" stroke-linecap="round" stroke-linejoin="round" stroke-opacity="0.3882353" stroke-width="0.4"/>
      <path d="M0.25 0.0 Q1.2 -3.0 2.85 -4.85" fill="none" stroke="#000000" stroke-linecap="round" stroke-linejoin="round" stroke-opacity="0.23137255" stroke-width="0.4"/>
      <path d="M2.25 -22.05 L2.75 -21.5 Q3.7 -20.3 3.7 -19.1 L3.5 -17.7 2.95 -16.4 1.8 -15.5 Q0.75 -14.8 0.1 -14.8 L-2.05 -15.2 -2.45 -15.4 -3.5 -16.3 -3.4 -17.3 Q-3.05 -18.85 -1.9 -20.55 -0.65 -21.65 0.3 -22.05 1.4 -22.55 2.25 -22.05 M-2.55 -16.6 L-2.25 -15.55 -2.05 -15.2 -2.25 -15.55 -2.55 -16.6 M2.95 -17.95 L2.95 -20.15 2.95 -17.95 M-1.6 -17.85 L-1.55 -18.35 -1.6 -17.85" fill="#b43a09" fill-rule="evenodd" stroke="none"/>
      <path d="M-2.05 -15.2 L0.1 -14.8 Q0.75 -14.8 1.8 -15.5 L2.95 -16.4 3.5 -17.7 3.7 -19.1 Q3.7 -20.3 2.75 -21.5 L2.25 -22.05 Q3.05 -21.7 3.65 -20.5 4.7 -18.25 4.25 -16.2 L3.7 -14.75 3.2 -13.85 Q-0.95 -11.9 -3.4 -15.0 L-3.5 -16.3 -2.45 -15.4 -2.05 -15.2 -1.75 -14.65 -2.05 -15.2 M1.8 -14.55 L2.25 -14.9 2.5 -15.45 2.25 -14.9 1.8 -14.55" fill="#8c2800" fill-rule="evenodd" stroke="none"/>
      <path d="M2.25 -22.05 Q1.4 -22.55 0.3 -22.05 L0.0 -22.5 Q1.5 -23.6 3.25 -22.75 4.3 -21.85 4.65 -20.5 5.1 -18.7 4.25 -16.2 4.7 -18.25 3.65 -20.5 3.05 -21.7 2.25 -22.05" fill="#691d00" fill-rule="evenodd" stroke="none"/>
      <path d="M0.3 -22.05 Q-0.65 -21.65 -1.9 -20.55 -3.05 -18.85 -3.4 -17.3 -3.6 -19.3 -2.65 -21.35 L-2.2 -21.3 -1.9 -21.3 -1.2 -21.7 Q-0.75 -22.05 -0.75 -22.6 L-0.75 -22.8 0.0 -22.5 0.3 -22.05" fill="#641c00" fill-rule="evenodd" stroke="none"/>
      <path d="M4.25 -16.2 Q5.1 -18.7 4.65 -20.5 6.2 -19.9 5.45 -17.75 4.75 -15.55 3.7 -14.75 L4.25 -16.2 M-1.8 -21.8 L-1.9 -21.3 -1.8 -21.8 M-0.75 -22.8 L-0.75 -22.6 Q-0.75 -22.05 -1.2 -21.7 L-1.9 -21.3 -2.2 -21.3 -2.65 -21.35 -1.9 -22.75 -0.75 -22.8" fill="#8e2800" fill-rule="evenodd" stroke="none"/>
      <path d="M2.25 -22.05 Q1.4 -22.55 0.3 -22.05 -0.65 -21.65 -1.9 -20.55 -3.05 -18.85 -3.4 -17.3 L-3.5 -16.3 M4.65 -20.5 Q4.3 -21.85 3.25 -22.75 1.5 -23.6 0.0 -22.5 L0.3 -22.05 M2.25 -22.05 Q3.05 -21.7 3.65 -20.5 4.7 -18.25 4.25 -16.2 5.1 -18.7 4.65 -20.5 6.2 -19.9 5.45 -17.75 4.75 -15.55 3.7 -14.75 L3.2 -13.85 Q-0.95 -11.9 -3.4 -15.0 L-3.5 -16.3 M3.7 -14.75 L4.25 -16.2 M-0.75 -22.8 L-1.9 -22.75 -2.65 -21.35 Q-3.6 -19.3 -3.4 -17.3 M-0.75 -22.8 L0.0 -22.5" fill="none" stroke="#000000" stroke-linecap="round" stroke-linejoin="round" stroke-opacity="0.36862746" stroke-width="0.2"/>
      <path d="M-2.05 -15.2 L-2.25 -15.55 -2.55 -16.6 M2.5 -15.45 L2.25 -14.9 1.8 -14.55 M2.95 -20.15 L2.95 -17.95 M-1.9 -21.3 L-1.8 -21.8 M-1.75 -14.65 L-2.05 -15.2 M-1.55 -18.35 L-1.6 -17.85" fill="none" stroke="#000000" stroke-linecap="round" stroke-linejoin="round" stroke-opacity="0.09019608" stroke-width="0.2"/>
      <path d="M5.5 -22.0 L5.95 -20.7 5.7 -19.75 Q5.3 -19.0 4.5 -19.0 3.9 -19.0 2.85 -20.75 1.85 -22.5 0.95 -22.4 0.0 -22.3 -1.1 -21.35 -2.25 -20.4 -2.65 -20.95 -3.05 -21.3 -3.05 -21.85 L-3.05 -22.05 -2.7 -22.0 Q-2.15 -22.0 -0.65 -22.85 0.85 -23.75 1.45 -23.75 2.05 -23.75 3.1 -22.8 4.15 -21.9 4.95 -21.9 L5.5 -22.0" fill="#bbd1d7" fill-rule="evenodd" stroke="none"/>
      <path d="M-3.05 -22.05 Q-2.95 -23.7 -0.85 -25.05 1.35 -26.5 2.6 -25.7 4.15 -25.15 5.5 -22.0 L4.95 -21.9 Q4.15 -21.9 3.1 -22.8 2.05 -23.75 1.45 -23.75 0.85 -23.75 -0.65 -22.85 -2.15 -22.0 -2.7 -22.0 L-3.05 -22.05" fill="#f3f7f8" fill-rule="evenodd" stroke="none"/>
      <path d="M0.2 -26.0 Q0.0 -26.35 0.3 -26.65 0.65 -27.0 0.85 -26.55 1.1 -26.1 0.75 -25.9 0.4 -25.65 0.2 -26.0 M2.5 -25.3 Q2.35 -25.65 2.6 -25.85 2.8 -26.05 3.1 -25.65 3.4 -25.25 3.05 -25.1 2.65 -24.95 2.5 -25.3 M5.25 -22.15 Q4.95 -21.85 4.75 -22.25 4.55 -22.7 4.9 -22.85 L5.45 -22.7 Q5.6 -22.45 5.25 -22.15 M4.5 -23.45 Q4.05 -23.1 3.7 -23.65 3.35 -24.2 3.8 -24.5 4.2 -24.75 4.6 -24.25 4.95 -23.8 4.5 -23.45 M-3.6 -22.75 Q-3.85 -23.15 -3.55 -23.35 -3.25 -23.55 -2.95 -23.2 -2.7 -22.85 -3.05 -22.6 -3.35 -22.35 -3.6 -22.75 M-1.7 -24.3 Q-1.95 -24.85 -1.5 -25.05 -1.05 -25.25 -0.8 -24.9 -0.6 -24.5 -1.0 -24.15 -1.45 -23.8 -1.7 -24.3" fill="#ffffff" fill-opacity="0.81960785" fill-rule="evenodd" stroke="none"/>
    </g>
    <linearGradient gradientTransform="matrix(-0.0016, 0.0041, -0.0048, -0.003, 1.35, -8.0)" gradientUnits="userSpaceOnUse" id="decoration11-gradient0" spreadMethod="pad" x1="-819.2" x2="819.2">
      <stop offset="0.043137254901960784" stop-color="#96b426"/>
      <stop offset="0.9294117647058824" stop-color="#668003"/>
    </linearGradient>
    <linearGradient gradientTransform="matrix(0.002, 0.003, -0.0023, 0.0046, -2.3, -4.3)" gradientUnits="userSpaceOnUse" id="decoration11-gradient1" spreadMethod="pad" x1="-819.2" x2="819.2">
      <stop offset="0.043137254901960784" stop-color="#96b426"/>
      <stop offset="0.9686274509803922" stop-color="#829f14"/>
    </linearGradient>
    <linearGradient gradientTransform="matrix(-0.0011, 0.0019, 0.0027, 0.0029, 3.2, -3.5)" gradientUnits="userSpaceOnUse" id="decoration11-gradient2" spreadMethod="pad" x1="-819.2" x2="819.2">
      <stop offset="0.043137254901960784" stop-color="#96b426"/>
      <stop offset="0.9294117647058824" stop-color="#668003"/>
    </linearGradient>
  </defs>
</svg>
