<?xml version="1.0" encoding="UTF-8" standalone="no"?>
<svg xmlns:ffdec="https://www.free-decompiler.com/flash" xmlns:xlink="http://www.w3.org/1999/xlink" ffdec:objectType="frame" height="83.45px" width="59.25px" xmlns="http://www.w3.org/2000/svg">
  <g transform="matrix(1.0, 0.0, 0.0, 1.0, 0.0, 82.8)">
    <use ffdec:characterId="518" height="83.45" transform="matrix(1.0, 0.0, 0.0, 1.0, 0.0, -82.8)" width="59.25" xlink:href="#decoration110-shape0"/>
  </g>
  <defs>
    <g id="decoration110-shape0" transform="matrix(1.0, 0.0, 0.0, 1.0, 0.0, 82.8)">
      <path d="M50.65 -41.45 Q51.75 -40.35 52.75 -40.35 L53.25 -40.5 53.3 -41.6 Q53.3 -44.0 51.55 -44.1 49.75 -44.15 49.75 -42.55 L50.65 -41.45 M37.8 -19.6 Q38.9 -19.6 38.75 -21.3 37.45 -25.1 36.85 -25.6 36.35 -25.4 35.55 -23.9 34.8 -22.55 34.8 -22.1 L36.05 -20.8 Q37.35 -19.6 37.8 -19.6 M18.4 -10.6 L18.45 -10.3 18.55 -10.1 18.9 -10.05 Q21.4 -10.05 21.85 -10.45 L21.95 -11.4 Q21.95 -13.15 20.45 -12.75 19.0 -12.35 18.4 -10.6 M37.1 -27.75 L37.15 -26.95 37.7 -26.85 Q38.75 -27.0 38.75 -27.65 38.75 -28.45 37.95 -28.5 37.1 -28.55 37.1 -27.75 M40.2 -35.65 L40.4 -34.95 Q40.75 -34.35 41.55 -34.35 44.2 -34.35 50.15 -49.7 50.15 -49.95 45.2 -43.0 40.2 -36.05 40.2 -35.65 M57.55 -57.55 Q54.7 -56.85 54.7 -52.55 L54.3 -50.6 Q54.05 -48.35 54.6 -46.5 L55.4 -44.75 Q53.2 -34.25 54.9 -23.1 L52.1 -37.6 51.0 -39.8 Q50.1 -41.4 48.7 -40.95 47.25 -40.5 47.45 -33.4 45.95 -36.9 44.65 -34.1 L42.55 -29.5 Q41.95 -30.15 41.3 -29.95 40.1 -29.5 39.65 -25.05 L39.85 -23.75 40.2 -22.35 Q39.3 -18.3 39.95 -13.1 37.0 -20.1 34.75 -19.25 32.45 -18.4 32.35 -15.75 L30.25 -18.05 Q29.4 -19.05 29.0 -16.95 28.55 -14.9 29.8 -9.8 L28.75 -2.65 Q28.0 -5.9 26.95 -6.8 L26.95 -6.85 Q26.95 -9.95 25.0 -11.45 23.0 -12.95 23.0 -10.0 L23.2 -8.95 Q19.95 -9.7 16.9 -6.65 16.45 -7.9 15.45 -8.65 14.4 -9.45 13.65 -5.95 12.85 -2.45 13.35 -1.65 11.3 -3.25 11.6 0.55 11.0 -0.55 5.45 -0.2 L0.0 0.65 Q11.35 -7.7 21.7 -17.5 41.85 -36.6 49.5 -54.7 51.9 -60.35 55.55 -71.35 L59.25 -82.8 58.0 -57.6 57.55 -57.55 M56.5 -62.15 Q56.5 -65.4 55.0 -63.35 53.45 -61.3 53.45 -60.0 L53.55 -59.45 Q53.8 -58.95 54.65 -58.95 56.55 -58.95 56.5 -62.15" fill="#e2e1de" fill-opacity="0.6509804" fill-rule="evenodd" stroke="none"/>
    </g>
  </defs>
</svg>
