<?xml version="1.0" encoding="UTF-8" standalone="no"?>
<svg xmlns:xlink="http://www.w3.org/1999/xlink" height="107.05px" width="88.05px" xmlns="http://www.w3.org/2000/svg">
  <g transform="matrix(1.0, 0.0, 0.0, 1.0, 44.1, 53.6)">
    <use height="107.05" transform="matrix(1.0, 0.0, 0.0, 1.0, -44.1, -53.6)" width="88.05" xlink:href="#decoration112-shape0"/>
  </g>
  <defs>
    <g id="decoration112-shape0" transform="matrix(1.0, 0.0, 0.0, 1.0, 44.1, 53.6)">
      <path d="M35.85 -20.65 Q34.45 -11.15 34.8 -1.0 35.6 0.55 34.8 4.4 33.15 27.85 37.5 52.45 18.75 49.65 4.75 51.4 L5.4 49.15 Q4.7 46.2 -1.25 47.05 -5.2 46.85 -4.1 51.0 -20.05 49.95 -35.8 53.45 L11.6 -31.4 33.75 -41.95 Q38.25 -43.45 40.8 -38.25 42.5 -36.4 41.0 -32.85 L43.5 -32.45 Q45.05 -29.15 41.2 -27.5 41.4 -24.45 38.1 -24.4 L35.85 -20.65" fill="#000000" fill-opacity="0.36862746" fill-rule="evenodd" stroke="none"/>
      <path d="M-34.65 -40.05 Q-36.35 -36.6 -40.35 -36.9 -41.15 -39.2 -39.1 -41.1 -36.05 -42.9 -34.65 -40.05" fill="url(#decoration112-gradient0)" fill-rule="evenodd" stroke="none"/>
      <path d="M-34.65 -40.05 Q-36.35 -36.6 -40.35 -36.9 -41.15 -39.2 -39.1 -41.1 -36.05 -42.9 -34.65 -40.05 Z" fill="none" stroke="#000000" stroke-linecap="round" stroke-linejoin="round" stroke-opacity="0.29803923" stroke-width="0.30000000000000004"/>
      <path d="M-36.2 -34.85 Q-30.0 -36.8 -27.85 -40.9 -23.5 -37.05 -22.7 -31.8 L-36.2 -34.85" fill="url(#decoration112-gradient1)" fill-rule="evenodd" stroke="none"/>
      <path d="M-36.2 -34.85 Q-30.0 -36.8 -27.85 -40.9 -23.5 -37.05 -22.7 -31.8 L-36.2 -34.85 Z" fill="none" stroke="#000000" stroke-linecap="round" stroke-linejoin="round" stroke-opacity="0.49803922" stroke-width="0.30000000000000004"/>
      <path d="M35.35 -34.85 L21.85 -31.8 Q22.6 -37.05 26.95 -40.9 29.15 -36.8 35.35 -34.85" fill="url(#decoration112-gradient2)" fill-rule="evenodd" stroke="none"/>
      <path d="M35.35 -34.85 Q29.15 -36.8 26.95 -40.9 22.6 -37.05 21.85 -31.8 L35.35 -34.85 Z" fill="none" stroke="#000000" stroke-linecap="round" stroke-linejoin="round" stroke-opacity="0.49803922" stroke-width="0.30000000000000004"/>
      <path d="M33.8 -40.05 Q35.2 -42.9 38.2 -41.1 40.3 -39.2 39.5 -36.9 35.5 -36.6 33.8 -40.05" fill="url(#decoration112-gradient3)" fill-rule="evenodd" stroke="none"/>
      <path d="M33.8 -40.05 Q35.5 -36.6 39.5 -36.9 40.3 -39.2 38.2 -41.1 35.2 -42.9 33.8 -40.05 Z" fill="none" stroke="#000000" stroke-linecap="round" stroke-linejoin="round" stroke-opacity="0.29803923" stroke-width="0.30000000000000004"/>
      <path d="M28.8 -30.75 L28.8 44.3 -29.4 44.3 -29.4 -30.75 28.8 -30.75" fill="#201615" fill-rule="evenodd" stroke="none"/>
      <path d="M-17.95 2.95 Q-18.3 6.9 -14.45 5.6 L-2.4 -21.45 Q-4.1 -22.7 -6.85 -20.55 L-11.4 -10.6 -12.55 -8.1 Q-15.15 -2.2 -17.95 2.95 -23.6 13.2 -30.15 20.45 -23.6 13.2 -17.95 2.95 M-11.05 -28.85 L4.0 -30.0 -0.65 -18.35 Q-6.2 -5.95 -13.3 5.1 L-16.15 9.4 Q-22.7 18.85 -30.45 27.15 L-30.15 20.45 -29.4 2.5 Q-28.5 8.25 -24.45 7.15 L-7.5 -23.7 Q-9.35 -28.35 -14.9 -18.9 L-11.05 -28.85 -14.9 -18.9 Q-19.45 -7.85 -22.1 -2.35 L-18.05 -20.25 Q-22.9 -20.05 -29.0 -6.9 L-28.1 -29.3 -11.05 -28.85" fill="#2e0c03" fill-rule="evenodd" stroke="none"/>
      <path d="M-11.4 -10.6 L-6.85 -20.55 Q-4.1 -22.7 -2.4 -21.45 L-14.45 5.6 Q-18.3 6.9 -17.95 2.95 -15.15 -2.2 -12.55 -8.1 L-11.4 -10.6 M-14.9 -18.9 Q-9.35 -28.35 -7.5 -23.7 L-24.45 7.15 Q-28.5 8.25 -29.4 2.5 L-29.0 -6.9 Q-22.9 -20.05 -18.05 -20.25 L-22.1 -2.35 Q-19.45 -7.85 -14.9 -18.9" fill="#4d1304" fill-rule="evenodd" stroke="none"/>
      <path d="M-17.95 2.95 Q-23.6 13.2 -30.15 20.45 L-30.45 27.15 Q-22.7 18.85 -16.15 9.4 L-13.3 5.1 Q-6.2 -5.95 -0.65 -18.35 L4.0 -30.0 -11.05 -28.85 -14.9 -18.9 M-29.4 2.5 L-30.15 20.45 M-11.4 -10.6 L-12.55 -8.1 Q-15.15 -2.2 -17.95 2.95 M-11.05 -28.85 L-28.1 -29.3 -29.0 -6.9 -29.4 2.5 M-22.1 -2.35 Q-19.45 -7.85 -14.9 -18.9" fill="none" stroke="#000000" stroke-linecap="round" stroke-linejoin="round" stroke-opacity="0.3019608" stroke-width="0.30000000000000004"/>
      <path d="M13.7 -2.45 Q10.05 -9.35 0.95 -9.3 L0.55 -11.5 Q14.4 -10.6 15.3 -2.5 L13.7 -4.2 13.7 -2.45 M-21.25 -2.75 L-19.95 -0.75 Q-18.1 1.9 -15.85 4.0 -11.4 11.65 -5.35 17.3 -8.3 25.15 -17.95 21.0 L-14.75 24.5 -14.7 24.55 -10.85 29.3 Q-14.9 27.75 -17.95 24.75 -22.05 30.65 -22.55 41.15 L-23.25 41.15 -23.25 29.25 Q-22.0 22.4 -18.3 20.45 -23.9 11.95 -21.25 -2.75 M-18.3 20.45 L-17.95 21.0 -18.3 20.45" fill="#382f32" fill-rule="evenodd" stroke="none"/>
      <path d="M0.95 -9.3 L1.05 -7.05 Q4.85 -6.9 8.05 -4.8 L8.05 -6.05 Q11.3 -4.8 13.7 -2.45 L13.7 -4.2 15.3 -2.5 16.2 0.45 16.55 2.45 Q16.3 6.05 15.6 7.2 16.1 9.15 15.7 11.85 15.25 15.3 13.5 17.8 5.35 18.65 1.5 15.0 L4.25 11.85 -2.35 11.05 Q-4.05 8.4 -4.75 5.15 -5.15 7.85 -7.95 9.25 -9.55 8.55 -11.0 7.65 -8.8 7.65 -7.05 5.4 L-6.1 3.85 -5.75 3.2 Q-8.2 3.6 -9.55 2.3 -8.1 0.75 -6.65 -0.25 -8.9 -0.45 -10.15 -1.7 -7.8 -4.1 -5.0 -3.85 -5.3 -5.2 -5.3 -7.85 L-5.3 -10.95 Q-5.85 -15.2 -7.95 -16.6 L-12.45 -16.7 Q-14.85 -15.75 -17.05 -13.4 -19.2 -11.15 -20.05 -8.9 -20.75 -4.95 -19.95 -0.75 L-21.25 -2.75 Q-21.9 -9.3 -18.5 -14.0 -16.1 -17.3 -12.3 -18.8 -6.95 -20.95 -2.5 -17.0 -0.3 -15.05 0.55 -11.5 L0.95 -9.3 M-4.35 -1.7 L-5.0 -3.85 -4.35 -1.7 M15.15 4.85 L15.7 3.8 Q16.25 2.75 16.55 2.45 16.25 2.75 15.7 3.8 L15.15 4.85 14.5 6.1 14.5 7.1 15.1 7.4 Q15.55 6.45 15.15 4.85 M14.2 6.15 L14.5 6.1 14.2 6.15 M13.9 10.55 Q14.2 10.95 15.05 11.0 15.5 8.55 13.75 9.6 13.7 10.3 13.9 10.55 M12.35 6.15 Q10.45 6.35 8.15 4.5 5.95 3.15 3.15 2.45 5.95 3.15 8.15 4.5 10.45 6.35 12.35 6.15 M4.95 5.2 Q5.15 6.45 7.45 7.15 L10.75 7.35 Q10.5 5.6 8.25 4.95 6.15 4.3 4.95 5.2 M10.0 14.45 Q12.2 13.7 14.7 13.95 12.2 13.7 10.0 14.45 M-6.65 -0.25 L-5.9 -0.65 -6.65 -0.25" fill="#805437" fill-rule="evenodd" stroke="none"/>
      <path d="M13.7 -2.45 Q11.3 -4.8 8.05 -6.05 L8.05 -4.8 Q4.85 -6.9 1.05 -7.05 L0.95 -9.3 Q10.05 -9.35 13.7 -2.45 M15.6 7.2 Q18.5 10.15 23.0 11.8 18.9 19.8 10.2 24.25 L6.4 20.0 5.75 19.15 Q9.35 19.6 13.5 17.8 15.25 15.3 15.7 11.85 16.1 9.15 15.6 7.2 M15.05 32.7 Q17.3 37.1 18.0 41.15 L11.4 41.15 Q12.85 38.4 12.75 34.8 L13.55 34.35 14.35 33.45 15.05 32.7 M1.35 41.15 L-22.55 41.15 Q-22.05 30.65 -17.95 24.75 -14.9 27.75 -10.85 29.3 L-14.7 24.55 -14.75 24.5 -17.95 21.0 Q-8.3 25.15 -5.35 17.3 -11.4 11.65 -15.85 4.0 -13.6 6.1 -11.0 7.65 -9.55 8.55 -7.95 9.25 -5.35 10.4 -2.35 11.05 L4.25 11.85 1.5 15.0 0.15 16.8 Q-3.25 21.95 -4.35 28.4 -1.55 29.25 -1.45 32.8 L-1.45 32.9 -1.7 33.95 -1.0 33.55 Q0.8 37.35 1.35 41.15 M-10.65 27.35 Q-12.9 26.15 -14.7 24.55 -12.9 26.15 -10.65 27.35" fill="#251f21" fill-rule="evenodd" stroke="none"/>
      <path d="M15.3 -2.5 Q14.4 -10.6 0.55 -11.5 1.65 -14.65 3.9 -16.65 7.05 -19.4 10.9 -18.15 14.65 -16.9 15.9 -10.05 16.85 -4.85 16.2 0.45 L15.3 -2.5 M3.3 18.55 L2.1 18.05 0.15 16.8 1.5 15.0 Q5.35 18.65 13.5 17.8 9.35 19.6 5.75 19.15 L4.8 18.95 3.3 18.55 M-2.35 11.05 Q-5.35 10.4 -7.95 9.25 -5.15 7.85 -4.75 5.15 -4.05 8.4 -2.35 11.05" fill="#42271c" fill-rule="evenodd" stroke="none"/>
      <path d="M10.2 24.25 Q13.3 28.0 15.75 31.9 L15.05 32.7 14.35 33.45 13.55 34.35 12.75 34.8 Q11.55 35.15 11.4 34.4 11.25 33.8 11.6 33.3 9.5 32.25 7.65 33.3 4.55 34.85 5.35 33.05 4.2 25.55 2.1 18.05 4.2 25.55 5.35 33.05 2.6 31.35 -1.0 33.55 L-1.7 33.95 -1.45 32.9 -1.45 32.8 Q0.1 24.8 0.15 16.8 L2.1 18.05 3.3 18.55 Q6.85 26.05 7.65 33.3 6.85 26.05 3.3 18.55 L4.8 18.95 5.75 19.15 6.4 20.0 10.2 24.25 M15.15 4.85 Q15.55 6.45 15.1 7.4 L14.5 7.1 14.5 6.1 15.15 4.85 M4.95 5.2 Q6.15 4.3 8.25 4.95 10.5 5.6 10.75 7.35 L7.45 7.15 Q5.15 6.45 4.95 5.2 M6.4 20.0 Q11.25 26.45 14.35 33.45 11.25 26.45 6.4 20.0 M4.8 18.95 Q8.55 26.0 11.6 33.3 8.55 26.0 4.8 18.95" fill="#f5e0ea" fill-rule="evenodd" stroke="none"/>
      <path d="M13.9 10.55 Q13.7 10.3 13.75 9.6 15.5 8.55 15.05 11.0 14.2 10.95 13.9 10.55" fill="#98673e" fill-rule="evenodd" stroke="none"/>
      <path d="M11.4 41.15 L1.35 41.15 Q0.8 37.35 -1.0 33.55 2.6 31.35 5.35 33.05 4.55 34.85 7.65 33.3 9.5 32.25 11.6 33.3 11.25 33.8 11.4 34.4 11.55 35.15 12.75 34.8 12.85 38.4 11.4 41.15 M-1.45 32.8 Q-1.55 29.25 -4.35 28.4 -3.25 21.95 0.15 16.8 0.1 24.8 -1.45 32.8" fill="#93858d" fill-rule="evenodd" stroke="none"/>
      <path d="M-19.95 -0.75 Q-20.75 -4.95 -20.05 -8.9 -19.2 -11.15 -17.05 -13.4 -14.85 -15.75 -12.45 -16.7 L-7.95 -16.6 Q-5.85 -15.2 -5.3 -10.95 L-5.3 -7.85 Q-5.3 -5.2 -5.0 -3.85 -7.8 -4.1 -10.15 -1.7 -8.9 -0.45 -6.65 -0.25 -8.1 0.75 -9.55 2.3 -8.2 3.6 -5.75 3.2 L-6.1 3.85 -7.05 5.4 Q-8.8 7.65 -11.0 7.65 -13.6 6.1 -15.85 4.0 -18.1 1.9 -19.95 -0.75 M-14.15 -7.85 Q-10.15 -13.4 -5.3 -10.95 -10.15 -13.4 -14.15 -7.85" fill="url(#decoration112-gradient4)" fill-rule="evenodd" stroke="none"/>
      <path d="M0.95 -9.3 L0.55 -11.5 Q-0.3 -15.05 -2.5 -17.0 -6.95 -20.95 -12.3 -18.8 -16.1 -17.3 -18.5 -14.0 -21.9 -9.3 -21.25 -2.75 L-19.95 -0.75 M16.2 0.45 L16.55 2.45 Q16.3 6.05 15.6 7.2 18.5 10.15 23.0 11.8 18.9 19.8 10.2 24.25 M11.4 41.15 L1.35 41.15 -22.55 41.15 -23.25 41.15 -23.25 29.25 Q-22.0 22.4 -18.3 20.45 -23.9 11.95 -21.25 -2.75 M16.55 2.45 Q16.25 2.75 15.7 3.8 L15.15 4.85 Q15.55 6.45 15.1 7.4 L14.5 7.1 14.5 6.1 14.2 6.15 M15.15 4.85 L14.5 6.1 M13.5 17.8 Q15.25 15.3 15.7 11.85 16.1 9.15 15.6 7.2 M3.15 2.45 Q5.95 3.15 8.15 4.5 10.45 6.35 12.35 6.15 M4.95 5.2 Q6.15 4.3 8.25 4.95 10.5 5.6 10.75 7.35 L7.45 7.15 Q5.15 6.45 4.95 5.2 M3.3 18.55 L2.1 18.05 M3.3 18.55 L4.8 18.95 5.75 19.15 Q9.35 19.6 13.5 17.8 M1.5 15.0 L0.15 16.8 2.1 18.05 M5.75 19.15 L6.4 20.0 10.2 24.25 M1.5 15.0 L4.25 11.85 -2.35 11.05 Q-5.35 10.4 -7.95 9.25 -9.55 8.55 -11.0 7.65 -13.6 6.1 -15.85 4.0 -18.1 1.9 -19.95 -0.75 M-17.95 21.0 L-14.75 24.5 M14.7 13.95 Q12.2 13.7 10.0 14.45 M15.3 -2.5 L16.2 0.45 M-17.95 21.0 L-18.3 20.45 M-1.45 32.8 L-1.45 32.9 -1.7 33.95 -1.0 33.55" fill="none" stroke="#000000" stroke-linecap="round" stroke-linejoin="round" stroke-opacity="0.49803922" stroke-width="0.30000000000000004"/>
      <path d="M0.95 -9.3 L1.05 -7.05 Q4.85 -6.9 8.05 -4.8 L8.05 -6.05 Q11.3 -4.8 13.7 -2.45 L13.7 -4.2 15.3 -2.5 Q14.4 -10.6 0.55 -11.5 1.65 -14.65 3.9 -16.65 7.05 -19.4 10.9 -18.15 14.65 -16.9 15.9 -10.05 16.85 -4.85 16.2 0.45 M-20.05 -8.9 Q-19.2 -11.15 -17.05 -13.4 -14.85 -15.75 -12.45 -16.7 L-7.95 -16.6 Q-5.85 -15.2 -5.3 -10.95 L-5.3 -7.85 Q-5.3 -5.2 -5.0 -3.85 L-4.35 -1.7 M10.2 24.25 Q13.3 28.0 15.75 31.9 L15.05 32.7 Q17.3 37.1 18.0 41.15 L11.4 41.15 M13.9 10.55 Q13.7 10.3 13.75 9.6 15.5 8.55 15.05 11.0 14.2 10.95 13.9 10.55 M2.1 18.05 Q4.2 25.55 5.35 33.05 4.55 34.85 7.65 33.3 6.85 26.05 3.3 18.55 M-14.7 24.55 Q-12.9 26.15 -10.65 27.35 M15.05 32.7 L14.35 33.45 13.55 34.35 12.75 34.8 Q12.85 38.4 11.4 41.15 M11.6 33.3 Q11.25 33.8 11.4 34.4 11.55 35.15 12.75 34.8 M7.65 33.3 Q9.5 32.25 11.6 33.3 8.55 26.0 4.8 18.95 M14.35 33.45 Q11.25 26.45 6.4 20.0 M-5.9 -0.65 L-6.65 -0.25 Q-8.1 0.75 -9.55 2.3 -8.2 3.6 -5.75 3.2 L-6.1 3.85 -7.05 5.4 Q-8.8 7.65 -11.0 7.65 M-5.3 -10.95 Q-10.15 -13.4 -14.15 -7.85 M-6.65 -0.25 Q-8.9 -0.45 -10.15 -1.7 -7.8 -4.1 -5.0 -3.85 M-1.0 33.55 Q2.6 31.35 5.35 33.05 M0.15 16.8 Q-3.25 21.95 -4.35 28.4 -1.55 29.25 -1.45 32.8 0.1 24.8 0.15 16.8 M-1.0 33.55 Q0.8 37.35 1.35 41.15" fill="none" stroke="#000000" stroke-linecap="round" stroke-linejoin="round" stroke-opacity="0.29803923" stroke-width="0.30000000000000004"/>
      <path d="M4.2 -40.85 Q10.7 -43.75 16.1 -37.05 L11.65 -37.55 Q10.0 -37.35 9.8 -36.2 9.6 -35.15 11.25 -34.55 L12.85 -34.15 35.3 -34.2 Q31.6 -29.05 26.1 -27.15 L-26.95 -27.15 Q-32.9 -29.35 -36.15 -34.2 L-13.75 -34.15 -12.1 -34.55 Q-10.5 -35.15 -10.7 -36.2 -10.9 -37.35 -12.5 -37.55 L-17.0 -37.05 Q-11.6 -43.75 -5.05 -40.85 L4.2 -40.85" fill="url(#decoration112-gradient5)" fill-rule="evenodd" stroke="none"/>
      <path d="M35.3 -34.2 Q31.1 9.9 35.2 51.1 L33.75 49.5 26.1 40.95 26.1 -27.15 Q31.6 -29.05 35.3 -34.2" fill="url(#decoration112-gradient6)" fill-rule="evenodd" stroke="none"/>
      <path d="M5.4 47.75 Q5.55 46.8 4.6 46.1 L-0.45 45.7 -5.45 46.1 Q-6.45 46.8 -6.25 47.75 -20.45 47.1 -34.65 49.5 L-26.95 40.95 -34.65 49.5 -36.05 51.1 Q-31.95 9.9 -36.15 -34.2 -32.9 -29.35 -26.95 -27.15 L-26.95 40.95 -0.45 40.5 26.1 40.95 33.75 49.5 Q19.6 47.1 5.4 47.75" fill="url(#decoration112-gradient7)" fill-rule="evenodd" stroke="none"/>
      <path d="M35.2 51.1 Q20.0 48.8 4.6 49.15 L5.4 47.75 Q19.6 47.1 33.75 49.5 L35.2 51.1 M-6.25 47.75 L-5.45 49.15 Q-20.9 48.8 -36.05 51.1 L-34.65 49.5 Q-20.45 47.1 -6.25 47.75" fill="#3f271f" fill-rule="evenodd" stroke="none"/>
      <path d="M4.2 -40.85 Q10.7 -43.75 16.1 -37.05 L11.65 -37.55 Q10.0 -37.35 9.8 -36.2 9.6 -35.15 11.25 -34.55 L12.85 -34.15 35.3 -34.2 Q31.1 9.9 35.2 51.1 20.0 48.8 4.6 49.15 L5.4 47.75 Q5.55 46.8 4.6 46.1 L-0.45 45.7 -5.45 46.1 Q-6.45 46.8 -6.25 47.75 L-5.45 49.15 Q-20.9 48.8 -36.05 51.1 -31.95 9.9 -36.15 -34.2 L-13.75 -34.15 -12.1 -34.55 Q-10.5 -35.15 -10.7 -36.2 -10.9 -37.35 -12.5 -37.55 L-17.0 -37.05 Q-11.6 -43.75 -5.05 -40.85 M26.1 -27.15 Q31.6 -29.05 35.3 -34.2 M35.2 51.1 L33.75 49.5 26.1 40.95 -0.45 40.5 -26.95 40.95 -34.65 49.5 M26.1 -27.15 L26.1 40.95 M-26.95 -27.15 Q-32.9 -29.35 -36.15 -34.2 M-36.05 51.1 L-34.65 49.5 M-26.95 40.95 L-26.95 -27.15 26.1 -27.15" fill="none" stroke="#000000" stroke-linecap="round" stroke-linejoin="round" stroke-opacity="0.29803923" stroke-width="0.30000000000000004"/>
      <path d="M-10.0 -32.0 Q-10.05 -31.6 -10.25 -31.35 -10.5 -30.8 -10.9 -31.2 -10.75 -31.35 -10.75 -31.55 -10.7 -32.0 -11.45 -32.0 -12.25 -32.0 -12.55 -31.7 L-12.7 -30.9 -12.55 -30.4 -12.45 -30.2 -12.05 -29.85 Q-11.35 -29.45 -10.15 -29.4 -10.9 -29.9 -9.95 -30.15 L-8.05 -29.7 -6.6 -30.15 Q-7.95 -29.4 -9.85 -29.2 L-11.5 -29.25 Q-12.7 -29.5 -13.15 -30.2 L-13.45 -31.0 -12.85 -31.85 Q-11.65 -32.45 -10.65 -32.25 L-10.0 -32.0 M-16.0 -31.45 L-16.15 -31.35 -16.9 -30.85 Q-17.35 -30.25 -15.7 -29.95 -15.95 -30.6 -15.5 -30.75 L-15.0 -30.8 -14.65 -30.5 Q-14.4 -30.2 -14.65 -29.8 L-17.0 -29.6 -17.05 -29.6 Q-17.9 -30.25 -17.6 -30.9 L-17.25 -31.35 Q-18.1 -31.6 -17.6 -32.3 L-16.75 -31.9 -15.8 -31.95 -14.55 -32.0 -16.0 -31.45 M-19.3 -29.2 Q-19.3 -29.8 -18.15 -30.35 -18.55 -29.75 -18.35 -29.45 -18.05 -28.7 -18.65 -28.7 -19.15 -28.8 -19.3 -29.2 M-22.5 -30.0 L-21.65 -30.7 Q-22.65 -31.85 -21.7 -31.55 -21.2 -31.15 -20.45 -31.15 L-18.55 -30.85 Q-20.3 -31.1 -21.25 -30.3 -22.2 -29.5 -22.5 -30.0" fill="#4d2f25" fill-rule="evenodd" stroke="none"/>
      <path d="M-12.45 -30.2 L-12.55 -30.4 -12.7 -30.9 -12.55 -31.7 Q-12.25 -32.0 -11.45 -32.0 -10.7 -32.0 -10.75 -31.55 -10.75 -31.35 -10.9 -31.2 -10.5 -30.8 -10.25 -31.35 -10.05 -31.6 -10.0 -32.0 L-9.6 -31.5 Q-9.3 -30.75 -10.15 -30.45 -11.0 -30.2 -11.4 -30.85 -11.6 -31.15 -11.1 -31.3 -11.7 -31.7 -12.45 -31.1 L-12.45 -30.2 M-13.45 -31.0 L-13.15 -30.2 Q-12.7 -29.5 -11.5 -29.25 L-9.85 -29.2 Q-7.95 -29.4 -6.6 -30.15 L-4.75 -30.95 Q-8.3 -28.7 -10.9 -28.95 -12.85 -29.15 -13.4 -29.95 L-13.45 -30.3 -13.55 -30.6 Q-14.2 -31.55 -15.2 -31.55 L-16.0 -31.45 -14.55 -32.0 Q-13.9 -31.75 -13.45 -31.0 M-15.0 -30.8 L-14.55 -30.7 Q-14.0 -30.55 -14.0 -30.05 -13.95 -29.3 -15.45 -29.35 L-17.0 -29.6 -14.65 -29.8 Q-14.4 -30.2 -14.65 -30.5 L-15.0 -30.8 M-18.35 -29.45 L-18.1 -29.25 Q-17.65 -28.85 -18.1 -28.45 -19.0 -28.2 -19.25 -28.95 L-19.3 -29.2 Q-19.15 -28.8 -18.65 -28.7 -18.05 -28.7 -18.35 -29.45 M-18.55 -30.85 Q-20.35 -30.95 -21.35 -29.75 -22.4 -28.65 -22.85 -29.15 L-22.5 -30.0 Q-22.2 -29.5 -21.25 -30.3 -20.3 -31.1 -18.55 -30.85" fill="#3d261f" fill-rule="evenodd" stroke="none"/>
      <path d="M-10.0 -32.0 L-10.65 -32.25 Q-11.65 -32.45 -12.85 -31.85 L-13.45 -31.0 M-6.6 -30.15 L-8.05 -29.7 -9.95 -30.15 Q-10.9 -29.9 -10.15 -29.4 -11.35 -29.45 -12.05 -29.85 L-12.45 -30.2 -12.45 -31.1 Q-11.7 -31.7 -11.1 -31.3 -11.6 -31.15 -11.4 -30.85 -11.0 -30.2 -10.15 -30.45 -9.3 -30.75 -9.6 -31.5 L-10.0 -32.0 M-14.55 -32.0 Q-13.9 -31.75 -13.45 -31.0 M-6.6 -30.15 L-4.75 -30.95 Q-8.3 -28.7 -10.9 -28.95 -12.85 -29.15 -13.4 -29.95 L-13.45 -30.3 -13.55 -30.6 Q-14.2 -31.55 -15.2 -31.55 L-16.0 -31.45 -16.15 -31.35 -16.9 -30.85 Q-17.35 -30.25 -15.7 -29.95 -15.95 -30.6 -15.5 -30.75 L-15.0 -30.8 -14.55 -30.7 Q-14.0 -30.55 -14.0 -30.05 -13.95 -29.3 -15.45 -29.35 L-17.0 -29.6 -17.05 -29.6 Q-17.9 -30.25 -17.6 -30.9 L-17.25 -31.35 Q-18.1 -31.6 -17.6 -32.3 L-16.75 -31.9 -15.8 -31.95 -14.55 -32.0 M-18.35 -29.45 L-18.1 -29.25 Q-17.65 -28.85 -18.1 -28.45 -19.0 -28.2 -19.25 -28.95 L-19.3 -29.2 Q-19.3 -29.8 -18.15 -30.35 -18.55 -29.75 -18.35 -29.45 M-22.5 -30.0 L-21.65 -30.7 Q-22.65 -31.85 -21.7 -31.55 -21.2 -31.15 -20.45 -31.15 L-18.55 -30.85 Q-20.35 -30.95 -21.35 -29.75 -22.4 -28.65 -22.85 -29.15 L-22.5 -30.0" fill="none" stroke="#000000" stroke-linecap="round" stroke-linejoin="round" stroke-opacity="0.3019608" stroke-width="0.30000000000000004"/>
      <path d="M17.7 -30.85 Q19.4 -31.1 20.4 -30.3 21.35 -29.5 21.65 -30.0 L22.0 -29.15 Q21.55 -28.65 20.5 -29.75 19.45 -30.95 17.7 -30.85 M9.15 -32.0 Q9.2 -31.6 9.35 -31.35 9.6 -30.8 10.0 -31.2 L9.85 -31.55 Q9.85 -32.0 10.6 -32.0 L11.7 -31.7 11.8 -30.9 11.7 -30.4 11.6 -30.2 11.6 -31.1 Q10.85 -31.7 10.2 -31.3 10.7 -31.15 10.5 -30.85 10.1 -30.2 9.25 -30.45 8.45 -30.75 8.7 -31.5 L9.15 -32.0 M5.7 -30.15 Q7.1 -29.4 9.0 -29.2 L10.65 -29.25 Q11.8 -29.5 12.25 -30.2 L12.55 -31.0 13.7 -32.0 15.15 -31.45 14.3 -31.55 Q13.3 -31.55 12.65 -30.6 L12.6 -30.3 12.55 -29.95 Q12.0 -29.15 10.05 -28.95 7.4 -28.7 3.9 -30.95 L5.7 -30.15 M16.1 -29.6 L14.55 -29.35 Q13.05 -29.3 13.15 -30.05 13.15 -30.55 13.65 -30.7 L14.15 -30.8 13.75 -30.5 Q13.55 -30.2 13.8 -29.8 L16.1 -29.6 M18.45 -29.2 L18.4 -28.95 Q18.15 -28.2 17.2 -28.45 16.8 -28.85 17.2 -29.25 L17.45 -29.45 Q17.15 -28.7 17.8 -28.7 L18.45 -29.2" fill="#3d261f" fill-rule="evenodd" stroke="none"/>
      <path d="M21.65 -30.0 Q21.35 -29.5 20.4 -30.3 19.4 -31.1 17.7 -30.85 L19.6 -31.15 Q20.3 -31.15 20.8 -31.55 21.75 -31.85 20.8 -30.7 L21.65 -30.0 M11.6 -30.2 L11.7 -30.4 11.8 -30.9 11.7 -31.7 10.6 -32.0 Q9.85 -32.0 9.85 -31.55 L10.0 -31.2 Q9.6 -30.8 9.35 -31.35 9.2 -31.6 9.15 -32.0 L9.75 -32.25 Q10.75 -32.45 12.0 -31.85 L12.55 -31.0 12.25 -30.2 Q11.8 -29.5 10.65 -29.25 L9.0 -29.2 Q7.1 -29.4 5.7 -30.15 L7.15 -29.7 Q8.5 -29.8 9.1 -30.15 10.05 -29.9 9.25 -29.4 10.5 -29.45 11.2 -29.85 L11.6 -30.2 M13.7 -32.0 L14.9 -31.95 15.85 -31.9 Q16.35 -32.05 16.75 -32.3 17.25 -31.6 16.4 -31.35 L16.75 -30.9 Q17.0 -30.25 16.15 -29.6 L16.1 -29.6 13.8 -29.8 Q13.55 -30.2 13.75 -30.5 L14.15 -30.8 14.65 -30.75 Q15.1 -30.6 14.85 -29.95 16.5 -30.25 16.05 -30.85 L15.3 -31.35 15.15 -31.45 13.7 -32.0 M18.45 -29.2 L17.8 -28.7 Q17.15 -28.7 17.45 -29.45 17.7 -29.75 17.3 -30.35 18.45 -29.8 18.45 -29.2" fill="#4d2f25" fill-rule="evenodd" stroke="none"/>
      <path d="M17.7 -30.85 Q19.45 -30.95 20.5 -29.75 21.55 -28.65 22.0 -29.15 L21.65 -30.0 20.8 -30.7 Q21.75 -31.85 20.8 -31.55 20.3 -31.15 19.6 -31.15 L17.7 -30.85 M9.15 -32.0 L8.7 -31.5 Q8.45 -30.75 9.25 -30.45 10.1 -30.2 10.5 -30.85 10.7 -31.15 10.2 -31.3 10.85 -31.7 11.6 -31.1 L11.6 -30.2 11.2 -29.85 Q10.5 -29.45 9.25 -29.4 10.05 -29.9 9.1 -30.15 8.5 -29.8 7.15 -29.7 L5.7 -30.15 M12.55 -31.0 L12.0 -31.85 Q10.75 -32.45 9.75 -32.25 L9.15 -32.0 M15.15 -31.45 L14.3 -31.55 Q13.3 -31.55 12.65 -30.6 L12.6 -30.3 12.55 -29.95 Q12.0 -29.15 10.05 -28.95 7.4 -28.7 3.9 -30.95 L5.7 -30.15 M13.7 -32.0 L14.9 -31.95 15.85 -31.9 Q16.35 -32.05 16.75 -32.3 17.25 -31.6 16.4 -31.35 L16.75 -30.9 Q17.0 -30.25 16.15 -29.6 L16.1 -29.6 14.55 -29.35 Q13.05 -29.3 13.15 -30.05 13.15 -30.55 13.65 -30.7 L14.15 -30.8 14.65 -30.75 Q15.1 -30.6 14.85 -29.95 16.5 -30.25 16.05 -30.85 L15.3 -31.35 15.15 -31.45 M13.7 -32.0 L12.55 -31.0 M17.45 -29.45 L17.2 -29.25 Q16.8 -28.85 17.2 -28.45 18.15 -28.2 18.4 -28.95 L18.45 -29.2 M17.45 -29.45 Q17.7 -29.75 17.3 -30.35 18.45 -29.8 18.45 -29.2" fill="none" stroke="#000000" stroke-linecap="round" stroke-linejoin="round" stroke-opacity="0.3019608" stroke-width="0.30000000000000004"/>
      <path d="M26.15 -27.75 Q24.8 -32.0 20.85 -33.05 L28.25 -33.15 35.25 -30.95 26.65 -11.9 28.5 -21.75 Q32.7 -29.15 29.85 -29.95 L26.15 -27.75 M-27.1 -28.65 L-30.75 -30.85 Q-33.6 -30.05 -29.4 -22.65 L-27.55 -12.8 -36.15 -31.85 -29.15 -34.05 -21.8 -33.95 Q-25.75 -32.9 -27.1 -28.65 M10.5 -39.35 Q7.85 -39.65 7.15 -37.45 7.2 -34.85 5.25 -33.65 4.2 -33.35 3.45 -32.35 3.15 -29.4 1.2 -29.0 -0.8 -26.7 -2.35 -29.4 -3.7 -29.7 -4.25 -31.4 -4.6 -32.8 -5.6 -33.35 -8.05 -33.05 -8.15 -38.5 -9.7 -39.65 -11.55 -38.75 L-9.55 -41.95 -1.4 -40.8 9.05 -41.9 10.5 -39.35" fill="#000000" fill-opacity="0.36862746" fill-rule="evenodd" stroke="none"/>
      <path d="M31.65 28.45 L32.1 39.85 M29.55 33.05 Q29.1 21.0 29.4 5.9 M-30.85 0.9 L-31.05 16.25 M-31.9 24.9 L-32.5 34.85 M-28.8 19.75 L-29.0 25.35" fill="none" stroke="#000000" stroke-linecap="round" stroke-linejoin="round" stroke-opacity="0.18039216" stroke-width="0.05"/>
      <path d="M-38.8 -28.95 Q-42.75 -29.25 -43.95 -31.35 -43.85 -32.4 -39.9 -31.85 -41.4 -32.65 -41.6 -34.05 L-40.15 -37.35 Q-39.6 -38.95 -37.45 -39.4 L-35.35 -39.6 Q-35.1 -40.55 -34.2 -41.0 -33.35 -41.5 -32.0 -41.45 -31.2 -41.45 -30.2 -40.4 -29.2 -39.3 -29.0 -38.1 -28.75 -36.65 -29.85 -35.75 -31.15 -34.65 -34.3 -34.65 -27.3 -33.3 -25.25 -41.25 -17.75 -39.25 -17.0 -31.85 -18.2 -33.45 -19.95 -34.0 L-23.15 -34.1 Q-24.75 -33.7 -25.9 -32.55 -27.05 -31.35 -27.3 -29.8 -30.7 -32.15 -32.45 -31.45 -34.2 -30.75 -33.05 -28.05 -26.65 -14.15 -26.25 -6.2 -25.85 1.8 -31.55 3.6 L-33.55 3.55 Q-34.45 3.15 -34.9 2.25 -35.35 1.4 -35.0 0.45 -34.6 -0.55 -33.3 -1.3 -34.0 -0.05 -33.55 0.45 L-31.65 0.5 Q-25.3 -5.4 -36.05 -22.6 -37.15 -24.45 -37.65 -26.4 L-40.55 -26.45 Q-41.05 -26.95 -38.8 -28.95 L-37.15 -30.35 -38.8 -28.95 M-39.9 -36.6 Q-39.7 -36.4 -40.15 -35.6 -40.6 -34.85 -40.8 -35.3 L-40.45 -36.1 -39.9 -36.6 -40.45 -36.1 -40.8 -35.3 Q-40.6 -34.85 -40.15 -35.6 -39.7 -36.4 -39.9 -36.6 M-37.2 -36.15 Q-37.9 -36.65 -38.5 -36.15 -39.4 -35.4 -38.95 -34.75 -38.45 -34.15 -37.55 -34.85 -36.55 -35.65 -37.2 -36.15 -36.55 -35.65 -37.55 -34.85 -38.45 -34.15 -38.95 -34.75 -39.4 -35.4 -38.5 -36.15 -37.9 -36.65 -37.2 -36.15" fill="url(#decoration112-gradient8)" fill-rule="evenodd" stroke="none"/>
      <path d="M-38.8 -28.95 Q-41.05 -26.95 -40.55 -26.45 L-37.65 -26.4 Q-37.15 -24.45 -36.05 -22.6 -25.3 -5.4 -31.65 0.5 L-33.55 0.45 Q-34.0 -0.05 -33.3 -1.3 -34.6 -0.55 -35.0 0.45 -35.35 1.4 -34.9 2.25 -34.45 3.15 -33.55 3.55 L-31.55 3.6 Q-25.85 1.8 -26.25 -6.2 -26.65 -14.15 -33.05 -28.05 -34.2 -30.75 -32.45 -31.45 -30.7 -32.15 -27.3 -29.8 -27.05 -31.35 -25.9 -32.55 -24.75 -33.7 -23.15 -34.1 L-19.95 -34.0 Q-18.2 -33.45 -17.0 -31.85 -17.75 -39.25 -25.25 -41.25 -27.3 -33.3 -34.3 -34.65 -31.15 -34.65 -29.85 -35.75 -28.75 -36.65 -29.0 -38.1 -29.2 -39.3 -30.2 -40.4 -31.2 -41.45 -32.0 -41.45 -33.35 -41.5 -34.2 -41.0 -35.1 -40.55 -35.35 -39.6 L-37.45 -39.4 Q-39.6 -38.95 -40.15 -37.35 L-41.6 -34.05 Q-41.4 -32.65 -39.9 -31.85 -43.85 -32.4 -43.95 -31.35 -42.75 -29.25 -38.8 -28.95 L-37.15 -30.35 M-37.2 -36.15 Q-36.55 -35.65 -37.55 -34.85 -38.45 -34.15 -38.95 -34.75 -39.4 -35.4 -38.5 -36.15 -37.9 -36.65 -37.2 -36.15 M-39.9 -36.6 L-40.45 -36.1 -40.8 -35.3 Q-40.6 -34.85 -40.15 -35.6 -39.7 -36.4 -39.9 -36.6" fill="none" stroke="#000000" stroke-linecap="round" stroke-linejoin="round" stroke-opacity="0.29803923" stroke-width="0.30000000000000004"/>
      <path d="M-15.5 -43.5 Q-15.9 -45.0 -15.85 -46.65 -15.75 -49.55 -14.3 -51.35 -12.55 -53.45 -9.5 -53.45 -7.45 -53.45 -6.3 -51.5 -5.2 -49.6 -5.1 -46.0 -2.7 -47.35 -0.45 -47.3 1.8 -47.35 4.2 -46.0 4.45 -53.2 8.65 -53.45 11.75 -53.6 13.55 -51.4 15.1 -49.5 15.25 -46.4 15.35 -44.1 14.6 -42.25 14.85 -44.9 14.0 -46.9 13.3 -49.45 11.75 -50.85 11.1 -51.4 10.3 -51.5 9.4 -51.6 8.7 -51.1 6.8 -49.75 6.75 -45.3 7.45 -42.9 6.75 -41.7 6.95 -41.3 7.65 -41.1 L5.4 -40.95 Q5.85 -36.55 4.05 -35.0 2.85 -33.85 1.5 -33.8 2.15 -31.05 0.4 -30.95 -0.15 -29.9 -1.15 -30.5 L-1.55 -30.9 Q-3.05 -31.15 -2.5 -33.7 -3.85 -33.75 -5.0 -34.9 -6.8 -36.45 -6.35 -40.85 L-8.65 -41.05 Q-7.8 -40.9 -7.65 -42.3 -8.35 -42.85 -7.65 -45.3 -7.7 -49.75 -9.6 -51.1 -10.3 -51.6 -11.2 -51.5 -12.0 -51.4 -12.65 -50.85 -14.2 -49.45 -14.9 -46.9 L-15.5 -43.5" fill="url(#decoration112-gradient9)" fill-rule="evenodd" stroke="none"/>
      <path d="M7.65 -41.1 Q6.95 -41.3 6.75 -41.7 7.45 -42.9 6.75 -45.3 6.8 -49.75 8.7 -51.1 9.4 -51.6 10.3 -51.5 11.1 -51.4 11.75 -50.85 13.3 -49.45 14.0 -46.9 14.85 -44.9 14.6 -42.25 L14.15 -41.25 Q12.85 -38.9 10.7 -38.75 9.95 -39.35 9.65 -40.25 L8.85 -41.8 Q8.35 -41.35 7.65 -41.1" fill="url(#decoration112-gradient10)" fill-rule="evenodd" stroke="none"/>
      <path d="M-8.65 -41.05 L-6.35 -40.85 Q-6.8 -36.45 -5.0 -34.9 -3.85 -33.75 -2.5 -33.7 -3.05 -31.15 -1.55 -30.9 L-1.15 -30.5 Q-0.15 -29.9 0.4 -30.95 2.15 -31.05 1.5 -33.8 2.85 -33.85 4.05 -35.0 5.85 -36.55 5.4 -40.95 L7.65 -41.1 Q8.35 -41.35 8.85 -41.8 L9.65 -40.25 7.3 -39.9 Q6.4 -39.3 6.15 -37.9 6.15 -35.35 5.25 -34.6 3.7 -33.65 2.75 -32.3 2.85 -30.95 2.2 -30.5 L0.95 -29.7 0.65 -28.95 0.05 -28.35 -0.45 -28.2 Q-1.4 -28.45 -1.55 -28.95 L-1.85 -29.7 -3.1 -30.5 Q-3.75 -30.95 -3.65 -32.3 -4.6 -33.65 -6.15 -34.6 -7.05 -35.35 -7.0 -37.9 -7.3 -39.3 -8.2 -39.9 L-10.5 -40.25 -9.8 -41.7 -8.65 -41.05" fill="#35211d" fill-rule="evenodd" stroke="none"/>
      <path d="M-15.5 -43.5 L-14.9 -46.9 Q-14.2 -49.45 -12.65 -50.85 -12.0 -51.4 -11.2 -51.5 -10.3 -51.6 -9.6 -51.1 -7.7 -49.75 -7.65 -45.3 -8.35 -42.85 -7.65 -42.3 -7.8 -40.9 -8.65 -41.05 L-9.8 -41.7 -10.5 -40.25 Q-10.8 -39.35 -11.55 -38.75 -13.55 -39.3 -14.8 -41.7 L-15.5 -43.5" fill="url(#decoration112-gradient11)" fill-rule="evenodd" stroke="none"/>
      <path d="M14.6 -42.25 Q15.35 -44.1 15.25 -46.4 15.1 -49.5 13.55 -51.4 11.75 -53.6 8.65 -53.45 4.45 -53.2 4.2 -46.0 1.8 -47.35 -0.45 -47.3 -2.7 -47.35 -5.1 -46.0 -5.2 -49.6 -6.3 -51.5 -7.45 -53.45 -9.5 -53.45 -12.55 -53.45 -14.3 -51.35 -15.75 -49.55 -15.85 -46.65 -15.9 -45.0 -15.5 -43.5 M-14.9 -46.9 Q-14.2 -49.45 -12.65 -50.85 -12.0 -51.4 -11.2 -51.5 -10.3 -51.6 -9.6 -51.1 -7.7 -49.75 -7.65 -45.3 -8.35 -42.85 -7.65 -42.3 M6.75 -41.7 Q7.45 -42.9 6.75 -45.3 6.8 -49.75 8.7 -51.1 9.4 -51.6 10.3 -51.5 11.1 -51.4 11.75 -50.85 13.3 -49.45 14.0 -46.9 M14.6 -42.25 L14.15 -41.25 Q12.85 -38.9 10.7 -38.75 9.95 -39.35 9.65 -40.25 M7.3 -39.9 Q6.4 -39.3 6.15 -37.9 6.15 -35.35 5.25 -34.6 3.7 -33.65 2.75 -32.3 2.85 -30.95 2.2 -30.5 L0.95 -29.7 0.65 -28.95 0.05 -28.35 -0.45 -28.2 Q-1.4 -28.45 -1.55 -28.95 L-1.85 -29.7 -3.1 -30.5 Q-3.75 -30.95 -3.65 -32.3 -4.6 -33.65 -6.15 -34.6 -7.05 -35.35 -7.0 -37.9 -7.3 -39.3 -8.2 -39.9 M-10.5 -40.25 Q-10.8 -39.35 -11.55 -38.75 -13.55 -39.3 -14.8 -41.7 L-15.5 -43.5" fill="none" stroke="#000000" stroke-linecap="round" stroke-linejoin="round" stroke-opacity="0.49803922" stroke-width="0.30000000000000004"/>
      <path d="M-2.1 -36.8 Q-2.35 -35.65 -3.1 -35.6 -4.45 -35.65 -5.0 -36.85 -5.6 -37.95 -5.25 -39.7 -4.5 -39.0 -3.25 -38.35 -2.35 -37.75 -2.1 -36.8" fill="url(#decoration112-gradient12)" fill-rule="evenodd" stroke="none"/>
      <path d="M-5.25 -39.7 Q-4.5 -39.0 -3.25 -38.35 -2.35 -37.75 -2.1 -36.8" fill="none" stroke="#000000" stroke-linecap="round" stroke-linejoin="round" stroke-opacity="0.49803922" stroke-width="0.30000000000000004"/>
      <path d="M4.3 -39.7 Q4.65 -37.95 4.0 -36.85 3.5 -35.65 2.15 -35.6 1.35 -35.65 1.1 -36.8 1.35 -37.75 2.25 -38.35 L4.3 -39.7" fill="url(#decoration112-gradient13)" fill-rule="evenodd" stroke="none"/>
      <path d="M4.3 -39.7 L2.25 -38.35 Q1.35 -37.75 1.1 -36.8" fill="none" stroke="#000000" stroke-linecap="round" stroke-linejoin="round" stroke-opacity="0.49803922" stroke-width="0.30000000000000004"/>
      <path d="M-21.65 45.55 L-21.75 45.5 Q-22.85 44.9 -22.45 44.2 L-22.05 43.8 Q-23.1 43.55 -22.45 42.85 L-21.35 43.2 -20.15 43.15 -18.65 43.1 Q-19.9 43.35 -20.45 43.7 L-20.65 43.75 Q-21.2 43.9 -21.6 44.25 -22.15 44.9 -20.1 45.15 -20.4 44.5 -19.8 44.35 L-19.15 44.3 -18.7 44.65 Q-18.45 44.95 -18.75 45.35 L-21.65 45.55 M-17.2 44.15 L-16.45 43.25 Q-14.95 42.7 -13.65 42.85 L-12.85 43.15 -13.15 43.75 Q-13.45 44.3 -14.0 43.9 L-13.75 43.55 Q-13.7 43.15 -14.7 43.15 -15.75 43.1 -16.1 43.45 L-16.25 44.2 -16.1 44.75 -15.95 44.9 -15.45 45.25 -13.05 45.75 Q-14.0 45.2 -12.75 45.0 L-10.35 45.4 -8.55 45.0 Q-9.95 45.65 -12.65 45.9 L-14.75 45.85 Q-16.25 45.65 -16.8 44.9 L-17.2 44.15 M-28.65 45.15 L-27.6 44.4 Q-28.85 43.3 -27.65 43.55 L-26.1 43.95 Q-24.95 43.85 -23.7 44.3 -25.85 44.05 -27.1 44.8 -28.3 45.6 -28.65 45.15 M-23.4 45.65 Q-23.05 46.4 -23.85 46.4 L-24.6 45.9 Q-24.6 45.3 -23.15 44.8 -23.7 45.35 -23.4 45.65" fill="#744c38" fill-rule="evenodd" stroke="none"/>
      <path d="M-18.65 43.1 Q-17.8 43.35 -17.2 44.15 L-16.8 44.9 Q-16.25 45.65 -14.75 45.85 L-12.65 45.9 Q-9.95 45.65 -8.55 45.0 L-6.2 44.2 Q-10.7 46.4 -14.0 46.15 -16.45 45.95 -17.15 45.15 L-17.2 44.8 -17.3 44.5 Q-18.15 43.6 -19.45 43.55 L-20.45 43.7 Q-19.9 43.35 -18.65 43.1 M-12.85 43.15 L-12.3 43.65 Q-12.0 44.4 -13.05 44.65 -14.1 44.95 -14.6 44.3 -14.85 44.0 -14.2 43.85 -15.0 43.4 -15.95 44.05 L-15.95 44.9 -16.1 44.75 -16.25 44.2 -16.1 43.45 Q-15.75 43.1 -14.7 43.15 -13.7 43.15 -13.75 43.55 L-14.0 43.9 Q-13.45 44.3 -13.15 43.75 L-12.85 43.15 M-19.15 44.3 L-18.6 44.4 Q-17.9 44.6 -17.9 45.05 -17.85 45.8 -19.75 45.8 L-21.65 45.55 -18.75 45.35 Q-18.45 44.95 -18.7 44.65 L-19.15 44.3 M-23.7 44.3 Q-25.95 44.2 -27.25 45.35 -28.55 46.5 -29.15 46.0 -29.15 45.6 -28.65 45.15 -28.3 45.6 -27.1 44.8 -25.85 44.05 -23.7 44.3 M-24.6 45.9 L-23.85 46.4 Q-23.05 46.4 -23.4 45.65 L-23.1 45.85 Q-22.55 46.25 -23.1 46.7 -24.25 46.95 -24.55 46.15 L-24.6 45.9" fill="#4d2d1e" fill-rule="evenodd" stroke="none"/>
      <path d="M-21.65 45.55 L-21.75 45.5 Q-22.85 44.9 -22.45 44.2 L-22.05 43.8 Q-23.1 43.55 -22.45 42.85 L-21.35 43.2 -20.15 43.15 -18.65 43.1 Q-17.8 43.35 -17.2 44.15 L-16.45 43.25 Q-14.95 42.7 -13.65 42.85 L-12.85 43.15 -12.3 43.65 Q-12.0 44.4 -13.05 44.65 -14.1 44.95 -14.6 44.3 -14.85 44.0 -14.2 43.85 -15.0 43.4 -15.95 44.05 L-15.95 44.9 -15.45 45.25 -13.05 45.75 Q-14.0 45.2 -12.75 45.0 L-10.35 45.4 -8.55 45.0 -6.2 44.2 Q-10.7 46.4 -14.0 46.15 -16.45 45.95 -17.15 45.15 L-17.2 44.8 -17.3 44.5 Q-18.15 43.6 -19.45 43.55 L-20.45 43.7 -20.65 43.75 Q-21.2 43.9 -21.6 44.25 -22.15 44.9 -20.1 45.15 -20.4 44.5 -19.8 44.35 L-19.15 44.3 -18.6 44.4 Q-17.9 44.6 -17.9 45.05 -17.85 45.8 -19.75 45.8 L-21.65 45.55 M-23.7 44.3 Q-25.95 44.2 -27.25 45.35 -28.55 46.5 -29.15 46.0 -29.15 45.6 -28.65 45.15 L-27.6 44.4 Q-28.85 43.3 -27.65 43.55 L-26.1 43.95 Q-24.95 43.85 -23.7 44.3 M-23.4 45.65 Q-23.7 45.35 -23.15 44.8 -24.6 45.3 -24.6 45.9 L-24.55 46.15 Q-24.25 46.95 -23.1 46.7 -22.55 46.25 -23.1 45.85 L-23.4 45.65" fill="none" stroke="#000000" stroke-linecap="round" stroke-linejoin="round" stroke-opacity="0.3019608" stroke-width="0.30000000000000004"/>
      <path d="M7.65 45.0 Q9.1 45.65 11.8 45.9 L13.9 45.85 Q15.35 45.65 15.95 44.9 L16.3 44.15 Q16.9 43.35 17.75 43.1 19.0 43.35 19.6 43.7 L18.55 43.55 Q17.3 43.6 16.45 44.5 L16.35 44.8 16.3 45.15 Q15.6 45.95 13.15 46.15 9.8 46.4 5.3 44.2 L7.65 45.0 M12.0 43.15 L12.25 43.75 Q12.6 44.3 13.1 43.9 L12.9 43.55 Q12.85 43.15 13.8 43.15 14.85 43.1 15.2 43.45 15.45 43.7 15.35 44.2 L15.2 44.75 15.1 44.9 15.1 44.05 Q14.15 43.4 13.35 43.85 14.0 44.0 13.75 44.3 13.25 44.95 12.15 44.65 11.1 44.4 11.45 43.65 L12.0 43.15 M18.3 44.3 L17.85 44.65 Q17.55 44.95 17.85 45.35 L20.8 45.55 18.85 45.8 Q16.95 45.8 17.05 45.05 17.05 44.6 17.7 44.4 L18.3 44.3 M27.8 45.15 Q28.3 45.6 28.3 46.0 27.7 46.5 26.4 45.35 25.05 44.2 22.85 44.3 25.0 44.05 26.2 44.8 27.45 45.6 27.8 45.15 M23.75 45.9 L23.7 46.15 Q23.4 46.95 22.2 46.7 21.7 46.25 22.2 45.85 L22.5 45.65 Q22.15 46.4 22.95 46.4 23.55 46.35 23.75 45.9" fill="#4d2d1e" fill-rule="evenodd" stroke="none"/>
      <path d="M7.65 45.0 L9.5 45.4 11.9 45.0 Q13.15 45.2 12.15 45.75 L14.55 45.25 15.1 44.9 15.2 44.75 15.35 44.2 Q15.45 43.7 15.2 43.45 14.85 43.1 13.8 43.15 12.85 43.15 12.9 43.55 L13.1 43.9 Q12.6 44.3 12.25 43.75 L12.0 43.15 12.8 42.85 15.6 43.25 16.3 44.15 15.95 44.9 Q15.35 45.65 13.9 45.85 L11.8 45.9 Q9.1 45.65 7.65 45.0 M19.6 43.7 Q19.0 43.35 17.75 43.1 L19.3 43.15 20.5 43.2 21.6 42.85 Q22.25 43.55 21.2 43.8 L21.6 44.2 Q21.95 44.9 20.9 45.5 L20.8 45.55 17.85 45.35 Q17.55 44.95 17.85 44.65 L18.3 44.3 18.95 44.35 Q19.5 44.5 19.2 45.15 21.3 44.9 20.75 44.25 L19.8 43.75 19.6 43.7 M22.85 44.3 Q24.05 43.85 25.2 43.95 26.15 43.95 26.75 43.55 27.95 43.3 26.75 44.4 L27.8 45.15 Q27.45 45.6 26.2 44.8 25.0 44.05 22.85 44.3 M23.75 45.9 Q23.55 46.35 22.95 46.4 22.15 46.4 22.5 45.65 22.85 45.35 22.3 44.8 23.75 45.3 23.75 45.9" fill="#744c38" fill-rule="evenodd" stroke="none"/>
      <path d="M15.1 44.9 L14.55 45.25 12.15 45.75 Q13.15 45.2 11.9 45.0 L9.5 45.4 7.65 45.0 5.3 44.2 Q9.8 46.4 13.15 46.15 15.6 45.95 16.3 45.15 L16.35 44.8 16.45 44.5 Q17.3 43.6 18.55 43.55 L19.6 43.7 19.8 43.75 20.75 44.25 Q21.3 44.9 19.2 45.15 19.5 44.5 18.95 44.35 L18.3 44.3 M16.3 44.15 L15.6 43.25 12.8 42.85 12.0 43.15 M15.1 44.9 L15.1 44.05 Q14.15 43.4 13.35 43.85 14.0 44.0 13.75 44.3 13.25 44.95 12.15 44.65 11.1 44.4 11.45 43.65 L12.0 43.15 M17.75 43.1 Q16.9 43.35 16.3 44.15 M20.8 45.55 L20.9 45.5 Q21.95 44.9 21.6 44.2 L21.2 43.8 Q22.25 43.55 21.6 42.85 L20.5 43.2 19.3 43.15 17.75 43.1 M20.8 45.55 L18.85 45.8 Q16.95 45.8 17.05 45.05 17.05 44.6 17.7 44.4 L18.3 44.3 M22.85 44.3 Q24.05 43.85 25.2 43.95 26.15 43.95 26.75 43.55 27.95 43.3 26.75 44.4 L27.8 45.15 Q28.3 45.6 28.3 46.0 27.7 46.5 26.4 45.35 25.05 44.2 22.85 44.3 M22.5 45.65 L22.2 45.85 Q21.7 46.25 22.2 46.7 23.4 46.95 23.7 46.15 L23.75 45.9 M22.5 45.65 Q22.85 45.35 22.3 44.8 23.75 45.3 23.75 45.9" fill="none" stroke="#000000" stroke-linecap="round" stroke-linejoin="round" stroke-opacity="0.3019608" stroke-width="0.30000000000000004"/>
      <path d="M33.3 -41.0 Q34.2 -40.55 34.45 -39.6 L36.55 -39.4 Q38.75 -38.95 39.3 -37.35 L40.7 -34.05 Q40.5 -32.65 39.0 -31.85 42.95 -32.4 43.05 -31.35 41.9 -29.25 37.95 -28.95 40.15 -26.95 39.65 -26.45 L36.8 -26.4 Q36.3 -24.45 35.2 -22.6 24.45 -5.4 30.75 0.5 L32.65 0.45 Q33.1 -0.05 32.4 -1.3 33.75 -0.55 34.15 0.45 34.45 1.4 34.0 2.25 L32.65 3.55 30.65 3.6 Q24.95 1.8 25.35 -6.2 25.75 -14.15 32.2 -28.05 33.3 -30.75 31.6 -31.45 29.8 -32.15 26.45 -29.8 26.2 -31.35 25.0 -32.55 23.85 -33.7 22.3 -34.1 L19.05 -34.0 Q17.3 -33.45 16.1 -31.85 16.85 -39.25 24.35 -41.25 26.45 -33.3 33.4 -34.65 30.25 -34.65 28.95 -35.75 27.85 -36.65 28.1 -38.1 28.3 -39.3 29.35 -40.4 30.3 -41.45 31.1 -41.45 32.45 -41.5 33.3 -41.0 M36.25 -30.35 L37.95 -28.95 36.25 -30.35 M39.55 -36.1 L39.0 -36.6 Q38.8 -36.4 39.25 -35.6 39.75 -34.85 39.95 -35.3 L39.55 -36.1 39.95 -35.3 Q39.75 -34.85 39.25 -35.6 38.8 -36.4 39.0 -36.6 L39.55 -36.1 M36.35 -36.15 Q37.0 -36.65 37.6 -36.15 38.55 -35.4 38.1 -34.75 37.6 -34.15 36.65 -34.85 35.65 -35.65 36.35 -36.15 35.65 -35.65 36.65 -34.85 37.6 -34.15 38.1 -34.75 38.55 -35.4 37.6 -36.15 37.0 -36.65 36.35 -36.15" fill="url(#decoration112-gradient14)" fill-rule="evenodd" stroke="none"/>
      <path d="M33.3 -41.0 Q34.2 -40.55 34.45 -39.6 L36.55 -39.4 Q38.75 -38.95 39.3 -37.35 L40.7 -34.05 Q40.5 -32.65 39.0 -31.85 42.95 -32.4 43.05 -31.35 41.9 -29.25 37.95 -28.95 40.15 -26.95 39.65 -26.45 L36.8 -26.4 Q36.3 -24.45 35.2 -22.6 24.45 -5.4 30.75 0.5 L32.65 0.45 Q33.1 -0.05 32.4 -1.3 33.75 -0.55 34.15 0.45 34.45 1.4 34.0 2.25 L32.65 3.55 30.65 3.6 Q24.95 1.8 25.35 -6.2 25.75 -14.15 32.2 -28.05 33.3 -30.75 31.6 -31.45 29.8 -32.15 26.45 -29.8 26.2 -31.35 25.0 -32.55 23.85 -33.7 22.3 -34.1 L19.05 -34.0 Q17.3 -33.45 16.1 -31.85 16.85 -39.25 24.35 -41.25 26.45 -33.3 33.4 -34.65 30.25 -34.65 28.95 -35.75 27.85 -36.65 28.1 -38.1 28.3 -39.3 29.35 -40.4 30.3 -41.45 31.1 -41.45 32.45 -41.5 33.3 -41.0 M36.35 -36.15 Q35.65 -35.65 36.65 -34.85 37.6 -34.15 38.1 -34.75 38.55 -35.4 37.6 -36.15 37.0 -36.65 36.35 -36.15 M39.55 -36.1 L39.95 -35.3 Q39.75 -34.85 39.25 -35.6 38.8 -36.4 39.0 -36.6 L39.55 -36.1 M37.95 -28.95 L36.25 -30.35" fill="none" stroke="#000000" stroke-linecap="round" stroke-linejoin="round" stroke-opacity="0.29803923" stroke-width="0.30000000000000004"/>
    </g>
    <linearGradient gradientTransform="matrix(0.0, 0.0353, -0.0459, 0.0, -39.4, -13.25)" gradientUnits="userSpaceOnUse" id="decoration112-gradient0" spreadMethod="pad" x1="-819.2" x2="819.2">
      <stop offset="0.0" stop-color="#301e1a"/>
      <stop offset="0.9882352941176471" stop-color="#5d392b"/>
    </linearGradient>
    <linearGradient gradientTransform="matrix(0.0, 0.0437, -0.0569, 0.0, -42.35, -4.8)" gradientUnits="userSpaceOnUse" id="decoration112-gradient1" spreadMethod="pad" x1="-819.2" x2="819.2">
      <stop offset="0.0" stop-color="#301e1a"/>
      <stop offset="0.9882352941176471" stop-color="#5d392b"/>
    </linearGradient>
    <linearGradient gradientTransform="matrix(0.0, 0.0437, 0.0569, 0.0, 41.5, -4.8)" gradientUnits="userSpaceOnUse" id="decoration112-gradient2" spreadMethod="pad" x1="-819.2" x2="819.2">
      <stop offset="0.0" stop-color="#301e1a"/>
      <stop offset="0.9882352941176471" stop-color="#5d392b"/>
    </linearGradient>
    <linearGradient gradientTransform="matrix(0.0, 0.0353, 0.0459, 0.0, 38.5, -13.25)" gradientUnits="userSpaceOnUse" id="decoration112-gradient3" spreadMethod="pad" x1="-819.2" x2="819.2">
      <stop offset="0.0" stop-color="#301e1a"/>
      <stop offset="0.9882352941176471" stop-color="#5d392b"/>
    </linearGradient>
    <linearGradient gradientTransform="matrix(0.0089, -0.0024, 0.0039, 0.0144, -0.6, -8.65)" gradientUnits="userSpaceOnUse" id="decoration112-gradient4" spreadMethod="pad" x1="-819.2" x2="819.2">
      <stop offset="0.0196078431372549" stop-color="#b48b6b"/>
      <stop offset="1.0" stop-color="#522c19"/>
    </linearGradient>
    <linearGradient gradientTransform="matrix(0.0, 0.0353, -0.0459, 0.0, -39.55, -10.55)" gradientUnits="userSpaceOnUse" id="decoration112-gradient5" spreadMethod="pad" x1="-819.2" x2="819.2">
      <stop offset="0.0" stop-color="#4f322c"/>
      <stop offset="0.32941176470588235" stop-color="#301e1a"/>
      <stop offset="0.9882352941176471" stop-color="#5d392b"/>
    </linearGradient>
    <linearGradient gradientTransform="matrix(0.0, 0.0353, 0.0459, 0.0, 38.5, -11.9)" gradientUnits="userSpaceOnUse" id="decoration112-gradient6" spreadMethod="pad" x1="-819.2" x2="819.2">
      <stop offset="0.0" stop-color="#301e1a"/>
      <stop offset="0.9882352941176471" stop-color="#5d392b"/>
    </linearGradient>
    <linearGradient gradientTransform="matrix(0.0, 0.0353, -0.0459, 0.0, -39.4, -11.9)" gradientUnits="userSpaceOnUse" id="decoration112-gradient7" spreadMethod="pad" x1="-819.2" x2="819.2">
      <stop offset="0.0" stop-color="#301e1a"/>
      <stop offset="0.9882352941176471" stop-color="#5d392b"/>
    </linearGradient>
    <linearGradient gradientTransform="matrix(0.0, 0.0225, -0.0459, 0.0, -38.95, -20.85)" gradientUnits="userSpaceOnUse" id="decoration112-gradient8" spreadMethod="pad" x1="-819.2" x2="819.2">
      <stop offset="0.0" stop-color="#51332d"/>
      <stop offset="0.2823529411764706" stop-color="#301e1a"/>
      <stop offset="0.9882352941176471" stop-color="#5d392b"/>
    </linearGradient>
    <radialGradient cx="0" cy="0" gradientTransform="matrix(0.0111, 0.0, 0.0, 0.0111, -1.05, -44.1)" gradientUnits="userSpaceOnUse" id="decoration112-gradient9" r="819.2" spreadMethod="pad">
      <stop offset="0.0" stop-color="#74523e"/>
      <stop offset="0.9764705882352941" stop-color="#51342d"/>
    </radialGradient>
    <linearGradient gradientTransform="matrix(0.0024, 0.0042, -0.0067, 0.0039, 10.7, -45.1)" gradientUnits="userSpaceOnUse" id="decoration112-gradient10" spreadMethod="pad" x1="-819.2" x2="819.2">
      <stop offset="0.0" stop-color="#301e1a"/>
      <stop offset="0.9882352941176471" stop-color="#51342d"/>
    </linearGradient>
    <linearGradient gradientTransform="matrix(-0.0018, 0.0051, -0.0074, -0.0025, -11.6, -45.15)" gradientUnits="userSpaceOnUse" id="decoration112-gradient11" spreadMethod="pad" x1="-819.2" x2="819.2">
      <stop offset="0.0" stop-color="#301e1a"/>
      <stop offset="0.9882352941176471" stop-color="#51342d"/>
    </linearGradient>
    <linearGradient gradientTransform="matrix(-5.0E-4, 0.002, -0.0024, -7.0E-4, -3.65, -37.5)" gradientUnits="userSpaceOnUse" id="decoration112-gradient12" spreadMethod="pad" x1="-819.2" x2="819.2">
      <stop offset="0.0" stop-color="#301e1a"/>
      <stop offset="0.9882352941176471" stop-color="#51342d"/>
    </linearGradient>
    <linearGradient gradientTransform="matrix(0.0011, 0.002, -0.0067, 0.0039, 12.2, -42.8)" gradientUnits="userSpaceOnUse" id="decoration112-gradient13" spreadMethod="pad" x1="-819.2" x2="819.2">
      <stop offset="0.0" stop-color="#301e1a"/>
      <stop offset="0.9882352941176471" stop-color="#51342d"/>
    </linearGradient>
    <linearGradient gradientTransform="matrix(0.0, 0.02, 0.0459, 0.0, 38.8, -20.65)" gradientUnits="userSpaceOnUse" id="decoration112-gradient14" spreadMethod="pad" x1="-819.2" x2="819.2">
      <stop offset="0.0" stop-color="#51332d"/>
      <stop offset="0.2823529411764706" stop-color="#301e1a"/>
      <stop offset="0.9882352941176471" stop-color="#5d392b"/>
    </linearGradient>
  </defs>
</svg>
