<?xml version="1.0" encoding="UTF-8" standalone="no"?>
<svg xmlns:xlink="http://www.w3.org/1999/xlink" height="37.8px" width="31.5px" xmlns="http://www.w3.org/2000/svg">
  <g transform="matrix(1.0, 0.0, 0.0, 1.0, 12.65, 37.45)">
    <use height="17.65" transform="matrix(1.0, 0.0, 0.0, 1.0, -12.65, -36.2)" width="31.5" xlink:href="#decoration113-shape0"/>
    <use height="84.2" transform="matrix(0.0744, 0.2517, -0.3029, 0.075, 13.1487, -37.4423)" width="43.2" xlink:href="#decoration113-sprite0"/>
    <use height="31.5" transform="matrix(1.0, 0.0, 0.0, 1.0, -12.1, -31.15)" width="24.65" xlink:href="#decoration113-shape2"/>
    <use height="84.2" transform="matrix(0.257, 0.0, 0.0, 0.2418, 5.9977, -31.1212)" width="43.2" xlink:href="#decoration113-sprite0"/>
  </g>
  <defs>
    <g id="decoration113-shape0" transform="matrix(1.0, 0.0, 0.0, 1.0, 12.65, 36.2)">
      <path d="M18.7 -27.5 L16.75 -27.95 Q17.95 -26.45 17.1 -24.25 L15.8 -25.7 Q15.85 -24.6 14.6 -23.4 L12.1 -26.85 Q9.95 -29.9 10.4 -31.0 13.45 -32.9 17.05 -31.65 16.0 -31.5 15.45 -30.85 17.7 -29.9 18.7 -27.5" fill="#5d7f25" fill-rule="evenodd" stroke="none"/>
      <path d="M18.7 -27.5 L16.75 -27.95 Q17.95 -26.45 17.1 -24.25 L15.8 -25.7 Q15.85 -24.6 14.6 -23.4 L12.1 -26.85 Q9.95 -29.9 10.4 -31.0 13.45 -32.9 17.05 -31.65 16.0 -31.5 15.45 -30.85 17.7 -29.9 18.7 -27.5 Z" fill="none" stroke="#000000" stroke-linecap="round" stroke-linejoin="round" stroke-opacity="0.49803922" stroke-width="0.30000000000000004"/>
      <path d="M-12.5 -34.85 Q-11.25 -36.1 -9.55 -36.05 -10.4 -34.0 -10.35 -31.8 -8.15 -26.1 0.2 -19.45 L-0.35 -18.7 Q-8.0 -19.9 -11.05 -24.7 -12.2 -26.55 -12.45 -28.6 -12.6 -30.4 -12.05 -31.75 -11.8 -33.45 -12.5 -34.85 M-10.5 -28.2 L-10.85 -28.95 -11.25 -29.2 -11.65 -28.95 -11.65 -28.2 -11.3 -27.45 -10.85 -27.2 Q-10.65 -27.2 -10.5 -27.45 L-10.5 -28.2" fill="#ebc158" fill-rule="evenodd" stroke="none"/>
      <path d="M-10.5 -28.2 L-10.5 -27.45 Q-10.65 -27.2 -10.85 -27.2 L-11.3 -27.45 -11.65 -28.2 -11.65 -28.95 -11.25 -29.2 -10.85 -28.95 -10.5 -28.2" fill="#936731" fill-rule="evenodd" stroke="none"/>
      <path d="M-12.5 -34.85 Q-11.25 -36.1 -9.55 -36.05 -10.4 -34.0 -10.35 -31.8 -8.15 -26.1 0.2 -19.45 L-0.35 -18.7 Q-8.0 -19.9 -11.05 -24.7 -12.2 -26.55 -12.45 -28.6 -12.6 -30.4 -12.05 -31.75 -11.8 -33.45 -12.5 -34.85 Z" fill="none" stroke="#000000" stroke-linecap="round" stroke-linejoin="round" stroke-opacity="0.30980393" stroke-width="0.30000000000000004"/>
    </g>
    <g id="decoration113-sprite0" transform="matrix(1.0, 0.0, 0.0, 1.0, 21.6, 84.05)">
      <use height="84.2" transform="matrix(1.0, 0.0, 0.0, 1.0, -21.6, -84.05)" width="43.2" xlink:href="#decoration113-shape1"/>
    </g>
    <g id="decoration113-shape1" transform="matrix(1.0, 0.0, 0.0, 1.0, 21.6, 84.05)">
      <path d="M5.55 -72.85 Q5.9 -75.85 8.35 -77.55 10.0 -78.7 12.0 -78.95 10.0 -78.7 8.35 -77.55 5.9 -75.85 5.55 -72.85 M-7.25 -12.8 Q-7.4 -17.25 -4.15 -19.55 L-5.5 -20.15 Q-6.4 -20.8 -7.45 -22.3 -8.35 -23.6 -8.5 -25.75 -8.65 -27.2 -8.45 -28.0 -12.7 -28.3 -14.65 -31.7 -15.9 -33.95 -15.5 -36.65 -15.2 -38.7 -14.25 -39.95 -16.75 -42.0 -16.45 -45.75 -16.15 -49.5 -13.5 -51.35 -17.1 -52.95 -17.35 -57.05 -17.65 -60.9 -14.95 -64.05 -16.9 -64.15 -18.8 -65.4 -21.7 -67.4 -21.4 -71.15 -21.1 -74.75 -17.35 -76.95 -14.65 -78.5 -12.4 -78.55 -11.9 -80.6 -10.45 -81.7 -6.15 -84.95 -1.9 -83.45 1.0 -82.35 1.6 -81.0 5.05 -83.4 8.85 -81.45 10.75 -80.5 12.0 -78.95 L14.15 -78.55 16.05 -77.7 Q16.9 -76.25 17.15 -73.0 17.5 -68.45 14.95 -66.85 L15.85 -63.8 Q16.55 -60.5 15.5 -59.0 13.95 -60.05 12.15 -60.45 6.95 -61.6 4.1 -55.35 6.95 -61.6 12.15 -60.45 13.95 -60.05 15.5 -59.0 16.1 -57.9 16.15 -55.0 16.25 -51.7 15.15 -50.45 L15.2 -50.4 17.75 -49.7 Q19.45 -47.35 19.45 -44.65 19.45 -40.15 13.9 -37.35 L16.6 -36.4 Q18.0 -34.25 17.8 -31.1 17.6 -28.25 15.75 -26.15 L13.5 -24.0 Q14.65 -22.15 14.1 -18.25 13.45 -13.25 9.15 -12.35 L9.1 -12.35 Q9.4 -11.8 9.35 -10.1 9.3 -8.0 8.6 -6.35 6.45 -1.35 -0.25 -2.6 -1.9 -5.0 -1.75 -6.9 L-1.75 -6.95 Q-1.55 -8.95 -0.75 -10.15 -2.45 -9.35 -4.3 -10.2 -6.05 -10.95 -7.25 -12.8 M4.9 -13.55 Q1.35 -12.75 -0.75 -10.15 1.35 -12.75 4.9 -13.55 M5.8 -51.15 L6.4 -50.05 7.05 -48.55 6.4 -50.05 5.8 -51.15 M-3.65 -64.3 Q-1.65 -65.55 0.4 -65.75 L2.35 -65.65 0.4 -65.75 Q-1.65 -65.55 -3.65 -64.3 M-0.7 -74.55 Q0.8 -74.4 2.7 -73.05 5.15 -71.3 5.2 -68.85 5.15 -71.3 2.7 -73.05 0.8 -74.4 -0.7 -74.55 M4.2 -66.3 Q7.2 -69.1 11.35 -68.25 13.4 -67.8 14.95 -66.85 13.4 -67.8 11.35 -68.25 7.2 -69.1 4.2 -66.3 M6.15 -44.45 Q7.2 -48.95 10.95 -50.15 L15.2 -50.4 10.95 -50.15 Q7.2 -48.95 6.15 -44.45 M3.9 -21.3 Q5.3 -22.7 5.95 -25.3 6.65 -28.25 5.6 -30.5 6.65 -28.25 5.95 -25.3 5.3 -22.7 3.9 -21.3 M11.9 -37.5 Q10.05 -37.4 8.05 -36.2 5.65 -34.7 5.25 -32.6 5.65 -34.7 8.05 -36.2 10.05 -37.4 11.9 -37.5 M7.2 -43.1 Q8.65 -42.9 10.1 -42.0 12.15 -40.65 12.8 -38.35 12.15 -40.65 10.1 -42.0 8.65 -42.9 7.2 -43.1 M4.55 -43.2 Q2.5 -43.15 0.8 -41.65 L-0.75 -39.8 0.8 -41.65 Q2.5 -43.15 4.55 -43.2 M3.3 -57.1 Q1.3 -59.8 2.9 -64.25 1.3 -59.8 3.3 -57.1 M3.2 -20.1 Q6.25 -19.0 6.95 -14.5 6.25 -19.0 3.2 -20.1 M-0.5 -20.8 Q-2.6 -20.7 -4.15 -19.55 -2.6 -20.7 -0.5 -20.8 M-1.65 -36.0 Q-1.15 -39.45 -4.2 -41.7 -7.25 -43.95 -10.15 -42.4 -7.25 -43.95 -4.2 -41.7 -1.15 -39.45 -1.65 -36.0 M-2.75 -33.8 Q-4.95 -33.35 -6.7 -31.2 -8.1 -29.5 -8.45 -28.0 -8.1 -29.5 -6.7 -31.2 -4.95 -33.35 -2.75 -33.8 M-12.15 -41.9 L-13.3 -40.9 -14.25 -39.95 -13.3 -40.9 -12.15 -41.9 M-6.1 -51.35 Q-7.15 -50.15 -7.7 -48.4 -8.35 -46.2 -7.8 -44.2 -8.35 -46.2 -7.7 -48.4 -7.15 -50.15 -6.1 -51.35 M-9.0 -53.0 Q-11.6 -52.9 -13.5 -51.35 -11.6 -52.9 -9.0 -53.0 M4.25 -52.7 Q2.45 -54.05 -0.4 -53.95 -2.45 -53.85 -3.75 -53.25 -2.45 -53.85 -0.4 -53.95 2.45 -54.05 4.25 -52.7 M-5.45 -53.6 Q-7.4 -56.35 -6.9 -59.1 -6.6 -60.55 -5.5 -62.25 -6.6 -60.55 -6.9 -59.1 -7.4 -56.35 -5.45 -53.6 M-10.5 -65.75 Q-13.1 -65.65 -14.95 -64.05 -13.1 -65.65 -10.5 -65.75 M-5.65 -64.5 Q-6.65 -65.2 -7.95 -65.5 -6.65 -65.2 -5.65 -64.5 M-3.2 -74.45 Q-5.9 -74.2 -7.6 -72.65 -9.7 -70.65 -9.65 -66.95 -9.7 -70.65 -7.6 -72.65 -5.9 -74.2 -3.2 -74.45 M-1.9 -75.8 Q-1.5 -77.7 -0.1 -79.4 L1.6 -81.0 -0.1 -79.4 Q-1.5 -77.7 -1.9 -75.8 M-9.6 -70.8 Q-12.05 -72.05 -12.5 -75.1 -12.85 -77.05 -12.4 -78.55 -12.85 -77.05 -12.5 -75.1 -12.05 -72.05 -9.6 -70.8 M7.7 -25.05 Q11.25 -25.45 13.5 -24.0 11.25 -25.45 7.7 -25.05 M4.1 -32.3 Q2.2 -33.9 -0.7 -34.0 2.2 -33.9 4.1 -32.3" fill="url(#decoration113-gradient0)" fill-rule="evenodd" stroke="none"/>
      <path d="M16.05 -77.7 Q18.15 -76.3 18.9 -73.7 19.9 -70.05 18.7 -67.25 17.9 -65.35 16.8 -64.75 17.8 -63.45 17.6 -60.8 17.35 -58.5 16.85 -58.0 17.85 -56.75 18.25 -54.45 18.7 -51.75 17.75 -49.7 19.25 -48.8 20.4 -46.4 21.45 -44.2 21.45 -42.65 21.45 -38.15 16.6 -36.4 18.35 -35.35 19.3 -33.15 20.0 -31.45 19.95 -29.9 19.8 -26.75 17.85 -24.7 16.5 -23.3 14.9 -22.8 L14.95 -22.75 Q16.6 -20.75 16.7 -17.5 16.75 -14.25 14.5 -12.2 12.9 -10.7 11.1 -10.35 12.1 -8.55 11.25 -5.05 10.15 -0.45 5.4 -0.05 1.85 0.25 -0.25 -2.6 6.45 -1.35 8.6 -6.35 9.3 -8.0 9.35 -10.1 9.4 -11.8 9.1 -12.35 L9.15 -12.35 Q13.45 -13.25 14.1 -18.25 14.65 -22.15 13.5 -24.0 L15.75 -26.15 Q17.6 -28.25 17.8 -31.1 18.0 -34.25 16.6 -36.4 L13.9 -37.35 Q19.45 -40.15 19.45 -44.65 19.45 -47.35 17.75 -49.7 L15.2 -50.4 15.15 -50.45 Q16.25 -51.7 16.15 -55.0 16.1 -57.9 15.5 -59.0 16.55 -60.5 15.85 -63.8 L14.95 -66.85 Q17.5 -68.45 17.15 -73.0 16.9 -76.25 16.05 -77.7 M-1.75 -6.95 Q-7.1 -8.2 -7.25 -12.8 -6.05 -10.95 -4.3 -10.2 -2.45 -9.35 -0.75 -10.15 -1.55 -8.95 -1.75 -6.95 M16.8 -64.75 L14.95 -66.85 16.8 -64.75 M16.85 -58.0 L15.5 -59.0 16.85 -58.0 M14.9 -22.8 L13.5 -24.0 14.9 -22.8 M11.1 -10.35 L9.15 -12.35 11.1 -10.35" fill="#342950" fill-rule="evenodd" stroke="none"/>
      <path d="M12.0 -78.95 Q10.0 -78.7 8.35 -77.55 5.9 -75.85 5.55 -72.85 M-7.25 -12.8 Q-7.4 -17.25 -4.15 -19.55 L-5.5 -20.15 Q-6.4 -20.8 -7.45 -22.3 -8.35 -23.6 -8.5 -25.75 -8.65 -27.2 -8.45 -28.0 -12.7 -28.3 -14.65 -31.7 -15.9 -33.95 -15.5 -36.65 -15.2 -38.7 -14.25 -39.95 -16.75 -42.0 -16.45 -45.75 -16.15 -49.5 -13.5 -51.35 -17.1 -52.95 -17.35 -57.05 -17.65 -60.9 -14.95 -64.05 -16.9 -64.15 -18.8 -65.4 -21.7 -67.4 -21.4 -71.15 -21.1 -74.75 -17.35 -76.95 -14.65 -78.5 -12.4 -78.55 -11.9 -80.6 -10.45 -81.7 -6.15 -84.95 -1.9 -83.45 1.0 -82.35 1.6 -81.0 5.05 -83.4 8.85 -81.45 10.75 -80.5 12.0 -78.95 L14.15 -78.55 16.05 -77.7 Q18.15 -76.3 18.9 -73.7 19.9 -70.05 18.7 -67.25 17.9 -65.35 16.8 -64.75 17.8 -63.45 17.6 -60.8 17.35 -58.5 16.85 -58.0 17.85 -56.75 18.25 -54.45 18.7 -51.75 17.75 -49.7 19.25 -48.8 20.4 -46.4 21.45 -44.2 21.45 -42.65 21.45 -38.15 16.6 -36.4 18.35 -35.35 19.3 -33.15 20.0 -31.45 19.95 -29.9 19.8 -26.75 17.85 -24.7 16.5 -23.3 14.9 -22.8 L14.95 -22.75 Q16.6 -20.75 16.7 -17.5 16.75 -14.25 14.5 -12.2 12.9 -10.7 11.1 -10.35 12.1 -8.55 11.25 -5.05 10.15 -0.45 5.4 -0.05 1.85 0.25 -0.25 -2.6 -1.9 -5.0 -1.75 -6.9 L-1.75 -6.95 Q-7.1 -8.2 -7.25 -12.8 M-0.75 -10.15 Q1.35 -12.75 4.9 -13.55 M14.95 -66.85 L16.8 -64.75 M14.95 -66.85 Q13.4 -67.8 11.35 -68.25 7.2 -69.1 4.2 -66.3 M5.2 -68.85 Q5.15 -71.3 2.7 -73.05 0.8 -74.4 -0.7 -74.55 M2.35 -65.65 L0.4 -65.75 Q-1.65 -65.55 -3.65 -64.3 M7.05 -48.55 L6.4 -50.05 5.8 -51.15 M15.5 -59.0 L16.85 -58.0 M15.2 -50.4 L17.75 -49.7 M13.9 -37.35 L16.6 -36.4 M13.5 -24.0 L14.9 -22.8 M15.5 -59.0 Q13.95 -60.05 12.15 -60.45 6.95 -61.6 4.1 -55.35 M15.2 -50.4 L10.95 -50.15 Q7.2 -48.95 6.15 -44.45 M2.9 -64.25 Q1.3 -59.8 3.3 -57.1 M-0.75 -39.8 L0.8 -41.65 Q2.5 -43.15 4.55 -43.2 M12.8 -38.35 Q12.15 -40.65 10.1 -42.0 8.65 -42.9 7.2 -43.1 M5.25 -32.6 Q5.65 -34.7 8.05 -36.2 10.05 -37.4 11.9 -37.5 M5.6 -30.5 Q6.65 -28.25 5.95 -25.3 5.3 -22.7 3.9 -21.3 M9.15 -12.35 L11.1 -10.35 M6.95 -14.5 Q6.25 -19.0 3.2 -20.1 M13.5 -24.0 Q11.25 -25.45 7.7 -25.05 M-12.4 -78.55 Q-12.85 -77.05 -12.5 -75.1 -12.05 -72.05 -9.6 -70.8 M1.6 -81.0 L-0.1 -79.4 Q-1.5 -77.7 -1.9 -75.8 M-9.65 -66.95 Q-9.7 -70.65 -7.6 -72.65 -5.9 -74.2 -3.2 -74.45 M-7.95 -65.5 Q-6.65 -65.2 -5.65 -64.5 M-14.95 -64.05 Q-13.1 -65.65 -10.5 -65.75 M-5.5 -62.25 Q-6.6 -60.55 -6.9 -59.1 -7.4 -56.35 -5.45 -53.6 M-3.75 -53.25 Q-2.45 -53.85 -0.4 -53.95 2.45 -54.05 4.25 -52.7 M-13.5 -51.35 Q-11.6 -52.9 -9.0 -53.0 M-7.8 -44.2 Q-8.35 -46.2 -7.7 -48.4 -7.15 -50.15 -6.1 -51.35 M-14.25 -39.95 L-13.3 -40.9 -12.15 -41.9 M-8.45 -28.0 Q-8.1 -29.5 -6.7 -31.2 -4.95 -33.35 -2.75 -33.8 M-10.15 -42.4 Q-7.25 -43.95 -4.2 -41.7 -1.15 -39.45 -1.65 -36.0 M-4.15 -19.55 Q-2.6 -20.7 -0.5 -20.8 M-1.75 -6.95 Q-1.55 -8.95 -0.75 -10.15 M-0.7 -34.0 Q2.2 -33.9 4.1 -32.3" fill="none" stroke="#000000" stroke-linecap="round" stroke-linejoin="round" stroke-opacity="0.49803922" stroke-width="0.30000000000000004"/>
    </g>
    <radialGradient cx="0" cy="0" fx="57.6" fy="0" gradientTransform="matrix(0.0563, 0.0, 0.0, 0.0576, -13.05, -65.9)" gradientUnits="userSpaceOnUse" id="decoration113-gradient0" r="819.2" spreadMethod="pad">
      <stop offset="0.0" stop-color="#785dbd"/>
      <stop offset="1.0" stop-color="#342758"/>
    </radialGradient>
    <g id="decoration113-shape2" transform="matrix(1.0, 0.0, 0.0, 1.0, 12.1, 31.15)">
      <path d="M5.0 -28.75 Q4.85 -29.4 5.0 -30.05 L6.05 -29.95 5.75 -28.9 5.6 -27.95 5.3 -27.9 5.0 -28.75" fill="#9c6a51" fill-rule="evenodd" stroke="none"/>
      <path d="M8.9 -28.8 L9.7 -28.2 Q10.75 -27.0 10.25 -24.9 9.8 -22.85 8.35 -21.55 6.75 -20.15 4.95 -20.8 3.65 -20.3 2.45 -21.5 1.3 -22.6 0.95 -24.3 0.6 -26.15 1.45 -27.4 L1.75 -27.7 Q1.45 -25.35 6.85 -25.9 9.6 -26.6 8.9 -28.8" fill="#5d1d0c" fill-rule="evenodd" stroke="none"/>
      <path d="M5.75 -28.9 L8.9 -28.8 Q9.6 -26.6 6.85 -25.9 1.45 -25.35 1.75 -27.7 2.8 -28.8 5.0 -28.75 L5.3 -27.9 5.6 -27.95 5.75 -28.9 M5.3 -27.9 L4.15 -28.05 5.3 -27.9 M6.6 -28.4 Q6.1 -28.1 5.6 -27.95 6.1 -28.1 6.6 -28.4" fill="#7e2911" fill-rule="evenodd" stroke="none"/>
      <path d="M5.0 -28.75 Q4.85 -29.4 5.0 -30.05 L6.05 -29.95 5.75 -28.9 8.9 -28.8 9.7 -28.2 Q10.75 -27.0 10.25 -24.9 9.8 -22.85 8.35 -21.55 6.75 -20.15 4.95 -20.8 3.65 -20.3 2.45 -21.5 1.3 -22.6 0.95 -24.3 0.6 -26.15 1.45 -27.4 L1.75 -27.7 Q2.8 -28.8 5.0 -28.75 L5.3 -27.9 5.6 -27.95 5.75 -28.9 M5.6 -27.95 Q6.1 -28.1 6.6 -28.4 M4.15 -28.05 L5.3 -27.9" fill="none" stroke="#000000" stroke-linecap="round" stroke-linejoin="round" stroke-opacity="0.2901961" stroke-width="0.30000000000000004"/>
      <path d="M-2.7 -28.15 Q-0.2 -24.0 3.15 -24.5 4.8 -23.0 6.45 -24.55 L6.95 -23.55 Q7.3 -22.5 6.7 -21.7 6.0 -20.75 4.3 -20.45 3.1 -19.2 1.8 -19.1 0.65 -19.0 -0.35 -19.75 -1.35 -20.45 -1.75 -21.65 -2.25 -22.85 -1.9 -23.95 L-2.95 -27.45 -2.7 -28.15" fill="#646025" fill-rule="evenodd" stroke="none"/>
      <path d="M-1.75 -29.1 L0.2 -28.95 Q2.0 -27.75 3.15 -26.05 4.5 -26.05 5.6 -25.3 L6.45 -24.55 Q4.8 -23.0 3.15 -24.5 -0.2 -24.0 -2.7 -28.15 L-2.1 -28.9 -1.75 -29.1" fill="#8c8746" fill-rule="evenodd" stroke="none"/>
      <path d="M-1.75 -29.1 L-2.1 -28.9 Q-2.4 -29.85 -3.25 -30.7 L-2.5 -31.0 Q-1.8 -30.15 -1.75 -29.1" fill="#9c6a51" fill-rule="evenodd" stroke="none"/>
      <path d="M6.45 -24.55 L5.6 -25.3 Q4.5 -26.05 3.15 -26.05 2.0 -27.75 0.2 -28.95 L-1.75 -29.1 -2.1 -28.9 -2.7 -28.15 M6.45 -24.55 L6.95 -23.55 Q7.3 -22.5 6.7 -21.7 6.0 -20.75 4.3 -20.45 3.1 -19.2 1.8 -19.1 0.65 -19.0 -0.35 -19.75 -1.35 -20.45 -1.75 -21.65 -2.25 -22.85 -1.9 -23.95 L-2.95 -27.45 -2.7 -28.15 M-2.1 -28.9 Q-2.4 -29.85 -3.25 -30.7 L-2.5 -31.0 Q-1.8 -30.15 -1.75 -29.1" fill="none" stroke="#000000" stroke-linecap="round" stroke-linejoin="round" stroke-opacity="0.34901962" stroke-width="0.30000000000000004"/>
      <path d="M-7.6 -27.1 Q-7.05 -27.35 -7.25 -27.75 -7.8 -27.6 -7.6 -27.1 -9.6 -25.7 -8.75 -23.95 -9.6 -25.7 -7.6 -27.1 M-4.85 -28.85 Q-3.1 -26.35 -5.1 -23.7 -6.65 -21.7 -8.65 -21.3 L-9.4 -22.0 Q-10.65 -23.4 -10.45 -25.0 -10.3 -26.85 -8.35 -28.1 -6.8 -29.15 -4.85 -28.85" fill="#e08a47" fill-rule="evenodd" stroke="none"/>
      <path d="M-7.6 -27.1 Q-7.8 -27.6 -7.25 -27.75 -7.05 -27.35 -7.6 -27.1" fill="#a86735" fill-rule="evenodd" stroke="none"/>
      <path d="M-4.85 -28.85 Q-3.05 -28.6 -1.8 -27.35 -0.55 -26.05 -0.75 -24.5 -0.9 -22.7 -2.95 -21.15 -4.5 -19.95 -6.45 -20.3 -7.7 -20.5 -8.65 -21.3 -6.65 -21.7 -5.1 -23.7 -3.1 -26.35 -4.85 -28.85" fill="#b16a32" fill-rule="evenodd" stroke="none"/>
      <path d="M-7.6 -27.1 Q-7.8 -27.6 -7.25 -27.75 -7.05 -27.35 -7.6 -27.1 -9.6 -25.7 -8.75 -23.95 M-8.65 -21.3 Q-7.7 -20.5 -6.45 -20.3 -4.5 -19.95 -2.95 -21.15 -0.9 -22.7 -0.75 -24.5 -0.55 -26.05 -1.8 -27.35 -3.05 -28.6 -4.85 -28.85 M-8.65 -21.3 L-9.4 -22.0 Q-10.65 -23.4 -10.45 -25.0 -10.3 -26.85 -8.35 -28.1 -6.8 -29.15 -4.85 -28.85" fill="none" stroke="#000000" stroke-linecap="round" stroke-linejoin="round" stroke-opacity="0.36862746" stroke-width="0.30000000000000004"/>
      <path d="M-11.15 -20.15 Q-12.9 -21.9 -10.7 -23.8 -7.3 -25.65 -4.35 -22.45 -2.65 -24.5 0.2 -24.55 1.9 -24.5 3.8 -23.25 -1.1 -24.85 -3.4 -22.3 L-3.1 -19.95 -3.4 -20.55 -4.35 -22.45 Q-5.95 -23.45 -7.75 -23.65 -11.3 -24.1 -11.15 -20.15 M4.85 -22.45 Q7.75 -25.65 11.1 -23.8 L12.25 -22.5 Q9.35 -25.25 5.65 -22.45 L3.4 -19.45 4.85 -22.45" fill="#bfb5a8" fill-rule="evenodd" stroke="none"/>
      <path d="M12.4 -21.55 L12.35 -21.35 Q12.25 -20.75 11.6 -20.15 12.05 -19.65 11.6 -19.15 6.2 -16.75 2.6 -11.7 3.35 -10.9 2.6 -10.25 1.0 -8.6 1.25 -4.95 1.3 -3.5 1.7 -1.65 2.75 -1.05 4.3 -0.9 L7.5 0.2 -0.95 0.2 Q1.9 0.05 1.6 -0.9 L4.3 -0.9 1.6 -0.9 -1.1 -0.9 Q0.25 -1.4 0.25 -2.45 L0.5 -9.35 Q-0.55 -9.85 -1.2 -8.85 L-2.1 -10.25 -2.4 -10.6 Q1.0 -10.6 1.45 -11.7 L-0.95 -11.7 -1.05 -12.6 Q-1.45 -15.45 -2.4 -18.25 -1.45 -15.45 -1.05 -12.6 L-0.95 -11.7 -2.1 -11.7 Q-5.75 -16.75 -11.15 -19.15 -11.6 -19.65 -11.15 -20.15 L-7.85 -18.25 Q-5.2 -16.45 -3.55 -16.4 -2.3 -16.2 -3.4 -20.55 L-3.1 -19.95 -2.4 -18.25 Q-0.4 -15.35 0.8 -15.65 L4.85 -22.45 3.4 -19.45 Q3.4 -16.05 5.35 -16.95 10.85 -22.25 12.4 -21.55 M3.4 -19.45 Q2.2 -16.55 1.6 -13.2 L1.45 -11.7 1.6 -13.2 Q2.2 -16.55 3.4 -19.45 M11.6 -20.15 Q5.55 -17.3 2.6 -11.7 L1.45 -11.7 2.6 -11.7 Q5.55 -17.3 11.6 -20.15 M-2.1 -11.7 Q-4.2 -15.65 -7.85 -18.25 -4.2 -15.65 -2.1 -11.7 M-2.1 -10.25 L2.6 -10.25 -2.1 -10.25" fill="#64594c" fill-rule="evenodd" stroke="none"/>
      <path d="M12.25 -22.5 L12.4 -21.55 Q10.85 -22.25 5.35 -16.95 3.4 -16.05 3.4 -19.45 L5.65 -22.45 Q9.35 -25.25 12.25 -22.5" fill="url(#decoration113-gradient1)" fill-rule="evenodd" stroke="none"/>
      <path d="M3.8 -23.25 L4.85 -22.45 0.8 -15.65 Q-0.4 -15.35 -2.4 -18.25 L-3.1 -19.95 -3.4 -22.3 Q-1.1 -24.85 3.8 -23.25" fill="url(#decoration113-gradient2)" fill-rule="evenodd" stroke="none"/>
      <path d="M-3.8 -0.9 Q-2.3 -1.05 -1.25 -1.65 -0.85 -3.5 -0.75 -4.95 -0.6 -7.3 -1.2 -8.85 -0.55 -9.85 0.5 -9.35 L0.25 -2.45 Q0.25 -1.4 -1.1 -0.9 L-3.8 -0.9" fill="url(#decoration113-gradient3)" fill-rule="evenodd" stroke="none"/>
      <path d="M-3.4 -20.55 Q-2.3 -16.2 -3.55 -16.4 -5.2 -16.45 -7.85 -18.25 L-11.15 -20.15 Q-11.3 -24.1 -7.75 -23.65 -5.95 -23.45 -4.35 -22.45 L-3.4 -20.55" fill="url(#decoration113-gradient4)" fill-rule="evenodd" stroke="none"/>
      <path d="M-0.95 0.2 L-7.05 0.2 -3.8 -0.9 -1.1 -0.9 1.6 -0.9 Q1.9 0.05 -0.95 0.2" fill="url(#decoration113-gradient5)" fill-rule="evenodd" stroke="none"/>
      <path d="M-2.4 -10.6 Q-2.65 -11.15 -2.1 -11.7 L-0.95 -11.7 1.45 -11.7 Q1.0 -10.6 -2.4 -10.6" fill="url(#decoration113-gradient6)" fill-rule="evenodd" stroke="none"/>
      <path d="M12.25 -22.5 L12.4 -21.55 12.35 -21.35 Q12.25 -20.75 11.6 -20.15 12.05 -19.65 11.6 -19.15 6.2 -16.75 2.6 -11.7 3.35 -10.9 2.6 -10.25 1.0 -8.6 1.25 -4.95 1.3 -3.5 1.7 -1.65 2.75 -1.05 4.3 -0.9 L7.5 0.2 -0.95 0.2 -7.05 0.2 -3.8 -0.9 Q-2.3 -1.05 -1.25 -1.65 -0.85 -3.5 -0.75 -4.95 -0.6 -7.3 -1.2 -8.85 L-2.1 -10.25 -2.4 -10.6 Q-2.65 -11.15 -2.1 -11.7 -5.75 -16.75 -11.15 -19.15 -11.6 -19.65 -11.15 -20.15 -12.9 -21.9 -10.7 -23.8 -7.3 -25.65 -4.35 -22.45 -2.65 -24.5 0.2 -24.55 1.9 -24.5 3.8 -23.25 L4.85 -22.45 Q7.75 -25.65 11.1 -23.8 L12.25 -22.5 M-2.4 -18.25 Q-1.45 -15.45 -1.05 -12.6 L-0.95 -11.7 1.45 -11.7 1.6 -13.2 Q2.2 -16.55 3.4 -19.45 L4.85 -22.45 M1.6 -0.9 L4.3 -0.9 M-1.1 -0.9 L1.6 -0.9 M1.45 -11.7 L2.6 -11.7 Q5.55 -17.3 11.6 -20.15 M-2.4 -18.25 L-3.1 -19.95 -3.4 -20.55 -4.35 -22.45 M-7.85 -18.25 Q-4.2 -15.65 -2.1 -11.7 L-0.95 -11.7 M-11.15 -20.15 L-7.85 -18.25 M-3.8 -0.9 L-1.1 -0.9 M2.6 -10.25 L-2.1 -10.25" fill="none" stroke="#000000" stroke-linecap="round" stroke-linejoin="round" stroke-opacity="0.29803923" stroke-width="0.30000000000000004"/>
    </g>
    <linearGradient gradientTransform="matrix(0.0066, -0.0011, 0.0014, 0.0077, 7.4, -18.15)" gradientUnits="userSpaceOnUse" id="decoration113-gradient1" spreadMethod="pad" x1="-819.2" x2="819.2">
      <stop offset="0.0" stop-color="#c4b4a1"/>
      <stop offset="1.0" stop-color="#8c8073"/>
    </linearGradient>
    <linearGradient gradientTransform="matrix(-0.0014, -0.0051, 0.008, -0.002, 2.25, -20.1)" gradientUnits="userSpaceOnUse" id="decoration113-gradient2" spreadMethod="pad" x1="-819.2" x2="819.2">
      <stop offset="0.0" stop-color="#c4b4a1"/>
      <stop offset="1.0" stop-color="#8c8073"/>
    </linearGradient>
    <linearGradient gradientTransform="matrix(0.005, 0.0, 0.0, 0.0057, 0.2, -5.55)" gradientUnits="userSpaceOnUse" id="decoration113-gradient3" spreadMethod="pad" x1="-819.2" x2="819.2">
      <stop offset="0.0" stop-color="#c4b4a1"/>
      <stop offset="1.0" stop-color="#8c8073"/>
    </linearGradient>
    <linearGradient gradientTransform="matrix(0.0, -0.0063, 0.0083, 0.0, -3.95, -20.45)" gradientUnits="userSpaceOnUse" id="decoration113-gradient4" spreadMethod="pad" x1="-819.2" x2="819.2">
      <stop offset="0.0" stop-color="#c4b4a1"/>
      <stop offset="1.0" stop-color="#8c8073"/>
    </linearGradient>
    <linearGradient gradientTransform="matrix(0.0089, 0.0, 0.0, 7.0E-4, 0.2, -0.35)" gradientUnits="userSpaceOnUse" id="decoration113-gradient5" spreadMethod="pad" x1="-819.2" x2="819.2">
      <stop offset="0.0" stop-color="#c4b4a1"/>
      <stop offset="1.0" stop-color="#8c8073"/>
    </linearGradient>
    <linearGradient gradientTransform="matrix(0.0034, 0.0, 0.0, 9.0E-4, 0.2, -10.95)" gradientUnits="userSpaceOnUse" id="decoration113-gradient6" spreadMethod="pad" x1="-819.2" x2="819.2">
      <stop offset="0.0" stop-color="#c4b4a1"/>
      <stop offset="1.0" stop-color="#8c8073"/>
    </linearGradient>
  </defs>
</svg>
