<?xml version="1.0" encoding="UTF-8" standalone="no"?>
<svg xmlns:ffdec="https://www.free-decompiler.com/flash" xmlns:xlink="http://www.w3.org/1999/xlink" ffdec:objectType="frame" height="135.6px" width="85.7px" xmlns="http://www.w3.org/2000/svg">
  <g transform="matrix(1.0, 0.0, 0.0, 1.0, 42.65, 69.55)">
    <use ffdec:characterId="435" height="135.6" transform="matrix(1.0, 0.0, 0.0, 1.0, -42.65, -69.55)" width="85.7" xlink:href="#decoration114-shape0"/>
  </g>
  <defs>
    <g id="decoration114-shape0" transform="matrix(1.0, 0.0, 0.0, 1.0, 42.65, 69.55)">
      <path d="M5.8 -54.05 Q1.8 -57.4 6.6 -62.15 L3.9 -63.6 Q1.05 -65.6 0.2 -68.4 -1.35 -64.1 -6.2 -62.1 -1.15 -57.15 -5.85 -53.7 -1.4 -57.15 -7.35 -62.35 -1.6 -64.4 0.2 -69.4 2.0 -64.4 7.75 -62.35 3.0 -58.2 4.85 -55.2 L5.8 -54.05 M-9.9 -53.35 Q-14.4 -54.95 -9.95 -59.3 -13.05 -59.7 -14.6 -61.15 -19.65 -53.85 -22.45 -59.5 -22.75 -54.95 -17.55 -55.05 -23.75 -54.45 -22.6 -60.5 -19.8 -54.05 -14.6 -62.05 -12.95 -59.75 -8.9 -59.65 -14.4 -55.1 -9.9 -53.35 M17.95 -55.05 Q23.25 -54.95 22.95 -59.5 20.15 -53.85 15.05 -61.15 13.55 -59.7 10.4 -59.3 14.85 -54.95 10.4 -53.4 14.75 -55.1 9.3 -59.65 13.35 -59.75 15.0 -62.05 20.2 -54.05 23.0 -60.5 24.15 -54.55 17.95 -55.05" fill="#514539" fill-rule="evenodd" stroke="none"/>
      <path d="M1.9 -62.9 L1.05 -63.35 0.2 -63.5 Q-0.8 -63.5 -1.5 -62.9 -2.2 -62.3 -2.2 -61.4 L-1.9 -60.4 -1.75 -60.25 -1.5 -60.0 Q-0.8 -59.4 0.2 -59.4 1.2 -59.4 1.9 -60.0 2.6 -60.6 2.6 -61.4 2.6 -62.3 1.9 -62.9 M-5.85 -53.7 Q-1.15 -57.15 -6.2 -62.1 -1.35 -64.1 0.2 -68.4 1.05 -65.6 3.9 -63.6 L6.6 -62.15 Q1.8 -57.4 5.8 -54.05 L6.25 -53.7 7.55 -52.85 10.4 -53.4 Q14.85 -54.95 10.4 -59.3 13.55 -59.7 15.05 -61.15 20.15 -53.85 22.95 -59.5 23.25 -54.95 17.95 -55.05 14.9 -53.85 17.1 -51.45 20.6 -50.45 18.9 -53.75 23.3 -51.25 17.85 -47.25 20.5 -46.05 23.55 -45.5 29.75 -43.85 27.8 -39.9 29.25 -36.9 33.95 -37.75 35.6 -39.45 32.2 -40.25 L35.35 -40.2 Q37.8 -38.85 37.3 -37.0 34.9 -32.5 25.4 -36.25 24.3 -41.9 18.6 -43.1 L8.15 -45.55 -7.6 -45.55 -18.05 -43.1 Q-23.75 -41.9 -24.8 -36.25 -34.35 -32.5 -36.7 -37.0 -37.25 -38.85 -34.8 -40.25 -33.55 -40.6 -31.8 -40.25 -35.2 -39.45 -33.55 -37.75 -28.85 -36.9 -27.4 -39.9 -29.35 -43.85 -23.15 -45.5 -20.1 -46.05 -17.5 -47.25 -22.9 -51.25 -18.5 -53.75 -20.2 -50.45 -16.7 -51.45 -14.5 -53.85 -17.55 -55.05 -22.75 -54.95 -22.45 -59.5 -19.65 -53.85 -14.6 -61.15 -13.05 -59.7 -9.95 -59.3 -14.4 -54.95 -9.9 -53.35 L-7.35 -52.75 -5.85 -53.7" fill="url(#decoration114-gradient0)" fill-rule="evenodd" stroke="none"/>
      <path d="M-34.8 -40.25 Q-37.25 -38.85 -36.7 -37.0 -34.35 -32.5 -24.8 -36.25 -23.75 -41.9 -18.05 -43.1 L-7.6 -45.55 8.15 -45.55 18.6 -43.1 Q24.3 -41.9 25.4 -36.25 34.9 -32.5 37.3 -37.0 37.8 -38.85 35.35 -40.2 37.35 -39.55 38.2 -37.1 37.85 -34.1 34.45 -33.65 L31.95 -33.7 29.3 -33.9 Q26.65 -34.4 24.7 -35.6 23.2 -42.05 18.0 -42.35 12.2 -43.95 7.4 -44.65 L-7.0 -44.65 -12.85 -43.45 -17.6 -42.35 Q-22.8 -42.05 -24.3 -35.6 -26.25 -34.4 -28.9 -33.9 L-31.55 -33.7 -34.05 -33.65 Q-37.45 -34.1 -37.8 -37.1 -36.95 -39.65 -34.8 -40.25" fill="#3c3228" fill-rule="evenodd" stroke="none"/>
      <path d="M29.3 -33.9 Q29.4 -31.95 29.75 -31.05 30.7 -28.65 33.65 -28.6 L33.5 -26.45 Q1.75 -6.4 -31.85 10.05 -31.85 -1.75 -32.55 -16.35 L-33.25 -28.6 Q-30.15 -28.6 -29.25 -30.7 -29.0 -31.35 -28.85 -33.9 L-28.9 -33.9 Q-26.25 -34.4 -24.3 -35.6 -22.8 -42.05 -17.6 -42.35 L-12.85 -43.45 -7.0 -44.65 7.4 -44.65 Q12.2 -43.95 18.0 -42.35 23.2 -42.05 24.7 -35.6 26.65 -34.4 29.3 -33.9 M32.95 -16.4 Q32.2 1.15 32.55 19.1 32.8 34.4 33.65 43.65 L33.7 43.65 Q31.3 47.45 26.9 48.7 15.75 47.95 7.15 53.15 4.4 56.4 0.2 56.9 -4.0 56.4 -6.75 53.15 -15.35 47.95 -26.5 48.7 -30.9 47.45 -33.3 43.65 -32.35 34.0 -32.0 21.25 1.65 3.05 32.95 -16.4" fill="url(#decoration114-gradient1)" fill-rule="evenodd" stroke="none"/>
      <path d="M33.5 -26.45 L33.65 -28.6 Q30.7 -28.65 29.75 -31.05 29.4 -31.95 29.3 -33.9 L31.95 -33.7 34.45 -33.65 Q34.3 -32.65 34.6 -31.7 36.8 -30.8 39.95 -32.4 40.1 -30.5 42.6 -29.1 40.45 -28.0 39.05 -25.95 37.85 -15.1 38.55 11.8 39.2 36.8 40.35 43.65 L42.9 46.25 41.8 46.05 Q37.6 45.25 33.7 43.65 L33.65 43.65 Q32.8 34.4 32.55 19.1 32.2 1.15 32.95 -16.4 L33.5 -26.45 M-28.9 -33.9 L-28.85 -33.9 Q-29.0 -31.35 -29.25 -30.7 -30.15 -28.6 -33.25 -28.6 L-32.55 -16.35 Q-31.85 -1.75 -31.85 10.05 -31.85 15.9 -32.0 21.25 -32.35 34.0 -33.3 43.65 -37.1 45.25 -41.4 46.05 L-42.5 46.25 -39.95 43.65 Q-38.8 36.8 -38.15 11.75 -37.45 -15.15 -38.65 -25.95 -40.05 -28.0 -42.2 -29.1 -39.7 -30.5 -39.55 -32.4 -36.4 -30.8 -34.2 -31.7 -33.9 -32.65 -34.05 -33.65 L-31.55 -33.7 -28.9 -33.9" fill="url(#decoration114-gradient2)" fill-rule="evenodd" stroke="none"/>
      <path d="M33.5 -26.45 L32.95 -16.4 Q1.65 3.05 -32.0 21.25 -31.85 15.9 -31.85 10.05 1.75 -6.4 33.5 -26.45" fill="#f5e7dc" fill-rule="evenodd" stroke="none"/>
      <path d="M41.8 46.05 L42.9 46.25 Q34.45 46.85 32.2 56.65 26.15 53.05 19.6 54.95 12.25 57.95 12.75 61.85 L11.7 59.8 12.75 61.85 Q9.9 58.15 6.4 62.4 4.15 65.15 0.2 65.9 -3.75 65.15 -6.0 62.4 -9.5 58.15 -12.35 61.85 -11.85 57.95 -19.2 54.95 -25.75 53.05 -31.8 56.65 -34.05 46.85 -42.5 46.25 L-41.4 46.05 Q-32.9 44.85 -30.6 54.5 L-31.8 56.65 -30.6 54.5 Q-24.65 51.05 -18.15 52.9 -10.85 55.85 -11.2 59.55 L-12.35 61.85 -11.2 59.55 Q-9.25 56.4 -6.0 60.3 -3.75 63.1 0.2 63.8 4.15 63.1 6.4 60.3 9.6 56.4 11.65 59.75 L11.7 59.8 Q11.3 55.8 18.55 52.9 25.05 51.05 31.0 54.5 33.3 44.85 41.8 46.05 M31.0 54.5 L32.2 56.65 31.0 54.5" fill="#4a4137" fill-rule="evenodd" stroke="none"/>
      <path d="M33.7 43.65 Q37.6 45.25 41.8 46.05 33.3 44.85 31.0 54.5 25.05 51.05 18.55 52.9 11.3 55.8 11.7 59.8 L11.65 59.75 Q9.6 56.4 6.4 60.3 4.15 63.1 0.2 63.8 -3.75 63.1 -6.0 60.3 -9.25 56.4 -11.2 59.55 -10.85 55.85 -18.15 52.9 -24.65 51.05 -30.6 54.5 -32.9 44.85 -41.4 46.05 -37.1 45.25 -33.3 43.65 -30.9 47.45 -26.5 48.7 -15.35 47.95 -6.75 53.15 -4.0 56.4 0.2 56.9 4.4 56.4 7.15 53.15 15.75 47.95 26.9 48.7 31.3 47.45 33.7 43.65 M7.15 53.15 Q9.7 56.1 11.7 59.8 9.7 56.1 7.15 53.15 M26.9 48.7 Q29.2 51.5 31.0 54.5 29.2 51.5 26.9 48.7 M-26.5 48.7 Q-28.85 51.5 -30.6 54.5 -28.85 51.5 -26.5 48.7 M-6.75 53.15 Q-9.3 56.05 -11.2 59.55 -9.3 56.05 -6.75 53.15" fill="url(#decoration114-gradient3)" fill-rule="evenodd" stroke="none"/>
      <path d="M1.9 -62.9 Q2.6 -62.3 2.6 -61.4 2.6 -60.6 1.9 -60.0 1.2 -59.4 0.2 -59.4 -0.8 -59.4 -1.5 -60.0 L-1.75 -60.25 -1.9 -60.4 -2.2 -61.4 Q-2.2 -62.3 -1.5 -62.9 -0.8 -63.5 0.2 -63.5 L1.05 -63.35 1.9 -62.9 M5.8 -54.05 L4.85 -55.2 Q3.0 -58.2 7.75 -62.35 2.0 -64.4 0.2 -69.4 -1.6 -64.4 -7.35 -62.35 -1.4 -57.15 -5.85 -53.7 L-7.35 -52.75 -9.9 -53.35 Q-14.4 -55.1 -8.9 -59.65 -12.95 -59.75 -14.6 -62.05 -19.8 -54.05 -22.6 -60.5 -23.75 -54.45 -17.55 -55.05 -14.5 -53.85 -16.7 -51.45 -20.2 -50.45 -18.5 -53.75 -22.9 -51.25 -17.5 -47.25 -20.1 -46.05 -23.15 -45.5 -29.35 -43.85 -27.4 -39.9 -28.85 -36.9 -33.55 -37.75 -35.2 -39.45 -31.8 -40.25 -33.55 -40.6 -34.8 -40.25 -36.95 -39.65 -37.8 -37.1 -37.45 -34.1 -34.05 -33.65 L-31.55 -33.7 -28.9 -33.9 Q-26.25 -34.4 -24.3 -35.6 -22.8 -42.05 -17.6 -42.35 L-12.85 -43.45 -7.0 -44.65 7.4 -44.65 Q12.2 -43.95 18.0 -42.35 23.2 -42.05 24.7 -35.6 26.65 -34.4 29.3 -33.9 29.4 -31.95 29.75 -31.05 30.7 -28.65 33.65 -28.6 L33.5 -26.45 32.95 -16.4 Q32.2 1.15 32.55 19.1 32.8 34.4 33.65 43.65 L33.7 43.65 Q37.6 45.25 41.8 46.05 L42.9 46.25 40.35 43.65 Q39.2 36.8 38.55 11.8 37.85 -15.1 39.05 -25.95 40.45 -28.0 42.6 -29.1 40.1 -30.5 39.95 -32.4 36.8 -30.8 34.6 -31.7 34.3 -32.65 34.45 -33.65 L31.95 -33.7 29.3 -33.9 M35.35 -40.2 L32.2 -40.25 Q35.6 -39.45 33.95 -37.75 29.25 -36.9 27.8 -39.9 29.75 -43.85 23.55 -45.5 20.5 -46.05 17.85 -47.25 23.3 -51.25 18.9 -53.75 20.6 -50.45 17.1 -51.45 14.9 -53.85 17.95 -55.05 24.15 -54.55 23.0 -60.5 20.2 -54.05 15.0 -62.05 13.35 -59.75 9.3 -59.65 14.75 -55.1 10.4 -53.4 L7.55 -52.85 6.25 -53.7 5.8 -54.05 M-28.85 -33.9 Q-29.0 -31.35 -29.25 -30.7 -30.15 -28.6 -33.25 -28.6 L-32.55 -16.35 Q-31.85 -1.75 -31.85 10.05 -31.85 15.9 -32.0 21.25 -32.35 34.0 -33.3 43.65 -37.1 45.25 -41.4 46.05 L-42.5 46.25 Q-34.05 46.85 -31.8 56.65 L-30.6 54.5 Q-28.85 51.5 -26.5 48.7 -15.35 47.95 -6.75 53.15 -4.0 56.4 0.2 56.9 4.4 56.4 7.15 53.15 15.75 47.95 26.9 48.7 31.3 47.45 33.7 43.65 M34.45 -33.65 Q37.85 -34.1 38.2 -37.1 37.35 -39.55 35.35 -40.2 M-33.3 43.65 Q-30.9 47.45 -26.5 48.7 M32.2 56.65 L31.0 54.5 Q29.2 51.5 26.9 48.7 M11.7 59.8 L12.75 61.85 Q12.25 57.95 19.6 54.95 26.15 53.05 32.2 56.65 34.45 46.85 42.9 46.25 M11.7 59.8 Q9.7 56.1 7.15 53.15 M-12.35 61.85 Q-9.5 58.15 -6.0 62.4 -3.75 65.15 0.2 65.9 4.15 65.15 6.4 62.4 9.9 58.15 12.75 61.85 M-42.5 46.25 L-39.95 43.65 Q-38.8 36.8 -38.15 11.75 -37.45 -15.15 -38.65 -25.95 -40.05 -28.0 -42.2 -29.1 -39.7 -30.5 -39.55 -32.4 -36.4 -30.8 -34.2 -31.7 -33.9 -32.65 -34.05 -33.65 M-11.2 59.55 Q-9.3 56.05 -6.75 53.15 M-31.8 56.65 Q-25.75 53.05 -19.2 54.95 -11.85 57.95 -12.35 61.85 L-11.2 59.55" fill="none" stroke="#000000" stroke-linecap="round" stroke-linejoin="round" stroke-opacity="0.3019608" stroke-width="0.30000000000000004"/>
      <path d="M-13.05 -49.5 L-13.1 -49.5 Q-13.85 -50.0 -13.6 -50.55 L-13.35 -50.95 Q-14.05 -51.15 -13.65 -51.7 L-12.85 -51.45 -12.05 -51.45 -11.05 -51.55 -12.25 -51.05 -12.4 -51.0 -13.05 -50.55 Q-13.4 -50.05 -12.0 -49.8 -12.2 -50.35 -11.85 -50.5 L-11.4 -50.55 -11.1 -50.25 Q-10.9 -50.0 -11.1 -49.7 L-13.05 -49.5 M-10.05 -50.7 L-9.6 -51.45 -7.7 -51.8 -7.2 -51.55 Q-7.2 -51.25 -7.35 -51.05 -7.55 -50.6 -7.9 -50.9 L-7.8 -51.2 Q-7.8 -51.55 -8.4 -51.55 L-9.3 -51.3 -9.45 -50.65 -9.3 -50.2 -9.25 -50.05 -8.85 -49.8 Q-8.3 -49.45 -7.25 -49.4 -7.9 -49.85 -7.1 -50.05 -6.6 -49.8 -5.45 -49.7 L-4.25 -50.1 Q-5.1 -49.35 -7.0 -49.3 L-8.4 -49.3 Q-9.4 -49.45 -9.8 -50.05 L-10.05 -50.7" fill="#5c5145" fill-rule="evenodd" stroke="none"/>
      <path d="M-11.05 -51.55 L-10.05 -50.7 -9.8 -50.05 Q-9.4 -49.45 -8.4 -49.3 L-7.0 -49.3 Q-5.1 -49.35 -4.25 -50.1 L-3.15 -50.75 -3.2 -49.85 Q-5.6 -48.85 -7.9 -49.05 -9.55 -49.2 -10.0 -49.85 L-10.1 -50.15 -10.15 -50.4 Q-10.7 -51.15 -11.55 -51.15 L-12.25 -51.05 -11.05 -51.55 M-7.2 -51.55 L-6.8 -51.2 Q-6.6 -50.55 -7.25 -50.3 -8.0 -50.05 -8.35 -50.6 -8.5 -50.85 -8.05 -51.0 -8.6 -51.35 -9.25 -50.8 L-9.25 -50.05 -9.3 -50.2 -9.45 -50.65 -9.3 -51.3 -8.4 -51.55 Q-7.8 -51.55 -7.8 -51.2 L-7.9 -50.9 Q-7.55 -50.6 -7.35 -51.05 -7.2 -51.25 -7.2 -51.55 M-11.4 -50.55 L-11.0 -50.45 Q-10.55 -50.3 -10.5 -49.9 -10.45 -49.3 -11.75 -49.3 L-13.05 -49.5 -11.1 -49.7 Q-10.9 -50.0 -11.1 -50.25 L-11.4 -50.55" fill="#3b2d20" fill-rule="evenodd" stroke="none"/>
      <path d="M-13.05 -49.5 L-13.1 -49.5 Q-13.85 -50.0 -13.6 -50.55 L-13.35 -50.95 Q-14.05 -51.15 -13.65 -51.7 L-12.85 -51.45 -12.05 -51.45 -11.05 -51.55 -10.05 -50.7 -9.6 -51.45 -7.7 -51.8 -7.2 -51.55 -6.8 -51.2 Q-6.6 -50.55 -7.25 -50.3 -8.0 -50.05 -8.35 -50.6 -8.5 -50.85 -8.05 -51.0 -8.6 -51.35 -9.25 -50.8 L-9.25 -50.05 -8.85 -49.8 Q-8.3 -49.45 -7.25 -49.4 -7.9 -49.85 -7.1 -50.05 -6.6 -49.8 -5.45 -49.7 L-4.25 -50.1 -3.15 -50.75 -3.2 -49.85 Q-5.6 -48.85 -7.9 -49.05 -9.55 -49.2 -10.0 -49.85 L-10.1 -50.15 -10.15 -50.4 Q-10.7 -51.15 -11.55 -51.15 L-12.25 -51.05 -12.4 -51.0 -13.05 -50.55 Q-13.4 -50.05 -12.0 -49.8 -12.2 -50.35 -11.85 -50.5 L-11.4 -50.55 -11.0 -50.45 Q-10.55 -50.3 -10.5 -49.9 -10.45 -49.3 -11.75 -49.3 L-13.05 -49.5 Z" fill="none" stroke="#000000" stroke-linecap="round" stroke-linejoin="round" stroke-opacity="0.3019608" stroke-width="0.30000000000000004"/>
      <path d="M-15.45 -59.3 Q-15.65 -58.6 -15.3 -58.3 -14.8 -58.75 -14.6 -59.9 L-14.35 -58.95 Q-14.1 -58.45 -13.75 -58.55 -13.2 -58.65 -13.85 -59.8 L-13.45 -59.2 -13.25 -58.7 Q-13.2 -57.85 -13.7 -57.45 L-14.0 -57.3 -14.6 -57.5 -15.05 -57.4 Q-15.4 -56.7 -14.65 -56.4 -13.8 -56.4 -14.0 -57.3 L-13.7 -56.75 -13.7 -56.65 Q-13.1 -56.2 -12.55 -56.9 -12.75 -55.5 -13.95 -56.2 -14.25 -55.9 -14.55 -55.9 L-14.5 -54.85 -14.55 -55.9 Q-14.25 -55.9 -13.95 -56.2 L-13.65 -55.4 Q-14.1 -56.1 -14.5 -54.85 L-14.45 -54.55 Q-15.1 -55.9 -15.85 -55.25 L-15.65 -55.75 -15.2 -56.25 -16.4 -56.35 Q-16.7 -56.65 -16.65 -57.35 -16.55 -56.5 -15.45 -56.7 L-15.5 -56.75 -15.05 -57.4 -15.6 -57.85 Q-16.15 -58.3 -15.95 -58.65 L-15.45 -59.3 M-13.7 -56.65 L-13.95 -56.2 -13.7 -56.65 M-15.45 -56.7 L-15.2 -56.25 -15.45 -56.7 M-14.35 -58.95 L-14.6 -57.5 -14.35 -58.95 M-15.2 -56.25 Q-14.85 -55.9 -14.55 -55.9 -14.85 -55.9 -15.2 -56.25" fill="#3b2d20" fill-rule="evenodd" stroke="none"/>
      <path d="M-15.45 -59.3 L-14.6 -60.5 -13.85 -59.8 Q-13.2 -58.65 -13.75 -58.55 -14.1 -58.45 -14.35 -58.95 L-14.6 -59.9 Q-14.8 -58.75 -15.3 -58.3 -15.65 -58.6 -15.45 -59.3 M-13.05 -57.5 L-12.55 -56.9 Q-13.1 -56.2 -13.7 -56.65 L-13.7 -56.75 -14.0 -57.3 Q-13.8 -56.4 -14.65 -56.4 -15.4 -56.7 -15.05 -57.4 L-14.6 -57.5 -14.0 -57.3 -13.7 -57.45 -13.05 -57.5 M-14.6 -53.5 Q-15.95 -54.3 -15.9 -54.95 L-15.85 -55.25 Q-15.1 -55.9 -14.45 -54.55 L-14.5 -54.85 Q-14.1 -56.1 -13.65 -55.4 L-13.55 -55.05 Q-13.75 -53.9 -14.6 -53.5 M-16.65 -57.35 L-15.05 -57.4 -15.5 -56.75 -15.45 -56.7 Q-16.55 -56.5 -16.65 -57.35 M-14.45 -54.2 L-14.45 -54.55 -14.45 -54.2" fill="#5c5145" fill-rule="evenodd" stroke="none"/>
      <path d="M-13.45 -59.2 Q-12.65 -58.45 -13.05 -57.5 L-13.7 -57.45 Q-13.2 -57.85 -13.25 -58.7 L-13.45 -59.2 M-12.55 -56.9 Q-12.4 -56.45 -12.55 -56.1 -12.9 -55.35 -13.45 -55.65 -13.15 -54.6 -13.5 -54.15 -13.7 -53.65 -14.6 -53.5 -13.75 -53.9 -13.55 -55.05 L-13.65 -55.4 -13.95 -56.2 Q-12.75 -55.5 -12.55 -56.9 M-15.65 -55.75 Q-16.3 -55.9 -16.4 -56.35 L-15.2 -56.25 -15.65 -55.75" fill="#000000" fill-opacity="0.36078432" fill-rule="evenodd" stroke="none"/>
      <path d="M-13.85 -59.8 L-14.6 -60.5 -15.45 -59.3 -15.95 -58.65 Q-16.15 -58.3 -15.6 -57.85 L-15.05 -57.4 -16.65 -57.35 Q-16.7 -56.65 -16.4 -56.35 L-15.2 -56.25 -15.45 -56.7 -15.5 -56.75 -15.05 -57.4 -14.6 -57.5 -14.35 -58.95 M-13.85 -59.8 L-13.45 -59.2 -13.25 -58.7 Q-13.2 -57.85 -13.7 -57.45 L-13.05 -57.5 -12.55 -56.9 Q-12.75 -55.5 -13.95 -56.2 -14.25 -55.9 -14.55 -55.9 L-14.5 -54.85 -14.45 -54.55 -14.45 -54.2 M-14.6 -53.5 Q-15.95 -54.3 -15.9 -54.95 L-15.85 -55.25 -15.65 -55.75 -15.2 -56.25 Q-14.85 -55.9 -14.55 -55.9 M-14.0 -57.3 L-14.6 -57.5 M-14.0 -57.3 L-13.7 -57.45 M-13.65 -55.4 L-13.95 -56.2 -13.7 -56.65 -13.7 -56.75 -14.0 -57.3 M-13.65 -55.4 L-13.55 -55.05 Q-13.75 -53.9 -14.6 -53.5" fill="none" stroke="#000000" stroke-linecap="round" stroke-linejoin="round" stroke-opacity="0.3019608" stroke-width="0.30000000000000004"/>
      <path d="M12.65 -51.05 L11.95 -51.15 Q11.1 -51.15 10.55 -50.4 L10.5 -50.15 10.4 -49.85 Q9.95 -49.2 8.3 -49.05 6.0 -48.85 3.6 -49.85 L3.55 -50.75 4.65 -50.1 Q5.5 -49.35 7.4 -49.3 L8.8 -49.3 Q9.8 -49.45 10.2 -50.05 L10.45 -50.7 Q10.85 -51.35 11.45 -51.55 12.3 -51.35 12.65 -51.05 M9.65 -50.05 L9.65 -50.8 Q9.0 -51.35 8.45 -51.0 8.9 -50.85 8.75 -50.6 8.4 -50.05 7.65 -50.3 7.0 -50.55 7.2 -51.2 L7.6 -51.55 Q7.6 -51.25 7.75 -51.05 7.95 -50.6 8.3 -50.9 L8.2 -51.2 Q8.2 -51.55 8.8 -51.55 L9.7 -51.3 9.85 -50.65 9.7 -50.2 9.65 -50.05 M11.8 -50.55 L11.5 -50.25 Q11.3 -50.0 11.5 -49.7 L13.45 -49.5 12.15 -49.3 Q10.85 -49.3 10.9 -49.9 L11.4 -50.45 11.8 -50.55" fill="#3b2d20" fill-rule="evenodd" stroke="none"/>
      <path d="M12.65 -51.05 Q12.3 -51.35 11.45 -51.55 L12.45 -51.45 13.25 -51.45 14.05 -51.7 Q14.45 -51.15 13.75 -50.95 L14.0 -50.55 Q14.25 -50.0 13.5 -49.5 L13.45 -49.5 11.5 -49.7 Q11.3 -50.0 11.5 -50.25 L11.8 -50.55 12.25 -50.5 Q12.6 -50.35 12.4 -49.8 13.8 -50.05 13.45 -50.55 L12.8 -51.0 12.65 -51.05 M10.45 -50.7 L10.2 -50.05 Q9.8 -49.45 8.8 -49.3 L7.4 -49.3 Q5.5 -49.35 4.65 -50.1 L5.85 -49.7 7.5 -50.05 Q8.3 -49.85 7.65 -49.4 8.7 -49.45 9.25 -49.8 L9.65 -50.05 9.7 -50.2 9.85 -50.65 9.7 -51.3 8.8 -51.55 Q8.2 -51.55 8.2 -51.2 L8.3 -50.9 Q7.95 -50.6 7.75 -51.05 7.6 -51.25 7.6 -51.55 L8.1 -51.8 10.0 -51.45 10.45 -50.7" fill="#5c5145" fill-rule="evenodd" stroke="none"/>
      <path d="M4.65 -50.1 L3.55 -50.75 3.6 -49.85 Q6.0 -48.85 8.3 -49.05 9.95 -49.2 10.4 -49.85 L10.5 -50.15 10.55 -50.4 Q11.1 -51.15 11.95 -51.15 L12.65 -51.05 12.8 -51.0 13.45 -50.55 Q13.8 -50.05 12.4 -49.8 12.6 -50.35 12.25 -50.5 L11.8 -50.55 11.4 -50.45 10.9 -49.9 Q10.85 -49.3 12.15 -49.3 L13.45 -49.5 13.5 -49.5 Q14.25 -50.0 14.0 -50.55 L13.75 -50.95 Q14.45 -51.15 14.05 -51.7 L13.25 -51.45 12.45 -51.45 11.45 -51.55 Q10.85 -51.35 10.45 -50.7 L10.0 -51.45 8.1 -51.8 7.6 -51.55 7.2 -51.2 Q7.0 -50.55 7.65 -50.3 8.4 -50.05 8.75 -50.6 8.9 -50.85 8.45 -51.0 9.0 -51.35 9.65 -50.8 L9.65 -50.05 9.25 -49.8 Q8.7 -49.45 7.65 -49.4 8.3 -49.85 7.5 -50.05 L5.85 -49.7 4.65 -50.1 Z" fill="none" stroke="#000000" stroke-linecap="round" stroke-linejoin="round" stroke-opacity="0.3019608" stroke-width="0.30000000000000004"/>
      <path d="M3.5 -54.25 L3.7 -54.15 3.7 -54.1 Q4.7 -52.0 3.65 -49.95 2.55 -47.8 0.25 -47.9 L-1.35 -48.15 Q-3.0 -48.75 -3.45 -50.6 -3.75 -52.05 -3.65 -53.1 L-3.3 -54.15 -3.1 -54.25 Q-3.35 -53.65 -2.95 -51.95 L-2.3 -50.1 -1.2 -49.0 Q-0.75 -48.7 0.25 -48.55 1.7 -48.75 2.7 -50.1 3.65 -51.55 3.5 -54.25 M-1.35 -52.1 Q-1.35 -51.4 -1.0 -50.75 -0.55 -49.95 0.1 -50.0 0.9 -50.0 1.35 -50.6 1.75 -51.15 1.75 -52.1 L1.85 -51.45 Q1.9 -50.05 1.0 -49.5 L0.15 -49.25 Q-1.5 -49.45 -1.45 -51.45 L-1.35 -52.1" fill="#3b2d20" fill-rule="evenodd" stroke="none"/>
      <path d="M-3.1 -54.25 Q-2.75 -54.3 -2.35 -53.6 -2.15 -53.25 -1.8 -53.35 L-1.25 -53.8 Q-0.9 -55.65 0.2 -57.05 L1.15 -55.35 1.65 -53.8 Q1.95 -53.4 2.2 -53.35 2.55 -53.25 2.75 -53.6 3.15 -54.3 3.5 -54.25 3.65 -51.55 2.7 -50.1 1.7 -48.75 0.25 -48.55 -0.75 -48.7 -1.2 -49.0 L-2.3 -50.1 -2.95 -51.95 Q-3.35 -53.65 -3.1 -54.25 M-1.35 -52.1 Q-1.35 -52.55 -0.95 -53.0 -0.45 -53.55 0.2 -53.65 L0.95 -53.35 Q1.7 -52.95 1.75 -52.1 1.7 -52.95 0.95 -53.35 L0.2 -53.65 Q-0.45 -53.55 -0.95 -53.0 -1.35 -52.55 -1.35 -52.1 L-1.45 -51.45 Q-1.5 -49.45 0.15 -49.25 L1.0 -49.5 Q1.9 -50.05 1.85 -51.45 L1.75 -52.1 Q1.75 -51.15 1.35 -50.6 0.9 -50.0 0.1 -50.0 -0.55 -49.95 -1.0 -50.75 -1.35 -51.4 -1.35 -52.1" fill="#5c5145" fill-rule="evenodd" stroke="none"/>
      <path d="M-3.1 -54.25 Q-2.75 -54.3 -2.35 -53.6 -2.15 -53.25 -1.8 -53.35 L-1.25 -53.8 Q-0.9 -55.65 0.2 -57.05 L1.15 -55.35 1.65 -53.8 Q1.95 -53.4 2.2 -53.35 2.55 -53.25 2.75 -53.6 3.15 -54.3 3.5 -54.25 L3.7 -54.15 3.7 -54.1 Q4.7 -52.0 3.65 -49.95 2.55 -47.8 0.25 -47.9 L-1.35 -48.15 Q-3.0 -48.75 -3.45 -50.6 -3.75 -52.05 -3.65 -53.1 L-3.3 -54.15 -3.1 -54.25 M1.75 -52.1 Q1.7 -52.95 0.95 -53.35 L0.2 -53.65 Q-0.45 -53.55 -0.95 -53.0 -1.35 -52.55 -1.35 -52.1 L-1.45 -51.45 Q-1.5 -49.45 0.15 -49.25 L1.0 -49.5 Q1.9 -50.05 1.85 -51.45 L1.75 -52.1 Z" fill="none" stroke="#000000" stroke-linecap="round" stroke-linejoin="round" stroke-opacity="0.3019608" stroke-width="0.30000000000000004"/>
      <path d="M23.1 -42.8 L23.3 -42.95 23.55 -43.25 23.75 -43.9 23.05 -44.55 22.3 -44.45 22.3 -44.15 Q21.85 -43.95 21.8 -44.5 L21.9 -45.05 22.5 -45.0 Q23.3 -44.8 24.05 -43.9 L24.15 -43.1 23.6 -42.6 22.05 -42.5 20.75 -43.05 Q19.2 -43.8 18.7 -44.65 L18.8 -44.65 19.55 -44.05 21.15 -43.65 Q21.85 -43.2 21.05 -43.05 L22.65 -42.7 23.1 -42.8 M26.35 -40.75 Q24.65 -41.4 24.65 -41.75 24.6 -42.1 24.9 -42.25 L25.3 -42.4 25.65 -42.15 Q25.95 -41.85 25.5 -41.45 26.9 -41.1 26.75 -41.7 L26.35 -42.35 26.3 -42.45 25.4 -43.4 26.3 -42.95 Q26.5 -42.7 27.05 -42.6 L27.85 -42.5 Q27.95 -41.8 27.2 -41.95 L27.3 -41.45 Q27.3 -40.85 26.4 -40.75 L26.35 -40.75" fill="#5c5145" fill-rule="evenodd" stroke="none"/>
      <path d="M21.9 -45.05 L21.8 -44.5 Q21.85 -43.95 22.3 -44.15 L22.3 -44.45 23.05 -44.55 23.75 -43.9 23.55 -43.25 23.3 -42.95 23.1 -42.8 23.45 -43.5 Q23.1 -44.25 22.45 -44.15 22.8 -43.85 22.55 -43.7 21.95 -43.3 21.45 -43.85 20.9 -44.35 21.35 -44.85 L21.9 -45.05 M18.7 -44.65 Q19.2 -43.8 20.75 -43.05 L22.05 -42.5 23.6 -42.6 24.15 -43.1 Q24.8 -43.45 25.4 -43.4 L26.3 -42.45 25.7 -42.85 24.1 -42.75 23.95 -42.55 23.75 -42.35 21.5 -42.45 Q19.55 -43.1 18.7 -44.65 M25.3 -42.4 L24.9 -42.25 Q24.6 -42.1 24.65 -41.75 24.65 -41.4 26.35 -40.75 L25.05 -41.1 Q23.9 -41.6 24.25 -42.15 24.4 -42.5 24.9 -42.45 L25.3 -42.4" fill="#3b2d20" fill-rule="evenodd" stroke="none"/>
      <path d="M21.9 -45.05 L21.35 -44.85 Q20.9 -44.35 21.45 -43.85 21.95 -43.3 22.55 -43.7 22.8 -43.85 22.45 -44.15 23.1 -44.25 23.45 -43.5 L23.1 -42.8 22.65 -42.7 21.05 -43.05 Q21.85 -43.2 21.15 -43.65 L19.55 -44.05 18.8 -44.65 M24.15 -43.1 L24.05 -43.9 Q23.3 -44.8 22.5 -45.0 L21.9 -45.05 M25.3 -42.4 L24.9 -42.45 Q24.4 -42.5 24.25 -42.15 23.9 -41.6 25.05 -41.1 L26.35 -40.75 26.4 -40.75 Q27.3 -40.85 27.3 -41.45 L27.2 -41.95 Q27.95 -41.8 27.85 -42.5 L27.05 -42.6 Q26.5 -42.7 26.3 -42.95 L25.4 -43.4 Q24.8 -43.45 24.15 -43.1 M26.3 -42.45 L26.35 -42.35 26.75 -41.7 Q26.9 -41.1 25.5 -41.45 25.95 -41.85 25.65 -42.15 L25.3 -42.4 M26.3 -42.45 L25.7 -42.85 24.1 -42.75 23.95 -42.55 23.75 -42.35 21.5 -42.45 Q19.55 -43.1 18.7 -44.65" fill="none" stroke="#000000" stroke-linecap="round" stroke-linejoin="round" stroke-opacity="0.3019608" stroke-width="0.30000000000000004"/>
      <path d="M15.7 -59.3 L16.2 -58.65 Q16.35 -58.3 15.85 -57.85 L15.3 -57.4 14.85 -57.5 14.6 -59.0 14.85 -57.5 14.25 -57.3 Q14.05 -57.35 13.95 -57.45 13.45 -57.85 13.5 -58.7 L13.65 -59.2 14.1 -59.8 Q13.45 -58.65 13.95 -58.55 14.35 -58.45 14.6 -59.0 L14.8 -59.9 Q15.05 -58.75 15.55 -58.3 15.9 -58.6 15.7 -59.3 M16.85 -57.35 Q16.95 -56.65 16.65 -56.35 L15.45 -56.25 15.9 -55.75 16.1 -55.25 Q15.35 -55.9 14.7 -54.55 L14.75 -54.85 Q14.35 -56.1 13.9 -55.4 L14.2 -56.2 Q13.0 -55.5 12.8 -56.9 13.35 -56.2 13.95 -56.65 L13.95 -56.75 14.25 -57.3 Q14.0 -56.4 14.9 -56.4 15.6 -56.7 15.3 -57.4 L15.75 -56.75 15.7 -56.7 15.45 -56.25 Q15.1 -55.9 14.75 -55.9 14.45 -55.9 14.2 -56.2 L13.95 -56.65 14.2 -56.2 Q14.45 -55.9 14.75 -55.9 15.1 -55.9 15.45 -56.25 L15.7 -56.7 Q16.8 -56.5 16.85 -57.35 M14.75 -55.9 L14.75 -54.85 14.75 -55.9" fill="#3b2d20" fill-rule="evenodd" stroke="none"/>
      <path d="M15.7 -59.3 Q15.9 -58.6 15.55 -58.3 15.05 -58.75 14.8 -59.9 L14.6 -59.0 Q14.35 -58.45 13.95 -58.55 13.45 -58.65 14.1 -59.8 L14.8 -60.5 15.7 -59.3 M14.85 -57.5 L15.3 -57.4 16.85 -57.35 Q16.8 -56.5 15.7 -56.7 L15.75 -56.75 15.3 -57.4 Q15.6 -56.7 14.9 -56.4 14.0 -56.4 14.25 -57.3 L13.95 -56.75 13.95 -56.65 Q13.35 -56.2 12.8 -56.9 L13.25 -57.5 13.95 -57.45 Q14.05 -57.35 14.25 -57.3 L14.85 -57.5 M16.1 -55.25 L16.15 -54.95 Q16.2 -54.3 14.85 -53.5 13.95 -53.9 13.8 -55.05 L13.9 -55.4 Q14.35 -56.1 14.75 -54.85 L14.7 -54.55 Q15.35 -55.9 16.1 -55.25 M14.7 -54.2 L14.7 -54.55 14.7 -54.2" fill="#5c5145" fill-rule="evenodd" stroke="none"/>
      <path d="M16.65 -56.35 Q16.55 -55.9 15.9 -55.75 L15.45 -56.25 16.65 -56.35 M14.85 -53.5 Q13.95 -53.65 13.75 -54.15 13.4 -54.6 13.65 -55.65 13.15 -55.35 12.75 -56.1 L12.8 -56.9 Q13.0 -55.5 14.2 -56.2 L13.9 -55.4 13.8 -55.05 Q13.95 -53.9 14.85 -53.5 M13.25 -57.5 Q12.85 -58.45 13.65 -59.2 L13.5 -58.7 Q13.45 -57.85 13.95 -57.45 L13.25 -57.5" fill="#000000" fill-opacity="0.36078432" fill-rule="evenodd" stroke="none"/>
      <path d="M15.3 -57.4 L15.85 -57.85 Q16.35 -58.3 16.2 -58.65 L15.7 -59.3 14.8 -60.5 14.1 -59.8 13.65 -59.2 13.5 -58.7 Q13.45 -57.85 13.95 -57.45 L13.25 -57.5 12.8 -56.9 Q13.0 -55.5 14.2 -56.2 14.45 -55.9 14.75 -55.9 15.1 -55.9 15.45 -56.25 L15.7 -56.7 15.75 -56.75 15.3 -57.4 16.85 -57.35 Q16.95 -56.65 16.65 -56.35 L15.45 -56.25 15.9 -55.75 16.1 -55.25 16.15 -54.95 Q16.2 -54.3 14.85 -53.5 13.95 -53.9 13.8 -55.05 L13.9 -55.4 14.2 -56.2 13.95 -56.65 13.95 -56.75 14.25 -57.3 14.85 -57.5 15.3 -57.4 M14.6 -59.0 L14.85 -57.5 M13.95 -57.45 Q14.05 -57.35 14.25 -57.3 M14.75 -54.85 L14.7 -54.55 14.7 -54.2 M14.75 -54.85 L14.75 -55.9" fill="none" stroke="#000000" stroke-linecap="round" stroke-linejoin="round" stroke-opacity="0.3019608" stroke-width="0.30000000000000004"/>
      <path d="M-18.4 -44.65 L-18.3 -44.65 Q-18.8 -43.8 -20.35 -43.05 L-21.65 -42.5 -23.2 -42.6 -23.75 -43.1 -23.65 -43.9 -22.1 -45.0 -21.5 -45.05 -21.4 -44.5 Q-21.45 -43.95 -21.9 -44.15 L-21.9 -44.45 -22.65 -44.55 -23.35 -43.9 -23.15 -43.25 -22.9 -42.95 -22.7 -42.8 -22.25 -42.7 -20.65 -43.05 Q-21.45 -43.2 -20.75 -43.65 L-19.15 -44.05 -18.4 -44.65 M-25.9 -42.45 L-25.95 -42.35 -26.35 -41.7 Q-26.5 -41.1 -25.1 -41.45 -25.55 -41.85 -25.25 -42.15 L-24.9 -42.4 -24.5 -42.25 Q-24.2 -42.1 -24.25 -41.75 -24.25 -41.4 -25.95 -40.75 L-26.0 -40.75 Q-26.9 -40.85 -26.9 -41.45 L-26.8 -41.95 Q-27.55 -41.8 -27.45 -42.5 L-26.65 -42.6 Q-26.1 -42.7 -25.9 -42.95 L-25.0 -43.4 -25.9 -42.45" fill="#5c5145" fill-rule="evenodd" stroke="none"/>
      <path d="M-22.7 -42.8 L-22.9 -42.95 -23.15 -43.25 -23.35 -43.9 -22.65 -44.55 -21.9 -44.45 -21.9 -44.15 Q-21.45 -43.95 -21.4 -44.5 L-21.5 -45.05 -20.95 -44.85 Q-20.5 -44.35 -21.05 -43.85 -21.55 -43.3 -22.15 -43.7 -22.4 -43.85 -22.05 -44.15 -22.7 -44.25 -23.05 -43.5 L-22.7 -42.8 M-23.75 -43.1 L-23.2 -42.6 -21.65 -42.5 -20.35 -43.05 Q-18.8 -43.8 -18.3 -44.65 -19.15 -43.1 -21.1 -42.45 L-23.35 -42.35 -23.55 -42.55 -23.7 -42.75 -25.3 -42.85 -25.9 -42.45 -25.0 -43.4 -23.75 -43.1 M-24.9 -42.4 L-24.5 -42.45 Q-24.0 -42.5 -23.85 -42.15 -23.5 -41.6 -24.65 -41.1 L-25.95 -40.75 Q-24.25 -41.4 -24.25 -41.75 -24.2 -42.1 -24.5 -42.25 L-24.9 -42.4" fill="#3b2d20" fill-rule="evenodd" stroke="none"/>
      <path d="M-18.4 -44.65 L-19.15 -44.05 -20.75 -43.65 Q-21.45 -43.2 -20.65 -43.05 L-22.25 -42.7 -22.7 -42.8 -23.05 -43.5 Q-22.7 -44.25 -22.05 -44.15 -22.4 -43.85 -22.15 -43.7 -21.55 -43.3 -21.05 -43.85 -20.5 -44.35 -20.95 -44.85 L-21.5 -45.05 -22.1 -45.0 -23.65 -43.9 -23.75 -43.1 -25.0 -43.4 -25.9 -42.95 Q-26.1 -42.7 -26.65 -42.6 L-27.45 -42.5 Q-27.55 -41.8 -26.8 -41.95 L-26.9 -41.45 Q-26.9 -40.85 -26.0 -40.75 L-25.95 -40.75 -24.65 -41.1 Q-23.5 -41.6 -23.85 -42.15 -24.0 -42.5 -24.5 -42.45 L-24.9 -42.4 -25.25 -42.15 Q-25.55 -41.85 -25.1 -41.45 -26.5 -41.1 -26.35 -41.7 L-25.95 -42.35 -25.9 -42.45 -25.3 -42.85 -23.7 -42.75 -23.55 -42.55 -23.35 -42.35 -21.1 -42.45 Q-19.15 -43.1 -18.3 -44.65" fill="none" stroke="#000000" stroke-linecap="round" stroke-linejoin="round" stroke-opacity="0.3019608" stroke-width="0.30000000000000004"/>
      <path d="M1.35 -63.5 L1.55 -62.95 Q1.6 -62.1 1.1 -61.7 L0.8 -61.6 0.15 -61.8 0.45 -63.25 0.15 -61.8 -0.3 -61.7 -0.8 -62.1 Q-1.35 -62.55 -1.2 -62.9 L-0.7 -63.6 Q-0.9 -62.9 -0.5 -62.55 0.0 -63.0 0.2 -64.15 L0.45 -63.25 Q0.7 -62.75 1.05 -62.8 1.6 -62.9 0.9 -64.1 L1.35 -63.5 M-1.1 -59.5 L-0.85 -60.0 -0.45 -60.5 Q-0.05 -60.15 0.25 -60.15 L0.3 -59.1 0.25 -60.15 Q-0.05 -60.15 -0.45 -60.5 L-0.7 -60.95 -0.45 -60.5 -1.6 -60.65 Q-1.95 -60.95 -1.85 -61.6 -1.75 -60.8 -0.7 -60.95 L-0.7 -61.05 -0.3 -61.7 Q-0.6 -61.0 0.1 -60.7 1.0 -60.65 0.8 -61.6 L1.1 -61.0 1.1 -60.9 Q1.7 -60.5 2.25 -61.15 2.0 -59.8 0.8 -60.5 L1.1 -60.9 0.8 -60.5 1.1 -59.65 Q0.7 -60.35 0.3 -59.1 L0.3 -58.85 Q-0.3 -60.15 -1.1 -59.5 M0.25 -60.15 Q0.55 -60.15 0.8 -60.5 0.55 -60.15 0.25 -60.15" fill="#3b2d20" fill-rule="evenodd" stroke="none"/>
      <path d="M1.1 -61.7 L1.75 -61.75 2.25 -61.15 Q1.7 -60.5 1.1 -60.9 L1.1 -61.0 0.8 -61.6 1.1 -61.7 M0.9 -64.1 Q1.6 -62.9 1.05 -62.8 0.7 -62.75 0.45 -63.25 L0.2 -64.15 Q0.0 -63.0 -0.5 -62.55 -0.9 -62.9 -0.7 -63.6 L0.2 -64.75 0.9 -64.1 M0.15 -61.8 L0.8 -61.6 Q1.0 -60.65 0.1 -60.7 -0.6 -61.0 -0.3 -61.7 L0.15 -61.8 M0.15 -57.75 Q-1.2 -58.55 -1.15 -59.2 L-1.1 -59.5 Q-0.3 -60.15 0.3 -58.85 L0.3 -59.1 Q0.7 -60.35 1.1 -59.65 L1.2 -59.3 Q1.05 -58.2 0.15 -57.75 M-1.85 -61.6 L-0.3 -61.7 -0.7 -61.05 -0.7 -60.95 Q-1.75 -60.8 -1.85 -61.6 M0.3 -58.45 L0.3 -58.85 0.3 -58.45" fill="#5c5145" fill-rule="evenodd" stroke="none"/>
      <path d="M1.1 -61.7 Q1.6 -62.1 1.55 -62.95 L1.35 -63.5 Q2.15 -62.7 1.75 -61.75 L1.1 -61.7 M2.25 -61.15 L2.25 -60.4 Q1.9 -59.6 1.35 -59.95 1.6 -58.9 1.3 -58.4 1.1 -57.95 0.15 -57.75 1.05 -58.2 1.2 -59.3 L1.1 -59.65 0.8 -60.5 Q2.0 -59.8 2.25 -61.15 M-0.85 -60.0 Q-1.5 -60.15 -1.6 -60.65 L-0.45 -60.5 -0.85 -60.0" fill="#000000" fill-opacity="0.36078432" fill-rule="evenodd" stroke="none"/>
      <path d="M1.35 -63.5 L1.55 -62.95 Q1.6 -62.1 1.1 -61.7 L1.75 -61.75 2.25 -61.15 Q2.0 -59.8 0.8 -60.5 0.55 -60.15 0.25 -60.15 -0.05 -60.15 -0.45 -60.5 L-0.85 -60.0 -1.1 -59.5 -1.15 -59.2 Q-1.2 -58.55 0.15 -57.75 1.05 -58.2 1.2 -59.3 L1.1 -59.65 0.8 -60.5 1.1 -60.9 1.1 -61.0 0.8 -61.6 1.1 -61.7 M1.35 -63.5 L0.9 -64.1 0.2 -64.75 -0.7 -63.6 -1.2 -62.9 Q-1.35 -62.55 -0.8 -62.1 L-0.3 -61.7 0.15 -61.8 0.8 -61.6 M0.45 -63.25 L0.15 -61.8 M-1.6 -60.65 Q-1.95 -60.95 -1.85 -61.6 L-0.3 -61.7 -0.7 -61.05 -0.7 -60.95 -0.45 -60.5 -1.6 -60.65 M0.3 -58.85 L0.3 -59.1 0.25 -60.15 M0.3 -58.85 L0.3 -58.45" fill="none" stroke="#000000" stroke-linecap="round" stroke-linejoin="round" stroke-opacity="0.3019608" stroke-width="0.30000000000000004"/>
      <path d="M-11.45 -45.9 L-11.0 -45.3 Q-12.05 -44.55 -13.4 -45.45 -14.6 -46.3 -15.6 -46.3 -14.5 -46.35 -13.4 -45.8 L-11.45 -45.9" fill="#3b2d20" fill-rule="evenodd" stroke="none"/>
      <path d="M-15.6 -46.3 L-15.65 -46.3 -15.8 -46.3 -13.55 -46.65 Q-12.2 -46.55 -11.45 -45.9 L-13.4 -45.8 Q-14.5 -46.35 -15.6 -46.3" fill="#5c5145" fill-rule="evenodd" stroke="none"/>
      <path d="M-11.45 -45.9 L-11.0 -45.3 Q-12.05 -44.55 -13.4 -45.45 -14.6 -46.3 -15.6 -46.3 L-15.65 -46.3 M-15.8 -46.3 L-13.55 -46.65 Q-12.2 -46.55 -11.45 -45.9" fill="none" stroke="#000000" stroke-linecap="round" stroke-linejoin="round" stroke-opacity="0.3019608" stroke-width="0.30000000000000004"/>
      <path d="M-19.55 -44.95 L-17.75 -44.5 -16.15 -44.6 -15.75 -44.1 Q-16.65 -43.45 -17.75 -44.25 -18.7 -44.9 -19.55 -44.95" fill="#3b2d20" fill-rule="evenodd" stroke="none"/>
      <path d="M-16.15 -44.6 L-17.75 -44.5 -19.55 -44.95 -19.6 -44.95 -19.75 -44.95 -17.9 -45.2 Q-16.7 -45.15 -16.15 -44.6" fill="#5c5145" fill-rule="evenodd" stroke="none"/>
      <path d="M-16.15 -44.6 Q-16.7 -45.15 -17.9 -45.2 L-19.75 -44.95 M-19.6 -44.95 L-19.55 -44.95 Q-18.7 -44.9 -17.75 -44.25 -16.65 -43.45 -15.75 -44.1 L-16.15 -44.6" fill="none" stroke="#000000" stroke-linecap="round" stroke-linejoin="round" stroke-opacity="0.3019608" stroke-width="0.30000000000000004"/>
      <path d="M16.2 -46.3 L16.15 -46.3 13.95 -45.8 12.0 -45.9 Q12.75 -46.55 14.15 -46.65 L16.35 -46.3 16.2 -46.3" fill="#5c5145" fill-rule="evenodd" stroke="none"/>
      <path d="M12.0 -45.9 L13.95 -45.8 16.15 -46.3 Q15.15 -46.3 13.95 -45.45 12.65 -44.55 11.55 -45.3 L12.0 -45.9" fill="#3b2d20" fill-rule="evenodd" stroke="none"/>
      <path d="M16.15 -46.3 L16.2 -46.3 M16.35 -46.3 L14.15 -46.65 Q12.75 -46.55 12.0 -45.9 L11.55 -45.3 Q12.65 -44.55 13.95 -45.45 15.15 -46.3 16.15 -46.3" fill="none" stroke="#000000" stroke-linecap="round" stroke-linejoin="round" stroke-opacity="0.3019608" stroke-width="0.30000000000000004"/>
      <path d="M20.15 -44.95 L18.3 -44.5 16.7 -44.6 Q17.25 -45.15 18.45 -45.2 L20.3 -44.95 20.15 -44.95" fill="#5c5145" fill-rule="evenodd" stroke="none"/>
      <path d="M20.15 -44.95 Q19.25 -44.9 18.3 -44.25 17.2 -43.45 16.3 -44.1 L16.7 -44.6 18.3 -44.5 20.15 -44.95" fill="#3b2d20" fill-rule="evenodd" stroke="none"/>
      <path d="M16.7 -44.6 L16.3 -44.1 Q17.2 -43.45 18.3 -44.25 19.25 -44.9 20.15 -44.95 M16.7 -44.6 Q17.25 -45.15 18.45 -45.2 L20.3 -44.95" fill="none" stroke="#000000" stroke-linecap="round" stroke-linejoin="round" stroke-opacity="0.3019608" stroke-width="0.30000000000000004"/>
      <path d="M-7.6 -47.85 L8.15 -47.85 7.55 -47.45 7.55 -45.25 -7.0 -45.25 -7.0 -47.45 -7.6 -47.85 M-7.0 -47.45 L7.55 -47.45 -7.0 -47.45" fill="#5c5145" fill-rule="evenodd" stroke="none"/>
      <path d="M8.15 -47.85 L8.15 -44.85 7.55 -45.25 7.55 -47.45 8.15 -47.85 M-7.6 -44.85 L-7.6 -47.85 -7.0 -47.45 -7.0 -45.25 -7.6 -44.85" fill="#433324" fill-rule="evenodd" stroke="none"/>
      <path d="M8.15 -44.85 L-7.6 -44.85 -7.0 -45.25 7.55 -45.25 8.15 -44.85" fill="#3b2d20" fill-rule="evenodd" stroke="none"/>
      <path d="M8.15 -47.85 L8.15 -44.85 -7.6 -44.85 -7.6 -47.85 8.15 -47.85 7.55 -47.45 7.55 -45.25 8.15 -44.85 M-7.0 -45.25 L-7.6 -44.85 M-7.0 -47.45 L-7.0 -45.25 7.55 -45.25 M-7.0 -47.45 L-7.6 -47.85 M7.55 -47.45 L-7.0 -47.45" fill="none" stroke="#000000" stroke-linecap="round" stroke-linejoin="round" stroke-opacity="0.3019608" stroke-width="0.30000000000000004"/>
      <path d="M-35.15 -20.2 L-35.15 -21.0 Q-35.0 -21.65 -34.3 -21.3 L-34.45 -21.85 -34.65 -22.75 Q-35.0 -24.1 -35.35 -23.4 L-35.8 -21.4 -35.85 -21.0 Q-36.2 -19.8 -36.35 -17.25 -36.6 -19.0 -36.35 -20.4 -36.25 -21.25 -36.45 -22.9 L-36.85 -25.3 Q-36.2 -26.55 -35.9 -24.35 L-35.45 -25.25 Q-34.8 -25.95 -34.1 -23.65 L-34.05 -23.5 -34.05 -22.85 -33.95 -21.9 Q-33.85 -19.85 -34.1 -19.6 -34.5 -19.3 -34.75 -19.6 L-35.15 -20.2 M-35.85 35.8 L-35.8 36.2 -35.35 38.2 Q-35.0 38.9 -34.65 37.55 L-34.45 36.6 -34.3 36.1 Q-35.0 36.45 -35.15 35.8 L-35.15 35.0 -34.75 34.4 Q-34.5 34.05 -34.1 34.4 -33.85 34.65 -33.95 36.7 L-34.05 37.65 -34.05 38.3 -34.1 38.45 Q-34.8 40.75 -35.45 40.05 L-35.9 39.1 Q-36.2 41.35 -36.85 40.1 L-36.45 37.7 Q-36.25 36.0 -36.35 35.2 -36.6 33.8 -36.35 32.05 -36.2 34.6 -35.85 35.8 M-35.2 28.95 L-36.05 27.45 -36.35 24.8 -36.25 22.95 -35.95 22.0 Q-35.55 22.0 -35.35 22.25 -34.8 22.65 -35.25 23.3 -35.4 23.05 -35.6 23.05 -36.05 23.05 -36.1 24.2 L-36.1 24.8 -35.85 26.6 Q-35.6 27.1 -35.05 26.95 L-34.55 26.6 -34.35 26.4 -33.9 25.2 Q-33.5 23.4 -33.3 20.15 -33.9 22.2 -34.1 19.7 -33.7 18.05 -33.5 14.55 L-33.8 10.8 Q-33.0 13.4 -33.15 19.4 L-33.3 23.8 Q-33.6 26.9 -34.4 28.15 L-35.2 28.95 M-33.8 4.0 L-33.5 0.25 Q-33.7 -3.25 -34.1 -4.9 -33.9 -7.4 -33.3 -5.35 -33.5 -8.6 -33.9 -10.4 L-34.35 -11.6 -34.55 -11.85 Q-34.8 -12.1 -35.05 -12.15 -35.6 -12.3 -35.85 -11.85 L-36.1 -10.05 -36.1 -9.45 Q-36.05 -8.25 -35.6 -8.25 -35.4 -8.25 -35.25 -8.5 -34.8 -7.85 -35.35 -7.5 -35.55 -7.2 -35.95 -7.2 L-36.25 -8.15 -36.35 -10.0 -36.35 -10.05 -36.05 -12.65 -35.2 -14.15 -34.4 -13.35 Q-33.6 -12.1 -33.3 -9.0 L-33.15 -4.6 Q-33.0 1.4 -33.8 4.0" fill="#5c5145" fill-rule="evenodd" stroke="none"/>
      <path d="M-35.15 -20.2 L-34.75 -19.6 Q-34.5 -19.3 -34.1 -19.6 -33.85 -19.85 -33.95 -21.9 L-34.05 -22.85 -34.05 -23.5 -33.7 -20.85 Q-33.5 -18.5 -34.25 -18.6 -34.75 -18.65 -35.0 -19.5 L-35.15 -20.2 M-36.35 -17.25 Q-36.2 -19.8 -35.85 -21.0 L-35.9 -18.85 Q-35.8 -16.15 -34.85 -14.4 -34.75 -14.25 -34.5 -14.25 L-34.15 -14.0 Q-33.3 -12.6 -32.95 -7.4 -32.45 -0.25 -33.4 7.3 -32.45 15.05 -32.95 22.2 -33.3 27.4 -34.15 28.8 L-34.5 29.05 Q-34.75 29.05 -34.85 29.2 -35.8 30.95 -35.9 33.65 L-35.85 35.8 Q-36.2 34.6 -36.35 32.05 -36.05 30.2 -35.2 28.95 L-34.4 28.15 Q-33.6 26.9 -33.3 23.8 L-33.15 19.4 Q-33.0 13.4 -33.8 10.8 L-34.55 7.4 -33.8 4.0 Q-33.0 1.4 -33.15 -4.6 L-33.3 -9.0 Q-33.6 -12.1 -34.4 -13.35 L-35.2 -14.15 Q-36.05 -15.4 -36.35 -17.25 M-35.15 35.0 L-35.0 34.3 Q-34.75 33.45 -34.25 33.4 -33.5 33.3 -33.7 35.65 L-34.05 38.3 -34.05 37.65 -33.95 36.7 Q-33.85 34.65 -34.1 34.4 -34.5 34.05 -34.75 34.4 L-35.15 35.0 M-35.95 22.0 L-35.4 21.25 Q-34.65 20.85 -34.35 22.1 -34.2 23.45 -34.9 24.05 -35.25 24.4 -35.35 23.6 -35.65 24.2 -35.55 24.9 L-35.25 26.4 Q-34.9 26.7 -34.35 26.4 L-34.55 26.6 -35.05 26.95 Q-35.6 27.1 -35.85 26.6 L-36.1 24.8 -36.1 24.2 Q-36.05 23.05 -35.6 23.05 -35.4 23.05 -35.25 23.3 -34.8 22.65 -35.35 22.25 -35.55 22.0 -35.95 22.0 M-34.35 -11.6 Q-34.9 -11.9 -35.25 -11.6 L-35.55 -10.1 Q-35.65 -9.4 -35.35 -8.8 -35.25 -9.6 -34.9 -9.25 -34.2 -8.65 -34.35 -7.3 -34.65 -6.05 -35.4 -6.45 L-35.95 -7.2 Q-35.55 -7.2 -35.35 -7.5 -34.8 -7.85 -35.25 -8.5 -35.4 -8.25 -35.6 -8.25 -36.05 -8.25 -36.1 -9.45 L-36.1 -10.05 -35.85 -11.85 Q-35.6 -12.3 -35.05 -12.15 -34.8 -12.1 -34.55 -11.85 L-34.35 -11.6" fill="#4a4137" fill-rule="evenodd" stroke="none"/>
      <path d="M-35.85 -21.0 L-35.8 -21.4 -35.35 -23.4 Q-35.0 -24.1 -34.65 -22.75 L-34.45 -21.85 -34.3 -21.3 Q-35.0 -21.65 -35.15 -21.0 L-35.15 -20.2 -35.0 -19.5 Q-34.75 -18.65 -34.25 -18.6 -33.5 -18.5 -33.7 -20.85 L-34.05 -23.5 -34.1 -23.65 Q-34.8 -25.95 -35.45 -25.25 L-35.9 -24.35 Q-36.2 -26.55 -36.85 -25.3 L-36.45 -22.9 Q-36.25 -21.25 -36.35 -20.4 -36.6 -19.0 -36.35 -17.25 -36.05 -15.4 -35.2 -14.15 L-36.05 -12.65 -36.35 -10.05 -36.35 -10.0 -36.25 -8.15 -35.95 -7.2 -35.4 -6.45 Q-34.65 -6.05 -34.35 -7.3 -34.2 -8.65 -34.9 -9.25 -35.25 -9.6 -35.35 -8.8 -35.65 -9.4 -35.55 -10.1 L-35.25 -11.6 Q-34.9 -11.9 -34.35 -11.6 L-33.9 -10.4 Q-33.5 -8.6 -33.3 -5.35 -33.9 -7.4 -34.1 -4.9 -33.7 -3.25 -33.5 0.25 L-33.8 4.0 -34.55 7.4 -33.8 10.8 -33.5 14.55 Q-33.7 18.05 -34.1 19.7 -33.9 22.2 -33.3 20.15 -33.5 23.4 -33.9 25.2 L-34.35 26.4 Q-34.9 26.7 -35.25 26.4 L-35.55 24.9 Q-35.65 24.2 -35.35 23.6 -35.25 24.4 -34.9 24.05 -34.2 23.45 -34.35 22.1 -34.65 20.85 -35.4 21.25 L-35.95 22.0 -36.25 22.95 -36.35 24.8 -36.05 27.45 -35.2 28.95 Q-36.05 30.2 -36.35 32.05 -36.6 33.8 -36.35 35.2 -36.25 36.0 -36.45 37.7 L-36.85 40.1 Q-36.2 41.35 -35.9 39.1 L-35.45 40.05 Q-34.8 40.75 -34.1 38.45 L-34.05 38.3 -33.7 35.65 Q-33.5 33.3 -34.25 33.4 -34.75 33.45 -35.0 34.3 L-35.15 35.0 -35.15 35.8 Q-35.0 36.45 -34.3 36.1 L-34.45 36.6 -34.65 37.55 Q-35.0 38.9 -35.35 38.2 L-35.8 36.2 -35.85 35.8 -35.9 33.65 Q-35.8 30.95 -34.85 29.2 -34.75 29.05 -34.5 29.05 L-34.15 28.8 Q-33.3 27.4 -32.95 22.2 -32.45 15.05 -33.4 7.3 -32.45 -0.25 -32.95 -7.4 -33.3 -12.6 -34.15 -14.0 L-34.5 -14.25 Q-34.75 -14.25 -34.85 -14.4 -35.8 -16.15 -35.9 -18.85 L-35.85 -21.0 Z" fill="none" stroke="#000000" stroke-linecap="round" stroke-linejoin="round" stroke-opacity="0.3019608" stroke-width="0.30000000000000004"/>
      <path d="M36.2 35.8 L36.25 33.65 Q36.15 30.95 35.2 29.2 L34.85 29.05 34.5 28.8 Q33.65 27.4 33.3 22.2 32.8 15.05 33.75 7.3 32.8 -0.25 33.3 -7.4 33.65 -12.6 34.5 -14.0 L34.85 -14.25 35.2 -14.4 Q36.15 -16.15 36.25 -18.85 L36.2 -21.0 Q36.55 -19.8 36.7 -17.25 36.4 -15.4 35.55 -14.15 L34.75 -13.35 Q33.95 -12.1 33.65 -9.0 L33.5 -4.6 Q33.35 1.4 34.15 4.0 L34.9 7.4 34.15 10.8 Q33.35 13.4 33.5 19.4 L33.65 23.8 Q33.95 26.9 34.75 28.15 L35.55 28.95 Q36.4 30.2 36.7 32.05 36.55 34.6 36.2 35.8 M35.5 -20.2 L35.35 -19.5 Q35.1 -18.65 34.6 -18.6 33.85 -18.5 34.05 -20.85 L34.35 -23.15 34.35 -22.85 34.3 -21.9 Q34.2 -19.85 34.45 -19.6 34.85 -19.3 35.1 -19.6 L35.5 -20.2 M36.3 -7.2 L35.75 -6.45 Q35.0 -6.05 34.7 -7.3 34.55 -8.65 35.25 -9.25 35.6 -9.6 35.7 -8.8 36.0 -9.4 35.9 -10.1 L35.6 -11.6 Q35.25 -11.9 34.7 -11.6 L34.9 -11.85 35.4 -12.15 Q35.95 -12.3 36.2 -11.85 L36.45 -10.05 36.45 -9.45 Q36.35 -8.25 35.95 -8.25 35.75 -8.25 35.55 -8.5 35.15 -7.85 35.7 -7.5 35.9 -7.2 36.3 -7.2 M34.7 26.4 Q35.25 26.7 35.6 26.4 L35.9 24.9 Q36.0 24.2 35.7 23.6 35.6 24.4 35.25 24.05 34.55 23.45 34.7 22.1 35.0 20.85 35.75 21.25 L36.3 22.0 Q35.9 22.0 35.7 22.25 35.15 22.65 35.55 23.3 35.75 23.05 35.95 23.05 36.35 23.05 36.45 24.2 L36.45 24.8 36.2 26.6 Q35.95 27.1 35.4 26.95 L34.9 26.6 34.7 26.4 M34.35 38.0 L34.05 35.65 Q33.85 33.3 34.6 33.4 35.1 33.45 35.35 34.3 L35.5 35.0 35.1 34.4 Q34.85 34.05 34.45 34.4 34.2 34.65 34.3 36.7 L34.35 37.65 34.35 38.0" fill="#4a4137" fill-rule="evenodd" stroke="none"/>
      <path d="M36.2 -21.0 L36.15 -21.4 35.7 -23.4 Q35.35 -24.1 35.0 -22.75 L34.75 -21.85 34.65 -21.3 Q35.35 -21.65 35.5 -21.0 L35.5 -20.2 35.1 -19.6 Q34.85 -19.3 34.45 -19.6 34.2 -19.85 34.3 -21.9 L34.35 -22.85 34.35 -23.15 34.4 -23.25 34.4 -23.5 34.45 -23.65 Q35.15 -25.95 35.8 -25.25 L36.25 -24.35 Q36.55 -26.55 37.2 -25.3 L36.8 -22.9 Q36.6 -21.25 36.7 -20.4 36.95 -19.0 36.7 -17.25 36.55 -19.8 36.2 -21.0 M35.55 -14.15 L36.4 -12.65 36.7 -10.05 36.7 -10.0 36.6 -8.15 36.3 -7.2 Q35.9 -7.2 35.7 -7.5 35.15 -7.85 35.55 -8.5 35.75 -8.25 35.95 -8.25 36.35 -8.25 36.45 -9.45 L36.45 -10.05 36.2 -11.85 Q35.95 -12.3 35.4 -12.15 L34.9 -11.85 34.7 -11.6 34.25 -10.4 Q33.85 -8.6 33.65 -5.35 34.25 -7.4 34.45 -4.9 34.05 -3.25 33.85 0.25 L34.15 4.0 Q33.35 1.4 33.5 -4.6 L33.65 -9.0 Q33.95 -12.1 34.75 -13.35 L35.55 -14.15 M34.15 10.8 L33.85 14.55 Q34.05 18.05 34.45 19.7 34.25 22.2 33.65 20.15 33.85 23.4 34.25 25.2 L34.7 26.4 34.9 26.6 35.4 26.95 Q35.95 27.1 36.2 26.6 L36.45 24.8 36.45 24.2 Q36.35 23.05 35.95 23.05 35.75 23.05 35.55 23.3 35.15 22.65 35.7 22.25 35.9 22.0 36.3 22.0 L36.6 22.95 36.7 24.8 36.4 27.45 35.55 28.95 34.75 28.15 Q33.95 26.9 33.65 23.8 L33.5 19.4 Q33.35 13.4 34.15 10.8 M36.7 32.05 Q36.95 33.8 36.7 35.2 36.6 36.0 36.8 37.7 L37.2 40.1 Q36.55 41.35 36.25 39.1 L35.8 40.05 Q35.15 40.75 34.45 38.45 L34.4 38.3 34.4 38.1 34.35 38.0 34.35 37.65 34.3 36.7 Q34.2 34.65 34.45 34.4 34.85 34.05 35.1 34.4 L35.5 35.0 35.5 35.8 Q35.35 36.45 34.65 36.1 L34.75 36.6 35.0 37.55 Q35.35 38.9 35.7 38.2 L36.15 36.2 36.2 35.8 Q36.55 34.6 36.7 32.05" fill="#5c5145" fill-rule="evenodd" stroke="none"/>
      <path d="M36.2 35.8 L36.25 33.65 Q36.15 30.95 35.2 29.2 L34.85 29.05 34.5 28.8 Q33.65 27.4 33.3 22.2 32.8 15.05 33.75 7.3 32.8 -0.25 33.3 -7.4 33.65 -12.6 34.5 -14.0 L34.85 -14.25 35.2 -14.4 Q36.15 -16.15 36.25 -18.85 L36.2 -21.0 36.15 -21.4 35.7 -23.4 Q35.35 -24.1 35.0 -22.75 L34.75 -21.85 34.65 -21.3 Q35.35 -21.65 35.5 -21.0 L35.5 -20.2 35.35 -19.5 Q35.1 -18.65 34.6 -18.6 33.85 -18.5 34.05 -20.85 L34.35 -23.15 34.4 -23.25 34.4 -23.5 34.45 -23.65 Q35.15 -25.95 35.8 -25.25 L36.25 -24.35 Q36.55 -26.55 37.2 -25.3 L36.8 -22.9 Q36.6 -21.25 36.7 -20.4 36.95 -19.0 36.7 -17.25 36.4 -15.4 35.55 -14.15 L36.4 -12.65 36.7 -10.05 36.7 -10.0 36.6 -8.15 36.3 -7.2 35.75 -6.45 Q35.0 -6.05 34.7 -7.3 34.55 -8.65 35.25 -9.25 35.6 -9.6 35.7 -8.8 36.0 -9.4 35.9 -10.1 L35.6 -11.6 Q35.25 -11.9 34.7 -11.6 L34.25 -10.4 Q33.85 -8.6 33.65 -5.35 34.25 -7.4 34.45 -4.9 34.05 -3.25 33.85 0.25 L34.15 4.0 34.9 7.4 34.15 10.8 33.85 14.55 Q34.05 18.05 34.45 19.7 34.25 22.2 33.65 20.15 33.85 23.4 34.25 25.2 L34.7 26.4 Q35.25 26.7 35.6 26.4 L35.9 24.9 Q36.0 24.2 35.7 23.6 35.6 24.4 35.25 24.05 34.55 23.45 34.7 22.1 35.0 20.85 35.75 21.25 L36.3 22.0 36.6 22.95 36.7 24.8 36.4 27.45 35.55 28.95 Q36.4 30.2 36.7 32.05 36.95 33.8 36.7 35.2 36.6 36.0 36.8 37.7 L37.2 40.1 Q36.55 41.35 36.25 39.1 L35.8 40.05 Q35.15 40.75 34.45 38.45 L34.4 38.3 34.4 38.1 34.35 38.0 34.05 35.65 Q33.85 33.3 34.6 33.4 35.1 33.45 35.35 34.3 L35.5 35.0 35.5 35.8 Q35.35 36.45 34.65 36.1 L34.75 36.6 35.0 37.55 Q35.35 38.9 35.7 38.2 L36.15 36.2 36.2 35.8 Z" fill="none" stroke="#000000" stroke-linecap="round" stroke-linejoin="round" stroke-opacity="0.3019608" stroke-width="0.30000000000000004"/>
    </g>
    <linearGradient gradientTransform="matrix(0.0, -0.0371, 0.0212, 0.0, 0.45, -44.85)" gradientUnits="userSpaceOnUse" id="decoration114-gradient0" spreadMethod="pad" x1="-819.2" x2="819.2">
      <stop offset="0.0" stop-color="#665c50"/>
      <stop offset="0.36470588235294116" stop-color="#74604c"/>
      <stop offset="0.49019607843137253" stop-color="#483626"/>
      <stop offset="0.592156862745098" stop-color="#877669"/>
      <stop offset="0.9529411764705882" stop-color="#51463c"/>
    </linearGradient>
    <linearGradient gradientTransform="matrix(0.0, 0.0725, -0.0527, 0.0, 3.85, 9.75)" gradientUnits="userSpaceOnUse" id="decoration114-gradient1" spreadMethod="pad" x1="-819.2" x2="819.2">
      <stop offset="0.0" stop-color="#faf2ee"/>
      <stop offset="1.0" stop-color="#c6bfba"/>
    </linearGradient>
    <linearGradient gradientTransform="matrix(0.0, -0.0557, 0.0468, 0.0, -154.15, 9.65)" gradientUnits="userSpaceOnUse" id="decoration114-gradient2" spreadMethod="pad" x1="-819.2" x2="819.2">
      <stop offset="0.0" stop-color="#665c50"/>
      <stop offset="0.5215686274509804" stop-color="#392b1e"/>
      <stop offset="1.0" stop-color="#776758"/>
    </linearGradient>
    <linearGradient gradientTransform="matrix(0.0, -0.0759, 0.0468, 0.0, -156.35, -28.8)" gradientUnits="userSpaceOnUse" id="decoration114-gradient3" spreadMethod="pad" x1="-819.2" x2="819.2">
      <stop offset="0.0" stop-color="#665c50"/>
      <stop offset="1.0" stop-color="#392b1e"/>
    </linearGradient>
  </defs>
</svg>
