<?xml version="1.0" encoding="UTF-8" standalone="no"?>
<svg xmlns:xlink="http://www.w3.org/1999/xlink" height="58.35px" width="43.0px" xmlns="http://www.w3.org/2000/svg">
  <g transform="matrix(1.0, 0.0, 0.0, 1.0, 21.5, 58.2)">
    <use height="58.35" transform="matrix(1.0, 0.0, 0.0, 1.0, -21.5, -58.2)" width="43.0" xlink:href="#decoration115-shape0"/>
  </g>
  <defs>
    <g id="decoration115-shape0" transform="matrix(1.0, 0.0, 0.0, 1.0, 21.5, 58.2)">
      <path d="M0.1 -58.0 L2.1 -58.05 Q10.0 -57.95 15.35 -53.25 21.45 -48.1 21.35 -39.5 L21.2 0.0 17.8 0.0 17.95 -39.5 Q18.0 -48.1 12.0 -53.25 7.05 -57.55 0.1 -58.0 M8.45 -13.95 L9.0 -13.15 9.3 -11.8 Q9.3 -10.55 8.45 -9.7 7.65 -8.8 6.5 -8.8 5.3 -8.8 4.5 -9.7 L3.95 -10.45 Q5.85 -9.1 7.55 -10.1 9.3 -10.8 8.45 -13.95 M8.9 -18.25 L7.4 -18.1 -0.1 -20.8 -10.1 -16.15 -11.75 -16.0 -0.55 -21.7 8.9 -18.25 M11.75 -7.45 L13.05 -7.75 11.85 -6.25 -12.9 -6.25 -14.55 -7.45 -13.5 -7.45 10.85 -7.45 11.75 -7.45 10.85 -7.45 10.85 -15.95 -1.95 -16.05 11.75 -17.25 11.75 -7.45 M-10.5 -11.1 Q-8.05 -8.8 -6.85 -12.9 L-6.65 -11.9 Q-6.65 -11.0 -7.25 -10.4 -7.8 -9.7 -8.65 -9.7 -9.5 -9.7 -10.1 -10.4 -10.4 -10.7 -10.5 -11.1 M-1.65 -11.1 L-1.5 -10.4 Q-1.5 -9.75 -1.9 -9.3 -2.35 -8.8 -2.95 -8.8 -3.55 -8.8 -4.0 -9.3 -4.4 -9.75 -4.4 -10.4 -2.6 -8.2 -1.65 -11.1" fill="#464443" fill-rule="evenodd" stroke="none"/>
      <path d="M17.8 0.0 L-21.35 0.0 -21.25 -39.5 Q-21.05 -48.4 -14.85 -53.55 -9.25 -58.15 -1.3 -58.05 L0.1 -58.0 Q7.05 -57.55 12.0 -53.25 18.0 -48.1 17.95 -39.5 L17.8 0.0 M13.05 -7.75 L13.05 -18.3 -0.4 -22.9 -14.55 -15.95 -14.55 -7.45 -12.9 -6.25 11.85 -6.25 13.05 -7.75" fill="url(#decoration115-gradient0)" fill-rule="evenodd" stroke="none"/>
      <path d="M8.45 -13.95 Q7.65 -14.8 6.5 -14.8 5.3 -14.8 4.5 -13.95 3.75 -13.1 3.7 -11.9 2.75 -14.1 5.45 -15.7 7.95 -16.45 9.0 -13.15 L8.45 -13.95 M7.4 -18.1 L8.9 -18.25 -0.55 -21.7 -11.75 -16.0 -10.1 -16.15 7.4 -18.1 M13.05 -7.75 L11.75 -7.45 11.75 -17.25 -1.95 -16.05 -13.5 -15.1 -13.5 -7.45 -14.55 -7.45 -14.55 -15.95 -0.4 -22.9 13.05 -18.3 13.05 -7.75 M-11.75 -16.0 L-13.5 -15.1 -11.75 -16.0 M11.75 -17.25 L8.9 -18.25 11.75 -17.25 M-6.85 -12.95 L-7.25 -13.45 Q-7.8 -14.1 -8.65 -14.1 -9.5 -14.1 -10.1 -13.45 -10.65 -12.85 -10.65 -12.0 -11.4 -13.6 -9.35 -14.7 -7.6 -15.25 -6.85 -12.95 M-4.4 -10.45 Q-4.9 -11.6 -3.45 -12.4 -2.2 -12.8 -1.65 -11.1 L-1.9 -11.5 Q-2.35 -11.95 -2.95 -11.95 -3.55 -11.95 -4.0 -11.5 -4.4 -11.05 -4.4 -10.45" fill="#8e8d8d" fill-rule="evenodd" stroke="none"/>
      <path d="M3.7 -11.9 Q3.75 -13.1 4.5 -13.95 5.3 -14.8 6.5 -14.8 7.65 -14.8 8.45 -13.95 9.3 -10.8 7.55 -10.1 5.85 -9.1 3.95 -10.45 3.7 -11.05 3.7 -11.8 L3.7 -11.9 3.7 -11.8 Q3.7 -11.05 3.95 -10.45 L4.5 -9.7 Q5.3 -8.8 6.5 -8.8 7.65 -8.8 8.45 -9.7 9.3 -10.55 9.3 -11.8 L9.0 -13.15 Q7.95 -16.45 5.45 -15.7 2.75 -14.1 3.7 -11.9 M-10.1 -16.15 L-0.1 -20.8 7.4 -18.1 -10.1 -16.15 M-13.5 -7.45 L-13.5 -15.1 -1.95 -16.05 10.85 -15.95 10.85 -7.45 -13.5 -7.45 M-10.65 -12.0 Q-10.65 -12.85 -10.1 -13.45 -9.5 -14.1 -8.65 -14.1 -7.8 -14.1 -7.25 -13.45 L-6.85 -12.95 -6.85 -12.9 -6.85 -12.95 Q-7.6 -15.25 -9.35 -14.7 -11.4 -13.6 -10.65 -12.0 L-10.65 -11.9 -10.5 -11.1 -10.65 -11.9 -10.65 -12.0 M-6.85 -12.9 Q-8.05 -8.8 -10.5 -11.1 -10.4 -10.7 -10.1 -10.4 -9.5 -9.7 -8.65 -9.7 -7.8 -9.7 -7.25 -10.4 -6.65 -11.0 -6.65 -11.9 L-6.85 -12.9 M-4.4 -10.4 Q-4.4 -9.75 -4.0 -9.3 -3.55 -8.8 -2.95 -8.8 -2.35 -8.8 -1.9 -9.3 -1.5 -9.75 -1.5 -10.4 L-1.65 -11.1 Q-2.2 -12.8 -3.45 -12.4 -4.9 -11.6 -4.4 -10.45 -4.4 -11.05 -4.0 -11.5 -3.55 -11.95 -2.95 -11.95 -2.35 -11.95 -1.9 -11.5 L-1.65 -11.1 Q-2.6 -8.2 -4.4 -10.4 L-4.4 -10.45 -4.4 -10.4" fill="#727170" fill-rule="evenodd" stroke="none"/>
      <path d="M0.1 -58.0 L2.1 -58.05 Q10.0 -57.95 15.35 -53.25 21.45 -48.1 21.35 -39.5 L21.2 0.0 17.8 0.0 -21.35 0.0 -21.25 -39.5 Q-21.05 -48.4 -14.85 -53.55 -9.25 -58.15 -1.3 -58.05 L0.1 -58.0 Q7.05 -57.55 12.0 -53.25 18.0 -48.1 17.95 -39.5 L17.8 0.0 M3.7 -11.9 Q3.75 -13.1 4.5 -13.95 5.3 -14.8 6.5 -14.8 7.65 -14.8 8.45 -13.95 L9.0 -13.15 9.3 -11.8 Q9.3 -10.55 8.45 -9.7 7.65 -8.8 6.5 -8.8 5.3 -8.8 4.5 -9.7 L3.95 -10.45 M3.7 -11.9 L3.7 -11.8 Q3.7 -11.05 3.95 -10.45 M8.9 -18.25 L-0.55 -21.7 -11.75 -16.0 M-13.5 -7.45 L-13.5 -15.1 -11.75 -16.0 M10.85 -7.45 L11.75 -7.45 11.75 -17.25 -1.95 -16.05 M10.85 -7.45 L-13.5 -7.45 M8.9 -18.25 L11.75 -17.25 M-6.85 -12.95 L-7.25 -13.45 Q-7.8 -14.1 -8.65 -14.1 -9.5 -14.1 -10.1 -13.45 -10.65 -12.85 -10.65 -12.0 L-10.65 -11.9 -10.5 -11.1 M-6.85 -12.9 L-6.85 -12.95 M-1.65 -11.1 L-1.5 -10.4 Q-1.5 -9.75 -1.9 -9.3 -2.35 -8.8 -2.95 -8.8 -3.55 -8.8 -4.0 -9.3 -4.4 -9.75 -4.4 -10.4 L-4.4 -10.45 M-1.65 -11.1 L-1.9 -11.5 Q-2.35 -11.95 -2.95 -11.95 -3.55 -11.95 -4.0 -11.5 -4.4 -11.05 -4.4 -10.45 M-6.85 -12.9 L-6.65 -11.9 Q-6.65 -11.0 -7.25 -10.4 -7.8 -9.7 -8.65 -9.7 -9.5 -9.7 -10.1 -10.4 -10.4 -10.7 -10.5 -11.1 M-13.5 -15.1 L-1.95 -16.05" fill="none" stroke="#000000" stroke-linecap="round" stroke-linejoin="round" stroke-opacity="0.3019608" stroke-width="0.30000000000000004"/>
      <path d="M2.55 -39.35 L2.6 -40.5 Q0.8 -41.0 0.1 -39.9 -0.65 -38.95 0.0 -37.35 L0.5 -36.9 1.45 -36.95 Q2.45 -37.6 3.0 -37.4 3.65 -37.2 4.1 -35.95 3.65 -32.8 -0.45 -34.15 L-0.45 -33.3 M2.6 -41.1 L2.6 -40.5 M8.9 -41.1 L8.9 -40.4 8.9 -39.6 M8.3 -36.65 L8.3 -37.3 5.65 -37.25 5.65 -34.15 8.95 -34.2 8.95 -35.0 M8.3 -37.95 L8.3 -37.3 M8.9 -40.4 L5.7 -40.35 5.65 -37.25 M6.15 -41.0 L4.8 -39.75 M8.95 -34.2 L8.95 -33.7 M5.05 -34.4 L6.25 -33.3 M-9.0 -40.2 L-8.15 -40.2 -7.0 -40.25 M-4.05 -40.2 L-2.8 -40.15 -1.6 -40.2 M-10.25 -39.45 L-10.25 -40.2 -13.65 -40.15 -13.7 -37.0 -10.85 -37.0 -10.85 -37.75 M-13.2 -40.85 L-14.5 -39.6 M-10.25 -40.95 L-10.25 -40.2 M-13.7 -37.0 L-13.75 -33.85 -10.2 -33.9 -10.2 -34.65 M-14.35 -34.15 L-13.1 -32.95 M-10.85 -36.4 L-10.85 -37.0 M-10.2 -33.9 L-10.2 -33.3 M-8.15 -40.2 L-8.2 -34.2 -4.1 -34.3 -4.1 -34.95 M-9.05 -34.65 L-7.45 -33.15 M-4.1 -34.3 L-2.9 -34.3 -2.8 -40.15 M-1.75 -34.3 L-2.9 -34.3 M-0.45 -34.9 L-0.45 -34.15 M-4.1 -34.3 L-4.1 -33.3" fill="none" stroke="#1c1912" stroke-linecap="round" stroke-linejoin="round" stroke-opacity="0.45882353" stroke-width="1.0"/>
      <path d="M12.95 -31.3 L-17.85 -31.3 -17.85 -42.85 12.95 -42.85 12.95 -31.3 Z" fill="none" stroke="#000000" stroke-linecap="round" stroke-linejoin="round" stroke-opacity="0.3019608" stroke-width="0.30000000000000004"/>
      <path d="M14.15 -29.6 L-19.1 -29.6 -19.1 -44.25 14.15 -44.25 14.15 -29.6 Z" fill="none" stroke="#000000" stroke-linecap="round" stroke-linejoin="round" stroke-opacity="0.3019608" stroke-width="0.30000000000000004"/>
      <path d="M4.15 -53.95 L5.2 -53.85 5.3 -53.25 Q5.3 -52.75 4.8 -52.35 4.25 -51.9 3.5 -51.9 L2.75 -52.05 2.7 -52.5 Q2.7 -53.95 4.15 -53.95 M12.1 -50.0 L12.2 -49.65 12.15 -49.25 Q12.1 -49.1 11.6 -49.1 L11.25 -49.15 11.1 -49.35 11.05 -49.65 11.4 -50.05 12.1 -50.0 M0.7 -47.45 L1.15 -47.05 0.7 -46.45 0.25 -46.7 0.25 -47.0 Q0.25 -47.3 0.7 -47.45 M0.55 -27.7 Q0.15 -27.7 -0.1 -28.0 L-0.15 -28.3 0.1 -28.7 1.2 -28.65 1.3 -28.3 Q1.3 -27.7 0.55 -27.7 M9.85 -25.2 L9.75 -24.85 9.3 -24.65 8.75 -24.75 8.75 -25.35 Q8.75 -25.85 9.1 -25.85 L9.85 -25.2 M13.75 -26.7 L13.75 -27.0 14.05 -27.4 14.75 -27.35 14.85 -27.0 14.8 -26.6 14.3 -26.45 13.9 -26.5 13.75 -26.7 M13.15 -22.0 L13.7 -21.55 13.6 -21.35 13.15 -20.95 12.85 -21.05 Q12.7 -21.15 12.7 -21.5 L12.9 -21.9 13.15 -22.0 M1.7 -3.25 L1.65 -3.6 Q1.65 -4.1 2.35 -4.2 L3.15 -4.2 3.25 -3.8 Q3.25 -3.05 2.35 -3.05 L1.85 -3.15 1.7 -3.25 M12.95 -4.95 Q14.3 -5.2 14.3 -4.0 14.3 -3.3 13.75 -2.85 13.3 -2.45 12.6 -2.45 11.75 -2.45 11.6 -2.9 L11.6 -3.4 Q11.6 -4.7 12.95 -4.95 M-6.5 -51.8 Q-6.5 -50.65 -7.35 -50.65 L-7.95 -50.75 -8.0 -51.35 Q-8.0 -52.7 -6.6 -52.2 L-6.5 -51.8 M-15.9 -48.2 Q-15.25 -48.5 -14.7 -47.65 -15.35 -46.45 -15.9 -46.45 L-16.45 -46.55 -16.5 -47.1 Q-16.5 -47.85 -15.9 -48.2 M-12.75 -25.2 L-12.6 -25.15 -12.6 -25.25 -12.75 -25.25 -12.75 -25.2 M-11.6 -25.3 Q-11.6 -24.7 -12.25 -24.05 -12.7 -23.55 -13.2 -23.45 L-13.75 -23.25 -14.05 -23.5 -14.6 -24.05 -14.6 -24.75 -14.45 -25.65 Q-14.0 -26.2 -12.3 -26.3 -11.6 -25.7 -11.6 -25.3 M-20.35 -14.05 Q-20.35 -15.15 -18.95 -15.6 -17.55 -16.0 -17.55 -14.9 -17.55 -14.4 -18.15 -13.75 -18.8 -13.1 -19.35 -13.1 -20.2 -13.1 -20.35 -13.55 L-20.35 -14.05 M-5.25 -24.5 L-4.45 -24.5 -4.35 -24.15 -4.6 -23.6 -5.0 -23.25 Q-5.45 -23.4 -5.45 -23.95 L-5.25 -24.5 M-14.9 -2.6 Q-14.95 -2.45 -15.45 -2.45 L-15.8 -2.5 -15.95 -2.7 -16.0 -3.0 -15.65 -3.4 -14.95 -3.35 -14.85 -3.0 -14.9 -2.6 M-7.65 -2.45 L-9.25 -2.45 -10.3 -3.05 -10.0 -3.7 -7.55 -4.1 Q-7.05 -3.8 -7.05 -3.35 -7.05 -2.95 -7.65 -2.45" fill="#000000" fill-opacity="0.16078432" fill-rule="evenodd" stroke="none"/>
    </g>
    <linearGradient gradientTransform="matrix(0.0042, 0.0413, -0.0329, 0.0039, -1.75, -29.05)" gradientUnits="userSpaceOnUse" id="decoration115-gradient0" spreadMethod="pad" x1="-819.2" x2="819.2">
      <stop offset="0.0" stop-color="#9f9f9f"/>
      <stop offset="1.0" stop-color="#646464"/>
    </linearGradient>
  </defs>
</svg>
