<?xml version="1.0" encoding="UTF-8" standalone="no"?>
<svg xmlns:xlink="http://www.w3.org/1999/xlink" height="72.3px" width="54.15px" xmlns="http://www.w3.org/2000/svg">
  <g transform="matrix(1.0, 0.0, 0.0, 1.0, 27.05, 72.1)">
    <use height="72.3" transform="matrix(1.0, 0.0, 0.0, 1.0, -27.05, -72.1)" width="54.15" xlink:href="#decoration116-shape0"/>
  </g>
  <defs>
    <g id="decoration116-shape0" transform="matrix(1.0, 0.0, 0.0, 1.0, 27.05, 72.1)">
      <path d="M11.2 -53.9 L3.3 -53.9 1.6 -55.25 10.3 -55.25 11.2 -53.9 M20.4 -53.9 L19.35 -55.25 26.95 -55.25 26.95 -53.9 20.4 -53.9 M-26.9 -46.4 L-26.9 -49.0 -26.3 -49.25 -26.4 -48.7 -26.9 -46.4 M-16.5 -55.25 L-5.7 -55.25 -7.5 -53.9 -18.0 -53.9 -16.5 -55.25" fill="#a86f2c" fill-rule="evenodd" stroke="none"/>
      <path d="M3.3 -53.9 L11.2 -53.9 Q13.1 -51.05 15.55 -48.7 L6.45 -48.7 Q5.9 -51.45 3.3 -53.9 M20.4 -53.9 L26.95 -53.9 26.95 -49.75 Q23.05 -50.8 20.4 -53.9 M-18.0 -53.9 L-7.5 -53.9 Q-10.8 -51.3 -12.85 -48.7 L-26.4 -48.7 -26.3 -49.25 Q-21.4 -51.15 -18.0 -53.9" fill="#85551c" fill-rule="evenodd" stroke="none"/>
      <path d="M11.2 -53.9 L10.3 -55.25 19.35 -55.25 20.4 -53.9 11.2 -53.9 M1.6 -55.25 L3.3 -53.9 -7.5 -53.9 -5.7 -55.25 1.6 -55.25 M-26.9 -49.0 L-26.9 -55.25 -16.5 -55.25 -18.0 -53.9 -25.45 -53.9 -26.3 -49.25 -26.9 -49.0" fill="#85561e" fill-rule="evenodd" stroke="none"/>
      <path d="M3.3 -53.9 Q5.9 -51.45 6.45 -48.7 L-12.85 -48.7 Q-10.8 -51.3 -7.5 -53.9 L3.3 -53.9 M15.55 -48.7 Q13.1 -51.05 11.2 -53.9 L20.4 -53.9 Q23.05 -50.8 26.95 -49.75 L26.95 -48.7 15.55 -48.7 M-26.3 -49.25 L-25.45 -53.9 -18.0 -53.9 Q-21.4 -51.15 -26.3 -49.25" fill="#744610" fill-rule="evenodd" stroke="none"/>
      <path d="M6.45 -48.7 L15.55 -48.7 18.2 -46.4 6.55 -46.4 6.45 -48.7 M-14.4 -46.4 L-26.9 -46.4 -26.4 -48.7 -12.85 -48.7 -14.4 -46.4" fill="#58350a" fill-rule="evenodd" stroke="none"/>
      <path d="M26.95 -48.7 L26.95 -46.4 18.2 -46.4 15.55 -48.7 26.95 -48.7 M6.55 -46.4 L-14.4 -46.4 -12.85 -48.7 6.45 -48.7 6.55 -46.4" fill="#4f2d04" fill-rule="evenodd" stroke="none"/>
      <path d="M10.3 -55.25 L1.6 -55.25 M19.35 -55.25 L10.3 -55.25 M26.95 -53.9 L26.95 -55.25 19.35 -55.25 M26.95 -53.9 L26.95 -49.75 26.95 -48.7 26.95 -46.4 18.2 -46.4 6.55 -46.4 -14.4 -46.4 -26.9 -46.4 -26.9 -49.0 -26.9 -55.25 -16.5 -55.25 -5.7 -55.25 1.6 -55.25" fill="none" stroke="#000000" stroke-linecap="round" stroke-linejoin="round" stroke-opacity="0.3019608" stroke-width="0.30000000000000004"/>
      <path d="M16.45 -53.35 L22.9 -53.35 M8.55 -51.15 L23.35 -51.15 M-17.55 -50.8 L-10.8 -50.8 M-2.15 -52.95 L3.55 -52.95" fill="none" stroke="#000000" stroke-linecap="round" stroke-linejoin="round" stroke-opacity="0.16862746" stroke-width="0.4"/>
      <path d="M-2.95 -70.8 Q-0.55 -73.0 2.4 -70.7 2.4 -52.45 0.9 -40.25 1.3 0.5 -2.95 -5.45 L-2.95 -70.8 M0.9 -56.25 L0.9 -68.05 0.9 -56.25 M-1.65 -16.05 L-1.65 -32.65 -1.65 -16.05 M-1.65 -45.2 L-1.9 -63.7 -1.65 -45.2" fill="#85551c" fill-rule="evenodd" stroke="none"/>
      <path d="M2.4 -70.7 L3.6 -69.75 3.6 -14.9 2.2 -20.1 3.0 -3.25 2.2 -5.45 1.3 -4.05 -1.8 -3.95 -2.5 -1.5 -4.25 -5.35 -4.25 -7.3 -3.95 -7.3 -2.95 -5.45 Q1.3 0.5 0.9 -40.25 2.4 -52.45 2.4 -70.7 M1.3 -4.05 L1.3 -4.9 Q1.0 -10.1 1.3 -4.05 1.65 -7.3 1.65 -12.2 1.65 -7.3 1.3 -4.05 M2.05 -21.6 L1.8 -40.1 2.05 -21.6" fill="#4f2d04" fill-rule="evenodd" stroke="none"/>
      <path d="M3.6 -14.9 L3.6 0.0 -1.2 0.0 -4.25 0.0 -4.25 -5.35 -2.5 -1.5 -1.8 -3.95 1.3 -4.05 2.2 -5.45 3.0 -3.25 2.2 -20.1 3.6 -14.9 M-1.2 0.0 L-1.8 -3.95 -1.2 0.0 M1.3 -4.05 Q1.0 -10.1 1.3 -4.9 L1.3 -4.05" fill="#4b4f04" fill-rule="evenodd" stroke="none"/>
      <path d="M-4.25 -7.3 L-4.25 -69.75 -2.95 -70.8 -2.95 -5.45 -3.95 -7.3 -4.25 -7.3" fill="#a3651c" fill-rule="evenodd" stroke="none"/>
      <path d="M0.9 -68.05 L0.9 -56.25 M-1.8 -3.95 L-1.2 0.0 M1.3 -4.05 Q1.65 -7.3 1.65 -12.2 M1.8 -40.1 L2.05 -21.6 M-1.65 -32.65 L-1.65 -16.05 M-1.9 -63.7 L-1.65 -45.2" fill="none" stroke="#000000" stroke-linecap="round" stroke-linejoin="round" stroke-opacity="0.16862746" stroke-width="0.4"/>
      <path d="M2.4 -70.7 L3.6 -69.75 3.6 -14.9 3.6 0.0 -1.2 0.0 -4.25 0.0 -4.25 -5.35 -4.25 -7.3 -4.25 -69.75 -2.95 -70.8 Q-0.55 -73.0 2.4 -70.7" fill="none" stroke="#000000" stroke-linecap="round" stroke-linejoin="round" stroke-opacity="0.3882353" stroke-width="0.4"/>
      <path d="M10.65 -37.5 L11.35 -37.9 12.7 -36.95 12.1 -36.45 12.1 -36.5 10.65 -37.5" fill="#774307" fill-rule="evenodd" stroke="none"/>
      <path d="M11.35 -37.9 L10.65 -37.5 7.75 -37.5 0.75 -37.5 -0.5 -37.5 -6.95 -37.5 -6.95 -37.25 -6.95 -37.2 -13.2 -36.2 -14.4 -31.05 -14.4 -36.5 -13.4 -37.5 -12.7 -37.9 11.35 -37.9" fill="#9c5e12" fill-rule="evenodd" stroke="none"/>
      <path d="M10.65 -37.5 L12.1 -36.5 12.1 -36.45 12.1 -33.05 11.95 -33.05 Q10.0 -33.05 8.7 -33.85 7.35 -34.65 7.3 -35.8 L7.3 -35.95 Q7.3 -36.8 7.6 -37.25 L7.75 -37.5 10.65 -37.5 M-0.5 -37.5 L0.75 -37.5 0.1 -36.9 -0.5 -37.5 M10.3 -35.8 L7.3 -35.8 10.3 -35.8 M-1.1 -29.95 L-0.05 -29.5 Q1.2 -28.95 2.15 -28.75 L7.35 -28.05 7.6 -28.05 12.1 -28.65 12.1 -26.6 11.95 -26.4 10.45 -26.9 9.65 -25.5 Q9.1 -24.85 8.2 -25.05 L8.05 -25.4 8.0 -25.1 7.0 -26.15 6.95 -25.7 6.65 -24.95 Q6.25 -23.8 5.15 -24.35 L4.35 -24.35 3.45 -24.2 -0.55 -25.65 -0.6 -25.65 -0.8 -25.75 -5.3 -27.6 -6.0 -27.8 Q-4.7 -28.1 -1.1 -29.95 M0.75 -25.75 L6.95 -25.7 0.75 -25.75 M8.05 -26.75 L8.05 -25.4 8.05 -26.75 M9.3 -27.85 L7.35 -28.05 9.3 -27.85" fill="#643a09" fill-rule="evenodd" stroke="none"/>
      <path d="M0.75 -37.5 L7.75 -37.5 7.6 -37.25 Q7.3 -36.8 7.3 -35.95 L7.3 -35.8 5.25 -35.8 7.3 -35.8 Q7.35 -34.65 8.7 -33.85 10.0 -33.05 11.95 -33.05 L12.1 -33.05 12.1 -28.65 7.6 -28.05 7.35 -28.05 2.15 -28.75 Q1.2 -28.95 -0.05 -29.5 L-1.1 -29.95 Q1.75 -32.8 1.75 -33.85 1.75 -35.3 0.1 -36.9 L0.75 -37.5 M3.45 -24.2 L2.0 -24.0 0.55 -24.05 Q0.05 -24.2 -0.25 -24.55 L-0.55 -25.65 3.45 -24.2 M-0.6 -25.65 Q-0.75 -24.75 -1.5 -24.25 -2.35 -23.7 -3.35 -24.0 L-4.85 -24.2 -7.0 -24.5 Q-8.3 -24.75 -7.95 -25.4 -8.7 -24.4 -11.2 -24.4 L-12.65 -24.2 -13.75 -24.75 -14.4 -25.1 -14.4 -26.95 -10.25 -27.35 -6.0 -27.8 -5.3 -27.6 -0.8 -25.75 -0.6 -25.65 M-3.45 -26.45 L-10.95 -26.45 -3.45 -26.45 M-11.0 -24.9 L-13.75 -24.75 -11.0 -24.9" fill="#563106" fill-rule="evenodd" stroke="none"/>
      <path d="M-14.4 -31.05 L-13.2 -36.2 -6.95 -37.2 -7.75 -35.45 -8.8 -35.45 -7.75 -35.45 -10.6 -32.6 -13.35 -32.7 -10.8 -32.45 -14.4 -31.05 M0.1 -36.9 Q1.75 -35.3 1.75 -33.85 1.75 -32.8 -1.1 -29.95 -2.45 -31.45 -2.45 -32.05 L-2.45 -32.2 0.5 -32.2 -2.45 -32.3 Q-2.3 -33.7 -1.1 -35.45 L0.1 -36.9 M-14.4 -28.05 L-10.65 -28.4 -6.0 -27.8 -10.25 -27.35 -14.4 -26.95 -14.4 -28.05 M-0.3 -35.45 L-1.1 -35.45 -0.3 -35.45 M-11.7 -34.65 L-10.05 -34.65 -11.7 -34.65" fill="#744610" fill-rule="evenodd" stroke="none"/>
      <path d="M3.45 -24.2 L4.35 -24.35 5.15 -24.35 Q6.25 -23.8 6.65 -24.95 L6.95 -25.7 7.0 -26.15 8.0 -25.1 7.6 -23.8 5.0 -23.8 -13.45 -23.8 -14.4 -25.1 -13.75 -24.75 -12.65 -24.2 -11.2 -24.4 Q-8.7 -24.4 -7.95 -25.4 -8.3 -24.75 -7.0 -24.5 L-4.85 -24.2 -3.35 -24.0 Q-2.35 -23.7 -1.5 -24.25 -0.75 -24.75 -0.6 -25.65 L-0.55 -25.65 -0.25 -24.55 Q0.05 -24.2 0.55 -24.05 L2.0 -24.0 3.45 -24.2 5.0 -23.8 3.45 -24.2 M8.2 -25.05 Q9.1 -24.85 9.65 -25.5 L10.45 -26.9 11.95 -26.4 12.1 -26.6 12.1 -25.35 10.65 -23.8 8.45 -23.8 8.3 -24.45 8.2 -25.05" fill="#4b4f04" fill-rule="evenodd" stroke="none"/>
      <path d="M8.0 -25.1 L8.05 -25.4 8.2 -25.05 8.3 -24.45 7.6 -23.8 8.0 -25.1" fill="#272a00" fill-rule="evenodd" stroke="none"/>
      <path d="M12.1 -36.45 L12.7 -36.95 12.7 -25.85 12.1 -25.35 12.1 -26.6 12.1 -28.65 12.1 -33.05 12.1 -36.45" fill="#381e00" fill-rule="evenodd" stroke="none"/>
      <path d="M-6.95 -37.2 L-6.95 -37.25 -6.95 -37.5 -0.5 -37.5 -6.95 -37.2 M-10.8 -32.45 L-10.6 -32.6 -10.8 -32.45 -13.35 -32.7 -10.6 -32.6 -2.45 -32.3 0.5 -32.2 -2.45 -32.2 -8.35 -32.2 -10.8 -32.45 M-2.45 -32.3 L-2.45 -32.2 -2.45 -32.3" fill="#aa6614" fill-rule="evenodd" stroke="none"/>
      <path d="M-0.5 -37.5 L0.1 -36.9 -1.1 -35.45 -7.75 -35.45 -1.1 -35.45 Q-2.3 -33.7 -2.45 -32.3 L-10.6 -32.6 -7.75 -35.45 -6.95 -37.2 -0.5 -37.5 M-10.8 -32.45 L-8.35 -32.2 -2.45 -32.2 -2.45 -32.05 Q-2.45 -31.45 -1.1 -29.95 -4.7 -28.1 -6.0 -27.8 L-10.65 -28.4 -14.4 -28.05 -14.4 -31.05 -10.8 -32.45" fill="#85551c" fill-rule="evenodd" stroke="none"/>
      <path d="M11.35 -37.9 L10.65 -37.5 M12.1 -36.5 L12.1 -36.45 12.7 -36.95 M-6.95 -37.5 L-0.5 -37.5 M12.1 -33.05 L12.1 -36.45 M12.1 -28.65 L12.1 -33.05 M12.1 -26.6 L12.1 -28.65" fill="none" stroke="#000000" stroke-linecap="round" stroke-linejoin="round" stroke-opacity="0.3019608" stroke-width="0.2"/>
      <path d="M-6.95 -37.2 L-6.95 -37.25 -6.95 -37.5 M7.75 -37.5 L7.6 -37.25 Q7.3 -36.8 7.3 -35.95 L7.3 -35.8 Q7.35 -34.65 8.7 -33.85 10.0 -33.05 11.95 -33.05 L12.1 -33.05 M-1.1 -29.95 L-0.05 -29.5 Q1.2 -28.95 2.15 -28.75 L7.35 -28.05 7.6 -28.05 12.1 -28.65 M0.75 -37.5 L0.1 -36.9 M-6.95 -37.2 L-7.75 -35.45 M-1.1 -35.45 L0.1 -36.9 M-0.55 -25.65 L-0.6 -25.65 M5.0 -23.8 L3.45 -24.2 -0.55 -25.65 M-10.6 -32.6 L-10.8 -32.45 -14.4 -31.05 M-2.45 -32.2 L-2.45 -32.3 Q-2.3 -33.7 -1.1 -35.45 M-14.4 -28.05 L-10.65 -28.4 -6.0 -27.8 -5.3 -27.6 -0.8 -25.75 -0.6 -25.65 M-1.1 -29.95 Q-2.45 -31.45 -2.45 -32.05 L-2.45 -32.2 M-10.6 -32.6 L-7.75 -35.45" fill="none" stroke="#000000" stroke-linecap="round" stroke-linejoin="round" stroke-opacity="0.101960786" stroke-width="0.4"/>
      <path d="M7.3 -35.8 L10.3 -35.8 M7.3 -35.8 L5.25 -35.8 M6.95 -25.7 L0.75 -25.75 M7.35 -28.05 L9.3 -27.85 M-7.75 -35.45 L-1.1 -35.45 -0.3 -35.45 M-7.75 -35.45 L-8.8 -35.45 M-10.95 -26.45 L-3.45 -26.45 M-10.05 -34.65 L-11.7 -34.65 M-13.75 -24.75 L-11.0 -24.9" fill="none" stroke="#000000" stroke-linecap="round" stroke-linejoin="round" stroke-opacity="0.2" stroke-width="0.4"/>
      <path d="M12.7 -36.95 L11.35 -37.9 -12.7 -37.9 -13.4 -37.5 -14.4 -36.5 -14.4 -31.05 -14.4 -28.05 M8.0 -25.1 L8.05 -25.4 8.05 -26.75 M8.05 -25.4 L8.2 -25.05 8.3 -24.45 8.45 -23.8 10.65 -23.8 12.1 -25.35 12.1 -26.6 M12.1 -25.35 L12.7 -25.85 12.7 -36.95 M-14.4 -25.1 L-13.45 -23.8 5.0 -23.8 M8.3 -24.45 L7.6 -23.8 5.0 -23.8 M7.6 -23.8 L8.0 -25.1 M-14.4 -26.95 L-14.4 -28.05 M-14.4 -26.95 L-14.4 -25.1" fill="none" stroke="#000000" stroke-linecap="round" stroke-linejoin="round" stroke-opacity="0.3882353" stroke-width="0.4"/>
      <path d="M-0.5 -37.5 L0.75 -37.5" fill="none" stroke="#000000" stroke-linecap="round" stroke-linejoin="round" stroke-opacity="0.3882353" stroke-width="0.2"/>
      <path d="M1.75 -33.05 L1.8 -33.4 1.95 -33.4 1.75 -33.05 1.7 -33.0 1.7 -32.95 Q1.7 -31.8 2.45 -30.55 L3.95 -27.75 5.05 -29.85 5.3 -30.45 5.3 -30.85 5.5 -30.85 5.85 -31.8 5.95 -32.7 5.95 -32.6 5.85 -31.8 5.65 -30.85 6.3 -30.85 11.15 -30.65 10.2 -30.25 Q9.9 -30.1 9.9 -29.65 9.9 -29.3 10.2 -29.05 L10.55 -28.7 M5.65 -30.85 L5.45 -29.4 5.3 -29.4 5.3 -30.45 5.5 -30.85 5.65 -30.85 M-13.15 -28.6 L-12.6 -28.15 Q-11.5 -28.15 -10.9 -29.9 L-10.8 -30.2 -10.85 -30.2 -11.05 -31.2 Q-11.05 -32.75 -9.6 -33.3 L-10.8 -30.2 Q-10.35 -30.25 -9.3 -30.85 L-9.3 -30.95 -9.25 -28.75 Q-8.95 -27.35 -7.65 -27.35 -5.45 -27.35 -4.35 -28.9 L-3.6 -30.1 Q-5.35 -30.6 -5.35 -31.4 -5.35 -32.75 -4.0 -33.75 -3.3 -34.25 -2.65 -34.45 L-1.85 -34.35 -1.85 -33.4 -3.6 -30.1 -2.85 -29.95 -1.3 -29.75 -0.65 -30.4 1.7 -33.0 M-1.3 -29.75 L0.45 -29.9 Q-0.1 -28.8 -1.1 -28.05 -2.2 -27.3 -2.95 -27.45 L-3.05 -27.7 -1.3 -29.75" fill="none" stroke="#000000" stroke-linecap="round" stroke-linejoin="round" stroke-opacity="0.6117647" stroke-width="0.4"/>
    </g>
  </defs>
</svg>
