<?xml version="1.0" encoding="UTF-8" standalone="no"?>
<svg xmlns:ffdec="https://www.free-decompiler.com/flash" xmlns:xlink="http://www.w3.org/1999/xlink" ffdec:objectType="frame" height="57.75px" width="53.0px" xmlns="http://www.w3.org/2000/svg">
  <g transform="matrix(1.0, 0.0, 0.0, 1.0, 26.5, 57.15)">
    <use ffdec:characterId="498" height="57.4" transform="matrix(1.0, 0.0, 0.0, 1.0, -25.3, -57.15)" width="50.65" xlink:href="#decoration118-shape0"/>
    <use ffdec:characterId="500" height="21.25" transform="matrix(0.3036, 0.0, 0.0, 0.4, -8.2458, -41.0402)" width="73.3" xlink:href="#decoration118-text0"/>
    <use ffdec:characterId="501" height="4.35" transform="matrix(1.0, 0.0, 0.0, 1.0, -26.5, -3.75)" width="53.0" xlink:href="#decoration118-shape1"/>
  </g>
  <defs>
    <g id="decoration118-shape0" transform="matrix(1.0, 0.0, 0.0, 1.0, 25.3, 57.15)">
      <path d="M3.8 -53.65 L3.8 -53.6 Q4.1 -52.6 5.7 -52.15 7.55 -51.6 9.4 -52.6 10.1 -53.0 10.1 -53.65 L9.9 -54.15 8.85 -55.05 6.7 -55.25 4.95 -54.8 Q3.8 -54.35 3.8 -53.65 M-20.7 -48.35 L-19.45 -50.6 Q-1.7 -54.95 16.45 -56.9 L20.65 -51.05 Q0.15 -48.65 -20.7 -48.35 M-9.3 -51.55 Q-9.05 -50.2 -7.7 -50.35 -7.0 -50.45 -6.35 -50.85 -5.85 -51.8 -6.7 -52.4 L-7.9 -52.75 Q-8.8 -52.6 -9.15 -52.1 L-9.3 -51.55" fill="#ada69b" fill-rule="evenodd" stroke="none"/>
      <path d="M9.4 -52.6 Q7.55 -51.6 5.7 -52.15 4.1 -52.6 3.8 -53.6 L3.8 -53.65 5.9 -54.2 8.6 -53.65 9.3 -53.0 9.4 -52.6" fill="url(#decoration118-gradient0)" fill-rule="evenodd" stroke="none"/>
      <path d="M3.8 -53.65 Q3.8 -54.35 4.95 -54.8 L6.7 -55.25 Q5.85 -55.05 5.8 -54.65 L5.9 -54.2 3.8 -53.65 M9.9 -54.15 L10.1 -53.65 Q10.1 -53.0 9.4 -52.6 L9.3 -53.0 9.65 -53.5 9.9 -54.15 M-9.3 -51.55 L-9.15 -52.1 Q-8.8 -52.6 -7.9 -52.75 L-6.7 -52.4 Q-5.85 -51.8 -6.35 -50.85 -6.55 -52.05 -7.75 -52.1 -8.85 -52.15 -9.3 -51.55" fill="#d1cabc" fill-rule="evenodd" stroke="none"/>
      <path d="M6.7 -55.25 L8.85 -55.05 9.9 -54.15 9.65 -53.5 9.3 -53.0 8.6 -53.65 5.9 -54.2 5.8 -54.65 Q5.85 -55.05 6.7 -55.25" fill="#fff6e5" fill-rule="evenodd" stroke="none"/>
      <path d="M20.65 -51.05 Q21.35 -31.85 19.75 -9.7 L-19.9 -9.7 Q-20.8 -21.0 -20.4 -31.0 -18.65 -30.05 -17.5 -30.8 -16.45 -31.45 -16.4 -32.85 -16.35 -34.2 -17.3 -34.85 -18.4 -35.6 -20.25 -34.6 -21.0 -41.75 -20.7 -48.35 0.15 -48.65 20.65 -51.05 M11.25 -40.5 Q15.25 -38.6 17.2 -40.1 18.35 -40.95 18.5 -42.5 18.8 -44.65 17.5 -46.7 L16.1 -48.25 11.95 -48.0 Q10.7 -47.2 10.35 -45.3 10.05 -43.8 10.4 -42.15 10.75 -40.6 11.25 -40.5 M-1.3 -43.5 L0.8 -43.4 Q1.2 -43.7 1.25 -44.25 1.35 -44.95 0.9 -45.65 L0.4 -46.2 -1.0 -46.15 -1.6 -45.2 -1.55 -44.1 -1.3 -43.5 M-0.95 -27.15 Q0.8 -26.15 1.95 -26.95 2.7 -27.45 2.75 -28.2 2.9 -29.3 2.25 -30.35 L1.5 -31.1 Q-1.1 -31.9 -1.5 -29.65 -1.65 -28.85 -1.45 -28.0 -1.25 -27.2 -0.95 -27.15 M12.95 -27.05 Q6.25 -24.2 7.2 -19.7 7.45 -18.3 8.5 -16.9 L9.5 -15.75 Q12.55 -13.95 15.1 -15.2 17.35 -16.3 18.15 -19.1 18.95 -21.85 17.7 -24.1 16.35 -26.7 12.95 -27.05 M-12.05 -44.8 L-14.6 -44.7 Q-15.4 -44.2 -15.55 -43.05 -15.75 -42.1 -15.55 -41.05 -15.35 -40.1 -15.05 -40.05 -12.55 -38.85 -11.35 -39.75 -10.65 -40.3 -10.5 -41.3 -10.35 -42.6 -11.15 -43.85 L-12.05 -44.8 M-17.45 -23.35 Q-17.0 -22.75 -15.8 -22.7 -14.2 -22.55 -13.85 -24.75 -13.7 -25.55 -14.35 -26.3 L-15.05 -27.0 Q-16.75 -27.6 -17.6 -26.05 -18.45 -24.6 -17.45 -23.35 M-10.35 -15.95 Q-9.65 -15.0 -7.35 -14.85 -4.4 -14.65 -3.7 -18.2 -3.4 -19.45 -4.55 -20.7 -5.35 -21.55 -6.0 -21.75 -9.1 -22.75 -10.7 -20.25 -12.25 -17.95 -10.35 -15.95" fill="url(#decoration118-gradient1)" fill-rule="evenodd" stroke="none"/>
      <path d="M16.1 -48.25 L17.5 -46.7 Q18.8 -44.65 18.5 -42.5 18.35 -40.95 17.2 -40.1 15.25 -38.6 11.25 -40.5 13.7 -39.8 15.45 -41.4 17.8 -43.4 16.1 -48.25 M0.4 -46.2 L0.9 -45.65 Q1.35 -44.95 1.25 -44.25 1.2 -43.7 0.8 -43.4 L-1.3 -43.5 Q-0.4 -43.3 0.2 -43.85 1.0 -44.55 0.4 -46.2 M-12.05 -44.8 L-11.15 -43.85 Q-10.35 -42.6 -10.5 -41.3 -10.65 -40.3 -11.35 -39.75 -12.55 -38.85 -15.05 -40.05 -13.5 -39.6 -12.4 -40.6 -10.95 -41.85 -12.05 -44.8" fill="#a59c91" fill-rule="evenodd" stroke="none"/>
      <path d="M11.25 -40.5 Q10.75 -40.6 10.4 -42.15 10.05 -43.8 10.35 -45.3 10.7 -47.2 11.95 -48.0 L16.1 -48.25 Q17.8 -43.4 15.45 -41.4 13.7 -39.8 11.25 -40.5 M0.4 -46.2 Q1.0 -44.55 0.2 -43.85 -0.4 -43.3 -1.3 -43.5 L-1.55 -44.1 -1.6 -45.2 -1.0 -46.15 0.4 -46.2 M-15.05 -40.05 Q-15.35 -40.1 -15.55 -41.05 -15.75 -42.1 -15.55 -43.05 -15.4 -44.2 -14.6 -44.7 L-12.05 -44.8 Q-10.95 -41.85 -12.4 -40.6 -13.5 -39.6 -15.05 -40.05" fill="#6b665e" fill-rule="evenodd" stroke="none"/>
      <path d="M-0.95 -27.15 L0.1 -27.25 1.15 -28.0 Q2.35 -29.3 1.5 -31.1 L2.25 -30.35 Q2.9 -29.3 2.75 -28.2 2.7 -27.45 1.95 -26.95 0.8 -26.15 -0.95 -27.15" fill="#877f78" fill-rule="evenodd" stroke="none"/>
      <path d="M1.5 -31.1 Q2.35 -29.3 1.15 -28.0 L0.1 -27.25 -0.95 -27.15 Q-1.25 -27.2 -1.45 -28.0 -1.65 -28.85 -1.5 -29.65 -1.1 -31.9 1.5 -31.1 M9.5 -15.75 L8.5 -16.9 Q7.45 -18.3 7.2 -19.7 6.25 -24.2 12.95 -27.05 14.8 -25.55 15.35 -23.5 15.85 -21.6 15.15 -19.75 14.5 -17.95 13.0 -16.85 11.45 -15.7 9.5 -15.75 M-15.05 -27.0 Q-14.55 -25.95 -14.8 -24.6 -15.1 -22.75 -17.45 -23.35 -18.45 -24.6 -17.6 -26.05 -16.75 -27.6 -15.05 -27.0 M-6.0 -21.75 Q-5.0 -20.15 -5.4 -17.95 -6.0 -14.95 -10.35 -15.95 -12.25 -17.95 -10.7 -20.25 -9.1 -22.75 -6.0 -21.75" fill="#4c4943" fill-rule="evenodd" stroke="none"/>
      <path d="M12.95 -27.05 Q16.35 -26.7 17.7 -24.1 18.95 -21.85 18.15 -19.1 17.35 -16.3 15.1 -15.2 12.55 -13.95 9.5 -15.75 11.45 -15.7 13.0 -16.85 14.5 -17.95 15.15 -19.75 15.85 -21.6 15.35 -23.5 14.8 -25.55 12.95 -27.05" fill="#7c786f" fill-rule="evenodd" stroke="none"/>
      <path d="M-6.35 -50.85 Q-7.0 -50.45 -7.7 -50.35 -9.05 -50.2 -9.3 -51.55 -8.85 -52.15 -7.75 -52.1 -6.55 -52.05 -6.35 -50.85" fill="url(#decoration118-gradient2)" fill-rule="evenodd" stroke="none"/>
      <path d="M-15.05 -27.0 L-14.35 -26.3 Q-13.7 -25.55 -13.85 -24.75 -14.2 -22.55 -15.8 -22.7 -17.0 -22.75 -17.45 -23.35 -15.1 -22.75 -14.8 -24.6 -14.55 -25.95 -15.05 -27.0 M-6.0 -21.75 Q-5.35 -21.55 -4.55 -20.7 -3.4 -19.45 -3.7 -18.2 -4.4 -14.65 -7.35 -14.85 -9.65 -15.0 -10.35 -15.95 -6.0 -14.95 -5.4 -17.95 -5.0 -20.15 -6.0 -21.75" fill="#7a756d" fill-rule="evenodd" stroke="none"/>
      <path d="M-20.7 -48.35 L-19.45 -50.6 Q-1.7 -54.95 16.45 -56.9 L20.65 -51.05 Q21.35 -31.85 19.75 -9.7 L-19.9 -9.7 Q-20.8 -21.0 -20.4 -31.0 -18.65 -30.05 -17.5 -30.8 -16.45 -31.45 -16.4 -32.85 -16.35 -34.2 -17.3 -34.85 -18.4 -35.6 -20.25 -34.6 -21.0 -41.75 -20.7 -48.35 Z" fill="none" stroke="#000000" stroke-linecap="round" stroke-linejoin="round" stroke-opacity="0.4117647" stroke-width="0.5"/>
      <path d="M20.85 -11.15 L25.1 -11.1 25.1 0.0 -25.05 0.0 -25.05 -2.6 Q7.9 -3.15 20.85 -11.15" fill="#3f3c35" fill-rule="evenodd" stroke="none"/>
      <path d="M-25.05 -2.6 L-25.05 -11.2 Q-1.95 -11.5 20.85 -11.15 7.9 -3.15 -25.05 -2.6" fill="url(#decoration118-gradient3)" fill-rule="evenodd" stroke="none"/>
      <path d="M20.85 -11.15 L25.1 -11.1 25.1 0.0 -25.05 0.0 -25.05 -2.6 -25.05 -11.2 Q-1.95 -11.5 20.85 -11.15 Z" fill="none" stroke="#000000" stroke-linecap="round" stroke-linejoin="round" stroke-opacity="0.29803923" stroke-width="0.5"/>
    </g>
    <linearGradient gradientTransform="matrix(-1.0E-4, 0.0013, -0.0013, -2.0E-4, 6.95, -52.25)" gradientUnits="userSpaceOnUse" id="decoration118-gradient0" spreadMethod="pad" x1="-819.2" x2="819.2">
      <stop offset="0.0" stop-color="#948c85"/>
      <stop offset="0.9764705882352941" stop-color="#544b4b"/>
    </linearGradient>
    <linearGradient gradientTransform="matrix(0.0, 0.0187, -0.0106, -1.0E-4, -66.3, -32.15)" gradientUnits="userSpaceOnUse" id="decoration118-gradient1" spreadMethod="pad" x1="-819.2" x2="819.2">
      <stop offset="0.0" stop-color="#918b81"/>
      <stop offset="1.0" stop-color="#666159"/>
    </linearGradient>
    <linearGradient gradientTransform="matrix(-1.0E-4, 0.0016, -0.0011, -2.0E-4, -13.3, -51.65)" gradientUnits="userSpaceOnUse" id="decoration118-gradient2" spreadMethod="pad" x1="-819.2" x2="819.2">
      <stop offset="0.0" stop-color="#948c85"/>
      <stop offset="0.9764705882352941" stop-color="#544f4a"/>
    </linearGradient>
    <linearGradient gradientTransform="matrix(9.0E-4, 0.0106, -0.0069, 6.0E-4, -0.15, -8.6)" gradientUnits="userSpaceOnUse" id="decoration118-gradient3" spreadMethod="pad" x1="-819.2" x2="819.2">
      <stop offset="0.050980392156862744" stop-color="#8c8473"/>
      <stop offset="1.0" stop-color="#5b574f"/>
    </linearGradient>
    <g id="decoration118-text0" transform="matrix(1.0, 0.0, 0.0, 1.0, -88.95, -4.15)">
      <g transform="matrix(1.0, 0.0, 0.0, 1.0, 88.3, 0.0)">
        <use fill="#383530" height="21.25" transform="matrix(0.0264, 0.0, 0.0, 0.0264, 0.0, 24.0)" width="73.3" xlink:href="#decoration118-font_Times_New_Roman_R0"/>
        <use fill="#383530" height="21.25" transform="matrix(0.0264, 0.0, 0.0, 0.0264, 18.0, 24.0)" width="73.3" xlink:href="#decoration118-font_Times_New_Roman_.0"/>
        <use fill="#383530" height="21.25" transform="matrix(0.0264, 0.0, 0.0, 0.0264, 24.75, 24.0)" width="73.3" xlink:href="#decoration118-font_Times_New_Roman_I0"/>
        <use fill="#383530" height="21.25" transform="matrix(0.0264, 0.0, 0.0, 0.0264, 33.75, 24.0)" width="73.3" xlink:href="#decoration118-font_Times_New_Roman_.0"/>
        <use fill="#383530" height="21.25" transform="matrix(0.0264, 0.0, 0.0, 0.0264, 40.5, 24.0)" width="73.3" xlink:href="#decoration118-font_Times_New_Roman_P0"/>
      </g>
    </g>
    <g id="decoration118-font_Times_New_Roman_R0">
      <path d="M210.5 -348.5 L210.5 -630.5 Q260.0 -640.0 289.0 -640.0 354.5 -640.0 394.5 -600.0 434.0 -560.5 434.0 -497.0 434.0 -432.0 385.0 -390.0 335.5 -348.0 238.5 -348.0 234.0 -348.0 227.0 -348.0 220.0 -348.5 210.5 -348.5 M692.0 0.0 L692.0 -18.5 Q636.5 -24.5 602.0 -46.5 567.5 -68.5 519.5 -135.5 L379.5 -330.0 Q465.0 -349.0 506.0 -395.0 546.5 -441.0 546.5 -503.5 546.5 -562.0 511.0 -604.0 475.0 -646.5 424.0 -662.0 372.5 -678.0 264.5 -678.0 L17.5 -678.0 17.5 -659.5 43.0 -659.5 Q81.5 -659.5 101.0 -637.5 115.0 -622.0 115.0 -558.0 L115.0 -120.0 Q115.0 -62.0 104.5 -46.5 86.0 -18.5 43.0 -18.5 L17.5 -18.5 17.5 0.0 308.0 0.0 308.0 -18.5 281.5 -18.5 Q243.5 -18.5 224.5 -40.5 210.5 -56.0 210.5 -120.0 L210.5 -317.0 Q218.5 -316.5 226.0 -316.0 233.5 -316.0 240.0 -316.0 256.0 -316.0 281.5 -317.0 L511.0 0.0 692.0 0.0" fill-rule="evenodd" stroke="none"/>
    </g>
    <g id="decoration118-font_Times_New_Roman_.0">
      <path d="M128.0 -97.0 Q105.0 -97.0 89.0 -81.0 72.5 -65.0 72.5 -41.5 72.5 -18.5 89.0 -2.0 105.0 14.0 128.0 14.0 151.0 14.0 167.5 -2.0 183.5 -18.5 183.5 -41.5 183.5 -64.5 167.5 -80.5 151.5 -97.0 128.0 -97.0" fill-rule="evenodd" stroke="none"/>
    </g>
    <g id="decoration118-font_Times_New_Roman_I0">
      <path d="M316.0 -18.5 L291.5 -18.5 Q267.5 -18.5 246.0 -30.5 230.0 -39.5 225.0 -52.0 218.5 -68.5 218.5 -120.0 L218.5 -558.0 Q218.5 -619.0 231.0 -635.0 250.0 -659.5 291.5 -659.5 L316.0 -659.5 316.0 -678.0 25.5 -678.0 25.5 -659.5 49.5 -659.5 Q73.5 -659.5 95.5 -647.5 111.0 -638.5 116.0 -626.0 122.5 -609.5 122.5 -558.0 L122.5 -120.0 Q122.5 -59.0 110.5 -43.0 91.5 -18.5 49.5 -18.5 L25.5 -18.5 25.5 0.0 316.0 0.0 316.0 -18.5" fill-rule="evenodd" stroke="none"/>
    </g>
    <g id="decoration118-font_Times_New_Roman_P0">
      <path d="M210.0 -346.0 L210.0 -628.0 Q250.0 -637.5 275.5 -637.5 317.5 -637.5 350.5 -618.5 383.5 -600.0 401.5 -562.0 419.5 -524.5 419.5 -480.5 419.5 -416.5 382.0 -376.0 344.0 -336.0 292.0 -336.0 277.5 -336.0 257.0 -338.5 236.5 -341.0 210.0 -346.0 M210.0 -317.5 Q242.5 -310.5 271.0 -307.0 299.5 -303.5 324.0 -303.5 424.0 -303.5 479.0 -355.5 533.5 -407.5 533.5 -490.5 533.5 -551.5 497.5 -596.0 461.5 -640.5 409.0 -659.0 356.5 -678.0 265.5 -678.0 L17.0 -678.0 17.0 -659.5 42.5 -659.5 Q81.0 -659.5 100.5 -637.5 114.0 -622.0 114.0 -558.0 L114.0 -120.0 Q114.0 -62.0 104.0 -46.5 85.5 -18.5 42.5 -18.5 L17.0 -18.5 17.0 0.0 307.5 0.0 307.5 -18.5 281.5 -18.5 Q243.0 -18.5 224.0 -40.5 210.0 -56.0 210.0 -120.0 L210.0 -317.5" fill-rule="evenodd" stroke="none"/>
    </g>
    <g id="decoration118-shape1" transform="matrix(1.0, 0.0, 0.0, 1.0, 26.5, 3.75)">
      <path d="M9.6 -3.35 L26.25 -2.5 26.25 0.35 Q13.05 -0.15 -0.25 -0.1 8.1 -1.45 9.6 -3.35" fill="#3f3c35" fill-rule="evenodd" stroke="none"/>
      <path d="M-0.25 -0.1 Q-13.2 -0.1 -26.25 0.35 L-26.25 -2.5 Q-8.5 -3.85 9.6 -3.35 8.1 -1.45 -0.25 -0.1" fill="#666159" fill-rule="evenodd" stroke="none"/>
      <path d="M9.6 -3.35 L26.25 -2.5 26.25 0.35 Q13.05 -0.15 -0.25 -0.1 -13.2 -0.1 -26.25 0.35 L-26.25 -2.5 Q-8.5 -3.85 9.6 -3.35 Z" fill="none" stroke="#000000" stroke-linecap="round" stroke-linejoin="round" stroke-opacity="0.29803923" stroke-width="0.5"/>
    </g>
  </defs>
</svg>
