<?xml version="1.0" encoding="UTF-8" standalone="no"?>
<svg xmlns:xlink="http://www.w3.org/1999/xlink" height="33.6px" width="32.4px" xmlns="http://www.w3.org/2000/svg">
  <g transform="matrix(1.0, 0.0, 0.0, 1.0, 21.65, 54.05)">
    <use height="0.0" id="decoration119-Couleur0_E8E9EB" filter="url(#decoration119-filter0)" transform="matrix(1.0, 0.0, 0.0, 1.0, -18.65, -51.6)" width="0.0" xlink:href="#decoration119-sprite0"/>
    <use height="0.0" id="decoration119-Couleur1_31A7CF" filter="url(#decoration119-filter1)" transform="matrix(1.0, 0.0, 0.0, 1.0, -21.65, -54.05)" width="0.0" xlink:href="#decoration119-sprite1"/>
    <use height="4.6" id="decoration119-B" transform="matrix(0.8107, 0.0, 0.0, 1.0, -17.95, -25.05)" width="35.4" xlink:href="#decoration119-sprite2"/>
  </g>
  <defs>
    <g id="decoration119-sprite2" transform="matrix(1.0, 0.0, 0.0, 1.0, 0.0, 0.0)">
      <use height="4.6" transform="matrix(1.0, 0.0, 0.0, 1.0, 0.0, 0.0)" width="35.4" xlink:href="#decoration119-shape0"/>
    </g>
    <g id="decoration119-shape0" transform="matrix(1.0, 0.0, 0.0, 1.0, 0.0, 0.0)">
      <path d="M0.0 4.6 L0.0 0.0 35.4 0.0 35.4 4.6 0.0 4.6" fill="#738a7e" fill-opacity="0.0" fill-rule="evenodd" stroke="none"/>
    </g>
  </defs>
</svg>
