<?xml version="1.0" encoding="UTF-8" standalone="no"?>
<svg xmlns:xlink="http://www.w3.org/1999/xlink" height="55.2px" width="44.45px" xmlns="http://www.w3.org/2000/svg">
  <g transform="matrix(1.0, 0.0, 0.0, 1.0, 21.85, 54.25)">
    <use data-characterId="395" height="52.85" id="decoration119-Couleur0_E8E9EB" filter="url(#decoration119-filter0)" transform="matrix(1.0, 0.0, 0.0, 1.0, -18.95, -51.9)" width="41.55" xlink:href="#decoration119-sprite0"/>
    <use data-characterId="397" height="31.8" id="decoration119-Couleur1_31A7CF" filter="url(#decoration119-filter1)" transform="matrix(1.0, 0.0, 0.0, 1.0, -21.85, -54.25)" width="34.1" xlink:href="#decoration119-sprite1"/>
    <use data-characterId="235" height="4.6" id="decoration119-B" transform="matrix(0.8107, 0.0, 0.0, 1.0, -17.95, -25.05)" width="35.4" xlink:href="#decoration119-sprite2"/>
  </g>
  <defs>
    <g id="decoration119-sprite0" transform="matrix(1.0, 0.0, 0.0, 1.0, 0.3, 0.3)">
      <use data-characterId="394" height="52.85" transform="matrix(1.0, 0.0, 0.0, 1.0, -0.3, -0.3)" width="41.55" xlink:href="#decoration119-shape0"/>
    </g>
    <g id="decoration119-shape0" transform="matrix(1.0, 0.0, 0.0, 1.0, 0.3, 0.3)">
      <path d="M39.65 2.6 Q41.15 2.95 40.95 6.5 L40.95 26.2 Q40.65 28.05 38.65 28.75 L34.45 28.8 33.7 27.35 37.05 27.35 Q39.1 27.25 39.55 25.55 L39.55 7.85 33.65 6.6 35.35 6.6 Q38.55 6.25 39.65 5.35 40.45 4.15 39.65 2.6 M39.7 6.6 L35.35 6.6 39.7 6.6 M38.45 0.0 Q38.85 0.85 38.45 1.7 L37.35 1.7 37.35 2.6 34.65 2.6 34.65 1.7 33.75 1.7 33.5 1.1 37.45 1.1 Q38.15 1.05 38.45 0.0 M37.35 1.7 L34.65 1.7 37.35 1.7" fill="#514d4d" fill-rule="evenodd" stroke="none"/>
      <path d="M39.65 2.6 Q40.45 4.15 39.65 5.35 38.55 6.25 35.35 6.6 L33.65 6.6 30.7 6.6 30.7 2.6 34.65 2.6 37.35 2.6 39.65 2.6 M38.45 0.0 Q38.15 1.05 37.45 1.1 L33.5 1.1 Q33.35 0.5 33.75 0.0 L38.45 0.0" fill="#808080" fill-rule="evenodd" stroke="none"/>
      <path d="M30.7 6.6 L33.65 6.6 39.55 7.85 39.55 25.55 Q39.1 27.25 37.05 27.35 L33.7 27.35 Q32.75 26.1 31.35 25.95 L30.7 25.95 30.7 6.6" fill="#5d5d5d" fill-rule="evenodd" stroke="none"/>
      <path d="M2.85 35.55 L2.85 34.2 0.0 32.9 29.15 32.9 Q33.05 32.25 33.3 29.55 32.7 27.15 31.35 25.95 32.75 26.1 33.7 27.35 L34.45 28.8 34.6 29.15 Q35.6 31.9 32.75 35.8 L29.8 35.8 Q30.2 39.15 28.2 40.95 L24.6 43.05 Q23.8 43.8 25.1 44.4 28.3 44.55 30.3 47.8 31.4 49.95 31.2 50.95 28.05 45.25 21.65 45.25 L19.8 45.2 Q15.15 45.15 11.8 46.9 L12.8 45.2 Q13.9 44.1 12.75 42.95 L20.15 43.35 Q22.8 43.1 23.95 42.15 28.25 38.05 26.85 35.55 L2.85 35.55" fill="url(#decoration119-gradient0)" fill-rule="evenodd" stroke="none"/>
      <path d="M2.85 35.55 L26.85 35.55 Q28.25 38.05 23.95 42.15 22.8 43.1 20.15 43.35 L12.75 42.95 Q3.9 38.4 2.85 35.55 M11.8 46.9 Q15.15 45.15 19.8 45.2 L21.65 45.25 Q28.05 45.25 31.2 50.95 L31.85 52.25 9.7 52.25 9.8 50.35 11.8 46.9 M31.35 25.95 Q32.7 27.15 33.3 29.55 33.05 32.25 29.15 32.9 L0.0 32.9 0.0 30.35 1.45 28.3 28.05 28.3 Q28.4 26.55 30.05 26.05 L30.7 25.95 31.35 25.95" fill="url(#decoration119-gradient1)" fill-rule="evenodd" stroke="none"/>
      <path d="M31.2 50.95 Q31.4 49.95 30.3 47.8 28.3 44.55 25.1 44.4 23.8 43.8 24.6 43.05 L28.2 40.95 Q30.2 39.15 29.8 35.8 L32.75 35.8 37.25 50.15 36.05 52.25 31.85 52.25 31.2 50.95" fill="#383b3f" fill-rule="evenodd" stroke="none"/>
      <path d="M34.45 28.8 L38.65 28.75 Q40.65 28.05 40.95 26.2 L40.95 6.5 Q41.15 2.95 39.65 2.6 L37.35 2.6 37.35 1.7 38.45 1.7 Q38.85 0.85 38.45 0.0 L33.75 0.0 Q33.35 0.5 33.5 1.1 L33.75 1.7 34.65 1.7 34.65 2.6 30.7 2.6 30.7 6.6 30.7 25.95 30.05 26.05 Q28.4 26.55 28.05 28.3 L1.45 28.3 0.0 30.35 0.0 32.9 2.85 34.2 2.85 35.55 Q3.9 38.4 12.75 42.95 13.9 44.1 12.8 45.2 L11.8 46.9 9.8 50.35 9.7 52.25 31.85 52.25 36.05 52.25 37.25 50.15 32.75 35.8 Q35.6 31.9 34.6 29.15 L34.45 28.8" fill="none" stroke="#000000" stroke-linecap="round" stroke-linejoin="round" stroke-opacity="0.5019608" stroke-width="0.6000000000000001"/>
      <path d="M35.35 6.6 L39.7 6.6 M34.65 1.7 L37.35 1.7 M33.65 6.6 L35.35 6.6 M37.35 2.6 L34.65 2.6 M30.3 47.8 Q28.3 44.55 25.1 44.4 23.8 43.8 24.6 43.05 L28.2 40.95 Q30.2 39.15 29.8 35.8 L32.75 35.8 M34.45 28.8 L33.7 27.35 Q32.75 26.1 31.35 25.95 L30.7 25.95" fill="none" stroke="#000000" stroke-linecap="round" stroke-linejoin="round" stroke-opacity="0.3882353" stroke-width="0.2"/>
    </g>
    <radialGradient cx="0" cy="0" gradientTransform="matrix(0.0371, 0.0, 0.0, 0.0371, 5.6, 31.85)" gradientUnits="userSpaceOnUse" id="decoration119-gradient0" r="819.2" spreadMethod="pad">
      <stop offset="0.0" stop-color="#727272"/>
      <stop offset="1.0" stop-color="#373a3c"/>
    </radialGradient>
    <linearGradient gradientTransform="matrix(0.0173, 0.0, 0.0, 0.0043, 20.65, 30.25)" gradientUnits="userSpaceOnUse" id="decoration119-gradient1" spreadMethod="pad" x1="-819.2" x2="819.2">
      <stop offset="0.03529411764705882" stop-color="#8c8c8c"/>
      <stop offset="1.0" stop-color="#5c5e5f"/>
    </linearGradient>
    <g id="decoration119-sprite1" transform="matrix(1.0, 0.0, 0.0, 1.0, 0.2, 0.2)">
      <use data-characterId="396" height="31.8" transform="matrix(1.0, 0.0, 0.0, 1.0, -0.2, -0.2)" width="34.1" xlink:href="#decoration119-shape1"/>
    </g>
    <g id="decoration119-shape1" transform="matrix(1.0, 0.0, 0.0, 1.0, 0.2, 0.2)">
      <path d="M33.05 0.0 L29.05 22.85 31.95 2.3 Q32.4 -0.2 33.05 0.0 M26.8 28.4 L0.05 29.6 Q2.5 28.75 7.7 28.4 L26.8 28.4" fill="#b6b6b6" fill-rule="evenodd" stroke="none"/>
      <path d="M29.05 22.85 L33.05 0.0 33.7 0.75 30.65 28.85 30.4 28.55 Q29.9 28.05 29.25 28.05 28.7 28.05 28.25 28.4 L29.05 22.85 M27.6 30.15 L4.25 30.15 Q0.35 30.25 0.05 29.6 L26.8 28.4 28.25 28.4 28.05 28.55 27.65 29.25 27.55 29.75 27.6 30.15" fill="#808080" fill-rule="evenodd" stroke="none"/>
      <path d="M29.25 28.05 Q29.9 28.05 30.4 28.55 L30.65 28.85 30.9 29.75 Q30.9 30.4 30.4 30.9 29.9 31.4 29.25 31.4 28.55 31.4 28.05 30.9 L28.0 30.85 2.45 30.85 Q0.6 30.85 0.2 30.3 -0.05 30.0 0.05 29.6 0.35 30.25 4.25 30.15 L27.6 30.15 28.0 30.85 27.6 30.15 27.55 29.75 27.65 29.25 Q28.2 30.85 29.9 30.2 31.05 29.05 29.25 28.05" fill="#4f4c4c" fill-rule="evenodd" stroke="none"/>
      <path d="M28.25 28.4 Q28.7 28.05 29.25 28.05 31.05 29.05 29.9 30.2 28.2 30.85 27.65 29.25 L28.05 28.55 28.25 28.4" fill="#626262" fill-rule="evenodd" stroke="none"/>
      <path d="M33.05 0.0 Q32.4 -0.2 31.95 2.3 L29.05 22.85 28.25 28.4 26.8 28.4 7.7 28.4 Q2.5 28.75 0.05 29.6 -0.05 30.0 0.2 30.3 0.6 30.85 2.45 30.85 L28.0 30.85 28.05 30.9 Q28.55 31.4 29.25 31.4 29.9 31.4 30.4 30.9 30.9 30.4 30.9 29.75 L30.65 28.85 33.7 0.75 33.05 0.0" fill="none" stroke="#000000" stroke-linecap="round" stroke-linejoin="round" stroke-opacity="0.5019608" stroke-width="0.4"/>
      <path d="M28.25 28.4 Q28.7 28.05 29.25 28.05 29.9 28.05 30.4 28.55 L30.65 28.85 M28.0 30.85 L27.6 30.15 27.55 29.75 27.65 29.25 28.05 28.55 28.25 28.4" fill="none" stroke="#000000" stroke-linecap="round" stroke-linejoin="round" stroke-opacity="0.3882353" stroke-width="0.2"/>
    </g>
    <g id="decoration119-sprite2" transform="matrix(1.0, 0.0, 0.0, 1.0, 0.0, 0.0)">
      <use data-characterId="234" height="4.6" transform="matrix(1.0, 0.0, 0.0, 1.0, 0.0, 0.0)" width="35.4" xlink:href="#decoration119-shape2"/>
    </g>
    <g id="decoration119-shape2" transform="matrix(1.0, 0.0, 0.0, 1.0, 0.0, 0.0)">
      <path d="M35.4 4.6 L0.0 4.6 0.0 0.0 35.4 0.0 35.4 4.6" fill="#738a7e" fill-opacity="0.0" fill-rule="evenodd" stroke="none"/>
    </g>
  </defs>
</svg>
