<?xml version="1.0" encoding="UTF-8" standalone="no"?>
<svg xmlns:xlink="http://www.w3.org/1999/xlink" height="18.8px" width="61.1px" xmlns="http://www.w3.org/2000/svg">
  <g transform="matrix(1.0, 0.0, 0.0, 1.0, 29.65, 18.35)">
    <use height="18.8" transform="matrix(1.0, 0.0, 0.0, 1.0, -29.65, -18.35)" width="61.1" xlink:href="#decoration12-shape0"/>
  </g>
  <defs>
    <g id="decoration12-shape0" transform="matrix(1.0, 0.0, 0.0, 1.0, 29.65, 18.35)">
      <path d="M0.15 -6.05 L0.55 -5.9 Q4.85 -4.9 6.45 0.05 L5.6 0.05 Q4.35 -2.85 1.9 -4.3 L0.05 -5.15 0.15 -5.7 0.15 -6.05 M-8.35 -2.7 L-10.1 0.05 -11.3 0.1 Q-10.7 -1.2 -9.35 -2.9 L-9.3 -2.95 -8.85 -2.8 -8.35 -2.7" fill="#323800" fill-rule="evenodd" stroke="none"/>
      <path d="M0.15 -6.05 L0.15 -5.7 0.05 -5.15 -3.95 -5.5 Q-6.4 -5.25 -8.35 -2.7 L-8.85 -2.8 -9.3 -2.95 Q-7.95 -4.65 -5.9 -5.8 L0.15 -6.05" fill="#474f02" fill-rule="evenodd" stroke="none"/>
      <path d="M0.05 -5.15 L1.9 -4.3 Q4.35 -2.85 5.6 0.05 L6.45 0.05 Q4.85 -4.9 0.55 -5.9 L0.15 -6.05 M0.05 -5.15 L-3.95 -5.5 Q-6.4 -5.25 -8.35 -2.7 L-10.1 0.05 -11.3 0.1 Q-10.7 -1.2 -9.35 -2.9 L-9.3 -2.95 Q-7.95 -4.65 -5.9 -5.8 L0.15 -6.05" fill="none" stroke="#000000" stroke-linecap="round" stroke-linejoin="round" stroke-opacity="0.2" stroke-width="0.4"/>
      <path d="M-24.65 -7.65 L-23.5 -7.3 -22.35 -7.0 Q-24.5 -4.0 -26.5 0.15 L-29.45 0.25 Q-28.0 -3.1 -24.7 -7.5 L-24.65 -7.65 M-4.1 -14.0 L0.05 -13.95 Q1.9 -13.85 -1.6 -16.35 1.75 -15.2 5.1 -12.75 11.8 -7.95 13.4 0.15 L11.3 0.15 Q8.25 -7.35 2.45 -11.2 0.35 -12.55 -4.1 -14.0" fill="#323800" fill-rule="evenodd" stroke="none"/>
      <path d="M-22.35 -7.0 L-23.5 -7.3 -24.65 -7.65 Q-21.45 -12.1 -16.4 -15.05 -11.65 -17.9 -1.6 -16.35 1.9 -13.85 0.05 -13.95 L-4.1 -14.0 Q-6.2 -14.85 -11.45 -14.15 -16.7 -13.45 -22.35 -7.0" fill="#545d04" fill-rule="evenodd" stroke="none"/>
      <path d="M-22.35 -7.0 Q-16.7 -13.45 -11.45 -14.15 -6.2 -14.85 -4.1 -14.0 0.35 -12.55 2.45 -11.2 8.25 -7.35 11.3 0.15 L13.4 0.15 Q11.8 -7.95 5.1 -12.75 1.75 -15.2 -1.6 -16.35 -11.65 -17.9 -16.4 -15.05 -21.45 -12.1 -24.65 -7.65 L-24.7 -7.5 Q-28.0 -3.1 -29.45 0.25 L-26.5 0.15 Q-24.5 -4.0 -22.35 -7.0 Z" fill="none" stroke="#000000" stroke-linecap="round" stroke-linejoin="round" stroke-opacity="0.2" stroke-width="0.4"/>
      <path d="M3.5 -5.2 L4.35 -4.95 5.15 -4.75 Q3.6 -2.75 2.15 0.1 L0.0 0.15 Q1.05 -2.1 3.45 -5.1 L3.5 -5.2 M20.0 -9.05 L20.15 -10.0 20.1 -10.6 20.8 -10.4 Q28.4 -8.6 31.25 0.1 L29.7 0.1 Q27.5 -5.0 23.25 -7.6 21.75 -8.55 20.0 -9.05" fill="#323800" fill-rule="evenodd" stroke="none"/>
      <path d="M5.15 -4.75 L4.35 -4.95 3.5 -5.2 Q5.85 -8.2 9.5 -10.2 13.0 -12.15 20.1 -10.6 L20.15 -10.0 20.0 -9.05 Q16.8 -10.05 12.9 -9.65 8.65 -9.25 5.15 -4.75" fill="#474f02" fill-rule="evenodd" stroke="none"/>
      <path d="M5.15 -4.75 Q8.65 -9.25 12.9 -9.65 16.8 -10.05 20.0 -9.05 21.75 -8.55 23.25 -7.6 27.5 -5.0 29.7 0.1 L31.25 0.1 Q28.4 -8.6 20.8 -10.4 L20.1 -10.6 Q13.0 -12.15 9.5 -10.2 5.85 -8.2 3.5 -5.2 L3.45 -5.1 Q1.05 -2.1 0.0 0.15 L2.15 0.1 Q3.6 -2.75 5.15 -4.75 Z" fill="none" stroke="#000000" stroke-linecap="round" stroke-linejoin="round" stroke-opacity="0.2" stroke-width="0.4"/>
      <path d="M-20.6 -3.7 L-21.25 -3.85 -21.8 -4.05 Q-20.1 -6.4 -17.45 -8.0 -14.85 -9.5 -9.65 -8.35 L-9.65 -7.85 Q-9.65 -7.5 -9.8 -7.1 L-14.95 -7.55 Q-18.1 -7.25 -20.6 -3.7" fill="#474f02" fill-rule="evenodd" stroke="none"/>
      <path d="M-21.8 -4.05 L-21.25 -3.85 -20.6 -3.7 -22.85 0.05 -24.4 0.15 Q-23.6 -1.65 -21.9 -4.0 L-21.8 -4.05 M-9.8 -7.1 Q-9.65 -7.5 -9.65 -7.85 L-9.65 -8.35 -9.15 -8.15 Q-3.6 -6.75 -1.55 0.05 L-2.65 0.05 Q-4.25 -3.95 -7.4 -5.9 -8.5 -6.7 -9.8 -7.1" fill="#323800" fill-rule="evenodd" stroke="none"/>
      <path d="M-20.6 -3.7 Q-18.1 -7.25 -14.95 -7.55 L-9.8 -7.1 Q-8.5 -6.7 -7.4 -5.9 -4.25 -3.95 -2.65 0.05 L-1.55 0.05 Q-3.6 -6.75 -9.15 -8.15 L-9.65 -8.35 Q-14.85 -9.5 -17.45 -8.0 -20.1 -6.4 -21.8 -4.05 L-21.9 -4.0 Q-23.6 -1.65 -24.4 0.15 L-22.85 0.05 -20.6 -3.7 Z" fill="none" stroke="#000000" stroke-linecap="round" stroke-linejoin="round" stroke-opacity="0.2" stroke-width="0.4"/>
      <path d="M2.95 -14.4 L3.7 -14.45 4.1 -14.6 Q4.95 -11.5 5.85 -10.9 6.7 -10.25 11.6 -9.35 L10.7 -12.65 10.05 -13.75 12.2 -11.0 13.4 -9.05 14.3 -7.2 Q15.05 -5.9 15.95 -5.85 17.15 -5.8 17.05 -9.15 L17.0 -9.4 17.25 -8.8 Q17.8 -6.8 17.75 -5.8 L17.75 -5.7 17.35 -3.55 17.75 -5.7 17.75 -5.8 17.8 -5.65 Q19.2 -2.25 20.5 -2.25 L21.5 -3.35 22.45 -4.7 Q22.8 -2.85 22.5 -1.5 22.8 -1.25 24.7 -0.7 26.7 -0.1 27.55 -0.05 L27.6 0.0 21.85 0.0 21.35 0.0 Q19.3 -0.15 17.35 -3.55 16.15 -2.25 13.4 -7.1 10.0 -7.4 6.1 -9.2 L2.0 -8.65 Q0.75 -6.5 -3.7 -5.65 -3.35 -4.4 -6.95 -2.8 -6.9 -1.5 -9.1 0.0 L-17.4 0.0 -16.8 -0.75 -13.6 -0.55 Q-13.05 -0.55 -12.0 -1.05 L-11.05 -1.55 -14.6 -1.25 -16.25 -1.55 -16.2 -2.25 Q-11.25 -1.45 -7.4 -3.9 -8.45 -4.05 -10.7 -5.6 L-11.0 -6.15 -11.35 -7.0 -11.25 -7.3 Q-10.5 -6.45 -8.55 -6.05 -5.25 -5.45 -0.9 -7.25 L-2.25 -8.6 -3.4 -10.2 -3.75 -11.15 -3.5 -12.1 -3.25 -12.5 Q-2.75 -10.45 0.15 -9.75 L2.95 -9.45 2.9 -11.7 Q2.85 -14.05 2.95 -14.4 M6.1 -9.2 Q5.15 -9.65 4.55 -10.45 3.95 -11.2 3.75 -12.2 3.55 -13.2 3.7 -14.45 3.55 -13.2 3.75 -12.2 3.95 -11.2 4.55 -10.45 5.15 -9.65 6.1 -9.2 M13.4 -7.1 L13.5 -7.95 13.4 -9.05 13.5 -7.95 13.4 -7.1 M22.5 -1.5 L21.85 0.0 22.5 -1.5 M-3.7 -5.65 Q-6.7 -3.95 -10.7 -5.6 -6.7 -3.95 -3.7 -5.65 M2.0 -8.65 L-0.2 -8.85 Q-2.7 -9.25 -3.4 -10.2 -2.7 -9.25 -0.2 -8.85 L2.0 -8.65 M-11.05 -1.55 L-9.1 -2.1 -6.95 -2.8 -9.1 -2.1 -11.05 -1.55" fill="#3b4a02" fill-rule="evenodd" stroke="none"/>
      <path d="M4.1 -14.6 L4.9 -14.8 Q4.7 -14.2 5.55 -12.7 6.75 -10.65 9.15 -10.4 10.9 -10.2 9.9 -12.15 L8.35 -14.45 9.9 -13.85 9.95 -13.85 12.1 -13.3 13.85 -10.05 Q15.0 -7.9 15.25 -7.85 16.55 -7.55 16.1 -9.5 L15.4 -11.55 16.1 -11.1 17.4 -10.6 17.85 -8.55 18.25 -7.05 Q18.85 -4.9 20.05 -4.9 20.95 -4.9 21.65 -7.3 L22.45 -4.7 21.65 -7.3 21.65 -7.35 23.05 -5.85 Q22.85 -3.2 23.45 -2.1 24.15 -0.75 26.5 -0.75 L27.0 -0.8 27.55 -0.05 Q26.7 -0.1 24.7 -0.7 22.8 -1.25 22.5 -1.5 22.8 -2.85 22.45 -4.7 L21.5 -3.35 20.5 -2.25 Q19.2 -2.25 17.8 -5.65 L17.75 -5.8 Q17.8 -6.8 17.25 -8.8 L17.0 -9.4 17.05 -9.15 Q17.15 -5.8 15.95 -5.85 15.05 -5.9 14.3 -7.2 L13.4 -9.05 12.2 -11.0 10.05 -13.75 10.7 -12.65 11.6 -9.35 Q6.7 -10.25 5.85 -10.9 4.95 -11.5 4.1 -14.6 M-16.8 -0.75 L-16.25 -1.55 -14.6 -1.25 -11.05 -1.55 -12.0 -1.05 Q-13.05 -0.55 -13.6 -0.55 L-16.8 -0.75 M-16.2 -2.25 L-15.5 -3.7 Q-14.4 -2.6 -13.65 -2.7 -10.7 -3.05 -11.3 -4.5 L-12.7 -6.15 -11.35 -7.0 -11.0 -6.15 -10.7 -5.6 Q-8.45 -4.05 -7.4 -3.9 -11.25 -1.45 -16.2 -2.25 M-11.25 -7.3 L-10.35 -8.55 Q-9.1 -6.5 -5.9 -6.95 -3.9 -7.25 -4.1 -9.35 -4.3 -10.85 -4.9 -11.6 L-3.5 -12.1 -3.75 -11.15 -3.4 -10.2 -2.25 -8.6 -0.9 -7.25 Q-5.25 -5.45 -8.55 -6.05 -10.5 -6.45 -11.25 -7.3 M-3.25 -12.5 L-2.1 -13.35 -1.6 -12.15 -0.9 -11.25 0.85 -10.65 2.05 -10.4 2.25 -14.35 2.95 -14.4 Q2.85 -14.05 2.9 -11.7 L2.95 -9.45 0.15 -9.75 Q-2.75 -10.45 -3.25 -12.5 M9.9 -13.85 L10.05 -13.75 9.9 -13.85 M16.1 -11.1 L17.0 -9.4 16.1 -11.1" fill="#506404" fill-rule="evenodd" stroke="none"/>
      <path d="M4.9 -14.8 L8.35 -14.45 9.9 -12.15 Q10.9 -10.2 9.15 -10.4 6.75 -10.65 5.55 -12.7 4.7 -14.2 4.9 -14.8 M12.1 -13.3 L15.4 -11.55 16.1 -9.5 Q16.55 -7.55 15.25 -7.85 15.0 -7.9 13.85 -10.05 L12.1 -13.3 M17.4 -10.6 L21.6 -7.4 21.65 -7.35 21.65 -7.3 Q20.95 -4.9 20.05 -4.9 18.85 -4.9 18.25 -7.05 L17.85 -8.55 17.4 -10.6 M23.05 -5.85 L27.0 -0.8 26.5 -0.75 Q24.15 -0.75 23.45 -2.1 22.85 -3.2 23.05 -5.85 M-15.5 -3.7 Q-14.6 -4.85 -12.7 -6.15 L-11.3 -4.5 Q-10.7 -3.05 -13.65 -2.7 -14.4 -2.6 -15.5 -3.7 M-10.35 -8.55 Q-8.7 -10.25 -4.9 -11.6 -4.3 -10.85 -4.1 -9.35 -3.9 -7.25 -5.9 -6.95 -9.1 -6.5 -10.35 -8.55 M-2.1 -13.35 L2.25 -14.35 2.05 -10.4 0.85 -10.65 -0.9 -11.25 -1.6 -12.15 -2.1 -13.35 M21.6 -7.4 L21.65 -7.3 21.6 -7.4" fill="#799414" fill-rule="evenodd" stroke="none"/>
      <path d="M2.95 -14.4 L3.7 -14.45 4.1 -14.6 4.9 -14.8 8.35 -14.45 9.9 -13.85 9.95 -13.85 12.1 -13.3 15.4 -11.55 16.1 -11.1 17.4 -10.6 21.6 -7.4 21.65 -7.35 23.05 -5.85 27.0 -0.8 27.55 -0.05 27.6 0.0 21.85 0.0 21.8 0.05 21.35 0.0 Q19.3 -0.15 17.35 -3.55 16.15 -2.25 13.4 -7.1 10.0 -7.4 6.1 -9.2 L2.0 -8.65 Q0.75 -6.5 -3.7 -5.65 -3.35 -4.4 -6.95 -2.8 -6.9 -1.5 -9.1 0.0 L-17.4 0.0 -16.8 -0.75 -16.25 -1.55 -16.2 -2.25 -15.5 -3.7 Q-14.6 -4.85 -12.7 -6.15 L-11.35 -7.0 -11.25 -7.3 -10.35 -8.55 Q-8.7 -10.25 -4.9 -11.6 L-3.5 -12.1 -3.25 -12.5 -2.1 -13.35 2.25 -14.35 2.95 -14.4 M10.05 -13.75 L9.9 -13.85 M3.7 -14.45 Q3.55 -13.2 3.75 -12.2 3.95 -11.2 4.55 -10.45 5.15 -9.65 6.1 -9.2 M17.0 -9.4 L16.1 -11.1 M21.65 -7.3 L21.6 -7.4 M17.75 -5.8 Q17.8 -6.8 17.25 -8.8 L17.0 -9.4 M13.4 -9.05 L13.5 -7.95 13.4 -7.1 M10.05 -13.75 L12.2 -11.0 13.4 -9.05 M17.35 -3.55 L17.75 -5.7 17.75 -5.8 M22.45 -4.7 L21.65 -7.3 M22.5 -1.5 Q22.8 -2.85 22.45 -4.7 M21.35 0.0 L21.85 0.0 22.5 -1.5 M-11.35 -7.0 L-11.0 -6.15 -10.7 -5.6 Q-6.7 -3.95 -3.7 -5.65 M-11.05 -1.55 L-14.6 -1.25 -16.25 -1.55 M-3.4 -10.2 L-3.75 -11.15 -3.5 -12.1 M-3.4 -10.2 Q-2.7 -9.25 -0.2 -8.85 L2.0 -8.65 M-6.95 -2.8 L-9.1 -2.1 -11.05 -1.55" fill="none" stroke="#000000" stroke-linecap="round" stroke-linejoin="round" stroke-opacity="0.21960784" stroke-width="0.4"/>
      <path d="M-5.45 -10.55 L-5.45 -10.6 Q-4.7 -10.8 -4.4 -11.1 L-5.2 -9.55 -4.9 -9.25 -4.85 -9.2 -7.05 -8.9 Q-8.3 -8.4 -8.2 -7.65 -8.35 -8.5 -9.6 -8.5 L-8.25 -9.45 -8.25 -9.0 Q-6.45 -9.0 -5.4 -10.5 L-5.45 -10.55 M-4.45 -9.2 L-4.5 -9.15 -4.55 -9.15 -4.45 -9.2" fill="#1e1c05" fill-opacity="0.50980395" fill-rule="evenodd" stroke="none"/>
      <path d="M-5.45 -10.55 L-5.4 -10.5 Q-6.45 -9.0 -8.25 -9.0 L-8.25 -9.45 -8.3 -9.8 -7.95 -9.75 Q-7.35 -9.75 -7.45 -10.5 -7.3 -10.05 -6.7 -10.05 -6.5 -10.05 -6.5 -10.15 L-6.45 -10.55 Q-6.45 -10.95 -7.15 -11.85 -6.25 -11.4 -5.45 -10.55" fill="#5d5811" fill-rule="evenodd" stroke="none"/>
      <path d="M-8.3 -9.8 Q-8.5 -11.1 -9.45 -12.6 -8.25 -12.5 -7.15 -11.85 -6.45 -10.95 -6.45 -10.55 L-6.5 -10.15 Q-6.5 -10.05 -6.7 -10.05 -7.3 -10.05 -7.45 -10.5 -7.35 -9.75 -7.95 -9.75 L-8.3 -9.8" fill="#7b7525" fill-rule="evenodd" stroke="none"/>
      <path d="M-5.45 -10.55 L-5.4 -10.5 Q-6.45 -9.0 -8.25 -9.0 L-8.25 -9.45 -8.3 -9.8 Q-8.5 -11.1 -9.45 -12.6 -8.25 -12.5 -7.15 -11.85 -6.25 -11.4 -5.45 -10.55 Z" fill="none" stroke="#000000" stroke-linecap="round" stroke-linejoin="round" stroke-opacity="0.32156864" stroke-width="0.4"/>
      <path d="M7.75 -8.9 L6.4 -9.85 Q7.65 -9.85 7.8 -10.7 7.7 -9.95 8.95 -9.45 L11.15 -9.15 11.1 -9.1 10.8 -8.8 Q10.8 -8.35 11.6 -7.25 11.3 -7.55 10.55 -7.75 L10.55 -7.8 10.6 -7.85 Q9.55 -9.35 7.75 -9.35 L7.75 -8.9 M11.45 -9.2 L11.5 -9.2 11.55 -9.15 11.45 -9.2" fill="#1e1c05" fill-opacity="0.50980395" fill-rule="evenodd" stroke="none"/>
      <path d="M10.55 -7.8 Q9.75 -6.95 8.85 -6.5 L9.55 -7.8 9.5 -8.2 9.3 -8.3 Q8.7 -8.3 8.55 -7.85 8.65 -8.6 8.05 -8.6 L7.7 -8.55 7.75 -8.9 7.75 -9.35 Q9.55 -9.35 10.6 -7.85 L10.55 -7.8" fill="#5d5811" fill-rule="evenodd" stroke="none"/>
      <path d="M8.85 -6.5 Q7.75 -5.85 6.55 -5.75 7.5 -7.25 7.7 -8.55 L8.05 -8.6 Q8.65 -8.6 8.55 -7.85 8.7 -8.3 9.3 -8.3 L9.5 -8.2 9.55 -7.8 8.85 -6.5" fill="#7b7525" fill-rule="evenodd" stroke="none"/>
      <path d="M10.55 -7.8 Q9.75 -6.95 8.85 -6.5 7.75 -5.85 6.55 -5.75 7.5 -7.25 7.7 -8.55 L7.75 -8.9 7.75 -9.35 Q9.55 -9.35 10.6 -7.85 L10.55 -7.8 Z" fill="none" stroke="#000000" stroke-linecap="round" stroke-linejoin="round" stroke-opacity="0.32156864" stroke-width="0.4"/>
      <path d="M26.05 -1.55 L26.0 -1.5 Q24.4 -2.35 24.2 -4.1 L24.6 -4.15 24.9 -4.25 24.9 -3.9 Q25.0 -3.3 25.75 -3.5 25.3 -3.3 25.4 -2.7 25.4 -2.55 25.5 -2.55 L25.9 -2.55 Q26.3 -2.6 27.1 -3.4 L26.05 -1.55" fill="#5d5811" fill-rule="evenodd" stroke="none"/>
      <path d="M26.05 -1.55 L26.1 -1.55 26.7 -0.6 25.05 -1.2 24.8 -0.85 24.75 -0.8 Q24.8 -1.9 24.25 -2.9 23.55 -4.1 22.85 -3.9 23.65 -4.15 23.5 -5.4 L24.6 -4.15 24.2 -4.1 Q24.4 -2.35 26.0 -1.5 L26.05 -1.55 M24.8 -0.4 L24.75 -0.45 24.75 -0.5 24.8 -0.4" fill="#1e1c05" fill-opacity="0.50980395" fill-rule="evenodd" stroke="none"/>
      <path d="M24.9 -4.25 Q26.2 -4.65 27.6 -5.75 27.65 -4.55 27.1 -3.4 26.3 -2.6 25.9 -2.55 L25.5 -2.55 Q25.4 -2.55 25.4 -2.7 25.3 -3.3 25.75 -3.5 25.0 -3.3 24.9 -3.9 L24.9 -4.25" fill="#7b7525" fill-rule="evenodd" stroke="none"/>
      <path d="M26.05 -1.55 L26.0 -1.5 Q24.4 -2.35 24.2 -4.1 L24.6 -4.15 24.9 -4.25 Q26.2 -4.65 27.6 -5.75 27.65 -4.55 27.1 -3.4 L26.05 -1.55 Z" fill="none" stroke="#000000" stroke-linecap="round" stroke-linejoin="round" stroke-opacity="0.32156864" stroke-width="0.4"/>
      <path d="M-4.9 -4.15 L-5.0 -2.55 Q-5.2 -3.3 -5.45 -3.45 L-5.7 -3.6 -5.9 -3.45 Q-6.25 -3.05 -6.05 -2.8 L-6.75 -2.75 -6.95 -2.5 -7.1 -2.7 -7.4 -2.85 Q-6.45 -4.0 -4.9 -4.15" fill="#5d5811" fill-rule="evenodd" stroke="none"/>
      <path d="M-5.0 -2.55 Q-5.2 -1.6 -5.8 -0.8 -6.25 -1.9 -6.95 -2.5 L-6.75 -2.75 -6.05 -2.8 Q-6.25 -3.05 -5.9 -3.45 L-5.7 -3.6 -5.45 -3.45 Q-5.2 -3.3 -5.0 -2.55" fill="#7b7525" fill-rule="evenodd" stroke="none"/>
      <path d="M-7.1 -2.7 L-8.45 -2.1 Q-7.75 -2.9 -8.25 -3.3 -7.8 -3.0 -6.8 -3.65 -5.95 -4.15 -5.45 -4.9 L-5.4 -4.65 Q-5.1 -4.5 -4.0 -4.65 L-4.9 -4.15 Q-6.45 -4.0 -7.4 -2.85 L-7.1 -2.7" fill="#1e1c05" fill-opacity="0.50980395" fill-rule="evenodd" stroke="none"/>
      <path d="M-4.9 -4.15 L-5.0 -2.55 Q-5.2 -1.6 -5.8 -0.8 -6.25 -1.9 -6.95 -2.5 L-7.1 -2.7 -7.4 -2.85 Q-6.45 -4.0 -4.9 -4.15 Z" fill="none" stroke="#000000" stroke-linecap="round" stroke-linejoin="round" stroke-opacity="0.32156864" stroke-width="0.4"/>
      <path d="M6.55 -15.3 Q7.3 -16.35 7.65 -18.1 8.45 -17.2 8.8 -15.95 8.65 -14.8 8.35 -14.5 L8.05 -14.3 7.8 -14.35 Q7.4 -14.75 7.6 -15.15 7.15 -14.6 6.75 -15.0 L6.55 -15.3" fill="#7b7525" fill-rule="evenodd" stroke="none"/>
      <path d="M6.55 -15.3 L6.75 -15.0 Q7.15 -14.6 7.6 -15.15 7.4 -14.75 7.8 -14.35 L8.05 -14.3 8.35 -14.5 Q8.65 -14.8 8.8 -15.95 L9.05 -13.8 9.05 -13.7 Q7.25 -13.4 5.95 -14.7 L6.3 -15.05 6.55 -15.3" fill="#5d5811" fill-rule="evenodd" stroke="none"/>
      <path d="M9.05 -13.8 L9.1 -13.85 Q9.8 -13.45 10.2 -13.45 L8.5 -12.95 Q8.35 -12.8 8.55 -12.5 L8.5 -12.45 Q7.9 -13.35 6.75 -13.8 L5.05 -13.7 Q5.55 -14.4 4.65 -15.3 L6.3 -15.05 5.95 -14.7 Q7.25 -13.4 9.05 -13.7 L9.05 -13.8" fill="#1e1c05" fill-opacity="0.50980395" fill-rule="evenodd" stroke="none"/>
      <path d="M8.8 -15.95 Q8.45 -17.2 7.65 -18.1 7.3 -16.35 6.55 -15.3 M8.8 -15.95 L9.05 -13.8 M6.3 -15.05 L6.55 -15.3 M6.3 -15.05 L5.95 -14.7 Q7.25 -13.4 9.05 -13.7 L9.05 -13.8" fill="none" stroke="#000000" stroke-linecap="round" stroke-linejoin="round" stroke-opacity="0.32156864" stroke-width="0.4"/>
      <path d="M24.95 -7.8 L25.0 -7.85 25.65 -7.4 24.45 -7.35 24.45 -7.05 24.4 -7.05 23.45 -8.2 Q22.75 -8.8 22.35 -8.45 22.75 -8.85 22.4 -9.6 L23.4 -9.1 23.1 -8.95 Q23.75 -7.9 24.95 -7.75 L24.95 -7.8" fill="#1e1c05" fill-opacity="0.50980395" fill-rule="evenodd" stroke="none"/>
      <path d="M24.95 -7.8 L24.95 -7.75 Q23.75 -7.9 23.1 -8.95 L23.4 -9.1 23.6 -9.25 23.65 -9.0 24.25 -8.95 Q24.1 -8.75 24.25 -8.4 24.35 -8.25 24.4 -8.35 L24.65 -8.4 25.2 -9.25 24.95 -7.8" fill="#5d5811" fill-rule="evenodd" stroke="none"/>
      <path d="M23.6 -9.25 Q24.25 -9.75 24.8 -10.85 L25.2 -9.25 24.65 -8.4 24.4 -8.35 Q24.35 -8.25 24.25 -8.4 24.1 -8.75 24.25 -8.95 L23.65 -9.0 23.6 -9.25" fill="#7b7525" fill-rule="evenodd" stroke="none"/>
      <path d="M24.95 -7.8 L24.95 -7.75 Q23.75 -7.9 23.1 -8.95 L23.4 -9.1 23.6 -9.25 Q24.25 -9.75 24.8 -10.85 L25.2 -9.25 24.95 -7.8 Z" fill="none" stroke="#000000" stroke-linecap="round" stroke-linejoin="round" stroke-opacity="0.32156864" stroke-width="0.4"/>
      <path d="M3.65 -3.85 L3.7 -3.85 Q3.25 -2.75 2.1 -2.35 L2.0 -2.7 1.9 -2.95 2.15 -2.95 Q2.5 -3.05 2.4 -3.45 2.55 -3.3 2.95 -3.3 L3.0 -3.45 3.05 -3.7 2.3 -4.5 3.65 -3.85" fill="#5d5811" fill-rule="evenodd" stroke="none"/>
      <path d="M1.9 -2.95 Q1.65 -3.65 0.65 -4.5 1.45 -4.7 2.3 -4.5 L3.05 -3.7 3.0 -3.45 2.95 -3.3 Q2.55 -3.3 2.4 -3.45 2.5 -3.05 2.15 -2.95 L1.9 -2.95" fill="#7b7525" fill-rule="evenodd" stroke="none"/>
      <path d="M3.65 -3.85 L3.6 -3.95 4.25 -4.45 Q3.9 -3.55 4.0 -3.25 4.0 -3.15 4.3 -3.15 L4.25 -3.1 Q3.55 -3.1 2.9 -2.5 2.15 -2.0 2.4 -1.55 2.1 -2.0 1.3 -1.9 L2.0 -2.7 2.1 -2.35 Q3.25 -2.75 3.7 -3.85 L3.65 -3.85" fill="#1e1c05" fill-opacity="0.50980395" fill-rule="evenodd" stroke="none"/>
      <path d="M3.65 -3.85 L3.7 -3.85 Q3.25 -2.75 2.1 -2.35 L2.0 -2.7 1.9 -2.95 Q1.65 -3.65 0.65 -4.5 1.45 -4.7 2.3 -4.5 L3.65 -3.85 Z" fill="none" stroke="#000000" stroke-linecap="round" stroke-linejoin="round" stroke-opacity="0.32156864" stroke-width="0.4"/>
      <path d="M-4.55 -16.7 Q-4.65 -15.95 -4.85 -15.75 L-5.1 -15.6 -5.25 -15.65 -5.4 -16.2 Q-5.7 -15.8 -6.0 -16.05 L-6.1 -16.3 Q-5.6 -16.95 -5.35 -18.15 L-4.55 -16.7" fill="#7b7525" fill-rule="evenodd" stroke="none"/>
      <path d="M-6.25 -16.1 L-6.5 -15.9 Q-5.6 -15.05 -4.4 -15.2 L-4.4 -15.25 -4.4 -15.3 -3.6 -15.05 -4.8 -14.7 -4.7 -14.4 -4.75 -14.35 Q-5.15 -14.95 -5.95 -15.2 -6.85 -15.65 -7.1 -15.2 -6.85 -15.7 -7.35 -16.3 L-6.25 -16.1" fill="#1e1c05" fill-opacity="0.50980395" fill-rule="evenodd" stroke="none"/>
      <path d="M-6.25 -16.1 L-6.1 -16.3 -6.0 -16.05 Q-5.7 -15.8 -5.4 -16.2 L-5.25 -15.65 -5.1 -15.6 -4.85 -15.75 Q-4.65 -15.95 -4.55 -16.7 L-4.4 -15.3 -4.4 -15.25 -4.4 -15.2 Q-5.6 -15.05 -6.5 -15.9 L-6.25 -16.1" fill="#5d5811" fill-rule="evenodd" stroke="none"/>
      <path d="M-6.1 -16.3 L-6.25 -16.1 -6.5 -15.9 Q-5.6 -15.05 -4.4 -15.2 L-4.4 -15.25 -4.4 -15.3 -4.55 -16.7 M-6.1 -16.3 Q-5.6 -16.95 -5.35 -18.15 L-4.55 -16.7" fill="none" stroke="#000000" stroke-linecap="round" stroke-linejoin="round" stroke-opacity="0.32156864" stroke-width="0.4"/>
      <path d="M-26.35 -4.8 L-25.95 -5.85 Q-25.7 -5.15 -25.15 -5.1 -25.65 -5.1 -25.7 -4.1 -25.9 -3.25 -25.6 -2.6 L-25.65 -2.6 -25.9 -2.85 -26.8 -1.95 -26.6 -2.8 -26.55 -2.75 -26.5 -2.75 Q-25.8 -3.7 -26.05 -4.95 L-26.35 -4.8" fill="#1e1c05" fill-opacity="0.50980395" fill-rule="evenodd" stroke="none"/>
      <path d="M-26.6 -2.8 Q-27.2 -3.1 -27.7 -3.65 L-26.75 -3.4 Q-26.5 -3.5 -26.5 -3.55 -26.35 -3.55 -26.45 -3.7 L-26.9 -4.15 Q-26.4 -4.2 -26.45 -4.55 L-26.6 -4.8 -26.35 -4.8 -26.05 -4.95 Q-25.8 -3.7 -26.5 -2.75 L-26.55 -2.75 -26.6 -2.8" fill="#5d5811" fill-rule="evenodd" stroke="none"/>
      <path d="M-27.7 -3.65 Q-28.3 -4.3 -28.55 -5.05 L-26.6 -4.8 -26.45 -4.55 Q-26.4 -4.2 -26.9 -4.15 L-26.45 -3.7 Q-26.35 -3.55 -26.5 -3.55 -26.5 -3.5 -26.75 -3.4 L-27.7 -3.65" fill="#7b7525" fill-rule="evenodd" stroke="none"/>
      <path d="M-26.6 -2.8 Q-27.2 -3.1 -27.7 -3.65 -28.3 -4.3 -28.55 -5.05 L-26.6 -4.8 -26.35 -4.8 -26.05 -4.95 Q-25.8 -3.7 -26.5 -2.75 L-26.55 -2.75 -26.6 -2.8 Z" fill="none" stroke="#000000" stroke-linecap="round" stroke-linejoin="round" stroke-opacity="0.32156864" stroke-width="0.4"/>
      <path d="M-19.05 -13.1 L-18.7 -12.95 Q-18.2 -13.05 -18.3 -13.65 L-17.65 -13.3 Q-17.4 -13.25 -17.45 -13.4 L-17.35 -13.8 Q-17.35 -14.2 -18.0 -14.95 L-16.5 -13.75 -16.45 -13.7 -16.4 -13.65 Q-17.4 -12.35 -19.1 -12.35 L-19.0 -12.75 -19.05 -13.1" fill="#5d5811" fill-rule="evenodd" stroke="none"/>
      <path d="M-18.0 -14.95 Q-17.35 -14.2 -17.35 -13.8 L-17.45 -13.4 Q-17.4 -13.25 -17.65 -13.3 L-18.3 -13.65 Q-18.2 -13.05 -18.7 -12.95 L-19.05 -13.1 Q-19.25 -14.2 -20.1 -15.55 L-18.0 -14.95" fill="#7b7525" fill-rule="evenodd" stroke="none"/>
      <path d="M-19.0 -12.75 L-19.1 -12.35 Q-17.4 -12.35 -16.4 -13.65 L-16.45 -13.7 -16.5 -13.75 Q-15.75 -14.0 -15.5 -14.25 L-16.3 -12.85 Q-16.3 -12.65 -15.9 -12.65 L-15.9 -12.55 Q-16.9 -12.75 -17.85 -12.2 -19.15 -11.8 -18.95 -11.1 -19.2 -11.85 -20.25 -11.9 L-19.0 -12.75" fill="#1e1c05" fill-opacity="0.50980395" fill-rule="evenodd" stroke="none"/>
      <path d="M-19.05 -13.1 L-19.0 -12.75 -19.1 -12.35 Q-17.4 -12.35 -16.4 -13.65 L-16.45 -13.7 -16.5 -13.75 -18.0 -14.95 -20.1 -15.55 Q-19.25 -14.2 -19.05 -13.1 Z" fill="none" stroke="#000000" stroke-linecap="round" stroke-linejoin="round" stroke-opacity="0.32156864" stroke-width="0.4"/>
      <path d="M-22.3 -7.25 L-22.75 -6.55 Q-22.65 -7.55 -22.8 -7.8 L-23.15 -7.75 -23.15 -7.85 Q-22.45 -8.05 -22.0 -8.75 -21.4 -9.5 -21.7 -9.85 -21.35 -9.5 -20.6 -9.85 L-21.1 -8.85 -21.2 -9.15 Q-22.25 -8.45 -22.4 -7.25 L-22.35 -7.25 -22.3 -7.25" fill="#1e1c05" fill-opacity="0.50980395" fill-rule="evenodd" stroke="none"/>
      <path d="M-22.3 -7.25 L-22.35 -7.25 -22.4 -7.25 Q-22.25 -8.45 -21.2 -9.15 L-21.1 -8.85 -20.9 -8.65 -21.2 -8.6 Q-21.5 -8.35 -21.2 -7.95 L-21.8 -7.95 -21.9 -7.85 -21.8 -7.55 Q-21.65 -7.3 -20.9 -7.05 L-22.3 -7.25" fill="#5d5811" fill-rule="evenodd" stroke="none"/>
      <path d="M-20.9 -8.65 Q-20.45 -7.95 -19.3 -7.4 L-20.9 -7.05 Q-21.65 -7.3 -21.8 -7.55 L-21.9 -7.85 -21.8 -7.95 -21.2 -7.95 Q-21.5 -8.35 -21.2 -8.6 L-20.9 -8.65" fill="#7b7525" fill-rule="evenodd" stroke="none"/>
      <path d="M-22.3 -7.25 L-22.35 -7.25 -22.4 -7.25 Q-22.25 -8.45 -21.2 -9.15 L-21.1 -8.85 -20.9 -8.65 Q-20.45 -7.95 -19.3 -7.4 L-20.9 -7.05 -22.3 -7.25 Z" fill="none" stroke="#000000" stroke-linecap="round" stroke-linejoin="round" stroke-opacity="0.32156864" stroke-width="0.4"/>
    </g>
  </defs>
</svg>
