<?xml version="1.0" encoding="UTF-8" standalone="no"?>
<svg xmlns:xlink="http://www.w3.org/1999/xlink" height="103.5px" width="108.05px" xmlns="http://www.w3.org/2000/svg">
  <g transform="matrix(1.0, 0.0, 0.0, 1.0, 54.4, 103.15)">
    <use height="11.8" transform="matrix(1.0, 0.0, 0.0, 1.0, -52.05, -103.15)" width="104.15" xlink:href="#decoration120-shape0"/>
    <use height="63.7" id="decoration120-Couleur0_C03323" filter="url(#decoration120-filter0)" transform="matrix(1.0, 0.0, 0.0, 1.0, 0.55, -97.95)" width="46.6" xlink:href="#decoration120-sprite0"/>
    <use height="101.45" transform="matrix(1.0, 0.0, 0.0, 1.0, -54.4, -101.1)" width="108.05" xlink:href="#decoration120-shape2"/>
  </g>
  <defs>
    <g id="decoration120-shape0" transform="matrix(1.0, 0.0, 0.0, 1.0, 52.05, 103.15)">
      <path d="M50.0 -99.8 Q51.15 -101.1 49.75 -102.1 L-47.15 -102.1 Q-49.05 -102.25 -49.5 -101.7 -49.95 -101.1 -49.8 -100.55 L-48.95 -99.65 Q-48.7 -99.2 -47.85 -99.2 L48.2 -99.2 Q49.75 -99.3 50.0 -99.8 M37.75 -97.65 L-49.95 -97.65 Q-51.95 -97.85 -51.95 -100.4 L-51.8 -101.5 Q-51.45 -103.0 -49.95 -103.05 L50.0 -103.05 Q51.9 -102.45 52.0 -100.15 52.05 -97.85 50.0 -97.65 L48.55 -97.65 39.55 -97.65 37.75 -97.65" fill="url(#decoration120-gradient0)" fill-rule="evenodd" stroke="none"/>
      <path d="M50.0 -99.8 L50.1 -100.2 Q50.0 -101.05 48.2 -101.3 L-46.4 -101.3 -47.85 -101.3 Q-49.0 -101.25 -49.05 -100.25 L-48.95 -99.65 -49.8 -100.55 Q-49.95 -101.1 -49.5 -101.7 -49.05 -102.25 -47.15 -102.1 L49.75 -102.1 Q51.15 -101.1 50.0 -99.8" fill="url(#decoration120-gradient1)" fill-rule="evenodd" stroke="none"/>
      <path d="M39.55 -97.65 L39.55 -93.25 37.75 -91.45 37.75 -97.65 39.55 -97.65" fill="#272928" fill-rule="evenodd" stroke="none"/>
      <path d="M-48.95 -99.65 L-49.05 -100.25 Q-49.0 -101.25 -47.85 -101.3 L-46.4 -101.3 48.2 -101.3 Q50.0 -101.05 50.1 -100.2 L50.0 -99.8 M-48.95 -99.65 Q-48.7 -99.2 -47.85 -99.2 L48.2 -99.2 Q49.75 -99.3 50.0 -99.8 M37.75 -97.65 L-49.95 -97.65 Q-51.95 -97.85 -51.95 -100.4 L-51.8 -101.5 Q-51.45 -103.0 -49.95 -103.05 L50.0 -103.05 Q51.9 -102.45 52.0 -100.15 52.05 -97.85 50.0 -97.65 L48.55 -97.65 39.55 -97.65 39.55 -93.25 37.75 -91.45 37.75 -97.65 39.55 -97.65" fill="none" stroke="#000000" stroke-linecap="round" stroke-linejoin="round" stroke-opacity="0.3882353" stroke-width="0.2"/>
    </g>
    <linearGradient gradientTransform="matrix(0.061, 0.0, 0.0, 0.0033, 0.0, -100.35)" gradientUnits="userSpaceOnUse" id="decoration120-gradient0" spreadMethod="pad" x1="-819.2" x2="819.2">
      <stop offset="0.0" stop-color="#adadad"/>
      <stop offset="0.9137254901960784" stop-color="#6d6c6b"/>
    </linearGradient>
    <linearGradient gradientTransform="matrix(0.0612, 0.0, 0.0, 0.0015, 0.3, -100.9)" gradientUnits="userSpaceOnUse" id="decoration120-gradient1" spreadMethod="pad" x1="-819.2" x2="819.2">
      <stop offset="0.07058823529411765" stop-color="#878282"/>
      <stop offset="0.8784313725490196" stop-color="#4a4846"/>
    </linearGradient>
    <g id="decoration120-sprite0" transform="matrix(1.0, 0.0, 0.0, 1.0, 0.1, 0.1)">
      <use height="63.7" transform="matrix(1.0, 0.0, 0.0, 1.0, -0.1, -0.1)" width="46.6" xlink:href="#decoration120-shape1"/>
    </g>
    <g id="decoration120-shape1" transform="matrix(1.0, 0.0, 0.0, 1.0, 0.1, 0.1)">
      <path d="M41.2 0.9 L41.35 10.55 41.85 42.55 42.1 59.85 37.85 60.2 33.05 60.65 32.15 48.1 Q31.55 37.4 31.45 26.5 31.4 20.95 31.5 15.35 L31.7 6.5 31.9 0.0 36.2 3.0 41.2 0.9 M44.25 59.65 Q42.8 31.75 43.65 3.1 L45.15 1.0 46.4 2.75 46.4 59.45 44.25 59.65 M36.2 19.0 L36.2 3.0 36.2 19.0 M21.1 0.9 L26.3 3.0 Q26.3 33.2 29.15 60.95 L24.4 61.35 23.85 51.75 23.4 43.6 22.45 25.7 21.55 9.4 21.1 0.9 M37.05 47.65 L37.85 60.2 37.05 47.65 M12.8 10.65 L12.8 1.25 17.25 3.25 17.45 13.45 17.6 17.8 Q18.05 33.9 19.0 49.45 L19.4 55.75 19.8 61.75 12.8 62.35 12.8 46.0 12.8 34.65 12.8 21.2 12.8 10.65 M8.95 3.5 L8.85 16.4 8.75 20.45 8.05 37.0 7.0 51.8 5.95 62.95 0.0 63.5 Q5.15 33.2 3.95 1.4 L8.95 3.5 M36.7 40.2 Q36.35 31.8 36.25 23.05 36.35 31.8 36.7 40.2" fill="url(#decoration120-gradient2)" fill-rule="evenodd" stroke="none"/>
      <path d="M41.2 0.9 L43.65 3.1 Q42.8 31.75 44.25 59.65 L42.1 59.85 41.85 42.55 41.35 10.55 41.2 0.9 M21.1 0.9 L21.55 9.4 22.45 25.7 23.4 43.6 23.85 51.75 24.4 61.35 19.8 61.75 19.4 55.75 19.0 49.45 Q18.05 33.9 17.6 17.8 L17.45 13.45 17.25 3.25 21.1 0.9 M29.15 60.95 Q26.3 33.2 26.3 3.0 L31.9 0.0 31.7 6.5 31.5 15.35 Q31.4 20.95 31.45 26.5 31.55 37.4 32.15 48.1 L33.05 60.65 29.15 60.95 M12.8 1.25 L12.8 10.65 12.8 21.2 12.8 34.65 12.8 46.0 12.8 62.35 5.95 62.95 7.0 51.8 8.05 37.0 8.75 20.45 8.85 16.4 8.95 3.5 12.8 1.25" fill="url(#decoration120-gradient3)" fill-rule="evenodd" stroke="none"/>
      <path d="M43.65 3.1 L41.2 0.9 41.35 10.55 M41.85 42.55 L42.1 59.85 44.25 59.65 Q42.8 31.75 43.65 3.1 L45.15 1.0 46.4 2.75 46.4 59.45 44.25 59.65 M36.2 3.0 L36.2 19.0 M26.3 3.0 L21.1 0.9 21.55 9.4 M22.45 25.7 L23.4 43.6 M23.85 51.75 L24.4 61.35 29.15 60.95 Q26.3 33.2 26.3 3.0 L31.9 0.0 36.2 3.0 41.2 0.9 M31.9 0.0 L31.7 6.5 M31.5 15.35 Q31.4 20.95 31.45 26.5 M32.15 48.1 L33.05 60.65 37.85 60.2 37.05 47.65 M12.8 1.25 L12.8 10.65 M12.8 21.2 L12.8 34.65 M12.8 46.0 L12.8 62.35 19.8 61.75 19.4 55.75 M19.0 49.45 Q18.05 33.9 17.6 17.8 M17.45 13.45 L17.25 3.25 12.8 1.25 8.95 3.5 8.85 16.4 M8.75 20.45 L8.05 37.0 M7.0 51.8 L5.95 62.95 12.8 62.35 M5.95 62.95 L0.0 63.5 Q5.15 33.2 3.95 1.4 L8.95 3.5 M17.25 3.25 L21.1 0.9 M36.25 23.05 Q36.35 31.8 36.7 40.2 M33.05 60.65 L29.15 60.95 M24.4 61.35 L19.8 61.75 M42.1 59.85 L37.85 60.2" fill="none" stroke="#000000" stroke-linecap="round" stroke-linejoin="round" stroke-opacity="0.3019608" stroke-width="0.2"/>
    </g>
    <linearGradient gradientTransform="matrix(0.0141, 0.0524, -0.0357, 0.0096, 43.9, 42.25)" gradientUnits="userSpaceOnUse" id="decoration120-gradient2" spreadMethod="pad" x1="-819.2" x2="819.2">
      <stop offset="0.0" stop-color="#707070"/>
      <stop offset="0.8784313725490196" stop-color="#3a3a3a"/>
    </linearGradient>
    <linearGradient gradientTransform="matrix(0.0086, 0.032, -0.0371, 0.0099, 25.1, 26.65)" gradientUnits="userSpaceOnUse" id="decoration120-gradient3" spreadMethod="pad" x1="-819.2" x2="819.2">
      <stop offset="0.0" stop-color="#959595"/>
      <stop offset="0.9137254901960784" stop-color="#6d6d6d"/>
    </linearGradient>
    <g id="decoration120-shape2" transform="matrix(1.0, 0.0, 0.0, 1.0, 54.4, 101.1)">
      <path d="M-43.95 -25.45 Q-40.05 -15.05 -29.75 -10.3 L-28.0 -12.05 Q-25.55 -11.15 -23.45 -9.1 L11.95 -9.1 Q18.65 -9.0 24.2 -10.25 25.3 -11.85 27.5 -12.9 L30.1 -12.2 Q33.15 -13.5 35.75 -15.35 L36.3 -15.75 Q42.6 -22.2 44.95 -32.15 36.15 -30.3 26.15 -30.1 -11.7 -27.9 -47.5 -33.15 -48.75 -34.65 -50.25 -35.65 0.45 -28.95 50.15 -35.75 45.95 -32.9 44.1 -26.45 38.75 -5.75 17.2 -6.6 L-17.3 -6.6 Q-38.35 -5.75 -43.95 -25.45" fill="url(#decoration120-gradient4)" fill-rule="evenodd" stroke="none"/>
      <path d="M-47.5 -33.15 Q-11.7 -27.9 26.15 -30.1 36.15 -30.3 44.95 -32.15 42.6 -22.2 36.3 -15.75 L35.75 -15.35 Q33.15 -13.5 30.1 -12.2 L27.5 -12.9 Q25.3 -11.85 24.2 -10.25 18.65 -9.0 11.95 -9.1 L-23.45 -9.1 Q-25.55 -11.15 -28.0 -12.05 L-29.75 -10.3 Q-40.05 -15.05 -43.95 -25.45 L-44.2 -26.45 Q-45.4 -30.55 -47.5 -33.15" fill="url(#decoration120-gradient5)" fill-rule="evenodd" stroke="none"/>
      <path d="M50.15 -35.75 Q0.45 -28.95 -50.25 -35.65 L-54.1 -36.2 -50.05 -40.2 Q1.15 -35.15 49.6 -40.2 L53.35 -36.2 50.15 -35.75" fill="url(#decoration120-gradient6)" fill-rule="evenodd" stroke="none"/>
      <path d="M-43.95 -25.45 Q-38.35 -5.75 -17.3 -6.6 L17.2 -6.6 Q38.75 -5.75 44.1 -26.45 45.95 -32.9 50.15 -35.75 M-50.25 -35.65 Q-48.75 -34.65 -47.5 -33.15 -45.4 -30.55 -44.2 -26.45 L-43.95 -25.45 M-50.25 -35.65 L-54.1 -36.2 -50.05 -40.2 Q1.15 -35.15 49.6 -40.2 L53.35 -36.2 50.15 -35.75" fill="none" stroke="#000000" stroke-linecap="round" stroke-linejoin="round" stroke-opacity="0.4509804" stroke-width="0.6000000000000001"/>
      <path d="M50.15 -35.75 Q0.45 -28.95 -50.25 -35.65" fill="none" stroke="#000000" stroke-linecap="round" stroke-linejoin="round" stroke-opacity="0.3882353" stroke-width="0.2"/>
      <path d="M30.1 -6.25 L30.35 -4.25 Q31.25 -1.85 33.25 -1.7 34.8 -1.3 34.15 0.0 L30.05 0.0 Q28.1 -1.4 27.6 -3.05 27.85 -6.5 30.1 -6.25 M-31.8 -0.7 Q-35.2 -0.4 -34.9 -1.3 L-34.15 -1.65 Q-32.15 -1.8 -31.25 -4.2 L-31.0 -6.05 Q-29.15 -6.3 -29.2 -4.2 -29.5 -1.75 -31.8 -0.7" fill="#9aa3ac" fill-rule="evenodd" stroke="none"/>
      <path d="M28.75 0.0 Q26.7 -1.95 26.35 -4.1 26.75 -9.55 30.0 -7.25 L30.1 -6.25 Q27.85 -6.5 27.6 -3.05 28.1 -1.4 30.05 0.0 L28.75 0.0 M-30.9 -6.95 Q-30.25 -7.9 -28.9 -7.95 -27.15 -7.25 -27.1 -4.4 L-29.55 -1.0 -31.8 -0.7 Q-29.5 -1.75 -29.2 -4.2 -29.15 -6.3 -31.0 -6.05 L-30.9 -6.95" fill="#7b828a" fill-rule="evenodd" stroke="none"/>
      <path d="M28.75 0.0 Q25.2 -1.7 24.0 -6.15 24.3 -9.7 27.0 -11.25 29.0 -10.0 29.85 -8.2 L30.0 -7.25 Q26.75 -9.55 26.35 -4.1 26.7 -1.95 28.75 0.0" fill="#5b6066" fill-rule="evenodd" stroke="none"/>
      <path d="M-34.9 -1.3 Q-35.2 -0.4 -31.8 -0.7 L-29.55 -1.0 -27.1 -4.4 Q-27.15 -7.25 -28.9 -7.95 -30.25 -7.9 -30.9 -6.95 L-30.75 -8.15 Q-29.9 -9.95 -27.9 -11.2 -25.2 -9.65 -24.9 -6.1 -26.1 -1.65 -29.65 0.05 L-35.05 0.05 Q-35.5 -0.85 -34.9 -1.3" fill="#575c60" fill-rule="evenodd" stroke="none"/>
      <path d="M30.0 -7.25 L29.85 -8.2 Q29.0 -10.0 27.0 -11.25 24.3 -9.7 24.0 -6.15 25.2 -1.7 28.75 0.0 M30.0 -7.25 L30.1 -6.25 30.35 -4.25 Q31.25 -1.85 33.25 -1.7 34.8 -1.3 34.15 0.0 L30.05 0.0 28.75 0.0 M-34.9 -1.3 Q-35.5 -0.85 -35.05 0.05 L-29.65 0.05 Q-26.1 -1.65 -24.9 -6.1 -25.2 -9.65 -27.9 -11.2 -29.9 -9.95 -30.75 -8.15 L-30.9 -6.95 M-31.0 -6.05 L-31.25 -4.2 Q-32.15 -1.8 -34.15 -1.65 L-34.9 -1.3 M-31.0 -6.05 L-30.9 -6.95" fill="none" stroke="#000000" stroke-linecap="round" stroke-linejoin="round" stroke-opacity="0.4509804" stroke-width="0.6000000000000001"/>
      <path d="M6.85 -99.85 L6.85 -94.9 Q5.9 -93.8 5.35 -94.9 L5.35 -99.85 Q6.1 -100.7 6.85 -99.85 M13.9 -100.35 L13.9 -96.05 Q12.95 -95.05 12.4 -96.05 L12.4 -100.35 Q13.15 -101.1 13.9 -100.35 M22.55 -99.45 L22.55 -95.15 Q21.6 -94.15 21.05 -95.15 L21.05 -99.45 Q21.8 -100.2 22.55 -99.45 M33.1 -100.6 L33.1 -96.3 Q32.15 -95.3 31.6 -96.3 L31.6 -100.6 Q32.35 -101.35 33.1 -100.6 M43.0 -99.7 L43.0 -95.4 Q42.05 -94.4 41.5 -95.4 L41.5 -99.7 Q42.25 -100.45 43.0 -99.7 M46.45 -100.2 L46.45 -95.9 Q45.5 -94.9 44.95 -95.9 L44.95 -100.2 Q45.7 -100.95 46.45 -100.2" fill="#3e403f" fill-rule="evenodd" stroke="none"/>
      <path d="M6.85 -99.85 L6.85 -94.9 Q5.9 -93.8 5.35 -94.9 L5.35 -99.85 Q6.1 -100.7 6.85 -99.85 M13.9 -100.35 L13.9 -96.05 Q12.95 -95.05 12.4 -96.05 L12.4 -100.35 Q13.15 -101.1 13.9 -100.35 M22.55 -99.45 L22.55 -95.15 Q21.6 -94.15 21.05 -95.15 L21.05 -99.45 Q21.8 -100.2 22.55 -99.45 M33.1 -100.6 L33.1 -96.3 Q32.15 -95.3 31.6 -96.3 L31.6 -100.6 Q32.35 -101.35 33.1 -100.6 M43.0 -99.7 L43.0 -95.4 Q42.05 -94.4 41.5 -95.4 L41.5 -99.7 Q42.25 -100.45 43.0 -99.7 M46.45 -100.2 L46.45 -95.9 Q45.5 -94.9 44.95 -95.9 L44.95 -100.2 Q45.7 -100.95 46.45 -100.2" fill="none" stroke="#000000" stroke-linecap="round" stroke-linejoin="round" stroke-opacity="0.3882353" stroke-width="0.2"/>
    </g>
    <linearGradient gradientTransform="matrix(0.0461, 0.0086, -0.0033, 0.0175, -0.05, -21.15)" gradientUnits="userSpaceOnUse" id="decoration120-gradient4" spreadMethod="pad" x1="-819.2" x2="819.2">
      <stop offset="0.0" stop-color="#adb0b4"/>
      <stop offset="0.9607843137254902" stop-color="#69727b"/>
    </linearGradient>
    <linearGradient gradientTransform="matrix(0.0487, 0.0078, -0.0023, 0.0145, -1.3, -21.15)" gradientUnits="userSpaceOnUse" id="decoration120-gradient5" spreadMethod="pad" x1="-819.2" x2="819.2">
      <stop offset="0.0" stop-color="#f4f5f9"/>
      <stop offset="1.0" stop-color="#b5c3ce"/>
    </linearGradient>
    <linearGradient gradientTransform="matrix(0.0562, 0.0, 0.0, 0.0048, 13.65, -35.45)" gradientUnits="userSpaceOnUse" id="decoration120-gradient6" spreadMethod="pad" x1="-819.2" x2="819.2">
      <stop offset="0.043137254901960784" stop-color="#f4f5f9"/>
      <stop offset="1.0" stop-color="#b5c3ce"/>
    </linearGradient>
  </defs>
</svg>
