<?xml version="1.0" encoding="UTF-8" standalone="no"?>
<svg xmlns:xlink="http://www.w3.org/1999/xlink" height="53.75px" width="55.55px" xmlns="http://www.w3.org/2000/svg">
  <g transform="matrix(1.0, 0.0, 0.0, 1.0, 27.1, 53.25)">
    <use height="53.75" transform="matrix(1.0, 0.0, 0.0, 1.0, -27.1, -53.25)" width="55.55" xlink:href="#decoration122-shape0"/>
  </g>
  <defs>
    <g id="decoration122-shape0" transform="matrix(1.0, 0.0, 0.0, 1.0, 27.1, 53.25)">
      <path d="M8.55 -52.95 L23.5 -52.95 23.5 -42.9 -17.0 -3.65 -20.55 -3.65 -20.55 -24.8 8.55 -52.95 M23.5 -28.1 L23.5 -12.95 13.9 -3.65 -1.7 -3.65 23.5 -28.1 M-20.55 -38.45 L-20.55 -52.95 -5.55 -52.95 -20.55 -38.45" fill="#d7d7d7" fill-rule="evenodd" stroke="none"/>
      <path d="M4.1 -52.95 L8.55 -52.95 -20.55 -24.8 -20.55 -29.15 4.1 -52.95 M23.5 -38.05 L23.5 -28.1 -1.7 -3.65 -12.0 -3.65 23.5 -38.05 M23.5 -12.95 L23.5 -3.65 13.9 -3.65 23.5 -12.95" fill="#c6c6c6" fill-rule="evenodd" stroke="none"/>
      <path d="M23.5 -42.9 L23.5 -38.05 -12.0 -3.65 -17.0 -3.65 23.5 -42.9 M-20.55 -29.15 L-20.55 -38.45 -5.55 -52.95 4.1 -52.95 -20.55 -29.15" fill="#ececec" fill-rule="evenodd" stroke="none"/>
      <path d="M4.1 -52.95 L8.55 -52.95 23.5 -52.95 23.5 -42.9 23.5 -38.05 23.5 -28.1 23.5 -12.95 23.5 -3.65 13.9 -3.65 -1.7 -3.65 -12.0 -3.65 -17.0 -3.65 -20.55 -3.65 -20.55 -24.8 -20.55 -29.15 -20.55 -38.45 -20.55 -52.95 -5.55 -52.95 4.1 -52.95 Z" fill="none" stroke="#000000" stroke-linecap="round" stroke-linejoin="round" stroke-opacity="0.5019608" stroke-width="0.6000000000000001"/>
      <path d="M-24.05 -20.45 L-26.25 -19.9 -26.35 -20.2 -26.4 -20.55 -26.55 -21.25 -26.65 -21.8 -26.75 -22.15 -26.8 -22.5 -26.9 -22.85 -27.0 -23.25 -24.75 -23.8 -24.05 -20.45 M-24.95 -21.6 L-26.55 -21.25 -24.95 -21.6 M-25.3 -22.1 L-26.65 -21.8 -25.3 -22.1 M-25.3 -22.45 L-26.75 -22.15 -25.3 -22.45 M-25.25 -22.85 L-26.8 -22.5 -25.25 -22.85 M-25.2 -20.85 L-26.4 -20.55 -25.2 -20.85 M-25.0 -20.55 L-26.35 -20.2 -25.0 -20.55 M-25.5 -23.2 L-26.9 -22.85 -25.5 -23.2" fill="#f0f0f0" fill-rule="evenodd" stroke="none"/>
      <path d="M-24.05 -20.45 L-26.25 -19.9 -26.35 -20.2 -26.4 -20.55 -26.55 -21.25 -26.65 -21.8 -26.75 -22.15 -26.8 -22.5 -26.9 -22.85 -27.0 -23.25 -24.75 -23.8 -24.05 -20.45 M-26.9 -22.85 L-25.5 -23.2 M-26.35 -20.2 L-25.0 -20.55 M-26.4 -20.55 L-25.2 -20.85 M-26.8 -22.5 L-25.25 -22.85 M-26.75 -22.15 L-25.3 -22.45 M-26.65 -21.8 L-25.3 -22.1 M-26.55 -21.25 L-24.95 -21.6" fill="none" stroke="#000000" stroke-linecap="round" stroke-linejoin="round" stroke-opacity="0.3882353" stroke-width="0.2"/>
      <path d="M-24.9 -24.2 Q-24.6 -24.75 -24.1 -24.35 L-22.05 -13.1 -22.85 -12.95 -24.9 -24.2" fill="#81dae2" fill-rule="evenodd" stroke="none"/>
      <path d="M-24.9 -24.2 Q-24.6 -24.75 -24.1 -24.35 L-22.05 -13.1 -22.85 -12.95 -24.9 -24.2 Z" fill="none" stroke="#000000" stroke-linecap="round" stroke-linejoin="round" stroke-opacity="0.3882353" stroke-width="0.2"/>
      <path d="M-23.25 -7.8 Q-20.8 -7.15 -18.3 -8.45 L-14.4 -16.4 -17.05 -5.35 -22.65 -5.35 -23.25 -7.8" fill="#82ad2a" fill-rule="evenodd" stroke="none"/>
      <path d="M-14.4 -16.4 L-18.3 -8.45 Q-20.8 -7.15 -23.25 -7.8 L-25.45 -16.4 -14.4 -16.4" fill="#b6e556" fill-rule="evenodd" stroke="none"/>
      <path d="M-14.4 -16.4 L-25.45 -16.4 -23.25 -7.8 -22.65 -5.35 -17.05 -5.35 -14.4 -16.4 Z" fill="none" stroke="#000000" stroke-linecap="round" stroke-linejoin="round" stroke-opacity="0.3882353" stroke-width="0.30000000000000004"/>
      <path d="M28.3 -5.55 L28.3 0.35 -25.35 0.35 -25.35 -5.55 28.3 -5.55" fill="url(#decoration122-gradient0)" fill-rule="evenodd" stroke="none"/>
      <path d="M28.3 -5.55 L28.3 0.35 -25.35 0.35 -25.35 -5.55 28.3 -5.55 Z" fill="none" stroke="#000000" stroke-linecap="round" stroke-linejoin="round" stroke-opacity="0.5019608" stroke-width="0.30000000000000004"/>
    </g>
    <linearGradient gradientTransform="matrix(0.0, 0.0023, -0.0036, 0.0, 0.55, -1.55)" gradientUnits="userSpaceOnUse" id="decoration122-gradient0" spreadMethod="pad" x1="-819.2" x2="819.2">
      <stop offset="0.0" stop-color="#f0f0f0"/>
      <stop offset="1.0" stop-color="#c1c7cf"/>
    </linearGradient>
  </defs>
</svg>
