<?xml version="1.0" encoding="UTF-8" standalone="no"?>
<svg xmlns:ffdec="https://www.free-decompiler.com/flash" xmlns:xlink="http://www.w3.org/1999/xlink" ffdec:objectType="frame" height="42.0px" width="74.1px" xmlns="http://www.w3.org/2000/svg">
  <g transform="matrix(1.0, 0.0, 0.0, 1.0, 35.15, 0.15)">
    <use ffdec:characterId="482" height="42.0" transform="matrix(1.0, 0.0, 0.0, 1.0, -35.15, -0.15)" width="74.1" xlink:href="#decoration123-shape0"/>
  </g>
  <defs>
    <g id="decoration123-shape0" transform="matrix(1.0, 0.0, 0.0, 1.0, 35.15, 0.15)">
      <path d="M37.45 0.4 Q38.55 3.25 36.1 3.75 33.2 4.1 33.6 1.2 L33.9 0.8 Q34.75 0.0 35.95 0.0 36.8 0.0 37.45 0.4 M-34.9 2.6 L-34.2 1.45 Q-33.4 0.65 -32.3 0.65 -31.5 0.65 -30.85 1.1 -29.95 4.3 -32.5 4.55 -34.5 4.75 -34.9 2.6" fill="#959595" fill-rule="evenodd" stroke="none"/>
      <path d="M33.6 1.2 Q33.2 4.1 36.1 3.75 38.55 3.25 37.45 0.4 L37.95 0.8 Q38.8 1.65 38.8 2.85 38.8 4.05 37.95 4.85 37.15 5.7 35.95 5.7 34.75 5.7 33.9 4.85 L33.3 3.85 33.1 2.85 33.2 2.15 33.6 1.2 M-29.85 2.15 Q-29.6 2.7 -29.6 3.35 L-29.65 3.85 Q-29.8 4.65 -30.4 5.25 -31.2 6.05 -32.3 6.05 -33.4 6.05 -34.2 5.25 -35.0 4.45 -35.0 3.35 L-34.9 2.6 Q-34.5 4.75 -32.5 4.55 -29.95 4.3 -30.85 1.1 L-30.4 1.45 -29.85 2.15" fill="#646464" fill-rule="evenodd" stroke="none"/>
      <path d="M33.2 2.15 L33.1 2.85 33.3 3.85 -29.65 3.85 -29.6 3.35 Q-29.6 2.7 -29.85 2.15 L33.2 2.15" fill="url(#decoration123-gradient0)" fill-rule="evenodd" stroke="none"/>
      <path d="M37.45 0.4 Q36.8 0.0 35.95 0.0 34.75 0.0 33.9 0.8 L33.6 1.2 33.2 2.15 33.1 2.85 33.3 3.85 33.9 4.85 Q34.75 5.7 35.95 5.7 37.15 5.7 37.95 4.85 38.8 4.05 38.8 2.85 38.8 1.65 37.95 0.8 L37.45 0.4 M-29.85 2.15 Q-29.6 2.7 -29.6 3.35 L-29.65 3.85 33.3 3.85 M-34.9 2.6 L-34.2 1.45 Q-33.4 0.65 -32.3 0.65 -31.5 0.65 -30.85 1.1 L-30.4 1.45 -29.85 2.15 33.2 2.15 M-29.65 3.85 Q-29.8 4.65 -30.4 5.25 -31.2 6.05 -32.3 6.05 -33.4 6.05 -34.2 5.25 -35.0 4.45 -35.0 3.35 L-34.9 2.6" fill="none" stroke="#000000" stroke-linecap="round" stroke-linejoin="round" stroke-opacity="0.4" stroke-width="0.30000000000000004"/>
      <path d="M-19.2 17.45 Q-19.4 17.25 -19.75 17.25 L-20.35 17.45 -20.55 18.05 -20.35 18.6 -19.75 18.85 Q-19.4 18.85 -19.2 18.6 -18.95 18.4 -18.95 18.05 -18.95 17.7 -19.2 17.45 M-14.6 17.85 Q-14.8 19.9 -18.3 20.4 -19.9 19.75 -21.8 19.75 -25.8 19.75 -28.6 22.55 -31.35 25.3 -31.35 29.25 -31.35 31.15 -30.7 32.8 -30.7 35.75 -32.45 35.95 -34.7 32.7 -34.7 28.55 -34.7 26.8 -34.3 25.2 -32.5 20.75 -29.3 18.3 -26.4 16.0 -21.95 16.0 L-21.95 16.85 -20.8 16.85 -20.8 16.05 Q-17.35 16.25 -14.6 17.85 M-22.8 18.05 L-23.05 17.45 Q-23.25 17.25 -23.6 17.25 L-24.2 17.45 -24.4 18.05 -24.2 18.6 -23.6 18.85 Q-23.25 18.85 -23.05 18.6 L-22.8 18.05" fill="url(#decoration123-gradient1)" fill-rule="evenodd" stroke="none"/>
      <path d="M-19.2 17.45 Q-18.95 17.7 -18.95 18.05 -18.95 18.4 -19.2 18.6 -19.4 18.85 -19.75 18.85 L-20.35 18.6 -20.55 18.05 -20.35 17.45 -19.75 17.25 Q-19.4 17.25 -19.2 17.45 M-21.95 15.2 L-20.8 15.25 -20.8 16.05 -20.8 16.85 -21.95 16.85 -21.95 16.0 -21.95 15.2 M-22.8 18.05 L-23.05 18.6 Q-23.25 18.85 -23.6 18.85 L-24.2 18.6 -24.4 18.05 -24.2 17.45 -23.6 17.25 Q-23.25 17.25 -23.05 17.45 L-22.8 18.05" fill="#959595" fill-rule="evenodd" stroke="none"/>
      <path d="M-17.35 20.85 L-18.3 20.4 Q-14.8 19.9 -14.6 17.85 L-13.3 18.7 Q-11.75 19.85 -10.7 21.35 L-17.35 20.85 M-30.7 32.8 L-29.8 34.55 Q-30.85 36.65 -29.8 38.8 L-30.85 37.85 -32.45 35.95 Q-30.7 35.75 -30.7 32.8" fill="#a3a3a3" fill-rule="evenodd" stroke="none"/>
      <path d="M-18.3 20.4 L-17.35 20.85 Q-16.15 21.5 -15.1 22.55 -12.25 25.3 -12.25 29.25 -12.25 33.2 -15.1 36.0 -17.85 38.75 -21.8 38.75 -25.8 38.75 -28.6 36.0 L-29.8 34.55 -30.7 32.8 Q-31.35 31.15 -31.35 29.25 -31.35 25.3 -28.6 22.55 -25.8 19.75 -21.8 19.75 -19.9 19.75 -18.3 20.4" fill="url(#decoration123-gradient2)" fill-rule="evenodd" stroke="none"/>
      <path d="M-17.35 20.85 L-10.7 21.35 Q-9.5 23.05 -8.85 25.15 -8.45 26.55 -8.45 28.5 -8.45 33.95 -12.35 37.8 -16.15 41.7 -21.55 41.7 -26.3 41.75 -29.8 38.8 -30.85 36.65 -29.8 34.55 L-28.6 36.0 Q-25.8 38.75 -21.8 38.75 -17.85 38.75 -15.1 36.0 -12.25 33.2 -12.25 29.25 -12.25 25.3 -15.1 22.55 -16.15 21.5 -17.35 20.85" fill="#36373a" fill-rule="evenodd" stroke="none"/>
      <path d="M-19.25 1.7 Q-18.65 6.0 -20.05 15.0 L-20.8 15.25 -21.95 15.2 -22.35 15.0 -22.65 13.15 Q-20.4 13.0 -19.25 1.7" fill="#27282a" fill-rule="evenodd" stroke="none"/>
      <path d="M-19.25 1.7 Q-20.4 13.0 -22.65 13.15 -23.4 7.55 -23.0 1.85 -22.5 0.55 -21.3 0.5 -20.1 0.45 -19.25 1.7" fill="#3e3f41" fill-rule="evenodd" stroke="none"/>
      <path d="M-10.7 21.35 Q-11.75 19.85 -13.3 18.7 L-14.6 17.85 Q-17.35 16.25 -20.8 16.05 L-20.8 15.25 -20.05 15.0 Q-18.65 6.0 -19.25 1.7 -20.1 0.45 -21.3 0.5 -22.5 0.55 -23.0 1.85 -23.4 7.55 -22.65 13.15 L-22.35 15.0 -21.95 15.2 -20.8 15.25 M-21.95 16.0 L-21.95 16.85 -20.8 16.85 -20.8 16.05 M-21.95 15.2 L-21.95 16.0 Q-26.4 16.0 -29.3 18.3 -32.5 20.75 -34.3 25.2 -34.7 26.8 -34.7 28.55 -34.7 32.7 -32.45 35.95 L-30.85 37.85 -29.8 38.8 Q-26.3 41.75 -21.55 41.7 -16.15 41.7 -12.35 37.8 -8.45 33.95 -8.45 28.5 -8.45 26.55 -8.85 25.15 -9.5 23.05 -10.7 21.35" fill="none" stroke="#000000" stroke-linecap="round" stroke-linejoin="round" stroke-opacity="0.3019608" stroke-width="0.30000000000000004"/>
      <path d="M-2.8 16.75 Q0.0 17.25 1.7 19.7 3.35 22.15 3.15 26.25 L1.4 28.85 Q2.3 24.6 -0.25 22.2 -2.85 19.8 -3.85 19.8 L-2.05 21.9 Q-4.45 20.1 -7.25 20.1 L-8.2 20.15 Q-6.5 19.5 -7.4 19.2 -10.8 19.5 -12.35 21.2 -11.55 19.3 -9.9 17.15 -8.05 16.05 -5.3 16.3 L-5.4 16.7 Q-5.45 17.2 -4.8 17.35 -4.0 17.55 -2.8 16.75" fill="url(#decoration123-gradient3)" fill-rule="evenodd" stroke="none"/>
      <path d="M-5.15 15.2 Q-4.35 9.55 -5.75 5.5 -7.95 4.35 -6.35 1.7 -5.5 1.25 -4.8 1.45 -5.9 3.0 -4.55 5.35 -2.95 9.7 -3.6 15.8 -4.65 16.6 -5.15 15.2" fill="#605e5f" fill-rule="evenodd" stroke="none"/>
      <path d="M-5.3 16.3 L-5.15 15.2 Q-4.65 16.6 -3.6 15.8 -2.95 9.7 -4.55 5.35 -5.9 3.0 -4.8 1.45 -4.3 1.6 -3.9 2.15 -4.65 4.1 -3.65 4.65 -1.6 9.85 -2.8 16.75 -4.0 17.55 -4.8 17.35 -5.45 17.2 -5.4 16.7 L-5.3 16.3" fill="#333232" fill-rule="evenodd" stroke="none"/>
      <path d="M1.4 28.85 L-0.1 30.65 Q1.35 28.8 0.95 26.4 0.45 23.85 -1.95 21.95 L-2.05 21.9 -3.85 19.8 Q-2.85 19.8 -0.25 22.2 2.3 24.6 1.4 28.85 M-13.15 24.7 Q-13.2 23.1 -12.35 21.2 -10.8 19.5 -7.4 19.2 -6.5 19.5 -8.2 20.15 -10.45 20.4 -11.9 21.95 -13.0 23.2 -13.15 24.7" fill="#dba7ac" fill-rule="evenodd" stroke="none"/>
      <path d="M-0.1 30.65 L-0.95 31.5 Q-2.55 32.7 -4.85 32.7 -7.75 32.7 -10.25 30.85 -12.65 28.95 -13.1 26.4 L-13.15 24.7 Q-13.0 23.2 -11.9 21.95 -10.45 20.4 -8.2 20.15 L-7.25 20.1 Q-4.45 20.1 -2.05 21.9 L-1.95 21.95 Q0.45 23.85 0.95 26.4 1.35 28.8 -0.1 30.65" fill="#772c3b" fill-rule="evenodd" stroke="none"/>
      <path d="M-2.8 16.75 Q0.0 17.25 1.7 19.7 3.35 22.15 3.15 26.25 L1.4 28.85 -0.1 30.65 -0.95 31.5 Q-2.55 32.7 -4.85 32.7 -7.75 32.7 -10.25 30.85 -12.65 28.95 -13.1 26.4 L-13.15 24.7 Q-13.2 23.1 -12.35 21.2 -11.55 19.3 -9.9 17.15 -8.05 16.05 -5.3 16.3 L-5.15 15.2 Q-4.35 9.55 -5.75 5.5 -7.95 4.35 -6.35 1.7 -5.5 1.25 -4.8 1.45 -4.3 1.6 -3.9 2.15 -4.65 4.1 -3.65 4.65 -1.6 9.85 -2.8 16.75 -4.0 17.55 -4.8 17.35 -5.45 17.2 -5.4 16.7 L-5.3 16.3 M-8.2 20.15 L-7.25 20.1 Q-4.45 20.1 -2.05 21.9" fill="none" stroke="#000000" stroke-linecap="round" stroke-linejoin="round" stroke-opacity="0.3019608" stroke-width="0.30000000000000004"/>
      <path d="M8.85 16.05 Q11.0 11.5 9.65 4.2 8.45 3.25 9.1 1.65 9.75 1.2 10.4 1.65 9.3 2.75 10.45 4.0 L10.95 6.9 Q11.5 11.1 10.25 15.0 9.4 16.25 8.85 16.05" fill="#605e5f" fill-rule="evenodd" stroke="none"/>
      <path d="M10.45 4.0 L11.1 4.1 Q12.0 8.4 11.8 12.35 11.45 15.1 9.55 17.65 L7.9 17.65 8.85 16.05 Q9.4 16.25 10.25 15.0 11.5 11.1 10.95 6.9 L10.45 4.0" fill="#333232" fill-rule="evenodd" stroke="none"/>
      <path d="M9.55 17.65 L10.3 17.65 Q9.75 17.75 9.35 18.3 7.5 19.2 6.85 22.65 6.2 26.1 8.55 29.5 L8.6 29.6 8.65 29.65 8.8 30.0 Q9.3 31.05 10.0 31.4 L4.0 31.4 Q3.2 30.95 2.6 29.5 1.8 27.45 1.8 24.55 1.8 21.7 2.6 19.65 3.35 17.9 4.4 17.55 L7.9 17.65 9.55 17.65" fill="url(#decoration123-gradient4)" fill-rule="evenodd" stroke="none"/>
      <path d="M11.0 17.65 Q11.9 17.95 12.55 19.65 13.45 21.7 13.45 24.55 13.45 27.45 12.55 29.5 11.75 31.55 10.6 31.55 L10.3 31.5 10.0 31.4 Q9.3 31.05 8.8 30.0 L9.75 28.6 Q10.65 26.85 10.65 24.4 10.65 22.0 9.75 20.25 L8.9 19.0 9.35 18.3 Q9.75 17.75 10.3 17.65 L11.0 17.65" fill="url(#decoration123-gradient5)" fill-rule="evenodd" stroke="none"/>
      <path d="M8.9 19.0 L9.75 20.25 Q10.65 22.0 10.65 24.4 10.65 26.85 9.75 28.6 L8.8 30.0 8.65 29.65 8.6 29.6 8.55 29.5 Q7.75 27.45 7.75 24.55 7.75 21.7 8.55 19.65 L8.9 19.0" fill="#2e2b2e" fill-rule="evenodd" stroke="none"/>
      <path d="M8.9 19.0 L8.55 19.65 Q7.75 21.7 7.75 24.55 7.75 27.45 8.55 29.5 6.2 26.1 6.85 22.65 7.5 19.2 9.35 18.3 L8.9 19.0" fill="#d598a0" fill-rule="evenodd" stroke="none"/>
      <path d="M10.45 4.0 L11.1 4.1 Q12.0 8.4 11.8 12.35 11.45 15.1 9.55 17.65 L10.3 17.65 10.6 17.6 11.0 17.65 Q11.9 17.95 12.55 19.65 13.45 21.7 13.45 24.55 13.45 27.45 12.55 29.5 11.75 31.55 10.6 31.55 L10.3 31.5 10.0 31.4 4.0 31.4 Q3.2 30.95 2.6 29.5 1.8 27.45 1.8 24.55 1.8 21.7 2.6 19.65 3.35 17.9 4.4 17.55 L7.9 17.65 8.85 16.05 Q11.0 11.5 9.65 4.2 8.45 3.25 9.1 1.65 9.75 1.2 10.4 1.65 9.3 2.75 10.45 4.0 M7.9 17.65 L9.55 17.65 M8.8 30.0 Q9.3 31.05 10.0 31.4 M8.55 29.5 Q7.75 27.45 7.75 24.55 7.75 21.7 8.55 19.65 L8.9 19.0 9.35 18.3 Q9.75 17.75 10.3 17.65 L11.0 17.65 M8.65 29.65 L8.8 30.0" fill="none" stroke="#000000" stroke-linecap="round" stroke-linejoin="round" stroke-opacity="0.3019608" stroke-width="0.30000000000000004"/>
      <path d="M16.95 22.85 Q19.3 22.5 20.55 22.8 22.4 23.35 23.45 24.5 24.4 25.7 24.1 26.8 L23.55 27.75 Q22.4 29.15 18.75 28.4 15.15 27.1 15.1 25.15 L15.2 24.4 Q15.35 23.85 15.8 23.45 L16.95 22.85" fill="url(#decoration123-gradient6)" fill-rule="evenodd" stroke="none"/>
      <path d="M23.55 27.75 Q22.85 29.3 21.2 30.15 19.6 31.0 18.35 30.5 16.4 29.7 15.7 28.75 14.85 27.5 15.1 25.15 15.15 27.1 18.75 28.4 22.4 29.15 23.55 27.75 M16.8 17.6 Q17.5 11.0 16.65 4.35 15.35 3.3 15.9 2.3 16.4 1.3 17.25 1.9 16.9 2.95 17.7 3.9 18.25 8.25 17.6 16.4 L16.8 17.6" fill="#a6abaf" fill-rule="evenodd" stroke="none"/>
      <path d="M15.8 23.45 L16.8 17.6 17.6 16.4 16.95 22.85 15.8 23.45" fill="#605e5f" fill-rule="evenodd" stroke="none"/>
      <path d="M16.95 22.85 Q19.3 22.5 20.55 22.8 22.4 23.35 23.45 24.5 24.4 25.7 24.1 26.8 L23.55 27.75 Q22.85 29.3 21.2 30.15 19.6 31.0 18.35 30.5 16.4 29.7 15.7 28.75 14.85 27.5 15.1 25.15 L15.2 24.4 Q15.35 23.85 15.8 23.45 L16.8 17.6 Q17.5 11.0 16.65 4.35 15.35 3.3 15.9 2.3 16.4 1.3 17.25 1.9 16.9 2.95 17.7 3.9 18.25 8.25 17.6 16.4 L16.95 22.85 Z" fill="none" stroke="#000000" stroke-linecap="round" stroke-linejoin="round" stroke-opacity="0.4" stroke-width="0.30000000000000004"/>
      <path d="M29.7 18.55 L29.7 14.8 29.7 5.35 Q28.8 2.8 29.7 1.45 L31.7 1.4 Q30.6 2.6 31.05 5.35 L31.05 14.75 31.05 18.55 30.3 18.55 29.7 18.55 M31.05 14.75 L29.7 14.8 31.05 14.75" fill="#a6abaf" fill-rule="evenodd" stroke="none"/>
      <path d="M29.7 18.55 L29.7 14.8 29.7 5.35 Q28.8 2.8 29.7 1.45 L31.7 1.4 Q30.6 2.6 31.05 5.35 L31.05 14.75 31.05 18.55 30.3 18.55 29.7 18.55" fill="none" stroke="#000000" stroke-linecap="round" stroke-linejoin="round" stroke-opacity="0.4" stroke-width="0.30000000000000004"/>
      <path d="M30.3 18.55 L30.45 25.7 31.05 22.6 31.3 20.95 31.3 20.65 31.15 18.55 Q35.1 22.2 34.4 25.9 L34.5 26.6 Q34.6 30.1 32.95 29.25 32.45 32.15 31.25 31.0 30.9 32.35 30.3 31.4 29.85 30.9 29.65 30.0 27.8 30.75 27.5 29.2 27.15 27.65 27.75 24.65 28.35 21.6 29.7 18.55 27.1 29.3 29.4 27.95 L30.4 26.4 30.45 25.7 M30.3 18.55 Q29.25 23.95 29.3 27.2 L29.4 27.95 29.6 29.65 29.65 30.0 M31.05 22.6 L31.4 23.3 31.35 21.9 31.3 20.95 M29.7 14.8 L31.05 14.75 M34.4 25.9 Q33.6 27.6 32.75 25.7 L32.95 29.25 M32.75 25.7 L32.75 25.65 31.4 23.3 31.5 27.2 31.25 31.0 30.15 28.3 29.6 29.65 M30.15 28.3 L30.4 26.4 M31.15 18.55 Q33.95 21.9 34.4 25.9 M31.35 21.9 Q32.3 23.55 32.75 25.65" fill="none" stroke="#383838" stroke-linecap="round" stroke-linejoin="round" stroke-opacity="0.7019608" stroke-width="0.30000000000000004"/>
    </g>
    <linearGradient gradientTransform="matrix(0.0385, 0.0, 0.0, 0.001, 1.7, 3.0)" gradientUnits="userSpaceOnUse" id="decoration123-gradient0" spreadMethod="pad" x1="-819.2" x2="819.2">
      <stop offset="0.0" stop-color="#5e6366"/>
      <stop offset="0.4588235294117647" stop-color="#a5aaae"/>
      <stop offset="1.0" stop-color="#5c6164"/>
    </linearGradient>
    <linearGradient gradientTransform="matrix(0.0078, 0.0078, -0.0098, 0.0098, -22.7, 27.4)" gradientUnits="userSpaceOnUse" id="decoration123-gradient1" spreadMethod="pad" x1="-819.2" x2="819.2">
      <stop offset="0.0" stop-color="#4f5054"/>
      <stop offset="1.0" stop-color="#9a9a9a"/>
    </linearGradient>
    <linearGradient gradientTransform="matrix(0.0064, 0.0079, -0.009, 0.0073, -20.35, 30.65)" gradientUnits="userSpaceOnUse" id="decoration123-gradient2" spreadMethod="pad" x1="-819.2" x2="819.2">
      <stop offset="0.0" stop-color="#959595"/>
      <stop offset="0.9607843137254902" stop-color="#6b6969"/>
    </linearGradient>
    <linearGradient gradientTransform="matrix(0.0079, 0.0034, -0.0031, 0.007, -4.8, 20.7)" gradientUnits="userSpaceOnUse" id="decoration123-gradient3" spreadMethod="pad" x1="-819.2" x2="819.2">
      <stop offset="0.0" stop-color="#b74e5d"/>
      <stop offset="0.34509803921568627" stop-color="#cd8d93"/>
      <stop offset="0.7803921568627451" stop-color="#b74e5d"/>
      <stop offset="1.0" stop-color="#772c3b"/>
    </linearGradient>
    <linearGradient gradientTransform="matrix(3.0E-4, 0.0052, -0.0084, 5.0E-4, 6.15, 21.5)" gradientUnits="userSpaceOnUse" id="decoration123-gradient4" spreadMethod="pad" x1="-819.2" x2="819.2">
      <stop offset="0.0" stop-color="#b74e5d"/>
      <stop offset="0.34509803921568627" stop-color="#cd8d93"/>
      <stop offset="0.7803921568627451" stop-color="#b74e5d"/>
      <stop offset="1.0" stop-color="#772c3b"/>
    </linearGradient>
    <linearGradient gradientTransform="matrix(0.0016, 0.009, -0.0084, 0.0015, 11.1, 24.6)" gradientUnits="userSpaceOnUse" id="decoration123-gradient5" spreadMethod="pad" x1="-819.2" x2="819.2">
      <stop offset="0.0" stop-color="#3a3637"/>
      <stop offset="0.4745098039215686" stop-color="#807d7d"/>
      <stop offset="1.0" stop-color="#434041"/>
    </linearGradient>
    <radialGradient cx="0" cy="0" gradientTransform="matrix(0.0118, 0.0, 0.0, 0.0073, 18.45, 28.25)" gradientUnits="userSpaceOnUse" id="decoration123-gradient6" r="819.2" spreadMethod="pad">
      <stop offset="0.0" stop-color="#2e2c2d"/>
      <stop offset="0.6627450980392157" stop-color="#5c6164"/>
    </radialGradient>
  </defs>
</svg>
