<?xml version="1.0" encoding="UTF-8" standalone="no"?>
<svg xmlns:ffdec="https://www.free-decompiler.com/flash" xmlns:xlink="http://www.w3.org/1999/xlink" ffdec:objectType="frame" height="53.85px" width="50.05px" xmlns="http://www.w3.org/2000/svg">
  <g transform="matrix(1.0, 0.0, 0.0, 1.0, 24.1, 55.0)">
    <use ffdec:characterId="408" height="53.85" transform="matrix(1.0, 0.0, 0.0, 1.0, -24.1, -55.0)" width="50.05" xlink:href="#decoration124-shape0"/>
  </g>
  <defs>
    <g id="decoration124-shape0" transform="matrix(1.0, 0.0, 0.0, 1.0, 24.1, 55.0)">
      <path d="M21.3 -30.05 L20.55 -30.05 -18.85 -30.05 -18.85 -23.75 -19.55 -23.75 -19.55 -28.8 Q-19.55 -31.8 -16.55 -31.8 L18.5 -31.8 Q20.75 -31.8 21.3 -30.05 M21.45 -14.5 L20.55 -14.5 20.55 -21.7 -18.85 -21.7 -18.95 -14.5 -19.55 -14.5 -19.55 -22.55 21.45 -22.55 21.45 -14.5 M-19.55 -13.15 L21.45 -13.15 21.45 -7.8 Q21.45 -6.45 20.85 -5.7 L20.85 -12.1 -18.95 -12.1 -18.95 -5.7 Q-19.55 -6.45 -19.55 -7.8 L-19.55 -13.15" fill="#363636" fill-rule="evenodd" stroke="none"/>
      <path d="M21.45 -23.75 L21.45 -28.8 21.3 -30.05 Q20.75 -31.8 18.5 -31.8 L-16.55 -31.8 Q-19.55 -31.8 -19.55 -28.8 L-19.55 -23.75 -19.55 -22.55 -19.55 -14.5 -19.55 -13.15 -19.55 -7.8 Q-19.55 -6.45 -18.95 -5.7 -18.2 -4.8 -16.55 -4.8 L18.5 -4.8 Q20.1 -4.8 20.85 -5.7 21.45 -6.45 21.45 -7.8 L21.45 -13.15 21.45 -14.5 21.45 -22.55 21.45 -23.75 M12.95 -36.35 L12.95 -37.1 12.1 -37.1 12.1 -36.35 -9.25 -36.35 -9.25 -37.2 -10.15 -37.2 -10.15 -36.35 -13.7 -36.35 Q-14.55 -35.55 -13.7 -34.8 L16.1 -34.8 Q16.55 -35.55 16.1 -36.35 L12.95 -36.35 M24.75 -4.5 L-22.8 -4.5 -22.8 -38.75 24.75 -38.75 24.75 -4.5" fill="url(#decoration124-gradient0)" fill-rule="evenodd" stroke="none"/>
      <path d="M12.95 -36.35 L16.1 -36.35 Q16.55 -35.55 16.1 -34.8 L-13.7 -34.8 Q-14.55 -35.55 -13.7 -36.35 L-10.15 -36.35 -10.15 -37.2 -9.25 -37.2 -9.25 -36.35 12.1 -36.35 12.1 -37.1 12.95 -37.1 12.95 -36.35" fill="#272323" fill-rule="evenodd" stroke="none"/>
      <path d="M20.55 -23.75 L21.45 -23.75 21.45 -22.55 -19.55 -22.55 -19.55 -23.75 -18.85 -23.75 20.55 -23.75 M21.45 -14.5 L21.45 -13.15 -19.55 -13.15 -19.55 -14.5 -18.95 -14.5 20.55 -14.5 21.45 -14.5" fill="#949494" fill-rule="evenodd" stroke="none"/>
      <path d="M20.55 -30.05 L20.55 -23.75 -18.85 -23.75 -18.85 -30.05 20.55 -30.05 M20.55 -14.5 L-18.95 -14.5 -18.85 -21.7 20.55 -21.7 20.55 -14.5 M20.85 -5.7 Q20.1 -4.8 18.5 -4.8 L-16.55 -4.8 Q-18.2 -4.8 -18.95 -5.7 L-18.95 -12.1 20.85 -12.1 20.85 -5.7" fill="#494949" fill-rule="evenodd" stroke="none"/>
      <path d="M25.85 -3.4 L25.85 -1.25 -24.0 -1.25 -24.0 -3.4 25.85 -3.4" fill="#959595" fill-rule="evenodd" stroke="none"/>
      <path d="M-24.0 -3.4 L-24.0 -40.4 25.85 -40.4 25.85 -3.4 -24.0 -3.4 M24.75 -4.5 L24.75 -38.75 -22.8 -38.75 -22.8 -4.5 24.75 -4.5" fill="#a4a4a4" fill-rule="evenodd" stroke="none"/>
      <path d="M-24.0 -51.3 L25.85 -51.3 24.85 -41.15 -23.45 -41.15 -24.0 -51.3 M-5.0 -44.9 Q-4.75 -45.1 -4.75 -45.4 L-5.0 -45.95 -5.5 -46.15 -6.05 -45.95 -6.25 -45.4 -6.05 -44.9 -5.5 -44.65 Q-5.2 -44.65 -5.0 -44.9 M-7.3 -44.0 L-7.3 -46.75 -14.25 -46.75 -14.25 -44.0 -7.3 -44.0" fill="#e2e2e2" fill-rule="evenodd" stroke="none"/>
      <path d="M-24.0 -40.4 L-24.0 -51.3 -23.45 -41.15 24.85 -41.15 25.85 -51.3 25.85 -40.4 -24.0 -40.4" fill="#b1b1b1" fill-rule="evenodd" stroke="none"/>
      <path d="M-5.0 -44.9 Q-5.2 -44.65 -5.5 -44.65 L-6.05 -44.9 -6.25 -45.4 -6.05 -45.95 -5.5 -46.15 -5.0 -45.95 -4.75 -45.4 Q-4.75 -45.1 -5.0 -44.9" fill="#b82104" fill-rule="evenodd" stroke="none"/>
      <path d="M-7.3 -44.0 L-14.25 -44.0 -14.25 -46.75 -7.3 -46.75 -7.3 -44.0 M-9.0 -45.9 L-10.15 -45.9 -9.0 -45.9 M-12.5 -46.0 L-13.45 -46.0 -13.45 -44.65 -13.45 -46.0 -12.5 -46.0 M-11.9 -44.8 L-10.6 -44.8 -11.9 -46.1 -11.9 -44.8 -11.9 -46.1 -10.6 -44.8 -11.9 -44.8 M-8.75 -44.85 L-9.9 -44.85 -8.75 -44.85 M-8.3 -44.55 L-8.3 -46.05 -8.3 -44.55" fill="#181617" fill-rule="evenodd" stroke="none"/>
      <path d="M21.45 -23.75 L21.45 -28.8 21.3 -30.05 Q20.75 -31.8 18.5 -31.8 L-16.55 -31.8 Q-19.55 -31.8 -19.55 -28.8 L-19.55 -23.75 -19.55 -22.55 -19.55 -14.5 -19.55 -13.15 -19.55 -7.8 Q-19.55 -6.45 -18.95 -5.7 -18.2 -4.8 -16.55 -4.8 L18.5 -4.8 Q20.1 -4.8 20.85 -5.7 21.45 -6.45 21.45 -7.8 L21.45 -13.15 21.45 -14.5 21.45 -22.55 21.45 -23.75 M25.85 -3.4 L25.85 -1.25 -24.0 -1.25 -24.0 -3.4 -24.0 -40.4 -24.0 -51.3 25.85 -51.3 25.85 -40.4 25.85 -3.4 -24.0 -3.4 M-7.3 -44.0 L-14.25 -44.0 -14.25 -46.75 -7.3 -46.75 -7.3 -44.0 M25.85 -40.4 L-24.0 -40.4" fill="none" stroke="#000000" stroke-linecap="round" stroke-linejoin="round" stroke-opacity="0.3882353" stroke-width="0.2"/>
      <path d="M-8.3 -46.05 L-8.3 -44.55 M-9.9 -44.85 L-8.75 -44.85 M-11.9 -44.8 L-11.9 -46.1 -10.6 -44.8 -11.9 -44.8 M-13.45 -44.65 L-13.45 -46.0 -12.5 -46.0 M-10.15 -45.9 L-9.0 -45.9" fill="none" stroke="#00ff00" stroke-linecap="round" stroke-linejoin="round" stroke-width="0.4"/>
      <path d="M-17.8 -46.7 L-16.85 -47.65 -17.8 -46.7 M-21.2 -46.9 L-20.75 -47.5 Q-19.9 -48.3 -18.7 -48.3 -17.6 -48.3 -16.85 -47.65 L-16.7 -47.5 Q-15.85 -46.65 -15.85 -45.45 -15.85 -44.6 -16.25 -43.95 -17.75 -43.3 -18.95 -43.65 -21.2 -44.5 -21.2 -46.9" fill="#e2e2e2" fill-rule="evenodd" stroke="none"/>
      <path d="M-21.2 -46.9 Q-21.2 -44.5 -18.95 -43.65 -17.75 -43.3 -16.25 -43.95 L-16.7 -43.45 Q-17.5 -42.6 -18.7 -42.6 -19.9 -42.6 -20.75 -43.45 -21.55 -44.25 -21.55 -45.45 L-21.2 -46.9" fill="#b1b1b1" fill-rule="evenodd" stroke="none"/>
      <path d="M-16.85 -47.65 L-17.8 -46.7 M-16.25 -43.95 Q-15.85 -44.6 -15.85 -45.45 -15.85 -46.65 -16.7 -47.5 L-16.85 -47.65 Q-17.6 -48.3 -18.7 -48.3 -19.9 -48.3 -20.75 -47.5 L-21.2 -46.9 -21.55 -45.45 Q-21.55 -44.25 -20.75 -43.45 -19.9 -42.6 -18.7 -42.6 -17.5 -42.6 -16.7 -43.45 L-16.25 -43.95 M-16.85 -47.65 L-15.95 -48.55" fill="none" stroke="#515151" stroke-linecap="round" stroke-linejoin="round" stroke-opacity="0.7607843" stroke-width="0.8"/>
      <path d="M-2.4 -44.75 L-2.5 -45.45 Q-2.5 -46.65 -1.65 -47.5 -0.85 -48.3 0.1 -48.35 L0.15 -47.0 0.1 -48.35 0.35 -48.3 Q1.55 -48.3 2.4 -47.45 L3.2 -46.15 Q2.6 -44.6 1.5 -44.05 -0.7 -43.05 -2.4 -44.75" fill="#e2e2e2" fill-rule="evenodd" stroke="none"/>
      <path d="M3.2 -46.15 L3.2 -45.45 Q3.25 -44.3 2.4 -43.45 1.55 -42.6 0.35 -42.6 -0.75 -42.6 -1.6 -43.45 -2.2 -44.05 -2.4 -44.75 -0.7 -43.05 1.5 -44.05 2.6 -44.6 3.2 -46.15" fill="#b1b1b1" fill-rule="evenodd" stroke="none"/>
      <path d="M3.2 -46.15 L3.2 -45.45 Q3.25 -44.3 2.4 -43.45 1.55 -42.6 0.35 -42.6 -0.75 -42.6 -1.6 -43.45 -2.2 -44.05 -2.4 -44.75 L-2.5 -45.45 Q-2.5 -46.65 -1.65 -47.5 -0.85 -48.3 0.1 -48.35 L0.15 -49.6 M0.1 -48.35 L0.15 -47.0 M3.2 -46.15 L2.4 -47.45 Q1.55 -48.3 0.35 -48.3 L0.1 -48.35" fill="none" stroke="#515151" stroke-linecap="round" stroke-linejoin="round" stroke-opacity="0.7607843" stroke-width="0.8"/>
      <path d="M10.15 -46.15 L10.15 -45.45 Q10.2 -44.3 9.35 -43.45 8.5 -42.6 7.3 -42.6 6.2 -42.6 5.35 -43.45 4.75 -44.05 4.55 -44.75 6.25 -43.05 8.45 -44.05 9.55 -44.6 10.15 -46.15" fill="#b1b1b1" fill-rule="evenodd" stroke="none"/>
      <path d="M4.55 -44.75 L4.45 -45.45 Q4.45 -46.65 5.3 -47.5 6.1 -48.3 7.05 -48.35 L7.3 -48.3 Q8.5 -48.3 9.35 -47.45 L10.15 -46.15 Q9.55 -44.6 8.45 -44.05 6.25 -43.05 4.55 -44.75 M7.1 -47.0 L7.05 -48.35 7.1 -47.0" fill="#e2e2e2" fill-rule="evenodd" stroke="none"/>
      <path d="M10.15 -46.15 L10.15 -45.45 Q10.2 -44.3 9.35 -43.45 8.5 -42.6 7.3 -42.6 6.2 -42.6 5.35 -43.45 4.75 -44.05 4.55 -44.75 L4.45 -45.45 Q4.45 -46.65 5.3 -47.5 6.1 -48.3 7.05 -48.35 L7.1 -49.6 M7.05 -48.35 L7.3 -48.3 Q8.5 -48.3 9.35 -47.45 L10.15 -46.15 M7.05 -48.35 L7.1 -47.0" fill="none" stroke="#515151" stroke-linecap="round" stroke-linejoin="round" stroke-opacity="0.7607843" stroke-width="0.8"/>
      <path d="M17.25 -46.15 Q16.65 -44.6 15.55 -44.05 13.35 -43.05 11.65 -44.75 L11.55 -45.45 Q11.55 -46.65 12.4 -47.5 13.2 -48.3 14.15 -48.35 L14.4 -48.3 Q15.6 -48.3 16.45 -47.45 L17.25 -46.15 M14.2 -47.0 L14.15 -48.35 14.2 -47.0" fill="#e2e2e2" fill-rule="evenodd" stroke="none"/>
      <path d="M11.65 -44.75 Q13.35 -43.05 15.55 -44.05 16.65 -44.6 17.25 -46.15 L17.25 -45.45 Q17.3 -44.3 16.45 -43.45 15.6 -42.6 14.4 -42.6 13.3 -42.6 12.45 -43.45 11.85 -44.05 11.65 -44.75" fill="#b1b1b1" fill-rule="evenodd" stroke="none"/>
      <path d="M17.25 -46.15 L16.45 -47.45 Q15.6 -48.3 14.4 -48.3 L14.15 -48.35 14.2 -47.0 M17.25 -46.15 L17.25 -45.45 Q17.3 -44.3 16.45 -43.45 15.6 -42.6 14.4 -42.6 13.3 -42.6 12.45 -43.45 11.85 -44.05 11.65 -44.75 L11.55 -45.45 Q11.55 -46.65 12.4 -47.5 13.2 -48.3 14.15 -48.35 L14.2 -49.6" fill="none" stroke="#515151" stroke-linecap="round" stroke-linejoin="round" stroke-opacity="0.7607843" stroke-width="0.8"/>
      <path d="M24.2 -46.15 Q23.6 -44.6 22.5 -44.05 20.3 -43.05 18.6 -44.75 L18.5 -45.45 Q18.5 -46.65 19.35 -47.5 20.15 -48.3 21.1 -48.35 L21.35 -48.3 Q22.55 -48.3 23.4 -47.45 L24.2 -46.15 M21.15 -47.0 L21.1 -48.35 21.15 -47.0" fill="#e2e2e2" fill-rule="evenodd" stroke="none"/>
      <path d="M18.6 -44.75 Q20.3 -43.05 22.5 -44.05 23.6 -44.6 24.2 -46.15 L24.2 -45.45 Q24.25 -44.3 23.4 -43.45 22.55 -42.6 21.35 -42.6 20.25 -42.6 19.4 -43.45 18.8 -44.05 18.6 -44.75" fill="#b1b1b1" fill-rule="evenodd" stroke="none"/>
      <path d="M24.2 -46.15 L23.4 -47.45 Q22.55 -48.3 21.35 -48.3 L21.1 -48.35 21.15 -47.0 M24.2 -46.15 L24.2 -45.45 Q24.25 -44.3 23.4 -43.45 22.55 -42.6 21.35 -42.6 20.25 -42.6 19.4 -43.45 18.8 -44.05 18.6 -44.75 L18.5 -45.45 Q18.5 -46.65 19.35 -47.5 20.15 -48.3 21.1 -48.35 L21.15 -49.6" fill="none" stroke="#515151" stroke-linecap="round" stroke-linejoin="round" stroke-opacity="0.7607843" stroke-width="0.8"/>
      <path d="M12.0 -31.85 L-14.55 -4.75 Q-17.65 -4.8 -18.5 -5.45 L7.4 -31.95 12.0 -31.85 M21.6 -28.8 L-1.9 -4.85 -6.2 -4.75 20.3 -31.8 Q21.8 -31.15 21.6 -28.8" fill="url(#decoration124-gradient1)" fill-rule="evenodd" stroke="none"/>
      <path d="M8.4 -51.3 L7.0 -51.3 7.0 -53.65 13.95 -53.65 13.95 -55.0 15.05 -55.0 15.05 -53.65 21.7 -53.65 21.7 -51.3 20.4 -51.3 20.4 -52.75 15.05 -52.75 15.05 -51.3 13.95 -51.3 13.95 -52.75 8.4 -52.75 8.4 -51.3 M-19.2 -51.3 L-19.2 -53.3 -12.2 -53.3 -12.2 -54.5 -11.05 -54.5 -11.05 -53.3 -4.35 -53.3 -4.35 -51.3 -5.65 -51.3 -5.65 -52.55 -11.05 -52.55 -11.05 -51.3 -12.2 -51.3 -12.2 -52.55 -17.75 -52.55 -17.75 -51.3 -19.2 -51.3" fill="#1f1e1c" fill-rule="evenodd" stroke="none"/>
    </g>
    <linearGradient gradientTransform="matrix(0.0, 0.029, -0.0209, 0.0, -1.95, -4.85)" gradientUnits="userSpaceOnUse" id="decoration124-gradient0" spreadMethod="pad" x1="-819.2" x2="819.2">
      <stop offset="0.0196078431372549" stop-color="#e1e1e1"/>
      <stop offset="1.0" stop-color="#a6a6a6"/>
    </linearGradient>
    <linearGradient gradientTransform="matrix(0.0094, -0.0163, 0.0144, 0.0083, -2.45, -19.1)" gradientUnits="userSpaceOnUse" id="decoration124-gradient1" spreadMethod="pad" x1="-819.2" x2="819.2">
      <stop offset="0.0" stop-color="#ffffff" stop-opacity="0.03137255"/>
      <stop offset="0.396078431372549" stop-color="#ffffff" stop-opacity="0.54901963"/>
      <stop offset="0.9764705882352941" stop-color="#ffffff" stop-opacity="0.16862746"/>
    </linearGradient>
  </defs>
</svg>
