<?xml version="1.0" encoding="UTF-8" standalone="no"?>
<svg xmlns:ffdec="https://www.free-decompiler.com/flash" xmlns:xlink="http://www.w3.org/1999/xlink" ffdec:objectType="frame" height="76.55px" width="73.65px" xmlns="http://www.w3.org/2000/svg">
  <g transform="matrix(1.0, 0.0, 0.0, 1.0, 33.1, 70.1)">
    <use ffdec:characterId="475" height="76.55" transform="matrix(1.0, 0.0, 0.0, 1.0, -33.1, -70.1)" width="73.65" xlink:href="#decoration125-shape0"/>
    <use ffdec:characterId="477" height="36.65" id="decoration125-Couleur0_92D4EE" filter="url(#decoration125-filter0)" transform="matrix(1.0, 0.0, 0.0, 1.0, -27.4, -53.1)" width="64.3" xlink:href="#decoration125-sprite0"/>
    <use ffdec:characterId="478" height="15.65" transform="matrix(1.0, 0.0, 0.0, 1.0, 4.1, -32.25)" width="23.7" xlink:href="#decoration125-shape2"/>
    <use ffdec:characterId="335" height="4.6" id="decoration125-B" transform="matrix(1.2966, 0.0, 0.0, 1.0, -26.3, -23.6)" width="35.4" xlink:href="#decoration125-sprite1"/>
  </g>
  <defs>
    <g id="decoration125-shape0" transform="matrix(1.0, 0.0, 0.0, 1.0, 33.1, 70.1)">
      <path d="M19.8 -65.25 Q19.35 -66.0 18.45 -65.85 17.5 -65.55 15.6 -63.3 13.65 -60.95 12.15 -60.3 L11.7 -60.3 11.55 -60.4 11.9 -60.85 11.95 -61.3 Q11.95 -61.85 11.55 -61.85 11.1 -61.85 10.8 -61.15 L10.55 -60.3 10.7 -59.8 Q10.95 -59.35 11.55 -59.35 13.15 -59.35 15.25 -61.4 L18.45 -64.85 18.85 -64.45 19.1 -64.05 Q19.1 -63.75 18.65 -63.55 L18.15 -63.1 Q18.15 -62.6 19.0 -62.6 20.05 -62.6 20.05 -64.25 L19.8 -65.25 M8.65 -62.1 Q9.9 -62.1 11.9 -65.05 13.75 -67.6 19.0 -69.4 26.7 -71.6 33.05 -65.6 35.5 -62.1 34.4 -58.65 33.8 -56.75 33.05 -56.1 24.1 -60.8 17.15 -59.6 12.2 -58.15 8.7 -55.3 8.5 -58.55 8.65 -62.1 M6.85 -51.0 Q6.05 -57.0 6.55 -63.8 8.0 -65.35 8.45 -63.5 L6.85 -51.0 M24.65 -64.9 L24.9 -65.25 25.7 -65.5 26.55 -64.9 27.7 -64.0 28.3 -63.1 28.85 -62.2 29.7 -60.45 Q30.8 -58.9 32.5 -58.9 33.35 -58.9 33.75 -60.4 33.75 -60.9 33.3 -60.9 32.85 -60.9 32.9 -60.3 33.0 -59.75 31.9 -59.75 31.3 -59.75 30.4 -61.2 L29.35 -63.15 28.1 -64.95 Q26.75 -66.5 25.35 -66.5 L24.8 -66.5 24.55 -66.45 24.15 -66.3 23.55 -65.85 Q23.25 -65.5 23.25 -64.85 23.25 -63.1 24.9 -63.1 L25.55 -63.4 26.0 -63.9 25.75 -64.15 24.95 -64.15 Q24.65 -64.35 24.65 -64.9" fill="#996a58" fill-rule="evenodd" stroke="none"/>
      <path d="M19.8 -65.25 L20.05 -64.25 Q20.05 -62.6 19.0 -62.6 18.15 -62.6 18.15 -63.1 L18.65 -63.55 Q19.1 -63.75 19.1 -64.05 L18.85 -64.45 18.45 -64.85 15.25 -61.4 Q13.15 -59.35 11.55 -59.35 10.95 -59.35 10.7 -59.8 L10.55 -60.3 10.8 -61.15 Q11.1 -61.85 11.55 -61.85 11.95 -61.85 11.95 -61.3 L11.9 -60.85 11.55 -60.4 11.7 -60.3 12.15 -60.3 Q13.65 -60.95 15.6 -63.3 17.5 -65.55 18.45 -65.85 19.35 -66.0 19.8 -65.25 M33.05 -65.6 Q35.05 -63.7 36.95 -60.95 37.95 -63.95 39.35 -63.1 38.25 -50.6 35.25 -47.9 35.85 -50.45 35.75 -53.35 34.0 -54.8 32.0 -55.8 30.2 -56.7 28.15 -57.25 L25.6 -47.45 24.3 -48.25 26.6 -55.15 25.15 -56.65 25.55 -58.15 18.0 -58.55 18.2 -50.4 14.9 -50.7 Q16.85 -51.65 18.0 -58.55 L15.0 -57.8 Q11.9 -56.7 8.8 -54.5 8.95 -52.25 9.35 -50.15 L7.1 -49.65 6.85 -51.0 8.45 -63.5 8.65 -62.1 Q8.5 -58.55 8.7 -55.3 12.2 -58.15 17.15 -59.6 24.1 -60.8 33.05 -56.1 33.8 -56.75 34.4 -58.65 35.5 -62.1 33.05 -65.6 M24.85 -0.6 Q27.95 -3.9 28.35 -7.45 L33.1 -7.45 Q29.15 2.9 21.15 4.75 L23.8 2.25 24.85 -0.6 M-23.6 -16.05 L-25.3 -16.15 Q-27.15 -16.85 -27.2 -18.55 -27.25 -20.1 -26.1 -20.75 L-25.05 -19.85 -9.0 -19.05 9.05 -18.0 8.8 -14.1 7.15 -14.3 3.55 -14.5 3.5 -14.5 -3.55 -14.9 -6.1 -15.05 -20.95 -15.9 -23.6 -16.05 M8.8 -54.5 L8.7 -55.3 8.8 -54.5 M24.65 -64.9 Q24.65 -64.35 24.95 -64.15 L25.75 -64.15 26.0 -63.9 25.55 -63.4 24.9 -63.1 Q23.25 -63.1 23.25 -64.85 23.25 -65.5 23.55 -65.85 L24.15 -66.3 24.55 -66.45 24.8 -66.5 25.35 -66.5 Q26.75 -66.5 28.1 -64.95 L29.35 -63.15 30.4 -61.2 Q31.3 -59.75 31.9 -59.75 33.0 -59.75 32.9 -60.3 32.85 -60.9 33.3 -60.9 33.75 -60.9 33.75 -60.4 33.35 -58.9 32.5 -58.9 30.8 -58.9 29.7 -60.45 L28.85 -62.2 28.3 -63.1 27.7 -64.0 26.55 -64.9 25.7 -65.5 24.9 -65.25 24.65 -64.9 M28.15 -57.25 L25.55 -58.15 28.15 -57.25 M-8.9 -27.55 Q-10.5 -31.9 -13.55 -32.9 -17.4 -32.35 -19.35 -28.55 -18.5 -32.85 -14.75 -34.6 L-11.65 -34.6 Q-8.5 -33.35 -5.6 -30.15 L-5.35 -26.6 Q-7.05 -27.25 -8.9 -27.55" fill="#402418" fill-rule="evenodd" stroke="none"/>
      <path d="M24.3 -48.25 L23.1 -48.85 25.15 -56.65 26.6 -55.15 24.3 -48.25 M14.9 -50.7 L15.0 -57.8 18.0 -58.55 Q16.85 -51.65 14.9 -50.7" fill="#a3735d" fill-rule="evenodd" stroke="none"/>
      <path d="M39.35 -63.1 L40.1 -62.4 Q40.85 -58.25 39.9 -52.2 35.25 -25.0 28.85 -18.0 L24.85 -0.6 23.8 2.25 21.15 4.75 17.15 5.1 Q12.15 5.55 8.4 2.7 6.6 1.3 5.05 -0.8 L3.55 -14.5 7.15 -14.3 8.4 2.7 Q14.75 4.35 21.5 1.85 L24.25 -12.6 8.8 -14.1 9.05 -18.0 Q16.5 -15.45 24.45 -17.35 L24.5 -17.4 Q34.15 -24.9 33.75 -39.35 36.25 -40.05 36.8 -43.05 35.55 -44.15 33.85 -44.1 L34.95 -46.7 35.25 -47.9 Q38.25 -50.6 39.35 -63.1 M-26.45 -8.6 Q-27.6 -2.8 -21.15 -0.7 L-23.6 -16.05 -20.95 -15.9 -18.85 0.35 Q-13.05 1.4 -8.3 -1.1 L-6.1 -15.05 -3.55 -14.9 -5.85 -1.75 Q-3.85 -1.9 -2.5 -3.1 L-1.9 -1.95 Q-6.3 1.85 -13.45 2.35 -20.0 2.35 -25.5 -1.0 -27.95 -3.6 -28.25 -7.05 L-26.45 -8.6" fill="#080808" fill-rule="evenodd" stroke="none"/>
      <path d="M33.1 -7.45 L33.2 -4.7 Q29.7 3.4 22.65 5.95 16.05 6.95 10.7 5.45 L9.0 4.9 Q3.1 2.55 0.35 -5.65 L1.75 -7.25 Q3.2 -3.45 5.05 -0.8 6.6 1.3 8.4 2.7 12.15 5.55 17.15 5.1 L21.15 4.75 Q29.15 2.9 33.1 -7.45" fill="#41251a" fill-rule="evenodd" stroke="none"/>
      <path d="M1.75 -7.25 L0.35 -5.65 -3.95 -5.55 -2.6 -7.25 1.75 -7.25" fill="#a87965" fill-rule="evenodd" stroke="none"/>
      <path d="M9.0 4.9 Q2.85 4.65 -1.1 -0.55 L-1.9 -1.95 -2.5 -3.1 -3.95 -5.55 0.35 -5.65 Q3.1 2.55 9.0 4.9" fill="#7c5544" fill-rule="evenodd" stroke="none"/>
      <path d="M-14.75 -34.6 Q-18.5 -32.85 -19.35 -28.55 L-20.05 -26.95 -24.35 -25.75 -25.05 -25.5 Q-23.15 -31.8 -17.8 -34.6 L-14.75 -34.6" fill="#a97963" fill-rule="evenodd" stroke="none"/>
      <path d="M-33.0 -8.2 L-31.3 -9.9 -26.45 -8.6 -28.25 -7.05 -33.0 -8.2" fill="#a87862" fill-rule="evenodd" stroke="none"/>
      <path d="M-22.9 2.0 Q-28.15 0.1 -30.85 -2.9 -32.85 -5.2 -33.0 -8.2 L-28.25 -7.05 Q-27.95 -3.6 -25.5 -1.0 L-22.9 2.0" fill="#7c5643" fill-rule="evenodd" stroke="none"/>
      <path d="M-1.1 -0.55 Q-6.4 4.45 -15.5 3.85 -19.7 3.15 -22.9 2.0 L-25.5 -1.0 Q-20.0 2.35 -13.45 2.35 -6.3 1.85 -1.9 -1.95 L-1.1 -0.55" fill="#372116" fill-rule="evenodd" stroke="none"/>
      <path d="M8.65 -62.1 Q9.9 -62.1 11.9 -65.05 13.75 -67.6 19.0 -69.4 26.7 -71.6 33.05 -65.6 35.05 -63.7 36.95 -60.95 37.95 -63.95 39.35 -63.1 L40.1 -62.4 Q40.85 -58.25 39.9 -52.2 35.25 -25.0 28.85 -18.0 L24.85 -0.6 Q27.95 -3.9 28.35 -7.45 L33.1 -7.45 33.2 -4.7 Q29.7 3.4 22.65 5.95 16.05 6.95 10.7 5.45 L9.0 4.9 Q2.85 4.65 -1.1 -0.55 -6.4 4.45 -15.5 3.85 -19.7 3.15 -22.9 2.0 -28.15 0.1 -30.85 -2.9 -32.85 -5.2 -33.0 -8.2 L-31.3 -9.9 -26.45 -8.6 Q-27.6 -2.8 -21.15 -0.7 L-23.6 -16.05 -25.3 -16.15 Q-27.15 -16.85 -27.2 -18.55 -27.25 -20.1 -26.1 -20.75 M33.85 -44.1 L34.95 -46.7 35.25 -47.9 Q35.85 -50.45 35.75 -53.35 34.0 -54.8 32.0 -55.8 30.2 -56.7 28.15 -57.25 L25.6 -47.45 M23.1 -48.85 L25.15 -56.65 25.55 -58.15 18.0 -58.55 18.2 -50.4 M14.9 -50.7 L15.0 -57.8 Q11.9 -56.7 8.8 -54.5 8.95 -52.25 9.35 -50.15 M7.1 -49.65 L6.85 -51.0 Q6.05 -57.0 6.55 -63.8 8.0 -65.35 8.45 -63.5 L8.65 -62.1 Q8.5 -58.55 8.7 -55.3 L8.8 -54.5 M15.0 -57.8 L18.0 -58.55 M25.55 -58.15 L28.15 -57.25 M7.15 -14.3 L8.8 -14.1 24.25 -12.6 21.5 1.85 Q14.75 4.35 8.4 2.7 12.15 5.55 17.15 5.1 L21.15 4.75 23.8 2.25 24.85 -0.6 M1.75 -7.25 L0.35 -5.65 Q3.1 2.55 9.0 4.9 M5.05 -0.8 L3.55 -14.5 3.5 -14.5 -3.55 -14.9 -5.85 -1.75 Q-3.85 -1.9 -2.5 -3.1 L-3.95 -5.55 -2.6 -7.25 1.75 -7.25 Q3.2 -3.45 5.05 -0.8 6.6 1.3 8.4 2.7 L7.15 -14.3 3.55 -14.5 M33.1 -7.45 Q29.15 2.9 21.15 4.75 M-19.35 -28.55 Q-17.4 -32.35 -13.55 -32.9 -10.5 -31.9 -8.9 -27.55 M-5.6 -30.15 Q-8.5 -33.35 -11.65 -34.6 L-14.75 -34.6 -17.8 -34.6 Q-23.15 -31.8 -25.05 -25.5 M-19.35 -28.55 L-20.05 -26.95 M-23.6 -16.05 L-20.95 -15.9 -6.1 -15.05 -3.55 -14.9 M-28.25 -7.05 Q-27.95 -3.6 -25.5 -1.0 -20.0 2.35 -13.45 2.35 -6.3 1.85 -1.9 -1.95 L-2.5 -3.1 M-26.45 -8.6 L-28.25 -7.05 -33.0 -8.2 M-20.95 -15.9 L-18.85 0.35 Q-13.05 1.4 -8.3 -1.1 L-6.1 -15.05 M-1.9 -1.95 L-1.1 -0.55 M0.35 -5.65 L-3.95 -5.55" fill="none" stroke="#000000" stroke-linecap="round" stroke-linejoin="round" stroke-opacity="0.3882353" stroke-width="0.2"/>
    </g>
    <g id="decoration125-sprite0" transform="matrix(1.0, 0.0, 0.0, 1.0, 0.1, 0.1)">
      <use ffdec:characterId="476" height="36.65" transform="matrix(1.0, 0.0, 0.0, 1.0, -0.1, -0.1)" width="64.3" xlink:href="#decoration125-shape1"/>
    </g>
    <g id="decoration125-shape1" transform="matrix(1.0, 0.0, 0.0, 1.0, 0.1, 0.1)">
      <path d="M55.2 7.35 L57.65 9.95 Q59.6 8.95 61.15 8.9 62.85 8.85 64.1 9.95 62.65 12.95 59.2 14.0 60.25 17.75 58.15 21.55 L57.9 21.95 Q52.7 26.75 46.55 26.3 L46.25 25.8 Q43.85 21.85 43.65 16.5 41.4 19.2 40.3 22.5 38.05 19.35 37.45 15.5 L36.65 17.05 Q35.4 19.7 35.65 22.55 L32.1 20.3 32.9 22.6 29.55 19.6 31.6 23.8 Q28.15 25.65 26.7 28.9 L25.85 28.35 Q25.7 22.6 27.25 19.9 27.3 17.05 26.7 16.0 25.6 13.95 26.05 13.4 26.4 13.0 28.35 15.3 30.4 17.65 31.1 17.3 31.8 16.95 31.35 14.3 30.75 11.05 31.1 9.9 L34.55 16.65 34.35 12.85 34.3 11.2 Q34.2 8.0 34.7 7.85 35.1 7.75 36.95 10.25 38.75 12.65 39.05 12.25 39.35 11.85 38.35 9.1 37.35 6.4 37.6 6.15 37.95 5.85 44.25 8.75 L50.5 11.7 44.6 4.9 Q50.3 4.85 55.2 7.35" fill="url(#decoration125-gradient0)" fill-rule="evenodd" stroke="none"/>
      <path d="M64.1 9.95 Q63.55 12.95 61.05 13.65 61.45 28.1 51.8 35.6 L50.45 33.85 Q48.5 31.6 46.35 30.2 L45.1 29.45 42.85 28.5 Q36.4 26.3 28.4 30.25 L26.7 28.9 Q28.15 25.65 31.6 23.8 L29.55 19.6 32.9 22.6 32.1 20.3 35.65 22.55 Q35.4 19.7 36.65 17.05 L37.45 15.5 Q38.05 19.35 40.3 22.5 41.4 19.2 43.65 16.5 43.85 21.85 46.25 25.8 L46.55 26.3 Q52.7 26.75 57.9 21.95 L58.15 21.55 Q60.25 17.75 59.2 14.0 62.65 12.95 64.1 9.95" fill="url(#decoration125-gradient1)" fill-rule="evenodd" stroke="none"/>
      <path d="M21.95 26.4 L21.7 22.85 Q21.25 10.2 28.4 6.05 26.8 4.1 28.95 0.35 30.3 -1.15 32.3 3.95 L34.4 3.35 36.65 2.85 42.2 2.3 45.5 2.6 Q48.1 3.05 50.4 4.15 L51.6 4.75 Q52.25 5.1 52.9 5.55 L55.2 7.35 Q50.3 4.85 44.6 4.9 L50.5 11.7 44.25 8.75 Q37.95 5.85 37.6 6.15 37.35 6.4 38.35 9.1 39.35 11.85 39.05 12.25 38.75 12.65 36.95 10.25 35.1 7.75 34.7 7.85 34.2 8.0 34.3 11.2 L34.35 12.85 34.55 16.65 31.1 9.9 Q30.75 11.05 31.35 14.3 31.8 16.95 31.1 17.3 30.4 17.65 28.35 15.3 26.4 13.0 26.05 13.4 25.6 13.95 26.7 16.0 27.3 17.05 27.25 19.9 25.7 22.6 25.85 28.35 24.75 27.6 23.65 27.1 L21.95 26.4" fill="url(#decoration125-gradient2)" fill-rule="evenodd" stroke="none"/>
      <path d="M0.35 28.9 Q0.9 28.15 2.25 27.5 L2.95 27.25 Q1.45 29.05 9.95 29.55 24.7 31.0 23.65 27.1 24.75 27.6 25.85 28.35 L26.7 28.9 28.4 30.25 Q36.4 26.3 42.85 28.5 L45.1 29.45 46.35 30.2 Q47.6 32.2 45.45 33.3 L41.55 34.2 Q34.55 34.55 27.8 31.65 13.75 33.1 0.35 28.9" fill="url(#decoration125-gradient3)" fill-rule="evenodd" stroke="none"/>
      <path d="M51.8 35.6 L51.75 35.65 Q43.8 37.55 36.35 35.0 L18.3 33.95 2.25 33.15 1.2 32.25 Q-0.65 30.35 0.35 28.9 13.75 33.1 27.8 31.65 34.55 34.55 41.55 34.2 L45.45 33.3 Q47.6 32.2 46.35 30.2 48.5 31.6 50.45 33.85 L51.8 35.6" fill="url(#decoration125-gradient4)" fill-rule="evenodd" stroke="none"/>
      <path d="M2.95 27.25 L7.25 26.05 Q13.35 24.6 18.4 25.45 20.25 25.75 21.95 26.4 L23.65 27.1 Q24.7 31.0 9.95 29.55 1.45 29.05 2.95 27.25" fill="#afafaf" fill-rule="evenodd" stroke="none"/>
      <path d="M55.2 7.35 L57.65 9.95 Q59.6 8.95 61.15 8.9 62.85 8.85 64.1 9.95 63.55 12.95 61.05 13.65 61.45 28.1 51.8 35.6 L51.75 35.65 Q43.8 37.55 36.35 35.0 L18.3 33.95 2.25 33.15 1.2 32.25 Q-0.65 30.35 0.35 28.9 0.9 28.15 2.25 27.5 L2.95 27.25 7.25 26.05 Q13.35 24.6 18.4 25.45 20.25 25.75 21.95 26.4 L21.7 22.85 Q21.25 10.2 28.4 6.05 26.8 4.1 28.95 0.35 30.3 -1.15 32.3 3.95 L34.4 3.35 36.65 2.85 42.2 2.3 45.5 2.6 Q48.1 3.05 50.4 4.15 L51.6 4.75 Q52.25 5.1 52.9 5.55 L55.2 7.35 M25.85 28.35 L26.7 28.9 28.4 30.25 Q36.4 26.3 42.85 28.5 L45.1 29.45 46.35 30.2 Q48.5 31.6 50.45 33.85 M25.85 28.35 Q24.75 27.6 23.65 27.1 L21.95 26.4" fill="none" stroke="#000000" stroke-linecap="round" stroke-linejoin="round" stroke-opacity="0.3882353" stroke-width="0.2"/>
    </g>
    <linearGradient gradientTransform="matrix(0.0056, 0.0097, -0.0127, 0.0073, 45.2, 20.25)" gradientUnits="userSpaceOnUse" id="decoration125-gradient0" spreadMethod="pad" x1="-819.2" x2="819.2">
      <stop offset="0.0" stop-color="#808080"/>
      <stop offset="1.0" stop-color="#5d5d5d"/>
    </linearGradient>
    <linearGradient gradientTransform="matrix(0.0156, 0.0107, -0.0088, 0.0129, 45.45, 22.75)" gradientUnits="userSpaceOnUse" id="decoration125-gradient1" spreadMethod="pad" x1="-819.2" x2="819.2">
      <stop offset="0.0" stop-color="#666666"/>
      <stop offset="1.0" stop-color="#25282a"/>
    </linearGradient>
    <linearGradient gradientTransform="matrix(0.0067, 0.0074, -0.0129, 0.0115, 33.5, 8.1)" gradientUnits="userSpaceOnUse" id="decoration125-gradient2" spreadMethod="pad" x1="-819.2" x2="819.2">
      <stop offset="0.0" stop-color="#c6c6c6"/>
      <stop offset="1.0" stop-color="#838383"/>
    </linearGradient>
    <linearGradient gradientTransform="matrix(0.026, 0.0113, -0.0017, 0.004, 31.1, 35.55)" gradientUnits="userSpaceOnUse" id="decoration125-gradient3" spreadMethod="pad" x1="-819.2" x2="819.2">
      <stop offset="0.0" stop-color="#9c9c9c"/>
      <stop offset="1.0" stop-color="#4c4c4d"/>
    </linearGradient>
    <linearGradient gradientTransform="matrix(0.0191, 0.0125, -0.0025, 0.0039, 25.95, 32.7)" gradientUnits="userSpaceOnUse" id="decoration125-gradient4" spreadMethod="pad" x1="-819.2" x2="819.2">
      <stop offset="0.0392156862745098" stop-color="#6d6d6d"/>
      <stop offset="1.0" stop-color="#2d3133"/>
    </linearGradient>
    <g id="decoration125-shape2" transform="matrix(1.0, 0.0, 0.0, 1.0, -4.1, 32.25)">
      <path d="M19.4 -32.15 Q14.75 -30.85 12.35 -28.45 8.65 -23.15 8.15 -18.15 L4.2 -18.4 Q5.1 -28.85 13.9 -31.4 L19.4 -32.15" fill="#a97963" fill-rule="evenodd" stroke="none"/>
      <path d="M8.15 -18.15 Q8.65 -23.15 12.35 -28.45 14.75 -30.85 19.4 -32.15 23.55 -31.6 25.75 -28.05 27.65 -25.0 27.7 -20.55 L27.05 -19.7 Q26.1 -28.55 21.8 -30.55 20.4 -31.35 18.95 -30.55 11.55 -30.0 9.65 -17.95 L8.15 -18.15" fill="#301913" fill-rule="evenodd" stroke="none"/>
      <path d="M18.95 -30.55 Q20.4 -31.35 21.8 -30.55 26.1 -28.55 27.05 -19.7 L25.0 -16.7 23.3 -17.25 Q24.45 -29.1 18.95 -30.55" fill="#080808" fill-rule="evenodd" stroke="none"/>
      <path d="M19.4 -32.15 L13.9 -31.4 Q5.1 -28.85 4.2 -18.4 L8.15 -18.15 9.65 -17.95 Q11.55 -30.0 18.95 -30.55 24.45 -29.1 23.3 -17.25 L25.0 -16.7 27.05 -19.7 27.7 -20.55 Q27.65 -25.0 25.75 -28.05 23.55 -31.6 19.4 -32.15 Z" fill="none" stroke="#000000" stroke-linecap="round" stroke-linejoin="round" stroke-opacity="0.3882353" stroke-width="0.2"/>
    </g>
    <g id="decoration125-sprite1" transform="matrix(1.0, 0.0, 0.0, 1.0, 0.0, 0.0)">
      <use ffdec:characterId="334" height="4.6" transform="matrix(1.0, 0.0, 0.0, 1.0, 0.0, 0.0)" width="35.4" xlink:href="#decoration125-shape3"/>
    </g>
    <g id="decoration125-shape3" transform="matrix(1.0, 0.0, 0.0, 1.0, 0.0, 0.0)">
      <path d="M0.0 4.6 L0.0 0.0 35.4 0.0 35.4 4.6 0.0 4.6" fill="#738a7e" fill-opacity="0.0" fill-rule="evenodd" stroke="none"/>
    </g>
  </defs>
</svg>
