<?xml version="1.0" encoding="UTF-8" standalone="no"?>
<svg xmlns:xlink="http://www.w3.org/1999/xlink" height="25.7px" width="38.3px" xmlns="http://www.w3.org/2000/svg">
  <g transform="matrix(1.0, 0.0, 0.0, 1.0, 9.85, 25.45)">
    <use height="25.7" transform="matrix(1.0, 0.0, 0.0, 1.0, -9.85, -25.45)" width="38.3" xlink:href="#decoration126-shape0"/>
  </g>
  <defs>
    <g id="decoration126-shape0" transform="matrix(1.0, 0.0, 0.0, 1.0, 9.85, 25.45)">
      <path d="M1.6 -20.85 Q1.7 -22.75 0.4 -24.65 L2.0 -25.45 3.6 -22.15 Q4.5 -19.65 2.85 -17.7 L0.15 -14.5 Q-0.55 -12.95 0.0 -11.6 0.5 -10.35 2.05 -9.45 L-3.15 -9.2 Q-5.4 -10.75 -4.6 -14.1 -4.3 -15.2 -3.1 -16.15 L-0.05 -18.1 Q1.5 -18.95 1.6 -20.85" fill="url(#decoration126-gradient0)" fill-rule="evenodd" stroke="none"/>
      <path d="M8.0 -16.75 Q7.15 -13.4 3.95 -14.1 6.3 -16.9 6.25 -21.85 8.25 -20.65 8.0 -16.75" fill="url(#decoration126-gradient1)" fill-rule="evenodd" stroke="none"/>
      <path d="M-8.75 -4.65 L-6.7 -1.2 Q-4.3 -0.45 4.05 -2.5 7.6 -6.25 7.65 -9.95 9.05 -9.75 9.15 -9.35 L8.95 -7.85 8.0 -4.25 6.7 0.1 -7.85 0.1 -8.75 -4.65" fill="#601728" fill-rule="evenodd" stroke="none"/>
      <path d="M7.65 -9.95 Q7.6 -6.25 4.05 -2.5 -4.3 -0.45 -6.7 -1.2 L-8.75 -4.65 -9.7 -9.35 Q-9.75 -9.75 -7.25 -10.0 L-4.1 -10.15 -0.45 -10.25 7.65 -9.95" fill="url(#decoration126-gradient2)" fill-rule="evenodd" stroke="none"/>
      <path d="M8.0 -4.25 L8.95 -7.85 Q9.4 -6.4 13.45 -8.1 18.2 -9.75 28.2 -10.75 28.7 -10.4 26.25 -9.0 16.2 -9.35 8.0 -4.25" fill="#2a2727" fill-rule="evenodd" stroke="none"/>
      <path d="M28.2 -10.75 Q18.2 -9.75 13.45 -8.1 9.4 -6.4 8.95 -7.85 14.3 -10.25 21.35 -10.75 L28.2 -10.75" fill="#403c3d" fill-rule="evenodd" stroke="none"/>
      <path d="M-8.75 -4.65 L-7.85 0.1 6.7 0.1 8.0 -4.25 8.95 -7.85 9.15 -9.35 Q9.05 -9.75 7.65 -9.95 L-0.45 -10.25 -4.1 -10.15 -7.25 -10.0 Q-9.75 -9.75 -9.7 -9.35 L-8.75 -4.65 M28.2 -10.75 L21.35 -10.75 Q14.3 -10.25 8.95 -7.85 M28.2 -10.75 Q28.7 -10.4 26.25 -9.0 16.2 -9.35 8.0 -4.25" fill="none" stroke="#000000" stroke-linecap="round" stroke-linejoin="round" stroke-opacity="0.4" stroke-width="0.30000000000000004"/>
    </g>
    <linearGradient gradientTransform="matrix(0.0023, -0.0086, 0.0096, 0.0026, -0.5, -17.3)" gradientUnits="userSpaceOnUse" id="decoration126-gradient0" spreadMethod="pad" x1="-819.2" x2="819.2">
      <stop offset="0.0" stop-color="#ffffff" stop-opacity="0.0"/>
      <stop offset="0.4235294117647059" stop-color="#ffffff" stop-opacity="0.23137255"/>
      <stop offset="1.0" stop-color="#ffffff" stop-opacity="0.0"/>
    </linearGradient>
    <linearGradient gradientTransform="matrix(0.0022, -0.0037, 0.0042, 0.0024, 6.0, -17.9)" gradientUnits="userSpaceOnUse" id="decoration126-gradient1" spreadMethod="pad" x1="-819.2" x2="819.2">
      <stop offset="0.0" stop-color="#ffffff" stop-opacity="0.0"/>
      <stop offset="0.4235294117647059" stop-color="#ffffff" stop-opacity="0.23137255"/>
      <stop offset="1.0" stop-color="#ffffff" stop-opacity="0.0"/>
    </linearGradient>
    <linearGradient gradientTransform="matrix(0.0081, 0.0, 0.0, 0.0056, -1.45, -5.45)" gradientUnits="userSpaceOnUse" id="decoration126-gradient2" spreadMethod="pad" x1="-819.2" x2="819.2">
      <stop offset="0.0" stop-color="#b74e5d"/>
      <stop offset="0.30980392156862746" stop-color="#c4757c"/>
      <stop offset="0.8588235294117647" stop-color="#b74e5d"/>
      <stop offset="1.0" stop-color="#772c3b"/>
    </linearGradient>
  </defs>
</svg>
