<?xml version="1.0" encoding="UTF-8" standalone="no"?>
<svg xmlns:ffdec="https://www.free-decompiler.com/flash" xmlns:xlink="http://www.w3.org/1999/xlink" ffdec:objectType="frame" height="39.45px" width="28.4px" xmlns="http://www.w3.org/2000/svg">
  <g transform="matrix(1.0, 0.0, 0.0, 1.0, 14.0, 36.5)">
    <use ffdec:characterId="335" height="4.6" id="decoration127-B" transform="matrix(0.6244, 0.0, 0.0, 1.0, -10.25, -35.95)" width="35.4" xlink:href="#decoration127-sprite0"/>
    <use ffdec:characterId="469" height="36.4" id="decoration127-Couleur0_784939" filter="url(#decoration127-filter0)" transform="matrix(1.0, 0.0, 0.0, 1.0, -14.0, -33.45)" width="28.4" xlink:href="#decoration127-sprite1"/>
    <use ffdec:characterId="471" height="3.35" id="decoration127-Couleur1_A31638" filter="url(#decoration127-filter1)" transform="matrix(1.0, 0.0, 0.0, 1.0, -10.1, -36.5)" width="21.5" xlink:href="#decoration127-sprite2"/>
  </g>
  <defs>
    <g id="decoration127-sprite0" transform="matrix(1.0, 0.0, 0.0, 1.0, 0.0, 0.0)">
      <use ffdec:characterId="334" height="4.6" transform="matrix(1.0, 0.0, 0.0, 1.0, 0.0, 0.0)" width="35.4" xlink:href="#decoration127-shape0"/>
    </g>
    <g id="decoration127-shape0" transform="matrix(1.0, 0.0, 0.0, 1.0, 0.0, 0.0)">
      <path d="M0.0 4.6 L0.0 0.0 35.4 0.0 35.4 4.6 0.0 4.6" fill="#738a7e" fill-opacity="0.0" fill-rule="evenodd" stroke="none"/>
    </g>
    <g id="decoration127-sprite1" transform="matrix(1.0, 0.0, 0.0, 1.0, 0.15, 0.15)">
      <use ffdec:characterId="468" height="36.4" transform="matrix(1.0, 0.0, 0.0, 1.0, -0.15, -0.15)" width="28.4" xlink:href="#decoration127-shape1"/>
    </g>
    <g id="decoration127-shape1" transform="matrix(1.0, 0.0, 0.0, 1.0, 0.15, 0.15)">
      <path d="M27.25 36.1 L21.6 7.55 22.35 4.7 28.1 36.1 27.25 36.1 M22.7 20.8 L22.85 21.55 15.0 19.3 15.0 18.6 22.7 20.8 M23.05 22.6 L23.15 23.2 4.8 23.2 4.9 22.6 5.0 21.95 12.85 18.75 12.85 19.45 5.95 22.6 9.5 22.6 12.85 22.6 15.0 22.6 19.4 22.6 23.05 22.6 M2.15 2.35 Q2.0 1.2 2.55 0.0 L27.25 0.0 Q27.65 1.2 27.55 2.35 L2.15 2.35 M5.55 5.75 L6.35 7.1 0.95 36.1 0.0 36.1 5.55 5.75 M4.9 22.6 L5.95 22.6 4.9 22.6" fill="#808080" fill-rule="evenodd" stroke="none"/>
      <path d="M22.35 4.7 L21.6 7.55 27.25 36.1 25.5 36.1 23.45 24.8 23.15 23.2 23.45 24.8 15.0 24.8 15.0 34.9 12.85 34.9 12.85 24.8 4.5 24.8 2.4 36.1 0.95 36.1 6.35 7.1 5.55 5.75 5.95 3.6 2.55 3.6 2.15 2.35 27.55 2.35 27.25 3.6 22.15 3.6 22.35 4.7 M19.55 3.6 L22.15 3.6 19.55 3.6 15.0 3.6 12.85 3.6 15.0 3.6 15.0 18.6 15.0 19.3 22.85 21.55 22.7 20.8 19.55 3.6 M23.05 22.6 L22.85 21.55 23.05 22.6 19.4 22.6 15.0 21.25 15.0 22.6 12.85 22.6 12.85 21.2 9.5 22.6 5.95 22.6 12.85 19.45 12.85 18.75 12.85 3.6 8.35 3.6 5.95 3.6 8.35 3.6 5.0 21.95 4.9 22.6 4.8 23.2 4.5 24.8 4.8 23.2 23.15 23.2 23.05 22.6 M12.85 19.45 L12.85 21.2 12.85 19.45 M15.0 21.25 L15.0 19.3 15.0 21.25 M15.0 24.8 L12.85 24.8 15.0 24.8" fill="#3c3735" fill-rule="evenodd" stroke="none"/>
      <path d="M27.25 36.1 L28.1 36.1 22.35 4.7 22.15 3.6 19.55 3.6 22.7 20.8 22.85 21.55 23.05 22.6 23.15 23.2 23.45 24.8 25.5 36.1 27.25 36.1 M27.55 2.35 L27.25 3.6 22.15 3.6 M2.15 2.35 Q2.0 1.2 2.55 0.0 L27.25 0.0 Q27.65 1.2 27.55 2.35 M2.15 2.35 L2.55 3.6 5.95 3.6 8.35 3.6 12.85 3.6 15.0 3.6 19.55 3.6 M0.95 36.1 L2.4 36.1 4.5 24.8 4.8 23.2 4.9 22.6 5.0 21.95 8.35 3.6 M5.55 5.75 L5.95 3.6 M9.5 22.6 L5.95 22.6 4.9 22.6 M15.0 18.6 L15.0 19.3 15.0 21.25 19.4 22.6 23.05 22.6 M15.0 22.6 L12.85 22.6 9.5 22.6 12.85 21.2 12.85 19.45 12.85 18.75 5.0 21.95 M12.85 21.2 L12.85 22.6 M15.0 22.6 L15.0 21.25 M19.4 22.6 L15.0 22.6 M12.85 3.6 L12.85 18.75 M15.0 18.6 L15.0 3.6 M23.45 24.8 L15.0 24.8 15.0 34.9 12.85 34.9 12.85 24.8 4.5 24.8 M0.95 36.1 L0.0 36.1 5.55 5.75 M12.85 24.8 L15.0 24.8 M22.7 20.8 L15.0 18.6" fill="none" stroke="#000000" stroke-linecap="round" stroke-linejoin="round" stroke-opacity="0.4" stroke-width="0.30000000000000004"/>
    </g>
    <g id="decoration127-sprite2" transform="matrix(1.0, 0.0, 0.0, 1.0, 0.15, 0.15)">
      <use ffdec:characterId="470" height="3.35" transform="matrix(1.0, 0.0, 0.0, 1.0, -0.15, -0.15)" width="21.5" xlink:href="#decoration127-shape2"/>
    </g>
    <g id="decoration127-shape2" transform="matrix(1.0, 0.0, 0.0, 1.0, 0.15, 0.15)">
      <path d="M0.0 2.35 L0.0 1.7 Q3.7 0.1 10.0 0.0 15.45 -0.1 19.75 1.05 18.05 2.45 0.0 2.35" fill="#808080" fill-rule="evenodd" stroke="none"/>
      <path d="M19.75 1.05 L21.2 1.5 21.2 3.05 0.0 3.05 0.0 2.35 Q18.05 2.45 19.75 1.05" fill="#4f4444" fill-rule="evenodd" stroke="none"/>
      <path d="M19.75 1.05 L21.2 1.5 21.2 3.05 0.0 3.05 0.0 2.35 0.0 1.7 Q3.7 0.1 10.0 0.0 15.45 -0.1 19.75 1.05 Z" fill="none" stroke="#000000" stroke-linecap="round" stroke-linejoin="round" stroke-opacity="0.4" stroke-width="0.30000000000000004"/>
    </g>
  </defs>
</svg>
