<?xml version="1.0" encoding="UTF-8" standalone="no"?>
<svg xmlns:xlink="http://www.w3.org/1999/xlink" height="49.65px" width="50.6px" xmlns="http://www.w3.org/2000/svg">
  <g transform="matrix(1.0, 0.0, 0.0, 1.0, 25.35, 49.55)">
    <use height="1.6" transform="matrix(1.0, 0.0, 0.0, 1.0, -24.7, -1.5)" width="49.2" xlink:href="#decoration129-shape0"/>
    <use height="44.2" id="decoration129-Couleur0_AC254E" filter="url(#decoration129-filter0)" transform="matrix(1.0, 0.0, 0.0, 1.0, -24.7, -45.4)" width="49.2" xlink:href="#decoration129-sprite0"/>
    <use height="1.35" transform="matrix(1.0, 0.0, 0.0, 1.0, -5.3, -40.9)" width="12.55" xlink:href="#decoration129-shape2"/>
    <use height="4.45" id="decoration129-Couleur2_E3E3E3" filter="url(#decoration129-filter2)" transform="matrix(1.0, 0.0, 0.0, 1.0, -25.35, -49.55)" width="50.6" xlink:href="#decoration129-sprite1"/>
    <use height="15.55" transform="matrix(1.0, 0.0, 0.0, 1.0, -5.3, -26.5)" width="12.55" xlink:href="#decoration129-shape4"/>
    <use height="30.35" id="decoration129-Couleur1_1B1D1C" filter="url(#decoration129-filter1)" transform="matrix(1.0, 0.0, 0.0, 1.0, -7.05, -41.8)" width="14.5" xlink:href="#decoration129-sprite2"/>
  </g>
  <defs>
    <g id="decoration129-shape0" transform="matrix(1.0, 0.0, 0.0, 1.0, 24.7, 1.5)">
      <path d="M24.35 -1.35 L24.35 -0.05 -24.55 -0.05 -24.55 -1.35 24.35 -1.35" fill="#5d5d5d" fill-rule="evenodd" stroke="none"/>
      <path d="M-24.55 -1.35 L-24.55 -0.05 24.35 -0.05 24.35 -1.35" fill="none" stroke="#000000" stroke-linecap="round" stroke-linejoin="round" stroke-opacity="0.4" stroke-width="0.30000000000000004"/>
    </g>
    <g id="decoration129-sprite0" transform="matrix(1.0, 0.0, 0.0, 1.0, 0.15, 0.15)">
      <use height="44.2" transform="matrix(1.0, 0.0, 0.0, 1.0, -0.15, -0.15)" width="49.2" xlink:href="#decoration129-shape1"/>
    </g>
    <g id="decoration129-shape1" transform="matrix(1.0, 0.0, 0.0, 1.0, 0.15, 0.15)">
      <path d="M44.85 1.15 L47.5 1.15 47.5 11.9 36.7 11.9 44.85 1.15 M29.5 11.9 L1.2 11.9 1.2 1.15 37.55 1.15 29.5 11.9 M27.15 29.9 L47.4 29.9 47.4 41.55 18.1 41.55 27.15 29.9 M10.0 41.55 L1.4 41.55 1.4 29.9 19.55 29.9 10.0 41.55 M38.85 14.8 L47.4 14.8 47.4 27.45 29.05 27.45 38.85 14.8 M21.55 27.45 L1.4 27.45 1.4 14.8 31.85 14.8 21.55 27.45" fill="#808080" fill-rule="evenodd" stroke="none"/>
      <path d="M48.9 43.9 L0.0 43.9 0.0 28.6 0.0 13.35 0.0 0.0 48.9 0.0 48.9 13.35 48.9 28.6 48.9 43.9 M36.7 11.9 L47.5 11.9 47.5 1.15 44.85 1.15 37.55 1.15 1.2 1.15 1.2 11.9 29.5 11.9 36.7 11.9 M18.1 41.55 L47.4 41.55 47.4 29.9 27.15 29.9 19.55 29.9 1.4 29.9 1.4 41.55 10.0 41.55 18.1 41.55 M29.05 27.45 L47.4 27.45 47.4 14.8 38.85 14.8 31.85 14.8 1.4 14.8 1.4 27.45 21.55 27.45 29.05 27.45 M48.9 13.35 L0.0 13.35 48.9 13.35 M0.0 28.6 L48.9 28.6 0.0 28.6" fill="#514f4f" fill-rule="evenodd" stroke="none"/>
      <path d="M18.1 41.55 L10.0 41.55 19.55 29.9 27.15 29.9 18.1 41.55" fill="url(#decoration129-gradient0)" fill-rule="evenodd" stroke="none"/>
      <path d="M44.85 1.15 L36.7 11.9 29.5 11.9 37.55 1.15 44.85 1.15" fill="url(#decoration129-gradient1)" fill-rule="evenodd" stroke="none"/>
      <path d="M29.05 27.45 L21.55 27.45 31.85 14.8 38.85 14.8 29.05 27.45" fill="url(#decoration129-gradient2)" fill-rule="evenodd" stroke="none"/>
      <path d="M48.9 43.9 L0.0 43.9 0.0 28.6 0.0 13.35 0.0 0.0 48.9 0.0 48.9 13.35 48.9 28.6 48.9 43.9 M48.9 28.6 L0.0 28.6 M0.0 13.35 L48.9 13.35" fill="none" stroke="#000000" stroke-linecap="round" stroke-linejoin="round" stroke-opacity="0.4" stroke-width="0.30000000000000004"/>
    </g>
    <linearGradient gradientTransform="matrix(0.0046, -0.0172, 0.0157, 0.0042, 21.0, 30.55)" gradientUnits="userSpaceOnUse" id="decoration129-gradient0" spreadMethod="pad" x1="-819.2" x2="819.2">
      <stop offset="0.0" stop-color="#808080"/>
      <stop offset="0.5176470588235295" stop-color="#adadad"/>
      <stop offset="1.0" stop-color="#808080"/>
    </linearGradient>
    <linearGradient gradientTransform="matrix(0.0, -0.0113, 0.0066, 0.0, 37.15, 6.5)" gradientUnits="userSpaceOnUse" id="decoration129-gradient1" spreadMethod="pad" x1="-819.2" x2="819.2">
      <stop offset="0.0" stop-color="#808080"/>
      <stop offset="0.44313725490196076" stop-color="#9c9c9c"/>
      <stop offset="1.0" stop-color="#808080"/>
    </linearGradient>
    <linearGradient gradientTransform="matrix(0.0035, -0.0131, 0.0157, 0.0042, 27.5, 22.2)" gradientUnits="userSpaceOnUse" id="decoration129-gradient2" spreadMethod="pad" x1="-819.2" x2="819.2">
      <stop offset="0.0" stop-color="#808080"/>
      <stop offset="0.4588235294117647" stop-color="#adadad"/>
      <stop offset="1.0" stop-color="#808080"/>
    </linearGradient>
    <g id="decoration129-shape2" transform="matrix(1.0, 0.0, 0.0, 1.0, 5.3, 40.9)">
      <path d="M7.25 -40.2 L7.05 -39.75 6.6 -39.55 -4.65 -39.55 Q-4.9 -39.55 -5.1 -39.75 L-5.3 -40.2 -5.3 -40.25 -5.1 -40.7 Q-4.9 -40.9 -4.65 -40.9 L6.6 -40.9 7.05 -40.7 7.25 -40.25 7.25 -40.2" fill="#000000" fill-opacity="0.3019608" fill-rule="evenodd" stroke="none"/>
    </g>
    <g id="decoration129-sprite1" transform="matrix(1.0, 0.0, 0.0, 1.0, 0.15, 0.15)">
      <use height="4.45" transform="matrix(1.0, 0.0, 0.0, 1.0, -0.15, -0.15)" width="50.6" xlink:href="#decoration129-shape3"/>
    </g>
    <g id="decoration129-shape3" transform="matrix(1.0, 0.0, 0.0, 1.0, 0.15, 0.15)">
      <path d="M50.3 0.0 L49.2 3.1 1.25 3.1 0.0 0.0 50.3 0.0" fill="#808080" fill-rule="evenodd" stroke="none"/>
      <path d="M50.3 0.0 L50.3 4.15 49.55 4.15 0.65 4.15 0.0 4.15 0.0 0.0 1.25 3.1 49.2 3.1 50.3 0.0" fill="#514f4f" fill-rule="evenodd" stroke="none"/>
      <path d="M49.55 4.15 L50.3 4.15 50.3 0.0 M0.0 0.0 L0.0 4.15 0.65 4.15 M0.0 0.0 L50.3 0.0" fill="none" stroke="#000000" stroke-linecap="round" stroke-linejoin="round" stroke-opacity="0.4" stroke-width="0.30000000000000004"/>
    </g>
    <g id="decoration129-shape4" transform="matrix(1.0, 0.0, 0.0, 1.0, 5.3, 26.5)">
      <path d="M7.25 -25.85 L7.25 -25.8 7.05 -25.35 6.6 -25.15 -4.65 -25.15 Q-4.9 -25.15 -5.1 -25.35 L-5.3 -25.8 -5.3 -25.85 -5.1 -26.3 Q-4.9 -26.5 -4.65 -26.5 L6.6 -26.5 7.05 -26.3 7.25 -25.85" fill="#000000" fill-opacity="0.3019608" fill-rule="evenodd" stroke="none"/>
      <path d="M7.05 -12.1 L7.25 -11.65 7.25 -11.6 7.05 -11.15 6.6 -10.95 -4.65 -10.95 Q-4.9 -10.95 -5.1 -11.15 L-5.3 -11.6 -5.3 -11.65 -5.1 -12.1 Q-4.9 -12.3 -4.65 -12.3 L6.6 -12.3 7.05 -12.1" fill="#000000" fill-opacity="0.3019608" fill-rule="evenodd" stroke="none"/>
    </g>
    <g id="decoration129-sprite2" transform="matrix(1.0, 0.0, 0.0, 1.0, -15.3, 0.15)">
      <use height="30.35" transform="matrix(1.0, 0.0, 0.0, 1.0, 15.3, -0.15)" width="14.5" xlink:href="#decoration129-shape5"/>
    </g>
    <g id="decoration129-shape5" transform="matrix(1.0, 0.0, 0.0, 1.0, -15.3, 0.15)">
      <path d="M29.65 0.65 L29.45 1.1 29.0 1.3 16.1 1.3 15.65 1.1 15.45 0.65 15.65 0.2 16.1 0.0 29.0 0.0 29.45 0.2 29.65 0.65" fill="#808080" fill-rule="evenodd" stroke="none"/>
      <path d="M29.65 0.65 L29.45 0.2 29.0 0.0 16.1 0.0 15.65 0.2 15.45 0.65 15.65 1.1 16.1 1.3 29.0 1.3 29.45 1.1 29.65 0.65 Z" fill="none" stroke="#000000" stroke-linecap="round" stroke-linejoin="round" stroke-opacity="0.4" stroke-width="0.30000000000000004"/>
      <path d="M29.65 15.0 L29.45 15.45 29.0 15.65 16.1 15.65 15.65 15.45 15.45 15.0 15.65 14.55 16.1 14.35 29.0 14.35 29.45 14.55 29.65 15.0" fill="#808080" fill-rule="evenodd" stroke="none"/>
      <path d="M29.65 15.0 L29.45 14.55 29.0 14.35 16.1 14.35 15.65 14.55 15.45 15.0 15.65 15.45 16.1 15.65 29.0 15.65 29.45 15.45 29.65 15.0 Z" fill="none" stroke="#000000" stroke-linecap="round" stroke-linejoin="round" stroke-opacity="0.4" stroke-width="0.30000000000000004"/>
      <path d="M15.65 28.95 L16.1 28.75 29.0 28.75 29.45 28.95 29.65 29.4 29.45 29.85 29.0 30.05 16.1 30.05 15.65 29.85 15.45 29.4 15.65 28.95" fill="#808080" fill-rule="evenodd" stroke="none"/>
      <path d="M15.65 28.95 L15.45 29.4 15.65 29.85 16.1 30.05 29.0 30.05 29.45 29.85 29.65 29.4 29.45 28.95 29.0 28.75 16.1 28.75 15.65 28.95 Z" fill="none" stroke="#000000" stroke-linecap="round" stroke-linejoin="round" stroke-opacity="0.4" stroke-width="0.30000000000000004"/>
    </g>
  </defs>
</svg>
