<?xml version="1.0" encoding="UTF-8" standalone="no"?>
<svg xmlns:xlink="http://www.w3.org/1999/xlink" height="52.95px" width="48.5px" xmlns="http://www.w3.org/2000/svg">
  <g transform="matrix(1.0, 0.0, 0.0, 1.0, 22.8, 53.75)">
    <use height="52.95" transform="matrix(1.0, 0.0, 0.0, 1.0, -22.8, -53.75)" width="48.5" xlink:href="#decoration13-shape0"/>
  </g>
  <defs>
    <g id="decoration13-shape0" transform="matrix(1.0, 0.0, 0.0, 1.0, 22.8, 53.75)">
      <path d="M14.75 -51.1 L14.4 -50.8 12.05 -50.8 7.85 -50.8 4.05 -50.8 4.4 -51.05 14.75 -51.1 M14.4 -49.25 L14.75 -49.75 25.55 -49.6 24.8 -49.15 22.15 -49.2 19.5 -49.2 17.05 -49.25 14.4 -49.25 M-21.65 -49.3 L-21.15 -49.75 -17.5 -49.75 -13.85 -49.75 -14.45 -49.3 -17.35 -49.3 -17.5 -49.75 -17.35 -49.3 -21.65 -49.3 M-13.85 -48.25 L-5.5 -48.25 -5.5 -47.8 -10.0 -47.8 -12.25 -47.8 -14.45 -47.8 -13.85 -48.25 M-5.5 -49.3 L-5.1 -49.6 -0.5 -49.5 4.05 -49.45 4.05 -49.1 -0.45 -49.2 -5.5 -49.3" fill="#a87437" fill-rule="evenodd" stroke="none"/>
      <path d="M25.55 -49.6 L25.4 -0.95 24.95 -1.05 24.95 -2.7 24.9 -16.6 24.8 -49.15 25.55 -49.6" fill="#462e13" fill-rule="evenodd" stroke="none"/>
      <path d="M14.75 -51.1 L14.75 -49.75 14.4 -49.25 14.4 -50.8 14.75 -51.1 M-13.85 -49.75 L-13.85 -48.25 -14.45 -47.8 -14.45 -49.3 -13.85 -49.75" fill="#583d1d" fill-rule="evenodd" stroke="none"/>
      <path d="M14.4 -50.8 L14.4 -49.25 14.4 -42.6 14.4 -38.85 Q10.95 -30.05 14.4 -26.25 L14.4 -13.6 14.4 -8.55 13.65 -0.95 13.05 -0.95 12.3 -2.7 Q4.9 -20.5 12.05 -50.8 L14.4 -50.8 M7.2 -0.95 L5.6 -0.95 4.05 -6.05 4.05 -8.6 4.05 -15.55 Q9.0 -9.0 7.7 -2.7 L7.2 -0.95 M4.05 -49.45 L4.05 -50.8 7.85 -50.8 Q7.4 -42.4 4.05 -37.15 L4.05 -49.1 4.05 -49.45" fill="url(#decoration13-gradient0)" fill-rule="evenodd" stroke="none"/>
      <path d="M13.05 -0.95 L10.4 -0.95 9.65 -4.25 9.1 -0.95 7.2 -0.95 7.7 -2.7 Q9.0 -9.0 4.05 -15.55 L4.05 -20.7 4.05 -23.8 4.05 -37.15 Q7.4 -42.4 7.85 -50.8 L12.05 -50.8 Q4.9 -20.5 12.3 -2.7 L13.05 -0.95 M14.4 -38.85 L14.4 -26.25 Q10.95 -30.05 14.4 -38.85" fill="url(#decoration13-gradient1)" fill-rule="evenodd" stroke="none"/>
      <path d="M22.15 -49.2 L24.8 -49.15 24.9 -16.6 Q22.5 -11.65 23.35 -2.7 L23.45 -2.05 21.95 -3.2 20.35 -1.75 19.7 -2.3 19.8 -2.7 Q23.6 -24.5 22.15 -49.2" fill="url(#decoration13-gradient2)" fill-rule="evenodd" stroke="none"/>
      <path d="M14.4 -42.6 Q16.05 -44.95 17.05 -49.25 L19.5 -49.2 Q15.05 -33.35 14.4 -13.6 L14.4 -26.25 14.4 -38.85 14.4 -42.6" fill="url(#decoration13-gradient3)" fill-rule="evenodd" stroke="none"/>
      <path d="M24.95 -1.05 L24.7 -1.05 23.45 -2.05 23.35 -2.7 Q22.5 -11.65 24.9 -16.6 L24.95 -2.7 24.95 -1.05 M17.65 -0.95 L14.4 -0.95 14.4 -2.7 14.4 -8.55 14.4 -13.6 Q15.05 -33.35 19.5 -49.2 L22.15 -49.2 Q23.6 -24.5 19.8 -2.7 L19.7 -2.3 18.55 -3.3 17.65 -0.95 M17.05 -49.25 Q16.05 -44.95 14.4 -42.6 L14.4 -49.25 17.05 -49.25" fill="url(#decoration13-gradient4)" fill-rule="evenodd" stroke="none"/>
      <path d="M3.05 -0.95 L2.85 -0.95 1.65 -3.0 0.9 -1.75 -0.1 -6.75 -0.1 -0.95 -0.75 -0.95 -0.9 -2.7 Q-1.7 -14.3 4.05 -20.7 L4.05 -15.55 4.05 -8.6 Q2.25 -6.7 2.75 -2.7 L3.05 -0.95 M4.05 -49.1 L4.05 -37.15 4.05 -23.8 Q-1.8 -31.05 -0.45 -49.2 L4.05 -49.1 M-5.5 -43.1 Q-2.15 -36.35 -1.5 -29.8 -1.5 -17.2 -5.5 -16.65 L-5.5 -38.55 -5.5 -43.1" fill="url(#decoration13-gradient5)" fill-rule="evenodd" stroke="none"/>
      <path d="M4.05 -0.95 L3.05 -0.95 2.75 -2.7 Q2.25 -6.7 4.05 -8.6 L4.05 -6.05 4.05 -2.7 4.05 -0.95 M-0.75 -0.95 L-3.8 -0.95 -5.5 -6.25 -5.5 -9.1 -5.5 -16.65 Q-1.5 -17.2 -1.5 -29.8 -2.15 -36.35 -5.5 -43.1 L-5.5 -47.8 -5.5 -48.25 -5.5 -49.3 -0.45 -49.2 Q-1.8 -31.05 4.05 -23.8 L4.05 -20.7 Q-1.7 -14.3 -0.9 -2.7 L-0.75 -0.95" fill="url(#decoration13-gradient6)" fill-rule="evenodd" stroke="none"/>
      <path d="M-6.5 -0.95 L-9.95 -0.95 -10.0 -2.7 Q-10.6 -14.45 -14.4 -18.85 L-14.4 -24.4 Q-9.15 -29.85 -10.0 -47.8 L-5.5 -47.8 -5.5 -43.1 -5.5 -38.55 Q-8.7 -30.55 -9.1 -24.8 -9.6 -16.6 -6.0 -5.0 L-6.5 -0.95 M-14.45 -47.8 L-12.25 -47.8 Q-12.0 -41.75 -14.4 -39.4 L-14.45 -47.8" fill="url(#decoration13-gradient7)" fill-rule="evenodd" stroke="none"/>
      <path d="M-9.95 -0.95 L-13.25 -0.95 -14.35 -9.1 -14.35 -14.05 -14.4 -18.85 Q-10.6 -14.45 -10.0 -2.7 L-9.95 -0.95 M-5.5 -16.65 L-5.5 -9.1 -6.0 -5.0 Q-9.6 -16.6 -9.1 -24.8 -8.7 -30.55 -5.5 -38.55 L-5.5 -16.65 M-10.0 -47.8 Q-9.15 -29.85 -14.4 -24.4 L-14.4 -29.45 -14.4 -37.75 -14.4 -39.4 Q-12.0 -41.75 -12.25 -47.8 L-10.0 -47.8" fill="url(#decoration13-gradient8)" fill-rule="evenodd" stroke="none"/>
      <path d="M-14.35 -0.95 L-19.95 -0.95 Q-17.8 -6.3 -14.35 -4.25 L-14.35 -2.7 -14.35 -0.95 M-21.65 -15.65 L-21.65 -33.0 Q-20.15 -22.1 -14.35 -14.05 L-14.35 -9.1 -14.35 -7.55 Q-17.8 -15.85 -21.65 -15.65 M-21.65 -44.9 L-21.65 -49.3 -17.35 -49.3 Q-18.0 -41.45 -14.4 -37.75 L-14.4 -29.45 Q-16.15 -38.05 -21.65 -44.9" fill="url(#decoration13-gradient9)" fill-rule="evenodd" stroke="none"/>
      <path d="M-19.95 -0.95 L-21.65 -0.95 -21.65 -15.65 Q-17.8 -15.85 -14.35 -7.55 L-14.35 -4.25 Q-17.8 -6.3 -19.95 -0.95 M-21.65 -33.0 L-21.65 -44.9 Q-16.15 -38.05 -14.4 -29.45 L-14.4 -24.4 -14.4 -18.85 -14.35 -14.05 Q-20.15 -22.1 -21.65 -33.0 M-14.45 -49.3 L-14.45 -47.8 -14.4 -39.4 -14.4 -37.75 Q-18.0 -41.45 -17.35 -49.3 L-14.45 -49.3" fill="url(#decoration13-gradient10)" fill-rule="evenodd" stroke="none"/>
      <path d="M-5.5 -0.95 L-6.5 -0.95 -6.0 -5.0 -5.5 -3.4 -5.5 -2.7 -5.5 -0.95 M-13.25 -0.95 L-14.35 -0.95 -14.35 -2.7 -14.35 -4.25 -14.35 -7.55 -14.35 -9.1 -13.25 -0.95" fill="#5d521e" fill-rule="evenodd" stroke="none"/>
      <path d="M23.55 -1.0 L19.45 -1.0 19.7 -2.3 20.35 -1.75 21.95 -3.2 23.45 -2.05 23.55 -1.0 M-3.8 -0.95 L-5.5 -0.95 -5.5 -2.7 -5.5 -3.4 -6.0 -5.0 -5.5 -9.1 -5.5 -6.25 -3.8 -0.95 M-5.5 -6.25 L-5.5 -3.4 -5.5 -6.25" fill="#64581c" fill-rule="evenodd" stroke="none"/>
      <path d="M24.7 -1.05 L23.55 -1.0 23.45 -2.05 24.7 -1.05 M19.45 -1.0 L17.65 -0.95 18.55 -3.3 19.7 -2.3 19.45 -1.0 M10.4 -0.95 L9.1 -0.95 9.65 -4.25 10.4 -0.95 M5.6 -0.95 L4.05 -0.95 4.05 -2.7 4.05 -6.05 5.6 -0.95 M2.85 -0.95 L-0.1 -0.95 -0.1 -6.75 0.9 -1.75 1.65 -3.0 2.85 -0.95" fill="#584b0e" fill-rule="evenodd" stroke="none"/>
      <path d="M14.4 -0.95 L13.65 -0.95 14.4 -8.55 14.4 -2.7 14.4 -0.95" fill="#514509" fill-rule="evenodd" stroke="none"/>
      <path d="M14.75 -49.75 L14.75 -51.1 14.4 -50.8 M14.4 -49.25 L14.75 -49.75 25.55 -49.6 25.4 -0.95 24.95 -1.05 24.7 -1.05 23.55 -1.0 19.45 -1.0 17.65 -0.95 14.4 -0.95 13.65 -0.95 13.05 -0.95 10.4 -0.95 9.1 -0.95 7.2 -0.95 5.6 -0.95 4.05 -0.95 3.05 -0.95 2.85 -0.95 -0.1 -0.95 -0.75 -0.95 -3.8 -0.95 -5.5 -0.95 -6.5 -0.95 -9.95 -0.95 -13.25 -0.95 -14.35 -0.95 -19.95 -0.95 -21.65 -0.95 -21.65 -15.65 -21.65 -33.0 -21.65 -44.9 -21.65 -49.3 -21.15 -49.75 -17.5 -49.75 -13.85 -49.75 -13.85 -48.25 -5.5 -48.25 -5.5 -49.3 -5.1 -49.6 -0.5 -49.5 4.05 -49.45 4.05 -50.8 4.4 -51.05 14.75 -51.1 M24.8 -49.15 L25.55 -49.6 M14.4 -42.6 L14.4 -38.85 14.4 -26.25 14.4 -13.6 M14.4 -49.25 L14.4 -42.6 M4.05 -49.45 L4.05 -49.1 4.05 -37.15 4.05 -23.8 4.05 -20.7 4.05 -15.55 M4.05 -0.95 L4.05 -2.7 4.05 -6.05 4.05 -8.6 4.05 -15.55 M14.4 -0.95 L14.4 -2.7 14.4 -8.55 14.4 -13.6 M-5.5 -48.25 L-5.5 -47.8 -5.5 -43.1 -5.5 -38.55 -5.5 -16.65 -5.5 -9.1 -5.5 -6.25 M-14.4 -24.4 L-14.4 -18.85 M-14.45 -47.8 L-13.85 -48.25 M-14.45 -47.8 L-14.4 -39.4 -14.4 -37.75 -14.4 -29.45 -14.4 -24.4 M-14.35 -14.05 L-14.4 -18.85 M-14.35 -9.1 L-14.35 -7.55 -14.35 -4.25 -14.35 -2.7 -14.35 -0.95 M-14.35 -9.1 L-14.35 -14.05 M-5.5 -0.95 L-5.5 -2.7 -5.5 -3.4 -5.5 -6.25" fill="none" stroke="#000000" stroke-linecap="round" stroke-linejoin="round" stroke-opacity="0.25882354" stroke-width="0.30000000000000004"/>
      <path d="M17.05 -49.25 Q16.05 -44.95 14.4 -42.6 M14.4 -13.6 Q15.05 -33.35 19.5 -49.2 M4.05 -37.15 Q7.4 -42.4 7.85 -50.8 M14.4 -38.85 Q10.95 -30.05 14.4 -26.25 M4.05 -15.55 Q9.0 -9.0 7.7 -2.7 L7.2 -0.95 M4.05 -8.6 Q2.25 -6.7 2.75 -2.7 L3.05 -0.95 M13.05 -0.95 L12.3 -2.7 Q4.9 -20.5 12.05 -50.8 M22.15 -49.2 Q23.6 -24.5 19.8 -2.7 L19.7 -2.3 M23.45 -2.05 L23.35 -2.7 Q22.5 -11.65 24.9 -16.6 M19.45 -1.0 L19.7 -2.3 M23.55 -1.0 L23.45 -2.05 M4.05 -23.8 Q-1.8 -31.05 -0.45 -49.2 M-5.5 -43.1 Q-2.15 -36.35 -1.5 -29.8 -1.5 -17.2 -5.5 -16.65 M-10.0 -47.8 Q-9.15 -29.85 -14.4 -24.4 M-14.4 -18.85 Q-10.6 -14.45 -10.0 -2.7 L-9.95 -0.95 M-14.4 -39.4 Q-12.0 -41.75 -12.25 -47.8 M-14.4 -37.75 Q-18.0 -41.45 -17.35 -49.3 M-6.0 -5.0 Q-9.6 -16.6 -9.1 -24.8 -8.7 -30.55 -5.5 -38.55 M-14.35 -14.05 Q-20.15 -22.1 -21.65 -33.0 M-19.95 -0.95 Q-17.8 -6.3 -14.35 -4.25 M-5.5 -3.4 L-6.0 -5.0 M-0.75 -0.95 L-0.9 -2.7 Q-1.7 -14.3 4.05 -20.7 M-14.35 -7.55 Q-17.8 -15.85 -21.65 -15.65 M-21.65 -44.9 Q-16.15 -38.05 -14.4 -29.45 M-17.5 -49.75 L-17.35 -49.3" fill="none" stroke="#000000" stroke-linecap="round" stroke-linejoin="round" stroke-opacity="0.14117648" stroke-width="0.30000000000000004"/>
      <path d="M22.1 -47.25 L22.1 -38.75 M16.45 -34.7 L16.45 -27.15 M17.5 -47.4 L17.5 -44.95 M19.45 -45.7 L19.45 -40.25 M10.95 -48.95 L10.95 -43.25 M6.15 -39.85 L6.15 -29.8 M11.3 -32.55 L11.3 -30.3 M0.75 -39.5 L0.75 -30.6 M9.15 -29.1 L9.15 -27.4 M17.75 -8.6 L17.75 -3.5 M12.05 -14.4 L12.05 -10.9 M7.7 -12.9 L7.7 -9.45 M17.95 -17.7 L17.95 -10.9 M11.2 -24.05 L11.2 -22.0 M7.45 -23.6 L7.45 -16.75 M2.55 -17.6 L2.55 -15.45 M23.4 -7.65 L23.4 -3.8 M20.25 -20.9 L20.25 -17.45 M22.65 -18.55 L22.65 -14.15 M21.6 -29.95 L21.6 -24.05 M-1.95 -46.75 L-1.95 -41.4 M-16.6 -44.8 L-16.6 -38.4 M-9.65 -39.5 L-9.65 -29.1 M-0.55 -30.1 L-0.55 -27.9 M-0.75 -12.45 L-0.75 -7.65 M-2.55 -4.75 L-2.55 -2.6 M-12.25 -22.6 L-12.25 -20.1 M-16.9 -14.85 L-16.9 -13.2 M-18.6 -10.4 L-18.6 -6.45 M-3.55 -14.85 L-3.55 -10.05 M-6.9 -29.1 L-6.9 -23.25 M-19.6 -27.4 L-19.6 -20.9" fill="none" stroke="#000000" stroke-linecap="round" stroke-linejoin="round" stroke-opacity="0.12156863" stroke-width="0.4"/>
      <path d="M12.85 -12.9 Q12.85 -13.25 13.3 -13.5 13.75 -13.7 13.75 -13.05 13.75 -12.45 13.3 -12.45 12.9 -12.45 12.85 -12.65 L12.85 -12.9 M0.75 -15.0 L0.75 -15.55 0.95 -15.55 1.15 -15.0 0.95 -14.9 0.75 -15.0 M5.4 -7.45 L5.5 -5.95 5.4 -5.95 5.15 -5.9 5.3 -6.6 Q5.3 -7.2 4.95 -7.4 L5.5 -9.6 5.6 -9.85 5.4 -7.45 M6.7 -7.4 L6.7 -6.95 6.5 -6.9 Q6.0 -6.9 6.0 -7.55 6.0 -8.0 6.3 -8.0 6.6 -8.0 6.7 -7.4 M0.25 -11.8 Q0.65 -8.85 1.2 -7.15 0.9 -6.9 0.9 -6.45 0.9 -5.6 1.8 -5.6 L1.85 -5.6 2.1 -5.15 2.05 -4.85 2.25 -4.35 Q2.5 -3.95 3.05 -3.95 4.0 -3.95 4.0 -4.8 L3.9 -5.3 4.1 -5.65 4.4 -5.6 4.65 -5.6 Q4.5 -5.4 4.5 -5.05 4.5 -4.2 5.35 -4.2 L5.95 -4.35 6.0 -4.0 Q6.2 -3.5 6.8 -3.5 7.25 -3.5 7.5 -3.85 L7.7 -4.45 7.7 -4.7 7.85 -5.1 8.4 -4.95 8.5 -4.95 8.55 -4.75 8.6 -4.65 Q7.75 -4.6 7.75 -3.8 7.75 -2.9 8.6 -2.9 L9.35 -3.3 9.7 -3.25 Q10.65 -3.25 10.65 -4.3 L10.5 -5.0 10.55 -5.05 Q10.7 -4.9 11.05 -4.9 11.95 -4.9 11.95 -5.95 L11.8 -6.65 11.85 -6.95 Q11.85 -7.65 11.35 -7.8 L11.5 -8.8 11.6 -8.8 Q12.5 -8.8 12.5 -9.7 12.4 -10.55 11.65 -10.55 L11.9 -16.5 Q12.1 -12.7 12.4 -10.75 12.65 -9.3 13.0 -8.2 12.55 -8.0 12.55 -7.4 L12.75 -6.9 Q13.05 -6.35 13.65 -6.35 L13.85 -6.35 14.1 -6.0 Q13.5 -5.85 13.5 -5.2 13.5 -4.3 14.4 -4.3 15.35 -4.3 15.35 -5.15 L15.35 -5.2 15.85 -5.15 Q16.5 -5.15 17.25 -6.4 L17.55 -6.35 Q18.05 -6.35 18.35 -6.8 L18.55 -7.4 Q18.5 -8.05 18.1 -8.2 L18.45 -9.6 Q18.4 -7.95 19.0 -6.15 L19.15 -5.8 Q18.7 -5.6 18.7 -4.95 L18.8 -4.5 Q19.0 -4.0 19.55 -4.0 L19.95 -4.05 Q20.2 -3.75 20.45 -3.75 21.2 -3.75 21.75 -5.05 L22.1 -5.45 22.3 -6.15 22.25 -6.55 22.65 -8.75 Q23.15 -8.95 23.15 -9.7 L22.85 -10.6 23.25 -17.15 Q23.0 -9.2 24.45 -3.75 24.85 -2.1 25.4 -0.95 L-21.65 -0.95 Q-21.25 -1.95 -20.85 -4.5 -20.35 -7.45 -20.3 -9.6 L-20.0 -6.4 -19.45 -6.05 -19.15 -6.05 -19.0 -6.65 Q-18.45 -3.75 -17.55 -3.75 -16.95 -3.75 -16.25 -4.8 L-15.95 -4.8 Q-15.1 -4.8 -15.1 -5.75 -15.1 -6.3 -15.45 -6.5 L-15.15 -7.2 Q-14.3 -7.2 -14.3 -8.1 -14.3 -8.65 -14.6 -8.85 -13.0 -14.0 -13.45 -18.05 L-13.45 -18.3 -11.65 -9.45 -11.75 -9.0 -11.6 -8.4 -11.65 -8.1 -11.5 -7.6 -11.15 -7.25 -11.3 -6.75 Q-11.3 -5.95 -10.55 -5.85 L-10.7 -5.3 Q-10.7 -4.45 -9.85 -4.45 L-9.4 -4.5 -8.9 -4.2 Q-8.7 -3.85 -8.15 -3.85 -7.5 -3.85 -7.3 -4.3 -6.9 -4.6 -6.6 -5.25 -6.05 -6.55 -5.95 -8.2 L-5.6 -4.5 Q-5.25 -3.1 -4.15 -3.1 -3.05 -3.1 -2.3 -4.35 -1.65 -4.45 -1.65 -5.2 L-1.7 -5.65 -1.35 -7.0 Q-0.95 -7.2 -0.95 -7.85 L-1.15 -8.45 Q-0.65 -12.35 -0.4 -21.2 -0.25 -16.0 0.25 -11.8 M2.3 -7.9 Q2.3 -7.45 1.95 -7.45 1.6 -7.45 1.6 -7.9 1.6 -8.45 1.95 -8.35 L2.3 -7.9 M17.2 -6.4 L17.05 -6.4 Q16.3 -6.4 16.3 -6.85 16.3 -7.5 16.8 -7.55 L16.75 -7.25 Q16.75 -6.6 17.2 -6.4 M6.75 -5.35 L6.35 -5.3 6.3 -5.65 6.5 -6.05 6.8 -5.4 6.75 -5.35 M18.85 -7.15 L18.85 -7.35 Q18.85 -7.6 19.2 -7.9 L19.45 -7.1 19.2 -7.0 Q18.9 -7.0 18.85 -7.15 M10.5 -10.65 L10.3 -10.7 10.25 -11.1 Q10.7 -11.15 10.7 -10.8 10.65 -10.65 10.5 -10.65 M13.9 -8.65 Q13.8 -8.65 13.65 -8.8 L13.65 -9.35 14.1 -9.25 14.1 -8.7 13.9 -8.65 M15.9 -5.7 Q15.95 -5.6 15.7 -5.6 15.3 -5.6 15.3 -6.25 L15.9 -6.15 15.9 -5.7 M22.4 -14.35 L22.4 -13.7 22.2 -13.6 21.95 -13.7 21.95 -14.35 22.2 -14.55 22.4 -14.35 M24.9 -9.3 L23.95 -8.5 23.8 -8.5 23.75 -8.7 24.15 -9.35 24.9 -9.3 M22.2 -7.25 L21.85 -7.4 21.8 -7.6 22.3 -8.25 22.5 -7.9 22.2 -7.25 M-20.7 -12.1 Q-20.7 -11.85 -21.0 -11.85 L-21.4 -11.95 -21.45 -12.3 -20.75 -12.45 -20.7 -12.1 M-11.95 -14.9 L-11.5 -14.8 -11.5 -14.25 -11.65 -14.2 Q-11.8 -14.2 -11.95 -14.35 L-11.95 -14.9 M-18.55 -7.55 L-18.95 -7.95 -18.9 -8.2 -18.55 -8.25 -18.35 -7.9 -18.55 -7.55 M-16.95 -6.55 L-17.15 -6.95 -16.7 -7.3 Q-16.25 -7.25 -16.25 -6.75 L-16.25 -6.65 Q-16.6 -6.6 -16.75 -6.3 L-16.95 -6.55 M-16.8 -5.0 Q-16.8 -4.65 -17.05 -4.65 -17.55 -4.65 -17.55 -5.05 L-17.15 -5.4 Q-16.8 -5.4 -16.8 -5.0 M-4.6 -7.0 Q-4.15 -7.05 -4.15 -6.4 L-4.2 -6.1 -4.6 -5.8 Q-5.05 -5.8 -5.05 -6.45 -5.05 -6.95 -4.6 -7.0 M-6.8 -8.05 L-7.1 -7.85 -7.35 -8.1 -7.0 -8.4 -6.8 -8.05" fill="#f3f3f3" fill-opacity="0.2" fill-rule="evenodd" stroke="none"/>
      <path d="M25.25 -49.45 L25.15 -49.45 20.2 -49.7 16.3 -50.0 Q14.85 -50.25 14.15 -51.2 L12.6 -51.45 10.95 -51.3 7.1 -51.75 Q4.75 -51.75 2.7 -50.65 0.65 -49.6 -0.2 -49.6 L-1.3 -49.85 -2.55 -50.1 -3.25 -50.0 Q-4.75 -50.0 -6.0 -48.85 -7.25 -47.75 -7.95 -47.75 -9.35 -47.75 -11.45 -48.7 L-14.2 -49.65 -19.55 -49.45 -21.3 -49.05 -21.8 -48.9 Q-22.15 -49.05 -22.05 -49.4 -22.05 -49.95 -20.95 -50.45 L-17.9 -51.0 -16.25 -51.55 -14.5 -51.95 -12.25 -51.55 Q-10.2 -50.8 -9.15 -49.2 L-8.2 -49.2 -7.05 -50.45 Q-6.15 -51.4 -5.25 -51.4 L-4.35 -51.3 -1.2 -51.6 1.65 -51.25 Q2.05 -51.35 3.3 -52.2 L4.8 -53.0 7.6 -53.1 Q10.4 -52.75 11.1 -52.1 L16.7 -51.85 21.1 -50.5 Q21.9 -50.9 23.9 -50.15 L25.25 -49.45 M-12.4 -49.35 L-12.3 -49.35 -12.4 -49.4 -12.4 -49.35" fill="#f3f7f8" fill-rule="evenodd" stroke="none"/>
      <path d="M-21.8 -48.9 L-21.3 -49.05 -19.55 -49.45 -14.2 -49.65 -11.45 -48.7 Q-9.35 -47.75 -7.95 -47.75 -7.25 -47.75 -6.0 -48.85 -4.75 -50.0 -3.25 -50.0 L-2.55 -50.1 -1.3 -49.85 -0.2 -49.6 Q0.65 -49.6 2.7 -50.65 4.75 -51.75 7.1 -51.75 L10.95 -51.3 12.6 -51.45 14.15 -51.2 Q14.85 -50.25 16.3 -50.0 L20.2 -49.7 25.15 -49.45 25.25 -49.45 Q25.55 -49.1 25.3 -48.8 L15.35 -49.25 Q14.3 -49.05 14.25 -50.65 L4.25 -50.65 Q4.25 -49.3 3.15 -49.05 L-5.15 -49.05 Q-5.1 -47.45 -6.55 -47.4 L-13.2 -47.4 Q-14.2 -47.7 -14.05 -48.7 L-21.0 -48.8 -21.8 -48.9" fill="#bbd1d7" fill-rule="evenodd" stroke="none"/>
      <path d="M4.6 -52.65 Q4.75 -52.4 4.5 -52.25 4.2 -52.05 4.1 -52.25 4.0 -52.5 4.25 -52.65 4.5 -52.85 4.6 -52.65 M2.5 -52.15 L2.95 -52.05 2.8 -51.55 Q2.55 -51.35 2.35 -51.65 2.15 -51.95 2.5 -52.15 M0.7 -51.5 Q0.55 -51.75 0.75 -51.85 L1.05 -51.8 1.05 -51.45 0.7 -51.5 M8.45 -52.6 Q8.05 -53.1 8.55 -53.45 9.0 -53.75 9.3 -53.25 9.6 -52.7 9.2 -52.4 8.8 -52.05 8.45 -52.6 M5.8 -52.9 Q5.5 -53.35 5.8 -53.65 6.1 -53.9 6.3 -53.45 6.55 -53.0 6.3 -52.7 6.05 -52.4 5.8 -52.9 M10.65 -51.9 Q10.4 -51.7 10.15 -52.05 9.95 -52.35 10.3 -52.6 10.65 -52.8 10.8 -52.45 10.95 -52.1 10.65 -51.9 M13.35 -52.25 L12.75 -52.3 Q12.6 -52.65 13.0 -52.95 L13.6 -52.9 Q13.8 -52.55 13.35 -52.25 M14.95 -52.85 Q15.3 -53.2 15.6 -52.6 15.85 -52.05 15.55 -51.7 15.25 -51.35 14.9 -51.95 14.6 -52.5 14.95 -52.85 M17.45 -52.0 Q17.85 -52.25 18.05 -51.85 18.3 -51.45 18.0 -51.2 17.7 -50.95 17.4 -51.35 17.1 -51.75 17.45 -52.0 M19.7 -50.4 Q19.45 -50.2 19.2 -50.55 19.0 -50.85 19.35 -51.1 19.7 -51.3 19.85 -50.95 20.0 -50.6 19.7 -50.4 M24.6 -50.25 Q24.9 -49.75 24.6 -49.4 24.3 -49.05 24.0 -49.6 23.7 -50.15 24.0 -50.45 24.35 -50.75 24.6 -50.25 M21.7 -50.35 Q21.55 -50.65 21.9 -50.85 22.2 -51.1 22.35 -50.85 22.5 -50.55 22.15 -50.3 L21.7 -50.35 M-20.7 -50.9 L-20.1 -50.85 Q-19.85 -50.45 -20.35 -50.1 L-20.95 -50.15 Q-21.15 -50.55 -20.7 -50.9 M-17.05 -51.5 Q-17.45 -52.05 -16.95 -52.4 -16.45 -52.75 -16.1 -52.2 -15.8 -51.65 -16.2 -51.3 -16.65 -50.95 -17.05 -51.5 M-18.3 -50.95 Q-18.55 -50.65 -18.8 -51.15 -19.1 -51.6 -18.8 -51.9 -18.5 -52.15 -18.3 -51.7 -18.05 -51.25 -18.3 -50.95 M-12.1 -50.6 Q-12.3 -51.1 -11.75 -51.55 L-10.95 -51.45 Q-10.65 -51.0 -11.25 -50.55 L-12.1 -50.6 M-14.35 -52.0 Q-14.6 -52.35 -14.2 -52.65 -13.75 -52.9 -13.6 -52.5 -13.4 -52.1 -13.75 -51.85 -14.1 -51.6 -14.35 -52.0 M-8.1 -49.7 L-8.05 -50.15 -7.65 -50.0 Q-7.45 -49.75 -7.7 -49.6 -7.9 -49.4 -8.1 -49.7 M-9.65 -49.9 Q-9.45 -49.55 -9.65 -49.3 -9.85 -49.1 -10.05 -49.45 -10.25 -49.8 -10.05 -50.0 -9.8 -50.25 -9.65 -49.9 M-6.35 -51.3 Q-6.55 -51.6 -6.25 -51.75 L-5.85 -51.7 Q-5.7 -51.4 -5.95 -51.25 L-6.35 -51.3 M-1.8 -51.25 Q-2.0 -51.65 -1.75 -51.85 -1.5 -52.1 -1.3 -51.7 -1.15 -51.35 -1.35 -51.1 -1.55 -50.85 -1.8 -51.25 M-4.7 -50.55 Q-4.9 -51.0 -4.4 -51.4 -3.9 -51.75 -3.65 -51.3 -3.4 -50.9 -3.95 -50.5 L-4.7 -50.55 M-22.7 -48.7 Q-22.95 -49.05 -22.55 -49.3 -22.15 -49.55 -22.0 -49.2 -21.85 -48.8 -22.15 -48.6 -22.5 -48.35 -22.7 -48.7" fill="#ffffff" fill-opacity="0.81960785" fill-rule="evenodd" stroke="none"/>
    </g>
    <linearGradient gradientTransform="matrix(-0.0027, 0.028, -0.0302, -0.0029, 9.15, -26.55)" gradientUnits="userSpaceOnUse" id="decoration13-gradient0" spreadMethod="pad" x1="-819.2" x2="819.2">
      <stop offset="0.023529411764705882" stop-color="#704f29"/>
      <stop offset="1.0" stop-color="#5d4120"/>
    </linearGradient>
    <linearGradient gradientTransform="matrix(0.001, 0.027, -0.0303, 0.0011, 9.05, -22.55)" gradientUnits="userSpaceOnUse" id="decoration13-gradient1" spreadMethod="pad" x1="-819.2" x2="819.2">
      <stop offset="0.03529411764705882" stop-color="#694720"/>
      <stop offset="0.9725490196078431" stop-color="#543818"/>
    </linearGradient>
    <linearGradient gradientTransform="matrix(0.0, 0.0229, -0.0217, 0.0, 25.2, -34.15)" gradientUnits="userSpaceOnUse" id="decoration13-gradient2" spreadMethod="pad" x1="-819.2" x2="819.2">
      <stop offset="0.0" stop-color="#7e5c36"/>
      <stop offset="1.0" stop-color="#5f421f"/>
    </linearGradient>
    <linearGradient gradientTransform="matrix(0.0, 0.0229, -0.0217, 0.0, 25.2, -34.15)" gradientUnits="userSpaceOnUse" id="decoration13-gradient3" spreadMethod="pad" x1="-819.2" x2="819.2">
      <stop offset="0.0" stop-color="#7e5c36"/>
      <stop offset="0.9686274509803922" stop-color="#644827"/>
    </linearGradient>
    <linearGradient gradientTransform="matrix(0.0035, 0.0249, -0.0292, 0.0041, 20.05, -29.25)" gradientUnits="userSpaceOnUse" id="decoration13-gradient4" spreadMethod="pad" x1="-819.2" x2="819.2">
      <stop offset="0.0" stop-color="#77552d"/>
      <stop offset="0.9686274509803922" stop-color="#5b4021"/>
    </linearGradient>
    <linearGradient gradientTransform="matrix(0.0, 0.0229, -0.0294, 0.0, -0.9, -37.25)" gradientUnits="userSpaceOnUse" id="decoration13-gradient5" spreadMethod="pad" x1="-819.2" x2="819.2">
      <stop offset="0.0" stop-color="#936a3b"/>
      <stop offset="1.0" stop-color="#72522e"/>
    </linearGradient>
    <linearGradient gradientTransform="matrix(0.0, 0.031, -0.0295, 0.0, -0.65, -37.45)" gradientUnits="userSpaceOnUse" id="decoration13-gradient6" spreadMethod="pad" x1="-819.2" x2="819.2">
      <stop offset="0.027450980392156862" stop-color="#8e6739"/>
      <stop offset="1.0" stop-color="#6b4c28"/>
    </linearGradient>
    <linearGradient gradientTransform="matrix(0.0, 0.0271, -0.0286, 0.0, -9.3, -29.1)" gradientUnits="userSpaceOnUse" id="decoration13-gradient7" spreadMethod="pad" x1="-819.2" x2="819.2">
      <stop offset="0.0" stop-color="#724f26"/>
      <stop offset="1.0" stop-color="#5d3f1e"/>
    </linearGradient>
    <linearGradient gradientTransform="matrix(0.0, 0.0221, -0.0143, 0.0, 0.2, -32.35)" gradientUnits="userSpaceOnUse" id="decoration13-gradient8" spreadMethod="pad" x1="-819.2" x2="819.2">
      <stop offset="0.0" stop-color="#79562d"/>
      <stop offset="1.0" stop-color="#664723"/>
    </linearGradient>
    <linearGradient gradientTransform="matrix(0.0, 0.028, -0.0155, 0.0, -22.85, -25.15)" gradientUnits="userSpaceOnUse" id="decoration13-gradient9" spreadMethod="pad" x1="-819.2" x2="819.2">
      <stop offset="0.03529411764705882" stop-color="#805e36"/>
      <stop offset="0.9725490196078431" stop-color="#70502b"/>
    </linearGradient>
    <linearGradient gradientTransform="matrix(-0.0029, 0.0251, -0.0187, -0.0022, -12.2, -34.5)" gradientUnits="userSpaceOnUse" id="decoration13-gradient10" spreadMethod="pad" x1="-819.2" x2="819.2">
      <stop offset="0.03529411764705882" stop-color="#8a6438"/>
      <stop offset="0.9725490196078431" stop-color="#745531"/>
    </linearGradient>
  </defs>
</svg>
