<?xml version="1.0" encoding="UTF-8" standalone="no"?>
<svg xmlns:ffdec="https://www.free-decompiler.com/flash" xmlns:xlink="http://www.w3.org/1999/xlink" ffdec:objectType="frame" height="28.0px" width="27.0px" xmlns="http://www.w3.org/2000/svg">
  <g transform="matrix(1.0, 0.0, 0.0, 1.0, 13.5, 13.95)">
    <use ffdec:characterId="445" height="23.85" id="decoration131-Couleur0_555D77" filter="url(#decoration131-filter0)" transform="matrix(1.1734, 0.0, 0.0, 1.1734, -13.5, -13.95)" width="23.0" xlink:href="#decoration131-sprite0"/>
  </g>
  <defs>
    <g id="decoration131-sprite0" transform="matrix(1.0, 0.0, 0.0, 1.0, 0.0, 0.0)">
      <use ffdec:characterId="444" height="23.85" transform="matrix(1.0, 0.0, 0.0, 1.0, 0.0, 0.0)" width="23.0" xlink:href="#decoration131-shape0"/>
    </g>
    <g id="decoration131-shape0" transform="matrix(1.0, 0.0, 0.0, 1.0, 0.0, 0.0)">
      <path d="M22.95 7.55 Q22.7 9.15 21.1 10.5 19.45 11.85 18.5 10.75 17.55 9.65 18.5 7.35 19.35 5.05 20.7 4.55 22.0 4.0 22.6 4.95 23.1 5.9 22.95 7.55 M13.95 1.15 Q15.05 2.6 15.05 4.05 L14.6 6.55 Q14.05 8.35 12.95 8.35 10.95 8.35 10.3 6.5 L10.15 4.55 Q9.75 2.6 10.75 1.25 11.6 0.1 12.8 0.0 L13.95 1.15 M3.1 4.6 Q5.4 3.6 7.2 7.75 L7.8 9.3 Q7.95 10.55 6.55 11.2 4.6 12.05 3.3 10.35 L2.4 8.35 Q1.7 7.2 1.95 6.05 2.2 5.05 3.1 4.6 M5.95 17.45 Q6.35 18.6 5.6 19.6 4.85 20.55 3.25 20.55 1.6 20.5 0.55 19.2 0.2 18.7 0.05 17.65 -0.1 16.4 0.55 16.0 L3.4 15.85 Q5.55 16.25 5.95 17.45 M8.0 19.3 Q8.65 13.75 11.15 12.95 13.5 12.1 15.3 12.9 17.15 13.65 18.0 14.6 L19.95 17.6 Q20.9 19.6 20.25 21.05 19.55 22.45 17.25 21.65 15.0 20.8 13.7 19.45 11.95 23.95 10.15 23.85 8.4 23.75 8.0 21.75 L8.0 19.3" fill="#808080" fill-rule="evenodd" stroke="none"/>
    </g>
  </defs>
</svg>
