<?xml version="1.0" encoding="UTF-8" standalone="no"?>
<svg xmlns:xlink="http://www.w3.org/1999/xlink" height="35.6px" width="52.0px" xmlns="http://www.w3.org/2000/svg">
  <g transform="matrix(1.0, 0.0, 0.0, 1.0, 26.1, 35.0)">
    <use height="35.6" transform="matrix(1.0, 0.0, 0.0, 1.0, -26.1, -35.0)" width="52.0" xlink:href="#decoration132-shape0"/>
  </g>
  <defs>
    <g id="decoration132-shape0" transform="matrix(1.0, 0.0, 0.0, 1.0, 26.1, 35.0)">
      <path d="M10.7 -2.7 Q14.9 -2.15 14.9 -1.4 14.9 -0.65 10.7 -0.2 L0.7 0.35 -9.4 -0.2 Q-13.5 -0.65 -13.5 -1.4 -13.5 -2.15 -9.4 -2.7 L0.7 -3.15 10.7 -2.7" fill="#000000" fill-opacity="0.3019608" fill-rule="evenodd" stroke="none"/>
      <path d="M-17.8 -27.25 Q-17.65 -25.35 -20.15 -24.3 -21.4 -23.8 -22.65 -23.6 -22.4 -22.5 -21.3 -22.65 -19.55 -22.9 -17.9 -24.0 L-16.55 -25.05 Q-16.15 -25.05 -16.0 -24.75 L-15.95 -24.45 Q-15.95 -23.9 -17.4 -22.65 -19.1 -21.1 -20.95 -21.15 -23.55 -21.2 -24.0 -22.6 -24.25 -23.3 -24.15 -24.1 L-24.8 -24.65 Q-25.7 -25.55 -25.7 -27.1 -25.7 -28.7 -24.2 -30.3 -22.75 -31.85 -22.75 -30.45 L-23.55 -29.2 Q-24.35 -27.85 -24.35 -27.2 L-24.15 -26.35 -23.85 -25.65 -22.65 -27.9 Q-21.3 -29.45 -19.7 -29.35 -18.55 -29.2 -18.2 -28.65 -17.85 -28.15 -17.8 -27.25 M-20.0 -27.45 Q-20.6 -27.6 -21.4 -26.7 -21.9 -26.25 -22.05 -24.95 -20.9 -25.25 -20.05 -25.95 -19.25 -26.7 -19.35 -27.0 L-20.0 -27.45" fill="#ecb8c2" fill-rule="evenodd" stroke="none"/>
      <path d="M-17.8 -27.25 Q-17.65 -25.35 -20.15 -24.3 -21.4 -23.8 -22.65 -23.6 -22.4 -22.5 -21.3 -22.65 -19.55 -22.9 -17.9 -24.0 L-16.55 -25.05 Q-16.15 -25.05 -16.0 -24.75 L-15.95 -24.45 Q-15.95 -23.9 -17.4 -22.65 -19.1 -21.1 -20.95 -21.15 -23.55 -21.2 -24.0 -22.6 -24.25 -23.3 -24.15 -24.1 L-24.8 -24.65 Q-25.7 -25.55 -25.7 -27.1 -25.7 -28.7 -24.2 -30.3 -22.75 -31.85 -22.75 -30.45 L-23.55 -29.2 Q-24.35 -27.85 -24.35 -27.2 L-24.15 -26.35 -23.85 -25.65 -22.65 -27.9 Q-21.3 -29.45 -19.7 -29.35 -18.55 -29.2 -18.2 -28.65 -17.85 -28.15 -17.8 -27.25 M-20.0 -27.45 Q-20.6 -27.6 -21.4 -26.7 -21.9 -26.25 -22.05 -24.95 -20.9 -25.25 -20.05 -25.95 -19.25 -26.7 -19.35 -27.0 L-20.0 -27.45" fill="none" stroke="#000000" stroke-linecap="round" stroke-linejoin="round" stroke-opacity="0.47843137" stroke-width="0.8"/>
      <path d="M13.9 -32.3 Q17.6 -34.9 20.35 -34.55 22.7 -32.1 20.7 -27.65 L19.7 -29.0 Q20.8 -31.4 19.55 -33.1 18.2 -32.9 16.85 -31.2 L13.9 -32.3" fill="#ecb8c2" fill-rule="evenodd" stroke="none"/>
      <path d="M13.9 -32.3 L16.85 -31.2 Q18.5 -30.4 19.7 -29.0 L20.7 -27.65 Q21.55 -26.2 22.05 -24.35 L23.3 -20.85 Q25.15 -20.0 25.5 -17.4 23.45 -12.6 19.75 -12.95 13.5 -9.2 5.25 -12.15 -0.05 -12.05 -4.25 -16.85 -4.3 -20.35 -2.8 -23.9 -5.3 -27.1 -4.8 -31.8 L-4.5 -33.7 Q-0.85 -34.6 3.85 -31.2 8.95 -33.55 13.9 -32.3 M-2.8 -32.1 Q-3.4 -28.15 -1.65 -25.95 -0.05 -28.5 1.7 -29.9 -1.0 -32.25 -2.8 -32.1" fill="url(#decoration132-gradient0)" fill-rule="evenodd" stroke="none"/>
      <path d="M16.85 -31.2 Q18.2 -32.9 19.55 -33.1 20.8 -31.4 19.7 -29.0 18.5 -30.4 16.85 -31.2 M-2.8 -32.1 Q-1.0 -32.25 1.7 -29.9 -0.05 -28.5 -1.65 -25.95 -3.4 -28.15 -2.8 -32.1" fill="#705745" fill-rule="evenodd" stroke="none"/>
      <path d="M25.5 -17.4 L25.5 -15.35 Q25.15 -10.9 19.0 -10.5 L17.7 -9.7 Q16.75 -3.05 13.5 -0.65 10.1 0.2 7.0 -4.85 6.25 -0.7 3.45 0.05 0.65 1.0 -3.7 -4.6 L-4.35 -5.8 -5.65 -6.15 Q-7.75 -0.7 -10.85 -0.65 L-11.55 -0.85 Q-7.05 -4.1 -10.4 -8.0 L-12.45 -9.4 Q-14.9 -11.7 -16.5 -14.8 -12.95 -10.85 -6.3 -9.4 L-5.3 -7.6 Q-1.65 -2.5 2.15 -1.2 5.35 -3.05 4.35 -9.2 L5.95 -9.3 7.35 -8.8 Q7.35 -6.5 7.0 -4.85 7.35 -6.5 7.35 -8.8 L5.95 -9.3 4.35 -9.2 Q1.8 -9.35 -0.85 -11.25 -3.35 -13.4 -4.25 -16.85 -0.05 -12.05 5.25 -12.15 13.5 -9.2 19.75 -12.95 23.45 -12.6 25.5 -17.4 M7.35 -8.8 Q11.3 -7.5 15.1 -8.65 16.45 -9.05 17.7 -9.7 16.45 -9.05 15.1 -8.65 13.0 -5.8 7.0 -4.85 13.0 -5.8 15.1 -8.65 11.3 -7.5 7.35 -8.8 M-4.35 -5.8 L-5.3 -7.6 -4.35 -5.8 M-5.65 -6.15 Q-8.4 -6.95 -10.4 -8.0 -8.4 -6.95 -5.65 -6.15" fill="#a8707b" fill-rule="evenodd" stroke="none"/>
      <path d="M-11.55 -0.85 Q-14.9 -2.2 -17.7 -10.35 -21.2 -18.45 -16.3 -25.85 -11.95 -31.8 -4.8 -31.8 -5.3 -27.1 -2.8 -23.9 -4.3 -20.35 -4.25 -16.85 -3.35 -13.4 -0.85 -11.25 1.8 -9.35 4.35 -9.2 5.35 -3.05 2.15 -1.2 -1.65 -2.5 -5.3 -7.6 L-6.3 -9.4 Q-12.95 -10.85 -16.5 -14.8 -14.9 -11.7 -12.45 -9.4 L-10.4 -8.0 Q-7.05 -4.1 -11.55 -0.85" fill="url(#decoration132-gradient1)" fill-rule="evenodd" stroke="none"/>
      <path d="M20.7 -27.65 Q22.7 -32.1 20.35 -34.55 17.6 -34.9 13.9 -32.3 M20.7 -27.65 Q21.55 -26.2 22.05 -24.35 L23.3 -20.85 Q25.15 -20.0 25.5 -17.4 L25.5 -15.35 Q25.15 -10.9 19.0 -10.5 L17.7 -9.7 Q16.75 -3.05 13.5 -0.65 10.1 0.2 7.0 -4.85 6.25 -0.7 3.45 0.05 0.65 1.0 -3.7 -4.6 L-4.35 -5.8 -5.65 -6.15 Q-7.75 -0.7 -10.85 -0.65 L-11.55 -0.85 Q-14.9 -2.2 -17.7 -10.35 -21.2 -18.45 -16.3 -25.85 -11.95 -31.8 -4.8 -31.8 L-4.5 -33.7 Q-0.85 -34.6 3.85 -31.2 8.95 -33.55 13.9 -32.3" fill="none" stroke="#000000" stroke-linecap="round" stroke-linejoin="round" stroke-opacity="0.47843137" stroke-width="0.8"/>
      <path d="M13.9 -32.3 L16.85 -31.2 Q18.2 -32.9 19.55 -33.1 20.8 -31.4 19.7 -29.0 L20.7 -27.65 M16.85 -31.2 Q18.5 -30.4 19.7 -29.0 M7.0 -4.85 Q7.35 -6.5 7.35 -8.8 L5.95 -9.3 4.35 -9.2 M-5.3 -7.6 L-4.35 -5.8 M17.7 -9.7 Q16.45 -9.05 15.1 -8.65 13.0 -5.8 7.0 -4.85 M15.1 -8.65 Q11.3 -7.5 7.35 -8.8 M-2.8 -32.1 Q-1.0 -32.25 1.7 -29.9 -0.05 -28.5 -1.65 -25.95 -3.4 -28.15 -2.8 -32.1 M-0.85 -11.25 Q1.8 -9.35 4.35 -9.2 M-12.45 -9.4 L-10.4 -8.0 Q-8.4 -6.95 -5.65 -6.15 M-5.3 -7.6 L-6.3 -9.4 M-4.8 -31.8 Q-5.3 -27.1 -2.8 -23.9" fill="none" stroke="#000000" stroke-linecap="round" stroke-linejoin="round" stroke-opacity="0.4" stroke-width="0.30000000000000004"/>
      <path d="M3.75 -17.8 Q4.55 -17.3 4.55 -16.6 4.55 -16.05 3.75 -15.65 L2.2 -15.35 1.8 -15.35 Q0.65 -15.45 -0.15 -16.0 -0.95 -16.55 -0.95 -17.1 -0.95 -17.8 -0.15 -18.15 L1.3 -18.45 1.8 -18.45 3.75 -17.8 M24.65 -19.2 L24.1 -18.2 22.85 -17.4 21.65 -17.45 Q21.1 -17.75 21.1 -18.2 21.1 -18.75 21.65 -19.25 22.15 -19.8 22.85 -20.0 L23.25 -20.1 24.1 -20.0 Q24.6 -19.8 24.65 -19.2" fill="#ffe5f3" fill-rule="evenodd" stroke="none"/>
      <path d="M8.55 -19.1 Q7.45 -18.0 5.85 -18.0 4.3 -18.0 3.2 -19.1 2.05 -20.2 2.05 -21.8 2.05 -23.35 3.2 -24.5 4.3 -25.6 5.85 -25.6 7.45 -25.6 8.55 -24.5 9.7 -23.35 9.7 -21.8 9.7 -20.2 8.55 -19.1" fill="#000000" fill-rule="evenodd" stroke="none"/>
      <path d="M8.55 -19.1 Q7.45 -18.0 5.85 -18.0 4.3 -18.0 3.2 -19.1 2.05 -20.2 2.05 -21.8 2.05 -23.35 3.2 -24.5 4.3 -25.6 5.85 -25.6 7.45 -25.6 8.55 -24.5 9.7 -23.35 9.7 -21.8 9.7 -20.2 8.55 -19.1 Z" fill="none" stroke="#000000" stroke-linecap="round" stroke-linejoin="round" stroke-opacity="0.4" stroke-width="0.30000000000000004"/>
      <path d="M3.2 -23.1 Q3.25 -23.65 3.7 -24.2 4.25 -24.8 5.05 -24.8 5.75 -24.8 5.9 -24.45 L5.85 -23.9 Q5.45 -21.4 4.2 -21.4 3.15 -21.4 3.2 -23.1" fill="#ffffff" fill-rule="evenodd" stroke="none"/>
      <path d="M13.85 -13.8 L12.75 -13.7 Q12.1 -13.85 11.55 -14.3 10.25 -15.4 10.55 -17.4 13.2 -22.5 17.65 -19.85 21.05 -17.4 20.15 -15.3 19.35 -13.4 17.1 -15.0 L15.55 -14.7 13.85 -13.8 M17.75 -16.2 Q18.65 -16.2 18.65 -17.2 18.65 -17.9 17.5 -18.45 16.3 -18.9 16.3 -18.1 16.35 -17.55 16.55 -17.1 16.95 -16.2 17.75 -16.2 M12.5 -16.05 Q12.55 -15.6 13.15 -15.6 13.8 -15.6 14.25 -16.6 L14.6 -17.75 Q14.75 -18.6 13.85 -18.6 13.15 -18.6 12.75 -17.65 L12.5 -16.55 12.5 -16.05" fill="#c2828e" fill-rule="evenodd" stroke="none"/>
      <path d="M12.5 -16.05 L12.5 -16.55 12.75 -17.65 Q13.15 -18.6 13.85 -18.6 14.75 -18.6 14.6 -17.75 L14.25 -16.6 Q13.8 -15.6 13.15 -15.6 12.55 -15.6 12.5 -16.05 M17.75 -16.2 Q16.95 -16.2 16.55 -17.1 16.35 -17.55 16.3 -18.1 16.3 -18.9 17.5 -18.45 18.65 -17.9 18.65 -17.2 18.65 -16.2 17.75 -16.2" fill="#5b2b34" fill-rule="evenodd" stroke="none"/>
      <path d="M13.85 -13.8 L15.55 -14.7 17.1 -15.0 Q19.35 -13.4 20.15 -15.3 21.05 -17.4 17.65 -19.85 13.2 -22.5 10.55 -17.4 10.25 -15.4 11.55 -14.3 12.1 -13.85 12.75 -13.7 L13.85 -13.8 Z" fill="none" stroke="#000000" stroke-linecap="round" stroke-linejoin="round" stroke-opacity="0.4" stroke-width="0.30000000000000004"/>
      <path d="M18.15 -25.1 Q18.85 -26.0 19.9 -26.0 21.0 -26.0 21.75 -25.1 22.5 -24.2 22.5 -22.9 22.5 -21.6 21.75 -20.65 21.0 -19.8 19.9 -19.8 18.85 -19.8 18.15 -20.65 17.35 -21.6 17.35 -22.9 17.35 -24.2 18.15 -25.1" fill="#000000" fill-rule="evenodd" stroke="none"/>
      <path d="M18.15 -25.1 Q18.85 -26.0 19.9 -26.0 21.0 -26.0 21.75 -25.1 22.5 -24.2 22.5 -22.9 22.5 -21.6 21.75 -20.65 21.0 -19.8 19.9 -19.8 18.85 -19.8 18.15 -20.65 17.35 -21.6 17.35 -22.9 17.35 -24.2 18.15 -25.1 Z" fill="none" stroke="#000000" stroke-linecap="round" stroke-linejoin="round" stroke-opacity="0.4" stroke-width="0.30000000000000004"/>
      <path d="M18.35 -25.15 Q18.65 -25.7 19.25 -25.7 L19.9 -25.5 20.0 -24.1 Q20.0 -22.9 19.05 -22.85 18.1 -22.8 18.1 -24.25 L18.35 -25.15" fill="#ffffff" fill-rule="evenodd" stroke="none"/>
      <path d="M10.55 -32.2 L12.35 -30.75 M13.45 -28.45 L13.65 -27.25 13.95 -26.1 M14.5 -22.8 L14.35 -21.7 M15.75 -12.65 L15.75 -11.25 Q15.7 -10.4 15.45 -10.15 M0.9 -3.15 L1.65 -2.3 M15.85 -7.65 L15.45 -5.8 M14.1 -3.0 L13.15 -1.75 M-13.45 -27.5 L-14.9 -26.9 M-8.35 -28.15 L-8.75 -28.15 -9.3 -28.05 -9.95 -27.95 M-5.3 -27.75 L-6.65 -27.95 M-6.1 -13.5 L-5.45 -15.05 M-4.55 -18.15 L-4.2 -16.25 -4.5 -16.05 M-3.6 -22.7 L-4.05 -21.9 -4.35 -21.25 M-17.8 -15.9 L-17.95 -17.15 M-16.55 -12.2 L-16.8 -12.7 -16.9 -13.3 M-13.1 -5.4 L-13.4 -5.8 -13.85 -6.3 M-15.15 -9.25 L-15.5 -9.9 M-11.7 -2.2 Q-12.1 -2.4 -12.5 -3.4 M-6.35 -10.05 Q-6.55 -10.2 -6.55 -11.15 M-1.55 -7.9 L-0.5 -5.65 M-3.75 -13.9 L-3.05 -11.6" fill="none" stroke="#000000" stroke-linecap="round" stroke-linejoin="round" stroke-opacity="0.4" stroke-width="0.30000000000000004"/>
    </g>
    <radialGradient cx="0" cy="0" gradientTransform="matrix(0.0228, 0.0, 0.0, 0.0228, 16.25, -32.7)" gradientUnits="userSpaceOnUse" id="decoration132-gradient0" r="819.2" spreadMethod="pad">
      <stop offset="0.0" stop-color="#ffd9e0"/>
      <stop offset="1.0" stop-color="#ecb8c2"/>
    </radialGradient>
    <radialGradient cx="0" cy="0" gradientTransform="matrix(0.0221, 0.0, 0.0, 0.0221, -6.7, -32.75)" gradientUnits="userSpaceOnUse" id="decoration132-gradient1" r="819.2" spreadMethod="pad">
      <stop offset="0.0" stop-color="#ffd9e0"/>
      <stop offset="1.0" stop-color="#ecb8c2"/>
    </radialGradient>
  </defs>
</svg>
