<?xml version="1.0" encoding="UTF-8" standalone="no"?>
<svg xmlns:xlink="http://www.w3.org/1999/xlink" height="400.75px" width="800.0px" xmlns="http://www.w3.org/2000/svg">
  <g transform="matrix(1.0, 0.0, 0.0, 1.0, 0.0, 0.6)">
    <use data-characterId="340" height="400.0" transform="matrix(1.0, 0.0, 0.0, 1.0, 0.0, 0.0)" width="800.0" xlink:href="#decoration133-shape0"/>
    <use data-characterId="320" height="116.85" transform="matrix(1.2755, 0.0, 0.0, 2.1729, 28.7664, 42.7414)" width="220.6" xlink:href="#decoration133-sprite0"/>
    <use data-characterId="341" height="400.75" transform="matrix(1.0, 0.0, 0.0, 1.0, 0.35, -0.6)" width="799.3" xlink:href="#decoration133-shape2"/>
  </g>
  <defs>
    <g id="decoration133-shape0" transform="matrix(1.0, 0.0, 0.0, 1.0, 0.0, 0.0)">
      <path d="M800.0 400.0 L0.0 400.0 0.0 0.0 800.0 0.0 800.0 400.0" fill="url(#decoration133-gradient0)" fill-rule="evenodd" stroke="none"/>
      <path d="M202.0 69.0 Q199.2 69.0 198.4 70.65 198.15 71.15 198.15 72.65 L199.65 76.6 Q202.3 80.4 208.15 80.4 211.15 80.4 211.95 79.3 212.3 78.75 212.3 76.65 212.05 74.65 210.6 72.7 207.75 69.0 202.0 69.0 M166.3 96.2 L163.95 96.2 166.3 96.2 M223.65 71.05 Q224.15 73.7 224.15 76.8 224.15 82.1 222.2 86.55 220.85 89.5 218.0 93.3 218.35 93.0 218.85 92.9 L221.4 92.8 Q227.5 92.8 232.8 103.3 237.25 112.1 237.8 121.5 L235.15 120.0 Q233.8 119.35 231.35 118.45 L229.3 117.7 Q218.7 121.0 218.75 139.05 221.9 151.65 230.5 151.75 239.05 151.8 242.25 144.7 244.9 139.0 244.9 131.85 244.9 128.9 243.2 126.4 L244.05 125.9 Q250.3 122.95 256.9 122.95 L260.4 123.35 Q263.4 135.05 263.4 148.0 263.4 186.85 235.95 214.35 223.4 226.9 208.6 233.7 203.5 230.65 200.9 225.4 199.5 226.85 198.15 227.1 L194.9 227.2 Q191.1 227.2 184.45 223.1 176.65 218.3 176.65 213.2 176.65 206.35 179.95 199.4 L184.35 191.5 183.95 191.5 Q182.0 194.0 173.35 197.6 165.4 200.85 157.85 201.7 L154.3 198.9 Q139.0 187.65 116.65 184.35 L115.35 184.65 Q110.0 176.7 108.9 166.35 108.9 166.8 108.5 166.8 103.7 174.65 100.7 177.6 95.8 182.4 89.7 182.4 L81.6 181.7 Q75.7 166.05 75.7 148.0 75.7 109.1 103.2 81.6 130.7 54.15 169.55 54.15 200.05 54.15 223.65 71.05 M225.45 113.65 L229.3 117.7 225.45 113.65 M216.4 146.1 Q216.9 145.45 217.9 145.2 216.9 145.45 216.4 146.1 M214.9 139.85 L217.1 139.4 218.75 139.05 217.1 139.4 214.9 139.85 M189.1 174.45 L189.15 176.4 Q190.05 178.35 193.55 178.35 198.55 178.35 198.55 174.25 198.55 170.25 193.85 169.6 189.1 168.95 189.1 174.45 M218.5 180.75 L205.85 191.1 Q199.7 196.4 197.05 200.85 194.9 204.5 194.9 208.2 194.9 215.15 197.65 217.65 200.55 220.3 209.1 220.3 223.65 220.3 233.4 204.35 241.1 191.75 241.1 181.25 241.1 176.75 236.05 174.65 232.65 173.25 228.5 173.25 228.0 173.25 218.5 180.75 M234.9 157.5 Q234.65 156.2 235.3 154.1 L235.95 151.75 236.4 151.75 235.95 151.75 235.3 154.1 Q234.65 156.2 234.9 157.5 M128.55 74.0 Q128.55 71.4 123.7 73.95 119.1 76.3 113.1 81.65 97.55 95.45 97.55 104.8 97.55 108.1 98.05 108.85 98.75 109.75 102.05 109.75 107.65 109.75 111.15 102.4 113.1 98.5 115.15 92.2 117.0 88.85 123.1 81.15 L128.55 74.0 M127.85 86.05 Q120.65 91.4 118.15 97.35 115.65 103.25 115.65 107.25 L115.65 107.9 Q115.85 116.65 121.9 119.05 124.2 119.95 127.25 119.95 137.5 119.95 145.3 114.25 148.1 112.2 150.6 109.35 158.7 100.15 158.7 89.75 158.7 85.1 155.2 82.55 L154.05 81.8 Q150.75 80.0 145.6 80.0 142.45 80.0 137.85 81.25 131.65 82.95 127.85 86.05 M145.7 114.9 L145.3 114.25 145.7 114.9 M161.85 81.4 L154.05 81.8 161.85 81.4 M127.4 130.45 Q128.25 128.6 128.25 123.95 128.25 128.6 127.4 130.45 M121.7 120.95 L121.9 119.05 121.7 120.95 M144.1 135.7 Q142.6 138.0 142.6 138.9 L142.6 139.35 Q142.8 143.15 147.2 144.7 149.9 145.75 153.9 145.75 156.15 145.75 157.3 143.8 158.2 142.05 158.2 139.2 L157.95 137.05 Q156.5 132.7 148.6 132.7 146.1 132.7 144.1 135.7 M114.3 110.2 L115.65 107.9 114.3 110.2 M139.75 141.8 Q141.6 139.9 142.6 139.35 141.6 139.9 139.75 141.8 M159.2 137.35 L157.95 137.05 159.2 137.35 M147.9 148.3 L148.25 145.85 147.9 148.3 M93.35 125.95 Q90.15 126.3 87.7 130.6 85.15 135.25 85.15 141.55 L86.15 148.3 Q88.55 155.4 95.25 155.4 101.6 155.4 101.6 146.25 101.6 135.55 99.05 130.2 96.8 125.5 93.35 125.95 M148.45 185.65 Q148.05 185.7 147.25 186.7 148.05 185.7 148.45 185.65 M143.8 188.85 L142.95 190.1 142.25 191.1 142.95 190.1 143.8 188.85 M163.3 109.55 L157.05 106.95 163.3 109.55" fill="url(#decoration133-gradient1)" fill-rule="evenodd" stroke="none"/>
      <path d="M202.0 69.0 Q207.75 69.0 210.6 72.7 212.05 74.65 212.3 76.65 212.3 78.75 211.95 79.3 211.15 80.4 208.15 80.4 202.3 80.4 199.65 76.6 L198.15 72.65 Q198.15 71.15 198.4 70.65 199.2 69.0 202.0 69.0" fill="#d0d8e0" fill-rule="evenodd" stroke="none"/>
      <path d="M237.8 121.5 Q237.25 112.1 232.8 103.3 227.5 92.8 221.4 92.8 L218.85 92.9 Q218.35 93.0 218.0 93.3 220.85 89.5 222.2 86.55 224.15 82.1 224.15 76.8 224.15 73.7 223.65 71.05 230.1 75.7 235.95 81.6 254.25 99.95 260.4 123.35 L256.9 122.95 Q250.3 122.95 244.05 125.9 L243.2 126.4 Q241.4 123.75 237.8 121.5" fill="#9da6af" fill-rule="evenodd" stroke="none"/>
      <path d="M237.8 121.5 Q241.4 123.75 243.2 126.4 244.9 128.9 244.9 131.85 244.9 139.0 242.25 144.7 239.05 151.8 230.5 151.75 221.9 151.65 218.75 139.05 218.7 121.0 229.3 117.7 L231.35 118.45 Q233.8 119.35 235.15 120.0 L237.8 121.5" fill="url(#decoration133-gradient2)" fill-rule="evenodd" stroke="none"/>
      <path d="M189.1 174.45 Q189.1 168.95 193.85 169.6 198.55 170.25 198.55 174.25 198.55 178.35 193.55 178.35 190.05 178.35 189.15 176.4 L189.1 174.45" fill="#97a1aa" fill-rule="evenodd" stroke="none"/>
      <path d="M81.6 181.7 L89.7 182.4 Q95.8 182.4 100.7 177.6 103.7 174.65 108.5 166.8 108.9 166.8 108.9 166.35 110.0 176.7 115.35 184.65 114.2 184.9 112.5 185.8 L111.0 186.5 110.7 190.95 Q111.2 196.15 115.45 200.25 126.7 211.15 134.95 213.65 150.85 218.6 160.45 217.3 165.25 216.75 166.9 215.1 L164.65 210.45 Q161.65 205.1 157.85 201.7 165.4 200.85 173.35 197.6 182.0 194.0 183.95 191.5 L184.35 191.5 179.95 199.4 Q176.65 206.35 176.65 213.2 176.65 218.3 184.45 223.1 191.1 227.2 194.9 227.2 L198.15 227.1 Q199.5 226.85 200.9 225.4 203.5 230.65 208.6 233.7 190.75 241.9 169.55 241.9 130.7 241.9 103.2 214.35 88.5 199.7 81.6 181.7" fill="#a2adb8" fill-rule="evenodd" stroke="none"/>
      <path d="M218.5 180.75 Q228.0 173.25 228.5 173.25 232.65 173.25 236.05 174.65 241.1 176.75 241.1 181.25 241.1 191.75 233.4 204.35 223.65 220.3 209.1 220.3 200.55 220.3 197.65 217.65 194.9 215.15 194.9 208.2 194.9 204.5 197.05 200.85 199.7 196.4 205.85 191.1 L218.5 180.75" fill="#8c9298" fill-rule="evenodd" stroke="none"/>
      <path d="M128.55 74.0 L123.1 81.15 Q117.0 88.85 115.15 92.2 113.1 98.5 111.15 102.4 107.65 109.75 102.05 109.75 98.75 109.75 98.05 108.85 97.55 108.1 97.55 104.8 97.55 95.45 113.1 81.65 119.1 76.3 123.7 73.95 128.55 71.4 128.55 74.0" fill="#cbd3db" fill-rule="evenodd" stroke="none"/>
      <path d="M127.85 86.05 Q131.65 82.95 137.85 81.25 142.45 80.0 145.6 80.0 150.75 80.0 154.05 81.8 L155.2 82.55 Q158.7 85.1 158.7 89.75 158.7 100.15 150.6 109.35 148.1 112.2 145.3 114.25 137.5 119.95 127.25 119.95 124.2 119.95 121.9 119.05 115.85 116.65 115.65 107.9 L115.65 107.25 Q115.65 103.25 118.15 97.35 120.65 91.4 127.85 86.05 M134.95 96.2 Q131.0 95.7 127.6 91.5 131.0 95.7 134.95 96.2 M131.5 114.05 L128.85 115.0 126.75 115.65 128.85 115.0 131.5 114.05" fill="url(#decoration133-gradient3)" fill-rule="evenodd" stroke="none"/>
      <path d="M144.1 135.7 Q146.1 132.7 148.6 132.7 156.5 132.7 157.95 137.05 L158.2 139.2 Q158.2 142.05 157.3 143.8 156.15 145.75 153.9 145.75 149.9 145.75 147.2 144.7 142.8 143.15 142.6 139.35 L142.6 138.9 Q142.6 138.0 144.1 135.7" fill="#8d969f" fill-rule="evenodd" stroke="none"/>
      <path d="M93.35 125.95 Q96.8 125.5 99.05 130.2 101.6 135.55 101.6 146.25 101.6 155.4 95.25 155.4 88.55 155.4 86.15 148.3 L85.15 141.55 Q85.15 135.25 87.7 130.6 90.15 126.3 93.35 125.95" fill="#959ba1" fill-rule="evenodd" stroke="none"/>
      <path d="M115.35 184.65 L116.65 184.35 Q139.0 187.65 154.3 198.9 L157.85 201.7 Q161.65 205.1 164.65 210.45 L166.9 215.1 Q165.25 216.75 160.45 217.3 150.85 218.6 134.95 213.65 126.7 211.15 115.45 200.25 111.2 196.15 110.7 190.95 L111.0 186.5 112.5 185.8 Q114.2 184.9 115.35 184.65" fill="url(#decoration133-gradient4)" fill-rule="evenodd" stroke="none"/>
      <path d="M163.95 96.2 L166.3 96.2 M237.8 121.5 Q241.4 123.75 243.2 126.4 244.9 128.9 244.9 131.85 244.9 139.0 242.25 144.7 239.05 151.8 230.5 151.75 221.9 151.65 218.75 139.05 L217.1 139.4 214.9 139.85 M260.4 123.35 Q254.25 99.95 235.95 81.6 230.1 75.7 223.65 71.05 200.05 54.15 169.55 54.15 130.7 54.15 103.2 81.6 75.7 109.1 75.7 148.0 75.7 166.05 81.6 181.7 88.5 199.7 103.2 214.35 130.7 241.9 169.55 241.9 190.75 241.9 208.6 233.7 223.4 226.9 235.95 214.35 263.4 186.85 263.4 148.0 263.4 135.05 260.4 123.35 M115.35 184.65 L116.65 184.35 Q139.0 187.65 154.3 198.9 L157.85 201.7 Q161.65 205.1 164.65 210.45 L166.9 215.1 Q165.25 216.75 160.45 217.3 150.85 218.6 134.95 213.65 126.7 211.15 115.45 200.25 111.2 196.15 110.7 190.95 L111.0 186.5 112.5 185.8 Q114.2 184.9 115.35 184.65 M229.3 117.7 L225.45 113.65 M237.8 121.5 L235.15 120.0 Q233.8 119.35 231.35 118.45 L229.3 117.7 Q218.7 121.0 218.75 139.05 M217.9 145.2 Q216.9 145.45 216.4 146.1 M236.4 151.75 L235.95 151.75 235.3 154.1 Q234.65 156.2 234.9 157.5 M127.85 86.05 Q120.65 91.4 118.15 97.35 115.65 103.25 115.65 107.25 L115.65 107.9 Q115.85 116.65 121.9 119.05 124.2 119.95 127.25 119.95 137.5 119.95 145.3 114.25 148.1 112.2 150.6 109.35 158.7 100.15 158.7 89.75 158.7 85.1 155.2 82.55 L154.05 81.8 Q150.75 80.0 145.6 80.0 142.45 80.0 137.85 81.25 131.65 82.95 127.85 86.05 M127.6 91.5 Q131.0 95.7 134.95 96.2 M154.05 81.8 L161.85 81.4 M145.3 114.25 L145.7 114.9 M126.75 115.65 L128.85 115.0 131.5 114.05 M121.9 119.05 L121.7 120.95 M128.25 123.95 Q128.25 128.6 127.4 130.45 M144.1 135.7 Q142.6 138.0 142.6 138.9 L142.6 139.35 Q142.8 143.15 147.2 144.7 149.9 145.75 153.9 145.75 156.15 145.75 157.3 143.8 158.2 142.05 158.2 139.2 L157.95 137.05 Q156.5 132.7 148.6 132.7 146.1 132.7 144.1 135.7 M148.25 145.85 L147.9 148.3 M157.95 137.05 L159.2 137.35 M142.6 139.35 Q141.6 139.9 139.75 141.8 M115.65 107.9 L114.3 110.2 M142.25 191.1 L142.95 190.1 143.8 188.85 M147.25 186.7 Q148.05 185.7 148.45 185.65 M157.05 106.95 L163.3 109.55" fill="none" stroke="#000000" stroke-linecap="round" stroke-linejoin="round" stroke-opacity="0.14901961" stroke-width="0.4"/>
      <path d="M800.0 400.0 L0.0 400.0 0.0 0.0 800.0 0.0 800.0 400.0" fill="url(#decoration133-gradient5)" fill-rule="evenodd" stroke="none"/>
      <path d="M322.25 150.45 Q322.25 212.75 276.9 256.8 231.55 300.9 167.45 300.9 103.35 300.9 58.0 256.8 12.65 212.75 12.65 150.45 12.65 88.15 58.0 44.05 103.35 0.0 167.45 0.0 231.55 0.0 276.9 44.05 322.25 88.15 322.25 150.45" fill="url(#decoration133-gradient6)" fill-rule="evenodd" stroke="none"/>
      <path d="M709.1 115.95 Q709.9 115.9 713.5 119.95 717.05 123.95 734.25 138.65 751.4 153.15 764.6 154.5 777.75 155.75 785.5 160.05 783.9 161.15 780.6 161.55 L754.0 162.65 Q730.75 163.3 712.0 165.55 L670.75 165.15 641.9 166.5 623.0 167.9 597.0 167.75 588.0 168.05 Q587.8 168.15 588.05 168.3 588.3 168.5 587.9 168.55 585.0 169.3 535.0 169.65 L490.25 169.3 481.0 169.55 462.35 168.5 443.5 169.25 436.2 168.5 Q425.9 170.25 415.0 170.05 L410.95 169.65 398.0 171.0 373.0 170.55 370.2 169.3 Q369.25 168.8 365.6 168.5 L355.15 167.55 305.0 164.65 398.25 166.05 411.0 165.4 412.15 165.55 416.15 164.65 Q425.2 162.55 434.0 161.4 450.15 159.05 456.25 161.05 457.55 160.05 459.05 159.15 465.35 155.65 472.2 155.9 L472.75 155.3 474.6 155.05 Q478.65 154.15 480.25 152.55 482.15 150.4 483.5 149.8 486.85 148.55 496.0 148.15 500.2 143.95 508.3 139.4 521.85 131.9 534.5 132.05 542.75 132.15 548.65 135.15 550.15 135.9 552.45 137.15 554.4 138.05 556.0 138.15 556.55 138.15 560.9 135.4 566.4 132.45 572.5 132.65 L577.7 133.4 582.85 134.2 Q583.95 134.3 588.15 131.15 593.95 126.9 598.85 124.3 617.6 114.4 645.0 114.8 657.35 114.95 661.3 116.7 L663.2 117.9 Q663.95 118.4 665.0 118.4 666.65 118.45 674.3 115.2 682.65 111.7 686.0 111.15 700.85 108.7 705.6 111.4 708.0 112.8 707.5 115.7 L709.1 115.95" fill="url(#decoration133-gradient7)" fill-rule="evenodd" stroke="none"/>
      <path d="M700.35 222.25 Q700.6 222.5 721.85 227.6 743.1 232.6 723.85 230.85 L693.35 229.9 Q682.05 230.85 665.0 233.85 L577.9 234.4 Q577.35 234.75 573.2 235.35 L568.45 236.15 524.35 236.15 487.7 238.25 Q468.9 240.0 495.35 235.1 521.75 230.15 522.15 229.4 522.65 228.6 524.4 228.15 L540.2 224.85 Q542.9 224.15 545.1 220.6 547.15 217.25 548.45 217.25 550.0 217.25 563.15 222.75 570.2 222.75 578.15 219.15 582.7 217.1 590.9 212.4 598.0 208.85 602.8 208.85 609.15 208.75 615.1 214.4 L643.55 215.0 646.15 215.75 682.15 216.15 Q691.2 219.9 698.35 221.5 700.05 221.85 700.35 222.25" fill="url(#decoration133-gradient8)" fill-rule="evenodd" stroke="none"/>
      <path d="M508.4 96.35 Q512.1 98.05 512.1 101.35 512.1 103.4 511.3 103.95 510.05 104.9 505.2 105.45 L455.35 109.8 404.35 109.8 395.45 108.95 385.95 108.55 376.65 109.55 367.35 110.65 Q364.9 110.65 364.0 108.55 363.35 106.95 363.6 105.15 L353.0 105.4 345.85 105.55 Q341.05 105.55 339.85 102.95 L339.6 100.1 Q339.6 96.3 347.75 92.1 354.35 88.7 362.1 86.8 373.25 84.1 380.1 84.55 L383.3 84.6 Q384.5 84.45 385.85 83.2 389.9 79.55 395.85 76.3 415.1 65.8 429.7 69.7 435.95 71.35 439.55 75.55 443.1 79.6 443.1 85.1 L444.6 83.95 Q445.95 82.85 447.8 82.2 453.55 79.85 464.85 79.85 472.6 79.85 483.55 84.95 489.2 87.45 494.85 90.8 501.4 93.85 508.4 96.35" fill="url(#decoration133-gradient9)" fill-rule="evenodd" stroke="none"/>
      <path d="M432.05 259.35 L435.5 255.25 Q440.05 251.25 452.75 254.7 466.2 258.35 477.8 262.65 L480.05 263.5 496.8 270.1 Q512.2 275.7 539.45 275.7 541.95 275.7 547.75 273.25 553.6 270.75 555.5 270.75 556.6 270.75 565.55 273.7 L568.6 274.7 Q575.3 276.85 576.65 277.95 580.25 280.6 596.65 281.45 604.7 281.8 653.15 288.9 L608.15 288.9 607.9 289.1 345.55 289.1 330.6 287.6 310.35 285.95 292.05 285.55 317.85 280.0 333.85 276.1 369.5 275.7 403.25 269.25 Q424.85 265.2 427.15 263.2 L428.25 262.65 Q430.35 261.45 432.05 259.35" fill="url(#decoration133-gradient10)" fill-rule="evenodd" stroke="none"/>
      <path d="M57.45 116.35 L48.55 115.5 39.05 115.1 29.75 116.1 20.45 117.2 Q18.0 117.2 17.1 115.1 16.45 113.5 16.7 111.7 L6.1 111.95 2.9 112.05 2.9 97.65 Q8.65 94.95 15.2 93.35 26.35 90.65 33.2 91.1 L36.4 91.15 Q37.6 91.0 38.95 89.75 43.0 86.1 48.95 82.85 68.2 72.35 82.8 76.25 89.05 77.9 92.65 82.1 96.2 86.15 96.2 91.65 L97.7 90.5 Q99.05 89.4 100.9 88.75 106.65 86.4 117.95 86.4 125.7 86.4 136.65 91.5 142.3 94.0 147.95 97.35 154.5 100.4 161.5 102.9 165.2 104.6 165.2 107.9 165.2 109.95 164.4 110.5 163.15 111.45 158.3 112.0 L108.45 116.35 73.3 116.35 57.45 116.35" fill="url(#decoration133-gradient11)" fill-rule="evenodd" stroke="none"/>
      <path d="M201.05 197.0 Q201.55 197.4 202.65 197.4 205.65 197.4 210.25 194.55 L219.85 188.8 Q235.05 180.8 256.55 183.55 260.0 184.25 262.0 186.9 L264.8 190.9 275.5 190.5 Q277.75 190.4 298.75 195.25 309.25 197.55 366.3 200.85 L317.3 203.9 306.9 202.9 Q302.6 202.15 252.65 206.1 202.35 210.1 186.7 208.4 171.0 206.65 169.1 204.85 167.2 203.0 172.0 202.95 176.8 202.9 179.8 199.6 184.25 194.5 193.55 194.5 198.95 194.5 200.3 196.0 L201.05 197.0" fill="url(#decoration133-gradient12)" fill-rule="evenodd" stroke="none"/>
      <path d="M73.3 116.35 Q76.75 118.0 78.85 121.95 80.7 125.45 81.0 129.1 L82.9 128.15 Q85.25 127.0 87.95 126.05 96.5 123.0 104.8 123.0 114.75 123.0 120.85 125.35 L124.6 126.95 Q126.4 127.65 127.95 127.65 L130.8 128.15 134.2 129.1 Q218.8 139.55 249.25 138.15 228.05 144.75 178.8 141.1 L118.7 143.7 71.2 145.5 44.2 143.9 Q16.15 142.35 6.8 144.65 13.35 142.15 17.05 139.25 L23.9 133.55 Q33.35 126.15 42.6 127.5 L45.2 124.25 Q47.0 121.8 48.75 120.35 52.0 117.65 57.45 116.35 L73.3 116.35" fill="url(#decoration133-gradient13)" fill-rule="evenodd" stroke="none"/>
      <path d="M90.0 43.75 Q97.75 45.65 104.35 49.05 112.5 53.25 112.5 57.05 L112.25 59.9 Q111.05 62.5 106.25 62.5 L99.1 62.35 88.5 62.1 Q88.75 63.9 88.1 65.5 87.2 67.6 84.75 67.6 L75.45 66.5 66.15 65.5 56.65 65.9 47.75 66.75 1.0 66.75 1.0 38.1 Q2.85 38.55 4.3 39.15 6.15 39.8 7.5 40.9 L9.0 42.05 Q9.0 36.55 12.55 32.5 16.15 28.3 22.4 26.65 37.0 22.75 56.25 33.25 62.2 36.5 66.25 40.15 67.6 41.4 68.8 41.55 L72.0 41.5 Q78.85 41.05 90.0 43.75" fill="url(#decoration133-gradient14)" fill-rule="evenodd" stroke="none"/>
      <path d="M98.85 224.35 L102.3 228.45 Q104.0 230.55 106.1 231.75 L107.2 232.3 Q109.5 234.3 131.1 238.35 L164.85 244.8 203.15 245.2 Q206.1 245.95 214.4 246.55 L262.3 246.6 Q246.05 247.05 260.15 250.85 251.35 252.55 244.0 254.6 L224.0 255.05 203.75 256.7 188.8 258.2 2.0 258.2 2.0 244.7 Q24.2 244.05 37.55 239.2 L54.3 232.6 56.55 231.75 Q68.15 227.45 81.6 223.8 94.3 220.35 98.85 224.35" fill="url(#decoration133-gradient15)" fill-rule="evenodd" stroke="none"/>
    </g>
    <radialGradient cx="0" cy="0" gradientTransform="matrix(1.0086, 0.0, 0.0, 0.5459, 198.0, 119.55)" gradientUnits="userSpaceOnUse" id="decoration133-gradient0" r="819.2" spreadMethod="pad">
      <stop offset="0.0" stop-color="#4b5d69"/>
      <stop offset="0.4196078431372549" stop-color="#303641"/>
      <stop offset="1.0" stop-color="#271d15"/>
    </radialGradient>
    <radialGradient cx="0" cy="0" gradientTransform="matrix(0.129, 0.0, 0.0, 0.129, 157.8, 131.7)" gradientUnits="userSpaceOnUse" id="decoration133-gradient1" r="819.2" spreadMethod="pad">
      <stop offset="0.0" stop-color="#dae3ec"/>
      <stop offset="1.0" stop-color="#8a9095"/>
    </radialGradient>
    <linearGradient gradientTransform="matrix(-0.0215, 0.0124, -0.0105, -0.0182, 245.9, 132.45)" gradientUnits="userSpaceOnUse" id="decoration133-gradient2" spreadMethod="pad" x1="-819.2" x2="819.2">
      <stop offset="0.0" stop-color="#d8e0e7"/>
      <stop offset="1.0" stop-color="#a3abb4"/>
    </linearGradient>
    <linearGradient gradientTransform="matrix(0.0165, 0.0095, -0.0122, 0.0211, 145.6, 103.45)" gradientUnits="userSpaceOnUse" id="decoration133-gradient3" spreadMethod="pad" x1="-819.2" x2="819.2">
      <stop offset="0.0" stop-color="#b0bac4"/>
      <stop offset="1.0" stop-color="#727f8c"/>
    </linearGradient>
    <linearGradient gradientTransform="matrix(0.0047, -0.0175, 0.0202, 0.0054, 140.75, 195.15)" gradientUnits="userSpaceOnUse" id="decoration133-gradient4" spreadMethod="pad" x1="-819.2" x2="819.2">
      <stop offset="0.0" stop-color="#8f9aa6"/>
      <stop offset="1.0" stop-color="#6e7883"/>
    </linearGradient>
    <linearGradient gradientTransform="matrix(0.0, -0.2155, 0.2441, 0.0, 395.3, 297.9)" gradientUnits="userSpaceOnUse" id="decoration133-gradient5" spreadMethod="pad" x1="-819.2" x2="819.2">
      <stop offset="0.00784313725490196" stop-color="#563c2a"/>
      <stop offset="0.5490196078431373" stop-color="#563c2a" stop-opacity="0.0"/>
    </linearGradient>
    <radialGradient cx="0" cy="0" gradientTransform="matrix(0.2175, 0.0, 0.0, 0.2113, 167.45, 150.45)" gradientUnits="userSpaceOnUse" id="decoration133-gradient6" r="819.2" spreadMethod="pad">
      <stop offset="0.0" stop-color="#cfd7e0" stop-opacity="0.47058824"/>
      <stop offset="0.09019607843137255" stop-color="#cfd7e0" stop-opacity="0.4392157"/>
      <stop offset="0.7803921568627451" stop-color="#cdd5de" stop-opacity="0.0"/>
    </radialGradient>
    <linearGradient gradientTransform="matrix(0.1977, -0.1141, 0.0148, 0.0265, 564.7, 363.45)" gradientUnits="userSpaceOnUse" id="decoration133-gradient7" spreadMethod="pad" x1="-819.2" x2="819.2">
      <stop offset="0.058823529411764705" stop-color="#f5fdff" stop-opacity="0.5019608"/>
      <stop offset="0.9921568627450981" stop-color="#eefbff" stop-opacity="0.0"/>
    </linearGradient>
    <linearGradient gradientTransform="matrix(0.0143, 0.0534, -0.0096, 0.0026, 593.05, 219.3)" gradientUnits="userSpaceOnUse" id="decoration133-gradient8" spreadMethod="pad" x1="-819.2" x2="819.2">
      <stop offset="0.0" stop-color="#f5fdff" stop-opacity="0.6509804"/>
      <stop offset="0.9921568627450981" stop-color="#eefbff" stop-opacity="0.0"/>
    </linearGradient>
    <linearGradient gradientTransform="matrix(0.048, -0.048, 0.0215, 0.0215, 426.9, 103.5)" gradientUnits="userSpaceOnUse" id="decoration133-gradient9" spreadMethod="pad" x1="-819.2" x2="819.2">
      <stop offset="0.043137254901960784" stop-color="#f5fdff" stop-opacity="0.6509804"/>
      <stop offset="0.9921568627450981" stop-color="#eefbff" stop-opacity="0.0"/>
    </linearGradient>
    <linearGradient gradientTransform="matrix(0.1939, -0.0518, -0.0054, -0.0188, 356.85, 229.15)" gradientUnits="userSpaceOnUse" id="decoration133-gradient10" spreadMethod="pad" x1="-819.2" x2="819.2">
      <stop offset="0.0" stop-color="#f5fdff" stop-opacity="0.6509804"/>
      <stop offset="0.9921568627450981" stop-color="#eefbff" stop-opacity="0.0"/>
    </linearGradient>
    <linearGradient gradientTransform="matrix(-0.0655, -0.0176, 0.0079, -0.0294, 78.8, 105.6)" gradientUnits="userSpaceOnUse" id="decoration133-gradient11" spreadMethod="pad" x1="-819.2" x2="819.2">
      <stop offset="0.043137254901960784" stop-color="#f5fdff" stop-opacity="0.6509804"/>
      <stop offset="0.9921568627450981" stop-color="#eefbff" stop-opacity="0.0"/>
    </linearGradient>
    <linearGradient gradientTransform="matrix(-0.0185, 0.0321, -0.0146, -0.0131, 267.2, 206.65)" gradientUnits="userSpaceOnUse" id="decoration133-gradient12" spreadMethod="pad" x1="-819.2" x2="819.2">
      <stop offset="0.043137254901960784" stop-color="#f5fdff" stop-opacity="0.6509804"/>
      <stop offset="0.9921568627450981" stop-color="#eefbff" stop-opacity="0.0"/>
    </linearGradient>
    <linearGradient gradientTransform="matrix(-0.0061, -0.0227, 0.0212, -0.0057, 138.9, 138.75)" gradientUnits="userSpaceOnUse" id="decoration133-gradient13" spreadMethod="pad" x1="-819.2" x2="819.2">
      <stop offset="0.043137254901960784" stop-color="#f5fdff" stop-opacity="0.6509804"/>
      <stop offset="0.9921568627450981" stop-color="#eefbff" stop-opacity="0.0"/>
    </linearGradient>
    <linearGradient gradientTransform="matrix(-0.048, -0.048, -0.0215, 0.0215, 25.2, 60.45)" gradientUnits="userSpaceOnUse" id="decoration133-gradient14" spreadMethod="pad" x1="-819.2" x2="819.2">
      <stop offset="0.043137254901960784" stop-color="#f5fdff" stop-opacity="0.6509804"/>
      <stop offset="0.9921568627450981" stop-color="#eefbff" stop-opacity="0.0"/>
    </linearGradient>
    <linearGradient gradientTransform="matrix(0.0338, 0.0863, -0.0184, 0.0068, 30.4, 239.85)" gradientUnits="userSpaceOnUse" id="decoration133-gradient15" spreadMethod="pad" x1="-819.2" x2="819.2">
      <stop offset="0.0" stop-color="#f5fdff" stop-opacity="0.6509804"/>
      <stop offset="0.9921568627450981" stop-color="#eefbff" stop-opacity="0.0"/>
    </linearGradient>
    <g id="decoration133-sprite0" transform="matrix(1.0, 0.0, 0.0, 1.0, -2.6, 0.05)">
      <use data-characterId="319" height="116.85" transform="matrix(1.0, 0.0, 0.0, 1.0, 2.6, -0.05)" width="220.6" xlink:href="#decoration133-shape1"/>
    </g>
    <g id="decoration133-shape1" transform="matrix(1.0, 0.0, 0.0, 1.0, -2.6, 0.05)">
      <path d="M216.6 72.9 Q209.6 82.3 197.3 90.5 165.65 111.5 112.85 116.1 61.0 120.6 28.05 95.7 15.85 86.45 8.7 74.85 2.6 65.0 2.6 58.05 2.6 51.0 7.9 41.95 14.25 31.1 25.85 22.35 57.15 -1.2 112.85 0.0 173.9 1.15 201.1 17.6 224.7 31.9 223.1 58.05 222.7 64.7 216.6 72.9" fill="url(#decoration133-gradient16)" fill-rule="evenodd" stroke="none"/>
    </g>
    <radialGradient cx="0" cy="0" gradientTransform="matrix(0.0971, 0.0, 0.0, 0.0572, 109.5, 53.65)" gradientUnits="userSpaceOnUse" id="decoration133-gradient16" r="819.2" spreadMethod="pad">
      <stop offset="0.0" stop-color="#e0fdff" stop-opacity="0.29803923"/>
      <stop offset="0.19607843137254902" stop-color="#e8fdff" stop-opacity="0.2"/>
      <stop offset="1.0" stop-color="#ffffff" stop-opacity="0.0"/>
    </radialGradient>
    <g id="decoration133-shape2" transform="matrix(1.0, 0.0, 0.0, 1.0, -0.35, 0.6)">
      <path d="M750.9 97.5 Q750.25 97.25 750.25 96.55 L751.5 96.8 Q751.4 97.25 750.9 97.5 M753.4 66.5 Q752.75 66.25 752.75 65.55 L754.0 65.8 Q753.9 66.25 753.4 66.5 M719.9 32.5 Q719.3 32.25 719.3 31.55 L720.55 31.8 Q720.4 32.25 719.9 32.5 M676.8 59.05 Q676.95 58.7 678.05 58.35 L679.65 58.0 Q680.05 58.3 680.05 59.5 680.65 60.05 679.4 60.05 L677.75 59.7 Q677.0 59.4 676.8 59.05 M686.05 102.0 Q685.8 101.55 685.8 100.55 L687.05 100.8 Q687.05 101.55 686.65 102.0 L686.05 102.0 M698.05 191.05 L697.8 190.25 699.55 190.3 699.3 191.0 698.05 191.05 M776.0 157.5 L774.5 158.0 Q774.25 158.4 774.25 157.15 774.25 156.6 774.8 156.2 775.4 155.7 776.0 156.3 L776.0 157.5 M779.75 204.85 L780.25 204.25 781.15 203.5 782.5 205.0 781.9 205.55 780.1 205.65 Q779.75 205.65 779.75 204.85 M732.05 238.0 Q731.8 237.85 731.8 237.0 731.8 236.25 732.1 236.0 L732.4 235.8 733.65 235.8 734.05 237.05 Q733.7 237.65 732.9 238.05 L732.05 238.0 M769.5 267.5 Q769.25 267.05 769.25 266.3 769.55 265.8 770.5 266.3 770.5 267.05 770.15 267.5 L769.5 267.5 M671.8 257.5 L672.6 257.45 675.55 257.8 Q674.45 259.85 673.4 260.05 672.55 259.35 672.25 258.6 L671.8 257.5 M681.05 263.5 Q680.8 263.05 680.8 262.05 L682.05 262.3 Q682.05 263.05 681.65 263.5 L681.05 263.5 M609.55 43.55 L609.65 44.35 Q609.65 45.05 608.95 45.7 L607.9 46.75 606.95 45.7 606.65 45.0 606.8 43.5 607.65 43.4 609.4 43.5 609.55 43.55 M586.4 76.0 Q585.8 75.75 585.8 75.05 L587.05 75.3 586.4 76.0 M546.65 61.85 L546.55 62.8 546.25 63.05 545.15 63.25 544.2 63.15 544.15 63.0 543.75 62.75 543.65 61.85 Q543.65 61.05 544.45 60.8 L546.4 61.0 546.55 61.05 546.65 61.85 M623.5 186.4 L623.3 185.8 Q623.4 185.5 624.65 185.5 L625.05 185.8 Q625.05 186.55 624.65 187.0 L623.65 187.0 623.5 186.4 M425.15 32.0 L425.55 32.3 425.55 32.85 427.05 33.3 427.15 33.85 Q427.15 34.05 426.4 34.05 L425.55 34.05 425.5 34.5 425.15 35.0 424.55 35.0 424.3 34.55 424.3 33.95 423.05 33.75 422.8 32.5 424.3 32.6 424.3 32.05 425.15 32.0 M389.9 21.0 Q389.3 20.75 389.3 20.05 L390.55 20.3 389.9 21.0 M330.55 63.0 Q330.3 62.55 330.3 61.8 330.7 61.35 331.55 61.8 L331.25 63.0 330.55 63.0 M455.55 126.8 L455.15 127.25 455.55 128.5 Q455.4 128.8 454.55 129.0 453.9 128.6 453.55 127.8 L452.55 128.0 Q452.3 127.55 452.3 126.55 L453.2 126.5 453.3 125.55 454.15 125.5 454.8 126.55 454.9 126.7 455.55 126.8 M438.8 237.35 Q438.8 236.6 439.1 236.7 L439.4 236.8 440.1 236.95 441.05 237.3 440.8 238.0 439.05 238.05 438.95 238.15 Q438.8 238.15 438.8 237.35 M364.9 282.5 Q364.3 282.25 364.3 281.55 L365.55 281.8 Q365.4 282.25 364.9 282.5 M337.85 308.0 L336.85 307.8 336.8 307.55 Q337.15 306.8 337.95 306.55 338.8 306.3 339.55 306.8 339.45 308.0 337.85 308.0 M301.8 11.85 Q302.05 11.9 302.05 12.65 L301.8 14.15 301.7 14.5 303.55 14.8 Q303.5 15.45 303.0 15.55 L302.05 15.55 302.05 15.9 302.0 17.0 301.75 17.5 301.05 17.5 300.8 17.05 300.8 15.55 299.05 15.5 Q298.8 16.1 298.8 14.85 298.8 14.1 299.15 14.2 L299.5 14.3 300.35 14.4 300.3 13.75 Q300.3 12.15 301.0 11.8 L301.8 11.85 M117.3 25.0 L118.0 24.95 120.05 25.3 120.0 25.75 Q120.75 26.05 119.5 26.05 117.6 26.05 117.3 25.55 L117.3 25.0 M50.35 17.1 L50.3 16.1 Q50.3 15.15 50.55 14.95 L53.75 14.5 54.05 14.8 54.05 15.9 54.0 17.0 53.75 17.5 50.55 17.5 50.35 17.1 M74.05 40.0 Q73.8 39.55 73.8 38.8 74.2 38.35 75.05 38.8 L74.75 40.0 74.05 40.0 M48.0 86.5 Q47.3 86.25 47.3 85.55 L48.55 85.8 48.0 86.5 M12.75 104.5 L13.05 104.8 13.05 107.05 12.75 107.5 11.05 107.5 Q10.8 107.9 10.8 106.65 10.8 105.9 11.0 105.85 L11.75 105.75 Q10.55 105.5 10.3 105.05 L10.3 104.5 10.95 104.45 12.75 104.5 M36.05 146.3 Q36.0 146.95 35.5 147.05 34.55 147.0 34.3 146.55 L34.3 146.0 34.9 145.95 36.05 146.3 M18.5 154.5 Q17.8 154.25 17.8 153.55 L19.05 153.8 18.5 154.5 M91.0 237.05 Q90.05 237.0 89.8 236.55 L89.8 236.0 90.4 235.95 91.55 236.3 Q91.5 236.95 91.0 237.05 M95.55 295.15 L95.3 294.85 Q95.3 294.1 95.65 293.95 L96.0 293.8 96.9 293.95 98.05 294.3 Q97.95 295.1 97.0 296.05 L95.55 295.15 M129.5 286.05 Q128.55 286.0 128.3 285.55 L128.3 285.0 128.9 284.95 130.05 285.3 Q130.0 285.95 129.5 286.05 M41.55 268.65 Q41.3 268.65 41.3 267.85 L42.05 267.15 Q42.85 266.5 43.25 266.5 43.55 266.8 43.55 268.0 L43.1 268.2 42.5 268.55 41.55 268.65 M322.8 242.05 L324.05 242.3 323.5 243.0 Q322.8 242.75 322.8 242.05 M309.8 283.15 Q309.8 282.55 310.4 282.2 L312.5 282.3 312.75 282.55 313.05 283.05 312.1 283.65 311.0 284.05 310.05 284.05 Q309.8 283.95 309.8 283.15 M239.5 309.05 Q238.55 309.0 238.3 308.55 L238.3 308.0 238.9 307.95 240.05 308.3 Q240.0 308.95 239.5 309.05" fill="#d5e7fa" fill-rule="evenodd" stroke="none"/>
      <path d="M799.25 399.0 L596.05 399.0 596.05 88.0 799.25 88.0 799.25 399.0" fill="url(#decoration133-gradient17)" fill-rule="evenodd" stroke="none"/>
      <path d="M773.05 -0.6 L799.65 -0.6 799.65 399.5 721.9 399.5 737.85 376.9 Q736.65 372.55 737.05 368.2 737.1 367.05 737.6 366.1 L744.2 354.25 Q746.15 350.5 746.0 346.35 745.8 339.2 747.7 332.5 L746.8 324.85 Q746.7 324.0 746.95 323.3 750.2 314.4 753.6 305.7 751.75 288.7 742.95 274.05 741.15 271.25 738.4 269.8 728.4 264.75 718.75 258.45 L716.3 258.45 711.1 261.5 Q709.35 260.5 707.75 259.0 700.65 252.5 693.9 245.8 689.65 241.7 684.15 239.7 682.95 239.15 674.35 237.3 L663.95 234.95 Q658.0 233.2 652.35 234.55 651.35 234.85 650.95 235.55 649.2 238.7 645.85 237.55 L643.8 235.15 625.8 234.35 Q625.85 235.3 624.2 240.15 622.65 244.5 623.15 245.4 L623.9 247.1 621.5 256.5 619.75 254.85 620.3 253.25 621.35 250.6 Q621.9 249.45 621.3 247.45 L620.55 245.6 621.4 241.25 Q622.5 236.65 623.5 234.8 620.05 235.6 614.7 239.55 L611.5 239.4 611.2 239.25 Q611.35 238.85 612.0 238.45 L615.05 235.35 626.65 230.4 Q630.55 228.75 631.35 228.75 640.0 228.15 649.25 228.95 L647.2 227.35 645.65 226.05 Q636.65 217.0 623.9 215.65 L622.65 216.0 Q615.9 217.0 609.25 215.7 L607.85 216.1 Q603.9 217.5 602.1 221.25 L601.0 223.55 598.8 228.55 595.85 228.5 Q594.0 231.95 592.65 235.7 591.5 238.95 588.85 239.9 588.2 239.55 588.0 238.85 587.8 237.85 588.1 237.05 588.75 235.05 590.05 233.35 591.95 230.9 591.55 228.3 L584.1 228.8 Q578.8 234.85 571.65 238.95 L570.6 238.35 Q570.3 237.85 570.4 237.25 570.5 236.15 571.2 235.6 573.3 233.9 575.9 232.9 L577.95 231.45 Q584.6 224.2 594.5 225.55 L596.3 224.3 Q598.15 217.85 602.45 212.6 L605.75 212.3 605.45 211.05 605.0 210.0 598.7 205.7 597.5 204.95 Q589.75 200.85 581.6 197.75 L580.3 195.9 581.0 195.75 Q589.7 198.45 598.15 201.75 599.05 200.9 600.1 200.25 601.85 199.1 601.85 196.25 L601.55 193.7 598.3 192.8 594.6 191.75 585.85 186.4 586.2 186.45 Q593.55 188.15 600.35 191.6 L599.8 190.65 Q596.3 186.25 595.8 181.25 597.35 180.95 598.75 182.15 603.0 186.25 604.75 192.0 605.4 194.1 605.25 196.3 605.1 198.35 601.5 203.05 L610.2 212.4 622.25 213.05 624.5 212.05 Q626.45 211.05 628.75 211.25 636.7 212.5 644.1 216.4 651.2 220.15 658.75 222.5 L657.25 214.8 Q656.9 211.05 658.25 207.6 659.35 204.8 659.6 201.9 659.9 197.55 658.5 193.55 L655.8 193.05 653.65 192.6 Q650.95 191.95 649.35 189.65 645.1 183.35 638.45 179.4 636.5 178.2 634.3 174.9 L632.4 171.8 633.75 170.25 637.2 173.45 640.65 176.55 Q646.2 180.6 649.5 186.65 649.3 182.7 649.85 178.75 650.05 177.45 649.2 176.3 646.05 171.95 644.45 166.85 647.75 167.95 649.65 170.75 651.25 173.05 651.35 175.8 651.65 182.75 653.9 189.1 L659.55 190.65 660.3 191.9 662.05 195.6 Q664.9 203.0 659.8 209.1 L659.8 215.2 664.8 216.55 668.95 217.35 Q671.0 217.35 671.7 219.45 L673.35 225.35 Q677.4 228.1 682.4 228.1 688.05 228.05 693.3 229.8 699.0 231.75 703.2 236.4 708.25 241.85 712.3 247.5 715.6 245.5 719.2 244.1 L720.25 244.15 Q729.9 249.75 738.4 257.4 743.3 256.2 746.8 252.2 750.55 247.9 755.65 249.45 757.3 250.1 758.45 251.3 762.15 255.15 766.85 257.4 L767.3 251.0 Q767.45 248.7 766.5 241.9 L765.4 234.35 Q764.75 224.95 765.95 215.5 766.25 212.6 764.9 210.3 764.3 209.15 762.95 208.55 L752.55 203.45 747.05 207.55 746.6 211.55 Q746.15 216.15 745.7 217.6 L747.05 219.1 748.85 220.85 Q753.0 224.4 751.7 229.4 L750.65 229.55 750.0 229.55 749.25 226.35 Q748.25 223.1 747.45 222.65 744.6 220.95 742.35 218.7 L741.05 208.55 Q740.25 209.7 738.95 209.85 730.0 210.45 722.3 206.2 L721.5 207.6 720.05 211.05 Q719.8 211.75 719.3 212.05 716.3 213.05 714.65 210.0 L711.05 210.15 711.45 211.25 709.6 211.1 Q704.6 216.1 700.95 222.4 L700.6 222.25 700.45 221.95 696.75 224.2 701.3 217.9 701.5 216.55 Q702.8 212.3 706.55 209.45 L702.85 208.1 695.75 212.05 696.95 211.15 696.25 211.55 Q690.75 214.95 683.85 213.9 687.7 211.1 692.55 212.5 L697.35 209.1 699.25 207.95 Q703.95 205.6 708.7 207.9 713.75 205.5 718.1 208.9 L718.55 203.6 739.0 206.5 740.2 204.7 739.2 201.3 Q741.2 200.65 742.7 202.25 745.2 202.0 747.35 200.45 L750.4 198.35 Q753.7 196.25 757.8 196.3 756.35 190.4 754.1 184.7 754.05 180.6 754.7 179.05 760.25 165.75 760.95 151.25 758.0 146.85 749.8 140.25 L742.1 134.45 Q738.1 132.3 734.0 131.95 718.5 130.0 704.15 136.5 L700.2 138.45 697.2 139.25 690.0 139.95 688.9 145.55 Q679.75 140.45 669.35 139.95 L661.4 141.75 Q661.3 140.35 661.35 138.7 661.35 135.35 662.05 133.85 L661.75 133.6 Q655.6 130.65 648.45 131.2 L648.35 130.35 650.95 129.6 Q653.0 129.05 658.9 130.9 L664.55 132.75 Q665.2 136.9 664.4 138.85 L672.75 136.9 682.05 139.65 682.95 136.7 689.15 136.7 Q689.2 136.6 696.1 133.3 L704.25 129.45 710.25 124.9 715.6 121.2 716.4 117.3 710.2 117.65 703.7 118.1 Q700.4 119.4 696.65 119.5 L693.65 119.0 691.95 118.45 688.2 115.15 Q684.3 111.2 683.75 108.35 676.35 111.2 668.35 111.05 L666.95 109.75 659.45 109.55 658.35 110.9 652.8 111.8 Q649.5 112.15 647.8 114.8 L646.7 116.05 Q645.35 117.2 645.7 116.5 L647.15 114.35 Q649.7 109.55 655.55 109.5 657.95 109.5 658.9 107.35 L662.55 107.25 657.95 99.75 651.25 100.2 648.45 100.65 647.3 100.95 Q647.05 100.65 646.3 100.25 L646.0 100.1 Q647.15 99.45 650.0 98.3 653.05 97.0 658.6 98.25 L663.35 104.95 Q664.85 107.05 665.9 107.0 L669.35 108.0 Q671.75 107.7 673.95 106.85 677.4 105.6 681.15 104.95 L678.15 101.7 673.2 101.2 664.8 94.75 674.05 100.0 679.25 100.4 683.3 104.8 Q684.15 105.0 687.45 107.1 L692.4 114.75 Q698.8 115.15 704.65 113.45 L711.0 111.95 Q719.1 110.65 724.05 116.9 724.25 116.8 733.25 120.95 L742.1 125.05 753.1 120.95 749.5 114.7 746.4 110.0 736.2 97.0 735.35 94.25 Q731.95 85.8 725.5 79.8 L722.5 80.25 718.8 89.55 Q717.6 89.45 717.0 89.15 712.95 87.05 712.55 87.1 L703.25 93.25 699.5 93.25 698.3 91.7 Q700.65 91.4 702.7 90.4 L707.65 87.6 709.9 84.7 717.55 85.95 718.6 82.55 Q719.95 78.75 721.4 77.4 L719.0 76.75 Q715.55 75.4 711.6 75.4 708.25 75.6 708.05 79.2 706.05 80.4 704.1 79.15 702.35 78.0 700.5 78.65 696.55 79.95 694.65 81.0 L691.0 83.1 Q689.25 84.2 684.75 86.2 L680.85 86.3 Q689.4 81.95 699.15 75.25 L703.5 75.55 705.85 76.25 707.3 74.45 Q707.75 73.65 708.45 73.1 711.45 71.0 715.4 72.6 L714.2 70.55 706.7 71.7 707.1 67.8 Q707.4 64.2 703.55 61.4 L704.3 59.15 704.9 59.7 Q708.95 63.45 709.3 68.7 L713.2 68.2 716.6 67.9 718.0 69.7 Q719.35 71.8 719.45 73.55 L720.0 73.5 Q723.6 72.35 726.25 74.95 732.4 81.3 735.8 89.7 738.4 96.25 743.9 100.0 741.4 95.5 740.75 90.4 L738.15 72.5 732.85 71.15 730.7 65.05 Q724.85 58.4 716.3 55.6 L721.05 55.85 Q723.3 56.65 726.35 58.35 L729.65 61.45 Q731.65 63.7 732.0 63.45 L734.4 68.75 740.05 68.9 740.95 71.6 741.05 75.2 Q741.35 79.45 742.35 81.9 L748.2 76.65 Q750.35 74.95 750.95 74.85 L750.5 79.05 742.35 87.1 744.65 93.25 748.0 101.2 Q749.0 103.15 750.75 104.45 754.7 107.55 755.8 112.85 756.2 114.85 758.05 115.9 763.5 119.25 764.05 125.45 L765.15 131.65 Q766.75 140.1 769.2 148.4 770.2 151.85 769.85 155.4 L768.85 166.85 Q768.75 168.15 770.45 174.1 772.35 180.75 774.0 183.35 L776.2 178.1 777.65 173.6 779.35 156.75 Q780.5 145.4 783.25 134.1 779.8 127.15 779.2 119.5 778.95 115.35 779.35 111.3 L781.0 93.45 781.0 87.9 781.0 81.8 Q781.3 77.25 778.5 73.85 L774.0 68.55 Q773.35 67.7 773.3 66.8 773.05 61.7 770.2 57.55 L762.75 46.9 Q761.6 45.4 760.1 44.35 L747.75 36.15 Q746.7 35.45 742.95 34.2 739.3 33.0 737.9 32.75 736.35 32.5 733.8 33.65 L731.7 34.9 727.75 34.95 Q723.95 31.6 719.45 29.7 L715.95 28.8 Q699.55 29.55 683.35 31.8 L682.7 31.7 Q686.25 30.55 690.05 30.0 L705.85 27.25 709.3 26.2 Q717.4 23.85 723.5 29.7 724.95 31.05 728.35 32.15 L732.45 31.25 738.85 30.6 731.35 25.9 724.85 22.15 700.25 9.0 Q699.2 9.0 695.8 10.3 L691.95 11.6 678.6 11.7 Q673.5 11.6 668.35 12.6 662.2 14.0 656.35 16.15 658.6 15.25 660.55 13.7 661.8 12.65 663.3 12.35 L676.7 11.1 684.8 10.9 697.4 7.25 693.9 4.75 694.05 3.1 Q700.5 5.65 706.9 8.55 L725.85 16.95 Q739.0 22.7 740.5 23.65 752.55 31.55 766.45 34.1 772.5 35.25 778.0 34.8 777.6 32.35 776.7 30.0 774.25 23.85 776.3 17.4 776.8 15.8 776.6 14.0 776.15 8.9 774.5 4.1 L773.05 -0.6" fill="#120905" fill-rule="evenodd" stroke="none"/>
      <path d="M747.0 101.45 L747.0 101.85 753.9 101.85 Q755.1 101.3 757.0 100.5 L760.8 98.85 761.65 98.45 Q765.0 96.9 767.05 95.55 L767.1 95.4 766.95 95.3 767.35 95.3 Q768.0 93.85 768.75 90.65 L769.6 86.6 770.75 79.85 770.85 79.35 Q771.7 73.9 772.3 71.1 772.85 68.35 773.15 68.15 M767.35 95.3 L768.0 94.85 768.2 94.65 770.7 92.45 768.75 90.65 M767.1 95.4 L767.2 95.45 767.35 95.3 767.1 95.4 M767.2 95.45 L767.2 95.5 767.35 95.3 770.4 95.55 770.7 92.45 772.5 90.4 Q769.5 89.95 769.6 86.6 M767.2 95.45 L767.05 95.55 767.2 95.5 M770.85 79.35 Q770.95 87.0 775.95 85.5 L777.2 83.4 779.45 79.05 Q773.35 79.7 772.3 71.1 M770.4 95.55 L773.45 95.2 Q771.6 93.45 772.5 90.4 L775.95 85.5 Q773.25 91.15 778.4 93.4 L780.25 92.4 782.4 91.15 Q776.9 88.45 779.45 79.05 781.4 74.75 781.25 72.2 M773.45 95.2 Q775.75 94.65 778.4 93.4 775.0 100.15 779.45 106.0 781.85 107.1 783.75 107.1 L784.9 107.05 785.3 106.2 M782.4 91.15 Q785.95 88.8 786.3 86.85 M716.5 77.1 Q716.1 78.55 714.95 79.75 716.5 79.7 717.8 79.1 L716.5 77.1 Q714.5 78.45 712.45 77.05 713.4 78.95 714.95 79.75 L712.2 79.35 Q713.9 79.85 711.9 83.05 L714.95 79.75 717.35 81.6 717.8 79.1 Q720.05 78.05 721.65 75.4 M712.45 77.05 L710.15 78.8 711.9 79.3 712.2 79.35 M708.75 86.4 L711.9 83.05 Q714.2 81.25 715.2 83.15 L714.95 79.75 M715.2 83.15 L717.35 81.6 719.8 83.45 M715.2 83.15 L715.45 86.55 M710.15 78.8 Q707.3 77.75 706.75 75.85 M716.5 77.1 Q717.1 74.9 716.2 72.15 M712.45 77.05 Q711.7 75.55 711.25 73.35 M709.8 129.5 Q708.3 137.1 712.7 149.35 717.55 162.85 725.1 170.55 726.45 165.0 727.05 159.1 727.9 150.3 727.9 145.55 727.9 138.3 727.1 133.05 726.25 127.35 724.75 126.0 M701.4 206.85 L701.75 208.25 Q702.95 206.55 705.3 204.9 707.65 203.25 709.8 200.2 712.05 197.1 718.2 185.85 722.3 178.4 725.1 170.55 L724.4 170.6 Q720.7 170.6 711.35 164.9 702.75 159.7 700.05 156.65 694.05 149.8 691.9 146.3 689.2 141.9 687.85 135.8 M728.25 206.85 L728.05 205.5 726.7 190.25 725.1 170.55 Q722.6 186.0 719.55 197.5 L716.4 209.05 716.1 210.0 M770.4 95.55 Q768.95 97.9 771.35 100.3 L771.6 100.55 771.65 100.55 773.9 102.45 774.15 102.65 776.0 104.0 Q771.3 99.6 773.45 95.2 M776.0 104.0 L779.45 106.0 M771.35 100.3 Q768.75 97.85 767.35 95.3 L767.85 106.0 767.8 107.4 Q768.65 101.25 771.6 100.55 M761.4 109.6 Q765.05 108.6 765.95 116.2 L767.25 111.65 Q766.45 104.45 763.65 106.0 L761.4 109.6 Q763.85 101.8 757.0 100.5 M756.65 125.15 L757.75 126.1 758.55 126.75 Q761.2 126.75 764.05 120.85 763.8 113.1 758.1 113.5 754.5 116.65 751.35 114.9 L751.35 114.6 M765.95 116.2 L764.75 119.25 764.05 120.85 M767.8 107.4 L767.25 111.65 Q770.0 103.7 773.9 102.45 M761.4 109.6 Q759.7 112.05 758.1 113.5 760.4 106.35 753.9 101.85 M725.1 170.55 Q731.85 166.9 735.75 158.05 740.1 148.2 740.1 137.0 740.1 131.6 739.75 129.85 L739.75 129.55 739.4 130.2 M725.1 170.55 Q728.4 171.2 732.5 168.65 737.95 165.25 742.85 159.1 747.3 153.45 749.15 148.9 750.9 144.55 750.9 139.45 750.9 136.0 750.2 134.75 M725.1 170.55 Q730.0 172.7 735.35 172.7 745.4 172.7 752.9 167.05 759.4 162.15 760.75 157.1 M725.1 170.55 Q726.55 172.45 748.45 184.2 752.05 186.15 756.9 189.8 760.05 192.2 761.7 192.2 L761.7 191.85 M760.8 98.85 Q765.9 98.1 763.65 106.0 766.5 100.8 767.35 95.3 M725.1 170.55 Q731.25 179.35 736.25 191.4 L740.55 201.9 740.9 202.7 740.95 202.85 741.15 203.35 741.15 203.7 740.95 202.85" fill="none" stroke="#120905" stroke-linecap="round" stroke-linejoin="round" stroke-opacity="0.5019608" stroke-width="0.05"/>
      <path d="M695.15 150.6 Q695.6 151.1 697.65 151.6 L702.0 152.1 Q706.15 152.1 708.85 149.05 710.95 146.65 711.05 144.2 711.4 145.3 713.85 146.35 716.35 147.4 719.0 147.4 726.8 147.4 727.55 138.55 M758.25 160.95 Q758.05 162.05 756.05 163.1 754.05 164.15 751.9 164.15 750.15 164.15 748.3 163.05 745.7 161.55 745.7 158.8 L746.85 153.5 Q743.2 156.75 742.25 156.5 740.85 156.05 739.5 154.95 737.75 153.45 738.3 150.5 L736.9 152.4 Q735.15 154.2 733.25 154.2 731.6 154.2 729.9 152.8 728.15 151.4 727.8 149.35 727.15 150.85 725.25 153.4 722.45 157.15 720.35 157.15 L717.2 156.55 Q715.0 155.9 714.8 155.45 L714.2 158.55 Q713.0 161.45 709.6 161.45 L706.75 161.15 705.25 160.85 M713.8 166.25 Q720.6 168.3 720.0 164.15 723.8 167.85 726.8 162.2 728.1 167.05 732.6 163.55 731.7 167.7 736.25 166.0 731.95 171.35 743.55 171.45 738.55 175.3 740.1 179.5 732.65 179.4 732.8 183.75 727.8 178.4 726.15 184.75 724.6 179.75 722.7 184.0 721.95 180.4 719.9 182.8 M754.15 166.15 Q745.8 174.85 749.95 185.25 737.65 181.45 737.0 193.5 729.6 186.45 727.05 193.5 722.85 187.25 720.6 193.15 718.4 188.9 715.05 191.4 M718.05 168.5 Q723.5 171.9 721.35 179.65 M727.8 138.55 Q727.9 140.4 730.25 141.95 732.4 143.35 734.4 143.35 736.6 143.35 737.95 142.3 L739.9 140.0 M740.25 140.0 Q740.65 142.6 742.95 144.05 744.85 145.2 747.05 145.2 749.55 145.2 750.55 143.85 M750.85 144.05 L750.75 146.0 Q750.75 156.5 759.0 156.5 759.95 156.5 761.45 155.4 763.0 154.25 763.05 153.45 M756.75 189.05 Q745.6 188.75 740.35 201.0 732.65 196.7 727.8 203.0 723.5 196.15 718.05 202.75 715.85 194.85 708.55 201.65" fill="none" stroke="#120905" stroke-linecap="round" stroke-linejoin="round" stroke-opacity="0.5019608" stroke-width="0.05"/>
      <path d="M246.5 81.25 L246.9 80.9" fill="none" stroke="#000000" stroke-linecap="round" stroke-linejoin="round" stroke-opacity="0.4" stroke-width="0.30000000000000004"/>
      <path d="M478.8 23.2 Q474.55 20.0 471.05 23.4 468.45 21.75 464.45 25.05 463.15 27.2 460.0 26.5 L458.25 24.5 Q452.8 20.55 447.75 24.35 446.3 19.7 441.6 23.1 447.75 15.15 455.6 17.05 455.7 19.85 459.15 22.8 460.45 20.25 463.6 21.45 L464.4 23.35 Q466.5 20.9 465.85 17.1 473.15 16.3 478.8 23.2" fill="#12120e" fill-rule="evenodd" stroke="none"/>
      <path d="M478.8 23.2 Q474.55 20.0 471.05 23.4 468.45 21.75 464.45 25.05 463.15 27.2 460.0 26.5 L458.25 24.5 Q452.8 20.55 447.75 24.35 446.3 19.7 441.6 23.1 447.75 15.15 455.6 17.05 455.7 19.85 459.15 22.8 460.45 20.25 463.6 21.45 L464.4 23.35 Q466.5 20.9 465.85 17.1 473.15 16.3 478.8 23.2 Z" fill="none" stroke="#000000" stroke-linecap="round" stroke-linejoin="round" stroke-opacity="0.4" stroke-width="0.30000000000000004"/>
      <path d="M432.75 49.4 L433.6 50.1 Q434.8 51.45 434.2 52.7 435.65 53.3 435.6 54.9 L436.05 55.65 Q439.25 61.25 445.35 64.4 433.95 58.8 430.2 64.25 426.45 58.95 423.1 61.4 422.9 62.25 422.85 63.15 418.2 67.1 416.3 71.8 395.05 69.5 379.7 65.05 394.2 63.1 404.2 58.75 L408.5 58.65 Q412.0 57.7 412.9 55.25 412.1 52.2 415.75 49.55 420.25 46.6 426.25 48.65 L426.3 48.65 426.5 46.5 Q428.0 46.7 429.05 48.9 L430.35 48.75 430.75 46.65 432.75 49.4 Q431.8 48.75 430.35 48.75 431.8 48.75 432.75 49.4" fill="#12120e" fill-rule="evenodd" stroke="none"/>
      <path d="M432.75 49.4 L433.6 50.1 Q434.8 51.45 434.2 52.7 435.65 53.3 435.6 54.9 L436.05 55.65 Q439.25 61.25 445.35 64.4 433.95 58.8 430.2 64.25 426.45 58.95 423.1 61.4 422.9 62.25 422.85 63.15 418.2 67.1 416.3 71.8 395.05 69.5 379.7 65.05 394.2 63.1 404.2 58.75 L408.5 58.65 Q412.0 57.7 412.9 55.25 412.1 52.2 415.75 49.55 420.25 46.6 426.25 48.65 L426.3 48.65 426.5 46.5 Q428.0 46.7 429.05 48.9 L430.35 48.75 430.75 46.65 432.75 49.4 Q431.8 48.75 430.35 48.75" fill="none" stroke="#000000" stroke-linecap="round" stroke-linejoin="round" stroke-opacity="0.4" stroke-width="0.30000000000000004"/>
      <path d="M384.0 19.1 L382.95 19.9 384.0 19.1 M301.15 23.65 Q316.6 3.1 340.35 9.25 340.3 6.5 338.45 5.3 341.8 6.4 341.6 9.85 L345.75 25.0 Q349.45 28.75 355.75 32.15 357.65 32.6 360.1 33.75 360.35 31.2 361.65 29.3 361.6 26.4 363.2 24.0 365.75 24.85 366.6 26.7 369.25 26.55 372.0 27.55 L372.0 25.05 Q373.65 25.4 374.55 28.15 378.75 22.9 382.95 19.9 383.1 17.8 386.2 16.9 384.6 17.85 384.45 20.5 387.05 29.3 383.05 40.2 379.55 35.85 370.75 44.65 370.2 41.6 364.35 47.05 L363.05 48.25 Q361.75 53.65 360.15 55.5 358.9 55.3 358.3 53.85 354.85 51.4 349.1 52.0 346.1 52.6 344.7 51.5 344.8 50.75 345.55 49.7 341.95 40.75 329.9 40.85 329.05 27.6 320.15 26.55 L320.05 26.55 Q315.65 17.05 302.35 22.25 L301.15 23.65 M360.0 34.5 L360.1 33.75 360.0 34.5 M375.0 29.75 L374.55 28.15 375.0 29.75" fill="#12120e" fill-rule="evenodd" stroke="none"/>
      <path d="M382.95 19.9 L384.0 19.1 M301.15 23.65 Q316.6 3.1 340.35 9.25 340.3 6.5 338.45 5.3 341.8 6.4 341.6 9.85 L345.75 25.0 Q349.45 28.75 355.75 32.15 357.65 32.6 360.1 33.75 360.35 31.2 361.65 29.3 361.6 26.4 363.2 24.0 365.75 24.85 366.6 26.7 369.25 26.55 372.0 27.55 L372.0 25.05 Q373.65 25.4 374.55 28.15 378.75 22.9 382.95 19.9 383.1 17.8 386.2 16.9 384.6 17.85 384.45 20.5 387.05 29.3 383.05 40.2 379.55 35.85 370.75 44.65 370.2 41.6 364.35 47.05 L363.05 48.25 Q361.75 53.65 360.15 55.5 358.9 55.3 358.3 53.85 354.85 51.4 349.1 52.0 346.1 52.6 344.7 51.5 344.8 50.75 345.55 49.7 341.95 40.75 329.9 40.85 329.05 27.6 320.15 26.55 L320.05 26.55 Q315.65 17.05 302.35 22.25 L301.15 23.65 301.0 23.85 M374.55 28.15 L375.0 29.75 M360.1 33.75 L360.0 34.5" fill="none" stroke="#000000" stroke-linecap="round" stroke-linejoin="round" stroke-opacity="0.4" stroke-width="0.30000000000000004"/>
      <path d="M252.7 64.25 Q248.85 57.9 242.9 64.5 249.4 50.6 261.8 50.5 263.0 54.7 269.3 57.9 272.65 52.15 277.4 56.9 279.5 52.4 277.2 47.05 287.95 43.2 299.0 51.45 291.4 48.05 287.4 54.6 282.85 53.0 278.0 59.4 276.85 63.1 271.75 63.15 L268.5 60.8 Q258.85 56.85 252.7 64.25" fill="#12120e" fill-rule="evenodd" stroke="none"/>
      <path d="M252.7 64.25 Q248.85 57.9 242.9 64.5 249.4 50.6 261.8 50.5 263.0 54.7 269.3 57.9 272.65 52.15 277.4 56.9 279.5 52.4 277.2 47.05 287.95 43.2 299.0 51.45 291.4 48.05 287.4 54.6 282.85 53.0 278.0 59.4 276.85 63.1 271.75 63.15 L268.5 60.8 Q258.85 56.85 252.7 64.25 Z" fill="none" stroke="#000000" stroke-linecap="round" stroke-linejoin="round" stroke-opacity="0.4" stroke-width="0.30000000000000004"/>
      <path d="M214.65 48.2 Q215.4 45.65 213.85 43.0 219.25 40.15 225.75 43.75 221.45 42.5 219.75 46.25 217.25 45.75 215.1 49.5 214.8 51.55 212.15 51.95 L210.2 50.9 Q204.8 49.55 202.05 53.95 199.55 50.8 196.85 54.8 199.3 46.9 205.85 45.95 206.85 48.1 210.4 49.35 211.75 46.0 214.65 48.2" fill="#12120e" fill-rule="evenodd" stroke="none"/>
      <path d="M214.65 48.2 Q215.4 45.65 213.85 43.0 219.25 40.15 225.75 43.75 221.45 42.5 219.75 46.25 217.25 45.75 215.1 49.5 214.8 51.55 212.15 51.95 L210.2 50.9 Q204.8 49.55 202.05 53.95 199.55 50.8 196.85 54.8 199.3 46.9 205.85 45.95 206.85 48.1 210.4 49.35 211.75 46.0 214.65 48.2 Z" fill="none" stroke="#000000" stroke-linecap="round" stroke-linejoin="round" stroke-opacity="0.4" stroke-width="0.30000000000000004"/>
      <path d="M249.75 38.35 Q250.25 38.95 250.0 39.5 250.65 39.8 250.65 40.5 L250.85 40.85 Q252.25 43.35 254.95 44.75 249.9 42.25 248.2 44.65 246.55 42.3 245.05 43.4 L244.95 44.15 Q242.9 45.95 242.05 48.0 232.55 47.0 225.75 45.0 232.2 44.15 236.65 42.2 L238.55 42.15 Q240.1 41.75 240.5 40.65 240.15 39.3 241.8 38.1 243.8 36.8 246.45 37.7 L246.5 37.7 246.6 36.75 Q247.25 36.85 247.7 37.85 L248.3 37.75 248.45 36.8 249.35 38.05 249.75 38.35 M248.3 37.75 L249.35 38.05 248.3 37.75" fill="#12120e" fill-rule="evenodd" stroke="none"/>
      <path d="M249.75 38.35 Q250.25 38.95 250.0 39.5 250.65 39.8 250.65 40.5 L250.85 40.85 Q252.25 43.35 254.95 44.75 249.9 42.25 248.2 44.65 246.55 42.3 245.05 43.4 L244.95 44.15 Q242.9 45.95 242.05 48.0 232.55 47.0 225.75 45.0 232.2 44.15 236.65 42.2 L238.55 42.15 Q240.1 41.75 240.5 40.65 240.15 39.3 241.8 38.1 243.8 36.8 246.45 37.7 L246.5 37.7 246.6 36.75 Q247.25 36.85 247.7 37.85 L248.3 37.75 248.45 36.8 249.35 38.05 249.75 38.35 M249.35 38.05 L248.3 37.75" fill="none" stroke="#000000" stroke-linecap="round" stroke-linejoin="round" stroke-opacity="0.4" stroke-width="0.30000000000000004"/>
      <path d="M273.2 83.7 L272.9 83.95 Q283.25 74.65 295.25 79.65 295.55 78.15 294.65 77.4 296.4 78.25 295.9 80.05 L296.6 88.5 Q298.2 90.85 301.35 93.1 302.3 93.5 303.55 94.35 303.95 92.95 304.85 92.05 305.15 90.5 306.25 89.35 307.5 90.0 307.8 91.0 309.3 91.2 310.7 91.9 L310.95 90.55 Q311.8 90.9 312.0 92.4 314.8 89.95 317.45 88.65 317.75 87.6 319.55 87.25 318.6 87.7 318.25 89.15 318.7 94.0 315.4 99.5 313.9 96.95 308.2 101.0 308.25 99.3 304.45 101.75 L303.6 102.3 Q302.4 105.1 301.3 105.95 300.65 105.8 300.45 104.9 298.8 103.35 295.6 103.25 293.95 103.35 293.3 102.6 293.4 102.2 293.9 101.75 292.85 96.65 286.3 95.8 287.2 88.6 282.5 87.4 L282.4 87.35 Q281.0 81.95 273.2 83.7 M318.1 88.35 L317.45 88.65 318.1 88.35 M312.1 93.35 L312.0 92.4 312.1 93.35 M303.4 94.75 L303.55 94.35 303.4 94.75" fill="#12120e" fill-rule="evenodd" stroke="none"/>
      <path d="M273.2 83.7 L272.9 83.95 Q283.25 74.65 295.25 79.65 295.55 78.15 294.65 77.4 296.4 78.25 295.9 80.05 L296.6 88.5 Q298.2 90.85 301.35 93.1 302.3 93.5 303.55 94.35 303.95 92.95 304.85 92.05 305.15 90.5 306.25 89.35 307.5 90.0 307.8 91.0 309.3 91.2 310.7 91.9 L310.95 90.55 Q311.8 90.9 312.0 92.4 314.8 89.95 317.45 88.65 317.75 87.6 319.55 87.25 318.6 87.7 318.25 89.15 318.7 94.0 315.4 99.5 313.9 96.95 308.2 101.0 308.25 99.3 304.45 101.75 L303.6 102.3 Q302.4 105.1 301.3 105.95 300.65 105.8 300.45 104.9 298.8 103.35 295.6 103.25 293.95 103.35 293.3 102.6 293.4 102.2 293.9 101.75 292.85 96.65 286.3 95.8 287.2 88.6 282.5 87.4 L282.4 87.35 Q281.0 81.95 273.2 83.7 M303.55 94.35 L303.4 94.75 M312.0 92.4 L312.1 93.35 M317.45 88.65 L318.1 88.35" fill="none" stroke="#000000" stroke-linecap="round" stroke-linejoin="round" stroke-opacity="0.4" stroke-width="0.30000000000000004"/>
      <path d="M721.45 327.65 Q725.4 331.0 731.65 338.25 L741.55 349.1 Q746.3 333.85 780.65 339.5 792.6 341.45 799.2 349.05 L799.2 400.15 680.3 400.15 680.0 400.0 679.55 400.15 408.65 400.15 Q428.75 396.45 434.75 399.3 437.15 396.65 446.25 393.0 450.85 391.15 455.35 389.75 457.15 389.25 461.05 385.45 L465.25 381.35 Q469.05 379.25 479.3 378.75 484.0 371.9 493.1 364.55 508.3 352.25 522.45 352.75 531.7 353.1 538.35 358.1 L542.55 361.45 Q544.75 363.0 546.55 363.1 547.15 363.15 552.05 358.5 558.2 354.0 565.0 354.25 566.45 354.25 570.85 355.7 575.25 357.1 576.65 357.15 577.9 357.2 582.6 352.1 589.05 345.2 594.6 341.0 615.55 324.95 646.3 326.05 660.15 326.55 664.55 329.4 L666.65 331.4 Q667.55 332.3 668.65 332.35 670.55 332.4 679.1 327.15 688.45 321.55 692.2 320.6 708.7 316.8 721.45 327.65" fill="url(#decoration133-gradient18)" fill-rule="evenodd" stroke="none"/>
      <path d="M384.7 382.45 Q387.75 379.55 394.6 371.6 400.85 364.35 404.8 361.0 417.55 350.15 434.05 353.95 437.8 354.9 447.15 360.5 455.7 365.75 457.6 365.7 458.7 365.65 459.6 364.75 L461.7 362.75 Q466.1 359.9 479.95 359.4 510.7 358.3 531.65 374.35 537.2 378.55 543.65 385.45 548.35 390.55 549.6 390.5 551.0 390.45 555.4 389.05 559.8 387.6 561.25 387.6 568.05 387.35 574.2 391.85 579.1 396.5 579.7 396.45 581.5 396.35 583.7 394.8 L587.9 391.45 Q594.55 386.45 603.8 386.1 617.95 385.6 633.15 397.9 L635.1 399.5 319.7 399.5 Q323.45 376.45 345.6 372.85 379.95 367.2 384.7 382.45" fill="url(#decoration133-gradient19)" fill-rule="evenodd" stroke="none"/>
      <path d="M344.65 364.3 Q351.3 359.3 360.55 358.95 374.7 358.45 389.9 370.75 399.0 378.1 403.7 384.95 413.95 385.45 417.75 387.55 L421.95 391.65 Q425.85 395.45 427.65 395.95 L435.9 398.85 77.0 398.85 Q69.6 351.05 102.35 345.7 136.7 340.05 141.45 355.3 144.5 352.4 151.35 344.45 157.6 337.2 161.55 333.85 174.3 323.0 190.8 326.8 194.55 327.75 203.9 333.35 212.45 338.6 214.35 338.55 215.45 338.5 216.35 337.6 L218.45 335.6 Q222.85 332.75 236.7 332.25 267.45 331.15 288.4 347.2 293.95 351.4 300.4 358.3 305.1 363.4 306.35 363.35 307.75 363.3 312.15 361.9 316.55 360.45 318.0 360.45 324.8 360.2 330.95 364.7 335.85 369.35 336.45 369.3 338.25 369.2 340.45 367.65 L344.65 364.3" fill="url(#decoration133-gradient20)" fill-rule="evenodd" stroke="none"/>
      <path d="M334.9 383.45 L339.9 385.0 Q422.25 397.1 469.75 400.15 L177.95 400.15 178.45 398.5 Q179.95 394.05 182.5 390.5 190.4 379.8 205.15 382.25 206.3 381.1 208.95 376.65 211.6 372.3 214.15 369.8 222.6 361.55 241.15 360.75 252.85 360.3 258.45 372.6 261.2 378.75 261.65 385.0 L264.4 383.35 Q267.9 381.4 271.85 379.75 284.45 374.5 296.65 374.5 311.25 374.5 320.25 378.5 322.5 379.5 325.75 381.25 328.4 382.5 330.65 382.5 332.05 382.5 334.9 383.45" fill="url(#decoration133-gradient21)" fill-rule="evenodd" stroke="none"/>
      <path d="M21.4 360.75 Q33.1 360.3 38.7 372.6 41.45 378.75 41.9 385.0 L44.65 383.35 Q48.15 381.4 52.1 379.75 64.7 374.5 76.9 374.5 91.5 374.5 100.5 378.5 102.75 379.5 106.0 381.25 108.65 382.5 110.9 382.5 112.3 382.5 115.15 383.45 L120.15 385.0 Q202.45 397.1 249.9 400.15 L0.35 400.15 0.35 365.55 Q8.4 361.3 21.4 360.75" fill="url(#decoration133-gradient22)" fill-rule="evenodd" stroke="none"/>
    </g>
    <radialGradient cx="0" cy="0" gradientTransform="matrix(0.2562, 0.0, 0.0, 0.3244, 763.5, 331.1)" gradientUnits="userSpaceOnUse" id="decoration133-gradient17" r="819.2" spreadMethod="pad">
      <stop offset="0.0" stop-color="#ffd035" stop-opacity="0.2784314"/>
      <stop offset="0.1803921568627451" stop-color="#ffac35" stop-opacity="0.2"/>
      <stop offset="0.7450980392156863" stop-color="#a14b10" stop-opacity="0.0"/>
    </radialGradient>
    <linearGradient gradientTransform="matrix(-0.0091, -0.098, 0.0731, -0.0029, 484.4, 412.1)" gradientUnits="userSpaceOnUse" id="decoration133-gradient18" spreadMethod="pad" x1="-819.2" x2="819.2">
      <stop offset="0.0" stop-color="#bec6c9" stop-opacity="0.5176471"/>
      <stop offset="0.9921568627450981" stop-color="#eefbff" stop-opacity="0.0"/>
    </linearGradient>
    <linearGradient gradientTransform="matrix(0.0091, -0.098, -0.0731, -0.0029, 641.85, 445.45)" gradientUnits="userSpaceOnUse" id="decoration133-gradient19" spreadMethod="pad" x1="-819.2" x2="819.2">
      <stop offset="0.0" stop-color="#bec6c9" stop-opacity="0.5176471"/>
      <stop offset="0.9921568627450981" stop-color="#eefbff" stop-opacity="0.0"/>
    </linearGradient>
    <linearGradient gradientTransform="matrix(0.0091, -0.098, -0.0731, -0.0029, 398.6, 418.3)" gradientUnits="userSpaceOnUse" id="decoration133-gradient20" spreadMethod="pad" x1="-819.2" x2="819.2">
      <stop offset="0.0" stop-color="#bec6c9" stop-opacity="0.5176471"/>
      <stop offset="0.9921568627450981" stop-color="#eefbff" stop-opacity="0.0"/>
    </linearGradient>
    <linearGradient gradientTransform="matrix(0.0, -0.1053, 0.0304, 0.0, 632.45, 423.1)" gradientUnits="userSpaceOnUse" id="decoration133-gradient21" spreadMethod="pad" x1="-819.2" x2="819.2">
      <stop offset="0.0" stop-color="#bec6c9" stop-opacity="0.5176471"/>
      <stop offset="0.9921568627450981" stop-color="#eefbff" stop-opacity="0.0"/>
    </linearGradient>
    <linearGradient gradientTransform="matrix(0.0, -0.1053, 0.0304, 0.0, 412.7, 423.1)" gradientUnits="userSpaceOnUse" id="decoration133-gradient22" spreadMethod="pad" x1="-819.2" x2="819.2">
      <stop offset="0.0" stop-color="#bec6c9" stop-opacity="0.5176471"/>
      <stop offset="0.9921568627450981" stop-color="#eefbff" stop-opacity="0.0"/>
    </linearGradient>
  </defs>
</svg>
