<?xml version="1.0" encoding="UTF-8" standalone="no"?>
<svg xmlns:xlink="http://www.w3.org/1999/xlink" height="204.75px" width="136.6px" xmlns="http://www.w3.org/2000/svg">
  <g transform="matrix(1.0, 0.0, 0.0, 1.0, 73.8, 204.3)">
    <use data-characterId="338" height="204.75" transform="matrix(1.0, 0.0, 0.0, 1.0, -73.8, -204.3)" width="136.6" xlink:href="#decoration134-shape0"/>
  </g>
  <defs>
    <g id="decoration134-shape0" transform="matrix(1.0, 0.0, 0.0, 1.0, 73.8, 204.3)">
      <path d="M2.8 -175.65 L-3.5 -179.4 -2.95 -181.15 Q9.4 -176.15 11.75 -174.45 L8.4 -182.25 2.4 -189.1 -5.45 -197.3 -2.35 -197.35 Q3.2 -193.55 5.65 -191.15 7.95 -195.95 11.0 -200.05 12.1 -201.5 14.75 -203.0 L17.15 -204.1 17.35 -203.2 Q11.7 -196.25 9.35 -192.3 8.0 -189.9 7.75 -188.25 L13.5 -179.1 Q17.65 -172.35 18.5 -171.6 18.25 -169.8 18.7 -162.0 L19.2 -153.4 Q18.5 -148.95 18.7 -148.1 18.9 -147.25 9.15 -131.95 -0.6 -116.65 -1.45 -112.75 L-1.85 -109.1 -1.95 -106.4 3.1 -112.6 3.45 -113.0 Q7.2 -115.3 17.45 -120.8 19.15 -122.2 27.6 -127.25 L34.55 -131.3 32.95 -128.85 31.8 -127.2 Q30.5 -125.75 26.15 -123.6 L21.35 -121.35 Q17.55 -119.5 16.15 -118.35 8.7 -112.1 5.45 -107.95 3.35 -105.35 0.25 -102.9 -2.85 -100.5 -0.7 -95.0 L-0.8 -95.0 1.1 -87.0 Q1.7 -82.85 1.7 -81.15 1.7 -77.95 0.75 -74.55 L0.7 -76.35 0.9 -78.75 0.7 -76.35 0.75 -74.55 -0.45 -71.2 Q-2.55 -66.15 -2.55 -65.15 -2.55 -64.2 -0.2 -55.2 L-1.8 -51.15 -0.05 -46.75 1.4 -40.5 Q1.4 -37.6 0.6 -35.35 -1.1 -29.95 -1.1 -28.3 L-0.2 -24.7 Q-0.95 -20.55 -0.95 -16.4 L0.6 -8.55 Q2.2 -1.25 2.55 -0.2 L1.2 -0.1 -2.0 -18.8 Q-2.4 -14.3 -3.15 -10.8 -3.7 -8.15 -3.7 -5.8 L-5.55 -2.6 -7.4 0.25 Q-6.7 -1.65 -5.95 -4.25 -4.55 -9.4 -4.55 -12.7 L-5.3 -18.7 -3.75 -24.85 Q-3.35 -26.25 -2.5 -35.65 -2.45 -36.9 -2.9 -41.75 -3.4 -47.6 -4.2 -50.6 L-5.3 -55.45 Q-6.35 -60.15 -6.15 -60.7 -5.95 -61.6 -5.25 -70.1 -3.9 -73.25 -3.9 -74.3 -3.9 -75.45 -4.15 -75.85 L-5.4 -77.75 -5.7 -80.5 -4.9 -79.6 Q-4.0 -78.75 -3.65 -78.75 -2.15 -78.75 -1.5 -79.95 -0.85 -81.15 -1.0 -83.7 -1.15 -86.25 -2.85 -87.9 L-2.95 -88.0 Q-4.3 -87.25 -4.5 -85.0 -4.65 -82.75 -3.35 -83.0 -4.65 -82.75 -4.5 -85.0 -4.3 -87.25 -2.95 -88.0 L-2.85 -87.9 Q-1.95 -86.65 -1.55 -84.25 -1.15 -81.9 -3.1 -80.7 L-5.35 -80.6 -5.8 -82.25 -5.85 -84.85 Q-4.35 -88.5 -3.6 -88.85 -3.05 -89.1 -4.1 -92.6 L-4.9 -95.0 -6.05 -95.0 -6.1 -95.0 -7.25 -97.0 Q-7.45 -101.85 -8.3 -102.95 -9.2 -104.05 -15.9 -107.75 -17.1 -108.6 -19.25 -109.25 L-22.8 -110.25 -23.15 -110.35 -27.8 -113.25 -33.8 -117.15 -39.95 -120.55 -42.05 -121.15 -47.55 -123.15 -51.9 -124.3 Q-53.15 -124.65 -59.0 -122.7 L-61.3 -123.8 Q-58.9 -125.1 -56.15 -125.7 L-66.1 -127.7 -57.35 -127.95 -46.6 -125.55 -48.2 -126.7 -54.7 -131.8 -60.8 -136.9 -64.15 -139.95 -71.45 -139.35 -73.6 -140.7 -65.8 -142.4 -67.8 -144.75 Q-65.45 -143.7 -62.4 -141.05 L-54.75 -133.85 -49.95 -130.6 Q-46.25 -128.25 -45.05 -126.95 -43.2 -125.0 -38.6 -124.3 L-37.8 -124.2 Q-32.5 -121.45 -30.4 -120.15 L-20.25 -113.45 -20.3 -113.6 -19.65 -113.1 Q-18.8 -112.45 -18.05 -112.35 -17.3 -113.95 -18.85 -115.95 L-24.15 -122.05 Q-27.85 -126.2 -29.95 -126.95 L-32.9 -128.0 Q-40.2 -133.55 -43.0 -134.85 L-38.45 -134.85 -33.15 -131.5 Q-27.2 -127.85 -23.85 -124.4 -20.1 -119.2 -16.7 -117.05 -15.6 -111.8 -13.3 -109.85 -11.35 -108.4 -7.35 -107.4 L-6.85 -110.7 -6.0 -114.4 -14.0 -121.6 Q-20.35 -126.45 -25.1 -128.7 L-21.15 -129.6 -8.0 -122.05 Q-8.9 -122.1 -7.1 -120.6 L-5.7 -119.4 Q-6.05 -119.7 -5.0 -119.7 L-4.85 -120.65 Q-4.85 -124.65 -8.65 -130.4 -11.95 -135.45 -14.7 -137.3 -19.0 -140.25 -21.45 -141.4 -25.05 -143.05 -28.55 -143.1 L-28.65 -143.1 -29.7 -143.0 -32.85 -143.6 Q-36.0 -145.15 -38.35 -144.95 -43.75 -146.9 -45.4 -146.95 -46.7 -147.05 -47.25 -146.2 L-47.35 -146.45 Q-47.35 -148.35 -36.9 -146.9 -28.25 -145.7 -25.75 -144.85 L-31.45 -150.95 Q-33.6 -152.55 -35.55 -154.55 L-41.9 -161.15 -43.15 -162.35 -49.55 -160.9 -54.7 -162.85 -55.05 -163.6 -49.8 -162.25 -45.2 -164.3 Q-47.35 -166.1 -48.95 -167.1 L-53.05 -169.2 Q-53.9 -169.7 -55.3 -171.9 L-47.95 -168.2 Q-41.9 -165.05 -40.15 -163.1 L-36.6 -159.7 -32.95 -156.1 -30.3 -153.6 Q-30.0 -153.65 -28.65 -152.6 L-27.15 -151.3 -22.3 -145.9 -18.45 -143.2 -13.3 -139.95 -11.1 -138.4 -13.2 -153.0 -13.05 -152.8 Q-10.85 -150.35 -10.8 -149.1 L-10.8 -150.35 Q-10.8 -154.6 -14.15 -158.25 L-16.35 -160.3 -20.5 -167.3 -33.85 -178.55 -44.5 -180.35 -46.6 -181.15 -49.05 -182.15 -43.4 -181.6 -37.65 -180.8 -36.65 -180.8 Q-37.0 -181.1 -40.0 -182.4 L-36.85 -181.85 Q-39.0 -183.9 -44.05 -187.1 L-49.0 -189.7 -49.0 -192.25 Q-44.15 -190.95 -40.65 -188.15 -32.6 -181.6 -24.9 -174.55 L-19.65 -170.25 -16.75 -167.1 Q-13.65 -163.5 -12.75 -161.3 L-12.25 -160.05 -12.2 -160.3 -11.4 -158.4 -11.0 -158.4 -10.1 -161.8 Q-9.6 -163.5 -9.6 -164.45 -9.6 -165.25 -10.35 -168.15 -11.2 -171.3 -11.7 -172.05 -12.6 -173.45 -13.6 -176.15 L-15.1 -178.45 -15.65 -180.0 -18.25 -184.25 -17.7 -185.45 -13.85 -182.8 Q-10.5 -176.25 -9.75 -172.6 L-7.35 -164.9 -9.6 -147.1 -5.9 -132.5 -5.1 -130.85 Q-4.4 -129.5 -4.4 -128.9 L-1.55 -124.45 -1.55 -124.3 -1.45 -124.45 -1.05 -125.05 -0.8 -120.3 1.15 -123.4 Q3.0 -126.3 3.7 -128.0 L4.45 -130.5 4.4 -133.05 7.5 -137.1 Q9.5 -139.6 12.4 -145.25 L14.85 -150.4 16.45 -169.85 2.8 -175.65 M27.85 -157.8 L29.05 -158.7 33.6 -161.8 34.9 -162.9 34.85 -163.1 36.0 -164.25 Q37.5 -165.95 39.25 -168.95 L41.9 -173.25 44.5 -177.3 Q45.35 -179.0 48.45 -181.85 L46.25 -178.4 41.6 -171.15 39.7 -167.2 Q38.55 -164.75 36.95 -163.25 35.3 -161.75 32.65 -159.95 29.5 -157.8 28.45 -157.8 L27.85 -157.8 M9.95 -115.05 L8.75 -114.2 7.8 -113.4 8.75 -114.2 9.95 -115.05 M1.2 -52.9 L1.55 -46.75 0.4 -47.95 1.2 -52.9 M-34.8 -119.6 Q-36.45 -120.25 -36.85 -120.65 -36.45 -120.25 -34.8 -119.6 M-20.15 -111.0 L-21.85 -112.2 -24.9 -113.75 -21.85 -112.2 -20.15 -111.0 M-2.9 -120.15 Q-2.95 -118.7 -3.35 -117.75 -2.95 -118.7 -2.9 -120.15 M-29.1 -117.3 Q-29.4 -118.1 -34.6 -120.65 -29.4 -118.1 -29.1 -117.3 M-3.75 -19.9 Q-3.4 -21.85 -2.5 -35.65 -3.4 -21.85 -3.75 -19.9 M-4.55 -103.2 L-3.1 -96.9 -4.55 -103.2" fill="#413831" fill-rule="evenodd" stroke="none"/>
      <path d="M19.2 -153.4 L19.1 -150.3 Q23.25 -154.35 27.85 -157.8 L28.45 -157.8 Q29.5 -157.8 32.65 -159.95 35.3 -161.75 36.95 -163.25 38.55 -164.75 39.7 -167.2 L41.6 -171.15 46.25 -178.4 48.45 -181.85 50.65 -183.85 56.8 -188.9 Q56.05 -186.45 55.3 -185.8 L51.9 -182.9 Q50.6 -181.65 49.0 -179.45 L53.9 -178.25 58.6 -180.55 58.4 -179.75 54.0 -176.8 47.5 -177.1 46.55 -175.7 42.1 -167.85 Q40.7 -165.5 39.05 -163.5 L36.35 -159.6 34.7 -159.15 33.35 -158.45 32.0 -157.65 Q25.95 -153.55 21.65 -147.8 17.2 -141.7 13.15 -135.5 L7.0 -125.5 Q4.8 -121.6 3.65 -118.95 2.25 -115.7 1.45 -111.75 L1.45 -111.65 3.45 -113.0 3.1 -112.6 -1.95 -106.4 -1.85 -109.1 -1.45 -112.75 Q-0.6 -116.65 9.15 -131.95 18.9 -147.25 18.7 -148.1 18.5 -148.95 19.2 -153.4 M34.55 -131.3 Q36.25 -132.3 36.6 -132.35 L40.3 -135.65 43.9 -139.3 47.5 -142.7 Q49.25 -144.6 55.25 -147.8 L62.6 -151.5 Q61.25 -149.3 60.35 -148.8 L56.3 -146.7 Q54.65 -145.7 52.5 -143.85 L57.15 -141.85 62.4 -143.2 62.0 -142.4 56.9 -140.45 50.45 -141.9 49.2 -140.75 42.9 -134.1 38.75 -130.55 21.65 -119.4 Q20.7 -118.7 18.3 -117.3 L15.5 -115.55 Q13.45 -113.95 11.35 -111.7 L7.75 -107.65 4.65 -103.45 4.6 -103.35 Q-0.15 -100.4 -0.15 -97.2 -0.15 -95.6 1.25 -93.0 L1.85 -91.85 Q2.05 -83.9 3.05 -73.55 L1.8 -70.25 Q0.35 -66.6 0.35 -65.4 0.35 -62.6 1.7 -60.15 L1.1 -58.5 0.6 -62.05 1.1 -58.5 -0.2 -55.2 Q-2.55 -64.2 -2.55 -65.15 -2.55 -66.15 -0.45 -71.2 L0.75 -74.55 Q1.7 -77.95 1.7 -81.15 1.7 -82.85 1.1 -87.0 L-0.8 -95.0 -0.7 -95.0 Q-2.85 -100.5 0.25 -102.9 3.35 -105.35 5.45 -107.95 8.7 -112.1 16.15 -118.35 17.55 -119.5 21.35 -121.35 L26.15 -123.6 Q30.5 -125.75 31.8 -127.2 L32.95 -128.85 34.55 -131.3 M3.0 -55.8 Q2.95 -54.3 3.8 -52.1 4.6 -50.1 4.75 -50.2 5.95 -51.1 8.85 -54.9 6.7 -50.55 5.7 -47.1 L5.7 -44.65 Q5.35 -40.0 4.9 -37.85 L3.95 -34.45 Q2.85 -31.15 2.95 -24.3 2.65 -24.9 2.1 -26.75 L1.4 -29.45 0.95 -30.95 -0.2 -24.7 -1.1 -28.3 Q-1.1 -29.95 0.6 -35.35 1.4 -37.6 1.4 -40.5 L-0.05 -46.75 0.4 -47.95 1.55 -46.75 1.2 -52.9 3.0 -55.8 M1.2 -0.1 L-7.4 0.25 -5.55 -2.6 -3.7 -5.8 Q-3.7 -8.15 -3.15 -10.8 -2.4 -14.3 -2.0 -18.8 L1.2 -0.1 M-20.3 -113.6 L-21.1 -116.65 -29.15 -125.1 -32.9 -128.0 -29.95 -126.95 Q-27.85 -126.2 -24.15 -122.05 L-18.85 -115.95 Q-17.3 -113.95 -18.05 -112.35 -18.8 -112.45 -19.65 -113.1 L-20.3 -113.6 M-8.0 -122.05 L-11.3 -129.9 Q-12.0 -131.15 -14.0 -133.55 L-16.15 -135.95 -19.65 -138.65 -23.35 -141.15 Q-25.3 -141.95 -28.6 -142.75 L-29.7 -143.0 -28.65 -143.1 -28.55 -143.1 Q-25.05 -143.05 -21.45 -141.4 -19.0 -140.25 -14.7 -137.3 -11.95 -135.45 -8.65 -130.4 -4.85 -124.65 -4.85 -120.65 L-5.0 -119.7 Q-6.05 -119.7 -5.7 -119.4 L-7.1 -120.6 Q-8.9 -122.1 -8.0 -122.05 M-12.2 -160.3 L-12.2 -160.35 -10.9 -166.45 -15.1 -178.45 -13.6 -176.15 Q-12.6 -173.45 -11.7 -172.05 -11.2 -171.3 -10.35 -168.15 -9.6 -165.25 -9.6 -164.45 -9.6 -163.5 -10.1 -161.8 L-11.0 -158.4 -11.4 -158.4 -12.2 -160.3 M-5.9 -132.5 L-1.15 -142.7 0.95 -147.3 0.6 -151.4 Q0.25 -153.4 -1.55 -156.95 L0.8 -156.6 2.1 -153.8 2.65 -151.6 4.4 -157.4 8.6 -163.8 9.35 -161.65 1.7 -141.7 Q-1.0 -135.1 -4.4 -128.9 -4.4 -129.5 -5.1 -130.85 L-5.9 -132.5 M14.85 -150.4 L14.85 -168.45 2.8 -175.65 16.45 -169.85 14.85 -150.4 M0.9 -72.45 L0.75 -74.55 0.9 -72.45 M1.8 -45.6 Q1.8 -45.2 2.7 -44.4 3.55 -43.65 3.55 -43.95 L3.4 -45.2 2.65 -46.2 1.9 -46.35 1.8 -45.6 M2.45 -38.2 L2.0 -32.55 1.4 -29.45 2.0 -32.55 2.45 -38.2 M-0.2 -1.5 L-1.05 -4.05 Q-1.7 -6.25 -1.6 -7.4 -1.7 -6.25 -1.05 -4.05 L-0.2 -1.5" fill="#2e261f" fill-rule="evenodd" stroke="none"/>
      <path d="M4.2 -0.2 L2.55 -0.2 Q2.2 -1.25 0.6 -8.55 L-0.95 -16.4 Q-0.95 -20.55 -0.2 -24.7 L0.15 -21.85 Q4.05 -2.25 4.2 -0.2 M-7.25 -97.0 L-10.8 -102.8 -23.15 -110.35 -22.8 -110.25 -19.25 -109.25 Q-17.1 -108.6 -15.9 -107.75 -9.2 -104.05 -8.3 -102.95 -7.45 -101.85 -7.25 -97.0 M-13.2 -153.0 L-13.65 -155.75 -16.35 -160.3 -14.15 -158.25 Q-10.8 -154.6 -10.8 -150.35 L-10.8 -149.1 Q-10.85 -150.35 -13.05 -152.8 L-13.2 -153.0 M-1.05 -125.05 Q1.45 -129.15 4.4 -133.05 L4.45 -130.5 3.7 -128.0 Q3.0 -126.3 1.15 -123.4 L-0.8 -120.3 -1.05 -125.05 M1.2 -52.9 L0.4 -47.95 -0.05 -46.75 -1.8 -51.15 -0.2 -55.2 1.2 -52.9" fill="#514a27" fill-rule="evenodd" stroke="none"/>
      <path d="M4.6 -103.35 L4.05 -102.6 2.4 -99.2 1.8 -95.0 1.85 -91.85 1.25 -93.0 Q-0.15 -95.6 -0.15 -97.2 -0.15 -100.4 4.6 -103.35 M3.05 -73.55 L3.1 -71.95 1.8 -66.1 Q2.15 -66.25 2.75 -63.45 L1.7 -60.15 Q0.35 -62.6 0.35 -65.4 0.35 -66.6 1.8 -70.25 L3.05 -73.55 M2.95 -24.3 Q2.95 -19.75 3.55 -13.7 2.4 -15.55 0.15 -21.85 L-0.2 -24.7 0.95 -30.95 1.4 -29.45 2.1 -26.75 Q2.65 -24.9 2.95 -24.3 M0.4 -25.15 L1.4 -29.45 0.4 -25.15" fill="#231b15" fill-rule="evenodd" stroke="none"/>
      <path d="M2.75 -63.45 L3.0 -55.8 1.2 -52.9 -0.2 -55.2 1.1 -58.5 1.4 -55.55 1.1 -58.5 1.7 -60.15 2.75 -63.45 M3.55 -13.7 Q5.0 -8.9 6.85 -4.8 8.65 -0.75 9.75 -0.2 L4.2 -0.2 Q4.05 -2.25 0.15 -21.85 2.4 -15.55 3.55 -13.7 M1.8 -45.6 L1.9 -46.35 2.65 -46.2 3.4 -45.2 3.55 -43.95 Q3.55 -43.65 2.7 -44.4 1.8 -45.2 1.8 -45.6" fill="#3a3311" fill-rule="evenodd" stroke="none"/>
      <path d="M-5.25 -70.1 Q-5.1 -73.85 -5.4 -77.75 L-4.15 -75.85 Q-3.9 -75.45 -3.9 -74.3 -3.9 -73.25 -5.25 -70.1 M-5.7 -80.5 L-5.8 -82.25 -5.35 -80.6 -3.1 -80.7 Q-1.15 -81.9 -1.55 -84.25 -1.95 -86.65 -2.85 -87.9 -1.15 -86.25 -1.0 -83.7 -0.85 -81.15 -1.5 -79.95 -2.15 -78.75 -3.65 -78.75 -4.0 -78.75 -4.9 -79.6 L-5.7 -80.5 M-5.85 -84.85 L-6.05 -95.0 -4.9 -95.0 -4.1 -92.6 Q-3.05 -89.1 -3.6 -88.85 -4.35 -88.5 -5.85 -84.85 M-67.8 -144.75 L-70.05 -146.9 -64.1 -144.65 -63.1 -142.85 Q-61.75 -140.8 -59.75 -139.4 L-53.8 -134.4 Q-49.95 -130.95 -47.2 -129.25 L-39.05 -124.85 -37.8 -124.2 -38.6 -124.3 Q-43.2 -125.0 -45.05 -126.95 -46.25 -128.25 -49.95 -130.6 L-54.75 -133.85 -62.4 -141.05 Q-65.45 -143.7 -67.8 -144.75 M-49.05 -182.15 L-51.55 -183.25 -49.55 -183.25 -43.2 -182.9 -40.0 -182.4 Q-37.0 -181.1 -36.65 -180.8 L-37.65 -180.8 -43.4 -181.6 -49.05 -182.15" fill="#4a413b" fill-rule="evenodd" stroke="none"/>
      <path d="M-7.4 0.25 L-11.45 0.25 Q-9.25 -0.1 -8.85 -4.85 -8.45 -8.95 -6.8 -14.9 L-5.3 -20.35 Q-4.1 -24.75 -2.5 -35.65 -3.35 -26.25 -3.75 -24.85 L-5.3 -18.7 -4.55 -12.7 Q-4.55 -9.4 -5.95 -4.25 -6.7 -1.65 -7.4 0.25" fill="#665c54" fill-rule="evenodd" stroke="none"/>
      <path d="M2.8 -175.65 L-3.5 -179.4 -2.95 -181.15 Q9.4 -176.15 11.75 -174.45 L8.4 -182.25 2.4 -189.1 -5.45 -197.3 -2.35 -197.35 Q3.2 -193.55 5.65 -191.15 7.95 -195.95 11.0 -200.05 12.1 -201.5 14.75 -203.0 L17.15 -204.1 17.35 -203.2 Q11.7 -196.25 9.35 -192.3 8.0 -189.9 7.75 -188.25 L13.5 -179.1 Q17.65 -172.35 18.5 -171.6 18.25 -169.8 18.7 -162.0 L19.2 -153.4 19.1 -150.3 Q23.25 -154.35 27.85 -157.8 L29.05 -158.7 33.6 -161.8 34.9 -162.9 34.85 -163.1 36.0 -164.25 Q37.5 -165.95 39.25 -168.95 L41.9 -173.25 44.5 -177.3 Q45.35 -179.0 48.45 -181.85 L50.65 -183.85 56.8 -188.9 Q56.05 -186.45 55.3 -185.8 L51.9 -182.9 Q50.6 -181.65 49.0 -179.45 L53.9 -178.25 58.6 -180.55 58.4 -179.75 54.0 -176.8 47.5 -177.1 46.55 -175.7 42.1 -167.85 Q40.7 -165.5 39.05 -163.5 L36.35 -159.6 34.7 -159.15 33.35 -158.45 32.0 -157.65 Q25.95 -153.55 21.65 -147.8 17.2 -141.7 13.15 -135.5 L7.0 -125.5 Q4.8 -121.6 3.65 -118.95 2.25 -115.7 1.45 -111.75 L1.45 -111.65 3.45 -113.0 Q7.2 -115.3 17.45 -120.8 19.15 -122.2 27.6 -127.25 L34.55 -131.3 Q36.25 -132.3 36.6 -132.35 L40.3 -135.65 43.9 -139.3 47.5 -142.7 Q49.25 -144.6 55.25 -147.8 L62.6 -151.5 Q61.25 -149.3 60.35 -148.8 L56.3 -146.7 Q54.65 -145.7 52.5 -143.85 L57.15 -141.85 62.4 -143.2 62.0 -142.4 56.9 -140.45 50.45 -141.9 49.2 -140.75 42.9 -134.1 38.75 -130.55 21.65 -119.4 Q20.7 -118.7 18.3 -117.3 L15.5 -115.55 Q13.45 -113.95 11.35 -111.7 L7.75 -107.65 4.65 -103.45 4.6 -103.35 4.05 -102.6 M2.4 -99.2 L1.8 -95.0 1.85 -91.85 Q2.05 -83.9 3.05 -73.55 L3.1 -71.95 1.8 -66.1 Q2.15 -66.25 2.75 -63.45 L3.0 -55.8 Q2.95 -54.3 3.8 -52.1 4.6 -50.1 4.75 -50.2 5.95 -51.1 8.85 -54.9 6.7 -50.55 5.7 -47.1 L5.7 -44.65 Q5.35 -40.0 4.9 -37.85 L3.95 -34.45 Q2.85 -31.15 2.95 -24.3 2.95 -19.75 3.55 -13.7 5.0 -8.9 6.85 -4.8 8.65 -0.75 9.75 -0.2 L4.2 -0.2 2.55 -0.2 1.2 -0.1 -7.4 0.25 -11.45 0.25 Q-9.25 -0.1 -8.85 -4.85 -8.45 -8.95 -6.8 -14.9 L-5.3 -20.35 Q-4.1 -24.75 -2.5 -35.65 -2.45 -36.9 -2.9 -41.75 -3.4 -47.6 -4.2 -50.6 L-5.3 -55.45 Q-6.35 -60.15 -6.15 -60.7 -5.95 -61.6 -5.25 -70.1 -5.1 -73.85 -5.4 -77.75 L-5.7 -80.5 -5.8 -82.25 -5.85 -84.85 -6.05 -95.0 M-6.1 -95.0 L-7.25 -97.0 -10.8 -102.8 -23.15 -110.35 -27.8 -113.25 -33.8 -117.15 -39.95 -120.55 -42.05 -121.15 -47.55 -123.15 -51.9 -124.3 Q-53.15 -124.65 -59.0 -122.7 L-61.3 -123.8 Q-58.9 -125.1 -56.15 -125.7 L-66.1 -127.7 -57.35 -127.95 -46.6 -125.55 -48.2 -126.7 -54.7 -131.8 -60.8 -136.9 -64.15 -139.95 -71.45 -139.35 -73.6 -140.7 -65.8 -142.4 -67.8 -144.75 -70.05 -146.9 -64.1 -144.65 -63.1 -142.85 Q-61.75 -140.8 -59.75 -139.4 L-53.8 -134.4 Q-49.95 -130.95 -47.2 -129.25 L-39.05 -124.85 -37.8 -124.2 Q-32.5 -121.45 -30.4 -120.15 L-20.25 -113.45 -20.3 -113.6 -21.1 -116.65 -29.15 -125.1 -32.9 -128.0 Q-40.2 -133.55 -43.0 -134.85 L-38.45 -134.85 -33.15 -131.5 Q-27.2 -127.85 -23.85 -124.4 -20.1 -119.2 -16.7 -117.05 -15.6 -111.8 -13.3 -109.85 -11.35 -108.4 -7.35 -107.4 L-6.85 -110.7 -6.0 -114.4 -14.0 -121.6 Q-20.35 -126.45 -25.1 -128.7 L-21.15 -129.6 -8.0 -122.05 -11.3 -129.9 Q-12.0 -131.15 -14.0 -133.55 L-16.15 -135.95 -19.65 -138.65 -23.35 -141.15 Q-25.3 -141.95 -28.6 -142.75 L-29.7 -143.0 -32.85 -143.6 Q-36.0 -145.15 -38.35 -144.95 -43.75 -146.9 -45.4 -146.95 -46.7 -147.05 -47.25 -146.2 L-47.35 -146.45 Q-47.35 -148.35 -36.9 -146.9 -28.25 -145.7 -25.75 -144.85 L-31.45 -150.95 Q-33.6 -152.55 -35.55 -154.55 L-41.9 -161.15 -43.15 -162.35 -49.55 -160.9 -54.7 -162.85 -55.05 -163.6 -49.8 -162.25 -45.2 -164.3 Q-47.35 -166.1 -48.95 -167.1 L-53.05 -169.2 Q-53.9 -169.7 -55.3 -171.9 L-47.95 -168.2 Q-41.9 -165.05 -40.15 -163.1 L-36.6 -159.7 -32.95 -156.1 -30.3 -153.6 Q-30.0 -153.65 -28.65 -152.6 L-27.15 -151.3 -22.3 -145.9 -18.45 -143.2 -13.3 -139.95 -11.1 -138.4 -13.2 -153.0 -13.65 -155.75 -16.35 -160.3 -20.5 -167.3 -33.85 -178.55 -44.5 -180.35 -46.6 -181.15 -49.05 -182.15 -51.55 -183.25 -49.55 -183.25 -43.2 -182.9 -40.0 -182.4 -36.85 -181.85 Q-39.0 -183.9 -44.05 -187.1 L-49.0 -189.7 -49.0 -192.25 Q-44.15 -190.95 -40.65 -188.15 -32.6 -181.6 -24.9 -174.55 L-19.65 -170.25 -16.75 -167.1 Q-13.65 -163.5 -12.75 -161.3 L-12.25 -160.05 -12.2 -160.3 M-12.2 -160.35 L-10.9 -166.45 -15.1 -178.45 -15.65 -180.0 -18.25 -184.25 -17.7 -185.45 -13.85 -182.8 Q-10.5 -176.25 -9.75 -172.6 L-7.35 -164.9 -9.6 -147.1 -5.9 -132.5 -1.15 -142.7 0.95 -147.3 0.6 -151.4 Q0.25 -153.4 -1.55 -156.95 L0.8 -156.6 2.1 -153.8 2.65 -151.6 4.4 -157.4 8.6 -163.8 9.35 -161.65 1.7 -141.7 Q-1.0 -135.1 -4.4 -128.9 L-1.55 -124.45 -1.55 -124.3 -1.45 -124.45 -1.05 -125.05 Q1.45 -129.15 4.4 -133.05 L7.5 -137.1 Q9.5 -139.6 12.4 -145.25 L14.85 -150.4 14.85 -168.45 2.8 -175.65 M-2.5 -35.65 Q-3.4 -21.85 -3.75 -19.9" fill="none" stroke="#000000" stroke-linecap="round" stroke-linejoin="round" stroke-opacity="0.3882353" stroke-width="0.4"/>
      <path d="M7.8 -113.4 L8.75 -114.2 9.95 -115.05 M0.9 -78.75 L0.7 -76.35 0.75 -74.55 0.9 -72.45 M1.1 -58.5 L1.4 -55.55 M1.1 -58.5 L0.6 -62.05 M1.4 -29.45 L2.0 -32.55 2.45 -38.2 M1.4 -29.45 L0.4 -25.15 M-24.9 -113.75 L-21.85 -112.2 -20.15 -111.0 M-36.85 -120.65 Q-36.45 -120.25 -34.8 -119.6 M-34.6 -120.65 Q-29.4 -118.1 -29.1 -117.3 M-3.35 -117.75 Q-2.95 -118.7 -2.9 -120.15 M-2.85 -87.9 L-2.95 -88.0 Q-4.3 -87.25 -4.5 -85.0 -4.65 -82.75 -3.35 -83.0 M-2.85 -87.9 Q-1.15 -86.25 -1.0 -83.7 -0.85 -81.15 -1.5 -79.95 -2.15 -78.75 -3.65 -78.75 -4.0 -78.75 -4.9 -79.6 L-5.7 -80.5 M-1.6 -7.4 Q-1.7 -6.25 -1.05 -4.05 L-0.2 -1.5 M-3.1 -96.9 L-4.55 -103.2" fill="none" stroke="#000000" stroke-linecap="round" stroke-linejoin="round" stroke-opacity="0.21176471" stroke-width="0.4"/>
      <path d="M4.05 -102.6 L2.4 -99.2" fill="none" stroke="#000000" stroke-linecap="round" stroke-linejoin="round" stroke-opacity="0.4117647" stroke-width="0.5"/>
    </g>
  </defs>
</svg>
