<?xml version="1.0" encoding="UTF-8" standalone="no"?>
<svg xmlns:xlink="http://www.w3.org/1999/xlink" height="63.7px" width="69.3px" xmlns="http://www.w3.org/2000/svg">
  <g transform="matrix(1.0, 0.0, 0.0, 1.0, 34.95, 58.7)">
    <use height="51.6" transform="matrix(1.0, 0.0, 0.0, 1.0, -34.95, -51.6)" width="69.3" xlink:href="#decoration135-shape0"/>
    <use height="116.85" transform="matrix(0.1371, 0.0367, -0.0569, 0.2122, -27.4906, -41.0651)" width="220.6" xlink:href="#decoration135-sprite0"/>
    <use height="116.85" transform="matrix(-0.1371, 0.0367, 0.0569, 0.2122, 24.6406, -39.3151)" width="220.6" xlink:href="#decoration135-sprite0"/>
    <use height="116.85" transform="matrix(-0.2471, 0.0, 0.0, 0.2197, 26.6076, -20.6609)" width="220.6" xlink:href="#decoration135-sprite0"/>
    <use height="15.95" transform="matrix(1.0, 0.0, 0.0, 1.0, -11.55, -58.7)" width="19.75" xlink:href="#decoration135-shape2"/>
  </g>
  <defs>
    <g id="decoration135-shape0" transform="matrix(1.0, 0.0, 0.0, 1.0, 34.95, 51.6)">
      <path d="M-7.7 -50.95 L-4.65 -49.05 Q-3.35 -48.45 0.65 -45.45 0.65 -44.6 -0.1 -44.6 -1.05 -44.6 -4.6 -47.2 -8.1 -49.8 -12.55 -49.8 -15.65 -49.8 -17.6 -47.25 L-13.55 -46.8 Q-11.45 -46.1 -11.45 -45.15 -11.45 -44.45 -12.15 -44.45 -12.3 -44.45 -13.7 -45.25 -15.5 -46.1 -17.6 -46.1 L-18.25 -46.05 -19.2 -44.05 Q-19.2 -41.2 -16.25 -40.45 -13.35 -39.7 -13.35 -39.35 -13.35 -38.55 -14.9 -38.55 -18.15 -38.55 -19.8 -41.0 -20.85 -42.6 -20.85 -44.0 L-20.6 -45.55 Q-21.9 -45.0 -22.65 -43.9 -23.45 -42.75 -23.45 -41.45 -23.45 -40.5 -22.9 -39.35 L-22.35 -38.1 -22.55 -37.7 Q-22.7 -37.5 -22.95 -37.5 -24.15 -37.5 -24.6 -39.45 L-24.75 -41.45 Q-24.75 -45.95 -20.05 -46.95 L-19.25 -48.25 Q-17.35 -50.85 -14.1 -51.35 -10.15 -52.0 -7.7 -50.95" fill="#3b461b" fill-rule="evenodd" stroke="none"/>
      <path d="M-7.7 -50.95 L-4.65 -49.05 Q-3.35 -48.45 0.65 -45.45 0.65 -44.6 -0.1 -44.6 -1.05 -44.6 -4.6 -47.2 -8.1 -49.8 -12.55 -49.8 -15.65 -49.8 -17.6 -47.25 L-13.55 -46.8 Q-11.45 -46.1 -11.45 -45.15 -11.45 -44.45 -12.15 -44.45 -12.3 -44.45 -13.7 -45.25 -15.5 -46.1 -17.6 -46.1 L-18.25 -46.05 -19.2 -44.05 Q-19.2 -41.2 -16.25 -40.45 -13.35 -39.7 -13.35 -39.35 -13.35 -38.55 -14.9 -38.55 -18.15 -38.55 -19.8 -41.0 -20.85 -42.6 -20.85 -44.0 L-20.6 -45.55 Q-21.9 -45.0 -22.65 -43.9 -23.45 -42.75 -23.45 -41.45 -23.45 -40.5 -22.9 -39.35 L-22.35 -38.1 -22.55 -37.7 Q-22.7 -37.5 -22.95 -37.5 -24.15 -37.5 -24.6 -39.45 L-24.75 -41.45 Q-24.75 -45.95 -20.05 -46.95 L-19.25 -48.25 Q-17.35 -50.85 -14.1 -51.35 -10.15 -52.0 -7.7 -50.95 Z" fill="none" stroke="#000000" stroke-linecap="round" stroke-linejoin="round" stroke-opacity="0.4" stroke-width="0.05"/>
      <path d="M19.15 -42.85 Q18.05 -41.65 18.05 -40.85 18.05 -39.75 19.45 -37.65 L22.55 -33.25 Q26.75 -26.35 25.75 -18.7 25.2 -12.55 23.2 -9.75 27.8 -9.9 30.5 -14.6 32.6 -18.3 32.6 -22.05 32.6 -26.35 28.35 -33.45 23.75 -40.95 19.15 -42.85 M10.75 -32.55 L9.25 -34.15 6.7 -36.15 Q3.9 -38.45 2.7 -39.0 1.45 -39.55 0.2 -36.25 -1.05 -33.0 -1.3 -29.4 L-1.3 -32.65 -0.95 -46.4 Q9.4 -35.5 10.75 -32.55 9.4 -35.5 -0.95 -46.4 L-1.3 -32.65 Q-1.3 -35.6 -2.5 -37.2 -3.75 -38.9 -5.3 -38.65 -6.85 -38.4 -8.6 -36.8 L-12.6 -32.55 Q-11.4 -36.0 -7.15 -40.75 -3.5 -44.7 -0.95 -46.4 -7.65 -46.15 -14.6 -41.5 -20.25 -37.85 -22.25 -34.55 -20.25 -37.85 -14.6 -41.5 -7.65 -46.15 -0.95 -46.4 -3.5 -44.7 -7.15 -40.75 -11.4 -36.0 -12.6 -32.55 -13.3 -30.95 -13.65 -26.45 -14.2 -19.75 -12.75 -12.95 L-12.35 -12.05 Q-9.85 -5.9 -6.6 -2.7 -5.35 -1.6 -2.8 -1.35 -0.8 -3.15 -0.65 -7.85 0.6 -3.0 3.2 -1.5 4.45 -1.65 6.25 -2.55 8.1 -5.4 9.25 -8.1 11.8 -14.35 12.2 -22.8 12.55 -29.3 10.75 -32.55 M11.85 -33.0 Q14.1 -28.05 14.1 -23.05 14.1 -17.45 11.15 -9.4 9.7 -5.35 8.2 -2.45 L10.15 -2.35 12.45 -2.55 Q20.05 -8.8 22.7 -16.2 22.9 -24.75 20.5 -31.0 19.5 -33.2 16.8 -36.85 13.75 -41.0 12.55 -41.0 9.6 -41.0 9.6 -37.05 L11.85 -33.0 M13.55 -0.45 Q16.7 -2.55 18.85 -5.2 20.85 -7.6 22.55 -11.3 L24.25 -18.0 Q24.25 -24.2 21.4 -31.4 19.75 -35.0 17.05 -38.1 9.8 -46.5 -0.35 -46.5 9.8 -46.5 17.05 -38.1 19.75 -35.0 21.4 -31.4 24.25 -24.2 24.25 -18.0 L22.55 -11.3 Q20.85 -7.6 18.85 -5.2 16.7 -2.55 13.55 -0.45 L4.85 -0.35 6.25 -2.55 4.85 -0.35 -0.2 -0.35 -0.65 -7.85 -0.2 -0.35 -6.7 -0.35 -15.15 -0.35 Q-22.95 1.05 -29.15 -7.35 -34.8 -14.95 -34.8 -23.2 -34.8 -34.35 -26.15 -41.1 -18.7 -46.95 -9.2 -46.95 L-5.6 -46.75 -0.95 -46.4 -0.35 -46.5 Q10.85 -50.0 22.5 -41.8 34.2 -33.5 34.2 -21.7 34.2 -19.15 31.8 -13.8 29.35 -8.25 26.7 -5.25 23.45 -1.4 20.25 -0.75 L13.55 -0.45 M-17.85 -3.05 L-15.15 -0.35 -17.85 -3.05 Q-16.25 -1.7 -13.15 -1.7 L-11.85 -2.05 Q-10.7 -2.45 -10.05 -2.8 -11.65 -5.45 -13.15 -9.25 -16.2 -16.85 -15.65 -22.65 -15.1 -28.9 -13.05 -32.25 -11.6 -34.6 -10.8 -37.35 -10.05 -40.15 -10.7 -40.7 -11.4 -41.3 -13.45 -40.35 -17.45 -38.5 -22.25 -34.55 -25.4 -29.4 -25.6 -21.15 -25.75 -14.7 -24.55 -11.7 -23.0 -7.85 -17.85 -3.05 M-22.4 -38.0 Q-20.8 -41.15 -24.1 -39.1 -28.1 -37.15 -30.7 -33.35 -33.35 -29.55 -33.35 -20.95 -33.35 -15.5 -30.15 -11.55 -27.4 -8.15 -24.85 -8.15 -28.1 -15.5 -27.75 -20.5 -27.45 -25.55 -25.35 -31.2 -23.75 -35.5 -22.4 -38.0 M-6.7 -0.35 L-9.9 -5.7 -12.35 -12.05 -9.9 -5.7 -6.7 -0.35" fill="#9a4c00" fill-rule="evenodd" stroke="none"/>
      <path d="M19.15 -42.85 Q23.75 -40.95 28.35 -33.45 32.6 -26.35 32.6 -22.05 32.6 -18.3 30.5 -14.6 27.8 -9.9 23.2 -9.75 25.2 -12.55 25.75 -18.7 26.75 -26.35 22.55 -33.25 L19.45 -37.65 Q18.05 -39.75 18.05 -40.85 18.05 -41.65 19.15 -42.85 M-1.3 -29.4 Q-1.05 -33.0 0.2 -36.25 1.45 -39.55 2.7 -39.0 3.9 -38.45 6.7 -36.15 L9.25 -34.15 10.75 -32.55 Q12.55 -29.3 12.2 -22.8 11.8 -14.35 9.25 -8.1 8.1 -5.4 6.25 -2.55 4.45 -1.65 3.2 -1.5 0.6 -3.0 -0.65 -7.85 L-1.3 -29.4 -0.65 -7.85 Q-0.8 -3.15 -2.8 -1.35 -5.35 -1.6 -6.6 -2.7 -9.85 -5.9 -12.35 -12.05 L-12.75 -12.95 Q-14.2 -19.75 -13.65 -26.45 -13.3 -30.95 -12.6 -32.55 L-8.6 -36.8 Q-6.85 -38.4 -5.3 -38.65 -3.75 -38.9 -2.5 -37.2 -1.3 -35.6 -1.3 -32.65 L-1.3 -29.4 M11.85 -33.0 L9.6 -37.05 Q9.6 -41.0 12.55 -41.0 13.75 -41.0 16.8 -36.85 19.5 -33.2 20.5 -31.0 22.9 -24.75 22.7 -16.2 20.05 -8.8 12.45 -2.55 L10.15 -2.35 8.2 -2.45 Q9.7 -5.35 11.15 -9.4 14.1 -17.45 14.1 -23.05 14.1 -28.05 11.85 -33.0 M-17.85 -3.05 Q-23.0 -7.85 -24.55 -11.7 -25.75 -14.7 -25.6 -21.15 -25.4 -29.4 -22.25 -34.55 -17.45 -38.5 -13.45 -40.35 -11.4 -41.3 -10.7 -40.7 -10.05 -40.15 -10.8 -37.35 -11.6 -34.6 -13.05 -32.25 -15.1 -28.9 -15.65 -22.65 -16.2 -16.85 -13.15 -9.25 -11.65 -5.45 -10.05 -2.8 -10.7 -2.45 -11.85 -2.05 L-13.15 -1.7 Q-16.25 -1.7 -17.85 -3.05 M-22.4 -38.0 Q-23.75 -35.5 -25.35 -31.2 -27.45 -25.55 -27.75 -20.5 -28.1 -15.5 -24.85 -8.15 -27.4 -8.15 -30.15 -11.55 -33.35 -15.5 -33.35 -20.95 -33.35 -29.55 -30.7 -33.35 -28.1 -37.15 -24.1 -39.1 -20.8 -41.15 -22.4 -38.0" fill="url(#decoration135-gradient0)" fill-rule="evenodd" stroke="none"/>
      <path d="M-1.3 -29.4 L-0.65 -7.85 -0.2 -0.35 4.85 -0.35 6.25 -2.55 Q8.1 -5.4 9.25 -8.1 11.8 -14.35 12.2 -22.8 12.55 -29.3 10.75 -32.55 9.4 -35.5 -0.95 -46.4 L-1.3 -32.65 -1.3 -29.4 M-0.35 -46.5 Q9.8 -46.5 17.05 -38.1 19.75 -35.0 21.4 -31.4 24.25 -24.2 24.25 -18.0 L22.55 -11.3 Q20.85 -7.6 18.85 -5.2 16.7 -2.55 13.55 -0.45 L20.25 -0.75 Q23.45 -1.4 26.7 -5.25 29.35 -8.25 31.8 -13.8 34.2 -19.15 34.2 -21.7 34.2 -33.5 22.5 -41.8 10.85 -50.0 -0.35 -46.5 L-0.95 -46.4 -5.6 -46.75 -9.2 -46.95 Q-18.7 -46.95 -26.15 -41.1 -34.8 -34.35 -34.8 -23.2 -34.8 -14.95 -29.15 -7.35 -22.95 1.05 -15.15 -0.35 L-17.85 -3.05 Q-23.0 -7.85 -24.55 -11.7 -25.75 -14.7 -25.6 -21.15 -25.4 -29.4 -22.25 -34.55 -20.25 -37.85 -14.6 -41.5 -7.65 -46.15 -0.95 -46.4 -3.5 -44.7 -7.15 -40.75 -11.4 -36.0 -12.6 -32.55 -13.3 -30.95 -13.65 -26.45 -14.2 -19.75 -12.75 -12.95 L-12.35 -12.05 -9.9 -5.7 -6.7 -0.35 -0.2 -0.35 M4.85 -0.35 L13.55 -0.45 M-6.7 -0.35 L-15.15 -0.35" fill="none" stroke="#000000" stroke-linecap="round" stroke-linejoin="round" stroke-opacity="0.3019608" stroke-width="0.30000000000000004"/>
      <path d="M21.2 -26.85 L21.25 -25.3 Q21.25 -22.15 19.0 -19.95 16.8 -17.75 13.65 -17.75 10.5 -17.75 8.3 -19.95 6.1 -22.15 6.1 -25.3 6.1 -28.45 8.3 -30.65 10.5 -32.9 13.65 -32.9 15.35 -32.9 16.7 -32.25 15.3 -32.15 14.3 -31.1 13.05 -29.9 13.0 -28.2 13.0 -26.4 14.25 -25.2 15.5 -24.0 17.15 -24.05 18.95 -24.05 20.15 -25.2 20.85 -25.95 21.2 -26.85 M0.1 -17.0 L-5.65 -17.25 -2.45 -23.05 0.1 -17.0 M-6.8 -27.9 Q-7.9 -28.85 -9.35 -28.85 -11.1 -28.85 -12.3 -27.65 -13.5 -26.35 -13.5 -24.7 -13.5 -22.95 -12.3 -21.75 -11.1 -20.55 -9.35 -20.55 L-7.5 -20.95 -8.5 -19.8 Q-10.75 -17.55 -13.9 -17.55 -17.0 -17.55 -19.25 -19.8 -21.45 -22.0 -21.45 -25.15 -21.45 -28.3 -19.25 -30.5 -17.0 -32.7 -13.9 -32.7 -10.75 -32.7 -8.5 -30.5 -7.35 -29.35 -6.8 -27.9" fill="url(#decoration135-gradient1)" fill-rule="evenodd" stroke="none"/>
      <path d="M0.1 -17.0 L0.9 -15.05 -6.65 -15.5 -5.65 -17.25 0.1 -17.0 M-21.05 -13.15 L-13.45 -5.55 -13.3 -3.15 -25.55 -14.65 Q-23.55 -13.7 -21.05 -13.15 M-8.7 -5.25 Q1.55 -4.65 13.25 -7.1 L13.25 -5.3 Q11.75 -4.85 10.1 -4.75 L-4.15 -3.45 -6.1 -3.45 -8.2 -3.45 -8.7 -5.25 M19.9 -10.5 Q21.95 -14.15 22.6 -20.75 L25.05 -22.7 Q25.55 -15.55 22.25 -8.8 L19.9 -10.5" fill="#fabf29" fill-rule="evenodd" stroke="none"/>
      <path d="M-21.05 -13.15 L-7.2 -12.75 -6.45 -7.95 -0.35 -8.65 -0.1 -12.9 2.15 -13.15 2.95 -9.0 8.6 -9.3 7.4 -14.35 Q16.2 -16.1 22.6 -20.75 21.95 -14.15 19.9 -10.5 L17.6 -12.1 12.55 -10.95 13.25 -7.1 Q1.55 -4.65 -8.7 -5.25 -9.1 -7.1 -8.95 -8.25 L-13.75 -7.95 -13.45 -5.55 -21.05 -13.15" fill="url(#decoration135-gradient2)" fill-rule="evenodd" stroke="none"/>
      <path d="M21.2 -26.85 Q20.85 -25.95 20.15 -25.2 18.95 -24.05 17.15 -24.05 15.5 -24.0 14.25 -25.2 13.0 -26.4 13.0 -28.2 13.05 -29.9 14.3 -31.1 15.3 -32.15 16.7 -32.25 15.35 -32.9 13.65 -32.9 10.5 -32.9 8.3 -30.65 6.1 -28.45 6.1 -25.3 6.1 -22.15 8.3 -19.95 10.5 -17.75 13.65 -17.75 16.8 -17.75 19.0 -19.95 21.25 -22.15 21.25 -25.3 L21.2 -26.85 M-5.65 -17.25 L-6.65 -15.5 0.9 -15.05 0.1 -17.0 -5.65 -17.25 -2.45 -23.05 0.1 -17.0 M22.6 -20.75 Q16.2 -16.1 7.4 -14.35 L8.6 -9.3 2.95 -9.0 2.15 -13.15 -0.1 -12.9 -0.35 -8.65 -6.45 -7.95 -7.2 -12.75 -21.05 -13.15 -13.45 -5.55 -13.75 -7.95 -8.95 -8.25 Q-9.1 -7.1 -8.7 -5.25 1.55 -4.65 13.25 -7.1 L12.55 -10.95 17.6 -12.1 19.9 -10.5 Q21.95 -14.15 22.6 -20.75 L25.05 -22.7 Q25.55 -15.55 22.25 -8.8 L19.9 -10.5 M-8.7 -5.25 L-8.2 -3.45 -6.1 -3.45 -4.15 -3.45 10.1 -4.75 Q11.75 -4.85 13.25 -5.3 L13.25 -7.1 M-6.8 -27.9 Q-7.35 -29.35 -8.5 -30.5 -10.75 -32.7 -13.9 -32.7 -17.0 -32.7 -19.25 -30.5 -21.45 -28.3 -21.45 -25.15 -21.45 -22.0 -19.25 -19.8 -17.0 -17.55 -13.9 -17.55 -10.75 -17.55 -8.5 -19.8 L-7.5 -20.95 -9.35 -20.55 Q-11.1 -20.55 -12.3 -21.75 -13.5 -22.95 -13.5 -24.7 -13.5 -26.35 -12.3 -27.65 -11.1 -28.85 -9.35 -28.85 -7.9 -28.85 -6.8 -27.9 M-21.05 -13.15 Q-23.55 -13.7 -25.55 -14.65 L-13.3 -3.15 -13.45 -5.55" fill="none" stroke="#000000" stroke-linecap="round" stroke-linejoin="round" stroke-opacity="0.3019608" stroke-width="0.30000000000000004"/>
    </g>
    <radialGradient cx="0" cy="0" fx="28.8" fy="0" gradientTransform="matrix(0.0404, 0.0, 0.0, 0.0217, -1.3, -18.7)" gradientUnits="userSpaceOnUse" id="decoration135-gradient0" r="819.2" spreadMethod="pad">
      <stop offset="0.1803921568627451" stop-color="#ffb019"/>
      <stop offset="0.9607843137254902" stop-color="#d77b09"/>
    </radialGradient>
    <radialGradient cx="0" cy="0" fx="6.4" fy="0" gradientTransform="matrix(0.0426, 0.0, 0.0, 0.0396, -2.1, -18.75)" gradientUnits="userSpaceOnUse" id="decoration135-gradient1" r="819.2" spreadMethod="pad">
      <stop offset="0.21176470588235294" stop-color="#ffeaa6"/>
      <stop offset="0.3803921568627451" stop-color="#fff45b"/>
      <stop offset="0.8313725490196079" stop-color="#e09506"/>
    </radialGradient>
    <radialGradient cx="0" cy="0" gradientTransform="matrix(0.0342, 0.0, 0.0, 0.0234, 0.65, -12.3)" gradientUnits="userSpaceOnUse" id="decoration135-gradient2" r="819.2" spreadMethod="pad">
      <stop offset="0.21176470588235294" stop-color="#ffeaa6"/>
      <stop offset="0.3607843137254902" stop-color="#fff45b"/>
      <stop offset="1.0" stop-color="#e09506"/>
    </radialGradient>
    <g id="decoration135-sprite0" transform="matrix(1.0, 0.0, 0.0, 1.0, -2.6, 0.05)">
      <use height="116.85" transform="matrix(1.0, 0.0, 0.0, 1.0, 2.6, -0.05)" width="220.6" xlink:href="#decoration135-shape1"/>
    </g>
    <g id="decoration135-shape1" transform="matrix(1.0, 0.0, 0.0, 1.0, -2.6, 0.05)">
      <path d="M216.6 72.9 Q209.6 82.3 197.3 90.5 165.65 111.5 112.85 116.1 61.0 120.6 28.05 95.7 15.85 86.45 8.7 74.85 2.6 65.0 2.6 58.05 2.6 51.0 7.9 41.95 14.25 31.1 25.85 22.35 57.15 -1.2 112.85 0.0 173.9 1.15 201.1 17.6 224.7 31.9 223.1 58.05 222.7 64.7 216.6 72.9" fill="url(#decoration135-gradient3)" fill-rule="evenodd" stroke="none"/>
    </g>
    <radialGradient cx="0" cy="0" gradientTransform="matrix(0.0971, 0.0, 0.0, 0.0572, 109.5, 53.65)" gradientUnits="userSpaceOnUse" id="decoration135-gradient3" r="819.2" spreadMethod="pad">
      <stop offset="0.0" stop-color="#cdfdff" stop-opacity="0.45882353"/>
      <stop offset="0.19607843137254902" stop-color="#dafdff" stop-opacity="0.34117648"/>
      <stop offset="1.0" stop-color="#ffffff" stop-opacity="0.0"/>
    </radialGradient>
    <g id="decoration135-shape2" transform="matrix(1.0, 0.0, 0.0, 1.0, 11.55, 58.7)">
      <path d="M2.9 -51.65 L2.65 -53.4 Q2.1 -55.55 0.35 -55.65 -1.5 -55.75 -0.95 -52.7 L0.0 -48.2 Q0.4 -46.65 0.9 -46.1 L1.45 -46.85 5.65 -47.65 Q5.9 -45.45 8.05 -44.4 5.4 -45.6 2.65 -45.3 2.6 -44.25 3.5 -42.9 2.0 -44.3 -0.9 -44.6 -2.7 -44.55 -5.35 -43.05 -2.95 -45.05 -3.3 -45.45 -5.75 -46.0 -11.4 -43.3 -6.4 -45.95 -6.0 -47.1 L-1.05 -46.75 Q-2.15 -54.0 -3.75 -56.9 1.05 -59.9 2.6 -57.4 4.1 -55.0 2.9 -51.65 M-1.1 -46.1 L-1.05 -46.75 -1.1 -46.1 M0.55 -45.55 L0.9 -46.1 0.55 -45.55" fill="#3b461b" fill-rule="evenodd" stroke="none"/>
      <path d="M0.9 -46.1 Q0.4 -46.65 0.0 -48.2 L-0.95 -52.7 Q-1.5 -55.75 0.35 -55.65 2.1 -55.55 2.65 -53.4 L2.9 -51.65 Q1.9 -47.55 1.45 -46.85 L0.9 -46.1" fill="#808c20" fill-rule="evenodd" stroke="none"/>
      <path d="M0.9 -46.1 L1.45 -46.85 Q1.9 -47.55 2.9 -51.65 4.1 -55.0 2.6 -57.4 1.05 -59.9 -3.75 -56.9 -2.15 -54.0 -1.05 -46.75 L-1.1 -46.1 M1.45 -46.85 L5.65 -47.65 Q5.9 -45.45 8.05 -44.4 5.4 -45.6 2.65 -45.3 2.6 -44.25 3.5 -42.9 2.0 -44.3 -0.9 -44.6 -2.7 -44.55 -5.35 -43.05 -2.95 -45.05 -3.3 -45.45 -5.75 -46.0 -11.4 -43.3 -6.4 -45.95 -6.0 -47.1 L-1.05 -46.75 M0.9 -46.1 L0.55 -45.55" fill="none" stroke="#000000" stroke-linecap="round" stroke-linejoin="round" stroke-opacity="0.3019608" stroke-width="0.30000000000000004"/>
    </g>
  </defs>
</svg>
