<?xml version="1.0" encoding="UTF-8" standalone="no"?>
<svg xmlns:ffdec="https://www.free-decompiler.com/flash" xmlns:xlink="http://www.w3.org/1999/xlink" ffdec:objectType="frame" height="144.55px" width="100.9px" xmlns="http://www.w3.org/2000/svg">
  <g transform="matrix(1.0, 0.0, 0.0, 1.0, 48.9, 143.5)">
    <use ffdec:characterId="356" height="30.0" transform="matrix(1.0, 0.0, 0.0, 1.0, -17.85, -124.7)" width="38.6" xlink:href="#decoration137-shape0"/>
    <use ffdec:characterId="307" height="116.85" transform="matrix(0.0732, 0.0315, -0.0475, 0.1225, -11.5573, -121.2743)" width="220.6" xlink:href="#decoration137-sprite0"/>
    <use ffdec:characterId="307" height="116.85" transform="matrix(-0.0787, 0.0122, 0.0154, 0.1305, 17.3446, -117.5248)" width="220.6" xlink:href="#decoration137-sprite0"/>
    <use ffdec:characterId="307" height="116.85" transform="matrix(-0.1369, -0.0174, -0.0166, 0.1309, 15.295, -111.3017)" width="220.6" xlink:href="#decoration137-sprite0"/>
    <use ffdec:characterId="357" height="144.55" transform="matrix(1.0, 0.0, 0.0, 1.0, -48.9, -143.5)" width="100.9" xlink:href="#decoration137-shape2"/>
  </g>
  <defs>
    <g id="decoration137-shape0" transform="matrix(1.0, 0.0, 0.0, 1.0, 17.85, 124.7)">
      <path d="M14.9 -102.8 L13.5 -100.0 Q16.15 -99.75 17.95 -102.4 19.35 -104.45 19.65 -106.7 20.0 -109.25 18.15 -113.8 16.25 -118.55 13.8 -120.0 L13.0 -118.9 Q12.95 -118.25 13.6 -116.9 L14.95 -114.05 Q16.8 -109.65 15.65 -105.15 L14.75 -104.8 Q15.2 -108.55 14.45 -111.85 15.2 -108.55 14.75 -104.8 L14.1 -104.6 14.5 -106.8 14.5 -108.95 14.45 -111.85 14.2 -113.0 13.7 -112.85 Q13.3 -114.2 12.0 -116.6 10.7 -119.3 10.0 -119.4 8.4 -119.6 8.1 -117.25 L9.55 -111.3 8.9 -111.05 8.8 -112.1 8.4 -114.4 6.55 -116.55 Q5.25 -117.75 4.8 -117.8 4.25 -117.9 3.2 -116.85 1.9 -115.55 1.45 -113.4 L1.7 -115.35 1.75 -115.45 Q1.95 -117.15 1.2 -118.1 L-0.1 -118.8 Q-1.05 -118.9 -2.2 -118.2 L-4.6 -116.1 -5.8 -113.25 -6.35 -113.65 -4.85 -115.95 Q-3.85 -117.25 -3.65 -119.0 -3.55 -119.6 -3.85 -120.05 -4.15 -120.45 -4.65 -120.5 -6.8 -120.0 -9.8 -118.0 -11.85 -115.25 -12.65 -111.5 L-13.1 -108.25 -13.75 -108.7 -13.55 -111.3 Q-13.4 -112.65 -12.15 -114.8 -10.9 -116.85 -10.8 -117.85 L-10.9 -118.75 Q-11.0 -119.25 -11.5 -119.35 -12.65 -119.2 -13.85 -118.05 -16.3 -115.8 -16.95 -110.7 -17.35 -107.45 -15.9 -104.8 -14.6 -102.6 -13.2 -102.45 L-12.7 -102.75 -12.4 -103.4 -11.05 -101.0 -9.75 -98.9 Q-8.95 -97.95 -7.2 -97.75 L-6.45 -97.85 -5.4 -98.25 -5.9 -99.15 -5.5 -100.15 -5.1 -99.95 -3.2 -99.05 -3.45 -98.4 -3.85 -97.3 -0.05 -96.6 3.25 -96.5 3.6 -96.9 3.45 -97.8 3.3 -98.7 3.35 -98.7 5.0 -98.9 5.8 -99.0 5.85 -98.95 4.65 -96.7 5.75 -96.5 7.0 -96.45 11.2 -99.2 13.3 -101.0 14.9 -102.8 M7.45 -95.15 Q9.35 -96.15 10.75 -97.6 12.05 -98.85 13.3 -101.0 12.05 -98.85 10.75 -97.6 9.35 -96.15 7.45 -95.15 L2.65 -95.7 -0.15 -96.05 -3.75 -96.5 -8.4 -97.1 Q-12.85 -96.8 -15.65 -102.25 -18.2 -107.2 -17.55 -112.15 -16.7 -118.75 -11.45 -122.15 -6.85 -125.1 -1.6 -124.45 L0.35 -124.05 2.95 -123.55 3.25 -123.55 Q9.75 -124.85 15.6 -119.15 21.4 -113.35 20.5 -106.35 20.35 -104.8 18.6 -101.8 16.8 -98.7 15.15 -97.05 13.05 -95.05 11.25 -94.85 L7.45 -95.15 M14.2 -113.0 Q13.55 -115.3 12.25 -117.35 8.9 -122.85 3.25 -123.55 8.9 -122.85 12.25 -117.35 13.55 -115.3 14.2 -113.0 M8.8 -108.7 L9.55 -108.6 8.55 -105.3 7.4 -101.75 7.1 -102.65 8.8 -108.7 M-6.4 -110.6 L-6.15 -104.4 -6.65 -103.45 -7.0 -110.45 -6.4 -110.6 M-1.5 -103.25 Q-0.8 -103.2 -0.2 -104.2 0.5 -105.25 0.7 -106.8 L0.6 -105.85 Q0.8 -103.95 2.65 -102.85 L0.35 -103.0 -1.5 -103.25 M1.75 -115.45 L2.95 -123.55 Q7.9 -116.2 8.4 -114.4 7.9 -116.2 2.95 -123.55 L1.75 -115.45 M0.6 -105.85 L0.35 -103.0 0.6 -105.85 M5.0 -98.9 L3.6 -96.9 5.0 -98.9 M3.25 -96.5 L2.65 -95.7 3.25 -96.5 M-3.75 -96.5 L-5.1 -99.95 -3.75 -96.5 M-4.6 -116.1 Q-3.65 -118.1 -0.95 -120.6 1.4 -122.75 2.95 -123.55 -0.8 -123.85 -5.05 -121.6 -8.4 -119.8 -9.8 -118.0 -8.4 -119.8 -5.05 -121.6 -0.8 -123.85 2.95 -123.55 1.4 -122.75 -0.95 -120.6 -3.65 -118.1 -4.6 -116.1 M-8.4 -97.1 L-9.75 -98.9 -8.4 -97.1 M-0.15 -96.05 L-0.05 -96.6 -0.15 -96.05" fill="#9a4c00" fill-rule="evenodd" stroke="none"/>
      <path d="M15.65 -105.15 Q16.8 -109.65 14.95 -114.05 L13.6 -116.9 Q12.95 -118.25 13.0 -118.9 L13.8 -120.0 Q16.25 -118.55 18.15 -113.8 20.0 -109.25 19.65 -106.7 19.35 -104.45 17.95 -102.4 16.15 -99.75 13.5 -100.0 L14.9 -102.8 15.45 -103.6 16.6 -105.6 15.65 -105.15 M9.55 -111.3 L8.1 -117.25 Q8.4 -119.6 10.0 -119.4 10.7 -119.3 12.0 -116.6 13.3 -114.2 13.7 -112.85 L9.55 -111.3 M8.9 -111.05 L3.85 -109.25 5.1 -107.0 Q5.4 -106.65 6.75 -105.8 6.65 -106.25 7.25 -107.2 7.9 -108.35 8.8 -108.7 L7.1 -102.65 5.25 -102.85 2.65 -102.85 Q0.8 -103.95 0.6 -105.85 L0.7 -106.8 Q0.5 -105.25 -0.2 -104.2 -0.8 -103.2 -1.5 -103.25 L-1.55 -103.25 -3.9 -103.75 -6.15 -104.4 -6.4 -110.6 Q-5.55 -110.35 -4.9 -109.25 -4.35 -108.25 -4.4 -107.2 L-3.9 -107.3 -2.25 -108.3 Q-0.95 -109.25 -0.8 -109.85 L-5.8 -113.25 -4.6 -116.1 -2.2 -118.2 Q-1.05 -118.9 -0.1 -118.8 L1.2 -118.1 Q1.95 -117.15 1.75 -115.45 L1.7 -115.35 1.45 -113.4 0.7 -106.8 1.45 -113.4 Q1.9 -115.55 3.2 -116.85 4.25 -117.9 4.8 -117.8 5.25 -117.75 6.55 -116.55 L8.4 -114.4 8.8 -112.1 8.9 -111.05 M-9.8 -118.0 Q-6.8 -120.0 -4.65 -120.5 -4.15 -120.45 -3.85 -120.05 -3.55 -119.6 -3.65 -119.0 -3.85 -117.25 -4.85 -115.95 L-6.35 -113.65 -10.05 -116.25 -11.05 -113.05 Q-11.3 -110.95 -10.5 -109.55 -9.8 -108.2 -8.35 -108.2 -8.05 -109.8 -7.0 -110.45 L-6.65 -103.45 -7.15 -102.6 -10.05 -103.95 -9.35 -106.0 -13.1 -108.25 -12.65 -111.5 Q-11.85 -115.25 -9.8 -118.0 M-12.4 -103.4 L-12.7 -102.75 -13.2 -102.45 Q-14.6 -102.6 -15.9 -104.8 -17.35 -107.45 -16.95 -110.7 -16.3 -115.8 -13.85 -118.05 -12.65 -119.2 -11.5 -119.35 -11.0 -119.25 -10.9 -118.75 L-10.8 -117.85 Q-10.9 -116.85 -12.15 -114.8 -13.4 -112.65 -13.55 -111.3 L-13.75 -108.7 -14.35 -109.2 -12.75 -104.5 -12.4 -103.4" fill="url(#decoration137-gradient0)" fill-rule="evenodd" stroke="none"/>
      <path d="M14.2 -113.0 L14.45 -111.85 14.5 -108.95 Q14.35 -107.45 12.95 -106.35 11.8 -105.5 10.75 -105.5 11.05 -106.25 10.5 -107.3 L9.55 -108.6 8.8 -108.7 Q7.9 -108.35 7.25 -107.2 6.65 -106.25 6.75 -105.8 5.4 -106.65 5.1 -107.0 L3.85 -109.25 8.9 -111.05 9.55 -111.3 13.7 -112.85 14.2 -113.0 M-5.8 -113.25 L-0.8 -109.85 Q-0.95 -109.25 -2.25 -108.3 L-3.9 -107.3 -4.4 -107.2 Q-4.35 -108.25 -4.9 -109.25 -5.55 -110.35 -6.4 -110.6 L-7.0 -110.45 Q-8.05 -109.8 -8.35 -108.2 -9.8 -108.2 -10.5 -109.55 -11.3 -110.95 -11.05 -113.05 L-10.05 -116.25 -6.35 -113.65 -5.8 -113.25 M-6.15 -104.4 L-3.9 -103.75 -1.55 -103.25 -1.5 -103.25 0.35 -103.0 2.65 -102.85 5.25 -102.85 7.1 -102.65 7.4 -101.75 7.8 -100.85 10.8 -101.55 10.25 -103.5 14.1 -104.6 14.75 -104.8 Q13.9 -103.1 11.55 -100.95 8.7 -98.4 6.05 -98.1 L5.85 -98.95 5.8 -99.0 Q5.55 -99.4 4.6 -99.25 3.6 -99.2 3.35 -98.7 L3.3 -98.7 3.45 -97.8 0.05 -97.95 -3.45 -98.4 -3.2 -99.05 Q-3.25 -99.5 -4.15 -99.9 L-5.5 -100.15 -5.9 -99.15 Q-7.8 -99.7 -10.1 -102.2 -12.8 -105.15 -13.1 -108.25 L-9.35 -106.0 -10.05 -103.95 -7.15 -102.6 -6.65 -103.45 -6.15 -104.4" fill="url(#decoration137-gradient1)" fill-rule="evenodd" stroke="none"/>
      <path d="M9.55 -108.6 L10.5 -107.3 Q11.05 -106.25 10.75 -105.5 11.8 -105.5 12.95 -106.35 14.35 -107.45 14.5 -108.95 L14.5 -106.8 14.1 -104.6 10.25 -103.5 10.8 -101.55 7.8 -100.85 7.4 -101.75 8.55 -105.3 9.55 -108.6" fill="url(#decoration137-gradient2)" fill-rule="evenodd" stroke="none"/>
      <path d="M14.9 -102.8 L13.3 -101.0 11.2 -99.2 8.85 -98.0 6.35 -96.9 6.05 -98.1 Q8.7 -98.4 11.55 -100.95 13.9 -103.1 14.75 -104.8 L15.65 -105.15 16.6 -105.6 15.45 -103.6 14.9 -102.8 M3.45 -97.8 L3.6 -96.9 3.25 -96.5 -0.05 -96.6 -3.85 -97.3 -3.45 -98.4 0.05 -97.95 3.45 -97.8 M-3.2 -99.05 L-5.1 -99.95 -5.5 -100.15 -4.15 -99.9 Q-3.25 -99.5 -3.2 -99.05 M5.0 -98.9 L3.35 -98.7 Q3.6 -99.2 4.6 -99.25 5.55 -99.4 5.8 -99.0 L5.0 -98.9 M-13.75 -108.7 L-13.1 -108.25 Q-12.8 -105.15 -10.1 -102.2 -7.8 -99.7 -5.9 -99.15 L-6.3 -98.2 Q-7.8 -98.6 -10.2 -101.15 -12.25 -103.45 -12.75 -104.5 L-14.35 -109.2 -13.75 -108.7" fill="#fabf29" fill-rule="evenodd" stroke="none"/>
      <path d="M6.05 -98.1 L6.35 -96.9 8.85 -98.0 11.2 -99.2 7.0 -96.45 5.75 -96.5 4.65 -96.7 5.85 -98.95 6.05 -98.1 M-12.75 -104.5 Q-12.25 -103.45 -10.2 -101.15 -7.8 -98.6 -6.3 -98.2 L-5.9 -99.15 -5.4 -98.25 -6.45 -97.85 -7.2 -97.75 Q-8.95 -97.95 -9.75 -98.9 L-11.05 -101.0 -12.4 -103.4 -12.75 -104.5" fill="#d2811c" fill-rule="evenodd" stroke="none"/>
      <path d="M14.9 -102.8 L13.3 -101.0 Q12.05 -98.85 10.75 -97.6 9.35 -96.15 7.45 -95.15 L11.25 -94.85 Q13.05 -95.05 15.15 -97.05 16.8 -98.7 18.6 -101.8 20.35 -104.8 20.5 -106.35 21.4 -113.35 15.6 -119.15 9.75 -124.85 3.25 -123.55 8.9 -122.85 12.25 -117.35 13.55 -115.3 14.2 -113.0 L14.45 -111.85 Q15.2 -108.55 14.75 -104.8 L15.65 -105.15 16.6 -105.6 15.45 -103.6 14.9 -102.8 M13.7 -112.85 L14.2 -113.0 M13.7 -112.85 L9.55 -111.3 8.9 -111.05 3.85 -109.25 5.1 -107.0 Q5.4 -106.65 6.75 -105.8 6.65 -106.25 7.25 -107.2 7.9 -108.35 8.8 -108.7 L9.55 -108.6 10.5 -107.3 Q11.05 -106.25 10.75 -105.5 11.8 -105.5 12.95 -106.35 14.35 -107.45 14.5 -108.95 L14.45 -111.85 M7.45 -95.15 L2.65 -95.7 -0.15 -96.05 -3.75 -96.5 -8.4 -97.1 Q-12.85 -96.8 -15.65 -102.25 -18.2 -107.2 -17.55 -112.15 -16.7 -118.75 -11.45 -122.15 -6.85 -125.1 -1.6 -124.45 L0.35 -124.05 2.95 -123.55 3.25 -123.55 M1.45 -113.4 L1.7 -115.35 1.75 -115.45 2.95 -123.55 Q1.4 -122.75 -0.95 -120.6 -3.65 -118.1 -4.6 -116.1 L-5.8 -113.25 -0.8 -109.85 Q-0.95 -109.25 -2.25 -108.3 L-3.9 -107.3 -4.4 -107.2 Q-4.35 -108.25 -4.9 -109.25 -5.55 -110.35 -6.4 -110.6 L-6.15 -104.4 -3.9 -103.75 -1.55 -103.25 -1.5 -103.25 0.35 -103.0 0.6 -105.85 0.7 -106.8 1.45 -113.4 M8.4 -114.4 Q7.9 -116.2 2.95 -123.55 -0.8 -123.85 -5.05 -121.6 -8.4 -119.8 -9.8 -118.0 -11.85 -115.25 -12.65 -111.5 L-13.1 -108.25 -9.35 -106.0 -10.05 -103.95 -7.15 -102.6 -6.65 -103.45 -6.15 -104.4 M8.9 -111.05 L8.8 -112.1 8.4 -114.4 M2.65 -102.85 L5.25 -102.85 7.1 -102.65 8.8 -108.7 M2.65 -102.85 L0.35 -103.0 M7.4 -101.75 L7.1 -102.65 M14.1 -104.6 L10.25 -103.5 10.8 -101.55 7.8 -100.85 7.4 -101.75 M14.1 -104.6 L14.75 -104.8 Q13.9 -103.1 11.55 -100.95 8.7 -98.4 6.05 -98.1 L6.35 -96.9 8.85 -98.0 11.2 -99.2 13.3 -101.0 M5.8 -99.0 L5.85 -98.95 6.05 -98.1 M-3.45 -98.4 L-3.85 -97.3 -0.05 -96.6 3.25 -96.5 3.6 -96.9 3.45 -97.8 0.05 -97.95 -3.45 -98.4 -3.2 -99.05 -5.1 -99.95 -3.75 -96.5 M2.65 -95.7 L3.25 -96.5 M3.6 -96.9 L5.0 -98.9 3.35 -98.7 Q3.6 -99.2 4.6 -99.25 5.55 -99.4 5.8 -99.0 L5.0 -98.9 M3.3 -98.7 L3.45 -97.8 M-7.0 -110.45 Q-8.05 -109.8 -8.35 -108.2 -9.8 -108.2 -10.5 -109.55 -11.3 -110.95 -11.05 -113.05 L-10.05 -116.25 -6.35 -113.65 -5.8 -113.25 M-13.75 -108.7 L-13.1 -108.25 Q-12.8 -105.15 -10.1 -102.2 -7.8 -99.7 -5.9 -99.15 L-5.5 -100.15 -4.15 -99.9 Q-3.25 -99.5 -3.2 -99.05 M-13.75 -108.7 L-14.35 -109.2 -12.75 -104.5 Q-12.25 -103.45 -10.2 -101.15 -7.8 -98.6 -6.3 -98.2 L-5.9 -99.15 M-9.75 -98.9 L-8.4 -97.1 M-12.75 -104.5 L-12.4 -103.4 -11.05 -101.0 -9.75 -98.9 M-7.0 -110.45 L-6.4 -110.6 M-5.5 -100.15 L-5.1 -99.95 M-0.05 -96.6 L-0.15 -96.05" fill="none" stroke="#000000" stroke-linecap="round" stroke-linejoin="round" stroke-opacity="0.3019608" stroke-width="0.30000000000000004"/>
      <path d="M3.35 -98.7 L3.3 -98.7" fill="none" stroke="#00ff00" stroke-linecap="round" stroke-linejoin="round" stroke-width="0.05"/>
    </g>
    <radialGradient cx="0" cy="0" fx="28.8" fy="0" gradientTransform="matrix(0.0224, 0.0028, -0.0016, 0.0129, 0.65, -107.05)" gradientUnits="userSpaceOnUse" id="decoration137-gradient0" r="819.2" spreadMethod="pad">
      <stop offset="0.1803921568627451" stop-color="#ffb019"/>
      <stop offset="0.9607843137254902" stop-color="#d77b09"/>
    </radialGradient>
    <radialGradient cx="0" cy="0" gradientTransform="matrix(0.0211, 0.0027, -0.0029, 0.0227, 0.2, -103.4)" gradientUnits="userSpaceOnUse" id="decoration137-gradient1" r="819.2" spreadMethod="pad">
      <stop offset="0.21176470588235294" stop-color="#ffeaa6"/>
      <stop offset="0.3411764705882353" stop-color="#fff45b"/>
      <stop offset="1.0" stop-color="#e09506"/>
    </radialGradient>
    <linearGradient gradientTransform="matrix(0.0, 0.0, 0.0, 0.0, -349.4, -267.85)" gradientUnits="userSpaceOnUse" id="decoration137-gradient2" spreadMethod="pad" x1="-819.2" x2="819.2">
      <stop offset="0.0" stop-color="#f7ab16"/>
      <stop offset="1.0" stop-color="#d2811c"/>
    </linearGradient>
    <g id="decoration137-sprite0" transform="matrix(1.0, 0.0, 0.0, 1.0, -2.6, 0.05)">
      <use ffdec:characterId="306" height="116.85" transform="matrix(1.0, 0.0, 0.0, 1.0, 2.6, -0.05)" width="220.6" xlink:href="#decoration137-shape1"/>
    </g>
    <g id="decoration137-shape1" transform="matrix(1.0, 0.0, 0.0, 1.0, -2.6, 0.05)">
      <path d="M216.6 72.9 Q209.6 82.3 197.3 90.5 165.65 111.5 112.85 116.1 61.0 120.6 28.05 95.7 15.85 86.45 8.7 74.85 2.6 65.0 2.6 58.05 2.6 51.0 7.9 41.95 14.25 31.1 25.85 22.35 57.15 -1.2 112.85 0.0 173.9 1.15 201.1 17.6 224.7 31.9 223.1 58.05 222.7 64.7 216.6 72.9" fill="url(#decoration137-gradient3)" fill-rule="evenodd" stroke="none"/>
    </g>
    <radialGradient cx="0" cy="0" gradientTransform="matrix(0.0971, 0.0, 0.0, 0.0572, 109.5, 53.65)" gradientUnits="userSpaceOnUse" id="decoration137-gradient3" r="819.2" spreadMethod="pad">
      <stop offset="0.0" stop-color="#cdfdff" stop-opacity="0.45882353"/>
      <stop offset="0.19607843137254902" stop-color="#dafdff" stop-opacity="0.34117648"/>
      <stop offset="1.0" stop-color="#ffffff" stop-opacity="0.0"/>
    </radialGradient>
    <g id="decoration137-shape2" transform="matrix(1.0, 0.0, 0.0, 1.0, 48.9, 143.5)">
      <path d="M5.95 -125.3 L6.0 -125.65 5.8 -126.45 5.3 -126.8 4.8 -126.3 Q3.9 -125.25 3.8 -124.2 3.7 -123.6 3.9 -123.2 L3.7 -122.95 3.9 -123.2 4.3 -123.7 6.8 -123.5 Q6.65 -122.5 7.75 -121.7 6.4 -122.65 4.85 -122.65 4.75 -122.0 5.15 -121.15 4.45 -122.1 2.85 -122.5 1.8 -122.55 0.25 -121.85 1.7 -122.9 1.55 -123.15 L-1.8 -123.25 Q-0.1 -123.65 0.75 -124.3 L2.9 -123.75 Q3.65 -126.8 5.15 -128.45 L6.85 -127.55 7.5 -126.45 Q6.65 -125.95 5.95 -125.3 M2.8 -123.35 L2.9 -123.75 2.8 -123.35" fill="#3b461b" fill-rule="evenodd" stroke="none"/>
      <path d="M3.9 -123.2 Q3.7 -123.6 3.8 -124.2 3.9 -125.25 4.8 -126.3 L5.3 -126.8 5.8 -126.45 6.0 -125.65 5.95 -125.3 4.3 -123.7 3.9 -123.2" fill="#808c20" fill-rule="evenodd" stroke="none"/>
      <path d="M5.95 -125.3 Q6.65 -125.95 7.5 -126.45 L6.85 -127.55 5.15 -128.45 Q3.65 -126.8 2.9 -123.75 L2.8 -123.35 M4.3 -123.7 L6.8 -123.5 Q6.65 -122.5 7.75 -121.7 6.4 -122.65 4.85 -122.65 4.75 -122.0 5.15 -121.15 4.45 -122.1 2.85 -122.5 1.8 -122.55 0.25 -121.85 1.7 -122.9 1.55 -123.15 L-1.8 -123.25 Q-0.1 -123.65 0.75 -124.3 L2.9 -123.75 M3.9 -123.2 L3.7 -122.95 M4.3 -123.7 L3.9 -123.2 M5.95 -125.3 L4.3 -123.7" fill="none" stroke="#000000" stroke-linecap="round" stroke-linejoin="round" stroke-opacity="0.3019608" stroke-width="0.30000000000000004"/>
      <path d="M13.75 -135.3 L15.0 -137.3 16.4 -136.3 Q14.85 -133.95 14.4 -130.05 13.8 -133.25 13.75 -135.3 M-3.65 -138.85 L-3.95 -141.45 -0.8 -141.45 -0.8 -139.2 -3.65 -138.85 M8.1 -137.95 L8.7 -139.6 10.8 -138.5 10.35 -137.1 8.1 -137.95" fill="#814604" fill-rule="evenodd" stroke="none"/>
      <path d="M10.8 -138.5 L11.15 -139.95 14.05 -139.5 Q13.45 -138.5 13.7 -135.45 L13.75 -135.3 Q13.8 -133.25 14.4 -130.05 L15.0 -127.65 Q15.75 -129.9 18.35 -131.15 16.35 -126.3 16.05 -123.7 L16.35 -122.75 11.6 -127.1 8.9 -129.65 5.95 -128.4 6.35 -129.95 3.9 -129.45 2.5 -130.45 -0.05 -129.75 -2.05 -131.4 0.25 -134.75 Q0.9 -133.35 1.2 -131.55 0.9 -133.35 0.25 -134.75 L-2.05 -131.4 -2.45 -130.3 -5.75 -131.1 -4.7 -136.9 -3.95 -137.5 -4.75 -138.5 -3.65 -138.85 Q-2.15 -138.1 -1.0 -136.8 L-3.5 -133.95 -4.7 -136.9 -3.5 -133.95 -1.0 -136.8 Q-2.15 -138.1 -3.65 -138.85 L-0.8 -139.2 1.55 -139.5 2.25 -141.1 3.7 -141.0 3.8 -139.0 5.0 -138.85 6.8 -143.35 6.3 -138.35 6.25 -138.4 6.25 -136.8 6.25 -135.25 8.5 -136.45 10.0 -134.6 10.35 -137.1 10.8 -138.5 M9.85 -131.75 L10.0 -134.6 9.85 -131.75 M2.25 -136.1 L3.8 -135.85 3.25 -134.65 3.8 -135.85 2.25 -136.1 M6.25 -132.7 L6.25 -135.25 10.0 -134.6 6.25 -135.25 6.25 -132.7 M3.8 -135.85 L5.0 -138.85 3.8 -135.85 M16.05 -123.7 L15.0 -127.65 16.05 -123.7 M0.25 -134.75 Q-0.05 -135.5 -0.5 -136.1 L-1.0 -136.8 -0.45 -137.25 0.9 -137.95 -0.45 -137.25 -1.0 -136.8 -0.5 -136.1 Q-0.05 -135.5 0.25 -134.75 M-5.75 -131.1 L-3.5 -133.95 -2.05 -131.4 -3.5 -133.95 -5.75 -131.1" fill="#fdd854" fill-rule="evenodd" stroke="none"/>
      <path d="M-6.65 -137.8 L-4.75 -138.5 -3.95 -137.5 -4.7 -136.9 -5.75 -131.1 -2.45 -130.3 -2.05 -131.4 -0.05 -129.75 -5.3 -128.3 -7.6 -130.8 -5.75 -131.1 -9.95 -131.6 -6.65 -137.8 M6.3 -138.35 L8.1 -137.95 10.35 -137.1 10.0 -134.6 8.5 -136.45 6.25 -135.25 6.25 -136.8 6.25 -138.4 6.3 -138.35 6.25 -136.8 6.3 -138.35 M3.9 -129.45 L6.35 -129.95 5.95 -128.4 2.25 -127.25 0.5 -128.15 1.85 -128.85 3.9 -129.45" fill="#e0b723" fill-rule="evenodd" stroke="none"/>
      <path d="M16.35 -122.75 Q10.9 -124.6 8.8 -124.7 L-2.5 -125.15 -14.55 -125.55 Q-13.7 -130.4 -12.6 -132.3 L-10.5 -135.7 Q-9.1 -138.25 -9.35 -139.5 L-6.65 -139.9 -6.65 -137.8 -9.95 -131.6 -5.75 -131.1 -7.6 -130.8 -5.3 -128.3 -0.05 -129.75 2.5 -130.45 3.9 -129.45 1.85 -128.85 0.5 -128.15 2.25 -127.25 5.95 -128.4 8.9 -129.65 11.6 -127.1 16.35 -122.75 M1.85 -128.85 L-0.05 -129.75 1.85 -128.85" fill="#bb950d" fill-rule="evenodd" stroke="none"/>
      <path d="M10.8 -138.5 L11.15 -139.95 14.05 -139.5 Q13.45 -138.5 13.7 -135.45 L13.75 -135.3 15.0 -137.3 16.4 -136.3 Q14.85 -133.95 14.4 -130.05 L15.0 -127.65 Q15.75 -129.9 18.35 -131.15 16.35 -126.3 16.05 -123.7 L16.35 -122.75 M-14.55 -125.55 Q-13.7 -130.4 -12.6 -132.3 L-10.5 -135.7 Q-9.1 -138.25 -9.35 -139.5 L-6.65 -139.9 -6.65 -137.8 -4.75 -138.5 -3.65 -138.85 -3.95 -141.45 -0.8 -141.45 -0.8 -139.2 1.55 -139.5 2.25 -141.1 3.7 -141.0 3.8 -139.0 5.0 -138.85 6.8 -143.35 6.3 -138.35 8.1 -137.95 10.35 -137.1 10.8 -138.5 M6.3 -138.35 L6.25 -138.4 M13.75 -135.3 Q13.8 -133.25 14.4 -130.05 M15.0 -127.65 L16.05 -123.7 M-3.65 -138.85 L-0.8 -139.2" fill="none" stroke="#000000" stroke-linecap="round" stroke-linejoin="round" stroke-opacity="0.3019608" stroke-width="0.30000000000000004"/>
      <path d="M8.1 -137.95 L8.7 -139.6 10.8 -138.5 M10.35 -137.1 L10.0 -134.6 9.85 -131.75 M6.25 -136.8 L6.3 -138.35 M10.0 -134.6 L6.25 -135.25 6.25 -132.7 M3.25 -134.65 L3.8 -135.85 2.25 -136.1 M1.2 -131.55 Q0.9 -133.35 0.25 -134.75 L-2.05 -131.4 -0.05 -129.75 1.85 -128.85 M5.0 -138.85 L3.8 -135.85 M6.25 -135.25 L6.25 -136.8 M-4.7 -136.9 L-3.5 -133.95 -1.0 -136.8 Q-2.15 -138.1 -3.65 -138.85 M0.9 -137.95 L-0.45 -137.25 -1.0 -136.8 -0.5 -136.1 Q-0.05 -135.5 0.25 -134.75 M-2.45 -130.3 L-2.05 -131.4 -3.5 -133.95 -5.75 -131.1" fill="none" stroke="#000000" stroke-linecap="round" stroke-linejoin="miter-clip" stroke-miterlimit="5.0" stroke-opacity="0.3019608" stroke-width="0.05"/>
      <path d="M14.5 -125.7 L13.9 -126.3 Q20.8 -134.45 26.75 -132.65 L27.3 -132.35 Q21.35 -132.75 14.5 -125.7" fill="#a0c051" fill-rule="evenodd" stroke="none"/>
      <path d="M14.5 -125.7 L13.9 -126.3 Q20.8 -134.45 26.75 -132.65 L27.3 -132.35 Q21.35 -132.75 14.5 -125.7 Z" fill="none" stroke="#000000" stroke-linecap="round" stroke-linejoin="round" stroke-opacity="0.2" stroke-width="0.05"/>
      <path d="M6.1 -121.85 L0.8 -124.35 3.85 -124.7 -2.25 -127.35 Q7.25 -127.45 16.4 -125.25 L16.45 -122.4 Q14.45 -123.35 12.25 -123.7 L15.85 -121.4 12.3 -120.8 6.1 -121.85 M8.0 -124.15 L12.25 -123.7 8.0 -124.15" fill="#503102" fill-rule="evenodd" stroke="none"/>
      <path d="M-2.25 -127.35 L3.85 -124.7 0.8 -124.35 6.1 -121.85 Q-4.95 -123.3 -16.05 -121.4 -15.8 -125.05 -14.4 -126.35 L-2.25 -127.35 M12.3 -120.8 L15.85 -121.4 12.25 -123.7 Q14.45 -123.35 16.45 -122.4 L18.15 -119.35 12.3 -120.8" fill="#331f02" fill-rule="evenodd" stroke="none"/>
      <path d="M6.1 -121.85 L12.3 -120.8 18.15 -119.35 16.45 -122.4 Q14.45 -123.35 12.25 -123.7 L8.0 -124.15 M-2.25 -127.35 Q7.25 -127.45 16.4 -125.25 L16.45 -122.4 M-2.25 -127.35 L-14.4 -126.35 Q-15.8 -125.05 -16.05 -121.4 -4.95 -123.3 6.1 -121.85" fill="none" stroke="#000000" stroke-linecap="round" stroke-linejoin="round" stroke-opacity="0.4" stroke-width="0.30000000000000004"/>
      <path d="M-30.1 -123.1 L-29.55 -123.85 -19.0 -122.3 -15.55 -122.6 -20.5 -125.0 -16.4 -125.75 -10.35 -123.05 Q-2.9 -123.35 5.05 -123.1 L5.55 -125.85 10.25 -125.6 9.0 -122.65 Q11.85 -122.85 20.45 -122.35 L25.25 -122.2 26.4 -124.45 32.7 -123.5 31.1 -120.85 33.75 -120.55 37.0 -119.9 43.05 -121.55 44.75 -120.7 40.25 -118.9 Q42.85 -118.1 44.25 -117.2 L51.85 -117.2 Q49.3 -116.4 44.75 -115.55 L44.8 -115.5 39.35 -112.4 42.4 -111.05 37.35 -109.95 34.15 -111.35 44.8 -115.5 36.55 -114.7 26.9 -113.55 36.25 -115.7 44.1 -117.15 32.9 -118.0 Q32.2 -118.2 31.1 -120.85 L29.35 -119.2 20.35 -115.95 24.25 -117.5 28.05 -121.45 23.4 -120.0 17.0 -120.7 8.1 -118.75 9.1 -121.25 4.4 -120.95 -2.35 -119.4 -1.6 -122.7 -7.05 -119.1 -9.15 -121.25 -13.25 -120.85 Q-14.2 -120.7 -11.4 -117.3 -14.7 -119.35 -30.1 -123.1 M-32.6 -119.9 L-26.05 -121.1 -19.55 -119.6 -25.6 -118.35 -32.6 -119.9 M-15.55 -122.6 L-13.25 -120.85 -15.55 -122.6 M5.05 -123.1 L4.4 -120.95 5.05 -123.1 M38.7 -118.3 L40.25 -118.9 38.7 -118.3 M37.0 -119.9 L34.65 -119.15 37.0 -119.9 M25.25 -122.2 L23.4 -120.0 25.25 -122.2" fill="#a36d06" fill-rule="evenodd" stroke="none"/>
      <path d="M34.15 -111.35 L28.0 -109.9 30.7 -107.4 26.9 -106.5 25.55 -110.2 20.4 -109.3 Q20.3 -112.05 18.0 -113.65 L13.7 -116.0 Q9.55 -117.45 3.25 -117.8 L-7.75 -117.5 Q-11.35 -116.9 -13.75 -115.55 -16.8 -114.5 -17.6 -110.9 L-23.5 -108.2 -27.35 -108.9 -25.6 -110.6 -24.45 -112.0 -24.55 -112.4 -31.3 -114.35 -38.2 -113.85 -42.25 -115.25 -37.15 -116.2 Q-39.05 -118.7 -32.6 -119.9 L-25.6 -118.35 -13.75 -115.55 -25.6 -118.35 -19.55 -119.6 -26.05 -121.1 -24.8 -121.5 -30.65 -122.4 -30.1 -123.1 Q-14.7 -119.35 -11.4 -117.3 -14.2 -120.7 -13.25 -120.85 L-9.15 -121.25 -7.05 -119.1 -1.6 -122.7 -2.35 -119.4 4.4 -120.95 9.1 -121.25 8.1 -118.75 17.0 -120.7 23.4 -120.0 28.05 -121.45 24.25 -117.5 20.35 -115.95 23.0 -114.05 29.6 -115.3 23.0 -114.05 20.35 -115.95 29.35 -119.2 31.1 -120.85 Q32.2 -118.2 32.9 -118.0 L44.1 -117.15 36.25 -115.7 26.9 -113.55 36.55 -114.7 44.8 -115.5 34.15 -111.35 M13.9 -118.0 L16.95 -117.2 13.7 -116.0 16.95 -117.2 13.9 -118.0 M-7.75 -117.5 L-13.25 -120.85 -7.75 -117.5 M24.35 -111.55 Q24.1 -112.95 23.0 -114.05 24.1 -112.95 24.35 -111.55 M16.95 -117.2 L20.35 -115.95 16.95 -117.2 M-29.15 -117.55 L-37.15 -116.2 -29.15 -117.55 M-22.4 -115.5 L-25.6 -115.05 -22.6 -113.4 -24.45 -112.0 -22.6 -113.4 -25.6 -115.05 -31.3 -114.35 -25.6 -115.05 -22.4 -115.5" fill="#744d02" fill-rule="evenodd" stroke="none"/>
      <path d="M-30.1 -123.1 L-29.55 -123.85 -19.0 -122.3 -15.55 -122.6 -20.5 -125.0 -16.4 -125.75 -10.35 -123.05 Q-2.9 -123.35 5.05 -123.1 L5.55 -125.85 10.25 -125.6 9.0 -122.65 Q11.85 -122.85 20.45 -122.35 L25.25 -122.2 26.4 -124.45 32.7 -123.5 31.1 -120.85 33.75 -120.55 37.0 -119.9 43.05 -121.55 44.75 -120.7 40.25 -118.9 Q42.85 -118.1 44.25 -117.2 L51.85 -117.2 Q49.3 -116.4 44.75 -115.55 L44.8 -115.5 39.35 -112.4 42.4 -111.05 37.35 -109.95 34.15 -111.35 28.0 -109.9 30.7 -107.4 26.9 -106.5 25.55 -110.2 20.4 -109.3 Q20.3 -112.05 18.0 -113.65 L13.7 -116.0 Q9.55 -117.45 3.25 -117.8 L-7.75 -117.5 Q-11.35 -116.9 -13.75 -115.55 -16.8 -114.5 -17.6 -110.9 L-23.5 -108.2 -27.35 -108.9 -25.6 -110.6 -24.45 -112.0 -24.55 -112.4 -31.3 -114.35 -38.2 -113.85 -42.25 -115.25 -37.15 -116.2 Q-39.05 -118.7 -32.6 -119.9 L-26.05 -121.1 -24.8 -121.5 -30.65 -122.4 -30.1 -123.1" fill="none" stroke="#000000" stroke-linecap="round" stroke-linejoin="round" stroke-opacity="0.3019608" stroke-width="0.30000000000000004"/>
      <path d="M-13.25 -120.85 L-15.55 -122.6 M13.7 -116.0 L16.95 -117.2 13.9 -118.0 M4.4 -120.95 L5.05 -123.1 M-13.25 -120.85 L-7.75 -117.5 M34.65 -119.15 L37.0 -119.9 M40.25 -118.9 L38.7 -118.3 M23.4 -120.0 L25.25 -122.2 M20.35 -115.95 L23.0 -114.05 29.6 -115.3 M23.0 -114.05 Q24.1 -112.95 24.35 -111.55 M20.35 -115.95 L16.95 -117.2 M31.1 -120.85 L29.35 -119.2 M-24.45 -112.0 L-22.6 -113.4 -25.6 -115.05 -31.3 -114.35 M-25.6 -115.05 L-22.4 -115.5 M-37.15 -116.2 L-29.15 -117.55 M-25.6 -118.35 L-32.6 -119.9 M-25.6 -118.35 L-13.75 -115.55 M-26.05 -121.1 L-19.55 -119.6" fill="none" stroke="#000000" stroke-linecap="round" stroke-linejoin="miter-clip" stroke-miterlimit="5.0" stroke-opacity="0.3019608" stroke-width="0.05"/>
      <path d="M29.95 -136.4 Q30.5 -136.1 31.05 -135.0 31.6 -134.15 31.2 -133.25 L30.6 -132.65 30.65 -132.65 Q31.35 -132.9 32.75 -132.2 34.25 -131.4 33.85 -130.35 33.65 -129.65 32.45 -129.95 L30.55 -130.6 Q32.5 -129.4 31.85 -128.35 31.75 -128.1 31.2 -127.9 L29.85 -127.95 Q28.65 -128.6 28.15 -130.4 L28.0 -129.25 Q27.7 -128.95 26.95 -128.8 L25.2 -129.1 24.3 -129.95 Q23.8 -130.7 23.95 -131.0 24.75 -132.15 26.05 -132.55 25.2 -132.4 23.65 -133.1 21.8 -133.9 22.15 -135.0 22.7 -136.75 25.6 -134.85 L24.5 -136.35 Q24.05 -137.15 24.1 -137.85 24.2 -138.75 25.2 -138.75 26.95 -138.65 27.8 -136.95 L28.25 -135.25 28.5 -136.15 Q28.95 -136.9 29.95 -136.4 M29.05 -133.25 Q27.9 -134.65 27.3 -134.45 26.55 -134.25 27.55 -132.35 28.75 -131.0 29.45 -131.15 30.3 -131.4 29.05 -133.25" fill="#fefdff" fill-rule="evenodd" stroke="none"/>
      <path d="M29.05 -133.25 Q30.3 -131.4 29.45 -131.15 28.75 -131.0 27.55 -132.35 26.55 -134.25 27.3 -134.45 27.9 -134.65 29.05 -133.25" fill="#f4cb4f" fill-rule="evenodd" stroke="none"/>
      <path d="M29.95 -136.4 Q30.5 -136.1 31.05 -135.0 31.6 -134.15 31.2 -133.25 L30.6 -132.65 30.65 -132.65 Q31.35 -132.9 32.75 -132.2 34.25 -131.4 33.85 -130.35 33.65 -129.65 32.45 -129.95 L30.55 -130.6 Q32.5 -129.4 31.85 -128.35 31.75 -128.1 31.2 -127.9 L29.85 -127.95 Q28.65 -128.6 28.15 -130.4 L28.0 -129.25 Q27.7 -128.95 26.95 -128.8 L25.2 -129.1 24.3 -129.95 Q23.8 -130.7 23.95 -131.0 24.75 -132.15 26.05 -132.55 25.2 -132.4 23.65 -133.1 21.8 -133.9 22.15 -135.0 22.7 -136.75 25.6 -134.85 L24.5 -136.35 Q24.05 -137.15 24.1 -137.85 24.2 -138.75 25.2 -138.75 26.95 -138.65 27.8 -136.95 L28.25 -135.25 28.5 -136.15 Q28.95 -136.9 29.95 -136.4 M29.05 -133.25 Q30.3 -131.4 29.45 -131.15 28.75 -131.0 27.55 -132.35 26.55 -134.25 27.3 -134.45 27.9 -134.65 29.05 -133.25 Z" fill="none" stroke="#000000" stroke-linecap="round" stroke-linejoin="round" stroke-opacity="0.4" stroke-width="0.05"/>
      <path d="M-2.5 -36.7 Q-3.05 -43.9 -2.4 -46.95 -1.55 -50.85 -1.55 -53.35 L-1.55 -56.6 Q-1.7 -58.6 -2.35 -59.75 L0.65 -61.3 0.85 -56.65 1.05 -53.25 0.55 -48.25 Q0.1 -43.7 0.1 -41.75 0.1 -40.5 0.95 -34.8 1.8 -29.1 1.8 -26.95 L1.4 -15.15 Q1.4 -8.5 2.3 -5.95 L3.4 -3.15 4.8 1.05 2.55 1.05 0.65 -7.65 0.65 -12.75 0.4 -18.45 Q0.0 -20.8 0.4 -24.4 0.75 -28.0 0.25 -30.4 L-0.3 -32.65 -0.65 -34.75 Q-1.0 -36.8 -2.05 -36.8 L-2.5 -36.7" fill="#2e1d0c" fill-rule="evenodd" stroke="none"/>
      <path d="M2.55 1.05 L-1.55 1.05 -1.75 -2.55 -1.25 -7.0 -0.8 -11.9 -1.3 -20.15 -2.1 -32.5 -2.5 -36.7 -2.05 -36.8 Q-1.0 -36.8 -0.65 -34.75 L-0.3 -32.65 0.25 -30.4 Q0.75 -28.0 0.4 -24.4 0.0 -20.8 0.4 -18.45 L0.65 -12.75 0.65 -7.65 2.55 1.05" fill="#4f3115" fill-rule="evenodd" stroke="none"/>
      <path d="M-2.5 -36.7 Q-3.05 -43.9 -2.4 -46.95 -1.55 -50.85 -1.55 -53.35 L-1.55 -56.6 Q-1.7 -58.6 -2.35 -59.75 L0.65 -61.3 0.85 -56.65 1.05 -53.25 0.55 -48.25 Q0.1 -43.7 0.1 -41.75 0.1 -40.5 0.95 -34.8 1.8 -29.1 1.8 -26.95 L1.4 -15.15 Q1.4 -8.5 2.3 -5.95 L3.4 -3.15 4.8 1.05 2.55 1.05 -1.55 1.05 -1.75 -2.55 -1.25 -7.0 -0.8 -11.9 -1.3 -20.15 -2.1 -32.5 -2.5 -36.7 Z" fill="none" stroke="#000000" stroke-linecap="round" stroke-linejoin="round" stroke-opacity="0.4" stroke-width="0.05"/>
      <path d="M50.95 -85.75 Q50.85 -84.95 49.15 -84.35 L-47.85 -96.3 Q-49.05 -97.1 -48.9 -97.9 -48.8 -98.7 -47.4 -99.55 L49.55 -87.55 Q51.1 -86.6 50.95 -85.75" fill="#4f3115" fill-rule="evenodd" stroke="none"/>
      <path d="M50.95 -85.75 Q50.85 -84.95 49.15 -84.35 L-47.85 -96.3 Q-49.05 -97.1 -48.9 -97.9 -48.8 -98.7 -47.4 -99.55 L49.55 -87.55 Q51.1 -86.6 50.95 -85.75 Z" fill="none" stroke="#000000" stroke-linecap="round" stroke-linejoin="round" stroke-opacity="0.4" stroke-width="0.05"/>
      <path d="M-34.75 -98.6 Q-37.75 -100.55 -39.6 -103.6 L-37.15 -103.6 Q-35.7 -101.15 -33.4 -99.15 L-31.7 -98.0 -30.55 -97.3 -31.35 -98.4 -31.6 -100.3 Q-31.75 -102.1 -31.15 -103.7 L-30.1 -103.35 Q-31.4 -101.1 -30.85 -98.55 -30.3 -101.3 -28.55 -103.2 -29.85 -101.3 -30.2 -98.65 L-30.15 -98.15 -30.05 -97.2 -30.0 -96.85 -32.9 -97.45 -34.75 -98.6" fill="url(#decoration137-gradient4)" fill-rule="evenodd" stroke="none"/>
      <path d="M-33.4 -99.15 Q-36.1 -102.65 -37.0 -106.7 L-35.0 -106.9 Q-35.0 -105.3 -34.05 -103.25 L-34.4 -103.2 Q-34.15 -100.4 -30.55 -97.3 L-31.7 -98.0 -33.4 -99.15 M-30.15 -98.15 L-29.25 -98.9 -29.0 -95.2 -28.95 -94.1 -29.05 -94.15 Q-31.7 -92.0 -32.4 -89.05 -33.25 -90.35 -31.45 -92.85 L-30.15 -93.75 -29.05 -94.15 -29.4 -94.95 -33.0 -95.1 Q-38.0 -96.0 -41.85 -97.7 -37.1 -96.55 -32.75 -96.25 L-36.8 -97.05 -37.85 -97.85 -36.0 -98.1 -34.05 -97.85 Q-40.6 -100.3 -40.85 -100.55 L-40.45 -101.25 Q-37.9 -99.45 -34.75 -98.6 L-32.9 -97.45 -30.0 -96.85 -30.0 -96.9 -30.05 -97.2 -30.15 -98.15 M-30.55 -94.5 L-37.85 -92.05 -36.6 -94.15 -32.95 -94.6 -30.55 -94.5 M-32.9 -97.45 L-34.05 -97.85 -32.9 -97.45 M-30.25 -96.25 L-32.75 -96.25 -30.25 -96.25" fill="#b5a13a" fill-rule="evenodd" stroke="none"/>
      <path d="M-34.05 -103.25 L-33.25 -103.35 -32.65 -101.15 -31.35 -98.4 -30.55 -97.3 Q-34.15 -100.4 -34.4 -103.2 L-34.05 -103.25" fill="#d4ce58" fill-rule="evenodd" stroke="none"/>
      <path d="M-32.65 -101.15 L-32.65 -103.05 Q-32.55 -105.15 -32.25 -106.15 -32.55 -103.4 -31.6 -100.3 L-31.35 -98.4 -32.65 -101.15" fill="#998629" fill-rule="evenodd" stroke="none"/>
      <path d="M-31.45 -92.85 L-36.35 -88.95 -36.2 -91.8 -30.55 -94.5 -32.95 -94.6 -37.8 -95.3 -33.0 -95.1 -29.4 -94.95 -29.05 -94.15 -30.15 -93.75 -31.45 -92.85" fill="url(#decoration137-gradient5)" fill-rule="evenodd" stroke="none"/>
      <path d="M-34.75 -98.6 Q-37.75 -100.55 -39.6 -103.6 L-37.15 -103.6 Q-35.7 -101.15 -33.4 -99.15 -36.1 -102.65 -37.0 -106.7 L-35.0 -106.9 Q-35.0 -105.3 -34.05 -103.25 L-33.25 -103.35 -32.65 -101.15 -32.65 -103.05 Q-32.55 -105.15 -32.25 -106.15 -32.55 -103.4 -31.6 -100.3 -31.75 -102.1 -31.15 -103.7 L-30.1 -103.35 Q-31.4 -101.1 -30.85 -98.55 -30.3 -101.3 -28.55 -103.2 -29.85 -101.3 -30.2 -98.65 L-30.15 -98.15 -29.25 -98.9 M-29.05 -94.15 Q-31.7 -92.0 -32.4 -89.05 -33.25 -90.35 -31.45 -92.85 L-36.35 -88.95 -36.2 -91.8 -30.55 -94.5 -37.85 -92.05 -36.6 -94.15 -32.95 -94.6 -37.8 -95.3 -33.0 -95.1 Q-38.0 -96.0 -41.85 -97.7 -37.1 -96.55 -32.75 -96.25 L-36.8 -97.05 -37.85 -97.85 -36.0 -98.1 -34.05 -97.85 Q-40.6 -100.3 -40.85 -100.55 L-40.45 -101.25 Q-37.9 -99.45 -34.75 -98.6 L-32.9 -97.45 -30.0 -96.85 -30.05 -97.2 -30.15 -98.15 M-30.55 -97.3 Q-34.15 -100.4 -34.4 -103.2 L-34.05 -103.25 M-31.45 -92.85 L-30.15 -93.75 -29.05 -94.15 -29.4 -94.95 -33.0 -95.1 M-32.95 -94.6 L-30.55 -94.5 M-34.05 -97.85 L-32.9 -97.45 M-31.35 -98.4 L-30.55 -97.3 -31.7 -98.0 -33.4 -99.15 M-32.75 -96.25 L-30.25 -96.25 M-32.65 -101.15 L-31.35 -98.4 -31.6 -100.3" fill="none" stroke="#000000" stroke-linecap="round" stroke-linejoin="round" stroke-opacity="0.3019608" stroke-width="0.05"/>
      <path d="M35.95 -90.9 Q39.05 -91.75 41.6 -93.55 L42.05 -92.85 35.25 -90.15 34.1 -89.75 35.25 -90.15 37.15 -90.4 39.0 -90.15 37.95 -89.35 33.9 -88.55 Q38.3 -88.85 43.0 -90.0 39.2 -88.3 34.2 -87.4 L30.6 -87.25 30.2 -86.45 30.15 -86.4 30.15 -87.5 30.4 -91.2 31.3 -90.45 31.2 -89.2 31.2 -89.15 34.1 -89.75 35.95 -90.9 M34.1 -86.9 L37.75 -86.45 39.0 -84.35 31.7 -86.8 34.1 -86.9 M32.6 -85.15 Q34.45 -82.65 33.55 -81.35 32.9 -84.3 30.2 -86.45 L31.3 -86.05 32.6 -85.15 M35.25 -95.55 Q36.2 -97.6 36.15 -99.2 L38.2 -99.0 Q37.25 -94.95 34.6 -91.45 L32.9 -90.3 31.7 -89.6 Q35.3 -92.7 35.55 -95.5 L35.25 -95.55 M31.45 -88.55 L33.9 -88.55 31.45 -88.55" fill="#b5a13a" fill-rule="evenodd" stroke="none"/>
      <path d="M35.95 -90.9 L34.1 -89.75 31.2 -89.15 31.3 -90.45 31.35 -90.95 Q31.0 -93.6 29.75 -95.5 31.5 -93.6 32.0 -90.9 32.6 -93.4 31.25 -95.65 L32.35 -96.0 Q32.95 -94.4 32.75 -92.6 L32.5 -90.7 31.7 -89.6 32.9 -90.3 34.6 -91.45 Q36.9 -93.45 38.3 -95.9 L40.75 -95.9 Q38.9 -92.85 35.95 -90.9" fill="url(#decoration137-gradient6)" fill-rule="evenodd" stroke="none"/>
      <path d="M32.75 -92.6 Q33.75 -95.7 33.4 -98.45 33.7 -97.45 33.8 -95.35 L33.8 -93.45 32.5 -90.7 32.75 -92.6" fill="#998629" fill-rule="evenodd" stroke="none"/>
      <path d="M33.8 -93.45 L34.45 -95.65 35.25 -95.55 35.55 -95.5 Q35.3 -92.7 31.7 -89.6 L32.5 -90.7 33.8 -93.45" fill="#d4ce58" fill-rule="evenodd" stroke="none"/>
      <path d="M34.2 -87.4 L38.95 -87.6 34.1 -86.9 31.7 -86.8 37.4 -84.1 37.5 -81.25 32.6 -85.15 31.3 -86.05 30.2 -86.45 30.6 -87.25 34.2 -87.4" fill="url(#decoration137-gradient7)" fill-rule="evenodd" stroke="none"/>
      <path d="M35.25 -90.15 L42.05 -92.85 41.6 -93.55 Q39.05 -91.75 35.95 -90.9 L34.1 -89.75 35.25 -90.15 37.15 -90.4 39.0 -90.15 37.95 -89.35 33.9 -88.55 Q38.3 -88.85 43.0 -90.0 39.2 -88.3 34.2 -87.4 L38.95 -87.6 34.1 -86.9 37.75 -86.45 39.0 -84.35 31.7 -86.8 37.4 -84.1 37.5 -81.25 32.6 -85.15 Q34.45 -82.65 33.55 -81.35 32.9 -84.3 30.2 -86.45 L30.6 -87.25 34.2 -87.4 M30.4 -91.2 L31.3 -90.45 31.35 -90.95 Q31.0 -93.6 29.75 -95.5 31.5 -93.6 32.0 -90.9 32.6 -93.4 31.25 -95.65 L32.35 -96.0 Q32.95 -94.4 32.75 -92.6 33.75 -95.7 33.4 -98.45 33.7 -97.45 33.8 -95.35 L33.8 -93.45 34.45 -95.65 35.25 -95.55 Q36.2 -97.6 36.15 -99.2 L38.2 -99.0 Q37.25 -94.95 34.6 -91.45 36.9 -93.45 38.3 -95.9 L40.75 -95.9 Q38.9 -92.85 35.95 -90.9 M32.75 -92.6 L32.5 -90.7 33.8 -93.45 M31.3 -90.45 L31.2 -89.15 34.1 -89.75 M33.9 -88.55 L31.45 -88.55 M32.5 -90.7 L31.7 -89.6 Q35.3 -92.7 35.55 -95.5 L35.25 -95.55 M34.6 -91.45 L32.9 -90.3 31.7 -89.6 M34.1 -86.9 L31.7 -86.8 M32.6 -85.15 L31.3 -86.05 30.2 -86.45" fill="none" stroke="#000000" stroke-linecap="round" stroke-linejoin="round" stroke-opacity="0.3019608" stroke-width="0.05"/>
      <path d="M7.3 -94.2 Q9.5 -98.75 12.1 -102.0 9.75 -97.75 8.35 -93.65 L10.15 -97.35 11.2 -98.1 10.95 -96.25 10.2 -94.45 14.55 -100.35 15.15 -99.75 Q12.75 -97.75 11.15 -94.95 L9.55 -93.5 Q8.8 -92.25 8.2 -90.85 L8.25 -90.8 8.6 -90.8 9.5 -90.6 10.0 -89.55 6.35 -90.25 5.3 -90.5 5.35 -90.6 Q3.95 -93.7 1.3 -95.15 2.75 -95.6 4.75 -93.25 L5.25 -91.75 5.35 -90.6 6.2 -90.75 7.3 -94.2 M11.3 -93.5 Q15.4 -95.2 19.55 -95.05 19.8 -93.95 19.2 -93.05 17.65 -93.45 15.45 -93.1 L15.5 -93.45 Q12.75 -93.9 8.8 -91.2 L9.75 -92.15 11.3 -93.5 M6.1 -91.95 L5.6 -99.65 7.3 -97.9 6.85 -94.25 6.1 -91.95 M10.2 -94.45 L9.55 -93.5 10.2 -94.45 M7.7 -91.2 L8.35 -93.65 7.7 -91.2" fill="#b5a13a" fill-rule="evenodd" stroke="none"/>
      <path d="M15.45 -93.1 L15.35 -92.25 13.05 -92.25 10.05 -91.75 8.8 -91.2 Q12.75 -93.9 15.5 -93.45 L15.45 -93.1" fill="#d4ce58" fill-rule="evenodd" stroke="none"/>
      <path d="M11.15 -94.95 Q13.75 -97.35 17.2 -98.35 L16.55 -96.0 Q13.85 -95.2 11.3 -93.5 L9.75 -92.15 8.8 -91.2 10.05 -91.75 12.0 -91.45 Q13.7 -91.1 15.1 -90.15 L14.55 -89.2 Q12.7 -91.1 10.1 -91.2 12.6 -89.95 14.0 -87.8 12.5 -89.55 10.0 -90.5 L9.5 -90.6 8.6 -90.8 8.2 -90.85 Q8.8 -92.25 9.55 -93.5 L11.15 -94.95" fill="url(#decoration137-gradient8)" fill-rule="evenodd" stroke="none"/>
      <path d="M13.05 -92.25 L14.9 -91.8 Q16.85 -91.15 17.8 -90.6 15.2 -91.6 12.0 -91.45 L10.05 -91.75 13.05 -92.25" fill="#998629" fill-rule="evenodd" stroke="none"/>
      <path d="M4.75 -93.25 L2.2 -99.0 4.9 -98.1 6.1 -91.95 6.85 -94.25 8.75 -98.75 7.3 -94.2 6.2 -90.75 5.35 -90.6 5.25 -91.75 4.75 -93.25" fill="url(#decoration137-gradient9)" fill-rule="evenodd" stroke="none"/>
      <path d="M7.3 -94.2 Q9.5 -98.75 12.1 -102.0 9.75 -97.75 8.35 -93.65 L10.15 -97.35 11.2 -98.1 10.95 -96.25 10.2 -94.45 14.55 -100.35 15.15 -99.75 Q12.75 -97.75 11.15 -94.95 13.75 -97.35 17.2 -98.35 L16.55 -96.0 Q13.85 -95.2 11.3 -93.5 15.4 -95.2 19.55 -95.05 19.8 -93.95 19.2 -93.05 17.65 -93.45 15.45 -93.1 L15.35 -92.25 13.05 -92.25 14.9 -91.8 Q16.85 -91.15 17.8 -90.6 15.2 -91.6 12.0 -91.45 13.7 -91.1 15.1 -90.15 L14.55 -89.2 Q12.7 -91.1 10.1 -91.2 12.6 -89.95 14.0 -87.8 12.5 -89.55 10.0 -90.5 L9.5 -90.6 10.0 -89.55 M5.35 -90.6 Q3.95 -93.7 1.3 -95.15 2.75 -95.6 4.75 -93.25 L2.2 -99.0 4.9 -98.1 6.1 -91.95 5.6 -99.65 7.3 -97.9 6.85 -94.25 8.75 -98.75 7.3 -94.2 6.2 -90.75 5.35 -90.6 5.25 -91.75 4.75 -93.25 M8.8 -91.2 Q12.75 -93.9 15.5 -93.45 L15.45 -93.1 M8.8 -91.2 L9.75 -92.15 11.3 -93.5 M10.05 -91.75 L8.8 -91.2 M8.6 -90.8 L8.2 -90.85 Q8.8 -92.25 9.55 -93.5 L10.2 -94.45 M9.5 -90.6 L8.6 -90.8 M8.35 -93.65 L7.7 -91.2 M6.85 -94.25 L6.1 -91.95 M13.05 -92.25 L10.05 -91.75 12.0 -91.45 M9.55 -93.5 L11.15 -94.95" fill="none" stroke="#000000" stroke-linecap="round" stroke-linejoin="round" stroke-opacity="0.3019608" stroke-width="0.05"/>
      <path d="M-10.45 -96.7 L-10.9 -100.4 -9.2 -101.9 -9.7 -94.3 -10.45 -96.7 M-8.35 -95.4 Q-6.35 -97.5 -4.9 -96.85 -7.55 -95.75 -8.95 -92.85 L-8.9 -92.7 -9.95 -92.6 -13.6 -92.4 -13.1 -93.4 -12.2 -93.45 -11.85 -93.45 -11.8 -93.45 -13.15 -96.3 -14.75 -97.95 Q-16.35 -101.0 -18.75 -103.3 L-18.15 -103.85 -13.8 -97.35 -14.55 -99.25 -14.8 -101.15 -13.75 -100.25 -11.95 -96.3 Q-13.35 -100.6 -15.7 -105.15 -13.1 -101.55 -10.9 -96.7 L-9.8 -93.1 -8.95 -92.85 -8.85 -93.95 -8.35 -95.4 M-19.05 -96.7 L-22.8 -97.15 Q-23.4 -98.15 -23.15 -99.2 -19.0 -98.8 -14.9 -96.55 L-13.35 -95.0 -12.4 -93.9 Q-16.35 -97.15 -19.1 -97.05 L-19.05 -96.7 M-13.15 -96.3 L-13.8 -97.35 -13.15 -96.3 M-11.3 -93.75 L-11.95 -96.3 -11.3 -93.75" fill="#b5a13a" fill-rule="evenodd" stroke="none"/>
      <path d="M-13.1 -93.4 L-13.6 -93.35 Q-16.1 -92.75 -17.6 -91.2 -16.2 -93.15 -13.7 -94.1 -16.3 -94.35 -18.15 -92.7 L-18.7 -93.7 Q-17.3 -94.45 -15.6 -94.6 L-13.65 -94.6 -12.4 -93.9 -13.35 -95.0 -14.9 -96.55 Q-17.45 -98.6 -20.15 -99.75 L-20.8 -102.2 Q-17.35 -100.75 -14.75 -97.95 L-13.15 -96.3 -11.8 -93.45 -12.2 -93.45 -13.1 -93.4" fill="url(#decoration137-gradient10)" fill-rule="evenodd" stroke="none"/>
      <path d="M-10.45 -96.7 L-9.7 -94.3 -8.5 -100.25 -5.8 -100.8 -8.35 -95.4 -8.85 -93.95 -8.95 -92.85 -9.8 -93.1 -10.9 -96.7 -12.35 -101.45 -10.45 -96.7" fill="url(#decoration137-gradient11)" fill-rule="evenodd" stroke="none"/>
      <path d="M-16.65 -95.55 L-18.95 -95.85 -19.05 -96.7 -19.1 -97.05 Q-16.35 -97.15 -12.4 -93.9 L-13.65 -94.6 -16.65 -95.55" fill="#d4ce58" fill-rule="evenodd" stroke="none"/>
      <path d="M-15.6 -94.6 Q-18.8 -95.2 -21.4 -94.55 L-18.5 -95.35 -16.65 -95.55 -13.65 -94.6 -15.6 -94.6" fill="#998629" fill-rule="evenodd" stroke="none"/>
      <path d="M-9.7 -94.3 L-9.2 -101.9 -10.9 -100.4 -10.45 -96.7 -9.7 -94.3 -8.5 -100.25 -5.8 -100.8 -8.35 -95.4 Q-6.35 -97.5 -4.9 -96.85 -7.55 -95.75 -8.95 -92.85 L-9.8 -93.1 -10.9 -96.7 -12.35 -101.45 -10.45 -96.7 M-13.6 -92.4 L-13.1 -93.4 -13.6 -93.35 Q-16.1 -92.75 -17.6 -91.2 -16.2 -93.15 -13.7 -94.1 -16.3 -94.35 -18.15 -92.7 L-18.7 -93.7 Q-17.3 -94.45 -15.6 -94.6 -18.8 -95.2 -21.4 -94.55 L-18.5 -95.35 -16.65 -95.55 -18.95 -95.85 -19.05 -96.7 -22.8 -97.15 Q-23.4 -98.15 -23.15 -99.2 -19.0 -98.8 -14.9 -96.55 -17.45 -98.6 -20.15 -99.75 L-20.8 -102.2 Q-17.35 -100.75 -14.75 -97.95 -16.35 -101.0 -18.75 -103.3 L-18.15 -103.85 -13.8 -97.35 -14.55 -99.25 -14.8 -101.15 -13.75 -100.25 -11.95 -96.3 Q-13.35 -100.6 -15.7 -105.15 -13.1 -101.55 -10.9 -96.7 M-8.35 -95.4 L-8.85 -93.95 -8.95 -92.85 M-13.8 -97.35 L-13.15 -96.3 -11.8 -93.45 -12.2 -93.45 -13.1 -93.4 M-14.75 -97.95 L-13.15 -96.3 M-12.4 -93.9 L-13.65 -94.6 -15.6 -94.6 M-11.95 -96.3 L-11.3 -93.75 M-14.9 -96.55 L-13.35 -95.0 -12.4 -93.9 Q-16.35 -97.15 -19.1 -97.05 L-19.05 -96.7 M-16.65 -95.55 L-13.65 -94.6" fill="none" stroke="#000000" stroke-linecap="round" stroke-linejoin="round" stroke-opacity="0.3019608" stroke-width="0.05"/>
      <path d="M1.65 -92.95 Q1.35 -94.55 1.2 -96.65 L2.9 -98.15 2.4 -90.55 1.65 -92.95 M3.75 -91.65 Q5.75 -93.75 7.2 -93.1 4.55 -92.0 3.15 -89.1 L3.2 -88.95 2.15 -88.85 -1.5 -88.65 -1.0 -89.65 -0.1 -89.7 0.25 -89.7 0.3 -89.7 -1.05 -92.55 -2.65 -94.2 Q-4.25 -97.25 -6.65 -99.55 L-6.05 -100.1 -1.7 -93.6 -2.45 -95.5 -2.7 -97.4 -1.65 -96.5 0.15 -92.55 Q-1.25 -96.85 -3.6 -101.4 -1.0 -97.8 1.2 -92.95 L2.3 -89.35 3.15 -89.1 3.25 -90.2 3.75 -91.65 M-6.95 -92.95 L-10.7 -93.4 Q-11.3 -94.4 -11.05 -95.45 -6.9 -95.05 -2.8 -92.8 L-1.25 -91.25 -0.3 -90.15 Q-4.25 -93.4 -7.0 -93.3 L-6.95 -92.95 M0.8 -90.0 L0.15 -92.55 0.8 -90.0 M-1.7 -93.6 L-1.05 -92.55 -1.7 -93.6" fill="#b5a13a" fill-rule="evenodd" stroke="none"/>
      <path d="M1.65 -92.95 L2.4 -90.55 3.6 -96.5 6.3 -97.05 3.75 -91.65 3.25 -90.2 3.15 -89.1 2.3 -89.35 1.2 -92.95 -0.25 -97.7 1.65 -92.95" fill="url(#decoration137-gradient12)" fill-rule="evenodd" stroke="none"/>
      <path d="M-4.55 -91.8 L-6.85 -92.1 -6.95 -92.95 -7.0 -93.3 Q-4.25 -93.4 -0.3 -90.15 L-1.55 -90.85 -4.55 -91.8" fill="#d4ce58" fill-rule="evenodd" stroke="none"/>
      <path d="M-1.0 -89.65 L-1.5 -89.6 Q-4.0 -89.0 -5.5 -87.45 -4.1 -89.4 -1.6 -90.35 -4.2 -90.6 -6.05 -88.95 L-6.6 -89.95 Q-5.2 -90.7 -3.5 -90.85 L-1.55 -90.85 -0.3 -90.15 -1.25 -91.25 -2.8 -92.8 Q-5.35 -94.85 -8.05 -96.0 L-8.7 -98.45 Q-5.25 -97.0 -2.65 -94.2 L-1.05 -92.55 0.3 -89.7 -0.1 -89.7 -1.0 -89.65" fill="url(#decoration137-gradient13)" fill-rule="evenodd" stroke="none"/>
      <path d="M-3.5 -90.85 Q-6.7 -91.45 -9.3 -90.8 L-6.4 -91.6 -4.55 -91.8 -1.55 -90.85 -3.5 -90.85" fill="#998629" fill-rule="evenodd" stroke="none"/>
      <path d="M2.4 -90.55 L2.9 -98.15 1.2 -96.65 Q1.35 -94.55 1.65 -92.95 L2.4 -90.55 3.6 -96.5 6.3 -97.05 3.75 -91.65 Q5.75 -93.75 7.2 -93.1 4.55 -92.0 3.15 -89.1 L2.3 -89.35 1.2 -92.95 -0.25 -97.7 1.65 -92.95 M-1.5 -88.65 L-1.0 -89.65 -1.5 -89.6 Q-4.0 -89.0 -5.5 -87.45 -4.1 -89.4 -1.6 -90.35 -4.2 -90.6 -6.05 -88.95 L-6.6 -89.95 Q-5.2 -90.7 -3.5 -90.85 -6.7 -91.45 -9.3 -90.8 L-6.4 -91.6 -4.55 -91.8 -6.85 -92.1 -6.95 -92.95 -10.7 -93.4 Q-11.3 -94.4 -11.05 -95.45 -6.9 -95.05 -2.8 -92.8 -5.35 -94.85 -8.05 -96.0 L-8.7 -98.45 Q-5.25 -97.0 -2.65 -94.2 -4.25 -97.25 -6.65 -99.55 L-6.05 -100.1 -1.7 -93.6 -2.45 -95.5 -2.7 -97.4 -1.65 -96.5 0.15 -92.55 Q-1.25 -96.85 -3.6 -101.4 -1.0 -97.8 1.2 -92.95 M3.75 -91.65 L3.25 -90.2 3.15 -89.1 M-0.1 -89.7 L-1.0 -89.65 M0.15 -92.55 L0.8 -90.0 M-0.3 -90.15 Q-4.25 -93.4 -7.0 -93.3 L-6.95 -92.95 M-2.8 -92.8 L-1.25 -91.25 -0.3 -90.15 -1.55 -90.85 -3.5 -90.85 M-4.55 -91.8 L-1.55 -90.85 M-1.05 -92.55 L-1.7 -93.6 M-2.65 -94.2 L-1.05 -92.55 0.3 -89.7 -0.1 -89.7" fill="none" stroke="#000000" stroke-linecap="round" stroke-linejoin="round" stroke-opacity="0.3019608" stroke-width="0.05"/>
      <path d="M23.2 -91.35 L24.8 -90.4 27.3 -88.75 Q29.35 -87.2 29.6 -86.45 L29.75 -86.45 29.75 -89.35 Q29.45 -90.15 29.45 -90.65 L29.7 -91.3 Q30.2 -91.85 31.65 -91.1 32.95 -81.05 32.15 -75.25 30.9 -65.7 26.5 -59.2 29.45 -66.4 28.9 -70.55 L28.6 -71.05 29.3 -73.35 Q29.75 -74.55 29.75 -79.65 L29.75 -80.85 Q29.6 -81.6 28.6 -81.6 27.5 -81.0 27.1 -81.0 L25.8 -81.45 Q24.9 -81.45 24.3 -78.45 L24.25 -75.35 Q24.35 -74.35 25.0 -71.75 L23.65 -73.75 Q22.75 -75.7 22.8 -77.3 21.15 -77.1 20.25 -73.95 20.95 -70.25 19.75 -66.75 17.6 -61.35 18.1 -58.15 15.25 -65.6 17.8 -68.55 19.55 -70.7 17.7 -72.75 L17.25 -74.25 16.05 -75.3 15.05 -75.75 Q13.85 -75.75 12.85 -73.05 L11.75 -69.35 11.6 -65.8 Q11.55 -63.45 10.15 -63.45 L9.1 -63.75 7.75 -64.1 Q4.4 -64.1 3.3 -55.15 L2.8 -49.15 2.2 -47.45 Q0.65 -43.1 0.25 -40.55 L0.05 -37.4 -0.15 -34.5 Q-0.5 -31.25 -2.75 -29.45 L-5.1 -27.35 -7.2 -25.4 -9.05 -23.7 -10.3 -22.7 Q-10.3 -24.05 -9.25 -25.85 -8.2 -27.6 -6.8 -28.75 -6.2 -29.3 -6.0 -30.1 -2.85 -32.15 -2.85 -32.85 L-3.15 -33.4 -3.45 -34.3 -2.8 -36.8 Q-2.15 -38.8 -2.1 -39.75 L-2.1 -47.9 -2.25 -52.85 -2.45 -56.35 -3.0 -58.65 Q-3.75 -61.2 -4.75 -61.2 -5.95 -61.2 -7.9 -57.05 -9.2 -54.4 -9.6 -52.6 -9.4 -54.45 -9.85 -56.5 -10.5 -59.2 -11.8 -59.2 L-12.25 -59.05 -12.65 -59.05 Q-12.4 -61.55 -13.1 -63.7 -13.75 -65.95 -14.8 -65.95 -15.3 -65.95 -16.55 -63.4 -18.1 -60.15 -18.2 -60.25 L-18.4 -60.8 -18.15 -60.7 -17.9 -63.6 Q-17.55 -67.05 -17.55 -68.2 -17.55 -70.7 -17.85 -72.6 -18.3 -75.45 -19.35 -75.45 -20.3 -75.45 -21.0 -72.35 L-21.1 -70.95 -21.1 -70.9 Q-21.3 -70.45 -21.35 -70.65 L-21.65 -71.7 Q-21.8 -72.05 -22.4 -72.05 -23.45 -72.05 -24.5 -67.35 L-25.85 -60.95 -26.0 -60.95 -26.0 -63.65 -25.3 -67.6 Q-24.75 -70.15 -24.75 -71.2 -24.75 -72.0 -25.25 -74.15 L-25.5 -75.3 -25.1 -76.8 Q-25.1 -77.25 -26.05 -79.2 -27.0 -81.25 -27.05 -82.7 -27.3 -87.75 -27.65 -90.3 -29.3 -89.8 -30.2 -86.65 -31.05 -82.9 -31.65 -81.6 L-33.15 -77.85 -33.35 -77.4 -33.3 -77.3 -34.5 -75.7 -33.6 -78.45 -32.8 -80.95 Q-31.15 -86.55 -31.15 -88.65 -31.15 -91.0 -31.7 -93.55 L-32.2 -97.2 Q-32.2 -98.85 -31.85 -99.15 L-30.35 -99.05 Q-30.15 -98.9 -29.9 -98.05 L-29.45 -95.55 -28.95 -94.6 Q-28.45 -93.8 -28.35 -93.95 L-26.5 -95.65 Q-25.8 -96.15 -22.95 -96.4 L-19.7 -96.65 -6.8 -96.5 5.25 -94.9 14.6 -92.3 23.2 -91.35 M28.05 -85.0 Q27.75 -85.85 26.95 -85.85 26.4 -85.85 26.35 -85.3 L26.35 -84.6 Q26.35 -82.85 27.4 -82.85 L28.35 -83.55 28.05 -85.0 M23.75 -82.15 L23.5 -84.65 Q23.05 -86.8 22.1 -86.8 21.85 -86.8 21.5 -85.8 21.2 -84.8 21.2 -84.0 21.2 -82.35 22.1 -80.7 22.95 -79.05 23.5 -78.85 L23.75 -82.15 M19.8 -78.9 L18.8 -82.1 17.7 -84.65 18.8 -82.1 19.8 -78.9 M18.2 -78.05 L17.7 -79.25 18.2 -78.05 M31.4 -80.25 L31.25 -84.45 31.4 -80.25 M9.45 -67.45 L8.75 -68.1 Q8.2 -68.5 8.0 -68.5 7.3 -68.5 7.3 -67.35 7.3 -66.45 7.8 -65.7 8.35 -64.9 8.95 -64.9 9.8 -64.9 9.45 -67.45 M-9.05 -83.1 L-8.2 -79.65 -10.05 -79.55 -11.45 -79.6 -11.75 -80.45 Q-13.5 -85.4 -13.5 -86.15 -13.5 -85.4 -11.75 -80.45 L-11.45 -79.6 -10.05 -79.55 -8.2 -79.65 -9.05 -83.1 M0.8 -56.25 Q1.05 -56.95 1.1 -59.6 L1.05 -62.7 1.1 -59.6 Q1.05 -56.95 0.8 -56.25 M1.05 -49.35 L1.05 -50.35 Q1.1 -50.85 1.5 -51.35 1.1 -50.85 1.05 -50.35 L1.05 -49.35 M-15.45 -76.65 L-15.45 -75.45 -15.5 -72.8 Q-15.55 -70.3 -14.45 -70.3 -13.65 -70.3 -13.25 -71.2 -12.85 -72.15 -12.9 -74.1 L-12.9 -76.9 -13.95 -76.7 -14.85 -76.65 -15.45 -76.65 M-24.95 -86.0 L-24.0 -88.45 -23.45 -90.75 -24.0 -88.45 -24.95 -86.0 M-6.2 -74.4 L-7.25 -77.1 -6.75 -77.1 -4.1 -77.3 -1.8 -77.55 -4.1 -77.3 -6.75 -77.1 -7.25 -77.1 -6.2 -74.4 M-9.75 -75.0 L-9.9 -75.35 -10.65 -77.35 -11.45 -79.6 -10.65 -77.35 -8.7 -77.2 -7.25 -77.1 -7.6 -77.9 -8.2 -79.65 -4.2 -79.95 -8.2 -79.65 -7.6 -77.9 -7.25 -77.1 -8.7 -77.2 -10.65 -77.35 -9.9 -75.35 -9.75 -75.0 M-11.45 -79.6 L-12.65 -79.8 -14.15 -80.1 -12.65 -79.8 -11.45 -79.6 M-24.5 -80.55 L-24.3 -79.55 -23.8 -78.65 Q-21.9 -79.8 -22.5 -84.9 -22.45 -83.9 -23.45 -82.6 -24.5 -81.25 -24.5 -80.55 M-23.45 -85.65 Q-22.8 -87.1 -22.8 -87.5 -22.8 -87.1 -23.45 -85.65 M-30.2 -90.6 L-30.5 -93.3 -30.2 -90.6 M-9.5 -65.95 Q-9.65 -66.35 -10.15 -66.35 L-11.0 -65.7 -11.0 -65.5 Q-11.0 -64.7 -10.65 -64.2 -10.3 -63.65 -9.5 -63.65 -9.35 -63.95 -9.35 -64.9 -9.35 -65.65 -9.5 -65.95 M-9.6 -52.6 L-9.55 -52.5 -9.65 -52.3 -9.6 -52.6" fill="url(#decoration137-gradient14)" fill-rule="evenodd" stroke="none"/>
      <path d="M29.75 -89.35 L29.75 -86.45 29.6 -86.45 Q29.35 -87.2 27.3 -88.75 L24.8 -90.4 23.2 -91.35 29.45 -90.65 Q29.45 -90.15 29.75 -89.35 M-19.7 -96.65 L-22.95 -96.4 Q-25.8 -96.15 -26.5 -95.65 L-28.35 -93.95 Q-28.45 -93.8 -28.95 -94.6 L-29.45 -95.55 -29.9 -98.05 Q-26.15 -98.35 -19.7 -96.65 M-33.3 -77.3 L-33.35 -77.4 -33.15 -77.85 -31.65 -81.6 Q-31.05 -82.9 -30.2 -86.65 -29.3 -89.8 -27.65 -90.3 -27.3 -87.75 -27.05 -82.7 -27.0 -81.25 -26.05 -79.2 -25.1 -77.25 -25.1 -76.8 L-25.5 -75.3 -25.75 -76.8 Q-25.8 -77.6 -26.65 -78.5 -27.55 -79.45 -27.65 -79.9 L-28.0 -83.75 Q-28.45 -87.15 -28.7 -86.35 L-33.3 -77.3 M-21.1 -70.95 L-21.0 -72.35 Q-20.3 -75.45 -19.35 -75.45 -18.3 -75.45 -17.85 -72.6 -17.55 -70.7 -17.55 -68.2 -17.55 -67.05 -17.9 -63.6 L-18.15 -60.7 -18.4 -60.8 -18.45 -62.85 -18.15 -69.45 Q-18.15 -71.45 -18.45 -72.15 -18.75 -73.0 -19.65 -73.0 L-20.45 -72.1 -21.1 -70.95 M-9.6 -52.6 Q-9.2 -54.4 -7.9 -57.05 -5.95 -61.2 -4.75 -61.2 -3.75 -61.2 -3.0 -58.65 L-2.45 -56.35 -2.25 -52.85 -2.1 -47.9 -2.1 -39.75 Q-2.15 -38.8 -2.8 -36.8 L-3.45 -34.3 -3.15 -33.4 -2.85 -32.85 Q-2.85 -32.15 -6.0 -30.1 L-5.95 -30.55 -5.85 -32.85 Q-5.35 -36.45 -4.2 -38.45 L-3.5 -39.9 -3.3 -43.0 Q-3.3 -44.45 -3.75 -45.1 -4.2 -45.7 -4.2 -46.85 L-3.15 -51.45 -4.2 -54.25 Q-5.4 -57.05 -5.75 -57.05 -6.2 -57.05 -7.85 -55.0 L-9.55 -52.5 -9.6 -52.6 M2.8 -49.15 L3.3 -55.15 Q4.4 -64.1 7.75 -64.1 L9.1 -63.75 10.15 -63.45 Q11.55 -63.45 11.6 -65.8 L11.75 -69.35 12.85 -73.05 Q13.85 -75.75 15.05 -75.75 L16.05 -75.3 17.25 -74.25 17.7 -72.75 Q17.5 -73.05 16.35 -73.6 L15.1 -74.0 Q13.05 -71.55 14.05 -63.15 L12.9 -63.4 Q12.35 -63.4 11.15 -60.15 L9.05 -63.4 Q7.35 -63.4 5.85 -60.7 4.55 -58.3 4.05 -55.0 L3.9 -53.8 Q3.75 -52.0 2.8 -49.15 M25.0 -71.75 Q24.35 -74.35 24.25 -75.35 L24.3 -78.45 Q24.9 -81.45 25.8 -81.45 L27.1 -81.0 Q27.5 -81.0 28.6 -81.6 29.6 -81.6 29.75 -80.85 L29.75 -79.65 Q29.75 -74.55 29.3 -73.35 L28.6 -71.05 Q28.15 -72.35 28.9 -75.85 29.45 -82.0 27.3 -79.6 24.9 -81.3 25.0 -71.75" fill="#242427" fill-rule="evenodd" stroke="none"/>
      <path d="M-12.65 -59.05 L-12.25 -59.05 -12.75 -58.55 -12.65 -59.05" fill="#353537" fill-rule="evenodd" stroke="none"/>
      <path d="M29.75 -89.35 Q29.45 -90.15 29.45 -90.65 L23.2 -91.35 14.6 -92.3 5.25 -94.9 -6.8 -96.5 -19.7 -96.65 Q-26.15 -98.35 -29.9 -98.05 -30.15 -98.9 -30.35 -99.05 L-31.85 -99.15 Q-32.2 -98.85 -32.2 -97.2 L-31.7 -93.55 Q-31.15 -91.0 -31.15 -88.65 -31.15 -86.55 -32.8 -80.95 L-33.6 -78.45 -34.5 -75.7 -33.3 -77.3 -28.7 -86.35 Q-28.45 -87.15 -28.0 -83.75 L-27.65 -79.9 Q-27.55 -79.45 -26.65 -78.5 -25.8 -77.6 -25.75 -76.8 L-25.5 -75.3 -25.25 -74.15 Q-24.75 -72.0 -24.75 -71.2 -24.75 -70.15 -25.3 -67.6 L-26.0 -63.65 -26.0 -60.95 -25.85 -60.95 -24.5 -67.35 Q-23.45 -72.05 -22.4 -72.05 -21.8 -72.05 -21.65 -71.7 L-21.35 -70.65 Q-21.3 -70.45 -21.1 -70.9 L-21.1 -70.95 -20.45 -72.1 -19.65 -73.0 Q-18.75 -73.0 -18.45 -72.15 -18.15 -71.45 -18.15 -69.45 L-18.45 -62.85 -18.4 -60.8 -18.2 -60.25 Q-18.1 -60.15 -16.55 -63.4 -15.3 -65.95 -14.8 -65.95 -13.75 -65.95 -13.1 -63.7 -12.4 -61.55 -12.65 -59.05 L-12.75 -58.55 -12.25 -59.05 -11.8 -59.2 Q-10.5 -59.2 -9.85 -56.5 -9.4 -54.45 -9.6 -52.6 L-9.65 -52.3 -9.55 -52.5 -7.85 -55.0 Q-6.2 -57.05 -5.75 -57.05 -5.4 -57.05 -4.2 -54.25 L-3.15 -51.45 -4.2 -46.85 Q-4.2 -45.7 -3.75 -45.1 -3.3 -44.45 -3.3 -43.0 L-3.5 -39.9 -4.2 -38.45 Q-5.35 -36.45 -5.85 -32.85 L-5.95 -30.55 -6.0 -30.1 Q-6.2 -29.3 -6.8 -28.75 -8.2 -27.6 -9.25 -25.85 -10.3 -24.05 -10.3 -22.7 L-9.05 -23.7 -7.2 -25.4 -5.1 -27.35 -2.75 -29.45 Q-0.5 -31.25 -0.15 -34.5 L0.05 -37.4 0.25 -40.55 Q0.65 -43.1 2.2 -47.45 L2.8 -49.15 Q3.75 -52.0 3.9 -53.8 L4.05 -55.0 Q4.55 -58.3 5.85 -60.7 7.35 -63.4 9.05 -63.4 L11.15 -60.15 Q12.35 -63.4 12.9 -63.4 L14.05 -63.15 Q13.05 -71.55 15.1 -74.0 L16.35 -73.6 Q17.5 -73.05 17.7 -72.75 19.55 -70.7 17.8 -68.55 15.25 -65.6 18.1 -58.15 17.6 -61.35 19.75 -66.75 20.95 -70.25 20.25 -73.95 21.15 -77.1 22.8 -77.3 22.75 -75.7 23.65 -73.75 L25.0 -71.75 Q24.9 -81.3 27.3 -79.6 29.45 -82.0 28.9 -75.85 28.15 -72.35 28.6 -71.05 L28.9 -70.55 Q29.45 -66.4 26.5 -59.2 30.9 -65.7 32.15 -75.25 32.95 -81.05 31.65 -91.1 30.2 -91.85 29.7 -91.3 L29.45 -90.65 M-29.45 -95.55 L-29.9 -98.05 M28.05 -85.0 Q27.75 -85.85 26.95 -85.85 26.4 -85.85 26.35 -85.3 L26.35 -84.6 Q26.35 -82.85 27.4 -82.85 L28.35 -83.55 28.05 -85.0 M23.75 -82.15 L23.5 -78.85 Q22.95 -79.05 22.1 -80.7 21.2 -82.35 21.2 -84.0 21.2 -84.8 21.5 -85.8 21.85 -86.8 22.1 -86.8 23.05 -86.8 23.5 -84.65 L23.75 -82.15 M9.45 -67.45 L8.75 -68.1 Q8.2 -68.5 8.0 -68.5 7.3 -68.5 7.3 -67.35 7.3 -66.45 7.8 -65.7 8.35 -64.9 8.95 -64.9 9.8 -64.9 9.45 -67.45 M-15.45 -76.65 L-14.85 -76.65 -13.95 -76.7 -12.9 -76.9 -12.9 -74.1 Q-12.85 -72.15 -13.25 -71.2 -13.65 -70.3 -14.45 -70.3 -15.55 -70.3 -15.5 -72.8 L-15.45 -75.45 -15.45 -76.65 M-24.5 -80.55 L-24.3 -79.55 -23.8 -78.65 Q-21.9 -79.8 -22.5 -84.9 -22.45 -83.9 -23.45 -82.6 -24.5 -81.25 -24.5 -80.55 M-9.5 -65.95 Q-9.65 -66.35 -10.15 -66.35 L-11.0 -65.7 -11.0 -65.5 Q-11.0 -64.7 -10.65 -64.2 -10.3 -63.65 -9.5 -63.65 -9.35 -63.95 -9.35 -64.9 -9.35 -65.65 -9.5 -65.95" fill="none" stroke="#000000" stroke-linecap="round" stroke-linejoin="round" stroke-opacity="0.4" stroke-width="0.05"/>
      <path d="M31.25 -84.45 L31.4 -80.25 M17.7 -79.25 L18.2 -78.05 M17.7 -84.65 L18.8 -82.1 19.8 -78.9 M1.5 -51.35 Q1.1 -50.85 1.05 -50.35 L1.05 -49.35 M1.05 -62.7 L1.1 -59.6 Q1.05 -56.95 0.8 -56.25 M-13.5 -86.15 Q-13.5 -85.4 -11.75 -80.45 L-11.45 -79.6 -10.05 -79.55 -8.2 -79.65 -9.05 -83.1 M-11.45 -79.6 L-10.65 -77.35 -8.7 -77.2 -7.25 -77.1 -7.6 -77.9 -8.2 -79.65 -4.2 -79.95 M-14.15 -80.1 L-12.65 -79.8 -11.45 -79.6 M-10.65 -77.35 L-9.9 -75.35 -9.75 -75.0 M-1.8 -77.55 L-4.1 -77.3 -6.75 -77.1 -7.25 -77.1 -6.2 -74.4 M-23.45 -90.75 L-24.0 -88.45 -24.95 -86.0 M-30.5 -93.3 L-30.2 -90.6 M-22.8 -87.5 Q-22.8 -87.1 -23.45 -85.65" fill="none" stroke="#000000" stroke-linecap="round" stroke-linejoin="round" stroke-opacity="0.2" stroke-width="0.05"/>
    </g>
    <linearGradient gradientTransform="matrix(0.0068, -0.0016, 0.001, 0.0044, -33.55, -102.2)" gradientUnits="userSpaceOnUse" id="decoration137-gradient4" spreadMethod="pad" x1="-819.2" x2="819.2">
      <stop offset="0.01568627450980392" stop-color="#ebdd54"/>
      <stop offset="0.9921568627450981" stop-color="#d4ce58"/>
    </linearGradient>
    <linearGradient gradientTransform="matrix(0.0037, -0.0021, 0.0024, 0.0048, -34.05, -91.75)" gradientUnits="userSpaceOnUse" id="decoration137-gradient5" spreadMethod="pad" x1="-819.2" x2="819.2">
      <stop offset="0.01568627450980392" stop-color="#ebdd54"/>
      <stop offset="0.9921568627450981" stop-color="#d4ce58"/>
    </linearGradient>
    <linearGradient gradientTransform="matrix(-0.0068, -0.0016, -0.001, 0.0044, 34.7, -94.5)" gradientUnits="userSpaceOnUse" id="decoration137-gradient6" spreadMethod="pad" x1="-819.2" x2="819.2">
      <stop offset="0.01568627450980392" stop-color="#ebdd54"/>
      <stop offset="0.9921568627450981" stop-color="#d4ce58"/>
    </linearGradient>
    <linearGradient gradientTransform="matrix(-0.0037, -0.0021, -0.0024, 0.0048, 35.25, -84.05)" gradientUnits="userSpaceOnUse" id="decoration137-gradient7" spreadMethod="pad" x1="-819.2" x2="819.2">
      <stop offset="0.01568627450980392" stop-color="#ebdd54"/>
      <stop offset="0.9921568627450981" stop-color="#d4ce58"/>
    </linearGradient>
    <linearGradient gradientTransform="matrix(-2.0E-4, 0.007, -0.0045, -2.0E-4, 14.3, -92.85)" gradientUnits="userSpaceOnUse" id="decoration137-gradient8" spreadMethod="pad" x1="-819.2" x2="819.2">
      <stop offset="0.01568627450980392" stop-color="#ebdd54"/>
      <stop offset="0.9921568627450981" stop-color="#d4ce58"/>
    </linearGradient>
    <linearGradient gradientTransform="matrix(0.001, 0.0042, -0.0053, 0.0011, 4.3, -96.05)" gradientUnits="userSpaceOnUse" id="decoration137-gradient9" spreadMethod="pad" x1="-819.2" x2="819.2">
      <stop offset="0.01568627450980392" stop-color="#ebdd54"/>
      <stop offset="0.9921568627450981" stop-color="#d4ce58"/>
    </linearGradient>
    <linearGradient gradientTransform="matrix(2.0E-4, 0.007, 0.0045, 4.0E-4, -17.9, -96.3)" gradientUnits="userSpaceOnUse" id="decoration137-gradient10" spreadMethod="pad" x1="-819.2" x2="819.2">
      <stop offset="0.01568627450980392" stop-color="#ebdd54"/>
      <stop offset="0.9921568627450981" stop-color="#d4ce58"/>
    </linearGradient>
    <linearGradient gradientTransform="matrix(-0.001, 0.004, 0.0053, 0.0018, -7.9, -98.15)" gradientUnits="userSpaceOnUse" id="decoration137-gradient11" spreadMethod="pad" x1="-819.2" x2="819.2">
      <stop offset="0.01568627450980392" stop-color="#ebdd54"/>
      <stop offset="0.9921568627450981" stop-color="#d4ce58"/>
    </linearGradient>
    <linearGradient gradientTransform="matrix(-0.001, 0.004, 0.0053, 0.0018, 4.2, -94.4)" gradientUnits="userSpaceOnUse" id="decoration137-gradient12" spreadMethod="pad" x1="-819.2" x2="819.2">
      <stop offset="0.01568627450980392" stop-color="#ebdd54"/>
      <stop offset="0.9921568627450981" stop-color="#d4ce58"/>
    </linearGradient>
    <linearGradient gradientTransform="matrix(2.0E-4, 0.007, 0.0045, 4.0E-4, -5.8, -92.55)" gradientUnits="userSpaceOnUse" id="decoration137-gradient13" spreadMethod="pad" x1="-819.2" x2="819.2">
      <stop offset="0.01568627450980392" stop-color="#ebdd54"/>
      <stop offset="0.9921568627450981" stop-color="#d4ce58"/>
    </linearGradient>
    <linearGradient gradientTransform="matrix(0.0, 0.0409, -0.0468, 0.0, -1.05, -61.0)" gradientUnits="userSpaceOnUse" id="decoration137-gradient14" spreadMethod="pad" x1="-819.2" x2="819.2">
      <stop offset="0.15294117647058825" stop-color="#45454a"/>
      <stop offset="0.9294117647058824" stop-color="#353537"/>
    </linearGradient>
  </defs>
</svg>
