<?xml version="1.0" encoding="UTF-8" standalone="no"?>
<svg xmlns:xlink="http://www.w3.org/1999/xlink" height="180.55px" width="144.45px" xmlns="http://www.w3.org/2000/svg">
  <g transform="matrix(1.0, 0.0, 0.0, 1.0, 71.65, 180.75)">
    <use data-characterId="315" height="180.55" transform="matrix(1.0, 0.0, 0.0, 1.0, -71.65, -180.75)" width="144.45" xlink:href="#decoration139-shape0"/>
  </g>
  <defs>
    <g id="decoration139-shape0" transform="matrix(1.0, 0.0, 0.0, 1.0, 71.65, 180.75)">
      <path d="M-4.6 -103.65 L-5.85 -108.9 -5.45 -112.15 -4.6 -103.65 M-2.85 -108.85 L-3.1 -113.45 -1.15 -106.2 Q0.25 -102.0 2.3 -98.0 -0.55 -101.85 -2.0 -106.05 L-2.85 -108.85 M-5.45 -69.35 Q-7.7 -65.6 -8.15 -61.4 L-8.05 -66.5 -5.45 -69.35" fill="#326209" fill-rule="evenodd" stroke="none"/>
      <path d="M51.75 -28.95 L43.75 -34.85 43.7 -29.25 Q39.55 -33.75 34.2 -38.05 33.1 -30.5 28.3 -26.4 23.6 -30.7 20.3 -35.45 19.2 -27.9 14.5 -25.65 14.15 -30.45 12.45 -33.85 7.45 -26.5 2.95 -25.95 5.3 -28.3 6.15 -31.75 L3.95 -29.1 4.0 -31.6 2.1 -27.8 Q1.15 -32.65 -2.25 -37.25 -3.5 -32.35 -2.35 -27.8 -5.35 -29.15 -7.7 -31.25 -9.75 -33.1 -11.25 -35.55 -16.6 -29.6 -24.5 -26.45 L-22.55 -30.95 Q-29.65 -26.7 -37.85 -24.25 L-33.8 -33.0 Q-39.85 -28.6 -47.15 -26.3 L-42.55 -33.25 -49.45 -28.7 -43.15 -36.95 Q-38.4 -40.1 -34.2 -44.0 L-42.3 -30.8 Q-35.55 -34.55 -29.85 -40.0 -30.65 -34.3 -32.75 -29.6 -23.7 -32.65 -16.7 -37.45 L-19.75 -30.4 Q-14.35 -34.2 -10.75 -38.55 -9.05 -33.95 -3.65 -29.85 -4.95 -34.15 -3.0 -39.85 1.1 -36.3 2.8 -30.25 3.05 -35.05 2.05 -40.2 5.15 -36.4 5.45 -32.3 L8.6 -38.8 Q8.85 -33.15 5.95 -28.05 L12.75 -36.65 Q14.85 -32.55 15.4 -27.95 18.25 -32.65 19.65 -38.4 23.3 -32.8 28.25 -28.2 32.85 -33.55 33.1 -40.95 38.95 -37.0 43.0 -31.55 L40.55 -39.95 Q44.0 -37.3 48.05 -35.0 L50.3 -31.25 51.75 -28.95 M5.25 -27.2 L5.95 -28.05 5.25 -27.2 M-47.9 -8.25 L-51.25 -4.05 -67.4 -4.4 Q-57.6 -5.2 -47.9 -8.25 M-12.95 -6.05 L-11.2 -4.3 -15.05 -4.3 -12.95 -6.05 M-8.5 -4.3 L-10.25 -7.7 Q-8.85 -5.9 -6.95 -4.3 L-8.5 -4.3 M4.55 -4.4 L6.45 -6.05 5.7 -4.4 4.55 -4.4 M17.9 -4.45 L20.45 -6.4 21.2 -4.5 17.9 -4.45 M23.25 -4.5 L25.6 -7.65 Q27.8 -5.9 30.75 -4.55 L23.25 -4.5 M36.25 -4.6 L34.1 -8.05 Q36.9 -5.95 40.2 -4.6 L36.25 -4.6 M53.7 -4.7 Q51.55 -7.15 50.1 -10.1 L56.35 -4.7 53.7 -4.7 M60.0 -4.75 L59.55 -4.75 58.95 -4.7 58.3 -4.7 57.05 -4.7 53.5 -9.2 Q56.05 -6.65 60.0 -4.75 M-40.4 -4.9 L-44.9 -4.4 Q-41.3 -5.9 -38.7 -8.05 L-40.4 -4.9" fill="#2b5607" fill-rule="evenodd" stroke="none"/>
      <path d="M-49.45 -28.7 L-42.55 -33.25 -47.15 -26.3 Q-39.85 -28.6 -33.8 -33.0 L-37.85 -24.25 Q-29.65 -26.7 -22.55 -30.95 L-24.5 -26.45 Q-16.6 -29.6 -11.25 -35.55 -9.75 -33.1 -7.7 -31.25 -5.35 -29.15 -2.35 -27.8 -3.5 -32.35 -2.25 -37.25 1.15 -32.65 2.1 -27.8 L4.0 -31.6 3.95 -29.1 6.15 -31.75 Q5.3 -28.3 2.95 -25.95 7.45 -26.5 12.45 -33.85 14.15 -30.45 14.5 -25.65 19.2 -27.9 20.3 -35.45 23.6 -30.7 28.3 -26.4 33.1 -30.5 34.2 -38.05 39.55 -33.75 43.7 -29.25 L43.75 -34.85 51.75 -28.95 53.85 -25.85 44.85 -32.45 Q45.1 -29.3 44.0 -26.55 40.5 -31.15 34.95 -35.75 33.35 -28.3 28.3 -24.15 25.0 -28.55 20.9 -32.9 18.4 -24.65 12.8 -23.6 13.0 -26.85 11.55 -29.9 7.2 -24.9 1.45 -23.7 L2.45 -26.9 1.5 -25.35 Q0.45 -30.1 -1.7 -33.5 -2.05 -29.3 -1.1 -25.1 -5.3 -27.15 -8.2 -30.05 -10.05 -31.9 -11.45 -34.1 -19.1 -25.45 -27.1 -23.9 L-25.6 -27.7 Q-32.8 -23.35 -41.05 -21.3 L-36.95 -29.25 Q-42.55 -26.0 -49.7 -24.35 L-47.05 -28.85 -51.0 -26.75 -49.45 -28.7 Q-53.2 -25.65 -55.75 -25.05 -52.65 -28.8 -48.9 -36.1 -47.7 -36.9 -46.45 -37.75 L-50.15 -32.8 Q-46.5 -34.7 -43.15 -36.95 L-49.45 -28.7 M50.3 -31.25 L48.05 -35.0 Q49.95 -33.95 52.05 -32.95 L46.35 -38.85 Q49.45 -36.7 52.8 -34.75 55.35 -29.8 60.15 -25.75 54.65 -28.1 50.3 -31.25 M-71.5 -4.2 Q-53.55 -7.7 -38.25 -20.45 L-40.95 -16.8 -47.9 -8.25 Q-57.6 -5.2 -67.4 -4.4 L-71.5 -4.2 M-52.65 -2.35 Q-40.7 -7.2 -34.4 -13.3 -26.85 -8.2 -24.95 -1.25 -26.3 -3.3 -29.4 -4.85 L-42.15 -1.75 -40.4 -4.9 -38.7 -8.05 Q-41.3 -5.9 -44.9 -4.4 -48.3 -3.1 -52.65 -2.35 M-24.55 -0.35 Q-16.35 -3.8 -14.05 -7.8 L-12.95 -6.05 -15.05 -4.3 Q-18.7 -1.7 -24.55 -0.35 M-10.25 -7.7 L-11.2 -9.2 -12.0 -12.35 -1.85 -1.0 Q-4.8 -2.4 -6.95 -4.3 -8.85 -5.9 -10.25 -7.7 M25.6 -7.65 L24.7 -9.85 Q28.15 -6.8 32.55 -4.55 35.0 -3.3 37.65 -2.25 33.8 -3.2 30.75 -4.55 27.8 -5.9 25.6 -7.65 M34.1 -8.05 Q33.3 -8.6 32.5 -9.3 38.0 -6.4 44.2 -4.65 49.8 -3.05 55.9 -2.35 47.1 -1.75 40.2 -4.6 36.9 -5.95 34.1 -8.05 M72.65 -6.55 Q66.55 -5.2 60.0 -4.75 56.05 -6.65 53.5 -9.2 L53.1 -9.6 Q51.6 -11.05 50.55 -12.75 55.5 -9.1 60.05 -7.25 62.95 -6.15 72.65 -6.55 M-37.0 -9.8 L-38.7 -8.05 -37.0 -9.8" fill="#326209" fill-rule="evenodd" stroke="none"/>
      <path d="M-51.0 -26.75 L-47.05 -28.85 -49.7 -24.35 Q-42.55 -26.0 -36.95 -29.25 L-41.05 -21.3 Q-32.8 -23.35 -25.6 -27.7 L-27.1 -23.9 Q-19.1 -25.45 -11.45 -34.1 -10.05 -31.9 -8.2 -30.05 -5.3 -27.15 -1.1 -25.1 -2.05 -29.3 -1.7 -33.5 0.45 -30.1 1.5 -25.35 L2.45 -26.9 1.45 -23.7 Q7.2 -24.9 11.55 -29.9 13.0 -26.85 12.8 -23.6 18.4 -24.65 20.9 -32.9 25.0 -28.55 28.3 -24.15 33.35 -28.3 34.95 -35.75 40.5 -31.15 44.0 -26.55 45.1 -29.3 44.85 -32.45 L53.85 -25.85 Q55.65 -23.15 57.9 -20.55 64.0 -13.3 72.65 -6.55 62.95 -6.15 60.05 -7.25 55.5 -9.1 50.55 -12.75 51.6 -11.05 53.1 -9.6 L53.5 -9.2 57.05 -4.7 58.7 -2.65 56.35 -4.7 50.1 -10.1 Q51.55 -7.15 53.7 -4.7 L55.9 -2.35 Q49.8 -3.05 44.2 -4.65 38.0 -6.4 32.5 -9.3 33.3 -8.6 34.1 -8.05 L36.25 -4.6 37.65 -2.25 Q35.0 -3.3 32.55 -4.55 28.15 -6.8 24.7 -9.85 L25.6 -7.65 23.25 -4.5 20.95 -1.5 Q21.45 -3.1 21.2 -4.5 L20.45 -6.4 17.9 -4.45 Q13.45 -1.8 6.45 -0.45 7.8 -2.35 8.55 -4.4 L8.6 -4.65 3.1 -1.5 Q4.75 -2.85 5.7 -4.4 L6.45 -6.05 4.55 -4.4 Q1.7 -2.3 -1.85 -1.0 L-12.0 -12.35 -11.2 -9.2 -10.25 -7.7 -8.5 -4.3 -7.2 -1.75 Q-9.55 -2.95 -11.2 -4.3 L-12.95 -6.05 -14.05 -7.8 Q-16.35 -3.8 -24.55 -0.35 L-24.95 -1.25 Q-26.85 -8.2 -34.4 -13.3 -40.7 -7.2 -52.65 -2.35 L-51.25 -4.05 -47.9 -8.25 -40.95 -16.8 -38.25 -20.45 Q-53.55 -7.7 -71.5 -4.2 -63.55 -12.05 -56.2 -20.55 L-51.0 -26.75 M7.0 -8.15 L6.45 -6.05 7.0 -8.15 M8.85 -6.5 L8.6 -4.65 8.85 -6.5 M48.5 -11.45 L50.1 -10.1 48.5 -11.45 M19.55 -7.65 L20.45 -6.4 19.55 -7.65" fill="url(#decoration139-gradient0)" fill-rule="evenodd" stroke="none"/>
      <path d="M51.75 -28.95 L50.3 -31.25 48.05 -35.0 M5.95 -28.05 L5.25 -27.2 M-51.0 -26.75 L-56.2 -20.55 Q-63.55 -12.05 -71.5 -4.2 L-67.4 -4.4 Q-57.6 -5.2 -47.9 -8.25 L-51.25 -4.05 -52.65 -2.35 Q-48.3 -3.1 -44.9 -4.4 -41.3 -5.9 -38.7 -8.05 L-37.0 -9.8 M-40.95 -16.8 L-47.9 -8.25 M-14.05 -7.8 L-12.95 -6.05 -11.2 -4.3 Q-9.55 -2.95 -7.2 -1.75 L-8.5 -4.3 -10.25 -7.7 -11.2 -9.2 M-1.85 -1.0 Q1.7 -2.3 4.55 -4.4 L6.45 -6.05 7.0 -8.15 M5.7 -4.4 L6.45 -6.05 M17.9 -4.45 Q13.45 -1.8 6.45 -0.45 7.8 -2.35 8.55 -4.4 L8.6 -4.65 3.1 -1.5 Q4.75 -2.85 5.7 -4.4 M8.6 -4.65 L8.85 -6.5 M21.2 -4.5 L20.45 -6.4 17.9 -4.45 21.2 -4.5 Q21.45 -3.1 20.95 -1.5 L23.25 -4.5 25.6 -7.65 Q27.8 -5.9 30.75 -4.55 L23.25 -4.5 M37.65 -2.25 L36.25 -4.6 34.1 -8.05 Q33.3 -8.6 32.5 -9.3 M55.9 -2.35 L53.7 -4.7 Q51.55 -7.15 50.1 -10.1 L48.5 -11.45 M40.2 -4.6 L36.25 -4.6 M40.2 -4.6 Q36.9 -5.95 34.1 -8.05 M37.65 -2.25 Q33.8 -3.2 30.75 -4.55 M20.45 -6.4 L19.55 -7.65 M52.8 -34.75 Q55.35 -29.8 60.15 -25.75 54.65 -28.1 50.3 -31.25 M51.75 -28.95 L53.85 -25.85 Q55.65 -23.15 57.9 -20.55 64.0 -13.3 72.65 -6.55 66.55 -5.2 60.0 -4.75 56.05 -6.65 53.5 -9.2 L57.05 -4.7 58.7 -2.65 56.35 -4.7 53.7 -4.7 M59.55 -4.75 L58.95 -4.7 58.3 -4.7 M53.5 -9.2 L53.1 -9.6 Q51.6 -11.05 50.55 -12.75 M55.9 -2.35 L56.75 -1.65 M56.35 -4.7 L50.1 -10.1 M55.9 -2.35 Q47.1 -1.75 40.2 -4.6 M-48.9 -36.1 Q-52.65 -28.8 -55.75 -25.05 -53.2 -25.65 -49.45 -28.7 L-43.15 -36.95 M-51.0 -26.75 L-49.45 -28.7 M-51.25 -4.05 L-67.4 -4.4 M-24.95 -1.25 Q-26.3 -3.3 -29.4 -4.85 L-42.15 -1.75 -40.4 -4.9 -38.7 -8.05 M-12.95 -6.05 L-15.05 -4.3 -11.2 -4.3 M-1.85 -1.0 Q-4.8 -2.4 -6.95 -4.3 L-8.5 -4.3 M-6.95 -4.3 Q-8.85 -5.9 -10.25 -7.7 M-15.05 -4.3 Q-18.7 -1.7 -24.55 -0.35" fill="none" stroke="#000000" stroke-linecap="round" stroke-linejoin="round" stroke-opacity="0.3019608" stroke-width="0.30000000000000004"/>
      <path d="M60.0 -4.75 L59.55 -4.75" fill="none" stroke="#00ff00" stroke-linecap="round" stroke-linejoin="round" stroke-width="0.05"/>
      <path d="M-37.25 -63.0 Q-37.5 -58.7 -36.05 -54.75 -29.35 -56.2 -24.35 -58.3 L-20.55 -60.05 -22.65 -56.35 Q-15.7 -58.45 -9.75 -62.2 L-8.3 -55.4 Q-4.9 -59.2 -2.6 -64.3 -1.1 -57.1 3.95 -53.85 7.2 -57.15 7.05 -65.8 12.8 -56.25 22.25 -54.0 L19.75 -61.55 Q23.45 -58.05 28.95 -56.0 L26.3 -63.9 Q29.5 -60.1 30.65 -55.95 L32.15 -61.15 39.05 -56.25 40.4 -54.15 32.85 -59.4 Q31.85 -55.6 30.85 -53.95 24.95 -55.55 22.05 -58.2 L24.3 -52.4 Q15.25 -52.85 8.45 -60.35 7.75 -54.55 4.25 -51.5 -1.65 -53.6 -2.7 -60.6 -5.55 -55.95 -9.95 -51.9 -9.6 -55.75 -10.95 -59.35 -18.05 -54.6 -26.1 -53.85 L-23.8 -57.35 Q-29.95 -53.2 -37.65 -51.75 -39.75 -55.35 -39.3 -59.3 L-38.3 -61.05 -37.25 -63.0 -38.3 -61.05 Q-42.8 -58.05 -47.9 -57.9 -45.0 -60.2 -38.45 -72.25 L-34.9 -72.5 -31.85 -73.4 -42.3 -62.35 Q-38.4 -64.6 -35.1 -67.15 L-37.25 -63.0 M36.5 -60.55 L30.7 -73.95 33.8 -73.95 Q40.4 -64.45 47.6 -61.25 41.95 -61.8 38.9 -63.3 L44.5 -56.6 Q39.25 -57.9 36.5 -60.55 M37.4 -64.15 L38.9 -63.3 37.4 -64.15" fill="#326209" fill-rule="evenodd" stroke="none"/>
      <path d="M39.05 -56.25 L32.15 -61.15 30.65 -55.95 Q29.5 -60.1 26.3 -63.9 L28.95 -56.0 Q23.45 -58.05 19.75 -61.55 L22.25 -54.0 Q12.8 -56.25 7.05 -65.8 7.2 -57.15 3.95 -53.85 -1.1 -57.1 -2.6 -64.3 -4.9 -59.2 -8.3 -55.4 L-9.75 -62.2 Q-15.7 -58.45 -22.65 -56.35 L-20.55 -60.05 -24.35 -58.3 Q-29.35 -56.2 -36.05 -54.75 -37.5 -58.7 -37.25 -63.0 L-35.1 -67.15 Q-38.4 -64.6 -42.3 -62.35 L-31.85 -73.4 22.1 -77.75 30.7 -73.95 36.5 -60.55 39.05 -56.25" fill="#2b5607" fill-rule="evenodd" stroke="none"/>
      <path d="M-39.3 -59.3 Q-39.75 -55.35 -37.65 -51.75 -29.95 -53.2 -23.8 -57.35 L-26.1 -53.85 Q-18.05 -54.6 -10.95 -59.35 -9.6 -55.75 -9.95 -51.9 -5.55 -55.95 -2.7 -60.6 -1.65 -53.6 4.25 -51.5 7.75 -54.55 8.45 -60.35 15.25 -52.85 24.3 -52.4 L22.05 -58.2 Q24.95 -55.55 30.85 -53.95 31.85 -55.6 32.85 -59.4 L40.4 -54.15 Q48.3 -42.4 63.85 -34.05 L52.8 -34.75 Q49.45 -36.7 46.35 -38.85 L52.05 -32.95 Q49.95 -33.95 48.05 -35.0 44.0 -37.3 40.55 -39.95 L43.0 -31.55 Q38.95 -37.0 33.1 -40.95 32.85 -33.55 28.25 -28.2 23.3 -32.8 19.65 -38.4 18.25 -32.65 15.4 -27.95 14.85 -32.55 12.75 -36.65 L5.95 -28.05 Q8.85 -33.15 8.6 -38.8 L5.45 -32.3 Q5.15 -36.4 2.05 -40.2 3.05 -35.05 2.8 -30.25 1.1 -36.3 -3.0 -39.85 -4.95 -34.15 -3.65 -29.85 -9.05 -33.95 -10.75 -38.55 -14.35 -34.2 -19.75 -30.4 L-16.7 -37.45 Q-23.7 -32.65 -32.75 -29.6 -30.65 -34.3 -29.85 -40.0 -35.55 -34.55 -42.3 -30.8 L-34.2 -44.0 Q-38.4 -40.1 -43.15 -36.95 -46.5 -34.7 -50.15 -32.8 L-46.45 -37.75 Q-47.7 -36.9 -48.9 -36.1 -53.05 -33.65 -61.3 -33.15 -47.65 -43.05 -39.3 -59.3 M28.8 -43.55 L33.1 -40.95 28.8 -43.55 M10.25 -40.75 L12.75 -36.65 10.25 -40.75 M8.25 -42.05 L8.6 -38.8 8.25 -42.05 M1.3 -43.15 L2.05 -40.2 1.3 -43.15 M17.3 -42.4 L19.65 -38.4 17.3 -42.4 M37.1 -42.9 L40.55 -39.95 37.1 -42.9 M46.35 -38.85 Q41.05 -42.55 36.6 -46.9 41.05 -42.55 46.35 -38.85 M-31.8 -46.25 L-34.2 -44.0 -31.8 -46.25 M-28.4 -41.5 L-29.85 -40.0 -28.4 -41.5 M-9.1 -40.6 L-10.75 -38.55 -9.1 -40.6 M-12.3 -40.85 L-16.7 -37.45 -12.3 -40.85 M-1.9 -42.8 L-3.0 -39.85 -1.9 -42.8 M-45.0 -38.85 L-46.45 -37.75 -45.0 -38.85" fill="url(#decoration139-gradient1)" fill-rule="evenodd" stroke="none"/>
      <path d="M-37.25 -63.0 L-38.3 -61.05 -39.3 -59.3 Q-47.65 -43.05 -61.3 -33.15 -53.05 -33.65 -48.9 -36.1 -47.7 -36.9 -46.45 -37.75 L-45.0 -38.85 M40.4 -54.15 L39.05 -56.25 36.5 -60.55 30.7 -73.95 M-35.1 -67.15 L-37.25 -63.0 M38.9 -63.3 L37.4 -64.15 M33.1 -40.95 L28.8 -43.55 M40.4 -54.15 Q48.3 -42.4 63.85 -34.05 L52.8 -34.75 Q49.45 -36.7 46.35 -38.85 L52.05 -32.95 Q49.95 -33.95 48.05 -35.0 44.0 -37.3 40.55 -39.95 L43.0 -31.55 Q38.95 -37.0 33.1 -40.95 32.85 -33.55 28.25 -28.2 23.3 -32.8 19.65 -38.4 18.25 -32.65 15.4 -27.95 14.85 -32.55 12.75 -36.65 L5.95 -28.05 Q8.85 -33.15 8.6 -38.8 L5.45 -32.3 Q5.15 -36.4 2.05 -40.2 3.05 -35.05 2.8 -30.25 1.1 -36.3 -3.0 -39.85 -4.95 -34.15 -3.65 -29.85 -9.05 -33.95 -10.75 -38.55 -14.35 -34.2 -19.75 -30.4 L-16.7 -37.45 Q-23.7 -32.65 -32.75 -29.6 -30.65 -34.3 -29.85 -40.0 -35.55 -34.55 -42.3 -30.8 L-34.2 -44.0 Q-38.4 -40.1 -43.15 -36.95 -46.5 -34.7 -50.15 -32.8 L-46.45 -37.75 M19.65 -38.4 L17.3 -42.4 M2.05 -40.2 L1.3 -43.15 M8.6 -38.8 L8.25 -42.05 M12.75 -36.65 L10.25 -40.75 M36.5 -60.55 Q39.25 -57.9 44.5 -56.6 L38.9 -63.3 Q41.95 -61.8 47.6 -61.25 40.4 -64.45 33.8 -73.95 M36.6 -46.9 Q41.05 -42.55 46.35 -38.85 M40.55 -39.95 L37.1 -42.9 M-38.45 -72.25 Q-45.0 -60.2 -47.9 -57.9 -42.8 -58.05 -38.3 -61.05 M-3.0 -39.85 L-1.9 -42.8 M-16.7 -37.45 L-12.3 -40.85 M-10.75 -38.55 L-9.1 -40.6 M-29.85 -40.0 L-28.4 -41.5 M-34.2 -44.0 L-31.8 -46.25" fill="none" stroke="#000000" stroke-linecap="round" stroke-linejoin="round" stroke-opacity="0.3019608" stroke-width="0.30000000000000004"/>
      <path d="M20.85 -102.75 Q19.75 -105.5 18.8 -108.35 L18.6 -108.85 17.0 -114.1 Q19.65 -112.5 22.35 -109.95 25.8 -100.75 31.75 -96.2 23.8 -99.2 20.85 -102.75 M-26.4 -108.8 Q-27.45 -105.7 -27.85 -102.45 L-29.15 -99.6 Q-33.1 -97.4 -39.4 -96.05 -30.45 -102.1 -26.4 -108.8 M-30.65 -96.0 Q-26.25 -98.75 -22.65 -102.65 L-24.2 -98.8 Q-18.45 -101.3 -14.45 -105.15 L-13.2 -102.4 Q-11.1 -98.25 -7.8 -95.35 L-5.35 -104.35 -3.15 -96.35 Q-1.15 -99.6 -1.2 -103.4 L3.1 -96.95 Q4.4 -99.8 4.55 -102.95 5.5 -98.6 4.45 -94.0 9.15 -96.7 9.9 -104.85 12.0 -101.9 13.05 -99.0 14.85 -101.25 14.5 -103.8 L20.0 -98.2 21.65 -100.9 22.4 -99.15 20.35 -95.95 Q18.9 -98.45 15.35 -100.95 15.05 -98.1 12.55 -95.85 L10.4 -101.1 Q9.0 -94.35 3.65 -92.55 L3.7 -95.95 2.35 -94.0 -0.7 -99.35 Q-0.9 -95.8 -2.75 -92.9 L-5.65 -99.65 -7.75 -90.95 Q-13.75 -95.55 -16.15 -100.95 -22.5 -96.8 -26.7 -95.35 L-25.5 -98.2 -32.05 -92.95 -30.65 -96.0 M35.05 -73.45 Q37.05 -69.7 38.0 -66.2 L38.6 -63.45 Q34.95 -72.3 28.35 -78.7 31.65 -75.65 35.05 -73.45 M30.0 -70.6 L31.25 -61.55 Q30.0 -66.15 24.35 -71.45 L23.8 -71.95 Q23.55 -73.2 23.45 -74.55 L28.95 -68.85 26.25 -74.75 Q28.0 -72.6 30.0 -70.6 M17.65 -68.05 Q19.3 -62.4 21.45 -57.7 16.65 -63.0 14.3 -68.85 13.4 -71.05 12.85 -73.35 L16.65 -69.15 17.65 -68.05 M6.35 -72.0 L6.6 -68.55 6.25 -64.1 5.5 -73.6 6.35 -72.0 M4.3 -58.2 Q0.45 -62.65 -1.2 -67.95 L-1.75 -70.15 -0.2 -73.85 Q-0.2 -70.9 0.35 -68.05 1.4 -62.8 4.3 -58.2 M-18.3 -61.55 L-14.9 -67.65 Q-23.0 -61.95 -32.0 -59.65 -26.7 -61.75 -20.2 -65.55 -13.75 -69.3 -8.55 -73.65 -9.35 -71.85 -12.4 -68.25 L-18.3 -61.55 M-32.45 -65.7 L-32.05 -69.65 -31.75 -71.45 -29.65 -73.5 -32.45 -65.7 M-36.6 -70.65 Q-39.3 -68.5 -41.5 -67.15 -45.75 -64.55 -54.85 -65.9 -41.9 -68.45 -37.3 -72.4 -35.1 -74.3 -33.15 -76.35 L-31.15 -78.8 -32.8 -73.9 -35.75 -71.3 -36.6 -70.65 M-11.05 -70.65 L-14.45 -67.95 -14.9 -67.65 -14.45 -67.95 -11.05 -70.65" fill="#326209" fill-rule="evenodd" stroke="none"/>
      <path d="M18.6 -108.85 L18.8 -108.35 Q19.75 -105.5 20.85 -102.75 L21.65 -100.9 20.0 -98.2 14.5 -103.8 Q14.85 -101.25 13.05 -99.0 12.0 -101.9 9.9 -104.85 9.15 -96.7 4.45 -94.0 5.5 -98.6 4.55 -102.95 4.4 -99.8 3.1 -96.95 L-1.2 -103.4 Q-1.15 -99.6 -3.15 -96.35 L-5.35 -104.35 -7.8 -95.35 Q-11.1 -98.25 -13.2 -102.4 L-14.45 -105.15 Q-18.45 -101.3 -24.2 -98.8 L-22.65 -102.65 Q-26.25 -98.75 -30.65 -96.0 L-29.15 -99.6 -27.85 -102.45 Q-27.45 -105.7 -26.4 -108.8 L-18.5 -115.35 17.0 -114.1 18.6 -108.85" fill="#2b5607" fill-rule="evenodd" stroke="none"/>
      <path d="M25.25 -76.0 L26.25 -74.75 25.25 -76.0 M-32.05 -92.95 L-25.5 -98.2 -26.7 -95.35 Q-22.5 -96.8 -16.15 -100.95 -13.75 -95.55 -7.75 -90.95 L-5.65 -99.65 -2.75 -92.9 Q-0.9 -95.8 -0.7 -99.35 L2.35 -94.0 3.7 -95.95 3.65 -92.55 Q9.0 -94.35 10.4 -101.1 L12.55 -95.85 Q15.05 -98.1 15.35 -100.95 18.9 -98.45 20.35 -95.95 L22.4 -99.15 Q30.25 -82.2 48.05 -69.25 40.55 -70.8 37.35 -72.2 36.15 -72.75 35.05 -73.45 31.65 -75.65 28.35 -78.7 34.95 -72.3 38.6 -63.45 36.9 -64.6 35.35 -65.85 32.45 -68.05 30.0 -70.6 28.0 -72.6 26.25 -74.75 L28.95 -68.85 23.45 -74.55 Q23.55 -73.2 23.8 -71.95 L23.9 -71.3 Q25.05 -65.05 28.1 -59.75 22.4 -63.55 17.65 -68.05 L16.65 -69.15 12.85 -73.35 Q13.4 -71.05 14.3 -68.85 16.65 -63.0 21.45 -57.7 13.1 -62.85 8.65 -68.65 7.35 -70.3 6.35 -72.0 L5.5 -73.6 6.25 -64.1 Q5.65 -60.9 4.3 -58.2 1.4 -62.8 0.35 -68.05 -0.2 -70.9 -0.2 -73.85 L-1.75 -70.15 -2.9 -67.85 Q-5.0 -63.85 -7.65 -60.3 L-7.55 -63.45 Q-7.1 -67.65 -4.85 -71.4 L-7.45 -68.55 -8.4 -67.6 Q-13.15 -63.1 -18.3 -61.55 L-12.4 -68.25 Q-9.35 -71.85 -8.55 -73.65 -13.75 -69.3 -20.2 -65.55 -26.7 -61.75 -32.0 -59.65 -32.55 -62.65 -32.45 -65.7 L-29.65 -73.5 -31.75 -71.45 -33.25 -70.2 -34.5 -69.2 Q-37.8 -66.65 -41.7 -64.4 L-36.6 -70.65 -35.75 -71.3 -32.8 -73.9 -31.15 -78.8 -33.15 -76.35 Q-35.1 -74.3 -37.3 -72.4 -41.9 -68.45 -54.85 -65.9 -41.75 -76.2 -32.05 -92.95" fill="url(#decoration139-gradient2)" fill-rule="evenodd" stroke="none"/>
      <path d="M20.85 -102.75 Q19.75 -105.5 18.8 -108.35 L18.6 -108.85 M-27.85 -102.45 L-29.15 -99.6 -30.65 -96.0 -32.05 -92.95 Q-41.75 -76.2 -54.85 -65.9 -45.75 -64.55 -41.5 -67.15 -39.3 -68.5 -36.6 -70.65 L-41.7 -64.4 Q-37.8 -66.65 -34.5 -69.2 L-33.25 -70.2 -31.75 -71.45 -29.65 -73.5 M21.65 -100.9 L20.85 -102.75 Q23.8 -99.2 31.75 -96.2 25.8 -100.75 22.35 -109.95 M22.4 -99.15 L21.65 -100.9 M26.25 -74.75 L25.25 -76.0 M22.4 -99.15 Q30.25 -82.2 48.05 -69.25 40.55 -70.8 37.35 -72.2 36.15 -72.75 35.05 -73.45 37.05 -69.7 38.0 -66.2 L38.6 -63.45 Q36.9 -64.6 35.35 -65.85 32.45 -68.05 30.0 -70.6 L31.25 -61.55 Q30.0 -66.15 24.35 -71.45 L23.8 -71.95 23.9 -71.3 Q25.05 -65.05 28.1 -59.75 22.4 -63.55 17.65 -68.05 19.3 -62.4 21.45 -57.7 13.1 -62.85 8.65 -68.65 7.35 -70.3 6.35 -72.0 L6.6 -68.55 6.25 -64.1 Q5.65 -60.9 4.3 -58.2 0.45 -62.65 -1.2 -67.95 L-1.75 -70.15 -2.9 -67.85 Q-5.0 -63.85 -7.65 -60.3 L-7.55 -63.45 M-4.85 -71.4 L-7.45 -68.55 -8.4 -67.6 Q-13.15 -63.1 -18.3 -61.55 L-14.9 -67.65 Q-23.0 -61.95 -32.0 -59.65 -32.55 -62.65 -32.45 -65.7 L-32.05 -69.65 -31.75 -71.45 M12.85 -73.35 L16.65 -69.15 17.65 -68.05 M5.5 -73.6 L6.35 -72.0 M23.8 -71.95 Q23.55 -73.2 23.45 -74.55 M26.25 -74.75 Q28.0 -72.6 30.0 -70.6 M35.05 -73.45 Q31.65 -75.65 28.35 -78.7 M-32.8 -73.9 L-35.75 -71.3 -36.6 -70.65 M-1.75 -70.15 L-0.2 -73.85 M-14.9 -67.65 L-14.45 -67.95 -11.05 -70.65 M-29.15 -99.6 Q-33.1 -97.4 -39.4 -96.05 -30.45 -102.1 -26.4 -108.8" fill="none" stroke="#000000" stroke-linecap="round" stroke-linejoin="round" stroke-opacity="0.3019608" stroke-width="0.30000000000000004"/>
      <path d="M19.9 -98.65 Q16.25 -102.7 13.5 -107.15 L12.0 -109.85 13.65 -100.2 9.35 -109.55 9.3 -107.25 Q9.05 -100.9 7.05 -95.1 L6.7 -99.95 Q7.0 -103.95 6.25 -107.35 5.35 -110.85 3.05 -116.1 L3.5 -109.3 3.6 -107.2 Q3.55 -102.55 2.95 -98.2 0.7 -102.35 -0.7 -106.7 -1.95 -110.45 -2.7 -114.2 L-2.5 -109.5 -2.5 -108.85 -2.45 -106.4 Q-2.6 -102.55 -3.0 -98.6 L-4.3 -104.15 -5.15 -112.9 -5.6 -109.55 -5.65 -109.35 -6.55 -104.7 Q-7.5 -100.5 -8.9 -96.4 -12.65 -100.25 -13.3 -104.8 L-13.5 -107.5 Q-12.05 -113.2 -11.45 -119.65 -14.65 -109.05 -17.75 -105.15 -20.0 -102.35 -22.55 -99.7 L-19.25 -108.55 -16.0 -117.05 -23.1 -106.0 Q-26.05 -101.85 -29.6 -98.0 L-29.15 -100.8 Q-28.75 -104.2 -27.55 -107.4 L-25.7 -111.75 -28.95 -108.25 Q-32.8 -104.6 -39.9 -101.35 L-28.8 -111.85 Q-24.45 -117.05 -22.3 -123.65 -25.5 -119.25 -32.65 -112.35 -39.15 -106.2 -44.2 -103.9 -12.2 -136.95 -2.25 -180.6 8.0 -139.1 35.05 -104.85 25.55 -106.95 22.25 -109.55 26.75 -103.95 29.65 -102.3 25.95 -103.55 24.8 -104.45 21.55 -107.05 18.65 -109.9 L15.7 -113.0 Q17.25 -110.4 18.35 -107.0 19.45 -103.3 19.9 -98.65 M10.15 -113.65 L12.0 -109.85 10.15 -113.65 M19.1 -112.85 Q20.25 -111.2 22.25 -109.55 20.25 -111.2 19.1 -112.85 M8.15 -112.2 L9.35 -109.55 8.15 -112.2" fill="url(#decoration139-gradient3)" fill-rule="evenodd" stroke="none"/>
      <path d="M6.7 -99.95 Q6.05 -103.55 4.45 -107.25 L3.5 -109.3 3.05 -116.1 Q5.35 -110.85 6.25 -107.35 7.0 -103.95 6.7 -99.95 M2.95 -98.2 Q-1.1 -103.85 -2.5 -108.85 L-2.5 -109.5 -2.7 -114.2 Q-1.95 -110.45 -0.7 -106.7 0.7 -102.35 2.95 -98.2 M-4.3 -104.15 L-5.65 -109.35 -5.6 -109.55 -5.15 -112.9 -4.3 -104.15 M-13.5 -107.5 L-15.9 -104.95 Q-19.3 -101.8 -22.55 -99.7 -20.0 -102.35 -17.75 -105.15 -14.65 -109.05 -11.45 -119.65 -12.05 -113.2 -13.5 -107.5 M-19.25 -108.55 L-21.25 -105.55 Q-24.85 -101.2 -29.6 -98.0 -26.05 -101.85 -23.1 -106.0 L-16.0 -117.05 -19.25 -108.55 M-28.8 -111.85 L-31.55 -109.95 Q-37.35 -106.2 -44.2 -103.9 -39.15 -106.2 -32.65 -112.35 -25.5 -119.25 -22.3 -123.65 -24.45 -117.05 -28.8 -111.85 M18.65 -109.9 L19.25 -107.35 19.35 -106.8 Q20.1 -102.6 19.9 -98.65 19.45 -103.3 18.35 -107.0 17.25 -110.4 15.7 -113.0 L18.65 -109.9" fill="#326209" fill-rule="evenodd" stroke="none"/>
      <path d="M19.9 -98.65 Q16.25 -102.7 13.5 -107.15 L12.0 -109.85 13.65 -100.2 9.35 -109.55 9.3 -107.25 Q9.05 -100.9 7.05 -95.1 L6.7 -99.95 Q6.05 -103.55 4.45 -107.25 L3.5 -109.3 3.6 -107.2 Q3.55 -102.55 2.95 -98.2 -1.1 -103.85 -2.5 -108.85 L-2.45 -106.4 Q-2.6 -102.55 -3.0 -98.6 L-4.3 -104.15 -5.65 -109.35 -6.55 -104.7 Q-7.5 -100.5 -8.9 -96.4 -12.65 -100.25 -13.3 -104.8 L-13.5 -107.5 -15.9 -104.95 Q-19.3 -101.8 -22.55 -99.7 L-19.25 -108.55 -21.25 -105.55 Q-24.85 -101.2 -29.6 -98.0 L-29.15 -100.8 Q-28.75 -104.2 -27.55 -107.4 L-25.7 -111.75 -28.95 -108.25 Q-32.8 -104.6 -39.9 -101.35 L-28.8 -111.85 -31.55 -109.95 Q-37.35 -106.2 -44.2 -103.9 -12.2 -136.95 -2.25 -180.6 8.0 -139.1 35.05 -104.85 25.55 -106.95 22.25 -109.55 26.75 -103.95 29.65 -102.3 25.95 -103.55 24.8 -104.45 21.55 -107.05 18.65 -109.9 L19.25 -107.35 19.35 -106.8 Q20.1 -102.6 19.9 -98.65 M15.7 -113.0 L18.65 -109.9 M12.0 -109.85 L10.15 -113.65 M3.5 -109.3 L3.05 -116.1 M9.35 -109.55 L8.15 -112.2 M22.25 -109.55 Q20.25 -111.2 19.1 -112.85 M-2.7 -114.2 L-2.5 -109.5 -2.5 -108.85 M-5.15 -112.9 L-5.6 -109.55 -5.65 -109.35" fill="none" stroke="#000000" stroke-linecap="round" stroke-linejoin="round" stroke-opacity="0.3019608" stroke-width="0.30000000000000004"/>
    </g>
    <linearGradient gradientTransform="matrix(0.0, 0.0228, -0.0216, 0.0, 0.55, -18.05)" gradientUnits="userSpaceOnUse" id="decoration139-gradient0" spreadMethod="pad" x1="-819.2" x2="819.2">
      <stop offset="0.0" stop-color="#32690e"/>
      <stop offset="1.0" stop-color="#4d9f34"/>
    </linearGradient>
    <linearGradient gradientTransform="matrix(-0.0023, 0.0258, -0.0199, -0.0017, 2.4, -47.8)" gradientUnits="userSpaceOnUse" id="decoration139-gradient1" spreadMethod="pad" x1="-819.2" x2="819.2">
      <stop offset="0.0" stop-color="#32690e"/>
      <stop offset="1.0" stop-color="#4d9f34"/>
    </linearGradient>
    <linearGradient gradientTransform="matrix(-0.0049, 0.029, -0.0253, -0.0042, -2.2, -88.7)" gradientUnits="userSpaceOnUse" id="decoration139-gradient2" spreadMethod="pad" x1="-819.2" x2="819.2">
      <stop offset="0.0" stop-color="#32690e"/>
      <stop offset="1.0" stop-color="#4d9f34"/>
    </linearGradient>
    <linearGradient gradientTransform="matrix(-0.0125, 0.0462, -0.0488, -0.0135, -3.55, -158.55)" gradientUnits="userSpaceOnUse" id="decoration139-gradient3" spreadMethod="pad" x1="-819.2" x2="819.2">
      <stop offset="0.0" stop-color="#32690e"/>
      <stop offset="1.0" stop-color="#4d9f34"/>
    </linearGradient>
  </defs>
</svg>
