<?xml version="1.0" encoding="UTF-8" standalone="no"?>
<svg xmlns:xlink="http://www.w3.org/1999/xlink" height="199.65px" width="290.35px" xmlns="http://www.w3.org/2000/svg">
  <g transform="matrix(1.0, 0.0, 0.0, 1.0, 145.6, 170.9)">
    <use height="303.4" id="decoration14-Couleur1_BDE8F3" filter="url(#decoration14-filter1)" transform="matrix(0.56, 0.0, 0.0, 0.56, -86.65, -168.1)" width="303.4" xlink:href="#decoration14-sprite0"/>
    <use height="76.5" id="decoration14-Couleur2_FAF1B3" filter="url(#decoration14-filter2)" transform="matrix(0.9051, 0.0, 0.0, 0.9051, -84.5566, -168.1)" width="76.95" xlink:href="#decoration14-sprite1"/>
    <use height="396.3" transform="matrix(0.4683, 0.0, 0.0, 0.4683, -85.4341, -168.9341)" width="374.95" xlink:href="#decoration14-sprite2"/>
    <use height="274.3" id="decoration14-Couleur0_95311E" filter="url(#decoration14-filter0)" transform="matrix(0.7278, 0.0, 0.0, 0.7278, -143.9959, -170.8959)" width="114.8" xlink:href="#decoration14-sprite3"/>
    <use height="274.3" id="decoration14-Couleur0_95311E" filter="url(#decoration14-filter0)" transform="matrix(0.7278, 0.0, 0.0, 0.7278, 61.2041, -170.8959)" width="114.8" xlink:href="#decoration14-sprite3"/>
    <use height="19.4" transform="matrix(1.0, 0.0, 0.0, 1.0, -145.6, -170.25)" width="281.5" xlink:href="#decoration14-shape4"/>
  </g>
  <defs>
    <g id="decoration14-sprite0" transform="matrix(1.0, 0.0, 0.0, 1.0, 0.0, 0.0)">
      <use height="303.4" transform="matrix(1.0, 0.0, 0.0, 1.0, 0.0, 0.0)" width="303.4" xlink:href="#decoration14-shape0"/>
    </g>
    <g id="decoration14-shape0" transform="matrix(1.0, 0.0, 0.0, 1.0, 0.0, 0.0)">
      <path d="M0.0 0.0 L303.4 0.0 303.4 303.4 0.0 303.4 0.0 0.0" fill="url(#decoration14-gradient0)" fill-rule="evenodd" stroke="none"/>
    </g>
    <radialGradient cx="0" cy="0" gradientTransform="matrix(0.1938, 0.0, 0.0, 0.1938, 75.15, 62.6)" gradientUnits="userSpaceOnUse" id="decoration14-gradient0" r="819.2" spreadMethod="pad">
      <stop offset="0.0" stop-color="#9f9f9f"/>
      <stop offset="1.0" stop-color="#808080"/>
    </radialGradient>
    <g id="decoration14-sprite1" transform="matrix(1.0, 0.0, 0.0, 1.0, 5.2, 0.0)">
      <use height="76.5" transform="matrix(1.0, 0.0, 0.0, 1.0, -5.2, 0.0)" width="76.95" xlink:href="#decoration14-shape1"/>
    </g>
    <g id="decoration14-shape1" transform="matrix(1.0, 0.0, 0.0, 1.0, 5.2, 0.0)">
      <path d="M71.75 25.9 Q71.75 46.8 56.9 61.65 42.05 76.5 21.1 76.5 6.45 76.5 -5.2 69.25 L-5.2 0.25 64.9 0.25 Q71.75 11.65 71.75 25.9" fill="url(#decoration14-gradient1)" fill-rule="evenodd" stroke="none"/>
      <path d="M52.7 25.6 Q52.7 42.75 40.55 54.85 28.45 67.0 11.3 67.0 5.35 67.0 0.0 65.55 L0.0 0.0 43.9 0.0 Q52.7 11.0 52.7 25.6" fill="#878686" fill-rule="evenodd" stroke="none"/>
    </g>
    <radialGradient cx="0" cy="0" gradientTransform="matrix(0.0629, 0.0, 0.0, 0.0629, 19.55, 32.65)" gradientUnits="userSpaceOnUse" id="decoration14-gradient1" r="819.2" spreadMethod="pad">
      <stop offset="0.0" stop-color="#959595"/>
      <stop offset="1.0" stop-color="#9f9f9f" stop-opacity="0.0"/>
    </radialGradient>
    <g id="decoration14-sprite2" transform="matrix(1.0, 0.0, 0.0, 1.0, 0.5, 0.5)">
      <use height="396.3" transform="matrix(1.0, 0.0, 0.0, 1.0, -0.5, -0.5)" width="374.95" xlink:href="#decoration14-shape2"/>
    </g>
    <g id="decoration14-shape2" transform="matrix(1.0, 0.0, 0.0, 1.0, 0.5, 0.5)">
      <path d="M327.75 339.1 L24.35 339.1 24.35 35.7 327.75 35.7 327.75 339.1 Z" fill="none" stroke="#00cc33" stroke-linecap="round" stroke-linejoin="round" stroke-width="0.05"/>
      <path d="M374.45 8.05 L374.45 395.8 57.4 395.8 Q17.25 387.9 4.25 366.35 L55.55 343.95 338.75 340.05 356.35 24.6 367.4 0.5 374.45 8.05" fill="#000000" fill-opacity="0.3019608" fill-rule="evenodd" stroke="none"/>
      <path d="M171.55 37.25 L32.55 37.25 32.55 337.25 171.55 337.25 171.55 37.25 M332.55 337.25 L332.55 37.25 197.55 37.25 197.55 337.25 332.55 337.25 M358.6 8.2 L358.6 360.25 6.55 360.25 6.55 8.2 358.6 8.2" fill="url(#decoration14-gradient2)" fill-rule="evenodd" stroke="none"/>
      <path d="M338.7 8.2 Q260.1 26.15 221.1 8.2 L338.7 8.2 M190.9 8.2 Q143.0 20.7 122.35 8.2 L190.9 8.2 M75.15 8.2 Q86.85 16.25 122.95 26.45 169.3 34.25 231.15 26.45 288.9 26.8 332.55 37.25 L358.6 8.2 358.6 17.65 Q344.75 32.05 345.55 54.75 344.25 98.15 358.6 141.55 L358.6 221.4 Q347.85 240.7 345.55 274.85 341.7 309.95 358.6 340.9 L358.6 360.25 345.55 348.75 332.55 337.25 345.55 348.75 Q293.2 352.7 239.35 337.25 L332.55 337.25 332.55 260.4 Q347.9 210.85 345.55 145.3 345.1 118.75 332.55 80.8 L332.55 37.25 327.3 37.25 197.55 37.25 184.55 37.25 171.55 37.25 184.55 37.25 Q194.4 98.7 171.55 134.0 L171.55 37.25 165.95 37.25 116.7 37.25 Q104.45 25.1 72.65 20.15 37.95 20.85 32.55 37.25 L32.55 44.0 32.55 76.1 Q10.6 137.85 32.55 220.75 L32.55 292.0 Q27.4 206.45 6.55 171.7 L6.55 115.15 Q23.65 79.3 6.55 40.9 L6.55 8.2 75.15 8.2 M271.4 360.25 L139.95 360.25 Q167.55 342.5 219.2 348.75 L271.4 360.25 M16.7 360.25 L6.55 360.25 6.55 257.25 Q26.05 303.4 20.45 348.0 L20.1 348.25 20.55 348.75 16.7 360.25 M197.55 289.95 Q180.55 243.1 181.45 196.25 183.8 150.65 197.55 120.15 L197.55 288.65 197.55 289.95 M6.55 8.2 L32.55 37.25 6.55 8.2 M171.55 337.25 L171.55 260.4 Q190.45 297.2 184.55 337.25 L171.55 337.25 M6.55 360.25 L20.1 348.25 6.55 360.25 M157.55 337.25 L129.9 348.75 Q79.85 354.1 46.85 337.25 L157.55 337.25" fill="#6b4c26" fill-rule="evenodd" stroke="none"/>
      <path d="M327.3 37.25 L332.55 37.25 332.55 80.8 332.55 260.4 332.55 337.25 327.3 330.6 327.3 37.25 M165.95 37.25 L171.55 37.25 171.55 134.0 171.55 260.4 171.55 337.25 165.95 331.1 165.95 37.25" fill="#4d331a" fill-rule="evenodd" stroke="none"/>
      <path d="M358.6 8.2 L338.7 8.2 221.1 8.2 190.9 8.2 122.35 8.2 75.15 8.2 6.55 8.2 6.55 40.9 6.55 115.15 6.55 171.7 6.55 257.25 6.55 360.25 16.7 360.25 139.95 360.25 271.4 360.25 358.6 360.25 358.6 340.9 358.6 221.4 358.6 141.55 358.6 17.65 358.6 8.2 M367.35 367.35 L0.0 367.35 0.0 0.0 367.35 0.0 367.35 367.35" fill="url(#decoration14-gradient3)" fill-rule="evenodd" stroke="none"/>
      <path d="M338.7 8.2 L358.6 8.2 332.55 37.25 Q288.9 26.8 231.15 26.45 169.3 34.25 122.95 26.45 86.85 16.25 75.15 8.2 L122.35 8.2 Q143.0 20.7 190.9 8.2 L221.1 8.2 Q260.1 26.15 338.7 8.2 M358.6 17.65 L358.6 141.55 Q344.25 98.15 345.55 54.75 344.75 32.05 358.6 17.65 M358.6 221.4 L358.6 340.9 Q341.7 309.95 345.55 274.85 347.85 240.7 358.6 221.4 M358.6 360.25 L271.4 360.25 219.2 348.75 Q167.55 342.5 139.95 360.25 L16.7 360.25 20.55 348.75 20.45 348.0 Q26.05 303.4 6.55 257.25 L6.55 171.7 Q27.4 206.45 32.55 292.0 L32.55 325.6 32.55 331.15 32.55 337.25 46.85 337.25 Q79.85 354.1 129.9 348.75 L157.55 337.25 171.55 337.25 184.55 337.25 Q190.45 297.2 171.55 260.4 L171.55 134.0 Q194.4 98.7 184.55 37.25 L197.55 37.25 197.55 44.0 197.55 120.15 Q183.8 150.65 181.45 196.25 180.55 243.1 197.55 289.95 L197.55 325.6 197.55 330.6 197.55 337.25 184.55 337.25 197.55 337.25 239.35 337.25 Q293.2 352.7 345.55 348.75 L358.6 360.25 M6.55 115.15 L6.55 40.9 Q23.65 79.3 6.55 115.15 M332.55 80.8 Q345.1 118.75 345.55 145.3 347.9 210.85 332.55 260.4 L332.55 80.8 M32.55 76.1 L32.55 220.75 Q10.6 137.85 32.55 76.1 M32.55 37.25 Q37.95 20.85 72.65 20.15 104.45 25.1 116.7 37.25 L32.55 37.25 M20.45 348.0 L32.55 337.25 20.45 348.0" fill="#7d592d" fill-rule="evenodd" stroke="none"/>
      <path d="M327.3 330.6 L332.55 337.25 239.35 337.25 197.55 337.25 197.55 330.6 327.3 330.6 M165.95 331.1 L171.55 337.25 157.55 337.25 46.85 337.25 32.55 337.25 32.55 331.15 165.95 331.15 165.95 331.1" fill="#3b2814" fill-rule="evenodd" stroke="none"/>
      <path d="M327.3 37.25 L327.3 330.6 197.55 330.6 197.55 325.6 321.5 325.6 321.5 44.0 197.55 44.0 197.55 37.25 327.3 37.25" fill="url(#decoration14-gradient4)" fill-rule="evenodd" stroke="none"/>
      <path d="M32.55 44.0 L32.55 37.25 116.7 37.25 165.95 37.25 165.95 331.1 165.95 331.15 32.55 331.15 32.55 325.6 161.35 325.6 161.35 44.0 32.55 44.0" fill="url(#decoration14-gradient5)" fill-rule="evenodd" stroke="none"/>
      <path d="M20.45 348.0 L20.55 348.75 20.1 348.25 20.45 348.0" fill="#704a28" fill-rule="evenodd" stroke="none"/>
      <path d="M358.6 8.2 L338.7 8.2 221.1 8.2 190.9 8.2 122.35 8.2 75.15 8.2 M358.6 8.2 L358.6 17.65 358.6 141.55 358.6 221.4 358.6 340.9 358.6 360.25 271.4 360.25 139.95 360.25 16.7 360.25 6.55 360.25 6.55 257.25 6.55 171.7 6.55 115.15 6.55 40.9 6.55 8.2 75.15 8.2 M327.3 37.25 L332.55 37.25 332.55 80.8 332.55 260.4 332.55 337.25 239.35 337.25 M367.35 367.35 L0.0 367.35 0.0 0.0 367.35 0.0 367.35 367.35 M327.3 37.25 L197.55 37.25 197.55 44.0 M197.55 325.6 L197.55 330.6 M165.95 37.25 L171.55 37.25 171.55 134.0 M197.55 120.15 L197.55 44.0 M32.55 44.0 L32.55 37.25 116.7 37.25 165.95 37.25 M32.55 44.0 L32.55 76.1 32.55 220.75 32.55 292.0 32.55 325.6 M32.55 337.25 L32.55 331.15 32.55 325.6 M46.85 337.25 L32.55 337.25 M46.85 337.25 L157.55 337.25 171.55 337.25 M197.55 120.15 L197.55 288.65 197.55 289.95 197.55 325.6 M197.55 337.25 L197.55 330.6 M197.55 337.25 L239.35 337.25" fill="none" stroke="#000000" stroke-linecap="round" stroke-linejoin="round" stroke-opacity="0.4509804" stroke-width="1.0"/>
      <path d="M332.55 37.25 L358.6 8.2 M332.55 337.25 L345.55 348.75 358.6 360.25 M327.3 330.6 L332.55 337.25 M327.3 330.6 L327.3 37.25 M197.55 330.6 L327.3 330.6 M171.55 37.25 L184.55 37.25 197.55 37.25 M32.55 37.25 L6.55 8.2 M20.1 348.25 L6.55 360.25 M32.55 337.25 L20.45 348.0" fill="none" stroke="#000000" stroke-linecap="round" stroke-linejoin="round" stroke-opacity="0.3019608" stroke-width="0.5"/>
      <path d="M338.7 8.2 Q260.1 26.15 221.1 8.2 M190.9 8.2 Q143.0 20.7 122.35 8.2 M75.15 8.2 Q86.85 16.25 122.95 26.45 169.3 34.25 231.15 26.45 288.9 26.8 332.55 37.25 M332.55 80.8 Q345.1 118.75 345.55 145.3 347.9 210.85 332.55 260.4 M358.6 141.55 Q344.25 98.15 345.55 54.75 344.75 32.05 358.6 17.65 M358.6 340.9 Q341.7 309.95 345.55 274.85 347.85 240.7 358.6 221.4 M239.35 337.25 Q293.2 352.7 345.55 348.75 M197.55 289.95 Q180.55 243.1 181.45 196.25 183.8 150.65 197.55 120.15 M171.55 134.0 Q194.4 98.7 184.55 37.25 M32.55 37.25 Q37.95 20.85 72.65 20.15 104.45 25.1 116.7 37.25 M6.55 40.9 Q23.65 79.3 6.55 115.15 M20.45 348.0 L20.55 348.75 16.7 360.25 M20.45 348.0 Q26.05 303.4 6.55 257.25 M157.55 337.25 L129.9 348.75 Q79.85 354.1 46.85 337.25 M184.55 337.25 Q190.45 297.2 171.55 260.4 M139.95 360.25 Q167.55 342.5 219.2 348.75 L271.4 360.25 M32.55 220.75 Q10.6 137.85 32.55 76.1 M32.55 292.0 Q27.4 206.45 6.55 171.7" fill="none" stroke="#000000" stroke-linecap="round" stroke-linejoin="round" stroke-opacity="0.2" stroke-width="0.5"/>
      <path d="M197.55 44.0 L321.5 44.0 321.5 325.6 197.55 325.6 M32.55 325.6 L161.35 325.6 161.35 44.0 32.55 44.0 M171.55 337.25 L171.55 260.4 171.55 134.0 M20.1 348.25 L20.45 348.0" fill="none" stroke="#000000" stroke-linecap="round" stroke-linejoin="round" stroke-opacity="0.4509804" stroke-width="0.5"/>
      <path d="M165.95 37.25 L165.95 331.1 171.55 337.25 184.55 337.25 197.55 337.25 M32.55 331.15 L165.95 331.15 165.95 331.1" fill="none" stroke="#000000" stroke-linecap="round" stroke-linejoin="round" stroke-opacity="0.2509804" stroke-width="0.5"/>
      <path d="M324.7 111.3 L324.7 155.35 197.8 277.3 197.6 236.6 324.7 111.3" fill="url(#decoration14-gradient6)" fill-rule="evenodd" stroke="none"/>
      <path d="M324.7 187.55 L324.7 206.0 197.65 322.45 197.65 301.7 324.7 187.55" fill="url(#decoration14-gradient7)" fill-rule="evenodd" stroke="none"/>
      <path d="M165.05 167.9 L165.05 186.35 33.4 302.8 33.4 282.45 165.05 167.9" fill="url(#decoration14-gradient8)" fill-rule="evenodd" stroke="none"/>
      <path d="M165.05 91.65 L165.05 135.7 33.4 257.85 33.4 217.35 165.05 91.65" fill="url(#decoration14-gradient9)" fill-rule="evenodd" stroke="none"/>
    </g>
    <linearGradient gradientTransform="matrix(0.0296, 0.1393, -0.2094, 0.0446, 260.95, 320.05)" gradientUnits="userSpaceOnUse" id="decoration14-gradient2" spreadMethod="pad" x1="-819.2" x2="819.2">
      <stop offset="0.0" stop-color="#000000" stop-opacity="0.0"/>
      <stop offset="1.0" stop-color="#000000" stop-opacity="0.5019608"/>
    </linearGradient>
    <linearGradient gradientTransform="matrix(-0.0472, -0.2607, 0.2205, -0.0399, 204.9, 172.95)" gradientUnits="userSpaceOnUse" id="decoration14-gradient3" spreadMethod="pad" x1="-819.2" x2="819.2">
      <stop offset="0.0" stop-color="#2b1e0f"/>
      <stop offset="0.9882352941176471" stop-color="#735128"/>
    </linearGradient>
    <linearGradient gradientTransform="matrix(-0.0739, -0.1732, 0.1682, -0.0717, 224.05, 88.2)" gradientUnits="userSpaceOnUse" id="decoration14-gradient4" spreadMethod="pad" x1="-819.2" x2="819.2">
      <stop offset="0.0" stop-color="#473118"/>
      <stop offset="0.9882352941176471" stop-color="#634422"/>
    </linearGradient>
    <linearGradient gradientTransform="matrix(-0.1039, -0.1039, 0.1295, -0.1295, 102.05, 187.25)" gradientUnits="userSpaceOnUse" id="decoration14-gradient5" spreadMethod="pad" x1="-819.2" x2="819.2">
      <stop offset="0.0" stop-color="#473118"/>
      <stop offset="0.9882352941176471" stop-color="#634422"/>
    </linearGradient>
    <linearGradient gradientTransform="matrix(0.0974, -0.027, 0.0254, 0.098, 241.0, 212.05)" gradientUnits="userSpaceOnUse" id="decoration14-gradient6" spreadMethod="pad" x1="-819.2" x2="819.2">
      <stop offset="0.0" stop-color="#ffffff" stop-opacity="0.6901961"/>
      <stop offset="1.0" stop-color="#ffffff" stop-opacity="0.0"/>
    </linearGradient>
    <linearGradient gradientTransform="matrix(0.1024, -0.0376, 0.0267, 0.0775, 242.15, 265.65)" gradientUnits="userSpaceOnUse" id="decoration14-gradient7" spreadMethod="pad" x1="-819.2" x2="819.2">
      <stop offset="0.0" stop-color="#ffffff" stop-opacity="0.6901961"/>
      <stop offset="1.0" stop-color="#ffffff" stop-opacity="0.0"/>
    </linearGradient>
    <linearGradient gradientTransform="matrix(0.1057, -0.0376, 0.0275, 0.0775, 79.8, 246.0)" gradientUnits="userSpaceOnUse" id="decoration14-gradient8" spreadMethod="pad" x1="-819.2" x2="819.2">
      <stop offset="0.0" stop-color="#ffffff" stop-opacity="0.6901961"/>
      <stop offset="1.0" stop-color="#ffffff" stop-opacity="0.0"/>
    </linearGradient>
    <linearGradient gradientTransform="matrix(0.1006, -0.027, 0.0263, 0.098, 78.6, 192.4)" gradientUnits="userSpaceOnUse" id="decoration14-gradient9" spreadMethod="pad" x1="-819.2" x2="819.2">
      <stop offset="0.0" stop-color="#ffffff" stop-opacity="0.6901961"/>
      <stop offset="1.0" stop-color="#ffffff" stop-opacity="0.0"/>
    </linearGradient>
    <g id="decoration14-sprite3" transform="matrix(1.0, 0.0, 0.0, 1.0, 0.75, 0.75)">
      <use height="274.3" transform="matrix(1.0, 0.0, 0.0, 1.0, -0.75, -0.75)" width="114.8" xlink:href="#decoration14-shape3"/>
    </g>
    <g id="decoration14-shape3" transform="matrix(1.0, 0.0, 0.0, 1.0, 0.75, 0.75)">
      <path d="M85.15 85.75 L86.35 96.15 102.8 237.7 Q103.65 248.45 108.65 252.0 107.05 255.45 104.15 258.05 83.5 234.5 63.5 133.6 L59.75 112.8 Q57.25 94.75 55.6 65.75 53.35 26.25 57.4 2.35 63.25 -2.0 69.05 1.65 L85.15 85.75" fill="url(#decoration14-gradient10)" fill-rule="evenodd" stroke="none"/>
      <path d="M28.3 2.25 Q36.85 7.55 57.4 2.35 53.35 26.25 55.6 65.75 57.25 94.75 59.75 112.8 51.15 69.15 50.0 59.7 46.05 26.75 37.25 22.75 30.45 19.45 31.9 58.0 L28.3 2.25 M69.05 1.65 Q76.25 5.75 82.35 1.85 78.9 44.55 85.15 85.75 L69.05 1.65 M63.5 133.6 Q83.5 234.5 104.15 258.05 101.25 260.35 97.05 261.95 93.25 263.35 88.05 262.55 78.15 238.15 71.0 179.7 L63.5 133.6 M39.35 132.9 L40.1 132.85 40.15 133.1 Q45.85 195.6 47.5 252.75 45.85 195.6 40.15 133.1 49.25 196.65 57.3 216.85 65.3 237.0 61.5 262.55 57.25 253.15 47.5 252.75 L47.85 263.35 Q40.75 265.1 34.45 265.6 46.6 243.55 39.35 133.1 L39.35 132.9" fill="#4f4b4b" fill-rule="evenodd" stroke="none"/>
      <path d="M3.6 256.95 Q1.75 255.35 0.0 253.35 6.05 227.8 8.35 189.85 10.1 160.0 12.0 137.15 18.05 35.1 19.0 1.65 22.8 -1.2 28.3 2.25 L31.9 58.0 Q30.45 19.45 37.25 22.75 46.05 26.75 50.0 59.7 51.15 69.15 59.75 112.8 L63.5 133.6 71.0 179.7 Q78.15 238.15 88.05 262.55 70.7 274.35 61.5 262.55 65.3 237.0 57.3 216.85 49.25 196.65 40.15 133.1 L40.1 132.85 36.95 100.65 39.35 132.9 39.35 133.1 Q46.6 243.55 34.45 265.6 23.1 266.45 14.3 263.25 L10.8 261.7 Q6.05 259.0 3.6 256.95 M34.95 82.55 L36.95 100.65 34.95 82.55" fill="url(#decoration14-gradient11)" fill-rule="evenodd" stroke="none"/>
      <path d="M40.1 132.85 L39.35 132.9 36.95 100.65 40.1 132.85" fill="#2d223b" fill-rule="evenodd" stroke="none"/>
      <path d="M8.35 189.85 Q9.35 162.45 12.0 137.15 10.1 160.0 8.35 189.85 M10.8 261.7 L14.3 263.25 Q13.45 263.3 12.05 262.5 L10.8 261.7" fill="#75321d" fill-rule="evenodd" stroke="none"/>
      <path d="M86.35 96.15 L114.05 253.25 Q102.6 269.25 90.25 267.05 86.3 272.7 72.75 273.55 59.35 272.3 54.2 263.4 50.2 270.0 37.8 271.45 14.4 272.95 3.6 256.95 6.05 259.0 10.8 261.7 L12.05 262.5 Q13.45 263.3 14.3 263.25 23.1 266.45 34.45 265.6 40.75 265.1 47.85 263.35 L47.5 252.75 Q57.25 253.15 61.5 262.55 70.7 274.35 88.05 262.55 93.25 263.35 97.05 261.95 101.25 260.35 104.15 258.05 107.05 255.45 108.65 252.0 103.65 248.45 102.8 237.7 L86.35 96.15" fill="#000000" fill-opacity="0.3019608" fill-rule="evenodd" stroke="none"/>
      <path d="M85.15 85.75 L86.35 96.15 M3.6 256.95 Q1.75 255.35 0.0 253.35 6.05 227.8 8.35 189.85 10.1 160.0 12.0 137.15 18.05 35.1 19.0 1.65 22.8 -1.2 28.3 2.25 36.85 7.55 57.4 2.35 63.25 -2.0 69.05 1.65 76.25 5.75 82.35 1.85 78.9 44.55 85.15 85.75 M104.15 258.05 Q107.05 255.45 108.65 252.0 103.65 248.45 102.8 237.7 L86.35 96.15 M34.45 265.6 Q40.75 265.1 47.85 263.35 L47.5 252.75 M88.05 262.55 Q93.25 263.35 97.05 261.95 101.25 260.35 104.15 258.05 M10.8 261.7 Q6.05 259.0 3.6 256.95 M14.3 263.25 L10.8 261.7 M14.3 263.25 Q23.1 266.45 34.45 265.6 M61.5 262.55 Q57.25 253.15 47.5 252.75 M61.5 262.55 Q70.7 274.35 88.05 262.55" fill="none" stroke="#000000" stroke-linecap="round" stroke-linejoin="round" stroke-opacity="0.4509804" stroke-width="1.5"/>
      <path d="M85.15 85.75 L69.05 1.65 M47.5 252.75 Q45.85 195.6 40.15 133.1 M88.05 262.55 Q78.15 238.15 71.0 179.7 L63.5 133.6 M36.95 100.65 L34.95 82.55" fill="none" stroke="#000000" stroke-linecap="round" stroke-linejoin="round" stroke-opacity="0.3019608" stroke-width="0.5"/>
    </g>
    <linearGradient gradientTransform="matrix(0.0511, 0.0, 0.0, 0.1565, 81.75, 129.8)" gradientUnits="userSpaceOnUse" id="decoration14-gradient10" spreadMethod="pad" x1="-819.2" x2="819.2">
      <stop offset="0.011764705882352941" stop-color="#808080"/>
      <stop offset="1.0" stop-color="#625b5b"/>
    </linearGradient>
    <linearGradient gradientTransform="matrix(0.0537, 0.0, 0.0, 0.1628, 57.8, 143.25)" gradientUnits="userSpaceOnUse" id="decoration14-gradient11" spreadMethod="pad" x1="-819.2" x2="819.2">
      <stop offset="0.0" stop-color="#808080"/>
      <stop offset="1.0" stop-color="#625b5b"/>
    </linearGradient>
    <g id="decoration14-shape4" transform="matrix(1.0, 0.0, 0.0, 1.0, 145.6, 170.25)">
      <path d="M-102.75 -155.15 L-121.45 -155.15 -122.3 -159.15 -102.75 -159.15 -102.75 -155.15 M75.15 -159.15 L75.15 -155.15 -90.35 -155.15 -91.35 -159.15 75.15 -159.15 M121.35 -155.15 L114.55 -155.15 113.7 -159.15 121.35 -159.15 121.35 -155.15 M83.3 -159.15 L102.2 -159.15 102.2 -155.15 83.3 -155.15 83.3 -159.15" fill="#000000" fill-opacity="0.34901962" fill-rule="evenodd" stroke="none"/>
      <path d="M113.6 -160.95 L112.9 -164.0 135.4 -164.0 135.4 -160.95 113.6 -160.95 M83.0 -160.95 L82.75 -164.0 102.9 -164.0 102.5 -160.95 83.0 -160.95 M-91.4 -160.95 L-92.25 -164.0 75.4 -164.0 75.3 -160.95 -91.4 -160.95 M-122.0 -160.95 Q-122.15 -162.75 -121.85 -164.0 L-102.45 -164.0 -102.7 -160.95 -122.0 -160.95 M-129.6 -160.95 L-145.1 -160.95 -145.1 -164.0 -129.5 -164.0 -129.6 -160.95" fill="#795b36" fill-rule="evenodd" stroke="none"/>
      <path d="M135.4 -160.95 L135.4 -157.05 114.35 -157.05 113.6 -160.95 135.4 -160.95 M83.0 -160.95 L102.5 -160.95 Q102.3 -159.0 102.35 -157.05 L83.35 -157.05 83.0 -160.95 M75.3 -160.95 L75.2 -157.05 -90.85 -157.05 Q-91.05 -159.1 -91.4 -160.95 L75.3 -160.95 M-102.7 -160.95 L-102.85 -157.05 -121.2 -157.05 -121.85 -159.9 -122.0 -160.95 -102.7 -160.95 M-129.6 -160.95 L-129.8 -157.05 -145.1 -157.05 -145.1 -160.95 -129.6 -160.95" fill="#4d3415" fill-rule="evenodd" stroke="none"/>
      <path d="M135.4 -160.95 L135.4 -157.05 114.35 -157.05 113.6 -160.95 112.9 -164.0 135.4 -164.0 135.4 -160.95 M102.5 -160.95 L102.9 -164.0 82.75 -164.0 83.0 -160.95 M102.5 -160.95 Q102.3 -159.0 102.35 -157.05 L83.35 -157.05 83.0 -160.95 M75.3 -160.95 L75.2 -157.05 -90.85 -157.05 Q-91.05 -159.1 -91.4 -160.95 L-92.25 -164.0 75.4 -164.0 75.3 -160.95 M-102.7 -160.95 L-102.85 -157.05 -121.2 -157.05 -121.85 -159.9 -122.0 -160.95 Q-122.15 -162.75 -121.85 -164.0 L-102.45 -164.0 -102.7 -160.95 M-145.1 -160.95 L-145.1 -157.05 -129.8 -157.05 -129.6 -160.95 M-145.1 -160.95 L-145.1 -164.0 -129.5 -164.0 -129.6 -160.95" fill="none" stroke="#000000" stroke-linecap="round" stroke-linejoin="round" stroke-opacity="0.4509804" stroke-width="1.0"/>
      <path d="M132.8 -167.8 L133.0 -167.45 Q134.1 -165.1 133.7 -161.75 L133.45 -157.45 Q133.3 -155.05 132.15 -153.05 131.0 -151.05 129.15 -151.05 127.3 -151.05 126.2 -153.2 125.0 -155.45 124.85 -157.7 L124.8 -161.65 Q124.45 -164.25 125.1 -166.35 125.9 -161.75 127.85 -160.05 133.55 -158.4 132.8 -167.8 M126.95 -153.7 Q127.95 -151.95 130.7 -152.6 132.4 -154.65 132.5 -159.35 131.15 -154.7 128.75 -155.1 126.3 -155.65 125.65 -159.7 125.9 -155.45 126.95 -153.7 M-132.8 -167.8 L-132.65 -167.45 Q-131.55 -165.1 -131.95 -161.75 L-132.15 -157.45 Q-132.35 -155.05 -133.5 -153.05 -134.6 -151.05 -136.45 -151.05 -138.3 -151.05 -139.45 -153.2 -140.6 -155.45 -140.75 -157.7 L-140.85 -161.65 Q-141.15 -164.25 -140.55 -166.35 -139.75 -161.75 -137.75 -160.05 -132.05 -158.4 -132.8 -167.8 M-136.85 -155.1 Q-139.35 -155.65 -140.0 -159.7 -139.75 -155.45 -138.7 -153.7 -137.65 -151.95 -134.95 -152.6 -133.2 -154.65 -133.15 -159.35 -134.45 -154.7 -136.85 -155.1" fill="#3c270d" fill-rule="evenodd" stroke="none"/>
      <path d="M125.1 -166.35 L125.35 -167.15 Q126.45 -169.9 129.05 -170.05 131.5 -170.25 132.8 -167.8 133.55 -158.4 127.85 -160.05 125.9 -161.75 125.1 -166.35 M-140.55 -166.35 L-140.3 -167.15 Q-139.2 -169.9 -136.55 -170.05 -134.15 -170.25 -132.8 -167.8 -132.05 -158.4 -137.75 -160.05 -139.75 -161.75 -140.55 -166.35" fill="#5d3d14" fill-rule="evenodd" stroke="none"/>
      <path d="M126.95 -153.7 Q125.9 -155.45 125.65 -159.7 126.3 -155.65 128.75 -155.1 131.15 -154.7 132.5 -159.35 132.4 -154.65 130.7 -152.6 127.95 -151.95 126.95 -153.7 M-136.85 -155.1 Q-134.45 -154.7 -133.15 -159.35 -133.2 -154.65 -134.95 -152.6 -137.65 -151.95 -138.7 -153.7 -139.75 -155.45 -140.0 -159.7 -139.35 -155.65 -136.85 -155.1" fill="#5f503d" fill-rule="evenodd" stroke="none"/>
      <path d="M132.8 -167.8 L133.0 -167.45 Q134.1 -165.1 133.7 -161.75 L133.45 -157.45 Q133.3 -155.05 132.15 -153.05 131.0 -151.05 129.15 -151.05 127.3 -151.05 126.2 -153.2 125.0 -155.45 124.85 -157.7 L124.8 -161.65 Q124.45 -164.25 125.1 -166.35 L125.35 -167.15 Q126.45 -169.9 129.05 -170.05 131.5 -170.25 132.8 -167.8 M-140.55 -166.35 L-140.3 -167.15 Q-139.2 -169.9 -136.55 -170.05 -134.15 -170.25 -132.8 -167.8 L-132.65 -167.45 Q-131.55 -165.1 -131.95 -161.75 L-132.15 -157.45 Q-132.35 -155.05 -133.5 -153.05 -134.6 -151.05 -136.45 -151.05 -138.3 -151.05 -139.45 -153.2 -140.6 -155.45 -140.75 -157.7 L-140.85 -161.65 Q-141.15 -164.25 -140.55 -166.35" fill="none" stroke="#000000" stroke-linecap="round" stroke-linejoin="round" stroke-opacity="0.2784314" stroke-width="0.4"/>
    </g>
  </defs>
</svg>
