<?xml version="1.0" encoding="UTF-8" standalone="no"?>
<svg xmlns:xlink="http://www.w3.org/1999/xlink" height="35.7px" width="40.1px" xmlns="http://www.w3.org/2000/svg">
  <g transform="matrix(1.0, 0.0, 0.0, 1.0, 23.25, 35.1)">
    <use height="35.7" transform="matrix(1.0, 0.0, 0.0, 1.0, -23.25, -35.1)" width="40.1" xlink:href="#decoration142-shape0"/>
  </g>
  <defs>
    <g id="decoration142-shape0" transform="matrix(1.0, 0.0, 0.0, 1.0, 23.25, 35.1)">
      <path d="M-0.3 -30.25 Q-0.25 -30.95 0.45 -31.35 L1.5 -31.65 1.45 -30.35 0.45 -30.2 -0.25 -29.9 -0.3 -30.25 M7.05 -29.7 L7.25 -29.9 7.75 -30.05 Q8.15 -30.0 8.8 -29.55 L8.75 -28.8 7.45 -29.15 7.1 -29.15 7.0 -29.6 7.05 -29.7 M-14.3 -7.15 L-14.0 -7.6 -13.95 -7.65 -13.9 -7.65 -13.85 -7.75 -13.4 -8.35 -12.75 -8.9 -13.3 -7.35 -14.3 -7.15 M-19.25 -9.55 L-18.9 -10.1 -18.75 -10.35 -18.25 -10.75 -18.15 -10.75 -18.2 -9.65 -18.35 -9.7 -18.45 -9.7 -19.25 -9.55 M-21.7 -13.85 L-21.45 -14.3 -20.9 -14.85 -20.9 -14.9 -19.95 -15.85 -20.45 -14.1 -20.6 -14.1 -21.5 -13.95 -21.7 -13.85 M-22.95 -18.6 L-22.85 -19.05 -22.55 -19.9 -22.2 -20.4 -22.0 -20.45 -22.0 -18.95 -22.05 -18.95 -22.3 -18.95 -22.75 -18.85 -22.95 -18.6 M-20.65 -22.5 L-20.0 -23.5 -19.55 -24.15 Q-19.05 -24.7 -18.7 -24.7 L-19.25 -23.3 -19.3 -23.15 -19.65 -23.1 -20.2 -22.8 -20.65 -22.5 M-11.9 -28.6 L-11.05 -29.5 -11.0 -29.5 -10.95 -29.55 -11.0 -29.35 -11.05 -29.05 -11.9 -28.6 M-5.9 -30.55 L-5.45 -31.0 -4.65 -31.45 -4.55 -31.5 -4.55 -31.35 -4.65 -30.85 -5.55 -30.7 -5.9 -30.55 M3.85 -24.85 L4.9 -27.1 5.35 -27.85 5.25 -26.45 5.2 -25.1 3.6 -24.1 3.85 -24.85 M11.2 -24.55 L11.4 -25.4 Q11.55 -25.85 11.9 -25.9 L11.7 -24.65 11.35 -24.65 11.2 -24.55 M13.65 -17.45 L14.9 -20.85 14.25 -17.7 13.9 -17.6 13.65 -17.45 M7.8 -17.0 Q8.6 -18.55 9.75 -19.45 L8.55 -17.05 7.9 -17.0 7.8 -17.0 M0.9 -18.65 L1.35 -19.35 2.65 -21.15 1.9 -18.35 1.8 -17.8 0.6 -17.4 0.05 -16.95 0.9 -18.65 M-1.05 -27.55 L-1.65 -25.5 -1.75 -25.1 -2.5 -24.85 -2.75 -24.7 -2.3 -25.65 -2.0 -26.1 -1.05 -27.55 M10.25 -10.4 L11.35 -12.25 12.0 -12.35 12.05 -12.3 10.75 -10.3 10.4 -10.4 10.25 -10.4 M3.9 -9.65 L3.1 -9.35 2.2 -8.65 Q2.75 -9.75 3.6 -10.85 L5.05 -12.6 Q4.3 -11.15 3.9 -9.65 M-1.2 -14.05 L-2.3 -11.85 -2.6 -11.95 -3.3 -11.9 -3.6 -11.7 Q-2.2 -13.9 -1.2 -14.05 M0.8 -7.5 L1.05 -7.2 -0.8 -5.0 -1.55 -4.75 -2.05 -4.5 -1.7 -4.9 0.8 -7.5 M3.6 -2.6 L4.2 -3.05 Q4.9 -3.4 5.05 -3.6 L5.2 -3.7 4.8 -2.9 4.25 -2.8 3.6 -2.6 M-15.15 -24.7 L-15.05 -24.9 -14.65 -25.8 Q-14.05 -27.15 -13.45 -27.1 L-13.35 -27.1 -14.05 -25.4 -14.4 -25.2 -14.5 -25.15 -15.15 -24.7 M-9.7 -25.0 L-9.4 -25.65 -9.2 -26.15 -8.65 -27.3 -7.95 -28.7 -8.35 -26.6 -8.4 -25.8 -9.0 -25.65 -9.7 -25.0 M-18.5 -18.65 L-18.3 -19.25 -18.05 -19.7 -17.9 -20.05 -17.15 -20.95 -17.6 -19.25 -17.6 -19.05 -18.25 -18.8 -18.5 -18.65 M-4.25 -21.7 L-4.9 -20.05 -5.25 -18.9 -6.1 -18.55 -6.6 -18.2 -6.3 -18.8 -6.05 -19.25 -5.3 -20.65 -4.25 -21.7 M-11.25 -21.35 L-11.9 -19.05 -12.4 -18.8 -13.45 -18.0 -12.7 -19.4 -12.7 -19.45 -12.45 -19.8 -11.25 -21.35 M-10.6 -12.15 L-10.15 -12.65 -9.35 -13.65 -8.4 -14.5 -8.1 -14.4 -9.05 -12.85 -9.15 -12.6 -9.6 -12.55 -10.25 -12.25 -10.75 -11.95 -10.6 -12.15 M-15.9 -14.3 L-15.6 -14.65 -14.8 -15.1 -14.7 -15.1 -14.6 -15.1 -15.25 -13.85 -15.5 -13.1 -16.8 -12.75 -16.35 -13.55 -15.9 -14.3 M-8.75 -5.6 L-8.15 -6.15 -6.1 -7.85 -7.85 -5.3 -8.6 -5.25 -9.35 -5.05 -8.75 -5.6" fill="#ba6e54" fill-rule="evenodd" stroke="none"/>
      <path d="M1.45 -30.35 L1.5 -31.65 1.8 -31.65 2.9 -31.5 3.85 -31.25 4.45 -30.75 Q4.9 -30.25 4.8 -29.45 L4.55 -28.55 4.05 -29.15 3.85 -29.3 Q2.9 -30.25 1.8 -30.3 L1.45 -30.35 M8.8 -29.55 L9.75 -28.85 Q11.05 -27.75 11.05 -27.25 L10.8 -26.25 10.15 -27.65 9.45 -28.35 8.75 -28.8 8.8 -29.55 M11.9 -25.9 L12.05 -25.95 Q13.25 -25.8 13.7 -23.85 L13.75 -23.45 13.9 -22.25 13.5 -22.95 Q12.65 -24.55 11.75 -24.65 L11.7 -24.65 11.9 -25.9 M14.9 -20.85 Q15.6 -20.3 15.95 -18.7 L16.1 -16.8 16.0 -16.35 15.9 -16.6 Q15.45 -17.65 14.6 -17.7 L14.25 -17.7 14.9 -20.85 M-10.95 -29.55 L-10.95 -29.6 Q-10.25 -30.05 -9.65 -30.1 L-9.4 -30.15 -9.15 -30.05 -8.9 -30.0 -9.0 -29.3 -9.3 -29.35 -9.4 -29.35 -10.7 -29.2 -10.95 -29.1 -11.05 -29.05 -11.0 -29.35 -10.95 -29.55 M-4.55 -31.5 L-3.85 -31.55 -3.25 -31.25 -2.9 -30.95 Q-2.25 -30.3 -2.3 -29.7 L-2.5 -29.15 -2.9 -29.85 -4.3 -30.8 -4.55 -30.85 -4.65 -30.85 -4.55 -31.35 -4.55 -31.5 M5.35 -27.85 L5.75 -27.85 Q6.7 -27.8 7.6 -25.8 L8.35 -23.75 8.1 -24.05 7.0 -25.05 6.3 -25.3 5.2 -25.1 5.25 -26.45 5.35 -27.85 M9.75 -19.45 Q11.05 -18.25 11.15 -15.4 L10.8 -15.9 Q9.95 -16.9 8.8 -17.0 L8.55 -17.05 9.75 -19.45 M1.85 -23.35 L1.35 -23.8 Q0.0 -24.95 -1.1 -25.1 L-1.45 -25.1 -1.75 -25.1 -1.65 -25.5 -1.05 -27.55 -0.75 -27.85 -0.65 -27.8 -0.6 -27.8 Q0.0 -27.55 0.95 -25.9 L1.85 -23.35 M-3.75 -21.75 L-3.2 -21.4 Q-2.75 -20.8 -2.35 -19.45 L-2.35 -19.35 -1.9 -17.2 Q-2.85 -18.75 -4.3 -18.95 L-4.35 -18.95 -5.25 -18.9 -4.9 -20.05 -4.25 -21.7 -3.85 -21.8 -3.8 -21.8 -3.8 -21.75 -3.75 -21.75 M4.6 -15.65 L4.35 -16.1 3.85 -16.9 Q3.25 -17.7 2.45 -17.8 L2.15 -17.8 1.8 -17.8 1.9 -18.35 2.65 -21.15 Q3.85 -19.95 4.35 -18.0 L4.6 -15.65 M5.05 -12.6 L5.3 -12.8 Q7.1 -11.2 6.8 -7.85 6.1 -9.5 4.5 -9.65 L3.9 -9.65 Q4.3 -11.15 5.05 -12.6 M5.45 -4.05 L5.75 -4.55 Q6.15 -5.0 6.65 -5.0 L6.85 -3.95 6.95 -2.85 6.7 -2.15 6.45 -2.4 5.35 -2.95 4.8 -2.9 5.2 -3.7 5.2 -3.8 5.45 -4.05 M-0.8 -14.0 Q-0.3 -13.75 0.0 -12.15 L0.15 -11.5 0.25 -9.25 0.1 -8.6 -0.1 -9.65 Q-0.25 -10.3 -0.7 -10.75 L-1.15 -11.25 Q-1.75 -11.75 -2.3 -11.85 L-1.2 -14.05 -1.0 -14.05 -0.9 -14.05 -0.8 -14.0 M-0.8 -5.0 L1.05 -7.2 Q2.5 -5.65 1.85 -2.6 L0.9 -1.45 0.9 -2.0 0.8 -2.8 0.65 -4.2 Q0.3 -4.9 -0.45 -5.0 L-0.8 -5.0 M10.75 -10.3 L12.05 -12.3 Q12.55 -12.0 12.7 -10.5 L12.1 -7.3 11.8 -8.7 Q11.4 -10.05 10.75 -10.3 M-14.05 -25.4 L-13.35 -27.1 Q-12.8 -26.95 -12.2 -25.95 -11.65 -25.0 -11.6 -24.25 L-11.9 -24.65 Q-12.65 -25.5 -13.15 -25.55 L-14.05 -25.4 M-6.15 -25.4 L-7.3 -25.8 -8.0 -25.85 -8.4 -25.8 -8.35 -26.6 -7.95 -28.7 -7.55 -28.6 Q-7.05 -28.25 -6.5 -26.7 -6.25 -26.05 -6.15 -25.4 M-22.0 -18.95 L-22.0 -20.45 Q-21.6 -20.4 -21.1 -19.2 L-20.65 -18.05 Q-21.25 -18.9 -22.0 -18.95 M-17.8 -22.6 Q-18.45 -23.05 -18.95 -23.1 L-19.15 -23.1 -19.3 -23.15 -19.25 -23.3 -18.7 -24.7 -18.55 -24.75 -17.95 -24.1 Q-17.7 -23.55 -17.75 -22.85 L-17.8 -22.6 M-20.45 -14.1 L-19.95 -15.85 -19.45 -16.0 -19.35 -16.0 Q-18.9 -15.75 -18.75 -14.6 L-18.6 -13.3 Q-19.25 -14.0 -20.35 -14.1 L-20.45 -14.1 M-9.1 -16.9 L-9.15 -16.85 -9.2 -16.15 -9.85 -17.25 Q-10.85 -19.05 -11.35 -19.1 L-11.9 -19.05 -11.25 -21.35 -10.85 -21.55 -10.7 -21.5 Q-10.1 -21.25 -9.55 -19.6 -9.05 -18.0 -9.1 -16.9 M-9.15 -12.6 L-9.05 -12.85 -8.1 -14.4 -7.3 -13.05 Q-6.85 -11.7 -6.95 -10.9 L-7.1 -10.25 -7.6 -11.15 Q-8.4 -12.4 -8.95 -12.55 L-9.05 -12.55 -9.15 -12.6 M-14.6 -15.1 Q-13.85 -14.85 -13.6 -13.3 -13.45 -12.45 -13.45 -11.6 L-13.7 -11.85 -14.9 -12.95 -15.3 -13.1 -15.5 -13.1 -15.25 -13.85 -14.6 -15.1 M-16.7 -20.9 Q-16.15 -20.6 -15.75 -19.5 -15.5 -18.55 -15.55 -17.75 L-15.8 -18.1 Q-16.55 -19.0 -17.25 -19.05 L-17.5 -19.1 -17.6 -19.05 -17.6 -19.25 -17.15 -20.95 -17.0 -21.0 -16.7 -20.9 M-6.1 -7.85 L-5.9 -7.9 -5.65 -7.8 Q-5.25 -7.5 -5.0 -6.3 -4.7 -5.0 -4.8 -4.3 L-4.95 -3.95 -5.1 -3.65 -6.1 -2.4 -6.2 -2.3 Q-6.05 -2.65 -6.05 -3.05 -6.0 -3.85 -6.3 -4.45 -6.7 -5.2 -7.55 -5.3 L-7.85 -5.3 -6.1 -7.85 M-11.25 -5.15 L-11.6 -5.65 Q-12.55 -7.3 -13.25 -7.35 L-13.3 -7.35 -12.75 -8.9 -12.55 -8.95 -12.45 -8.95 Q-12.2 -8.9 -11.7 -7.0 L-11.25 -5.15 M-18.15 -10.75 L-18.05 -10.75 Q-17.35 -10.7 -17.0 -8.9 -17.6 -9.55 -18.2 -9.65 L-18.15 -10.75" fill="#843922" fill-rule="evenodd" stroke="none"/>
      <path d="M16.85 -15.6 Q16.5 -9.2 15.15 -6.75 L15.1 -6.75 Q14.75 -6.95 14.7 -7.4 L14.75 -8.4 14.85 -9.35 15.05 -10.3 15.2 -10.6 16.85 -15.6 M13.55 -5.8 Q13.35 -4.9 12.65 -4.05 L12.15 -3.5 12.05 -4.05 12.05 -4.65 12.15 -5.25 12.2 -5.4 12.7 -6.1 13.05 -6.25 13.4 -6.4 13.55 -6.35 13.6 -6.3 13.55 -5.8 M9.35 -2.8 L8.6 -2.05 Q8.4 -6.35 10.75 -10.3 11.4 -10.05 11.8 -8.7 L12.1 -7.3 11.9 -6.65 Q11.2 -4.85 10.1 -3.6 L9.35 -2.8 M6.2 -1.25 L5.65 -0.5 5.0 -0.1 4.9 -0.15 4.9 -0.2 4.6 -0.1 4.55 -0.1 Q4.1 -1.1 4.8 -2.9 L5.35 -2.95 6.45 -2.4 6.7 -2.15 6.2 -1.25 M3.45 -0.05 Q3.3 0.5 2.45 0.55 L1.15 0.5 2.3 -1.3 2.3 -1.35 2.95 -1.75 3.05 -1.75 Q3.65 -1.6 3.5 -0.25 L3.45 -0.05 M-0.7 -0.1 Q-1.65 0.55 -2.65 0.6 -3.05 -1.85 -0.8 -5.0 L-0.45 -5.0 Q0.3 -4.9 0.65 -4.2 L0.8 -2.8 0.9 -2.0 0.9 -1.45 Q0.1 -0.6 -0.7 -0.1 M-4.35 -0.3 L-4.4 -0.25 -5.65 -0.15 -6.05 -0.2 Q-5.9 -1.1 -4.35 -2.45 L-4.1 -1.6 -4.0 -0.95 Q-4.05 -0.5 -4.35 -0.3 M-7.25 -1.5 L-8.45 -1.2 -8.85 -1.45 Q-9.0 -3.1 -7.85 -5.3 L-7.55 -5.3 Q-6.7 -5.2 -6.3 -4.45 -6.0 -3.85 -6.05 -3.05 -6.05 -2.65 -6.2 -2.3 L-7.25 -1.5 M-10.1 -2.0 L-10.15 -2.0 -10.2 -1.95 -10.35 -1.85 -10.65 -1.8 -11.05 -1.85 -10.5 -3.4 -10.25 -2.8 -10.1 -2.05 -10.1 -2.0 M-12.15 -3.25 L-13.15 -2.95 Q-14.1 -4.65 -13.3 -7.35 L-13.25 -7.35 Q-12.55 -7.3 -11.6 -5.65 L-11.25 -5.15 -11.2 -4.6 -11.2 -4.4 Q-11.25 -3.95 -11.9 -3.45 L-12.15 -3.25 M-19.75 -10.15 Q-19.85 -10.05 -20.05 -10.0 -20.8 -11.85 -20.5 -13.85 L-20.45 -14.1 -20.35 -14.1 Q-19.25 -14.0 -18.6 -13.3 L-18.6 -13.0 -18.6 -12.9 -19.05 -11.2 -19.1 -11.0 Q-19.4 -10.4 -19.75 -10.15 M-16.6 -27.0 L-15.2 -27.75 -14.85 -27.9 -14.9 -27.55 Q-14.9 -27.4 -15.05 -27.15 L-15.8 -25.7 -16.7 -23.9 -16.75 -23.75 -16.8 -23.75 -16.95 -24.85 -16.6 -27.0 M1.45 -30.35 L1.8 -30.3 Q2.9 -30.25 3.85 -29.3 L4.05 -29.15 4.55 -28.55 4.4 -28.2 4.35 -28.15 3.8 -26.8 3.45 -25.4 2.95 -24.5 2.85 -24.45 2.65 -24.4 2.6 -24.4 Q1.35 -27.6 1.45 -30.35 M8.75 -28.8 L9.45 -28.35 10.15 -27.65 10.8 -26.25 10.65 -25.65 10.0 -23.55 9.9 -23.25 Q9.05 -25.5 8.85 -27.25 L8.75 -28.8 M5.2 -25.1 L6.3 -25.3 7.0 -25.05 8.1 -24.05 8.35 -23.75 8.55 -23.1 Q7.65 -17.9 6.3 -16.45 5.65 -18.45 5.35 -20.7 5.05 -22.8 5.2 -25.1 M11.7 -24.65 L11.75 -24.65 Q12.65 -24.55 13.5 -22.95 L13.9 -22.25 13.8 -20.4 13.25 -18.15 Q12.8 -16.75 12.45 -16.5 11.15 -20.65 11.7 -24.65 M14.25 -17.7 L14.6 -17.7 Q15.45 -17.65 15.9 -16.6 L16.0 -16.35 Q15.3 -12.35 14.3 -10.3 13.4 -12.9 14.25 -17.7 M11.15 -15.4 L11.2 -14.6 Q9.7 -9.4 7.85 -8.7 L7.75 -8.95 Q7.15 -13.35 8.55 -17.05 L8.8 -17.0 Q9.95 -16.9 10.8 -15.9 L11.15 -15.4 M1.85 -23.35 L1.9 -23.0 Q1.8 -21.85 0.9 -20.35 L0.9 -20.3 -0.5 -18.0 -0.6 -17.95 -0.6 -18.0 Q-2.15 -21.95 -1.75 -25.1 L-1.45 -25.1 -1.1 -25.1 Q0.0 -24.95 1.35 -23.8 L1.85 -23.35 M-1.9 -17.2 L-1.9 -16.05 Q-2.05 -14.95 -2.95 -13.65 L-5.4 -10.7 Q-6.45 -14.7 -5.25 -18.9 L-4.35 -18.95 -4.3 -18.95 Q-2.85 -18.75 -1.9 -17.2 M1.8 -17.8 L2.15 -17.8 2.45 -17.8 Q3.25 -17.7 3.85 -16.9 L4.35 -16.1 4.6 -15.65 Q3.8 -11.15 1.65 -10.7 L1.5 -13.35 Q1.45 -15.65 1.8 -17.8 M6.8 -7.85 Q5.9 -4.35 3.35 -4.15 3.15 -6.95 3.9 -9.65 L4.5 -9.65 Q6.1 -9.5 6.8 -7.85 M-2.3 -11.85 Q-1.75 -11.75 -1.15 -11.25 L-0.7 -10.75 Q-0.25 -10.3 -0.1 -9.65 L0.1 -8.6 -0.2 -7.85 -1.05 -6.5 -2.15 -5.3 -3.15 -4.6 -3.7 -4.5 Q-3.75 -8.45 -2.3 -11.85 M4.9 -0.2 L5.0 -0.2 5.65 -0.5 5.0 -0.2 4.9 -0.2 M-11.05 -29.05 L-10.95 -29.1 -10.7 -29.2 -9.4 -29.35 -9.3 -29.35 -9.0 -29.3 -9.2 -28.65 Q-9.75 -27.0 -10.35 -26.15 L-10.95 -25.6 Q-11.3 -27.45 -11.05 -29.05 M-14.05 -25.4 L-13.15 -25.55 Q-12.65 -25.5 -11.9 -24.65 L-11.6 -24.25 -11.6 -24.0 Q-11.7 -23.15 -12.35 -21.7 L-12.9 -20.75 -13.5 -19.85 -14.05 -19.25 -14.6 -19.35 Q-14.95 -22.05 -14.3 -24.5 L-14.05 -25.4 M-4.65 -30.85 L-4.55 -30.85 -4.3 -30.8 -2.9 -29.85 -2.5 -29.15 -2.9 -27.9 -3.0 -27.65 Q-3.6 -26.15 -4.0 -25.8 -4.85 -28.65 -4.65 -30.85 M-8.4 -25.8 L-8.0 -25.85 -7.3 -25.8 -6.15 -25.4 -5.95 -24.15 -5.95 -23.55 -6.1 -22.1 -6.45 -20.45 Q-7.0 -18.7 -8.2 -18.35 -8.8 -22.15 -8.4 -25.8 M-19.45 -19.05 Q-19.85 -21.05 -19.3 -23.15 L-19.15 -23.1 -18.95 -23.1 Q-18.45 -23.05 -17.8 -22.6 -17.9 -21.9 -18.35 -21.1 L-18.4 -21.0 -19.45 -19.05 M-20.65 -18.05 L-20.65 -18.0 -20.6 -17.55 Q-20.7 -16.65 -21.25 -15.9 L-21.3 -15.8 -22.8 -14.4 Q-22.25 -16.3 -22.05 -18.1 L-22.0 -18.95 Q-21.25 -18.9 -20.65 -18.05 M-11.9 -19.05 L-11.35 -19.1 Q-10.85 -19.05 -9.85 -17.25 L-9.2 -16.15 -9.85 -14.6 -10.1 -14.15 -11.8 -11.95 Q-12.3 -14.05 -11.9 -19.05 M-7.1 -10.25 L-7.25 -9.7 -8.05 -7.75 Q-9.1 -5.75 -10.15 -5.7 -10.7 -9.35 -9.15 -12.6 L-9.05 -12.55 -8.95 -12.55 Q-8.4 -12.4 -7.6 -11.15 L-7.1 -10.25 M-13.45 -11.6 L-13.55 -10.9 -13.55 -10.75 Q-13.7 -9.95 -14.5 -8.9 -15.15 -8.05 -15.5 -7.9 -16.25 -10.7 -15.5 -13.1 L-15.3 -13.1 -14.9 -12.95 -13.7 -11.85 -13.45 -11.6 M-17.6 -19.05 L-17.5 -19.1 -17.25 -19.05 Q-16.55 -19.0 -15.8 -18.1 L-15.55 -17.75 -15.55 -17.45 -15.6 -17.35 -16.15 -16.05 -16.4 -15.55 Q-17.1 -14.2 -17.6 -14.1 L-17.75 -14.05 -17.95 -14.35 Q-18.05 -16.75 -17.6 -19.05 M-17.0 -8.9 L-16.95 -8.75 Q-16.7 -7.3 -16.8 -6.4 L-16.8 -6.25 -16.85 -6.1 Q-18.15 -7.45 -18.2 -9.25 L-18.2 -9.65 Q-17.6 -9.55 -17.0 -8.9" fill="#a24a32" fill-rule="evenodd" stroke="none"/>
      <path d="M-0.3 -30.25 L-0.25 -29.9 0.15 -28.9 -2.3 -29.7 Q-2.25 -30.3 -2.9 -30.95 L-3.25 -31.25 -0.3 -30.25 M4.45 -30.75 L7.05 -29.7 7.0 -29.6 7.1 -29.15 7.6 -28.05 5.75 -27.85 7.6 -28.05 7.6 -28.0 8.3 -26.6 8.35 -26.45 8.75 -24.6 Q9.05 -23.6 9.9 -23.25 L10.0 -23.55 10.65 -25.65 10.8 -26.25 11.05 -27.25 11.9 -25.9 Q11.55 -25.85 11.4 -25.4 L11.2 -24.55 11.15 -24.3 10.6 -23.25 10.6 -23.1 10.2 -22.1 10.95 -19.25 11.05 -19.05 Q11.9 -16.5 12.3 -16.45 L12.45 -16.5 Q12.8 -16.75 13.25 -18.15 L13.8 -20.4 13.9 -22.25 13.75 -23.45 13.7 -23.85 14.9 -20.85 13.65 -17.45 13.4 -16.65 12.65 -14.55 11.2 -14.6 11.15 -15.4 Q11.05 -18.25 9.75 -19.45 L11.05 -19.05 9.75 -19.45 Q8.6 -18.55 7.8 -17.0 L7.6 -16.5 6.0 -16.15 7.6 -16.5 7.1 -15.25 4.6 -15.65 4.35 -18.0 Q3.85 -19.95 2.65 -21.15 L4.2 -20.6 4.8 -19.25 6.0 -16.15 6.3 -16.45 Q7.65 -17.9 8.55 -23.1 L8.35 -23.75 7.6 -25.8 Q6.7 -27.8 5.75 -27.85 L5.35 -27.85 4.9 -27.1 3.85 -24.85 2.95 -24.5 3.85 -24.85 3.6 -24.1 3.4 -23.4 1.85 -23.35 0.95 -25.9 Q0.0 -27.55 -0.6 -27.8 L0.9 -27.45 2.4 -24.5 2.45 -24.5 2.6 -24.4 2.65 -24.4 2.85 -24.45 2.95 -24.5 3.45 -25.4 3.8 -26.8 4.35 -28.15 4.4 -28.2 4.55 -28.55 4.8 -29.45 Q4.9 -30.25 4.45 -30.75 M-22.0 -20.45 L-20.75 -20.75 -20.55 -20.15 Q-20.1 -19.15 -19.45 -19.05 L-18.3 -19.25 -18.5 -18.65 -19.05 -17.45 -20.6 -17.55 -20.65 -18.0 -20.65 -18.05 -21.1 -19.2 Q-21.6 -20.4 -22.0 -20.45 M-18.55 -24.75 L-17.55 -24.7 -16.8 -23.75 -16.75 -23.75 -16.7 -23.9 -15.8 -25.7 -15.05 -27.15 Q-14.9 -27.4 -14.9 -27.55 L-14.85 -27.9 -12.0 -27.95 -11.5 -26.75 -13.35 -27.1 -11.5 -26.75 -10.95 -25.6 -10.35 -26.15 Q-9.75 -27.0 -9.2 -28.65 L-9.0 -29.3 -8.9 -30.0 -6.15 -29.6 -5.55 -28.0 -5.45 -27.8 -5.35 -27.5 Q-4.5 -25.65 -4.25 -25.65 L-4.2 -25.65 -2.3 -25.65 -2.75 -24.7 -3.15 -24.0 -5.95 -24.15 -6.15 -25.4 Q-6.25 -26.05 -6.5 -26.7 -7.05 -28.25 -7.55 -28.6 L-7.95 -28.7 -8.65 -27.3 -9.2 -26.15 -9.4 -25.65 -9.7 -25.0 -10.0 -24.3 -10.05 -23.9 -11.6 -24.25 Q-11.65 -25.0 -12.2 -25.95 -12.8 -26.95 -13.35 -27.1 L-13.45 -27.1 Q-14.05 -27.15 -14.65 -25.8 L-15.05 -24.9 -15.15 -24.7 -15.45 -23.85 -15.8 -22.5 -17.8 -22.6 -17.75 -22.85 Q-17.7 -23.55 -17.95 -24.1 L-18.55 -24.75 M12.45 -16.5 L13.4 -16.65 12.45 -16.5 M7.75 -8.95 L7.85 -8.7 9.25 -8.85 8.1 -7.5 6.8 -7.85 Q7.1 -11.2 5.3 -12.8 L7.0 -12.3 Q7.2 -10.6 7.75 -8.95 M-0.5 -18.0 L0.9 -18.65 0.05 -16.95 -0.2 -16.4 -0.15 -15.9 -1.9 -16.05 -1.9 -17.2 -2.35 -19.35 -2.35 -19.45 Q-2.75 -20.8 -3.2 -21.4 L-3.75 -21.75 -1.9 -21.2 -1.6 -20.6 -1.3 -19.05 Q-1.1 -18.15 -0.6 -17.95 L-0.6 -17.85 -0.5 -18.0 M12.05 -12.3 L13.25 -11.8 Q13.75 -10.1 14.3 -10.3 L15.2 -10.6 15.05 -10.3 14.05 -8.15 14.0 -7.6 13.35 -6.9 11.9 -6.65 12.1 -7.3 12.7 -10.5 Q12.55 -12.0 12.05 -12.3 M3.35 -4.15 L5.45 -4.05 5.2 -3.8 5.2 -3.7 5.05 -3.6 Q4.9 -3.4 4.2 -3.05 L3.6 -2.6 1.85 -2.6 Q2.5 -5.65 1.05 -7.2 L0.8 -7.5 2.4 -7.3 Q2.7 -4.7 3.35 -4.15 M3.6 -10.85 Q2.75 -9.75 2.2 -8.65 L0.1 -8.6 0.25 -9.25 0.15 -11.5 0.0 -12.15 Q-0.3 -13.75 -0.8 -14.0 L0.15 -13.65 0.65 -12.15 Q1.1 -11.15 1.65 -10.7 L3.6 -10.85 M-1.7 -4.9 L-2.05 -4.5 -2.65 -3.9 -5.1 -3.65 -4.95 -3.95 -4.8 -4.3 Q-4.7 -5.0 -5.0 -6.3 -5.25 -7.5 -5.65 -7.8 L-4.8 -7.95 -4.5 -6.2 Q-4.15 -4.6 -3.7 -4.5 L-3.15 -4.6 -1.7 -4.9 M-10.95 -25.6 L-9.4 -25.65 -10.95 -25.6 M-14.6 -19.35 L-14.05 -19.25 -12.7 -19.45 -12.7 -19.4 -13.45 -18.0 -13.85 -17.2 -13.9 -16.95 -15.55 -17.75 Q-15.5 -18.55 -15.75 -19.5 -16.15 -20.6 -16.7 -20.9 L-15.5 -20.6 -15.15 -19.95 -14.6 -19.35 M-5.55 -28.0 L-7.55 -28.6 -5.55 -28.0 M-16.75 -23.75 L-15.45 -23.85 -16.75 -23.75 M-18.6 -13.3 L-18.75 -14.6 Q-18.9 -15.75 -19.35 -16.0 L-18.5 -15.85 -18.4 -15.55 -17.95 -14.35 -17.75 -14.05 -17.6 -14.1 -15.9 -14.3 -16.35 -13.55 -16.8 -12.75 -18.6 -12.9 -18.6 -13.0 -18.6 -13.3 M-9.2 -21.1 L-8.2 -18.35 -6.3 -18.8 -6.6 -18.2 -7.25 -16.7 -9.1 -16.9 Q-9.05 -18.0 -9.55 -19.6 -10.1 -21.25 -10.7 -21.5 L-9.2 -21.1 M-6.95 -14.3 L-5.4 -10.7 -3.9 -11.15 -4.8 -9.4 -7.25 -9.7 -7.1 -10.25 -6.95 -10.9 Q-6.85 -11.7 -7.3 -13.05 L-8.1 -14.4 -6.95 -14.3 M-11.8 -11.95 L-10.6 -12.15 -10.75 -11.95 -11.65 -10.45 -13.55 -10.75 -13.55 -10.9 -13.45 -11.6 Q-13.45 -12.45 -13.6 -13.3 -13.85 -14.85 -14.6 -15.1 L-13.4 -14.9 -13.0 -13.9 -12.7 -12.7 Q-12.35 -11.9 -11.8 -11.95 M-11.4 -8.95 L-11.05 -7.75 -10.25 -5.7 -10.15 -5.7 -8.75 -5.6 -9.35 -5.05 -9.9 -4.45 -11.2 -4.4 -11.2 -4.6 -11.25 -5.15 -11.7 -7.0 Q-12.2 -8.9 -12.45 -8.95 L-11.4 -8.95" fill="#231303" fill-rule="evenodd" stroke="none"/>
      <path d="M-0.25 -29.9 L0.45 -30.2 1.45 -30.35 Q1.35 -27.6 2.6 -24.4 L2.45 -24.5 2.4 -24.5 0.9 -27.45 0.8 -27.6 0.15 -28.9 -0.25 -29.9 M15.1 -6.75 L14.4 -6.8 Q14.05 -7.0 14.0 -7.6 L14.05 -8.15 15.05 -10.3 14.85 -9.35 14.75 -8.4 14.7 -7.4 Q14.75 -6.95 15.1 -6.75 M12.15 -3.5 L10.9 -2.5 10.6 -2.55 10.65 -3.1 10.85 -3.45 12.2 -5.4 12.15 -5.25 12.05 -4.65 12.05 -4.05 12.15 -3.5 M8.6 -2.05 Q8.25 -2.15 8.1 -2.6 7.8 -3.3 7.9 -4.85 L7.9 -5.3 8.1 -7.5 9.25 -8.85 10.25 -10.4 10.4 -10.4 10.75 -10.3 Q8.4 -6.35 8.6 -2.05 M1.15 0.5 L-0.05 0.3 Q0.55 0.3 1.7 -0.8 L2.3 -1.3 1.15 0.5 M-2.65 0.6 L-3.15 -0.65 Q-3.4 -1.6 -3.3 -2.8 L-3.2 -3.3 -2.65 -3.9 -2.05 -4.5 -1.55 -4.75 -0.8 -5.0 Q-3.05 -1.85 -2.65 0.6 M-6.05 -0.2 Q-6.9 -0.4 -6.85 -0.85 L-5.65 -1.75 -4.35 -2.45 Q-5.9 -1.1 -6.05 -0.2 M-8.85 -1.45 L-9.55 -2.25 -9.55 -2.3 Q-10.15 -3.3 -10.1 -4.15 L-9.9 -4.45 -9.35 -5.05 -8.6 -5.25 -7.85 -5.3 Q-9.0 -3.1 -8.85 -1.45 M-11.05 -1.85 Q-11.65 -2.1 -11.45 -2.8 L-11.1 -3.35 -11.0 -3.5 -10.75 -3.6 -10.5 -3.4 -11.05 -1.85 M-13.15 -2.95 L-13.25 -2.95 Q-13.8 -3.1 -14.4 -3.9 -15.05 -4.75 -14.95 -5.75 L-14.3 -7.15 -13.3 -7.35 Q-14.1 -4.65 -13.15 -2.95 M-16.85 -6.1 L-17.45 -6.15 -18.9 -7.6 Q-19.65 -8.5 -19.45 -9.15 L-19.25 -9.55 -18.45 -9.7 -18.35 -9.7 -18.2 -9.65 -18.2 -9.25 Q-18.15 -7.45 -16.85 -6.1 M-20.05 -10.0 L-20.25 -10.05 Q-20.95 -10.1 -21.5 -11.55 L-22.1 -13.4 -21.7 -13.85 -21.5 -13.95 -20.6 -14.1 -20.45 -14.1 -20.5 -13.85 Q-20.8 -11.85 -20.05 -10.0 M-22.8 -14.4 L-23.25 -15.8 -23.15 -17.25 -22.95 -18.6 -22.75 -18.85 -22.3 -18.95 -22.05 -18.95 -22.0 -18.95 -22.05 -18.1 Q-22.25 -16.3 -22.8 -14.4 M-20.75 -20.75 L-20.8 -22.0 -20.65 -22.5 -20.2 -22.8 -19.65 -23.1 -19.3 -23.15 Q-19.85 -21.05 -19.45 -19.05 -20.1 -19.15 -20.55 -20.15 L-20.75 -20.75 M-17.55 -24.7 L-17.8 -25.4 -17.35 -26.35 -16.85 -26.85 -16.6 -27.0 -16.95 -24.85 -16.8 -23.75 -17.55 -24.7 M-12.0 -27.95 L-12.0 -28.3 -11.9 -28.6 -11.05 -29.05 Q-11.3 -27.45 -10.95 -25.6 L-11.5 -26.75 -12.0 -27.95 M-6.15 -29.6 L-6.15 -29.85 -6.05 -30.05 -5.9 -30.55 -5.55 -30.7 -4.65 -30.85 Q-4.85 -28.65 -4.0 -25.8 -4.1 -25.65 -4.2 -25.65 L-4.25 -25.65 Q-4.5 -25.65 -5.35 -27.5 L-5.45 -27.8 -5.55 -28.0 -6.15 -29.6 M7.6 -28.05 L7.1 -29.15 7.45 -29.15 8.75 -28.8 8.85 -27.25 Q9.05 -25.5 9.9 -23.25 9.05 -23.6 8.75 -24.6 L8.35 -26.45 8.3 -26.6 7.6 -28.0 7.6 -28.05 M11.2 -24.55 L11.35 -24.65 11.7 -24.65 Q11.15 -20.65 12.45 -16.5 L12.3 -16.45 Q11.9 -16.5 11.05 -19.05 L10.95 -19.25 10.2 -22.1 10.6 -23.1 10.6 -23.25 11.15 -24.3 11.2 -24.55 M13.4 -16.65 L13.65 -17.45 13.9 -17.6 14.25 -17.7 Q13.4 -12.9 14.3 -10.3 13.75 -10.1 13.25 -11.8 L12.65 -14.55 13.4 -16.65 M6.3 -16.45 L6.0 -16.15 4.8 -19.25 4.2 -20.6 3.15 -22.65 3.4 -23.4 3.6 -24.1 5.2 -25.1 Q5.05 -22.8 5.35 -20.7 5.65 -18.45 6.3 -16.45 M7.6 -16.5 L7.8 -17.0 7.9 -17.0 8.55 -17.05 Q7.15 -13.35 7.75 -8.95 7.2 -10.6 7.0 -12.3 L6.9 -14.6 7.1 -15.25 7.6 -16.5 M-1.75 -25.1 Q-2.15 -21.95 -0.6 -18.0 L-0.6 -17.95 Q-1.1 -18.15 -1.3 -19.05 L-1.6 -20.6 -1.9 -21.2 -2.45 -22.3 -3.15 -24.0 -2.75 -24.7 -2.5 -24.85 -1.75 -25.1 M-0.15 -15.9 L-0.2 -16.4 0.05 -16.95 0.6 -17.4 1.8 -17.8 Q1.45 -15.65 1.5 -13.35 L1.65 -10.7 Q1.1 -11.15 0.65 -12.15 L0.15 -13.65 -0.15 -15.9 M2.2 -8.65 L3.1 -9.35 3.9 -9.65 Q3.15 -6.95 3.35 -4.15 2.7 -4.7 2.4 -7.3 L2.2 -8.65 M-15.15 -24.7 L-14.5 -25.15 -14.4 -25.2 -14.05 -25.4 -14.3 -24.5 Q-14.95 -22.05 -14.6 -19.35 L-15.15 -19.95 -15.5 -20.6 -15.7 -21.2 -15.85 -22.25 -15.8 -22.5 -15.45 -23.85 -15.15 -24.7 M-10.05 -23.9 L-10.0 -24.3 -9.7 -25.0 -9.0 -25.65 -8.4 -25.8 Q-8.8 -22.15 -8.2 -18.35 L-9.2 -21.1 -9.4 -21.65 -9.4 -21.7 -10.1 -23.65 -10.05 -23.9 M-19.05 -17.45 L-18.5 -18.65 -18.25 -18.8 -17.6 -19.05 Q-18.05 -16.75 -17.95 -14.35 L-18.4 -15.55 -18.5 -15.85 -19.05 -17.45 M-6.6 -18.2 L-6.1 -18.55 -5.25 -18.9 Q-6.45 -14.7 -5.4 -10.7 L-6.95 -14.3 Q-7.4 -15.6 -7.3 -16.3 L-7.25 -16.7 -6.6 -18.2 M-3.9 -11.15 L-3.6 -11.65 -3.6 -11.7 -3.3 -11.9 -2.6 -11.95 -2.3 -11.85 Q-3.75 -8.45 -3.7 -4.5 -4.15 -4.6 -4.5 -6.2 L-4.8 -7.95 -4.95 -8.45 -4.8 -9.4 -3.9 -11.15 M-10.75 -11.95 L-10.25 -12.25 -9.6 -12.55 -9.15 -12.6 Q-10.7 -9.35 -10.15 -5.7 L-10.25 -5.7 -11.05 -7.75 -11.4 -8.95 -11.7 -10.2 -11.65 -10.45 -10.75 -11.95 M-13.45 -18.0 L-12.4 -18.8 -11.9 -19.05 Q-12.3 -14.05 -11.8 -11.95 -12.35 -11.9 -12.7 -12.7 L-13.0 -13.9 -13.4 -14.9 -13.55 -15.3 Q-14.05 -16.4 -13.95 -16.8 L-13.9 -16.95 -13.85 -17.2 -13.45 -18.0 M-16.8 -12.75 L-15.5 -13.1 Q-16.25 -10.7 -15.5 -7.9 L-15.6 -7.85 -15.75 -7.9 Q-16.1 -8.05 -16.7 -9.6 L-17.1 -10.9 -17.2 -11.8 -16.8 -12.75" fill="#e19160" fill-rule="evenodd" stroke="none"/>
      <path d="M15.95 -18.7 L16.85 -15.6 15.2 -10.6 14.3 -10.3 Q15.3 -12.35 16.0 -16.35 L16.1 -16.8 15.95 -18.7 M14.4 -6.8 L13.55 -5.8 13.6 -6.3 13.55 -6.35 13.4 -6.4 13.05 -6.25 12.7 -6.1 12.2 -5.4 10.85 -3.45 9.35 -2.8 10.1 -3.6 Q11.2 -4.85 11.9 -6.65 L13.35 -6.9 14.0 -7.6 Q14.05 -7.0 14.4 -6.8 M8.1 -2.6 L6.2 -1.25 6.7 -2.15 6.95 -2.85 6.85 -3.95 6.65 -5.0 Q6.15 -5.0 5.75 -4.55 L5.45 -4.05 3.35 -4.15 Q5.9 -4.35 6.8 -7.85 L8.1 -7.5 7.9 -5.3 7.9 -4.85 6.65 -5.0 7.9 -4.85 Q7.8 -3.3 8.1 -2.6 M4.2 -0.45 L3.45 -0.05 3.5 -0.25 Q3.65 -1.6 3.05 -1.75 L2.95 -1.75 2.3 -1.35 -0.7 -0.1 Q0.1 -0.6 0.9 -1.45 L1.85 -2.6 3.6 -2.6 3.55 -2.4 3.65 -1.9 3.05 -1.75 3.65 -1.9 3.85 -1.1 4.2 -0.45 M-3.15 -0.65 L-4.35 -0.3 Q-4.05 -0.5 -4.0 -0.95 L-4.1 -1.6 -4.35 -2.45 -3.3 -2.8 -4.35 -2.45 -5.65 -1.75 -6.7 -1.6 -6.3 -2.1 -6.2 -2.3 -6.1 -2.4 -5.1 -3.65 -2.65 -3.9 -3.2 -3.3 -3.3 -2.8 Q-3.4 -1.6 -3.15 -0.65 M-9.55 -2.3 L-10.1 -2.0 -10.1 -2.05 -10.25 -2.8 -10.5 -3.4 -10.75 -3.6 -11.0 -3.5 -12.15 -3.25 -11.9 -3.45 Q-11.25 -3.95 -11.2 -4.4 L-9.9 -4.45 -10.1 -4.15 Q-10.15 -3.3 -9.55 -2.3 M-14.0 -7.6 L-16.85 -6.1 -16.8 -6.25 -16.8 -6.4 Q-16.7 -7.3 -16.95 -8.75 L-17.0 -8.9 Q-17.35 -10.7 -18.05 -10.75 L-18.15 -10.75 -18.25 -10.75 -18.75 -10.35 -18.9 -10.1 -19.75 -10.15 Q-19.4 -10.4 -19.1 -11.0 L-19.05 -11.2 -18.6 -12.9 -16.8 -12.75 -17.2 -11.8 -17.1 -10.9 -16.7 -9.6 Q-16.1 -8.05 -15.75 -7.9 L-15.6 -7.85 -15.5 -7.9 Q-15.15 -8.05 -14.5 -8.9 -13.7 -9.95 -13.55 -10.75 L-11.65 -10.45 -11.7 -10.2 -11.4 -8.95 -12.45 -8.95 -12.55 -8.95 -12.75 -8.9 -13.4 -8.35 -13.85 -7.75 -13.9 -7.65 -13.95 -7.65 -14.0 -7.6 M-21.45 -14.3 L-22.8 -14.4 -21.3 -15.8 -21.25 -15.9 Q-20.7 -16.65 -20.6 -17.55 L-19.05 -17.45 -18.5 -15.85 -19.35 -16.0 -19.45 -16.0 -19.95 -15.85 -20.9 -14.9 -20.9 -14.85 -21.45 -14.3 M0.15 -28.9 L0.8 -27.6 0.9 -27.45 -0.6 -27.8 -0.65 -27.8 -0.75 -27.85 -1.05 -27.55 -2.0 -26.1 -2.3 -25.65 -4.2 -25.65 Q-4.1 -25.65 -4.0 -25.8 -3.6 -26.15 -3.0 -27.65 L-2.9 -27.9 -2.5 -29.15 -2.3 -29.7 0.15 -28.9 M11.2 -14.6 L12.65 -14.55 13.25 -11.8 12.05 -12.3 12.0 -12.35 11.35 -12.25 10.25 -10.4 9.25 -8.85 7.85 -8.7 Q9.7 -9.4 11.2 -14.6 M3.4 -23.4 L3.15 -22.65 4.2 -20.6 2.65 -21.15 1.35 -19.35 0.9 -18.65 -0.5 -18.0 0.9 -20.3 0.9 -20.35 Q1.8 -21.85 1.9 -23.0 L1.85 -23.35 3.4 -23.4 M-1.9 -21.2 L-3.75 -21.75 -3.8 -21.75 -3.8 -21.8 -3.85 -21.8 -4.25 -21.7 -5.3 -20.65 -6.05 -19.25 -6.3 -18.8 -8.2 -18.35 Q-7.0 -18.7 -6.45 -20.45 L-6.1 -22.1 -5.95 -23.55 -5.95 -24.15 -3.15 -24.0 -2.45 -22.3 -1.9 -21.2 M-1.9 -16.05 L-0.15 -15.9 0.15 -13.65 -0.8 -14.0 -0.9 -14.05 -1.0 -14.05 -1.2 -14.05 Q-2.2 -13.9 -3.6 -11.7 L-3.6 -11.65 -3.9 -11.15 -5.4 -10.7 -2.95 -13.65 Q-2.05 -14.95 -1.9 -16.05 M1.65 -10.7 Q3.8 -11.15 4.6 -15.65 L7.1 -15.25 6.9 -14.6 7.0 -12.3 5.3 -12.8 5.05 -12.6 3.6 -10.85 1.65 -10.7 M2.2 -8.65 L2.4 -7.3 0.8 -7.5 -1.7 -4.9 -3.15 -4.6 -2.15 -5.3 -1.05 -6.5 -0.2 -7.85 0.1 -8.6 2.2 -8.65 M6.9 -2.0 L6.95 -1.85 7.0 -1.85 6.9 -2.0 M13.35 -6.9 L12.7 -6.1 13.35 -6.9 M-11.6 -24.25 L-10.05 -23.9 -10.1 -23.65 -9.4 -21.7 -9.4 -21.65 -9.2 -21.1 -10.7 -21.5 -10.85 -21.55 -11.25 -21.35 -12.45 -19.8 -12.7 -19.45 -14.05 -19.25 -13.5 -19.85 -12.9 -20.75 -12.35 -21.7 Q-11.7 -23.15 -11.6 -24.0 L-11.6 -24.25 M-18.3 -19.25 L-19.45 -19.05 -18.4 -21.0 -18.35 -21.1 Q-17.9 -21.9 -17.8 -22.6 L-15.8 -22.5 -15.85 -22.25 -15.7 -21.2 -15.5 -20.6 -16.7 -20.9 -17.0 -21.0 -17.15 -20.95 -17.9 -20.05 -18.05 -19.7 -18.3 -19.25 M-7.25 -16.7 L-7.3 -16.3 Q-7.4 -15.6 -6.95 -14.3 L-8.1 -14.4 -8.4 -14.5 -9.35 -13.65 -10.15 -12.65 -10.6 -12.15 -11.8 -11.95 -10.1 -14.15 -9.85 -14.6 -9.2 -16.15 -9.15 -16.85 -9.1 -16.9 -7.25 -16.7 M-7.25 -9.7 L-4.8 -9.4 -4.95 -8.45 -4.8 -7.95 -5.65 -7.8 -5.9 -7.9 -6.1 -7.85 -8.15 -6.15 -8.75 -5.6 -10.15 -5.7 Q-9.1 -5.75 -8.05 -7.75 L-7.25 -9.7 M-13.4 -14.9 L-14.6 -15.1 -14.7 -15.1 -14.8 -15.1 -15.6 -14.65 -15.9 -14.3 -17.6 -14.1 Q-17.1 -14.2 -16.4 -15.55 L-16.15 -16.05 -15.6 -17.35 -15.55 -17.45 -15.55 -17.75 -13.9 -16.95 -13.95 -16.8 Q-14.05 -16.4 -13.55 -15.3 L-13.4 -14.9 M-13.4 -8.35 L-15.5 -7.9 -13.4 -8.35 M-17.1 -10.9 L-18.15 -10.75 -17.1 -10.9 M-6.75 -9.55 L-6.7 -9.45 -6.7 -9.55 -6.75 -9.55" fill="#411e08" fill-rule="evenodd" stroke="none"/>
      <path d="M4.55 -0.1 L4.2 -0.45 3.85 -1.1 3.65 -1.9 3.55 -2.4 3.6 -2.6 4.25 -2.8 4.8 -2.9 Q4.1 -1.1 4.55 -0.1" fill="#e59073" fill-rule="evenodd" stroke="none"/>
      <path d="M1.5 -31.65 L0.45 -31.35 Q-0.25 -30.95 -0.3 -30.25 L-0.25 -29.9 M1.5 -31.65 L1.8 -31.65 2.9 -31.5 3.85 -31.25 4.45 -30.75 7.05 -29.7 7.25 -29.9 7.75 -30.05 Q8.15 -30.0 8.8 -29.55 L9.75 -28.85 Q11.05 -27.75 11.05 -27.25 L11.9 -25.9 12.05 -25.95 Q13.25 -25.8 13.7 -23.85 L14.9 -20.85 Q15.6 -20.3 15.95 -18.7 L16.85 -15.6 Q16.5 -9.2 15.15 -6.75 L15.1 -6.75 14.4 -6.8 13.55 -5.8 Q13.35 -4.9 12.65 -4.05 L12.15 -3.5 10.9 -2.5 10.6 -2.55 10.65 -3.1 10.85 -3.45 9.35 -2.8 8.6 -2.05 Q8.25 -2.15 8.1 -2.6 L6.2 -1.25 5.65 -0.5 5.0 -0.1 4.9 -0.15 4.9 -0.2 4.6 -0.1 4.55 -0.1 4.2 -0.45 3.45 -0.05 Q3.3 0.5 2.45 0.55 L1.15 0.5 -0.05 0.3 Q0.55 0.3 1.7 -0.8 L2.3 -1.3 2.3 -1.35 -0.7 -0.1 Q-1.65 0.55 -2.65 0.6 L-3.15 -0.65 -4.35 -0.3 -4.4 -0.25 -5.65 -0.15 -6.05 -0.2 Q-6.9 -0.4 -6.85 -0.85 L-5.65 -1.75 -6.7 -1.6 -7.25 -1.5 -8.45 -1.2 -8.85 -1.45 -9.55 -2.25 -9.55 -2.3 -10.1 -2.0 -10.15 -2.0 -10.2 -1.95 -10.35 -1.85 -10.65 -1.8 -11.05 -1.85 Q-11.65 -2.1 -11.45 -2.8 L-11.1 -3.35 -11.0 -3.5 -12.15 -3.25 -13.15 -2.95 -13.25 -2.95 Q-13.8 -3.1 -14.4 -3.9 -15.05 -4.75 -14.95 -5.75 L-14.3 -7.15 -14.0 -7.6 -16.85 -6.1 -17.45 -6.15 -18.9 -7.6 Q-19.65 -8.5 -19.45 -9.15 L-19.25 -9.55 -18.9 -10.1 -19.75 -10.15 Q-19.85 -10.05 -20.05 -10.0 L-20.25 -10.05 Q-20.95 -10.1 -21.5 -11.55 L-22.1 -13.4 -21.7 -13.85 -21.45 -14.3 -22.8 -14.4 -23.25 -15.8 -23.15 -17.25 -22.95 -18.6 -22.85 -19.05 -22.55 -19.9 -22.2 -20.4 -22.0 -20.45 -20.75 -20.75 -20.8 -22.0 -20.65 -22.5 -20.0 -23.5 -19.55 -24.15 Q-19.05 -24.7 -18.7 -24.7 L-18.6 -24.75 -18.55 -24.75 -17.55 -24.7 -17.8 -25.4 -17.35 -26.35 -16.85 -26.85 -16.6 -27.0 -15.2 -27.75 -14.85 -27.9 -12.0 -27.95 -12.0 -28.3 -11.9 -28.6 -11.05 -29.5 -11.0 -29.5 -10.95 -29.55 -10.95 -29.6 Q-10.25 -30.05 -9.65 -30.1 L-9.4 -30.15 -9.15 -30.05 -8.9 -30.0 -6.15 -29.6 -6.15 -29.85 -6.05 -30.05 -5.9 -30.55 -5.45 -31.0 -4.65 -31.45 -4.55 -31.5 -3.85 -31.55 -3.25 -31.25 -0.3 -30.25 M4.55 -28.55 L4.8 -29.45 Q4.9 -30.25 4.45 -30.75 M4.55 -28.55 L4.4 -28.2 4.35 -28.15 3.8 -26.8 3.45 -25.4 2.95 -24.5 3.85 -24.85 4.9 -27.1 5.35 -27.85 5.75 -27.85 7.6 -28.05 7.1 -29.15 7.0 -29.6 7.05 -29.7 M0.15 -28.9 L0.8 -27.6 0.9 -27.45 2.4 -24.5 2.45 -24.5 2.6 -24.4 2.65 -24.4 2.85 -24.45 2.95 -24.5 M9.9 -23.25 Q9.05 -23.6 8.75 -24.6 L8.35 -26.45 8.3 -26.6 7.6 -28.0 7.6 -28.05 M10.8 -26.25 L11.05 -27.25 M9.9 -23.25 L10.0 -23.55 10.65 -25.65 10.8 -26.25 M8.35 -23.75 L7.6 -25.8 Q6.7 -27.8 5.75 -27.85 M11.2 -24.55 L11.4 -25.4 Q11.55 -25.85 11.9 -25.9 M13.9 -22.25 L13.75 -23.45 13.7 -23.85 M12.45 -16.5 Q12.8 -16.75 13.25 -18.15 L13.8 -20.4 13.9 -22.25 M11.05 -19.05 L10.95 -19.25 10.2 -22.1 10.6 -23.1 10.6 -23.25 11.15 -24.3 11.2 -24.55 M13.4 -16.65 L13.65 -17.45 14.9 -20.85 M16.0 -16.35 L16.1 -16.8 15.95 -18.7 M14.3 -10.3 Q15.3 -12.35 16.0 -16.35 M12.45 -16.5 L12.3 -16.45 Q11.9 -16.5 11.05 -19.05 L9.75 -19.45 Q11.05 -18.25 11.15 -15.4 L11.2 -14.6 M12.65 -14.55 L13.4 -16.65 12.45 -16.5 M8.35 -23.75 L8.55 -23.1 Q7.65 -17.9 6.3 -16.45 L6.0 -16.15 7.6 -16.5 7.8 -17.0 Q8.6 -18.55 9.75 -19.45 M7.75 -8.95 L7.85 -8.7 Q9.7 -9.4 11.2 -14.6 M4.2 -20.6 L3.15 -22.65 3.4 -23.4 3.6 -24.1 3.85 -24.85 M1.85 -23.35 L1.9 -23.0 Q1.8 -21.85 0.9 -20.35 L0.9 -20.3 -0.5 -18.0 0.9 -18.65 1.35 -19.35 2.65 -21.15 4.2 -20.6 4.8 -19.25 6.0 -16.15 M1.85 -23.35 L0.95 -25.9 Q0.0 -27.55 -0.6 -27.8 L-0.65 -27.8 -0.75 -27.85 -1.05 -27.55 -2.0 -26.1 -2.3 -25.65 -2.75 -24.7 -3.15 -24.0 -2.45 -22.3 -1.9 -21.2 -3.75 -21.75 -3.2 -21.4 Q-2.75 -20.8 -2.35 -19.45 L-2.35 -19.35 -1.9 -17.2 -1.9 -16.05 M-0.6 -18.0 L-0.6 -17.95 -0.5 -18.0 -0.6 -17.85 -0.6 -17.95 Q-1.1 -18.15 -1.3 -19.05 L-1.6 -20.6 -1.9 -21.2 M-0.15 -15.9 L-0.2 -16.4 0.05 -16.95 0.9 -18.65 M4.6 -15.65 L4.35 -18.0 Q3.85 -19.95 2.65 -21.15 M1.65 -10.7 Q3.8 -11.15 4.6 -15.65 M7.1 -15.25 L7.6 -16.5 M7.0 -12.3 L6.9 -14.6 7.1 -15.25 M5.05 -12.6 L5.3 -12.8 7.0 -12.3 Q7.2 -10.6 7.75 -8.95 M9.25 -8.85 L7.85 -8.7 M8.1 -7.5 L9.25 -8.85 10.25 -10.4 11.35 -12.25 12.0 -12.35 12.05 -12.3 13.25 -11.8 12.65 -14.55 M6.8 -7.85 Q5.9 -4.35 3.35 -4.15 L5.45 -4.05 5.75 -4.55 Q6.15 -5.0 6.65 -5.0 L7.9 -4.85 7.9 -5.3 8.1 -7.5 M5.05 -12.6 L3.6 -10.85 Q2.75 -9.75 2.2 -8.65 L2.4 -7.3 Q2.7 -4.7 3.35 -4.15 M6.8 -7.85 Q7.1 -11.2 5.3 -12.8 M0.15 -13.65 L0.65 -12.15 Q1.1 -11.15 1.65 -10.7 L3.6 -10.85 M0.1 -8.6 L0.25 -9.25 0.15 -11.5 0.0 -12.15 Q-0.3 -13.75 -0.8 -14.0 L-0.9 -14.05 -1.0 -14.05 -1.2 -14.05 M1.05 -7.2 L0.8 -7.5 -1.7 -4.9 -2.05 -4.5 -2.65 -3.9 M1.05 -7.2 Q2.5 -5.65 1.85 -2.6 M3.6 -2.6 L4.2 -3.05 Q4.9 -3.4 5.05 -3.6 L5.2 -3.7 5.2 -3.8 5.45 -4.05 M0.8 -7.5 L2.4 -7.3 M0.9 -1.45 L1.85 -2.6 M0.9 -1.45 Q0.1 -0.6 -0.7 -0.1 M3.65 -1.9 L3.55 -2.4 3.6 -2.6 M3.05 -1.75 L3.65 -1.9 3.85 -1.1 4.2 -0.45 M2.3 -1.35 L2.95 -1.75 3.05 -1.75 Q3.65 -1.6 3.5 -0.25 L3.45 -0.05 M5.65 -0.5 L5.0 -0.2 4.9 -0.2 M6.7 -2.15 L6.95 -2.85 6.85 -3.95 6.65 -5.0 M6.7 -2.15 L6.2 -1.25 M8.1 -2.6 Q7.8 -3.3 7.9 -4.85 M11.9 -6.65 Q11.2 -4.85 10.1 -3.6 L9.35 -2.8 M15.05 -10.3 L14.05 -8.15 14.0 -7.6 Q14.05 -7.0 14.4 -6.8 M14.3 -10.3 Q13.75 -10.1 13.25 -11.8 M12.05 -12.3 Q12.55 -12.0 12.7 -10.5 L12.1 -7.3 11.9 -6.65 M13.35 -6.9 L14.0 -7.6 M13.55 -5.8 L13.6 -6.3 13.55 -6.35 13.4 -6.4 13.05 -6.25 12.7 -6.1 12.2 -5.4 M10.85 -3.45 L12.2 -5.4 M15.05 -10.3 L15.2 -10.6 14.3 -10.3 M12.7 -6.1 L13.35 -6.9 M15.2 -10.6 L16.85 -15.6 M-16.8 -23.75 L-16.75 -23.75 -16.7 -23.9 -15.8 -25.7 -15.05 -27.15 Q-14.9 -27.4 -14.9 -27.55 L-14.85 -27.9 M-9.0 -29.3 L-8.9 -30.0 M-10.95 -25.6 L-10.35 -26.15 Q-9.75 -27.0 -9.2 -28.65 L-9.0 -29.3 M-15.15 -24.7 L-15.05 -24.9 -14.65 -25.8 Q-14.05 -27.15 -13.45 -27.1 L-13.35 -27.1 -11.5 -26.75 -12.0 -27.95 M-13.35 -27.1 Q-12.8 -26.95 -12.2 -25.95 -11.65 -25.0 -11.6 -24.25 M-10.05 -23.9 L-10.0 -24.3 -9.7 -25.0 -9.4 -25.65 -10.95 -25.6 -11.5 -26.75 M-14.6 -19.35 L-14.05 -19.25 -13.5 -19.85 -12.9 -20.75 -12.35 -21.7 Q-11.7 -23.15 -11.6 -24.0 L-11.6 -24.25 M-2.3 -29.7 Q-2.25 -30.3 -2.9 -30.95 L-3.25 -31.25 M-2.5 -29.15 L-2.3 -29.7 M0.15 -28.9 L-0.25 -29.9 M-4.0 -25.8 Q-3.6 -26.15 -3.0 -27.65 L-2.9 -27.9 -2.5 -29.15 M-6.15 -29.6 L-5.55 -28.0 -5.45 -27.8 -5.35 -27.5 Q-4.5 -25.65 -4.25 -25.65 L-4.2 -25.65 Q-4.1 -25.65 -4.0 -25.8 M-7.55 -28.6 L-5.55 -28.0 M-6.15 -25.4 Q-6.25 -26.05 -6.5 -26.7 -7.05 -28.25 -7.55 -28.6 L-7.95 -28.7 -8.65 -27.3 -9.2 -26.15 -9.4 -25.65 M-8.2 -18.35 Q-7.0 -18.7 -6.45 -20.45 L-6.1 -22.1 -5.95 -23.55 -5.95 -24.15 -6.15 -25.4 M-4.2 -25.65 L-2.3 -25.65 M-20.75 -20.75 L-20.55 -20.15 Q-20.1 -19.15 -19.45 -19.05 L-18.4 -21.0 -18.35 -21.1 Q-17.9 -21.9 -17.8 -22.6 M-22.0 -20.45 Q-21.6 -20.4 -21.1 -19.2 L-20.65 -18.05 -20.65 -18.0 -20.6 -17.55 Q-20.7 -16.65 -21.25 -15.9 L-21.3 -15.8 -22.8 -14.4 M-19.05 -17.45 L-18.5 -18.65 -18.3 -19.25 -19.45 -19.05 M-18.7 -24.7 L-18.55 -24.75 -17.95 -24.1 Q-17.7 -23.55 -17.75 -22.85 L-17.8 -22.6 M-15.8 -22.5 L-15.45 -23.85 -16.75 -23.75 M-19.95 -15.85 L-20.9 -14.9 -20.9 -14.85 -21.45 -14.3 M-18.6 -13.3 L-18.75 -14.6 Q-18.9 -15.75 -19.35 -16.0 L-19.45 -16.0 -19.95 -15.85 M-3.75 -21.75 L-3.8 -21.75 -3.8 -21.8 -3.85 -21.8 -4.25 -21.7 M-10.05 -23.9 L-10.1 -23.65 -9.4 -21.7 -9.4 -21.65 -9.2 -21.1 -8.2 -18.35 -6.3 -18.8 -6.05 -19.25 -5.3 -20.65 -4.25 -21.7 M-5.4 -10.7 L-2.95 -13.65 Q-2.05 -14.95 -1.9 -16.05 M-6.6 -18.2 L-7.25 -16.7 -7.3 -16.3 Q-7.4 -15.6 -6.95 -14.3 L-5.4 -10.7 -3.9 -11.15 -3.6 -11.65 -3.6 -11.7 Q-2.2 -13.9 -1.2 -14.05 M-9.2 -16.15 L-9.15 -16.85 -9.1 -16.9 Q-9.05 -18.0 -9.55 -19.6 -10.1 -21.25 -10.7 -21.5 L-10.85 -21.55 -11.25 -21.35 -12.45 -19.8 -12.7 -19.45 -12.7 -19.4 -13.45 -18.0 M-9.2 -16.15 L-9.85 -14.6 -10.1 -14.15 -11.8 -11.95 -10.6 -12.15 -10.15 -12.65 -9.35 -13.65 -8.4 -14.5 -8.1 -14.4 -6.95 -14.3 M-8.1 -14.4 L-7.3 -13.05 Q-6.85 -11.7 -6.95 -10.9 L-7.1 -10.25 -7.25 -9.7 M-4.8 -9.4 L-3.9 -11.15 M-10.15 -5.7 Q-9.1 -5.75 -8.05 -7.75 L-7.25 -9.7 M-6.3 -18.8 L-6.6 -18.2 M-15.5 -20.6 L-15.15 -19.95 -14.6 -19.35 M-11.8 -11.95 Q-12.35 -11.9 -12.7 -12.7 L-13.0 -13.9 -13.4 -14.9 -14.6 -15.1 Q-13.85 -14.85 -13.6 -13.3 -13.45 -12.45 -13.45 -11.6 L-13.55 -10.9 -13.55 -10.75 M-11.65 -10.45 L-10.75 -11.95 -10.6 -12.15 M-12.7 -19.45 L-14.05 -19.25 M-17.55 -24.7 L-16.8 -23.75 M-15.8 -22.5 L-15.85 -22.25 -15.7 -21.2 -15.5 -20.6 -16.7 -20.9 Q-16.15 -20.6 -15.75 -19.5 -15.5 -18.55 -15.55 -17.75 L-15.55 -17.45 -15.6 -17.35 -16.15 -16.05 -16.4 -15.55 Q-17.1 -14.2 -17.6 -14.1 L-15.9 -14.3 -15.6 -14.65 -14.8 -15.1 -14.7 -15.1 -14.6 -15.1 M-13.9 -16.95 L-13.85 -17.2 -13.45 -18.0 M-17.15 -20.95 L-17.9 -20.05 -18.05 -19.7 -18.3 -19.25 M-17.15 -20.95 L-17.0 -21.0 -16.7 -20.9 M-18.5 -15.85 L-19.05 -17.45 M-17.95 -14.35 L-18.4 -15.55 -18.5 -15.85 -19.35 -16.0 M-17.6 -14.1 L-17.75 -14.05 -17.95 -14.35 M-18.6 -13.3 L-18.6 -13.0 -18.6 -12.9 -19.05 -11.2 -19.1 -11.0 Q-19.4 -10.4 -19.75 -10.15 M-16.8 -12.75 L-16.35 -13.55 -15.9 -14.3 M-15.5 -7.9 Q-15.15 -8.05 -14.5 -8.9 -13.7 -9.95 -13.55 -10.75 M-13.4 -14.9 L-13.55 -15.3 Q-14.05 -16.4 -13.95 -16.8 L-13.9 -16.95 M-15.15 -24.7 L-15.45 -23.85 M-11.65 -10.45 L-11.7 -10.2 -11.4 -8.95 -11.05 -7.75 -10.25 -5.7 -10.15 -5.7 -8.75 -5.6 -8.15 -6.15 -6.1 -7.85 -5.9 -7.9 -5.65 -7.8 -4.8 -7.95 -4.95 -8.45 -4.8 -9.4 M-12.75 -8.9 L-13.4 -8.35 -13.85 -7.75 -13.9 -7.65 -13.95 -7.65 -14.0 -7.6 M-11.25 -5.15 L-11.7 -7.0 Q-12.2 -8.9 -12.45 -8.95 L-12.55 -8.95 -12.75 -8.9 M-11.4 -8.95 L-12.45 -8.95 M-16.8 -12.75 L-17.2 -11.8 -17.1 -10.9 -16.7 -9.6 Q-16.1 -8.05 -15.75 -7.9 L-15.6 -7.85 -15.5 -7.9 -13.4 -8.35 M-18.9 -10.1 L-18.75 -10.35 -18.25 -10.75 -18.15 -10.75 -17.1 -10.9 M-18.15 -10.75 L-18.05 -10.75 Q-17.35 -10.7 -17.0 -8.9 L-16.95 -8.75 Q-16.7 -7.3 -16.8 -6.4 L-16.8 -6.25 -16.85 -6.1 M-12.15 -3.25 L-11.9 -3.45 Q-11.25 -3.95 -11.2 -4.4 L-11.2 -4.6 -11.25 -5.15 M-11.0 -3.5 L-10.75 -3.6 -10.5 -3.4 -10.25 -2.8 -10.1 -2.05 -10.1 -2.0 M-4.8 -7.95 L-4.5 -6.2 Q-4.15 -4.6 -3.7 -4.5 L-3.15 -4.6 -1.7 -4.9 M0.1 -8.6 L-0.2 -7.85 -1.05 -6.5 -2.15 -5.3 -3.15 -4.6 M-6.2 -2.3 L-6.1 -2.4 -5.1 -3.65 -4.95 -3.95 -4.8 -4.3 Q-4.7 -5.0 -5.0 -6.3 -5.25 -7.5 -5.65 -7.8 M-9.35 -5.05 L-8.75 -5.6 M-9.9 -4.45 L-9.35 -5.05 M-9.9 -4.45 L-10.1 -4.15 Q-10.15 -3.3 -9.55 -2.3 M-7.25 -1.5 L-6.2 -2.3 M-3.3 -2.8 L-3.2 -3.3 -2.65 -3.9 M-4.35 -0.3 Q-4.05 -0.5 -4.0 -0.95 L-4.1 -1.6 -4.35 -2.45 Q-5.9 -1.1 -6.05 -0.2 M-3.3 -2.8 L-4.35 -2.45 -5.65 -1.75 M-3.15 -0.65 Q-3.4 -1.6 -3.3 -2.8 M-10.7 -21.5 L-9.2 -21.1 M-0.15 -15.9 L0.15 -13.65 -0.8 -14.0 M-0.6 -27.8 L0.9 -27.45" fill="none" stroke="#000000" stroke-linecap="round" stroke-linejoin="round" stroke-opacity="0.4" stroke-width="0.05"/>
      <path d="M15.4 -23.65 L13.4 -23.6 Q11.45 -23.6 8.9 -25.3 6.35 -27.0 4.0 -27.0 1.2 -27.0 -1.75 -25.8 -4.7 -24.6 -6.4 -24.6 -8.55 -24.6 -9.3 -25.6 -10.0 -26.6 -10.6 -26.6 -11.3 -26.6 -14.15 -24.8 -17.0 -23.0 -18.5 -23.0 -19.9 -23.0 -20.6 -23.6 -21.0 -23.9 -21.2 -24.5 -20.7 -26.85 -17.95 -29.35 -14.2 -32.8 -8.6 -33.9 L-1.8 -33.9 Q3.65 -33.6 7.25 -32.05 10.5 -30.7 11.55 -28.75 L14.2 -25.35 15.4 -23.65" fill="#ffffff" fill-rule="evenodd" stroke="none"/>
      <path d="M-21.2 -24.5 Q-21.0 -23.9 -20.6 -23.6 -19.9 -23.0 -18.5 -23.0 -17.0 -23.0 -14.15 -24.8 -11.3 -26.6 -10.6 -26.6 -10.0 -26.6 -9.3 -25.6 -8.55 -24.6 -6.4 -24.6 -4.7 -24.6 -1.75 -25.8 1.2 -27.0 4.0 -27.0 6.35 -27.0 8.9 -25.3 11.45 -23.6 13.4 -23.6 L15.4 -23.65 Q16.1 -22.45 16.1 -21.7 16.1 -19.7 14.0 -19.7 12.1 -19.7 8.95 -21.85 L5.45 -24.4 2.85 -24.45 -2.35 -23.35 -7.3 -22.3 Q-8.95 -22.3 -10.0 -23.4 L-11.4 -24.55 Q-12.75 -24.55 -15.15 -22.7 -17.55 -20.9 -18.8 -20.9 -20.7 -20.9 -21.2 -22.2 -21.45 -22.8 -21.3 -23.5 L-21.2 -24.5" fill="#b1c3cd" fill-rule="evenodd" stroke="none"/>
      <path d="M7.45 -31.9 Q7.05 -32.45 7.7 -32.9 8.35 -33.35 8.55 -32.75 8.8 -32.15 8.3 -31.75 7.85 -31.3 7.45 -31.9 M5.35 -32.15 Q4.6 -31.75 4.25 -32.55 3.9 -33.35 4.5 -33.55 5.1 -33.7 5.6 -33.15 6.1 -32.55 5.35 -32.15 M2.5 -32.85 Q2.0 -32.5 1.55 -33.2 1.15 -33.9 1.75 -34.2 2.35 -34.45 2.65 -33.85 3.0 -33.2 2.5 -32.85 M9.7 -31.25 Q10.55 -31.75 11.05 -30.85 11.55 -29.95 10.7 -29.25 9.85 -28.55 9.35 -29.65 8.85 -30.8 9.7 -31.25 M14.65 -25.55 Q15.0 -25.1 14.5 -24.85 13.95 -24.55 13.7 -25.15 13.45 -25.7 13.9 -25.8 14.3 -25.95 14.65 -25.55 M11.2 -27.6 Q10.8 -28.3 11.4 -28.6 12.0 -28.85 12.3 -28.25 12.65 -27.6 12.15 -27.25 11.65 -26.9 11.2 -27.6 M-10.3 -34.0 Q-9.95 -34.2 -9.75 -33.8 -9.55 -33.4 -9.85 -33.2 -10.15 -33.0 -10.45 -33.4 -10.7 -33.85 -10.3 -34.0 M-13.25 -32.45 Q-13.55 -33.05 -13.1 -33.3 -12.6 -33.55 -12.35 -33.1 -12.05 -32.6 -12.5 -32.2 -13.0 -31.8 -13.25 -32.45 M-18.45 -29.05 Q-18.8 -29.8 -18.2 -29.95 -17.65 -30.15 -17.2 -29.6 -16.75 -29.05 -17.45 -28.7 -18.1 -28.35 -18.45 -29.05 M-19.8 -26.55 Q-20.3 -26.25 -20.75 -26.95 -21.2 -27.65 -20.55 -27.95 -19.9 -28.25 -19.6 -27.6 -19.3 -26.9 -19.8 -26.55 M-16.1 -30.6 Q-16.6 -31.25 -15.85 -31.75 -15.05 -32.25 -14.85 -31.6 -14.6 -30.9 -15.1 -30.4 -15.65 -29.9 -16.1 -30.6 M-1.6 -33.45 Q-2.0 -34.3 -1.35 -34.65 -0.7 -35.05 -0.3 -34.35 0.1 -33.7 -0.55 -33.15 -1.2 -32.6 -1.6 -33.45 M-3.7 -33.15 Q-4.4 -32.55 -4.95 -33.4 -5.5 -34.2 -4.6 -34.85 -3.65 -35.45 -3.35 -34.6 -3.05 -33.8 -3.7 -33.15 M-6.35 -33.15 Q-7.25 -32.7 -7.7 -33.6 -8.1 -34.55 -7.4 -34.75 -6.65 -34.95 -6.1 -34.3 -5.5 -33.6 -6.35 -33.15 M-20.8 -25.05 Q-20.4 -24.4 -21.05 -23.9 -21.65 -23.4 -22.0 -24.2 -22.4 -25.0 -21.75 -25.35 -21.15 -25.7 -20.8 -25.05" fill="#ffffff" fill-rule="evenodd" stroke="none"/>
    </g>
  </defs>
</svg>
