<?xml version="1.0" encoding="UTF-8" standalone="no"?>
<svg xmlns:xlink="http://www.w3.org/1999/xlink" height="34.45px" width="39.4px" xmlns="http://www.w3.org/2000/svg">
  <g transform="matrix(1.0, 0.0, 0.0, 1.0, 21.5, 32.2)">
    <use height="34.45" transform="matrix(1.0, 0.0, 0.0, 1.0, -21.5, -32.2)" width="39.4" xlink:href="#decoration143-shape0"/>
  </g>
  <defs>
    <g id="decoration143-shape0" transform="matrix(1.0, 0.0, 0.0, 1.0, 21.5, 32.2)">
      <path d="M-20.6 -2.55 Q-20.9 -3.15 -20.75 -3.9 -21.2 -4.35 -21.25 -4.65 L-21.35 -4.8 Q-21.35 -7.0 -19.8 -8.0 L-19.95 -7.5 Q-19.95 -6.55 -19.55 -5.75 -19.15 -4.8 -18.65 -5.0 L-18.9 -4.55 -18.9 -3.95 Q-18.9 -2.9 -17.95 -2.15 -17.1 -1.45 -16.15 -1.45 -15.55 -1.45 -14.8 -1.9 -13.9 -2.4 -14.05 -3.15 -13.1 -2.55 -12.6 -2.55 -11.35 -2.55 -11.35 -3.65 L-11.45 -4.1 -11.6 -4.75 Q-9.95 -5.75 -9.95 -6.45 L-10.15 -7.45 Q-9.0 -6.8 -8.8 -5.4 L-8.75 -4.8 -8.75 -4.55 -8.85 -3.7 Q-9.15 -2.8 -10.0 -1.95 -9.95 -1.15 -10.45 -0.45 L-10.65 -0.3 Q-11.35 0.3 -12.0 0.5 L-12.85 0.45 -13.85 0.0 Q-14.5 1.5 -15.05 1.5 -16.5 1.5 -17.7 0.95 L-19.15 0.0 -19.5 -0.3 Q-19.7 -0.5 -19.3 -1.0 -20.25 -1.7 -20.6 -2.55 M-19.7 -8.7 L-19.5 -9.2 -19.4 -9.25 -18.25 -10.2 -18.2 -10.2 -18.25 -9.75 Q-18.25 -9.2 -17.6 -8.75 L-16.75 -8.25 -18.9 -8.8 -19.7 -8.7 M-12.95 -6.85 L-12.7 -7.0 -12.7 -6.85 Q-12.45 -6.25 -13.6 -6.1 -13.85 -5.9 -12.7 -4.3 -14.3 -6.35 -14.9 -6.5 L-14.2 -6.75 Q-13.6 -7.1 -13.6 -7.6 L-13.4 -7.25 -12.95 -6.85" fill="#ced7db" fill-rule="evenodd" stroke="none"/>
      <path d="M-19.8 -8.0 L-19.75 -8.55 -19.7 -8.7 -18.9 -8.8 -16.75 -8.25 -17.6 -8.75 Q-18.25 -9.2 -18.25 -9.75 L-18.2 -10.2 Q-16.8 -11.1 -15.05 -11.1 -14.35 -11.1 -13.7 -10.6 L-12.9 -10.5 Q-11.65 -10.25 -10.65 -9.2 L-10.4 -8.8 Q-10.25 -8.4 -10.4 -7.55 L-10.15 -7.45 -9.95 -6.45 Q-9.95 -5.75 -11.6 -4.75 L-11.45 -4.1 -11.35 -3.65 Q-11.35 -2.55 -12.6 -2.55 -13.1 -2.55 -14.05 -3.15 -13.9 -2.4 -14.8 -1.9 -15.55 -1.45 -16.15 -1.45 -17.1 -1.45 -17.95 -2.15 -18.9 -2.9 -18.9 -3.95 L-18.9 -4.55 -18.65 -5.0 Q-19.15 -4.8 -19.55 -5.75 -19.95 -6.55 -19.95 -7.5 L-19.8 -8.0 M-12.95 -6.85 L-13.4 -7.25 -13.6 -7.6 Q-13.6 -7.1 -14.2 -6.75 L-14.9 -6.5 Q-14.3 -6.35 -12.7 -4.3 -13.85 -5.9 -13.6 -6.1 -12.45 -6.25 -12.7 -6.85 L-12.7 -7.0 -12.95 -6.85" fill="#ffffff" fill-rule="evenodd" stroke="none"/>
      <path d="M-21.25 -4.65 L-21.35 -4.8 Q-21.35 -7.0 -19.8 -8.0 L-19.75 -8.55 M-18.25 -10.2 L-18.2 -10.2 Q-16.8 -11.1 -15.05 -11.1 -14.35 -11.1 -13.7 -10.6 L-12.9 -10.5 M-10.4 -8.8 Q-10.25 -8.4 -10.4 -7.55 L-10.15 -7.45 Q-9.0 -6.8 -8.8 -5.4 M-8.85 -3.7 Q-9.15 -2.8 -10.0 -1.95 M-10.45 -0.45 L-10.65 -0.3 Q-11.35 0.3 -12.0 0.5 M-12.85 0.45 L-13.85 0.0 Q-14.5 1.5 -15.05 1.5 -16.5 1.5 -17.7 0.95 M-19.15 0.0 L-19.5 -0.3 Q-19.7 -0.5 -19.3 -1.0 -20.25 -1.7 -20.6 -2.55" fill="none" stroke="#4f7691" stroke-linecap="round" stroke-linejoin="miter" stroke-miterlimit="5.0" stroke-opacity="0.4" stroke-width="0.30000000000000004"/>
      <path d="M0.75 -10.8 L0.4 -10.5 Q0.0 -10.1 0.15 -9.35 L0.4 -8.4 -0.75 -10.25 -1.4 -10.8 -0.9 -11.0 -0.75 -11.0 0.7 -10.8 0.75 -10.8 M-1.95 -10.35 L-2.4 -10.1 -3.4 -8.6 Q-3.75 -7.65 -3.25 -7.45 L-3.75 -7.25 -4.15 -6.85 Q-4.9 -6.1 -4.8 -4.9 -4.7 -3.8 -4.0 -3.15 -3.6 -2.7 -2.7 -2.55 -1.75 -2.25 -1.3 -2.85 -1.05 -1.75 -0.7 -1.4 L0.95 -1.3 1.2 -1.7 1.55 -2.25 3.9 -2.3 4.45 -3.15 Q4.85 -1.85 3.95 -0.75 L3.6 -0.3 3.4 -0.1 2.75 0.45 0.7 0.85 Q0.15 1.45 -0.7 1.6 L-0.95 1.55 -2.45 1.15 -3.0 0.55 -3.4 -0.5 -5.3 -0.3 Q-6.3 -1.35 -6.75 -2.55 L-7.15 -4.25 -7.2 -4.7 Q-7.2 -5.0 -6.55 -5.05 -6.7 -6.25 -6.35 -7.1 L-5.55 -8.15 -5.35 -9.05 -5.3 -9.2 Q-3.75 -10.75 -1.95 -10.35 M2.05 -5.3 Q1.9 -4.9 2.1 -4.7 L2.35 -4.65 2.25 -4.55 Q2.0 -3.9 1.1 -4.65 0.75 -4.65 0.45 -2.75 0.8 -5.3 0.45 -5.85 0.7 -5.65 1.1 -5.5 L2.15 -5.6 2.05 -5.3" fill="#ced7db" fill-rule="evenodd" stroke="none"/>
      <path d="M-1.4 -10.8 L-0.75 -10.25 0.4 -8.4 0.15 -9.35 Q0.0 -10.1 0.4 -10.5 L0.75 -10.8 Q2.35 -10.45 3.6 -9.2 4.1 -8.7 4.2 -7.9 L4.65 -7.25 Q5.4 -6.2 5.35 -4.75 L5.25 -4.25 4.4 -3.4 4.45 -3.15 3.9 -2.3 1.55 -2.25 1.2 -1.7 0.95 -1.3 -0.7 -1.4 Q-1.05 -1.75 -1.3 -2.85 -1.75 -2.25 -2.7 -2.55 -3.6 -2.7 -4.0 -3.15 -4.7 -3.8 -4.8 -4.9 -4.9 -6.1 -4.15 -6.85 L-3.75 -7.25 -3.25 -7.45 Q-3.75 -7.65 -3.4 -8.6 L-2.4 -10.1 -1.95 -10.35 -1.5 -10.75 -1.4 -10.8 M2.05 -5.3 L2.15 -5.6 1.1 -5.5 Q0.7 -5.65 0.45 -5.85 0.8 -5.3 0.45 -2.75 0.75 -4.65 1.1 -4.65 2.0 -3.9 2.25 -4.55 L2.35 -4.65 2.1 -4.7 Q1.9 -4.9 2.05 -5.3" fill="#ffffff" fill-rule="evenodd" stroke="none"/>
      <path d="M0.75 -10.8 L0.7 -10.8 M-1.5 -10.75 L-1.95 -10.35 M4.45 -3.15 L4.4 -3.4 5.25 -4.25 M4.65 -7.25 L4.2 -7.9 Q4.1 -8.7 3.6 -9.2 2.35 -10.45 0.75 -10.8 M2.75 0.45 L0.7 0.85 M-0.7 1.6 L-0.95 1.55 -2.45 1.15 M-3.0 0.55 L-3.4 -0.5 -5.3 -0.3 Q-6.3 -1.35 -6.75 -2.55 M-7.15 -4.25 L-7.2 -4.7 Q-7.2 -5.0 -6.55 -5.05 -6.7 -6.25 -6.35 -7.1 M-5.35 -9.05 L-5.3 -9.2 Q-3.75 -10.75 -1.95 -10.35 M4.45 -3.15 Q4.85 -1.85 3.95 -0.75" fill="none" stroke="#4f7691" stroke-linecap="round" stroke-linejoin="miter" stroke-miterlimit="5.0" stroke-opacity="0.4" stroke-width="0.30000000000000004"/>
      <path d="M6.2 -7.3 L6.35 -6.9 Q6.65 -6.4 7.4 -6.35 L8.4 -6.35 6.3 -5.75 5.65 -5.25 5.6 -5.8 5.6 -5.9 6.15 -7.25 6.2 -7.3 M5.9 -4.6 L6.05 -4.1 Q6.5 -3.25 7.25 -2.75 8.1 -2.15 8.4 -2.55 L8.4 -2.1 8.7 -1.55 Q9.25 -0.65 10.4 -0.45 L12.35 -0.75 13.3 -1.85 Q13.85 -2.7 13.3 -3.25 L14.85 -3.5 Q15.95 -4.1 15.4 -5.05 L15.1 -5.4 14.6 -5.9 Q15.55 -7.55 15.2 -8.15 L14.5 -8.95 Q15.85 -9.0 16.75 -7.85 L17.1 -7.35 17.2 -7.15 17.55 -6.35 Q17.75 -5.4 17.4 -4.3 17.85 -3.6 17.75 -2.75 L17.7 -2.5 Q17.4 -1.65 16.9 -1.15 L16.15 -0.75 15.05 -0.65 Q15.25 0.95 14.8 1.25 13.5 1.95 12.2 2.1 L10.5 2.0 10.05 1.9 Q9.75 1.85 9.85 1.2 8.7 1.1 7.9 0.5 7.35 0.15 7.15 -0.55 6.5 -0.75 6.3 -0.95 L6.15 -1.05 Q5.05 -2.95 5.9 -4.6 M12.55 -7.3 L12.6 -7.15 Q13.15 -6.75 12.25 -6.05 12.1 -5.75 13.9 -4.95 11.5 -5.95 10.9 -5.75 L11.35 -6.35 Q11.75 -6.95 11.5 -7.3 L11.8 -7.15 Q12.2 -6.9 12.4 -7.0 L12.55 -7.3" fill="#ced7db" fill-rule="evenodd" stroke="none"/>
      <path d="M5.65 -5.25 L6.3 -5.75 8.4 -6.35 7.4 -6.35 Q6.65 -6.4 6.35 -6.9 L6.2 -7.3 Q6.95 -8.8 8.5 -9.65 L9.9 -9.9 10.65 -10.25 13.25 -10.2 13.65 -10.0 14.25 -8.95 14.5 -8.95 15.2 -8.15 Q15.55 -7.55 14.6 -5.9 L15.1 -5.4 15.4 -5.05 Q15.95 -4.1 14.85 -3.5 L13.3 -3.25 Q13.85 -2.7 13.3 -1.85 L12.35 -0.75 10.4 -0.45 Q9.25 -0.65 8.7 -1.55 L8.4 -2.1 8.4 -2.55 Q8.1 -2.15 7.25 -2.75 6.5 -3.25 6.05 -4.1 L5.9 -4.6 5.65 -5.1 5.65 -5.25 M12.55 -7.3 L12.4 -7.0 Q12.2 -6.9 11.8 -7.15 L11.5 -7.3 Q11.75 -6.95 11.35 -6.35 L10.9 -5.75 Q11.5 -5.95 13.9 -4.95 12.1 -5.75 12.25 -6.05 13.15 -6.75 12.6 -7.15 L12.55 -7.3" fill="#ffffff" fill-rule="evenodd" stroke="none"/>
      <path d="M6.2 -7.3 L6.15 -7.25 M5.65 -5.1 L5.9 -4.6 M14.5 -8.95 L14.25 -8.95 13.65 -10.0 M10.65 -10.25 L9.9 -9.9 8.5 -9.65 Q6.95 -8.8 6.2 -7.3 M6.3 -0.95 L6.15 -1.05 Q5.05 -2.95 5.9 -4.6 M17.55 -6.35 Q17.75 -5.4 17.4 -4.3 M17.75 -2.75 L17.7 -2.5 Q17.4 -1.65 16.9 -1.15 M16.15 -0.75 L15.05 -0.65 Q15.25 0.95 14.8 1.25 13.5 1.95 12.2 2.1 M10.5 2.0 L10.05 1.9 Q9.75 1.85 9.85 1.2 8.7 1.1 7.9 0.5 M14.5 -8.95 Q15.85 -9.0 16.75 -7.85" fill="none" stroke="#4f7691" stroke-linecap="round" stroke-linejoin="miter" stroke-miterlimit="5.0" stroke-opacity="0.4" stroke-width="0.30000000000000004"/>
      <path d="M-5.35 -21.0 L-4.75 -19.95 -4.5 -19.95 -3.8 -19.15 Q-3.45 -18.55 -4.4 -16.9 L-3.9 -16.4 -3.6 -16.05 Q-3.05 -15.1 -4.15 -14.5 L-5.7 -14.25 Q-5.15 -13.7 -5.7 -12.85 -6.15 -12.05 -6.65 -11.75 L-8.6 -11.45 Q-9.75 -11.65 -10.3 -12.55 L-10.6 -13.1 -10.6 -13.55 Q-10.9 -13.15 -11.75 -13.75 -12.5 -14.25 -12.95 -15.1 L-13.1 -15.6 -13.35 -16.1 -13.35 -16.25 -12.7 -16.75 -10.6 -17.35 -11.6 -17.35 Q-12.35 -17.4 -12.65 -17.9 L-12.8 -18.3 Q-12.05 -19.8 -10.5 -20.65 L-9.1 -20.9 -8.35 -21.25 -5.75 -21.2 -5.35 -21.0 M-6.75 -17.05 Q-5.85 -17.75 -6.4 -18.15 L-6.45 -18.3 Q-6.45 -18.1 -6.6 -18.0 -6.8 -17.9 -7.2 -18.15 L-7.5 -18.3 Q-7.25 -17.95 -7.65 -17.35 L-8.1 -16.75 Q-7.5 -16.95 -5.1 -15.95 -6.9 -16.75 -6.75 -17.05" fill="#ffffff" fill-rule="evenodd" stroke="none"/>
      <path d="M-4.5 -19.95 Q-3.15 -20.0 -2.25 -18.85 L-1.9 -18.35 -1.8 -18.15 -1.45 -17.35 Q-1.25 -16.4 -1.6 -15.3 -1.15 -14.6 -1.25 -13.75 L-1.3 -13.5 Q-1.6 -12.65 -2.1 -12.15 L-2.85 -11.75 -3.95 -11.65 Q-3.75 -10.05 -4.2 -9.75 -5.5 -9.05 -6.8 -8.9 L-8.5 -9.0 -8.95 -9.1 Q-9.25 -9.15 -9.15 -9.8 -10.3 -9.9 -11.1 -10.5 -11.65 -10.85 -11.85 -11.55 L-12.7 -11.95 -12.85 -12.05 Q-13.95 -13.95 -13.1 -15.6 L-12.95 -15.1 Q-12.5 -14.25 -11.75 -13.75 -10.9 -13.15 -10.6 -13.55 L-10.6 -13.1 -10.3 -12.55 Q-9.75 -11.65 -8.6 -11.45 L-6.65 -11.75 Q-6.15 -12.05 -5.7 -12.85 -5.15 -13.7 -5.7 -14.25 L-4.15 -14.5 Q-3.05 -15.1 -3.6 -16.05 L-3.9 -16.4 -4.4 -16.9 Q-3.45 -18.55 -3.8 -19.15 L-4.5 -19.95 M-13.35 -16.25 L-13.4 -16.8 -13.4 -16.9 -12.85 -18.25 -12.8 -18.3 -12.65 -17.9 Q-12.35 -17.4 -11.6 -17.35 L-10.6 -17.35 -12.7 -16.75 -13.35 -16.25 M-6.75 -17.05 Q-6.9 -16.75 -5.1 -15.95 -7.5 -16.95 -8.1 -16.75 L-7.65 -17.35 Q-7.25 -17.95 -7.5 -18.3 L-7.2 -18.15 Q-6.8 -17.9 -6.6 -18.0 -6.45 -18.1 -6.45 -18.3 L-6.4 -18.15 Q-5.85 -17.75 -6.75 -17.05" fill="#ced7db" fill-rule="evenodd" stroke="none"/>
      <path d="M-5.35 -21.0 L-4.75 -19.95 -4.5 -19.95 Q-3.15 -20.0 -2.25 -18.85 M-1.45 -17.35 Q-1.25 -16.4 -1.6 -15.3 M-1.25 -13.75 L-1.3 -13.5 Q-1.6 -12.65 -2.1 -12.15 M-2.85 -11.75 L-3.95 -11.65 Q-3.75 -10.05 -4.2 -9.75 -5.5 -9.05 -6.8 -8.9 M-8.5 -9.0 L-8.95 -9.1 Q-9.25 -9.15 -9.15 -9.8 -10.3 -9.9 -11.1 -10.5 M-12.7 -11.95 L-12.85 -12.05 Q-13.95 -13.95 -13.1 -15.6 L-13.35 -16.1 M-12.85 -18.25 L-12.8 -18.3 Q-12.05 -19.8 -10.5 -20.65 L-9.1 -20.9 -8.35 -21.25" fill="none" stroke="#4f7691" stroke-linecap="round" stroke-linejoin="miter" stroke-miterlimit="5.0" stroke-opacity="0.4" stroke-width="0.30000000000000004"/>
      <path d="M11.65 -16.5 L11.6 -15.45 Q11.4 -14.75 9.6 -14.25 9.45 -13.8 9.6 -13.55 L9.55 -13.1 Q9.3 -12.0 8.05 -12.4 7.55 -12.5 6.75 -13.3 6.8 -12.55 5.8 -12.35 L4.35 -12.2 Q3.45 -12.5 2.75 -13.4 2.1 -14.35 2.3 -15.35 L2.5 -15.95 2.85 -16.25 Q2.35 -16.2 2.15 -17.2 1.95 -18.1 2.3 -19.0 2.25 -19.1 2.55 -19.45 L2.7 -20.05 2.8 -20.15 3.6 -20.05 5.5 -18.95 4.8 -19.65 Q4.3 -20.25 4.45 -20.8 L4.65 -21.2 Q6.2 -21.75 7.9 -21.25 L9.1 -20.4 9.85 -20.1 Q10.9 -19.55 11.7 -18.3 L11.8 -17.85 Q11.85 -17.4 11.5 -16.65 L11.65 -16.5 M7.6 -16.85 L6.85 -16.8 Q7.4 -16.5 8.35 -14.25 7.7 -15.95 8.0 -16.05 9.15 -15.9 9.05 -16.6 L8.85 -16.6 Q8.6 -16.65 8.5 -17.15 L8.4 -17.45 Q8.3 -17.05 7.6 -16.85" fill="#ffffff" fill-rule="evenodd" stroke="none"/>
      <path d="M2.55 -19.45 Q2.25 -19.1 2.3 -19.0 1.95 -18.1 2.15 -17.2 2.35 -16.2 2.85 -16.25 L2.5 -15.95 2.3 -15.35 Q2.1 -14.35 2.75 -13.4 3.45 -12.5 4.35 -12.2 L5.8 -12.35 Q6.8 -12.55 6.75 -13.3 7.55 -12.5 8.05 -12.4 9.3 -12.0 9.55 -13.1 L9.6 -13.55 Q9.45 -13.8 9.6 -14.25 11.4 -14.75 11.6 -15.45 L11.65 -16.5 Q12.65 -15.6 12.5 -14.1 L12.35 -13.5 12.3 -13.35 11.95 -12.5 Q11.45 -11.7 10.4 -11.15 10.25 -10.3 9.55 -9.8 L9.4 -9.7 7.85 -9.3 7.05 -9.55 6.2 -10.25 Q5.2 -8.95 4.7 -9.1 3.25 -9.5 2.25 -10.3 L1.1 -11.55 0.85 -12.0 Q0.65 -12.2 1.2 -12.6 0.45 -13.5 0.3 -14.45 0.15 -15.1 0.5 -15.75 0.2 -16.35 0.2 -16.65 L0.15 -16.8 Q0.75 -18.9 2.55 -19.45 M4.65 -21.2 L4.45 -20.8 Q4.3 -20.25 4.8 -19.65 L5.5 -18.95 3.6 -20.05 2.8 -20.15 3.15 -20.55 3.2 -20.65 4.55 -21.2 4.65 -21.2 M7.6 -16.85 Q8.3 -17.05 8.4 -17.45 L8.5 -17.15 Q8.6 -16.65 8.85 -16.6 L9.05 -16.6 Q9.15 -15.9 8.0 -16.05 7.7 -15.95 8.35 -14.25 7.4 -16.5 6.85 -16.8 L7.6 -16.85" fill="#ced7db" fill-rule="evenodd" stroke="none"/>
      <path d="M2.55 -19.45 Q0.75 -18.9 0.15 -16.8 L0.2 -16.65 M0.3 -14.45 Q0.45 -13.5 1.2 -12.6 0.65 -12.2 0.85 -12.0 L1.1 -11.55 M2.25 -10.3 Q3.25 -9.5 4.7 -9.1 5.2 -8.95 6.2 -10.25 L7.05 -9.55 M7.85 -9.3 L9.4 -9.7 9.55 -9.8 M10.4 -11.15 Q11.45 -11.7 11.95 -12.5 M12.5 -14.1 Q12.65 -15.6 11.65 -16.5 L11.5 -16.65 Q11.85 -17.4 11.8 -17.85 M9.85 -20.1 L9.1 -20.4 7.9 -21.25 Q6.2 -21.75 4.65 -21.2 L4.55 -21.2 M2.7 -20.05 L2.55 -19.45 Z" fill="none" stroke="#4f7691" stroke-linecap="round" stroke-linejoin="miter" stroke-miterlimit="5.0" stroke-opacity="0.4" stroke-width="0.30000000000000004"/>
      <path d="M-2.3 -31.75 Q-0.75 -32.3 0.95 -31.8 L2.15 -30.95 2.9 -30.65 Q3.95 -30.1 4.75 -28.85 L4.85 -28.4 Q4.9 -27.95 4.55 -27.2 L4.7 -27.05 4.65 -26.0 Q4.45 -25.3 2.65 -24.8 2.5 -24.35 2.65 -24.1 L2.6 -23.65 Q2.35 -22.55 1.1 -22.95 0.6 -23.05 -0.2 -23.85 -0.15 -23.1 -1.15 -22.9 L-2.6 -22.75 Q-3.5 -23.05 -4.2 -23.95 -4.85 -24.9 -4.65 -25.9 L-4.45 -26.5 -4.1 -26.8 Q-4.6 -26.75 -4.8 -27.75 -5.0 -28.65 -4.65 -29.55 L-4.4 -30.0 -4.25 -30.6 -4.15 -30.7 -3.35 -30.6 -1.45 -29.5 -2.15 -30.2 Q-2.65 -30.8 -2.5 -31.35 L-2.3 -31.75 M1.05 -26.6 Q2.2 -26.45 2.1 -27.15 L1.9 -27.15 Q1.65 -27.2 1.55 -27.7 L1.45 -28.0 0.65 -27.4 -0.1 -27.35 Q0.45 -27.05 1.4 -24.8 0.75 -26.5 1.05 -26.6" fill="#ffffff" fill-rule="evenodd" stroke="none"/>
      <path d="M4.7 -27.05 Q5.7 -26.15 5.55 -24.65 L5.4 -24.05 5.35 -23.9 5.0 -23.05 Q4.5 -22.25 3.45 -21.7 3.3 -20.85 2.6 -20.35 L2.45 -20.25 0.9 -19.85 0.1 -20.1 -0.75 -20.8 Q-1.75 -19.5 -2.25 -19.65 -3.7 -20.05 -4.7 -20.85 L-5.85 -22.1 -6.1 -22.55 Q-6.3 -22.75 -5.75 -23.15 -6.5 -24.05 -6.65 -25.0 -6.8 -25.65 -6.45 -26.3 L-6.75 -27.2 -6.8 -27.35 Q-6.2 -29.45 -4.4 -30.0 L-4.65 -29.55 Q-5.0 -28.65 -4.8 -27.75 -4.6 -26.75 -4.1 -26.8 L-4.45 -26.5 -4.65 -25.9 Q-4.85 -24.9 -4.2 -23.95 -3.5 -23.05 -2.6 -22.75 L-1.15 -22.9 Q-0.15 -23.1 -0.2 -23.85 0.6 -23.05 1.1 -22.95 2.35 -22.55 2.6 -23.65 L2.65 -24.1 Q2.5 -24.35 2.65 -24.8 4.45 -25.3 4.65 -26.0 L4.7 -27.05 M-4.15 -30.7 L-3.8 -31.1 -3.75 -31.2 -2.4 -31.75 -2.3 -31.75 -2.5 -31.35 Q-2.65 -30.8 -2.15 -30.2 L-1.45 -29.5 -3.35 -30.6 -4.15 -30.7 M1.05 -26.6 Q0.75 -26.5 1.4 -24.8 0.45 -27.05 -0.1 -27.35 L0.65 -27.4 1.45 -28.0 1.55 -27.7 Q1.65 -27.2 1.9 -27.15 L2.1 -27.15 Q2.2 -26.45 1.05 -26.6" fill="#ced7db" fill-rule="evenodd" stroke="none"/>
      <path d="M-2.3 -31.75 Q-0.75 -32.3 0.95 -31.8 L2.15 -30.95 2.9 -30.65 M4.85 -28.4 Q4.9 -27.95 4.55 -27.2 L4.7 -27.05 Q5.7 -26.15 5.55 -24.65 M5.0 -23.05 Q4.5 -22.25 3.45 -21.7 M2.6 -20.35 L2.45 -20.25 0.9 -19.85 M0.1 -20.1 L-0.75 -20.8 Q-1.75 -19.5 -2.25 -19.65 -3.7 -20.05 -4.7 -20.85 M-5.85 -22.1 L-6.1 -22.55 Q-6.3 -22.75 -5.75 -23.15 -6.5 -24.05 -6.65 -25.0 M-6.75 -27.2 L-6.8 -27.35 Q-6.2 -29.45 -4.4 -30.0 L-4.25 -30.6 M-2.4 -31.75 L-2.3 -31.75 Z" fill="none" stroke="#4f7691" stroke-linecap="round" stroke-linejoin="miter" stroke-miterlimit="5.0" stroke-opacity="0.4" stroke-width="0.30000000000000004"/>
    </g>
  </defs>
</svg>
