<?xml version="1.0" encoding="UTF-8" standalone="no"?>
<svg xmlns:xlink="http://www.w3.org/1999/xlink" height="180.55px" width="144.45px" xmlns="http://www.w3.org/2000/svg">
  <g transform="matrix(1.0, 0.0, 0.0, 1.0, 71.65, 180.75)">
    <use height="180.55" transform="matrix(1.0, 0.0, 0.0, 1.0, -71.65, -180.75)" width="144.45" xlink:href="#decoration144-shape0"/>
  </g>
  <defs>
    <g id="decoration144-shape0" transform="matrix(1.0, 0.0, 0.0, 1.0, 71.65, 180.75)">
      <path d="M-4.6 -103.65 L-5.85 -108.9 -5.45 -112.15 -4.6 -103.65 M-2.85 -108.85 L-3.1 -113.45 -1.15 -106.2 Q0.25 -102.0 2.3 -98.0 -0.55 -101.85 -2.0 -106.05 L-2.85 -108.85 M-5.45 -69.35 Q-7.7 -65.6 -8.15 -61.4 L-8.05 -66.5 -5.45 -69.35" fill="#326209" fill-rule="evenodd" stroke="none"/>
      <path d="M51.75 -28.95 L43.75 -34.85 43.7 -29.25 Q39.55 -33.75 34.2 -38.05 33.1 -30.5 28.3 -26.4 23.6 -30.7 20.3 -35.45 19.2 -27.9 14.5 -25.65 14.15 -30.45 12.45 -33.85 7.45 -26.5 2.95 -25.95 5.3 -28.3 6.15 -31.75 L3.95 -29.1 4.0 -31.6 2.1 -27.8 Q1.15 -32.65 -2.25 -37.25 -3.5 -32.35 -2.35 -27.8 -5.35 -29.15 -7.7 -31.25 -9.75 -33.1 -11.25 -35.55 -16.6 -29.6 -24.5 -26.45 L-22.55 -30.95 Q-29.65 -26.7 -37.85 -24.25 L-33.8 -33.0 Q-39.85 -28.6 -47.15 -26.3 L-42.55 -33.25 -49.45 -28.7 -43.15 -36.95 Q-38.4 -40.1 -34.2 -44.0 L-42.3 -30.8 Q-35.55 -34.55 -29.85 -40.0 -30.65 -34.3 -32.75 -29.6 -23.7 -32.65 -16.7 -37.45 L-19.75 -30.4 Q-14.35 -34.2 -10.75 -38.55 -9.05 -33.95 -3.65 -29.85 -4.95 -34.15 -3.0 -39.85 1.1 -36.3 2.8 -30.25 3.05 -35.05 2.05 -40.2 5.15 -36.4 5.45 -32.3 L8.6 -38.8 Q8.85 -33.15 5.95 -28.05 L12.75 -36.65 Q14.85 -32.55 15.4 -27.95 18.25 -32.65 19.65 -38.4 23.3 -32.8 28.25 -28.2 32.85 -33.55 33.1 -40.95 38.95 -37.0 43.0 -31.55 L40.55 -39.95 Q44.0 -37.3 48.05 -35.0 L50.3 -31.25 51.75 -28.95 M5.25 -27.2 L5.95 -28.05 5.25 -27.2 M-47.9 -8.25 L-51.25 -4.05 -67.4 -4.4 Q-57.6 -5.2 -47.9 -8.25 M-12.95 -6.05 L-11.2 -4.3 -15.05 -4.3 -12.95 -6.05 M-8.5 -4.3 L-10.25 -7.7 Q-8.85 -5.9 -6.95 -4.3 L-8.5 -4.3 M4.55 -4.4 L6.45 -6.05 5.7 -4.4 4.55 -4.4 M17.9 -4.45 L20.45 -6.4 21.2 -4.5 17.9 -4.45 M23.25 -4.5 L25.6 -7.65 Q27.8 -5.9 30.75 -4.55 L23.25 -4.5 M36.25 -4.6 L34.1 -8.05 Q36.9 -5.95 40.2 -4.6 L36.25 -4.6 M53.7 -4.7 Q51.55 -7.15 50.1 -10.1 L56.35 -4.7 53.7 -4.7 M60.0 -4.75 L59.55 -4.75 58.95 -4.7 58.3 -4.7 57.05 -4.7 53.5 -9.2 Q56.05 -6.65 60.0 -4.75 M-40.4 -4.9 L-44.9 -4.4 Q-41.3 -5.9 -38.7 -8.05 L-40.4 -4.9" fill="#2b5607" fill-rule="evenodd" stroke="none"/>
      <path d="M-49.45 -28.7 L-42.55 -33.25 -47.15 -26.3 Q-39.85 -28.6 -33.8 -33.0 L-37.85 -24.25 Q-29.65 -26.7 -22.55 -30.95 L-24.5 -26.45 Q-16.6 -29.6 -11.25 -35.55 -9.75 -33.1 -7.7 -31.25 -5.35 -29.15 -2.35 -27.8 -3.5 -32.35 -2.25 -37.25 1.15 -32.65 2.1 -27.8 L4.0 -31.6 3.95 -29.1 6.15 -31.75 Q5.3 -28.3 2.95 -25.95 7.45 -26.5 12.45 -33.85 14.15 -30.45 14.5 -25.65 19.2 -27.9 20.3 -35.45 23.6 -30.7 28.3 -26.4 33.1 -30.5 34.2 -38.05 39.55 -33.75 43.7 -29.25 L43.75 -34.85 51.75 -28.95 53.85 -25.85 44.85 -32.45 Q45.1 -29.3 44.0 -26.55 40.5 -31.15 34.95 -35.75 33.35 -28.3 28.3 -24.15 25.0 -28.55 20.9 -32.9 18.4 -24.65 12.8 -23.6 13.0 -26.85 11.55 -29.9 7.2 -24.9 1.45 -23.7 L2.45 -26.9 1.5 -25.35 Q0.45 -30.1 -1.7 -33.5 -2.05 -29.3 -1.1 -25.1 -5.3 -27.15 -8.2 -30.05 -10.05 -31.9 -11.45 -34.1 -19.1 -25.45 -27.1 -23.9 L-25.6 -27.7 Q-32.8 -23.35 -41.05 -21.3 L-36.95 -29.25 Q-42.55 -26.0 -49.7 -24.35 L-47.05 -28.85 -51.0 -26.75 -49.45 -28.7 Q-53.2 -25.65 -55.75 -25.05 -52.65 -28.8 -48.9 -36.1 -47.7 -36.9 -46.45 -37.75 L-50.15 -32.8 Q-46.5 -34.7 -43.15 -36.95 L-49.45 -28.7 M50.3 -31.25 L48.05 -35.0 Q49.95 -33.95 52.05 -32.95 L46.35 -38.85 Q49.45 -36.7 52.8 -34.75 55.35 -29.8 60.15 -25.75 54.65 -28.1 50.3 -31.25 M-71.5 -4.2 Q-53.55 -7.7 -38.25 -20.45 L-40.95 -16.8 -47.9 -8.25 Q-57.6 -5.2 -67.4 -4.4 L-71.5 -4.2 M-52.65 -2.35 Q-40.7 -7.2 -34.4 -13.3 -26.85 -8.2 -24.95 -1.25 -26.3 -3.3 -29.4 -4.85 L-42.15 -1.75 -40.4 -4.9 -38.7 -8.05 Q-41.3 -5.9 -44.9 -4.4 -48.3 -3.1 -52.65 -2.35 M-24.55 -0.35 Q-16.35 -3.8 -14.05 -7.8 L-12.95 -6.05 -15.05 -4.3 Q-18.7 -1.7 -24.55 -0.35 M-10.25 -7.7 L-11.2 -9.2 -12.0 -12.35 -1.85 -1.0 Q-4.8 -2.4 -6.95 -4.3 -8.85 -5.9 -10.25 -7.7 M25.6 -7.65 L24.7 -9.85 Q28.15 -6.8 32.55 -4.55 35.0 -3.3 37.65 -2.25 33.8 -3.2 30.75 -4.55 27.8 -5.9 25.6 -7.65 M34.1 -8.05 Q33.3 -8.6 32.5 -9.3 38.0 -6.4 44.2 -4.65 49.8 -3.05 55.9 -2.35 47.1 -1.75 40.2 -4.6 36.9 -5.95 34.1 -8.05 M72.65 -6.55 Q66.55 -5.2 60.0 -4.75 56.05 -6.65 53.5 -9.2 L53.1 -9.6 Q51.6 -11.05 50.55 -12.75 55.5 -9.1 60.05 -7.25 62.95 -6.15 72.65 -6.55 M-37.0 -9.8 L-38.7 -8.05 -37.0 -9.8" fill="#326209" fill-rule="evenodd" stroke="none"/>
      <path d="M-51.0 -26.75 L-47.05 -28.85 -49.7 -24.35 Q-42.55 -26.0 -36.95 -29.25 L-41.05 -21.3 Q-32.8 -23.35 -25.6 -27.7 L-27.1 -23.9 Q-19.1 -25.45 -11.45 -34.1 -10.05 -31.9 -8.2 -30.05 -5.3 -27.15 -1.1 -25.1 -2.05 -29.3 -1.7 -33.5 0.45 -30.1 1.5 -25.35 L2.45 -26.9 1.45 -23.7 Q7.2 -24.9 11.55 -29.9 13.0 -26.85 12.8 -23.6 18.4 -24.65 20.9 -32.9 25.0 -28.55 28.3 -24.15 33.35 -28.3 34.95 -35.75 40.5 -31.15 44.0 -26.55 45.1 -29.3 44.85 -32.45 L53.85 -25.85 Q55.65 -23.15 57.9 -20.55 64.0 -13.3 72.65 -6.55 62.95 -6.15 60.05 -7.25 55.5 -9.1 50.55 -12.75 51.6 -11.05 53.1 -9.6 L53.5 -9.2 57.05 -4.7 58.7 -2.65 56.35 -4.7 50.1 -10.1 Q51.55 -7.15 53.7 -4.7 L55.9 -2.35 Q49.8 -3.05 44.2 -4.65 38.0 -6.4 32.5 -9.3 33.3 -8.6 34.1 -8.05 L36.25 -4.6 37.65 -2.25 Q35.0 -3.3 32.55 -4.55 28.15 -6.8 24.7 -9.85 L25.6 -7.65 23.25 -4.5 20.95 -1.5 Q21.45 -3.1 21.2 -4.5 L20.45 -6.4 17.9 -4.45 Q13.45 -1.8 6.45 -0.45 7.8 -2.35 8.55 -4.4 L8.6 -4.65 3.1 -1.5 Q4.75 -2.85 5.7 -4.4 L6.45 -6.05 4.55 -4.4 Q1.7 -2.3 -1.85 -1.0 L-12.0 -12.35 -11.2 -9.2 -10.25 -7.7 -8.5 -4.3 -7.2 -1.75 Q-9.55 -2.95 -11.2 -4.3 L-12.95 -6.05 -14.05 -7.8 Q-16.35 -3.8 -24.55 -0.35 L-24.95 -1.25 Q-26.85 -8.2 -34.4 -13.3 -40.7 -7.2 -52.65 -2.35 L-51.25 -4.05 -47.9 -8.25 -40.95 -16.8 -38.25 -20.45 Q-53.55 -7.7 -71.5 -4.2 -63.55 -12.05 -56.2 -20.55 L-51.0 -26.75 M7.0 -8.15 L6.45 -6.05 7.0 -8.15 M8.85 -6.5 L8.6 -4.65 8.85 -6.5 M48.5 -11.45 L50.1 -10.1 48.5 -11.45 M19.55 -7.65 L20.45 -6.4 19.55 -7.65" fill="url(#decoration144-gradient0)" fill-rule="evenodd" stroke="none"/>
      <path d="M51.75 -28.95 L50.3 -31.25 48.05 -35.0 M5.95 -28.05 L5.25 -27.2 M-51.0 -26.75 L-56.2 -20.55 Q-63.55 -12.05 -71.5 -4.2 M-40.95 -16.8 L-47.9 -8.25 -51.25 -4.05 -52.65 -2.35 M-14.05 -7.8 L-12.95 -6.05 -11.2 -4.3 Q-9.55 -2.95 -7.2 -1.75 L-8.5 -4.3 -10.25 -7.7 -11.2 -9.2 M-1.85 -1.0 Q1.7 -2.3 4.55 -4.4 L6.45 -6.05 7.0 -8.15 M5.7 -4.4 L6.45 -6.05 M17.9 -4.45 Q13.45 -1.8 6.45 -0.45 7.8 -2.35 8.55 -4.4 L8.6 -4.65 3.1 -1.5 Q4.75 -2.85 5.7 -4.4 M8.6 -4.65 L8.85 -6.5 M21.2 -4.5 L20.45 -6.4 17.9 -4.45 21.2 -4.5 Q21.45 -3.1 20.95 -1.5 L23.25 -4.5 25.6 -7.65 M37.65 -2.25 L36.25 -4.6 34.1 -8.05 Q33.3 -8.6 32.5 -9.3 M55.9 -2.35 L53.7 -4.7 Q51.55 -7.15 50.1 -10.1 L48.5 -11.45 M40.2 -4.6 L36.25 -4.6 M40.2 -4.6 Q36.9 -5.95 34.1 -8.05 M37.65 -2.25 Q33.8 -3.2 30.75 -4.55 L23.25 -4.5 M30.75 -4.55 Q27.8 -5.9 25.6 -7.65 M20.45 -6.4 L19.55 -7.65 M52.8 -34.75 Q55.35 -29.8 60.15 -25.75 54.65 -28.1 50.3 -31.25 M51.75 -28.95 L53.85 -25.85 Q55.65 -23.15 57.9 -20.55 64.0 -13.3 72.65 -6.55 66.55 -5.2 60.0 -4.75 56.05 -6.65 53.5 -9.2 L57.05 -4.7 58.7 -2.65 56.35 -4.7 53.7 -4.7 M59.55 -4.75 L58.95 -4.7 58.3 -4.7 M53.5 -9.2 L53.1 -9.6 Q51.6 -11.05 50.55 -12.75 M55.9 -2.35 L56.75 -1.65 M56.35 -4.7 L50.1 -10.1 M55.9 -2.35 Q47.1 -1.75 40.2 -4.6 M-48.9 -36.1 Q-52.65 -28.8 -55.75 -25.05 -53.2 -25.65 -49.45 -28.7 L-43.15 -36.95 M-51.0 -26.75 L-49.45 -28.7 M-67.4 -4.4 L-71.5 -4.2 M-44.9 -4.4 Q-48.3 -3.1 -52.65 -2.35 M-51.25 -4.05 L-67.4 -4.4 Q-57.6 -5.2 -47.9 -8.25 M-24.95 -1.25 Q-26.3 -3.3 -29.4 -4.85 L-42.15 -1.75 -40.4 -4.9 -38.7 -8.05 -37.0 -9.8 M-44.9 -4.4 Q-41.3 -5.9 -38.7 -8.05 M-12.95 -6.05 L-15.05 -4.3 -11.2 -4.3 M-1.85 -1.0 Q-4.8 -2.4 -6.95 -4.3 L-8.5 -4.3 M-6.95 -4.3 Q-8.85 -5.9 -10.25 -7.7 M-15.05 -4.3 Q-18.7 -1.7 -24.55 -0.35" fill="none" stroke="#000000" stroke-linecap="round" stroke-linejoin="round" stroke-opacity="0.3019608" stroke-width="0.30000000000000004"/>
      <path d="M60.0 -4.75 L59.55 -4.75" fill="none" stroke="#00ff00" stroke-linecap="round" stroke-linejoin="round" stroke-width="0.05"/>
      <path d="M-37.25 -63.0 Q-37.5 -58.7 -36.05 -54.75 -29.35 -56.2 -24.35 -58.3 L-20.55 -60.05 -22.65 -56.35 Q-15.7 -58.45 -9.75 -62.2 L-8.3 -55.4 Q-4.9 -59.2 -2.6 -64.3 -1.1 -57.1 3.95 -53.85 7.2 -57.15 7.05 -65.8 12.8 -56.25 22.25 -54.0 L19.75 -61.55 Q23.45 -58.05 28.95 -56.0 L26.3 -63.9 Q29.5 -60.1 30.65 -55.95 L32.15 -61.15 39.05 -56.25 40.4 -54.15 32.85 -59.4 Q31.85 -55.6 30.85 -53.95 24.95 -55.55 22.05 -58.2 L24.3 -52.4 Q15.25 -52.85 8.45 -60.35 7.75 -54.55 4.25 -51.5 -1.65 -53.6 -2.7 -60.6 -5.55 -55.95 -9.95 -51.9 -9.6 -55.75 -10.95 -59.35 -18.05 -54.6 -26.1 -53.85 L-23.8 -57.35 Q-29.95 -53.2 -37.65 -51.75 -39.75 -55.35 -39.3 -59.3 L-38.3 -61.05 -37.25 -63.0 -38.3 -61.05 Q-42.8 -58.05 -47.9 -57.9 -45.0 -60.2 -38.45 -72.25 L-34.9 -72.5 -31.85 -73.4 -42.3 -62.35 Q-38.4 -64.6 -35.1 -67.15 L-37.25 -63.0 M36.5 -60.55 L30.7 -73.95 33.8 -73.95 Q40.4 -64.45 47.6 -61.25 41.95 -61.8 38.9 -63.3 L44.5 -56.6 Q39.25 -57.9 36.5 -60.55 M37.4 -64.15 L38.9 -63.3 37.4 -64.15" fill="#326209" fill-rule="evenodd" stroke="none"/>
      <path d="M39.05 -56.25 L32.15 -61.15 30.65 -55.95 Q29.5 -60.1 26.3 -63.9 L28.95 -56.0 Q23.45 -58.05 19.75 -61.55 L22.25 -54.0 Q12.8 -56.25 7.05 -65.8 7.2 -57.15 3.95 -53.85 -1.1 -57.1 -2.6 -64.3 -4.9 -59.2 -8.3 -55.4 L-9.75 -62.2 Q-15.7 -58.45 -22.65 -56.35 L-20.55 -60.05 -24.35 -58.3 Q-29.35 -56.2 -36.05 -54.75 -37.5 -58.7 -37.25 -63.0 L-35.1 -67.15 Q-38.4 -64.6 -42.3 -62.35 L-31.85 -73.4 22.1 -77.75 30.7 -73.95 36.5 -60.55 39.05 -56.25" fill="#2b5607" fill-rule="evenodd" stroke="none"/>
      <path d="M-39.3 -59.3 Q-39.75 -55.35 -37.65 -51.75 -29.95 -53.2 -23.8 -57.35 L-26.1 -53.85 Q-18.05 -54.6 -10.95 -59.35 -9.6 -55.75 -9.95 -51.9 -5.55 -55.95 -2.7 -60.6 -1.65 -53.6 4.25 -51.5 7.75 -54.55 8.45 -60.35 15.25 -52.85 24.3 -52.4 L22.05 -58.2 Q24.95 -55.55 30.85 -53.95 31.85 -55.6 32.85 -59.4 L40.4 -54.15 Q48.3 -42.4 63.85 -34.05 L52.8 -34.75 Q49.45 -36.7 46.35 -38.85 L52.05 -32.95 Q49.95 -33.95 48.05 -35.0 44.0 -37.3 40.55 -39.95 L43.0 -31.55 Q38.95 -37.0 33.1 -40.95 32.85 -33.55 28.25 -28.2 23.3 -32.8 19.65 -38.4 18.25 -32.65 15.4 -27.95 14.85 -32.55 12.75 -36.65 L5.95 -28.05 Q8.85 -33.15 8.6 -38.8 L5.45 -32.3 Q5.15 -36.4 2.05 -40.2 3.05 -35.05 2.8 -30.25 1.1 -36.3 -3.0 -39.85 -4.95 -34.15 -3.65 -29.85 -9.05 -33.95 -10.75 -38.55 -14.35 -34.2 -19.75 -30.4 L-16.7 -37.45 Q-23.7 -32.65 -32.75 -29.6 -30.65 -34.3 -29.85 -40.0 -35.55 -34.55 -42.3 -30.8 L-34.2 -44.0 Q-38.4 -40.1 -43.15 -36.95 -46.5 -34.7 -50.15 -32.8 L-46.45 -37.75 Q-47.7 -36.9 -48.9 -36.1 -53.05 -33.65 -61.3 -33.15 -47.65 -43.05 -39.3 -59.3 M28.8 -43.55 L33.1 -40.95 28.8 -43.55 M10.25 -40.75 L12.75 -36.65 10.25 -40.75 M8.25 -42.05 L8.6 -38.8 8.25 -42.05 M1.3 -43.15 L2.05 -40.2 1.3 -43.15 M17.3 -42.4 L19.65 -38.4 17.3 -42.4 M37.1 -42.9 L40.55 -39.95 37.1 -42.9 M46.35 -38.85 Q41.05 -42.55 36.6 -46.9 41.05 -42.55 46.35 -38.85 M-31.8 -46.25 L-34.2 -44.0 -31.8 -46.25 M-28.4 -41.5 L-29.85 -40.0 -28.4 -41.5 M-9.1 -40.6 L-10.75 -38.55 -9.1 -40.6 M-12.3 -40.85 L-16.7 -37.45 -12.3 -40.85 M-1.9 -42.8 L-3.0 -39.85 -1.9 -42.8 M-45.0 -38.85 L-46.45 -37.75 -45.0 -38.85" fill="url(#decoration144-gradient1)" fill-rule="evenodd" stroke="none"/>
      <path d="M-37.25 -63.0 L-38.3 -61.05 -39.3 -59.3 M40.4 -54.15 L39.05 -56.25 36.5 -60.55 30.7 -73.95 M-35.1 -67.15 L-37.25 -63.0 M38.9 -63.3 L37.4 -64.15 M33.1 -40.95 L28.8 -43.55 M40.4 -54.15 Q48.3 -42.4 63.85 -34.05 L52.8 -34.75 Q49.45 -36.7 46.35 -38.85 L52.05 -32.95 Q49.95 -33.95 48.05 -35.0 44.0 -37.3 40.55 -39.95 L43.0 -31.55 Q38.95 -37.0 33.1 -40.95 32.85 -33.55 28.25 -28.2 23.3 -32.8 19.65 -38.4 18.25 -32.65 15.4 -27.95 14.85 -32.55 12.75 -36.65 L5.95 -28.05 Q8.85 -33.15 8.6 -38.8 L5.45 -32.3 Q5.15 -36.4 2.05 -40.2 3.05 -35.05 2.8 -30.25 1.1 -36.3 -3.0 -39.85 -4.95 -34.15 -3.65 -29.85 -9.05 -33.95 -10.75 -38.55 -14.35 -34.2 -19.75 -30.4 L-16.7 -37.45 Q-23.7 -32.65 -32.75 -29.6 -30.65 -34.3 -29.85 -40.0 -35.55 -34.55 -42.3 -30.8 L-34.2 -44.0 Q-38.4 -40.1 -43.15 -36.95 -46.5 -34.7 -50.15 -32.8 L-46.45 -37.75 Q-47.7 -36.9 -48.9 -36.1 -53.05 -33.65 -61.3 -33.15 -47.65 -43.05 -39.3 -59.3 M19.65 -38.4 L17.3 -42.4 M2.05 -40.2 L1.3 -43.15 M8.6 -38.8 L8.25 -42.05 M12.75 -36.65 L10.25 -40.75 M36.5 -60.55 Q39.25 -57.9 44.5 -56.6 L38.9 -63.3 Q41.95 -61.8 47.6 -61.25 40.4 -64.45 33.8 -73.95 M36.6 -46.9 Q41.05 -42.55 46.35 -38.85 M40.55 -39.95 L37.1 -42.9 M-38.45 -72.25 Q-45.0 -60.2 -47.9 -57.9 -42.8 -58.05 -38.3 -61.05 M-46.45 -37.75 L-45.0 -38.85 M-3.0 -39.85 L-1.9 -42.8 M-16.7 -37.45 L-12.3 -40.85 M-10.75 -38.55 L-9.1 -40.6 M-29.85 -40.0 L-28.4 -41.5 M-34.2 -44.0 L-31.8 -46.25" fill="none" stroke="#000000" stroke-linecap="round" stroke-linejoin="round" stroke-opacity="0.3019608" stroke-width="0.30000000000000004"/>
      <path d="M20.85 -102.75 Q19.75 -105.5 18.8 -108.35 L18.6 -108.85 17.0 -114.1 Q19.65 -112.5 22.35 -109.95 25.8 -100.75 31.75 -96.2 23.8 -99.2 20.85 -102.75 M-26.4 -108.8 Q-27.45 -105.7 -27.85 -102.45 L-29.15 -99.6 Q-33.1 -97.4 -39.4 -96.05 -30.45 -102.1 -26.4 -108.8 M-30.65 -96.0 Q-26.25 -98.75 -22.65 -102.65 L-24.2 -98.8 Q-18.45 -101.3 -14.45 -105.15 L-13.2 -102.4 Q-11.1 -98.25 -7.8 -95.35 L-5.35 -104.35 -3.15 -96.35 Q-1.15 -99.6 -1.2 -103.4 L3.1 -96.95 Q4.4 -99.8 4.55 -102.95 5.5 -98.6 4.45 -94.0 9.15 -96.7 9.9 -104.85 12.0 -101.9 13.05 -99.0 14.85 -101.25 14.5 -103.8 L20.0 -98.2 21.65 -100.9 22.4 -99.15 20.35 -95.95 Q18.9 -98.45 15.35 -100.95 15.05 -98.1 12.55 -95.85 L10.4 -101.1 Q9.0 -94.35 3.65 -92.55 L3.7 -95.95 2.35 -94.0 -0.7 -99.35 Q-0.9 -95.8 -2.75 -92.9 L-5.65 -99.65 -7.75 -90.95 Q-13.75 -95.55 -16.15 -100.95 -22.5 -96.8 -26.7 -95.35 L-25.5 -98.2 -32.05 -92.95 -30.65 -96.0 M35.05 -73.45 Q37.05 -69.7 38.0 -66.2 L38.6 -63.45 Q34.95 -72.3 28.35 -78.7 31.65 -75.65 35.05 -73.45 M30.0 -70.6 L31.25 -61.55 Q30.0 -66.15 24.35 -71.45 L23.8 -71.95 Q23.55 -73.2 23.45 -74.55 L28.95 -68.85 26.25 -74.75 Q28.0 -72.6 30.0 -70.6 M17.65 -68.05 Q19.3 -62.4 21.45 -57.7 16.65 -63.0 14.3 -68.85 13.4 -71.05 12.85 -73.35 L16.65 -69.15 17.65 -68.05 M6.35 -72.0 L6.6 -68.55 6.25 -64.1 5.5 -73.6 6.35 -72.0 M4.3 -58.2 Q0.45 -62.65 -1.2 -67.95 L-1.75 -70.15 -0.2 -73.85 Q-0.2 -70.9 0.35 -68.05 1.4 -62.8 4.3 -58.2 M-18.3 -61.55 L-14.9 -67.65 Q-23.0 -61.95 -32.0 -59.65 -26.7 -61.75 -20.2 -65.55 -13.75 -69.3 -8.55 -73.65 -9.35 -71.85 -12.4 -68.25 L-18.3 -61.55 M-32.45 -65.7 L-32.05 -69.65 -31.75 -71.45 -29.65 -73.5 -32.45 -65.7 M-36.6 -70.65 Q-39.3 -68.5 -41.5 -67.15 -45.75 -64.55 -54.85 -65.9 -41.9 -68.45 -37.3 -72.4 -35.1 -74.3 -33.15 -76.35 L-31.15 -78.8 -32.8 -73.9 -35.75 -71.3 -36.6 -70.65 M-11.05 -70.65 L-14.45 -67.95 -14.9 -67.65 -14.45 -67.95 -11.05 -70.65" fill="#326209" fill-rule="evenodd" stroke="none"/>
      <path d="M18.6 -108.85 L18.8 -108.35 Q19.75 -105.5 20.85 -102.75 L21.65 -100.9 20.0 -98.2 14.5 -103.8 Q14.85 -101.25 13.05 -99.0 12.0 -101.9 9.9 -104.85 9.15 -96.7 4.45 -94.0 5.5 -98.6 4.55 -102.95 4.4 -99.8 3.1 -96.95 L-1.2 -103.4 Q-1.15 -99.6 -3.15 -96.35 L-5.35 -104.35 -7.8 -95.35 Q-11.1 -98.25 -13.2 -102.4 L-14.45 -105.15 Q-18.45 -101.3 -24.2 -98.8 L-22.65 -102.65 Q-26.25 -98.75 -30.65 -96.0 L-29.15 -99.6 -27.85 -102.45 Q-27.45 -105.7 -26.4 -108.8 L-18.5 -115.35 17.0 -114.1 18.6 -108.85" fill="#2b5607" fill-rule="evenodd" stroke="none"/>
      <path d="M25.25 -76.0 L26.25 -74.75 25.25 -76.0 M-32.05 -92.95 L-25.5 -98.2 -26.7 -95.35 Q-22.5 -96.8 -16.15 -100.95 -13.75 -95.55 -7.75 -90.95 L-5.65 -99.65 -2.75 -92.9 Q-0.9 -95.8 -0.7 -99.35 L2.35 -94.0 3.7 -95.95 3.65 -92.55 Q9.0 -94.35 10.4 -101.1 L12.55 -95.85 Q15.05 -98.1 15.35 -100.95 18.9 -98.45 20.35 -95.95 L22.4 -99.15 Q30.25 -82.2 48.05 -69.25 40.55 -70.8 37.35 -72.2 36.15 -72.75 35.05 -73.45 31.65 -75.65 28.35 -78.7 34.95 -72.3 38.6 -63.45 36.9 -64.6 35.35 -65.85 32.45 -68.05 30.0 -70.6 28.0 -72.6 26.25 -74.75 L28.95 -68.85 23.45 -74.55 Q23.55 -73.2 23.8 -71.95 L23.9 -71.3 Q25.05 -65.05 28.1 -59.75 22.4 -63.55 17.65 -68.05 L16.65 -69.15 12.85 -73.35 Q13.4 -71.05 14.3 -68.85 16.65 -63.0 21.45 -57.7 13.1 -62.85 8.65 -68.65 7.35 -70.3 6.35 -72.0 L5.5 -73.6 6.25 -64.1 Q5.65 -60.9 4.3 -58.2 1.4 -62.8 0.35 -68.05 -0.2 -70.9 -0.2 -73.85 L-1.75 -70.15 -2.9 -67.85 Q-5.0 -63.85 -7.65 -60.3 L-7.55 -63.45 Q-7.1 -67.65 -4.85 -71.4 L-7.45 -68.55 -8.4 -67.6 Q-13.15 -63.1 -18.3 -61.55 L-12.4 -68.25 Q-9.35 -71.85 -8.55 -73.65 -13.75 -69.3 -20.2 -65.55 -26.7 -61.75 -32.0 -59.65 -32.55 -62.65 -32.45 -65.7 L-29.65 -73.5 -31.75 -71.45 -33.25 -70.2 -34.5 -69.2 Q-37.8 -66.65 -41.7 -64.4 L-36.6 -70.65 -35.75 -71.3 -32.8 -73.9 -31.15 -78.8 -33.15 -76.35 Q-35.1 -74.3 -37.3 -72.4 -41.9 -68.45 -54.85 -65.9 -41.75 -76.2 -32.05 -92.95" fill="url(#decoration144-gradient2)" fill-rule="evenodd" stroke="none"/>
      <path d="M20.85 -102.75 Q19.75 -105.5 18.8 -108.35 L18.6 -108.85 M-27.85 -102.45 L-29.15 -99.6 -30.65 -96.0 M21.65 -100.9 L20.85 -102.75 Q23.8 -99.2 31.75 -96.2 25.8 -100.75 22.35 -109.95 M22.4 -99.15 L21.65 -100.9 M26.25 -74.75 L25.25 -76.0 M22.4 -99.15 Q30.25 -82.2 48.05 -69.25 40.55 -70.8 37.35 -72.2 36.15 -72.75 35.05 -73.45 37.05 -69.7 38.0 -66.2 L38.6 -63.45 Q36.9 -64.6 35.35 -65.85 32.45 -68.05 30.0 -70.6 L31.25 -61.55 Q30.0 -66.15 24.35 -71.45 L23.8 -71.95 23.9 -71.3 Q25.05 -65.05 28.1 -59.75 22.4 -63.55 17.65 -68.05 19.3 -62.4 21.45 -57.7 13.1 -62.85 8.65 -68.65 7.35 -70.3 6.35 -72.0 L6.6 -68.55 6.25 -64.1 Q5.65 -60.9 4.3 -58.2 0.45 -62.65 -1.2 -67.95 L-1.75 -70.15 -2.9 -67.85 Q-5.0 -63.85 -7.65 -60.3 L-7.55 -63.45 M-4.85 -71.4 L-7.45 -68.55 -8.4 -67.6 Q-13.15 -63.1 -18.3 -61.55 L-14.9 -67.65 Q-23.0 -61.95 -32.0 -59.65 -32.55 -62.65 -32.45 -65.7 L-32.05 -69.65 -31.75 -71.45 -33.25 -70.2 -34.5 -69.2 Q-37.8 -66.65 -41.7 -64.4 L-36.6 -70.65 Q-39.3 -68.5 -41.5 -67.15 -45.75 -64.55 -54.85 -65.9 -41.75 -76.2 -32.05 -92.95 L-30.65 -96.0 M12.85 -73.35 L16.65 -69.15 17.65 -68.05 M5.5 -73.6 L6.35 -72.0 M23.8 -71.95 Q23.55 -73.2 23.45 -74.55 M26.25 -74.75 Q28.0 -72.6 30.0 -70.6 M35.05 -73.45 Q31.65 -75.65 28.35 -78.7 M-32.8 -73.9 L-35.75 -71.3 -36.6 -70.65 M-31.75 -71.45 L-29.65 -73.5 M-1.75 -70.15 L-0.2 -73.85 M-14.9 -67.65 L-14.45 -67.95 -11.05 -70.65 M-29.15 -99.6 Q-33.1 -97.4 -39.4 -96.05 -30.45 -102.1 -26.4 -108.8" fill="none" stroke="#000000" stroke-linecap="round" stroke-linejoin="round" stroke-opacity="0.3019608" stroke-width="0.30000000000000004"/>
      <path d="M19.9 -98.65 Q16.25 -102.7 13.5 -107.15 L12.0 -109.85 13.65 -100.2 9.35 -109.55 9.3 -107.25 Q9.05 -100.9 7.05 -95.1 L6.7 -99.95 Q7.0 -103.95 6.25 -107.35 5.35 -110.85 3.05 -116.1 L3.5 -109.3 3.6 -107.2 Q3.55 -102.55 2.95 -98.2 0.7 -102.35 -0.7 -106.7 -1.95 -110.45 -2.7 -114.2 L-2.5 -109.5 -2.5 -108.85 -2.45 -106.4 Q-2.6 -102.55 -3.0 -98.6 L-4.3 -104.15 -5.15 -112.9 -5.6 -109.55 -5.65 -109.35 -6.55 -104.7 Q-7.5 -100.5 -8.9 -96.4 -12.65 -100.25 -13.3 -104.8 L-13.5 -107.5 Q-12.05 -113.2 -11.45 -119.65 -14.65 -109.05 -17.75 -105.15 -20.0 -102.35 -22.55 -99.7 L-19.25 -108.55 -16.0 -117.05 -23.1 -106.0 Q-26.05 -101.85 -29.6 -98.0 L-29.15 -100.8 Q-28.75 -104.2 -27.55 -107.4 L-25.7 -111.75 -28.95 -108.25 Q-32.8 -104.6 -39.9 -101.35 L-28.8 -111.85 Q-24.45 -117.05 -22.3 -123.65 -25.5 -119.25 -32.65 -112.35 -39.15 -106.2 -44.2 -103.9 -12.2 -136.95 -2.25 -180.6 8.0 -139.1 35.05 -104.85 25.55 -106.95 22.25 -109.55 26.75 -103.95 29.65 -102.3 25.95 -103.55 24.8 -104.45 21.55 -107.05 18.65 -109.9 L15.7 -113.0 Q17.25 -110.4 18.35 -107.0 19.45 -103.3 19.9 -98.65 M10.15 -113.65 L12.0 -109.85 10.15 -113.65 M19.1 -112.85 Q20.25 -111.2 22.25 -109.55 20.25 -111.2 19.1 -112.85 M8.15 -112.2 L9.35 -109.55 8.15 -112.2" fill="url(#decoration144-gradient3)" fill-rule="evenodd" stroke="none"/>
      <path d="M6.7 -99.95 Q6.05 -103.55 4.45 -107.25 L3.5 -109.3 3.05 -116.1 Q5.35 -110.85 6.25 -107.35 7.0 -103.95 6.7 -99.95 M2.95 -98.2 Q-1.1 -103.85 -2.5 -108.85 L-2.5 -109.5 -2.7 -114.2 Q-1.95 -110.45 -0.7 -106.7 0.7 -102.35 2.95 -98.2 M-4.3 -104.15 L-5.65 -109.35 -5.6 -109.55 -5.15 -112.9 -4.3 -104.15 M-13.5 -107.5 L-15.9 -104.95 Q-19.3 -101.8 -22.55 -99.7 -20.0 -102.35 -17.75 -105.15 -14.65 -109.05 -11.45 -119.65 -12.05 -113.2 -13.5 -107.5 M-19.25 -108.55 L-21.25 -105.55 Q-24.85 -101.2 -29.6 -98.0 -26.05 -101.85 -23.1 -106.0 L-16.0 -117.05 -19.25 -108.55 M-28.8 -111.85 L-31.55 -109.95 Q-37.35 -106.2 -44.2 -103.9 -39.15 -106.2 -32.65 -112.35 -25.5 -119.25 -22.3 -123.65 -24.45 -117.05 -28.8 -111.85 M18.65 -109.9 L19.25 -107.35 19.35 -106.8 Q20.1 -102.6 19.9 -98.65 19.45 -103.3 18.35 -107.0 17.25 -110.4 15.7 -113.0 L18.65 -109.9" fill="#326209" fill-rule="evenodd" stroke="none"/>
      <path d="M19.9 -98.65 Q16.25 -102.7 13.5 -107.15 L12.0 -109.85 13.65 -100.2 9.35 -109.55 9.3 -107.25 Q9.05 -100.9 7.05 -95.1 L6.7 -99.95 Q6.05 -103.55 4.45 -107.25 L3.5 -109.3 3.6 -107.2 Q3.55 -102.55 2.95 -98.2 -1.1 -103.85 -2.5 -108.85 L-2.45 -106.4 Q-2.6 -102.55 -3.0 -98.6 L-4.3 -104.15 -5.65 -109.35 -6.55 -104.7 Q-7.5 -100.5 -8.9 -96.4 -12.65 -100.25 -13.3 -104.8 L-13.5 -107.5 -15.9 -104.95 Q-19.3 -101.8 -22.55 -99.7 L-19.25 -108.55 -21.25 -105.55 Q-24.85 -101.2 -29.6 -98.0 L-29.15 -100.8 Q-28.75 -104.2 -27.55 -107.4 L-25.7 -111.75 -28.95 -108.25 Q-32.8 -104.6 -39.9 -101.35 L-28.8 -111.85 -31.55 -109.95 Q-37.35 -106.2 -44.2 -103.9 -12.2 -136.95 -2.25 -180.6 8.0 -139.1 35.05 -104.85 25.55 -106.95 22.25 -109.55 26.75 -103.95 29.65 -102.3 25.95 -103.55 24.8 -104.45 21.55 -107.05 18.65 -109.9 L19.25 -107.35 19.35 -106.8 Q20.1 -102.6 19.9 -98.65 M15.7 -113.0 L18.65 -109.9 M12.0 -109.85 L10.15 -113.65 M3.5 -109.3 L3.05 -116.1 M9.35 -109.55 L8.15 -112.2 M22.25 -109.55 Q20.25 -111.2 19.1 -112.85 M-2.7 -114.2 L-2.5 -109.5 -2.5 -108.85 M-5.15 -112.9 L-5.6 -109.55 -5.65 -109.35" fill="none" stroke="#000000" stroke-linecap="round" stroke-linejoin="round" stroke-opacity="0.3019608" stroke-width="0.30000000000000004"/>
      <path d="M-40.85 -108.55 Q-40.45 -110.0 -38.4 -113.3 -32.75 -122.7 -29.8 -125.25 -26.85 -127.8 -21.2 -135.35 -17.8 -141.95 -17.05 -134.6 -16.7 -131.95 -16.35 -131.4 -15.85 -131.5 -15.4 -132.4 -15.0 -133.2 -14.0 -133.2 -12.6 -133.2 -12.0 -130.7 -11.4 -128.25 -10.85 -128.25 -8.9 -128.25 -7.2 -130.25 L-5.25 -132.75 Q-4.15 -133.65 -2.4 -134.0 L0.9 -134.7 2.4 -135.7 4.05 -136.95 6.85 -139.95 Q9.35 -141.95 11.7 -140.4 13.35 -139.3 15.8 -135.8 L24.8 -123.55 32.55 -112.55 Q31.8 -111.9 31.45 -111.9 27.15 -111.9 23.45 -115.45 19.75 -119.0 19.0 -119.0 17.5 -119.0 15.95 -116.65 14.35 -114.35 13.95 -114.35 13.35 -114.35 12.15 -115.15 10.9 -115.95 10.35 -115.95 L9.15 -115.3 Q8.2 -114.65 7.75 -114.65 6.05 -114.65 5.55 -116.65 5.05 -118.7 3.7 -118.7 2.4 -118.7 1.85 -116.05 1.25 -113.4 0.3 -113.4 -0.6 -113.4 -1.85 -115.4 -3.05 -117.45 -3.9 -117.45 -4.85 -117.45 -6.35 -115.55 -7.9 -113.7 -8.55 -113.7 L-9.7 -113.85 Q-10.25 -114.2 -9.95 -115.55 L-11.25 -115.55 -13.05 -114.0 -15.6 -114.0 -15.3 -118.4 Q-16.55 -118.8 -18.45 -117.1 L-20.55 -115.25 Q-23.05 -115.25 -23.35 -117.85 L-23.7 -122.45 -25.5 -122.45 -32.75 -115.05 Q-38.45 -109.35 -40.85 -108.55 M-48.6 -73.65 Q-48.15 -75.05 -46.65 -76.7 L-42.25 -81.35 Q-41.75 -81.9 -39.2 -86.05 -36.55 -89.85 -35.0 -89.85 -32.9 -89.85 -31.5 -86.85 -30.1 -83.85 -27.75 -83.85 L-11.2 -87.15 Q-8.4 -87.15 -5.55 -85.5 L-2.8 -83.6 5.8 -83.65 Q11.15 -84.45 14.45 -85.75 17.4 -86.95 19.1 -88.8 L20.85 -90.35 23.05 -91.65 Q25.5 -91.45 26.3 -90.4 26.85 -89.15 27.4 -88.65 L39.05 -80.0 42.3 -77.4 39.85 -77.0 Q37.55 -77.0 33.7 -78.45 L29.4 -79.9 Q28.75 -79.9 28.6 -78.2 L28.55 -75.9 27.45 -76.1 26.5 -76.35 Q25.85 -76.35 25.25 -75.9 24.65 -75.45 24.05 -75.45 L23.0 -75.6 22.0 -76.35 Q22.2 -75.7 21.4 -74.5 20.55 -73.2 19.65 -73.2 18.9 -73.2 16.6 -74.4 14.35 -75.65 13.5 -75.65 12.95 -75.65 12.25 -74.05 11.6 -72.5 10.8 -72.5 9.65 -72.5 8.65 -73.35 7.45 -74.4 6.75 -74.55 6.1 -72.5 4.7 -72.5 3.3 -72.5 2.45 -74.4 1.55 -76.35 1.1 -76.35 0.25 -76.35 -2.05 -74.4 -4.35 -72.5 -4.7 -72.5 -6.35 -72.5 -7.2 -74.95 -8.05 -77.45 -8.6 -77.45 -12.15 -77.45 -16.35 -73.95 -20.6 -70.5 -22.3 -70.5 -24.55 -70.5 -25.5 -71.55 -26.45 -72.65 -26.5 -75.2 -27.15 -74.5 -27.65 -74.3 L-28.85 -74.1 -30.3 -74.3 -30.3 -75.65 Q-27.6 -80.35 -27.6 -81.35 L-27.85 -82.4 -28.7 -82.4 Q-35.8 -80.15 -38.4 -78.35 -41.55 -75.95 -43.0 -75.1 -45.4 -73.65 -47.7 -73.65 L-48.6 -73.65 M-56.75 -38.85 L-52.8 -43.8 -48.65 -48.65 -44.8 -52.7 Q-43.3 -54.3 -40.05 -52.35 -36.85 -50.4 -31.75 -50.05 -26.7 -49.75 -22.15 -51.0 -17.6 -52.3 -16.05 -52.3 -12.85 -52.3 -9.55 -50.4 L-6.6 -48.3 3.75 -48.3 7.65 -49.15 12.0 -49.4 21.05 -49.5 Q30.9 -48.5 33.45 -51.25 36.0 -54.0 38.6 -54.3 41.2 -54.65 48.05 -48.45 L51.85 -44.9 52.25 -44.5 Q55.0 -41.65 52.3 -41.95 49.4 -42.25 45.55 -44.45 41.65 -46.7 40.45 -46.7 39.2 -46.7 38.4 -45.0 37.55 -43.35 36.5 -43.35 35.75 -43.35 33.5 -44.1 31.2 -44.9 29.95 -44.9 29.3 -44.9 27.75 -42.65 26.25 -40.4 24.8 -40.4 23.25 -40.4 21.25 -42.4 19.25 -44.45 17.5 -44.45 16.15 -44.45 16.05 -42.4 15.95 -40.4 14.4 -40.4 12.85 -40.4 11.25 -41.85 L9.55 -43.35 8.1 -43.0 Q7.25 -42.65 6.5 -42.65 L4.35 -43.1 2.45 -43.55 Q1.7 -43.55 0.55 -42.55 L-0.65 -41.55 Q-1.0 -41.55 -1.7 -42.2 L-2.45 -42.9 Q-2.9 -42.9 -3.8 -41.4 -4.7 -39.95 -5.05 -39.95 -6.05 -39.95 -6.2 -40.9 L-6.3 -43.35 -7.2 -43.35 -8.6 -42.15 Q-9.65 -41.3 -10.65 -41.3 -11.5 -41.3 -11.9 -42.2 L-12.35 -43.55 -13.7 -43.55 -17.15 -41.85 Q-20.05 -40.4 -21.2 -40.4 -23.95 -40.4 -25.25 -42.4 -26.5 -44.45 -26.9 -44.45 -28.0 -44.45 -28.95 -43.7 L-30.75 -42.0 -32.1 -42.0 -32.1 -44.0 Q-31.7 -44.5 -31.1 -45.75 L-30.3 -47.15 -30.3 -48.5 -34.45 -45.85 -39.3 -42.9 -42.65 -42.9 Q-42.5 -43.45 -42.75 -43.7 L-43.1 -44.0 Q-45.15 -42.65 -48.85 -40.85 -53.6 -38.6 -55.55 -38.6 L-56.75 -38.85 M-68.6 -9.2 Q-68.55 -10.65 -66.55 -13.15 -64.85 -15.3 -63.0 -16.75 -61.7 -17.75 -57.95 -20.8 -54.25 -23.9 -48.85 -23.7 -43.45 -23.5 -39.05 -21.1 -34.7 -18.75 -33.0 -16.8 -33.8 -15.5 -29.0 -16.15 -24.25 -16.8 -22.05 -17.9 -19.85 -19.0 -16.95 -19.4 L-10.15 -19.15 Q-6.15 -18.55 -5.4 -18.0 L0.8 -18.0 2.3 -18.35 Q5.3 -19.9 6.75 -19.9 7.35 -19.9 12.35 -17.45 17.4 -15.0 20.65 -15.0 33.75 -15.0 39.75 -19.6 45.75 -24.2 49.05 -25.75 52.35 -27.3 55.9 -24.3 L65.0 -16.9 Q67.65 -14.6 69.35 -12.5 L66.25 -11.9 63.4 -11.7 57.7 -13.7 Q51.95 -15.7 50.2 -15.7 48.5 -15.7 47.5 -12.45 46.5 -9.2 44.55 -9.2 42.35 -9.2 38.3 -10.75 34.25 -12.35 33.8 -12.35 33.0 -12.35 31.2 -11.1 29.4 -9.9 28.4 -9.9 27.45 -9.9 26.35 -10.45 L25.05 -11.0 23.7 -10.1 22.45 -9.2 Q21.9 -9.2 21.1 -9.75 L20.0 -10.55 Q19.85 -9.95 18.3 -9.0 16.85 -8.1 16.15 -8.1 13.95 -8.1 11.9 -11.2 9.9 -14.35 9.55 -14.35 9.1 -14.35 4.1 -11.65 -0.9 -9.0 -2.45 -9.0 -5.85 -9.0 -13.0 -13.9 L-16.6 -10.1 Q-19.55 -7.2 -20.65 -7.2 -22.45 -7.2 -23.5 -9.55 -24.55 -11.9 -25.25 -11.9 -26.15 -11.9 -27.25 -11.1 -28.3 -10.35 -29.85 -10.35 -31.5 -10.35 -32.15 -11.35 L-33.25 -14.15 -37.7 -12.3 -41.1 -10.8 Q-42.7 -10.8 -43.25 -14.35 -43.8 -17.95 -44.9 -17.95 -46.3 -17.95 -56.2 -13.55 -66.1 -9.2 -68.15 -9.2 L-68.6 -9.2" fill="#ffffff" fill-rule="evenodd" stroke="none"/>
      <path d="M32.55 -112.55 L33.15 -111.55 Q35.0 -108.4 30.3 -109.05 25.55 -109.7 22.65 -113.0 19.7 -116.3 18.85 -116.3 L17.6 -116.1 Q16.75 -115.7 16.75 -113.45 16.75 -111.5 14.9 -111.5 14.2 -111.5 13.35 -111.9 L12.3 -112.35 12.05 -111.05 Q11.7 -110.25 9.2 -113.0 8.6 -105.7 5.9 -110.95 3.35 -118.05 2.7 -115.65 3.35 -101.9 0.85 -105.8 -0.65 -108.15 -1.85 -113.2 -2.8 -114.15 -2.55 -109.4 -2.4 -104.7 -3.9 -106.1 -4.4 -105.85 -4.5 -110.15 -4.6 -114.5 -5.5 -113.8 -6.4 -113.15 -6.55 -109.25 -6.8 -105.4 -9.1 -105.0 -11.45 -104.65 -11.2 -107.6 -10.9 -110.6 -11.55 -111.95 -12.15 -113.3 -12.6 -111.6 -13.05 -109.95 -15.85 -107.35 -18.65 -104.8 -18.5 -107.65 -18.4 -110.55 -17.6 -113.25 -16.8 -115.95 -18.15 -114.85 -19.5 -113.75 -20.9 -110.75 -22.35 -107.75 -24.3 -106.85 -26.3 -105.95 -26.25 -107.5 -26.2 -109.15 -25.35 -112.35 L-24.2 -117.05 Q-23.35 -120.9 -25.9 -119.15 L-29.45 -116.5 -37.3 -109.8 Q-41.65 -106.05 -40.85 -108.55 -38.45 -109.35 -32.75 -115.05 L-25.5 -122.45 -23.7 -122.45 -23.35 -117.85 Q-23.05 -115.25 -20.55 -115.25 L-18.45 -117.1 Q-16.55 -118.8 -15.3 -118.4 L-15.6 -114.0 -13.05 -114.0 -11.25 -115.55 -9.95 -115.55 Q-10.25 -114.2 -9.7 -113.85 L-8.55 -113.7 Q-7.9 -113.7 -6.35 -115.55 -4.85 -117.45 -3.9 -117.45 -3.05 -117.45 -1.85 -115.4 -0.6 -113.4 0.3 -113.4 1.25 -113.4 1.85 -116.05 2.4 -118.7 3.7 -118.7 5.05 -118.7 5.55 -116.65 6.05 -114.65 7.75 -114.65 8.2 -114.65 9.15 -115.3 L10.35 -115.95 Q10.9 -115.95 12.15 -115.15 13.35 -114.35 13.95 -114.35 14.35 -114.35 15.95 -116.65 17.5 -119.0 19.0 -119.0 19.75 -119.0 23.45 -115.45 27.15 -111.9 31.45 -111.9 31.8 -111.9 32.55 -112.55 M42.3 -77.4 Q45.6 -74.45 45.75 -72.75 45.95 -70.4 41.5 -72.4 L37.3 -74.25 35.05 -75.55 30.6 -78.35 30.05 -77.85 30.9 -76.65 31.25 -75.65 Q31.25 -74.25 29.75 -74.25 L28.45 -74.35 27.15 -75.15 26.75 -73.75 Q26.4 -72.65 25.3 -72.65 24.0 -72.65 22.65 -74.0 L22.5 -71.4 Q22.1 -69.25 20.55 -69.25 17.3 -69.25 15.7 -71.2 13.55 -73.8 12.85 -74.1 L12.7 -74.05 12.65 -73.65 13.3 -70.8 13.25 -69.75 Q13.0 -69.0 12.1 -69.0 9.85 -69.0 7.95 -71.05 7.0 -72.1 6.3 -73.5 L6.55 -71.55 Q6.45 -70.0 4.5 -70.0 1.85 -70.0 0.7 -72.0 0.0 -73.2 0.0 -74.4 L0.0 -74.55 Q-0.65 -74.3 -1.8 -72.05 -2.75 -70.15 -6.1 -70.15 -9.35 -70.15 -10.05 -71.1 -10.4 -71.6 -10.15 -72.15 L-9.8 -73.6 -9.25 -74.9 -9.15 -75.1 -9.1 -75.15 -10.35 -74.8 Q-11.6 -74.4 -18.6 -69.05 -25.65 -63.7 -27.0 -65.0 -28.35 -66.3 -28.35 -68.05 L-28.25 -70.65 -28.2 -71.8 -27.35 -73.15 -27.35 -73.35 Q-29.25 -72.4 -30.1 -72.4 -31.95 -72.4 -32.35 -73.45 L-32.35 -74.65 Q-32.35 -76.05 -31.2 -77.55 L-28.75 -80.9 -28.75 -81.25 -37.15 -75.3 Q-44.4 -70.15 -45.95 -70.15 -47.95 -70.15 -48.6 -71.2 L-48.85 -72.4 -48.6 -73.65 -47.7 -73.65 Q-45.4 -73.65 -43.0 -75.1 -41.55 -75.95 -38.4 -78.35 -35.8 -80.15 -28.7 -82.4 L-27.85 -82.4 -27.6 -81.35 Q-27.6 -80.35 -30.3 -75.65 L-30.3 -74.3 -28.85 -74.1 -27.65 -74.3 Q-27.15 -74.5 -26.5 -75.2 -26.45 -72.65 -25.5 -71.55 -24.55 -70.5 -22.3 -70.5 -20.6 -70.5 -16.35 -73.95 -12.15 -77.45 -8.6 -77.45 -8.05 -77.45 -7.2 -74.95 -6.35 -72.5 -4.7 -72.5 -4.35 -72.5 -2.05 -74.4 0.25 -76.35 1.1 -76.35 1.55 -76.35 2.45 -74.4 3.3 -72.5 4.7 -72.5 6.1 -72.5 6.75 -74.55 7.45 -74.4 8.65 -73.35 9.65 -72.5 10.8 -72.5 11.6 -72.5 12.25 -74.05 12.95 -75.65 13.5 -75.65 14.35 -75.65 16.6 -74.4 18.9 -73.2 19.65 -73.2 20.55 -73.2 21.4 -74.5 22.2 -75.7 22.0 -76.35 L23.0 -75.6 24.05 -75.45 Q24.65 -75.45 25.25 -75.9 25.85 -76.35 26.5 -76.35 L27.45 -76.1 28.55 -75.9 28.6 -78.2 Q28.75 -79.9 29.4 -79.9 L33.7 -78.45 Q37.55 -77.0 39.85 -77.0 L42.3 -77.4 M52.25 -44.5 Q55.6 -41.25 57.0 -39.35 59.15 -36.5 54.6 -38.4 L45.9 -42.1 41.6 -43.9 Q40.45 -43.9 39.7 -42.45 38.95 -41.0 36.75 -41.0 34.7 -41.0 33.7 -41.8 L33.5 -41.95 32.2 -42.3 30.05 -43.0 Q30.5 -40.4 30.35 -39.15 30.1 -36.9 25.3 -36.9 22.4 -36.9 19.7 -39.15 L16.55 -42.5 17.1 -39.65 Q17.1 -37.35 15.0 -37.35 12.85 -37.35 10.65 -39.0 9.3 -40.1 8.25 -41.5 L7.75 -39.95 Q7.2 -38.9 5.75 -38.9 3.65 -38.9 3.0 -40.0 2.8 -40.4 2.65 -41.9 L2.55 -42.15 Q1.8 -41.7 1.85 -39.95 1.9 -38.5 0.35 -38.5 -0.65 -38.5 -1.45 -39.7 L-2.25 -41.15 Q-2.75 -40.9 -3.4 -38.75 -3.95 -36.9 -5.3 -36.9 -7.5 -36.9 -7.9 -38.75 -8.15 -39.7 -8.0 -41.25 L-8.1 -41.4 -9.2 -40.15 Q-10.0 -39.35 -11.75 -39.35 -13.9 -39.35 -14.15 -39.9 L-14.0 -40.85 -14.15 -41.25 Q-15.85 -39.65 -17.5 -38.6 -20.6 -36.65 -24.5 -36.65 -27.2 -36.65 -27.95 -37.65 -28.25 -38.0 -28.25 -38.9 -28.25 -39.8 -27.85 -40.8 L-27.15 -43.0 -27.25 -43.1 Q-28.45 -41.85 -29.75 -40.8 -32.2 -38.75 -33.9 -38.75 -35.0 -38.75 -35.25 -39.4 L-35.3 -40.15 Q-35.3 -41.3 -34.1 -43.35 L-32.3 -46.3 -32.3 -46.5 Q-33.7 -45.35 -37.45 -42.65 -41.4 -39.8 -41.7 -39.8 -42.85 -39.8 -43.25 -40.5 L-43.5 -41.5 -47.25 -39.0 Q-51.3 -36.65 -54.3 -36.65 -56.5 -36.65 -57.0 -37.55 -57.25 -38.0 -57.05 -38.5 L-56.75 -38.85 -55.55 -38.6 Q-53.6 -38.6 -48.85 -40.85 -45.15 -42.65 -43.1 -44.0 L-42.75 -43.7 Q-42.5 -43.45 -42.65 -42.9 L-39.3 -42.9 -34.45 -45.85 -30.3 -48.5 -30.3 -47.15 -31.1 -45.75 Q-31.7 -44.5 -32.1 -44.0 L-32.1 -42.0 -30.75 -42.0 -28.95 -43.7 Q-28.0 -44.45 -26.9 -44.45 -26.5 -44.45 -25.25 -42.4 -23.95 -40.4 -21.2 -40.4 -20.05 -40.4 -17.15 -41.85 L-13.7 -43.55 -12.35 -43.55 -11.9 -42.2 Q-11.5 -41.3 -10.65 -41.3 -9.65 -41.3 -8.6 -42.15 L-7.2 -43.35 -6.3 -43.35 -6.2 -40.9 Q-6.05 -39.95 -5.05 -39.95 -4.7 -39.95 -3.8 -41.4 -2.9 -42.9 -2.45 -42.9 L-1.7 -42.2 Q-1.0 -41.55 -0.65 -41.55 L0.55 -42.55 Q1.7 -43.55 2.45 -43.55 L4.35 -43.1 6.5 -42.65 Q7.25 -42.65 8.1 -43.0 L9.55 -43.35 11.25 -41.85 Q12.85 -40.4 14.4 -40.4 15.95 -40.4 16.05 -42.4 16.15 -44.45 17.5 -44.45 19.25 -44.45 21.25 -42.4 23.25 -40.4 24.8 -40.4 26.25 -40.4 27.75 -42.65 29.3 -44.9 29.95 -44.9 31.2 -44.9 33.5 -44.1 35.75 -43.35 36.5 -43.35 37.55 -43.35 38.4 -45.0 39.2 -46.7 40.45 -46.7 41.65 -46.7 45.55 -44.45 49.4 -42.25 52.3 -41.95 55.0 -41.65 52.25 -44.5 M69.35 -12.5 L69.65 -12.1 Q71.4 -9.85 70.35 -9.35 69.3 -8.85 66.55 -8.85 63.8 -8.85 58.2 -10.75 L52.75 -12.65 50.5 -12.6 50.5 -8.95 Q49.7 -6.1 45.55 -6.1 41.8 -6.1 38.6 -8.15 L35.6 -10.55 Q32.15 -10.6 32.25 -8.95 32.35 -7.25 30.3 -7.25 28.1 -7.25 26.35 -8.5 25.0 -9.75 24.65 -9.75 24.0 -9.75 23.4 -8.35 22.8 -7.0 21.0 -7.0 19.75 -7.0 19.25 -7.5 L18.65 -8.25 18.3 -7.8 18.05 -7.6 Q17.05 -6.75 15.0 -6.75 11.25 -6.75 9.9 -8.6 L9.0 -11.15 Q6.85 -11.5 4.1 -8.9 1.15 -6.1 -2.25 -6.1 -4.35 -6.1 -8.25 -8.55 -12.15 -11.0 -13.9 -11.0 L-15.5 -8.05 Q-17.15 -5.15 -20.6 -5.15 -23.8 -5.15 -24.9 -7.2 -26.0 -9.25 -26.75 -9.25 L-28.45 -8.8 -30.55 -8.4 Q-33.4 -8.4 -34.2 -10.1 -34.55 -10.95 -34.4 -11.85 L-34.5 -12.0 -37.85 -9.95 Q-41.0 -8.1 -42.25 -8.1 -44.3 -8.1 -44.75 -9.0 L-44.65 -10.5 Q-44.5 -11.9 -43.6 -14.55 -42.7 -17.2 -48.0 -15.0 L-59.8 -10.4 Q-66.35 -8.0 -67.1 -7.9 -67.9 -7.85 -68.25 -8.15 -68.65 -8.5 -68.6 -9.1 L-68.6 -9.2 -68.15 -9.2 Q-66.1 -9.2 -56.2 -13.55 -46.3 -17.95 -44.9 -17.95 -43.8 -17.95 -43.25 -14.35 -42.7 -10.8 -41.1 -10.8 L-37.7 -12.3 -33.25 -14.15 -32.15 -11.35 Q-31.5 -10.35 -29.85 -10.35 -28.3 -10.35 -27.25 -11.1 -26.15 -11.9 -25.25 -11.9 -24.55 -11.9 -23.5 -9.55 -22.45 -7.2 -20.65 -7.2 -19.55 -7.2 -16.6 -10.1 L-13.0 -13.9 Q-5.85 -9.0 -2.45 -9.0 -0.9 -9.0 4.1 -11.65 9.1 -14.35 9.55 -14.35 9.9 -14.35 11.9 -11.2 13.95 -8.1 16.15 -8.1 16.85 -8.1 18.3 -9.0 19.85 -9.95 20.0 -10.55 L21.1 -9.75 Q21.9 -9.2 22.45 -9.2 L23.7 -10.1 25.05 -11.0 26.35 -10.45 Q27.45 -9.9 28.4 -9.9 29.4 -9.9 31.2 -11.1 33.0 -12.35 33.8 -12.35 34.25 -12.35 38.3 -10.75 42.35 -9.2 44.55 -9.2 46.5 -9.2 47.5 -12.45 48.5 -15.7 50.2 -15.7 51.95 -15.7 57.7 -13.7 L63.4 -11.7 66.25 -11.9 69.35 -12.5" fill="#b1c3cd" fill-rule="evenodd" stroke="none"/>
      <path d="M21.4 -128.4 Q20.6 -127.9 20.15 -128.9 19.7 -129.9 20.35 -130.2 21.0 -130.55 21.6 -129.7 22.15 -128.85 21.4 -128.4 M21.7 -126.45 Q21.2 -127.25 21.85 -127.8 22.5 -128.35 22.9 -127.55 23.25 -126.75 22.75 -126.2 22.2 -125.7 21.7 -126.45 M24.05 -124.05 Q23.6 -123.85 23.3 -124.25 22.95 -124.65 23.45 -124.95 23.9 -125.3 24.2 -124.8 24.45 -124.25 24.05 -124.05 M10.95 -141.35 Q11.5 -141.65 11.8 -141.2 12.15 -140.75 11.45 -140.25 10.75 -139.75 10.55 -140.4 10.4 -141.05 10.95 -141.35 M12.95 -138.25 Q12.55 -139.15 13.15 -139.45 13.75 -139.75 14.3 -139.0 14.8 -138.2 14.1 -137.75 13.35 -137.3 12.95 -138.25 M15.15 -137.05 Q15.45 -137.3 15.65 -136.9 15.9 -136.5 15.6 -136.2 15.3 -135.95 15.05 -136.35 14.8 -136.75 15.15 -137.05 M4.6 -137.35 Q5.3 -136.3 4.35 -135.75 3.4 -135.15 2.85 -136.35 2.3 -137.55 3.1 -137.95 3.9 -138.35 4.6 -137.35 M8.4 -140.3 Q7.9 -140.0 7.5 -140.55 7.1 -141.05 7.7 -141.45 8.3 -141.85 8.6 -141.2 8.95 -140.55 8.4 -140.3 M6.45 -138.2 Q5.95 -137.7 5.5 -138.4 5.0 -139.1 5.65 -139.6 6.25 -140.15 6.6 -139.4 6.95 -138.65 6.45 -138.2 M0.15 -134.35 Q0.0 -135.0 0.55 -135.3 1.1 -135.6 1.4 -135.15 1.75 -134.7 1.05 -134.2 0.35 -133.7 0.15 -134.35 M18.9 -131.5 Q18.4 -131.15 18.25 -131.6 18.15 -132.05 18.5 -132.25 L19.15 -132.15 Q19.35 -131.85 18.9 -131.5 M17.3 -133.95 Q16.7 -133.65 16.25 -134.2 15.85 -134.75 16.5 -135.2 17.15 -135.6 17.5 -134.95 17.9 -134.25 17.3 -133.95 M31.4 -115.3 Q31.7 -114.7 31.2 -114.4 30.7 -114.15 30.35 -114.65 29.95 -115.15 30.5 -115.5 31.1 -115.9 31.4 -115.3 M33.55 -112.9 Q34.05 -112.3 33.0 -111.55 32.0 -110.8 31.75 -111.75 31.5 -112.7 32.3 -113.15 33.1 -113.55 33.55 -112.9 M29.75 -118.2 Q30.15 -117.3 29.55 -116.75 28.95 -116.15 28.4 -117.0 27.85 -117.85 28.55 -118.5 29.3 -119.1 29.75 -118.2 M28.0 -118.8 Q27.05 -118.2 26.5 -119.4 25.95 -120.6 26.75 -121.0 27.55 -121.4 28.25 -120.4 28.95 -119.35 28.0 -118.8 M25.65 -121.6 Q24.95 -121.1 24.75 -121.75 24.6 -122.4 25.15 -122.7 25.7 -123.0 26.0 -122.55 26.35 -122.1 25.65 -121.6 M42.7 -76.1 Q41.95 -75.75 41.55 -76.4 41.1 -77.1 41.8 -77.7 42.55 -78.3 43.0 -77.35 43.45 -76.45 42.7 -76.1 M41.45 -52.9 Q40.4 -52.25 39.95 -53.2 39.5 -54.15 40.4 -54.55 41.25 -54.95 41.9 -54.25 42.55 -53.55 41.45 -52.9 M42.85 -51.25 Q42.45 -52.05 43.2 -52.45 44.0 -52.85 44.5 -52.3 45.0 -51.7 44.1 -51.1 43.25 -50.45 42.85 -51.25 M45.1 -51.15 Q45.6 -51.5 46.05 -50.85 46.45 -50.25 45.75 -49.85 45.05 -49.45 44.8 -50.15 44.6 -50.85 45.1 -51.15 M21.05 -89.7 Q20.3 -89.2 19.8 -89.9 19.35 -90.6 20.0 -91.0 20.65 -91.45 21.25 -90.8 21.85 -90.2 21.05 -89.7 M22.4 -91.15 Q22.0 -91.75 22.65 -92.3 23.3 -92.85 23.75 -92.05 24.15 -91.2 23.5 -90.85 22.8 -90.55 22.4 -91.15 M28.6 -87.7 Q27.95 -87.1 27.4 -87.95 26.8 -88.8 27.65 -89.2 28.45 -89.55 28.85 -88.95 29.3 -88.3 28.6 -87.7 M26.1 -89.65 Q25.45 -89.2 25.05 -89.95 24.65 -90.7 25.35 -91.1 26.0 -91.5 26.4 -90.8 26.75 -90.1 26.1 -89.65 M37.85 -80.55 Q37.25 -80.0 36.8 -80.75 36.3 -81.5 37.0 -81.85 37.7 -82.15 38.1 -81.6 38.45 -81.1 37.85 -80.55 M31.7 -84.5 Q31.25 -85.2 32.0 -85.8 32.75 -86.45 33.25 -85.5 33.7 -84.55 32.95 -84.15 32.15 -83.8 31.7 -84.5 M34.4 -82.65 Q34.2 -83.1 34.6 -83.35 35.0 -83.6 35.2 -83.15 35.45 -82.75 35.05 -82.5 34.65 -82.25 34.4 -82.65 M39.3 -80.05 Q40.05 -80.45 40.65 -79.8 41.3 -79.15 40.45 -78.6 39.6 -78.05 39.1 -78.8 38.6 -79.6 39.3 -80.05 M29.3 -86.2 Q28.75 -87.0 29.55 -87.5 30.3 -87.95 31.0 -87.25 31.65 -86.55 30.75 -85.95 29.85 -85.35 29.3 -86.2 M18.95 -87.65 Q18.3 -87.1 17.8 -87.9 17.3 -88.7 18.05 -89.0 18.8 -89.35 19.15 -88.8 19.55 -88.25 18.95 -87.65 M16.3 -87.3 Q16.65 -86.6 16.0 -86.15 15.35 -85.7 14.95 -86.45 14.55 -87.2 15.25 -87.6 15.9 -88.0 16.3 -87.3 M9.1 -85.2 Q9.95 -85.7 10.7 -84.9 11.5 -84.1 10.45 -83.45 9.45 -82.8 8.85 -83.7 8.25 -84.65 9.1 -85.2 M7.35 -83.55 Q6.85 -83.15 6.5 -83.75 6.1 -84.3 6.65 -84.55 L7.5 -84.4 Q7.8 -84.0 7.35 -83.55 M0.2 -83.3 Q-0.05 -83.75 0.4 -84.1 0.85 -84.5 1.15 -83.9 1.45 -83.35 0.95 -83.1 0.5 -82.9 0.2 -83.3 M4.35 -82.6 Q3.7 -82.2 3.35 -82.85 3.0 -83.55 3.6 -83.9 4.25 -84.25 4.6 -83.65 4.95 -83.0 4.35 -82.6 M12.35 -84.35 Q11.95 -84.95 12.6 -85.5 13.25 -86.05 13.7 -85.25 14.1 -84.4 13.45 -84.05 12.75 -83.75 12.35 -84.35 M10.55 -49.8 Q11.0 -49.25 10.25 -48.7 9.45 -48.1 9.1 -48.85 8.7 -49.6 9.4 -49.95 L10.55 -49.8 M13.4 -49.6 Q13.8 -49.0 13.1 -48.6 12.4 -48.2 12.15 -48.9 11.95 -49.6 12.45 -49.9 12.95 -50.25 13.4 -49.6 M16.35 -50.3 Q16.75 -49.65 16.2 -49.25 15.7 -48.85 15.2 -49.5 14.7 -50.15 15.3 -50.55 15.95 -50.95 16.35 -50.3 M19.2 -50.05 Q19.65 -49.5 18.85 -49.05 18.05 -48.55 17.75 -49.25 17.4 -50.0 18.05 -50.3 18.7 -50.6 19.2 -50.05 M22.5 -50.05 Q23.1 -49.35 22.05 -48.6 21.0 -47.8 20.5 -48.8 20.0 -49.8 20.95 -50.25 21.9 -50.7 22.5 -50.05 M24.85 -49.7 Q25.3 -49.05 24.55 -48.6 23.8 -48.2 23.6 -48.95 23.35 -49.65 23.85 -50.0 24.4 -50.35 24.85 -49.7 M31.9 -50.6 Q32.5 -50.0 31.5 -49.4 30.55 -48.85 30.2 -49.7 29.8 -50.5 30.55 -50.9 31.35 -51.25 31.9 -50.6 M32.85 -50.95 Q32.55 -51.45 33.05 -51.7 L33.85 -51.6 Q34.2 -51.25 33.65 -50.8 33.1 -50.4 32.85 -50.95 M36.45 -53.95 Q36.9 -53.3 36.15 -52.85 35.4 -52.45 35.2 -53.2 34.95 -53.9 35.45 -54.25 36.0 -54.6 36.45 -53.95 M37.7 -53.8 Q37.0 -54.7 37.9 -55.3 38.8 -55.9 39.35 -54.95 39.9 -54.05 39.15 -53.45 38.45 -52.9 37.7 -53.8 M28.35 -48.0 Q27.65 -47.45 26.9 -48.35 26.2 -49.25 27.1 -49.85 28.0 -50.45 28.55 -49.5 29.1 -48.6 28.35 -48.0 M6.3 -48.55 Q6.0 -49.15 6.55 -49.4 7.05 -49.65 7.45 -49.2 7.85 -48.75 7.2 -48.35 6.55 -47.95 6.3 -48.55 M0.65 -48.0 Q0.4 -48.9 1.05 -49.3 1.7 -49.7 2.25 -48.95 2.8 -48.15 1.9 -47.6 0.95 -47.1 0.65 -48.0 M4.1 -47.4 Q3.5 -46.95 2.9 -47.7 2.3 -48.45 3.05 -48.95 3.8 -49.45 4.25 -48.7 4.7 -47.9 4.1 -47.4 M11.55 -18.95 Q12.0 -18.2 11.35 -17.75 10.65 -17.25 10.1 -17.85 9.6 -18.5 10.35 -19.1 11.1 -19.7 11.55 -18.95 M12.75 -16.45 Q12.3 -17.1 13.05 -17.4 13.85 -17.7 14.15 -17.1 14.45 -16.55 13.85 -16.2 13.2 -15.8 12.75 -16.45 M15.25 -15.45 Q14.65 -16.5 15.5 -16.95 16.35 -17.4 17.0 -16.45 17.65 -15.55 16.75 -14.95 15.85 -14.35 15.25 -15.45 M18.5 -14.65 Q17.9 -15.55 18.7 -16.0 19.5 -16.4 20.05 -15.55 20.6 -14.7 19.85 -14.2 19.05 -13.7 18.5 -14.65 M8.85 -18.95 Q8.25 -18.6 7.8 -19.3 7.35 -20.0 8.0 -20.35 8.6 -20.7 9.05 -20.05 9.45 -19.35 8.85 -18.95 M6.3 -18.8 Q5.7 -18.4 5.25 -19.15 4.85 -19.9 5.45 -20.2 6.05 -20.5 6.5 -19.85 6.9 -19.25 6.3 -18.8 M3.45 -18.65 Q3.8 -18.05 3.15 -17.65 2.5 -17.25 2.0 -17.95 1.55 -18.6 2.35 -18.9 3.15 -19.2 3.45 -18.65 M38.75 -19.05 Q38.3 -19.85 38.9 -20.15 39.55 -20.5 40.0 -19.85 40.45 -19.15 39.85 -18.75 39.2 -18.3 38.75 -19.05 M31.2 -15.6 Q30.75 -16.3 31.4 -16.65 32.0 -17.0 32.45 -16.35 32.85 -15.65 32.25 -15.25 31.65 -14.9 31.2 -15.6 M33.85 -15.8 Q33.4 -16.35 34.0 -16.85 34.65 -17.4 35.0 -16.75 35.4 -16.1 34.85 -15.7 34.3 -15.3 33.85 -15.8 M36.75 -17.45 Q36.3 -18.1 37.05 -18.4 37.85 -18.7 38.15 -18.1 38.45 -17.55 37.85 -17.2 37.2 -16.8 36.75 -17.45 M21.65 -14.55 Q21.2 -15.1 21.85 -15.65 22.5 -16.2 22.9 -15.5 23.3 -14.85 22.7 -14.4 22.1 -14.0 21.65 -14.55 M24.7 -15.95 Q25.7 -16.3 26.05 -15.6 26.4 -14.9 25.65 -14.4 24.85 -13.95 24.25 -14.75 23.7 -15.55 24.7 -15.95 M28.65 -15.1 Q28.1 -14.7 27.7 -15.35 27.35 -16.05 27.9 -16.3 28.4 -16.6 28.8 -16.05 29.2 -15.45 28.65 -15.1 M51.6 -44.2 Q51.2 -45.0 51.95 -45.35 52.7 -45.75 53.15 -45.2 53.65 -44.65 52.8 -44.05 52.0 -43.45 51.6 -44.2 M47.45 -47.7 Q46.85 -48.45 47.6 -48.95 48.35 -49.45 48.8 -48.7 49.25 -47.9 48.65 -47.4 48.05 -46.95 47.45 -47.7 M48.75 -46.25 Q48.4 -47.05 49.15 -47.4 49.85 -47.75 50.4 -47.15 51.0 -46.55 50.05 -46.0 49.15 -45.45 48.75 -46.25 M48.3 -25.4 Q48.65 -24.7 47.9 -24.2 47.1 -23.75 46.5 -24.55 45.95 -25.35 46.95 -25.75 47.95 -26.1 48.3 -25.4 M49.6 -26.65 Q50.4 -27.05 51.0 -26.2 51.6 -25.35 50.75 -24.75 49.95 -24.2 49.35 -25.2 48.75 -26.25 49.6 -26.65 M52.05 -26.1 Q51.6 -26.8 52.25 -27.15 52.85 -27.5 53.3 -26.85 53.7 -26.15 53.1 -25.75 52.5 -25.4 52.05 -26.1 M56.2 -25.5 Q56.6 -24.85 56.05 -24.45 L55.05 -24.55 Q54.6 -25.1 55.2 -25.6 55.85 -26.15 56.2 -25.5 M56.45 -22.95 Q56.0 -23.6 56.8 -23.9 57.6 -24.2 57.9 -23.65 58.25 -23.05 57.6 -22.65 56.95 -22.25 56.45 -22.95 M58.9 -20.6 Q58.35 -21.55 59.15 -21.9 59.9 -22.3 60.45 -21.5 61.0 -20.7 60.25 -20.2 59.45 -19.65 58.9 -20.6 M45.1 -22.0 L44.1 -22.1 Q43.65 -22.65 44.25 -23.15 44.9 -23.7 45.25 -23.05 45.65 -22.4 45.1 -22.0 M42.05 -21.0 Q41.45 -20.65 41.05 -21.3 40.6 -22.0 41.2 -22.35 41.8 -22.65 42.2 -22.0 42.6 -21.35 42.05 -21.0 M63.4 -19.45 Q63.85 -18.75 63.25 -18.35 62.6 -17.95 62.15 -18.7 61.65 -19.45 62.3 -19.8 62.95 -20.15 63.4 -19.45 M64.1 -16.6 Q63.75 -17.05 64.25 -17.5 64.8 -17.95 65.15 -17.4 65.45 -16.85 65.0 -16.5 L64.1 -16.6 M66.55 -14.05 Q66.1 -14.7 66.85 -15.0 67.65 -15.3 67.95 -14.7 68.25 -14.15 67.65 -13.8 67.0 -13.4 66.55 -14.05 M69.8 -13.3 Q70.2 -12.7 69.6 -12.25 69.0 -11.85 68.55 -12.6 68.15 -13.35 68.75 -13.65 69.35 -13.95 69.8 -13.3 M-19.7 -136.2 Q-20.45 -135.75 -20.85 -136.7 -21.25 -137.6 -20.65 -137.9 -20.05 -138.2 -19.5 -137.45 -19.0 -136.65 -19.7 -136.2 M-18.4 -137.55 Q-18.8 -138.15 -18.25 -138.6 -17.75 -139.05 -17.45 -138.45 -17.1 -137.8 -17.55 -137.35 -18.0 -136.95 -18.4 -137.55 M-12.15 -131.5 Q-12.55 -131.1 -12.95 -131.7 -13.35 -132.25 -12.85 -132.7 -12.35 -133.1 -12.05 -132.5 -11.75 -131.9 -12.15 -131.5 M-14.35 -132.3 Q-15.1 -131.85 -15.5 -132.8 -15.9 -133.7 -15.3 -134.0 -14.7 -134.3 -14.15 -133.55 -13.65 -132.75 -14.35 -132.3 M-16.95 -134.15 Q-17.55 -133.85 -18.0 -134.4 -18.4 -134.95 -17.75 -135.4 -17.1 -135.8 -16.75 -135.15 -16.35 -134.45 -16.95 -134.15 M-16.05 -131.6 Q-16.65 -131.15 -16.8 -131.7 -16.95 -132.25 -16.45 -132.5 L-15.7 -132.4 Q-15.45 -132.0 -16.05 -131.6 M-10.75 -128.1 Q-11.35 -127.8 -11.75 -128.35 -12.15 -128.9 -11.55 -129.3 -10.9 -129.7 -10.55 -129.05 -10.2 -128.4 -10.75 -128.1 M-1.8 -133.75 Q-2.4 -133.45 -2.85 -134.0 -3.25 -134.55 -2.6 -135.0 -1.95 -135.4 -1.6 -134.75 -1.2 -134.05 -1.8 -133.75 M-4.45 -132.55 Q-4.9 -132.15 -5.3 -132.75 -5.7 -133.35 -5.15 -133.8 -4.65 -134.25 -4.35 -133.65 -4.0 -133.0 -4.45 -132.55 M-7.3 -130.65 Q-7.75 -131.65 -7.1 -131.95 -6.45 -132.3 -5.85 -131.45 -5.3 -130.6 -6.05 -130.15 -6.85 -129.65 -7.3 -130.65 M-9.4 -128.3 Q-9.6 -129.0 -9.0 -129.35 -8.35 -129.65 -8.0 -129.15 -7.65 -128.7 -8.4 -128.1 -9.2 -127.55 -9.4 -128.3 M-24.0 -131.55 Q-24.5 -132.2 -23.75 -132.7 -23.0 -133.15 -22.55 -132.4 -22.15 -131.6 -22.85 -131.25 -23.5 -130.9 -24.0 -131.55 M-22.4 -134.25 Q-22.55 -134.9 -22.05 -135.15 -21.5 -135.45 -21.2 -135.0 -20.9 -134.6 -21.55 -134.1 -22.2 -133.65 -22.4 -134.25 M-28.85 -125.75 Q-28.35 -125.05 -29.45 -124.25 -30.55 -123.4 -30.85 -124.5 -31.15 -125.55 -30.25 -126.0 -29.4 -126.45 -28.85 -125.75 M-28.25 -127.0 Q-28.65 -127.9 -28.05 -128.2 -27.45 -128.5 -26.9 -127.75 -26.4 -126.95 -27.1 -126.5 -27.85 -126.05 -28.25 -127.0 M-25.7 -129.2 Q-26.15 -129.9 -25.55 -130.45 -24.9 -131.0 -24.55 -130.2 -24.15 -129.45 -24.7 -128.95 -25.2 -128.45 -25.7 -129.2 M-31.4 -122.35 Q-32.0 -122.05 -32.45 -122.6 -32.85 -123.15 -32.2 -123.6 -31.55 -124.0 -31.2 -123.35 -30.8 -122.65 -31.4 -122.35 M-33.0 -121.05 Q-32.65 -120.35 -33.1 -119.9 -33.6 -119.45 -34.05 -120.1 -34.5 -120.8 -33.9 -121.3 -33.35 -121.8 -33.0 -121.05 M-34.6 -117.95 Q-35.2 -117.55 -35.55 -118.3 -35.85 -119.05 -35.35 -119.3 -34.85 -119.55 -34.45 -118.9 -34.0 -118.3 -34.6 -117.95 M-36.55 -115.55 Q-37.35 -115.0 -37.55 -115.75 -37.75 -116.45 -37.15 -116.8 -36.5 -117.1 -36.15 -116.6 -35.8 -116.15 -36.55 -115.55 M-39.05 -114.4 Q-38.3 -114.85 -37.85 -114.1 -37.45 -113.3 -38.15 -112.95 -38.8 -112.6 -39.3 -113.25 -39.8 -113.9 -39.05 -114.4 M-39.3 -111.45 Q-38.95 -110.75 -39.4 -110.3 -39.9 -109.85 -40.35 -110.5 -40.8 -111.2 -40.2 -111.7 -39.65 -112.2 -39.3 -111.45 M-6.85 -86.85 Q-6.5 -86.15 -7.15 -85.7 -7.8 -85.25 -8.2 -86.0 -8.6 -86.75 -7.9 -87.15 -7.25 -87.55 -6.85 -86.85 M-15.25 -86.65 Q-14.9 -86.15 -15.5 -85.6 -16.1 -85.05 -16.55 -85.8 -17.05 -86.55 -16.35 -86.9 -15.65 -87.2 -15.25 -86.65 M-13.0 -87.0 Q-12.4 -86.4 -13.15 -85.9 -13.9 -85.45 -14.35 -86.1 -14.8 -86.8 -14.15 -87.2 -13.55 -87.6 -13.0 -87.0 M-19.85 -84.55 Q-20.4 -85.6 -19.45 -86.2 -18.45 -86.8 -17.9 -85.75 -17.35 -84.75 -18.3 -84.1 -19.25 -83.45 -19.85 -84.55 M-1.55 -83.05 Q-2.3 -82.6 -2.75 -83.25 -3.2 -83.95 -2.55 -84.35 -1.95 -84.75 -1.4 -84.15 -0.8 -83.55 -1.55 -83.05 M-4.6 -84.45 Q-5.15 -83.95 -5.65 -84.7 -6.1 -85.4 -5.45 -85.7 -4.75 -86.0 -4.4 -85.5 -4.05 -85.0 -4.6 -84.45 M-10.7 -86.55 Q-11.1 -87.1 -10.5 -87.65 -9.85 -88.15 -9.45 -87.35 -9.05 -86.55 -9.7 -86.25 -10.35 -85.95 -10.7 -86.55 M-38.35 -86.75 Q-38.0 -86.05 -38.65 -85.6 -39.3 -85.15 -39.7 -85.9 -40.1 -86.65 -39.4 -87.05 -38.75 -87.45 -38.35 -86.75 M-37.95 -88.45 Q-38.65 -89.55 -37.6 -90.0 -36.6 -90.5 -36.05 -89.7 -35.5 -88.9 -36.35 -88.15 -37.25 -87.35 -37.95 -88.45 M-31.7 -87.3 Q-32.3 -87.0 -32.7 -87.55 -33.05 -88.1 -32.45 -88.6 -31.85 -89.1 -31.45 -88.35 -31.1 -87.6 -31.7 -87.3 M-33.5 -89.45 Q-34.25 -88.95 -34.75 -89.65 -35.2 -90.35 -34.55 -90.75 -33.9 -91.2 -33.3 -90.55 -32.7 -89.95 -33.5 -89.45 M-40.45 -83.35 Q-41.2 -83.0 -41.6 -83.65 -42.05 -84.35 -41.35 -84.95 -40.6 -85.55 -40.15 -84.6 -39.7 -83.7 -40.45 -83.35 M-30.65 -85.8 Q-29.8 -86.3 -29.3 -85.4 -28.85 -84.5 -29.65 -83.95 -30.5 -83.4 -31.0 -84.35 -31.5 -85.25 -30.65 -85.8 M-24.4 -84.75 Q-23.95 -84.25 -24.5 -83.9 -25.1 -83.55 -25.45 -84.05 -25.8 -84.55 -25.3 -84.9 -24.8 -85.2 -24.4 -84.75 M-23.55 -84.3 Q-24.05 -85.1 -23.2 -85.85 -22.35 -86.55 -21.75 -85.45 -21.2 -84.35 -22.1 -83.9 -23.0 -83.5 -23.55 -84.3 M-28.2 -83.5 Q-28.45 -83.95 -28.05 -84.15 L-27.4 -84.0 Q-27.2 -83.7 -27.55 -83.35 -27.9 -83.05 -28.2 -83.5 M-39.2 -52.45 Q-38.75 -51.95 -39.5 -51.45 -40.25 -51.0 -40.6 -51.7 -40.9 -52.35 -40.3 -52.65 -39.65 -52.95 -39.2 -52.45 M-38.0 -50.25 Q-38.5 -51.25 -37.55 -51.7 -36.6 -52.15 -36.0 -51.5 -35.4 -50.8 -36.45 -50.05 -37.5 -49.25 -38.0 -50.25 M-31.45 -50.85 Q-30.8 -51.3 -30.4 -50.65 -30.0 -49.95 -30.5 -49.5 -31.05 -49.1 -31.6 -49.75 -32.1 -50.45 -31.45 -50.85 M-33.5 -49.7 Q-34.2 -49.3 -34.45 -50.0 -34.65 -50.7 -34.15 -51.0 -33.65 -51.35 -33.2 -50.7 -32.8 -50.1 -33.5 -49.7 M-21.3 -50.7 Q-22.15 -50.2 -22.45 -51.05 -22.75 -51.95 -22.1 -52.35 -21.5 -52.7 -20.95 -51.95 -20.4 -51.2 -21.3 -50.7 M-24.3 -49.65 Q-25.25 -48.95 -25.7 -49.85 -26.1 -50.75 -25.3 -51.15 -24.45 -51.6 -23.9 -50.95 -23.35 -50.35 -24.3 -49.65 M-26.7 -50.3 Q-26.25 -49.75 -27.05 -49.3 -27.85 -48.8 -28.15 -49.5 -28.5 -50.25 -27.85 -50.55 -27.2 -50.85 -26.7 -50.3 M-19.3 -51.55 Q-19.6 -51.95 -19.2 -52.2 -18.85 -52.45 -18.6 -52.05 -18.35 -51.65 -18.7 -51.4 -19.0 -51.15 -19.3 -51.55 M-16.35 -53.45 Q-15.5 -53.85 -14.85 -53.15 -14.2 -52.45 -15.3 -51.8 -16.35 -51.15 -16.8 -52.1 -17.25 -53.05 -16.35 -53.45 M-13.6 -51.3 Q-14.0 -52.15 -13.2 -52.55 L-11.9 -52.4 Q-11.35 -51.8 -12.25 -51.15 -13.15 -50.5 -13.6 -51.3 M-10.25 -51.0 Q-9.95 -51.2 -9.65 -50.8 -9.35 -50.35 -9.85 -50.1 -10.3 -49.8 -10.45 -50.3 -10.6 -50.75 -10.25 -51.0 M-6.7 -49.6 Q-6.15 -48.7 -6.85 -48.15 -7.55 -47.6 -8.25 -48.5 -8.95 -49.35 -8.1 -49.95 -7.2 -50.5 -6.7 -49.6 M-41.55 -81.25 Q-42.15 -80.85 -42.5 -81.4 -42.9 -81.95 -42.35 -82.25 -41.85 -82.6 -41.4 -82.1 -40.95 -81.6 -41.55 -81.25 M-48.35 -75.3 Q-48.65 -75.75 -48.2 -76.15 -47.7 -76.55 -47.4 -75.95 -47.05 -75.3 -47.55 -75.1 -48.05 -74.85 -48.35 -75.3 M-46.4 -77.05 Q-46.65 -77.5 -46.25 -77.75 -45.8 -78.05 -45.55 -77.6 -45.3 -77.15 -45.75 -76.85 -46.15 -76.55 -46.4 -77.05 M-43.45 -79.4 Q-43.85 -79.05 -44.2 -79.55 -44.55 -80.1 -44.05 -80.3 -43.55 -80.55 -43.3 -80.15 -43.05 -79.8 -43.45 -79.4 M-46.15 -50.75 Q-45.6 -50.15 -46.5 -49.5 -47.4 -48.85 -47.85 -49.65 -48.25 -50.5 -47.45 -50.9 -46.65 -51.35 -46.15 -50.75 M-45.75 -53.4 Q-45.0 -53.85 -44.35 -52.95 -43.7 -52.05 -44.75 -51.45 -45.85 -50.85 -46.15 -51.9 -46.5 -52.95 -45.75 -53.4 M-43.0 -52.8 Q-43.5 -53.45 -42.9 -53.85 -42.25 -54.25 -41.85 -53.6 -41.45 -52.95 -42.0 -52.55 -42.5 -52.15 -43.0 -52.8 M-49.5 -47.55 Q-49.8 -48.15 -49.25 -48.4 -48.75 -48.65 -48.35 -48.2 -47.95 -47.75 -48.6 -47.35 -49.25 -46.95 -49.5 -47.55 M-50.95 -45.1 Q-51.35 -44.75 -51.75 -45.25 -52.15 -45.8 -51.65 -46.1 -51.15 -46.4 -50.85 -45.9 -50.55 -45.4 -50.95 -45.1 M-52.55 -43.9 Q-51.95 -43.05 -52.95 -42.45 -53.95 -41.9 -54.25 -42.9 -54.55 -43.85 -53.85 -44.3 -53.15 -44.7 -52.55 -43.9 M-55.85 -41.75 Q-54.8 -42.25 -54.15 -41.5 -53.45 -40.75 -54.65 -39.9 -55.85 -39.0 -56.35 -40.1 -56.9 -41.2 -55.85 -41.75 M-66.55 -13.8 Q-65.85 -14.4 -65.4 -13.65 -64.95 -12.9 -65.6 -12.45 -66.25 -12.0 -66.75 -12.6 -67.25 -13.2 -66.55 -13.8 M-62.3 -16.95 Q-62.65 -16.7 -62.9 -17.15 -63.15 -17.6 -62.8 -17.75 -62.45 -17.95 -62.2 -17.55 -61.9 -17.2 -62.3 -16.95 M-63.9 -15.6 Q-63.55 -15.0 -64.2 -14.6 -64.85 -14.2 -65.35 -14.9 -65.8 -15.55 -65.0 -15.85 -64.2 -16.15 -63.9 -15.6 M-68.6 -10.95 Q-69.1 -11.7 -68.4 -12.1 -67.7 -12.45 -67.25 -11.75 -66.8 -11.0 -67.45 -10.55 -68.1 -10.15 -68.6 -10.95 M-45.4 -22.75 L-46.55 -22.85 Q-47.0 -23.45 -46.35 -24.0 -45.65 -24.6 -45.2 -23.9 -44.8 -23.2 -45.4 -22.75 M-44.6 -21.95 Q-45.15 -22.75 -44.15 -23.15 -43.15 -23.5 -42.8 -22.8 -42.45 -22.1 -43.2 -21.6 -44.0 -21.15 -44.6 -21.95 M-40.95 -22.6 Q-40.35 -22.9 -39.9 -22.25 -39.5 -21.65 -40.1 -21.2 -40.7 -20.8 -41.15 -21.55 -41.55 -22.3 -40.95 -22.6 M-49.65 -23.25 Q-50.1 -23.95 -49.5 -24.3 -48.9 -24.6 -48.5 -23.95 -48.1 -23.3 -48.65 -22.95 -49.25 -22.6 -49.65 -23.25 M-52.0 -22.95 Q-52.5 -22.6 -52.85 -23.2 -53.2 -23.8 -52.7 -24.05 -52.2 -24.3 -51.85 -23.8 -51.45 -23.3 -52.0 -22.95 M-54.75 -22.0 Q-55.4 -21.6 -55.9 -22.3 -56.35 -22.95 -55.55 -23.25 -54.75 -23.55 -54.45 -23.0 -54.1 -22.4 -54.75 -22.0 M-60.5 -19.55 Q-60.95 -20.25 -60.35 -20.6 -59.75 -20.9 -59.35 -20.25 -58.95 -19.6 -59.5 -19.25 -60.1 -18.9 -60.5 -19.55 M-58.7 -20.5 Q-59.35 -21.25 -58.45 -22.0 -57.55 -22.7 -57.0 -21.8 -56.45 -20.9 -57.25 -20.3 -58.1 -19.75 -58.7 -20.5 M-1.35 -47.75 Q-2.15 -47.15 -2.55 -47.9 -2.95 -48.7 -2.2 -49.05 -1.45 -49.45 -1.0 -48.9 -0.5 -48.35 -1.35 -47.75 M-4.9 -47.55 Q-5.9 -47.0 -6.3 -47.85 -6.7 -48.75 -5.9 -49.1 -5.1 -49.45 -4.5 -48.8 -3.9 -48.15 -4.9 -47.55 M-30.0 -15.1 Q-30.65 -14.65 -31.1 -15.4 -31.55 -16.2 -30.95 -16.5 -30.3 -16.85 -29.85 -16.2 -29.4 -15.5 -30.0 -15.1 M-27.7 -16.1 Q-28.1 -16.75 -27.55 -17.05 -26.95 -17.35 -26.55 -16.75 -26.2 -16.1 -26.75 -15.8 -27.3 -15.45 -27.7 -16.1 M-24.95 -16.5 Q-25.4 -17.1 -24.75 -17.65 -24.05 -18.25 -23.6 -17.55 -23.2 -16.85 -23.8 -16.4 L-24.95 -16.5 M-21.8 -17.75 Q-22.3 -18.45 -21.45 -18.8 -20.55 -19.1 -20.25 -18.5 -19.95 -17.9 -20.6 -17.5 -21.25 -17.05 -21.8 -17.75 M-34.0 -19.2 Q-33.6 -18.55 -34.2 -18.1 -34.8 -17.7 -35.25 -18.25 -35.7 -18.8 -35.05 -19.35 -34.4 -19.9 -34.0 -19.2 M-37.7 -20.05 Q-37.95 -20.45 -37.6 -20.65 -37.25 -20.85 -36.95 -20.45 -36.7 -20.05 -37.05 -19.85 -37.45 -19.6 -37.7 -20.05 M-32.85 -15.8 Q-33.5 -15.4 -34.0 -16.1 -34.45 -16.75 -33.65 -17.05 -32.85 -17.35 -32.55 -16.8 -32.2 -16.2 -32.85 -15.8 M-7.4 -17.55 Q-8.0 -18.6 -7.15 -19.0 -6.35 -19.4 -5.75 -18.55 -5.15 -17.7 -6.0 -17.1 -6.8 -16.55 -7.4 -17.55 M-3.8 -17.75 Q-4.15 -18.35 -3.7 -18.6 -3.2 -18.85 -2.85 -18.35 -2.5 -17.8 -3.0 -17.5 -3.45 -17.2 -3.8 -17.75 M-1.55 -17.2 Q-2.0 -17.8 -1.35 -18.35 L-0.2 -18.25 Q0.2 -17.55 -0.4 -17.1 L-1.55 -17.2 M-9.35 -18.4 Q-10.0 -18.0 -10.45 -18.65 -10.9 -19.3 -10.15 -19.6 -9.35 -19.9 -9.05 -19.3 -8.75 -18.75 -9.35 -18.4 M-12.4 -19.7 Q-11.75 -20.25 -11.4 -19.6 -11.0 -18.95 -11.55 -18.55 -12.1 -18.15 -12.55 -18.65 -13.0 -19.2 -12.4 -19.7 M-18.85 -19.05 Q-19.25 -19.75 -18.7 -20.05 -18.1 -20.35 -17.7 -19.75 -17.3 -19.15 -17.85 -18.75 -18.45 -18.35 -18.85 -19.05 M-15.7 -19.9 Q-15.05 -20.25 -14.6 -19.55 -14.15 -18.85 -14.75 -18.45 -15.4 -18.05 -15.85 -18.8 -16.35 -19.55 -15.7 -19.9" fill="#ffffff" fill-rule="evenodd" stroke="none"/>
    </g>
    <linearGradient gradientTransform="matrix(0.0, 0.0228, -0.0216, 0.0, 0.55, -18.05)" gradientUnits="userSpaceOnUse" id="decoration144-gradient0" spreadMethod="pad" x1="-819.2" x2="819.2">
      <stop offset="0.0" stop-color="#32690e"/>
      <stop offset="1.0" stop-color="#4d9f34"/>
    </linearGradient>
    <linearGradient gradientTransform="matrix(-0.0023, 0.0258, -0.0199, -0.0017, 2.4, -47.8)" gradientUnits="userSpaceOnUse" id="decoration144-gradient1" spreadMethod="pad" x1="-819.2" x2="819.2">
      <stop offset="0.0" stop-color="#32690e"/>
      <stop offset="1.0" stop-color="#4d9f34"/>
    </linearGradient>
    <linearGradient gradientTransform="matrix(-0.0049, 0.029, -0.0253, -0.0042, -2.2, -88.7)" gradientUnits="userSpaceOnUse" id="decoration144-gradient2" spreadMethod="pad" x1="-819.2" x2="819.2">
      <stop offset="0.0" stop-color="#32690e"/>
      <stop offset="1.0" stop-color="#4d9f34"/>
    </linearGradient>
    <linearGradient gradientTransform="matrix(-0.0125, 0.0462, -0.0488, -0.0135, -3.55, -158.55)" gradientUnits="userSpaceOnUse" id="decoration144-gradient3" spreadMethod="pad" x1="-819.2" x2="819.2">
      <stop offset="0.0" stop-color="#32690e"/>
      <stop offset="1.0" stop-color="#4d9f34"/>
    </linearGradient>
  </defs>
</svg>
