<?xml version="1.0" encoding="UTF-8" standalone="no"?>
<svg xmlns:ffdec="https://www.free-decompiler.com/flash" xmlns:xlink="http://www.w3.org/1999/xlink" ffdec:objectType="frame" height="210.15px" width="162.35px" xmlns="http://www.w3.org/2000/svg">
  <g transform="matrix(1.0, 0.0, 0.0, 1.0, 78.6, 209.7)">
    <use ffdec:characterId="378" height="23.95" transform="matrix(-0.6774, 0.174, 0.1368, 0.661, 23.3261, -125.6522)" width="25.1" xlink:href="#decoration148-sprite0"/>
    <use ffdec:characterId="380" height="60.7" transform="matrix(-0.2457, -0.5341, 0.5229, -0.3099, 17.0442, -110.5471)" width="55.85" xlink:href="#decoration148-sprite1"/>
    <use ffdec:characterId="378" height="23.95" transform="matrix(-0.1992, 0.7127, -0.7565, -0.1439, -7.1031, -152.7411)" width="25.1" xlink:href="#decoration148-sprite0"/>
    <use ffdec:characterId="381" height="33.15" transform="matrix(1.0, 0.0, 0.0, 1.0, -32.9, -141.5)" width="64.25" xlink:href="#decoration148-shape2"/>
    <use ffdec:characterId="380" height="60.7" transform="matrix(0.2457, -0.5341, -0.5571, -0.2355, -0.3562, -86.371)" width="55.85" xlink:href="#decoration148-sprite1"/>
    <use ffdec:characterId="382" height="167.65" transform="matrix(1.0, 0.0, 0.0, 1.0, -27.5, -167.2)" width="36.85" xlink:href="#decoration148-shape3"/>
    <use ffdec:characterId="378" height="23.95" transform="matrix(0.6132, -0.5879, 0.6132, 0.5879, -27.078, -83.7738)" width="25.1" xlink:href="#decoration148-sprite0"/>
    <use ffdec:characterId="380" height="60.7" transform="matrix(1.0134, 0.0, -0.0934, 0.802, -55.8478, -125.4193)" width="55.85" xlink:href="#decoration148-sprite1"/>
    <use ffdec:characterId="380" height="60.7" transform="matrix(-0.6736, -0.3728, -0.3889, 0.6458, 55.9627, -113.6433)" width="55.85" xlink:href="#decoration148-sprite1"/>
    <use ffdec:characterId="380" height="60.7" transform="matrix(0.752, 0.5277, -0.5504, 0.721, -45.1874, -158.5756)" width="55.85" xlink:href="#decoration148-sprite1"/>
    <use ffdec:characterId="380" height="60.7" transform="matrix(0.568, -0.7084, 0.7388, 0.5446, -59.0145, -162.7511)" width="55.85" xlink:href="#decoration148-sprite1"/>
    <use ffdec:characterId="380" height="60.7" transform="matrix(-0.3222, -0.535, -0.558, 0.3089, 31.8669, -134.3329)" width="55.85" xlink:href="#decoration148-sprite1"/>
    <use ffdec:characterId="380" height="60.7" transform="matrix(0.2457, -0.5341, -0.5571, -0.2355, -21.2562, -104.821)" width="55.85" xlink:href="#decoration148-sprite1"/>
    <use ffdec:characterId="380" height="60.7" transform="matrix(-0.8905, -0.3252, -0.2068, 0.6093, 83.7622, -127.0322)" width="55.85" xlink:href="#decoration148-sprite1"/>
    <use ffdec:characterId="380" height="60.7" transform="matrix(0.1808, 0.7466, -0.7787, 0.1734, -19.2024, -175.3981)" width="55.85" xlink:href="#decoration148-sprite1"/>
    <use ffdec:characterId="380" height="60.7" transform="matrix(0.0, -0.8935, 0.932, 0.0, -2.8738, -113.8231)" width="55.85" xlink:href="#decoration148-sprite1"/>
    <use ffdec:characterId="380" height="60.7" transform="matrix(-0.584, -0.5234, -0.546, 0.5599, 28.1906, -140.415)" width="55.85" xlink:href="#decoration148-sprite1"/>
    <use ffdec:characterId="380" height="60.7" transform="matrix(-0.921, -0.1367, -0.1425, 0.883, 34.9056, -148.9963)" width="55.85" xlink:href="#decoration148-sprite1"/>
    <use ffdec:characterId="380" height="60.7" transform="matrix(-0.1426, -0.883, 0.921, -0.1367, 4.5016, -122.7936)" width="55.85" xlink:href="#decoration148-sprite1"/>
    <use ffdec:characterId="378" height="23.95" transform="matrix(0.6074, 0.3362, -0.3105, 0.6045, -57.0085, -99.6096)" width="25.1" xlink:href="#decoration148-sprite0"/>
    <use ffdec:characterId="380" height="60.7" transform="matrix(-0.5902, -0.5312, -0.4266, 0.6444, 47.5663, -168.5055)" width="55.85" xlink:href="#decoration148-sprite1"/>
    <use ffdec:characterId="378" height="23.95" transform="matrix(0.0, 0.6724, -0.7013, 0.0444, -46.7848, -175.5098)" width="25.1" xlink:href="#decoration148-sprite0"/>
    <use ffdec:characterId="380" height="60.7" transform="matrix(-0.4556, 0.8512, -0.7144, -0.344, 33.9153, -188.8073)" width="55.85" xlink:href="#decoration148-sprite1"/>
    <use ffdec:characterId="378" height="23.95" transform="matrix(0.1233, 0.4602, 0.4683, -0.0929, 0.3998, -58.0924)" width="25.1" xlink:href="#decoration148-sprite0"/>
    <use ffdec:characterId="379" height="116.85" transform="matrix(0.1473, -0.2446, 0.3948, 0.2185, -58.1868, -124.0468)" width="220.6" xlink:href="#decoration148-sprite2"/>
    <use ffdec:characterId="383" height="108.55" transform="matrix(1.0, 0.0, 0.0, 1.0, -64.35, -192.5)" width="122.4" xlink:href="#decoration148-shape4"/>
  </g>
  <defs>
    <g id="decoration148-sprite0" transform="matrix(1.0, 0.0, 0.0, 1.0, 0.55, 7.65)">
      <use ffdec:characterId="377" height="23.95" transform="matrix(1.0, 0.0, 0.0, 1.0, -0.55, -7.65)" width="25.1" xlink:href="#decoration148-shape0"/>
    </g>
    <g id="decoration148-shape0" transform="matrix(1.0, 0.0, 0.0, 1.0, 0.55, 7.65)">
      <path d="M12.2 5.45 L12.65 7.1 12.85 7.95 12.6 8.1 12.85 8.1 12.9 9.3 12.7 10.9 9.2 10.25 Q11.15 11.35 11.4 12.2 L11.65 13.2 10.6 14.15 9.85 14.65 9.0 13.85 9.0 15.05 6.7 15.55 6.45 15.4 Q5.7 14.75 6.1 11.85 5.2 14.5 4.25 15.1 L2.8 13.8 2.75 13.75 3.4 12.7 2.4 13.25 0.9 11.55 1.8 10.7 Q2.9 10.05 4.2 9.9 L4.0 9.9 Q2.15 9.95 0.9 9.2 L0.75 9.15 Q0.9 8.25 1.6 7.45 L2.1 6.95 3.45 5.45 3.75 5.1 5.8 7.5 4.25 4.6 5.1 3.65 Q5.55 3.35 6.05 3.15 L6.1 3.3 6.1 3.05 Q7.35 2.45 8.9 2.4 9.65 3.4 9.65 5.05 L9.55 6.4 8.9 7.85 Q9.55 6.8 10.3 6.3 11.3 5.55 12.2 5.45 M6.8 7.7 Q6.1 7.7 5.6 8.2 5.1 8.7 5.1 9.4 5.1 10.15 5.6 10.6 6.1 11.15 6.8 11.15 7.5 11.15 8.0 10.6 8.55 10.15 8.55 9.4 8.55 8.7 8.0 8.2 7.5 7.7 6.8 7.7" fill="#756069" fill-rule="evenodd" stroke="none"/>
      <path d="M6.8 7.7 Q7.5 7.7 8.0 8.2 8.55 8.7 8.55 9.4 8.55 10.15 8.0 10.6 7.5 11.15 6.8 11.15 6.1 11.15 5.6 10.6 5.1 10.15 5.1 9.4 5.1 8.7 5.6 8.2 6.1 7.7 6.8 7.7" fill="#756b6f" fill-rule="evenodd" stroke="none"/>
      <path d="M12.2 5.45 L12.3 5.45 Q13.3 5.45 14.15 6.0 L14.4 6.25 12.85 7.95 12.65 7.1 12.2 5.45 M12.85 8.1 L15.15 8.1 15.15 9.65 Q14.9 10.95 12.7 10.9 L12.9 9.3 12.85 8.1 M11.65 13.2 L11.7 13.65 Q11.7 14.25 11.3 14.85 L10.65 15.55 9.85 14.65 10.6 14.15 11.65 13.2 M9.0 15.05 L9.0 16.15 Q7.45 16.05 6.7 15.55 L9.0 15.05 M4.25 15.1 L3.8 15.2 2.1 15.05 2.75 13.75 2.8 13.8 4.25 15.1 M2.4 13.25 L0.75 14.25 Q0.35 13.7 0.35 12.95 0.35 12.2 0.9 11.55 L2.4 13.25 M0.75 9.15 Q-0.55 8.25 -0.4 7.25 L-0.1 6.35 2.1 6.95 0.5 5.45 0.65 5.3 Q1.6 4.3 2.65 4.3 L3.75 5.1 3.45 5.45 2.1 6.95 1.6 7.45 Q0.9 8.25 0.75 9.15 M4.25 4.6 L3.75 3.25 Q3.75 2.35 4.3 1.75 L4.7 1.35 6.05 3.15 Q5.55 3.35 5.1 3.65 L4.25 4.6 M6.1 3.05 L6.1 1.0 Q7.5 1.0 8.5 1.95 L8.9 2.4 Q7.35 2.45 6.1 3.05" fill="#735461" fill-rule="evenodd" stroke="none"/>
      <path d="M12.85 7.95 L14.4 6.25 14.15 6.0 Q13.3 5.45 12.3 5.45 L12.2 5.45 Q11.3 5.55 10.3 6.3 9.55 6.8 8.9 7.85 L9.55 6.4 9.65 5.05 Q9.65 3.4 8.9 2.4 L8.5 1.95 Q7.5 1.0 6.1 1.0 L6.1 3.05 6.1 3.3 6.05 3.15 4.7 1.35 4.3 1.75 Q3.75 2.35 3.75 3.25 L4.25 4.6 5.8 7.5 3.75 5.1 2.65 4.3 Q1.6 4.3 0.65 5.3 L0.5 5.45 2.1 6.95 -0.1 6.35 -0.4 7.25 Q-0.55 8.25 0.75 9.15 L0.9 9.2 Q2.15 9.95 4.0 9.9 L4.2 9.9 Q2.9 10.05 1.8 10.7 L0.9 11.55 Q0.35 12.2 0.35 12.95 0.35 13.7 0.75 14.25 L2.4 13.25 3.4 12.7 2.75 13.75 2.1 15.05 3.8 15.2 4.25 15.1 Q5.2 14.5 6.1 11.85 5.7 14.75 6.45 15.4 L6.7 15.55 Q7.45 16.05 9.0 16.15 L9.0 15.05 9.0 13.85 9.85 14.65 10.65 15.55 11.3 14.85 Q11.7 14.25 11.7 13.65 L11.65 13.2 11.4 12.2 Q11.15 11.35 9.2 10.25 L12.7 10.9 Q14.9 10.95 15.15 9.65 L15.15 8.1 12.85 8.1 12.6 8.1 12.85 7.95 Z" fill="none" stroke="#3d0e17" stroke-linecap="round" stroke-linejoin="round" stroke-opacity="0.4" stroke-width="0.30000000000000004"/>
      <path d="M16.75 -5.6 Q16.5 -6.65 17.05 -7.05 L17.65 -7.35 18.35 -6.1 18.35 -7.45 18.45 -7.5 Q19.3 -7.5 19.8 -7.0 20.0 -6.85 20.0 -6.1 L19.65 -6.1 18.35 -6.1 17.9 -6.05 Q17.25 -6.0 16.75 -5.6 M20.5 -6.15 L20.9 -6.95 Q21.3 -7.4 21.8 -7.45 L22.15 -7.45 21.95 -5.95 21.3 -6.15 20.5 -6.15 M22.05 -5.95 L23.0 -6.9 Q23.6 -6.3 23.65 -5.4 L23.6 -5.0 Q22.9 -5.65 22.05 -5.95 M23.7 -2.05 L23.8 -2.0 24.35 -0.9 24.4 -0.7 22.9 -0.65 23.2 -1.1 23.7 -2.05 M22.8 -0.55 L23.9 0.55 23.15 1.3 Q22.4 1.75 21.45 0.7 L22.3 0.05 22.8 -0.55 M19.95 1.3 L19.7 1.5 19.0 1.9 18.35 1.95 18.35 1.1 18.95 1.25 19.95 1.3 M17.85 0.95 L17.35 1.45 Q16.65 0.65 16.5 0.1 17.1 0.65 17.85 0.95 M15.6 -1.25 L15.35 -1.4 14.6 -2.3 15.55 -2.6 15.5 -2.55 15.6 -1.25 M15.6 -3.0 L14.4 -3.25 Q14.4 -3.7 14.75 -4.05 15.1 -4.4 15.7 -4.45 L15.6 -3.0" fill="#674956" fill-rule="evenodd" stroke="none"/>
      <path d="M20.0 -6.1 L19.8 -4.05 20.5 -6.15 21.3 -6.15 21.95 -5.95 21.95 -5.85 22.05 -5.95 Q22.9 -5.65 23.6 -5.0 23.55 -4.15 22.75 -3.35 L22.05 -2.85 Q21.95 -2.7 21.1 -2.5 L22.45 -2.55 23.7 -2.05 23.2 -1.1 22.9 -0.65 22.7 -0.65 22.8 -0.55 22.3 0.05 21.45 0.7 Q20.85 0.1 20.1 -1.25 20.5 0.2 20.25 0.7 L19.95 1.3 18.95 1.25 18.35 1.1 18.4 0.35 17.85 0.95 Q17.1 0.65 16.5 0.1 L16.45 -0.1 Q16.4 -0.75 18.0 -1.9 16.3 -1.05 15.6 -1.25 L15.5 -2.55 15.55 -2.6 16.3 -2.8 15.6 -3.0 15.7 -4.45 16.5 -4.4 Q17.3 -4.25 18.0 -3.7 L17.9 -3.8 Q17.0 -4.6 16.75 -5.55 L16.75 -5.6 Q17.25 -6.0 17.9 -6.05 L18.35 -6.1 19.65 -6.1 20.0 -6.1 M19.4 -3.85 Q19.0 -3.85 18.65 -3.5 18.3 -3.15 18.3 -2.7 18.35 -2.25 18.65 -1.95 18.95 -1.65 19.4 -1.6 19.85 -1.6 20.2 -1.95 L20.55 -2.7 20.2 -3.5 19.4 -3.85" fill="#755c67" fill-rule="evenodd" stroke="none"/>
      <path d="M19.4 -3.85 L20.2 -3.5 20.55 -2.7 20.2 -1.95 Q19.85 -1.6 19.4 -1.6 18.95 -1.65 18.65 -1.95 18.35 -2.25 18.3 -2.7 18.3 -3.15 18.65 -3.5 19.0 -3.85 19.4 -3.85" fill="#75686d" fill-rule="evenodd" stroke="none"/>
      <path d="M16.75 -5.6 Q16.5 -6.65 17.05 -7.05 L17.65 -7.35 18.35 -6.1 18.35 -7.45 18.45 -7.5 Q19.3 -7.5 19.8 -7.0 20.0 -6.85 20.0 -6.1 L19.8 -4.05 20.5 -6.15 20.9 -6.95 Q21.3 -7.4 21.8 -7.45 L22.15 -7.45 21.95 -5.95 21.95 -5.85 22.05 -5.95 23.0 -6.9 Q23.6 -6.3 23.65 -5.4 L23.6 -5.0 Q23.55 -4.15 22.75 -3.35 L22.05 -2.85 Q21.95 -2.7 21.1 -2.5 L22.45 -2.55 23.7 -2.05 23.8 -2.0 24.35 -0.9 24.4 -0.7 22.9 -0.65 22.7 -0.65 22.8 -0.55 23.9 0.55 23.15 1.3 Q22.4 1.75 21.45 0.7 20.85 0.1 20.1 -1.25 20.5 0.2 20.25 0.7 L19.95 1.3 19.7 1.5 19.0 1.9 18.35 1.95 18.35 1.1 18.4 0.35 17.85 0.95 17.35 1.45 Q16.65 0.65 16.5 0.1 L16.45 -0.1 Q16.4 -0.75 18.0 -1.9 16.3 -1.05 15.6 -1.25 L15.35 -1.4 14.6 -2.3 15.55 -2.6 16.3 -2.8 15.6 -3.0 14.4 -3.25 Q14.4 -3.7 14.75 -4.05 15.1 -4.4 15.7 -4.45 L16.5 -4.4 Q17.3 -4.25 18.0 -3.7 L17.9 -3.8 Q17.0 -4.6 16.75 -5.55 L16.75 -5.6 Z" fill="none" stroke="#3d0e17" stroke-linecap="round" stroke-linejoin="round" stroke-opacity="0.4" stroke-width="0.30000000000000004"/>
    </g>
    <g id="decoration148-sprite1" transform="matrix(1.0, 0.0, 0.0, 1.0, -2.6, -0.35)">
      <use ffdec:characterId="378" height="23.95" transform="matrix(1.1086, 0.0, 0.0, 1.1086, 12.9903, 27.8695)" width="25.1" xlink:href="#decoration148-sprite0"/>
      <use ffdec:characterId="378" height="23.95" transform="matrix(0.658, 0.6579, -0.6579, 0.658, 18.3714, 14.5546)" width="25.1" xlink:href="#decoration148-sprite0"/>
      <use ffdec:characterId="378" height="23.95" transform="matrix(-1.3822, -0.3703, -0.3703, 1.3822, 58.4432, 23.38)" width="25.1" xlink:href="#decoration148-sprite0"/>
      <use ffdec:characterId="378" height="23.95" transform="matrix(-0.8313, 0.8312, -0.9378, -0.63, 52.881, 17.4621)" width="25.1" xlink:href="#decoration148-sprite0"/>
      <use ffdec:characterId="379" height="116.85" transform="matrix(-0.0271, -0.1011, 0.1594, -0.0427, 21.7217, 27.6393)" width="220.6" xlink:href="#decoration148-sprite2"/>
      <use ffdec:characterId="379" height="116.85" transform="matrix(-0.0271, -0.1011, 0.1594, -0.0427, 34.4717, 61.0393)" width="220.6" xlink:href="#decoration148-sprite2"/>
    </g>
    <g id="decoration148-sprite2" transform="matrix(1.0, 0.0, 0.0, 1.0, -2.6, 0.05)">
      <use ffdec:characterId="8" height="116.85" transform="matrix(1.0, 0.0, 0.0, 1.0, 2.6, -0.05)" width="220.6" xlink:href="#decoration148-shape1"/>
    </g>
    <g id="decoration148-shape1" transform="matrix(1.0, 0.0, 0.0, 1.0, -2.6, 0.05)">
      <path d="M216.6 72.9 Q209.6 82.3 197.3 90.5 165.65 111.5 112.85 116.1 61.0 120.6 28.05 95.7 15.85 86.45 8.7 74.85 2.6 65.0 2.6 58.05 2.6 51.0 7.9 41.95 14.25 31.1 25.85 22.35 57.15 -1.2 112.85 0.0 173.9 1.15 201.1 17.6 224.7 31.9 223.1 58.05 222.7 64.7 216.6 72.9" fill="url(#decoration148-gradient0)" fill-rule="evenodd" stroke="none"/>
    </g>
    <radialGradient cx="0" cy="0" gradientTransform="matrix(0.0971, 0.0, 0.0, 0.0572, 109.5, 53.65)" gradientUnits="userSpaceOnUse" id="decoration148-gradient0" r="819.2" spreadMethod="pad">
      <stop offset="0.0" stop-color="#5c7172" stop-opacity="0.45882353"/>
      <stop offset="0.19607843137254902" stop-color="#617172" stop-opacity="0.34117648"/>
      <stop offset="1.0" stop-color="#727272" stop-opacity="0.0"/>
    </radialGradient>
    <g id="decoration148-shape2" transform="matrix(1.0, 0.0, 0.0, 1.0, 32.9, 141.5)">
      <path d="M0.85 -120.1 L10.2 -128.45 Q19.35 -136.7 22.5 -138.2 L30.85 -141.0 Q29.35 -136.25 15.2 -127.9 10.6 -125.3 8.65 -121.7 7.1 -117.6 5.75 -115.45 1.6 -117.3 0.85 -120.1 M-31.1 -129.45 L3.05 -109.45 -3.4 -108.85 -32.4 -125.35 -31.1 -129.45" fill="#351d09" fill-rule="evenodd" stroke="none"/>
      <path d="M0.85 -120.1 Q1.6 -117.3 5.75 -115.45 7.1 -117.6 8.65 -121.7 10.6 -125.3 15.2 -127.9 29.35 -136.25 30.85 -141.0 L22.5 -138.2 Q19.35 -136.7 10.2 -128.45 L0.85 -120.1 M-31.1 -129.45 L3.05 -109.45 -3.4 -108.85 -32.4 -125.35 -31.1 -129.45 Z" fill="none" stroke="#000000" stroke-linecap="round" stroke-linejoin="round" stroke-opacity="0.4117647" stroke-width="1.0"/>
    </g>
    <g id="decoration148-shape3" transform="matrix(1.0, 0.0, 0.0, 1.0, 27.5, 167.2)">
      <path d="M2.5 -109.65 Q-0.05 -114.25 -4.5 -119.2 L1.95 -124.75 6.35 -116.8 2.5 -109.65" fill="#351d09" fill-rule="evenodd" stroke="none"/>
      <path d="M2.5 -109.65 Q1.7 -105.4 1.55 -99.2 L-8.35 -117.45 -4.5 -119.2 Q-0.05 -114.25 2.5 -109.65" fill="#2a1505" fill-rule="evenodd" stroke="none"/>
      <path d="M2.3 -0.2 L1.0 -0.1 -2.05 -18.8 Q-2.8 -9.9 -3.7 -5.8 L-7.2 0.25 -5.8 -4.25 Q-4.5 -9.4 -4.5 -12.7 L-3.75 -22.3 -2.55 -35.65 -2.9 -41.75 Q-3.4 -47.6 -4.15 -50.6 -3.95 -52.65 -4.5 -63.8 L-2.7 -71.45 Q-0.75 -78.7 -0.6 -80.7 -0.35 -83.35 -2.4 -91.1 -4.4 -98.45 -5.95 -101.55 -7.2 -104.3 -8.8 -106.95 -7.8 -105.7 -3.65 -97.4 0.65 -88.75 0.9 -87.0 L1.45 -81.15 Q1.45 -77.95 0.55 -74.55 L-0.6 -71.2 Q-2.6 -66.15 -2.6 -65.15 L-0.35 -55.2 -1.85 -51.15 -0.2 -46.75 1.2 -40.5 Q1.2 -37.6 0.4 -35.35 -1.2 -29.95 -1.2 -28.3 L-0.35 -24.7 Q-1.05 -20.55 -1.05 -16.4 L0.4 -8.55 2.3 -0.2 M0.55 -74.55 L0.5 -76.35 0.7 -78.75 0.5 -76.35 0.55 -74.55" fill="#704817" fill-rule="evenodd" stroke="none"/>
      <path d="M-8.35 -117.45 L1.55 -99.2 Q1.35 -89.05 2.75 -73.55 L1.55 -70.25 Q0.2 -66.6 0.2 -65.4 0.2 -62.6 1.45 -60.15 L0.9 -58.5 0.4 -62.05 0.9 -58.5 -0.35 -55.2 -2.6 -65.15 Q-2.6 -66.15 -0.6 -71.2 L0.55 -74.55 Q1.45 -77.95 1.45 -81.15 L0.9 -87.0 Q0.65 -88.75 -3.65 -97.4 -7.8 -105.7 -8.8 -106.95 L-13.55 -115.1 -8.35 -117.45 M5.3 -44.65 L4.5 -37.85 3.6 -34.45 Q2.55 -31.15 2.65 -24.3 L1.85 -26.75 Q1.35 -28.55 1.2 -29.45 L1.75 -32.55 2.2 -38.2 1.75 -32.55 1.2 -29.45 -0.35 -24.7 -1.2 -28.3 Q-1.2 -29.95 0.4 -35.35 1.2 -37.6 1.2 -40.5 L-0.2 -46.75 0.25 -47.95 1.35 -46.75 5.3 -44.65 M0.55 -74.55 L0.7 -72.45 0.55 -74.55" fill="#412504" fill-rule="evenodd" stroke="none"/>
      <path d="M2.75 -73.55 L2.8 -71.95 1.55 -66.1 Q1.9 -66.25 2.45 -63.45 L1.45 -60.15 Q0.2 -62.6 0.2 -65.4 0.2 -66.6 1.55 -70.25 L2.75 -73.55 M2.65 -24.3 Q2.65 -19.75 3.25 -13.7 2.15 -15.55 0.0 -21.85 L-0.35 -24.7 1.2 -29.45 Q1.35 -28.55 1.85 -26.75 L2.65 -24.3" fill="#251305" fill-rule="evenodd" stroke="none"/>
      <path d="M1.0 -52.9 L1.45 -49.65 1.35 -46.75 0.25 -47.95 1.0 -52.9" fill="#543217" fill-rule="evenodd" stroke="none"/>
      <path d="M2.7 -55.8 Q2.65 -54.3 3.45 -52.1 4.25 -50.1 4.4 -50.2 5.5 -51.1 8.3 -54.9 6.25 -50.55 5.3 -47.1 L5.3 -44.65 1.35 -46.75 1.45 -49.65 1.0 -52.9 2.7 -55.8 M-27.3 -154.5 Q-27.15 -154.45 -26.75 -154.7 L-26.1 -154.95 -24.05 -150.2 Q-21.8 -145.8 -19.65 -143.95 L-13.85 -136.5 Q-8.75 -129.85 -5.3 -126.55 -7.85 -126.6 -6.65 -123.75 -8.45 -126.65 -12.5 -131.2 L-18.25 -137.75 Q-22.1 -142.35 -24.55 -147.55 L-27.3 -154.5 M-6.7 -166.05 L-6.05 -167.0 -3.05 -159.7 Q-0.7 -153.6 -0.8 -151.2 L-0.35 -142.65 0.2 -134.85 -1.4 -133.9 Q-3.0 -132.95 -3.35 -132.9 L-3.85 -151.05 Q-3.85 -156.7 -4.8 -159.6 L-6.7 -166.05" fill="#3a1f0a" fill-rule="evenodd" stroke="none"/>
      <path d="M2.45 -63.45 L2.7 -55.8 1.0 -52.9 -0.35 -55.2 0.9 -58.5 1.45 -60.15 2.45 -63.45 M3.25 -13.7 Q4.0 -11.2 6.3 -5.9 8.6 -0.45 9.15 -0.2 L3.85 -0.2 Q3.7 -2.25 0.0 -21.85 2.15 -15.55 3.25 -13.7 M1.2 -55.55 L0.9 -58.5 1.2 -55.55" fill="#343a07" fill-rule="evenodd" stroke="none"/>
      <path d="M3.85 -0.2 L2.3 -0.2 0.4 -8.55 -1.05 -16.4 Q-1.05 -20.55 -0.35 -24.7 L0.0 -21.85 Q3.7 -2.25 3.85 -0.2 M1.0 -52.9 L0.25 -47.95 -0.2 -46.75 -1.85 -51.15 -0.35 -55.2 1.0 -52.9" fill="#404610" fill-rule="evenodd" stroke="none"/>
      <path d="M-5.15 -70.1 Q-5.0 -73.85 -5.3 -77.75 -3.85 -75.05 -3.85 -74.3 -3.85 -73.25 -5.15 -70.1 M-5.6 -80.5 L-5.7 -82.25 Q-5.35 -81.4 -4.6 -80.7 -3.45 -79.7 -2.65 -81.0 -1.85 -82.15 -2.3 -85.15 -2.5 -86.65 -2.85 -87.9 -1.2 -85.4 -1.1 -83.7 -0.95 -81.15 -1.6 -79.95 -2.2 -78.75 -3.65 -78.75 -3.95 -78.75 -4.8 -79.6 L-5.6 -80.5 M-5.75 -84.85 L-5.95 -97.6 Q-5.0 -95.95 -4.05 -92.6 -3.05 -89.1 -3.6 -88.85 -4.3 -88.5 -5.75 -84.85" fill="#c48b46" fill-rule="evenodd" stroke="none"/>
      <path d="M-4.15 -50.6 L-5.2 -55.45 Q-6.2 -60.15 -6.0 -60.7 -5.8 -61.6 -5.15 -70.1 -3.85 -73.25 -3.85 -74.3 -3.85 -75.05 -5.3 -77.75 L-5.6 -80.5 -4.8 -79.6 Q-3.95 -78.75 -3.65 -78.75 -2.2 -78.75 -1.6 -79.95 -0.95 -81.15 -1.1 -83.7 -1.2 -85.4 -2.85 -87.9 -2.5 -86.65 -2.3 -85.15 -1.85 -82.15 -2.65 -81.0 -3.45 -79.7 -4.6 -80.7 -5.35 -81.4 -5.7 -82.25 L-5.75 -84.85 Q-4.3 -88.5 -3.6 -88.85 -3.05 -89.1 -4.05 -92.6 -5.0 -95.95 -5.95 -97.6 L-5.95 -101.55 Q-4.4 -98.45 -2.4 -91.1 -0.35 -83.35 -0.6 -80.7 -0.75 -78.7 -2.7 -71.45 L-4.5 -63.8 Q-3.95 -52.65 -4.15 -50.6 M-3.35 -83.0 Q-5.05 -84.2 -4.15 -86.2 -3.7 -87.15 -2.85 -87.9 -3.7 -87.15 -4.15 -86.2 -5.05 -84.2 -3.35 -83.0" fill="#956429" fill-rule="evenodd" stroke="none"/>
      <path d="M1.0 -0.1 L-7.2 0.25 -3.7 -5.8 Q-2.8 -9.9 -2.05 -18.8 L1.0 -0.1 M-0.35 -1.5 Q-0.65 -2.0 -1.15 -4.05 -1.75 -6.25 -1.7 -7.4 -1.75 -6.25 -1.15 -4.05 -0.65 -2.0 -0.35 -1.5" fill="#583408" fill-rule="evenodd" stroke="none"/>
      <path d="M-7.2 0.25 L-9.3 0.25 Q-8.0 -2.55 -7.45 -7.15 L-6.65 -14.9 Q-3.55 -28.4 -2.55 -35.65 L-3.75 -22.3 -4.5 -12.7 Q-4.5 -9.4 -5.8 -4.25 L-7.2 0.25" fill="#85551c" fill-rule="evenodd" stroke="none"/>
      <path d="M-9.3 0.25 L-11.05 0.25 Q-8.95 -0.1 -8.6 -4.85 -8.2 -8.95 -6.65 -14.9 L-7.45 -7.15 Q-8.0 -2.55 -9.3 0.25" fill="#bb7a01" fill-rule="evenodd" stroke="none"/>
      <path d="M1.55 -99.2 Q1.7 -105.4 2.5 -109.65 L6.35 -116.8 1.95 -124.75 -4.5 -119.2 -8.35 -117.45 -13.55 -115.1 -8.8 -106.95 Q-7.2 -104.3 -5.95 -101.55 L-5.95 -97.6 -5.75 -84.85 -5.7 -82.25 -5.6 -80.5 -5.3 -77.75 Q-5.0 -73.85 -5.15 -70.1 -5.8 -61.6 -6.0 -60.7 -6.2 -60.15 -5.2 -55.45 L-4.15 -50.6 Q-3.4 -47.6 -2.9 -41.75 L-2.55 -35.65 Q-3.55 -28.4 -6.65 -14.9 -8.2 -8.95 -8.6 -4.85 -8.95 -0.1 -11.05 0.25 L-9.3 0.25 -7.2 0.25 1.0 -0.1 2.3 -0.2 3.85 -0.2 9.15 -0.2 Q8.6 -0.45 6.3 -5.9 4.0 -11.2 3.25 -13.7 2.65 -19.75 2.65 -24.3 2.55 -31.15 3.6 -34.45 L4.5 -37.85 5.3 -44.65 5.3 -47.1 Q6.25 -50.55 8.3 -54.9 5.5 -51.1 4.4 -50.2 4.25 -50.1 3.45 -52.1 2.65 -54.3 2.7 -55.8 L2.45 -63.45 Q1.9 -66.25 1.55 -66.1 L2.8 -71.95 2.75 -73.55 Q1.35 -89.05 1.55 -99.2 M-27.3 -154.5 L-24.55 -147.55 Q-22.1 -142.35 -18.25 -137.75 L-12.5 -131.2 Q-8.45 -126.65 -6.65 -123.75 -7.85 -126.6 -5.3 -126.55 -8.75 -129.85 -13.85 -136.5 L-19.65 -143.95 Q-21.8 -145.8 -24.05 -150.2 L-26.1 -154.95 -26.75 -154.7 Q-27.15 -154.45 -27.3 -154.5 M-6.05 -167.0 L-3.05 -159.7 Q-0.7 -153.6 -0.8 -151.2 L-0.35 -142.65 0.2 -134.85 -1.4 -133.9 Q-3.0 -132.95 -3.35 -132.9 L-3.85 -151.05 Q-3.85 -156.7 -4.8 -159.6 L-6.7 -166.05" fill="none" stroke="#000000" stroke-linecap="round" stroke-linejoin="round" stroke-opacity="0.3882353" stroke-width="0.4"/>
      <path d="M0.7 -78.75 L0.5 -76.35 0.55 -74.55 0.7 -72.45 M0.9 -58.5 L1.2 -55.55 M0.4 -62.05 L0.9 -58.5 M1.2 -29.45 L1.75 -32.55 2.2 -38.2 M-2.85 -87.9 Q-3.7 -87.15 -4.15 -86.2 -5.05 -84.2 -3.35 -83.0 M-5.6 -80.5 L-4.8 -79.6 Q-3.95 -78.75 -3.65 -78.75 -2.2 -78.75 -1.6 -79.95 -0.95 -81.15 -1.1 -83.7 -1.2 -85.4 -2.85 -87.9 M-1.7 -7.4 Q-1.75 -6.25 -1.15 -4.05 -0.65 -2.0 -0.35 -1.5" fill="none" stroke="#000000" stroke-linecap="round" stroke-linejoin="round" stroke-opacity="0.21176471" stroke-width="0.4"/>
      <path d="M-6.7 -166.05 L-6.05 -167.0" fill="none" stroke="#00ff00" stroke-linecap="round" stroke-linejoin="round" stroke-width="0.05"/>
    </g>
    <g id="decoration148-shape4" transform="matrix(1.0, 0.0, 0.0, 1.0, 64.35, 192.5)">
      <path d="M-64.2 -102.75 L-63.55 -104.0 Q-62.75 -105.1 -60.85 -105.3 L-58.15 -105.2 Q-57.95 -104.1 -58.05 -103.7 -58.3 -102.75 -59.75 -101.85 -61.35 -100.85 -62.55 -101.2 L-63.45 -101.5 -62.4 -102.7 -62.5 -102.7 -63.15 -102.5 -63.9 -102.45 -64.2 -102.75" fill="#ffd2e5" fill-rule="evenodd" stroke="none"/>
      <path d="M-64.2 -102.75 L-63.9 -102.45 -63.15 -102.5 -62.5 -102.7 -62.4 -102.7 -63.45 -101.5 -62.55 -101.2 Q-61.35 -100.85 -59.75 -101.85 -58.3 -102.75 -58.05 -103.7 -57.95 -104.1 -58.15 -105.2 L-60.85 -105.3 Q-62.75 -105.1 -63.55 -104.0 L-64.2 -102.75 Z" fill="none" stroke="#861f32" stroke-linecap="round" stroke-linejoin="round" stroke-opacity="0.4" stroke-width="0.30000000000000004"/>
      <path d="M-60.7 -151.9 Q-60.65 -152.15 -59.5 -152.6 L-56.5 -152.4 Q-54.75 -151.6 -54.2 -150.95 L-54.85 -149.6 Q-55.6 -148.95 -57.3 -148.85 -59.2 -148.8 -60.0 -149.7 L-60.65 -150.4 -59.15 -150.95 -59.25 -151.0 -59.9 -151.1 -60.6 -151.45 -60.7 -151.9" fill="#ffd2e5" fill-rule="evenodd" stroke="none"/>
      <path d="M-60.7 -151.9 L-60.6 -151.45 -59.9 -151.1 -59.25 -151.0 -59.15 -150.95 -60.65 -150.4 -60.0 -149.7 Q-59.2 -148.8 -57.3 -148.85 -55.6 -148.95 -54.85 -149.6 L-54.2 -150.95 Q-54.75 -151.6 -56.5 -152.4 L-59.5 -152.6 Q-60.65 -152.15 -60.7 -151.9 Z" fill="none" stroke="#861f32" stroke-linecap="round" stroke-linejoin="round" stroke-opacity="0.4" stroke-width="0.30000000000000004"/>
      <path d="M51.7 -152.8 L51.8 -154.3 54.55 -154.4 Q56.4 -154.2 57.25 -153.05 L57.9 -151.85 57.6 -151.5 56.85 -151.55 56.2 -151.8 56.1 -151.85 57.1 -150.6 56.2 -150.3 Q55.05 -149.9 53.4 -150.9 52.0 -151.85 51.7 -152.8" fill="#ffd2e5" fill-rule="evenodd" stroke="none"/>
      <path d="M51.7 -152.8 L51.8 -154.3 54.55 -154.4 Q56.4 -154.2 57.25 -153.05 L57.9 -151.85 57.6 -151.5 56.85 -151.55 56.2 -151.8 56.1 -151.85 57.1 -150.6 56.2 -150.3 Q55.05 -149.9 53.4 -150.9 52.0 -151.85 51.7 -152.8 Z" fill="none" stroke="#861f32" stroke-linecap="round" stroke-linejoin="round" stroke-opacity="0.4" stroke-width="0.30000000000000004"/>
      <path d="M12.25 -87.9 Q13.5 -86.95 13.6 -85.75 13.75 -84.85 13.55 -84.65 L13.25 -84.5 12.7 -84.9 12.25 -85.4 12.5 -84.1 11.75 -84.25 Q10.7 -84.45 9.95 -85.8 9.3 -87.1 9.5 -87.95 L10.2 -88.95 12.25 -87.9" fill="#aa768a" fill-rule="evenodd" stroke="none"/>
      <path d="M12.25 -87.9 Q13.5 -86.95 13.6 -85.75 13.75 -84.85 13.55 -84.65 L13.25 -84.5 12.7 -84.9 12.25 -85.4 12.5 -84.1 11.75 -84.25 Q10.7 -84.45 9.95 -85.8 9.3 -87.1 9.5 -87.95 L10.2 -88.95 12.25 -87.9 Z" fill="none" stroke="#861f32" stroke-linecap="round" stroke-linejoin="round" stroke-opacity="0.4" stroke-width="0.30000000000000004"/>
      <path d="M-26.85 -186.65 Q-28.5 -188.25 -28.35 -189.75 L-28.3 -190.9 -26.5 -190.1 -26.55 -190.25 -27.0 -190.9 -27.3 -191.8 -27.0 -192.3 Q-26.7 -192.5 -25.3 -191.9 L-24.15 -191.15 Q-23.35 -190.45 -22.95 -189.15 -22.2 -187.0 -22.3 -185.9 -23.6 -185.3 -24.05 -185.25 -25.3 -185.3 -26.85 -186.65" fill="#ffd2e5" fill-rule="evenodd" stroke="none"/>
      <path d="M-26.85 -186.65 Q-25.3 -185.3 -24.05 -185.25 -23.6 -185.3 -22.3 -185.9 -22.2 -187.0 -22.95 -189.15 -23.35 -190.45 -24.15 -191.15 L-25.3 -191.9 Q-26.7 -192.5 -27.0 -192.3 L-27.3 -191.8 -27.0 -190.9 -26.55 -190.25 -26.5 -190.1 -28.3 -190.9 -28.35 -189.75 Q-28.5 -188.25 -26.85 -186.65 Z" fill="none" stroke="#861f32" stroke-linecap="round" stroke-linejoin="round" stroke-opacity="0.4" stroke-width="0.30000000000000004"/>
    </g>
  </defs>
</svg>
