<?xml version="1.0" encoding="UTF-8" standalone="no"?>
<svg xmlns:ffdec="https://www.free-decompiler.com/flash" xmlns:xlink="http://www.w3.org/1999/xlink" ffdec:objectType="frame" height="49.65px" width="58.9px" xmlns="http://www.w3.org/2000/svg">
  <g transform="matrix(1.0, 0.0, 0.0, 1.0, 29.0, 44.2)">
    <use ffdec:characterId="375" height="49.65" transform="matrix(1.0, 0.0, 0.0, 1.0, -29.0, -44.2)" width="58.9" xlink:href="#decoration149-shape0"/>
  </g>
  <defs>
    <g id="decoration149-shape0" transform="matrix(1.0, 0.0, 0.0, 1.0, 29.0, 44.2)">
      <path d="M29.9 -21.75 Q29.9 -12.4 21.35 -5.8 12.8 0.7 0.55 0.7 -11.85 0.7 -20.45 -5.8 -29.0 -12.4 -29.0 -21.75 -29.0 -31.1 -20.45 -37.6 -11.85 -44.2 0.55 -44.2 12.8 -44.2 21.35 -37.6 29.9 -31.1 29.9 -21.75" fill="url(#decoration149-gradient0)" fill-rule="evenodd" stroke="none"/>
      <path d="M-15.05 -0.2 L-15.5 -0.1 -15.55 -0.1 Q-16.75 -0.1 -17.65 -1.4 -18.6 -2.7 -18.7 -4.65 -18.75 -6.55 -17.85 -7.9 -17.05 -9.25 -15.8 -9.25 L-15.7 -9.3 Q-14.5 -9.25 -13.6 -8.0 -12.7 -6.7 -12.6 -4.75 -12.6 -2.95 -13.45 -1.55 -14.15 -0.4 -15.05 -0.2 M-15.6 -4.0 Q-15.35 -4.9 -16.2 -5.0 L-16.35 -4.45 -16.05 -3.25 Q-15.7 -2.15 -15.2 -2.1 L-14.95 -2.3 Q-14.8 -2.45 -14.75 -3.15 -14.5 -6.55 -15.8 -6.65 -16.25 -6.65 -16.7 -6.15 -17.25 -5.45 -17.35 -4.05 -17.45 -2.65 -16.9 -1.55 -16.35 -0.5 -15.6 -0.15 L-15.55 -0.1 -15.6 -0.15 Q-16.35 -0.5 -16.9 -1.55 -17.45 -2.65 -17.35 -4.05 -17.25 -5.45 -16.7 -6.15 -16.25 -6.65 -15.8 -6.65 -14.5 -6.55 -14.75 -3.15 -14.8 -2.45 -14.95 -2.3 L-15.2 -2.1 Q-15.7 -2.15 -16.05 -3.25 L-16.35 -4.45 -16.2 -5.0 Q-15.35 -4.9 -15.6 -4.0" fill="#77542d" fill-rule="evenodd" stroke="none"/>
      <path d="M-15.7 -9.3 L-0.8 -9.6 Q2.8 -8.8 2.75 -5.55 2.7 -2.25 -0.05 -1.6 L-15.05 -0.2 Q-14.15 -0.4 -13.45 -1.55 -12.6 -2.95 -12.6 -4.75 -12.7 -6.7 -13.6 -8.0 -14.5 -9.25 -15.7 -9.3 M0.3 -3.95 L-3.95 -3.55 0.3 -3.95 M0.3 -6.2 L-10.7 -5.85 0.3 -6.2 M-4.65 -8.35 L-10.3 -7.9 -4.65 -8.35" fill="#3a2711" fill-rule="evenodd" stroke="none"/>
      <path d="M-15.05 -0.2 L-15.5 -0.1 -15.55 -0.1 Q-16.75 -0.1 -17.65 -1.4 -18.6 -2.7 -18.7 -4.65 -18.75 -6.55 -17.85 -7.9 -17.05 -9.25 -15.8 -9.25 L-15.7 -9.3 -0.8 -9.6 Q2.8 -8.8 2.75 -5.55 2.7 -2.25 -0.05 -1.6 L-15.05 -0.2 Q-14.15 -0.4 -13.45 -1.55 -12.6 -2.95 -12.6 -4.75 -12.7 -6.7 -13.6 -8.0 -14.5 -9.25 -15.7 -9.3 M-15.55 -0.1 L-15.6 -0.15 Q-16.35 -0.5 -16.9 -1.55 -17.45 -2.65 -17.35 -4.05 -17.25 -5.45 -16.7 -6.15 -16.25 -6.65 -15.8 -6.65 -14.5 -6.55 -14.75 -3.15 -14.8 -2.45 -14.95 -2.3 L-15.2 -2.1 Q-15.7 -2.15 -16.05 -3.25 L-16.35 -4.45 -16.2 -5.0 Q-15.35 -4.9 -15.6 -4.0 M-10.3 -7.9 L-4.65 -8.35 M-10.7 -5.85 L0.3 -6.2 M-3.95 -3.55 L0.3 -3.95" fill="none" stroke="#000000" stroke-linecap="round" stroke-linejoin="round" stroke-opacity="0.3019608" stroke-width="0.30000000000000004"/>
      <path d="M15.85 -0.7 L3.45 -1.15 Q1.15 -1.55 1.1 -4.3 1.1 -7.0 4.05 -7.9 L16.3 -8.3 Q15.3 -8.2 14.6 -7.15 13.9 -6.0 13.8 -4.4 13.8 -2.8 14.45 -1.75 15.1 -0.8 15.85 -0.7 M3.15 -3.05 L6.7 -2.9 3.15 -3.05 M7.25 -7.0 L11.9 -6.85 7.25 -7.0 M3.15 -5.0 L12.25 -5.2 3.15 -5.0" fill="#3a2711" fill-rule="evenodd" stroke="none"/>
      <path d="M15.85 -0.7 Q15.1 -0.8 14.45 -1.75 13.8 -2.8 13.8 -4.4 13.9 -6.0 14.6 -7.15 15.3 -8.2 16.3 -8.3 L16.35 -8.25 Q17.4 -8.35 18.15 -7.25 18.9 -6.2 18.8 -4.55 18.8 -3.0 18.0 -1.8 17.25 -0.7 16.2 -0.65 L15.85 -0.7" fill="#77542d" fill-rule="evenodd" stroke="none"/>
      <path d="M16.3 -8.3 L4.05 -7.9 Q1.1 -7.0 1.1 -4.3 1.15 -1.55 3.45 -1.15 L15.85 -0.7 Q15.1 -0.8 14.45 -1.75 13.8 -2.8 13.8 -4.4 13.9 -6.0 14.6 -7.15 15.3 -8.2 16.3 -8.3 L16.35 -8.25 Q17.4 -8.35 18.15 -7.25 18.9 -6.2 18.8 -4.55 18.8 -3.0 18.0 -1.8 17.25 -0.7 16.2 -0.65 L16.3 -0.7 Q16.95 -1.0 17.3 -1.95 17.8 -2.85 17.7 -4.05 17.6 -5.2 17.2 -5.8 16.85 -6.15 16.5 -6.1 15.4 -6.0 15.6 -3.2 L15.7 -2.45 Q15.75 -2.3 16.0 -2.35 16.4 -2.35 16.65 -3.3 L16.9 -4.3 16.75 -4.75 Q16.05 -4.6 16.3 -3.95 M6.7 -2.9 L3.15 -3.05 M15.85 -0.7 L16.2 -0.65 M12.25 -5.2 L3.15 -5.0 M11.9 -6.85 L7.25 -7.0" fill="none" stroke="#000000" stroke-linecap="round" stroke-linejoin="round" stroke-opacity="0.3019608" stroke-width="0.30000000000000004"/>
      <path d="M-4.1 -1.1 L-3.05 -2.55 Q-1.55 -3.85 0.5 -3.85 2.55 -3.85 4.0 -2.55 4.95 -1.65 5.3 -0.6 L5.3 -0.5 5.35 -0.45 5.5 0.7 Q5.5 2.6 4.0 3.95 2.55 5.3 0.5 5.3 -1.45 5.3 -2.9 4.1 L-3.05 3.95 Q-4.5 2.6 -4.5 0.7 L-4.25 -0.65 -4.1 -1.1 M0.6 1.75 L0.65 1.4 Q0.65 0.7 -0.5 0.7 -1.45 0.7 -1.45 1.85 -1.45 3.45 0.65 3.45 L2.25 2.95 Q3.3 2.3 3.3 1.3 3.3 0.0 2.65 -0.85 1.85 -1.85 0.3 -1.85 -3.7 -1.85 -3.7 1.3 -3.7 2.85 -3.05 3.95 -3.7 2.85 -3.7 1.3 -3.7 -1.85 0.3 -1.85 1.85 -1.85 2.65 -0.85 3.3 0.0 3.3 1.3 3.3 2.3 2.25 2.95 L0.65 3.45 Q-1.45 3.45 -1.45 1.85 -1.45 0.7 -0.5 0.7 0.65 0.7 0.65 1.4 L0.6 1.75" fill="#77542d" fill-rule="evenodd" stroke="none"/>
      <path d="M5.3 -0.6 Q4.95 -1.65 4.0 -2.55 2.55 -3.85 0.5 -3.85 -1.55 -3.85 -3.05 -2.55 L-4.1 -1.1 -2.55 -5.85 Q0.45 -7.95 3.75 -5.85 L5.3 -0.6" fill="#3a2711" fill-rule="evenodd" stroke="none"/>
      <path d="M-4.1 -1.1 L-3.05 -2.55 Q-1.55 -3.85 0.5 -3.85 2.55 -3.85 4.0 -2.55 4.95 -1.65 5.3 -0.6 L3.75 -5.85 Q0.45 -7.95 -2.55 -5.85 L-4.1 -1.1 -4.25 -0.65 -4.5 0.7 Q-4.5 2.6 -3.05 3.95 -3.7 2.85 -3.7 1.3 -3.7 -1.85 0.3 -1.85 1.85 -1.85 2.65 -0.85 3.3 0.0 3.3 1.3 3.3 2.3 2.25 2.95 L0.65 3.45 Q-1.45 3.45 -1.45 1.85 -1.45 0.7 -0.5 0.7 0.65 0.7 0.65 1.4 L0.6 1.75 M5.3 -0.6 L5.3 -0.5 5.35 -0.45 5.5 0.7 Q5.5 2.6 4.0 3.95 2.55 5.3 0.5 5.3 -1.45 5.3 -2.9 4.1 L-3.05 3.95" fill="none" stroke="#000000" stroke-linecap="round" stroke-linejoin="round" stroke-opacity="0.4" stroke-width="0.30000000000000004"/>
      <path d="M13.0 -39.05 Q12.65 -36.9 12.95 -35.4 L13.4 -34.0 12.55 -34.85 Q12.0 -33.65 12.05 -32.1 L12.35 -30.05 Q12.5 -29.25 11.95 -28.6 L11.3 -31.3 10.5 -33.55 10.35 -31.9 Q9.55 -33.0 9.9 -34.35 10.2 -36.05 11.1 -37.5 11.0 -36.1 11.15 -35.2 L12.05 -38.05 13.45 -40.95 13.0 -39.05" fill="url(#decoration149-gradient1)" fill-rule="evenodd" stroke="none"/>
      <path d="M3.9 -43.45 Q3.35 -42.9 2.95 -41.7 2.45 -40.05 5.35 -36.25 5.1 -38.35 7.35 -39.45 9.4 -40.5 8.7 -42.0 10.25 -40.45 8.6 -39.45 7.7 -38.45 7.55 -37.0 7.2 -35.4 8.05 -32.8 L8.4 -32.3 8.4 -31.75 8.25 -30.5 8.15 -29.25 8.15 -29.05 8.35 -28.85 8.85 -30.2 9.15 -31.05 Q10.4 -28.8 10.4 -27.0 L10.2 -24.35 9.9 -22.65 9.9 -21.85 Q10.9 -21.75 12.1 -25.7 13.3 -29.65 15.95 -31.3 13.55 -28.2 13.9 -26.35 L14.15 -24.2 Q14.15 -22.05 12.45 -19.0 10.7 -15.9 10.7 -14.3 10.7 -12.65 10.95 -11.7 L11.2 -10.6 Q11.7 -10.5 11.95 -11.45 12.3 -13.05 13.4 -14.5 L16.1 -17.75 16.2 -17.8 15.8 -15.65 Q15.1 -12.35 15.1 -11.35 L15.35 -8.55 15.5 -8.55 17.2 -9.65 Q18.85 -10.7 19.25 -16.7 20.6 -13.7 19.3 -9.0 15.95 -4.25 12.1 -5.75 L10.55 -5.75 6.6 -5.95 Q2.7 -5.9 1.75 -6.5 L-1.65 -5.15 Q-3.5 -4.6 -4.5 -5.6 L-10.8 -7.65 Q-15.0 -8.8 -15.55 -11.4 -16.15 -14.0 -15.75 -15.25 L-14.9 -16.2 Q-14.5 -16.7 -14.25 -17.35 -13.95 -17.95 -14.15 -18.95 L-15.15 -17.15 -14.8 -19.1 -14.25 -21.9 Q-13.95 -23.25 -18.3 -25.6 L-17.05 -25.0 -17.05 -25.15 -18.3 -25.6 Q-16.1 -25.35 -14.55 -24.4 -12.75 -23.3 -12.75 -21.6 -12.75 -20.95 -13.0 -20.35 L-13.25 -19.5 Q-13.25 -18.95 -11.9 -18.0 L-10.15 -16.95 -11.05 -18.0 Q-11.6 -18.65 -11.6 -19.55 L-10.2 -21.2 -10.05 -20.7 -9.85 -20.3 -9.1 -22.4 Q-8.2 -23.7 -8.05 -25.15 L-8.05 -25.25 Q-7.5 -26.7 -7.5 -27.1 -7.5 -27.95 -8.5 -30.15 L-8.4 -27.15 -9.2 -28.85 Q-10.35 -31.05 -10.35 -32.95 -10.35 -34.1 -9.65 -35.8 L-8.6 -37.95 -8.7 -35.65 Q-8.7 -34.45 -7.9 -32.9 L-7.2 -31.8 -6.9 -32.8 -4.55 -37.8 Q-3.85 -39.2 -3.6 -41.35 L-3.5 -43.1 Q-1.4 -40.9 -3.05 -35.25 -4.4 -30.45 -1.8 -30.05 -0.8 -32.85 0.45 -34.9 0.7 -36.9 -0.1 -38.9 1.55 -36.0 1.35 -34.1 1.15 -32.0 0.3 -30.85 -0.65 -29.65 1.2 -28.35 1.8 -27.95 1.6 -26.85 L-0.75 -28.45 Q0.95 -27.25 1.25 -26.05 0.35 -24.15 -0.6 -23.15 L3.75 -26.25 Q4.85 -29.85 4.55 -32.4 L6.05 -30.2 Q6.15 -31.6 4.85 -33.0 3.55 -34.4 3.2 -35.6 0.6 -41.15 3.9 -43.45" fill="url(#decoration149-gradient2)" fill-rule="evenodd" stroke="none"/>
      <path d="M16.15 -24.95 L16.05 -25.15 16.05 -26.0 Q16.05 -26.55 16.75 -28.15 L17.85 -30.9 17.35 -27.85 Q17.0 -25.8 16.15 -25.15 L16.15 -24.95 M-12.65 -32.2 Q-12.4 -30.1 -11.05 -28.7 -10.55 -28.1 -10.65 -26.15 L-10.9 -24.3 -11.6 -25.55 -12.1 -27.0 -12.65 -32.2" fill="url(#decoration149-gradient3)" fill-rule="evenodd" stroke="none"/>
      <path d="M6.7 -27.95 L7.7 -26.4 8.95 -24.0 Q8.95 -22.7 7.55 -20.6 6.15 -18.4 6.25 -16.8 4.05 -15.15 5.65 -13.9 L7.5 -17.05 7.8 -15.25 Q7.8 -15.85 9.7 -17.3 11.55 -18.7 12.65 -19.2 L12.8 -19.2 10.35 -15.7 Q8.8 -13.3 8.8 -11.65 8.8 -10.25 9.9 -9.0 10.75 -7.9 12.45 -7.75 14.0 -7.7 15.0 -10.5 L15.0 -10.2 Q15.0 -7.6 14.05 -6.3 12.5 -4.35 9.55 -4.6 L3.75 -5.4 -0.15 -5.15 Q-1.3 -4.35 -5.8 -5.05 -10.3 -5.75 -10.4 -6.85 -10.55 -7.4 -10.3 -8.45 -10.25 -9.45 -11.15 -10.3 L-13.3 -11.9 -13.85 -12.2 Q-12.25 -11.55 -9.45 -11.0 L-9.45 -11.45 -10.0 -13.15 Q-10.55 -14.65 -9.25 -14.95 -7.95 -15.25 -9.45 -17.25 -7.75 -17.6 -6.9 -12.85 L-6.9 -15.45 Q-7.1 -18.15 -8.4 -19.1 L-7.95 -19.85 -7.05 -21.05 Q-6.3 -22.2 -6.0 -23.6 -7.1 -21.2 -7.95 -21.2 -7.0 -21.75 -7.0 -24.95 -6.9 -26.55 -5.6 -27.55 -4.4 -28.6 -3.75 -29.4 L-4.15 -28.65 Q-5.65 -25.6 -4.4 -25.25 L-3.1 -25.35 Q-3.85 -23.4 -4.4 -22.6 L-5.15 -21.4 Q-5.25 -20.95 -4.8 -20.35 L-3.7 -18.95 Q-4.15 -20.05 -0.5 -21.35 L-1.55 -19.65 Q-1.55 -19.45 -0.95 -19.8 L0.2 -20.9 1.05 -21.85 Q4.6 -23.15 5.25 -24.75 4.95 -23.9 3.75 -22.45 L1.6 -20.0 1.6 -18.45 Q2.75 -17.95 3.35 -19.5 L2.25 -17.05 Q1.15 -15.65 1.15 -14.25 L1.2 -13.2 1.55 -12.0 1.7 -13.4 Q1.75 -14.4 2.65 -15.75 L2.8 -14.75 Q3.0 -13.9 3.45 -13.9 L3.4 -15.25 Q3.4 -17.0 4.15 -18.6 4.8 -19.8 6.6 -21.25 8.25 -22.6 8.15 -24.05 8.0 -25.5 7.15 -27.05 L6.7 -27.95 M5.15 -25.45 L5.0 -25.1 Q4.85 -26.0 5.2 -26.95 L5.5 -28.25 5.45 -29.45 5.95 -28.5 Q6.3 -27.95 6.1 -27.4 L5.85 -26.3 5.15 -25.45 M12.05 -11.65 Q13.05 -10.25 12.75 -9.85 L12.5 -9.6 12.45 -9.5 Q11.7 -9.65 11.45 -10.05 11.1 -10.6 11.1 -11.95 11.1 -13.9 11.85 -15.15 11.05 -13.1 12.05 -11.65 M-11.65 -12.85 Q-12.85 -13.45 -13.25 -14.7 L-13.85 -17.35 -12.9 -16.4 Q-12.25 -15.75 -12.1 -15.0 L-11.85 -13.45 -11.65 -12.85" fill="#fff1b4" fill-opacity="0.85882354" fill-rule="evenodd" stroke="none"/>
    </g>
    <radialGradient cx="0" cy="0" gradientTransform="matrix(0.0343, 0.0, 0.0, 0.0271, 0.55, -21.75)" gradientUnits="userSpaceOnUse" id="decoration149-gradient0" r="819.2" spreadMethod="pad">
      <stop offset="0.0" stop-color="#fffdf5" stop-opacity="0.8784314"/>
      <stop offset="0.14901960784313725" stop-color="#ffd202" stop-opacity="0.7019608"/>
      <stop offset="0.39215686274509803" stop-color="#f79331" stop-opacity="0.5411765"/>
      <stop offset="0.615686274509804" stop-color="#fcc86f" stop-opacity="0.14117648"/>
      <stop offset="1.0" stop-color="#ffdd87" stop-opacity="0.0"/>
    </radialGradient>
    <linearGradient gradientTransform="matrix(0.0012, 0.0046, -0.0076, 0.002, 12.4, -31.45)" gradientUnits="userSpaceOnUse" id="decoration149-gradient1" spreadMethod="pad" x1="-819.2" x2="819.2">
      <stop offset="0.043137254901960784" stop-color="#f35225"/>
      <stop offset="1.0" stop-color="#ffe362" stop-opacity="0.7607843"/>
    </linearGradient>
    <linearGradient gradientTransform="matrix(0.0, 0.0099, -0.0246, -1.0E-4, 1.5, -18.25)" gradientUnits="userSpaceOnUse" id="decoration149-gradient2" spreadMethod="pad" x1="-819.2" x2="819.2">
      <stop offset="0.0" stop-color="#f35225"/>
      <stop offset="1.0" stop-color="#ffe362" stop-opacity="0.7607843"/>
    </linearGradient>
    <linearGradient gradientTransform="matrix(0.0, 0.0099, -0.0246, -1.0E-4, 1.5, -18.25)" gradientUnits="userSpaceOnUse" id="decoration149-gradient3" spreadMethod="pad" x1="-819.2" x2="819.2">
      <stop offset="0.0" stop-color="#f35225"/>
      <stop offset="0.9882352941176471" stop-color="#ffe362"/>
    </linearGradient>
  </defs>
</svg>
