<?xml version="1.0" encoding="UTF-8" standalone="no"?>
<svg xmlns:xlink="http://www.w3.org/1999/xlink" height="62.25px" width="177.4px" xmlns="http://www.w3.org/2000/svg">
  <g transform="matrix(1.0, 0.0, 0.0, 1.0, 86.25, 61.55)">
    <use data-characterId="820" height="60.2" transform="matrix(1.0, 0.0, 0.0, 1.0, -72.6, -61.15)" width="163.75" xlink:href="#decoration15-shape0"/>
    <use data-characterId="822" height="68.45" id="decoration15-Couleur0_8A311B" filter="url(#decoration15-filter0)" transform="matrix(0.9059, 0.0, 0.0, 0.9059, -86.2312, -61.5312)" width="192.4" xlink:href="#decoration15-sprite0"/>
    <use data-characterId="823" height="29.25" id="decoration15-B" transform="matrix(1.0, 0.0, 0.0, 1.0, -85.4, -28.55)" width="172.05" xlink:href="#decoration15-sprite1"/>
  </g>
  <defs>
    <g id="decoration15-shape0" transform="matrix(1.0, 0.0, 0.0, 1.0, 72.6, 61.15)">
      <path d="M66.0 -55.65 L64.35 -45.6 Q82.15 -48.45 89.4 -44.65 L89.4 -13.95 Q92.7 -8.3 89.8 -2.65 L86.95 -0.95 -72.6 -0.95 -65.45 -39.95 -27.05 -60.7 Q-16.25 -61.95 -6.55 -59.85 1.4 -62.1 1.0 -58.95 4.1 -60.6 9.8 -58.6 13.15 -60.0 19.7 -59.15 42.7 -62.9 59.65 -59.0 68.25 -61.6 66.0 -55.65" fill="#000000" fill-opacity="0.3019608" fill-rule="evenodd" stroke="none"/>
    </g>
    <g id="decoration15-sprite0" transform="matrix(1.0, 0.0, 0.0, 1.0, 0.2, 0.2)">
      <use data-characterId="821" height="68.45" transform="matrix(1.0, 0.0, 0.0, 1.0, -0.2, -0.2)" width="192.4" xlink:href="#decoration15-shape1"/>
    </g>
    <g id="decoration15-shape1" transform="matrix(1.0, 0.0, 0.0, 1.0, 0.2, 0.2)">
      <path d="M163.2 14.8 Q180.75 12.6 188.6 15.45 190.0 27.2 187.65 38.35 184.8 46.8 176.0 49.15 163.7 48.4 160.9 39.2 L160.9 35.9 160.9 29.4 160.9 18.25 Q162.05 15.0 163.2 14.8" fill="url(#decoration15-gradient0)" fill-rule="evenodd" stroke="none"/>
      <path d="M188.6 15.45 Q189.75 15.9 190.7 16.45 L190.7 52.7 160.9 52.7 160.9 49.6 Q159.7 51.45 156.6 52.7 L100.5 52.7 Q95.15 51.8 94.05 48.6 L94.05 35.45 94.05 48.6 Q93.55 52.3 87.1 52.7 L35.25 52.7 Q31.1 52.6 30.95 49.25 L30.95 38.25 30.95 49.25 30.95 52.7 1.15 52.7 1.15 34.45 Q1.75 45.4 12.2 47.0 24.6 49.5 27.45 39.5 29.55 30.45 30.95 21.8 L30.95 17.95 Q29.2 14.85 27.45 14.6 L25.4 8.8 Q22.7 4.65 25.4 2.55 24.5 6.75 31.15 7.3 35.6 21.0 60.5 18.1 49.5 22.55 48.9 23.95 51.7 32.85 80.7 29.35 89.05 27.7 90.7 11.7 89.25 8.05 86.65 6.6 90.5 6.25 93.6 2.35 93.35 5.05 90.75 6.1 L90.95 8.0 91.4 12.6 Q92.15 21.4 92.25 30.25 93.65 33.4 92.7 34.25 91.75 33.6 90.75 33.55 62.55 32.0 33.75 33.8 32.3 36.7 32.95 43.85 42.1 47.35 68.65 47.35 83.5 46.3 90.4 42.5 92.8 40.85 94.05 35.45 94.6 34.65 95.6 34.1 94.1 44.05 105.65 46.9 129.5 49.9 153.0 47.3 160.5 41.5 157.6 33.0 159.55 33.55 160.9 35.9 L160.9 39.2 Q163.7 48.4 176.0 49.15 184.8 46.8 187.65 38.35 190.0 27.2 188.6 15.45 M97.4 12.5 L98.0 6.7 Q95.35 5.7 95.05 3.0 96.55 5.4 100.25 6.05 98.05 18.8 105.35 26.75 125.35 29.65 138.5 22.8 136.6 25.7 131.9 27.85 145.3 28.5 154.55 22.8 159.9 15.6 161.15 7.45 164.9 7.05 165.25 2.55 168.05 4.65 165.25 8.8 L163.2 14.8 Q162.05 15.0 160.9 18.25 L160.9 29.4 Q159.55 32.45 157.6 33.0 L99.3 33.0 Q97.0 33.3 95.6 34.1 95.5 33.0 96.45 30.9 96.55 21.75 97.4 12.5 M160.9 39.2 L160.9 49.6 160.9 39.2 M30.95 38.25 Q31.15 34.8 33.75 33.8 32.35 33.85 30.95 31.95 L30.95 38.25 M30.95 31.95 L30.95 21.8 30.95 31.95" fill="#56524f" fill-rule="evenodd" stroke="none"/>
      <path d="M191.05 63.9 L191.15 68.05 175.8 68.05 175.8 63.95 191.0 63.95 191.05 63.9 M21.0 63.95 L21.0 67.75 2.95 67.75 2.95 63.95 21.0 63.95 M91.4 12.6 L97.4 12.5 Q96.55 21.75 96.45 30.9 95.5 33.0 95.6 34.1 94.6 34.65 94.05 35.45 L92.7 34.25 Q93.65 33.4 92.25 30.25 92.15 21.4 91.4 12.6 M160.9 29.4 L160.9 35.9 Q159.55 33.55 157.6 33.0 159.55 32.45 160.9 29.4 M94.05 48.6 Q95.15 51.8 100.5 52.7 L94.25 52.7 87.1 52.7 Q93.55 52.3 94.05 48.6 M156.6 52.7 Q159.7 51.45 160.9 49.6 L160.9 52.7 156.6 52.7 M33.75 33.8 Q31.15 34.8 30.95 38.25 L30.95 31.95 Q32.35 33.85 33.75 33.8 M30.95 49.25 Q31.1 52.6 35.25 52.7 L30.95 52.7 30.95 49.25" fill="#463e3e" fill-rule="evenodd" stroke="none"/>
      <path d="M190.7 52.7 L191.75 56.15 Q192.5 60.25 191.05 63.9 L191.0 63.95 175.8 63.95 94.25 63.95 21.0 63.95 2.95 63.95 0.85 63.95 Q-0.45 59.65 0.2 55.75 L1.15 52.7 30.95 52.7 35.25 52.7 87.1 52.7 94.25 52.7 100.5 52.7 156.6 52.7 160.9 52.7 190.7 52.7 M94.25 63.95 L94.25 52.7 94.25 63.95" fill="url(#decoration15-gradient1)" fill-rule="evenodd" stroke="none"/>
      <path d="M95.05 3.0 Q97.55 1.1 101.85 2.95 118.4 -0.05 134.85 0.4 147.9 0.7 160.95 3.25 163.1 2.35 165.25 2.55 164.9 7.05 161.15 7.45 159.9 15.6 154.55 22.8 145.3 28.5 131.9 27.85 136.6 25.7 138.5 22.8 125.35 29.65 105.35 26.75 98.05 18.8 100.25 6.05 96.55 5.4 95.05 3.0" fill="url(#decoration15-gradient2)" fill-rule="evenodd" stroke="none"/>
      <path d="M157.6 33.0 Q160.5 41.5 153.0 47.3 129.5 49.9 105.65 46.9 94.1 44.05 95.6 34.1 97.0 33.3 99.3 33.0 L157.6 33.0" fill="#808080" fill-rule="evenodd" stroke="none"/>
      <path d="M25.4 2.55 Q27.5 2.3 29.6 3.2 42.25 0.55 54.95 0.1 60.15 -0.1 65.4 0.1 76.2 0.45 87.0 2.35 91.2 0.5 93.6 2.35 90.5 6.25 86.65 6.6 89.25 8.05 90.7 11.7 89.05 27.7 80.7 29.35 51.7 32.85 48.9 23.95 49.5 22.55 60.5 18.1 35.6 21.0 31.15 7.3 24.5 6.75 25.4 2.55" fill="url(#decoration15-gradient3)" fill-rule="evenodd" stroke="none"/>
      <path d="M94.05 35.45 Q92.8 40.85 90.4 42.5 83.5 46.3 68.65 47.35 42.1 47.35 32.95 43.85 32.3 36.7 33.75 33.8 62.55 32.0 90.75 33.55 91.75 33.6 92.7 34.25 L94.05 35.45" fill="url(#decoration15-gradient4)" fill-rule="evenodd" stroke="none"/>
      <path d="M1.15 34.45 L1.15 19.3 Q1.3 15.6 4.45 14.3 16.35 12.75 27.45 14.6 29.2 14.85 30.95 17.95 L30.95 21.8 Q29.55 30.45 27.45 39.5 24.6 49.5 12.2 47.0 1.75 45.4 1.15 34.45" fill="url(#decoration15-gradient5)" fill-rule="evenodd" stroke="none"/>
      <path d="M163.2 14.8 Q180.75 12.6 188.6 15.45 189.75 15.9 190.7 16.45 L190.7 52.7 191.75 56.15 Q192.5 60.25 191.05 63.9 L191.15 68.05 175.8 68.05 175.8 63.95 94.25 63.95 21.0 63.95 21.0 67.75 2.95 67.75 2.95 63.95 0.85 63.95 Q-0.45 59.65 0.2 55.75 L1.15 52.7 1.15 34.45 1.15 19.3 Q1.3 15.6 4.45 14.3 16.35 12.75 27.45 14.6 L25.4 8.8 Q22.7 4.65 25.4 2.55 27.5 2.3 29.6 3.2 42.25 0.55 54.95 0.1 60.15 -0.1 65.4 0.1 76.2 0.45 87.0 2.35 91.2 0.5 93.6 2.35 93.35 5.05 90.75 6.1 L90.95 8.0 91.4 12.6 97.4 12.5 98.0 6.7 Q95.35 5.7 95.05 3.0 97.55 1.1 101.85 2.95 118.4 -0.05 134.85 0.4 147.9 0.7 160.95 3.25 163.1 2.35 165.25 2.55 168.05 4.65 165.25 8.8 L163.2 14.8 Q162.05 15.0 160.9 18.25 L160.9 29.4 160.9 35.9 160.9 39.2 160.9 49.6 Q159.7 51.45 156.6 52.7 L160.9 52.7 190.7 52.7 M191.05 63.9 L191.0 63.95 175.8 63.95 M160.9 35.9 Q159.55 33.55 157.6 33.0 L99.3 33.0 Q97.0 33.3 95.6 34.1 95.5 33.0 96.45 30.9 96.55 21.75 97.4 12.5 M95.6 34.1 Q94.6 34.65 94.05 35.45 L94.05 48.6 Q95.15 51.8 100.5 52.7 L156.6 52.7 M160.9 29.4 Q159.55 32.45 157.6 33.0 M94.05 35.45 L92.7 34.25 Q91.75 33.6 90.75 33.55 62.55 32.0 33.75 33.8 31.15 34.8 30.95 38.25 L30.95 49.25 Q31.1 52.6 35.25 52.7 L87.1 52.7 Q93.55 52.3 94.05 48.6 M92.7 34.25 Q93.65 33.4 92.25 30.25 92.15 21.4 91.4 12.6 M94.25 52.7 L94.25 63.95 M87.1 52.7 L94.25 52.7 100.5 52.7 M160.9 52.7 L160.9 49.6 M27.45 14.6 Q29.2 14.85 30.95 17.95 L30.95 21.8 30.95 31.95 Q32.35 33.85 33.75 33.8 M30.95 31.95 L30.95 38.25 M1.15 52.7 L30.95 52.7 30.95 49.25 M30.95 52.7 L35.25 52.7 M21.0 63.95 L2.95 63.95" fill="none" stroke="#000000" stroke-linecap="round" stroke-linejoin="round" stroke-opacity="0.30980393" stroke-width="0.4"/>
    </g>
    <linearGradient gradientTransform="matrix(-0.0043, -0.028, 0.0213, -0.0033, 169.3, 21.3)" gradientUnits="userSpaceOnUse" id="decoration15-gradient0" spreadMethod="pad" x1="-819.2" x2="819.2">
      <stop offset="0.0" stop-color="#808080"/>
      <stop offset="0.9882352941176471" stop-color="#a8a5a5"/>
    </linearGradient>
    <linearGradient gradientTransform="matrix(0.0, 0.024, -0.0069, 0.0, 96.05, 58.35)" gradientUnits="userSpaceOnUse" id="decoration15-gradient1" spreadMethod="pad" x1="-819.2" x2="819.2">
      <stop offset="0.0" stop-color="#696765"/>
      <stop offset="0.9882352941176471" stop-color="#3c3733"/>
    </linearGradient>
    <linearGradient gradientTransform="matrix(0.0, -0.0428, 0.0168, 0.0, 125.05, 8.85)" gradientUnits="userSpaceOnUse" id="decoration15-gradient2" spreadMethod="pad" x1="-819.2" x2="819.2">
      <stop offset="0.0" stop-color="#808080"/>
      <stop offset="0.9882352941176471" stop-color="#a8a5a5"/>
    </linearGradient>
    <linearGradient gradientTransform="matrix(-0.0109, -0.0402, 0.0179, -0.0048, 54.85, 10.55)" gradientUnits="userSpaceOnUse" id="decoration15-gradient3" spreadMethod="pad" x1="-819.2" x2="819.2">
      <stop offset="0.0" stop-color="#808080"/>
      <stop offset="0.9882352941176471" stop-color="#a8a5a5"/>
    </linearGradient>
    <linearGradient gradientTransform="matrix(0.0, -0.0191, 0.0088, 0.0, 47.4, 22.8)" gradientUnits="userSpaceOnUse" id="decoration15-gradient4" spreadMethod="pad" x1="-819.2" x2="819.2">
      <stop offset="0.0392156862745098" stop-color="#808080"/>
      <stop offset="0.9882352941176471" stop-color="#a8a5a5"/>
    </linearGradient>
    <linearGradient gradientTransform="matrix(-0.0024, -0.0229, 0.0206, -0.0022, 12.6, 17.5)" gradientUnits="userSpaceOnUse" id="decoration15-gradient5" spreadMethod="pad" x1="-819.2" x2="819.2">
      <stop offset="0.0" stop-color="#808080"/>
      <stop offset="0.9882352941176471" stop-color="#a8a5a5"/>
    </linearGradient>
    <g id="decoration15-sprite1" transform="matrix(1.0, 0.0, 0.0, 1.0, 0.0, 0.0)">
      <use data-characterId="238" height="2.2" transform="matrix(3.0833, 0.0, 0.0, 13.2955, 0.0, 0.0)" width="55.8" xlink:href="#decoration15-shape2"/>
    </g>
    <g id="decoration15-shape2" transform="matrix(1.0, 0.0, 0.0, 1.0, 0.0, 0.0)">
      <path d="M55.8 2.2 L0.0 2.2 0.0 0.0 55.8 0.0 55.8 2.2" fill="#0066ff" fill-opacity="0.0" fill-rule="evenodd" stroke="none"/>
    </g>
  </defs>
</svg>
