<?xml version="1.0" encoding="UTF-8" standalone="no"?>
<svg xmlns:xlink="http://www.w3.org/1999/xlink" height="54.9px" width="117.05px" xmlns="http://www.w3.org/2000/svg">
  <g transform="matrix(1.0, 0.0, 0.0, 1.0, 58.55, 0.0)">
    <use height="54.9" transform="matrix(1.0, 0.0, 0.0, 1.0, -58.55, 0.0)" width="117.05" xlink:href="#decoration152-shape0"/>
  </g>
  <defs>
    <g id="decoration152-shape0" transform="matrix(1.0, 0.0, 0.0, 1.0, 58.55, 0.0)">
      <path d="M-56.0 6.9 Q-3.7 78.9 55.0 8.8 58.35 3.65 58.5 0.0 M-53.65 0.1 Q0.0 44.7 48.2 0.1" fill="none" stroke="#000000" stroke-linecap="round" stroke-linejoin="round" stroke-opacity="0.3019608" stroke-width="0.05"/>
      <path d="M-56.0 6.9 Q-56.95 5.65 -57.55 3.75 L-58.4 0.2" fill="none" stroke="#000000" stroke-linecap="round" stroke-linejoin="round" stroke-opacity="0.3019608" stroke-width="0.30000000000000004"/>
      <path d="M44.05 22.9 L44.95 22.15 45.85 22.4 46.5 22.75 47.0 22.95 47.05 22.95 46.3 20.5 48.0 19.05 48.05 21.0 Q48.05 22.15 48.3 22.85 48.55 23.55 49.35 24.2 L50.65 25.3 49.95 25.95 49.1 26.6 Q48.65 25.05 47.0 24.3 45.9 23.8 43.95 23.6 L43.35 23.65 44.05 22.9 M28.15 16.75 Q29.9 15.95 30.2 15.95 L29.65 17.75 Q29.35 18.85 29.35 19.55 29.4 20.3 29.95 21.15 L30.85 22.6 29.95 23.0 29.0 23.3 Q29.0 21.75 27.65 20.5 26.75 19.7 25.0 18.9 L24.4 18.75 25.3 18.25 Q26.2 17.8 26.35 17.85 L27.1 18.35 27.65 18.9 28.05 19.25 28.15 19.25 28.15 16.75" fill="#e9f8fd" fill-rule="evenodd" stroke="none"/>
      <path d="M44.05 22.9 L43.35 23.65 43.95 23.6 Q45.9 23.8 47.0 24.3 48.65 25.05 49.1 26.6 L49.95 25.95 50.65 25.3 49.35 24.2 Q48.55 23.55 48.3 22.85 48.05 22.15 48.05 21.0 L48.0 19.05 46.3 20.5 47.05 22.95 47.0 22.95 46.5 22.75 45.85 22.4 44.95 22.15 44.05 22.9 M56.1 25.55 L50.4 26.85 48.1 32.75 39.8 22.85 Q43.45 20.05 47.75 15.65 L56.1 25.55 M28.15 16.75 L28.15 19.25 28.05 19.25 27.65 18.9 27.1 18.35 26.35 17.85 Q26.2 17.8 25.3 18.25 L24.4 18.75 25.0 18.9 Q26.75 19.7 27.65 20.5 29.0 21.75 29.0 23.3 L29.95 23.0 30.85 22.6 29.95 21.15 Q29.4 20.3 29.35 19.55 29.35 18.85 29.65 17.75 L30.2 15.95 Q29.9 15.95 28.15 16.75 M30.95 12.7 L35.95 24.55 30.15 23.95 26.25 28.7 21.2 16.85 Q25.55 15.45 30.95 12.7" fill="#33b996" fill-rule="evenodd" stroke="none"/>
      <path d="M10.1 22.55 Q11.0 25.65 11.25 29.1 L12.85 28.8 12.4 26.3 Q15.85 25.65 15.4 23.8 14.85 21.4 12.25 22.2 L10.1 22.55 M11.7 23.5 Q13.55 22.95 14.0 24.05 14.05 24.95 12.0 25.3 L11.7 23.5 M6.6 20.75 Q11.15 20.35 17.0 18.9 L19.25 31.6 13.75 29.7 8.85 33.45 6.6 20.75 M5.4 48.6 L7.65 48.45 7.9 50.85 9.2 50.75 8.55 44.05 7.0 44.3 7.1 46.85 5.25 46.95 5.05 44.6 3.6 44.7 4.3 51.2 5.7 51.05 5.4 48.6 M10.95 41.15 L12.0 53.9 6.85 51.8 2.4 54.75 0.95 42.2 10.95 41.15" fill="#20609d" fill-rule="evenodd" stroke="none"/>
      <path d="M10.1 22.55 L12.25 22.2 Q14.85 21.4 15.4 23.8 15.85 25.65 12.4 26.3 L12.85 28.8 11.25 29.1 Q11.0 25.65 10.1 22.55 M11.7 23.5 L12.0 25.3 Q14.05 24.95 14.0 24.05 13.55 22.95 11.7 23.5 M5.4 48.6 L5.7 51.05 4.3 51.2 3.6 44.7 5.05 44.6 5.25 46.95 7.1 46.85 7.0 44.3 8.55 44.05 9.2 50.75 7.9 50.85 7.65 48.45 5.4 48.6 M34.6 33.25 L35.3 35.3 36.1 34.75 34.6 33.25 M34.15 30.95 Q36.75 33.55 39.9 35.3 L38.25 36.65 37.4 35.85 35.9 36.5 36.1 37.9 34.4 38.8 Q34.15 36.1 33.05 32.05 L34.15 30.95 M-4.1 23.85 L-1.9 23.85 Q0.8 23.5 0.95 26.0 1.0 27.9 -2.45 27.95 L-2.45 30.45 -4.1 30.45 Q-3.75 27.0 -4.1 23.85 M-16.0 22.0 Q-15.95 25.65 -15.0 29.15 L-17.1 28.9 -17.1 27.75 -18.65 27.15 -19.5 28.25 -21.35 27.75 Q-19.65 25.7 -17.55 22.0 L-16.0 22.0 M-33.1 15.5 L-34.1 17.6 -32.45 18.45 -31.25 16.25 -29.8 16.8 -32.55 22.9 -33.75 22.3 -32.8 20.1 -34.8 19.15 -35.8 21.35 -37.05 20.85 -34.4 14.85 -33.1 15.5 M-22.5 41.15 L-23.7 40.65 -24.2 41.95 -23.55 42.3 -22.75 42.4 -22.2 42.35 Q-21.9 42.25 -21.9 41.95 -21.9 41.45 -22.5 41.15 M-20.55 40.6 Q-19.8 41.95 -20.55 43.35 L-23.0 43.5 -21.5 46.2 -23.2 46.2 -24.3 43.45 -25.25 45.65 -26.8 44.8 Q-25.25 42.25 -24.45 39.0 L-20.55 40.6 M-2.7 26.85 Q-0.65 26.85 -0.5 26.0 -0.8 24.8 -2.7 25.05 L-2.7 26.85 M-18.25 25.85 L-17.3 26.1 -17.3 23.95 -18.25 25.85 M-48.1 22.2 L-49.15 23.35 -48.0 24.35 Q-47.1 24.1 -47.25 23.25 L-48.1 22.2 M-45.8 23.25 Q-46.05 25.65 -47.65 25.2 -47.2 26.7 -48.35 27.45 -49.2 28.1 -50.4 27.2 L-52.7 25.05 Q-50.65 23.15 -48.7 20.55 -46.8 21.65 -45.8 23.25 M-49.65 26.05 Q-48.6 26.05 -48.9 25.2 L-49.95 24.25 -50.85 25.2 -49.65 26.05" fill="#faf9fe" fill-rule="evenodd" stroke="none"/>
      <path d="M18.0 41.35 L19.8 40.4 Q21.75 39.7 22.75 40.7 24.45 42.95 24.15 45.05 22.65 46.45 20.3 47.2 L18.0 41.35 M22.75 43.9 Q22.15 40.65 20.0 42.15 L21.3 45.3 Q22.8 44.85 22.75 43.9 M-11.0 45.15 L-11.0 43.9 -5.7 44.3 -5.7 45.45 -7.65 45.45 Q-8.4 48.1 -8.0 50.55 L-9.85 50.55 Q-9.1 48.15 -9.15 45.45 L-11.0 45.15" fill="#e8fefc" fill-rule="evenodd" stroke="none"/>
      <path d="M18.0 41.35 L20.3 47.2 Q22.65 46.45 24.15 45.05 24.45 42.95 22.75 40.7 21.75 39.7 19.8 40.4 L18.0 41.35 M22.75 43.9 Q22.8 44.85 21.3 45.3 L20.0 42.15 Q22.15 40.65 22.75 43.9 M28.85 47.5 L23.05 46.85 19.35 51.25 15.05 39.5 Q19.7 38.05 24.2 35.7 L28.85 47.5 M3.35 21.4 L3.35 34.3 -1.75 31.5 -7.2 34.35 -7.2 21.45 Q-2.4 21.75 3.35 21.4 M-4.1 23.85 Q-3.75 27.0 -4.1 30.45 L-2.45 30.45 -2.45 27.95 Q1.0 27.9 0.95 26.0 0.8 23.5 -1.9 23.85 L-4.1 23.85 M-33.1 15.5 L-34.4 14.85 -37.05 20.85 -35.8 21.35 -34.8 19.15 -32.8 20.1 -33.75 22.3 -32.55 22.9 -29.8 16.8 -31.25 16.25 -32.45 18.45 -34.1 17.6 -33.1 15.5 M-40.45 22.95 L-35.45 11.35 -26.25 15.45 -31.7 27.0 -35.1 22.6 -40.45 22.95 M-36.85 31.1 Q-38.15 34.05 -40.15 36.3 L-38.3 37.55 Q-36.9 34.45 -35.15 32.1 L-36.85 31.1 M-39.35 38.1 Q-43.4 38.05 -45.1 37.3 L-38.35 26.45 Q-34.4 29.7 -29.8 32.5 L-36.45 43.2 -39.35 38.1 M-2.7 26.85 L-2.7 25.05 Q-0.8 24.8 -0.5 26.0 -0.65 26.85 -2.7 26.85" fill="#44cfb0" fill-rule="evenodd" stroke="none"/>
      <path d="M34.6 33.25 L36.1 34.75 35.3 35.3 34.6 33.25 M34.15 30.95 L33.05 32.05 Q34.15 36.1 34.4 38.8 L36.1 37.9 35.9 36.5 37.4 35.85 38.25 36.65 39.9 35.3 Q36.75 33.55 34.15 30.95 M37.9 37.8 L34.75 43.05 27.75 32.1 Q31.75 30.55 36.5 26.65 L43.7 37.6 37.9 37.8 M-16.0 22.0 L-17.55 22.0 Q-19.65 25.7 -21.35 27.75 L-19.5 28.25 -18.65 27.15 -17.1 27.75 -17.1 28.9 -15.0 29.15 Q-15.95 25.65 -16.0 22.0 M-22.5 41.15 Q-21.9 41.45 -21.9 41.95 -21.9 42.25 -22.2 42.35 L-22.75 42.4 -23.55 42.3 -24.2 41.95 -23.7 40.65 -22.5 41.15 M-20.55 40.6 L-24.45 39.0 Q-25.25 42.25 -26.8 44.8 L-25.25 45.65 -24.3 43.45 -23.2 46.2 -21.5 46.2 -23.0 43.5 -20.55 43.35 Q-19.8 41.95 -20.55 40.6 M-30.45 47.0 L-25.95 35.45 Q-21.45 37.7 -16.3 39.3 L-20.8 50.95 -24.35 46.7 -30.45 47.0 M-13.9 33.45 L-18.2 29.5 -24.1 31.0 -21.3 18.3 Q-17.35 20.0 -11.3 20.6 L-13.9 33.45 M-18.25 25.85 L-17.3 23.95 -17.3 26.1 -18.25 25.85 M-45.8 23.25 Q-46.8 21.65 -48.7 20.55 -50.65 23.15 -52.7 25.05 L-50.4 27.2 Q-49.2 28.1 -48.35 27.45 -47.2 26.7 -47.65 25.2 -46.05 25.65 -45.8 23.25 M-48.1 22.2 L-47.25 23.25 Q-47.1 24.1 -48.0 24.35 L-49.15 23.35 -48.1 22.2 M-48.4 16.05 Q-45.5 19.7 -41.3 23.35 -45.65 27.65 -49.55 32.7 L-51.35 27.5 -57.2 26.05 -48.4 16.05 M-49.65 26.05 L-50.85 25.2 -49.95 24.25 -48.9 25.2 Q-48.6 26.05 -49.65 26.05" fill="#307abb" fill-rule="evenodd" stroke="none"/>
      <path d="M-36.85 31.1 L-35.15 32.1 Q-36.9 34.45 -38.3 37.55 L-40.15 36.3 Q-38.15 34.05 -36.85 31.1" fill="#effbfb" fill-rule="evenodd" stroke="none"/>
      <path d="M-11.0 45.15 L-9.15 45.45 Q-9.1 48.15 -9.85 50.55 L-8.0 50.55 Q-8.4 48.1 -7.65 45.45 L-5.7 45.45 -5.7 44.3 -11.0 43.9 -11.0 45.15 M-12.7 41.0 Q-7.6 42.45 -2.75 42.5 L-4.25 54.55 -8.7 51.4 -14.1 53.05 -12.7 41.0" fill="#3bc6a7" fill-rule="evenodd" stroke="none"/>
      <path d="M47.75 15.65 L47.6 15.45 M56.1 25.55 L47.75 15.65 Q43.45 20.05 39.8 22.85 L48.1 32.75 50.4 26.85 56.1 25.55 M30.95 12.7 Q25.55 15.45 21.2 16.85 L26.25 28.7 30.15 23.95 35.95 24.55 30.95 12.7 M17.0 18.9 L17.0 18.65 M6.6 20.75 L8.85 33.45 13.75 29.7 19.25 31.6 17.0 18.9 Q11.15 20.35 6.6 20.75 M10.95 41.15 L12.0 53.9 6.85 51.8 2.4 54.75 0.95 42.2 10.95 41.15 M28.85 47.5 L24.2 35.7 Q19.7 38.05 15.05 39.5 L19.35 51.25 23.05 46.85 28.85 47.5 M37.9 37.8 L43.7 37.6 36.5 26.65 Q31.75 30.55 27.75 32.1 L34.75 43.05 37.9 37.8 M3.35 21.4 Q-2.4 21.75 -7.2 21.45 L-7.2 34.35 -1.75 31.5 3.35 34.3 3.35 21.4 M-40.45 22.95 L-35.45 11.35 -26.25 15.45 -31.7 27.0 -35.1 22.6 -40.45 22.95 M-39.35 38.1 Q-43.4 38.05 -45.1 37.3 L-38.35 26.45 Q-34.4 29.7 -29.8 32.5 L-36.45 43.2 -39.35 38.1 M-30.45 47.0 L-25.95 35.45 Q-21.45 37.7 -16.3 39.3 L-20.8 50.95 -24.35 46.7 -30.45 47.0 M-13.9 33.45 L-11.3 20.6 Q-17.35 20.0 -21.3 18.3 L-24.1 31.0 -18.2 29.5 -13.9 33.45 M-12.7 41.0 L-14.1 53.05 -8.7 51.4 -4.25 54.55 -2.75 42.5 Q-7.6 42.45 -12.7 41.0 M-48.4 16.05 L-57.2 26.05 -51.35 27.5 -49.55 32.7 Q-45.65 27.65 -41.3 23.35 -45.5 19.7 -48.4 16.05" fill="none" stroke="#000000" stroke-linecap="round" stroke-linejoin="round" stroke-opacity="0.3019608" stroke-width="0.30000000000000004"/>
    </g>
  </defs>
</svg>
