<?xml version="1.0" encoding="UTF-8" standalone="no"?>
<svg xmlns:xlink="http://www.w3.org/1999/xlink" height="30.6px" width="22.4px" xmlns="http://www.w3.org/2000/svg">
  <g transform="matrix(1.0, 0.0, 0.0, 1.0, 10.8, 24.5)">
    <use height="30.6" transform="matrix(1.0, 0.0, 0.0, 1.0, -10.8, -24.5)" width="22.4" xlink:href="#decoration153-shape0"/>
  </g>
  <defs>
    <g id="decoration153-shape0" transform="matrix(1.0, 0.0, 0.0, 1.0, 10.8, 24.5)">
      <path d="M3.7 -17.45 L3.0 -17.45 Q2.05 -17.35 1.1 -16.85 L-0.35 -16.1 0.9 -18.05 3.7 -17.45 M2.85 -10.5 L1.45 -9.85 Q-2.45 -7.9 -6.3 -4.6 L-2.9 -11.55 0.9 -13.65 3.05 -14.25 2.85 -10.5 M-2.9 -2.0 Q-0.45 -4.3 2.15 -5.95 L1.75 -4.3 Q1.45 -3.15 -0.45 -1.25 L-2.9 -2.0" fill="#f1cd5b" fill-rule="evenodd" stroke="none"/>
      <path d="M3.0 -17.45 L3.7 -17.45 4.7 -14.5 3.05 -14.25 3.05 -15.8 3.0 -17.45 M2.15 -5.95 L2.85 -10.5 5.5 -11.45 6.15 -8.5 Q4.35 -7.6 2.6 -6.3 L2.15 -5.95 M6.7 -5.2 L7.35 0.95 1.05 -0.8 Q2.25 -2.55 3.65 -3.6 5.05 -4.7 6.7 -5.2" fill="#317f87" fill-rule="evenodd" stroke="none"/>
      <path d="M-0.35 -16.1 L1.1 -16.85 Q2.05 -17.35 3.0 -17.45 L3.05 -15.8 3.05 -14.25 0.9 -13.65 -2.9 -11.55 -0.35 -16.1 M-6.3 -4.6 Q-2.45 -7.9 1.45 -9.85 L2.85 -10.5 2.15 -5.95 Q-0.45 -4.3 -2.9 -2.0 L-6.9 -3.15 -6.3 -4.6" fill="#47b7c3" fill-rule="evenodd" stroke="none"/>
      <path d="M3.05 -14.25 L4.7 -14.5 5.5 -11.45 2.85 -10.5 3.05 -14.25 M6.15 -8.5 L6.7 -5.2 Q5.05 -4.7 3.65 -3.6 2.25 -2.55 1.05 -0.8 L-0.45 -1.25 Q1.45 -3.15 1.75 -4.3 L2.15 -5.95 2.6 -6.3 Q4.35 -7.6 6.15 -8.5" fill="#b18e20" fill-rule="evenodd" stroke="none"/>
      <path d="M3.7 -17.45 L0.9 -18.05 -0.35 -16.1 M4.7 -14.5 L3.7 -17.45 M-6.3 -4.6 L-6.9 -3.15 -2.9 -2.0 M-2.9 -11.55 L-6.3 -4.6 M5.5 -11.45 L6.15 -8.5 6.7 -5.2 7.35 0.95 1.05 -0.8 -0.45 -1.25 -2.9 -2.0 M5.5 -11.45 L4.7 -14.5 M-2.9 -11.55 L-0.35 -16.1" fill="none" stroke="#000000" stroke-linecap="round" stroke-linejoin="round" stroke-opacity="0.3019608" stroke-width="0.30000000000000004"/>
      <path d="M0.05 -23.55 L0.95 -23.2 1.85 -22.3 3.7 -24.35 Q4.35 -23.35 4.0 -21.45 L6.95 -21.95 Q6.45 -20.35 4.55 -19.75 L4.6 -19.7 6.9 -18.7 4.35 -18.35 Q4.15 -17.35 4.5 -16.25 L2.6 -17.8 2.0 -16.6 1.4 -17.4 1.0 -18.2 -1.55 -18.1 -1.85 -18.3 -0.05 -19.9 -0.1 -19.95 Q-2.35 -20.65 -1.85 -22.25 L0.2 -22.15 Q0.5 -22.85 0.05 -23.55" fill="#d8feff" fill-rule="evenodd" stroke="none"/>
      <path d="M0.05 -23.55 Q0.5 -22.85 0.2 -22.15 L-1.85 -22.25 Q-2.35 -20.65 -0.1 -19.95 L-0.05 -19.9 -1.85 -18.3 -1.55 -18.1 1.0 -18.2 1.4 -17.4 2.0 -16.6 2.6 -17.8 4.5 -16.25 Q4.15 -17.35 4.35 -18.35 L6.9 -18.7 4.6 -19.7 4.55 -19.75 Q6.45 -20.35 6.95 -21.95 L4.0 -21.45 Q4.35 -23.35 3.7 -24.35 L1.85 -22.3 0.95 -23.2 0.05 -23.55 Z" fill="none" stroke="#000000" stroke-linecap="round" stroke-linejoin="round" stroke-opacity="0.3019608" stroke-width="0.30000000000000004"/>
      <path d="M-9.5 -1.2 L-9.75 -1.75 -10.0 -3.6 -8.05 -3.4 -6.3 -3.35 -6.7 -4.15 -6.85 -4.9 -4.45 -4.05 Q-5.0 -4.8 -4.55 -5.8 L-3.15 -8.3 -3.0 -8.25 Q-2.55 -6.85 -0.3 -5.2 0.6 -5.7 0.95 -6.6 L0.75 -5.6 Q0.55 -4.65 0.75 -4.45 L1.95 -5.3 Q2.1 -4.35 2.45 -4.05 2.95 -4.7 4.7 -5.4 L7.25 -6.1 6.4 -4.15 5.5 -3.15 Q5.05 -2.8 4.75 -2.85 5.05 -2.8 5.5 -3.15 L6.35 -3.5 6.4 -3.45 Q6.35 -2.95 5.95 -2.45 L11.45 -3.05 10.55 -1.4 10.35 -1.15 10.55 -0.6 10.7 0.05 10.15 -0.2 7.95 -0.7 6.4 -1.05 6.1 -1.05 5.95 0.3 5.6 0.3 Q3.85 -0.8 3.25 -0.8 3.0 -0.8 2.45 0.2 L1.8 1.2 -0.75 -1.2 -3.35 0.3 -3.9 -0.6 -4.4 -1.7 Q-5.15 -1.25 -7.2 -0.5 L-10.55 0.5 -9.75 -0.95 -9.5 -1.2 -9.25 -1.55 -9.5 -1.2 M10.05 -1.55 L10.35 -1.15 10.05 -1.55" fill="#d8feff" fill-rule="evenodd" stroke="none"/>
      <path d="M-10.55 0.5 L-7.2 -0.5 Q-5.15 -1.25 -4.4 -1.7 L-3.9 -0.6 -3.35 0.3 -0.75 -1.2 1.8 1.2 2.45 0.2 Q3.0 -0.8 3.25 -0.8 3.85 -0.8 5.6 0.3 L5.95 0.3 6.1 -1.05 6.4 -1.05 7.95 -0.7 10.15 -0.2 10.7 0.05 10.8 1.25 8.85 1.05 7.1 1.0 7.5 1.8 7.65 2.55 5.25 1.7 Q5.8 2.45 5.35 3.45 L3.95 5.95 3.8 5.9 Q3.35 4.5 1.1 2.85 0.2 3.35 -0.15 4.25 L0.05 3.25 Q0.25 2.3 0.05 2.1 -0.4 2.2 -1.15 2.95 -1.3 2.0 -1.65 1.7 -2.15 2.35 -3.9 3.05 L-6.45 3.75 -5.6 1.8 -4.7 0.8 -5.55 1.15 -5.6 1.1 -5.15 0.1 -10.65 0.7 -10.55 0.5 M-3.95 0.5 L-4.7 0.8 -3.95 0.5" fill="#8fa7a8" fill-rule="evenodd" stroke="none"/>
      <path d="M5.5 -3.15 L6.4 -4.15 7.25 -6.1 4.7 -5.4 Q2.95 -4.7 2.45 -4.05 2.1 -4.35 1.95 -5.3 L0.75 -4.45 Q0.55 -4.65 0.75 -5.6 L0.95 -6.6 Q0.6 -5.7 -0.3 -5.2 -2.55 -6.85 -3.0 -8.25 L-3.15 -8.3 -4.55 -5.8 Q-5.0 -4.8 -4.45 -4.05 L-6.85 -4.9 -6.7 -4.15 -6.3 -3.35 -8.05 -3.4 -10.0 -3.6 -9.75 -1.75 -9.5 -1.2 -9.25 -1.55 M-9.5 -1.2 L-9.75 -0.95 -10.55 0.5 -10.65 0.7 -5.15 0.1 -5.6 1.1 -5.55 1.15 -4.7 0.8 -3.95 0.5 M10.7 0.05 L10.55 -0.6 10.35 -1.15 10.05 -1.55 M-4.7 0.8 L-5.6 1.8 -6.45 3.75 -3.9 3.05 Q-2.15 2.35 -1.65 1.7 -1.3 2.0 -1.15 2.95 -0.4 2.2 0.05 2.1 0.25 2.3 0.05 3.25 L-0.15 4.25 Q0.2 3.35 1.1 2.85 3.35 4.5 3.8 5.9 L3.95 5.95 5.35 3.45 Q5.8 2.45 5.25 1.7 L7.65 2.55 7.5 1.8 7.1 1.0 8.85 1.05 10.8 1.25 10.7 0.05 M5.5 -3.15 Q5.05 -2.8 4.75 -2.85 M10.35 -1.15 L10.55 -1.4 11.45 -3.05 5.95 -2.45 Q6.35 -2.95 6.4 -3.45 L6.35 -3.5 5.5 -3.15 Z" fill="none" stroke="#000000" stroke-linecap="round" stroke-linejoin="round" stroke-opacity="0.3019608" stroke-width="0.30000000000000004"/>
    </g>
  </defs>
</svg>
