<?xml version="1.0" encoding="UTF-8" standalone="no"?>
<svg xmlns:ffdec="https://www.free-decompiler.com/flash" xmlns:xlink="http://www.w3.org/1999/xlink" ffdec:objectType="frame" height="64.95px" width="225.7px" xmlns="http://www.w3.org/2000/svg">
  <g transform="matrix(1.0, 0.0, 0.0, 1.0, 106.1, 44.75)">
    <use ffdec:characterId="365" height="64.95" transform="matrix(1.0, 0.0, 0.0, 1.0, -106.1, -44.75)" width="225.7" xlink:href="#decoration154-shape0"/>
  </g>
  <defs>
    <g id="decoration154-shape0" transform="matrix(1.0, 0.0, 0.0, 1.0, 106.1, 44.75)">
      <path d="M-105.75 1.7 L-105.8 -0.1 Q-105.8 -5.25 -103.95 -9.25 -101.8 -13.95 -98.25 -13.95 -97.15 -13.95 -94.95 -12.55 -93.7 -11.8 -93.4 -11.45 -93.55 -14.55 -92.6 -17.1 -91.65 -19.7 -87.1 -22.3 -82.6 -24.9 -75.1 -16.55 -76.3 -24.45 -71.2 -30.8 L-65.05 -38.35 Q-64.0 -39.45 -56.65 -42.35 -49.4 -45.2 -46.15 -44.2 -42.95 -43.2 -33.55 -36.3 -32.1 -41.05 -28.6 -42.3 -25.1 -43.55 -22.6 -41.9 -20.15 -40.3 -20.2 -38.35 L-17.75 -38.6 -15.1 -38.9 Q-9.95 -38.9 -8.0 -34.1 -6.55 -30.45 -7.3 -25.25 -2.05 -26.25 2.75 -17.95 5.15 -13.85 6.6 -10.05 6.9 -11.05 13.05 -14.9 19.95 -19.15 23.9 -19.15 31.0 -19.15 36.5 -15.4 L40.15 -12.5 Q41.35 -11.55 42.2 -11.05 L43.05 -10.65 43.05 -10.85 45.0 -12.45 Q47.5 -14.35 50.45 -13.4 53.35 -12.5 56.25 -9.75 L59.1 -6.45 62.55 -9.3 Q66.15 -12.05 68.25 -12.05 71.15 -12.05 72.6 -10.2 73.35 -9.35 74.25 -6.9 78.1 -8.65 80.6 -10.55 82.6 -11.6 89.15 -11.6 95.15 -11.6 100.6 -8.4 102.15 -7.5 103.65 -4.15 107.75 -5.6 112.7 -4.9 120.85 -3.75 118.95 11.55 L105.05 10.65 Q103.8 10.65 102.7 9.85 L101.7 8.75 Q100.95 10.4 97.55 11.5 94.0 12.65 89.55 12.65 84.6 12.65 82.45 10.85 81.05 8.8 80.2 8.4 L77.3 10.6 Q75.05 12.15 73.0 12.15 71.8 12.15 70.7 11.5 69.6 10.85 67.6 10.85 L58.45 11.35 Q54.65 11.35 51.9 9.45 L49.8 7.5 45.9 8.8 Q41.55 10.05 35.65 10.05 L31.75 9.95 Q29.55 9.65 28.1 8.75 L26.35 7.3 25.65 6.55 21.75 10.75 Q19.45 13.05 17.05 13.05 L6.5 11.35 Q3.5 10.85 0.65 8.65 -1.9 6.75 -3.3 6.75 L-9.9 7.1 Q-14.75 7.1 -19.05 5.1 -22.75 2.95 -23.5 2.65 L-26.75 6.4 Q-29.1 8.6 -32.15 8.6 -34.15 8.6 -38.5 7.25 -42.9 5.85 -44.2 5.85 L-52.8 6.0 Q-53.6 6.0 -55.05 5.2 L-56.35 4.35 -60.05 6.0 Q-63.65 7.7 -67.8 7.7 -71.65 7.7 -74.8 6.0 -77.25 4.35 -77.45 4.35 L-81.7 5.55 Q-85.9 6.75 -89.8 6.75 -96.6 6.75 -101.55 4.55 -104.15 3.35 -105.75 1.7" fill="#e1eff0" fill-rule="evenodd" stroke="none"/>
      <path d="M118.95 11.55 L116.85 13.15 Q115.0 14.6 113.15 15.3 L106.1 15.85 100.05 15.7 96.95 17.35 Q93.9 18.95 91.0 18.95 89.7 18.95 84.7 17.1 79.65 15.2 78.7 15.2 77.6 15.2 75.5 17.55 73.3 19.9 70.45 19.9 L64.55 19.3 56.9 18.05 48.25 16.3 40.6 16.05 27.15 17.6 11.55 19.05 Q6.75 19.75 1.0 16.7 -4.75 13.7 -5.75 12.45 -6.8 11.15 -10.75 13.45 -14.7 15.7 -26.95 16.9 L-41.85 18.05 Q-47.5 18.05 -52.35 14.75 -56.3 11.4 -57.2 11.4 L-62.25 13.1 Q-67.25 14.75 -68.85 14.75 -74.35 14.75 -77.3 12.4 L-79.05 10.75 Q-79.8 10.0 -80.4 10.0 L-90.65 10.95 Q-101.1 10.95 -103.05 8.2 -104.35 7.45 -104.9 6.3 -105.55 4.75 -105.75 1.7 -104.15 3.35 -101.55 4.55 -96.6 6.75 -89.8 6.75 -85.9 6.75 -81.7 5.55 L-77.45 4.35 Q-77.25 4.35 -74.8 6.0 -71.65 7.7 -67.8 7.7 -63.65 7.7 -60.05 6.0 L-56.35 4.35 -55.05 5.2 Q-53.6 6.0 -52.8 6.0 L-44.2 5.85 Q-42.9 5.85 -38.5 7.25 -34.15 8.6 -32.15 8.6 -29.1 8.6 -26.75 6.4 L-23.5 2.65 Q-22.75 2.95 -19.05 5.1 -14.75 7.1 -9.9 7.1 L-3.3 6.75 Q-1.9 6.75 0.65 8.65 3.5 10.85 6.5 11.35 L17.05 13.05 Q19.45 13.05 21.75 10.75 L25.65 6.55 26.35 7.3 28.1 8.75 Q29.55 9.65 31.75 9.95 L35.65 10.05 Q41.55 10.05 45.9 8.8 L49.8 7.5 51.9 9.45 Q54.65 11.35 58.45 11.35 L67.6 10.85 Q69.6 10.85 70.7 11.5 71.8 12.15 73.0 12.15 75.05 12.15 77.3 10.6 L80.2 8.4 Q81.05 8.8 82.45 10.85 84.6 12.65 89.55 12.65 94.0 12.65 97.55 11.5 100.95 10.4 101.7 8.75 L102.7 9.85 Q103.8 10.65 105.05 10.65 L118.95 11.55" fill="#add1d4" fill-rule="evenodd" stroke="none"/>
      <path d="M-105.75 1.7 L-105.8 -0.1 Q-105.8 -5.25 -103.95 -9.25 -101.8 -13.95 -98.25 -13.95 -97.15 -13.95 -94.95 -12.55 -93.7 -11.8 -93.4 -11.45 -93.55 -14.55 -92.6 -17.1 -91.65 -19.7 -87.1 -22.3 -82.6 -24.9 -75.1 -16.55 -76.3 -24.45 -71.2 -30.8 L-65.05 -38.35 Q-64.0 -39.45 -56.65 -42.35 -49.4 -45.2 -46.15 -44.2 -42.95 -43.2 -33.55 -36.3 -32.1 -41.05 -28.6 -42.3 -25.1 -43.55 -22.6 -41.9 -20.15 -40.3 -20.2 -38.35 L-17.75 -38.6 -15.1 -38.9 Q-9.95 -38.9 -8.0 -34.1 -6.55 -30.45 -7.3 -25.25 -2.05 -26.25 2.75 -17.95 5.15 -13.85 6.6 -10.05 6.9 -11.05 13.05 -14.9 19.95 -19.15 23.9 -19.15 31.0 -19.15 36.5 -15.4 L40.15 -12.5 Q41.35 -11.55 42.2 -11.05 L42.2 -11.6 42.65 -11.35 Q42.85 -11.15 43.05 -11.15 L43.05 -10.85 45.0 -12.45 Q47.5 -14.35 50.45 -13.4 53.35 -12.5 56.25 -9.75 L59.1 -6.45 62.55 -9.3 Q66.15 -12.05 68.25 -12.05 71.15 -12.05 72.6 -10.2 73.35 -9.35 74.25 -6.9 78.1 -8.65 80.6 -10.55 82.6 -11.6 89.15 -11.6 95.15 -11.6 100.6 -8.4 102.15 -7.5 103.65 -4.15 107.75 -5.6 112.7 -4.9 120.85 -3.75 118.95 11.55 L116.85 13.15 Q115.0 14.6 113.15 15.3 L106.1 15.85 100.05 15.7 96.95 17.35 Q93.9 18.95 91.0 18.95 89.7 18.95 84.7 17.1 79.65 15.2 78.7 15.2 77.6 15.2 75.5 17.55 73.3 19.9 70.45 19.9 L64.55 19.3 56.9 18.05 48.25 16.3 40.6 16.05 27.15 17.6 11.55 19.05 Q6.75 19.75 1.0 16.7 -4.75 13.7 -5.75 12.45 -6.8 11.15 -10.75 13.45 -14.7 15.7 -26.95 16.9 L-41.85 18.05 Q-47.5 18.05 -52.35 14.75 -56.3 11.4 -57.2 11.4 L-62.25 13.1 Q-67.25 14.75 -68.85 14.75 -74.35 14.75 -77.3 12.4 L-79.05 10.75 Q-79.8 10.0 -80.4 10.0 L-90.65 10.95 Q-101.1 10.95 -103.05 8.2 -104.35 7.45 -104.9 6.3 -105.55 4.75 -105.75 1.7 M42.2 -11.05 L43.05 -10.65 43.05 -10.85" fill="none" stroke="#2b5558" stroke-linecap="round" stroke-linejoin="round" stroke-opacity="0.3019608" stroke-width="0.6000000000000001"/>
    </g>
  </defs>
</svg>
