<?xml version="1.0" encoding="UTF-8" standalone="no"?>
<svg xmlns:xlink="http://www.w3.org/1999/xlink" height="79.85px" width="69.85px" xmlns="http://www.w3.org/2000/svg">
  <g transform="matrix(1.0, 0.0, 0.0, 1.0, 35.0, 79.55)">
    <use height="79.85" transform="matrix(1.0, 0.0, 0.0, 1.0, -35.0, -79.55)" width="69.85" xlink:href="#decoration157-shape0"/>
  </g>
  <defs>
    <g id="decoration157-shape0" transform="matrix(1.0, 0.0, 0.0, 1.0, 35.0, 79.55)">
      <path d="M5.3 -48.0 L-8.5 -48.0 Q2.05 -50.45 6.25 -78.15 L19.6 -78.15 Q17.4 -52.3 5.3 -48.0 M-22.95 -48.0 L-33.9 -48.0 Q-25.25 -56.3 -22.9 -78.15 L-8.3 -78.15 Q-11.35 -53.75 -22.95 -48.0" fill="url(#decoration157-gradient0)" fill-rule="evenodd" stroke="none"/>
      <path d="M19.6 -78.15 L32.35 -78.15 Q29.0 -53.75 19.05 -48.0 L5.3 -48.0 Q17.4 -52.3 19.6 -78.15 M-8.5 -48.0 L-22.95 -48.0 Q-11.35 -53.75 -8.3 -78.15 L6.25 -78.15 Q2.05 -50.45 -8.5 -48.0" fill="url(#decoration157-gradient1)" fill-rule="evenodd" stroke="none"/>
      <path d="M19.6 -78.15 L32.35 -78.15 Q29.0 -53.75 19.05 -48.0 L5.3 -48.0 -8.5 -48.0 -22.95 -48.0 -33.9 -48.0 Q-25.25 -56.3 -22.9 -78.15 L-8.3 -78.15 -8.25 -78.4 M6.25 -78.15 L19.6 -78.15 M6.25 -78.15 L-8.3 -78.15" fill="none" stroke="#000000" stroke-linecap="round" stroke-linejoin="round" stroke-opacity="0.3019608" stroke-width="0.30000000000000004"/>
      <path d="M21.95 -34.15 L22.1 -34.5 Q22.1 -35.15 21.5 -35.15 20.85 -35.15 20.85 -34.5 L20.9 -34.25 Q21.05 -33.9 21.5 -33.9 21.8 -33.9 21.95 -34.15 M23.0 -32.5 L23.0 -32.25 23.0 -31.5 23.0 -30.95 22.25 -31.25 Q20.45 -31.75 17.95 -29.25 20.45 -31.75 22.25 -31.25 20.55 -29.25 18.2 -29.25 L17.95 -29.25 17.8 -29.1 17.8 -29.25 18.0 -31.3 17.7 -33.75 17.1 -36.15 16.8 -36.8 16.55 -37.4 16.4 -37.65 Q15.25 -39.8 12.9 -41.55 L13.55 -41.9 14.65 -42.0 15.5 -41.95 Q16.95 -41.9 18.45 -41.0 L20.6 -39.15 Q22.5 -36.9 22.9 -33.5 L23.0 -32.5 M17.25 -40.55 Q15.8 -39.65 16.4 -37.65 15.8 -39.65 17.25 -40.55 M8.45 -40.25 Q9.9 -41.65 11.15 -41.65 L12.15 -41.6 12.2 -41.55 13.25 -40.6 14.75 -38.65 15.5 -37.5 16.25 -35.0 16.5 -34.0 16.95 -31.35 16.8 -29.65 16.75 -29.35 14.5 -29.85 Q13.3 -30.3 12.15 -31.0 L12.2 -32.8 12.2 -34.95 12.0 -36.15 11.9 -36.8 11.75 -37.05 11.05 -38.3 10.1 -38.5 8.25 -38.1 8.15 -38.0 Q8.15 -39.15 8.4 -40.0 L8.45 -40.25 M13.7 -37.4 Q14.3 -37.4 14.3 -38.15 14.3 -38.9 13.7 -38.9 13.1 -38.9 13.1 -38.15 L13.15 -37.8 Q13.25 -37.4 13.7 -37.4 M19.35 -37.5 Q20.0 -37.5 20.0 -38.35 20.0 -39.3 18.85 -39.65 17.65 -40.0 17.65 -38.95 L17.9 -38.25 Q18.35 -37.5 19.35 -37.5 M16.8 -29.65 L14.5 -29.85 16.8 -29.65 M9.45 -39.55 Q12.1 -40.65 14.75 -38.65 12.1 -40.65 9.45 -39.55 M12.75 -35.7 Q14.9 -36.15 16.5 -34.0 14.9 -36.15 12.75 -35.7 M21.5 -36.2 Q19.25 -35.9 17.7 -33.75 19.25 -35.9 21.5 -36.2" fill="#6b8523" fill-rule="evenodd" stroke="none"/>
      <path d="M21.95 -34.15 Q21.8 -33.9 21.5 -33.9 21.05 -33.9 20.9 -34.25 L20.85 -34.5 Q20.85 -35.15 21.5 -35.15 22.1 -35.15 22.1 -34.5 L21.95 -34.15 M13.7 -37.4 Q13.25 -37.4 13.15 -37.8 L13.1 -38.15 Q13.1 -38.9 13.7 -38.9 14.3 -38.9 14.3 -38.15 14.3 -37.4 13.7 -37.4 M19.35 -37.5 Q18.35 -37.5 17.9 -38.25 L17.65 -38.95 Q17.65 -40.0 18.85 -39.65 20.0 -39.3 20.0 -38.35 20.0 -37.5 19.35 -37.5" fill="#9fc437" fill-rule="evenodd" stroke="none"/>
      <path d="M23.0 -32.5 L22.9 -33.5 32.45 -24.0 -22.6 -24.0 -34.85 -36.8 -34.1 -36.8 -34.1 -36.75 -33.75 -36.5 -31.55 -34.2 -28.7 -31.3 -22.25 -24.75 -8.5 -24.75 2.5 -24.75 10.3 -24.75 14.75 -24.75 16.4 -24.75 19.95 -24.75 25.8 -24.75 30.75 -24.75 23.0 -32.5 M4.4 -36.8 L6.2 -36.8 5.7 -36.4 5.4 -36.15 4.4 -36.15 4.4 -36.8 M-11.05 -36.8 L-9.2 -36.8 -8.95 -36.3 -8.85 -36.15 -10.3 -36.15 -11.05 -36.8 M-31.55 -36.8 L-27.95 -36.8 -28.1 -36.5 -28.3 -36.15 -31.55 -36.15 -31.55 -36.8" fill="#a37751" fill-rule="evenodd" stroke="none"/>
      <path d="M23.0 -30.95 L23.0 -31.5 23.0 -32.25 23.0 -32.5 30.75 -24.75 25.8 -24.75 Q25.65 -28.25 22.7 -28.65 L23.0 -30.95 M15.5 -41.95 L14.65 -42.0 14.65 -48.4 15.5 -48.4 15.5 -41.95 M3.95 -34.55 L4.1 -35.05 4.4 -36.15 5.4 -36.15 3.95 -34.55 M14.0 -8.3 L15.05 -7.8 15.05 0.15 14.0 0.15 14.0 -8.3 M-22.6 0.15 L-24.4 0.15 -24.4 -11.15 -22.6 -9.3 -22.6 0.15 M-24.4 -13.25 L-31.35 -19.1 -33.95 -21.3 -34.85 -22.1 -34.85 -36.8 -22.6 -24.0 -22.6 -11.65 -24.4 -13.25 M-33.95 0.15 L-34.85 0.15 -34.85 -18.6 -33.95 -17.85 -33.95 0.15 M-34.1 -36.8 L-34.1 -48.0 -33.75 -48.0 -33.75 -36.5 -34.1 -36.75 -34.1 -36.8 M28.25 -10.05 L29.75 -10.05 29.75 0.15 28.25 0.15 28.25 -10.05 M-8.85 -36.15 L-8.25 -35.4 -9.3 -35.15 -10.3 -36.15 -8.85 -36.15 M-28.3 -36.15 Q-28.85 -34.95 -28.85 -33.75 L-28.7 -31.45 -28.7 -31.3 -31.55 -34.2 -31.55 -36.15 -28.3 -36.15 M-28.55 -24.85 L-30.15 -26.4 -28.55 -24.85 M-28.8 -27.25 L-32.4 -30.85 -28.8 -27.25 M-25.1 -17.1 L-32.4 -23.15 -25.1 -17.1" fill="#463323" fill-rule="evenodd" stroke="none"/>
      <path d="M22.25 -31.25 L23.0 -30.95 22.7 -28.65 Q22.45 -27.8 22.0 -27.1 21.35 -25.9 19.95 -24.75 L16.4 -24.75 Q17.4 -27.15 17.8 -29.1 L17.95 -29.25 18.2 -29.25 Q20.55 -29.25 22.25 -31.25 M6.2 -36.8 Q7.0 -38.65 8.25 -40.05 L8.45 -40.25 8.4 -40.0 Q8.15 -39.15 8.15 -38.0 L6.2 -36.8 M12.15 -31.0 Q13.3 -30.3 14.5 -29.85 13.75 -29.7 13.0 -29.2 13.75 -29.7 14.5 -29.85 L16.75 -29.35 Q16.25 -27.15 14.75 -24.75 L10.3 -24.75 11.15 -26.05 Q11.95 -27.95 12.15 -31.0" fill="#4a5d17" fill-rule="evenodd" stroke="none"/>
      <path d="M22.7 -28.65 Q25.65 -28.25 25.8 -24.75 L19.95 -24.75 Q21.35 -25.9 22.0 -27.1 22.45 -27.8 22.7 -28.65 M2.6 -32.5 L2.05 -31.4 2.0 -31.5 1.35 -32.6 Q2.1 -32.6 3.25 -33.5 L2.6 -32.5" fill="#25190f" fill-rule="evenodd" stroke="none"/>
      <path d="M18.45 -41.0 Q16.95 -41.9 15.5 -41.95 L15.5 -48.4 18.45 -48.4 18.45 -41.0 M15.05 -7.8 L18.5 -7.8 18.5 0.15 15.05 0.15 15.05 -7.8 M18.5 -11.65 L15.05 -11.65 14.0 -11.65 -20.1 -11.65 -22.6 -11.65 -22.6 -24.0 32.45 -24.0 32.45 -11.65 29.75 -11.65 28.25 -11.65 18.5 -11.65 M-20.1 -9.3 L-20.1 0.15 -22.6 0.15 -22.6 -9.3 -20.1 -9.3 M-31.35 -15.7 L-31.35 0.15 -33.95 0.15 -33.95 -17.85 -31.35 -15.7 M13.05 -14.5 L8.6 -14.5 13.05 -14.5 M29.75 -10.05 L32.45 -10.05 32.45 0.15 29.75 0.15 29.75 -10.05 M21.5 -20.4 L13.05 -20.4 21.5 -20.4 M-33.75 -48.0 L-31.55 -48.0 -31.55 -36.8 -31.55 -36.15 -31.55 -34.2 -33.75 -36.5 -33.75 -48.0 M-12.3 -21.35 L-16.85 -21.35 -12.3 -21.35 M-12.1 -14.15 L-20.55 -14.15 -12.1 -14.15 M25.65 -16.9 L-8.2 -16.9 25.65 -16.9" fill="#705034" fill-rule="evenodd" stroke="none"/>
      <path d="M12.9 -41.55 Q15.25 -39.8 16.4 -37.65 L16.55 -37.4 16.8 -36.8 17.1 -36.15 17.7 -33.75 18.0 -31.3 17.8 -29.25 16.75 -29.35 16.8 -29.65 16.95 -31.35 16.5 -34.0 16.25 -35.0 15.5 -37.5 14.75 -38.65 13.25 -40.6 12.2 -41.55 12.9 -41.55" fill="#465b0f" fill-rule="evenodd" stroke="none"/>
      <path d="M-1.6 -46.3 L-0.5 -45.65 Q0.6 -44.8 0.6 -43.95 L0.5 -43.3 -0.5 -43.65 -2.35 -43.9 -3.6 -43.75 Q-5.45 -43.45 -7.4 -42.25 L-8.7 -40.9 -9.0 -42.15 Q-9.0 -43.25 -7.85 -44.25 L-7.35 -44.65 -6.9 -44.9 -4.9 -45.85 -4.4 -46.0 -1.6 -46.3 -1.1 -45.4 Q-0.45 -44.3 -0.5 -43.65 -0.45 -44.3 -1.1 -45.4 L-1.6 -46.3 M-3.6 -43.75 Q-2.85 -45.3 -4.4 -46.0 -2.85 -45.3 -3.6 -43.75 M-7.35 -44.65 Q-8.15 -43.15 -7.4 -42.25 -8.15 -43.15 -7.35 -44.65 M-24.75 -41.3 L-24.75 -41.35 -23.95 -41.6 -22.5 -42.0 -21.45 -42.15 -20.35 -42.25 -18.5 -42.3 -18.5 -42.25 -18.45 -42.3 -17.35 -42.25 Q-14.35 -41.0 -15.4 -39.3 L-16.1 -39.4 -16.35 -39.4 -18.0 -39.5 Q-16.8 -40.9 -18.5 -42.25 -16.8 -40.9 -18.0 -39.5 L-21.2 -39.5 -22.2 -39.4 -23.25 -39.3 Q-24.6 -40.0 -23.95 -41.6 -24.6 -40.0 -23.25 -39.3 L-26.1 -38.9 Q-27.6 -39.6 -25.4 -41.1 L-24.75 -41.3 M-21.45 -42.15 Q-20.5 -41.2 -21.2 -39.5 -20.5 -41.2 -21.45 -42.15" fill="#cbae84" fill-rule="evenodd" stroke="none"/>
      <path d="M8.15 -38.0 L8.25 -38.1 10.1 -38.5 11.05 -38.3 11.75 -37.05 11.9 -36.8 12.0 -36.15 12.2 -34.95 12.2 -32.8 12.15 -31.0 Q11.95 -27.95 11.15 -26.05 L10.1 -25.9 8.9 -26.15 Q8.5 -26.4 8.5 -27.25 L8.55 -27.6 8.6 -27.85 8.85 -27.85 Q8.5 -28.15 8.5 -28.35 L8.7 -28.75 9.15 -29.1 9.0 -29.15 8.95 -29.25 Q8.7 -29.3 8.65 -29.4 L8.6 -29.6 Q8.6 -30.0 9.15 -30.5 9.7 -31.1 10.35 -31.05 L10.1 -31.95 Q10.1 -33.05 11.2 -33.05 L11.2 -34.8 10.95 -36.75 9.7 -36.3 9.6 -36.5 9.55 -36.5 9.5 -37.25 8.15 -36.6 Q7.05 -35.95 6.75 -35.9 L6.9 -35.35 7.15 -34.75 6.8 -34.3 6.15 -33.65 6.6 -33.3 6.65 -33.0 Q6.65 -32.75 5.85 -32.15 5.0 -31.5 5.0 -30.9 5.0 -30.05 3.75 -29.85 L3.85 -29.55 3.9 -29.25 3.3 -29.25 Q2.85 -30.4 2.65 -31.75 L2.6 -32.5 3.25 -33.5 3.25 -33.6 3.3 -33.65 3.95 -34.55 5.4 -36.15 5.7 -36.4 6.2 -36.8 8.15 -38.0" fill="#d4cec5" fill-rule="evenodd" stroke="none"/>
      <path d="M0.5 -43.3 Q1.8 -42.7 2.8 -41.5 L3.6 -40.35 Q3.9 -35.25 0.0 -35.45 -3.9 -35.65 -6.25 -36.95 -8.6 -38.3 -9.05 -40.35 L-8.7 -40.9 -7.4 -42.25 Q-5.45 -43.45 -3.6 -43.75 L-2.35 -43.9 -0.5 -43.65 0.5 -43.3 M-8.65 -47.5 Q-8.55 -48.3 -7.65 -49.15 L-6.75 -49.85 -4.85 -48.95 Q-4.45 -48.95 -3.75 -49.7 -3.0 -50.4 -2.45 -50.4 -2.1 -50.4 -2.05 -49.95 -2.0 -49.45 -1.35 -49.45 L0.4 -49.75 -1.05 -47.25 Q-2.0 -46.75 -2.35 -46.75 -2.9 -46.75 -2.9 -47.75 L-2.75 -48.9 -4.9 -47.65 -5.85 -46.75 Q-6.2 -46.75 -6.3 -47.0 L-6.75 -47.4 -7.6 -45.95 -7.7 -45.7 -8.1 -46.55 -8.65 -47.5 -8.1 -46.55 -7.7 -45.7 -8.25 -44.4 -10.35 -45.25 Q-11.85 -45.9 -11.85 -46.9 -11.85 -47.35 -11.35 -47.35 L-10.7 -47.15 -9.85 -46.7 -9.1 -46.7 -9.35 -47.55 -9.7 -48.3 Q-9.25 -48.4 -8.65 -47.5 M-17.1 -43.2 L-17.75 -43.2 -18.0 -45.9 -18.75 -45.9 -20.35 -44.55 Q-21.45 -43.8 -22.0 -43.8 -22.6 -43.8 -23.05 -44.65 -23.5 -45.55 -24.25 -45.55 L-25.05 -45.15 -25.4 -44.5 -25.3 -43.75 -25.2 -43.1 Q-25.2 -42.5 -25.7 -42.55 L-27.0 -42.7 -27.0 -42.45 -28.7 -43.9 Q-30.2 -45.5 -30.1 -46.0 L-29.75 -46.75 -29.25 -47.0 -28.25 -46.55 -27.1 -46.15 Q-26.85 -46.15 -26.75 -46.25 L-26.7 -46.5 -26.85 -47.0 -26.4 -47.4 -26.0 -47.45 Q-25.5 -47.45 -25.0 -46.95 -24.5 -46.45 -23.6 -46.45 -22.7 -46.45 -21.85 -47.8 -20.95 -49.15 -19.8 -49.15 -18.8 -49.15 -18.6 -48.1 -18.4 -47.1 -17.75 -47.1 L-16.6 -47.2 -16.0 -47.1 Q-15.7 -46.95 -15.85 -45.3 -15.95 -44.2 -17.1 -43.2 M-18.0 -39.5 L-16.35 -39.4 -16.1 -39.4 -15.4 -39.3 Q-13.9 -38.95 -11.95 -37.5 L-11.2 -36.9 Q-11.25 -33.9 -12.75 -32.25 -14.7 -30.3 -19.15 -30.3 -22.75 -30.3 -25.3 -32.05 -27.8 -33.75 -28.1 -36.5 L-27.95 -36.8 -27.75 -37.15 -26.2 -38.8 -26.1 -38.9 -23.25 -39.3 -22.2 -39.4 -21.2 -39.5 -18.0 -39.5 M-18.25 -36.35 L-18.55 -36.8 -19.75 -38.0 -20.85 -38.9 -21.1 -38.6 -21.05 -38.35 -21.1 -38.6 -20.85 -38.9 -19.75 -38.0 -18.55 -36.8 -18.25 -36.35 M-25.15 -36.15 L-24.9 -36.8 Q-24.45 -37.85 -23.5 -38.6 L-22.2 -39.4 -23.5 -38.6 Q-24.45 -37.85 -24.9 -36.8 L-25.15 -36.15" fill="#9f845e" fill-rule="evenodd" stroke="none"/>
      <path d="M9.7 -36.3 L10.55 -35.05 9.5 -33.7 9.4 -33.5 Q9.15 -33.0 9.25 -32.7 L9.6 -31.9 8.9 -31.65 8.25 -30.9 Q8.1 -30.4 8.25 -29.65 L7.75 -29.3 7.35 -28.6 7.55 -27.95 6.9 -27.55 Q6.2 -27.05 6.2 -26.65 L6.3 -26.4 6.45 -26.05 4.15 -25.15 4.15 -25.25 4.55 -25.75 4.9 -26.4 4.75 -26.8 4.65 -27.1 5.4 -27.85 4.9 -29.15 5.9 -29.75 5.7 -30.4 Q7.1 -31.0 7.1 -31.5 L6.9 -32.0 6.75 -32.25 Q7.75 -32.5 7.75 -33.0 L7.65 -33.3 7.55 -33.4 8.25 -33.7 8.85 -34.5 8.9 -34.8 8.75 -35.25 8.45 -35.75 9.55 -36.5 9.6 -36.5 9.7 -36.3" fill="#58534a" fill-rule="evenodd" stroke="none"/>
      <path d="M9.55 -36.5 L8.45 -35.75 8.75 -35.25 8.9 -34.8 8.85 -34.5 8.25 -33.7 7.55 -33.4 7.65 -33.3 7.75 -33.0 Q7.75 -32.5 6.75 -32.25 L6.9 -32.0 7.1 -31.5 Q7.1 -31.0 5.7 -30.4 L5.9 -29.75 4.9 -29.15 5.4 -27.85 4.65 -27.1 4.75 -26.8 4.9 -26.4 4.55 -25.75 4.15 -25.25 4.15 -25.15 6.45 -26.05 6.3 -26.4 6.2 -26.65 Q6.2 -27.05 6.9 -27.55 L7.55 -27.95 7.35 -28.6 7.75 -29.3 8.25 -29.65 Q8.1 -30.4 8.25 -30.9 L8.9 -31.65 9.6 -31.9 9.25 -32.7 Q9.15 -33.0 9.4 -33.5 L9.5 -33.7 10.55 -35.05 9.7 -36.3 10.95 -36.75 11.2 -34.8 11.2 -33.05 Q10.1 -33.05 10.1 -31.95 L10.35 -31.05 Q9.7 -31.1 9.15 -30.5 8.6 -30.0 8.6 -29.6 L8.65 -29.4 Q8.7 -29.3 8.95 -29.25 L9.0 -29.15 9.15 -29.1 8.7 -28.75 8.5 -28.35 Q8.5 -28.15 8.85 -27.85 L8.6 -27.85 8.55 -27.6 8.5 -27.25 Q8.5 -26.4 8.9 -26.15 L10.1 -25.9 11.15 -26.05 10.3 -24.75 2.5 -24.75 2.7 -25.7 2.9 -27.7 Q2.9 -29.65 2.15 -31.25 L2.05 -31.4 2.6 -32.5 2.65 -31.75 Q2.85 -30.4 3.3 -29.25 L3.9 -29.25 3.85 -29.55 3.75 -29.85 Q5.0 -30.05 5.0 -30.9 5.0 -31.5 5.85 -32.15 6.65 -32.75 6.65 -33.0 L6.6 -33.3 6.15 -33.65 6.8 -34.3 7.15 -34.75 6.9 -35.35 6.75 -35.9 Q7.05 -35.95 8.15 -36.6 L9.5 -37.25 9.55 -36.5" fill="#958e83" fill-rule="evenodd" stroke="none"/>
      <path d="M3.6 -40.35 Q4.4 -38.8 4.4 -37.0 L4.4 -36.8 4.4 -36.15 4.1 -35.05 3.95 -34.55 3.3 -33.65 3.25 -33.6 3.25 -33.5 Q2.1 -32.6 1.35 -32.6 -1.3 -35.7 -5.35 -35.7 L-6.75 -35.6 -7.8 -35.45 -8.25 -35.4 -8.85 -36.15 -8.95 -36.3 -9.2 -36.8 Q-9.6 -37.5 -9.6 -38.0 -9.6 -39.3 -9.05 -40.35 -8.6 -38.3 -6.25 -36.95 -3.9 -35.65 0.0 -35.45 3.9 -35.25 3.6 -40.35 M-7.7 -45.7 L-7.6 -45.95 -6.75 -47.4 -6.3 -47.0 Q-6.2 -46.75 -5.85 -46.75 L-4.9 -47.65 -2.75 -48.9 -2.9 -47.75 Q-2.9 -46.75 -2.35 -46.75 -2.0 -46.75 -1.05 -47.25 L-1.6 -46.3 -4.4 -46.0 -4.9 -45.85 -4.75 -46.45 -4.15 -47.5 -4.75 -46.45 -4.9 -45.85 -6.9 -44.9 -7.35 -44.65 -7.85 -44.25 -8.25 -44.4 -7.7 -45.7 -7.5 -45.3 -7.7 -45.7 M-27.0 -42.45 L-27.0 -42.7 -25.7 -42.55 Q-25.2 -42.5 -25.2 -43.1 L-25.3 -43.75 -25.4 -44.5 -25.05 -45.15 -24.25 -45.55 Q-23.5 -45.55 -23.05 -44.65 -22.6 -43.8 -22.0 -43.8 -21.45 -43.8 -20.35 -44.55 L-18.75 -45.9 -18.0 -45.9 -17.75 -43.2 -17.1 -43.2 -18.45 -42.3 -18.5 -42.3 -20.35 -42.25 -21.45 -42.15 -22.5 -42.0 -23.95 -41.6 -24.75 -41.35 -24.75 -41.3 -27.0 -42.45 M-24.6 -44.2 L-22.5 -42.0 -24.6 -44.2 M-11.2 -36.9 L-11.05 -36.8 -10.3 -36.15 -9.3 -35.15 -9.15 -35.0 Q-7.95 -33.55 -7.35 -31.85 -6.9 -30.45 -6.9 -29.2 -6.9 -27.5 -7.85 -25.75 L-8.5 -24.75 -22.25 -24.75 -28.7 -31.3 -28.7 -31.45 -28.85 -33.75 Q-28.85 -34.95 -28.3 -36.15 L-28.1 -36.5 Q-27.8 -33.75 -25.3 -32.05 -22.75 -30.3 -19.15 -30.3 -14.7 -30.3 -12.75 -32.25 -11.25 -33.9 -11.2 -36.9 M-19.75 -44.5 L-20.35 -42.25 -19.75 -44.5" fill="#695335" fill-rule="evenodd" stroke="none"/>
      <path d="M2.05 -31.4 L2.15 -31.25 Q2.9 -29.65 2.9 -27.7 L2.7 -25.7 2.5 -24.75 -8.5 -24.75 -7.85 -25.75 Q-6.9 -27.5 -6.9 -29.2 -6.9 -30.45 -7.35 -31.85 -7.95 -33.55 -9.15 -35.0 L-9.3 -35.15 -8.25 -35.4 -7.8 -35.45 -6.75 -35.6 -7.1 -34.05 Q-7.1 -31.65 -5.6 -30.15 -4.25 -28.85 -2.1 -28.85 -0.05 -28.85 1.3 -30.45 L2.0 -31.5 2.05 -31.4" fill="#69360e" fill-rule="evenodd" stroke="none"/>
      <path d="M1.35 -32.6 L2.0 -31.5 1.3 -30.45 Q-0.05 -28.85 -2.1 -28.85 -4.25 -28.85 -5.6 -30.15 -7.1 -31.65 -7.1 -34.05 L-6.75 -35.6 -5.35 -35.7 Q-1.3 -35.7 1.35 -32.6 M-0.15 -31.55 Q-0.15 -32.2 -0.75 -32.2 -1.35 -32.2 -1.35 -31.55 L-1.3 -31.25 Q-1.15 -30.9 -0.75 -30.9 -0.4 -30.9 -0.25 -31.15 L-0.15 -31.55 M-4.75 -33.5 L-4.5 -32.65 Q-4.05 -31.8 -3.1 -31.8 -2.35 -31.8 -1.85 -32.35 -1.4 -32.75 -1.4 -33.25 -1.4 -33.65 -1.9 -34.1 L-3.05 -34.75 Q-4.75 -35.3 -4.75 -33.5" fill="#a15011" fill-rule="evenodd" stroke="none"/>
      <path d="M16.75 -29.35 L17.8 -29.25 17.8 -29.1 Q17.4 -27.15 16.4 -24.75 L14.75 -24.75 Q16.25 -27.15 16.75 -29.35" fill="#384611" fill-rule="evenodd" stroke="none"/>
      <path d="M18.5 -7.8 L15.05 -7.8 15.05 -11.65 18.5 -11.65 18.5 -7.8 M-20.1 -11.65 L-20.1 -9.3 -22.6 -9.3 -22.6 -11.65 -20.1 -11.65 M-31.35 -19.1 L-31.35 -15.7 -33.95 -17.85 -33.95 -21.3 -31.35 -19.1 M29.75 -11.65 L32.45 -11.65 32.45 -10.05 29.75 -10.05 29.75 -11.65" fill="#4f3721" fill-rule="evenodd" stroke="none"/>
      <path d="M15.05 -11.65 L15.05 -7.8 14.0 -8.3 14.0 -11.65 15.05 -11.65 M-24.4 -11.15 L-24.4 -13.25 -22.6 -11.65 -22.6 -9.3 -24.4 -11.15 M-34.85 -18.6 L-34.85 -22.1 -33.95 -21.3 -33.95 -17.85 -34.85 -18.6 M28.25 -11.65 L29.75 -11.65 29.75 -10.05 28.25 -10.05 28.25 -11.65" fill="#312318" fill-rule="evenodd" stroke="none"/>
      <path d="M-4.75 -33.5 Q-4.75 -35.3 -3.05 -34.75 L-1.9 -34.1 Q-1.4 -33.65 -1.4 -33.25 -1.4 -32.75 -1.85 -32.35 -2.35 -31.8 -3.1 -31.8 -4.05 -31.8 -4.5 -32.65 L-4.75 -33.5 M-0.15 -31.55 L-0.25 -31.15 Q-0.4 -30.9 -0.75 -30.9 -1.15 -30.9 -1.3 -31.25 L-1.35 -31.55 Q-1.35 -32.2 -0.75 -32.2 -0.15 -32.2 -0.15 -31.55" fill="#e0a577" fill-rule="evenodd" stroke="none"/>
      <path d="M23.0 -30.95 L23.0 -31.5 23.0 -32.25 23.0 -32.5 22.9 -33.5 Q22.5 -36.9 20.6 -39.15 L18.45 -41.0 Q16.95 -41.9 15.5 -41.95 L14.65 -42.0 13.55 -41.9 12.9 -41.55 Q15.25 -39.8 16.4 -37.65 15.8 -39.65 17.25 -40.55 M22.25 -31.25 L23.0 -30.95 22.7 -28.65 Q25.65 -28.25 25.8 -24.75 L30.75 -24.75 M22.7 -28.65 Q22.45 -27.8 22.0 -27.1 21.35 -25.9 19.95 -24.75 L25.8 -24.75 M15.5 -48.4 L18.45 -48.4 18.45 -41.0 M8.45 -40.25 Q9.9 -41.65 11.15 -41.65 L12.15 -41.6 12.2 -41.55 12.9 -41.55 M12.2 -41.55 L13.25 -40.6 14.75 -38.65 15.5 -37.5 16.25 -35.0 16.5 -34.0 16.95 -31.35 16.8 -29.65 16.75 -29.35 M17.8 -29.25 L18.0 -31.3 17.7 -33.75 17.1 -36.15 16.8 -36.8 16.55 -37.4 16.4 -37.65 M14.65 -42.0 L14.65 -48.4 15.5 -48.4 M0.5 -43.3 Q1.8 -42.7 2.8 -41.5 L3.6 -40.35 Q4.4 -38.8 4.4 -37.0 L4.4 -36.8 6.2 -36.8 Q7.0 -38.65 8.25 -40.05 L8.45 -40.25 M8.15 -38.0 L8.25 -38.1 10.1 -38.5 11.05 -38.3 11.75 -37.05 11.9 -36.8 12.0 -36.15 12.2 -34.95 12.2 -32.8 12.15 -31.0 Q11.95 -27.95 11.15 -26.05 M14.5 -29.85 L16.8 -29.65 M-1.6 -46.3 L-0.5 -45.65 Q0.6 -44.8 0.6 -43.95 L0.5 -43.3 -0.5 -43.65 -2.35 -43.9 -3.6 -43.75 Q-5.45 -43.45 -7.4 -42.25 L-8.7 -40.9 -9.05 -40.35 M9.7 -36.3 L10.55 -35.05 9.5 -33.7 9.4 -33.5 Q9.15 -33.0 9.25 -32.7 L9.6 -31.9 8.9 -31.65 8.25 -30.9 Q8.1 -30.4 8.25 -29.65 L7.75 -29.3 7.35 -28.6 7.55 -27.95 6.9 -27.55 Q6.2 -27.05 6.2 -26.65 L6.3 -26.4 6.45 -26.05 4.15 -25.15 4.15 -25.25 4.55 -25.75 4.9 -26.4 4.75 -26.8 4.65 -27.1 5.4 -27.85 4.9 -29.15 5.9 -29.75 5.7 -30.4 Q7.1 -31.0 7.1 -31.5 L6.9 -32.0 6.75 -32.25 Q7.75 -32.5 7.75 -33.0 L7.65 -33.3 7.55 -33.4 8.25 -33.7 8.85 -34.5 8.9 -34.8 8.75 -35.25 8.45 -35.75 9.55 -36.5 M2.6 -32.5 L2.05 -31.4 2.15 -31.25 Q2.9 -29.65 2.9 -27.7 L2.7 -25.7 2.5 -24.75 10.3 -24.75 11.15 -26.05 M9.7 -36.3 L9.6 -36.5 9.55 -36.5 M5.4 -36.15 L5.7 -36.4 6.2 -36.8 8.15 -38.0 M4.4 -36.15 L4.4 -36.8 M4.4 -36.15 L4.1 -35.05 3.95 -34.55 5.4 -36.15 M1.35 -32.6 L2.0 -31.5 2.05 -31.4 M3.25 -33.5 L3.25 -33.6 3.3 -33.65 3.95 -34.55 M2.6 -32.5 L3.25 -33.5 Q2.1 -32.6 1.35 -32.6 -1.3 -35.7 -5.35 -35.7 L-6.75 -35.6 M14.5 -29.85 Q13.75 -29.7 13.0 -29.2 M17.8 -29.25 L17.8 -29.1 17.95 -29.25 Q20.45 -31.75 22.25 -31.25 M16.5 -34.0 Q14.9 -36.15 12.75 -35.7 M14.75 -38.65 Q12.1 -40.65 9.45 -39.55 M19.95 -24.75 L16.4 -24.75 14.75 -24.75 10.3 -24.75 M18.5 -7.8 L18.5 -11.65 15.05 -11.65 15.05 -7.8 M14.0 -8.3 L14.0 0.15 15.05 0.15 15.05 -7.8 M14.0 -8.3 L14.0 -11.65 -20.1 -11.65 -20.1 -9.3 -20.1 0.15 -22.6 0.15 -24.4 0.15 -24.4 -11.15 -24.4 -13.25 -31.35 -19.1 -31.35 -15.7 -31.35 0.15 -33.95 0.15 -34.85 0.15 -34.85 -18.6 -34.85 -22.1 -34.85 -36.8 -34.1 -36.8 -34.1 -48.0 -33.75 -48.0 -33.75 -48.35 M14.0 -11.65 L15.05 -11.65 M28.25 -11.65 L29.75 -11.65 32.45 -11.65 32.45 -24.0 M-22.6 -24.0 L-22.6 -11.65 -20.1 -11.65 M29.75 -11.65 L29.75 -10.05 M32.45 -10.05 L32.45 -11.65 M28.25 -10.05 L28.25 0.15 29.75 0.15 29.75 -10.05 M28.25 -10.05 L28.25 -11.65 18.5 -11.65 M22.9 -33.5 L32.45 -24.0 M14.75 -24.75 Q16.25 -27.15 16.75 -29.35 M16.4 -24.75 Q17.4 -27.15 17.8 -29.1 M17.7 -33.75 Q19.25 -35.9 21.5 -36.2 M18.5 -7.8 L18.5 0.15 15.05 0.15 M32.45 -10.05 L32.45 0.15 29.75 0.15 M-1.05 -47.25 L0.4 -49.75 -1.35 -49.45 Q-2.0 -49.45 -2.05 -49.95 -2.1 -50.4 -2.45 -50.4 -3.0 -50.4 -3.75 -49.7 -4.45 -48.95 -4.85 -48.95 L-6.75 -49.85 -7.65 -49.15 Q-8.55 -48.3 -8.65 -47.5 L-8.1 -46.55 -7.7 -45.7 -7.5 -45.3 M-1.05 -47.25 L-1.6 -46.3 -1.1 -45.4 Q-0.45 -44.3 -0.5 -43.65 M-4.9 -45.85 L-4.75 -46.45 -4.15 -47.5 M-4.9 -45.85 L-4.4 -46.0 -1.6 -46.3 M-4.4 -46.0 Q-2.85 -45.3 -3.6 -43.75 M-8.65 -47.5 Q-9.25 -48.4 -9.7 -48.3 L-9.35 -47.55 -9.1 -46.7 -9.85 -46.7 -10.7 -47.15 -11.35 -47.35 Q-11.85 -47.35 -11.85 -46.9 -11.85 -45.9 -10.35 -45.25 L-8.25 -44.4 -7.85 -44.25 -7.35 -44.65 -6.9 -44.9 -4.9 -45.85 M-8.7 -40.9 L-9.0 -42.15 Q-9.0 -43.25 -7.85 -44.25 M-9.2 -36.8 Q-9.6 -37.5 -9.6 -38.0 -9.6 -39.3 -9.05 -40.35 M-7.4 -42.25 Q-8.15 -43.15 -7.35 -44.65 M-17.1 -43.2 Q-15.95 -44.2 -15.85 -45.3 -15.7 -46.95 -16.0 -47.1 L-16.6 -47.2 -17.75 -47.1 Q-18.4 -47.1 -18.6 -48.1 -18.8 -49.15 -19.8 -49.15 -20.95 -49.15 -21.85 -47.8 -22.7 -46.45 -23.6 -46.45 -24.5 -46.45 -25.0 -46.95 -25.5 -47.45 -26.0 -47.45 L-26.4 -47.4 -26.85 -47.0 -26.7 -46.5 -26.75 -46.25 Q-26.85 -46.15 -27.1 -46.15 L-28.25 -46.55 -29.25 -47.0 -29.75 -46.75 -30.1 -46.0 Q-30.2 -45.5 -28.7 -43.9 L-27.0 -42.45 -24.75 -41.3 -24.75 -41.35 -23.95 -41.6 -22.5 -42.0 -24.6 -44.2 M-15.4 -39.3 Q-14.35 -41.0 -17.35 -42.25 L-18.45 -42.3 -18.5 -42.25 Q-16.8 -40.9 -18.0 -39.5 L-16.35 -39.4 -16.1 -39.4 -15.4 -39.3 Q-13.9 -38.95 -11.95 -37.5 L-11.2 -36.9 -11.05 -36.8 -9.2 -36.8 -8.95 -36.3 -8.85 -36.15 -8.25 -35.4 -7.8 -35.45 -6.75 -35.6 M-18.5 -42.3 L-18.5 -42.25 M-18.5 -42.3 L-18.45 -42.3 -17.1 -43.2 M-21.05 -38.35 L-21.1 -38.6 -20.85 -38.9 -19.75 -38.0 -18.55 -36.8 -18.25 -36.35 M-11.05 -36.8 L-10.3 -36.15 M-9.3 -35.15 L-9.15 -35.0 Q-7.95 -33.55 -7.35 -31.85 -6.9 -30.45 -6.9 -29.2 -6.9 -27.5 -7.85 -25.75 L-8.5 -24.75 2.5 -24.75 M-8.25 -35.4 L-9.3 -35.15 -10.3 -36.15 M-27.95 -36.8 L-27.75 -37.15 -26.2 -38.8 -26.1 -38.9 Q-27.6 -39.6 -25.4 -41.1 L-24.75 -41.3 M-22.5 -42.0 L-21.45 -42.15 -20.35 -42.25 -19.75 -44.5 M-23.25 -39.3 L-22.2 -39.4 -21.2 -39.5 Q-20.5 -41.2 -21.45 -42.15 M-23.25 -39.3 Q-24.6 -40.0 -23.95 -41.6 M-22.2 -39.4 L-23.5 -38.6 Q-24.45 -37.85 -24.9 -36.8 L-25.15 -36.15 M-26.1 -38.9 L-23.25 -39.3 M-33.75 -48.0 L-31.55 -48.0 -31.55 -36.8 -27.95 -36.8 -28.1 -36.5 -28.3 -36.15 Q-28.85 -34.95 -28.85 -33.75 L-28.7 -31.45 -28.7 -31.3 -22.25 -24.75 -8.5 -24.75 M-31.55 -34.2 L-33.75 -36.5 -34.1 -36.75 -34.1 -36.8 M-31.55 -36.15 L-31.55 -34.2 -28.7 -31.3 M-31.55 -36.8 L-31.55 -36.15 M-34.85 -22.1 L-33.95 -21.3 -31.35 -19.1 M-33.95 -21.3 L-33.95 -17.85 M-22.6 -11.65 L-22.6 -9.3 M-24.4 -13.25 L-22.6 -11.65 M-21.2 -39.5 L-18.0 -39.5 M-18.5 -42.3 L-20.35 -42.25 M-33.95 0.15 L-33.95 -17.85 M-22.6 0.15 L-22.6 -9.3" fill="none" stroke="#000000" stroke-linecap="round" stroke-linejoin="round" stroke-opacity="0.3019608" stroke-width="0.30000000000000004"/>
      <path d="M8.6 -14.5 L13.05 -14.5 M13.05 -20.4 L21.5 -20.4 M-30.15 -26.4 L-28.55 -24.85 M-32.4 -30.85 L-28.8 -27.25 M-32.4 -23.15 L-25.1 -17.1 M-16.85 -21.35 L-12.3 -21.35 M-20.55 -14.15 L-12.1 -14.15 M-8.2 -16.9 L25.65 -16.9" fill="none" stroke="#000000" stroke-linecap="round" stroke-linejoin="round" stroke-opacity="0.14901961" stroke-width="0.05"/>
      <path d="M28.45 -71.4 L29.25 -72.15 29.25 -25.25 28.45 -25.25 28.45 -71.4 M-22.45 -25.15 L-23.15 -25.8 -23.15 -78.25 -22.45 -77.5 -22.45 -25.15" fill="#463323" fill-rule="evenodd" stroke="none"/>
      <path d="M29.25 -72.15 L30.35 -73.25 30.35 -25.3 29.25 -25.25 29.25 -72.15 M-22.45 -77.5 L-20.95 -76.0 -20.95 -25.15 -22.45 -25.15 -22.45 -77.5" fill="#705034" fill-rule="evenodd" stroke="none"/>
      <path d="M29.25 -72.15 L30.35 -73.25 30.35 -74.35 M28.45 -71.4 L29.25 -72.15 29.25 -74.85 M28.45 -71.4 L28.45 -73.1 M29.25 -25.25 L30.35 -25.3 30.35 -73.25 M28.45 -71.4 L28.45 -25.25 29.25 -25.25 M-22.45 -77.5 L-20.95 -76.0 -20.95 -76.85 M-22.45 -25.15 L-23.15 -25.8 -23.15 -78.25 -22.45 -77.5 M-22.45 -25.15 L-20.95 -25.15 -20.95 -76.0" fill="none" stroke="#000000" stroke-linecap="round" stroke-linejoin="round" stroke-opacity="0.3019608" stroke-width="0.05"/>
      <path d="M20.05 -79.4 L34.4 -79.4 Q34.75 -78.65 34.7 -77.8 34.55 -74.9 33.0 -72.7 31.25 -70.15 28.25 -70.15 25.35 -70.15 22.9 -72.7 20.75 -74.9 20.25 -77.95 L20.05 -79.4 M5.75 -77.65 Q5.55 -74.6 4.25 -72.7 2.45 -70.15 -0.5 -70.15 -3.4 -70.15 -5.85 -72.7 -8.0 -74.9 -8.55 -77.95 L-8.65 -79.4 5.75 -79.4 5.75 -77.65" fill="#6bc4cd" fill-rule="evenodd" stroke="none"/>
      <path d="M20.25 -77.95 Q20.2 -74.9 18.6 -72.7 16.85 -70.15 13.9 -70.15 10.95 -70.15 8.55 -72.7 6.5 -74.8 5.75 -77.65 L5.75 -79.4 20.05 -79.4 20.25 -77.95 M-8.55 -77.95 Q-8.7 -74.9 -10.3 -72.7 -12.05 -70.15 -15.0 -70.15 -17.95 -70.15 -20.4 -72.7 -22.5 -74.9 -23.05 -77.95 L-23.05 -79.4 -8.65 -79.4 -8.55 -77.95" fill="#e9e5df" fill-rule="evenodd" stroke="none"/>
      <path d="M20.05 -79.4 L34.4 -79.4 Q34.75 -78.65 34.7 -77.8 34.55 -74.9 33.0 -72.7 31.25 -70.15 28.25 -70.15 25.35 -70.15 22.9 -72.7 20.75 -74.9 20.25 -77.95 20.2 -74.9 18.6 -72.7 16.85 -70.15 13.9 -70.15 10.95 -70.15 8.55 -72.7 6.5 -74.8 5.75 -77.65 5.55 -74.6 4.25 -72.7 2.45 -70.15 -0.5 -70.15 -3.4 -70.15 -5.85 -72.7 -8.0 -74.9 -8.55 -77.95 -8.7 -74.9 -10.3 -72.7 -12.05 -70.15 -15.0 -70.15 -17.95 -70.15 -20.4 -72.7 -22.5 -74.9 -23.05 -77.95 L-23.05 -79.4 -8.65 -79.4 5.75 -79.4 20.05 -79.4 Z" fill="none" stroke="#000000" stroke-linecap="round" stroke-linejoin="round" stroke-opacity="0.3019608" stroke-width="0.30000000000000004"/>
    </g>
    <linearGradient gradientTransform="matrix(0.0, 0.0111, -0.0184, 0.0, -20.7, -65.25)" gradientUnits="userSpaceOnUse" id="decoration157-gradient0" spreadMethod="pad" x1="-819.2" x2="819.2">
      <stop offset="0.0" stop-color="#7b7671"/>
      <stop offset="1.0" stop-color="#ada9a5"/>
    </linearGradient>
    <linearGradient gradientTransform="matrix(-7.0E-4, 0.0098, -0.0184, -0.0013, -7.55, -66.05)" gradientUnits="userSpaceOnUse" id="decoration157-gradient1" spreadMethod="pad" x1="-819.2" x2="819.2">
      <stop offset="0.0" stop-color="#316469"/>
      <stop offset="1.0" stop-color="#458187"/>
    </linearGradient>
  </defs>
</svg>
