<?xml version="1.0" encoding="UTF-8" standalone="no"?>
<svg xmlns:xlink="http://www.w3.org/1999/xlink" height="157.75px" width="55.25px" xmlns="http://www.w3.org/2000/svg">
  <g transform="matrix(1.0, 0.0, 0.0, 1.0, 28.1, 0.2)">
    <use data-characterId="257" height="157.75" transform="matrix(1.0, 0.0, 0.0, 1.0, -28.1, -0.2)" width="55.25" xlink:href="#decoration158-shape0"/>
    <use data-characterId="235" height="4.6" id="decoration158-B" transform="matrix(1.3188, 0.0, 0.0, 1.0, -23.7, 152.65)" width="35.4" xlink:href="#decoration158-sprite0"/>
  </g>
  <defs>
    <g id="decoration158-shape0" transform="matrix(1.0, 0.0, 0.0, 1.0, 28.1, 0.2)">
      <path d="M1.6 0.4 L2.0 0.95 2.35 1.75 2.6 3.35 2.3 5.1 2.2 5.55 2.7 6.1 Q3.85 7.3 3.85 9.3 3.8 11.3 2.9 12.5 L2.0 13.35 2.3 14.9 2.0 16.7 2.7 17.4 Q3.85 18.65 3.85 20.65 3.8 22.7 2.9 23.85 L2.0 24.65 2.3 26.25 Q2.3 27.55 1.75 28.45 L2.7 29.25 Q3.85 30.5 3.85 32.55 3.8 34.6 2.9 35.75 L2.0 36.55 2.3 38.1 2.0 39.9 2.7 40.6 Q3.85 41.85 3.85 43.9 3.8 45.85 2.9 47.1 L2.0 47.9 2.3 49.5 Q2.3 50.85 1.7 51.8 1.1 52.8 0.35 52.8 -0.5 52.8 -1.05 51.8 -1.55 50.85 -1.55 49.5 L-1.3 47.75 -2.0 47.1 Q-3.05 45.85 -3.05 43.8 -3.05 41.75 -2.1 40.75 -1.65 40.3 -1.2 40.0 -1.55 39.2 -1.55 38.1 L-1.3 36.45 -2.0 35.8 Q-3.05 34.45 -3.05 32.45 -3.05 30.4 -2.1 29.35 L-1.05 28.6 Q-1.55 27.6 -1.55 26.25 L-1.3 24.6 -2.0 23.95 Q-3.05 22.55 -3.05 20.6 -3.05 18.55 -2.1 17.5 L-1.2 16.8 Q-1.55 16.05 -1.55 14.9 L-1.3 13.25 -2.0 12.55 Q-3.05 11.3 -3.05 9.25 -3.05 7.2 -2.1 6.2 L-0.85 5.3 -0.85 5.25 Q-1.25 4.45 -1.25 3.35 L-0.95 1.6 -0.7 0.95 -0.15 0.3 Q0.2 0.0 0.7 0.0 1.15 0.0 1.6 0.4 M-0.85 5.3 L-0.7 5.7 Q-0.15 6.65 0.7 6.65 1.4 6.65 2.0 5.7 L2.2 5.55 2.0 5.7 Q1.4 6.65 0.7 6.65 -0.15 6.65 -0.7 5.7 L-0.85 5.3 M1.25 8.0 L0.8 8.4 0.3 7.95 -0.3 7.4 -0.85 7.75 Q-1.5 8.4 -1.2 9.7 L-0.95 10.7 -0.5 11.9 0.35 11.6 Q0.85 11.6 1.25 11.95 2.2 10.9 2.3 9.05 2.4 8.05 1.85 7.45 L1.6 7.35 Q1.4 7.35 1.4 7.45 L1.25 7.75 1.25 8.0 M2.0 13.35 L1.7 12.5 1.25 11.95 1.7 12.5 2.0 13.35 M-1.2 16.8 L-1.05 17.25 Q-0.5 18.25 0.35 18.25 1.1 18.25 1.7 17.25 L2.0 16.7 1.7 17.25 Q1.1 18.25 0.35 18.25 -0.5 18.25 -1.05 17.25 L-1.2 16.8 M1.6 18.65 L1.4 18.85 1.25 19.1 1.15 19.35 0.75 19.75 0.2 19.25 -0.35 18.75 -0.85 19.05 Q-1.5 19.65 -1.25 21.0 L-0.95 22.1 -0.5 23.3 Q-0.15 22.9 0.35 22.9 0.85 22.9 1.25 23.35 2.2 22.25 2.2 20.4 2.4 19.35 1.85 18.85 L1.6 18.65 M2.0 24.65 L1.7 23.85 1.25 23.35 1.7 23.85 2.0 24.65 M1.4 30.7 L1.25 30.95 1.25 31.2 0.8 31.6 0.3 31.15 -0.3 30.6 Q-0.5 30.6 -0.85 30.9 -1.5 31.6 -1.2 32.85 L-0.95 33.95 -0.5 35.15 Q-0.15 34.8 0.35 34.8 0.85 34.8 1.25 35.25 2.2 34.1 2.3 32.3 2.4 31.25 1.85 30.7 L1.6 30.55 1.4 30.7 M2.0 36.55 L1.7 35.75 1.25 35.25 1.7 35.75 2.0 36.55 M-1.05 28.6 L0.3 28.15 Q1.05 28.05 1.75 28.45 1.05 28.05 0.3 28.15 L-1.05 28.6 M0.2 42.5 Q0.0 42.0 -0.35 42.0 L-0.85 42.25 Q-1.5 42.9 -1.25 44.2 L-0.95 45.3 -0.5 46.5 0.4 46.35 1.25 46.55 Q2.2 45.5 2.2 43.6 2.4 42.6 1.85 42.0 L1.4 42.0 Q1.05 42.85 0.75 42.9 0.5 42.9 0.2 42.5 M-0.5 46.5 L-0.95 47.1 -1.3 47.75 -0.95 47.1 -0.5 46.5 M-0.5 35.15 L-1.05 35.75 -1.3 36.45 -1.05 35.75 -0.5 35.15 M-0.5 23.3 L-1.05 23.85 -1.3 24.6 -1.05 23.85 -0.5 23.3 M-0.5 11.9 L-1.05 12.5 -1.3 13.25 -1.05 12.5 -0.5 11.9 M2.0 47.9 L1.65 47.15 1.25 46.55 1.65 47.15 2.0 47.9 M-1.2 40.0 L-1.05 40.5 Q-0.5 41.45 0.35 41.45 1.1 41.45 1.7 40.5 L2.0 39.9 1.7 40.5 Q1.1 41.45 0.35 41.45 -0.5 41.45 -1.05 40.5 L-1.2 40.0" fill="#312c2c" fill-opacity="0.9882353" fill-rule="evenodd" stroke="none"/>
      <path d="M1.6 0.4 L2.0 0.95 2.35 1.75 2.6 3.35 2.3 5.1 2.2 5.55 2.7 6.1 Q3.85 7.3 3.85 9.3 3.8 11.3 2.9 12.5 L2.0 13.35 2.3 14.9 2.0 16.7 2.7 17.4 Q3.85 18.65 3.85 20.65 3.8 22.7 2.9 23.85 L2.0 24.65 2.3 26.25 Q2.3 27.55 1.75 28.45 L2.7 29.25 Q3.85 30.5 3.85 32.55 3.8 34.6 2.9 35.75 L2.0 36.55 2.3 38.1 2.0 39.9 2.7 40.6 Q3.85 41.85 3.85 43.9 3.8 45.85 2.9 47.1 L2.0 47.9 2.3 49.5 Q2.3 50.85 1.7 51.8 1.1 52.8 0.35 52.8 -0.5 52.8 -1.05 51.8 -1.55 50.85 -1.55 49.5 L-1.3 47.75 -2.0 47.1 Q-3.05 45.85 -3.05 43.8 -3.05 41.75 -2.1 40.75 -1.65 40.3 -1.2 40.0 -1.55 39.2 -1.55 38.1 L-1.3 36.45 -2.0 35.8 Q-3.05 34.45 -3.05 32.45 -3.05 30.4 -2.1 29.35 L-1.05 28.6 Q-1.55 27.6 -1.55 26.25 L-1.3 24.6 -2.0 23.95 Q-3.05 22.55 -3.05 20.6 -3.05 18.55 -2.1 17.5 L-1.2 16.8 Q-1.55 16.05 -1.55 14.9 L-1.3 13.25 -2.0 12.55 Q-3.05 11.3 -3.05 9.25 -3.05 7.2 -2.1 6.2 L-0.85 5.3 -0.85 5.25 Q-1.25 4.45 -1.25 3.35 L-0.95 1.6 -0.7 0.95 -0.15 0.3 Q0.2 0.0 0.7 0.0 1.15 0.0 1.6 0.4 M2.2 5.55 L2.0 5.7 Q1.4 6.65 0.7 6.65 -0.15 6.65 -0.7 5.7 L-0.85 5.3 M1.25 8.0 L0.8 8.4 0.3 7.95 -0.3 7.4 -0.85 7.75 Q-1.5 8.4 -1.2 9.7 L-0.95 10.7 -0.5 11.9 0.35 11.6 Q0.85 11.6 1.25 11.95 2.2 10.9 2.3 9.05 2.4 8.05 1.85 7.45 L1.6 7.35 Q1.4 7.35 1.4 7.45 L1.25 7.75 1.25 8.0 M2.0 16.7 L1.7 17.25 Q1.1 18.25 0.35 18.25 -0.5 18.25 -1.05 17.25 L-1.2 16.8 M1.25 11.95 L1.7 12.5 2.0 13.35 M1.6 18.65 L1.4 18.85 1.25 19.1 1.15 19.35 0.75 19.75 0.2 19.25 -0.35 18.75 -0.85 19.05 Q-1.5 19.65 -1.25 21.0 L-0.95 22.1 -0.5 23.3 Q-0.15 22.9 0.35 22.9 0.85 22.9 1.25 23.35 2.2 22.25 2.2 20.4 2.4 19.35 1.85 18.85 L1.6 18.65 M1.25 23.35 L1.7 23.85 2.0 24.65 M1.4 30.7 L1.25 30.95 1.25 31.2 0.8 31.6 0.3 31.15 -0.3 30.6 Q-0.5 30.6 -0.85 30.9 -1.5 31.6 -1.2 32.85 L-0.95 33.95 -0.5 35.15 Q-0.15 34.8 0.35 34.8 0.85 34.8 1.25 35.25 2.2 34.1 2.3 32.3 2.4 31.25 1.85 30.7 L1.6 30.55 1.4 30.7 M1.75 28.45 Q1.05 28.05 0.3 28.15 L-1.05 28.6 M1.25 35.25 L1.7 35.75 2.0 36.55 M0.2 42.5 Q0.0 42.0 -0.35 42.0 L-0.85 42.25 Q-1.5 42.9 -1.25 44.2 L-0.95 45.3 -0.5 46.5 0.4 46.35 1.25 46.55 Q2.2 45.5 2.2 43.6 2.4 42.6 1.85 42.0 L1.4 42.0 Q1.05 42.85 0.75 42.9 0.5 42.9 0.2 42.5 M2.0 39.9 L1.7 40.5 Q1.1 41.45 0.35 41.45 -0.5 41.45 -1.05 40.5 L-1.2 40.0 M1.25 46.55 L1.65 47.15 2.0 47.9 M-1.3 13.25 L-1.05 12.5 -0.5 11.9 M-1.3 24.6 L-1.05 23.85 -0.5 23.3 M-1.3 36.45 L-1.05 35.75 -0.5 35.15 M-1.3 47.75 L-0.95 47.1 -0.5 46.5" fill="none" stroke="#000000" stroke-linecap="round" stroke-linejoin="round" stroke-opacity="0.5019608" stroke-width="0.4"/>
      <path d="M-2.15 61.5 L-2.25 59.7 -2.4 58.1 1.95 58.1 1.85 59.85 1.85 61.5 -2.15 61.5" fill="#605f5f" fill-rule="evenodd" stroke="none"/>
      <path d="M-2.15 62.15 L-2.15 61.5 1.85 61.5 1.85 62.15 1.7 66.1 -1.95 66.2 -2.15 62.15" fill="#7a7a7a" fill-rule="evenodd" stroke="none"/>
      <path d="M-2.15 62.15 Q-6.7 59.2 -6.25 55.45 L-6.25 55.4 Q-5.25 52.2 -0.3 51.15 5.3 51.25 6.25 55.15 L6.25 55.35 Q6.15 60.1 1.85 62.15 L1.85 61.5 1.85 59.85 Q4.4 58.85 3.45 55.0 2.25 53.75 1.4 53.5 0.5 53.2 -1.0 53.5 L-1.15 53.55 Q-1.95 53.85 -2.7 54.7 L-3.45 55.55 Q-4.45 57.9 -2.25 59.7 L-2.15 61.5 -2.15 62.15" fill="url(#decoration158-gradient0)" fill-rule="evenodd" stroke="none"/>
      <path d="M1.85 62.15 Q6.15 60.1 6.25 55.35 L6.25 55.15 Q5.3 51.25 -0.3 51.15 -5.25 52.2 -6.25 55.4 L-6.25 55.45 Q-6.7 59.2 -2.15 62.15 L-2.15 61.5 -2.25 59.7 Q-4.45 57.9 -3.45 55.55 L-2.7 54.7 Q-1.95 53.85 -1.15 53.55 L-1.0 53.5 Q0.5 53.2 1.4 53.5 2.25 53.75 3.45 55.0 4.4 58.85 1.85 59.85 L1.85 61.5 1.85 62.15 1.7 66.1 -1.95 66.2 -2.15 62.15 M-2.25 59.7 L-2.4 58.1 1.95 58.1 1.85 59.85 M1.85 61.5 L-2.15 61.5" fill="none" stroke="#000000" stroke-linecap="round" stroke-linejoin="round" stroke-opacity="0.5019608" stroke-width="0.4"/>
      <path d="M7.35 76.25 L6.35 73.9 11.95 74.0 13.95 76.0 7.35 76.25 M4.85 71.9 L3.2 69.25 8.4 71.9 4.85 71.9 M3.35 81.1 L6.65 81.0 10.45 89.7 6.4 89.7 3.35 81.1 M1.8 79.3 L0.45 75.85 -2.0 75.85 -3.15 79.4 -7.3 79.55 -4.6 73.55 3.05 73.7 5.75 79.2 1.8 79.3 M-12.0 94.2 L-12.05 91.7 11.45 91.7 11.25 94.05 11.25 93.85 10.05 93.85 9.65 106.7 6.35 106.45 6.65 93.7 -4.75 93.7 -4.9 105.9 -8.3 105.7 -8.4 94.2 -12.0 94.2 M13.7 93.7 L13.55 91.9 24.65 92.0 24.7 93.85 13.7 93.7 M6.15 108.3 L6.75 108.25 9.3 108.5 9.4 108.6 8.55 124.65 5.35 124.6 6.15 108.3 M5.15 126.4 L8.45 126.45 8.25 134.95 9.1 134.95 9.4 134.95 9.4 137.35 7.7 137.35 7.7 141.05 4.45 141.1 4.45 137.2 -4.75 137.2 -4.65 141.2 -7.9 141.35 -7.9 137.35 -10.0 137.35 -10.1 134.3 -8.2 134.35 -8.1 126.15 -4.8 126.25 -4.9 134.65 -4.9 134.7 -4.8 134.7 5.25 134.7 5.2 134.65 5.15 126.4 M4.3 143.1 L7.3 143.1 7.2 153.3 4.15 153.3 4.3 143.1 M11.25 137.2 L11.45 134.65 22.7 134.75 22.65 136.9 22.55 137.25 11.25 137.2 M-15.1 76.0 L-12.25 73.35 -7.45 73.55 -8.85 76.25 -15.1 76.0 M-25.15 94.7 L-25.25 91.9 -14.45 91.9 -14.3 94.6 -25.15 94.7 M-3.05 71.25 L-0.85 68.2 1.65 71.35 -3.05 71.25 M-6.05 71.4 L-9.4 71.35 -4.25 69.05 -6.05 71.4 M-6.7 81.55 L-3.25 81.45 -4.45 89.75 -8.5 89.75 -6.7 81.55 M-8.4 107.8 L-4.65 107.95 -4.8 124.5 -8.4 124.3 -8.4 107.8 M-23.05 137.65 L-23.35 134.2 -12.2 134.35 -11.65 137.35 -23.05 137.65 M-8.15 143.1 L-4.95 143.1 -4.9 153.2 -7.8 153.2 -8.15 143.1" fill="#323434" fill-rule="evenodd" stroke="none"/>
      <path d="M7.35 76.25 L13.95 76.0 M6.4 89.7 L3.35 81.1 M-3.15 79.4 L-2.0 75.85 0.45 75.85 1.8 79.3 M-12.0 94.2 L-8.4 94.2 -8.3 105.7 M-4.9 105.9 L-4.75 93.7 6.65 93.7 6.35 106.45 M9.65 106.7 L10.05 93.85 11.25 93.85 M24.7 93.85 L13.7 93.7 M6.15 108.3 L5.35 124.6 M8.55 124.65 L9.4 108.6 M5.15 126.4 L5.2 134.65 M5.25 134.7 L-4.8 134.7 M-4.9 134.65 L-4.8 126.25 M-8.1 126.15 L-8.2 134.35 -10.1 134.3 M-10.0 137.35 L-7.9 137.35 -7.9 141.35 M-4.65 141.2 L-4.75 137.2 4.45 137.2 4.45 141.1 M7.7 141.05 L7.7 137.35 9.4 137.35 M9.1 134.95 L8.25 134.95 8.45 126.45 M7.3 143.1 L7.2 153.3 M4.15 153.3 L4.3 143.1 M11.25 137.2 L22.55 137.25 M22.7 134.75 L11.45 134.65 M-15.1 76.0 L-8.85 76.25 M-25.15 94.7 L-14.3 94.6 M-6.7 81.55 L-8.5 89.75 M-4.45 89.75 L-3.25 81.45 M-8.4 107.8 L-8.4 124.3 M-4.8 124.5 L-4.65 107.95 M-23.05 137.65 L-11.65 137.35 M-12.2 134.35 L-23.35 134.2 M-4.95 143.1 L-4.9 153.2 M-7.8 153.2 L-8.15 143.1" fill="none" stroke="#000000" stroke-linecap="round" stroke-linejoin="round" stroke-opacity="0.5019608" stroke-width="0.4"/>
      <path d="M4.85 71.9 L8.35 71.9 3.15 69.25 4.85 71.9 M6.3 73.9 L8.55 78.65 16.35 78.55 11.95 73.95 6.3 73.9 M10.45 89.65 L6.6 81.0 -9.05 81.65 -12.2 89.85 10.45 89.65 M9.7 80.95 L12.9 89.65 24.1 89.75 17.9 80.95 9.7 80.95 M3.0 73.65 L-4.65 73.55 -7.35 79.5 5.7 79.2 3.0 73.65 M24.6 92.0 L13.5 91.9 13.1 106.9 24.2 107.6 24.6 92.0 M26.95 91.65 L22.9 157.35 -23.3 157.35 -27.9 92.05 Q-25.4 82.4 -18.9 75.95 -12.1 69.25 -0.55 65.65 L-0.35 65.65 Q7.85 66.1 18.25 78.95 23.4 85.3 26.95 91.65 M10.7 108.65 L10.65 108.65 -11.65 107.45 -13.8 107.35 -11.65 107.45 -10.7 124.3 -13.0 124.25 -10.7 124.3 9.3 124.65 9.9 124.65 10.7 108.65 M11.75 124.75 L9.3 124.65 11.75 124.75 11.75 124.8 23.25 124.9 24.1 109.45 12.75 108.65 11.75 124.75 M22.6 136.8 L23.1 126.65 11.85 126.45 11.85 126.55 9.95 126.55 11.85 126.55 10.8 140.95 22.0 140.95 22.45 137.25 22.6 137.25 22.6 136.8 M8.8 141.05 L10.8 140.95 8.8 141.05 9.95 126.55 -10.6 126.55 -12.65 126.55 -10.6 126.55 -9.5 141.35 8.8 141.05 M-11.6 141.35 L-9.5 141.35 -11.6 141.35 -12.65 126.55 -23.7 126.05 -23.1 137.65 -23.15 137.65 -22.85 141.55 -22.8 141.55 -11.6 141.35 M10.45 143.1 L8.35 143.1 10.45 143.1 9.85 153.3 20.7 153.6 21.5 143.2 10.45 143.1 M8.0 153.3 L9.85 153.3 8.0 153.3 8.35 143.1 -9.55 143.15 -11.15 143.15 -9.55 143.15 -8.7 153.15 8.0 153.3 M-10.65 153.1 L-8.7 153.15 -10.65 153.1 -11.15 143.15 -22.45 143.25 -22.05 153.0 -10.65 153.1 M11.4 91.65 L-12.1 91.65 -11.85 105.5 -11.65 105.6 10.85 106.7 11.4 91.65 M-6.15 71.4 L-4.3 69.05 -9.45 71.35 -6.15 71.4 M-12.3 73.3 L-19.7 80.2 -11.15 80.25 -7.5 73.55 -12.3 73.3 M-3.1 71.25 L1.6 71.35 -0.9 68.2 -3.1 71.25 M-20.9 81.9 L-25.4 89.65 -14.9 89.65 -11.85 81.95 -20.9 81.9 M-25.25 91.9 L-24.9 104.85 -13.95 105.4 -14.5 91.9 -25.25 91.9 M-11.85 105.5 L-13.95 105.4 -11.85 105.5 M-13.0 124.25 L-13.8 107.35 -25.0 106.5 -24.2 123.85 -13.15 124.3 -13.0 124.3 -13.0 124.25" fill="url(#decoration158-gradient1)" fill-rule="evenodd" stroke="none"/>
      <path d="M22.6 136.8 L22.6 137.25 22.45 137.25 22.6 136.8" fill="#004457" fill-rule="evenodd" stroke="none"/>
      <path d="M4.85 71.9 L8.35 71.9 3.15 69.25 4.85 71.9 M6.3 73.9 L8.55 78.65 16.35 78.55 11.95 73.95 6.3 73.9 M9.7 80.95 L17.9 80.95 24.1 89.75 12.9 89.65 9.7 80.95 M10.45 89.65 L-12.2 89.85 -9.05 81.65 6.6 81.0 10.45 89.65 M3.0 73.65 L-4.65 73.55 -7.35 79.5 5.7 79.2 3.0 73.65 M24.6 92.0 L24.2 107.6 13.1 106.9 13.5 91.9 24.6 92.0 M26.95 91.65 L22.9 157.35 -23.3 157.35 -27.9 92.05 Q-25.4 82.4 -18.9 75.95 -12.1 69.25 -0.55 65.65 L-0.35 65.65 Q7.85 66.1 18.25 78.95 23.4 85.3 26.95 91.65 M10.7 108.65 L9.9 124.65 9.3 124.65 11.75 124.75 12.75 108.65 24.1 109.45 23.25 124.9 11.75 124.8 11.75 124.75 M11.85 126.55 L11.85 126.45 23.1 126.65 22.6 136.8 22.6 137.25 22.45 137.25 22.0 140.95 10.8 140.95 8.8 141.05 -9.5 141.35 -11.6 141.35 -22.8 141.55 -22.85 141.55 M-23.15 137.65 L-23.1 137.65 -23.7 126.05 -12.65 126.55 -10.6 126.55 9.95 126.55 11.85 126.55 10.8 140.95 M8.8 141.05 L9.95 126.55 M8.35 143.1 L10.45 143.1 21.5 143.2 20.7 153.6 9.85 153.3 8.0 153.3 -8.7 153.15 -10.65 153.1 -22.05 153.0 -22.45 143.25 -11.15 143.15 -9.55 143.15 8.35 143.1 8.0 153.3 M22.45 137.25 L22.6 136.8 M9.85 153.3 L10.45 143.1 M11.4 91.65 L-12.1 91.65 -11.85 105.5 -11.65 105.6 10.85 106.7 11.4 91.65 M-6.15 71.4 L-4.3 69.05 -9.45 71.35 -6.15 71.4 M-12.3 73.3 L-19.7 80.2 -11.15 80.25 -7.5 73.55 -12.3 73.3 M-3.1 71.25 L1.6 71.35 -0.9 68.2 -3.1 71.25 M-20.9 81.9 L-11.85 81.95 -14.9 89.65 -25.4 89.65 -20.9 81.9 M-25.25 91.9 L-24.9 104.85 -13.95 105.4 -14.5 91.9 -25.25 91.9 M-13.8 107.35 L-11.65 107.45 10.65 108.65 M-13.95 105.4 L-11.85 105.5 M-22.8 141.55 L-23.1 137.65 M-13.0 124.25 L-13.0 124.3 -13.15 124.3 -24.2 123.85 -25.0 106.5 -13.8 107.35 -13.0 124.25 -10.7 124.3 -11.65 107.45 M-13.15 124.3 L-13.0 124.25 M-12.65 126.55 L-11.6 141.35 M-9.5 141.35 L-10.6 126.55 M-9.55 143.15 L-8.7 153.15 M-11.15 143.15 L-10.65 153.1 M-10.7 124.3 L9.3 124.65" fill="none" stroke="#000000" stroke-linecap="round" stroke-linejoin="round" stroke-opacity="0.4" stroke-width="0.4"/>
    </g>
    <linearGradient gradientTransform="matrix(0.0077, 0.0, 0.0, 0.0067, -0.05, 56.65)" gradientUnits="userSpaceOnUse" id="decoration158-gradient0" spreadMethod="pad" x1="-819.2" x2="819.2">
      <stop offset="0.0" stop-color="#b4b4b4"/>
      <stop offset="1.0" stop-color="#4d4d4d"/>
    </linearGradient>
    <linearGradient gradientTransform="matrix(0.0335, 0.0, 0.0, 0.056, -0.5, 111.5)" gradientUnits="userSpaceOnUse" id="decoration158-gradient1" spreadMethod="pad" x1="-819.2" x2="819.2">
      <stop offset="0.0" stop-color="#b4b4b4"/>
      <stop offset="1.0" stop-color="#4d4d4d"/>
    </linearGradient>
    <g id="decoration158-sprite0" transform="matrix(1.0, 0.0, 0.0, 1.0, 0.0, 0.0)">
      <use data-characterId="234" height="4.6" transform="matrix(1.0, 0.0, 0.0, 1.0, 0.0, 0.0)" width="35.4" xlink:href="#decoration158-shape1"/>
    </g>
    <g id="decoration158-shape1" transform="matrix(1.0, 0.0, 0.0, 1.0, 0.0, 0.0)">
      <path d="M35.4 4.6 L0.0 4.6 0.0 0.0 35.4 0.0 35.4 4.6" fill="#738a7e" fill-opacity="0.0" fill-rule="evenodd" stroke="none"/>
    </g>
  </defs>
</svg>
