<?xml version="1.0" encoding="UTF-8" standalone="no"?>
<svg xmlns:xlink="http://www.w3.org/1999/xlink" height="53.2px" width="7.3px" xmlns="http://www.w3.org/2000/svg">
  <g transform="matrix(1.0, 0.0, 0.0, 1.0, 3.7, 0.1)">
    <use data-characterId="255" height="53.2" transform="matrix(1.0, 0.0, 0.0, 1.0, -3.7, -0.1)" width="7.3" xlink:href="#decoration159-shape0"/>
  </g>
  <defs>
    <g id="decoration159-shape0" transform="matrix(1.0, 0.0, 0.0, 1.0, 3.7, 0.1)">
      <path d="M1.15 0.5 L1.55 1.05 1.9 1.85 2.15 3.45 1.85 5.2 1.75 5.65 2.25 6.2 Q3.4 7.4 3.4 9.4 3.35 11.4 2.45 12.6 L1.55 13.45 1.85 15.0 1.55 16.8 2.25 17.5 Q3.4 18.75 3.4 20.75 3.35 22.8 2.45 23.95 L1.55 24.75 1.85 26.35 Q1.85 27.65 1.3 28.55 L2.25 29.35 Q3.4 30.6 3.4 32.65 3.35 34.7 2.45 35.85 L1.55 36.65 1.85 38.2 1.55 40.0 2.25 40.7 Q3.4 41.95 3.4 44.0 3.35 45.95 2.45 47.2 L1.55 48.0 1.85 49.6 Q1.85 50.95 1.25 51.9 0.65 52.9 -0.1 52.9 -0.95 52.9 -1.5 51.9 -2.0 50.95 -2.0 49.6 L-1.75 47.85 -2.45 47.2 Q-3.5 45.95 -3.5 43.9 -3.5 41.85 -2.55 40.85 L-1.65 40.1 Q-2.0 39.3 -2.0 38.2 L-1.75 36.55 -2.45 35.9 Q-3.5 34.55 -3.5 32.55 -3.5 30.5 -2.55 29.45 L-1.5 28.7 Q-2.0 27.7 -2.0 26.35 L-1.75 24.7 -2.45 24.05 Q-3.5 22.65 -3.5 20.7 -3.5 18.65 -2.55 17.6 L-1.65 16.9 Q-2.0 16.15 -2.0 15.0 L-1.75 13.35 -2.45 12.65 Q-3.5 11.4 -3.5 9.35 -3.5 7.3 -2.55 6.3 -1.95 5.7 -1.3 5.4 L-1.3 5.35 Q-1.7 4.55 -1.7 3.45 L-1.4 1.7 -1.15 1.05 -0.6 0.4 Q-0.25 0.1 0.25 0.1 0.7 0.1 1.15 0.5 M-1.3 5.4 L-1.15 5.8 Q-0.6 6.75 0.25 6.75 0.95 6.75 1.55 5.8 L1.75 5.65 1.55 5.8 Q0.95 6.75 0.25 6.75 -0.6 6.75 -1.15 5.8 L-1.3 5.4 M0.8 12.05 Q1.75 11.0 1.85 9.15 1.95 8.15 1.4 7.55 L1.15 7.45 0.95 7.55 0.8 7.85 0.8 8.1 0.35 8.5 -0.15 8.05 Q-0.35 7.55 -0.75 7.5 L-1.3 7.85 Q-1.95 8.5 -1.65 9.8 L-1.4 10.8 -0.95 12.0 Q-0.6 11.7 -0.1 11.7 0.4 11.7 0.8 12.05 L1.25 12.6 1.55 13.45 1.25 12.6 0.8 12.05 M-1.65 16.9 L-1.5 17.35 Q-0.95 18.35 -0.1 18.35 0.65 18.35 1.25 17.35 L1.55 16.8 1.25 17.35 Q0.65 18.35 -0.1 18.35 -0.95 18.35 -1.5 17.35 L-1.65 16.9 M0.8 19.2 L0.7 19.45 0.3 19.85 -0.25 19.35 Q-0.45 18.95 -0.8 18.85 L-1.3 19.15 Q-1.95 19.75 -1.7 21.1 L-1.4 22.2 -0.95 23.4 Q-0.6 23.0 -0.1 23.0 0.4 23.0 0.8 23.45 1.75 22.35 1.75 20.5 1.95 19.45 1.4 18.95 L1.15 18.75 0.95 18.95 0.8 19.2 M1.55 24.75 L1.25 23.95 0.8 23.45 1.25 23.95 1.55 24.75 M0.95 30.8 L0.8 31.05 0.8 31.3 0.35 31.7 -0.15 31.25 Q-0.35 30.8 -0.75 30.7 -0.95 30.7 -1.3 31.0 -1.95 31.7 -1.65 32.95 L-1.4 34.05 -0.95 35.25 Q-0.6 34.9 -0.1 34.9 0.4 34.9 0.8 35.35 1.75 34.2 1.85 32.4 1.95 31.35 1.4 30.8 L1.15 30.65 0.95 30.8 M-1.65 40.1 L-1.5 40.6 Q-0.95 41.55 -0.1 41.55 0.65 41.55 1.25 40.6 L1.55 40.0 1.25 40.6 Q0.65 41.55 -0.1 41.55 -0.95 41.55 -1.5 40.6 L-1.65 40.1 M1.55 36.65 L1.25 35.85 0.8 35.35 1.25 35.85 1.55 36.65 M0.8 46.65 Q1.75 45.6 1.75 43.7 1.95 42.7 1.4 42.1 L0.95 42.1 Q0.6 42.95 0.3 43.0 L-0.25 42.6 Q-0.45 42.1 -0.8 42.1 L-1.3 42.35 Q-1.95 43.0 -1.7 44.3 L-1.4 45.4 -0.95 46.6 -0.05 46.45 0.8 46.65 1.2 47.25 1.55 48.0 1.2 47.25 0.8 46.65 M-0.95 35.25 L-1.5 35.85 -1.75 36.55 -1.5 35.85 -0.95 35.25 M-1.5 28.7 L-0.15 28.25 Q0.6 28.15 1.3 28.55 0.6 28.15 -0.15 28.25 L-1.5 28.7 M-0.95 23.4 L-1.5 23.95 -1.75 24.7 -1.5 23.95 -0.95 23.4 M-0.95 12.0 L-1.5 12.6 -1.75 13.35 -1.5 12.6 -0.95 12.0 M-0.95 46.6 L-1.4 47.2 -1.75 47.85 -1.4 47.2 -0.95 46.6" fill="#312c2c" fill-opacity="0.9882353" fill-rule="evenodd" stroke="none"/>
      <path d="M1.15 0.5 L1.55 1.05 1.9 1.85 2.15 3.45 1.85 5.2 1.75 5.65 2.25 6.2 Q3.4 7.4 3.4 9.4 3.35 11.4 2.45 12.6 L1.55 13.45 1.85 15.0 1.55 16.8 2.25 17.5 Q3.4 18.75 3.4 20.75 3.35 22.8 2.45 23.95 L1.55 24.75 1.85 26.35 Q1.85 27.65 1.3 28.55 L2.25 29.35 Q3.4 30.6 3.4 32.65 3.35 34.7 2.45 35.85 L1.55 36.65 1.85 38.2 1.55 40.0 2.25 40.7 Q3.4 41.95 3.4 44.0 3.35 45.95 2.45 47.2 L1.55 48.0 1.85 49.6 Q1.85 50.95 1.25 51.9 0.65 52.9 -0.1 52.9 -0.95 52.9 -1.5 51.9 -2.0 50.95 -2.0 49.6 L-1.75 47.85 -2.45 47.2 Q-3.5 45.95 -3.5 43.9 -3.5 41.85 -2.55 40.85 L-1.65 40.1 Q-2.0 39.3 -2.0 38.2 L-1.75 36.55 -2.45 35.9 Q-3.5 34.55 -3.5 32.55 -3.5 30.5 -2.55 29.45 L-1.5 28.7 Q-2.0 27.7 -2.0 26.35 L-1.75 24.7 -2.45 24.05 Q-3.5 22.65 -3.5 20.7 -3.5 18.65 -2.55 17.6 L-1.65 16.9 Q-2.0 16.15 -2.0 15.0 L-1.75 13.35 -2.45 12.65 Q-3.5 11.4 -3.5 9.35 -3.5 7.3 -2.55 6.3 -1.95 5.7 -1.3 5.4 L-1.3 5.35 Q-1.7 4.55 -1.7 3.45 L-1.4 1.7 -1.15 1.05 -0.6 0.4 Q-0.25 0.1 0.25 0.1 0.7 0.1 1.15 0.5 M1.75 5.65 L1.55 5.8 Q0.95 6.75 0.25 6.75 -0.6 6.75 -1.15 5.8 L-1.3 5.4 M-0.95 12.0 L-1.4 10.8 -1.65 9.8 Q-1.95 8.5 -1.3 7.85 L-0.75 7.5 Q-0.35 7.55 -0.15 8.05 L0.35 8.5 0.8 8.1 0.8 7.85 0.95 7.55 1.15 7.45 1.4 7.55 Q1.95 8.15 1.85 9.15 1.75 11.0 0.8 12.05 L1.25 12.6 1.55 13.45 M1.55 16.8 L1.25 17.35 Q0.65 18.35 -0.1 18.35 -0.95 18.35 -1.5 17.35 L-1.65 16.9 M0.8 19.2 L0.7 19.45 0.3 19.85 -0.25 19.35 Q-0.45 18.95 -0.8 18.85 L-1.3 19.15 Q-1.95 19.75 -1.7 21.1 L-1.4 22.2 -0.95 23.4 Q-0.6 23.0 -0.1 23.0 0.4 23.0 0.8 23.45 1.75 22.35 1.75 20.5 1.95 19.45 1.4 18.95 L1.15 18.75 0.95 18.95 0.8 19.2 M0.8 23.45 L1.25 23.95 1.55 24.75 M0.95 30.8 L0.8 31.05 0.8 31.3 0.35 31.7 -0.15 31.25 Q-0.35 30.8 -0.75 30.7 -0.95 30.7 -1.3 31.0 -1.95 31.7 -1.65 32.95 L-1.4 34.05 -0.95 35.25 Q-0.6 34.9 -0.1 34.9 0.4 34.9 0.8 35.35 1.75 34.2 1.85 32.4 1.95 31.35 1.4 30.8 L1.15 30.65 0.95 30.8 M0.8 35.35 L1.25 35.85 1.55 36.65 M1.55 40.0 L1.25 40.6 Q0.65 41.55 -0.1 41.55 -0.95 41.55 -1.5 40.6 L-1.65 40.1 M-0.95 46.6 L-1.4 45.4 -1.7 44.3 Q-1.95 43.0 -1.3 42.35 L-0.8 42.1 Q-0.45 42.1 -0.25 42.6 L0.3 43.0 Q0.6 42.95 0.95 42.1 L1.4 42.1 Q1.95 42.7 1.75 43.7 1.75 45.6 0.8 46.65 L1.2 47.25 1.55 48.0 M-0.95 12.0 Q-0.6 11.7 -0.1 11.7 0.4 11.7 0.8 12.05 M-1.75 13.35 L-1.5 12.6 -0.95 12.0 M-1.75 24.7 L-1.5 23.95 -0.95 23.4 M1.3 28.55 Q0.6 28.15 -0.15 28.25 L-1.5 28.7 M-1.75 36.55 L-1.5 35.85 -0.95 35.25 M-0.95 46.6 L-0.05 46.45 0.8 46.65 M-1.75 47.85 L-1.4 47.2 -0.95 46.6" fill="none" stroke="#000000" stroke-linecap="round" stroke-linejoin="round" stroke-opacity="0.5019608" stroke-width="0.4"/>
    </g>
  </defs>
</svg>
