<?xml version="1.0" encoding="UTF-8" standalone="no"?>
<svg xmlns:xlink="http://www.w3.org/1999/xlink" height="64.3px" width="39.75px" xmlns="http://www.w3.org/2000/svg">
  <g transform="matrix(1.0, 0.0, 0.0, 1.0, 19.15, 63.9)">
    <use height="64.3" transform="matrix(1.0, 0.0, 0.0, 1.0, -19.15, -63.9)" width="39.75" xlink:href="#decoration16-shape0"/>
    <use height="4.6" id="decoration16-B" transform="matrix(1.0, 0.0, 0.0, 1.0647, -17.55, -24.2)" width="35.4" xlink:href="#decoration16-sprite0"/>
  </g>
  <defs>
    <g id="decoration16-shape0" transform="matrix(1.0, 0.0, 0.0, 1.0, 19.15, 63.9)">
      <path d="M11.9 -63.9 L14.05 -61.75 14.05 -28.15 Q17.65 -26.25 17.85 -23.3 L20.6 -23.3 20.6 -19.4 17.35 -19.4 17.35 0.35 14.2 0.35 14.2 -3.85 -9.75 -3.85 -9.75 0.05 -13.15 0.05 -13.15 -61.9 -10.35 -62.85 -7.9 -61.45 -7.9 -55.55 10.8 -55.85 11.9 -63.9 M10.95 -39.8 L-8.65 -39.8 -8.65 -27.05 10.95 -27.05 10.95 -39.8 M12.35 -19.1 L-9.75 -19.1 -9.75 -7.75 12.35 -7.75 12.35 -19.1 M10.95 -51.8 L-8.35 -51.8 -8.35 -45.1 10.95 -45.1 10.95 -51.8" fill="#000000" fill-opacity="0.3019608" fill-rule="evenodd" stroke="none"/>
      <path d="M6.3 -5.5 L-14.0 -5.5 -14.0 -6.6 -9.75 -6.2 -2.55 -6.0 3.55 -6.9 Q6.3 -7.6 6.25 -7.95 L12.35 -7.95 12.35 -6.7 8.9 -6.35 6.3 -5.5" fill="#4f351b" fill-rule="evenodd" stroke="none"/>
      <path d="M12.35 -6.7 L12.35 -5.5 6.3 -5.5 8.9 -6.35 12.35 -6.7 M-14.0 -6.6 L-14.0 -7.95 6.25 -7.95 Q6.3 -7.6 3.55 -6.9 L-2.55 -6.0 -9.75 -6.2 -14.0 -6.6" fill="#412a14" fill-rule="evenodd" stroke="none"/>
      <path d="M12.35 -6.7 L8.9 -6.35 6.3 -5.5 M6.25 -7.95 Q6.3 -7.6 3.55 -6.9 L-2.55 -6.0 -9.75 -6.2 -14.0 -6.6" fill="none" stroke="#000000" stroke-linecap="round" stroke-linejoin="round" stroke-opacity="0.23137255" stroke-width="0.2"/>
      <path d="M12.35 -6.7 L12.35 -5.5 6.3 -5.5 -14.0 -5.5 -14.0 -6.6 -14.0 -7.95 6.25 -7.95 12.35 -7.95 12.35 -6.7 Z" fill="none" stroke="#000000" stroke-linecap="round" stroke-linejoin="round" stroke-opacity="0.3882353" stroke-width="0.4"/>
      <path d="M11.6 -18.8 L11.6 -21.7 15.7 -21.7 15.7 -18.8 Q13.3 -17.5 11.6 -18.8 M-16.15 -18.7 L-16.15 -21.7 -11.65 -21.7 -11.65 -18.45 Q-14.7 -17.2 -16.15 -18.7" fill="#3a2511" fill-rule="evenodd" stroke="none"/>
      <path d="M11.6 -18.8 Q13.3 -17.5 15.7 -18.8 L15.7 0.2 11.6 0.2 11.6 -18.8 M-11.65 -18.45 L-11.65 0.2 -16.15 0.2 -16.15 -18.7 Q-14.7 -17.2 -11.65 -18.45" fill="#4f351b" fill-rule="evenodd" stroke="none"/>
      <path d="M15.7 -18.8 L15.7 -21.7 11.6 -21.7 11.6 -18.8 M15.7 -18.8 L15.7 0.2 11.6 0.2 11.6 -18.8 M-16.15 -18.7 L-16.15 -21.7 -11.65 -21.7 -11.65 -18.45 -11.65 0.2 -16.15 0.2 -16.15 -18.7" fill="none" stroke="#000000" stroke-linecap="round" stroke-linejoin="round" stroke-opacity="0.3882353" stroke-width="0.4"/>
      <path d="M-4.75 -57.15 L9.4 -57.15 9.4 -63.65 12.8 -63.65 12.75 -57.15 Q12.7 -56.45 7.05 -55.05 -0.8 -55.35 -4.75 -57.15 M12.75 -53.9 L12.85 -40.5 Q10.95 -44.2 7.05 -44.7 L2.7 -44.4 Q-1.9 -43.65 -3.75 -41.8 L-9.8 -41.8 -9.6 -31.3 Q-10.9 -27.9 -11.0 -24.1 L-13.4 -24.0 -13.4 -29.15 Q-13.05 -38.1 -8.3 -46.75 L9.45 -46.75 9.45 -48.15 Q12.15 -48.75 12.75 -53.9 M12.85 -32.05 L12.55 -24.0 4.3 -24.0 5.8 -25.9 9.1 -26.2 9.05 -28.7 Q10.15 -31.6 12.85 -32.05 M-13.4 -40.5 L-13.4 -57.15 -13.35 -57.15 -13.3 -63.65 -10.0 -63.65 -10.0 -57.15 Q-11.7 -46.8 -13.4 -40.5" fill="#795531" fill-rule="evenodd" stroke="none"/>
      <path d="M12.75 -57.15 L12.75 -53.9 Q12.15 -48.75 9.45 -48.15 L9.45 -53.5 -10.0 -53.5 -10.0 -46.75 -8.3 -46.75 Q-13.05 -38.1 -13.4 -29.15 L-13.4 -40.5 Q-11.7 -46.8 -10.0 -57.15 L-4.75 -57.15 Q-0.8 -55.35 7.05 -55.05 12.7 -56.45 12.75 -57.15 M12.85 -40.5 L12.85 -32.05 Q10.15 -31.6 9.05 -28.7 L9.2 -42.0 -3.75 -41.8 Q-1.9 -43.65 2.7 -44.4 L7.05 -44.7 Q10.95 -44.2 12.85 -40.5 M4.3 -24.0 L-11.0 -24.1 Q-10.9 -27.9 -9.6 -31.3 L-9.8 -26.0 5.8 -25.9 4.3 -24.0" fill="#664626" fill-rule="evenodd" stroke="none"/>
      <path d="M-4.75 -57.15 Q-0.8 -55.35 7.05 -55.05 12.7 -56.45 12.75 -57.15 M-3.75 -41.8 Q-1.9 -43.65 2.7 -44.4 L7.05 -44.7 Q10.95 -44.2 12.85 -40.5 M9.05 -28.7 Q10.15 -31.6 12.85 -32.05 M5.8 -25.9 L4.3 -24.0 M-8.3 -46.75 Q-13.05 -38.1 -13.4 -29.15 M9.45 -48.15 Q12.15 -48.75 12.75 -53.9 M-9.6 -31.3 Q-10.9 -27.9 -11.0 -24.1 M-10.0 -57.15 Q-11.7 -46.8 -13.4 -40.5" fill="none" stroke="#000000" stroke-linecap="round" stroke-linejoin="round" stroke-opacity="0.23137255" stroke-width="0.2"/>
      <path d="M-4.75 -57.15 L9.4 -57.15 9.4 -63.65 12.8 -63.65 12.75 -57.15 12.75 -53.9 12.85 -40.5 12.85 -32.05 12.55 -24.0 4.3 -24.0 -11.0 -24.1 -13.4 -24.0 -13.4 -29.15 -13.4 -40.5 -13.4 -57.15 -13.35 -57.15 -13.3 -63.65 -10.0 -63.65 -10.0 -57.15 -4.75 -57.15 M-3.75 -41.8 L9.2 -42.0 9.05 -28.7 9.1 -26.2 5.8 -25.9 -9.8 -26.0 -9.6 -31.3 -9.8 -41.8 -3.75 -41.8 M9.45 -48.15 L9.45 -46.75 -8.3 -46.75 -10.0 -46.75 -10.0 -53.5 9.45 -53.5 9.45 -48.15" fill="none" stroke="#000000" stroke-linecap="round" stroke-linejoin="round" stroke-opacity="0.3882353" stroke-width="0.4"/>
      <path d="M10.65 -24.8 Q10.7 -24.3 6.7 -23.15 2.2 -21.95 -2.2 -21.65 L-12.75 -21.95 -18.95 -22.6 -18.95 -24.8 10.65 -24.8 M10.7 -20.85 Q11.45 -21.4 14.5 -22.2 18.0 -23.15 19.6 -22.8 L19.6 -20.85 10.7 -20.85" fill="#583b1d" fill-rule="evenodd" stroke="none"/>
      <path d="M-18.95 -22.6 L-12.75 -21.95 -2.2 -21.65 Q2.2 -21.95 6.7 -23.15 10.7 -24.3 10.65 -24.8 L19.6 -24.8 19.6 -22.8 Q18.0 -23.15 14.5 -22.2 11.45 -21.4 10.7 -20.85 L-18.95 -20.85 -18.95 -22.6" fill="#664626" fill-rule="evenodd" stroke="none"/>
      <path d="M10.65 -24.8 L-18.95 -24.8 -18.95 -22.6 -18.95 -20.85 10.7 -20.85 M19.6 -22.8 L19.6 -24.8 10.65 -24.8 M19.6 -22.8 L19.6 -20.85 10.7 -20.85" fill="none" stroke="#000000" stroke-linecap="round" stroke-linejoin="round" stroke-opacity="0.3882353" stroke-width="0.4"/>
      <path d="M-18.95 -22.6 L-12.75 -21.95 -2.2 -21.65 Q2.2 -21.95 6.7 -23.15 10.7 -24.3 10.65 -24.8 M10.7 -20.85 Q11.45 -21.4 14.5 -22.2 18.0 -23.15 19.6 -22.8" fill="none" stroke="#000000" stroke-linecap="round" stroke-linejoin="round" stroke-opacity="0.23137255" stroke-width="0.2"/>
      <path d="M10.9 -27.65 L12.8 -27.35 Q15.15 -26.8 15.2 -24.8 L-14.85 -24.8 Q-15.1 -25.75 -14.5 -26.4 13.25 -25.6 10.9 -27.65" fill="#9a8f82" fill-rule="evenodd" stroke="none"/>
      <path d="M-14.5 -26.4 Q-13.7 -27.35 -11.3 -27.7 L-0.45 -28.1 10.9 -27.65 Q13.25 -25.6 -14.5 -26.4" fill="#cdc5bc" fill-rule="evenodd" stroke="none"/>
      <path d="M10.9 -27.65 L12.8 -27.35 Q15.15 -26.8 15.2 -24.8 L-14.85 -24.8 Q-15.1 -25.75 -14.5 -26.4 -13.7 -27.35 -11.3 -27.7 L-0.45 -28.1 10.9 -27.65 Z" fill="none" stroke="#000000" stroke-linecap="round" stroke-linejoin="round" stroke-opacity="0.3882353" stroke-width="0.4"/>
    </g>
    <g id="decoration16-sprite0" transform="matrix(1.0, 0.0, 0.0, 1.0, 0.0, 0.0)">
      <use height="4.6" transform="matrix(1.0, 0.0, 0.0, 1.0, 0.0, 0.0)" width="35.4" xlink:href="#decoration16-shape1"/>
    </g>
    <g id="decoration16-shape1" transform="matrix(1.0, 0.0, 0.0, 1.0, 0.0, 0.0)">
      <path d="M35.4 4.6 L0.0 4.6 0.0 0.0 35.4 0.0 35.4 4.6" fill="#738a7e" fill-opacity="0.0" fill-rule="evenodd" stroke="none"/>
    </g>
  </defs>
</svg>
