<?xml version="1.0" encoding="UTF-8" standalone="no"?>
<svg xmlns:ffdec="https://www.free-decompiler.com/flash" xmlns:xlink="http://www.w3.org/1999/xlink" ffdec:objectType="frame" height="15.0px" width="26.95px" xmlns="http://www.w3.org/2000/svg">
  <g transform="matrix(1.0, 0.0, 0.0, 1.0, 13.45, 7.55)">
    <use ffdec:characterId="278" height="15.0" transform="matrix(1.0, 0.0, 0.0, 1.0, -13.45, -7.55)" width="26.95" xlink:href="#decoration161-shape0"/>
  </g>
  <defs>
    <g id="decoration161-shape0" transform="matrix(1.0, 0.0, 0.0, 1.0, 13.45, 7.55)">
      <path d="M4.75 -3.15 L7.6 -3.95 9.5 -3.75 Q10.05 -3.25 8.3 -2.75 L5.45 -2.35 6.2 -0.85 6.8 -0.75 9.1 -1.05 Q10.2 -1.45 10.7 -1.8 11.05 -2.15 11.5 -2.1 11.9 -2.1 11.9 -1.7 11.9 -1.1 9.75 -0.35 7.9 0.3 6.65 0.35 L6.1 1.25 6.5 1.4 Q8.65 2.2 8.65 4.35 8.65 4.9 8.25 5.35 7.7 5.95 6.65 5.95 6.2 5.95 6.2 5.5 6.2 5.2 7.0 4.95 L7.75 4.35 Q7.75 2.6 6.05 2.2 L5.15 1.95 2.7 2.65 0.0 3.2 -0.4 3.3 -0.65 3.4 1.25 4.95 3.5 6.75 Q3.85 7.2 3.55 7.4 3.25 7.6 1.9 6.6 L0.05 5.2 -0.9 4.45 -1.6 3.4 -1.65 2.8 -3.2 2.65 -3.35 3.8 Q-3.65 4.4 -4.8 4.6 -8.25 5.7 -9.25 5.7 -10.35 5.7 -10.35 5.1 -10.35 4.85 -10.0 4.55 L-11.55 4.55 Q-13.35 4.55 -13.35 3.6 -13.35 2.85 -12.8 2.85 -7.0 2.7 -6.85 2.95 L-6.9 2.25 Q-7.35 2.15 -8.85 1.25 L-10.4 0.2 -10.95 -0.8 Q-10.95 -1.7 -9.9 -2.4 L-8.5 -3.1 -6.75 -3.75 -2.75 -3.55 -0.9 -3.25 0.85 -2.9 3.05 -2.6 4.75 -3.15" fill="#000000" fill-opacity="0.3019608" fill-rule="evenodd" stroke="none"/>
      <path d="M4.0 -4.0 L4.0 -3.5 4.55 -2.7 5.35 -1.3 4.1 -2.15 4.05 -2.2 3.2 -2.85 4.05 -2.2 4.1 -2.15 5.35 -1.3 5.75 -0.85 5.8 -0.85 6.15 -0.1 Q6.25 0.3 5.95 0.7 L5.2 1.15 4.45 1.45 Q3.45 1.8 3.4 1.85 L2.1 2.05 -0.15 2.3 2.1 2.05 0.45 3.1 0.05 2.8 -0.8 2.5 -0.8 2.45 -0.35 2.25 -0.3 2.25 -0.15 2.25 -0.2 2.3 -0.25 2.35 -0.15 2.3 1.85 0.8 Q2.5 0.0 2.55 -0.6 L2.3 -1.9 Q2.1 -2.6 0.95 -3.75 L0.85 -3.85 0.95 -3.9 3.2 -2.85 Q2.45 -3.45 3.45 -4.05 L3.95 -4.0 4.0 -4.0 M3.4 1.85 Q2.7 0.1 4.05 -2.2 1.65 -0.35 3.4 1.85 M-1.1 -5.45 L-0.9 -5.3 0.5 -4.55 Q1.0 -4.3 0.95 -3.9 L-0.45 -4.2 -2.25 -4.55 -2.35 -4.6 -0.7 -4.75 Q-0.5 -4.9 -1.1 -5.45 M-4.0 2.0 L-3.9 3.0 Q-3.8 3.5 -4.85 4.0 L-4.4 3.55 Q-4.15 3.2 -4.5 3.0 L-5.2 2.8 -4.9 1.9 -4.0 2.0 M-9.35 3.25 L-10.35 3.35 -13.2 3.55 -13.35 3.15 -7.4 2.5 -6.95 1.9 -7.6 1.75 -7.35 1.25 -6.5 1.55 -6.7 3.0 -9.35 3.25 M-4.9 -5.55 L-3.05 -4.6 -4.95 -4.45 Q-3.95 -4.65 -4.9 -5.55" fill="#64382d" fill-rule="evenodd" stroke="none"/>
      <path d="M4.0 -3.5 L4.0 -4.0 8.95 -4.6 9.1 -4.7 Q9.85 -4.55 9.6 -3.65 L9.05 -3.35 Q7.75 -2.85 4.55 -2.7 L4.0 -3.5 M12.15 -1.5 Q10.65 -0.85 9.85 -0.75 L9.25 -0.8 8.75 -1.25 9.2 -1.35 Q14.2 -2.55 11.7 -5.05 11.65 -5.95 12.4 -5.6 L12.9 -4.95 Q13.75 -3.45 13.1 -2.4 L12.15 -1.5 M6.9 2.0 Q6.2 1.45 6.6 1.0 10.85 3.25 8.6 5.2 L8.45 5.35 5.85 6.5 Q5.05 6.4 5.55 5.8 9.05 4.7 8.25 3.25 7.95 2.65 6.9 2.0 M0.05 2.8 L0.45 3.1 Q3.7 5.45 4.05 6.6 L3.7 7.15 3.0 7.2 Q1.75 5.35 -1.2 3.65 -1.6 2.8 -0.8 2.45 L-0.8 2.5 0.05 2.8 M-4.85 4.0 L-5.35 4.05 -10.35 5.05 -10.5 4.65 -10.35 4.3 -9.35 3.25 -6.7 3.0 -5.2 2.8 -4.5 3.0 Q-4.15 3.2 -4.4 3.55 L-4.85 4.0 M-13.35 3.15 L-13.1 2.9 -12.25 2.15 -10.1 2.05 -7.75 2.05 -7.6 1.75 -6.95 1.9 -7.4 2.5 -13.35 3.15 M-5.6 -4.4 L-6.25 -4.65 -7.3 -5.2 -7.6 -5.75 -7.9 -6.5 -7.6 -7.2 -7.2 -6.9 -4.9 -5.55 Q-3.95 -4.65 -4.95 -4.45 L-5.6 -4.4 M-2.35 -4.6 L-2.4 -4.6 -4.05 -5.65 -4.5 -6.15 -4.8 -6.8 Q-4.75 -7.35 -4.5 -7.45 L-1.1 -5.45 Q-0.5 -4.9 -0.7 -4.75 L-2.35 -4.6" fill="#b9694c" fill-rule="evenodd" stroke="none"/>
      <path d="M0.95 -3.9 L0.85 -3.85 Q-3.95 -1.2 -0.35 2.25 L-6.15 1.05 Q-9.3 0.1 -9.5 -1.05 -9.75 -2.35 -8.15 -3.25 -6.55 -4.2 -5.7 -4.35 L-5.6 -4.4 -4.95 -4.45 -3.05 -4.6 -2.25 -4.55 -0.45 -4.2 0.95 -3.9" fill="url(#decoration161-gradient0)" fill-rule="evenodd" stroke="none"/>
      <path d="M0.85 -3.85 L0.95 -3.75 Q-2.35 -0.9 -0.3 2.25 L-0.35 2.25 Q-3.95 -1.2 0.85 -3.85 M3.4 1.85 Q1.65 -0.35 4.05 -2.2 2.7 0.1 3.4 1.85 M-0.15 2.3 L-0.25 2.35 -0.2 2.3 -0.15 2.3" fill="#432b23" fill-rule="evenodd" stroke="none"/>
      <path d="M0.95 -3.75 Q2.1 -2.6 2.3 -1.9 L2.55 -0.6 Q2.5 0.0 1.85 0.8 L-0.15 2.3 -0.2 2.3 -0.15 2.25 -0.3 2.25 Q-2.35 -0.9 0.95 -3.75" fill="url(#decoration161-gradient1)" fill-rule="evenodd" stroke="none"/>
      <path d="M5.2 1.15 L5.95 0.7 6.6 1.0 Q6.2 1.45 6.9 2.0 L5.2 1.15 M6.15 -0.1 L5.8 -0.85 8.75 -1.25 9.25 -0.8 9.85 -0.75 Q10.65 -0.85 12.15 -1.5 11.15 -0.9 9.3 -0.5 L6.15 -0.1" fill="#764538" fill-rule="evenodd" stroke="none"/>
      <path d="M-0.35 2.25 L-4.0 2.0 -4.9 1.9 -6.5 1.55 -7.35 1.25 -9.7 0.0 Q-11.65 -1.8 -8.25 -3.7 -7.0 -4.3 -5.7 -4.35 -6.55 -4.2 -8.15 -3.25 -9.75 -2.35 -9.5 -1.05 -9.3 0.1 -6.15 1.05 L-0.35 2.25" fill="#dc8151" fill-rule="evenodd" stroke="none"/>
      <path d="M4.0 -4.0 L3.95 -4.0 3.45 -4.05 Q2.45 -3.45 3.2 -2.85 L0.95 -3.9 Q1.0 -4.3 0.5 -4.55 L-0.9 -5.3 -1.1 -5.45 -4.5 -7.45 Q-4.75 -7.35 -4.8 -6.8 L-4.5 -6.15 -4.05 -5.65 -2.4 -4.6 -2.35 -4.6 M5.35 -1.3 L4.55 -2.7 Q7.75 -2.85 9.05 -3.35 L9.6 -3.65 Q9.85 -4.55 9.1 -4.7 L8.95 -4.6 4.0 -4.0 M2.1 2.05 L3.4 1.85 Q3.45 1.8 4.45 1.45 L5.2 1.15 6.9 2.0 Q7.95 2.65 8.25 3.25 9.05 4.7 5.55 5.8 5.05 6.4 5.85 6.5 L8.45 5.35 8.6 5.2 Q10.85 3.25 6.6 1.0 L5.95 0.7 M5.8 -0.85 L5.75 -0.85 5.35 -1.3 M8.75 -1.25 L5.8 -0.85 M8.75 -1.25 L9.2 -1.35 Q14.2 -2.55 11.7 -5.05 11.65 -5.95 12.4 -5.6 L12.9 -4.95 Q13.75 -3.45 13.1 -2.4 L12.15 -1.5 Q11.15 -0.9 9.3 -0.5 L6.15 -0.1 M0.45 3.1 L2.1 2.05 M0.45 3.1 Q3.7 5.45 4.05 6.6 L3.7 7.15 3.0 7.2 Q1.75 5.35 -1.2 3.65 -1.6 2.8 -0.8 2.45 M-0.35 2.25 L-4.0 2.0 -3.9 3.0 Q-3.8 3.5 -4.85 4.0 L-5.35 4.05 -10.35 5.05 -10.5 4.65 -10.35 4.3 -9.35 3.25 -10.35 3.35 -13.2 3.55 -13.35 3.15 -13.1 2.9 -12.25 2.15 -10.1 2.05 -7.75 2.05 -7.6 1.75 -7.35 1.25 -9.7 0.0 Q-11.65 -1.8 -8.25 -3.7 -7.0 -4.3 -5.7 -4.35 M-5.6 -4.4 L-6.25 -4.65 -7.3 -5.2 -7.6 -5.75 -7.9 -6.5 -7.6 -7.2 -7.2 -6.9 -4.9 -5.55 -3.05 -4.6 -2.25 -4.55 M-6.5 1.55 L-6.7 3.0 -5.2 2.8 -4.9 1.9 -6.5 1.55" fill="none" stroke="#000000" stroke-linecap="round" stroke-linejoin="round" stroke-opacity="0.5019608" stroke-width="0.2"/>
      <path d="M3.2 -2.85 L4.05 -2.2 4.1 -2.15 5.35 -1.3 M4.55 -2.7 L4.0 -3.5 M-0.15 2.3 L2.1 2.05 M5.2 1.15 L5.95 0.7 Q6.25 0.3 6.15 -0.1 L5.8 -0.85 M0.95 -3.9 L0.85 -3.85 M-0.35 2.25 L-0.3 2.25 -0.15 2.25 -0.2 2.3 -0.15 2.3 M0.05 2.8 L0.45 3.1 M-0.8 2.45 L-0.35 2.25 M-5.7 -4.35 L-5.6 -4.4 -4.95 -4.45 -3.05 -4.6 M-2.25 -4.55 L-2.35 -4.6 M-2.25 -4.55 L-0.45 -4.2 0.95 -3.9 M-4.9 1.9 L-4.0 2.0 M-6.5 1.55 L-7.35 1.25 M-6.7 3.0 L-9.35 3.25" fill="none" stroke="#000000" stroke-linecap="round" stroke-linejoin="round" stroke-opacity="0.3019608" stroke-width="0.2"/>
    </g>
    <linearGradient gradientTransform="matrix(-2.0E-4, 0.0022, -0.0045, -4.0E-4, -4.8, -0.65)" gradientUnits="userSpaceOnUse" id="decoration161-gradient0" spreadMethod="pad" x1="-819.2" x2="819.2">
      <stop offset="0.0" stop-color="#804c39"/>
      <stop offset="1.0" stop-color="#b9694c"/>
    </linearGradient>
    <linearGradient gradientTransform="matrix(-8.0E-4, 0.0041, -0.0038, -6.0E-4, 0.35, 0.15)" gradientUnits="userSpaceOnUse" id="decoration161-gradient1" spreadMethod="pad" x1="-819.2" x2="819.2">
      <stop offset="0.0" stop-color="#744832"/>
      <stop offset="1.0" stop-color="#b9694c"/>
    </linearGradient>
  </defs>
</svg>
