<?xml version="1.0" encoding="UTF-8" standalone="no"?>
<svg xmlns:xlink="http://www.w3.org/1999/xlink" height="29.75px" width="130.2px" xmlns="http://www.w3.org/2000/svg">
  <g transform="matrix(1.0, 0.0, 0.0, 1.0, 64.85, 29.9)">
    <use data-characterId="249" height="29.75" transform="matrix(1.0, 0.0, 0.0, 1.0, -64.85, -29.9)" width="130.2" xlink:href="#decoration162-shape0"/>
  </g>
  <defs>
    <g id="decoration162-shape0" transform="matrix(1.0, 0.0, 0.0, 1.0, 64.85, 29.9)">
      <path d="M-3.3 -23.7 Q1.55 -26.45 5.9 -27.3 20.75 -30.25 29.6 -12.3 L31.8 -13.65 Q34.45 -15.0 36.75 -15.4 44.15 -16.45 45.1 -6.75 50.2 -7.3 58.3 -3.8 62.35 -2.05 65.35 -0.2 L-59.05 -0.2 Q-33.1 -3.55 -32.1 -9.9 -31.15 -16.35 -22.15 -12.6 -20.9 -21.25 -15.65 -23.1 -12.2 -24.4 -6.8 -21.85 -6.85 -21.7 -3.3 -23.7" fill="#ffffff" fill-opacity="0.4" fill-rule="evenodd" stroke="none"/>
      <path d="M-26.65 -26.55 Q-22.45 -29.7 -12.85 -29.9 -3.25 -30.2 5.6 -12.25 L7.8 -13.6 Q10.45 -14.95 12.75 -15.35 20.15 -16.4 21.1 -6.7 26.2 -7.25 34.3 -3.7 38.35 -2.0 41.35 -0.15 L-64.85 -0.15 Q-57.1 -3.5 -56.1 -9.85 -55.15 -16.3 -46.15 -12.55 -44.9 -21.2 -39.65 -23.05 -36.2 -24.3 -30.0 -18.35 -30.85 -23.5 -26.65 -26.55" fill="#cccccc" fill-opacity="0.4" fill-rule="evenodd" stroke="none"/>
    </g>
  </defs>
</svg>
