<?xml version="1.0" encoding="UTF-8" standalone="no"?>
<svg xmlns:xlink="http://www.w3.org/1999/xlink" height="25.7px" width="26.9px" xmlns="http://www.w3.org/2000/svg">
  <g transform="matrix(1.0, 0.0, 0.0, 1.0, 13.7, 24.0)">
    <use data-characterId="245" height="25.7" transform="matrix(1.0, 0.0, 0.0, 1.0, -13.7, -24.0)" width="26.9" xlink:href="#decoration164-shape0"/>
  </g>
  <defs>
    <g id="decoration164-shape0" transform="matrix(1.0, 0.0, 0.0, 1.0, 13.7, 24.0)">
      <path d="M13.05 -0.4 Q13.05 0.45 9.15 1.05 L-0.1 1.7 -9.45 1.05 Q-13.25 0.45 -13.25 -0.4 -13.25 -1.3 -9.45 -1.9 L-0.1 -2.55 9.15 -1.9 Q13.05 -1.3 13.05 -0.4" fill="#000000" fill-opacity="0.3019608" fill-rule="evenodd" stroke="none"/>
      <path d="M3.9 -10.35 Q7.05 -0.15 -3.0 0.25 L-3.1 0.25 -6.6 0.15 Q-11.6 -0.35 -12.95 -3.45 -6.45 -1.1 -2.85 -5.65 L-1.55 -8.95 Q1.15 -9.4 3.9 -10.35 M2.8 -5.95 Q2.8 -7.7 1.75 -7.35 0.7 -7.0 -0.55 -4.9 L-2.2 -2.8 -3.6 -1.8 -5.35 -1.4 Q-5.95 -1.35 -5.95 -1.1 L-5.85 -0.85 -5.65 -0.8 -3.25 -1.0 Q-0.15 -1.3 1.55 -3.05 2.8 -4.4 2.8 -5.95" fill="#ddb601" fill-rule="evenodd" stroke="none"/>
      <path d="M2.8 -5.95 Q2.8 -4.4 1.55 -3.05 -0.15 -1.3 -3.25 -1.0 L-5.65 -0.8 -5.85 -0.85 -5.95 -1.1 Q-5.95 -1.35 -5.35 -1.4 L-3.6 -1.8 -2.2 -2.8 -0.55 -4.9 Q0.7 -7.0 1.75 -7.35 2.8 -7.7 2.8 -5.95" fill="#f0d558" fill-rule="evenodd" stroke="none"/>
      <path d="M0.5 -18.9 L3.9 -10.35 Q1.15 -9.4 -1.55 -8.95 -0.25 -13.5 -0.7 -18.65 L0.5 -18.9" fill="#d07100" fill-rule="evenodd" stroke="none"/>
      <path d="M-1.05 -21.35 L0.5 -18.9 -0.7 -18.65 -1.05 -21.35" fill="#d3cccc" fill-rule="evenodd" stroke="none"/>
      <path d="M-9.9 -18.65 Q-8.15 -22.45 -6.3 -23.4 -4.85 -24.15 -3.4 -23.4 -2.25 -22.85 -1.05 -21.35 L-0.7 -18.65 Q-5.35 -17.4 -9.9 -18.65" fill="#ffffff" fill-rule="evenodd" stroke="none"/>
      <path d="M-12.95 -9.7 L-9.9 -18.65 Q-5.35 -17.4 -0.7 -18.65 -0.25 -13.5 -1.55 -8.95 -7.2 -8.15 -12.95 -9.7" fill="#f98a05" fill-rule="evenodd" stroke="none"/>
      <path d="M-12.95 -3.45 Q-14.0 -5.85 -12.95 -9.7 -7.2 -8.15 -1.55 -8.95 L-2.85 -5.65 Q-6.45 -1.1 -12.95 -3.45" fill="#fbce00" fill-rule="evenodd" stroke="none"/>
      <path d="M0.5 -18.9 L3.9 -10.35 Q7.05 -0.15 -3.0 0.25 L-3.1 0.25 -6.6 0.15 Q-11.6 -0.35 -12.95 -3.45 -14.0 -5.85 -12.95 -9.7 L-9.9 -18.65 Q-8.15 -22.45 -6.3 -23.4 -4.85 -24.15 -3.4 -23.4 -2.25 -22.85 -1.05 -21.35 L0.5 -18.9 Z" fill="none" stroke="#000000" stroke-linecap="round" stroke-linejoin="round" stroke-opacity="0.5019608" stroke-width="0.4"/>
      <path d="M-9.25 -8.2 Q-10.1 -8.55 -10.0 -10.45 -9.95 -12.35 -9.0 -14.75 -8.0 -17.05 -6.5 -18.9 -4.95 -20.7 -4.2 -20.15 -3.5 -19.6 -3.65 -17.5 -3.9 -15.35 -4.85 -13.0 -5.85 -10.65 -7.1 -9.25 -8.4 -7.85 -9.25 -8.2" fill="#ffffff" fill-opacity="0.4" fill-rule="evenodd" stroke="none"/>
      <path d="M9.9 -13.8 L10.0 -13.55 Q10.75 -9.7 9.2 -6.3 L-0.45 -6.7 1.8 -13.55 9.9 -13.8" fill="#f98a05" fill-rule="evenodd" stroke="none"/>
      <path d="M1.8 -13.55 Q3.2 -16.4 4.65 -17.25 5.75 -17.75 6.9 -17.25 8.35 -16.45 9.9 -13.8 L1.8 -13.55" fill="#ffffff" fill-rule="evenodd" stroke="none"/>
      <path d="M12.45 -7.25 Q14.85 0.65 7.2 0.95 L7.1 0.95 2.85 0.55 Q3.6 0.65 5.3 -0.05 7.0 -0.7 9.2 -6.3 L12.45 -7.25 M9.95 -0.7 L10.0 -0.45 10.25 -0.4 Q11.05 -0.4 11.7 -1.85 L12.25 -3.65 Q12.25 -4.45 11.8 -4.9 11.4 -4.6 11.25 -3.95 L11.05 -2.85 10.45 -1.85 9.95 -0.7" fill="#ddb601" fill-rule="evenodd" stroke="none"/>
      <path d="M9.95 -0.7 L10.45 -1.85 11.05 -2.85 11.25 -3.95 Q11.4 -4.6 11.8 -4.9 12.25 -4.45 12.25 -3.65 L11.7 -1.85 Q11.05 -0.4 10.25 -0.4 L10.0 -0.45 9.95 -0.7" fill="#f0d558" fill-rule="evenodd" stroke="none"/>
      <path d="M2.85 0.55 Q-2.15 -0.75 -0.45 -6.7 L9.2 -6.3 Q7.0 -0.7 5.3 -0.05 3.6 0.65 2.85 0.55" fill="#fbce00" fill-rule="evenodd" stroke="none"/>
      <path d="M10.0 -13.55 L12.45 -7.25 9.2 -6.3 Q10.75 -9.7 10.0 -13.55" fill="#d07100" fill-rule="evenodd" stroke="none"/>
      <path d="M1.8 -13.55 Q3.2 -16.4 4.65 -17.25 5.75 -17.75 6.9 -17.25 8.35 -16.45 9.9 -13.8 L10.0 -13.55 12.45 -7.25 Q14.85 0.65 7.2 0.95 L7.1 0.95 2.85 0.55 Q-2.15 -0.75 -0.45 -6.7 L1.8 -13.55 Z" fill="none" stroke="#000000" stroke-linecap="round" stroke-linejoin="round" stroke-opacity="0.5019608" stroke-width="0.4"/>
      <path d="M1.65 -8.6 Q1.7 -10.05 2.45 -11.8 3.2 -13.6 4.35 -15.0 5.55 -16.4 6.1 -15.95 6.65 -15.55 6.55 -13.9 6.35 -12.3 5.6 -10.5 4.85 -8.75 3.9 -7.65 2.9 -6.55 2.25 -6.8 1.6 -7.15 1.65 -8.6" fill="#ffffff" fill-opacity="0.4" fill-rule="evenodd" stroke="none"/>
    </g>
  </defs>
</svg>
