<?xml version="1.0" encoding="UTF-8" standalone="no"?>
<svg xmlns:xlink="http://www.w3.org/1999/xlink" height="62.25px" width="55.3px" xmlns="http://www.w3.org/2000/svg">
  <g transform="matrix(1.0, 0.0, 0.0, 1.0, 27.6, 61.5)">
    <use height="62.25" transform="matrix(1.0, 0.0, 0.0, 1.0, -27.6, -61.5)" width="55.3" xlink:href="#decoration165-shape0"/>
  </g>
  <defs>
    <g id="decoration165-shape0" transform="matrix(1.0, 0.0, 0.0, 1.0, 27.6, 61.5)">
      <path d="M18.95 -41.45 L21.7 -39.0 23.0 -37.55 23.35 -37.15 23.55 -36.95 Q25.4 -34.45 26.45 -31.7 27.4 -29.2 27.5 -26.45 28.05 -17.6 20.0 -10.25 L18.45 -8.9 18.35 -9.15 Q17.9 -10.8 16.7 -11.3 L16.65 -11.3 16.8 -11.4 Q18.9 -13.15 19.95 -14.9 21.05 -16.65 21.2 -17.8 L22.2 -21.6 Q24.7 -31.7 11.8 -39.65 L13.6 -40.0 17.2 -40.8 18.25 -41.15 18.95 -41.45 M14.35 -6.25 Q9.05 -3.5 2.4 -3.0 L1.9 -0.8 Q1.55 0.4 0.85 0.55 0.15 0.6 -0.3 -0.6 L-1.05 -3.0 Q-8.9 -3.15 -14.9 -6.05 -14.3 -7.9 -14.4 -9.15 -7.55 -4.9 1.15 -5.45 9.85 -5.9 14.05 -9.6 L14.0 -9.45 Q13.8 -8.2 14.35 -6.25 M16.8 -11.4 L16.7 -11.3 16.8 -11.4 M-1.05 -3.0 L-0.3 -3.0 2.4 -3.0 -0.3 -3.0 -1.05 -3.0" fill="#22201f" fill-rule="evenodd" stroke="none"/>
      <path d="M-19.15 -41.35 L-18.5 -41.15 -17.3 -40.65 -14.05 -39.85 -6.6 -38.8 Q-0.25 -38.15 5.85 -38.8 L7.3 -39.0 7.8 -39.05 8.1 -39.1 8.65 -39.15 Q15.25 -34.2 15.0 -26.4 14.8 -18.6 1.5 -13.3 -11.85 -7.95 -26.55 -18.25 -27.65 -21.55 -27.4 -25.4 -27.05 -29.15 -25.75 -32.4 L-25.05 -33.85 -24.95 -34.05 Q-22.95 -38.1 -19.25 -41.3 L-19.15 -41.35 M-20.8 -35.3 Q-21.0 -34.4 -20.05 -33.85 -19.05 -33.35 -18.4 -33.55 -17.8 -33.8 -17.95 -34.4 L-17.65 -35.5 Q-16.75 -39.2 -17.1 -39.2 L-19.0 -37.65 -20.8 -35.3 M-20.5 -27.75 L-19.4 -30.25 Q-19.05 -31.1 -20.75 -32.2 -22.4 -33.25 -23.7 -29.8 -25.0 -26.3 -24.2 -22.85 -23.5 -19.35 -21.65 -17.15 -19.85 -15.05 -21.0 -19.7 -22.25 -24.4 -20.5 -27.75" fill="url(#decoration165-gradient0)" fill-rule="evenodd" stroke="none"/>
      <path d="M17.6 0.45 L17.55 0.5 17.5 0.5 17.15 0.6 Q16.45 0.6 15.95 -1.1 L14.5 -5.85 14.4 -6.05 14.35 -6.25 Q13.8 -8.2 14.0 -9.45 L14.05 -9.6 Q9.85 -5.9 1.15 -5.45 -7.55 -4.9 -14.4 -9.15 -14.45 -9.9 -14.8 -10.4 L-15.0 -10.85 -14.8 -10.4 Q-14.45 -9.9 -14.4 -9.15 -14.3 -7.9 -14.9 -6.05 L-14.95 -5.85 -16.45 -1.1 Q-16.95 0.6 -17.65 0.6 -18.1 -2.95 -17.7 -6.05 -17.2 -10.5 -15.0 -10.85 -15.8 -11.75 -17.0 -11.4 L-18.15 -10.6 Q-21.1 -11.8 -24.1 -13.45 -25.8 -15.7 -26.55 -18.25 -11.85 -7.95 1.5 -13.3 14.8 -18.6 15.0 -26.4 15.25 -34.2 8.65 -39.15 L11.05 -39.5 11.2 -39.55 11.8 -39.65 Q24.7 -31.7 22.2 -21.6 L21.2 -17.8 Q21.05 -16.65 19.95 -14.9 18.9 -13.15 16.8 -11.4 L16.65 -11.3 16.6 -11.3 16.5 -11.4 16.2 -11.45 Q15.3 -11.6 14.65 -10.9 16.95 -10.2 17.55 -5.25 17.85 -2.3 17.6 0.45 M14.65 -10.9 L14.3 -10.4 14.05 -9.6 14.3 -10.4 14.65 -10.9" fill="#2a2725" fill-rule="evenodd" stroke="none"/>
      <path d="M-20.8 -35.3 L-19.0 -37.65 -17.1 -39.2 Q-16.75 -39.2 -17.65 -35.5 L-17.95 -34.4 Q-17.8 -33.8 -18.4 -33.55 -19.05 -33.35 -20.05 -33.85 -21.0 -34.4 -20.8 -35.3 M-20.5 -27.75 Q-22.25 -24.4 -21.0 -19.7 -19.85 -15.05 -21.65 -17.15 -23.5 -19.35 -24.2 -22.85 -25.0 -26.3 -23.7 -29.8 -22.4 -33.25 -20.75 -32.2 -19.05 -31.1 -19.4 -30.25 L-20.5 -27.75" fill="#484644" fill-rule="evenodd" stroke="none"/>
      <path d="M-19.1 -8.55 L-20.35 -9.55 Q-22.6 -11.35 -24.1 -13.45 -21.1 -11.8 -18.15 -10.6 L-18.9 -9.15 -19.1 -8.55" fill="#1c1815" fill-rule="evenodd" stroke="none"/>
      <path d="M18.45 -8.9 L18.55 -8.55 18.85 -5.15 Q18.85 -2.8 18.35 -1.1 18.05 0.05 17.6 0.45 17.85 -2.3 17.55 -5.25 16.95 -10.2 14.65 -10.9 15.3 -11.6 16.2 -11.45 L16.5 -11.4 16.6 -11.3 16.65 -11.3 16.7 -11.3 Q17.9 -10.8 18.35 -9.15 L18.45 -8.9 M-17.65 0.6 Q-18.4 0.6 -18.9 -1.1 -19.4 -2.8 -19.4 -5.15 L-19.1 -8.55 -18.9 -9.15 -18.15 -10.6 -17.0 -11.4 Q-15.8 -11.75 -15.0 -10.85 -17.2 -10.5 -17.7 -6.05 -18.1 -2.95 -17.65 0.6" fill="#332e2b" fill-rule="evenodd" stroke="none"/>
      <path d="M18.95 -41.45 L21.7 -39.0 23.0 -37.55 23.35 -37.15 23.55 -36.95 Q25.4 -34.45 26.45 -31.7 27.4 -29.2 27.5 -26.45 28.05 -17.6 20.0 -10.25 L18.45 -8.9 18.55 -8.55 18.85 -5.15 Q18.85 -2.8 18.35 -1.1 18.05 0.05 17.6 0.45 L17.55 0.5 17.5 0.5 17.15 0.6 Q16.45 0.6 15.95 -1.1 L14.5 -5.85 14.4 -6.05 14.35 -6.25 Q9.05 -3.5 2.4 -3.0 L1.9 -0.8 Q1.55 0.4 0.85 0.55 0.15 0.6 -0.3 -0.6 L-1.05 -3.0 Q-8.9 -3.15 -14.9 -6.05 L-14.95 -5.85 -16.45 -1.1 Q-16.95 0.6 -17.65 0.6 -18.4 0.6 -18.9 -1.1 -19.4 -2.8 -19.4 -5.15 L-19.1 -8.55 -20.35 -9.55 Q-22.6 -11.35 -24.1 -13.45 L-24.95 -13.55 M-26.55 -18.25 Q-25.8 -15.7 -24.1 -13.45 M-18.15 -10.6 L-17.0 -11.4 Q-15.8 -11.75 -15.0 -10.85 L-14.8 -10.4 Q-14.45 -9.9 -14.4 -9.15 -14.3 -7.9 -14.9 -6.05 M14.05 -9.6 L14.3 -10.4 14.65 -10.9 Q15.3 -11.6 16.2 -11.45 L16.5 -11.4 16.6 -11.3 16.65 -11.3 16.7 -11.3 16.8 -11.4 M-24.95 -34.05 Q-22.95 -38.1 -19.25 -41.3 L-19.15 -41.35 M-25.05 -33.85 L-24.95 -34.05 -25.0 -34.0 -25.05 -33.85 -25.75 -32.4 Q-27.05 -29.15 -27.4 -25.4 -27.65 -21.55 -26.55 -18.25 M-19.1 -8.55 L-18.9 -9.15 -18.15 -10.6 M18.45 -8.9 L18.35 -9.15 Q17.9 -10.8 16.7 -11.3 M14.05 -9.6 L14.0 -9.45 Q13.8 -8.2 14.35 -6.25 M2.4 -3.0 L-0.3 -3.0 -1.05 -3.0" fill="none" stroke="#000000" stroke-linecap="round" stroke-linejoin="round" stroke-opacity="0.4" stroke-width="0.30000000000000004"/>
      <path d="M25.65 -33.5 Q26.4 -31.3 26.1 -29.25 25.8 -27.2 23.9 -24.05 21.95 -20.95 19.6 -19.7 17.2 -18.5 12.3 -18.5 1.25 -18.5 -8.55 -24.4 -18.4 -30.3 -21.9 -38.25 -18.95 -37.25 -18.25 -37.35 -17.9 -35.0 -15.9 -33.1 -2.5 -20.25 15.45 -22.15 22.65 -23.05 23.8 -29.35 24.9 -35.7 25.65 -33.5" fill="#000000" fill-opacity="0.3019608" fill-rule="evenodd" stroke="none"/>
      <path d="M14.4 -20.8 L7.15 -21.0 Q2.8 -21.6 -1.5 -22.85 -7.4 -24.5 -12.3 -28.1 -16.95 -31.45 -20.15 -36.0 L-20.6 -37.1 Q-19.2 -38.4 -17.75 -36.35 -15.35 -32.85 -12.0 -30.4 -7.95 -27.45 -3.05 -25.95 1.8 -24.45 6.75 -23.6 L15.3 -23.35 15.4 -22.8 Q15.4 -21.7 14.4 -20.8" fill="#332e2b" fill-rule="evenodd" stroke="none"/>
      <path d="M22.85 -27.6 Q23.75 -29.9 23.9 -32.25 24.05 -34.95 22.5 -38.3 23.85 -38.65 24.65 -37.6 28.0 -30.7 23.2 -24.4 23.7 -25.25 23.7 -25.95 23.7 -27.25 22.85 -27.6" fill="#22201f" fill-rule="evenodd" stroke="none"/>
      <path d="M15.3 -23.35 L16.75 -23.55 Q21.5 -24.45 22.6 -27.0 L22.85 -27.6 Q23.7 -27.25 23.7 -25.95 23.7 -25.25 23.2 -24.4 21.65 -22.4 19.15 -21.65 L14.4 -20.8 Q15.4 -21.7 15.4 -22.8 L15.3 -23.35" fill="#2a2725" fill-rule="evenodd" stroke="none"/>
      <path d="M14.4 -20.8 L7.15 -21.0 Q2.8 -21.6 -1.5 -22.85 -7.4 -24.5 -12.3 -28.1 -16.95 -31.45 -20.15 -36.0 L-20.6 -37.1 Q-19.2 -38.4 -17.75 -36.35 -15.35 -32.85 -12.0 -30.4 -7.95 -27.45 -3.05 -25.95 1.8 -24.45 6.75 -23.6 L15.3 -23.35 16.75 -23.55 Q21.5 -24.45 22.6 -27.0 L22.85 -27.6 Q23.75 -29.9 23.9 -32.25 24.05 -34.95 22.5 -38.3 23.85 -38.65 24.65 -37.6 28.0 -30.7 23.2 -24.4 21.65 -22.4 19.15 -21.65 L14.4 -20.8 Z" fill="none" stroke="#000000" stroke-linecap="round" stroke-linejoin="round" stroke-opacity="0.4" stroke-width="0.30000000000000004"/>
      <path d="M-15.8 -39.75 L-15.05 -39.35 Q-15.6 -38.4 -16.7 -37.55 -17.95 -36.6 -18.95 -36.6 L-20.25 -36.75 -20.05 -36.75 Q-18.4 -36.75 -16.5 -38.9 L-15.8 -39.75 M-20.7 -41.8 L-19.95 -40.95 -20.9 -39.45 -20.85 -38.75 -20.7 -38.55 -20.8 -38.55 -21.25 -38.95 -21.5 -39.7 -21.05 -41.3 -20.7 -41.8" fill="#171514" fill-rule="evenodd" stroke="none"/>
      <path d="M-20.25 -36.75 Q-21.4 -37.05 -22.05 -37.9 -22.65 -38.7 -22.65 -39.35 -22.65 -40.75 -21.65 -41.55 -21.15 -41.95 -20.7 -41.8 L-21.05 -41.3 -21.5 -39.7 -21.25 -38.95 -20.8 -38.55 -20.7 -38.55 -20.45 -38.4 -19.8 -38.3 Q-18.25 -38.3 -17.6 -39.15 L-16.6 -40.0 -15.8 -39.75 -16.5 -38.9 Q-18.4 -36.75 -20.05 -36.75 L-20.25 -36.75" fill="#332e2b" fill-rule="evenodd" stroke="none"/>
      <path d="M-15.8 -39.75 L-15.05 -39.35 Q-15.6 -38.4 -16.7 -37.55 -17.95 -36.6 -18.95 -36.6 L-20.25 -36.75 Q-21.4 -37.05 -22.05 -37.9 -22.65 -38.7 -22.65 -39.35 -22.65 -40.75 -21.65 -41.55 -21.15 -41.95 -20.7 -41.8 L-19.95 -40.95 -20.9 -39.45 -20.85 -38.75 -20.7 -38.55 M-20.45 -38.4 L-19.8 -38.3 Q-18.25 -38.3 -17.6 -39.15 L-16.6 -40.0 -15.8 -39.75 Z" fill="none" stroke="#000000" stroke-linecap="round" stroke-linejoin="round" stroke-opacity="0.4" stroke-width="0.30000000000000004"/>
      <path d="M-23.3 -45.45 L-23.3 -45.6 -22.75 -46.15 Q-22.2 -46.7 -15.45 -47.75 L1.4 -48.7 17.95 -47.45 Q24.3 -46.25 24.7 -45.0 23.7 -44.25 20.8 -43.55 7.9 -46.55 -4.55 -45.95 -17.05 -45.4 -20.65 -43.85 L-20.7 -43.85 Q-23.05 -44.8 -23.3 -45.45" fill="#231f1d" fill-rule="evenodd" stroke="none"/>
      <path d="M24.7 -45.0 Q24.4 -44.05 22.6 -42.4 20.8 -40.75 16.6 -39.55 12.4 -38.35 5.75 -38.3 -1.0 -38.25 -5.6 -38.45 L-13.3 -38.95 Q-16.4 -39.25 -19.1 -40.55 -21.85 -41.9 -22.4 -42.8 -23.0 -43.75 -23.3 -45.45 -23.05 -44.8 -20.7 -43.85 L-20.65 -43.85 -17.05 -43.2 -11.4 -42.5 Q-8.9 -42.3 0.55 -42.25 L15.8 -42.7 16.45 -42.75 20.8 -43.55 Q23.7 -44.25 24.7 -45.0 M-20.7 -43.85 L-20.65 -43.85 -20.7 -43.85" fill="#332e2b" fill-rule="evenodd" stroke="none"/>
      <path d="M-20.65 -43.85 Q-17.05 -45.4 -4.55 -45.95 7.9 -46.55 20.8 -43.55 L16.45 -42.75 15.8 -42.7 0.55 -42.25 Q-8.9 -42.3 -11.4 -42.5 L-17.05 -43.2 -20.65 -43.85" fill="#171514" fill-rule="evenodd" stroke="none"/>
      <path d="M-23.3 -45.45 L-23.3 -45.6 -22.75 -46.15 Q-22.2 -46.7 -15.45 -47.75 L1.4 -48.7 17.95 -47.45 Q24.3 -46.25 24.7 -45.0 24.4 -44.05 22.6 -42.4 20.8 -40.75 16.6 -39.55 12.4 -38.35 5.75 -38.3 -1.0 -38.25 -5.6 -38.45 L-13.3 -38.95 Q-16.4 -39.25 -19.1 -40.55 -21.85 -41.9 -22.4 -42.8 -23.0 -43.75 -23.3 -45.45 -23.05 -44.8 -20.7 -43.85 L-20.65 -43.85 Q-17.05 -45.4 -4.55 -45.95 7.9 -46.55 20.8 -43.55 23.7 -44.25 24.7 -45.0 M20.8 -43.55 L16.45 -42.75 15.8 -42.7 0.55 -42.25 Q-8.9 -42.3 -11.4 -42.5 L-17.05 -43.2 -20.65 -43.85 -20.7 -43.85" fill="none" stroke="#000000" stroke-linecap="round" stroke-linejoin="round" stroke-opacity="0.4" stroke-width="0.30000000000000004"/>
      <path d="M18.25 -57.7 Q19.1 -57.85 18.5 -58.35 17.85 -58.85 16.9 -58.8 15.95 -58.75 15.35 -58.25 14.7 -57.75 14.7 -57.15 14.7 -56.65 15.05 -56.7 L16.0 -57.3 Q16.6 -57.9 17.0 -57.7 L18.25 -57.7 M18.9 -58.55 Q19.65 -57.7 19.65 -56.5 19.65 -55.25 18.9 -54.35 18.1 -53.55 17.0 -53.55 15.85 -53.55 15.05 -54.35 14.25 -55.25 14.25 -56.5 14.25 -57.7 15.05 -58.55 15.85 -59.4 17.0 -59.4 18.1 -59.4 18.9 -58.55 M13.05 -54.15 Q12.7 -54.6 12.15 -54.6 11.55 -54.6 11.25 -54.15 10.75 -53.8 10.75 -53.25 10.75 -52.65 11.05 -52.7 L11.6 -53.4 12.0 -53.8 12.7 -53.75 Q13.35 -53.85 13.05 -54.15 M13.65 -51.4 Q13.05 -50.75 12.25 -50.75 11.45 -50.75 10.85 -51.4 10.3 -52.0 10.3 -52.8 10.3 -53.7 10.85 -54.3 11.45 -54.9 12.25 -54.9 13.05 -54.9 13.65 -54.3 14.2 -53.7 14.2 -52.8 14.2 -52.0 13.65 -51.4 M8.95 -51.65 Q8.95 -51.05 8.6 -50.7 8.25 -50.3 7.8 -50.3 7.25 -50.3 6.9 -50.7 6.55 -51.05 6.55 -51.65 6.55 -52.15 6.9 -52.55 7.25 -52.9 7.8 -52.9 8.25 -52.9 8.6 -52.55 L8.95 -51.65 M11.65 -47.0 L11.3 -46.4 Q11.0 -46.0 10.5 -46.0 10.0 -46.0 9.6 -46.4 L9.55 -46.55 Q9.85 -46.3 10.25 -46.3 10.7 -46.3 11.1 -46.6 11.4 -46.8 11.4 -47.15 L11.1 -47.65 Q10.7 -47.9 10.7 -47.55 L9.9 -46.75 9.55 -46.6 Q9.3 -46.9 9.3 -47.35 9.3 -47.85 9.6 -48.3 10.0 -48.7 10.5 -48.7 11.0 -48.7 11.3 -48.3 L11.7 -47.35 11.65 -47.0 M7.5 -48.4 L8.2 -48.15 8.55 -47.4 Q8.55 -46.95 8.2 -46.65 L7.95 -46.4 8.2 -45.8 8.6 -45.85 Q9.3 -45.85 9.7 -45.4 10.15 -45.05 10.2 -44.5 L10.7 -44.25 11.15 -44.45 11.9 -44.7 12.55 -44.45 12.95 -43.65 12.75 -43.1 12.95 -43.1 13.4 -42.9 13.55 -42.5 11.3 -42.35 0.95 -42.0 -10.65 -42.5 -13.5 -43.05 Q-13.75 -44.5 -12.2 -44.6 -11.25 -47.15 -9.15 -46.1 -8.9 -47.6 -7.4 -47.4 L-7.6 -48.1 Q-7.55 -48.9 -6.95 -49.15 L-5.8 -48.95 -5.75 -48.95 -5.7 -48.85 Q-5.35 -48.5 -5.5 -47.7 L-4.5 -46.9 -3.75 -47.5 Q-4.0 -48.2 -3.75 -48.7 -3.15 -49.55 -2.15 -49.25 L-1.05 -48.8 Q-0.8 -48.5 -0.8 -47.5 0.25 -48.2 1.15 -46.75 L1.45 -45.8 Q2.0 -47.1 2.55 -47.45 L3.0 -47.7 3.5 -47.75 4.6 -47.3 5.05 -46.55 5.2 -46.75 Q5.7 -47.35 6.45 -47.35 L6.45 -47.4 6.75 -48.15 6.95 -48.25 7.45 -48.4 7.5 -48.4 M7.8 -47.95 L7.4 -48.2 7.05 -47.95 6.85 -47.4 Q6.85 -47.05 6.95 -47.15 L7.2 -47.5 7.35 -47.7 7.65 -47.7 Q7.9 -47.75 7.8 -47.95 M15.7 -50.1 Q16.35 -49.35 16.35 -48.4 16.35 -47.45 15.7 -46.75 15.1 -46.05 14.2 -46.05 13.35 -46.05 12.75 -46.75 12.15 -47.45 12.15 -48.4 12.15 -49.35 12.75 -50.1 13.35 -50.75 14.2 -50.75 15.1 -50.75 15.7 -50.1 M15.4 -48.4 Q14.9 -48.75 14.85 -48.2 14.8 -47.65 13.75 -47.0 L13.05 -46.75 Q13.6 -46.35 14.2 -46.35 14.9 -46.35 15.4 -46.75 15.95 -47.05 15.95 -47.55 15.95 -48.0 15.4 -48.4 M14.95 -49.85 Q14.65 -50.25 14.1 -50.25 13.55 -50.25 13.15 -49.85 12.75 -49.45 12.75 -48.9 12.75 -48.35 13.0 -48.4 L13.6 -49.05 13.95 -49.45 14.65 -49.4 Q15.35 -49.5 14.95 -49.85 M18.5 -56.4 Q18.05 -56.7 18.0 -56.15 17.95 -55.6 16.85 -55.0 L16.2 -54.75 Q16.65 -54.3 17.35 -54.3 18.05 -54.3 18.5 -54.75 19.05 -55.05 19.05 -55.5 19.05 -56.0 18.5 -56.4 M-0.7 -58.05 Q-0.05 -57.3 -0.05 -56.4 -0.05 -55.75 -0.4 -55.1 -0.85 -54.05 -1.9 -54.0 -4.4 -53.85 -4.4 -56.4 -4.4 -57.3 -3.75 -58.05 -3.1 -58.7 -2.2 -58.7 -1.35 -58.7 -0.7 -58.05 M-11.05 -60.35 Q-10.6 -60.55 -11.0 -60.8 L-12.05 -61.1 Q-12.6 -61.1 -12.95 -60.7 -13.35 -60.35 -13.35 -59.75 -13.35 -59.2 -13.15 -59.25 L-12.5 -59.9 Q-12.1 -60.35 -11.8 -60.25 L-11.05 -60.35 M-1.4 -58.0 L-2.35 -58.3 Q-2.95 -58.3 -3.3 -57.95 -3.75 -57.55 -3.75 -56.95 -3.75 -56.45 -3.45 -56.5 L-2.9 -57.1 Q-2.55 -57.65 -2.15 -57.6 L-1.4 -57.6 Q-1.0 -57.65 -1.4 -58.0 M-11.8 -61.5 Q-10.9 -61.5 -10.25 -60.8 -9.7 -60.1 -9.7 -59.15 L-9.8 -58.2 -10.25 -57.5 Q-10.8 -56.95 -11.45 -56.8 L-11.8 -56.8 -12.45 -56.95 -13.0 -57.2 Q-13.25 -57.3 -13.55 -57.7 -13.95 -58.2 -13.95 -59.15 -13.95 -60.1 -13.3 -60.8 -12.65 -61.5 -11.8 -61.5 M-6.75 -58.9 Q-6.75 -59.2 -7.1 -59.4 -7.4 -59.7 -7.45 -59.3 -7.5 -58.95 -8.25 -58.5 -8.5 -58.35 -8.7 -58.35 L-7.95 -58.1 Q-7.4 -58.1 -7.1 -58.35 -6.75 -58.55 -6.75 -58.9 M-12.2 -58.05 Q-12.6 -57.85 -12.9 -57.75 -12.4 -57.4 -11.7 -57.4 -11.0 -57.4 -10.55 -57.75 -10.0 -58.1 -10.0 -58.55 -10.0 -59.05 -10.55 -59.4 -11.0 -59.75 -11.05 -59.2 -11.1 -58.65 -12.2 -58.05 M-8.75 -60.0 Q-8.35 -60.4 -7.9 -60.4 -7.35 -60.4 -7.05 -60.0 -6.65 -59.6 -6.65 -59.05 -6.65 -58.5 -7.05 -58.15 -7.35 -57.7 -7.9 -57.7 -8.35 -57.7 -8.75 -58.15 -9.1 -58.5 -9.1 -59.05 -9.1 -59.6 -8.75 -60.0 M-8.1 -53.5 Q-8.1 -53.95 -8.65 -54.3 -9.1 -54.7 -9.15 -54.1 -9.2 -53.6 -10.25 -52.9 L-10.95 -52.65 Q-10.5 -52.3 -9.8 -52.3 -9.1 -52.3 -8.65 -52.65 -8.1 -53.05 -8.1 -53.5 M-8.25 -52.7 Q-8.85 -52.05 -9.7 -52.05 -10.6 -52.05 -11.25 -52.7 -11.8 -53.45 -11.8 -54.35 -11.8 -55.35 -11.25 -56.05 -10.6 -56.75 -9.7 -56.75 -8.85 -56.75 -8.25 -56.05 -7.6 -55.35 -7.6 -54.35 -7.6 -53.45 -8.25 -52.7 M-9.0 -55.5 Q-8.55 -55.6 -8.9 -55.95 -9.3 -56.35 -9.85 -56.35 -10.45 -56.35 -10.8 -55.95 L-11.25 -55.0 Q-11.25 -54.45 -10.95 -54.5 L-10.4 -55.15 Q-10.05 -55.65 -9.75 -55.5 L-9.0 -55.5 M-11.95 -52.65 Q-11.95 -51.45 -12.7 -50.6 -13.5 -49.75 -14.65 -49.75 -15.75 -49.75 -16.55 -50.6 -17.3 -51.45 -17.3 -52.65 -17.3 -53.9 -16.55 -54.8 -15.75 -55.6 -14.65 -55.6 -13.5 -55.6 -12.7 -54.8 -11.95 -53.9 -11.95 -52.65 M-10.7 -47.95 L-11.1 -47.45 -11.3 -47.6 Q-10.9 -47.8 -10.9 -48.15 L-11.3 -48.7 Q-11.6 -48.95 -11.65 -48.55 -11.7 -48.2 -12.45 -47.75 -12.7 -47.6 -12.9 -47.6 L-12.85 -47.55 -13.1 -47.65 Q-13.45 -48.1 -13.45 -48.7 -13.45 -49.3 -13.05 -49.8 -12.6 -50.25 -12.05 -50.25 -11.45 -50.25 -10.95 -49.8 -10.55 -49.3 -10.55 -48.7 -10.55 -48.3 -10.7 -47.95 M-10.65 -45.9 L-11.1 -45.6 -11.3 -45.2 -11.05 -44.65 Q-10.15 -45.2 -10.15 -45.5 -10.15 -45.9 -10.65 -45.9 M-11.6 -49.25 Q-11.0 -49.35 -11.35 -49.6 -11.6 -49.95 -12.05 -49.95 -12.55 -49.95 -12.8 -49.6 -13.2 -49.3 -13.2 -48.85 -13.2 -48.4 -13.0 -48.45 L-12.5 -49.0 -12.15 -49.3 -11.6 -49.25 M-5.7 -47.9 L-5.95 -48.35 Q-6.2 -48.5 -6.2 -48.25 -6.2 -47.95 -6.7 -47.65 L-7.0 -47.55 Q-6.75 -47.35 -6.5 -47.35 L-5.95 -47.55 -5.7 -47.9 M-6.3 -48.85 Q-6.45 -49.05 -6.65 -49.05 L-7.05 -48.85 -7.25 -48.25 -7.15 -47.95 -6.85 -48.35 -6.7 -48.55 -6.45 -48.55 Q-6.2 -48.65 -6.3 -48.85 M-2.2 -50.9 L-2.4 -51.65 Q-2.4 -52.25 -2.0 -52.7 -1.55 -53.2 -1.0 -53.2 -0.4 -53.2 0.1 -52.7 0.5 -52.25 0.5 -51.65 0.5 -50.95 0.1 -50.55 L-0.2 -50.3 -1.0 -50.05 Q-1.9 -50.25 -2.2 -50.9 M1.5 -48.45 L1.25 -48.75 Q0.6 -49.4 0.6 -50.4 0.6 -51.35 1.25 -52.05 1.9 -52.7 2.75 -52.7 3.65 -52.7 4.3 -52.05 4.85 -51.35 4.85 -50.4 L4.75 -49.4 4.3 -48.75 3.1 -48.0 2.75 -48.0 2.1 -48.15 1.5 -48.45 M2.2 -55.35 Q2.6 -54.95 2.6 -54.35 2.6 -53.85 2.2 -53.5 1.9 -53.1 1.35 -53.1 0.9 -53.1 0.5 -53.5 L0.3 -53.75 0.2 -54.35 Q0.2 -54.95 0.5 -55.35 0.9 -55.7 1.35 -55.7 1.9 -55.7 2.2 -55.35 M1.95 -54.35 Q1.8 -54.6 1.75 -54.25 L1.2 -53.7 0.9 -53.6 1.4 -53.4 Q1.8 -53.4 1.95 -53.6 L2.25 -53.95 1.95 -54.35 M-1.7 -52.6 Q-2.1 -52.3 -2.1 -51.85 -2.1 -51.4 -1.9 -51.45 L-1.4 -52.0 -1.05 -52.3 -0.5 -52.25 Q0.1 -52.35 -0.25 -52.6 L-1.0 -52.9 -1.7 -52.6 M2.6 -52.1 Q2.0 -52.1 1.7 -51.75 1.25 -51.35 1.25 -50.75 1.25 -50.25 1.45 -50.3 L2.05 -50.9 2.5 -51.35 3.1 -51.25 Q3.8 -51.4 3.5 -51.75 3.1 -52.1 2.6 -52.1 M0.25 -51.15 L-0.05 -51.75 Q-0.4 -52.0 -0.45 -51.65 -0.5 -51.2 -1.25 -50.8 L-1.65 -50.65 -0.9 -50.4 -0.05 -50.65 0.25 -51.15 M-2.85 -48.5 L-3.25 -48.3 -3.4 -47.7 -3.3 -47.45 -3.1 -47.8 -2.9 -48.0 -2.7 -48.0 Q-2.35 -48.1 -2.5 -48.3 -2.7 -48.5 -2.85 -48.5 M3.95 -50.7 Q3.5 -51.0 3.45 -50.5 3.4 -49.95 2.3 -49.3 L1.65 -49.05 Q2.1 -48.7 2.8 -48.7 3.5 -48.7 3.95 -49.05 4.5 -49.35 4.5 -49.85 4.5 -50.35 3.95 -50.7 M2.55 -45.85 L3.0 -46.35 3.35 -46.7 3.85 -46.65 Q4.45 -46.75 4.2 -47.0 3.85 -47.35 3.45 -47.35 2.95 -47.35 2.65 -47.0 2.3 -46.7 2.3 -46.2 2.3 -45.8 2.55 -45.85 M-9.9 -43.4 Q-9.4 -43.4 -9.1 -43.65 -8.75 -43.85 -8.75 -44.2 -8.75 -44.5 -9.1 -44.7 -9.4 -45.0 -9.5 -44.6 -9.55 -44.25 -10.25 -43.8 L-10.7 -43.65 -9.9 -43.4 M3.4 -45.05 L2.95 -44.9 Q3.25 -44.6 3.7 -44.6 4.25 -44.6 4.55 -44.9 L4.85 -45.4 4.55 -45.95 Q4.25 -46.2 4.2 -45.85 L3.4 -45.05 M-16.75 -53.4 Q-17.3 -52.6 -16.95 -52.15 -16.7 -51.7 -16.45 -51.95 L-15.6 -53.1 -14.4 -54.3 Q-13.55 -55.05 -14.2 -55.0 -14.85 -55.05 -15.65 -54.5 L-16.75 -53.4 M12.0 -44.05 Q12.3 -44.1 12.15 -44.35 L11.85 -44.55 Q11.55 -44.55 11.4 -44.35 L11.25 -43.75 11.3 -43.5 11.55 -43.85 11.75 -44.05 12.0 -44.05" fill="#86b434" fill-rule="evenodd" stroke="none"/>
      <path d="M18.25 -57.7 L17.0 -57.7 Q16.6 -57.9 16.0 -57.3 L15.05 -56.7 Q14.7 -56.65 14.7 -57.15 14.7 -57.75 15.35 -58.25 15.95 -58.75 16.9 -58.8 17.85 -58.85 18.5 -58.35 19.1 -57.85 18.25 -57.7 M13.05 -54.15 Q13.35 -53.85 12.7 -53.75 L12.0 -53.8 11.6 -53.4 11.05 -52.7 Q10.75 -52.65 10.75 -53.25 10.75 -53.8 11.25 -54.15 11.55 -54.6 12.15 -54.6 12.7 -54.6 13.05 -54.15 M7.8 -47.95 Q7.9 -47.75 7.65 -47.7 L7.35 -47.7 7.2 -47.5 6.95 -47.15 Q6.85 -47.05 6.85 -47.4 L7.05 -47.95 7.4 -48.2 7.8 -47.95 M14.95 -49.85 Q15.35 -49.5 14.65 -49.4 L13.95 -49.45 13.6 -49.05 13.0 -48.4 Q12.75 -48.35 12.75 -48.9 12.75 -49.45 13.15 -49.85 13.55 -50.25 14.1 -50.25 14.65 -50.25 14.95 -49.85 M-1.4 -58.0 Q-1.0 -57.65 -1.4 -57.6 L-2.15 -57.6 Q-2.55 -57.65 -2.9 -57.1 L-3.45 -56.5 Q-3.75 -56.45 -3.75 -56.95 -3.75 -57.55 -3.3 -57.95 -2.95 -58.3 -2.35 -58.3 L-1.4 -58.0 M-11.05 -60.35 L-11.8 -60.25 Q-12.1 -60.35 -12.5 -59.9 L-13.15 -59.25 Q-13.35 -59.2 -13.35 -59.75 -13.35 -60.35 -12.95 -60.7 -12.6 -61.1 -12.05 -61.1 L-11.0 -60.8 Q-10.6 -60.55 -11.05 -60.35 M-9.0 -55.5 L-9.75 -55.5 Q-10.05 -55.65 -10.4 -55.15 L-10.95 -54.5 Q-11.25 -54.45 -11.25 -55.0 L-10.8 -55.95 Q-10.45 -56.35 -9.85 -56.35 -9.3 -56.35 -8.9 -55.95 -8.55 -55.6 -9.0 -55.5 M-11.6 -49.25 L-12.15 -49.3 -12.5 -49.0 -13.0 -48.45 Q-13.2 -48.4 -13.2 -48.85 -13.2 -49.3 -12.8 -49.6 -12.55 -49.95 -12.05 -49.95 -11.6 -49.95 -11.35 -49.6 -11.0 -49.35 -11.6 -49.25 M-10.65 -45.9 Q-10.15 -45.9 -10.15 -45.5 -10.15 -45.2 -11.05 -44.65 L-11.3 -45.2 -11.1 -45.6 -10.65 -45.9 M-6.3 -48.85 Q-6.2 -48.65 -6.45 -48.55 L-6.7 -48.55 -6.85 -48.35 -7.15 -47.95 -7.25 -48.25 -7.05 -48.85 -6.65 -49.05 Q-6.45 -49.05 -6.3 -48.85 M2.6 -52.1 Q3.1 -52.1 3.5 -51.75 3.8 -51.4 3.1 -51.25 L2.5 -51.35 2.05 -50.9 1.45 -50.3 Q1.25 -50.25 1.25 -50.75 1.25 -51.35 1.7 -51.75 2.0 -52.1 2.6 -52.1 M-1.7 -52.6 L-1.0 -52.9 -0.25 -52.6 Q0.1 -52.35 -0.5 -52.25 L-1.05 -52.3 -1.4 -52.0 -1.9 -51.45 Q-2.1 -51.4 -2.1 -51.85 -2.1 -52.3 -1.7 -52.6 M-2.85 -48.5 Q-2.7 -48.5 -2.5 -48.3 -2.35 -48.1 -2.7 -48.0 L-2.9 -48.0 -3.1 -47.8 -3.3 -47.45 -3.4 -47.7 -3.25 -48.3 -2.85 -48.5 M2.55 -45.85 Q2.3 -45.8 2.3 -46.2 2.3 -46.7 2.65 -47.0 2.95 -47.35 3.45 -47.35 3.85 -47.35 4.2 -47.0 4.45 -46.75 3.85 -46.65 L3.35 -46.7 3.0 -46.35 2.55 -45.85 M12.0 -44.05 L11.75 -44.05 11.55 -43.85 11.3 -43.5 11.25 -43.75 11.4 -44.35 Q11.55 -44.55 11.85 -44.55 L12.15 -44.35 Q12.3 -44.1 12.0 -44.05 M-16.75 -53.4 L-15.65 -54.5 Q-14.85 -55.05 -14.2 -55.0 -13.55 -55.05 -14.4 -54.3 L-15.6 -53.1 -16.45 -51.95 Q-16.7 -51.7 -16.95 -52.15 -17.3 -52.6 -16.75 -53.4" fill="#c9f07b" fill-rule="evenodd" stroke="none"/>
      <path d="M11.3 -48.3 Q11.0 -48.7 10.5 -48.7 10.0 -48.7 9.6 -48.3 9.3 -47.85 9.3 -47.35 9.3 -46.9 9.55 -46.6 L9.9 -46.75 10.7 -47.55 Q10.7 -47.9 11.1 -47.65 L11.4 -47.15 Q11.4 -46.8 11.1 -46.6 10.7 -46.3 10.25 -46.3 9.85 -46.3 9.55 -46.55 L9.6 -46.4 Q10.0 -46.0 10.5 -46.0 11.0 -46.0 11.3 -46.4 L11.65 -47.0 Q12.45 -46.95 13.0 -46.4 L13.65 -45.3 14.25 -45.0 14.5 -44.7 14.8 -45.2 Q15.15 -45.55 15.7 -45.55 16.25 -45.55 16.6 -45.2 L17.05 -44.25 16.8 -43.55 17.1 -43.55 18.0 -43.35 18.6 -43.15 Q18.15 -42.85 16.2 -42.65 L13.55 -42.5 13.4 -42.9 12.95 -43.1 12.75 -43.1 12.95 -43.65 12.55 -44.45 11.9 -44.7 11.15 -44.45 10.7 -44.25 10.2 -44.5 Q10.15 -45.05 9.7 -45.4 9.3 -45.85 8.6 -45.85 L8.2 -45.8 7.95 -46.4 8.2 -46.65 Q8.55 -46.95 8.55 -47.4 L8.2 -48.15 7.5 -48.4 Q8.1 -48.9 8.85 -48.9 L8.85 -48.95 Q8.85 -49.45 9.2 -49.9 9.6 -50.3 10.15 -50.3 10.7 -50.3 11.1 -49.9 L11.45 -48.95 11.3 -48.3 M4.75 -49.4 L5.05 -49.45 Q5.9 -49.45 6.5 -48.85 L6.95 -48.25 6.75 -48.15 6.45 -47.4 6.45 -47.35 Q5.7 -47.35 5.2 -46.75 L5.05 -46.55 4.6 -47.3 3.5 -47.75 3.0 -47.7 3.1 -48.0 4.3 -48.75 4.75 -49.4 M2.55 -47.45 Q2.0 -47.1 1.45 -45.8 L1.15 -46.75 Q0.25 -48.2 -0.8 -47.5 -0.8 -48.5 -1.05 -48.8 L-2.15 -49.25 Q-3.15 -49.55 -3.75 -48.7 -4.0 -48.2 -3.75 -47.5 L-4.5 -46.9 -5.5 -47.7 Q-5.35 -48.5 -5.7 -48.85 L-5.05 -48.35 Q-5.15 -49.15 -4.6 -49.95 -4.05 -50.75 -3.25 -50.75 L-2.4 -50.75 -2.2 -50.9 Q-1.9 -50.25 -1.0 -50.05 L-0.2 -50.3 -0.4 -49.1 Q0.55 -49.1 0.6 -48.35 L1.5 -48.45 2.1 -48.15 2.55 -47.45 M-5.8 -48.95 L-6.95 -49.15 Q-7.55 -48.9 -7.6 -48.1 L-7.4 -47.4 Q-8.9 -47.6 -9.15 -46.1 -11.25 -47.15 -12.2 -44.6 -13.75 -44.5 -13.5 -43.05 L-10.65 -42.5 -16.45 -43.1 Q-16.8 -45.2 -14.85 -45.4 -15.15 -47.05 -13.1 -47.65 L-12.85 -47.55 -12.9 -47.6 Q-12.7 -47.6 -12.45 -47.75 -11.7 -48.2 -11.65 -48.55 -11.6 -48.95 -11.3 -48.7 L-10.9 -48.15 Q-10.9 -47.8 -11.3 -47.6 L-11.1 -47.45 -10.7 -47.95 Q-10.0 -49.3 -8.75 -49.0 -9.2 -49.85 -8.7 -50.75 L-8.25 -51.25 Q-6.85 -51.6 -6.5 -50.5 L-6.3 -49.35 -5.8 -48.95 M15.4 -48.4 Q15.95 -48.0 15.95 -47.55 15.95 -47.05 15.4 -46.75 14.9 -46.35 14.2 -46.35 13.6 -46.35 13.05 -46.75 L13.75 -47.0 Q14.8 -47.65 14.85 -48.2 14.9 -48.75 15.4 -48.4 M18.5 -56.4 Q19.05 -56.0 19.05 -55.5 19.05 -55.05 18.5 -54.75 18.05 -54.3 17.35 -54.3 16.65 -54.3 16.2 -54.75 L16.85 -55.0 Q17.95 -55.6 18.0 -56.15 18.05 -56.7 18.5 -56.4 M-12.2 -58.05 Q-11.1 -58.65 -11.05 -59.2 -11.0 -59.75 -10.55 -59.4 -10.0 -59.05 -10.0 -58.55 -10.0 -58.1 -10.55 -57.75 -11.0 -57.4 -11.7 -57.4 -12.4 -57.4 -12.9 -57.75 -12.6 -57.85 -12.2 -58.05 M-6.75 -58.9 Q-6.75 -58.55 -7.1 -58.35 -7.4 -58.1 -7.95 -58.1 L-8.7 -58.35 Q-8.5 -58.35 -8.25 -58.5 -7.5 -58.95 -7.45 -59.3 -7.4 -59.7 -7.1 -59.4 -6.75 -59.2 -6.75 -58.9 M-8.1 -53.5 Q-8.1 -53.05 -8.65 -52.65 -9.1 -52.3 -9.8 -52.3 -10.5 -52.3 -10.95 -52.65 L-10.25 -52.9 Q-9.2 -53.6 -9.15 -54.1 -9.1 -54.7 -8.65 -54.3 -8.1 -53.95 -8.1 -53.5 M-5.7 -47.9 L-5.95 -47.55 -6.5 -47.35 Q-6.75 -47.35 -7.0 -47.55 L-6.7 -47.65 Q-6.2 -47.95 -6.2 -48.25 -6.2 -48.5 -5.95 -48.35 L-5.7 -47.9 M1.95 -54.35 L2.25 -53.95 1.95 -53.6 Q1.8 -53.4 1.4 -53.4 L0.9 -53.6 1.2 -53.7 1.75 -54.25 Q1.8 -54.6 1.95 -54.35 M0.25 -51.15 L-0.05 -50.65 -0.9 -50.4 -1.65 -50.65 -1.25 -50.8 Q-0.5 -51.2 -0.45 -51.65 -0.4 -52.0 -0.05 -51.75 L0.25 -51.15 M3.95 -50.7 Q4.5 -50.35 4.5 -49.85 4.5 -49.35 3.95 -49.05 3.5 -48.7 2.8 -48.7 2.1 -48.7 1.65 -49.05 L2.3 -49.3 Q3.4 -49.95 3.45 -50.5 3.5 -51.0 3.95 -50.7 M3.4 -45.05 L4.2 -45.85 Q4.25 -46.2 4.55 -45.95 L4.85 -45.4 4.55 -44.9 Q4.25 -44.6 3.7 -44.6 3.25 -44.6 2.95 -44.9 L3.4 -45.05 M-9.9 -43.4 L-10.7 -43.65 -10.25 -43.8 Q-9.55 -44.25 -9.5 -44.6 -9.4 -45.0 -9.1 -44.7 -8.75 -44.5 -8.75 -44.2 -8.75 -43.85 -9.1 -43.65 -9.4 -43.4 -9.9 -43.4 M-15.95 -47.3 L-16.2 -48.1 -15.95 -48.9 -15.2 -49.2 Q-14.8 -49.2 -14.45 -48.9 L-14.2 -48.1 Q-14.2 -47.6 -14.45 -47.3 -14.8 -46.95 -15.2 -46.95 -15.65 -46.95 -15.95 -47.3" fill="#709430" fill-rule="evenodd" stroke="none"/>
      <path d="M11.3 -42.35 L13.55 -42.5 M-16.45 -43.1 L-10.65 -42.5" fill="none" stroke="#000000" stroke-linecap="round" stroke-linejoin="round" stroke-opacity="0.29803923" stroke-width="0.1"/>
    </g>
    <radialGradient cx="0" cy="0" gradientTransform="matrix(0.0623, 0.0, 0.0, 0.0623, -22.8, -63.55)" gradientUnits="userSpaceOnUse" id="decoration165-gradient0" r="819.2" spreadMethod="pad">
      <stop offset="0.12941176470588237" stop-color="#4d4846"/>
      <stop offset="1.0" stop-color="#332e2b"/>
    </radialGradient>
  </defs>
</svg>
