<?xml version="1.0" encoding="UTF-8" standalone="no"?>
<svg xmlns:xlink="http://www.w3.org/1999/xlink" height="62.25px" width="55.3px" xmlns="http://www.w3.org/2000/svg">
  <g transform="matrix(1.0, 0.0, 0.0, 1.0, 27.6, 61.5)">
    <use data-characterId="241" height="49.6" transform="matrix(1.0, 0.0, 0.0, 1.0, -27.6, -48.85)" width="55.3" xlink:href="#decoration165-shape0"/>
    <use data-characterId="243" height="19.5" id="decoration165-Couleur0_86B434" filter="url(#decoration165-filter0)" transform="matrix(1.0, 0.0, 0.0, 1.0, -17.3, -61.5)" width="36.95" xlink:href="#decoration165-sprite0"/>
  </g>
  <defs>
    <g id="decoration165-shape0" transform="matrix(1.0, 0.0, 0.0, 1.0, 27.6, 48.85)">
      <path d="M18.95 -41.45 L21.7 -39.0 23.0 -37.55 23.35 -37.15 23.55 -36.95 Q25.4 -34.45 26.45 -31.7 27.4 -29.2 27.5 -26.45 28.05 -17.6 20.0 -10.25 L18.45 -8.9 18.35 -9.15 Q17.9 -10.8 16.7 -11.3 L16.8 -11.4 16.7 -11.3 16.65 -11.3 16.8 -11.4 Q18.9 -13.15 19.95 -14.9 21.05 -16.65 21.2 -17.8 L22.2 -21.6 Q24.7 -31.7 11.8 -39.65 L13.6 -40.0 17.2 -40.8 18.25 -41.15 18.95 -41.45 M14.35 -6.25 Q9.05 -3.5 2.4 -3.0 L1.9 -0.8 Q1.55 0.4 0.85 0.55 0.15 0.6 -0.3 -0.6 L-1.05 -3.0 Q-8.9 -3.15 -14.9 -6.05 -14.3 -7.9 -14.4 -9.15 -7.55 -4.9 1.15 -5.45 9.85 -5.9 14.05 -9.6 L14.0 -9.45 Q13.8 -8.2 14.35 -6.25 M-1.05 -3.0 L-0.3 -3.0 2.4 -3.0 -0.3 -3.0 -1.05 -3.0" fill="#22201f" fill-rule="evenodd" stroke="none"/>
      <path d="M17.6 0.45 L17.55 0.5 17.5 0.5 17.15 0.6 Q16.45 0.6 15.95 -1.1 L14.5 -5.85 14.4 -6.05 14.35 -6.25 Q13.8 -8.2 14.0 -9.45 L14.05 -9.6 Q9.85 -5.9 1.15 -5.45 -7.55 -4.9 -14.4 -9.15 -14.45 -9.9 -14.8 -10.4 L-15.0 -10.85 -14.8 -10.4 Q-14.45 -9.9 -14.4 -9.15 -14.3 -7.9 -14.9 -6.05 L-14.95 -5.85 -16.45 -1.1 Q-16.95 0.6 -17.65 0.6 -18.1 -2.95 -17.7 -6.05 -17.2 -10.5 -15.0 -10.85 -15.8 -11.75 -17.0 -11.4 L-18.15 -10.6 Q-21.1 -11.8 -24.1 -13.45 -25.8 -15.7 -26.55 -18.25 -11.85 -7.95 1.5 -13.3 14.8 -18.6 15.0 -26.4 15.25 -34.2 8.65 -39.15 L11.05 -39.5 11.2 -39.55 11.8 -39.65 Q24.7 -31.7 22.2 -21.6 L21.2 -17.8 Q21.05 -16.65 19.95 -14.9 18.9 -13.15 16.8 -11.4 L16.65 -11.3 16.6 -11.3 16.5 -11.4 16.2 -11.45 Q15.3 -11.6 14.65 -10.9 16.95 -10.2 17.55 -5.25 17.85 -2.3 17.6 0.45 M14.65 -10.9 L14.3 -10.4 14.05 -9.6 14.3 -10.4 14.65 -10.9" fill="#2a2725" fill-rule="evenodd" stroke="none"/>
      <path d="M-19.15 -41.35 L-18.5 -41.15 -17.3 -40.65 -14.05 -39.85 -6.6 -38.8 Q-0.25 -38.15 5.85 -38.8 L7.3 -39.0 7.8 -39.05 8.1 -39.1 8.65 -39.15 Q15.25 -34.2 15.0 -26.4 14.8 -18.6 1.5 -13.3 -11.85 -7.95 -26.55 -18.25 -27.65 -21.55 -27.4 -25.4 -27.05 -29.15 -25.75 -32.4 L-25.05 -33.85 -24.95 -34.05 Q-22.95 -38.1 -19.25 -41.3 L-19.15 -41.35 M-17.1 -39.2 L-19.0 -37.65 -20.8 -35.3 Q-21.0 -34.4 -20.05 -33.85 -19.05 -33.35 -18.4 -33.55 -17.8 -33.8 -17.95 -34.4 L-17.65 -35.5 Q-16.75 -39.2 -17.1 -39.2 M-20.75 -32.2 Q-22.4 -33.25 -23.7 -29.8 -25.0 -26.3 -24.2 -22.85 -23.5 -19.35 -21.65 -17.15 -19.85 -15.05 -21.0 -19.7 -22.25 -24.4 -20.5 -27.75 L-19.4 -30.25 Q-19.05 -31.1 -20.75 -32.2" fill="url(#decoration165-gradient0)" fill-rule="evenodd" stroke="none"/>
      <path d="M18.45 -8.9 L18.55 -8.55 18.85 -5.15 Q18.85 -2.8 18.35 -1.1 18.05 0.05 17.6 0.45 17.85 -2.3 17.55 -5.25 16.95 -10.2 14.65 -10.9 15.3 -11.6 16.2 -11.45 L16.5 -11.4 16.6 -11.3 16.65 -11.3 16.7 -11.3 Q17.9 -10.8 18.35 -9.15 L18.45 -8.9 M-17.65 0.6 Q-18.4 0.6 -18.9 -1.1 -19.4 -2.8 -19.4 -5.15 L-19.1 -8.55 -18.9 -9.15 -18.15 -10.6 -17.0 -11.4 Q-15.8 -11.75 -15.0 -10.85 -17.2 -10.5 -17.7 -6.05 -18.1 -2.95 -17.65 0.6" fill="#332e2b" fill-rule="evenodd" stroke="none"/>
      <path d="M-17.1 -39.2 Q-16.75 -39.2 -17.65 -35.5 L-17.95 -34.4 Q-17.8 -33.8 -18.4 -33.55 -19.05 -33.35 -20.05 -33.85 -21.0 -34.4 -20.8 -35.3 L-19.0 -37.65 -17.1 -39.2 M-20.75 -32.2 Q-19.05 -31.1 -19.4 -30.25 L-20.5 -27.75 Q-22.25 -24.4 -21.0 -19.7 -19.85 -15.05 -21.65 -17.15 -23.5 -19.35 -24.2 -22.85 -25.0 -26.3 -23.7 -29.8 -22.4 -33.25 -20.75 -32.2" fill="#484644" fill-rule="evenodd" stroke="none"/>
      <path d="M-19.1 -8.55 L-20.35 -9.55 Q-22.6 -11.35 -24.1 -13.45 -21.1 -11.8 -18.15 -10.6 L-18.9 -9.15 -19.1 -8.55" fill="#1c1815" fill-rule="evenodd" stroke="none"/>
      <path d="M18.95 -41.45 L21.7 -39.0 23.0 -37.55 23.35 -37.15 23.55 -36.95 Q25.4 -34.45 26.45 -31.7 27.4 -29.2 27.5 -26.45 28.05 -17.6 20.0 -10.25 L18.45 -8.9 18.55 -8.55 18.85 -5.15 Q18.85 -2.8 18.35 -1.1 18.05 0.05 17.6 0.45 L17.55 0.5 17.5 0.5 17.15 0.6 Q16.45 0.6 15.95 -1.1 L14.5 -5.85 14.4 -6.05 14.35 -6.25 Q9.05 -3.5 2.4 -3.0 L1.9 -0.8 Q1.55 0.4 0.85 0.55 0.15 0.6 -0.3 -0.6 L-1.05 -3.0 Q-8.9 -3.15 -14.9 -6.05 L-14.95 -5.85 -16.45 -1.1 Q-16.95 0.6 -17.65 0.6 -18.4 0.6 -18.9 -1.1 -19.4 -2.8 -19.4 -5.15 L-19.1 -8.55 -20.35 -9.55 Q-22.6 -11.35 -24.1 -13.45 L-24.95 -13.55 M16.8 -11.4 L16.7 -11.3 Q17.9 -10.8 18.35 -9.15 L18.45 -8.9 M-26.55 -18.25 Q-25.8 -15.7 -24.1 -13.45 M-18.15 -10.6 L-17.0 -11.4 Q-15.8 -11.75 -15.0 -10.85 L-14.8 -10.4 Q-14.45 -9.9 -14.4 -9.15 -14.3 -7.9 -14.9 -6.05 M14.05 -9.6 L14.3 -10.4 14.65 -10.9 Q15.3 -11.6 16.2 -11.45 L16.5 -11.4 16.6 -11.3 16.65 -11.3 16.7 -11.3 M14.05 -9.6 L14.0 -9.45 Q13.8 -8.2 14.35 -6.25 M-24.95 -34.05 Q-22.95 -38.1 -19.25 -41.3 L-19.15 -41.35 M-26.55 -18.25 Q-27.65 -21.55 -27.4 -25.4 -27.05 -29.15 -25.75 -32.4 L-25.05 -33.85 -25.0 -34.0 -24.95 -34.05 -25.05 -33.85 M-19.1 -8.55 L-18.9 -9.15 -18.15 -10.6 M2.4 -3.0 L-0.3 -3.0 -1.05 -3.0" fill="none" stroke="#000000" stroke-linecap="round" stroke-linejoin="round" stroke-opacity="0.4" stroke-width="0.30000000000000004"/>
      <path d="M19.6 -19.7 Q17.2 -18.5 12.3 -18.5 1.25 -18.5 -8.55 -24.4 -18.4 -30.3 -21.9 -38.25 -18.95 -37.25 -18.25 -37.35 -17.9 -35.0 -15.9 -33.1 -2.5 -20.25 15.45 -22.15 22.65 -23.05 23.8 -29.35 24.9 -35.7 25.65 -33.5 26.4 -31.3 26.1 -29.25 25.8 -27.2 23.9 -24.05 21.95 -20.95 19.6 -19.7" fill="#000000" fill-opacity="0.3019608" fill-rule="evenodd" stroke="none"/>
      <path d="M23.2 -24.4 Q23.7 -25.25 23.7 -25.95 23.7 -27.25 22.85 -27.6 23.75 -29.9 23.9 -32.25 24.05 -34.95 22.5 -38.3 23.85 -38.65 24.65 -37.6 28.0 -30.7 23.2 -24.4" fill="#22201f" fill-rule="evenodd" stroke="none"/>
      <path d="M22.85 -27.6 Q23.7 -27.25 23.7 -25.95 23.7 -25.25 23.2 -24.4 21.65 -22.4 19.15 -21.65 L14.4 -20.8 Q15.4 -21.7 15.4 -22.8 L15.3 -23.35 16.75 -23.55 Q21.5 -24.45 22.6 -27.0 L22.85 -27.6" fill="#2a2725" fill-rule="evenodd" stroke="none"/>
      <path d="M15.3 -23.35 L15.4 -22.8 Q15.4 -21.7 14.4 -20.8 L7.15 -21.0 Q2.8 -21.6 -1.5 -22.85 -7.4 -24.5 -12.3 -28.1 -16.95 -31.45 -20.15 -36.0 L-20.6 -37.1 Q-19.2 -38.4 -17.75 -36.35 -15.35 -32.85 -12.0 -30.4 -7.95 -27.45 -3.05 -25.95 1.8 -24.45 6.75 -23.6 L15.3 -23.35" fill="#332e2b" fill-rule="evenodd" stroke="none"/>
      <path d="M23.2 -24.4 Q28.0 -30.7 24.65 -37.6 23.85 -38.65 22.5 -38.3 24.05 -34.95 23.9 -32.25 23.75 -29.9 22.85 -27.6 L22.6 -27.0 Q21.5 -24.45 16.75 -23.55 L15.3 -23.35 6.75 -23.6 Q1.8 -24.45 -3.05 -25.95 -7.95 -27.45 -12.0 -30.4 -15.35 -32.85 -17.75 -36.35 -19.2 -38.4 -20.6 -37.1 L-20.15 -36.0 Q-16.95 -31.45 -12.3 -28.1 -7.4 -24.5 -1.5 -22.85 2.8 -21.6 7.15 -21.0 L14.4 -20.8 19.15 -21.65 Q21.65 -22.4 23.2 -24.4 Z" fill="none" stroke="#000000" stroke-linecap="round" stroke-linejoin="round" stroke-opacity="0.4" stroke-width="0.30000000000000004"/>
      <path d="M-20.45 -38.4 L-19.8 -38.3 Q-18.25 -38.3 -17.6 -39.15 L-16.6 -40.0 -15.8 -39.75 -16.5 -38.9 Q-18.4 -36.75 -20.05 -36.75 L-20.25 -36.75 Q-21.4 -37.05 -22.05 -37.9 -22.65 -38.7 -22.65 -39.35 -22.65 -40.75 -21.65 -41.55 -21.15 -41.95 -20.7 -41.8 L-21.05 -41.3 -21.5 -39.7 -21.25 -38.95 -20.8 -38.55 -20.7 -38.55 -20.45 -38.4" fill="#332e2b" fill-rule="evenodd" stroke="none"/>
      <path d="M-15.8 -39.75 L-15.05 -39.35 Q-15.6 -38.4 -16.7 -37.55 -17.95 -36.6 -18.95 -36.6 L-20.25 -36.75 -20.05 -36.75 Q-18.4 -36.75 -16.5 -38.9 L-15.8 -39.75 M-20.7 -41.8 L-19.95 -40.95 -20.9 -39.45 -20.85 -38.75 -20.7 -38.55 -20.8 -38.55 -21.25 -38.95 -21.5 -39.7 -21.05 -41.3 -20.7 -41.8" fill="#171514" fill-rule="evenodd" stroke="none"/>
      <path d="M-20.45 -38.4 L-19.8 -38.3 Q-18.25 -38.3 -17.6 -39.15 L-16.6 -40.0 -15.8 -39.75 -15.05 -39.35 Q-15.6 -38.4 -16.7 -37.55 -17.95 -36.6 -18.95 -36.6 L-20.25 -36.75 Q-21.4 -37.05 -22.05 -37.9 -22.65 -38.7 -22.65 -39.35 -22.65 -40.75 -21.65 -41.55 -21.15 -41.95 -20.7 -41.8 L-19.95 -40.95 -20.9 -39.45 -20.85 -38.75 -20.7 -38.55" fill="none" stroke="#000000" stroke-linecap="round" stroke-linejoin="round" stroke-opacity="0.4" stroke-width="0.30000000000000004"/>
      <path d="M24.7 -45.0 Q24.4 -44.05 22.6 -42.4 20.8 -40.75 16.6 -39.55 12.4 -38.35 5.75 -38.3 -1.0 -38.25 -5.6 -38.45 L-13.3 -38.95 Q-16.4 -39.25 -19.1 -40.55 -21.85 -41.9 -22.4 -42.8 -23.0 -43.75 -23.3 -45.45 -23.05 -44.8 -20.7 -43.85 L-20.65 -43.85 -17.05 -43.2 -11.4 -42.5 Q-8.9 -42.3 0.55 -42.25 L15.8 -42.7 16.45 -42.75 20.8 -43.55 Q23.7 -44.25 24.7 -45.0" fill="#332e2b" fill-rule="evenodd" stroke="none"/>
      <path d="M-23.3 -45.45 L-23.3 -45.6 -22.75 -46.15 Q-22.2 -46.7 -15.45 -47.75 L1.4 -48.7 17.95 -47.45 Q24.3 -46.25 24.7 -45.0 23.7 -44.25 20.8 -43.55 7.9 -46.55 -4.55 -45.95 -17.05 -45.4 -20.65 -43.85 L-20.7 -43.85 Q-23.05 -44.8 -23.3 -45.45" fill="#231f1d" fill-rule="evenodd" stroke="none"/>
      <path d="M20.8 -43.55 L16.45 -42.75 15.8 -42.7 0.55 -42.25 Q-8.9 -42.3 -11.4 -42.5 L-17.05 -43.2 -20.65 -43.85 Q-17.05 -45.4 -4.55 -45.95 7.9 -46.55 20.8 -43.55" fill="#171514" fill-rule="evenodd" stroke="none"/>
      <path d="M24.7 -45.0 Q24.4 -44.05 22.6 -42.4 20.8 -40.75 16.6 -39.55 12.4 -38.35 5.75 -38.3 -1.0 -38.25 -5.6 -38.45 L-13.3 -38.95 Q-16.4 -39.25 -19.1 -40.55 -21.85 -41.9 -22.4 -42.8 -23.0 -43.75 -23.3 -45.45 L-23.3 -45.6 -22.75 -46.15 Q-22.2 -46.7 -15.45 -47.75 L1.4 -48.7 17.95 -47.45 Q24.3 -46.25 24.7 -45.0 23.7 -44.25 20.8 -43.55 L16.45 -42.75 15.8 -42.7 0.55 -42.25 Q-8.9 -42.3 -11.4 -42.5 L-17.05 -43.2 -20.65 -43.85 -20.7 -43.85 Q-23.05 -44.8 -23.3 -45.45 M-20.65 -43.85 Q-17.05 -45.4 -4.55 -45.95 7.9 -46.55 20.8 -43.55" fill="none" stroke="#000000" stroke-linecap="round" stroke-linejoin="round" stroke-opacity="0.4" stroke-width="0.30000000000000004"/>
    </g>
    <radialGradient cx="0" cy="0" gradientTransform="matrix(0.0623, 0.0, 0.0, 0.0623, -22.8, -63.55)" gradientUnits="userSpaceOnUse" id="decoration165-gradient0" r="819.2" spreadMethod="pad">
      <stop offset="0.12941176470588237" stop-color="#4d4846"/>
      <stop offset="1.0" stop-color="#332e2b"/>
    </radialGradient>
    <g id="decoration165-sprite0" transform="matrix(1.0, 0.0, 0.0, 1.0, 0.0, 0.0)">
      <use data-characterId="242" height="19.5" transform="matrix(1.0, 0.0, 0.0, 1.0, 0.0, 0.0)" width="36.95" xlink:href="#decoration165-shape1"/>
    </g>
    <g id="decoration165-shape1" transform="matrix(1.0, 0.0, 0.0, 1.0, 0.0, 0.0)">
      <path d="M36.35 6.0 Q36.35 5.5 35.8 5.1 35.35 4.8 35.3 5.35 35.25 5.9 34.15 6.5 L33.5 6.75 Q33.95 7.2 34.65 7.2 35.35 7.2 35.8 6.75 36.35 6.45 36.35 6.0 M36.95 5.0 Q36.95 6.25 36.2 7.15 35.4 7.95 34.3 7.95 33.15 7.95 32.35 7.15 31.55 6.25 31.55 5.0 31.55 3.8 32.35 2.95 33.15 2.1 34.3 2.1 35.4 2.1 36.2 2.95 36.95 3.8 36.95 5.0 M35.55 3.8 Q36.4 3.65 35.8 3.15 35.15 2.65 34.2 2.7 33.25 2.75 32.65 3.25 32.0 3.75 32.0 4.35 32.0 4.85 32.35 4.8 L33.3 4.2 Q33.9 3.6 34.3 3.8 L35.55 3.8 M31.5 8.7 Q31.5 9.5 30.95 10.1 30.35 10.75 29.55 10.75 28.75 10.75 28.15 10.1 27.6 9.5 27.6 8.7 27.6 7.8 28.15 7.2 28.75 6.6 29.55 6.6 30.35 6.6 30.95 7.2 31.5 7.8 31.5 8.7 M31.4 11.25 Q30.85 11.25 30.45 11.65 30.05 12.05 30.05 12.6 30.05 13.15 30.3 13.1 L30.9 12.45 31.25 12.05 31.95 12.1 Q32.65 12.0 32.25 11.65 31.95 11.25 31.4 11.25 M33.0 11.4 Q33.65 12.15 33.65 13.1 33.65 14.05 33.0 14.75 32.4 15.45 31.5 15.45 30.65 15.45 30.05 14.75 29.45 14.05 29.45 13.1 29.45 12.15 30.05 11.4 30.65 10.75 31.5 10.75 32.4 10.75 33.0 11.4 M21.8 11.65 Q21.8 11.15 21.25 10.8 20.8 10.5 20.75 11.0 20.7 11.55 19.6 12.2 L18.95 12.45 20.1 12.8 Q20.8 12.8 21.25 12.45 21.8 12.15 21.8 11.65 M24.25 13.25 L24.75 13.1 24.8 13.1 Q25.2 13.1 25.5 13.35 L25.85 14.1 25.5 14.85 25.25 15.1 25.5 15.7 25.9 15.65 Q26.6 15.65 27.0 16.1 27.45 16.45 27.5 17.0 27.85 17.0 28.0 17.25 28.3 17.25 28.45 17.05 28.75 16.8 29.2 16.8 L29.85 17.05 30.25 17.85 30.05 18.4 30.25 18.4 30.7 18.6 30.85 19.0 28.6 19.15 18.25 19.5 6.65 19.0 3.8 18.45 Q3.55 17.0 5.1 16.9 6.05 14.35 8.15 15.4 8.4 13.9 9.9 14.1 L9.7 13.4 Q9.75 12.6 10.35 12.35 L11.5 12.55 11.55 12.55 11.6 12.65 Q11.95 13.0 11.8 13.8 L12.8 14.6 13.55 14.0 Q13.3 13.3 13.55 12.8 14.15 11.95 15.15 12.25 L16.25 12.7 16.5 14.0 Q17.55 13.3 18.45 14.75 L18.75 15.7 Q19.3 14.4 19.85 14.05 20.0 13.9 20.3 13.8 L20.8 13.75 Q21.4 13.75 21.9 14.2 L22.35 14.95 22.5 14.75 Q23.0 14.15 23.75 14.15 L23.75 14.1 Q23.75 13.75 24.05 13.35 L24.25 13.25 M28.6 13.2 Q29.0 13.65 29.0 14.15 L28.95 14.5 28.6 15.1 Q28.3 15.5 27.8 15.5 27.3 15.5 26.9 15.1 L26.85 14.95 27.55 15.2 28.4 14.9 28.7 14.35 28.4 13.85 Q28.0 13.6 28.0 13.95 L27.2 14.75 26.85 14.9 Q26.6 14.6 26.6 14.15 26.6 13.65 26.9 13.2 27.3 12.8 27.8 12.8 28.3 12.8 28.6 13.2 M4.2 13.85 Q3.85 13.4 3.85 12.8 3.85 12.2 4.25 11.7 4.7 11.25 5.25 11.25 5.85 11.25 6.35 11.7 6.75 12.2 6.75 12.8 L6.6 13.55 6.2 14.05 6.0 13.9 6.4 13.35 6.0 12.8 Q5.7 12.55 5.65 12.95 L4.85 13.75 4.4 13.9 4.45 13.95 4.2 13.85 M15.1 10.6 L14.9 9.85 Q14.9 9.25 15.3 8.8 15.75 8.3 16.3 8.3 16.9 8.3 17.4 8.8 17.8 9.25 17.8 9.85 17.8 10.55 17.4 10.95 L17.1 11.2 16.3 11.45 Q15.4 11.25 15.1 10.6 M18.8 13.05 L18.55 12.75 Q17.9 12.1 17.9 11.1 17.9 10.15 18.55 9.45 19.2 8.8 20.05 8.8 20.95 8.8 21.6 9.45 22.15 10.15 22.15 11.1 L22.05 12.1 21.6 12.75 Q21.05 13.3 20.4 13.5 L20.05 13.5 19.4 13.35 18.8 13.05 M29.45 6.9 Q28.85 6.9 28.55 7.35 28.05 7.7 28.05 8.25 28.05 8.85 28.35 8.8 L28.9 8.1 29.3 7.7 30.0 7.75 Q30.65 7.65 30.35 7.35 30.0 6.9 29.45 6.9 M20.4 10.25 Q21.1 10.1 20.8 9.75 20.4 9.4 19.9 9.4 19.3 9.4 19.0 9.75 18.55 10.15 18.55 10.75 18.55 11.25 18.75 11.2 L19.35 10.6 Q19.7 10.05 19.8 10.15 L20.4 10.25 M20.65 14.8 L21.15 14.85 Q21.75 14.75 21.5 14.5 21.15 14.15 20.75 14.15 20.25 14.15 19.95 14.5 19.6 14.8 19.6 15.3 19.6 15.7 19.85 15.65 L20.3 15.15 Q20.55 14.7 20.65 14.8 M24.65 13.8 L24.95 13.8 25.1 13.55 24.7 13.3 24.35 13.55 24.15 14.1 24.25 14.35 24.5 14.0 24.65 13.8 M28.55 17.75 L28.6 18.0 28.85 17.65 Q29.0 17.3 29.05 17.45 L29.3 17.45 Q29.6 17.4 29.45 17.15 L29.15 16.95 28.7 17.15 28.55 17.75 M32.7 13.1 Q32.2 12.75 32.15 13.3 32.1 13.85 31.05 14.5 L30.35 14.75 Q30.9 15.15 31.5 15.15 32.2 15.15 32.7 14.75 33.25 14.45 33.25 13.95 33.25 13.5 32.7 13.1 M22.15 16.1 L21.85 15.55 Q21.55 15.3 21.5 15.65 L20.7 16.45 20.25 16.6 Q20.55 16.9 21.0 16.9 21.55 16.9 21.85 16.6 L22.15 16.1 M18.65 5.8 Q19.2 5.8 19.5 6.15 19.9 6.55 19.9 7.15 19.9 7.65 19.5 8.0 19.2 8.4 18.65 8.4 18.2 8.4 17.8 8.0 L17.6 7.75 17.5 7.15 Q17.5 6.55 17.8 6.15 18.2 5.8 18.65 5.8 M15.9 3.9 Q16.3 3.85 15.9 3.5 15.45 3.2 14.95 3.2 14.35 3.2 14.0 3.55 13.55 3.95 13.55 4.55 13.55 5.05 13.85 5.0 L14.4 4.4 Q14.75 3.85 15.15 3.9 L15.9 3.9 M17.25 5.1 Q17.25 5.75 16.9 6.4 16.45 7.45 15.4 7.5 12.9 7.65 12.9 5.1 12.9 4.2 13.55 3.45 14.2 2.8 15.1 2.8 15.95 2.8 16.6 3.45 17.25 4.2 17.25 5.1 M10.65 2.45 Q10.65 3.0 10.25 3.35 9.95 3.8 9.4 3.8 8.95 3.8 8.55 3.35 8.2 3.0 8.2 2.45 8.2 1.9 8.55 1.5 8.95 1.1 9.4 1.1 9.95 1.1 10.25 1.5 10.65 1.9 10.65 2.45 M19.55 7.55 L19.25 7.15 Q19.1 6.9 19.05 7.25 L18.5 7.8 18.2 7.9 Q18.4 8.1 18.7 8.1 L19.25 7.9 19.55 7.55 M10.55 2.6 Q10.55 2.3 10.2 2.1 9.9 1.8 9.85 2.2 L9.05 3.0 8.6 3.15 9.35 3.4 10.2 3.15 10.55 2.6 M16.8 9.25 Q17.4 9.15 17.05 8.9 16.8 8.6 16.3 8.6 15.85 8.6 15.6 8.9 15.2 9.2 15.2 9.65 15.2 10.1 15.4 10.05 L15.9 9.5 Q16.2 9.1 16.25 9.2 L16.8 9.25 M17.25 9.75 Q16.9 9.5 16.85 9.85 16.8 10.3 16.05 10.7 L15.65 10.85 16.4 11.1 17.25 10.85 17.55 10.35 17.25 9.75 M7.05 0.7 Q7.6 1.4 7.6 2.35 L7.5 3.3 7.05 4.0 Q6.5 4.55 5.85 4.7 L5.5 4.7 4.85 4.55 Q4.55 4.35 4.3 4.3 L3.75 3.8 Q3.35 3.3 3.35 2.35 3.35 1.4 4.0 0.7 4.65 0.0 5.5 0.0 6.4 0.0 7.05 0.7 M6.3 0.7 Q5.85 0.4 5.25 0.4 4.7 0.4 4.35 0.8 3.95 1.15 3.95 1.75 3.95 2.3 4.15 2.25 L4.8 1.6 Q5.2 1.15 5.5 1.25 L6.25 1.15 Q6.7 0.95 6.3 0.7 M7.3 2.95 Q7.3 2.45 6.75 2.1 6.3 1.75 6.25 2.3 6.2 2.85 5.1 3.45 L4.4 3.75 5.6 4.1 Q6.3 4.1 6.75 3.75 7.3 3.4 7.3 2.95 M7.45 5.15 Q6.85 5.15 6.5 5.55 6.05 5.95 6.05 6.5 6.05 7.05 6.35 7.0 L6.9 6.35 Q7.25 5.85 7.55 6.0 L8.3 6.0 Q8.75 5.9 8.4 5.55 8.0 5.15 7.45 5.15 M9.05 5.45 Q9.7 6.15 9.7 7.15 9.7 8.05 9.05 8.8 8.45 9.45 7.6 9.45 6.7 9.45 6.05 8.8 5.5 8.05 5.5 7.15 5.5 6.15 6.05 5.45 6.7 4.75 7.6 4.75 8.45 4.75 9.05 5.45 M2.9 7.2 Q3.75 6.45 3.1 6.5 2.45 6.45 1.65 7.0 0.8 7.55 0.55 8.1 0.0 8.9 0.35 9.35 0.6 9.8 0.85 9.55 L1.7 8.4 2.9 7.2 M0.75 6.7 Q1.55 5.9 2.65 5.9 3.8 5.9 4.6 6.7 5.35 7.6 5.35 8.85 5.35 10.05 4.6 10.9 3.8 11.75 2.65 11.75 1.55 11.75 0.75 10.9 0.0 10.05 0.0 8.85 0.0 7.6 0.75 6.7 M8.65 7.2 Q8.2 6.8 8.15 7.4 8.1 7.9 7.05 8.6 L6.35 8.85 Q6.8 9.2 7.5 9.2 L8.65 8.85 Q9.2 8.45 9.2 8.0 9.2 7.55 8.65 7.2 M5.15 12.2 L5.7 12.25 Q6.3 12.15 5.95 11.9 5.7 11.55 5.25 11.55 4.75 11.55 4.5 11.9 4.1 12.2 4.1 12.65 4.1 13.1 4.3 13.05 L4.8 12.5 5.15 12.2 M6.6 17.85 L7.4 18.1 8.2 17.85 8.55 17.3 Q8.55 17.0 8.2 16.8 7.9 16.5 7.8 16.9 L7.05 17.7 6.6 17.85 M6.0 16.3 L6.25 16.85 7.15 16.0 Q7.15 15.6 6.65 15.6 6.4 15.6 6.2 15.9 L6.0 16.3 M10.45 13.15 Q10.55 12.8 10.6 12.95 L10.85 12.95 11.0 12.65 10.65 12.45 10.25 12.65 10.05 13.25 Q10.05 13.6 10.15 13.55 L10.45 13.15 M14.45 13.0 L14.05 13.2 13.9 13.8 14.0 14.05 14.2 13.7 Q14.35 13.35 14.4 13.5 L14.6 13.5 Q14.95 13.4 14.8 13.2 L14.45 13.0" fill="#808080" fill-rule="evenodd" stroke="none"/>
      <path d="M36.35 6.0 Q36.35 6.45 35.8 6.75 35.35 7.2 34.65 7.2 33.95 7.2 33.5 6.75 L34.15 6.5 Q35.25 5.9 35.3 5.35 35.35 4.8 35.8 5.1 36.35 5.5 36.35 6.0 M25.1 8.6 Q25.55 8.6 25.9 8.95 26.25 9.35 26.25 9.85 L25.9 10.8 Q25.55 11.2 25.1 11.2 24.55 11.2 24.2 10.8 23.85 10.45 23.85 9.85 23.85 9.35 24.2 8.95 24.55 8.6 25.1 8.6 M21.8 11.65 Q21.8 12.15 21.25 12.45 20.8 12.8 20.1 12.8 L18.95 12.45 19.6 12.2 Q20.7 11.55 20.75 11.0 20.8 10.5 21.25 10.8 21.8 11.15 21.8 11.65 M22.05 12.1 L22.35 12.05 Q23.2 12.05 23.8 12.65 L24.25 13.25 24.05 13.35 Q23.75 13.75 23.75 14.1 L23.75 14.15 Q23.0 14.15 22.5 14.75 L22.35 14.95 21.9 14.2 Q21.4 13.75 20.8 13.75 L20.3 13.8 20.4 13.5 Q21.05 13.3 21.6 12.75 L22.05 12.1 M24.8 13.1 Q25.4 12.6 26.15 12.6 L26.15 12.55 Q26.15 12.05 26.5 11.6 26.9 11.2 27.45 11.2 28.0 11.2 28.4 11.6 L28.75 12.55 28.6 13.2 Q28.3 12.8 27.8 12.8 27.3 12.8 26.9 13.2 26.6 13.65 26.6 14.15 26.6 14.6 26.85 14.9 L27.2 14.75 28.0 13.95 Q28.0 13.6 28.4 13.85 L28.7 14.35 28.4 14.9 27.55 15.2 26.85 14.95 26.9 15.1 Q27.3 15.5 27.8 15.5 28.3 15.5 28.6 15.1 L28.95 14.5 Q29.75 14.55 30.3 15.1 L30.95 16.2 Q31.3 16.2 31.55 16.5 L31.8 16.8 32.1 16.3 Q32.45 15.95 33.0 15.95 33.55 15.95 33.9 16.3 34.35 16.75 34.35 17.25 L34.1 17.95 34.4 17.95 35.3 18.15 35.9 18.35 33.5 18.85 30.85 19.0 30.7 18.6 30.25 18.4 30.05 18.4 30.25 17.85 29.85 17.05 29.2 16.8 Q28.75 16.8 28.45 17.05 28.3 17.25 28.0 17.25 27.85 17.0 27.5 17.0 27.45 16.45 27.0 16.1 26.6 15.65 25.9 15.65 L25.5 15.7 25.25 15.1 25.5 14.85 25.85 14.1 25.5 13.35 Q25.2 13.1 24.8 13.1 M6.65 19.0 L0.85 18.4 Q0.5 16.3 2.45 16.1 2.15 14.45 4.2 13.85 L4.45 13.95 4.4 13.9 4.85 13.75 5.65 12.95 Q5.7 12.55 6.0 12.8 L6.4 13.35 6.0 13.9 6.2 14.05 6.6 13.55 Q7.3 12.2 8.55 12.5 8.1 11.65 8.6 10.75 L9.05 10.25 Q10.45 9.9 10.8 11.0 L11.0 12.15 11.5 12.55 10.35 12.35 Q9.75 12.6 9.7 13.4 L9.9 14.1 Q8.4 13.9 8.15 15.4 6.05 14.35 5.1 16.9 3.55 17.0 3.8 18.45 L6.65 19.0 M11.6 12.65 L12.25 13.15 Q12.15 12.35 12.7 11.55 13.25 10.75 14.05 10.75 L14.9 10.75 15.1 10.6 Q15.4 11.25 16.3 11.45 L17.1 11.2 16.9 12.4 Q17.85 12.4 17.9 13.15 L18.8 13.05 19.4 13.35 19.85 14.05 Q19.3 14.4 18.75 15.7 L18.45 14.75 Q17.55 13.3 16.5 14.0 L16.25 12.7 15.15 12.25 Q14.15 11.95 13.55 12.8 13.3 13.3 13.55 14.0 L12.8 14.6 11.8 13.8 Q11.95 13.0 11.6 12.65 M22.15 16.1 L21.85 16.6 Q21.55 16.9 21.0 16.9 20.55 16.9 20.25 16.6 L20.7 16.45 21.5 15.65 Q21.55 15.3 21.85 15.55 L22.15 16.1 M32.7 13.1 Q33.25 13.5 33.25 13.95 33.25 14.45 32.7 14.75 32.2 15.15 31.5 15.15 30.9 15.15 30.35 14.75 L31.05 14.5 Q32.1 13.85 32.15 13.3 32.2 12.75 32.7 13.1 M10.55 2.6 L10.2 3.15 9.35 3.4 8.6 3.15 9.05 3.0 9.85 2.2 Q9.9 1.8 10.2 2.1 10.55 2.3 10.55 2.6 M19.55 7.55 L19.25 7.9 18.7 8.1 Q18.4 8.1 18.2 7.9 L18.5 7.8 19.05 7.25 Q19.1 6.9 19.25 7.15 L19.55 7.55 M17.25 9.75 L17.55 10.35 17.25 10.85 16.4 11.1 15.65 10.85 16.05 10.7 Q16.8 10.3 16.85 9.85 16.9 9.5 17.25 9.75 M7.3 2.95 Q7.3 3.4 6.75 3.75 6.3 4.1 5.6 4.1 L4.4 3.75 5.1 3.45 Q6.2 2.85 6.25 2.3 6.3 1.75 6.75 2.1 7.3 2.45 7.3 2.95 M8.65 7.2 Q9.2 7.55 9.2 8.0 9.2 8.45 8.65 8.85 L7.5 9.2 Q6.8 9.2 6.35 8.85 L7.05 8.6 Q8.1 7.9 8.15 7.4 8.2 6.8 8.65 7.2 M6.6 17.85 L7.05 17.7 7.8 16.9 Q7.9 16.5 8.2 16.8 8.55 17.0 8.55 17.3 L8.2 17.85 7.4 18.1 6.6 17.85 M2.85 14.2 L2.1 14.55 Q1.65 14.55 1.35 14.2 L1.1 13.4 1.35 12.6 Q1.65 12.3 2.1 12.3 L2.85 12.6 3.1 13.4 2.85 14.2" fill="#626262" fill-rule="evenodd" stroke="none"/>
      <path d="M35.55 3.8 L34.3 3.8 Q33.9 3.6 33.3 4.2 L32.35 4.8 Q32.0 4.85 32.0 4.35 32.0 3.75 32.65 3.25 33.25 2.75 34.2 2.7 35.15 2.65 35.8 3.15 36.4 3.65 35.55 3.8 M31.4 11.25 Q31.95 11.25 32.25 11.65 32.65 12.0 31.95 12.1 L31.25 12.05 30.9 12.45 30.3 13.1 Q30.05 13.15 30.05 12.6 30.05 12.05 30.45 11.65 30.85 11.25 31.4 11.25 M20.4 10.25 L19.8 10.15 Q19.7 10.05 19.35 10.6 L18.75 11.2 Q18.55 11.25 18.55 10.75 18.55 10.15 19.0 9.75 19.3 9.4 19.9 9.4 20.4 9.4 20.8 9.75 21.1 10.1 20.4 10.25 M29.45 6.9 Q30.0 6.9 30.35 7.35 30.65 7.65 30.0 7.75 L29.3 7.7 28.9 8.1 28.35 8.8 Q28.05 8.85 28.05 8.25 28.05 7.7 28.55 7.35 28.85 6.9 29.45 6.9 M28.55 17.75 L28.7 17.15 29.15 16.95 29.45 17.15 Q29.6 17.4 29.3 17.45 L29.05 17.45 Q29.0 17.3 28.85 17.65 L28.6 18.0 28.55 17.75 M24.65 13.8 L24.5 14.0 24.25 14.35 24.15 14.1 24.35 13.55 24.7 13.3 25.1 13.55 24.95 13.8 24.65 13.8 M20.65 14.8 Q20.55 14.7 20.3 15.15 L19.85 15.65 Q19.6 15.7 19.6 15.3 19.6 14.8 19.95 14.5 20.25 14.15 20.75 14.15 21.15 14.15 21.5 14.5 21.75 14.75 21.15 14.85 L20.65 14.8 M15.9 3.9 L15.15 3.9 Q14.75 3.85 14.4 4.4 L13.85 5.0 Q13.55 5.05 13.55 4.55 13.55 3.95 14.0 3.55 14.35 3.2 14.95 3.2 15.45 3.2 15.9 3.5 16.3 3.85 15.9 3.9 M16.8 9.25 L16.25 9.2 Q16.2 9.1 15.9 9.5 L15.4 10.05 Q15.2 10.1 15.2 9.65 15.2 9.2 15.6 8.9 15.85 8.6 16.3 8.6 16.8 8.6 17.05 8.9 17.4 9.15 16.8 9.25 M6.3 0.7 Q6.7 0.95 6.25 1.15 L5.5 1.25 Q5.2 1.15 4.8 1.6 L4.15 2.25 Q3.95 2.3 3.95 1.75 3.95 1.15 4.35 0.8 4.7 0.4 5.25 0.4 5.85 0.4 6.3 0.7 M7.45 5.15 Q8.0 5.15 8.4 5.55 8.75 5.9 8.3 6.0 L7.55 6.0 Q7.25 5.85 6.9 6.35 L6.35 7.0 Q6.05 7.05 6.05 6.5 6.05 5.95 6.5 5.55 6.85 5.15 7.45 5.15 M2.9 7.2 L1.7 8.4 0.85 9.55 Q0.6 9.8 0.35 9.35 0.0 8.9 0.55 8.1 0.8 7.55 1.65 7.0 2.45 6.45 3.1 6.5 3.75 6.45 2.9 7.2 M5.15 12.2 L4.8 12.5 4.3 13.05 Q4.1 13.1 4.1 12.65 4.1 12.2 4.5 11.9 4.75 11.55 5.25 11.55 5.7 11.55 5.95 11.9 6.3 12.15 5.7 12.25 L5.15 12.2 M6.0 16.3 L6.2 15.9 Q6.4 15.6 6.65 15.6 7.15 15.6 7.15 16.0 L6.25 16.85 6.0 16.3 M14.45 13.0 L14.8 13.2 Q14.95 13.4 14.6 13.5 L14.4 13.5 Q14.35 13.35 14.2 13.7 L14.0 14.05 13.9 13.8 14.05 13.2 14.45 13.0 M10.45 13.15 L10.15 13.55 Q10.05 13.6 10.05 13.25 L10.25 12.65 10.65 12.45 11.0 12.65 10.85 12.95 10.6 12.95 Q10.55 12.8 10.45 13.15" fill="#adadad" fill-rule="evenodd" stroke="none"/>
      <path d="M30.85 19.0 L28.6 19.15 M6.65 19.0 L0.85 18.4" fill="none" stroke="#000000" stroke-linecap="round" stroke-linejoin="round" stroke-opacity="0.29803923" stroke-width="0.1"/>
    </g>
  </defs>
</svg>
