<?xml version="1.0" encoding="UTF-8" standalone="no"?>
<svg xmlns:xlink="http://www.w3.org/1999/xlink" height="106.35px" width="81.0px" xmlns="http://www.w3.org/2000/svg">
  <g transform="matrix(1.0, 0.0, 0.0, 1.0, 49.0, 104.9)">
    <use height="106.35" transform="matrix(1.0, 0.0, 0.0, 1.0, -49.0, -104.9)" width="81.0" xlink:href="#decoration169-shape0"/>
  </g>
  <defs>
    <g id="decoration169-shape0" transform="matrix(1.0, 0.0, 0.0, 1.0, 49.0, 104.9)">
      <path d="M6.15 -77.2 Q3.4 -76.85 6.35 -78.15 9.3 -79.6 12.35 -78.7 15.55 -77.8 18.05 -75.65 18.0 -80.65 13.5 -83.7 9.0 -86.7 5.65 -84.7 2.4 -82.75 2.85 -83.7 L4.25 -85.6 Q5.0 -86.65 8.5 -87.5 11.95 -88.4 16.15 -85.0 20.35 -81.65 20.65 -78.25 20.95 -74.85 19.8 -73.0 23.1 -70.15 22.7 -65.6 22.4 -61.15 18.9 -59.15 15.45 -57.15 15.55 -55.5 15.8 -53.75 17.75 -52.75 19.8 -51.75 21.3 -51.3 25.6 -49.95 24.8 -49.55 L22.05 -49.25 Q20.15 -49.35 16.15 -51.75 12.25 -54.15 13.75 -56.6 15.25 -59.0 17.85 -60.95 19.75 -62.35 20.25 -63.75 20.85 -65.15 20.55 -67.0 20.3 -68.85 19.55 -69.35 L19.05 -68.65 Q17.4 -66.15 14.0 -65.05 10.65 -63.9 8.0 -63.75 5.4 -63.6 5.65 -64.3 6.15 -64.9 9.35 -65.55 12.55 -66.25 15.5 -68.0 18.45 -69.8 18.35 -71.7 18.25 -73.6 16.6 -74.65 15.0 -75.65 12.0 -76.65 9.0 -77.7 6.15 -77.2" fill="#3b461b" fill-rule="evenodd" stroke="none"/>
      <path d="M6.15 -77.2 Q9.0 -77.7 12.0 -76.65 15.0 -75.65 16.6 -74.65 18.25 -73.6 18.35 -71.7 18.45 -69.8 15.5 -68.0 12.55 -66.25 9.35 -65.55 6.15 -64.9 5.65 -64.3 5.4 -63.6 8.0 -63.75 10.65 -63.9 14.0 -65.05 17.4 -66.15 19.05 -68.65 L19.55 -69.35 Q20.3 -68.85 20.55 -67.0 20.85 -65.15 20.25 -63.75 19.75 -62.35 17.85 -60.95 15.25 -59.0 13.75 -56.6 12.25 -54.15 16.15 -51.75 20.15 -49.35 22.05 -49.25 L24.8 -49.55 Q25.6 -49.95 21.3 -51.3 19.8 -51.75 17.75 -52.75 15.8 -53.75 15.55 -55.5 15.45 -57.15 18.9 -59.15 22.4 -61.15 22.7 -65.6 23.1 -70.15 19.8 -73.0 20.95 -74.85 20.65 -78.25 20.35 -81.65 16.15 -85.0 11.95 -88.4 8.5 -87.5 5.0 -86.65 4.25 -85.6 L2.85 -83.7 Q2.4 -82.75 5.65 -84.7 9.0 -86.7 13.5 -83.7 18.0 -80.65 18.05 -75.65 15.55 -77.8 12.35 -78.7 9.3 -79.6 6.35 -78.15 3.4 -76.85 6.15 -77.2 Z" fill="none" stroke="#000000" stroke-linecap="round" stroke-linejoin="round" stroke-opacity="0.4" stroke-width="0.05"/>
      <path d="M-46.85 -25.05 Q-48.5 -26.05 -48.95 -26.85 -49.4 -27.65 -45.05 -26.25 -43.6 -25.75 -41.35 -25.35 -39.15 -25.05 -38.0 -26.3 -36.9 -27.6 -38.55 -31.25 -40.2 -34.9 -37.85 -38.7 -35.5 -42.6 -31.2 -43.0 -31.0 -45.2 -28.8 -47.75 -26.6 -50.35 -21.2 -50.6 -15.8 -50.9 -13.5 -48.15 -11.2 -45.45 -11.15 -44.15 -11.05 -42.9 -11.2 -41.8 -11.35 -40.75 -12.85 -44.25 -14.4 -47.85 -19.8 -48.0 -25.25 -48.2 -28.2 -44.15 -24.9 -44.4 -21.8 -43.3 -18.75 -42.25 -17.2 -39.35 -15.6 -36.55 -17.65 -38.45 -19.65 -40.5 -22.7 -41.4 -25.7 -42.35 -27.6 -42.45 -29.55 -42.6 -30.75 -41.1 -31.95 -39.65 -30.6 -36.45 -29.25 -33.3 -27.0 -30.85 -24.8 -28.45 -24.8 -27.65 -24.95 -26.95 -27.0 -28.6 -29.05 -30.3 -31.15 -33.15 -33.25 -36.05 -33.1 -39.0 L-33.1 -39.9 Q-34.0 -39.95 -35.3 -38.6 -36.6 -37.25 -36.95 -35.75 -37.35 -34.35 -36.65 -32.1 -35.65 -29.0 -35.8 -26.15 -36.05 -23.3 -40.65 -23.6 -45.25 -24.0 -46.85 -25.05" fill="#3b461b" fill-rule="evenodd" stroke="none"/>
      <path d="M-46.85 -25.05 Q-48.5 -26.05 -48.95 -26.85 -49.4 -27.65 -45.05 -26.25 -43.6 -25.75 -41.35 -25.35 -39.15 -25.05 -38.0 -26.3 -36.9 -27.6 -38.55 -31.25 -40.2 -34.9 -37.85 -38.7 -35.5 -42.6 -31.2 -43.0 -31.0 -45.2 -28.8 -47.75 -26.6 -50.35 -21.2 -50.6 -15.8 -50.9 -13.5 -48.15 -11.2 -45.45 -11.15 -44.15 -11.05 -42.9 -11.2 -41.8 -11.35 -40.75 -12.85 -44.25 -14.4 -47.85 -19.8 -48.0 -25.25 -48.2 -28.2 -44.15 -24.9 -44.4 -21.8 -43.3 -18.75 -42.25 -17.2 -39.35 -15.6 -36.55 -17.65 -38.45 -19.65 -40.5 -22.7 -41.4 -25.7 -42.35 -27.6 -42.45 -29.55 -42.6 -30.75 -41.1 -31.95 -39.65 -30.6 -36.45 -29.25 -33.3 -27.0 -30.85 -24.8 -28.45 -24.8 -27.65 -24.95 -26.95 -27.0 -28.6 -29.05 -30.3 -31.15 -33.15 -33.25 -36.05 -33.1 -39.0 L-33.1 -39.9 Q-34.0 -39.95 -35.3 -38.6 -36.6 -37.25 -36.95 -35.75 -37.35 -34.35 -36.65 -32.1 -35.65 -29.0 -35.8 -26.15 -36.05 -23.3 -40.65 -23.6 -45.25 -24.0 -46.85 -25.05 Z" fill="none" stroke="#000000" stroke-linecap="round" stroke-linejoin="round" stroke-opacity="0.4" stroke-width="0.05"/>
      <path d="M-0.05 -41.95 Q6.2 -44.6 9.95 -44.0 13.65 -43.4 18.5 -41.15 23.3 -38.95 26.7 -35.4 30.15 -31.85 31.4 -24.9 32.65 -17.95 30.4 -13.0 28.15 -7.85 25.55 -5.65 22.95 -3.45 21.15 -2.5 19.3 -1.55 17.7 -1.45 16.4 -1.45 15.2 -0.65 L17.2 -2.85 Q21.7 -9.25 23.8 -17.3 21.7 -9.25 17.2 -2.85 L15.2 -0.65 Q14.85 -0.35 14.5 -0.2 12.85 0.75 12.2 0.8 L4.95 1.1 0.55 0.75 -4.15 0.9 -6.3 1.15 -10.6 0.85 -11.8 0.35 -12.9 -0.4 -16.05 -0.4 Q-20.15 -1.7 -21.8 -3.35 -27.65 -9.25 -28.75 -11.5 -31.7 -18.2 -31.0 -23.05 -30.3 -28.0 -29.15 -30.85 -28.05 -33.7 -23.6 -37.6 -19.1 -41.5 -16.6 -42.15 L-10.4 -43.15 -5.7 -43.45 Q-3.55 -43.45 -0.05 -41.95 3.7 -43.25 6.4 -42.45 9.45 -41.6 12.15 -39.7 L12.3 -39.6 14.9 -37.45 16.75 -35.6 14.9 -37.45 12.3 -39.6 12.15 -39.7 Q9.45 -41.6 6.4 -42.45 3.7 -43.25 -0.05 -41.95 -5.9 -42.9 -9.3 -41.0 -12.8 -39.1 -13.9 -38.25 L-15.8 -36.45 -18.0 -34.05 -15.8 -36.45 -13.9 -38.25 Q-12.8 -39.1 -9.3 -41.0 -5.9 -42.9 -0.05 -41.95 -3.15 -41.5 -7.05 -36.1 L-7.35 -35.75 -9.9 -32.05 -7.35 -35.75 -7.05 -36.1 Q-3.15 -41.5 -0.05 -41.95 2.65 -40.65 5.3 -37.7 L9.95 -32.25 5.3 -37.7 Q2.65 -40.65 -0.05 -41.95 L0.05 -30.15 -0.1 -30.0 Q-1.05 -31.3 -2.95 -32.35 -4.9 -33.4 -6.7 -33.4 -8.3 -33.4 -9.9 -32.05 -9.8 -33.4 -11.1 -34.5 -12.45 -35.55 -14.05 -35.55 L-16.25 -35.15 -18.0 -34.05 -18.25 -33.9 -18.25 -34.1 -18.05 -35.15 Q-18.45 -36.9 -19.8 -37.15 L-21.8 -37.05 -23.5 -35.75 -26.7 -32.25 Q-28.75 -29.7 -29.25 -24.1 -29.85 -18.5 -29.0 -15.35 -28.2 -12.2 -26.25 -10.55 -24.35 -8.9 -23.25 -9.85 -22.15 -10.8 -22.15 -12.6 L-22.5 -13.4 Q-21.3 -10.75 -18.25 -7.4 -14.6 -3.3 -12.3 -4.7 -10.0 -6.1 -9.15 -7.95 L-7.35 -6.45 Q-6.8 -5.95 -4.75 -5.45 L-1.75 -5.55 0.55 -8.35 0.55 -8.25 2.0 -6.95 Q2.85 -6.3 5.0 -6.25 7.05 -6.25 8.2 -7.25 L10.05 -8.95 Q11.65 -7.05 13.35 -7.0 15.0 -7.0 17.65 -8.65 20.25 -10.25 21.9 -14.05 23.35 -17.4 23.8 -17.3 L24.0 -15.65 Q24.2 -13.2 25.0 -10.75 25.75 -8.4 28.75 -13.7 31.75 -19.0 30.2 -24.0 28.55 -29.05 27.4 -31.15 26.2 -33.35 23.3 -36.2 L22.1 -37.3 20.7 -37.6 19.2 -37.15 17.75 -36.2 16.8 -35.6 16.75 -35.6 14.9 -35.75 Q13.75 -35.9 12.45 -35.15 L10.6 -33.8 Q10.1 -33.25 9.95 -32.25 L9.95 -32.15 9.9 -32.15 8.65 -32.7 6.95 -32.95 4.0 -32.35 Q1.65 -31.7 0.05 -30.15 L-0.05 -41.95 M4.95 1.1 L6.8 -2.6 Q8.5 -5.2 9.55 -7.7 L10.05 -8.95 9.55 -7.7 Q8.5 -5.2 6.8 -2.6 L4.95 1.1 M0.55 0.75 L0.55 -8.25 0.55 0.75 M-4.15 0.9 L-4.25 0.85 -9.15 -7.95 -4.25 0.85 -4.15 0.9 M-12.9 -0.4 L-15.5 -3.05 Q-20.3 -7.5 -21.7 -11.05 L-22.15 -12.6 -21.7 -11.05 Q-20.3 -7.5 -15.5 -3.05 L-12.9 -0.4" fill="#9a4c00" fill-rule="evenodd" stroke="none"/>
      <path d="M16.75 -35.6 L16.8 -35.6 17.75 -36.2 19.2 -37.15 20.7 -37.6 22.1 -37.3 23.3 -36.2 Q26.2 -33.35 27.4 -31.15 28.55 -29.05 30.2 -24.0 31.75 -19.0 28.75 -13.7 25.75 -8.4 25.0 -10.75 24.2 -13.2 24.0 -15.65 L23.8 -17.3 Q24.65 -22.55 21.1 -28.95 18.75 -33.25 16.75 -35.6 18.75 -33.25 21.1 -28.95 24.65 -22.55 23.8 -17.3 23.35 -17.4 21.9 -14.05 20.25 -10.25 17.65 -8.65 15.0 -7.0 13.35 -7.0 11.65 -7.05 10.05 -8.95 L10.1 -9.0 10.1 -9.05 Q12.15 -14.3 13.15 -21.4 13.95 -27.05 9.95 -32.25 13.95 -27.05 13.15 -21.4 12.15 -14.3 10.1 -9.05 L10.1 -9.0 10.05 -8.95 8.2 -7.25 Q7.05 -6.25 5.0 -6.25 2.85 -6.3 2.0 -6.95 L0.55 -8.25 0.55 -8.35 0.05 -30.15 Q1.65 -31.7 4.0 -32.35 L6.95 -32.95 8.65 -32.7 9.9 -32.15 9.95 -32.15 9.95 -32.25 Q10.1 -33.25 10.6 -33.8 L12.45 -35.15 Q13.75 -35.9 14.9 -35.75 L16.75 -35.6 M-18.0 -34.05 L-16.25 -35.15 -14.05 -35.55 Q-12.45 -35.55 -11.1 -34.5 -9.8 -33.4 -9.9 -32.05 -8.3 -33.4 -6.7 -33.4 -4.9 -33.4 -2.95 -32.35 -1.05 -31.3 -0.1 -30.0 L0.05 -30.15 0.55 -8.35 -1.75 -5.55 -4.75 -5.45 Q-6.8 -5.95 -7.35 -6.45 L-9.15 -7.95 Q-11.95 -15.3 -12.25 -21.85 -12.5 -26.9 -9.9 -32.05 -12.5 -26.9 -12.25 -21.85 -11.95 -15.3 -9.15 -7.95 -10.0 -6.1 -12.3 -4.7 -14.6 -3.3 -18.25 -7.4 -21.3 -10.75 -22.5 -13.4 L-22.15 -12.6 Q-22.15 -10.8 -23.25 -9.85 -24.35 -8.9 -26.25 -10.55 -28.2 -12.2 -29.0 -15.35 -29.85 -18.5 -29.25 -24.1 -28.75 -29.7 -26.7 -32.25 L-23.5 -35.75 -21.8 -37.05 -19.8 -37.15 Q-18.45 -36.9 -18.05 -35.15 L-18.25 -34.1 -18.25 -33.9 -18.0 -34.05 Q-26.25 -25.3 -22.55 -13.55 L-22.5 -13.4 -22.55 -13.55 Q-26.25 -25.3 -18.0 -34.05" fill="url(#decoration169-gradient0)" fill-rule="evenodd" stroke="none"/>
      <path d="M15.2 -0.65 Q16.4 -1.45 17.7 -1.45 19.3 -1.55 21.15 -2.5 22.95 -3.45 25.55 -5.65 28.15 -7.85 30.4 -13.0 32.65 -17.95 31.4 -24.9 30.15 -31.85 26.7 -35.4 23.3 -38.95 18.5 -41.15 13.65 -43.4 9.95 -44.0 6.2 -44.6 -0.05 -41.95 3.7 -43.25 6.4 -42.45 9.45 -41.6 12.15 -39.7 L12.3 -39.6 14.9 -37.45 16.75 -35.6 Q18.75 -33.25 21.1 -28.95 24.65 -22.55 23.8 -17.3 21.7 -9.25 17.2 -2.85 L15.2 -0.65 Q14.85 -0.35 14.5 -0.2 12.85 0.75 12.2 0.8 L4.95 1.1 0.55 0.75 -4.15 0.9 -6.3 1.15 -10.6 0.85 -11.8 0.35 -12.9 -0.4 -16.05 -0.4 Q-20.15 -1.7 -21.8 -3.35 -27.65 -9.25 -28.75 -11.5 -31.7 -18.2 -31.0 -23.05 -30.3 -28.0 -29.15 -30.85 -28.05 -33.7 -23.6 -37.6 -19.1 -41.5 -16.6 -42.15 L-10.4 -43.15 -5.7 -43.45 Q-3.55 -43.45 -0.05 -41.95 -5.9 -42.9 -9.3 -41.0 -12.8 -39.1 -13.9 -38.25 L-15.8 -36.45 -18.0 -34.05 Q-26.25 -25.3 -22.55 -13.55 L-22.5 -13.4 -22.15 -12.6 -21.7 -11.05 Q-20.3 -7.5 -15.5 -3.05 L-12.9 -0.4 M-9.9 -32.05 L-7.35 -35.75 -7.05 -36.1 Q-3.15 -41.5 -0.05 -41.95 2.65 -40.65 5.3 -37.7 L9.95 -32.25 Q13.95 -27.05 13.15 -21.4 12.15 -14.3 10.1 -9.05 L10.1 -9.0 10.05 -8.95 9.55 -7.7 Q8.5 -5.2 6.8 -2.6 L4.95 1.1 M0.55 -8.25 L0.55 0.75 M0.55 -8.35 L0.55 -8.25 M0.55 -8.35 L0.05 -30.15 M-9.9 -32.05 Q-12.5 -26.9 -12.25 -21.85 -11.95 -15.3 -9.15 -7.95 L-4.25 0.85 -4.15 0.9 M-0.05 -41.95 L0.05 -30.15" fill="none" stroke="#000000" stroke-linecap="round" stroke-linejoin="round" stroke-opacity="0.3019608" stroke-width="0.30000000000000004"/>
      <path d="M9.9 -32.15 L9.95 -32.15 9.95 -32.25 M0.05 -30.15 L-0.1 -30.0 M-18.25 -33.9 L-18.0 -34.05" fill="none" stroke="#000000" stroke-linecap="round" stroke-linejoin="round" stroke-opacity="0.4" stroke-width="0.05"/>
      <path d="M12.7 -66.3 Q10.95 -68.3 12.6 -68.2 L15.6 -67.8 Q17.05 -67.5 19.35 -65.35 21.65 -63.2 22.6 -61.6 23.55 -60.0 24.8 -56.25 26.05 -52.5 23.65 -48.55 21.3 -44.6 20.7 -46.35 20.1 -48.15 19.9 -50.0 L19.75 -51.25 Q20.4 -55.15 17.65 -59.95 14.9 -64.7 12.7 -66.3 14.9 -64.7 17.65 -59.95 20.4 -55.15 19.75 -51.25 19.4 -51.3 18.25 -48.8 16.95 -46.0 14.05 -43.95 11.2 -41.9 10.4 -42.45 9.55 -43.0 8.95 -45.0 L8.95 -45.1 Q10.55 -49.0 11.35 -54.3 11.7 -56.5 10.2 -59.6 8.85 -62.4 7.05 -64.25 8.85 -62.4 10.2 -59.6 11.7 -56.5 11.35 -54.3 10.55 -49.0 8.95 -45.1 L7.25 -43.35 Q6.25 -42.3 5.0 -42.0 3.75 -41.75 2.85 -42.85 L1.4 -44.45 1.4 -44.55 0.95 -63.75 1.4 -44.55 -0.4 -42.45 -2.75 -42.4 Q-4.4 -42.75 -4.85 -43.15 L-6.2 -44.25 Q-6.9 -42.9 -8.7 -41.85 -10.5 -40.8 -13.4 -43.85 -15.85 -46.4 -16.8 -48.45 -20.25 -58.75 -10.65 -65.95 -20.25 -58.75 -16.8 -48.45 L-16.5 -47.75 Q-16.3 -46.0 -16.8 -44.55 -17.3 -43.1 -19.3 -45.25 -21.25 -47.45 -21.9 -49.8 -22.55 -52.15 -22.1 -56.3 -21.7 -60.5 -20.1 -62.4 -18.5 -64.3 -16.55 -65.75 -14.6 -67.25 -12.8 -67.65 -11.05 -68.1 -10.65 -65.95 L-8.3 -66.65 Q-3.85 -68.1 -4.85 -65.0 L-4.55 -65.3 Q-1.85 -66.1 -0.9 -65.75 0.0 -65.45 0.95 -63.75 L0.95 -63.85 2.2 -64.95 Q2.9 -65.4 4.1 -65.3 L5.4 -65.05 6.95 -64.35 7.05 -64.25 6.95 -65.45 Q7.0 -66.35 7.4 -66.5 L9.4 -66.95 11.35 -66.8 12.7 -66.3 M-4.85 -65.0 Q-8.95 -59.5 -8.65 -54.6 -8.45 -49.75 -6.2 -44.25 -8.45 -49.75 -8.65 -54.6 -8.95 -59.5 -4.85 -65.0" fill="url(#decoration169-gradient1)" fill-rule="evenodd" stroke="none"/>
      <path d="M19.75 -51.25 L19.9 -50.0 Q20.1 -48.15 20.7 -46.35 21.3 -44.6 23.65 -48.55 26.05 -52.5 24.8 -56.25 23.55 -60.0 22.6 -61.6 21.65 -63.2 19.35 -65.35 17.05 -67.5 15.6 -67.8 L12.6 -68.2 Q10.95 -68.3 12.7 -66.3 L10.55 -67.95 Q8.45 -69.35 6.05 -70.0 L0.95 -69.65 6.05 -70.0 Q8.45 -69.35 10.55 -67.95 L12.7 -66.3 11.35 -66.8 9.4 -66.95 7.4 -66.5 Q7.0 -66.35 6.95 -65.45 L7.05 -64.25 6.95 -64.35 5.4 -65.05 4.1 -65.3 Q2.9 -65.4 2.2 -64.95 L0.95 -63.85 0.95 -63.75 Q0.0 -65.45 -0.9 -65.75 -1.85 -66.1 -4.55 -65.3 L-4.85 -65.0 Q-3.85 -68.1 -8.3 -66.65 L-10.65 -65.95 -8.55 -67.35 Q-3.65 -70.35 0.95 -69.65 -3.65 -70.35 -8.55 -67.35 L-10.65 -65.95 Q-11.05 -68.1 -12.8 -67.65 -14.6 -67.25 -16.55 -65.75 -18.5 -64.3 -20.1 -62.4 -21.7 -60.5 -22.1 -56.3 -22.55 -52.15 -21.9 -49.8 -21.25 -47.45 -19.3 -45.25 -17.3 -43.1 -16.8 -44.55 -16.3 -46.0 -16.5 -47.75 L-16.15 -46.55 Q-15.0 -43.9 -11.25 -40.6 L-9.15 -38.65 -11.7 -38.65 Q-14.9 -39.6 -16.2 -40.85 -20.8 -45.2 -21.7 -46.9 -24.0 -51.9 -23.45 -55.55 -22.95 -59.2 -22.0 -61.35 -21.15 -63.5 -17.65 -66.4 -14.1 -69.3 -12.15 -69.75 L-7.2 -70.55 -3.5 -70.75 Q-1.8 -70.75 0.95 -69.65 5.85 -71.6 8.8 -71.15 11.75 -70.7 15.55 -69.05 19.35 -67.4 22.05 -64.75 24.75 -62.1 25.75 -56.9 26.75 -51.7 25.0 -48.0 23.2 -44.2 21.15 -42.55 19.1 -40.9 17.7 -40.2 16.25 -39.5 14.95 -39.4 13.95 -39.4 13.0 -38.8 L14.55 -40.45 Q18.1 -45.2 19.75 -51.25 18.1 -45.2 14.55 -40.45 L13.0 -38.8 12.45 -38.45 Q11.1 -37.75 10.6 -37.75 L4.9 -37.5 1.4 -37.75 -2.25 -37.65 -4.0 -37.45 -7.4 -37.7 -8.35 -38.1 -9.15 -38.65 -11.25 -40.6 Q-15.0 -43.9 -16.15 -46.55 L-16.5 -47.75 -16.8 -48.45 Q-15.85 -46.4 -13.4 -43.85 -10.5 -40.8 -8.7 -41.85 -6.9 -42.9 -6.2 -44.25 L-4.85 -43.15 Q-4.4 -42.75 -2.75 -42.4 L-0.4 -42.45 1.4 -44.55 1.4 -44.45 2.85 -42.85 Q3.75 -41.75 5.0 -42.0 6.25 -42.3 7.25 -43.35 L8.95 -45.1 8.95 -45.0 Q9.55 -43.0 10.4 -42.45 11.2 -41.9 14.05 -43.95 16.95 -46.0 18.25 -48.8 19.4 -51.3 19.75 -51.25 M0.95 -63.85 L0.95 -69.65 Q4.3 -67.85 6.95 -64.35 4.3 -67.85 0.95 -69.65 L0.95 -63.85 M1.4 -37.75 L1.4 -44.45 1.4 -37.75 M4.9 -37.5 L6.35 -40.25 Q7.7 -42.2 8.55 -44.1 L8.95 -45.0 8.55 -44.1 Q7.7 -42.2 6.35 -40.25 L4.9 -37.5 M0.95 -69.65 Q-1.5 -69.3 -4.55 -65.3 -1.5 -69.3 0.95 -69.65 M-2.25 -37.65 L-2.4 -37.7 -6.2 -44.25 -2.4 -37.7 -2.25 -37.65" fill="#993300" fill-rule="evenodd" stroke="none"/>
      <path d="M12.7 -66.3 Q14.9 -64.7 17.65 -59.95 20.4 -55.15 19.75 -51.25 18.1 -45.2 14.55 -40.45 L13.0 -38.8 Q13.95 -39.4 14.95 -39.4 16.25 -39.5 17.7 -40.2 19.1 -40.9 21.15 -42.55 23.2 -44.2 25.0 -48.0 26.75 -51.7 25.75 -56.9 24.75 -62.1 22.05 -64.75 19.35 -67.4 15.55 -69.05 11.75 -70.7 8.8 -71.15 5.85 -71.6 0.95 -69.65 L6.05 -70.0 Q8.45 -69.35 10.55 -67.95 L12.7 -66.3 M7.05 -64.25 Q8.85 -62.4 10.2 -59.6 11.7 -56.5 11.35 -54.3 10.55 -49.0 8.95 -45.1 L8.95 -45.0 8.55 -44.1 Q7.7 -42.2 6.35 -40.25 L4.9 -37.5 1.4 -37.75 -2.25 -37.65 -4.0 -37.45 -7.4 -37.7 -8.35 -38.1 -9.15 -38.65 -11.7 -38.65 Q-14.9 -39.6 -16.2 -40.85 -20.8 -45.2 -21.7 -46.9 -24.0 -51.9 -23.45 -55.55 -22.95 -59.2 -22.0 -61.35 -21.15 -63.5 -17.65 -66.4 -14.1 -69.3 -12.15 -69.75 L-7.2 -70.55 -3.5 -70.75 Q-1.8 -70.75 0.95 -69.65 -3.65 -70.35 -8.55 -67.35 L-10.65 -65.95 Q-20.25 -58.75 -16.8 -48.45 L-16.5 -47.75 -16.15 -46.55 Q-15.0 -43.9 -11.25 -40.6 L-9.15 -38.65 M0.95 -63.85 L0.95 -63.75 1.4 -44.55 1.4 -44.45 1.4 -37.75 M6.95 -64.35 L7.05 -64.25 M0.95 -69.65 Q4.3 -67.85 6.95 -64.35 M0.95 -69.65 L0.95 -63.85 M13.0 -38.8 L12.45 -38.45 Q11.1 -37.75 10.6 -37.75 L4.9 -37.5 M-4.85 -65.0 L-4.55 -65.3 Q-1.5 -69.3 0.95 -69.65 M-6.2 -44.25 Q-8.45 -49.75 -8.65 -54.6 -8.95 -59.5 -4.85 -65.0 M-6.2 -44.25 L-2.4 -37.7 -2.25 -37.65" fill="none" stroke="#000000" stroke-linecap="round" stroke-linejoin="round" stroke-opacity="0.3019608" stroke-width="0.30000000000000004"/>
      <path d="M1.7 -99.1 Q1.95 -97.95 2.8 -97.6 3.6 -97.25 5.05 -98.8 6.45 -100.25 8.75 -99.8 11.1 -99.3 12.1 -97.15 L14.85 -96.85 Q16.5 -96.2 17.7 -93.45 18.9 -90.8 18.0 -89.1 17.15 -87.45 16.55 -87.2 L15.4 -86.8 Q14.85 -86.7 16.25 -88.1 17.65 -89.5 16.75 -92.35 15.8 -95.1 13.25 -95.9 14.0 -94.25 14.05 -92.4 14.15 -90.75 13.05 -89.4 12.0 -88.1 12.55 -89.45 13.15 -90.85 12.95 -92.6 L12.55 -95.2 Q12.25 -96.25 11.25 -96.6 10.35 -96.95 9.1 -95.7 7.8 -94.4 7.05 -92.8 6.35 -91.25 5.95 -91.15 5.6 -91.1 6.0 -92.4 6.4 -93.75 7.4 -95.3 8.4 -96.95 9.8 -97.4 L10.25 -97.55 9.2 -98.45 Q8.3 -98.9 7.55 -98.75 6.75 -98.7 5.85 -97.95 4.55 -96.85 3.1 -96.45 1.7 -96.05 0.95 -98.45 0.3 -100.85 0.5 -101.85 0.65 -102.9 0.95 -103.25 1.25 -103.65 1.4 -101.1 L1.7 -99.1" fill="#3b461b" fill-rule="evenodd" stroke="none"/>
      <path d="M1.7 -99.1 Q1.95 -97.95 2.8 -97.6 3.6 -97.25 5.05 -98.8 6.45 -100.25 8.75 -99.8 11.1 -99.3 12.1 -97.15 L14.85 -96.85 Q16.5 -96.2 17.7 -93.45 18.9 -90.8 18.0 -89.1 17.15 -87.45 16.55 -87.2 L15.4 -86.8 Q14.85 -86.7 16.25 -88.1 17.65 -89.5 16.75 -92.35 15.8 -95.1 13.25 -95.9 14.0 -94.25 14.05 -92.4 14.15 -90.75 13.05 -89.4 12.0 -88.1 12.55 -89.45 13.15 -90.85 12.95 -92.6 L12.55 -95.2 Q12.25 -96.25 11.25 -96.6 10.35 -96.95 9.1 -95.7 7.8 -94.4 7.05 -92.8 6.35 -91.25 5.95 -91.15 5.6 -91.1 6.0 -92.4 6.4 -93.75 7.4 -95.3 8.4 -96.95 9.8 -97.4 L10.25 -97.55 9.2 -98.45 Q8.3 -98.9 7.55 -98.75 6.75 -98.7 5.85 -97.95 4.55 -96.85 3.1 -96.45 1.7 -96.05 0.95 -98.45 0.3 -100.85 0.5 -101.85 0.65 -102.9 0.95 -103.25 1.25 -103.65 1.4 -101.1 L1.7 -99.1 Z" fill="none" stroke="#000000" stroke-linecap="round" stroke-linejoin="round" stroke-opacity="0.4" stroke-width="0.05"/>
      <path d="M16.3 -90.35 Q18.3 -88.3 19.05 -84.15 19.75 -80.1 18.45 -77.2 17.15 -74.15 15.65 -72.85 L13.05 -71.0 Q12.0 -70.45 11.05 -70.4 10.3 -70.4 9.6 -69.95 L9.2 -69.65 Q8.2 -69.1 7.85 -69.1 L3.6 -68.9 Q2.65 -68.75 0.4 -68.95 L-1.7 -69.05 -3.0 -68.85 -5.5 -69.05 -6.2 -69.35 -6.8 -69.8 -8.7 -69.8 Q-11.05 -70.55 -12.05 -71.55 -15.45 -75.0 -16.1 -76.3 -17.8 -80.25 -17.4 -83.1 -17.0 -86.0 -16.35 -87.7 -15.7 -89.35 -13.1 -91.65 -10.45 -93.95 -9.0 -94.3 L-5.35 -94.9 -2.65 -95.1 Q-1.35 -95.1 0.65 -94.2 4.3 -95.75 6.5 -95.4 8.65 -95.05 11.5 -93.75 14.3 -92.45 16.3 -90.35 M14.6 -79.7 L14.25 -77.7 Q13.8 -76.1 14.85 -74.8 15.9 -73.5 17.8 -76.95 19.65 -80.4 19.1 -83.55 18.5 -86.75 17.25 -88.75 15.95 -90.75 14.25 -91.7 12.55 -92.65 11.1 -93.15 L8.3 -93.55 Q7.05 -93.5 7.9 -92.8 L7.8 -92.85 Q6.25 -94.0 4.45 -94.5 L0.65 -94.2 3.8 -90.95 0.65 -94.2 4.45 -94.5 Q6.25 -94.0 7.8 -92.85 L7.9 -92.8 9.4 -91.55 8.5 -91.85 6.1 -92.65 Q4.1 -93.3 4.45 -92.4 L4.9 -90.95 4.8 -89.95 4.1 -90.75 3.8 -90.95 2.2 -92.0 Q1.05 -92.75 0.8 -91.6 L0.45 -90.1 0.0 -89.6 0.65 -94.2 Q-1.15 -93.95 -3.4 -90.8 -1.15 -93.95 0.65 -94.2 L0.0 -89.6 Q-0.25 -92.05 -0.65 -92.5 -1.35 -93.15 -3.4 -90.8 L-3.6 -90.55 Q-1.6 -94.05 -4.3 -92.95 L-7.95 -91.3 -7.9 -91.35 Q-4.95 -93.7 -7.65 -93.1 -10.4 -92.55 -11.95 -91.85 -13.55 -91.2 -15.0 -89.25 -16.5 -87.3 -16.95 -83.85 -17.4 -80.4 -16.35 -77.95 -15.35 -75.5 -13.85 -74.0 -12.4 -72.5 -12.1 -73.8 -11.85 -74.9 -12.1 -76.45 L-12.15 -76.65 -12.2 -76.75 -12.25 -76.95 Q-11.55 -75.3 -9.85 -73.45 -7.9 -71.25 -6.5 -72.2 -5.15 -73.15 -4.65 -74.2 L-1.8 -69.05 -1.7 -69.05 -1.8 -69.05 -4.65 -74.2 -3.6 -73.65 -1.85 -73.25 0.05 -73.4 0.4 -68.95 0.05 -73.4 0.05 -73.9 1.95 -72.6 Q2.7 -72.0 3.65 -72.3 L5.35 -73.5 6.6 -74.9 6.6 -74.8 Q7.05 -73.2 7.65 -72.8 8.25 -72.35 10.6 -73.75 12.9 -75.15 13.7 -77.35 L14.6 -79.7 Q13.35 -75.0 10.75 -71.25 L9.6 -69.95 10.75 -71.25 Q13.35 -75.0 14.6 -79.7 M3.6 -68.9 L4.65 -71.05 6.3 -74.1 6.6 -74.8 6.3 -74.1 4.65 -71.05 3.6 -68.9 M0.65 -94.2 Q-2.75 -94.8 -6.35 -92.4 L-7.95 -91.3 -6.35 -92.4 Q-2.75 -94.8 0.65 -94.2 M-6.8 -69.8 L-8.35 -71.35 Q-11.15 -73.95 -12.0 -76.05 L-12.1 -76.45 -12.0 -76.05 Q-11.15 -73.95 -8.35 -71.35 L-6.8 -69.8" fill="#d36719" fill-rule="evenodd" stroke="none"/>
      <path d="M7.9 -92.8 Q7.05 -93.5 8.3 -93.55 L11.1 -93.15 Q12.55 -92.65 14.25 -91.7 15.95 -90.75 17.25 -88.75 18.5 -86.75 19.1 -83.55 19.65 -80.4 17.8 -76.95 15.9 -73.5 14.85 -74.8 13.8 -76.1 14.25 -77.7 L14.6 -79.7 13.7 -77.35 Q12.9 -75.15 10.6 -73.75 8.25 -72.35 7.65 -72.8 7.05 -73.2 6.6 -74.8 L6.6 -74.9 Q7.8 -77.95 7.85 -81.35 7.9 -84.75 4.8 -89.95 L3.8 -90.95 4.1 -90.75 4.8 -89.95 4.9 -90.95 4.45 -92.4 Q4.1 -93.3 6.1 -92.65 L8.5 -91.85 9.4 -91.55 7.9 -92.8 M3.8 -90.95 L4.8 -89.95 Q7.9 -84.75 7.85 -81.35 7.8 -77.95 6.6 -74.9 L5.35 -73.5 3.65 -72.3 Q2.7 -72.0 1.95 -72.6 L0.05 -73.9 Q-0.15 -81.75 0.0 -89.6 -0.15 -81.75 0.05 -73.9 L0.05 -73.4 -1.85 -73.25 -3.6 -73.65 -4.65 -74.2 Q-6.3 -78.55 -6.45 -82.4 -6.65 -86.25 -3.6 -90.55 L-3.4 -90.8 Q-1.35 -93.15 -0.65 -92.5 -0.25 -92.05 0.0 -89.6 L0.45 -90.1 0.8 -91.6 Q1.05 -92.75 2.2 -92.0 L3.8 -90.95 M9.4 -91.55 Q11.0 -90.3 13.05 -86.55 15.1 -82.8 14.6 -79.7 15.1 -82.8 13.05 -86.55 11.0 -90.3 9.4 -91.55 M-7.9 -91.35 L-7.95 -91.3 Q-15.0 -85.65 -12.45 -77.5 L-12.25 -76.95 -12.45 -77.5 Q-15.0 -85.65 -7.95 -91.3 L-4.3 -92.95 Q-1.6 -94.05 -3.6 -90.55 -6.65 -86.25 -6.45 -82.4 -6.3 -78.55 -4.65 -74.2 -5.15 -73.15 -6.5 -72.2 -7.9 -71.25 -9.85 -73.45 -11.55 -75.3 -12.25 -76.95 L-12.2 -76.75 -12.15 -76.65 -12.1 -76.45 Q-11.85 -74.9 -12.1 -73.8 -12.4 -72.5 -13.85 -74.0 -15.35 -75.5 -16.35 -77.95 -17.4 -80.4 -16.95 -83.85 -16.5 -87.3 -15.0 -89.25 -13.55 -91.2 -11.95 -91.85 -10.4 -92.55 -7.65 -93.1 -4.95 -93.7 -7.9 -91.35" fill="url(#decoration169-gradient2)" fill-rule="evenodd" stroke="none"/>
      <path d="M16.3 -90.35 Q18.3 -88.3 19.05 -84.15 19.75 -80.1 18.45 -77.2 17.15 -74.15 15.65 -72.85 L13.05 -71.0 Q12.0 -70.45 11.05 -70.4 10.3 -70.4 9.6 -69.95 L9.2 -69.65 Q8.2 -69.1 7.85 -69.1 L3.6 -68.9 Q2.65 -68.75 0.4 -68.95 L-1.7 -69.05 -3.0 -68.85 -5.5 -69.05 -6.2 -69.35 -6.8 -69.8 -8.7 -69.8 Q-11.05 -70.55 -12.05 -71.55 -15.45 -75.0 -16.1 -76.3 -17.8 -80.25 -17.4 -83.1 -17.0 -86.0 -16.35 -87.7 -15.7 -89.35 -13.1 -91.65 -10.45 -93.95 -9.0 -94.3 L-5.35 -94.9 -2.65 -95.1 Q-1.35 -95.1 0.65 -94.2 4.3 -95.75 6.5 -95.4 8.65 -95.05 11.5 -93.75 14.3 -92.45 16.3 -90.35 M14.6 -79.7 Q13.35 -75.0 10.75 -71.25 L9.6 -69.95 M7.9 -92.8 L7.8 -92.85 Q6.25 -94.0 4.45 -94.5 L0.65 -94.2 3.8 -90.95 M9.4 -91.55 L7.9 -92.8 M6.6 -74.9 Q7.8 -77.95 7.85 -81.35 7.9 -84.75 4.8 -89.95 L3.8 -90.95 M0.0 -89.6 Q-0.15 -81.75 0.05 -73.9 M6.6 -74.9 L6.6 -74.8 6.3 -74.1 4.65 -71.05 3.6 -68.9 M14.6 -79.7 Q15.1 -82.8 13.05 -86.55 11.0 -90.3 9.4 -91.55 M0.0 -89.6 L0.65 -94.2 Q-1.15 -93.95 -3.4 -90.8 M0.05 -73.4 L0.4 -68.95 M0.05 -73.4 L0.05 -73.9 M-7.95 -91.3 L-7.9 -91.35 M-12.1 -76.45 L-12.15 -76.65 -12.2 -76.75 -12.25 -76.95 -12.45 -77.5 Q-15.0 -85.65 -7.95 -91.3 L-6.35 -92.4 Q-2.75 -94.8 0.65 -94.2 M-3.6 -90.55 L-3.4 -90.8 M-12.1 -76.45 L-12.0 -76.05 Q-11.15 -73.95 -8.35 -71.35 L-6.8 -69.8 M-4.65 -74.2 Q-6.3 -78.55 -6.45 -82.4 -6.65 -86.25 -3.6 -90.55 M-4.65 -74.2 L-1.8 -69.05 -1.7 -69.05" fill="none" stroke="#000000" stroke-linecap="round" stroke-linejoin="round" stroke-opacity="0.3019608" stroke-width="0.30000000000000004"/>
      <path d="M3.9 -101.95 L3.05 -102.85 Q2.3 -103.5 1.65 -102.65 1.0 -101.8 0.8 -100.6 0.55 -99.45 0.4 -96.75 L0.2 -94.55 Q0.0 -94.3 -3.0 -93.6 L-1.35 -93.55 Q-0.45 -93.65 -0.55 -93.05 L-0.95 -92.0 0.8 -93.45 2.9 -92.7 2.35 -93.8 4.25 -94.55 1.4 -94.3 1.9 -95.15 6.1 -95.95 Q7.4 -94.3 9.75 -94.35 L3.1 -93.6 Q3.05 -92.55 6.85 -90.8 3.2 -92.3 0.6 -92.75 -0.15 -92.35 -1.05 -91.0 L-2.5 -88.75 -1.85 -90.4 Q-1.55 -91.3 -1.5 -92.8 L-7.1 -91.6 Q-2.5 -93.35 -4.0 -93.8 -5.15 -94.25 -10.2 -93.9 -5.9 -94.3 -5.55 -95.4 L-1.1 -95.15 Q-0.25 -99.25 -0.55 -102.05 -2.95 -103.3 0.15 -104.25 3.2 -105.2 3.75 -104.25 4.1 -103.75 3.9 -101.95 M-1.1 -94.65 L-1.1 -95.15 -1.1 -94.65" fill="#3b461b" fill-rule="evenodd" stroke="none"/>
      <path d="M3.9 -101.95 L3.35 -99.15 1.9 -95.15 1.4 -94.3 4.25 -94.55 2.35 -93.8 2.9 -92.7 0.8 -93.45 -0.95 -92.0 -0.55 -93.05 Q-0.45 -93.65 -1.35 -93.55 L-3.0 -93.6 Q0.0 -94.3 0.2 -94.55 L0.4 -96.75 Q0.55 -99.45 0.8 -100.6 1.0 -101.8 1.65 -102.65 2.3 -103.5 3.05 -102.85 L3.9 -101.95" fill="#808c20" fill-rule="evenodd" stroke="none"/>
      <path d="M1.9 -95.15 L3.35 -99.15 3.9 -101.95 M1.4 -94.3 L1.9 -95.15 6.1 -95.95 Q7.4 -94.3 9.75 -94.35 L3.1 -93.6 Q3.05 -92.55 6.85 -90.8 3.2 -92.3 0.6 -92.75 -0.15 -92.35 -1.05 -91.0 L-2.5 -88.75 -1.85 -90.4 Q-1.55 -91.3 -1.5 -92.8 L-7.1 -91.6 Q-2.5 -93.35 -4.0 -93.8 -5.15 -94.25 -10.2 -93.9 -5.9 -94.3 -5.55 -95.4 L-1.1 -95.15 Q-0.25 -99.25 -0.55 -102.05 -2.95 -103.3 0.15 -104.25 3.2 -105.2 3.75 -104.25 4.1 -103.75 3.9 -101.95 M-1.1 -95.15 L-1.1 -94.65" fill="none" stroke="#000000" stroke-linecap="round" stroke-linejoin="round" stroke-opacity="0.3019608" stroke-width="0.30000000000000004"/>
      <path d="M1.95 -55.35 L-0.1 -55.3 -12.6 -55.65 -16.45 -56.05 -12.25 -58.0 -9.6 -59.25 -8.2 -57.75 Q-7.2 -57.05 -6.65 -57.05 -5.65 -57.05 -4.9 -58.5 L-4.5 -59.75 -4.5 -61.5 3.95 -64.7 4.1 -64.6 5.5 -63.5 6.0 -63.1 5.75 -62.9 Q4.95 -62.05 4.95 -60.9 4.95 -59.75 5.75 -59.0 6.6 -58.15 7.75 -58.15 8.9 -58.15 9.7 -59.0 10.55 -59.75 10.55 -60.9 10.55 -62.05 9.7 -62.9 9.0 -63.55 8.0 -63.65 L6.75 -65.05 6.4 -65.55 10.95 -66.9 11.7 -65.95 Q15.6 -60.65 16.1 -56.85 L13.95 -56.55 14.25 -56.55 2.6 -55.45 1.95 -55.35" fill="url(#decoration169-gradient3)" fill-rule="evenodd" stroke="none"/>
      <path d="M1.95 -55.35 L2.6 -55.45 2.6 -55.35 1.95 -55.35" fill="#eab427" fill-rule="evenodd" stroke="none"/>
      <path d="M11.05 -44.5 L11.2 -44.85 11.75 -45.35 12.45 -46.35 12.55 -47.1 Q12.55 -48.15 11.75 -48.95 11.0 -49.65 9.95 -49.65 L8.8 -49.4 8.25 -49.9 7.45 -50.35 6.7 -50.15 6.6 -50.1 Q6.15 -49.75 6.05 -49.25 L5.8 -48.95 5.55 -48.1 Q5.55 -47.1 6.3 -46.85 L6.25 -45.9 Q6.2 -45.35 6.6 -44.85 L7.05 -44.4 -7.15 -43.8 Q-6.25 -46.0 -6.25 -47.75 L-6.25 -47.85 -6.25 -48.3 Q-6.4 -49.35 -7.2 -50.15 -8.15 -51.05 -9.55 -51.05 -10.9 -51.05 -11.85 -50.15 -12.8 -49.2 -12.8 -47.85 -12.8 -46.5 -12.2 -45.95 -11.7 -45.5 -11.3 -45.4 -11.1 -45.35 -11.05 -44.35 -15.3 -45.25 -16.45 -46.7 -16.9 -50.15 -16.35 -54.0 L-1.6 -52.85 Q6.05 -52.7 14.45 -54.7 14.95 -50.15 14.45 -44.8 L13.7 -44.7 12.6 -44.6 11.05 -44.5" fill="url(#decoration169-gradient4)" fill-rule="evenodd" stroke="none"/>
      <path d="M11.05 -44.5 L12.6 -44.6 13.7 -44.7 14.45 -44.8 Q14.95 -50.15 14.45 -54.7 L16.6 -54.9 Q17.2 -46.5 16.55 -43.6 L10.3 -42.6 10.4 -42.85 11.05 -44.5 M-16.45 -46.7 Q-15.3 -45.25 -11.05 -44.35 L-11.1 -43.4 -10.75 -42.65 Q-14.05 -43.05 -16.2 -44.6 L-16.45 -46.7 M-6.25 -47.75 Q-6.25 -46.0 -7.15 -43.8 L7.05 -44.4 6.6 -44.85 Q6.2 -45.35 6.25 -45.9 L6.3 -46.85 Q5.55 -47.1 5.55 -48.1 L5.8 -48.95 6.05 -49.25 6.0 -48.95 Q5.95 -48.15 6.6 -47.8 6.95 -47.5 7.45 -47.5 7.05 -45.95 8.3 -45.2 L8.85 -44.8 7.65 -42.6 -4.05 -41.95 -5.75 -42.05 -8.3 -43.85 -8.85 -44.65 Q-7.95 -44.8 -7.2 -45.55 -6.3 -46.45 -6.25 -47.75 M16.55 -43.6 L14.45 -44.8 16.55 -43.6" fill="#fabf29" fill-rule="evenodd" stroke="none"/>
      <path d="M2.6 -55.45 L14.25 -56.55 13.95 -56.55 16.1 -56.85 Q15.6 -60.65 11.7 -65.95 L10.95 -66.9 6.4 -65.55 6.75 -65.05 8.0 -63.65 Q9.0 -63.55 9.7 -62.9 10.55 -62.05 10.55 -60.9 10.55 -59.75 9.7 -59.0 8.9 -58.15 7.75 -58.15 6.6 -58.15 5.75 -59.0 4.95 -59.75 4.95 -60.9 4.95 -62.05 5.75 -62.9 L6.0 -63.1 5.5 -63.5 4.1 -64.6 3.95 -64.7 -4.5 -61.5 -4.5 -59.75 -4.9 -58.5 Q-5.65 -57.05 -6.65 -57.05 -7.2 -57.05 -8.2 -57.75 L-9.6 -59.25 -12.25 -58.0 -16.45 -56.05 -12.6 -55.65 -0.1 -55.3 1.95 -55.35 2.6 -55.45 M6.05 -49.25 Q6.15 -49.75 6.6 -50.1 L6.7 -50.15 7.45 -50.35 8.25 -49.9 8.8 -49.4 9.95 -49.65 Q11.0 -49.65 11.75 -48.95 12.55 -48.15 12.55 -47.1 L12.45 -46.35 11.75 -45.35 11.2 -44.85 11.05 -44.5 12.6 -44.6 13.7 -44.7 14.45 -44.8 Q14.95 -50.15 14.45 -54.7 6.05 -52.7 -1.6 -52.85 L-16.35 -54.0 Q-16.9 -50.15 -16.45 -46.7 -15.3 -45.25 -11.05 -44.35 -11.1 -45.35 -11.3 -45.4 -11.7 -45.5 -12.2 -45.95 -12.8 -46.5 -12.8 -47.85 -12.8 -49.2 -11.85 -50.15 -10.9 -51.05 -9.55 -51.05 -8.15 -51.05 -7.2 -50.15 -6.4 -49.35 -6.25 -48.3 L-6.25 -47.85 -6.25 -47.75 Q-6.25 -46.0 -7.15 -43.8 L7.05 -44.4 6.6 -44.85 Q6.2 -45.35 6.25 -45.9 L6.3 -46.85 Q5.55 -47.1 5.55 -48.1 L5.8 -48.95 6.05 -49.25 6.0 -48.95 Q5.95 -48.15 6.6 -47.8 6.95 -47.5 7.45 -47.5 7.05 -45.95 8.3 -45.2 L8.85 -44.8 7.65 -42.6 -4.05 -41.95 -5.75 -42.05 -8.3 -43.85 -8.85 -44.65 Q-7.95 -44.8 -7.2 -45.55 -6.3 -46.45 -6.25 -47.75 M14.45 -54.7 L16.6 -54.9 Q17.2 -46.5 16.55 -43.6 L10.3 -42.6 10.4 -42.85 11.05 -44.5 M14.45 -44.8 L16.55 -43.6 M-16.45 -46.7 L-16.2 -44.6 Q-14.05 -43.05 -10.75 -42.65 L-11.1 -43.4 -11.05 -44.35" fill="none" stroke="#000000" stroke-linecap="round" stroke-linejoin="round" stroke-opacity="0.2509804" stroke-width="0.05"/>
      <path d="M-0.75 -81.25 L1.9 -81.35 2.3 -80.55 -1.15 -80.55 -0.75 -81.25" fill="#fabf29" fill-rule="evenodd" stroke="none"/>
      <path d="M-0.75 -81.25 L0.6 -83.65 1.9 -81.35 -0.75 -81.25" fill="url(#decoration169-gradient5)" fill-rule="evenodd" stroke="none"/>
      <path d="M1.9 -81.35 L0.6 -83.65 -0.75 -81.25 1.9 -81.35 2.3 -80.55 -1.15 -80.55 -0.75 -81.25 M-2.3 -75.55 L-2.55 -75.45" fill="none" stroke="#000000" stroke-linecap="round" stroke-linejoin="round" stroke-opacity="0.3019608" stroke-width="0.05"/>
      <path d="M-8.75 -83.9 L-11.55 -88.15 -9.9 -88.15 -9.95 -87.9 Q-9.95 -87.15 -9.35 -86.65 -8.7 -86.05 -7.8 -86.05 -6.95 -86.05 -6.4 -86.65 -5.7 -87.15 -5.7 -87.9 L-5.7 -88.15 -2.55 -88.15 Q-3.45 -86.45 -6.6 -82.25 -7.7 -83.3 -8.75 -83.9" fill="url(#decoration169-gradient6)" fill-rule="evenodd" stroke="none"/>
      <path d="M-2.55 -88.15 L-1.55 -88.15 -6.55 -80.55 -8.75 -83.9 Q-7.7 -83.3 -6.6 -82.25 -3.45 -86.45 -2.55 -88.15" fill="#fabf29" fill-rule="evenodd" stroke="none"/>
      <path d="M-8.75 -83.9 L-11.55 -88.15 -9.9 -88.15 -9.95 -87.9 Q-9.95 -87.15 -9.35 -86.65 -8.7 -86.05 -7.8 -86.05 -6.95 -86.05 -6.4 -86.65 -5.7 -87.15 -5.7 -87.9 L-5.7 -88.15 -2.55 -88.15 -1.55 -88.15 -6.55 -80.55 -8.75 -83.9 Q-7.7 -83.3 -6.6 -82.25 -3.45 -86.45 -2.55 -88.15" fill="none" stroke="#000000" stroke-linecap="round" stroke-linejoin="round" stroke-opacity="0.3019608" stroke-width="0.05"/>
      <path d="M12.15 -88.05 L13.15 -88.05 8.15 -80.45 5.95 -83.8 8.1 -82.15 Q11.25 -86.35 12.15 -88.05" fill="#fabf29" fill-rule="evenodd" stroke="none"/>
      <path d="M5.95 -83.8 L3.15 -88.05 4.8 -88.05 4.75 -87.8 Q4.75 -87.05 5.35 -86.55 6.0 -85.95 6.9 -85.95 7.75 -85.95 8.3 -86.55 9.0 -87.05 9.0 -87.8 L9.0 -88.05 12.15 -88.05 Q11.25 -86.35 8.1 -82.15 L5.95 -83.8" fill="url(#decoration169-gradient7)" fill-rule="evenodd" stroke="none"/>
      <path d="M12.15 -88.05 L13.15 -88.05 8.15 -80.45 5.95 -83.8 3.15 -88.05 4.8 -88.05 4.75 -87.8 Q4.75 -87.05 5.35 -86.55 6.0 -85.95 6.9 -85.95 7.75 -85.95 8.3 -86.55 9.0 -87.05 9.0 -87.8 L9.0 -88.05 12.15 -88.05 Q11.25 -86.35 8.1 -82.15 L5.95 -83.8" fill="none" stroke="#000000" stroke-linecap="round" stroke-linejoin="round" stroke-opacity="0.3019608" stroke-width="0.05"/>
      <path d="M-7.8 -73.95 L-11.5 -81.45 -7.25 -76.35 -2.65 -79.15 0.45 -76.05 3.6 -79.15 8.15 -76.35 12.45 -81.45 10.35 -77.25 7.6 -74.3 5.15 -76.05 3.5 -77.15 2.1 -75.85 0.25 -73.85 -1.15 -74.7 -2.55 -75.55 -2.65 -75.6 -2.85 -75.45 -7.8 -73.95" fill="url(#decoration169-gradient8)" fill-rule="evenodd" stroke="none"/>
      <path d="M-7.8 -73.95 L-2.85 -75.45 -7.25 -72.8 -7.8 -73.95 M-2.55 -75.55 L-1.15 -74.7 0.25 -73.85 2.1 -75.85 3.5 -77.15 5.15 -76.05 7.6 -74.3 10.35 -77.25 8.15 -72.8 3.6 -75.6 0.45 -72.5 -2.55 -75.55" fill="#fabf29" fill-rule="evenodd" stroke="none"/>
      <path d="M10.35 -77.25 L12.45 -81.45 8.15 -76.35 3.6 -79.15 0.45 -76.05 -2.65 -79.15 -7.25 -76.35 -11.5 -81.45 -7.8 -73.95 -2.85 -75.45 -2.65 -75.6 -2.55 -75.55 -1.15 -74.7 0.25 -73.85 2.1 -75.85 3.5 -77.15 5.15 -76.05 7.6 -74.3 10.35 -77.25 8.15 -72.8 3.6 -75.6 0.45 -72.5 -2.55 -75.55 M-2.85 -75.45 L-7.25 -72.8 -7.8 -73.95" fill="none" stroke="#000000" stroke-linecap="round" stroke-linejoin="round" stroke-opacity="0.3019608" stroke-width="0.05"/>
      <path d="M18.2 -33.85 L20.05 -34.8 Q22.9 -32.1 22.9 -28.3 L22.9 -28.1 20.1 -28.4 Q19.85 -30.45 18.2 -33.85 M19.75 -25.5 L20.85 -22.85 20.05 -22.0 Q17.35 -19.35 13.45 -19.35 L13.0 -19.35 Q15.3 -19.9 17.6 -22.3 19.15 -23.8 19.75 -25.5" fill="url(#decoration169-gradient9)" fill-rule="evenodd" stroke="none"/>
      <path d="M18.2 -33.85 Q19.85 -30.45 20.1 -28.4 L18.35 -28.45 19.75 -25.5 Q19.15 -23.8 17.6 -22.3 15.3 -19.9 13.0 -19.35 9.35 -19.55 6.75 -22.0 5.0 -23.7 4.35 -26.05 L4.2 -26.65 18.2 -33.85" fill="url(#decoration169-gradient10)" fill-rule="evenodd" stroke="none"/>
      <path d="M0.2 -26.65 L0.45 -27.2 4.2 -17.55 -0.75 -19.65 2.0 -19.4 1.25 -23.25 0.2 -26.65" fill="url(#decoration169-gradient11)" fill-rule="evenodd" stroke="none"/>
      <path d="M0.2 -26.65 L1.25 -23.25 2.0 -19.4 -0.75 -19.65 -0.85 -19.7 -3.85 -17.5 0.2 -26.65" fill="url(#decoration169-gradient12)" fill-rule="evenodd" stroke="none"/>
      <path d="M20.4 -16.9 Q22.25 -17.65 24.1 -18.5 22.9 -14.85 18.25 -9.65 15.7 -6.85 12.45 -4.3 L12.35 -4.25 7.45 -5.75 7.25 -3.25 Q7.1 -1.15 7.25 -0.7 L7.15 -0.65 5.75 -1.9 5.5 -2.1 6.2 -7.65 11.7 -6.4 Q16.85 -10.15 20.4 -16.9 M-2.15 -1.4 L-3.05 -0.2 -3.2 -0.2 -3.85 -2.95 -2.15 -1.4 M-5.05 -5.0 L-8.3 -2.7 -10.1 -3.9 Q-20.4 -11.35 -22.6 -17.5 L-20.4 -16.6 Q-15.05 -9.6 -8.8 -4.65 L-5.05 -5.0" fill="url(#decoration169-gradient13)" fill-rule="evenodd" stroke="none"/>
      <path d="M5.5 -2.1 L1.15 -6.55 -2.15 -1.4 -3.85 -2.95 -4.5 -5.25 Q-4.7 -5.15 -5.05 -5.0 L-8.8 -4.65 Q-15.05 -9.6 -20.4 -16.6 -17.0 -15.4 -13.65 -14.6 L-8.4 -8.35 -5.05 -14.95 Q0.6 -12.65 5.95 -15.05 L9.85 -8.9 13.65 -14.65 Q17.05 -15.6 20.4 -16.9 16.85 -10.15 11.7 -6.4 L6.2 -7.65 5.5 -2.1" fill="url(#decoration169-gradient14)" fill-rule="evenodd" stroke="none"/>
      <path d="M-6.4 -27.6 L-3.85 -26.3 Q-4.35 -24.55 -5.55 -23.05 L-6.5 -22.15 Q-9.2 -19.4 -13.1 -19.4 -16.85 -19.4 -19.5 -21.85 L-17.2 -21.8 Q-13.2 -21.8 -11.05 -22.85 -8.3 -24.1 -6.4 -27.6" fill="url(#decoration169-gradient15)" fill-rule="evenodd" stroke="none"/>
      <path d="M-19.5 -21.85 L-19.75 -22.15 -20.9 -23.45 -17.8 -27.65 -22.45 -27.5 -22.5 -28.45 Q-22.5 -31.35 -20.75 -33.6 L-19.8 -34.8 -6.4 -27.6 Q-8.3 -24.1 -11.05 -22.85 -13.2 -21.8 -17.2 -21.8 L-19.5 -21.85" fill="url(#decoration169-gradient16)" fill-rule="evenodd" stroke="none"/>
      <path d="M20.1 -28.4 L22.9 -28.1 22.9 -28.3 Q22.9 -32.1 20.05 -34.8 L18.2 -33.85 M20.1 -28.4 L18.35 -28.45 19.75 -25.5 20.85 -22.85 20.05 -22.0 Q17.35 -19.35 13.45 -19.35 L13.0 -19.35 Q9.35 -19.55 6.75 -22.0 5.0 -23.7 4.35 -26.05 L4.2 -26.65 18.2 -33.85 M-0.75 -19.65 L4.2 -17.55 0.45 -27.2 0.2 -26.65 M-0.75 -19.65 L-0.85 -19.7 -3.85 -17.5 0.2 -26.65 M20.4 -16.9 Q22.25 -17.65 24.1 -18.5 22.9 -14.85 18.25 -9.65 15.7 -6.85 12.45 -4.3 L12.35 -4.25 7.45 -5.75 7.25 -3.25 Q7.1 -1.15 7.25 -0.7 L7.15 -0.65 5.75 -1.9 5.5 -2.1 1.15 -6.55 -2.15 -1.4 -3.05 -0.2 M-3.2 -0.2 L-3.85 -2.95 -4.5 -5.25 Q-4.7 -5.15 -5.05 -5.0 L-8.3 -2.7 -10.1 -3.9 Q-20.4 -11.35 -22.6 -17.5 L-20.4 -16.6 Q-17.0 -15.4 -13.65 -14.6 L-8.4 -8.35 -5.05 -14.95 Q0.6 -12.65 5.95 -15.05 L9.85 -8.9 13.65 -14.65 Q17.05 -15.6 20.4 -16.9 M-6.4 -27.6 L-3.85 -26.3 Q-4.35 -24.55 -5.55 -23.05 L-6.5 -22.15 Q-9.2 -19.4 -13.1 -19.4 -16.85 -19.4 -19.5 -21.85 L-19.75 -22.15 -20.9 -23.45 -17.8 -27.65 -22.45 -27.5 -22.5 -28.45 Q-22.5 -31.35 -20.75 -33.6 L-19.8 -34.8 -6.4 -27.6" fill="none" stroke="#000000" stroke-linecap="round" stroke-linejoin="round" stroke-opacity="0.4" stroke-width="0.30000000000000004"/>
      <path d="M19.35 -69.0 Q19.25 -70.05 20.25 -70.9 21.2 -71.8 21.85 -71.95 L22.1 -72.8 Q23.6 -76.8 24.8 -74.7 L24.8 -73.65 Q26.35 -74.8 26.6 -74.55 27.6 -74.7 27.9 -74.1 28.2 -73.6 27.4 -72.7 L28.25 -72.3 29.5 -71.3 29.6 -71.15 29.65 -71.05 Q30.05 -70.35 29.35 -69.95 L29.2 -69.85 28.8 -69.65 Q28.1 -69.2 26.85 -68.9 L25.7 -68.7 25.35 -67.9 24.95 -67.15 24.85 -67.1 24.75 -67.05 23.8 -67.1 23.65 -67.3 23.5 -67.45 22.85 -68.4 Q20.85 -67.0 19.9 -67.25 19.5 -68.0 19.35 -69.0 M20.45 -68.4 Q20.25 -70.25 21.85 -71.95 24.7 -72.25 27.9 -70.75 24.7 -72.25 21.85 -71.95 20.25 -70.25 20.45 -68.4" fill="#3b461b" fill-rule="evenodd" stroke="none"/>
      <path d="M19.35 -69.0 Q19.25 -70.05 20.25 -70.9 21.2 -71.8 21.85 -71.95 L22.1 -72.8 Q23.6 -76.8 24.8 -74.7 L24.8 -73.65 Q26.35 -74.8 26.6 -74.55 27.6 -74.7 27.9 -74.1 28.2 -73.6 27.4 -72.7 L28.25 -72.3 29.5 -71.3 29.6 -71.15 29.65 -71.05 Q30.05 -70.35 29.35 -69.95 L29.2 -69.85 28.8 -69.65 Q28.1 -69.2 26.85 -68.9 L25.7 -68.7 25.35 -67.9 24.95 -67.15 24.85 -67.1 24.75 -67.05 23.8 -67.1 23.65 -67.3 23.5 -67.45 22.85 -68.4 Q20.85 -67.0 19.9 -67.25 19.5 -68.0 19.35 -69.0 M27.9 -70.75 Q24.7 -72.25 21.85 -71.95 20.25 -70.25 20.45 -68.4" fill="none" stroke="#000000" stroke-linecap="round" stroke-linejoin="round" stroke-opacity="0.3019608" stroke-width="0.05"/>
      <path d="M-25.9 -50.8 Q-25.25 -50.65 -24.3 -49.75 -23.3 -48.9 -23.4 -47.85 -23.55 -46.85 -23.95 -46.1 -24.9 -45.85 -26.9 -47.25 L-27.55 -46.3 -27.7 -46.15 -27.85 -45.95 -28.8 -45.9 -28.9 -45.95 -29.0 -46.0 Q-29.2 -46.1 -29.4 -46.75 L-29.75 -47.55 -30.9 -47.75 Q-32.15 -48.05 -32.85 -48.5 L-33.25 -48.7 -33.4 -48.8 Q-34.1 -49.2 -33.7 -49.9 L-33.65 -50.0 -33.55 -50.15 -32.3 -51.15 -31.45 -51.55 Q-32.25 -52.45 -31.95 -52.95 -31.65 -53.55 -30.65 -53.4 -30.4 -53.65 -28.85 -52.5 L-28.85 -53.55 Q-27.65 -55.65 -26.15 -51.65 L-25.9 -50.8 Q-28.75 -51.1 -31.95 -49.6 -28.75 -51.1 -25.9 -50.8 -24.3 -49.1 -24.5 -47.25 -24.3 -49.1 -25.9 -50.8" fill="#3b461b" fill-rule="evenodd" stroke="none"/>
      <path d="M-25.9 -50.8 L-26.15 -51.65 Q-27.65 -55.65 -28.85 -53.55 L-28.85 -52.5 Q-30.4 -53.65 -30.65 -53.4 -31.65 -53.55 -31.95 -52.95 -32.25 -52.45 -31.45 -51.55 L-32.3 -51.15 -33.55 -50.15 -33.65 -50.0 -33.7 -49.9 Q-34.1 -49.2 -33.4 -48.8 L-33.25 -48.7 -32.85 -48.5 Q-32.15 -48.05 -30.9 -47.75 L-29.75 -47.55 -29.4 -46.75 Q-29.2 -46.1 -29.0 -46.0 L-28.9 -45.95 -28.8 -45.9 -27.85 -45.95 -27.7 -46.15 -27.55 -46.3 -26.9 -47.25 Q-24.9 -45.85 -23.95 -46.1 -23.55 -46.85 -23.4 -47.85 -23.3 -48.9 -24.3 -49.75 -25.25 -50.65 -25.9 -50.8 -24.3 -49.1 -24.5 -47.25 M-31.95 -49.6 Q-28.75 -51.1 -25.9 -50.8 Z" fill="none" stroke="#000000" stroke-linecap="round" stroke-linejoin="round" stroke-opacity="0.3019608" stroke-width="0.05"/>
    </g>
    <radialGradient cx="0" cy="0" fx="28.8" fy="0" gradientTransform="matrix(0.0316, 0.0, 0.0, 0.017, -0.55, -21.15)" gradientUnits="userSpaceOnUse" id="decoration169-gradient0" r="819.2" spreadMethod="pad">
      <stop offset="0.1803921568627451" stop-color="#ffb11d"/>
      <stop offset="0.9607843137254902" stop-color="#d86e13"/>
    </radialGradient>
    <radialGradient cx="0" cy="0" fx="28.8" fy="0" gradientTransform="matrix(0.0249, 0.0, 0.0, 0.0127, 0.6, -54.1)" gradientUnits="userSpaceOnUse" id="decoration169-gradient1" r="819.2" spreadMethod="pad">
      <stop offset="0.1803921568627451" stop-color="#ff992a"/>
      <stop offset="0.9607843137254902" stop-color="#f96420"/>
    </radialGradient>
    <radialGradient cx="0" cy="0" fx="28.8" fy="0" gradientTransform="matrix(0.0204, 0.0055, -0.003, 0.011, 0.4, -82.0)" gradientUnits="userSpaceOnUse" id="decoration169-gradient2" r="819.2" spreadMethod="pad">
      <stop offset="0.1803921568627451" stop-color="#ffa545"/>
      <stop offset="0.9725490196078431" stop-color="#ff9d24"/>
    </radialGradient>
    <radialGradient cx="0" cy="0" fx="6.4" fy="0" gradientTransform="matrix(0.0323, 0.0, 0.0, 0.0253, -0.45, -51.55)" gradientUnits="userSpaceOnUse" id="decoration169-gradient3" r="819.2" spreadMethod="pad">
      <stop offset="0.21176470588235294" stop-color="#ffeaa6"/>
      <stop offset="0.3803921568627451" stop-color="#fff45b"/>
      <stop offset="0.8313725490196079" stop-color="#e09506"/>
    </radialGradient>
    <radialGradient cx="0" cy="0" fx="6.4" fy="0" gradientTransform="matrix(0.0325, 0.0, 0.0, 0.0273, 0.05, -49.55)" gradientUnits="userSpaceOnUse" id="decoration169-gradient4" r="819.2" spreadMethod="pad">
      <stop offset="0.21176470588235294" stop-color="#ffeaa6"/>
      <stop offset="0.3803921568627451" stop-color="#fff45b"/>
      <stop offset="0.8313725490196079" stop-color="#e09506"/>
    </radialGradient>
    <radialGradient cx="0" cy="0" fx="6.4" fy="0" gradientTransform="matrix(0.0029, 0.0, 0.0, 0.0029, 0.6, -82.1)" gradientUnits="userSpaceOnUse" id="decoration169-gradient5" r="819.2" spreadMethod="pad">
      <stop offset="0.21176470588235294" stop-color="#ffeaa6"/>
      <stop offset="0.3803921568627451" stop-color="#fff45b"/>
      <stop offset="0.8313725490196079" stop-color="#e09506"/>
    </radialGradient>
    <radialGradient cx="0" cy="0" fx="6.4" fy="0" gradientTransform="matrix(0.0086, -0.0058, 0.0067, 0.0074, -6.55, -84.35)" gradientUnits="userSpaceOnUse" id="decoration169-gradient6" r="819.2" spreadMethod="pad">
      <stop offset="0.21176470588235294" stop-color="#ffeaa6"/>
      <stop offset="0.3803921568627451" stop-color="#fff45b"/>
      <stop offset="0.8313725490196079" stop-color="#e09506"/>
    </radialGradient>
    <radialGradient cx="0" cy="0" fx="6.4" fy="0" gradientTransform="matrix(0.0086, -0.0058, 0.0067, 0.0074, 8.15, -84.25)" gradientUnits="userSpaceOnUse" id="decoration169-gradient7" r="819.2" spreadMethod="pad">
      <stop offset="0.21176470588235294" stop-color="#ffeaa6"/>
      <stop offset="0.3803921568627451" stop-color="#fff45b"/>
      <stop offset="0.8313725490196079" stop-color="#e09506"/>
    </radialGradient>
    <radialGradient cx="0" cy="0" fx="6.4" fy="0" gradientTransform="matrix(0.0159, 0.0, 0.0, 0.0139, 0.45, -78.65)" gradientUnits="userSpaceOnUse" id="decoration169-gradient8" r="819.2" spreadMethod="pad">
      <stop offset="0.21176470588235294" stop-color="#ffeaa6"/>
      <stop offset="0.3803921568627451" stop-color="#fff45b"/>
      <stop offset="0.8313725490196079" stop-color="#e09506"/>
    </radialGradient>
    <radialGradient cx="0" cy="0" fx="6.4" fy="0" gradientTransform="matrix(1.4372, 0.0, 0.0, 1.3825, -53.55, -178.0)" gradientUnits="userSpaceOnUse" id="decoration169-gradient9" r="819.2" spreadMethod="pad">
      <stop offset="0.0" stop-color="#fff269"/>
      <stop offset="0.2235294117647059" stop-color="#e09506"/>
    </radialGradient>
    <radialGradient cx="0" cy="0" fx="6.4" fy="0" gradientTransform="matrix(0.0179, 0.0, 0.0, 0.0172, 12.3, -26.45)" gradientUnits="userSpaceOnUse" id="decoration169-gradient10" r="819.2" spreadMethod="pad">
      <stop offset="0.21176470588235294" stop-color="#ffeaa6"/>
      <stop offset="0.3803921568627451" stop-color="#fff45b"/>
      <stop offset="0.8313725490196079" stop-color="#e09506"/>
    </radialGradient>
    <radialGradient cx="0" cy="0" fx="6.4" fy="0" gradientTransform="matrix(1.4372, 0.0, 0.0, 1.3825, -49.95, -180.4)" gradientUnits="userSpaceOnUse" id="decoration169-gradient11" r="819.2" spreadMethod="pad">
      <stop offset="0.0" stop-color="#fff269"/>
      <stop offset="0.2235294117647059" stop-color="#e09506"/>
    </radialGradient>
    <radialGradient cx="0" cy="0" fx="6.4" fy="0" gradientTransform="matrix(0.0119, 0.0, 0.0, 0.0114, 0.6, -24.55)" gradientUnits="userSpaceOnUse" id="decoration169-gradient12" r="819.2" spreadMethod="pad">
      <stop offset="0.21176470588235294" stop-color="#ffeaa6"/>
      <stop offset="0.3803921568627451" stop-color="#fff45b"/>
      <stop offset="0.8313725490196079" stop-color="#e09506"/>
    </radialGradient>
    <radialGradient cx="0" cy="0" fx="6.4" fy="0" gradientTransform="matrix(1.4372, 0.0, 0.0, 1.3825, -50.45, -183.65)" gradientUnits="userSpaceOnUse" id="decoration169-gradient13" r="819.2" spreadMethod="pad">
      <stop offset="0.0" stop-color="#fff269"/>
      <stop offset="0.2235294117647059" stop-color="#e09506"/>
    </radialGradient>
    <radialGradient cx="0" cy="0" fx="6.4" fy="0" gradientTransform="matrix(0.032, 0.0, 0.0, 0.0307, 0.8, -17.5)" gradientUnits="userSpaceOnUse" id="decoration169-gradient14" r="819.2" spreadMethod="pad">
      <stop offset="0.21176470588235294" stop-color="#ffeaa6"/>
      <stop offset="0.3803921568627451" stop-color="#fff45b"/>
      <stop offset="0.8313725490196079" stop-color="#e09506"/>
    </radialGradient>
    <radialGradient cx="0" cy="0" fx="6.4" fy="0" gradientTransform="matrix(1.4372, 0.0, 0.0, 1.3825, -46.7, -178.1)" gradientUnits="userSpaceOnUse" id="decoration169-gradient15" r="819.2" spreadMethod="pad">
      <stop offset="0.0" stop-color="#fff269"/>
      <stop offset="0.2235294117647059" stop-color="#e09506"/>
    </radialGradient>
    <radialGradient cx="0" cy="0" fx="6.4" fy="0" gradientTransform="matrix(0.0202, 0.0, 0.0, 0.0194, -11.0, -26.15)" gradientUnits="userSpaceOnUse" id="decoration169-gradient16" r="819.2" spreadMethod="pad">
      <stop offset="0.21176470588235294" stop-color="#ffeaa6"/>
      <stop offset="0.3803921568627451" stop-color="#fff45b"/>
      <stop offset="0.8313725490196079" stop-color="#e09506"/>
    </radialGradient>
  </defs>
</svg>
