<?xml version="1.0" encoding="UTF-8" standalone="no"?>
<svg xmlns:xlink="http://www.w3.org/1999/xlink" height="111.15px" width="84.5px" xmlns="http://www.w3.org/2000/svg">
  <g transform="matrix(1.0, 0.0, 0.0, 1.0, 49.0, 109.7)">
    <use height="111.15" transform="matrix(1.0, 0.0, 0.0, 1.0, -49.0, -109.7)" width="84.5" xlink:href="#decoration169-shape0"/>
  </g>
  <defs>
    <g id="decoration169-shape0" transform="matrix(1.0, 0.0, 0.0, 1.0, 49.0, 109.7)">
      <path d="M8.5 -92.3 Q11.95 -93.2 16.15 -89.8 20.35 -86.45 20.65 -83.05 20.95 -79.65 19.8 -77.8 23.1 -74.95 22.7 -70.4 22.4 -65.95 18.9 -63.95 15.45 -61.95 15.55 -60.3 15.8 -58.55 17.75 -57.55 19.8 -56.55 21.3 -56.1 25.6 -54.75 24.8 -54.35 L22.05 -54.05 Q20.15 -54.15 16.15 -56.55 12.25 -58.95 13.75 -61.4 15.25 -63.8 17.85 -65.75 19.75 -67.15 20.25 -68.55 20.85 -69.95 20.55 -71.8 20.3 -73.65 19.55 -74.15 L19.05 -73.45 Q17.4 -70.95 14.0 -69.85 10.65 -68.7 8.0 -68.55 5.4 -68.4 5.65 -69.1 6.15 -69.7 9.35 -70.35 12.55 -71.05 15.5 -72.8 18.45 -74.6 18.35 -76.5 18.25 -78.4 16.6 -79.45 15.0 -80.45 12.0 -81.45 9.0 -82.5 6.15 -82.0 3.4 -81.65 6.35 -82.95 9.3 -84.4 12.35 -83.5 15.55 -82.6 18.05 -80.45 18.0 -85.45 13.5 -88.5 9.0 -91.5 5.65 -89.5 2.4 -87.55 2.85 -88.5 L4.25 -90.4 Q5.0 -91.45 8.5 -92.3" fill="#3b461b" fill-rule="evenodd" stroke="none"/>
      <path d="M8.5 -92.3 Q5.0 -91.45 4.25 -90.4 L2.85 -88.5 Q2.4 -87.55 5.65 -89.5 9.0 -91.5 13.5 -88.5 18.0 -85.45 18.05 -80.45 15.55 -82.6 12.35 -83.5 9.3 -84.4 6.35 -82.95 3.4 -81.65 6.15 -82.0 9.0 -82.5 12.0 -81.45 15.0 -80.45 16.6 -79.45 18.25 -78.4 18.35 -76.5 18.45 -74.6 15.5 -72.8 12.55 -71.05 9.35 -70.35 6.15 -69.7 5.65 -69.1 5.4 -68.4 8.0 -68.55 10.65 -68.7 14.0 -69.85 17.4 -70.95 19.05 -73.45 L19.55 -74.15 Q20.3 -73.65 20.55 -71.8 20.85 -69.95 20.25 -68.55 19.75 -67.15 17.85 -65.75 15.25 -63.8 13.75 -61.4 12.25 -58.95 16.15 -56.55 20.15 -54.15 22.05 -54.05 L24.8 -54.35 Q25.6 -54.75 21.3 -56.1 19.8 -56.55 17.75 -57.55 15.8 -58.55 15.55 -60.3 15.45 -61.95 18.9 -63.95 22.4 -65.95 22.7 -70.4 23.1 -74.95 19.8 -77.8 20.95 -79.65 20.65 -83.05 20.35 -86.45 16.15 -89.8 11.95 -93.2 8.5 -92.3 Z" fill="none" stroke="#000000" stroke-linecap="round" stroke-linejoin="round" stroke-opacity="0.4" stroke-width="0.05"/>
      <path d="M-19.8 -52.8 Q-25.25 -53.0 -28.2 -48.95 -24.9 -49.2 -21.8 -48.1 -18.75 -47.05 -17.2 -44.15 -15.6 -41.35 -17.65 -43.25 -19.65 -45.3 -22.7 -46.2 -25.7 -47.15 -27.6 -47.25 -29.55 -47.4 -30.75 -45.9 -31.95 -44.45 -30.6 -41.25 -29.25 -38.1 -27.0 -35.65 -24.8 -33.25 -24.8 -32.45 -24.95 -31.75 -27.0 -33.4 -29.05 -35.1 -31.15 -37.95 -33.25 -40.85 -33.1 -43.8 L-33.1 -44.7 Q-34.0 -44.75 -35.3 -43.4 -36.6 -42.05 -36.95 -40.55 -37.35 -39.15 -36.65 -36.9 -35.65 -33.8 -35.8 -30.95 -36.05 -28.1 -40.65 -28.4 -45.25 -28.8 -46.85 -29.85 -48.5 -30.85 -48.95 -31.65 -49.4 -32.45 -45.05 -31.05 -43.6 -30.55 -41.35 -30.15 -39.15 -29.85 -38.0 -31.1 -36.9 -32.4 -38.55 -36.05 -40.2 -39.7 -37.85 -43.5 -35.5 -47.4 -31.2 -47.8 -31.0 -50.0 -28.8 -52.55 -26.6 -55.15 -21.2 -55.4 -15.8 -55.7 -13.5 -52.95 -11.2 -50.25 -11.15 -48.95 -11.05 -47.7 -11.2 -46.6 -11.35 -45.55 -12.85 -49.05 -14.4 -52.65 -19.8 -52.8" fill="#3b461b" fill-rule="evenodd" stroke="none"/>
      <path d="M-19.8 -52.8 Q-25.25 -53.0 -28.2 -48.95 -24.9 -49.2 -21.8 -48.1 -18.75 -47.05 -17.2 -44.15 -15.6 -41.35 -17.65 -43.25 -19.65 -45.3 -22.7 -46.2 -25.7 -47.15 -27.6 -47.25 -29.55 -47.4 -30.75 -45.9 -31.95 -44.45 -30.6 -41.25 -29.25 -38.1 -27.0 -35.65 -24.8 -33.25 -24.8 -32.45 -24.95 -31.75 -27.0 -33.4 -29.05 -35.1 -31.15 -37.95 -33.25 -40.85 -33.1 -43.8 L-33.1 -44.7 Q-34.0 -44.75 -35.3 -43.4 -36.6 -42.05 -36.95 -40.55 -37.35 -39.15 -36.65 -36.9 -35.65 -33.8 -35.8 -30.95 -36.05 -28.1 -40.65 -28.4 -45.25 -28.8 -46.85 -29.85 -48.5 -30.85 -48.95 -31.65 -49.4 -32.45 -45.05 -31.05 -43.6 -30.55 -41.35 -30.15 -39.15 -29.85 -38.0 -31.1 -36.9 -32.4 -38.55 -36.05 -40.2 -39.7 -37.85 -43.5 -35.5 -47.4 -31.2 -47.8 -31.0 -50.0 -28.8 -52.55 -26.6 -55.15 -21.2 -55.4 -15.8 -55.7 -13.5 -52.95 -11.2 -50.25 -11.15 -48.95 -11.05 -47.7 -11.2 -46.6 -11.35 -45.55 -12.85 -49.05 -14.4 -52.65 -19.8 -52.8 Z" fill="none" stroke="#000000" stroke-linecap="round" stroke-linejoin="round" stroke-opacity="0.4" stroke-width="0.05"/>
      <path d="M-13.0 -0.55 L-16.45 -0.55 Q-20.85 -1.95 -22.65 -3.75 -28.95 -10.1 -30.15 -12.55 -33.35 -19.8 -32.6 -25.05 -31.85 -30.35 -30.6 -33.45 -29.4 -36.55 -24.6 -40.75 -19.75 -44.95 -17.05 -45.65 L-10.3 -46.75 -5.25 -47.05 Q-2.9 -47.05 0.85 -45.45 -5.45 -46.5 -9.15 -44.45 L-14.1 -41.45 -16.15 -39.5 -18.55 -36.9 -16.15 -39.5 -14.1 -41.45 -9.15 -44.45 Q-5.45 -46.5 0.85 -45.45 7.6 -48.3 11.65 -47.65 15.65 -47.0 20.9 -44.6 26.1 -42.2 29.8 -38.35 33.5 -34.55 34.85 -27.0 36.2 -19.5 33.8 -14.15 31.35 -8.6 28.55 -6.2 25.75 -3.85 23.8 -2.8 21.8 -1.8 20.05 -1.7 18.65 -1.65 17.35 -0.8 L16.6 -0.3 Q14.8 0.7 14.1 0.75 L6.25 1.1 1.5 0.7 -3.55 0.85 -5.9 1.15 -10.55 0.8 -11.85 0.25 -13.0 -0.55 -15.85 -3.4 Q-21.0 -8.2 -22.55 -12.05 L-23.05 -13.75 -22.55 -12.05 Q-21.0 -8.2 -15.85 -3.4 L-13.0 -0.55 M-18.8 -36.75 L-18.8 -36.95 -18.6 -38.1 Q-19.05 -40.0 -20.5 -40.25 L-22.65 -40.15 -24.5 -38.75 -27.95 -34.95 Q-30.15 -32.2 -30.7 -26.15 -31.35 -20.1 -30.45 -16.7 -29.55 -13.3 -27.45 -11.5 -25.4 -9.75 -24.2 -10.75 -23.0 -11.8 -23.05 -13.75 L-23.45 -14.75 Q-22.15 -11.8 -18.8 -8.1 -14.85 -3.7 -12.35 -5.2 -9.9 -6.7 -8.95 -8.7 L-7.05 -7.1 Q-6.45 -6.55 -4.2 -6.0 L-0.95 -6.1 1.5 -9.15 1.5 -9.0 3.1 -7.6 Q4.0 -6.9 6.3 -6.85 8.55 -6.85 9.8 -7.95 L11.8 -9.8 11.25 -8.45 Q10.1 -5.75 8.25 -2.9 L6.25 1.1 8.25 -2.9 Q10.1 -5.75 11.25 -8.45 L11.8 -9.8 Q13.5 -7.75 15.35 -7.7 17.15 -7.7 20.0 -9.45 22.8 -11.2 24.6 -15.3 26.15 -18.9 26.65 -18.8 L26.85 -17.05 Q27.1 -14.35 27.95 -11.75 28.75 -9.2 32.0 -14.9 35.25 -20.65 33.55 -26.05 31.8 -31.5 30.55 -33.8 29.25 -36.15 26.1 -39.25 L24.8 -40.45 23.3 -40.75 21.65 -40.25 20.1 -39.25 Q19.2 -38.6 19.1 -38.6 L19.05 -38.6 17.05 -38.75 Q15.8 -38.9 14.4 -38.1 L12.4 -36.65 Q11.85 -36.05 11.7 -34.95 L6.65 -40.85 Q3.8 -44.05 0.85 -45.45 L0.95 -32.7 0.85 -45.45 Q3.8 -44.05 6.65 -40.85 L11.7 -34.95 11.7 -34.85 11.6 -34.85 Q11.4 -35.15 10.25 -35.45 L8.45 -35.75 5.25 -35.05 Q2.7 -34.4 0.95 -32.7 L0.8 -32.55 Q-0.2 -33.95 -2.25 -35.05 -4.4 -36.2 -6.3 -36.2 -8.05 -36.2 -9.8 -34.75 -9.65 -36.2 -11.1 -37.4 -12.55 -38.55 -14.25 -38.55 L-16.65 -38.1 -18.55 -36.9 -18.8 -36.75 M-9.8 -34.75 L-7.05 -38.75 -6.7 -39.15 Q-2.5 -44.95 0.85 -45.45 4.9 -46.85 7.85 -46.0 11.15 -45.05 14.05 -43.0 L14.2 -42.9 17.0 -40.6 19.05 -38.6 17.0 -40.6 14.2 -42.9 14.05 -43.0 Q11.15 -45.05 7.85 -46.0 4.9 -46.85 0.85 -45.45 -2.5 -44.95 -6.7 -39.15 L-7.05 -38.75 -9.8 -34.75 M-8.95 -8.7 L-3.7 0.8 -3.55 0.85 -3.7 0.8 -8.95 -8.7 M1.5 -9.0 L1.5 0.7 1.5 -9.0 M17.35 -0.8 L19.5 -3.2 Q24.35 -10.1 26.65 -18.8 24.35 -10.1 19.5 -3.2 L17.35 -0.8" fill="#9a4c00" fill-rule="evenodd" stroke="none"/>
      <path d="M-23.05 -13.75 Q-23.0 -11.8 -24.2 -10.75 -25.4 -9.75 -27.45 -11.5 -29.55 -13.3 -30.45 -16.7 -31.35 -20.1 -30.7 -26.15 -30.15 -32.2 -27.95 -34.95 L-24.5 -38.75 -22.65 -40.15 -20.5 -40.25 Q-19.05 -40.0 -18.6 -38.1 L-18.8 -36.95 -18.8 -36.75 -18.55 -36.9 -16.65 -38.1 -14.25 -38.55 Q-12.55 -38.55 -11.1 -37.4 -9.65 -36.2 -9.8 -34.75 -8.05 -36.2 -6.3 -36.2 -4.4 -36.2 -2.25 -35.05 -0.2 -33.95 0.8 -32.55 L0.95 -32.7 Q2.7 -34.4 5.25 -35.05 L8.45 -35.75 10.25 -35.45 Q11.4 -35.15 11.6 -34.85 L11.7 -34.85 11.7 -34.95 Q11.85 -36.05 12.4 -36.65 L14.4 -38.1 Q15.8 -38.9 17.05 -38.75 L19.05 -38.6 19.1 -38.6 Q19.2 -38.6 20.1 -39.25 L21.65 -40.25 23.3 -40.75 24.8 -40.45 26.1 -39.25 Q29.25 -36.15 30.55 -33.8 31.8 -31.5 33.55 -26.05 35.25 -20.65 32.0 -14.9 28.75 -9.2 27.95 -11.75 27.1 -14.35 26.85 -17.05 L26.65 -18.8 Q27.55 -24.5 23.75 -31.4 21.2 -36.05 19.05 -38.6 21.2 -36.05 23.75 -31.4 27.55 -24.5 26.65 -18.8 26.15 -18.9 24.6 -15.3 22.8 -11.2 20.0 -9.45 17.15 -7.7 15.35 -7.7 13.5 -7.75 11.8 -9.8 L9.8 -7.95 Q8.55 -6.85 6.3 -6.85 4.0 -6.9 3.1 -7.6 L1.5 -9.0 1.5 -9.15 0.95 -32.7 1.5 -9.15 -0.95 -6.1 -4.2 -6.0 Q-6.45 -6.55 -7.05 -7.1 L-8.95 -8.7 Q-9.9 -6.7 -12.35 -5.2 -14.85 -3.7 -18.8 -8.1 -22.15 -11.8 -23.45 -14.75 L-23.05 -13.75 M11.7 -34.95 Q16.0 -29.35 15.15 -23.25 14.05 -15.55 11.85 -9.9 L11.85 -9.85 11.8 -9.8 11.85 -9.85 11.85 -9.9 Q14.05 -15.55 15.15 -23.25 16.0 -29.35 11.7 -34.95 M-8.95 -8.7 Q-12.0 -16.65 -12.3 -23.7 -12.6 -29.2 -9.8 -34.75 -12.6 -29.2 -12.3 -23.7 -12.0 -16.65 -8.95 -8.7 M-18.55 -36.9 Q-27.45 -27.45 -23.45 -14.75 -27.45 -27.45 -18.55 -36.9" fill="url(#decoration169-gradient0)" fill-rule="evenodd" stroke="none"/>
      <path d="M0.85 -45.45 Q-2.9 -47.05 -5.25 -47.05 L-10.3 -46.75 -17.05 -45.65 Q-19.75 -44.95 -24.6 -40.75 -29.4 -36.55 -30.6 -33.45 -31.85 -30.35 -32.6 -25.05 -33.35 -19.8 -30.15 -12.55 -28.95 -10.1 -22.65 -3.75 -20.85 -1.95 -16.45 -0.55 L-13.0 -0.55 -15.85 -3.4 Q-21.0 -8.2 -22.55 -12.05 L-23.05 -13.75 M-18.55 -36.9 L-16.15 -39.5 -14.1 -41.45 -9.15 -44.45 Q-5.45 -46.5 0.85 -45.45 7.6 -48.3 11.65 -47.65 15.65 -47.0 20.9 -44.6 26.1 -42.2 29.8 -38.35 33.5 -34.55 34.85 -27.0 36.2 -19.5 33.8 -14.15 31.35 -8.6 28.55 -6.2 25.75 -3.85 23.8 -2.8 21.8 -1.8 20.05 -1.7 18.65 -1.65 17.35 -0.8 L16.6 -0.3 Q14.8 0.7 14.1 0.75 L6.25 1.1 1.5 0.7 -3.55 0.85 -5.9 1.15 -10.55 0.8 -11.85 0.25 -13.0 -0.55 M11.7 -34.95 L6.65 -40.85 Q3.8 -44.05 0.85 -45.45 L0.95 -32.7 1.5 -9.15 1.5 -9.0 M19.05 -38.6 L17.0 -40.6 14.2 -42.9 14.05 -43.0 Q11.15 -45.05 7.85 -46.0 4.9 -46.85 0.85 -45.45 -2.5 -44.95 -6.7 -39.15 L-7.05 -38.75 -9.8 -34.75 Q-12.6 -29.2 -12.3 -23.7 -12.0 -16.65 -8.95 -8.7 M11.8 -9.8 L11.85 -9.85 11.85 -9.9 Q14.05 -15.55 15.15 -23.25 16.0 -29.35 11.7 -34.95 M-23.45 -14.75 L-23.05 -13.75 M-23.45 -14.75 Q-27.45 -27.45 -18.55 -36.9 M-3.55 0.85 L-3.7 0.8 -8.95 -8.7 M11.8 -9.8 L11.25 -8.45 Q10.1 -5.75 8.25 -2.9 L6.25 1.1 M1.5 0.7 L1.5 -9.0 M26.65 -18.8 Q24.35 -10.1 19.5 -3.2 L17.35 -0.8 M19.05 -38.6 Q21.2 -36.05 23.75 -31.4 27.55 -24.5 26.65 -18.8" fill="none" stroke="#000000" stroke-linecap="round" stroke-linejoin="round" stroke-opacity="0.3019608" stroke-width="0.30000000000000004"/>
      <path d="M-18.8 -36.75 L-18.55 -36.9 M11.6 -34.85 L11.7 -34.85 11.7 -34.95 M0.8 -32.55 L0.95 -32.7" fill="none" stroke="#000000" stroke-linecap="round" stroke-linejoin="round" stroke-opacity="0.4" stroke-width="0.05"/>
      <path d="M12.7 -71.1 L11.35 -71.6 9.4 -71.75 7.4 -71.3 Q7.0 -71.15 6.95 -70.25 L7.05 -69.05 6.95 -69.15 Q4.3 -72.65 0.95 -74.45 L6.05 -74.8 Q8.45 -74.15 10.55 -72.75 L12.7 -71.1 10.55 -72.75 Q8.45 -74.15 6.05 -74.8 L0.95 -74.45 Q4.3 -72.65 6.95 -69.15 L5.4 -69.85 4.1 -70.1 Q2.9 -70.2 2.2 -69.75 L0.95 -68.65 0.95 -68.55 Q0.0 -70.25 -0.9 -70.55 -1.85 -70.9 -4.55 -70.1 L-4.85 -69.8 Q-3.85 -72.9 -8.3 -71.45 L-10.65 -70.75 -8.55 -72.15 Q-3.65 -75.15 0.95 -74.45 -3.65 -75.15 -8.55 -72.15 L-10.65 -70.75 Q-11.05 -72.9 -12.8 -72.45 -14.6 -72.05 -16.55 -70.55 -18.5 -69.1 -20.1 -67.2 -21.7 -65.3 -22.1 -61.1 -22.55 -56.95 -21.9 -54.6 -21.25 -52.25 -19.3 -50.05 -17.3 -47.9 -16.8 -49.35 -16.3 -50.8 -16.5 -52.55 L-16.15 -51.35 Q-15.0 -48.7 -11.25 -45.4 L-9.15 -43.45 -11.25 -45.4 Q-15.0 -48.7 -16.15 -51.35 L-16.5 -52.55 -16.8 -53.25 Q-15.85 -51.2 -13.4 -48.65 -10.5 -45.6 -8.7 -46.65 -6.9 -47.7 -6.2 -49.05 L-4.85 -47.95 Q-4.4 -47.55 -2.75 -47.2 L-0.4 -47.25 1.4 -49.35 1.4 -49.25 2.85 -47.65 Q3.75 -46.55 5.0 -46.8 6.25 -47.1 7.25 -48.15 L8.95 -49.9 8.95 -49.8 Q9.55 -47.8 10.4 -47.25 11.2 -46.7 14.05 -48.75 16.95 -50.8 18.25 -53.6 19.4 -56.1 19.75 -56.05 L19.9 -54.8 Q20.1 -52.95 20.7 -51.15 21.3 -49.4 23.65 -53.35 26.05 -57.3 24.8 -61.05 23.55 -64.8 22.6 -66.4 21.65 -68.0 19.35 -70.15 17.05 -72.3 15.6 -72.6 L12.6 -73.0 Q10.95 -73.1 12.7 -71.1 M13.0 -43.6 L14.55 -45.25 Q18.1 -50.0 19.75 -56.05 18.1 -50.0 14.55 -45.25 L13.0 -43.6 12.45 -43.25 Q11.1 -42.55 10.6 -42.55 L4.9 -42.3 1.4 -42.55 -2.25 -42.45 -4.0 -42.25 -7.4 -42.5 -8.35 -42.9 -9.15 -43.45 -11.7 -43.45 Q-14.9 -44.4 -16.2 -45.65 -20.8 -50.0 -21.7 -51.7 -24.0 -56.7 -23.45 -60.35 -22.95 -64.0 -22.0 -66.15 -21.15 -68.3 -17.65 -71.2 -14.1 -74.1 -12.15 -74.55 L-7.2 -75.35 -3.5 -75.55 Q-1.8 -75.55 0.95 -74.45 5.85 -76.4 8.8 -75.95 11.75 -75.5 15.55 -73.85 19.35 -72.2 22.05 -69.55 24.75 -66.9 25.75 -61.7 26.75 -56.5 25.0 -52.8 23.2 -49.0 21.15 -47.35 19.1 -45.7 17.7 -45.0 16.25 -44.3 14.95 -44.2 13.95 -44.2 13.0 -43.6 M0.95 -74.45 Q-1.5 -74.1 -4.55 -70.1 -1.5 -74.1 0.95 -74.45 L0.95 -68.65 0.95 -74.45 M4.9 -42.3 L6.35 -45.05 Q7.7 -47.0 8.55 -48.9 L8.95 -49.8 8.55 -48.9 Q7.7 -47.0 6.35 -45.05 L4.9 -42.3 M1.4 -42.55 L1.4 -49.25 1.4 -42.55 M-2.25 -42.45 L-2.4 -42.5 -6.2 -49.05 -2.4 -42.5 -2.25 -42.45" fill="#993300" fill-rule="evenodd" stroke="none"/>
      <path d="M7.05 -69.05 L6.95 -70.25 Q7.0 -71.15 7.4 -71.3 L9.4 -71.75 11.35 -71.6 12.7 -71.1 Q14.9 -69.5 17.65 -64.75 20.4 -59.95 19.75 -56.05 20.4 -59.95 17.65 -64.75 14.9 -69.5 12.7 -71.1 10.95 -73.1 12.6 -73.0 L15.6 -72.6 Q17.05 -72.3 19.35 -70.15 21.65 -68.0 22.6 -66.4 23.55 -64.8 24.8 -61.05 26.05 -57.3 23.65 -53.35 21.3 -49.4 20.7 -51.15 20.1 -52.95 19.9 -54.8 L19.75 -56.05 Q19.4 -56.1 18.25 -53.6 16.95 -50.8 14.05 -48.75 11.2 -46.7 10.4 -47.25 9.55 -47.8 8.95 -49.8 L8.95 -49.9 Q10.55 -53.8 11.35 -59.1 11.7 -61.3 10.2 -64.4 8.85 -67.2 7.05 -69.05 8.85 -67.2 10.2 -64.4 11.7 -61.3 11.35 -59.1 10.55 -53.8 8.95 -49.9 L7.25 -48.15 Q6.25 -47.1 5.0 -46.8 3.75 -46.55 2.85 -47.65 L1.4 -49.25 1.4 -49.35 0.95 -68.55 1.4 -49.35 -0.4 -47.25 -2.75 -47.2 Q-4.4 -47.55 -4.85 -47.95 L-6.2 -49.05 Q-6.9 -47.7 -8.7 -46.65 -10.5 -45.6 -13.4 -48.65 -15.85 -51.2 -16.8 -53.25 -20.25 -63.55 -10.65 -70.75 -20.25 -63.55 -16.8 -53.25 L-16.5 -52.55 Q-16.3 -50.8 -16.8 -49.35 -17.3 -47.9 -19.3 -50.05 -21.25 -52.25 -21.9 -54.6 -22.55 -56.95 -22.1 -61.1 -21.7 -65.3 -20.1 -67.2 -18.5 -69.1 -16.55 -70.55 -14.6 -72.05 -12.8 -72.45 -11.05 -72.9 -10.65 -70.75 L-8.3 -71.45 Q-3.85 -72.9 -4.85 -69.8 L-4.55 -70.1 Q-1.85 -70.9 -0.9 -70.55 0.0 -70.25 0.95 -68.55 L0.95 -68.65 2.2 -69.75 Q2.9 -70.2 4.1 -70.1 L5.4 -69.85 6.95 -69.15 7.05 -69.05 M-4.85 -69.8 Q-8.95 -64.3 -8.65 -59.4 -8.45 -54.55 -6.2 -49.05 -8.45 -54.55 -8.65 -59.4 -8.95 -64.3 -4.85 -69.8" fill="url(#decoration169-gradient1)" fill-rule="evenodd" stroke="none"/>
      <path d="M12.7 -71.1 L10.55 -72.75 Q8.45 -74.15 6.05 -74.8 L0.95 -74.45 Q4.3 -72.65 6.95 -69.15 L7.05 -69.05 Q8.85 -67.2 10.2 -64.4 11.7 -61.3 11.35 -59.1 10.55 -53.8 8.95 -49.9 L8.95 -49.8 8.55 -48.9 Q7.7 -47.0 6.35 -45.05 L4.9 -42.3 1.4 -42.55 -2.25 -42.45 -4.0 -42.25 -7.4 -42.5 -8.35 -42.9 -9.15 -43.45 -11.25 -45.4 Q-15.0 -48.7 -16.15 -51.35 L-16.5 -52.55 M19.75 -56.05 Q20.4 -59.95 17.65 -64.75 14.9 -69.5 12.7 -71.1 M19.75 -56.05 Q18.1 -50.0 14.55 -45.25 L13.0 -43.6 Q13.95 -44.2 14.95 -44.2 16.25 -44.3 17.7 -45.0 19.1 -45.7 21.15 -47.35 23.2 -49.0 25.0 -52.8 26.75 -56.5 25.75 -61.7 24.75 -66.9 22.05 -69.55 19.35 -72.2 15.55 -73.85 11.75 -75.5 8.8 -75.95 5.85 -76.4 0.95 -74.45 -3.65 -75.15 -8.55 -72.15 L-10.65 -70.75 Q-20.25 -63.55 -16.8 -53.25 L-16.5 -52.55 M-4.85 -69.8 L-4.55 -70.1 Q-1.5 -74.1 0.95 -74.45 -1.8 -75.55 -3.5 -75.55 L-7.2 -75.35 -12.15 -74.55 Q-14.1 -74.1 -17.65 -71.2 -21.15 -68.3 -22.0 -66.15 -22.95 -64.0 -23.45 -60.35 -24.0 -56.7 -21.7 -51.7 -20.8 -50.0 -16.2 -45.65 -14.9 -44.4 -11.7 -43.45 L-9.15 -43.45 M-6.2 -49.05 Q-8.45 -54.55 -8.65 -59.4 -8.95 -64.3 -4.85 -69.8 M0.95 -68.65 L0.95 -68.55 1.4 -49.35 1.4 -49.25 1.4 -42.55 M0.95 -74.45 L0.95 -68.65 M13.0 -43.6 L12.45 -43.25 Q11.1 -42.55 10.6 -42.55 L4.9 -42.3 M-6.2 -49.05 L-2.4 -42.5 -2.25 -42.45" fill="none" stroke="#000000" stroke-linecap="round" stroke-linejoin="round" stroke-opacity="0.3019608" stroke-width="0.30000000000000004"/>
      <path d="M12.1 -101.95 L14.85 -101.65 Q16.5 -101.0 17.7 -98.25 18.9 -95.6 18.0 -93.9 17.15 -92.25 16.55 -92.0 L15.4 -91.6 Q14.85 -91.5 16.25 -92.9 17.65 -94.3 16.75 -97.15 15.8 -99.9 13.25 -100.7 14.0 -99.05 14.05 -97.2 14.15 -95.55 13.05 -94.2 12.0 -92.9 12.55 -94.25 13.15 -95.65 12.95 -97.4 L12.55 -100.0 Q12.25 -101.05 11.25 -101.4 10.35 -101.75 9.1 -100.5 7.8 -99.2 7.05 -97.6 6.35 -96.05 5.95 -95.95 5.6 -95.9 6.0 -97.2 6.4 -98.55 7.4 -100.1 8.4 -101.75 9.8 -102.2 L10.25 -102.35 9.2 -103.25 Q8.3 -103.7 7.55 -103.55 6.75 -103.5 5.85 -102.75 4.55 -101.65 3.1 -101.25 1.7 -100.85 0.95 -103.25 0.3 -105.65 0.5 -106.65 0.65 -107.7 0.95 -108.05 1.25 -108.45 1.4 -105.9 L1.7 -103.9 Q1.95 -102.75 2.8 -102.4 3.6 -102.05 5.05 -103.6 6.45 -105.05 8.75 -104.6 11.1 -104.1 12.1 -101.95" fill="#3b461b" fill-rule="evenodd" stroke="none"/>
      <path d="M12.1 -101.95 L14.85 -101.65 Q16.5 -101.0 17.7 -98.25 18.9 -95.6 18.0 -93.9 17.15 -92.25 16.55 -92.0 L15.4 -91.6 Q14.85 -91.5 16.25 -92.9 17.65 -94.3 16.75 -97.15 15.8 -99.9 13.25 -100.7 14.0 -99.05 14.05 -97.2 14.15 -95.55 13.05 -94.2 12.0 -92.9 12.55 -94.25 13.15 -95.65 12.95 -97.4 L12.55 -100.0 Q12.25 -101.05 11.25 -101.4 10.35 -101.75 9.1 -100.5 7.8 -99.2 7.05 -97.6 6.35 -96.05 5.95 -95.95 5.6 -95.9 6.0 -97.2 6.4 -98.55 7.4 -100.1 8.4 -101.75 9.8 -102.2 L10.25 -102.35 9.2 -103.25 Q8.3 -103.7 7.55 -103.55 6.75 -103.5 5.85 -102.75 4.55 -101.65 3.1 -101.25 1.7 -100.85 0.95 -103.25 0.3 -105.65 0.5 -106.65 0.65 -107.7 0.95 -108.05 1.25 -108.45 1.4 -105.9 L1.7 -103.9 Q1.95 -102.75 2.8 -102.4 3.6 -102.05 5.05 -103.6 6.45 -105.05 8.75 -104.6 11.1 -104.1 12.1 -101.95 Z" fill="none" stroke="#000000" stroke-linecap="round" stroke-linejoin="round" stroke-opacity="0.4" stroke-width="0.05"/>
      <path d="M-12.1 -81.25 Q-11.85 -79.7 -12.1 -78.6 -12.4 -77.3 -13.85 -78.8 -15.35 -80.3 -16.35 -82.75 -17.4 -85.2 -16.95 -88.65 -16.5 -92.1 -15.0 -94.05 -13.55 -96.0 -11.95 -96.65 -10.4 -97.35 -7.65 -97.9 -4.95 -98.5 -7.9 -96.15 L-7.95 -96.1 -4.3 -97.75 Q-1.6 -98.85 -3.6 -95.35 L-3.4 -95.6 Q-1.35 -97.95 -0.65 -97.3 -0.25 -96.85 0.0 -94.4 L0.45 -94.9 0.8 -96.4 Q1.05 -97.55 2.2 -96.8 L3.8 -95.75 4.1 -95.55 4.8 -94.75 4.9 -95.75 4.45 -97.2 Q4.1 -98.1 6.1 -97.45 L8.5 -96.65 9.4 -96.35 7.9 -97.6 Q7.05 -98.3 8.3 -98.35 L11.1 -97.95 Q12.55 -97.45 14.25 -96.5 15.95 -95.55 17.25 -93.55 18.5 -91.55 19.1 -88.35 19.65 -85.2 17.8 -81.75 15.9 -78.3 14.85 -79.6 13.8 -80.9 14.25 -82.5 L14.6 -84.5 Q15.1 -87.6 13.05 -91.35 11.0 -95.1 9.4 -96.35 11.0 -95.1 13.05 -91.35 15.1 -87.6 14.6 -84.5 L13.7 -82.15 Q12.9 -79.95 10.6 -78.55 8.25 -77.15 7.65 -77.6 7.05 -78.0 6.6 -79.6 L6.6 -79.7 5.35 -78.3 3.65 -77.1 Q2.7 -76.8 1.95 -77.4 L0.05 -78.7 Q-0.15 -86.55 0.0 -94.4 -0.15 -86.55 0.05 -78.7 L0.05 -78.2 -1.85 -78.05 -3.6 -78.45 -4.65 -79.0 Q-5.15 -77.95 -6.5 -77.0 -7.9 -76.05 -9.85 -78.25 -11.55 -80.1 -12.25 -81.75 L-12.2 -81.55 -12.15 -81.45 -12.1 -81.25 M-7.95 -96.1 Q-15.0 -90.45 -12.45 -82.3 L-12.25 -81.75 -12.45 -82.3 Q-15.0 -90.45 -7.95 -96.1 M3.8 -95.75 L4.8 -94.75 Q7.9 -89.55 7.85 -86.15 7.8 -82.75 6.6 -79.7 7.8 -82.75 7.85 -86.15 7.9 -89.55 4.8 -94.75 L3.8 -95.75 M-3.6 -95.35 Q-6.65 -91.05 -6.45 -87.2 -6.3 -83.35 -4.65 -79.0 -6.3 -83.35 -6.45 -87.2 -6.65 -91.05 -3.6 -95.35" fill="url(#decoration169-gradient2)" fill-rule="evenodd" stroke="none"/>
      <path d="M-13.1 -96.45 Q-10.45 -98.75 -9.0 -99.1 L-5.35 -99.7 -2.65 -99.9 Q-1.35 -99.9 0.65 -99.0 4.3 -100.55 6.5 -100.2 8.65 -99.85 11.5 -98.55 14.3 -97.25 16.3 -95.15 18.3 -93.1 19.05 -88.95 19.75 -84.9 18.45 -82.0 17.15 -78.95 15.65 -77.65 L13.05 -75.8 Q12.0 -75.25 11.05 -75.2 10.3 -75.2 9.6 -74.75 L9.2 -74.45 Q8.2 -73.9 7.85 -73.9 L3.6 -73.7 Q2.65 -73.55 0.4 -73.75 L-1.7 -73.85 -3.0 -73.65 -5.5 -73.85 -6.2 -74.15 -6.8 -74.6 -8.7 -74.6 Q-11.05 -75.35 -12.05 -76.35 -15.45 -79.8 -16.1 -81.1 -17.8 -85.05 -17.4 -87.9 -17.0 -90.8 -16.35 -92.5 -15.7 -94.15 -13.1 -96.45 M-7.9 -96.15 Q-4.95 -98.5 -7.65 -97.9 -10.4 -97.35 -11.95 -96.65 -13.55 -96.0 -15.0 -94.05 -16.5 -92.1 -16.95 -88.65 -17.4 -85.2 -16.35 -82.75 -15.35 -80.3 -13.85 -78.8 -12.4 -77.3 -12.1 -78.6 -11.85 -79.7 -12.1 -81.25 L-12.15 -81.45 -12.2 -81.55 -12.25 -81.75 Q-11.55 -80.1 -9.85 -78.25 -7.9 -76.05 -6.5 -77.0 -5.15 -77.95 -4.65 -79.0 L-3.6 -78.45 -1.85 -78.05 0.05 -78.2 0.05 -78.7 1.95 -77.4 Q2.7 -76.8 3.65 -77.1 L5.35 -78.3 6.6 -79.7 6.6 -79.6 Q7.05 -78.0 7.65 -77.6 8.25 -77.15 10.6 -78.55 12.9 -79.95 13.7 -82.15 L14.6 -84.5 14.25 -82.5 Q13.8 -80.9 14.85 -79.6 15.9 -78.3 17.8 -81.75 19.65 -85.2 19.1 -88.35 18.5 -91.55 17.25 -93.55 15.95 -95.55 14.25 -96.5 12.55 -97.45 11.1 -97.95 L8.3 -98.35 Q7.05 -98.3 7.9 -97.6 L9.4 -96.35 8.5 -96.65 6.1 -97.45 Q4.1 -98.1 4.45 -97.2 L4.9 -95.75 4.8 -94.75 4.1 -95.55 3.8 -95.75 0.65 -99.0 4.45 -99.3 Q6.25 -98.8 7.8 -97.65 L7.9 -97.6 7.8 -97.65 Q6.25 -98.8 4.45 -99.3 L0.65 -99.0 3.8 -95.75 2.2 -96.8 Q1.05 -97.55 0.8 -96.4 L0.45 -94.9 0.0 -94.4 Q-0.25 -96.85 -0.65 -97.3 -1.35 -97.95 -3.4 -95.6 L-3.6 -95.35 Q-1.6 -98.85 -4.3 -97.75 L-7.95 -96.1 -6.35 -97.2 Q-2.75 -99.6 0.65 -99.0 -1.15 -98.75 -3.4 -95.6 -1.15 -98.75 0.65 -99.0 -2.75 -99.6 -6.35 -97.2 L-7.95 -96.1 -7.9 -96.15 M0.65 -99.0 L0.0 -94.4 0.65 -99.0 M9.6 -74.75 L10.75 -76.05 Q13.35 -79.8 14.6 -84.5 13.35 -79.8 10.75 -76.05 L9.6 -74.75 M3.6 -73.7 L4.65 -75.85 6.3 -78.9 6.6 -79.6 6.3 -78.9 4.65 -75.85 3.6 -73.7 M0.4 -73.75 L0.05 -78.2 0.4 -73.75 M-1.7 -73.85 L-1.8 -73.85 -4.65 -79.0 -1.8 -73.85 -1.7 -73.85 M-6.8 -74.6 L-8.35 -76.15 Q-11.15 -78.75 -12.0 -80.85 L-12.1 -81.25 -12.0 -80.85 Q-11.15 -78.75 -8.35 -76.15 L-6.8 -74.6" fill="#d36719" fill-rule="evenodd" stroke="none"/>
      <path d="M-13.1 -96.45 Q-10.45 -98.75 -9.0 -99.1 L-5.35 -99.7 -2.65 -99.9 Q-1.35 -99.9 0.65 -99.0 4.3 -100.55 6.5 -100.2 8.65 -99.85 11.5 -98.55 14.3 -97.25 16.3 -95.15 18.3 -93.1 19.05 -88.95 19.75 -84.9 18.45 -82.0 17.15 -78.95 15.65 -77.65 L13.05 -75.8 Q12.0 -75.25 11.05 -75.2 10.3 -75.2 9.6 -74.75 L9.2 -74.45 Q8.2 -73.9 7.85 -73.9 L3.6 -73.7 Q2.65 -73.55 0.4 -73.75 L-1.7 -73.85 -3.0 -73.65 -5.5 -73.85 -6.2 -74.15 -6.8 -74.6 -8.7 -74.6 Q-11.05 -75.35 -12.05 -76.35 -15.45 -79.8 -16.1 -81.1 -17.8 -85.05 -17.4 -87.9 -17.0 -90.8 -16.35 -92.5 -15.7 -94.15 -13.1 -96.45 M-12.1 -81.25 L-12.15 -81.45 -12.2 -81.55 -12.25 -81.75 -12.45 -82.3 Q-15.0 -90.45 -7.95 -96.1 L-7.9 -96.15 M-3.6 -95.35 L-3.4 -95.6 Q-1.15 -98.75 0.65 -99.0 -2.75 -99.6 -6.35 -97.2 L-7.95 -96.1 M9.4 -96.35 L7.9 -97.6 7.8 -97.65 Q6.25 -98.8 4.45 -99.3 L0.65 -99.0 3.8 -95.75 M0.0 -94.4 Q-0.15 -86.55 0.05 -78.7 M6.6 -79.7 Q7.8 -82.75 7.85 -86.15 7.9 -89.55 4.8 -94.75 L3.8 -95.75 M0.0 -94.4 L0.65 -99.0 M14.6 -84.5 Q13.35 -79.8 10.75 -76.05 L9.6 -74.75 M9.4 -96.35 Q11.0 -95.1 13.05 -91.35 15.1 -87.6 14.6 -84.5 M6.6 -79.6 L6.3 -78.9 4.65 -75.85 3.6 -73.7 M0.05 -78.2 L0.05 -78.7 M6.6 -79.6 L6.6 -79.7 M-4.65 -79.0 L-1.8 -73.85 -1.7 -73.85 M0.05 -78.2 L0.4 -73.75 M-4.65 -79.0 Q-6.3 -83.35 -6.45 -87.2 -6.65 -91.05 -3.6 -95.35 M-12.1 -81.25 L-12.0 -80.85 Q-11.15 -78.75 -8.35 -76.15 L-6.8 -74.6" fill="none" stroke="#000000" stroke-linecap="round" stroke-linejoin="round" stroke-opacity="0.3019608" stroke-width="0.30000000000000004"/>
      <path d="M1.9 -99.95 L6.1 -100.75 Q7.4 -99.1 9.75 -99.15 L3.1 -98.4 Q3.05 -97.35 6.85 -95.6 3.2 -97.1 0.6 -97.55 -0.15 -97.15 -1.05 -95.8 L-2.5 -93.55 -1.85 -95.2 Q-1.55 -96.1 -1.5 -97.6 L-7.1 -96.4 Q-2.5 -98.15 -4.0 -98.6 -5.15 -99.05 -10.2 -98.7 -5.9 -99.1 -5.55 -100.2 L-1.1 -99.95 Q-0.25 -104.05 -0.55 -106.85 -2.95 -108.1 0.15 -109.05 3.2 -110.0 3.75 -109.05 4.1 -108.55 3.9 -106.75 L3.05 -107.65 Q2.3 -108.3 1.65 -107.45 1.0 -106.6 0.8 -105.4 0.55 -104.25 0.4 -101.55 L0.2 -99.35 Q0.0 -99.1 -3.0 -98.4 L-1.35 -98.35 Q-0.45 -98.45 -0.55 -97.85 L-0.95 -96.8 0.8 -98.25 2.9 -97.5 2.35 -98.6 4.25 -99.35 1.4 -99.1 1.9 -99.95 M-1.1 -99.45 L-1.1 -99.95 -1.1 -99.45" fill="#3b461b" fill-rule="evenodd" stroke="none"/>
      <path d="M3.9 -106.75 L3.35 -103.95 1.9 -99.95 1.4 -99.1 4.25 -99.35 2.35 -98.6 2.9 -97.5 0.8 -98.25 -0.95 -96.8 -0.55 -97.85 Q-0.45 -98.45 -1.35 -98.35 L-3.0 -98.4 Q0.0 -99.1 0.2 -99.35 L0.4 -101.55 Q0.55 -104.25 0.8 -105.4 1.0 -106.6 1.65 -107.45 2.3 -108.3 3.05 -107.65 L3.9 -106.75" fill="#808c20" fill-rule="evenodd" stroke="none"/>
      <path d="M1.9 -99.95 L6.1 -100.75 Q7.4 -99.1 9.75 -99.15 L3.1 -98.4 Q3.05 -97.35 6.85 -95.6 3.2 -97.1 0.6 -97.55 -0.15 -97.15 -1.05 -95.8 L-2.5 -93.55 -1.85 -95.2 Q-1.55 -96.1 -1.5 -97.6 L-7.1 -96.4 Q-2.5 -98.15 -4.0 -98.6 -5.15 -99.05 -10.2 -98.7 -5.9 -99.1 -5.55 -100.2 L-1.1 -99.95 Q-0.25 -104.05 -0.55 -106.85 -2.95 -108.1 0.15 -109.05 3.2 -110.0 3.75 -109.05 4.1 -108.55 3.9 -106.75 L3.35 -103.95 1.9 -99.95 1.4 -99.1 M-1.1 -99.95 L-1.1 -99.45" fill="none" stroke="#000000" stroke-linecap="round" stroke-linejoin="round" stroke-opacity="0.3019608" stroke-width="0.30000000000000004"/>
      <path d="M1.85 -60.15 L-0.1 -60.1 -12.6 -60.45 -16.45 -60.85 -12.25 -62.8 -9.6 -64.05 -8.2 -62.55 Q-7.2 -61.85 -6.65 -61.85 -5.65 -61.85 -4.9 -63.3 L-4.5 -64.55 -4.5 -66.3 3.95 -69.5 4.1 -69.4 5.5 -68.3 6.0 -67.9 5.75 -67.7 Q4.95 -66.85 4.95 -65.7 4.95 -64.55 5.75 -63.8 6.6 -62.95 7.75 -62.95 8.9 -62.95 9.7 -63.8 10.55 -64.55 10.55 -65.7 10.55 -66.85 9.7 -67.7 9.0 -68.35 8.0 -68.45 L6.75 -69.85 6.4 -70.35 10.95 -71.7 11.7 -70.75 Q15.6 -65.45 16.1 -61.65 L13.95 -61.35 14.25 -61.35 2.6 -60.25 1.85 -60.15" fill="url(#decoration169-gradient3)" fill-rule="evenodd" stroke="none"/>
      <path d="M-6.25 -52.55 L-6.25 -52.65 -6.25 -53.1 Q-6.4 -54.15 -7.2 -54.95 -8.15 -55.85 -9.55 -55.85 -10.9 -55.85 -11.85 -54.95 -12.8 -54.0 -12.8 -52.65 -12.8 -51.3 -12.2 -50.75 -11.7 -50.3 -11.3 -50.2 -11.1 -50.15 -11.05 -49.15 -15.3 -50.05 -16.45 -51.5 -16.9 -54.95 -16.35 -58.8 L-1.6 -57.65 Q6.05 -57.5 14.45 -59.5 14.95 -54.95 14.45 -49.6 L13.7 -49.5 12.6 -49.4 11.05 -49.3 11.2 -49.65 11.75 -50.15 12.45 -51.15 12.55 -51.9 Q12.55 -52.95 11.75 -53.75 11.0 -54.45 9.95 -54.45 L8.8 -54.2 8.25 -54.7 7.45 -55.15 6.7 -54.95 6.6 -54.9 Q6.15 -54.55 6.05 -54.05 L5.8 -53.75 5.55 -52.9 Q5.55 -51.9 6.3 -51.65 L6.25 -50.7 Q6.2 -50.15 6.6 -49.65 L7.05 -49.2 -7.15 -48.6 Q-6.25 -50.8 -6.25 -52.55" fill="url(#decoration169-gradient4)" fill-rule="evenodd" stroke="none"/>
      <path d="M-6.25 -52.55 Q-6.25 -50.8 -7.15 -48.6 L7.05 -49.2 6.6 -49.65 Q6.2 -50.15 6.25 -50.7 L6.3 -51.65 Q5.55 -51.9 5.55 -52.9 L5.8 -53.75 6.05 -54.05 6.0 -53.75 Q5.95 -52.95 6.6 -52.6 6.95 -52.3 7.45 -52.3 7.05 -50.75 8.3 -50.0 L8.85 -49.6 7.65 -47.4 -4.05 -46.75 -5.75 -46.85 -8.3 -48.65 -8.85 -49.45 Q-7.95 -49.6 -7.2 -50.35 -6.3 -51.25 -6.25 -52.55 M11.05 -49.3 L12.6 -49.4 13.7 -49.5 14.45 -49.6 Q14.95 -54.95 14.45 -59.5 L16.6 -59.7 Q17.2 -51.3 16.55 -48.4 L10.3 -47.4 10.4 -47.65 11.05 -49.3 M-16.45 -51.5 Q-15.3 -50.05 -11.05 -49.15 L-11.1 -48.2 -10.75 -47.45 Q-14.05 -47.85 -16.2 -49.4 L-16.45 -51.5 M16.55 -48.4 L14.45 -49.6 16.55 -48.4" fill="#fabf29" fill-rule="evenodd" stroke="none"/>
      <path d="M1.85 -60.15 L2.6 -60.25 2.6 -60.15 1.85 -60.15" fill="#eab427" fill-rule="evenodd" stroke="none"/>
      <path d="M2.6 -60.25 L14.25 -61.35 13.95 -61.35 16.1 -61.65 Q15.6 -65.45 11.7 -70.75 L10.95 -71.7 6.4 -70.35 6.75 -69.85 8.0 -68.45 Q9.0 -68.35 9.7 -67.7 10.55 -66.85 10.55 -65.7 10.55 -64.55 9.7 -63.8 8.9 -62.95 7.75 -62.95 6.6 -62.95 5.75 -63.8 4.95 -64.55 4.95 -65.7 4.95 -66.85 5.75 -67.7 L6.0 -67.9 5.5 -68.3 4.1 -69.4 3.95 -69.5 -4.5 -66.3 -4.5 -64.55 -4.9 -63.3 Q-5.65 -61.85 -6.65 -61.85 -7.2 -61.85 -8.2 -62.55 L-9.6 -64.05 -12.25 -62.8 -16.45 -60.85 -12.6 -60.45 -0.1 -60.1 1.85 -60.15 2.6 -60.25 M-11.05 -49.15 Q-11.1 -50.15 -11.3 -50.2 -11.7 -50.3 -12.2 -50.75 -12.8 -51.3 -12.8 -52.65 -12.8 -54.0 -11.85 -54.95 -10.9 -55.85 -9.55 -55.85 -8.15 -55.85 -7.2 -54.95 -6.4 -54.15 -6.25 -53.1 L-6.25 -52.65 -6.25 -52.55 Q-6.25 -50.8 -7.15 -48.6 L7.05 -49.2 6.6 -49.65 Q6.2 -50.15 6.25 -50.7 L6.3 -51.65 Q5.55 -51.9 5.55 -52.9 L5.8 -53.75 6.05 -54.05 Q6.15 -54.55 6.6 -54.9 L6.7 -54.95 7.45 -55.15 8.25 -54.7 8.8 -54.2 9.95 -54.45 Q11.0 -54.45 11.75 -53.75 12.55 -52.95 12.55 -51.9 L12.45 -51.15 11.75 -50.15 11.2 -49.65 11.05 -49.3 12.6 -49.4 13.7 -49.5 14.45 -49.6 Q14.95 -54.95 14.45 -59.5 6.05 -57.5 -1.6 -57.65 L-16.35 -58.8 Q-16.9 -54.95 -16.45 -51.5 -15.3 -50.05 -11.05 -49.15 L-11.1 -48.2 -10.75 -47.45 Q-14.05 -47.85 -16.2 -49.4 L-16.45 -51.5 M6.05 -54.05 L6.0 -53.75 Q5.95 -52.95 6.6 -52.6 6.95 -52.3 7.45 -52.3 7.05 -50.75 8.3 -50.0 L8.85 -49.6 7.65 -47.4 -4.05 -46.75 -5.75 -46.85 -8.3 -48.65 -8.85 -49.45 Q-7.95 -49.6 -7.2 -50.35 -6.3 -51.25 -6.25 -52.55 M14.45 -59.5 L16.6 -59.7 Q17.2 -51.3 16.55 -48.4 L10.3 -47.4 10.4 -47.65 11.05 -49.3 M14.45 -49.6 L16.55 -48.4" fill="none" stroke="#000000" stroke-linecap="round" stroke-linejoin="round" stroke-opacity="0.2509804" stroke-width="0.05"/>
      <path d="M-0.75 -86.05 L1.9 -86.15 2.3 -85.35 -1.15 -85.35 -0.75 -86.05" fill="#fabf29" fill-rule="evenodd" stroke="none"/>
      <path d="M1.9 -86.15 L-0.75 -86.05 0.6 -88.45 1.9 -86.15" fill="url(#decoration169-gradient5)" fill-rule="evenodd" stroke="none"/>
      <path d="M-0.75 -86.05 L1.9 -86.15 0.6 -88.45 -0.75 -86.05 -1.15 -85.35 2.3 -85.35 1.9 -86.15 M-2.3 -80.35 L-2.55 -80.25" fill="none" stroke="#000000" stroke-linecap="round" stroke-linejoin="round" stroke-opacity="0.3019608" stroke-width="0.05"/>
      <path d="M-8.75 -88.7 L-11.55 -92.95 -9.9 -92.95 -9.95 -92.7 Q-9.95 -91.95 -9.35 -91.45 -8.7 -90.85 -7.8 -90.85 -6.95 -90.85 -6.4 -91.45 -5.7 -91.95 -5.7 -92.7 L-5.7 -92.95 -2.55 -92.95 Q-3.45 -91.25 -6.6 -87.05 -7.7 -88.1 -8.75 -88.7" fill="url(#decoration169-gradient6)" fill-rule="evenodd" stroke="none"/>
      <path d="M-2.55 -92.95 L-1.55 -92.95 -6.55 -85.35 -8.75 -88.7 Q-7.7 -88.1 -6.6 -87.05 -3.45 -91.25 -2.55 -92.95" fill="#fabf29" fill-rule="evenodd" stroke="none"/>
      <path d="M-8.75 -88.7 L-11.55 -92.95 -9.9 -92.95 -9.95 -92.7 Q-9.95 -91.95 -9.35 -91.45 -8.7 -90.85 -7.8 -90.85 -6.95 -90.85 -6.4 -91.45 -5.7 -91.95 -5.7 -92.7 L-5.7 -92.95 -2.55 -92.95 -1.55 -92.95 -6.55 -85.35 -8.75 -88.7 Q-7.7 -88.1 -6.6 -87.05 -3.45 -91.25 -2.55 -92.95" fill="none" stroke="#000000" stroke-linecap="round" stroke-linejoin="round" stroke-opacity="0.3019608" stroke-width="0.05"/>
      <path d="M5.95 -88.6 L3.15 -92.85 4.8 -92.85 4.75 -92.6 Q4.75 -91.85 5.35 -91.35 6.0 -90.75 6.9 -90.75 7.75 -90.75 8.3 -91.35 9.0 -91.85 9.0 -92.6 L9.0 -92.85 12.15 -92.85 Q11.25 -91.15 8.1 -86.95 L5.95 -88.6" fill="url(#decoration169-gradient7)" fill-rule="evenodd" stroke="none"/>
      <path d="M12.15 -92.85 L13.15 -92.85 8.15 -85.25 5.95 -88.6 8.1 -86.95 Q11.25 -91.15 12.15 -92.85" fill="#fabf29" fill-rule="evenodd" stroke="none"/>
      <path d="M5.95 -88.6 L3.15 -92.85 4.8 -92.85 4.75 -92.6 Q4.75 -91.85 5.35 -91.35 6.0 -90.75 6.9 -90.75 7.75 -90.75 8.3 -91.35 9.0 -91.85 9.0 -92.6 L9.0 -92.85 12.15 -92.85 13.15 -92.85 8.15 -85.25 5.95 -88.6 8.1 -86.95 Q11.25 -91.15 12.15 -92.85" fill="none" stroke="#000000" stroke-linecap="round" stroke-linejoin="round" stroke-opacity="0.3019608" stroke-width="0.05"/>
      <path d="M-7.8 -78.75 L-11.5 -86.25 -7.25 -81.15 -2.65 -83.95 0.45 -80.85 3.6 -83.95 8.15 -81.15 12.45 -86.25 10.35 -82.05 7.6 -79.1 5.15 -80.85 3.5 -81.95 2.1 -80.65 0.25 -78.65 -1.15 -79.5 -2.55 -80.35 -2.65 -80.4 -2.85 -80.25 -7.8 -78.75" fill="url(#decoration169-gradient8)" fill-rule="evenodd" stroke="none"/>
      <path d="M10.35 -82.05 L8.15 -77.6 3.6 -80.4 0.45 -77.3 -2.55 -80.35 -1.15 -79.5 0.25 -78.65 2.1 -80.65 3.5 -81.95 5.15 -80.85 7.6 -79.1 10.35 -82.05 M-2.85 -80.25 L-7.25 -77.6 -7.8 -78.75 -2.85 -80.25" fill="#fabf29" fill-rule="evenodd" stroke="none"/>
      <path d="M-7.8 -78.75 L-11.5 -86.25 -7.25 -81.15 -2.65 -83.95 0.45 -80.85 3.6 -83.95 8.15 -81.15 12.45 -86.25 10.35 -82.05 8.15 -77.6 3.6 -80.4 0.45 -77.3 -2.55 -80.35 -2.65 -80.4 -2.85 -80.25 -7.25 -77.6 -7.8 -78.75 -2.85 -80.25 M-2.55 -80.35 L-1.15 -79.5 0.25 -78.65 2.1 -80.65 3.5 -81.95 5.15 -80.85 7.6 -79.1 10.35 -82.05" fill="none" stroke="#000000" stroke-linecap="round" stroke-linejoin="round" stroke-opacity="0.3019608" stroke-width="0.05"/>
      <path d="M-20.15 -23.7 L-20.45 -24.05 -21.7 -25.45 -18.3 -30.0 -23.35 -29.85 -23.4 -30.85 Q-23.4 -34.0 -21.5 -36.45 L-20.5 -37.7 -6.0 -29.95 Q-8.05 -26.15 -11.0 -24.8 -13.35 -23.65 -17.7 -23.65 L-20.15 -23.7" fill="url(#decoration169-gradient9)" fill-rule="evenodd" stroke="none"/>
      <path d="M14.95 -21.0 Q11.0 -21.25 8.2 -23.9 6.3 -25.75 5.6 -28.25 L5.45 -28.9 20.6 -36.7 Q22.35 -33.05 22.65 -30.8 L20.75 -30.85 22.25 -27.65 Q21.6 -25.85 19.95 -24.2 17.45 -21.6 14.95 -21.0" fill="url(#decoration169-gradient10)" fill-rule="evenodd" stroke="none"/>
      <path d="M1.15 -28.9 L1.4 -29.5 5.45 -19.1 0.1 -21.35 3.1 -21.1 2.25 -25.25 1.15 -28.9" fill="url(#decoration169-gradient11)" fill-rule="evenodd" stroke="none"/>
      <path d="M1.15 -28.9 L2.25 -25.25 3.1 -21.1 0.1 -21.35 0.0 -21.4 -3.25 -19.0 1.15 -28.9" fill="url(#decoration169-gradient12)" fill-rule="evenodd" stroke="none"/>
      <path d="M20.6 -36.7 L22.6 -37.7 Q25.65 -34.8 25.65 -30.7 L25.65 -30.5 22.65 -30.8 Q22.35 -33.05 20.6 -36.7 M22.25 -27.65 L23.45 -24.8 22.6 -23.9 Q19.65 -21.0 15.45 -21.0 L14.95 -21.0 Q17.45 -21.6 19.95 -24.2 21.6 -25.85 22.25 -27.65" fill="url(#decoration169-gradient13)" fill-rule="evenodd" stroke="none"/>
      <path d="M-6.0 -29.95 L-3.25 -28.55 Q-3.8 -26.65 -5.1 -25.05 L-6.1 -24.05 Q-9.05 -21.1 -13.25 -21.1 -17.3 -21.1 -20.15 -23.7 L-17.7 -23.65 Q-13.35 -23.65 -11.0 -24.8 -8.05 -26.15 -6.0 -29.95" fill="url(#decoration169-gradient14)" fill-rule="evenodd" stroke="none"/>
      <path d="M-21.15 -18.05 L-13.85 -15.9 -8.15 -9.15 -4.55 -16.25 Q1.55 -13.8 7.35 -16.35 L11.55 -9.75 15.65 -15.95 Q19.35 -16.95 22.95 -18.35 19.15 -11.1 13.55 -7.0 L7.6 -8.4 6.85 -2.4 2.15 -7.2 Q0.4 -4.05 -1.4 -1.6 L-3.25 -3.3 Q-3.7 -4.4 -3.95 -5.8 L-4.55 -5.5 -8.6 -5.15 Q-15.35 -10.5 -21.15 -18.05" fill="url(#decoration169-gradient15)" fill-rule="evenodd" stroke="none"/>
      <path d="M22.95 -18.35 L26.95 -20.1 Q25.65 -16.15 20.65 -10.55 17.9 -7.5 14.4 -4.75 L14.25 -4.7 8.95 -6.3 8.75 -3.6 Q8.6 -1.35 8.75 -0.85 L8.65 -0.8 7.15 -2.15 6.85 -2.4 7.6 -8.4 13.55 -7.0 Q19.15 -11.1 22.95 -18.35 M-1.4 -1.6 L-2.4 -0.35 -2.55 -0.35 -3.25 -3.3 -1.4 -1.6 M-4.55 -5.5 L-8.05 -3.05 -10.0 -4.35 Q-21.15 -12.4 -23.5 -19.0 L-21.15 -18.05 Q-15.35 -10.5 -8.6 -5.15 L-4.55 -5.5" fill="url(#decoration169-gradient16)" fill-rule="evenodd" stroke="none"/>
      <path d="M-20.15 -23.7 L-20.45 -24.05 -21.7 -25.45 -18.3 -30.0 -23.35 -29.85 -23.4 -30.85 Q-23.4 -34.0 -21.5 -36.45 L-20.5 -37.7 -6.0 -29.95 -3.25 -28.55 Q-3.8 -26.65 -5.1 -25.05 L-6.1 -24.05 Q-9.05 -21.1 -13.25 -21.1 -17.3 -21.1 -20.15 -23.7 M0.1 -21.35 L5.45 -19.1 1.4 -29.5 1.15 -28.9 M0.1 -21.35 L0.0 -21.4 -3.25 -19.0 1.15 -28.9 M14.95 -21.0 Q11.0 -21.25 8.2 -23.9 6.3 -25.75 5.6 -28.25 L5.45 -28.9 20.6 -36.7 22.6 -37.7 Q25.65 -34.8 25.65 -30.7 L25.65 -30.5 22.65 -30.8 20.75 -30.85 22.25 -27.65 23.45 -24.8 22.6 -23.9 Q19.65 -21.0 15.45 -21.0 L14.95 -21.0 M-21.15 -18.05 L-13.85 -15.9 -8.15 -9.15 -4.55 -16.25 Q1.55 -13.8 7.35 -16.35 L11.55 -9.75 15.65 -15.95 Q19.35 -16.95 22.95 -18.35 L26.95 -20.1 Q25.65 -16.15 20.65 -10.55 17.9 -7.5 14.4 -4.75 L14.25 -4.7 8.95 -6.3 8.75 -3.6 Q8.6 -1.35 8.75 -0.85 L8.65 -0.8 7.15 -2.15 6.85 -2.4 2.15 -7.2 Q0.4 -4.05 -1.4 -1.6 L-2.4 -0.35 M-2.55 -0.35 L-3.25 -3.3 Q-3.7 -4.4 -3.95 -5.8 L-4.55 -5.5 -8.05 -3.05 -10.0 -4.35 Q-21.15 -12.4 -23.5 -19.0 L-21.15 -18.05" fill="none" stroke="#000000" stroke-linecap="round" stroke-linejoin="round" stroke-opacity="0.4" stroke-width="0.30000000000000004"/>
      <path d="M27.9 -78.9 Q28.2 -78.4 27.4 -77.5 L28.25 -77.1 29.5 -76.1 29.6 -75.95 29.65 -75.85 Q30.05 -75.15 29.35 -74.75 L29.2 -74.65 28.8 -74.45 Q28.1 -74.0 26.85 -73.7 L25.7 -73.5 25.35 -72.7 24.95 -71.95 24.85 -71.9 24.75 -71.85 23.8 -71.9 23.65 -72.1 23.5 -72.25 22.85 -73.2 Q20.85 -71.8 19.9 -72.05 19.5 -72.8 19.35 -73.8 19.25 -74.85 20.25 -75.7 21.2 -76.6 21.85 -76.75 L22.1 -77.6 Q23.6 -81.6 24.8 -79.5 L24.8 -78.45 Q26.35 -79.6 26.6 -79.35 27.6 -79.5 27.9 -78.9 M20.45 -73.2 Q20.25 -75.05 21.85 -76.75 24.7 -77.05 27.9 -75.55 24.7 -77.05 21.85 -76.75 20.25 -75.05 20.45 -73.2" fill="#3b461b" fill-rule="evenodd" stroke="none"/>
      <path d="M27.9 -78.9 Q28.2 -78.4 27.4 -77.5 L28.25 -77.1 29.5 -76.1 29.6 -75.95 29.65 -75.85 Q30.05 -75.15 29.35 -74.75 L29.2 -74.65 28.8 -74.45 Q28.1 -74.0 26.85 -73.7 L25.7 -73.5 25.35 -72.7 24.95 -71.95 24.85 -71.9 24.75 -71.85 23.8 -71.9 23.65 -72.1 23.5 -72.25 22.85 -73.2 Q20.85 -71.8 19.9 -72.05 19.5 -72.8 19.35 -73.8 19.25 -74.85 20.25 -75.7 21.2 -76.6 21.85 -76.75 L22.1 -77.6 Q23.6 -81.6 24.8 -79.5 L24.8 -78.45 Q26.35 -79.6 26.6 -79.35 27.6 -79.5 27.9 -78.9 M27.9 -75.55 Q24.7 -77.05 21.85 -76.75 20.25 -75.05 20.45 -73.2" fill="none" stroke="#000000" stroke-linecap="round" stroke-linejoin="round" stroke-opacity="0.3019608" stroke-width="0.05"/>
      <path d="M-25.9 -55.6 Q-25.25 -55.45 -24.3 -54.55 -23.3 -53.7 -23.4 -52.65 -23.55 -51.65 -23.95 -50.9 -24.9 -50.65 -26.9 -52.05 L-27.55 -51.1 -27.7 -50.95 -27.85 -50.75 -28.8 -50.7 -28.9 -50.75 -29.0 -50.8 Q-29.2 -50.9 -29.4 -51.55 L-29.75 -52.35 -30.9 -52.55 Q-32.15 -52.85 -32.85 -53.3 L-33.25 -53.5 -33.4 -53.6 Q-34.1 -54.0 -33.7 -54.7 L-33.65 -54.8 -33.55 -54.95 -32.3 -55.95 -31.45 -56.35 Q-32.25 -57.25 -31.95 -57.75 -31.65 -58.35 -30.65 -58.2 -30.4 -58.45 -28.85 -57.3 L-28.85 -58.35 Q-27.65 -60.45 -26.15 -56.45 L-25.9 -55.6 Q-28.75 -55.9 -31.95 -54.4 -28.75 -55.9 -25.9 -55.6 -24.3 -53.9 -24.5 -52.05 -24.3 -53.9 -25.9 -55.6" fill="#3b461b" fill-rule="evenodd" stroke="none"/>
      <path d="M-25.9 -55.6 L-26.15 -56.45 Q-27.65 -60.45 -28.85 -58.35 L-28.85 -57.3 Q-30.4 -58.45 -30.65 -58.2 -31.65 -58.35 -31.95 -57.75 -32.25 -57.25 -31.45 -56.35 L-32.3 -55.95 -33.55 -54.95 -33.65 -54.8 -33.7 -54.7 Q-34.1 -54.0 -33.4 -53.6 L-33.25 -53.5 -32.85 -53.3 Q-32.15 -52.85 -30.9 -52.55 L-29.75 -52.35 -29.4 -51.55 Q-29.2 -50.9 -29.0 -50.8 L-28.9 -50.75 -28.8 -50.7 -27.85 -50.75 -27.7 -50.95 -27.55 -51.1 -26.9 -52.05 Q-24.9 -50.65 -23.95 -50.9 -23.55 -51.65 -23.4 -52.65 -23.3 -53.7 -24.3 -54.55 -25.25 -55.45 -25.9 -55.6 -24.3 -53.9 -24.5 -52.05 M-31.95 -54.4 Q-28.75 -55.9 -25.9 -55.6 Z" fill="none" stroke="#000000" stroke-linecap="round" stroke-linejoin="round" stroke-opacity="0.3019608" stroke-width="0.05"/>
    </g>
    <radialGradient cx="0" cy="0" fx="28.8" fy="0" gradientTransform="matrix(0.0342, 0.0, 0.0, 0.0184, 0.35, -22.95)" gradientUnits="userSpaceOnUse" id="decoration169-gradient0" r="819.2" spreadMethod="pad">
      <stop offset="0.1803921568627451" stop-color="#ffb11d"/>
      <stop offset="0.9607843137254902" stop-color="#d86e13"/>
    </radialGradient>
    <radialGradient cx="0" cy="0" fx="28.8" fy="0" gradientTransform="matrix(0.0249, 0.0, 0.0, 0.0127, 0.6, -58.9)" gradientUnits="userSpaceOnUse" id="decoration169-gradient1" r="819.2" spreadMethod="pad">
      <stop offset="0.1803921568627451" stop-color="#ff992a"/>
      <stop offset="0.9607843137254902" stop-color="#f96420"/>
    </radialGradient>
    <radialGradient cx="0" cy="0" fx="28.8" fy="0" gradientTransform="matrix(0.0204, 0.0055, -0.003, 0.011, 0.4, -86.8)" gradientUnits="userSpaceOnUse" id="decoration169-gradient2" r="819.2" spreadMethod="pad">
      <stop offset="0.1803921568627451" stop-color="#ffa545"/>
      <stop offset="0.9725490196078431" stop-color="#ff9d24"/>
    </radialGradient>
    <radialGradient cx="0" cy="0" fx="6.4" fy="0" gradientTransform="matrix(0.0323, 0.0, 0.0, 0.0253, -0.45, -56.35)" gradientUnits="userSpaceOnUse" id="decoration169-gradient3" r="819.2" spreadMethod="pad">
      <stop offset="0.21176470588235294" stop-color="#ffeaa6"/>
      <stop offset="0.3803921568627451" stop-color="#fff45b"/>
      <stop offset="0.8313725490196079" stop-color="#e09506"/>
    </radialGradient>
    <radialGradient cx="0" cy="0" fx="6.4" fy="0" gradientTransform="matrix(0.0325, 0.0, 0.0, 0.0273, 0.05, -54.35)" gradientUnits="userSpaceOnUse" id="decoration169-gradient4" r="819.2" spreadMethod="pad">
      <stop offset="0.21176470588235294" stop-color="#ffeaa6"/>
      <stop offset="0.3803921568627451" stop-color="#fff45b"/>
      <stop offset="0.8313725490196079" stop-color="#e09506"/>
    </radialGradient>
    <radialGradient cx="0" cy="0" fx="6.4" fy="0" gradientTransform="matrix(0.0029, 0.0, 0.0, 0.0029, 0.6, -86.9)" gradientUnits="userSpaceOnUse" id="decoration169-gradient5" r="819.2" spreadMethod="pad">
      <stop offset="0.21176470588235294" stop-color="#ffeaa6"/>
      <stop offset="0.3803921568627451" stop-color="#fff45b"/>
      <stop offset="0.8313725490196079" stop-color="#e09506"/>
    </radialGradient>
    <radialGradient cx="0" cy="0" fx="6.4" fy="0" gradientTransform="matrix(0.0086, -0.0058, 0.0067, 0.0074, -6.55, -89.15)" gradientUnits="userSpaceOnUse" id="decoration169-gradient6" r="819.2" spreadMethod="pad">
      <stop offset="0.21176470588235294" stop-color="#ffeaa6"/>
      <stop offset="0.3803921568627451" stop-color="#fff45b"/>
      <stop offset="0.8313725490196079" stop-color="#e09506"/>
    </radialGradient>
    <radialGradient cx="0" cy="0" fx="6.4" fy="0" gradientTransform="matrix(0.0086, -0.0058, 0.0067, 0.0074, 8.15, -89.05)" gradientUnits="userSpaceOnUse" id="decoration169-gradient7" r="819.2" spreadMethod="pad">
      <stop offset="0.21176470588235294" stop-color="#ffeaa6"/>
      <stop offset="0.3803921568627451" stop-color="#fff45b"/>
      <stop offset="0.8313725490196079" stop-color="#e09506"/>
    </radialGradient>
    <radialGradient cx="0" cy="0" fx="6.4" fy="0" gradientTransform="matrix(0.0159, 0.0, 0.0, 0.0139, 0.45, -83.45)" gradientUnits="userSpaceOnUse" id="decoration169-gradient8" r="819.2" spreadMethod="pad">
      <stop offset="0.21176470588235294" stop-color="#ffeaa6"/>
      <stop offset="0.3803921568627451" stop-color="#fff45b"/>
      <stop offset="0.8313725490196079" stop-color="#e09506"/>
    </radialGradient>
    <radialGradient cx="0" cy="0" fx="6.4" fy="0" gradientTransform="matrix(0.0218, 0.0, 0.0, 0.021, -10.95, -28.35)" gradientUnits="userSpaceOnUse" id="decoration169-gradient9" r="819.2" spreadMethod="pad">
      <stop offset="0.21176470588235294" stop-color="#ffeaa6"/>
      <stop offset="0.3803921568627451" stop-color="#fff45b"/>
      <stop offset="0.8313725490196079" stop-color="#e09506"/>
    </radialGradient>
    <radialGradient cx="0" cy="0" fx="6.4" fy="0" gradientTransform="matrix(0.0194, 0.0, 0.0, 0.0186, 14.2, -28.7)" gradientUnits="userSpaceOnUse" id="decoration169-gradient10" r="819.2" spreadMethod="pad">
      <stop offset="0.21176470588235294" stop-color="#ffeaa6"/>
      <stop offset="0.3803921568627451" stop-color="#fff45b"/>
      <stop offset="0.8313725490196079" stop-color="#e09506"/>
    </radialGradient>
    <radialGradient cx="0" cy="0" fx="6.4" fy="0" gradientTransform="matrix(1.5536, 0.0, 0.0, 1.4944, -53.1, -195.1)" gradientUnits="userSpaceOnUse" id="decoration169-gradient11" r="819.2" spreadMethod="pad">
      <stop offset="0.0" stop-color="#fff269"/>
      <stop offset="0.2235294117647059" stop-color="#e09506"/>
    </radialGradient>
    <radialGradient cx="0" cy="0" fx="6.4" fy="0" gradientTransform="matrix(0.0128, 0.0, 0.0, 0.0124, 1.55, -26.65)" gradientUnits="userSpaceOnUse" id="decoration169-gradient12" r="819.2" spreadMethod="pad">
      <stop offset="0.21176470588235294" stop-color="#ffeaa6"/>
      <stop offset="0.3803921568627451" stop-color="#fff45b"/>
      <stop offset="0.8313725490196079" stop-color="#e09506"/>
    </radialGradient>
    <radialGradient cx="0" cy="0" fx="6.4" fy="0" gradientTransform="matrix(1.5536, 0.0, 0.0, 1.4944, -56.95, -192.5)" gradientUnits="userSpaceOnUse" id="decoration169-gradient13" r="819.2" spreadMethod="pad">
      <stop offset="0.0" stop-color="#fff269"/>
      <stop offset="0.2235294117647059" stop-color="#e09506"/>
    </radialGradient>
    <radialGradient cx="0" cy="0" fx="6.4" fy="0" gradientTransform="matrix(1.5536, 0.0, 0.0, 1.4944, -49.55, -192.6)" gradientUnits="userSpaceOnUse" id="decoration169-gradient14" r="819.2" spreadMethod="pad">
      <stop offset="0.0" stop-color="#fff269"/>
      <stop offset="0.2235294117647059" stop-color="#e09506"/>
    </radialGradient>
    <radialGradient cx="0" cy="0" fx="6.4" fy="0" gradientTransform="matrix(0.0345, 0.0, 0.0, 0.0332, 1.8, -19.05)" gradientUnits="userSpaceOnUse" id="decoration169-gradient15" r="819.2" spreadMethod="pad">
      <stop offset="0.21176470588235294" stop-color="#ffeaa6"/>
      <stop offset="0.3803921568627451" stop-color="#fff45b"/>
      <stop offset="0.8313725490196079" stop-color="#e09506"/>
    </radialGradient>
    <radialGradient cx="0" cy="0" fx="6.4" fy="0" gradientTransform="matrix(1.5536, 0.0, 0.0, 1.4944, -53.6, -198.65)" gradientUnits="userSpaceOnUse" id="decoration169-gradient16" r="819.2" spreadMethod="pad">
      <stop offset="0.0" stop-color="#fff269"/>
      <stop offset="0.2235294117647059" stop-color="#e09506"/>
    </radialGradient>
  </defs>
</svg>
