<?xml version="1.0" encoding="UTF-8" standalone="no"?>
<svg xmlns:xlink="http://www.w3.org/1999/xlink" height="37.95px" width="118.95px" xmlns="http://www.w3.org/2000/svg">
  <g transform="matrix(1.0, 0.0, 0.0, 1.0, 56.3, 37.6)">
    <use height="37.95" transform="matrix(1.0, 0.0, 0.0, 1.0, -56.3, -37.6)" width="118.95" xlink:href="#decoration17-shape0"/>
    <use height="3.7" id="decoration17-B" transform="matrix(1.0, 0.0, 0.0, 1.1867, -53.45, -34.95)" width="111.55" xlink:href="#decoration17-sprite0"/>
  </g>
  <defs>
    <g id="decoration17-shape0" transform="matrix(1.0, 0.0, 0.0, 1.0, 56.3, 37.6)">
      <path d="M58.35 -0.2 L55.3 -0.2 55.3 -29.05 -44.7 -29.05 -44.7 0.05 -49.1 0.05 -49.1 -32.95 54.25 -35.8 62.65 -32.95 62.65 -29.05 58.35 -29.05 58.35 -0.2" fill="#000000" fill-opacity="0.3019608" fill-rule="evenodd" stroke="none"/>
      <path d="M14.05 -37.35 L16.2 -37.4 51.3 -37.4 56.0 -36.15 16.65 -34.85 -12.95 -34.85 Q-1.75 -37.05 14.05 -37.35 M-51.15 -36.15 L-46.75 -37.4 -18.85 -37.4 -51.15 -36.15" fill="#795531" fill-rule="evenodd" stroke="none"/>
      <path d="M60.75 -34.85 L60.75 -32.65 Q54.75 -33.9 49.7 -30.45 L-37.8 -30.45 Q-15.7 -35.35 10.2 -33.15 L42.15 -32.15 Q48.0 -32.9 49.6 -34.85 L60.75 -34.85 M-34.2 -34.85 Q-44.05 -32.3 -55.75 -32.5 L-55.75 -34.85 -34.2 -34.85" fill="#412a14" fill-rule="evenodd" stroke="none"/>
      <path d="M60.75 -32.65 L60.75 -30.45 55.8 -30.45 52.1 -30.45 49.7 -30.45 Q54.75 -33.9 60.75 -32.65 M55.8 -26.4 L55.8 0.15 52.1 0.15 52.1 -0.9 52.1 -26.4 Q53.65 -24.6 55.8 -26.4 M-37.8 -30.45 L-46.55 -30.45 -48.6 -30.45 -52.3 -30.45 -55.75 -30.45 -55.75 -32.5 Q-44.05 -32.3 -34.2 -34.85 L-12.95 -34.85 16.65 -34.85 49.6 -34.85 Q48.0 -32.9 42.15 -32.15 L10.2 -33.15 Q-15.7 -35.35 -37.8 -30.45 M-48.6 -0.55 L-48.6 0.15 -52.3 0.15 -52.3 -26.25 Q-51.1 -24.15 -48.6 -25.9 L-48.6 -0.55" fill="#4f351b" fill-rule="evenodd" stroke="none"/>
      <path d="M55.8 -30.45 L55.8 -26.4 Q53.65 -24.6 52.1 -26.4 L52.1 -30.45 55.8 -30.45 M-52.3 -26.25 L-52.3 -30.45 -48.6 -30.45 -48.6 -25.9 Q-51.1 -24.15 -52.3 -26.25" fill="#3a2511" fill-rule="evenodd" stroke="none"/>
      <path d="M52.1 -0.9 L49.9 -0.9 49.7 -30.45 52.1 -30.45 52.1 -26.4 52.1 -0.9 M-46.55 -30.45 L-47.05 -0.7 -48.6 -0.55 -48.6 -25.9 -48.6 -30.45 -46.55 -30.45" fill="#352311" fill-rule="evenodd" stroke="none"/>
      <path d="M56.0 -36.15 L60.75 -34.85 49.6 -34.85 16.65 -34.85 56.0 -36.15 M-12.95 -34.85 L-34.2 -34.85 -55.75 -34.85 -51.15 -36.15 -18.85 -37.4 14.05 -37.35 Q-1.75 -37.05 -12.95 -34.85" fill="#8a6138" fill-rule="evenodd" stroke="none"/>
      <path d="M14.05 -37.35 L16.2 -37.4 51.3 -37.4 56.0 -36.15 60.75 -34.85 60.75 -32.65 60.75 -30.45 55.8 -30.45 55.8 -26.4 55.8 0.15 52.1 0.15 52.1 -0.9 49.9 -0.9 49.7 -30.45 -37.8 -30.45 -46.55 -30.45 -47.05 -0.7 -48.6 -0.55 -48.6 0.15 -52.3 0.15 -52.3 -26.25 -52.3 -30.45 -55.75 -30.45 -55.75 -32.5 -55.75 -34.85 -51.15 -36.15 -46.75 -37.4 -18.85 -37.4 14.05 -37.35 M55.8 -30.45 L52.1 -30.45 52.1 -26.4 M52.1 -30.45 L49.7 -30.45 M49.6 -34.85 L16.65 -34.85 -12.95 -34.85 -34.2 -34.85 M52.1 -0.9 L52.1 -26.4 M49.6 -34.85 L60.75 -34.85 M-46.55 -30.45 L-48.6 -30.45 -48.6 -25.9 -48.6 -0.55 M-48.6 -30.45 L-52.3 -30.45 M-55.75 -34.85 L-34.2 -34.85" fill="none" stroke="#000000" stroke-linecap="round" stroke-linejoin="round" stroke-opacity="0.3882353" stroke-width="0.4"/>
      <path d="M-55.75 -32.5 L-56.2 -32.5 M49.7 -30.45 Q54.75 -33.9 60.75 -32.65 M-37.8 -30.45 Q-15.7 -35.35 10.2 -33.15 L42.15 -32.15 Q48.0 -32.9 49.6 -34.85 M-34.2 -34.85 Q-44.05 -32.3 -55.75 -32.5 M14.05 -37.35 Q-1.75 -37.05 -12.95 -34.85 M16.65 -34.85 L56.0 -36.15 M-51.15 -36.15 L-18.85 -37.4" fill="none" stroke="#000000" stroke-linecap="round" stroke-linejoin="round" stroke-opacity="0.23137255" stroke-width="0.2"/>
    </g>
    <g id="decoration17-sprite0" transform="matrix(1.0, 0.0, 0.0, 1.0, 0.0, 0.0)">
      <use height="2.2" transform="matrix(1.9991, 0.0, 0.0, 1.6818, 0.0, 0.0)" width="55.8" xlink:href="#decoration17-shape1"/>
    </g>
    <g id="decoration17-shape1" transform="matrix(1.0, 0.0, 0.0, 1.0, 0.0, 0.0)">
      <path d="M55.8 2.2 L0.0 2.2 0.0 0.0 55.8 0.0 55.8 2.2" fill="#0066ff" fill-opacity="0.0" fill-rule="evenodd" stroke="none"/>
    </g>
  </defs>
</svg>
