<?xml version="1.0" encoding="UTF-8" standalone="no"?>
<svg xmlns:xlink="http://www.w3.org/1999/xlink" height="195.5px" width="155.0px" xmlns="http://www.w3.org/2000/svg">
  <g transform="matrix(1.0, 0.0, 0.0, 1.0, 105.9, 197.35)">
    <use data-characterId="227" height="195.5" transform="matrix(1.0, 0.0, 0.0, 1.0, -105.9, -197.35)" width="155.0" xlink:href="#decoration170-shape0"/>
  </g>
  <defs>
    <g id="decoration170-shape0" transform="matrix(1.0, 0.0, 0.0, 1.0, 105.9, 197.35)">
      <path d="M4.95 -145.8 L5.15 -145.25 5.2 -145.3 4.65 -140.9 -5.0 -124.15 -5.2 -123.85 -5.25 -123.8 -9.1 -118.25 -6.4 -104.0 -13.0 -76.3 -10.65 -72.7 -12.2 -66.1 -5.15 -57.7 -9.25 -51.55 -9.7 -50.95 -8.65 -49.25 -2.9 -40.15 -3.55 -12.7 -7.25 -19.55 -10.9 -23.4 -21.65 -47.15 Q-22.9 -62.95 -27.15 -73.95 L-27.1 -73.95 -21.15 -77.1 -19.15 -78.4 -34.1 -86.1 -43.55 -93.7 -34.25 -89.3 -34.1 -99.05 -30.6 -86.3 -23.05 -82.35 -22.65 -84.25 -22.55 -85.0 -16.75 -108.3 Q-15.0 -111.4 -14.2 -108.9 -13.4 -106.45 -12.7 -103.35 -12.25 -104.95 -12.25 -106.45 -12.25 -108.3 -12.6 -109.6 -13.25 -111.8 -14.7 -111.8 L-15.55 -111.45 -16.85 -110.6 -17.7 -109.4 -18.65 -107.7 -16.05 -123.9 -16.05 -124.2 -16.3 -124.6 -19.95 -133.65 -18.65 -138.1 -17.95 -140.45 -15.7 -140.6 -13.5 -140.95 -13.5 -141.05 -3.85 -132.8 Q0.55 -138.15 1.6 -141.2 L0.3 -160.35 4.95 -145.8 M-14.6 -130.45 L-18.65 -138.1 -14.6 -130.45 M-34.15 -4.15 L-37.85 -4.15 -22.45 -17.95 -22.65 -17.15 Q-26.65 -11.0 -34.15 -4.15 M-62.1 -163.65 L-68.9 -165.15 Q-70.65 -166.45 -70.1 -167.55 -69.8 -168.3 -68.35 -168.95 L-63.35 -167.45 -63.8 -171.75 -69.95 -175.25 -64.45 -174.25 -64.35 -178.2 -64.15 -181.55 Q-63.25 -178.8 -62.2 -173.6 L-62.05 -173.65 -59.95 -166.45 -62.1 -163.65 M-82.15 -166.4 L-84.5 -166.3 -86.65 -167.75 -88.95 -169.25 -75.3 -169.25 -75.45 -169.8 -73.15 -166.6 -75.15 -167.75 -82.15 -166.4 M-76.0 -172.05 L-77.15 -176.75 -77.25 -176.85 -77.25 -179.85 Q-87.3 -190.15 -91.1 -193.35 L-84.15 -188.0 -74.9 -178.95 -72.7 -171.8 -76.0 -172.05 M-56.8 -167.7 L-47.2 -167.15 -33.1 -160.95 -28.3 -165.95 -32.25 -157.4 -48.15 -164.9 -56.8 -167.7 M-34.45 -194.15 L-30.35 -174.85 -20.4 -165.9 -21.15 -163.25 -32.65 -172.9 -34.45 -194.15 M-32.45 -175.35 L-32.6 -179.3 -32.45 -175.35 M-26.85 -170.0 L-31.0 -173.8 -26.85 -170.0 M-66.05 -166.1 L-70.1 -167.55 -66.05 -166.1 M-15.9 -106.35 Q-15.9 -104.7 -15.15 -103.2 -14.35 -101.6 -13.35 -101.65 L-12.7 -103.35 -13.35 -101.65 Q-14.35 -101.6 -15.15 -103.2 -15.9 -104.7 -15.9 -106.35 M-17.4 -110.05 L-17.7 -109.8 -17.65 -109.8 -17.4 -110.05 M-17.15 -80.45 L-13.7 -98.4 -17.15 -80.45 M-83.5 -167.65 L-86.65 -167.75 -83.5 -167.65 M-22.2 -81.9 L-23.05 -82.35 -22.2 -81.9 M-16.8 -78.85 L-9.25 -51.55 -16.8 -78.85 M-9.7 -33.45 L-16.8 -58.2 -9.7 -33.45" fill="#413930" fill-rule="evenodd" stroke="none"/>
      <path d="M6.15 -138.05 L5.65 -142.5 10.05 -143.55 7.1 -140.6 7.1 -140.55 6.15 -138.05 M-5.0 -124.15 L0.45 -123.6 -3.25 -113.2 -3.5 -108.35 Q-4.95 -112.5 -8.15 -117.3 L-7.05 -116.25 -5.25 -123.8 -5.2 -123.85 -5.0 -124.15 M-0.7 -53.05 L-0.55 -52.1 Q-0.55 -51.75 2.8 -44.7 L8.45 -32.9 11.3 -27.15 9.15 -26.25 Q6.25 -24.9 3.95 -23.2 L1.15 -3.65 -10.35 -3.55 -22.05 -3.55 -9.15 -9.9 -9.0 -10.5 -10.35 -3.55 -9.0 -10.5 -7.95 -15.95 -7.25 -19.55 -3.55 -12.7 -2.9 -40.15 -0.7 -53.05 M-27.1 -73.95 Q-25.65 -76.4 -25.15 -78.9 L-21.15 -77.1 -27.1 -73.95" fill="#241b15" fill-rule="evenodd" stroke="none"/>
      <path d="M-13.5 -141.05 L-13.5 -140.95 -15.7 -140.6 -17.95 -140.45 -18.65 -138.1 -19.95 -133.65 -24.55 -145.1 -31.55 -147.8 -33.55 -149.6 -39.6 -154.75 -46.8 -159.05 -61.15 -163.55 -61.3 -163.5 -62.1 -163.65 -59.95 -166.45 -62.05 -173.65 -59.65 -174.4 Q-57.8 -169.1 -56.8 -167.7 L-48.15 -164.9 -32.25 -157.4 -28.3 -165.95 -35.25 -172.55 -34.45 -194.15 -32.65 -172.9 -21.15 -163.25 -24.2 -153.4 -13.5 -141.05 M10.05 -143.55 L5.65 -142.5 6.15 -138.05 0.45 -123.6 -5.0 -124.15 4.65 -140.9 5.2 -145.3 25.8 -159.3 10.05 -143.55 M-22.05 -3.55 L-26.4 -3.8 -34.15 -4.15 Q-26.65 -11.0 -22.65 -17.15 L-23.25 -14.85 -23.4 -14.05 -26.4 -3.8 -10.9 -23.4 -7.25 -19.55 -7.95 -15.95 -9.0 -10.5 -9.15 -9.9 -22.05 -3.55 M-25.15 -78.9 L-34.1 -86.1 -19.15 -78.4 -21.15 -77.1 -25.15 -78.9 M-71.6 -165.75 L-75.1 -166.55 -82.15 -166.4 -75.15 -167.75 -73.15 -166.6 -71.6 -165.75 M-84.15 -188.0 L-73.3 -179.7 -70.8 -171.65 -72.7 -171.8 -74.9 -178.95 -84.15 -188.0 M25.7 -25.4 L25.6 -25.35 25.65 -25.4 25.7 -25.4 M-26.9 -150.7 L-32.0 -155.6 -26.9 -150.7 M-5.25 -123.8 L-7.05 -116.25 -8.15 -117.3 Q-4.95 -112.5 -3.5 -108.35 L-3.95 -101.85 -3.95 -101.45 -4.05 -100.5 -3.95 -101.85 -4.05 -100.5 -10.65 -72.7 -13.0 -76.3 -6.4 -104.0 -9.1 -118.25 -5.25 -123.8 M-22.95 -146.2 L-18.65 -138.1 -22.95 -146.2 M-2.9 -40.15 L-8.65 -49.25 -9.7 -50.95 -9.25 -51.55 -5.15 -57.7 -0.7 -53.05 -2.9 -40.15 M-8.65 -49.25 L-9.25 -51.55 -8.65 -49.25 M3.85 -137.85 L-3.0 -126.1 3.85 -137.85" fill="#2e2620" fill-rule="evenodd" stroke="none"/>
      <path d="M-4.05 -100.5 L-5.35 -82.35 -5.05 -77.65 -4.4 -70.8 -4.4 -70.7 4.85 -72.25 7.2 -71.55 -2.95 -66.1 -1.6 -63.7 0.45 -60.35 Q0.6 -59.6 0.0 -56.55 L-0.7 -53.05 -5.15 -57.7 -10.65 -72.7 -4.05 -100.5 M-70.8 -171.65 L-70.15 -169.5 Q-70.55 -168.9 -72.55 -171.25 L-72.7 -171.8 -70.8 -171.65" fill="#3a3210" fill-rule="evenodd" stroke="none"/>
      <path d="M-22.55 -85.0 L-19.6 -102.25 -18.65 -107.7 -17.7 -109.4 -16.85 -110.6 -15.55 -111.45 -14.7 -111.8 Q-13.25 -111.8 -12.6 -109.6 -12.25 -108.3 -12.25 -106.45 -12.25 -104.95 -12.7 -103.35 -13.4 -106.45 -14.2 -108.9 -15.0 -111.4 -16.75 -108.3 L-22.55 -85.0 M-84.5 -166.3 L-92.3 -166.1 -105.65 -177.4 -91.4 -169.25 -88.95 -169.25 -86.65 -167.75 -84.5 -166.3 M-77.25 -176.85 L-95.95 -197.1 -92.7 -194.6 -91.1 -193.35 Q-87.3 -190.15 -77.25 -179.85 L-77.25 -176.85 M-17.4 -110.05 L-17.65 -109.8 -17.7 -109.8 -17.4 -110.05 M-93.35 -194.7 L-92.7 -194.6 -93.35 -194.7 M-89.0 -167.85 L-86.65 -167.75 -89.0 -167.85" fill="#665c56" fill-rule="evenodd" stroke="none"/>
      <path d="M-22.45 -17.95 L-22.45 -18.05 -22.2 -20.7 Q-21.05 -32.45 -21.35 -41.8 L-21.65 -47.15 -10.9 -23.4 -26.4 -3.8 -23.4 -14.05 -23.25 -14.85 -22.65 -17.15 -22.45 -17.95 M-16.3 -124.6 L-18.5 -128.15 -23.3 -135.35 -31.55 -147.8 -24.55 -145.1 -19.95 -133.65 -16.3 -124.6 M-68.9 -165.15 L-71.6 -165.75 -73.15 -166.6 -75.45 -169.8 -76.0 -172.05 -72.7 -171.8 -72.55 -171.25 Q-70.55 -168.9 -70.15 -169.5 L-68.35 -168.95 Q-69.8 -168.3 -70.1 -167.55 -70.65 -166.45 -68.9 -165.15 M-71.1 -167.9 L-70.1 -167.55 -71.1 -167.9 M-5.15 -57.7 L-12.2 -66.1 -10.65 -72.7 -5.15 -57.7" fill="#524a25" fill-rule="evenodd" stroke="none"/>
      <path d="M4.95 -145.8 L5.15 -145.25 5.2 -145.3 4.95 -145.8 0.3 -160.35 1.6 -141.2 Q0.55 -138.15 -3.85 -132.8 L-13.5 -141.05 -24.2 -153.4 -21.15 -163.25 -20.4 -165.9 -30.35 -174.85 -34.45 -194.15 -35.25 -172.55 -28.3 -165.95 -33.1 -160.95 -47.2 -167.15 -56.8 -167.7 Q-57.8 -169.1 -59.65 -174.4 L-62.05 -173.65 -62.2 -173.6 Q-63.25 -178.8 -64.15 -181.55 L-64.35 -178.2 -64.45 -174.25 -69.95 -175.25 -63.8 -171.75 -63.35 -167.45 -68.35 -168.95 -70.15 -169.5 -70.8 -171.65 -73.3 -179.7 -84.15 -188.0 -91.1 -193.35 -92.7 -194.6 -93.35 -194.7 M6.15 -138.05 L7.1 -140.55 7.1 -140.6 10.05 -143.55 25.8 -159.3 5.2 -145.3 M0.45 -123.6 L6.15 -138.05 M-4.05 -100.5 L-5.35 -82.35 -5.05 -77.65 -4.4 -70.8 -4.4 -70.7 4.85 -72.25 7.2 -71.55 -2.95 -66.1 -1.6 -63.7 0.45 -60.35 Q0.6 -59.6 0.0 -56.55 L-0.7 -53.05 -0.55 -52.1 Q-0.55 -51.75 2.8 -44.7 L8.45 -32.9 11.3 -27.15 M1.15 -3.65 L-10.35 -3.55 -22.05 -3.55 -26.4 -3.8 -34.15 -4.15 -37.85 -4.15 -22.45 -17.95 -22.45 -18.05 -22.2 -20.7 Q-21.05 -32.45 -21.35 -41.8 L-21.65 -47.15 Q-22.9 -62.95 -27.15 -73.95 L-27.1 -73.95 Q-25.65 -76.4 -25.15 -78.9 L-34.1 -86.1 -43.55 -93.7 -34.25 -89.3 -34.1 -99.05 -30.6 -86.3 -23.05 -82.35 -22.65 -84.25 -22.55 -85.0 -19.6 -102.25 -18.65 -107.7 -16.05 -123.9 -16.05 -124.2 -16.3 -124.6 -18.5 -128.15 M-23.3 -135.35 L-31.55 -147.8 -33.55 -149.6 -39.6 -154.75 -46.8 -159.05 -61.15 -163.55 -61.3 -163.5 -62.1 -163.65 -68.9 -165.15 -71.6 -165.75 -75.1 -166.55 -82.15 -166.4 -84.5 -166.3 -92.3 -166.1 -105.65 -177.4 -91.4 -169.25 -88.95 -169.25 -75.3 -169.25 -75.45 -169.8 -76.0 -172.05 -77.15 -176.75 -77.25 -176.85 -95.95 -197.1 -92.7 -194.6 M-3.5 -108.35 L-3.25 -113.2 0.45 -123.6 M-3.5 -108.35 L-3.95 -101.85 -3.95 -101.45 -4.05 -100.5 -3.95 -101.85 M-23.05 -82.35 L-22.2 -81.9 M-22.65 -17.15 L-23.25 -14.85 -23.4 -14.05 -26.4 -3.8 M-22.45 -17.95 L-22.65 -17.15" fill="none" stroke="#000000" stroke-linecap="round" stroke-linejoin="round" stroke-opacity="0.4" stroke-width="0.5"/>
      <path d="M-18.65 -138.1 L-14.6 -130.45 M-32.6 -179.3 L-32.45 -175.35 M-32.0 -155.6 L-26.9 -150.7 M-31.0 -173.8 L-26.85 -170.0 M-70.1 -167.55 L-66.05 -166.1 M-70.1 -167.55 L-71.1 -167.9 M-18.65 -138.1 L-22.95 -146.2 M-86.65 -167.75 L-89.0 -167.85 M-86.65 -167.75 L-83.5 -167.65 M-13.7 -98.4 L-17.15 -80.45 M-9.25 -51.55 L-16.8 -78.85 M-9.25 -51.55 L-8.65 -49.25 M-9.0 -10.5 L-10.35 -3.55 M-7.95 -15.95 L-9.0 -10.5 M-16.8 -58.2 L-9.7 -33.45 M-3.0 -126.1 L3.85 -137.85" fill="none" stroke="#000000" stroke-linecap="round" stroke-linejoin="round" stroke-opacity="0.4" stroke-width="0.1"/>
      <path d="M-18.65 -107.7 L-17.7 -109.4 -16.85 -110.6 -15.55 -111.45 -14.7 -111.8 Q-13.25 -111.8 -12.6 -109.6 -12.25 -108.3 -12.25 -106.45 -12.25 -104.95 -12.7 -103.35 L-13.35 -101.65 Q-14.35 -101.6 -15.15 -103.2 -15.9 -104.7 -15.9 -106.35" fill="none" stroke="#000000" stroke-linecap="round" stroke-linejoin="round" stroke-opacity="0.4" stroke-width="0.30000000000000004"/>
      <path d="M32.0 -35.25 L28.8 -31.75 28.35 -31.3 25.85 -29.45 25.8 -29.4 25.7 -29.3 25.65 -29.3 25.6 -29.25 25.55 -29.25 25.4 -29.15 Q20.35 -26.05 14.1 -25.8 L11.4 -25.85 Q7.8 -26.05 3.95 -27.1 6.25 -28.8 9.15 -30.15 L11.3 -31.05 12.25 -31.45 Q17.95 -33.6 25.6 -34.75 L31.85 -35.5 32.0 -35.25 M16.55 -30.1 L22.9 -31.0 Q19.5 -29.4 18.15 -28.95 L14.4 -28.85 10.35 -28.95 Q14.85 -31.3 17.85 -31.9 L28.6 -33.9 22.1 -28.9 Q20.7 -27.9 17.95 -27.5 L13.55 -26.95 10.05 -27.35 Q8.25 -27.85 7.85 -28.4 7.45 -29.05 9.15 -30.15 7.45 -29.05 7.85 -28.4 8.25 -27.85 10.05 -27.35 L13.55 -26.95 17.95 -27.5 Q20.7 -27.9 22.1 -28.9 L28.6 -33.9 17.85 -31.9 Q14.85 -31.3 10.35 -28.95 L14.4 -28.85 18.15 -28.95 Q19.5 -29.4 22.9 -31.0 L16.55 -30.1" fill="#665c52" fill-rule="evenodd" stroke="none"/>
      <path d="M25.7 -29.3 L25.8 -29.4 25.85 -29.45 28.35 -31.3 28.8 -31.75 32.0 -35.25 41.8 -8.75 48.85 -3.45 44.2 -3.45 37.1 -7.55 Q36.2 -17.85 31.7 -30.1 L21.0 -25.0 9.55 -24.6 11.4 -25.85 14.1 -25.8 Q20.35 -26.05 25.4 -29.15 L25.55 -29.25 25.6 -29.25 25.7 -29.3 M2.3 -15.6 L8.35 -6.2 1.2 -3.65 1.3 -3.75 -3.2 -3.8 -4.5 -3.95 1.1 -7.25 2.3 -15.6 M14.95 -14.75 L17.35 -19.75 17.4 -19.5 17.3 -19.6 26.95 -2.1 17.35 -3.95 12.6 -3.85 15.2 -15.05 14.95 -14.75 M17.85 -10.9 L17.35 -3.95 17.85 -10.9 M5.1 -6.65 L1.3 -3.75 5.1 -6.65" fill="#2e2620" fill-rule="evenodd" stroke="none"/>
      <path d="M9.55 -24.6 L21.0 -25.0 31.7 -30.1 Q36.2 -17.85 37.1 -7.55 L30.0 -8.35 21.65 -16.95 17.4 -19.5 17.35 -19.75 14.95 -14.75 8.35 -6.2 2.3 -15.6 2.7 -18.5 9.55 -24.6" fill="#413930" fill-rule="evenodd" stroke="none"/>
      <path d="M21.65 -16.95 L30.0 -8.35 29.95 -8.35 37.55 -3.45 26.95 -3.45 26.95 -2.1 21.65 -16.95 M3.85 -26.5 L3.95 -27.1 Q7.8 -26.05 11.4 -25.85 L9.55 -24.6 3.85 -26.5" fill="#3a3210" fill-rule="evenodd" stroke="none"/>
      <path d="M9.55 -24.6 L2.7 -18.5 3.85 -26.5 9.55 -24.6 M17.4 -19.5 L21.65 -16.95 26.95 -2.1 17.3 -19.6 17.4 -19.5" fill="#524a25" fill-rule="evenodd" stroke="none"/>
      <path d="M8.35 -6.2 L14.95 -14.75 15.2 -15.05 12.6 -3.85 1.2 -3.65 8.35 -6.2 M30.0 -8.35 L37.1 -7.55 44.2 -3.45 37.55 -3.45 29.95 -8.35 30.0 -8.35" fill="#241b15" fill-rule="evenodd" stroke="none"/>
      <path d="M25.7 -29.3 L25.8 -29.4 25.85 -29.45 28.35 -31.3 28.8 -31.75 32.0 -35.25 31.85 -35.5 25.6 -34.75 Q17.95 -33.6 12.25 -31.45 L11.3 -31.05 9.15 -30.15 Q7.45 -29.05 7.85 -28.4 8.25 -27.85 10.05 -27.35 L13.55 -26.95 17.95 -27.5 Q20.7 -27.9 22.1 -28.9 L28.6 -33.9 17.85 -31.9 Q14.85 -31.3 10.35 -28.95 L14.4 -28.85 18.15 -28.95 Q19.5 -29.4 22.9 -31.0 L16.55 -30.1 M11.4 -25.85 L14.1 -25.8 Q20.35 -26.05 25.4 -29.15 L25.55 -29.25 25.6 -29.25 25.65 -29.3 25.7 -29.3 25.6 -29.25 M2.7 -18.5 L2.3 -15.6 1.1 -7.25 -4.5 -3.95 -3.2 -3.8 1.3 -3.75 5.1 -6.65 M44.2 -3.45 L48.85 -3.45 41.8 -8.75 32.0 -35.25 M3.95 -27.1 L3.85 -26.5 2.7 -18.5 M11.4 -25.85 Q7.8 -26.05 3.95 -27.1 6.25 -28.8 9.15 -30.15 M12.6 -3.85 L17.35 -3.95 26.95 -2.1 26.95 -3.45 37.55 -3.45 44.2 -3.45 M1.2 -3.65 L1.3 -3.75 M12.6 -3.85 L1.2 -3.65" fill="none" stroke="#000000" stroke-linecap="round" stroke-linejoin="round" stroke-opacity="0.4" stroke-width="0.5"/>
      <path d="M17.35 -3.95 L17.85 -10.9" fill="none" stroke="#000000" stroke-linecap="round" stroke-linejoin="round" stroke-opacity="0.4" stroke-width="0.1"/>
    </g>
  </defs>
</svg>
