<?xml version="1.0" encoding="UTF-8" standalone="no"?>
<svg xmlns:ffdec="https://www.free-decompiler.com/flash" xmlns:xlink="http://www.w3.org/1999/xlink" ffdec:objectType="frame" height="175.4px" width="75.45px" xmlns="http://www.w3.org/2000/svg">
  <g transform="matrix(1.0, 0.0, 0.0, 1.0, 42.4, 175.05)">
    <use ffdec:characterId="325" height="175.4" transform="matrix(1.0, 0.0, 0.0, 1.0, -42.4, -175.05)" width="75.45" xlink:href="#decoration171-shape0"/>
  </g>
  <defs>
    <g id="decoration171-shape0" transform="matrix(1.0, 0.0, 0.0, 1.0, 42.4, 175.05)">
      <path d="M11.55 -147.1 L20.6 -169.25 Q20.5 -163.85 17.9 -153.15 14.7 -148.05 11.55 -147.1 M11.6 -133.5 L21.1 -133.5 25.6 -134.85 32.8 -143.4 29.25 -136.3 24.65 -131.8 11.25 -129.9 11.3 -130.0 4.55 -120.0 3.5 -119.5 Q-1.05 -118.25 -2.2 -117.6 L-0.95 -123.2 1.6 -127.1 1.85 -127.5 1.75 -121.6 8.0 -131.1 6.85 -135.15 Q7.7 -135.95 8.85 -136.4 9.65 -136.65 11.3 -133.1 L11.6 -133.5 M-12.45 -43.75 L-12.45 -43.8 -18.9 -49.1 -12.95 -48.75 -20.85 -54.85 -20.85 -54.9 -21.1 -57.3 -29.55 -64.3 -21.35 -60.2 -22.3 -69.95 -18.5 -56.4 -18.5 -56.35 -12.6 -52.15 -9.3 -58.5 -17.05 -72.35 -11.45 -77.6 -3.5 -101.25 1.65 -102.15 2.05 -102.0 1.65 -102.15 -2.95 -103.2 -4.95 -103.65 -5.4 -104.1 -15.0 -115.15 -19.65 -125.35 -19.5 -125.45 -17.85 -125.1 -13.35 -114.9 5.55 -105.5 2.05 -102.0 2.0 -101.95 Q-0.7 -85.45 -5.0 -71.15 L1.7 -52.65 -2.15 -46.8 3.3 -32.85 3.3 -32.8 3.1 -32.8 Q-5.45 -39.7 -12.45 -43.75 M16.15 -154.25 L17.8 -159.05 16.15 -154.25 M6.65 -125.5 L9.0 -133.45 6.65 -125.5 M-5.65 -85.85 L-1.6 -98.85 -5.65 -85.85 M-10.75 -75.6 L-4.75 -93.15 -10.75 -75.6 M-6.75 -43.1 L-12.95 -48.75 -6.75 -43.1 M-7.95 -63.85 L-10.45 -74.35 -7.95 -63.85" fill="#413930" fill-rule="evenodd" stroke="none"/>
      <path d="M29.25 -136.3 L28.25 -134.3 26.25 -130.35 10.05 -126.1 11.25 -129.9 24.65 -131.8 29.25 -136.3 M9.9 -47.2 Q11.7 -44.75 13.7 -42.95 L13.85 -42.8 13.85 -42.75 13.8 -42.5 Q12.15 -35.55 10.8 -32.9 L20.15 -33.0 11.65 -29.7 Q14.7 -19.1 16.5 -15.5 10.8 -20.55 5.1 -28.9 12.2 -10.05 10.6 0.1 L-10.5 0.1 -25.3 0.1 -13.0 -17.4 -8.4 -33.6 -7.25 -25.0 -7.25 -13.45 -10.5 -7.95 -1.85 -17.7 -1.85 -33.15 3.1 -32.8 3.3 -32.8 3.3 -32.85 9.9 -47.2 M-10.5 0.1 L-10.5 -7.95 -10.5 0.1" fill="#241b15" fill-rule="evenodd" stroke="none"/>
      <path d="M17.9 -153.15 L16.25 -146.55 11.55 -133.5 11.6 -133.5 11.3 -133.1 Q9.65 -136.65 8.85 -136.4 7.7 -135.95 6.85 -135.15 L6.3 -134.4 11.0 -145.85 10.95 -145.85 11.05 -145.95 11.55 -147.1 Q14.7 -148.05 17.9 -153.15 M10.05 -126.1 L8.4 -120.8 12.2 -111.55 Q2.35 -76.95 3.9 -68.35 L6.35 -53.0 Q8.05 -49.75 9.9 -47.2 L3.3 -32.85 -2.15 -46.8 1.7 -52.65 -5.0 -71.15 Q-0.7 -85.45 2.0 -101.95 L2.05 -102.0 5.55 -105.5 -13.35 -114.9 -17.85 -125.1 -19.5 -125.45 -19.65 -125.35 -19.85 -125.0 -20.0 -125.5 -28.75 -127.4 -28.85 -127.5 -30.9 -129.9 Q-30.0 -130.05 -29.25 -130.35 -28.5 -130.6 -27.8 -130.95 L-27.1 -130.5 -27.0 -130.45 -26.95 -130.45 -21.3 -129.6 -27.4 -147.1 -12.25 -118.35 -2.7 -115.2 -2.2 -117.6 Q-1.05 -118.25 3.5 -119.5 L4.55 -120.0 11.3 -130.0 11.25 -129.9 10.05 -126.1 M-13.0 -17.4 L-12.45 -32.45 -12.45 -32.5 -12.4 -33.9 Q-12.25 -40.7 -12.45 -43.75 -5.45 -39.7 3.1 -32.8 L-1.85 -33.15 -1.85 -17.7 -10.5 -7.95 -7.25 -13.45 -7.25 -25.0 -8.4 -33.6 -13.0 -17.4 M-5.9 -100.85 L-4.95 -103.65 -2.95 -103.2 1.65 -102.15 -3.5 -101.25 -5.9 -100.85 M-0.95 -123.2 L-4.3 -140.75 -0.7 -153.85 -9.45 -173.5 -3.5 -165.2 2.5 -174.8 -2.05 -163.15 2.95 -155.45 0.95 -142.2 Q0.05 -138.85 3.5 -131.35 L3.5 -131.25 1.85 -127.6 1.85 -127.5 1.6 -127.1 -0.95 -123.2 M11.0 -145.85 L11.05 -145.95 11.0 -145.85 M-2.95 -141.05 L-2.25 -143.6 -2.95 -141.05 M0.25 -114.6 L-2.7 -115.2 0.25 -114.6 M-1.15 -142.5 L0.5 -148.3 -1.15 -142.5" fill="#2e2620" fill-rule="evenodd" stroke="none"/>
      <path d="M-12.6 -52.15 Q-13.55 -56.05 -13.85 -61.45 -14.55 -64.6 -17.15 -71.75 L-17.15 -72.6 -17.05 -72.35 -9.3 -58.5 -12.6 -52.15 M-30.9 -129.9 L-31.0 -130.0 -42.15 -134.45 -33.8 -132.85 -39.85 -139.4 -27.8 -130.95 Q-28.5 -130.6 -29.25 -130.35 -30.0 -130.05 -30.9 -129.9 M3.5 -131.25 L4.3 -129.65 6.3 -134.4 6.85 -135.15 8.0 -131.1 1.75 -121.6 1.85 -127.5 1.85 -127.6 3.5 -131.25" fill="#524a25" fill-rule="evenodd" stroke="none"/>
      <path d="M16.5 -15.5 L16.9 -14.8 16.95 -14.7 24.8 0.1 15.0 0.1 10.6 0.1 Q12.2 -10.05 5.1 -28.9 10.8 -20.55 16.5 -15.5 M10.8 -17.6 L15.0 0.1 10.8 -17.6" fill="#3a3210" fill-rule="evenodd" stroke="none"/>
      <path d="M-17.15 -72.6 Q-16.95 -74.0 -15.1 -76.4 -12.65 -79.7 -11.4 -82.7 -9.7 -89.8 -5.9 -100.85 L-3.5 -101.25 -11.45 -77.6 -17.05 -72.35 -17.15 -72.6 M-5.4 -104.1 L-16.1 -114.2 -19.85 -125.0 -19.65 -125.35 -15.0 -115.15 -5.4 -104.1" fill="#665c56" fill-rule="evenodd" stroke="none"/>
      <path d="M17.8 -159.05 L16.15 -154.25 M9.0 -133.45 L6.65 -125.5 M15.0 0.1 L10.8 -17.6 M-2.25 -143.6 L-2.95 -141.05 M-4.75 -93.15 L-10.75 -75.6 M-1.6 -98.85 L-5.65 -85.85 M-10.45 -74.35 L-7.95 -63.85 M-12.95 -48.75 L-6.75 -43.1 M-10.5 -7.95 L-7.25 -13.45 -7.25 -25.0 M-10.5 -7.95 L-10.5 0.1 M0.5 -148.3 L-1.15 -142.5" fill="none" stroke="#000000" stroke-linecap="round" stroke-linejoin="round" stroke-opacity="0.4" stroke-width="0.1"/>
      <path d="M11.55 -147.1 L20.6 -169.25 Q20.5 -163.85 17.9 -153.15 L16.25 -146.55 11.55 -133.5 11.6 -133.5 21.1 -133.5 25.6 -134.85 32.8 -143.4 M28.25 -134.3 L26.25 -130.35 10.05 -126.1 8.4 -120.8 12.2 -111.55 Q2.35 -76.95 3.9 -68.35 L6.35 -53.0 Q8.05 -49.75 9.9 -47.2 11.7 -44.75 13.7 -42.95 L13.85 -42.8 13.85 -42.75 13.8 -42.5 Q12.15 -35.55 10.8 -32.9 L20.15 -33.0 11.65 -29.7 Q14.7 -19.1 16.5 -15.5 L16.9 -14.8 16.95 -14.7 24.8 0.1 15.0 0.1 10.6 0.1 -10.5 0.1 -25.3 0.1 -13.0 -17.4 -12.45 -32.45 -12.45 -32.5 -12.4 -33.9 Q-12.25 -40.7 -12.45 -43.75 L-12.45 -43.8 -18.9 -49.1 -12.95 -48.75 -20.85 -54.85 -20.85 -54.9 -21.1 -57.3 -29.55 -64.3 -21.35 -60.2 -22.3 -69.95 -18.5 -56.4 -18.5 -56.35 -12.6 -52.15 Q-13.55 -56.05 -13.85 -61.45 -14.55 -64.6 -17.15 -71.75 L-17.15 -72.6 Q-16.95 -74.0 -15.1 -76.4 -12.65 -79.7 -11.4 -82.7 -9.7 -89.8 -5.9 -100.85 L-4.95 -103.65 -5.4 -104.1 -16.1 -114.2 -19.85 -125.0 -20.0 -125.5 -28.75 -127.4 -28.85 -127.5 -30.9 -129.9 -31.0 -130.0 -42.15 -134.45 -33.8 -132.85 -39.85 -139.4 -27.8 -130.95 -27.1 -130.5 -27.0 -130.45 -26.95 -130.45 -21.3 -129.6 -27.4 -147.1 -12.25 -118.35 -2.7 -115.2 -2.2 -117.6 -0.95 -123.2 -4.3 -140.75 -0.7 -153.85 -9.45 -173.5 -3.5 -165.2 2.5 -174.8 -2.05 -163.15 2.95 -155.45 0.95 -142.2 Q0.05 -138.85 3.5 -131.35 L3.5 -131.25 4.3 -129.65 6.3 -134.4 11.0 -145.85 10.95 -145.85 11.05 -145.95 11.55 -147.1 M11.05 -145.95 L11.0 -145.85 M1.6 -127.1 L-0.95 -123.2 M11.25 -129.9 L11.3 -130.0 M10.05 -126.1 L11.25 -129.9 M2.05 -102.0 L1.65 -102.15 -2.95 -103.2 -4.95 -103.65 M-2.7 -115.2 L0.25 -114.6" fill="none" stroke="#000000" stroke-linecap="round" stroke-linejoin="round" stroke-opacity="0.4" stroke-width="0.5"/>
    </g>
  </defs>
</svg>
