<?xml version="1.0" encoding="UTF-8" standalone="no"?>
<svg xmlns:xlink="http://www.w3.org/1999/xlink" height="195.55px" width="233.1px" xmlns="http://www.w3.org/2000/svg">
  <g transform="matrix(1.0, 0.0, 0.0, 1.0, 107.9, 196.7)">
    <use data-characterId="223" height="195.55" transform="matrix(1.0, 0.0, 0.0, 1.0, -107.9, -196.7)" width="233.1" xlink:href="#decoration172-shape0"/>
  </g>
  <defs>
    <g id="decoration172-shape0" transform="matrix(1.0, 0.0, 0.0, 1.0, 107.9, 196.7)">
      <path d="M81.05 -145.1 L81.25 -144.55 81.35 -144.6 80.8 -140.25 71.1 -123.5 70.95 -123.15 70.95 -123.9 Q71.05 -127.85 71.65 -129.55 72.25 -131.2 72.3 -132.15 76.7 -137.45 77.7 -140.55 L76.4 -159.7 81.05 -145.1 M41.95 -3.45 L38.25 -3.45 53.65 -17.25 53.45 -16.45 Q49.45 -10.3 41.95 -3.45 M54.45 -46.5 Q53.25 -62.3 49.0 -73.3 L49.05 -73.3 55.0 -76.4 57.0 -77.7 42.0 -85.4 32.6 -93.0 41.85 -88.65 42.0 -98.4 45.55 -85.65 53.05 -81.7 53.45 -83.6 53.6 -84.35 59.4 -107.65 Q61.1 -110.7 61.95 -108.25 L63.4 -102.7 63.85 -105.8 Q63.85 -107.65 63.5 -108.95 62.9 -111.1 61.45 -111.1 L60.55 -110.8 59.3 -109.95 58.45 -108.75 57.5 -107.05 60.05 -123.25 60.05 -123.55 59.85 -123.95 56.2 -133.0 57.5 -137.4 58.15 -139.8 62.85 -139.8 63.35 -137.55 64.1 -133.25 64.15 -132.65 64.15 -132.6 64.3 -126.35 Q64.4 -120.5 67.0 -117.7 L67.05 -117.6 69.7 -103.35 63.15 -75.65 65.45 -72.0 63.9 -65.45 71.0 -57.05 66.85 -50.9 66.4 -50.3 67.5 -48.55 73.2 -39.45 72.55 -12.0 68.85 -18.85 65.2 -22.7 54.45 -46.5 M-78.0 -44.25 L-84.4 -49.55 -78.5 -49.25 -86.35 -55.3 -86.4 -55.35 -86.4 -55.4 -86.6 -57.75 -95.1 -64.8 -86.9 -60.7 -87.85 -70.45 -84.05 -56.9 -84.05 -56.8 -78.1 -52.65 -74.8 -59.0 -82.55 -72.85 -77.0 -78.1 -69.0 -101.75 -63.85 -102.6 -68.45 -103.7 -70.45 -104.15 -70.9 -104.55 -80.5 -115.65 -85.15 -125.85 -85.05 -125.95 -83.35 -125.55 -78.9 -115.4 -59.95 -105.95 -63.5 -102.5 -63.55 -102.45 -72.75 -71.65 -67.5 -53.35 -70.45 -47.25 -62.25 -33.3 -62.4 -33.3 Q-70.95 -40.2 -78.0 -44.25 M-67.7 -118.1 L-66.5 -123.65 -63.9 -127.6 -63.65 -128.0 -63.75 -122.1 -57.5 -131.6 -58.65 -135.65 Q-57.85 -136.45 -56.65 -136.9 -55.9 -137.15 -54.2 -133.55 L-53.9 -134.0 -51.3 -134.0 -45.5 -134.0 -44.45 -134.0 -39.9 -135.35 -33.85 -142.6 -32.7 -143.9 -36.3 -136.8 -40.85 -132.3 -54.25 -130.4 -54.2 -130.5 -60.95 -120.5 -62.05 -120.0 Q-66.55 -118.75 -67.7 -118.1 M-54.0 -147.6 L-44.95 -169.75 Q-45.05 -164.35 -47.6 -153.65 -50.8 -148.55 -54.0 -147.6 M14.05 -163.0 L7.25 -164.5 Q5.5 -165.8 6.05 -166.9 6.35 -167.65 7.8 -168.3 L12.75 -166.8 12.3 -171.1 6.15 -174.6 11.7 -173.6 11.8 -177.5 11.95 -180.85 Q12.85 -178.15 13.95 -172.95 L14.1 -173.0 16.15 -165.8 14.05 -163.0 M-6.0 -165.7 L-8.35 -165.6 -10.55 -167.05 -12.85 -168.6 0.8 -168.6 0.7 -169.15 3.0 -165.95 0.95 -167.05 -6.0 -165.7 M0.15 -171.35 L-1.05 -176.05 -1.1 -176.15 -1.1 -179.2 Q-11.15 -189.45 -14.95 -192.7 L-8.0 -187.35 1.25 -178.3 3.45 -171.15 0.15 -171.35 M10.1 -165.45 L6.05 -166.9 10.1 -165.45 M61.5 -129.75 L57.5 -137.4 61.5 -129.75 M60.25 -105.7 Q60.25 -104.0 61.0 -102.5 61.8 -100.95 62.8 -101.0 L63.4 -102.7 62.8 -101.0 Q61.8 -100.95 61.0 -102.5 60.25 -104.0 60.25 -105.7 M58.5 -109.15 L58.7 -109.3 58.45 -109.15 58.5 -109.15 M53.9 -81.25 L53.05 -81.7 53.9 -81.25 M59.35 -78.15 L66.85 -50.9 59.35 -78.15 M59.0 -79.8 L62.4 -97.75 59.0 -79.8 M66.4 -32.75 L59.35 -57.55 66.4 -32.75 M-7.35 -167.0 L-10.55 -167.05 -7.35 -167.0 M-49.35 -154.75 L-47.75 -159.55 -49.35 -154.75 M-58.9 -125.95 L-56.5 -133.95 -58.9 -125.95 M-63.85 -102.6 L-63.5 -102.5 -63.85 -102.6 M-73.45 -64.3 L-76.0 -74.85 -73.45 -64.3 M-76.25 -76.1 L-70.3 -93.65 -76.25 -76.1 M-72.25 -43.6 L-78.5 -49.25 -72.25 -43.6 M-71.2 -86.3 L-67.1 -99.35 -71.2 -86.3" fill="#413930" fill-rule="evenodd" stroke="none"/>
      <path d="M86.2 -142.9 L83.25 -139.9 83.25 -139.85 82.3 -137.4 81.8 -141.8 86.2 -142.9 M76.6 -122.95 L74.1 -116.6 Q72.75 -118.65 70.9 -123.1 L70.95 -123.15 71.1 -123.5 76.6 -122.95 M72.9 -112.55 L72.6 -107.7 Q71.15 -111.85 68.05 -116.6 70.3 -114.4 72.9 -112.55 M75.4 -52.4 L75.35 -52.25 Q75.3 -51.9 78.25 -45.55 L84.55 -32.2 87.4 -26.45 85.25 -25.55 Q82.35 -24.2 80.05 -22.5 L77.25 -2.95 65.75 -2.85 54.05 -2.85 66.95 -9.2 67.1 -9.8 65.75 -2.85 67.1 -9.8 68.15 -15.25 68.85 -18.85 72.55 -12.0 73.2 -39.45 75.3 -52.45 75.4 -52.4 M49.05 -73.3 Q50.45 -75.75 50.95 -78.2 L55.0 -76.4 49.05 -73.3 M36.55 -154.1 L29.35 -158.4 33.75 -164.8 36.55 -163.1 36.55 -154.2 36.55 -154.1 M-37.3 -134.8 L-39.3 -130.8 -43.6 -129.95 -48.8 -128.5 -55.5 -126.55 -54.25 -130.4 -40.85 -132.3 -36.3 -136.8 -37.3 -134.8 M-55.6 -47.65 Q-53.8 -45.2 -51.8 -43.4 L-51.7 -43.3 -51.7 -43.25 -51.75 -42.95 Q-53.35 -36.05 -54.7 -33.35 L-45.4 -33.5 -53.85 -30.2 Q-50.8 -19.55 -49.0 -16.0 -54.7 -21.0 -60.4 -29.4 -53.3 -10.5 -54.05 -2.7 L-88.35 -2.85 -78.5 -17.9 -78.0 -32.9 -78.0 -33.0 -77.95 -34.4 -62.4 -33.3 -62.25 -33.3 -55.6 -47.65 M-59.25 -134.9 L-57.0 -140.25 -52.2 -138.75 -53.0 -136.6 -54.0 -134.0 -53.9 -134.0 -54.2 -133.55 Q-55.9 -137.15 -56.65 -136.9 -57.85 -136.45 -58.65 -135.65 L-59.25 -134.9" fill="#241b15" fill-rule="evenodd" stroke="none"/>
      <path d="M81.35 -144.6 L101.95 -158.65 86.2 -142.9 81.8 -141.8 82.3 -137.4 76.6 -122.95 71.1 -123.5 80.8 -140.25 81.35 -144.6 M72.6 -107.7 L72.15 -101.15 72.15 -100.75 72.05 -99.85 65.45 -72.0 63.15 -75.65 69.7 -103.35 67.05 -117.6 67.15 -117.5 67.65 -116.95 68.0 -116.65 68.05 -116.6 Q71.15 -111.85 72.6 -107.7 M54.05 -2.85 L49.7 -3.1 41.95 -3.45 Q49.45 -10.3 53.45 -16.45 L52.85 -14.15 52.7 -13.35 49.7 -3.1 65.2 -22.7 68.85 -18.85 68.15 -15.25 67.1 -9.8 66.95 -9.2 54.05 -2.85 M50.95 -78.2 L42.0 -85.4 57.0 -77.7 55.0 -76.4 50.95 -78.2 M-55.5 -126.55 L-57.1 -121.25 -53.3 -112.05 Q-63.2 -77.45 -61.65 -68.85 L-59.15 -53.45 -55.6 -47.65 -62.25 -33.3 -70.45 -47.25 -67.5 -53.35 -72.75 -71.65 -63.55 -102.45 -63.5 -102.5 -59.95 -105.95 -78.9 -115.4 -83.35 -125.55 -85.05 -125.95 -85.15 -125.85 -85.35 -125.45 -85.55 -125.95 -94.25 -127.85 -94.35 -127.95 -96.4 -130.35 -94.75 -130.8 -93.3 -131.45 -92.65 -131.0 -92.5 -130.95 -92.45 -130.95 -86.8 -130.1 -92.9 -147.55 -77.75 -118.8 -68.25 -115.7 -67.7 -118.1 Q-66.55 -118.75 -62.05 -120.0 L-60.95 -120.5 -54.2 -130.5 -54.25 -130.4 -55.5 -126.55 M-77.95 -34.4 Q-77.8 -41.2 -78.0 -44.25 -70.95 -40.2 -62.4 -33.3 L-77.95 -34.4 M-71.4 -101.35 L-70.45 -104.15 -68.45 -103.7 -63.85 -102.6 -69.0 -101.75 -71.4 -101.35 M-66.5 -123.65 L-69.85 -141.2 -66.2 -154.35 -75.0 -174.0 -69.0 -165.65 -63.05 -175.25 -67.55 -163.65 -62.6 -155.95 -64.6 -142.65 Q-65.5 -139.3 -62.0 -131.8 L-62.0 -131.7 -63.65 -128.1 -63.65 -128.0 -63.9 -127.6 -66.5 -123.65 M-54.6 -146.35 L-54.5 -146.45 -54.0 -147.6 Q-50.8 -148.55 -47.6 -153.65 L-49.3 -147.0 -49.05 -147.0 -54.6 -146.35 M14.8 -162.8 L14.05 -163.0 16.15 -165.8 14.1 -173.0 16.5 -173.7 Q18.35 -168.45 19.35 -167.0 L19.9 -167.0 28.1 -166.6 29.05 -166.55 29.0 -166.5 30.1 -166.6 14.8 -162.8 M4.55 -165.1 L1.0 -165.9 -6.0 -165.7 0.95 -167.05 3.0 -165.95 4.55 -165.1 M-8.0 -187.35 L2.8 -179.0 5.3 -171.0 3.45 -171.15 1.25 -178.3 -8.0 -187.35 M40.25 -161.6 L43.0 -160.3 43.05 -160.25 47.85 -165.3 40.9 -171.85 41.7 -193.5 45.75 -174.15 55.7 -165.2 51.9 -152.7 62.6 -140.35 62.65 -140.25 62.85 -139.8 58.15 -139.8 57.5 -137.4 56.2 -133.0 51.55 -144.45 44.6 -147.15 Q43.85 -147.65 42.6 -148.9 L42.4 -149.7 Q41.35 -154.75 40.25 -161.6 M49.2 -150.05 L44.15 -154.95 49.2 -150.05 M49.3 -169.35 L45.15 -173.15 49.3 -169.35 M43.7 -174.65 L43.5 -178.65 43.7 -174.65 M53.2 -145.5 L57.5 -137.4 53.2 -145.5 M80.0 -137.2 L73.1 -125.45 80.0 -137.2 M72.15 -101.15 L72.05 -99.85 72.15 -101.15 M73.2 -39.45 L67.5 -48.55 66.4 -50.3 66.85 -50.9 71.0 -57.05 75.3 -52.45 73.2 -39.45 M67.5 -48.55 L66.85 -50.9 67.5 -48.55 M101.7 -24.65 L101.75 -24.7 101.9 -24.8 101.7 -24.65 M-68.45 -141.55 L-67.75 -144.05 -68.45 -141.55 M-65.25 -115.05 L-68.25 -115.7 -65.25 -115.05 M-66.65 -143.0 L-65.05 -148.8 -66.65 -143.0" fill="#2e2620" fill-rule="evenodd" stroke="none"/>
      <path d="M74.1 -116.6 Q75.3 -115.55 78.3 -114.45 81.3 -113.25 83.2 -115.7 85.1 -118.15 87.85 -117.1 90.6 -116.15 96.65 -116.2 102.7 -116.25 109.4 -107.5 102.25 -113.75 98.35 -113.25 96.4 -113.05 92.4 -113.15 L87.75 -113.55 Q86.5 -114.1 83.15 -110.0 81.2 -109.85 77.1 -111.1 L72.9 -112.55 Q70.3 -114.4 68.05 -116.6 70.5 -114.45 70.0 -117.45 69.35 -121.05 69.2 -124.05 69.1 -127.1 66.45 -131.8 64.0 -136.1 64.1 -133.25 L63.35 -137.55 62.85 -139.8 62.65 -140.25 62.6 -140.35 Q62.4 -140.7 66.85 -137.85 71.7 -134.7 72.3 -132.15 72.25 -131.2 71.65 -129.55 71.05 -127.85 70.95 -123.9 L70.95 -123.15 70.9 -123.1 Q72.75 -118.65 74.1 -116.6 M57.65 -127.45 Q54.0 -124.35 49.45 -123.55 42.05 -123.85 39.0 -130.35 L40.85 -133.9 Q41.6 -135.95 41.55 -140.8 41.5 -145.7 36.55 -154.2 L36.55 -163.1 39.95 -163.65 40.25 -161.6 Q41.35 -154.75 42.4 -149.7 L42.6 -148.9 Q43.6 -144.85 46.65 -140.1 50.05 -134.7 52.85 -134.65 L57.65 -127.45 M29.35 -158.4 Q18.9 -144.5 0.6 -135.2 -3.35 -133.25 -7.6 -131.5 L-8.4 -131.55 -18.3 -132.2 -19.75 -132.35 -20.3 -132.4 -34.25 -134.25 -37.3 -134.8 -36.3 -136.8 -32.7 -143.9 Q-28.0 -137.4 -19.4 -137.1 -30.1 -135.45 -20.2 -134.75 L-15.5 -134.45 -13.95 -134.35 -13.4 -134.3 -7.8 -134.45 0.9 -138.35 Q8.3 -141.7 -0.55 -140.15 L-6.7 -139.05 Q-4.45 -139.5 -2.65 -141.7 L-1.1 -142.65 0.35 -142.2 Q1.5 -141.75 3.85 -142.15 L6.4 -144.05 9.05 -146.55 15.5 -153.55 Q20.55 -158.8 15.1 -157.05 L4.4 -153.65 Q-3.55 -151.05 -3.8 -150.75 -4.15 -151.3 -5.4 -151.7 L-8.25 -152.2 -4.05 -153.6 2.5 -156.45 Q9.7 -159.65 13.05 -161.6 L15.0 -162.75 14.8 -162.8 30.1 -166.6 29.5 -166.6 33.35 -167.0 33.5 -166.6 33.75 -164.8 29.35 -158.4 M-43.6 -129.95 Q-41.4 -127.8 -38.95 -127.55 L-34.55 -127.8 Q-31.3 -128.1 -29.85 -128.6 -26.9 -129.7 -24.55 -129.7 -22.0 -129.7 -20.45 -128.35 -19.75 -127.85 -18.15 -125.45 -15.25 -121.3 -9.2 -121.3 -5.1 -121.3 1.9 -122.65 3.45 -122.7 -0.85 -121.2 L-6.6 -119.4 Q-8.3 -119.05 -12.75 -119.4 -17.45 -119.75 -18.25 -120.65 L-21.4 -123.75 -24.4 -126.2 Q-25.75 -126.75 -30.5 -125.3 -25.25 -124.55 -25.35 -123.05 L-25.65 -120.55 Q-25.95 -118.85 -26.6 -117.45 -27.3 -116.1 -20.45 -107.1 -22.15 -107.9 -26.0 -112.3 L-30.25 -116.95 Q-30.6 -117.25 -30.15 -118.95 -29.7 -120.7 -30.05 -121.2 -31.25 -122.95 -34.05 -122.95 L-40.3 -122.75 -42.0 -123.05 -43.05 -124.7 Q-43.6 -125.9 -44.85 -126.35 L-46.8 -126.15 -48.8 -128.5 -43.6 -129.95 M-57.0 -140.25 L-57.85 -143.95 -57.8 -144.0 Q-55.5 -139.85 -47.45 -138.5 L-41.2 -138.65 Q-37.45 -139.5 -33.45 -143.25 -35.1 -141.25 -33.85 -142.6 L-39.9 -135.35 -44.5 -136.5 -45.95 -136.9 -47.5 -137.35 -47.65 -137.4 -47.3 -136.75 -45.5 -134.0 -51.3 -134.0 -53.0 -136.6 -52.2 -138.75 -57.0 -140.25 M14.65 -148.25 L9.75 -145.25 Q6.45 -143.05 10.25 -144.0 14.05 -144.95 15.1 -146.45 L14.65 -148.25 M44.0 -127.6 Q46.6 -125.6 49.3 -125.6 49.9 -125.6 53.5 -127.1 L50.45 -128.0 47.15 -128.55 Q45.75 -129.15 44.65 -130.3 43.4 -131.75 41.25 -132.6 40.95 -129.9 44.0 -127.6 M-52.2 -138.75 L-49.6 -137.95 -47.65 -137.4 -49.6 -137.95 -52.2 -138.75 M-30.1 -137.5 L-31.95 -137.85 -31.5 -137.0 Q-30.9 -136.2 -30.4 -136.2 -29.3 -136.2 -27.65 -136.9 L-30.1 -137.5" fill="#2b1214" fill-rule="evenodd" stroke="none"/>
      <path d="M72.05 -99.85 L70.8 -81.7 71.05 -77.0 Q71.4 -72.05 71.7 -70.1 L71.75 -70.05 81.0 -71.55 83.35 -70.9 73.2 -65.4 74.5 -63.05 76.6 -59.65 Q76.75 -58.95 76.15 -55.85 L75.4 -52.4 75.3 -52.45 71.0 -57.05 65.45 -72.0 72.05 -99.85 M-49.0 -16.0 L-48.6 -15.25 -48.55 -15.15 -38.85 -3.2 -49.45 -2.7 -54.05 -2.7 Q-53.3 -10.5 -60.4 -29.4 -54.7 -21.0 -49.0 -16.0 M5.3 -171.0 L6.0 -168.85 Q5.6 -168.25 3.6 -170.6 L3.45 -171.15 5.3 -171.0 M-54.7 -18.05 L-49.45 -2.7 -54.7 -18.05" fill="#3a3210" fill-rule="evenodd" stroke="none"/>
      <path d="M53.65 -17.25 L53.65 -17.35 53.9 -20.0 Q55.3 -34.55 54.55 -45.4 L54.55 -45.55 54.45 -46.5 65.2 -22.7 49.7 -3.1 52.7 -13.35 52.85 -14.15 53.45 -16.45 53.65 -17.25 M59.85 -123.95 L57.65 -127.45 52.85 -134.65 44.6 -147.15 51.55 -144.45 56.2 -133.0 59.85 -123.95 M-78.1 -52.65 Q-79.05 -56.55 -79.4 -61.95 -80.05 -65.1 -82.7 -72.25 L-82.7 -73.1 -82.55 -72.85 -74.8 -59.0 -78.1 -52.65 M-96.4 -130.35 L-96.55 -130.5 -107.65 -134.95 -99.35 -133.35 -105.35 -139.85 -93.3 -131.45 -94.75 -130.8 -96.4 -130.35 M-62.0 -131.7 L-61.25 -130.15 -59.25 -134.9 -58.65 -135.65 -57.5 -131.6 -63.75 -122.1 -63.65 -128.0 -63.65 -128.1 -62.0 -131.7 M7.25 -164.5 L4.55 -165.1 3.0 -165.95 0.7 -169.15 0.15 -171.35 3.45 -171.15 3.6 -170.6 Q5.6 -168.25 6.0 -168.85 L7.8 -168.3 Q6.35 -167.65 6.05 -166.9 5.5 -165.8 7.25 -164.5 M5.05 -167.25 L6.05 -166.9 5.05 -167.25 M71.0 -57.05 L63.9 -65.45 65.45 -72.0 71.0 -57.05" fill="#524a25" fill-rule="evenodd" stroke="none"/>
      <path d="M39.0 -130.35 L38.1 -132.85 36.55 -154.1 36.55 -154.2 Q41.5 -145.7 41.55 -140.8 41.6 -135.95 40.85 -133.9 L39.0 -130.35 M-57.8 -144.0 L-54.6 -146.35 -49.05 -147.0 Q-31.75 -146.35 -16.35 -149.95 -12.25 -150.9 -8.25 -152.2 L-5.4 -151.7 Q-4.15 -151.3 -3.8 -150.75 -3.55 -151.05 4.4 -153.65 L15.1 -157.05 Q20.55 -158.8 15.5 -153.55 L9.05 -146.55 6.4 -144.05 3.85 -142.15 Q1.5 -141.75 0.35 -142.2 L-1.1 -142.65 -2.65 -141.7 Q-4.45 -139.5 -6.7 -139.05 L-7.0 -139.0 -7.75 -138.85 -12.7 -138.1 -16.85 -137.5 -19.4 -137.1 Q-28.0 -137.4 -32.7 -143.9 L-33.85 -142.6 Q-35.1 -141.25 -33.45 -143.25 -37.45 -139.5 -41.2 -138.65 L-47.45 -138.5 Q-55.5 -139.85 -57.8 -144.0 M6.05 -147.6 L5.65 -147.0 5.2 -146.35 Q4.75 -145.5 4.35 -143.9 L5.55 -144.3 5.8 -144.55 Q6.55 -145.3 6.55 -146.35 L6.05 -147.6 M64.1 -133.25 Q64.0 -136.1 66.45 -131.8 69.1 -127.1 69.2 -124.05 69.35 -121.05 70.0 -117.45 70.5 -114.45 68.05 -116.6 L68.0 -116.65 67.65 -116.95 67.15 -117.5 67.05 -117.6 67.0 -117.7 Q64.4 -120.5 64.3 -126.35 L64.15 -132.6 64.15 -132.65 64.1 -133.25" fill="#332124" fill-rule="evenodd" stroke="none"/>
      <path d="M29.5 -166.6 L30.1 -166.6 29.0 -166.5 29.05 -166.55 29.5 -166.6" fill="url(#decoration172-gradient0)" fill-rule="evenodd" stroke="none"/>
      <path d="M53.6 -84.35 L56.55 -101.55 57.5 -107.05 58.45 -108.75 59.3 -109.95 60.55 -110.8 61.45 -111.1 Q62.9 -111.1 63.5 -108.95 63.85 -107.65 63.85 -105.8 L63.4 -102.7 61.95 -108.25 Q61.1 -110.7 59.4 -107.65 L53.6 -84.35 M-82.7 -73.1 Q-82.45 -74.45 -80.65 -76.85 -78.15 -80.15 -76.95 -83.2 -75.2 -90.3 -71.4 -101.35 L-69.0 -101.75 -77.0 -78.1 -82.55 -72.85 -82.7 -73.1 M-70.9 -104.55 L-81.65 -114.7 -85.35 -125.45 -85.15 -125.85 -80.5 -115.65 -70.9 -104.55 M-8.35 -165.6 L-16.2 -165.45 -29.55 -176.75 -15.3 -168.6 -12.85 -168.6 -10.55 -167.05 -12.9 -167.15 -10.55 -167.05 -8.35 -165.6 M-1.1 -176.15 L-17.4 -193.85 -19.8 -196.45 -16.55 -193.95 -14.95 -192.7 Q-11.15 -189.45 -1.1 -179.2 L-1.1 -176.15 M58.5 -109.15 L58.45 -109.15 58.7 -109.3 58.5 -109.15 M-17.4 -193.85 L-16.55 -193.95 -17.4 -193.85" fill="#665c56" fill-rule="evenodd" stroke="none"/>
      <path d="M81.35 -144.6 L81.05 -145.1 81.25 -144.55 81.35 -144.6 101.95 -158.65 86.2 -142.9 83.25 -139.9 83.25 -139.85 82.3 -137.4 76.6 -122.95 74.1 -116.6 Q75.3 -115.55 78.3 -114.45 81.3 -113.25 83.2 -115.7 85.1 -118.15 87.85 -117.1 90.6 -116.15 96.65 -116.2 102.7 -116.25 109.4 -107.5 102.25 -113.75 98.35 -113.25 96.4 -113.05 92.4 -113.15 L87.75 -113.55 Q86.5 -114.1 83.15 -110.0 81.2 -109.85 77.1 -111.1 L72.9 -112.55 72.6 -107.7 72.15 -101.15 72.15 -100.75 72.05 -99.85 70.8 -81.7 71.05 -77.0 Q71.4 -72.05 71.7 -70.1 L71.75 -70.05 81.0 -71.55 83.35 -70.9 73.2 -65.4 74.5 -63.05 76.6 -59.65 Q76.75 -58.95 76.15 -55.85 L75.4 -52.4 75.35 -52.25 Q75.3 -51.9 78.25 -45.55 L84.55 -32.2 87.4 -26.45 M77.25 -2.95 L65.75 -2.85 54.05 -2.85 49.7 -3.1 41.95 -3.45 38.25 -3.45 53.65 -17.25 53.65 -17.35 53.9 -20.0 Q55.3 -34.55 54.55 -45.4 L54.55 -45.55 54.45 -46.5 Q53.25 -62.3 49.0 -73.3 L49.05 -73.3 Q50.45 -75.75 50.95 -78.2 L42.0 -85.4 32.6 -93.0 41.85 -88.65 42.0 -98.4 45.55 -85.65 53.05 -81.7 53.45 -83.6 53.6 -84.35 56.55 -101.55 57.5 -107.05 60.05 -123.25 60.05 -123.55 59.85 -123.95 57.65 -127.45 Q54.0 -124.35 49.45 -123.55 42.05 -123.85 39.0 -130.35 L38.1 -132.85 36.55 -154.1 29.35 -158.4 Q18.9 -144.5 0.6 -135.2 -3.35 -133.25 -7.6 -131.5 L-8.4 -131.55 -18.3 -132.2 -19.75 -132.35 -20.3 -132.4 -34.25 -134.25 -37.3 -134.8 -39.3 -130.8 -43.6 -129.95 Q-41.4 -127.8 -38.95 -127.55 L-34.55 -127.8 Q-31.3 -128.1 -29.85 -128.6 -26.9 -129.7 -24.55 -129.7 -22.0 -129.7 -20.45 -128.35 -19.75 -127.85 -18.15 -125.45 -15.25 -121.3 -9.2 -121.3 -5.1 -121.3 1.9 -122.65 3.45 -122.7 -0.85 -121.2 L-6.6 -119.4 Q-8.3 -119.05 -12.75 -119.4 -17.45 -119.75 -18.25 -120.65 L-21.4 -123.75 -24.4 -126.2 Q-25.75 -126.75 -30.5 -125.3 -25.25 -124.55 -25.35 -123.05 L-25.65 -120.55 Q-25.95 -118.85 -26.6 -117.45 -27.3 -116.1 -20.45 -107.1 -22.15 -107.9 -26.0 -112.3 L-30.25 -116.95 Q-30.6 -117.25 -30.15 -118.95 -29.7 -120.7 -30.05 -121.2 -31.25 -122.95 -34.05 -122.95 L-40.3 -122.75 -42.0 -123.05 -43.05 -124.7 Q-43.6 -125.9 -44.85 -126.35 L-46.8 -126.15 -48.8 -128.5 -55.5 -126.55 -57.1 -121.25 -53.3 -112.05 Q-63.2 -77.45 -61.65 -68.85 L-59.15 -53.45 -55.6 -47.65 Q-53.8 -45.2 -51.8 -43.4 L-51.7 -43.3 -51.7 -43.25 -51.75 -42.95 Q-53.35 -36.05 -54.7 -33.35 L-45.4 -33.5 -53.85 -30.2 Q-50.8 -19.55 -49.0 -16.0 L-48.6 -15.25 -48.55 -15.15 -38.85 -3.2 -49.45 -2.7 -54.05 -2.7 -88.35 -2.85 -78.5 -17.9 -78.0 -32.9 -78.0 -33.0 -77.95 -34.4 Q-77.8 -41.2 -78.0 -44.25 L-84.4 -49.55 -78.5 -49.25 -86.35 -55.3 -86.4 -55.35 -86.4 -55.4 -86.6 -57.75 -95.1 -64.8 -86.9 -60.7 -87.85 -70.45 -84.05 -56.9 -84.05 -56.8 -78.1 -52.65 Q-79.05 -56.55 -79.4 -61.95 -80.05 -65.1 -82.7 -72.25 L-82.7 -73.1 Q-82.45 -74.45 -80.65 -76.85 -78.15 -80.15 -76.95 -83.2 -75.2 -90.3 -71.4 -101.35 L-70.45 -104.15 -70.9 -104.55 -81.65 -114.7 -85.35 -125.45 -85.55 -125.95 -94.25 -127.85 -94.35 -127.95 -96.4 -130.35 -96.55 -130.5 -107.65 -134.95 -99.35 -133.35 -105.35 -139.85 -93.3 -131.45 -92.65 -131.0 -92.5 -130.95 -92.45 -130.95 -86.8 -130.1 -92.9 -147.55 -77.75 -118.8 -68.25 -115.7 -67.7 -118.1 -66.5 -123.65 -69.85 -141.2 -66.2 -154.35 -75.0 -174.0 -69.0 -165.65 -63.05 -175.25 -67.55 -163.65 -62.6 -155.95 -64.6 -142.65 Q-65.5 -139.3 -62.0 -131.8 L-62.0 -131.7 -61.25 -130.15 -59.25 -134.9 -57.0 -140.25 -57.85 -143.95 -57.8 -144.0 -54.6 -146.35 -54.5 -146.45 -54.0 -147.6 -44.95 -169.75 Q-45.05 -164.35 -47.6 -153.65 L-49.3 -147.0 -49.05 -147.0 Q-31.75 -146.35 -16.35 -149.95 -12.25 -150.9 -8.25 -152.2 L-4.05 -153.6 2.5 -156.45 Q9.7 -159.65 13.05 -161.6 L15.0 -162.75 14.5 -162.7 14.8 -162.8 14.05 -163.0 7.25 -164.5 4.55 -165.1 1.0 -165.9 -6.0 -165.7 -8.35 -165.6 -16.2 -165.45 -29.55 -176.75 -15.3 -168.6 -12.85 -168.6 0.8 -168.6 0.7 -169.15 0.15 -171.35 -1.05 -176.05 -1.1 -176.15 -17.4 -193.85 -19.8 -196.45 -16.55 -193.95 -14.95 -192.7 -8.0 -187.35 2.8 -179.0 5.3 -171.0 6.0 -168.85 7.8 -168.3 12.75 -166.8 12.3 -171.1 6.15 -174.6 11.7 -173.6 11.8 -177.5 11.95 -180.85 Q12.85 -178.15 13.95 -172.95 L14.1 -173.0 16.5 -173.7 Q18.35 -168.45 19.35 -167.0 L19.9 -167.0 28.1 -166.6 29.5 -166.6 33.35 -167.0 33.5 -166.6 33.75 -164.8 36.55 -163.1 39.95 -163.65 40.25 -161.6 43.0 -160.3 43.05 -160.25 47.85 -165.3 40.9 -171.85 41.7 -193.5 45.75 -174.15 55.7 -165.2 51.9 -152.7 62.6 -140.35 Q62.4 -140.7 66.85 -137.85 71.7 -134.7 72.3 -132.15 76.7 -137.45 77.7 -140.55 L76.4 -159.7 81.05 -145.1 M40.25 -161.6 Q41.35 -154.75 42.4 -149.7 L42.6 -148.9 Q43.85 -147.65 44.6 -147.15 L52.85 -134.65 Q50.05 -134.7 46.65 -140.1 43.6 -144.85 42.6 -148.9 M14.8 -162.8 L15.0 -162.75 M-32.7 -143.9 L-36.3 -136.8 -37.3 -134.8 M29.05 -166.55 L28.1 -166.6 M29.5 -166.6 L30.1 -166.6 14.8 -162.8 M29.05 -166.55 L29.5 -166.6 M30.1 -166.6 L29.0 -166.5 29.05 -166.55 M36.55 -154.1 L36.55 -154.2 36.55 -163.1 M29.35 -158.4 L33.75 -164.8 M62.85 -139.8 L63.35 -137.55 64.1 -133.25 64.15 -132.65 64.15 -132.6 64.3 -126.35 Q64.4 -120.5 67.0 -117.7 L67.05 -117.6 67.15 -117.5 67.65 -116.95 68.0 -116.65 68.05 -116.6 Q70.3 -114.4 72.9 -112.55 M62.6 -140.35 L62.65 -140.25 62.85 -139.8 M70.95 -123.15 L70.95 -123.9 Q71.05 -127.85 71.65 -129.55 72.25 -131.2 72.3 -132.15 M57.65 -127.45 L52.85 -134.65 M74.1 -116.6 Q72.75 -118.65 70.9 -123.1 L70.95 -123.15 M72.05 -99.85 L72.15 -101.15 M53.05 -81.7 L53.9 -81.25 M53.65 -17.25 L53.45 -16.45 52.85 -14.15 52.7 -13.35 49.7 -3.1 M-16.55 -193.95 L-17.4 -193.85 M-33.85 -142.6 L-32.7 -143.9 M-47.65 -137.4 L-47.5 -137.35 -45.95 -136.9 -44.5 -136.5 -39.9 -135.35 -33.85 -142.6 M-47.3 -136.75 L-47.5 -137.35 M-45.5 -134.0 L-47.3 -136.75 -47.65 -137.4 -49.6 -137.95 -52.2 -138.75 -53.0 -136.6 -51.3 -134.0 -45.5 -134.0 -44.45 -134.0 -39.9 -135.35 M-52.2 -138.75 L-57.0 -140.25 M-53.9 -134.0 L-54.0 -134.0 -53.0 -136.6 M-63.9 -127.6 L-66.5 -123.65 M-54.2 -130.5 L-54.25 -130.4 -55.5 -126.55 M-53.9 -134.0 L-51.3 -134.0 M-43.6 -129.95 L-48.8 -128.5 M-54.6 -146.35 L-49.05 -147.0 M-68.25 -115.7 L-65.25 -115.05 M-63.5 -102.5 L-63.85 -102.6 -68.45 -103.7 -70.45 -104.15" fill="none" stroke="#000000" stroke-linecap="round" stroke-linejoin="round" stroke-opacity="0.4" stroke-width="0.5"/>
      <path d="M43.5 -178.65 L43.7 -174.65 M45.15 -173.15 L49.3 -169.35 M44.15 -154.95 L49.2 -150.05 M57.5 -137.4 L53.2 -145.5 M6.05 -166.9 L10.1 -165.45 M6.05 -166.9 L5.05 -167.25 M57.5 -137.4 L61.5 -129.75 M73.1 -125.45 L80.0 -137.2 M66.85 -50.9 L59.35 -78.15 M66.85 -50.9 L67.5 -48.55 M62.4 -97.75 L59.0 -79.8 M67.1 -9.8 L65.75 -2.85 M68.15 -15.25 L67.1 -9.8 M59.35 -57.55 L66.4 -32.75 M-10.55 -167.05 L-7.35 -167.0 M-10.55 -167.05 L-12.9 -167.15 M-47.75 -159.55 L-49.35 -154.75 M-56.5 -133.95 L-58.9 -125.95 M-67.75 -144.05 L-68.45 -141.55 M-65.05 -148.8 L-66.65 -143.0 M-70.3 -93.65 L-76.25 -76.1 M-76.0 -74.85 L-73.45 -64.3 M-78.5 -49.25 L-72.25 -43.6 M-49.45 -2.7 L-54.7 -18.05 M-67.1 -99.35 L-71.2 -86.3" fill="none" stroke="#000000" stroke-linecap="round" stroke-linejoin="round" stroke-opacity="0.4" stroke-width="0.1"/>
      <path d="M-6.7 -139.05 L-0.55 -140.15 Q8.3 -141.7 0.9 -138.35 L-7.8 -134.45 -13.4 -134.3 -13.95 -134.35 -15.5 -134.45 -20.2 -134.75 Q-30.1 -135.45 -19.4 -137.1 L-16.85 -137.5 -12.7 -138.1 -7.75 -138.85 -7.0 -139.0 -6.7 -139.05 M14.65 -148.25 L9.75 -145.25 Q6.45 -143.05 10.25 -144.0 14.05 -144.95 15.1 -146.45 L14.65 -148.25 M6.05 -147.6 L6.55 -146.35 Q6.55 -145.3 5.8 -144.55 L5.55 -144.3 4.35 -143.9 Q4.75 -145.5 5.2 -146.35 L5.65 -147.0 6.05 -147.6 M44.0 -127.6 Q46.6 -125.6 49.3 -125.6 49.9 -125.6 53.5 -127.1 L50.45 -128.0 47.15 -128.55 Q45.75 -129.15 44.65 -130.3 43.4 -131.75 41.25 -132.6 40.95 -129.9 44.0 -127.6 M-30.1 -137.5 L-31.95 -137.85 -31.5 -137.0 Q-30.9 -136.2 -30.4 -136.2 -29.3 -136.2 -27.65 -136.9 L-30.1 -137.5" fill="none" stroke="#000000" stroke-linecap="round" stroke-linejoin="round" stroke-opacity="0.4" stroke-width="1.0"/>
      <path d="M57.5 -107.05 L58.45 -108.75 59.3 -109.95 60.55 -110.8 61.45 -111.1 Q62.9 -111.1 63.5 -108.95 63.85 -107.65 63.85 -105.8 L63.4 -102.7 62.8 -101.0 Q61.8 -100.95 61.0 -102.5 60.25 -104.0 60.25 -105.7" fill="none" stroke="#000000" stroke-linecap="round" stroke-linejoin="round" stroke-opacity="0.4" stroke-width="0.30000000000000004"/>
      <path d="M79.95 -25.8 L85.65 -23.9 78.8 -17.8 79.95 -25.8 M93.5 -18.8 L97.75 -16.25 103.05 -1.4 93.4 -18.9 93.5 -18.8" fill="#524a25" fill-rule="evenodd" stroke="none"/>
      <path d="M78.4 -14.9 L78.8 -17.8 85.65 -23.9 97.1 -24.3 107.8 -29.4 Q112.3 -17.15 113.2 -6.85 L106.1 -7.65 97.75 -16.25 93.5 -18.8 93.45 -19.05 91.05 -14.05 84.45 -5.5 78.4 -14.9" fill="#413930" fill-rule="evenodd" stroke="none"/>
      <path d="M85.65 -23.9 L87.5 -25.15 90.2 -25.1 Q96.45 -25.35 101.5 -28.45 L101.65 -28.55 101.7 -28.55 101.8 -28.6 101.9 -28.7 101.95 -28.75 104.45 -30.6 104.9 -31.05 Q106.6 -32.6 108.1 -34.55 L117.9 -8.05 124.95 -2.75 120.3 -2.75 113.2 -6.85 Q112.3 -17.15 107.8 -29.4 L97.1 -24.3 85.65 -23.9 M103.05 -1.4 L93.45 -3.25 88.7 -3.15 91.3 -14.35 91.05 -14.05 93.45 -19.05 93.5 -18.8 93.4 -18.9 103.05 -1.4 M77.3 -2.95 L77.4 -3.05 72.9 -3.1 71.6 -3.25 77.2 -6.55 78.4 -14.9 84.45 -5.5 77.3 -2.95 M93.95 -10.2 L93.45 -3.25 93.95 -10.2 M81.2 -5.95 L77.4 -3.05 81.2 -5.95" fill="#2e2620" fill-rule="evenodd" stroke="none"/>
      <path d="M79.95 -25.8 L80.05 -26.4 Q83.9 -25.35 87.5 -25.15 L85.65 -23.9 79.95 -25.8 M113.65 -2.75 L103.05 -2.75 103.05 -1.4 97.75 -16.25 106.1 -7.65 106.05 -7.65 113.65 -2.75" fill="#3a3210" fill-rule="evenodd" stroke="none"/>
      <path d="M87.5 -25.15 Q83.9 -25.35 80.05 -26.4 82.35 -28.1 85.25 -29.45 L87.4 -30.35 88.35 -30.75 Q94.05 -32.9 101.7 -34.05 L107.95 -34.8 108.1 -34.55 Q106.6 -32.6 104.9 -31.05 L104.45 -30.6 101.95 -28.75 101.9 -28.7 101.8 -28.6 101.75 -28.6 101.7 -28.55 101.65 -28.55 101.5 -28.45 Q96.45 -25.35 90.2 -25.1 L87.5 -25.15 M92.65 -29.4 L99.0 -30.3 Q95.6 -28.7 94.25 -28.25 L90.5 -28.15 86.45 -28.25 Q90.95 -30.6 93.95 -31.2 L104.7 -33.2 98.2 -28.2 Q96.8 -27.2 94.05 -26.8 L89.65 -26.25 86.15 -26.65 Q84.35 -27.15 83.95 -27.7 83.55 -28.35 85.25 -29.45 83.55 -28.35 83.95 -27.7 84.35 -27.15 86.15 -26.65 L89.65 -26.25 94.05 -26.8 Q96.8 -27.2 98.2 -28.2 L104.7 -33.2 93.95 -31.2 Q90.95 -30.6 86.45 -28.25 L90.5 -28.15 94.25 -28.25 Q95.6 -28.7 99.0 -30.3 L92.65 -29.4" fill="#665c52" fill-rule="evenodd" stroke="none"/>
      <path d="M120.3 -2.75 L113.65 -2.75 106.05 -7.65 106.1 -7.65 113.2 -6.85 120.3 -2.75 M88.7 -3.15 L77.3 -2.95 84.45 -5.5 91.05 -14.05 91.3 -14.35 88.7 -3.15" fill="#241b15" fill-rule="evenodd" stroke="none"/>
      <path d="M80.05 -26.4 L79.95 -25.8 78.8 -17.8 78.4 -14.9 77.2 -6.55 71.6 -3.25 72.9 -3.1 77.4 -3.05 81.2 -5.95 M87.5 -25.15 Q83.9 -25.35 80.05 -26.4 82.35 -28.1 85.25 -29.45 L87.4 -30.35 88.35 -30.75 Q94.05 -32.9 101.7 -34.05 L107.95 -34.8 108.1 -34.55 117.9 -8.05 124.95 -2.75 120.3 -2.75 113.65 -2.75 103.05 -2.75 103.05 -1.4 93.45 -3.25 88.7 -3.15 77.3 -2.95 77.4 -3.05 M101.7 -28.55 L101.8 -28.6 101.75 -28.6 101.7 -28.55 101.65 -28.55 101.5 -28.45 Q96.45 -25.35 90.2 -25.1 L87.5 -25.15 M101.8 -28.6 L101.9 -28.7 101.95 -28.75 104.45 -30.6 104.9 -31.05 Q106.6 -32.6 108.1 -34.55 M85.25 -29.45 Q83.55 -28.35 83.95 -27.7 84.35 -27.15 86.15 -26.65 L89.65 -26.25 94.05 -26.8 Q96.8 -27.2 98.2 -28.2 L104.7 -33.2 93.95 -31.2 Q90.95 -30.6 86.45 -28.25 L90.5 -28.15 94.25 -28.25 Q95.6 -28.7 99.0 -30.3 L92.65 -29.4" fill="none" stroke="#000000" stroke-linecap="round" stroke-linejoin="round" stroke-opacity="0.4" stroke-width="0.5"/>
      <path d="M93.45 -3.25 L93.95 -10.2" fill="none" stroke="#000000" stroke-linecap="round" stroke-linejoin="round" stroke-opacity="0.4" stroke-width="0.1"/>
      <path d="M93.5 -51.05 L93.75 -50.1 Q93.85 -49.35 93.3 -47.75 92.7 -46.1 91.8 -46.4 90.85 -46.8 90.05 -47.6 89.45 -48.2 89.0 -48.25 L87.9 -48.15 87.15 -47.55 87.45 -47.4 Q88.35 -47.05 88.9 -45.9 L89.65 -43.75 Q89.9 -42.85 89.65 -42.9 89.4 -43.05 89.0 -44.1 L87.8 -46.25 Q87.05 -47.15 86.45 -46.9 85.75 -46.75 85.55 -46.0 85.25 -45.4 85.15 -44.25 84.9 -43.05 85.25 -42.05 85.55 -41.1 84.9 -42.05 84.2 -43.05 84.4 -44.15 84.55 -45.45 85.1 -46.55 83.4 -46.1 82.65 -44.25 81.9 -42.35 82.75 -41.25 83.6 -40.25 83.25 -40.3 L82.5 -40.65 Q82.1 -40.85 81.65 -42.1 81.15 -43.3 82.05 -45.05 82.95 -46.9 84.1 -47.3 L85.9 -47.35 Q86.7 -48.8 88.25 -49.0 89.8 -49.25 90.6 -48.15 91.45 -47.0 92.05 -47.25 92.6 -47.4 92.85 -48.25 L93.15 -49.6 Q93.35 -51.3 93.5 -51.05" fill="#3a3210" fill-rule="evenodd" stroke="none"/>
      <path d="M93.5 -51.05 Q93.35 -51.3 93.15 -49.6 L92.85 -48.25 Q92.6 -47.4 92.05 -47.25 91.45 -47.0 90.6 -48.15 89.8 -49.25 88.25 -49.0 86.7 -48.8 85.9 -47.35 L84.1 -47.3 Q82.95 -46.9 82.05 -45.05 81.15 -43.3 81.65 -42.1 82.1 -40.85 82.5 -40.65 L83.25 -40.3 Q83.6 -40.25 82.75 -41.25 81.9 -42.35 82.65 -44.25 83.4 -46.1 85.1 -46.55 84.55 -45.45 84.4 -44.15 84.2 -43.05 84.9 -42.05 85.55 -41.1 85.25 -42.05 84.9 -43.05 85.15 -44.25 85.25 -45.4 85.55 -46.0 85.75 -46.75 86.45 -46.9 87.05 -47.15 87.8 -46.25 L89.0 -44.1 Q89.4 -43.05 89.65 -42.9 89.9 -42.85 89.65 -43.75 L88.9 -45.9 Q88.35 -47.05 87.45 -47.4 L87.15 -47.55 87.9 -48.15 89.0 -48.25 Q89.45 -48.2 90.05 -47.6 90.85 -46.8 91.8 -46.4 92.7 -46.1 93.3 -47.75 93.85 -49.35 93.75 -50.1 L93.5 -51.05 Z" fill="none" stroke="#000000" stroke-linecap="round" stroke-linejoin="round" stroke-opacity="0.4" stroke-width="0.05"/>
      <path d="M92.1 -45.95 Q94.45 -47.2 95.9 -47.0 97.35 -46.9 99.25 -46.1 101.15 -45.35 102.6 -44.0 104.0 -42.6 104.7 -39.8 105.35 -37.05 104.65 -34.95 103.95 -32.8 103.1 -31.95 L101.55 -30.65 Q100.8 -30.15 100.25 -30.0 L99.25 -29.5 99.85 -30.45 Q101.4 -33.2 102.0 -36.5 102.15 -38.7 100.65 -41.2 99.1 -43.7 97.95 -44.5 L96.9 -45.25 96.9 -45.3 Q95.8 -46.05 94.55 -46.3 L92.1 -45.95 94.55 -46.3 Q95.8 -46.05 96.9 -45.3 L96.9 -45.25 97.95 -44.5 Q99.1 -43.7 100.65 -41.2 102.15 -38.7 102.0 -36.5 101.4 -33.2 99.85 -30.45 L99.25 -29.5 98.9 -29.25 97.5 -28.75 95.35 -28.5 93.25 -28.35 Q92.55 -28.1 91.85 -28.35 L91.0 -28.2 Q90.1 -28.05 89.35 -28.2 L88.85 -28.3 88.45 -28.65 87.25 -28.55 Q85.65 -28.95 84.95 -29.6 82.55 -31.8 82.1 -32.7 80.7 -35.35 80.85 -37.35 81.0 -39.35 81.3 -40.55 81.65 -41.75 83.2 -43.5 84.9 -45.2 85.8 -45.45 L88.15 -46.1 89.9 -46.4 92.1 -45.95 94.35 -43.8 92.1 -45.95 91.95 -42.65 92.3 -37.6 93.05 -34.05 93.65 -32.1 Q94.5 -31.5 94.85 -31.5 L95.45 -31.5 Q96.0 -31.7 96.35 -32.0 L96.95 -32.8 96.95 -32.6 96.9 -32.55 97.6 -32.55 98.35 -32.65 99.45 -34.0 99.9 -35.5 100.0 -37.9 Q99.8 -40.7 98.1 -42.65 96.35 -44.6 94.8 -44.0 L94.5 -43.7 94.45 -43.75 94.4 -43.75 94.35 -43.8 93.55 -43.95 Q93.05 -44.0 92.7 -43.55 L92.25 -43.05 91.95 -42.65 92.1 -45.95 Q89.5 -45.95 88.35 -44.95 L86.7 -43.5 85.4 -43.15 84.55 -42.8 83.4 -41.55 Q82.55 -40.5 82.45 -38.0 82.25 -35.5 82.7 -34.3 83.15 -33.05 83.5 -32.7 L84.1 -32.6 84.65 -33.0 84.6 -33.1 84.55 -33.2 84.55 -33.35 Q85.1 -32.2 86.3 -31.5 87.35 -30.95 88.2 -31.1 L88.25 -36.4 88.3 -36.25 89.75 -33.5 91.15 -31.2 Q91.55 -31.15 91.8 -31.6 L92.15 -32.3 91.85 -38.55 91.7 -41.45 91.4 -42.6 Q91.15 -43.0 89.4 -41.55 88.7 -40.95 88.6 -41.15 L89.25 -42.6 89.4 -42.85 89.55 -43.05 89.5 -43.05 89.55 -43.15 Q90.95 -45.65 92.1 -45.95 M95.35 -28.5 L95.95 -30.05 96.5 -31.55 96.9 -32.55 96.5 -31.55 95.95 -30.05 95.35 -28.5 M91.85 -28.35 L91.8 -28.35 89.7 -31.75 Q88.65 -34.05 88.3 -36.25 88.65 -34.05 89.7 -31.75 L91.8 -28.35 91.85 -28.35 M88.45 -28.65 L87.35 -29.65 Q85.4 -31.3 84.75 -32.7 L84.65 -33.0 84.75 -32.7 Q85.4 -31.3 87.35 -29.65 L88.45 -28.65 M93.25 -28.35 L92.8 -31.6 92.75 -31.8 92.3 -37.6 92.75 -31.8 92.8 -31.6 93.25 -28.35" fill="#da581d" fill-rule="evenodd" stroke="none"/>
      <path d="M94.35 -43.8 L94.4 -43.75 94.45 -43.75 94.5 -43.7 94.8 -44.0 Q96.35 -44.6 98.1 -42.65 99.8 -40.7 100.0 -37.9 L99.9 -35.5 99.45 -34.0 98.35 -32.65 97.6 -32.55 96.9 -32.55 96.95 -32.6 96.95 -32.8 96.35 -32.0 Q96.0 -31.7 95.45 -31.5 L94.85 -31.5 Q94.5 -31.5 93.65 -32.1 L93.05 -34.05 92.3 -37.6 91.95 -42.65 92.25 -43.05 92.7 -43.55 Q93.05 -44.0 93.55 -43.95 L94.35 -43.8 M95.0 -43.15 Q97.35 -39.7 97.45 -37.35 97.65 -34.95 96.95 -32.8 97.65 -34.95 97.45 -37.35 97.35 -39.7 95.0 -43.15 L94.75 -43.55 94.5 -43.65 95.0 -43.15 M94.5 -43.7 L94.5 -43.65 94.5 -43.7 M88.6 -41.15 Q88.7 -40.95 89.4 -41.55 91.15 -43.0 91.4 -42.6 L91.7 -41.45 91.85 -38.55 92.15 -32.3 91.8 -31.6 Q91.55 -31.15 91.15 -31.2 L89.75 -33.5 88.3 -36.25 88.25 -36.4 88.1 -37.35 Q87.85 -39.05 88.5 -40.85 L88.6 -41.15 88.5 -40.85 Q87.85 -39.05 88.1 -37.35 L88.25 -36.4 88.2 -31.1 Q87.35 -30.95 86.3 -31.5 85.1 -32.2 84.55 -33.35 L84.4 -33.7 Q82.3 -39.25 86.65 -43.45 L86.7 -43.5 86.65 -43.45 Q82.3 -39.25 84.4 -33.7 L84.55 -33.35 84.55 -33.2 84.6 -33.1 84.65 -33.0 84.1 -32.6 83.5 -32.7 Q83.15 -33.05 82.7 -34.3 82.25 -35.5 82.45 -38.0 82.55 -40.5 83.4 -41.55 L84.55 -42.8 85.4 -43.15 86.7 -43.5 88.35 -44.95 Q89.5 -45.95 92.1 -45.95 90.95 -45.65 89.55 -43.15 L89.5 -43.05 89.4 -42.85 89.25 -42.6 88.6 -41.15" fill="#ff7d2d" fill-rule="evenodd" stroke="none"/>
      <path d="M95.0 -43.15 L94.5 -43.65 94.75 -43.55 95.0 -43.15" fill="url(#decoration172-gradient1)" fill-rule="evenodd" stroke="none"/>
      <path d="M89.5 -43.05 L89.55 -43.05 89.4 -42.85 89.5 -43.05" fill="#ff9231" fill-rule="evenodd" stroke="none"/>
      <path d="M99.25 -29.5 L100.25 -30.0 Q100.8 -30.15 101.55 -30.65 L103.1 -31.95 Q103.95 -32.8 104.65 -34.95 105.35 -37.05 104.7 -39.8 104.0 -42.6 102.6 -44.0 101.15 -45.35 99.25 -46.1 97.35 -46.9 95.9 -47.0 94.45 -47.2 92.1 -45.95 L94.55 -46.3 Q95.8 -46.05 96.9 -45.3 L96.9 -45.25 97.95 -44.5 Q99.1 -43.7 100.65 -41.2 102.15 -38.7 102.0 -36.5 101.4 -33.2 99.85 -30.45 L99.25 -29.5 98.9 -29.25 97.5 -28.75 95.35 -28.5 93.25 -28.35 Q92.55 -28.1 91.85 -28.35 L91.0 -28.2 Q90.1 -28.05 89.35 -28.2 L88.85 -28.3 88.45 -28.65 87.25 -28.55 Q85.65 -28.95 84.95 -29.6 82.55 -31.8 82.1 -32.7 80.7 -35.35 80.85 -37.35 81.0 -39.35 81.3 -40.55 81.65 -41.75 83.2 -43.5 84.9 -45.2 85.8 -45.45 L88.15 -46.1 89.9 -46.4 92.1 -45.95 94.35 -43.8 94.4 -43.75 94.45 -43.75 94.5 -43.7 94.5 -43.65 95.0 -43.15 Q97.35 -39.7 97.45 -37.35 97.65 -34.95 96.95 -32.8 L96.95 -32.6 96.9 -32.55 96.5 -31.55 95.95 -30.05 95.35 -28.5 M91.95 -42.65 L92.3 -37.6 92.75 -31.8 92.8 -31.6 93.25 -28.35 M88.6 -41.15 L88.5 -40.85 Q87.85 -39.05 88.1 -37.35 L88.25 -36.4 88.3 -36.25 Q88.65 -34.05 89.7 -31.75 L91.8 -28.35 91.85 -28.35 M92.1 -45.95 L91.95 -42.65 M86.7 -43.5 L86.65 -43.45 Q82.3 -39.25 84.4 -33.7 L84.55 -33.35 84.55 -33.2 84.6 -33.1 84.65 -33.0 84.75 -32.7 Q85.4 -31.3 87.35 -29.65 L88.45 -28.65 M86.7 -43.5 L88.35 -44.95 Q89.5 -45.95 92.1 -45.95 90.95 -45.65 89.55 -43.15 L89.5 -43.05 89.4 -42.85 89.25 -42.6 88.6 -41.15" fill="none" stroke="#000000" stroke-linecap="round" stroke-linejoin="round" stroke-opacity="0.3019608" stroke-width="0.30000000000000004"/>
      <path d="M94.7 -51.6 L94.1 -52.15 Q93.6 -52.6 93.2 -51.95 92.8 -51.3 92.75 -50.5 L92.65 -47.85 92.65 -46.25 90.6 -45.45 91.7 -45.5 Q92.3 -45.6 92.3 -45.2 L92.05 -44.45 93.1 -45.5 94.5 -45.1 94.15 -45.9 95.3 -46.45 93.45 -46.15 93.75 -46.75 96.2 -47.3 Q98.15 -46.6 98.95 -46.6 L94.85 -45.6 Q94.65 -45.0 97.2 -44.0 94.7 -44.9 93.25 -44.85 92.5 -44.75 92.0 -43.75 L91.15 -42.1 91.55 -43.3 91.4 -44.8 Q90.4 -44.75 88.05 -43.9 90.9 -45.35 89.95 -45.55 L86.1 -45.3 Q88.65 -45.85 89.35 -46.55 L91.8 -46.6 Q92.15 -49.5 91.95 -51.4 90.15 -52.15 92.15 -53.0 L94.65 -53.1 Q95.15 -52.5 94.7 -51.6 M91.85 -46.3 L91.8 -46.6 91.85 -46.3" fill="#3a3210" fill-rule="evenodd" stroke="none"/>
      <path d="M93.45 -46.15 L95.3 -46.45 94.15 -45.9 94.5 -45.1 93.1 -45.5 92.05 -44.45 92.3 -45.2 Q92.3 -45.6 91.7 -45.5 L90.6 -45.45 92.65 -46.25 92.65 -47.85 92.75 -50.5 Q92.8 -51.3 93.2 -51.95 93.6 -52.6 94.1 -52.15 L94.7 -51.6 94.5 -49.65 93.75 -46.75 93.45 -46.15" fill="#524a25" fill-rule="evenodd" stroke="none"/>
      <path d="M93.45 -46.15 L93.75 -46.75 94.5 -49.65 94.7 -51.6 Q95.15 -52.5 94.65 -53.1 L92.15 -53.0 Q90.15 -52.15 91.95 -51.4 92.15 -49.5 91.8 -46.6 L91.85 -46.3 M93.75 -46.75 L96.2 -47.3 Q98.15 -46.6 98.95 -46.6 L94.85 -45.6 Q94.65 -45.0 97.2 -44.0 94.7 -44.9 93.25 -44.85 92.5 -44.75 92.0 -43.75 L91.15 -42.1 91.55 -43.3 91.4 -44.8 Q90.4 -44.75 88.05 -43.9 90.9 -45.35 89.95 -45.55 L86.1 -45.3 Q88.65 -45.85 89.35 -46.55 L91.8 -46.6" fill="none" stroke="#000000" stroke-linecap="round" stroke-linejoin="round" stroke-opacity="0.3019608" stroke-width="0.30000000000000004"/>
      <path d="M-75.05 -29.45 Q-74.85 -28.4 -74.05 -28.1 -73.35 -27.75 -72.05 -29.15 -70.75 -30.5 -68.7 -30.05 -66.55 -29.6 -65.65 -27.65 L-63.15 -27.4 Q-61.65 -26.8 -60.6 -24.3 -59.5 -21.9 -60.3 -20.4 -61.1 -18.9 -61.6 -18.65 L-62.65 -18.3 Q-63.15 -18.2 -61.9 -19.5 -60.65 -20.75 -61.45 -23.35 -62.3 -25.8 -64.6 -26.55 -63.95 -25.05 -63.9 -23.35 -63.8 -21.9 -64.8 -20.65 -65.75 -19.5 -65.25 -20.7 -64.7 -21.95 -64.9 -23.55 -64.95 -25.05 -65.25 -25.9 -65.5 -26.85 -66.4 -27.15 -67.25 -27.5 -68.35 -26.35 -69.55 -25.2 -70.2 -23.75 -70.85 -22.35 -71.2 -22.25 -71.55 -22.2 -71.15 -23.35 L-69.9 -26.0 Q-69.0 -27.5 -67.75 -27.9 L-67.3 -28.05 Q-67.45 -28.5 -68.25 -28.85 L-69.75 -29.1 Q-70.5 -29.05 -71.3 -28.4 -72.5 -27.4 -73.8 -27.05 -75.05 -26.7 -75.75 -28.85 -76.35 -31.0 -76.15 -31.95 L-75.75 -33.2 Q-75.45 -33.55 -75.35 -31.25 L-75.05 -29.45" fill="#3a3210" fill-rule="evenodd" stroke="none"/>
      <path d="M-75.05 -29.45 Q-74.85 -28.4 -74.05 -28.1 -73.35 -27.75 -72.05 -29.15 -70.75 -30.5 -68.7 -30.05 -66.55 -29.6 -65.65 -27.65 L-63.15 -27.4 Q-61.65 -26.8 -60.6 -24.3 -59.5 -21.9 -60.3 -20.4 -61.1 -18.9 -61.6 -18.65 L-62.65 -18.3 Q-63.15 -18.2 -61.9 -19.5 -60.65 -20.75 -61.45 -23.35 -62.3 -25.8 -64.6 -26.55 -63.95 -25.05 -63.9 -23.35 -63.8 -21.9 -64.8 -20.65 -65.75 -19.5 -65.25 -20.7 -64.7 -21.95 -64.9 -23.55 -64.95 -25.05 -65.25 -25.9 -65.5 -26.85 -66.4 -27.15 -67.25 -27.5 -68.35 -26.35 -69.55 -25.2 -70.2 -23.75 -70.85 -22.35 -71.2 -22.25 -71.55 -22.2 -71.15 -23.35 L-69.9 -26.0 Q-69.0 -27.5 -67.75 -27.9 L-67.3 -28.05 Q-67.45 -28.5 -68.25 -28.85 L-69.75 -29.1 Q-70.5 -29.05 -71.3 -28.4 -72.5 -27.4 -73.8 -27.05 -75.05 -26.7 -75.75 -28.85 -76.35 -31.0 -76.15 -31.95 L-75.75 -33.2 Q-75.45 -33.55 -75.35 -31.25 L-75.05 -29.45 Z" fill="none" stroke="#000000" stroke-linecap="round" stroke-linejoin="round" stroke-opacity="0.4" stroke-width="0.05"/>
      <path d="M-85.25 -2.5 L-87.0 -2.5 Q-89.1 -3.2 -90.0 -4.1 -93.1 -7.2 -93.7 -8.4 -95.25 -11.95 -94.85 -14.55 L-93.9 -18.7 Q-93.35 -20.2 -90.95 -22.3 -88.55 -24.35 -87.25 -24.7 L-83.95 -25.25 -81.5 -25.4 Q-80.35 -25.4 -78.5 -24.6 -81.6 -25.15 -84.85 -22.95 L-86.3 -21.95 -84.85 -22.95 Q-81.6 -25.15 -78.5 -24.6 -75.2 -26.0 -73.25 -25.7 -71.3 -25.35 -68.7 -24.2 -66.15 -23.0 -64.35 -21.1 -62.55 -19.25 -61.85 -15.5 -61.25 -11.85 -62.4 -9.2 -63.6 -6.45 -64.95 -5.25 L-67.3 -3.6 Q-68.25 -3.1 -69.1 -3.05 -69.8 -3.05 -70.4 -2.65 L-70.8 -2.35 -72.0 -1.85 -75.85 -1.7 Q-76.6 -1.55 -78.2 -1.7 L-78.75 -1.75 -80.65 -1.85 -81.85 -1.65 -84.1 -1.85 -84.75 -2.1 -85.25 -2.5 -86.65 -3.9 -89.85 -8.25 -86.65 -3.9 -85.25 -2.5 M-86.25 -22.0 L-88.05 -21.7 -89.25 -21.3 -91.5 -19.9 Q-93.35 -18.65 -93.6 -15.45 -93.85 -12.25 -92.95 -10.45 L-91.75 -8.3 Q-91.4 -7.9 -90.85 -8.1 L-89.85 -8.25 -90.0 -8.55 Q-89.2 -7.15 -87.4 -5.75 -85.3 -4.2 -84.55 -5.2 L-83.3 -6.5 Q-82.6 -6.0 -81.2 -5.55 -79.8 -5.1 -79.15 -7.9 L-79.75 -18.9 Q-80.55 -22.05 -82.05 -20.45 L-83.9 -18.25 -84.3 -17.7 -84.25 -17.75 -84.1 -18.15 -82.4 -21.15 -82.35 -21.25 Q-80.25 -24.25 -78.65 -24.55 -79.3 -12.3 -78.2 -1.7 -79.3 -12.3 -78.65 -24.55 -80.25 -24.25 -82.35 -21.25 L-82.4 -21.15 -84.1 -18.15 -83.9 -20.3 Q-83.9 -22.5 -86.3 -21.95 L-86.25 -22.0 M-80.65 -1.85 L-80.75 -1.85 -83.3 -6.5 -80.75 -1.85 -80.65 -1.85 M-70.4 -2.65 L-69.4 -3.8 Q-67.05 -7.2 -65.9 -11.45 -65.45 -14.25 -67.3 -17.65 -69.15 -21.05 -70.6 -22.2 L-71.95 -23.35 -72.05 -23.35 Q-73.45 -24.4 -75.1 -24.85 L-78.5 -24.6 -75.1 -24.85 Q-73.45 -24.4 -72.05 -23.35 L-71.95 -23.35 -70.6 -22.2 Q-69.15 -21.05 -67.3 -17.65 -65.45 -14.25 -65.9 -11.45 -67.05 -7.2 -69.4 -3.8 L-70.4 -2.65 M-70.4 -19.65 Q-72.8 -22.55 -73.9 -21.25 -74.05 -20.75 -72.35 -18.3 -71.0 -16.2 -71.35 -13.35 L-72.1 -7.0 Q-72.0 -6.05 -71.15 -6.25 -70.3 -6.55 -69.35 -7.2 -68.4 -7.95 -68.05 -9.8 -67.75 -11.65 -67.9 -14.25 -68.0 -16.8 -70.4 -19.65 M-78.65 -24.55 L-78.5 -24.6 -75.65 -21.65 -74.6 -20.45 -74.5 -20.25 -73.95 -19.3 -73.9 -19.2 Q-71.95 -15.55 -72.0 -12.95 -72.05 -9.9 -73.15 -7.1 L-73.25 -6.75 -73.7 -5.9 -73.9 -5.5 -74.9 -3.65 -75.85 -1.7 -74.9 -3.65 -73.9 -5.5 -73.7 -5.9 -73.25 -6.75 -73.15 -7.1 Q-72.05 -9.9 -72.0 -12.95 -71.95 -15.55 -73.9 -19.2 L-73.95 -19.3 -74.5 -20.25 -74.6 -20.45 -75.65 -21.65 -78.5 -24.6 -78.65 -24.55 M-74.05 -17.6 Q-75.1 -20.75 -76.7 -20.5 -78.3 -20.35 -78.35 -17.2 L-78.3 -11.25 Q-78.2 -8.4 -77.6 -7.3 L-76.7 -6.05 -75.45 -5.8 Q-75.0 -5.85 -74.35 -6.85 -73.75 -7.8 -73.5 -8.75 -73.05 -10.6 -73.05 -11.85 -73.05 -14.45 -74.05 -17.6" fill="#d36719" fill-rule="evenodd" stroke="none"/>
      <path d="M-89.85 -8.25 L-90.85 -8.1 Q-91.4 -7.9 -91.75 -8.3 L-92.95 -10.45 Q-93.85 -12.25 -93.6 -15.45 -93.35 -18.65 -91.5 -19.9 L-89.25 -21.3 -88.05 -21.7 -86.25 -22.0 -86.3 -21.95 Q-83.9 -22.5 -83.9 -20.3 L-84.1 -18.15 -84.25 -17.75 -84.3 -17.7 -83.9 -18.25 -82.05 -20.45 Q-80.55 -22.05 -79.75 -18.9 L-79.15 -7.9 Q-79.8 -5.1 -81.2 -5.55 -82.6 -6.0 -83.3 -6.5 -84.8 -10.45 -84.95 -13.9 -85.05 -15.75 -84.3 -17.7 -85.05 -15.75 -84.95 -13.9 -84.8 -10.45 -83.3 -6.5 L-84.55 -5.2 Q-85.3 -4.2 -87.4 -5.75 -89.2 -7.15 -90.0 -8.55 L-89.85 -8.25 M-90.0 -8.55 L-90.4 -9.5 Q-92.7 -16.85 -86.3 -21.95 -92.7 -16.85 -90.4 -9.5 L-90.0 -8.55 M-70.4 -19.65 Q-68.0 -16.8 -67.9 -14.25 -67.75 -11.65 -68.05 -9.8 -68.4 -7.95 -69.35 -7.2 -70.3 -6.55 -71.15 -6.25 -72.0 -6.05 -72.1 -7.0 L-71.35 -13.35 Q-71.0 -16.2 -72.35 -18.3 -74.05 -20.75 -73.9 -21.25 -72.8 -22.55 -70.4 -19.65 M-74.05 -17.6 Q-73.05 -14.45 -73.05 -11.85 -73.05 -10.6 -73.5 -8.75 -73.75 -7.8 -74.35 -6.85 -75.0 -5.85 -75.45 -5.8 L-76.7 -6.05 -77.6 -7.3 Q-78.2 -8.4 -78.3 -11.25 L-78.35 -17.2 Q-78.3 -20.35 -76.7 -20.5 -75.1 -20.75 -74.05 -17.6" fill="#ff9231" fill-rule="evenodd" stroke="none"/>
      <path d="M-78.5 -24.6 Q-80.35 -25.4 -81.5 -25.4 L-83.95 -25.25 -87.25 -24.7 Q-88.55 -24.35 -90.95 -22.3 -93.35 -20.2 -93.9 -18.7 L-94.85 -14.55 Q-95.25 -11.95 -93.7 -8.4 -93.1 -7.2 -90.0 -4.1 -89.1 -3.2 -87.0 -2.5 L-85.25 -2.5 -86.65 -3.9 -89.85 -8.25 -90.0 -8.55 -90.4 -9.5 Q-92.7 -16.85 -86.3 -21.95 L-84.85 -22.95 Q-81.6 -25.15 -78.5 -24.6 -75.2 -26.0 -73.25 -25.7 -71.3 -25.35 -68.7 -24.2 -66.15 -23.0 -64.35 -21.1 -62.55 -19.25 -61.85 -15.5 -61.25 -11.85 -62.4 -9.2 -63.6 -6.45 -64.95 -5.25 L-67.3 -3.6 Q-68.25 -3.1 -69.1 -3.05 -69.8 -3.05 -70.4 -2.65 L-70.8 -2.35 -72.0 -1.85 -75.85 -1.7 Q-76.6 -1.55 -78.2 -1.7 L-78.75 -1.75 -80.65 -1.85 -81.85 -1.65 -84.1 -1.85 -84.75 -2.1 -85.25 -2.5 M-86.25 -22.0 L-86.3 -21.95 M-78.2 -1.7 Q-79.3 -12.3 -78.65 -24.55 -80.25 -24.25 -82.35 -21.25 L-82.4 -21.15 -84.1 -18.15 -84.25 -17.75 -84.3 -17.7 Q-85.05 -15.75 -84.95 -13.9 -84.8 -10.45 -83.3 -6.5 L-80.75 -1.85 -80.65 -1.85 M-78.5 -24.6 L-75.1 -24.85 Q-73.45 -24.4 -72.05 -23.35 L-71.95 -23.35 -70.6 -22.2 Q-69.15 -21.05 -67.3 -17.65 -65.45 -14.25 -65.9 -11.45 -67.05 -7.2 -69.4 -3.8 L-70.4 -2.65 M-75.85 -1.7 L-74.9 -3.65 -73.9 -5.5 -73.7 -5.9 -73.25 -6.75 -73.15 -7.1 Q-72.05 -9.9 -72.0 -12.95 -71.95 -15.55 -73.9 -19.2 L-73.95 -19.3 -74.5 -20.25 -74.6 -20.45 -75.65 -21.65 -78.5 -24.6 -78.65 -24.55" fill="none" stroke="#000000" stroke-linecap="round" stroke-linejoin="round" stroke-opacity="0.3019608" stroke-width="0.30000000000000004"/>
      <path d="M-76.45 -25.65 L-72.65 -26.35 Q-71.5 -24.85 -69.35 -24.9 L-75.4 -24.25 Q-75.45 -23.3 -72.0 -21.7 -75.3 -23.05 -77.65 -23.45 L-79.15 -21.9 -80.45 -19.85 -79.85 -21.35 -79.55 -23.5 -84.6 -22.4 Q-80.45 -24.0 -81.8 -24.4 -82.85 -24.8 -87.4 -24.5 -83.55 -24.85 -83.2 -25.85 L-79.2 -25.65 Q-78.4 -29.35 -78.7 -31.9 -80.85 -33.0 -78.05 -33.85 -75.3 -34.75 -74.8 -33.85 -74.5 -33.4 -74.65 -31.8 L-75.45 -32.6 Q-76.1 -33.2 -76.7 -32.4 -77.3 -31.65 -77.45 -30.55 L-77.8 -27.1 -78.0 -25.1 Q-78.2 -24.85 -80.9 -24.25 L-79.4 -24.2 Q-78.6 -24.3 -78.7 -23.75 -78.8 -23.25 -79.05 -22.8 L-77.45 -24.1 -75.55 -23.4 -76.05 -24.4 Q-74.35 -25.0 -74.35 -25.1 L-76.9 -24.85 -76.45 -25.65 M-79.2 -25.2 L-79.2 -25.65 -79.2 -25.2" fill="#3a3210" fill-rule="evenodd" stroke="none"/>
      <path d="M-74.65 -31.8 L-75.15 -29.25 Q-76.05 -26.25 -76.45 -25.65 L-76.9 -24.85 -74.35 -25.1 Q-74.35 -25.0 -76.05 -24.4 L-75.55 -23.4 -77.45 -24.1 -79.05 -22.8 Q-78.8 -23.25 -78.7 -23.75 -78.6 -24.3 -79.4 -24.2 L-80.9 -24.25 Q-78.2 -24.85 -78.0 -25.1 L-77.8 -27.1 -77.45 -30.55 Q-77.3 -31.65 -76.7 -32.4 -76.1 -33.2 -75.45 -32.6 L-74.65 -31.8" fill="#524a25" fill-rule="evenodd" stroke="none"/>
      <path d="M-76.45 -25.65 L-72.65 -26.35 Q-71.5 -24.85 -69.35 -24.9 L-75.4 -24.25 Q-75.45 -23.3 -72.0 -21.7 -75.3 -23.05 -77.65 -23.45 L-79.15 -21.9 -80.45 -19.85 -79.85 -21.35 -79.55 -23.5 -84.6 -22.4 Q-80.45 -24.0 -81.8 -24.4 -82.85 -24.8 -87.4 -24.5 -83.55 -24.85 -83.2 -25.85 L-79.2 -25.65 Q-78.4 -29.35 -78.7 -31.9 -80.85 -33.0 -78.05 -33.85 -75.3 -34.75 -74.8 -33.85 -74.5 -33.4 -74.65 -31.8 L-75.15 -29.25 Q-76.05 -26.25 -76.45 -25.65 L-76.9 -24.85 M-79.2 -25.65 L-79.2 -25.2" fill="none" stroke="#000000" stroke-linecap="round" stroke-linejoin="round" stroke-opacity="0.3019608" stroke-width="0.30000000000000004"/>
    </g>
    <linearGradient gradientTransform="matrix(0.0128, -0.009, 0.0059, 0.0083, 23.4, -160.6)" gradientUnits="userSpaceOnUse" id="decoration172-gradient0" spreadMethod="pad" x1="-819.2" x2="819.2">
      <stop offset="0.0" stop-color="#2b1214"/>
      <stop offset="0.2235294117647059" stop-color="#230b07"/>
    </linearGradient>
    <radialGradient cx="0" cy="0" fx="28.8" fy="0" gradientTransform="matrix(0.0137, 0.0028, -0.0014, 0.0078, 92.55, -37.45)" gradientUnits="userSpaceOnUse" id="decoration172-gradient1" r="819.2" spreadMethod="pad">
      <stop offset="0.1803921568627451" stop-color="#ffa545"/>
      <stop offset="0.9725490196078431" stop-color="#ff9d24"/>
    </radialGradient>
  </defs>
</svg>
