<?xml version="1.0" encoding="UTF-8" standalone="no"?>
<svg xmlns:xlink="http://www.w3.org/1999/xlink" height="35.7px" width="40.7px" xmlns="http://www.w3.org/2000/svg">
  <g transform="matrix(1.0, 0.0, 0.0, 1.0, 20.15, 35.7)">
    <use height="35.7" transform="matrix(1.0, 0.0, 0.0, 1.0, -20.15, -35.7)" width="40.7" xlink:href="#decoration174-shape0"/>
  </g>
  <defs>
    <g id="decoration174-shape0" transform="matrix(1.0, 0.0, 0.0, 1.0, 20.15, 35.7)">
      <path d="M-6.5 -29.95 L-6.6 -31.5 -5.45 -30.55 Q-5.5 -29.45 -6.5 -29.95 M-3.3 -33.9 L-3.0 -35.45 -2.15 -34.25 Q-2.5 -33.2 -3.3 -33.9 M4.55 -35.65 L5.05 -34.25 Q4.45 -33.35 3.85 -34.25 L4.55 -35.65 M9.25 -30.2 Q8.4 -29.55 8.1 -30.55 L9.1 -31.7 9.25 -30.2" fill="#434846" fill-rule="evenodd" stroke="none"/>
      <path d="M-6.5 -29.95 L-6.6 -31.5 -5.45 -30.55 Q-5.5 -29.45 -6.5 -29.95 M-3.3 -33.9 L-3.0 -35.45 -2.15 -34.25 Q-2.5 -33.2 -3.3 -33.9 M4.55 -35.65 L5.05 -34.25 Q4.45 -33.35 3.85 -34.25 L4.55 -35.65 M9.25 -30.2 Q8.4 -29.55 8.1 -30.55 L9.1 -31.7 9.25 -30.2" fill="none" stroke="#000000" stroke-linecap="round" stroke-linejoin="round" stroke-opacity="0.4" stroke-width="0.1"/>
      <path d="M-4.7 -20.0 L-5.2 -23.25 -6.45 -27.6 Q-7.05 -30.8 -5.3 -30.45 -4.45 -30.3 -3.45 -29.5 -5.55 -33.05 -3.0 -33.9 -0.45 -34.8 0.9 -32.5 3.3 -35.25 5.2 -33.7 7.05 -32.2 5.9 -29.25 7.25 -30.3 8.1 -30.55 8.45 -30.55 7.75 -28.1 4.7 -23.5 4.75 -19.25 L3.35 -16.4 2.8 -19.75 1.9 -18.25 0.85 -19.95 -0.05 -19.2 Q-0.85 -18.35 -0.85 -15.6 -0.85 -12.9 -2.15 -19.7 L-3.5 -17.95 -4.7 -20.0" fill="#ecf0f0" fill-rule="evenodd" stroke="none"/>
      <path d="M4.75 -19.25 Q4.7 -23.5 7.75 -28.1 8.45 -30.55 8.1 -30.55 L8.75 -30.35 Q9.35 -30.05 9.45 -29.55 9.75 -27.25 7.6 -24.55 6.5 -23.15 6.15 -20.45 5.85 -20.65 5.3 -19.95 L4.75 -19.25" fill="#ced0d0" fill-rule="evenodd" stroke="none"/>
      <path d="M6.15 -20.45 Q5.8 -17.95 6.1 -14.25 L7.4 -1.75 Q0.7 0.5 -6.35 -1.75 L-6.1 -3.45 Q2.45 0.75 4.45 -8.85 5.1 -11.85 5.0 -15.85 L4.75 -19.25 5.3 -19.95 Q5.85 -20.65 6.15 -20.45" fill="#9da791" fill-rule="evenodd" stroke="none"/>
      <path d="M-4.7 -20.0 L-3.5 -17.95 -2.15 -19.7 Q-0.85 -12.9 -0.85 -15.6 -0.85 -18.35 -0.05 -19.2 L0.85 -19.95 1.9 -18.25 2.8 -19.75 3.35 -16.4 4.75 -19.25 5.0 -15.85 Q5.1 -11.85 4.45 -8.85 2.45 0.75 -6.1 -3.45 -4.55 -14.75 -4.7 -20.0" fill="#bcc5b0" fill-rule="evenodd" stroke="none"/>
      <path d="M8.1 -30.55 Q7.25 -30.3 5.9 -29.25 7.05 -32.2 5.2 -33.7 3.3 -35.25 0.9 -32.5 -0.45 -34.8 -3.0 -33.9 -5.55 -33.05 -3.45 -29.5 -4.45 -30.3 -5.3 -30.45 -7.05 -30.8 -6.45 -27.6 L-5.2 -23.25 -4.7 -20.0 M8.1 -30.55 L8.75 -30.35 Q9.35 -30.05 9.45 -29.55 9.75 -27.25 7.6 -24.55 6.5 -23.15 6.15 -20.45 5.8 -17.95 6.1 -14.25 L7.4 -1.75 Q0.7 0.5 -6.35 -1.75 L-6.1 -3.45 Q-4.55 -14.75 -4.7 -20.0" fill="none" stroke="#000000" stroke-linecap="round" stroke-linejoin="round" stroke-opacity="0.4" stroke-width="0.30000000000000004"/>
      <path d="M-2.05 -11.95 Q-1.65 -11.15 -1.75 -10.7 L-2.35 -9.55 Q-2.85 -8.85 -3.35 -8.8 -3.85 -8.75 -4.35 -9.45 -4.85 -10.15 -4.65 -10.75 L-4.0 -11.85 Q-3.7 -12.5 -3.1 -12.6 -2.45 -12.75 -2.05 -11.95 M-3.3 -11.75 Q-4.15 -11.65 -3.1 -10.35 -2.5 -10.0 -2.5 -10.9 -2.45 -11.85 -3.3 -11.75 M-1.9 -8.65 Q-1.3 -8.45 -0.85 -7.95 -0.65 -7.75 -0.65 -6.4 -0.65 -5.2 -0.8 -4.75 -0.95 -4.35 -2.1 -3.65 -3.3 -2.9 -3.8 -3.05 -4.15 -3.1 -4.7 -3.5 L-5.15 -4.2 Q-5.3 -5.55 -5.1 -6.3 -4.9 -7.05 -3.7 -7.95 -2.55 -8.85 -1.9 -8.65 M-2.65 -6.3 L-2.65 -6.4 Q-3.05 -6.75 -3.4 -6.65 -3.9 -6.55 -4.2 -5.65 L-4.45 -4.7 Q-4.5 -4.15 -4.2 -3.85 -3.05 -3.85 -2.65 -6.3" fill="#758c84" fill-rule="evenodd" stroke="none"/>
      <path d="M-3.3 -11.75 Q-2.45 -11.85 -2.5 -10.9 -2.5 -10.0 -3.1 -10.35 -4.15 -11.65 -3.3 -11.75 M-2.65 -6.3 Q-3.05 -3.85 -4.2 -3.85 -4.5 -4.15 -4.45 -4.7 L-4.2 -5.65 Q-3.9 -6.55 -3.4 -6.65 -3.05 -6.75 -2.65 -6.4 L-2.65 -6.3" fill="#8a9e96" fill-rule="evenodd" stroke="none"/>
      <path d="M-2.05 -11.95 Q-2.45 -12.75 -3.1 -12.6 -3.7 -12.5 -4.0 -11.85 L-4.65 -10.75 Q-4.85 -10.15 -4.35 -9.45 -3.85 -8.75 -3.35 -8.8 -2.85 -8.85 -2.35 -9.55 L-1.75 -10.7 Q-1.65 -11.15 -2.05 -11.95 M-1.9 -8.65 Q-2.55 -8.85 -3.7 -7.95 -4.9 -7.05 -5.1 -6.3 -5.3 -5.55 -5.15 -4.2 L-4.7 -3.5 Q-4.15 -3.1 -3.8 -3.05 -3.3 -2.9 -2.1 -3.65 -0.95 -4.35 -0.8 -4.75 -0.65 -5.2 -0.65 -6.4 -0.65 -7.75 -0.85 -7.95 -1.3 -8.45 -1.9 -8.65" fill="none" stroke="#c9d1bf" stroke-linecap="round" stroke-linejoin="round" stroke-width="0.1"/>
      <path d="M11.1 -20.3 Q10.9 -21.1 11.0 -21.6 11.25 -22.0 12.2 -22.2 13.3 -22.5 13.8 -21.85 L13.85 -21.75 Q13.15 -22.05 12.55 -21.3 L11.65 -20.2 Q11.4 -19.9 11.1 -20.3 M8.75 -16.0 L9.4 -16.75 Q9.75 -16.9 10.35 -16.5 11.05 -16.1 10.95 -15.5 L10.95 -15.45 Q10.7 -15.9 10.05 -15.8 L9.0 -15.7 Q8.7 -15.6 8.75 -16.0 M-9.8 -23.05 L-9.05 -23.95 Q-8.65 -24.05 -7.9 -23.6 -7.1 -23.1 -7.2 -22.4 L-7.2 -22.3 Q-7.45 -22.95 -8.3 -22.8 L-9.55 -22.65 Q-9.85 -22.6 -9.8 -23.05" fill="#ab6327" fill-rule="evenodd" stroke="none"/>
      <path d="M-5.0 -3.8 Q-5.35 -4.15 -6.1 -4.35 L-7.25 -4.2 -8.25 -4.2 -7.55 -4.7 -5.85 -4.55 Q-4.7 -4.3 -4.95 -3.8 L-5.0 -3.8" fill="#94541f" fill-rule="evenodd" stroke="none"/>
      <path d="M14.8 -21.75 L15.15 -20.25 15.25 -18.5 Q15.05 -17.75 14.4 -17.35 L13.15 -17.5 12.3 -17.8 13.7 -18.05 Q15.1 -18.7 14.8 -21.75 M11.45 -14.9 L10.75 -13.9 9.85 -12.9 8.85 -12.7 Q8.6 -12.75 8.25 -13.4 L7.95 -14.0 8.8 -13.45 Q9.9 -13.05 11.45 -14.9 M-6.6 -21.7 L-7.35 -20.55 Q-8.1 -19.5 -8.4 -19.4 -9.0 -19.0 -9.65 -19.15 L-10.35 -20.05 -10.65 -20.75 -9.65 -20.05 Q-8.4 -19.6 -6.6 -21.7" fill="#632d10" fill-rule="evenodd" stroke="none"/>
      <path d="M1.2 -3.3 L1.35 -2.55 1.4 -1.7 Q1.35 -1.3 1.0 -1.05 0.6 -0.7 -0.5 -1.05 -1.6 -1.45 -0.95 -2.7 0.65 -4.05 1.2 -3.3" fill="#471b06" fill-rule="evenodd" stroke="none"/>
      <path d="M7.95 -2.5 Q8.15 -2.75 9.2 -3.05 10.2 -3.35 10.35 -2.85 L10.2 -1.5 9.2 -1.4 8.2 -1.5 7.95 -1.95 7.95 -2.5" fill="#652608" fill-rule="evenodd" stroke="none"/>
      <path d="M-3.45 -0.45 L-5.1 -0.4 Q-6.15 -0.4 -5.4 -1.85 L-4.2 -1.7 -3.25 -1.35 -3.05 -0.8 -3.4 -0.5 -3.45 -0.45" fill="#3d1908" fill-rule="evenodd" stroke="none"/>
      <path d="M-15.2 -2.3 L-15.2 -2.85 -12.85 -2.75 -12.8 -2.65 -13.55 -1.65 -14.75 -1.8 Q-15.6 -2.05 -15.2 -2.3" fill="#501d05" fill-rule="evenodd" stroke="none"/>
      <path d="M12.3 -17.8 L11.1 -20.3 Q11.4 -19.9 11.65 -20.2 L12.55 -21.3 Q13.15 -22.05 13.85 -21.75 L13.8 -21.85 Q13.3 -22.5 12.2 -22.2 11.25 -22.0 11.0 -21.6 11.1 -22.25 11.55 -22.4 L13.65 -22.55 Q14.35 -22.35 14.8 -21.75 15.1 -18.7 13.7 -18.05 L12.3 -17.8" fill="url(#decoration174-gradient0)" fill-rule="evenodd" stroke="none"/>
      <path d="M-4.35 -3.2 Q-0.3 -3.5 0.95 -4.35 L2.6 -4.7 2.55 -4.65 Q1.65 -4.0 1.85 -3.5 2.0 -3.05 2.9 -2.55 L4.65 -2.3 Q5.1 -2.4 5.85 -2.95 L6.7 -3.8 6.6 -4.8 6.35 -5.65 9.05 -5.7 Q10.3 -5.2 11.2 -4.15 L13.4 -3.6 19.9 -1.6 Q23.55 -0.4 5.15 -0.7 L-3.45 -0.45 -3.4 -0.5 -3.05 -0.8 -3.25 -1.35 -4.2 -1.7 -5.4 -1.85 Q-6.15 -0.4 -5.1 -0.4 L-20.1 -0.05 Q-18.6 -1.6 -15.2 -2.3 -15.6 -2.05 -14.75 -1.8 L-13.55 -1.65 -12.8 -2.65 -11.35 -2.8 -9.75 -2.9 -9.8 -2.85 -9.8 -2.05 Q-8.8 -0.85 -6.75 -1.8 -4.7 -2.75 -4.35 -3.2 M1.2 -3.3 Q0.65 -4.05 -0.95 -2.7 -1.6 -1.45 -0.5 -1.05 0.6 -0.7 1.0 -1.05 1.35 -1.3 1.4 -1.7 L1.35 -2.55 1.2 -3.3 M7.95 -2.5 L7.95 -1.95 8.2 -1.5 9.2 -1.4 10.2 -1.5 10.35 -2.85 Q10.2 -3.35 9.2 -3.05 8.15 -2.75 7.95 -2.5" fill="url(#decoration174-gradient1)" fill-rule="evenodd" stroke="none"/>
      <path d="M2.6 -4.7 L3.1 -5.0 Q5.55 -6.6 6.35 -5.65 L6.6 -4.8 6.7 -3.8 5.85 -2.95 Q5.1 -2.4 4.65 -2.3 L2.9 -2.55 Q2.0 -3.05 1.85 -3.5 1.65 -4.0 2.55 -4.65 L2.6 -4.7" fill="url(#decoration174-gradient2)" fill-rule="evenodd" stroke="none"/>
      <path d="M9.4 -16.75 L10.15 -16.95 11.3 -15.95 11.45 -14.9 Q9.9 -13.05 8.8 -13.45 L7.95 -14.0 8.25 -14.85 8.65 -15.9 8.75 -16.0 Q8.7 -15.6 9.0 -15.7 L10.05 -15.8 Q10.7 -15.9 10.95 -15.45 L10.95 -15.5 Q11.05 -16.1 10.35 -16.5 9.75 -16.9 9.4 -16.75" fill="url(#decoration174-gradient3)" fill-rule="evenodd" stroke="none"/>
      <path d="M-9.05 -23.95 L-8.2 -24.1 Q-7.2 -23.5 -6.8 -22.9 -6.55 -22.35 -6.6 -21.7 -8.4 -19.6 -9.65 -20.05 L-10.65 -20.75 -10.4 -21.7 -9.85 -22.95 -9.8 -23.05 Q-9.85 -22.6 -9.55 -22.65 L-8.3 -22.8 Q-7.45 -22.95 -7.2 -22.3 L-7.2 -22.4 Q-7.1 -23.1 -7.9 -23.6 -8.65 -24.05 -9.05 -23.95" fill="url(#decoration174-gradient4)" fill-rule="evenodd" stroke="none"/>
      <path d="M-5.0 -3.8 L-4.95 -3.8 Q-4.7 -4.3 -5.85 -4.55 L-7.55 -4.7 -8.25 -4.2 -7.25 -4.2 -6.1 -4.35 Q-5.35 -4.15 -5.0 -3.8 M-9.75 -2.9 L-9.7 -2.95 Q-8.95 -4.65 -7.5 -4.9 L-6.5 -4.9 -4.5 -4.2 Q-4.1 -3.85 -4.25 -3.4 L-4.35 -3.2 Q-4.7 -2.75 -6.75 -1.8 -8.8 -0.85 -9.8 -2.05 L-9.8 -2.85 -9.75 -2.9" fill="url(#decoration174-gradient5)" fill-rule="evenodd" stroke="none"/>
      <path d="M14.8 -21.75 L15.15 -20.25 15.25 -18.5 Q15.05 -17.75 14.4 -17.35 L13.15 -17.5 12.3 -17.8 11.1 -20.3 Q10.9 -21.1 11.0 -21.6 11.1 -22.25 11.55 -22.4 L13.65 -22.55 Q14.35 -22.35 14.8 -21.75 M8.75 -16.0 L9.4 -16.75 10.15 -16.95 11.3 -15.95 11.45 -14.9 10.75 -13.9 9.85 -12.9 8.85 -12.7 Q8.6 -12.75 8.25 -13.4 L7.95 -14.0 8.25 -14.85 8.65 -15.9 8.75 -16.0 M-9.75 -2.9 L-9.7 -2.95 Q-8.95 -4.65 -7.5 -4.9 L-6.5 -4.9 -4.5 -4.2 Q-4.1 -3.85 -4.25 -3.4 L-4.35 -3.2 Q-0.3 -3.5 0.95 -4.35 L2.6 -4.7 3.1 -5.0 Q5.55 -6.6 6.35 -5.65 L9.05 -5.7 Q10.3 -5.2 11.2 -4.15 L13.4 -3.6 19.9 -1.6 Q23.55 -0.4 5.15 -0.7 L-3.45 -0.45 -4.25 -0.4 -5.1 -0.4 -20.1 -0.05 Q-18.6 -1.6 -15.2 -2.3 L-15.2 -2.85 -12.85 -2.75 -12.8 -2.65 -11.35 -2.8 -9.75 -2.9 -9.8 -2.85 -9.8 -2.05 Q-8.8 -0.85 -6.75 -1.8 -4.7 -2.75 -4.35 -3.2 M1.2 -3.3 Q0.65 -4.05 -0.95 -2.7 -1.6 -1.45 -0.5 -1.05 0.6 -0.7 1.0 -1.05 1.35 -1.3 1.4 -1.7 L1.35 -2.55 1.2 -3.3 M6.35 -5.65 L6.6 -4.8 6.7 -3.8 5.85 -2.95 Q5.1 -2.4 4.65 -2.3 L2.9 -2.55 Q2.0 -3.05 1.85 -3.5 1.65 -4.0 2.55 -4.65 M7.95 -2.5 L7.95 -1.95 8.2 -1.5 9.2 -1.4 10.2 -1.5 10.35 -2.85 Q10.2 -3.35 9.2 -3.05 8.15 -2.75 7.95 -2.5 M-9.05 -23.95 L-8.2 -24.1 Q-7.2 -23.5 -6.8 -22.9 -6.55 -22.35 -6.6 -21.7 L-7.35 -20.55 Q-8.1 -19.5 -8.4 -19.4 -9.0 -19.0 -9.65 -19.15 L-10.35 -20.05 -10.65 -20.75 -10.4 -21.7 -9.85 -22.95 -9.8 -23.05 -9.05 -23.95 M-15.2 -2.3 Q-15.6 -2.05 -14.75 -1.8 L-13.55 -1.65 -12.8 -2.65 M-5.1 -0.4 L-3.45 -0.45 -3.4 -0.5 -3.05 -0.8 -3.25 -1.35 -4.2 -1.7 -5.4 -1.85 Q-6.15 -0.4 -5.1 -0.4" fill="none" stroke="#000000" stroke-linecap="round" stroke-linejoin="round" stroke-opacity="0.29803923" stroke-width="0.1"/>
      <path d="M-0.55 -31.8 L-0.55 -31.7 Q-0.7 -29.65 -2.45 -30.75 L-2.9 -31.5 -1.45 -31.35 Q-1.0 -31.5 -0.55 -31.8 M-5.95 -29.3 Q-5.35 -28.1 -4.3 -28.25 -4.4 -27.85 -4.9 -27.65 -5.85 -27.8 -6.0 -28.7 L-5.95 -29.3 M4.8 -32.0 L4.35 -30.8 Q2.75 -29.5 2.3 -31.45 L2.55 -32.35 Q2.55 -31.8 3.15 -31.15 3.7 -30.5 4.8 -32.0 M4.8 -26.25 L4.85 -26.0 5.0 -24.65 Q4.85 -23.45 3.4 -24.05 2.95 -24.25 2.55 -24.05 L2.25 -23.75 Q2.2 -22.6 1.1 -22.75 0.0 -22.7 -0.15 -23.6 -0.55 -24.3 -1.2 -23.9 L-2.5 -23.95 Q-3.1 -24.35 -2.35 -26.55 -1.9 -27.85 -0.6 -28.4 -1.65 -27.6 -1.95 -26.45 -2.4 -24.8 -0.7 -25.2 -0.25 -25.2 0.1 -24.5 L0.65 -24.1 Q1.3 -23.85 1.6 -24.25 L2.15 -24.9 3.0 -25.15 3.6 -25.15 Q4.8 -25.2 4.8 -26.25 M8.6 -28.75 L8.55 -28.65 Q7.45 -27.6 6.85 -28.5 L6.95 -29.15 Q7.55 -28.45 8.6 -28.75" fill="#677872" fill-rule="evenodd" stroke="none"/>
      <path d="M-0.55 -31.8 Q-1.0 -31.5 -1.45 -31.35 L-2.9 -31.5 -3.0 -31.75 Q-3.25 -32.45 -3.0 -33.1 -2.25 -33.85 -1.5 -33.35 -0.85 -32.9 -0.55 -31.8 M-4.8 -29.2 L-4.9 -29.35 -5.65 -29.25 -5.25 -29.0 -5.1 -28.95 -4.9 -28.85 Q-4.65 -28.75 -4.8 -29.2 M-2.8 -32.75 Q-2.95 -32.15 -2.4 -31.9 L-2.25 -32.65 Q-2.05 -32.85 -2.25 -33.05 -2.45 -33.25 -2.8 -32.75 M-5.95 -29.3 L-5.6 -29.7 Q-5.1 -29.85 -4.6 -29.35 -4.25 -28.7 -4.3 -28.25 -5.35 -28.1 -5.95 -29.3 M4.8 -32.0 Q3.7 -30.5 3.15 -31.15 2.55 -31.8 2.55 -32.35 2.9 -33.15 3.55 -33.5 4.6 -33.5 4.8 -32.65 L4.8 -32.0 M-0.6 -28.4 L1.3 -28.75 Q4.05 -28.7 4.8 -26.25 4.8 -25.2 3.6 -25.15 L3.0 -25.15 2.15 -24.9 1.6 -24.25 Q1.3 -23.85 0.65 -24.1 L0.1 -24.5 Q-0.25 -25.2 -0.7 -25.2 -2.4 -24.8 -1.95 -26.45 -1.65 -27.6 -0.6 -28.4 M3.0 -32.8 Q2.85 -32.2 3.1 -31.95 L3.85 -32.7 Q4.2 -32.9 3.85 -33.1 3.5 -33.3 3.0 -32.8 M0.25 -27.9 L-0.6 -27.55 Q-0.8 -27.3 -0.5 -26.95 L0.9 -27.3 2.4 -27.3 Q3.55 -27.0 2.85 -27.7 2.25 -28.25 1.2 -28.15 L0.25 -27.9 M8.6 -28.75 Q7.55 -28.45 6.95 -29.15 7.1 -29.6 7.55 -29.85 8.35 -30.1 8.65 -29.65 8.9 -29.3 8.6 -28.75 M8.1 -29.7 Q7.8 -29.9 7.45 -29.4 7.3 -28.8 8.25 -29.3 L8.1 -29.7" fill="#7e938b" fill-rule="evenodd" stroke="none"/>
      <path d="M-2.8 -32.75 Q-2.45 -33.25 -2.25 -33.05 -2.05 -32.85 -2.25 -32.65 L-2.4 -31.9 Q-2.95 -32.15 -2.8 -32.75 M-4.8 -29.2 Q-4.65 -28.75 -4.9 -28.85 L-5.1 -28.95 -5.25 -29.0 -5.65 -29.25 -4.9 -29.35 -4.8 -29.2 M3.0 -32.8 Q3.5 -33.3 3.85 -33.1 4.2 -32.9 3.85 -32.7 L3.1 -31.95 Q2.85 -32.2 3.0 -32.8 M0.25 -27.9 L1.2 -28.15 Q2.25 -28.25 2.85 -27.7 3.55 -27.0 2.4 -27.3 L0.9 -27.3 -0.5 -26.95 Q-0.8 -27.3 -0.6 -27.55 L0.25 -27.9 M8.1 -29.7 L8.25 -29.3 Q7.3 -28.8 7.45 -29.4 7.8 -29.9 8.1 -29.7" fill="#a8beb5" fill-rule="evenodd" stroke="none"/>
    </g>
    <linearGradient gradientTransform="matrix(-7.0E-4, -0.0026, 0.0029, -8.0E-4, 12.65, -20.25)" gradientUnits="userSpaceOnUse" id="decoration174-gradient0" spreadMethod="pad" x1="-819.2" x2="819.2">
      <stop offset="0.0" stop-color="#632d10"/>
      <stop offset="1.0" stop-color="#ab6327"/>
    </linearGradient>
    <linearGradient gradientTransform="matrix(0.0249, 0.0, 0.0, 0.0036, 0.25, -3.05)" gradientUnits="userSpaceOnUse" id="decoration174-gradient1" spreadMethod="pad" x1="-819.2" x2="819.2">
      <stop offset="0.0" stop-color="#471a04"/>
      <stop offset="1.0" stop-color="#2a0f02"/>
    </linearGradient>
    <linearGradient gradientTransform="matrix(0.0014, -0.0024, 0.0018, 0.001, 4.35, -4.2)" gradientUnits="userSpaceOnUse" id="decoration174-gradient2" spreadMethod="pad" x1="-819.2" x2="819.2">
      <stop offset="0.0" stop-color="#331304"/>
      <stop offset="1.0" stop-color="#6d3708"/>
    </linearGradient>
    <linearGradient gradientTransform="matrix(0.0011, -0.0018, 0.0019, 0.001, 9.5, -15.2)" gradientUnits="userSpaceOnUse" id="decoration174-gradient3" spreadMethod="pad" x1="-819.2" x2="819.2">
      <stop offset="0.0" stop-color="#632d10"/>
      <stop offset="1.0" stop-color="#ab6327"/>
    </linearGradient>
    <linearGradient gradientTransform="matrix(0.0012, -0.0021, 0.0023, 0.0013, -8.9, -22.1)" gradientUnits="userSpaceOnUse" id="decoration174-gradient4" spreadMethod="pad" x1="-819.2" x2="819.2">
      <stop offset="0.0" stop-color="#632d10"/>
      <stop offset="1.0" stop-color="#ab6327"/>
    </linearGradient>
    <linearGradient gradientTransform="matrix(0.0024, -0.0024, 0.0015, 0.0015, -7.05, -3.2)" gradientUnits="userSpaceOnUse" id="decoration174-gradient5" spreadMethod="pad" x1="-819.2" x2="819.2">
      <stop offset="0.0" stop-color="#581f04"/>
      <stop offset="1.0" stop-color="#803d03"/>
    </linearGradient>
  </defs>
</svg>
