<?xml version="1.0" encoding="UTF-8" standalone="no"?>
<svg xmlns:ffdec="https://www.free-decompiler.com/flash" xmlns:xlink="http://www.w3.org/1999/xlink" ffdec:objectType="frame" height="73.25px" width="55.75px" xmlns="http://www.w3.org/2000/svg">
  <g transform="matrix(1.0, 0.0, 0.0, 1.0, 27.2, 35.7)">
    <use ffdec:characterId="317" height="73.25" transform="matrix(1.0, 0.0, 0.0, 1.0, -27.2, -35.7)" width="55.75" xlink:href="#decoration175-shape0"/>
  </g>
  <defs>
    <g id="decoration175-shape0" transform="matrix(1.0, 0.0, 0.0, 1.0, 27.2, 35.7)">
      <path d="M1.0 -13.6 Q1.4 -14.85 1.25 -15.75 1.05 -16.7 -0.8 -14.4 -2.65 -12.15 -1.85 -12.0 L-0.25 -12.15 Q0.55 -12.45 1.0 -13.6 M6.05 -33.6 Q9.5 -30.7 9.75 -26.5 10.0 -22.4 8.0 -19.2 6.0 -15.95 5.0 -15.15 5.9 -14.15 7.2 -14.3 8.9 -14.55 9.9 -19.7 10.9 -24.8 13.55 -22.85 16.15 -20.95 12.7 -18.5 13.35 -10.3 15.85 -8.45 18.25 -6.65 15.1 -4.95 11.95 -3.25 13.75 -0.7 15.55 1.8 13.55 2.05 11.5 2.2 11.55 3.4 11.5 4.6 13.9 9.55 16.3 14.4 13.4 18.2 10.2 22.4 1.05 16.45 -1.8 44.5 28.55 32.0 5.35 42.9 0.4 32.35 -2.2 26.2 -2.3 16.8 -10.45 22.55 -13.05 17.15 -15.65 11.7 -11.35 5.45 -15.55 9.3 -15.7 4.65 -15.9 -0.05 -19.2 0.8 -22.6 1.6 -22.9 -3.55 -22.65 -7.1 -24.6 -10.65 L-26.15 -10.6 Q-28.4 -12.5 -25.85 -13.95 -23.3 -15.4 -18.8 -8.8 -15.65 -4.15 -13.6 -10.25 -16.85 -11.15 -20.15 -13.4 -23.55 -15.65 -24.7 -18.55 -25.75 -21.5 -24.85 -24.9 -23.95 -28.4 -20.35 -29.6 -16.8 -30.8 -13.65 -28.4 -10.5 -26.0 -8.85 -22.75 -7.2 -19.5 -6.5 -23.6 L-5.2 -30.9 Q-4.55 -34.1 -1.0 -35.35 2.6 -36.6 6.05 -33.6 M1.3 -9.2 Q0.0 -7.85 -1.5 -8.25 -3.05 -8.65 -3.05 -9.65 L-1.9 -10.95 Q-4.1 -11.05 -5.5 -10.2 L-3.75 -9.55 Q-3.85 -8.4 -4.95 -7.65 L-7.2 -7.55 -6.75 -7.2 -5.85 -6.9 Q-5.3 -6.8 -4.3 -7.5 -3.3 -8.25 -1.95 -7.85 -0.65 -7.5 0.25 -8.05 1.1 -8.6 1.3 -9.2 M-8.55 -11.1 L-6.4 -11.05 Q-5.35 -11.45 -6.3 -12.05 L-8.85 -13.6 Q-10.5 -14.5 -10.1 -13.0 -9.65 -11.5 -8.55 -11.1" fill="#ffffff" fill-opacity="0.49803922" fill-rule="evenodd" stroke="none"/>
    </g>
  </defs>
</svg>
