<?xml version="1.0" encoding="UTF-8" standalone="no"?>
<svg xmlns:ffdec="https://www.free-decompiler.com/flash" xmlns:xlink="http://www.w3.org/1999/xlink" ffdec:objectType="frame" height="94.4px" width="62.0px" xmlns="http://www.w3.org/2000/svg">
  <g transform="matrix(1.0, 0.0, 0.0, 1.0, 31.2, 47.55)">
    <use ffdec:characterId="315" height="94.4" transform="matrix(1.0, 0.0, 0.0, 1.0, -31.2, -47.55)" width="62.0" xlink:href="#decoration176-shape0"/>
  </g>
  <defs>
    <g id="decoration176-shape0" transform="matrix(1.0, 0.0, 0.0, 1.0, 31.2, 47.55)">
      <path d="M29.55 -34.5 Q32.85 -30.05 27.35 -25.85 22.6 -19.3 26.5 -14.35 31.7 -5.85 22.0 -10.4 18.9 -11.8 18.85 -6.75 19.75 4.45 15.55 1.75 11.4 -0.95 10.9 5.95 13.25 18.35 9.95 18.3 2.75 17.65 3.85 25.05 5.05 32.45 -7.5 32.0 -12.65 32.45 -10.05 38.4 -8.55 41.75 -4.65 46.85 -13.05 42.65 -16.85 38.4 -22.85 31.55 -16.95 24.45 -12.35 20.65 -15.6 18.3 -21.15 15.25 -18.7 8.4 -13.4 -5.1 -22.85 -6.1 -25.9 -7.85 -22.8 -14.8 -19.75 -21.8 -28.7 -20.85 -32.35 -20.35 -30.3 -27.1 -28.25 -31.45 -29.05 -36.8 L-30.75 -39.6 Q-32.5 -41.95 -27.2 -43.85 -21.95 -45.85 -20.85 -36.8 -19.75 -27.8 -7.4 -42.3 4.85 -56.9 13.15 -30.75 14.85 -28.8 18.45 -29.2 22.0 -29.65 24.1 -34.35 26.25 -39.0 29.55 -34.5 M-4.8 -34.55 Q-8.3 -38.1 -8.1 -35.55 -8.0 -33.0 -7.4 -31.75 -6.95 -30.45 -4.95 -30.4 L-2.15 -30.65 Q-1.3 -31.0 -4.8 -34.55 M1.1 -18.65 Q1.85 -21.95 0.45 -25.6 -0.95 -29.3 -2.15 -27.75 -3.3 -26.2 -4.25 -24.1 -5.25 -21.95 -5.25 -18.35 -5.25 -14.75 -4.15 -12.4 -3.15 -10.1 -2.15 -11.25 -1.2 -12.45 -0.4 -13.9 0.4 -15.35 1.1 -18.65 M5.05 -32.0 Q0.8 -30.75 2.0 -29.6 3.2 -28.5 4.7 -28.15 6.1 -27.85 7.7 -29.5 9.3 -31.2 9.35 -32.25 9.4 -33.25 5.05 -32.0" fill="#ffffff" fill-opacity="0.49803922" fill-rule="evenodd" stroke="none"/>
    </g>
  </defs>
</svg>
