<?xml version="1.0" encoding="UTF-8" standalone="no"?>
<svg xmlns:ffdec="https://www.free-decompiler.com/flash" xmlns:xlink="http://www.w3.org/1999/xlink" ffdec:objectType="frame" height="94.2px" width="72.35px" xmlns="http://www.w3.org/2000/svg">
  <g transform="matrix(1.0, 0.0, 0.0, 1.0, 36.0, 46.0)">
    <use ffdec:characterId="240" height="94.2" transform="matrix(1.0, 0.0, 0.0, 1.0, -36.0, -46.0)" width="72.35" xlink:href="#decoration177-shape0"/>
  </g>
  <defs>
    <g id="decoration177-shape0" transform="matrix(1.0, 0.0, 0.0, 1.0, 36.0, 46.0)">
      <path d="M8.9 -28.6 Q8.9 -27.35 9.7 -26.45 10.35 -25.65 11.25 -25.55 13.0 -25.65 13.7 -26.5 14.35 -27.35 14.35 -28.6 14.35 -29.85 13.5 -30.75 12.75 -31.65 11.6 -31.65 10.5 -31.65 9.7 -30.75 8.9 -29.85 8.9 -28.6 M6.7 -28.15 Q6.7 -29.95 5.7 -31.2 4.75 -32.45 3.4 -32.45 2.0 -32.45 1.05 -31.2 0.1 -29.95 0.1 -28.15 0.1 -26.4 0.9 -25.45 1.65 -24.5 3.45 -24.4 5.2 -24.25 6.0 -25.3 6.7 -26.4 6.7 -28.15 M32.9 -31.2 L34.5 -29.45 Q36.5 -26.65 35.85 -25.15 35.15 -23.7 33.7 -22.85 L32.9 -22.35 31.15 -20.7 Q30.1 -19.45 32.9 -15.95 L33.2 -15.6 Q36.35 -11.8 36.35 -6.9 36.35 -4.55 35.45 -1.8 34.8 0.5 32.9 -1.3 L32.2 -2.05 Q29.7 -5.1 29.7 -0.15 29.7 4.8 27.75 4.8 25.8 4.8 24.9 5.7 24.0 6.55 23.25 10.2 L21.75 16.8 Q21.0 19.7 15.9 21.2 12.85 22.1 10.5 23.5 8.85 24.5 7.55 25.75 4.35 28.8 0.7 29.7 -3.95 31.75 -10.7 30.45 -29.4 27.0 -36.0 48.2 -35.4 29.85 -30.55 26.15 L-27.45 23.5 Q-24.7 20.85 -22.8 17.85 -19.95 13.35 -18.95 9.4 -18.0 5.45 -21.35 6.2 -24.7 6.95 -25.75 5.85 -26.85 4.7 -26.0 1.05 -25.2 -2.55 -23.05 -4.8 -20.95 -7.05 -24.7 -7.35 -28.45 -7.75 -29.25 -9.05 -30.1 -10.35 -28.7 -12.6 -27.25 -14.9 -24.75 -16.7 -22.3 -18.5 -22.55 -20.5 -22.75 -22.5 -25.25 -24.05 -27.75 -25.6 -27.75 -27.45 -27.75 -30.65 -24.1 -32.85 -20.5 -35.05 -17.2 -31.05 -13.85 -27.1 -15.65 -24.15 -17.45 -21.3 -15.25 -17.75 -13.1 -14.2 -10.35 -13.85 -7.65 -13.55 -5.4 -17.75 -3.2 -21.95 -3.95 -24.9 -7.35 -35.8 0.1 -39.0 3.9 -40.8 -2.7 -44.55 L-4.65 -45.55 Q4.45 -46.85 10.4 -44.55 16.15 -42.25 18.85 -36.5 21.45 -29.35 19.0 -25.25 16.55 -21.15 16.45 -20.1 16.35 -19.1 16.65 -17.9 16.9 -16.75 18.4 -14.7 19.85 -12.65 21.8 -12.65 23.3 -12.65 24.1 -13.85 24.8 -14.9 23.75 -16.4 22.75 -17.9 22.2 -19.4 21.7 -20.95 22.8 -24.1 23.95 -27.25 25.3 -29.55 26.95 -32.3 30.15 -32.3 31.55 -32.3 32.9 -31.2 M3.8 -20.9 Q2.5 -20.05 1.2 -16.65 -0.05 -13.45 0.2 -12.25 0.4 -11.2 1.9 -11.3 3.35 -11.35 3.9 -12.3 L5.75 -14.6 Q6.9 -15.85 7.7 -13.9 8.45 -12.0 10.55 -11.65 12.6 -11.25 13.0 -12.25 13.35 -13.2 11.9 -16.65 10.45 -20.05 9.2 -20.95 6.6 -22.7 3.8 -20.9" fill="#ffffff" fill-opacity="0.49803922" fill-rule="evenodd" stroke="none"/>
    </g>
  </defs>
</svg>
