<?xml version="1.0" encoding="UTF-8" standalone="no"?>
<svg xmlns:xlink="http://www.w3.org/1999/xlink" height="26.8px" width="25.55px" xmlns="http://www.w3.org/2000/svg">
  <g transform="matrix(1.0, 0.0, 0.0, 1.0, 12.15, 25.0)">
    <use height="26.8" transform="matrix(1.0, 0.0, 0.0, 1.0, -12.15, -25.0)" width="25.55" xlink:href="#decoration178-shape0"/>
  </g>
  <defs>
    <g id="decoration178-shape0" transform="matrix(1.0, 0.0, 0.0, 1.0, 12.15, 25.0)">
      <path d="M8.85 -21.95 L9.45 -21.25 Q11.9 -18.0 13.05 -14.1 L13.25 -12.35 12.6 -12.45 Q11.75 -12.45 11.1 -11.85 10.55 -11.25 10.55 -10.35 10.55 -9.9 10.7 -9.5 L8.65 -9.05 2.8 -8.65 -4.85 -9.0 -8.65 -9.55 -9.95 -10.0 -9.75 -10.25 Q-9.1 -10.8 -9.1 -11.7 -7.9 -9.75 6.1 -14.2 6.7 -13.6 7.55 -13.6 8.4 -13.6 8.95 -14.25 9.6 -14.8 9.6 -15.7 9.6 -16.55 8.95 -17.15 8.4 -17.75 7.55 -17.75 9.45 -20.0 8.85 -21.95" fill="#a2001e" fill-rule="evenodd" stroke="none"/>
      <path d="M-11.9 -13.6 L-11.35 -15.05 Q-9.45 -18.8 -7.4 -21.4 L-7.3 -21.3 Q-6.65 -20.65 -5.8 -20.65 -4.95 -20.65 -4.4 -21.3 -3.75 -21.9 -3.75 -22.75 -3.75 -23.45 -4.2 -24.05 -1.95 -25.05 1.45 -24.8 L4.65 -24.3 4.5 -23.45 Q4.5 -22.6 5.05 -22.0 5.7 -21.4 6.55 -21.4 7.4 -21.4 8.0 -22.0 L8.35 -22.4 8.85 -21.95 Q9.45 -20.0 7.55 -17.75 6.7 -17.75 6.05 -17.15 5.5 -16.55 5.5 -15.7 5.5 -14.8 6.05 -14.25 L6.1 -14.2 Q-7.9 -9.75 -9.1 -11.7 L-9.1 -11.85 Q-9.2 -12.6 -9.75 -13.15 -10.35 -13.75 -11.2 -13.75 L-11.9 -13.6 M2.05 -20.3 Q1.45 -20.9 0.6 -20.9 -0.25 -20.9 -0.9 -20.3 -1.45 -19.7 -1.45 -18.8 -1.45 -17.95 -0.9 -17.4 -0.25 -16.75 0.6 -16.75 1.45 -16.75 2.05 -17.4 2.65 -17.95 2.65 -18.8 2.65 -19.7 2.05 -20.3 M-7.65 -16.6 Q-8.25 -15.95 -8.25 -15.1 -8.25 -14.25 -7.65 -13.65 -7.0 -13.05 -6.15 -13.05 -5.3 -13.05 -4.75 -13.65 -4.1 -14.25 -4.1 -15.1 -4.1 -15.95 -4.75 -16.6 -5.3 -17.15 -6.15 -17.15 -7.0 -17.15 -7.65 -16.6" fill="url(#decoration178-gradient0)" fill-rule="evenodd" stroke="none"/>
      <path d="M-9.95 -10.0 L-10.4 -10.3 Q-12.45 -11.45 -11.9 -13.6 L-11.2 -13.75 Q-10.35 -13.75 -9.75 -13.15 -9.2 -12.6 -9.1 -11.85 L-9.1 -11.7 Q-9.1 -10.8 -9.75 -10.25 L-9.95 -10.0 M-7.4 -21.4 L-6.55 -22.35 Q-5.65 -23.4 -4.2 -24.05 -3.75 -23.45 -3.75 -22.75 -3.75 -21.9 -4.4 -21.3 -4.95 -20.65 -5.8 -20.65 -6.65 -20.65 -7.3 -21.3 L-7.4 -21.4 M4.65 -24.3 Q6.8 -23.7 8.35 -22.4 L8.0 -22.0 Q7.4 -21.4 6.55 -21.4 5.7 -21.4 5.05 -22.0 4.5 -22.6 4.5 -23.45 L4.65 -24.3 M2.05 -20.3 Q2.65 -19.7 2.65 -18.8 2.65 -17.95 2.05 -17.4 1.45 -16.75 0.6 -16.75 -0.25 -16.75 -0.9 -17.4 -1.45 -17.95 -1.45 -18.8 -1.45 -19.7 -0.9 -20.3 -0.25 -20.9 0.6 -20.9 1.45 -20.9 2.05 -20.3 M-7.65 -16.6 Q-7.0 -17.15 -6.15 -17.15 -5.3 -17.15 -4.75 -16.6 -4.1 -15.95 -4.1 -15.1 -4.1 -14.25 -4.75 -13.65 -5.3 -13.05 -6.15 -13.05 -7.0 -13.05 -7.65 -13.65 -8.25 -14.25 -8.25 -15.1 -8.25 -15.95 -7.65 -16.6" fill="#faf2d9" fill-rule="evenodd" stroke="none"/>
      <path d="M13.25 -12.35 Q13.05 -10.4 10.7 -9.5 10.55 -9.9 10.55 -10.35 10.55 -11.25 11.1 -11.85 11.75 -12.45 12.6 -12.45 L13.25 -12.35 M7.55 -17.75 Q8.4 -17.75 8.95 -17.15 9.6 -16.55 9.6 -15.7 9.6 -14.8 8.95 -14.25 8.4 -13.6 7.55 -13.6 6.7 -13.6 6.1 -14.2 L6.05 -14.25 Q5.5 -14.8 5.5 -15.7 5.5 -16.55 6.05 -17.15 6.7 -17.75 7.55 -17.75" fill="#eee2bd" fill-rule="evenodd" stroke="none"/>
      <path d="M8.85 -21.95 L9.45 -21.25 Q11.9 -18.0 13.05 -14.1 L13.25 -12.35 Q13.05 -10.4 10.7 -9.5 L8.65 -9.05 2.8 -8.65 -4.85 -9.0 -8.65 -9.55 -9.95 -10.0 -10.4 -10.3 Q-12.45 -11.45 -11.9 -13.6 L-11.35 -15.05 Q-9.45 -18.8 -7.4 -21.4 L-6.55 -22.35 Q-5.65 -23.4 -4.2 -24.05 -1.95 -25.05 1.45 -24.8 L4.65 -24.3 Q6.8 -23.7 8.35 -22.4 L8.85 -21.95 Z" fill="none" stroke="#000000" stroke-linecap="round" stroke-linejoin="round" stroke-opacity="0.4" stroke-width="0.30000000000000004"/>
      <path d="M10.05 -10.85 L10.05 -10.7 Q9.85 -10.25 7.4 -10.0 L3.35 -9.75 -2.75 -9.75 -6.35 -10.0 Q-8.7 -10.25 -8.85 -10.6 L-8.85 -10.65 -8.8 -10.75 -6.6 -11.3 -5.45 -11.45 -2.3 -11.7 0.6 -11.7 1.5 -11.7 3.0 -11.7 4.95 -11.65 6.95 -11.5 Q9.9 -11.3 10.05 -10.85 M-2.0 -10.75 L-5.45 -11.45 -2.0 -10.75 M-2.45 -10.35 L-8.85 -10.6 -2.45 -10.35 M6.95 -11.5 L2.9 -10.75 6.95 -11.5 M3.3 -10.35 L10.05 -10.7 3.3 -10.35 M0.55 -11.15 L0.6 -11.7 0.55 -11.15" fill="#eee2bd" fill-rule="evenodd" stroke="none"/>
      <path d="M10.05 -10.85 L10.05 -10.7 Q9.85 -10.25 7.4 -10.0 L3.35 -9.75 -2.75 -9.75 -6.35 -10.0 Q-8.7 -10.25 -8.85 -10.6 L-8.85 -10.65 -8.8 -10.75 -6.6 -11.3 -5.45 -11.45 -2.3 -11.7 0.6 -11.7 1.5 -11.7 3.0 -11.7 4.95 -11.65 6.95 -11.5 Q9.9 -11.3 10.05 -10.85 M0.6 -11.7 L0.55 -11.15 M10.05 -10.7 L3.3 -10.35 M2.9 -10.75 L6.95 -11.5 M-8.85 -10.6 L-2.45 -10.35 M-5.45 -11.45 L-2.0 -10.75" fill="none" stroke="#000000" stroke-linecap="round" stroke-linejoin="round" stroke-opacity="0.29803923" stroke-width="0.1"/>
      <path d="M-2.05 -7.95 Q-1.9 -8.6 -1.9 -9.3 L-1.65 -10.4 -1.5 -10.65 -1.2 -11.1 -1.0 -11.35 -0.95 -11.35 Q-0.35 -11.9 1.15 -11.8 L2.0 -11.7 3.35 -11.1 3.7 -10.65 3.75 -10.4 3.8 -9.3 Q4.05 -6.2 4.65 -4.9 L4.95 -4.4 Q5.75 -3.25 5.75 -1.6 L5.6 -0.85 Q5.25 0.25 4.15 0.9 2.55 1.75 0.15 1.65 -2.3 1.55 -3.65 -0.15 L-3.85 -0.4 Q-1.0 2.15 2.0 -0.1 L3.25 -1.15 3.7 -1.9 Q3.95 -2.4 3.8 -3.3 3.7 -4.25 1.75 -6.0 -0.2 -7.75 -1.15 -7.85 L-2.05 -7.95" fill="#eee2bd" fill-rule="evenodd" stroke="none"/>
      <path d="M-3.85 -0.4 L-4.2 -1.3 Q-4.55 -2.65 -3.55 -4.2 -2.4 -5.95 -2.05 -7.95 L-1.15 -7.85 Q-0.2 -7.75 1.75 -6.0 3.7 -4.25 3.8 -3.3 3.95 -2.4 3.7 -1.9 L3.25 -1.15 2.0 -0.1 Q-1.0 2.15 -3.85 -0.4" fill="#faf2d9" fill-rule="evenodd" stroke="none"/>
      <path d="M-2.05 -7.95 Q-1.9 -8.6 -1.9 -9.3 L-1.65 -10.4 -1.5 -10.65 -1.2 -11.1 -1.0 -11.35 -0.95 -11.35 Q-0.35 -11.9 1.15 -11.8 L2.0 -11.7 3.35 -11.1 3.7 -10.65 3.75 -10.4 3.8 -9.3 Q4.05 -6.2 4.65 -4.9 L4.95 -4.4 Q5.75 -3.25 5.75 -1.6 L5.6 -0.85 Q5.25 0.25 4.15 0.9 2.55 1.75 0.15 1.65 -2.3 1.55 -3.65 -0.15 L-3.85 -0.4 -4.2 -1.3 Q-4.55 -2.65 -3.55 -4.2 -2.4 -5.95 -2.05 -7.95 Z" fill="none" stroke="#000000" stroke-linecap="round" stroke-linejoin="round" stroke-opacity="0.4" stroke-width="0.30000000000000004"/>
    </g>
    <linearGradient gradientTransform="matrix(0.0077, 0.0133, -0.0087, 0.005, 3.3, -15.25)" gradientUnits="userSpaceOnUse" id="decoration178-gradient0" spreadMethod="pad" x1="-819.2" x2="819.2">
      <stop offset="0.0" stop-color="#ee002c"/>
      <stop offset="0.3568627450980392" stop-color="#ca0026"/>
      <stop offset="1.0" stop-color="#950622"/>
    </linearGradient>
  </defs>
</svg>
