<?xml version="1.0" encoding="UTF-8" standalone="no"?>
<svg xmlns:xlink="http://www.w3.org/1999/xlink" height="44.35px" width="45.45px" xmlns="http://www.w3.org/2000/svg">
  <g transform="matrix(1.0, 0.0, 0.0, 1.0, 22.5, 22.4)">
    <use height="44.35" transform="matrix(1.0, 0.0, 0.0, 1.0, -22.5, -22.4)" width="45.45" xlink:href="#decoration179-shape0"/>
  </g>
  <defs>
    <g id="decoration179-shape0" transform="matrix(1.0, 0.0, 0.0, 1.0, 22.5, 22.4)">
      <path d="M4.05 -17.05 L6.1 -14.9 Q6.45 -16.1 6.8 -16.1 7.4 -16.1 7.5 -13.4 L10.4 -9.75 11.7 -10.15 Q24.3 -13.8 11.45 -6.1 L11.95 -5.05 Q12.0 -4.75 13.0 -3.8 14.05 -2.85 13.7 -1.7 13.3 -0.45 11.45 1.0 L8.3 2.95 9.5 4.35 10.7 6.05 17.9 0.8 22.35 -2.6 Q23.25 -2.0 22.8 0.15 L6.95 10.3 5.9 11.5 5.0 12.15 Q6.1 13.05 6.25 14.35 L4.6 14.45 Q4.9 16.45 1.45 15.35 L3.1 17.0 Q0.85 16.55 0.3 16.15 L-1.0 16.35 Q-1.0 18.25 -2.7 19.85 -1.55 18.65 -1.85 17.15 -2.5 19.35 -5.5 20.6 -8.5 21.9 -9.75 21.95 L-6.8 20.1 Q-10.55 21.3 -14.5 20.2 -11.65 20.6 -9.5 19.6 L-14.1 19.75 Q-17.1 19.4 -19.05 16.45 L-17.6 16.45 Q-16.9 16.6 -13.25 14.75 -9.7 12.75 -8.35 12.8 L-10.95 12.2 Q-7.55 11.15 -3.65 12.85 -4.4 11.5 -5.6 10.85 -4.85 11.05 -3.45 11.85 L-2.25 12.5 Q-3.5 11.65 -4.1 10.1 -7.8 10.3 -10.5 6.85 L-12.05 4.4 -12.5 3.35 -14.45 -0.35 Q-16.25 -4.05 -22.5 -5.35 -15.5 -6.75 -11.25 2.25 -8.4 7.2 -4.0 6.55 -4.0 5.05 -1.0 2.35 L2.0 0.05 1.05 -1.35 0.35 -2.25 -1.0 -2.25 -2.45 -2.3 Q-10.8 -0.6 -7.1 -3.7 L-5.65 -4.5 Q-6.9 -6.25 -6.0 -9.1 -5.0 -12.15 -1.85 -12.15 -1.85 -15.85 -3.45 -18.65 -4.35 -20.25 -5.6 -21.4 L-6.8 -22.2 Q-3.2 -23.5 4.05 -17.05" fill="#191412" fill-opacity="0.6" fill-rule="evenodd" stroke="none"/>
    </g>
  </defs>
</svg>
