<?xml version="1.0" encoding="UTF-8" standalone="no"?>
<svg xmlns:xlink="http://www.w3.org/1999/xlink" height="48.35px" width="40.75px" xmlns="http://www.w3.org/2000/svg">
  <g transform="matrix(1.0, 0.0, 0.0, 1.0, 20.7, 48.25)">
    <use height="24.0" transform="matrix(1.0, 0.0, 0.0, 1.0, -7.3, -37.1)" width="19.7" xlink:href="#decoration18-shape0"/>
    <use height="9.5" id="decoration18-Couleur1_E7C3D6" filter="url(#decoration18-filter1)" transform="matrix(-0.2588, 0.9659, -0.9659, -0.2588, 20.0449, -34.8414)" width="8.15" xlink:href="#decoration18-sprite0"/>
    <use height="21.65" transform="matrix(1.0, 0.0, 0.0, 1.0, -20.5, -38.0)" width="36.6" xlink:href="#decoration18-shape2"/>
    <use height="9.5" id="decoration18-Couleur1_E7C3D6" filter="url(#decoration18-filter1)" transform="matrix(0.275, -1.0262, 0.9134, 0.2448, -20.6877, -27.5937)" width="8.15" xlink:href="#decoration18-sprite0"/>
    <use height="22.35" transform="matrix(1.0, 0.0, 0.0, 1.0, -15.7, -39.2)" width="18.2" xlink:href="#decoration18-shape3"/>
    <use height="9.5" id="decoration18-Couleur1_E7C3D6" filter="url(#decoration18-filter1)" transform="matrix(1.1309, -0.3541, 0.2588, 0.9659, -12.2279, -44.2224)" width="8.15" xlink:href="#decoration18-sprite0"/>
    <use height="22.15" transform="matrix(1.0, 0.0, 0.0, 1.0, -4.55, -36.1)" width="11.6" xlink:href="#decoration18-shape4"/>
    <use height="9.5" id="decoration18-Couleur1_E7C3D6" filter="url(#decoration18-filter1)" transform="matrix(1.0, 0.0, 0.0, 1.0, -3.45, -48.25)" width="8.15" xlink:href="#decoration18-sprite0"/>
    <use height="9.5" id="decoration18-Couleur1_E7C3D6" filter="url(#decoration18-filter1)" transform="matrix(0.7071, 0.7071, -0.7071, 0.7071, 13.85, -47.4328)" width="8.15" xlink:href="#decoration18-sprite0"/>
    <use height="9.5" id="decoration18-Couleur1_E7C3D6" filter="url(#decoration18-filter1)" transform="matrix(0.9659, -0.2588, 0.2588, 0.9659, -12.0949, -39.7414)" width="8.15" xlink:href="#decoration18-sprite0"/>
    <use height="20.3" id="decoration18-Couleur0_57703E" filter="url(#decoration18-filter0)" transform="matrix(1.0, 0.0, 0.0, 1.0, -8.75, -20.2)" width="17.8" xlink:href="#decoration18-sprite1"/>
  </g>
  <defs>
    <g id="decoration18-shape0" transform="matrix(1.0, 0.0, 0.0, 1.0, 7.3, 37.1)">
      <path d="M-3.8 -36.9 Q0.05 -28.65 -0.45 -19.5" fill="none" stroke="#263303" stroke-linecap="round" stroke-linejoin="round" stroke-opacity="0.47843137" stroke-width="0.4"/>
      <path d="M3.05 -13.3 L-4.05 -13.3 -7.1 -20.1 Q-4.25 -21.45 0.5 -21.5 5.25 -21.55 7.15 -20.25 L3.05 -13.3" fill="#271d1c" fill-rule="evenodd" stroke="none"/>
      <path d="M3.05 -13.3 L-4.05 -13.3 -7.1 -20.1 Q-4.25 -21.45 0.5 -21.5 5.25 -21.55 7.15 -20.25 L3.05 -13.3 Z" fill="none" stroke="#000000" stroke-linecap="round" stroke-linejoin="round" stroke-opacity="0.3882353" stroke-width="0.4"/>
      <path d="M-1.95 -19.2 L-2.8 -21.2 Q-1.85 -30.95 12.2 -34.25 0.75 -27.95 -0.05 -18.65 L-1.95 -19.2 Q-2.4 -25.0 3.65 -29.6 -2.4 -25.0 -1.95 -19.2" fill="#66770e" fill-rule="evenodd" stroke="none"/>
      <path d="M-1.95 -19.2 L-0.05 -18.65 Q0.75 -27.95 12.2 -34.25 -1.85 -30.95 -2.8 -21.2 L-1.95 -19.2 Q-2.4 -25.0 3.65 -29.6" fill="none" stroke="#000000" stroke-linecap="round" stroke-linejoin="round" stroke-opacity="0.34117648" stroke-width="0.4"/>
      <path d="M10.1 -31.55 Q2.7 -28.05 0.1 -17.1" fill="none" stroke="#263303" stroke-linecap="round" stroke-linejoin="round" stroke-opacity="0.47843137" stroke-width="0.4"/>
    </g>
    <g id="decoration18-sprite0" transform="matrix(1.0, 0.0, 0.0, 1.0, 0.2, 0.2)">
      <use height="9.5" transform="matrix(1.0, 0.0, 0.0, 1.0, -0.2, -0.2)" width="8.15" xlink:href="#decoration18-shape1"/>
    </g>
    <g id="decoration18-shape1" transform="matrix(1.0, 0.0, 0.0, 1.0, 0.2, 0.2)">
      <path d="M3.1 1.75 L3.65 3.65 4.15 5.6 Q3.65 6.45 3.65 7.1 -0.75 5.6 1.15 0.75 2.25 0.55 3.1 1.75" fill="#959491" fill-rule="evenodd" stroke="none"/>
      <path d="M6.05 2.15 L6.35 0.8 Q7.4 1.85 7.65 3.8 L7.75 5.05 Q6.8 8.95 3.65 7.1 3.65 6.45 4.15 5.6 5.45 4.35 6.05 2.15" fill="#807f7d" fill-rule="evenodd" stroke="none"/>
      <path d="M3.65 7.1 Q6.8 8.95 7.75 5.05 7.7 6.45 7.05 7.55 6.35 8.85 5.05 9.05 3.65 8.35 3.65 7.1" fill="#4d4b46" fill-rule="evenodd" stroke="none"/>
      <path d="M3.65 3.65 Q4.85 3.9 6.05 2.15 5.45 4.35 4.15 5.6 L3.65 3.65 M5.05 9.05 Q3.55 9.3 1.85 8.1 -0.1 6.45 0.0 4.0 0.05 1.65 0.35 1.2 L1.15 0.75 Q-0.75 5.6 3.65 7.1 3.65 8.35 5.05 9.05" fill="#54514b" fill-rule="evenodd" stroke="none"/>
      <path d="M6.35 0.8 L6.05 2.15 Q4.85 3.9 3.65 3.65 L3.1 1.75 Q3.45 1.0 4.65 1.5 5.05 0.3 6.35 0.8" fill="#74736f" fill-rule="evenodd" stroke="none"/>
      <path d="M6.35 0.8 Q5.05 0.3 4.65 1.5 3.45 1.0 3.1 1.75 2.25 0.55 1.15 0.75 2.65 -0.05 3.5 1.3 4.3 -1.0 6.35 0.8" fill="#585652" fill-rule="evenodd" stroke="none"/>
      <path d="M6.05 2.15 L6.35 0.8 Q5.05 0.3 4.65 1.5 3.45 1.0 3.1 1.75 L3.65 3.65 M6.05 2.15 Q5.45 4.35 4.15 5.6 3.65 6.45 3.65 7.1 M7.75 5.05 L7.65 3.8 Q7.4 1.85 6.35 0.8 4.3 -1.0 3.5 1.3 2.65 -0.05 1.15 0.75 2.25 0.55 3.1 1.75 M4.15 5.6 L3.65 3.65 M1.15 0.75 L0.35 1.2 Q0.05 1.65 0.0 4.0 -0.1 6.45 1.85 8.1 3.55 9.3 5.05 9.05 3.65 8.35 3.65 7.1 M5.05 9.05 Q6.35 8.85 7.05 7.55 7.7 6.45 7.75 5.05" fill="none" stroke="#000000" stroke-linecap="round" stroke-linejoin="round" stroke-opacity="0.2784314" stroke-width="0.4"/>
    </g>
    <g id="decoration18-shape2" transform="matrix(1.0, 0.0, 0.0, 1.0, 20.5, 38.0)">
      <path d="M12.95 -26.95 L15.55 -28.65 Q16.25 -25.35 15.55 -22.55 14.8 -26.3 12.95 -26.95" fill="#738324" fill-rule="evenodd" stroke="none"/>
      <path d="M15.55 -28.65 L12.95 -26.95 Q8.35 -23.55 3.4 -16.95 4.15 -20.45 7.7 -24.45 10.45 -27.85 13.25 -28.65 L15.55 -28.65" fill="#94a636" fill-rule="evenodd" stroke="none"/>
      <path d="M13.25 -28.65 Q10.45 -27.85 7.7 -24.45 4.15 -20.45 3.4 -16.95 L3.4 -18.9 Q7.3 -28.2 13.25 -31.65 L13.25 -28.65" fill="#7e911e" fill-rule="evenodd" stroke="none"/>
      <path d="M15.55 -28.65 L12.95 -26.95 Q14.8 -26.3 15.55 -22.55 16.25 -25.35 15.55 -28.65 L13.25 -28.65 Q10.45 -27.85 7.7 -24.45 M3.4 -16.95 Q8.35 -23.55 12.95 -26.95 M3.4 -18.9 Q7.3 -28.2 13.25 -31.65 L13.25 -28.65 M3.4 -16.95 L3.4 -18.9" fill="none" stroke="#000000" stroke-linecap="round" stroke-linejoin="round" stroke-opacity="0.2784314" stroke-width="0.4"/>
      <path d="M3.4 -18.9 Q4.65 -27.0 8.25 -33.85 L10.55 -37.8" fill="none" stroke="#263303" stroke-linecap="round" stroke-linejoin="round" stroke-opacity="0.47843137" stroke-width="0.4"/>
      <path d="M-3.4 -16.55 Q-7.0 -28.4 -20.3 -36.5 -5.3 -32.25 -1.4 -19.8 L-1.65 -17.25 -3.4 -16.55 M-10.4 -30.6 Q-2.95 -24.65 -1.65 -17.25 -2.95 -24.65 -10.4 -30.6" fill="#66770e" fill-rule="evenodd" stroke="none"/>
      <path d="M-3.4 -16.55 Q-7.0 -28.4 -20.3 -36.5 -5.3 -32.25 -1.4 -19.8 L-1.65 -17.25 -3.4 -16.55 M-1.65 -17.25 Q-2.95 -24.65 -10.4 -30.6" fill="none" stroke="#000000" stroke-linecap="round" stroke-linejoin="round" stroke-opacity="0.34117648" stroke-width="0.4"/>
      <path d="M-11.0 -30.65 Q-3.5 -27.4 -0.6 -16.55" fill="none" stroke="#263303" stroke-linecap="round" stroke-linejoin="round" stroke-opacity="0.47843137" stroke-width="0.4"/>
    </g>
    <g id="decoration18-shape3" transform="matrix(1.0, 0.0, 0.0, 1.0, 15.7, 39.2)">
      <path d="M-15.15 -25.85 L-12.35 -26.2 Q-9.0 -25.7 -5.7 -23.15 -1.3 -20.05 -0.4 -17.05 -6.5 -22.15 -12.05 -24.65 L-15.15 -25.85" fill="#94a636" fill-rule="evenodd" stroke="none"/>
      <path d="M-0.4 -17.05 Q-1.3 -20.05 -5.7 -23.15 -9.0 -25.7 -12.35 -26.2 L-12.5 -28.7 Q-5.55 -26.55 -0.8 -19.35 L-0.4 -18.75 -0.4 -17.05" fill="#7e911e" fill-rule="evenodd" stroke="none"/>
      <path d="M-15.15 -25.85 L-12.05 -24.65 Q-14.2 -23.85 -15.0 -20.6 -15.95 -22.9 -15.15 -25.85" fill="#738324" fill-rule="evenodd" stroke="none"/>
      <path d="M-12.35 -26.2 L-15.15 -25.85 -12.05 -24.65 Q-6.5 -22.15 -0.4 -17.05 M-5.7 -23.15 Q-9.0 -25.7 -12.35 -26.2 L-12.5 -28.7 Q-5.55 -26.55 -0.8 -19.35 M-0.4 -18.75 L-0.4 -17.05 M-15.15 -25.85 Q-15.95 -22.9 -15.0 -20.6 -14.2 -23.85 -12.05 -24.65" fill="none" stroke="#000000" stroke-linecap="round" stroke-linejoin="round" stroke-opacity="0.2784314" stroke-width="0.4"/>
      <path d="M-0.8 -19.35 L-0.4 -18.75" fill="none" stroke="#263303" stroke-linecap="round" stroke-linejoin="round" stroke-opacity="0.47843137" stroke-width="0.4"/>
      <path d="M1.8 -39.0 Q3.2 -29.05 0.6 -19.15" fill="none" stroke="#263303" stroke-linecap="round" stroke-linejoin="round" stroke-opacity="0.47843137" stroke-width="0.4"/>
    </g>
    <g id="decoration18-shape4" transform="matrix(1.0, 0.0, 0.0, 1.0, 4.55, 36.1)">
      <path d="M-4.35 -32.45 Q-0.1 -24.0 0.3 -14.15" fill="none" stroke="#263303" stroke-linecap="round" stroke-linejoin="round" stroke-opacity="0.47843137" stroke-width="0.4"/>
      <path d="M1.35 -15.55 L0.2 -17.85 Q0.15 -27.45 6.85 -35.9 3.55 -25.6 3.2 -15.55 L1.35 -15.55 Q1.2 -21.05 2.9 -26.2 1.2 -21.05 1.35 -15.55" fill="#94a636" fill-rule="evenodd" stroke="none"/>
      <path d="M1.35 -15.55 L3.2 -15.55 Q3.55 -25.6 6.85 -35.9 0.15 -27.45 0.2 -17.85 L1.35 -15.55 Q1.2 -21.05 2.9 -26.2 M0.25 -15.8 L0.2 -17.85" fill="none" stroke="#000000" stroke-linecap="round" stroke-linejoin="round" stroke-opacity="0.34117648" stroke-width="0.4"/>
    </g>
    <g id="decoration18-sprite1" transform="matrix(1.0, 0.0, 0.0, 1.0, 0.2, 0.2)">
      <use height="20.3" transform="matrix(1.0, 0.0, 0.0, 1.0, -0.2, -0.2)" width="17.8" xlink:href="#decoration18-shape5"/>
    </g>
    <g id="decoration18-shape5" transform="matrix(1.0, 0.0, 0.0, 1.0, 0.2, 0.2)">
      <path d="M0.2 10.25 L0.0 7.75 Q0.0 3.35 1.75 0.0 L5.1 0.75 9.35 0.95 13.1 0.65 15.65 0.0 Q16.55 1.75 17.0 3.8 14.55 16.15 7.35 16.0 1.3 15.5 0.2 10.25" fill="url(#decoration18-gradient0)" fill-rule="evenodd" stroke="none"/>
      <path d="M17.0 3.8 Q17.4 5.65 17.4 7.75 L17.1 11.65 Q13.6 18.05 8.6 18.6 5.65 19.15 3.05 16.95 L2.75 16.6 Q0.65 13.9 0.2 10.25 1.3 15.5 7.35 16.0 14.55 16.15 17.0 3.8" fill="#464240" fill-rule="evenodd" stroke="none"/>
      <path d="M17.1 11.65 Q16.6 14.4 15.45 16.45 13.9 19.05 12.6 19.55 L10.65 19.9 5.4 19.6 3.05 16.95 Q5.65 19.15 8.6 18.6 13.6 18.05 17.1 11.65" fill="#666666" fill-rule="evenodd" stroke="none"/>
      <path d="M17.0 3.8 Q17.4 5.65 17.4 7.75 L17.1 11.65 Q16.6 14.4 15.45 16.45 13.9 19.05 12.6 19.55 L10.65 19.9 5.4 19.6 3.05 16.95 2.75 16.6 Q0.65 13.9 0.2 10.25 L0.0 7.75 Q0.0 3.35 1.75 0.0 L5.1 0.75 9.35 0.95 13.1 0.65 15.65 0.0 Q16.55 1.75 17.0 3.8 Z" fill="none" stroke="#000000" stroke-linecap="round" stroke-linejoin="round" stroke-opacity="0.3882353" stroke-width="0.4"/>
    </g>
    <radialGradient cx="0" cy="0" gradientTransform="matrix(0.0129, 0.0, 0.0, 0.0189, 7.0, 5.45)" gradientUnits="userSpaceOnUse" id="decoration18-gradient0" r="819.2" spreadMethod="pad">
      <stop offset="0.0" stop-color="#8e8d8d"/>
      <stop offset="1.0" stop-color="#514e4d"/>
    </radialGradient>
  </defs>
</svg>
