<?xml version="1.0" encoding="UTF-8" standalone="no"?>
<svg xmlns:xlink="http://www.w3.org/1999/xlink" height="26.8px" width="25.35px" xmlns="http://www.w3.org/2000/svg">
  <g transform="matrix(1.0, 0.0, 0.0, 1.0, 12.7, 26.65)">
    <use height="26.8" transform="matrix(1.0, 0.0, 0.0, 1.0, -12.7, -26.65)" width="25.35" xlink:href="#decoration180-shape0"/>
  </g>
  <defs>
    <g id="decoration180-shape0" transform="matrix(1.0, 0.0, 0.0, 1.0, 12.7, 26.65)">
      <path d="M-10.6 -11.75 L-11.05 -12.05 Q-13.1 -13.2 -12.55 -15.35 L-11.85 -15.5 Q-11.0 -15.5 -10.4 -14.9 -9.85 -14.35 -9.75 -13.6 L-9.75 -13.45 Q-9.75 -12.55 -10.4 -12.0 L-10.6 -11.75 M-8.05 -23.15 L-7.2 -24.1 Q-6.3 -25.15 -4.85 -25.8 -4.4 -25.2 -4.4 -24.5 -4.4 -23.65 -5.05 -23.05 -5.6 -22.4 -6.45 -22.4 -7.3 -22.4 -7.95 -23.05 L-8.05 -23.15 M4.0 -26.05 Q6.15 -25.45 7.7 -24.15 L7.35 -23.75 Q6.75 -23.15 5.9 -23.15 5.05 -23.15 4.4 -23.75 3.85 -24.35 3.85 -25.2 L4.0 -26.05 M2.0 -20.55 Q2.0 -19.7 1.4 -19.15 0.8 -18.5 -0.05 -18.5 -0.9 -18.5 -1.55 -19.15 -2.1 -19.7 -2.1 -20.55 -2.1 -21.45 -1.55 -22.05 -0.9 -22.65 -0.05 -22.65 0.8 -22.65 1.4 -22.05 2.0 -21.45 2.0 -20.55 M-6.8 -18.9 Q-5.95 -18.9 -5.4 -18.35 -4.75 -17.7 -4.75 -16.85 -4.75 -16.0 -5.4 -15.4 -5.95 -14.8 -6.8 -14.8 -7.65 -14.8 -8.3 -15.4 -8.9 -16.0 -8.9 -16.85 -8.9 -17.7 -8.3 -18.35 -7.65 -18.9 -6.8 -18.9" fill="#faf2d9" fill-rule="evenodd" stroke="none"/>
      <path d="M12.6 -14.1 Q12.4 -12.15 10.05 -11.25 9.9 -11.65 9.9 -12.1 9.9 -13.0 10.45 -13.6 11.1 -14.2 11.95 -14.2 L12.6 -14.1 M6.9 -19.5 Q7.75 -19.5 8.3 -18.9 8.95 -18.3 8.95 -17.45 8.95 -16.55 8.3 -16.0 7.75 -15.35 6.9 -15.35 6.05 -15.35 5.45 -15.95 L5.4 -16.0 Q4.85 -16.55 4.85 -17.45 4.85 -18.3 5.4 -18.9 6.05 -19.5 6.9 -19.5" fill="#eee2bd" fill-rule="evenodd" stroke="none"/>
      <path d="M8.2 -23.7 L8.8 -23.0 Q11.25 -19.75 12.4 -15.85 L12.6 -14.1 11.95 -14.2 Q11.1 -14.2 10.45 -13.6 9.9 -13.0 9.9 -12.1 9.9 -11.65 10.05 -11.25 L8.85 -10.95 Q4.15 -9.95 0.55 -10.0 L-8.65 -11.2 -8.9 -11.2 -10.6 -11.75 -10.4 -12.0 Q-9.75 -12.55 -9.75 -13.45 -8.55 -11.5 5.45 -15.95 6.05 -15.35 6.9 -15.35 7.75 -15.35 8.3 -16.0 8.95 -16.55 8.95 -17.45 8.95 -18.3 8.3 -18.9 7.75 -19.5 6.9 -19.5 8.8 -21.75 8.2 -23.7" fill="#a2001e" fill-rule="evenodd" stroke="none"/>
      <path d="M7.7 -24.15 L8.2 -23.7 Q8.8 -21.75 6.9 -19.5 6.05 -19.5 5.4 -18.9 4.85 -18.3 4.85 -17.45 4.85 -16.55 5.4 -16.0 L5.45 -15.95 Q-8.55 -11.5 -9.75 -13.45 L-9.75 -13.6 Q-9.85 -14.35 -10.4 -14.9 -11.0 -15.5 -11.85 -15.5 L-12.55 -15.35 -12.0 -16.8 Q-10.1 -20.55 -8.05 -23.15 L-7.95 -23.05 Q-7.3 -22.4 -6.45 -22.4 -5.6 -22.4 -5.05 -23.05 -4.4 -23.65 -4.4 -24.5 -4.4 -25.2 -4.85 -25.8 -2.6 -26.8 0.8 -26.55 L4.0 -26.05 3.85 -25.2 Q3.85 -24.35 4.4 -23.75 5.05 -23.15 5.9 -23.15 6.75 -23.15 7.35 -23.75 L7.7 -24.15 M2.0 -20.55 Q2.0 -21.45 1.4 -22.05 0.8 -22.65 -0.05 -22.65 -0.9 -22.65 -1.55 -22.05 -2.1 -21.45 -2.1 -20.55 -2.1 -19.7 -1.55 -19.15 -0.9 -18.5 -0.05 -18.5 0.8 -18.5 1.4 -19.15 2.0 -19.7 2.0 -20.55 M-6.8 -18.9 Q-7.65 -18.9 -8.3 -18.35 -8.9 -17.7 -8.9 -16.85 -8.9 -16.0 -8.3 -15.4 -7.65 -14.8 -6.8 -14.8 -5.95 -14.8 -5.4 -15.4 -4.75 -16.0 -4.75 -16.85 -4.75 -17.7 -5.4 -18.35 -5.95 -18.9 -6.8 -18.9" fill="url(#decoration180-gradient0)" fill-rule="evenodd" stroke="none"/>
      <path d="M7.7 -24.15 L8.2 -23.7 8.8 -23.0 Q11.25 -19.75 12.4 -15.85 L12.6 -14.1 Q12.4 -12.15 10.05 -11.25 L8.85 -10.95 Q4.15 -9.95 0.55 -10.0 L-8.65 -11.2 -8.9 -11.2 -10.6 -11.75 -11.05 -12.05 Q-13.1 -13.2 -12.55 -15.35 L-12.0 -16.8 Q-10.1 -20.55 -8.05 -23.15 L-7.2 -24.1 Q-6.3 -25.15 -4.85 -25.8 -2.6 -26.8 0.8 -26.55 L4.0 -26.05 Q6.15 -25.45 7.7 -24.15 Z" fill="none" stroke="#000000" stroke-linecap="round" stroke-linejoin="round" stroke-opacity="0.29803923" stroke-width="0.1"/>
      <path d="M-2.75 -10.85 L-6.15 -11.1 Q-8.35 -11.45 -8.45 -11.9 L-8.45 -11.95 -8.4 -12.1 Q-8.15 -12.45 -6.35 -12.8 L-5.3 -13.0 -2.35 -13.3 0.35 -13.3 1.2 -13.3 2.6 -13.3 4.4 -13.25 6.3 -13.0 Q9.05 -12.75 9.2 -12.2 L9.2 -12.0 Q9.0 -11.45 6.7 -11.1 L2.95 -10.85 2.9 -11.6 2.85 -11.8 2.5 -12.1 1.15 -12.5 0.3 -12.55 -1.8 -12.25 -1.85 -12.25 -2.05 -12.1 -2.35 -11.8 -2.5 -11.6 -2.75 -10.85 M-2.05 -12.1 L-5.3 -13.0 -2.05 -12.1 M-8.45 -11.9 L-2.5 -11.6 -8.45 -11.9 M6.3 -13.0 L2.5 -12.1 6.3 -13.0 M2.9 -11.6 L9.2 -12.0 2.9 -11.6 M0.3 -12.55 L0.35 -13.3 0.3 -12.55" fill="#eee2bd" fill-rule="evenodd" stroke="none"/>
      <path d="M-2.75 -10.85 L-6.15 -11.1 Q-8.35 -11.45 -8.45 -11.9 L-8.45 -11.95 -8.4 -12.1 Q-8.15 -12.45 -6.35 -12.8 L-5.3 -13.0 -2.35 -13.3 0.35 -13.3 1.2 -13.3 2.6 -13.3 4.4 -13.25 6.3 -13.0 Q9.05 -12.75 9.2 -12.2 L9.2 -12.0 Q9.0 -11.45 6.7 -11.1 L2.95 -10.85 M0.35 -13.3 L0.3 -12.55 M9.2 -12.0 L2.9 -11.6 M2.5 -12.1 L6.3 -13.0 M-2.5 -11.6 L-8.45 -11.9 M-5.3 -13.0 L-2.05 -12.1" fill="none" stroke="#000000" stroke-linecap="round" stroke-linejoin="round" stroke-opacity="0.29803923" stroke-width="0.1"/>
      <path d="M-2.9 -9.5 Q-2.75 -10.15 -2.75 -10.85 L-2.5 -11.95 -2.35 -12.2 -2.05 -12.65 -1.85 -12.9 -1.8 -12.9 Q-1.2 -13.45 0.3 -13.35 L1.15 -13.25 Q2.05 -13.1 2.5 -12.65 L2.85 -12.2 2.9 -11.95 2.95 -10.85 Q3.2 -7.75 3.8 -6.45 L4.1 -5.95 Q4.9 -4.8 4.9 -3.15 L4.75 -2.4 Q4.4 -1.3 3.3 -0.65 1.7 0.2 -0.7 0.1 -3.15 0.0 -4.5 -1.7 L-4.7 -1.95 Q-1.85 0.6 1.15 -1.65 L2.4 -2.7 2.85 -3.45 Q3.1 -3.95 2.95 -4.85 2.85 -5.8 0.9 -7.55 -1.05 -9.3 -2.0 -9.4 L-2.9 -9.5" fill="#eee2bd" fill-rule="evenodd" stroke="none"/>
      <path d="M-4.7 -1.95 L-5.05 -2.85 Q-5.4 -4.2 -4.4 -5.75 -3.25 -7.5 -2.9 -9.5 L-2.0 -9.4 Q-1.05 -9.3 0.9 -7.55 2.85 -5.8 2.95 -4.85 3.1 -3.95 2.85 -3.45 L2.4 -2.7 1.15 -1.65 Q-1.85 0.6 -4.7 -1.95" fill="#faf2d9" fill-rule="evenodd" stroke="none"/>
      <path d="M-2.9 -9.5 Q-2.75 -10.15 -2.75 -10.85 L-2.5 -11.95 -2.35 -12.2 -2.05 -12.65 -1.85 -12.9 -1.8 -12.9 Q-1.2 -13.45 0.3 -13.35 L1.15 -13.25 Q2.05 -13.1 2.5 -12.65 L2.85 -12.2 2.9 -11.95 2.95 -10.85 Q3.2 -7.75 3.8 -6.45 L4.1 -5.95 Q4.9 -4.8 4.9 -3.15 L4.75 -2.4 Q4.4 -1.3 3.3 -0.65 1.7 0.2 -0.7 0.1 -3.15 0.0 -4.5 -1.7 L-4.7 -1.95 -5.05 -2.85 Q-5.4 -4.2 -4.4 -5.75 -3.25 -7.5 -2.9 -9.5 Z" fill="none" stroke="#000000" stroke-linecap="round" stroke-linejoin="round" stroke-opacity="0.29803923" stroke-width="0.1"/>
    </g>
    <linearGradient gradientTransform="matrix(0.0077, 0.0133, -0.0087, 0.005, 2.65, -17.0)" gradientUnits="userSpaceOnUse" id="decoration180-gradient0" spreadMethod="pad" x1="-819.2" x2="819.2">
      <stop offset="0.0" stop-color="#ee002c"/>
      <stop offset="0.3568627450980392" stop-color="#ca0026"/>
      <stop offset="1.0" stop-color="#950622"/>
    </linearGradient>
  </defs>
</svg>
