<?xml version="1.0" encoding="UTF-8" standalone="no"?>
<svg xmlns:ffdec="https://www.free-decompiler.com/flash" xmlns:xlink="http://www.w3.org/1999/xlink" ffdec:objectType="frame" height="39.1px" width="90.2px" xmlns="http://www.w3.org/2000/svg">
  <g transform="matrix(1.0, 0.0, 0.0, 1.0, 45.15, 39.0)">
    <use ffdec:characterId="222" height="25.15" transform="matrix(0.387, 0.0, 0.0, 0.387, -45.1435, -26.0935)" width="233.0" xlink:href="#decoration181-sprite0"/>
    <use ffdec:characterId="224" height="99.5" transform="matrix(-0.387, 0.0, 0.0, 0.387, -26.9565, -38.9935)" width="40.0" xlink:href="#decoration181-sprite1"/>
    <use ffdec:characterId="226" height="99.5" transform="matrix(0.387, 0.0, 0.0, 0.387, -20.0935, -38.3935)" width="40.0" xlink:href="#decoration181-sprite2"/>
    <use ffdec:characterId="228" height="99.5" transform="matrix(-0.387, 0.0, 0.0, 0.387, 19.1435, -38.3935)" width="40.0" xlink:href="#decoration181-sprite3"/>
    <use ffdec:characterId="230" height="99.5" transform="matrix(0.387, 0.0, 0.0, 0.387, 25.6065, -38.9935)" width="40.0" xlink:href="#decoration181-sprite4"/>
  </g>
  <defs>
    <g id="decoration181-sprite0" transform="matrix(1.0, 0.0, 0.0, 1.0, 0.5, 0.5)">
      <use ffdec:characterId="221" height="25.15" transform="matrix(1.0, 0.0, 0.0, 1.0, -0.5, -0.5)" width="233.0" xlink:href="#decoration181-shape0"/>
    </g>
    <g id="decoration181-shape0" transform="matrix(1.0, 0.0, 0.0, 1.0, 0.5, 0.5)">
      <path d="M210.25 0.0 L213.45 0.0 Q224.7 5.8 232.0 7.35 L232.0 24.15 166.35 23.3 154.2 21.95 130.35 20.8 Q115.85 21.95 87.55 18.55 48.2 11.6 38.55 16.8 31.55 22.2 10.85 24.0 L0.05 24.0 Q-0.25 15.2 0.0 6.8 6.1 13.6 27.05 8.8 50.0 3.3 61.55 6.8 99.4 8.35 104.6 0.0 L124.85 0.0 Q159.45 6.95 178.6 4.8 196.55 0.25 210.25 0.0 M180.1 15.15 Q191.15 13.6 191.15 12.55 191.15 11.5 181.05 9.85 170.9 8.2 148.4 10.5 125.9 12.75 114.1 11.6 102.3 10.4 101.95 12.0 101.6 13.55 112.55 15.15 L146.25 16.7 180.1 15.15" fill="url(#decoration181-gradient0)" fill-rule="evenodd" stroke="none"/>
      <path d="M210.25 0.0 Q196.55 0.25 178.6 4.8 159.45 6.95 124.85 0.0 L210.25 0.0 M104.6 0.0 Q99.4 8.35 61.55 6.8 50.0 3.3 27.05 8.8 6.1 13.6 0.0 6.8 L0.0 0.0 104.6 0.0 M10.85 24.0 Q31.55 22.2 38.55 16.8 48.2 11.6 87.55 18.55 115.85 21.95 130.35 20.8 L154.2 21.95 166.35 23.3 10.85 24.0 M232.0 7.35 Q224.7 5.8 213.45 0.0 L232.0 0.0 232.0 7.35 M180.1 15.15 L146.25 16.7 112.55 15.15 Q101.6 13.55 101.95 12.0 102.3 10.4 114.1 11.6 125.9 12.75 148.4 10.5 170.9 8.2 181.05 9.85 191.15 11.5 191.15 12.55 191.15 13.6 180.1 15.15" fill="#b68b62" fill-rule="evenodd" stroke="none"/>
      <path d="M213.45 0.0 L210.25 0.0 124.85 0.0 104.6 0.0 0.0 0.0 M0.05 24.0 L10.85 24.0 166.35 23.3 232.0 24.15 M213.45 0.0 L232.0 0.0" fill="none" stroke="#000000" stroke-linecap="round" stroke-linejoin="round" stroke-opacity="0.4" stroke-width="1.0"/>
      <path d="M20.0 5.05 L56.9 5.05" fill="none" stroke="#000000" stroke-linecap="round" stroke-linejoin="round" stroke-opacity="0.2" stroke-width="1.0"/>
      <path d="M36.5 8.1 L68.1 8.1" fill="none" stroke="#000000" stroke-linecap="round" stroke-linejoin="round" stroke-opacity="0.2" stroke-width="1.0"/>
      <path d="M87.55 18.55 L116.7 18.55" fill="none" stroke="#000000" stroke-linecap="round" stroke-linejoin="round" stroke-opacity="0.2" stroke-width="1.0"/>
      <path d="M99.55 14.5 L123.4 14.5" fill="none" stroke="#000000" stroke-linecap="round" stroke-linejoin="round" stroke-opacity="0.2" stroke-width="1.0"/>
      <path d="M165.5 5.3 L203.3 5.3" fill="none" stroke="#000000" stroke-linecap="round" stroke-linejoin="round" stroke-opacity="0.2" stroke-width="1.0"/>
      <path d="M179.95 9.65 L210.55 9.65" fill="none" stroke="#000000" stroke-linecap="round" stroke-linejoin="round" stroke-opacity="0.2" stroke-width="1.0"/>
    </g>
    <linearGradient gradientTransform="matrix(0.0709, 0.0, 0.0, 0.0146, 56.0, 10.5)" gradientUnits="userSpaceOnUse" id="decoration181-gradient0" spreadMethod="reflect" x1="-819.2" x2="819.2">
      <stop offset="0.25882352941176473" stop-color="#956a40"/>
      <stop offset="1.0" stop-color="#ac7d53"/>
    </linearGradient>
    <g id="decoration181-sprite1" transform="matrix(1.0, 0.0, 0.0, 1.0, 0.5, 0.5)">
      <use ffdec:characterId="223" height="99.5" transform="matrix(1.0, 0.0, 0.0, 1.0, -0.5, -0.5)" width="40.0" xlink:href="#decoration181-shape1"/>
    </g>
    <g id="decoration181-shape1" transform="matrix(1.0, 0.0, 0.0, 1.0, 0.5, 0.5)">
      <path d="M38.2 24.85 L37.9 28.3 Q4.15 8.4 1.9 29.9 L0.0 15.0 2.0 12.5 Q4.5 9.85 8.65 6.9 17.15 6.8 25.45 12.5 31.85 16.95 38.2 24.85" fill="url(#decoration181-gradient1)" fill-rule="evenodd" stroke="none"/>
      <path d="M5.25 56.5 L4.45 50.1 Q19.85 47.65 3.2 40.45 L2.6 35.45 Q29.9 42.35 5.25 56.5" fill="url(#decoration181-gradient2)" fill-rule="evenodd" stroke="none"/>
      <path d="M33.8 77.0 L32.8 88.85 Q9.45 78.7 33.8 77.0" fill="url(#decoration181-gradient3)" fill-rule="evenodd" stroke="none"/>
      <path d="M4.45 50.1 L3.2 40.45 Q19.85 47.65 4.45 50.1" fill="#6a401a" fill-rule="evenodd" stroke="none"/>
      <path d="M36.85 40.8 L33.8 77.0 Q9.45 78.7 32.8 88.85 L32.0 98.5 21.25 98.25 18.3 92.0 Q6.5 65.45 20.0 58.5 33.15 52.4 36.85 40.8" fill="url(#decoration181-gradient4)" fill-rule="evenodd" stroke="none"/>
      <path d="M37.9 28.3 L37.9 28.35 Q17.4 57.9 5.95 62.1 L5.25 56.5 Q29.9 42.35 2.6 35.45 L1.9 29.9 Q4.15 8.4 37.9 28.3" fill="url(#decoration181-gradient5)" fill-rule="evenodd" stroke="none"/>
      <path d="M8.65 6.9 Q13.3 3.65 20.0 0.0 31.95 6.25 37.2 12.5 L39.0 15.0 38.2 24.85 Q31.85 16.95 25.45 12.5 17.15 6.8 8.65 6.9" fill="url(#decoration181-gradient6)" fill-rule="evenodd" stroke="none"/>
      <path d="M37.9 28.35 L36.85 40.8 Q33.15 52.4 20.0 58.5 6.5 65.45 18.3 92.0 L21.25 98.25 10.5 98.0 5.95 62.1 Q17.4 57.9 37.9 28.35" fill="url(#decoration181-gradient7)" fill-rule="evenodd" stroke="none"/>
      <path d="M8.65 6.9 Q13.3 3.65 20.0 0.0 31.95 6.25 37.2 12.5 L39.0 15.0 38.2 24.85 37.9 28.3 37.9 28.35 36.85 40.8 33.8 77.0 32.8 88.85 32.0 98.5 21.25 98.25 10.5 98.0 5.95 62.1 5.25 56.5 4.45 50.1 3.2 40.45 2.6 35.45 1.9 29.9 0.0 15.0 2.0 12.5 Q4.5 9.85 8.65 6.9 Z" fill="none" stroke="#000000" stroke-linecap="round" stroke-linejoin="round" stroke-opacity="0.4" stroke-width="1.0"/>
      <path d="M8.25 25.0 L8.0 37.05" fill="none" stroke="#000000" stroke-linecap="round" stroke-linejoin="round" stroke-opacity="0.2" stroke-width="1.0"/>
      <path d="M11.25 26.75 L11.25 41.75" fill="none" stroke="#000000" stroke-linecap="round" stroke-linejoin="round" stroke-opacity="0.2" stroke-width="1.0"/>
      <path d="M26.0 66.0 L26.0 78.0" fill="none" stroke="#000000" stroke-linecap="round" stroke-linejoin="round" stroke-opacity="0.2" stroke-width="1.0"/>
      <path d="M29.75 60.5 L29.75 72.75" fill="none" stroke="#000000" stroke-linecap="round" stroke-linejoin="round" stroke-opacity="0.2" stroke-width="1.0"/>
    </g>
    <linearGradient gradientTransform="matrix(0.0233, 0.0, 0.0, 0.014, 19.1, 18.4)" gradientUnits="userSpaceOnUse" id="decoration181-gradient1" spreadMethod="pad" x1="-819.2" x2="819.2">
      <stop offset="0.0" stop-color="#7d5732"/>
      <stop offset="1.0" stop-color="#9a6533"/>
    </linearGradient>
    <linearGradient gradientTransform="matrix(0.0053, -0.0014, 0.0033, 0.0124, 8.15, 48.2)" gradientUnits="userSpaceOnUse" id="decoration181-gradient2" spreadMethod="pad" x1="-819.2" x2="819.2">
      <stop offset="0.0" stop-color="#7d5732"/>
      <stop offset="1.0" stop-color="#9a6533"/>
    </linearGradient>
    <radialGradient cx="0" cy="0" gradientTransform="matrix(0.0122, 0.0, 0.0, 0.0122, 34.25, 82.75)" gradientUnits="userSpaceOnUse" id="decoration181-gradient3" r="819.2" spreadMethod="pad">
      <stop offset="0.0" stop-color="#7d5732"/>
      <stop offset="1.0" stop-color="#9a6533"/>
    </radialGradient>
    <linearGradient gradientTransform="matrix(0.0053, -0.0199, 0.034, 0.0091, 23.25, 75.75)" gradientUnits="userSpaceOnUse" id="decoration181-gradient4" spreadMethod="pad" x1="-819.2" x2="819.2">
      <stop offset="0.0" stop-color="#6a401a"/>
      <stop offset="1.0" stop-color="#7e4e20"/>
    </linearGradient>
    <radialGradient cx="0" cy="0" gradientTransform="matrix(0.0245, 0.0, 0.0, 0.0245, 33.75, 32.0)" gradientUnits="userSpaceOnUse" id="decoration181-gradient5" r="819.2" spreadMethod="pad">
      <stop offset="0.0" stop-color="#7e4e20"/>
      <stop offset="1.0" stop-color="#6a401a"/>
    </radialGradient>
    <linearGradient gradientTransform="matrix(-0.0131, -0.0131, 0.0107, -0.0107, 23.75, 12.5)" gradientUnits="userSpaceOnUse" id="decoration181-gradient6" spreadMethod="pad" x1="-819.2" x2="819.2">
      <stop offset="0.0" stop-color="#7e4e20"/>
      <stop offset="1.0" stop-color="#6a401a"/>
    </linearGradient>
    <linearGradient gradientTransform="matrix(0.0288, -0.0077, 0.011, 0.0412, 21.9, 63.3)" gradientUnits="userSpaceOnUse" id="decoration181-gradient7" spreadMethod="pad" x1="-819.2" x2="819.2">
      <stop offset="0.0" stop-color="#7d5732"/>
      <stop offset="1.0" stop-color="#9a6533"/>
    </linearGradient>
    <g id="decoration181-sprite2" transform="matrix(1.0, 0.0, 0.0, 1.0, 0.5, 0.5)">
      <use ffdec:characterId="225" height="99.5" transform="matrix(1.0, 0.0, 0.0, 1.0, -0.5, -0.5)" width="40.0" xlink:href="#decoration181-shape2"/>
    </g>
    <g id="decoration181-shape2" transform="matrix(1.0, 0.0, 0.0, 1.0, 0.5, 0.5)">
      <path d="M27.4 4.3 Q35.7 9.65 39.0 15.0 L34.7 66.4 Q28.5 96.9 9.75 72.95 18.6 71.35 27.3 64.0 36.2 56.45 33.8 47.3 31.35 38.15 24.8 32.3 18.25 26.4 9.25 26.45 5.25 26.45 1.65 27.9 L1.55 27.0 Q26.3 24.35 27.4 4.3" fill="url(#decoration181-gradient8)" fill-rule="evenodd" stroke="none"/>
      <path d="M0.0 15.0 Q4.35 8.45 20.0 0.0 22.35 1.2 24.45 2.45 6.45 32.25 0.0 15.0" fill="url(#decoration181-gradient9)" fill-rule="evenodd" stroke="none"/>
      <path d="M7.05 70.4 L3.05 39.2 Q5.15 37.5 7.8 35.75 14.55 31.1 21.0 40.4 27.4 49.65 26.1 55.1 24.75 60.45 19.9 65.5 15.0 70.5 9.0 70.5 L7.05 70.4" fill="url(#decoration181-gradient10)" fill-rule="evenodd" stroke="none"/>
      <path d="M32.9 87.85 L32.0 98.5 10.5 98.0 7.95 77.65 Q11.05 96.8 32.9 87.85" fill="url(#decoration181-gradient11)" fill-rule="evenodd" stroke="none"/>
      <path d="M34.7 66.4 L32.9 87.85 Q11.05 96.8 7.95 77.65 L7.05 70.4 9.0 70.5 Q15.0 70.5 19.9 65.5 24.75 60.45 26.1 55.1 27.4 49.65 21.0 40.4 14.55 31.1 7.8 35.75 5.15 37.5 3.05 39.2 L1.65 27.9 Q5.25 26.45 9.25 26.45 18.25 26.4 24.8 32.3 31.35 38.15 33.8 47.3 36.2 56.45 27.3 64.0 18.6 71.35 9.75 72.95 28.5 96.9 34.7 66.4" fill="url(#decoration181-gradient12)" fill-rule="evenodd" stroke="none"/>
      <path d="M24.45 2.45 L27.4 4.3 Q26.3 24.35 1.55 27.0 L0.0 15.0 Q6.45 32.25 24.45 2.45" fill="url(#decoration181-gradient13)" fill-rule="evenodd" stroke="none"/>
      <path d="M24.45 2.45 L27.4 4.3 Q35.7 9.65 39.0 15.0 L34.7 66.4 32.9 87.85 32.0 98.5 10.5 98.0 7.95 77.65 7.05 70.4 3.05 39.2 1.65 27.9 1.55 27.0 0.0 15.0 Q4.35 8.45 20.0 0.0 22.35 1.2 24.45 2.45 Z" fill="none" stroke="#000000" stroke-linecap="round" stroke-linejoin="round" stroke-opacity="0.4" stroke-width="1.0"/>
      <path d="M10.55 39.3 L10.55 56.55" fill="none" stroke="#000000" stroke-linecap="round" stroke-linejoin="round" stroke-opacity="0.2" stroke-width="1.0"/>
      <path d="M14.8 46.05 L14.8 63.05" fill="none" stroke="#000000" stroke-linecap="round" stroke-linejoin="round" stroke-opacity="0.2" stroke-width="1.0"/>
      <path d="M28.55 13.3 L28.55 29.8" fill="none" stroke="#000000" stroke-linecap="round" stroke-linejoin="round" stroke-opacity="0.2" stroke-width="1.0"/>
      <path d="M32.05 26.3 L32.05 35.05" fill="none" stroke="#000000" stroke-linecap="round" stroke-linejoin="round" stroke-opacity="0.2" stroke-width="1.0"/>
    </g>
    <linearGradient gradientTransform="matrix(0.0221, 0.0059, -0.0125, 0.0467, 29.4, 49.5)" gradientUnits="userSpaceOnUse" id="decoration181-gradient8" spreadMethod="pad" x1="-819.2" x2="819.2">
      <stop offset="0.0" stop-color="#7e4e20"/>
      <stop offset="1.0" stop-color="#6a401a"/>
    </linearGradient>
    <linearGradient gradientTransform="matrix(0.0149, 0.0, 0.0, 0.013, 20.0, 9.85)" gradientUnits="userSpaceOnUse" id="decoration181-gradient9" spreadMethod="pad" x1="-819.2" x2="819.2">
      <stop offset="0.0" stop-color="#7e4e20"/>
      <stop offset="1.0" stop-color="#6a401a"/>
    </linearGradient>
    <linearGradient gradientTransform="matrix(0.0142, 0.0, 0.0, 0.0222, 22.5, 51.65)" gradientUnits="userSpaceOnUse" id="decoration181-gradient10" spreadMethod="pad" x1="-819.2" x2="819.2">
      <stop offset="0.0" stop-color="#7e4e20"/>
      <stop offset="1.0" stop-color="#6a401a"/>
    </linearGradient>
    <linearGradient gradientTransform="matrix(0.0118, 0.0068, -0.0064, 0.011, 20.05, 84.9)" gradientUnits="userSpaceOnUse" id="decoration181-gradient11" spreadMethod="pad" x1="-819.2" x2="819.2">
      <stop offset="0.0" stop-color="#7e4e20"/>
      <stop offset="1.0" stop-color="#6a401a"/>
    </linearGradient>
    <linearGradient gradientTransform="matrix(0.0138, 0.0, 0.0, 0.0392, 25.25, 57.35)" gradientUnits="userSpaceOnUse" id="decoration181-gradient12" spreadMethod="pad" x1="-819.2" x2="819.2">
      <stop offset="0.0" stop-color="#9b6330"/>
      <stop offset="1.0" stop-color="#7d5732"/>
    </linearGradient>
    <linearGradient gradientTransform="matrix(0.0167, 0.0, 0.0, 0.015, 22.25, 14.3)" gradientUnits="userSpaceOnUse" id="decoration181-gradient13" spreadMethod="pad" x1="-819.2" x2="819.2">
      <stop offset="0.0" stop-color="#9a6533"/>
      <stop offset="1.0" stop-color="#7d5732"/>
    </linearGradient>
    <g id="decoration181-sprite3" transform="matrix(1.0, 0.0, 0.0, 1.0, 0.5, 0.5)">
      <use ffdec:characterId="227" height="99.5" transform="matrix(1.0, 0.0, 0.0, 1.0, -0.5, -0.5)" width="40.0" xlink:href="#decoration181-shape3"/>
    </g>
    <g id="decoration181-shape3" transform="matrix(1.0, 0.0, 0.0, 1.0, 0.5, 0.5)">
      <path d="M36.2 48.6 L35.15 60.75 Q21.25 71.1 33.5 80.65 L32.55 92.2 Q17.95 90.35 13.6 84.8 5.0 73.85 36.2 48.6" fill="url(#decoration181-gradient14)" fill-rule="evenodd" stroke="none"/>
      <path d="M5.55 58.95 Q4.1 43.05 23.5 36.25 33.0 32.55 36.1 16.75 L36.8 12.05 39.0 15.0 36.8 41.1 Q17.65 36.95 7.35 73.1 L5.55 58.95" fill="url(#decoration181-gradient15)" fill-rule="evenodd" stroke="none"/>
      <path d="M26.1 18.15 Q29.5 16.95 29.95 19.95 30.35 22.95 23.3 26.25 L14.45 30.3 Q12.65 31.0 10.95 30.35 9.2 29.65 9.9 26.75 10.55 23.85 13.7 21.8 16.85 19.7 19.75 19.55 22.65 19.35 26.1 18.15" fill="url(#decoration181-gradient16)" fill-rule="evenodd" stroke="none"/>
      <path d="M11.55 4.95 Q32.3 6.05 9.75 16.75 L0.75 20.7 0.0 15.0 Q3.05 10.45 11.55 4.95" fill="url(#decoration181-gradient17)" fill-rule="evenodd" stroke="none"/>
      <path d="M35.15 60.75 L33.5 80.65 Q21.25 71.1 35.15 60.75" fill="url(#decoration181-gradient18)" fill-rule="evenodd" stroke="none"/>
      <path d="M7.35 73.1 Q17.65 36.95 36.8 41.1 L36.2 48.6 Q5.0 73.85 13.6 84.8 17.95 90.35 32.55 92.2 L32.0 98.5 10.5 98.0 7.35 73.1" fill="url(#decoration181-gradient19)" fill-rule="evenodd" stroke="none"/>
      <path d="M36.8 12.05 L36.1 16.75 Q33.0 32.55 23.5 36.25 4.1 43.05 5.55 58.95 L0.75 20.7 9.75 16.75 Q32.3 6.05 11.55 4.95 15.25 2.55 20.0 0.0 31.55 6.0 36.8 12.05 M26.1 18.15 Q22.65 19.35 19.75 19.55 16.85 19.7 13.7 21.8 10.55 23.85 9.9 26.75 9.2 29.65 10.95 30.35 12.65 31.0 14.45 30.3 L23.3 26.25 Q30.35 22.95 29.95 19.95 29.5 16.95 26.1 18.15" fill="url(#decoration181-gradient20)" fill-rule="evenodd" stroke="none"/>
      <path d="M5.55 58.95 L7.35 73.1 10.5 98.0 32.0 98.5 32.55 92.2 33.5 80.65 35.15 60.75 36.2 48.6 36.8 41.1 39.0 15.0 36.8 12.05 Q31.55 6.0 20.0 0.0 15.25 2.55 11.55 4.95 3.05 10.45 0.0 15.0 L0.75 20.7 5.55 58.95 Z" fill="none" stroke="#000000" stroke-linecap="round" stroke-linejoin="round" stroke-opacity="0.4" stroke-width="1.0"/>
      <path d="M31.45 27.7 L31.45 41.25" fill="none" stroke="#000000" stroke-linecap="round" stroke-linejoin="round" stroke-opacity="0.2" stroke-width="1.0"/>
      <path d="M29.05 32.55 L29.05 48.75" fill="none" stroke="#000000" stroke-linecap="round" stroke-linejoin="round" stroke-opacity="0.2" stroke-width="1.0"/>
      <path d="M15.8 81.75 L15.8 69.45" fill="none" stroke="#000000" stroke-linecap="round" stroke-linejoin="round" stroke-opacity="0.2" stroke-width="1.0"/>
      <path d="M13.3 72.35 L13.3 62.0" fill="none" stroke="#000000" stroke-linecap="round" stroke-linejoin="round" stroke-opacity="0.2" stroke-width="1.0"/>
    </g>
    <linearGradient gradientTransform="matrix(-0.0149, 0.0, 0.0, -0.0266, 21.0, 70.6)" gradientUnits="userSpaceOnUse" id="decoration181-gradient14" spreadMethod="pad" x1="-819.2" x2="819.2">
      <stop offset="0.0" stop-color="#9a6533"/>
      <stop offset="1.0" stop-color="#7d5732"/>
    </linearGradient>
    <linearGradient gradientTransform="matrix(-0.0191, 0.0073, -0.0132, -0.0348, 20.1, 41.7)" gradientUnits="userSpaceOnUse" id="decoration181-gradient15" spreadMethod="pad" x1="-819.2" x2="819.2">
      <stop offset="0.0" stop-color="#9a6533"/>
      <stop offset="1.0" stop-color="#7d5732"/>
    </linearGradient>
    <radialGradient cx="0" cy="0" gradientTransform="matrix(0.0226, 0.0, 0.0, 0.0226, 20.0, 23.25)" gradientUnits="userSpaceOnUse" id="decoration181-gradient16" r="819.2" spreadMethod="pad">
      <stop offset="0.0" stop-color="#9a6533"/>
      <stop offset="1.0" stop-color="#7d5732"/>
    </radialGradient>
    <radialGradient cx="0" cy="0" gradientTransform="matrix(0.016, 0.0, 0.0, 0.016, 15.0, 9.5)" gradientUnits="userSpaceOnUse" id="decoration181-gradient17" r="819.2" spreadMethod="pad">
      <stop offset="0.0" stop-color="#9a6533"/>
      <stop offset="1.0" stop-color="#7d5732"/>
    </radialGradient>
    <linearGradient gradientTransform="matrix(0.02, 0.0, 0.0, 0.0121, 20.5, 71.0)" gradientUnits="userSpaceOnUse" id="decoration181-gradient18" spreadMethod="pad" x1="-819.2" x2="819.2">
      <stop offset="0.0" stop-color="#6a401a"/>
      <stop offset="1.0" stop-color="#7e4e20"/>
    </linearGradient>
    <linearGradient gradientTransform="matrix(0.0174, -0.0047, 0.0091, 0.0341, 22.05, 69.55)" gradientUnits="userSpaceOnUse" id="decoration181-gradient19" spreadMethod="pad" x1="-819.2" x2="819.2">
      <stop offset="0.0" stop-color="#6a401a"/>
      <stop offset="1.0" stop-color="#7e4e20"/>
    </linearGradient>
    <linearGradient gradientTransform="matrix(0.0205, -0.008, 0.0131, 0.0335, 18.75, 29.45)" gradientUnits="userSpaceOnUse" id="decoration181-gradient20" spreadMethod="pad" x1="-819.2" x2="819.2">
      <stop offset="0.0" stop-color="#6a401a"/>
      <stop offset="1.0" stop-color="#7e4e20"/>
    </linearGradient>
    <g id="decoration181-sprite4" transform="matrix(1.0, 0.0, 0.0, 1.0, 0.5, 0.5)">
      <use ffdec:characterId="229" height="99.5" transform="matrix(1.0, 0.0, 0.0, 1.0, -0.5, -0.5)" width="40.0" xlink:href="#decoration181-shape4"/>
    </g>
    <g id="decoration181-shape4" transform="matrix(1.0, 0.0, 0.0, 1.0, 0.5, 0.5)">
      <path d="M6.0 62.15 Q19.75 72.75 8.0 78.15 L6.0 62.15" fill="url(#decoration181-gradient21)" fill-rule="evenodd" stroke="none"/>
      <path d="M5.1 55.15 L0.0 15.0 Q3.2 10.2 12.45 4.4 -2.25 23.05 11.8 27.85 21.5 30.75 22.25 52.55 21.45 65.15 34.15 73.3 L33.4 82.0 Q30.6 72.4 10.6 98.0 L10.5 98.0 9.05 86.45 Q12.55 85.0 16.35 82.5 23.6 77.75 20.5 73.1 17.35 68.4 16.25 59.0 15.15 49.55 8.25 53.25 6.6 54.1 5.1 55.15" fill="url(#decoration181-gradient22)" fill-rule="evenodd" stroke="none"/>
      <path d="M30.05 6.1 Q24.4 14.5 30.0 17.3 38.35 20.1 38.1 26.1 L35.85 53.0 Q33.5 43.55 26.8 33.35 11.75 20.75 15.9 2.3 L20.0 0.0 Q25.8 3.05 30.05 6.1" fill="url(#decoration181-gradient23)" fill-rule="evenodd" stroke="none"/>
      <path d="M38.1 26.1 Q38.35 20.1 30.0 17.3 24.4 14.5 30.05 6.1 36.25 10.55 39.0 15.0 L38.1 26.1" fill="url(#decoration181-gradient24)" fill-rule="evenodd" stroke="none"/>
      <path d="M15.9 2.3 Q11.75 20.75 26.8 33.35 33.5 43.55 35.85 53.0 L34.15 73.3 Q21.45 65.15 22.25 52.55 21.5 30.75 11.8 27.85 -2.25 23.05 12.45 4.4 L15.9 2.3" fill="url(#decoration181-gradient25)" fill-rule="evenodd" stroke="none"/>
      <path d="M5.1 55.15 Q6.6 54.1 8.25 53.25 15.15 49.55 16.25 59.0 17.35 68.4 20.5 73.1 23.6 77.75 16.35 82.5 12.55 85.0 9.05 86.45 L8.0 78.15 Q19.75 72.75 6.0 62.15 L5.1 55.15" fill="url(#decoration181-gradient26)" fill-rule="evenodd" stroke="none"/>
      <path d="M10.6 98.0 Q30.6 72.4 33.4 82.0 L32.0 98.5 10.6 98.0" fill="url(#decoration181-gradient27)" fill-rule="evenodd" stroke="none"/>
      <path d="M38.1 26.1 L39.0 15.0 Q36.25 10.55 30.05 6.1 25.8 3.05 20.0 0.0 L15.9 2.3 12.45 4.4 Q3.2 10.2 0.0 15.0 L5.1 55.15 6.0 62.15 8.0 78.15 9.05 86.45 10.5 98.0 10.6 98.0 32.0 98.5 33.4 82.0 34.15 73.3 35.85 53.0 38.1 26.1 Z" fill="none" stroke="#000000" stroke-linecap="round" stroke-linejoin="round" stroke-opacity="0.4" stroke-width="1.0"/>
      <path d="M15.5 15.3 L15.5 35.3" fill="none" stroke="#000000" stroke-linecap="round" stroke-linejoin="round" stroke-opacity="0.2" stroke-width="1.0"/>
      <path d="M19.1 24.7 L19.1 32.75" fill="none" stroke="#000000" stroke-linecap="round" stroke-linejoin="round" stroke-opacity="0.2" stroke-width="1.0"/>
      <path d="M24.0 92.35 L24.0 83.2" fill="none" stroke="#000000" stroke-linecap="round" stroke-linejoin="round" stroke-opacity="0.2" stroke-width="1.0"/>
      <path d="M26.5 84.8 L26.5 72.8" fill="none" stroke="#000000" stroke-linecap="round" stroke-linejoin="round" stroke-opacity="0.2" stroke-width="1.0"/>
    </g>
    <linearGradient gradientTransform="matrix(-0.0152, 0.0, 0.0, -0.0098, 19.15, 70.65)" gradientUnits="userSpaceOnUse" id="decoration181-gradient21" spreadMethod="pad" x1="-819.2" x2="819.2">
      <stop offset="0.0" stop-color="#6a401a"/>
      <stop offset="1.0" stop-color="#7e4e20"/>
    </linearGradient>
    <linearGradient gradientTransform="matrix(0.0208, 0.0, 0.0, 0.0571, 17.05, 51.2)" gradientUnits="userSpaceOnUse" id="decoration181-gradient22" spreadMethod="pad" x1="-819.2" x2="819.2">
      <stop offset="0.24705882352941178" stop-color="#7e4e20"/>
      <stop offset="1.0" stop-color="#6a401a"/>
    </linearGradient>
    <linearGradient gradientTransform="matrix(0.0141, 0.0, 0.0, 0.0323, 26.55, 26.5)" gradientUnits="userSpaceOnUse" id="decoration181-gradient23" spreadMethod="pad" x1="-819.2" x2="819.2">
      <stop offset="0.24705882352941178" stop-color="#7e4e20"/>
      <stop offset="1.0" stop-color="#6a401a"/>
    </linearGradient>
    <linearGradient gradientTransform="matrix(0.0072, 0.0, 0.0, 0.0122, 30.5, 16.05)" gradientUnits="userSpaceOnUse" id="decoration181-gradient24" spreadMethod="pad" x1="-819.2" x2="819.2">
      <stop offset="0.0" stop-color="#9b6330"/>
      <stop offset="1.0" stop-color="#7d5732"/>
    </linearGradient>
    <linearGradient gradientTransform="matrix(0.0187, 0.0023, -0.0053, 0.043, 22.95, 38.8)" gradientUnits="userSpaceOnUse" id="decoration181-gradient25" spreadMethod="pad" x1="-819.2" x2="819.2">
      <stop offset="0.0" stop-color="#9b6330"/>
      <stop offset="1.0" stop-color="#7d5732"/>
    </linearGradient>
    <linearGradient gradientTransform="matrix(0.0175, 0.0, 0.0, 0.0209, 15.0, 68.7)" gradientUnits="userSpaceOnUse" id="decoration181-gradient26" spreadMethod="pad" x1="-819.2" x2="819.2">
      <stop offset="0.0" stop-color="#9b6330"/>
      <stop offset="1.0" stop-color="#7d5732"/>
    </linearGradient>
    <linearGradient gradientTransform="matrix(0.0139, 0.0, 0.0, 0.0117, 18.75, 88.65)" gradientUnits="userSpaceOnUse" id="decoration181-gradient27" spreadMethod="pad" x1="-819.2" x2="819.2">
      <stop offset="0.0" stop-color="#9b6330"/>
      <stop offset="1.0" stop-color="#7d5732"/>
    </linearGradient>
  </defs>
</svg>
