<?xml version="1.0" encoding="UTF-8" standalone="no"?>
<svg xmlns:xlink="http://www.w3.org/1999/xlink" height="44.35px" width="90.95px" xmlns="http://www.w3.org/2000/svg">
  <g transform="matrix(1.0, 0.0, 0.0, 1.0, 45.65, 44.25)">
    <use data-characterId="195" height="25.15" transform="matrix(0.387, 0.0, 0.0, 0.387, -45.1435, -26.0935)" width="233.0" xlink:href="#decoration182-sprite0"/>
    <use data-characterId="197" height="99.5" transform="matrix(-0.387, 0.0, 0.0, 0.387, -26.9565, -38.9935)" width="40.0" xlink:href="#decoration182-sprite1"/>
    <use data-characterId="199" height="99.5" transform="matrix(0.387, 0.0, 0.0, 0.387, -20.0935, -38.3935)" width="40.0" xlink:href="#decoration182-sprite2"/>
    <use data-characterId="201" height="99.5" transform="matrix(-0.387, 0.0, 0.0, 0.387, 19.1435, -38.3935)" width="40.0" xlink:href="#decoration182-sprite3"/>
    <use data-characterId="203" height="99.5" transform="matrix(0.387, 0.0, 0.0, 0.387, 25.6065, -38.9935)" width="40.0" xlink:href="#decoration182-sprite4"/>
    <use data-characterId="204" height="19.05" transform="matrix(1.0, 0.0, 0.0, 1.0, -45.65, -44.25)" width="90.95" xlink:href="#decoration182-shape5"/>
  </g>
  <defs>
    <g id="decoration182-sprite0" transform="matrix(1.0, 0.0, 0.0, 1.0, 0.5, 0.5)">
      <use data-characterId="194" height="25.15" transform="matrix(1.0, 0.0, 0.0, 1.0, -0.5, -0.5)" width="233.0" xlink:href="#decoration182-shape0"/>
    </g>
    <g id="decoration182-shape0" transform="matrix(1.0, 0.0, 0.0, 1.0, 0.5, 0.5)">
      <path d="M232.0 7.35 L232.0 24.15 166.35 23.3 154.2 21.95 130.35 20.8 Q115.85 21.95 87.55 18.55 48.2 11.6 38.55 16.8 31.55 22.2 10.85 24.0 L0.05 24.0 Q-0.25 15.2 0.0 6.8 6.1 13.6 27.05 8.8 50.0 3.3 61.55 6.8 99.4 8.35 104.6 0.0 L124.85 0.0 Q159.45 6.95 178.6 4.8 196.55 0.25 210.25 0.0 L213.45 0.0 Q224.7 5.8 232.0 7.35 M180.1 15.15 Q191.15 13.6 191.15 12.55 191.15 11.5 181.05 9.85 170.9 8.2 148.4 10.5 125.9 12.75 114.1 11.6 102.3 10.4 101.95 12.0 101.6 13.55 112.55 15.15 L146.25 16.7 180.1 15.15" fill="url(#decoration182-gradient0)" fill-rule="evenodd" stroke="none"/>
      <path d="M232.0 7.35 Q224.7 5.8 213.45 0.0 L232.0 0.0 232.0 7.35 M210.25 0.0 Q196.55 0.25 178.6 4.8 159.45 6.95 124.85 0.0 L210.25 0.0 M104.6 0.0 Q99.4 8.35 61.55 6.8 50.0 3.3 27.05 8.8 6.1 13.6 0.0 6.8 L0.0 0.0 104.6 0.0 M10.85 24.0 Q31.55 22.2 38.55 16.8 48.2 11.6 87.55 18.55 115.85 21.95 130.35 20.8 L154.2 21.95 166.35 23.3 10.85 24.0 M180.1 15.15 L146.25 16.7 112.55 15.15 Q101.6 13.55 101.95 12.0 102.3 10.4 114.1 11.6 125.9 12.75 148.4 10.5 170.9 8.2 181.05 9.85 191.15 11.5 191.15 12.55 191.15 13.6 180.1 15.15" fill="#ac9069" fill-rule="evenodd" stroke="none"/>
      <path d="M213.45 0.0 L210.25 0.0 124.85 0.0 104.6 0.0 0.0 0.0 M0.05 24.0 L10.85 24.0 166.35 23.3 232.0 24.15 M232.0 0.0 L213.45 0.0" fill="none" stroke="#000d0d" stroke-linecap="round" stroke-linejoin="round" stroke-opacity="0.4" stroke-width="1.0"/>
      <path d="M20.0 5.05 L56.9 5.05" fill="none" stroke="#000d0d" stroke-linecap="round" stroke-linejoin="round" stroke-opacity="0.2" stroke-width="1.0"/>
      <path d="M36.5 8.1 L68.1 8.1" fill="none" stroke="#000d0d" stroke-linecap="round" stroke-linejoin="round" stroke-opacity="0.2" stroke-width="1.0"/>
      <path d="M87.55 18.55 L116.7 18.55" fill="none" stroke="#000d0d" stroke-linecap="round" stroke-linejoin="round" stroke-opacity="0.2" stroke-width="1.0"/>
      <path d="M99.55 14.5 L123.4 14.5" fill="none" stroke="#000d0d" stroke-linecap="round" stroke-linejoin="round" stroke-opacity="0.2" stroke-width="1.0"/>
      <path d="M165.5 5.3 L203.3 5.3" fill="none" stroke="#000d0d" stroke-linecap="round" stroke-linejoin="round" stroke-opacity="0.2" stroke-width="1.0"/>
      <path d="M179.95 9.65 L210.55 9.65" fill="none" stroke="#000d0d" stroke-linecap="round" stroke-linejoin="round" stroke-opacity="0.2" stroke-width="1.0"/>
    </g>
    <linearGradient gradientTransform="matrix(0.0709, 0.0, 0.0, 0.0146, 56.0, 10.5)" gradientUnits="userSpaceOnUse" id="decoration182-gradient0" spreadMethod="reflect" x1="-819.2" x2="819.2">
      <stop offset="0.25882352941176473" stop-color="#8c7149"/>
      <stop offset="1.0" stop-color="#a2835b"/>
    </linearGradient>
    <g id="decoration182-sprite1" transform="matrix(1.0, 0.0, 0.0, 1.0, 0.5, 0.5)">
      <use data-characterId="196" height="99.5" transform="matrix(1.0, 0.0, 0.0, 1.0, -0.5, -0.5)" width="40.0" xlink:href="#decoration182-shape1"/>
    </g>
    <g id="decoration182-shape1" transform="matrix(1.0, 0.0, 0.0, 1.0, 0.5, 0.5)">
      <path d="M38.2 24.85 L37.9 28.3 Q4.15 8.4 1.9 29.9 L0.0 15.0 2.0 12.5 Q4.5 9.85 8.65 6.9 17.15 6.8 25.45 12.5 31.85 16.95 38.2 24.85" fill="url(#decoration182-gradient1)" fill-rule="evenodd" stroke="none"/>
      <path d="M5.25 56.5 L4.45 50.1 Q19.85 47.65 3.2 40.45 L2.6 35.45 Q29.9 42.35 5.25 56.5" fill="url(#decoration182-gradient2)" fill-rule="evenodd" stroke="none"/>
      <path d="M33.8 77.0 L32.8 88.85 Q9.45 78.7 33.8 77.0" fill="url(#decoration182-gradient3)" fill-rule="evenodd" stroke="none"/>
      <path d="M4.45 50.1 L3.2 40.45 Q19.85 47.65 4.45 50.1" fill="#644925" fill-rule="evenodd" stroke="none"/>
      <path d="M36.85 40.8 L33.8 77.0 Q9.45 78.7 32.8 88.85 L32.0 98.5 21.25 98.25 18.3 92.0 Q6.5 65.45 20.0 58.5 33.15 52.4 36.85 40.8" fill="url(#decoration182-gradient4)" fill-rule="evenodd" stroke="none"/>
      <path d="M37.9 28.3 L37.9 28.35 Q17.4 57.9 5.95 62.1 L5.25 56.5 Q29.9 42.35 2.6 35.45 L1.9 29.9 Q4.15 8.4 37.9 28.3" fill="url(#decoration182-gradient5)" fill-rule="evenodd" stroke="none"/>
      <path d="M8.65 6.9 Q13.3 3.65 20.0 0.0 31.95 6.25 37.2 12.5 L39.0 15.0 38.2 24.85 Q31.85 16.95 25.45 12.5 17.15 6.8 8.65 6.9" fill="url(#decoration182-gradient6)" fill-rule="evenodd" stroke="none"/>
      <path d="M37.9 28.35 L36.85 40.8 Q33.15 52.4 20.0 58.5 6.5 65.45 18.3 92.0 L21.25 98.25 10.5 98.0 5.95 62.1 Q17.4 57.9 37.9 28.35" fill="url(#decoration182-gradient7)" fill-rule="evenodd" stroke="none"/>
      <path d="M8.65 6.9 Q13.3 3.65 20.0 0.0 31.95 6.25 37.2 12.5 L39.0 15.0 38.2 24.85 37.9 28.3 37.9 28.35 36.85 40.8 33.8 77.0 32.8 88.85 32.0 98.5 21.25 98.25 10.5 98.0 5.95 62.1 5.25 56.5 4.45 50.1 3.2 40.45 2.6 35.45 1.9 29.9 0.0 15.0 2.0 12.5 Q4.5 9.85 8.65 6.9 Z" fill="none" stroke="#000d0d" stroke-linecap="round" stroke-linejoin="round" stroke-opacity="0.4" stroke-width="1.0"/>
      <path d="M8.25 25.0 L8.0 37.05" fill="none" stroke="#000d0d" stroke-linecap="round" stroke-linejoin="round" stroke-opacity="0.2" stroke-width="1.0"/>
      <path d="M11.25 26.75 L11.25 41.75" fill="none" stroke="#000d0d" stroke-linecap="round" stroke-linejoin="round" stroke-opacity="0.2" stroke-width="1.0"/>
      <path d="M26.0 66.0 L26.0 78.0" fill="none" stroke="#000d0d" stroke-linecap="round" stroke-linejoin="round" stroke-opacity="0.2" stroke-width="1.0"/>
      <path d="M29.75 60.5 L29.75 72.75" fill="none" stroke="#000d0d" stroke-linecap="round" stroke-linejoin="round" stroke-opacity="0.2" stroke-width="1.0"/>
    </g>
    <linearGradient gradientTransform="matrix(0.0233, 0.0, 0.0, 0.014, 19.1, 18.4)" gradientUnits="userSpaceOnUse" id="decoration182-gradient1" spreadMethod="pad" x1="-819.2" x2="819.2">
      <stop offset="0.0" stop-color="#765f3c"/>
      <stop offset="1.0" stop-color="#916c3d"/>
    </linearGradient>
    <linearGradient gradientTransform="matrix(0.0053, -0.0014, 0.0033, 0.0124, 8.15, 48.2)" gradientUnits="userSpaceOnUse" id="decoration182-gradient2" spreadMethod="pad" x1="-819.2" x2="819.2">
      <stop offset="0.0" stop-color="#765f3c"/>
      <stop offset="1.0" stop-color="#916c3d"/>
    </linearGradient>
    <radialGradient cx="0" cy="0" gradientTransform="matrix(0.0122, 0.0, 0.0, 0.0122, 34.25, 82.75)" gradientUnits="userSpaceOnUse" id="decoration182-gradient3" r="819.2" spreadMethod="pad">
      <stop offset="0.0" stop-color="#765f3c"/>
      <stop offset="1.0" stop-color="#916c3d"/>
    </radialGradient>
    <linearGradient gradientTransform="matrix(0.0053, -0.0199, 0.034, 0.0091, 23.25, 75.75)" gradientUnits="userSpaceOnUse" id="decoration182-gradient4" spreadMethod="pad" x1="-819.2" x2="819.2">
      <stop offset="0.0" stop-color="#644925"/>
      <stop offset="1.0" stop-color="#77562b"/>
    </linearGradient>
    <radialGradient cx="0" cy="0" gradientTransform="matrix(0.0245, 0.0, 0.0, 0.0245, 33.75, 32.0)" gradientUnits="userSpaceOnUse" id="decoration182-gradient5" r="819.2" spreadMethod="pad">
      <stop offset="0.0" stop-color="#77562b"/>
      <stop offset="1.0" stop-color="#644925"/>
    </radialGradient>
    <linearGradient gradientTransform="matrix(-0.0131, -0.0131, 0.0107, -0.0107, 23.75, 12.5)" gradientUnits="userSpaceOnUse" id="decoration182-gradient6" spreadMethod="pad" x1="-819.2" x2="819.2">
      <stop offset="0.0" stop-color="#77562b"/>
      <stop offset="1.0" stop-color="#644925"/>
    </linearGradient>
    <linearGradient gradientTransform="matrix(0.0288, -0.0077, 0.011, 0.0412, 21.9, 63.3)" gradientUnits="userSpaceOnUse" id="decoration182-gradient7" spreadMethod="pad" x1="-819.2" x2="819.2">
      <stop offset="0.0" stop-color="#765f3c"/>
      <stop offset="1.0" stop-color="#916c3d"/>
    </linearGradient>
    <g id="decoration182-sprite2" transform="matrix(1.0, 0.0, 0.0, 1.0, 0.5, 0.5)">
      <use data-characterId="198" height="99.5" transform="matrix(1.0, 0.0, 0.0, 1.0, -0.5, -0.5)" width="40.0" xlink:href="#decoration182-shape2"/>
    </g>
    <g id="decoration182-shape2" transform="matrix(1.0, 0.0, 0.0, 1.0, 0.5, 0.5)">
      <path d="M27.4 4.3 Q35.7 9.65 39.0 15.0 L34.7 66.4 Q28.5 96.9 9.75 72.95 18.6 71.35 27.3 64.0 36.2 56.45 33.8 47.3 31.35 38.15 24.8 32.3 18.25 26.4 9.25 26.45 5.25 26.45 1.65 27.9 L1.55 27.0 Q26.3 24.35 27.4 4.3" fill="url(#decoration182-gradient8)" fill-rule="evenodd" stroke="none"/>
      <path d="M0.0 15.0 Q4.35 8.45 20.0 0.0 22.35 1.2 24.45 2.45 6.45 32.25 0.0 15.0" fill="url(#decoration182-gradient9)" fill-rule="evenodd" stroke="none"/>
      <path d="M7.05 70.4 L3.05 39.2 Q5.15 37.5 7.8 35.75 14.55 31.1 21.0 40.4 27.4 49.65 26.1 55.1 24.75 60.45 19.9 65.5 15.0 70.5 9.0 70.5 L7.05 70.4" fill="url(#decoration182-gradient10)" fill-rule="evenodd" stroke="none"/>
      <path d="M32.9 87.85 L32.0 98.5 10.5 98.0 7.95 77.65 Q11.05 96.8 32.9 87.85" fill="url(#decoration182-gradient11)" fill-rule="evenodd" stroke="none"/>
      <path d="M34.7 66.4 L32.9 87.85 Q11.05 96.8 7.95 77.65 L7.05 70.4 9.0 70.5 Q15.0 70.5 19.9 65.5 24.75 60.45 26.1 55.1 27.4 49.65 21.0 40.4 14.55 31.1 7.8 35.75 5.15 37.5 3.05 39.2 L1.65 27.9 Q5.25 26.45 9.25 26.45 18.25 26.4 24.8 32.3 31.35 38.15 33.8 47.3 36.2 56.45 27.3 64.0 18.6 71.35 9.75 72.95 28.5 96.9 34.7 66.4" fill="url(#decoration182-gradient12)" fill-rule="evenodd" stroke="none"/>
      <path d="M24.45 2.45 L27.4 4.3 Q26.3 24.35 1.55 27.0 L0.0 15.0 Q6.45 32.25 24.45 2.45" fill="url(#decoration182-gradient13)" fill-rule="evenodd" stroke="none"/>
      <path d="M24.45 2.45 L27.4 4.3 Q35.7 9.65 39.0 15.0 L34.7 66.4 32.9 87.85 32.0 98.5 10.5 98.0 7.95 77.65 7.05 70.4 3.05 39.2 1.65 27.9 1.55 27.0 0.0 15.0 Q4.35 8.45 20.0 0.0 22.35 1.2 24.45 2.45 Z" fill="none" stroke="#000d0d" stroke-linecap="round" stroke-linejoin="round" stroke-opacity="0.4" stroke-width="1.0"/>
      <path d="M10.55 39.3 L10.55 56.55" fill="none" stroke="#000d0d" stroke-linecap="round" stroke-linejoin="round" stroke-opacity="0.2" stroke-width="1.0"/>
      <path d="M14.8 46.05 L14.8 63.05" fill="none" stroke="#000d0d" stroke-linecap="round" stroke-linejoin="round" stroke-opacity="0.2" stroke-width="1.0"/>
      <path d="M28.55 13.3 L28.55 29.8" fill="none" stroke="#000d0d" stroke-linecap="round" stroke-linejoin="round" stroke-opacity="0.2" stroke-width="1.0"/>
      <path d="M32.05 26.3 L32.05 35.05" fill="none" stroke="#000d0d" stroke-linecap="round" stroke-linejoin="round" stroke-opacity="0.2" stroke-width="1.0"/>
    </g>
    <linearGradient gradientTransform="matrix(0.0221, 0.0059, -0.0125, 0.0467, 29.4, 49.5)" gradientUnits="userSpaceOnUse" id="decoration182-gradient8" spreadMethod="pad" x1="-819.2" x2="819.2">
      <stop offset="0.0" stop-color="#77562b"/>
      <stop offset="1.0" stop-color="#644925"/>
    </linearGradient>
    <linearGradient gradientTransform="matrix(0.0149, 0.0, 0.0, 0.013, 20.0, 9.85)" gradientUnits="userSpaceOnUse" id="decoration182-gradient9" spreadMethod="pad" x1="-819.2" x2="819.2">
      <stop offset="0.0" stop-color="#77562b"/>
      <stop offset="1.0" stop-color="#644925"/>
    </linearGradient>
    <linearGradient gradientTransform="matrix(0.0142, 0.0, 0.0, 0.0222, 22.5, 51.65)" gradientUnits="userSpaceOnUse" id="decoration182-gradient10" spreadMethod="pad" x1="-819.2" x2="819.2">
      <stop offset="0.0" stop-color="#77562b"/>
      <stop offset="1.0" stop-color="#644925"/>
    </linearGradient>
    <linearGradient gradientTransform="matrix(0.0118, 0.0068, -0.0064, 0.011, 20.05, 84.9)" gradientUnits="userSpaceOnUse" id="decoration182-gradient11" spreadMethod="pad" x1="-819.2" x2="819.2">
      <stop offset="0.0" stop-color="#77562b"/>
      <stop offset="1.0" stop-color="#644925"/>
    </linearGradient>
    <linearGradient gradientTransform="matrix(0.0138, 0.0, 0.0, 0.0392, 25.25, 57.35)" gradientUnits="userSpaceOnUse" id="decoration182-gradient12" spreadMethod="pad" x1="-819.2" x2="819.2">
      <stop offset="0.0" stop-color="#926a3a"/>
      <stop offset="1.0" stop-color="#765f3c"/>
    </linearGradient>
    <linearGradient gradientTransform="matrix(0.0167, 0.0, 0.0, 0.015, 22.25, 14.3)" gradientUnits="userSpaceOnUse" id="decoration182-gradient13" spreadMethod="pad" x1="-819.2" x2="819.2">
      <stop offset="0.0" stop-color="#916c3d"/>
      <stop offset="1.0" stop-color="#765f3c"/>
    </linearGradient>
    <g id="decoration182-sprite3" transform="matrix(1.0, 0.0, 0.0, 1.0, 0.5, 0.5)">
      <use data-characterId="200" height="99.5" transform="matrix(1.0, 0.0, 0.0, 1.0, -0.5, -0.5)" width="40.0" xlink:href="#decoration182-shape3"/>
    </g>
    <g id="decoration182-shape3" transform="matrix(1.0, 0.0, 0.0, 1.0, 0.5, 0.5)">
      <path d="M36.2 48.6 L35.15 60.75 Q21.25 71.1 33.5 80.65 L32.55 92.2 Q17.95 90.35 13.6 84.8 5.0 73.85 36.2 48.6" fill="url(#decoration182-gradient14)" fill-rule="evenodd" stroke="none"/>
      <path d="M36.8 12.05 L39.0 15.0 36.8 41.1 Q17.65 36.95 7.35 73.1 L5.55 58.95 Q4.1 43.05 23.5 36.25 33.0 32.55 36.1 16.75 L36.8 12.05" fill="url(#decoration182-gradient15)" fill-rule="evenodd" stroke="none"/>
      <path d="M26.1 18.15 Q29.5 16.95 29.95 19.95 30.35 22.95 23.3 26.25 L14.45 30.3 Q12.65 31.0 10.95 30.35 9.2 29.65 9.9 26.75 10.55 23.85 13.7 21.8 16.85 19.7 19.75 19.55 22.65 19.35 26.1 18.15" fill="url(#decoration182-gradient16)" fill-rule="evenodd" stroke="none"/>
      <path d="M11.55 4.95 Q32.3 6.05 9.75 16.75 L0.75 20.7 0.0 15.0 Q3.05 10.45 11.55 4.95" fill="url(#decoration182-gradient17)" fill-rule="evenodd" stroke="none"/>
      <path d="M35.15 60.75 L33.5 80.65 Q21.25 71.1 35.15 60.75" fill="url(#decoration182-gradient18)" fill-rule="evenodd" stroke="none"/>
      <path d="M7.35 73.1 Q17.65 36.95 36.8 41.1 L36.2 48.6 Q5.0 73.85 13.6 84.8 17.95 90.35 32.55 92.2 L32.0 98.5 10.5 98.0 7.35 73.1" fill="url(#decoration182-gradient19)" fill-rule="evenodd" stroke="none"/>
      <path d="M26.1 18.15 Q22.65 19.35 19.75 19.55 16.85 19.7 13.7 21.8 10.55 23.85 9.9 26.75 9.2 29.65 10.95 30.35 12.65 31.0 14.45 30.3 L23.3 26.25 Q30.35 22.95 29.95 19.95 29.5 16.95 26.1 18.15 M36.8 12.05 L36.1 16.75 Q33.0 32.55 23.5 36.25 4.1 43.05 5.55 58.95 L0.75 20.7 9.75 16.75 Q32.3 6.05 11.55 4.95 15.25 2.55 20.0 0.0 31.55 6.0 36.8 12.05" fill="url(#decoration182-gradient20)" fill-rule="evenodd" stroke="none"/>
      <path d="M36.8 41.1 L39.0 15.0 36.8 12.05 Q31.55 6.0 20.0 0.0 15.25 2.55 11.55 4.95 3.05 10.45 0.0 15.0 L0.75 20.7 5.55 58.95 7.35 73.1 10.5 98.0 32.0 98.5 32.55 92.2 33.5 80.65 35.15 60.75 36.2 48.6 36.8 41.1 Z" fill="none" stroke="#000d0d" stroke-linecap="round" stroke-linejoin="round" stroke-opacity="0.4" stroke-width="1.0"/>
      <path d="M31.45 27.7 L31.45 41.25" fill="none" stroke="#000d0d" stroke-linecap="round" stroke-linejoin="round" stroke-opacity="0.2" stroke-width="1.0"/>
      <path d="M29.05 32.55 L29.05 48.75" fill="none" stroke="#000d0d" stroke-linecap="round" stroke-linejoin="round" stroke-opacity="0.2" stroke-width="1.0"/>
      <path d="M15.8 81.75 L15.8 69.45" fill="none" stroke="#000d0d" stroke-linecap="round" stroke-linejoin="round" stroke-opacity="0.2" stroke-width="1.0"/>
      <path d="M13.3 72.35 L13.3 62.0" fill="none" stroke="#000d0d" stroke-linecap="round" stroke-linejoin="round" stroke-opacity="0.2" stroke-width="1.0"/>
    </g>
    <linearGradient gradientTransform="matrix(-0.0149, 0.0, 0.0, -0.0266, 21.0, 70.6)" gradientUnits="userSpaceOnUse" id="decoration182-gradient14" spreadMethod="pad" x1="-819.2" x2="819.2">
      <stop offset="0.0" stop-color="#916c3d"/>
      <stop offset="1.0" stop-color="#765f3c"/>
    </linearGradient>
    <linearGradient gradientTransform="matrix(-0.0191, 0.0073, -0.0132, -0.0348, 20.1, 41.7)" gradientUnits="userSpaceOnUse" id="decoration182-gradient15" spreadMethod="pad" x1="-819.2" x2="819.2">
      <stop offset="0.0" stop-color="#916c3d"/>
      <stop offset="1.0" stop-color="#765f3c"/>
    </linearGradient>
    <radialGradient cx="0" cy="0" gradientTransform="matrix(0.0226, 0.0, 0.0, 0.0226, 20.0, 23.25)" gradientUnits="userSpaceOnUse" id="decoration182-gradient16" r="819.2" spreadMethod="pad">
      <stop offset="0.0" stop-color="#916c3d"/>
      <stop offset="1.0" stop-color="#765f3c"/>
    </radialGradient>
    <radialGradient cx="0" cy="0" gradientTransform="matrix(0.016, 0.0, 0.0, 0.016, 15.0, 9.5)" gradientUnits="userSpaceOnUse" id="decoration182-gradient17" r="819.2" spreadMethod="pad">
      <stop offset="0.0" stop-color="#916c3d"/>
      <stop offset="1.0" stop-color="#765f3c"/>
    </radialGradient>
    <linearGradient gradientTransform="matrix(0.02, 0.0, 0.0, 0.0121, 20.5, 71.0)" gradientUnits="userSpaceOnUse" id="decoration182-gradient18" spreadMethod="pad" x1="-819.2" x2="819.2">
      <stop offset="0.0" stop-color="#644925"/>
      <stop offset="1.0" stop-color="#77562b"/>
    </linearGradient>
    <linearGradient gradientTransform="matrix(0.0174, -0.0047, 0.0091, 0.0341, 22.05, 69.55)" gradientUnits="userSpaceOnUse" id="decoration182-gradient19" spreadMethod="pad" x1="-819.2" x2="819.2">
      <stop offset="0.0" stop-color="#644925"/>
      <stop offset="1.0" stop-color="#77562b"/>
    </linearGradient>
    <linearGradient gradientTransform="matrix(0.0205, -0.008, 0.0131, 0.0335, 18.75, 29.45)" gradientUnits="userSpaceOnUse" id="decoration182-gradient20" spreadMethod="pad" x1="-819.2" x2="819.2">
      <stop offset="0.0" stop-color="#644925"/>
      <stop offset="1.0" stop-color="#77562b"/>
    </linearGradient>
    <g id="decoration182-sprite4" transform="matrix(1.0, 0.0, 0.0, 1.0, 0.5, 0.5)">
      <use data-characterId="202" height="99.5" transform="matrix(1.0, 0.0, 0.0, 1.0, -0.5, -0.5)" width="40.0" xlink:href="#decoration182-shape4"/>
    </g>
    <g id="decoration182-shape4" transform="matrix(1.0, 0.0, 0.0, 1.0, 0.5, 0.5)">
      <path d="M8.0 78.15 L6.0 62.15 Q19.75 72.75 8.0 78.15" fill="url(#decoration182-gradient21)" fill-rule="evenodd" stroke="none"/>
      <path d="M12.45 4.4 Q-2.25 23.05 11.8 27.85 21.5 30.75 22.25 52.55 21.45 65.15 34.15 73.3 L33.4 82.0 Q30.6 72.4 10.6 98.0 L10.5 98.0 9.05 86.45 Q12.55 85.0 16.35 82.5 23.6 77.75 20.5 73.1 17.35 68.4 16.25 59.0 15.15 49.55 8.25 53.25 6.6 54.1 5.1 55.15 L0.0 15.0 Q3.2 10.2 12.45 4.4" fill="url(#decoration182-gradient22)" fill-rule="evenodd" stroke="none"/>
      <path d="M30.05 6.1 Q24.4 14.5 30.0 17.3 38.35 20.1 38.1 26.1 L35.85 53.0 Q33.5 43.55 26.8 33.35 11.75 20.75 15.9 2.3 L20.0 0.0 Q25.8 3.05 30.05 6.1" fill="url(#decoration182-gradient23)" fill-rule="evenodd" stroke="none"/>
      <path d="M38.1 26.1 Q38.35 20.1 30.0 17.3 24.4 14.5 30.05 6.1 36.25 10.55 39.0 15.0 L38.1 26.1" fill="url(#decoration182-gradient24)" fill-rule="evenodd" stroke="none"/>
      <path d="M15.9 2.3 Q11.75 20.75 26.8 33.35 33.5 43.55 35.85 53.0 L34.15 73.3 Q21.45 65.15 22.25 52.55 21.5 30.75 11.8 27.85 -2.25 23.05 12.45 4.4 L15.9 2.3" fill="url(#decoration182-gradient25)" fill-rule="evenodd" stroke="none"/>
      <path d="M5.1 55.15 Q6.6 54.1 8.25 53.25 15.15 49.55 16.25 59.0 17.35 68.4 20.5 73.1 23.6 77.75 16.35 82.5 12.55 85.0 9.05 86.45 L8.0 78.15 Q19.75 72.75 6.0 62.15 L5.1 55.15" fill="url(#decoration182-gradient26)" fill-rule="evenodd" stroke="none"/>
      <path d="M10.6 98.0 Q30.6 72.4 33.4 82.0 L32.0 98.5 10.6 98.0" fill="url(#decoration182-gradient27)" fill-rule="evenodd" stroke="none"/>
      <path d="M38.1 26.1 L39.0 15.0 Q36.25 10.55 30.05 6.1 25.8 3.05 20.0 0.0 L15.9 2.3 12.45 4.4 Q3.2 10.2 0.0 15.0 L5.1 55.15 6.0 62.15 8.0 78.15 9.05 86.45 10.5 98.0 10.6 98.0 32.0 98.5 33.4 82.0 34.15 73.3 35.85 53.0 38.1 26.1 Z" fill="none" stroke="#000d0d" stroke-linecap="round" stroke-linejoin="round" stroke-opacity="0.4" stroke-width="1.0"/>
      <path d="M15.5 15.3 L15.5 35.3" fill="none" stroke="#000d0d" stroke-linecap="round" stroke-linejoin="round" stroke-opacity="0.2" stroke-width="1.0"/>
      <path d="M19.1 24.7 L19.1 32.75" fill="none" stroke="#000d0d" stroke-linecap="round" stroke-linejoin="round" stroke-opacity="0.2" stroke-width="1.0"/>
      <path d="M24.0 92.35 L24.0 83.2" fill="none" stroke="#000d0d" stroke-linecap="round" stroke-linejoin="round" stroke-opacity="0.2" stroke-width="1.0"/>
      <path d="M26.5 84.8 L26.5 72.8" fill="none" stroke="#000d0d" stroke-linecap="round" stroke-linejoin="round" stroke-opacity="0.2" stroke-width="1.0"/>
    </g>
    <linearGradient gradientTransform="matrix(-0.0152, 0.0, 0.0, -0.0098, 19.15, 70.65)" gradientUnits="userSpaceOnUse" id="decoration182-gradient21" spreadMethod="pad" x1="-819.2" x2="819.2">
      <stop offset="0.0" stop-color="#644925"/>
      <stop offset="1.0" stop-color="#77562b"/>
    </linearGradient>
    <linearGradient gradientTransform="matrix(0.0208, 0.0, 0.0, 0.0571, 17.05, 51.2)" gradientUnits="userSpaceOnUse" id="decoration182-gradient22" spreadMethod="pad" x1="-819.2" x2="819.2">
      <stop offset="0.24705882352941178" stop-color="#77562b"/>
      <stop offset="1.0" stop-color="#644925"/>
    </linearGradient>
    <linearGradient gradientTransform="matrix(0.0141, 0.0, 0.0, 0.0323, 26.55, 26.5)" gradientUnits="userSpaceOnUse" id="decoration182-gradient23" spreadMethod="pad" x1="-819.2" x2="819.2">
      <stop offset="0.24705882352941178" stop-color="#77562b"/>
      <stop offset="1.0" stop-color="#644925"/>
    </linearGradient>
    <linearGradient gradientTransform="matrix(0.0072, 0.0, 0.0, 0.0122, 30.5, 16.05)" gradientUnits="userSpaceOnUse" id="decoration182-gradient24" spreadMethod="pad" x1="-819.2" x2="819.2">
      <stop offset="0.0" stop-color="#926a3a"/>
      <stop offset="1.0" stop-color="#765f3c"/>
    </linearGradient>
    <linearGradient gradientTransform="matrix(0.0187, 0.0023, -0.0053, 0.043, 22.95, 38.8)" gradientUnits="userSpaceOnUse" id="decoration182-gradient25" spreadMethod="pad" x1="-819.2" x2="819.2">
      <stop offset="0.0" stop-color="#926a3a"/>
      <stop offset="1.0" stop-color="#765f3c"/>
    </linearGradient>
    <linearGradient gradientTransform="matrix(0.0175, 0.0, 0.0, 0.0209, 15.0, 68.7)" gradientUnits="userSpaceOnUse" id="decoration182-gradient26" spreadMethod="pad" x1="-819.2" x2="819.2">
      <stop offset="0.0" stop-color="#926a3a"/>
      <stop offset="1.0" stop-color="#765f3c"/>
    </linearGradient>
    <linearGradient gradientTransform="matrix(0.0139, 0.0, 0.0, 0.0117, 18.75, 88.65)" gradientUnits="userSpaceOnUse" id="decoration182-gradient27" spreadMethod="pad" x1="-819.2" x2="819.2">
      <stop offset="0.0" stop-color="#926a3a"/>
      <stop offset="1.0" stop-color="#765f3c"/>
    </linearGradient>
    <g id="decoration182-shape5" transform="matrix(1.0, 0.0, 0.0, 1.0, 45.65, 44.25)">
      <path d="M25.8 -35.55 Q26.65 -37.45 29.85 -39.5 33.55 -41.85 35.0 -41.85 37.05 -41.85 39.3 -38.1 L40.55 -35.7 39.0 -35.4 Q37.85 -35.4 35.75 -36.1 L32.2 -36.8 Q31.2 -36.8 29.55 -35.6 27.9 -34.4 27.45 -34.4 25.85 -34.4 25.8 -35.55 M25.65 -27.3 L25.4 -27.25 22.1 -26.55 20.35 -26.9 Q19.85 -27.05 19.6 -27.25 19.85 -29.05 22.6 -28.75 25.45 -28.4 25.65 -27.3 M4.8 -38.5 L6.75 -40.1 10.0 -42.3 13.2 -41.25 Q16.1 -40.0 17.1 -38.7 L18.05 -36.85 18.25 -36.35 17.6 -36.0 15.45 -35.75 Q13.95 -35.75 12.6 -36.3 11.25 -36.9 10.2 -36.9 7.9 -36.2 7.05 -36.2 4.7 -36.2 4.7 -37.9 L4.8 -38.5 M2.75 -27.7 L1.6 -27.15 Q-0.3 -26.45 -2.3 -26.45 L-4.35 -26.55 -4.6 -26.65 -3.2 -28.05 Q-1.6 -29.1 0.1 -29.1 1.7 -29.1 2.75 -27.7 M41.95 -27.5 L42.35 -28.35 Q43.05 -29.4 44.1 -29.4 44.55 -29.4 44.85 -29.05 L44.85 -27.25 44.05 -27.25 42.0 -27.5 41.95 -27.5 M-26.1 -38.3 Q-26.3 -37.65 -26.9 -37.15 -27.7 -36.45 -28.8 -36.45 -29.8 -36.45 -31.15 -37.25 -32.45 -38.05 -33.7 -38.05 -35.35 -38.05 -38.55 -36.5 -41.7 -34.95 -42.2 -34.95 L-43.45 -35.15 -43.65 -35.55 -43.85 -37.05 Q-43.85 -39.05 -41.95 -40.9 -39.65 -43.1 -35.85 -43.5 -30.65 -41.35 -28.75 -40.3 -26.9 -39.35 -26.1 -38.3 M-45.2 -27.2 L-45.2 -29.15 -43.7 -28.85 -42.8 -28.4 -43.4 -27.95 Q-44.15 -27.4 -45.2 -27.2 M-18.85 -39.25 L-17.35 -41.2 Q-14.45 -44.25 -10.5 -43.2 -8.5 -42.65 -6.3 -39.9 L-4.85 -37.75 -5.3 -37.15 Q-6.25 -36.0 -7.15 -36.0 -8.2 -36.0 -8.8 -36.45 -9.3 -36.85 -10.35 -36.8 L-12.3 -37.0 Q-13.15 -37.35 -13.0 -37.95 L-14.05 -37.95 Q-15.7 -37.05 -17.0 -37.05 -18.3 -37.05 -18.6 -37.55 L-18.85 -39.25 M-27.45 -26.85 Q-27.25 -27.5 -26.05 -28.2 -24.5 -29.1 -22.65 -29.1 -21.15 -29.1 -20.0 -27.85 L-19.2 -26.6 -19.2 -26.5 Q-19.55 -26.3 -20.0 -26.2 L-23.85 -26.1 -26.2 -26.35 Q-27.15 -26.55 -27.45 -26.85" fill="#f2f7f8" fill-rule="evenodd" stroke="none"/>
      <path d="M40.55 -35.7 L41.1 -34.25 Q41.1 -33.0 39.55 -33.0 38.75 -33.0 37.1 -33.55 L34.35 -34.35 28.05 -34.35 27.65 -33.6 Q27.25 -33.0 26.6 -33.0 25.9 -33.0 25.65 -33.6 25.5 -33.85 25.5 -34.2 25.5 -34.85 25.8 -35.55 25.85 -34.4 27.45 -34.4 27.9 -34.4 29.55 -35.6 31.2 -36.8 32.2 -36.8 L35.75 -36.1 Q37.85 -35.4 39.0 -35.4 L40.55 -35.7 M19.6 -27.25 Q19.85 -27.05 20.35 -26.9 L22.1 -26.55 25.4 -27.25 25.65 -27.3 25.65 -27.2 Q25.65 -26.3 24.4 -25.75 23.25 -25.2 21.6 -25.2 20.15 -25.2 19.7 -25.95 19.55 -26.25 19.55 -26.85 L19.6 -27.25 M18.25 -36.35 L18.8 -34.8 Q18.8 -33.5 17.25 -33.5 16.65 -33.5 15.25 -34.05 13.9 -34.65 12.8 -34.65 L10.75 -34.35 8.95 -34.1 7.75 -34.35 7.25 -34.65 Q6.95 -34.65 6.05 -33.75 5.15 -32.85 4.65 -32.85 3.4 -32.85 3.5 -34.2 3.5 -35.1 4.2 -35.45 3.5 -36.15 3.5 -36.6 3.5 -37.35 4.8 -38.5 L4.7 -37.9 Q4.7 -36.2 7.05 -36.2 7.9 -36.2 10.2 -36.9 11.25 -36.9 12.6 -36.3 13.95 -35.75 15.45 -35.75 L17.6 -36.0 18.25 -36.35 M-4.6 -26.65 L-4.35 -26.55 -2.3 -26.45 Q-0.3 -26.45 1.6 -27.15 L2.75 -27.7 3.3 -26.75 Q3.3 -25.2 -3.5 -25.2 -4.65 -25.2 -4.65 -26.35 L-4.6 -26.65 M44.85 -27.25 L44.85 -25.7 44.1 -25.5 Q42.55 -25.5 42.1 -26.1 41.85 -26.35 41.85 -27.05 L41.95 -27.5 42.0 -27.5 44.05 -27.25 44.85 -27.25 M-43.45 -35.15 L-42.2 -34.95 Q-41.7 -34.95 -38.55 -36.5 -35.35 -38.05 -33.7 -38.05 -32.45 -38.05 -31.15 -37.25 -29.8 -36.45 -28.8 -36.45 -27.7 -36.45 -26.9 -37.15 -26.3 -37.65 -26.1 -38.3 -25.55 -37.6 -25.55 -36.8 -25.55 -36.05 -26.1 -34.95 -26.85 -33.5 -27.9 -33.5 -28.65 -33.5 -30.6 -35.2 -32.55 -36.9 -34.55 -36.9 L-37.85 -35.5 Q-40.85 -34.1 -41.5 -34.1 -42.9 -34.1 -43.45 -35.15 M-42.8 -28.4 Q-42.15 -27.95 -42.0 -27.1 -41.8 -25.8 -43.15 -25.75 L-45.2 -25.55 -45.2 -27.2 Q-44.15 -27.4 -43.4 -27.95 L-42.8 -28.4 M-18.85 -39.25 L-18.6 -37.55 Q-18.3 -37.05 -17.0 -37.05 -15.7 -37.05 -14.05 -37.95 L-13.0 -37.95 Q-13.15 -37.35 -12.3 -37.0 L-10.35 -36.8 Q-9.3 -36.85 -8.8 -36.45 -8.2 -36.0 -7.15 -36.0 -6.25 -36.0 -5.3 -37.15 L-4.85 -37.75 Q-4.25 -36.7 -4.25 -35.9 L-4.45 -35.1 -4.45 -35.05 Q-3.8 -33.85 -3.8 -33.35 -3.8 -32.1 -4.95 -32.1 -5.1 -32.1 -7.45 -33.35 -9.9 -34.65 -10.8 -34.8 L-14.0 -34.8 -19.25 -31.95 Q-20.4 -31.95 -20.4 -33.1 -20.4 -33.6 -19.75 -34.15 -19.05 -34.75 -18.9 -35.55 L-18.8 -35.95 -19.4 -36.5 -19.55 -37.05 Q-19.55 -38.05 -18.85 -39.25 M-27.45 -26.85 Q-27.15 -26.55 -26.2 -26.35 L-23.85 -26.1 -20.0 -26.2 Q-19.55 -26.3 -19.2 -26.5 -19.25 -26.0 -19.85 -25.6 -20.5 -25.2 -21.45 -25.2 L-26.85 -25.6 Q-27.5 -25.8 -27.5 -26.6 L-27.45 -26.85" fill="#bbd1d7" fill-rule="evenodd" stroke="none"/>
      <path d="M35.15 -41.6 Q34.9 -41.45 34.65 -41.8 34.45 -42.15 34.8 -42.3 35.1 -42.4 35.25 -42.1 35.4 -41.75 35.15 -41.6 M31.15 -40.3 Q31.5 -39.8 31.0 -39.55 30.45 -39.3 30.3 -39.65 30.1 -40.0 30.5 -40.4 30.85 -40.8 31.15 -40.3 M32.65 -40.6 L32.3 -40.65 Q32.15 -40.9 32.35 -41.0 L32.7 -40.95 32.65 -40.6 M36.5 -40.85 Q36.3 -41.15 36.6 -41.4 36.95 -41.65 37.15 -41.4 37.4 -41.15 37.05 -40.8 L36.5 -40.85 M38.3 -39.35 Q38.15 -39.6 38.45 -39.9 38.7 -40.2 38.95 -39.8 39.2 -39.45 38.8 -39.3 L38.3 -39.35 M38.95 -37.4 Q38.65 -37.8 39.05 -38.05 L39.7 -37.95 Q39.95 -37.6 39.6 -37.3 39.2 -37.0 38.95 -37.4 M27.4 -37.5 Q27.55 -37.15 27.25 -37.0 27.0 -36.8 26.75 -37.2 26.5 -37.55 26.85 -37.7 27.2 -37.85 27.4 -37.5 M28.3 -38.7 Q28.1 -39.0 28.4 -39.2 28.65 -39.45 28.9 -39.2 29.1 -39.0 28.8 -38.7 28.5 -38.4 28.3 -38.7 M21.25 -28.6 Q21.0 -28.9 21.3 -29.05 L21.75 -28.9 Q21.95 -28.65 21.7 -28.5 L21.25 -28.6 M24.05 -28.0 Q23.7 -27.7 23.4 -28.1 23.15 -28.55 23.55 -28.75 L24.2 -28.65 Q24.4 -28.3 24.05 -28.0 M25.95 -27.25 Q25.75 -27.15 25.6 -27.35 25.45 -27.55 25.7 -27.7 L26.05 -27.6 Q26.2 -27.35 25.95 -27.25 M10.9 -41.4 Q10.55 -41.9 11.1 -42.25 11.6 -42.55 11.9 -42.05 12.2 -41.55 11.7 -41.25 11.25 -40.9 10.9 -41.4 M13.6 -40.8 Q13.4 -41.15 13.7 -41.35 L14.35 -41.3 Q14.7 -40.95 14.25 -40.7 13.8 -40.45 13.6 -40.8 M17.45 -38.25 Q17.1 -38.15 16.9 -38.4 16.75 -38.65 17.1 -38.85 17.45 -39.0 17.6 -38.65 17.8 -38.35 17.45 -38.25 M15.65 -39.7 Q15.2 -39.45 15.05 -39.85 14.85 -40.25 15.25 -40.45 L15.85 -40.35 Q16.1 -40.0 15.65 -39.7 M7.95 -40.6 Q7.5 -40.35 7.35 -40.75 7.15 -41.15 7.55 -41.35 7.95 -41.6 8.15 -41.25 8.4 -40.9 7.95 -40.6 M8.85 -41.85 Q8.65 -42.1 9.0 -42.25 L9.45 -42.1 Q9.65 -41.8 9.35 -41.7 9.05 -41.6 8.85 -41.85 M5.65 -39.05 Q5.5 -39.4 5.8 -39.6 L6.4 -39.5 Q6.7 -39.2 6.25 -38.95 5.85 -38.75 5.65 -39.05 M0.45 -28.65 Q0.1 -29.1 0.55 -29.45 L1.3 -29.35 Q1.65 -28.9 1.2 -28.55 0.8 -28.15 0.45 -28.65 M2.1 -27.35 Q1.65 -27.95 2.15 -28.35 2.65 -28.75 3.1 -28.15 3.55 -27.5 3.0 -27.15 2.5 -26.75 2.1 -27.35 M19.8 -27.3 Q19.55 -27.0 19.4 -27.35 19.25 -27.65 19.5 -27.9 L19.95 -27.85 19.8 -27.3 M18.65 -36.2 Q18.15 -35.85 17.75 -36.4 17.4 -36.95 17.95 -37.25 18.5 -37.6 18.8 -37.1 19.15 -36.55 18.65 -36.2 M41.1 -34.75 Q40.8 -34.55 40.5 -35.0 40.2 -35.45 40.6 -35.65 41.05 -35.8 41.25 -35.4 41.45 -34.95 41.1 -34.75 M44.4 -30.0 Q44.8 -30.25 45.0 -29.9 45.15 -29.6 44.8 -29.25 44.45 -28.9 44.25 -29.35 44.0 -29.75 44.4 -30.0 M42.1 -28.35 Q41.75 -28.65 42.3 -28.9 L43.0 -28.85 Q43.2 -28.5 42.8 -28.25 L42.1 -28.35 M44.35 -27.4 Q44.1 -27.8 44.5 -27.95 44.95 -28.1 45.2 -27.7 45.5 -27.35 45.05 -27.15 44.6 -27.0 44.35 -27.4 M-42.0 -40.75 Q-42.2 -41.15 -41.8 -41.4 L-41.25 -41.3 Q-41.1 -40.95 -41.45 -40.65 L-42.0 -40.75 M-43.3 -40.2 Q-42.9 -40.5 -42.7 -40.05 -42.5 -39.6 -42.85 -39.45 -43.2 -39.35 -43.45 -39.6 -43.7 -39.9 -43.3 -40.2 M-42.95 -37.4 Q-42.6 -37.15 -43.1 -36.8 -43.55 -36.5 -43.8 -36.9 -44.0 -37.3 -43.65 -37.5 L-42.95 -37.4 M-43.6 -34.95 L-44.15 -35.0 Q-44.35 -35.25 -44.0 -35.5 L-43.45 -35.4 Q-43.25 -35.1 -43.6 -34.95 M-45.55 -28.95 Q-45.75 -29.3 -45.45 -29.5 -45.15 -29.7 -44.95 -29.3 -44.75 -28.95 -45.05 -28.8 -45.4 -28.6 -45.55 -28.95 M-42.6 -27.95 Q-42.9 -27.75 -43.0 -28.05 -43.15 -28.35 -42.9 -28.45 L-42.5 -28.35 Q-42.35 -28.15 -42.6 -27.95 M-9.15 -43.35 Q-8.9 -42.9 -9.35 -42.7 -9.8 -42.5 -10.0 -42.9 -10.25 -43.3 -9.85 -43.55 -9.4 -43.75 -9.15 -43.35 M-8.4 -41.3 Q-8.75 -41.65 -8.25 -41.9 -7.75 -42.15 -7.55 -41.8 -7.3 -41.4 -7.7 -41.15 -8.05 -40.9 -8.4 -41.3 M-5.3 -38.45 Q-4.9 -38.75 -4.6 -38.3 -4.25 -37.85 -4.75 -37.6 -5.25 -37.3 -5.45 -37.75 -5.65 -38.2 -5.3 -38.45 M-6.3 -39.1 Q-6.65 -38.9 -6.85 -39.3 -7.05 -39.7 -6.75 -39.8 L-6.2 -39.65 Q-6.0 -39.35 -6.3 -39.1 M-11.55 -43.85 Q-11.1 -43.25 -11.8 -42.85 -12.5 -42.5 -12.75 -43.1 -13.05 -43.7 -12.55 -44.1 -12.0 -44.45 -11.55 -43.85 M-16.6 -42.35 Q-16.95 -42.7 -16.45 -42.95 L-15.75 -42.85 Q-15.5 -42.45 -15.9 -42.2 -16.25 -41.95 -16.6 -42.35 M-17.05 -41.25 Q-16.8 -40.9 -17.2 -40.7 -17.6 -40.55 -17.75 -40.9 -17.95 -41.2 -17.6 -41.4 -17.25 -41.6 -17.05 -41.25 M-19.05 -38.9 Q-19.25 -39.35 -18.9 -39.6 -18.5 -39.9 -18.2 -39.45 -17.85 -39.0 -18.35 -38.75 -18.85 -38.45 -19.05 -38.9 M-14.35 -42.7 Q-14.6 -43.2 -14.25 -43.35 -13.85 -43.55 -13.55 -43.15 -13.3 -42.75 -13.7 -42.45 -14.1 -42.2 -14.35 -42.7 M-19.55 -27.5 Q-19.2 -27.05 -19.65 -26.7 -20.15 -26.4 -20.35 -26.85 -20.55 -27.35 -20.2 -27.65 -19.85 -27.95 -19.55 -27.5 M-3.95 -27.9 Q-4.25 -28.3 -3.85 -28.55 L-3.1 -28.4 Q-2.8 -28.05 -3.2 -27.75 -3.65 -27.45 -3.95 -27.9 M-1.85 -28.65 Q-2.1 -29.2 -1.65 -29.4 -1.15 -29.6 -0.9 -29.2 -0.65 -28.75 -1.1 -28.45 -1.55 -28.1 -1.85 -28.65 M-27.4 -39.35 Q-27.6 -39.5 -27.3 -39.75 L-26.9 -39.65 Q-26.75 -39.35 -27.0 -39.25 L-27.4 -39.35 M-29.55 -40.3 Q-29.8 -40.7 -29.4 -40.85 L-28.75 -40.8 Q-28.5 -40.55 -28.9 -40.25 L-29.55 -40.3 M-37.45 -43.55 Q-37.2 -43.3 -37.6 -43.0 L-38.25 -43.05 Q-38.5 -43.45 -38.1 -43.6 L-37.45 -43.55 M-39.85 -42.15 Q-40.05 -42.4 -39.7 -42.65 L-39.15 -42.55 Q-38.95 -42.25 -39.3 -42.1 L-39.85 -42.15 M-31.45 -41.4 Q-31.7 -41.65 -31.3 -41.95 L-30.65 -41.85 Q-30.4 -41.45 -30.8 -41.3 -31.2 -41.1 -31.45 -41.4 M-34.5 -42.6 L-35.2 -42.75 Q-35.5 -43.1 -35.0 -43.45 -34.55 -43.8 -34.35 -43.3 -34.1 -42.8 -34.5 -42.6 M-33.3 -41.9 Q-33.8 -41.55 -34.05 -42.05 -34.35 -42.6 -33.85 -42.95 -33.35 -43.3 -33.1 -42.8 -32.85 -42.3 -33.3 -41.9 M-27.0 -26.6 Q-27.45 -26.3 -27.6 -26.75 -27.8 -27.2 -27.5 -27.45 -27.15 -27.75 -26.85 -27.3 -26.55 -26.9 -27.0 -26.6 M-25.65 -28.1 Q-26.0 -27.85 -26.3 -28.25 -26.6 -28.65 -26.2 -28.85 L-25.55 -28.7 Q-25.3 -28.35 -25.65 -28.1 M-21.7 -28.65 Q-21.95 -29.1 -21.6 -29.3 -21.25 -29.55 -21.0 -29.1 -20.7 -28.65 -21.1 -28.45 -21.45 -28.25 -21.7 -28.65 M-23.8 -28.75 Q-24.0 -29.05 -23.8 -29.3 -23.6 -29.55 -23.35 -29.2 -23.1 -28.9 -23.35 -28.7 L-23.8 -28.75" fill="#ffffff" fill-opacity="0.81960785" fill-rule="evenodd" stroke="none"/>
    </g>
  </defs>
</svg>
