<?xml version="1.0" encoding="UTF-8" standalone="no"?>
<svg xmlns:xlink="http://www.w3.org/1999/xlink" height="71.15px" width="88.5px" xmlns="http://www.w3.org/2000/svg">
  <g transform="matrix(1.0, 0.0, 0.0, 1.0, 43.8, 67.4)">
    <use height="7.2" transform="matrix(1.0, 0.0, 0.0, 1.0, -40.8, -6.1)" width="81.0" xlink:href="#decoration184-shape0"/>
    <use height="52.1" transform="matrix(0.6357, 0.0, 0.0, 0.6796, -43.5314, -31.6757)" width="138.7" xlink:href="#decoration184-sprite0"/>
    <use height="52.1" transform="matrix(0.6357, 0.0, 0.0, 0.755, -43.4814, -52.7785)" width="138.7" xlink:href="#decoration184-sprite0"/>
    <use height="52.1" transform="matrix(0.6357, 0.0, 0.0, 0.6357, -43.7814, -65.645)" width="138.7" xlink:href="#decoration184-sprite5"/>
    <use height="14.3" transform="matrix(1.0, 0.0, 0.0, 1.0, -39.75, -67.4)" width="80.4" xlink:href="#decoration184-shape5"/>
  </g>
  <defs>
    <g id="decoration184-shape0" transform="matrix(1.0, 0.0, 0.0, 1.0, 40.8, 6.1)">
      <path d="M38.9 -5.6 Q40.5 -0.35 38.9 0.6 L-39.7 0.6 Q-40.85 -0.35 -39.7 -5.6 L38.9 -5.6" fill="#6a401a" fill-rule="evenodd" stroke="none"/>
      <path d="M38.9 -5.6 L-39.7 -5.6 Q-40.85 -0.35 -39.7 0.6 L38.9 0.6 Q40.5 -0.35 38.9 -5.6 Z" fill="none" stroke="#000000" stroke-linecap="round" stroke-linejoin="round" stroke-opacity="0.4" stroke-width="1.0"/>
    </g>
    <g id="decoration184-sprite0" transform="matrix(1.0, 0.0, 0.0, 1.0, 0.6, 0.7)">
      <use height="10.0" transform="matrix(1.0, 0.0, 0.0, 1.0, 17.25, 2.85)" width="26.5" xlink:href="#decoration184-sprite1"/>
      <use height="20.5" transform="matrix(-0.8299, 0.8963, 0.6585, 0.6097, 100.0357, 23.897)" width="16.75" xlink:href="#decoration184-sprite2"/>
      <use height="20.5" transform="matrix(-0.7032, -0.1201, -0.1684, 0.9857, 101.1858, 24.1672)" width="16.75" xlink:href="#decoration184-sprite2"/>
      <use height="20.5" transform="matrix(1.443, 0.0, 0.0, 1.0, 59.2785, 16.85)" width="16.75" xlink:href="#decoration184-sprite2"/>
      <use height="20.5" transform="matrix(1.0, 0.0, 0.0, 1.0, 104.8, 25.95)" width="16.75" xlink:href="#decoration184-sprite2"/>
      <use height="20.5" transform="matrix(-0.9258, 0.3781, 0.3781, 0.9258, 127.4739, 18.9481)" width="16.75" xlink:href="#decoration184-sprite2"/>
      <use height="20.5" transform="matrix(1.3488, 0.0, 0.0, 1.0, 35.2256, 27.2)" width="16.75" xlink:href="#decoration184-sprite2"/>
      <use height="20.5" transform="matrix(0.5884, 0.0, 0.0, 0.7436, 14.7058, 31.3282)" width="16.75" xlink:href="#decoration184-sprite2"/>
      <use height="20.5" transform="matrix(0.9416, 0.2602, -0.2663, 0.9639, 4.8623, 21.188)" width="16.75" xlink:href="#decoration184-sprite2"/>
      <use height="20.75" transform="matrix(-0.6831, 0.2285, 0.3172, 0.9484, 45.683, 16.7616)" width="15.25" xlink:href="#decoration184-sprite3"/>
      <use height="20.75" transform="matrix(-1.4038, 0.3757, 0.2781, 1.0392, 91.4128, 21.6426)" width="15.25" xlink:href="#decoration184-sprite3"/>
      <use height="20.75" transform="matrix(-1.0, 0.0, 0.0, 1.0, 36.75, 25.95)" width="15.25" xlink:href="#decoration184-sprite3"/>
      <use height="20.75" transform="matrix(-0.6127, 0.0, 0.0, 0.6717, 100.8063, 22.1141)" width="15.25" xlink:href="#decoration184-sprite3"/>
      <use height="20.75" transform="matrix(0.9223, 0.3864, -0.3864, 0.9223, 57.882, 22.8456)" width="15.25" xlink:href="#decoration184-sprite3"/>
      <use height="20.75" transform="matrix(0.9066, 0.4219, -0.4219, 0.9066, 11.1077, 13.6857)" width="15.25" xlink:href="#decoration184-sprite3"/>
      <use height="20.75" transform="matrix(1.0, 0.0, 0.0, 1.0, 30.05, 18.0)" width="15.25" xlink:href="#decoration184-sprite3"/>
      <use height="20.75" transform="matrix(0.8169, -0.5768, 0.5768, 0.8169, 37.9532, 22.4299)" width="15.25" xlink:href="#decoration184-sprite3"/>
      <use height="20.75" transform="matrix(0.9067, 0.4218, -0.4218, 0.9067, 87.3576, 11.5858)" width="15.25" xlink:href="#decoration184-sprite3"/>
      <use height="20.75" transform="matrix(0.8831, -0.4691, 0.4691, 0.8831, 101.3239, 22.543)" width="15.25" xlink:href="#decoration184-sprite3"/>
      <use height="20.75" transform="matrix(0.9903, -0.1389, 0.1389, 0.9903, 63.1354, 26.2243)" width="15.25" xlink:href="#decoration184-sprite3"/>
      <use height="20.75" transform="matrix(-0.966, 0.2584, 0.2584, 0.966, 108.0538, 12.2878)" width="15.25" xlink:href="#decoration184-sprite3"/>
      <use height="20.75" transform="matrix(-0.997, 0.5239, 0.5239, 0.997, 127.2366, 6.1896)" width="15.25" xlink:href="#decoration184-sprite3"/>
      <use height="20.75" transform="matrix(-0.8223, -0.5691, -0.5691, 0.8223, 90.8457, 17.7234)" width="15.25" xlink:href="#decoration184-sprite3"/>
      <use height="20.75" transform="matrix(-1.0, 0.0, 0.0, 1.0, 27.75, 18.45)" width="15.25" xlink:href="#decoration184-sprite3"/>
      <use height="20.75" transform="matrix(-0.3706, 0.9288, 0.9288, 0.3706, 109.1709, 9.1003)" width="15.25" xlink:href="#decoration184-sprite3"/>
      <use height="20.5" transform="matrix(0.9662, 0.2578, -0.2578, 0.9662, 22.4458, 9.838)" width="16.75" xlink:href="#decoration184-sprite2"/>
      <use height="20.5" transform="matrix(0.9715, 0.2369, -0.2369, 0.9715, 55.9827, 10.7958)" width="16.75" xlink:href="#decoration184-sprite2"/>
      <use height="16.7" transform="matrix(0.5553, 0.3997, -0.5842, 0.8116, 53.1645, 12.3943)" width="20.0" xlink:href="#decoration184-sprite4"/>
      <use height="20.5" transform="matrix(-0.5596, 0.6778, 0.7712, 0.6366, 41.9942, 6.5928)" width="16.75" xlink:href="#decoration184-sprite2"/>
      <use height="16.7" transform="matrix(1.1952, -0.3759, 0.3134, 0.9965, 106.1957, 9.9897)" width="20.0" xlink:href="#decoration184-sprite4"/>
      <use height="16.7" transform="matrix(0.9469, 0.3215, -0.3215, 0.9469, 99.3873, 7.3658)" width="20.0" xlink:href="#decoration184-sprite4"/>
      <use height="16.7" transform="matrix(0.9207, 0.6499, -0.6971, 0.9876, 69.2882, 11.5313)" width="20.0" xlink:href="#decoration184-sprite4"/>
      <use height="16.7" transform="matrix(-0.943, -0.3328, -0.3328, 0.943, 27.8879, 10.8449)" width="20.0" xlink:href="#decoration184-sprite4"/>
      <use height="16.7" transform="matrix(0.6396, -0.7687, 0.7687, 0.6396, 83.7958, 14.6645)" width="20.0" xlink:href="#decoration184-sprite4"/>
      <use height="10.0" transform="matrix(-1.5332, -0.2211, -0.1427, 0.9897, 60.838, 7.5657)" width="26.5" xlink:href="#decoration184-sprite1"/>
      <use height="16.7" transform="matrix(-0.3951, -0.9186, -0.9186, 0.3951, 42.6069, 20.0118)" width="20.0" xlink:href="#decoration184-sprite4"/>
      <use height="10.0" transform="matrix(0.9308, -0.3656, 0.319, 0.8119, 47.1751, 11.3768)" width="26.5" xlink:href="#decoration184-sprite1"/>
      <use height="16.7" transform="matrix(-1.0, 0.0, 0.0, 1.0, 70.0, 8.45)" width="20.0" xlink:href="#decoration184-sprite4"/>
      <use height="10.0" transform="matrix(0.9969, -0.0779, 0.1081, 1.3846, 75.4475, 5.1966)" width="26.5" xlink:href="#decoration184-sprite1"/>
      <use height="16.7" transform="matrix(1.0709, -0.2514, 0.243, 1.0351, 63.0431, 9.2581)" width="20.0" xlink:href="#decoration184-sprite4"/>
    </g>
    <g id="decoration184-sprite1" transform="matrix(1.0, 0.0, 0.0, 1.0, 0.5, 0.5)">
      <use height="10.0" transform="matrix(1.0, 0.0, 0.0, 1.0, -0.5, -0.5)" width="26.5" xlink:href="#decoration184-shape1"/>
    </g>
    <g id="decoration184-shape1" transform="matrix(1.0, 0.0, 0.0, 1.0, 0.5, 0.5)">
      <path d="M0.0 7.95 L0.0 6.75 Q3.35 2.4 12.75 2.1 L19.7 1.85 Q23.25 1.45 25.0 0.0 L25.5 0.0 25.5 1.25 Q25.3 2.4 24.45 3.6 21.55 6.05 16.2 6.15 11.5 4.95 4.0 5.9 2.2 6.7 0.0 7.95 M13.75 4.25 L8.3 4.55 Q6.55 4.75 4.0 5.9 6.55 4.75 8.3 4.55 L13.75 4.25" fill="#8be760" fill-rule="evenodd" stroke="none"/>
      <path d="M24.45 3.6 Q23.35 5.0 21.2 6.4 17.3 9.0 13.65 9.0 L8.9 8.4 3.9 7.75 2.35 8.0 0.75 8.25 0.0 8.1 0.0 7.95 Q2.2 6.7 4.0 5.9 11.5 4.95 16.2 6.15 21.55 6.05 24.45 3.6" fill="#6aa54e" fill-rule="evenodd" stroke="none"/>
      <path d="M0.0 7.95 L0.0 6.75 Q3.35 2.4 12.75 2.1 L19.7 1.85 Q23.25 1.45 25.0 0.0 L25.5 0.0 25.5 1.25 Q25.3 2.4 24.45 3.6 23.35 5.0 21.2 6.4 17.3 9.0 13.65 9.0 L8.9 8.4 3.9 7.75 2.35 8.0 0.75 8.25 0.0 8.25 0.0 8.1 0.0 7.95 Q2.2 6.7 4.0 5.9 6.55 4.75 8.3 4.55 L13.75 4.25 M0.75 8.25 L0.0 8.1" fill="none" stroke="#000000" stroke-linecap="round" stroke-linejoin="round" stroke-opacity="0.4" stroke-width="1.0"/>
    </g>
    <g id="decoration184-sprite2" transform="matrix(1.0, 0.0, 0.0, 1.0, 0.5, 0.5)">
      <use height="20.5" transform="matrix(1.0, 0.0, 0.0, 1.0, -0.5, -0.5)" width="16.75" xlink:href="#decoration184-shape2"/>
    </g>
    <g id="decoration184-shape2" transform="matrix(1.0, 0.0, 0.0, 1.0, 0.5, 0.5)">
      <path d="M6.2 13.2 Q12.5 10.9 11.7 15.55 L5.65 19.5 Q4.45 19.5 2.25 15.75 L0.85 12.9 Q3.2 10.15 6.2 13.2 L6.25 14.75 6.2 13.2" fill="#8be760" fill-rule="evenodd" stroke="none"/>
      <path d="M9.5 3.0 Q10.0 2.15 11.05 1.4 12.0 0.75 12.5 0.75 14.1 0.75 15.0 2.25 15.75 3.55 15.75 5.5 15.75 7.75 15.15 10.05 14.55 12.5 13.5 14.0 L11.7 15.55 Q12.5 10.9 6.2 13.2 6.15 10.95 6.5 8.75 7.15 4.65 9.5 3.0 7.15 4.65 6.5 8.75 6.15 10.95 6.2 13.2 3.2 10.15 0.85 12.9 0.0 10.75 0.0 9.0 0.0 6.6 1.75 3.5 3.75 0.0 6.15 0.0 L7.5 0.1 Q8.4 0.4 9.5 3.0" fill="#6aa54e" fill-rule="evenodd" stroke="none"/>
      <path d="M11.7 15.55 L13.5 14.0 Q14.55 12.5 15.15 10.05 15.75 7.75 15.75 5.5 15.75 3.55 15.0 2.25 14.1 0.75 12.5 0.75 12.0 0.75 11.05 1.4 10.0 2.15 9.5 3.0 7.15 4.65 6.5 8.75 6.15 10.95 6.2 13.2 L6.25 14.75 M11.7 15.55 L5.65 19.5 Q4.45 19.5 2.25 15.75 L0.85 12.9 Q0.0 10.75 0.0 9.0 0.0 6.6 1.75 3.5 3.75 0.0 6.15 0.0 L7.5 0.1 Q8.4 0.4 9.5 3.0" fill="none" stroke="#000000" stroke-linecap="round" stroke-linejoin="round" stroke-opacity="0.4" stroke-width="1.0"/>
    </g>
    <g id="decoration184-sprite3" transform="matrix(1.0, 0.0, 0.0, 1.0, 0.5, 0.5)">
      <use height="20.75" transform="matrix(1.0, 0.0, 0.0, 1.0, -0.5, -0.5)" width="15.25" xlink:href="#decoration184-shape3"/>
    </g>
    <g id="decoration184-shape3" transform="matrix(1.0, 0.0, 0.0, 1.0, 0.5, 0.5)">
      <path d="M12.65 11.5 L11.25 14.0 Q8.15 18.75 7.75 19.75 4.75 17.25 2.6 14.2 1.25 12.3 0.65 10.65 1.8 8.65 5.5 9.55 L5.55 9.55 5.6 10.4 Q5.7 11.4 6.25 12.25 5.7 11.4 5.6 10.4 L5.55 9.55 Q10.45 7.25 12.65 11.5" fill="#8be760" fill-rule="evenodd" stroke="none"/>
      <path d="M0.65 10.65 Q0.0 9.1 0.0 7.75 0.0 5.35 1.8 2.75 3.65 0.0 5.65 0.0 6.3 0.0 7.0 1.0 L8.6 0.65 10.0 0.25 Q11.65 0.25 13.0 2.5 14.25 4.55 14.25 6.4 14.25 8.25 12.65 11.5 10.45 7.25 5.55 9.55 L5.5 9.55 Q1.8 8.65 0.65 10.65 M7.0 1.0 L6.15 4.6 Q5.5 7.4 5.5 8.4 L5.55 9.55 5.5 8.4 Q5.5 7.4 6.15 4.6 L7.0 1.0" fill="#6aa54e" fill-rule="evenodd" stroke="none"/>
      <path d="M0.65 10.65 Q0.0 9.1 0.0 7.75 0.0 5.35 1.8 2.75 3.65 0.0 5.65 0.0 6.3 0.0 7.0 1.0 L8.6 0.65 10.0 0.25 Q11.65 0.25 13.0 2.5 14.25 4.55 14.25 6.4 14.25 8.25 12.65 11.5 L11.25 14.0 Q8.15 18.75 7.75 19.75 4.75 17.25 2.6 14.2 1.25 12.3 0.65 10.65 M5.5 9.55 L5.55 9.55 5.5 8.4 Q5.5 7.4 6.15 4.6 L7.0 1.0 M5.55 9.55 L5.6 10.4 Q5.7 11.4 6.25 12.25" fill="none" stroke="#000000" stroke-linecap="round" stroke-linejoin="round" stroke-opacity="0.4" stroke-width="1.0"/>
    </g>
    <g id="decoration184-sprite4" transform="matrix(1.0, 0.0, 0.0, 1.0, 0.5, 0.5)">
      <use height="16.7" transform="matrix(1.0, 0.0, 0.0, 1.0, -0.5, -0.5)" width="20.0" xlink:href="#decoration184-shape4"/>
    </g>
    <g id="decoration184-shape4" transform="matrix(1.0, 0.0, 0.0, 1.0, 0.5, 0.5)">
      <path d="M12.45 9.65 L12.5 9.7 Q12.75 6.4 14.95 5.6 17.5 8.6 19.0 13.45 L19.0 15.7 16.25 15.7 Q10.25 14.85 6.95 13.65 4.75 12.8 3.25 11.8 7.0 6.75 12.45 9.65 M13.75 11.2 L12.5 9.7 13.75 11.2" fill="#8be760" fill-rule="evenodd" stroke="none"/>
      <path d="M12.5 9.7 L12.45 9.65 9.3 6.05 Q5.65 2.2 1.7 0.65 5.65 2.2 9.3 6.05 L12.45 9.65 Q7.0 6.75 3.25 11.8 0.0 9.6 0.0 6.45 0.0 2.05 1.7 0.65 L2.15 0.35 Q4.1 -0.65 8.75 1.2 12.2 2.6 14.55 5.15 L14.95 5.6 Q12.75 6.4 12.5 9.7" fill="#6aa54e" fill-rule="evenodd" stroke="none"/>
      <path d="M12.45 9.65 L12.5 9.7 13.75 11.2 M14.95 5.6 L14.55 5.15 Q12.2 2.6 8.75 1.2 4.1 -0.65 2.15 0.35 L1.7 0.65 Q5.65 2.2 9.3 6.05 L12.45 9.65 M3.25 11.8 Q4.75 12.8 6.95 13.65 10.25 14.85 16.25 15.7 L19.0 15.7 19.0 13.45 Q17.5 8.6 14.95 5.6 M1.7 0.65 Q0.0 2.05 0.0 6.45 0.0 9.6 3.25 11.8" fill="none" stroke="#000000" stroke-linecap="round" stroke-linejoin="round" stroke-opacity="0.4" stroke-width="1.0"/>
    </g>
    <g id="decoration184-sprite5" transform="matrix(1.0, 0.0, 0.0, 1.0, 0.6, 0.7)">
      <use height="10.0" transform="matrix(1.0, 0.0, 0.0, 1.0, 17.25, 2.85)" width="26.5" xlink:href="#decoration184-sprite1"/>
      <use height="20.5" transform="matrix(-0.8299, 0.8963, 0.6585, 0.6097, 100.0357, 23.897)" width="16.75" xlink:href="#decoration184-sprite2"/>
      <use height="20.5" transform="matrix(-0.7032, -0.1201, -0.1684, 0.9857, 101.1858, 24.1672)" width="16.75" xlink:href="#decoration184-sprite2"/>
      <use height="20.5" transform="matrix(1.443, 0.0, 0.0, 1.0, 59.2785, 16.85)" width="16.75" xlink:href="#decoration184-sprite2"/>
      <use height="20.5" transform="matrix(1.0, 0.0, 0.0, 1.0, 104.8, 25.95)" width="16.75" xlink:href="#decoration184-sprite2"/>
      <use height="20.5" transform="matrix(-0.9258, 0.3781, 0.3781, 0.9258, 127.4739, 18.9481)" width="16.75" xlink:href="#decoration184-sprite2"/>
      <use height="20.5" transform="matrix(1.3488, 0.0, 0.0, 1.0, 35.2256, 27.2)" width="16.75" xlink:href="#decoration184-sprite2"/>
      <use height="20.5" transform="matrix(0.5884, 0.0, 0.0, 0.7436, 14.7058, 31.3282)" width="16.75" xlink:href="#decoration184-sprite2"/>
      <use height="20.5" transform="matrix(0.9416, 0.2602, -0.2663, 0.9639, 4.8623, 21.188)" width="16.75" xlink:href="#decoration184-sprite2"/>
      <use height="20.75" transform="matrix(-0.6831, 0.2285, 0.3172, 0.9484, 45.683, 16.7616)" width="15.25" xlink:href="#decoration184-sprite3"/>
      <use height="20.75" transform="matrix(-1.4038, 0.3757, 0.2781, 1.0392, 91.4128, 21.6426)" width="15.25" xlink:href="#decoration184-sprite3"/>
      <use height="20.75" transform="matrix(-1.0, 0.0, 0.0, 1.0, 36.75, 25.95)" width="15.25" xlink:href="#decoration184-sprite3"/>
      <use height="20.75" transform="matrix(-0.6127, 0.0, 0.0, 0.6717, 100.8063, 22.1141)" width="15.25" xlink:href="#decoration184-sprite3"/>
      <use height="20.75" transform="matrix(0.9223, 0.3864, -0.3864, 0.9223, 57.882, 22.8456)" width="15.25" xlink:href="#decoration184-sprite3"/>
      <use height="20.75" transform="matrix(0.9066, 0.4219, -0.4219, 0.9066, 11.1077, 13.6857)" width="15.25" xlink:href="#decoration184-sprite3"/>
      <use height="20.75" transform="matrix(1.0, 0.0, 0.0, 1.0, 30.05, 18.0)" width="15.25" xlink:href="#decoration184-sprite3"/>
      <use height="20.75" transform="matrix(0.8169, -0.5768, 0.5768, 0.8169, 37.9532, 22.4299)" width="15.25" xlink:href="#decoration184-sprite3"/>
      <use height="20.75" transform="matrix(0.9067, 0.4218, -0.4218, 0.9067, 87.3576, 11.5858)" width="15.25" xlink:href="#decoration184-sprite3"/>
      <use height="20.75" transform="matrix(0.8831, -0.4691, 0.4691, 0.8831, 101.3239, 22.543)" width="15.25" xlink:href="#decoration184-sprite3"/>
      <use height="20.75" transform="matrix(0.9903, -0.1389, 0.1389, 0.9903, 63.1354, 26.2243)" width="15.25" xlink:href="#decoration184-sprite3"/>
      <use height="20.75" transform="matrix(-0.966, 0.2584, 0.2584, 0.966, 108.0538, 12.2878)" width="15.25" xlink:href="#decoration184-sprite3"/>
      <use height="20.75" transform="matrix(-0.997, 0.5239, 0.5239, 0.997, 127.2366, 6.1896)" width="15.25" xlink:href="#decoration184-sprite3"/>
      <use height="20.75" transform="matrix(-0.8223, -0.5691, -0.5691, 0.8223, 90.8457, 17.7234)" width="15.25" xlink:href="#decoration184-sprite3"/>
      <use height="20.75" transform="matrix(-1.0, 0.0, 0.0, 1.0, 27.75, 18.45)" width="15.25" xlink:href="#decoration184-sprite3"/>
      <use height="20.75" transform="matrix(-0.3706, 0.9288, 0.9288, 0.3706, 109.1709, 9.1003)" width="15.25" xlink:href="#decoration184-sprite3"/>
      <use height="20.5" transform="matrix(0.9662, 0.2578, -0.2578, 0.9662, 22.4458, 9.838)" width="16.75" xlink:href="#decoration184-sprite2"/>
      <use height="20.5" transform="matrix(0.9715, 0.2369, -0.2369, 0.9715, 55.9827, 10.7958)" width="16.75" xlink:href="#decoration184-sprite2"/>
      <use height="16.7" transform="matrix(0.5553, 0.3997, -0.5842, 0.8116, 53.1645, 12.3943)" width="20.0" xlink:href="#decoration184-sprite4"/>
      <use height="20.5" transform="matrix(-0.5596, 0.6778, 0.7712, 0.6366, 41.9942, 6.5928)" width="16.75" xlink:href="#decoration184-sprite2"/>
      <use height="16.7" transform="matrix(1.1952, -0.3759, 0.3134, 0.9965, 106.1957, 9.9897)" width="20.0" xlink:href="#decoration184-sprite4"/>
      <use height="16.7" transform="matrix(0.9469, 0.3215, -0.3215, 0.9469, 99.3873, 7.3658)" width="20.0" xlink:href="#decoration184-sprite4"/>
      <use height="16.7" transform="matrix(0.9207, 0.6499, -0.6971, 0.9876, 69.2882, 11.5313)" width="20.0" xlink:href="#decoration184-sprite4"/>
      <use height="16.7" transform="matrix(-0.943, -0.3328, -0.3328, 0.943, 27.8879, 10.8449)" width="20.0" xlink:href="#decoration184-sprite4"/>
      <use height="16.7" transform="matrix(0.6396, -0.7687, 0.7687, 0.6396, 83.7958, 14.6645)" width="20.0" xlink:href="#decoration184-sprite4"/>
      <use height="10.0" transform="matrix(-1.5332, -0.2211, -0.1427, 0.9897, 60.838, 7.5657)" width="26.5" xlink:href="#decoration184-sprite1"/>
      <use height="16.7" transform="matrix(-0.3951, -0.9186, -0.9186, 0.3951, 42.6069, 20.0118)" width="20.0" xlink:href="#decoration184-sprite4"/>
      <use height="10.0" transform="matrix(0.9308, -0.3656, 0.319, 0.8119, 47.1751, 11.3768)" width="26.5" xlink:href="#decoration184-sprite1"/>
      <use height="16.7" transform="matrix(-1.0, 0.0, 0.0, 1.0, 70.0, 8.45)" width="20.0" xlink:href="#decoration184-sprite4"/>
      <use height="10.0" transform="matrix(0.9969, -0.0779, 0.1081, 1.3846, 75.4475, 5.1966)" width="26.5" xlink:href="#decoration184-sprite1"/>
      <use height="16.7" transform="matrix(1.0709, -0.2514, 0.243, 1.0351, 63.0431, 9.2581)" width="20.0" xlink:href="#decoration184-sprite4"/>
    </g>
    <g id="decoration184-shape5" transform="matrix(1.0, 0.0, 0.0, 1.0, 39.75, 67.4)">
      <path d="M-38.95 -60.3 L-38.6 -60.85 -36.45 -63.75 Q-34.0 -67.25 -32.2 -66.9 -29.2 -65.7 -25.7 -65.7 L-24.55 -65.9 -23.9 -66.15 -18.65 -66.15 Q-16.6 -66.15 -14.6 -65.4 -12.55 -64.65 -11.9 -64.65 -3.55 -64.65 -2.0 -65.4 -0.45 -66.15 0.5 -66.15 2.65 -66.15 4.75 -64.3 L6.45 -62.4 9.3 -62.4 15.1 -63.75 20.95 -64.8 Q23.3 -64.8 24.95 -63.7 26.6 -62.6 26.75 -62.6 L28.7 -62.9 31.8 -63.2 Q35.85 -63.2 38.55 -60.7 40.25 -59.15 40.6 -57.85 L40.55 -57.85 Q39.45 -56.7 37.65 -56.7 L32.35 -57.55 27.8 -58.4 Q26.45 -58.4 24.8 -57.8 23.1 -57.2 21.95 -57.2 16.35 -57.2 13.05 -58.65 11.4 -59.4 10.25 -60.15 7.85 -60.15 5.45 -59.35 L2.75 -58.55 Q1.9 -58.55 0.75 -59.2 -0.45 -59.9 -1.35 -59.9 -3.75 -59.9 -7.05 -57.85 -10.4 -55.85 -13.8 -55.85 -15.65 -55.85 -20.25 -58.65 -24.9 -61.5 -26.6 -61.5 -28.6 -61.5 -31.5 -60.45 -34.4 -59.4 -35.55 -59.4 L-38.35 -59.75 -38.95 -60.3" fill="#f2f7f8" fill-rule="evenodd" stroke="none"/>
      <path d="M40.6 -57.85 L40.65 -57.25 Q40.65 -56.35 39.9 -55.25 38.9 -53.9 37.5 -53.9 L35.65 -54.2 Q34.3 -54.2 33.25 -53.65 32.25 -53.1 29.5 -53.1 L25.1 -53.7 22.2 -54.35 19.55 -54.05 16.2 -53.75 Q13.9 -53.75 10.95 -54.95 8.75 -55.85 7.95 -56.55 L5.55 -56.55 4.65 -55.65 Q4.2 -55.25 3.1 -55.25 1.8 -55.25 -0.35 -56.3 -2.0 -57.1 -2.55 -57.6 L-5.0 -57.6 Q-6.8 -57.2 -8.3 -55.55 -9.7 -53.95 -12.2 -53.55 L-16.95 -53.55 Q-17.95 -53.75 -22.3 -55.7 L-26.8 -57.6 Q-29.65 -57.6 -31.8 -56.35 -33.95 -55.1 -35.85 -55.1 -38.75 -55.1 -39.5 -56.4 L-39.75 -58.2 Q-39.75 -59.0 -38.95 -60.3 L-38.35 -59.75 -35.55 -59.4 Q-34.4 -59.4 -31.5 -60.45 -28.6 -61.5 -26.6 -61.5 -24.9 -61.5 -20.25 -58.65 -15.65 -55.85 -13.8 -55.85 -10.4 -55.85 -7.05 -57.85 -3.75 -59.9 -1.35 -59.9 -0.45 -59.9 0.75 -59.2 1.9 -58.55 2.75 -58.55 L5.45 -59.35 Q7.85 -60.15 10.25 -60.15 11.4 -59.4 13.05 -58.65 16.35 -57.2 21.95 -57.2 23.1 -57.2 24.8 -57.8 26.45 -58.4 27.8 -58.4 L32.35 -57.55 37.65 -56.7 Q39.45 -56.7 40.55 -57.85 L40.6 -57.85" fill="#bbd1d7" fill-rule="evenodd" stroke="none"/>
      <path d="M11.8 -62.85 Q11.5 -63.35 11.95 -63.75 12.4 -64.15 12.7 -63.6 12.95 -63.05 12.55 -62.75 L11.8 -62.85 M10.3 -62.5 Q10.0 -62.25 9.7 -62.65 9.45 -63.0 9.75 -63.1 L10.35 -63.0 Q10.6 -62.8 10.3 -62.5 M14.0 -63.75 Q13.85 -64.0 14.1 -64.15 L14.4 -64.05 14.3 -63.7 14.0 -63.75 M18.45 -64.45 Q18.15 -64.9 18.5 -65.05 L19.2 -64.9 Q19.5 -64.65 19.1 -64.3 18.75 -64.0 18.45 -64.45 M16.7 -64.0 Q16.45 -64.4 16.8 -64.65 17.2 -64.85 17.45 -64.5 17.65 -64.1 17.3 -63.85 16.95 -63.6 16.7 -64.0 M1.9 -65.6 Q1.55 -65.3 1.3 -65.7 1.0 -66.15 1.35 -66.25 L1.95 -66.15 Q2.25 -65.9 1.9 -65.6 M4.55 -64.7 Q4.2 -64.4 3.9 -64.8 3.65 -65.2 4.05 -65.6 4.45 -65.95 4.65 -65.45 4.9 -65.0 4.55 -64.7 M6.0 -62.6 Q5.7 -62.25 5.45 -62.7 5.15 -63.15 5.6 -63.35 L6.15 -63.25 Q6.3 -62.95 6.0 -62.6 M7.5 -63.05 Q8.0 -63.35 8.35 -62.85 8.65 -62.35 8.2 -62.05 7.7 -61.7 7.35 -62.25 7.0 -62.75 7.5 -63.05 M31.75 -62.9 Q31.4 -63.5 31.95 -63.75 L32.7 -63.6 Q32.9 -63.2 32.5 -62.75 32.15 -62.3 31.75 -62.9 M30.55 -62.1 L29.8 -62.2 Q29.5 -62.7 29.95 -63.1 30.4 -63.5 30.7 -62.95 30.95 -62.4 30.55 -62.1 M34.4 -62.6 Q34.15 -63.0 34.55 -63.25 34.95 -63.5 35.2 -63.1 35.45 -62.7 35.1 -62.45 34.7 -62.15 34.4 -62.6 M36.75 -62.1 Q37.0 -61.9 36.7 -61.65 36.45 -61.4 36.2 -61.75 35.95 -62.1 36.25 -62.2 L36.75 -62.1 M21.85 -65.2 Q22.2 -64.5 21.65 -64.1 21.15 -63.7 20.75 -64.25 20.35 -64.85 20.95 -65.35 21.5 -65.9 21.85 -65.2 M24.25 -64.3 Q23.95 -63.95 23.7 -64.4 23.4 -64.85 23.85 -65.05 L24.4 -64.95 24.25 -64.3 M25.25 -63.7 Q25.75 -64.0 26.1 -63.5 26.45 -62.95 25.95 -62.6 25.45 -62.25 25.1 -62.8 24.7 -63.35 25.25 -63.7 M27.2 -62.45 Q26.9 -62.9 27.25 -63.05 L27.95 -62.9 Q28.25 -62.65 27.85 -62.3 27.5 -62.0 27.2 -62.45 M40.3 -59.3 L40.15 -58.65 Q39.85 -58.3 39.6 -58.75 39.3 -59.2 39.75 -59.4 L40.3 -59.3 M38.05 -59.8 Q37.7 -60.35 38.2 -60.8 38.75 -61.25 39.05 -60.65 39.35 -60.05 38.85 -59.65 38.4 -59.3 38.05 -59.8 M-28.9 -65.7 Q-29.2 -65.35 -29.45 -65.8 -29.7 -66.2 -29.3 -66.4 L-28.8 -66.3 Q-28.65 -66.0 -28.9 -65.7 M-26.6 -65.4 Q-26.9 -65.2 -27.15 -65.55 -27.35 -65.85 -27.05 -66.05 L-26.5 -65.95 Q-26.3 -65.65 -26.6 -65.4 M-22.3 -65.55 Q-22.55 -65.95 -22.15 -66.35 -21.75 -66.7 -21.55 -66.2 -21.3 -65.75 -21.65 -65.45 -22.0 -65.15 -22.3 -65.55 M-25.3 -65.9 Q-25.45 -66.15 -25.25 -66.25 L-24.8 -66.15 Q-24.65 -66.0 -24.85 -65.8 -25.1 -65.6 -25.3 -65.9 M-37.3 -61.95 Q-37.05 -61.5 -37.4 -61.2 -37.75 -60.9 -38.05 -61.3 -38.3 -61.7 -37.9 -62.1 -37.5 -62.45 -37.3 -61.95 M-36.05 -63.55 L-36.35 -63.6 Q-36.5 -63.85 -36.25 -64.0 -36.05 -64.1 -35.95 -63.9 L-36.05 -63.55 M-35.6 -65.2 Q-35.35 -65.35 -35.2 -65.1 -35.05 -64.85 -35.25 -64.7 -35.5 -64.55 -35.65 -64.8 -35.8 -65.05 -35.6 -65.2 M-31.5 -66.6 Q-31.75 -66.4 -31.95 -66.7 -32.15 -67.0 -31.85 -67.3 -31.55 -67.55 -31.4 -67.2 -31.2 -66.8 -31.5 -66.6 M-33.45 -66.3 Q-33.85 -65.95 -34.2 -66.45 -34.5 -66.95 -34.1 -67.05 L-33.4 -66.9 Q-33.05 -66.65 -33.45 -66.3 M-39.3 -60.2 Q-39.6 -60.7 -39.2 -60.8 L-38.5 -60.65 Q-38.15 -60.4 -38.55 -60.05 -38.95 -59.7 -39.3 -60.2 M-8.7 -64.25 L-9.3 -64.35 Q-9.5 -64.75 -9.15 -64.95 -8.8 -65.15 -8.6 -64.8 -8.35 -64.45 -8.7 -64.25 M-6.5 -64.05 Q-7.0 -63.6 -7.4 -64.25 -7.85 -64.85 -7.35 -65.05 L-6.4 -64.85 Q-6.0 -64.5 -6.5 -64.05 M-2.15 -65.45 Q-2.45 -65.05 -2.75 -65.55 -3.05 -66.05 -2.6 -66.25 L-1.95 -66.15 Q-1.8 -65.8 -2.15 -65.45 M-0.65 -66.05 Q-0.25 -66.25 0.0 -65.9 0.2 -65.5 -0.15 -65.25 -0.5 -65.0 -0.75 -65.4 -1.0 -65.8 -0.65 -66.05 M-3.95 -65.15 Q-3.65 -64.55 -4.15 -64.15 -4.6 -63.8 -4.95 -64.3 -5.3 -64.85 -4.8 -65.3 -4.25 -65.75 -3.95 -65.15 M-17.5 -65.7 Q-17.85 -65.45 -18.1 -65.85 -18.35 -66.25 -18.0 -66.5 -17.6 -66.7 -17.35 -66.35 -17.15 -65.95 -17.5 -65.7 M-15.65 -65.75 L-14.85 -65.6 Q-14.45 -65.3 -14.95 -64.9 -15.4 -64.5 -15.75 -65.05 -16.15 -65.6 -15.65 -65.75 M-19.5 -65.7 Q-19.7 -65.45 -19.9 -65.8 -20.1 -66.1 -19.8 -66.25 -19.5 -66.4 -19.4 -66.15 -19.3 -65.95 -19.5 -65.7 M-10.8 -65.0 Q-10.65 -64.7 -10.9 -64.4 -11.2 -64.05 -11.45 -64.5 -11.7 -64.9 -11.3 -65.1 L-10.8 -65.0 M-13.2 -65.95 Q-12.75 -66.4 -12.45 -65.85 -12.15 -65.25 -12.6 -64.9 -13.05 -64.55 -13.35 -65.05 -13.7 -65.55 -13.2 -65.95" fill="#ffffff" fill-opacity="0.81960785" fill-rule="evenodd" stroke="none"/>
    </g>
  </defs>
</svg>
