<?xml version="1.0" encoding="UTF-8" standalone="no"?>
<svg xmlns:xlink="http://www.w3.org/1999/xlink" height="69.75px" width="41.2px" xmlns="http://www.w3.org/2000/svg">
  <g transform="matrix(1.0, 0.0, 0.0, 1.0, 20.85, 68.0)">
    <use data-characterId="172" height="36.15" transform="matrix(1.0, 0.0, 0.0, 1.0, -2.75, -36.1)" width="6.7" xlink:href="#decoration186-shape0"/>
    <use data-characterId="174" height="138.9" transform="matrix(-0.0875, 0.0125, 0.0, 0.0827, -3.3542, -12.2291)" width="37.25" xlink:href="#decoration186-sprite0"/>
    <use data-characterId="175" height="140.45" transform="matrix(0.1041, 0.0441, -0.0251, 0.1335, 4.1745, -18.7567)" width="40.4" xlink:href="#decoration186-sprite1"/>
    <use data-characterId="175" height="140.45" transform="matrix(-0.1305, 0.0204, 0.0194, 0.1032, -6.0659, -14.5757)" width="40.4" xlink:href="#decoration186-sprite1"/>
    <use data-characterId="175" height="140.45" transform="matrix(-0.1344, 0.0062, 0.0035, 0.0863, -0.2329, -11.7291)" width="40.4" xlink:href="#decoration186-sprite1"/>
    <use data-characterId="174" height="138.9" transform="matrix(0.0875, 0.0125, 0.0, 0.0827, -1.0458, -10.8291)" width="37.25" xlink:href="#decoration186-sprite0"/>
    <use data-characterId="175" height="140.45" transform="matrix(0.088, 0.0362, -0.0145, 0.0773, 5.6259, -10.6292)" width="40.4" xlink:href="#decoration186-sprite1"/>
    <use data-characterId="176" height="33.75" transform="matrix(1.0, 0.0, 0.0, 1.0, -20.85, -68.0)" width="41.2" xlink:href="#decoration186-shape2"/>
  </g>
  <defs>
    <g id="decoration186-shape0" transform="matrix(1.0, 0.0, 0.0, 1.0, 2.75, 36.1)">
      <path d="M0.45 -24.8 L0.45 -31.8 0.45 -24.8 M2.3 -17.35 L-0.45 -16.4 -2.55 -15.6 -2.55 -35.9 3.75 -35.9 3.75 -17.45 2.3 -17.35 2.3 -18.75 2.3 -17.35" fill="#4f2d04" fill-rule="evenodd" stroke="none"/>
      <path d="M2.35 -15.8 L0.3 -14.7 -1.5 -13.45 -2.55 -12.75 -2.55 -15.6 -0.45 -16.4 2.3 -17.35 2.35 -15.8 2.3 -17.35 3.75 -17.45 3.75 -15.6 2.35 -15.8 M-1.55 -15.15 L-1.5 -13.45 -1.55 -15.15" fill="#6d3d03" fill-rule="evenodd" stroke="none"/>
      <path d="M-1.5 -13.45 L0.3 -14.7 2.35 -15.8 3.75 -15.6 3.75 -7.05 2.65 -9.5 3.3 -1.7 2.65 -2.7 1.9 -2.05 Q1.45 -5.45 1.05 -6.6 L-0.6 -2.0 -1.15 -0.85 -2.55 -2.65 -2.55 -3.55 -2.55 -12.75 -1.5 -13.45 -1.4 -11.9 -1.25 -9.65 -1.1 -7.15 -1.25 -9.65 -1.4 -11.9 -1.5 -13.45 M2.55 -10.2 L2.35 -15.8 2.55 -10.2 M2.2 -5.85 L1.9 -2.05 2.2 -5.85" fill="#884e09" fill-rule="evenodd" stroke="none"/>
      <path d="M-0.6 -2.0 L1.05 -6.6 Q1.45 -5.45 1.9 -2.05 L2.65 -2.7 3.3 -1.7 2.65 -9.5 3.75 -7.05 3.75 -0.15 -0.1 -0.15 -2.55 -0.15 -2.55 -2.65 -1.15 -0.85 -0.6 -2.0 -0.1 -0.15 -0.6 -2.0" fill="#4b4f04" fill-rule="evenodd" stroke="none"/>
      <path d="M0.45 -31.8 L0.45 -24.8 M2.35 -15.8 L2.3 -17.35 2.3 -18.75 M-1.5 -13.45 L-1.55 -15.15 M-0.6 -2.0 L-0.1 -0.15 M1.9 -2.05 L2.2 -5.85 M2.35 -15.8 L2.55 -10.2 M-1.1 -7.15 L-1.25 -9.65 -1.4 -11.9 -1.5 -13.45" fill="none" stroke="#000000" stroke-linecap="round" stroke-linejoin="round" stroke-opacity="0.16862746" stroke-width="0.4"/>
      <path d="M-2.55 -15.6 L-2.55 -12.75 -2.55 -3.55 -2.55 -2.65 -2.55 -0.15 -0.1 -0.15 3.75 -0.15 3.75 -7.05 3.75 -15.6 3.75 -17.45 3.75 -35.9 -2.55 -35.9 -2.55 -15.6 Z" fill="none" stroke="#000000" stroke-linecap="round" stroke-linejoin="round" stroke-opacity="0.3882353" stroke-width="0.4"/>
    </g>
    <g id="decoration186-sprite0" transform="matrix(1.0, 0.0, 0.0, 1.0, 19.95, 114.6)">
      <use data-characterId="173" height="138.9" transform="matrix(1.0, 0.0, 0.0, 1.0, -19.95, -114.6)" width="37.25" xlink:href="#decoration186-shape1"/>
    </g>
    <g id="decoration186-shape1" transform="matrix(1.0, 0.0, 0.0, 1.0, 19.95, 114.6)">
      <path d="M-17.35 24.05 Q-25.2 -29.85 -6.75 -75.15 -0.65 -90.15 7.7 -102.5 13.1 -110.45 17.05 -114.35 11.05 -97.6 6.05 -72.6 -3.9 -22.6 1.15 18.6 -12.3 22.95 -17.35 24.05" fill="url(#decoration186-gradient0)" fill-rule="evenodd" stroke="none"/>
      <path d="M-17.35 24.05 Q-25.2 -29.85 -6.75 -75.15 -0.65 -90.15 7.7 -102.5 13.1 -110.45 17.05 -114.35 11.05 -97.6 6.05 -72.6 -3.9 -22.6 1.15 18.6" fill="none" stroke="url(#decoration186-gradient1)" stroke-linecap="round" stroke-linejoin="round" stroke-width="0.5"/>
    </g>
    <linearGradient gradientTransform="matrix(7.0E-4, 0.0798, -0.0205, -0.0085, -3.45, -52.95)" gradientUnits="userSpaceOnUse" id="decoration186-gradient0" spreadMethod="pad" x1="-819.2" x2="819.2">
      <stop offset="0.0" stop-color="#a7a438"/>
      <stop offset="0.32941176470588235" stop-color="#a3a32d"/>
      <stop offset="0.788235294117647" stop-color="#314b08" stop-opacity="0.8627451"/>
      <stop offset="1.0" stop-color="#5b6609" stop-opacity="0.4509804"/>
    </linearGradient>
    <linearGradient gradientTransform="matrix(-0.0066, 0.0549, -0.0194, -0.04, -4.1, -57.1)" gradientUnits="userSpaceOnUse" id="decoration186-gradient1" spreadMethod="pad" x1="-819.2" x2="819.2">
      <stop offset="0.396078431372549" stop-color="#9b9b17" stop-opacity="0.8509804"/>
      <stop offset="1.0" stop-color="#6b6b1d" stop-opacity="0.0"/>
    </linearGradient>
    <g id="decoration186-sprite1" transform="matrix(1.0, 0.0, 0.0, 1.0, 18.45, 117.2)">
      <use data-characterId="174" height="138.9" transform="matrix(1.0, 0.0, 0.0, 1.0, -18.45, -117.2)" width="37.25" xlink:href="#decoration186-sprite0"/>
      <use data-characterId="174" height="138.9" transform="matrix(0.5411, 0.0, 0.0, 0.5411, 1.8046, -60.2126)" width="37.25" xlink:href="#decoration186-sprite0"/>
      <use data-characterId="174" height="138.9" transform="matrix(-0.5411, 0.0, 0.0, 0.5411, 13.9454, -51.9126)" width="37.25" xlink:href="#decoration186-sprite0"/>
    </g>
    <g id="decoration186-shape2" transform="matrix(1.0, 0.0, 0.0, 1.0, 20.85, 68.0)">
      <path d="M16.5 -55.2 L14.45 -55.3 Q13.05 -58.1 12.25 -58.7 13.05 -58.1 14.45 -55.3 L13.5 -55.4 Q12.05 -58.15 11.25 -58.75 12.05 -58.15 13.5 -55.4 L8.0 -55.75 Q7.15 -57.85 5.95 -58.7 L11.25 -58.75 12.25 -58.7 14.7 -57.8 16.5 -55.2 M-12.55 -58.55 L-6.55 -58.6 -5.15 -58.6 5.95 -58.7 Q7.15 -57.85 8.0 -55.75 L-2.95 -56.5 -4.3 -56.55 Q-5.25 -57.95 -6.55 -58.6 -5.25 -57.95 -4.3 -56.55 L-8.95 -56.8 Q-10.95 -58.5 -12.55 -58.55 M-2.95 -56.5 L-4.2 -57.8 -5.15 -58.6 -4.2 -57.8 -2.95 -56.5" fill="#dd3835" fill-rule="evenodd" stroke="none"/>
      <path d="M14.15 -53.05 L15.15 -53.05 17.65 -53.05 18.05 -52.25 15.3 -52.25 15.15 -53.05 15.3 -52.25 14.35 -52.25 9.05 -52.25 8.85 -53.05 9.05 -52.25 -1.25 -52.25 -1.5 -53.1 -1.25 -52.25 -2.35 -52.25 -2.65 -53.1 -2.35 -52.25 -6.05 -52.25 -6.3 -53.05 -6.3 -53.1 -2.65 -53.1 -1.5 -53.1 8.85 -53.05 14.15 -53.05 14.35 -52.3 14.35 -52.25 14.35 -52.3 14.15 -53.05 M18.35 -51.35 L18.6 -50.5 18.6 -50.35 18.75 -49.85 Q18.8 -48.55 15.95 -47.35 L15.05 -46.95 12.4 -46.15 9.85 -45.6 9.8 -46.05 9.2 -51.35 9.8 -46.05 9.85 -45.6 Q5.9 -45.05 0.7 -45.7 L-0.3 -45.8 Q-0.55 -48.95 -1.05 -51.35 -0.55 -48.95 -0.3 -45.8 L-1.35 -46.0 -4.85 -46.6 -5.85 -51.35 -2.15 -51.35 -1.05 -51.35 9.2 -51.35 14.5 -51.35 15.5 -51.35 18.35 -51.35 M14.5 -51.35 L15.05 -46.95 14.5 -51.35 M15.95 -47.35 L15.5 -51.35 15.95 -47.35 M-1.35 -46.0 L-1.35 -46.1 Q-1.6 -49.1 -2.15 -51.35 -1.6 -49.1 -1.35 -46.1 L-1.35 -46.0" fill="#cc2c29" fill-rule="evenodd" stroke="none"/>
      <path d="M14.45 -55.3 L16.5 -55.2 17.65 -53.05 15.15 -53.05 14.15 -53.05 14.15 -53.1 13.5 -55.4 14.15 -53.1 14.15 -53.05 8.85 -53.05 8.0 -55.75 8.85 -53.05 -1.5 -53.1 -2.85 -56.4 -2.95 -56.5 -2.85 -56.4 -1.5 -53.1 -2.65 -53.1 Q-3.35 -55.2 -4.3 -56.55 -3.35 -55.2 -2.65 -53.1 L-6.3 -53.1 Q-7.45 -55.95 -8.95 -56.8 L-4.3 -56.55 -2.95 -56.5 8.0 -55.75 13.5 -55.4 14.45 -55.3 15.15 -53.05 14.45 -55.3 M18.05 -52.25 L18.35 -51.35 15.5 -51.35 14.5 -51.35 9.2 -51.35 9.05 -52.25 9.2 -51.35 -1.05 -51.35 -1.25 -52.25 -1.05 -51.35 -2.15 -51.35 -2.35 -52.25 -2.15 -51.35 -5.85 -51.35 -6.05 -52.25 -2.35 -52.25 -1.25 -52.25 9.05 -52.25 14.35 -52.25 14.5 -51.4 14.5 -51.35 14.5 -51.4 14.35 -52.25 15.3 -52.25 18.05 -52.25 M15.3 -52.25 L15.5 -51.35 15.3 -52.25" fill="#f23e3b" fill-rule="evenodd" stroke="none"/>
      <path d="M19.2 -46.8 Q19.65 -42.75 19.2 -36.3 L16.1 -36.2 15.15 -36.2 9.9 -36.15 9.85 -36.15 -0.2 -36.1 -1.15 -36.1 -1.25 -36.1 -4.65 -36.1 Q-4.4 -39.35 -4.5 -42.55 L-4.75 -45.45 -1.2 -44.9 -0.2 -44.75 0.85 -44.65 9.9 -43.95 15.2 -44.4 16.05 -44.65 16.15 -44.65 Q19.15 -45.45 19.2 -46.8 M9.9 -43.95 Q10.05 -39.9 9.85 -36.15 10.05 -39.9 9.9 -43.95 M-0.2 -36.1 L-0.2 -44.75 -0.2 -36.1 M15.2 -44.4 L15.25 -41.2 15.15 -36.2 15.25 -41.2 15.2 -44.4 M16.1 -36.2 L16.25 -41.3 16.15 -44.65 16.25 -41.3 16.1 -36.2 M-1.25 -36.1 Q-0.85 -40.35 -1.2 -44.9 -0.85 -40.35 -1.25 -36.1" fill="#b01c19" fill-rule="evenodd" stroke="none"/>
      <path d="M18.75 -49.85 L19.2 -46.8 Q19.15 -45.45 16.15 -44.65 L15.95 -47.35 16.15 -44.65 16.05 -44.65 15.2 -44.4 9.9 -43.95 9.85 -45.6 9.9 -43.95 0.85 -44.65 -0.2 -44.75 -0.3 -45.7 -0.3 -45.8 -0.3 -45.7 -0.2 -44.75 -1.2 -44.9 -1.35 -46.0 -0.3 -45.8 0.7 -45.7 Q5.9 -45.05 9.85 -45.6 L12.4 -46.15 15.05 -46.95 15.2 -44.4 15.05 -46.95 15.95 -47.35 Q18.8 -48.55 18.75 -49.85 M-4.85 -34.45 L-20.5 -34.45 -20.35 -36.05 -19.5 -36.05 -4.65 -36.1 -4.85 -34.45 M-1.35 -46.0 L-1.2 -44.9 -4.75 -45.45 -4.85 -46.6 -1.35 -46.0" fill="#bb201d" fill-rule="evenodd" stroke="none"/>
      <path d="M19.2 -36.3 L20.15 -36.3 20.15 -34.45 -4.85 -34.45 -4.65 -36.1 -1.25 -36.1 -1.15 -36.1 -0.2 -36.1 9.85 -36.15 9.9 -36.15 15.15 -36.2 16.1 -36.2 19.2 -36.3" fill="#a11613" fill-rule="evenodd" stroke="none"/>
      <path d="M-12.05 -52.65 L-12.2 -52.65 -12.15 -52.7 -12.2 -52.65 -13.0 -52.65 -13.05 -54.15 Q-13.0 -55.7 -12.4 -55.7 -11.7 -55.9 -11.15 -55.0 -12.05 -54.75 -12.15 -53.7 L-12.15 -52.7 -12.05 -52.65" fill="#ae1f1c" fill-rule="evenodd" stroke="none"/>
      <path d="M-12.05 -52.65 L-12.15 -52.7 -12.15 -53.7 Q-12.05 -54.75 -11.15 -55.0 L-11.0 -52.65 -12.05 -52.65" fill="#961613" fill-rule="evenodd" stroke="none"/>
      <path d="M-19.5 -36.05 L-19.45 -46.6 Q-18.3 -57.65 -12.65 -58.55 L-12.55 -58.55 Q-10.95 -58.5 -8.95 -56.8 -7.45 -55.95 -6.3 -53.1 L-6.3 -53.05 -6.05 -52.25 -5.85 -51.35 -4.85 -46.6 -4.75 -45.45 -4.5 -42.55 Q-4.4 -39.35 -4.65 -36.1 L-19.5 -36.05 M-16.6 -49.55 Q-16.6 -51.15 -15.75 -53.05 L-14.9 -54.65 -15.75 -53.05 Q-16.6 -51.15 -16.6 -49.55 M-12.2 -52.65 L-12.05 -52.65 -11.0 -52.65 -11.15 -55.0 Q-11.7 -55.9 -12.4 -55.7 -13.0 -55.7 -13.05 -54.15 L-13.0 -52.65 -12.2 -52.65 M-18.2 -44.4 Q-17.9 -51.25 -15.2 -56.0 -17.9 -51.25 -18.2 -44.4" fill="url(#decoration186-gradient2)" fill-rule="evenodd" stroke="none"/>
      <path d="M-6.05 -52.25 L-6.3 -53.05 M-12.2 -52.65 L-12.05 -52.65 -11.0 -52.65 -11.15 -55.0 Q-11.7 -55.9 -12.4 -55.7 -13.0 -55.7 -13.05 -54.15 L-13.0 -52.65 -12.2 -52.65 M-4.85 -46.6 L-4.75 -45.45" fill="none" stroke="#000000" stroke-linecap="round" stroke-linejoin="miter-clip" stroke-miterlimit="5.0" stroke-opacity="0.3019608" stroke-width="0.30000000000000004"/>
      <path d="M12.25 -58.7 Q13.05 -58.1 14.45 -55.3 L15.15 -53.05 15.3 -52.25 15.5 -51.35 15.95 -47.35 16.15 -44.65 16.25 -41.3 16.1 -36.2 M13.5 -55.4 L14.15 -53.1 14.15 -53.05 14.35 -52.3 14.35 -52.25 14.5 -51.4 14.5 -51.35 15.05 -46.95 15.2 -44.4 15.25 -41.2 15.15 -36.2 M18.6 -50.5 L18.75 -49.85 M9.05 -52.25 L9.2 -51.35 9.8 -46.05 9.85 -45.6 9.9 -43.95 Q10.05 -39.9 9.85 -36.15 M8.85 -53.05 L9.05 -52.25 M-1.25 -52.25 L-1.05 -51.35 Q-0.55 -48.95 -0.3 -45.8 L-0.3 -45.7 -0.2 -44.75 -0.2 -36.1 M8.0 -55.75 Q7.15 -57.85 5.95 -58.7 M8.85 -53.05 L8.0 -55.75 M-2.95 -56.5 L-2.85 -56.4 -1.5 -53.1 -1.25 -52.25 M11.25 -58.75 Q12.05 -58.15 13.5 -55.4 M-4.3 -56.55 Q-3.35 -55.2 -2.65 -53.1 L-2.35 -52.25 -2.15 -51.35 Q-1.6 -49.1 -1.35 -46.1 L-1.35 -46.0 -1.2 -44.9 Q-0.85 -40.35 -1.25 -36.1 M-4.3 -56.55 Q-5.25 -57.95 -6.55 -58.6 M-5.15 -58.6 L-4.2 -57.8 -2.95 -56.5 M-6.3 -53.05 L-6.3 -53.1 M-14.9 -54.65 L-15.75 -53.05 Q-16.6 -51.15 -16.6 -49.55 M-12.15 -52.7 L-12.2 -52.65 M-15.2 -56.0 Q-17.9 -51.25 -18.2 -44.4" fill="none" stroke="#000000" stroke-linecap="round" stroke-linejoin="miter-clip" stroke-miterlimit="5.0" stroke-opacity="0.3019608" stroke-width="0.1"/>
      <path d="M16.5 -55.2 L14.7 -57.8 12.25 -58.7 11.25 -58.75 5.95 -58.7 -5.15 -58.6 -6.55 -58.6 -12.55 -58.55 -12.65 -58.55 Q-18.3 -57.65 -19.45 -46.6 L-19.5 -36.05 -20.35 -36.05 -20.5 -34.45 -4.85 -34.45 20.15 -34.45 20.15 -36.3 19.2 -36.3 Q19.65 -42.75 19.2 -46.8 L18.75 -49.85 18.6 -50.35 18.6 -50.5 18.35 -51.35 18.05 -52.25 17.65 -53.05 16.5 -55.2 M-6.05 -52.25 L-5.85 -51.35 -4.85 -46.6 M-6.3 -53.1 Q-7.45 -55.95 -8.95 -56.8 -10.95 -58.5 -12.55 -58.55 M-4.75 -45.45 L-4.5 -42.55 Q-4.4 -39.35 -4.65 -36.1" fill="none" stroke="#000000" stroke-linecap="round" stroke-linejoin="miter-clip" stroke-miterlimit="5.0" stroke-opacity="0.3019608" stroke-width="0.4"/>
      <path d="M-19.95 -58.85 L-19.6 -59.4 -17.45 -62.3 Q-15.0 -65.8 -13.2 -65.45 -10.2 -64.25 -6.7 -64.25 L-5.55 -64.45 -4.9 -64.7 0.35 -64.7 Q2.4 -64.7 4.4 -63.95 L7.1 -63.2 11.2 -63.25 Q15.0 -62.55 15.7 -61.2 16.35 -59.85 16.1 -58.9 L11.95 -56.4 Q8.6 -54.4 5.2 -54.4 3.35 -54.4 -1.85 -56.9 -7.05 -59.45 -8.7 -59.85 L-13.15 -59.45 Q-16.0 -58.6 -17.9 -57.25 -19.85 -55.9 -19.85 -57.05 L-19.95 -58.85" fill="#f2f7f8" fill-rule="evenodd" stroke="none"/>
      <path d="M-19.95 -58.85 L-19.85 -57.05 Q-19.85 -55.9 -17.9 -57.25 -16.0 -58.6 -13.15 -59.45 L-8.7 -59.85 Q-7.05 -59.45 -1.85 -56.9 3.35 -54.4 5.2 -54.4 8.6 -54.4 11.95 -56.4 L16.1 -58.9 Q17.35 -57.7 17.2 -56.15 L15.55 -55.35 Q13.35 -55.4 11.35 -53.95 9.3 -52.5 6.8 -52.1 L0.55 -52.45 -3.15 -54.2 -9.05 -56.95 Q-10.7 -57.8 -12.7 -57.65 -14.75 -57.5 -16.9 -55.55 -19.15 -53.65 -19.95 -54.5 -20.75 -55.35 -20.75 -56.75 -20.75 -57.55 -19.95 -58.85" fill="#bbd1d7" fill-rule="evenodd" stroke="none"/>
      <path d="M10.45 -62.95 L9.75 -63.05 Q9.45 -63.35 9.85 -63.6 10.25 -63.9 10.5 -63.5 10.75 -63.1 10.45 -62.95 M1.9 -64.45 L1.2 -64.55 Q0.9 -64.85 1.3 -65.1 L1.95 -65.0 Q2.2 -64.6 1.9 -64.45 M3.7 -63.9 L3.1 -64.0 Q2.85 -64.3 3.3 -64.6 3.7 -64.95 3.9 -64.5 4.15 -64.1 3.7 -63.9 M6.25 -63.45 L5.65 -63.5 Q5.4 -63.85 5.9 -64.1 L6.5 -64.05 Q6.65 -63.7 6.25 -63.45 M7.2 -63.8 Q7.6 -64.1 7.8 -63.6 8.0 -63.15 7.6 -62.9 7.15 -62.65 7.0 -63.1 6.8 -63.5 7.2 -63.8 M-20.55 -59.45 Q-20.15 -59.8 -19.95 -59.35 -19.7 -58.95 -20.15 -58.75 -20.55 -58.55 -20.75 -58.85 -21.0 -59.15 -20.55 -59.45 M-9.95 -63.9 Q-10.3 -63.7 -10.45 -64.05 -10.6 -64.45 -10.25 -64.7 -9.95 -64.9 -9.75 -64.5 -9.6 -64.15 -9.95 -63.9 M-7.35 -64.0 L-7.9 -64.1 Q-8.2 -64.35 -7.85 -64.55 -7.55 -64.8 -7.3 -64.45 -7.1 -64.15 -7.35 -64.0 M-5.55 -64.4 L-5.1 -64.35 Q-4.95 -64.05 -5.25 -63.9 -5.55 -63.8 -5.7 -64.0 L-5.55 -64.4 M-1.35 -64.45 Q-1.6 -65.0 -1.05 -65.35 -0.55 -65.75 -0.3 -65.1 0.0 -64.5 -0.55 -64.2 -1.15 -63.85 -1.35 -64.45 M-3.5 -64.2 Q-3.75 -64.6 -3.25 -64.9 L-2.55 -64.85 Q-2.4 -64.45 -2.8 -64.15 L-3.5 -64.2 M-17.45 -62.3 Q-17.25 -61.85 -17.65 -61.6 -18.1 -61.35 -18.25 -61.8 -18.45 -62.2 -18.05 -62.5 -17.65 -62.8 -17.45 -62.3 M-16.25 -63.8 L-16.95 -63.9 Q-17.25 -64.2 -16.85 -64.45 L-16.2 -64.35 Q-15.95 -63.95 -16.25 -63.8 M-14.0 -65.15 Q-13.8 -64.75 -14.2 -64.6 -14.6 -64.4 -14.8 -64.7 -15.0 -64.95 -14.6 -65.25 -14.2 -65.55 -14.0 -65.15 M-12.5 -64.8 L-13.1 -64.85 Q-13.35 -65.2 -12.85 -65.45 L-12.25 -65.4 Q-12.1 -65.05 -12.5 -64.8 M-18.9 -60.05 Q-19.15 -60.45 -18.65 -60.75 L-17.95 -60.7 Q-17.8 -60.3 -18.2 -60.0 L-18.9 -60.05" fill="#ffffff" fill-opacity="0.81960785" fill-rule="evenodd" stroke="none"/>
      <path d="M0.05 -49.6 L0.15 -49.0 0.05 -48.45 -0.55 -48.35 -1.15 -48.45 -1.25 -49.0 -1.15 -49.6 -0.55 -49.7 0.05 -49.6" fill="#666666" fill-rule="evenodd" stroke="none"/>
      <path d="M6.5 -67.8 L7.7 -67.8 7.8 -61.55 0.3 -63.0 3.3 -63.4 Q6.3 -64.05 6.55 -65.45 L6.5 -67.8 M0.3 -63.0 L0.2 -50.65 0.85 -50.0 1.35 -49.0 Q1.35 -48.25 0.8 -47.7 0.2 -47.15 -0.6 -47.15 -1.4 -47.15 -1.95 -47.7 -2.55 -48.25 -2.55 -49.0 L-2.05 -50.0 -1.4 -50.65 -1.4 -57.95 0.3 -63.0 M0.05 -49.6 L-0.55 -49.7 -1.15 -49.6 -1.25 -49.0 -1.15 -48.45 -0.55 -48.35 0.05 -48.45 0.15 -49.0 0.05 -49.6" fill="#1a1a1a" fill-rule="evenodd" stroke="none"/>
      <path d="M6.5 -67.8 L6.55 -65.45 Q6.3 -64.05 3.3 -63.4 L0.3 -63.0 -1.4 -57.95 -1.5 -66.85 Q-1.5 -67.3 2.15 -67.6 L6.5 -67.8" fill="#1f1f1f" fill-rule="evenodd" stroke="none"/>
      <path d="M0.05 -49.6 L0.15 -49.0 0.05 -48.45 -0.55 -48.35 -1.15 -48.45 -1.25 -49.0 -1.15 -49.6 -0.55 -49.7 0.05 -49.6" fill="none" stroke="#000000" stroke-linecap="round" stroke-linejoin="miter-clip" stroke-miterlimit="5.0" stroke-opacity="0.3019608" stroke-width="0.30000000000000004"/>
      <path d="M0.3 -63.0 L7.8 -61.55 7.7 -67.8 6.5 -67.8 2.15 -67.6 Q-1.5 -67.3 -1.5 -66.85 L-1.4 -57.95 -1.4 -50.65 -2.05 -50.0 -2.55 -49.0 Q-2.55 -48.25 -1.95 -47.7 -1.4 -47.15 -0.6 -47.15 0.2 -47.15 0.8 -47.7 1.35 -48.25 1.35 -49.0 L0.85 -50.0 0.2 -50.65 0.3 -63.0 Z" fill="none" stroke="#000000" stroke-linecap="round" stroke-linejoin="miter-clip" stroke-miterlimit="5.0" stroke-opacity="0.3019608" stroke-width="0.4"/>
    </g>
    <linearGradient gradientTransform="matrix(0.0013, -0.0086, 0.0143, 0.002, -12.0, -47.4)" gradientUnits="userSpaceOnUse" id="decoration186-gradient2" spreadMethod="pad" x1="-819.2" x2="819.2">
      <stop offset="0.0" stop-color="#910f0d"/>
      <stop offset="1.0" stop-color="#bb201d"/>
    </linearGradient>
  </defs>
</svg>
