<?xml version="1.0" encoding="UTF-8" standalone="no"?>
<svg xmlns:xlink="http://www.w3.org/1999/xlink" height="48.45px" width="40.1px" xmlns="http://www.w3.org/2000/svg">
  <g transform="matrix(1.0, 0.0, 0.0, 1.0, 17.95, 46.9)">
    <use height="48.45" transform="matrix(1.0, 0.0, 0.0, 1.0, -17.95, -46.9)" width="40.1" xlink:href="#decoration189-shape0"/>
  </g>
  <defs>
    <g id="decoration189-shape0" transform="matrix(1.0, 0.0, 0.0, 1.0, 17.95, 46.9)">
      <path d="M17.45 -1.25 L18.15 -0.8 Q18.15 -0.25 12.85 0.15 L12.8 0.15 0.25 0.6 -7.9 0.4 -12.45 0.15 Q-17.65 -0.25 -17.65 -0.8 L-14.95 -1.5 -12.2 -1.9 0.25 -2.25 12.85 -1.9 17.45 -1.25" fill="#000000" fill-opacity="0.3019608" fill-rule="evenodd" stroke="none"/>
      <path d="M17.25 -45.1 L19.05 -43.1 Q19.95 -41.95 20.5 -40.6 21.25 -38.9 21.55 -36.85 L20.5 -39.85 Q18.8 -43.6 16.15 -44.25 16.35 -45.2 17.25 -45.1" fill="#79593c" fill-rule="evenodd" stroke="none"/>
      <path d="M21.55 -36.85 L21.65 -35.9 Q22.05 -32.05 20.5 -29.1 L19.85 -28.0 Q17.3 -24.2 11.85 -23.1 12.3 -26.15 11.35 -28.95 10.4 -31.6 8.15 -34.1 8.1 -39.8 9.95 -42.6 11.85 -45.3 16.15 -44.25 18.8 -43.6 20.5 -39.85 L21.55 -36.85 M-7.65 -41.55 Q-9.4 -39.2 -7.65 -35.1 -9.0 -35.3 -10.35 -33.95 -9.1 -33.65 -8.45 -32.95 -11.5 -29.75 -10.8 -24.85 -11.5 -24.75 -12.2 -25.5 L-13.15 -26.7 Q-14.35 -28.95 -14.6 -31.6 L-14.7 -33.95 Q-14.65 -37.05 -13.75 -40.05 L-12.7 -42.85 -12.2 -43.3 Q-10.75 -44.75 -9.75 -44.9 L-9.25 -44.9 Q-7.9 -43.9 -7.65 -41.55" fill="#c79779" fill-rule="evenodd" stroke="none"/>
      <path d="M16.15 -44.25 Q11.85 -45.3 9.95 -42.6 8.1 -39.8 8.15 -34.1 L6.9 -35.05 8.15 -34.1 Q9.3 -26.6 5.65 -23.2 L3.95 -21.9 Q1.75 -20.7 -1.45 -20.35 L-1.6 -20.35 -3.4 -20.3 -4.25 -20.75 -4.25 -22.35 -4.25 -20.75 -5.05 -20.25 -6.2 -20.15 -11.15 -21.75 Q-10.55 -23.1 -10.6 -23.8 L-10.8 -24.85 Q-11.5 -29.75 -8.45 -32.95 -9.1 -33.65 -10.35 -33.95 -9.0 -35.3 -7.65 -35.1 -9.4 -39.2 -7.65 -41.55 -6.35 -37.8 -2.95 -37.05 L0.2 -37.2 2.7 -36.9 5.0 -41.85 Q8.3 -46.65 13.55 -46.5 15.5 -46.5 17.25 -45.1 16.35 -45.2 16.15 -44.25 M3.95 -36.45 L5.55 -35.8 3.95 -36.45 M-6.8 -34.25 L-7.65 -35.1 -6.8 -34.25 M-0.5 -36.5 L-1.2 -36.0 -0.5 -36.5 M-3.8 -32.1 L-4.1 -30.9 -3.8 -32.1 M-2.4 -34.85 L-3.15 -33.75 -2.4 -34.85 M-4.4 -28.95 L-4.45 -27.55 -4.4 -28.95 M-4.4 -26.0 L-4.35 -24.9 -4.4 -26.0 M-6.45 -21.0 Q-6.65 -20.6 -6.4 -20.3 L-6.2 -20.15 -6.4 -20.3 Q-6.65 -20.6 -6.45 -21.0 M-4.25 -22.35 Q-3.25 -22.65 -2.45 -23.6 L-2.85 -23.65 -5.0 -23.7 -5.75 -23.6 -5.3 -23.0 -4.25 -22.35 M-1.45 -21.05 L-1.45 -20.5 -1.5 -20.4 -1.6 -20.35 -1.5 -20.4 -1.45 -20.5 -1.45 -21.05" fill="url(#decoration189-gradient0)" fill-rule="evenodd" stroke="none"/>
      <path d="M11.85 -23.1 L11.45 -22.35 10.1 -20.15 Q8.75 -18.4 7.0 -17.35 11.05 -14.6 9.05 -7.95 L9.0 -7.8 Q9.25 -5.9 8.85 -4.5 L7.9 -2.75 Q6.65 -1.2 4.35 -0.65 -0.7 1.35 -3.65 1.15 -2.35 0.8 -1.85 -0.6 -1.5 -1.55 -1.55 -2.95 -1.5 -1.55 -1.85 -0.6 -2.35 0.8 -3.65 1.15 -6.25 1.0 -7.3 -0.95 L-12.2 -0.15 -14.0 -0.15 Q-12.9 -2.35 -13.2 -4.0 -12.9 -2.35 -14.0 -0.15 -15.55 -0.3 -16.0 -0.95 -17.9 -5.6 -15.55 -7.4 -13.55 -5.9 -13.2 -4.0 L-11.5 -4.05 Q-10.05 -4.2 -9.65 -4.45 -8.85 -2.9 -7.35 -1.5 -7.4 -3.85 -6.5 -5.15 -5.85 -5.95 -4.75 -6.5 -1.9 -6.15 -1.6 -3.25 L-1.55 -2.95 2.15 -3.85 Q4.3 -6.4 -0.1 -6.5 1.7 -7.05 2.2 -8.9 L2.7 -11.9 Q4.75 -12.75 3.85 -15.0 4.75 -15.65 5.0 -16.5 L7.0 -17.35 5.0 -16.5 Q5.25 -17.75 4.3 -18.9 L1.5 -18.55 Q-0.3 -18.0 -1.85 -16.4 L-3.25 -16.85 -4.2 -16.55 Q-6.25 -16.6 -8.75 -17.6 -11.35 -18.65 -11.15 -21.75 L-6.2 -20.15 -5.05 -20.25 -4.25 -20.75 -3.4 -20.3 -1.6 -20.35 -1.45 -20.35 Q1.75 -20.7 3.95 -21.9 L5.65 -23.2 Q9.3 -26.6 8.15 -34.1 10.4 -31.6 11.35 -28.95 12.3 -26.15 11.85 -23.1 M-2.95 -37.05 Q-6.35 -37.8 -7.65 -41.55 -7.9 -43.9 -9.25 -44.9 L-9.75 -44.9 Q-10.75 -44.75 -12.2 -43.3 L-12.7 -42.85 -11.7 -44.1 -10.35 -45.4 -8.85 -45.95 Q-3.2 -46.2 -2.95 -37.05 M4.65 -2.1 L4.35 -0.65 4.65 -2.1 M4.35 -3.45 L4.55 -3.05 4.35 -3.45 M-12.35 -11.05 L-12.05 -10.0 -11.75 -8.4 -12.05 -10.0 -12.35 -11.05 -8.2 -13.95 Q-10.05 -10.85 -10.6 -8.4 L-11.75 -8.4 -13.2 -8.4 Q-13.85 -8.65 -14.5 -10.7 -15.2 -12.85 -14.55 -14.2 -13.0 -12.95 -12.35 -11.05 M-7.35 -1.5 L-7.3 -0.95 -7.35 -1.5" fill="#5b432d" fill-rule="evenodd" stroke="none"/>
      <path d="M2.7 -11.9 L2.2 -8.9 Q1.7 -7.05 -0.1 -6.5 L-3.8 -6.5 Q-0.8 -8.1 0.2 -12.7 1.15 -12.15 2.7 -11.9 M-7.35 -1.5 Q-8.85 -2.9 -9.65 -4.45 L-6.5 -5.15 Q-7.4 -3.85 -7.35 -1.5" fill="#ccac70" fill-rule="evenodd" stroke="none"/>
      <path d="M-4.65 -23.05 L-3.7 -23.05 Q-3.1 -23.3 -3.25 -23.3 -3.25 -23.45 -3.6 -23.45 L-4.75 -23.5 -5.35 -23.4 -5.4 -23.2 -4.65 -23.05 M-4.25 -22.35 L-5.3 -23.0 -5.75 -23.6 -5.0 -23.7 -2.85 -23.65 -2.45 -23.6 Q-3.25 -22.65 -4.25 -22.35" fill="#d7a383" fill-rule="evenodd" stroke="none"/>
      <path d="M-4.65 -23.05 L-5.4 -23.2 -5.35 -23.4 -4.75 -23.5 -3.6 -23.45 Q-3.25 -23.45 -3.25 -23.3 -3.1 -23.3 -3.7 -23.05 L-4.65 -23.05" fill="#ffd4ad" fill-rule="evenodd" stroke="none"/>
      <path d="M-8.9 -16.4 L-8.0 -15.3 -8.2 -13.95 -12.35 -11.05 Q-13.0 -12.95 -14.55 -14.2 L-11.9 -15.4 -8.9 -16.4" fill="url(#decoration189-gradient1)" fill-rule="evenodd" stroke="none"/>
      <path d="M0.2 -12.7 Q-0.8 -8.1 -3.8 -6.5 L-4.75 -6.5 Q-5.85 -5.95 -6.5 -5.15 L-9.65 -4.45 Q-10.65 -6.25 -10.6 -8.4 -10.05 -10.85 -8.2 -13.95 -8.25 -11.5 -4.65 -13.75 L-4.25 -13.5 -1.3 -13.8 Q-0.85 -13.15 0.2 -12.7 M-4.9 -12.8 L-4.65 -13.75 -4.9 -12.8 M-6.5 -6.45 L-6.5 -5.15 -6.5 -6.45 M-7.1 -8.1 L-5.85 -9.0 -5.15 -7.75 -5.85 -9.0 -7.1 -8.1 M-4.6 -9.95 L-5.85 -9.0 -6.6 -10.3 -5.85 -9.0 -4.6 -9.95 M-5.15 -12.0 L-5.35 -11.3 -5.15 -12.0" fill="url(#decoration189-gradient2)" fill-rule="evenodd" stroke="none"/>
      <path d="M-1.85 -15.15 L-1.55 -14.4 -1.65 -14.45 -1.85 -15.15" fill="#900f09" fill-rule="evenodd" stroke="none"/>
      <path d="M-13.2 -8.4 L-11.75 -8.4 -10.6 -8.4 Q-10.65 -6.25 -9.65 -4.45 -10.05 -4.2 -11.5 -4.05 L-13.2 -4.0 Q-13.55 -5.9 -15.55 -7.4 -14.65 -8.1 -13.2 -8.4" fill="url(#decoration189-gradient3)" fill-rule="evenodd" stroke="none"/>
      <path d="M-0.1 -6.5 Q4.3 -6.4 2.15 -3.85 L-1.55 -2.95 -1.6 -3.25 Q-1.9 -6.15 -4.75 -6.5 L-3.8 -6.5 -0.1 -6.5" fill="url(#decoration189-gradient4)" fill-rule="evenodd" stroke="none"/>
      <path d="M17.25 -45.1 L19.05 -43.1 Q19.95 -41.95 20.5 -40.6 21.25 -38.9 21.55 -36.85 L21.65 -35.9 Q22.05 -32.05 20.5 -29.1 L19.85 -28.0 Q17.3 -24.2 11.85 -23.1 L11.45 -22.35 10.1 -20.15 Q8.75 -18.4 7.0 -17.35 11.05 -14.6 9.05 -7.95 M9.0 -7.8 Q9.25 -5.9 8.85 -4.5 13.2 -4.85 12.85 -10.5 12.5 -16.2 15.25 -16.9 17.95 -17.7 19.15 -14.75 M17.25 -45.1 Q15.5 -46.5 13.55 -46.5 8.3 -46.65 5.0 -41.85 L2.7 -36.9 0.2 -37.2 -2.95 -37.05 M-3.65 1.15 Q-0.7 1.35 4.35 -0.65 M5.0 -16.5 L7.0 -17.35 M8.85 -4.5 L7.9 -2.75 Q6.65 -1.2 4.35 -0.65 M-10.8 -24.85 Q-11.5 -24.75 -12.2 -25.5 L-13.15 -26.7 Q-14.35 -28.95 -14.6 -31.6 L-14.7 -33.95 Q-14.65 -37.05 -13.75 -40.05 L-12.7 -42.85 -11.7 -44.1 -10.35 -45.4 -8.85 -45.95 Q-3.2 -46.2 -2.95 -37.05 M-10.8 -24.85 L-10.6 -23.8 Q-10.55 -23.1 -11.15 -21.75 M-14.55 -14.2 L-11.9 -15.4 -8.9 -16.4 M-14.55 -14.2 Q-15.2 -12.85 -14.5 -10.7 -13.85 -8.65 -13.2 -8.4 M-14.0 -0.15 L-12.2 -0.15 -7.3 -0.95 M-15.55 -7.4 Q-14.65 -8.1 -13.2 -8.4 M-14.0 -0.15 Q-15.55 -0.3 -16.0 -0.95 -17.9 -5.6 -15.55 -7.4 M-8.75 -17.6 Q-11.35 -18.65 -11.15 -21.75 M-3.65 1.15 Q-6.25 1.0 -7.3 -0.95" fill="none" stroke="#000000" stroke-linecap="round" stroke-linejoin="round" stroke-opacity="0.3882353" stroke-width="0.8"/>
      <path d="M21.55 -36.85 L20.5 -39.85 Q18.8 -43.6 16.15 -44.25 M-7.65 -35.1 L-6.8 -34.25 M8.15 -34.1 L6.9 -35.05 M5.55 -35.8 L3.95 -36.45 M-1.55 -2.95 Q-1.5 -1.55 -1.85 -0.6 -2.35 0.8 -3.65 1.15 M-12.7 -42.85 L-12.2 -43.3 Q-10.75 -44.75 -9.75 -44.9 L-9.25 -44.9 M-4.35 -24.9 L-4.4 -26.0 M-4.45 -27.55 L-4.4 -28.95 M-3.15 -33.75 L-2.4 -34.85 M-4.1 -30.9 L-3.8 -32.1 M-1.2 -36.0 L-0.5 -36.5 M-4.65 -13.75 L-4.9 -12.8 M-11.75 -8.4 L-12.05 -10.0 -12.35 -11.05 Q-13.0 -12.95 -14.55 -14.2 M-13.2 -4.0 Q-12.9 -2.35 -14.0 -0.15 M-6.5 -5.15 L-6.5 -6.45 M-15.55 -7.4 Q-13.55 -5.9 -13.2 -4.0 M-5.35 -11.3 L-5.15 -12.0 M-4.75 -6.5 Q-1.9 -6.15 -1.6 -3.25 L-1.55 -2.95" fill="none" stroke="#000000" stroke-linecap="round" stroke-linejoin="round" stroke-opacity="0.3882353" stroke-width="0.2"/>
      <path d="M9.05 -7.95 L9.0 -7.8 M16.15 -44.25 Q11.85 -45.3 9.95 -42.6 8.1 -39.8 8.15 -34.1 M-2.95 -37.05 Q-6.35 -37.8 -7.65 -41.55 -9.4 -39.2 -7.65 -35.1 -9.0 -35.3 -10.35 -33.95 -9.1 -33.65 -8.45 -32.95 -11.5 -29.75 -10.8 -24.85 M4.35 -0.65 L4.65 -2.1 M4.55 -3.05 L4.35 -3.45 M-3.8 -6.5 L-0.1 -6.5 M-9.25 -44.9 Q-7.9 -43.9 -7.65 -41.55 M-13.2 -8.4 L-11.75 -8.4 -10.6 -8.4 Q-10.05 -10.85 -8.2 -13.95 M-9.65 -4.45 Q-10.65 -6.25 -10.6 -8.4 M-7.3 -0.95 L-7.35 -1.5 Q-8.85 -2.9 -9.65 -4.45 M-4.75 -6.5 L-3.8 -6.5 M-6.6 -10.3 L-5.85 -9.0 -4.6 -9.95 M-5.15 -7.75 L-5.85 -9.0 -7.1 -8.1 M-7.35 -1.5 Q-7.4 -3.85 -6.5 -5.15 -5.85 -5.95 -4.75 -6.5" fill="none" stroke="#000000" stroke-linecap="round" stroke-linejoin="round" stroke-opacity="0.3882353" stroke-width="0.4"/>
      <path d="M-4.25 -22.35 L-5.3 -23.0 -5.75 -23.6 -5.0 -23.7 -2.85 -23.65 -2.45 -23.6 Q-3.25 -22.65 -4.25 -22.35" fill="none" stroke="#000000" stroke-linecap="round" stroke-linejoin="round" stroke-opacity="0.3882353" stroke-width="0.30000000000000004"/>
      <path d="M-6.2 -20.15 L-6.4 -20.3 Q-6.65 -20.6 -6.45 -21.0 M-4.25 -22.35 L-4.25 -20.75 -3.4 -20.3 -1.6 -20.35 -1.5 -20.4 -1.45 -20.5 -1.45 -21.05 M-6.2 -20.15 L-5.05 -20.25 -4.25 -20.75" fill="none" stroke="#000000" stroke-linecap="round" stroke-linejoin="round" stroke-opacity="0.3882353" stroke-width="0.5"/>
      <path d="M4.35 -22.9 L7.5 -23.45 Q13.05 -24.1 17.85 -22.3 M4.1 -21.7 Q10.7 -21.4 15.85 -18.8 M-10.4 -21.6 L-12.1 -21.05 -15.75 -19.3 M-10.9 -23.2 L-12.1 -23.25 -17.65 -22.4" fill="none" stroke="#000000" stroke-linecap="round" stroke-linejoin="round" stroke-opacity="0.3882353" stroke-width="0.6000000000000001"/>
      <path d="M2.95 -28.85 Q3.65 -28.7 4.1 -28.2 4.95 -27.45 4.95 -26.4 4.95 -25.35 4.1 -24.7 3.35 -23.85 2.3 -23.85 1.15 -23.85 0.35 -24.7 -0.4 -25.35 -0.4 -26.4 L-0.35 -27.0 0.25 -28.0 Q0.25 -27.35 0.9 -27.15 0.65 -25.2 2.05 -25.1 L2.95 -25.15 Q2.95 -24.7 3.35 -24.7 4.0 -24.7 4.0 -25.15 4.0 -25.55 3.6 -25.6 L3.8 -26.7 Q3.6 -27.6 2.95 -27.75 3.3 -28.25 2.95 -28.85 M-8.0 -28.6 Q-7.4 -28.5 -7.15 -28.0 -6.65 -27.35 -6.65 -26.35 -6.65 -25.45 -7.15 -24.8 L-7.45 -24.45 Q-7.9 -24.1 -8.4 -24.1 -8.9 -24.1 -9.3 -24.45 L-9.7 -24.8 -9.95 -25.15 -10.2 -26.35 -10.2 -26.8 -9.95 -27.55 -9.75 -27.9 Q-9.75 -27.25 -9.3 -27.05 -9.45 -25.25 -8.55 -25.15 L-7.95 -25.2 -7.65 -24.8 Q-7.25 -24.8 -7.25 -25.2 -7.25 -25.6 -7.45 -25.6 L-7.35 -26.65 Q-7.45 -27.45 -8.0 -27.6 -7.7 -28.1 -8.0 -28.6" fill="#352006" fill-rule="evenodd" stroke="none"/>
      <path d="M0.25 -28.0 L0.35 -28.2 Q1.15 -28.9 2.3 -28.9 L2.95 -28.85 Q3.3 -28.25 2.95 -27.75 L2.05 -27.25 0.9 -27.15 Q0.25 -27.35 0.25 -28.0 M3.6 -25.6 Q4.0 -25.55 4.0 -25.15 4.0 -24.7 3.35 -24.7 2.95 -24.7 2.95 -25.15 2.95 -25.65 3.55 -25.6 L3.6 -25.6 M-9.75 -27.9 L-9.7 -28.0 Q-9.2 -28.7 -8.45 -28.7 L-8.35 -28.7 -8.0 -28.6 Q-7.7 -28.1 -8.0 -27.6 L-8.55 -27.1 -9.3 -27.05 Q-9.75 -27.25 -9.75 -27.9 M-7.45 -25.6 Q-7.25 -25.6 -7.25 -25.2 -7.25 -24.8 -7.65 -24.8 L-7.95 -25.2 Q-7.95 -25.65 -7.5 -25.6 L-7.45 -25.6" fill="#d7d2cd" fill-rule="evenodd" stroke="none"/>
      <path d="M2.95 -27.75 Q3.6 -27.6 3.8 -26.7 L3.6 -25.6 3.55 -25.6 Q2.95 -25.65 2.95 -25.15 L2.05 -25.1 Q0.65 -25.2 0.9 -27.15 L2.05 -27.25 2.95 -27.75 M-8.0 -27.6 Q-7.45 -27.45 -7.35 -26.65 L-7.45 -25.6 -7.5 -25.6 Q-7.95 -25.65 -7.95 -25.2 L-8.55 -25.15 Q-9.45 -25.25 -9.3 -27.05 L-8.55 -27.1 -8.0 -27.6" fill="#170e04" fill-rule="evenodd" stroke="none"/>
      <path d="M2.95 -28.85 Q3.65 -28.7 4.1 -28.2 4.95 -27.45 4.95 -26.4 4.95 -25.35 4.1 -24.7 3.35 -23.85 2.3 -23.85 1.15 -23.85 0.35 -24.7 -0.4 -25.35 -0.4 -26.4 L-0.35 -27.0 0.25 -28.0 0.35 -28.2 Q1.15 -28.9 2.3 -28.9 L2.95 -28.85 M-8.0 -28.6 Q-7.4 -28.5 -7.15 -28.0 -6.65 -27.35 -6.65 -26.35 -6.65 -25.45 -7.15 -24.8 L-7.45 -24.45 Q-7.9 -24.1 -8.4 -24.1 -8.9 -24.1 -9.3 -24.45 L-9.7 -24.8 -9.95 -25.15 -10.2 -26.35 -10.2 -26.8 -9.95 -27.55 -9.75 -27.9 -9.7 -28.0 Q-9.2 -28.7 -8.45 -28.7 L-8.35 -28.7 -8.0 -28.6" fill="none" stroke="#000000" stroke-linecap="round" stroke-linejoin="round" stroke-opacity="0.3882353" stroke-width="0.4"/>
      <path d="M6.95 -17.5 L7.35 -17.1 Q10.7 -13.4 13.3 -9.7 14.05 -8.65 14.05 -7.75 L13.9 -6.95 Q13.75 -6.0 12.7 -5.0 11.6 -3.95 10.1 -3.5 L9.2 -3.35 7.4 -3.5 7.0 -3.65 Q6.25 -4.15 6.2 -4.95 6.15 -5.95 7.25 -7.05 8.4 -8.1 10.0 -8.55 L10.7 -8.75 10.7 -9.4 Q10.65 -10.45 9.95 -11.9 L6.95 -17.5 M13.9 -6.95 L13.9 -7.15 Q13.85 -8.05 13.05 -8.5 L12.9 -8.55 12.8 -8.6 12.75 -8.6 10.8 -8.75 10.7 -8.75 10.8 -8.75 12.75 -8.6 12.8 -8.6 12.9 -8.55 13.05 -8.5 Q13.85 -8.05 13.9 -7.15 L13.9 -6.95" fill="#5b432d" fill-rule="evenodd" stroke="none"/>
      <path d="M7.0 -3.65 Q5.95 -4.0 5.3 -7.35 4.6 -10.75 3.35 -13.05 L3.75 -16.1 4.9 -16.4 6.95 -17.5 9.95 -11.9 Q10.65 -10.45 10.7 -9.4 L10.7 -8.75 10.0 -8.55 Q8.4 -8.1 7.25 -7.05 6.15 -5.95 6.2 -4.95 6.25 -4.15 7.0 -3.65" fill="url(#decoration189-gradient5)" fill-rule="evenodd" stroke="none"/>
      <path d="M6.95 -17.5 L7.35 -17.1 Q10.7 -13.4 13.3 -9.7 14.05 -8.65 14.05 -7.75 L13.9 -6.95 Q13.75 -6.0 12.7 -5.0 11.6 -3.95 10.1 -3.5 L9.2 -3.35 7.4 -3.5 7.0 -3.65" fill="none" stroke="#000000" stroke-linecap="round" stroke-linejoin="round" stroke-opacity="0.3882353" stroke-width="0.8"/>
      <path d="M7.0 -3.65 Q5.95 -4.0 5.3 -7.35 4.6 -10.75 3.35 -13.05 L3.75 -16.1 4.9 -16.4 6.95 -17.5 M7.0 -3.65 Q6.25 -4.15 6.2 -4.95 6.15 -5.95 7.25 -7.05 8.4 -8.1 10.0 -8.55 L10.7 -8.75 10.8 -8.75 12.75 -8.6 12.8 -8.6 12.9 -8.55 13.05 -8.5 Q13.85 -8.05 13.9 -7.15 L13.9 -6.95" fill="none" stroke="#000000" stroke-linecap="round" stroke-linejoin="round" stroke-opacity="0.3019608" stroke-width="0.30000000000000004"/>
      <path d="M4.3 -18.9 Q5.25 -17.75 5.0 -16.5 4.75 -15.65 3.85 -15.0 4.75 -12.75 2.7 -11.9 1.15 -12.15 0.2 -12.7 -0.85 -13.15 -1.3 -13.8 L-4.25 -13.5 -4.65 -13.75 Q-8.25 -11.5 -8.2 -13.95 -6.35 -13.4 -5.1 -14.85 -3.3 -13.55 -1.85 -16.4 -0.3 -18.0 1.5 -18.55 4.0 -18.85 3.3 -17.75 L-1.85 -16.4 -1.85 -15.15 -1.65 -14.45 -1.55 -14.4 Q2.95 -12.75 3.85 -15.0 L2.05 -15.0 Q5.05 -15.85 4.3 -18.9 M-8.2 -18.9 Q-6.0 -18.65 -4.2 -16.55 -8.0 -17.95 -8.2 -18.9 M-1.3 -13.8 L-1.55 -14.4 -1.3 -13.8 M-4.65 -13.75 L-5.1 -14.85 -4.65 -13.75" fill="#720c07" fill-rule="evenodd" stroke="none"/>
      <path d="M-8.2 -13.95 L-8.0 -15.3 -8.9 -16.4 Q-9.5 -18.05 -8.2 -18.9 -8.0 -17.95 -4.2 -16.55 L-3.25 -16.85 -1.85 -16.4 3.3 -17.75 Q4.0 -18.85 1.5 -18.55 L4.3 -18.9 Q5.05 -15.85 2.05 -15.0 L3.85 -15.0 Q2.95 -12.75 -1.55 -14.4 L-1.85 -15.15 -1.85 -16.4 Q-3.3 -13.55 -5.1 -14.85 -6.35 -13.4 -8.2 -13.95 M-6.35 -15.4 L-5.0 -15.35 -5.1 -14.85 -5.0 -15.35 -6.35 -15.4 M-4.2 -16.55 Q-4.8 -16.2 -5.0 -15.35 -4.8 -16.2 -4.2 -16.55 M-1.85 -15.15 L0.2 -15.15 -1.85 -15.15" fill="#900f09" fill-rule="evenodd" stroke="none"/>
      <path d="M-1.55 -14.4 L-1.3 -13.8 M-1.85 -16.4 L3.3 -17.75 Q4.0 -18.85 1.5 -18.55 M-5.1 -14.85 L-5.0 -15.35 -6.35 -15.4 M-1.85 -15.15 L-1.55 -14.4 M-1.85 -15.15 L-1.85 -16.4 M-5.1 -14.85 L-4.65 -13.75 M-5.0 -15.35 Q-4.8 -16.2 -4.2 -16.55 -8.0 -17.95 -8.2 -18.9 M0.2 -15.15 L-1.85 -15.15" fill="none" stroke="#000000" stroke-linecap="round" stroke-linejoin="round" stroke-opacity="0.3882353" stroke-width="0.2"/>
      <path d="M4.3 -18.9 Q5.25 -17.75 5.0 -16.5 4.75 -15.65 3.85 -15.0 4.75 -12.75 2.7 -11.9 1.15 -12.15 0.2 -12.7 -0.85 -13.15 -1.3 -13.8 L-4.25 -13.5 -4.65 -13.75 Q-8.25 -11.5 -8.2 -13.95 L-8.0 -15.3 -8.9 -16.4 M-8.2 -18.9 Q-6.0 -18.65 -4.2 -16.55 L-3.25 -16.85 -1.85 -16.4 Q-0.3 -18.0 1.5 -18.55 L4.3 -18.9" fill="none" stroke="#000000" stroke-linecap="round" stroke-linejoin="round" stroke-opacity="0.3882353" stroke-width="0.4"/>
      <path d="M-8.9 -16.4 Q-9.5 -18.05 -8.2 -18.9" fill="none" stroke="#000000" stroke-linecap="round" stroke-linejoin="round" stroke-opacity="0.3882353" stroke-width="0.8"/>
    </g>
    <radialGradient cx="0" cy="0" fx="28.8" fy="0" gradientTransform="matrix(0.0363, 0.0, 0.0, 0.0339, -4.55, -41.15)" gradientUnits="userSpaceOnUse" id="decoration189-gradient0" r="819.2" spreadMethod="pad">
      <stop offset="0.0" stop-color="#b07c3f"/>
      <stop offset="0.5764705882352941" stop-color="#79593c"/>
      <stop offset="0.5882352941176471" stop-color="#77583b"/>
    </radialGradient>
    <radialGradient cx="0" cy="0" gradientTransform="matrix(0.0054, 0.0, 0.0, 0.0054, -11.5, -15.15)" gradientUnits="userSpaceOnUse" id="decoration189-gradient1" r="819.2" spreadMethod="pad">
      <stop offset="0.0" stop-color="#b07c3f"/>
      <stop offset="1.0" stop-color="#77583b"/>
    </radialGradient>
    <radialGradient cx="0" cy="0" gradientTransform="matrix(0.0084, 0.0, 0.0, 0.0084, -6.65, -12.8)" gradientUnits="userSpaceOnUse" id="decoration189-gradient2" r="819.2" spreadMethod="pad">
      <stop offset="0.0" stop-color="#f9eebe"/>
      <stop offset="1.0" stop-color="#d2c9a0"/>
    </radialGradient>
    <radialGradient cx="0" cy="0" gradientTransform="matrix(0.0067, 0.0, 0.0, 0.0048, -12.2, -8.75)" gradientUnits="userSpaceOnUse" id="decoration189-gradient3" r="819.2" spreadMethod="pad">
      <stop offset="0.0" stop-color="#b07c3f"/>
      <stop offset="1.0" stop-color="#79593c"/>
    </radialGradient>
    <radialGradient cx="0" cy="0" gradientTransform="matrix(0.007, 0.0, 0.0, 0.0047, -1.05, -7.75)" gradientUnits="userSpaceOnUse" id="decoration189-gradient4" r="819.2" spreadMethod="pad">
      <stop offset="0.0" stop-color="#b07c3f"/>
      <stop offset="1.0" stop-color="#77583b"/>
    </radialGradient>
    <radialGradient cx="0" cy="0" fx="-1574.4" fy="0" gradientTransform="matrix(0.0154, 0.0, 0.0, 0.0154, 1.0, -17.8)" gradientUnits="userSpaceOnUse" id="decoration189-gradient5" r="819.2" spreadMethod="pad">
      <stop offset="0.0" stop-color="#b07c3f"/>
      <stop offset="1.0" stop-color="#77583b"/>
    </radialGradient>
  </defs>
</svg>
