<?xml version="1.0" encoding="UTF-8" standalone="no"?>
<svg xmlns:ffdec="https://www.free-decompiler.com/flash" xmlns:xlink="http://www.w3.org/1999/xlink" ffdec:objectType="frame" height="58.3px" width="69.15px" xmlns="http://www.w3.org/2000/svg">
  <g transform="matrix(1.0, 0.0, 0.0, 1.0, 34.3, 57.9)">
    <use ffdec:characterId="829" height="57.95" transform="matrix(1.0, 0.0, 0.0, 1.0, -23.65, -57.55)" width="58.5" xlink:href="#decoration19-shape0"/>
    <use ffdec:characterId="831" height="58.2" id="decoration19-Couleur0_8A311B" filter="url(#decoration19-filter0)" transform="matrix(1.0, 0.0, 0.0, 1.0, -34.3, -57.9)" width="67.55" xlink:href="#decoration19-sprite0"/>
    <use ffdec:characterId="832" height="23.95" id="decoration19-B" transform="matrix(1.0, 0.0, 0.0, 1.0, -32.85, -23.8)" width="64.2" xlink:href="#decoration19-sprite1"/>
  </g>
  <defs>
    <g id="decoration19-shape0" transform="matrix(1.0, 0.0, 0.0, 1.0, 23.65, 57.55)">
      <path d="M20.7 -56.1 L22.95 -56.95 Q24.05 -54.55 22.8 -52.2 25.65 -46.0 24.8 -37.65 L30.15 -37.5 Q32.65 -37.65 33.55 -35.05 L33.55 -14.8 Q36.2 -8.65 33.55 -2.5 L31.7 -2.35 31.7 0.4 24.5 0.4 24.5 -1.9 -18.15 -1.9 -18.15 0.25 -23.65 0.25 -12.8 -55.45 Q6.2 -59.25 20.7 -56.1" fill="#000000" fill-opacity="0.3019608" fill-rule="evenodd" stroke="none"/>
    </g>
    <g id="decoration19-sprite0" transform="matrix(1.0, 0.0, 0.0, 1.0, 0.15, 0.15)">
      <use ffdec:characterId="830" height="58.2" transform="matrix(1.0, 0.0, 0.0, 1.0, -0.15, -0.15)" width="67.55" xlink:href="#decoration19-shape1"/>
    </g>
    <g id="decoration19-shape1" transform="matrix(1.0, 0.0, 0.0, 1.0, 0.15, 0.15)">
      <path d="M57.35 0.05 Q57.7 2.05 55.95 4.7 58.9 17.2 55.95 29.65 L47.05 36.15 20.1 36.15 15.65 28.05 14.15 25.3 Q10.1 15.7 12.3 5.25 11.15 2.9 12.3 0.5 11.35 3.45 15.25 6.0 12.2 19.1 20.35 22.7 29.05 26.6 41.9 20.45 40.55 23.55 39.15 24.05 48.15 24.7 51.4 19.5 54.65 14.25 54.1 6.4 55.5 5.3 57.35 0.05" fill="#56524f" fill-rule="evenodd" stroke="none"/>
      <path d="M55.95 29.65 L51.5 45.9 15.55 45.9 15.65 28.05 20.1 36.15 47.05 36.15 55.95 29.65" fill="#3c3a3a" fill-rule="evenodd" stroke="none"/>
      <path d="M12.3 0.5 Q14.9 0.05 15.85 2.05 34.8 -0.9 52.25 2.05 54.35 -0.3 57.35 0.05 55.5 5.3 54.1 6.4 54.65 14.25 51.4 19.5 48.15 24.7 39.15 24.05 40.55 23.55 41.9 20.45 29.05 26.6 20.35 22.7 12.2 19.1 15.25 6.0 11.35 3.45 12.3 0.5" fill="url(#decoration19-gradient0)" fill-rule="evenodd" stroke="none"/>
      <path d="M57.35 0.05 Q57.7 2.05 55.95 4.7 58.9 17.2 55.95 29.65 L51.5 45.9 15.55 45.9 15.65 28.05 14.15 25.3 Q10.1 15.7 12.3 5.25 11.15 2.9 12.3 0.5 14.9 0.05 15.85 2.05 34.8 -0.9 52.25 2.05 54.35 -0.3 57.35 0.05 M15.65 28.05 L20.1 36.15 47.05 36.15 55.95 29.65" fill="none" stroke="#000000" stroke-linecap="round" stroke-linejoin="round" stroke-opacity="0.3019608" stroke-width="0.30000000000000004"/>
      <path d="M12.45 54.3 L12.65 57.9 4.25 57.9 4.25 54.3 12.45 54.3 M62.9 54.3 L62.9 57.9 54.8 57.9 54.8 54.3 62.9 54.3" fill="#463e3e" fill-rule="evenodd" stroke="none"/>
      <path d="M4.25 54.3 L1.3 54.3 Q-1.25 48.75 1.3 43.25 L66.2 43.25 Q68.35 48.75 66.2 54.3 L62.9 54.3 54.8 54.3 12.45 54.3 4.25 54.3" fill="#56524f" fill-rule="evenodd" stroke="none"/>
      <path d="M12.45 54.3 L12.65 57.9 4.25 57.9 4.25 54.3 1.3 54.3 Q-1.25 48.75 1.3 43.25 L66.2 43.25 Q68.35 48.75 66.2 54.3 L62.9 54.3 62.9 57.9 54.8 57.9 54.8 54.3 12.45 54.3 4.25 54.3 M62.9 54.3 L54.8 54.3" fill="none" stroke="#000000" stroke-linecap="round" stroke-linejoin="round" stroke-opacity="0.3019608" stroke-width="0.30000000000000004"/>
      <path d="M1.35 26.8 L1.35 23.6 Q1.55 20.25 4.1 19.45 L14.55 19.45 Q16.7 20.45 16.95 23.05 14.9 32.1 6.35 32.3 1.85 30.6 1.35 26.8" fill="url(#decoration19-gradient1)" fill-rule="evenodd" stroke="none"/>
      <path d="M1.35 26.8 Q1.85 30.6 6.35 32.3 14.9 32.1 16.95 23.05 L16.95 43.25 1.35 43.25 1.35 26.8" fill="#56524f" fill-rule="evenodd" stroke="none"/>
      <path d="M16.95 23.05 Q16.7 20.45 14.55 19.45 L4.1 19.45 Q1.55 20.25 1.35 23.6 L1.35 26.8 1.35 43.25 16.95 43.25 16.95 23.05 Z" fill="none" stroke="#000000" stroke-linecap="round" stroke-linejoin="round" stroke-opacity="0.3019608" stroke-width="0.30000000000000004"/>
      <path d="M63.95 19.45 Q65.95 20.45 66.2 23.05 L66.2 43.25 51.65 43.25 51.65 30.15 Q51.8 33.95 56.45 34.3 62.3 33.8 64.4 28.6 66.45 23.35 63.95 19.45" fill="#56524f" fill-rule="evenodd" stroke="none"/>
      <path d="M51.65 30.15 L51.65 23.6 Q51.85 20.25 54.2 19.45 L63.95 19.45 Q66.45 23.35 64.4 28.6 62.3 33.8 56.45 34.3 51.8 33.95 51.65 30.15" fill="url(#decoration19-gradient2)" fill-rule="evenodd" stroke="none"/>
      <path d="M63.95 19.45 Q65.95 20.45 66.2 23.05 L66.2 43.25 51.65 43.25 51.65 30.15 51.65 23.6 Q51.85 20.25 54.2 19.45 L63.95 19.45 Z" fill="none" stroke="#000000" stroke-linecap="round" stroke-linejoin="round" stroke-opacity="0.3019608" stroke-width="0.30000000000000004"/>
      <path d="M18.95 31.05 L49.65 31.05 Q51.8 34.35 46.05 35.95 34.2 37.4 22.35 35.95 17.25 33.8 18.95 31.05" fill="url(#decoration19-gradient3)" fill-rule="evenodd" stroke="none"/>
      <path d="M49.65 31.05 Q51.3 31.45 51.4 33.8 L51.4 41.0 Q51.25 42.3 49.2 43.15 L19.75 43.15 Q17.05 42.3 17.1 41.25 L17.1 32.95 Q17.3 31.15 18.95 31.05 17.25 33.8 22.35 35.95 34.2 37.4 46.05 35.95 51.8 34.35 49.65 31.05" fill="#56524f" fill-rule="evenodd" stroke="none"/>
      <path d="M49.65 31.05 Q51.3 31.45 51.4 33.8 L51.4 41.0 Q51.25 42.3 49.2 43.15 L19.75 43.15 Q17.05 42.3 17.1 41.25 L17.1 32.95 Q17.3 31.15 18.95 31.05 L49.65 31.05 Z" fill="none" stroke="#000000" stroke-linecap="round" stroke-linejoin="round" stroke-opacity="0.3019608" stroke-width="0.30000000000000004"/>
    </g>
    <linearGradient gradientTransform="matrix(-0.0072, -0.0266, 0.0142, -0.0038, 31.5, 7.7)" gradientUnits="userSpaceOnUse" id="decoration19-gradient0" spreadMethod="pad" x1="-819.2" x2="819.2">
      <stop offset="0.0" stop-color="#808080"/>
      <stop offset="0.9882352941176471" stop-color="#a8a5a5"/>
    </linearGradient>
    <linearGradient gradientTransform="matrix(-0.0072, -0.0266, 0.0142, -0.0038, 31.5, 7.7)" gradientUnits="userSpaceOnUse" id="decoration19-gradient1" spreadMethod="pad" x1="-819.2" x2="819.2">
      <stop offset="0.0" stop-color="#808080"/>
      <stop offset="0.9882352941176471" stop-color="#a8a5a5"/>
    </linearGradient>
    <linearGradient gradientTransform="matrix(-0.0029, -0.0108, 0.0088, -0.0023, 54.95, 20.55)" gradientUnits="userSpaceOnUse" id="decoration19-gradient2" spreadMethod="pad" x1="-819.2" x2="819.2">
      <stop offset="0.0" stop-color="#808080"/>
      <stop offset="0.9882352941176471" stop-color="#a8a5a5"/>
    </linearGradient>
    <linearGradient gradientTransform="matrix(0.0, -0.0078, 0.0034, 0.0, 34.2, 29.1)" gradientUnits="userSpaceOnUse" id="decoration19-gradient3" spreadMethod="pad" x1="-819.2" x2="819.2">
      <stop offset="0.0" stop-color="#808080"/>
      <stop offset="0.9882352941176471" stop-color="#a8a5a5"/>
    </linearGradient>
    <g id="decoration19-sprite1" transform="matrix(1.0, 0.0, 0.0, 1.0, 0.0, 0.0)">
      <use ffdec:characterId="265" height="2.2" transform="matrix(1.1505, 0.0, 0.0, 10.8864, 0.0, 0.0)" width="55.8" xlink:href="#decoration19-shape2"/>
    </g>
    <g id="decoration19-shape2" transform="matrix(1.0, 0.0, 0.0, 1.0, 0.0, 0.0)">
      <path d="M55.8 2.2 L0.0 2.2 0.0 0.0 55.8 0.0 55.8 2.2" fill="#0066ff" fill-opacity="0.0" fill-rule="evenodd" stroke="none"/>
    </g>
  </defs>
</svg>
