<?xml version="1.0" encoding="UTF-8" standalone="no"?>
<svg xmlns:xlink="http://www.w3.org/1999/xlink" height="65.2px" width="200.5px" xmlns="http://www.w3.org/2000/svg">
  <g transform="matrix(1.0, 0.0, 0.0, 1.0, 100.2, 31.6)">
    <use height="65.2" transform="matrix(1.0, 0.0, 0.0, 1.0, -100.2, -31.6)" width="200.5" xlink:href="#decoration192-shape0"/>
  </g>
  <defs>
    <g id="decoration192-shape0" transform="matrix(1.0, 0.0, 0.0, 1.0, 100.2, 31.6)">
      <path d="M-90.55 -28.8 Q-78.7 -21.8 -71.8 -18.45 -49.6 -7.65 -32.25 -4.4 -2.85 1.1 22.65 -1.9 39.2 -3.85 53.9 -9.25 61.2 -11.95 68.15 -15.55 73.95 -18.55 79.35 -22.15 L80.4 -22.85 Q84.7 -25.8 88.8 -29.05" fill="none" stroke="#ffffff" stroke-linecap="round" stroke-linejoin="round" stroke-opacity="0.49803922" stroke-width="0.8"/>
      <path d="M-99.55 -23.75 Q-98.95 -25.55 -97.5 -26.95 L-97.4 -27.0 -97.35 -27.1 Q-92.85 -24.9 -91.3 -21.65 -93.85 -23.95 -97.5 -23.9 L-99.55 -23.75 M-94.25 -29.1 Q-92.8 -29.65 -91.15 -29.65 L-90.05 -29.55 Q-89.6 -24.3 -91.3 -21.65 -87.7 -25.05 -88.05 -29.1 -86.3 -28.45 -84.9 -27.0 -87.75 -22.8 -91.3 -21.65 -86.1 -21.05 -83.35 -23.7 -83.45 -21.8 -83.85 -20.3 -88.9 -19.85 -91.3 -21.65 L-91.2 -21.5 Q-90.9 -20.9 -89.5 -20.1 -86.7 -18.85 -84.35 -18.7 -84.95 -17.3 -85.8 -16.35 -89.7 -18.2 -91.2 -21.5 -91.4 -17.2 -89.35 -14.75 L-89.0 -14.35 -92.25 -13.95 -92.45 -14.75 Q-93.2 -18.1 -91.3 -21.65 -94.35 -18.55 -94.2 -14.75 L-94.15 -14.1 -96.75 -14.6 -97.9 -15.65 -97.5 -16.4 Q-95.9 -19.15 -91.3 -21.65 -94.85 -22.2 -97.5 -20.65 L-99.65 -18.9 -99.9 -20.25 -99.9 -21.35 -99.9 -22.2 -97.5 -22.6 Q-94.7 -22.75 -91.3 -21.65 -91.1 -26.2 -94.25 -29.1" fill="#d7d7d7" fill-rule="evenodd" stroke="none"/>
      <path d="M-97.35 -27.1 Q-95.95 -28.45 -94.25 -29.1 -91.1 -26.2 -91.3 -21.65 -87.75 -22.8 -84.9 -27.0 L-83.3 -25.15 -83.35 -23.7 Q-86.1 -21.05 -91.3 -21.65 -92.85 -24.9 -97.35 -27.1 M-97.9 -15.65 Q-99.2 -17.15 -99.65 -18.9 L-97.5 -20.65 Q-94.85 -22.2 -91.3 -21.65 -95.9 -19.15 -97.5 -16.4 L-97.9 -15.65 M-91.2 -21.5 Q-89.7 -18.2 -85.8 -16.35 L-88.05 -14.75 -89.0 -14.35 -89.35 -14.75 Q-91.4 -17.2 -91.2 -21.5" fill="#971012" fill-rule="evenodd" stroke="none"/>
      <path d="M-90.05 -29.55 L-88.05 -29.1 Q-87.7 -25.05 -91.3 -21.65 -89.6 -24.3 -90.05 -29.55 M-99.9 -22.2 L-99.55 -23.75 -97.5 -23.9 Q-93.85 -23.95 -91.3 -21.65 -88.9 -19.85 -83.85 -20.3 L-84.35 -18.7 Q-86.7 -18.85 -89.5 -20.1 -90.9 -20.9 -91.2 -21.5 L-91.3 -21.65 Q-94.7 -22.75 -97.5 -22.6 L-99.9 -22.2 M-92.25 -13.95 L-94.15 -14.1 -94.2 -14.75 Q-94.35 -18.55 -91.3 -21.65 -93.2 -18.1 -92.45 -14.75 L-92.25 -13.95" fill="#317915" fill-rule="evenodd" stroke="none"/>
      <path d="M-83.3 -25.15 L-82.85 -24.25 -83.35 -23.7 -83.3 -25.15 M-84.35 -15.7 L-85.3 -14.75 Q-86.45 -13.85 -87.75 -13.3 L-89.0 -14.35 -88.05 -14.75 -85.8 -16.35 -84.35 -15.7" fill="#7d0d0f" fill-rule="evenodd" stroke="none"/>
      <path d="M-82.85 -24.25 Q-82.25 -22.8 -82.25 -21.1 L-82.25 -20.5 -83.85 -20.3 Q-83.45 -21.8 -83.35 -23.7 L-82.85 -24.25 M-82.55 -18.85 Q-83.0 -17.15 -84.35 -15.7 L-85.8 -16.35 Q-84.95 -17.3 -84.35 -18.7 L-82.55 -18.85 M-87.75 -13.3 Q-89.3 -12.75 -91.15 -12.75 L-91.75 -12.75 -92.25 -13.95 -89.0 -14.35 -87.75 -13.3 M-93.95 -13.15 Q-95.5 -13.6 -96.75 -14.6 L-94.15 -14.1 -93.95 -13.15" fill="#b9b9b9" fill-rule="evenodd" stroke="none"/>
      <path d="M-82.25 -20.5 L-82.55 -18.85 -84.35 -18.7 -83.85 -20.3 -82.25 -20.5 M-91.75 -12.75 L-93.95 -13.15 -94.15 -14.1 -92.25 -13.95 -91.75 -12.75" fill="#265f10" fill-rule="evenodd" stroke="none"/>
      <path d="M-99.55 -23.75 Q-98.95 -25.55 -97.5 -26.95 L-97.4 -27.0 -97.35 -27.1 Q-95.95 -28.45 -94.25 -29.1 -92.8 -29.65 -91.15 -29.65 L-90.05 -29.55 -88.05 -29.1 Q-86.3 -28.45 -84.9 -27.0 L-83.3 -25.15 -82.85 -24.25 Q-82.25 -22.8 -82.25 -21.1 L-82.25 -20.5 -82.55 -18.85 Q-83.0 -17.15 -84.35 -15.7 L-85.3 -14.75 Q-86.45 -13.85 -87.75 -13.3 -89.3 -12.75 -91.15 -12.75 L-91.75 -12.75 -93.95 -13.15 Q-95.5 -13.6 -96.75 -14.6 L-97.9 -15.65 Q-99.2 -17.15 -99.65 -18.9 L-99.9 -20.25 -99.9 -21.35 -99.9 -22.2 -99.55 -23.75 Z" fill="none" stroke="#000000" stroke-linecap="round" stroke-linejoin="round" stroke-opacity="0.29803923" stroke-width="0.5"/>
      <path d="M-72.05 -20.95 Q-70.9 -19.8 -70.9 -18.15 -70.9 -16.55 -72.05 -15.35 -73.25 -14.2 -74.9 -14.2 -76.55 -14.2 -77.7 -15.35 -78.85 -16.55 -78.85 -18.15 -78.85 -19.8 -77.7 -20.95 -76.55 -22.2 -74.9 -22.2 -73.25 -22.2 -72.05 -20.95 M-76.9 -15.6 Q-75.95 -14.8 -74.7 -14.8 -73.45 -14.8 -72.55 -15.6 -71.65 -16.55 -71.65 -17.8 -71.65 -18.65 -72.0 -19.2 L-71.95 -18.3 Q-72.05 -17.25 -72.9 -16.35 -73.8 -15.35 -75.4 -15.5 -76.65 -15.65 -77.35 -16.2 L-76.9 -15.6" fill="url(#decoration192-gradient0)" fill-rule="evenodd" stroke="none"/>
      <path d="M-76.9 -15.6 L-77.35 -16.2 Q-76.65 -15.65 -75.4 -15.5 -73.8 -15.35 -72.9 -16.35 -72.05 -17.25 -71.95 -18.3 L-72.0 -19.2 Q-71.65 -18.65 -71.65 -17.8 -71.65 -16.55 -72.55 -15.6 -73.45 -14.8 -74.7 -14.8 -75.95 -14.8 -76.9 -15.6" fill="url(#decoration192-gradient1)" fill-rule="evenodd" stroke="none"/>
      <path d="M-72.05 -20.95 Q-70.9 -19.8 -70.9 -18.15 -70.9 -16.55 -72.05 -15.35 -73.25 -14.2 -74.9 -14.2 -76.55 -14.2 -77.7 -15.35 -78.85 -16.55 -78.85 -18.15 -78.85 -19.8 -77.7 -20.95 -76.55 -22.2 -74.9 -22.2 -73.25 -22.2 -72.05 -20.95 Z" fill="none" stroke="#000000" stroke-linecap="round" stroke-linejoin="round" stroke-opacity="0.29803923" stroke-width="0.8"/>
      <path d="M-50.8 -4.35 L-51.2 -5.0 Q-50.55 -4.4 -49.3 -4.3 -47.7 -4.1 -46.8 -5.1 -45.95 -6.05 -45.85 -7.05 L-45.85 -7.95 Q-45.5 -7.4 -45.5 -6.55 -45.5 -5.3 -46.45 -4.35 -47.3 -3.55 -48.6 -3.55 -49.85 -3.55 -50.8 -4.35" fill="url(#decoration192-gradient2)" fill-rule="evenodd" stroke="none"/>
      <path d="M-52.75 -6.9 Q-52.75 -8.6 -51.6 -9.7 -50.45 -10.95 -48.8 -10.95 -47.15 -10.95 -45.95 -9.7 -44.8 -8.6 -44.8 -6.9 -44.8 -5.3 -45.95 -4.1 -47.15 -2.95 -48.8 -2.95 -50.45 -2.95 -51.6 -4.1 -52.75 -5.3 -52.75 -6.9 M-50.8 -4.35 Q-49.85 -3.55 -48.6 -3.55 -47.3 -3.55 -46.45 -4.35 -45.5 -5.3 -45.5 -6.55 -45.5 -7.4 -45.85 -7.95 L-45.85 -7.05 Q-45.95 -6.05 -46.8 -5.1 -47.7 -4.1 -49.3 -4.3 -50.55 -4.4 -51.2 -5.0 L-50.8 -4.35" fill="url(#decoration192-gradient3)" fill-rule="evenodd" stroke="none"/>
      <path d="M-52.75 -6.9 Q-52.75 -8.6 -51.6 -9.7 -50.45 -10.95 -48.8 -10.95 -47.15 -10.95 -45.95 -9.7 -44.8 -8.6 -44.8 -6.9 -44.8 -5.3 -45.95 -4.1 -47.15 -2.95 -48.8 -2.95 -50.45 -2.95 -51.6 -4.1 -52.75 -5.3 -52.75 -6.9 Z" fill="none" stroke="#000000" stroke-linecap="round" stroke-linejoin="round" stroke-opacity="0.29803923" stroke-width="0.8"/>
      <path d="M-17.6 -0.95 Q-16.4 -2.2 -14.75 -2.2 -13.1 -2.2 -11.9 -0.95 -10.75 0.15 -10.75 1.85 -10.75 3.45 -11.9 4.65 -13.1 5.75 -14.75 5.75 -16.4 5.75 -17.6 4.65 L-18.25 3.75 Q-18.7 2.9 -18.7 1.85 -18.7 0.75 -18.25 -0.1 L-17.6 -0.95 M-12.75 3.6 Q-13.7 4.65 -15.25 4.45 -16.5 4.3 -17.2 3.75 L-16.75 4.35 Q-15.8 5.2 -14.55 5.2 -13.3 5.2 -12.4 4.35 -11.5 3.45 -11.5 2.2 -11.5 1.35 -11.85 0.8 L-11.8 1.7 Q-11.9 2.7 -12.75 3.6" fill="url(#decoration192-gradient4)" fill-rule="evenodd" stroke="none"/>
      <path d="M-12.75 3.6 Q-11.9 2.7 -11.8 1.7 L-11.85 0.8 Q-11.5 1.35 -11.5 2.2 -11.5 3.45 -12.4 4.35 -13.3 5.2 -14.55 5.2 -15.8 5.2 -16.75 4.35 L-17.2 3.75 Q-16.5 4.3 -15.25 4.45 -13.7 4.65 -12.75 3.6" fill="url(#decoration192-gradient5)" fill-rule="evenodd" stroke="none"/>
      <path d="M-17.6 -0.95 Q-16.4 -2.2 -14.75 -2.2 -13.1 -2.2 -11.9 -0.95 -10.75 0.15 -10.75 1.85 -10.75 3.45 -11.9 4.65 -13.1 5.75 -14.75 5.75 -16.4 5.75 -17.6 4.65 L-18.25 3.75 Q-18.7 2.9 -18.7 1.85 -18.7 0.75 -18.25 -0.1 L-17.6 -0.95 Z" fill="none" stroke="#000000" stroke-linecap="round" stroke-linejoin="round" stroke-opacity="0.29803923" stroke-width="0.8"/>
      <path d="M23.55 -1.15 Q24.7 0.0 24.7 1.65 24.7 3.25 23.55 4.45 22.35 5.6 20.7 5.6 19.05 5.6 17.9 4.45 16.75 3.25 16.75 1.65 16.75 0.0 17.9 -1.15 19.05 -2.35 20.7 -2.35 22.35 -2.35 23.55 -1.15 M23.95 2.0 Q23.95 1.15 23.6 0.6 L23.65 1.5 Q23.55 2.55 22.7 3.45 21.8 4.45 20.2 4.3 18.95 4.15 18.3 3.6 L18.7 4.2 Q19.65 5.05 20.9 5.05 22.2 5.05 23.05 4.2 23.95 3.25 23.95 2.0" fill="url(#decoration192-gradient6)" fill-rule="evenodd" stroke="none"/>
      <path d="M23.95 2.0 Q23.95 3.25 23.05 4.2 22.2 5.05 20.9 5.05 19.65 5.05 18.7 4.2 L18.3 3.6 Q18.95 4.15 20.2 4.3 21.8 4.45 22.7 3.45 23.55 2.55 23.65 1.5 L23.6 0.6 Q23.95 1.15 23.95 2.0" fill="url(#decoration192-gradient7)" fill-rule="evenodd" stroke="none"/>
      <path d="M23.55 -1.15 Q24.7 0.0 24.7 1.65 24.7 3.25 23.55 4.45 22.35 5.6 20.7 5.6 19.05 5.6 17.9 4.45 16.75 3.25 16.75 1.65 16.75 0.0 17.9 -1.15 19.05 -2.35 20.7 -2.35 22.35 -2.35 23.55 -1.15 Z" fill="none" stroke="#000000" stroke-linecap="round" stroke-linejoin="round" stroke-opacity="0.29803923" stroke-width="0.8"/>
      <path d="M48.65 -3.9 Q49.3 -3.35 50.55 -3.2 52.15 -3.05 53.05 -4.05 53.9 -4.95 54.0 -5.95 L53.95 -6.9 Q54.3 -6.3 54.3 -5.5 54.3 -4.2 53.4 -3.3 52.55 -2.45 51.25 -2.45 50.0 -2.45 49.05 -3.3 48.8 -3.55 48.65 -3.9" fill="url(#decoration192-gradient8)" fill-rule="evenodd" stroke="none"/>
      <path d="M47.1 -5.9 Q47.15 -7.55 48.25 -8.65 49.4 -9.85 51.05 -9.85 52.7 -9.85 53.9 -8.65 55.05 -7.5 55.05 -5.85 55.05 -4.2 53.9 -3.05 52.7 -1.9 51.05 -1.9 49.4 -1.9 48.25 -3.05 47.15 -4.15 47.1 -5.7 L47.1 -5.9 M48.65 -3.9 Q48.8 -3.55 49.05 -3.3 50.0 -2.45 51.25 -2.45 52.55 -2.45 53.4 -3.3 54.3 -4.2 54.3 -5.5 54.3 -6.3 53.95 -6.9 L54.0 -5.95 Q53.9 -4.95 53.05 -4.05 52.15 -3.05 50.55 -3.2 49.3 -3.35 48.65 -3.9" fill="url(#decoration192-gradient9)" fill-rule="evenodd" stroke="none"/>
      <path d="M47.1 -5.9 Q47.15 -7.55 48.25 -8.65 49.4 -9.85 51.05 -9.85 52.7 -9.85 53.9 -8.65 55.05 -7.5 55.05 -5.85 55.05 -4.2 53.9 -3.05 52.7 -1.9 51.05 -1.9 49.4 -1.9 48.25 -3.05 47.15 -4.15 47.1 -5.7" fill="none" stroke="#000000" stroke-linecap="round" stroke-linejoin="round" stroke-opacity="0.29803923" stroke-width="0.8"/>
      <path d="M80.9 -20.95 Q82.1 -19.85 82.1 -18.15 82.1 -16.55 80.9 -15.35 79.75 -14.25 78.05 -14.25 76.45 -14.25 75.25 -15.35 74.1 -16.55 74.1 -18.15 74.1 -19.85 75.25 -20.95 76.45 -22.2 78.05 -22.2 79.75 -22.2 80.9 -20.95 M78.3 -14.8 Q79.55 -14.8 80.45 -15.65 81.35 -16.55 81.35 -17.8 81.35 -18.65 81.0 -19.2 L81.05 -18.3 Q80.9 -17.3 80.1 -16.4 79.15 -15.35 77.6 -15.55 76.3 -15.7 75.65 -16.25 L76.1 -15.65 Q77.0 -14.8 78.3 -14.8" fill="url(#decoration192-gradient10)" fill-rule="evenodd" stroke="none"/>
      <path d="M78.3 -14.8 Q77.0 -14.8 76.1 -15.65 L75.65 -16.25 Q76.3 -15.7 77.6 -15.55 79.15 -15.35 80.1 -16.4 80.9 -17.3 81.05 -18.3 L81.0 -19.2 Q81.35 -18.65 81.35 -17.8 81.35 -16.55 80.45 -15.65 79.55 -14.8 78.3 -14.8" fill="url(#decoration192-gradient11)" fill-rule="evenodd" stroke="none"/>
      <path d="M80.9 -20.95 Q82.1 -19.85 82.1 -18.15 82.1 -16.55 80.9 -15.35 79.75 -14.25 78.05 -14.25 76.45 -14.25 75.25 -15.35 74.1 -16.55 74.1 -18.15 74.1 -19.85 75.25 -20.95 76.45 -22.2 78.05 -22.2 79.75 -22.2 80.9 -20.95 Z" fill="none" stroke="#000000" stroke-linecap="round" stroke-linejoin="round" stroke-opacity="0.29803923" stroke-width="0.8"/>
      <path d="M92.2 -31.25 L94.25 -30.85 Q94.6 -26.75 91.0 -23.35 93.4 -21.55 98.45 -22.0 L97.95 -20.4 Q95.6 -20.55 92.8 -21.8 91.4 -22.6 91.05 -23.2 L91.0 -23.35 Q87.55 -24.5 84.75 -24.3 L82.4 -23.9 82.7 -25.45 84.75 -25.65 Q88.45 -25.65 91.0 -23.35 89.1 -19.8 89.85 -16.45 L90.0 -15.7 88.15 -15.8 88.1 -16.45 Q87.9 -20.3 91.0 -23.35 92.7 -26.0 92.2 -31.25" fill="#317915" fill-rule="evenodd" stroke="none"/>
      <path d="M82.7 -25.45 Q83.3 -27.25 84.75 -28.65 L84.85 -28.75 84.95 -28.8 Q89.4 -26.65 91.0 -23.35 88.45 -25.65 84.75 -25.65 L82.7 -25.45 M88.05 -30.85 L91.1 -31.35 92.2 -31.25 Q92.7 -26.0 91.0 -23.35 L91.05 -23.2 Q91.4 -22.6 92.8 -21.8 95.6 -20.55 97.95 -20.4 97.35 -19.0 96.45 -18.05 92.55 -19.95 91.05 -23.2 90.9 -18.95 92.9 -16.45 L93.25 -16.1 90.0 -15.7 89.85 -16.45 Q89.1 -19.8 91.0 -23.35 87.9 -20.3 88.1 -16.45 L88.15 -15.8 85.5 -16.3 84.35 -17.35 84.75 -18.1 Q86.4 -20.85 91.0 -23.35 87.45 -23.9 84.75 -22.35 L82.6 -20.65 Q82.3 -21.65 82.3 -22.8 L82.4 -23.9 84.75 -24.3 Q87.55 -24.5 91.0 -23.35 91.15 -27.9 88.05 -30.85 M94.25 -30.85 Q96.0 -30.2 97.4 -28.75 94.55 -24.55 91.0 -23.35 96.15 -22.8 98.9 -25.4 98.85 -23.5 98.45 -22.0 93.4 -21.55 91.0 -23.35 94.6 -26.75 94.25 -30.85" fill="#d7d7d7" fill-rule="evenodd" stroke="none"/>
      <path d="M84.95 -28.8 Q86.35 -30.2 88.05 -30.85 91.15 -27.9 91.0 -23.35 89.4 -26.65 84.95 -28.8 M97.4 -28.75 L98.95 -26.85 98.9 -25.4 Q96.15 -22.8 91.0 -23.35 94.55 -24.55 97.4 -28.75 M84.35 -17.35 L84.0 -17.85 Q82.95 -19.15 82.6 -20.65 L84.75 -22.35 Q87.45 -23.9 91.0 -23.35 86.4 -20.85 84.75 -18.1 L84.35 -17.35 M93.25 -16.1 L92.9 -16.45 Q90.9 -18.95 91.05 -23.2 92.55 -19.95 96.45 -18.05 L94.25 -16.45 93.25 -16.1" fill="#971012" fill-rule="evenodd" stroke="none"/>
      <path d="M98.95 -26.85 L99.45 -26.0 98.9 -25.4 98.95 -26.85 M97.95 -17.4 L97.0 -16.45 Q95.85 -15.55 94.55 -15.05 L93.25 -16.1 94.25 -16.45 96.45 -18.05 97.95 -17.4" fill="#7d0d0f" fill-rule="evenodd" stroke="none"/>
      <path d="M99.45 -26.0 Q100.05 -24.55 100.05 -22.8 L100.05 -22.2 98.45 -22.0 Q98.85 -23.5 98.9 -25.4 L99.45 -26.0 M99.75 -20.55 Q99.25 -18.9 97.95 -17.4 L96.45 -18.05 Q97.35 -19.0 97.95 -20.4 L99.75 -20.55 M94.55 -15.05 L91.1 -14.45 90.5 -14.45 90.0 -15.7 93.25 -16.1 94.55 -15.05 M88.3 -14.85 Q86.8 -15.3 85.5 -16.3 L88.15 -15.8 88.3 -14.85" fill="#b9b9b9" fill-rule="evenodd" stroke="none"/>
      <path d="M100.05 -22.2 L99.75 -20.55 97.95 -20.4 98.45 -22.0 100.05 -22.2 M90.5 -14.45 L88.3 -14.85 88.15 -15.8 90.0 -15.7 90.5 -14.45" fill="#265f10" fill-rule="evenodd" stroke="none"/>
      <path d="M82.7 -25.45 Q83.3 -27.25 84.75 -28.65 L84.85 -28.75 84.95 -28.8 Q86.35 -30.2 88.05 -30.85 L91.1 -31.35 92.2 -31.25 94.25 -30.85 Q96.0 -30.2 97.4 -28.75 L98.95 -26.85 99.45 -26.0 Q100.05 -24.55 100.05 -22.8 L100.05 -22.2 99.75 -20.55 Q99.25 -18.9 97.95 -17.4 L97.0 -16.45 Q95.85 -15.55 94.55 -15.05 L91.1 -14.45 90.5 -14.45 88.3 -14.85 Q86.8 -15.3 85.5 -16.3 L84.35 -17.35 84.0 -17.85 Q82.95 -19.15 82.6 -20.65 82.3 -21.65 82.3 -22.8 L82.4 -23.9 82.7 -25.45 Z" fill="none" stroke="#000000" stroke-linecap="round" stroke-linejoin="round" stroke-opacity="0.29803923" stroke-width="0.5"/>
      <path d="M57.15 -4.55 L57.15 -8.1 57.3 -9.65 Q58.5 -6.05 60.7 -5.05 L60.75 -0.35 Q57.35 -1.9 57.15 -4.55 M72.1 -14.6 Q73.75 -13.0 74.5 -10.4 L70.7 -10.25 Q70.35 -12.3 68.25 -13.2 69.65 -15.15 72.1 -14.6 M57.15 13.2 L57.15 8.1 Q58.05 11.65 60.8 12.55 L60.8 16.1 Q58.4 15.3 57.15 13.2" fill="#e02d87" fill-rule="evenodd" stroke="none"/>
      <path d="M57.15 -4.55 Q57.35 -1.9 60.75 -0.35 L60.75 4.6 Q58.55 3.2 57.15 -0.3 L57.15 -4.55 M60.7 -5.05 Q58.5 -6.05 57.3 -9.65 57.8 -14.95 62.3 -16.8 58.9 -13.6 61.3 -9.75 60.7 -7.75 60.7 -5.05 M66.1 -17.25 Q69.95 -16.8 72.1 -14.6 69.65 -15.15 68.25 -13.2 L63.65 -13.0 Q64.05 -16.5 66.1 -17.25 M74.5 -10.4 L74.95 -8.25 75.05 -7.0 Q70.6 -5.35 70.7 -10.25 L74.5 -10.4 M60.8 18.7 Q59.0 19.4 57.15 18.3 L57.15 13.2 Q58.4 15.3 60.8 16.1 L60.8 18.7 M57.15 8.1 L57.15 4.45 Q58.2 6.9 60.8 8.1 L60.8 12.55 Q58.05 11.65 57.15 8.1" fill="#ece3ee" fill-rule="evenodd" stroke="none"/>
      <path d="M75.05 -7.0 L75.1 -5.9 74.95 -5.8 70.35 -5.9 Q70.4 -8.65 69.95 -9.85 L70.7 -10.25 Q70.6 -5.35 75.05 -7.0 M67.75 -12.35 L66.4 -12.65 Q64.7 -12.8 63.6 -11.75 L63.65 -13.0 68.25 -13.2 67.75 -12.35 M62.15 -8.6 Q61.85 -7.35 61.8 -5.65 L61.8 -4.75 60.7 -5.05 Q60.7 -7.75 61.3 -9.75 L62.15 -8.6 M61.8 0.1 L61.8 5.05 60.75 4.6 60.75 -0.35 Q61.2 -0.1 61.8 0.1 M61.8 8.5 L61.8 12.75 60.8 12.55 60.8 8.1 61.8 8.5 M61.8 16.3 L61.8 18.3 60.8 18.7 60.8 16.1 61.8 16.3" fill="#d6ced8" fill-rule="evenodd" stroke="none"/>
      <path d="M62.3 -16.8 L66.1 -17.25 Q64.05 -16.5 63.65 -13.0 62.25 -12.25 61.3 -9.75 58.9 -13.6 62.3 -16.8 M57.15 4.45 L57.15 -0.3 Q58.55 3.2 60.75 4.6 L60.8 8.1 Q58.2 6.9 57.15 4.45" fill="#c71618" fill-rule="evenodd" stroke="none"/>
      <path d="M60.75 -0.35 L60.7 -5.05 61.8 -4.75 61.8 0.1 Q61.2 -0.1 60.75 -0.35 M69.95 -9.85 Q69.1 -11.85 67.75 -12.35 L68.25 -13.2 Q70.35 -12.3 70.7 -10.25 L69.95 -9.85 M61.8 12.75 L61.8 16.3 60.8 16.1 60.8 12.55 61.8 12.75" fill="#bf2673" fill-rule="evenodd" stroke="none"/>
      <path d="M63.6 -11.75 Q62.6 -10.75 62.15 -8.6 L61.3 -9.75 Q62.25 -12.25 63.65 -13.0 L63.6 -11.75 M61.8 5.05 L61.8 8.5 60.8 8.1 60.75 4.6 61.8 5.05" fill="#a71314" fill-rule="evenodd" stroke="none"/>
      <path d="M57.3 -9.65 L57.15 -8.1 57.15 -4.55 M57.3 -9.65 Q57.8 -14.95 62.3 -16.8 L66.1 -17.25 Q69.95 -16.8 72.1 -14.6 73.75 -13.0 74.5 -10.4 L74.95 -8.25 75.05 -7.0 75.1 -5.9 74.95 -5.8 70.35 -5.9 Q70.4 -8.65 69.95 -9.85 69.1 -11.85 67.75 -12.35 L66.4 -12.65 Q64.7 -12.8 63.6 -11.75 62.6 -10.75 62.15 -8.6 61.85 -7.35 61.8 -5.65 L61.8 -4.75 61.8 0.1 61.8 5.05 61.8 8.5 61.8 12.75 61.8 16.3 61.8 18.3 60.8 18.7 Q59.0 19.4 57.15 18.3 L57.15 13.2 57.15 8.1 57.15 4.45 57.15 -0.3 57.15 -4.55" fill="none" stroke="#000000" stroke-linecap="round" stroke-linejoin="round" stroke-opacity="0.29803923" stroke-width="0.8"/>
      <path d="M4.05 -3.05 Q2.0 -2.25 1.6 1.2 0.2 2.0 -0.75 4.5 -3.2 0.65 0.25 -2.55 1.6 -3.15 4.05 -3.05 M-4.95 18.65 L-4.95 13.95 Q-3.55 17.4 -1.35 18.8 L-1.3 22.35 Q-3.9 21.1 -4.95 18.65" fill="#c71618" fill-rule="evenodd" stroke="none"/>
      <path d="M4.05 -3.05 Q7.85 -2.55 10.05 -0.4 7.55 -0.9 6.2 1.0 L6.15 1.0 1.6 1.2 Q2.0 -2.25 4.05 -3.05 M12.4 3.85 L12.85 5.95 13.0 7.25 Q8.5 8.85 8.65 3.95 L12.4 3.85 M-1.25 32.95 Q-3.1 33.6 -4.95 32.5 L-4.95 27.45 Q-3.65 29.55 -1.25 30.3 L-1.25 32.95 M-4.95 22.35 L-4.95 18.65 Q-3.9 21.1 -1.3 22.35 L-1.3 26.75 Q-3.15 26.15 -4.1 24.35 L-4.2 24.2 -4.95 22.35 M-4.95 13.95 L-4.95 9.65 Q-4.7 12.3 -1.35 13.9 L-1.35 18.8 Q-3.55 17.4 -4.95 13.95 M-4.75 4.55 Q-4.3 -0.75 0.25 -2.55 -3.2 0.65 -0.75 4.5 -1.4 6.45 -1.4 9.15 -3.6 8.15 -4.75 4.55" fill="#ece3ee" fill-rule="evenodd" stroke="none"/>
      <path d="M1.6 1.2 L6.15 1.0 5.65 1.85 4.3 1.6 Q2.6 1.4 1.5 2.45 L1.6 1.2 M13.0 7.25 L13.0 8.35 12.85 8.4 Q10.75 9.5 8.3 8.35 8.35 5.6 7.85 4.4 L8.65 3.95 Q8.5 8.85 13.0 7.25 M0.05 5.6 L-0.3 8.55 -0.3 9.45 -1.4 9.15 Q-1.4 6.45 -0.75 4.5 L0.05 5.6 M-0.3 14.35 L-0.3 19.3 -1.35 18.8 -1.35 13.9 -0.3 14.35 M-0.3 22.75 L-0.3 27.0 -1.3 26.75 -1.3 22.35 -0.3 22.75 M-0.3 30.55 L-0.3 32.5 -1.25 32.95 -1.25 30.3 -0.3 30.55" fill="#d6ced8" fill-rule="evenodd" stroke="none"/>
      <path d="M6.15 1.0 L6.2 1.0 Q8.3 1.9 8.65 3.95 L7.85 4.4 Q7.0 2.4 5.65 1.85 L6.15 1.0 M-0.3 9.45 L-0.3 14.35 -1.35 13.9 -1.4 9.15 -0.3 9.45 M-0.3 27.0 L-0.3 30.55 -1.25 30.3 -1.3 26.75 -0.3 27.0" fill="#bf2673" fill-rule="evenodd" stroke="none"/>
      <path d="M6.2 1.0 Q7.55 -0.9 10.05 -0.4 11.65 1.25 12.4 3.85 L8.65 3.95 Q8.3 1.9 6.2 1.0 M-4.95 27.45 L-4.95 22.35 -4.2 24.2 -4.1 24.35 Q-3.15 26.15 -1.3 26.75 L-1.25 30.3 Q-3.65 29.55 -4.95 27.45 M-4.95 9.65 L-4.95 6.15 -4.75 4.55 Q-3.6 8.15 -1.4 9.15 L-1.35 13.9 Q-4.7 12.3 -4.95 9.65" fill="#e02d87" fill-rule="evenodd" stroke="none"/>
      <path d="M1.5 2.45 Q0.5 3.5 0.05 5.6 L-0.75 4.5 Q0.2 2.0 1.6 1.2 L1.5 2.45 M-0.3 19.3 L-0.3 22.75 -1.3 22.35 -1.35 18.8 -0.3 19.3" fill="#a71314" fill-rule="evenodd" stroke="none"/>
      <path d="M10.05 -0.4 Q7.85 -2.55 4.05 -3.05 M10.05 -0.4 Q11.65 1.25 12.4 3.85 L12.85 5.95 13.0 7.25 13.0 8.35 12.85 8.4 Q10.75 9.5 8.3 8.35 8.35 5.6 7.85 4.4 7.0 2.4 5.65 1.85 L4.3 1.6 Q2.6 1.4 1.5 2.45 0.5 3.5 0.05 5.6 L-0.3 8.55 -0.3 9.45 -0.3 14.35 -0.3 19.3 -0.3 22.75 -0.3 27.0 -0.3 30.55 -0.3 32.5 -1.25 32.95 Q-3.1 33.6 -4.95 32.5 L-4.95 27.45 -4.95 22.35 -4.95 18.65 -4.95 13.95 -4.95 9.65 -4.95 6.15 -4.75 4.55 Q-4.3 -0.75 0.25 -2.55 1.6 -3.15 4.05 -3.05" fill="none" stroke="#000000" stroke-linecap="round" stroke-linejoin="round" stroke-opacity="0.29803923" stroke-width="0.8"/>
      <path d="M-67.35 -15.9 Q-66.0 -16.45 -63.55 -16.4 -65.6 -15.6 -66.0 -12.15 -67.4 -11.35 -68.35 -8.85 -70.8 -12.7 -67.35 -15.9 M-72.55 5.35 L-72.55 0.6 Q-71.15 4.05 -68.95 5.45 L-68.9 9.0 Q-71.5 7.8 -72.55 5.35" fill="#c71618" fill-rule="evenodd" stroke="none"/>
      <path d="M-57.55 -13.7 Q-55.95 -12.1 -55.2 -9.5 L-58.95 -9.4 Q-59.3 -11.45 -61.4 -12.3 -60.05 -14.25 -57.55 -13.7 M-72.55 14.1 L-72.55 9.0 Q-71.6 12.5 -68.9 13.45 L-68.85 17.0 Q-71.25 16.2 -72.55 14.1 M-72.55 -3.7 L-72.55 -7.2 -72.35 -8.75 Q-71.2 -5.2 -69.0 -4.15 L-68.95 0.55 Q-72.3 -1.0 -72.55 -3.7" fill="#e02d87" fill-rule="evenodd" stroke="none"/>
      <path d="M-59.75 -8.95 Q-60.6 -10.95 -61.95 -11.5 L-61.45 -12.3 -61.4 -12.3 Q-59.3 -11.45 -58.95 -9.4 L-59.75 -8.95 M-67.9 -3.85 L-67.9 1.0 -68.95 0.55 -69.0 -4.15 -67.9 -3.85 M-67.9 13.65 L-67.9 17.2 -68.85 17.0 -68.9 13.45 -67.9 13.65" fill="#bf2673" fill-rule="evenodd" stroke="none"/>
      <path d="M-67.35 -15.9 Q-70.8 -12.7 -68.35 -8.85 -69.0 -6.9 -69.0 -4.15 -71.2 -5.2 -72.35 -8.75 -71.9 -14.05 -67.35 -15.9 M-66.0 -12.15 Q-65.6 -15.6 -63.55 -16.4 -59.75 -15.9 -57.55 -13.7 -60.05 -14.25 -61.4 -12.3 L-61.45 -12.3 -66.0 -12.15 M-55.2 -9.5 Q-54.9 -8.5 -54.75 -7.35 L-54.6 -6.1 Q-59.1 -4.5 -58.95 -9.4 L-55.2 -9.5 M-68.85 19.6 Q-70.7 20.25 -72.55 19.15 L-72.55 14.1 Q-71.25 16.2 -68.85 17.0 L-68.85 19.6 M-72.55 9.0 L-72.55 5.35 Q-71.5 7.8 -68.9 9.0 L-68.9 13.45 Q-71.6 12.5 -72.55 9.0 M-72.55 0.6 L-72.55 -3.7 Q-72.3 -1.0 -68.95 0.55 L-68.95 5.45 Q-71.15 4.05 -72.55 0.6" fill="#ece3ee" fill-rule="evenodd" stroke="none"/>
      <path d="M-54.6 -6.1 L-54.6 -5.0 -54.75 -4.9 -59.3 -5.0 Q-59.25 -7.75 -59.75 -8.95 L-58.95 -9.4 Q-59.1 -4.5 -54.6 -6.1 M-61.95 -11.5 L-63.3 -11.75 Q-65.0 -11.9 -66.1 -10.85 L-66.0 -12.15 -61.45 -12.3 -61.95 -11.5 M-67.55 -7.7 L-67.9 -4.8 -67.9 -3.85 -69.0 -4.15 Q-69.0 -6.9 -68.35 -8.85 L-67.55 -7.7 M-67.9 1.0 L-67.9 5.95 -68.95 5.45 -68.95 0.55 -67.9 1.0 M-67.9 9.4 L-67.9 13.65 -68.9 13.45 -68.9 9.0 -67.9 9.4 M-67.9 17.2 L-67.9 19.15 -68.85 19.6 -68.85 17.0 -67.9 17.2" fill="#d6ced8" fill-rule="evenodd" stroke="none"/>
      <path d="M-68.35 -8.85 Q-67.4 -11.35 -66.0 -12.15 L-66.1 -10.85 Q-67.1 -9.85 -67.55 -7.7 L-68.35 -8.85 M-67.9 5.95 L-67.9 9.4 -68.9 9.0 -68.95 5.45 -67.9 5.95" fill="#a71314" fill-rule="evenodd" stroke="none"/>
      <path d="M-63.55 -16.4 Q-66.0 -16.45 -67.35 -15.9 M-63.55 -16.4 Q-59.75 -15.9 -57.55 -13.7 -55.95 -12.1 -55.2 -9.5 -54.9 -8.5 -54.75 -7.35 L-54.6 -6.1 -54.6 -5.0 -54.75 -4.9 -59.3 -5.0 Q-59.25 -7.75 -59.75 -8.95 -60.6 -10.95 -61.95 -11.5 L-63.3 -11.75 Q-65.0 -11.9 -66.1 -10.85 -67.1 -9.85 -67.55 -7.7 L-67.9 -4.8 -67.9 -3.85 -67.9 1.0 -67.9 5.95 -67.9 9.4 -67.9 13.65 -67.9 17.2 -67.9 19.15 -68.85 19.6 Q-70.7 20.25 -72.55 19.15 L-72.55 14.1 -72.55 9.0 -72.55 5.35 -72.55 0.6 -72.55 -3.7 -72.55 -7.2 -72.35 -8.75 Q-71.9 -14.05 -67.35 -15.9" fill="none" stroke="#000000" stroke-linecap="round" stroke-linejoin="round" stroke-opacity="0.29803923" stroke-width="0.8"/>
      <path d="M37.95 -7.3 L40.0 -6.85 Q40.35 -2.8 36.75 0.65 38.45 -2.05 37.95 -7.3 M28.15 0.05 L28.45 -1.45 30.5 -1.65 Q34.2 -1.7 36.75 0.65 33.3 -0.5 30.5 -0.35 L28.15 0.05 M43.7 3.55 Q41.35 3.45 38.55 2.15 37.15 1.35 36.85 0.75 L36.75 0.65 Q39.15 2.4 44.2 2.0 L43.7 3.55 M33.9 8.15 L33.85 7.5 Q33.65 3.7 36.75 0.65 34.85 4.2 35.6 7.5 L35.8 8.3 33.9 8.15" fill="#317915" fill-rule="evenodd" stroke="none"/>
      <path d="M33.8 -6.85 Q35.25 -7.4 36.85 -7.4 L37.95 -7.3 Q38.45 -2.05 36.75 0.65 36.9 -3.9 33.8 -6.85 M40.0 -6.85 Q41.75 -6.2 43.15 -4.75 40.3 -0.55 36.75 0.65 34.2 -1.7 30.5 -1.65 L28.45 -1.45 Q29.05 -3.25 30.5 -4.65 L30.6 -4.75 30.7 -4.85 Q35.15 -2.65 36.75 0.65 41.9 1.2 44.65 -1.45 44.6 0.45 44.2 2.0 39.15 2.4 36.75 0.65 L36.85 0.75 Q36.65 5.05 38.65 7.5 L39.0 7.9 35.8 8.3 35.6 7.5 Q34.85 4.2 36.75 0.65 33.2 0.05 30.5 1.65 L28.35 3.35 28.1 2.05 28.1 0.95 28.15 0.05 30.5 -0.35 Q33.3 -0.5 36.75 0.65 33.65 3.7 33.85 7.5 L33.9 8.15 31.25 7.7 30.15 6.65 30.5 5.9 Q32.15 3.15 36.75 0.65 40.35 -2.8 40.0 -6.85 M43.7 3.55 Q43.1 4.95 42.2 5.95 38.3 4.05 36.85 0.75 37.15 1.35 38.55 2.15 41.35 3.45 43.7 3.55" fill="#d7d7d7" fill-rule="evenodd" stroke="none"/>
      <path d="M43.15 -4.75 L44.7 -2.85 44.65 -1.45 Q41.9 1.2 36.75 0.65 35.15 -2.65 30.7 -4.85 32.1 -6.2 33.8 -6.85 36.9 -3.9 36.75 0.65 32.15 3.15 30.5 5.9 L30.15 6.65 Q28.8 5.15 28.35 3.35 L30.5 1.65 Q33.2 0.05 36.75 0.65 40.3 -0.55 43.15 -4.75 M36.85 0.75 Q38.3 4.05 42.2 5.95 L40.0 7.5 39.0 7.9 38.65 7.5 Q36.65 5.05 36.85 0.75" fill="#971012" fill-rule="evenodd" stroke="none"/>
      <path d="M44.7 -2.85 L45.2 -2.0 44.65 -1.45 44.7 -2.85 M43.7 6.6 L42.75 7.5 Q41.6 8.4 40.3 8.95 L39.0 7.9 40.0 7.5 42.2 5.95 43.7 6.6" fill="#7d0d0f" fill-rule="evenodd" stroke="none"/>
      <path d="M45.2 -2.0 Q45.8 -0.55 45.8 1.15 L45.8 1.75 44.2 2.0 Q44.6 0.45 44.65 -1.45 L45.2 -2.0 M45.5 3.45 Q45.0 5.1 43.7 6.6 L42.2 5.95 Q43.1 4.95 43.7 3.55 L45.5 3.45 M40.3 8.95 L36.85 9.5 36.25 9.5 35.8 8.3 39.0 7.9 40.3 8.95 M34.05 9.1 Q32.55 8.7 31.25 7.7 L33.9 8.15 34.05 9.1" fill="#b9b9b9" fill-rule="evenodd" stroke="none"/>
      <path d="M45.8 1.75 L45.5 3.45 43.7 3.55 44.2 2.0 45.8 1.75 M36.25 9.5 L34.05 9.1 33.9 8.15 35.8 8.3 36.25 9.5" fill="#265f10" fill-rule="evenodd" stroke="none"/>
      <path d="M33.8 -6.85 Q35.25 -7.4 36.85 -7.4 L37.95 -7.3 40.0 -6.85 Q41.75 -6.2 43.15 -4.75 L44.7 -2.85 45.2 -2.0 Q45.8 -0.55 45.8 1.15 L45.8 1.75 45.5 3.45 Q45.0 5.1 43.7 6.6 L42.75 7.5 Q41.6 8.4 40.3 8.95 L36.85 9.5 36.25 9.5 34.05 9.1 Q32.55 8.7 31.25 7.7 L30.15 6.65 Q28.8 5.15 28.35 3.35 L28.1 2.05 28.1 0.95 28.15 0.05 28.45 -1.45 Q29.05 -3.25 30.5 -4.65 L30.6 -4.75 30.7 -4.85 Q32.1 -6.2 33.8 -6.85 Z" fill="none" stroke="#000000" stroke-linecap="round" stroke-linejoin="round" stroke-opacity="0.29803923" stroke-width="0.5"/>
      <path d="M-33.85 -7.6 L-31.85 -7.15 Q-31.5 -3.1 -35.1 0.3 -38.5 -0.8 -41.3 -0.65 L-43.65 -0.25 -43.35 -1.8 -41.3 -1.95 Q-37.6 -2.0 -35.1 0.3 -32.65 2.1 -27.65 1.7 L-28.1 3.25 Q-30.5 3.15 -33.3 1.85 -34.7 1.05 -35.0 0.45 L-35.1 0.3 Q-36.95 3.85 -36.2 7.2 L-36.05 8.0 -37.9 7.85 -37.95 7.2 Q-38.15 3.4 -35.1 0.3 -33.35 -2.35 -33.85 -7.6" fill="#317915" fill-rule="evenodd" stroke="none"/>
      <path d="M-43.35 -1.8 Q-42.75 -3.55 -41.3 -5.0 L-41.2 -5.05 -41.1 -5.15 Q-36.65 -2.95 -35.1 0.3 -37.6 -2.0 -41.3 -1.95 L-43.35 -1.8 M-38.0 -7.15 L-34.95 -7.7 -33.85 -7.6 Q-33.35 -2.35 -35.1 0.3 -38.65 -0.25 -41.3 1.35 L-43.45 3.05 -43.7 1.7 -43.7 0.65 -43.65 -0.25 -41.3 -0.65 Q-38.5 -0.8 -35.1 0.3 L-35.0 0.45 Q-34.7 1.05 -33.3 1.85 -30.5 3.15 -28.1 3.25 L-29.6 5.6 Q-33.5 3.75 -35.0 0.45 -35.15 4.75 -33.15 7.2 L-32.8 7.6 -36.05 8.0 -36.2 7.2 Q-36.95 3.85 -35.1 0.3 -38.15 3.4 -37.95 7.2 L-37.9 7.85 -40.55 7.35 -41.7 6.3 -41.3 5.6 Q-39.7 2.8 -35.1 0.3 -34.9 -4.25 -38.0 -7.15 M-31.85 -7.15 Q-30.1 -6.5 -28.7 -5.05 -31.55 -0.85 -35.1 0.3 -29.9 0.9 -27.15 -1.75 -27.25 0.15 -27.65 1.7 -32.65 2.1 -35.1 0.3 -31.5 -3.1 -31.85 -7.15" fill="#d7d7d7" fill-rule="evenodd" stroke="none"/>
      <path d="M-41.1 -5.15 Q-39.7 -6.5 -38.0 -7.15 -34.9 -4.25 -35.1 0.3 -39.7 2.8 -41.3 5.6 L-41.7 6.3 Q-43.0 4.85 -43.45 3.05 L-41.3 1.35 Q-38.65 -0.25 -35.1 0.3 -36.65 -2.95 -41.1 -5.15 M-28.7 -5.05 Q-27.7 -4.2 -27.1 -3.2 L-27.15 -1.75 Q-29.9 0.9 -35.1 0.3 -31.55 -0.85 -28.7 -5.05 M-32.8 7.6 L-33.15 7.2 Q-35.15 4.75 -35.0 0.45 -33.5 3.75 -29.6 5.6 -30.55 6.65 -31.85 7.2 L-32.8 7.6" fill="#971012" fill-rule="evenodd" stroke="none"/>
      <path d="M-27.1 -3.2 L-26.6 -2.3 -27.15 -1.75 -27.1 -3.2 M-28.1 6.3 L-29.1 7.2 Q-30.2 8.1 -31.55 8.65 L-32.8 7.6 -31.85 7.2 Q-30.55 6.65 -29.6 5.6 L-28.1 6.3" fill="#7d0d0f" fill-rule="evenodd" stroke="none"/>
      <path d="M-26.6 -2.3 Q-26.0 -0.85 -26.0 0.85 L-26.0 1.45 -27.65 1.7 Q-27.25 0.15 -27.15 -1.75 L-26.6 -2.3 M-26.3 3.15 Q-26.8 4.8 -28.1 6.3 L-29.6 5.6 -28.1 3.25 -26.3 3.15 M-31.55 8.65 Q-33.1 9.2 -34.95 9.2 L-35.55 9.2 -36.05 8.0 -32.8 7.6 -31.55 8.65 M-37.75 8.8 Q-39.3 8.4 -40.55 7.35 L-37.9 7.85 -37.75 8.8" fill="#b9b9b9" fill-rule="evenodd" stroke="none"/>
      <path d="M-26.0 1.45 L-26.3 3.15 -28.1 3.25 -27.65 1.7 -26.0 1.45 M-35.55 9.2 L-37.75 8.8 -37.9 7.85 -36.05 8.0 -35.55 9.2" fill="#265f10" fill-rule="evenodd" stroke="none"/>
      <path d="M-43.35 -1.8 Q-42.75 -3.55 -41.3 -5.0 L-41.2 -5.05 -41.1 -5.15 Q-39.7 -6.5 -38.0 -7.15 L-34.95 -7.7 -33.85 -7.6 -31.85 -7.15 Q-30.1 -6.5 -28.7 -5.05 -27.7 -4.2 -27.1 -3.2 L-26.6 -2.3 Q-26.0 -0.85 -26.0 0.85 L-26.0 1.45 -26.3 3.15 Q-26.8 4.8 -28.1 6.3 L-29.1 7.2 Q-30.2 8.1 -31.55 8.65 -33.1 9.2 -34.95 9.2 L-35.55 9.2 -37.75 8.8 Q-39.3 8.4 -40.55 7.35 L-41.7 6.3 Q-43.0 4.85 -43.45 3.05 L-43.7 1.7 -43.7 0.65 -43.65 -0.25 -43.35 -1.8 Z" fill="none" stroke="#000000" stroke-linecap="round" stroke-linejoin="round" stroke-opacity="0.29803923" stroke-width="0.5"/>
    </g>
    <radialGradient cx="0" cy="0" gradientTransform="matrix(0.0045, 0.0, 0.0, 0.0045, -75.5, -20.05)" gradientUnits="userSpaceOnUse" id="decoration192-gradient0" r="819.2" spreadMethod="pad">
      <stop offset="0.0" stop-color="#ff33ff"/>
      <stop offset="1.0" stop-color="#8633ff"/>
      <stop offset="1.0" stop-color="#8633ff"/>
    </radialGradient>
    <linearGradient gradientTransform="matrix(-0.0015, -0.0026, 0.0024, -0.0014, -73.1, -15.9)" gradientUnits="userSpaceOnUse" id="decoration192-gradient1" spreadMethod="pad" x1="-819.2" x2="819.2">
      <stop offset="0.0" stop-color="#ff33ff"/>
      <stop offset="1.0" stop-color="#8633ff"/>
    </linearGradient>
    <linearGradient gradientTransform="matrix(-0.0015, -0.0026, 0.0024, -0.0014, -46.95, -4.7)" gradientUnits="userSpaceOnUse" id="decoration192-gradient2" spreadMethod="pad" x1="-819.2" x2="819.2">
      <stop offset="0.0" stop-color="#b8eaf9"/>
      <stop offset="1.0" stop-color="#5499d3"/>
    </linearGradient>
    <radialGradient cx="0" cy="0" gradientTransform="matrix(0.0045, 0.0, 0.0, 0.0045, -49.35, -8.8)" gradientUnits="userSpaceOnUse" id="decoration192-gradient3" r="819.2" spreadMethod="pad">
      <stop offset="0.0" stop-color="#b8eaf9"/>
      <stop offset="0.9529411764705882" stop-color="#5499d3"/>
    </radialGradient>
    <radialGradient cx="0" cy="0" gradientTransform="matrix(0.0045, 0.0, 0.0, 0.0045, -15.35, -0.05)" gradientUnits="userSpaceOnUse" id="decoration192-gradient4" r="819.2" spreadMethod="pad">
      <stop offset="0.0" stop-color="#f0c9ef"/>
      <stop offset="0.9529411764705882" stop-color="#f08cc6"/>
    </radialGradient>
    <linearGradient gradientTransform="matrix(-0.0015, -0.0026, 0.0024, -0.0014, -12.95, 4.05)" gradientUnits="userSpaceOnUse" id="decoration192-gradient5" spreadMethod="pad" x1="-819.2" x2="819.2">
      <stop offset="0.0" stop-color="#f0c9ef"/>
      <stop offset="1.0" stop-color="#f08cc6"/>
    </linearGradient>
    <radialGradient cx="0" cy="0" gradientTransform="matrix(0.0045, 0.0, 0.0, 0.0045, 20.1, -0.25)" gradientUnits="userSpaceOnUse" id="decoration192-gradient6" r="819.2" spreadMethod="pad">
      <stop offset="0.0" stop-color="#e70c0c"/>
      <stop offset="0.9529411764705882" stop-color="#9d0808"/>
    </radialGradient>
    <linearGradient gradientTransform="matrix(-0.0015, -0.0026, 0.0024, -0.0014, 22.55, 3.9)" gradientUnits="userSpaceOnUse" id="decoration192-gradient7" spreadMethod="pad" x1="-819.2" x2="819.2">
      <stop offset="0.0" stop-color="#e70c0c"/>
      <stop offset="1.0" stop-color="#9d0808"/>
    </linearGradient>
    <linearGradient gradientTransform="matrix(-0.0015, -0.0026, 0.0024, -0.0014, 52.9, -3.6)" gradientUnits="userSpaceOnUse" id="decoration192-gradient8" spreadMethod="pad" x1="-819.2" x2="819.2">
      <stop offset="0.0" stop-color="#8e8e8e"/>
      <stop offset="1.0" stop-color="#00cc33"/>
    </linearGradient>
    <radialGradient cx="0" cy="0" gradientTransform="matrix(0.0045, 0.0, 0.0, 0.0045, 50.45, -7.7)" gradientUnits="userSpaceOnUse" id="decoration192-gradient9" r="819.2" spreadMethod="pad">
      <stop offset="0.0" stop-color="#00ff99"/>
      <stop offset="0.9529411764705882" stop-color="#009900"/>
    </radialGradient>
    <radialGradient cx="0" cy="0" gradientTransform="matrix(0.0045, 0.0, 0.0, 0.0045, 77.5, -20.05)" gradientUnits="userSpaceOnUse" id="decoration192-gradient10" r="819.2" spreadMethod="pad">
      <stop offset="0.0" stop-color="#f5e672"/>
      <stop offset="0.9529411764705882" stop-color="#fec432"/>
    </radialGradient>
    <linearGradient gradientTransform="matrix(-0.0015, -0.0026, 0.0024, -0.0014, 79.9, -15.95)" gradientUnits="userSpaceOnUse" id="decoration192-gradient11" spreadMethod="pad" x1="-819.2" x2="819.2">
      <stop offset="0.0" stop-color="#ffffff"/>
      <stop offset="1.0" stop-color="#fec432"/>
    </linearGradient>
  </defs>
</svg>
