<?xml version="1.0" encoding="UTF-8" standalone="no"?>
<svg xmlns:xlink="http://www.w3.org/1999/xlink" height="45.3px" width="94.95px" xmlns="http://www.w3.org/2000/svg">
  <g transform="matrix(1.0, 0.0, 0.0, 1.0, 49.05, 44.45)">
    <use height="45.3" transform="matrix(1.0, 0.0, 0.0, 1.0, -49.05, -44.45)" width="94.95" xlink:href="#decoration193-shape0"/>
  </g>
  <defs>
    <g id="decoration193-shape0" transform="matrix(1.0, 0.0, 0.0, 1.0, 49.05, 44.45)">
      <path d="M12.9 -42.8 L19.7 -43.0 21.1 -42.55 Q22.55 -42.05 24.85 -39.9 27.05 -37.8 26.4 -37.1 25.45 -37.8 23.9 -37.8 L23.45 -37.8 20.55 -37.4 Q16.85 -36.85 14.3 -37.95 L14.4 -38.45 13.25 -40.65 Q12.6 -41.8 14.75 -41.15 L16.9 -40.45 21.1 -39.7 Q18.75 -40.4 18.85 -40.65 17.95 -41.55 14.55 -42.45 L12.9 -42.8" fill="#82bd39" fill-rule="evenodd" stroke="none"/>
      <path d="M14.3 -37.95 Q11.7 -39.25 10.7 -41.15 L12.9 -42.8 14.55 -42.45 Q14.0 -42.3 14.3 -41.7 L14.75 -41.15 Q12.6 -41.8 13.25 -40.65 L14.4 -38.45 14.3 -37.95" fill="#59952b" fill-rule="evenodd" stroke="none"/>
      <path d="M10.7 -41.15 Q2.25 -35.3 5.65 -32.4 L8.45 -32.4 Q12.9 -29.45 15.65 -29.05 L43.4 -27.95 Q44.55 -27.65 44.8 -26.65 42.55 -24.95 42.6 -23.35 L42.7 -22.75 44.65 -19.55 45.55 -16.8 45.75 -14.95 45.4 -12.9 40.25 -14.0 35.5 -14.2 33.45 -14.15 33.25 -14.0 12.35 -12.55 Q10.4 -11.8 10.65 -10.7 10.9 -9.4 13.5 -8.35 26.15 -9.25 34.2 -8.75 L42.55 -7.95 42.05 -7.45 Q41.6 -6.3 43.4 -2.5 L45.25 0.65 17.05 -0.35 Q10.0 -1.7 -9.0 0.4 L-36.05 0.4 Q-36.9 -1.5 -35.3 -2.95 L-34.0 -3.95 Q-32.9 -2.8 -31.55 -3.95 L-17.45 -4.6 -31.55 -3.95 Q-30.45 -5.0 -31.15 -6.45 -33.05 -8.6 -33.25 -10.1 L-33.25 -11.05 -33.4 -12.65 Q-33.7 -14.9 -34.5 -17.25 L-33.4 -18.35 Q-32.3 -19.3 -30.35 -20.2 L-30.35 -21.1 Q1.3 -22.45 2.5 -23.7 3.4 -24.75 1.4 -26.1 0.8 -26.4 0.15 -26.75 -3.45 -28.65 -16.8 -28.25 -16.85 -26.75 -17.85 -26.15 L-22.2 -26.2 -32.1 -26.4 -32.85 -27.8 -34.15 -30.0 -34.8 -31.0 Q-27.95 -28.8 -22.95 -28.95 -17.1 -29.1 -13.85 -31.9 L-1.6 -31.3 -0.9 -32.4 Q1.0 -35.7 2.95 -37.95 6.7 -42.6 10.85 -44.3 12.65 -44.1 12.9 -42.8 L10.7 -41.15 M2.95 -36.6 Q3.75 -38.3 4.55 -38.6 4.8 -36.25 1.7 -34.15 0.4 -33.65 2.95 -37.95 0.4 -33.65 1.7 -34.15 4.8 -36.25 4.55 -38.6 3.75 -38.3 2.95 -36.6 M15.65 -29.05 Q12.95 -27.95 8.45 -28.05 1.7 -28.65 -1.6 -31.3 1.7 -28.65 8.45 -28.05 12.95 -27.95 15.65 -29.05 M19.0 -26.1 Q9.3 -23.75 1.4 -26.1 9.3 -23.75 19.0 -26.1 M5.05 -12.45 L5.3 -12.85 6.25 -13.95 Q9.5 -17.8 12.65 -18.65 12.75 -22.4 11.6 -23.3 8.95 -20.95 1.15 -20.0 L-6.55 -19.9 Q-9.7 -17.65 -13.7 -13.65 L-16.7 -12.8 Q-14.65 -11.05 -14.15 -9.65 L-17.05 -6.2 Q-17.85 -5.15 -17.45 -4.6 -17.05 -4.25 -15.9 -4.2 L-8.95 -4.25 Q-4.6 -4.45 -1.45 -5.8 1.7 -7.15 3.4 -9.9 L5.05 -12.45 M12.35 -4.85 L19.35 -5.4 31.9 -4.8 43.4 -2.5 31.9 -4.8 19.35 -5.4 12.35 -4.85 Q11.4 -2.55 19.45 -2.65 27.5 -2.7 21.75 -4.45 27.5 -2.7 19.45 -2.65 11.4 -2.55 12.35 -4.85 L6.2 -3.85 Q0.8 -2.75 -13.4 -2.55 0.8 -2.75 6.2 -3.85 L12.35 -4.85 M45.55 -16.8 Q34.05 -21.3 15.75 -17.1 7.7 -14.7 16.35 -19.85 31.2 -23.35 44.65 -19.55 31.2 -23.35 16.35 -19.85 7.7 -14.7 15.75 -17.1 34.05 -21.3 45.55 -16.8 M42.6 -23.35 Q29.9 -24.75 17.15 -24.0 29.9 -24.75 42.6 -23.35 M-31.55 -29.2 Q-17.7 -27.7 -20.9 -27.25 L-32.85 -27.8 -20.9 -27.25 Q-17.7 -27.7 -31.55 -29.2 M-21.9 -16.15 L-13.4 -16.15 Q-8.75 -18.65 -20.65 -18.35 L-33.4 -18.35 -20.65 -18.35 Q-8.75 -18.65 -13.4 -16.15 L-21.9 -16.15 M-16.7 -12.8 L-33.4 -12.65 -16.7 -12.8 M-0.9 -32.4 Q5.75 -28.55 5.65 -32.4 5.75 -28.55 -0.9 -32.4" fill="url(#decoration193-gradient0)" fill-rule="evenodd" stroke="none"/>
      <path d="M14.55 -42.45 Q17.95 -41.55 18.85 -40.65 18.75 -40.4 21.1 -39.7 L16.9 -40.45 14.75 -41.15 14.3 -41.7 Q14.0 -42.3 14.55 -42.45" fill="#a8cc7a" fill-rule="evenodd" stroke="none"/>
      <path d="M-22.2 -26.2 L-17.85 -26.15 Q-16.85 -26.75 -16.8 -28.25 -3.45 -28.65 0.15 -26.75 0.8 -26.4 1.4 -26.1 3.4 -24.75 2.5 -23.7 1.3 -22.45 -30.35 -21.1 -30.55 -23.0 -32.1 -26.4 L-22.2 -26.2" fill="#4a2d24" fill-rule="evenodd" stroke="none"/>
      <path d="M-6.55 -19.9 L1.15 -20.0 Q8.95 -20.95 11.6 -23.3 12.75 -22.4 12.65 -18.65 9.5 -17.8 6.25 -13.95 L5.3 -12.85 5.05 -12.45 Q-4.55 -7.85 -7.85 -9.5 -11.05 -11.2 -6.55 -19.9" fill="#27160d" fill-rule="evenodd" stroke="none"/>
      <path d="M45.4 -12.9 Q45.2 -11.9 42.55 -7.95 L34.2 -8.75 Q26.15 -9.25 13.5 -8.35 10.9 -9.4 10.65 -10.7 10.4 -11.8 12.35 -12.55 L33.25 -14.0 33.45 -14.15 35.5 -14.2 40.25 -14.0 45.4 -12.9 M5.05 -12.45 L3.4 -9.9 Q1.7 -7.15 -1.45 -5.8 -4.6 -4.45 -8.95 -4.25 L-15.9 -4.2 Q-17.05 -4.25 -17.45 -4.6 -17.85 -5.15 -17.05 -6.2 L-14.15 -9.65 Q-14.65 -11.05 -16.7 -12.8 L-13.7 -13.65 Q-9.7 -17.65 -6.55 -19.9 -11.05 -11.2 -7.85 -9.5 -4.55 -7.85 5.05 -12.45" fill="#43271d" fill-rule="evenodd" stroke="none"/>
      <path d="M-32.1 -26.4 Q-30.55 -23.0 -30.35 -21.1 L-30.35 -20.2 Q-32.3 -19.3 -33.4 -18.35 L-34.5 -17.25 Q-33.7 -14.9 -33.4 -12.65 L-33.25 -11.05 -33.25 -10.1 Q-33.05 -8.6 -31.15 -6.45 -30.45 -5.0 -31.55 -3.95 -32.9 -2.8 -34.0 -3.95 L-35.3 -2.95 Q-38.95 -2.4 -38.85 -8.8 -42.8 -9.15 -43.55 -14.9 -44.05 -18.1 -41.25 -22.25 L-38.55 -25.6 -34.15 -30.0 -32.85 -27.8 -32.1 -26.4 Q-34.95 -27.45 -36.5 -23.0 -38.9 -17.65 -37.6 -11.35 -36.55 -8.1 -35.25 -9.2 -34.25 -5.25 -33.25 -10.1 -34.25 -5.25 -35.25 -9.2 -36.55 -8.1 -37.6 -11.35 -38.9 -17.65 -36.5 -23.0 -34.95 -27.45 -32.1 -26.4" fill="#31211b" fill-rule="evenodd" stroke="none"/>
      <path d="M-36.05 0.4 Q-41.15 0.9 -41.85 -1.9 -42.45 -4.25 -41.85 -6.35 -44.15 -7.45 -48.1 -6.7 L-48.85 -7.7 Q-49.25 -9.4 -47.5 -11.85 -45.85 -14.35 -46.15 -16.15 -48.0 -19.8 -46.35 -23.3 -45.45 -25.2 -43.55 -27.1 -41.15 -29.45 -37.1 -31.8 L-34.8 -31.0 -34.15 -30.0 -38.55 -25.6 -41.25 -22.25 Q-44.05 -18.1 -43.55 -14.9 -42.8 -9.15 -38.85 -8.8 -38.95 -2.4 -35.3 -2.95 -36.9 -1.5 -36.05 0.4" fill="#38231c" fill-rule="evenodd" stroke="none"/>
      <path d="M12.9 -42.8 L19.7 -43.0 21.1 -42.55 Q22.55 -42.05 24.85 -39.9 27.05 -37.8 26.4 -37.1 25.45 -37.8 23.9 -37.8 L23.45 -37.8 20.55 -37.4 Q16.85 -36.85 14.3 -37.95 11.7 -39.25 10.7 -41.15 2.25 -35.3 5.65 -32.4 L8.45 -32.4 Q12.9 -29.45 15.65 -29.05 L43.4 -27.95 Q44.55 -27.65 44.8 -26.65 42.55 -24.95 42.6 -23.35 L42.7 -22.75 44.65 -19.55 45.55 -16.8 45.75 -14.95 45.4 -12.9 Q45.2 -11.9 42.55 -7.95 L42.05 -7.45 Q41.6 -6.3 43.4 -2.5 L45.25 0.65 17.05 -0.35 Q10.0 -1.7 -9.0 0.4 L-36.05 0.4 Q-41.15 0.9 -41.85 -1.9 -42.45 -4.25 -41.85 -6.35 -44.15 -7.45 -48.1 -6.7 L-48.85 -7.7 Q-49.25 -9.4 -47.5 -11.85 -45.85 -14.35 -46.15 -16.15 -48.0 -19.8 -46.35 -23.3 -45.45 -25.2 -43.55 -27.1 -41.15 -29.45 -37.1 -31.8 L-34.8 -31.0 Q-27.95 -28.8 -22.95 -28.95 -17.1 -29.1 -13.85 -31.9 L-1.6 -31.3 -0.9 -32.4 Q1.0 -35.7 2.95 -37.95 6.7 -42.6 10.85 -44.3 12.65 -44.1 12.9 -42.8 M10.7 -41.15 L12.9 -42.8 M-32.1 -26.4 Q-30.55 -23.0 -30.35 -21.1 L-30.35 -20.2 Q-32.3 -19.3 -33.4 -18.35 L-34.5 -17.25 Q-33.7 -14.9 -33.4 -12.65 L-33.25 -11.05 -33.25 -10.1 Q-33.05 -8.6 -31.15 -6.45 -30.45 -5.0 -31.55 -3.95 -32.9 -2.8 -34.0 -3.95 L-35.3 -2.95 Q-36.9 -1.5 -36.05 0.4 M-32.1 -26.4 L-32.85 -27.8 -34.15 -30.0 -34.8 -31.0" fill="none" stroke="#000000" stroke-linecap="round" stroke-linejoin="round" stroke-opacity="0.4" stroke-width="0.30000000000000004"/>
      <path d="M12.9 -42.8 L14.55 -42.45 Q17.95 -41.55 18.85 -40.65 M-30.35 -21.1 Q1.3 -22.45 2.5 -23.7 3.4 -24.75 1.4 -26.1 M5.05 -12.45 L3.4 -9.9 Q1.7 -7.15 -1.45 -5.8 -4.6 -4.45 -8.95 -4.25 L-15.9 -4.2 Q-17.05 -4.25 -17.45 -4.6 L-31.55 -3.95 M12.35 -4.85 Q11.4 -2.55 19.45 -2.65 27.5 -2.7 21.75 -4.45 M12.35 -4.85 L6.2 -3.85 Q0.8 -2.75 -13.4 -2.55 M-16.7 -12.8 L-13.7 -13.65 Q-9.7 -17.65 -6.55 -19.9" fill="none" stroke="#000000" stroke-linecap="round" stroke-linejoin="round" stroke-opacity="0.4" stroke-width="0.1"/>
      <path d="M1.4 -26.1 Q0.8 -26.4 0.15 -26.75 -3.45 -28.65 -16.8 -28.25 -16.85 -26.75 -17.85 -26.15 L-22.2 -26.2 M1.4 -26.1 Q9.3 -23.75 19.0 -26.1 M-1.6 -31.3 Q1.7 -28.65 8.45 -28.05 12.95 -27.95 15.65 -29.05 M2.95 -37.95 Q0.4 -33.65 1.7 -34.15 4.8 -36.25 4.55 -38.6 3.75 -38.3 2.95 -36.6 M-6.55 -19.9 L1.15 -20.0 Q8.95 -20.95 11.6 -23.3 12.75 -22.4 12.65 -18.65 9.5 -17.8 6.25 -13.95 L5.3 -12.85 5.05 -12.45 M44.65 -19.55 Q31.2 -23.35 16.35 -19.85 7.7 -14.7 15.75 -17.1 34.05 -21.3 45.55 -16.8 M43.4 -2.5 L31.9 -4.8 19.35 -5.4 12.35 -4.85 M33.25 -14.0 L12.35 -12.55 Q10.4 -11.8 10.65 -10.7 10.9 -9.4 13.5 -8.35 26.15 -9.25 34.2 -8.75 L42.55 -7.95 M17.15 -24.0 Q29.9 -24.75 42.6 -23.35 M-34.15 -30.0 L-38.55 -25.6 -41.25 -22.25 Q-44.05 -18.1 -43.55 -14.9 -42.8 -9.15 -38.85 -8.8 -38.95 -2.4 -35.3 -2.95 M-32.85 -27.8 L-20.9 -27.25 Q-17.7 -27.7 -31.55 -29.2 M-33.4 -18.35 L-20.65 -18.35 Q-8.75 -18.65 -13.4 -16.15 L-21.9 -16.15 M-33.4 -12.65 L-16.7 -12.8 M-6.55 -19.9 Q-11.05 -11.2 -7.85 -9.5 -4.55 -7.85 5.05 -12.45 M-33.25 -10.1 Q-34.25 -5.25 -35.25 -9.2 -36.55 -8.1 -37.6 -11.35 -38.9 -17.65 -36.5 -23.0 -34.95 -27.45 -32.1 -26.4 M-17.45 -4.6 Q-17.85 -5.15 -17.05 -6.2 L-14.15 -9.65 Q-14.65 -11.05 -16.7 -12.8 M5.65 -32.4 Q5.75 -28.55 -0.9 -32.4" fill="none" stroke="#000000" stroke-linecap="round" stroke-linejoin="round" stroke-opacity="0.3019608" stroke-width="0.1"/>
    </g>
    <linearGradient gradientTransform="matrix(0.0, 0.016, -0.0275, 0.0, 3.8, -23.35)" gradientUnits="userSpaceOnUse" id="decoration193-gradient0" spreadMethod="pad" x1="-819.2" x2="819.2">
      <stop offset="0.0" stop-color="#8e5c36"/>
      <stop offset="1.0" stop-color="#563429"/>
    </linearGradient>
  </defs>
</svg>
