<?xml version="1.0" encoding="UTF-8" standalone="no"?>
<svg xmlns:xlink="http://www.w3.org/1999/xlink" height="49.4px" width="94.95px" xmlns="http://www.w3.org/2000/svg">
  <g transform="matrix(1.0, 0.0, 0.0, 1.0, 49.05, 48.55)">
    <use data-characterId="156" height="49.4" transform="matrix(1.0, 0.0, 0.0, 1.0, -49.05, -48.55)" width="94.95" xlink:href="#decoration194-shape0"/>
  </g>
  <defs>
    <g id="decoration194-shape0" transform="matrix(1.0, 0.0, 0.0, 1.0, 49.05, 48.55)">
      <path d="M12.9 -42.8 L19.7 -43.0 21.1 -42.55 Q22.55 -42.05 24.85 -39.9 27.05 -37.8 26.4 -37.1 25.45 -37.8 23.9 -37.8 L23.45 -37.8 20.55 -37.4 Q16.85 -36.85 14.3 -37.95 L14.4 -38.45 13.25 -40.65 Q12.6 -41.8 14.75 -41.15 L16.9 -40.45 21.1 -39.7 Q18.75 -40.4 18.85 -40.65 17.95 -41.55 14.55 -42.45 L12.9 -42.8" fill="#82bd39" fill-rule="evenodd" stroke="none"/>
      <path d="M14.3 -37.95 Q11.7 -39.25 10.7 -41.15 L12.9 -42.8 14.55 -42.45 Q14.0 -42.3 14.3 -41.7 L14.75 -41.15 Q12.6 -41.8 13.25 -40.65 L14.4 -38.45 14.3 -37.95" fill="#59952b" fill-rule="evenodd" stroke="none"/>
      <path d="M10.7 -41.15 Q2.25 -35.3 5.65 -32.4 L8.45 -32.4 Q12.9 -29.45 15.65 -29.05 L43.4 -27.95 Q44.55 -27.65 44.8 -26.65 42.55 -24.95 42.6 -23.35 L42.7 -22.75 44.65 -19.55 45.55 -16.8 45.75 -14.95 45.4 -12.9 40.25 -14.0 35.5 -14.2 33.45 -14.15 33.25 -14.0 12.35 -12.55 Q10.4 -11.8 10.65 -10.7 10.9 -9.4 13.5 -8.35 26.15 -9.25 34.2 -8.75 L42.55 -7.95 42.05 -7.45 Q41.6 -6.3 43.4 -2.5 L45.25 0.65 17.05 -0.35 Q10.0 -1.7 -9.0 0.4 L-36.05 0.4 Q-36.9 -1.5 -35.3 -2.95 L-34.0 -3.95 Q-32.9 -2.8 -31.55 -3.95 L-17.45 -4.6 -31.55 -3.95 Q-30.45 -5.0 -31.15 -6.45 -33.05 -8.6 -33.25 -10.1 L-33.25 -11.05 -33.4 -12.65 Q-33.7 -14.9 -34.5 -17.25 L-33.4 -18.35 Q-32.3 -19.3 -30.35 -20.2 L-30.35 -21.1 Q1.3 -22.45 2.5 -23.7 3.4 -24.75 1.4 -26.1 0.8 -26.4 0.15 -26.75 -3.45 -28.65 -16.8 -28.25 -16.85 -26.75 -17.85 -26.15 L-22.2 -26.2 -32.1 -26.4 -32.85 -27.8 -34.15 -30.0 -34.8 -31.0 Q-27.95 -28.8 -22.95 -28.95 -17.1 -29.1 -13.85 -31.9 L-1.6 -31.3 -0.9 -32.4 Q1.0 -35.7 2.95 -37.95 6.7 -42.6 10.85 -44.3 12.65 -44.1 12.9 -42.8 L10.7 -41.15 M2.95 -36.6 Q3.75 -38.3 4.55 -38.6 4.8 -36.25 1.7 -34.15 0.4 -33.65 2.95 -37.95 0.4 -33.65 1.7 -34.15 4.8 -36.25 4.55 -38.6 3.75 -38.3 2.95 -36.6 M15.65 -29.05 Q12.95 -27.95 8.45 -28.05 1.7 -28.65 -1.6 -31.3 1.7 -28.65 8.45 -28.05 12.95 -27.95 15.65 -29.05 M19.0 -26.1 Q9.3 -23.75 1.4 -26.1 9.3 -23.75 19.0 -26.1 M5.05 -12.45 L5.3 -12.85 6.25 -13.95 Q9.5 -17.8 12.65 -18.65 12.75 -22.4 11.6 -23.3 8.95 -20.95 1.15 -20.0 L-6.55 -19.9 Q-9.7 -17.65 -13.7 -13.65 L-16.7 -12.8 Q-14.65 -11.05 -14.15 -9.65 L-17.05 -6.2 Q-17.85 -5.15 -17.45 -4.6 -17.05 -4.25 -15.9 -4.2 L-8.95 -4.25 Q-4.6 -4.45 -1.45 -5.8 1.7 -7.15 3.4 -9.9 L5.05 -12.45 M12.35 -4.85 L19.35 -5.4 31.9 -4.8 43.4 -2.5 31.9 -4.8 19.35 -5.4 12.35 -4.85 Q11.4 -2.55 19.45 -2.65 27.5 -2.7 21.75 -4.45 27.5 -2.7 19.45 -2.65 11.4 -2.55 12.35 -4.85 L6.2 -3.85 Q0.8 -2.75 -13.4 -2.55 0.8 -2.75 6.2 -3.85 L12.35 -4.85 M45.55 -16.8 Q34.05 -21.3 15.75 -17.1 7.7 -14.7 16.35 -19.85 31.2 -23.35 44.65 -19.55 31.2 -23.35 16.35 -19.85 7.7 -14.7 15.75 -17.1 34.05 -21.3 45.55 -16.8 M42.6 -23.35 Q29.9 -24.75 17.15 -24.0 29.9 -24.75 42.6 -23.35 M-31.55 -29.2 Q-17.7 -27.7 -20.9 -27.25 L-32.85 -27.8 -20.9 -27.25 Q-17.7 -27.7 -31.55 -29.2 M-21.9 -16.15 L-13.4 -16.15 Q-8.75 -18.65 -20.65 -18.35 L-33.4 -18.35 -20.65 -18.35 Q-8.75 -18.65 -13.4 -16.15 L-21.9 -16.15 M-16.7 -12.8 L-33.4 -12.65 -16.7 -12.8 M-0.9 -32.4 Q5.75 -28.55 5.65 -32.4 5.75 -28.55 -0.9 -32.4" fill="url(#decoration194-gradient0)" fill-rule="evenodd" stroke="none"/>
      <path d="M14.55 -42.45 Q17.95 -41.55 18.85 -40.65 18.75 -40.4 21.1 -39.7 L16.9 -40.45 14.75 -41.15 14.3 -41.7 Q14.0 -42.3 14.55 -42.45" fill="#a8cc7a" fill-rule="evenodd" stroke="none"/>
      <path d="M-22.2 -26.2 L-17.85 -26.15 Q-16.85 -26.75 -16.8 -28.25 -3.45 -28.65 0.15 -26.75 0.8 -26.4 1.4 -26.1 3.4 -24.75 2.5 -23.7 1.3 -22.45 -30.35 -21.1 -30.55 -23.0 -32.1 -26.4 L-22.2 -26.2" fill="#4a2d24" fill-rule="evenodd" stroke="none"/>
      <path d="M-6.55 -19.9 L1.15 -20.0 Q8.95 -20.95 11.6 -23.3 12.75 -22.4 12.65 -18.65 9.5 -17.8 6.25 -13.95 L5.3 -12.85 5.05 -12.45 Q-4.55 -7.85 -7.85 -9.5 -11.05 -11.2 -6.55 -19.9" fill="#27160d" fill-rule="evenodd" stroke="none"/>
      <path d="M45.4 -12.9 Q45.2 -11.9 42.55 -7.95 L34.2 -8.75 Q26.15 -9.25 13.5 -8.35 10.9 -9.4 10.65 -10.7 10.4 -11.8 12.35 -12.55 L33.25 -14.0 33.45 -14.15 35.5 -14.2 40.25 -14.0 45.4 -12.9 M5.05 -12.45 L3.4 -9.9 Q1.7 -7.15 -1.45 -5.8 -4.6 -4.45 -8.95 -4.25 L-15.9 -4.2 Q-17.05 -4.25 -17.45 -4.6 -17.85 -5.15 -17.05 -6.2 L-14.15 -9.65 Q-14.65 -11.05 -16.7 -12.8 L-13.7 -13.65 Q-9.7 -17.65 -6.55 -19.9 -11.05 -11.2 -7.85 -9.5 -4.55 -7.85 5.05 -12.45" fill="#43271d" fill-rule="evenodd" stroke="none"/>
      <path d="M-32.1 -26.4 Q-30.55 -23.0 -30.35 -21.1 L-30.35 -20.2 Q-32.3 -19.3 -33.4 -18.35 L-34.5 -17.25 Q-33.7 -14.9 -33.4 -12.65 L-33.25 -11.05 -33.25 -10.1 Q-33.05 -8.6 -31.15 -6.45 -30.45 -5.0 -31.55 -3.95 -32.9 -2.8 -34.0 -3.95 L-35.3 -2.95 Q-38.95 -2.4 -38.85 -8.8 -42.8 -9.15 -43.55 -14.9 -44.05 -18.1 -41.25 -22.25 L-38.55 -25.6 -34.15 -30.0 -32.85 -27.8 -32.1 -26.4 Q-34.95 -27.45 -36.5 -23.0 -38.9 -17.65 -37.6 -11.35 -36.55 -8.1 -35.25 -9.2 -34.25 -5.25 -33.25 -10.1 -34.25 -5.25 -35.25 -9.2 -36.55 -8.1 -37.6 -11.35 -38.9 -17.65 -36.5 -23.0 -34.95 -27.45 -32.1 -26.4" fill="#31211b" fill-rule="evenodd" stroke="none"/>
      <path d="M-36.05 0.4 Q-41.15 0.9 -41.85 -1.9 -42.45 -4.25 -41.85 -6.35 -44.15 -7.45 -48.1 -6.7 L-48.85 -7.7 Q-49.25 -9.4 -47.5 -11.85 -45.85 -14.35 -46.15 -16.15 -48.0 -19.8 -46.35 -23.3 -45.45 -25.2 -43.55 -27.1 -41.15 -29.45 -37.1 -31.8 L-34.8 -31.0 -34.15 -30.0 -38.55 -25.6 -41.25 -22.25 Q-44.05 -18.1 -43.55 -14.9 -42.8 -9.15 -38.85 -8.8 -38.95 -2.4 -35.3 -2.95 -36.9 -1.5 -36.05 0.4" fill="#38231c" fill-rule="evenodd" stroke="none"/>
      <path d="M12.9 -42.8 L19.7 -43.0 21.1 -42.55 Q22.55 -42.05 24.85 -39.9 27.05 -37.8 26.4 -37.1 25.45 -37.8 23.9 -37.8 L23.45 -37.8 20.55 -37.4 Q16.85 -36.85 14.3 -37.95 11.7 -39.25 10.7 -41.15 2.25 -35.3 5.65 -32.4 L8.45 -32.4 Q12.9 -29.45 15.65 -29.05 L43.4 -27.95 Q44.55 -27.65 44.8 -26.65 42.55 -24.95 42.6 -23.35 L42.7 -22.75 44.65 -19.55 45.55 -16.8 45.75 -14.95 45.4 -12.9 Q45.2 -11.9 42.55 -7.95 L42.05 -7.45 Q41.6 -6.3 43.4 -2.5 L45.25 0.65 17.05 -0.35 Q10.0 -1.7 -9.0 0.4 L-36.05 0.4 Q-41.15 0.9 -41.85 -1.9 -42.45 -4.25 -41.85 -6.35 -44.15 -7.45 -48.1 -6.7 L-48.85 -7.7 Q-49.25 -9.4 -47.5 -11.85 -45.85 -14.35 -46.15 -16.15 -48.0 -19.8 -46.35 -23.3 -45.45 -25.2 -43.55 -27.1 -41.15 -29.45 -37.1 -31.8 L-34.8 -31.0 Q-27.95 -28.8 -22.95 -28.95 -17.1 -29.1 -13.85 -31.9 L-1.6 -31.3 -0.9 -32.4 Q1.0 -35.7 2.95 -37.95 6.7 -42.6 10.85 -44.3 12.65 -44.1 12.9 -42.8 L10.7 -41.15 M-32.1 -26.4 Q-30.55 -23.0 -30.35 -21.1 L-30.35 -20.2 Q-32.3 -19.3 -33.4 -18.35 L-34.5 -17.25 Q-33.7 -14.9 -33.4 -12.65 L-33.25 -11.05 -33.25 -10.1 Q-33.05 -8.6 -31.15 -6.45 -30.45 -5.0 -31.55 -3.95 -32.9 -2.8 -34.0 -3.95 L-35.3 -2.95 Q-36.9 -1.5 -36.05 0.4 M-32.1 -26.4 L-32.85 -27.8 -34.15 -30.0 -34.8 -31.0" fill="none" stroke="#000000" stroke-linecap="round" stroke-linejoin="round" stroke-opacity="0.4" stroke-width="0.30000000000000004"/>
      <path d="M12.9 -42.8 L14.55 -42.45 Q17.95 -41.55 18.85 -40.65 M-30.35 -21.1 Q1.3 -22.45 2.5 -23.7 3.4 -24.75 1.4 -26.1 M5.05 -12.45 L3.4 -9.9 Q1.7 -7.15 -1.45 -5.8 -4.6 -4.45 -8.95 -4.25 L-15.9 -4.2 Q-17.05 -4.25 -17.45 -4.6 L-31.55 -3.95 M12.35 -4.85 Q11.4 -2.55 19.45 -2.65 27.5 -2.7 21.75 -4.45 M12.35 -4.85 L6.2 -3.85 Q0.8 -2.75 -13.4 -2.55 M-16.7 -12.8 L-13.7 -13.65 Q-9.7 -17.65 -6.55 -19.9" fill="none" stroke="#000000" stroke-linecap="round" stroke-linejoin="round" stroke-opacity="0.4" stroke-width="0.1"/>
      <path d="M1.4 -26.1 Q0.8 -26.4 0.15 -26.75 -3.45 -28.65 -16.8 -28.25 -16.85 -26.75 -17.85 -26.15 L-22.2 -26.2 M1.4 -26.1 Q9.3 -23.75 19.0 -26.1 M-1.6 -31.3 Q1.7 -28.65 8.45 -28.05 12.95 -27.95 15.65 -29.05 M2.95 -37.95 Q0.4 -33.65 1.7 -34.15 4.8 -36.25 4.55 -38.6 3.75 -38.3 2.95 -36.6 M-6.55 -19.9 L1.15 -20.0 Q8.95 -20.95 11.6 -23.3 12.75 -22.4 12.65 -18.65 9.5 -17.8 6.25 -13.95 L5.3 -12.85 5.05 -12.45 Q-4.55 -7.85 -7.85 -9.5 -11.05 -11.2 -6.55 -19.9 M44.65 -19.55 Q31.2 -23.35 16.35 -19.85 7.7 -14.7 15.75 -17.1 34.05 -21.3 45.55 -16.8 M43.4 -2.5 L31.9 -4.8 19.35 -5.4 12.35 -4.85 M33.25 -14.0 L12.35 -12.55 Q10.4 -11.8 10.65 -10.7 10.9 -9.4 13.5 -8.35 26.15 -9.25 34.2 -8.75 L42.55 -7.95 M17.15 -24.0 Q29.9 -24.75 42.6 -23.35 M-34.15 -30.0 L-38.55 -25.6 -41.25 -22.25 Q-44.05 -18.1 -43.55 -14.9 -42.8 -9.15 -38.85 -8.8 -38.95 -2.4 -35.3 -2.95 M-32.85 -27.8 L-20.9 -27.25 Q-17.7 -27.7 -31.55 -29.2 M-33.4 -18.35 L-20.65 -18.35 Q-8.75 -18.65 -13.4 -16.15 L-21.9 -16.15 M-33.4 -12.65 L-16.7 -12.8 Q-14.65 -11.05 -14.15 -9.65 L-17.05 -6.2 Q-17.85 -5.15 -17.45 -4.6 M-33.25 -10.1 Q-34.25 -5.25 -35.25 -9.2 -36.55 -8.1 -37.6 -11.35 -38.9 -17.65 -36.5 -23.0 -34.95 -27.45 -32.1 -26.4 M5.65 -32.4 Q5.75 -28.55 -0.9 -32.4" fill="none" stroke="#000000" stroke-linecap="round" stroke-linejoin="round" stroke-opacity="0.3019608" stroke-width="0.1"/>
      <path d="M4.35 -41.8 L5.55 -41.75 Q7.05 -41.75 9.0 -43.75 11.0 -45.8 13.5 -45.8 15.35 -45.8 17.8 -44.7 20.25 -43.65 22.2 -43.65 L23.15 -43.7 Q23.8 -43.0 23.8 -42.4 23.8 -40.9 22.0 -40.9 20.7 -40.9 20.15 -41.3 L18.85 -42.1 16.55 -42.55 14.1 -42.85 9.65 -42.25 Q8.85 -41.9 8.0 -41.15 7.5 -40.7 5.95 -39.95 L4.5 -39.3 Q3.4 -39.3 3.6 -40.3 3.6 -40.9 4.35 -41.8 M44.8 -29.7 Q45.55 -28.85 45.55 -28.2 45.55 -25.0 39.85 -25.0 L37.2 -25.25 34.25 -25.8 26.45 -26.6 23.25 -26.6 Q20.55 -27.0 19.5 -27.55 18.45 -28.1 18.45 -29.2 18.45 -30.35 19.65 -31.15 L19.65 -30.85 Q19.65 -29.4 21.9 -28.9 L26.25 -28.6 32.05 -29.05 Q32.8 -29.05 34.65 -28.1 36.45 -27.2 38.75 -27.2 41.55 -27.2 43.45 -28.45 L44.8 -29.7 M-0.95 -35.75 Q0.85 -35.0 0.85 -33.2 0.85 -31.9 0.45 -31.35 -0.4 -30.1 -3.1 -30.1 L-5.5 -30.4 -7.6 -30.75 Q-12.15 -30.75 -14.25 -29.4 L-17.85 -26.95 -21.9 -26.95 Q-27.6 -27.85 -31.15 -30.3 -31.75 -30.75 -35.3 -31.85 -37.95 -32.7 -37.95 -33.8 -37.95 -35.55 -36.35 -36.3 L-36.65 -35.5 Q-36.65 -34.65 -33.55 -33.85 L-29.95 -33.0 Q-25.55 -30.85 -22.7 -30.85 -20.6 -30.85 -17.05 -31.85 -13.5 -32.9 -6.95 -32.9 L-4.65 -32.65 Q-2.7 -32.65 -1.7 -34.05 -1.15 -34.75 -0.95 -35.75" fill="#bbd1d7" fill-rule="evenodd" stroke="none"/>
      <path d="M23.15 -43.7 L22.2 -43.65 Q20.25 -43.65 17.8 -44.7 15.35 -45.8 13.5 -45.8 11.0 -45.8 9.0 -43.75 7.05 -41.75 5.55 -41.75 L4.35 -41.8 4.75 -42.35 6.65 -44.25 Q7.25 -44.85 7.85 -46.2 8.65 -47.4 10.45 -48.05 13.9 -49.3 19.05 -46.5 22.0 -44.9 23.15 -43.7 M19.65 -31.15 Q20.65 -31.8 22.4 -32.2 L26.9 -32.95 28.9 -33.55 Q30.45 -34.0 30.95 -34.45 L31.65 -34.55 33.35 -34.9 37.2 -34.7 Q39.8 -34.05 40.65 -32.95 L44.8 -29.7 43.45 -28.45 Q41.55 -27.2 38.75 -27.2 36.45 -27.2 34.65 -28.1 32.8 -29.05 32.05 -29.05 L26.25 -28.6 21.9 -28.9 Q19.65 -29.4 19.65 -30.85 L19.65 -31.15 M-36.35 -36.3 L-29.95 -36.65 Q-21.3 -34.7 -20.0 -34.7 L-12.35 -35.45 -6.55 -36.35 -3.3 -36.35 Q-1.9 -36.2 -0.95 -35.75 -1.15 -34.75 -1.7 -34.05 -2.7 -32.65 -4.65 -32.65 L-6.95 -32.9 Q-13.5 -32.9 -17.05 -31.85 -20.6 -30.85 -22.7 -30.85 -25.55 -30.85 -29.95 -33.0 L-33.55 -33.85 Q-36.65 -34.65 -36.65 -35.5 L-36.35 -36.3 M1.0 -9.25 L1.0 -9.0 Q1.0 -8.4 -0.45 -7.25 -1.75 -6.2 -2.6 -5.85 -3.75 -5.3 -7.1 -4.8 L-11.9 -4.35 Q-14.4 -4.35 -15.1 -4.95 L-15.35 -5.9 Q-13.45 -9.8 -12.65 -9.8 L-11.0 -8.25 Q-9.35 -6.7 -6.95 -6.7 -5.1 -6.7 -3.55 -7.35 -2.2 -7.55 0.1 -8.75 L1.0 -9.25" fill="#f2f7f8" fill-rule="evenodd" stroke="none"/>
      <path d="M7.45 -5.15 Q8.15 -3.65 10.75 -3.65 11.45 -3.65 12.6 -4.25 L13.75 -5.0 13.8 -5.0 13.8 -4.75 13.65 -3.95 Q13.65 -3.1 14.3 -3.1 14.6 -3.1 15.1 -3.4 L15.9 -3.7 17.15 -3.25 Q18.0 -2.8 19.3 -2.8 21.45 -2.8 23.25 -4.25 24.6 -5.35 25.55 -7.1 25.05 -6.1 26.1 -4.6 27.4 -2.65 30.65 -2.65 32.9 -2.65 35.15 -4.3 36.7 -5.45 37.5 -6.6 L37.6 -6.65 37.5 -5.55 Q37.5 -4.15 39.15 -3.7 L42.6 -3.45 42.95 -3.45 45.4 0.45 29.85 0.45 14.7 -0.7 Q3.5 -1.3 -8.3 0.4 L-36.15 0.35 Q-36.45 -2.65 -34.05 -4.15 -32.45 -2.8 -31.75 -3.85 L-31.3 -3.35 Q-30.65 -2.9 -29.7 -2.9 -28.3 -2.9 -27.15 -5.35 -26.4 -6.95 -26.25 -8.05 L-26.2 -8.15 Q-26.0 -2.95 -23.45 -2.95 -22.75 -2.95 -21.95 -3.45 L-21.1 -4.05 -20.4 -2.85 Q-19.9 -2.1 -19.15 -2.1 L-18.25 -2.35 -17.7 -2.6 -17.05 -1.8 Q-16.05 -1.05 -14.25 -1.05 -12.45 -1.05 -10.2 -1.85 L-7.75 -2.65 -6.65 -2.05 Q-5.85 -1.5 -5.3 -1.5 -4.8 -1.5 -2.15 -2.4 0.45 -3.35 1.65 -3.35 L2.7 -3.1 3.4 -2.9 Q4.65 -2.9 6.9 -7.45 L7.05 -7.5 7.45 -5.15" fill="#ffffff" fill-opacity="0.101960786" fill-rule="evenodd" stroke="none"/>
      <path d="M20.35 -45.75 Q19.95 -45.5 19.7 -45.85 19.45 -46.2 19.85 -46.4 L20.5 -46.3 Q20.8 -45.95 20.35 -45.75 M21.85 -44.6 Q21.4 -44.4 21.15 -44.75 20.95 -45.05 21.4 -45.4 21.8 -45.75 22.05 -45.25 22.3 -44.8 21.85 -44.6 M29.75 -34.65 Q30.1 -34.75 30.4 -34.45 30.7 -34.1 30.25 -33.85 29.85 -33.6 29.6 -34.05 29.35 -34.5 29.75 -34.65 M26.6 -32.5 Q26.25 -32.3 26.0 -32.65 25.75 -33.0 26.1 -33.25 26.5 -33.5 26.75 -33.1 27.0 -32.7 26.6 -32.5 M28.8 -33.05 Q28.4 -32.85 28.1 -33.25 27.8 -33.65 28.15 -33.9 28.5 -34.1 28.85 -33.7 29.25 -33.25 28.8 -33.05 M21.55 -31.75 Q21.3 -32.2 21.7 -32.35 L22.35 -32.15 Q22.65 -31.8 22.2 -31.55 21.8 -31.3 21.55 -31.75 M23.8 -32.2 L23.15 -32.3 Q22.9 -32.7 23.3 -33.0 L23.9 -32.9 Q24.15 -32.5 23.8 -32.2 M38.6 -33.85 Q38.35 -34.3 38.75 -34.45 39.1 -34.55 39.4 -34.25 39.7 -33.9 39.25 -33.65 38.85 -33.4 38.6 -33.85 M36.35 -34.65 Q35.9 -35.25 36.45 -35.6 36.95 -35.9 37.5 -35.3 38.05 -34.65 37.45 -34.35 36.8 -34.1 36.35 -34.65 M32.25 -34.2 Q31.8 -33.9 31.5 -34.35 31.2 -34.75 31.65 -35.1 32.1 -35.45 32.4 -35.0 32.65 -34.5 32.25 -34.2 M35.2 -34.8 Q34.85 -34.65 34.65 -34.95 34.45 -35.2 34.75 -35.45 L35.3 -35.3 Q35.5 -34.95 35.2 -34.8 M17.05 -46.65 Q16.7 -47.0 17.1 -47.3 L17.85 -47.2 Q18.15 -46.85 17.75 -46.55 17.35 -46.25 17.05 -46.65 M15.25 -47.5 Q14.95 -47.85 15.35 -48.05 L16.05 -48.0 Q16.25 -47.7 15.9 -47.45 L15.25 -47.5 M11.2 -47.45 L10.6 -47.55 Q10.35 -47.9 10.75 -48.1 11.1 -48.3 11.35 -47.95 11.6 -47.65 11.2 -47.45 M13.55 -47.7 Q13.1 -47.5 12.9 -47.8 12.7 -48.1 13.1 -48.4 13.5 -48.75 13.7 -48.3 13.95 -47.9 13.55 -47.7 M8.45 -46.8 Q8.2 -47.1 8.55 -47.3 L9.1 -47.25 Q9.35 -46.95 9.0 -46.75 L8.45 -46.8 M7.15 -45.05 Q6.95 -45.25 7.25 -45.4 L7.7 -45.35 Q7.85 -45.15 7.6 -44.95 7.35 -44.8 7.15 -45.05 M4.4 -41.4 Q3.95 -41.15 3.7 -41.55 3.45 -41.9 3.85 -42.15 4.25 -42.35 4.55 -42.0 4.85 -41.65 4.4 -41.4 M5.65 -42.55 Q5.2 -42.35 5.0 -42.65 4.8 -42.95 5.2 -43.25 5.6 -43.6 5.8 -43.15 6.05 -42.75 5.65 -42.55 M18.95 -30.5 Q18.55 -31.0 19.0 -31.3 19.45 -31.55 19.9 -31.05 20.35 -30.5 19.85 -30.25 19.35 -30.05 18.95 -30.5 M41.65 -32.75 L41.25 -32.8 Q41.1 -33.05 41.35 -33.25 L41.75 -33.15 41.65 -32.75 M43.85 -31.25 Q44.15 -30.8 43.75 -30.6 43.35 -30.4 43.1 -30.75 42.8 -31.1 43.2 -31.4 43.6 -31.7 43.85 -31.25 M44.15 -29.5 Q43.9 -29.85 44.2 -30.05 44.5 -30.25 44.8 -29.85 45.1 -29.5 44.75 -29.35 44.4 -29.15 44.15 -29.5 M-11.65 -35.95 Q-11.4 -35.45 -11.95 -35.2 -12.5 -34.9 -12.7 -35.4 -12.9 -35.85 -12.4 -36.15 -11.9 -36.4 -11.65 -35.95 M-10.7 -36.4 Q-10.1 -36.6 -9.8 -36.2 -9.5 -35.75 -9.95 -35.35 -10.45 -34.95 -10.85 -35.55 -11.3 -36.15 -10.7 -36.4 M-15.05 -35.35 Q-15.4 -35.8 -14.75 -36.25 -14.15 -36.7 -13.75 -36.0 -13.35 -35.3 -14.05 -35.05 -14.75 -34.85 -15.05 -35.35 M-19.15 -34.35 Q-19.5 -34.85 -19.05 -35.0 -18.55 -35.2 -18.3 -34.85 -18.0 -34.5 -18.4 -34.15 -18.85 -33.85 -19.15 -34.35 M-17.0 -34.7 Q-17.25 -35.1 -16.8 -35.35 -16.35 -35.65 -16.2 -35.25 -16.0 -34.9 -16.35 -34.6 -16.75 -34.35 -17.0 -34.7 M-0.95 -35.55 Q-1.25 -35.3 -1.5 -35.7 -1.8 -36.1 -1.4 -36.25 L-0.8 -36.1 Q-0.6 -35.85 -0.95 -35.55 M-3.05 -36.45 Q-3.5 -36.25 -3.65 -36.65 -3.8 -37.0 -3.4 -37.25 -3.0 -37.5 -2.8 -37.1 -2.6 -36.7 -3.05 -36.45 M-4.95 -35.5 Q-5.35 -35.35 -5.55 -35.65 -5.75 -35.95 -5.4 -36.2 -5.05 -36.45 -4.8 -36.05 -4.55 -35.65 -4.95 -35.5 M-8.35 -36.2 Q-8.7 -36.7 -8.1 -37.1 L-7.2 -37.0 Q-6.95 -36.45 -7.5 -36.1 -8.0 -35.7 -8.35 -36.2 M-32.05 -37.3 Q-31.8 -36.9 -32.25 -36.75 -32.7 -36.55 -32.9 -36.9 -33.1 -37.2 -32.7 -37.5 -32.3 -37.75 -32.05 -37.3 M-35.45 -36.15 Q-35.65 -36.45 -35.25 -36.7 L-34.75 -36.6 Q-34.6 -36.3 -34.9 -36.05 -35.25 -35.85 -35.45 -36.15 M-24.2 -35.3 Q-24.55 -35.75 -23.9 -36.2 -23.3 -36.65 -22.9 -35.95 -22.5 -35.25 -23.2 -35.0 -23.9 -34.8 -24.2 -35.3 M-21.3 -34.15 Q-21.45 -34.5 -21.05 -34.75 -20.65 -35.0 -20.45 -34.6 -20.25 -34.2 -20.7 -33.95 -21.15 -33.75 -21.3 -34.15 M-30.15 -36.55 Q-30.5 -36.4 -30.6 -36.7 L-30.4 -37.15 -29.95 -37.05 Q-29.8 -36.7 -30.15 -36.55 M-28.5 -36.15 Q-28.9 -36.7 -28.3 -36.9 -27.75 -37.15 -27.45 -36.7 -27.2 -36.3 -27.65 -35.95 -28.1 -35.55 -28.5 -36.15 M-26.15 -35.45 Q-26.4 -35.85 -25.95 -36.1 -25.5 -36.4 -25.35 -36.0 -25.15 -35.65 -25.5 -35.35 -25.9 -35.1 -26.15 -35.45" fill="#ffffff" fill-opacity="0.81960785" fill-rule="evenodd" stroke="none"/>
    </g>
    <linearGradient gradientTransform="matrix(0.0, 0.016, -0.0275, 0.0, 3.8, -23.35)" gradientUnits="userSpaceOnUse" id="decoration194-gradient0" spreadMethod="pad" x1="-819.2" x2="819.2">
      <stop offset="0.0" stop-color="#8e5c36"/>
      <stop offset="1.0" stop-color="#563429"/>
    </linearGradient>
  </defs>
</svg>
