<?xml version="1.0" encoding="UTF-8" standalone="no"?>
<svg xmlns:xlink="http://www.w3.org/1999/xlink" height="37.65px" width="34.4px" xmlns="http://www.w3.org/2000/svg">
  <g transform="matrix(1.0, 0.0, 0.0, 1.0, 16.7, 36.9)">
    <use height="37.65" transform="matrix(1.0, 0.0, 0.0, 1.0, -16.7, -36.9)" width="34.4" xlink:href="#decoration196-shape0"/>
  </g>
  <defs>
    <g id="decoration196-shape0" transform="matrix(1.0, 0.0, 0.0, 1.0, 16.7, 36.9)">
      <path d="M13.5 -30.9 L10.9 -30.75 9.3 -30.6 5.6 -29.9 0.45 -28.6 Q-2.95 -27.55 -6.7 -27.9 L-6.75 -27.9 -8.35 -28.15 Q-12.25 -28.85 -16.55 -30.9 -15.6 -32.0 -12.6 -32.5 L-7.7 -32.8 -4.5 -32.85 -0.05 -33.05 3.35 -33.2 7.9 -33.3 9.75 -33.25 Q11.4 -33.05 13.5 -30.9 M-10.55 -31.2 Q-6.75 -29.25 -0.95 -29.7 6.5 -30.35 7.9 -33.3 6.5 -30.35 -0.95 -29.7 -6.75 -29.25 -10.55 -31.2 L-11.5 -30.7 -10.55 -31.2 -12.6 -32.5 -10.55 -31.2 -9.45 -31.75 -10.55 -31.2 M-0.05 -33.05 Q0.15 -32.5 -2.45 -32.3 -5.0 -32.25 -4.5 -32.85 -5.0 -32.25 -2.45 -32.3 0.15 -32.5 -0.05 -33.05 M-6.0 -28.95 L-6.7 -27.9 -6.0 -28.95 M3.35 -33.2 Q2.55 -31.65 -2.5 -31.45 -7.65 -31.4 -7.7 -32.8 -7.65 -31.4 -2.5 -31.45 2.55 -31.65 3.35 -33.2" fill="#d8bba2" fill-rule="evenodd" stroke="none"/>
      <path d="M9.3 -30.6 L10.9 -30.75 13.5 -30.9 Q12.25 -28.05 11.95 -22.9 11.75 -19.65 12.35 -16.25 L10.9 -20.15 Q10.1 -22.5 10.1 -24.55 10.1 -28.55 10.9 -30.75 10.1 -28.55 10.1 -24.55 10.1 -22.5 10.9 -20.15 L12.35 -16.25 Q12.65 -14.3 13.3 -12.25 L13.2 -12.1 13.15 -10.45 Q13.1 -9.3 13.95 -8.55 L13.95 -7.8 13.8 -1.8 Q13.15 -0.5 11.05 0.1 8.05 0.95 2.1 0.3 L2.8 -3.6 Q2.55 -8.8 1.2 -10.55 -0.15 -12.25 -0.4 -7.2 -0.65 -2.2 -2.6 0.0 L-3.75 0.25 -8.05 0.15 Q-5.65 -5.05 -6.6 -8.85 -7.6 -12.75 -7.4 -15.35 -7.3 -17.95 -6.0 -20.5 -4.75 -23.15 -8.35 -28.15 L-6.75 -27.9 -6.7 -27.9 Q-2.95 -27.55 0.45 -28.6 L5.6 -29.9 Q5.35 -22.25 6.95 -20.25 9.25 -19.9 8.95 -23.85 8.6 -27.75 9.3 -30.6 M-5.95 -26.7 L-6.75 -27.9 -5.95 -26.7 M0.1 -27.75 Q-0.5 -22.5 0.95 -19.65 2.35 -16.8 3.15 -13.55 4.0 -10.4 2.8 -3.6 4.0 -10.4 3.15 -13.55 2.35 -16.8 0.95 -19.65 -0.5 -22.5 0.1 -27.75 M7.8 -4.2 L8.0 -6.5 7.8 -4.2 M6.3 -2.6 Q6.75 -4.65 6.75 -7.4 L6.5 -11.55 Q6.3 -13.7 5.95 -14.3 6.3 -13.7 6.5 -11.55 L6.75 -7.4 Q6.75 -4.65 6.3 -2.6 M11.05 0.1 L11.85 -0.75 12.65 -2.05 Q13.2 -3.0 13.5 -5.3 13.7 -7.5 13.95 -7.8 13.7 -7.5 13.5 -5.3 13.2 -3.0 12.65 -2.05 L11.85 -0.75 11.05 0.1 M-4.1 -8.3 Q-4.25 -10.75 -4.65 -12.15 L-5.1 -14.65 Q-5.1 -15.8 -4.7 -17.15 -5.1 -15.8 -5.1 -14.65 L-4.65 -12.15 Q-4.25 -10.75 -4.1 -8.3" fill="url(#decoration196-gradient0)" fill-rule="evenodd" stroke="none"/>
      <path d="M5.6 -29.9 L9.3 -30.6 Q8.6 -27.75 8.95 -23.85 9.25 -19.9 6.95 -20.25 5.35 -22.25 5.6 -29.9 M13.4 -12.15 L15.85 -14.35 Q17.05 -15.5 17.45 -14.95 17.85 -14.3 16.9 -11.1 14.55 -9.85 14.0 -8.7 L13.95 -8.55 Q13.1 -9.3 13.15 -10.45 L13.2 -12.1 13.3 -12.25 13.4 -12.15 M2.1 0.3 Q0.45 -0.65 -2.6 0.0 -0.65 -2.2 -0.4 -7.2 -0.15 -12.25 1.2 -10.55 2.55 -8.8 2.8 -3.6 L2.1 0.3 M-8.05 0.15 Q-10.3 -0.35 -13.3 -1.55 L-13.45 -1.6 Q-14.8 -2.15 -16.2 -2.85 -16.3 -5.2 -14.5 -8.75 -13.3 -11.2 -14.7 -20.6 -15.35 -25.0 -16.55 -30.9 -12.25 -28.85 -8.35 -28.15 -4.75 -23.15 -6.0 -20.5 -7.3 -17.95 -7.4 -15.35 -7.6 -12.75 -6.6 -8.85 -5.65 -5.05 -8.05 0.15 M-10.15 -19.65 L-9.75 -21.35 -9.5 -23.05 Q-9.5 -25.4 -10.55 -26.65 -9.5 -25.4 -9.5 -23.05 L-9.75 -21.35 -10.15 -19.65 M-13.45 -1.6 L-13.7 -2.25 -13.8 -3.25 -13.15 -6.6 Q-12.5 -8.95 -12.5 -10.65 L-12.5 -12.4 -13.0 -15.15 -14.7 -20.6 -13.0 -15.15 -12.5 -12.4 -12.5 -10.65 Q-12.5 -8.95 -13.15 -6.6 L-13.8 -3.25 -13.7 -2.25 -13.45 -1.6 M-11.1 -18.3 L-10.95 -19.9 -10.75 -21.05 -10.95 -19.9 -11.1 -18.3" fill="url(#decoration196-gradient1)" fill-rule="evenodd" stroke="none"/>
      <path d="M9.3 -30.6 L10.9 -30.75 13.5 -30.9 Q11.4 -33.05 9.75 -33.25 L7.9 -33.3 M-16.55 -30.9 Q-15.6 -32.0 -12.6 -32.5 L-7.7 -32.8 -4.5 -32.85 -0.05 -33.05 3.35 -33.2 7.9 -33.3 M5.6 -29.9 L9.3 -30.6 M5.6 -29.9 L0.45 -28.6 Q-2.95 -27.55 -6.7 -27.9 L-6.75 -27.9 M12.35 -16.25 Q11.75 -19.65 11.95 -22.9 12.25 -28.05 13.5 -30.9 M13.4 -12.15 L15.85 -14.35 Q17.05 -15.5 17.45 -14.95 17.85 -14.3 16.9 -11.1 14.55 -9.85 14.0 -8.7 L13.95 -8.55 13.95 -7.8 13.8 -1.8 Q13.15 -0.5 11.05 0.1 8.05 0.95 2.1 0.3 0.45 -0.65 -2.6 0.0 L-3.75 0.25 -8.05 0.15 Q-10.3 -0.35 -13.3 -1.55 M-13.45 -1.6 Q-14.8 -2.15 -16.2 -2.85 -16.3 -5.2 -14.5 -8.75 -13.3 -11.2 -14.7 -20.6 -15.35 -25.0 -16.55 -30.9 -12.25 -28.85 -8.35 -28.15 L-6.75 -27.9 M13.3 -12.25 Q12.65 -14.3 12.35 -16.25" fill="none" stroke="#000000" stroke-linecap="round" stroke-linejoin="round" stroke-opacity="0.4" stroke-width="0.30000000000000004"/>
      <path d="M-10.55 -31.2 L-11.5 -30.7 M-6.75 -27.9 L-5.95 -26.7 M10.9 -30.75 Q10.1 -28.55 10.1 -24.55 10.1 -22.5 10.9 -20.15 L12.35 -16.25 M-13.3 -1.55 L-13.45 -1.6 M5.95 -14.3 Q6.3 -13.7 6.5 -11.55 L6.75 -7.4 Q6.75 -4.65 6.3 -2.6 M8.0 -6.5 L7.8 -4.2 M13.95 -7.8 Q13.7 -7.5 13.5 -5.3 13.2 -3.0 12.65 -2.05 L11.85 -0.75 11.05 0.1 M-10.55 -31.2 L-9.45 -31.75 M-6.7 -27.9 L-6.0 -28.95 M-10.55 -26.65 Q-9.5 -25.4 -9.5 -23.05 L-9.75 -21.35 -10.15 -19.65 M-4.7 -17.15 Q-5.1 -15.8 -5.1 -14.65 L-4.65 -12.15 Q-4.25 -10.75 -4.1 -8.3 M-10.75 -21.05 L-10.95 -19.9 -11.1 -18.3 M-14.7 -20.6 L-13.0 -15.15 -12.5 -12.4 -12.5 -10.65 Q-12.5 -8.95 -13.15 -6.6 L-13.8 -3.25 -13.7 -2.25 -13.45 -1.6" fill="none" stroke="#000000" stroke-linecap="round" stroke-linejoin="round" stroke-opacity="0.3019608" stroke-width="0.1"/>
      <path d="M7.9 -33.3 Q6.5 -30.35 -0.95 -29.7 -6.75 -29.25 -10.55 -31.2 M9.3 -30.6 Q8.6 -27.75 8.95 -23.85 9.25 -19.9 6.95 -20.25 5.35 -22.25 5.6 -29.9 M2.8 -3.6 Q4.0 -10.4 3.15 -13.55 2.35 -16.8 0.95 -19.65 -0.5 -22.5 0.1 -27.75 M-2.6 0.0 Q-0.65 -2.2 -0.4 -7.2 -0.15 -12.25 1.2 -10.55 2.55 -8.8 2.8 -3.6 L2.1 0.3 M-12.6 -32.5 L-10.55 -31.2 M-4.5 -32.85 Q-5.0 -32.25 -2.45 -32.3 0.15 -32.5 -0.05 -33.05 M-7.7 -32.8 Q-7.65 -31.4 -2.5 -31.45 2.55 -31.65 3.35 -33.2 M-8.35 -28.15 Q-4.75 -23.15 -6.0 -20.5 -7.3 -17.95 -7.4 -15.35 -7.6 -12.75 -6.6 -8.85 -5.65 -5.05 -8.05 0.15" fill="none" stroke="#000000" stroke-linecap="round" stroke-linejoin="round" stroke-opacity="0.4" stroke-width="0.1"/>
      <path d="M-15.35 -33.75 Q-13.45 -35.3 -8.8 -35.6 L-6.55 -35.6 -4.3 -35.9 0.1 -36.3 4.0 -36.35 8.1 -35.8 Q9.9 -35.35 11.7 -34.35 L12.8 -33.65 12.45 -33.5 Q11.1 -32.9 9.0 -32.9 L7.15 -33.05 5.15 -33.25 0.65 -32.4 Q-1.75 -31.55 -3.3 -31.55 L-6.35 -32.05 -10.2 -32.9 Q-11.5 -33.1 -13.8 -32.95 -15.05 -33.0 -15.35 -33.75" fill="#f2f7f8" fill-rule="evenodd" stroke="none"/>
      <path d="M12.8 -33.65 Q13.9 -32.8 13.9 -32.05 13.9 -31.25 11.0 -31.2 L7.7 -31.3 Q5.45 -31.3 2.15 -30.0 -1.1 -28.75 -3.55 -28.75 -6.85 -28.75 -11.25 -30.25 L-12.8 -30.9 Q-13.7 -31.35 -14.15 -31.4 L-15.5 -31.4 -16.35 -31.55 -16.35 -32.55 -15.35 -33.75 Q-15.05 -33.0 -13.8 -32.95 -11.5 -33.1 -10.2 -32.9 L-6.35 -32.05 -3.3 -31.55 Q-1.75 -31.55 0.65 -32.4 L5.15 -33.25 7.15 -33.05 9.0 -32.9 Q11.1 -32.9 12.45 -33.5 L12.8 -33.65" fill="#bbd1d7" fill-rule="evenodd" stroke="none"/>
      <path d="M7.35 -1.85 Q9.4 -1.85 10.15 -5.0 10.6 -6.95 10.6 -10.8 L10.6 -11.0 11.2 -6.75 Q11.8 -2.8 12.5 -2.8 13.15 -2.8 13.75 -4.05 L13.8 -4.15 13.85 -1.7 Q12.0 1.35 1.85 0.2 L-4.8 0.4 Q-9.65 0.9 -16.3 -2.9 -15.15 -3.25 -13.5 -6.1 -12.25 -8.35 -12.15 -11.45 L-12.15 -6.05 -11.9 -3.85 Q-11.6 -3.15 -10.95 -3.15 L-10.25 -3.55 -9.6 -4.2 -9.5 -4.2 Q-9.65 -3.2 -9.3 -2.55 -8.9 -1.85 -7.9 -1.85 -6.4 -1.85 -5.2 -4.1 -4.05 -6.1 -3.55 -9.2 -3.65 -5.7 -3.1 -4.25 -2.35 -2.2 -0.05 -2.2 1.05 -2.2 2.95 -4.1 L3.05 -4.1 Q2.7 -3.25 3.5 -2.25 4.25 -1.3 4.9 -1.3 L6.05 -2.3 6.55 -2.05 7.35 -1.85" fill="#ffffff" fill-opacity="0.101960786" fill-rule="evenodd" stroke="none"/>
      <path d="M9.1 -35.1 Q8.85 -35.4 9.25 -35.7 L9.8 -35.6 Q10.0 -35.2 9.7 -35.0 L9.1 -35.1 M6.85 -35.8 Q6.6 -36.15 6.95 -36.35 7.3 -36.55 7.5 -36.2 7.75 -35.85 7.4 -35.65 7.1 -35.5 6.85 -35.8 M0.5 -35.3 Q0.1 -35.0 -0.25 -35.45 -0.6 -35.9 -0.1 -36.25 L0.65 -36.15 Q0.9 -35.6 0.5 -35.3 M2.35 -35.9 Q1.9 -35.55 1.65 -36.0 1.45 -36.45 1.8 -36.65 L2.5 -36.6 Q2.8 -36.3 2.35 -35.9 M4.3 -36.25 L5.1 -36.05 Q5.55 -35.7 5.0 -35.5 4.45 -35.25 4.2 -35.7 3.9 -36.15 4.3 -36.25 M11.5 -34.2 Q11.35 -34.45 11.55 -34.55 L11.95 -34.5 Q12.15 -34.35 11.85 -34.15 11.6 -33.9 11.5 -34.2 M-10.7 -34.9 Q-11.1 -34.7 -11.35 -35.1 -11.65 -35.45 -11.25 -35.7 -10.85 -35.95 -10.55 -35.5 -10.3 -35.1 -10.7 -34.9 M-14.0 -34.75 Q-14.3 -35.2 -13.9 -35.3 L-13.1 -35.1 Q-12.65 -34.75 -13.2 -34.55 -13.75 -34.3 -14.0 -34.75 M-15.1 -33.45 L-15.65 -33.5 Q-15.85 -33.9 -15.55 -34.05 L-15.0 -33.95 Q-14.75 -33.75 -15.1 -33.45 M-2.45 -35.85 Q-2.85 -36.4 -2.25 -36.75 -1.65 -37.15 -1.25 -36.5 -0.9 -35.85 -1.45 -35.6 -2.0 -35.3 -2.45 -35.85 M-5.0 -35.75 Q-5.25 -36.15 -4.85 -36.3 -4.5 -36.4 -4.1 -36.1 -3.75 -35.8 -4.2 -35.55 -4.7 -35.35 -5.0 -35.75 M-8.85 -35.3 Q-9.1 -35.1 -9.3 -35.4 -9.55 -35.65 -9.2 -35.9 L-8.75 -35.85 Q-8.55 -35.5 -8.85 -35.3 M-6.85 -35.15 Q-7.25 -34.8 -7.45 -35.25 -7.65 -35.65 -7.3 -35.85 L-6.7 -35.75 Q-6.4 -35.5 -6.85 -35.15" fill="#ffffff" fill-opacity="0.81960785" fill-rule="evenodd" stroke="none"/>
    </g>
    <radialGradient cx="0" cy="0" fx="-1408.0" fy="0" gradientTransform="matrix(0.0265, 0.0, 0.0, 0.0278, 2.55, -25.5)" gradientUnits="userSpaceOnUse" id="decoration196-gradient0" r="819.2" spreadMethod="pad">
      <stop offset="0.19215686274509805" stop-color="#bc8c60"/>
      <stop offset="0.7647058823529411" stop-color="#916037"/>
    </radialGradient>
    <radialGradient cx="0" cy="0" fx="-1408.0" fy="0" gradientTransform="matrix(0.0348, 0.0, 0.0, 0.0285, -10.75, -22.4)" gradientUnits="userSpaceOnUse" id="decoration196-gradient1" r="819.2" spreadMethod="pad">
      <stop offset="0.19215686274509805" stop-color="#a37449"/>
      <stop offset="0.7647058823529411" stop-color="#774b26"/>
    </radialGradient>
  </defs>
</svg>
