<?xml version="1.0" encoding="UTF-8" standalone="no"?>
<svg xmlns:ffdec="https://www.free-decompiler.com/flash" xmlns:xlink="http://www.w3.org/1999/xlink" ffdec:objectType="frame" height="47.7px" width="78.15px" xmlns="http://www.w3.org/2000/svg">
  <g transform="matrix(1.0, 0.0, 0.0, 1.0, 38.7, 46.75)">
    <use ffdec:characterId="248" height="47.7" transform="matrix(1.0, 0.0, 0.0, 1.0, -38.7, -46.75)" width="78.15" xlink:href="#decoration197-shape0"/>
  </g>
  <defs>
    <g id="decoration197-shape0" transform="matrix(1.0, 0.0, 0.0, 1.0, 38.7, 46.75)">
      <path d="M24.75 -30.75 L24.75 -29.6 Q21.15 -28.15 17.45 -26.25 L23.75 -30.75 17.45 -26.25 12.05 -22.65 Q12.25 -24.25 11.7 -25.45 L16.7 -28.15 Q14.25 -25.1 18.75 -28.1 22.35 -30.3 23.75 -30.75 L24.3 -30.8 24.75 -30.75" fill="#563f25" fill-rule="evenodd" stroke="none"/>
      <path d="M24.75 -30.75 L24.3 -30.8 23.75 -30.75 Q22.35 -30.3 18.75 -28.1 14.25 -25.1 16.7 -28.15 L24.75 -32.7 24.75 -30.75" fill="#856638" fill-rule="evenodd" stroke="none"/>
      <path d="M23.75 -30.75 L17.45 -26.25 Q21.15 -28.15 24.75 -29.6 M24.75 -32.7 L16.7 -28.15 11.7 -25.45 M12.05 -22.65 L17.45 -26.25" fill="none" stroke="#000000" stroke-linecap="round" stroke-linejoin="round" stroke-opacity="0.3019608" stroke-width="0.30000000000000004"/>
      <path d="M-20.45 -13.45 L-20.45 -14.6 -20.25 -15.65 -20.6 -16.6 Q-21.15 -18.3 -21.0 -19.55 L-20.6 -20.6 -19.5 -21.75 Q-18.7 -28.45 -12.8 -32.55 -9.6 -34.8 -5.75 -34.75 -2.2 -36.7 2.2 -35.95 3.4 -35.7 4.2 -34.7 6.4 -34.5 7.9 -33.05 11.7 -31.85 14.1 -28.95 L15.1 -27.7 Q17.05 -24.9 16.7 -22.45 16.75 -8.3 8.9 -6.55 9.45 -4.95 5.25 -3.2 1.0 -1.5 -3.05 -4.55 -9.3 -2.85 -10.7 -5.45 -12.1 -8.0 -11.6 -8.75 L-14.35 -7.7 Q-17.7 -7.8 -20.45 -13.45" fill="#f2f7f8" fill-rule="evenodd" stroke="none"/>
      <path d="M-20.45 -13.45 Q-17.7 -7.8 -14.35 -7.7 L-11.6 -8.75 Q-12.1 -8.0 -10.7 -5.45 -9.3 -2.85 -3.05 -4.55 1.0 -1.5 5.25 -3.2 9.45 -4.95 8.9 -6.55 16.75 -8.3 16.7 -22.45 L16.85 -22.05 Q18.5 -18.5 17.65 -15.1 17.9 -14.4 17.4 -11.0 16.95 -7.65 13.1 -3.05 L12.65 -2.55 Q11.2 -1.0 9.15 0.0 L-11.4 0.0 -11.7 -0.3 Q-14.1 -1.05 -15.85 -2.55 L-17.6 -4.5 Q-18.9 -6.35 -18.7 -8.3 -20.35 -10.85 -20.45 -13.45" fill="#bbd1d7" fill-rule="evenodd" stroke="none"/>
      <path d="M5.85 -34.75 L6.55 -34.6 Q6.85 -34.25 6.45 -34.0 6.05 -33.75 5.75 -34.15 5.45 -34.55 5.85 -34.75 M8.15 -32.45 Q7.75 -32.15 7.55 -32.55 7.3 -33.0 7.65 -33.2 L8.25 -33.1 Q8.5 -32.75 8.15 -32.45 M9.75 -32.95 L10.45 -32.8 Q10.8 -32.4 10.35 -32.2 9.95 -32.0 9.65 -32.35 9.35 -32.7 9.75 -32.95 M2.4 -35.6 Q1.95 -35.4 1.6 -35.8 1.2 -36.2 1.7 -36.45 2.15 -36.75 2.55 -36.3 2.9 -35.8 2.4 -35.6 M4.15 -35.05 Q3.7 -34.85 3.35 -35.35 3.0 -35.85 3.4 -36.2 3.85 -36.6 4.2 -35.9 4.55 -35.25 4.15 -35.05 M12.7 -31.3 Q13.05 -30.6 12.6 -30.4 12.15 -30.15 11.75 -30.7 11.4 -31.2 11.85 -31.6 12.3 -32.0 12.7 -31.3 M12.85 -29.35 Q12.5 -29.75 12.95 -30.0 L13.7 -29.85 Q14.0 -29.45 13.55 -29.2 13.15 -28.9 12.85 -29.35 M14.6 -28.4 Q15.1 -28.8 15.5 -28.05 15.9 -27.35 15.4 -27.1 14.9 -26.9 14.55 -27.45 14.15 -27.95 14.6 -28.4 M16.1 -25.0 Q15.7 -24.75 15.4 -25.15 15.1 -25.55 15.5 -25.75 15.9 -25.95 16.2 -25.6 16.5 -25.25 16.1 -25.0 M17.1 -23.05 Q16.7 -22.75 16.5 -23.15 16.25 -23.6 16.6 -23.8 16.9 -24.05 17.2 -23.7 17.45 -23.35 17.1 -23.05 M16.5 -20.9 Q16.1 -21.35 16.65 -21.7 17.15 -22.0 17.6 -21.45 18.0 -20.9 17.45 -20.65 16.9 -20.45 16.5 -20.9 M17.75 -19.2 Q17.45 -19.6 17.8 -19.9 18.15 -20.2 18.45 -19.65 18.75 -19.1 18.4 -18.95 18.0 -18.8 17.75 -19.2 M17.2 -14.0 Q16.95 -14.5 17.35 -14.75 L18.05 -14.65 Q18.4 -14.2 17.9 -13.85 17.45 -13.5 17.2 -14.0 M17.45 -16.6 Q17.15 -17.0 17.55 -17.2 L18.25 -17.05 Q18.55 -16.7 18.15 -16.45 17.75 -16.2 17.45 -16.6 M1.65 -0.15 Q1.95 0.2 1.55 0.4 L0.95 0.3 Q0.65 -0.1 1.0 -0.3 L1.65 -0.15 M3.75 -0.25 Q4.05 0.25 3.7 0.4 3.4 0.55 3.1 0.2 2.85 -0.2 3.15 -0.45 3.5 -0.75 3.75 -0.25 M10.05 -1.15 L10.75 -1.0 Q11.05 -0.65 10.65 -0.4 10.25 -0.15 9.95 -0.55 9.65 -0.95 10.05 -1.15 M18.0 -11.3 Q17.55 -11.1 17.2 -11.5 16.8 -11.9 17.3 -12.15 17.75 -12.45 18.15 -12.0 18.5 -11.5 18.0 -11.3 M17.2 -10.1 Q17.55 -10.4 17.8 -9.9 18.1 -9.4 17.75 -9.25 17.45 -9.1 17.15 -9.45 16.9 -9.85 17.2 -10.1 M16.1 -7.55 Q15.85 -7.85 16.15 -8.0 L16.7 -7.9 Q16.9 -7.65 16.6 -7.45 16.3 -7.25 16.1 -7.55 M13.9 -3.85 Q13.45 -3.65 13.1 -4.05 12.75 -4.4 13.2 -4.7 13.65 -4.95 14.0 -4.5 14.35 -4.05 13.9 -3.85 M12.15 -2.65 Q12.5 -2.95 12.75 -2.45 13.05 -1.95 12.7 -1.8 12.4 -1.65 12.1 -2.0 11.85 -2.4 12.15 -2.65 M15.55 -5.2 Q14.95 -4.75 14.65 -5.35 14.3 -6.0 14.8 -6.35 15.3 -6.7 15.7 -6.15 16.15 -5.65 15.55 -5.2 M8.6 0.7 Q8.25 1.0 8.05 0.6 7.85 0.25 8.15 0.0 8.45 -0.2 8.7 0.15 8.95 0.45 8.6 0.7 M5.7 0.9 Q5.3 1.1 5.0 0.75 4.7 0.4 5.1 0.15 5.5 -0.1 5.8 0.3 6.15 0.7 5.7 0.9 M-12.0 -33.4 Q-12.3 -33.8 -11.95 -34.0 L-11.3 -33.85 Q-11.0 -33.5 -11.4 -33.3 L-12.0 -33.4 M-13.35 -32.1 Q-13.55 -32.4 -13.35 -32.55 -13.1 -32.75 -12.9 -32.4 -12.7 -32.05 -12.95 -31.95 -13.2 -31.85 -13.35 -32.1 M-16.75 -28.95 Q-16.9 -29.25 -16.7 -29.4 L-16.25 -29.3 Q-16.1 -29.1 -16.35 -28.9 L-16.75 -28.95 M-18.45 -24.85 Q-18.75 -24.7 -19.05 -25.05 -19.3 -25.45 -19.0 -25.7 -18.65 -26.0 -18.4 -25.5 -18.1 -25.0 -18.45 -24.85 M-17.65 -27.05 Q-18.05 -26.75 -18.35 -27.2 -18.7 -27.6 -18.25 -27.85 -17.85 -28.05 -17.5 -27.7 -17.2 -27.3 -17.65 -27.05 M-16.0 -30.6 Q-16.45 -31.1 -15.9 -31.45 -15.35 -31.85 -14.85 -31.25 -14.4 -30.65 -15.0 -30.4 -15.6 -30.15 -16.0 -30.6 M-1.25 -35.35 Q-1.6 -36.0 -1.1 -36.35 -0.6 -36.7 -0.2 -36.15 0.25 -35.65 -0.35 -35.2 -0.95 -34.75 -1.25 -35.35 M-2.2 -35.75 Q-2.65 -35.45 -3.0 -35.9 -3.35 -36.35 -2.9 -36.6 L-2.1 -36.45 Q-1.75 -36.05 -2.2 -35.75 M-4.5 -34.65 Q-4.8 -34.5 -5.1 -34.85 -5.35 -35.25 -5.05 -35.5 -4.7 -35.8 -4.45 -35.3 -4.15 -34.8 -4.5 -34.65 M-9.25 -33.7 Q-9.75 -33.3 -10.05 -33.85 -10.35 -34.45 -9.9 -34.75 -9.45 -35.05 -9.1 -34.55 -8.7 -34.1 -9.25 -33.7 M-6.9 -34.05 Q-7.4 -33.85 -7.8 -34.25 -8.2 -34.7 -7.7 -35.0 -7.2 -35.3 -6.8 -34.8 -6.4 -34.3 -6.9 -34.05 M-21.15 -18.95 Q-21.45 -19.35 -21.05 -19.55 L-20.35 -19.4 Q-20.05 -19.05 -20.45 -18.8 -20.85 -18.55 -21.15 -18.95 M-20.4 -21.15 L-20.05 -21.1 Q-19.9 -20.9 -20.1 -20.7 -20.35 -20.55 -20.45 -20.8 L-20.4 -21.15 M-21.2 -16.65 L-21.15 -17.15 Q-20.9 -17.4 -20.7 -17.0 -20.5 -16.6 -20.75 -16.5 -21.0 -16.35 -21.2 -16.65 M-20.85 -15.0 Q-20.4 -15.25 -20.05 -14.8 -19.7 -14.35 -20.15 -14.15 -20.6 -13.95 -20.95 -14.35 -21.3 -14.7 -20.85 -15.0 M-20.8 -12.8 Q-20.45 -13.05 -20.15 -12.65 -19.85 -12.3 -20.25 -11.95 -20.65 -11.65 -20.9 -12.1 -21.15 -12.55 -20.8 -12.8 M-19.65 -22.95 Q-20.0 -23.3 -19.55 -23.6 -19.1 -23.85 -18.75 -23.4 -18.4 -22.95 -18.85 -22.75 -19.3 -22.55 -19.65 -22.95 M-19.4 -10.15 L-20.0 -10.25 Q-20.3 -10.65 -19.95 -10.85 L-19.3 -10.7 Q-19.0 -10.35 -19.4 -10.15 M-18.4 -6.2 Q-18.05 -5.8 -18.5 -5.6 -18.9 -5.4 -19.2 -5.75 -19.5 -6.1 -19.1 -6.35 -18.7 -6.6 -18.4 -6.2 M-18.75 -7.65 Q-19.05 -7.5 -19.35 -7.85 -19.6 -8.25 -19.3 -8.5 -18.95 -8.8 -18.7 -8.3 -18.4 -7.8 -18.75 -7.65 M-17.15 -4.15 L-17.55 -4.2 Q-17.7 -4.5 -17.5 -4.65 L-17.05 -4.55 Q-16.9 -4.35 -17.15 -4.15 M-16.05 -2.45 Q-16.25 -2.7 -15.95 -2.85 L-15.5 -2.75 Q-15.3 -2.5 -15.55 -2.35 -15.85 -2.15 -16.05 -2.45 M-11.55 -0.5 Q-11.15 0.0 -11.65 0.25 -12.15 0.45 -12.55 0.05 -12.95 -0.4 -12.45 -0.7 -11.95 -1.0 -11.55 -0.5 M-14.15 -1.25 Q-14.45 -1.1 -14.75 -1.45 -15.0 -1.85 -14.7 -2.1 -14.35 -2.4 -14.1 -1.9 -13.8 -1.4 -14.15 -1.25 M-9.45 -0.3 Q-9.2 0.05 -9.55 0.35 L-10.15 0.25 Q-10.4 -0.2 -10.05 -0.4 -9.75 -0.65 -9.45 -0.3 M-5.05 -0.25 Q-4.75 0.25 -5.1 0.4 -5.4 0.55 -5.7 0.2 -5.95 -0.2 -5.65 -0.45 -5.3 -0.75 -5.05 -0.25 M-2.4 -0.2 Q-2.0 0.3 -2.5 0.55 -3.0 0.75 -3.4 0.35 -3.8 -0.1 -3.3 -0.4 -2.8 -0.7 -2.4 -0.2 M-1.0 -0.4 Q-0.75 -0.05 -1.1 0.25 L-1.7 0.15 Q-1.95 -0.3 -1.6 -0.5 L-1.0 -0.4 M-7.85 0.45 Q-8.15 0.05 -7.8 -0.15 L-7.15 0.0 Q-6.85 0.35 -7.25 0.55 -7.6 0.8 -7.85 0.45" fill="#ffffff" fill-opacity="0.81960785" fill-rule="evenodd" stroke="none"/>
      <path d="M-11.8 -27.05 Q-13.2 -26.4 -13.95 -25.25 L-19.35 -28.55 Q-15.25 -27.85 -20.45 -30.65 L-25.6 -33.9 -26.1 -34.45 -26.3 -34.9 -25.8 -35.8 -25.75 -35.9 -25.6 -35.7 -18.1 -30.3 -11.8 -27.05 M-25.6 -35.7 L-25.8 -35.8 -25.6 -35.7 M-18.1 -30.3 L-25.6 -33.9 -18.1 -30.3" fill="#563f25" fill-rule="evenodd" stroke="none"/>
      <path d="M-19.35 -28.55 L-27.2 -33.35 -26.3 -34.9 -26.1 -34.45 -25.6 -33.9 -20.45 -30.65 Q-15.25 -27.85 -19.35 -28.55" fill="#856638" fill-rule="evenodd" stroke="none"/>
      <path d="M-13.95 -25.25 L-19.35 -28.55 -27.2 -33.35 M-25.75 -35.9 L-25.6 -35.7 -18.1 -30.3 -11.8 -27.05 M-25.8 -35.8 L-25.6 -35.7 M-25.6 -33.9 L-18.1 -30.3" fill="none" stroke="#000000" stroke-linecap="round" stroke-linejoin="round" stroke-opacity="0.3019608" stroke-width="0.30000000000000004"/>
      <path d="M27.5 -31.2 L24.55 -36.3 26.6 -39.55 Q29.4 -42.9 34.1 -41.7 36.5 -41.15 37.7 -40.3 37.0 -35.95 34.6 -33.35 32.35 -30.85 27.5 -31.2" fill="#b10a02" fill-rule="evenodd" stroke="none"/>
      <path d="M37.7 -40.3 Q40.5 -38.35 38.35 -34.55 37.45 -32.9 36.35 -32.05 L36.95 -31.15 Q37.5 -30.1 37.35 -29.35 37.0 -26.8 29.35 -27.9 L27.5 -31.2 Q32.35 -30.85 34.6 -33.35 37.0 -35.95 37.7 -40.3 M36.35 -32.05 Q35.35 -31.15 34.2 -31.15 35.35 -31.15 36.35 -32.05" fill="#800d08" fill-rule="evenodd" stroke="none"/>
      <path d="M27.5 -31.2 L24.55 -36.3 26.6 -39.55 Q29.4 -42.9 34.1 -41.7 36.5 -41.15 37.7 -40.3 40.5 -38.35 38.35 -34.55 37.45 -32.9 36.35 -32.05 L36.95 -31.15 Q37.5 -30.1 37.35 -29.35 37.0 -26.8 29.35 -27.9 L27.5 -31.2 M34.2 -31.15 Q35.35 -31.15 36.35 -32.05" fill="none" stroke="#000000" stroke-linecap="round" stroke-linejoin="round" stroke-opacity="0.4" stroke-width="0.30000000000000004"/>
      <path d="M21.25 -36.4 L21.55 -36.6 24.45 -36.75 24.9 -36.6 Q26.6 -36.15 27.85 -34.0 L29.3 -31.3 Q25.8 -31.9 21.25 -36.4" fill="#f7f8f8" fill-rule="evenodd" stroke="none"/>
      <path d="M29.3 -31.3 L29.55 -30.5 Q30.3 -28.55 30.1 -27.8 29.45 -25.6 25.5 -26.45 24.8 -30.85 20.85 -34.25 L20.95 -35.4 21.25 -36.4 Q25.8 -31.9 29.3 -31.3" fill="#dad8d8" fill-rule="evenodd" stroke="none"/>
      <path d="M21.25 -36.4 L21.55 -36.6 24.45 -36.75 24.9 -36.6 Q26.6 -36.15 27.85 -34.0 L29.3 -31.3 29.55 -30.5 Q30.3 -28.55 30.1 -27.8 29.45 -25.6 25.5 -26.45 24.8 -30.85 20.85 -34.25 L20.95 -35.4 21.25 -36.4 Z" fill="none" stroke="#000000" stroke-linecap="round" stroke-linejoin="round" stroke-opacity="0.4" stroke-width="0.30000000000000004"/>
      <path d="M-36.05 -46.2 L-32.2 -46.6 Q-27.35 -46.55 -25.5 -42.6 L-24.4 -38.9 -28.55 -34.75 Q-33.35 -35.65 -34.85 -38.65 -36.45 -41.75 -36.05 -46.2" fill="#b10a02" fill-rule="evenodd" stroke="none"/>
      <path d="M-36.05 -46.2 Q-36.45 -41.75 -34.85 -38.65 -33.35 -35.65 -28.55 -34.75 L-31.2 -32.05 Q-38.85 -32.95 -38.55 -35.5 -38.5 -36.25 -37.65 -37.15 L-36.9 -37.85 Q-37.7 -39.0 -38.15 -40.75 -39.25 -45.0 -36.05 -46.2 M-35.0 -36.45 Q-36.1 -36.75 -36.9 -37.85 -36.1 -36.75 -35.0 -36.45" fill="#800d08" fill-rule="evenodd" stroke="none"/>
      <path d="M-28.55 -34.75 L-24.4 -38.9 -25.5 -42.6 Q-27.35 -46.55 -32.2 -46.6 L-36.05 -46.2 Q-39.25 -45.0 -38.15 -40.75 -37.7 -39.0 -36.9 -37.85 -36.1 -36.75 -35.0 -36.45 M-28.55 -34.75 L-31.2 -32.05 Q-38.85 -32.95 -38.55 -35.5 -38.5 -36.25 -37.65 -37.15 L-36.9 -37.85" fill="none" stroke="#000000" stroke-linecap="round" stroke-linejoin="round" stroke-opacity="0.4" stroke-width="0.30000000000000004"/>
      <path d="M-29.9 -34.85 L-27.6 -37.4 Q-25.85 -39.1 -24.1 -39.2 L-23.6 -39.15 Q-21.65 -38.95 -20.9 -38.3 -20.35 -37.9 -20.45 -36.95 -26.35 -34.2 -29.9 -34.85" fill="#f7f8f8" fill-rule="evenodd" stroke="none"/>
      <path d="M-29.9 -34.85 Q-26.35 -34.2 -20.45 -36.95 L-20.8 -35.8 Q-25.5 -33.55 -27.3 -29.5 -31.4 -29.7 -31.4 -32.0 -31.45 -32.75 -30.15 -34.5 L-29.9 -34.85" fill="#dad8d8" fill-rule="evenodd" stroke="none"/>
      <path d="M-20.45 -36.95 Q-20.35 -37.9 -20.9 -38.3 -21.65 -38.95 -23.6 -39.15 L-24.1 -39.2 Q-25.85 -39.1 -27.6 -37.4 L-29.9 -34.85 -30.15 -34.5 Q-31.45 -32.75 -31.4 -32.0 -31.4 -29.7 -27.3 -29.5 -25.5 -33.55 -20.8 -35.8 L-20.45 -36.95 Z" fill="none" stroke="#000000" stroke-linecap="round" stroke-linejoin="round" stroke-opacity="0.4" stroke-width="0.30000000000000004"/>
    </g>
  </defs>
</svg>
