<?xml version="1.0" encoding="UTF-8" standalone="no"?>
<svg xmlns:xlink="http://www.w3.org/1999/xlink" height="47.45px" width="78.15px" xmlns="http://www.w3.org/2000/svg">
  <g transform="matrix(1.0, 0.0, 0.0, 1.0, 38.7, 46.75)">
    <use height="47.45" transform="matrix(1.0, 0.0, 0.0, 1.0, -38.7, -46.75)" width="78.15" xlink:href="#decoration197-shape0"/>
  </g>
  <defs>
    <g id="decoration197-shape0" transform="matrix(1.0, 0.0, 0.0, 1.0, 38.7, 46.75)">
      <path d="M24.75 -30.75 L24.75 -29.6 Q21.15 -28.15 17.45 -26.25 L23.75 -30.75 17.45 -26.25 12.05 -22.65 Q12.25 -24.25 11.7 -25.45 L16.7 -28.15 Q14.25 -25.1 18.75 -28.1 22.35 -30.3 23.75 -30.75 L24.3 -30.8 24.75 -30.75" fill="#563f25" fill-rule="evenodd" stroke="none"/>
      <path d="M24.75 -30.75 L24.3 -30.8 23.75 -30.75 Q22.35 -30.3 18.75 -28.1 14.25 -25.1 16.7 -28.15 L24.75 -32.7 24.75 -30.75" fill="#856638" fill-rule="evenodd" stroke="none"/>
      <path d="M23.75 -30.75 L17.45 -26.25 Q21.15 -28.15 24.75 -29.6 M24.75 -32.7 L16.7 -28.15 11.7 -25.45 M12.05 -22.65 L17.45 -26.25" fill="none" stroke="#000000" stroke-linecap="round" stroke-linejoin="round" stroke-opacity="0.3019608" stroke-width="0.30000000000000004"/>
      <path d="M-20.45 -13.45 L-20.45 -14.6 -20.25 -15.65 -20.6 -16.6 Q-21.15 -18.3 -21.0 -19.55 L-20.6 -20.6 -19.5 -21.75 Q-18.7 -28.45 -12.8 -32.55 -9.6 -34.8 -5.75 -34.75 -2.2 -36.7 2.2 -35.95 3.4 -35.7 4.2 -34.7 6.4 -34.5 7.9 -33.05 11.7 -31.85 14.1 -28.95 L15.1 -27.7 Q17.05 -24.9 16.7 -22.45 16.75 -8.3 8.9 -6.55 9.45 -4.95 5.25 -3.2 1.0 -1.5 -3.05 -4.55 -9.3 -2.85 -10.7 -5.45 -12.1 -8.0 -11.6 -8.75 L-14.35 -7.7 Q-17.7 -7.8 -20.45 -13.45" fill="#f2f7f8" fill-rule="evenodd" stroke="none"/>
      <path d="M-20.45 -13.45 Q-17.7 -7.8 -14.35 -7.7 L-11.6 -8.75 Q-12.1 -8.0 -10.7 -5.45 -9.3 -2.85 -3.05 -4.55 1.0 -1.5 5.25 -3.2 9.45 -4.95 8.9 -6.55 16.75 -8.3 16.7 -22.45 L16.85 -22.05 Q18.5 -18.5 17.65 -15.1 17.9 -14.4 17.4 -11.0 16.95 -7.65 13.1 -3.05 L12.65 -2.55 Q11.2 -1.0 9.15 0.0 L-11.4 0.0 -11.7 -0.3 Q-14.1 -1.05 -15.85 -2.55 L-17.6 -4.5 Q-18.9 -6.35 -18.7 -8.3 -20.35 -10.85 -20.45 -13.45" fill="#bbd1d7" fill-rule="evenodd" stroke="none"/>
      <path d="M6.3 -34.45 Q6.6 -33.95 6.15 -33.6 5.7 -33.25 5.35 -33.8 5.0 -34.35 5.5 -34.65 6.0 -34.95 6.3 -34.45 M9.45 -32.35 Q9.15 -32.65 9.5 -32.9 L10.2 -32.8 Q10.5 -32.4 10.1 -32.2 9.7 -32.0 9.45 -32.35 M8.1 -32.6 Q7.6 -32.4 7.35 -32.75 7.1 -33.15 7.6 -33.35 8.15 -33.6 8.35 -33.2 8.55 -32.8 8.1 -32.6 M2.0 -35.7 Q1.5 -35.45 1.15 -35.85 0.8 -36.25 1.25 -36.6 1.75 -36.9 2.15 -36.45 2.55 -35.95 2.0 -35.7 M4.3 -34.8 Q4.05 -34.65 3.9 -34.9 3.75 -35.15 4.0 -35.3 L4.4 -35.15 Q4.55 -34.9 4.3 -34.8 M11.95 -31.25 Q11.75 -31.55 12.1 -31.75 12.45 -31.95 12.65 -31.6 12.85 -31.25 12.5 -31.1 12.2 -30.9 11.95 -31.25 M12.95 -29.6 Q12.55 -30.25 13.15 -30.6 13.7 -30.9 14.05 -30.35 14.4 -29.75 13.9 -29.35 13.4 -28.95 12.95 -29.6 M14.7 -28.5 Q14.3 -28.3 14.05 -28.65 13.75 -28.95 14.1 -29.2 L14.8 -29.1 Q15.1 -28.7 14.7 -28.5 M17.0 -24.85 Q17.2 -24.6 16.95 -24.4 16.7 -24.2 16.5 -24.5 16.3 -24.8 16.6 -25.0 L17.0 -24.85 M15.85 -26.65 Q15.45 -26.45 15.25 -26.8 15.0 -27.2 15.4 -27.4 15.75 -27.6 16.0 -27.2 16.2 -26.85 15.85 -26.65 M17.3 -22.35 Q16.8 -22.15 16.55 -22.5 16.3 -22.9 16.8 -23.1 17.35 -23.35 17.55 -22.95 17.75 -22.55 17.3 -22.35 M16.9 -21.15 Q17.4 -21.55 17.8 -21.0 18.25 -20.5 17.7 -20.2 17.15 -19.95 16.75 -20.35 16.4 -20.8 16.9 -21.15 M18.35 -17.35 Q17.95 -17.15 17.7 -17.55 17.45 -17.95 17.9 -18.15 18.3 -18.4 18.5 -18.0 18.75 -17.6 18.35 -17.35 M18.2 -15.5 Q17.85 -15.25 17.6 -15.65 17.3 -16.1 17.7 -16.35 18.1 -16.6 18.35 -16.2 18.6 -15.8 18.2 -15.5 M18.5 -13.9 Q18.7 -13.5 18.25 -13.3 17.75 -13.1 17.5 -13.45 17.25 -13.85 17.75 -14.05 18.3 -14.3 18.5 -13.9 M3.45 -0.05 Q3.7 0.35 3.3 0.6 2.9 0.8 2.65 0.4 2.4 0.0 2.85 -0.2 3.25 -0.45 3.45 -0.05 M6.0 -0.15 Q6.4 0.3 5.9 0.55 L5.1 0.4 Q4.75 0.0 5.2 -0.3 5.65 -0.6 6.0 -0.15 M8.3 -0.2 Q8.45 0.1 8.15 0.25 L7.65 0.1 Q7.45 -0.15 7.8 -0.3 L8.3 -0.2 M17.25 -9.4 Q17.4 -9.1 17.1 -8.95 16.85 -8.8 16.7 -9.1 16.5 -9.35 16.8 -9.5 L17.25 -9.4 M16.9 -11.55 Q16.6 -11.9 17.0 -12.2 L17.8 -12.1 Q18.15 -11.65 17.7 -11.45 L16.9 -11.55 M15.7 -7.05 Q15.45 -7.45 15.8 -7.65 16.2 -7.9 16.4 -7.5 16.65 -7.15 16.3 -6.9 15.95 -6.65 15.7 -7.05 M14.75 -4.8 Q14.25 -4.6 14.0 -4.95 13.75 -5.35 14.25 -5.55 14.8 -5.8 15.0 -5.4 15.2 -5.0 14.75 -4.8 M14.05 -3.5 Q13.65 -3.3 13.4 -3.65 13.1 -3.95 13.45 -4.2 L14.15 -4.1 Q14.45 -3.7 14.05 -3.5 M10.6 -0.8 Q10.8 -0.55 10.55 -0.35 10.3 -0.15 10.1 -0.45 9.9 -0.75 10.2 -0.95 L10.6 -0.8 M11.35 -2.25 Q11.1 -2.65 11.55 -2.85 11.95 -3.1 12.15 -2.7 12.4 -2.3 12.0 -2.05 11.6 -1.85 11.35 -2.25 M1.1 0.35 Q0.9 0.1 1.15 -0.05 L1.55 0.05 Q1.7 0.3 1.45 0.45 1.25 0.65 1.1 0.35 M-11.7 -33.15 Q-11.9 -33.5 -11.6 -33.65 L-11.1 -33.55 Q-10.9 -33.25 -11.2 -33.0 -11.45 -32.8 -11.7 -33.15 M-13.85 -32.15 Q-14.1 -32.55 -13.65 -32.75 -13.25 -33.0 -13.05 -32.6 -12.8 -32.2 -13.2 -31.95 -13.6 -31.75 -13.85 -32.15 M-16.6 -28.7 Q-17.0 -28.55 -17.2 -28.85 -17.4 -29.15 -17.0 -29.35 -16.55 -29.55 -16.35 -29.2 -16.2 -28.9 -16.6 -28.7 M-18.45 -25.3 Q-18.1 -24.75 -18.65 -24.45 -19.2 -24.15 -19.55 -24.7 -19.85 -25.25 -19.3 -25.55 -18.75 -25.85 -18.45 -25.3 M-18.3 -27.65 Q-18.0 -27.85 -17.75 -27.5 -17.55 -27.15 -17.85 -26.95 L-18.4 -27.05 Q-18.65 -27.45 -18.3 -27.65 M-15.65 -30.7 Q-15.9 -30.95 -15.6 -31.2 L-15.0 -31.1 Q-14.75 -30.8 -15.1 -30.6 L-15.65 -30.7 M-0.95 -36.05 Q-1.2 -36.4 -0.7 -36.6 -0.25 -36.8 -0.05 -36.45 0.15 -36.05 -0.25 -35.9 -0.7 -35.7 -0.95 -36.05 M-3.2 -35.85 Q-3.5 -36.3 -3.1 -36.55 -2.7 -36.8 -2.45 -36.4 -2.2 -36.0 -2.6 -35.7 -2.95 -35.45 -3.2 -35.85 M-4.65 -34.45 Q-5.2 -34.1 -5.55 -34.7 -5.9 -35.25 -5.35 -35.6 -4.75 -35.9 -4.4 -35.3 -4.05 -34.75 -4.65 -34.45 M-9.35 -33.7 Q-9.85 -33.5 -10.1 -33.85 -10.35 -34.25 -9.85 -34.45 -9.3 -34.7 -9.1 -34.3 -8.9 -33.9 -9.35 -33.7 M-7.0 -34.4 L-7.55 -34.5 Q-7.8 -34.75 -7.5 -35.0 L-6.9 -34.9 Q-6.65 -34.6 -7.0 -34.4 M-20.65 -21.2 Q-20.1 -21.45 -19.9 -21.05 -19.7 -20.65 -20.15 -20.45 -20.65 -20.25 -20.9 -20.6 -21.15 -21.0 -20.65 -21.2 M-21.45 -18.55 Q-21.85 -19.1 -21.3 -19.4 -20.8 -19.75 -20.5 -19.2 -20.15 -18.7 -20.65 -18.3 -21.1 -17.95 -21.45 -18.55 M-20.5 -17.2 Q-20.1 -17.45 -19.9 -17.05 -19.65 -16.65 -20.05 -16.4 -20.45 -16.2 -20.7 -16.6 -20.95 -17.0 -20.5 -17.2 M-20.85 -15.15 Q-20.35 -15.55 -19.95 -15.0 -19.5 -14.5 -20.05 -14.2 -20.6 -13.95 -21.0 -14.35 -21.35 -14.8 -20.85 -15.15 M-20.6 -12.55 Q-20.05 -12.8 -19.85 -12.4 -19.65 -12.0 -20.1 -11.8 -20.6 -11.6 -20.85 -11.95 -21.1 -12.35 -20.6 -12.55 M-19.3 -23.25 Q-19.55 -23.5 -19.25 -23.75 L-18.65 -23.65 Q-18.4 -23.35 -18.75 -23.15 L-19.3 -23.25 M-19.65 -10.25 Q-19.15 -10.6 -18.85 -10.05 -18.5 -9.55 -19.0 -9.15 -19.45 -8.8 -19.8 -9.4 -20.2 -9.95 -19.65 -10.25 M-18.05 -6.45 Q-17.75 -6.05 -18.15 -5.85 -18.55 -5.65 -18.8 -6.0 -19.1 -6.3 -18.75 -6.55 -18.35 -6.8 -18.05 -6.45 M-18.4 -7.9 Q-18.8 -7.7 -19.05 -8.1 -19.3 -8.5 -18.85 -8.7 -18.45 -8.95 -18.25 -8.55 -18.0 -8.15 -18.4 -7.9 M-16.85 -3.8 L-17.25 -3.85 -17.1 -4.2 -16.7 -4.1 Q-16.6 -3.9 -16.85 -3.8 M-15.65 -2.65 Q-15.45 -2.3 -15.75 -2.1 -16.05 -1.85 -16.3 -2.2 -16.55 -2.6 -16.2 -2.8 -15.9 -3.0 -15.65 -2.65 M-12.65 -0.85 Q-12.2 -1.15 -11.85 -0.7 -11.45 -0.25 -11.95 0.0 L-12.75 -0.15 Q-13.1 -0.55 -12.65 -0.85 M-13.5 -0.6 Q-14.05 -0.3 -14.4 -0.85 -14.7 -1.4 -14.15 -1.7 -13.6 -2.0 -13.3 -1.45 -12.95 -0.9 -13.5 -0.6 M-7.0 -0.4 Q-6.8 -0.05 -7.1 0.15 -7.4 0.4 -7.65 0.05 -7.9 -0.35 -7.55 -0.55 -7.25 -0.75 -7.0 -0.4 M-5.05 -0.4 Q-4.85 -0.1 -5.15 0.1 L-5.65 -0.05 Q-5.85 -0.35 -5.5 -0.55 -5.2 -0.7 -5.05 -0.4 M-2.6 -0.45 Q-2.3 -0.05 -2.7 0.15 -3.1 0.35 -3.35 0.0 -3.65 -0.3 -3.3 -0.55 L-2.6 -0.45 M-10.7 0.45 Q-10.95 0.05 -10.45 -0.15 -9.9 -0.4 -9.7 0.0 -9.5 0.4 -9.95 0.6 L-10.7 0.45 M-1.0 0.5 Q-1.25 0.15 -0.75 -0.05 L-0.1 0.1 Q0.1 0.5 -0.3 0.65 -0.75 0.85 -1.0 0.5" fill="#ffffff" fill-opacity="0.81960785" fill-rule="evenodd" stroke="none"/>
      <path d="M-11.8 -27.05 Q-13.2 -26.4 -13.95 -25.25 L-19.35 -28.55 Q-15.25 -27.85 -20.45 -30.65 L-25.6 -33.9 -26.1 -34.45 -26.3 -34.9 -25.8 -35.8 -25.75 -35.9 -25.6 -35.7 -18.1 -30.3 -11.8 -27.05 M-25.6 -35.7 L-25.8 -35.8 -25.6 -35.7 M-18.1 -30.3 L-25.6 -33.9 -18.1 -30.3" fill="#563f25" fill-rule="evenodd" stroke="none"/>
      <path d="M-19.35 -28.55 L-27.2 -33.35 -26.3 -34.9 -26.1 -34.45 -25.6 -33.9 -20.45 -30.65 Q-15.25 -27.85 -19.35 -28.55" fill="#856638" fill-rule="evenodd" stroke="none"/>
      <path d="M-13.95 -25.25 L-19.35 -28.55 -27.2 -33.35 M-25.75 -35.9 L-25.6 -35.7 -18.1 -30.3 -11.8 -27.05 M-25.6 -33.9 L-18.1 -30.3 M-25.8 -35.8 L-25.6 -35.7" fill="none" stroke="#000000" stroke-linecap="round" stroke-linejoin="round" stroke-opacity="0.3019608" stroke-width="0.30000000000000004"/>
      <path d="M27.5 -31.2 L24.55 -36.3 26.6 -39.55 Q29.4 -42.9 34.1 -41.7 36.5 -41.15 37.7 -40.3 37.0 -35.95 34.6 -33.35 32.35 -30.85 27.5 -31.2" fill="#b10a02" fill-rule="evenodd" stroke="none"/>
      <path d="M37.7 -40.3 Q40.5 -38.35 38.35 -34.55 37.45 -32.9 36.35 -32.05 L36.95 -31.15 Q37.5 -30.1 37.35 -29.35 37.0 -26.8 29.35 -27.9 L27.5 -31.2 Q32.35 -30.85 34.6 -33.35 37.0 -35.95 37.7 -40.3 M36.35 -32.05 Q35.35 -31.15 34.2 -31.15 35.35 -31.15 36.35 -32.05" fill="#800d08" fill-rule="evenodd" stroke="none"/>
      <path d="M27.5 -31.2 L24.55 -36.3 26.6 -39.55 Q29.4 -42.9 34.1 -41.7 36.5 -41.15 37.7 -40.3 40.5 -38.35 38.35 -34.55 37.45 -32.9 36.35 -32.05 L36.95 -31.15 Q37.5 -30.1 37.35 -29.35 37.0 -26.8 29.35 -27.9 L27.5 -31.2 M34.2 -31.15 Q35.35 -31.15 36.35 -32.05" fill="none" stroke="#000000" stroke-linecap="round" stroke-linejoin="round" stroke-opacity="0.4" stroke-width="0.30000000000000004"/>
      <path d="M21.25 -36.4 L21.55 -36.6 24.45 -36.75 24.9 -36.6 Q26.6 -36.15 27.85 -34.0 L29.3 -31.3 Q25.8 -31.9 21.25 -36.4" fill="#f7f8f8" fill-rule="evenodd" stroke="none"/>
      <path d="M29.3 -31.3 L29.55 -30.5 Q30.3 -28.55 30.1 -27.8 29.45 -25.6 25.5 -26.45 24.8 -30.85 20.85 -34.25 L20.95 -35.4 21.25 -36.4 Q25.8 -31.9 29.3 -31.3" fill="#dad8d8" fill-rule="evenodd" stroke="none"/>
      <path d="M21.25 -36.4 L21.55 -36.6 24.45 -36.75 24.9 -36.6 Q26.6 -36.15 27.85 -34.0 L29.3 -31.3 29.55 -30.5 Q30.3 -28.55 30.1 -27.8 29.45 -25.6 25.5 -26.45 24.8 -30.85 20.85 -34.25 L20.95 -35.4 21.25 -36.4 Z" fill="none" stroke="#000000" stroke-linecap="round" stroke-linejoin="round" stroke-opacity="0.4" stroke-width="0.30000000000000004"/>
      <path d="M-36.05 -46.2 L-32.2 -46.6 Q-27.35 -46.55 -25.5 -42.6 L-24.4 -38.9 -28.55 -34.75 Q-33.35 -35.65 -34.85 -38.65 -36.45 -41.75 -36.05 -46.2" fill="#b10a02" fill-rule="evenodd" stroke="none"/>
      <path d="M-36.05 -46.2 Q-36.45 -41.75 -34.85 -38.65 -33.35 -35.65 -28.55 -34.75 L-31.2 -32.05 Q-38.85 -32.95 -38.55 -35.5 -38.5 -36.25 -37.65 -37.15 L-36.9 -37.85 Q-37.7 -39.0 -38.15 -40.75 -39.25 -45.0 -36.05 -46.2 M-35.0 -36.45 Q-36.1 -36.75 -36.9 -37.85 -36.1 -36.75 -35.0 -36.45" fill="#800d08" fill-rule="evenodd" stroke="none"/>
      <path d="M-28.55 -34.75 L-24.4 -38.9 -25.5 -42.6 Q-27.35 -46.55 -32.2 -46.6 L-36.05 -46.2 M-28.55 -34.75 L-31.2 -32.05 Q-38.85 -32.95 -38.55 -35.5 -38.5 -36.25 -37.65 -37.15 L-36.9 -37.85 Q-37.7 -39.0 -38.15 -40.75 -39.25 -45.0 -36.05 -46.2 M-36.9 -37.85 Q-36.1 -36.75 -35.0 -36.45" fill="none" stroke="#000000" stroke-linecap="round" stroke-linejoin="round" stroke-opacity="0.4" stroke-width="0.30000000000000004"/>
      <path d="M-29.9 -34.85 L-27.6 -37.4 Q-25.85 -39.1 -24.1 -39.2 L-23.6 -39.15 Q-21.65 -38.95 -20.9 -38.3 -20.35 -37.9 -20.45 -36.95 -26.35 -34.2 -29.9 -34.85" fill="#f7f8f8" fill-rule="evenodd" stroke="none"/>
      <path d="M-29.9 -34.85 Q-26.35 -34.2 -20.45 -36.95 L-20.8 -35.8 Q-25.5 -33.55 -27.3 -29.5 -31.4 -29.7 -31.4 -32.0 -31.45 -32.75 -30.15 -34.5 L-29.9 -34.85" fill="#dad8d8" fill-rule="evenodd" stroke="none"/>
      <path d="M-20.45 -36.95 Q-20.35 -37.9 -20.9 -38.3 -21.65 -38.95 -23.6 -39.15 L-24.1 -39.2 Q-25.85 -39.1 -27.6 -37.4 L-29.9 -34.85 M-20.45 -36.95 L-20.8 -35.8 Q-25.5 -33.55 -27.3 -29.5 -31.4 -29.7 -31.4 -32.0 -31.45 -32.75 -30.15 -34.5 L-29.9 -34.85" fill="none" stroke="#000000" stroke-linecap="round" stroke-linejoin="round" stroke-opacity="0.4" stroke-width="0.30000000000000004"/>
    </g>
  </defs>
</svg>
