<?xml version="1.0" encoding="UTF-8" standalone="no"?>
<svg xmlns:xlink="http://www.w3.org/1999/xlink" height="47.1px" width="69.4px" xmlns="http://www.w3.org/2000/svg">
  <g transform="matrix(1.0, 0.0, 0.0, 1.0, 34.75, 46.6)">
    <use height="47.1" transform="matrix(1.0, 0.0, 0.0, 1.0, -34.75, -46.6)" width="69.4" xlink:href="#decoration198-shape0"/>
  </g>
  <defs>
    <g id="decoration198-shape0" transform="matrix(1.0, 0.0, 0.0, 1.0, 34.75, 46.6)">
      <path d="M30.85 -43.45 L30.95 -43.1 Q29.1 -39.95 27.6 -35.9 L26.4 -35.5 Q27.4 -36.3 27.9 -37.55 L28.8 -39.75 30.85 -43.45 M33.9 -34.35 Q30.45 -34.55 26.15 -33.1 L19.8 -27.8 15.5 -22.95 Q15.3 -24.55 14.45 -25.5 L18.6 -29.45 Q17.0 -25.9 20.6 -29.9 23.45 -33.0 24.7 -33.75 L25.25 -33.95 33.0 -35.2 33.45 -34.55 33.9 -34.35 M26.95 -33.8 L26.15 -33.1 26.95 -33.8 M24.7 -33.75 L19.8 -27.8 24.7 -33.75" fill="#563f25" fill-rule="evenodd" stroke="none"/>
      <path d="M30.85 -43.45 L28.8 -39.75 27.9 -37.55 Q27.4 -36.3 26.4 -35.5 L27.6 -35.9 27.6 -35.85 27.85 -35.9 33.0 -36.95 Q32.75 -35.9 33.0 -35.2 L25.25 -33.95 24.7 -33.75 Q23.45 -33.0 20.6 -29.9 17.0 -25.9 18.6 -29.45 L26.55 -37.25 29.7 -44.65 Q30.4 -44.7 30.85 -43.45" fill="#856638" fill-rule="evenodd" stroke="none"/>
      <path d="M33.0 -36.95 L33.45 -36.8 Q34.55 -36.5 34.5 -35.0 34.4 -34.3 33.9 -34.35 L33.45 -34.55 33.0 -35.2 Q32.75 -35.9 33.0 -36.95" fill="#4d3821" fill-rule="evenodd" stroke="none"/>
      <path d="M27.6 -35.9 Q29.1 -39.95 30.95 -43.1 L30.85 -43.45 M27.6 -35.9 L27.6 -35.85 27.85 -35.9 33.0 -36.95 33.45 -36.8 Q34.55 -36.5 34.5 -35.0 34.4 -34.3 33.9 -34.35 30.45 -34.55 26.15 -33.1 L19.8 -27.8 15.5 -22.95 M14.45 -25.5 L18.6 -29.45 26.55 -37.25 29.7 -44.65 Q30.4 -44.7 30.85 -43.45 M33.0 -35.2 Q32.75 -35.9 33.0 -36.95 M26.15 -33.1 L26.95 -33.8 M33.0 -35.2 L33.45 -34.55 33.9 -34.35 M19.8 -27.8 L24.7 -33.75" fill="none" stroke="#000000" stroke-linecap="round" stroke-linejoin="round" stroke-opacity="0.3019608" stroke-width="0.30000000000000004"/>
      <path d="M-19.75 -14.05 L-19.75 -15.2 -19.55 -16.25 Q-20.5 -18.55 -20.3 -20.15 -20.2 -21.25 -18.8 -22.35 -18.0 -29.05 -12.1 -33.15 -8.9 -35.4 -5.05 -35.35 -1.5 -37.3 2.9 -36.55 4.1 -36.3 4.9 -35.3 7.1 -35.1 8.6 -33.65 12.4 -32.45 14.8 -29.55 L15.8 -28.3 Q17.75 -25.5 17.4 -23.05 17.45 -8.9 9.6 -7.15 10.15 -5.55 5.95 -3.8 1.7 -2.1 -2.35 -5.15 -8.6 -3.45 -10.0 -6.05 -11.4 -8.6 -10.9 -9.35 L-13.65 -8.3 Q-17.0 -8.4 -19.75 -14.05" fill="#f2f7f8" fill-rule="evenodd" stroke="none"/>
      <path d="M-19.75 -14.05 Q-17.0 -8.4 -13.65 -8.3 L-10.9 -9.35 Q-11.4 -8.6 -10.0 -6.05 -8.6 -3.45 -2.35 -5.15 1.7 -2.1 5.95 -3.8 10.15 -5.55 9.6 -7.15 17.45 -8.9 17.4 -23.05 L17.55 -22.65 Q19.2 -19.1 18.35 -15.7 18.6 -15.0 18.1 -11.6 17.65 -8.25 13.8 -3.65 12.05 -1.6 9.3 -0.35 L-10.25 -0.35 -11.0 -0.9 Q-14.75 -2.05 -16.9 -5.1 -18.2 -6.95 -18.0 -8.9 -19.65 -11.45 -19.75 -14.05" fill="#bbd1d7" fill-rule="evenodd" stroke="none"/>
      <path d="M9.9 -33.6 L10.75 -33.5 Q11.05 -33.0 10.55 -32.6 10.0 -32.15 9.65 -32.7 9.3 -33.2 9.9 -33.6 M7.7 -34.1 Q7.4 -34.45 7.75 -34.7 L8.35 -34.6 Q8.65 -34.25 8.3 -34.0 8.0 -33.75 7.7 -34.1 M5.7 -34.45 Q5.25 -34.2 4.85 -34.7 4.45 -35.15 5.0 -35.45 5.55 -35.7 5.85 -35.25 6.15 -34.75 5.7 -34.45 M2.8 -35.75 Q2.55 -36.05 2.9 -36.25 L3.3 -36.2 Q3.45 -35.9 3.25 -35.7 L2.8 -35.75 M0.0 -36.2 Q-0.35 -36.75 0.25 -37.15 L1.2 -37.05 Q1.5 -36.55 0.95 -36.1 0.4 -35.65 0.0 -36.2 M11.95 -32.05 Q11.7 -31.8 11.35 -32.15 11.0 -32.5 11.45 -32.8 11.9 -33.1 12.05 -32.7 12.2 -32.3 11.95 -32.05 M14.1 -31.2 Q14.25 -30.95 14.0 -30.8 13.75 -30.6 13.5 -30.9 13.3 -31.2 13.6 -31.35 L14.1 -31.2 M14.95 -29.75 Q15.35 -30.05 15.7 -29.6 16.05 -29.15 15.65 -28.85 15.2 -28.55 14.85 -29.0 14.5 -29.45 14.95 -29.75 M17.6 -25.05 Q17.75 -24.65 17.5 -24.4 L16.9 -24.5 Q16.55 -24.85 17.0 -25.15 L17.6 -25.05 M16.35 -26.45 Q16.05 -26.9 16.55 -27.25 17.1 -27.6 17.35 -27.15 17.6 -26.75 17.15 -26.35 16.7 -26.0 16.35 -26.45 M17.65 -23.4 Q17.95 -23.05 17.7 -22.75 L17.55 -22.25 Q17.3 -22.0 16.95 -22.35 L16.8 -22.7 16.8 -22.75 Q16.5 -23.25 16.9 -23.5 L17.65 -23.4 M17.45 -20.7 L17.7 -21.0 Q18.15 -21.35 18.35 -21.0 18.6 -20.7 18.25 -20.35 18.3 -20.05 17.95 -19.75 17.5 -19.4 17.15 -19.85 16.85 -20.3 17.35 -20.65 L17.45 -20.7 M17.7 -18.65 Q18.05 -18.2 17.65 -17.9 17.2 -17.6 16.85 -18.05 16.5 -18.5 16.95 -18.8 17.35 -19.1 17.7 -18.65 M18.95 -19.05 Q19.2 -18.65 18.8 -18.35 18.45 -18.05 18.2 -18.5 17.95 -18.9 18.3 -19.2 18.7 -19.5 18.95 -19.05 M19.05 -15.9 L18.3 -16.0 Q18.0 -16.4 18.35 -16.65 18.7 -16.9 19.1 -16.5 19.55 -16.15 19.05 -15.9 M16.75 -15.95 Q16.55 -16.25 16.85 -16.4 L17.35 -16.25 Q17.5 -16.0 17.25 -15.85 17.0 -15.65 16.75 -15.95 M15.8 -13.6 Q15.45 -13.95 15.9 -14.25 16.35 -14.55 16.5 -14.15 16.65 -13.75 16.4 -13.5 16.15 -13.25 15.8 -13.6 M18.65 -13.7 Q18.3 -13.4 18.05 -13.8 17.8 -14.2 18.15 -14.4 L18.75 -14.35 Q19.0 -14.05 18.65 -13.7 M10.05 -7.15 L10.45 -7.1 Q10.6 -6.8 10.4 -6.6 L9.95 -6.65 Q9.7 -6.95 10.05 -7.15 M3.75 -3.5 Q3.95 -3.05 3.7 -2.8 L3.05 -2.85 Q2.65 -3.25 3.15 -3.6 L3.75 -3.5 M1.35 -3.6 L0.85 -3.65 Q0.65 -3.95 1.0 -4.2 L1.5 -4.1 Q1.7 -3.85 1.35 -3.6 M1.4 -0.15 Q1.15 -0.05 1.0 -0.25 0.85 -0.45 1.05 -0.55 L1.4 -0.5 Q1.6 -0.3 1.4 -0.15 M3.45 -0.15 Q3.65 0.2 3.35 0.4 3.1 0.65 2.9 0.3 2.7 0.0 3.0 -0.25 L3.45 -0.15 M8.45 -5.25 Q8.1 -5.8 8.7 -6.2 L9.65 -6.1 Q9.95 -5.6 9.4 -5.15 8.85 -4.7 8.45 -5.25 M7.9 -4.15 Q7.65 -3.95 7.4 -4.25 7.2 -4.5 7.45 -4.65 L7.95 -4.6 Q8.15 -4.3 7.9 -4.15 M5.25 -3.7 Q5.0 -4.0 5.35 -4.15 L5.85 -4.05 Q6.05 -3.7 5.75 -3.55 5.45 -3.35 5.25 -3.7 M5.95 -0.6 L5.8 -0.1 Q5.55 0.15 5.3 -0.1 5.1 -0.35 5.4 -0.6 5.75 -0.85 5.95 -0.6 M7.65 -0.5 Q7.45 -0.8 7.7 -1.0 L8.15 -0.9 Q8.4 -0.7 8.1 -0.45 L7.65 -0.5 M9.8 -0.75 L10.55 -0.6 Q11.0 -0.25 10.5 0.0 L9.75 -0.1 Q9.45 -0.5 9.8 -0.75 M17.9 -11.25 Q17.65 -11.55 18.0 -11.8 18.35 -12.1 18.55 -11.8 18.75 -11.55 18.45 -11.25 18.1 -11.0 17.9 -11.25 M16.25 -11.9 Q16.55 -11.4 16.05 -11.0 15.5 -10.55 15.15 -11.1 14.8 -11.6 15.4 -12.0 L16.25 -11.9 M17.2 -9.95 L17.75 -9.85 Q18.0 -9.45 17.65 -9.2 17.3 -8.9 17.1 -9.3 16.85 -9.7 17.2 -9.95 M15.45 -7.2 Q15.1 -7.7 15.5 -8.0 15.95 -8.3 16.5 -7.85 17.0 -7.4 16.4 -7.05 15.8 -6.7 15.45 -7.2 M14.75 -9.3 L14.15 -9.4 Q13.85 -9.75 14.2 -10.0 14.55 -10.25 14.8 -9.9 15.1 -9.55 14.75 -9.3 M12.0 -8.5 Q12.55 -8.75 12.85 -8.3 13.15 -7.8 12.7 -7.5 12.25 -7.25 11.85 -7.75 11.45 -8.2 12.0 -8.5 M14.75 -6.0 L15.6 -5.9 Q16.0 -5.45 15.5 -5.05 15.0 -4.65 14.65 -5.15 14.3 -5.7 14.75 -6.0 M13.9 -3.3 Q13.5 -2.95 13.15 -3.3 12.85 -3.65 13.35 -4.0 13.8 -4.35 14.05 -4.0 14.3 -3.6 13.9 -3.3 M12.3 -1.65 Q11.95 -1.35 11.7 -1.8 11.45 -2.2 11.8 -2.5 12.2 -2.8 12.45 -2.35 12.7 -1.95 12.3 -1.65 M-13.9 -31.25 L-14.6 -31.35 Q-15.0 -31.75 -14.5 -32.1 -14.0 -32.45 -13.8 -32.0 -13.65 -31.55 -13.9 -31.25 M-12.7 -33.4 L-12.0 -33.25 Q-11.75 -32.85 -12.1 -32.6 -12.5 -32.4 -12.8 -32.8 -13.1 -33.2 -12.7 -33.4 M-10.5 -34.5 Q-10.1 -34.75 -9.8 -34.35 -9.5 -34.0 -9.85 -33.7 -10.25 -33.45 -10.55 -33.85 -10.85 -34.25 -10.5 -34.5 M-16.0 -29.8 Q-16.3 -30.2 -15.8 -30.5 L-15.05 -30.45 Q-14.85 -30.05 -15.25 -29.7 -15.7 -29.35 -16.0 -29.8 M-16.35 -27.95 Q-16.75 -27.7 -17.05 -28.1 -17.35 -28.5 -17.0 -28.75 -16.6 -29.0 -16.3 -28.6 -16.0 -28.25 -16.35 -27.95 M-17.15 -26.05 Q-17.5 -25.8 -17.8 -26.2 -18.05 -26.55 -17.65 -26.75 -17.25 -27.0 -17.05 -26.6 -16.8 -26.25 -17.15 -26.05 M-1.55 -36.35 L-1.5 -36.75 -1.0 -36.7 Q-0.8 -36.4 -1.05 -36.25 -1.3 -36.05 -1.55 -36.35 M-3.95 -36.05 Q-4.2 -36.35 -3.85 -36.5 L-3.35 -36.4 Q-3.15 -36.05 -3.45 -35.9 -3.75 -35.7 -3.95 -36.05 M-5.9 -35.0 Q-6.3 -35.4 -5.8 -35.75 L-5.2 -35.65 Q-5.0 -35.2 -5.25 -34.95 L-5.9 -35.0 M-8.1 -35.25 Q-8.3 -35.55 -7.95 -35.8 L-7.45 -35.7 Q-7.25 -35.45 -7.6 -35.2 L-8.1 -35.25 M-20.65 -21.05 Q-20.1 -21.4 -19.7 -20.85 -19.25 -20.35 -19.8 -20.0 -20.3 -19.6 -20.7 -20.15 -21.15 -20.7 -20.65 -21.05 M-20.5 -19.2 L-20.0 -19.1 Q-19.8 -18.75 -20.1 -18.6 -20.4 -18.4 -20.6 -18.75 -20.85 -19.05 -20.5 -19.2 M-18.45 -23.5 Q-18.85 -23.9 -18.35 -24.25 -17.9 -24.55 -17.75 -24.15 -17.55 -23.7 -17.8 -23.45 L-18.45 -23.5 M-18.35 -22.1 L-19.0 -22.15 Q-19.3 -22.55 -18.85 -22.85 L-18.15 -22.75 Q-17.95 -22.4 -18.35 -22.1 M-18.65 -16.4 Q-18.45 -15.8 -18.8 -15.4 -19.15 -15.05 -19.65 -15.55 -20.2 -16.05 -19.55 -16.55 -18.9 -17.0 -18.65 -16.4 M-20.05 -13.6 Q-20.35 -14.0 -19.9 -14.3 L-19.2 -14.2 Q-19.0 -13.85 -19.4 -13.55 L-20.05 -13.6 M-19.1 -12.9 Q-18.65 -12.55 -19.15 -12.3 L-19.9 -12.4 Q-20.2 -12.8 -19.85 -13.05 L-19.1 -12.9 M-15.15 -8.4 Q-15.65 -8.0 -16.05 -8.55 -16.5 -9.1 -16.0 -9.45 -15.45 -9.8 -15.05 -9.25 -14.6 -8.75 -15.15 -8.4 M-13.3 -9.0 L-12.6 -8.9 Q-12.4 -8.55 -12.8 -8.25 L-13.45 -8.3 Q-13.75 -8.7 -13.3 -9.0 M-10.55 -7.9 Q-10.15 -8.15 -9.95 -7.75 -9.7 -7.4 -10.05 -7.2 -10.4 -6.95 -10.7 -7.35 -10.95 -7.7 -10.55 -7.9 M-10.65 -8.35 L-11.3 -8.4 Q-11.7 -8.8 -11.2 -9.15 L-10.6 -9.05 Q-10.4 -8.6 -10.65 -8.35 M-17.65 -10.65 Q-17.9 -10.95 -17.55 -11.1 L-17.05 -11.0 Q-16.85 -10.65 -17.15 -10.5 -17.45 -10.3 -17.65 -10.65 M-18.75 -11.4 Q-19.3 -11.9 -18.65 -12.4 -18.0 -12.85 -17.75 -12.25 -17.55 -11.65 -17.9 -11.25 -18.25 -10.9 -18.75 -11.4 M-18.0 -9.55 Q-18.35 -9.25 -18.6 -9.7 -18.85 -10.1 -18.5 -10.4 -18.1 -10.7 -17.85 -10.25 -17.6 -9.85 -18.0 -9.55 M-18.5 -8.15 L-17.6 -8.1 Q-17.25 -7.65 -17.8 -7.25 -18.3 -6.8 -18.7 -7.25 -19.1 -7.7 -18.5 -8.15 M-17.4 -5.55 Q-17.65 -5.95 -17.3 -6.15 L-16.7 -6.1 Q-16.45 -5.8 -16.8 -5.45 -17.15 -5.15 -17.4 -5.55 M-16.35 -3.6 Q-16.7 -4.0 -16.3 -4.25 L-15.5 -4.15 Q-15.05 -3.75 -15.55 -3.45 -16.05 -3.2 -16.35 -3.6 M-14.35 -2.15 Q-14.6 -2.55 -14.25 -2.85 -13.85 -3.15 -13.6 -2.7 -13.35 -2.3 -13.75 -2.0 -14.1 -1.7 -14.35 -2.15 M-12.65 -1.05 Q-12.85 -1.3 -12.55 -1.5 -12.25 -1.75 -12.1 -1.5 -11.95 -1.3 -12.2 -1.05 -12.45 -0.85 -12.65 -1.05 M-10.55 -0.6 L-10.05 -0.55 Q-9.8 -0.3 -10.1 0.0 L-10.65 -0.1 Q-10.85 -0.4 -10.55 -0.6 M-6.25 -4.2 Q-6.65 -4.6 -6.15 -4.95 -5.65 -5.3 -5.45 -4.85 -5.3 -4.4 -5.55 -4.1 -5.85 -3.8 -6.25 -4.2 M-8.35 -4.2 Q-8.65 -4.6 -8.15 -4.9 L-7.4 -4.85 Q-7.2 -4.45 -7.6 -4.1 -8.05 -3.75 -8.35 -4.2 M-9.35 -5.25 Q-9.75 -5.0 -10.05 -5.4 -10.35 -5.8 -10.0 -6.05 -9.6 -6.3 -9.3 -5.9 -9.0 -5.55 -9.35 -5.25 M-8.3 -0.95 L-7.65 -0.85 Q-7.3 -0.5 -7.7 -0.3 L-8.35 -0.4 Q-8.6 -0.75 -8.3 -0.95 M-5.5 -0.35 Q-5.3 0.0 -5.6 0.25 -5.95 0.5 -6.15 0.15 -6.35 -0.2 -6.05 -0.45 L-5.5 -0.35 M-1.55 -3.95 Q-1.85 -4.35 -1.5 -4.6 -1.1 -4.85 -0.8 -4.45 -0.5 -4.1 -0.85 -3.8 -1.25 -3.55 -1.55 -3.95 M-3.85 -4.6 Q-4.15 -5.0 -3.75 -5.2 -3.3 -5.45 -3.05 -5.05 -2.8 -4.65 -3.15 -4.4 -3.55 -4.2 -3.85 -4.6 M-3.7 -0.55 Q-3.9 -0.75 -3.65 -0.95 -3.35 -1.15 -3.2 -0.95 -3.1 -0.75 -3.3 -0.55 -3.55 -0.35 -3.7 -0.55 M-1.15 -0.75 Q-0.85 -0.4 -1.25 -0.1 -1.6 0.25 -1.85 -0.2 -2.15 -0.6 -1.8 -0.85 L-1.15 -0.75" fill="#ffffff" fill-opacity="0.81960785" fill-rule="evenodd" stroke="none"/>
      <path d="M3.8 -25.6 L3.85 -26.25 4.35 -27.5 Q4.75 -28.25 5.75 -28.3 L7.2 -28.3 8.25 -26.8 8.25 -26.75 Q7.85 -23.9 6.4 -23.75 4.4 -24.4 3.8 -25.6 M7.0 -25.2 L7.25 -25.9 Q7.25 -26.45 7.05 -26.2 L6.7 -25.65 5.7 -25.05 5.75 -24.8 6.4 -24.7 7.0 -25.2" fill="#23170b" fill-rule="evenodd" stroke="none"/>
      <path d="M7.0 -25.2 L6.4 -24.7 5.75 -24.8 5.7 -25.05 6.7 -25.65 7.05 -26.2 Q7.25 -26.45 7.25 -25.9 L7.0 -25.2" fill="#ada49a" fill-rule="evenodd" stroke="none"/>
      <path d="M3.8 -25.6 Q4.4 -24.4 6.4 -23.75 7.85 -23.9 8.25 -26.75 L8.6 -25.65 Q7.35 -22.45 6.05 -23.2 3.9 -24.3 3.8 -25.6" fill="#bbd1d7" fill-rule="evenodd" stroke="none"/>
      <path d="M8.25 -26.75 L8.25 -26.8 7.2 -28.3 5.75 -28.3 Q4.75 -28.25 4.35 -27.5 L3.85 -26.25 3.8 -25.6 Q4.4 -24.4 6.4 -23.75 7.85 -23.9 8.25 -26.75 Z" fill="none" stroke="#000000" stroke-linecap="round" stroke-linejoin="round" stroke-opacity="0.3019608" stroke-width="0.30000000000000004"/>
      <path d="M5.55 -17.0 L5.6 -17.65 6.1 -18.9 Q6.5 -19.65 7.5 -19.7 L8.95 -19.7 10.0 -18.2 10.0 -18.15 Q9.6 -15.3 8.15 -15.15 6.15 -15.8 5.55 -17.0 M8.15 -16.1 L8.75 -16.6 9.0 -17.3 Q9.0 -17.85 8.8 -17.6 L8.45 -17.05 7.45 -16.45 7.5 -16.2 8.15 -16.1" fill="#23170b" fill-rule="evenodd" stroke="none"/>
      <path d="M8.15 -16.1 L7.5 -16.2 7.45 -16.45 8.45 -17.05 8.8 -17.6 Q9.0 -17.85 9.0 -17.3 L8.75 -16.6 8.15 -16.1" fill="#ada49a" fill-rule="evenodd" stroke="none"/>
      <path d="M5.55 -17.0 Q6.15 -15.8 8.15 -15.15 9.6 -15.3 10.0 -18.15 L10.35 -17.05 Q9.1 -13.85 7.8 -14.6 5.65 -15.7 5.55 -17.0" fill="#bbd1d7" fill-rule="evenodd" stroke="none"/>
      <path d="M10.0 -18.15 L10.0 -18.2 8.95 -19.7 7.5 -19.7 Q6.5 -19.65 6.1 -18.9 L5.6 -17.65 5.55 -17.0 Q6.15 -15.8 8.15 -15.15 9.6 -15.3 10.0 -18.15 Z" fill="none" stroke="#000000" stroke-linecap="round" stroke-linejoin="round" stroke-opacity="0.3019608" stroke-width="0.30000000000000004"/>
      <path d="M4.55 -7.75 L4.6 -8.4 5.1 -9.65 Q5.5 -10.4 6.5 -10.45 L7.95 -10.45 9.0 -8.95 9.0 -8.9 Q8.6 -6.05 7.15 -5.9 5.15 -6.55 4.55 -7.75 M7.45 -7.8 L6.45 -7.2 6.5 -6.95 7.15 -6.85 7.75 -7.35 8.0 -8.05 Q8.0 -8.6 7.8 -8.35 L7.45 -7.8" fill="#23170b" fill-rule="evenodd" stroke="none"/>
      <path d="M7.45 -7.8 L7.8 -8.35 Q8.0 -8.6 8.0 -8.05 L7.75 -7.35 7.15 -6.85 6.5 -6.95 6.45 -7.2 7.45 -7.8" fill="#ada49a" fill-rule="evenodd" stroke="none"/>
      <path d="M4.55 -7.75 Q5.15 -6.55 7.15 -5.9 8.6 -6.05 9.0 -8.9 L9.35 -7.8 Q8.1 -4.6 6.8 -5.35 4.65 -6.45 4.55 -7.75" fill="#bbd1d7" fill-rule="evenodd" stroke="none"/>
      <path d="M9.0 -8.9 L9.0 -8.95 7.95 -10.45 6.5 -10.45 Q5.5 -10.4 5.1 -9.65 L4.6 -8.4 4.55 -7.75 Q5.15 -6.55 7.15 -5.9 8.6 -6.05 9.0 -8.9 Z" fill="none" stroke="#000000" stroke-linecap="round" stroke-linejoin="round" stroke-opacity="0.3019608" stroke-width="0.30000000000000004"/>
      <path d="M-16.85 -30.15 L-12.3 -25.8 Q-13.2 -24.8 -13.45 -23.2 L-18.25 -28.45 -23.65 -34.85 -18.25 -28.45 -25.35 -34.3 Q-30.1 -36.0 -33.9 -35.95 L-33.45 -36.15 -32.95 -36.8 -24.3 -35.1 -23.65 -34.85 -19.15 -30.65 Q-15.1 -26.35 -16.85 -30.15 M-30.55 -45.25 L-28.25 -41.3 -27.25 -38.95 Q-26.7 -37.65 -25.55 -36.8 L-26.9 -37.25 Q-28.6 -41.5 -30.65 -44.9 L-30.55 -45.25 M-26.2 -35.05 L-25.35 -34.3 -26.2 -35.05" fill="#563f25" fill-rule="evenodd" stroke="none"/>
      <path d="M-16.85 -30.15 Q-15.1 -26.35 -19.15 -30.65 L-23.65 -34.85 -24.3 -35.1 -32.95 -36.8 Q-32.65 -37.55 -32.95 -38.6 -30.4 -37.7 -27.2 -37.25 L-26.9 -37.2 -26.9 -37.25 -25.55 -36.8 Q-26.7 -37.65 -27.25 -38.95 L-28.25 -41.3 -30.55 -45.25 Q-30.05 -46.6 -29.25 -46.45 L-25.75 -38.6 -16.85 -30.15" fill="#856638" fill-rule="evenodd" stroke="none"/>
      <path d="M-32.95 -38.6 Q-32.65 -37.55 -32.95 -36.8 L-33.45 -36.15 -33.9 -35.95 Q-34.5 -35.9 -34.6 -36.7 -34.65 -38.25 -33.45 -38.5 L-32.95 -38.6" fill="#4d3821" fill-rule="evenodd" stroke="none"/>
      <path d="M-12.3 -25.8 L-16.85 -30.15 -25.75 -38.6 -29.25 -46.45 Q-30.05 -46.6 -30.55 -45.25 L-30.65 -44.9 Q-28.6 -41.5 -26.9 -37.25 L-26.9 -37.2 -27.2 -37.25 Q-30.4 -37.7 -32.95 -38.6 -32.65 -37.55 -32.95 -36.8 L-33.45 -36.15 -33.9 -35.95 Q-30.1 -36.0 -25.35 -34.3 L-26.2 -35.05 M-23.65 -34.85 L-18.25 -28.45 -13.45 -23.2 M-33.9 -35.95 Q-34.5 -35.9 -34.6 -36.7 -34.65 -38.25 -33.45 -38.5 L-32.95 -38.6 M-18.25 -28.45 L-25.35 -34.3" fill="none" stroke="#000000" stroke-linecap="round" stroke-linejoin="round" stroke-opacity="0.3019608" stroke-width="0.30000000000000004"/>
    </g>
  </defs>
</svg>
