<?xml version="1.0" encoding="UTF-8" standalone="no"?>
<svg xmlns:ffdec="https://www.free-decompiler.com/flash" xmlns:xlink="http://www.w3.org/1999/xlink" ffdec:objectType="frame" height="30.8px" width="38.85px" xmlns="http://www.w3.org/2000/svg">
  <g transform="matrix(1.0, 0.0, 0.0, 1.0, 21.55, 30.5)">
    <use ffdec:characterId="959" height="5.55" transform="matrix(-0.3697, 1.0098, 0.8592, -0.2005, -2.1479, -19.3119)" width="11.65" xlink:href="#decoration2-sprite0"/>
    <use ffdec:characterId="959" height="5.55" transform="matrix(-0.3351, 0.9151, 0.8592, -0.2005, -4.3548, -22.2929)" width="11.65" xlink:href="#decoration2-sprite0"/>
    <use ffdec:characterId="959" height="5.55" transform="matrix(-0.3351, 0.9151, 0.8592, -0.2005, -5.9048, -23.9929)" width="11.65" xlink:href="#decoration2-sprite0"/>
    <use ffdec:characterId="959" height="5.55" transform="matrix(-0.2145, 0.8836, 0.8328, -0.1936, -8.4737, -26.738)" width="11.65" xlink:href="#decoration2-sprite0"/>
    <use ffdec:characterId="959" height="5.55" transform="matrix(-0.2145, 0.8836, 0.8328, -0.1936, -10.2237, -28.388)" width="11.65" xlink:href="#decoration2-sprite0"/>
    <use ffdec:characterId="959" height="5.55" transform="matrix(-0.198, 0.715, 0.8328, -0.1936, -12.377, -29.4043)" width="11.65" xlink:href="#decoration2-sprite0"/>
    <use ffdec:characterId="960" height="24.05" transform="matrix(1.0, 0.0, 0.0, 1.0, -11.55, -23.75)" width="12.45" xlink:href="#decoration2-shape1"/>
    <use ffdec:characterId="959" height="5.55" transform="matrix(1.1921, -0.0604, -0.1774, 1.1863, -14.753, -13.2752)" width="11.65" xlink:href="#decoration2-sprite0"/>
    <use ffdec:characterId="959" height="5.55" transform="matrix(1.1921, -0.0604, -0.1774, 1.1863, -16.153, -16.7752)" width="11.65" xlink:href="#decoration2-sprite0"/>
    <use ffdec:characterId="959" height="5.55" transform="matrix(1.1921, -0.0604, -0.1774, 1.1863, -17.903, -19.6752)" width="11.65" xlink:href="#decoration2-sprite0"/>
    <use ffdec:characterId="959" height="5.55" transform="matrix(1.1921, -0.0604, -0.1774, 1.1863, -18.953, -21.9752)" width="11.65" xlink:href="#decoration2-sprite0"/>
    <use ffdec:characterId="959" height="5.55" transform="matrix(0.6988, 0.3204, -0.5562, 0.6717, -16.3785, -29.9484)" width="11.65" xlink:href="#decoration2-sprite0"/>
    <use ffdec:characterId="959" height="5.55" transform="matrix(1.1637, 0.018, -0.4011, 1.1071, -19.3025, -24.675)" width="11.65" xlink:href="#decoration2-sprite0"/>
    <use ffdec:characterId="959" height="5.55" transform="matrix(0.8504, 0.0131, -0.2931, 0.809, -18.9115, -26.6144)" width="11.65" xlink:href="#decoration2-sprite0"/>
    <use ffdec:characterId="959" height="5.55" transform="matrix(0.241, 0.813, -0.6805, -0.1614, 1.6879, -12.3303)" width="11.65" xlink:href="#decoration2-sprite0"/>
    <use ffdec:characterId="959" height="5.55" transform="matrix(0.2184, 0.7367, -0.6805, -0.1614, 3.6424, -14.6151)" width="11.65" xlink:href="#decoration2-sprite0"/>
    <use ffdec:characterId="959" height="5.55" transform="matrix(0.2184, 0.7367, -0.6805, -0.1614, 4.9924, -16.0151)" width="11.65" xlink:href="#decoration2-sprite0"/>
    <use ffdec:characterId="959" height="5.55" transform="matrix(0.1231, 0.7113, -0.6596, -0.1559, 7.3573, -18.2611)" width="11.65" xlink:href="#decoration2-sprite0"/>
    <use ffdec:characterId="959" height="5.55" transform="matrix(0.1231, 0.7113, -0.6596, -0.1559, 8.9073, -19.5111)" width="11.65" xlink:href="#decoration2-sprite0"/>
    <use ffdec:characterId="959" height="5.55" transform="matrix(0.1193, 0.5757, -0.6596, -0.1559, 10.6581, -20.184)" width="11.65" xlink:href="#decoration2-sprite0"/>
    <use ffdec:characterId="961" height="16.05" transform="matrix(1.0, 0.0, 0.0, 1.0, -0.2, -15.75)" width="9.7" xlink:href="#decoration2-shape2"/>
    <use ffdec:characterId="959" height="5.55" transform="matrix(-0.9563, -0.0486, 0.0762, 0.955, 11.676, -7.1813)" width="11.65" xlink:href="#decoration2-sprite0"/>
    <use ffdec:characterId="959" height="5.55" transform="matrix(-0.9563, -0.0486, 0.0762, 0.955, 12.926, -10.0813)" width="11.65" xlink:href="#decoration2-sprite0"/>
    <use ffdec:characterId="959" height="5.55" transform="matrix(-0.9563, -0.0486, 0.0762, 0.955, 14.726, -12.3813)" width="11.65" xlink:href="#decoration2-sprite0"/>
    <use ffdec:characterId="959" height="5.55" transform="matrix(-0.9563, -0.0486, 0.0762, 0.955, 15.326, -14.4313)" width="11.65" xlink:href="#decoration2-sprite0"/>
    <use ffdec:characterId="959" height="5.55" transform="matrix(-0.5805, 0.258, 0.4101, 0.5407, 13.7341, -20.8097)" width="11.65" xlink:href="#decoration2-sprite0"/>
    <use ffdec:characterId="959" height="5.55" transform="matrix(-0.9379, 0.0145, 0.2608, 0.8913, 15.8354, -16.5311)" width="11.65" xlink:href="#decoration2-sprite0"/>
    <use ffdec:characterId="959" height="5.55" transform="matrix(-0.6854, 0.0105, 0.1906, 0.6513, 15.749, -18.2824)" width="11.65" xlink:href="#decoration2-sprite0"/>
  </g>
  <defs>
    <g id="decoration2-sprite0" transform="matrix(1.0, 0.0, 0.0, 1.0, 0.2, 0.2)">
      <use ffdec:characterId="958" height="5.55" transform="matrix(1.0, 0.0, 0.0, 1.0, -0.2, -0.2)" width="11.65" xlink:href="#decoration2-shape0"/>
    </g>
    <g id="decoration2-shape0" transform="matrix(1.0, 0.0, 0.0, 1.0, 0.2, 0.2)">
      <path d="M11.25 5.15 Q4.25 3.4 0.0 0.0 4.9 0.9 10.35 3.75 L11.25 5.15" fill="url(#decoration2-gradient0)" fill-rule="evenodd" stroke="none"/>
      <path d="M11.25 5.15 Q4.25 3.4 0.0 0.0 4.9 0.9 10.35 3.75 L11.25 5.15 Z" fill="none" stroke="#000000" stroke-linecap="round" stroke-linejoin="round" stroke-opacity="0.32941177" stroke-width="0.4"/>
    </g>
    <linearGradient gradientTransform="matrix(0.0059, 0.0, 0.0, 0.0031, 5.6, 2.55)" gradientUnits="userSpaceOnUse" id="decoration2-gradient0" spreadMethod="pad" x1="-819.2" x2="819.2">
      <stop offset="0.023529411764705882" stop-color="#919f21"/>
      <stop offset="0.984313725490196" stop-color="#4b5402"/>
    </linearGradient>
    <g id="decoration2-shape1" transform="matrix(1.0, 0.0, 0.0, 1.0, 11.55, 23.75)">
      <path d="M-6.8 -16.4 Q-9.25 -20.8 -11.45 -23.65 L-8.1 -20.05 Q-0.3 -9.2 0.8 0.2 L-0.7 0.2 Q-1.9 -7.6 -6.8 -16.4" fill="#3c4a03" fill-rule="evenodd" stroke="none"/>
      <path d="M-6.8 -16.4 Q-1.9 -7.6 -0.7 0.2 L0.8 0.2 Q-0.3 -9.2 -8.1 -20.05 L-11.45 -23.65 Q-9.25 -20.8 -6.8 -16.4 Z" fill="none" stroke="#000000" stroke-linecap="round" stroke-linejoin="round" stroke-opacity="0.3882353" stroke-width="0.2"/>
    </g>
    <g id="decoration2-shape2" transform="matrix(1.0, 0.0, 0.0, 1.0, 0.2, 15.75)">
      <path d="M8.55 -14.55 Q1.15 -6.25 1.1 0.2 L-0.1 0.2 Q0.65 -6.05 6.75 -13.25 L9.4 -15.65 8.55 -14.55" fill="#3c4a03" fill-rule="evenodd" stroke="none"/>
      <path d="M8.55 -14.55 Q1.15 -6.25 1.1 0.2 L-0.1 0.2 Q0.65 -6.05 6.75 -13.25 L9.4 -15.65 8.55 -14.55 Z" fill="none" stroke="#000000" stroke-linecap="round" stroke-linejoin="round" stroke-opacity="0.3882353" stroke-width="0.2"/>
    </g>
  </defs>
</svg>
