<?xml version="1.0" encoding="UTF-8" standalone="no"?>
<svg xmlns:xlink="http://www.w3.org/1999/xlink" height="67.65px" width="55.1px" xmlns="http://www.w3.org/2000/svg">
  <g transform="matrix(1.0, 0.0, 0.0, 1.0, 26.6, 67.45)">
    <use height="61.85" transform="matrix(1.0, 0.0, 0.0, 1.0, -14.8, -61.85)" width="42.9" xlink:href="#decoration20-shape0"/>
    <use height="26.2" transform="matrix(-1.025, 0.0, 0.2037, 1.2412, -4.4358, -52.9482)" width="16.65" xlink:href="#decoration20-sprite0"/>
    <use height="26.2" transform="matrix(-0.9609, 0.2829, 0.2467, 0.968, -10.6072, -44.2502)" width="16.65" xlink:href="#decoration20-sprite0"/>
    <use height="41.95" transform="matrix(-0.8156, -0.1459, -0.0292, 0.684, 28.519, -42.7576)" width="24.0" xlink:href="#decoration20-sprite1"/>
    <use height="26.2" transform="matrix(0.9673, -0.1534, 0.1933, 0.9066, -5.3321, -40.1006)" width="16.65" xlink:href="#decoration20-sprite0"/>
    <use height="41.95" transform="matrix(-1.0679, 0.0, 0.0, 1.1254, 26.9636, -67.4251)" width="24.0" xlink:href="#decoration20-sprite1"/>
    <use height="41.95" transform="matrix(1.0, 0.0, 0.0, 1.0, -21.4, -58.65)" width="24.0" xlink:href="#decoration20-sprite1"/>
    <use height="8.3" transform="matrix(1.0, 0.0, 0.0, 1.0, 3.9, -28.95)" width="7.15" xlink:href="#decoration20-shape3"/>
    <use height="15.5" transform="matrix(-0.8029, 0.0, 0.0, 1.0, 19.4704, -30.8)" width="14.0" xlink:href="#decoration20-sprite2"/>
    <use height="26.2" transform="matrix(1.0, 0.0, 0.0, 1.0, 4.45, -48.1)" width="16.65" xlink:href="#decoration20-sprite0"/>
    <use height="36.9" transform="matrix(1.0, 0.0, 0.0, 1.0, -7.45, -57.5)" width="16.7" xlink:href="#decoration20-shape5"/>
    <use height="15.5" transform="matrix(1.0, 0.0, 0.0, 1.0, -18.35, -30.8)" width="14.0" xlink:href="#decoration20-sprite2"/>
    <use height="23.25" id="decoration20-Couleur0_48230C" filter="url(#decoration20-filter0)" transform="matrix(1.0, 0.0, 0.0, 1.0, -13.7, -23.05)" width="27.65" xlink:href="#decoration20-sprite3"/>
  </g>
  <defs>
    <g id="decoration20-shape0" transform="matrix(1.0, 0.0, 0.0, 1.0, 14.8, 61.85)">
      <path d="M20.3 -56.75 Q19.2 -51.4 15.05 -50.85 L10.75 -50.95 Q8.35 -44.9 6.8 -38.55 L20.15 -40.3 28.1 -40.0 Q25.9 -39.85 24.45 -38.15 20.75 -34.25 15.75 -35.6 13.85 -32.75 12.85 -29.85 20.55 -27.25 19.65 -18.2 19.3 -14.7 17.95 -13.5 18.2 -17.15 15.7 -20.5 L14.75 -17.55 13.35 -16.95 9.95 0.0 5.8 0.0 8.2 -15.25 -14.8 -24.3 Q-12.95 -44.15 6.6 -47.85 L6.9 -43.1 Q8.1 -47.1 9.65 -51.0 10.45 -54.6 14.4 -57.8 20.5 -63.05 28.1 -61.5 23.75 -61.8 20.3 -56.75" fill="#000000" fill-opacity="0.3019608" fill-rule="evenodd" stroke="none"/>
    </g>
    <g id="decoration20-sprite0" transform="matrix(1.0, 0.0, 0.0, 1.0, 0.2, 0.2)">
      <use height="26.2" transform="matrix(1.0, 0.0, 0.0, 1.0, -0.2, -0.2)" width="16.65" xlink:href="#decoration20-shape1"/>
    </g>
    <g id="decoration20-shape1" transform="matrix(1.0, 0.0, 0.0, 1.0, 0.2, 0.2)">
      <path d="M11.75 1.1 L11.1 1.0 11.9 0.4 12.4 0.4 11.75 1.1" fill="#262a0d" fill-rule="evenodd" stroke="none"/>
      <path d="M11.1 1.0 L11.75 1.1 Q11.1 1.75 11.25 2.45 11.3 2.8 11.5 3.0 L10.6 3.0 Q8.9 3.25 6.95 5.75 L7.7 4.6 Q9.0 2.85 10.55 1.45 9.0 2.85 7.7 4.6 L6.95 5.75 Q8.9 3.25 10.6 3.0 9.15 3.9 8.3 5.05 8.55 5.85 10.7 6.25 L10.15 6.25 Q7.85 7.2 6.75 8.55 6.2 9.5 8.0 9.45 8.7 9.5 9.75 10.1 L9.15 10.05 Q6.15 11.05 4.95 12.9 4.9 13.6 5.9 14.05 8.5 13.95 11.35 10.8 10.15 13.1 8.35 14.6 6.25 15.05 4.4 15.9 L2.95 16.65 3.9 12.7 4.2 11.7 3.45 8.5 4.2 11.7 5.0 9.5 5.3 8.85 5.7 7.95 Q6.05 6.1 5.15 5.0 6.05 6.1 5.7 7.95 L5.3 8.85 5.0 9.5 4.2 11.7 2.55 15.9 Q0.5 13.85 0.0 11.9 -0.05 9.8 0.55 7.95 0.05 11.3 1.7 12.65 3.85 13.1 3.45 8.5 L2.6 7.15 4.6 8.6 Q5.3 7.7 5.15 5.0 L4.35 4.25 6.6 5.25 Q7.45 4.6 8.3 2.75 8.35 1.85 7.7 1.35 L10.0 1.45 10.55 1.45 11.1 1.0 M7.7 4.6 L8.3 2.75 7.7 4.6 M5.7 7.95 L6.95 5.75 5.7 7.95 M9.15 10.05 Q6.05 9.85 3.9 12.7 6.05 9.85 9.15 10.05 M10.15 6.25 Q7.3 6.3 5.0 9.5 7.3 6.3 10.15 6.25" fill="#222d0e" fill-rule="evenodd" stroke="none"/>
      <path d="M11.9 0.4 L11.1 1.0 10.55 1.45 10.0 1.45 11.9 0.4" fill="#25290c" fill-rule="evenodd" stroke="none"/>
      <path d="M11.75 1.1 L12.4 0.4 Q13.8 0.4 14.8 1.65 L11.75 1.1 M12.45 8.1 L11.8 9.8 8.4 7.9 12.45 8.1 M4.6 2.4 Q5.25 1.85 7.05 0.8 L7.4 1.95 6.4 1.95 7.45 3.5 4.6 2.4 M9.45 0.05 L11.9 0.4 10.0 1.45 9.45 0.05" fill="#2f3512" fill-rule="evenodd" stroke="none"/>
      <path d="M10.6 3.0 L11.5 3.0 Q11.3 2.8 11.25 2.45 11.1 1.75 11.75 1.1 L14.8 1.65 Q13.7 2.45 13.2 4.15 12.95 5.0 12.45 8.1 L8.4 7.9 11.8 9.8 11.35 10.8 Q8.5 13.95 5.9 14.05 4.9 13.6 4.95 12.9 6.15 11.05 9.15 10.05 L9.75 10.1 Q8.7 9.5 8.0 9.45 6.2 9.5 6.75 8.55 7.85 7.2 10.15 6.25 L10.7 6.25 Q8.55 5.85 8.3 5.05 9.15 3.9 10.6 3.0 M12.4 3.35 L11.5 3.0 12.4 3.35" fill="url(#decoration20-gradient0)" fill-rule="evenodd" stroke="none"/>
      <path d="M13.2 4.15 Q13.7 2.45 14.8 1.65 16.5 3.9 16.2 6.3 15.0 4.05 13.2 4.15" fill="#172209" fill-rule="evenodd" stroke="none"/>
      <path d="M0.55 7.95 Q1.55 4.75 4.6 2.4 L7.45 3.5 6.4 1.95 7.4 1.95 7.05 0.8 7.95 0.45 9.45 0.05 10.0 1.45 7.7 1.35 Q8.35 1.85 8.3 2.75 7.45 4.6 6.6 5.25 L4.35 4.25 5.15 5.0 Q5.3 7.7 4.6 8.6 L2.6 7.15 3.45 8.5 Q3.85 13.1 1.7 12.65 0.05 11.3 0.55 7.95" fill="url(#decoration20-gradient1)" fill-rule="evenodd" stroke="none"/>
      <path d="M2.95 16.65 Q1.85 24.85 2.0 25.5 L0.9 25.8 Q0.95 24.7 1.75 20.2 L2.55 15.9 4.2 11.7 3.9 12.7 2.95 16.65" fill="#1d2a0c" fill-rule="evenodd" stroke="none"/>
      <path d="M11.9 0.4 L11.1 1.0 10.55 1.45 Q9.0 2.85 7.7 4.6 L6.95 5.75 Q8.9 3.25 10.6 3.0 L11.5 3.0 12.4 3.35 M10.7 6.25 L10.15 6.25 M9.75 10.1 L9.15 10.05 M7.7 1.35 Q8.35 1.85 8.3 2.75 L7.7 4.6 M3.45 8.5 L4.2 11.7 5.0 9.5 5.3 8.85 5.7 7.95 Q6.05 6.1 5.15 5.0 L4.35 4.25 M2.6 7.15 L3.45 8.5 M6.95 5.75 L5.7 7.95 M3.9 12.7 L2.95 16.65 M4.2 11.7 L3.9 12.7 Q6.05 9.85 9.15 10.05 M5.0 9.5 Q7.3 6.3 10.15 6.25 M2.55 15.9 L4.2 11.7" fill="none" stroke="#000000" stroke-linecap="round" stroke-linejoin="round" stroke-opacity="0.32156864" stroke-width="0.2"/>
      <path d="M12.4 0.4 L11.9 0.4 M14.8 1.65 Q13.8 0.4 12.4 0.4 M13.2 4.15 Q13.7 2.45 14.8 1.65 16.5 3.9 16.2 6.3 15.0 4.05 13.2 4.15 12.95 5.0 12.45 8.1 L11.8 9.8 11.35 10.8 Q10.15 13.1 8.35 14.6 6.25 15.05 4.4 15.9 L2.95 16.65 Q1.85 24.85 2.0 25.5 L0.9 25.8 Q0.95 24.7 1.75 20.2 L2.55 15.9 Q0.5 13.85 0.0 11.9 -0.05 9.8 0.55 7.95 1.55 4.75 4.6 2.4 5.25 1.85 7.05 0.8 L7.95 0.45 9.45 0.05 11.9 0.4 Z" fill="none" stroke="#000000" stroke-linecap="round" stroke-linejoin="round" stroke-opacity="0.32156864" stroke-width="0.4"/>
    </g>
    <linearGradient gradientTransform="matrix(0.0034, 0.0049, -0.0065, 0.0045, 7.9, 4.25)" gradientUnits="userSpaceOnUse" id="decoration20-gradient0" spreadMethod="pad" x1="-819.2" x2="819.2">
      <stop offset="0.011764705882352941" stop-color="#3e4e1e"/>
      <stop offset="1.0" stop-color="#2c3a14"/>
    </linearGradient>
    <linearGradient gradientTransform="matrix(0.0029, 0.0051, -0.0067, 0.0039, 4.3, 4.1)" gradientUnits="userSpaceOnUse" id="decoration20-gradient1" spreadMethod="pad" x1="-819.2" x2="819.2">
      <stop offset="0.00392156862745098" stop-color="#3e4e1e"/>
      <stop offset="1.0" stop-color="#2c3a14"/>
    </linearGradient>
    <g id="decoration20-sprite1" transform="matrix(1.0, 0.0, 0.0, 1.0, 0.2, 0.2)">
      <use height="41.95" transform="matrix(1.0, 0.0, 0.0, 1.0, -0.2, -0.2)" width="24.0" xlink:href="#decoration20-shape2"/>
    </g>
    <g id="decoration20-shape2" transform="matrix(1.0, 0.0, 0.0, 1.0, 0.2, 0.2)">
      <path d="M12.9 2.45 L15.65 3.55 16.6 4.65 Q17.75 6.3 17.1 8.15 16.2 9.95 16.25 11.65 L14.55 7.85 Q14.9 5.15 12.9 2.45 14.9 5.15 14.55 7.85 L13.4 5.65 12.0 4.5 Q11.35 3.95 10.7 3.55 L10.9 3.85 Q8.95 2.9 8.2 3.45 7.2 4.15 9.5 5.8 L10.55 6.2 12.6 6.25 Q13.5 6.8 14.2 8.85 L15.8 12.1 Q13.8 9.8 10.05 9.0 7.0 7.65 5.95 5.2 L4.7 3.95 Q2.6 2.2 0.0 1.6 L0.6 1.5 Q4.85 0.55 9.3 1.45 L12.9 2.45 M7.35 5.95 L9.5 5.8 7.35 5.95 M0.6 1.5 Q5.5 0.95 9.1 2.65 5.65 2.4 4.7 3.95 5.65 2.4 9.1 2.65 5.5 0.95 0.6 1.5 M9.5 8.1 Q11.55 7.0 14.2 8.85 11.55 7.0 9.5 8.1 M9.3 1.45 Q10.7 2.75 10.7 3.55 9.9 3.05 9.1 2.65 9.9 3.05 10.7 3.55 10.7 2.75 9.3 1.45" fill="url(#decoration20-gradient2)" fill-rule="evenodd" stroke="none"/>
      <path d="M16.6 4.65 L15.65 3.55 12.9 2.45 9.3 1.45 Q4.85 0.55 0.6 1.5 L0.0 1.6 Q6.35 -0.7 11.05 0.3 15.1 1.55 16.6 4.65" fill="#a9ac91" fill-rule="evenodd" stroke="none"/>
      <path d="M10.9 3.85 L12.0 4.5 13.4 5.65 13.15 6.05 12.6 6.25 10.55 6.2 9.5 5.8 Q11.35 5.4 11.2 4.9 10.2 3.85 8.2 3.45 8.95 2.9 10.9 3.85" fill="#7f7d52" fill-rule="evenodd" stroke="none"/>
      <path d="M14.55 7.85 L16.25 11.65 Q21.5 24.05 23.6 41.55 L22.85 41.55 Q22.15 33.25 19.5 23.4 17.55 16.1 15.8 12.1 L14.2 8.85 Q13.5 6.8 12.6 6.25 L13.15 6.05 13.4 5.65 14.55 7.85" fill="#2f3d0d" fill-rule="evenodd" stroke="none"/>
      <path d="M9.5 5.8 Q7.2 4.15 8.2 3.45 10.2 3.85 11.2 4.9 11.35 5.4 9.5 5.8" fill="#a09f7b" fill-rule="evenodd" stroke="none"/>
      <path d="M16.6 4.65 L15.65 3.55 12.9 2.45 M16.25 11.65 Q16.2 9.95 17.1 8.15 17.75 6.3 16.6 4.65 15.1 1.55 11.05 0.3 6.35 -0.7 0.0 1.6 L0.6 1.5 Q4.85 0.55 9.3 1.45 L12.9 2.45 M15.8 12.1 Q17.55 16.1 19.5 23.4 22.15 33.25 22.85 41.55 L23.6 41.55 Q21.5 24.05 16.25 11.65 M0.0 1.6 Q2.6 2.2 4.7 3.95 M15.8 12.1 Q13.8 9.8 10.05 9.0 7.0 7.65 5.95 5.2 L4.7 3.95" fill="none" stroke="#111002" stroke-linecap="round" stroke-linejoin="round" stroke-opacity="0.3019608" stroke-width="0.4"/>
      <path d="M12.9 2.45 Q14.9 5.15 14.55 7.85 L16.25 11.65 M12.0 4.5 Q11.35 3.95 10.7 3.55 L10.9 3.85 12.0 4.5 13.4 5.65 14.55 7.85 M13.4 5.65 L13.15 6.05 12.6 6.25 Q13.5 6.8 14.2 8.85 L15.8 12.1 M12.6 6.25 L10.55 6.2 9.5 5.8 7.35 5.95 M8.2 3.45 Q7.2 4.15 9.5 5.8 M8.2 3.45 Q8.95 2.9 10.9 3.85 M4.7 3.95 Q5.65 2.4 9.1 2.65 5.5 0.95 0.6 1.5 M9.1 2.65 Q9.9 3.05 10.7 3.55 10.7 2.75 9.3 1.45 M14.2 8.85 Q11.55 7.0 9.5 8.1" fill="none" stroke="#111002" stroke-linecap="round" stroke-linejoin="round" stroke-opacity="0.3019608" stroke-width="0.2"/>
    </g>
    <linearGradient gradientTransform="matrix(-0.0011, 0.0042, -0.0056, -0.0015, 11.1, 4.25)" gradientUnits="userSpaceOnUse" id="decoration20-gradient2" spreadMethod="pad" x1="-819.2" x2="819.2">
      <stop offset="0.011764705882352941" stop-color="#5d5f43"/>
      <stop offset="1.0" stop-color="#929573"/>
    </linearGradient>
    <g id="decoration20-shape3" transform="matrix(1.0, 0.0, 0.0, 1.0, -3.9, 28.95)">
      <path d="M8.15 -28.8 L9.5 -28.2 Q10.55 -27.25 10.85 -24.85 L10.8 -23.25 Q10.6 -22.5 10.05 -21.95 8.85 -20.8 7.3 -20.8 6.9 -20.85 5.95 -21.25 L4.65 -22.05 Q3.75 -23.15 4.15 -24.45 4.65 -23.6 5.5 -23.4 5.4 -23.05 5.45 -22.7 5.45 -22.1 5.85 -22.1 6.6 -22.05 6.95 -22.65 L7.1 -23.45 Q8.9 -25.05 8.15 -28.8 M8.3 -22.0 Q8.0 -22.1 7.9 -21.8 7.8 -21.45 8.15 -21.35 L8.6 -21.6 Q8.65 -21.9 8.3 -22.0 M9.65 -25.55 Q8.9 -25.75 8.7 -25.1 8.45 -24.25 9.25 -24.0 9.55 -23.9 9.85 -24.15 L10.15 -24.5 Q10.4 -25.35 9.65 -25.55 M9.35 -27.3 Q9.0 -27.4 8.95 -27.1 8.8 -26.7 9.1 -26.6 9.5 -26.5 9.6 -26.9 9.65 -27.2 9.35 -27.3" fill="#c9507b" fill-rule="evenodd" stroke="none"/>
      <path d="M4.15 -24.45 L4.5 -25.55 5.75 -27.55 Q6.95 -28.9 8.15 -28.8 8.9 -25.05 7.1 -23.45 L6.5 -23.8 Q5.85 -23.95 5.5 -23.4 4.65 -23.6 4.15 -24.45 M6.3 -25.35 Q6.75 -25.25 7.2 -25.65 L7.7 -26.4 Q7.95 -27.25 7.05 -27.3 6.1 -27.3 5.9 -26.5 5.5 -25.6 6.3 -25.35" fill="#f295b7" fill-rule="evenodd" stroke="none"/>
      <path d="M6.3 -25.35 Q5.5 -25.6 5.9 -26.5 6.1 -27.3 7.05 -27.3 7.95 -27.25 7.7 -26.4 L7.2 -25.65 Q6.75 -25.25 6.3 -25.35 M5.5 -23.4 Q5.85 -23.95 6.5 -23.8 L7.1 -23.45 5.5 -23.4" fill="#fad32d" fill-rule="evenodd" stroke="none"/>
      <path d="M7.1 -23.45 L6.95 -22.65 Q6.6 -22.05 5.85 -22.1 5.45 -22.1 5.45 -22.7 5.4 -23.05 5.5 -23.4 L7.1 -23.45 M9.35 -27.3 Q9.65 -27.2 9.6 -26.9 9.5 -26.5 9.1 -26.6 8.8 -26.7 8.95 -27.1 9.0 -27.4 9.35 -27.3 M9.65 -25.55 Q10.4 -25.35 10.15 -24.5 L9.85 -24.15 Q9.55 -23.9 9.25 -24.0 8.45 -24.25 8.7 -25.1 8.9 -25.75 9.65 -25.55 M8.3 -22.0 Q8.65 -21.9 8.6 -21.6 L8.15 -21.35 Q7.8 -21.45 7.9 -21.8 8.0 -22.1 8.3 -22.0" fill="#d19708" fill-rule="evenodd" stroke="none"/>
      <path d="M8.15 -28.8 L9.5 -28.2 Q10.55 -27.25 10.85 -24.85 L10.8 -23.25 Q10.6 -22.5 10.05 -21.95 8.85 -20.8 7.3 -20.8 6.9 -20.85 5.95 -21.25 L4.65 -22.05 Q3.75 -23.15 4.15 -24.45 L4.5 -25.55 5.75 -27.55 Q6.95 -28.9 8.15 -28.8 Z" fill="none" stroke="#000000" stroke-linecap="round" stroke-linejoin="round" stroke-opacity="0.3019608" stroke-width="0.30000000000000004"/>
    </g>
    <g id="decoration20-sprite2" transform="matrix(1.0, 0.0, 0.0, 1.0, 0.15, 0.15)">
      <use height="15.5" transform="matrix(1.0, 0.0, 0.0, 1.0, -0.15, -0.15)" width="14.0" xlink:href="#decoration20-shape4"/>
    </g>
    <g id="decoration20-shape4" transform="matrix(1.0, 0.0, 0.0, 1.0, 0.15, 0.15)">
      <path d="M7.7 0.8 Q10.85 -0.55 12.3 0.35 13.6 1.15 13.7 3.8 L12.05 5.85 11.7 6.05 Q12.4 4.8 12.6 3.45 13.0 0.8 10.4 0.55 9.05 0.4 8.5 1.0 7.95 1.5 8.4 2.25 L6.3 2.0 7.7 0.8 6.3 2.0 8.4 2.25 Q7.05 2.0 6.55 3.65 6.3 4.5 6.3 5.35 5.5 3.25 5.2 3.1 L4.25 4.3 Q3.7 4.4 3.3 4.7 3.7 4.4 4.25 4.3 L5.2 3.1 6.3 2.0 5.35 1.75 6.3 2.0 5.2 3.1 Q5.5 3.25 6.3 5.35 5.15 4.35 4.25 5.1 2.8 6.3 2.6 9.0 L2.75 7.45 2.9 6.45 2.75 7.45 2.6 9.0 Q1.7 9.7 1.35 13.15 1.05 11.1 1.75 9.0 L1.9 6.95 1.75 6.35 Q2.5 5.05 3.3 4.7 4.65 3.55 4.75 2.6 4.8 1.6 3.3 2.2 3.85 1.8 4.5 1.7 L5.35 1.75 Q5.55 0.65 3.7 0.6 L7.7 0.8 M4.25 4.3 L2.9 6.45 1.75 9.0 2.9 6.45 4.25 4.3" fill="#445218" fill-rule="evenodd" stroke="none"/>
      <path d="M8.4 2.25 Q7.95 1.5 8.5 1.0 9.05 0.4 10.4 0.55 13.0 0.8 12.6 3.45 12.4 4.8 11.7 6.05 L10.3 6.65 8.35 5.6 9.3 8.15 6.45 9.8 5.75 8.95 5.1 10.6 Q1.4 12.8 1.85 15.15 L1.85 15.2 Q0.5 12.75 0.1 9.1 -0.45 4.8 1.5 2.3 2.65 0.8 3.7 0.6 5.55 0.65 5.35 1.75 L4.5 1.7 Q3.85 1.8 3.3 2.2 4.8 1.6 4.75 2.6 4.65 3.55 3.3 4.7 2.5 5.05 1.75 6.35 L1.9 6.95 1.75 9.0 Q1.05 11.1 1.35 13.15 1.45 14.15 1.85 15.15 1.45 14.15 1.35 13.15 1.7 9.7 2.6 9.0 2.8 6.3 4.25 5.1 5.15 4.35 6.3 5.35 6.3 4.5 6.55 3.65 7.05 2.0 8.4 2.25 9.55 2.9 9.8 4.95 9.55 2.9 8.4 2.25 M2.4 3.15 L3.3 2.2 2.4 3.15 M2.9 10.4 L2.6 9.0 2.9 10.4 M1.25 7.55 L1.75 6.35 1.25 7.55 M6.2 8.2 Q6.6 7.35 6.3 5.35 6.6 7.35 6.2 8.2" fill="url(#decoration20-gradient3)" fill-rule="evenodd" stroke="none"/>
      <path d="M11.7 6.05 L12.05 5.85 13.1 7.85 12.1 7.85 11.7 6.05" fill="#2f390b" fill-rule="evenodd" stroke="none"/>
      <path d="M11.7 6.05 L9.3 8.15 8.35 5.6 10.3 6.65 11.7 6.05" fill="#535a1a" fill-rule="evenodd" stroke="none"/>
      <path d="M12.05 5.85 L13.7 3.8 Q13.6 1.15 12.3 0.35 10.85 -0.55 7.7 0.8 M11.7 6.05 L12.05 5.85 13.1 7.85 M12.1 7.85 L11.7 6.05 9.3 8.15 6.45 9.8 5.75 8.95 5.1 10.6 Q1.4 12.8 1.85 15.15 L1.85 15.2 Q0.5 12.75 0.1 9.1 -0.45 4.8 1.5 2.3 2.65 0.8 3.7 0.6 L7.7 0.8" fill="none" stroke="#111002" stroke-linecap="round" stroke-linejoin="round" stroke-opacity="0.3019608" stroke-width="0.30000000000000004"/>
      <path d="M7.7 0.8 L6.3 2.0 8.4 2.25 Q9.55 2.9 9.8 4.95 M3.3 4.7 Q3.7 4.4 4.25 4.3 L5.2 3.1 6.3 2.0 5.35 1.75 4.5 1.7 Q3.85 1.8 3.3 2.2 L2.4 3.15 M3.3 4.7 Q2.5 5.05 1.75 6.35 L1.25 7.55 M1.75 9.0 L2.9 6.45 4.25 4.3 M6.3 5.35 Q5.5 3.25 5.2 3.1 M2.9 6.45 L2.75 7.45 2.6 9.0 2.9 10.4 M6.3 5.35 Q6.6 7.35 6.2 8.2 M1.35 13.15 Q1.45 14.15 1.85 15.15 M1.75 9.0 Q1.05 11.1 1.35 13.15" fill="none" stroke="#111002" stroke-linecap="round" stroke-linejoin="round" stroke-opacity="0.3019608" stroke-width="0.2"/>
    </g>
    <linearGradient gradientTransform="matrix(-0.0033, -0.0085, 0.0083, -0.0033, 5.65, 2.95)" gradientUnits="userSpaceOnUse" id="decoration20-gradient3" spreadMethod="pad" x1="-819.2" x2="819.2">
      <stop offset="0.0196078431372549" stop-color="#4b5a1c"/>
      <stop offset="1.0" stop-color="#798a39"/>
    </linearGradient>
    <g id="decoration20-shape5" transform="matrix(1.0, 0.0, 0.0, 1.0, 7.45, 57.5)">
      <path d="M-3.9 -32.05 Q-1.45 -32.2 1.05 -27.95 2.15 -26.05 1.2 -23.8 0.25 -21.6 -2.55 -21.3 -4.7 -21.1 -5.65 -21.7 -6.7 -22.4 -7.25 -24.7 L-5.1 -23.85 Q-5.05 -22.2 -4.2 -22.35 -3.35 -22.45 -3.15 -23.5 L-3.15 -24.5 Q-2.75 -25.0 -2.65 -26.2 -2.4 -28.6 -3.9 -32.05 M0.15 -26.6 L0.3 -27.25 Q0.3 -28.45 -0.7 -28.35 -1.7 -28.35 -1.7 -27.35 -1.7 -26.15 -0.65 -26.15 -0.15 -26.15 0.15 -26.6" fill="#308c85" fill-rule="evenodd" stroke="none"/>
      <path d="M-3.15 -24.5 L-3.15 -23.5 Q-3.35 -22.45 -4.2 -22.35 -5.05 -22.2 -5.1 -23.85 L-3.15 -24.5 M0.15 -26.6 Q-0.15 -26.15 -0.65 -26.15 -1.7 -26.15 -1.7 -27.35 -1.7 -28.35 -0.7 -28.35 0.3 -28.45 0.3 -27.25 L0.15 -26.6" fill="#b843a7" fill-rule="evenodd" stroke="none"/>
      <path d="M-7.25 -24.7 Q-7.45 -27.3 -6.45 -29.45 -5.75 -31.0 -4.85 -31.65 -4.3 -32.05 -3.9 -32.05 -2.4 -28.6 -2.65 -26.2 -2.75 -25.0 -3.15 -24.5 L-3.4 -24.7 -4.0 -24.8 Q-4.6 -24.7 -5.1 -23.85 L-7.25 -24.7 M-3.9 -27.55 Q-3.5 -28.2 -3.5 -28.7 -3.5 -29.95 -4.7 -29.65 -5.85 -29.3 -5.85 -28.1 -6.0 -26.8 -4.85 -26.8 -4.35 -26.8 -3.9 -27.55" fill="#55bdb8" fill-rule="evenodd" stroke="none"/>
      <path d="M-3.9 -27.55 Q-4.35 -26.8 -4.85 -26.8 -6.0 -26.8 -5.85 -28.1 -5.85 -29.3 -4.7 -29.65 -3.5 -29.95 -3.5 -28.7 -3.5 -28.2 -3.9 -27.55 M-3.15 -24.5 L-5.1 -23.85 Q-4.6 -24.7 -4.0 -24.8 L-3.4 -24.7 -3.15 -24.5" fill="#ec71e0" fill-rule="evenodd" stroke="none"/>
      <path d="M-3.9 -32.05 Q-1.45 -32.2 1.05 -27.95 2.15 -26.05 1.2 -23.8 0.25 -21.6 -2.55 -21.3 -4.7 -21.1 -5.65 -21.7 -6.7 -22.4 -7.25 -24.7 -7.45 -27.3 -6.45 -29.45 -5.75 -31.0 -4.85 -31.65 -4.3 -32.05 -3.9 -32.05 Z" fill="none" stroke="#000000" stroke-linecap="round" stroke-linejoin="round" stroke-opacity="0.3019608" stroke-width="0.30000000000000004"/>
      <path d="M2.05 -57.25 L5.75 -56.8 9.1 -56.65 8.3 -55.25 Q7.25 -53.85 5.4 -52.55 5.25 -54.05 4.55 -55.0 L3.2 -56.35 2.05 -57.25 M5.75 -56.8 Q6.2 -55.15 5.4 -52.55 6.2 -55.15 5.75 -56.8" fill="url(#decoration20-gradient4)" fill-rule="evenodd" stroke="none"/>
      <path d="M8.3 -55.25 L8.55 -53.05 3.85 -50.2 8.45 -51.2 7.9 -48.5 Q5.85 -44.4 2.55 -42.65 -0.75 -40.9 -1.6 -39.7 -1.6 -42.9 -1.2 -45.55 -0.85 -48.6 0.0 -51.0 1.15 -54.35 3.2 -56.35 L4.55 -55.0 Q5.25 -54.05 5.4 -52.55 7.25 -53.85 8.3 -55.25 M-2.25 -39.7 Q-3.2 -40.3 -4.0 -41.4 L-2.6 -43.4 -4.65 -42.7 Q-5.55 -45.0 -5.7 -48.5 L-5.6 -49.4 -3.55 -49.6 -5.15 -50.85 Q-3.55 -55.45 2.05 -57.25 L3.2 -56.35 Q1.75 -55.35 0.65 -53.25 L-0.55 -50.4 -1.6 -45.9 -2.25 -39.7 M4.65 -53.25 Q2.0 -54.35 0.0 -51.0 2.0 -54.35 4.65 -53.25 M6.2 -48.65 Q1.35 -49.6 -1.2 -45.55 1.35 -49.6 6.2 -48.65 M-4.8 -48.1 Q-3.1 -49.65 -1.6 -45.9 -3.1 -49.65 -4.8 -48.1 M-3.2 -52.65 Q-1.0 -53.5 -0.55 -50.4 -1.0 -53.5 -3.2 -52.65 M-0.65 -55.2 Q0.75 -55.8 0.65 -53.25 0.75 -55.8 -0.65 -55.2" fill="url(#decoration20-gradient5)" fill-rule="evenodd" stroke="none"/>
      <path d="M8.55 -53.05 L8.45 -51.2 3.85 -50.2 8.55 -53.05 M-4.0 -41.4 L-4.65 -42.7 -2.6 -43.4 -4.0 -41.4 M-5.6 -49.4 L-5.15 -50.85 -3.55 -49.6 -5.6 -49.4" fill="#4f5619" fill-rule="evenodd" stroke="none"/>
      <path d="M-1.6 -39.7 Q-2.0 -29.1 1.3 -20.75 L-0.35 -21.05 Q-2.4 -30.2 -2.25 -39.7 L-1.6 -45.9 -0.55 -50.4 0.65 -53.25 Q1.75 -55.35 3.2 -56.35 1.15 -54.35 0.0 -51.0 -0.85 -48.6 -1.2 -45.55 -1.6 -42.9 -1.6 -39.7" fill="#2c4612" fill-rule="evenodd" stroke="none"/>
      <path d="M2.05 -57.25 L5.75 -56.8 9.1 -56.65 8.3 -55.25 M-1.6 -39.7 Q-2.0 -29.1 1.3 -20.75 L-0.35 -21.05 Q-2.4 -30.2 -2.25 -39.7 -3.2 -40.3 -4.0 -41.4 L-4.65 -42.7 Q-5.55 -45.0 -5.7 -48.5 L-5.6 -49.4 -5.15 -50.85 Q-3.55 -55.45 2.05 -57.25 L3.2 -56.35" fill="none" stroke="#000000" stroke-linecap="round" stroke-linejoin="round" stroke-opacity="0.32941177" stroke-width="0.30000000000000004"/>
      <path d="M8.3 -55.25 L8.55 -53.05 8.45 -51.2 7.9 -48.5 Q5.85 -44.4 2.55 -42.65 -0.75 -40.9 -1.6 -39.7 -1.6 -42.9 -1.2 -45.55 1.35 -49.6 6.2 -48.65 M3.2 -56.35 L4.55 -55.0 Q5.25 -54.05 5.4 -52.55 6.2 -55.15 5.75 -56.8 M0.0 -51.0 Q2.0 -54.35 4.65 -53.25 M8.3 -55.25 Q7.25 -53.85 5.4 -52.55 M3.2 -56.35 Q1.15 -54.35 0.0 -51.0 -0.85 -48.6 -1.2 -45.55 M0.65 -53.25 Q1.75 -55.35 3.2 -56.35 M-0.55 -50.4 Q-1.0 -53.5 -3.2 -52.65 M-1.6 -45.9 Q-3.1 -49.65 -4.8 -48.1 M-2.25 -39.7 L-1.6 -45.9 -0.55 -50.4 0.65 -53.25 Q0.75 -55.8 -0.65 -55.2" fill="none" stroke="#000000" stroke-linecap="round" stroke-linejoin="round" stroke-opacity="0.32941177" stroke-width="0.2"/>
    </g>
    <linearGradient gradientTransform="matrix(8.0E-4, 0.0028, -0.0031, 5.0E-4, 4.3, -54.9)" gradientUnits="userSpaceOnUse" id="decoration20-gradient4" spreadMethod="pad" x1="-819.2" x2="819.2">
      <stop offset="0.011764705882352941" stop-color="#6c8734"/>
      <stop offset="1.0" stop-color="#4d6623"/>
    </linearGradient>
    <linearGradient gradientTransform="matrix(-0.0012, -0.0067, 0.0131, -0.0011, -1.5, -50.05)" gradientUnits="userSpaceOnUse" id="decoration20-gradient5" spreadMethod="pad" x1="-819.2" x2="819.2">
      <stop offset="0.0196078431372549" stop-color="#43581b"/>
      <stop offset="1.0" stop-color="#2a3c0a"/>
    </linearGradient>
    <g id="decoration20-sprite3" transform="matrix(1.0, 0.0, 0.0, 1.0, 0.2, 0.2)">
      <use height="23.25" transform="matrix(1.0, 0.0, 0.0, 1.0, -0.2, -0.2)" width="27.65" xlink:href="#decoration20-shape6"/>
    </g>
    <g id="decoration20-shape6" transform="matrix(1.0, 0.0, 0.0, 1.0, 0.2, 0.2)">
      <path d="M24.95 0.0 Q26.15 1.85 23.75 3.15 2.6 5.1 0.0 2.3 L0.0 0.0 24.95 0.0 M5.3 21.05 L2.45 6.45 Q13.7 5.35 19.05 8.05 19.4 14.35 17.55 20.1 11.9 21.7 5.3 21.05" fill="#808080" fill-rule="evenodd" stroke="none"/>
      <path d="M0.0 2.3 Q2.6 5.1 23.75 3.15 26.15 1.85 24.95 0.0 L27.25 0.0 27.25 4.65 25.3 4.65 21.65 22.85 5.65 22.85 5.3 21.05 Q11.9 21.7 17.55 20.1 19.4 14.35 19.05 8.05 13.7 5.35 2.45 6.45 L2.1 4.65 0.0 4.65 0.0 2.3 M25.3 4.65 L2.1 4.65 25.3 4.65" fill="#4f4c4c" fill-rule="evenodd" stroke="none"/>
      <path d="M24.95 0.0 L0.0 0.0 0.0 2.3 0.0 4.65 2.1 4.65 25.3 4.65 27.25 4.65 27.25 0.0 24.95 0.0 M25.3 4.65 L21.65 22.85 5.65 22.85 5.3 21.05 2.45 6.45 2.1 4.65" fill="none" stroke="#000000" stroke-linecap="round" stroke-linejoin="round" stroke-opacity="0.2784314" stroke-width="0.4"/>
    </g>
  </defs>
</svg>
