<?xml version="1.0" encoding="UTF-8" standalone="no"?>
<svg xmlns:xlink="http://www.w3.org/1999/xlink" height="48.15px" width="69.4px" xmlns="http://www.w3.org/2000/svg">
  <g transform="matrix(1.0, 0.0, 0.0, 1.0, 34.85, 47.3)">
    <use height="48.15" transform="matrix(1.0, 0.0, 0.0, 1.0, -34.85, -47.3)" width="69.4" xlink:href="#decoration200-shape0"/>
  </g>
  <defs>
    <g id="decoration200-shape0" transform="matrix(1.0, 0.0, 0.0, 1.0, 34.85, 47.3)">
      <path d="M32.9 -37.65 L33.35 -37.5 Q34.45 -37.2 34.4 -35.7 34.3 -35.0 33.8 -35.05 L33.35 -35.25 32.9 -35.9 Q32.65 -36.6 32.9 -37.65" fill="#4d3821" fill-rule="evenodd" stroke="none"/>
      <path d="M30.75 -44.15 L30.85 -43.8 Q29.0 -40.65 27.5 -36.6 L26.3 -36.2 Q27.3 -37.0 27.8 -38.25 L28.7 -40.45 30.75 -44.15 M33.8 -35.05 Q30.35 -35.25 26.05 -33.8 L19.7 -28.5 15.4 -23.65 Q15.2 -25.25 14.35 -26.2 L18.5 -30.15 Q16.9 -26.6 20.5 -30.6 23.35 -33.7 24.6 -34.45 L25.15 -34.65 32.9 -35.9 33.35 -35.25 33.8 -35.05 M26.85 -34.5 L26.05 -33.8 26.85 -34.5 M24.6 -34.45 L19.7 -28.5 24.6 -34.45" fill="#563f25" fill-rule="evenodd" stroke="none"/>
      <path d="M30.75 -44.15 L28.7 -40.45 27.8 -38.25 Q27.3 -37.0 26.3 -36.2 L27.5 -36.6 27.5 -36.55 27.75 -36.6 Q30.65 -36.9 32.9 -37.65 32.65 -36.6 32.9 -35.9 L25.15 -34.65 24.6 -34.45 Q23.35 -33.7 20.5 -30.6 16.9 -26.6 18.5 -30.15 L26.45 -37.95 29.6 -45.35 Q30.3 -45.4 30.75 -44.15" fill="#856638" fill-rule="evenodd" stroke="none"/>
      <path d="M27.5 -36.6 Q29.0 -40.65 30.85 -43.8 L30.75 -44.15 M27.5 -36.6 L27.5 -36.55 27.75 -36.6 Q30.65 -36.9 32.9 -37.65 L33.35 -37.5 Q34.45 -37.2 34.4 -35.7 34.3 -35.0 33.8 -35.05 30.35 -35.25 26.05 -33.8 L19.7 -28.5 15.4 -23.65 M14.35 -26.2 L18.5 -30.15 26.45 -37.95 29.6 -45.35 Q30.3 -45.4 30.75 -44.15 M26.05 -33.8 L26.85 -34.5 M32.9 -35.9 Q32.65 -36.6 32.9 -37.65 M32.9 -35.9 L33.35 -35.25 33.8 -35.05 M19.7 -28.5 L24.6 -34.45" fill="none" stroke="#000000" stroke-linecap="round" stroke-linejoin="round" stroke-opacity="0.3019608" stroke-width="0.30000000000000004"/>
      <path d="M-19.85 -14.75 L-19.85 -15.9 Q-20.55 -19.75 -20.4 -20.85 -20.3 -21.95 -18.9 -23.05 -18.1 -29.75 -12.2 -33.85 -9.0 -36.1 -9.65 -35.3 -0.35 -27.7 6.65 -31.35 13.6 -35.05 12.0 -32.85 L15.7 -29.0 Q17.65 -26.2 17.3 -23.75 17.35 -9.6 9.5 -7.85 10.05 -6.25 5.85 -4.5 1.6 -2.8 -2.45 -5.85 -8.7 -4.15 -10.1 -6.75 -11.5 -9.3 -11.0 -10.05 L-13.75 -9.0 Q-17.1 -9.1 -19.85 -14.75" fill="#f2f7f8" fill-rule="evenodd" stroke="none"/>
      <path d="M-19.85 -14.75 Q-17.1 -9.1 -13.75 -9.0 L-11.0 -10.05 Q-11.5 -9.3 -10.1 -6.75 -8.7 -4.15 -2.45 -5.85 1.6 -2.8 5.85 -4.5 10.05 -6.25 9.5 -7.85 17.35 -9.6 17.3 -23.75 L17.45 -23.35 Q19.1 -19.8 18.25 -16.4 18.5 -15.7 18.0 -12.3 17.55 -8.95 15.7 -6.1 L11.8 -0.05 -12.15 -0.05 Q-15.65 -3.85 -17.0 -5.8 -18.3 -7.65 -18.1 -9.6 -19.75 -12.15 -19.85 -14.75" fill="#bbd1d7" fill-rule="evenodd" stroke="none"/>
      <path d="M8.6 -32.5 Q8.3 -33.05 8.75 -33.35 9.2 -33.6 9.55 -33.15 9.95 -32.7 9.4 -32.3 8.9 -31.95 8.6 -32.5 M7.05 -31.55 Q6.65 -32.05 7.15 -32.35 7.65 -32.6 7.95 -32.05 8.2 -31.5 7.8 -31.25 7.45 -31.0 7.05 -31.55 M3.35 -30.95 Q3.8 -30.45 3.2 -30.05 2.65 -29.65 2.25 -30.3 1.85 -30.9 2.4 -31.15 2.9 -31.4 3.35 -30.95 M0.45 -29.55 Q0.25 -29.9 0.55 -30.05 L1.0 -29.95 Q1.25 -29.7 0.95 -29.45 0.65 -29.25 0.45 -29.55 M5.35 -30.1 Q5.05 -29.9 4.85 -30.35 4.65 -30.8 5.0 -31.05 5.35 -31.3 5.5 -30.8 5.7 -30.3 5.35 -30.1 M11.65 -32.65 Q11.45 -33.15 11.85 -33.4 12.2 -33.7 12.4 -33.15 12.55 -32.6 12.2 -32.4 11.9 -32.2 11.65 -32.65 M10.8 -33.25 Q10.5 -33.7 10.9 -33.9 L11.6 -33.75 Q11.9 -33.4 11.5 -33.1 11.05 -32.8 10.8 -33.25 M14.0 -31.05 Q14.15 -30.75 13.95 -30.6 13.7 -30.45 13.5 -30.75 13.25 -31.05 13.55 -31.25 13.85 -31.4 14.0 -31.05 M14.55 -29.05 Q14.3 -29.4 14.6 -29.6 L15.15 -29.45 Q15.4 -29.15 15.05 -28.95 14.75 -28.7 14.55 -29.05 M17.65 -25.4 Q17.85 -24.9 17.5 -24.7 17.2 -24.5 17.0 -24.95 16.8 -25.4 17.15 -25.65 17.5 -25.9 17.65 -25.4 M16.3 -27.0 Q16.0 -27.45 16.4 -27.65 L17.1 -27.5 Q17.4 -27.15 17.0 -26.85 16.55 -26.55 16.3 -27.0 M17.1 -23.55 Q16.9 -24.0 17.25 -24.25 17.6 -24.5 17.75 -24.0 17.95 -23.5 17.6 -23.3 17.3 -23.1 17.1 -23.55 M17.9 -19.15 Q17.75 -19.45 18.0 -19.55 L18.35 -19.45 18.3 -19.1 17.9 -19.15 M17.3 -21.3 Q16.85 -21.85 17.4 -22.15 17.95 -22.45 18.2 -21.85 18.45 -21.25 18.1 -21.0 17.7 -20.75 17.3 -21.3 M18.8 -16.3 Q18.45 -16.05 18.2 -16.45 17.95 -16.8 18.3 -17.0 L18.85 -16.85 Q19.15 -16.55 18.8 -16.3 M18.65 -14.25 Q18.35 -14.05 18.15 -14.5 17.95 -14.95 18.3 -15.2 18.65 -15.45 18.8 -14.95 19.0 -14.45 18.65 -14.25 M18.35 -12.7 Q18.5 -12.25 18.25 -12.05 17.95 -11.9 17.65 -12.3 17.35 -12.7 17.75 -12.9 18.15 -13.1 18.35 -12.7 M0.7 -0.25 Q0.85 0.1 0.6 0.2 0.4 0.35 0.25 0.05 0.1 -0.25 0.35 -0.45 0.6 -0.6 0.7 -0.25 M3.0 -0.25 Q3.45 0.25 2.85 0.65 2.2 1.1 1.8 0.4 1.4 -0.25 1.95 -0.5 2.55 -0.75 3.0 -0.25 M5.2 -0.45 Q5.45 -0.1 5.1 0.15 4.7 0.45 4.5 0.05 4.25 -0.35 4.6 -0.55 L5.2 -0.45 M7.4 -0.3 Q7.6 0.2 7.3 0.4 6.95 0.6 6.6 0.15 6.25 -0.3 6.7 -0.55 7.15 -0.8 7.4 -0.3 M9.55 -0.2 L9.45 0.25 Q9.25 0.35 9.15 0.1 9.0 -0.2 9.25 -0.35 L9.55 -0.2 M17.8 -9.6 Q17.35 -9.25 17.05 -9.8 16.75 -10.3 17.15 -10.55 17.6 -10.8 17.95 -10.4 18.3 -9.95 17.8 -9.6 M16.3 -7.7 Q16.0 -8.15 16.4 -8.35 L17.1 -8.2 Q17.4 -7.85 17.0 -7.55 16.55 -7.25 16.3 -7.7 M12.8 -1.55 Q12.6 -2.0 12.95 -2.2 13.3 -2.4 13.55 -2.05 13.85 -1.7 13.45 -1.4 13.05 -1.1 12.8 -1.55 M13.7 -3.55 Q13.4 -3.95 13.8 -4.15 14.2 -4.35 14.4 -3.95 14.55 -3.5 14.3 -3.3 14.0 -3.15 13.7 -3.55 M15.6 -5.45 Q15.3 -5.25 15.1 -5.7 14.9 -6.15 15.25 -6.4 15.6 -6.65 15.75 -6.15 15.95 -5.65 15.6 -5.45 M11.35 0.5 Q11.1 0.15 11.45 -0.05 L12.0 0.1 Q12.3 0.4 11.95 0.65 11.6 0.9 11.35 0.5 M-11.4 -34.5 Q-11.6 -34.95 -11.25 -35.2 -10.9 -35.45 -10.75 -34.95 -10.55 -34.45 -10.9 -34.25 -11.2 -34.05 -11.4 -34.5 M-14.45 -31.7 Q-14.85 -31.4 -15.1 -31.85 -15.3 -32.3 -14.95 -32.5 -14.6 -32.7 -14.35 -32.35 -14.05 -32.0 -14.45 -31.7 M-12.8 -33.6 Q-12.5 -33.75 -12.25 -33.45 -11.95 -33.15 -12.3 -32.9 -12.65 -32.65 -12.9 -33.05 -13.15 -33.4 -12.8 -33.6 M-16.2 -29.8 Q-16.65 -30.4 -16.05 -30.7 -15.5 -31.0 -15.2 -30.4 -14.95 -29.75 -15.35 -29.5 -15.75 -29.2 -16.2 -29.8 M-17.35 -28.55 Q-17.5 -28.95 -17.2 -29.15 -16.95 -29.4 -16.8 -28.95 -16.65 -28.55 -16.9 -28.35 -17.2 -28.2 -17.35 -28.55 M-18.95 -25.45 L-18.35 -25.35 Q-18.1 -25.0 -18.45 -24.75 -18.85 -24.45 -19.05 -24.85 -19.3 -25.25 -18.95 -25.45 M-17.85 -27.7 Q-17.4 -27.85 -17.1 -27.5 -16.75 -27.15 -17.2 -26.8 -17.65 -26.5 -17.95 -27.0 -18.25 -27.5 -17.85 -27.7 M-3.95 -31.25 Q-4.1 -31.55 -3.85 -31.7 -3.65 -31.85 -3.55 -31.55 -3.45 -31.25 -3.65 -31.1 -3.85 -31.0 -3.95 -31.25 M-9.75 -35.3 L-9.7 -35.7 Q-9.4 -35.85 -9.25 -35.55 -9.15 -35.25 -9.35 -35.15 -9.5 -35.0 -9.75 -35.3 M-5.8 -32.4 Q-6.1 -32.85 -5.7 -33.05 L-5.0 -32.9 Q-4.7 -32.55 -5.1 -32.25 -5.55 -31.95 -5.8 -32.4 M-8.15 -33.3 Q-8.5 -33.95 -8.0 -34.25 -7.5 -34.55 -7.1 -34.05 -6.65 -33.55 -7.25 -33.1 -7.8 -32.65 -8.15 -33.3 M-1.65 -30.45 Q-1.95 -30.8 -1.6 -31.0 -1.25 -31.2 -1.05 -30.8 -0.85 -30.4 -1.1 -30.25 -1.4 -30.1 -1.65 -30.45 M-21.1 -20.4 Q-21.3 -20.85 -20.95 -21.1 -20.6 -21.35 -20.45 -20.85 -20.25 -20.35 -20.6 -20.15 -20.9 -19.95 -21.1 -20.4 M-20.55 -19.5 L-19.85 -19.35 Q-19.55 -19.0 -19.95 -18.7 -20.4 -18.4 -20.65 -18.85 -20.95 -19.3 -20.55 -19.5 M-19.2 -22.75 Q-19.5 -23.15 -19.1 -23.35 -18.7 -23.55 -18.5 -23.15 -18.35 -22.7 -18.6 -22.5 -18.9 -22.35 -19.2 -22.75 M-19.55 -13.9 Q-19.85 -13.75 -20.15 -14.15 -20.45 -14.55 -20.05 -14.75 -19.65 -14.95 -19.45 -14.55 -19.3 -14.1 -19.55 -13.9 M-19.3 -16.05 Q-19.8 -15.7 -20.1 -16.25 -20.4 -16.8 -19.95 -17.1 -19.5 -17.35 -19.15 -16.9 -18.75 -16.45 -19.3 -16.05 M-20.15 -11.3 Q-20.4 -11.9 -19.95 -12.25 -19.5 -12.55 -19.3 -11.9 -19.05 -11.25 -19.5 -11.0 -19.9 -10.75 -20.15 -11.3 M-17.95 -9.65 Q-18.25 -9.4 -18.5 -9.75 -18.7 -10.1 -18.4 -10.25 L-17.85 -10.1 Q-17.65 -9.85 -17.95 -9.65 M-18.25 -8.15 L-17.7 -8.0 Q-17.45 -7.7 -17.8 -7.5 -18.1 -7.25 -18.3 -7.6 -18.55 -7.95 -18.25 -8.15 M-17.55 -5.65 Q-17.9 -6.1 -17.45 -6.35 -17.05 -6.55 -16.85 -6.1 -16.65 -5.65 -16.95 -5.45 -17.25 -5.25 -17.55 -5.65 M-15.85 -3.25 Q-16.1 -3.85 -15.65 -4.2 -15.2 -4.5 -15.0 -3.85 -14.75 -3.2 -15.2 -2.95 -15.6 -2.7 -15.85 -3.25 M-14.25 -1.95 Q-14.65 -2.55 -14.1 -2.8 -13.6 -3.05 -13.15 -2.6 -12.7 -2.1 -13.3 -1.7 -13.85 -1.3 -14.25 -1.95 M-13.55 -0.55 Q-13.75 -1.0 -13.4 -1.2 -13.05 -1.4 -12.8 -1.05 -12.5 -0.7 -12.9 -0.4 -13.3 -0.1 -13.55 -0.55 M-10.7 -0.15 Q-10.45 0.4 -10.85 0.65 -11.2 0.9 -11.6 0.35 -12.0 -0.15 -11.5 -0.45 -11.0 -0.7 -10.7 -0.15 M-8.7 -0.25 Q-8.85 -0.55 -8.6 -0.75 -8.35 -0.95 -8.2 -0.6 -8.1 -0.2 -8.35 -0.05 -8.55 0.1 -8.7 -0.25 M-3.45 -0.55 Q-3.2 -0.3 -3.5 -0.05 L-4.0 -0.15 Q-4.2 -0.5 -3.9 -0.65 L-3.45 -0.55 M-1.6 -0.15 Q-1.45 0.25 -1.7 0.4 -1.95 0.55 -2.2 0.2 -2.45 -0.15 -2.1 -0.3 -1.8 -0.5 -1.6 -0.15 M-6.0 0.5 Q-6.2 0.15 -5.95 0.05 L-5.45 0.15 Q-5.25 0.4 -5.5 0.6 L-6.0 0.5" fill="#ffffff" fill-opacity="0.81960785" fill-rule="evenodd" stroke="none"/>
      <path d="M-16.95 -30.85 L-12.4 -26.5 Q-13.3 -25.5 -13.55 -23.9 L-18.35 -29.15 -23.75 -35.55 -18.35 -29.15 Q-21.8 -32.25 -25.45 -35.0 -30.2 -36.7 -34.0 -36.65 L-33.55 -36.85 -33.05 -37.5 -24.4 -35.8 -23.75 -35.55 -19.25 -31.35 Q-15.2 -27.05 -16.95 -30.85 M-30.65 -45.95 L-28.35 -42.0 -27.35 -39.65 Q-26.8 -38.35 -25.65 -37.5 L-27.0 -37.95 Q-28.7 -42.2 -30.75 -45.6 L-30.65 -45.95 M-26.3 -35.75 L-25.45 -35.0 -26.3 -35.75" fill="#563f25" fill-rule="evenodd" stroke="none"/>
      <path d="M-16.95 -30.85 Q-15.2 -27.05 -19.25 -31.35 L-23.75 -35.55 -24.4 -35.8 -33.05 -37.5 Q-32.75 -38.25 -33.05 -39.3 -30.5 -38.4 -27.3 -37.95 L-27.0 -37.9 -27.0 -37.95 -25.65 -37.5 Q-26.8 -38.35 -27.35 -39.65 L-28.35 -42.0 -30.65 -45.95 Q-30.15 -47.3 -29.35 -47.15 L-25.85 -39.3 -16.95 -30.85" fill="#856638" fill-rule="evenodd" stroke="none"/>
      <path d="M-33.05 -39.3 Q-32.75 -38.25 -33.05 -37.5 L-33.55 -36.85 -34.0 -36.65 Q-34.6 -36.6 -34.7 -37.4 -34.75 -38.95 -33.55 -39.2 L-33.05 -39.3" fill="#4d3821" fill-rule="evenodd" stroke="none"/>
      <path d="M-12.4 -26.5 L-16.95 -30.85 -25.85 -39.3 -29.35 -47.15 Q-30.15 -47.3 -30.65 -45.95 L-30.75 -45.6 Q-28.7 -42.2 -27.0 -37.95 L-27.0 -37.9 -27.3 -37.95 Q-30.5 -38.4 -33.05 -39.3 -32.75 -38.25 -33.05 -37.5 L-33.55 -36.85 -34.0 -36.65 Q-30.2 -36.7 -25.45 -35.0 L-26.3 -35.75 M-23.75 -35.55 L-18.35 -29.15 -13.55 -23.9 M-34.0 -36.65 Q-34.6 -36.6 -34.7 -37.4 -34.75 -38.95 -33.55 -39.2 L-33.05 -39.3 M-18.35 -29.15 Q-21.8 -32.25 -25.45 -35.0" fill="none" stroke="#000000" stroke-linecap="round" stroke-linejoin="round" stroke-opacity="0.3019608" stroke-width="0.30000000000000004"/>
      <path d="M18.55 -35.1 L18.4 -33.3 Q18.0 -31.15 16.7 -29.45 3.6 -24.5 -7.9 -27.3 -11.45 -28.2 -14.45 -29.75 L-16.75 -31.15 Q-18.55 -37.5 -16.1 -38.35 -14.9 -38.8 -13.35 -37.95 L-12.1 -35.5 Q-10.25 -32.75 -7.3 -31.2 2.0 -26.2 18.55 -35.1" fill="#3cadb3" fill-rule="evenodd" stroke="none"/>
      <path d="M-13.35 -37.95 L-10.75 -36.05 Q-6.35 -34.55 1.9 -32.65 4.8 -32.0 12.2 -34.2 18.5 -36.05 18.55 -35.1 2.0 -26.2 -7.3 -31.2 -10.25 -32.75 -12.1 -35.5 L-13.35 -37.95" fill="#5dd8de" fill-rule="evenodd" stroke="none"/>
      <path d="M-13.35 -37.95 L-10.75 -36.05 Q-6.35 -34.55 1.9 -32.65 4.8 -32.0 12.2 -34.2 18.5 -36.05 18.55 -35.1 L18.4 -33.3 Q18.0 -31.15 16.7 -29.45 3.6 -24.5 -7.9 -27.3 -11.45 -28.2 -14.45 -29.75 L-16.75 -31.15 Q-18.55 -37.5 -16.1 -38.35 -14.9 -38.8 -13.35 -37.95 Z" fill="none" stroke="#000000" stroke-linecap="round" stroke-linejoin="round" stroke-opacity="0.3019608" stroke-width="0.30000000000000004"/>
      <path d="M14.85 -38.2 L13.8 -38.85 Q17.3 -40.55 20.15 -38.85 22.6 -34.9 19.1 -32.45 21.7 -26.15 16.8 -23.9 L13.3 -24.7 Q10.85 -27.3 14.85 -29.4 12.25 -30.2 14.05 -32.8 17.05 -35.7 16.8 -37.0 16.65 -38.05 14.85 -38.2 M16.9 -29.7 L14.85 -29.4 16.9 -29.7" fill="#5dd8de" fill-rule="evenodd" stroke="none"/>
      <path d="M13.8 -38.85 L14.85 -38.2 Q16.65 -38.05 16.8 -37.0 13.95 -36.85 10.55 -32.7 L10.85 -31.25 9.15 -32.7 Q9.8 -35.85 13.8 -38.85 M14.05 -32.8 Q12.25 -30.2 14.85 -29.4 L11.2 -29.55 14.85 -29.4 Q10.85 -27.3 13.3 -24.7 10.85 -25.6 10.2 -27.45 10.2 -28.75 11.2 -29.55 10.05 -30.05 10.85 -31.25 12.1 -31.4 13.55 -32.45 L14.05 -32.8" fill="#3cadb3" fill-rule="evenodd" stroke="none"/>
      <path d="M16.8 -37.0 Q17.05 -35.7 14.05 -32.8 L13.55 -32.45 Q12.1 -31.4 10.85 -31.25 L10.55 -32.7 Q13.95 -36.85 16.8 -37.0" fill="#2c9197" fill-rule="evenodd" stroke="none"/>
      <path d="M14.85 -38.2 Q16.65 -38.05 16.8 -37.0 17.05 -35.7 14.05 -32.8 L13.55 -32.45 Q12.1 -31.4 10.85 -31.25 10.05 -30.05 11.2 -29.55 L14.85 -29.4 16.9 -29.7 M13.3 -24.7 L16.8 -23.9 Q21.7 -26.15 19.1 -32.45 22.6 -34.9 20.15 -38.85 17.3 -40.55 13.8 -38.85 9.8 -35.85 9.15 -32.7 L10.85 -31.25 10.55 -32.7 Q13.95 -36.85 16.8 -37.0 M13.3 -24.7 Q10.85 -25.6 10.2 -27.45 10.2 -28.75 11.2 -29.55" fill="none" stroke="#000000" stroke-linecap="round" stroke-linejoin="round" stroke-opacity="0.29803923" stroke-width="0.05"/>
      <path d="M7.7 -32.9 Q11.1 -34.35 11.85 -30.55 L11.85 -28.95 Q8.25 -26.25 7.7 -32.9" fill="#5dd8de" fill-rule="evenodd" stroke="none"/>
      <path d="M7.7 -32.9 Q8.25 -26.25 11.85 -28.95 11.5 -27.95 10.3 -27.0 9.15 -26.1 8.0 -27.0 5.65 -29.35 7.7 -32.9" fill="#48bcc2" fill-rule="evenodd" stroke="none"/>
      <path d="M11.85 -28.95 L11.85 -30.55 Q11.1 -34.35 7.7 -32.9 M11.85 -28.95 Q11.5 -27.95 10.3 -27.0 9.15 -26.1 8.0 -27.0 5.65 -29.35 7.7 -32.9" fill="none" stroke="#000000" stroke-linecap="round" stroke-linejoin="round" stroke-opacity="0.29803923" stroke-width="0.05"/>
      <path d="M3.2 -23.8 Q-0.95 -21.95 -2.75 -24.55 -4.45 -26.25 -1.1 -29.9 -9.75 -33.35 -4.45 -36.95 -1.85 -40.25 4.9 -36.95 7.35 -34.2 7.6 -32.0 2.8 -36.05 -0.3 -35.1 -1.1 -32.5 5.25 -32.0 6.95 -30.15 2.05 -27.85 3.45 -27.95 5.25 -28.6 6.7 -27.15 3.2 -23.8" fill="#5dd8de" fill-rule="evenodd" stroke="none"/>
      <path d="M3.2 -23.8 Q6.7 -27.15 5.25 -28.6 3.45 -27.95 2.05 -27.85 6.95 -30.15 5.25 -32.0 L7.6 -32.0 Q8.9 -31.3 8.0 -30.15 9.15 -29.1 6.8 -26.25 4.75 -24.65 3.2 -23.8 M8.0 -30.15 L5.25 -28.6 8.0 -30.15" fill="#3cadb3" fill-rule="evenodd" stroke="none"/>
      <path d="M5.25 -32.0 Q-1.1 -32.5 -0.3 -35.1 2.8 -36.05 7.6 -32.0 L5.25 -32.0" fill="#2c9197" fill-rule="evenodd" stroke="none"/>
      <path d="M7.6 -32.0 Q7.35 -34.2 4.9 -36.95 -1.85 -40.25 -4.45 -36.95 -9.75 -33.35 -1.1 -29.9 -4.45 -26.25 -2.75 -24.55 -0.95 -21.95 3.2 -23.8 M5.25 -28.6 Q3.45 -27.95 2.05 -27.85 M5.25 -32.0 Q-1.1 -32.5 -0.3 -35.1 2.8 -36.05 7.6 -32.0 8.9 -31.3 8.0 -30.15 9.15 -29.1 6.8 -26.25 4.75 -24.65 3.2 -23.8 M5.25 -28.6 L8.0 -30.15 M7.6 -32.0 L5.25 -32.0" fill="none" stroke="#000000" stroke-linecap="round" stroke-linejoin="round" stroke-opacity="0.29803923" stroke-width="0.05"/>
    </g>
  </defs>
</svg>
