<?xml version="1.0" encoding="UTF-8" standalone="no"?>
<svg xmlns:xlink="http://www.w3.org/1999/xlink" height="46.75px" width="49.45px" xmlns="http://www.w3.org/2000/svg">
  <g transform="matrix(1.0, 0.0, 0.0, 1.0, 28.9, 45.75)">
    <use data-characterId="142" height="46.75" transform="matrix(1.0, 0.0, 0.0, 1.0, -28.9, -45.75)" width="49.45" xlink:href="#decoration201-shape0"/>
  </g>
  <defs>
    <g id="decoration201-shape0" transform="matrix(1.0, 0.0, 0.0, 1.0, 28.9, 45.75)">
      <path d="M13.3 -39.15 L13.05 -38.1 12.65 -37.25 10.35 -29.55 Q9.4 -27.95 9.05 -29.35 8.8 -29.95 8.8 -31.0 7.95 -28.4 7.4 -29.85 7.1 -30.6 7.0 -32.0 L6.7 -34.05 Q6.65 -35.85 6.75 -36.25 7.0 -38.3 7.65 -39.85 L8.65 -42.4 Q9.55 -44.5 9.9 -44.55 10.55 -45.6 11.15 -45.45 12.4 -45.2 12.85 -42.2 13.05 -42.2 13.3 -39.15" fill="#f2f7f8" fill-rule="evenodd" stroke="none"/>
      <path d="M6.75 -36.25 Q6.65 -35.85 6.7 -34.05 L7.0 -32.0 Q7.1 -30.6 7.4 -29.85 7.95 -28.4 8.8 -31.0 8.8 -29.95 9.05 -29.35 9.4 -27.95 10.35 -29.55 L12.65 -37.25 13.05 -38.1 13.3 -39.15 13.3 -35.7 13.2 -33.6 12.4 -30.0 11.95 -28.45 11.2 -26.75 10.35 -25.45 Q10.0 -24.95 8.3 -26.6 6.6 -28.25 6.65 -28.6 6.4 -30.1 6.5 -32.35 L6.6 -34.45 Q6.6 -35.75 6.75 -36.25" fill="#bbd1d7" fill-rule="evenodd" stroke="none"/>
      <path d="M11.25 -45.35 Q11.1 -45.55 11.3 -45.7 L11.65 -45.65 Q11.8 -45.5 11.6 -45.3 L11.25 -45.35 M10.7 -44.1 Q10.2 -43.95 9.8 -44.35 9.4 -44.8 9.9 -45.15 10.4 -45.5 10.8 -44.9 11.15 -44.3 10.7 -44.1 M13.0 -42.45 L12.75 -41.85 12.0 -41.9 Q11.7 -42.35 12.25 -42.65 L12.55 -42.75 Q12.3 -43.2 12.65 -43.45 12.95 -43.7 13.35 -43.25 13.7 -42.85 13.25 -42.55 L13.0 -42.45 M13.4 -37.75 Q13.65 -37.4 13.3 -37.1 12.95 -36.8 12.65 -37.2 12.35 -37.6 12.75 -37.85 L13.4 -37.75 M13.15 -39.25 Q12.8 -39.65 13.25 -39.95 13.7 -40.25 14.05 -39.7 14.35 -39.2 13.95 -39.0 13.5 -38.85 13.15 -39.25 M8.05 -41.95 Q7.75 -42.35 8.25 -42.6 L8.95 -42.55 Q9.1 -42.2 8.7 -41.85 8.3 -41.5 8.05 -41.95 M8.05 -40.55 Q7.7 -40.35 7.5 -40.7 7.3 -41.05 7.55 -41.25 7.8 -41.45 8.1 -41.1 8.4 -40.8 8.05 -40.55 M6.9 -37.85 Q6.55 -38.25 7.0 -38.5 L7.65 -38.4 Q7.95 -38.05 7.55 -37.75 7.2 -37.4 6.9 -37.85 M6.2 -35.95 Q5.95 -36.2 6.25 -36.4 6.55 -36.6 6.75 -36.25 7.0 -35.9 6.7 -35.8 6.45 -35.65 6.2 -35.95 M7.35 -34.25 Q7.55 -33.9 7.15 -33.55 L6.4 -33.6 Q6.1 -34.05 6.65 -34.35 L7.35 -34.25 M6.8 -31.1 Q6.3 -30.8 6.05 -31.3 5.75 -31.8 6.1 -32.05 6.45 -32.3 6.85 -31.85 7.25 -31.4 6.8 -31.1 M6.25 -29.0 Q5.9 -29.4 6.35 -29.65 L7.0 -29.55 Q7.3 -29.2 6.9 -28.9 6.55 -28.55 6.25 -29.0 M7.7 -26.8 Q7.4 -27.1 7.75 -27.35 8.1 -27.6 8.4 -27.15 8.65 -26.75 8.3 -26.6 8.0 -26.5 7.7 -26.8 M8.65 -25.7 Q8.35 -26.15 8.9 -26.45 L9.6 -26.35 Q9.8 -26.0 9.4 -25.65 L8.65 -25.7 M13.6 -34.85 Q13.2 -34.6 12.95 -35.0 12.7 -35.45 13.0 -35.65 L13.65 -35.5 Q14.0 -35.1 13.6 -34.85 M13.45 -32.95 L13.05 -33.0 Q12.85 -33.25 13.15 -33.4 L13.6 -33.35 13.45 -32.95 M13.05 -30.15 Q12.65 -30.0 12.35 -30.35 12.05 -30.65 12.45 -30.9 12.8 -31.2 13.1 -30.75 13.4 -30.3 13.05 -30.15 M12.15 -28.6 Q11.8 -28.25 11.5 -28.7 11.15 -29.1 11.6 -29.35 L12.25 -29.25 Q12.55 -28.9 12.15 -28.6 M10.7 -26.3 Q10.45 -26.75 10.8 -27.0 11.1 -27.25 11.5 -26.8 11.85 -26.4 11.4 -26.1 10.95 -25.85 10.7 -26.3" fill="#ffffff" fill-opacity="0.81960785" fill-rule="evenodd" stroke="none"/>
      <path d="M-16.2 -12.45 L-16.2 -13.4 -16.05 -14.25 Q-16.85 -16.15 -16.65 -17.45 -16.6 -18.35 -15.45 -19.25 -14.8 -24.7 -9.95 -28.05 -7.3 -29.9 -4.15 -29.85 -1.25 -31.45 2.35 -30.85 3.35 -30.65 4.0 -29.8 5.8 -29.65 7.05 -28.45 10.15 -27.5 12.15 -25.1 L12.95 -24.1 Q14.55 -21.8 14.25 -19.8 14.3 -8.25 7.85 -6.8 8.3 -5.5 4.85 -4.1 1.4 -2.7 -1.95 -5.2 -7.05 -3.8 -8.2 -5.9 -9.35 -8.0 -8.95 -8.6 L-11.2 -7.75 Q-13.95 -7.85 -16.2 -12.45" fill="#f2f7f8" fill-rule="evenodd" stroke="none"/>
      <path d="M-16.2 -12.45 Q-13.95 -7.85 -11.2 -7.75 L-8.95 -8.6 Q-9.35 -8.0 -8.2 -5.9 -7.05 -3.8 -1.95 -5.2 1.4 -2.7 4.85 -4.1 8.3 -5.5 7.85 -6.8 14.3 -8.25 14.25 -19.8 L14.4 -19.5 Q15.75 -16.6 15.05 -13.8 15.25 -13.25 14.85 -10.45 14.45 -7.7 11.3 -3.95 8.1 -0.2 0.85 0.15 L-2.95 0.15 Q-6.35 0.6 -7.05 -1.0 -8.55 -1.05 -9.05 -1.7 -12.1 -2.65 -13.9 -5.15 -14.95 -6.65 -14.8 -8.25 -16.15 -10.35 -16.2 -12.45" fill="#bbd1d7" fill-rule="evenodd" stroke="none"/>
      <path d="M2.6 -31.25 Q2.8 -31.0 2.6 -30.85 2.35 -30.7 2.2 -30.95 2.05 -31.25 2.25 -31.35 L2.6 -31.25 M3.95 -30.2 Q4.3 -30.4 4.4 -30.05 L4.3 -29.55 Q4.05 -29.35 3.8 -29.65 3.55 -29.95 3.95 -30.2 M9.15 -28.15 Q9.3 -27.8 8.95 -27.55 8.6 -27.35 8.4 -27.75 8.15 -28.1 8.55 -28.35 8.95 -28.55 9.15 -28.15 M6.85 -28.45 Q6.4 -28.15 6.15 -28.6 5.85 -29.0 6.3 -29.3 L7.0 -29.15 Q7.25 -28.75 6.85 -28.45 M10.1 -26.95 Q10.45 -27.2 10.8 -26.75 11.15 -26.35 10.7 -26.1 10.3 -25.8 10.05 -26.3 9.8 -26.75 10.1 -26.95 M12.15 -24.9 Q12.0 -24.75 11.85 -24.75 L11.65 -24.8 11.3 -25.1 Q10.9 -25.65 11.55 -26.05 12.25 -26.45 12.4 -25.8 12.6 -25.2 12.15 -24.9 M13.7 -22.85 Q13.5 -23.1 13.8 -23.3 L14.2 -23.2 Q14.4 -22.95 14.15 -22.75 13.85 -22.55 13.7 -22.85 M14.65 -20.15 Q14.2 -19.85 13.9 -20.35 13.6 -20.85 14.1 -21.15 14.65 -21.45 14.9 -20.95 15.1 -20.4 14.65 -20.15 M15.05 -18.9 Q15.4 -18.5 14.95 -18.25 14.55 -17.95 14.3 -18.45 14.05 -18.9 14.35 -19.1 14.7 -19.35 15.05 -18.9 M14.85 -14.1 L15.55 -13.95 Q15.8 -13.55 15.4 -13.25 14.95 -12.95 14.7 -13.4 14.4 -13.8 14.85 -14.1 M15.8 -16.45 Q15.9 -16.0 15.65 -15.8 15.35 -15.55 15.0 -15.95 14.7 -16.35 15.2 -16.65 15.65 -16.9 15.8 -16.45 M15.35 -12.45 Q15.5 -12.1 15.15 -11.85 14.8 -11.65 14.6 -12.05 14.35 -12.4 14.75 -12.65 15.15 -12.85 15.35 -12.45 M2.7 -0.1 Q2.9 0.25 2.55 0.45 2.2 0.65 2.0 0.3 1.8 -0.05 2.15 -0.25 2.55 -0.45 2.7 -0.1 M4.85 -0.75 L5.4 -0.65 Q5.6 -0.3 5.25 -0.1 4.95 0.15 4.75 -0.2 4.5 -0.55 4.85 -0.75 M6.7 -1.25 Q6.4 -1.65 6.9 -1.95 7.35 -2.2 7.5 -1.75 7.6 -1.3 7.35 -1.1 7.05 -0.85 6.7 -1.25 M8.95 -1.95 Q8.7 -2.35 9.05 -2.6 9.35 -2.8 9.65 -2.4 10.0 -2.0 9.6 -1.75 9.2 -1.5 8.95 -1.95 M14.45 -10.35 Q14.75 -10.55 15.05 -10.15 15.35 -9.8 15.0 -9.6 14.65 -9.35 14.4 -9.75 14.15 -10.15 14.45 -10.35 M14.05 -7.2 Q13.75 -6.95 13.4 -7.35 13.1 -7.75 13.6 -8.05 14.05 -8.3 14.2 -7.85 14.3 -7.4 14.05 -7.2 M10.6 -3.25 Q10.4 -3.6 10.75 -3.8 11.15 -4.0 11.3 -3.65 11.5 -3.3 11.15 -3.1 10.8 -2.9 10.6 -3.25 M12.15 -5.2 Q11.9 -5.6 12.3 -5.85 12.7 -6.1 12.95 -5.7 13.2 -5.35 12.8 -5.1 12.4 -4.8 12.15 -5.2 M0.0 0.75 Q-0.2 0.4 0.1 0.25 0.35 0.05 0.6 0.4 0.9 0.75 0.55 0.95 0.25 1.15 0.0 0.75 M-12.3 -25.0 Q-12.6 -24.75 -12.95 -25.15 -13.25 -25.55 -12.75 -25.85 -12.3 -26.1 -12.15 -25.65 -12.05 -25.2 -12.3 -25.0 M-10.65 -27.1 L-11.15 -27.2 Q-11.4 -27.55 -11.05 -27.75 L-10.5 -27.65 Q-10.3 -27.3 -10.65 -27.1 M-8.65 -28.45 Q-9.05 -28.2 -9.35 -28.65 -9.6 -29.1 -9.15 -29.35 -8.7 -29.6 -8.45 -29.15 -8.25 -28.7 -8.65 -28.45 M-6.7 -29.05 Q-7.1 -28.8 -7.35 -29.25 -7.6 -29.65 -7.25 -29.9 -6.95 -30.1 -6.65 -29.7 -6.3 -29.3 -6.7 -29.05 M-2.05 -29.85 Q-2.45 -29.55 -2.7 -29.95 -2.95 -30.35 -2.55 -30.6 -2.15 -30.85 -1.9 -30.45 -1.65 -30.1 -2.05 -29.85 M-0.85 -30.35 Q-1.15 -30.8 -0.65 -31.1 -0.15 -31.35 0.05 -30.85 0.3 -30.4 -0.15 -30.15 -0.6 -29.85 -0.85 -30.35 M-4.05 -29.45 Q-4.35 -29.2 -4.7 -29.6 -5.0 -30.0 -4.5 -30.3 -4.05 -30.55 -3.9 -30.1 -3.8 -29.65 -4.05 -29.45 M-14.75 -21.75 Q-14.95 -21.65 -15.1 -21.85 -15.25 -22.1 -15.0 -22.25 -14.75 -22.4 -14.65 -22.15 -14.55 -21.9 -14.75 -21.75 M-13.7 -23.3 Q-14.0 -23.1 -14.25 -23.5 -14.45 -23.85 -14.15 -24.0 -13.9 -24.2 -13.65 -23.85 -13.35 -23.5 -13.7 -23.3 M-15.15 -18.9 Q-15.55 -18.6 -15.8 -19.0 -16.05 -19.4 -15.65 -19.65 -15.25 -19.9 -15.0 -19.5 -14.75 -19.15 -15.15 -18.9 M-16.7 -17.2 Q-17.1 -17.65 -16.5 -18.05 -15.9 -18.4 -15.75 -17.85 -15.6 -17.3 -15.95 -17.0 -16.35 -16.7 -16.7 -17.2 M-17.05 -16.05 Q-17.35 -16.55 -16.95 -16.8 -16.6 -17.1 -16.2 -16.6 -15.8 -16.1 -16.3 -15.8 -16.75 -15.55 -17.05 -16.05 M-16.55 -13.2 Q-16.8 -13.55 -16.4 -13.8 -16.0 -14.0 -15.8 -13.6 -15.65 -13.25 -16.0 -13.0 -16.35 -12.8 -16.55 -13.2 M-14.25 -7.45 Q-13.85 -6.95 -14.35 -6.65 -14.85 -6.35 -15.2 -6.9 -15.5 -7.45 -15.1 -7.7 -14.7 -7.95 -14.25 -7.45 M-16.55 -11.3 Q-16.75 -11.55 -16.45 -11.75 L-16.05 -11.65 Q-15.85 -11.4 -16.1 -11.2 -16.4 -11.0 -16.55 -11.3 M-15.75 -9.15 Q-16.05 -9.55 -15.6 -9.8 -15.15 -10.05 -15.05 -9.65 -14.9 -9.25 -15.2 -9.0 -15.45 -8.8 -15.75 -9.15 M-11.9 -4.1 Q-11.65 -3.75 -12.05 -3.5 -12.45 -3.2 -12.7 -3.6 -12.95 -4.0 -12.55 -4.25 -12.15 -4.5 -11.9 -4.1 M-14.3 -4.55 Q-14.55 -5.0 -14.1 -5.25 -13.65 -5.5 -13.4 -5.05 -13.2 -4.6 -13.6 -4.35 -14.0 -4.1 -14.3 -4.55 M-10.75 -2.1 Q-10.95 -2.35 -10.65 -2.5 L-10.25 -2.4 -10.35 -2.0 -10.75 -2.1 M-8.55 -0.7 Q-8.75 -1.0 -8.5 -1.2 L-8.0 -1.05 Q-7.8 -0.75 -8.05 -0.55 -8.35 -0.35 -8.55 -0.7 M-6.1 -0.55 Q-5.95 -0.2 -6.25 0.0 L-6.75 -0.15 Q-6.95 -0.5 -6.6 -0.7 -6.25 -0.85 -6.1 -0.55 M-3.9 -0.15 Q-3.55 0.3 -4.05 0.7 -4.55 1.05 -4.9 0.5 -5.25 0.0 -4.75 -0.3 -4.2 -0.65 -3.9 -0.15 M-1.6 -0.05 Q-1.5 0.35 -1.75 0.55 -2.0 0.75 -2.25 0.4 -2.55 0.1 -2.15 -0.15 -1.7 -0.4 -1.6 -0.05" fill="#ffffff" fill-opacity="0.81960785" fill-rule="evenodd" stroke="none"/>
      <path d="M-28.25 -28.95 L-28.45 -30.1 -28.55 -31.55 Q-28.5 -32.2 -27.8 -32.75 -27.35 -36.35 -24.2 -38.6 -22.5 -39.85 -20.45 -39.8 -18.6 -40.8 -16.25 -40.45 L-14.8 -39.8 -13.25 -38.8 Q-11.25 -38.2 -9.95 -36.65 -9.75 -36.35 -9.6 -34.4 -9.45 -32.35 -9.7 -32.05 -9.75 -30.4 -10.3 -29.25 -11.35 -26.95 -14.45 -28.0 -15.55 -24.35 -17.8 -23.35 -20.1 -22.4 -21.9 -22.85 -23.75 -23.35 -25.25 -25.6 -26.0 -26.7 -26.15 -28.0 L-27.25 -28.3 -28.25 -28.95" fill="#f2f7f8" fill-rule="evenodd" stroke="none"/>
      <path d="M-9.95 -36.65 L-9.15 -35.15 Q-8.5 -33.75 -8.6 -33.15 -7.55 -31.1 -8.1 -29.15 -7.95 -28.8 -9.5 -27.5 -11.1 -26.2 -12.9 -23.2 -14.75 -20.25 -17.25 -20.0 L-19.7 -20.0 Q-21.9 -19.7 -22.35 -20.7 -23.35 -20.8 -23.65 -21.2 -25.65 -21.8 -26.8 -23.45 -27.5 -24.5 -27.35 -25.5 -28.4 -27.2 -28.25 -28.95 L-27.25 -28.3 -26.15 -28.0 Q-26.0 -26.7 -25.25 -25.6 -23.75 -23.35 -21.9 -22.85 -20.1 -22.4 -17.8 -23.35 -15.55 -24.35 -14.45 -28.0 -11.35 -26.95 -10.3 -29.25 -9.75 -30.4 -9.7 -32.05 -9.45 -32.35 -9.6 -34.4 -9.75 -36.35 -9.95 -36.65" fill="#bbd1d7" fill-rule="evenodd" stroke="none"/>
      <path d="M-16.1 -40.8 Q-15.75 -41.0 -15.55 -40.6 -15.35 -40.25 -15.65 -40.0 L-15.7 -39.95 -15.85 -39.8 Q-16.1 -39.6 -16.3 -39.95 L-16.3 -40.3 Q-16.45 -40.65 -16.1 -40.8 M-18.35 -40.4 Q-17.95 -39.95 -18.5 -39.65 -19.05 -39.35 -19.35 -39.9 -19.65 -40.45 -19.2 -40.65 -18.7 -40.85 -18.35 -40.4 M-20.05 -39.5 Q-20.5 -39.2 -20.65 -39.65 -20.85 -40.1 -20.4 -40.35 -20.0 -40.65 -19.8 -40.2 -19.6 -39.8 -20.05 -39.5 M-15.0 -39.3 Q-15.3 -39.6 -14.9 -39.85 L-14.2 -39.75 Q-13.9 -39.45 -14.3 -39.2 L-15.0 -39.3 M-12.6 -38.1 L-12.45 -38.6 -12.0 -38.5 Q-11.85 -38.2 -12.2 -38.0 -12.5 -37.8 -12.6 -38.1 M-11.05 -36.75 Q-11.35 -37.3 -10.9 -37.5 -10.4 -37.7 -10.05 -37.25 -9.65 -36.8 -10.2 -36.5 -10.75 -36.2 -11.05 -36.75 M-10.85 -26.6 Q-11.1 -27.0 -10.7 -27.2 -10.35 -27.4 -10.15 -27.0 -9.95 -26.65 -10.25 -26.4 -10.6 -26.2 -10.85 -26.6 M-11.3 -25.0 Q-10.95 -24.7 -11.4 -24.45 L-12.1 -24.55 Q-12.45 -24.9 -12.0 -25.1 L-11.3 -25.0 M-9.2 -34.75 Q-9.45 -35.15 -9.05 -35.35 -8.7 -35.55 -8.5 -35.15 -8.3 -34.8 -8.6 -34.55 -8.95 -34.35 -9.2 -34.75 M-8.8 -32.5 Q-9.15 -32.9 -8.65 -33.15 L-7.9 -33.05 Q-7.55 -32.7 -8.0 -32.4 L-8.8 -32.5 M-8.35 -28.0 Q-8.8 -27.8 -9.0 -28.2 -9.25 -28.6 -8.85 -28.75 -8.5 -28.95 -8.25 -28.6 -7.95 -28.25 -8.35 -28.0 M-7.75 -30.2 Q-8.05 -30.0 -8.15 -30.3 L-8.0 -30.8 Q-7.7 -31.0 -7.55 -30.7 -7.4 -30.4 -7.75 -30.2 M-22.9 -39.6 L-22.05 -39.5 Q-21.7 -39.15 -22.2 -38.85 -22.65 -38.55 -23.0 -38.95 -23.4 -39.35 -22.9 -39.6 M-24.4 -38.35 Q-24.7 -38.1 -24.9 -38.5 -25.15 -38.9 -24.8 -39.05 -24.45 -39.25 -24.25 -38.9 -24.05 -38.55 -24.4 -38.35 M-27.5 -34.7 Q-27.95 -34.4 -28.1 -34.85 -28.3 -35.3 -27.85 -35.55 -27.45 -35.85 -27.25 -35.4 -27.05 -35.0 -27.5 -34.7 M-27.15 -36.5 Q-27.4 -36.95 -27.0 -37.1 -26.6 -37.3 -26.3 -36.9 -26.0 -36.55 -26.45 -36.3 -26.9 -36.05 -27.15 -36.5 M-28.4 -32.5 L-27.7 -32.4 Q-27.4 -32.1 -27.8 -31.85 L-28.5 -31.95 Q-28.8 -32.25 -28.4 -32.5 M-28.15 -29.9 Q-28.5 -29.7 -28.75 -30.1 -29.0 -30.5 -28.6 -30.7 -28.25 -30.9 -28.05 -30.5 -27.85 -30.15 -28.15 -29.9 M-28.65 -28.6 Q-28.15 -28.8 -27.8 -28.35 -27.4 -27.9 -27.95 -27.6 -28.5 -27.3 -28.8 -27.85 -29.1 -28.4 -28.65 -28.6 M-27.9 -25.85 Q-27.5 -26.15 -27.3 -25.7 -27.1 -25.3 -27.55 -25.0 -28.0 -24.7 -28.15 -25.15 -28.35 -25.6 -27.9 -25.85 M-24.35 -21.85 Q-24.15 -21.45 -24.5 -21.2 -24.85 -20.95 -25.1 -21.35 -25.4 -21.8 -25.0 -22.05 -24.6 -22.25 -24.35 -21.85 M-23.05 -20.75 Q-22.75 -20.9 -22.55 -20.6 -22.3 -20.3 -22.65 -20.1 -23.0 -19.95 -23.2 -20.3 L-23.05 -20.75 M-21.1 -20.2 Q-21.3 -20.6 -20.9 -20.85 -20.5 -21.1 -20.35 -20.7 -20.15 -20.3 -20.55 -20.05 -20.95 -19.75 -21.1 -20.2 M-27.5 -23.15 Q-27.75 -23.4 -27.45 -23.55 L-26.9 -23.5 Q-26.7 -23.25 -27.0 -23.1 L-27.5 -23.15 M-13.75 -21.9 Q-13.4 -21.45 -13.95 -21.2 -14.45 -20.9 -14.7 -21.4 -15.0 -21.95 -14.55 -22.15 -14.1 -22.3 -13.75 -21.9 M-13.1 -22.8 Q-13.55 -22.5 -13.7 -22.95 -13.9 -23.4 -13.45 -23.65 -13.05 -23.95 -12.85 -23.5 -12.65 -23.1 -13.1 -22.8 M-15.8 -20.2 L-15.75 -20.5 -15.45 -20.4 Q-15.3 -20.2 -15.5 -20.1 -15.7 -19.95 -15.8 -20.2 M-18.25 -19.9 Q-18.55 -20.2 -18.15 -20.4 L-17.55 -20.35 Q-17.3 -20.05 -17.65 -19.85 L-18.25 -19.9" fill="#ffffff" fill-opacity="0.81960785" fill-rule="evenodd" stroke="none"/>
      <path d="M15.55 -15.0 L14.55 -14.15 15.55 -15.0 15.9 -15.15 Q17.2 -15.7 20.4 -13.8 16.8 -12.55 13.25 -12.2 6.1 -11.5 6.2 -16.05 9.15 -16.8 11.7 -15.35 12.95 -15.9 15.55 -15.0 M10.3 -14.35 L11.3 -15.2 11.7 -15.35 11.3 -15.2 10.3 -14.35" fill="#df6c1f" fill-rule="evenodd" stroke="none"/>
      <path d="M20.4 -13.8 Q11.3 -9.3 5.35 -11.4 3.8 -13.7 4.65 -14.8 5.45 -15.9 6.1 -16.05 L6.2 -16.05 Q6.1 -11.5 13.25 -12.2 16.8 -12.55 20.4 -13.8" fill="#c05b17" fill-rule="evenodd" stroke="none"/>
      <path d="M14.55 -14.15 L15.55 -15.0 Q12.95 -15.9 11.7 -15.35 L11.3 -15.2 10.3 -14.35 M15.55 -15.0 L15.9 -15.15 Q17.2 -15.7 20.4 -13.8 11.3 -9.3 5.35 -11.4 3.8 -13.7 4.65 -14.8 5.45 -15.9 6.1 -16.05 L6.2 -16.05 Q9.15 -16.8 11.7 -15.35" fill="none" stroke="#000000" stroke-linecap="round" stroke-linejoin="round" stroke-opacity="0.29803923" stroke-width="0.30000000000000004"/>
      <path d="M8.65 -20.4 L8.7 -21.05 9.2 -22.3 Q9.6 -23.05 10.6 -23.1 L12.05 -23.1 13.1 -21.6 13.1 -21.55 Q12.7 -18.7 11.25 -18.55 9.25 -19.2 8.65 -20.4 M12.1 -20.7 Q12.1 -21.25 11.9 -21.0 L11.55 -20.45 10.55 -19.85 10.6 -19.6 11.25 -19.5 Q11.55 -19.5 11.85 -20.0 L12.1 -20.7 M11.15 -22.4 Q11.15 -22.65 10.7 -22.65 L10.15 -22.4 9.95 -22.0 10.0 -21.8 Q10.1 -21.6 10.45 -21.6 11.15 -21.6 11.15 -22.4" fill="#23170b" fill-rule="evenodd" stroke="none"/>
      <path d="M11.15 -22.4 Q11.15 -21.6 10.45 -21.6 10.1 -21.6 10.0 -21.8 L9.95 -22.0 10.15 -22.4 10.7 -22.65 Q11.15 -22.65 11.15 -22.4 M12.1 -20.7 L11.85 -20.0 Q11.55 -19.5 11.25 -19.5 L10.6 -19.6 10.55 -19.85 11.55 -20.45 11.9 -21.0 Q12.1 -21.25 12.1 -20.7" fill="#ada49a" fill-rule="evenodd" stroke="none"/>
      <path d="M8.65 -20.4 Q9.25 -19.2 11.25 -18.55 12.7 -18.7 13.1 -21.55 L13.45 -20.45 Q12.2 -17.25 10.9 -18.0 8.75 -19.1 8.65 -20.4" fill="#bbd1d7" fill-rule="evenodd" stroke="none"/>
      <path d="M13.1 -21.55 L13.1 -21.6 12.05 -23.1 10.6 -23.1 Q9.6 -23.05 9.2 -22.3 L8.7 -21.05 8.65 -20.4 Q9.25 -19.2 11.25 -18.55 12.7 -18.7 13.1 -21.55 Z" fill="none" stroke="#000000" stroke-linecap="round" stroke-linejoin="round" stroke-opacity="0.3019608" stroke-width="0.30000000000000004"/>
      <path d="M0.3 -21.55 Q-0.1 -18.7 -1.55 -18.55 -3.55 -19.2 -4.15 -20.4 L-4.1 -21.05 -3.6 -22.3 Q-3.2 -23.05 -2.2 -23.1 L-0.75 -23.1 0.3 -21.6 0.3 -21.55 M-0.7 -20.7 Q-0.7 -21.25 -0.9 -21.0 L-1.25 -20.45 -2.25 -19.85 -2.2 -19.6 -1.55 -19.5 Q-1.25 -19.5 -0.95 -20.0 L-0.7 -20.7 M-1.65 -22.4 Q-1.65 -22.65 -2.1 -22.65 L-2.65 -22.4 -2.85 -22.0 -2.8 -21.8 -2.35 -21.6 Q-1.65 -21.6 -1.65 -22.4" fill="#23170b" fill-rule="evenodd" stroke="none"/>
      <path d="M0.3 -21.55 L0.65 -20.45 Q-0.6 -17.25 -1.9 -18.0 -4.05 -19.1 -4.15 -20.4 -3.55 -19.2 -1.55 -18.55 -0.1 -18.7 0.3 -21.55" fill="#bbd1d7" fill-rule="evenodd" stroke="none"/>
      <path d="M-1.65 -22.4 Q-1.65 -21.6 -2.35 -21.6 L-2.8 -21.8 -2.85 -22.0 -2.65 -22.4 -2.1 -22.65 Q-1.65 -22.65 -1.65 -22.4 M-0.7 -20.7 L-0.95 -20.0 Q-1.25 -19.5 -1.55 -19.5 L-2.2 -19.6 -2.25 -19.85 -1.25 -20.45 -0.9 -21.0 Q-0.7 -21.25 -0.7 -20.7" fill="#ada49a" fill-rule="evenodd" stroke="none"/>
      <path d="M0.3 -21.55 Q-0.1 -18.7 -1.55 -18.55 -3.55 -19.2 -4.15 -20.4 L-4.1 -21.05 -3.6 -22.3 Q-3.2 -23.05 -2.2 -23.1 L-0.75 -23.1 0.3 -21.6 0.3 -21.55 Z" fill="none" stroke="#000000" stroke-linecap="round" stroke-linejoin="round" stroke-opacity="0.3019608" stroke-width="0.30000000000000004"/>
    </g>
  </defs>
</svg>
