<?xml version="1.0" encoding="UTF-8" standalone="no"?>
<svg xmlns:xlink="http://www.w3.org/1999/xlink" height="46.25px" width="50.0px" xmlns="http://www.w3.org/2000/svg">
  <g transform="matrix(1.0, 0.0, 0.0, 1.0, 29.45, 45.55)">
    <use height="46.25" transform="matrix(1.0, 0.0, 0.0, 1.0, -29.45, -45.55)" width="50.0" xlink:href="#decoration201-shape0"/>
  </g>
  <defs>
    <g id="decoration201-shape0" transform="matrix(1.0, 0.0, 0.0, 1.0, 29.45, 45.55)">
      <path d="M6.75 -36.25 Q6.65 -35.85 6.7 -34.05 L7.0 -32.0 Q7.1 -30.6 7.4 -29.85 7.95 -28.4 8.8 -31.0 8.8 -29.95 9.05 -29.35 9.4 -27.95 10.35 -29.55 L12.65 -37.25 13.05 -38.1 13.3 -39.15 13.3 -35.7 13.2 -33.6 12.4 -30.0 11.95 -28.45 11.2 -26.75 10.35 -25.45 Q10.0 -24.95 8.3 -26.6 6.6 -28.25 6.65 -28.6 6.4 -30.1 6.5 -32.35 L6.6 -34.45 Q6.6 -35.75 6.75 -36.25" fill="#bbd1d7" fill-rule="evenodd" stroke="none"/>
      <path d="M6.75 -36.25 Q7.0 -38.3 7.65 -39.85 L8.65 -42.4 Q9.55 -44.5 9.9 -44.55 10.55 -45.6 11.15 -45.45 12.4 -45.2 12.85 -42.2 13.05 -42.2 13.3 -39.15 L13.05 -38.1 12.65 -37.25 10.35 -29.55 Q9.4 -27.95 9.05 -29.35 8.8 -29.95 8.8 -31.0 7.95 -28.4 7.4 -29.85 7.1 -30.6 7.0 -32.0 L6.7 -34.05 Q6.65 -35.85 6.75 -36.25" fill="#f2f7f8" fill-rule="evenodd" stroke="none"/>
      <path d="M12.35 -41.7 Q12.0 -42.15 12.4 -42.3 L13.05 -42.15 Q13.3 -41.75 12.95 -41.5 12.65 -41.25 12.35 -41.7 M12.35 -44.2 Q12.2 -44.45 12.4 -44.55 L12.8 -44.4 Q12.95 -44.2 12.75 -44.1 12.55 -44.0 12.35 -44.2 M12.95 -39.3 Q12.75 -39.65 13.1 -39.9 L13.6 -39.85 Q13.75 -39.6 13.45 -39.3 13.15 -39.0 12.95 -39.3 M12.65 -38.55 Q12.35 -38.95 12.8 -39.1 L13.45 -38.95 Q13.65 -38.6 13.3 -38.35 12.9 -38.1 12.65 -38.55 M13.0 -36.45 Q12.7 -36.85 13.05 -37.0 L13.65 -36.75 Q13.95 -36.4 13.6 -36.25 13.3 -36.1 13.0 -36.45 M13.35 -32.4 L13.2 -31.75 12.6 -31.8 Q12.4 -32.15 12.75 -32.45 L13.35 -32.4 M13.2 -34.15 Q12.85 -34.6 13.25 -34.75 13.6 -34.95 13.9 -34.6 14.15 -34.2 13.8 -33.95 13.5 -33.7 13.2 -34.15 M12.15 -29.75 Q11.85 -30.25 12.35 -30.45 12.85 -30.6 13.1 -30.2 13.35 -29.8 12.9 -29.55 12.5 -29.25 12.15 -29.75 M12.05 -27.5 Q11.75 -27.35 11.45 -27.7 11.2 -28.05 11.5 -28.2 L12.1 -28.0 Q12.35 -27.7 12.05 -27.5 M10.7 -44.6 Q10.3 -44.3 9.95 -44.8 9.65 -45.3 10.15 -45.5 10.65 -45.65 10.9 -45.25 11.15 -44.85 10.7 -44.6 M8.9 -41.15 Q9.1 -40.85 8.85 -40.65 8.6 -40.45 8.35 -40.8 8.1 -41.15 8.4 -41.25 L8.9 -41.15 M9.8 -43.3 Q9.5 -43.0 9.3 -43.3 9.1 -43.65 9.45 -43.9 L9.95 -43.85 Q10.1 -43.6 9.8 -43.3 M6.35 -37.55 L7.0 -37.4 Q7.2 -37.05 6.85 -36.8 6.45 -36.55 6.2 -37.0 5.9 -37.4 6.35 -37.55 M7.25 -35.0 L7.1 -34.45 Q6.8 -34.15 6.6 -34.45 6.4 -34.8 6.75 -35.05 L7.25 -35.0 M7.25 -38.55 Q6.95 -38.4 6.65 -38.75 6.35 -39.15 6.7 -39.3 L7.3 -39.05 Q7.6 -38.7 7.25 -38.55 M6.7 -32.5 Q6.35 -32.95 6.75 -33.1 7.1 -33.3 7.4 -32.95 7.65 -32.55 7.3 -32.3 7.0 -32.05 6.7 -32.5 M7.25 -29.6 Q6.8 -29.35 6.35 -29.9 5.9 -30.45 6.45 -30.65 6.95 -30.85 7.35 -30.35 7.75 -29.85 7.25 -29.6 M7.4 -28.1 Q7.65 -27.75 7.25 -27.45 6.85 -27.2 6.55 -27.7 6.25 -28.15 6.7 -28.3 7.2 -28.45 7.4 -28.1 M8.2 -26.05 Q8.0 -26.4 8.35 -26.7 L8.95 -26.65 Q9.1 -26.35 8.8 -26.0 L8.2 -26.05 M10.3 -25.0 Q9.85 -25.55 10.35 -25.8 10.85 -26.05 11.2 -25.55 11.55 -25.05 11.1 -24.75 10.7 -24.4 10.3 -25.0" fill="#ffffff" fill-opacity="0.81960785" fill-rule="evenodd" stroke="none"/>
      <path d="M-16.2 -12.45 Q-13.95 -7.85 -11.2 -7.75 L-8.95 -8.6 Q-9.35 -8.0 -8.2 -5.9 -7.05 -3.8 -1.95 -5.2 1.4 -2.7 4.85 -4.1 8.3 -5.5 7.85 -6.8 14.3 -8.25 14.25 -19.8 L14.4 -19.5 Q15.75 -16.6 15.05 -13.8 15.25 -13.25 14.85 -10.45 14.45 -7.7 11.3 -3.95 8.1 -0.2 0.85 0.15 L-2.95 0.15 Q-6.35 0.6 -7.05 -1.0 -8.55 -1.05 -9.05 -1.7 -12.1 -2.65 -13.9 -5.15 -14.95 -6.65 -14.8 -8.25 -16.15 -10.35 -16.2 -12.45" fill="#bbd1d7" fill-rule="evenodd" stroke="none"/>
      <path d="M-16.2 -12.45 L-16.2 -13.4 -16.05 -14.25 Q-16.85 -16.15 -16.65 -17.45 -16.6 -18.35 -15.45 -19.25 -14.8 -24.7 -9.95 -28.05 -7.3 -29.9 -4.15 -29.85 -1.25 -31.45 2.35 -30.85 3.35 -30.65 4.0 -29.8 5.8 -29.65 7.05 -28.45 10.15 -27.5 12.15 -25.1 L12.95 -24.1 Q14.55 -21.8 14.25 -19.8 14.3 -8.25 7.85 -6.8 8.3 -5.5 4.85 -4.1 1.4 -2.7 -1.95 -5.2 -7.05 -3.8 -8.2 -5.9 -9.35 -8.0 -8.95 -8.6 L-11.2 -7.75 Q-13.95 -7.85 -16.2 -12.45" fill="#f2f7f8" fill-rule="evenodd" stroke="none"/>
      <path d="M12.15 -24.9 Q11.7 -24.6 11.4 -25.05 11.1 -25.5 11.5 -25.85 11.95 -26.25 12.25 -25.7 12.6 -25.2 12.15 -24.9 M12.85 -23.55 Q12.45 -23.3 12.2 -23.7 11.95 -24.1 12.3 -24.4 12.65 -24.75 12.95 -24.25 13.25 -23.8 12.85 -23.55 M13.6 -21.95 Q13.4 -22.25 13.7 -22.4 13.95 -22.6 14.2 -22.25 14.45 -21.9 14.1 -21.8 13.8 -21.65 13.6 -21.95 M14.1 -20.15 Q14.45 -20.35 14.75 -19.95 15.0 -19.55 14.5 -19.35 14.0 -19.15 13.85 -19.55 13.75 -19.9 14.1 -20.15 M14.4 -17.55 Q14.15 -17.95 14.55 -18.25 14.95 -18.55 15.25 -18.05 15.55 -17.6 15.15 -17.4 14.7 -17.15 14.4 -17.55 M15.5 -15.15 Q15.1 -14.9 14.85 -15.3 14.6 -15.7 14.95 -16.0 15.3 -16.35 15.6 -15.85 15.9 -15.4 15.5 -15.15 M15.3 -13.3 Q14.9 -13.15 14.7 -13.45 14.45 -13.8 14.8 -14.05 15.1 -14.25 15.4 -13.85 15.7 -13.45 15.3 -13.3 M14.8 -10.75 Q14.65 -11.2 15.05 -11.45 15.4 -11.65 15.7 -11.25 16.0 -10.8 15.5 -10.6 14.95 -10.35 14.8 -10.75 M14.6 -8.1 Q14.3 -7.95 14.05 -8.25 13.85 -8.55 14.15 -8.8 14.5 -9.0 14.7 -8.65 14.95 -8.25 14.6 -8.1 M13.1 -7.25 Q13.35 -6.9 13.05 -6.7 12.75 -6.5 12.55 -6.8 12.35 -7.1 12.65 -7.35 12.9 -7.6 13.1 -7.25 M11.95 -4.1 Q11.55 -3.95 11.3 -4.3 11.05 -4.65 11.4 -4.9 11.75 -5.15 12.05 -4.7 12.4 -4.25 11.95 -4.1 M-0.95 -30.7 Q-1.15 -31.2 -0.65 -31.45 -0.2 -31.75 0.2 -31.25 0.55 -30.7 -0.1 -30.45 -0.75 -30.2 -0.95 -30.7 M-2.75 -30.4 Q-3.05 -30.85 -2.65 -31.15 -2.2 -31.45 -1.85 -30.9 -1.5 -30.35 -2.0 -30.2 -2.5 -30.0 -2.75 -30.4 M-4.25 -29.4 L-4.2 -29.75 -3.85 -29.7 Q-3.7 -29.45 -3.9 -29.3 -4.1 -29.15 -4.25 -29.4 M-6.95 -29.5 Q-7.25 -29.9 -6.8 -30.25 -6.35 -30.6 -6.0 -30.05 -5.65 -29.5 -6.15 -29.25 -6.65 -29.05 -6.95 -29.5 M3.85 -30.2 Q4.3 -30.6 4.6 -30.05 4.95 -29.55 4.5 -29.25 4.05 -28.95 3.75 -29.4 3.45 -29.85 3.85 -30.2 M1.9 -30.7 Q1.7 -31.0 2.0 -31.2 2.3 -31.4 2.5 -31.05 2.7 -30.75 2.4 -30.6 2.1 -30.45 1.9 -30.7 M6.6 -29.25 Q6.95 -28.7 6.45 -28.55 5.95 -28.35 5.7 -28.75 5.4 -29.2 5.8 -29.5 6.25 -29.8 6.6 -29.25 M10.6 -26.85 Q10.3 -26.7 10.05 -27.0 9.85 -27.3 10.15 -27.55 10.5 -27.75 10.7 -27.4 10.95 -27.0 10.6 -26.85 M8.85 -27.6 Q8.35 -27.4 8.2 -27.8 8.1 -28.15 8.45 -28.4 8.8 -28.6 9.1 -28.2 9.35 -27.8 8.85 -27.6 M-13.9 -24.35 Q-13.5 -24.7 -13.15 -24.2 -12.85 -23.65 -13.3 -23.45 -13.75 -23.25 -14.05 -23.65 -14.35 -24.05 -13.9 -24.35 M-9.2 -28.5 L-8.95 -29.1 Q-8.6 -29.3 -8.3 -28.9 -8.05 -28.5 -8.55 -28.3 -9.05 -28.1 -9.2 -28.5 M-11.0 -27.3 Q-11.3 -27.15 -11.5 -27.45 -11.7 -27.75 -11.4 -27.9 L-10.9 -27.75 Q-10.65 -27.4 -11.0 -27.3 M-12.35 -26.05 Q-12.05 -25.6 -12.45 -25.35 -12.85 -25.1 -13.1 -25.5 -13.35 -25.9 -13.0 -26.2 -12.65 -26.55 -12.35 -26.05 M-15.0 -21.6 L-14.85 -22.0 -14.45 -21.9 Q-14.3 -21.65 -14.6 -21.5 -14.9 -21.4 -15.0 -21.6 M-15.05 -19.7 Q-14.75 -19.3 -15.15 -19.15 -15.55 -19.0 -15.75 -19.3 -16.0 -19.65 -15.65 -19.9 -15.35 -20.1 -15.05 -19.7 M-16.6 -17.25 Q-17.15 -16.9 -17.5 -17.45 -17.85 -17.95 -17.35 -18.4 -16.85 -18.85 -16.45 -18.2 -16.05 -17.6 -16.6 -17.25 M-17.15 -15.4 Q-17.35 -15.7 -17.05 -15.95 -16.7 -16.15 -16.5 -15.8 -16.25 -15.4 -16.6 -15.25 L-17.15 -15.4 M-16.75 -13.55 L-16.5 -14.15 Q-16.15 -14.35 -15.85 -13.95 -15.6 -13.55 -16.1 -13.35 -16.6 -13.15 -16.75 -13.55 M-16.1 -12.1 Q-15.8 -12.3 -15.5 -11.9 -15.2 -11.5 -15.6 -11.35 -16.0 -11.2 -16.2 -11.5 -16.45 -11.85 -16.1 -12.1 M-15.2 -7.8 Q-14.8 -8.1 -14.5 -7.6 -14.2 -7.15 -14.6 -6.95 -15.05 -6.7 -15.35 -7.1 -15.6 -7.5 -15.2 -7.8 M-15.2 -8.6 Q-15.75 -8.25 -16.1 -8.8 -16.5 -9.4 -15.95 -9.85 -15.45 -10.3 -15.05 -9.65 -14.6 -8.95 -15.2 -8.6 M-14.15 -5.85 Q-13.8 -6.05 -13.5 -5.65 -13.25 -5.25 -13.75 -5.05 -14.25 -4.85 -14.4 -5.25 L-14.15 -5.85 M-9.1 -1.9 Q-8.7 -2.25 -8.35 -1.75 -8.05 -1.2 -8.5 -1.0 -8.95 -0.8 -9.25 -1.2 -9.55 -1.6 -9.1 -1.9 M-10.4 -1.9 Q-10.8 -1.65 -11.05 -2.05 -11.3 -2.45 -10.95 -2.75 -10.6 -3.1 -10.3 -2.6 -10.0 -2.15 -10.4 -1.9 M-12.45 -3.25 Q-12.7 -3.15 -12.8 -3.35 L-12.75 -3.7 Q-12.55 -3.8 -12.4 -3.55 -12.2 -3.3 -12.45 -3.25 M-6.6 -0.15 Q-7.15 0.1 -7.3 -0.3 -7.45 -0.75 -7.05 -1.0 -6.7 -1.2 -6.4 -0.8 -6.1 -0.35 -6.6 -0.15 M-4.6 0.55 L-5.1 0.4 Q-5.25 0.15 -5.0 -0.05 L-4.55 0.1 Q-4.3 0.4 -4.6 0.55 M-2.9 0.4 Q-3.05 0.15 -2.8 -0.05 -2.6 -0.25 -2.45 0.05 -2.25 0.3 -2.5 0.45 L-2.9 0.4 M-0.8 0.35 Q-1.0 0.1 -0.75 -0.1 L-0.3 0.0 Q-0.1 0.3 -0.35 0.45 L-0.8 0.35 M1.6 -0.55 Q2.15 -0.85 2.55 -0.25 2.95 0.3 2.25 0.6 1.5 0.9 1.3 0.35 1.1 -0.2 1.6 -0.55 M3.75 -0.1 Q3.5 -0.5 3.9 -0.75 4.3 -1.05 4.65 -0.55 4.95 -0.05 4.5 0.15 4.05 0.3 3.75 -0.1 M6.15 -1.1 Q6.55 -1.45 6.85 -0.95 7.15 -0.45 6.7 -0.15 6.3 0.1 6.05 -0.3 5.75 -0.75 6.15 -1.1 M10.2 -2.6 Q10.1 -2.95 10.45 -3.2 10.8 -3.4 11.1 -3.0 11.35 -2.6 10.85 -2.4 10.35 -2.2 10.2 -2.6 M8.1 -1.6 Q7.8 -2.0 8.25 -2.3 8.65 -2.65 9.0 -2.15 9.3 -1.6 8.85 -1.4 8.4 -1.2 8.1 -1.6" fill="#ffffff" fill-opacity="0.81960785" fill-rule="evenodd" stroke="none"/>
      <path d="M-28.25 -28.95 L-28.45 -30.1 -28.55 -31.55 Q-28.5 -32.2 -27.8 -32.75 -27.35 -36.35 -24.2 -38.6 -22.5 -39.85 -20.45 -39.8 -18.6 -40.8 -16.25 -40.45 L-14.8 -39.8 -13.25 -38.8 Q-11.25 -38.2 -9.95 -36.65 -9.75 -36.35 -9.6 -34.4 -9.45 -32.35 -9.7 -32.05 -9.75 -30.4 -10.3 -29.25 -11.35 -26.95 -14.45 -28.0 -15.55 -24.35 -17.8 -23.35 -20.1 -22.4 -21.9 -22.85 -23.75 -23.35 -25.25 -25.6 -26.0 -26.7 -26.15 -28.0 L-27.25 -28.3 -28.25 -28.95" fill="#f2f7f8" fill-rule="evenodd" stroke="none"/>
      <path d="M-9.95 -36.65 L-9.15 -35.15 Q-8.5 -33.75 -8.6 -33.15 -7.55 -31.1 -8.1 -29.15 -7.95 -28.8 -9.5 -27.5 -11.1 -26.2 -12.9 -23.2 -14.75 -20.25 -17.25 -20.0 L-19.7 -20.0 Q-21.9 -19.7 -22.35 -20.7 -23.35 -20.8 -23.65 -21.2 -25.65 -21.8 -26.8 -23.45 -27.5 -24.5 -27.35 -25.5 -28.4 -27.2 -28.25 -28.95 L-27.25 -28.3 -26.15 -28.0 Q-26.0 -26.7 -25.25 -25.6 -23.75 -23.35 -21.9 -22.85 -20.1 -22.4 -17.8 -23.35 -15.55 -24.35 -14.45 -28.0 -11.35 -26.95 -10.3 -29.25 -9.75 -30.4 -9.7 -32.05 -9.45 -32.35 -9.6 -34.4 -9.75 -36.35 -9.95 -36.65" fill="#bbd1d7" fill-rule="evenodd" stroke="none"/>
      <path d="M-8.45 -33.85 Q-8.8 -33.6 -9.1 -34.05 -9.4 -34.45 -9.05 -34.65 -8.65 -34.8 -8.35 -34.45 -8.05 -34.1 -8.45 -33.85 M-8.3 -31.3 Q-8.55 -31.65 -8.15 -31.85 -7.8 -32.1 -7.55 -31.7 -7.3 -31.3 -7.65 -31.15 -8.05 -30.95 -8.3 -31.3 M-8.2 -29.05 Q-8.55 -28.75 -8.85 -29.05 -9.1 -29.35 -8.65 -29.6 -8.2 -29.85 -8.05 -29.6 -7.9 -29.35 -8.2 -29.05 M-13.9 -39.05 L-13.55 -38.95 Q-13.4 -38.7 -13.6 -38.6 L-14.0 -38.7 Q-14.15 -38.9 -13.9 -39.05 M-15.4 -39.7 Q-15.75 -39.45 -16.05 -39.9 -16.35 -40.3 -16.0 -40.5 L-15.3 -40.3 Q-15.0 -39.95 -15.4 -39.7 M-18.25 -39.85 Q-18.5 -40.15 -18.15 -40.4 -17.8 -40.7 -17.55 -40.4 -17.3 -40.05 -17.65 -39.8 L-18.25 -39.85 M-11.75 -37.7 Q-12.05 -38.05 -11.55 -38.35 -11.05 -38.6 -10.9 -38.35 -10.75 -38.05 -11.1 -37.7 -11.45 -37.4 -11.75 -37.7 M-9.5 -35.65 Q-9.8 -36.0 -9.45 -36.3 L-8.8 -36.25 Q-8.5 -35.9 -8.9 -35.65 -9.25 -35.35 -9.5 -35.65 M-10.35 -36.3 Q-10.65 -36.65 -10.3 -36.95 L-9.65 -36.9 Q-9.35 -36.55 -9.75 -36.3 -10.1 -36.0 -10.35 -36.3 M-26.2 -35.35 Q-26.05 -35.1 -26.35 -34.8 -26.7 -34.5 -27.0 -34.8 -27.25 -35.1 -26.8 -35.35 -26.35 -35.6 -26.2 -35.35 M-26.25 -36.8 Q-26.55 -37.15 -26.15 -37.45 L-25.45 -37.4 Q-25.15 -37.05 -25.55 -36.75 L-26.25 -36.8 M-24.4 -38.55 Q-24.65 -38.95 -24.3 -39.1 L-23.7 -38.95 Q-23.4 -38.6 -23.75 -38.4 -24.1 -38.15 -24.4 -38.55 M-19.6 -39.5 Q-19.9 -39.25 -20.15 -39.5 -20.4 -39.8 -20.0 -40.05 -19.55 -40.3 -19.4 -40.05 -19.3 -39.8 -19.6 -39.5 M-22.2 -39.35 L-22.55 -39.4 Q-22.7 -39.6 -22.5 -39.7 L-22.15 -39.65 Q-22.0 -39.45 -22.2 -39.35 M-27.8 -32.9 Q-28.2 -32.7 -28.45 -33.1 -28.75 -33.45 -28.35 -33.7 -27.9 -33.95 -27.65 -33.55 -27.4 -33.1 -27.8 -32.9 M-28.55 -30.55 Q-29.0 -30.25 -29.3 -30.75 -29.65 -31.25 -29.2 -31.45 -28.8 -31.6 -28.45 -31.2 -28.1 -30.85 -28.55 -30.55 M-27.7 -29.05 Q-27.25 -28.5 -27.85 -28.05 L-28.85 -28.15 Q-29.3 -28.65 -28.75 -29.1 L-27.7 -29.05 M-27.8 -24.05 Q-28.1 -24.4 -27.7 -24.65 -27.25 -24.9 -27.0 -24.5 -26.75 -24.05 -27.15 -23.85 -27.55 -23.65 -27.8 -24.05 M-28.4 -25.95 Q-28.7 -26.3 -28.2 -26.6 -27.7 -26.85 -27.55 -26.6 -27.4 -26.3 -27.75 -25.95 -28.1 -25.65 -28.4 -25.95 M-10.0 -27.55 Q-10.3 -27.9 -9.9 -28.2 L-9.2 -28.15 Q-8.9 -27.8 -9.3 -27.5 L-10.0 -27.55 M-11.15 -26.3 Q-10.75 -26.45 -10.45 -26.1 -10.15 -25.75 -10.55 -25.5 -10.9 -25.25 -11.2 -25.7 -11.5 -26.1 -11.15 -26.3 M-12.35 -24.1 Q-12.55 -24.4 -12.2 -24.6 -11.9 -24.8 -11.7 -24.45 -11.5 -24.15 -11.8 -24.0 L-12.35 -24.1 M-13.05 -22.9 Q-12.9 -22.6 -13.25 -22.25 -13.6 -21.95 -13.9 -22.25 -14.2 -22.6 -13.7 -22.9 -13.2 -23.15 -13.05 -22.9 M-17.0 -19.2 Q-17.45 -18.9 -17.75 -19.4 -18.05 -19.85 -17.65 -20.0 -17.25 -20.15 -16.9 -19.8 -16.6 -19.45 -17.0 -19.2 M-14.85 -19.95 L-15.55 -20.0 Q-15.85 -20.35 -15.45 -20.65 L-14.75 -20.6 Q-14.45 -20.25 -14.85 -19.95 M-19.2 -19.85 L-19.6 -19.95 Q-19.75 -20.15 -19.5 -20.3 L-19.15 -20.2 Q-19.0 -19.95 -19.2 -19.85 M-23.3 -20.8 L-24.3 -20.9 Q-24.75 -21.4 -24.2 -21.85 L-23.15 -21.8 Q-22.7 -21.25 -23.3 -20.8 M-21.4 -19.85 Q-21.75 -19.55 -22.05 -19.85 -22.3 -20.15 -21.85 -20.4 -21.4 -20.65 -21.25 -20.4 -21.1 -20.15 -21.4 -19.85 M-26.1 -21.7 Q-26.5 -22.3 -26.0 -22.5 -25.45 -22.75 -25.05 -22.25 -24.65 -21.8 -25.15 -21.45 -25.7 -21.1 -26.1 -21.7" fill="#ffffff" fill-opacity="0.81960785" fill-rule="evenodd" stroke="none"/>
      <path d="M20.4 -13.8 Q11.3 -9.3 5.35 -11.4 3.8 -13.7 4.65 -14.8 5.45 -15.9 6.1 -16.05 L6.2 -16.05 Q6.1 -11.5 13.25 -12.2 16.8 -12.55 20.4 -13.8" fill="#c05b17" fill-rule="evenodd" stroke="none"/>
      <path d="M15.55 -15.0 L14.55 -14.15 15.55 -15.0 15.9 -15.15 Q17.2 -15.7 20.4 -13.8 16.8 -12.55 13.25 -12.2 6.1 -11.5 6.2 -16.05 9.15 -16.8 11.7 -15.35 12.95 -15.9 15.55 -15.0 M10.3 -14.35 L11.3 -15.2 11.7 -15.35 11.3 -15.2 10.3 -14.35" fill="#df6c1f" fill-rule="evenodd" stroke="none"/>
      <path d="M14.55 -14.15 L15.55 -15.0 Q12.95 -15.9 11.7 -15.35 L11.3 -15.2 10.3 -14.35 M15.55 -15.0 L15.9 -15.15 Q17.2 -15.7 20.4 -13.8 11.3 -9.3 5.35 -11.4 3.8 -13.7 4.65 -14.8 5.45 -15.9 6.1 -16.05 L6.2 -16.05 Q9.15 -16.8 11.7 -15.35" fill="none" stroke="#000000" stroke-linecap="round" stroke-linejoin="round" stroke-opacity="0.29803923" stroke-width="0.30000000000000004"/>
      <path d="M8.65 -20.4 Q9.25 -19.2 11.25 -18.55 12.7 -18.7 13.1 -21.55 L13.45 -20.45 Q12.2 -17.25 10.9 -18.0 8.75 -19.1 8.65 -20.4" fill="#bbd1d7" fill-rule="evenodd" stroke="none"/>
      <path d="M8.65 -20.4 L8.7 -21.05 9.2 -22.3 Q9.6 -23.05 10.6 -23.1 L12.05 -23.1 13.1 -21.6 13.1 -21.55 Q12.7 -18.7 11.25 -18.55 9.25 -19.2 8.65 -20.4 M9.95 -22.0 L10.0 -21.8 Q10.1 -21.6 10.45 -21.6 11.15 -21.6 11.15 -22.4 11.15 -22.65 10.7 -22.65 L10.15 -22.4 9.95 -22.0 M11.85 -20.0 L12.1 -20.7 Q12.1 -21.25 11.9 -21.0 L11.55 -20.45 10.55 -19.85 10.6 -19.6 11.25 -19.5 Q11.55 -19.5 11.85 -20.0" fill="#23170b" fill-rule="evenodd" stroke="none"/>
      <path d="M11.85 -20.0 Q11.55 -19.5 11.25 -19.5 L10.6 -19.6 10.55 -19.85 11.55 -20.45 11.9 -21.0 Q12.1 -21.25 12.1 -20.7 L11.85 -20.0 M9.95 -22.0 L10.15 -22.4 10.7 -22.65 Q11.15 -22.65 11.15 -22.4 11.15 -21.6 10.45 -21.6 10.1 -21.6 10.0 -21.8 L9.95 -22.0" fill="#ada49a" fill-rule="evenodd" stroke="none"/>
      <path d="M13.1 -21.55 L13.1 -21.6 12.05 -23.1 10.6 -23.1 Q9.6 -23.05 9.2 -22.3 L8.7 -21.05 8.65 -20.4 Q9.25 -19.2 11.25 -18.55 12.7 -18.7 13.1 -21.55 Z" fill="none" stroke="#000000" stroke-linecap="round" stroke-linejoin="round" stroke-opacity="0.3019608" stroke-width="0.30000000000000004"/>
      <path d="M-4.15 -20.4 L-4.1 -21.05 -3.6 -22.3 Q-3.2 -23.05 -2.2 -23.1 L-0.75 -23.1 0.3 -21.6 0.3 -21.55 Q-0.1 -18.7 -1.55 -18.55 -3.55 -19.2 -4.15 -20.4 M-2.65 -22.4 L-2.85 -22.0 -2.8 -21.8 -2.35 -21.6 Q-1.65 -21.6 -1.65 -22.4 -1.65 -22.65 -2.1 -22.65 L-2.65 -22.4 M-0.7 -20.7 Q-0.7 -21.25 -0.9 -21.0 L-1.25 -20.45 -2.25 -19.85 -2.2 -19.6 -1.55 -19.5 Q-1.25 -19.5 -0.95 -20.0 L-0.7 -20.7" fill="#23170b" fill-rule="evenodd" stroke="none"/>
      <path d="M-0.7 -20.7 L-0.95 -20.0 Q-1.25 -19.5 -1.55 -19.5 L-2.2 -19.6 -2.25 -19.85 -1.25 -20.45 -0.9 -21.0 Q-0.7 -21.25 -0.7 -20.7 M-2.65 -22.4 L-2.1 -22.65 Q-1.65 -22.65 -1.65 -22.4 -1.65 -21.6 -2.35 -21.6 L-2.8 -21.8 -2.85 -22.0 -2.65 -22.4" fill="#ada49a" fill-rule="evenodd" stroke="none"/>
      <path d="M-4.15 -20.4 Q-3.55 -19.2 -1.55 -18.55 -0.1 -18.7 0.3 -21.55 L0.65 -20.45 Q-0.6 -17.25 -1.9 -18.0 -4.05 -19.1 -4.15 -20.4" fill="#bbd1d7" fill-rule="evenodd" stroke="none"/>
      <path d="M0.3 -21.55 L0.3 -21.6 -0.75 -23.1 -2.2 -23.1 Q-3.2 -23.05 -3.6 -22.3 L-4.1 -21.05 -4.15 -20.4 Q-3.55 -19.2 -1.55 -18.55 -0.1 -18.7 0.3 -21.55 Z" fill="none" stroke="#000000" stroke-linecap="round" stroke-linejoin="round" stroke-opacity="0.3019608" stroke-width="0.30000000000000004"/>
    </g>
  </defs>
</svg>
