<?xml version="1.0" encoding="UTF-8" standalone="no"?>
<svg xmlns:xlink="http://www.w3.org/1999/xlink" height="46.95px" width="49.8px" xmlns="http://www.w3.org/2000/svg">
  <g transform="matrix(1.0, 0.0, 0.0, 1.0, 29.25, 45.95)">
    <use height="46.95" transform="matrix(1.0, 0.0, 0.0, 1.0, -29.25, -45.95)" width="49.8" xlink:href="#decoration201-shape0"/>
  </g>
  <defs>
    <g id="decoration201-shape0" transform="matrix(1.0, 0.0, 0.0, 1.0, 29.25, 45.95)">
      <path d="M6.75 -36.25 Q7.0 -38.3 7.65 -39.85 L8.65 -42.4 Q9.55 -44.5 9.9 -44.55 10.55 -45.6 11.15 -45.45 12.4 -45.2 12.85 -42.2 13.05 -42.2 13.3 -39.15 L13.05 -38.1 12.65 -37.25 10.35 -29.55 Q9.4 -27.95 9.05 -29.35 8.8 -29.95 8.8 -31.0 7.95 -28.4 7.4 -29.85 7.1 -30.6 7.0 -32.0 L6.7 -34.05 Q6.65 -35.85 6.75 -36.25" fill="#f2f7f8" fill-rule="evenodd" stroke="none"/>
      <path d="M6.75 -36.25 Q6.65 -35.85 6.7 -34.05 L7.0 -32.0 Q7.1 -30.6 7.4 -29.85 7.95 -28.4 8.8 -31.0 8.8 -29.95 9.05 -29.35 9.4 -27.95 10.35 -29.55 L12.65 -37.25 13.05 -38.1 13.3 -39.15 13.3 -35.7 13.2 -33.6 12.4 -30.0 11.95 -28.45 11.2 -26.75 10.35 -25.45 Q10.0 -24.95 8.3 -26.6 6.6 -28.25 6.65 -28.6 6.4 -30.1 6.5 -32.35 L6.6 -34.45 Q6.6 -35.75 6.75 -36.25" fill="#bbd1d7" fill-rule="evenodd" stroke="none"/>
      <path d="M11.5 -44.45 Q11.3 -44.75 11.7 -45.1 12.1 -45.4 12.35 -44.95 12.65 -44.5 12.2 -44.3 11.7 -44.1 11.5 -44.45 M11.2 -44.9 Q10.7 -44.6 10.35 -45.15 10.05 -45.65 10.45 -45.9 10.9 -46.1 11.25 -45.65 11.65 -45.2 11.2 -44.9 M13.1 -41.75 Q12.8 -41.5 12.55 -41.9 12.3 -42.3 12.75 -42.4 L13.3 -42.25 Q13.45 -41.95 13.1 -41.75 M13.85 -39.45 L14.05 -39.3 Q14.4 -38.9 14.0 -38.65 13.55 -38.45 13.3 -38.9 L13.2 -39.15 Q13.0 -39.25 12.95 -39.45 12.75 -39.85 13.15 -40.1 13.55 -40.4 13.8 -39.9 L13.85 -39.45 M9.95 -43.8 Q10.15 -43.45 9.8 -43.3 9.45 -43.15 9.35 -43.45 9.2 -43.8 9.5 -44.0 9.75 -44.15 9.95 -43.8 M7.6 -38.25 Q7.1 -38.0 6.9 -38.35 6.65 -38.7 7.1 -39.05 7.5 -39.4 7.8 -38.9 8.1 -38.45 7.6 -38.25 M8.25 -40.75 Q7.85 -40.5 7.6 -40.95 7.35 -41.35 7.8 -41.5 8.25 -41.65 8.45 -41.3 8.6 -41.0 8.25 -40.75 M6.75 -36.55 Q6.5 -36.95 6.8 -37.1 7.1 -37.3 7.4 -36.95 7.7 -36.6 7.35 -36.4 7.0 -36.2 6.75 -36.55 M7.2 -34.3 Q6.85 -34.15 6.75 -34.45 6.65 -34.7 6.9 -34.9 L7.3 -34.75 Q7.5 -34.45 7.2 -34.3 M6.7 -32.25 Q6.3 -32.0 6.05 -32.45 5.8 -32.85 6.25 -33.0 6.7 -33.15 6.9 -32.8 7.05 -32.5 6.7 -32.25 M5.9 -30.15 Q5.75 -30.35 6.0 -30.55 L6.4 -30.45 Q6.6 -30.2 6.3 -30.1 L5.9 -30.15 M7.25 -28.1 Q7.55 -27.75 7.15 -27.5 6.75 -27.3 6.5 -27.7 6.25 -28.1 6.6 -28.3 6.9 -28.5 7.25 -28.1 M8.1 -26.1 Q7.9 -26.5 8.25 -26.75 8.6 -27.0 8.85 -26.55 9.1 -26.1 8.65 -25.9 8.25 -25.7 8.1 -26.1 M10.1 -25.85 Q10.55 -26.0 10.75 -25.65 10.9 -25.35 10.55 -25.1 10.15 -24.85 9.9 -25.3 9.65 -25.7 10.1 -25.85 M13.75 -34.35 Q13.9 -34.05 13.55 -33.8 13.15 -33.55 12.9 -34.0 12.65 -34.4 13.1 -34.55 13.55 -34.7 13.75 -34.35 M12.75 -36.35 Q12.5 -36.8 13.0 -37.15 13.45 -37.55 13.8 -37.0 14.15 -36.45 13.6 -36.2 13.0 -35.95 12.75 -36.35 M12.6 -33.0 Q13.05 -33.35 13.35 -32.75 13.65 -32.2 13.1 -31.95 12.55 -31.65 12.35 -32.2 12.15 -32.7 12.6 -33.0 M12.05 -30.4 Q12.35 -30.6 12.7 -30.2 13.0 -29.85 12.6 -29.6 12.2 -29.4 11.95 -29.8 11.7 -30.2 12.05 -30.4 M11.8 -27.85 Q12.1 -27.4 11.65 -27.2 11.15 -27.0 10.95 -27.35 10.75 -27.65 11.15 -28.0 11.55 -28.3 11.8 -27.85" fill="#ffffff" fill-opacity="0.81960785" fill-rule="evenodd" stroke="none"/>
      <path d="M-16.2 -12.45 L-16.2 -13.4 -16.05 -14.25 Q-16.85 -16.15 -16.65 -17.45 -16.6 -18.35 -15.45 -19.25 -14.8 -24.7 -9.95 -28.05 -7.3 -29.9 -4.15 -29.85 -1.25 -31.45 2.35 -30.85 3.35 -30.65 4.0 -29.8 5.8 -29.65 7.05 -28.45 10.15 -27.5 12.15 -25.1 L12.95 -24.1 Q14.55 -21.8 14.25 -19.8 14.3 -8.25 7.85 -6.8 8.3 -5.5 4.85 -4.1 1.4 -2.7 -1.95 -5.2 -7.05 -3.8 -8.2 -5.9 -9.35 -8.0 -8.95 -8.6 L-11.2 -7.75 Q-13.95 -7.85 -16.2 -12.45" fill="#f2f7f8" fill-rule="evenodd" stroke="none"/>
      <path d="M-16.2 -12.45 Q-13.95 -7.85 -11.2 -7.75 L-8.95 -8.6 Q-9.35 -8.0 -8.2 -5.9 -7.05 -3.8 -1.95 -5.2 1.4 -2.7 4.85 -4.1 8.3 -5.5 7.85 -6.8 14.3 -8.25 14.25 -19.8 L14.4 -19.5 Q15.75 -16.6 15.05 -13.8 15.25 -13.25 14.85 -10.45 14.45 -7.7 11.3 -3.95 8.1 -0.2 0.85 0.15 L-2.95 0.15 Q-6.35 0.6 -7.05 -1.0 -8.55 -1.05 -9.05 -1.7 -12.1 -2.65 -13.9 -5.15 -14.95 -6.65 -14.8 -8.25 -16.15 -10.35 -16.2 -12.45" fill="#bbd1d7" fill-rule="evenodd" stroke="none"/>
      <path d="M2.6 -31.25 Q2.8 -31.0 2.6 -30.85 2.35 -30.7 2.2 -30.95 2.05 -31.25 2.25 -31.35 L2.6 -31.25 M3.95 -30.2 Q4.3 -30.4 4.4 -30.05 L4.3 -29.55 Q4.05 -29.35 3.8 -29.65 3.55 -29.95 3.95 -30.2 M9.15 -28.15 Q9.3 -27.8 8.95 -27.55 8.6 -27.35 8.4 -27.75 8.15 -28.1 8.55 -28.35 8.95 -28.55 9.15 -28.15 M6.85 -28.45 Q6.4 -28.15 6.15 -28.6 5.85 -29.0 6.3 -29.3 L7.0 -29.15 Q7.25 -28.75 6.85 -28.45 M10.1 -26.95 Q10.45 -27.2 10.8 -26.75 11.15 -26.35 10.7 -26.1 10.3 -25.8 10.05 -26.3 9.8 -26.75 10.1 -26.95 M12.15 -24.9 Q12.0 -24.75 11.85 -24.75 L11.65 -24.8 11.3 -25.1 Q10.9 -25.65 11.55 -26.05 12.25 -26.45 12.4 -25.8 12.6 -25.2 12.15 -24.9 M13.7 -22.85 Q13.5 -23.1 13.8 -23.3 L14.2 -23.2 Q14.4 -22.95 14.15 -22.75 13.85 -22.55 13.7 -22.85 M14.65 -20.15 Q14.2 -19.85 13.9 -20.35 13.6 -20.85 14.1 -21.15 14.65 -21.45 14.9 -20.95 15.1 -20.4 14.65 -20.15 M15.05 -18.9 Q15.4 -18.5 14.95 -18.25 14.55 -17.95 14.3 -18.45 14.05 -18.9 14.35 -19.1 14.7 -19.35 15.05 -18.9 M14.85 -14.1 L15.55 -13.95 Q15.8 -13.55 15.4 -13.25 14.95 -12.95 14.7 -13.4 14.4 -13.8 14.85 -14.1 M15.8 -16.45 Q15.9 -16.0 15.65 -15.8 15.35 -15.55 15.0 -15.95 14.7 -16.35 15.2 -16.65 15.65 -16.9 15.8 -16.45 M15.35 -12.45 Q15.5 -12.1 15.15 -11.85 14.8 -11.65 14.6 -12.05 14.35 -12.4 14.75 -12.65 15.15 -12.85 15.35 -12.45 M2.7 -0.1 Q2.9 0.25 2.55 0.45 2.2 0.65 2.0 0.3 1.8 -0.05 2.15 -0.25 2.55 -0.45 2.7 -0.1 M4.85 -0.75 L5.4 -0.65 Q5.6 -0.3 5.25 -0.1 4.95 0.15 4.75 -0.2 4.5 -0.55 4.85 -0.75 M6.7 -1.25 Q6.4 -1.65 6.9 -1.95 7.35 -2.2 7.5 -1.75 7.6 -1.3 7.35 -1.1 7.05 -0.85 6.7 -1.25 M8.95 -1.95 Q8.7 -2.35 9.05 -2.6 9.35 -2.8 9.65 -2.4 10.0 -2.0 9.6 -1.75 9.2 -1.5 8.95 -1.95 M14.45 -10.35 Q14.75 -10.55 15.05 -10.15 15.35 -9.8 15.0 -9.6 14.65 -9.35 14.4 -9.75 14.15 -10.15 14.45 -10.35 M14.05 -7.2 Q13.75 -6.95 13.4 -7.35 13.1 -7.75 13.6 -8.05 14.05 -8.3 14.2 -7.85 14.3 -7.4 14.05 -7.2 M10.6 -3.25 Q10.4 -3.6 10.75 -3.8 11.15 -4.0 11.3 -3.65 11.5 -3.3 11.15 -3.1 10.8 -2.9 10.6 -3.25 M12.15 -5.2 Q11.9 -5.6 12.3 -5.85 12.7 -6.1 12.95 -5.7 13.2 -5.35 12.8 -5.1 12.4 -4.8 12.15 -5.2 M0.0 0.75 Q-0.2 0.4 0.1 0.25 0.35 0.05 0.6 0.4 0.9 0.75 0.55 0.95 0.25 1.15 0.0 0.75 M-12.3 -25.0 Q-12.6 -24.75 -12.95 -25.15 -13.25 -25.55 -12.75 -25.85 -12.3 -26.1 -12.15 -25.65 -12.05 -25.2 -12.3 -25.0 M-10.65 -27.1 L-11.15 -27.2 Q-11.4 -27.55 -11.05 -27.75 L-10.5 -27.65 Q-10.3 -27.3 -10.65 -27.1 M-8.65 -28.45 Q-9.05 -28.2 -9.35 -28.65 -9.6 -29.1 -9.15 -29.35 -8.7 -29.6 -8.45 -29.15 -8.25 -28.7 -8.65 -28.45 M-6.7 -29.05 Q-7.1 -28.8 -7.35 -29.25 -7.6 -29.65 -7.25 -29.9 -6.95 -30.1 -6.65 -29.7 -6.3 -29.3 -6.7 -29.05 M-2.05 -29.85 Q-2.45 -29.55 -2.7 -29.95 -2.95 -30.35 -2.55 -30.6 -2.15 -30.85 -1.9 -30.45 -1.65 -30.1 -2.05 -29.85 M-0.85 -30.35 Q-1.15 -30.8 -0.65 -31.1 -0.15 -31.35 0.05 -30.85 0.3 -30.4 -0.15 -30.15 -0.6 -29.85 -0.85 -30.35 M-4.05 -29.45 Q-4.35 -29.2 -4.7 -29.6 -5.0 -30.0 -4.5 -30.3 -4.05 -30.55 -3.9 -30.1 -3.8 -29.65 -4.05 -29.45 M-14.75 -21.75 Q-14.95 -21.65 -15.1 -21.85 -15.25 -22.1 -15.0 -22.25 -14.75 -22.4 -14.65 -22.15 -14.55 -21.9 -14.75 -21.75 M-13.7 -23.3 Q-14.0 -23.1 -14.25 -23.5 -14.45 -23.85 -14.15 -24.0 -13.9 -24.2 -13.65 -23.85 -13.35 -23.5 -13.7 -23.3 M-15.15 -18.9 Q-15.55 -18.6 -15.8 -19.0 -16.05 -19.4 -15.65 -19.65 -15.25 -19.9 -15.0 -19.5 -14.75 -19.15 -15.15 -18.9 M-16.7 -17.2 Q-17.1 -17.65 -16.5 -18.05 -15.9 -18.4 -15.75 -17.85 -15.6 -17.3 -15.95 -17.0 -16.35 -16.7 -16.7 -17.2 M-17.05 -16.05 Q-17.35 -16.55 -16.95 -16.8 -16.6 -17.1 -16.2 -16.6 -15.8 -16.1 -16.3 -15.8 -16.75 -15.55 -17.05 -16.05 M-16.55 -13.2 Q-16.8 -13.55 -16.4 -13.8 -16.0 -14.0 -15.8 -13.6 -15.65 -13.25 -16.0 -13.0 -16.35 -12.8 -16.55 -13.2 M-14.25 -7.45 Q-13.85 -6.95 -14.35 -6.65 -14.85 -6.35 -15.2 -6.9 -15.5 -7.45 -15.1 -7.7 -14.7 -7.95 -14.25 -7.45 M-16.55 -11.3 Q-16.75 -11.55 -16.45 -11.75 L-16.05 -11.65 Q-15.85 -11.4 -16.1 -11.2 -16.4 -11.0 -16.55 -11.3 M-15.75 -9.15 Q-16.05 -9.55 -15.6 -9.8 -15.15 -10.05 -15.05 -9.65 -14.9 -9.25 -15.2 -9.0 -15.45 -8.8 -15.75 -9.15 M-11.9 -4.1 Q-11.65 -3.75 -12.05 -3.5 -12.45 -3.2 -12.7 -3.6 -12.95 -4.0 -12.55 -4.25 -12.15 -4.5 -11.9 -4.1 M-14.3 -4.55 Q-14.55 -5.0 -14.1 -5.25 -13.65 -5.5 -13.4 -5.05 -13.2 -4.6 -13.6 -4.35 -14.0 -4.1 -14.3 -4.55 M-10.75 -2.1 Q-10.95 -2.35 -10.65 -2.5 L-10.25 -2.4 -10.35 -2.0 -10.75 -2.1 M-8.55 -0.7 Q-8.75 -1.0 -8.5 -1.2 L-8.0 -1.05 Q-7.8 -0.75 -8.05 -0.55 -8.35 -0.35 -8.55 -0.7 M-6.1 -0.55 Q-5.95 -0.2 -6.25 0.0 L-6.75 -0.15 Q-6.95 -0.5 -6.6 -0.7 -6.25 -0.85 -6.1 -0.55 M-3.9 -0.15 Q-3.55 0.3 -4.05 0.7 -4.55 1.05 -4.9 0.5 -5.25 0.0 -4.75 -0.3 -4.2 -0.65 -3.9 -0.15 M-1.6 -0.05 Q-1.5 0.35 -1.75 0.55 -2.0 0.75 -2.25 0.4 -2.55 0.1 -2.15 -0.15 -1.7 -0.4 -1.6 -0.05" fill="#ffffff" fill-opacity="0.81960785" fill-rule="evenodd" stroke="none"/>
      <path d="M-28.25 -28.95 L-28.45 -30.1 -28.55 -31.55 Q-28.5 -32.2 -27.8 -32.75 -27.35 -36.35 -24.2 -38.6 -22.5 -39.85 -20.45 -39.8 -18.6 -40.8 -16.25 -40.45 L-14.8 -39.8 -13.25 -38.8 Q-11.25 -38.2 -9.95 -36.65 -9.75 -36.35 -9.6 -34.4 -9.45 -32.35 -9.7 -32.05 -9.75 -30.4 -10.3 -29.25 -11.35 -26.95 -14.45 -28.0 -15.55 -24.35 -17.8 -23.35 -20.1 -22.4 -21.9 -22.85 -23.75 -23.35 -25.25 -25.6 -26.0 -26.7 -26.15 -28.0 L-27.25 -28.3 -28.25 -28.95" fill="#f2f7f8" fill-rule="evenodd" stroke="none"/>
      <path d="M-9.95 -36.65 L-9.15 -35.15 Q-8.5 -33.75 -8.6 -33.15 -7.55 -31.1 -8.1 -29.15 -7.95 -28.8 -9.5 -27.5 -11.1 -26.2 -12.9 -23.2 -14.75 -20.25 -17.25 -20.0 L-19.7 -20.0 Q-21.9 -19.7 -22.35 -20.7 -23.35 -20.8 -23.65 -21.2 -25.65 -21.8 -26.8 -23.45 -27.5 -24.5 -27.35 -25.5 -28.4 -27.2 -28.25 -28.95 L-27.25 -28.3 -26.15 -28.0 Q-26.0 -26.7 -25.25 -25.6 -23.75 -23.35 -21.9 -22.85 -20.1 -22.4 -17.8 -23.35 -15.55 -24.35 -14.45 -28.0 -11.35 -26.95 -10.3 -29.25 -9.75 -30.4 -9.7 -32.05 -9.45 -32.35 -9.6 -34.4 -9.75 -36.35 -9.95 -36.65" fill="#bbd1d7" fill-rule="evenodd" stroke="none"/>
      <path d="M-16.65 -40.4 L-16.6 -40.75 -16.25 -40.7 Q-16.05 -40.5 -16.3 -40.35 L-16.65 -40.4 M-18.75 -40.55 Q-18.6 -40.2 -18.95 -39.9 -19.3 -39.55 -19.6 -40.0 -19.85 -40.45 -19.4 -40.7 -18.95 -40.9 -18.75 -40.55 M-15.35 -39.85 Q-14.9 -40.15 -14.55 -39.7 L-14.2 -39.6 Q-14.05 -39.35 -14.25 -39.25 L-14.25 -39.2 Q-14.25 -38.95 -14.6 -38.8 -15.15 -38.5 -15.5 -39.0 -15.9 -39.5 -15.35 -39.85 M-12.15 -38.2 L-12.7 -38.25 Q-12.95 -38.5 -12.65 -38.7 L-12.1 -38.65 Q-11.85 -38.4 -12.15 -38.2 M-11.3 -25.25 Q-11.55 -25.55 -11.2 -25.8 -10.85 -26.0 -10.6 -25.65 -10.35 -25.25 -10.7 -25.1 -11.05 -24.95 -11.3 -25.25 M-8.75 -35.1 Q-9.15 -34.85 -9.35 -35.25 -9.6 -35.6 -9.25 -35.8 L-8.6 -35.7 Q-8.35 -35.35 -8.75 -35.1 M-7.7 -30.95 Q-7.4 -30.7 -7.75 -30.45 L-8.3 -30.5 Q-8.6 -30.8 -8.25 -31.05 L-7.7 -30.95 M-8.2 -32.3 Q-8.75 -32.0 -9.1 -32.5 -9.5 -33.0 -8.95 -33.35 -8.45 -33.7 -8.05 -33.1 -7.65 -32.55 -8.2 -32.3 M-8.55 -28.3 Q-8.8 -28.75 -8.35 -29.0 -7.9 -29.2 -7.7 -28.85 -7.55 -28.5 -7.9 -28.2 -8.25 -27.85 -8.55 -28.3 M-9.2 -28.0 Q-8.9 -27.65 -9.3 -27.35 -9.75 -27.1 -10.0 -27.5 -10.25 -27.9 -9.9 -28.15 -9.5 -28.35 -9.2 -28.0 M-10.4 -36.8 Q-10.6 -37.1 -10.3 -37.25 -9.95 -37.4 -9.85 -37.15 -9.7 -36.9 -10.0 -36.7 -10.25 -36.5 -10.4 -36.8 M-24.75 -37.8 Q-24.5 -37.5 -24.85 -37.3 -25.15 -37.1 -25.35 -37.4 -25.55 -37.7 -25.25 -37.9 L-24.75 -37.8 M-23.25 -39.5 Q-22.9 -39.7 -22.65 -39.35 -22.4 -38.95 -22.75 -38.8 -23.1 -38.65 -23.35 -38.95 -23.6 -39.25 -23.25 -39.5 M-21.2 -39.45 L-21.75 -39.5 Q-22.0 -39.75 -21.7 -39.95 L-21.15 -39.9 Q-20.9 -39.65 -21.2 -39.45 M-26.75 -35.8 Q-27.0 -36.25 -26.55 -36.5 -26.1 -36.7 -25.9 -36.35 -25.75 -36.0 -26.1 -35.7 -26.45 -35.35 -26.75 -35.8 M-28.3 -31.5 Q-27.95 -31.05 -28.4 -30.9 -28.8 -30.7 -29.1 -31.05 -29.4 -31.4 -29.0 -31.7 -28.6 -31.95 -28.3 -31.5 M-28.1 -33.8 L-27.45 -33.75 Q-27.15 -33.4 -27.5 -33.15 L-28.15 -33.25 Q-28.45 -33.55 -28.1 -33.8 M-28.2 -29.55 L-28.55 -29.6 -28.5 -29.95 -28.15 -29.9 Q-27.95 -29.7 -28.2 -29.55 M-28.0 -27.65 Q-27.45 -27.95 -27.25 -27.5 -27.05 -27.05 -27.5 -26.7 -27.95 -26.3 -28.25 -26.85 -28.6 -27.4 -28.0 -27.65 M-26.75 -25.2 Q-26.45 -24.85 -26.8 -24.6 -27.15 -24.35 -27.45 -24.7 -27.75 -25.0 -27.4 -25.25 L-26.75 -25.2 M-24.45 -20.8 L-25.05 -20.9 Q-25.25 -21.25 -24.95 -21.45 L-24.35 -21.3 Q-24.1 -21.0 -24.45 -20.8 M-22.85 -20.7 Q-22.4 -20.9 -22.2 -20.55 -22.05 -20.2 -22.4 -19.9 -22.75 -19.55 -23.05 -20.0 -23.3 -20.45 -22.85 -20.7 M-20.8 -19.7 Q-21.05 -19.95 -20.75 -20.15 L-20.3 -20.1 Q-20.05 -19.85 -20.35 -19.65 L-20.8 -19.7 M-26.2 -23.0 Q-26.45 -23.3 -26.1 -23.55 -25.75 -23.75 -25.5 -23.4 -25.25 -23.0 -25.6 -22.85 -25.95 -22.7 -26.2 -23.0 M-12.15 -23.9 L-12.7 -23.95 Q-13.0 -24.25 -12.65 -24.5 L-12.1 -24.4 Q-11.8 -24.15 -12.15 -23.9 M-13.55 -21.95 Q-13.9 -21.6 -14.2 -22.05 -14.45 -22.5 -14.0 -22.75 -13.55 -22.95 -13.35 -22.6 -13.2 -22.25 -13.55 -21.95 M-15.15 -20.05 Q-15.6 -19.8 -15.85 -20.2 -16.1 -20.6 -15.75 -20.85 -15.35 -21.05 -15.05 -20.7 -14.75 -20.35 -15.15 -20.05 M-18.1 -20.0 Q-18.4 -20.35 -18.0 -20.6 -17.65 -20.85 -17.35 -20.45 -17.1 -20.05 -17.45 -19.85 L-18.1 -20.0" fill="#ffffff" fill-opacity="0.81960785" fill-rule="evenodd" stroke="none"/>
      <path d="M15.55 -15.0 L14.55 -14.15 15.55 -15.0 15.9 -15.15 Q17.2 -15.7 20.4 -13.8 16.8 -12.55 13.25 -12.2 6.1 -11.5 6.2 -16.05 9.15 -16.8 11.7 -15.35 12.95 -15.9 15.55 -15.0 M10.3 -14.35 L11.3 -15.2 11.7 -15.35 11.3 -15.2 10.3 -14.35" fill="#df6c1f" fill-rule="evenodd" stroke="none"/>
      <path d="M20.4 -13.8 Q11.3 -9.3 5.35 -11.4 3.8 -13.7 4.65 -14.8 5.45 -15.9 6.1 -16.05 L6.2 -16.05 Q6.1 -11.5 13.25 -12.2 16.8 -12.55 20.4 -13.8" fill="#c05b17" fill-rule="evenodd" stroke="none"/>
      <path d="M14.55 -14.15 L15.55 -15.0 Q12.95 -15.9 11.7 -15.35 L11.3 -15.2 10.3 -14.35 M15.55 -15.0 L15.9 -15.15 Q17.2 -15.7 20.4 -13.8 11.3 -9.3 5.35 -11.4 3.8 -13.7 4.65 -14.8 5.45 -15.9 6.1 -16.05 L6.2 -16.05 Q9.15 -16.8 11.7 -15.35" fill="none" stroke="#000000" stroke-linecap="round" stroke-linejoin="round" stroke-opacity="0.29803923" stroke-width="0.30000000000000004"/>
      <path d="M8.65 -20.4 L8.7 -21.05 9.2 -22.3 Q9.6 -23.05 10.6 -23.1 L12.05 -23.1 13.1 -21.6 13.1 -21.55 Q12.7 -18.7 11.25 -18.55 9.25 -19.2 8.65 -20.4 M11.55 -20.45 L10.55 -19.85 10.6 -19.6 11.25 -19.5 Q11.55 -19.5 11.85 -20.0 L12.1 -20.7 Q12.1 -21.25 11.9 -21.0 L11.55 -20.45 M10.7 -22.65 L10.15 -22.4 9.95 -22.0 10.0 -21.8 Q10.1 -21.6 10.45 -21.6 11.15 -21.6 11.15 -22.4 11.15 -22.65 10.7 -22.65" fill="#23170b" fill-rule="evenodd" stroke="none"/>
      <path d="M10.7 -22.65 Q11.15 -22.65 11.15 -22.4 11.15 -21.6 10.45 -21.6 10.1 -21.6 10.0 -21.8 L9.95 -22.0 10.15 -22.4 10.7 -22.65 M11.55 -20.45 L11.9 -21.0 Q12.1 -21.25 12.1 -20.7 L11.85 -20.0 Q11.55 -19.5 11.25 -19.5 L10.6 -19.6 10.55 -19.85 11.55 -20.45" fill="#ada49a" fill-rule="evenodd" stroke="none"/>
      <path d="M8.65 -20.4 Q9.25 -19.2 11.25 -18.55 12.7 -18.7 13.1 -21.55 L13.45 -20.45 Q12.2 -17.25 10.9 -18.0 8.75 -19.1 8.65 -20.4" fill="#bbd1d7" fill-rule="evenodd" stroke="none"/>
      <path d="M13.1 -21.55 L13.1 -21.6 12.05 -23.1 10.6 -23.1 Q9.6 -23.05 9.2 -22.3 L8.7 -21.05 8.65 -20.4 Q9.25 -19.2 11.25 -18.55 12.7 -18.7 13.1 -21.55 Z" fill="none" stroke="#000000" stroke-linecap="round" stroke-linejoin="round" stroke-opacity="0.3019608" stroke-width="0.30000000000000004"/>
      <path d="M0.3 -21.55 Q-0.1 -18.7 -1.55 -18.55 -3.55 -19.2 -4.15 -20.4 L-4.1 -21.05 -3.6 -22.3 Q-3.2 -23.05 -2.2 -23.1 L-0.75 -23.1 0.3 -21.6 0.3 -21.55 M-2.25 -19.85 L-2.2 -19.6 -1.55 -19.5 Q-1.25 -19.5 -0.95 -20.0 L-0.7 -20.7 Q-0.7 -21.25 -0.9 -21.0 L-1.25 -20.45 -2.25 -19.85 M-1.65 -22.4 Q-1.65 -22.65 -2.1 -22.65 L-2.65 -22.4 -2.85 -22.0 -2.8 -21.8 -2.35 -21.6 Q-1.65 -21.6 -1.65 -22.4" fill="#23170b" fill-rule="evenodd" stroke="none"/>
      <path d="M0.3 -21.55 L0.65 -20.45 Q-0.6 -17.25 -1.9 -18.0 -4.05 -19.1 -4.15 -20.4 -3.55 -19.2 -1.55 -18.55 -0.1 -18.7 0.3 -21.55" fill="#bbd1d7" fill-rule="evenodd" stroke="none"/>
      <path d="M-1.65 -22.4 Q-1.65 -21.6 -2.35 -21.6 L-2.8 -21.8 -2.85 -22.0 -2.65 -22.4 -2.1 -22.65 Q-1.65 -22.65 -1.65 -22.4 M-2.25 -19.85 L-1.25 -20.45 -0.9 -21.0 Q-0.7 -21.25 -0.7 -20.7 L-0.95 -20.0 Q-1.25 -19.5 -1.55 -19.5 L-2.2 -19.6 -2.25 -19.85" fill="#ada49a" fill-rule="evenodd" stroke="none"/>
      <path d="M0.3 -21.55 Q-0.1 -18.7 -1.55 -18.55 -3.55 -19.2 -4.15 -20.4 L-4.1 -21.05 -3.6 -22.3 Q-3.2 -23.05 -2.2 -23.1 L-0.75 -23.1 0.3 -21.6 0.3 -21.55 Z" fill="none" stroke="#000000" stroke-linecap="round" stroke-linejoin="round" stroke-opacity="0.3019608" stroke-width="0.30000000000000004"/>
    </g>
  </defs>
</svg>
