<?xml version="1.0" encoding="UTF-8" standalone="no"?>
<svg xmlns:xlink="http://www.w3.org/1999/xlink" height="55.1px" width="49.4px" xmlns="http://www.w3.org/2000/svg">
  <g transform="matrix(1.0, 0.0, 0.0, 1.0, 27.8, 53.95)">
    <use data-characterId="140" height="55.1" transform="matrix(1.0, 0.0, 0.0, 1.0, -27.8, -53.95)" width="49.4" xlink:href="#decoration202-shape0"/>
  </g>
  <defs>
    <g id="decoration202-shape0" transform="matrix(1.0, 0.0, 0.0, 1.0, 27.8, 53.95)">
      <path d="M14.35 -39.25 L14.1 -38.2 13.7 -37.35 11.4 -29.65 Q10.45 -28.05 10.1 -29.45 9.85 -30.05 9.85 -31.1 9.0 -28.5 8.45 -29.95 8.15 -30.7 8.05 -32.1 L7.75 -34.15 Q7.7 -35.95 7.8 -36.35 8.05 -38.4 8.7 -39.95 L9.7 -42.5 Q10.6 -44.6 10.95 -44.65 11.6 -45.7 12.2 -45.55 13.45 -45.3 13.9 -42.3 14.1 -42.3 14.35 -39.25" fill="#f2f7f8" fill-rule="evenodd" stroke="none"/>
      <path d="M7.8 -36.35 Q7.7 -35.95 7.75 -34.15 L8.05 -32.1 Q8.15 -30.7 8.45 -29.95 9.0 -28.5 9.85 -31.1 9.85 -30.05 10.1 -29.45 10.45 -28.05 11.4 -29.65 L13.7 -37.35 14.1 -38.2 14.35 -39.25 14.35 -35.8 14.25 -33.7 13.45 -30.1 13.0 -28.55 12.25 -26.85 11.4 -25.55 Q11.05 -25.05 9.35 -26.7 7.65 -28.35 7.7 -28.7 7.45 -30.2 7.55 -32.45 L7.65 -34.55 Q7.65 -35.85 7.8 -36.35" fill="#bbd1d7" fill-rule="evenodd" stroke="none"/>
      <path d="M11.05 -45.25 Q10.75 -45.55 11.1 -45.75 11.4 -45.9 11.65 -45.55 11.85 -45.2 11.6 -45.05 11.3 -44.9 11.05 -45.25 M11.85 -45.3 Q11.7 -45.65 11.95 -45.9 12.2 -46.15 12.5 -45.7 12.8 -45.3 12.4 -45.1 11.95 -44.95 11.85 -45.3 M13.75 -43.7 Q13.95 -43.4 13.6 -43.25 13.25 -43.1 13.15 -43.4 13.05 -43.65 13.3 -43.85 L13.75 -43.7 M14.4 -40.85 L14.05 -40.9 Q13.95 -41.15 14.2 -41.35 L14.55 -41.25 Q14.7 -41.0 14.4 -40.85 M14.8 -39.2 Q14.4 -38.95 14.0 -39.45 13.6 -39.95 14.05 -40.2 14.55 -40.45 14.9 -39.95 15.25 -39.45 14.8 -39.2 M14.2 -37.25 Q14.5 -36.85 14.1 -36.7 13.75 -36.55 13.6 -36.85 13.5 -37.2 13.7 -37.4 13.95 -37.65 14.2 -37.25 M10.4 -43.15 Q9.95 -42.9 9.85 -43.3 9.7 -43.65 10.05 -43.9 10.35 -44.15 10.55 -43.8 10.8 -43.4 10.4 -43.15 M8.55 -41.75 Q8.45 -42.1 8.75 -42.3 9.1 -42.55 9.35 -42.15 9.6 -41.75 9.15 -41.55 8.7 -41.4 8.55 -41.75 M7.55 -37.7 Q7.9 -37.9 8.15 -37.5 8.4 -37.15 8.1 -37.0 7.8 -36.8 7.5 -37.15 7.2 -37.55 7.55 -37.7 M8.05 -39.2 Q7.95 -39.55 8.15 -39.75 8.4 -40.0 8.65 -39.6 8.95 -39.2 8.55 -39.05 8.2 -38.9 8.05 -39.2 M7.35 -35.0 Q7.2 -35.35 7.55 -35.6 7.85 -35.85 8.05 -35.5 8.3 -35.1 7.9 -34.85 7.45 -34.6 7.35 -35.0 M7.3 -32.65 Q7.2 -33.0 7.5 -33.2 7.8 -33.4 8.0 -33.05 8.25 -32.65 7.85 -32.5 7.4 -32.35 7.3 -32.65 M8.45 -28.2 Q8.7 -27.85 8.4 -27.7 8.1 -27.5 7.8 -27.85 7.5 -28.25 7.85 -28.4 8.2 -28.6 8.45 -28.2 M6.7 -30.05 Q6.5 -30.55 6.85 -30.9 7.2 -31.25 7.6 -30.65 8.0 -30.05 7.45 -29.8 6.9 -29.55 6.7 -30.05 M9.05 -26.3 Q8.9 -26.65 9.25 -26.9 9.55 -27.15 9.75 -26.8 10.0 -26.4 9.6 -26.15 9.15 -25.9 9.05 -26.3 M14.7 -34.6 Q14.95 -34.2 14.5 -34.0 14.05 -33.85 13.9 -34.2 13.8 -34.55 14.1 -34.75 L14.7 -34.6 M13.1 -32.1 Q12.95 -32.55 13.35 -32.8 13.75 -33.1 14.0 -32.65 14.25 -32.25 13.75 -31.95 13.3 -31.65 13.1 -32.1 M13.5 -29.55 Q13.05 -29.3 12.6 -29.85 12.2 -30.35 12.7 -30.6 13.2 -30.9 13.55 -30.35 13.95 -29.8 13.5 -29.55 M12.55 -28.45 Q12.8 -28.7 13.1 -28.25 13.4 -27.85 13.0 -27.65 12.55 -27.5 12.45 -27.85 12.3 -28.2 12.55 -28.45 M11.35 -25.4 Q11.25 -25.75 11.55 -25.95 11.85 -26.15 12.05 -25.8 12.3 -25.4 11.9 -25.25 11.45 -25.1 11.35 -25.4" fill="#ffffff" fill-opacity="0.81960785" fill-rule="evenodd" stroke="none"/>
      <path d="M-15.15 -12.55 L-15.15 -13.5 -15.0 -14.35 Q-15.8 -16.25 -15.6 -17.55 -15.55 -18.45 -14.4 -19.35 -13.75 -24.8 -8.9 -28.15 -6.25 -30.0 -3.1 -29.95 -0.2 -31.55 3.4 -30.95 4.4 -30.75 5.05 -29.9 6.85 -29.75 8.1 -28.55 11.2 -27.6 13.2 -25.2 L14.0 -24.2 Q15.6 -21.9 15.3 -19.9 15.35 -8.35 8.9 -6.9 9.35 -5.6 5.9 -4.2 2.45 -2.8 -0.9 -5.3 -6.0 -3.9 -7.15 -6.0 -8.3 -8.1 -7.9 -8.7 L-10.15 -7.85 Q-12.9 -7.95 -15.15 -12.55" fill="#f2f7f8" fill-rule="evenodd" stroke="none"/>
      <path d="M-15.15 -12.55 Q-12.9 -7.95 -10.15 -7.85 L-7.9 -8.7 Q-8.3 -8.1 -7.15 -6.0 -6.0 -3.9 -0.9 -5.3 2.45 -2.8 5.9 -4.2 9.35 -5.6 8.9 -6.9 15.35 -8.35 15.3 -19.9 L15.45 -19.6 Q16.8 -16.7 16.1 -13.9 16.3 -13.35 15.9 -10.55 15.5 -7.8 12.35 -4.05 9.15 -0.3 1.9 0.05 L-1.9 0.05 Q-5.3 0.5 -6.0 -1.1 -7.5 -1.15 -8.0 -1.8 -11.05 -2.75 -12.85 -5.25 -13.9 -6.75 -13.75 -8.35 -15.1 -10.45 -15.15 -12.55" fill="#bbd1d7" fill-rule="evenodd" stroke="none"/>
      <path d="M1.6 -31.2 Q1.9 -30.8 1.4 -30.7 0.85 -30.55 0.7 -30.85 0.5 -31.15 0.9 -31.4 1.3 -31.6 1.6 -31.2 M3.85 -31.2 Q4.15 -30.85 3.7 -30.6 3.3 -30.4 3.0 -30.7 2.65 -31.05 3.1 -31.3 L3.85 -31.2 M7.6 -28.55 Q7.2 -28.35 7.05 -28.75 6.9 -29.1 7.2 -29.35 7.5 -29.6 7.7 -29.2 7.95 -28.75 7.6 -28.55 M9.3 -28.35 L9.9 -28.2 Q10.1 -27.85 9.7 -27.75 9.25 -27.65 9.1 -27.9 8.95 -28.15 9.3 -28.35 M5.55 -29.45 Q5.15 -29.25 5.0 -29.7 4.8 -30.15 5.15 -30.4 5.45 -30.65 5.7 -30.2 5.9 -29.7 5.55 -29.45 M12.15 -25.35 Q12.0 -25.8 12.3 -26.0 12.6 -26.2 12.8 -25.8 13.0 -25.4 12.65 -25.15 12.3 -24.95 12.15 -25.35 M11.15 -26.15 Q10.85 -26.45 11.3 -26.7 L11.95 -26.6 Q12.25 -26.25 11.85 -26.05 L11.15 -26.15 M13.9 -25.45 Q14.1 -25.05 13.75 -24.8 13.4 -24.6 13.25 -25.0 13.1 -25.45 13.4 -25.65 13.7 -25.85 13.9 -25.45 M16.2 -19.3 Q16.55 -18.85 16.05 -18.6 L15.2 -18.7 Q14.85 -19.1 15.35 -19.4 L16.2 -19.3 M15.2 -20.55 Q14.9 -20.45 14.75 -20.65 14.65 -20.85 14.9 -20.95 L15.35 -20.85 Q15.5 -20.65 15.2 -20.55 M14.5 -23.4 Q14.85 -23.75 15.15 -23.2 15.4 -22.7 15.0 -22.5 14.55 -22.25 14.35 -22.7 14.15 -23.1 14.5 -23.4 M15.85 -13.7 Q15.6 -14.15 16.0 -14.5 16.35 -14.85 16.65 -14.3 16.95 -13.75 16.5 -13.5 16.05 -13.25 15.85 -13.7 M15.85 -16.25 Q15.65 -16.9 16.1 -17.25 16.55 -17.55 16.85 -16.95 17.15 -16.3 16.6 -15.95 16.1 -15.6 15.85 -16.25 M1.75 -0.4 Q2.05 -0.05 1.6 0.2 L0.9 0.1 Q0.55 -0.25 1.0 -0.5 L1.75 -0.4 M6.5 -0.3 Q6.8 0.25 6.35 0.5 5.9 0.75 5.7 0.3 5.45 -0.15 5.85 -0.5 6.2 -0.85 6.5 -0.3 M8.25 -0.7 Q8.1 -1.15 8.45 -1.45 8.8 -1.7 9.0 -1.2 9.25 -0.7 8.85 -0.45 8.45 -0.2 8.25 -0.7 M9.95 -2.55 L10.7 -2.45 Q11.0 -2.1 10.55 -1.85 L9.85 -1.95 Q9.5 -2.3 9.95 -2.55 M16.3 -11.5 Q15.75 -11.35 15.55 -11.7 15.35 -12.05 15.8 -12.25 16.2 -12.5 16.55 -12.05 16.85 -11.65 16.3 -11.5 M16.1 -8.95 L15.4 -9.05 Q15.05 -9.4 15.5 -9.65 L16.25 -9.55 Q16.55 -9.2 16.1 -8.95 M14.4 -7.3 Q14.2 -7.75 14.55 -8.0 14.85 -8.25 15.1 -7.8 15.3 -7.3 14.95 -7.05 14.55 -6.85 14.4 -7.3 M14.2 -5.05 Q13.8 -4.85 13.65 -5.25 13.5 -5.6 13.8 -5.85 14.1 -6.1 14.3 -5.7 14.55 -5.25 14.2 -5.05 M11.7 -4.05 Q12.3 -4.35 12.7 -3.8 13.15 -3.25 12.4 -3.05 11.65 -2.85 11.4 -3.3 11.1 -3.75 11.7 -4.05 M3.25 0.5 Q3.05 0.2 3.45 -0.05 3.85 -0.25 4.15 0.15 4.45 0.55 3.95 0.65 L3.25 0.5 M-11.25 -25.4 Q-11.65 -25.2 -11.8 -25.65 -12.0 -26.1 -11.65 -26.35 -11.35 -26.6 -11.1 -26.15 -10.9 -25.65 -11.25 -25.4 M-10.15 -28.1 Q-9.85 -28.35 -9.65 -27.95 -9.4 -27.5 -9.75 -27.3 -10.15 -27.1 -10.3 -27.5 L-10.15 -28.1 M-1.15 -31.1 Q-0.8 -30.45 -1.35 -30.15 -1.9 -29.9 -2.15 -30.4 -2.4 -30.95 -1.95 -31.35 -1.5 -31.75 -1.15 -31.1 M-7.1 -28.55 L-7.55 -28.65 -7.4 -28.95 -6.95 -28.85 Q-6.8 -28.65 -7.1 -28.55 M-5.55 -30.05 L-4.9 -30.0 Q-4.65 -29.65 -5.05 -29.45 L-5.65 -29.55 Q-5.9 -29.85 -5.55 -30.05 M-3.6 -29.75 Q-3.8 -30.2 -3.45 -30.45 -3.15 -30.7 -2.9 -30.25 -2.7 -29.75 -3.05 -29.5 -3.45 -29.3 -3.6 -29.75 M-13.3 -23.45 Q-13.5 -23.7 -13.25 -23.85 L-12.75 -23.8 Q-12.6 -23.55 -12.85 -23.4 L-13.3 -23.45 M-14.6 -19.4 Q-14.9 -19.2 -15.05 -19.55 -15.2 -19.85 -14.95 -20.1 -14.7 -20.35 -14.45 -19.95 -14.25 -19.55 -14.6 -19.4 M-13.85 -20.85 Q-14.5 -20.65 -14.7 -21.05 -14.95 -21.45 -14.45 -21.7 -13.95 -21.95 -13.6 -21.5 -13.25 -21.0 -13.85 -20.85 M-15.75 -17.65 L-15.6 -18.3 Q-15.3 -18.5 -15.1 -18.1 -14.9 -17.7 -15.25 -17.45 -15.6 -17.25 -15.75 -17.65 M-15.3 -14.55 Q-14.8 -14.8 -14.45 -14.35 -14.1 -13.85 -14.7 -13.7 -15.35 -13.5 -15.55 -13.9 -15.8 -14.3 -15.3 -14.55 M-15.7 -16.45 L-14.95 -16.35 Q-14.65 -16.0 -15.1 -15.75 L-15.8 -15.85 Q-16.15 -16.2 -15.7 -16.45 M-15.0 -11.6 Q-15.25 -12.05 -14.85 -12.4 -14.5 -12.75 -14.2 -12.2 -13.9 -11.65 -14.35 -11.4 -14.8 -11.15 -15.0 -11.6 M-14.9 -10.2 Q-14.6 -10.45 -14.35 -10.0 -14.15 -9.5 -14.5 -9.25 -14.9 -9.05 -15.05 -9.5 -15.25 -9.95 -14.9 -10.2 M-13.1 -6.4 L-13.8 -6.5 Q-14.15 -6.85 -13.7 -7.1 L-12.95 -7.0 Q-12.65 -6.65 -13.1 -6.4 M-11.05 -3.45 Q-11.45 -3.25 -11.6 -3.65 -11.8 -4.05 -11.5 -4.35 -11.15 -4.6 -10.9 -4.15 -10.65 -3.65 -11.05 -3.45 M-12.6 -4.7 Q-13.15 -4.55 -13.3 -4.85 -13.5 -5.15 -13.1 -5.4 -12.7 -5.6 -12.4 -5.2 -12.1 -4.8 -12.6 -4.7 M-9.4 -2.45 Q-9.1 -1.85 -9.6 -1.55 -10.1 -1.2 -10.3 -1.85 -10.5 -2.45 -10.1 -2.75 -9.7 -3.05 -9.4 -2.45 M-7.15 -1.25 L-7.85 -1.35 Q-8.2 -1.7 -7.75 -1.95 L-7.0 -1.85 Q-6.7 -1.5 -7.15 -1.25 M-0.75 -0.1 Q-1.0 0.05 -1.1 -0.2 L-1.0 -0.65 Q-0.8 -0.8 -0.65 -0.5 -0.5 -0.25 -0.75 -0.1 M-6.0 0.5 Q-6.25 0.05 -5.7 -0.25 -5.15 -0.55 -4.75 0.0 -4.35 0.55 -5.05 0.75 -5.75 0.9 -6.0 0.5 M-3.7 0.85 Q-3.95 0.4 -3.55 0.05 -3.2 -0.3 -2.9 0.25 -2.6 0.8 -3.05 1.05 -3.5 1.3 -3.7 0.85" fill="#ffffff" fill-opacity="0.81960785" fill-rule="evenodd" stroke="none"/>
      <path d="M-5.75 -50.05 L-5.4 -50.25 Q-4.75 -50.95 -3.9 -50.6 L-3.3 -49.2 -3.4 -49.15 -4.25 -49.15 Q-4.95 -49.25 -5.75 -50.05" fill="#4d3821" fill-rule="evenodd" stroke="none"/>
      <path d="M-12.45 -51.45 L-12.1 -51.35 Q-10.5 -48.55 -8.2 -45.7 L-7.55 -44.85 -7.85 -43.55 Q-8.0 -44.55 -8.6 -45.55 L-8.9 -45.95 -10.25 -47.85 -12.45 -51.45 M-3.3 -49.2 L-3.25 -49.15 Q-5.0 -46.4 -5.9 -42.2 -5.45 -38.15 -4.6 -34.0 L-2.55 -27.8 -5.3 -28.2 -6.6 -33.8 Q-4.4 -30.6 -6.0 -35.75 -7.25 -39.8 -7.2 -41.2 L-7.05 -41.8 -4.25 -49.15 -3.4 -49.15 -3.3 -49.2 M-7.8 -38.75 L-7.85 -38.7 Q-11.3 -40.15 -14.4 -40.8 L-14.65 -41.05 -10.55 -40.1 -8.35 -39.35 -7.95 -39.2 -7.85 -39.2 -7.8 -38.75 M-7.2 -41.2 L-4.6 -34.0 -7.2 -41.2 M-6.1 -43.2 L-5.9 -42.2 -6.1 -43.2" fill="#563f25" fill-rule="evenodd" stroke="none"/>
      <path d="M-14.65 -41.05 Q-15.15 -42.25 -14.8 -42.8 L-8.2 -40.35 -9.3 -44.6 -14.05 -51.1 Q-13.7 -51.7 -12.45 -51.45 L-10.25 -47.85 -8.9 -45.95 -8.6 -45.55 Q-8.0 -44.55 -7.85 -43.55 L-7.55 -44.85 -7.55 -44.8 -7.45 -45.05 Q-6.25 -47.75 -5.75 -50.05 -4.95 -49.25 -4.25 -49.15 L-7.05 -41.8 -7.2 -41.2 Q-7.25 -39.8 -6.0 -35.75 -4.4 -30.6 -6.6 -33.8 L-7.8 -38.75 -7.85 -39.2 -7.95 -39.2 -8.35 -39.35 -10.55 -40.1 -14.65 -41.05" fill="#856638" fill-rule="evenodd" stroke="none"/>
      <path d="M-14.65 -41.05 Q-15.15 -42.25 -14.8 -42.8 L-8.2 -40.35 -9.3 -44.6 -14.05 -51.1 Q-13.7 -51.7 -12.45 -51.45 L-12.1 -51.35 Q-10.5 -48.55 -8.2 -45.7 L-7.55 -44.85 -7.55 -44.8 -7.45 -45.05 Q-6.25 -47.75 -5.75 -50.05 L-5.4 -50.25 Q-4.75 -50.95 -3.9 -50.6 M-3.25 -49.15 Q-5.0 -46.4 -5.9 -42.2 -5.45 -38.15 -4.6 -34.0 L-2.55 -27.8 M-5.3 -28.2 L-6.6 -33.8 -7.8 -38.75 M-7.85 -38.7 Q-11.3 -40.15 -14.4 -40.8 L-14.65 -41.05 M-4.25 -49.15 L-3.4 -49.15 -3.3 -49.2 M-4.25 -49.15 Q-4.95 -49.25 -5.75 -50.05 M-5.9 -42.2 L-6.1 -43.2 M-4.6 -34.0 L-7.2 -41.2" fill="none" stroke="#000000" stroke-linecap="round" stroke-linejoin="round" stroke-opacity="0.3019608" stroke-width="0.30000000000000004"/>
      <path d="M10.2 -53.35 L10.75 -49.15 11.25 -46.85 11.35 -46.35 Q11.55 -45.25 11.25 -44.25 L12.05 -45.35 12.05 -45.3 12.25 -45.45 Q14.4 -47.45 15.75 -49.35 16.2 -48.35 16.8 -47.95 L11.3 -42.35 10.95 -41.85 Q10.35 -40.55 9.85 -36.35 9.3 -31.0 8.5 -34.8 L9.4 -39.85 9.5 -40.25 9.45 -40.3 9.15 -40.6 7.45 -42.2 4.05 -44.7 Q4.05 -46.0 4.6 -46.3 L9.65 -41.45 10.4 -45.8 8.6 -53.65 Q9.1 -54.05 10.2 -53.35" fill="#856638" fill-rule="evenodd" stroke="none"/>
      <path d="M10.2 -53.35 L10.5 -53.1 Q10.8 -49.9 11.8 -46.35 L12.05 -45.35 11.25 -44.25 Q11.55 -45.25 11.35 -46.35 L11.25 -46.85 10.75 -49.15 10.2 -53.35 M18.05 -47.8 Q15.15 -45.9 12.5 -42.25 11.3 -38.35 10.45 -34.2 L9.85 -27.7 Q8.7 -28.9 7.5 -29.15 L8.5 -34.8 Q9.3 -31.0 9.85 -36.35 10.35 -40.55 10.95 -41.85 L11.3 -42.35 16.8 -47.95 17.55 -47.65 18.05 -47.8 M9.4 -39.85 L9.35 -39.8 Q6.75 -42.5 4.15 -44.35 L4.05 -44.7 7.45 -42.2 9.15 -40.6 9.45 -40.3 9.5 -40.25 9.4 -39.85 M12.7 -43.25 L12.5 -42.25 12.7 -43.25 M10.95 -41.85 L10.45 -34.2 10.95 -41.85" fill="#563f25" fill-rule="evenodd" stroke="none"/>
      <path d="M15.75 -49.35 L16.2 -49.45 Q17.3 -49.9 18.1 -48.65 18.5 -48.0 18.05 -47.8 L17.55 -47.65 16.8 -47.95 Q16.2 -48.35 15.75 -49.35" fill="#4d3821" fill-rule="evenodd" stroke="none"/>
      <path d="M12.05 -45.35 L11.8 -46.35 Q10.8 -49.9 10.5 -53.1 L10.2 -53.35 Q9.1 -54.05 8.6 -53.65 L10.4 -45.8 9.65 -41.45 4.6 -46.3 Q4.05 -46.0 4.05 -44.7 L4.15 -44.35 Q6.75 -42.5 9.35 -39.8 M12.05 -45.35 L12.05 -45.3 12.25 -45.45 Q14.4 -47.45 15.75 -49.35 L16.2 -49.45 Q17.3 -49.9 18.1 -48.65 18.5 -48.0 18.05 -47.8 15.15 -45.9 12.5 -42.25 11.3 -38.35 10.45 -34.2 L9.85 -27.7 M7.5 -29.15 L8.5 -34.8 9.4 -39.85 M16.8 -47.95 L17.55 -47.65 18.05 -47.8 M16.8 -47.95 Q16.2 -48.35 15.75 -49.35 M12.5 -42.25 L12.7 -43.25 M10.45 -34.2 L10.95 -41.85" fill="none" stroke="#000000" stroke-linecap="round" stroke-linejoin="round" stroke-opacity="0.3019608" stroke-width="0.30000000000000004"/>
      <path d="M-27.2 -29.05 L-27.4 -30.2 -27.5 -31.65 Q-27.45 -32.3 -26.75 -32.85 -26.3 -36.45 -23.15 -38.7 -21.45 -39.95 -19.4 -39.9 -17.55 -40.9 -15.2 -40.55 L-13.75 -39.9 -12.2 -38.9 Q-10.2 -38.3 -8.9 -36.75 -8.7 -36.45 -8.55 -34.5 -8.4 -32.45 -8.65 -32.15 -8.7 -30.5 -9.25 -29.35 -10.3 -27.05 -13.4 -28.1 -14.5 -24.45 -16.75 -23.45 -19.05 -22.5 -20.85 -22.95 -22.7 -23.45 -24.2 -25.7 -24.95 -26.8 -25.1 -28.1 -25.35 -27.95 -26.2 -28.4 L-27.2 -29.05" fill="#f2f7f8" fill-rule="evenodd" stroke="none"/>
      <path d="M-8.9 -36.75 L-8.1 -35.25 Q-7.45 -33.85 -7.55 -33.25 -6.5 -31.2 -7.05 -29.25 -6.9 -28.9 -8.45 -27.6 -10.05 -26.3 -11.85 -23.3 -13.7 -20.35 -16.2 -20.1 L-18.65 -20.1 Q-20.85 -19.8 -21.3 -20.8 -22.3 -20.9 -22.6 -21.3 -24.6 -21.9 -25.75 -23.55 -26.45 -24.6 -26.3 -25.6 -27.35 -27.3 -27.2 -29.05 L-26.2 -28.4 Q-25.35 -27.95 -25.1 -28.1 -24.95 -26.8 -24.2 -25.7 -22.7 -23.45 -20.85 -22.95 -19.05 -22.5 -16.75 -23.45 -14.5 -24.45 -13.4 -28.1 -10.3 -27.05 -9.25 -29.35 -8.7 -30.5 -8.65 -32.15 -8.4 -32.45 -8.55 -34.5 -8.7 -36.45 -8.9 -36.75" fill="#bbd1d7" fill-rule="evenodd" stroke="none"/>
      <path d="M-8.8 -37.35 Q-8.55 -36.95 -8.9 -36.7 -9.3 -36.5 -9.45 -36.9 -9.65 -37.3 -9.35 -37.5 -9.1 -37.75 -8.8 -37.35 M-15.4 -41.35 L-14.85 -41.3 Q-14.6 -41.0 -14.95 -40.75 L-15.55 -40.8 Q-15.8 -41.15 -15.4 -41.35 M-16.85 -40.9 Q-16.5 -40.35 -17.0 -40.1 -17.45 -39.8 -17.7 -40.35 -17.95 -40.85 -17.55 -41.15 -17.2 -41.45 -16.85 -40.9 M-19.1 -40.4 Q-18.75 -40.05 -19.15 -39.75 L-19.85 -39.8 Q-20.15 -40.15 -19.8 -40.45 L-19.1 -40.4 M-12.9 -40.3 Q-12.7 -39.95 -12.95 -39.6 -13.25 -39.25 -13.6 -39.7 -13.9 -40.15 -13.5 -40.4 -13.1 -40.7 -12.9 -40.3 M-11.5 -38.3 Q-11.75 -38.6 -11.4 -38.9 L-10.75 -38.85 Q-10.45 -38.5 -10.85 -38.25 L-11.5 -38.3 M-10.6 -25.05 Q-10.9 -24.7 -11.25 -25.15 -11.55 -25.6 -11.15 -25.85 L-10.55 -25.75 Q-10.35 -25.4 -10.6 -25.05 M-7.45 -34.95 L-8.1 -35.0 Q-8.35 -35.35 -7.95 -35.55 L-7.3 -35.5 Q-7.1 -35.2 -7.45 -34.95 M-7.75 -33.45 Q-7.15 -33.85 -6.85 -33.3 -6.55 -32.8 -6.95 -32.25 -7.35 -31.75 -7.85 -32.4 -8.3 -33.05 -7.75 -33.45 M-7.05 -30.35 Q-7.3 -30.65 -6.95 -30.95 L-6.3 -30.9 Q-6.0 -30.55 -6.4 -30.3 L-7.05 -30.35 M-7.55 -28.0 Q-8.0 -27.75 -8.2 -28.2 -8.4 -28.7 -8.1 -28.95 -7.75 -29.2 -7.45 -28.7 -7.15 -28.25 -7.55 -28.0 M-9.55 -26.7 Q-9.8 -27.05 -9.4 -27.25 L-8.75 -27.2 Q-8.55 -26.9 -8.9 -26.65 L-9.55 -26.7 M-23.35 -38.0 Q-23.75 -37.7 -24.0 -38.1 -24.3 -38.45 -23.85 -38.7 L-23.2 -38.65 Q-22.95 -38.3 -23.35 -38.0 M-22.1 -39.2 Q-22.4 -39.65 -22.05 -39.9 -21.7 -40.15 -21.5 -39.8 -21.3 -39.45 -21.55 -39.15 L-22.1 -39.2 M-25.05 -36.35 Q-25.45 -36.15 -25.65 -36.55 -25.8 -37.0 -25.5 -37.25 -25.25 -37.5 -24.95 -37.05 -24.65 -36.6 -25.05 -36.35 M-27.45 -32.0 Q-27.7 -32.35 -27.4 -32.55 L-26.95 -32.5 Q-26.75 -32.2 -27.0 -31.95 L-27.45 -32.0 M-26.0 -34.35 L-26.75 -34.4 Q-27.05 -34.75 -26.65 -35.1 L-25.9 -35.05 Q-25.55 -34.65 -26.0 -34.35 M-26.95 -30.15 L-27.7 -30.2 Q-27.95 -30.6 -27.5 -30.9 -27.05 -31.15 -26.8 -30.8 -26.55 -30.45 -26.95 -30.15 M-27.1 -28.1 Q-26.9 -27.85 -27.15 -27.7 -27.4 -27.55 -27.5 -27.8 L-27.45 -28.2 -27.1 -28.1 M-26.8 -25.75 Q-27.05 -26.05 -26.7 -26.35 L-26.05 -26.3 Q-25.75 -25.95 -26.15 -25.7 L-26.8 -25.75 M-22.4 -20.6 Q-22.6 -21.0 -22.3 -21.2 -22.05 -21.45 -21.75 -21.05 -21.5 -20.65 -21.85 -20.4 -22.25 -20.2 -22.4 -20.6 M-24.45 -21.3 Q-24.7 -21.65 -24.3 -21.85 L-23.75 -21.8 Q-23.5 -21.5 -23.85 -21.25 L-24.45 -21.3 M-26.45 -23.4 Q-26.75 -23.85 -26.35 -24.1 -25.95 -24.4 -25.75 -24.0 -25.55 -23.65 -25.8 -23.3 -26.1 -22.95 -26.45 -23.4 M-12.5 -21.9 Q-12.75 -21.75 -12.85 -22.0 L-12.8 -22.4 Q-12.6 -22.55 -12.45 -22.3 -12.25 -22.05 -12.5 -21.9 M-11.75 -22.8 L-12.6 -22.85 Q-13.0 -23.3 -12.5 -23.7 L-11.65 -23.65 Q-11.2 -23.2 -11.75 -22.8 M-14.9 -20.15 L-15.5 -20.2 Q-15.75 -20.55 -15.35 -20.75 L-14.8 -20.7 Q-14.55 -20.4 -14.9 -20.15 M-19.35 -19.75 L-19.85 -19.8 -19.8 -20.3 -19.3 -20.25 Q-19.05 -20.0 -19.35 -19.75 M-16.5 -19.5 Q-16.7 -19.25 -16.95 -19.6 L-16.9 -20.1 -16.45 -20.0 Q-16.3 -19.75 -16.5 -19.5" fill="#ffffff" fill-opacity="0.81960785" fill-rule="evenodd" stroke="none"/>
      <path d="M16.6 -15.1 L15.6 -14.25 16.6 -15.1 16.95 -15.25 Q18.25 -15.8 21.45 -13.9 17.85 -12.65 14.3 -12.3 7.15 -11.6 7.25 -16.15 10.2 -16.9 12.75 -15.45 14.0 -16.0 16.6 -15.1 M11.35 -14.45 L12.35 -15.3 12.75 -15.45 12.35 -15.3 11.35 -14.45" fill="#df6c1f" fill-rule="evenodd" stroke="none"/>
      <path d="M21.45 -13.9 Q12.35 -9.4 6.4 -11.5 4.85 -13.8 5.7 -14.9 6.5 -16.0 7.15 -16.15 L7.25 -16.15 Q7.15 -11.6 14.3 -12.3 17.85 -12.65 21.45 -13.9" fill="#c05b17" fill-rule="evenodd" stroke="none"/>
      <path d="M15.6 -14.25 L16.6 -15.1 Q14.0 -16.0 12.75 -15.45 L12.35 -15.3 11.35 -14.45 M16.6 -15.1 L16.95 -15.25 Q18.25 -15.8 21.45 -13.9 12.35 -9.4 6.4 -11.5 4.85 -13.8 5.7 -14.9 6.5 -16.0 7.15 -16.15 L7.25 -16.15 Q10.2 -16.9 12.75 -15.45" fill="none" stroke="#000000" stroke-linecap="round" stroke-linejoin="round" stroke-opacity="0.29803923" stroke-width="0.30000000000000004"/>
      <path d="M11.5 -19.9 Q12.2 -19.9 12.2 -20.7 L11.75 -20.95 Q11.4 -20.95 11.2 -20.7 L11.0 -20.3 11.05 -20.1 Q11.15 -19.9 11.5 -19.9 M9.7 -18.7 L9.75 -19.35 10.25 -20.6 Q10.65 -21.35 11.65 -21.4 L13.1 -21.4 14.15 -19.9 14.15 -19.85 Q13.75 -17.0 12.3 -16.85 10.3 -17.5 9.7 -18.7 M13.15 -19.0 Q13.15 -19.55 12.95 -19.3 L12.6 -18.75 11.6 -18.15 11.65 -17.9 12.3 -17.8 Q12.6 -17.8 12.9 -18.3 L13.15 -19.0" fill="#23170b" fill-rule="evenodd" stroke="none"/>
      <path d="M11.5 -19.9 Q11.15 -19.9 11.05 -20.1 L11.0 -20.3 11.2 -20.7 Q11.4 -20.95 11.75 -20.95 L12.2 -20.7 Q12.2 -19.9 11.5 -19.9 M13.15 -19.0 L12.9 -18.3 Q12.6 -17.8 12.3 -17.8 L11.65 -17.9 11.6 -18.15 12.6 -18.75 12.95 -19.3 Q13.15 -19.55 13.15 -19.0" fill="#ada49a" fill-rule="evenodd" stroke="none"/>
      <path d="M9.7 -18.7 Q10.3 -17.5 12.3 -16.85 13.75 -17.0 14.15 -19.85 L14.5 -18.75 Q13.25 -15.55 11.95 -16.3 9.8 -17.4 9.7 -18.7" fill="#bbd1d7" fill-rule="evenodd" stroke="none"/>
      <path d="M14.15 -19.85 L14.15 -19.9 13.1 -21.4 11.65 -21.4 Q10.65 -21.35 10.25 -20.6 L9.75 -19.35 9.7 -18.7 Q10.3 -17.5 12.3 -16.85 13.75 -17.0 14.15 -19.85 Z" fill="none" stroke="#000000" stroke-linecap="round" stroke-linejoin="round" stroke-opacity="0.3019608" stroke-width="0.30000000000000004"/>
      <path d="M-3.1 -18.7 L-3.05 -19.35 -2.55 -20.6 Q-2.15 -21.35 -1.15 -21.4 L0.3 -21.4 1.35 -19.9 1.35 -19.85 Q0.95 -17.0 -0.5 -16.85 -2.5 -17.5 -3.1 -18.7 M-1.05 -20.95 L-1.6 -20.7 -1.8 -20.3 -1.75 -20.1 -1.3 -19.9 Q-0.6 -19.9 -0.6 -20.7 -0.6 -20.95 -1.05 -20.95 M0.1 -18.3 L0.35 -19.0 Q0.35 -19.55 0.15 -19.3 L-0.2 -18.75 -1.2 -18.15 -1.15 -17.9 -0.5 -17.8 0.1 -18.3" fill="#23170b" fill-rule="evenodd" stroke="none"/>
      <path d="M0.1 -18.3 L-0.5 -17.8 -1.15 -17.9 -1.2 -18.15 -0.2 -18.75 0.15 -19.3 Q0.35 -19.55 0.35 -19.0 L0.1 -18.3 M-1.05 -20.95 Q-0.6 -20.95 -0.6 -20.7 -0.6 -19.9 -1.3 -19.9 L-1.75 -20.1 -1.8 -20.3 -1.6 -20.7 -1.05 -20.95" fill="#ada49a" fill-rule="evenodd" stroke="none"/>
      <path d="M-3.1 -18.7 Q-2.5 -17.5 -0.5 -16.85 0.95 -17.0 1.35 -19.85 L1.7 -18.75 Q0.45 -15.55 -0.85 -16.3 -3.0 -17.4 -3.1 -18.7" fill="#bbd1d7" fill-rule="evenodd" stroke="none"/>
      <path d="M1.35 -19.85 L1.35 -19.9 0.3 -21.4 -1.15 -21.4 Q-2.15 -21.35 -2.55 -20.6 L-3.05 -19.35 -3.1 -18.7 Q-2.5 -17.5 -0.5 -16.85 0.95 -17.0 1.35 -19.85 Z" fill="none" stroke="#000000" stroke-linecap="round" stroke-linejoin="round" stroke-opacity="0.3019608" stroke-width="0.30000000000000004"/>
    </g>
  </defs>
</svg>
