<?xml version="1.0" encoding="UTF-8" standalone="no"?>
<svg xmlns:xlink="http://www.w3.org/1999/xlink" height="54.9px" width="49.75px" xmlns="http://www.w3.org/2000/svg">
  <g transform="matrix(1.0, 0.0, 0.0, 1.0, 28.15, 53.95)">
    <use height="54.9" transform="matrix(1.0, 0.0, 0.0, 1.0, -28.15, -53.95)" width="49.75" xlink:href="#decoration202-shape0"/>
  </g>
  <defs>
    <g id="decoration202-shape0" transform="matrix(1.0, 0.0, 0.0, 1.0, 28.15, 53.95)">
      <path d="M7.8 -36.35 Q8.05 -38.4 8.7 -39.95 L9.7 -42.5 Q10.6 -44.6 10.95 -44.65 11.6 -45.7 12.2 -45.55 13.45 -45.3 13.9 -42.3 14.1 -42.3 14.35 -39.25 L14.1 -38.2 13.7 -37.35 11.4 -29.65 Q10.45 -28.05 10.1 -29.45 9.85 -30.05 9.85 -31.1 9.0 -28.5 8.45 -29.95 8.15 -30.7 8.05 -32.1 L7.75 -34.15 Q7.7 -35.95 7.8 -36.35" fill="#f2f7f8" fill-rule="evenodd" stroke="none"/>
      <path d="M7.8 -36.35 Q7.7 -35.95 7.75 -34.15 L8.05 -32.1 Q8.15 -30.7 8.45 -29.95 9.0 -28.5 9.85 -31.1 9.85 -30.05 10.1 -29.45 10.45 -28.05 11.4 -29.65 L13.7 -37.35 14.1 -38.2 14.35 -39.25 14.35 -35.8 14.25 -33.7 13.45 -30.1 13.0 -28.55 12.25 -26.85 11.4 -25.55 Q11.05 -25.05 9.35 -26.7 7.65 -28.35 7.7 -28.7 7.45 -30.2 7.55 -32.45 L7.65 -34.55 Q7.65 -35.85 7.8 -36.35" fill="#bbd1d7" fill-rule="evenodd" stroke="none"/>
      <path d="M11.35 -44.0 Q10.8 -43.65 10.5 -44.3 10.25 -44.9 10.75 -45.15 11.25 -45.4 11.6 -44.9 11.9 -44.4 11.35 -44.0 M12.4 -45.9 L12.9 -45.8 12.75 -45.35 Q12.45 -45.2 12.25 -45.5 12.05 -45.75 12.4 -45.9 M13.85 -43.4 Q14.05 -43.05 13.7 -42.85 13.3 -42.6 13.1 -42.85 12.9 -43.15 13.25 -43.45 L13.85 -43.4 M14.5 -40.35 Q14.75 -39.95 14.35 -39.7 13.9 -39.4 13.7 -39.9 13.5 -40.4 13.85 -40.55 14.25 -40.75 14.5 -40.35 M13.35 -41.95 Q13.15 -42.3 13.5 -42.5 L14.05 -42.4 Q14.3 -42.05 13.9 -41.85 13.55 -41.6 13.35 -41.95 M10.15 -42.3 Q9.85 -42.1 9.65 -42.4 9.45 -42.65 9.75 -42.85 L10.25 -42.75 Q10.45 -42.45 10.15 -42.3 M14.2 -37.75 Q13.9 -38.15 14.4 -38.35 14.85 -38.55 15.1 -38.2 15.35 -37.85 14.9 -37.6 14.5 -37.35 14.2 -37.75 M9.6 -40.85 Q9.85 -40.45 9.4 -40.2 L8.7 -40.25 Q8.45 -40.55 8.9 -40.9 L9.6 -40.85 M7.6 -38.05 Q7.25 -38.55 7.8 -38.8 8.4 -39.05 8.7 -38.6 9.0 -38.15 8.45 -37.85 7.95 -37.55 7.6 -38.05 M7.7 -35.45 Q7.2 -35.15 7.0 -35.7 6.75 -36.3 7.2 -36.5 7.65 -36.7 7.95 -36.25 8.2 -35.8 7.7 -35.45 M7.4 -34.1 L7.05 -34.2 Q6.95 -34.4 7.15 -34.5 L7.5 -34.45 Q7.65 -34.25 7.4 -34.1 M7.35 -32.05 Q7.75 -32.4 8.0 -32.05 8.25 -31.65 7.8 -31.4 L7.15 -31.45 Q6.95 -31.75 7.35 -32.05 M6.95 -29.0 Q6.7 -29.35 7.1 -29.5 L7.7 -29.35 Q7.9 -29.05 7.55 -28.85 7.15 -28.65 6.95 -29.0 M8.25 -27.2 Q8.05 -27.55 8.4 -27.7 L8.85 -27.55 Q9.05 -27.25 8.75 -27.05 8.4 -26.8 8.25 -27.2 M10.0 -26.15 Q10.4 -26.4 10.65 -26.0 10.9 -25.65 10.5 -25.4 10.1 -25.15 9.9 -25.55 9.65 -25.9 10.0 -26.15 M14.7 -34.55 L13.9 -34.6 Q13.6 -34.95 14.1 -35.35 L14.9 -35.3 Q15.2 -34.85 14.7 -34.55 M14.4 -32.6 Q14.05 -32.35 13.85 -32.7 13.65 -33.05 14.0 -33.25 L14.55 -33.15 Q14.8 -32.8 14.4 -32.6 M13.75 -30.3 Q13.4 -30.05 13.2 -30.45 13.0 -30.9 13.35 -31.05 13.7 -31.2 13.9 -30.85 14.1 -30.55 13.75 -30.3 M13.3 -28.25 Q12.9 -28.0 12.6 -28.4 12.3 -28.8 12.8 -29.0 13.25 -29.2 13.5 -28.85 13.75 -28.5 13.3 -28.25 M11.8 -26.6 Q11.6 -26.9 11.95 -27.2 L12.55 -27.15 Q12.75 -26.8 12.4 -26.6 12.0 -26.35 11.8 -26.6" fill="#ffffff" fill-opacity="0.81960785" fill-rule="evenodd" stroke="none"/>
      <path d="M-15.15 -12.55 L-15.15 -13.5 -15.0 -14.35 Q-15.8 -16.25 -15.6 -17.55 -15.55 -18.45 -14.4 -19.35 -13.75 -24.8 -8.9 -28.15 -6.25 -30.0 -3.1 -29.95 -0.2 -31.55 3.4 -30.95 4.4 -30.75 5.05 -29.9 6.85 -29.75 8.1 -28.55 11.2 -27.6 13.2 -25.2 L14.0 -24.2 Q15.6 -21.9 15.3 -19.9 15.35 -8.35 8.9 -6.9 9.35 -5.6 5.9 -4.2 2.45 -2.8 -0.9 -5.3 -6.0 -3.9 -7.15 -6.0 -8.3 -8.1 -7.9 -8.7 L-10.15 -7.85 Q-12.9 -7.95 -15.15 -12.55" fill="#f2f7f8" fill-rule="evenodd" stroke="none"/>
      <path d="M-15.15 -12.55 Q-12.9 -7.95 -10.15 -7.85 L-7.9 -8.7 Q-8.3 -8.1 -7.15 -6.0 -6.0 -3.9 -0.9 -5.3 2.45 -2.8 5.9 -4.2 9.35 -5.6 8.9 -6.9 15.35 -8.35 15.3 -19.9 L15.45 -19.6 Q16.8 -16.7 16.1 -13.9 16.3 -13.35 15.9 -10.55 15.5 -7.8 12.35 -4.05 9.15 -0.3 1.9 0.05 L-1.9 0.05 Q-5.3 0.5 -6.0 -1.1 -7.5 -1.15 -8.0 -1.8 -11.05 -2.75 -12.85 -5.25 -13.9 -6.75 -13.75 -8.35 -15.1 -10.45 -15.15 -12.55" fill="#bbd1d7" fill-rule="evenodd" stroke="none"/>
      <path d="M4.15 -31.0 Q4.4 -30.7 4.05 -30.4 L3.35 -30.5 Q2.95 -30.85 3.45 -31.1 L4.15 -31.0 M2.05 -31.5 Q2.25 -31.15 1.95 -30.85 1.65 -30.55 1.4 -31.0 1.1 -31.4 1.5 -31.65 1.9 -31.85 2.05 -31.5 M4.9 -30.5 L5.95 -30.4 Q6.3 -29.95 5.8 -29.55 5.3 -29.1 4.75 -29.65 4.2 -30.15 4.9 -30.5 M9.3 -27.85 Q8.9 -27.6 8.7 -28.0 8.45 -28.45 8.85 -28.65 9.2 -28.85 9.45 -28.5 9.7 -28.15 9.3 -27.85 M7.8 -28.9 Q7.45 -28.6 7.15 -29.0 6.9 -29.4 7.25 -29.7 7.65 -30.0 7.9 -29.6 8.2 -29.2 7.8 -28.9 M0.2 -30.65 Q-0.1 -30.45 -0.25 -30.75 -0.45 -31.1 -0.15 -31.25 L0.3 -31.15 Q0.45 -30.85 0.2 -30.65 M12.65 -25.55 Q12.35 -25.85 12.75 -26.1 L13.35 -26.0 Q13.55 -25.75 13.25 -25.5 L12.65 -25.55 M10.65 -26.25 Q10.25 -26.85 10.85 -27.2 11.4 -27.5 11.7 -27.0 11.95 -26.5 11.5 -26.05 11.05 -25.6 10.65 -26.25 M15.4 -18.9 Q15.15 -18.65 14.95 -19.0 14.7 -19.35 15.05 -19.5 L15.5 -19.4 Q15.65 -19.15 15.4 -18.9 M15.35 -20.95 Q14.95 -20.65 14.7 -21.1 14.45 -21.55 14.85 -21.75 15.25 -22.0 15.5 -21.6 15.8 -21.25 15.35 -20.95 M14.1 -23.3 Q13.9 -23.65 14.2 -23.9 L14.75 -23.8 Q15.0 -23.45 14.65 -23.2 14.35 -22.95 14.1 -23.3 M16.55 -16.85 L15.85 -16.95 Q15.45 -17.3 15.95 -17.55 L16.65 -17.45 Q16.9 -17.15 16.55 -16.85 M16.45 -14.7 L16.05 -14.75 Q15.9 -15.0 16.15 -15.2 L16.55 -15.1 Q16.7 -14.85 16.45 -14.7 M16.9 -12.85 Q17.2 -12.45 16.75 -12.15 16.3 -11.8 16.05 -12.3 15.75 -12.8 16.2 -13.05 16.6 -13.25 16.9 -12.85 M4.85 -0.25 Q5.15 0.1 4.7 0.4 4.3 0.7 4.05 0.25 3.8 -0.2 4.2 -0.4 4.6 -0.65 4.85 -0.25 M9.35 -1.1 Q8.85 -0.7 8.35 -1.2 7.8 -1.7 8.45 -2.05 L9.45 -1.95 Q9.8 -1.5 9.35 -1.1 M7.1 -0.85 Q6.8 -0.65 6.65 -0.95 6.45 -1.2 6.7 -1.4 L7.15 -1.35 Q7.35 -1.05 7.1 -0.85 M16.2 -9.5 Q15.7 -9.05 15.25 -9.7 14.85 -10.4 15.45 -10.7 16.1 -11.05 16.35 -10.5 16.65 -10.0 16.2 -9.5 M15.3 -7.45 L14.6 -7.55 Q14.2 -7.9 14.7 -8.15 L15.4 -8.05 Q15.65 -7.75 15.3 -7.45 M13.9 -6.35 Q14.15 -6.0 13.8 -5.75 13.5 -5.5 13.25 -5.85 13.05 -6.2 13.35 -6.45 L13.9 -6.35 M12.8 -3.6 Q12.2 -3.2 11.85 -3.85 11.5 -4.5 12.05 -4.75 12.6 -5.05 13.0 -4.55 13.35 -4.05 12.8 -3.6 M11.3 -2.4 Q11.0 -2.1 10.75 -2.55 10.45 -2.95 10.85 -3.2 11.25 -3.4 11.4 -3.05 11.6 -2.7 11.3 -2.4 M0.15 0.55 L-0.55 0.5 Q-0.9 0.15 -0.45 -0.05 L0.2 0.0 Q0.45 0.3 0.15 0.55 M1.55 0.7 Q1.25 0.25 1.7 0.0 2.1 -0.25 2.3 0.15 2.5 0.5 2.15 0.8 1.85 1.15 1.55 0.7 M-11.9 -25.3 L-12.6 -25.4 Q-13.0 -25.75 -12.5 -26.0 L-11.8 -25.9 Q-11.55 -25.6 -11.9 -25.3 M-10.35 -26.6 L-10.9 -26.7 Q-11.1 -27.05 -10.8 -27.3 L-10.25 -27.2 Q-10.0 -26.85 -10.35 -26.6 M-8.4 -27.8 Q-8.85 -27.45 -9.15 -28.0 -9.45 -28.55 -9.0 -28.8 -8.5 -29.0 -8.2 -28.6 -7.9 -28.15 -8.4 -27.8 M-6.5 -28.9 Q-6.95 -28.45 -7.35 -29.1 -7.75 -29.7 -7.15 -30.05 -6.6 -30.35 -6.3 -29.85 -6.05 -29.35 -6.5 -28.9 M-2.7 -30.15 Q-3.0 -30.55 -2.6 -30.9 -2.2 -31.2 -1.9 -30.75 -1.6 -30.35 -2.0 -30.05 -2.45 -29.7 -2.7 -30.15 M-4.5 -29.65 Q-4.8 -29.95 -4.4 -30.2 L-3.8 -30.1 Q-3.6 -29.85 -3.9 -29.6 L-4.5 -29.65 M-13.6 -23.05 Q-13.9 -23.5 -13.45 -23.75 -13.05 -24.0 -12.85 -23.6 -12.65 -23.25 -13.0 -22.95 -13.3 -22.6 -13.6 -23.05 M-14.35 -18.7 Q-14.65 -18.5 -14.8 -18.8 L-14.75 -19.25 -14.3 -19.2 Q-14.1 -18.9 -14.35 -18.7 M-13.8 -21.15 Q-14.1 -20.9 -14.3 -21.25 -14.5 -21.6 -14.2 -21.75 L-13.7 -21.65 Q-13.45 -21.35 -13.8 -21.15 M-15.95 -17.15 Q-16.3 -17.5 -15.85 -17.7 L-15.2 -17.65 Q-14.95 -17.35 -15.25 -17.1 L-15.95 -17.15 M-15.3 -13.6 Q-14.95 -13.8 -14.7 -13.45 -14.45 -13.1 -14.85 -12.8 -15.25 -12.55 -15.45 -12.95 -15.7 -13.4 -15.3 -13.6 M-15.5 -15.45 Q-15.2 -15.65 -15.05 -15.35 -14.9 -15.1 -15.15 -14.85 -15.4 -14.6 -15.6 -14.95 -15.85 -15.3 -15.5 -15.45 M-14.45 -10.7 Q-14.8 -10.4 -15.05 -10.8 -15.3 -11.15 -14.95 -11.4 -14.6 -11.7 -14.35 -11.3 -14.1 -10.95 -14.45 -10.7 M-13.05 -6.4 Q-12.8 -5.9 -13.2 -5.5 -13.65 -5.05 -14.0 -5.65 -14.4 -6.25 -13.85 -6.55 -13.3 -6.85 -13.05 -6.4 M-13.8 -8.15 L-14.5 -8.25 Q-14.9 -8.6 -14.4 -8.85 L-13.7 -8.75 Q-13.45 -8.45 -13.8 -8.15 M-10.55 -3.5 Q-10.15 -3.8 -9.85 -3.35 -9.55 -2.95 -9.95 -2.65 -10.4 -2.3 -10.65 -2.75 -10.95 -3.15 -10.55 -3.5 M-11.7 -3.35 Q-12.1 -3.05 -12.35 -3.5 -12.6 -3.95 -12.2 -4.15 -11.8 -4.4 -11.55 -4.0 -11.25 -3.65 -11.7 -3.35 M-8.45 -2.3 L-7.4 -2.2 Q-7.05 -1.75 -7.55 -1.35 -8.05 -0.9 -8.6 -1.45 -9.15 -1.95 -8.45 -2.3 M-6.4 -0.75 Q-6.7 -1.2 -6.25 -1.45 -5.85 -1.7 -5.65 -1.3 -5.45 -0.95 -5.8 -0.65 -6.1 -0.3 -6.4 -0.75 M-4.5 0.55 Q-4.75 0.1 -4.35 -0.1 -3.95 -0.35 -3.7 0.05 -3.4 0.4 -3.85 0.7 -4.25 1.0 -4.5 0.55 M-2.25 0.6 Q-2.5 0.2 -2.15 -0.1 L-1.5 0.0 Q-1.2 0.4 -1.6 0.7 L-2.25 0.6" fill="#ffffff" fill-opacity="0.81960785" fill-rule="evenodd" stroke="none"/>
      <path d="M-5.75 -50.05 L-5.4 -50.25 Q-4.75 -50.95 -3.9 -50.6 L-3.3 -49.2 -3.4 -49.15 -4.25 -49.15 Q-4.95 -49.25 -5.75 -50.05" fill="#4d3821" fill-rule="evenodd" stroke="none"/>
      <path d="M-12.45 -51.45 L-12.1 -51.35 Q-10.5 -48.55 -8.2 -45.7 L-7.55 -44.85 -7.85 -43.55 Q-8.0 -44.55 -8.6 -45.55 L-8.9 -45.95 -10.25 -47.85 -12.45 -51.45 M-3.3 -49.2 L-3.25 -49.15 Q-5.0 -46.4 -5.9 -42.2 -5.45 -38.15 -4.6 -34.0 L-2.55 -27.8 -5.3 -28.2 -6.6 -33.8 Q-4.4 -30.6 -6.0 -35.75 -7.25 -39.8 -7.2 -41.2 L-7.05 -41.8 -4.25 -49.15 -3.4 -49.15 -3.3 -49.2 M-7.8 -38.75 L-7.85 -38.7 Q-11.3 -40.15 -14.4 -40.8 L-14.65 -41.05 -10.55 -40.1 -8.35 -39.35 -7.95 -39.2 -7.85 -39.2 -7.8 -38.75 M-7.2 -41.2 L-4.6 -34.0 -7.2 -41.2 M-6.1 -43.2 L-5.9 -42.2 -6.1 -43.2" fill="#563f25" fill-rule="evenodd" stroke="none"/>
      <path d="M-14.65 -41.05 Q-15.15 -42.25 -14.8 -42.8 L-8.2 -40.35 -9.3 -44.6 -14.05 -51.1 Q-13.7 -51.7 -12.45 -51.45 L-10.25 -47.85 -8.9 -45.95 -8.6 -45.55 Q-8.0 -44.55 -7.85 -43.55 L-7.55 -44.85 -7.55 -44.8 -7.45 -45.05 Q-6.25 -47.75 -5.75 -50.05 -4.95 -49.25 -4.25 -49.15 L-7.05 -41.8 -7.2 -41.2 Q-7.25 -39.8 -6.0 -35.75 -4.4 -30.6 -6.6 -33.8 L-7.8 -38.75 -7.85 -39.2 -7.95 -39.2 -8.35 -39.35 -10.55 -40.1 -14.65 -41.05" fill="#856638" fill-rule="evenodd" stroke="none"/>
      <path d="M-14.65 -41.05 Q-15.15 -42.25 -14.8 -42.8 L-8.2 -40.35 -9.3 -44.6 -14.05 -51.1 Q-13.7 -51.7 -12.45 -51.45 L-12.1 -51.35 Q-10.5 -48.55 -8.2 -45.7 L-7.55 -44.85 -7.55 -44.8 -7.45 -45.05 Q-6.25 -47.75 -5.75 -50.05 L-5.4 -50.25 Q-4.75 -50.95 -3.9 -50.6 M-3.25 -49.15 Q-5.0 -46.4 -5.9 -42.2 -5.45 -38.15 -4.6 -34.0 L-2.55 -27.8 M-5.3 -28.2 L-6.6 -33.8 -7.8 -38.75 M-7.85 -38.7 Q-11.3 -40.15 -14.4 -40.8 L-14.65 -41.05 M-4.25 -49.15 L-3.4 -49.15 -3.3 -49.2 M-4.25 -49.15 Q-4.95 -49.25 -5.75 -50.05 M-5.9 -42.2 L-6.1 -43.2 M-4.6 -34.0 L-7.2 -41.2" fill="none" stroke="#000000" stroke-linecap="round" stroke-linejoin="round" stroke-opacity="0.3019608" stroke-width="0.30000000000000004"/>
      <path d="M10.2 -53.35 L10.75 -49.15 11.25 -46.85 11.35 -46.35 Q11.55 -45.25 11.25 -44.25 L12.05 -45.35 12.05 -45.3 12.25 -45.45 Q14.4 -47.45 15.75 -49.35 16.2 -48.35 16.8 -47.95 L11.3 -42.35 10.95 -41.85 Q10.35 -40.55 9.85 -36.35 9.3 -31.0 8.5 -34.8 L9.4 -39.85 9.5 -40.25 9.45 -40.3 9.15 -40.6 7.45 -42.2 4.05 -44.7 Q4.05 -46.0 4.6 -46.3 L9.65 -41.45 10.4 -45.8 8.6 -53.65 Q9.1 -54.05 10.2 -53.35" fill="#856638" fill-rule="evenodd" stroke="none"/>
      <path d="M10.2 -53.35 L10.5 -53.1 Q10.8 -49.9 11.8 -46.35 L12.05 -45.35 11.25 -44.25 Q11.55 -45.25 11.35 -46.35 L11.25 -46.85 10.75 -49.15 10.2 -53.35 M18.05 -47.8 Q15.15 -45.9 12.5 -42.25 11.3 -38.35 10.45 -34.2 L9.85 -27.7 Q8.7 -28.9 7.5 -29.15 L8.5 -34.8 Q9.3 -31.0 9.85 -36.35 10.35 -40.55 10.95 -41.85 L11.3 -42.35 16.8 -47.95 17.55 -47.65 18.05 -47.8 M9.4 -39.85 L9.35 -39.8 Q6.75 -42.5 4.15 -44.35 L4.05 -44.7 7.45 -42.2 9.15 -40.6 9.45 -40.3 9.5 -40.25 9.4 -39.85 M12.7 -43.25 L12.5 -42.25 12.7 -43.25 M10.95 -41.85 L10.45 -34.2 10.95 -41.85" fill="#563f25" fill-rule="evenodd" stroke="none"/>
      <path d="M15.75 -49.35 L16.2 -49.45 Q17.3 -49.9 18.1 -48.65 18.5 -48.0 18.05 -47.8 L17.55 -47.65 16.8 -47.95 Q16.2 -48.35 15.75 -49.35" fill="#4d3821" fill-rule="evenodd" stroke="none"/>
      <path d="M12.05 -45.35 L11.8 -46.35 Q10.8 -49.9 10.5 -53.1 L10.2 -53.35 M12.05 -45.35 L12.05 -45.3 12.25 -45.45 Q14.4 -47.45 15.75 -49.35 L16.2 -49.45 Q17.3 -49.9 18.1 -48.65 18.5 -48.0 18.05 -47.8 15.15 -45.9 12.5 -42.25 11.3 -38.35 10.45 -34.2 L9.85 -27.7 M7.5 -29.15 L8.5 -34.8 9.4 -39.85 M9.35 -39.8 Q6.75 -42.5 4.15 -44.35 L4.05 -44.7 Q4.05 -46.0 4.6 -46.3 L9.65 -41.45 10.4 -45.8 8.6 -53.65 Q9.1 -54.05 10.2 -53.35 M15.75 -49.35 Q16.2 -48.35 16.8 -47.95 L17.55 -47.65 18.05 -47.8 M12.5 -42.25 L12.7 -43.25 M10.45 -34.2 L10.95 -41.85" fill="none" stroke="#000000" stroke-linecap="round" stroke-linejoin="round" stroke-opacity="0.3019608" stroke-width="0.30000000000000004"/>
      <path d="M-27.2 -29.05 L-27.4 -30.2 -27.5 -31.65 Q-27.45 -32.3 -26.75 -32.85 -26.3 -36.45 -23.15 -38.7 -21.45 -39.95 -19.4 -39.9 -17.55 -40.9 -15.2 -40.55 L-13.75 -39.9 -12.2 -38.9 Q-10.2 -38.3 -8.9 -36.75 -8.7 -36.45 -8.55 -34.5 -8.4 -32.45 -8.65 -32.15 -8.7 -30.5 -9.25 -29.35 -10.3 -27.05 -13.4 -28.1 -14.5 -24.45 -16.75 -23.45 -19.05 -22.5 -20.85 -22.95 -22.7 -23.45 -24.2 -25.7 -24.95 -26.8 -25.1 -28.1 -25.35 -27.95 -26.2 -28.4 L-27.2 -29.05" fill="#f2f7f8" fill-rule="evenodd" stroke="none"/>
      <path d="M-8.9 -36.75 L-8.1 -35.25 Q-7.45 -33.85 -7.55 -33.25 -6.5 -31.2 -7.05 -29.25 -6.9 -28.9 -8.45 -27.6 -10.05 -26.3 -11.85 -23.3 -13.7 -20.35 -16.2 -20.1 L-18.65 -20.1 Q-20.85 -19.8 -21.3 -20.8 -22.3 -20.9 -22.6 -21.3 -24.6 -21.9 -25.75 -23.55 -26.45 -24.6 -26.3 -25.6 -27.35 -27.3 -27.2 -29.05 L-26.2 -28.4 Q-25.35 -27.95 -25.1 -28.1 -24.95 -26.8 -24.2 -25.7 -22.7 -23.45 -20.85 -22.95 -19.05 -22.5 -16.75 -23.45 -14.5 -24.45 -13.4 -28.1 -10.3 -27.05 -9.25 -29.35 -8.7 -30.5 -8.65 -32.15 -8.4 -32.45 -8.55 -34.5 -8.7 -36.45 -8.9 -36.75" fill="#bbd1d7" fill-rule="evenodd" stroke="none"/>
      <path d="M-9.8 -37.55 Q-10.05 -37.9 -9.65 -38.1 L-9.1 -38.05 Q-8.85 -37.75 -9.2 -37.5 L-9.8 -37.55 M-15.75 -40.85 Q-15.55 -40.5 -15.8 -40.2 L-16.35 -40.25 Q-16.65 -40.7 -16.3 -40.95 L-15.75 -40.85 M-17.8 -40.65 Q-17.55 -40.3 -17.95 -40.0 -18.35 -39.7 -18.6 -40.1 -18.9 -40.45 -18.45 -40.7 L-17.8 -40.65 M-20.2 -39.4 Q-20.6 -39.2 -20.8 -39.6 -20.95 -40.05 -20.65 -40.3 -20.4 -40.55 -20.1 -40.1 -19.8 -39.65 -20.2 -39.4 M-13.45 -40.4 Q-13.1 -40.05 -13.5 -39.75 L-14.2 -39.8 Q-14.5 -40.15 -14.15 -40.45 L-13.45 -40.4 M-11.05 -38.05 Q-11.5 -37.75 -11.75 -38.3 -12.0 -38.8 -11.6 -39.1 -11.25 -39.4 -10.9 -38.85 -10.55 -38.3 -11.05 -38.05 M-7.85 -35.35 Q-8.15 -35.0 -8.5 -35.45 -8.8 -35.9 -8.4 -36.15 -8.0 -36.45 -7.8 -36.05 -7.6 -35.7 -7.85 -35.35 M-7.9 -33.65 L-7.25 -33.6 Q-6.95 -33.25 -7.35 -33.0 L-8.0 -33.05 Q-8.25 -33.35 -7.9 -33.65 M-6.45 -31.2 Q-6.2 -30.8 -6.55 -30.55 -6.95 -30.35 -7.1 -30.75 -7.3 -31.15 -7.0 -31.35 -6.75 -31.6 -6.45 -31.2 M-7.2 -28.9 Q-7.45 -29.25 -7.05 -29.45 L-6.4 -29.4 Q-6.2 -29.1 -6.55 -28.85 L-7.2 -28.9 M-8.05 -27.95 Q-7.75 -27.45 -8.15 -26.9 -8.55 -26.4 -9.05 -27.05 -9.5 -27.7 -8.95 -28.1 -8.35 -28.5 -8.05 -27.95 M-9.45 -26.25 Q-9.15 -25.9 -9.55 -25.65 L-10.2 -25.7 Q-10.45 -26.0 -10.1 -26.3 L-9.45 -26.25 M-22.15 -38.75 L-22.9 -38.8 Q-23.2 -39.15 -22.8 -39.5 L-22.05 -39.45 Q-21.7 -39.05 -22.15 -38.75 M-24.15 -37.2 L-24.6 -37.25 Q-24.85 -37.6 -24.55 -37.8 L-24.1 -37.75 Q-23.9 -37.45 -24.15 -37.2 M-25.3 -35.9 L-26.05 -35.95 Q-26.3 -36.35 -25.85 -36.65 L-25.15 -36.55 Q-24.9 -36.2 -25.3 -35.9 M-26.55 -34.1 Q-26.35 -33.85 -26.6 -33.7 -26.85 -33.55 -26.95 -33.8 L-26.9 -34.2 Q-26.7 -34.35 -26.55 -34.1 M-27.25 -31.65 L-27.9 -31.7 Q-28.15 -32.0 -27.8 -32.3 L-27.15 -32.25 Q-26.85 -31.9 -27.25 -31.65 M-27.35 -29.25 Q-27.65 -28.9 -28.0 -29.35 -28.3 -29.8 -27.9 -30.05 -27.5 -30.35 -27.3 -29.95 -27.1 -29.6 -27.35 -29.25 M-26.3 -25.25 Q-26.05 -24.85 -26.4 -24.6 -26.8 -24.4 -26.95 -24.8 -27.15 -25.2 -26.85 -25.4 -26.6 -25.65 -26.3 -25.25 M-26.75 -26.6 L-27.35 -26.65 Q-27.6 -27.0 -27.2 -27.2 L-26.65 -27.15 Q-26.4 -26.85 -26.75 -26.6 M-25.05 -22.6 L-25.55 -22.65 Q-25.75 -22.9 -25.5 -23.15 L-25.0 -23.1 Q-24.75 -22.85 -25.05 -22.6 M-23.1 -21.6 Q-22.8 -21.8 -22.65 -21.5 -22.5 -21.25 -22.7 -21.0 -22.9 -20.75 -23.15 -21.1 -23.35 -21.4 -23.1 -21.6 M-21.25 -20.45 L-21.85 -20.5 Q-22.1 -20.85 -21.7 -21.05 L-21.15 -21.0 Q-20.9 -20.7 -21.25 -20.45 M-12.05 -23.9 Q-12.25 -24.4 -11.95 -24.65 -11.6 -24.9 -11.3 -24.4 -11.0 -23.95 -11.4 -23.7 -11.85 -23.45 -12.05 -23.9 M-12.4 -21.85 L-13.05 -21.9 Q-13.3 -22.25 -12.9 -22.45 L-12.25 -22.4 Q-12.05 -22.1 -12.4 -21.85 M-14.5 -20.55 Q-14.8 -20.2 -15.15 -20.65 -15.45 -21.1 -15.05 -21.35 L-14.45 -21.25 Q-14.25 -20.9 -14.5 -20.55 M-17.55 -19.65 Q-17.95 -20.1 -17.45 -20.5 L-16.6 -20.45 Q-16.15 -20.0 -16.7 -19.6 L-17.55 -19.65 M-18.9 -20.35 L-18.85 -20.75 Q-18.65 -20.9 -18.5 -20.65 -18.3 -20.4 -18.55 -20.25 -18.8 -20.1 -18.9 -20.35" fill="#ffffff" fill-opacity="0.81960785" fill-rule="evenodd" stroke="none"/>
      <path d="M16.6 -15.1 L15.6 -14.25 16.6 -15.1 16.95 -15.25 Q18.25 -15.8 21.45 -13.9 17.85 -12.65 14.3 -12.3 7.15 -11.6 7.25 -16.15 10.2 -16.9 12.75 -15.45 14.0 -16.0 16.6 -15.1 M11.35 -14.45 L12.35 -15.3 12.75 -15.45 12.35 -15.3 11.35 -14.45" fill="#df6c1f" fill-rule="evenodd" stroke="none"/>
      <path d="M21.45 -13.9 Q12.35 -9.4 6.4 -11.5 4.85 -13.8 5.7 -14.9 6.5 -16.0 7.15 -16.15 L7.25 -16.15 Q7.15 -11.6 14.3 -12.3 17.85 -12.65 21.45 -13.9" fill="#c05b17" fill-rule="evenodd" stroke="none"/>
      <path d="M15.6 -14.25 L16.6 -15.1 Q14.0 -16.0 12.75 -15.45 L12.35 -15.3 11.35 -14.45 M16.6 -15.1 L16.95 -15.25 Q18.25 -15.8 21.45 -13.9 12.35 -9.4 6.4 -11.5 4.85 -13.8 5.7 -14.9 6.5 -16.0 7.15 -16.15 L7.25 -16.15 Q10.2 -16.9 12.75 -15.45" fill="none" stroke="#000000" stroke-linecap="round" stroke-linejoin="round" stroke-opacity="0.29803923" stroke-width="0.30000000000000004"/>
      <path d="M11.2 -20.7 L11.0 -20.3 11.05 -20.1 Q11.15 -19.9 11.5 -19.9 12.2 -19.9 12.2 -20.7 L11.75 -20.95 Q11.4 -20.95 11.2 -20.7 M9.7 -18.7 L9.75 -19.35 10.25 -20.6 Q10.65 -21.35 11.65 -21.4 L13.1 -21.4 14.15 -19.9 14.15 -19.85 Q13.75 -17.0 12.3 -16.85 10.3 -17.5 9.7 -18.7 M13.15 -19.0 Q13.15 -19.55 12.95 -19.3 L12.6 -18.75 11.6 -18.15 11.65 -17.9 12.3 -17.8 Q12.6 -17.8 12.9 -18.3 L13.15 -19.0" fill="#23170b" fill-rule="evenodd" stroke="none"/>
      <path d="M11.2 -20.7 Q11.4 -20.95 11.75 -20.95 L12.2 -20.7 Q12.2 -19.9 11.5 -19.9 11.15 -19.9 11.05 -20.1 L11.0 -20.3 11.2 -20.7 M13.15 -19.0 L12.9 -18.3 Q12.6 -17.8 12.3 -17.8 L11.65 -17.9 11.6 -18.15 12.6 -18.75 12.95 -19.3 Q13.15 -19.55 13.15 -19.0" fill="#ada49a" fill-rule="evenodd" stroke="none"/>
      <path d="M9.7 -18.7 Q10.3 -17.5 12.3 -16.85 13.75 -17.0 14.15 -19.85 L14.5 -18.75 Q13.25 -15.55 11.95 -16.3 9.8 -17.4 9.7 -18.7" fill="#bbd1d7" fill-rule="evenodd" stroke="none"/>
      <path d="M14.15 -19.85 L14.15 -19.9 13.1 -21.4 11.65 -21.4 Q10.65 -21.35 10.25 -20.6 L9.75 -19.35 9.7 -18.7 Q10.3 -17.5 12.3 -16.85 13.75 -17.0 14.15 -19.85 Z" fill="none" stroke="#000000" stroke-linecap="round" stroke-linejoin="round" stroke-opacity="0.3019608" stroke-width="0.30000000000000004"/>
      <path d="M-3.1 -18.7 L-3.05 -19.35 -2.55 -20.6 Q-2.15 -21.35 -1.15 -21.4 L0.3 -21.4 1.35 -19.9 1.35 -19.85 Q0.95 -17.0 -0.5 -16.85 -2.5 -17.5 -3.1 -18.7 M-1.05 -20.95 L-1.6 -20.7 -1.8 -20.3 -1.75 -20.1 -1.3 -19.9 Q-0.6 -19.9 -0.6 -20.7 -0.6 -20.95 -1.05 -20.95 M0.35 -19.0 Q0.35 -19.55 0.15 -19.3 L-0.2 -18.75 -1.2 -18.15 -1.15 -17.9 -0.5 -17.8 0.1 -18.3 0.35 -19.0" fill="#23170b" fill-rule="evenodd" stroke="none"/>
      <path d="M0.35 -19.0 L0.1 -18.3 -0.5 -17.8 -1.15 -17.9 -1.2 -18.15 -0.2 -18.75 0.15 -19.3 Q0.35 -19.55 0.35 -19.0 M-1.05 -20.95 Q-0.6 -20.95 -0.6 -20.7 -0.6 -19.9 -1.3 -19.9 L-1.75 -20.1 -1.8 -20.3 -1.6 -20.7 -1.05 -20.95" fill="#ada49a" fill-rule="evenodd" stroke="none"/>
      <path d="M-3.1 -18.7 Q-2.5 -17.5 -0.5 -16.85 0.95 -17.0 1.35 -19.85 L1.7 -18.75 Q0.45 -15.55 -0.85 -16.3 -3.0 -17.4 -3.1 -18.7" fill="#bbd1d7" fill-rule="evenodd" stroke="none"/>
      <path d="M1.35 -19.85 L1.35 -19.9 0.3 -21.4 -1.15 -21.4 Q-2.15 -21.35 -2.55 -20.6 L-3.05 -19.35 -3.1 -18.7 Q-2.5 -17.5 -0.5 -16.85 0.95 -17.0 1.35 -19.85 Z" fill="none" stroke="#000000" stroke-linecap="round" stroke-linejoin="round" stroke-opacity="0.3019608" stroke-width="0.30000000000000004"/>
    </g>
  </defs>
</svg>
