<?xml version="1.0" encoding="UTF-8" standalone="no"?>
<svg xmlns:xlink="http://www.w3.org/1999/xlink" height="54.45px" width="49.35px" xmlns="http://www.w3.org/2000/svg">
  <g transform="matrix(1.0, 0.0, 0.0, 1.0, 27.75, 53.95)">
    <use height="54.45" transform="matrix(1.0, 0.0, 0.0, 1.0, -27.75, -53.95)" width="49.35" xlink:href="#decoration202-shape0"/>
  </g>
  <defs>
    <g id="decoration202-shape0" transform="matrix(1.0, 0.0, 0.0, 1.0, 27.75, 53.95)">
      <path d="M7.8 -36.35 Q8.05 -38.4 8.7 -39.95 L9.7 -42.5 Q10.6 -44.6 10.95 -44.65 11.6 -45.7 12.2 -45.55 13.45 -45.3 13.9 -42.3 14.1 -42.3 14.35 -39.25 L14.1 -38.2 13.7 -37.35 11.4 -29.65 Q10.45 -28.05 10.1 -29.45 9.85 -30.05 9.85 -31.1 9.0 -28.5 8.45 -29.95 8.15 -30.7 8.05 -32.1 L7.75 -34.15 Q7.7 -35.95 7.8 -36.35" fill="#f2f7f8" fill-rule="evenodd" stroke="none"/>
      <path d="M7.8 -36.35 Q7.7 -35.95 7.75 -34.15 L8.05 -32.1 Q8.15 -30.7 8.45 -29.95 9.0 -28.5 9.85 -31.1 9.85 -30.05 10.1 -29.45 10.45 -28.05 11.4 -29.65 L13.7 -37.35 14.1 -38.2 14.35 -39.25 14.35 -35.8 14.25 -33.7 13.45 -30.1 13.0 -28.55 12.25 -26.85 11.4 -25.55 Q11.05 -25.05 9.35 -26.7 7.65 -28.35 7.7 -28.7 7.45 -30.2 7.55 -32.45 L7.65 -34.55 Q7.65 -35.85 7.8 -36.35" fill="#bbd1d7" fill-rule="evenodd" stroke="none"/>
      <path d="M9.7 -44.0 Q9.45 -44.55 9.9 -44.8 10.4 -45.05 10.6 -44.5 10.85 -43.9 10.4 -43.7 9.95 -43.5 9.7 -44.0 M9.7 -42.15 Q9.2 -41.95 8.95 -42.35 8.75 -42.7 9.2 -43.0 9.7 -43.25 10.0 -42.8 10.25 -42.35 9.7 -42.15 M8.8 -39.45 Q9.0 -39.05 8.6 -38.75 8.2 -38.5 7.95 -38.9 7.75 -39.25 8.15 -39.55 L8.45 -39.65 8.35 -39.75 Q8.15 -40.1 8.45 -40.3 8.8 -40.5 8.95 -40.15 9.15 -39.75 8.85 -39.6 L8.75 -39.55 8.8 -39.45 M8.0 -36.45 Q7.65 -36.25 7.45 -36.7 7.25 -37.1 7.6 -37.3 8.0 -37.5 8.2 -37.05 8.4 -36.6 8.0 -36.45 M12.2 -45.05 Q11.65 -44.65 11.3 -45.25 10.95 -45.8 11.6 -46.2 12.2 -46.6 12.5 -46.05 12.75 -45.5 12.2 -45.05 M13.75 -43.1 Q13.45 -42.9 13.2 -43.3 12.95 -43.65 13.3 -43.9 13.7 -44.1 13.85 -43.7 14.0 -43.25 13.75 -43.1 M14.65 -40.85 Q14.15 -40.65 13.95 -41.0 13.75 -41.35 14.2 -41.6 L14.9 -41.45 Q15.15 -41.0 14.65 -40.85 M14.5 -38.8 Q14.15 -38.6 13.95 -39.05 13.75 -39.45 14.1 -39.65 14.5 -39.85 14.7 -39.4 14.9 -38.95 14.5 -38.8 M14.0 -36.8 Q13.8 -37.1 14.15 -37.3 L14.6 -37.25 14.45 -36.7 Q14.15 -36.5 14.0 -36.8 M14.3 -34.25 Q14.15 -34.15 14.0 -34.4 13.85 -34.6 14.05 -34.75 L14.35 -34.6 14.3 -34.25 M13.9 -30.1 L13.8 -29.75 Q13.6 -29.65 13.5 -29.9 13.35 -30.1 13.55 -30.2 13.8 -30.35 13.9 -30.1 M14.1 -31.75 Q13.85 -31.65 13.75 -31.85 13.6 -32.0 13.85 -32.15 14.1 -32.3 14.25 -32.05 14.35 -31.85 14.1 -31.75 M11.4 -25.5 Q11.05 -25.9 11.5 -26.2 11.95 -26.5 12.15 -26.0 12.35 -25.5 12.0 -25.3 11.7 -25.1 11.4 -25.5 M12.6 -27.3 Q12.45 -27.55 12.7 -27.7 L13.1 -27.65 13.0 -27.25 12.6 -27.3 M7.2 -34.65 Q7.05 -34.9 7.35 -35.05 L7.85 -34.95 7.7 -34.55 7.2 -34.65 M7.9 -32.75 Q8.1 -32.3 7.8 -32.1 7.5 -31.95 7.2 -32.3 6.9 -32.7 7.35 -32.95 7.75 -33.2 7.9 -32.75 M7.9 -29.6 Q7.5 -29.35 7.25 -29.75 7.05 -30.1 7.45 -30.4 L8.1 -30.3 Q8.3 -29.9 7.9 -29.6 M9.35 -25.85 Q8.85 -25.65 8.65 -26.0 8.45 -26.35 8.9 -26.6 9.35 -26.85 9.6 -26.45 9.85 -26.0 9.35 -25.85 M8.4 -27.8 Q8.05 -27.65 7.9 -28.05 7.7 -28.4 8.05 -28.6 8.4 -28.8 8.55 -28.4 8.75 -27.95 8.4 -27.8" fill="#ffffff" fill-opacity="0.81960785" fill-rule="evenodd" stroke="none"/>
      <path d="M-15.15 -12.55 L-15.15 -13.5 -15.0 -14.35 Q-15.8 -16.25 -15.6 -17.55 -15.55 -18.45 -14.4 -19.35 -13.75 -24.8 -8.9 -28.15 -6.25 -30.0 -3.1 -29.95 -0.2 -31.55 3.4 -30.95 4.4 -30.75 5.05 -29.9 6.85 -29.75 8.1 -28.55 11.2 -27.6 13.2 -25.2 L14.0 -24.2 Q15.6 -21.9 15.3 -19.9 15.35 -8.35 8.9 -6.9 9.35 -5.6 5.9 -4.2 2.45 -2.8 -0.9 -5.3 -6.0 -3.9 -7.15 -6.0 -8.3 -8.1 -7.9 -8.7 L-10.15 -7.85 Q-12.9 -7.95 -15.15 -12.55" fill="#f2f7f8" fill-rule="evenodd" stroke="none"/>
      <path d="M-15.15 -12.55 Q-12.9 -7.95 -10.15 -7.85 L-7.9 -8.7 Q-8.3 -8.1 -7.15 -6.0 -6.0 -3.9 -0.9 -5.3 2.45 -2.8 5.9 -4.2 9.35 -5.6 8.9 -6.9 15.35 -8.35 15.3 -19.9 L15.45 -19.6 Q16.8 -16.7 16.1 -13.9 16.3 -13.35 15.9 -10.55 15.5 -7.8 12.35 -4.05 9.15 -0.3 1.9 0.05 L-1.9 0.05 Q-5.3 0.5 -6.0 -1.1 -7.5 -1.15 -8.0 -1.8 -11.05 -2.75 -12.85 -5.25 -13.9 -6.75 -13.75 -8.35 -15.1 -10.45 -15.15 -12.55" fill="#bbd1d7" fill-rule="evenodd" stroke="none"/>
      <path d="M0.35 -30.9 Q0.15 -31.15 0.4 -31.35 L0.85 -31.3 Q1.1 -31.05 0.8 -30.9 0.55 -30.7 0.35 -30.9 M-2.05 -30.3 Q-2.3 -30.55 -1.85 -30.85 L-1.3 -30.8 Q-1.1 -30.45 -1.5 -30.25 L-2.05 -30.3 M-3.4 -29.75 Q-3.1 -29.3 -3.5 -29.0 -3.95 -28.7 -4.2 -29.15 -4.45 -29.65 -4.1 -29.9 -3.7 -30.2 -3.4 -29.75 M-5.85 -29.45 Q-5.7 -29.15 -6.0 -28.95 -6.3 -28.7 -6.5 -29.1 -6.75 -29.45 -6.35 -29.6 L-5.85 -29.45 M-7.55 -28.45 L-8.1 -28.5 Q-8.35 -28.8 -8.05 -29.05 L-7.5 -29.0 Q-7.2 -28.7 -7.55 -28.45 M-10.6 -26.9 Q-10.9 -27.2 -10.4 -27.55 L-9.7 -27.5 Q-9.55 -27.1 -9.95 -26.85 L-10.6 -26.9 M-12.4 -25.25 Q-12.55 -25.5 -12.3 -25.65 L-11.95 -25.55 Q-11.8 -25.3 -12.05 -25.15 L-12.4 -25.25 M-12.65 -23.75 Q-12.45 -23.35 -12.85 -23.05 -13.2 -22.8 -13.5 -23.25 -13.8 -23.75 -13.3 -23.95 -12.85 -24.15 -12.65 -23.75 M-13.95 -19.2 Q-13.8 -18.8 -14.2 -18.55 L-14.85 -18.6 -14.95 -18.75 Q-15.25 -19.05 -14.75 -19.4 L-14.05 -19.35 -14.05 -19.3 -13.95 -19.2 M-13.45 -21.15 L-14.15 -21.2 Q-14.45 -21.55 -14.1 -21.8 L-13.4 -21.75 Q-13.1 -21.4 -13.45 -21.15 M-15.8 -17.4 Q-16.0 -17.75 -15.7 -17.95 -15.45 -18.15 -15.2 -17.8 -15.0 -17.5 -15.3 -17.25 -15.6 -17.05 -15.8 -17.4 M-14.75 -14.85 Q-15.15 -14.55 -15.45 -15.05 -15.75 -15.6 -15.25 -15.8 -14.75 -16.0 -14.55 -15.6 -14.35 -15.15 -14.75 -14.85 M-14.75 -11.15 Q-14.5 -10.6 -15.05 -10.25 -15.6 -9.9 -15.95 -10.35 -16.35 -10.75 -15.65 -11.2 L-14.75 -11.15 M-15.15 -12.5 L-15.85 -12.55 Q-16.2 -12.9 -15.8 -13.2 L-15.1 -13.15 Q-14.75 -12.75 -15.15 -12.5 M11.05 -26.65 Q10.75 -26.4 10.55 -26.8 10.3 -27.15 10.7 -27.3 11.05 -27.45 11.2 -27.15 11.35 -26.85 11.05 -26.65 M12.45 -25.0 Q12.2 -25.4 12.6 -25.7 12.95 -25.95 13.2 -25.5 13.5 -25.1 13.1 -24.8 12.7 -24.55 12.45 -25.0 M14.15 -23.45 Q14.0 -23.6 14.25 -23.75 14.5 -23.95 14.6 -23.75 L14.5 -23.4 14.15 -23.45 M7.6 -29.3 Q7.8 -28.95 7.4 -28.7 L6.75 -28.75 Q6.5 -29.05 6.95 -29.35 L7.6 -29.3 M5.05 -29.8 Q4.85 -30.15 5.15 -30.35 5.4 -30.55 5.65 -30.2 5.85 -29.9 5.55 -29.65 5.25 -29.45 5.05 -29.8 M2.65 -30.85 Q2.4 -31.2 2.8 -31.35 L3.3 -31.2 Q3.45 -30.9 3.15 -30.7 2.85 -30.45 2.65 -30.85 M9.1 -27.95 Q8.9 -28.2 9.15 -28.4 L9.6 -28.35 Q9.85 -28.1 9.55 -27.95 9.3 -27.75 9.1 -27.95 M15.7 -21.15 L15.0 -21.2 Q14.7 -21.55 15.05 -21.8 L15.75 -21.75 Q16.05 -21.4 15.7 -21.15 M15.5 -18.5 Q15.2 -18.25 15.0 -18.65 14.75 -19.0 15.15 -19.15 L15.65 -19.0 Q15.8 -18.7 15.5 -18.5 M15.9 -15.2 L16.55 -15.15 Q16.75 -14.8 16.35 -14.55 L15.7 -14.6 Q15.45 -14.9 15.9 -15.2 M16.1 -12.2 Q15.9 -12.45 16.15 -12.65 L16.7 -12.6 Q16.95 -12.35 16.65 -12.15 L16.1 -12.2 M15.75 -16.45 Q15.5 -16.95 15.85 -17.2 16.25 -17.5 16.55 -17.05 16.85 -16.6 16.45 -16.3 16.0 -16.0 15.75 -16.45 M15.6 -8.15 Q15.9 -7.75 15.5 -7.45 15.1 -7.2 14.85 -7.65 14.6 -8.05 15.0 -8.35 15.35 -8.6 15.6 -8.15 M15.45 -9.9 Q15.25 -10.25 15.6 -10.4 L16.05 -10.25 Q16.2 -9.95 15.9 -9.75 15.65 -9.55 15.45 -9.9 M13.55 -5.55 Q13.3 -5.85 13.75 -6.15 L14.4 -6.1 Q14.6 -5.75 14.2 -5.5 L13.55 -5.55 M11.1 -2.25 Q10.9 -2.15 10.8 -2.35 10.65 -2.6 10.9 -2.7 L11.2 -2.6 11.1 -2.25 M12.3 -3.75 Q12.0 -4.1 12.35 -4.35 L13.05 -4.3 Q13.35 -3.95 13.0 -3.7 L12.3 -3.75 M1.85 0.35 Q1.7 0.1 1.95 0.0 L2.25 0.1 2.15 0.45 1.85 0.35 M4.05 0.05 Q3.75 -0.25 4.1 -0.5 L4.7 -0.45 Q5.0 -0.15 4.65 0.1 L4.05 0.05 M9.55 -1.8 Q9.95 -1.25 9.4 -0.85 8.9 -0.5 8.55 -1.1 8.2 -1.7 8.7 -2.05 9.2 -2.4 9.55 -1.8 M6.35 -0.3 Q6.05 -0.65 6.6 -1.0 L7.3 -0.95 Q7.5 -0.55 7.1 -0.25 L6.35 -0.3 M-8.85 -1.2 Q-9.2 -0.95 -9.45 -1.35 -9.7 -1.75 -9.35 -2.0 -9.0 -2.25 -8.75 -1.85 -8.5 -1.45 -8.85 -1.2 M-6.75 -0.95 Q-7.0 -1.4 -6.55 -1.6 -6.1 -1.8 -5.9 -1.4 -5.75 -1.0 -6.1 -0.75 -6.45 -0.45 -6.75 -0.95 M-4.95 0.3 Q-5.25 -0.05 -4.9 -0.3 L-4.2 -0.25 Q-3.9 0.1 -4.25 0.35 L-4.95 0.3 M-2.75 0.1 Q-3.05 -0.2 -2.55 -0.55 L-1.85 -0.5 Q-1.7 -0.1 -2.1 0.15 L-2.75 0.1 M-0.6 -0.1 Q-0.8 -0.5 -0.5 -0.7 -0.15 -0.95 0.05 -0.6 0.3 -0.2 -0.05 0.0 -0.35 0.25 -0.6 -0.1 M-13.7 -9.15 Q-13.45 -8.75 -13.8 -8.5 -14.15 -8.25 -14.4 -8.65 -14.65 -9.05 -14.3 -9.3 -13.95 -9.55 -13.7 -9.15 M-13.7 -6.35 Q-13.95 -6.7 -13.55 -6.85 L-13.05 -6.7 Q-12.9 -6.4 -13.2 -6.2 -13.5 -5.95 -13.7 -6.35 M-11.9 -4.6 Q-11.6 -4.25 -11.95 -4.0 L-12.65 -4.05 Q-12.95 -4.4 -12.6 -4.65 L-11.9 -4.6 M-10.65 -2.55 L-11.2 -2.6 Q-11.4 -2.85 -11.0 -3.1 -10.6 -3.4 -10.45 -3.1 -10.3 -2.75 -10.65 -2.55" fill="#ffffff" fill-opacity="0.81960785" fill-rule="evenodd" stroke="none"/>
      <path d="M-5.75 -50.05 L-5.4 -50.25 Q-4.75 -50.95 -3.9 -50.6 L-3.3 -49.2 -3.4 -49.15 -4.25 -49.15 Q-4.95 -49.25 -5.75 -50.05" fill="#4d3821" fill-rule="evenodd" stroke="none"/>
      <path d="M-3.3 -49.2 L-3.25 -49.15 Q-5.0 -46.4 -5.9 -42.2 -5.45 -38.15 -4.6 -34.0 L-2.55 -27.8 -5.3 -28.2 -6.6 -33.8 Q-4.4 -30.6 -6.0 -35.75 -7.25 -39.8 -7.2 -41.2 L-7.05 -41.8 -4.25 -49.15 -3.4 -49.15 -3.3 -49.2 M-7.8 -38.75 L-7.85 -38.7 Q-11.3 -40.15 -14.4 -40.8 L-14.65 -41.05 -10.55 -40.1 -8.35 -39.35 -7.95 -39.2 -7.85 -39.2 -7.8 -38.75 M-12.45 -51.45 L-12.1 -51.35 Q-10.5 -48.55 -8.2 -45.7 L-7.55 -44.85 -7.85 -43.55 Q-8.0 -44.55 -8.6 -45.55 L-8.9 -45.95 -10.25 -47.85 -12.45 -51.45 M-6.1 -43.2 L-5.9 -42.2 -6.1 -43.2 M-7.2 -41.2 L-4.6 -34.0 -7.2 -41.2" fill="#563f25" fill-rule="evenodd" stroke="none"/>
      <path d="M-6.6 -33.8 L-7.8 -38.75 -7.85 -39.2 -7.95 -39.2 -8.35 -39.35 -10.55 -40.1 -14.65 -41.05 Q-15.15 -42.25 -14.8 -42.8 L-8.2 -40.35 -9.3 -44.6 -14.05 -51.1 Q-13.7 -51.7 -12.45 -51.45 L-10.25 -47.85 -8.9 -45.95 -8.6 -45.55 Q-8.0 -44.55 -7.85 -43.55 L-7.55 -44.85 -7.55 -44.8 -7.45 -45.05 Q-6.25 -47.75 -5.75 -50.05 -4.95 -49.25 -4.25 -49.15 L-7.05 -41.8 -7.2 -41.2 Q-7.25 -39.8 -6.0 -35.75 -4.4 -30.6 -6.6 -33.8" fill="#856638" fill-rule="evenodd" stroke="none"/>
      <path d="M-5.75 -50.05 L-5.4 -50.25 Q-4.75 -50.95 -3.9 -50.6 M-3.25 -49.15 Q-5.0 -46.4 -5.9 -42.2 -5.45 -38.15 -4.6 -34.0 L-2.55 -27.8 M-5.3 -28.2 L-6.6 -33.8 -7.8 -38.75 M-7.85 -38.7 Q-11.3 -40.15 -14.4 -40.8 L-14.65 -41.05 Q-15.15 -42.25 -14.8 -42.8 L-8.2 -40.35 -9.3 -44.6 -14.05 -51.1 Q-13.7 -51.7 -12.45 -51.45 L-12.1 -51.35 Q-10.5 -48.55 -8.2 -45.7 L-7.55 -44.85 -7.55 -44.8 -7.45 -45.05 Q-6.25 -47.75 -5.75 -50.05 -4.95 -49.25 -4.25 -49.15 L-3.4 -49.15 -3.3 -49.2 M-5.9 -42.2 L-6.1 -43.2 M-4.6 -34.0 L-7.2 -41.2" fill="none" stroke="#000000" stroke-linecap="round" stroke-linejoin="round" stroke-opacity="0.3019608" stroke-width="0.30000000000000004"/>
      <path d="M15.75 -49.35 Q16.2 -48.35 16.8 -47.95 L11.3 -42.35 10.95 -41.85 Q10.35 -40.55 9.85 -36.35 9.3 -31.0 8.5 -34.8 L9.4 -39.85 9.5 -40.25 9.45 -40.3 9.15 -40.6 7.45 -42.2 4.05 -44.7 Q4.05 -46.0 4.6 -46.3 L9.65 -41.45 10.4 -45.8 8.6 -53.65 Q9.1 -54.05 10.2 -53.35 L10.75 -49.15 11.25 -46.85 11.35 -46.35 Q11.55 -45.25 11.25 -44.25 L12.05 -45.35 12.05 -45.3 12.25 -45.45 Q14.4 -47.45 15.75 -49.35" fill="#856638" fill-rule="evenodd" stroke="none"/>
      <path d="M15.75 -49.35 L16.2 -49.45 Q17.3 -49.9 18.1 -48.65 18.5 -48.0 18.05 -47.8 L17.55 -47.65 16.8 -47.95 Q16.2 -48.35 15.75 -49.35" fill="#4d3821" fill-rule="evenodd" stroke="none"/>
      <path d="M16.8 -47.95 L17.55 -47.65 18.05 -47.8 Q15.15 -45.9 12.5 -42.25 11.3 -38.35 10.45 -34.2 L9.85 -27.7 Q8.7 -28.9 7.5 -29.15 L8.5 -34.8 Q9.3 -31.0 9.85 -36.35 10.35 -40.55 10.95 -41.85 L11.3 -42.35 16.8 -47.95 M9.4 -39.85 L9.35 -39.8 Q6.75 -42.5 4.15 -44.35 L4.05 -44.7 7.45 -42.2 9.15 -40.6 9.45 -40.3 9.5 -40.25 9.4 -39.85 M10.2 -53.35 L10.5 -53.1 Q10.8 -49.9 11.8 -46.35 L12.05 -45.35 11.25 -44.25 Q11.55 -45.25 11.35 -46.35 L11.25 -46.85 10.75 -49.15 10.2 -53.35 M10.95 -41.85 L10.45 -34.2 10.95 -41.85 M12.7 -43.25 L12.5 -42.25 12.7 -43.25" fill="#563f25" fill-rule="evenodd" stroke="none"/>
      <path d="M18.05 -47.8 Q18.5 -48.0 18.1 -48.65 17.3 -49.9 16.2 -49.45 L15.75 -49.35 Q16.2 -48.35 16.8 -47.95 L17.55 -47.65 18.05 -47.8 Q15.15 -45.9 12.5 -42.25 11.3 -38.35 10.45 -34.2 L9.85 -27.7 M7.5 -29.15 L8.5 -34.8 9.4 -39.85 M9.35 -39.8 Q6.75 -42.5 4.15 -44.35 L4.05 -44.7 Q4.05 -46.0 4.6 -46.3 L9.65 -41.45 10.4 -45.8 8.6 -53.65 Q9.1 -54.05 10.2 -53.35 L10.5 -53.1 Q10.8 -49.9 11.8 -46.35 L12.05 -45.35 12.05 -45.3 12.25 -45.45 Q14.4 -47.45 15.75 -49.35 M12.5 -42.25 L12.7 -43.25 M10.45 -34.2 L10.95 -41.85" fill="none" stroke="#000000" stroke-linecap="round" stroke-linejoin="round" stroke-opacity="0.3019608" stroke-width="0.30000000000000004"/>
      <path d="M-27.2 -29.05 L-27.4 -30.2 -27.5 -31.65 Q-27.45 -32.3 -26.75 -32.85 -26.3 -36.45 -23.15 -38.7 -21.45 -39.95 -19.4 -39.9 -17.55 -40.9 -15.2 -40.55 L-13.75 -39.9 -12.2 -38.9 Q-10.2 -38.3 -8.9 -36.75 -8.7 -36.45 -8.55 -34.5 -8.4 -32.45 -8.65 -32.15 -8.7 -30.5 -9.25 -29.35 -10.3 -27.05 -13.4 -28.1 -14.5 -24.45 -16.75 -23.45 -19.05 -22.5 -20.85 -22.95 -22.7 -23.45 -24.2 -25.7 -24.95 -26.8 -25.1 -28.1 -25.35 -27.95 -26.2 -28.4 L-27.2 -29.05" fill="#f2f7f8" fill-rule="evenodd" stroke="none"/>
      <path d="M-8.9 -36.75 L-8.1 -35.25 Q-7.45 -33.85 -7.55 -33.25 -6.5 -31.2 -7.05 -29.25 -6.9 -28.9 -8.45 -27.6 -10.05 -26.3 -11.85 -23.3 -13.7 -20.35 -16.2 -20.1 L-18.65 -20.1 Q-20.85 -19.8 -21.3 -20.8 -22.3 -20.9 -22.6 -21.3 -24.6 -21.9 -25.75 -23.55 -26.45 -24.6 -26.3 -25.6 -27.35 -27.3 -27.2 -29.05 L-26.2 -28.4 Q-25.35 -27.95 -25.1 -28.1 -24.95 -26.8 -24.2 -25.7 -22.7 -23.45 -20.85 -22.95 -19.05 -22.5 -16.75 -23.45 -14.5 -24.45 -13.4 -28.1 -10.3 -27.05 -9.25 -29.35 -8.7 -30.5 -8.65 -32.15 -8.4 -32.45 -8.55 -34.5 -8.7 -36.45 -8.9 -36.75" fill="#bbd1d7" fill-rule="evenodd" stroke="none"/>
      <path d="M-15.75 -40.4 L-16.35 -40.45 Q-16.6 -40.8 -16.25 -41.05 L-15.6 -41.0 Q-15.35 -40.7 -15.75 -40.4 M-14.4 -40.5 L-13.55 -40.45 Q-13.3 -39.95 -13.8 -39.65 L-14.65 -39.75 Q-14.95 -40.1 -14.4 -40.5 M-18.4 -40.2 Q-18.85 -39.85 -19.05 -40.3 -19.25 -40.7 -18.85 -41.0 L-18.2 -40.9 Q-18.0 -40.55 -18.4 -40.2 M-10.95 -38.8 Q-10.75 -38.5 -11.05 -38.35 -11.3 -38.15 -11.5 -38.45 L-11.65 -38.35 Q-12.15 -38.0 -12.45 -38.55 -12.75 -39.05 -12.25 -39.4 -11.75 -39.7 -11.45 -39.2 L-11.35 -38.95 Q-11.1 -39.1 -10.95 -38.8 M-9.5 -37.7 Q-9.15 -37.95 -8.95 -37.6 -8.75 -37.3 -9.15 -36.95 -9.55 -36.65 -9.7 -37.05 -9.9 -37.45 -9.5 -37.7 M-7.75 -35.65 Q-7.5 -35.4 -7.85 -35.15 -8.2 -34.85 -8.4 -35.15 -8.65 -35.5 -8.3 -35.7 L-7.75 -35.65 M-7.4 -32.9 L-7.9 -32.95 Q-8.1 -33.15 -7.75 -33.4 L-7.25 -33.35 Q-7.05 -33.05 -7.4 -32.9 M-7.05 -31.3 L-6.65 -31.2 Q-6.5 -30.9 -6.75 -30.75 L-7.15 -30.85 Q-7.3 -31.15 -7.05 -31.3 M-8.8 -27.3 L-9.15 -27.35 -9.1 -27.7 -8.7 -27.7 Q-8.55 -27.5 -8.8 -27.3 M-6.6 -28.45 Q-6.85 -28.25 -7.0 -28.55 L-6.85 -29.0 -6.45 -28.9 Q-6.3 -28.7 -6.6 -28.45 M-10.4 -25.55 Q-10.6 -25.75 -10.25 -26.0 L-9.75 -25.95 Q-9.55 -25.65 -9.9 -25.5 L-10.4 -25.55 M-12.15 -23.9 Q-12.4 -24.35 -11.95 -24.65 -11.55 -24.9 -11.3 -24.45 -11.0 -24.0 -11.45 -23.7 -11.9 -23.4 -12.15 -23.9 M-12.8 -22.05 L-12.65 -22.6 Q-12.3 -22.8 -12.15 -22.5 -11.95 -22.25 -12.3 -21.95 -12.65 -21.7 -12.8 -22.05 M-14.0 -20.3 L-14.6 -20.35 Q-14.85 -20.7 -14.5 -20.95 L-13.85 -20.9 Q-13.6 -20.6 -14.0 -20.3 M-17.15 -19.65 Q-17.45 -19.95 -16.95 -20.3 L-16.25 -20.25 Q-16.05 -19.8 -16.45 -19.6 L-17.15 -19.65 M-18.7 -20.4 Q-18.45 -19.95 -18.85 -19.7 -19.25 -19.45 -19.5 -19.85 -19.75 -20.3 -19.35 -20.55 L-18.7 -20.4 M-26.25 -35.95 Q-26.45 -36.45 -26.0 -36.75 L-25.3 -36.65 Q-25.05 -36.25 -25.55 -35.85 -26.05 -35.45 -26.25 -35.95 M-21.15 -39.5 Q-21.45 -40.0 -21.0 -40.3 -20.55 -40.6 -20.25 -40.1 -19.95 -39.6 -20.45 -39.3 -20.9 -39.0 -21.15 -39.5 M-22.8 -38.75 Q-23.05 -39.0 -22.6 -39.35 -22.15 -39.65 -21.95 -39.25 -21.75 -38.85 -22.15 -38.65 L-22.8 -38.75 M-24.4 -37.45 Q-24.65 -37.8 -24.3 -38.05 L-23.65 -38.0 Q-23.4 -37.7 -23.8 -37.4 L-24.4 -37.45 M-26.45 -33.25 Q-26.7 -33.05 -26.9 -33.35 -27.05 -33.65 -26.75 -33.85 -26.5 -34.0 -26.35 -33.7 -26.15 -33.4 -26.45 -33.25 M-27.35 -31.65 Q-26.75 -32.1 -26.5 -31.55 -26.2 -31.0 -26.75 -30.75 -27.3 -30.45 -27.65 -30.85 -27.95 -31.2 -27.35 -31.65 M-26.95 -29.7 Q-26.7 -29.45 -27.05 -29.2 -27.4 -28.9 -27.6 -29.2 -27.85 -29.55 -27.5 -29.75 L-26.95 -29.7 M-26.85 -27.15 Q-27.2 -26.9 -27.35 -27.25 L-27.2 -27.8 -26.7 -27.7 Q-26.5 -27.45 -26.85 -27.15 M-25.75 -24.35 Q-26.15 -24.1 -26.4 -24.5 -26.65 -24.95 -26.25 -25.2 -25.85 -25.45 -25.6 -25.05 -25.35 -24.6 -25.75 -24.35 M-21.7 -20.8 Q-21.9 -21.2 -21.5 -21.45 L-20.95 -21.35 Q-20.75 -21.05 -21.15 -20.7 -21.55 -20.4 -21.7 -20.8 M-23.2 -21.3 L-23.8 -21.35 Q-24.05 -21.7 -23.7 -21.95 L-23.05 -21.9 Q-22.8 -21.6 -23.2 -21.3 M-25.25 -22.2 Q-25.7 -21.95 -26.0 -22.3 -26.3 -22.6 -25.8 -23.0 L-25.0 -22.9 Q-24.75 -22.45 -25.25 -22.2" fill="#ffffff" fill-opacity="0.81960785" fill-rule="evenodd" stroke="none"/>
      <path d="M21.45 -13.9 Q12.35 -9.4 6.4 -11.5 4.85 -13.8 5.7 -14.9 6.5 -16.0 7.15 -16.15 L7.25 -16.15 Q7.15 -11.6 14.3 -12.3 17.85 -12.65 21.45 -13.9" fill="#c05b17" fill-rule="evenodd" stroke="none"/>
      <path d="M7.25 -16.15 Q10.2 -16.9 12.75 -15.45 14.0 -16.0 16.6 -15.1 L16.95 -15.25 Q18.25 -15.8 21.45 -13.9 17.85 -12.65 14.3 -12.3 7.15 -11.6 7.25 -16.15 M16.6 -15.1 L15.6 -14.25 16.6 -15.1 M12.75 -15.45 L12.35 -15.3 11.35 -14.45 12.35 -15.3 12.75 -15.45" fill="#df6c1f" fill-rule="evenodd" stroke="none"/>
      <path d="M21.45 -13.9 Q12.35 -9.4 6.4 -11.5 4.85 -13.8 5.7 -14.9 6.5 -16.0 7.15 -16.15 L7.25 -16.15 Q10.2 -16.9 12.75 -15.45 14.0 -16.0 16.6 -15.1 L16.95 -15.25 Q18.25 -15.8 21.45 -13.9 M11.35 -14.45 L12.35 -15.3 12.75 -15.45 M15.6 -14.25 L16.6 -15.1" fill="none" stroke="#000000" stroke-linecap="round" stroke-linejoin="round" stroke-opacity="0.29803923" stroke-width="0.30000000000000004"/>
      <path d="M9.7 -18.7 L9.75 -19.35 10.25 -20.6 Q10.65 -21.35 11.65 -21.4 L13.1 -21.4 14.15 -19.9 14.15 -19.85 Q13.75 -17.0 12.3 -16.85 10.3 -17.5 9.7 -18.7 M12.9 -18.3 L13.15 -19.0 Q13.15 -19.55 12.95 -19.3 L12.6 -18.75 11.6 -18.15 11.65 -17.9 12.3 -17.8 Q12.6 -17.8 12.9 -18.3 M11.2 -20.7 L11.0 -20.3 11.05 -20.1 Q11.15 -19.9 11.5 -19.9 12.2 -19.9 12.2 -20.7 L11.75 -20.95 Q11.4 -20.95 11.2 -20.7" fill="#23170b" fill-rule="evenodd" stroke="none"/>
      <path d="M11.2 -20.7 Q11.4 -20.95 11.75 -20.95 L12.2 -20.7 Q12.2 -19.9 11.5 -19.9 11.15 -19.9 11.05 -20.1 L11.0 -20.3 11.2 -20.7 M12.9 -18.3 Q12.6 -17.8 12.3 -17.8 L11.65 -17.9 11.6 -18.15 12.6 -18.75 12.95 -19.3 Q13.15 -19.55 13.15 -19.0 L12.9 -18.3" fill="#ada49a" fill-rule="evenodd" stroke="none"/>
      <path d="M9.7 -18.7 Q10.3 -17.5 12.3 -16.85 13.75 -17.0 14.15 -19.85 L14.5 -18.75 Q13.25 -15.55 11.95 -16.3 9.8 -17.4 9.7 -18.7" fill="#bbd1d7" fill-rule="evenodd" stroke="none"/>
      <path d="M14.15 -19.85 L14.15 -19.9 13.1 -21.4 11.65 -21.4 Q10.65 -21.35 10.25 -20.6 L9.75 -19.35 9.7 -18.7 Q10.3 -17.5 12.3 -16.85 13.75 -17.0 14.15 -19.85 Z" fill="none" stroke="#000000" stroke-linecap="round" stroke-linejoin="round" stroke-opacity="0.3019608" stroke-width="0.30000000000000004"/>
      <path d="M-3.1 -18.7 L-3.05 -19.35 -2.55 -20.6 Q-2.15 -21.35 -1.15 -21.4 L0.3 -21.4 1.35 -19.9 1.35 -19.85 Q0.95 -17.0 -0.5 -16.85 -2.5 -17.5 -3.1 -18.7 M-1.2 -18.15 L-1.15 -17.9 -0.5 -17.8 0.1 -18.3 0.35 -19.0 Q0.35 -19.55 0.15 -19.3 L-0.2 -18.75 -1.2 -18.15 M-1.05 -20.95 L-1.6 -20.7 -1.8 -20.3 -1.75 -20.1 -1.3 -19.9 Q-0.6 -19.9 -0.6 -20.7 -0.6 -20.95 -1.05 -20.95" fill="#23170b" fill-rule="evenodd" stroke="none"/>
      <path d="M-1.05 -20.95 Q-0.6 -20.95 -0.6 -20.7 -0.6 -19.9 -1.3 -19.9 L-1.75 -20.1 -1.8 -20.3 -1.6 -20.7 -1.05 -20.95 M-1.2 -18.15 L-0.2 -18.75 0.15 -19.3 Q0.35 -19.55 0.35 -19.0 L0.1 -18.3 -0.5 -17.8 -1.15 -17.9 -1.2 -18.15" fill="#ada49a" fill-rule="evenodd" stroke="none"/>
      <path d="M-3.1 -18.7 Q-2.5 -17.5 -0.5 -16.85 0.95 -17.0 1.35 -19.85 L1.7 -18.75 Q0.45 -15.55 -0.85 -16.3 -3.0 -17.4 -3.1 -18.7" fill="#bbd1d7" fill-rule="evenodd" stroke="none"/>
      <path d="M1.35 -19.85 L1.35 -19.9 0.3 -21.4 -1.15 -21.4 Q-2.15 -21.35 -2.55 -20.6 L-3.05 -19.35 -3.1 -18.7 Q-2.5 -17.5 -0.5 -16.85 0.95 -17.0 1.35 -19.85 Z" fill="none" stroke="#000000" stroke-linecap="round" stroke-linejoin="round" stroke-opacity="0.3019608" stroke-width="0.30000000000000004"/>
    </g>
  </defs>
</svg>
