<?xml version="1.0" encoding="UTF-8" standalone="no"?>
<svg xmlns:xlink="http://www.w3.org/1999/xlink" height="51.8px" width="49.6px" xmlns="http://www.w3.org/2000/svg">
  <g transform="matrix(1.0, 0.0, 0.0, 1.0, 28.05, 50.45)">
    <use height="51.8" transform="matrix(1.0, 0.0, 0.0, 1.0, -28.05, -50.45)" width="49.6" xlink:href="#decoration203-shape0"/>
  </g>
  <defs>
    <g id="decoration203-shape0" transform="matrix(1.0, 0.0, 0.0, 1.0, 28.05, 50.45)">
      <path d="M7.75 -36.0 Q8.0 -38.05 8.65 -39.6 L9.65 -42.15 Q10.55 -44.25 10.9 -44.3 11.55 -45.35 12.15 -45.2 13.4 -44.95 13.85 -41.95 14.05 -41.95 14.3 -38.9 L14.05 -37.85 13.65 -37.0 11.35 -29.3 Q10.4 -27.7 10.05 -29.1 9.8 -29.7 9.8 -30.75 8.95 -28.15 8.4 -29.6 8.1 -30.35 8.0 -31.75 L7.7 -33.8 Q7.65 -35.6 7.75 -36.0" fill="#f2f7f8" fill-rule="evenodd" stroke="none"/>
      <path d="M7.75 -36.0 Q7.65 -35.6 7.7 -33.8 L8.0 -31.75 Q8.1 -30.35 8.4 -29.6 8.95 -28.15 9.8 -30.75 9.8 -29.7 10.05 -29.1 10.4 -27.7 11.35 -29.3 L13.65 -37.0 14.05 -37.85 14.3 -38.9 14.3 -35.45 14.2 -33.35 13.4 -29.75 12.95 -28.2 12.2 -26.5 11.35 -25.2 Q11.0 -24.7 9.3 -26.35 7.6 -28.0 7.65 -28.35 7.4 -29.85 7.5 -32.1 L7.6 -34.2 Q7.6 -35.5 7.75 -36.0" fill="#bbd1d7" fill-rule="evenodd" stroke="none"/>
      <path d="M8.7 -37.5 Q8.25 -37.2 7.9 -37.7 7.6 -38.15 8.0 -38.55 8.4 -38.95 8.8 -38.35 9.15 -37.75 8.7 -37.5 M8.8 -39.75 Q8.2 -39.5 7.85 -39.95 7.5 -40.4 8.0 -40.75 8.5 -41.05 8.95 -40.5 9.45 -39.95 8.8 -39.75 M9.4 -43.2 Q9.8 -43.45 10.0 -43.05 10.2 -42.6 9.9 -42.4 9.6 -42.2 9.35 -42.6 9.05 -42.95 9.4 -43.2 M11.1 -43.9 Q10.45 -43.6 10.25 -44.1 10.1 -44.6 10.45 -44.95 10.8 -45.35 11.25 -44.75 11.75 -44.2 11.1 -43.9 M13.1 -44.65 Q12.75 -44.45 12.55 -44.8 12.3 -45.1 12.6 -45.4 L13.15 -45.3 Q13.4 -44.85 13.1 -44.65 M14.25 -43.0 Q14.6 -42.6 14.15 -42.4 L14.0 -42.35 Q14.1 -42.0 13.85 -41.85 13.55 -41.65 13.3 -42.05 13.0 -42.4 13.35 -42.65 L13.4 -42.65 Q13.25 -42.95 13.55 -43.15 13.9 -43.4 14.25 -43.0 M13.9 -40.6 Q14.2 -40.95 14.6 -40.4 15.0 -39.9 14.45 -39.65 13.85 -39.4 13.7 -39.85 13.55 -40.25 13.9 -40.6 M14.45 -37.95 Q14.75 -38.25 15.0 -37.8 15.3 -37.35 14.95 -37.15 14.6 -36.9 14.35 -37.3 14.1 -37.65 14.45 -37.95 M13.9 -30.5 Q14.25 -30.1 13.8 -29.9 13.35 -29.65 13.2 -30.05 13.1 -30.4 13.35 -30.65 13.6 -30.9 13.9 -30.5 M13.95 -32.7 Q13.7 -33.05 14.05 -33.25 14.35 -33.5 14.55 -33.1 14.75 -32.7 14.5 -32.55 14.2 -32.35 13.95 -32.7 M14.0 -34.75 Q13.85 -35.0 14.1 -35.2 L14.65 -35.1 Q14.9 -34.75 14.55 -34.65 L14.0 -34.75 M12.75 -28.35 Q12.4 -28.15 12.2 -28.5 11.95 -28.8 12.25 -29.1 L12.8 -29.0 Q13.05 -28.55 12.75 -28.35 M10.05 -24.9 Q9.75 -25.25 10.1 -25.5 10.5 -25.75 10.7 -25.35 10.9 -24.9 10.6 -24.7 10.3 -24.5 10.05 -24.9 M12.7 -26.05 Q12.3 -25.95 12.1 -26.2 11.9 -26.45 12.2 -26.7 12.5 -26.9 12.8 -26.55 13.05 -26.2 12.7 -26.05 M7.45 -35.6 Q7.35 -35.95 7.6 -36.2 7.85 -36.45 8.15 -36.05 8.5 -35.65 8.05 -35.45 7.6 -35.2 7.45 -35.6 M8.15 -31.05 Q7.7 -30.9 7.45 -31.2 7.2 -31.55 7.55 -31.8 7.9 -32.05 8.25 -31.65 8.6 -31.25 8.15 -31.05 M7.85 -32.55 Q7.45 -32.35 7.15 -32.8 6.85 -33.25 7.25 -33.55 7.7 -33.85 7.95 -33.35 8.25 -32.8 7.85 -32.55 M8.7 -26.45 Q8.35 -26.3 8.25 -26.6 8.15 -26.85 8.35 -27.05 L8.8 -26.95 Q9.05 -26.65 8.7 -26.45 M7.8 -29.1 Q7.5 -28.9 7.3 -29.2 7.1 -29.5 7.35 -29.8 7.65 -30.05 7.85 -29.65 8.1 -29.25 7.8 -29.1" fill="#ffffff" fill-opacity="0.81960785" fill-rule="evenodd" stroke="none"/>
      <path d="M-15.2 -12.2 L-15.2 -13.15 -15.05 -14.0 Q-15.85 -15.9 -15.65 -17.2 -15.6 -18.1 -14.45 -19.0 -13.8 -24.45 -8.95 -27.8 -6.3 -29.65 -3.15 -29.6 -0.25 -31.2 3.35 -30.6 4.35 -30.4 5.0 -29.55 6.8 -29.4 8.05 -28.2 11.15 -27.25 13.15 -24.85 L13.95 -23.85 Q15.55 -21.55 15.25 -19.55 15.3 -8.0 8.85 -6.55 9.3 -5.25 5.85 -3.85 2.4 -2.45 -0.95 -4.95 -6.05 -3.55 -7.2 -5.65 -8.35 -7.75 -7.95 -8.35 L-10.2 -7.5 Q-12.95 -7.6 -15.2 -12.2" fill="#f2f7f8" fill-rule="evenodd" stroke="none"/>
      <path d="M-15.2 -12.2 Q-12.95 -7.6 -10.2 -7.5 L-7.95 -8.35 Q-8.35 -7.75 -7.2 -5.65 -6.05 -3.55 -0.95 -4.95 2.4 -2.45 5.85 -3.85 9.3 -5.25 8.85 -6.55 15.3 -8.0 15.25 -19.55 L15.4 -19.25 Q16.75 -16.35 16.05 -13.55 16.25 -13.0 15.85 -10.2 15.45 -7.45 12.3 -3.7 9.1 0.05 1.85 0.4 L-1.95 0.4 Q-5.35 0.85 -6.05 -0.75 -7.55 -0.8 -8.05 -1.45 -11.1 -2.4 -12.9 -4.9 -13.95 -6.4 -13.8 -8.0 -15.15 -10.1 -15.2 -12.2" fill="#bbd1d7" fill-rule="evenodd" stroke="none"/>
      <path d="M-0.7 -30.75 Q-0.45 -30.45 -0.9 -30.15 L-1.6 -30.25 Q-1.85 -30.65 -1.4 -30.85 L-0.7 -30.75 M-6.55 -29.25 Q-6.85 -29.6 -6.45 -29.9 L-5.75 -29.85 Q-5.5 -29.45 -5.9 -29.2 L-6.55 -29.25 M-8.0 -27.7 Q-8.45 -27.3 -8.8 -27.85 -9.15 -28.4 -8.7 -28.75 -8.25 -29.05 -7.9 -28.55 -7.55 -28.1 -8.0 -27.7 M-10.0 -26.5 Q-10.4 -26.2 -10.65 -26.6 -10.9 -27.0 -10.5 -27.2 L-9.8 -27.1 Q-9.6 -26.8 -10.0 -26.5 M-2.8 -29.25 L-3.2 -29.15 -3.55 -28.65 -4.4 -28.7 Q-4.75 -29.15 -4.25 -29.55 L-3.45 -29.6 -3.25 -29.85 -2.7 -29.8 Q-2.45 -29.55 -2.8 -29.25 M-12.1 -24.95 L-12.05 -25.25 -11.7 -25.25 Q-11.55 -25.1 -11.75 -24.95 -11.95 -24.75 -12.1 -24.95 M-14.15 -22.6 Q-14.5 -23.05 -13.95 -23.5 L-13.1 -23.4 Q-12.75 -22.9 -13.25 -22.55 L-14.15 -22.6 M-13.6 -21.6 Q-13.2 -21.0 -13.75 -20.55 -14.25 -20.05 -14.7 -20.75 -15.15 -21.4 -14.6 -21.75 -14.05 -22.15 -13.6 -21.6 M-13.8 -18.5 Q-14.3 -18.1 -14.65 -18.65 -14.95 -19.15 -14.4 -19.4 L-13.55 -19.3 Q-13.25 -18.9 -13.8 -18.5 M-15.95 -17.5 L-15.4 -17.45 Q-15.15 -17.2 -15.5 -16.9 L-16.1 -16.95 Q-16.3 -17.25 -15.95 -17.5 M-14.8 -15.05 Q-14.55 -14.65 -14.95 -14.4 L-15.6 -14.45 Q-15.9 -14.8 -15.5 -15.1 L-14.8 -15.05 M-15.6 -12.4 Q-15.9 -12.9 -15.5 -13.15 L-14.8 -13.05 Q-14.5 -12.6 -14.85 -12.25 -15.25 -11.9 -15.6 -12.4 M10.85 -26.35 Q10.55 -26.7 11.0 -27.05 L11.75 -27.0 Q12.0 -26.55 11.6 -26.25 11.15 -25.95 10.85 -26.35 M12.45 -24.6 Q12.2 -25.0 12.6 -25.3 13.05 -25.65 13.35 -25.3 13.65 -24.95 13.2 -24.6 12.75 -24.25 12.45 -24.6 M9.65 -27.25 Q9.3 -26.95 9.05 -27.35 8.75 -27.75 9.1 -28.0 9.45 -28.25 9.7 -27.9 10.0 -27.55 9.65 -27.25 M4.15 -30.5 Q4.4 -30.1 4.0 -29.85 L3.35 -29.9 Q3.05 -30.25 3.45 -30.55 L4.15 -30.5 M1.25 -31.1 Q1.55 -30.75 1.2 -30.45 0.85 -30.15 0.6 -30.55 0.3 -30.95 0.65 -31.2 1.0 -31.45 1.25 -31.1 M7.65 -28.3 Q7.25 -28.0 7.0 -28.4 6.75 -28.8 7.15 -29.0 L7.85 -28.9 Q8.05 -28.6 7.65 -28.3 M6.0 -29.1 L5.3 -29.15 Q5.05 -29.5 5.45 -29.8 L6.1 -29.75 Q6.4 -29.45 6.0 -29.1 M16.45 -19.05 Q16.8 -18.45 16.25 -18.1 15.7 -17.7 15.3 -18.2 14.95 -18.65 15.5 -19.1 L16.45 -19.05 M14.9 -22.45 Q14.55 -22.2 14.35 -22.55 14.15 -22.85 14.5 -23.05 L15.05 -22.95 Q15.25 -22.7 14.9 -22.45 M15.75 -20.3 Q15.4 -20.0 15.15 -20.4 14.85 -20.8 15.2 -21.05 L15.8 -20.95 Q16.1 -20.6 15.75 -20.3 M16.4 -16.25 Q16.1 -16.0 15.9 -16.25 15.65 -16.55 16.0 -16.75 16.3 -17.0 16.55 -16.75 16.75 -16.5 16.4 -16.25 M16.3 -13.7 Q16.05 -13.5 15.85 -13.8 15.7 -14.05 16.0 -14.2 L16.45 -14.15 16.3 -13.7 M16.3 -12.1 Q16.6 -11.65 16.2 -11.3 15.8 -10.9 15.45 -11.45 15.1 -11.95 15.55 -12.25 15.95 -12.55 16.3 -12.1 M15.45 -9.75 Q15.2 -10.05 15.55 -10.3 L16.15 -10.25 Q16.35 -9.9 16.0 -9.7 L15.45 -9.75 M14.85 -7.55 Q14.6 -7.9 15.0 -8.2 L15.65 -8.15 Q15.95 -7.85 15.55 -7.5 L14.85 -7.55 M14.5 -5.9 Q14.85 -5.5 14.25 -5.05 13.7 -4.65 13.3 -5.2 12.95 -5.75 13.55 -6.05 14.2 -6.35 14.5 -5.9 M12.4 -3.65 Q12.05 -3.35 11.75 -3.8 11.45 -4.25 11.85 -4.5 L12.5 -4.35 Q12.8 -3.95 12.4 -3.65 M10.95 -1.55 L10.15 -1.65 Q9.8 -2.05 10.3 -2.45 L11.15 -2.4 Q11.45 -1.9 10.95 -1.55 M-0.05 0.4 L-0.1 0.7 Q-0.3 0.9 -0.45 0.7 L-0.4 0.4 Q-0.2 0.25 -0.05 0.4 M1.9 0.45 Q2.15 0.85 1.75 1.1 L1.1 1.05 Q0.8 0.7 1.2 0.4 L1.9 0.45 M8.55 -1.05 Q8.35 -0.85 8.15 -1.05 8.0 -1.3 8.25 -1.45 L8.65 -1.45 Q8.8 -1.25 8.55 -1.05 M6.95 0.0 Q6.6 0.25 6.4 -0.1 6.2 -0.4 6.55 -0.6 L7.1 -0.5 Q7.3 -0.25 6.95 0.0 M4.95 0.0 Q5.25 0.4 4.85 0.7 4.5 1.0 4.2 0.55 3.9 0.1 4.3 -0.15 L4.95 0.0 M-8.5 -1.95 Q-8.2 -1.6 -8.7 -1.2 L-9.45 -1.25 Q-9.75 -1.65 -9.3 -2.0 L-8.5 -1.95 M-7.1 -0.2 Q-7.35 -0.5 -7.0 -0.75 L-6.5 -0.7 Q-6.3 -0.4 -6.6 -0.15 L-7.1 -0.2 M-10.4 -2.55 Q-10.65 -2.35 -10.85 -2.65 L-10.7 -3.05 -10.25 -3.0 Q-10.1 -2.75 -10.4 -2.55 M-5.0 0.1 Q-4.75 0.4 -5.05 0.7 L-5.6 0.55 Q-5.9 0.2 -5.55 -0.05 -5.25 -0.25 -5.0 0.1 M-2.05 0.45 Q-1.8 0.8 -2.3 1.15 L-3.1 1.05 Q-3.4 0.55 -2.9 0.3 -2.35 0.1 -2.05 0.45 M-15.4 -10.2 Q-15.65 -10.6 -15.25 -10.8 L-14.55 -10.7 Q-14.35 -10.4 -14.75 -10.1 -15.15 -9.8 -15.4 -10.2 M-13.3 -9.0 Q-12.95 -8.6 -13.45 -8.2 -13.95 -7.8 -14.3 -8.2 -14.6 -8.65 -14.1 -9.0 -13.6 -9.4 -13.3 -9.0 M-13.95 -6.65 L-13.1 -6.6 Q-12.8 -6.1 -13.3 -5.75 -13.8 -5.4 -14.1 -5.85 -14.45 -6.25 -13.95 -6.65 M-12.05 -3.5 Q-12.4 -3.2 -12.7 -3.65 -13.0 -4.1 -12.6 -4.35 -12.25 -4.6 -11.95 -4.2 -11.65 -3.8 -12.05 -3.5" fill="#ffffff" fill-opacity="0.81960785" fill-rule="evenodd" stroke="none"/>
      <path d="M-7.9 -24.2 Q-13.55 -29.7 -13.0 -39.15 -12.8 -42.1 -12.05 -45.15 L-11.3 -47.55 4.75 -50.3 16.05 -24.9 12.35 -25.9 Q2.25 -28.1 -7.85 -24.25 L-7.9 -24.2" fill="url(#decoration203-gradient0)" fill-rule="evenodd" stroke="none"/>
      <path d="M-11.3 -47.55 L-12.05 -45.15 Q-12.8 -42.1 -13.0 -39.15 -13.55 -29.7 -7.9 -24.2 -10.85 -23.1 -13.4 -21.55 L-14.85 -20.7 -17.45 -18.9 -16.0 -46.75 -11.3 -47.55" fill="#8a8a8a" fill-rule="evenodd" stroke="none"/>
      <path d="M12.35 -25.9 L16.05 -24.9 14.25 -23.7 12.35 -25.9 M-17.45 -18.9 L-14.85 -20.7 -13.4 -21.55 -14.5 -19.1 -14.85 -17.7 -17.45 -18.9" fill="#666666" fill-rule="evenodd" stroke="none"/>
      <path d="M-7.9 -24.2 L-7.85 -24.25 Q2.25 -28.1 12.35 -25.9 L16.05 -24.9 4.75 -50.3 -11.3 -47.55 -16.0 -46.75 -17.45 -18.9 -14.85 -20.7 -13.4 -21.55 Q-10.85 -23.1 -7.9 -24.2 M-17.45 -18.9 L-14.85 -17.7 -14.5 -19.1 -13.4 -21.55 M16.05 -24.9 L14.25 -23.7 12.35 -25.9" fill="none" stroke="#000000" stroke-linecap="round" stroke-linejoin="round" stroke-opacity="0.3019608" stroke-width="0.30000000000000004"/>
      <path d="M-14.4 -24.05 Q-12.1 -13.35 -7.35 -7.85 -2.65 -2.4 7.55 -3.85 17.75 -5.35 15.7 -24.75" fill="none" stroke="#666666" stroke-linecap="round" stroke-linejoin="round" stroke-width="0.5"/>
      <path d="M0.65 -5.35 Q6.1 -4.7 11.1 -6.65 12.15 -6.1 12.25 -5.5 6.35 -3.0 2.95 -3.95 0.95 -4.05 0.65 -5.35" fill="#814813" fill-rule="evenodd" stroke="none"/>
      <path d="M12.25 -5.5 Q12.4 -4.8 11.5 -4.1 6.5 -2.05 1.1 -2.75 -0.5 -3.65 0.65 -5.35 0.95 -4.05 2.95 -3.95 6.35 -3.0 12.25 -5.5" fill="#683709" fill-rule="evenodd" stroke="none"/>
      <path d="M0.65 -5.35 Q6.1 -4.7 11.1 -6.65 12.15 -6.1 12.25 -5.5 12.4 -4.8 11.5 -4.1 6.5 -2.05 1.1 -2.75 -0.5 -3.65 0.65 -5.35 Z" fill="none" stroke="#000000" stroke-linecap="round" stroke-linejoin="round" stroke-opacity="0.29803923" stroke-width="0.30000000000000004"/>
      <path d="M-27.25 -28.7 L-27.45 -29.85 -27.55 -31.3 Q-27.5 -31.95 -26.8 -32.5 -26.35 -36.1 -23.2 -38.35 -21.5 -39.6 -19.45 -39.55 -17.6 -40.55 -15.25 -40.2 L-13.8 -39.55 -12.25 -38.55 Q-10.25 -37.95 -8.95 -36.4 -8.75 -36.1 -8.6 -34.15 -8.45 -32.1 -8.7 -31.8 -8.75 -30.15 -9.3 -29.0 -10.35 -26.7 -13.45 -27.75 -14.55 -24.1 -16.8 -23.1 -19.1 -22.15 -20.9 -22.6 -22.75 -23.1 -24.25 -25.35 -25.0 -26.45 -25.15 -27.75 -25.4 -27.6 -26.25 -28.05 -27.05 -28.4 -27.25 -28.7" fill="#f2f7f8" fill-rule="evenodd" stroke="none"/>
      <path d="M-8.95 -36.4 L-8.15 -34.9 Q-7.5 -33.5 -7.6 -32.9 -6.55 -30.85 -7.1 -28.9 -6.95 -28.55 -8.5 -27.25 -10.1 -25.95 -11.9 -22.95 -13.75 -20.0 -16.25 -19.75 L-18.7 -19.75 Q-20.9 -19.45 -21.35 -20.45 -22.35 -20.55 -22.65 -20.95 -24.65 -21.55 -25.8 -23.2 -26.5 -24.25 -26.35 -25.25 -27.4 -26.95 -27.25 -28.7 -27.05 -28.4 -26.25 -28.05 -25.4 -27.6 -25.15 -27.75 -25.0 -26.45 -24.25 -25.35 -22.75 -23.1 -20.9 -22.6 -19.1 -22.15 -16.8 -23.1 -14.55 -24.1 -13.45 -27.75 -10.35 -26.7 -9.3 -29.0 -8.75 -30.15 -8.7 -31.8 -8.45 -32.1 -8.6 -34.15 -8.75 -36.1 -8.95 -36.4" fill="#bbd1d7" fill-rule="evenodd" stroke="none"/>
      <path d="M-16.05 -40.2 Q-15.85 -39.9 -16.2 -39.7 -16.5 -39.55 -16.7 -39.85 -16.9 -40.2 -16.55 -40.35 L-16.05 -40.2 M-19.1 -39.5 Q-19.45 -39.95 -19.0 -40.3 -18.55 -40.6 -18.15 -40.15 -17.8 -39.7 -18.3 -39.4 L-19.1 -39.5 M-20.45 -39.1 Q-20.95 -38.85 -21.1 -39.25 -21.3 -39.65 -20.9 -39.95 -20.55 -40.25 -20.25 -39.8 -19.95 -39.35 -20.45 -39.1 M-13.4 -40.1 L-13.05 -39.85 Q-12.75 -39.4 -13.25 -38.95 -13.75 -38.5 -14.15 -39.05 -14.4 -39.45 -14.25 -39.7 -14.5 -40.1 -14.1 -40.35 L-13.45 -40.25 -13.4 -40.1 M-11.15 -37.5 Q-11.5 -37.3 -11.6 -37.6 L-11.45 -38.1 Q-11.2 -38.35 -11.0 -38.0 -10.75 -37.7 -11.15 -37.5 M-9.4 -37.25 Q-9.1 -36.85 -9.5 -36.6 -9.95 -36.3 -10.25 -36.7 -10.55 -37.1 -10.15 -37.4 -9.75 -37.65 -9.4 -37.25 M-8.6 -34.95 Q-8.15 -35.1 -7.95 -34.75 -7.8 -34.4 -8.15 -34.2 -8.55 -34.0 -8.75 -34.4 -9.0 -34.8 -8.6 -34.95 M-6.6 -30.7 Q-6.3 -30.25 -6.75 -30.0 -7.25 -29.8 -7.4 -30.15 -7.55 -30.55 -7.2 -30.8 -6.85 -31.1 -6.6 -30.7 M-7.45 -32.6 Q-7.8 -32.3 -8.05 -32.7 -8.3 -33.1 -7.9 -33.3 L-7.35 -33.25 Q-7.15 -32.9 -7.45 -32.6 M-7.35 -28.65 Q-7.55 -28.9 -7.25 -29.1 L-6.75 -29.0 Q-6.55 -28.75 -6.85 -28.55 -7.15 -28.35 -7.35 -28.65 M-9.0 -26.8 L-8.85 -27.2 Q-8.55 -27.3 -8.45 -27.05 -8.3 -26.8 -8.55 -26.65 -8.85 -26.55 -9.0 -26.8 M-10.05 -25.45 Q-10.3 -25.85 -9.9 -26.1 L-9.25 -26.0 Q-9.05 -25.65 -9.4 -25.35 -9.75 -25.0 -10.05 -25.45 M-11.65 -23.45 L-11.5 -23.95 Q-11.25 -24.2 -11.05 -23.85 -10.8 -23.55 -11.2 -23.35 -11.55 -23.15 -11.65 -23.45 M-12.85 -21.7 Q-13.1 -21.55 -13.3 -21.8 -13.5 -22.05 -13.25 -22.2 L-12.8 -22.15 Q-12.6 -21.9 -12.85 -21.7 M-14.3 -19.55 Q-14.7 -19.35 -14.9 -19.75 -15.15 -20.15 -14.75 -20.3 -14.3 -20.45 -14.1 -20.1 -13.95 -19.75 -14.3 -19.55 M-16.9 -19.75 Q-17.15 -20.15 -16.75 -20.35 L-16.2 -20.3 Q-16.0 -19.95 -16.3 -19.65 -16.65 -19.35 -16.9 -19.75 M-19.5 -19.35 Q-19.7 -19.85 -19.25 -20.2 -18.8 -20.55 -18.45 -20.0 -18.05 -19.45 -18.65 -19.15 -19.3 -18.85 -19.5 -19.35 M-24.9 -37.1 Q-25.2 -37.65 -24.6 -37.85 -24.05 -38.1 -23.75 -37.6 -23.5 -37.15 -24.05 -36.85 -24.55 -36.55 -24.9 -37.1 M-22.45 -39.2 Q-22.2 -38.8 -22.6 -38.45 -23.0 -38.05 -23.35 -38.55 -23.7 -39.0 -23.2 -39.3 L-22.45 -39.2 M-25.8 -34.95 Q-26.35 -34.6 -26.75 -35.15 -27.15 -35.65 -26.6 -36.0 -26.1 -36.4 -25.65 -35.85 -25.25 -35.3 -25.8 -34.95 M-26.0 -33.8 Q-25.7 -33.35 -26.2 -33.05 -26.75 -32.8 -26.95 -33.25 -27.1 -33.65 -26.75 -34.0 -26.35 -34.3 -26.0 -33.8 M-27.35 -31.0 Q-27.7 -30.7 -27.95 -31.1 -28.2 -31.5 -27.8 -31.7 L-27.25 -31.65 Q-27.05 -31.3 -27.35 -31.0 M-26.95 -28.5 Q-27.35 -28.3 -27.6 -28.7 -27.85 -29.15 -27.4 -29.3 -26.95 -29.5 -26.75 -29.1 -26.55 -28.75 -26.95 -28.5 M-26.75 -27.75 Q-26.4 -27.3 -26.85 -27.0 -27.3 -26.7 -27.65 -27.15 -27.95 -27.55 -27.5 -27.85 L-26.75 -27.75 M-26.75 -25.0 Q-26.95 -25.4 -26.55 -25.7 -26.2 -26.0 -25.9 -25.55 -25.6 -25.1 -26.1 -24.85 -26.6 -24.6 -26.75 -25.0 M-25.75 -22.25 Q-26.0 -22.65 -25.6 -22.85 L-25.05 -22.8 Q-24.85 -22.45 -25.15 -22.15 -25.5 -21.85 -25.75 -22.25 M-24.1 -21.0 Q-24.35 -21.4 -23.95 -21.55 -23.5 -21.7 -23.3 -21.35 -23.15 -21.0 -23.5 -20.8 -23.9 -20.6 -24.1 -21.0 M-22.15 -20.5 L-22.1 -20.9 -21.65 -20.85 Q-21.45 -20.6 -21.7 -20.4 L-22.15 -20.5" fill="#ffffff" fill-opacity="0.81960785" fill-rule="evenodd" stroke="none"/>
      <path d="M21.4 -13.55 Q12.3 -9.05 6.35 -11.15 4.8 -13.45 5.65 -14.55 6.45 -15.65 7.1 -15.8 L7.2 -15.8 Q7.1 -11.25 14.25 -11.95 17.8 -12.3 21.4 -13.55" fill="#c05b17" fill-rule="evenodd" stroke="none"/>
      <path d="M7.2 -15.8 Q10.15 -16.55 12.7 -15.1 13.95 -15.65 16.55 -14.75 L16.9 -14.9 Q18.2 -15.45 21.4 -13.55 17.8 -12.3 14.25 -11.95 7.1 -11.25 7.2 -15.8 M16.55 -14.75 L15.55 -13.9 16.55 -14.75 M12.7 -15.1 L12.3 -14.95 11.3 -14.1 12.3 -14.95 12.7 -15.1" fill="#df6c1f" fill-rule="evenodd" stroke="none"/>
      <path d="M21.4 -13.55 Q12.3 -9.05 6.35 -11.15 4.8 -13.45 5.65 -14.55 6.45 -15.65 7.1 -15.8 L7.2 -15.8 Q10.15 -16.55 12.7 -15.1 13.95 -15.65 16.55 -14.75 L16.9 -14.9 Q18.2 -15.45 21.4 -13.55 M11.3 -14.1 L12.3 -14.95 12.7 -15.1 M15.55 -13.9 L16.55 -14.75" fill="none" stroke="#000000" stroke-linecap="round" stroke-linejoin="round" stroke-opacity="0.29803923" stroke-width="0.30000000000000004"/>
      <path d="M10.95 -20.35 L11.0 -20.15 Q11.1 -19.95 11.45 -19.95 12.15 -19.95 12.15 -20.75 12.15 -21.0 11.7 -21.0 L11.15 -20.75 10.95 -20.35 M9.65 -18.75 L9.7 -19.4 10.2 -20.65 Q10.6 -21.4 11.6 -21.45 L13.05 -21.45 14.1 -19.95 14.1 -19.9 Q13.7 -17.05 12.25 -16.9 10.25 -17.55 9.65 -18.75 M12.9 -19.35 L12.55 -18.8 11.55 -18.2 11.6 -17.95 12.25 -17.85 Q12.55 -17.85 12.85 -18.35 L13.1 -19.05 Q13.1 -19.6 12.9 -19.35" fill="#23170b" fill-rule="evenodd" stroke="none"/>
      <path d="M10.95 -20.35 L11.15 -20.75 11.7 -21.0 Q12.15 -21.0 12.15 -20.75 12.15 -19.95 11.45 -19.95 11.1 -19.95 11.0 -20.15 L10.95 -20.35 M12.9 -19.35 Q13.1 -19.6 13.1 -19.05 L12.85 -18.35 Q12.55 -17.85 12.25 -17.85 L11.6 -17.95 11.55 -18.2 12.55 -18.8 12.9 -19.35" fill="#ada49a" fill-rule="evenodd" stroke="none"/>
      <path d="M9.65 -18.75 Q10.25 -17.55 12.25 -16.9 13.7 -17.05 14.1 -19.9 L14.45 -18.8 Q13.2 -15.6 11.9 -16.35 9.75 -17.45 9.65 -18.75" fill="#bbd1d7" fill-rule="evenodd" stroke="none"/>
      <path d="M14.1 -19.9 L14.1 -19.95 13.05 -21.45 11.6 -21.45 Q10.6 -21.4 10.2 -20.65 L9.7 -19.4 9.65 -18.75 Q10.25 -17.55 12.25 -16.9 13.7 -17.05 14.1 -19.9 Z" fill="none" stroke="#000000" stroke-linecap="round" stroke-linejoin="round" stroke-opacity="0.3019608" stroke-width="0.30000000000000004"/>
      <path d="M-3.15 -18.75 L-3.1 -19.4 -2.6 -20.65 Q-2.2 -21.4 -1.2 -21.45 L0.25 -21.45 1.3 -19.95 1.3 -19.9 Q0.9 -17.05 -0.55 -16.9 -2.55 -17.55 -3.15 -18.75 M-1.25 -18.2 L-1.2 -17.95 -0.55 -17.85 0.05 -18.35 0.3 -19.05 Q0.3 -19.6 0.1 -19.35 L-0.25 -18.8 -1.25 -18.2 M-1.8 -20.15 L-1.35 -19.95 Q-0.65 -19.95 -0.65 -20.75 -0.65 -21.0 -1.1 -21.0 L-1.65 -20.75 -1.85 -20.35 -1.8 -20.15" fill="#23170b" fill-rule="evenodd" stroke="none"/>
      <path d="M-1.8 -20.15 L-1.85 -20.35 -1.65 -20.75 -1.1 -21.0 Q-0.65 -21.0 -0.65 -20.75 -0.65 -19.95 -1.35 -19.95 L-1.8 -20.15 M-1.25 -18.2 L-0.25 -18.8 0.1 -19.35 Q0.3 -19.6 0.3 -19.05 L0.05 -18.35 -0.55 -17.85 -1.2 -17.95 -1.25 -18.2" fill="#ada49a" fill-rule="evenodd" stroke="none"/>
      <path d="M-3.15 -18.75 Q-2.55 -17.55 -0.55 -16.9 0.9 -17.05 1.3 -19.9 L1.65 -18.8 Q0.4 -15.6 -0.9 -16.35 -3.05 -17.45 -3.15 -18.75" fill="#bbd1d7" fill-rule="evenodd" stroke="none"/>
      <path d="M1.3 -19.9 L1.3 -19.95 0.25 -21.45 -1.2 -21.45 Q-2.2 -21.4 -2.6 -20.65 L-3.1 -19.4 -3.15 -18.75 Q-2.55 -17.55 -0.55 -16.9 0.9 -17.05 1.3 -19.9 Z" fill="none" stroke="#000000" stroke-linecap="round" stroke-linejoin="round" stroke-opacity="0.3019608" stroke-width="0.30000000000000004"/>
    </g>
    <linearGradient gradientTransform="matrix(0.0177, -0.0047, 0.005, 0.0185, -6.1, -38.35)" gradientUnits="userSpaceOnUse" id="decoration203-gradient0" spreadMethod="pad" x1="-819.2" x2="819.2">
      <stop offset="0.0" stop-color="#838383"/>
      <stop offset="0.7137254901960784" stop-color="#dbdbdb"/>
      <stop offset="1.0" stop-color="#838383"/>
    </linearGradient>
  </defs>
</svg>
