<?xml version="1.0" encoding="UTF-8" standalone="no"?>
<svg xmlns:xlink="http://www.w3.org/1999/xlink" height="51.65px" width="49.35px" xmlns="http://www.w3.org/2000/svg">
  <g transform="matrix(1.0, 0.0, 0.0, 1.0, 27.8, 50.45)">
    <use height="51.65" transform="matrix(1.0, 0.0, 0.0, 1.0, -27.8, -50.45)" width="49.35" xlink:href="#decoration203-shape0"/>
  </g>
  <defs>
    <g id="decoration203-shape0" transform="matrix(1.0, 0.0, 0.0, 1.0, 27.8, 50.45)">
      <path d="M14.3 -38.9 L14.05 -37.85 13.65 -37.0 11.35 -29.3 Q10.4 -27.7 10.05 -29.1 9.8 -29.7 9.8 -30.75 8.95 -28.15 8.4 -29.6 8.1 -30.35 8.0 -31.75 L7.7 -33.8 Q7.65 -35.6 7.75 -36.0 8.0 -38.05 8.65 -39.6 L9.65 -42.15 Q10.55 -44.25 10.9 -44.3 11.55 -45.35 12.15 -45.2 13.4 -44.95 13.85 -41.95 14.05 -41.95 14.3 -38.9" fill="#f2f7f8" fill-rule="evenodd" stroke="none"/>
      <path d="M7.75 -36.0 Q7.65 -35.6 7.7 -33.8 L8.0 -31.75 Q8.1 -30.35 8.4 -29.6 8.95 -28.15 9.8 -30.75 9.8 -29.7 10.05 -29.1 10.4 -27.7 11.35 -29.3 L13.65 -37.0 14.05 -37.85 14.3 -38.9 14.3 -35.45 14.2 -33.35 13.4 -29.75 12.95 -28.2 12.2 -26.5 11.35 -25.2 Q11.0 -24.7 9.3 -26.35 7.6 -28.0 7.65 -28.35 7.4 -29.85 7.5 -32.1 L7.6 -34.2 Q7.6 -35.5 7.75 -36.0" fill="#bbd1d7" fill-rule="evenodd" stroke="none"/>
      <path d="M11.65 -45.2 Q11.35 -45.55 11.8 -45.8 12.2 -46.05 12.4 -45.7 12.65 -45.3 12.3 -45.05 L12.1 -44.95 Q12.2 -44.75 11.95 -44.65 L11.6 -44.7 Q11.45 -44.85 11.7 -45.05 L11.75 -45.05 11.65 -45.2 M13.85 -43.7 Q14.05 -43.3 13.75 -43.0 13.45 -42.75 13.1 -43.2 12.8 -43.7 13.2 -43.9 13.65 -44.1 13.85 -43.7 M14.35 -41.1 Q13.9 -40.9 13.65 -41.35 13.4 -41.75 13.8 -41.95 14.2 -42.1 14.45 -41.7 14.75 -41.3 14.35 -41.1 M14.5 -38.7 L13.9 -38.8 Q13.65 -39.1 14.1 -39.35 L14.7 -39.3 Q14.85 -38.9 14.5 -38.7 M9.0 -41.25 Q8.8 -41.55 9.05 -41.65 9.35 -41.8 9.45 -41.55 9.6 -41.3 9.4 -41.1 9.2 -40.95 9.0 -41.25 M9.4 -43.0 Q9.15 -43.4 9.5 -43.55 9.85 -43.7 10.15 -43.35 10.4 -42.95 10.0 -42.8 9.65 -42.6 9.4 -43.0 M8.35 -38.7 Q8.05 -39.1 8.5 -39.4 8.95 -39.65 9.2 -39.25 9.45 -38.85 9.05 -38.6 8.65 -38.3 8.35 -38.7 M8.05 -34.6 Q7.7 -34.4 7.45 -34.8 7.2 -35.2 7.55 -35.35 7.9 -35.5 8.2 -35.15 8.45 -34.75 8.05 -34.6 M7.95 -36.1 Q7.6 -35.9 7.35 -36.2 7.1 -36.5 7.55 -36.75 L8.15 -36.7 Q8.3 -36.3 7.95 -36.1 M7.3 -33.35 Q7.7 -33.5 7.85 -33.15 8.0 -32.8 7.75 -32.55 7.5 -32.35 7.2 -32.75 6.95 -33.15 7.3 -33.35 M7.75 -29.5 Q7.35 -29.2 7.05 -29.6 6.75 -30.0 7.2 -30.3 7.65 -30.55 7.9 -30.15 8.15 -29.75 7.75 -29.5 M8.45 -27.85 Q8.6 -27.45 8.25 -27.25 7.9 -27.05 7.65 -27.35 7.4 -27.65 7.85 -27.9 L8.45 -27.85 M9.15 -26.2 Q8.85 -26.65 9.3 -26.85 9.7 -27.05 10.0 -26.6 10.3 -26.15 9.85 -25.95 9.4 -25.75 9.15 -26.2 M13.7 -36.55 Q13.4 -36.95 13.9 -37.25 14.35 -37.55 14.6 -37.1 14.9 -36.7 14.45 -36.4 14.05 -36.1 13.7 -36.55 M13.75 -31.65 Q13.45 -32.15 13.95 -32.35 14.4 -32.6 14.75 -32.05 15.15 -31.55 14.6 -31.35 14.1 -31.1 13.75 -31.65 M14.4 -33.6 Q14.2 -33.95 14.5 -34.1 L14.95 -33.95 Q15.1 -33.7 14.85 -33.5 14.65 -33.3 14.4 -33.6 M13.6 -29.8 L13.0 -29.85 Q12.8 -30.15 13.2 -30.4 13.6 -30.65 13.75 -30.3 L13.6 -29.8 M13.4 -28.05 Q13.65 -27.65 13.25 -27.4 12.85 -27.1 12.55 -27.5 12.25 -27.9 12.7 -28.2 13.15 -28.45 13.4 -28.05 M12.05 -25.6 Q12.3 -25.15 11.9 -24.8 11.55 -24.45 11.15 -25.05 10.75 -25.6 11.3 -25.85 11.8 -26.1 12.05 -25.6" fill="#ffffff" fill-opacity="0.81960785" fill-rule="evenodd" stroke="none"/>
      <path d="M-15.2 -12.2 L-15.2 -13.15 -15.05 -14.0 Q-15.85 -15.9 -15.65 -17.2 -15.6 -18.1 -14.45 -19.0 -13.8 -24.45 -8.95 -27.8 -6.3 -29.65 -3.15 -29.6 -0.25 -31.2 3.35 -30.6 4.35 -30.4 5.0 -29.55 6.8 -29.4 8.05 -28.2 11.15 -27.25 13.15 -24.85 L13.95 -23.85 Q15.55 -21.55 15.25 -19.55 15.3 -8.0 8.85 -6.55 9.3 -5.25 5.85 -3.85 2.4 -2.45 -0.95 -4.95 -6.05 -3.55 -7.2 -5.65 -8.35 -7.75 -7.95 -8.35 L-10.2 -7.5 Q-12.95 -7.6 -15.2 -12.2" fill="#f2f7f8" fill-rule="evenodd" stroke="none"/>
      <path d="M-15.2 -12.2 Q-12.95 -7.6 -10.2 -7.5 L-7.95 -8.35 Q-8.35 -7.75 -7.2 -5.65 -6.05 -3.55 -0.95 -4.95 2.4 -2.45 5.85 -3.85 9.3 -5.25 8.85 -6.55 15.3 -8.0 15.25 -19.55 L15.4 -19.25 Q16.75 -16.35 16.05 -13.55 16.25 -13.0 15.85 -10.2 15.45 -7.45 12.3 -3.7 9.1 0.05 1.85 0.4 L-1.95 0.4 Q-5.35 0.85 -6.05 -0.75 -7.55 -0.8 -8.05 -1.45 -11.1 -2.4 -12.9 -4.9 -13.95 -6.4 -13.8 -8.0 -15.15 -10.1 -15.2 -12.2" fill="#bbd1d7" fill-rule="evenodd" stroke="none"/>
      <path d="M4.25 -31.1 Q4.55 -30.6 4.1 -30.25 3.6 -29.95 3.25 -30.45 2.9 -31.0 3.4 -31.3 3.9 -31.65 4.25 -31.1 M1.55 -31.25 Q1.8 -30.85 1.4 -30.65 1.05 -30.4 0.85 -30.8 0.65 -31.15 1.0 -31.4 1.3 -31.6 1.55 -31.25 M4.85 -30.05 Q5.2 -30.3 5.45 -29.9 5.7 -29.5 5.35 -29.35 5.0 -29.2 4.75 -29.5 4.5 -29.8 4.85 -30.05 M9.3 -27.95 Q9.45 -27.7 9.2 -27.55 8.95 -27.4 8.8 -27.65 8.7 -27.9 8.9 -28.05 L9.3 -27.95 M7.0 -28.75 Q6.75 -28.6 6.55 -28.95 6.35 -29.25 6.65 -29.4 6.9 -29.5 7.1 -29.2 7.25 -28.95 7.0 -28.75 M13.6 -25.5 Q13.9 -25.05 13.7 -24.8 L13.75 -24.75 Q14.05 -24.25 13.65 -24.1 13.2 -23.9 12.95 -24.25 12.75 -24.45 12.85 -24.65 L12.55 -24.9 Q12.15 -25.35 12.7 -25.75 13.2 -26.15 13.6 -25.5 M11.25 -26.4 Q11.0 -26.75 11.35 -26.95 11.65 -27.15 11.85 -26.8 12.05 -26.45 11.75 -26.25 11.45 -26.05 11.25 -26.4 M16.3 -18.75 Q16.5 -18.35 16.2 -18.15 15.85 -17.95 15.6 -18.3 15.35 -18.65 15.7 -18.9 L16.3 -18.75 M15.4 -20.4 Q15.1 -20.2 14.95 -20.5 14.8 -20.85 15.1 -21.05 L15.55 -20.9 Q15.75 -20.6 15.4 -20.4 M14.3 -22.65 Q14.15 -22.95 14.4 -23.05 L14.8 -22.9 Q14.95 -22.65 14.75 -22.5 14.5 -22.35 14.3 -22.65 M16.35 -15.85 Q16.05 -15.75 15.85 -16.0 15.65 -16.2 15.95 -16.45 16.2 -16.65 16.4 -16.3 16.65 -15.95 16.35 -15.85 M16.55 -13.35 Q16.1 -13.05 15.75 -13.6 15.45 -14.15 15.9 -14.35 16.4 -14.6 16.7 -14.1 17.0 -13.6 16.55 -13.35 M6.15 -0.4 Q6.4 0.0 6.0 0.25 5.65 0.45 5.35 0.0 5.1 -0.45 5.5 -0.6 5.9 -0.8 6.15 -0.4 M8.05 -0.65 Q7.75 -1.0 8.15 -1.3 8.55 -1.6 8.85 -1.15 9.15 -0.65 8.75 -0.5 8.3 -0.3 8.05 -0.65 M10.05 -1.8 L10.5 -1.7 Q10.7 -1.4 10.45 -1.2 10.15 -1.0 9.95 -1.3 9.75 -1.6 10.05 -1.8 M16.3 -11.1 Q15.85 -10.85 15.7 -11.25 15.5 -11.7 15.85 -11.95 16.15 -12.15 16.45 -11.75 16.7 -11.35 16.3 -11.1 M16.4 -9.4 Q16.1 -9.2 15.9 -9.55 15.65 -9.9 16.0 -10.1 16.3 -10.3 16.5 -9.95 16.7 -9.6 16.4 -9.4 M14.05 -6.5 Q13.75 -6.85 14.15 -7.15 14.55 -7.45 14.85 -7.0 15.15 -6.5 14.75 -6.35 14.3 -6.15 14.05 -6.5 M13.65 -4.85 Q13.45 -4.7 13.3 -4.95 13.15 -5.2 13.35 -5.3 L13.75 -5.2 Q13.9 -4.95 13.65 -4.85 M12.4 -3.3 Q11.95 -3.05 11.8 -3.45 11.6 -3.9 11.95 -4.15 12.25 -4.35 12.55 -3.95 12.8 -3.55 12.4 -3.3 M1.1 0.5 Q0.95 0.25 1.2 0.05 1.45 -0.1 1.65 0.2 1.8 0.45 1.55 0.65 L1.1 0.5 M3.35 0.75 Q3.15 0.3 3.5 0.05 3.8 -0.15 4.1 0.25 4.35 0.65 3.95 0.9 3.5 1.15 3.35 0.75 M-11.85 -25.25 L-12.25 -25.35 -12.2 -25.7 Q-11.95 -25.9 -11.8 -25.6 -11.65 -25.35 -11.85 -25.25 M-10.2 -27.55 Q-9.75 -27.75 -9.5 -27.3 -9.25 -26.85 -9.65 -26.65 -10.0 -26.4 -10.3 -26.9 -10.6 -27.35 -10.2 -27.55 M-5.85 -29.2 Q-6.05 -29.5 -5.75 -29.7 L-5.3 -29.6 Q-5.1 -29.3 -5.35 -29.1 -5.65 -28.9 -5.85 -29.2 M-7.55 -27.9 Q-8.0 -27.6 -8.25 -28.1 -8.45 -28.55 -8.05 -28.85 -7.65 -29.15 -7.35 -28.65 -7.05 -28.2 -7.55 -27.9 M-1.35 -29.85 Q-1.6 -30.25 -1.25 -30.4 -0.9 -30.55 -0.7 -30.2 -0.5 -29.85 -0.8 -29.65 -1.15 -29.5 -1.35 -29.85 M-3.6 -29.75 Q-3.85 -30.05 -3.45 -30.35 -3.1 -30.6 -2.85 -30.15 -2.55 -29.7 -2.95 -29.55 -3.35 -29.4 -3.6 -29.75 M-13.7 -23.65 Q-13.95 -24.0 -13.6 -24.25 -13.25 -24.45 -13.0 -24.1 -12.8 -23.7 -13.1 -23.5 -13.45 -23.3 -13.7 -23.65 M-14.0 -21.75 Q-13.75 -21.35 -14.15 -21.15 -14.5 -20.9 -14.7 -21.3 -14.9 -21.65 -14.55 -21.9 -14.25 -22.1 -14.0 -21.75 M-14.1 -18.9 Q-14.45 -18.7 -14.75 -19.15 -15.0 -19.6 -14.6 -19.75 -14.2 -19.95 -13.95 -19.55 -13.7 -19.15 -14.1 -18.9 M-15.85 -17.55 Q-16.05 -17.85 -15.75 -18.05 L-15.2 -17.95 Q-14.95 -17.55 -15.3 -17.45 L-15.85 -17.55 M-15.2 -13.9 Q-14.8 -14.15 -14.55 -13.75 -14.25 -13.3 -14.7 -13.0 -15.15 -12.75 -15.35 -13.2 -15.55 -13.65 -15.2 -13.9 M-15.65 -15.8 Q-15.25 -16.05 -15.0 -15.65 -14.75 -15.2 -15.1 -14.95 -15.5 -14.7 -15.8 -15.1 -16.05 -15.55 -15.65 -15.8 M-14.9 -10.85 Q-15.25 -10.65 -15.5 -11.05 -15.75 -11.45 -15.4 -11.65 -15.0 -11.8 -14.8 -11.4 -14.55 -11.05 -14.9 -10.85 M-13.55 -6.3 Q-13.95 -6.05 -14.25 -6.45 -14.5 -6.9 -14.1 -7.15 -13.7 -7.4 -13.45 -7.0 -13.2 -6.55 -13.55 -6.3 M-14.05 -8.55 Q-14.5 -8.35 -14.75 -8.7 -15.05 -9.05 -14.65 -9.35 -14.25 -9.65 -13.95 -9.2 -13.65 -8.7 -14.05 -8.55 M-11.15 -2.55 Q-11.5 -2.3 -11.8 -2.8 -12.1 -3.25 -11.7 -3.45 -11.25 -3.65 -11.0 -3.2 -10.75 -2.75 -11.15 -2.55 M-12.55 -3.95 Q-13.0 -3.7 -13.2 -4.15 -13.4 -4.6 -13.05 -4.85 -12.65 -5.1 -12.4 -4.7 -12.1 -4.25 -12.55 -3.95 M-7.45 -0.7 Q-7.9 -0.4 -8.25 -0.9 -8.55 -1.4 -8.1 -1.7 -7.6 -2.0 -7.3 -1.5 -7.0 -1.0 -7.45 -0.7 M-8.85 -1.4 Q-9.15 -1.3 -9.35 -1.55 -9.55 -1.75 -9.25 -2.0 -9.0 -2.2 -8.8 -1.85 -8.55 -1.5 -8.85 -1.4 M-0.45 -0.3 Q-0.15 0.2 -0.55 0.35 -1.0 0.55 -1.25 0.2 -1.55 -0.15 -1.15 -0.45 -0.75 -0.75 -0.45 -0.3 M-5.65 0.8 Q-5.95 0.25 -5.45 -0.1 -5.0 -0.45 -4.65 0.15 -4.3 0.7 -4.85 1.05 -5.4 1.4 -5.65 0.8 M-3.45 0.6 Q-3.6 0.35 -3.4 0.25 -3.15 0.15 -3.0 0.35 -2.85 0.6 -3.1 0.7 -3.3 0.85 -3.45 0.6" fill="#ffffff" fill-opacity="0.81960785" fill-rule="evenodd" stroke="none"/>
      <path d="M12.35 -25.9 L16.05 -24.9 14.25 -23.7 12.35 -25.9 M-13.4 -21.55 L-14.5 -19.1 -14.85 -17.7 -17.45 -18.9 -14.85 -20.7 -13.4 -21.55" fill="#666666" fill-rule="evenodd" stroke="none"/>
      <path d="M16.05 -24.9 L12.35 -25.9 Q2.25 -28.1 -7.85 -24.25 L-7.9 -24.2 Q-13.55 -29.7 -13.0 -39.15 -12.8 -42.1 -12.05 -45.15 L-11.3 -47.55 4.75 -50.3 16.05 -24.9" fill="url(#decoration203-gradient0)" fill-rule="evenodd" stroke="none"/>
      <path d="M-11.3 -47.55 L-12.05 -45.15 Q-12.8 -42.1 -13.0 -39.15 -13.55 -29.7 -7.9 -24.2 -10.85 -23.1 -13.4 -21.55 L-14.85 -20.7 -17.45 -18.9 -16.0 -46.75 -11.3 -47.55" fill="#8a8a8a" fill-rule="evenodd" stroke="none"/>
      <path d="M12.35 -25.9 L16.05 -24.9 4.75 -50.3 -11.3 -47.55 M-7.9 -24.2 L-7.85 -24.25 Q2.25 -28.1 12.35 -25.9 L14.25 -23.7 16.05 -24.9 M-17.45 -18.9 L-16.0 -46.75 -11.3 -47.55 M-17.45 -18.9 L-14.85 -17.7 -14.5 -19.1 -13.4 -21.55 -14.85 -20.7 -17.45 -18.9 M-13.4 -21.55 Q-10.85 -23.1 -7.9 -24.2" fill="none" stroke="#000000" stroke-linecap="round" stroke-linejoin="round" stroke-opacity="0.3019608" stroke-width="0.30000000000000004"/>
      <path d="M-14.4 -24.05 Q-12.1 -13.35 -7.35 -7.85 -2.65 -2.4 7.55 -3.85 17.75 -5.35 15.7 -24.75" fill="none" stroke="#666666" stroke-linecap="round" stroke-linejoin="round" stroke-width="0.5"/>
      <path d="M0.65 -5.35 Q6.1 -4.7 11.1 -6.65 12.15 -6.1 12.25 -5.5 6.35 -3.0 2.95 -3.95 0.95 -4.05 0.65 -5.35" fill="#814813" fill-rule="evenodd" stroke="none"/>
      <path d="M12.25 -5.5 Q12.4 -4.8 11.5 -4.1 6.5 -2.05 1.1 -2.75 -0.5 -3.65 0.65 -5.35 0.95 -4.05 2.95 -3.95 6.35 -3.0 12.25 -5.5" fill="#683709" fill-rule="evenodd" stroke="none"/>
      <path d="M0.65 -5.35 Q6.1 -4.7 11.1 -6.65 12.15 -6.1 12.25 -5.5 12.4 -4.8 11.5 -4.1 6.5 -2.05 1.1 -2.75 -0.5 -3.65 0.65 -5.35 Z" fill="none" stroke="#000000" stroke-linecap="round" stroke-linejoin="round" stroke-opacity="0.29803923" stroke-width="0.30000000000000004"/>
      <path d="M-27.25 -28.7 L-27.45 -29.85 -27.55 -31.3 Q-27.5 -31.95 -26.8 -32.5 -26.35 -36.1 -23.2 -38.35 -21.5 -39.6 -19.45 -39.55 -17.6 -40.55 -15.25 -40.2 L-13.8 -39.55 -12.25 -38.55 Q-10.25 -37.95 -8.95 -36.4 -8.75 -36.1 -8.6 -34.15 -8.45 -32.1 -8.7 -31.8 -8.75 -30.15 -9.3 -29.0 -10.35 -26.7 -13.45 -27.75 -14.55 -24.1 -16.8 -23.1 -19.1 -22.15 -20.9 -22.6 -22.75 -23.1 -24.25 -25.35 -25.0 -26.45 -25.15 -27.75 -25.4 -27.6 -26.25 -28.05 -27.05 -28.4 -27.25 -28.7" fill="#f2f7f8" fill-rule="evenodd" stroke="none"/>
      <path d="M-8.95 -36.4 L-8.15 -34.9 Q-7.5 -33.5 -7.6 -32.9 -6.55 -30.85 -7.1 -28.9 -6.95 -28.55 -8.5 -27.25 -10.1 -25.95 -11.9 -22.95 -13.75 -20.0 -16.25 -19.75 L-18.7 -19.75 Q-20.9 -19.45 -21.35 -20.45 -22.35 -20.55 -22.65 -20.95 -24.65 -21.55 -25.8 -23.2 -26.5 -24.25 -26.35 -25.25 -27.4 -26.95 -27.25 -28.7 -27.05 -28.4 -26.25 -28.05 -25.4 -27.6 -25.15 -27.75 -25.0 -26.45 -24.25 -25.35 -22.75 -23.1 -20.9 -22.6 -19.1 -22.15 -16.8 -23.1 -14.55 -24.1 -13.45 -27.75 -10.35 -26.7 -9.3 -29.0 -8.75 -30.15 -8.7 -31.8 -8.45 -32.1 -8.6 -34.15 -8.75 -36.1 -8.95 -36.4" fill="#bbd1d7" fill-rule="evenodd" stroke="none"/>
      <path d="M-17.35 -40.35 Q-17.7 -40.8 -17.2 -41.05 -16.65 -41.35 -16.4 -40.9 -16.1 -40.5 -16.55 -40.2 -17.0 -39.95 -17.35 -40.35 M-15.85 -40.6 Q-15.35 -40.95 -15.05 -40.45 -14.7 -39.9 -15.15 -39.65 -15.65 -39.35 -15.95 -39.8 -16.3 -40.25 -15.85 -40.6 M-19.7 -39.25 Q-20.0 -39.1 -20.2 -39.4 -20.4 -39.7 -20.1 -39.85 L-19.6 -39.75 Q-19.4 -39.45 -19.7 -39.25 M-13.15 -39.85 L-12.5 -39.75 Q-12.25 -39.4 -12.65 -39.2 L-13.3 -39.3 Q-13.5 -39.65 -13.15 -39.85 M-11.7 -37.7 Q-12.0 -38.2 -11.5 -38.55 -10.95 -38.85 -10.6 -38.3 -10.25 -37.8 -10.8 -37.5 -11.35 -37.2 -11.7 -37.7 M-10.35 -25.2 Q-10.05 -24.8 -10.55 -24.55 L-11.25 -24.65 Q-11.5 -25.05 -11.1 -25.3 L-10.35 -25.2 M-7.35 -34.5 Q-7.75 -34.3 -8.1 -34.7 -8.4 -35.1 -7.95 -35.45 -7.55 -35.75 -7.2 -35.25 -6.9 -34.75 -7.35 -34.5 M-9.25 -36.2 Q-9.45 -36.45 -9.15 -36.6 L-8.7 -36.5 Q-8.55 -36.3 -8.8 -36.1 L-9.25 -36.2 M-7.75 -32.85 Q-7.3 -33.15 -7.0 -32.7 -6.65 -32.3 -7.15 -32.0 -7.65 -31.75 -7.95 -32.15 -8.2 -32.55 -7.75 -32.85 M-7.3 -30.4 Q-7.55 -30.75 -7.2 -30.95 -6.8 -31.2 -6.55 -30.8 -6.35 -30.45 -6.7 -30.25 -7.1 -30.05 -7.3 -30.4 M-7.35 -28.1 Q-7.55 -28.35 -7.25 -28.5 L-6.8 -28.4 Q-6.65 -28.2 -6.9 -28.0 L-7.35 -28.1 M-9.4 -25.85 Q-9.75 -25.65 -10.0 -25.95 -10.25 -26.3 -9.9 -26.55 -9.55 -26.8 -9.3 -26.4 -9.05 -26.0 -9.4 -25.85 M-23.35 -37.75 Q-23.7 -37.55 -23.95 -37.9 -24.25 -38.25 -23.85 -38.5 -23.5 -38.8 -23.25 -38.35 -22.95 -37.95 -23.35 -37.75 M-22.15 -38.85 Q-22.4 -39.2 -22.0 -39.45 L-21.35 -39.35 Q-21.05 -38.95 -21.5 -38.7 -21.9 -38.5 -22.15 -38.85 M-24.65 -36.05 Q-25.15 -35.75 -25.6 -36.25 -26.0 -36.75 -25.4 -37.05 -24.75 -37.4 -24.45 -36.9 -24.15 -36.4 -24.65 -36.05 M-25.95 -34.4 Q-25.75 -34.05 -26.1 -33.85 -26.5 -33.65 -26.7 -34.0 -26.95 -34.35 -26.6 -34.55 -26.2 -34.8 -25.95 -34.4 M-27.2 -32.9 L-26.55 -32.8 Q-26.25 -32.4 -26.7 -32.15 -27.1 -31.95 -27.35 -32.3 -27.6 -32.65 -27.2 -32.9 M-27.05 -29.35 Q-27.4 -29.15 -27.65 -29.5 -27.95 -29.85 -27.55 -30.1 -27.2 -30.4 -26.95 -29.95 -26.65 -29.55 -27.05 -29.35 M-27.0 -25.15 Q-27.25 -25.5 -26.9 -25.7 -26.5 -25.95 -26.25 -25.55 -26.05 -25.2 -26.4 -25.0 -26.8 -24.8 -27.0 -25.15 M-27.05 -27.45 L-27.4 -27.5 Q-27.55 -27.7 -27.3 -27.8 L-26.95 -27.75 Q-26.85 -27.6 -27.05 -27.45 M-22.15 -20.3 Q-22.5 -20.75 -22.0 -21.0 -21.45 -21.3 -21.2 -20.85 -20.9 -20.45 -21.35 -20.15 -21.8 -19.9 -22.15 -20.3 M-24.15 -21.35 L-24.1 -21.8 -23.65 -21.7 Q-23.45 -21.4 -23.7 -21.25 -24.0 -21.1 -24.15 -21.35 M-25.85 -23.3 Q-26.05 -23.55 -25.75 -23.75 L-25.25 -23.7 Q-25.0 -23.4 -25.35 -23.2 L-25.85 -23.3 M-12.3 -22.5 Q-12.55 -22.85 -12.15 -23.1 -11.75 -23.3 -11.5 -22.95 -11.25 -22.55 -11.65 -22.3 -12.05 -22.1 -12.3 -22.5 M-14.4 -19.6 Q-14.7 -19.45 -14.9 -19.75 -15.1 -20.0 -14.8 -20.25 L-14.3 -20.15 Q-14.1 -19.8 -14.4 -19.6 M-12.35 -21.1 L-13.0 -21.2 Q-13.3 -21.55 -12.85 -21.75 -12.45 -22.0 -12.25 -21.65 -12.0 -21.3 -12.35 -21.1 M-17.8 -19.75 Q-18.1 -20.2 -17.65 -20.5 -17.15 -20.8 -16.8 -20.35 -16.45 -19.9 -17.0 -19.6 -17.5 -19.35 -17.8 -19.75 M-19.4 -20.15 Q-19.1 -19.65 -19.6 -19.4 -20.05 -19.1 -20.4 -19.6 -20.7 -20.05 -20.2 -20.35 -19.7 -20.6 -19.4 -20.15" fill="#ffffff" fill-opacity="0.81960785" fill-rule="evenodd" stroke="none"/>
      <path d="M16.55 -14.75 L15.55 -13.9 16.55 -14.75 16.9 -14.9 Q18.2 -15.45 21.4 -13.55 17.8 -12.3 14.25 -11.95 7.1 -11.25 7.2 -15.8 10.15 -16.55 12.7 -15.1 13.95 -15.65 16.55 -14.75 M11.3 -14.1 L12.3 -14.95 12.7 -15.1 12.3 -14.95 11.3 -14.1" fill="#df6c1f" fill-rule="evenodd" stroke="none"/>
      <path d="M21.4 -13.55 Q12.3 -9.05 6.35 -11.15 4.8 -13.45 5.65 -14.55 6.45 -15.65 7.1 -15.8 L7.2 -15.8 Q7.1 -11.25 14.25 -11.95 17.8 -12.3 21.4 -13.55" fill="#c05b17" fill-rule="evenodd" stroke="none"/>
      <path d="M15.55 -13.9 L16.55 -14.75 Q13.95 -15.65 12.7 -15.1 L12.3 -14.95 11.3 -14.1 M16.55 -14.75 L16.9 -14.9 Q18.2 -15.45 21.4 -13.55 12.3 -9.05 6.35 -11.15 4.8 -13.45 5.65 -14.55 6.45 -15.65 7.1 -15.8 L7.2 -15.8 Q10.15 -16.55 12.7 -15.1" fill="none" stroke="#000000" stroke-linecap="round" stroke-linejoin="round" stroke-opacity="0.29803923" stroke-width="0.30000000000000004"/>
      <path d="M12.15 -20.75 Q12.15 -21.0 11.7 -21.0 L11.15 -20.75 10.95 -20.35 11.0 -20.15 Q11.1 -19.95 11.45 -19.95 12.15 -19.95 12.15 -20.75 M9.65 -18.75 L9.7 -19.4 10.2 -20.65 Q10.6 -21.4 11.6 -21.45 L13.05 -21.45 14.1 -19.95 14.1 -19.9 Q13.7 -17.05 12.25 -16.9 10.25 -17.55 9.65 -18.75 M13.1 -19.05 Q13.1 -19.6 12.9 -19.35 L12.55 -18.8 11.55 -18.2 11.6 -17.95 12.25 -17.85 Q12.55 -17.85 12.85 -18.35 L13.1 -19.05" fill="#23170b" fill-rule="evenodd" stroke="none"/>
      <path d="M12.15 -20.75 Q12.15 -19.95 11.45 -19.95 11.1 -19.95 11.0 -20.15 L10.95 -20.35 11.15 -20.75 11.7 -21.0 Q12.15 -21.0 12.15 -20.75 M13.1 -19.05 L12.85 -18.35 Q12.55 -17.85 12.25 -17.85 L11.6 -17.95 11.55 -18.2 12.55 -18.8 12.9 -19.35 Q13.1 -19.6 13.1 -19.05" fill="#ada49a" fill-rule="evenodd" stroke="none"/>
      <path d="M9.65 -18.75 Q10.25 -17.55 12.25 -16.9 13.7 -17.05 14.1 -19.9 L14.45 -18.8 Q13.2 -15.6 11.9 -16.35 9.75 -17.45 9.65 -18.75" fill="#bbd1d7" fill-rule="evenodd" stroke="none"/>
      <path d="M14.1 -19.9 L14.1 -19.95 13.05 -21.45 11.6 -21.45 Q10.6 -21.4 10.2 -20.65 L9.7 -19.4 9.65 -18.75 Q10.25 -17.55 12.25 -16.9 13.7 -17.05 14.1 -19.9 Z" fill="none" stroke="#000000" stroke-linecap="round" stroke-linejoin="round" stroke-opacity="0.3019608" stroke-width="0.30000000000000004"/>
      <path d="M-3.15 -18.75 L-3.1 -19.4 -2.6 -20.65 Q-2.2 -21.4 -1.2 -21.45 L0.25 -21.45 1.3 -19.95 1.3 -19.9 Q0.9 -17.05 -0.55 -16.9 -2.55 -17.55 -3.15 -18.75 M-1.85 -20.35 L-1.8 -20.15 -1.35 -19.95 Q-0.65 -19.95 -0.65 -20.75 -0.65 -21.0 -1.1 -21.0 L-1.65 -20.75 -1.85 -20.35 M0.3 -19.05 Q0.3 -19.6 0.1 -19.35 L-0.25 -18.8 -1.25 -18.2 -1.2 -17.95 -0.55 -17.85 0.05 -18.35 0.3 -19.05" fill="#23170b" fill-rule="evenodd" stroke="none"/>
      <path d="M0.3 -19.05 L0.05 -18.35 -0.55 -17.85 -1.2 -17.95 -1.25 -18.2 -0.25 -18.8 0.1 -19.35 Q0.3 -19.6 0.3 -19.05 M-1.85 -20.35 L-1.65 -20.75 -1.1 -21.0 Q-0.65 -21.0 -0.65 -20.75 -0.65 -19.95 -1.35 -19.95 L-1.8 -20.15 -1.85 -20.35" fill="#ada49a" fill-rule="evenodd" stroke="none"/>
      <path d="M-3.15 -18.75 Q-2.55 -17.55 -0.55 -16.9 0.9 -17.05 1.3 -19.9 L1.65 -18.8 Q0.4 -15.6 -0.9 -16.35 -3.05 -17.45 -3.15 -18.75" fill="#bbd1d7" fill-rule="evenodd" stroke="none"/>
      <path d="M1.3 -19.9 L1.3 -19.95 0.25 -21.45 -1.2 -21.45 Q-2.2 -21.4 -2.6 -20.65 L-3.1 -19.4 -3.15 -18.75 Q-2.55 -17.55 -0.55 -16.9 0.9 -17.05 1.3 -19.9 Z" fill="none" stroke="#000000" stroke-linecap="round" stroke-linejoin="round" stroke-opacity="0.3019608" stroke-width="0.30000000000000004"/>
    </g>
    <linearGradient gradientTransform="matrix(0.0177, -0.0047, 0.005, 0.0185, -6.1, -38.35)" gradientUnits="userSpaceOnUse" id="decoration203-gradient0" spreadMethod="pad" x1="-819.2" x2="819.2">
      <stop offset="0.0" stop-color="#838383"/>
      <stop offset="0.7137254901960784" stop-color="#dbdbdb"/>
      <stop offset="1.0" stop-color="#838383"/>
    </linearGradient>
  </defs>
</svg>
