<?xml version="1.0" encoding="UTF-8" standalone="no"?>
<svg xmlns:xlink="http://www.w3.org/1999/xlink" height="51.6px" width="49.6px" xmlns="http://www.w3.org/2000/svg">
  <g transform="matrix(1.0, 0.0, 0.0, 1.0, 28.05, 50.45)">
    <use height="51.6" transform="matrix(1.0, 0.0, 0.0, 1.0, -28.05, -50.45)" width="49.6" xlink:href="#decoration203-shape0"/>
  </g>
  <defs>
    <g id="decoration203-shape0" transform="matrix(1.0, 0.0, 0.0, 1.0, 28.05, 50.45)">
      <path d="M14.3 -38.9 L14.05 -37.85 13.65 -37.0 11.35 -29.3 Q10.4 -27.7 10.05 -29.1 9.8 -29.7 9.8 -30.75 8.95 -28.15 8.4 -29.6 8.1 -30.35 8.0 -31.75 L7.7 -33.8 Q7.65 -35.6 7.75 -36.0 8.0 -38.05 8.65 -39.6 L9.65 -42.15 Q10.55 -44.25 10.9 -44.3 11.55 -45.35 12.15 -45.2 13.4 -44.95 13.85 -41.95 14.05 -41.95 14.3 -38.9" fill="#f2f7f8" fill-rule="evenodd" stroke="none"/>
      <path d="M7.75 -36.0 Q7.65 -35.6 7.7 -33.8 L8.0 -31.75 Q8.1 -30.35 8.4 -29.6 8.95 -28.15 9.8 -30.75 9.8 -29.7 10.05 -29.1 10.4 -27.7 11.35 -29.3 L13.65 -37.0 14.05 -37.85 14.3 -38.9 14.3 -35.45 14.2 -33.35 13.4 -29.75 12.95 -28.2 12.2 -26.5 11.35 -25.2 Q11.0 -24.7 9.3 -26.35 7.6 -28.0 7.65 -28.35 7.4 -29.85 7.5 -32.1 L7.6 -34.2 Q7.6 -35.5 7.75 -36.0" fill="#bbd1d7" fill-rule="evenodd" stroke="none"/>
      <path d="M12.9 -44.15 Q12.7 -44.6 13.1 -45.0 13.5 -45.35 13.85 -44.8 14.2 -44.2 13.7 -43.95 13.15 -43.7 12.9 -44.15 M11.45 -44.7 Q11.05 -44.4 10.9 -44.8 10.75 -45.2 11.1 -45.35 L11.65 -45.2 Q11.85 -44.95 11.45 -44.7 M14.5 -41.45 Q14.15 -41.2 13.85 -41.6 13.5 -41.95 14.0 -42.2 L14.65 -42.1 Q14.85 -41.75 14.5 -41.45 M14.45 -39.4 L14.85 -39.15 Q15.15 -38.75 14.55 -38.3 13.9 -37.85 13.65 -38.5 13.4 -39.15 13.95 -39.35 L14.05 -39.35 14.05 -39.4 Q14.25 -39.6 14.45 -39.4 M10.45 -43.0 Q10.0 -42.85 9.85 -43.2 9.7 -43.5 9.95 -43.75 10.2 -44.0 10.55 -43.55 10.85 -43.15 10.45 -43.0 M8.7 -38.45 Q8.2 -38.25 8.0 -38.65 7.8 -39.0 8.15 -39.35 8.5 -39.7 8.85 -39.2 9.15 -38.65 8.7 -38.45 M9.4 -40.6 Q9.05 -40.35 8.75 -40.75 8.4 -41.1 8.9 -41.35 L9.55 -41.25 Q9.75 -40.9 9.4 -40.6 M8.45 -36.65 Q8.75 -36.3 8.2 -35.95 7.65 -35.55 7.45 -36.1 7.25 -36.65 7.7 -36.8 L8.45 -36.65 M7.8 -34.35 Q7.25 -34.1 7.0 -34.6 6.8 -35.05 7.15 -35.4 7.55 -35.7 7.95 -35.15 8.4 -34.55 7.8 -34.35 M7.1 -32.8 Q7.7 -33.05 7.95 -32.65 8.2 -32.2 7.75 -31.9 L6.95 -32.0 Q6.5 -32.5 7.1 -32.8 M7.95 -29.65 Q7.6 -29.45 7.45 -29.75 7.25 -30.1 7.55 -30.35 7.8 -30.65 8.1 -30.2 8.35 -29.8 7.95 -29.65 M9.0 -25.45 Q8.8 -25.85 9.1 -26.1 9.35 -26.35 9.7 -25.9 10.05 -25.45 9.6 -25.25 9.15 -25.1 9.0 -25.45 M7.4 -27.7 Q7.3 -28.05 7.55 -28.15 L8.0 -28.05 Q8.2 -27.8 7.85 -27.6 7.55 -27.4 7.4 -27.7 M13.85 -34.3 Q13.5 -34.65 14.0 -34.9 L14.65 -34.8 Q14.85 -34.45 14.5 -34.15 14.15 -33.9 13.85 -34.3 M14.1 -36.1 Q13.9 -36.45 14.2 -36.7 14.45 -37.0 14.75 -36.55 15.0 -36.15 14.6 -36.0 14.25 -35.8 14.1 -36.1 M13.25 -31.25 Q13.05 -31.65 13.4 -31.95 13.7 -32.2 14.1 -31.7 14.5 -31.2 14.0 -31.0 13.5 -30.8 13.25 -31.25 M13.55 -29.7 Q13.15 -29.45 13.05 -29.85 12.9 -30.2 13.2 -30.3 L13.7 -30.2 Q13.9 -29.95 13.55 -29.7 M11.9 -25.25 L11.75 -24.7 11.1 -24.8 Q10.8 -25.15 11.25 -25.35 L11.9 -25.25 M12.95 -27.2 Q12.45 -27.0 12.25 -27.4 12.05 -27.75 12.4 -28.1 12.75 -28.45 13.1 -27.95 13.4 -27.4 12.95 -27.2" fill="#ffffff" fill-opacity="0.81960785" fill-rule="evenodd" stroke="none"/>
      <path d="M-15.2 -12.2 L-15.2 -13.15 -15.05 -14.0 Q-15.85 -15.9 -15.65 -17.2 -15.6 -18.1 -14.45 -19.0 -13.8 -24.45 -8.95 -27.8 -6.3 -29.65 -3.15 -29.6 -0.25 -31.2 3.35 -30.6 4.35 -30.4 5.0 -29.55 6.8 -29.4 8.05 -28.2 11.15 -27.25 13.15 -24.85 L13.95 -23.85 Q15.55 -21.55 15.25 -19.55 15.3 -8.0 8.85 -6.55 9.3 -5.25 5.85 -3.85 2.4 -2.45 -0.95 -4.95 -6.05 -3.55 -7.2 -5.65 -8.35 -7.75 -7.95 -8.35 L-10.2 -7.5 Q-12.95 -7.6 -15.2 -12.2" fill="#f2f7f8" fill-rule="evenodd" stroke="none"/>
      <path d="M-15.2 -12.2 Q-12.95 -7.6 -10.2 -7.5 L-7.95 -8.35 Q-8.35 -7.75 -7.2 -5.65 -6.05 -3.55 -0.95 -4.95 2.4 -2.45 5.85 -3.85 9.3 -5.25 8.85 -6.55 15.3 -8.0 15.25 -19.55 L15.4 -19.25 Q16.75 -16.35 16.05 -13.55 16.25 -13.0 15.85 -10.2 15.45 -7.45 12.3 -3.7 9.1 0.05 1.85 0.4 L-1.95 0.4 Q-5.35 0.85 -6.05 -0.75 -7.55 -0.8 -8.05 -1.45 -11.1 -2.4 -12.9 -4.9 -13.95 -6.4 -13.8 -8.0 -15.15 -10.1 -15.2 -12.2" fill="#bbd1d7" fill-rule="evenodd" stroke="none"/>
      <path d="M2.05 -31.15 Q2.3 -30.65 1.85 -30.45 1.4 -30.3 1.3 -30.7 1.15 -31.1 1.45 -31.35 1.75 -31.6 2.05 -31.15 M3.85 -30.2 Q3.7 -30.55 3.95 -30.7 L4.45 -30.6 Q4.7 -30.35 4.35 -30.1 4.0 -29.9 3.85 -30.2 M4.85 -29.7 Q5.15 -29.95 5.45 -29.55 5.75 -29.2 5.3 -28.9 4.85 -28.6 4.65 -29.05 4.5 -29.5 4.85 -29.7 M7.7 -28.3 Q7.1 -28.05 6.9 -28.55 6.65 -29.05 7.1 -29.35 7.55 -29.65 7.95 -29.1 8.3 -28.6 7.7 -28.3 M9.7 -27.9 Q9.9 -27.55 9.6 -27.3 9.3 -27.1 9.05 -27.4 8.75 -27.7 9.1 -27.95 L9.7 -27.9 M12.4 -25.2 Q12.2 -25.75 12.6 -26.0 13.0 -26.3 13.35 -25.85 13.75 -25.4 13.15 -25.0 12.6 -24.65 12.4 -25.2 M10.95 -26.3 Q10.8 -26.75 11.15 -27.05 11.55 -27.35 11.85 -26.8 12.15 -26.3 11.65 -26.05 11.1 -25.8 10.95 -26.3 M15.6 -21.0 Q15.3 -20.8 15.05 -21.1 14.75 -21.4 15.1 -21.65 L15.7 -21.6 Q15.9 -21.25 15.6 -21.0 M15.15 -19.45 Q15.55 -19.75 15.85 -19.2 16.15 -18.7 15.65 -18.45 15.1 -18.2 14.95 -18.7 14.8 -19.15 15.15 -19.45 M13.9 -23.1 Q13.75 -23.5 14.05 -23.7 14.4 -23.9 14.65 -23.5 14.95 -23.15 14.5 -22.95 14.1 -22.75 13.9 -23.1 M16.2 -16.15 Q15.5 -15.7 15.25 -16.35 15.05 -16.95 15.5 -17.3 16.0 -17.6 16.45 -17.1 16.85 -16.55 16.2 -16.15 M16.9 -14.2 Q16.4 -13.95 16.25 -14.35 16.1 -14.75 16.4 -14.95 16.75 -15.2 17.05 -14.8 17.35 -14.4 16.9 -14.2 M16.45 -12.75 Q16.7 -12.3 16.35 -12.05 L15.65 -12.15 Q15.35 -12.5 15.8 -12.85 L16.45 -12.75 M6.55 -0.3 Q6.35 -0.75 6.75 -1.05 7.1 -1.3 7.45 -0.85 7.8 -0.4 7.25 -0.1 6.75 0.15 6.55 -0.3 M9.05 -1.0 Q8.95 -1.3 9.2 -1.45 L9.6 -1.35 Q9.85 -1.1 9.5 -0.9 9.2 -0.7 9.05 -1.0 M15.95 -9.35 Q15.5 -9.2 15.4 -9.6 15.25 -10.0 15.55 -10.25 15.85 -10.5 16.15 -10.05 16.4 -9.55 15.95 -9.35 M15.2 -7.25 Q14.7 -6.9 14.5 -7.4 14.3 -7.85 14.65 -8.1 L15.35 -7.95 Q15.7 -7.55 15.2 -7.25 M14.25 -6.3 Q14.45 -6.0 14.1 -5.8 13.75 -5.65 13.65 -5.95 13.5 -6.25 13.75 -6.4 L14.25 -6.3 M12.0 -4.3 L12.65 -4.2 Q12.9 -3.75 12.55 -3.5 L11.85 -3.6 Q11.55 -3.95 12.0 -4.3 M11.25 -2.0 Q10.95 -1.85 10.85 -2.15 10.75 -2.45 10.95 -2.65 11.2 -2.8 11.4 -2.45 11.6 -2.15 11.25 -2.0 M0.5 1.0 Q0.0 1.35 -0.2 0.85 -0.4 0.4 -0.05 0.15 0.3 -0.1 0.65 0.3 1.0 0.7 0.5 1.0 M1.7 0.65 Q1.55 0.2 1.9 -0.1 2.3 -0.4 2.6 0.15 2.9 0.65 2.4 0.9 1.85 1.15 1.7 0.65 M4.15 0.65 Q3.85 0.3 4.3 -0.05 L4.95 0.05 Q5.2 0.5 4.85 0.75 L4.15 0.65 M-12.2 -25.25 L-11.8 -25.15 Q-11.55 -24.9 -11.9 -24.7 -12.2 -24.5 -12.35 -24.8 -12.45 -25.1 -12.2 -25.25 M-10.85 -26.9 Q-10.5 -27.15 -10.2 -26.75 -9.9 -26.35 -10.35 -26.15 -10.85 -25.9 -11.0 -26.3 -11.15 -26.7 -10.85 -26.9 M-8.4 -27.95 Q-8.15 -27.55 -8.5 -27.35 -8.8 -27.1 -9.1 -27.45 -9.4 -27.75 -9.0 -28.05 -8.6 -28.35 -8.4 -27.95 M-6.85 -28.75 Q-7.3 -28.55 -7.45 -28.95 -7.6 -29.4 -7.25 -29.7 -6.95 -29.95 -6.65 -29.45 -6.35 -28.95 -6.85 -28.75 M-0.85 -29.9 Q-1.15 -30.2 -0.8 -30.45 L-0.2 -30.4 Q0.0 -30.05 -0.3 -29.8 -0.6 -29.6 -0.85 -29.9 M-2.0 -29.55 Q-2.5 -29.3 -2.65 -29.7 -2.8 -30.1 -2.5 -30.3 -2.15 -30.55 -1.85 -30.15 -1.55 -29.75 -2.0 -29.55 M-4.55 -29.35 Q-5.0 -29.05 -5.2 -29.5 -5.35 -29.95 -5.0 -30.15 -4.7 -30.4 -4.4 -30.0 -4.1 -29.65 -4.55 -29.35 M-14.05 -22.95 Q-14.2 -23.4 -13.85 -23.7 -13.55 -23.95 -13.25 -23.45 -12.95 -22.95 -13.45 -22.75 -13.9 -22.55 -14.05 -22.95 M-13.7 -18.9 Q-14.3 -18.65 -14.5 -19.1 -14.7 -19.6 -14.3 -19.85 -13.85 -20.15 -13.5 -19.65 -13.15 -19.15 -13.7 -18.9 M-13.75 -20.6 L-14.45 -20.7 Q-14.75 -21.05 -14.3 -21.4 L-13.65 -21.3 Q-13.4 -20.85 -13.75 -20.6 M-15.75 -16.75 L-15.6 -17.3 -15.05 -17.2 Q-14.8 -16.85 -15.2 -16.6 -15.6 -16.35 -15.75 -16.75 M-15.5 -13.25 L-14.75 -13.15 Q-14.45 -12.65 -14.85 -12.35 -15.3 -12.05 -15.65 -12.45 -16.0 -12.85 -15.5 -13.25 M-15.35 -15.35 Q-14.95 -15.65 -14.65 -15.1 -14.35 -14.6 -14.85 -14.35 -15.4 -14.1 -15.55 -14.6 -15.7 -15.05 -15.35 -15.35 M-14.4 -10.65 Q-14.1 -10.25 -14.6 -10.0 -15.1 -9.75 -15.3 -10.2 -15.45 -10.6 -15.1 -10.85 -14.75 -11.1 -14.4 -10.65 M-14.1 -8.15 Q-14.3 -8.7 -13.9 -8.95 -13.5 -9.25 -13.15 -8.8 -12.75 -8.35 -13.35 -7.95 -13.9 -7.6 -14.1 -8.15 M-13.2 -6.55 Q-12.85 -5.95 -13.4 -5.7 -13.95 -5.45 -14.15 -6.0 -14.3 -6.5 -13.9 -6.8 -13.5 -7.1 -13.2 -6.55 M-12.5 -3.85 Q-12.85 -4.25 -12.35 -4.65 -11.9 -5.0 -11.6 -4.55 -11.3 -4.05 -11.7 -3.75 -12.15 -3.45 -12.5 -3.85 M-10.8 -2.45 L-10.7 -2.8 Q-10.5 -2.95 -10.35 -2.7 -10.15 -2.45 -10.45 -2.3 -10.7 -2.2 -10.8 -2.45 M-5.9 -0.1 Q-6.5 0.2 -6.65 -0.35 -6.85 -0.9 -6.45 -1.25 -6.0 -1.6 -5.65 -0.95 -5.3 -0.35 -5.9 -0.1 M-8.25 -1.3 Q-8.55 -1.15 -8.65 -1.4 L-8.55 -1.8 Q-8.35 -1.95 -8.15 -1.7 -8.0 -1.5 -8.25 -1.3 M-2.25 -0.3 Q-2.05 0.0 -2.4 0.2 L-2.85 0.05 Q-3.0 -0.25 -2.75 -0.4 L-2.25 -0.3 M-3.75 -0.15 Q-3.6 0.1 -3.8 0.2 L-4.15 0.15 -4.1 -0.2 -3.75 -0.15" fill="#ffffff" fill-opacity="0.81960785" fill-rule="evenodd" stroke="none"/>
      <path d="M12.35 -25.9 L16.05 -24.9 14.25 -23.7 12.35 -25.9 M-13.4 -21.55 L-14.5 -19.1 -14.85 -17.7 -17.45 -18.9 -14.85 -20.7 -13.4 -21.55" fill="#666666" fill-rule="evenodd" stroke="none"/>
      <path d="M16.05 -24.9 L12.35 -25.9 Q2.25 -28.1 -7.85 -24.25 L-7.9 -24.2 Q-13.55 -29.7 -13.0 -39.15 -12.8 -42.1 -12.05 -45.15 L-11.3 -47.55 4.75 -50.3 16.05 -24.9" fill="url(#decoration203-gradient0)" fill-rule="evenodd" stroke="none"/>
      <path d="M-11.3 -47.55 L-12.05 -45.15 Q-12.8 -42.1 -13.0 -39.15 -13.55 -29.7 -7.9 -24.2 -10.85 -23.1 -13.4 -21.55 L-14.85 -20.7 -17.45 -18.9 -16.0 -46.75 -11.3 -47.55" fill="#8a8a8a" fill-rule="evenodd" stroke="none"/>
      <path d="M12.35 -25.9 L16.05 -24.9 4.75 -50.3 -11.3 -47.55 M-7.9 -24.2 L-7.85 -24.25 Q2.25 -28.1 12.35 -25.9 L14.25 -23.7 16.05 -24.9 M-17.45 -18.9 L-16.0 -46.75 -11.3 -47.55 M-13.4 -21.55 Q-10.85 -23.1 -7.9 -24.2 M-17.45 -18.9 L-14.85 -17.7 -14.5 -19.1 -13.4 -21.55 -14.85 -20.7 -17.45 -18.9" fill="none" stroke="#000000" stroke-linecap="round" stroke-linejoin="round" stroke-opacity="0.3019608" stroke-width="0.30000000000000004"/>
      <path d="M-14.4 -24.05 Q-12.1 -13.35 -7.35 -7.85 -2.65 -2.4 7.55 -3.85 17.75 -5.35 15.7 -24.75" fill="none" stroke="#666666" stroke-linecap="round" stroke-linejoin="round" stroke-width="0.5"/>
      <path d="M0.65 -5.35 Q6.1 -4.7 11.1 -6.65 12.15 -6.1 12.25 -5.5 6.35 -3.0 2.95 -3.95 0.95 -4.05 0.65 -5.35" fill="#814813" fill-rule="evenodd" stroke="none"/>
      <path d="M12.25 -5.5 Q12.4 -4.8 11.5 -4.1 6.5 -2.05 1.1 -2.75 -0.5 -3.65 0.65 -5.35 0.95 -4.05 2.95 -3.95 6.35 -3.0 12.25 -5.5" fill="#683709" fill-rule="evenodd" stroke="none"/>
      <path d="M0.65 -5.35 Q6.1 -4.7 11.1 -6.65 12.15 -6.1 12.25 -5.5 12.4 -4.8 11.5 -4.1 6.5 -2.05 1.1 -2.75 -0.5 -3.65 0.65 -5.35 Z" fill="none" stroke="#000000" stroke-linecap="round" stroke-linejoin="round" stroke-opacity="0.29803923" stroke-width="0.30000000000000004"/>
      <path d="M-27.25 -28.7 L-27.45 -29.85 -27.55 -31.3 Q-27.5 -31.95 -26.8 -32.5 -26.35 -36.1 -23.2 -38.35 -21.5 -39.6 -19.45 -39.55 -17.6 -40.55 -15.25 -40.2 L-13.8 -39.55 -12.25 -38.55 Q-10.25 -37.95 -8.95 -36.4 -8.75 -36.1 -8.6 -34.15 -8.45 -32.1 -8.7 -31.8 -8.75 -30.15 -9.3 -29.0 -10.35 -26.7 -13.45 -27.75 -14.55 -24.1 -16.8 -23.1 -19.1 -22.15 -20.9 -22.6 -22.75 -23.1 -24.25 -25.35 -25.0 -26.45 -25.15 -27.75 -25.4 -27.6 -26.25 -28.05 -27.05 -28.4 -27.25 -28.7" fill="#f2f7f8" fill-rule="evenodd" stroke="none"/>
      <path d="M-8.95 -36.4 L-8.15 -34.9 Q-7.5 -33.5 -7.6 -32.9 -6.55 -30.85 -7.1 -28.9 -6.95 -28.55 -8.5 -27.25 -10.1 -25.95 -11.9 -22.95 -13.75 -20.0 -16.25 -19.75 L-18.7 -19.75 Q-20.9 -19.45 -21.35 -20.45 -22.35 -20.55 -22.65 -20.95 -24.65 -21.55 -25.8 -23.2 -26.5 -24.25 -26.35 -25.25 -27.4 -26.95 -27.25 -28.7 -27.05 -28.4 -26.25 -28.05 -25.4 -27.6 -25.15 -27.75 -25.0 -26.45 -24.25 -25.35 -22.75 -23.1 -20.9 -22.6 -19.1 -22.15 -16.8 -23.1 -14.55 -24.1 -13.45 -27.75 -10.35 -26.7 -9.3 -29.0 -8.75 -30.15 -8.7 -31.8 -8.45 -32.1 -8.6 -34.15 -8.75 -36.1 -8.95 -36.4" fill="#bbd1d7" fill-rule="evenodd" stroke="none"/>
      <path d="M-8.85 -37.3 Q-8.6 -36.8 -9.15 -36.5 -9.7 -36.15 -9.95 -36.65 -10.25 -37.2 -9.7 -37.5 -9.15 -37.75 -8.85 -37.3 M-15.4 -40.5 Q-15.15 -40.05 -15.55 -39.9 -15.9 -39.7 -16.2 -40.1 -16.45 -40.5 -16.05 -40.75 -15.65 -40.95 -15.4 -40.5 M-17.8 -40.5 Q-17.6 -40.15 -18.0 -39.9 -18.45 -39.65 -18.65 -40.05 -18.85 -40.45 -18.4 -40.65 -18.0 -40.9 -17.8 -40.5 M-19.95 -39.25 Q-20.35 -39.05 -20.6 -39.45 -20.85 -39.85 -20.45 -40.2 -20.05 -40.5 -19.8 -39.95 -19.55 -39.4 -19.95 -39.25 M-13.15 -39.45 L-13.25 -39.4 -13.5 -39.2 Q-13.95 -39.0 -14.1 -39.35 -14.2 -39.75 -13.9 -39.95 L-13.7 -40.0 -13.55 -40.2 Q-13.25 -40.4 -13.0 -40.05 -12.7 -39.65 -13.15 -39.45 M-11.2 -37.45 Q-11.5 -37.3 -11.7 -37.6 -11.9 -37.95 -11.6 -38.15 -11.3 -38.4 -11.1 -38.0 -10.9 -37.6 -11.2 -37.45 M-10.2 -26.15 Q-9.9 -26.35 -9.65 -26.0 -9.4 -25.7 -9.85 -25.5 -10.25 -25.3 -10.35 -25.65 L-10.2 -26.15 M-7.95 -34.55 Q-8.25 -34.4 -8.45 -34.75 -8.7 -35.1 -8.35 -35.25 -8.05 -35.45 -7.8 -35.1 -7.6 -34.7 -7.95 -34.55 M-7.75 -33.05 L-7.3 -32.95 Q-7.1 -32.65 -7.45 -32.5 L-7.9 -32.6 -7.75 -33.05 M-7.0 -30.4 L-6.95 -30.8 Q-6.7 -30.95 -6.6 -30.7 -6.45 -30.4 -6.65 -30.3 L-7.0 -30.4 M-7.35 -28.15 L-7.8 -28.25 Q-8.0 -28.55 -7.65 -28.7 L-7.2 -28.6 Q-7.05 -28.35 -7.35 -28.15 M-9.15 -26.85 Q-9.4 -27.25 -9.0 -27.5 -8.6 -27.7 -8.35 -27.25 -8.1 -26.8 -8.5 -26.65 -8.85 -26.45 -9.15 -26.85 M-22.35 -38.4 Q-22.7 -38.25 -22.8 -38.5 L-22.65 -38.95 Q-22.45 -39.1 -22.2 -38.85 -22.0 -38.55 -22.35 -38.4 M-24.35 -38.0 Q-23.8 -38.3 -23.45 -37.7 -23.1 -37.05 -23.65 -36.8 -24.15 -36.55 -24.55 -37.15 -24.9 -37.7 -24.35 -38.0 M-26.05 -34.1 Q-25.75 -33.55 -26.2 -33.35 -26.6 -33.15 -26.85 -33.6 -27.1 -34.05 -26.7 -34.35 -26.3 -34.7 -26.05 -34.1 M-26.05 -35.35 Q-26.3 -35.75 -25.85 -36.0 -25.4 -36.25 -25.15 -35.85 -24.95 -35.45 -25.4 -35.2 -25.85 -34.9 -26.05 -35.35 M-27.35 -31.2 Q-27.8 -31.0 -27.95 -31.35 -28.05 -31.75 -27.75 -31.95 -27.45 -32.15 -27.2 -31.8 -26.9 -31.4 -27.35 -31.2 M-27.6 -26.7 Q-27.8 -27.05 -27.4 -27.25 -27.0 -27.45 -26.85 -27.1 -26.65 -26.75 -27.0 -26.55 -27.4 -26.3 -27.6 -26.7 M-27.95 -28.85 Q-28.2 -29.25 -27.8 -29.5 -27.4 -29.7 -27.15 -29.25 -26.9 -28.8 -27.3 -28.65 -27.65 -28.45 -27.95 -28.85 M-24.85 -21.95 Q-25.1 -21.85 -25.15 -22.05 L-25.05 -22.35 -24.75 -22.25 Q-24.6 -22.1 -24.85 -21.95 M-22.95 -21.85 Q-22.6 -21.25 -23.1 -21.0 -23.6 -20.75 -23.95 -21.3 -24.3 -21.85 -23.8 -22.1 -23.25 -22.4 -22.95 -21.85 M-21.85 -19.7 Q-22.05 -20.1 -21.6 -20.3 -21.2 -20.55 -21.0 -20.15 -20.8 -19.8 -21.2 -19.55 -21.65 -19.3 -21.85 -19.7 M-27.05 -24.3 Q-27.25 -24.65 -26.95 -24.85 -26.65 -25.1 -26.45 -24.7 -26.25 -24.3 -26.55 -24.15 -26.85 -24.0 -27.05 -24.3 M-12.0 -23.55 Q-12.25 -24.0 -11.85 -24.3 -11.45 -24.65 -11.2 -24.05 -10.9 -23.5 -11.35 -23.3 -11.75 -23.1 -12.0 -23.55 M-14.3 -19.55 Q-14.75 -19.35 -15.0 -19.8 -15.3 -20.25 -14.85 -20.45 -14.45 -20.7 -14.2 -20.25 -13.9 -19.75 -14.3 -19.55 M-12.25 -21.3 Q-12.7 -21.0 -12.9 -21.45 -13.15 -21.85 -12.7 -22.1 L-12.0 -21.95 Q-11.8 -21.55 -12.25 -21.3 M-17.3 -19.55 L-17.05 -20.2 Q-16.75 -20.45 -16.45 -20.0 -16.1 -19.6 -16.65 -19.35 -17.15 -19.1 -17.3 -19.55 M-19.4 -19.4 Q-19.65 -19.85 -19.25 -20.15 -18.85 -20.5 -18.6 -19.9 -18.3 -19.35 -18.75 -19.15 -19.15 -18.95 -19.4 -19.4" fill="#ffffff" fill-opacity="0.81960785" fill-rule="evenodd" stroke="none"/>
      <path d="M16.55 -14.75 L15.55 -13.9 16.55 -14.75 16.9 -14.9 Q18.2 -15.45 21.4 -13.55 17.8 -12.3 14.25 -11.95 7.1 -11.25 7.2 -15.8 10.15 -16.55 12.7 -15.1 13.95 -15.65 16.55 -14.75 M11.3 -14.1 L12.3 -14.95 12.7 -15.1 12.3 -14.95 11.3 -14.1" fill="#df6c1f" fill-rule="evenodd" stroke="none"/>
      <path d="M21.4 -13.55 Q12.3 -9.05 6.35 -11.15 4.8 -13.45 5.65 -14.55 6.45 -15.65 7.1 -15.8 L7.2 -15.8 Q7.1 -11.25 14.25 -11.95 17.8 -12.3 21.4 -13.55" fill="#c05b17" fill-rule="evenodd" stroke="none"/>
      <path d="M15.55 -13.9 L16.55 -14.75 Q13.95 -15.65 12.7 -15.1 L12.3 -14.95 11.3 -14.1 M16.55 -14.75 L16.9 -14.9 Q18.2 -15.45 21.4 -13.55 12.3 -9.05 6.35 -11.15 4.8 -13.45 5.65 -14.55 6.45 -15.65 7.1 -15.8 L7.2 -15.8 Q10.15 -16.55 12.7 -15.1" fill="none" stroke="#000000" stroke-linecap="round" stroke-linejoin="round" stroke-opacity="0.29803923" stroke-width="0.30000000000000004"/>
      <path d="M9.65 -18.75 L9.7 -19.4 10.2 -20.65 Q10.6 -21.4 11.6 -21.45 L13.05 -21.45 14.1 -19.95 14.1 -19.9 Q13.7 -17.05 12.25 -16.9 10.25 -17.55 9.65 -18.75 M13.1 -19.05 Q13.1 -19.6 12.9 -19.35 L12.55 -18.8 11.55 -18.2 11.6 -17.95 12.25 -17.85 Q12.55 -17.85 12.85 -18.35 L13.1 -19.05 M12.15 -20.75 Q12.15 -21.0 11.7 -21.0 L11.15 -20.75 10.95 -20.35 11.0 -20.15 Q11.1 -19.95 11.45 -19.95 12.15 -19.95 12.15 -20.75" fill="#23170b" fill-rule="evenodd" stroke="none"/>
      <path d="M12.15 -20.75 Q12.15 -19.95 11.45 -19.95 11.1 -19.95 11.0 -20.15 L10.95 -20.35 11.15 -20.75 11.7 -21.0 Q12.15 -21.0 12.15 -20.75 M13.1 -19.05 L12.85 -18.35 Q12.55 -17.85 12.25 -17.85 L11.6 -17.95 11.55 -18.2 12.55 -18.8 12.9 -19.35 Q13.1 -19.6 13.1 -19.05" fill="#ada49a" fill-rule="evenodd" stroke="none"/>
      <path d="M9.65 -18.75 Q10.25 -17.55 12.25 -16.9 13.7 -17.05 14.1 -19.9 L14.45 -18.8 Q13.2 -15.6 11.9 -16.35 9.75 -17.45 9.65 -18.75" fill="#bbd1d7" fill-rule="evenodd" stroke="none"/>
      <path d="M14.1 -19.9 L14.1 -19.95 13.05 -21.45 11.6 -21.45 Q10.6 -21.4 10.2 -20.65 L9.7 -19.4 9.65 -18.75 Q10.25 -17.55 12.25 -16.9 13.7 -17.05 14.1 -19.9 Z" fill="none" stroke="#000000" stroke-linecap="round" stroke-linejoin="round" stroke-opacity="0.3019608" stroke-width="0.30000000000000004"/>
      <path d="M-3.15 -18.75 L-3.1 -19.4 -2.6 -20.65 Q-2.2 -21.4 -1.2 -21.45 L0.25 -21.45 1.3 -19.95 1.3 -19.9 Q0.9 -17.05 -0.55 -16.9 -2.55 -17.55 -3.15 -18.75 M-1.85 -20.35 L-1.8 -20.15 -1.35 -19.95 Q-0.65 -19.95 -0.65 -20.75 -0.65 -21.0 -1.1 -21.0 L-1.65 -20.75 -1.85 -20.35 M0.3 -19.05 Q0.3 -19.6 0.1 -19.35 L-0.25 -18.8 -1.25 -18.2 -1.2 -17.95 -0.55 -17.85 0.05 -18.35 0.3 -19.05" fill="#23170b" fill-rule="evenodd" stroke="none"/>
      <path d="M0.3 -19.05 L0.05 -18.35 -0.55 -17.85 -1.2 -17.95 -1.25 -18.2 -0.25 -18.8 0.1 -19.35 Q0.3 -19.6 0.3 -19.05 M-1.85 -20.35 L-1.65 -20.75 -1.1 -21.0 Q-0.65 -21.0 -0.65 -20.75 -0.65 -19.95 -1.35 -19.95 L-1.8 -20.15 -1.85 -20.35" fill="#ada49a" fill-rule="evenodd" stroke="none"/>
      <path d="M-3.15 -18.75 Q-2.55 -17.55 -0.55 -16.9 0.9 -17.05 1.3 -19.9 L1.65 -18.8 Q0.4 -15.6 -0.9 -16.35 -3.05 -17.45 -3.15 -18.75" fill="#bbd1d7" fill-rule="evenodd" stroke="none"/>
      <path d="M1.3 -19.9 L1.3 -19.95 0.25 -21.45 -1.2 -21.45 Q-2.2 -21.4 -2.6 -20.65 L-3.1 -19.4 -3.15 -18.75 Q-2.55 -17.55 -0.55 -16.9 0.9 -17.05 1.3 -19.9 Z" fill="none" stroke="#000000" stroke-linecap="round" stroke-linejoin="round" stroke-opacity="0.3019608" stroke-width="0.30000000000000004"/>
    </g>
    <linearGradient gradientTransform="matrix(0.0177, -0.0047, 0.005, 0.0185, -6.1, -38.35)" gradientUnits="userSpaceOnUse" id="decoration203-gradient0" spreadMethod="pad" x1="-819.2" x2="819.2">
      <stop offset="0.0" stop-color="#838383"/>
      <stop offset="0.7137254901960784" stop-color="#dbdbdb"/>
      <stop offset="1.0" stop-color="#838383"/>
    </linearGradient>
  </defs>
</svg>
