<?xml version="1.0" encoding="UTF-8" standalone="no"?>
<svg xmlns:xlink="http://www.w3.org/1999/xlink" height="58.05px" width="52.1px" xmlns="http://www.w3.org/2000/svg">
  <g transform="matrix(1.0, 0.0, 0.0, 1.0, 28.5, 57.35)">
    <use height="58.05" transform="matrix(1.0, 0.0, 0.0, 1.0, -28.5, -57.35)" width="52.1" xlink:href="#decoration204-shape0"/>
  </g>
  <defs>
    <g id="decoration204-shape0" transform="matrix(1.0, 0.0, 0.0, 1.0, 28.5, 57.35)">
      <path d="M7.1 -36.55 Q7.35 -38.6 8.0 -40.15 L9.0 -42.7 Q9.9 -44.8 10.25 -44.85 10.9 -45.9 11.5 -45.75 12.75 -45.5 13.2 -42.5 13.4 -42.5 13.65 -39.45 L13.4 -38.4 13.0 -37.55 10.7 -29.85 Q9.75 -28.25 9.4 -29.65 9.15 -30.25 9.15 -31.3 8.3 -28.7 7.75 -30.15 7.45 -30.9 7.35 -32.3 L7.05 -34.35 Q7.0 -36.15 7.1 -36.55" fill="#f2f7f8" fill-rule="evenodd" stroke="none"/>
      <path d="M7.1 -36.55 Q7.0 -36.15 7.05 -34.35 L7.35 -32.3 Q7.45 -30.9 7.75 -30.15 8.3 -28.7 9.15 -31.3 9.15 -30.25 9.4 -29.65 9.75 -28.25 10.7 -29.85 L13.0 -37.55 13.4 -38.4 13.65 -39.45 13.65 -36.0 13.55 -33.9 12.75 -30.3 12.3 -28.75 11.55 -27.05 10.7 -25.75 Q10.35 -25.25 8.65 -26.9 6.95 -28.55 7.0 -28.9 6.75 -30.4 6.85 -32.65 L6.95 -34.75 Q6.95 -36.05 7.1 -36.55" fill="#bbd1d7" fill-rule="evenodd" stroke="none"/>
      <path d="M11.6 -45.35 Q11.3 -45.15 11.1 -45.35 L10.95 -45.5 Q10.65 -45.85 11.15 -46.15 11.65 -46.4 11.85 -46.0 L11.9 -45.65 11.6 -45.35 M12.55 -44.4 Q12.9 -44.65 13.1 -44.2 13.25 -43.8 13.05 -43.65 12.8 -43.45 12.5 -43.8 12.2 -44.15 12.55 -44.4 M13.7 -41.2 Q13.35 -40.95 13.1 -41.35 12.85 -41.75 13.2 -42.0 13.55 -42.3 13.8 -41.85 14.05 -41.45 13.7 -41.2 M14.0 -39.3 L13.15 -39.35 Q12.8 -39.7 13.35 -40.0 L14.15 -39.95 Q14.45 -39.6 14.0 -39.3 M14.15 -37.3 Q14.35 -36.85 13.9 -36.55 13.45 -36.25 13.1 -36.7 12.8 -37.1 13.35 -37.45 13.95 -37.75 14.15 -37.3 M9.3 -44.0 Q9.05 -44.4 9.4 -44.65 9.75 -44.95 10.0 -44.5 10.25 -44.1 9.9 -43.85 9.55 -43.6 9.3 -44.0 M7.95 -39.05 L7.35 -39.1 Q7.1 -39.45 7.55 -39.65 7.95 -39.9 8.1 -39.55 8.25 -39.25 7.95 -39.05 M9.35 -41.0 Q9.0 -40.75 8.6 -41.25 8.15 -41.75 8.65 -42.1 9.15 -42.4 9.4 -41.85 9.65 -41.25 9.35 -41.0 M6.45 -36.75 Q6.25 -36.95 6.55 -37.1 L7.0 -37.1 Q7.15 -36.9 6.9 -36.75 6.65 -36.55 6.45 -36.75 M7.15 -35.0 Q6.75 -34.7 6.45 -35.15 6.2 -35.6 6.55 -35.95 6.95 -36.25 7.25 -35.75 7.55 -35.3 7.15 -35.0 M7.15 -32.65 Q6.9 -32.45 6.55 -32.85 6.2 -33.25 6.65 -33.55 7.05 -33.8 7.25 -33.3 7.45 -32.85 7.15 -32.65 M6.25 -30.15 Q5.95 -30.5 6.45 -30.8 6.95 -31.05 7.15 -30.65 7.3 -30.25 6.9 -30.0 6.55 -29.75 6.25 -30.15 M6.8 -28.45 Q6.55 -28.7 6.95 -28.9 7.35 -29.15 7.55 -28.9 7.75 -28.65 7.4 -28.4 L6.8 -28.45 M8.25 -26.5 Q8.0 -26.85 8.3 -27.1 8.6 -27.35 8.85 -26.95 9.1 -26.55 8.8 -26.35 8.45 -26.1 8.25 -26.5 M12.9 -34.6 Q12.6 -34.95 12.95 -35.2 13.3 -35.45 13.5 -35.0 13.65 -34.6 13.45 -34.45 13.2 -34.25 12.9 -34.6 M13.3 -32.15 Q13.05 -32.55 13.4 -32.8 13.75 -33.1 14.0 -32.65 14.25 -32.25 13.9 -32.0 13.55 -31.75 13.3 -32.15 M12.9 -30.1 L12.2 -30.15 Q11.85 -30.45 12.35 -30.7 L13.05 -30.65 Q13.3 -30.4 12.9 -30.1 M12.25 -28.3 Q12.4 -27.9 12.0 -27.65 11.65 -27.4 11.35 -27.8 11.05 -28.15 11.55 -28.45 12.05 -28.7 12.25 -28.3 M10.6 -26.35 Q10.25 -26.75 10.65 -27.0 11.05 -27.25 11.2 -26.8 11.4 -26.35 11.15 -26.15 10.9 -26.0 10.6 -26.35" fill="#ffffff" fill-opacity="0.81960785" fill-rule="evenodd" stroke="none"/>
      <path d="M-15.85 -12.75 L-15.85 -13.7 -15.7 -14.55 Q-16.5 -16.45 -16.3 -17.75 -16.25 -18.65 -15.1 -19.55 -14.45 -25.0 -9.6 -28.35 -6.95 -30.2 -3.8 -30.15 -0.9 -31.75 2.7 -31.15 3.7 -30.95 4.35 -30.1 6.15 -29.95 7.4 -28.75 10.5 -27.8 12.5 -25.4 L13.3 -24.4 Q14.9 -22.1 14.6 -20.1 14.65 -8.55 8.2 -7.1 8.65 -5.8 5.2 -4.4 1.75 -3.0 -1.6 -5.5 -6.7 -4.1 -7.85 -6.2 -9.0 -8.3 -8.6 -8.9 L-10.85 -8.05 Q-13.6 -8.15 -15.85 -12.75" fill="#f2f7f8" fill-rule="evenodd" stroke="none"/>
      <path d="M-15.85 -12.75 Q-13.6 -8.15 -10.85 -8.05 L-8.6 -8.9 Q-9.0 -8.3 -7.85 -6.2 -6.7 -4.1 -1.6 -5.5 1.75 -3.0 5.2 -4.4 8.65 -5.8 8.2 -7.1 14.65 -8.55 14.6 -20.1 L14.75 -19.8 Q16.1 -16.9 15.4 -14.1 15.6 -13.55 15.2 -10.75 14.8 -8.0 11.65 -4.25 8.45 -0.5 1.2 -0.15 L-2.6 -0.15 Q-6.0 0.3 -6.7 -1.3 -8.2 -1.35 -8.7 -2.0 -11.75 -2.95 -13.55 -5.45 -14.6 -6.95 -14.45 -8.55 -15.8 -10.65 -15.85 -12.75" fill="#bbd1d7" fill-rule="evenodd" stroke="none"/>
      <path d="M2.85 -31.25 Q3.0 -31.05 2.75 -30.95 2.5 -30.85 2.4 -31.05 2.25 -31.25 2.5 -31.35 L2.85 -31.25 M3.85 -29.85 Q3.45 -30.25 4.05 -30.65 4.65 -31.05 4.95 -30.5 5.3 -29.95 4.8 -29.7 4.25 -29.45 3.85 -29.85 M10.05 -28.1 Q10.35 -27.75 10.0 -27.5 L9.4 -27.6 Q9.1 -27.85 9.45 -28.15 L10.05 -28.1 M7.6 -28.4 Q7.15 -28.25 6.9 -28.55 6.8 -28.7 6.85 -28.8 6.5 -28.75 6.3 -29.0 6.1 -29.3 6.55 -29.5 L7.2 -29.4 7.25 -29.1 7.8 -28.95 Q8.0 -28.6 7.6 -28.4 M0.65 -30.8 L-0.2 -30.85 Q-0.6 -31.25 -0.15 -31.65 L0.7 -31.6 Q1.15 -31.1 0.65 -30.8 M13.8 -25.05 Q14.1 -24.6 13.65 -24.4 L12.8 -24.5 Q12.45 -24.85 13.0 -25.2 13.5 -25.5 13.8 -25.05 M10.95 -26.6 Q10.7 -26.95 11.15 -27.15 11.55 -27.35 11.75 -27.0 12.0 -26.65 11.55 -26.45 11.15 -26.25 10.95 -26.6 M14.1 -20.05 Q13.7 -20.45 14.15 -20.85 L15.0 -20.8 Q15.45 -20.3 14.95 -20.0 L14.1 -20.05 M14.0 -22.3 Q13.8 -22.55 14.15 -22.75 L14.65 -22.65 Q14.85 -22.35 14.5 -22.25 L14.0 -22.3 M14.85 -14.6 Q15.45 -14.95 15.75 -14.45 16.05 -13.95 15.45 -13.7 14.85 -13.45 14.55 -13.85 14.25 -14.3 14.85 -14.6 M16.2 -16.8 Q16.55 -16.25 16.05 -16.0 15.5 -15.75 15.1 -16.15 14.7 -16.55 15.3 -16.95 15.9 -17.35 16.2 -16.8 M14.7 -18.5 Q14.5 -18.75 14.85 -18.95 15.2 -19.1 15.35 -18.8 15.5 -18.55 15.2 -18.4 L14.7 -18.5 M1.05 -0.35 Q1.25 0.0 0.85 0.15 L0.25 0.05 Q0.05 -0.3 0.45 -0.5 L1.05 -0.35 M3.1 -0.35 Q3.45 0.0 3.05 0.25 L2.4 0.2 Q2.1 -0.1 2.45 -0.4 L3.1 -0.35 M4.1 -0.45 Q3.9 -0.75 4.35 -0.95 4.75 -1.2 5.0 -0.85 5.2 -0.5 4.8 -0.3 4.35 -0.15 4.1 -0.45 M8.9 -1.35 Q8.55 -1.15 8.3 -1.45 8.1 -1.8 8.5 -2.0 L9.1 -1.85 Q9.3 -1.5 8.9 -1.35 M7.55 -1.15 Q7.0 -0.9 6.55 -1.3 6.1 -1.7 6.75 -2.15 7.4 -2.55 7.75 -1.95 8.1 -1.4 7.55 -1.15 M15.6 -11.3 L14.95 -11.35 Q14.65 -11.65 15.0 -11.95 L15.65 -11.9 Q16.0 -11.55 15.6 -11.3 M14.75 -9.75 Q14.95 -9.4 14.6 -9.25 14.25 -9.1 14.05 -9.4 13.85 -9.7 14.25 -9.85 L14.75 -9.75 M14.4 -7.15 L13.7 -7.25 Q13.35 -7.55 13.8 -7.8 L14.5 -7.7 Q14.75 -7.3 14.4 -7.15 M10.6 -3.4 Q10.3 -3.7 10.65 -4.0 L11.3 -3.95 Q11.65 -3.6 11.25 -3.35 L10.6 -3.4 M12.15 -5.35 Q11.95 -5.65 12.4 -5.85 L13.05 -5.75 Q13.25 -5.4 12.85 -5.2 12.4 -5.05 12.15 -5.35 M-11.9 -25.6 L-12.75 -25.7 Q-13.1 -26.05 -12.55 -26.4 -12.05 -26.7 -11.75 -26.25 -11.45 -25.8 -11.9 -25.6 M-10.8 -27.3 L-11.5 -27.4 Q-11.75 -27.75 -11.3 -28.0 -10.8 -28.25 -10.55 -27.85 -10.35 -27.5 -10.8 -27.3 M-1.2 -31.05 Q-1.0 -30.75 -1.4 -30.6 L-1.95 -30.7 Q-2.15 -30.95 -1.75 -31.15 L-1.2 -31.05 M-8.5 -28.45 Q-8.85 -28.25 -9.1 -28.55 -9.4 -28.8 -9.05 -29.1 L-8.45 -29.05 Q-8.15 -28.7 -8.5 -28.45 M-6.1 -29.8 Q-6.55 -29.55 -6.8 -29.95 -7.05 -30.3 -6.6 -30.55 -6.15 -30.75 -5.9 -30.35 -5.7 -30.0 -6.1 -29.8 M-4.3 -29.4 Q-4.75 -29.8 -4.1 -30.25 -3.45 -30.65 -3.1 -30.05 -2.75 -29.5 -3.3 -29.25 L-4.3 -29.4 M-13.95 -21.75 L-14.6 -21.8 Q-14.9 -22.1 -14.55 -22.4 L-13.9 -22.35 Q-13.55 -22.0 -13.95 -21.75 M-13.45 -23.5 L-14.05 -23.6 Q-14.25 -23.95 -13.85 -24.15 L-13.25 -24.0 Q-13.05 -23.65 -13.45 -23.5 M-14.8 -19.7 Q-15.25 -19.55 -15.5 -19.85 -15.7 -20.15 -15.25 -20.35 L-14.6 -20.25 Q-14.4 -19.9 -14.8 -19.7 M-16.55 -18.0 Q-16.8 -18.2 -16.45 -18.45 -16.05 -18.7 -15.85 -18.35 -15.65 -18.05 -15.95 -17.9 L-16.55 -18.0 M-16.7 -16.2 Q-16.95 -16.55 -16.5 -16.75 -16.1 -16.95 -15.9 -16.6 -15.65 -16.25 -16.1 -16.05 -16.5 -15.85 -16.7 -16.2 M-16.2 -13.4 Q-16.5 -13.65 -16.15 -13.95 L-15.55 -13.9 Q-15.25 -13.55 -15.6 -13.3 L-16.2 -13.4 M-14.8 -9.05 Q-15.2 -8.85 -15.55 -9.15 -15.9 -9.5 -15.4 -9.8 L-14.65 -9.7 Q-14.35 -9.25 -14.8 -9.05 M-14.6 -6.85 Q-14.75 -7.05 -14.5 -7.15 L-14.15 -7.05 Q-14.0 -6.85 -14.25 -6.75 -14.5 -6.65 -14.6 -6.85 M-16.0 -11.1 Q-16.2 -11.4 -15.75 -11.6 L-15.1 -11.5 Q-14.9 -11.15 -15.3 -10.95 -15.75 -10.8 -16.0 -11.1 M-11.95 -3.5 Q-12.15 -3.8 -11.7 -4.0 L-11.05 -3.9 Q-10.85 -3.55 -11.25 -3.35 -11.7 -3.2 -11.95 -3.5 M-14.05 -4.95 Q-14.3 -5.2 -14.0 -5.45 L-13.5 -5.4 Q-13.25 -5.1 -13.55 -4.9 L-14.05 -4.95 M-10.3 -2.9 L-9.55 -2.8 Q-9.25 -2.35 -9.7 -2.15 L-10.45 -2.25 Q-10.8 -2.6 -10.3 -2.9 M-6.0 -1.15 L-5.25 -1.1 Q-4.85 -0.65 -5.3 -0.4 L-6.05 -0.45 Q-6.4 -0.8 -6.0 -1.15 M-8.05 -1.35 L-8.5 -1.45 -8.35 -1.85 -7.9 -1.75 Q-7.75 -1.5 -8.05 -1.35 M-1.1 -0.3 Q-0.95 -0.05 -1.2 0.05 L-1.65 0.0 Q-1.9 -0.2 -1.6 -0.4 L-1.1 -0.3 M-4.5 0.5 Q-4.7 0.2 -4.25 0.0 L-3.6 0.1 Q-3.4 0.45 -3.8 0.65 L-4.5 0.5" fill="#ffffff" fill-opacity="0.81960785" fill-rule="evenodd" stroke="none"/>
      <path d="M6.7 -30.5 Q0.25 -44.5 -0.15 -49.65 -0.25 -51.85 0.3 -54.7 L0.85 -57.15 5.8 -56.55 Q4.8 -53.65 6.55 -43.75 8.3 -33.9 11.25 -30.95 L6.7 -30.5 M-7.9 -56.8 L-6.05 -55.1 Q-4.1 -53.2 -3.55 -52.2 0.45 -44.35 -1.3 -28.8 L-6.15 -27.75 Q-18.55 -36.45 -16.8 -47.1 -16.25 -50.4 -14.3 -53.5 L-12.55 -55.9 -7.9 -56.8" fill="#22201e" fill-rule="evenodd" stroke="none"/>
      <path d="M0.85 -57.15 L0.3 -54.7 Q-0.25 -51.85 -0.15 -49.65 0.25 -44.5 6.7 -30.5 L-1.3 -28.8 Q0.45 -44.35 -3.55 -52.2 -4.1 -53.2 -6.05 -55.1 L-7.9 -56.8 0.85 -57.15" fill="#302f2d" fill-rule="evenodd" stroke="none"/>
      <path d="M-12.55 -55.9 L-14.3 -53.5 Q-16.25 -50.4 -16.8 -47.1 -18.55 -36.45 -6.15 -27.75 L-15.6 -25.7 Q-16.2 -35.8 -19.3 -42.1 L-23.7 -51.45 Q-18.7 -54.5 -12.55 -55.9" fill="#161412" fill-rule="evenodd" stroke="none"/>
      <path d="M6.7 -30.5 L11.25 -30.95 Q8.3 -33.9 6.55 -43.75 4.8 -53.65 5.8 -56.55 L0.85 -57.15 -7.9 -56.8 -6.05 -55.1 Q-4.1 -53.2 -3.55 -52.2 M-1.3 -28.8 L6.7 -30.5 M-6.15 -27.75 L-1.3 -28.8 M-6.15 -27.75 L-15.6 -25.7 Q-16.2 -35.8 -19.3 -42.1 L-23.7 -51.45 Q-18.7 -54.5 -12.55 -55.9 L-7.9 -56.8" fill="none" stroke="#000000" stroke-linecap="round" stroke-linejoin="round" stroke-opacity="0.3019608" stroke-width="0.30000000000000004"/>
      <path d="M-16.7 -35.3 Q-3.75 -37.15 7.25 -41.45 7.7 -38.0 8.65 -35.6 2.55 -33.4 -3.3 -33.55 L-12.0 -34.05 -16.7 -35.3" fill="#df1114" fill-rule="evenodd" stroke="none"/>
      <path d="M8.65 -35.6 Q10.0 -32.0 12.45 -30.8 -2.3 -31.4 -17.05 -23.15 -14.75 -26.65 -16.7 -35.3 L-12.0 -34.05 -3.3 -33.55 Q2.55 -33.4 8.65 -35.6" fill="#b10c0e" fill-rule="evenodd" stroke="none"/>
      <path d="M8.65 -35.6 Q10.0 -32.0 12.45 -30.8 -2.3 -31.4 -17.05 -23.15 -14.75 -26.65 -16.7 -35.3 -3.75 -37.15 7.25 -41.45 7.7 -38.0 8.65 -35.6 Z" fill="none" stroke="#000000" stroke-linecap="round" stroke-linejoin="round" stroke-opacity="0.3019608" stroke-width="0.30000000000000004"/>
      <path d="M5.3 -26.7 Q-1.15 -27.1 -6.3 -24.45 -11.6 -21.9 -16.45 -14.55 -37.3 -12.55 -17.7 -24.55 1.9 -36.55 16.5 -32.4 31.05 -28.25 15.15 -20.8 11.65 -26.3 5.3 -26.7" fill="#161412" fill-rule="evenodd" stroke="none"/>
      <path d="M5.3 -26.7 Q-1.15 -27.1 -6.3 -24.45 -11.6 -21.9 -16.45 -14.55 -37.3 -12.55 -17.7 -24.55 1.9 -36.55 16.5 -32.4 31.05 -28.25 15.15 -20.8 11.65 -26.3 5.3 -26.7 Z" fill="none" stroke="#000000" stroke-linecap="round" stroke-linejoin="round" stroke-opacity="0.3019608" stroke-width="0.30000000000000004"/>
      <path d="M-27.9 -29.25 L-28.1 -30.4 -28.2 -31.85 Q-28.15 -32.5 -27.45 -33.05 -27.0 -36.65 -23.85 -38.9 -22.15 -40.15 -20.1 -40.1 -18.25 -41.1 -15.9 -40.75 L-14.45 -40.1 -12.9 -39.1 Q-10.9 -38.5 -9.6 -36.95 -9.4 -36.65 -9.25 -34.7 -9.1 -32.65 -9.35 -32.35 -9.4 -30.7 -9.95 -29.55 -11.0 -27.25 -14.1 -28.3 -15.2 -24.65 -17.45 -23.65 -19.75 -22.7 -21.55 -23.15 -23.4 -23.65 -24.9 -25.9 -25.65 -27.0 -25.8 -28.3 -26.05 -28.15 -26.9 -28.6 -27.7 -28.95 -27.9 -29.25" fill="#f2f7f8" fill-rule="evenodd" stroke="none"/>
      <path d="M-9.6 -36.95 L-8.8 -35.45 Q-8.15 -34.05 -8.25 -33.45 -7.2 -31.4 -7.75 -29.45 -7.6 -29.1 -9.15 -27.8 -10.75 -26.5 -12.55 -23.5 -14.4 -20.55 -16.9 -20.3 L-19.35 -20.3 Q-21.55 -20.0 -22.0 -21.0 -23.0 -21.1 -23.3 -21.5 -25.3 -22.1 -26.45 -23.75 -27.15 -24.8 -27.0 -25.8 -28.05 -27.5 -27.9 -29.25 -27.7 -28.95 -26.9 -28.6 -26.05 -28.15 -25.8 -28.3 -25.65 -27.0 -24.9 -25.9 -23.4 -23.65 -21.55 -23.15 -19.75 -22.7 -17.45 -23.65 -15.2 -24.65 -14.1 -28.3 -11.0 -27.25 -9.95 -29.55 -9.4 -30.7 -9.35 -32.35 -9.1 -32.65 -9.25 -34.7 -9.4 -36.65 -9.6 -36.95" fill="#bbd1d7" fill-rule="evenodd" stroke="none"/>
      <path d="M-9.5 -37.55 Q-9.25 -37.15 -9.6 -36.9 -10.0 -36.7 -10.15 -37.1 -10.35 -37.5 -10.05 -37.7 -9.8 -37.95 -9.5 -37.55 M-15.65 -40.95 L-16.25 -41.0 Q-16.5 -41.35 -16.1 -41.55 L-15.55 -41.5 Q-15.3 -41.2 -15.65 -40.95 M-17.7 -40.3 Q-18.15 -40.0 -18.4 -40.55 -18.65 -41.05 -18.25 -41.35 -17.9 -41.65 -17.55 -41.1 -17.2 -40.55 -17.7 -40.3 M-19.85 -39.95 L-20.55 -40.0 Q-20.85 -40.35 -20.5 -40.65 L-19.8 -40.6 Q-19.45 -40.25 -19.85 -39.95 M-11.55 -38.45 L-12.2 -38.5 Q-12.45 -38.8 -12.1 -39.1 L-11.45 -39.05 Q-11.15 -38.7 -11.55 -38.45 M-13.65 -39.8 Q-13.95 -39.45 -14.3 -39.9 -14.6 -40.35 -14.2 -40.6 L-13.6 -40.5 Q-13.4 -40.15 -13.65 -39.8 M-11.3 -25.25 Q-11.6 -24.9 -11.95 -25.35 -12.25 -25.8 -11.85 -26.05 -11.45 -26.35 -11.25 -25.95 -11.05 -25.6 -11.3 -25.25 M-8.15 -35.15 L-8.8 -35.2 Q-9.05 -35.55 -8.65 -35.75 L-8.0 -35.7 Q-7.8 -35.4 -8.15 -35.15 M-8.45 -33.65 Q-7.85 -34.05 -7.55 -33.5 -7.25 -33.0 -7.65 -32.45 -8.05 -31.95 -8.55 -32.6 -9.0 -33.25 -8.45 -33.65 M-7.0 -31.1 Q-6.7 -30.75 -7.1 -30.5 L-7.75 -30.55 Q-8.0 -30.85 -7.65 -31.15 L-7.0 -31.1 M-9.45 -27.4 Q-9.25 -27.1 -9.6 -26.85 L-10.25 -26.9 Q-10.5 -27.25 -10.1 -27.45 L-9.45 -27.4 M-8.25 -28.2 Q-8.7 -27.95 -8.9 -28.4 -9.1 -28.9 -8.8 -29.15 -8.45 -29.4 -8.15 -28.9 -7.85 -28.45 -8.25 -28.2 M-25.65 -37.25 Q-25.35 -36.8 -25.75 -36.55 -26.15 -36.35 -26.35 -36.75 -26.5 -37.2 -26.2 -37.45 -25.95 -37.7 -25.65 -37.25 M-24.05 -38.2 Q-24.45 -37.9 -24.7 -38.3 -25.0 -38.65 -24.55 -38.9 L-23.9 -38.85 Q-23.65 -38.5 -24.05 -38.2 M-22.2 -40.0 Q-22.0 -39.65 -22.25 -39.35 L-22.8 -39.4 Q-23.1 -39.85 -22.75 -40.1 -22.4 -40.35 -22.2 -40.0 M-27.45 -34.6 Q-27.75 -34.95 -27.35 -35.3 L-26.6 -35.25 Q-26.25 -34.85 -26.7 -34.55 L-27.45 -34.6 M-28.1 -32.75 L-27.65 -32.7 Q-27.45 -32.4 -27.7 -32.15 L-28.15 -32.2 Q-28.4 -32.55 -28.1 -32.75 M-27.5 -31.0 Q-27.25 -30.65 -27.65 -30.35 L-28.4 -30.4 Q-28.65 -30.8 -28.2 -31.1 -27.75 -31.35 -27.5 -31.0 M-28.15 -28.4 L-27.8 -28.3 Q-27.6 -28.05 -27.85 -27.9 -28.1 -27.75 -28.2 -28.0 L-28.15 -28.4 M-26.85 -25.9 L-27.5 -25.95 Q-27.75 -26.25 -27.4 -26.55 L-26.75 -26.5 Q-26.45 -26.15 -26.85 -25.9 M-24.45 -22.0 Q-24.2 -21.7 -24.55 -21.45 L-25.15 -21.5 Q-25.4 -21.85 -25.0 -22.05 L-24.45 -22.0 M-23.0 -21.4 Q-22.75 -21.65 -22.45 -21.25 -22.2 -20.85 -22.55 -20.6 -22.95 -20.4 -23.1 -20.8 -23.3 -21.2 -23.0 -21.4 M-20.5 -20.5 L-20.0 -20.45 Q-19.75 -20.2 -20.05 -19.95 L-20.55 -20.0 Q-20.75 -20.25 -20.5 -20.5 M-27.15 -23.6 Q-27.45 -24.05 -27.05 -24.3 L-26.45 -24.2 Q-26.25 -23.85 -26.5 -23.5 -26.8 -23.15 -27.15 -23.6 M-13.3 -23.05 Q-13.7 -23.5 -13.2 -23.9 L-12.35 -23.85 Q-11.9 -23.4 -12.45 -23.0 L-13.3 -23.05 M-13.55 -22.2 L-13.5 -22.6 Q-13.3 -22.75 -13.15 -22.5 -12.95 -22.25 -13.2 -22.1 -13.45 -21.95 -13.55 -22.2 M-17.2 -19.7 Q-17.4 -19.45 -17.65 -19.8 -17.85 -20.1 -17.6 -20.3 L-17.15 -20.2 Q-17.0 -19.95 -17.2 -19.7 M-15.6 -20.35 L-16.2 -20.4 Q-16.45 -20.75 -16.05 -20.95 L-15.5 -20.9 Q-15.25 -20.6 -15.6 -20.35" fill="#ffffff" fill-opacity="0.81960785" fill-rule="evenodd" stroke="none"/>
      <path d="M12.05 -15.65 L11.65 -15.5 10.65 -14.65 11.65 -15.5 12.05 -15.65 Q13.3 -16.2 15.9 -15.3 L16.25 -15.45 Q17.55 -16.0 20.75 -14.1 17.15 -12.85 13.6 -12.5 6.45 -11.8 6.55 -16.35 9.5 -17.1 12.05 -15.65 M14.9 -14.45 L15.9 -15.3 14.9 -14.45" fill="#df6c1f" fill-rule="evenodd" stroke="none"/>
      <path d="M6.55 -16.35 Q6.45 -11.8 13.6 -12.5 17.15 -12.85 20.75 -14.1 11.65 -9.6 5.7 -11.7 4.15 -14.0 5.0 -15.1 5.8 -16.2 6.45 -16.35 L6.55 -16.35" fill="#c05b17" fill-rule="evenodd" stroke="none"/>
      <path d="M10.65 -14.65 L11.65 -15.5 12.05 -15.65 Q9.5 -17.1 6.55 -16.35 M20.75 -14.1 Q17.55 -16.0 16.25 -15.45 L15.9 -15.3 14.9 -14.45 M12.05 -15.65 Q13.3 -16.2 15.9 -15.3 M20.75 -14.1 Q11.65 -9.6 5.7 -11.7 4.15 -14.0 5.0 -15.1 5.8 -16.2 6.45 -16.35 L6.55 -16.35" fill="none" stroke="#000000" stroke-linecap="round" stroke-linejoin="round" stroke-opacity="0.29803923" stroke-width="0.30000000000000004"/>
      <path d="M12.25 -19.5 L11.9 -18.95 10.9 -18.35 10.95 -18.1 11.6 -18.0 Q11.9 -18.0 12.2 -18.5 L12.45 -19.2 Q12.45 -19.75 12.25 -19.5 M10.5 -20.9 L10.3 -20.5 10.35 -20.3 Q10.45 -20.1 10.8 -20.1 11.5 -20.1 11.5 -20.9 L11.05 -21.15 10.5 -20.9 M9.0 -18.9 L9.05 -19.55 9.55 -20.8 Q9.95 -21.55 10.95 -21.6 L12.4 -21.6 13.45 -20.1 13.45 -20.05 Q13.05 -17.2 11.6 -17.05 9.6 -17.7 9.0 -18.9" fill="#23170b" fill-rule="evenodd" stroke="none"/>
      <path d="M10.5 -20.9 L11.05 -21.15 11.5 -20.9 Q11.5 -20.1 10.8 -20.1 10.45 -20.1 10.35 -20.3 L10.3 -20.5 10.5 -20.9 M12.25 -19.5 Q12.45 -19.75 12.45 -19.2 L12.2 -18.5 Q11.9 -18.0 11.6 -18.0 L10.95 -18.1 10.9 -18.35 11.9 -18.95 12.25 -19.5" fill="#ada49a" fill-rule="evenodd" stroke="none"/>
      <path d="M9.0 -18.9 Q9.6 -17.7 11.6 -17.05 13.05 -17.2 13.45 -20.05 L13.8 -18.95 Q12.55 -15.75 11.25 -16.5 9.1 -17.6 9.0 -18.9" fill="#bbd1d7" fill-rule="evenodd" stroke="none"/>
      <path d="M13.45 -20.05 L13.45 -20.1 12.4 -21.6 10.95 -21.6 Q9.95 -21.55 9.55 -20.8 L9.05 -19.55 9.0 -18.9 Q9.6 -17.7 11.6 -17.05 13.05 -17.2 13.45 -20.05 Z" fill="none" stroke="#000000" stroke-linecap="round" stroke-linejoin="round" stroke-opacity="0.3019608" stroke-width="0.30000000000000004"/>
      <path d="M0.65 -20.05 Q0.25 -17.2 -1.2 -17.05 -3.2 -17.7 -3.8 -18.9 L-3.75 -19.55 -3.25 -20.8 Q-2.85 -21.55 -1.85 -21.6 L-0.4 -21.6 0.65 -20.1 0.65 -20.05 M-0.55 -19.5 L-0.9 -18.95 -1.9 -18.35 -1.85 -18.1 -1.2 -18.0 Q-0.9 -18.0 -0.6 -18.5 L-0.35 -19.2 Q-0.35 -19.75 -0.55 -19.5 M-2.5 -20.5 L-2.45 -20.3 -2.0 -20.1 Q-1.3 -20.1 -1.3 -20.9 L-1.75 -21.15 -2.3 -20.9 -2.5 -20.5" fill="#23170b" fill-rule="evenodd" stroke="none"/>
      <path d="M0.65 -20.05 L1.0 -18.95 Q-0.25 -15.75 -1.55 -16.5 -3.7 -17.6 -3.8 -18.9 -3.2 -17.7 -1.2 -17.05 0.25 -17.2 0.65 -20.05" fill="#bbd1d7" fill-rule="evenodd" stroke="none"/>
      <path d="M-2.5 -20.5 L-2.3 -20.9 -1.75 -21.15 -1.3 -20.9 Q-1.3 -20.1 -2.0 -20.1 L-2.45 -20.3 -2.5 -20.5 M-0.55 -19.5 Q-0.35 -19.75 -0.35 -19.2 L-0.6 -18.5 Q-0.9 -18.0 -1.2 -18.0 L-1.85 -18.1 -1.9 -18.35 -0.9 -18.95 -0.55 -19.5" fill="#ada49a" fill-rule="evenodd" stroke="none"/>
      <path d="M0.65 -20.05 Q0.25 -17.2 -1.2 -17.05 -3.2 -17.7 -3.8 -18.9 L-3.75 -19.55 -3.25 -20.8 Q-2.85 -21.55 -1.85 -21.6 L-0.4 -21.6 0.65 -20.1 0.65 -20.05 Z" fill="none" stroke="#000000" stroke-linecap="round" stroke-linejoin="round" stroke-opacity="0.3019608" stroke-width="0.30000000000000004"/>
    </g>
  </defs>
</svg>
