<?xml version="1.0" encoding="UTF-8" standalone="no"?>
<svg xmlns:xlink="http://www.w3.org/1999/xlink" height="58.05px" width="52.1px" xmlns="http://www.w3.org/2000/svg">
  <g transform="matrix(1.0, 0.0, 0.0, 1.0, 28.5, 57.35)">
    <use height="58.05" transform="matrix(1.0, 0.0, 0.0, 1.0, -28.5, -57.35)" width="52.1" xlink:href="#decoration204-shape0"/>
  </g>
  <defs>
    <g id="decoration204-shape0" transform="matrix(1.0, 0.0, 0.0, 1.0, 28.5, 57.35)">
      <path d="M7.1 -36.55 Q7.35 -38.6 8.0 -40.15 L9.0 -42.7 Q9.9 -44.8 10.25 -44.85 10.9 -45.9 11.5 -45.75 12.75 -45.5 13.2 -42.5 13.4 -42.5 13.65 -39.45 L13.4 -38.4 13.0 -37.55 10.7 -29.85 Q9.75 -28.25 9.4 -29.65 9.15 -30.25 9.15 -31.3 8.3 -28.7 7.75 -30.15 7.45 -30.9 7.35 -32.3 L7.05 -34.35 Q7.0 -36.15 7.1 -36.55" fill="#f2f7f8" fill-rule="evenodd" stroke="none"/>
      <path d="M7.1 -36.55 Q7.0 -36.15 7.05 -34.35 L7.35 -32.3 Q7.45 -30.9 7.75 -30.15 8.3 -28.7 9.15 -31.3 9.15 -30.25 9.4 -29.65 9.75 -28.25 10.7 -29.85 L13.0 -37.55 13.4 -38.4 13.65 -39.45 13.65 -36.0 13.55 -33.9 12.75 -30.3 12.3 -28.75 11.55 -27.05 10.7 -25.75 Q10.35 -25.25 8.65 -26.9 6.95 -28.55 7.0 -28.9 6.75 -30.4 6.85 -32.65 L6.95 -34.75 Q6.95 -36.05 7.1 -36.55" fill="#bbd1d7" fill-rule="evenodd" stroke="none"/>
      <path d="M12.45 -43.5 Q12.1 -44.05 12.75 -44.35 13.35 -44.65 13.6 -44.05 13.85 -43.45 13.3 -43.2 12.75 -42.95 12.45 -43.5 M11.75 -45.9 Q11.45 -46.25 11.85 -46.5 L12.5 -46.4 Q12.75 -46.1 12.4 -45.8 L11.75 -45.9 M10.55 -45.0 Q10.8 -44.4 10.45 -44.15 10.1 -43.9 9.8 -44.35 9.5 -44.85 9.9 -45.2 10.35 -45.55 10.55 -45.0 M8.5 -43.0 L8.6 -43.15 9.3 -43.25 9.5 -43.05 9.65 -42.8 Q9.95 -42.1 9.35 -41.85 8.7 -41.6 8.35 -42.2 8.05 -42.7 8.5 -43.0 M8.15 -39.8 L7.7 -39.85 Q7.5 -40.05 7.75 -40.25 L8.2 -40.2 Q8.4 -39.95 8.15 -39.8 M7.45 -35.55 Q7.8 -35.15 7.3 -34.85 6.85 -34.55 6.65 -34.95 6.45 -35.35 6.8 -35.65 L7.45 -35.55 M7.35 -37.8 L7.05 -37.85 Q6.9 -38.1 7.1 -38.25 7.3 -38.4 7.4 -38.15 L7.35 -37.8 M13.75 -40.6 Q13.3 -40.3 13.1 -40.7 12.9 -41.1 13.25 -41.4 L13.9 -41.3 Q14.25 -40.9 13.75 -40.6 M13.9 -38.7 Q13.6 -38.5 13.35 -38.9 13.1 -39.3 13.45 -39.65 13.8 -39.95 14.0 -39.45 14.2 -38.95 13.9 -38.7 M13.3 -36.45 Q13.0 -36.85 13.4 -37.1 L14.1 -37.05 Q14.4 -36.65 14.0 -36.4 L13.3 -36.45 M13.6 -32.6 Q13.95 -32.2 13.5 -31.95 13.05 -31.65 12.85 -32.05 12.7 -32.4 13.0 -32.7 13.3 -32.95 13.6 -32.6 M13.35 -34.35 Q13.1 -34.75 13.55 -35.0 14.05 -35.2 14.2 -34.75 14.4 -34.3 14.0 -34.1 13.6 -33.95 13.35 -34.35 M13.05 -30.0 Q13.3 -29.3 12.9 -29.0 12.5 -28.7 12.15 -29.25 11.8 -29.8 12.25 -30.25 12.75 -30.7 13.05 -30.0 M6.8 -33.0 Q6.55 -33.4 7.0 -33.65 7.5 -33.85 7.65 -33.4 7.85 -32.95 7.45 -32.75 7.05 -32.6 6.8 -33.0 M7.1 -30.7 Q6.7 -30.45 6.45 -30.8 6.15 -31.15 6.55 -31.4 L7.2 -31.3 Q7.45 -31.0 7.1 -30.7 M11.45 -27.6 L12.1 -27.5 Q12.35 -27.2 12.0 -26.9 L11.35 -27.0 Q11.05 -27.35 11.45 -27.6 M11.65 -26.05 Q11.85 -25.5 11.35 -25.3 10.9 -25.1 10.6 -25.6 10.3 -26.05 10.85 -26.3 11.4 -26.6 11.65 -26.05 M9.15 -26.65 Q8.45 -26.25 8.2 -26.8 7.95 -27.4 8.4 -27.8 8.85 -28.2 9.35 -27.65 9.8 -27.1 9.15 -26.65 M6.95 -28.15 Q6.7 -28.55 7.05 -28.85 7.4 -29.15 7.6 -28.65 7.8 -28.2 7.5 -28.0 7.2 -27.75 6.95 -28.15" fill="#ffffff" fill-opacity="0.81960785" fill-rule="evenodd" stroke="none"/>
      <path d="M14.6 -20.1 Q14.65 -8.55 8.2 -7.1 8.65 -5.8 5.2 -4.4 1.75 -3.0 -1.6 -5.5 -6.7 -4.1 -7.85 -6.2 -9.0 -8.3 -8.6 -8.9 L-10.85 -8.05 Q-13.6 -8.15 -15.85 -12.75 L-15.85 -13.7 -15.7 -14.55 Q-16.5 -16.45 -16.3 -17.75 -16.25 -18.65 -15.1 -19.55 -14.45 -25.0 -9.6 -28.35 -6.95 -30.2 -3.8 -30.15 -0.9 -31.75 2.7 -31.15 3.7 -30.95 4.35 -30.1 6.15 -29.95 7.4 -28.75 10.5 -27.8 12.5 -25.4 L13.3 -24.4 Q14.9 -22.1 14.6 -20.1" fill="#f2f7f8" fill-rule="evenodd" stroke="none"/>
      <path d="M14.6 -20.1 L14.75 -19.8 Q16.1 -16.9 15.4 -14.1 15.6 -13.55 15.2 -10.75 14.8 -8.0 11.65 -4.25 8.45 -0.5 1.2 -0.15 L-2.6 -0.15 Q-6.0 0.3 -6.7 -1.3 -8.2 -1.35 -8.7 -2.0 -11.75 -2.95 -13.55 -5.45 -14.6 -6.95 -14.45 -8.55 -15.8 -10.65 -15.85 -12.75 -13.6 -8.15 -10.85 -8.05 L-8.6 -8.9 Q-9.0 -8.3 -7.85 -6.2 -6.7 -4.1 -1.6 -5.5 1.75 -3.0 5.2 -4.4 8.65 -5.8 8.2 -7.1 14.65 -8.55 14.6 -20.1" fill="#bbd1d7" fill-rule="evenodd" stroke="none"/>
      <path d="M7.15 -29.15 Q6.6 -28.9 6.2 -29.3 5.8 -29.7 6.3 -30.0 6.75 -30.3 7.2 -29.85 7.7 -29.4 7.15 -29.15 M10.9 -26.85 Q10.7 -27.2 11.0 -27.4 L11.55 -27.35 Q11.8 -27.1 11.45 -26.8 L10.9 -26.85 M8.2 -27.6 Q7.9 -28.2 8.45 -28.65 9.0 -29.05 9.25 -28.4 9.5 -27.75 9.0 -27.35 8.5 -26.95 8.2 -27.6 M14.0 -23.15 Q13.75 -23.4 14.05 -23.6 L14.65 -23.5 Q14.9 -23.2 14.6 -23.05 L14.0 -23.15 M11.8 -25.6 Q11.45 -26.1 11.95 -26.25 12.45 -26.4 12.75 -25.95 13.0 -25.45 12.55 -25.25 12.15 -25.05 11.8 -25.6 M14.3 -21.6 Q14.05 -22.05 14.45 -22.35 14.85 -22.7 15.0 -22.2 15.2 -21.75 14.85 -21.45 14.5 -21.15 14.3 -21.6 M15.45 -17.3 Q15.25 -17.65 15.55 -17.85 L16.1 -17.8 Q16.35 -17.55 16.0 -17.25 L15.45 -17.3 M13.95 -19.45 Q13.75 -19.9 14.1 -20.2 14.45 -20.45 14.65 -20.05 14.8 -19.6 14.5 -19.3 14.15 -19.05 13.95 -19.45 M15.95 -15.4 Q15.45 -15.15 15.1 -15.75 14.7 -16.35 15.25 -16.55 15.85 -16.7 16.15 -16.15 16.45 -15.6 15.95 -15.4 M15.6 -11.25 Q15.8 -10.8 15.45 -10.5 15.1 -10.2 14.9 -10.65 14.65 -11.1 15.05 -11.4 15.45 -11.75 15.6 -11.25 M15.85 -12.8 L15.1 -12.95 Q14.8 -13.3 15.15 -13.5 L15.95 -13.4 Q16.3 -13.0 15.85 -12.8 M14.4 -8.5 Q14.2 -8.85 14.55 -9.1 L15.1 -9.0 Q15.4 -8.75 15.0 -8.45 L14.4 -8.5 M11.85 -4.7 Q11.4 -5.1 11.9 -5.45 12.45 -5.75 12.9 -5.25 13.4 -4.75 12.8 -4.5 12.25 -4.25 11.85 -4.7 M13.5 -6.8 Q13.3 -7.15 13.6 -7.2 13.95 -7.3 14.1 -7.0 14.25 -6.7 14.0 -6.6 13.75 -6.45 13.5 -6.8 M10.8 -3.35 Q10.55 -3.1 10.4 -3.45 10.2 -3.8 10.5 -4.05 L10.95 -3.95 Q11.1 -3.55 10.8 -3.35 M8.55 -2.5 L9.25 -2.4 Q9.6 -2.05 9.1 -1.65 8.65 -1.25 8.4 -1.75 8.1 -2.2 8.55 -2.5 M6.6 -0.75 Q6.35 -0.6 6.1 -0.95 5.9 -1.3 6.2 -1.35 6.55 -1.45 6.7 -1.15 6.85 -0.85 6.6 -0.75 M-4.3 -30.05 Q-4.6 -30.5 -4.2 -30.6 -3.75 -30.75 -3.55 -30.35 -3.35 -29.95 -3.7 -29.8 -4.05 -29.65 -4.3 -30.05 M-6.95 -29.9 Q-7.25 -30.35 -6.8 -30.65 L-6.1 -30.55 Q-5.75 -30.2 -6.25 -29.8 -6.7 -29.4 -6.95 -29.9 M-10.15 -27.3 Q-10.7 -27.05 -11.1 -27.45 -11.5 -27.85 -11.0 -28.15 -10.55 -28.45 -10.1 -28.0 -9.6 -27.55 -10.15 -27.3 M-12.8 -26.45 Q-12.45 -26.55 -12.25 -26.2 -12.05 -25.8 -12.35 -25.7 -12.7 -25.55 -12.95 -25.95 -13.2 -26.35 -12.8 -26.45 M-13.35 -24.0 Q-13.8 -23.6 -14.05 -24.1 -14.35 -24.55 -13.9 -24.85 L-13.2 -24.75 Q-12.85 -24.4 -13.35 -24.0 M-8.15 -28.2 Q-8.5 -27.9 -8.7 -28.35 -8.95 -28.8 -8.55 -29.1 -8.15 -29.45 -8.0 -28.95 -7.8 -28.5 -8.15 -28.2 M3.05 -30.75 Q2.45 -30.25 2.1 -30.85 1.8 -31.45 2.3 -31.8 L3.25 -31.7 Q3.7 -31.25 3.05 -30.75 M4.7 -29.7 Q4.3 -29.5 3.95 -30.05 3.6 -30.55 4.1 -30.7 4.6 -30.85 4.9 -30.4 5.15 -29.9 4.7 -29.7 M-1.55 -30.55 L-2.3 -30.7 Q-2.6 -31.05 -2.25 -31.25 L-1.45 -31.15 Q-1.1 -30.75 -1.55 -30.55 M0.6 -30.85 Q0.35 -30.7 0.25 -30.95 0.1 -31.25 0.35 -31.45 L0.7 -31.35 0.6 -30.85 M-15.15 -21.8 Q-15.4 -22.25 -15.0 -22.55 -14.6 -22.9 -14.45 -22.4 -14.25 -21.95 -14.6 -21.65 -14.95 -21.35 -15.15 -21.8 M-14.55 -20.2 Q-14.05 -19.65 -14.65 -19.4 -15.25 -19.15 -15.7 -19.6 -16.15 -20.0 -15.6 -20.35 -15.05 -20.7 -14.55 -20.2 M-16.7 -18.8 Q-16.25 -18.95 -16.05 -18.55 -15.85 -18.15 -16.2 -18.0 -16.55 -17.85 -16.8 -18.25 -17.1 -18.7 -16.7 -18.8 M-15.95 -15.45 Q-16.4 -15.05 -16.65 -15.55 -16.95 -16.0 -16.5 -16.3 L-15.8 -16.2 Q-15.45 -15.85 -15.95 -15.45 M-15.3 -14.9 Q-15.05 -14.25 -15.55 -13.85 -16.05 -13.45 -16.35 -14.1 -16.65 -14.7 -16.1 -15.15 -15.55 -15.55 -15.3 -14.9 M-15.35 -12.0 Q-15.0 -11.6 -15.45 -11.4 L-16.2 -11.55 Q-16.5 -11.9 -16.15 -12.1 L-15.35 -12.0 M-14.65 -7.15 L-15.1 -7.2 Q-15.25 -7.5 -15.0 -7.65 L-14.6 -7.6 Q-14.4 -7.4 -14.65 -7.15 M-14.8 -8.8 Q-15.15 -8.65 -15.45 -9.1 -15.75 -9.55 -15.3 -9.7 -14.85 -9.85 -14.65 -9.4 -14.4 -9.0 -14.8 -8.8 M-13.2 -5.95 Q-13.05 -5.55 -13.35 -5.35 -13.6 -5.1 -13.75 -5.45 -13.95 -5.8 -13.65 -6.05 -13.35 -6.3 -13.2 -5.95 M-8.95 -2.55 L-8.0 -2.45 Q-7.55 -2.0 -8.2 -1.5 -8.8 -1.0 -9.15 -1.6 -9.45 -2.2 -8.95 -2.55 M-10.1 -2.25 Q-10.45 -2.1 -10.7 -2.5 -11.0 -2.95 -10.6 -3.05 -10.15 -3.2 -9.95 -2.8 -9.75 -2.4 -10.1 -2.25 M-12.15 -3.55 L-12.85 -3.65 Q-13.15 -3.95 -12.8 -4.2 -12.45 -4.4 -12.1 -4.05 -11.75 -3.7 -12.15 -3.55 M-6.15 -1.55 Q-5.9 -0.95 -6.35 -0.55 -6.8 -0.15 -7.1 -0.75 -7.4 -1.35 -6.9 -1.75 -6.4 -2.15 -6.15 -1.55 M-4.7 0.25 Q-4.9 0.1 -4.7 -0.05 L-4.25 0.0 Q-4.05 0.2 -4.3 0.35 L-4.7 0.25 M-2.4 -0.05 Q-2.7 -0.5 -2.3 -0.6 -1.85 -0.75 -1.65 -0.35 -1.45 0.05 -1.8 0.2 -2.15 0.35 -2.4 -0.05 M-0.5 0.45 Q-0.75 0.0 -0.35 -0.25 L0.35 -0.15 Q0.65 0.15 0.2 0.5 L-0.5 0.45 M4.65 -0.65 L4.05 -0.75 Q3.8 -1.0 4.1 -1.2 L4.7 -1.1 Q4.95 -0.8 4.65 -0.65 M2.0 -0.05 Q1.65 0.25 1.4 -0.25 1.15 -0.7 1.6 -1.05 2.0 -1.4 2.2 -0.9 2.4 -0.35 2.0 -0.05" fill="#ffffff" fill-opacity="0.81960785" fill-rule="evenodd" stroke="none"/>
      <path d="M0.85 -57.15 L5.8 -56.55 Q4.8 -53.65 6.55 -43.75 8.3 -33.9 11.25 -30.95 L6.7 -30.5 Q0.25 -44.5 -0.15 -49.65 -0.25 -51.85 0.3 -54.7 L0.85 -57.15 M-1.3 -28.8 L-6.15 -27.75 Q-18.55 -36.45 -16.8 -47.1 -16.25 -50.4 -14.3 -53.5 L-12.55 -55.9 -7.9 -56.8 -6.05 -55.1 Q-4.1 -53.2 -3.55 -52.2 0.45 -44.35 -1.3 -28.8" fill="#22201e" fill-rule="evenodd" stroke="none"/>
      <path d="M6.7 -30.5 L-1.3 -28.8 Q0.45 -44.35 -3.55 -52.2 -4.1 -53.2 -6.05 -55.1 L-7.9 -56.8 0.85 -57.15 0.3 -54.7 Q-0.25 -51.85 -0.15 -49.65 0.25 -44.5 6.7 -30.5" fill="#302f2d" fill-rule="evenodd" stroke="none"/>
      <path d="M-6.15 -27.75 L-15.6 -25.7 Q-16.2 -35.8 -19.3 -42.1 L-23.7 -51.45 Q-18.7 -54.5 -12.55 -55.9 L-14.3 -53.5 Q-16.25 -50.4 -16.8 -47.1 -18.55 -36.45 -6.15 -27.75" fill="#161412" fill-rule="evenodd" stroke="none"/>
      <path d="M0.85 -57.15 L5.8 -56.55 Q4.8 -53.65 6.55 -43.75 8.3 -33.9 11.25 -30.95 L6.7 -30.5 -1.3 -28.8 -6.15 -27.75 -15.6 -25.7 Q-16.2 -35.8 -19.3 -42.1 L-23.7 -51.45 Q-18.7 -54.5 -12.55 -55.9 L-7.9 -56.8 0.85 -57.15 M-7.9 -56.8 L-6.05 -55.1 Q-4.1 -53.2 -3.55 -52.2" fill="none" stroke="#000000" stroke-linecap="round" stroke-linejoin="round" stroke-opacity="0.3019608" stroke-width="0.30000000000000004"/>
      <path d="M-16.7 -35.3 Q-3.75 -37.15 7.25 -41.45 7.7 -38.0 8.65 -35.6 2.55 -33.4 -3.3 -33.55 L-12.0 -34.05 -16.7 -35.3" fill="#df1114" fill-rule="evenodd" stroke="none"/>
      <path d="M8.65 -35.6 Q10.0 -32.0 12.45 -30.8 -2.3 -31.4 -17.05 -23.15 -14.75 -26.65 -16.7 -35.3 L-12.0 -34.05 -3.3 -33.55 Q2.55 -33.4 8.65 -35.6" fill="#b10c0e" fill-rule="evenodd" stroke="none"/>
      <path d="M8.65 -35.6 Q10.0 -32.0 12.45 -30.8 -2.3 -31.4 -17.05 -23.15 -14.75 -26.65 -16.7 -35.3 -3.75 -37.15 7.25 -41.45 7.7 -38.0 8.65 -35.6 Z" fill="none" stroke="#000000" stroke-linecap="round" stroke-linejoin="round" stroke-opacity="0.3019608" stroke-width="0.30000000000000004"/>
      <path d="M15.15 -20.8 Q11.65 -26.3 5.3 -26.7 -1.15 -27.1 -6.3 -24.45 -11.6 -21.9 -16.45 -14.55 -37.3 -12.55 -17.7 -24.55 1.9 -36.55 16.5 -32.4 31.05 -28.25 15.15 -20.8" fill="#161412" fill-rule="evenodd" stroke="none"/>
      <path d="M15.15 -20.8 Q11.65 -26.3 5.3 -26.7 -1.15 -27.1 -6.3 -24.45 -11.6 -21.9 -16.45 -14.55 -37.3 -12.55 -17.7 -24.55 1.9 -36.55 16.5 -32.4 31.05 -28.25 15.15 -20.8 Z" fill="none" stroke="#000000" stroke-linecap="round" stroke-linejoin="round" stroke-opacity="0.3019608" stroke-width="0.30000000000000004"/>
      <path d="M-27.9 -29.25 Q-27.7 -28.95 -26.9 -28.6 -26.05 -28.15 -25.8 -28.3 -25.65 -27.0 -24.9 -25.9 -23.4 -23.65 -21.55 -23.15 -19.75 -22.7 -17.45 -23.65 -15.2 -24.65 -14.1 -28.3 -11.0 -27.25 -9.95 -29.55 -9.4 -30.7 -9.35 -32.35 -9.1 -32.65 -9.25 -34.7 -9.4 -36.65 -9.6 -36.95 L-8.8 -35.45 Q-8.15 -34.05 -8.25 -33.45 -7.2 -31.4 -7.75 -29.45 -7.6 -29.1 -9.15 -27.8 -10.75 -26.5 -12.55 -23.5 -14.4 -20.55 -16.9 -20.3 L-19.35 -20.3 Q-21.55 -20.0 -22.0 -21.0 -23.0 -21.1 -23.3 -21.5 -25.3 -22.1 -26.45 -23.75 -27.15 -24.8 -27.0 -25.8 -28.05 -27.5 -27.9 -29.25" fill="#bbd1d7" fill-rule="evenodd" stroke="none"/>
      <path d="M-27.9 -29.25 L-28.1 -30.4 -28.2 -31.85 Q-28.15 -32.5 -27.45 -33.05 -27.0 -36.65 -23.85 -38.9 -22.15 -40.15 -20.1 -40.1 -18.25 -41.1 -15.9 -40.75 L-14.45 -40.1 -12.9 -39.1 Q-10.9 -38.5 -9.6 -36.95 -9.4 -36.65 -9.25 -34.7 -9.1 -32.65 -9.35 -32.35 -9.4 -30.7 -9.95 -29.55 -11.0 -27.25 -14.1 -28.3 -15.2 -24.65 -17.45 -23.65 -19.75 -22.7 -21.55 -23.15 -23.4 -23.65 -24.9 -25.9 -25.65 -27.0 -25.8 -28.3 -26.05 -28.15 -26.9 -28.6 -27.7 -28.95 -27.9 -29.25" fill="#f2f7f8" fill-rule="evenodd" stroke="none"/>
      <path d="M-13.45 -39.15 Q-13.75 -39.6 -13.3 -39.8 -12.85 -40.05 -12.65 -39.6 -12.45 -39.15 -12.8 -38.9 -13.15 -38.7 -13.45 -39.15 M-11.4 -38.25 Q-11.0 -38.55 -10.75 -38.1 -10.45 -37.7 -10.9 -37.55 -11.35 -37.35 -11.6 -37.7 -11.85 -38.0 -11.4 -38.25 M-9.3 -36.25 L-9.25 -36.7 -8.7 -36.6 Q-8.4 -36.3 -8.75 -36.15 L-9.3 -36.25 M-9.4 -37.15 L-9.35 -37.6 -8.8 -37.5 Q-8.5 -37.2 -8.85 -37.05 L-9.4 -37.15 M-8.1 -34.3 Q-8.35 -34.5 -8.05 -34.8 -7.7 -35.15 -7.5 -34.8 -7.35 -34.4 -7.6 -34.25 L-8.1 -34.3 M-7.1 -29.05 L-7.75 -29.2 Q-7.95 -29.5 -7.55 -29.75 -7.15 -29.95 -6.9 -29.6 -6.65 -29.2 -7.1 -29.05 M-7.9 -31.45 L-8.35 -31.55 Q-8.5 -31.85 -8.25 -32.0 -7.95 -32.15 -7.8 -31.85 -7.7 -31.55 -7.9 -31.45 M-9.25 -27.6 L-9.2 -27.9 -8.8 -27.85 Q-8.6 -27.65 -8.85 -27.55 L-9.25 -27.6 M-10.6 -26.15 L-10.55 -26.6 Q-10.3 -26.9 -10.15 -26.6 -10.0 -26.3 -10.2 -26.15 -10.4 -26.0 -10.6 -26.15 M-11.85 -24.85 Q-12.1 -25.25 -11.7 -25.45 -11.3 -25.7 -11.1 -25.25 -10.9 -24.85 -11.25 -24.65 -11.55 -24.45 -11.85 -24.85 M-19.5 -39.95 Q-19.95 -39.75 -20.2 -40.1 -20.45 -40.4 -20.0 -40.65 -19.6 -40.95 -19.35 -40.5 -19.05 -40.1 -19.5 -39.95 M-21.75 -40.55 Q-21.3 -40.8 -21.1 -40.35 -20.9 -39.9 -21.25 -39.65 -21.6 -39.45 -21.9 -39.9 -22.2 -40.35 -21.75 -40.55 M-23.7 -39.0 Q-23.9 -38.85 -24.1 -39.0 L-24.05 -39.45 Q-23.8 -39.75 -23.65 -39.45 -23.5 -39.15 -23.7 -39.0 M-17.65 -40.8 L-17.6 -41.25 -17.05 -41.15 Q-16.7 -40.8 -17.1 -40.7 L-17.65 -40.8 M-15.6 -40.5 L-15.55 -40.9 -15.15 -40.85 Q-15.0 -40.6 -15.2 -40.45 L-15.6 -40.5 M-27.3 -35.5 Q-27.55 -35.8 -27.1 -36.05 -26.7 -36.35 -26.45 -35.9 -26.15 -35.5 -26.6 -35.35 -27.05 -35.15 -27.3 -35.5 M-25.5 -37.25 L-25.45 -37.8 -24.8 -37.7 Q-24.35 -37.3 -24.85 -37.15 -25.3 -36.95 -25.5 -37.25 M-27.55 -33.05 Q-27.75 -33.3 -27.45 -33.4 -27.2 -33.55 -27.1 -33.3 -27.0 -33.05 -27.2 -32.9 -27.4 -32.8 -27.55 -33.05 M-28.4 -31.3 L-28.35 -31.65 Q-28.15 -31.85 -28.05 -31.65 -27.9 -31.4 -28.1 -31.3 -28.25 -31.15 -28.4 -31.3 M-27.15 -29.25 Q-26.65 -28.75 -27.25 -28.55 L-28.1 -28.65 Q-28.35 -29.0 -28.0 -29.4 -27.7 -29.75 -27.15 -29.25 M-27.0 -26.1 Q-27.45 -25.9 -27.7 -26.25 -27.95 -26.55 -27.5 -26.8 -27.1 -27.1 -26.85 -26.65 -26.55 -26.25 -27.0 -26.1 M-26.7 -24.45 Q-26.9 -24.35 -27.05 -24.55 -27.2 -24.75 -26.95 -24.9 -26.75 -25.0 -26.65 -24.75 -26.55 -24.55 -26.7 -24.45 M-14.6 -21.35 Q-14.75 -21.6 -14.55 -21.85 L-13.9 -21.75 Q-13.55 -21.4 -13.95 -21.25 L-14.6 -21.35 M-17.6 -20.05 Q-17.9 -20.35 -17.5 -20.75 L-16.85 -20.7 Q-16.6 -20.25 -16.95 -20.0 L-17.6 -20.05 M-19.45 -20.1 Q-19.75 -20.55 -19.25 -20.8 -18.8 -21.05 -18.6 -20.55 -18.4 -20.05 -18.75 -19.85 -19.1 -19.6 -19.45 -20.1 M-21.15 -20.25 L-21.6 -20.35 Q-21.75 -20.55 -21.5 -20.7 -21.2 -20.85 -21.05 -20.6 -20.9 -20.35 -21.15 -20.25 M-23.0 -21.4 L-23.55 -21.5 -23.5 -21.95 -22.95 -21.85 Q-22.6 -21.5 -23.0 -21.4 M-24.8 -22.0 L-25.4 -22.05 Q-25.7 -22.3 -25.3 -22.7 L-24.7 -22.65 Q-24.5 -22.2 -24.8 -22.0 M-13.6 -22.25 Q-13.85 -22.55 -13.4 -22.8 -13.0 -23.1 -12.75 -22.65 -12.45 -22.25 -12.9 -22.1 -13.35 -21.9 -13.6 -22.25" fill="#ffffff" fill-opacity="0.81960785" fill-rule="evenodd" stroke="none"/>
      <path d="M6.55 -16.35 Q9.5 -17.1 12.05 -15.65 13.3 -16.2 15.9 -15.3 L16.25 -15.45 Q17.55 -16.0 20.75 -14.1 17.15 -12.85 13.6 -12.5 6.45 -11.8 6.55 -16.35 M12.05 -15.65 L11.65 -15.5 10.65 -14.65 11.65 -15.5 12.05 -15.65 M15.9 -15.3 L14.9 -14.45 15.9 -15.3" fill="#df6c1f" fill-rule="evenodd" stroke="none"/>
      <path d="M20.75 -14.1 Q11.65 -9.6 5.7 -11.7 4.15 -14.0 5.0 -15.1 5.8 -16.2 6.45 -16.35 L6.55 -16.35 Q6.45 -11.8 13.6 -12.5 17.15 -12.85 20.75 -14.1" fill="#c05b17" fill-rule="evenodd" stroke="none"/>
      <path d="M6.55 -16.35 Q9.5 -17.1 12.05 -15.65 13.3 -16.2 15.9 -15.3 L16.25 -15.45 Q17.55 -16.0 20.75 -14.1 11.65 -9.6 5.7 -11.7 4.15 -14.0 5.0 -15.1 5.8 -16.2 6.45 -16.35 L6.55 -16.35 M14.9 -14.45 L15.9 -15.3 M10.65 -14.65 L11.65 -15.5 12.05 -15.65" fill="none" stroke="#000000" stroke-linecap="round" stroke-linejoin="round" stroke-opacity="0.29803923" stroke-width="0.30000000000000004"/>
      <path d="M12.45 -19.2 Q12.45 -19.75 12.25 -19.5 L11.9 -18.95 10.9 -18.35 10.95 -18.1 11.6 -18.0 Q11.9 -18.0 12.2 -18.5 L12.45 -19.2 M13.45 -20.05 Q13.05 -17.2 11.6 -17.05 9.6 -17.7 9.0 -18.9 L9.05 -19.55 9.55 -20.8 Q9.95 -21.55 10.95 -21.6 L12.4 -21.6 13.45 -20.1 13.45 -20.05 M10.5 -20.9 L10.3 -20.5 10.35 -20.3 Q10.45 -20.1 10.8 -20.1 11.5 -20.1 11.5 -20.9 L11.05 -21.15 10.5 -20.9" fill="#23170b" fill-rule="evenodd" stroke="none"/>
      <path d="M12.45 -19.2 L12.2 -18.5 Q11.9 -18.0 11.6 -18.0 L10.95 -18.1 10.9 -18.35 11.9 -18.95 12.25 -19.5 Q12.45 -19.75 12.45 -19.2 M10.5 -20.9 L11.05 -21.15 11.5 -20.9 Q11.5 -20.1 10.8 -20.1 10.45 -20.1 10.35 -20.3 L10.3 -20.5 10.5 -20.9" fill="#ada49a" fill-rule="evenodd" stroke="none"/>
      <path d="M13.45 -20.05 L13.8 -18.95 Q12.55 -15.75 11.25 -16.5 9.1 -17.6 9.0 -18.9 9.6 -17.7 11.6 -17.05 13.05 -17.2 13.45 -20.05" fill="#bbd1d7" fill-rule="evenodd" stroke="none"/>
      <path d="M13.45 -20.05 Q13.05 -17.2 11.6 -17.05 9.6 -17.7 9.0 -18.9 L9.05 -19.55 9.55 -20.8 Q9.95 -21.55 10.95 -21.6 L12.4 -21.6 13.45 -20.1 13.45 -20.05 Z" fill="none" stroke="#000000" stroke-linecap="round" stroke-linejoin="round" stroke-opacity="0.3019608" stroke-width="0.30000000000000004"/>
      <path d="M-3.8 -18.9 L-3.75 -19.55 -3.25 -20.8 Q-2.85 -21.55 -1.85 -21.6 L-0.4 -21.6 0.65 -20.1 0.65 -20.05 Q0.25 -17.2 -1.2 -17.05 -3.2 -17.7 -3.8 -18.9 M-1.9 -18.35 L-1.85 -18.1 -1.2 -18.0 Q-0.9 -18.0 -0.6 -18.5 L-0.35 -19.2 Q-0.35 -19.75 -0.55 -19.5 L-0.9 -18.95 -1.9 -18.35 M-1.3 -20.9 L-1.75 -21.15 -2.3 -20.9 -2.5 -20.5 -2.45 -20.3 -2.0 -20.1 Q-1.3 -20.1 -1.3 -20.9" fill="#23170b" fill-rule="evenodd" stroke="none"/>
      <path d="M-1.3 -20.9 Q-1.3 -20.1 -2.0 -20.1 L-2.45 -20.3 -2.5 -20.5 -2.3 -20.9 -1.75 -21.15 -1.3 -20.9 M-1.9 -18.35 L-0.9 -18.95 -0.55 -19.5 Q-0.35 -19.75 -0.35 -19.2 L-0.6 -18.5 Q-0.9 -18.0 -1.2 -18.0 L-1.85 -18.1 -1.9 -18.35" fill="#ada49a" fill-rule="evenodd" stroke="none"/>
      <path d="M-3.8 -18.9 Q-3.2 -17.7 -1.2 -17.05 0.25 -17.2 0.65 -20.05 L1.0 -18.95 Q-0.25 -15.75 -1.55 -16.5 -3.7 -17.6 -3.8 -18.9" fill="#bbd1d7" fill-rule="evenodd" stroke="none"/>
      <path d="M0.65 -20.05 L0.65 -20.1 -0.4 -21.6 -1.85 -21.6 Q-2.85 -21.55 -3.25 -20.8 L-3.75 -19.55 -3.8 -18.9 Q-3.2 -17.7 -1.2 -17.05 0.25 -17.2 0.65 -20.05 Z" fill="none" stroke="#000000" stroke-linecap="round" stroke-linejoin="round" stroke-opacity="0.3019608" stroke-width="0.30000000000000004"/>
    </g>
  </defs>
</svg>
