<?xml version="1.0" encoding="UTF-8" standalone="no"?>
<svg xmlns:ffdec="https://www.free-decompiler.com/flash" xmlns:xlink="http://www.w3.org/1999/xlink" ffdec:objectType="frame" height="46.95px" width="49.85px" xmlns="http://www.w3.org/2000/svg">
  <g transform="matrix(1.0, 0.0, 0.0, 1.0, 27.55, 45.1)">
    <use ffdec:characterId="159" height="46.95" transform="matrix(1.0, 0.0, 0.0, 1.0, -27.55, -45.1)" width="49.85" xlink:href="#decoration205-shape0"/>
  </g>
  <defs>
    <g id="decoration205-shape0" transform="matrix(1.0, 0.0, 0.0, 1.0, 27.55, 45.1)">
      <path d="M15.05 -38.5 L14.8 -37.45 14.4 -36.6 12.1 -28.9 Q11.15 -27.3 10.8 -28.7 10.55 -29.3 10.55 -30.35 9.7 -27.75 9.15 -29.2 8.85 -29.95 8.75 -31.35 L8.45 -33.4 Q8.4 -35.2 8.5 -35.6 8.75 -37.65 9.4 -39.2 L10.4 -41.75 Q11.3 -43.85 11.65 -43.9 12.3 -44.95 12.9 -44.8 14.15 -44.55 14.6 -41.55 14.8 -41.55 15.05 -38.5" fill="#f2f7f8" fill-rule="evenodd" stroke="none"/>
      <path d="M8.5 -35.6 Q8.4 -35.2 8.45 -33.4 L8.75 -31.35 Q8.85 -29.95 9.15 -29.2 9.7 -27.75 10.55 -30.35 10.55 -29.3 10.8 -28.7 11.15 -27.3 12.1 -28.9 L14.4 -36.6 14.8 -37.45 15.05 -38.5 15.05 -35.05 14.95 -32.95 14.15 -29.35 13.7 -27.8 12.95 -26.1 12.1 -24.8 Q11.75 -24.3 10.05 -25.95 8.35 -27.6 8.4 -27.95 8.15 -29.45 8.25 -31.7 L8.35 -33.8 Q8.35 -35.1 8.5 -35.6" fill="#bbd1d7" fill-rule="evenodd" stroke="none"/>
      <path d="M10.8 -43.55 Q10.65 -43.8 10.95 -44.05 10.9 -44.4 11.25 -44.6 11.75 -44.85 12.05 -44.3 12.4 -43.7 11.95 -43.4 11.55 -43.15 11.3 -43.4 11.0 -43.3 10.8 -43.55 M13.0 -44.3 Q12.7 -44.7 13.1 -45.0 13.5 -45.3 13.85 -44.85 14.25 -44.45 13.75 -44.15 13.25 -43.9 13.0 -44.3 M14.55 -42.5 Q14.2 -42.25 13.95 -42.65 13.7 -43.05 14.15 -43.3 14.55 -43.5 14.75 -43.15 14.95 -42.8 14.55 -42.5 M10.6 -41.35 Q10.2 -41.05 9.9 -41.5 9.65 -41.9 10.1 -42.15 10.6 -42.4 10.8 -42.0 11.0 -41.6 10.6 -41.35 M14.2 -40.0 Q13.9 -40.45 14.55 -40.85 15.25 -41.25 15.35 -40.75 15.5 -40.2 15.0 -39.9 14.55 -39.55 14.2 -40.0 M14.65 -38.35 Q14.95 -38.5 15.15 -38.15 15.35 -37.8 15.1 -37.55 14.8 -37.35 14.55 -37.75 14.3 -38.15 14.65 -38.35 M9.45 -39.25 Q9.2 -39.6 9.55 -39.85 L10.2 -39.7 Q10.55 -39.35 10.1 -39.15 L9.45 -39.25 M8.3 -36.55 Q8.05 -37.0 8.4 -37.15 8.75 -37.35 9.0 -36.95 9.2 -36.6 8.9 -36.35 8.55 -36.1 8.3 -36.55 M8.35 -34.2 Q8.05 -34.05 7.9 -34.3 7.7 -34.55 8.1 -34.8 8.5 -35.05 8.55 -34.7 L8.35 -34.2 M8.5 -31.8 Q8.15 -31.55 7.9 -31.95 7.65 -32.35 8.1 -32.6 8.5 -32.8 8.7 -32.45 8.9 -32.1 8.5 -31.8 M8.2 -29.8 Q7.95 -30.15 8.25 -30.35 L8.9 -30.25 Q9.2 -29.95 8.8 -29.7 L8.2 -29.8 M8.75 -27.45 Q8.6 -27.7 8.8 -27.8 L9.1 -27.7 9.05 -27.35 Q8.9 -27.25 8.75 -27.45 M10.1 -25.7 Q10.6 -26.05 10.7 -25.6 10.8 -25.2 10.4 -24.95 10.05 -24.75 9.8 -25.05 9.55 -25.4 10.1 -25.7 M15.55 -35.1 Q14.95 -34.75 14.6 -35.25 14.25 -35.75 14.7 -36.1 15.2 -36.45 15.65 -35.9 16.15 -35.4 15.55 -35.1 M15.55 -33.15 Q15.05 -32.8 14.75 -33.35 14.4 -33.85 15.0 -34.15 15.55 -34.45 15.8 -33.95 16.05 -33.5 15.55 -33.15 M15.0 -31.55 L14.75 -30.95 Q14.45 -30.75 14.2 -31.05 14.0 -31.35 14.45 -31.65 L15.0 -31.55 M14.1 -28.55 Q13.75 -28.3 13.5 -28.75 13.25 -29.2 13.6 -29.35 13.95 -29.55 14.2 -29.15 14.4 -28.8 14.1 -28.55 M12.65 -25.05 Q12.95 -24.5 12.4 -24.15 11.85 -23.75 11.5 -24.35 11.15 -24.9 11.75 -25.25 12.4 -25.6 12.65 -25.05 M13.45 -26.45 Q13.05 -26.2 12.8 -26.55 12.55 -26.9 12.9 -27.15 L13.55 -27.0 Q13.9 -26.65 13.45 -26.45" fill="#ffffff" fill-opacity="0.81960785" fill-rule="evenodd" stroke="none"/>
      <path d="M-14.45 -11.8 L-14.45 -12.75 -14.3 -13.6 Q-15.1 -15.5 -14.9 -16.8 -14.85 -17.7 -13.7 -18.6 -13.05 -24.05 -8.2 -27.4 -5.55 -29.25 -2.4 -29.2 0.5 -30.8 4.1 -30.2 5.1 -30.0 5.75 -29.15 7.55 -29.0 8.8 -27.8 11.9 -26.85 13.9 -24.45 L14.7 -23.45 Q16.3 -21.15 16.0 -19.15 16.05 -7.6 9.6 -6.15 10.05 -4.85 6.6 -3.45 3.15 -2.05 -0.2 -4.55 -5.3 -3.15 -6.45 -5.25 -7.6 -7.35 -7.2 -7.95 L-9.45 -7.1 Q-12.2 -7.2 -14.45 -11.8" fill="#f2f7f8" fill-rule="evenodd" stroke="none"/>
      <path d="M-14.45 -11.8 Q-12.2 -7.2 -9.45 -7.1 L-7.2 -7.95 Q-7.6 -7.35 -6.45 -5.25 -5.3 -3.15 -0.2 -4.55 3.15 -2.05 6.6 -3.45 10.05 -4.85 9.6 -6.15 16.05 -7.6 16.0 -19.15 L16.15 -18.85 Q17.5 -15.95 16.8 -13.15 17.0 -12.6 16.6 -9.8 16.2 -7.05 13.05 -3.3 9.85 0.45 2.6 0.8 L-1.2 0.8 Q-4.6 1.25 -5.3 -0.35 -6.8 -0.4 -7.3 -1.05 -10.35 -2.0 -12.15 -4.5 -13.2 -6.0 -13.05 -7.6 -14.4 -9.7 -14.45 -11.8" fill="#bbd1d7" fill-rule="evenodd" stroke="none"/>
      <path d="M3.6 -29.9 Q3.45 -30.3 3.7 -30.45 L4.25 -30.35 Q4.55 -30.1 4.15 -29.8 3.7 -29.45 3.6 -29.9 M2.1 -30.2 Q1.65 -29.95 1.45 -30.4 1.2 -30.8 1.55 -31.05 1.9 -31.35 2.25 -30.9 2.55 -30.45 2.1 -30.2 M7.7 -28.05 Q7.5 -28.3 7.75 -28.5 8.0 -28.75 8.15 -28.35 8.35 -28.0 8.1 -27.9 7.85 -27.75 7.7 -28.05 M9.2 -28.35 Q9.45 -27.85 9.1 -27.6 8.75 -27.4 8.45 -27.85 8.2 -28.25 8.55 -28.6 8.9 -28.9 9.2 -28.35 M6.35 -28.45 Q6.05 -28.3 5.85 -28.6 5.6 -28.95 5.9 -29.2 6.15 -29.45 6.4 -29.05 6.65 -28.6 6.35 -28.45 M12.05 -25.4 Q11.9 -25.85 12.2 -26.05 L12.8 -25.95 Q13.15 -25.65 12.65 -25.3 12.15 -24.9 12.05 -25.4 M10.45 -26.6 Q10.2 -27.1 10.6 -27.4 11.05 -27.75 11.45 -27.2 11.85 -26.7 11.3 -26.4 10.75 -26.05 10.45 -26.6 M15.8 -19.9 Q15.6 -20.25 15.9 -20.45 16.2 -20.7 16.45 -20.3 16.75 -19.95 16.35 -19.75 16.0 -19.5 15.8 -19.9 M15.25 -21.5 Q15.0 -21.9 15.35 -22.2 15.65 -22.5 15.9 -22.0 16.15 -21.5 15.85 -21.3 15.5 -21.1 15.25 -21.5 M13.85 -23.95 Q13.5 -24.5 13.95 -24.9 14.4 -25.35 14.85 -24.6 15.25 -23.9 14.75 -23.65 14.2 -23.4 13.85 -23.95 M16.85 -17.4 L16.4 -17.45 Q16.3 -17.8 16.5 -17.95 L16.95 -17.9 Q17.2 -17.65 16.85 -17.4 M17.4 -15.9 Q17.7 -15.4 17.35 -15.2 16.95 -15.05 16.7 -15.45 16.45 -15.85 16.8 -16.15 17.1 -16.45 17.4 -15.9 M16.5 -13.4 Q16.25 -13.8 16.6 -14.1 16.9 -14.4 17.15 -13.9 17.4 -13.4 17.1 -13.2 16.75 -13.0 16.5 -13.4 M6.65 -0.1 Q6.85 0.4 6.55 0.55 6.25 0.75 6.0 0.4 5.8 0.0 6.1 -0.25 6.4 -0.55 6.65 -0.1 M7.9 -0.35 Q7.75 -0.6 7.95 -0.8 8.15 -1.0 8.35 -0.65 8.55 -0.35 8.3 -0.25 8.05 -0.1 7.9 -0.35 M16.0 -10.55 Q15.75 -11.05 16.15 -11.35 16.55 -11.65 16.9 -11.15 17.3 -10.65 16.75 -10.35 16.25 -10.05 16.0 -10.55 M15.6 -6.45 Q15.2 -6.3 14.95 -6.7 14.7 -7.1 15.05 -7.4 15.35 -7.7 15.65 -7.15 15.95 -6.65 15.6 -6.45 M15.85 -8.6 Q15.75 -9.05 16.0 -9.25 L16.6 -9.15 Q16.9 -8.85 16.45 -8.5 16.0 -8.15 15.85 -8.6 M14.05 -4.05 Q13.75 -3.85 13.5 -4.2 13.3 -4.6 13.6 -4.85 13.9 -5.15 14.15 -4.7 14.35 -4.2 14.05 -4.05 M10.35 -1.05 Q10.2 -1.45 10.45 -1.6 L11.0 -1.5 Q11.3 -1.25 10.9 -0.95 10.45 -0.6 10.35 -1.05 M12.2 -2.9 Q12.55 -3.15 12.85 -2.75 13.15 -2.35 12.75 -2.1 12.3 -1.85 12.1 -2.25 11.9 -2.65 12.2 -2.9 M0.95 1.55 Q0.8 1.0 1.1 0.8 L1.8 0.9 Q2.15 1.25 1.6 1.65 1.1 2.05 0.95 1.55 M3.75 0.6 Q3.55 0.2 3.85 -0.05 L4.5 0.1 Q4.8 0.5 4.4 0.75 3.95 1.0 3.75 0.6 M-11.15 -25.45 Q-10.9 -25.7 -10.65 -25.3 -10.4 -24.85 -10.7 -24.7 -11.0 -24.55 -11.2 -24.85 -11.45 -25.2 -11.15 -25.45 M-5.65 -28.75 Q-5.75 -29.1 -5.5 -29.3 L-5.0 -29.2 Q-4.75 -28.95 -5.15 -28.65 -5.5 -28.35 -5.65 -28.75 M-6.4 -28.2 Q-6.1 -27.8 -6.5 -27.55 -6.95 -27.3 -7.15 -27.7 -7.35 -28.1 -7.05 -28.35 -6.7 -28.6 -6.4 -28.2 M-8.4 -26.2 Q-8.75 -26.0 -9.0 -26.4 -9.25 -26.8 -8.9 -27.1 -8.6 -27.4 -8.35 -26.9 -8.1 -26.4 -8.4 -26.2 M-1.1 -29.65 Q-1.35 -30.05 -1.0 -30.35 -0.7 -30.65 -0.45 -30.15 -0.2 -29.65 -0.5 -29.45 -0.85 -29.25 -1.1 -29.65 M-2.65 -29.0 Q-2.9 -29.4 -2.55 -29.7 -2.25 -30.0 -1.95 -29.45 -1.65 -28.95 -2.0 -28.75 -2.4 -28.6 -2.65 -29.0 M-11.75 -22.95 Q-12.1 -22.65 -12.25 -23.05 -12.35 -23.4 -12.1 -23.6 L-11.6 -23.5 Q-11.35 -23.25 -11.75 -22.95 M-13.4 -19.1 Q-13.1 -18.4 -13.55 -18.15 -14.0 -17.9 -14.3 -18.45 -14.6 -18.95 -14.2 -19.35 -13.75 -19.75 -13.4 -19.1 M-13.35 -21.65 Q-12.9 -22.0 -12.5 -21.45 -12.05 -20.85 -12.65 -20.55 -13.2 -20.25 -13.5 -20.75 -13.8 -21.3 -13.35 -21.65 M-15.6 -17.9 Q-15.2 -18.25 -14.8 -17.65 -14.45 -17.0 -14.9 -16.75 -15.35 -16.55 -15.65 -17.05 -16.0 -17.55 -15.6 -17.9 M-14.6 -12.9 L-14.1 -12.8 Q-13.85 -12.45 -14.2 -12.3 -14.5 -12.1 -14.65 -12.4 -14.85 -12.7 -14.6 -12.9 M-14.2 -14.55 L-14.5 -14.6 -14.45 -14.95 -14.1 -14.9 Q-13.95 -14.75 -14.2 -14.55 M-14.55 -10.3 Q-14.7 -10.6 -14.45 -10.85 -14.2 -11.1 -14.0 -10.7 -13.8 -10.3 -14.1 -10.15 -14.35 -10.0 -14.55 -10.3 M-13.45 -8.4 Q-13.7 -8.8 -13.35 -9.1 -13.05 -9.4 -12.75 -8.85 -12.45 -8.35 -12.8 -8.15 -13.2 -8.0 -13.45 -8.4 M-10.3 -3.0 Q-10.15 -3.15 -10.0 -2.9 -9.85 -2.6 -10.05 -2.5 -10.25 -2.4 -10.35 -2.6 L-10.3 -3.0 M-11.75 -3.75 Q-12.25 -3.45 -12.5 -3.9 -12.75 -4.35 -12.35 -4.65 -12.0 -4.95 -11.65 -4.45 -11.3 -4.0 -11.75 -3.75 M-12.95 -5.35 Q-13.45 -4.95 -13.55 -5.45 -13.7 -5.9 -13.4 -6.1 -13.1 -6.35 -12.8 -6.0 -12.45 -5.7 -12.95 -5.35 M-9.0 -1.4 L-8.95 -1.9 Q-8.7 -2.15 -8.45 -1.75 -8.2 -1.35 -8.5 -1.2 -8.8 -1.1 -9.0 -1.4 M-6.8 -0.25 L-6.75 -0.6 -6.4 -0.55 Q-6.25 -0.4 -6.5 -0.2 L-6.8 -0.25 M-2.3 1.55 Q-2.65 1.75 -2.9 1.35 -3.15 0.95 -2.8 0.65 -2.5 0.35 -2.25 0.85 -2.0 1.35 -2.3 1.55 M-0.55 0.9 L-0.5 0.55 Q-0.35 0.4 -0.2 0.65 0.0 0.95 -0.2 1.05 L-0.55 0.9 M-4.95 0.8 Q-5.2 0.4 -4.85 0.15 -4.5 -0.15 -4.15 0.3 -3.85 0.75 -4.3 1.0 -4.75 1.25 -4.95 0.8" fill="#ffffff" fill-opacity="0.81960785" fill-rule="evenodd" stroke="none"/>
      <path d="M-8.8 -40.45 L-6.95 -40.9 -4.6 -41.3 -2.75 -41.65 Q-0.95 -42.0 1.5 -40.7 3.75 -40.75 5.75 -38.75 L7.2 -38.15 Q8.35 -37.65 10.05 -35.0 12.05 -32.6 13.0 -29.65 L10.15 -29.35 5.8 -28.65 1.9 -27.8 Q-17.7 -26.45 -8.8 -40.45" fill="#255b10" fill-rule="evenodd" stroke="none"/>
      <path d="M-8.8 -40.45 Q-17.7 -26.45 1.9 -27.8 L-7.95 -24.6 -16.3 -21.55 Q-17.65 -22.55 -17.55 -27.6 -17.45 -32.7 -16.9 -33.75 L-15.5 -36.55 Q-14.65 -38.1 -11.55 -39.25 -10.5 -40.35 -10.1 -39.95 L-8.8 -40.45" fill="#1e4b0c" fill-rule="evenodd" stroke="none"/>
      <path d="M1.9 -27.8 L5.8 -28.65 10.15 -29.35 13.0 -29.65 Q12.05 -32.6 10.05 -35.0 8.35 -37.65 7.2 -38.15 L5.75 -38.75 Q3.75 -40.75 1.5 -40.7 -0.95 -42.0 -2.75 -41.65 L-4.6 -41.3 -6.95 -40.9 -8.8 -40.45 -10.1 -39.95 Q-10.5 -40.35 -11.55 -39.25 -14.65 -38.1 -15.5 -36.55 L-16.9 -33.75 Q-17.45 -32.7 -17.55 -27.6 -17.65 -22.55 -16.3 -21.55 L-7.95 -24.6 1.9 -27.8 Z" fill="none" stroke="#000000" stroke-linecap="round" stroke-linejoin="round" stroke-opacity="0.3882353" stroke-width="0.4"/>
      <path d="M-3.25 -31.25 Q-8.2 -27.95 -1.6 -25.4 L6.55 -24.7 Q12.0 -24.3 16.4 -23.1 15.95 -22.4 14.35 -22.3 -2.85 -26.5 -13.35 -15.45 -16.1 -15.0 -17.6 -22.7 -11.75 -29.45 -3.25 -31.25" fill="#1e4b0c" fill-rule="evenodd" stroke="none"/>
      <path d="M-3.25 -31.25 Q4.25 -32.8 13.9 -30.45 16.5 -26.8 16.4 -23.1 12.0 -24.3 6.55 -24.7 L-1.6 -25.4 Q-8.2 -27.95 -3.25 -31.25" fill="#255b10" fill-rule="evenodd" stroke="none"/>
      <path d="M16.4 -23.1 Q16.5 -26.8 13.9 -30.45 4.25 -32.8 -3.25 -31.25 -11.75 -29.45 -17.6 -22.7 -16.1 -15.0 -13.35 -15.45 -2.85 -26.5 14.35 -22.3 15.95 -22.4 16.4 -23.1 Z" fill="none" stroke="#000000" stroke-linecap="round" stroke-linejoin="round" stroke-opacity="0.3882353" stroke-width="0.4"/>
      <path d="M-26.5 -28.3 L-26.7 -29.45 -26.8 -30.9 Q-26.75 -31.55 -26.05 -32.1 -25.6 -35.7 -22.45 -37.95 -20.75 -39.2 -18.7 -39.15 -16.85 -40.15 -14.5 -39.8 L-13.05 -39.15 -11.5 -38.15 Q-9.5 -37.55 -8.2 -36.0 -8.0 -35.7 -7.85 -33.75 -7.7 -31.7 -7.95 -31.4 -8.0 -29.75 -8.55 -28.6 -9.6 -26.3 -12.7 -27.35 -13.8 -23.7 -16.05 -22.7 -18.35 -21.75 -20.15 -22.2 -22.0 -22.7 -23.5 -24.95 -24.25 -26.05 -24.4 -27.35 L-25.5 -27.65 Q-26.3 -28.0 -26.5 -28.3" fill="#f2f7f8" fill-rule="evenodd" stroke="none"/>
      <path d="M-8.2 -36.0 L-7.4 -34.5 Q-6.75 -33.1 -6.85 -32.5 -5.8 -30.45 -6.35 -28.5 -6.2 -28.15 -7.75 -26.85 -9.35 -25.55 -11.15 -22.55 -13.0 -19.6 -15.5 -19.35 L-17.95 -19.35 Q-20.15 -19.05 -20.6 -20.05 -21.6 -20.15 -21.9 -20.55 -23.9 -21.15 -25.05 -22.8 -25.75 -23.85 -25.6 -24.85 -26.65 -26.55 -26.5 -28.3 -26.3 -28.0 -25.5 -27.65 L-24.4 -27.35 Q-24.25 -26.05 -23.5 -24.95 -22.0 -22.7 -20.15 -22.2 -18.35 -21.75 -16.05 -22.7 -13.8 -23.7 -12.7 -27.35 -9.6 -26.3 -8.55 -28.6 -8.0 -29.75 -7.95 -31.4 -7.7 -31.7 -7.85 -33.75 -8.0 -35.7 -8.2 -36.0" fill="#bbd1d7" fill-rule="evenodd" stroke="none"/>
      <path d="M-17.0 -39.8 Q-17.25 -40.25 -16.85 -40.45 -16.5 -40.6 -16.25 -40.25 -16.0 -39.85 -16.35 -39.6 -16.75 -39.35 -17.0 -39.8 M-18.2 -38.65 Q-18.7 -38.35 -18.9 -38.8 -19.1 -39.25 -18.75 -39.5 -18.35 -39.8 -18.05 -39.35 -17.7 -38.9 -18.2 -38.65 M-14.1 -38.95 Q-14.55 -38.65 -14.9 -39.1 -15.3 -39.5 -14.75 -39.8 -14.2 -40.1 -13.9 -39.65 -13.65 -39.2 -14.1 -38.95 M-11.95 -39.2 Q-11.7 -38.75 -12.15 -38.55 -12.6 -38.35 -12.8 -38.75 -13.05 -39.15 -12.65 -39.4 -12.2 -39.6 -11.95 -39.2 M-10.65 -38.1 Q-10.2 -38.4 -9.8 -37.9 -9.45 -37.35 -10.0 -37.05 -10.6 -36.75 -10.85 -37.25 -11.05 -37.75 -10.65 -38.1 M-6.7 -34.5 Q-6.45 -34.1 -6.85 -33.85 -7.25 -33.55 -7.65 -33.95 -8.0 -34.35 -7.45 -34.65 -6.95 -34.9 -6.7 -34.5 M-8.7 -36.1 Q-8.95 -36.6 -8.6 -36.75 -8.2 -36.95 -7.9 -36.55 -7.65 -36.15 -8.05 -35.85 -8.45 -35.6 -8.7 -36.1 M-6.3 -31.55 Q-6.7 -31.35 -6.9 -31.7 -7.1 -32.1 -6.7 -32.3 -6.35 -32.5 -6.1 -32.15 -5.85 -31.75 -6.3 -31.55 M-6.75 -29.4 Q-6.95 -29.9 -6.55 -30.25 -6.1 -30.55 -5.7 -30.05 -5.35 -29.5 -5.9 -29.2 -6.5 -28.9 -6.75 -29.4 M-6.6 -28.05 Q-6.35 -27.65 -6.7 -27.4 -7.1 -27.15 -7.35 -27.6 -7.6 -28.05 -7.2 -28.25 -6.85 -28.4 -6.6 -28.05 M-8.15 -25.3 Q-8.65 -24.95 -9.1 -25.5 -9.6 -26.0 -8.9 -26.35 -8.25 -26.7 -7.95 -26.15 -7.6 -25.65 -8.15 -25.3 M-22.75 -37.5 Q-23.1 -37.25 -23.45 -37.65 -23.8 -38.0 -23.3 -38.25 -22.8 -38.5 -22.6 -38.15 -22.35 -37.75 -22.75 -37.5 M-21.15 -38.7 Q-21.35 -39.0 -21.0 -39.2 -20.65 -39.4 -20.45 -39.05 -20.2 -38.7 -20.6 -38.5 -21.0 -38.35 -21.15 -38.7 M-24.1 -35.25 Q-24.5 -35.0 -24.75 -35.5 -25.0 -36.0 -24.65 -36.15 -24.25 -36.35 -23.95 -35.95 -23.7 -35.55 -24.1 -35.25 M-26.9 -31.85 Q-27.15 -32.25 -26.75 -32.5 -26.3 -32.7 -26.05 -32.3 -25.8 -31.85 -26.25 -31.65 -26.7 -31.45 -26.9 -31.85 M-26.3 -34.65 Q-25.75 -35.0 -25.3 -34.4 -24.85 -33.8 -25.55 -33.4 -26.25 -33.05 -26.5 -33.65 -26.8 -34.25 -26.3 -34.65 M-27.0 -26.5 Q-27.2 -26.9 -26.9 -27.0 -26.6 -27.15 -26.35 -26.85 -26.15 -26.55 -26.45 -26.3 -26.8 -26.1 -27.0 -26.5 M-27.4 -29.3 Q-27.75 -29.65 -27.25 -29.9 L-26.55 -29.8 Q-26.3 -29.4 -26.7 -29.15 -27.05 -28.9 -27.4 -29.3 M-25.25 -25.1 Q-24.9 -24.65 -25.4 -24.4 -25.9 -24.1 -26.1 -24.55 -26.3 -25.0 -25.95 -25.25 -25.55 -25.55 -25.25 -25.1 M-25.05 -22.45 Q-25.55 -22.2 -25.8 -22.65 -26.1 -23.1 -25.6 -23.4 -25.15 -23.65 -24.85 -23.2 -24.55 -22.7 -25.05 -22.45 M-23.25 -20.7 Q-23.45 -20.55 -23.65 -20.8 -23.9 -21.0 -23.6 -21.15 L-23.15 -21.1 Q-23.0 -20.85 -23.25 -20.7 M-20.85 -19.65 Q-21.1 -19.45 -21.3 -19.8 -21.5 -20.15 -21.2 -20.25 L-20.75 -20.1 Q-20.55 -19.85 -20.85 -19.65 M-9.7 -24.1 Q-10.15 -23.9 -10.35 -24.3 -10.6 -24.7 -10.2 -24.95 -9.75 -25.15 -9.5 -24.75 -9.25 -24.3 -9.7 -24.1 M-11.15 -22.35 Q-11.35 -22.7 -11.05 -22.9 -10.75 -23.1 -10.5 -22.75 -10.25 -22.45 -10.65 -22.25 -11.0 -22.0 -11.15 -22.35 M-13.9 -19.25 L-14.7 -19.35 Q-15.05 -19.75 -14.5 -20.05 -14.0 -20.3 -13.75 -19.9 -13.5 -19.5 -13.9 -19.25 M-12.9 -21.55 Q-12.4 -21.8 -12.05 -21.25 -11.65 -20.75 -12.2 -20.4 -12.75 -20.0 -13.05 -20.65 -13.4 -21.35 -12.9 -21.55 M-17.05 -19.5 Q-17.3 -19.9 -16.85 -20.15 -16.4 -20.4 -16.15 -19.95 -15.85 -19.5 -16.35 -19.3 -16.8 -19.05 -17.05 -19.5 M-19.05 -19.2 L-18.9 -19.65 -18.45 -19.55 Q-18.2 -19.25 -18.55 -19.05 -18.9 -18.85 -19.05 -19.2" fill="#ffffff" fill-opacity="0.81960785" fill-rule="evenodd" stroke="none"/>
      <path d="M17.3 -14.35 L16.3 -13.5 17.3 -14.35 17.65 -14.5 Q18.95 -15.05 22.15 -13.15 18.55 -11.9 15.0 -11.55 7.85 -10.85 7.95 -15.4 10.9 -16.15 13.45 -14.7 14.7 -15.25 17.3 -14.35 M12.05 -13.7 L13.05 -14.55 13.45 -14.7 13.05 -14.55 12.05 -13.7" fill="#df6c1f" fill-rule="evenodd" stroke="none"/>
      <path d="M22.15 -13.15 Q13.05 -8.65 7.1 -10.75 5.55 -13.05 6.4 -14.15 7.2 -15.25 7.85 -15.4 L7.95 -15.4 Q7.85 -10.85 15.0 -11.55 18.55 -11.9 22.15 -13.15" fill="#c05b17" fill-rule="evenodd" stroke="none"/>
      <path d="M16.3 -13.5 L17.3 -14.35 Q14.7 -15.25 13.45 -14.7 L13.05 -14.55 12.05 -13.7 M17.3 -14.35 L17.65 -14.5 Q18.95 -15.05 22.15 -13.15 13.05 -8.65 7.1 -10.75 5.55 -13.05 6.4 -14.15 7.2 -15.25 7.85 -15.4 L7.95 -15.4 Q10.9 -16.15 13.45 -14.7" fill="none" stroke="#000000" stroke-linecap="round" stroke-linejoin="round" stroke-opacity="0.29803923" stroke-width="0.30000000000000004"/>
      <path d="M12.45 -20.2 L11.9 -19.95 11.7 -19.55 11.75 -19.35 Q11.85 -19.15 12.2 -19.15 12.9 -19.15 12.9 -19.95 12.9 -20.2 12.45 -20.2 M10.4 -17.95 L10.45 -18.6 10.95 -19.85 Q11.35 -20.6 12.35 -20.65 L13.8 -20.65 14.85 -19.15 14.85 -19.1 Q14.45 -16.25 13.0 -16.1 11.0 -16.75 10.4 -17.95 M13.0 -17.05 L13.6 -17.55 13.85 -18.25 Q13.85 -18.8 13.65 -18.55 L13.3 -18.0 12.3 -17.4 12.35 -17.15 13.0 -17.05" fill="#23170b" fill-rule="evenodd" stroke="none"/>
      <path d="M12.45 -20.2 Q12.9 -20.2 12.9 -19.95 12.9 -19.15 12.2 -19.15 11.85 -19.15 11.75 -19.35 L11.7 -19.55 11.9 -19.95 12.45 -20.2 M13.0 -17.05 L12.35 -17.15 12.3 -17.4 13.3 -18.0 13.65 -18.55 Q13.85 -18.8 13.85 -18.25 L13.6 -17.55 13.0 -17.05" fill="#ada49a" fill-rule="evenodd" stroke="none"/>
      <path d="M10.4 -17.95 Q11.0 -16.75 13.0 -16.1 14.45 -16.25 14.85 -19.1 L15.2 -18.0 Q13.95 -14.8 12.65 -15.55 10.5 -16.65 10.4 -17.95" fill="#bbd1d7" fill-rule="evenodd" stroke="none"/>
      <path d="M14.85 -19.1 L14.85 -19.15 13.8 -20.65 12.35 -20.65 Q11.35 -20.6 10.95 -19.85 L10.45 -18.6 10.4 -17.95 Q11.0 -16.75 13.0 -16.1 14.45 -16.25 14.85 -19.1 Z" fill="none" stroke="#000000" stroke-linecap="round" stroke-linejoin="round" stroke-opacity="0.3019608" stroke-width="0.30000000000000004"/>
      <path d="M2.05 -19.1 Q1.65 -16.25 0.2 -16.1 -1.8 -16.75 -2.4 -17.95 L-2.35 -18.6 -1.85 -19.85 Q-1.45 -20.6 -0.45 -20.65 L1.0 -20.65 2.05 -19.15 2.05 -19.1 M-0.35 -20.2 L-0.9 -19.95 -1.1 -19.55 -1.05 -19.35 Q-0.95 -19.15 -0.6 -19.15 0.1 -19.15 0.1 -19.95 0.1 -20.2 -0.35 -20.2 M0.8 -17.55 L1.05 -18.25 Q1.05 -18.8 0.85 -18.55 L0.5 -18.0 -0.5 -17.4 -0.45 -17.15 0.2 -17.05 Q0.5 -17.05 0.8 -17.55" fill="#23170b" fill-rule="evenodd" stroke="none"/>
      <path d="M0.8 -17.55 Q0.5 -17.05 0.2 -17.05 L-0.45 -17.15 -0.5 -17.4 0.5 -18.0 0.85 -18.55 Q1.05 -18.8 1.05 -18.25 L0.8 -17.55 M-0.35 -20.2 Q0.1 -20.2 0.1 -19.95 0.1 -19.15 -0.6 -19.15 -0.95 -19.15 -1.05 -19.35 L-1.1 -19.55 -0.9 -19.95 -0.35 -20.2" fill="#ada49a" fill-rule="evenodd" stroke="none"/>
      <path d="M-2.4 -17.95 Q-1.8 -16.75 0.2 -16.1 1.65 -16.25 2.05 -19.1 L2.4 -18.0 Q1.15 -14.8 -0.15 -15.55 -2.3 -16.65 -2.4 -17.95" fill="#bbd1d7" fill-rule="evenodd" stroke="none"/>
      <path d="M-2.4 -17.95 Q-1.8 -16.75 0.2 -16.1 1.65 -16.25 2.05 -19.1 L2.05 -19.15 1.0 -20.65 -0.45 -20.65 Q-1.45 -20.6 -1.85 -19.85 L-2.35 -18.6 -2.4 -17.95 Z" fill="none" stroke="#000000" stroke-linecap="round" stroke-linejoin="round" stroke-opacity="0.3019608" stroke-width="0.30000000000000004"/>
    </g>
  </defs>
</svg>
