<?xml version="1.0" encoding="UTF-8" standalone="no"?>
<svg xmlns:ffdec="https://www.free-decompiler.com/flash" xmlns:xlink="http://www.w3.org/1999/xlink" ffdec:objectType="frame" height="37.4px" width="48.25px" xmlns="http://www.w3.org/2000/svg">
  <g transform="matrix(1.0, 0.0, 0.0, 1.0, 27.35, 31.1)">
    <use ffdec:characterId="227" height="31.65" transform="matrix(1.0, 0.0, 0.0, 1.0, -20.6, -31.1)" width="40.8" xlink:href="#decoration206-shape0"/>
    <use ffdec:characterId="230" height="36.8" transform="matrix(1.0124, 0.0, 0.0, 1.0124, -27.3531, -30.9478)" width="47.65" xlink:href="#decoration206-sprite0"/>
  </g>
  <defs>
    <g id="decoration206-shape0" transform="matrix(1.0, 0.0, 0.0, 1.0, 20.6, 31.1)">
      <path d="M-4.55 -29.95 L-1.1 -30.55 Q6.05 -31.0 10.9 -26.4 10.1 -23.45 8.45 -22.75 6.75 -22.05 5.25 -22.8 L3.5 -24.7 1.75 -26.45 Q1.0 -27.1 -1.75 -28.55 L-4.55 -29.95" fill="#322117" fill-rule="evenodd" stroke="none"/>
      <path d="M15.5 0.05 L11.4 0.0 Q11.4 -4.2 10.9 -7.9 L13.4 -5.8 Q15.4 -3.6 15.5 0.05" fill="#573a28" fill-rule="evenodd" stroke="none"/>
      <path d="M19.5 -6.25 L19.65 -3.8 19.65 0.05 15.5 0.05 Q15.4 -3.6 13.4 -5.8 L10.9 -7.9 Q9.65 -17.0 5.25 -22.8 6.75 -22.05 8.45 -22.75 10.1 -23.45 10.9 -26.4 12.6 -24.8 14.0 -22.55 10.2 -14.25 14.5 -9.4 16.6 -7.0 19.5 -6.25" fill="url(#decoration206-gradient0)" fill-rule="evenodd" stroke="none"/>
      <path d="M14.0 -22.55 Q15.4 -20.3 16.55 -17.45 18.85 -11.5 19.5 -6.25 16.6 -7.0 14.5 -9.4 10.2 -14.25 14.0 -22.55" fill="url(#decoration206-gradient1)" fill-rule="evenodd" stroke="none"/>
      <path d="M11.4 0.0 L-20.1 -0.2 Q-20.1 -6.55 -18.15 -13.45 -14.25 -27.25 -4.55 -29.95 L-1.75 -28.55 Q1.0 -27.1 1.75 -26.45 L3.5 -24.7 5.25 -22.8 Q9.65 -17.0 10.9 -7.9 11.4 -4.2 11.4 0.0" fill="url(#decoration206-gradient2)" fill-rule="evenodd" stroke="none"/>
      <path d="M14.0 -22.55 Q15.4 -20.3 16.55 -17.45 18.85 -11.5 19.5 -6.25 L19.65 -3.8 19.65 0.05 15.5 0.05 11.4 0.0 -20.1 -0.2 Q-20.1 -6.55 -18.15 -13.45 -14.25 -27.25 -4.55 -29.95 L-1.1 -30.55 Q6.05 -31.0 10.9 -26.4 12.6 -24.8 14.0 -22.55 M-4.55 -29.95 L-1.75 -28.55 Q1.0 -27.1 1.75 -26.45 L3.5 -24.7 5.25 -22.8 Q9.65 -17.0 10.9 -7.9 11.4 -4.2 11.4 0.0" fill="none" stroke="#000000" stroke-linecap="round" stroke-linejoin="round" stroke-opacity="0.4" stroke-width="1.0"/>
      <path d="M14.0 -22.55 Q10.2 -14.25 14.5 -9.4 16.6 -7.0 19.5 -6.25 M10.9 -7.9 L13.4 -5.8 Q15.4 -3.6 15.5 0.05 M5.25 -22.8 Q6.75 -22.05 8.45 -22.75 10.1 -23.45 10.9 -26.4" fill="none" stroke="#000000" stroke-linecap="round" stroke-linejoin="round" stroke-opacity="0.29803923" stroke-width="0.1"/>
    </g>
    <linearGradient gradientTransform="matrix(0.005, 0.0185, -0.0156, 0.0042, 10.75, -11.4)" gradientUnits="userSpaceOnUse" id="decoration206-gradient0" spreadMethod="pad" x1="-819.2" x2="819.2">
      <stop offset="0.0" stop-color="#291a13"/>
      <stop offset="1.0" stop-color="#473022"/>
    </linearGradient>
    <linearGradient gradientTransform="matrix(0.0011, 0.0043, -0.0096, 0.0026, 16.1, -15.65)" gradientUnits="userSpaceOnUse" id="decoration206-gradient1" spreadMethod="pad" x1="-819.2" x2="819.2">
      <stop offset="0.0" stop-color="#3c291b"/>
      <stop offset="1.0" stop-color="#533827"/>
    </linearGradient>
    <linearGradient gradientTransform="matrix(-0.0092, -0.0092, 0.0129, -0.0129, 5.55, -11.8)" gradientUnits="userSpaceOnUse" id="decoration206-gradient2" spreadMethod="pad" x1="-819.2" x2="819.2">
      <stop offset="0.0" stop-color="#2e2e2e"/>
      <stop offset="1.0" stop-color="#181818"/>
    </linearGradient>
    <g id="decoration206-sprite0" transform="matrix(1.0, 0.0, 0.0, 1.0, 0.25, 3.85)">
      <clipPath id="decoration206-clipPath0" transform="matrix(1.0, 0.0, 0.0, 1.0, 0.0, 0.0)">
        <path d="M27.4 -3.85 Q35.7 -3.85 41.55 4.95 47.4 13.75 47.4 26.15 L7.4 26.15 Q7.4 13.75 13.25 4.95 17.6 -1.55 23.25 -3.25 L27.4 -3.85" fill="#005f17" fill-rule="evenodd" stroke="none"/>
      </clipPath>
      <g clip-path="url(#decoration206-clipPath0)">
        <use ffdec:characterId="228" height="35.05" transform="matrix(1.0, 0.0, 0.0, 1.0, 5.35, -2.1)" width="26.65" xlink:href="#decoration206-shape2"/>
        <use ffdec:characterId="189" height="2.55" transform="matrix(1.0, 0.0, 0.0, 1.0, 28.45, 20.25)" width="3.2" xlink:href="#decoration206-sprite1"/>
        <use ffdec:characterId="229" height="16.2" transform="matrix(1.0, 0.0, 0.0, 1.0, -0.25, 5.95)" width="16.95" xlink:href="#decoration206-shape4"/>
      </g>
    </g>
    <g id="decoration206-shape2" transform="matrix(1.0, 0.0, 0.0, 1.0, -5.35, 2.1)">
      <path d="M21.95 7.85 L21.7 12.4 21.7 12.5 21.7 12.65 21.0 15.45 20.6 15.7 Q20.05 15.7 19.6 13.7 L18.95 10.65 Q18.7 9.65 18.75 8.7 18.75 7.75 19.1 5.65 L19.65 2.3 Q20.05 0.0 20.6 0.0 21.15 0.0 21.55 2.3 21.95 4.6 21.95 7.85" fill="#20160f" fill-rule="evenodd" stroke="none"/>
      <path d="M21.7 12.4 L21.7 12.5 21.7 12.65 21.0 15.45 20.6 15.7 Q20.05 15.7 19.6 13.7 L18.95 10.65 Q18.7 9.65 18.75 8.7 18.75 7.75 19.1 5.65 L19.65 2.3 Q20.05 0.0 20.6 0.0 21.15 0.0 21.55 2.3 21.95 4.6 21.95 7.85" fill="none" stroke="#000000" stroke-linecap="round" stroke-linejoin="round" stroke-opacity="0.3019608" stroke-width="0.05"/>
      <path d="M21.8 10.15 Q21.35 10.6 21.55 11.4 L19.6 12.75 Q19.7 11.75 21.8 10.15 M16.9 8.95 L16.75 8.55 Q19.0 9.9 18.45 11.2 L17.3 13.05 17.8 11.3 Q18.15 9.9 16.9 8.95" fill="#312417" fill-rule="evenodd" stroke="none"/>
      <path d="M18.45 11.2 Q19.3 9.75 22.1 9.9 L21.8 10.15 Q19.7 11.75 19.6 12.75 L21.55 11.4 Q24.4 11.2 26.25 13.15 28.1 15.05 28.9 17.0 29.4 18.3 30.0 19.0 27.1 22.4 20.85 20.0 16.7 18.8 15.35 16.65 14.75 15.7 15.1 13.15 L16.15 12.0 Q17.15 10.5 16.9 8.95 18.15 9.9 17.8 11.3 L17.3 13.05 18.45 11.2" fill="url(#decoration206-gradient3)" fill-rule="evenodd" stroke="none"/>
      <path d="M30.0 19.0 L30.55 19.5 31.65 20.35 Q30.2 22.3 23.9 25.0 20.1 25.7 18.35 24.9 14.1 23.05 13.4 18.85 13.05 16.7 13.6 14.85 L15.1 13.15 Q14.75 15.7 15.35 16.65 16.7 18.8 20.85 20.0 27.1 22.4 30.0 19.0" fill="#38291b" fill-rule="evenodd" stroke="none"/>
      <path d="M31.65 20.35 L31.85 21.75 Q31.7 24.25 28.75 26.15 L24.3 28.6 22.25 29.3 Q18.8 27.45 16.75 26.95 14.6 26.45 13.3 25.1 11.95 23.75 12.0 20.4 12.05 17.05 13.6 14.85 13.05 16.7 13.4 18.85 14.1 23.05 18.35 24.9 20.1 25.7 23.9 25.0 30.2 22.3 31.65 20.35" fill="#25170b" fill-rule="evenodd" stroke="none"/>
      <path d="M18.45 11.2 Q19.3 9.75 22.1 9.9 L21.8 10.15 Q21.35 10.6 21.55 11.4 24.4 11.2 26.25 13.15 28.1 15.05 28.9 17.0 29.4 18.3 30.0 19.0 L30.55 19.5 31.65 20.35 31.85 21.75 Q31.7 24.25 28.75 26.15 L24.3 28.6 M16.75 26.95 Q14.6 26.45 13.3 25.1 11.95 23.75 12.0 20.4 12.05 17.05 13.6 14.85 L15.1 13.15 16.15 12.0 Q17.15 10.5 16.9 8.95 L16.75 8.55 Q19.0 9.9 18.45 11.2" fill="none" stroke="#000000" stroke-linecap="round" stroke-linejoin="miter-clip" stroke-miterlimit="5.0" stroke-opacity="0.4" stroke-width="0.30000000000000004"/>
      <path d="M24.0 23.85 Q14.7 24.0 7.65 28.95" fill="none" stroke="#000000" stroke-linecap="round" stroke-linejoin="miter-clip" stroke-miterlimit="5.0" stroke-opacity="0.5019608" stroke-width="0.5"/>
      <path d="M25.5 24.8 Q17.75 27.0 12.95 32.7" fill="none" stroke="#000000" stroke-linecap="round" stroke-linejoin="miter-clip" stroke-miterlimit="5.0" stroke-opacity="0.5019608" stroke-width="0.5"/>
      <path d="M28.8 21.0 Q28.95 21.65 29.95 21.65 30.75 22.05 30.55 22.65 L30.2 22.8 Q29.85 21.65 28.85 21.95 L28.5 21.25 28.8 21.0" fill="#5d4b38" fill-rule="evenodd" stroke="none"/>
      <path d="M30.55 22.65 Q30.75 22.05 29.95 21.65 28.95 21.65 28.8 21.0 L29.3 20.7 Q30.7 21.4 31.05 20.25 L31.35 20.25 31.7 20.9 Q30.8 22.0 31.05 22.35 L30.55 22.65" fill="#6f5b48" fill-rule="evenodd" stroke="none"/>
      <path d="M31.05 20.25 Q30.7 21.4 29.3 20.7 30.15 20.2 31.05 20.25" fill="#726960" fill-rule="evenodd" stroke="none"/>
      <path d="M30.55 22.65 L31.05 22.35 Q30.8 22.0 31.7 20.9 L31.35 20.25 31.05 20.25 Q30.15 20.2 29.3 20.7 L28.8 21.0 28.5 21.25 28.85 21.95 Q29.85 21.65 30.2 22.8 L30.55 22.65 Z" fill="none" stroke="#000000" stroke-linecap="round" stroke-linejoin="round" stroke-opacity="0.3019608" stroke-width="0.05"/>
      <path d="M21.8 19.7 Q21.8 20.55 21.15 21.2 20.5 21.85 19.6 21.85 18.7 21.85 18.05 21.2 17.45 20.55 17.45 19.7 17.45 18.8 18.05 18.15 18.7 17.5 19.6 17.5 20.5 17.5 21.15 18.15 21.8 18.8 21.8 19.7" fill="#0d0806" fill-rule="evenodd" stroke="none"/>
      <path d="M21.8 19.7 Q21.8 20.55 21.15 21.2 20.5 21.85 19.6 21.85 18.7 21.85 18.05 21.2 17.45 20.55 17.45 19.7 17.45 18.8 18.05 18.15 18.7 17.5 19.6 17.5 20.5 17.5 21.15 18.15 21.8 18.8 21.8 19.7 Z" fill="none" stroke="#000000" stroke-linecap="round" stroke-linejoin="round" stroke-opacity="0.3019608" stroke-width="0.05"/>
      <path d="M21.15 18.75 Q21.15 19.25 20.8 19.55 L20.0 19.9 Q19.55 19.9 19.2 19.55 18.9 19.25 18.9 18.75 18.9 18.3 19.2 17.95 19.55 17.65 20.0 17.65 20.45 17.65 20.8 17.95 21.15 18.3 21.15 18.75" fill="#777777" fill-rule="evenodd" stroke="none"/>
      <path d="M18.85 20.4 L18.7 20.8 18.3 20.95 17.9 20.8 17.75 20.4 17.9 20.0 Q18.05 19.85 18.3 19.85 L18.7 20.0 18.85 20.4" fill="#777777" fill-rule="evenodd" stroke="none"/>
      <path d="M9.55 14.15 Q10.3 15.95 12.3 16.15 14.35 16.4 18.4 14.35 22.45 12.3 24.55 12.4 26.45 12.4 27.45 13.0 27.4 13.4 25.5 13.25 23.6 13.1 18.35 16.1 13.1 19.05 12.05 21.2 11.05 21.2 9.4 14.35 L9.55 14.15" fill="#423d38" fill-rule="evenodd" stroke="none"/>
      <path d="M27.45 13.0 Q26.45 12.4 24.55 12.4 22.45 12.3 18.4 14.35 14.35 16.4 12.3 16.15 10.3 15.95 9.55 14.15 9.4 12.55 16.7 8.55 20.0 6.65 23.9 6.35 L25.45 6.65 Q27.05 7.8 27.95 11.75 L27.45 13.0" fill="#6b6b6b" fill-rule="evenodd" stroke="none"/>
      <path d="M23.9 6.35 Q20.0 6.65 16.7 8.55 14.85 8.95 12.35 6.5 9.7 4.05 8.75 1.65 L12.8 -1.85 Q16.8 -2.65 20.7 1.75 22.7 3.95 23.9 6.35" fill="#4f0000" fill-rule="evenodd" stroke="none"/>
      <path d="M9.55 14.15 L9.4 14.35 Q6.8 12.75 5.65 8.6 4.8 5.7 8.75 1.65 9.7 4.05 12.35 6.5 14.85 8.95 16.7 8.55 9.4 12.55 9.55 14.15" fill="#300000" fill-rule="evenodd" stroke="none"/>
      <path d="M9.55 14.15 L9.4 14.35 Q11.05 21.2 12.05 21.2 13.1 19.05 18.35 16.1 23.6 13.1 25.5 13.25 27.4 13.4 27.45 13.0 L27.95 11.75 Q27.05 7.8 25.45 6.65 L23.9 6.35 Q20.0 6.65 16.7 8.55 9.4 12.55 9.55 14.15 M8.75 1.65 L12.8 -1.85 Q16.8 -2.65 20.7 1.75 22.7 3.95 23.9 6.35 M9.4 14.35 Q6.8 12.75 5.65 8.6 4.8 5.7 8.75 1.65" fill="none" stroke="#000000" stroke-linecap="round" stroke-linejoin="round" stroke-opacity="0.3019608" stroke-width="0.30000000000000004"/>
    </g>
    <linearGradient gradientTransform="matrix(0.0013, 0.0083, -0.0059, 9.0E-4, 23.2, 13.9)" gradientUnits="userSpaceOnUse" id="decoration206-gradient3" spreadMethod="pad" x1="-819.2" x2="819.2">
      <stop offset="0.0" stop-color="#47341b"/>
      <stop offset="1.0" stop-color="#38291b"/>
    </linearGradient>
    <g id="decoration206-sprite1" transform="matrix(1.0, 0.0, 0.0, 1.0, 1.8, 1.15)">
      <use ffdec:characterId="188" height="2.55" transform="matrix(1.0, 0.0, 0.0, 1.0, -1.8, -1.15)" width="3.2" xlink:href="#decoration206-shape3"/>
    </g>
    <g id="decoration206-shape3" transform="matrix(1.0, 0.0, 0.0, 1.0, 1.8, 1.15)">
      <path d="M0.75 -1.15 L1.05 -1.15 1.4 -0.5 Q0.5 0.6 0.75 0.95 L0.25 1.25 Q0.45 0.65 -0.35 0.25 -1.35 0.25 -1.5 -0.4 L-1.0 -0.7 Q0.4 0.0 0.75 -1.15" fill="#6f5b48" fill-rule="evenodd" stroke="none"/>
      <path d="M-1.5 -0.4 Q-1.35 0.25 -0.35 0.25 0.45 0.65 0.25 1.25 L-0.1 1.4 Q-0.45 0.25 -1.45 0.55 L-1.8 -0.15 -1.5 -0.4" fill="#5d4b38" fill-rule="evenodd" stroke="none"/>
      <path d="M0.75 -1.15 Q0.4 0.0 -1.0 -0.7 -0.15 -1.2 0.75 -1.15" fill="#726960" fill-rule="evenodd" stroke="none"/>
      <path d="M0.25 1.25 L0.75 0.95 Q0.5 0.6 1.4 -0.5 L1.05 -1.15 0.75 -1.15 Q-0.15 -1.2 -1.0 -0.7 L-1.5 -0.4 -1.8 -0.15 -1.45 0.55 Q-0.45 0.25 -0.1 1.4 L0.25 1.25 Z" fill="none" stroke="#000000" stroke-linecap="round" stroke-linejoin="round" stroke-opacity="0.3019608" stroke-width="0.05"/>
    </g>
    <g id="decoration206-shape4" transform="matrix(1.0, 0.0, 0.0, 1.0, 0.25, -5.95)">
      <path d="M0.0 14.1 Q-0.05 12.55 0.5 11.2 1.0 9.65 2.25 8.45 4.65 6.2 8.0 6.2 11.35 6.2 13.75 8.4 L13.8 8.45 Q16.35 10.7 16.45 14.0 16.5 15.65 16.15 17.3 L15.65 19.0 15.1 18.9 14.9 18.65 14.9 18.75 14.15 18.2 Q13.35 17.7 13.25 16.9 13.1 15.95 13.95 14.35 14.35 13.6 14.2 12.75 14.0 11.55 12.9 10.15 11.45 8.9 10.05 8.3 L9.45 8.0 Q6.55 6.9 3.95 8.5 2.8 9.15 1.75 10.3 L1.65 10.4 Q0.4 12.3 0.1 14.15 L0.0 14.1" fill="url(#decoration206-gradient4)" fill-rule="evenodd" stroke="none"/>
      <path d="M0.1 14.15 Q0.4 12.3 1.65 10.4 L1.75 10.3 Q4.95 7.1 8.45 9.45 9.65 10.15 7.9 11.65 L7.85 11.7 7.75 11.8 7.15 12.35 Q3.6 11.05 0.05 14.25 L0.1 14.15 M13.25 16.9 Q13.35 17.7 14.15 18.2 L14.9 18.75 14.9 18.8 12.25 18.4 12.4 18.6 Q10.85 18.25 10.85 15.3 9.95 13.5 8.6 13.3 6.35 12.8 5.5 16.45 5.65 14.85 6.25 13.7 7.75 12.0 10.0 11.55 L11.65 11.75 Q13.65 13.05 13.05 14.55 12.45 15.55 13.25 16.9" fill="#604933" fill-rule="evenodd" stroke="none"/>
      <path d="M1.75 10.3 Q2.8 9.15 3.95 8.5 6.55 6.9 9.45 8.0 L10.05 8.3 Q11.45 8.9 12.9 10.15 14.0 11.55 14.2 12.75 14.35 13.6 13.95 14.35 13.1 15.95 13.25 16.9 12.45 15.55 13.05 14.55 13.65 13.05 11.65 11.75 L10.0 11.55 Q7.75 12.0 6.25 13.7 L7.15 12.35 7.75 11.8 7.85 11.7 7.9 11.65 Q9.65 10.15 8.45 9.45 4.95 7.1 1.75 10.3 M12.9 10.15 Q10.85 10.25 9.45 10.8 L7.9 11.65 9.45 10.8 Q10.85 10.25 12.9 10.15" fill="#4a3725" fill-rule="evenodd" stroke="none"/>
      <path d="M7.15 12.35 L6.25 13.7 Q5.65 14.85 5.5 16.45 6.35 12.8 8.6 13.3 9.95 13.5 10.85 15.3 10.85 18.25 12.4 18.6 L13.65 20.0 12.3 19.5 13.05 20.5 Q11.9 21.25 10.65 21.6 L8.4 21.9 6.2 21.6 7.4 18.3 4.85 21.1 2.6 19.55 Q0.15 17.4 0.0 14.35 L0.05 14.25 Q3.6 11.05 7.15 12.35 M5.5 18.3 L5.5 16.45 5.5 18.3" fill="#6f5b48" fill-rule="evenodd" stroke="none"/>
      <path d="M0.0 14.1 L0.1 14.15 0.05 14.25 0.0 14.35 0.0 14.25 0.0 14.1" fill="#312417" fill-rule="evenodd" stroke="none"/>
      <path d="M15.65 19.0 L16.15 17.3 Q16.5 15.65 16.45 14.0 16.35 10.7 13.8 8.45 L13.75 8.4 Q11.35 6.2 8.0 6.2 4.65 6.2 2.25 8.45 1.0 9.65 0.5 11.2 -0.05 12.55 0.0 14.1 L0.0 14.25 0.0 14.35 Q0.15 17.4 2.6 19.55 L4.85 21.1 7.4 18.3 6.2 21.6 8.4 21.9 10.65 21.6" fill="none" stroke="#000000" stroke-linecap="round" stroke-linejoin="miter-clip" stroke-miterlimit="5.0" stroke-opacity="0.3019608" stroke-width="0.5"/>
      <path d="M7.85 11.7 L7.9 11.65 9.45 10.8 Q10.85 10.25 12.9 10.15 M7.75 11.8 L7.15 12.35 6.25 13.7 Q5.65 14.85 5.5 16.45 L5.5 18.3" fill="none" stroke="#000000" stroke-linecap="round" stroke-linejoin="miter-clip" stroke-miterlimit="5.0" stroke-opacity="0.2" stroke-width="0.30000000000000004"/>
      <path d="M3.95 8.5 Q6.55 6.9 9.45 8.0 L10.05 8.3 Q11.45 8.9 12.9 10.15 14.0 11.55 14.2 12.75 14.35 13.6 13.95 14.35 13.1 15.95 13.25 16.9 13.35 17.7 14.15 18.2" fill="none" stroke="#000000" stroke-linecap="round" stroke-linejoin="miter-clip" stroke-miterlimit="5.0" stroke-opacity="0.3019608" stroke-width="0.30000000000000004"/>
    </g>
    <linearGradient gradientTransform="matrix(9.0E-4, 0.006, -0.0059, 9.0E-4, 12.15, 6.0)" gradientUnits="userSpaceOnUse" id="decoration206-gradient4" spreadMethod="pad" x1="-819.2" x2="819.2">
      <stop offset="0.0" stop-color="#47341b"/>
      <stop offset="1.0" stop-color="#342619"/>
    </linearGradient>
  </defs>
</svg>
