<?xml version="1.0" encoding="UTF-8" standalone="no"?>
<svg xmlns:ffdec="https://www.free-decompiler.com/flash" xmlns:xlink="http://www.w3.org/1999/xlink" ffdec:objectType="frame" height="34.3px" width="22.1px" xmlns="http://www.w3.org/2000/svg">
  <g transform="matrix(1.0, 0.0, 0.0, 1.0, 11.25, 0.15)">
    <use ffdec:characterId="225" height="34.3" transform="matrix(1.0, 0.0, 0.0, 1.0, -11.25, -0.15)" width="22.1" xlink:href="#decoration207-shape0"/>
  </g>
  <defs>
    <g id="decoration207-shape0" transform="matrix(1.0, 0.0, 0.0, 1.0, 11.25, 0.15)">
      <path d="M5.9 17.45 Q4.7 12.6 2.4 12.55 0.1 12.5 6.45 24.9 7.1 22.3 5.9 17.45 M0.9 10.75 Q5.95 10.85 6.95 19.2 L7.4 22.7 Q8.15 26.4 9.55 27.85 L8.15 27.5 5.85 27.1 4.75 26.9 4.7 26.9 0.15 26.45 -0.65 26.45 -3.4 26.75 Q-5.1 22.3 -3.15 17.45 -1.2 12.6 -0.1 11.6 L0.9 10.75" fill="#f5ba42" fill-rule="evenodd" stroke="none"/>
      <path d="M5.9 17.45 Q7.1 22.3 6.45 24.9 0.1 12.5 2.4 12.55 4.7 12.6 5.9 17.45" fill="#f7cd78" fill-rule="evenodd" stroke="none"/>
      <path d="M-3.4 26.75 L-0.65 26.45 0.15 26.45 4.7 26.9 4.75 26.9 5.85 27.1 8.15 27.5 9.55 27.85 Q10.75 28.45 10.7 29.5 10.65 30.5 7.7 31.3 L2.55 32.1 2.65 31.75 6.35 31.0 Q8.3 30.4 9.15 29.8 9.5 29.4 9.3 28.85 9.05 28.3 5.65 27.55 L0.55 26.75 -0.65 26.8 -0.65 26.45 -0.7 26.8 -5.05 27.3 -7.35 27.85 -8.55 28.2 Q-9.15 28.5 -9.0 29.35 -8.85 30.15 -6.6 30.9 L-3.2 31.65 -3.1 32.05 -7.25 31.4 Q-10.15 30.6 -10.35 29.6 -10.5 28.6 -9.9 28.25 -9.3 27.8 -8.85 27.7 L-5.8 27.1 -3.4 26.75" fill="#c49e49" fill-rule="evenodd" stroke="none"/>
      <path d="M-0.65 26.45 L-0.65 26.8 0.55 26.75 5.65 27.55 Q9.05 28.3 9.3 28.85 9.5 29.4 9.15 29.8 8.3 30.4 6.35 31.0 L2.65 31.75 Q2.4 30.45 1.8 29.9 L1.3 29.65 0.55 29.4 0.55 26.75 0.55 29.4 -0.95 29.25 -2.35 29.9 Q-3.2 30.6 -3.2 31.65 L-6.6 30.9 Q-8.85 30.15 -9.0 29.35 -9.15 28.5 -8.55 28.2 L-7.35 27.85 -5.05 27.3 -0.7 26.8 -0.65 26.45 M-0.7 26.8 L-0.95 29.25 -0.7 26.8" fill="#ac5e0a" fill-rule="evenodd" stroke="none"/>
      <path d="M2.55 32.1 L2.0 33.1 1.45 33.6 Q1.65 30.9 -2.3 29.95 L-2.35 29.9 -0.95 29.25 0.55 29.4 1.3 29.65 1.8 29.9 Q2.4 30.45 2.65 31.75 L2.55 32.1" fill="#b06217" fill-rule="evenodd" stroke="none"/>
      <path d="M-6.15 18.6 Q-5.65 12.95 -5.25 14.95 -4.9 16.9 -5.5 21.5 -6.15 26.05 -6.75 27.1 L-6.15 18.6" fill="#e79740" fill-rule="evenodd" stroke="none"/>
      <path d="M0.9 10.75 L-0.1 11.6 Q-1.2 12.6 -3.15 17.45 -5.1 22.3 -3.4 26.75 L-5.8 27.1 -8.85 27.7 Q-7.7 26.7 -7.15 22.75 L-6.85 17.85 Q-6.6 15.35 -5.95 14.05 -4.15 10.6 0.9 10.75 M-6.15 18.6 L-6.75 27.1 Q-6.15 26.05 -5.5 21.5 -4.9 16.9 -5.25 14.95 -5.65 12.95 -6.15 18.6" fill="#d58024" fill-rule="evenodd" stroke="none"/>
      <path d="M1.45 33.6 Q0.8 34.2 -0.8 33.95 -2.4 33.65 -3.1 32.05 L-3.2 31.65 Q-3.2 30.6 -2.35 29.9 L-2.3 29.95 Q1.65 30.9 1.45 33.6" fill="#f8b533" fill-rule="evenodd" stroke="none"/>
      <path d="M9.55 27.85 Q8.15 26.4 7.4 22.7 L6.95 19.2 Q5.95 10.85 0.9 10.75 -4.15 10.6 -5.95 14.05 -6.6 15.35 -6.85 17.85 L-7.15 22.75 Q-7.7 26.7 -8.85 27.7 L-5.8 27.1 -3.4 26.75 -0.65 26.45 0.15 26.45 4.7 26.9 4.75 26.9 5.85 27.1 8.15 27.5 9.55 27.85 Q10.75 28.45 10.7 29.5 10.65 30.5 7.7 31.3 L2.55 32.1 2.0 33.1 1.45 33.6 Q0.8 34.2 -0.8 33.95 -2.4 33.65 -3.1 32.05 L-7.25 31.4 Q-10.15 30.6 -10.35 29.6 -10.5 28.6 -9.9 28.25 -9.3 27.8 -8.85 27.7 M2.65 31.75 L2.55 32.1 M0.55 29.4 L0.55 26.75 M0.55 29.4 L1.3 29.65 1.8 29.9 Q2.4 30.45 2.65 31.75 M-0.7 26.8 L-0.65 26.45 M-2.35 29.9 L-0.95 29.25 -0.7 26.8 M-2.35 29.9 Q-3.2 30.6 -3.2 31.65 L-3.1 32.05 M-0.95 29.25 L0.55 29.4" fill="none" stroke="#000000" stroke-linecap="round" stroke-linejoin="round" stroke-opacity="0.4" stroke-width="0.30000000000000004"/>
      <path d="M-2.5 8.65 Q-3.65 2.05 -0.65 0.35 2.25 -1.4 2.6 5.15 2.65 7.25 0.95 8.65" fill="none" stroke="#000000" stroke-linecap="round" stroke-linejoin="round" stroke-opacity="0.4509804" stroke-width="0.30000000000000004"/>
      <path d="M2.3 5.7 L3.55 5.35 Q3.75 6.65 4.6 7.8 L5.2 8.5 4.5 8.55 3.75 8.7 3.75 7.95 Q3.5 6.7 2.3 5.7 M7.0 8.0 L8.65 8.8 Q7.05 10.8 6.9 13.5 L6.25 12.85 5.35 12.35 Q6.65 11.25 7.0 9.55 L7.0 9.5 Q7.45 9.3 7.1 8.3 L7.0 8.0 M-10.2 12.85 L-9.0 11.6 Q-8.15 14.2 -6.0 14.6 L-6.65 15.65 -7.0 16.5 Q-8.0 14.2 -10.2 12.85 M-5.5 6.1 L-4.3 6.25 Q-5.6 7.75 -5.25 9.3 L-5.95 9.25 -6.65 9.3 Q-5.5 7.8 -5.5 6.1" fill="#cd2f2f" fill-rule="evenodd" stroke="none"/>
      <path d="M6.45 15.95 L5.6 15.35 Q4.05 13.25 1.65 11.55 L1.55 11.4 0.65 10.8 0.25 10.6 0.3 10.45 Q3.2 11.0 5.35 12.35 L6.25 12.85 6.9 13.5 Q8.65 15.3 6.45 15.95 M-1.6 10.6 Q-3.1 12.6 -3.95 14.6 -4.7 16.05 -5.05 17.5 L-5.75 18.6 Q-8.1 18.85 -7.0 16.5 L-6.65 15.65 -6.0 14.6 Q-4.25 12.45 -1.6 10.55 L-1.6 10.6 M3.75 8.7 L4.5 8.55 5.2 8.5 Q7.05 8.55 6.3 9.95 L5.5 10.05 2.85 10.0 1.2 10.05 0.45 10.2 0.55 9.9 1.2 9.55 Q2.45 8.9 3.75 8.7 M-1.7 10.4 L-2.2 10.3 -3.3 10.35 -6.75 10.8 -7.5 10.85 -7.65 10.65 Q-8.25 9.5 -6.65 9.3 L-5.95 9.25 -5.25 9.3 Q-3.55 9.4 -1.8 10.15 L-1.7 10.4" fill="#7e0202" fill-rule="evenodd" stroke="none"/>
      <path d="M3.55 5.35 Q5.35 4.65 5.7 5.9 5.6 6.3 6.7 7.35 L7.0 8.0 7.1 8.3 Q7.45 9.3 7.0 9.5 L7.0 9.55 Q6.65 11.25 5.35 12.35 3.2 11.0 0.3 10.45 L0.45 10.2 1.2 10.05 2.85 10.0 5.5 10.05 6.3 9.95 Q7.05 8.55 5.2 8.5 L4.6 7.8 Q3.75 6.65 3.55 5.35 M8.65 8.8 Q11.0 9.8 10.1 11.4 9.5 11.7 9.5 13.75 8.45 16.5 7.55 16.25 L6.45 15.95 Q8.65 15.3 6.9 13.5 7.05 10.8 8.65 8.8 M1.65 11.55 Q5.65 15.75 5.3 21.8 L2.8 18.6 0.75 20.3 Q1.7 14.75 -0.05 10.8 L0.25 10.6 0.65 10.8 1.55 11.4 1.65 11.55 M-0.35 10.85 Q-1.0 15.5 -0.45 20.35 L-2.2 17.9 -3.45 20.65 Q-3.8 17.5 -3.15 14.6 -2.7 12.6 -1.6 10.65 L-0.35 10.85 M-5.75 18.6 L-6.75 19.35 Q-7.55 19.9 -9.25 17.9 -10.1 15.95 -10.7 15.95 -12.05 14.9 -10.2 12.85 -8.0 14.2 -7.0 16.5 -8.1 18.85 -5.75 18.6 M-9.0 11.6 Q-8.5 11.1 -7.9 10.75 L-8.25 10.05 Q-8.5 9.25 -8.2 8.4 -7.25 7.3 -7.5 6.9 -7.3 5.7 -5.5 6.1 -5.5 7.8 -6.65 9.3 -8.25 9.5 -7.65 10.65 L-7.5 10.85 -6.75 10.8 -3.3 10.35 -2.2 10.3 -1.7 10.4 -1.6 10.55 Q-4.25 12.45 -6.0 14.6 -8.15 14.2 -9.0 11.6 M-4.3 6.25 Q-2.65 6.85 -1.6 8.55 L-1.55 8.6 -1.55 8.55 -0.85 8.4 -0.15 8.4 -0.15 8.35 Q0.65 6.5 2.3 5.7 3.5 6.7 3.75 7.95 L3.75 8.7 Q2.45 8.9 1.2 9.55 L0.55 9.9 0.3 8.8 0.15 8.55 0.1 8.55 -0.2 9.35 Q-0.5 9.7 -1.0 9.75 L-1.9 9.65 -1.8 10.15 Q-3.55 9.4 -5.25 9.3 -5.6 7.75 -4.3 6.25 M2.45 6.9 Q1.0 7.7 0.3 8.8 1.0 7.7 2.45 6.9 M6.3 9.95 L7.0 9.55 6.3 9.95 M-1.55 8.6 L-1.85 9.2 Q-2.65 8.15 -4.2 7.45 -2.65 8.15 -1.85 9.2 L-1.55 8.6 M-7.5 10.85 L-7.9 10.75 -7.5 10.85 M-0.15 8.4 L0.1 8.55 -0.15 8.4 M-1.85 9.2 L-1.9 9.65 -1.85 9.2 M-7.5 12.2 Q-5.35 10.6 -3.3 10.35 -5.35 10.6 -7.5 12.2" fill="#b70909" fill-rule="evenodd" stroke="none"/>
      <path d="M-0.05 10.8 L-0.35 10.85 -1.6 10.65 -1.6 10.6 -1.6 10.55 -1.7 10.4 -1.8 10.15 -1.9 9.65 -1.0 9.75 Q-0.5 9.7 -0.2 9.35 L0.1 8.55 0.15 8.55 0.3 8.8 0.55 9.9 0.45 10.2 0.3 10.45 0.25 10.6 -0.05 10.8" fill="#9d0808" fill-rule="evenodd" stroke="none"/>
      <path d="M2.3 5.7 L3.55 5.35 Q5.35 4.65 5.7 5.9 5.6 6.3 6.7 7.35 L7.0 8.0 8.65 8.8 Q11.0 9.8 10.1 11.4 9.5 11.7 9.5 13.75 8.45 16.5 7.55 16.25 L6.45 15.95 5.6 15.35 Q4.05 13.25 1.65 11.55 5.65 15.75 5.3 21.8 L2.8 18.6 0.75 20.3 Q1.7 14.75 -0.05 10.8 L-0.35 10.85 Q-1.0 15.5 -0.45 20.35 L-2.2 17.9 -3.45 20.65 Q-3.8 17.5 -3.15 14.6 -2.7 12.6 -1.6 10.65 L-1.6 10.6 Q-3.1 12.6 -3.95 14.6 -4.7 16.05 -5.05 17.5 L-5.75 18.6 -6.75 19.35 Q-7.55 19.9 -9.25 17.9 -10.1 15.95 -10.7 15.95 -12.05 14.9 -10.2 12.85 L-9.0 11.6 Q-8.5 11.1 -7.9 10.75 L-8.25 10.05 Q-8.5 9.25 -8.2 8.4 -7.25 7.3 -7.5 6.9 -7.3 5.7 -5.5 6.1 L-4.3 6.25 Q-2.65 6.85 -1.6 8.55 L-1.55 8.6 -1.55 8.55 -0.85 8.4 -0.15 8.4 -0.15 8.35 Q0.65 6.5 2.3 5.7 M3.75 8.7 L4.5 8.55 5.2 8.5 Q7.05 8.55 6.3 9.95 L5.5 10.05 2.85 10.0 1.2 10.05 0.45 10.2 0.3 10.45 Q3.2 11.0 5.35 12.35 L6.25 12.85 6.9 13.5 Q8.65 15.3 6.45 15.95 M0.1 8.55 L0.15 8.55 0.3 8.8 Q1.0 7.7 2.45 6.9 M0.55 9.9 L0.45 10.2 M7.0 9.55 L6.3 9.95 M3.75 8.7 Q2.45 8.9 1.2 9.55 L0.55 9.9 0.3 8.8 M0.25 10.6 L0.65 10.8 1.55 11.4 1.65 11.55 M0.3 10.45 L0.25 10.6 -0.05 10.8 M7.0 8.0 L7.1 8.3 Q7.45 9.3 7.0 9.5 L7.0 9.55 M-6.65 9.3 Q-8.25 9.5 -7.65 10.65 L-7.5 10.85 -6.75 10.8 -3.3 10.35 -2.2 10.3 -1.7 10.4 -1.8 10.15 Q-3.55 9.4 -5.25 9.3 L-5.95 9.25 -6.65 9.3 M-7.9 10.75 L-7.5 10.85 M-4.2 7.45 Q-2.65 8.15 -1.85 9.2 L-1.55 8.6 M0.1 8.55 L-0.15 8.4 M-1.8 10.15 L-1.9 9.65 -1.85 9.2 M-1.6 10.55 L-1.7 10.4 M-1.6 10.6 L-1.6 10.55 Q-4.25 12.45 -6.0 14.6 L-6.65 15.65 -7.0 16.5 Q-8.1 18.85 -5.75 18.6 M-0.35 10.85 L-1.6 10.65 M-3.3 10.35 Q-5.35 10.6 -7.5 12.2" fill="none" stroke="#000000" stroke-linecap="round" stroke-linejoin="round" stroke-opacity="0.4" stroke-width="0.05"/>
    </g>
  </defs>
</svg>
