<?xml version="1.0" encoding="UTF-8" standalone="no"?>
<svg xmlns:xlink="http://www.w3.org/1999/xlink" height="130.6px" width="76.45px" xmlns="http://www.w3.org/2000/svg">
  <g transform="matrix(1.0, 0.0, 0.0, 1.0, 21.5, 130.65)">
    <use data-characterId="981" height="130.6" transform="matrix(1.0, 0.0, 0.0, 1.0, -21.5, -130.65)" width="76.45" xlink:href="#decoration208-shape0"/>
  </g>
  <defs>
    <g id="decoration208-shape0" transform="matrix(1.0, 0.0, 0.0, 1.0, 21.5, 130.65)">
      <path d="M33.45 -123.95 Q26.6 -124.3 27.8 -125.55 29.55 -127.05 32.4 -128.2 L35.1 -129.3 36.95 -130.35 Q38.7 -131.6 46.95 -127.55 50.8 -125.8 52.4 -124.3 55.1 -122.05 54.95 -120.55 L54.7 -113.4 Q54.7 -105.5 53.95 -101.6 52.8 -96.25 49.2 -90.55 46.55 -86.4 41.8 -80.85 L35.85 -74.05 Q31.3 -69.75 -10.15 -49.45 -8.25 -50.8 -5.4 -56.3 L-0.8 -65.4 Q4.8 -75.75 18.95 -87.85 33.05 -99.95 35.05 -123.55 L34.95 -123.55 33.45 -123.95" fill="url(#decoration208-gradient0)" fill-rule="evenodd" stroke="none"/>
      <path d="M15.95 -33.65 L15.95 -28.75 12.25 -28.75 12.25 -33.65 15.95 -33.65 M15.95 -27.2 L15.95 -21.5 8.6 -21.45 8.6 -27.2 15.95 -27.2 M-5.85 -0.2 L-15.9 -0.2 -15.9 -5.65 -5.85 -5.65 -5.85 -0.2 M-15.9 -7.05 L-15.9 -12.85 -4.45 -12.85 -4.45 -7.05 -15.9 -7.05 M-15.9 -14.3 L-15.9 -20.0 -9.4 -20.0 -9.4 -14.3 -15.9 -14.3 M-15.9 -28.75 L-15.9 -33.65 -3.45 -33.65 -3.45 -28.75 -15.9 -28.75 M9.25 -12.85 L9.25 -7.05 -3.35 -7.05 -3.35 -12.85 9.25 -12.85" fill="#9e3215" fill-rule="evenodd" stroke="none"/>
      <path d="M15.95 -28.75 L15.95 -27.2 8.6 -27.2 8.6 -21.45 15.95 -21.5 15.95 -20.0 4.2 -20.0 4.2 -14.3 15.95 -14.3 15.95 -12.85 10.35 -12.85 10.35 -7.05 15.95 -7.05 15.95 -5.65 6.05 -5.65 6.05 -0.2 5.1 -0.2 5.1 -5.65 -4.65 -5.65 -4.65 -0.2 -5.85 -0.2 -5.85 -5.65 -15.9 -5.65 -15.9 -7.05 -4.45 -7.05 -4.45 -12.85 -15.9 -12.85 -15.9 -14.3 -9.4 -14.3 -9.4 -20.0 -15.9 -20.0 -15.9 -21.4 -6.0 -21.4 -6.0 -27.2 -15.9 -27.2 -15.9 -28.75 -3.45 -28.75 -3.45 -33.65 -15.9 -33.65 -15.9 -35.5 15.95 -35.55 15.95 -33.65 12.25 -33.65 12.25 -28.75 15.95 -28.75 M11.3 -28.75 L11.3 -33.65 -2.5 -33.65 -2.5 -28.75 11.3 -28.75 M3.3 -20.0 L-8.3 -20.0 -8.3 -14.3 3.3 -14.3 3.3 -20.0 M9.25 -12.85 L-3.35 -12.85 -3.35 -7.05 9.25 -7.05 9.25 -12.85 M7.45 -21.45 L7.45 -27.2 -4.9 -27.2 -4.9 -21.4 7.45 -21.45" fill="#f7b060" fill-rule="evenodd" stroke="none"/>
      <path d="M15.95 -20.0 L15.95 -14.3 4.2 -14.3 4.2 -20.0 15.95 -20.0 M-15.9 -21.4 L-15.9 -27.2 -6.0 -27.2 -6.0 -21.4 -15.9 -21.4 M11.3 -28.75 L-2.5 -28.75 -2.5 -33.65 11.3 -33.65 11.3 -28.75 M3.3 -20.0 L3.3 -14.3 -8.3 -14.3 -8.3 -20.0 3.3 -20.0 M7.45 -21.45 L-4.9 -21.4 -4.9 -27.2 7.45 -27.2 7.45 -21.45" fill="#e0471e" fill-rule="evenodd" stroke="none"/>
      <path d="M15.95 -12.85 L15.95 -7.05 10.35 -7.05 10.35 -12.85 15.95 -12.85 M5.1 -0.2 L-4.65 -0.2 -4.65 -5.65 5.1 -5.65 5.1 -0.2" fill="#d3461b" fill-rule="evenodd" stroke="none"/>
      <path d="M15.95 -5.65 L15.95 -0.2 6.05 -0.2 6.05 -5.65 15.95 -5.65" fill="#9e3315" fill-rule="evenodd" stroke="none"/>
      <path d="M15.95 -33.65 L15.95 -28.75 15.95 -27.2 15.95 -21.5 15.95 -20.0 15.95 -14.3 15.95 -12.85 15.95 -7.05 15.95 -5.65 15.95 -0.2 6.05 -0.2 5.1 -0.2 -4.65 -0.2 -5.85 -0.2 -15.9 -0.2 -15.9 -5.65 -15.9 -7.05 -15.9 -12.85 -15.9 -14.3 -15.9 -20.0 -15.9 -21.4 -15.9 -27.2 -15.9 -28.75 -15.9 -33.65 -15.9 -35.5 15.95 -35.55 15.95 -33.65 Z" fill="none" stroke="#000000" stroke-linecap="round" stroke-linejoin="round" stroke-opacity="0.3019608" stroke-width="0.30000000000000004"/>
      <path d="M15.8 -3.65 L-15.9 -28.05 -15.9 -35.55 16.0 -35.55 15.8 -3.65" fill="#000000" fill-opacity="0.29803923" fill-rule="evenodd" stroke="none"/>
      <path d="M3.4 -39.0 L4.6 -39.0 4.6 -35.55 19.95 -35.55 19.95 -34.15 9.6 -34.15 9.6 -30.65 8.8 -30.65 8.8 -34.15 -9.3 -34.15 -9.3 -30.65 -10.15 -30.65 -10.15 -34.15 -20.4 -34.15 -20.4 -35.55 -12.8 -35.55 -12.8 -39.0 -11.9 -39.0 -11.9 -35.55 3.4 -35.55 3.4 -39.0" fill="#f7b060" fill-rule="evenodd" stroke="none"/>
      <path d="M19.95 -34.15 L19.95 -33.35 Q19.95 -30.65 17.7 -30.65 L9.6 -30.65 9.6 -34.15 19.95 -34.15 M-11.9 -39.0 L3.4 -39.0 3.4 -35.55 -11.9 -35.55 -11.9 -39.0" fill="#9e3215" fill-rule="evenodd" stroke="none"/>
      <path d="M4.6 -39.0 L17.7 -39.0 Q19.95 -39.0 19.95 -36.3 L19.95 -35.55 4.6 -35.55 4.6 -39.0 M8.8 -30.65 L-9.3 -30.65 -9.3 -34.15 8.8 -34.15 8.8 -30.65 M-10.15 -30.65 L-18.1 -30.65 Q-20.4 -30.65 -20.4 -33.35 L-20.4 -34.15 -10.15 -34.15 -10.15 -30.65 M-20.4 -35.55 L-20.4 -36.3 Q-20.4 -39.0 -18.1 -39.0 L-12.8 -39.0 -12.8 -35.55 -20.4 -35.55" fill="#dd4921" fill-rule="evenodd" stroke="none"/>
      <path d="M3.4 -39.0 L4.6 -39.0 17.7 -39.0 Q19.95 -39.0 19.95 -36.3 L19.95 -35.55 19.95 -34.15 19.95 -33.35 Q19.95 -30.65 17.7 -30.65 L9.6 -30.65 8.8 -30.65 -9.3 -30.65 -10.15 -30.65 -18.1 -30.65 Q-20.4 -30.65 -20.4 -33.35 L-20.4 -34.15 -20.4 -35.55 -20.4 -36.3 Q-20.4 -39.0 -18.1 -39.0 L-12.8 -39.0 -11.9 -39.0 3.4 -39.0 Z" fill="none" stroke="#000000" stroke-linecap="round" stroke-linejoin="round" stroke-opacity="0.3019608" stroke-width="0.30000000000000004"/>
      <path d="M16.95 -39.6 L17.85 -39.25 18.3 -39.05 Q22.85 -36.95 9.6 -36.8 6.3 -35.7 2.85 -37.5 L2.0 -37.95 1.6 -38.2 Q-0.65 -37.2 -2.4 -38.2 L-3.15 -37.4 Q-5.15 -35.35 -13.15 -36.85 -13.8 -36.1 -14.9 -35.8 L-17.35 -35.75 Q-21.8 -37.55 -21.0 -41.5 -20.05 -39.15 -17.25 -38.4 L-17.15 -38.4 Q-14.85 -38.0 -13.7 -39.05 -7.45 -37.75 -1.65 -39.7 -0.1 -38.25 2.95 -39.7 10.0 -38.0 16.95 -39.6" fill="#bbd1d7" fill-rule="evenodd" stroke="none"/>
      <path d="M16.95 -39.6 Q10.0 -38.0 2.95 -39.7 -0.1 -38.25 -1.65 -39.7 -7.45 -37.75 -13.7 -39.05 -14.85 -38.0 -17.15 -38.4 L-17.25 -38.4 Q-20.05 -39.15 -21.0 -41.5 L-21.0 -41.65 -20.65 -42.9 Q-20.35 -43.8 -19.55 -44.1 -18.8 -44.45 -17.5 -44.1 -15.35 -45.8 -12.15 -45.2 L-12.25 -45.25 Q-9.05 -47.9 -3.15 -44.75 0.3 -45.05 3.5 -41.75 6.25 -42.45 9.3 -41.7 L9.4 -41.65 16.95 -39.6" fill="#ffffff" fill-rule="evenodd" stroke="none"/>
      <path d="M-21.0 -41.5 Q-21.8 -37.55 -17.35 -35.75 L-14.9 -35.8 Q-13.8 -36.1 -13.15 -36.85 -5.15 -35.35 -3.15 -37.4 L-2.4 -38.2 Q-0.65 -37.2 1.6 -38.2 L2.0 -37.95 2.85 -37.5 Q6.3 -35.7 9.6 -36.8 22.85 -36.95 18.3 -39.05 L17.85 -39.25 16.95 -39.6 9.4 -41.65 9.3 -41.7 Q6.25 -42.45 3.5 -41.75 0.3 -45.05 -3.15 -44.75 -9.05 -47.9 -12.25 -45.25 L-12.15 -45.2 Q-15.35 -45.8 -17.5 -44.1 -18.8 -44.45 -19.55 -44.1 -20.35 -43.8 -20.65 -42.9 L-21.0 -41.65 -21.0 -41.5 Z" fill="none" stroke="#000000" stroke-linecap="round" stroke-linejoin="round" stroke-opacity="0.3019608" stroke-width="0.30000000000000004"/>
      <path d="M14.95 -40.85 Q15.4 -40.3 14.6 -39.95 13.8 -39.6 13.65 -40.2 13.55 -40.85 14.0 -41.15 14.5 -41.4 14.95 -40.85 M11.65 -40.85 Q11.35 -41.3 11.75 -41.65 12.15 -42.0 12.55 -41.45 12.9 -40.95 12.45 -40.7 11.95 -40.45 11.65 -40.85 M10.15 -41.55 Q9.7 -41.3 9.55 -41.7 9.35 -42.05 9.65 -42.3 L10.3 -42.2 Q10.6 -41.8 10.15 -41.55 M17.95 -38.35 Q17.65 -38.95 18.1 -39.4 18.6 -39.85 19.2 -39.2 19.75 -38.55 19.0 -38.15 18.25 -37.75 17.95 -38.35 M15.85 -38.95 Q15.4 -39.7 16.15 -40.1 16.9 -40.55 17.35 -39.95 17.8 -39.35 17.05 -38.8 16.3 -38.25 15.85 -38.95 M1.2 -43.6 Q0.5 -43.25 0.25 -43.75 0.0 -44.25 0.45 -44.65 0.85 -45.05 1.35 -44.5 1.85 -43.95 1.2 -43.6 M3.35 -43.75 Q4.0 -42.9 3.2 -42.5 2.4 -42.15 1.95 -42.8 1.5 -43.5 2.1 -44.05 2.75 -44.6 3.35 -43.75 M5.0 -43.3 Q5.55 -43.6 6.05 -42.95 6.55 -42.35 5.65 -41.9 4.75 -41.5 4.6 -42.25 4.4 -42.95 5.0 -43.3 M6.9 -41.8 Q6.55 -42.3 7.1 -42.65 7.65 -43.0 8.0 -42.5 8.4 -42.05 7.8 -41.65 7.25 -41.25 6.9 -41.8 M-1.55 -44.7 Q-2.0 -45.35 -1.3 -45.8 -0.6 -46.2 -0.15 -45.6 0.3 -45.05 -0.4 -44.55 -1.1 -44.0 -1.55 -44.7 M-3.9 -45.3 L-3.65 -45.95 -3.0 -45.75 Q-2.75 -45.35 -3.25 -45.1 -3.8 -44.85 -3.9 -45.3 M-4.8 -45.35 Q-5.35 -45.1 -5.65 -45.55 -5.95 -46.0 -5.5 -46.35 -5.1 -46.75 -4.7 -46.15 -4.3 -45.6 -4.8 -45.35 M-9.6 -46.7 Q-10.15 -46.3 -10.5 -46.85 -10.85 -47.35 -10.3 -47.7 -9.75 -48.05 -9.4 -47.55 -9.0 -47.1 -9.6 -46.7 M-7.0 -46.15 Q-7.8 -45.75 -8.1 -46.35 -8.4 -47.0 -7.9 -47.45 -7.4 -47.95 -6.8 -47.25 -6.15 -46.6 -7.0 -46.15 M-12.25 -45.15 Q-12.45 -45.85 -11.85 -46.2 -11.3 -46.5 -10.8 -45.85 -10.3 -45.25 -11.2 -44.8 -12.1 -44.4 -12.25 -45.15 M-14.25 -46.05 Q-13.85 -45.5 -14.35 -45.25 -14.9 -45.0 -15.2 -45.45 -15.5 -45.9 -15.05 -46.25 -14.65 -46.65 -14.25 -46.05 M-16.95 -45.0 Q-17.2 -45.5 -16.75 -45.9 -16.35 -46.3 -15.85 -45.75 -15.35 -45.2 -16.0 -44.85 -16.7 -44.5 -16.95 -45.0 M-18.1 -44.35 Q-18.55 -44.0 -18.85 -44.45 -19.15 -44.85 -18.7 -45.15 L-17.95 -45.05 Q-17.65 -44.65 -18.1 -44.35 M-17.9 -37.85 Q-17.55 -37.45 -17.75 -37.0 L-17.4 -37.35 Q-16.85 -37.65 -16.35 -37.0 -15.85 -36.4 -16.75 -35.95 -17.65 -35.55 -17.8 -36.3 L-17.8 -36.95 -18.2 -36.5 Q-19.1 -35.9 -19.6 -36.7 -20.15 -37.5 -19.3 -38.05 -18.4 -38.55 -17.9 -37.85 M-19.95 -38.15 Q-20.9 -37.6 -21.3 -38.35 -21.65 -39.1 -21.05 -39.7 -20.45 -40.3 -19.7 -39.45 -18.95 -38.65 -19.95 -38.15 M-19.95 -42.8 Q-20.5 -42.5 -20.65 -43.0 -20.75 -43.45 -20.35 -43.65 -20.0 -43.85 -19.7 -43.45 -19.35 -43.05 -19.95 -42.8 M-21.35 -40.9 Q-21.65 -41.3 -21.25 -41.6 -20.9 -41.95 -20.55 -41.45 -20.2 -40.95 -20.65 -40.7 -21.1 -40.5 -21.35 -40.9" fill="#ffffff" fill-rule="evenodd" stroke="none"/>
    </g>
    <linearGradient gradientTransform="matrix(0.0201, -0.0605, 0.0477, 0.0157, 32.95, -74.85)" gradientUnits="userSpaceOnUse" id="decoration208-gradient0" spreadMethod="pad" x1="-819.2" x2="819.2">
      <stop offset="0.0" stop-color="#878787" stop-opacity="0.6"/>
      <stop offset="1.0" stop-color="#ffffff" stop-opacity="0.0"/>
    </linearGradient>
  </defs>
</svg>
