<?xml version="1.0" encoding="UTF-8" standalone="no"?>
<svg xmlns:xlink="http://www.w3.org/1999/xlink" height="130.6px" width="76.35px" xmlns="http://www.w3.org/2000/svg">
  <g transform="matrix(1.0, 0.0, 0.0, 1.0, 21.4, 130.65)">
    <use height="130.6" transform="matrix(1.0, 0.0, 0.0, 1.0, -21.4, -130.65)" width="76.35" xlink:href="#decoration208-shape0"/>
  </g>
  <defs>
    <g id="decoration208-shape0" transform="matrix(1.0, 0.0, 0.0, 1.0, 21.4, 130.65)">
      <path d="M-10.15 -49.45 Q-8.25 -50.8 -5.4 -56.3 L-0.8 -65.4 Q4.8 -75.75 18.95 -87.85 33.05 -99.95 35.05 -123.55 L34.95 -123.55 33.45 -123.95 Q26.6 -124.3 27.8 -125.55 29.55 -127.05 32.4 -128.2 L35.1 -129.3 36.95 -130.35 Q38.7 -131.6 46.95 -127.55 50.8 -125.8 52.4 -124.3 55.1 -122.05 54.95 -120.55 L54.7 -113.4 Q54.7 -105.5 53.95 -101.6 52.8 -96.25 49.2 -90.55 46.55 -86.4 41.8 -80.85 L35.85 -74.05 Q31.3 -69.75 -10.15 -49.45" fill="url(#decoration208-gradient0)" fill-rule="evenodd" stroke="none"/>
      <path d="M-15.9 -33.65 L-15.9 -35.5 15.95 -35.55 15.95 -33.65 12.25 -33.65 12.25 -28.75 15.95 -28.75 15.95 -27.2 8.6 -27.2 8.6 -21.45 15.95 -21.5 15.95 -20.0 4.2 -20.0 4.2 -14.3 15.95 -14.3 15.95 -12.85 10.35 -12.85 10.35 -7.05 15.95 -7.05 15.95 -5.65 6.05 -5.65 6.05 -0.2 5.1 -0.2 5.1 -5.65 -4.65 -5.65 -4.65 -0.2 -5.85 -0.2 -5.85 -5.65 -15.9 -5.65 -15.9 -7.05 -4.45 -7.05 -4.45 -12.85 -15.9 -12.85 -15.9 -14.3 -9.4 -14.3 -9.4 -20.0 -15.9 -20.0 -15.9 -21.4 -6.0 -21.4 -6.0 -27.2 -15.9 -27.2 -15.9 -28.75 -3.45 -28.75 -3.45 -33.65 -15.9 -33.65 M7.45 -21.45 L7.45 -27.2 -4.9 -27.2 -4.9 -21.4 7.45 -21.45 M11.3 -28.75 L11.3 -33.65 -2.5 -33.65 -2.5 -28.75 11.3 -28.75 M3.3 -20.0 L-8.3 -20.0 -8.3 -14.3 3.3 -14.3 3.3 -20.0 M9.25 -12.85 L-3.35 -12.85 -3.35 -7.05 9.25 -7.05 9.25 -12.85" fill="#f7b060" fill-rule="evenodd" stroke="none"/>
      <path d="M-15.9 -33.65 L-3.45 -33.65 -3.45 -28.75 -15.9 -28.75 -15.9 -33.65 M-15.9 -20.0 L-9.4 -20.0 -9.4 -14.3 -15.9 -14.3 -15.9 -20.0 M-15.9 -12.85 L-4.45 -12.85 -4.45 -7.05 -15.9 -7.05 -15.9 -12.85 M-15.9 -5.65 L-5.85 -5.65 -5.85 -0.2 -15.9 -0.2 -15.9 -5.65 M15.95 -21.5 L8.6 -21.45 8.6 -27.2 15.95 -27.2 15.95 -21.5 M15.95 -28.75 L12.25 -28.75 12.25 -33.65 15.95 -33.65 15.95 -28.75 M9.25 -12.85 L9.25 -7.05 -3.35 -7.05 -3.35 -12.85 9.25 -12.85" fill="#9e3215" fill-rule="evenodd" stroke="none"/>
      <path d="M-15.9 -27.2 L-6.0 -27.2 -6.0 -21.4 -15.9 -21.4 -15.9 -27.2 M15.95 -14.3 L4.2 -14.3 4.2 -20.0 15.95 -20.0 15.95 -14.3 M7.45 -21.45 L-4.9 -21.4 -4.9 -27.2 7.45 -27.2 7.45 -21.45 M11.3 -28.75 L-2.5 -28.75 -2.5 -33.65 11.3 -33.65 11.3 -28.75 M3.3 -20.0 L3.3 -14.3 -8.3 -14.3 -8.3 -20.0 3.3 -20.0" fill="#e0471e" fill-rule="evenodd" stroke="none"/>
      <path d="M-4.65 -0.2 L-4.65 -5.65 5.1 -5.65 5.1 -0.2 -4.65 -0.2 M15.95 -7.05 L10.35 -7.05 10.35 -12.85 15.95 -12.85 15.95 -7.05" fill="#d3461b" fill-rule="evenodd" stroke="none"/>
      <path d="M6.05 -0.2 L6.05 -5.65 15.95 -5.65 15.95 -0.2 6.05 -0.2" fill="#9e3315" fill-rule="evenodd" stroke="none"/>
      <path d="M15.95 -33.65 L15.95 -35.55 -15.9 -35.5 -15.9 -33.65 M-15.9 -28.75 L-15.9 -27.2 M-15.9 -21.4 L-15.9 -20.0 M-15.9 -14.3 L-15.9 -12.85 M-15.9 -7.05 L-15.9 -5.65 M-5.85 -0.2 L-4.65 -0.2 M5.1 -0.2 L6.05 -0.2 M15.95 -5.65 L15.95 -7.05 M15.95 -12.85 L15.95 -14.3 M15.95 -20.0 L15.95 -21.5 M15.95 -27.2 L15.95 -28.75 M15.95 -33.65 L15.95 -28.75 M15.95 -27.2 L15.95 -21.5 M15.95 -20.0 L15.95 -14.3 M15.95 -5.65 L15.95 -0.2 6.05 -0.2 M15.95 -12.85 L15.95 -7.05 M-15.9 -21.4 L-15.9 -27.2 M-15.9 -28.75 L-15.9 -33.65 M-15.9 -14.3 L-15.9 -20.0 M-5.85 -0.2 L-15.9 -0.2 -15.9 -5.65 M-15.9 -7.05 L-15.9 -12.85 M5.1 -0.2 L-4.65 -0.2" fill="none" stroke="#000000" stroke-linecap="round" stroke-linejoin="round" stroke-opacity="0.3019608" stroke-width="0.30000000000000004"/>
      <path d="M15.8 -3.65 L-15.9 -28.05 -15.9 -35.55 16.0 -35.55 15.8 -3.65" fill="#000000" fill-opacity="0.29803923" fill-rule="evenodd" stroke="none"/>
      <path d="M4.6 -39.0 L17.7 -39.0 Q19.95 -39.0 19.95 -36.3 L19.95 -35.55 4.6 -35.55 4.6 -39.0 M8.8 -30.65 L-9.3 -30.65 -9.3 -34.15 8.8 -34.15 8.8 -30.65 M-10.15 -30.65 L-18.1 -30.65 Q-20.4 -30.65 -20.4 -33.35 L-20.4 -34.15 -10.15 -34.15 -10.15 -30.65 M-20.4 -35.55 L-20.4 -36.3 Q-20.4 -39.0 -18.1 -39.0 L-12.8 -39.0 -12.8 -35.55 -20.4 -35.55" fill="#dd4921" fill-rule="evenodd" stroke="none"/>
      <path d="M19.95 -35.55 L19.95 -34.15 9.6 -34.15 9.6 -30.65 8.8 -30.65 8.8 -34.15 -9.3 -34.15 -9.3 -30.65 -10.15 -30.65 -10.15 -34.15 -20.4 -34.15 -20.4 -35.55 -12.8 -35.55 -12.8 -39.0 -11.9 -39.0 -11.9 -35.55 3.4 -35.55 3.4 -39.0 4.6 -39.0 4.6 -35.55 19.95 -35.55" fill="#f7b060" fill-rule="evenodd" stroke="none"/>
      <path d="M19.95 -34.15 L19.95 -33.35 Q19.95 -30.65 17.7 -30.65 L9.6 -30.65 9.6 -34.15 19.95 -34.15 M-11.9 -39.0 L3.4 -39.0 3.4 -35.55 -11.9 -35.55 -11.9 -39.0" fill="#9e3215" fill-rule="evenodd" stroke="none"/>
      <path d="M4.6 -39.0 L17.7 -39.0 Q19.95 -39.0 19.95 -36.3 L19.95 -35.55 19.95 -34.15 19.95 -33.35 Q19.95 -30.65 17.7 -30.65 L9.6 -30.65 8.8 -30.65 -9.3 -30.65 -10.15 -30.65 -18.1 -30.65 Q-20.4 -30.65 -20.4 -33.35 L-20.4 -34.15 -20.4 -35.55 -20.4 -36.3 Q-20.4 -39.0 -18.1 -39.0 L-12.8 -39.0 -11.9 -39.0 3.4 -39.0 4.6 -39.0 Z" fill="none" stroke="#000000" stroke-linecap="round" stroke-linejoin="round" stroke-opacity="0.3019608" stroke-width="0.30000000000000004"/>
      <path d="M-21.0 -41.5 L-21.0 -41.65 -20.65 -42.9 Q-20.35 -43.8 -19.55 -44.1 -18.8 -44.45 -17.5 -44.1 -15.35 -45.8 -12.15 -45.2 L-12.25 -45.25 Q-9.05 -47.9 -3.15 -44.75 0.3 -45.05 3.5 -41.75 6.25 -42.45 9.3 -41.7 L9.4 -41.65 16.95 -39.6 Q10.0 -38.0 2.95 -39.7 -0.1 -38.25 -1.65 -39.7 -7.45 -37.75 -13.7 -39.05 -14.85 -38.0 -17.15 -38.4 L-17.25 -38.4 Q-20.05 -39.15 -21.0 -41.5" fill="#ffffff" fill-rule="evenodd" stroke="none"/>
      <path d="M-21.0 -41.5 Q-20.05 -39.15 -17.25 -38.4 L-17.15 -38.4 Q-14.85 -38.0 -13.7 -39.05 -7.45 -37.75 -1.65 -39.7 -0.1 -38.25 2.95 -39.7 10.0 -38.0 16.95 -39.6 L17.85 -39.25 18.3 -39.05 Q22.85 -36.95 9.6 -36.8 6.3 -35.7 2.85 -37.5 L2.0 -37.95 1.6 -38.2 Q-0.65 -37.2 -2.4 -38.2 L-3.15 -37.4 Q-5.15 -35.35 -13.15 -36.85 -13.8 -36.1 -14.9 -35.8 L-17.35 -35.75 Q-21.8 -37.55 -21.0 -41.5" fill="#bbd1d7" fill-rule="evenodd" stroke="none"/>
      <path d="M16.95 -39.6 L9.4 -41.65 9.3 -41.7 Q6.25 -42.45 3.5 -41.75 0.3 -45.05 -3.15 -44.75 -9.05 -47.9 -12.25 -45.25 L-12.15 -45.2 Q-15.35 -45.8 -17.5 -44.1 -18.8 -44.45 -19.55 -44.1 -20.35 -43.8 -20.65 -42.9 L-21.0 -41.65 -21.0 -41.5 M16.95 -39.6 L17.85 -39.25 18.3 -39.05 Q22.85 -36.95 9.6 -36.8 6.3 -35.7 2.85 -37.5 L2.0 -37.95 1.6 -38.2 Q-0.65 -37.2 -2.4 -38.2 L-3.15 -37.4 Q-5.15 -35.35 -13.15 -36.85 -13.8 -36.1 -14.9 -35.8 L-17.35 -35.75 Q-21.8 -37.55 -21.0 -41.5" fill="none" stroke="#000000" stroke-linecap="round" stroke-linejoin="round" stroke-opacity="0.3019608" stroke-width="0.30000000000000004"/>
      <path d="M-14.6 -45.7 Q-14.85 -46.15 -14.4 -46.5 -13.95 -46.8 -13.6 -46.25 -13.25 -45.65 -13.75 -45.45 -14.3 -45.2 -14.6 -45.7 M-15.3 -45.7 Q-14.95 -45.05 -15.55 -44.75 -16.15 -44.4 -16.75 -44.95 -17.3 -45.5 -16.45 -45.9 -15.6 -46.3 -15.3 -45.7 M-17.6 -45.05 Q-17.2 -44.5 -17.9 -44.15 -18.65 -43.85 -18.9 -44.4 -19.15 -44.95 -18.6 -45.25 -18.05 -45.6 -17.6 -45.05 M-11.4 -45.7 Q-11.9 -45.35 -12.25 -45.8 -12.65 -46.2 -12.05 -46.6 L-11.15 -46.55 Q-10.9 -46.1 -11.4 -45.7 M-9.8 -46.25 Q-10.7 -45.85 -11.0 -46.5 -11.25 -47.2 -10.6 -47.6 -9.95 -47.95 -9.4 -47.3 -8.9 -46.65 -9.8 -46.25 M-8.0 -47.45 Q-7.25 -47.8 -6.95 -47.25 -6.65 -46.65 -7.2 -46.35 -7.75 -46.1 -8.25 -46.6 -8.8 -47.1 -8.0 -47.45 M-2.8 -45.65 Q-2.45 -45.05 -3.1 -44.6 L-4.25 -44.65 Q-4.7 -45.2 -3.9 -45.75 -3.15 -46.3 -2.8 -45.65 M-5.2 -45.9 Q-5.6 -46.55 -5.0 -46.95 -4.4 -47.35 -3.95 -46.65 -3.5 -45.9 -4.15 -45.6 -4.85 -45.3 -5.2 -45.9 M-0.4 -45.55 Q0.2 -44.85 -0.8 -44.4 -1.8 -43.95 -2.1 -44.7 -2.4 -45.45 -1.7 -45.85 -0.95 -46.25 -0.4 -45.55 M18.2 -38.55 Q17.9 -38.85 18.4 -39.1 18.9 -39.35 19.05 -38.95 19.25 -38.55 18.9 -38.4 18.55 -38.2 18.2 -38.55 M15.95 -39.2 Q15.65 -39.8 16.25 -40.15 16.85 -40.5 17.3 -39.9 17.75 -39.35 16.95 -39.0 16.2 -38.65 15.95 -39.2 M13.65 -40.1 Q13.15 -40.65 13.95 -41.2 L15.15 -41.15 Q15.5 -40.5 14.8 -40.0 14.15 -39.55 13.65 -40.1 M10.0 -41.55 Q9.45 -41.3 8.95 -41.8 8.4 -42.3 9.2 -42.65 9.95 -43.0 10.25 -42.45 10.55 -41.85 10.0 -41.55 M11.9 -42.4 Q12.5 -42.8 12.95 -42.1 13.4 -41.35 12.75 -41.05 12.05 -40.75 11.7 -41.35 11.3 -42.0 11.9 -42.4 M6.55 -42.0 Q6.3 -42.7 6.95 -43.1 7.6 -43.45 8.15 -42.8 8.65 -42.15 7.75 -41.75 6.85 -41.35 6.55 -42.0 M4.25 -42.05 Q3.65 -42.7 4.6 -43.35 L5.95 -43.25 Q6.3 -42.5 5.55 -41.95 4.8 -41.45 4.25 -42.05 M3.25 -42.2 Q2.9 -42.05 2.7 -42.35 2.5 -42.7 2.8 -42.95 3.15 -43.15 3.4 -42.75 3.65 -42.35 3.25 -42.2 M1.6 -43.7 Q1.15 -43.45 0.7 -43.9 0.25 -44.3 0.9 -44.6 1.55 -44.95 1.8 -44.45 2.05 -43.95 1.6 -43.7 M-21.25 -42.4 Q-21.7 -42.95 -20.9 -43.5 -20.15 -44.05 -19.8 -43.4 -19.45 -42.8 -20.1 -42.35 L-21.25 -42.4 M-21.0 -39.7 Q-20.3 -40.05 -20.0 -39.5 -19.75 -38.95 -20.25 -38.7 -20.7 -38.45 -21.2 -38.9 -21.65 -39.35 -21.0 -39.7 M-20.55 -40.75 Q-20.95 -40.6 -21.2 -40.95 -21.4 -41.3 -21.05 -41.55 -20.7 -41.8 -20.45 -41.35 -20.15 -40.95 -20.55 -40.75 M-17.5 -36.8 L-16.3 -36.75 Q-15.95 -36.1 -16.65 -35.6 L-17.8 -35.7 Q-18.3 -36.25 -17.5 -36.8 M-19.2 -36.7 Q-19.95 -36.35 -20.2 -36.9 -20.5 -37.5 -19.9 -37.85 -19.3 -38.2 -18.85 -37.6 -18.4 -37.05 -19.2 -36.7" fill="#ffffff" fill-rule="evenodd" stroke="none"/>
    </g>
    <linearGradient gradientTransform="matrix(0.0201, -0.0605, 0.0477, 0.0157, 32.95, -74.85)" gradientUnits="userSpaceOnUse" id="decoration208-gradient0" spreadMethod="pad" x1="-819.2" x2="819.2">
      <stop offset="0.0" stop-color="#878787" stop-opacity="0.6"/>
      <stop offset="1.0" stop-color="#ffffff" stop-opacity="0.0"/>
    </linearGradient>
  </defs>
</svg>
