<?xml version="1.0" encoding="UTF-8" standalone="no"?>
<svg xmlns:ffdec="https://www.free-decompiler.com/flash" xmlns:xlink="http://www.w3.org/1999/xlink" ffdec:objectType="frame" height="48.75px" width="49.4px" xmlns="http://www.w3.org/2000/svg">
  <g transform="matrix(1.0, 0.0, 0.0, 1.0, 25.55, 49.2)">
    <use ffdec:characterId="886" height="48.75" transform="matrix(1.0, 0.0, 0.0, 1.0, -25.55, -49.2)" width="49.4" xlink:href="#decoration21-shape0"/>
  </g>
  <defs>
    <g id="decoration21-shape0" transform="matrix(1.0, 0.0, 0.0, 1.0, 25.55, 49.2)">
      <path d="M-11.85 -30.4 L-9.85 -27.15 Q-8.45 -24.3 -8.45 -23.0 L-8.85 -20.25 -9.3 -18.2 Q-9.3 -17.1 -8.25 -15.45 L-7.15 -13.85 Q-7.15 -13.4 -7.6 -13.0 -8.15 -12.4 -8.9 -12.4 L-10.15 -13.25 Q-11.15 -14.15 -11.25 -14.55 L-11.3 -16.6 Q-11.3 -18.3 -10.55 -19.9 -9.85 -21.5 -9.6 -24.2 -9.35 -26.85 -11.25 -29.35 L-11.85 -30.4" fill="url(#decoration21-gradient0)" fill-rule="evenodd" stroke="none"/>
      <path d="M15.3 -2.45 L10.95 -0.75 -2.0 -0.55 -15.3 -0.75 -19.2 -2.45 -18.6 -2.5 -2.0 -2.8 14.6 -2.5 15.3 -2.45" fill="#a39e8e" fill-rule="evenodd" stroke="none"/>
      <path d="M10.95 -0.75 L15.3 -2.45 21.45 -1.7 Q21.45 -1.2 14.6 -0.9 L10.95 -0.75 M-19.2 -2.45 L-15.3 -0.75 -18.6 -0.9 Q-25.45 -1.2 -25.45 -1.7 -25.45 -2.15 -19.2 -2.45" fill="#e7e1d0" fill-rule="evenodd" stroke="none"/>
      <path d="M10.95 -0.75 L14.6 -0.9 Q21.45 -1.2 21.45 -1.7 L15.3 -2.45 14.6 -2.5 -2.0 -2.8 -18.6 -2.5 -19.2 -2.45 Q-25.45 -2.15 -25.45 -1.7 -25.45 -1.2 -18.6 -0.9 L-15.3 -0.75 -2.0 -0.55 10.95 -0.75 Z" fill="none" stroke="#000000" stroke-linecap="round" stroke-linejoin="round" stroke-opacity="0.34117648" stroke-width="0.2"/>
      <path d="M14.5 -15.25 Q14.6 -13.35 12.1 -13.3 7.55 -14.55 2.25 -10.9 -6.5 -7.4 -11.1 -10.9 -11.05 -12.25 -9.4 -13.95 L-7.65 -14.75 Q-4.2 -15.7 -0.55 -17.9 3.3 -20.05 7.65 -19.25 L10.8 -18.35 11.9 -17.9 Q13.45 -16.85 14.5 -15.25 M10.5 -17.8 L10.5 -17.5 12.25 -16.5 13.3 -16.0 Q13.2 -16.5 11.95 -17.25 L10.5 -17.8 M0.3 -13.2 L0.5 -13.35 0.3 -13.45 0.1 -13.4 0.3 -13.2 M0.5 -17.6 Q0.5 -17.3 0.95 -17.3 L3.2 -18.2 7.05 -18.45 Q7.05 -18.9 6.45 -18.9 L3.15 -18.9 Q2.6 -19.0 1.5 -18.35 L0.5 -17.6 M-1.6 -16.45 Q-1.6 -16.1 -1.3 -16.1 -0.7 -16.1 -0.7 -16.5 L-0.7 -16.8 Q-1.6 -17.15 -1.6 -16.45 M-9.65 -12.45 L-9.3 -13.3 Q-10.0 -13.35 -10.0 -12.85 L-10.0 -12.65 Q-9.95 -12.45 -9.65 -12.45 M-8.4 -13.85 Q-8.4 -13.5 -8.05 -13.5 -6.7 -13.5 -6.7 -14.1 -6.7 -14.55 -7.55 -14.35 -8.4 -14.15 -8.4 -13.85 M-1.25 -10.55 L-1.1 -10.75 -1.1 -11.0 -1.25 -10.8 -1.25 -10.55 M-5.4 -10.75 Q-4.9 -10.75 -4.9 -11.0 L-5.1 -11.2 -5.4 -11.2 -5.4 -10.75" fill="url(#decoration21-gradient1)" fill-rule="evenodd" stroke="none"/>
      <path d="M-9.4 -13.95 Q-11.05 -12.25 -11.1 -10.9 -6.5 -7.4 2.25 -10.9 7.55 -14.55 12.1 -13.3 14.6 -13.35 14.5 -15.25 16.45 -12.15 16.15 -6.9 16.5 -2.95 13.35 -1.6 L-15.3 -1.6 Q-17.65 -2.75 -16.65 -5.2 -14.3 -7.7 -13.0 -10.55 -11.75 -12.7 -9.4 -13.95 M2.6 -2.4 L2.1 -2.4 2.0 -2.15 Q2.0 -1.9 2.6 -2.0 L2.65 -2.2 2.6 -2.4 M0.6 -2.3 L0.4 -2.55 -1.2 -2.65 -1.35 -2.6 -1.45 -2.45 -1.35 -2.2 -0.55 -2.1 0.55 -2.1 0.6 -2.3 M14.95 -9.85 Q13.15 -3.6 0.2 -3.15 6.0 -2.15 13.05 -3.15 16.0 -4.95 14.95 -9.85 M-11.05 -5.95 Q-11.4 -4.65 -14.9 -3.6 -15.9 -2.45 -10.85 -2.55 L-5.6 -2.55 Q-9.5 -2.9 -10.4 -4.0 L-8.65 -5.95 Q-9.3 -6.9 -11.05 -5.95 M-7.3 -4.65 Q-8.8 -3.7 -6.5 -3.8 -1.55 -3.35 -2.4 -2.55 L-5.6 -2.55 -2.4 -2.55 Q-1.55 -3.35 -6.5 -3.8 -8.8 -3.7 -7.3 -4.65" fill="#703405" fill-rule="evenodd" stroke="none"/>
      <path d="M10.5 -17.8 L11.95 -17.25 Q13.2 -16.5 13.3 -16.0 L12.25 -16.5 10.5 -17.5 10.5 -17.8 M0.3 -13.2 L0.1 -13.4 0.3 -13.45 0.5 -13.35 0.3 -13.2 M0.5 -17.6 L1.5 -18.35 Q2.6 -19.0 3.15 -18.9 L6.45 -18.9 Q7.05 -18.9 7.05 -18.45 L3.2 -18.2 0.95 -17.3 Q0.5 -17.3 0.5 -17.6 M0.6 -2.3 L0.55 -2.1 -0.55 -2.1 -1.35 -2.2 -1.45 -2.45 -1.35 -2.6 -1.2 -2.65 0.4 -2.55 0.6 -2.3 M2.6 -2.4 L2.65 -2.2 2.6 -2.0 Q2.0 -1.9 2.0 -2.15 L2.1 -2.4 2.6 -2.4 M-8.4 -13.85 Q-8.4 -14.15 -7.55 -14.35 -6.7 -14.55 -6.7 -14.1 -6.7 -13.5 -8.05 -13.5 -8.4 -13.5 -8.4 -13.85 M-9.65 -12.45 Q-9.95 -12.45 -10.0 -12.65 L-10.0 -12.85 Q-10.0 -13.35 -9.3 -13.3 L-9.65 -12.45 M-1.6 -16.45 Q-1.6 -17.15 -0.7 -16.8 L-0.7 -16.5 Q-0.7 -16.1 -1.3 -16.1 -1.6 -16.1 -1.6 -16.45 M-10.65 -5.75 Q-10.3 -5.75 -10.3 -5.4 L-10.45 -5.1 -10.7 -4.85 Q-11.0 -4.85 -11.0 -5.3 L-10.65 -5.75 M-13.65 -3.7 Q-13.3 -3.7 -13.3 -3.4 -13.3 -3.1 -13.65 -3.05 -14.05 -3.05 -14.05 -3.4 L-13.65 -3.7 M-1.25 -10.55 L-1.25 -10.8 -1.1 -11.0 -1.1 -10.75 -1.25 -10.55 M-5.4 -10.75 L-5.4 -11.2 -5.1 -11.2 -4.9 -11.0 Q-4.9 -10.75 -5.4 -10.75" fill="#bf8311" fill-rule="evenodd" stroke="none"/>
      <path d="M10.8 -18.35 L7.65 -19.25 Q9.2 -19.9 9.85 -21.8 8.55 -23.4 9.6 -25.15 11.85 -26.95 13.05 -24.2 15.45 -24.75 15.25 -21.85 15.0 -20.75 11.9 -20.65 10.7 -19.4 10.8 -18.35" fill="#aa9883" fill-rule="evenodd" stroke="none"/>
      <path d="M14.95 -9.85 Q16.0 -4.95 13.05 -3.15 6.0 -2.15 0.2 -3.15 13.15 -3.6 14.95 -9.85" fill="#795132" fill-rule="evenodd" stroke="none"/>
      <path d="M-13.65 -3.7 L-14.05 -3.4 Q-14.05 -3.05 -13.65 -3.05 -13.3 -3.1 -13.3 -3.4 -13.3 -3.7 -13.65 -3.7 M-10.65 -5.75 L-11.0 -5.3 Q-11.0 -4.85 -10.7 -4.85 L-10.45 -5.1 -10.3 -5.4 Q-10.3 -5.75 -10.65 -5.75 M-5.6 -2.55 L-10.85 -2.55 Q-15.9 -2.45 -14.9 -3.6 -11.4 -4.65 -11.05 -5.95 -9.3 -6.9 -8.65 -5.95 L-10.4 -4.0 Q-9.5 -2.9 -5.6 -2.55" fill="#955910" fill-rule="evenodd" stroke="none"/>
      <path d="M14.5 -15.25 Q13.45 -16.85 11.9 -17.9 L10.8 -18.35 7.65 -19.25 Q3.3 -20.05 -0.55 -17.9 -4.2 -15.7 -7.65 -14.75 L-9.4 -13.95 Q-11.75 -12.7 -13.0 -10.55 -14.3 -7.7 -16.65 -5.2 -17.65 -2.75 -15.3 -1.6 L13.35 -1.6 Q16.5 -2.95 16.15 -6.9 16.45 -12.15 14.5 -15.25 M7.65 -19.25 Q9.2 -19.9 9.85 -21.8 8.55 -23.4 9.6 -25.15 11.85 -26.95 13.05 -24.2 15.45 -24.75 15.25 -21.85 15.0 -20.75 11.9 -20.65 10.7 -19.4 10.8 -18.35 M-11.05 -5.95 Q-11.4 -4.65 -14.9 -3.6 -15.9 -2.45 -10.85 -2.55 L-5.6 -2.55 -2.4 -2.55 Q-1.55 -3.35 -6.5 -3.8 -8.8 -3.7 -7.3 -4.65" fill="none" stroke="#000000" stroke-linecap="round" stroke-linejoin="round" stroke-opacity="0.32156864" stroke-width="0.30000000000000004"/>
      <path d="M10.3 -14.25 Q13.9 -15.95 16.05 -18.2 15.65 -21.2 17.3 -21.95 19.35 -22.65 19.95 -20.5 21.65 -20.8 22.65 -19.65 23.35 -16.7 20.0 -16.25 18.65 -16.65 17.85 -17.7 15.1 -15.35 12.25 -14.25 L10.3 -14.25" fill="#e7dcce" fill-rule="evenodd" stroke="none"/>
      <path d="M-0.2 -12.65 Q4.75 -15.6 10.3 -14.25 L12.25 -14.25 11.1 -13.2 12.5 -13.2 Q10.95 -7.75 6.3 -7.1 1.7 -6.5 0.0 -8.6 -1.75 -10.65 -0.2 -12.65 M1.45 -12.6 L0.8 -12.5 0.5 -12.2 0.75 -12.0 1.45 -12.6 M2.55 -12.7 L4.0 -13.3 7.7 -13.8 9.4 -14.15 4.6 -13.9 Q2.45 -13.3 2.45 -12.95 L2.55 -12.7" fill="url(#decoration21-gradient2)" fill-rule="evenodd" stroke="none"/>
      <path d="M22.65 -19.65 Q23.35 -18.95 23.7 -17.7 23.9 -14.4 19.95 -14.75 18.85 -15.35 17.7 -16.0 14.85 -14.65 12.75 -11.95 L12.5 -13.2 11.1 -13.2 12.25 -14.25 Q15.1 -15.35 17.85 -17.7 18.65 -16.65 20.0 -16.25 23.35 -16.7 22.65 -19.65" fill="#bdaf9e" fill-rule="evenodd" stroke="none"/>
      <path d="M2.55 -12.7 L2.45 -12.95 Q2.45 -13.3 4.6 -13.9 L9.4 -14.15 7.7 -13.8 4.0 -13.3 2.55 -12.7 M1.45 -12.6 L0.75 -12.0 0.5 -12.2 0.8 -12.5 1.45 -12.6 M0.55 -3.55 Q0.55 -3.9 0.9 -3.9 L1.05 -3.65 1.0 -3.45 0.55 -3.55 M-1.5 -5.3 L-1.15 -4.6 Q-1.1 -4.5 -1.35 -4.5 L-1.85 -4.95 -2.05 -5.4 -1.5 -5.3" fill="#bf8311" fill-rule="evenodd" stroke="none"/>
      <path d="M12.75 -11.95 Q13.6 -9.95 12.95 -8.3 10.8 -2.9 3.45 -2.85 -5.95 -3.3 -1.55 -11.8 -0.9 -12.25 -0.2 -12.65 -1.75 -10.65 0.0 -8.6 1.7 -6.5 6.3 -7.1 10.95 -7.75 12.5 -13.2 L12.75 -11.95 M0.55 -3.55 L1.0 -3.45 1.05 -3.65 0.9 -3.9 Q0.55 -3.9 0.55 -3.55 M12.2 -9.45 Q9.8 -6.15 5.45 -5.45 0.35 -4.55 -1.3 -7.3 -1.3 -4.35 4.15 -3.8 9.85 -4.25 12.2 -9.45 M-1.5 -5.3 L-2.05 -5.4 -1.85 -4.95 -1.35 -4.5 Q-1.1 -4.5 -1.15 -4.6 L-1.5 -5.3" fill="#703405" fill-rule="evenodd" stroke="none"/>
      <path d="M12.2 -9.45 Q9.85 -4.25 4.15 -3.8 -1.3 -4.35 -1.3 -7.3 0.35 -4.55 5.45 -5.45 9.8 -6.15 12.2 -9.45" fill="#795132" fill-rule="evenodd" stroke="none"/>
      <path d="M10.3 -14.25 Q13.9 -15.95 16.05 -18.2 15.65 -21.2 17.3 -21.95 19.35 -22.65 19.95 -20.5 21.65 -20.8 22.65 -19.65 23.35 -18.95 23.7 -17.7 23.9 -14.4 19.95 -14.75 18.85 -15.35 17.7 -16.0 14.85 -14.65 12.75 -11.95 13.6 -9.95 12.95 -8.3 10.8 -2.9 3.45 -2.85 -5.95 -3.3 -1.55 -11.8 -0.9 -12.25 -0.2 -12.65 4.75 -15.6 10.3 -14.25 L12.25 -14.25 11.1 -13.2 12.5 -13.2 12.75 -11.95" fill="none" stroke="#000000" stroke-linecap="round" stroke-linejoin="round" stroke-opacity="0.32156864" stroke-width="0.30000000000000004"/>
      <path d="M10.3 -21.15 Q13.85 -18.8 10.65 -16.15 9.6 -17.45 5.8 -18.1 L5.3 -21.35 Q4.75 -22.05 4.7 -25.5 5.3 -29.0 7.0 -31.2 9.25 -34.15 7.95 -36.9 12.75 -37.0 7.55 -28.5 6.75 -23.55 10.3 -21.15" fill="url(#decoration21-gradient3)" fill-rule="evenodd" stroke="none"/>
      <path d="M-8.55 -45.3 Q1.55 -54.3 2.8 -42.45 -3.7 -35.95 -1.3 -26.65 1.85 -17.35 -5.9 -14.3 -2.6 -16.4 -2.85 -21.1 -3.15 -25.8 -7.8 -31.05 -11.0 -36.6 -8.55 -45.3" fill="url(#decoration21-gradient4)" fill-rule="evenodd" stroke="none"/>
    </g>
    <linearGradient gradientTransform="matrix(0.945, 0.0, 0.0, 0.945, -570.95, -402.8)" gradientUnits="userSpaceOnUse" id="decoration21-gradient0" spreadMethod="pad" x1="-819.2" x2="819.2">
      <stop offset="0.03529411764705882" stop-color="#d4d0cb" stop-opacity="0.050980393"/>
      <stop offset="0.4549019607843137" stop-color="#e0d4c5" stop-opacity="0.7294118"/>
      <stop offset="1.0" stop-color="#d7cec3" stop-opacity="0.21960784"/>
    </linearGradient>
    <radialGradient cx="0" cy="0" gradientTransform="matrix(0.0174, 0.0, 0.0, 0.0125, -2.85, -17.65)" gradientUnits="userSpaceOnUse" id="decoration21-gradient1" r="819.2" spreadMethod="pad">
      <stop offset="0.03529411764705882" stop-color="#bf7821"/>
      <stop offset="1.0" stop-color="#955910"/>
    </radialGradient>
    <radialGradient cx="0" cy="0" gradientTransform="matrix(0.007, -0.0019, 0.0013, 0.0047, 4.9, -11.5)" gradientUnits="userSpaceOnUse" id="decoration21-gradient2" r="819.2" spreadMethod="pad">
      <stop offset="0.03529411764705882" stop-color="#bf7821"/>
      <stop offset="1.0" stop-color="#955910"/>
    </radialGradient>
    <radialGradient cx="0" cy="0" gradientTransform="matrix(0.013, 0.0, 0.0, 0.013, 7.95, -24.05)" gradientUnits="userSpaceOnUse" id="decoration21-gradient3" r="819.2" spreadMethod="pad">
      <stop offset="0.00392156862745098" stop-color="#e0d4c5" stop-opacity="0.7294118"/>
      <stop offset="0.49019607843137253" stop-color="#d7cec3" stop-opacity="0.21960784"/>
      <stop offset="1.0" stop-color="#d4d0cb" stop-opacity="0.0"/>
    </radialGradient>
    <radialGradient cx="0" cy="0" gradientTransform="matrix(0.0219, 0.0, 0.0, 0.0219, -4.2, -23.0)" gradientUnits="userSpaceOnUse" id="decoration21-gradient4" r="819.2" spreadMethod="pad">
      <stop offset="0.0" stop-color="#e0d4c5" stop-opacity="0.7294118"/>
      <stop offset="0.49019607843137253" stop-color="#d7cec3" stop-opacity="0.21960784"/>
      <stop offset="1.0" stop-color="#d4d0cb" stop-opacity="0.0"/>
    </radialGradient>
  </defs>
</svg>
