<?xml version="1.0" encoding="UTF-8" standalone="no"?>
<svg xmlns:xlink="http://www.w3.org/1999/xlink" height="133.0px" width="120.0px" xmlns="http://www.w3.org/2000/svg">
  <g transform="matrix(1.0, 0.0, 0.0, 1.0, 64.6, 1.0)">
    <use height="133.0" transform="matrix(1.0, 0.0, 0.0, 1.0, -64.6, -1.0)" width="120.0" xlink:href="#decoration210-shape0"/>
  </g>
  <defs>
    <g id="decoration210-shape0" transform="matrix(1.0, 0.0, 0.0, 1.0, 64.6, 1.0)">
      <path d="M0.3 0.0 L0.3 44.95" fill="none" stroke="#000000" stroke-linecap="round" stroke-linejoin="round" stroke-opacity="0.3019608" stroke-width="2.0"/>
      <path d="M5.6 77.65 Q-20.15 82.6 -26.6 61.0 -32.5 40.3 -10.5 30.75 -5.4 29.45 -0.85 29.45 29.5 34.05 24.45 61.0 21.7 75.5 5.6 77.65" fill="url(#decoration210-gradient0)" fill-rule="evenodd" stroke="none"/>
      <path d="M20.65 57.25 L6.15 60.35 3.8 57.75 7.65 53.95 20.65 57.25 M1.85 74.25 L-6.5 61.4 -21.5 60.8 -9.75 56.4 -5.05 58.9 -0.15 61.45 1.85 74.25 M-12.2 49.8 L-17.15 35.55 -7.9 45.7 -8.75 50.55 -12.2 49.8 M-3.05 41.5 L8.9 33.25 2.9 44.25 -2.5 44.95 -3.05 41.5" fill="#edc039" fill-rule="evenodd" stroke="none"/>
      <path d="M6.15 60.35 L1.85 74.25 -0.15 61.45 3.8 57.75 6.15 60.35 M-17.15 35.55 L-3.05 41.5 -2.5 44.95 -7.9 45.7 -17.15 35.55" fill="#f6d850" fill-rule="evenodd" stroke="none"/>
      <path d="M8.25 48.05 L20.65 57.25 7.65 53.95 5.6 49.7 8.25 48.05 M-21.5 60.8 L-12.2 49.8 -8.75 50.55 -9.75 56.4 -21.5 60.8" fill="#f3d136" fill-rule="evenodd" stroke="none"/>
      <path d="M8.9 33.25 L8.25 48.05 5.6 49.7 7.65 53.95 3.8 57.75 -0.15 61.45 -5.05 58.9 -9.75 56.4 -8.75 50.55 -7.9 45.7 -2.5 44.95 2.9 44.25 8.9 33.25" fill="#f3d963" fill-rule="evenodd" stroke="none"/>
      <path d="M8.9 33.25 L8.25 48.05 20.65 57.25 6.15 60.35 1.85 74.25 -6.5 61.4 -21.5 60.8 -12.2 49.8 -17.15 35.55 -3.05 41.5 8.9 33.25 Z" fill="none" stroke="#000000" stroke-linecap="round" stroke-linejoin="round" stroke-opacity="0.3019608" stroke-width="0.30000000000000004"/>
      <path d="M30.15 0.05 L30.15 100.5" fill="none" stroke="#000000" stroke-linecap="round" stroke-linejoin="round" stroke-opacity="0.3019608" stroke-width="2.0"/>
      <path d="M29.45 82.95 Q59.75 87.5 54.7 114.45 51.95 129.0 35.9 131.1 10.1 136.05 3.7 114.45 -2.25 93.75 19.8 84.2 24.85 82.95 29.45 82.95" fill="url(#decoration210-gradient1)" fill-rule="evenodd" stroke="none"/>
      <path d="M22.1 101.2 L27.5 100.5 32.9 99.8 38.85 88.75 38.2 103.55 35.55 105.2 37.65 109.45 33.75 113.25 29.8 117.0 24.9 114.4 20.2 111.95 21.2 106.05 22.1 101.2" fill="#8ef565" fill-rule="evenodd" stroke="none"/>
      <path d="M27.5 100.5 L22.1 101.2 12.85 91.05 26.95 97.05 27.5 100.5 M29.8 117.0 L33.75 113.25 36.1 115.85 31.85 129.75 29.8 117.0" fill="#adff8c" fill-rule="evenodd" stroke="none"/>
      <path d="M21.2 106.05 L20.2 111.95 8.5 116.35 17.75 105.35 21.2 106.05 M37.65 109.45 L35.55 105.2 38.2 103.55 50.6 112.75 37.65 109.45" fill="#a1f57f" fill-rule="evenodd" stroke="none"/>
      <path d="M27.5 100.5 L26.95 97.05 38.85 88.75 32.9 99.8 27.5 100.5 M12.85 91.05 L22.1 101.2 21.2 106.05 17.75 105.35 12.85 91.05 M20.2 111.95 L24.9 114.4 29.8 117.0 31.85 129.75 23.5 116.95 8.5 116.35 20.2 111.95 M33.75 113.25 L37.65 109.45 50.6 112.75 36.1 115.85 33.75 113.25" fill="#7be352" fill-rule="evenodd" stroke="none"/>
      <path d="M26.95 97.05 L12.85 91.05 17.75 105.35 8.5 116.35 M38.2 103.55 L38.85 88.75 26.95 97.05 M50.6 112.75 L36.1 115.85 31.85 129.75 23.5 116.95 8.5 116.35 M50.6 112.75 L38.2 103.55" fill="none" stroke="#000000" stroke-linecap="round" stroke-linejoin="round" stroke-opacity="0.3019608" stroke-width="0.30000000000000004"/>
      <path d="M-37.4 0.1 L-37.4 80.85" fill="none" stroke="#000000" stroke-linecap="round" stroke-linejoin="round" stroke-opacity="0.3019608" stroke-width="2.0"/>
      <path d="M-37.6 65.35 Q-7.25 69.9 -12.3 96.85 -15.05 111.4 -31.1 113.5 -56.85 118.5 -63.35 96.85 -69.25 76.15 -47.2 66.6 -42.15 65.35 -37.6 65.35" fill="url(#decoration210-gradient2)" fill-rule="evenodd" stroke="none"/>
      <path d="M-46.5 86.3 L-45.6 81.5 -40.2 80.75 -34.8 80.05 -28.85 69.0 -29.5 83.8 -32.15 85.5 -30.05 89.7 -33.95 93.5 -37.9 97.25 -42.8 94.7 -47.5 92.15 -46.5 86.3" fill="#f35b49" fill-rule="evenodd" stroke="none"/>
      <path d="M-45.6 81.5 L-46.5 86.3 -49.95 85.55 -54.9 71.3 -45.6 81.5 M-47.5 92.15 L-42.8 94.7 -37.9 97.25 -35.85 110.0 -44.2 97.2 -59.2 96.6 -47.5 92.15 M-33.95 93.5 L-30.05 89.7 -17.15 93.0 -31.6 96.1 -33.95 93.5 M-28.85 69.0 L-34.8 80.05 -40.2 80.75 -40.75 77.3 -28.85 69.0" fill="#d83825" fill-rule="evenodd" stroke="none"/>
      <path d="M-45.6 81.5 L-54.9 71.3 -40.75 77.3 -40.2 80.75 -45.6 81.5 M-37.9 97.25 L-33.95 93.5 -31.6 96.1 -35.85 110.0 -37.9 97.25" fill="#f16c5d" fill-rule="evenodd" stroke="none"/>
      <path d="M-49.95 85.55 L-46.5 86.3 -47.5 92.15 -59.2 96.6 -49.95 85.55 M-30.05 89.7 L-32.15 85.5 -29.5 83.8 -17.15 93.0 -30.05 89.7" fill="#e85c4c" fill-rule="evenodd" stroke="none"/>
      <path d="M-54.9 71.3 L-49.95 85.55 M-29.5 83.8 L-28.85 69.0 M-40.75 77.3 L-54.9 71.3 M-40.75 77.3 L-28.85 69.0 M-31.6 96.1 L-35.85 110.0 -44.2 97.2 -59.2 96.6 -49.95 85.55 M-17.15 93.0 L-31.6 96.1 M-17.15 93.0 L-29.5 83.8" fill="none" stroke="#000000" stroke-linecap="round" stroke-linejoin="round" stroke-opacity="0.3019608" stroke-width="0.30000000000000004"/>
    </g>
    <radialGradient cx="0" cy="0" gradientTransform="matrix(0.0353, 0.0, 0.0, 0.0319, -2.3, 53.05)" gradientUnits="userSpaceOnUse" id="decoration210-gradient0" r="819.2" spreadMethod="pad">
      <stop offset="0.0" stop-color="#f3d963"/>
      <stop offset="0.8549019607843137" stop-color="#f3d963" stop-opacity="0.05490196"/>
    </radialGradient>
    <radialGradient cx="0" cy="0" gradientTransform="matrix(0.0353, 0.0, 0.0, 0.0319, 28.0, 106.55)" gradientUnits="userSpaceOnUse" id="decoration210-gradient1" r="819.2" spreadMethod="pad">
      <stop offset="0.0" stop-color="#adff8c"/>
      <stop offset="0.8549019607843137" stop-color="#adff8c" stop-opacity="0.05490196"/>
    </radialGradient>
    <radialGradient cx="0" cy="0" gradientTransform="matrix(0.0353, 0.0, 0.0, 0.0319, -39.0, 88.95)" gradientUnits="userSpaceOnUse" id="decoration210-gradient2" r="819.2" spreadMethod="pad">
      <stop offset="0.0" stop-color="#f35b49"/>
      <stop offset="0.8549019607843137" stop-color="#f35b49" stop-opacity="0.05490196"/>
    </radialGradient>
  </defs>
</svg>
