<?xml version="1.0" encoding="UTF-8" standalone="no"?>
<svg xmlns:xlink="http://www.w3.org/1999/xlink" height="40.0px" width="76.25px" xmlns="http://www.w3.org/2000/svg">
  <g transform="matrix(1.0, 0.0, 0.0, 1.0, 38.7, 39.5)">
    <use data-characterId="975" height="40.0" transform="matrix(1.0, 0.0, 0.0, 1.0, -38.7, -39.5)" width="76.25" xlink:href="#decoration211-shape0"/>
  </g>
  <defs>
    <g id="decoration211-shape0" transform="matrix(1.0, 0.0, 0.0, 1.0, 38.7, 39.5)">
      <path d="M18.05 -32.4 Q19.8 -33.05 19.2 -31.2 21.2 -31.05 19.7 -27.0 23.15 -28.0 22.9 -26.15 L23.15 -26.05 Q26.5 -25.05 20.2 -22.3 23.6 -21.3 17.35 -21.55 19.45 -17.25 11.95 -21.7 12.45 -19.4 11.4 -18.55 L10.25 -18.1 Q8.75 -15.35 5.35 -20.15 5.5 -15.85 3.25 -17.75 4.35 -14.6 0.35 -16.65 0.65 -15.4 -1.25 -15.45 3.85 -14.45 0.4 -12.85 L1.8 -12.05 Q3.45 -14.95 4.75 -10.7 6.45 -15.05 8.95 -12.8 10.0 -15.75 11.4 -13.1 13.3 -17.7 16.1 -14.5 17.45 -18.15 20.05 -16.5 21.1 -18.25 23.2 -17.0 23.7 -20.25 25.3 -17.15 27.6 -18.8 27.65 -15.15 28.75 -16.35 29.15 -12.45 30.4 -13.0 29.8 -10.05 31.6 -10.65 30.35 -8.8 33.35 -9.65 30.8 -6.9 33.55 -7.05 33.55 -5.05 36.15 -4.1 32.25 -3.0 35.1 -1.9 31.2 -1.7 35.45 -0.5 29.85 0.35 L3.85 0.35 Q2.4 0.2 3.0 -2.1 1.15 -0.05 0.8 -3.15 -0.1 -2.05 -1.15 -3.55 -3.45 -1.45 -5.9 -0.95 -6.05 -1.65 -6.65 -1.55 L-7.25 -1.3 Q-8.15 -1.0 -9.05 -3.25 -9.55 -1.5 -10.25 -3.15 -10.95 -0.5 -13.6 -1.05 L-16.1 -2.2 Q-17.1 0.95 -18.1 -1.45 -21.5 0.85 -24.6 -0.9 -28.4 1.1 -27.65 -2.4 -33.4 -2.1 -31.5 -5.35 -36.15 -3.8 -30.65 -7.4 -37.4 -7.45 -30.85 -9.15 -33.95 -9.75 -31.25 -10.95 -35.4 -11.5 -31.0 -13.0 -33.25 -14.6 -29.5 -14.9 -30.8 -18.8 -27.2 -16.6 -27.9 -19.25 -25.9 -18.1 -24.9 -19.85 -23.35 -19.45 -22.45 -22.4 -19.6 -20.85 L-16.15 -22.0 -16.35 -22.0 Q-20.35 -22.55 -18.75 -26.0 -19.4 -29.85 -17.2 -27.6 -15.95 -31.4 -14.55 -30.7 -14.9 -35.2 -11.4 -32.55 -12.65 -34.0 -11.65 -34.45 -10.2 -34.3 -9.2 -33.35 -8.75 -36.05 -6.9 -34.0 -5.95 -36.95 -5.25 -34.1 L-3.7 -33.6 Q-7.85 -40.9 0.2 -34.5 0.6 -36.45 1.5 -36.35 1.3 -38.35 2.8 -36.9 5.8 -41.25 6.25 -37.9 10.9 -40.6 8.6 -36.95 12.85 -38.35 10.85 -35.65 14.4 -38.45 15.45 -36.0 16.85 -40.3 17.7 -32.25 L18.05 -32.4 M3.3 -33.2 Q0.85 -36.85 0.55 -32.75 -0.4 -33.6 -0.25 -31.8 L-0.25 -31.7 -1.7 -32.5 Q-7.65 -33.75 -3.6 -31.2 -6.4 -30.9 -5.45 -29.85 -7.15 -29.6 -5.8 -28.0 -6.95 -27.3 -9.35 -28.5 -13.7 -28.65 -11.15 -25.95 -15.35 -25.85 -10.7 -23.7 -13.2 -20.35 -7.85 -22.45 -5.5 -22.55 -3.6 -24.95 -2.55 -17.4 -0.3 -26.7 L-0.1 -23.25 Q-0.15 -22.55 1.25 -23.5 L4.85 -25.85 Q5.95 -23.0 6.75 -25.7 7.95 -23.4 8.2 -25.95 12.7 -21.65 11.25 -26.2 19.15 -23.25 15.65 -25.45 L15.3 -25.75 14.5 -26.4 12.9 -27.65 Q16.25 -28.45 12.7 -29.3 15.05 -30.95 11.35 -30.4 11.75 -33.4 8.45 -32.85 12.9 -37.65 3.3 -33.2 M5.2 -5.0 Q1.0 -4.9 5.65 -2.75 3.15 0.6 8.5 -1.5 8.0 0.6 12.8 -2.9 13.45 -1.2 16.05 -5.75 L17.2 -3.75 16.65 -2.65 Q18.8 -3.15 21.2 -4.9 22.3 -2.05 23.1 -4.75 24.3 -2.45 24.55 -5.0 29.05 -0.7 27.6 -5.25 35.5 -2.3 32.0 -4.5 L31.65 -4.8 32.4 -5.1 32.75 -5.45 Q32.1 -5.95 29.25 -6.7 32.6 -7.5 29.05 -8.35 31.4 -10.0 27.7 -9.45 29.9 -14.15 24.8 -11.9 25.35 -14.5 19.65 -12.25 17.2 -15.9 16.9 -11.8 15.9 -12.7 16.1 -10.75 L14.65 -11.55 Q8.7 -12.8 12.75 -10.25 9.95 -9.95 10.9 -8.9 9.2 -8.65 10.55 -7.05 6.0 -9.1 7.0 -7.55 2.65 -7.7 5.2 -5.0 M-27.6 -7.45 Q-30.4 -4.35 -24.85 -6.0 -24.95 -4.1 -20.45 -7.0 -19.95 -5.25 -17.4 -6.6 L-16.0 -7.45 -16.65 -6.4 Q-14.45 -6.7 -11.9 -8.25 -11.05 -5.35 -10.0 -7.95 -9.0 -5.55 -8.55 -8.05 -4.45 -3.45 -4.6 -7.7 2.1 -4.45 -1.85 -7.3 -0.5 -7.9 -1.35 -8.5 -2.65 -9.4 -3.75 -9.35 -1.5 -10.2 -3.8 -11.05 -1.3 -12.45 -5.0 -12.25 -5.3 -14.25 -7.7 -14.95 -0.15 -17.65 -12.8 -15.75 -14.95 -19.55 -15.6 -15.5 -16.55 -16.5 -16.5 -14.55 L-17.85 -15.45 Q-23.7 -17.25 -19.85 -14.35 -22.65 -14.25 -21.8 -13.15 -23.55 -13.05 -22.3 -11.3 -26.3 -14.15 -25.85 -12.15 -28.25 -11.5 -27.85 -9.75 -32.0 -10.0 -27.6 -7.45" fill="url(#decoration211-gradient0)" fill-rule="evenodd" stroke="none"/>
      <path d="M29.85 0.35 Q35.45 -0.5 31.2 -1.7 35.1 -1.9 32.25 -3.0 36.15 -4.1 33.55 -5.05 33.55 -7.05 30.8 -6.9 33.35 -9.65 30.35 -8.8 31.6 -10.65 29.8 -10.05 30.4 -13.0 29.15 -12.45 28.75 -16.35 27.65 -15.15 27.6 -18.8 25.3 -17.15 23.7 -20.25 23.2 -17.0 21.1 -18.25 20.05 -16.5 17.45 -18.15 16.1 -14.5 13.3 -17.7 11.4 -13.1 10.0 -15.75 8.95 -12.8 6.45 -15.05 4.75 -10.7 3.45 -14.95 1.8 -12.05 L0.4 -12.85 Q3.85 -14.45 -1.25 -15.45 0.65 -15.4 0.35 -16.65 4.35 -14.6 3.25 -17.75 5.5 -15.85 5.35 -20.15 8.75 -15.35 10.25 -18.1 L11.4 -18.55 Q12.45 -19.4 11.95 -21.7 19.45 -17.25 17.35 -21.55 23.6 -21.3 20.2 -22.3 26.5 -25.05 23.15 -26.05 L22.9 -26.15 Q23.15 -28.0 19.7 -27.0 21.2 -31.05 19.2 -31.2 19.8 -33.05 18.05 -32.4 20.25 -34.6 22.0 -32.4 25.4 -33.15 23.65 -29.95 28.4 -30.3 25.2 -27.85 27.8 -27.8 29.5 -26.75 32.75 -28.25 30.95 -24.15 33.75 -25.0 29.85 -21.3 35.5 -21.75 32.1 -19.2 35.1 -18.35 30.4 -17.0 32.65 -16.9 30.65 -13.6 34.4 -14.9 32.6 -12.3 L32.8 -12.15 Q37.25 -11.75 32.9 -9.65 36.7 -9.3 33.65 -7.85 34.6 -8.15 35.35 -7.3 36.95 -7.45 36.65 -6.05 L36.1 -4.7 Q37.5 -4.0 35.7 -3.1 L34.9 -2.8 35.7 -2.5 Q38.75 -1.25 36.4 -0.85 37.65 -0.15 37.25 0.35 L29.85 0.35" fill="url(#decoration211-gradient1)" fill-rule="evenodd" stroke="none"/>
      <path d="M5.2 -5.0 Q2.65 -7.7 7.0 -7.55 6.0 -9.1 10.55 -7.05 9.2 -8.65 10.9 -8.9 9.95 -9.95 12.75 -10.25 8.7 -12.8 14.65 -11.55 L16.1 -10.75 Q15.9 -12.7 16.9 -11.8 17.2 -15.9 19.65 -12.25 25.35 -14.5 24.8 -11.9 29.9 -14.15 27.7 -9.45 31.4 -10.0 29.05 -8.35 32.6 -7.5 29.25 -6.7 32.1 -5.95 32.75 -5.45 L32.4 -5.1 31.65 -4.8 32.0 -4.5 Q35.5 -2.3 27.6 -5.25 29.05 -0.7 24.55 -5.0 24.3 -2.45 23.1 -4.75 22.3 -2.05 21.2 -4.9 18.8 -3.15 16.65 -2.65 L17.2 -3.75 16.05 -5.75 Q13.45 -1.2 12.8 -2.9 8.0 0.6 8.5 -1.5 3.15 0.6 5.65 -2.75 1.0 -4.9 5.2 -5.0 M3.3 -33.2 Q12.9 -37.65 8.45 -32.85 11.75 -33.4 11.35 -30.4 15.05 -30.95 12.7 -29.3 16.25 -28.45 12.9 -27.65 L14.5 -26.4 15.3 -25.75 15.65 -25.45 Q19.15 -23.25 11.25 -26.2 12.7 -21.65 8.2 -25.95 7.95 -23.4 6.75 -25.7 5.95 -23.0 4.85 -25.85 L1.25 -23.5 Q-0.15 -22.55 -0.1 -23.25 L-0.3 -26.7 Q-2.55 -17.4 -3.6 -24.95 -5.5 -22.55 -7.85 -22.45 -13.2 -20.35 -10.7 -23.7 -15.35 -25.85 -11.15 -25.95 -13.7 -28.65 -9.35 -28.5 -6.95 -27.3 -5.8 -28.0 -7.15 -29.6 -5.45 -29.85 -6.4 -30.9 -3.6 -31.2 -7.65 -33.75 -1.7 -32.5 L-0.25 -31.7 -0.25 -31.8 Q-0.4 -33.6 0.55 -32.75 0.85 -36.85 3.3 -33.2 M-27.6 -7.45 Q-32.0 -10.0 -27.85 -9.75 -28.25 -11.5 -25.85 -12.15 -26.3 -14.15 -22.3 -11.3 -23.55 -13.05 -21.8 -13.15 -22.65 -14.25 -19.85 -14.35 -23.7 -17.25 -17.85 -15.45 L-16.5 -14.55 Q-16.55 -16.5 -15.6 -15.5 -14.95 -19.55 -12.8 -15.75 -0.15 -17.65 -7.7 -14.95 -5.3 -14.25 -5.0 -12.25 -1.3 -12.45 -3.8 -11.05 -1.5 -10.2 -3.75 -9.35 -2.65 -9.4 -1.35 -8.5 -0.5 -7.9 -1.85 -7.3 2.1 -4.45 -4.6 -7.7 -4.45 -3.45 -8.55 -8.05 -9.0 -5.55 -10.0 -7.95 -11.05 -5.35 -11.9 -8.25 -14.45 -6.7 -16.65 -6.4 L-16.0 -7.45 -17.4 -6.6 Q-19.95 -5.25 -20.45 -7.0 -24.95 -4.1 -24.85 -6.0 -30.4 -4.35 -27.6 -7.45" fill="#799414" fill-rule="evenodd" stroke="none"/>
      <path d="M-11.65 -34.45 Q-12.65 -34.0 -11.4 -32.55 -14.9 -35.2 -14.55 -30.7 -15.95 -31.4 -17.2 -27.6 -19.4 -29.85 -18.75 -26.0 -20.35 -22.55 -16.35 -22.0 L-16.15 -22.0 -19.6 -20.85 Q-22.45 -22.4 -23.35 -19.45 -24.9 -19.85 -25.9 -18.1 -27.9 -19.25 -27.2 -16.6 -30.8 -18.8 -29.5 -14.9 -33.25 -14.6 -31.0 -13.0 -35.4 -11.5 -31.25 -10.95 -33.95 -9.75 -30.85 -9.15 -37.4 -7.45 -30.65 -7.4 -36.15 -3.8 -31.5 -5.35 -33.4 -2.1 -27.65 -2.4 -28.4 1.1 -24.6 -0.9 -21.5 0.85 -18.1 -1.45 -17.1 0.95 -16.1 -2.2 L-13.6 -1.05 Q-10.95 -0.5 -10.25 -3.15 -9.55 -1.5 -9.05 -3.25 -8.15 -1.0 -7.25 -1.3 L-6.65 -1.55 Q-6.05 -1.65 -5.9 -0.95 -3.45 -1.45 -1.15 -3.55 -0.1 -2.05 0.8 -3.15 1.15 -0.05 3.0 -2.1 2.4 0.2 3.85 0.35 L-33.6 0.35 Q-34.65 -0.45 -33.75 -1.25 -37.75 0.4 -33.9 -3.7 -40.8 -2.85 -33.75 -5.9 -41.85 -9.15 -36.3 -9.0 -38.4 -14.95 -34.7 -9.7 -35.5 -11.6 -34.55 -12.8 -38.25 -15.9 -32.5 -15.2 L-30.75 -14.95 Q-34.15 -18.55 -29.8 -17.4 -32.6 -21.8 -27.15 -19.2 -29.65 -25.85 -24.25 -22.55 L-23.6 -23.65 Q-25.05 -24.75 -22.65 -25.45 -24.45 -28.6 -20.5 -26.7 L-19.55 -27.5 Q-24.7 -32.25 -18.1 -30.7 -19.65 -34.2 -16.45 -33.1 -16.25 -35.25 -14.65 -36.15 -12.5 -38.05 -12.25 -34.5 L-11.65 -34.45" fill="url(#decoration211-gradient2)" fill-rule="evenodd" stroke="none"/>
      <path d="M29.85 0.35 Q35.45 -0.5 31.2 -1.7 35.1 -1.9 32.25 -3.0 36.15 -4.1 33.55 -5.05 33.55 -7.05 30.8 -6.9 33.35 -9.65 30.35 -8.8 31.6 -10.65 29.8 -10.05 30.4 -13.0 29.15 -12.45 28.75 -16.35 27.65 -15.15 27.6 -18.8 25.3 -17.15 23.7 -20.25 23.2 -17.0 21.1 -18.25 20.05 -16.5 17.45 -18.15 16.1 -14.5 13.3 -17.7 11.4 -13.1 10.0 -15.75 8.95 -12.8 6.45 -15.05 4.75 -10.7 3.45 -14.95 1.8 -12.05 L0.4 -12.85 Q3.85 -14.45 -1.25 -15.45 0.65 -15.4 0.35 -16.65 4.35 -14.6 3.25 -17.75 5.5 -15.85 5.35 -20.15 8.75 -15.35 10.25 -18.1 L11.4 -18.55 Q12.45 -19.4 11.95 -21.7 19.45 -17.25 17.35 -21.55 23.6 -21.3 20.2 -22.3 26.5 -25.05 23.15 -26.05 L22.9 -26.15 Q23.15 -28.0 19.7 -27.0 21.2 -31.05 19.2 -31.2 19.8 -33.05 18.05 -32.4 L17.7 -32.25 Q16.85 -40.3 15.45 -36.0 14.4 -38.45 10.85 -35.65 12.85 -38.35 8.6 -36.95 10.9 -40.6 6.25 -37.9 5.8 -41.25 2.8 -36.9 1.3 -38.35 1.5 -36.35 0.6 -36.45 0.2 -34.5 -7.85 -40.9 -3.7 -33.6 L-5.25 -34.1 Q-5.95 -36.95 -6.9 -34.0 -8.75 -36.05 -9.2 -33.35 -10.2 -34.3 -11.65 -34.45 -12.65 -34.0 -11.4 -32.55 -14.9 -35.2 -14.55 -30.7 -15.95 -31.4 -17.2 -27.6 -19.4 -29.85 -18.75 -26.0 -20.35 -22.55 -16.35 -22.0 L-16.15 -22.0 -19.6 -20.85 Q-22.45 -22.4 -23.35 -19.45 -24.9 -19.85 -25.9 -18.1 -27.9 -19.25 -27.2 -16.6 -30.8 -18.8 -29.5 -14.9 -33.25 -14.6 -31.0 -13.0 -35.4 -11.5 -31.25 -10.95 -33.95 -9.75 -30.85 -9.15 -37.4 -7.45 -30.65 -7.4 -36.15 -3.8 -31.5 -5.35 -33.4 -2.1 -27.65 -2.4 -28.4 1.1 -24.6 -0.9 -21.5 0.85 -18.1 -1.45 -17.1 0.95 -16.1 -2.2 L-13.6 -1.05 Q-10.95 -0.5 -10.25 -3.15 -9.55 -1.5 -9.05 -3.25 -8.15 -1.0 -7.25 -1.3 L-6.65 -1.55 Q-6.05 -1.65 -5.9 -0.95 -3.45 -1.45 -1.15 -3.55 -0.1 -2.05 0.8 -3.15 1.15 -0.05 3.0 -2.1 2.4 0.2 3.85 0.35 L29.85 0.35 37.25 0.35 Q37.65 -0.15 36.4 -0.85 38.75 -1.25 35.7 -2.5 L34.9 -2.8 35.7 -3.1 Q37.5 -4.0 36.1 -4.7 L36.65 -6.05 Q36.95 -7.45 35.35 -7.3 34.6 -8.15 33.65 -7.85 36.7 -9.3 32.9 -9.65 37.25 -11.75 32.8 -12.15 L32.6 -12.3 Q34.4 -14.9 30.65 -13.6 32.65 -16.9 30.4 -17.0 35.1 -18.35 32.1 -19.2 35.5 -21.75 29.85 -21.3 33.75 -25.0 30.95 -24.15 32.75 -28.25 29.5 -26.75 27.8 -27.8 25.2 -27.85 28.4 -30.3 23.65 -29.95 25.4 -33.15 22.0 -32.4 20.25 -34.6 18.05 -32.4 M3.85 0.35 L-33.6 0.35 Q-34.65 -0.45 -33.75 -1.25 -37.75 0.4 -33.9 -3.7 -40.8 -2.85 -33.75 -5.9 -41.85 -9.15 -36.3 -9.0 -38.4 -14.95 -34.7 -9.7 -35.5 -11.6 -34.55 -12.8 -38.25 -15.9 -32.5 -15.2 L-30.75 -14.95 Q-34.15 -18.55 -29.8 -17.4 -32.6 -21.8 -27.15 -19.2 -29.65 -25.85 -24.25 -22.55 L-23.6 -23.65 Q-25.05 -24.75 -22.65 -25.45 -24.45 -28.6 -20.5 -26.7 L-19.55 -27.5 Q-24.7 -32.25 -18.1 -30.7 -19.65 -34.2 -16.45 -33.1 -16.25 -35.25 -14.65 -36.15 -12.5 -38.05 -12.25 -34.5 L-11.65 -34.45" fill="none" stroke="#000000" stroke-linecap="round" stroke-linejoin="round" stroke-opacity="0.3019608" stroke-width="0.30000000000000004"/>
    </g>
    <linearGradient gradientTransform="matrix(0.0419, 0.0, 0.0, 0.0242, 0.25, -19.5)" gradientUnits="userSpaceOnUse" id="decoration211-gradient0" spreadMethod="pad" x1="-819.2" x2="819.2">
      <stop offset="0.19215686274509805" stop-color="#506404"/>
      <stop offset="1.0" stop-color="#334100"/>
    </linearGradient>
    <linearGradient gradientTransform="matrix(0.0236, 0.0, 0.0, 0.0207, 18.05, -16.6)" gradientUnits="userSpaceOnUse" id="decoration211-gradient1" spreadMethod="pad" x1="-819.2" x2="819.2">
      <stop offset="0.19215686274509805" stop-color="#3b4a02"/>
      <stop offset="1.0" stop-color="#1f2700"/>
    </linearGradient>
    <linearGradient gradientTransform="matrix(0.0259, 0.0, 0.0, 0.0227, -17.35, -18.25)" gradientUnits="userSpaceOnUse" id="decoration211-gradient2" spreadMethod="pad" x1="-819.2" x2="819.2">
      <stop offset="0.19215686274509805" stop-color="#3b4a02"/>
      <stop offset="1.0" stop-color="#1f2700"/>
    </linearGradient>
  </defs>
</svg>
