<?xml version="1.0" encoding="UTF-8" standalone="no"?>
<svg xmlns:xlink="http://www.w3.org/1999/xlink" height="43.1px" width="76.25px" xmlns="http://www.w3.org/2000/svg">
  <g transform="matrix(1.0, 0.0, 0.0, 1.0, 38.2, 42.75)">
    <use height="43.1" transform="matrix(1.0, 0.0, 0.0, 1.0, -38.2, -42.75)" width="76.25" xlink:href="#decoration212-shape0"/>
  </g>
  <defs>
    <g id="decoration212-shape0" transform="matrix(1.0, 0.0, 0.0, 1.0, 38.2, 42.75)">
      <path d="M18.55 -32.55 Q20.75 -34.75 22.5 -32.55 25.9 -33.3 24.15 -30.1 28.9 -30.45 25.7 -28.0 28.3 -27.95 30.0 -26.9 33.25 -28.4 31.45 -24.3 34.25 -25.15 30.35 -21.45 36.0 -21.9 32.6 -19.35 35.6 -18.5 30.9 -17.15 33.15 -17.05 31.15 -13.75 34.9 -15.05 33.1 -12.45 L33.3 -12.3 Q37.75 -11.9 33.4 -9.8 37.2 -9.45 34.15 -8.0 35.1 -8.3 35.85 -7.45 37.45 -7.6 37.15 -6.2 L36.6 -4.85 Q38.0 -4.15 36.2 -3.25 L35.4 -2.95 36.2 -2.65 Q39.25 -1.4 36.9 -1.0 38.15 -0.3 37.75 0.2 L30.35 0.2 Q35.95 -0.65 31.7 -1.85 35.6 -2.05 32.75 -3.15 36.65 -4.25 34.05 -5.2 34.05 -7.2 31.3 -7.05 33.85 -9.8 30.85 -8.95 32.1 -10.8 30.3 -10.2 30.9 -13.15 29.65 -12.6 29.25 -16.5 28.15 -15.3 28.1 -18.95 25.8 -17.3 24.2 -20.4 23.7 -17.15 21.6 -18.4 20.55 -16.65 17.95 -18.3 16.6 -14.65 13.8 -17.85 11.9 -13.25 10.5 -15.9 9.45 -12.95 6.95 -15.2 5.25 -10.85 3.95 -15.1 2.3 -12.2 L0.9 -13.0 Q4.35 -14.6 -0.75 -15.6 1.15 -15.55 0.85 -16.8 4.85 -14.75 3.75 -17.9 6.0 -16.0 5.85 -20.3 9.25 -15.5 10.75 -18.25 L11.9 -18.7 Q12.95 -19.55 12.45 -21.85 19.95 -17.4 17.85 -21.7 24.1 -21.45 20.7 -22.45 27.0 -25.2 23.65 -26.2 L23.4 -26.3 Q23.65 -28.15 20.2 -27.15 21.7 -31.2 19.7 -31.35 20.3 -33.2 18.55 -32.55" fill="url(#decoration212-gradient0)" fill-rule="evenodd" stroke="none"/>
      <path d="M8.95 -33.0 Q12.25 -33.55 11.85 -30.55 15.55 -31.1 13.2 -29.45 16.75 -28.6 13.4 -27.8 L15.0 -26.55 15.8 -25.9 16.15 -25.6 Q19.65 -23.4 11.75 -26.35 13.2 -21.8 8.7 -26.1 8.45 -23.55 7.25 -25.85 6.45 -23.15 5.35 -26.0 2.95 -24.25 1.75 -23.65 0.35 -22.7 0.4 -23.4 L0.2 -26.85 Q-2.05 -17.55 -3.1 -25.1 -5.0 -22.7 -7.35 -22.6 -12.7 -20.5 -10.2 -23.85 -14.85 -26.0 -10.65 -26.1 -13.2 -28.8 -8.85 -28.65 -6.45 -27.45 -5.3 -28.15 -6.65 -29.75 -4.95 -30.0 -5.9 -31.05 -3.1 -31.35 -7.15 -33.9 -1.2 -32.65 L0.25 -31.85 0.25 -31.95 Q0.1 -33.75 1.05 -32.9 1.35 -37.0 3.8 -33.35 13.4 -37.8 8.95 -33.0 M25.3 -12.05 Q30.4 -14.3 28.2 -9.6 31.9 -10.15 29.55 -8.5 33.1 -7.65 29.75 -6.85 32.6 -6.1 33.25 -5.6 L32.9 -5.25 32.15 -4.95 32.5 -4.65 Q36.0 -2.45 28.1 -5.4 29.55 -0.85 25.05 -5.15 24.8 -2.6 23.6 -4.9 22.8 -2.2 21.7 -5.05 19.3 -3.3 17.15 -2.8 L17.7 -3.9 16.55 -5.9 Q13.95 -1.35 13.3 -3.05 8.5 0.45 9.0 -1.65 3.65 0.45 6.15 -2.9 1.5 -5.05 5.7 -5.15 3.15 -7.85 7.5 -7.7 6.5 -9.25 11.05 -7.2 9.7 -8.8 11.4 -9.05 10.45 -10.1 13.25 -10.4 9.2 -12.95 15.15 -11.7 L16.6 -10.9 Q16.4 -12.85 17.4 -11.95 17.7 -16.05 20.15 -12.4 25.85 -14.65 25.3 -12.05 M-15.1 -15.65 Q-14.45 -19.7 -12.3 -15.9 0.35 -17.8 -7.2 -15.1 -4.8 -14.4 -4.5 -12.4 -0.8 -12.6 -3.3 -11.2 -1.0 -10.35 -3.25 -9.5 -2.15 -9.55 -0.85 -8.65 0.0 -8.05 -1.35 -7.45 2.6 -4.6 -4.1 -7.85 -3.95 -3.6 -8.05 -8.2 -8.5 -5.7 -9.5 -8.1 -10.55 -5.5 -11.4 -8.4 -13.95 -6.85 -16.15 -6.55 L-15.5 -7.6 -16.9 -6.75 Q-19.45 -5.4 -19.95 -7.15 -24.45 -4.25 -24.35 -6.15 -29.9 -4.5 -27.1 -7.6 -31.5 -10.15 -27.35 -9.9 -27.75 -11.65 -25.35 -12.3 -25.8 -14.3 -21.8 -11.45 -23.05 -13.2 -21.3 -13.3 -22.15 -14.4 -19.35 -14.5 -23.2 -17.4 -17.35 -15.6 L-16.0 -14.7 Q-16.05 -16.65 -15.1 -15.65" fill="#799414" fill-rule="evenodd" stroke="none"/>
      <path d="M30.35 0.2 L4.35 0.2 Q2.9 0.05 3.5 -2.25 1.65 -0.2 1.3 -3.3 0.4 -2.2 -0.65 -3.7 -2.95 -1.6 -5.4 -1.1 -5.55 -1.8 -6.15 -1.7 L-6.75 -1.45 Q-7.65 -1.15 -8.55 -3.4 -9.05 -1.65 -9.75 -3.3 -10.45 -0.65 -13.1 -1.2 L-15.6 -2.35 Q-16.6 0.8 -17.6 -1.6 -21.0 0.7 -24.1 -1.05 -27.9 0.95 -27.15 -2.55 -32.9 -2.25 -31.0 -5.5 -35.65 -3.95 -30.15 -7.55 -36.9 -7.6 -30.35 -9.3 -33.45 -9.9 -30.75 -11.1 -34.9 -11.65 -30.5 -13.15 -32.75 -14.75 -29.0 -15.05 -30.3 -18.95 -26.7 -16.75 -27.4 -19.4 -25.4 -18.25 -24.4 -20.0 -22.85 -19.6 -21.95 -22.55 -19.1 -21.0 L-15.65 -22.15 -15.85 -22.15 Q-19.85 -22.7 -18.25 -26.15 -18.9 -30.0 -16.7 -27.75 -15.45 -31.55 -14.05 -30.85 -14.4 -35.35 -10.9 -32.7 -12.15 -34.15 -11.15 -34.6 -9.7 -34.45 -8.7 -33.5 -8.25 -36.2 -6.4 -34.15 -5.45 -37.1 -4.75 -34.25 L-3.2 -33.75 Q-7.35 -41.05 0.7 -34.65 1.1 -36.6 2.0 -36.5 1.8 -38.5 3.3 -37.05 6.3 -41.4 6.75 -38.05 11.4 -40.75 9.1 -37.1 13.35 -38.5 11.35 -35.8 14.9 -38.6 15.95 -36.15 17.35 -40.45 18.2 -32.4 L18.55 -32.55 Q20.3 -33.2 19.7 -31.35 21.7 -31.2 20.2 -27.15 23.65 -28.15 23.4 -26.3 L23.65 -26.2 Q27.0 -25.2 20.7 -22.45 24.1 -21.45 17.85 -21.7 19.95 -17.4 12.45 -21.85 12.95 -19.55 11.9 -18.7 L10.75 -18.25 Q9.25 -15.5 5.85 -20.3 6.0 -16.0 3.75 -17.9 4.85 -14.75 0.85 -16.8 1.15 -15.55 -0.75 -15.6 4.35 -14.6 0.9 -13.0 L2.3 -12.2 Q3.95 -15.1 5.25 -10.85 6.95 -15.2 9.45 -12.95 10.5 -15.9 11.9 -13.25 13.8 -17.85 16.6 -14.65 17.95 -18.3 20.55 -16.65 21.6 -18.4 23.7 -17.15 24.2 -20.4 25.8 -17.3 28.1 -18.95 28.15 -15.3 29.25 -16.5 29.65 -12.6 30.9 -13.15 30.3 -10.2 32.1 -10.8 30.85 -8.95 33.85 -9.8 31.3 -7.05 34.05 -7.2 34.05 -5.2 36.65 -4.25 32.75 -3.15 35.6 -2.05 31.7 -1.85 35.95 -0.65 30.35 0.2 M8.95 -33.0 Q13.4 -37.8 3.8 -33.35 1.35 -37.0 1.05 -32.9 0.1 -33.75 0.25 -31.95 L0.25 -31.85 -1.2 -32.65 Q-7.15 -33.9 -3.1 -31.35 -5.9 -31.05 -4.95 -30.0 -6.65 -29.75 -5.3 -28.15 -6.45 -27.45 -8.85 -28.65 -13.2 -28.8 -10.65 -26.1 -14.85 -26.0 -10.2 -23.85 -12.7 -20.5 -7.35 -22.6 -5.0 -22.7 -3.1 -25.1 -2.05 -17.55 0.2 -26.85 L0.4 -23.4 Q0.35 -22.7 1.75 -23.65 2.95 -24.25 5.35 -26.0 6.45 -23.15 7.25 -25.85 8.45 -23.55 8.7 -26.1 13.2 -21.8 11.75 -26.35 19.65 -23.4 16.15 -25.6 L15.8 -25.9 15.0 -26.55 13.4 -27.8 Q16.75 -28.6 13.2 -29.45 15.55 -31.1 11.85 -30.55 12.25 -33.55 8.95 -33.0 M-15.1 -15.65 Q-16.05 -16.65 -16.0 -14.7 L-17.35 -15.6 Q-23.2 -17.4 -19.35 -14.5 -22.15 -14.4 -21.3 -13.3 -23.05 -13.2 -21.8 -11.45 -25.8 -14.3 -25.35 -12.3 -27.75 -11.65 -27.35 -9.9 -31.5 -10.15 -27.1 -7.6 -29.9 -4.5 -24.35 -6.15 -24.45 -4.25 -19.95 -7.15 -19.45 -5.4 -16.9 -6.75 L-15.5 -7.6 -16.15 -6.55 Q-13.95 -6.85 -11.4 -8.4 -10.55 -5.5 -9.5 -8.1 -8.5 -5.7 -8.05 -8.2 -3.95 -3.6 -4.1 -7.85 2.6 -4.6 -1.35 -7.45 0.0 -8.05 -0.85 -8.65 -2.15 -9.55 -3.25 -9.5 -1.0 -10.35 -3.3 -11.2 -0.8 -12.6 -4.5 -12.4 -4.8 -14.4 -7.2 -15.1 0.35 -17.8 -12.3 -15.9 -14.45 -19.7 -15.1 -15.65 M25.3 -12.05 Q25.85 -14.65 20.15 -12.4 17.7 -16.05 17.4 -11.95 16.4 -12.85 16.6 -10.9 L15.15 -11.7 Q9.2 -12.95 13.25 -10.4 10.45 -10.1 11.4 -9.05 9.7 -8.8 11.05 -7.2 6.5 -9.25 7.5 -7.7 3.15 -7.85 5.7 -5.15 1.5 -5.05 6.15 -2.9 3.65 0.45 9.0 -1.65 8.5 0.45 13.3 -3.05 13.95 -1.35 16.55 -5.9 L17.7 -3.9 17.15 -2.8 Q19.3 -3.3 21.7 -5.05 22.8 -2.2 23.6 -4.9 24.8 -2.6 25.05 -5.15 29.55 -0.85 28.1 -5.4 36.0 -2.45 32.5 -4.65 L32.15 -4.95 32.9 -5.25 33.25 -5.6 Q32.6 -6.1 29.75 -6.85 33.1 -7.65 29.55 -8.5 31.9 -10.15 28.2 -9.6 30.4 -14.3 25.3 -12.05" fill="url(#decoration212-gradient1)" fill-rule="evenodd" stroke="none"/>
      <path d="M4.35 0.2 L-33.1 0.2 Q-34.15 -0.6 -33.25 -1.4 -37.25 0.25 -33.4 -3.85 -40.3 -3.0 -33.25 -6.05 -41.35 -9.3 -35.8 -9.15 -37.9 -15.1 -34.2 -9.85 -35.0 -11.75 -34.05 -12.95 -37.75 -16.05 -32.0 -15.35 L-30.25 -15.1 Q-33.65 -18.7 -29.3 -17.55 -32.1 -21.95 -26.65 -19.35 -29.15 -26.0 -23.75 -22.7 L-23.1 -23.8 Q-24.55 -24.9 -22.15 -25.6 -23.95 -28.75 -20.0 -26.85 L-19.05 -27.65 Q-24.2 -32.4 -17.6 -30.85 -19.15 -34.35 -15.95 -33.25 -15.75 -35.4 -14.15 -36.3 -12.0 -38.2 -11.75 -34.65 L-11.15 -34.6 Q-12.15 -34.15 -10.9 -32.7 -14.4 -35.35 -14.05 -30.85 -15.45 -31.55 -16.7 -27.75 -18.9 -30.0 -18.25 -26.15 -19.85 -22.7 -15.85 -22.15 L-15.65 -22.15 -19.1 -21.0 Q-21.95 -22.55 -22.85 -19.6 -24.4 -20.0 -25.4 -18.25 -27.4 -19.4 -26.7 -16.75 -30.3 -18.95 -29.0 -15.05 -32.75 -14.75 -30.5 -13.15 -34.9 -11.65 -30.75 -11.1 -33.45 -9.9 -30.35 -9.3 -36.9 -7.6 -30.15 -7.55 -35.65 -3.95 -31.0 -5.5 -32.9 -2.25 -27.15 -2.55 -27.9 0.95 -24.1 -1.05 -21.0 0.7 -17.6 -1.6 -16.6 0.8 -15.6 -2.35 L-13.1 -1.2 Q-10.45 -0.65 -9.75 -3.3 -9.05 -1.65 -8.55 -3.4 -7.65 -1.15 -6.75 -1.45 L-6.15 -1.7 Q-5.55 -1.8 -5.4 -1.1 -2.95 -1.6 -0.65 -3.7 0.4 -2.2 1.3 -3.3 1.65 -0.2 3.5 -2.25 2.9 0.05 4.35 0.2" fill="url(#decoration212-gradient2)" fill-rule="evenodd" stroke="none"/>
      <path d="M18.55 -32.55 Q20.75 -34.75 22.5 -32.55 25.9 -33.3 24.15 -30.1 28.9 -30.45 25.7 -28.0 28.3 -27.95 30.0 -26.9 33.25 -28.4 31.45 -24.3 34.25 -25.15 30.35 -21.45 36.0 -21.9 32.6 -19.35 35.6 -18.5 30.9 -17.15 33.15 -17.05 31.15 -13.75 34.9 -15.05 33.1 -12.45 L33.3 -12.3 Q37.75 -11.9 33.4 -9.8 37.2 -9.45 34.15 -8.0 35.1 -8.3 35.85 -7.45 37.45 -7.6 37.15 -6.2 L36.6 -4.85 Q38.0 -4.15 36.2 -3.25 L35.4 -2.95 36.2 -2.65 Q39.25 -1.4 36.9 -1.0 38.15 -0.3 37.75 0.2 L30.35 0.2 4.35 0.2 -33.1 0.2 Q-34.15 -0.6 -33.25 -1.4 -37.25 0.25 -33.4 -3.85 -40.3 -3.0 -33.25 -6.05 -41.35 -9.3 -35.8 -9.15 -37.9 -15.1 -34.2 -9.85 -35.0 -11.75 -34.05 -12.95 -37.75 -16.05 -32.0 -15.35 L-30.25 -15.1 Q-33.65 -18.7 -29.3 -17.55 -32.1 -21.95 -26.65 -19.35 -29.15 -26.0 -23.75 -22.7 L-23.1 -23.8 Q-24.55 -24.9 -22.15 -25.6 -23.95 -28.75 -20.0 -26.85 L-19.05 -27.65 Q-24.2 -32.4 -17.6 -30.85 -19.15 -34.35 -15.95 -33.25 -15.75 -35.4 -14.15 -36.3 -12.0 -38.2 -11.75 -34.65 L-11.15 -34.6 Q-9.7 -34.45 -8.7 -33.5 -8.25 -36.2 -6.4 -34.15 -5.45 -37.1 -4.75 -34.25 L-3.2 -33.75 Q-7.35 -41.05 0.7 -34.65 1.1 -36.6 2.0 -36.5 1.8 -38.5 3.3 -37.05 6.3 -41.4 6.75 -38.05 11.4 -40.75 9.1 -37.1 13.35 -38.5 11.35 -35.8 14.9 -38.6 15.95 -36.15 17.35 -40.45 18.2 -32.4 L18.55 -32.55 Q20.3 -33.2 19.7 -31.35 21.7 -31.2 20.2 -27.15 23.65 -28.15 23.4 -26.3 L23.65 -26.2 Q27.0 -25.2 20.7 -22.45 24.1 -21.45 17.85 -21.7 19.95 -17.4 12.45 -21.85 12.95 -19.55 11.9 -18.7 L10.75 -18.25 Q9.25 -15.5 5.85 -20.3 6.0 -16.0 3.75 -17.9 4.85 -14.75 0.85 -16.8 1.15 -15.55 -0.75 -15.6 4.35 -14.6 0.9 -13.0 L2.3 -12.2 Q3.95 -15.1 5.25 -10.85 6.95 -15.2 9.45 -12.95 10.5 -15.9 11.9 -13.25 13.8 -17.85 16.6 -14.65 17.95 -18.3 20.55 -16.65 21.6 -18.4 23.7 -17.15 24.2 -20.4 25.8 -17.3 28.1 -18.95 28.15 -15.3 29.25 -16.5 29.65 -12.6 30.9 -13.15 30.3 -10.2 32.1 -10.8 30.85 -8.95 33.85 -9.8 31.3 -7.05 34.05 -7.2 34.05 -5.2 36.65 -4.25 32.75 -3.15 35.6 -2.05 31.7 -1.85 35.95 -0.65 30.35 0.2 M-11.15 -34.6 Q-12.15 -34.15 -10.9 -32.7 -14.4 -35.35 -14.05 -30.85 -15.45 -31.55 -16.7 -27.75 -18.9 -30.0 -18.25 -26.15 -19.85 -22.7 -15.85 -22.15 L-15.65 -22.15 -19.1 -21.0 Q-21.95 -22.55 -22.85 -19.6 -24.4 -20.0 -25.4 -18.25 -27.4 -19.4 -26.7 -16.75 -30.3 -18.95 -29.0 -15.05 -32.75 -14.75 -30.5 -13.15 -34.9 -11.65 -30.75 -11.1 -33.45 -9.9 -30.35 -9.3 -36.9 -7.6 -30.15 -7.55 -35.65 -3.95 -31.0 -5.5 -32.9 -2.25 -27.15 -2.55 -27.9 0.95 -24.1 -1.05 -21.0 0.7 -17.6 -1.6 -16.6 0.8 -15.6 -2.35 L-13.1 -1.2 Q-10.45 -0.65 -9.75 -3.3 -9.05 -1.65 -8.55 -3.4 -7.65 -1.15 -6.75 -1.45 L-6.15 -1.7 Q-5.55 -1.8 -5.4 -1.1 -2.95 -1.6 -0.65 -3.7 0.4 -2.2 1.3 -3.3 1.65 -0.2 3.5 -2.25 2.9 0.05 4.35 0.2" fill="none" stroke="#000000" stroke-linecap="round" stroke-linejoin="round" stroke-opacity="0.3019608" stroke-width="0.30000000000000004"/>
      <path d="M-18.55 -36.15 Q-17.45 -37.2 -13.6 -37.55 -12.0 -40.5 -7.45 -38.85 -2.75 -43.75 0.0 -40.8 2.85 -42.8 6.85 -40.8 9.5 -42.05 12.0 -40.3 18.15 -42.05 19.3 -36.3 20.35 -36.55 23.1 -34.4 L18.25 -34.0 Q18.1 -32.75 16.05 -33.65 6.95 -30.8 -4.55 -31.6 -5.4 -28.95 -15.9 -33.45 -18.15 -32.05 -18.55 -36.15" fill="#ffffff" fill-rule="evenodd" stroke="none"/>
      <path d="M-18.55 -36.15 Q-18.15 -32.05 -15.9 -33.45 -5.4 -28.95 -4.55 -31.6 6.95 -30.8 16.05 -33.65 18.1 -32.75 18.25 -34.0 L23.1 -34.4 Q24.65 -34.1 24.55 -32.15 23.65 -30.3 21.0 -32.1 19.3 -33.05 18.95 -32.6 17.9 -31.2 16.95 -32.3 11.65 -29.3 -2.75 -30.05 -6.8 -26.95 -10.75 -29.3 -13.15 -31.85 -16.35 -31.7 -17.2 -30.95 -18.4 -30.85 L-19.45 -30.95 Q-20.35 -31.9 -19.25 -33.75 -20.0 -35.2 -18.55 -36.15" fill="#bbd1d7" fill-rule="evenodd" stroke="none"/>
      <path d="M23.1 -34.4 Q20.35 -36.55 19.3 -36.3 18.15 -42.05 12.0 -40.3 9.5 -42.05 6.85 -40.8 2.85 -42.8 0.0 -40.8 -2.75 -43.75 -7.45 -38.85 -12.0 -40.5 -13.6 -37.55 -17.45 -37.2 -18.55 -36.15 M23.1 -34.4 Q24.65 -34.1 24.55 -32.15 23.65 -30.3 21.0 -32.1 19.3 -33.05 18.95 -32.6 17.9 -31.2 16.95 -32.3 11.65 -29.3 -2.75 -30.05 -6.8 -26.95 -10.75 -29.3 -13.15 -31.85 -16.35 -31.7 -17.2 -30.95 -18.4 -30.85 L-19.45 -30.95 Q-20.35 -31.9 -19.25 -33.75 -20.0 -35.2 -18.55 -36.15" fill="none" stroke="#000000" stroke-linecap="round" stroke-linejoin="round" stroke-opacity="0.3019608" stroke-width="0.30000000000000004"/>
      <path d="M-5.5 -19.0 Q-4.0 -17.95 -4.6 -16.6 -5.65 -14.75 -8.35 -15.75 -13.0 -14.8 -18.15 -15.55 -19.95 -13.5 -22.6 -14.1 -26.25 -13.05 -28.9 -15.15 L-30.7 -16.0 Q-31.8 -15.0 -33.05 -16.0 -33.95 -18.15 -31.9 -18.6 -28.25 -15.4 -26.35 -16.95 -22.7 -13.85 -18.85 -17.0 -5.55 -15.85 -5.5 -19.0" fill="#bbd1d7" fill-rule="evenodd" stroke="none"/>
      <path d="M-31.9 -18.6 Q-32.0 -19.65 -30.6 -21.15 L-29.15 -22.55 Q-26.25 -25.4 -22.45 -23.05 -20.95 -26.5 -12.75 -23.25 -6.8 -23.5 -6.85 -19.7 -6.05 -19.45 -5.5 -19.0 -5.55 -15.85 -18.85 -17.0 -22.7 -13.85 -26.35 -16.95 -28.25 -15.4 -31.9 -18.6" fill="#ffffff" fill-rule="evenodd" stroke="none"/>
      <path d="M-5.5 -19.0 Q-4.0 -17.95 -4.6 -16.6 -5.65 -14.75 -8.35 -15.75 -13.0 -14.8 -18.15 -15.55 -19.95 -13.5 -22.6 -14.1 -26.25 -13.05 -28.9 -15.15 L-30.7 -16.0 Q-31.8 -15.0 -33.05 -16.0 -33.95 -18.15 -31.9 -18.6 -32.0 -19.65 -30.6 -21.15 L-29.15 -22.55 Q-26.25 -25.4 -22.45 -23.05 -20.95 -26.5 -12.75 -23.25 -6.8 -23.5 -6.85 -19.7 -6.05 -19.45 -5.5 -19.0 Z" fill="none" stroke="#000000" stroke-linecap="round" stroke-linejoin="round" stroke-opacity="0.3019608" stroke-width="0.30000000000000004"/>
      <path d="M8.75 -10.45 L8.7 -10.75 8.8 -11.8 Q9.1 -15.25 16.3 -16.9 21.95 -22.8 26.5 -17.05 28.2 -17.3 28.85 -15.05 L28.85 -15.0 Q26.7 -12.4 23.2 -13.05 18.75 -9.45 14.1 -11.05 11.7 -10.0 8.75 -10.45" fill="#ffffff" fill-rule="evenodd" stroke="none"/>
      <path d="M8.75 -10.45 Q11.7 -10.0 14.1 -11.05 18.75 -9.45 23.2 -13.05 26.7 -12.4 28.85 -15.0 L29.0 -14.2 Q29.35 -11.4 27.6 -11.5 L24.9 -12.05 Q18.25 -6.25 13.9 -9.4 L10.2 -7.75 Q9.0 -8.1 8.8 -9.9 L8.75 -10.45" fill="#bbd1d7" fill-rule="evenodd" stroke="none"/>
      <path d="M28.85 -15.0 L28.85 -15.05 Q28.2 -17.3 26.5 -17.05 21.95 -22.8 16.3 -16.9 9.1 -15.25 8.8 -11.8 L8.7 -10.75 8.75 -10.45 M28.85 -15.0 L29.0 -14.2 Q29.35 -11.4 27.6 -11.5 L24.9 -12.05 Q18.25 -6.25 13.9 -9.4 L10.2 -7.75 Q9.0 -8.1 8.8 -9.9 L8.75 -10.45" fill="none" stroke="#000000" stroke-linecap="round" stroke-linejoin="round" stroke-opacity="0.3019608" stroke-width="0.30000000000000004"/>
      <path d="M14.55 -40.05 Q13.8 -39.7 13.4 -40.2 13.05 -40.7 13.7 -41.3 14.35 -41.9 14.8 -41.15 15.25 -40.45 14.55 -40.05 M17.95 -40.25 Q18.25 -39.95 17.85 -39.6 17.5 -39.25 17.15 -39.7 16.75 -40.1 17.2 -40.35 L17.95 -40.25 M-4.9 -41.0 Q-4.5 -40.55 -5.0 -40.1 -5.5 -39.6 -6.0 -40.2 -6.5 -40.75 -5.9 -41.1 L-4.9 -41.0 M-2.95 -41.55 Q-3.55 -42.2 -2.55 -42.5 -1.55 -42.85 -1.2 -42.25 -0.85 -41.65 -1.6 -41.25 -2.35 -40.9 -2.95 -41.55 M3.35 -41.0 Q2.5 -40.6 2.1 -41.15 1.65 -41.75 2.4 -42.45 3.15 -43.1 3.65 -42.25 4.2 -41.45 3.35 -41.0 M0.3 -40.9 L-0.8 -40.95 Q-1.4 -41.45 -0.7 -42.0 0.05 -42.6 0.45 -42.0 0.85 -41.4 0.3 -40.9 M5.0 -40.9 Q4.35 -41.7 5.15 -42.15 5.95 -42.6 6.5 -42.0 7.05 -41.4 6.35 -40.8 5.7 -40.15 5.0 -40.9 M7.7 -40.95 Q7.15 -41.55 8.1 -41.85 9.0 -42.15 9.3 -41.6 9.65 -41.05 8.95 -40.7 8.25 -40.4 7.7 -40.95 M12.0 -41.0 Q12.4 -40.45 11.85 -40.0 11.35 -39.55 10.8 -40.0 10.25 -40.5 10.95 -41.05 L12.0 -41.0 M25.2 -31.35 L23.85 -31.45 Q23.2 -32.25 24.0 -32.7 24.8 -33.15 25.35 -32.55 25.9 -31.95 25.2 -31.35 M22.05 -35.25 Q22.9 -36.05 23.55 -35.1 24.15 -34.1 23.15 -33.55 22.15 -33.05 21.65 -33.75 21.15 -34.45 22.05 -35.25 M20.85 -35.3 L19.6 -35.35 Q19.0 -35.9 19.8 -36.5 20.55 -37.15 21.0 -36.5 21.45 -35.8 20.85 -35.3 M17.95 -37.25 Q17.4 -37.85 18.35 -38.15 19.25 -38.45 19.55 -37.9 19.9 -37.35 19.2 -37.0 18.5 -36.7 17.95 -37.25 M-10.15 -40.0 Q-9.75 -39.45 -10.3 -39.0 -10.8 -38.55 -11.35 -39.0 -11.9 -39.5 -11.2 -40.05 L-10.15 -40.0 M-6.9 -38.3 Q-7.45 -38.0 -7.7 -38.4 -7.95 -38.75 -7.5 -39.2 -7.05 -39.6 -6.7 -39.1 -6.35 -38.55 -6.9 -38.3 M-15.95 -37.2 L-16.75 -37.25 Q-17.15 -37.7 -16.65 -37.95 L-15.9 -37.9 Q-15.55 -37.55 -15.95 -37.2 M-14.1 -38.45 Q-14.65 -39.05 -13.7 -39.35 -12.8 -39.65 -12.5 -39.1 -12.15 -38.55 -12.85 -38.2 -13.55 -37.9 -14.1 -38.45 M-19.35 -36.0 Q-19.6 -36.3 -19.2 -36.65 -18.8 -37.0 -18.55 -36.55 -18.3 -36.15 -18.7 -35.9 L-19.35 -36.0" fill="#ffffff" fill-rule="evenodd" stroke="none"/>
      <path d="M-5.25 -18.7 Q-5.9 -18.1 -6.55 -18.85 -7.2 -19.6 -6.45 -20.1 -5.7 -20.6 -5.15 -19.95 -4.6 -19.25 -5.25 -18.7 M-29.7 -23.2 Q-29.85 -23.6 -29.5 -23.85 -29.15 -24.1 -28.95 -23.7 -28.7 -23.3 -29.15 -23.05 -29.55 -22.85 -29.7 -23.2 M-26.55 -25.3 L-25.75 -25.2 Q-25.4 -24.8 -25.8 -24.4 -26.2 -24.05 -26.6 -24.55 -27.05 -25.0 -26.55 -25.3 M-34.0 -16.45 Q-34.45 -16.95 -33.9 -17.35 -33.4 -17.7 -33.0 -17.2 -32.6 -16.75 -33.05 -16.3 -33.5 -15.9 -34.0 -16.45 M-32.85 -18.75 Q-33.25 -19.4 -32.65 -19.75 -32.0 -20.15 -31.65 -19.5 -31.3 -18.9 -31.85 -18.5 -32.45 -18.1 -32.85 -18.75 M-31.5 -21.3 Q-31.7 -21.75 -31.3 -22.0 -30.85 -22.3 -30.6 -21.85 -30.3 -21.4 -30.8 -21.15 -31.25 -20.9 -31.5 -21.3 M-18.4 -24.35 Q-19.15 -23.9 -19.4 -24.6 -19.65 -25.25 -19.05 -25.7 -18.45 -26.1 -18.05 -25.45 -17.65 -24.75 -18.4 -24.35 M-20.75 -24.45 Q-21.45 -24.05 -21.8 -24.7 -22.15 -25.3 -21.55 -25.75 -20.9 -26.15 -20.5 -25.5 -20.1 -24.85 -20.75 -24.45 M-23.85 -23.35 Q-24.25 -24.0 -23.6 -24.4 -22.95 -24.8 -22.55 -24.15 -22.2 -23.5 -22.8 -23.1 -23.4 -22.65 -23.85 -23.35 M-6.4 -21.85 Q-6.0 -21.2 -6.7 -20.8 -7.4 -20.4 -7.7 -21.05 -7.95 -21.7 -7.35 -22.1 -6.75 -22.5 -6.4 -21.85 M-9.6 -22.25 Q-10.45 -21.75 -10.9 -22.55 -11.35 -23.35 -10.55 -23.85 -9.75 -24.4 -9.2 -23.6 -8.7 -22.75 -9.6 -22.25 M-15.85 -24.5 Q-16.4 -25.15 -15.75 -25.65 -15.05 -26.1 -14.55 -25.5 -14.05 -24.85 -14.65 -24.35 -15.25 -23.8 -15.85 -24.5 M-13.05 -23.25 Q-13.4 -23.7 -12.9 -24.0 -12.4 -24.3 -12.15 -23.85 -11.85 -23.35 -12.3 -23.05 -12.75 -22.75 -13.05 -23.25" fill="#ffffff" fill-rule="evenodd" stroke="none"/>
      <path d="M11.9 -15.35 Q12.45 -14.7 11.45 -14.1 10.4 -13.45 10.05 -14.35 9.7 -15.25 10.5 -15.65 11.3 -16.0 11.9 -15.35 M13.75 -15.5 Q13.15 -15.1 12.8 -15.75 12.5 -16.35 13.2 -16.8 13.9 -17.2 14.15 -16.55 14.4 -15.9 13.75 -15.5 M18.0 -18.65 Q17.7 -19.25 18.35 -19.65 19.0 -20.05 19.45 -19.3 19.95 -18.5 19.15 -18.25 18.35 -18.05 18.0 -18.65 M16.25 -16.8 Q15.75 -16.4 15.25 -17.1 14.7 -17.85 15.35 -18.2 16.0 -18.6 16.4 -17.85 16.75 -17.15 16.25 -16.8 M23.9 -19.7 Q24.8 -20.25 25.1 -19.45 25.45 -18.6 24.6 -18.1 23.8 -17.55 23.4 -18.35 23.0 -19.15 23.9 -19.7 M20.6 -19.35 Q20.3 -20.15 21.0 -20.45 21.65 -20.75 22.15 -20.2 22.65 -19.65 21.75 -19.1 20.9 -18.6 20.6 -19.35 M26.3 -16.7 Q25.7 -17.5 26.4 -17.9 27.1 -18.3 27.55 -17.5 27.95 -16.75 27.4 -16.3 26.85 -15.9 26.3 -16.7 M8.2 -10.8 Q8.9 -11.2 9.35 -10.4 9.75 -9.65 9.2 -9.2 8.65 -8.8 8.1 -9.6 7.5 -10.4 8.2 -10.8 M8.25 -13.35 Q8.8 -13.65 9.2 -13.05 9.55 -12.4 8.9 -12.2 8.3 -12.0 8.0 -12.5 7.75 -13.0 8.25 -13.35" fill="#ffffff" fill-rule="evenodd" stroke="none"/>
    </g>
    <linearGradient gradientTransform="matrix(0.0236, 0.0, 0.0, 0.0207, 18.55, -16.75)" gradientUnits="userSpaceOnUse" id="decoration212-gradient0" spreadMethod="pad" x1="-819.2" x2="819.2">
      <stop offset="0.19215686274509805" stop-color="#3b4a02"/>
      <stop offset="1.0" stop-color="#1f2700"/>
    </linearGradient>
    <linearGradient gradientTransform="matrix(0.0419, 0.0, 0.0, 0.0242, 0.75, -19.65)" gradientUnits="userSpaceOnUse" id="decoration212-gradient1" spreadMethod="pad" x1="-819.2" x2="819.2">
      <stop offset="0.19215686274509805" stop-color="#506404"/>
      <stop offset="1.0" stop-color="#334100"/>
    </linearGradient>
    <linearGradient gradientTransform="matrix(0.0259, 0.0, 0.0, 0.0227, -16.85, -18.4)" gradientUnits="userSpaceOnUse" id="decoration212-gradient2" spreadMethod="pad" x1="-819.2" x2="819.2">
      <stop offset="0.19215686274509805" stop-color="#3b4a02"/>
      <stop offset="1.0" stop-color="#1f2700"/>
    </linearGradient>
  </defs>
</svg>
