<?xml version="1.0" encoding="UTF-8" standalone="no"?>
<svg xmlns:xlink="http://www.w3.org/1999/xlink" height="86.6px" width="224.9px" xmlns="http://www.w3.org/2000/svg">
  <g transform="matrix(1.0, 0.0, 0.0, 1.0, 113.35, 29.45)">
    <use height="86.6" transform="matrix(1.0, 0.0, 0.0, 1.0, -113.35, -29.45)" width="224.9" xlink:href="#decoration213-shape0"/>
  </g>
  <defs>
    <g id="decoration213-shape0" transform="matrix(1.0, 0.0, 0.0, 1.0, 113.35, 29.45)">
      <path d="M-90.55 -28.8 Q-78.7 -21.8 -71.8 -18.45 -49.6 -7.65 -32.25 -4.4 -2.85 1.1 22.65 -1.9 39.2 -3.85 53.9 -9.25 61.2 -11.95 68.15 -15.55 73.95 -18.55 79.35 -22.15 L80.4 -22.85 Q84.7 -25.8 88.8 -29.05" fill="none" stroke="#ffffff" stroke-linecap="round" stroke-linejoin="round" stroke-opacity="0.49803922" stroke-width="0.8"/>
      <path d="M-51.3 -6.65 L-51.45 -6.9 -51.65 -7.2 -51.85 -8.35 Q-51.85 -9.15 -51.45 -9.8 -51.05 -10.35 -50.5 -10.35 -49.95 -10.35 -49.55 -9.8 -49.1 -9.15 -49.1 -8.35 -49.1 -7.5 -49.55 -6.9 L-49.7 -6.65 -51.3 -6.65 M-51.15 -9.4 L-51.45 -8.35 -51.15 -7.25 -50.5 -6.8 -49.85 -7.25 -49.7 -7.65 -49.6 -8.35 -49.8 -9.25 -49.85 -9.4 -50.5 -9.85 -51.15 -9.4" fill="#fac733" fill-rule="evenodd" stroke="none"/>
      <path d="M-51.3 -6.65 L-49.7 -6.65 -49.8 -6.6 Q-48.7 -6.2 -47.7 -4.75 L-48.8 -4.75 Q-50.45 -7.2 -52.45 -4.75 L-53.6 -4.75 Q-52.35 -6.25 -51.2 -6.6 L-51.3 -6.65" fill="#c88a1f" fill-rule="evenodd" stroke="none"/>
      <path d="M-49.7 -6.65 L-49.55 -6.9 Q-49.1 -7.5 -49.1 -8.35 -49.1 -9.15 -49.55 -9.8 -49.95 -10.35 -50.5 -10.35 -51.05 -10.35 -51.45 -9.8 -51.85 -9.15 -51.85 -8.35 L-51.65 -7.2 -51.45 -6.9 -51.3 -6.65 M-49.7 -6.65 L-49.8 -6.6 Q-48.7 -6.2 -47.7 -4.75 L-48.8 -4.75 Q-50.45 -7.2 -52.45 -4.75 L-53.6 -4.75 Q-52.35 -6.25 -51.2 -6.6 L-51.3 -6.65 M-51.15 -9.4 L-50.5 -9.85 -49.85 -9.4 -49.8 -9.25 -49.6 -8.35 -49.7 -7.65 -49.85 -7.25 -50.5 -6.8 -51.15 -7.25 -51.45 -8.35 -51.15 -9.4" fill="none" stroke="#000000" stroke-linecap="round" stroke-linejoin="round" stroke-opacity="0.3019608" stroke-width="0.2"/>
      <path d="M-51.55 -7.95 Q-43.3 -7.95 -37.45 -1.45 -31.6 5.1 -31.6 14.4 -31.6 23.65 -37.45 30.25 -43.3 36.75 -51.55 36.75 -59.8 36.75 -65.7 30.25 -71.5 23.65 -71.5 14.4 -71.5 5.1 -65.7 -1.45 -59.8 -7.95 -51.55 -7.95" fill="url(#decoration213-gradient0)" fill-rule="evenodd" stroke="none"/>
      <path d="M-49.7 31.0 L-49.7 27.8 -49.1 27.8 -49.1 31.0 -49.7 31.0 M-48.3 31.0 L-48.3 26.9 -47.7 26.9 -47.7 31.0 -48.3 31.0 M-46.45 31.0 L-46.45 27.8 -45.85 27.8 -45.85 31.0 -46.45 31.0 M-52.75 31.0 L-52.75 27.8 -52.2 27.8 -52.2 31.0 -52.75 31.0 M-54.4 31.0 L-54.4 26.9 -53.85 26.9 -53.85 31.0 -54.4 31.0 M-51.2 31.0 L-51.2 26.9 -50.65 26.9 -50.65 31.0 -51.2 31.0 M-55.9 31.0 L-55.9 27.8 -55.3 27.8 -55.3 31.0 -55.9 31.0" fill="#c88a1f" fill-rule="evenodd" stroke="none"/>
      <path d="M-49.1 31.0 L-49.1 35.05 -49.7 35.05 -49.7 31.0 -49.1 31.0 M-47.7 31.0 L-47.7 34.1 -48.3 34.1 -48.3 31.0 -47.7 31.0 M-45.85 31.0 L-45.85 35.05 -46.45 35.05 -46.45 31.0 -45.85 31.0 M-52.2 31.0 L-52.2 35.05 -52.75 35.05 -52.75 31.0 -52.2 31.0 M-53.85 31.0 L-53.85 34.1 -54.4 34.1 -54.4 31.0 -53.85 31.0 M-50.65 31.0 L-50.65 34.1 -51.2 34.1 -51.2 31.0 -50.65 31.0 M-55.3 31.0 L-55.3 35.05 -55.9 35.05 -55.9 31.0 -55.3 31.0" fill="#fac733" fill-rule="evenodd" stroke="none"/>
      <path d="M-49.7 31.0 L-49.7 27.8 -49.1 27.8 -49.1 31.0 -49.1 35.05 -49.7 35.05 -49.7 31.0 M-48.3 31.0 L-48.3 26.9 -47.7 26.9 -47.7 31.0 -47.7 34.1 -48.3 34.1 -48.3 31.0 M-46.45 31.0 L-46.45 27.8 -45.85 27.8 -45.85 31.0 -45.85 35.05 -46.45 35.05 -46.45 31.0 M-52.75 31.0 L-52.75 27.8 -52.2 27.8 -52.2 31.0 -52.2 35.05 -52.75 35.05 -52.75 31.0 M-54.4 31.0 L-54.4 26.9 -53.85 26.9 -53.85 31.0 -53.85 34.1 -54.4 34.1 -54.4 31.0 M-51.2 31.0 L-51.2 26.9 -50.65 26.9 -50.65 31.0 -50.65 34.1 -51.2 34.1 -51.2 31.0 M-55.3 31.0 L-55.3 35.05 -55.9 35.05 -55.9 31.0 -55.9 27.8 -55.3 27.8 -55.3 31.0" fill="none" stroke="#000000" stroke-linecap="round" stroke-linejoin="round" stroke-opacity="0.3019608" stroke-width="0.2"/>
      <path d="M-43.35 27.25 L-47.05 27.25 -47.05 26.2 -43.35 26.2 -43.35 27.25" fill="#c88a1f" fill-rule="evenodd" stroke="none"/>
      <path d="M-47.05 28.15 L-47.05 27.25 -43.35 27.25 -43.35 28.15 -47.05 28.15" fill="#c26721" fill-rule="evenodd" stroke="none"/>
      <path d="M-47.05 27.25 L-53.5 27.2 -53.5 26.2 -47.05 26.2 -47.05 27.25 M-55.5 26.2 L-55.5 27.2 -58.2 27.2 -58.25 26.2 -55.5 26.2" fill="#fac733" fill-rule="evenodd" stroke="none"/>
      <path d="M-47.05 27.25 L-47.05 28.15 -53.5 28.15 -53.5 27.2 -47.05 27.25 M-55.5 27.2 L-55.5 28.15 -58.25 28.15 -58.2 27.2 -55.5 27.2" fill="#f2932e" fill-rule="evenodd" stroke="none"/>
      <path d="M-53.5 27.2 L-53.5 28.15 -55.5 28.15 -55.5 27.2 -53.5 27.2" fill="#f8d337" fill-rule="evenodd" stroke="none"/>
      <path d="M-53.5 26.2 L-53.5 27.2 -55.5 27.2 -55.5 26.2 -53.5 26.2" fill="#fee83a" fill-rule="evenodd" stroke="none"/>
      <path d="M-53.5 28.15 L-47.05 28.15 -43.35 28.15 -43.35 27.25 M-47.05 26.2 L-53.5 26.2 -55.5 26.2 M-55.5 28.15 L-53.5 28.15 M-47.05 26.2 L-43.35 26.2 -43.35 27.25 M-58.2 27.2 L-58.25 28.15 -55.5 28.15 M-58.2 27.2 L-58.25 26.2 -55.5 26.2" fill="none" stroke="#000000" stroke-linecap="round" stroke-linejoin="round" stroke-opacity="0.3019608" stroke-width="0.2"/>
      <path d="M-55.5 -2.9 L-58.25 -2.9 -58.2 -3.85 -55.5 -3.85 -55.5 -2.9 M-47.05 -2.9 L-53.5 -2.9 -53.5 -3.85 -47.05 -3.85 -47.05 -2.9" fill="#f2932e" fill-rule="evenodd" stroke="none"/>
      <path d="M-58.2 -3.85 L-58.25 -4.9 -55.5 -4.9 -55.5 -3.85 -58.2 -3.85 M-53.5 -4.9 L-47.05 -4.9 -47.05 -3.85 -53.5 -3.85 -53.5 -4.9" fill="#fac733" fill-rule="evenodd" stroke="none"/>
      <path d="M-55.5 -4.9 L-53.5 -4.9 -53.5 -3.85 -55.5 -3.85 -55.5 -4.9" fill="#fee83a" fill-rule="evenodd" stroke="none"/>
      <path d="M-53.5 -2.9 L-55.5 -2.9 -55.5 -3.85 -53.5 -3.85 -53.5 -2.9" fill="#f8d337" fill-rule="evenodd" stroke="none"/>
      <path d="M-43.35 -3.85 L-43.35 -2.9 -47.05 -2.9 -47.05 -3.85 -43.35 -3.85" fill="#c26721" fill-rule="evenodd" stroke="none"/>
      <path d="M-47.05 -4.9 L-43.35 -4.9 -43.35 -3.85 -47.05 -3.85 -47.05 -4.9" fill="#c88a1f" fill-rule="evenodd" stroke="none"/>
      <path d="M-55.5 -2.9 L-58.25 -2.9 -58.2 -3.85 -58.25 -4.9 -55.5 -4.9 -53.5 -4.9 -47.05 -4.9 -43.35 -4.9 -43.35 -3.85 -43.35 -2.9 -47.05 -2.9 -53.5 -2.9 -55.5 -2.9 Z" fill="none" stroke="#000000" stroke-linecap="round" stroke-linejoin="round" stroke-opacity="0.3019608" stroke-width="0.2"/>
      <path d="M-45.5 -3.15 L-43.35 0.55 -58.45 0.55 -56.95 -3.15 -45.5 -3.15 M-62.3 0.55 L-60.0 -3.15 -58.25 -3.15 -59.95 0.55 -62.3 0.55" fill="#c5232b" fill-rule="evenodd" stroke="none"/>
      <path d="M-58.25 -3.15 L-56.95 -3.15 -58.45 0.55 -59.95 0.55 -58.25 -3.15 M-56.9 4.2 L-58.45 7.9 -60.0 7.9 -58.15 4.2 -56.9 4.2 M-58.2 11.5 L-56.7 11.5 -58.45 15.2 -60.0 15.2 -58.2 11.5 M-56.75 18.85 L-56.7 18.85 -58.45 22.55 -60.0 22.55 -58.25 18.85 -56.75 18.85" fill="#d72f38" fill-rule="evenodd" stroke="none"/>
      <path d="M-45.5 -3.15 L-42.0 -3.15 -39.7 0.55 -43.35 0.55 -45.5 -3.15 M-41.8 4.15 L-39.4 7.9 -43.3 7.9 -45.4 4.15 -41.8 4.15 M-41.6 11.5 L-39.25 15.2 -43.15 15.2 -43.2 15.2 -45.35 11.5 -41.6 11.5 M-41.45 18.8 L-38.95 22.55 -43.1 22.55 -45.3 18.8 -41.45 18.8" fill="#941218" fill-rule="evenodd" stroke="none"/>
      <path d="M-43.35 0.55 L-39.7 0.55 -41.8 4.15 -45.4 4.15 -43.35 0.55 M-39.4 7.9 L-41.6 11.5 -45.35 11.5 -43.3 7.9 -39.4 7.9 M-39.25 15.2 L-41.45 18.8 -45.3 18.8 -43.15 15.2 -39.25 15.2 M-38.95 22.55 L-41.2 26.15 -45.2 26.15 -43.1 22.55 -38.95 22.55" fill="#790c11" fill-rule="evenodd" stroke="none"/>
      <path d="M-60.1 4.2 L-62.3 0.55 -59.95 0.55 -58.15 4.2 -60.1 4.2 M-43.35 0.55 L-45.4 4.15 -56.9 4.2 -58.45 0.55 -43.35 0.55" fill="#941217" fill-rule="evenodd" stroke="none"/>
      <path d="M-62.45 7.9 L-60.1 4.2 -58.15 4.2 -60.0 7.9 -60.05 7.9 -62.45 7.9 M-45.4 4.15 L-43.3 7.9 -58.45 7.9 -56.9 4.2 -45.4 4.15" fill="#c3222a" fill-rule="evenodd" stroke="none"/>
      <path d="M-60.2 11.5 L-60.25 11.5 -62.45 7.9 -60.05 7.9 -58.25 11.5 -60.2 11.5 M-43.3 7.9 L-45.35 11.5 -56.7 11.5 -58.45 7.9 -43.3 7.9" fill="#8c1016" fill-rule="evenodd" stroke="none"/>
      <path d="M-56.75 26.2 L-58.25 26.2 -60.0 22.55 -58.45 22.55 -56.75 26.2 M-58.15 4.2 L-59.95 0.55 -58.45 0.55 -56.9 4.2 -58.15 4.2 M-60.0 7.9 L-58.45 7.9 -56.7 11.5 -58.2 11.5 -58.25 11.5 -60.05 7.9 -60.0 7.9 M-60.0 15.2 L-58.45 15.2 -56.75 18.85 -58.25 18.85 -60.0 15.2" fill="#ac181e" fill-rule="evenodd" stroke="none"/>
      <path d="M-62.55 15.2 L-60.2 11.5 -58.25 11.5 -58.2 11.5 -60.0 15.2 -62.55 15.2 M-45.35 11.5 L-43.2 15.2 -58.45 15.2 -56.7 11.5 -45.35 11.5" fill="#af1f26" fill-rule="evenodd" stroke="none"/>
      <path d="M-62.7 22.55 L-60.3 18.85 -58.25 18.85 -60.0 22.55 -62.7 22.55 M-56.7 18.85 L-45.3 18.8 -43.1 22.55 -58.45 22.55 -56.7 18.85" fill="#961a21" fill-rule="evenodd" stroke="none"/>
      <path d="M-60.3 18.85 L-62.55 15.2 -60.0 15.2 -58.25 18.85 -60.3 18.85 M-43.2 15.2 L-43.15 15.2 -45.3 18.8 -56.7 18.85 -56.75 18.85 -58.45 15.2 -43.2 15.2" fill="#7a0e13" fill-rule="evenodd" stroke="none"/>
      <path d="M-45.2 26.15 L-56.75 26.2 -58.45 22.55 -43.1 22.55 -45.2 26.15 M-58.25 26.2 L-60.4 26.2 -62.7 22.55 -60.0 22.55 -58.25 26.2" fill="#680c10" fill-rule="evenodd" stroke="none"/>
      <path d="M-39.7 0.55 L-42.0 -3.15 -45.5 -3.15 M-39.7 0.55 L-41.8 4.15 -39.4 7.9 -41.6 11.5 -39.25 15.2 -41.45 18.8 -38.95 22.55 -41.2 26.15 -45.2 26.15 -56.75 26.2 -58.25 26.2 -60.4 26.2 -62.7 22.55 -60.3 18.85 -62.55 15.2 -60.2 11.5 -60.25 11.5 -62.45 7.9 -60.1 4.2 -62.3 0.55 -60.0 -3.15 -58.25 -3.15 -56.95 -3.15 -45.5 -3.15 M-45.4 4.15 L-41.8 4.15 M-45.35 11.5 L-41.6 11.5 M-45.4 4.15 L-56.9 4.2 M-56.7 11.5 L-45.35 11.5 M-60.1 4.2 L-58.15 4.2 M-60.2 11.5 L-58.25 11.5 M-56.75 18.85 L-56.7 18.85 -45.3 18.8 -41.45 18.8 M-60.3 18.85 L-58.25 18.85" fill="none" stroke="#000000" stroke-linecap="round" stroke-linejoin="round" stroke-opacity="0.3019608" stroke-width="0.2"/>
      <path d="M-0.8 2.55 L-1.0 2.25 -1.25 1.9 -1.5 0.55 Q-1.5 -0.5 -1.0 -1.2 -0.5 -1.9 0.15 -1.9 0.85 -1.9 1.3 -1.2 1.85 -0.5 1.85 0.55 1.85 1.55 1.3 2.25 L1.15 2.55 -0.8 2.55 M1.0 -0.6 L0.95 -0.8 Q0.6 -1.3 0.15 -1.3 -0.3 -1.3 -0.65 -0.8 L-1.0 0.55 Q-1.0 1.3 -0.65 1.8 L0.15 2.35 0.95 1.8 1.15 1.35 1.25 0.55 1.0 -0.6" fill="#fac733" fill-rule="evenodd" stroke="none"/>
      <path d="M-0.8 2.55 L1.15 2.55 1.0 2.65 Q2.35 3.1 3.55 4.9 L2.2 4.9 Q0.2 1.9 -2.2 4.9 L-3.6 4.9 Q-2.1 3.05 -0.7 2.65 L-0.8 2.55" fill="#c88a1f" fill-rule="evenodd" stroke="none"/>
      <path d="M1.15 2.55 L1.3 2.25 Q1.85 1.55 1.85 0.55 1.85 -0.5 1.3 -1.2 0.85 -1.9 0.15 -1.9 -0.5 -1.9 -1.0 -1.2 -1.5 -0.5 -1.5 0.55 L-1.25 1.9 -1.0 2.25 -0.8 2.55 M1.15 2.55 L1.0 2.65 Q2.35 3.1 3.55 4.9 L2.2 4.9 Q0.2 1.9 -2.2 4.9 L-3.6 4.9 Q-2.1 3.05 -0.7 2.65 L-0.8 2.55 M1.0 -0.6 L1.25 0.55 1.15 1.35 0.95 1.8 0.15 2.35 -0.65 1.8 Q-1.0 1.3 -1.0 0.55 L-0.65 -0.8 Q-0.3 -1.3 0.15 -1.3 0.6 -1.3 0.95 -0.8 L1.0 -0.6" fill="none" stroke="#000000" stroke-linecap="round" stroke-linejoin="round" stroke-opacity="0.3019608" stroke-width="0.2"/>
      <path d="M16.35 49.3 Q9.25 57.15 -0.7 57.15 -10.7 57.15 -17.8 49.3 -24.85 41.35 -24.85 30.1 -24.85 18.9 -17.8 10.95 -10.7 3.05 -0.7 3.05 9.25 3.05 16.35 10.95 23.45 18.9 23.45 30.1 23.45 41.35 16.35 49.3" fill="url(#decoration213-gradient1)" fill-rule="evenodd" stroke="none"/>
      <path d="M0.35 37.3 L0.35 33.45 1.05 33.45 1.05 37.3 0.35 37.3 M2.05 37.3 L2.05 32.35 2.75 32.35 2.75 37.3 2.05 37.3 M4.25 37.3 L4.25 33.45 4.95 33.45 4.95 37.3 4.25 37.3 M-7.15 37.3 L-7.15 33.45 -6.45 33.45 -6.45 37.3 -7.15 37.3 M-3.35 37.3 L-3.35 33.45 -2.65 33.45 -2.65 37.3 -3.35 37.3 M-5.35 37.3 L-5.35 32.35 -4.65 32.35 -4.65 37.3 -5.35 37.3 M-1.5 37.3 L-1.5 32.35 -0.8 32.35 -0.8 37.3 -1.5 37.3" fill="#c88a1f" fill-rule="evenodd" stroke="none"/>
      <path d="M1.05 37.3 L1.05 42.2 0.35 42.2 0.35 37.3 1.05 37.3 M2.75 37.3 L2.75 41.1 2.05 41.1 2.05 37.3 2.75 37.3 M4.95 37.3 L4.95 42.2 4.25 42.2 4.25 37.3 4.95 37.3 M-6.45 37.3 L-6.45 42.2 -7.15 42.2 -7.15 37.3 -6.45 37.3 M-2.65 37.3 L-2.65 42.2 -3.35 42.2 -3.35 37.3 -2.65 37.3 M-4.65 37.3 L-4.65 41.1 -5.35 41.1 -5.35 37.3 -4.65 37.3 M-0.8 37.3 L-0.8 41.1 -1.5 41.1 -1.5 37.3 -0.8 37.3" fill="#fac733" fill-rule="evenodd" stroke="none"/>
      <path d="M0.35 37.3 L0.35 33.45 1.05 33.45 1.05 37.3 1.05 42.2 0.35 42.2 0.35 37.3 M2.05 37.3 L2.05 32.35 2.75 32.35 2.75 37.3 2.75 41.1 2.05 41.1 2.05 37.3 M4.25 37.3 L4.25 33.45 4.95 33.45 4.95 37.3 4.95 42.2 4.25 42.2 4.25 37.3 M-7.15 37.3 L-7.15 33.45 -6.45 33.45 -6.45 37.3 -6.45 42.2 -7.15 42.2 -7.15 37.3 M-3.35 37.3 L-3.35 33.45 -2.65 33.45 -2.65 37.3 -2.65 42.2 -3.35 42.2 -3.35 37.3 M-5.35 37.3 L-5.35 32.35 -4.65 32.35 -4.65 37.3 -4.65 41.1 -5.35 41.1 -5.35 37.3 M-1.5 37.3 L-1.5 32.35 -0.8 32.35 -0.8 37.3 -0.8 41.1 -1.5 41.1 -1.5 37.3" fill="none" stroke="#000000" stroke-linecap="round" stroke-linejoin="round" stroke-opacity="0.3019608" stroke-width="0.2"/>
      <path d="M8.4 32.15 L8.4 33.55 4.0 33.55 4.0 32.15 8.4 32.15" fill="#c26721" fill-rule="evenodd" stroke="none"/>
      <path d="M4.0 33.55 L-3.85 33.55 -3.85 32.15 4.0 32.15 4.0 33.55 M-6.25 33.55 L-9.55 33.55 -9.55 32.1 -6.25 32.15 -6.25 33.55" fill="#f2932e" fill-rule="evenodd" stroke="none"/>
      <path d="M4.0 30.55 L8.45 28.95 8.4 32.15 4.0 32.15 4.0 30.55" fill="#c88a1f" fill-rule="evenodd" stroke="none"/>
      <path d="M-9.55 32.1 L-9.5 28.7 -6.25 30.55 -6.25 32.15 -9.55 32.1 M-3.85 30.55 L4.0 30.55 4.0 32.15 -3.85 32.15 -3.85 30.55" fill="#fac733" fill-rule="evenodd" stroke="none"/>
      <path d="M-3.85 33.55 L-6.25 33.55 -6.25 32.15 -3.85 32.15 -3.85 33.55" fill="#f8d337" fill-rule="evenodd" stroke="none"/>
      <path d="M-6.25 30.55 L-3.85 30.55 -3.85 32.15 -6.25 32.15 -6.25 30.55" fill="#fee83a" fill-rule="evenodd" stroke="none"/>
      <path d="M4.0 30.55 L8.45 28.95 8.4 32.15 8.4 33.55 4.0 33.55 -3.85 33.55 -6.25 33.55 -9.55 33.55 -9.55 32.1 -9.5 28.7 -6.25 30.55 -3.85 30.55 4.0 30.55 Z" fill="none" stroke="#000000" stroke-linecap="round" stroke-linejoin="round" stroke-opacity="0.3019608" stroke-width="0.2"/>
      <path d="M4.0 4.6 L8.4 4.6 8.4 5.9 4.0 5.9 4.0 4.6" fill="#c88a1f" fill-rule="evenodd" stroke="none"/>
      <path d="M8.4 5.9 L8.4 9.0 4.0 7.0 4.0 5.9 8.4 5.9" fill="#c26721" fill-rule="evenodd" stroke="none"/>
      <path d="M4.0 7.0 L-3.85 7.0 -3.85 5.9 4.0 5.9 4.0 7.0 M-6.25 7.0 L-9.7 9.3 -9.55 5.9 -6.25 5.9 -6.25 7.0" fill="#f2932e" fill-rule="evenodd" stroke="none"/>
      <path d="M-9.55 5.9 L-9.55 4.6 -6.25 4.6 -6.25 5.9 -9.55 5.9 M-3.85 4.6 L4.0 4.6 4.0 5.9 -3.85 5.9 -3.85 4.6" fill="#fac733" fill-rule="evenodd" stroke="none"/>
      <path d="M-6.25 4.6 L-3.85 4.6 -3.85 5.9 -6.25 5.9 -6.25 4.6" fill="#fee83a" fill-rule="evenodd" stroke="none"/>
      <path d="M-3.85 7.0 L-6.25 7.0 -6.25 5.9 -3.85 5.9 -3.85 7.0" fill="#f8d337" fill-rule="evenodd" stroke="none"/>
      <path d="M4.0 4.6 L8.4 4.6 8.4 5.9 8.4 9.0 4.0 7.0 -3.85 7.0 -6.25 7.0 -9.7 9.3 -9.55 5.9 -9.55 4.6 -6.25 4.6 -3.85 4.6 4.0 4.6 Z" fill="none" stroke="#000000" stroke-linecap="round" stroke-linejoin="round" stroke-opacity="0.3019608" stroke-width="0.2"/>
      <path d="M10.85 9.45 Q18.9 18.1 11.35 28.85 9.25 29.9 6.9 30.55 9.0 25.55 9.6 21.2 12.25 16.7 10.85 9.45 M14.25 27.1 Q19.3 16.7 12.1 9.25 L13.3 9.95 Q19.0 13.65 19.0 18.85 19.0 23.6 14.25 27.1 M7.8 23.5 Q6.95 27.1 4.9 31.0 L1.9 31.35 3.4 26.45 Q6.05 25.25 7.8 23.5 M1.7 27.05 L0.3 31.4 -1.4 31.4 -2.5 28.1 1.7 27.05 M-6.95 28.6 L-6.4 28.55 -4.1 28.35 -2.95 31.35 -5.35 31.05 -6.95 28.6 M-8.7 28.7 L-7.7 30.6 -11.25 29.4 -11.95 28.7 -8.8 28.7 -8.7 28.7" fill="#a11c22" fill-rule="evenodd" stroke="none"/>
      <path d="M10.85 9.45 L10.65 8.5 12.1 9.25 Q19.3 16.7 14.25 27.1 L12.95 27.95 11.35 28.85 Q18.9 18.1 10.85 9.45 M9.6 21.2 Q9.0 25.55 6.9 30.55 L4.9 31.0 Q6.95 27.1 7.8 23.5 L9.6 21.2 M3.4 26.45 L1.9 31.35 0.3 31.4 1.7 27.05 3.4 26.45 M-4.1 28.35 L-2.5 28.1 -1.4 31.4 -2.95 31.35 -4.1 28.35 M-6.95 28.55 L-6.95 28.6 -5.35 31.05 -7.7 30.6 -8.7 28.7 -6.95 28.55 M-12.75 28.65 L-11.95 28.7 -11.25 29.4 -12.75 28.65" fill="#5d0814" fill-rule="evenodd" stroke="none"/>
      <path d="M10.65 8.5 L10.85 9.45 9.3 7.95 10.65 8.5 M4.05 6.6 L6.1 7.05 Q10.7 12.9 9.6 21.2 L7.8 23.5 Q8.5 20.65 8.4 17.95 8.25 11.8 4.05 6.6 M0.75 6.3 L2.25 6.4 Q5.55 16.85 3.4 26.45 L1.7 27.05 Q4.2 17.2 0.75 6.3 M-1.65 6.3 Q-4.0 12.35 -3.95 18.65 -3.9 23.35 -2.5 28.1 L-4.1 28.35 Q-5.4 24.25 -5.45 19.65 -5.5 13.4 -3.2 6.4 L-1.65 6.3 M-6.9 6.95 L-5.15 6.65 Q-9.55 12.75 -9.6 18.95 -9.6 23.8 -6.95 28.55 L-8.7 28.7 Q-14.4 17.15 -6.9 6.95 M-14.45 10.05 L-13.15 9.3 -10.9 8.15 Q-20.8 19.4 -11.95 28.7 L-12.75 28.65 -14.55 27.6 Q-20.4 19.25 -14.45 10.05" fill="#850b1d" fill-rule="evenodd" stroke="none"/>
      <path d="M9.3 7.95 L10.85 9.45 Q12.25 16.7 9.6 21.2 10.7 12.9 6.1 7.05 7.5 7.35 9.3 7.95 M2.25 6.4 L4.05 6.6 Q8.25 11.8 8.4 17.95 8.5 20.65 7.8 23.5 6.05 25.25 3.4 26.45 5.55 16.85 2.25 6.4 M0.75 6.3 Q4.2 17.2 1.7 27.05 L-2.5 28.1 Q-3.9 23.35 -3.95 18.65 -4.0 12.35 -1.65 6.3 L0.75 6.3 M-5.15 6.65 L-3.2 6.4 Q-5.5 13.4 -5.45 19.65 -5.4 24.25 -4.1 28.35 L-6.4 28.55 -6.95 28.6 -6.95 28.55 Q-9.6 23.8 -9.6 18.95 -9.55 12.75 -5.15 6.65 M-10.9 8.15 Q-9.0 7.4 -6.9 6.95 -14.4 17.15 -8.7 28.7 L-8.8 28.7 -11.95 28.7 Q-20.8 19.4 -10.9 8.15 M-14.55 27.6 Q-20.05 23.95 -20.05 18.85 -20.05 13.7 -14.45 10.05 -20.4 19.25 -14.55 27.6" fill="#c5232b" fill-rule="evenodd" stroke="none"/>
      <path d="M11.35 28.85 L12.95 27.95 14.25 27.1 M12.1 9.25 L10.65 8.5 9.3 7.95 M6.9 30.55 Q9.25 29.9 11.35 28.85 M12.1 9.25 L13.3 9.95 Q19.0 13.65 19.0 18.85 19.0 23.6 14.25 27.1 M6.1 7.05 Q7.5 7.35 9.3 7.95 M4.05 6.6 L6.1 7.05 M4.9 31.0 L6.9 30.55 M2.25 6.4 L4.05 6.6 M1.9 31.35 L4.9 31.0 M0.75 6.3 L2.25 6.4 M0.3 31.4 L1.9 31.35 M0.75 6.3 L-1.65 6.3 M-3.2 6.4 L-1.65 6.3 M-5.15 6.65 L-3.2 6.4 M-1.4 31.4 L0.3 31.4 M-6.9 6.95 L-5.15 6.65 M-2.95 31.35 L-1.4 31.4 M-14.45 10.05 L-13.15 9.3 -10.9 8.15 Q-9.0 7.4 -6.9 6.95 M-14.55 27.6 Q-20.05 23.95 -20.05 18.85 -20.05 13.7 -14.45 10.05 M-14.55 27.6 L-12.75 28.65 M-7.7 30.6 L-5.35 31.05 M-11.25 29.4 L-7.7 30.6 M-2.95 31.35 L-5.35 31.05 M-11.25 29.4 L-12.75 28.65" fill="none" stroke="#000000" stroke-linecap="round" stroke-linejoin="round" stroke-opacity="0.3019608" stroke-width="0.2"/>
      <path d="M-89.3 -24.6 L-89.5 -24.9 -89.7 -25.2 -89.95 -26.6 Q-89.95 -27.65 -89.5 -28.35 -89.0 -29.05 -88.3 -29.05 -87.65 -29.05 -87.2 -28.35 -86.65 -27.65 -86.65 -26.6 -86.65 -25.55 -87.2 -24.9 L-87.35 -24.6 -89.3 -24.6 M-87.55 -27.9 Q-87.9 -28.45 -88.3 -28.45 -88.8 -28.45 -89.1 -27.9 -89.45 -27.35 -89.45 -26.6 -89.45 -25.8 -89.1 -25.3 -88.8 -24.75 -88.3 -24.75 -87.9 -24.75 -87.55 -25.3 L-87.3 -25.8 -87.2 -26.6 Q-87.2 -27.25 -87.45 -27.7 L-87.55 -27.9" fill="#fac733" fill-rule="evenodd" stroke="none"/>
      <path d="M-89.3 -24.6 L-87.35 -24.6 -87.45 -24.45 Q-86.1 -24.05 -84.9 -22.25 L-86.3 -22.25 Q-88.25 -25.2 -90.7 -22.25 L-92.05 -22.25 Q-90.55 -24.1 -89.15 -24.45 L-89.3 -24.6" fill="#c88a1f" fill-rule="evenodd" stroke="none"/>
      <path d="M-87.35 -24.6 L-87.2 -24.9 Q-86.65 -25.55 -86.65 -26.6 -86.65 -27.65 -87.2 -28.35 -87.65 -29.05 -88.3 -29.05 -89.0 -29.05 -89.5 -28.35 -89.95 -27.65 -89.95 -26.6 L-89.7 -25.2 -89.5 -24.9 -89.3 -24.6 M-87.35 -24.6 L-87.45 -24.45 Q-86.1 -24.05 -84.9 -22.25 L-86.3 -22.25 Q-88.25 -25.2 -90.7 -22.25 L-92.05 -22.25 Q-90.55 -24.1 -89.15 -24.45 L-89.3 -24.6 M-87.55 -27.9 L-87.45 -27.7 Q-87.2 -27.25 -87.2 -26.6 L-87.3 -25.8 -87.55 -25.3 Q-87.9 -24.75 -88.3 -24.75 -88.8 -24.75 -89.1 -25.3 -89.45 -25.8 -89.45 -26.6 -89.45 -27.35 -89.1 -27.9 -88.8 -28.45 -88.3 -28.45 -87.9 -28.45 -87.55 -27.9" fill="none" stroke="#000000" stroke-linecap="round" stroke-linejoin="round" stroke-opacity="0.3019608" stroke-width="0.2"/>
      <path d="M-89.15 -24.1 Q-79.2 -24.1 -72.1 -16.2 -65.05 -8.2 -65.05 2.95 -65.05 14.2 -72.1 22.15 -79.2 30.0 -89.15 30.0 -99.15 30.0 -106.25 22.15 -113.35 14.2 -113.35 2.95 -113.35 -8.2 -106.25 -16.2 -99.15 -24.1 -89.15 -24.1" fill="url(#decoration213-gradient2)" fill-rule="evenodd" stroke="none"/>
      <path d="M-89.95 10.2 L-89.95 5.2 -89.25 5.2 -89.25 10.2 -89.95 10.2 M-88.15 10.2 L-88.15 6.35 -87.45 6.35 -87.45 10.2 -88.15 10.2 M-84.2 10.2 L-84.2 6.35 -83.5 6.35 -83.5 10.2 -84.2 10.2 M-86.4 10.2 L-86.4 5.2 -85.7 5.2 -85.7 10.2 -86.4 10.2 M-93.85 10.2 L-93.85 5.2 -93.15 5.2 -93.15 10.2 -93.85 10.2 M-91.8 10.2 L-91.8 6.35 -91.15 6.35 -91.15 10.2 -91.8 10.2 M-95.6 10.2 L-95.6 6.35 -94.95 6.35 -94.95 10.2 -95.6 10.2" fill="#c88a1f" fill-rule="evenodd" stroke="none"/>
      <path d="M-89.25 10.2 L-89.25 13.95 -89.95 13.95 -89.95 10.2 -89.25 10.2 M-87.45 10.2 L-87.45 15.05 -88.15 15.05 -88.15 10.2 -87.45 10.2 M-83.5 10.2 L-83.5 15.05 -84.2 15.05 -84.2 10.2 -83.5 10.2 M-85.7 10.2 L-85.7 13.95 -86.4 13.95 -86.4 10.2 -85.7 10.2 M-93.15 10.2 L-93.15 13.95 -93.85 13.95 -93.85 10.2 -93.15 10.2 M-91.15 10.2 L-91.15 15.05 -91.8 15.05 -91.8 10.2 -91.15 10.2 M-94.95 10.2 L-94.95 15.05 -95.6 15.05 -95.6 10.2 -94.95 10.2" fill="#fac733" fill-rule="evenodd" stroke="none"/>
      <path d="M-89.95 10.2 L-89.95 5.2 -89.25 5.2 -89.25 10.2 -89.25 13.95 -89.95 13.95 -89.95 10.2 M-88.15 10.2 L-88.15 6.35 -87.45 6.35 -87.45 10.2 -87.45 15.05 -88.15 15.05 -88.15 10.2 M-84.2 10.2 L-84.2 6.35 -83.5 6.35 -83.5 10.2 -83.5 15.05 -84.2 15.05 -84.2 10.2 M-86.4 10.2 L-86.4 5.2 -85.7 5.2 -85.7 10.2 -85.7 13.95 -86.4 13.95 -86.4 10.2 M-93.85 10.2 L-93.85 5.2 -93.15 5.2 -93.15 10.2 -93.15 13.95 -93.85 13.95 -93.85 10.2 M-91.8 10.2 L-91.8 6.35 -91.15 6.35 -91.15 10.2 -91.15 15.05 -91.8 15.05 -91.8 10.2 M-95.6 10.2 L-95.6 6.35 -94.95 6.35 -94.95 10.2 -94.95 15.05 -95.6 15.05 -95.6 10.2" fill="none" stroke="#000000" stroke-linecap="round" stroke-linejoin="round" stroke-opacity="0.3019608" stroke-width="0.2"/>
      <path d="M-80.05 5.05 L-80.05 6.4 -84.5 6.4 -84.5 5.05 -80.05 5.05" fill="#c26721" fill-rule="evenodd" stroke="none"/>
      <path d="M-84.5 3.4 L-80.0 1.8 -80.05 5.05 -84.5 5.05 -84.5 3.4" fill="#c88a1f" fill-rule="evenodd" stroke="none"/>
      <path d="M-84.5 6.4 L-92.35 6.4 -92.35 5.0 -84.5 5.05 -84.5 6.4 M-94.75 6.4 L-98.05 6.4 -98.0 5.0 -94.75 5.0 -94.75 6.4" fill="#f2932e" fill-rule="evenodd" stroke="none"/>
      <path d="M-98.0 5.0 L-98.0 1.55 -94.75 3.4 -94.75 5.0 -98.0 5.0 M-92.35 3.4 L-84.5 3.4 -84.5 5.05 -92.35 5.0 -92.35 3.4" fill="#fac733" fill-rule="evenodd" stroke="none"/>
      <path d="M-94.75 3.4 L-92.35 3.4 -92.35 5.0 -94.75 5.0 -94.75 3.4" fill="#fee83a" fill-rule="evenodd" stroke="none"/>
      <path d="M-92.35 6.4 L-94.75 6.4 -94.75 5.0 -92.35 5.0 -92.35 6.4" fill="#f8d337" fill-rule="evenodd" stroke="none"/>
      <path d="M-84.5 3.4 L-80.0 1.8 -80.05 5.05 -80.05 6.4 -84.5 6.4 -92.35 6.4 -94.75 6.4 -98.05 6.4 -98.0 5.0 -98.0 1.55 -94.75 3.4 -92.35 3.4 -84.5 3.4 Z" fill="none" stroke="#000000" stroke-linecap="round" stroke-linejoin="round" stroke-opacity="0.3019608" stroke-width="0.2"/>
      <path d="M-84.5 -21.25 L-80.05 -21.25 -80.1 -18.15 -84.5 -20.1 -84.5 -21.25" fill="#c26721" fill-rule="evenodd" stroke="none"/>
      <path d="M-92.35 -21.25 L-84.5 -21.25 -84.5 -20.1 -92.35 -20.1 -92.35 -21.25 M-94.75 -21.25 L-94.75 -20.1 -98.15 -17.85 -98.0 -21.25 -94.75 -21.25" fill="#f2932e" fill-rule="evenodd" stroke="none"/>
      <path d="M-84.5 -22.5 L-84.5 -21.25 -92.35 -21.25 -92.35 -22.5 -84.5 -22.5 M-94.75 -22.5 L-94.75 -21.25 -98.0 -21.25 -98.05 -22.5 -94.75 -22.5" fill="#fac733" fill-rule="evenodd" stroke="none"/>
      <path d="M-84.5 -21.25 L-84.5 -22.5 -80.05 -22.5 -80.05 -21.25 -84.5 -21.25" fill="#c88a1f" fill-rule="evenodd" stroke="none"/>
      <path d="M-92.35 -22.5 L-92.35 -21.25 -94.75 -21.25 -94.75 -22.5 -92.35 -22.5" fill="#fee83a" fill-rule="evenodd" stroke="none"/>
      <path d="M-92.35 -21.25 L-92.35 -20.1 -94.75 -20.1 -94.75 -21.25 -92.35 -21.25" fill="#f8d337" fill-rule="evenodd" stroke="none"/>
      <path d="M-84.5 -22.5 L-92.35 -22.5 M-80.05 -21.25 L-80.05 -22.5 -84.5 -22.5 M-84.5 -20.1 L-80.1 -18.15 -80.05 -21.25 M-94.75 -20.1 L-92.35 -20.1 -84.5 -20.1 M-98.0 -21.25 L-98.15 -17.85 -94.75 -20.1 M-94.75 -22.5 L-92.35 -22.5 M-98.0 -21.25 L-98.05 -22.5 -94.75 -22.5" fill="none" stroke="#000000" stroke-linecap="round" stroke-linejoin="round" stroke-opacity="0.3019608" stroke-width="0.2"/>
      <path d="M-103.05 0.45 Q-108.5 -3.2 -108.5 -8.3 -108.5 -13.45 -102.9 -17.1 -108.9 -7.9 -103.05 0.45 M-99.35 -19.0 L-95.35 -20.2 Q-102.9 -9.95 -97.2 1.55 L-97.3 1.55 -100.45 1.55 Q-109.25 -7.75 -99.35 -19.0 M-93.65 -20.5 L-91.7 -20.75 Q-93.95 -13.75 -93.95 -7.45 -93.9 -2.9 -92.6 1.25 L-94.9 1.45 -95.4 1.5 -95.4 1.45 Q-98.1 -3.3 -98.05 -8.2 -98.0 -14.4 -93.65 -20.5 M-90.15 -20.85 L-87.75 -20.85 Q-84.3 -9.9 -86.75 -0.05 L-91.0 1.0 Q-92.35 -3.8 -92.4 -8.5 -92.45 -14.8 -90.15 -20.85 M-86.25 -20.75 L-84.45 -20.55 Q-80.25 -15.35 -80.1 -9.15 -80.0 -6.5 -80.7 -3.6 -82.45 -1.9 -85.1 -0.7 -82.95 -10.3 -86.25 -20.75 M-82.35 -20.1 L-79.15 -19.2 -77.65 -17.7 Q-76.25 -10.45 -78.9 -5.9 -77.8 -14.25 -82.35 -20.1" fill="#c5232b" fill-rule="evenodd" stroke="none"/>
      <path d="M-102.9 -17.1 L-101.6 -17.85 -99.35 -19.0 Q-109.25 -7.75 -100.45 1.55 L-101.25 1.55 -103.05 0.45 Q-108.9 -7.9 -102.9 -17.1 M-95.35 -20.2 L-93.65 -20.5 Q-98.0 -14.4 -98.05 -8.2 -98.1 -3.3 -95.4 1.45 L-97.2 1.55 Q-102.9 -9.95 -95.35 -20.2 M-91.7 -20.75 L-90.15 -20.85 Q-92.45 -14.8 -92.4 -8.5 -92.35 -3.8 -91.0 1.0 L-92.6 1.25 Q-93.9 -2.9 -93.95 -7.45 -93.95 -13.75 -91.7 -20.75 M-87.75 -20.85 L-86.25 -20.75 Q-82.95 -10.3 -85.1 -0.7 L-86.75 -0.05 Q-84.3 -9.9 -87.75 -20.85 M-84.45 -20.55 L-82.35 -20.1 Q-77.8 -14.25 -78.9 -5.9 L-80.7 -3.6 Q-80.0 -6.5 -80.1 -9.15 -80.25 -15.35 -84.45 -20.55 M-79.15 -19.2 L-77.8 -18.65 -77.65 -17.7 -79.15 -19.2" fill="#850b1d" fill-rule="evenodd" stroke="none"/>
      <path d="M-77.8 -18.65 L-76.4 -17.9 Q-69.2 -10.45 -74.2 -0.05 L-75.55 0.8 -77.1 1.75 Q-69.6 -9.0 -77.65 -17.7 L-77.8 -18.65 M-81.55 3.4 L-83.6 3.85 Q-81.5 -0.05 -80.7 -3.6 L-78.9 -5.9 Q-79.45 -1.6 -81.55 3.4 M-86.6 4.25 L-88.2 4.25 -86.75 -0.05 -85.1 -0.7 Q-85.65 1.8 -86.6 4.25 M-89.9 4.25 L-91.45 4.25 -92.6 1.25 -91.0 1.0 -89.9 4.25 M-93.85 3.95 L-96.15 3.45 -97.2 1.55 -95.4 1.45 -95.4 1.5 -93.85 3.95 M-99.7 2.25 L-101.25 1.55 -100.45 1.55 -99.7 2.25" fill="#5d0814" fill-rule="evenodd" stroke="none"/>
      <path d="M-76.4 -17.9 L-75.2 -17.15 Q-69.45 -13.5 -69.45 -8.3 -69.45 -3.55 -74.2 -0.05 -69.2 -10.45 -76.4 -17.9 M-77.1 1.75 Q-79.2 2.75 -81.55 3.4 -79.45 -1.6 -78.9 -5.9 -76.25 -10.45 -77.65 -17.7 -69.6 -9.0 -77.1 1.75 M-83.6 3.85 L-86.6 4.25 Q-85.65 1.8 -85.1 -0.7 -82.45 -1.9 -80.7 -3.6 -81.5 -0.05 -83.6 3.85 M-88.2 4.25 L-89.9 4.25 -91.0 1.0 -86.75 -0.05 -88.2 4.25 M-91.45 4.25 L-93.85 3.95 -95.4 1.5 -94.9 1.45 -92.6 1.25 -91.45 4.25 M-96.15 3.45 L-99.7 2.25 -100.45 1.55 -97.3 1.55 -97.2 1.55 -96.15 3.45" fill="#a11c22" fill-rule="evenodd" stroke="none"/>
      <path d="M-103.05 0.45 Q-108.5 -3.2 -108.5 -8.3 -108.5 -13.45 -102.9 -17.1 L-101.6 -17.85 -99.35 -19.0 -95.35 -20.2 -93.65 -20.5 -91.7 -20.75 -90.15 -20.85 -87.75 -20.85 -86.25 -20.75 -84.45 -20.55 -82.35 -20.1 -79.15 -19.2 -77.8 -18.65 -76.4 -17.9 -75.2 -17.15 Q-69.45 -13.5 -69.45 -8.3 -69.45 -3.55 -74.2 -0.05 L-75.55 0.8 -77.1 1.75 Q-79.2 2.75 -81.55 3.4 L-83.6 3.85 -86.6 4.25 -88.2 4.25 -89.9 4.25 -91.45 4.25 -93.85 3.95 -96.15 3.45 -99.7 2.25 -101.25 1.55 -103.05 0.45 Z" fill="none" stroke="#000000" stroke-linecap="round" stroke-linejoin="round" stroke-opacity="0.3019608" stroke-width="0.2"/>
      <path d="M42.45 -2.45 L42.25 -2.7 42.05 -2.95 41.85 -4.1 Q41.85 -4.95 42.25 -5.55 42.65 -6.15 43.25 -6.15 43.8 -6.15 44.15 -5.55 44.6 -4.95 44.6 -4.1 44.6 -3.25 44.15 -2.7 L44.05 -2.45 42.45 -2.45 M44.1 -4.1 L43.9 -5.05 43.85 -5.15 43.25 -5.6 Q42.85 -5.6 42.55 -5.15 42.25 -4.7 42.25 -4.1 42.25 -3.45 42.55 -3.0 L43.25 -2.6 43.85 -3.0 44.05 -3.45 44.1 -4.1" fill="#fac733" fill-rule="evenodd" stroke="none"/>
      <path d="M42.45 -2.45 L44.05 -2.45 43.9 -2.35 Q45.0 -1.95 46.05 -0.5 L44.9 -0.5 Q43.25 -2.95 41.25 -0.5 L40.1 -0.5 Q41.35 -2.0 42.5 -2.35 L42.45 -2.45" fill="#c88a1f" fill-rule="evenodd" stroke="none"/>
      <path d="M44.05 -2.45 L44.15 -2.7 Q44.6 -3.25 44.6 -4.1 44.6 -4.95 44.15 -5.55 43.8 -6.15 43.25 -6.15 42.65 -6.15 42.25 -5.55 41.85 -4.95 41.85 -4.1 L42.05 -2.95 42.25 -2.7 42.45 -2.45 M44.05 -2.45 L43.9 -2.35 Q45.0 -1.95 46.05 -0.5 L44.9 -0.5 Q43.25 -2.95 41.25 -0.5 L40.1 -0.5 Q41.35 -2.0 42.5 -2.35 L42.45 -2.45 M44.1 -4.1 L44.05 -3.45 43.85 -3.0 43.25 -2.6 42.55 -3.0 Q42.25 -3.45 42.25 -4.1 42.25 -4.7 42.55 -5.15 42.85 -5.6 43.25 -5.6 L43.85 -5.15 43.9 -5.05 44.1 -4.1" fill="none" stroke="#000000" stroke-linecap="round" stroke-linejoin="round" stroke-opacity="0.3019608" stroke-width="0.2"/>
      <path d="M56.25 34.5 Q50.4 41.0 42.15 41.0 33.9 41.0 28.05 34.5 22.15 27.9 22.15 18.65 22.15 9.35 28.05 2.75 33.9 -3.75 42.15 -3.75 50.4 -3.75 56.25 2.75 62.1 9.35 62.1 18.65 62.1 27.9 56.25 34.5" fill="url(#decoration213-gradient3)" fill-rule="evenodd" stroke="none"/>
      <path d="M44.05 35.25 L44.05 32.05 44.6 32.05 44.6 35.25 44.05 35.25 M40.95 35.25 L40.95 32.05 41.55 32.05 41.55 35.25 40.95 35.25 M43.1 35.25 L42.5 35.25 42.5 31.1 43.1 31.1 43.1 35.25 M45.4 35.25 L45.4 31.1 46.0 31.1 46.0 35.25 45.4 35.25 M47.3 35.25 L47.3 32.05 47.85 32.05 47.85 35.25 47.3 35.25 M39.3 35.25 L39.3 31.1 39.9 31.1 39.9 35.25 39.3 35.25 M37.85 35.25 L37.85 32.05 38.4 32.05 38.4 35.25 37.85 35.25" fill="#c88a1f" fill-rule="evenodd" stroke="none"/>
      <path d="M44.6 35.25 L44.6 39.25 44.05 39.25 44.05 35.25 44.6 35.25 M41.55 35.25 L41.55 39.25 40.95 39.25 40.95 35.25 41.55 35.25 M42.5 35.25 L43.1 35.25 43.1 38.35 42.5 38.35 42.5 35.25 M46.0 35.25 L46.0 38.35 45.4 38.35 45.4 35.25 46.0 35.25 M47.85 35.25 L47.85 39.25 47.3 39.25 47.3 35.25 47.85 35.25 M39.9 35.25 L39.9 38.35 39.3 38.35 39.3 35.25 39.9 35.25 M38.4 35.25 L38.4 39.25 37.85 39.25 37.85 35.25 38.4 35.25" fill="#fac733" fill-rule="evenodd" stroke="none"/>
      <path d="M44.05 35.25 L44.05 32.05 44.6 32.05 44.6 35.25 44.6 39.25 44.05 39.25 44.05 35.25 M40.95 35.25 L40.95 32.05 41.55 32.05 41.55 35.25 41.55 39.25 40.95 39.25 40.95 35.25 M43.1 35.25 L43.1 31.1 42.5 31.1 42.5 35.25 42.5 38.35 43.1 38.35 43.1 35.25 M45.4 35.25 L45.4 31.1 46.0 31.1 46.0 35.25 46.0 38.35 45.4 38.35 45.4 35.25 M47.3 35.25 L47.3 32.05 47.85 32.05 47.85 35.25 47.85 39.25 47.3 39.25 47.3 35.25 M39.3 35.25 L39.3 31.1 39.9 31.1 39.9 35.25 39.9 38.35 39.3 38.35 39.3 35.25 M37.85 35.25 L37.85 32.05 38.4 32.05 38.4 35.25 38.4 39.25 37.85 39.25 37.85 35.25" fill="none" stroke="#000000" stroke-linecap="round" stroke-linejoin="round" stroke-opacity="0.3019608" stroke-width="0.2"/>
      <path d="M35.5 31.45 L35.45 30.4 38.25 30.4 38.25 31.45 35.5 31.45 M40.2 30.4 L46.7 30.4 46.7 31.45 40.2 31.45 40.2 30.4" fill="#fac733" fill-rule="evenodd" stroke="none"/>
      <path d="M46.7 30.4 L50.35 30.4 50.35 31.45 46.7 31.45 46.7 30.4" fill="#c88a1f" fill-rule="evenodd" stroke="none"/>
      <path d="M46.7 32.4 L40.2 32.4 40.2 31.45 46.7 31.45 46.7 32.4 M38.25 32.4 L35.45 32.4 35.5 31.45 38.25 31.45 38.25 32.4" fill="#f2932e" fill-rule="evenodd" stroke="none"/>
      <path d="M50.35 31.45 L50.35 32.4 46.7 32.4 46.7 31.45 50.35 31.45" fill="#c26721" fill-rule="evenodd" stroke="none"/>
      <path d="M38.25 30.4 L40.2 30.4 40.2 31.45 38.25 31.45 38.25 30.4" fill="#fee83a" fill-rule="evenodd" stroke="none"/>
      <path d="M40.2 32.4 L38.25 32.4 38.25 31.45 40.2 31.45 40.2 32.4" fill="#f8d337" fill-rule="evenodd" stroke="none"/>
      <path d="M46.7 30.4 L50.35 30.4 50.35 31.45 50.35 32.4 46.7 32.4 40.2 32.4 38.25 32.4 35.45 32.4 35.5 31.45 35.45 30.4 38.25 30.4 40.2 30.4 46.7 30.4 Z" fill="none" stroke="#000000" stroke-linecap="round" stroke-linejoin="round" stroke-opacity="0.3019608" stroke-width="0.2"/>
      <path d="M38.25 -0.65 L40.2 -0.65 40.2 0.4 38.25 0.4 38.25 -0.65" fill="#fee83a" fill-rule="evenodd" stroke="none"/>
      <path d="M35.5 0.4 L35.45 -0.65 38.25 -0.65 38.25 0.4 35.5 0.4 M40.2 -0.65 L46.7 -0.65 46.7 0.4 40.2 0.4 40.2 -0.65" fill="#fac733" fill-rule="evenodd" stroke="none"/>
      <path d="M46.7 -0.65 L50.35 -0.65 50.35 0.4 46.7 0.4 46.7 -0.65" fill="#c88a1f" fill-rule="evenodd" stroke="none"/>
      <path d="M50.35 0.4 L50.35 1.35 46.7 1.35 46.7 0.4 50.35 0.4" fill="#c26721" fill-rule="evenodd" stroke="none"/>
      <path d="M46.7 1.35 L40.2 1.35 40.2 0.4 46.7 0.4 46.7 1.35 M38.25 1.35 L35.45 1.35 35.5 0.4 38.25 0.4 38.25 1.35" fill="#f2932e" fill-rule="evenodd" stroke="none"/>
      <path d="M40.2 1.35 L38.25 1.35 38.25 0.4 40.2 0.4 40.2 1.35" fill="#f8d337" fill-rule="evenodd" stroke="none"/>
      <path d="M35.5 0.4 L35.45 -0.65 38.25 -0.65 40.2 -0.65 46.7 -0.65 50.35 -0.65 50.35 0.4 50.35 1.35 46.7 1.35 40.2 1.35 38.25 1.35 35.45 1.35 35.5 0.4 Z" fill="none" stroke="#000000" stroke-linecap="round" stroke-linejoin="round" stroke-opacity="0.3019608" stroke-width="0.2"/>
      <path d="M48.2 1.1 L51.7 1.1 54.05 4.8 50.35 4.8 48.2 1.1 M51.9 8.4 L54.3 12.15 50.45 12.15 48.3 8.4 51.9 8.4 M52.1 15.7 L54.5 19.45 50.55 19.45 48.35 15.75 48.4 15.7 52.1 15.7 M52.3 23.05 L54.75 26.75 50.6 26.75 48.4 23.05 52.3 23.05" fill="#941218" fill-rule="evenodd" stroke="none"/>
      <path d="M50.35 4.8 L54.05 4.8 51.9 8.4 48.3 8.4 50.35 4.8 M54.3 12.15 L52.15 15.7 52.1 15.7 48.4 15.7 50.45 12.15 54.3 12.15 M54.5 19.45 L52.3 23.05 48.4 23.05 50.55 19.45 54.5 19.45 M54.75 26.75 L52.5 30.4 48.5 30.4 50.6 26.75 54.75 26.75" fill="#790c11" fill-rule="evenodd" stroke="none"/>
      <path d="M33.6 8.4 L31.4 4.8 33.75 4.8 35.55 8.4 33.6 8.4 M50.35 4.8 L48.3 8.4 36.8 8.4 35.25 4.8 50.35 4.8" fill="#941217" fill-rule="evenodd" stroke="none"/>
      <path d="M31.3 12.15 L33.6 8.4 35.55 8.4 33.7 12.15 31.3 12.15 M48.3 8.4 L50.45 12.15 35.25 12.15 36.8 8.4 48.3 8.4" fill="#c3222a" fill-rule="evenodd" stroke="none"/>
      <path d="M48.2 1.1 L50.35 4.8 35.25 4.8 36.75 1.1 48.2 1.1 M31.4 4.8 L33.7 1.1 35.45 1.1 33.8 4.8 33.75 4.8 31.4 4.8" fill="#c5232b" fill-rule="evenodd" stroke="none"/>
      <path d="M48.4 15.7 L48.35 15.75 48.35 15.7 48.4 15.7" fill="#8f0004" fill-rule="evenodd" stroke="none"/>
      <path d="M31.15 19.45 L33.5 15.75 35.45 15.75 35.5 15.75 33.7 19.45 31.15 19.45 M48.35 15.75 L50.55 19.45 35.25 19.45 37.0 15.75 48.35 15.7 48.35 15.75" fill="#af1f26" fill-rule="evenodd" stroke="none"/>
      <path d="M33.5 15.75 L31.3 12.15 33.7 12.15 35.45 15.75 33.5 15.75 M48.35 15.7 L37.0 15.75 35.25 12.15 50.45 12.15 48.4 15.7 48.35 15.7" fill="#8c1016" fill-rule="evenodd" stroke="none"/>
      <path d="M33.45 23.1 L31.15 19.45 33.7 19.45 35.45 23.1 33.45 23.1 M50.55 19.45 L48.4 23.05 37.0 23.1 35.25 19.45 50.55 19.45" fill="#7a0e13" fill-rule="evenodd" stroke="none"/>
      <path d="M48.5 30.4 L37.0 30.4 35.25 26.75 50.6 26.75 48.5 30.4 M35.45 30.4 L33.25 30.4 31.05 26.75 33.7 26.75 35.45 30.4" fill="#680c10" fill-rule="evenodd" stroke="none"/>
      <path d="M31.05 26.75 L33.45 23.1 35.45 23.1 33.7 26.75 31.05 26.75 M37.0 23.1 L48.4 23.05 50.6 26.75 35.25 26.75 37.0 23.1" fill="#961a21" fill-rule="evenodd" stroke="none"/>
      <path d="M35.45 1.1 L36.75 1.1 35.25 4.8 33.8 4.8 35.45 1.1 M37.0 15.75 L35.25 19.45 33.7 19.45 35.5 15.75 37.0 15.75 M35.55 8.4 L36.8 8.4 35.25 12.15 33.7 12.15 35.55 8.4 M35.45 23.1 L37.0 23.1 35.25 26.75 33.7 26.75 35.45 23.1" fill="#d72f38" fill-rule="evenodd" stroke="none"/>
      <path d="M37.0 30.4 L35.45 30.4 33.7 26.75 35.25 26.75 37.0 30.4 M35.25 4.8 L36.8 8.4 35.55 8.4 33.75 4.8 33.8 4.8 35.25 4.8 M35.25 12.15 L37.0 15.75 35.5 15.75 35.45 15.75 33.7 12.15 35.25 12.15 M33.7 19.45 L35.25 19.45 37.0 23.1 35.45 23.1 33.7 19.45" fill="#ac181e" fill-rule="evenodd" stroke="none"/>
      <path d="M54.05 4.8 L51.7 1.1 48.2 1.1 M54.05 4.8 L51.9 8.4 54.3 12.15 52.15 15.7 52.1 15.7 54.5 19.45 52.3 23.05 54.75 26.75 52.5 30.4 48.5 30.4 37.0 30.4 35.45 30.4 33.25 30.4 31.05 26.75 33.45 23.1 31.15 19.45 33.5 15.75 31.3 12.15 33.6 8.4 31.4 4.8 33.7 1.1 35.45 1.1 36.75 1.1 48.2 1.1 M36.8 8.4 L48.3 8.4 51.9 8.4 M48.4 23.05 L52.3 23.05 M48.4 15.7 L48.35 15.75 48.35 15.7 37.0 15.75 M48.35 15.7 L48.4 15.7 M37.0 23.1 L48.4 23.05 M52.1 15.7 L48.4 15.7 M35.55 8.4 L33.6 8.4 M33.45 23.1 L35.45 23.1 M33.5 15.75 L35.45 15.75" fill="none" stroke="#000000" stroke-linecap="round" stroke-linejoin="round" stroke-opacity="0.3019608" stroke-width="0.2"/>
      <path d="M87.3 -24.6 L87.1 -24.9 86.9 -25.2 Q86.65 -25.8 86.65 -26.6 86.65 -27.65 87.1 -28.35 87.6 -29.05 88.3 -29.05 88.95 -29.05 89.4 -28.35 89.95 -27.65 89.95 -26.6 89.95 -25.55 89.4 -24.9 L89.25 -24.6 87.3 -24.6 M88.3 -28.45 Q87.8 -28.45 87.5 -27.9 87.15 -27.35 87.15 -26.6 87.15 -25.8 87.5 -25.3 87.8 -24.75 88.3 -24.75 88.7 -24.75 89.05 -25.3 L89.3 -25.8 89.4 -26.6 89.15 -27.7 89.05 -27.9 Q88.7 -28.45 88.3 -28.45" fill="#fac733" fill-rule="evenodd" stroke="none"/>
      <path d="M87.3 -24.6 L89.25 -24.6 89.15 -24.45 Q90.5 -24.05 91.7 -22.25 L90.3 -22.25 Q88.35 -25.2 85.9 -22.25 L84.55 -22.25 Q86.05 -24.1 87.45 -24.45 L87.3 -24.6" fill="#c88a1f" fill-rule="evenodd" stroke="none"/>
      <path d="M89.25 -24.6 L89.4 -24.9 Q89.95 -25.55 89.95 -26.6 89.95 -27.65 89.4 -28.35 88.95 -29.05 88.3 -29.05 87.6 -29.05 87.1 -28.35 86.65 -27.65 86.65 -26.6 86.65 -25.8 86.9 -25.2 L87.1 -24.9 87.3 -24.6 M89.25 -24.6 L89.15 -24.45 Q90.5 -24.05 91.7 -22.25 L90.3 -22.25 Q88.35 -25.2 85.9 -22.25 L84.55 -22.25 Q86.05 -24.1 87.45 -24.45 L87.3 -24.6 M88.3 -28.45 Q88.7 -28.45 89.05 -27.9 L89.15 -27.7 89.4 -26.6 89.3 -25.8 89.05 -25.3 Q88.7 -24.75 88.3 -24.75 87.8 -24.75 87.5 -25.3 87.15 -25.8 87.15 -26.6 87.15 -27.35 87.5 -27.9 87.8 -28.45 88.3 -28.45" fill="none" stroke="#000000" stroke-linecap="round" stroke-linejoin="round" stroke-opacity="0.3019608" stroke-width="0.2"/>
      <path d="M104.5 -16.2 Q111.55 -8.2 111.55 2.95 111.55 14.2 104.5 22.15 97.4 30.0 87.45 30.0 77.45 30.0 70.35 22.15 63.25 14.2 63.25 2.95 63.25 -8.2 70.35 -16.2 77.45 -24.1 87.45 -24.1 97.4 -24.1 104.5 -16.2" fill="url(#decoration213-gradient4)" fill-rule="evenodd" stroke="none"/>
      <path d="M92.4 10.2 L92.4 6.35 93.1 6.35 93.1 10.2 92.4 10.2 M90.2 10.2 L90.2 5.2 90.9 5.2 90.9 10.2 90.2 10.2 M86.65 10.2 L86.65 5.2 87.35 5.2 87.35 10.2 86.65 10.2 M82.75 10.2 L82.75 5.2 83.45 5.2 83.45 10.2 82.75 10.2 M84.8 10.2 L84.8 6.35 85.45 6.35 85.45 10.2 84.8 10.2 M81.0 10.2 L81.0 6.35 81.65 6.35 81.65 10.2 81.0 10.2 M88.45 10.2 L88.45 6.35 89.15 6.35 89.15 10.2 88.45 10.2" fill="#c88a1f" fill-rule="evenodd" stroke="none"/>
      <path d="M93.1 10.2 L93.1 15.05 92.4 15.05 92.4 10.2 93.1 10.2 M90.9 10.2 L90.9 13.95 90.2 13.95 90.2 10.2 90.9 10.2 M87.35 10.2 L87.35 13.95 86.65 13.95 86.65 10.2 87.35 10.2 M83.45 10.2 L83.45 13.95 82.75 13.95 82.75 10.2 83.45 10.2 M85.45 10.2 L85.45 15.05 84.8 15.05 84.8 10.2 85.45 10.2 M81.65 10.2 L81.65 15.05 81.0 15.05 81.0 10.2 81.65 10.2 M89.15 10.2 L89.15 15.05 88.45 15.05 88.45 10.2 89.15 10.2" fill="#fac733" fill-rule="evenodd" stroke="none"/>
      <path d="M92.4 10.2 L92.4 6.35 93.1 6.35 93.1 10.2 93.1 15.05 92.4 15.05 92.4 10.2 M90.2 10.2 L90.2 5.2 90.9 5.2 90.9 10.2 90.9 13.95 90.2 13.95 90.2 10.2 M86.65 10.2 L86.65 5.2 87.35 5.2 87.35 10.2 87.35 13.95 86.65 13.95 86.65 10.2 M82.75 10.2 L82.75 5.2 83.45 5.2 83.45 10.2 83.45 13.95 82.75 13.95 82.75 10.2 M84.8 10.2 L84.8 6.35 85.45 6.35 85.45 10.2 85.45 15.05 84.8 15.05 84.8 10.2 M81.0 10.2 L81.0 6.35 81.65 6.35 81.65 10.2 81.65 15.05 81.0 15.05 81.0 10.2 M88.45 10.2 L88.45 6.35 89.15 6.35 89.15 10.2 89.15 15.05 88.45 15.05 88.45 10.2" fill="none" stroke="#000000" stroke-linecap="round" stroke-linejoin="round" stroke-opacity="0.3019608" stroke-width="0.2"/>
      <path d="M96.55 5.05 L96.55 6.4 92.1 6.4 92.1 5.05 96.55 5.05" fill="#c26721" fill-rule="evenodd" stroke="none"/>
      <path d="M92.1 6.4 L84.25 6.4 84.25 5.0 92.1 5.05 92.1 6.4 M81.85 6.4 L78.55 6.4 78.6 5.0 81.85 5.0 81.85 6.4" fill="#f2932e" fill-rule="evenodd" stroke="none"/>
      <path d="M92.1 3.4 L96.6 1.8 96.55 5.05 92.1 5.05 92.1 3.4" fill="#c88a1f" fill-rule="evenodd" stroke="none"/>
      <path d="M78.6 5.0 L78.6 1.55 81.85 3.4 81.85 5.0 78.6 5.0 M84.25 3.4 L92.1 3.4 92.1 5.05 84.25 5.0 84.25 3.4" fill="#fac733" fill-rule="evenodd" stroke="none"/>
      <path d="M84.25 6.4 L81.85 6.4 81.85 5.0 84.25 5.0 84.25 6.4" fill="#f8d337" fill-rule="evenodd" stroke="none"/>
      <path d="M81.85 3.4 L84.25 3.4 84.25 5.0 81.85 5.0 81.85 3.4" fill="#fee83a" fill-rule="evenodd" stroke="none"/>
      <path d="M92.1 3.4 L96.6 1.8 96.55 5.05 96.55 6.4 92.1 6.4 84.25 6.4 81.85 6.4 78.55 6.4 78.6 5.0 78.6 1.55 81.85 3.4 84.25 3.4 92.1 3.4 Z" fill="none" stroke="#000000" stroke-linecap="round" stroke-linejoin="round" stroke-opacity="0.3019608" stroke-width="0.2"/>
      <path d="M78.6 -21.25 L78.55 -22.5 81.85 -22.5 81.85 -21.25 78.6 -21.25 M84.25 -22.5 L92.1 -22.5 92.1 -21.25 84.25 -21.25 84.25 -22.5" fill="#fac733" fill-rule="evenodd" stroke="none"/>
      <path d="M81.85 -20.1 L78.45 -17.85 78.6 -21.25 81.85 -21.25 81.85 -20.1 M92.1 -20.1 L84.25 -20.1 84.25 -21.25 92.1 -21.25 92.1 -20.1" fill="#f2932e" fill-rule="evenodd" stroke="none"/>
      <path d="M92.1 -22.5 L96.55 -22.5 96.55 -21.25 92.1 -21.25 92.1 -22.5" fill="#c88a1f" fill-rule="evenodd" stroke="none"/>
      <path d="M96.55 -21.25 L96.5 -18.15 92.1 -20.1 92.1 -21.25 96.55 -21.25" fill="#c26721" fill-rule="evenodd" stroke="none"/>
      <path d="M81.85 -22.5 L84.25 -22.5 84.25 -21.25 81.85 -21.25 81.85 -22.5" fill="#fee83a" fill-rule="evenodd" stroke="none"/>
      <path d="M84.25 -20.1 L81.85 -20.1 81.85 -21.25 84.25 -21.25 84.25 -20.1" fill="#f8d337" fill-rule="evenodd" stroke="none"/>
      <path d="M81.85 -20.1 L78.45 -17.85 78.6 -21.25 78.55 -22.5 81.85 -22.5 84.25 -22.5 92.1 -22.5 96.55 -22.5 96.55 -21.25 96.5 -18.15 92.1 -20.1 84.25 -20.1 81.85 -20.1 Z" fill="none" stroke="#000000" stroke-linecap="round" stroke-linejoin="round" stroke-opacity="0.3019608" stroke-width="0.2"/>
      <path d="M73.7 -17.1 Q73.75 -17.1 75.0 -17.85 L77.25 -19.0 Q67.35 -7.75 76.15 1.55 L75.35 1.55 73.55 0.45 Q67.7 -7.9 73.7 -17.1 M81.25 -20.2 L82.95 -20.5 Q78.6 -14.4 78.55 -8.2 78.5 -3.3 81.2 1.45 L79.4 1.55 Q73.7 -9.95 81.25 -20.2 M84.9 -20.75 L86.45 -20.85 Q84.15 -14.8 84.2 -8.5 84.25 -3.8 85.6 1.0 L84.0 1.25 Q82.7 -2.9 82.65 -7.45 82.65 -13.75 84.9 -20.75 M88.85 -20.85 L90.35 -20.75 Q93.65 -10.3 91.5 -0.7 L89.85 -0.05 Q92.3 -9.9 88.85 -20.85 M92.15 -20.55 L94.25 -20.1 Q98.8 -14.25 97.7 -5.9 L95.9 -3.6 Q96.6 -6.5 96.5 -9.15 96.35 -15.35 92.15 -20.55 M97.45 -19.2 L98.8 -18.65 98.95 -17.7 97.45 -19.2" fill="#850b1d" fill-rule="evenodd" stroke="none"/>
      <path d="M73.55 0.45 Q68.1 -3.2 68.1 -8.3 68.1 -13.45 73.7 -17.1 67.7 -7.9 73.55 0.45 M77.25 -19.0 L81.25 -20.2 Q73.7 -9.95 79.4 1.55 L79.3 1.55 76.15 1.55 Q67.35 -7.75 77.25 -19.0 M82.95 -20.5 L84.9 -20.75 Q82.65 -13.75 82.65 -7.45 82.7 -2.9 84.0 1.25 L81.7 1.45 81.2 1.5 81.2 1.45 Q78.5 -3.3 78.55 -8.2 78.6 -14.4 82.95 -20.5 M86.45 -20.85 L88.85 -20.85 Q92.3 -9.9 89.85 -0.05 L85.6 1.0 Q84.25 -3.8 84.2 -8.5 84.15 -14.8 86.45 -20.85 M90.35 -20.75 L92.15 -20.55 Q96.35 -15.35 96.5 -9.15 96.6 -6.5 95.9 -3.6 94.15 -1.9 91.5 -0.7 93.65 -10.3 90.35 -20.75 M94.25 -20.1 L97.45 -19.2 98.95 -17.7 Q100.35 -10.45 97.7 -5.9 98.8 -14.25 94.25 -20.1" fill="#c5232b" fill-rule="evenodd" stroke="none"/>
      <path d="M98.8 -18.65 Q99.5 -18.3 100.2 -17.9 107.4 -10.45 102.4 -0.05 L101.05 0.8 99.5 1.75 Q107.0 -9.0 98.95 -17.7 L98.8 -18.65 M95.05 3.4 L93.0 3.85 Q95.1 -0.05 95.9 -3.6 L97.7 -5.9 Q97.15 -1.6 95.05 3.4 M90.0 4.25 L88.4 4.25 89.85 -0.05 91.5 -0.7 Q90.95 1.8 90.0 4.25 M86.7 4.25 L85.15 4.25 84.0 1.25 85.6 1.0 86.7 4.25 M82.75 3.95 L80.45 3.45 79.4 1.55 81.2 1.45 81.2 1.5 82.75 3.95 M76.9 2.25 L75.35 1.55 76.15 1.55 76.9 2.25" fill="#5d0814" fill-rule="evenodd" stroke="none"/>
      <path d="M100.2 -17.9 L101.4 -17.15 Q107.15 -13.5 107.15 -8.3 107.15 -3.55 102.4 -0.05 107.4 -10.45 100.2 -17.9 M99.5 1.75 Q97.4 2.75 95.05 3.4 97.15 -1.6 97.7 -5.9 100.35 -10.45 98.95 -17.7 107.0 -9.0 99.5 1.75 M93.0 3.85 L90.0 4.25 Q90.95 1.8 91.5 -0.7 94.15 -1.9 95.9 -3.6 95.1 -0.05 93.0 3.85 M88.4 4.25 L86.7 4.25 85.6 1.0 89.85 -0.05 88.4 4.25 M85.15 4.25 L82.75 3.95 81.2 1.5 81.7 1.45 84.0 1.25 85.15 4.25 M80.45 3.45 L76.9 2.25 76.15 1.55 79.3 1.55 79.4 1.55 80.45 3.45" fill="#a11c22" fill-rule="evenodd" stroke="none"/>
      <path d="M73.55 0.45 Q68.1 -3.2 68.1 -8.3 68.1 -13.45 73.7 -17.1 73.75 -17.1 75.0 -17.85 L77.25 -19.0 81.25 -20.2 82.95 -20.5 84.9 -20.75 86.45 -20.85 88.85 -20.85 90.35 -20.75 92.15 -20.55 94.25 -20.1 97.45 -19.2 98.8 -18.65 Q99.5 -18.3 100.2 -17.9 L101.4 -17.15 Q107.15 -13.5 107.15 -8.3 107.15 -3.55 102.4 -0.05 L101.05 0.8 99.5 1.75 Q97.4 2.75 95.05 3.4 L93.0 3.85 90.0 4.25 88.4 4.25 86.7 4.25 85.15 4.25 82.75 3.95 80.45 3.45 76.9 2.25 75.35 1.55 73.55 0.45 Z" fill="none" stroke="#000000" stroke-linecap="round" stroke-linejoin="round" stroke-opacity="0.3019608" stroke-width="0.2"/>
    </g>
    <radialGradient cx="0" cy="0" gradientTransform="matrix(0.0232, 0.0, 0.0, 0.027, -51.55, 14.4)" gradientUnits="userSpaceOnUse" id="decoration213-gradient0" r="819.2" spreadMethod="pad">
      <stop offset="0.0" stop-color="#fffdf5" stop-opacity="0.8784314"/>
      <stop offset="0.14901960784313725" stop-color="#ffd202" stop-opacity="0.7019608"/>
      <stop offset="0.39215686274509803" stop-color="#f79331" stop-opacity="0.5411765"/>
      <stop offset="0.615686274509804" stop-color="#fcc86f" stop-opacity="0.14117648"/>
      <stop offset="1.0" stop-color="#ffdd87" stop-opacity="0.0"/>
    </radialGradient>
    <radialGradient cx="0" cy="0" gradientTransform="matrix(0.028, 0.0, 0.0, 0.0327, -0.7, 30.1)" gradientUnits="userSpaceOnUse" id="decoration213-gradient1" r="819.2" spreadMethod="pad">
      <stop offset="0.0" stop-color="#fffdf5" stop-opacity="0.8784314"/>
      <stop offset="0.14901960784313725" stop-color="#ffd202" stop-opacity="0.7019608"/>
      <stop offset="0.39215686274509803" stop-color="#f79331" stop-opacity="0.5411765"/>
      <stop offset="0.615686274509804" stop-color="#fcc86f" stop-opacity="0.14117648"/>
      <stop offset="1.0" stop-color="#ffdd87" stop-opacity="0.0"/>
    </radialGradient>
    <radialGradient cx="0" cy="0" gradientTransform="matrix(0.028, 0.0, 0.0, 0.0327, -89.15, 2.95)" gradientUnits="userSpaceOnUse" id="decoration213-gradient2" r="819.2" spreadMethod="pad">
      <stop offset="0.0" stop-color="#fffdf5" stop-opacity="0.8784314"/>
      <stop offset="0.14901960784313725" stop-color="#ffd202" stop-opacity="0.7019608"/>
      <stop offset="0.39215686274509803" stop-color="#f79331" stop-opacity="0.5411765"/>
      <stop offset="0.615686274509804" stop-color="#fcc86f" stop-opacity="0.14117648"/>
      <stop offset="1.0" stop-color="#ffdd87" stop-opacity="0.0"/>
    </radialGradient>
    <radialGradient cx="0" cy="0" gradientTransform="matrix(0.0232, 0.0, 0.0, 0.027, 42.15, 18.65)" gradientUnits="userSpaceOnUse" id="decoration213-gradient3" r="819.2" spreadMethod="pad">
      <stop offset="0.0" stop-color="#fffdf5" stop-opacity="0.8784314"/>
      <stop offset="0.14901960784313725" stop-color="#ffd202" stop-opacity="0.7019608"/>
      <stop offset="0.39215686274509803" stop-color="#f79331" stop-opacity="0.5411765"/>
      <stop offset="0.615686274509804" stop-color="#fcc86f" stop-opacity="0.14117648"/>
      <stop offset="1.0" stop-color="#ffdd87" stop-opacity="0.0"/>
    </radialGradient>
    <radialGradient cx="0" cy="0" gradientTransform="matrix(0.028, 0.0, 0.0, 0.0327, 87.45, 2.95)" gradientUnits="userSpaceOnUse" id="decoration213-gradient4" r="819.2" spreadMethod="pad">
      <stop offset="0.0" stop-color="#fffdf5" stop-opacity="0.8784314"/>
      <stop offset="0.14901960784313725" stop-color="#ffd202" stop-opacity="0.7019608"/>
      <stop offset="0.39215686274509803" stop-color="#f79331" stop-opacity="0.5411765"/>
      <stop offset="0.615686274509804" stop-color="#fcc86f" stop-opacity="0.14117648"/>
      <stop offset="1.0" stop-color="#ffdd87" stop-opacity="0.0"/>
    </radialGradient>
  </defs>
</svg>
