<?xml version="1.0" encoding="UTF-8" standalone="no"?>
<svg xmlns:xlink="http://www.w3.org/1999/xlink" height="117.1px" width="117.1px" xmlns="http://www.w3.org/2000/svg">
  <g transform="matrix(1.0, 0.0, 0.0, 1.0, 59.0, 59.0)">
    <use height="117.1" transform="matrix(1.0, 0.0, 0.0, 1.0, -59.0, -59.0)" width="117.1" xlink:href="#decoration214-shape0"/>
  </g>
  <defs>
    <g id="decoration214-shape0" transform="matrix(1.0, 0.0, 0.0, 1.0, 59.0, 59.0)">
      <path d="M18.6 -55.2 Q18.8 -52.15 17.7 -48.4 16.6 -44.6 14.8 -42.35 13.0 -40.15 11.6 -40.7 10.2 -41.3 10.05 -44.35 9.85 -47.4 10.95 -51.2 12.05 -54.95 13.85 -57.2 15.6 -59.45 17.0 -58.85 18.4 -58.3 18.6 -55.2" fill="url(#decoration214-gradient0)" fill-rule="evenodd" stroke="none"/>
      <path d="M2.8 -50.45 Q3.7 -47.55 3.5 -43.6 3.3 -39.7 2.1 -37.1 0.9 -34.45 -0.6 -34.7 -2.1 -34.95 -3.0 -37.9 -3.9 -40.8 -3.7 -44.7 -3.5 -48.65 -2.3 -51.25 -1.15 -53.85 0.35 -53.6 1.85 -53.35 2.8 -50.45" fill="url(#decoration214-gradient1)" fill-rule="evenodd" stroke="none"/>
      <path d="M37.4 -37.1 Q38.3 -35.85 36.8 -33.15 35.4 -30.5 32.4 -27.9 29.5 -25.3 26.75 -24.3 24.05 -23.45 23.2 -24.6 22.35 -25.85 23.8 -28.5 25.25 -31.25 28.15 -33.85 31.15 -36.45 33.8 -37.35 36.55 -38.35 37.4 -37.1" fill="url(#decoration214-gradient2)" fill-rule="evenodd" stroke="none"/>
      <path d="M22.05 -38.65 Q23.2 -37.7 22.45 -34.7 21.75 -31.7 19.55 -28.45 17.35 -25.2 14.95 -23.6 12.6 -22.0 11.45 -22.95 10.3 -23.95 11.0 -26.9 11.75 -29.9 13.95 -33.15 16.15 -36.4 18.5 -38.0 20.9 -39.65 22.05 -38.65" fill="url(#decoration214-gradient3)" fill-rule="evenodd" stroke="none"/>
      <path d="M17.0 -12.35 Q18.2 -12.6 18.5 -12.0 18.8 -11.45 18.0 -10.4 17.2 -9.3 15.8 -8.4 14.4 -7.45 13.2 -7.3 12.0 -7.05 11.7 -7.6 11.4 -8.2 12.2 -9.25 L14.4 -11.2 Q15.8 -12.1 17.0 -12.35" fill="url(#decoration214-gradient4)" fill-rule="evenodd" stroke="none"/>
      <path d="M4.6 -22.7 Q5.2 -22.5 5.35 -21.15 5.45 -19.85 5.0 -18.25 4.6 -16.6 3.9 -15.65 3.15 -14.7 2.55 -14.9 1.95 -15.15 1.85 -16.45 1.7 -17.7 2.1 -19.35 2.55 -20.95 3.3 -21.95 4.0 -22.95 4.6 -22.7" fill="url(#decoration214-gradient5)" fill-rule="evenodd" stroke="none"/>
      <path d="M27.05 -10.7 Q29.65 -12.3 33.5 -13.05 37.35 -13.75 40.2 -13.2 43.0 -12.65 43.15 -11.2 43.25 -9.7 40.65 -8.05 38.0 -6.55 34.2 -5.8 L27.5 -5.55 Q24.65 -6.05 24.55 -7.6 24.4 -9.1 27.05 -10.7" fill="url(#decoration214-gradient6)" fill-rule="evenodd" stroke="none"/>
      <path d="M36.75 -3.75 Q39.7 -4.7 43.6 -4.65 47.5 -4.6 50.15 -3.5 52.75 -2.4 52.55 -0.9 52.45 0.6 49.5 1.65 46.6 2.65 42.75 2.6 38.8 2.5 36.1 1.45 33.5 0.25 33.65 -1.25 33.85 -2.75 36.75 -3.75" fill="url(#decoration214-gradient7)" fill-rule="evenodd" stroke="none"/>
      <path d="M37.85 -24.1 Q39.75 -26.5 43.05 -28.5 46.45 -30.6 49.3 -31.0 52.1 -31.5 52.75 -30.1 53.35 -28.75 51.5 -26.4 49.55 -23.95 46.15 -21.9 42.85 -19.9 40.05 -19.45 37.15 -18.95 36.5 -20.3 35.85 -21.7 37.85 -24.1" fill="url(#decoration214-gradient8)" fill-rule="evenodd" stroke="none"/>
      <path d="M-28.7 -53.5 Q-27.3 -53.95 -25.15 -51.7 -23.05 -49.5 -21.5 -45.9 -19.9 -42.3 -19.8 -39.4 -19.75 -36.55 -21.15 -36.1 -22.6 -35.65 -24.75 -37.85 -26.85 -40.1 -28.45 -43.7 -30.0 -47.3 -30.1 -50.15 -30.15 -53.05 -28.7 -53.5" fill="url(#decoration214-gradient9)" fill-rule="evenodd" stroke="none"/>
      <path d="M-51.05 -12.0 Q-54.85 -13.05 -57.1 -14.75 -59.45 -16.45 -58.9 -17.85 -58.35 -19.25 -55.25 -19.55 -52.25 -19.85 -48.45 -18.8 -44.65 -17.8 -42.35 -16.05 -40.05 -14.35 -40.6 -12.95 -41.15 -11.55 -44.2 -11.25 -47.25 -11.0 -51.05 -12.0" fill="url(#decoration214-gradient10)" fill-rule="evenodd" stroke="none"/>
      <path d="M-49.4 -2.1 Q-46.55 -3.3 -42.6 -3.45 -38.7 -3.6 -36.05 -2.6 -33.3 -1.65 -33.4 -0.15 -33.5 1.35 -36.4 2.55 -39.2 3.7 -43.1 3.85 -47.05 4.0 -49.75 3.05 -52.4 2.05 -52.3 0.55 -52.2 -0.95 -49.4 -2.1" fill="url(#decoration214-gradient11)" fill-rule="evenodd" stroke="none"/>
      <path d="M-9.3 -41.85 Q-7.65 -39.25 -6.75 -35.4 -5.85 -31.6 -6.3 -28.8 -6.75 -25.95 -8.25 -25.75 -9.75 -25.55 -11.45 -28.15 -13.1 -30.7 -14.0 -34.5 -14.9 -38.35 -14.45 -41.2 -14.05 -44.0 -12.55 -44.2 -11.05 -44.4 -9.3 -41.85" fill="url(#decoration214-gradient12)" fill-rule="evenodd" stroke="none"/>
      <path d="M-35.8 -38.5 Q-32.9 -37.5 -29.9 -35.0 -26.85 -32.45 -25.5 -29.95 -24.1 -27.45 -25.2 -26.4 -26.25 -25.35 -29.2 -26.35 -32.05 -27.35 -35.1 -29.9 -38.1 -32.4 -39.5 -34.9 -40.85 -37.4 -39.8 -38.45 -38.7 -39.5 -35.8 -38.5" fill="url(#decoration214-gradient13)" fill-rule="evenodd" stroke="none"/>
      <path d="M-25.1 -15.7 Q-23.2 -13.6 -24.0 -12.3 -24.75 -11.0 -27.85 -11.3 -30.9 -11.6 -34.4 -13.3 -37.95 -15.05 -39.9 -17.15 -41.8 -19.25 -41.05 -20.55 -40.25 -21.85 -37.15 -21.55 -34.1 -21.25 -30.55 -19.5 -27.05 -17.8 -25.1 -15.7" fill="url(#decoration214-gradient14)" fill-rule="evenodd" stroke="none"/>
      <path d="M-12.1 -16.0 Q-13.0 -17.4 -13.25 -18.6 -13.5 -19.8 -12.9 -20.1 -12.35 -20.4 -11.25 -19.6 -10.2 -18.8 -9.3 -17.4 -8.4 -16.0 -8.15 -14.8 -8.0 -13.6 -8.55 -13.3 -9.15 -13.0 -10.15 -13.8 -11.2 -14.6 -12.1 -16.0" fill="url(#decoration214-gradient15)" fill-rule="evenodd" stroke="none"/>
      <path d="M-20.05 -6.15 L-17.15 -5.8 Q-15.5 -5.3 -14.5 -4.6 -13.6 -3.85 -13.85 -3.25 -14.05 -2.65 -15.35 -2.5 L-18.3 -2.9 Q-19.9 -3.35 -20.9 -4.05 -21.85 -4.85 -21.65 -5.45 -21.4 -6.05 -20.05 -6.15" fill="url(#decoration214-gradient16)" fill-rule="evenodd" stroke="none"/>
      <path d="M-12.55 8.95 Q-13.4 9.95 -14.85 10.75 -16.3 11.6 -17.5 11.8 -18.7 11.95 -18.95 11.4 -19.25 10.8 -18.4 9.75 -17.55 8.75 -16.1 7.9 -14.65 7.1 -13.45 6.9 -12.25 6.75 -11.95 7.35 -11.7 7.9 -12.55 8.95" fill="url(#decoration214-gradient17)" fill-rule="evenodd" stroke="none"/>
      <path d="M-3.6 12.6 Q-3.0 12.8 -2.8 14.1 -2.6 15.4 -2.9 17.05 -3.25 18.7 -3.95 19.7 -4.65 20.7 -5.25 20.5 -5.9 20.3 -6.05 19.05 -6.25 17.75 -5.9 16.1 -5.6 14.45 -4.9 13.45 -4.25 12.4 -3.6 12.6" fill="url(#decoration214-gradient18)" fill-rule="evenodd" stroke="none"/>
      <path d="M-15.65 19.85 Q-13.6 17.8 -12.3 18.55 -11.0 19.35 -11.15 22.4 -11.4 25.5 -13.0 29.05 -14.6 32.65 -16.6 34.6 -18.7 36.65 -20.0 35.85 -21.3 35.1 -21.1 32.05 -20.9 29.0 -19.3 25.4 -17.7 21.85 -15.65 19.85" fill="url(#decoration214-gradient19)" fill-rule="evenodd" stroke="none"/>
      <path d="M-32.3 11.75 Q-36.1 12.8 -38.9 12.45 -41.8 12.1 -42.05 10.6 -42.3 9.1 -39.75 7.35 -37.25 5.6 -33.45 4.55 -29.65 3.55 -26.85 3.85 -24.0 4.2 -23.75 5.7 -23.5 7.2 -26.0 8.95 -28.5 10.75 -32.3 11.75" fill="url(#decoration214-gradient20)" fill-rule="evenodd" stroke="none"/>
      <path d="M-36.6 20.2 Q-36.15 21.6 -38.35 23.75 -40.6 25.85 -44.2 27.45 -47.8 29.0 -50.65 29.1 -53.55 29.15 -54.0 27.75 -54.45 26.3 -52.25 24.15 -50.0 22.05 -46.4 20.5 -42.8 18.9 -39.95 18.8 -37.05 18.75 -36.6 20.2" fill="url(#decoration214-gradient21)" fill-rule="evenodd" stroke="none"/>
      <path d="M-25.7 24.0 Q-24.65 25.1 -25.7 27.95 -26.75 30.85 -29.25 33.85 -31.8 36.8 -34.35 38.15 -36.9 39.55 -37.95 38.45 -38.95 37.35 -37.9 34.4 -36.85 31.55 -34.3 28.6 -31.8 25.6 -29.25 24.2 -26.7 22.9 -25.7 24.0" fill="url(#decoration214-gradient22)" fill-rule="evenodd" stroke="none"/>
      <path d="M-16.4 41.45 Q-14.7 39.15 -13.3 39.7 -11.85 40.2 -11.55 43.3 -11.25 46.3 -12.25 50.1 -13.25 53.9 -14.95 56.25 -16.65 58.5 -18.1 58.0 -19.5 57.45 -19.8 54.4 -20.1 51.35 -19.1 47.55 -18.1 43.75 -16.4 41.45" fill="url(#decoration214-gradient23)" fill-rule="evenodd" stroke="none"/>
      <path d="M-4.3 40.5 Q-4.45 36.55 -3.45 33.9 -2.45 31.2 -0.95 31.3 0.55 31.45 1.7 34.25 2.85 37.1 3.0 41.05 3.1 44.95 2.05 47.65 1.1 50.35 -0.4 50.2 -1.9 50.1 -3.1 47.3 -4.2 44.4 -4.3 40.5" fill="url(#decoration214-gradient24)" fill-rule="evenodd" stroke="none"/>
      <path d="M56.35 13.6 Q58.6 15.5 57.95 16.85 57.35 18.25 54.3 18.3 51.25 18.45 47.5 17.25 43.75 16.05 41.6 14.2 39.35 12.4 39.95 11.0 40.6 9.65 43.65 9.5 46.7 9.35 50.45 10.55 54.2 11.75 56.35 13.6" fill="url(#decoration214-gradient25)" fill-rule="evenodd" stroke="none"/>
      <path d="M23.95 10.1 Q26.95 10.65 30.35 12.55 33.75 14.5 35.55 16.8 37.3 19.0 36.45 20.25 35.55 21.5 32.5 20.9 29.5 20.4 26.05 18.5 22.7 16.55 20.95 14.2 19.15 12.05 20.05 10.75 20.9 9.55 23.95 10.1" fill="url(#decoration214-gradient26)" fill-rule="evenodd" stroke="none"/>
      <path d="M20.75 4.7 Q20.55 5.3 19.3 5.5 L16.35 5.4 Q14.65 5.05 13.6 4.4 12.6 3.75 12.8 3.15 13.0 2.5 14.3 2.25 L17.25 2.45 Q18.95 2.75 19.95 3.4 20.95 4.05 20.75 4.7" fill="url(#decoration214-gradient27)" fill-rule="evenodd" stroke="none"/>
      <path d="M26.3 22.8 Q29.15 23.9 32.1 26.5 35.0 29.1 36.3 31.7 37.55 34.2 36.45 35.25 35.35 36.25 32.5 35.2 29.6 34.05 26.7 31.45 23.75 28.85 22.5 26.3 21.2 23.7 22.3 22.7 L26.3 22.8" fill="url(#decoration214-gradient28)" fill-rule="evenodd" stroke="none"/>
      <path d="M7.2 10.95 Q7.85 10.75 8.75 11.7 9.7 12.6 10.45 14.1 11.15 15.65 11.2 16.85 11.35 18.05 10.7 18.25 10.1 18.5 9.15 17.6 8.2 16.7 7.5 15.15 6.75 13.65 6.7 12.45 6.6 11.2 7.2 10.95" fill="url(#decoration214-gradient29)" fill-rule="evenodd" stroke="none"/>
      <path d="M6.75 20.55 Q8.25 20.45 9.75 23.15 11.3 25.85 11.9 29.7 12.5 33.6 11.85 36.35 11.25 39.15 9.75 39.25 8.25 39.35 6.7 36.65 5.2 34.0 4.6 30.1 4.0 26.25 4.6 23.45 5.25 20.65 6.75 20.55" fill="url(#decoration214-gradient30)" fill-rule="evenodd" stroke="none"/>
      <path d="M22.3 35.45 Q24.65 37.4 26.6 40.8 28.55 44.25 28.9 47.1 29.3 49.95 27.95 50.55 26.55 51.15 24.2 49.15 21.85 47.2 19.9 43.75 17.95 40.35 17.6 37.5 17.2 34.7 18.6 34.1 19.95 33.5 22.3 35.45" fill="url(#decoration214-gradient31)" fill-rule="evenodd" stroke="none"/>
      <path d="M15.1 -52.85 Q16.7 -52.3 15.75 -50.0 L6.4 -23.9 12.8 -50.5 Q13.5 -53.2 14.95 -52.85 L15.1 -52.85" fill="url(#decoration214-gradient32)" fill-rule="evenodd" stroke="none"/>
      <path d="M29.4 -31.95 L29.5 -32.1 Q31.65 -34.2 33.0 -33.35 L33.1 -33.25 Q33.9 -32.15 32.15 -30.45 L14.65 -15.1 29.4 -31.95" fill="url(#decoration214-gradient33)" fill-rule="evenodd" stroke="none"/>
      <path d="M0.7 -46.4 Q1.15 -45.7 1.0 -44.55 L-1.0 -20.8 -2.15 -43.95 Q-2.45 -46.8 -0.8 -47.15 L-0.7 -47.15 Q0.3 -47.05 0.7 -46.4" fill="url(#decoration214-gradient34)" fill-rule="evenodd" stroke="none"/>
      <path d="M15.8 -31.55 L17.2 -31.7 Q18.8 -30.95 17.5 -29.0 L17.45 -29.0 7.45 -13.95 14.7 -30.0 Q15.15 -31.1 15.8 -31.55" fill="url(#decoration214-gradient35)" fill-rule="evenodd" stroke="none"/>
      <path d="M3.35 -18.9 L3.7 -19.35 Q4.25 -19.45 4.05 -18.25 L1.95 -8.8 3.0 -17.9 Q3.0 -18.3 3.35 -18.9" fill="url(#decoration214-gradient36)" fill-rule="evenodd" stroke="none"/>
      <path d="M16.4 -10.5 Q16.8 -10.15 15.8 -9.5 L7.4 -4.8 14.85 -10.05 Q15.3 -10.5 16.4 -10.5" fill="url(#decoration214-gradient37)" fill-rule="evenodd" stroke="none"/>
      <path d="M34.5 -9.4 Q34.5 -7.75 32.3 -7.5 L15.5 -4.45 31.8 -10.45 Q34.3 -11.25 34.5 -9.4" fill="url(#decoration214-gradient38)" fill-rule="evenodd" stroke="none"/>
      <path d="M48.3 -26.3 Q48.8 -25.65 48.3 -24.95 47.75 -24.3 46.3 -23.65 L21.5 -11.75 44.3 -25.85 Q47.55 -27.85 48.3 -26.3" fill="url(#decoration214-gradient39)" fill-rule="evenodd" stroke="none"/>
      <path d="M46.15 1.5 Q45.5 1.95 44.3 1.8 L20.5 0.2 43.65 -1.3 Q46.5 -1.65 46.9 0.05 L46.85 0.05 Q46.8 1.05 46.15 1.5" fill="url(#decoration214-gradient40)" fill-rule="evenodd" stroke="none"/>
      <path d="M-27.7 -48.6 L-27.6 -48.65 Q-26.05 -49.45 -25.05 -47.2 L-12.5 -22.5 -27.45 -45.4 Q-28.95 -47.75 -27.7 -48.6" fill="url(#decoration214-gradient41)" fill-rule="evenodd" stroke="none"/>
      <path d="M-53.95 -15.95 Q-53.4 -17.55 -51.1 -16.6 L-25.0 -7.2 -51.6 -13.65 Q-54.3 -14.35 -53.95 -15.8 L-53.95 -15.95" fill="url(#decoration214-gradient42)" fill-rule="evenodd" stroke="none"/>
      <path d="M-48.1 0.25 L-48.1 0.15 Q-48.05 -0.85 -47.35 -1.3 -46.7 -1.75 -45.55 -1.6 L-21.75 -0.15 -44.85 1.5 Q-47.7 1.85 -48.1 0.25" fill="url(#decoration214-gradient43)" fill-rule="evenodd" stroke="none"/>
      <path d="M-9.4 -34.85 Q-8.9 -34.45 -8.65 -33.35 L-8.65 -33.3 -5.0 -15.6 -11.3 -32.0 Q-11.8 -33.1 -11.65 -33.85 -11.5 -34.6 -10.8 -34.95 L-9.4 -34.85" fill="url(#decoration214-gradient44)" fill-rule="evenodd" stroke="none"/>
      <path d="M-34.1 -33.3 Q-32.55 -34.6 -31.2 -32.75 L-15.6 -14.5 -32.85 -30.0 Q-35.1 -31.8 -34.2 -33.2 L-34.1 -33.3" fill="url(#decoration214-gradient45)" fill-rule="evenodd" stroke="none"/>
      <path d="M-33.5 -16.6 Q-32.75 -18.2 -30.85 -16.85 L-30.8 -16.85 -16.05 -6.45 -31.85 -14.1 Q-33.0 -14.55 -33.4 -15.2 -33.8 -15.85 -33.5 -16.6" fill="url(#decoration214-gradient46)" fill-rule="evenodd" stroke="none"/>
      <path d="M-11.3 -16.8 L-10.9 -16.85 -10.25 -16.35 -5.6 -7.8 -10.8 -15.4 Q-11.5 -16.1 -11.3 -16.8" fill="url(#decoration214-gradient47)" fill-rule="evenodd" stroke="none"/>
      <path d="M-20.1 -4.4 Q-20.15 -4.9 -18.95 -4.65 L-9.8 -2.05 -18.65 -3.6 Q-19.1 -3.6 -19.6 -4.0 L-20.1 -4.4" fill="url(#decoration214-gradient48)" fill-rule="evenodd" stroke="none"/>
      <path d="M-16.95 9.9 Q-12.7 7.6 -8.45 5.25 L-16.0 10.5 Q-16.5 10.95 -17.6 10.95 -18.0 10.55 -16.95 9.9" fill="url(#decoration214-gradient49)" fill-rule="evenodd" stroke="none"/>
      <path d="M-4.2 18.1 Q-4.2 18.7 -4.95 19.5 -5.5 19.55 -5.25 18.35 L-2.75 9.0 -4.2 18.1" fill="url(#decoration214-gradient50)" fill-rule="evenodd" stroke="none"/>
      <path d="M-34.45 11.05 Q-35.25 10.9 -35.55 10.15 -36.15 8.5 -33.9 8.05 L-33.85 8.05 -16.15 4.5 -32.6 10.7 -34.45 11.05" fill="url(#decoration214-gradient51)" fill-rule="evenodd" stroke="none"/>
      <path d="M-33.9 33.95 Q-34.55 33.2 -34.4 32.4 -34.25 31.6 -33.35 30.9 L-15.6 15.0 -30.65 32.55 Q-32.4 34.9 -33.85 34.0 L-33.9 33.95" fill="url(#decoration214-gradient52)" fill-rule="evenodd" stroke="none"/>
      <path d="M-18.55 29.0 L-18.55 28.95 -8.45 13.95 -15.8 29.95 Q-16.2 31.1 -16.85 31.55 L-18.25 31.65 Q-19.85 30.9 -18.55 29.0" fill="url(#decoration214-gradient53)" fill-rule="evenodd" stroke="none"/>
      <path d="M-17.25 50.35 L-7.9 24.25 -14.25 50.85 Q-14.95 53.55 -16.4 53.25 L-16.55 53.2 Q-18.2 52.65 -17.25 50.35" fill="url(#decoration214-gradient54)" fill-rule="evenodd" stroke="none"/>
      <path d="M-49.65 26.55 Q-50.4 25.0 -48.1 24.1 L-22.9 12.55 -46.4 26.6 Q-48.8 27.95 -49.6 26.65 L-49.65 26.55" fill="url(#decoration214-gradient55)" fill-rule="evenodd" stroke="none"/>
      <path d="M50.25 13.65 Q52.9 14.4 52.6 15.85 L52.55 15.95 Q52.05 17.6 49.7 16.65 L23.65 7.3 50.25 13.65" fill="url(#decoration214-gradient56)" fill-rule="evenodd" stroke="none"/>
      <path d="M31.35 16.7 Q31.65 17.2 31.2 17.9 30.8 18.75 30.05 18.7 29.25 18.7 27.95 17.85 L27.9 17.8 13.4 8.0 30.0 15.6 31.35 16.7" fill="url(#decoration214-gradient57)" fill-rule="evenodd" stroke="none"/>
      <path d="M19.15 4.55 Q19.2 5.1 18.0 4.85 L8.7 2.4 17.7 3.8 Q18.35 3.8 19.15 4.55" fill="url(#decoration214-gradient58)" fill-rule="evenodd" stroke="none"/>
      <path d="M4.4 8.0 L9.75 15.5 Q10.2 15.95 10.2 17.05 9.85 17.45 9.2 16.45 L4.4 8.0" fill="url(#decoration214-gradient59)" fill-rule="evenodd" stroke="none"/>
      <path d="M7.2 33.5 L7.15 33.45 4.1 15.65 9.85 32.3 Q10.85 34.5 9.4 35.15 L7.95 35.05 Q7.4 34.65 7.2 33.5" fill="url(#decoration214-gradient60)" fill-rule="evenodd" stroke="none"/>
      <path d="M-0.4 47.6 Q-1.4 47.55 -1.85 46.85 -2.3 46.2 -2.2 45.05 L-0.8 21.2 0.95 44.35 Q1.3 47.2 -0.3 47.6 L-0.4 47.6" fill="url(#decoration214-gradient61)" fill-rule="evenodd" stroke="none"/>
      <path d="M29.75 32.9 L14.35 14.65 31.5 30.2 Q33.75 32.05 32.85 33.45 L32.75 33.5 Q32.0 34.15 31.2 33.95 30.45 33.8 29.75 32.9" fill="url(#decoration214-gradient62)" fill-rule="evenodd" stroke="none"/>
      <path d="M25.85 45.35 Q27.3 47.7 26.05 48.55 L25.95 48.6 Q24.4 49.4 23.4 47.1 L11.15 22.3 25.85 45.35" fill="url(#decoration214-gradient63)" fill-rule="evenodd" stroke="none"/>
    </g>
    <radialGradient cx="0" cy="0" gradientTransform="matrix(0.0047, 0.002, -0.0033, 0.0112, 13.8, -48.7)" gradientUnits="userSpaceOnUse" id="decoration214-gradient0" r="819.2" spreadMethod="pad">
      <stop offset="0.0" stop-color="#ffffcc"/>
      <stop offset="1.0" stop-color="#ffffcc" stop-opacity="0.0"/>
    </radialGradient>
    <radialGradient cx="0" cy="0" gradientTransform="matrix(0.005, 8.0E-4, -6.0E-4, 0.0116, -0.3, -43.0)" gradientUnits="userSpaceOnUse" id="decoration214-gradient1" r="819.2" spreadMethod="pad">
      <stop offset="0.0" stop-color="#ffffcc"/>
      <stop offset="1.0" stop-color="#ffffcc" stop-opacity="0.0"/>
    </radialGradient>
    <radialGradient cx="0" cy="0" gradientTransform="matrix(0.0029, 0.0042, -0.0088, 0.0077, 29.35, -30.2)" gradientUnits="userSpaceOnUse" id="decoration214-gradient2" r="819.2" spreadMethod="pad">
      <stop offset="0.0" stop-color="#ffffcc"/>
      <stop offset="1.0" stop-color="#ffffcc" stop-opacity="0.0"/>
    </radialGradient>
    <radialGradient cx="0" cy="0" gradientTransform="matrix(0.0039, 0.0033, -0.0065, 0.0097, 15.95, -29.9)" gradientUnits="userSpaceOnUse" id="decoration214-gradient3" r="819.2" spreadMethod="pad">
      <stop offset="0.0" stop-color="#ffffcc"/>
      <stop offset="1.0" stop-color="#ffffcc" stop-opacity="0.0"/>
    </radialGradient>
    <radialGradient cx="0" cy="0" gradientTransform="matrix(0.001, 0.0019, -0.0042, 0.0027, 14.7, -9.55)" gradientUnits="userSpaceOnUse" id="decoration214-gradient4" r="819.2" spreadMethod="pad">
      <stop offset="0.0" stop-color="#ffffcc"/>
      <stop offset="1.0" stop-color="#ffffcc" stop-opacity="0.0"/>
    </radialGradient>
    <radialGradient cx="0" cy="0" gradientTransform="matrix(0.002, 8.0E-4, -0.0013, 0.0048, 3.4, -18.35)" gradientUnits="userSpaceOnUse" id="decoration214-gradient5" r="819.2" spreadMethod="pad">
      <stop offset="0.0" stop-color="#ffffcc"/>
      <stop offset="1.0" stop-color="#ffffcc" stop-opacity="0.0"/>
    </radialGradient>
    <radialGradient cx="0" cy="0" gradientTransform="matrix(4.0E-4, 0.0051, -0.0114, 0.0022, 32.6, -9.3)" gradientUnits="userSpaceOnUse" id="decoration214-gradient6" r="819.2" spreadMethod="pad">
      <stop offset="0.0" stop-color="#ffffcc"/>
      <stop offset="1.0" stop-color="#ffffcc" stop-opacity="0.0"/>
    </radialGradient>
    <radialGradient cx="0" cy="0" gradientTransform="matrix(-6.0E-4, 0.005, -0.0116, -2.0E-4, 42.0, -1.25)" gradientUnits="userSpaceOnUse" id="decoration214-gradient7" r="819.2" spreadMethod="pad">
      <stop offset="0.0" stop-color="#ffffcc"/>
      <stop offset="1.0" stop-color="#ffffcc" stop-opacity="0.0"/>
    </radialGradient>
    <radialGradient cx="0" cy="0" gradientTransform="matrix(0.0022, 0.0046, -0.01, 0.006, 43.6, -24.8)" gradientUnits="userSpaceOnUse" id="decoration214-gradient8" r="819.2" spreadMethod="pad">
      <stop offset="0.0" stop-color="#ffffcc"/>
      <stop offset="1.0" stop-color="#ffffcc" stop-opacity="0.0"/>
    </radialGradient>
    <radialGradient cx="0" cy="0" gradientTransform="matrix(0.0049, -0.0015, 0.0046, 0.0107, -24.6, -43.65)" gradientUnits="userSpaceOnUse" id="decoration214-gradient9" r="819.2" spreadMethod="pad">
      <stop offset="0.0" stop-color="#ffffcc"/>
      <stop offset="1.0" stop-color="#ffffcc" stop-opacity="0.0"/>
    </radialGradient>
    <radialGradient cx="0" cy="0" gradientTransform="matrix(0.0018, -0.0047, 0.0112, 0.0031, -48.65, -14.95)" gradientUnits="userSpaceOnUse" id="decoration214-gradient10" r="819.2" spreadMethod="pad">
      <stop offset="0.0" stop-color="#ffffcc"/>
      <stop offset="1.0" stop-color="#ffffcc" stop-opacity="0.0"/>
    </radialGradient>
    <radialGradient cx="0" cy="0" gradientTransform="matrix(3.0E-4, -0.0051, 0.0117, -4.0E-4, -41.7, 0.35)" gradientUnits="userSpaceOnUse" id="decoration214-gradient11" r="819.2" spreadMethod="pad">
      <stop offset="0.0" stop-color="#ffffcc"/>
      <stop offset="1.0" stop-color="#ffffcc" stop-opacity="0.0"/>
    </radialGradient>
    <radialGradient cx="0" cy="0" gradientTransform="matrix(0.0051, -6.0E-4, 0.0027, 0.0114, -10.3, -33.85)" gradientUnits="userSpaceOnUse" id="decoration214-gradient12" r="819.2" spreadMethod="pad">
      <stop offset="0.0" stop-color="#ffffcc"/>
      <stop offset="1.0" stop-color="#ffffcc" stop-opacity="0.0"/>
    </radialGradient>
    <radialGradient cx="0" cy="0" gradientTransform="matrix(0.0036, -0.0036, 0.009, 0.0074, -31.7, -31.6)" gradientUnits="userSpaceOnUse" id="decoration214-gradient13" r="819.2" spreadMethod="pad">
      <stop offset="0.0" stop-color="#ffffcc"/>
      <stop offset="1.0" stop-color="#ffffcc" stop-opacity="0.0"/>
    </radialGradient>
    <radialGradient cx="0" cy="0" gradientTransform="matrix(0.0027, -0.0043, 0.0105, 0.0051, -31.5, -15.75)" gradientUnits="userSpaceOnUse" id="decoration214-gradient14" r="819.2" spreadMethod="pad">
      <stop offset="0.0" stop-color="#ffffcc"/>
      <stop offset="1.0" stop-color="#ffffcc" stop-opacity="0.0"/>
    </radialGradient>
    <radialGradient cx="0" cy="0" gradientTransform="matrix(0.0019, -0.001, 0.0027, 0.0042, -10.5, -16.2)" gradientUnits="userSpaceOnUse" id="decoration214-gradient15" r="819.2" spreadMethod="pad">
      <stop offset="0.0" stop-color="#ffffcc"/>
      <stop offset="1.0" stop-color="#ffffcc" stop-opacity="0.0"/>
    </radialGradient>
    <radialGradient cx="0" cy="0" gradientTransform="matrix(-8.0E-4, 0.002, -0.0048, -0.0014, -18.15, -4.5)" gradientUnits="userSpaceOnUse" id="decoration214-gradient16" r="819.2" spreadMethod="pad">
      <stop offset="0.0" stop-color="#ffffcc"/>
      <stop offset="1.0" stop-color="#ffffcc" stop-opacity="0.0"/>
    </radialGradient>
    <radialGradient cx="0" cy="0" gradientTransform="matrix(9.0E-4, 0.002, -0.0043, 0.0025, -15.95, 9.5)" gradientUnits="userSpaceOnUse" id="decoration214-gradient17" r="819.2" spreadMethod="pad">
      <stop offset="0.0" stop-color="#ffffcc"/>
      <stop offset="1.0" stop-color="#ffffcc" stop-opacity="0.0"/>
    </radialGradient>
    <radialGradient cx="0" cy="0" gradientTransform="matrix(0.0021, 7.0E-4, -0.001, 0.0049, -4.65, 17.05)" gradientUnits="userSpaceOnUse" id="decoration214-gradient18" r="819.2" spreadMethod="pad">
      <stop offset="0.0" stop-color="#ffffcc"/>
      <stop offset="1.0" stop-color="#ffffcc" stop-opacity="0.0"/>
    </radialGradient>
    <radialGradient cx="0" cy="0" gradientTransform="matrix(0.0044, 0.0025, -0.0048, 0.0106, -16.75, 28.25)" gradientUnits="userSpaceOnUse" id="decoration214-gradient19" r="819.2" spreadMethod="pad">
      <stop offset="0.0" stop-color="#ffffcc"/>
      <stop offset="1.0" stop-color="#ffffcc" stop-opacity="0.0"/>
    </radialGradient>
    <radialGradient cx="0" cy="0" gradientTransform="matrix(-8.0E-4, -0.005, 0.0113, -0.003, -31.7, 8.0)" gradientUnits="userSpaceOnUse" id="decoration214-gradient20" r="819.2" spreadMethod="pad">
      <stop offset="0.0" stop-color="#ffffcc"/>
      <stop offset="1.0" stop-color="#ffffcc" stop-opacity="0.0"/>
    </radialGradient>
    <radialGradient cx="0" cy="0" gradientTransform="matrix(0.0015, 0.0049, -0.0107, 0.0046, -46.45, 24.3)" gradientUnits="userSpaceOnUse" id="decoration214-gradient21" r="819.2" spreadMethod="pad">
      <stop offset="0.0" stop-color="#ffffcc"/>
      <stop offset="1.0" stop-color="#ffffcc" stop-opacity="0.0"/>
    </radialGradient>
    <radialGradient cx="0" cy="0" gradientTransform="matrix(0.0035, 0.0037, -0.0076, 0.0089, -32.7, 31.95)" gradientUnits="userSpaceOnUse" id="decoration214-gradient22" r="819.2" spreadMethod="pad">
      <stop offset="0.0" stop-color="#ffffcc"/>
      <stop offset="1.0" stop-color="#ffffcc" stop-opacity="0.0"/>
    </radialGradient>
    <radialGradient cx="0" cy="0" gradientTransform="matrix(0.0048, 0.0018, -0.0029, 0.0113, -16.15, 49.9)" gradientUnits="userSpaceOnUse" id="decoration214-gradient23" r="819.2" spreadMethod="pad">
      <stop offset="0.0" stop-color="#ffffcc"/>
      <stop offset="1.0" stop-color="#ffffcc" stop-opacity="0.0"/>
    </radialGradient>
    <radialGradient cx="0" cy="0" gradientTransform="matrix(0.0051, 4.0E-4, 3.0E-4, 0.0117, -0.8, 41.9)" gradientUnits="userSpaceOnUse" id="decoration214-gradient24" r="819.2" spreadMethod="pad">
      <stop offset="0.0" stop-color="#ffffcc"/>
      <stop offset="1.0" stop-color="#ffffcc" stop-opacity="0.0"/>
    </radialGradient>
    <radialGradient cx="0" cy="0" gradientTransform="matrix(0.0021, -0.0047, 0.0111, 0.0036, 50.0, 14.45)" gradientUnits="userSpaceOnUse" id="decoration214-gradient25" r="819.2" spreadMethod="pad">
      <stop offset="0.0" stop-color="#ffffcc"/>
      <stop offset="1.0" stop-color="#ffffcc" stop-opacity="0.0"/>
    </radialGradient>
    <radialGradient cx="0" cy="0" gradientTransform="matrix(0.003, -0.0041, 0.0101, 0.0058, 29.15, 16.25)" gradientUnits="userSpaceOnUse" id="decoration214-gradient26" r="819.2" spreadMethod="pad">
      <stop offset="0.0" stop-color="#ffffcc"/>
      <stop offset="1.0" stop-color="#ffffcc" stop-opacity="0.0"/>
    </radialGradient>
    <radialGradient cx="0" cy="0" gradientTransform="matrix(-6.0E-4, 0.0021, -0.0049, -0.001, 16.3, 3.75)" gradientUnits="userSpaceOnUse" id="decoration214-gradient27" r="819.2" spreadMethod="pad">
      <stop offset="0.0" stop-color="#ffffcc"/>
      <stop offset="1.0" stop-color="#ffffcc" stop-opacity="0.0"/>
    </radialGradient>
    <radialGradient cx="0" cy="0" gradientTransform="matrix(0.0038, -0.0034, 0.0087, 0.0078, 30.1, 29.85)" gradientUnits="userSpaceOnUse" id="decoration214-gradient28" r="819.2" spreadMethod="pad">
      <stop offset="0.0" stop-color="#ffffcc"/>
      <stop offset="1.0" stop-color="#ffffcc" stop-opacity="0.0"/>
    </radialGradient>
    <radialGradient cx="0" cy="0" gradientTransform="matrix(0.002, -7.0E-4, 0.0022, 0.0045, 9.1, 15.1)" gradientUnits="userSpaceOnUse" id="decoration214-gradient29" r="819.2" spreadMethod="pad">
      <stop offset="0.0" stop-color="#ffffcc"/>
      <stop offset="1.0" stop-color="#ffffcc" stop-opacity="0.0"/>
    </radialGradient>
    <radialGradient cx="0" cy="0" gradientTransform="matrix(0.0051, -3.0E-4, 0.0018, 0.0115, 8.3, 31.1)" gradientUnits="userSpaceOnUse" id="decoration214-gradient30" r="819.2" spreadMethod="pad">
      <stop offset="0.0" stop-color="#ffffcc"/>
      <stop offset="1.0" stop-color="#ffffcc" stop-opacity="0.0"/>
    </radialGradient>
    <radialGradient cx="0" cy="0" gradientTransform="matrix(0.0047, -0.002, 0.0058, 0.0101, 23.7, 43.4)" gradientUnits="userSpaceOnUse" id="decoration214-gradient31" r="819.2" spreadMethod="pad">
      <stop offset="0.0" stop-color="#ffffcc"/>
      <stop offset="1.0" stop-color="#ffffcc" stop-opacity="0.0"/>
    </radialGradient>
    <radialGradient cx="0" cy="0" gradientTransform="matrix(0.0187, 0.0, 0.0, 0.0187, 11.25, -38.4)" gradientUnits="userSpaceOnUse" id="decoration214-gradient32" r="819.2" spreadMethod="pad">
      <stop offset="0.00784313725490196" stop-color="#d9851d"/>
      <stop offset="0.42745098039215684" stop-color="#ffbb12"/>
      <stop offset="0.7490196078431373" stop-color="#ffe6aa"/>
      <stop offset="1.0" stop-color="#ffffff"/>
    </radialGradient>
    <radialGradient cx="0" cy="0" gradientTransform="matrix(0.0161, 0.0, 0.0, 0.0161, 24.0, -24.35)" gradientUnits="userSpaceOnUse" id="decoration214-gradient33" r="819.2" spreadMethod="pad">
      <stop offset="0.00784313725490196" stop-color="#d9851d"/>
      <stop offset="0.42745098039215684" stop-color="#ffbb12"/>
      <stop offset="0.7490196078431373" stop-color="#ffe6aa"/>
      <stop offset="1.0" stop-color="#ffffff"/>
    </radialGradient>
    <radialGradient cx="0" cy="0" gradientTransform="matrix(0.0162, 0.0, 0.0, 0.0162, -0.6, -34.0)" gradientUnits="userSpaceOnUse" id="decoration214-gradient34" r="819.2" spreadMethod="pad">
      <stop offset="0.00784313725490196" stop-color="#d9851d"/>
      <stop offset="0.42745098039215684" stop-color="#ffbb12"/>
      <stop offset="0.7490196078431373" stop-color="#ffe6aa"/>
      <stop offset="1.0" stop-color="#ffffff"/>
    </radialGradient>
    <radialGradient cx="0" cy="0" gradientTransform="matrix(0.0127, 0.0, 0.0, 0.0127, 12.75, -22.9)" gradientUnits="userSpaceOnUse" id="decoration214-gradient35" r="819.2" spreadMethod="pad">
      <stop offset="0.00784313725490196" stop-color="#d9851d"/>
      <stop offset="0.42745098039215684" stop-color="#ffbb12"/>
      <stop offset="0.7490196078431373" stop-color="#ffe6aa"/>
      <stop offset="1.0" stop-color="#ffffff"/>
    </radialGradient>
    <radialGradient cx="0" cy="0" gradientTransform="matrix(0.0066, 0.0, 0.0, 0.0066, 3.05, -14.1)" gradientUnits="userSpaceOnUse" id="decoration214-gradient36" r="819.2" spreadMethod="pad">
      <stop offset="0.00784313725490196" stop-color="#d9851d"/>
      <stop offset="0.42745098039215684" stop-color="#ffbb12"/>
      <stop offset="0.7490196078431373" stop-color="#ffe6aa"/>
      <stop offset="1.0" stop-color="#ffffff"/>
    </radialGradient>
    <radialGradient cx="0" cy="0" gradientTransform="matrix(0.0066, 0.0, 0.0, 0.0066, 11.95, -7.7)" gradientUnits="userSpaceOnUse" id="decoration214-gradient37" r="819.2" spreadMethod="pad">
      <stop offset="0.00784313725490196" stop-color="#d9851d"/>
      <stop offset="0.42745098039215684" stop-color="#ffbb12"/>
      <stop offset="0.7490196078431373" stop-color="#ffe6aa"/>
      <stop offset="1.0" stop-color="#ffffff"/>
    </radialGradient>
    <radialGradient cx="0" cy="0" gradientTransform="matrix(0.0122, 0.0, 0.0, 0.0122, 25.0, -7.55)" gradientUnits="userSpaceOnUse" id="decoration214-gradient38" r="819.2" spreadMethod="pad">
      <stop offset="0.00784313725490196" stop-color="#d9851d"/>
      <stop offset="0.42745098039215684" stop-color="#ffbb12"/>
      <stop offset="0.7490196078431373" stop-color="#ffe6aa"/>
      <stop offset="1.0" stop-color="#ffffff"/>
    </radialGradient>
    <radialGradient cx="0" cy="0" gradientTransform="matrix(0.019, 0.0, 0.0, 0.019, 35.0, -19.35)" gradientUnits="userSpaceOnUse" id="decoration214-gradient39" r="819.2" spreadMethod="pad">
      <stop offset="0.00784313725490196" stop-color="#d9851d"/>
      <stop offset="0.42745098039215684" stop-color="#ffbb12"/>
      <stop offset="0.7490196078431373" stop-color="#ffe6aa"/>
      <stop offset="1.0" stop-color="#ffffff"/>
    </radialGradient>
    <radialGradient cx="0" cy="0" gradientTransform="matrix(0.0161, 0.0, 0.0, 0.0161, 33.7, 0.25)" gradientUnits="userSpaceOnUse" id="decoration214-gradient40" r="819.2" spreadMethod="pad">
      <stop offset="0.00784313725490196" stop-color="#d9851d"/>
      <stop offset="0.42745098039215684" stop-color="#ffbb12"/>
      <stop offset="0.7490196078431373" stop-color="#ffe6aa"/>
      <stop offset="1.0" stop-color="#ffffff"/>
    </radialGradient>
    <radialGradient cx="0" cy="0" gradientTransform="matrix(0.0188, 0.0, 0.0, 0.0188, -20.4, -35.7)" gradientUnits="userSpaceOnUse" id="decoration214-gradient41" r="819.2" spreadMethod="pad">
      <stop offset="0.00784313725490196" stop-color="#d9851d"/>
      <stop offset="0.42745098039215684" stop-color="#ffbb12"/>
      <stop offset="0.7490196078431373" stop-color="#ffe6aa"/>
      <stop offset="1.0" stop-color="#ffffff"/>
    </radialGradient>
    <radialGradient cx="0" cy="0" gradientTransform="matrix(0.0187, 0.0, 0.0, 0.0187, -39.5, -12.05)" gradientUnits="userSpaceOnUse" id="decoration214-gradient42" r="819.2" spreadMethod="pad">
      <stop offset="0.00784313725490196" stop-color="#d9851d"/>
      <stop offset="0.42745098039215684" stop-color="#ffbb12"/>
      <stop offset="0.7490196078431373" stop-color="#ffe6aa"/>
      <stop offset="1.0" stop-color="#ffffff"/>
    </radialGradient>
    <radialGradient cx="0" cy="0" gradientTransform="matrix(0.0161, 0.0, 0.0, 0.0161, -34.9, -0.05)" gradientUnits="userSpaceOnUse" id="decoration214-gradient43" r="819.2" spreadMethod="pad">
      <stop offset="0.00784313725490196" stop-color="#d9851d"/>
      <stop offset="0.42745098039215684" stop-color="#ffbb12"/>
      <stop offset="0.7490196078431373" stop-color="#ffe6aa"/>
      <stop offset="1.0" stop-color="#ffffff"/>
    </radialGradient>
    <radialGradient cx="0" cy="0" gradientTransform="matrix(0.0126, 0.0, 0.0, 0.0126, -8.35, -25.35)" gradientUnits="userSpaceOnUse" id="decoration214-gradient44" r="819.2" spreadMethod="pad">
      <stop offset="0.00784313725490196" stop-color="#d9851d"/>
      <stop offset="0.42745098039215684" stop-color="#ffbb12"/>
      <stop offset="0.7490196078431373" stop-color="#ffe6aa"/>
      <stop offset="1.0" stop-color="#ffffff"/>
    </radialGradient>
    <radialGradient cx="0" cy="0" gradientTransform="matrix(0.0165, 0.0, 0.0, 0.0165, -25.0, -24.2)" gradientUnits="userSpaceOnUse" id="decoration214-gradient45" r="819.2" spreadMethod="pad">
      <stop offset="0.00784313725490196" stop-color="#d9851d"/>
      <stop offset="0.42745098039215684" stop-color="#ffbb12"/>
      <stop offset="0.7490196078431373" stop-color="#ffe6aa"/>
      <stop offset="1.0" stop-color="#ffffff"/>
    </radialGradient>
    <radialGradient cx="0" cy="0" gradientTransform="matrix(0.0127, 0.0, 0.0, 0.0127, -24.85, -11.95)" gradientUnits="userSpaceOnUse" id="decoration214-gradient46" r="819.2" spreadMethod="pad">
      <stop offset="0.00784313725490196" stop-color="#d9851d"/>
      <stop offset="0.42745098039215684" stop-color="#ffbb12"/>
      <stop offset="0.7490196078431373" stop-color="#ffe6aa"/>
      <stop offset="1.0" stop-color="#ffffff"/>
    </radialGradient>
    <radialGradient cx="0" cy="0" gradientTransform="matrix(0.0066, 0.0, 0.0, 0.0066, -8.45, -12.45)" gradientUnits="userSpaceOnUse" id="decoration214-gradient47" r="819.2" spreadMethod="pad">
      <stop offset="0.00784313725490196" stop-color="#d9851d"/>
      <stop offset="0.42745098039215684" stop-color="#ffbb12"/>
      <stop offset="0.7490196078431373" stop-color="#ffe6aa"/>
      <stop offset="1.0" stop-color="#ffffff"/>
    </radialGradient>
    <radialGradient cx="0" cy="0" gradientTransform="matrix(0.0065, 0.0, 0.0, 0.0065, -14.95, -3.4)" gradientUnits="userSpaceOnUse" id="decoration214-gradient48" r="819.2" spreadMethod="pad">
      <stop offset="0.00784313725490196" stop-color="#d9851d"/>
      <stop offset="0.42745098039215684" stop-color="#ffbb12"/>
      <stop offset="0.7490196078431373" stop-color="#ffe6aa"/>
      <stop offset="1.0" stop-color="#ffffff"/>
    </radialGradient>
    <radialGradient cx="0" cy="0" gradientTransform="matrix(0.0067, 0.0, 0.0, 0.0067, -13.05, 8.15)" gradientUnits="userSpaceOnUse" id="decoration214-gradient49" r="819.2" spreadMethod="pad">
      <stop offset="0.00784313725490196" stop-color="#d9851d"/>
      <stop offset="0.42745098039215684" stop-color="#ffbb12"/>
      <stop offset="0.7490196078431373" stop-color="#ffe6aa"/>
      <stop offset="1.0" stop-color="#ffffff"/>
    </radialGradient>
    <radialGradient cx="0" cy="0" gradientTransform="matrix(0.0066, 0.0, 0.0, 0.0066, -4.05, 14.25)" gradientUnits="userSpaceOnUse" id="decoration214-gradient50" r="819.2" spreadMethod="pad">
      <stop offset="0.00784313725490196" stop-color="#d9851d"/>
      <stop offset="0.42745098039215684" stop-color="#ffbb12"/>
      <stop offset="0.7490196078431373" stop-color="#ffe6aa"/>
      <stop offset="1.0" stop-color="#ffffff"/>
    </radialGradient>
    <radialGradient cx="0" cy="0" gradientTransform="matrix(0.0126, 0.0, 0.0, 0.0126, -25.9, 7.8)" gradientUnits="userSpaceOnUse" id="decoration214-gradient51" r="819.2" spreadMethod="pad">
      <stop offset="0.00784313725490196" stop-color="#d9851d"/>
      <stop offset="0.42745098039215684" stop-color="#ffbb12"/>
      <stop offset="0.7490196078431373" stop-color="#ffe6aa"/>
      <stop offset="1.0" stop-color="#ffffff"/>
    </radialGradient>
    <radialGradient cx="0" cy="0" gradientTransform="matrix(0.0165, 0.0, 0.0, 0.0165, -25.0, 24.6)" gradientUnits="userSpaceOnUse" id="decoration214-gradient52" r="819.2" spreadMethod="pad">
      <stop offset="0.00784313725490196" stop-color="#d9851d"/>
      <stop offset="0.42745098039215684" stop-color="#ffbb12"/>
      <stop offset="0.7490196078431373" stop-color="#ffe6aa"/>
      <stop offset="1.0" stop-color="#ffffff"/>
    </radialGradient>
    <radialGradient cx="0" cy="0" gradientTransform="matrix(0.0127, 0.0, 0.0, 0.0127, -13.8, 22.9)" gradientUnits="userSpaceOnUse" id="decoration214-gradient53" r="819.2" spreadMethod="pad">
      <stop offset="0.00784313725490196" stop-color="#d9851d"/>
      <stop offset="0.42745098039215684" stop-color="#ffbb12"/>
      <stop offset="0.7490196078431373" stop-color="#ffe6aa"/>
      <stop offset="1.0" stop-color="#ffffff"/>
    </radialGradient>
    <radialGradient cx="0" cy="0" gradientTransform="matrix(0.0187, 0.0, 0.0, 0.0187, -12.75, 38.75)" gradientUnits="userSpaceOnUse" id="decoration214-gradient54" r="819.2" spreadMethod="pad">
      <stop offset="0.00784313725490196" stop-color="#d9851d"/>
      <stop offset="0.42745098039215684" stop-color="#ffbb12"/>
      <stop offset="0.7490196078431373" stop-color="#ffe6aa"/>
      <stop offset="1.0" stop-color="#ffffff"/>
    </radialGradient>
    <radialGradient cx="0" cy="0" gradientTransform="matrix(0.0188, 0.0, 0.0, 0.0188, -36.35, 19.9)" gradientUnits="userSpaceOnUse" id="decoration214-gradient55" r="819.2" spreadMethod="pad">
      <stop offset="0.00784313725490196" stop-color="#d9851d"/>
      <stop offset="0.42745098039215684" stop-color="#ffbb12"/>
      <stop offset="0.7490196078431373" stop-color="#ffe6aa"/>
      <stop offset="1.0" stop-color="#ffffff"/>
    </radialGradient>
    <radialGradient cx="0" cy="0" gradientTransform="matrix(0.0187, 0.0, 0.0, 0.0187, 38.15, 12.15)" gradientUnits="userSpaceOnUse" id="decoration214-gradient56" r="819.2" spreadMethod="pad">
      <stop offset="0.00784313725490196" stop-color="#d9851d"/>
      <stop offset="0.42745098039215684" stop-color="#ffbb12"/>
      <stop offset="0.7490196078431373" stop-color="#ffe6aa"/>
      <stop offset="1.0" stop-color="#ffffff"/>
    </radialGradient>
    <radialGradient cx="0" cy="0" gradientTransform="matrix(0.0128, 0.0, 0.0, 0.0128, 22.45, 13.35)" gradientUnits="userSpaceOnUse" id="decoration214-gradient57" r="819.2" spreadMethod="pad">
      <stop offset="0.00784313725490196" stop-color="#d9851d"/>
      <stop offset="0.42745098039215684" stop-color="#ffbb12"/>
      <stop offset="0.7490196078431373" stop-color="#ffe6aa"/>
      <stop offset="1.0" stop-color="#ffffff"/>
    </radialGradient>
    <radialGradient cx="0" cy="0" gradientTransform="matrix(0.0066, 0.0, 0.0, 0.0066, 13.9, 3.7)" gradientUnits="userSpaceOnUse" id="decoration214-gradient58" r="819.2" spreadMethod="pad">
      <stop offset="0.00784313725490196" stop-color="#d9851d"/>
      <stop offset="0.42745098039215684" stop-color="#ffbb12"/>
      <stop offset="0.7490196078431373" stop-color="#ffe6aa"/>
      <stop offset="1.0" stop-color="#ffffff"/>
    </radialGradient>
    <radialGradient cx="0" cy="0" gradientTransform="matrix(0.0066, 0.0, 0.0, 0.0066, 7.35, 12.6)" gradientUnits="userSpaceOnUse" id="decoration214-gradient59" r="819.2" spreadMethod="pad">
      <stop offset="0.00784313725490196" stop-color="#d9851d"/>
      <stop offset="0.42745098039215684" stop-color="#ffbb12"/>
      <stop offset="0.7490196078431373" stop-color="#ffe6aa"/>
      <stop offset="1.0" stop-color="#ffffff"/>
    </radialGradient>
    <radialGradient cx="0" cy="0" gradientTransform="matrix(0.0125, 0.0, 0.0, 0.0125, 7.15, 25.5)" gradientUnits="userSpaceOnUse" id="decoration214-gradient60" r="819.2" spreadMethod="pad">
      <stop offset="0.00784313725490196" stop-color="#d9851d"/>
      <stop offset="0.42745098039215684" stop-color="#ffbb12"/>
      <stop offset="0.7490196078431373" stop-color="#ffe6aa"/>
      <stop offset="1.0" stop-color="#ffffff"/>
    </radialGradient>
    <radialGradient cx="0" cy="0" gradientTransform="matrix(0.0161, 0.0, 0.0, 0.0161, -0.6, 34.4)" gradientUnits="userSpaceOnUse" id="decoration214-gradient61" r="819.2" spreadMethod="pad">
      <stop offset="0.00784313725490196" stop-color="#d9851d"/>
      <stop offset="0.42745098039215684" stop-color="#ffbb12"/>
      <stop offset="0.7490196078431373" stop-color="#ffe6aa"/>
      <stop offset="1.0" stop-color="#ffffff"/>
    </radialGradient>
    <radialGradient cx="0" cy="0" gradientTransform="matrix(0.0164, 0.0, 0.0, 0.0164, 23.7, 24.3)" gradientUnits="userSpaceOnUse" id="decoration214-gradient62" r="819.2" spreadMethod="pad">
      <stop offset="0.00784313725490196" stop-color="#d9851d"/>
      <stop offset="0.42745098039215684" stop-color="#ffbb12"/>
      <stop offset="0.7490196078431373" stop-color="#ffe6aa"/>
      <stop offset="1.0" stop-color="#ffffff"/>
    </radialGradient>
    <radialGradient cx="0" cy="0" gradientTransform="matrix(0.0188, 0.0, 0.0, 0.0188, 18.9, 35.55)" gradientUnits="userSpaceOnUse" id="decoration214-gradient63" r="819.2" spreadMethod="pad">
      <stop offset="0.00784313725490196" stop-color="#d9851d"/>
      <stop offset="0.42745098039215684" stop-color="#ffbb12"/>
      <stop offset="0.7490196078431373" stop-color="#ffe6aa"/>
      <stop offset="1.0" stop-color="#ffffff"/>
    </radialGradient>
  </defs>
</svg>
