<?xml version="1.0" encoding="UTF-8" standalone="no"?>
<svg xmlns:xlink="http://www.w3.org/1999/xlink" height="59.15px" width="48.3px" xmlns="http://www.w3.org/2000/svg">
  <g transform="matrix(1.0, 0.0, 0.0, 1.0, 24.55, 0.1)">
    <use height="59.15" transform="matrix(1.0, 0.0, 0.0, 1.0, -24.55, -0.1)" width="48.3" xlink:href="#decoration215-shape0"/>
  </g>
  <defs>
    <g id="decoration215-shape0" transform="matrix(1.0, 0.0, 0.0, 1.0, 24.55, 0.1)">
      <path d="M-0.5 4.45 L-0.7 4.15 -0.9 3.85 -1.15 2.45 Q-1.15 1.4 -0.7 0.7 -0.2 0.0 0.5 0.0 1.15 0.0 1.6 0.7 2.15 1.4 2.15 2.45 2.15 3.5 1.6 4.15 L1.45 4.45 -0.5 4.45 M1.6 2.45 L1.35 1.35 1.25 1.15 Q0.9 0.6 0.5 0.6 0.0 0.6 -0.3 1.15 -0.65 1.7 -0.65 2.45 -0.65 3.25 -0.3 3.75 0.0 4.3 0.5 4.3 L1.25 3.75 1.5 3.25 1.6 2.45" fill="#fac733" fill-rule="evenodd" stroke="none"/>
      <path d="M-0.5 4.45 L1.45 4.45 1.35 4.6 Q2.7 5.0 3.9 6.8 L2.5 6.8 Q0.55 3.85 -1.9 6.8 L-3.25 6.8 Q-1.75 4.95 -0.35 4.6 L-0.5 4.45" fill="#c88a1f" fill-rule="evenodd" stroke="none"/>
      <path d="M1.6 2.45 L1.5 3.25 1.25 3.75 0.5 4.3 Q0.0 4.3 -0.3 3.75 -0.65 3.25 -0.65 2.45 -0.65 1.7 -0.3 1.15 0.0 0.6 0.5 0.6 0.9 0.6 1.25 1.15 L1.35 1.35 1.6 2.45 M1.45 4.45 L1.6 4.15 Q2.15 3.5 2.15 2.45 2.15 1.4 1.6 0.7 1.15 0.0 0.5 0.0 -0.2 0.0 -0.7 0.7 -1.15 1.4 -1.15 2.45 L-0.9 3.85 -0.7 4.15 -0.5 4.45 M1.45 4.45 L1.35 4.6 Q2.7 5.0 3.9 6.8 L2.5 6.8 Q0.55 3.85 -1.9 6.8 L-3.25 6.8 Q-1.75 4.95 -0.35 4.6 L-0.5 4.45" fill="none" stroke="#000000" stroke-linecap="round" stroke-linejoin="round" stroke-opacity="0.3019608" stroke-width="0.2"/>
      <path d="M23.75 32.0 Q23.75 43.25 16.7 51.2 9.6 59.05 -0.35 59.05 -10.35 59.05 -17.45 51.2 -24.55 43.25 -24.55 32.0 -24.55 20.85 -17.45 12.85 -10.35 4.95 -0.35 4.95 9.6 4.95 16.7 12.85 23.75 20.85 23.75 32.0" fill="url(#decoration215-gradient0)" fill-rule="evenodd" stroke="none"/>
      <path d="M0.65 39.25 L0.65 35.4 1.35 35.4 1.35 39.25 0.65 39.25 M2.4 39.25 L2.4 34.25 3.1 34.25 3.1 39.25 2.4 39.25 M4.6 39.25 L4.6 35.4 5.3 35.4 5.3 39.25 4.6 39.25 M-1.15 39.25 L-1.15 34.25 -0.45 34.25 -0.45 39.25 -1.15 39.25 M-6.8 39.25 L-6.8 35.4 -6.15 35.4 -6.15 39.25 -6.8 39.25 M-3.0 39.25 L-3.0 35.4 -2.35 35.4 -2.35 39.25 -3.0 39.25 M-5.05 39.25 L-5.05 34.25 -4.35 34.25 -4.35 39.25 -5.05 39.25" fill="#c88a1f" fill-rule="evenodd" stroke="none"/>
      <path d="M1.35 39.25 L1.35 44.1 0.65 44.1 0.65 39.25 1.35 39.25 M3.1 39.25 L3.1 43.0 2.4 43.0 2.4 39.25 3.1 39.25 M5.3 39.25 L5.3 44.1 4.6 44.1 4.6 39.25 5.3 39.25 M-0.45 39.25 L-0.45 43.0 -1.15 43.0 -1.15 39.25 -0.45 39.25 M-6.15 39.25 L-6.15 44.1 -6.8 44.1 -6.8 39.25 -6.15 39.25 M-2.35 39.25 L-2.35 44.1 -3.0 44.1 -3.0 39.25 -2.35 39.25 M-4.35 39.25 L-4.35 43.0 -5.05 43.0 -5.05 39.25 -4.35 39.25" fill="#fac733" fill-rule="evenodd" stroke="none"/>
      <path d="M0.65 39.25 L0.65 35.4 1.35 35.4 1.35 39.25 1.35 44.1 0.65 44.1 0.65 39.25 M2.4 39.25 L2.4 34.25 3.1 34.25 3.1 39.25 3.1 43.0 2.4 43.0 2.4 39.25 M4.6 39.25 L4.6 35.4 5.3 35.4 5.3 39.25 5.3 44.1 4.6 44.1 4.6 39.25 M-1.15 39.25 L-1.15 34.25 -0.45 34.25 -0.45 39.25 -0.45 43.0 -1.15 43.0 -1.15 39.25 M-6.8 39.25 L-6.8 35.4 -6.15 35.4 -6.15 39.25 -6.15 44.1 -6.8 44.1 -6.8 39.25 M-3.0 39.25 L-3.0 35.4 -2.35 35.4 -2.35 39.25 -2.35 44.1 -3.0 44.1 -3.0 39.25 M-5.05 39.25 L-5.05 34.25 -4.35 34.25 -4.35 39.25 -4.35 43.0 -5.05 43.0 -5.05 39.25" fill="none" stroke="#000000" stroke-linecap="round" stroke-linejoin="round" stroke-opacity="0.3019608" stroke-width="0.2"/>
      <path d="M8.75 34.1 L8.75 35.45 4.3 35.45 4.3 34.1 8.75 34.1" fill="#c26721" fill-rule="evenodd" stroke="none"/>
      <path d="M4.3 35.45 L-3.55 35.45 -3.55 34.05 4.3 34.1 4.3 35.45 M-5.95 35.45 L-9.25 35.45 -9.2 34.05 -5.95 34.05 -5.95 35.45" fill="#f2932e" fill-rule="evenodd" stroke="none"/>
      <path d="M4.3 32.45 L8.8 30.85 8.75 34.1 4.3 34.1 4.3 32.45" fill="#c88a1f" fill-rule="evenodd" stroke="none"/>
      <path d="M-9.2 34.05 L-9.2 30.6 -5.95 32.45 -5.95 34.05 -9.2 34.05 M-3.55 32.45 L4.3 32.45 4.3 34.1 -3.55 34.05 -3.55 32.45" fill="#fac733" fill-rule="evenodd" stroke="none"/>
      <path d="M-5.95 32.45 L-3.55 32.45 -3.55 34.05 -5.95 34.05 -5.95 32.45" fill="#fee83a" fill-rule="evenodd" stroke="none"/>
      <path d="M-3.55 35.45 L-5.95 35.45 -5.95 34.05 -3.55 34.05 -3.55 35.45" fill="#f8d337" fill-rule="evenodd" stroke="none"/>
      <path d="M4.3 32.45 L8.8 30.85 8.75 34.1 8.75 35.45 4.3 35.45 -3.55 35.45 -5.95 35.45 -9.25 35.45 -9.2 34.05 -9.2 30.6 -5.95 32.45 -3.55 32.45 4.3 32.45 Z" fill="none" stroke="#000000" stroke-linecap="round" stroke-linejoin="round" stroke-opacity="0.3019608" stroke-width="0.2"/>
      <path d="M4.3 6.55 L8.75 6.55 8.75 7.8 4.3 7.8 4.3 6.55" fill="#c88a1f" fill-rule="evenodd" stroke="none"/>
      <path d="M8.75 7.8 L8.7 10.9 4.3 8.95 4.3 7.8 8.75 7.8" fill="#c26721" fill-rule="evenodd" stroke="none"/>
      <path d="M-9.2 7.8 L-9.25 6.55 -5.95 6.55 -5.95 7.8 -9.2 7.8 M-3.55 6.55 L4.3 6.55 4.3 7.8 -3.55 7.8 -3.55 6.55" fill="#fac733" fill-rule="evenodd" stroke="none"/>
      <path d="M4.3 8.95 L-3.55 8.95 -3.55 7.8 4.3 7.8 4.3 8.95 M-5.95 8.95 L-9.35 11.2 -9.2 7.8 -5.95 7.8 -5.95 8.95" fill="#f2932e" fill-rule="evenodd" stroke="none"/>
      <path d="M-3.55 8.95 L-5.95 8.95 -5.95 7.8 -3.55 7.8 -3.55 8.95" fill="#f8d337" fill-rule="evenodd" stroke="none"/>
      <path d="M-5.95 6.55 L-3.55 6.55 -3.55 7.8 -5.95 7.8 -5.95 6.55" fill="#fee83a" fill-rule="evenodd" stroke="none"/>
      <path d="M8.75 7.8 L8.7 10.9 4.3 8.95 -3.55 8.95 -5.95 8.95 -9.35 11.2 -9.2 7.8 -9.25 6.55 -5.95 6.55 -3.55 6.55 4.3 6.55 8.75 6.55 8.75 7.8 Z" fill="none" stroke="#000000" stroke-linecap="round" stroke-linejoin="round" stroke-opacity="0.3019608" stroke-width="0.2"/>
      <path d="M11.15 11.35 Q19.2 20.05 11.7 30.8 9.6 31.8 7.25 32.45 9.35 27.45 9.9 23.15 12.55 18.6 11.15 11.35 M14.6 29.0 Q19.6 18.6 12.4 11.15 L13.6 11.9 Q19.35 15.55 19.35 20.75 19.35 25.5 14.6 29.0 M3.7 28.35 Q6.35 27.15 8.1 25.45 7.3 29.0 5.2 32.9 L2.2 33.3 Q3.15 30.85 3.7 28.35 M2.05 29.0 L0.6 33.3 -1.1 33.3 -2.2 30.05 2.05 29.0 M-6.6 30.55 L-6.1 30.5 -3.8 30.3 -2.65 33.3 -5.05 33.0 -6.6 30.55 M-11.65 30.6 L-8.5 30.6 -8.4 30.6 -7.35 32.5 -10.9 31.3 -11.65 30.6" fill="#a11c22" fill-rule="evenodd" stroke="none"/>
      <path d="M11.15 11.35 L11.0 10.4 12.4 11.15 Q19.6 18.6 14.6 29.0 L13.25 29.85 11.7 30.8 Q19.2 20.05 11.15 11.35 M9.9 23.15 Q9.35 27.45 7.25 32.45 L5.2 32.9 Q7.3 29.0 8.1 25.45 L9.9 23.15 M3.7 28.35 Q3.15 30.85 2.2 33.3 L0.6 33.3 2.05 29.0 3.7 28.35 M-3.8 30.3 L-2.2 30.05 -1.1 33.3 -2.65 33.3 -3.8 30.3 M-6.6 30.5 L-6.6 30.55 -5.05 33.0 -7.35 32.5 -8.4 30.6 -6.6 30.5 M-12.45 30.6 L-11.65 30.6 -10.9 31.3 -12.45 30.6" fill="#5d0814" fill-rule="evenodd" stroke="none"/>
      <path d="M11.0 10.4 L11.15 11.35 9.65 9.85 11.0 10.4 M1.05 8.2 L2.55 8.3 Q5.85 18.75 3.7 28.35 L2.05 29.0 Q4.5 19.15 1.05 8.2 M4.35 8.5 L6.45 8.95 Q11.0 14.8 9.9 23.15 L8.1 25.45 Q8.8 22.55 8.7 19.9 8.55 13.7 4.35 8.5 M-1.35 8.2 Q-3.65 14.25 -3.6 20.55 -3.55 25.25 -2.2 30.05 L-3.8 30.3 Q-5.1 26.15 -5.15 21.6 -5.15 15.3 -2.9 8.3 L-1.35 8.2 M-6.55 8.85 L-4.85 8.55 Q-9.2 14.65 -9.25 20.85 -9.3 25.75 -6.6 30.5 L-8.4 30.6 Q-14.1 19.1 -6.55 8.85 M-14.1 11.95 L-12.8 11.2 -10.55 10.05 Q-20.45 21.3 -11.65 30.6 L-12.45 30.6 -14.25 29.5 Q-20.1 21.15 -14.1 11.95" fill="#850b1d" fill-rule="evenodd" stroke="none"/>
      <path d="M9.65 9.85 L11.15 11.35 Q12.55 18.6 9.9 23.15 11.0 14.8 6.45 8.95 L9.65 9.85 M2.55 8.3 L4.35 8.5 Q8.55 13.7 8.7 19.9 8.8 22.55 8.1 25.45 6.35 27.15 3.7 28.35 5.85 18.75 2.55 8.3 M1.05 8.2 Q4.5 19.15 2.05 29.0 L-2.2 30.05 Q-3.55 25.25 -3.6 20.55 -3.65 14.25 -1.35 8.2 L1.05 8.2 M-4.85 8.55 L-2.9 8.3 Q-5.15 15.3 -5.15 21.6 -5.1 26.15 -3.8 30.3 L-6.1 30.5 -6.6 30.55 -6.6 30.5 Q-9.3 25.75 -9.25 20.85 -9.2 14.65 -4.85 8.55 M-10.55 10.05 Q-8.65 9.3 -6.55 8.85 -14.1 19.1 -8.4 30.6 L-8.5 30.6 -11.65 30.6 Q-20.45 21.3 -10.55 10.05 M-14.25 29.5 Q-19.7 25.85 -19.7 20.75 -19.7 15.6 -14.1 11.95 -20.1 21.15 -14.25 29.5" fill="#c5232b" fill-rule="evenodd" stroke="none"/>
      <path d="M11.7 30.8 L13.25 29.85 14.6 29.0 M12.4 11.15 L11.0 10.4 9.65 9.85 M7.25 32.45 Q9.6 31.8 11.7 30.8 M12.4 11.15 L13.6 11.9 Q19.35 15.55 19.35 20.75 19.35 25.5 14.6 29.0 M1.05 8.2 L2.55 8.3 4.35 8.5 6.45 8.95 9.65 9.85 M5.2 32.9 L7.25 32.45 M2.2 33.3 L5.2 32.9 M0.6 33.3 L2.2 33.3 M1.05 8.2 L-1.35 8.2 M-2.9 8.3 L-1.35 8.2 M-4.85 8.55 L-2.9 8.3 M-1.1 33.3 L0.6 33.3 M-6.55 8.85 L-4.85 8.55 M-2.65 33.3 L-1.1 33.3 M-14.1 11.95 L-12.8 11.2 -10.55 10.05 Q-8.65 9.3 -6.55 8.85 M-14.25 29.5 Q-19.7 25.85 -19.7 20.75 -19.7 15.6 -14.1 11.95 M-14.25 29.5 L-12.45 30.6 M-10.9 31.3 L-7.35 32.5 M-2.65 33.3 L-5.05 33.0 -7.35 32.5 M-10.9 31.3 L-12.45 30.6" fill="none" stroke="#000000" stroke-linecap="round" stroke-linejoin="round" stroke-opacity="0.3019608" stroke-width="0.2"/>
    </g>
    <radialGradient cx="0" cy="0" gradientTransform="matrix(0.028, 0.0, 0.0, 0.0327, -0.35, 32.0)" gradientUnits="userSpaceOnUse" id="decoration215-gradient0" r="819.2" spreadMethod="pad">
      <stop offset="0.0" stop-color="#fffdf5" stop-opacity="0.8784314"/>
      <stop offset="0.14901960784313725" stop-color="#ffd202" stop-opacity="0.7019608"/>
      <stop offset="0.39215686274509803" stop-color="#f79331" stop-opacity="0.5411765"/>
      <stop offset="0.615686274509804" stop-color="#fcc86f" stop-opacity="0.14117648"/>
      <stop offset="1.0" stop-color="#ffdd87" stop-opacity="0.0"/>
    </radialGradient>
  </defs>
</svg>
