<?xml version="1.0" encoding="UTF-8" standalone="no"?>
<svg xmlns:xlink="http://www.w3.org/1999/xlink" height="47.25px" width="39.95px" xmlns="http://www.w3.org/2000/svg">
  <g transform="matrix(1.0, 0.0, 0.0, 1.0, 20.95, 0.1)">
    <use height="47.25" transform="matrix(1.0, 0.0, 0.0, 1.0, -20.95, -0.1)" width="39.95" xlink:href="#decoration216-shape0"/>
  </g>
  <defs>
    <g id="decoration216-shape0" transform="matrix(1.0, 0.0, 0.0, 1.0, 20.95, 0.1)">
      <path d="M-0.65 3.7 L-0.85 3.45 -1.05 3.2 -1.25 2.05 Q-1.25 1.2 -0.85 0.6 -0.45 0.0 0.15 0.0 0.7 0.0 1.05 0.6 1.5 1.2 1.5 2.05 1.5 2.9 1.05 3.45 L0.95 3.7 -0.65 3.7 M0.8 1.1 L0.75 1.0 0.15 0.55 -0.55 1.0 -0.85 2.05 -0.55 3.15 Q-0.25 3.55 0.15 3.55 L0.75 3.15 0.95 2.7 1.0 2.05 0.8 1.1" fill="#fac733" fill-rule="evenodd" stroke="none"/>
      <path d="M-0.65 3.7 L0.95 3.7 0.8 3.8 Q1.9 4.2 2.95 5.65 L1.8 5.65 Q0.15 3.2 -1.85 5.65 L-3.0 5.65 Q-1.75 4.15 -0.6 3.8 L-0.65 3.7" fill="#c88a1f" fill-rule="evenodd" stroke="none"/>
      <path d="M0.8 1.1 L1.0 2.05 0.95 2.7 0.75 3.15 0.15 3.55 Q-0.25 3.55 -0.55 3.15 L-0.85 2.05 -0.55 1.0 0.15 0.55 0.75 1.0 0.8 1.1 M0.95 3.7 L1.05 3.45 Q1.5 2.9 1.5 2.05 1.5 1.2 1.05 0.6 0.7 0.0 0.15 0.0 -0.45 0.0 -0.85 0.6 -1.25 1.2 -1.25 2.05 L-1.05 3.2 -0.85 3.45 -0.65 3.7 M0.95 3.7 L0.8 3.8 Q1.9 4.2 2.95 5.65 L1.8 5.65 Q0.15 3.2 -1.85 5.65 L-3.0 5.65 Q-1.75 4.15 -0.6 3.8 L-0.65 3.7" fill="none" stroke="#000000" stroke-linecap="round" stroke-linejoin="round" stroke-opacity="0.3019608" stroke-width="0.2"/>
      <path d="M13.15 40.65 Q7.3 47.15 -0.95 47.15 -9.2 47.15 -15.05 40.65 -20.95 34.05 -20.95 24.8 -20.95 15.5 -15.05 8.9 -9.2 2.4 -0.95 2.4 7.3 2.4 13.15 8.9 19.0 15.5 19.0 24.8 19.0 34.05 13.15 40.65" fill="url(#decoration216-gradient0)" fill-rule="evenodd" stroke="none"/>
      <path d="M4.2 41.4 L4.2 38.2 4.75 38.2 4.75 41.4 4.2 41.4 M0.95 41.4 L0.95 38.2 1.5 38.2 1.5 41.4 0.95 41.4 M-0.6 41.4 L-0.6 37.25 0.0 37.25 0.0 41.4 -0.6 41.4 M2.3 41.4 L2.3 37.25 2.9 37.25 2.9 41.4 2.3 41.4 M-2.15 41.4 L-2.15 38.2 -1.55 38.2 -1.55 41.4 -2.15 41.4 M-3.8 41.4 L-3.8 37.25 -3.2 37.25 -3.2 41.4 -3.8 41.4 M-5.25 41.4 L-5.25 38.2 -4.7 38.2 -4.7 41.4 -5.25 41.4" fill="#c88a1f" fill-rule="evenodd" stroke="none"/>
      <path d="M4.75 41.4 L4.75 45.4 4.2 45.4 4.2 41.4 4.75 41.4 M1.5 41.4 L1.5 45.4 0.95 45.4 0.95 41.4 1.5 41.4 M-0.6 41.4 L0.0 41.4 0.0 44.5 -0.6 44.5 -0.6 41.4 M2.9 41.4 L2.9 44.5 2.3 44.5 2.3 41.4 2.9 41.4 M-1.55 41.4 L-1.55 45.4 -2.15 45.4 -2.15 41.4 -1.55 41.4 M-3.2 41.4 L-3.2 44.5 -3.8 44.5 -3.8 41.4 -3.2 41.4 M-4.7 41.4 L-4.7 45.4 -5.25 45.4 -5.25 41.4 -4.7 41.4" fill="#fac733" fill-rule="evenodd" stroke="none"/>
      <path d="M4.2 41.4 L4.2 38.2 4.75 38.2 4.75 41.4 4.75 45.4 4.2 45.4 4.2 41.4 M0.95 41.4 L0.95 38.2 1.5 38.2 1.5 41.4 1.5 45.4 0.95 45.4 0.95 41.4 M0.0 41.4 L0.0 37.25 -0.6 37.25 -0.6 41.4 M0.0 41.4 L0.0 44.5 -0.6 44.5 -0.6 41.4 M2.3 41.4 L2.3 37.25 2.9 37.25 2.9 41.4 2.9 44.5 2.3 44.5 2.3 41.4 M-2.15 41.4 L-2.15 38.2 -1.55 38.2 -1.55 41.4 -1.55 45.4 -2.15 45.4 -2.15 41.4 M-3.8 41.4 L-3.8 37.25 -3.2 37.25 -3.2 41.4 -3.2 44.5 -3.8 44.5 -3.8 41.4 M-5.25 41.4 L-5.25 38.2 -4.7 38.2 -4.7 41.4 -4.7 45.4 -5.25 45.4 -5.25 41.4" fill="none" stroke="#000000" stroke-linecap="round" stroke-linejoin="round" stroke-opacity="0.3019608" stroke-width="0.2"/>
      <path d="M-7.6 37.6 L-7.65 36.55 -4.85 36.55 -4.85 37.6 -7.6 37.6 M-2.9 36.55 L3.6 36.55 3.6 37.6 -2.9 37.6 -2.9 36.55" fill="#fac733" fill-rule="evenodd" stroke="none"/>
      <path d="M3.6 36.55 L7.25 36.55 7.25 37.6 3.6 37.6 3.6 36.55" fill="#c88a1f" fill-rule="evenodd" stroke="none"/>
      <path d="M3.6 38.55 L-2.9 38.55 -2.9 37.6 3.6 37.6 3.6 38.55 M-4.85 38.55 L-7.65 38.55 -7.6 37.6 -4.85 37.6 -4.85 38.55" fill="#f2932e" fill-rule="evenodd" stroke="none"/>
      <path d="M7.25 37.6 L7.25 38.55 3.6 38.55 3.6 37.6 7.25 37.6" fill="#c26721" fill-rule="evenodd" stroke="none"/>
      <path d="M-4.85 36.55 L-2.9 36.55 -2.9 37.6 -4.85 37.6 -4.85 36.55" fill="#fee83a" fill-rule="evenodd" stroke="none"/>
      <path d="M-2.9 38.55 L-4.85 38.55 -4.85 37.6 -2.9 37.6 -2.9 38.55" fill="#f8d337" fill-rule="evenodd" stroke="none"/>
      <path d="M3.6 36.55 L7.25 36.55 7.25 37.6 7.25 38.55 3.6 38.55 -2.9 38.55 -4.85 38.55 -7.65 38.55 -7.6 37.6 -7.65 36.55 -4.85 36.55 -2.9 36.55 3.6 36.55 Z" fill="none" stroke="#000000" stroke-linecap="round" stroke-linejoin="round" stroke-opacity="0.3019608" stroke-width="0.2"/>
      <path d="M7.25 6.55 L3.6 6.55 3.6 5.5 7.25 5.5 7.25 6.55" fill="#c88a1f" fill-rule="evenodd" stroke="none"/>
      <path d="M3.6 7.5 L3.6 6.55 7.25 6.55 7.25 7.5 3.6 7.5" fill="#c26721" fill-rule="evenodd" stroke="none"/>
      <path d="M3.6 6.55 L-2.9 6.55 -2.9 5.5 3.6 5.5 3.6 6.55 M-4.85 5.5 L-4.85 6.55 -7.6 6.55 -7.65 5.5 -4.85 5.5" fill="#fac733" fill-rule="evenodd" stroke="none"/>
      <path d="M3.6 6.55 L3.6 7.5 -2.9 7.5 -2.9 6.55 3.6 6.55 M-4.85 6.55 L-4.85 7.5 -7.65 7.5 -7.6 6.55 -4.85 6.55" fill="#f2932e" fill-rule="evenodd" stroke="none"/>
      <path d="M-2.9 5.5 L-2.9 6.55 -4.85 6.55 -4.85 5.5 -2.9 5.5" fill="#fee83a" fill-rule="evenodd" stroke="none"/>
      <path d="M-2.9 6.55 L-2.9 7.5 -4.85 7.5 -4.85 6.55 -2.9 6.55" fill="#f8d337" fill-rule="evenodd" stroke="none"/>
      <path d="M-2.9 7.5 L3.6 7.5 7.25 7.5 7.25 6.55 M3.6 5.5 L-2.9 5.5 -4.85 5.5 M-4.85 7.5 L-2.9 7.5 M3.6 5.5 L7.25 5.5 7.25 6.55 M-7.6 6.55 L-7.65 7.5 -4.85 7.5 M-7.6 6.55 L-7.65 5.5 -4.85 5.5" fill="none" stroke="#000000" stroke-linecap="round" stroke-linejoin="round" stroke-opacity="0.3019608" stroke-width="0.2"/>
      <path d="M7.25 10.95 L5.1 7.25 8.6 7.25 10.95 10.95 7.25 10.95 M5.2 14.55 L8.8 14.55 11.2 18.3 7.35 18.3 5.2 14.55 M5.3 21.85 L9.0 21.85 11.4 25.6 7.45 25.6 5.25 21.9 5.3 21.85 M9.2 29.2 L11.65 32.9 7.5 32.9 5.3 29.2 9.2 29.2" fill="#941218" fill-rule="evenodd" stroke="none"/>
      <path d="M5.1 7.25 L7.25 10.95 -7.85 10.95 -6.35 7.25 5.1 7.25 M-11.7 10.95 L-9.4 7.25 -7.65 7.25 -9.3 10.95 -9.35 10.95 -11.7 10.95" fill="#c5232b" fill-rule="evenodd" stroke="none"/>
      <path d="M5.25 21.85 L5.3 21.85 5.25 21.9 5.25 21.85" fill="#8f0004" fill-rule="evenodd" stroke="none"/>
      <path d="M-11.95 25.6 L-9.6 21.9 -7.65 21.9 -7.6 21.9 -9.4 25.6 -11.95 25.6 M-6.1 21.9 L5.25 21.85 5.25 21.9 7.45 25.6 -7.85 25.6 -6.1 21.9" fill="#af1f26" fill-rule="evenodd" stroke="none"/>
      <path d="M7.35 18.3 L5.3 21.85 5.25 21.85 -6.1 21.9 -7.85 18.3 7.35 18.3 M-9.6 21.9 L-11.8 18.3 -9.4 18.3 -7.65 21.9 -9.6 21.9" fill="#8c1016" fill-rule="evenodd" stroke="none"/>
      <path d="M7.25 10.95 L10.95 10.95 8.8 14.55 5.2 14.55 7.25 10.95 M11.2 18.3 L9.05 21.85 9.0 21.85 5.3 21.85 7.35 18.3 11.2 18.3 M11.4 25.6 L9.2 29.2 5.3 29.2 7.45 25.6 11.4 25.6 M11.65 32.9 L9.4 36.55 5.4 36.55 7.5 32.9 11.65 32.9" fill="#790c11" fill-rule="evenodd" stroke="none"/>
      <path d="M-11.8 18.3 L-9.5 14.55 -7.55 14.55 -9.4 18.3 -11.8 18.3 M5.2 14.55 L7.35 18.3 -7.85 18.3 -6.3 14.55 5.2 14.55" fill="#c3222a" fill-rule="evenodd" stroke="none"/>
      <path d="M-7.85 10.95 L7.25 10.95 5.2 14.55 -6.3 14.55 -7.85 10.95 M-9.5 14.55 L-11.7 10.95 -9.35 10.95 -7.55 14.55 -9.5 14.55" fill="#941217" fill-rule="evenodd" stroke="none"/>
      <path d="M5.4 36.55 L-6.1 36.55 -7.85 32.9 7.5 32.9 5.4 36.55 M-7.65 36.55 L-9.85 36.55 -12.05 32.9 -9.4 32.9 -7.65 36.55" fill="#680c10" fill-rule="evenodd" stroke="none"/>
      <path d="M-9.65 29.25 L-11.95 25.6 -9.4 25.6 -7.65 29.25 -9.65 29.25 M7.45 25.6 L5.3 29.2 -6.1 29.25 -7.85 25.6 7.45 25.6" fill="#7a0e13" fill-rule="evenodd" stroke="none"/>
      <path d="M-12.05 32.9 L-9.65 29.25 -7.65 29.25 -9.4 32.9 -12.05 32.9 M7.5 32.9 L-7.85 32.9 -6.1 29.25 5.3 29.2 7.5 32.9" fill="#961a21" fill-rule="evenodd" stroke="none"/>
      <path d="M-6.35 7.25 L-7.85 10.95 -9.3 10.95 -7.65 7.25 -6.35 7.25 M-7.55 14.55 L-6.3 14.55 -7.85 18.3 -9.4 18.3 -7.55 14.55 M-7.6 21.9 L-6.1 21.9 -7.85 25.6 -9.4 25.6 -7.6 21.9 M-7.65 29.25 L-6.1 29.25 -7.85 32.9 -9.4 32.9 -7.65 29.25" fill="#d72f38" fill-rule="evenodd" stroke="none"/>
      <path d="M-6.1 36.55 L-7.65 36.55 -9.4 32.9 -7.85 32.9 -6.1 36.55 M-7.85 18.3 L-6.1 21.9 -7.6 21.9 -7.65 21.9 -9.4 18.3 -7.85 18.3 M-9.35 10.95 L-9.3 10.95 -7.85 10.95 -6.3 14.55 -7.55 14.55 -9.35 10.95 M-7.85 25.6 L-6.1 29.25 -7.65 29.25 -9.4 25.6 -7.85 25.6" fill="#ac181e" fill-rule="evenodd" stroke="none"/>
      <path d="M10.95 10.95 L8.6 7.25 5.1 7.25 -6.35 7.25 M5.2 14.55 L8.8 14.55 10.95 10.95 M9.0 21.85 L9.05 21.85 11.2 18.3 8.8 14.55 M5.3 21.85 L9.0 21.85 11.4 25.6 9.2 29.2 11.65 32.9 9.4 36.55 5.4 36.55 -6.1 36.55 -7.65 36.55 -9.85 36.55 -12.05 32.9 -9.65 29.25 -11.95 25.6 -9.6 21.9 -11.8 18.3 -9.5 14.55 -11.7 10.95 -9.4 7.25 -7.65 7.25 -6.35 7.25 M-6.1 21.9 L5.25 21.85 5.3 21.85 5.25 21.9 M5.25 21.85 L5.25 21.9 M5.3 29.2 L9.2 29.2 M-6.3 14.55 L5.2 14.55 M-7.55 14.55 L-9.5 14.55 M-9.6 21.9 L-7.65 21.9 M-6.1 29.25 L5.3 29.2 M-7.65 29.25 L-9.65 29.25" fill="none" stroke="#000000" stroke-linecap="round" stroke-linejoin="round" stroke-opacity="0.3019608" stroke-width="0.2"/>
    </g>
    <radialGradient cx="0" cy="0" gradientTransform="matrix(0.0232, 0.0, 0.0, 0.027, -0.95, 24.8)" gradientUnits="userSpaceOnUse" id="decoration216-gradient0" r="819.2" spreadMethod="pad">
      <stop offset="0.0" stop-color="#fffdf5" stop-opacity="0.8784314"/>
      <stop offset="0.14901960784313725" stop-color="#ffd202" stop-opacity="0.7019608"/>
      <stop offset="0.39215686274509803" stop-color="#f79331" stop-opacity="0.5411765"/>
      <stop offset="0.615686274509804" stop-color="#fcc86f" stop-opacity="0.14117648"/>
      <stop offset="1.0" stop-color="#ffdd87" stop-opacity="0.0"/>
    </radialGradient>
  </defs>
</svg>
