<?xml version="1.0" encoding="UTF-8" standalone="no"?>
<svg xmlns:xlink="http://www.w3.org/1999/xlink" height="39.0px" width="74.5px" xmlns="http://www.w3.org/2000/svg">
  <g transform="matrix(1.0, 0.0, 0.0, 1.0, 37.4, 19.45)">
    <use height="39.0" transform="matrix(1.0, 0.0, 0.0, 1.0, -37.4, -19.45)" width="74.5" xlink:href="#decoration218-shape0"/>
  </g>
  <defs>
    <g id="decoration218-shape0" transform="matrix(1.0, 0.0, 0.0, 1.0, 37.4, 19.45)">
      <path d="M4.75 -0.45 L2.5 1.8 -0.15 3.35 2.6 4.4 Q5.0 5.9 4.95 6.55 7.45 3.8 7.85 0.75 L7.85 -0.65 Q6.75 -3.6 7.2 -6.1 L7.55 -7.0 8.1 -8.1 Q8.9 -8.9 10.45 -8.3 11.35 -7.15 9.7 -6.9 L8.95 -7.15 8.45 -6.2 Q8.15 -4.95 9.2 -3.3 10.5 0.35 9.85 2.5 9.55 3.6 8.6 4.45 8.1 8.4 5.6 9.25 L2.45 10.15 Q1.05 10.35 0.4 11.45 L0.1 12.45 0.85 12.7 Q1.4 13.2 0.7 14.2 -0.85 14.6 -1.3 13.35 L-1.0 11.8 0.0 10.45 Q0.85 9.55 2.35 8.85 L3.7 7.8 1.3 7.45 -0.65 7.45 Q-1.25 11.9 -3.95 13.9 L-2.9 14.75 Q-1.9 15.75 -2.3 16.6 -2.85 17.2 -5.65 15.65 -7.0 16.3 -7.8 19.2 L-9.9 15.8 Q-8.85 19.4 -9.9 19.45 -10.7 20.0 -12.3 17.3 L-13.8 14.55 Q-15.45 13.05 -15.45 12.25 -19.85 12.45 -23.1 8.2 L-24.95 5.3 -25.5 4.0 -25.55 3.9 Q-28.95 -5.55 -37.4 -6.5 -29.0 -8.1 -24.0 2.7 -20.55 8.65 -15.3 7.9 -14.8 6.6 -13.55 5.15 L-12.55 4.2 -13.55 4.2 Q-14.5 4.35 -13.85 3.25 -17.25 5.15 -18.15 4.4 -19.05 3.65 -17.25 2.8 -20.35 3.7 -21.45 2.6 -21.85 1.3 -20.55 0.7 -22.6 1.15 -23.6 -0.35 -24.4 -2.15 -21.3 -2.2 -25.65 -3.3 -25.3 -6.8 -25.05 -8.4 -23.35 -8.3 L-21.75 -6.4 Q-22.8 -9.55 -21.3 -9.9 -19.95 -10.45 -19.65 -8.4 -18.4 -3.75 -15.55 -1.65 -13.45 -0.15 -11.25 -1.1 -10.2 -1.35 -9.6 -0.65 L-9.25 0.1 -8.15 0.0 -9.25 -1.65 Q-9.95 -2.85 -10.15 -2.85 L-11.85 -2.7 -13.5 -2.85 -12.6 -5.4 -14.5 -3.25 Q-16.0 -3.7 -17.0 -4.9 -18.85 -7.2 -17.7 -10.95 -16.45 -14.85 -12.4 -14.7 L-9.85 -14.25 Q-9.1 -14.6 -7.8 -13.45 L-7.9 -14.55 Q-7.9 -15.3 -6.4 -15.2 -4.95 -15.1 -4.45 -14.25 L-3.6 -13.15 -3.65 -15.5 Q-3.2 -19.45 -2.5 -19.45 -1.4 -19.45 -1.65 -11.75 -1.2 -11.7 -0.75 -11.15 L-0.5 -10.45 Q0.8 -10.2 1.7 -9.2 3.05 -7.65 3.65 -6.1 L4.8 -4.6 5.7 -3.5 5.6 -2.4 4.75 -0.45 M18.5 9.25 L14.0 8.05 16.15 6.5 15.0 4.4 19.6 5.6 21.55 7.6 33.15 10.7 Q32.95 10.15 33.15 9.4 33.35 8.75 33.8 8.35 34.4 7.95 34.75 8.0 L36.0 10.05 37.1 12.1 Q33.65 14.4 33.35 14.35 32.75 14.15 32.4 13.55 32.2 13.0 32.35 12.3 32.5 11.8 32.8 11.5 L21.35 8.45 18.5 9.25" fill="#2c0815" fill-opacity="0.6" fill-rule="evenodd" stroke="none"/>
      <path d="M4.75 -0.45 L5.6 -2.4 7.2 -6.1 M1.3 7.45 L0.0 10.45 M4.75 -0.45 L2.6 4.4" fill="none" stroke="#2c0815" stroke-linecap="round" stroke-linejoin="round" stroke-opacity="0.6" stroke-width="0.2"/>
    </g>
  </defs>
</svg>
