<?xml version="1.0" encoding="UTF-8" standalone="no"?>
<svg xmlns:xlink="http://www.w3.org/1999/xlink" height="135.15px" width="72.0px" xmlns="http://www.w3.org/2000/svg">
  <g transform="matrix(1.0, 0.0, 0.0, 1.0, 35.75, 135.35)">
    <use height="135.15" transform="matrix(1.0, 0.0, 0.0, 1.0, -35.75, -135.35)" width="72.0" xlink:href="#decoration22-shape0"/>
    <use height="12.5" transform="matrix(1.0, 0.0, 0.0, 1.0, 17.45, -83.4)" width="3.3" xlink:href="#decoration22-sprite0"/>
    <use height="12.5" transform="matrix(1.0, 0.0, 0.0, 1.0, 14.05, -83.4)" width="3.3" xlink:href="#decoration22-sprite0"/>
    <use height="12.5" transform="matrix(1.0, 0.0, 0.0, 1.0, 10.7, -83.4)" width="3.3" xlink:href="#decoration22-sprite0"/>
    <use height="12.5" transform="matrix(1.0, 0.0, 0.0, 1.0, 7.25, -83.4)" width="3.3" xlink:href="#decoration22-sprite0"/>
    <use height="12.5" transform="matrix(1.0, 0.0, 0.0, 1.0, 4.0, -83.4)" width="3.3" xlink:href="#decoration22-sprite0"/>
    <use height="12.5" transform="matrix(1.0, 0.0, 0.0, 1.0, 0.65, -83.4)" width="3.3" xlink:href="#decoration22-sprite0"/>
    <use height="12.5" transform="matrix(1.0, 0.0, 0.0, 1.0, -2.9, -83.3)" width="3.3" xlink:href="#decoration22-sprite0"/>
    <use height="22.25" transform="matrix(1.0, 0.0, 0.0, 1.0, -1.75, -59.55)" width="32.0" xlink:href="#decoration22-shape2"/>
    <use height="12.5" transform="matrix(1.0, 0.0, 0.0, 1.0, 8.45, -50.1)" width="3.3" xlink:href="#decoration22-sprite0"/>
    <use height="12.5" transform="matrix(1.0, 0.0, 0.0, 1.0, 5.2, -50.1)" width="3.3" xlink:href="#decoration22-sprite0"/>
    <use height="12.5" transform="matrix(1.0, 0.0, 0.0, 1.0, 1.85, -50.1)" width="3.3" xlink:href="#decoration22-sprite0"/>
    <use height="12.5" transform="matrix(1.0, 0.0, 0.0, 1.0, -1.7, -50.0)" width="3.3" xlink:href="#decoration22-sprite0"/>
  </g>
  <defs>
    <g id="decoration22-shape0" transform="matrix(1.0, 0.0, 0.0, 1.0, 35.75, 135.35)">
      <path d="M36.25 -129.5 L36.25 -0.45 25.8 -0.45 32.1 -135.15 36.25 -129.5" fill="#000000" fill-opacity="0.3019608" fill-rule="evenodd" stroke="none"/>
      <path d="M30.65 -122.25 L33.2 -122.05 33.2 -101.5 Q7.25 -102.2 -20.6 -97.7 L-32.95 -97.7 -32.95 -89.2 Q-34.85 -79.25 -35.6 -65.0 L-35.6 -113.05 -32.65 -117.6 -32.65 -103.25 30.65 -103.25 30.65 -122.25 M0.3 -135.2 Q1.4 -133.55 6.95 -130.15 L-20.8 -130.15 -20.8 -135.2 0.3 -135.2 M30.4 -90.95 Q31.85 -95.5 33.2 -96.65 L33.2 -84.55 Q32.15 -79.85 30.4 -78.65 L30.4 -90.95 M33.2 -68.85 L33.2 -57.05 30.65 -51.45 30.65 -65.75 -23.95 -65.75 Q3.25 -68.3 33.2 -68.85 M33.2 -46.9 L33.2 -36.65 Q26.05 -34.3 15.0 -34.45 2.55 -34.3 -5.05 -37.1 L30.65 -37.1 30.65 -44.25 Q32.25 -44.2 33.2 -46.9 M33.2 -23.0 L33.2 -2.75 30.65 -5.7 30.65 -15.95 33.2 -23.0 M33.2 -0.35 L-14.6 -0.35 Q-24.7 -1.3 -26.35 -3.4 L-1.1 -3.4 Q13.3 -1.25 33.2 -0.35 M-35.6 -5.4 L-35.6 -29.25 -32.65 -45.3 -32.65 -37.1 -21.3 -37.1 Q-14.95 -34.0 -1.0 -32.05 L-32.65 -32.05 -32.65 -15.6 Q-34.1 -13.2 -35.6 -5.4" fill="#8a673a" fill-rule="evenodd" stroke="none"/>
      <path d="M33.2 -122.05 L30.65 -122.25 30.65 -130.15 6.95 -130.15 Q1.4 -133.55 0.3 -135.2 L33.2 -135.2 33.2 -122.05 M-32.65 -117.6 L-35.6 -113.05 -35.6 -135.2 -20.8 -135.2 -20.8 -130.15 -32.65 -130.15 -32.65 -117.6 M-35.6 -65.0 Q-34.85 -79.25 -32.95 -89.2 L-32.95 -70.75 30.4 -70.75 30.4 -78.65 Q32.15 -79.85 33.2 -84.55 L33.2 -68.85 Q3.25 -68.3 -23.95 -65.75 L-32.65 -65.75 -32.65 -45.3 -35.6 -29.25 -35.6 -65.0 M-20.6 -97.7 Q7.25 -102.2 33.2 -101.5 L33.2 -96.65 Q31.85 -95.5 30.4 -90.95 L30.4 -97.7 -20.6 -97.7 M30.65 -51.45 L33.2 -57.05 33.2 -46.9 Q32.25 -44.2 30.65 -44.25 L30.65 -51.45 M33.2 -36.65 L33.2 -23.0 30.65 -15.95 30.65 -32.05 -1.0 -32.05 Q-14.95 -34.0 -21.3 -37.1 L-5.05 -37.1 Q2.55 -34.3 15.0 -34.45 26.05 -34.3 33.2 -36.65 M33.2 -2.75 L33.2 -0.35 Q13.3 -1.25 -1.1 -3.4 L30.65 -3.4 30.65 -5.7 33.2 -2.75 M-14.6 -0.35 L-35.6 -0.35 -35.6 -5.4 Q-34.1 -13.2 -32.65 -15.6 L-32.65 -3.4 -26.35 -3.4 Q-24.7 -1.3 -14.6 -0.35" fill="#9a7646" fill-rule="evenodd" stroke="none"/>
      <path d="M30.65 -122.25 L30.65 -103.25 -32.65 -103.25 -32.65 -117.6 -32.65 -130.15 -20.8 -130.15 6.95 -130.15 30.65 -130.15 30.65 -122.25" fill="url(#decoration22-gradient0)" fill-rule="evenodd" stroke="none"/>
      <path d="M-32.95 -89.2 L-32.95 -97.7 -20.6 -97.7 30.4 -97.7 30.4 -90.95 30.4 -78.65 30.4 -70.75 -32.95 -70.75 -32.95 -89.2" fill="url(#decoration22-gradient1)" fill-rule="evenodd" stroke="none"/>
      <path d="M-23.95 -65.75 L30.65 -65.75 30.65 -51.45 30.65 -44.25 30.65 -37.1 -5.05 -37.1 -21.3 -37.1 -32.65 -37.1 -32.65 -45.3 -32.65 -65.75 -23.95 -65.75" fill="url(#decoration22-gradient2)" fill-rule="evenodd" stroke="none"/>
      <path d="M30.65 -15.95 L30.65 -5.7 30.65 -3.4 -1.1 -3.4 -26.35 -3.4 -32.65 -3.4 -32.65 -15.6 -32.65 -32.05 -1.0 -32.05 30.65 -32.05 30.65 -15.95" fill="url(#decoration22-gradient3)" fill-rule="evenodd" stroke="none"/>
      <path d="M33.2 -122.05 L30.65 -122.25 M-32.65 -117.6 L-35.6 -113.05 M-35.6 -65.0 Q-34.85 -79.25 -32.95 -89.2 M-20.6 -97.7 Q7.25 -102.2 33.2 -101.5 M0.3 -135.2 Q1.4 -133.55 6.95 -130.15 M30.4 -90.95 Q31.85 -95.5 33.2 -96.65 M30.4 -78.65 Q32.15 -79.85 33.2 -84.55 M33.2 -68.85 Q3.25 -68.3 -23.95 -65.75 M30.65 -51.45 L33.2 -57.05 M30.65 -44.25 Q32.25 -44.2 33.2 -46.9 M-5.05 -37.1 Q2.55 -34.3 15.0 -34.45 26.05 -34.3 33.2 -36.65 M30.65 -5.7 L33.2 -2.75 M-1.1 -3.4 Q13.3 -1.25 33.2 -0.35 M33.2 -23.0 L30.65 -15.95 M-20.8 -135.2 L-20.8 -130.15 M-35.6 -29.25 L-32.65 -45.3 M-32.65 -15.6 Q-34.1 -13.2 -35.6 -5.4 M-21.3 -37.1 Q-14.95 -34.0 -1.0 -32.05 M-26.35 -3.4 Q-24.7 -1.3 -14.6 -0.35" fill="none" stroke="#000000" stroke-linecap="round" stroke-linejoin="round" stroke-opacity="0.16862746" stroke-width="0.2"/>
      <path d="M30.65 -122.25 L30.65 -103.25 -32.65 -103.25 -32.65 -117.6 -32.65 -130.15 -20.8 -130.15 6.95 -130.15 30.65 -130.15 30.65 -122.25 M-35.6 -113.05 L-35.6 -65.0 M-32.95 -89.2 L-32.95 -97.7 -20.6 -97.7 30.4 -97.7 30.4 -90.95 30.4 -78.65 30.4 -70.75 -32.95 -70.75 -32.95 -89.2 M33.2 -101.5 L33.2 -122.05 33.2 -135.2 0.3 -135.2 -20.8 -135.2 -35.6 -135.2 -35.6 -113.05 M33.2 -96.65 L33.2 -101.5 M33.2 -84.55 L33.2 -96.65 M33.2 -57.05 L33.2 -68.85 33.2 -84.55 M-23.95 -65.75 L30.65 -65.75 30.65 -51.45 30.65 -44.25 30.65 -37.1 -5.05 -37.1 M33.2 -57.05 L33.2 -46.9 33.2 -36.65 33.2 -23.0 33.2 -2.75 33.2 -0.35 -14.6 -0.35 -35.6 -0.35 -35.6 -5.4 -35.6 -29.25 -35.6 -65.0 M30.65 -15.95 L30.65 -5.7 30.65 -3.4 -1.1 -3.4 M30.65 -15.95 L30.65 -32.05 -1.0 -32.05 -32.65 -32.05 -32.65 -15.6 -32.65 -3.4 -26.35 -3.4 -1.1 -3.4 M-32.65 -45.3 L-32.65 -65.75 -23.95 -65.75 M-32.65 -45.3 L-32.65 -37.1 -21.3 -37.1 -5.05 -37.1" fill="none" stroke="#000000" stroke-linecap="round" stroke-linejoin="round" stroke-opacity="0.30980393" stroke-width="0.30000000000000004"/>
      <path d="M18.25 -117.7 L22.45 -117.55 22.45 -116.3 22.4 -115.55 18.25 -115.75 17.1 -115.55 17.1 -117.55 18.25 -117.7 18.25 -115.75 18.25 -117.7" fill="#95a7af" fill-rule="evenodd" stroke="none"/>
      <path d="M18.25 -117.7 L18.25 -118.85 18.25 -117.7 17.1 -117.55 17.1 -120.0 Q19.95 -120.6 22.45 -120.0 L22.45 -117.55 18.25 -117.7 M18.25 -115.75 L22.4 -115.55 Q22.05 -103.9 19.85 -104.35 17.35 -104.8 17.1 -105.85 L17.1 -115.55 18.25 -115.75 18.25 -106.55 18.25 -115.75" fill="#23566d" fill-rule="evenodd" stroke="none"/>
      <path d="M22.4 -115.55 L22.45 -116.3 22.45 -103.7 Q19.8 -103.25 17.1 -103.7 L17.1 -105.85 Q17.35 -104.8 19.85 -104.35 22.05 -103.9 22.4 -115.55" fill="#134054" fill-rule="evenodd" stroke="none"/>
      <path d="M27.6 -119.8 L25.3 -103.55 Q23.0 -103.45 22.7 -103.9 L25.0 -120.15 27.6 -119.8" fill="url(#decoration22-gradient4)" fill-rule="evenodd" stroke="none"/>
      <path d="M29.75 -116.3 L29.75 -103.75 27.3 -103.75 27.3 -116.3 29.75 -116.3 M-30.6 -54.65 L-28.4 -37.2 -30.1 -37.0 -32.3 -54.45 -30.6 -54.65 M-23.2 -48.3 L-18.4 -38.55 -20.5 -37.5 -27.3 -51.3 -25.2 -52.35 -23.25 -48.4 -23.3 -48.4 -23.2 -48.3" fill="#bbb4a1" fill-rule="evenodd" stroke="none"/>
      <path d="M22.5 -75.15 L26.6 -90.7 Q28.0 -89.85 29.35 -89.7 27.4 -80.5 24.8 -72.15 21.65 -71.65 22.5 -75.15" fill="#7b2d10" fill-rule="evenodd" stroke="none"/>
      <path d="M26.6 -90.7 L30.35 -89.7 29.35 -89.7 Q28.0 -89.85 26.6 -90.7 M-30.4 -86.4 Q-31.65 -85.55 -32.95 -85.7 L-30.4 -86.4" fill="#d0b389" fill-rule="evenodd" stroke="none"/>
      <path d="M30.35 -89.7 L25.35 -71.0 Q22.1 -70.9 21.6 -72.0 L22.5 -75.15 Q21.65 -71.65 24.8 -72.15 27.4 -80.5 29.35 -89.7 L30.35 -89.7" fill="#4f1a07" fill-rule="evenodd" stroke="none"/>
      <path d="M-27.4 -119.3 L-28.0 -121.45 -25.55 -122.1 -25.0 -120.0 -27.4 -119.3 M-24.15 -116.9 L-20.8 -104.35 Q-21.85 -103.45 -23.25 -103.7 L-26.6 -116.3 -24.15 -116.9" fill="#dbd5c5" fill-rule="evenodd" stroke="none"/>
      <path d="M-30.45 -112.2 L-30.55 -112.45 -29.9 -112.9 -30.25 -113.15 -30.35 -113.35 -29.75 -115.65 Q-29.75 -116.35 -30.15 -117.0 -30.55 -117.6 -30.55 -118.25 L-30.3 -118.9 -30.55 -119.75 -30.3 -118.9 -30.55 -118.25 Q-30.55 -117.6 -30.15 -117.0 -29.75 -116.35 -29.75 -115.65 L-30.35 -113.35 -30.25 -113.15 -29.9 -112.9 -30.55 -112.45 -30.45 -112.2 M-28.4 -104.95 L-28.4 -103.8 Q-30.35 -103.35 -32.3 -103.8 L-32.3 -104.95 -28.4 -104.95 M-32.3 -105.95 L-32.3 -121.55 Q-30.55 -122.2 -28.4 -121.55 L-28.4 -105.95 -32.3 -105.95" fill="url(#decoration22-gradient5)" fill-rule="evenodd" stroke="none"/>
      <path d="M-25.0 -120.0 L-24.15 -116.9 -26.6 -116.3 -27.4 -119.3 -25.0 -120.0" fill="#5a8091" fill-rule="evenodd" stroke="none"/>
      <path d="M-32.3 -104.95 L-32.3 -105.95 -28.4 -105.95 -28.4 -104.95 -32.3 -104.95" fill="#cdc5b1" fill-rule="evenodd" stroke="none"/>
      <path d="M-24.0 -81.5 Q-23.35 -80.3 -15.1 -80.7 L-14.6 -80.75 -13.05 -80.85 Q-9.6 -81.3 -9.05 -82.8 L-8.3 -82.8 -8.6 -82.2 -8.7 -81.3 -8.65 -80.8 -8.3 -79.9 -8.3 -79.85 -23.1 -79.85 -8.3 -79.85 -8.3 -79.9 -7.7 -79.9 -7.9 -79.15 -8.0 -78.7 -8.0 -78.3 -7.7 -76.9 -7.05 -76.9 -5.4 -76.9 -5.6 -75.9 -5.6 -74.8 -5.4 -73.95 -6.4 -73.95 -7.4 -73.95 -7.6 -73.25 -7.7 -72.5 -7.6 -71.6 -7.4 -71.0 -19.35 -71.0 Q-11.35 -71.2 -11.4 -72.4 -12.5 -72.9 -14.55 -73.25 L-19.65 -73.3 -20.8 -73.95 -19.0 -73.95 -8.4 -74.7 Q-7.45 -75.55 -7.85 -76.2 L-21.0 -76.2 -20.8 -76.9 -20.35 -76.9 -23.1 -76.95 -23.3 -77.3 -9.35 -77.8 Q-8.65 -78.15 -9.35 -78.7 L-22.0 -78.8 -23.1 -79.85 -23.7 -79.85 Q-24.1 -80.7 -24.0 -81.5 M-20.35 -76.9 L-7.7 -76.9 -20.35 -76.9 M-7.4 -73.95 L-19.0 -73.95 -7.4 -73.95" fill="#595866" fill-rule="evenodd" stroke="none"/>
      <path d="M-9.05 -82.8 Q-9.6 -81.3 -13.05 -80.85 L-14.6 -80.75 -15.1 -80.7 Q-23.35 -80.3 -24.0 -81.5 L-23.7 -82.8 -9.05 -82.8 M-19.35 -71.0 L-22.8 -71.0 Q-23.25 -72.45 -22.8 -73.95 L-20.8 -73.95 Q-21.3 -75.05 -21.0 -76.2 L-7.85 -76.2 Q-7.45 -75.55 -8.4 -74.7 L-19.0 -73.95 -20.8 -73.95 -19.65 -73.3 -14.55 -73.25 Q-12.5 -72.9 -11.4 -72.4 -11.35 -71.2 -19.35 -71.0 M-23.3 -77.3 Q-24.0 -78.6 -23.1 -79.85 L-22.0 -78.8 -9.35 -78.7 Q-8.65 -78.15 -9.35 -77.8 L-23.3 -77.3" fill="#797887" fill-rule="evenodd" stroke="none"/>
      <path d="M-8.3 -79.9 L-8.65 -80.8 -8.7 -81.3 -8.6 -82.2 -8.3 -82.8 -7.8 -82.25 -7.9 -81.65 -7.95 -81.15 -7.9 -80.6 -7.7 -79.9 -7.05 -79.25 -7.15 -78.75 -7.2 -78.0 -7.15 -77.45 -7.05 -76.9 -7.7 -76.9 -8.0 -78.3 -8.0 -78.7 -7.9 -79.15 -7.7 -79.9 -8.3 -79.9 M-5.4 -76.9 L-4.85 -76.1 -4.85 -75.1 -4.85 -74.6 -4.85 -74.1 -5.4 -73.95 -5.6 -74.8 -5.6 -75.9 -5.4 -76.9 M-6.4 -73.95 L-6.4 -73.2 -6.4 -72.25 -6.4 -71.85 -6.4 -71.25 -7.4 -71.0 -7.6 -71.6 -7.7 -72.5 -7.6 -73.25 -7.4 -73.95 -6.4 -73.95 M-7.9 -81.65 L-8.6 -82.2 -7.9 -81.65 M-7.95 -81.15 L-8.7 -81.3 -7.95 -81.15 M-7.9 -80.6 L-8.65 -80.8 -7.9 -80.6 M-4.85 -74.6 L-5.6 -74.8 -4.85 -74.6 M-7.15 -77.45 L-7.7 -76.9 -7.15 -77.45 M-7.15 -78.75 L-7.9 -79.15 -7.15 -78.75 M-7.2 -78.0 L-8.0 -78.3 -7.2 -78.0 M-4.85 -75.1 L-5.6 -75.9 -4.85 -75.1 M-6.4 -73.2 L-7.4 -73.95 -6.4 -73.2 M-6.4 -72.25 L-7.7 -72.5 -6.4 -72.25 M-6.4 -71.85 L-7.6 -71.6 -6.4 -71.85" fill="#9c835d" fill-rule="evenodd" stroke="none"/>
      <path d="M-32.95 -85.7 Q-31.65 -85.55 -30.4 -86.4 L-26.45 -71.8 Q-27.55 -70.9 -29.0 -71.1 L-32.95 -85.7" fill="#312a22" fill-rule="evenodd" stroke="none"/>
      <path d="M-28.45 -59.85 L-25.6 -37.3 -27.8 -37.0 -30.6 -59.6 Q-29.9 -60.2 -28.45 -59.85" fill="#3c3227" fill-rule="evenodd" stroke="none"/>
      <path d="M-23.2 -48.3 L-23.3 -48.4 -23.25 -48.4 -21.6 -50.0 -11.1 -38.75 -12.85 -37.1 -23.2 -48.3" fill="#aaa28b" fill-rule="evenodd" stroke="none"/>
      <path d="M22.45 -117.55 L22.45 -120.0 Q19.95 -120.6 17.1 -120.0 L17.1 -117.55 M22.45 -116.3 L22.45 -117.55 M17.1 -115.55 L17.1 -117.55 M22.45 -116.3 L22.45 -103.7 Q19.8 -103.25 17.1 -103.7 L17.1 -105.85 17.1 -115.55 M27.6 -119.8 L25.3 -103.55 Q23.0 -103.45 22.7 -103.9 L25.0 -120.15 27.6 -119.8 M29.75 -116.3 L29.75 -103.75 27.3 -103.75 27.3 -116.3 29.75 -116.3 M22.5 -75.15 L26.6 -90.7 30.35 -89.7 25.35 -71.0 Q22.1 -70.9 21.6 -72.0 L22.5 -75.15 M29.35 -89.7 Q28.0 -89.85 26.6 -90.7 M29.35 -89.7 L30.35 -89.7 M-27.4 -119.3 L-28.0 -121.45 -25.55 -122.1 -25.0 -120.0 -24.15 -116.9 -20.8 -104.35 Q-21.85 -103.45 -23.25 -103.7 L-26.6 -116.3 -27.4 -119.3 -25.0 -120.0 M-26.6 -116.3 L-24.15 -116.9 M-28.4 -104.95 L-28.4 -103.8 Q-30.35 -103.35 -32.3 -103.8 L-32.3 -104.95 -32.3 -105.95 -32.3 -121.55 Q-30.55 -122.2 -28.4 -121.55 L-28.4 -105.95 -28.4 -104.95 M-24.0 -81.5 Q-24.1 -80.7 -23.7 -79.85 L-23.1 -79.85 -8.3 -79.85 -8.3 -79.9 -8.65 -80.8 -8.7 -81.3 -8.6 -82.2 -8.3 -82.8 -9.05 -82.8 -23.7 -82.8 -24.0 -81.5 M-8.3 -82.8 L-7.8 -82.25 -7.9 -81.65 -7.95 -81.15 -7.9 -80.6 -7.7 -79.9 -7.05 -79.25 -7.15 -78.75 -7.2 -78.0 -7.15 -77.45 -7.05 -76.9 -5.4 -76.9 -4.85 -76.1 -4.85 -75.1 -4.85 -74.6 -4.85 -74.1 -5.4 -73.95 -6.4 -73.95 -6.4 -73.2 -6.4 -72.25 -6.4 -71.85 -6.4 -71.25 -7.4 -71.0 -19.35 -71.0 -22.8 -71.0 Q-23.25 -72.45 -22.8 -73.95 L-20.8 -73.95 Q-21.3 -75.05 -21.0 -76.2 L-20.8 -76.9 -20.35 -76.9 -23.1 -76.95 -23.3 -77.3 Q-24.0 -78.6 -23.1 -79.85 M-8.65 -80.8 L-7.9 -80.6 M-8.7 -81.3 L-7.95 -81.15 M-8.6 -82.2 L-7.9 -81.65 M-7.7 -76.9 L-8.0 -78.3 -8.0 -78.7 -7.9 -79.15 -7.7 -79.9 -8.3 -79.9 M-5.6 -75.9 L-5.6 -74.8 -4.85 -74.6 M-5.4 -76.9 L-5.6 -75.9 -4.85 -75.1 M-8.0 -78.3 L-7.2 -78.0 M-7.9 -79.15 L-7.15 -78.75 M-7.7 -76.9 L-7.15 -77.45 M-7.7 -76.9 L-7.05 -76.9 M-32.95 -85.7 Q-31.65 -85.55 -30.4 -86.4 L-32.95 -85.7 -29.0 -71.1 Q-27.55 -70.9 -26.45 -71.8 L-30.4 -86.4 M-30.6 -54.65 L-28.4 -37.2 -30.1 -37.0 -32.3 -54.45 -30.6 -54.65 M-28.45 -59.85 L-25.6 -37.3 -27.8 -37.0 -30.6 -59.6 Q-29.9 -60.2 -28.45 -59.85 M-23.25 -48.4 L-25.2 -52.35 -27.3 -51.3 -20.5 -37.5 -18.4 -38.55 -23.2 -48.3 -23.3 -48.4 -23.25 -48.4 -21.6 -50.0 -11.1 -38.75 -12.85 -37.1 -23.2 -48.3 M-7.4 -73.95 L-6.4 -73.95 M-7.4 -73.95 L-6.4 -73.2 M-7.4 -73.95 L-7.6 -73.25 -7.7 -72.5 -6.4 -72.25 M-7.7 -72.5 L-7.6 -71.6 -6.4 -71.85 M-7.6 -71.6 L-7.4 -71.0 M-19.0 -73.95 L-7.4 -73.95 M-7.7 -76.9 L-20.35 -76.9 M-20.8 -73.95 L-19.0 -73.95 M-5.6 -74.8 L-5.4 -73.95" fill="none" stroke="#000000" stroke-linecap="round" stroke-linejoin="round" stroke-opacity="0.30980393" stroke-width="0.2"/>
      <path d="M18.25 -118.85 L18.25 -117.7 18.25 -115.75 18.25 -106.55" fill="none" stroke="#ffffff" stroke-linecap="round" stroke-linejoin="round" stroke-opacity="0.2509804" stroke-width="1.35"/>
      <path d="M-30.55 -119.75 L-30.3 -118.9 -30.55 -118.25 Q-30.55 -117.6 -30.15 -117.0 -29.75 -116.35 -29.75 -115.65 L-30.35 -113.35 -30.25 -113.15 -29.9 -112.9 -30.55 -112.45 -30.45 -112.2 M-28.4 -104.95 L-32.3 -104.95 M-32.3 -105.95 L-28.4 -105.95" fill="none" stroke="#ffffff" stroke-linecap="round" stroke-linejoin="round" stroke-opacity="0.16862746" stroke-width="0.2"/>
      <path d="M-20.6 -115.85 L-20.6 -119.0 Q-16.7 -119.45 -13.1 -119.05 L-12.55 -119.0 -12.55 -115.85 Q-17.2 -114.9 -20.6 -115.85 -17.2 -114.9 -12.55 -115.85 -14.05 -104.55 -17.0 -104.0 -19.95 -103.45 -20.6 -105.6 L-20.6 -115.85" fill="#7e633b" fill-rule="evenodd" stroke="none"/>
      <path d="M-12.55 -115.85 L-12.55 -103.85 Q-16.55 -102.95 -20.6 -103.85 L-20.6 -105.6 Q-19.95 -103.45 -17.0 -104.0 -14.05 -104.55 -12.55 -115.85" fill="#5f4825" fill-rule="evenodd" stroke="none"/>
      <path d="M-12.55 -115.85 L-12.55 -119.0 -13.1 -119.05 Q-16.7 -119.45 -20.6 -119.0 L-20.6 -115.85 M-12.55 -115.85 L-12.55 -103.85 Q-16.55 -102.95 -20.6 -103.85 L-20.6 -105.6 -20.6 -115.85" fill="none" stroke="#000000" stroke-linecap="round" stroke-linejoin="round" stroke-opacity="0.30980393" stroke-width="0.2"/>
      <path d="M-20.6 -115.85 Q-17.2 -114.9 -12.55 -115.85 Z" fill="none" stroke="#ffc400" stroke-linecap="round" stroke-linejoin="round" stroke-opacity="0.43137255" stroke-width="0.05"/>
      <path d="M17.05 -115.55 L13.9 -103.7 Q12.95 -103.45 11.45 -104.4 L14.6 -116.25 Q16.15 -116.35 17.05 -115.55" fill="#312a22" fill-rule="evenodd" stroke="none"/>
      <path d="M17.05 -115.55 L13.9 -103.7 Q12.95 -103.45 11.45 -104.4 L14.6 -116.25 Q16.15 -116.35 17.05 -115.55 Z" fill="none" stroke="#000000" stroke-linecap="round" stroke-linejoin="round" stroke-opacity="0.30980393" stroke-width="0.2"/>
      <path d="M10.65 -103.6 L-9.7 -103.6 -10.25 -115.9 10.65 -115.9 10.65 -103.6" fill="#232019" fill-rule="evenodd" stroke="none"/>
      <path d="M10.65 -103.6 L-9.7 -103.6 -10.25 -115.9 10.65 -115.9 10.65 -103.6 Z" fill="none" stroke="#000000" stroke-linecap="round" stroke-linejoin="round" stroke-opacity="0.30980393" stroke-width="0.2"/>
      <path d="M7.85 -115.9 L7.85 -103.65 5.25 -103.65 5.25 -115.9 Q6.05 -116.4 7.85 -115.9 M4.9 -115.9 L4.9 -103.65 2.3 -103.65 2.3 -115.9 Q3.1 -116.4 4.9 -115.9 M3.65 -104.6 L3.7 -106.55 3.65 -104.6 M6.75 -104.9 L6.8 -105.6 6.75 -104.9 M9.5 -104.95 L9.45 -105.25 9.5 -104.95 M0.8 -107.05 L0.85 -107.05 0.85 -106.95 0.8 -107.05 0.85 -106.95 0.85 -107.05 0.8 -107.05 M0.75 -105.3 L0.8 -106.1 0.75 -105.3 M0.9 -107.7 L0.9 -108.5 0.75 -109.3 0.9 -108.5 0.9 -107.7 M3.8 -110.35 L3.75 -111.05 3.8 -110.35 M3.6 -108.5 L3.6 -109.05 3.6 -108.5 M9.45 -105.75 L9.65 -108.4 9.45 -105.75 M6.75 -106.0 L6.5 -107.45 6.65 -107.95 6.45 -108.45 6.55 -109.15 6.45 -108.45 6.65 -107.95 6.5 -107.45 6.75 -106.0 M6.5 -109.65 L6.5 -110.35 6.5 -109.65 M9.5 -109.6 L9.5 -109.25 9.5 -109.6 M0.8 -110.85 L0.75 -112.4 0.75 -112.55 0.8 -112.55 0.75 -112.4 0.8 -112.55 0.75 -112.55 0.75 -112.4 0.8 -110.85 M3.75 -111.75 L3.65 -112.85 3.75 -111.75 M8.15 -103.65 L8.15 -115.9 Q9.0 -116.4 10.8 -115.9 L10.8 -103.65 8.15 -103.65 M6.45 -111.3 L6.45 -112.15 6.45 -111.3 M9.5 -110.05 L9.45 -111.95 9.5 -110.05 M1.95 -103.65 L-0.65 -103.65 -0.65 -115.9 -0.6 -115.9 Q0.2 -116.4 1.95 -115.9 L1.95 -103.65 M-7.3 -103.65 L-7.35 -103.65 -7.35 -115.9 -7.3 -115.9 -7.3 -103.65 M-4.35 -115.9 L-4.35 -103.65 -6.95 -103.65 -6.95 -115.9 Q-6.15 -116.4 -4.35 -115.9 M-3.95 -103.65 L-4.0 -103.65 -4.0 -115.9 -3.95 -115.9 -3.95 -103.65 M-1.0 -115.9 L-1.0 -103.65 -3.6 -103.65 -3.6 -115.9 Q-2.8 -116.4 -1.0 -115.9 M-5.6 -106.6 L-5.55 -107.4 -5.6 -106.6 M-5.7 -109.95 L-5.7 -110.85 -5.85 -111.3 -5.7 -111.7 -5.85 -111.3 -5.7 -110.85 -5.7 -109.95 M-5.7 -108.75 L-5.7 -108.45 -5.7 -108.75 M-9.05 -108.75 L-9.05 -108.45 -9.05 -108.75 M-9.05 -109.95 L-9.05 -110.85 -9.2 -111.3 -9.05 -111.7 -9.2 -111.3 -9.05 -110.85 -9.05 -109.95 M-8.95 -106.6 L-8.9 -107.4 -8.95 -106.6 M-2.35 -108.75 L-2.35 -108.45 -2.35 -108.75 M-2.35 -109.95 L-2.35 -110.85 -2.5 -111.3 -2.35 -111.7 -2.5 -111.3 -2.35 -110.85 -2.35 -109.95 M-2.25 -106.6 L-2.2 -107.4 -2.25 -106.6 M-10.3 -115.9 Q-9.5 -116.4 -7.7 -115.9 L-7.7 -103.65 -10.3 -103.65 -10.3 -115.9" fill="#c2bba9" fill-rule="evenodd" stroke="none"/>
      <path d="M7.85 -115.9 L7.85 -103.65 5.25 -103.65 5.25 -115.9 Q6.05 -116.4 7.85 -115.9 M4.9 -115.9 L4.9 -103.65 2.3 -103.65 2.3 -115.9 Q3.1 -116.4 4.9 -115.9 M3.65 -112.85 L3.75 -111.75 M0.75 -112.4 L0.8 -112.55 0.75 -112.55 0.75 -112.4 0.8 -110.85 M9.5 -109.25 L9.5 -109.6 M6.5 -110.35 L6.5 -109.65 M6.55 -109.15 L6.45 -108.45 6.65 -107.95 6.5 -107.45 6.75 -106.0 M9.65 -108.4 L9.45 -105.75 M3.6 -109.05 L3.6 -108.5 M3.75 -111.05 L3.8 -110.35 M0.75 -109.3 L0.9 -108.5 0.9 -107.7 M0.8 -106.1 L0.75 -105.3 M0.8 -107.05 L0.85 -106.95 0.85 -107.05 0.8 -107.05 M9.45 -105.25 L9.5 -104.95 M6.8 -105.6 L6.75 -104.9 M3.7 -106.55 L3.65 -104.6 M8.15 -103.65 L8.15 -115.9 Q9.0 -116.4 10.8 -115.9 L10.8 -103.65 8.15 -103.65 M9.45 -111.95 L9.5 -110.05 M6.45 -112.15 L6.45 -111.3 M1.95 -103.65 L-0.65 -103.65 -0.65 -115.9 -0.6 -115.9 Q0.2 -116.4 1.95 -115.9 L1.95 -103.65 M-7.3 -103.65 L-7.35 -103.65 -7.35 -115.9 -7.3 -115.9 M-4.35 -115.9 L-4.35 -103.65 -6.95 -103.65 -6.95 -115.9 Q-6.15 -116.4 -4.35 -115.9 M-3.95 -103.65 L-4.0 -103.65 -4.0 -115.9 -3.95 -115.9 M-1.0 -115.9 L-1.0 -103.65 -3.6 -103.65 -3.6 -115.9 Q-2.8 -116.4 -1.0 -115.9 M-2.2 -107.4 L-2.25 -106.6 M-2.35 -111.7 L-2.5 -111.3 -2.35 -110.85 -2.35 -109.95 M-2.35 -108.45 L-2.35 -108.75 M-8.9 -107.4 L-8.95 -106.6 M-9.05 -111.7 L-9.2 -111.3 -9.05 -110.85 -9.05 -109.95 M-9.05 -108.45 L-9.05 -108.75 M-5.7 -108.45 L-5.7 -108.75 M-5.7 -111.7 L-5.85 -111.3 -5.7 -110.85 -5.7 -109.95 M-5.55 -107.4 L-5.6 -106.6 M-10.3 -115.9 Q-9.5 -116.4 -7.7 -115.9 L-7.7 -103.65 -10.3 -103.65 -10.3 -115.9" fill="none" stroke="#000000" stroke-linecap="round" stroke-linejoin="round" stroke-opacity="0.30980393" stroke-width="0.2"/>
      <path d="M8.95 -114.55 L9.5 -114.7 10.0 -114.55 10.25 -114.15 10.0 -113.75 9.5 -113.6 Q9.15 -113.6 8.95 -113.75 L8.75 -114.15 8.95 -114.55" fill="#953217" fill-rule="evenodd" stroke="none"/>
      <path d="M5.85 -114.55 L6.4 -114.7 6.9 -114.55 7.15 -114.15 6.9 -113.75 Q6.7 -113.6 6.4 -113.6 6.05 -113.6 5.85 -113.75 L5.65 -114.15 5.85 -114.55" fill="#953217" fill-rule="evenodd" stroke="none"/>
      <path d="M3.05 -114.55 L3.6 -114.7 4.1 -114.55 4.35 -114.15 4.1 -113.75 3.6 -113.6 3.05 -113.75 2.85 -114.15 3.05 -114.55" fill="#953217" fill-rule="evenodd" stroke="none"/>
      <path d="M0.15 -113.75 L-0.05 -114.15 0.15 -114.55 0.7 -114.7 1.2 -114.55 1.45 -114.15 1.2 -113.75 Q1.0 -113.6 0.7 -113.6 0.35 -113.6 0.15 -113.75" fill="#953217" fill-rule="evenodd" stroke="none"/>
      <path d="M-2.9 -114.55 L-2.35 -114.7 -1.85 -114.55 -1.6 -114.15 Q-1.6 -113.9 -1.85 -113.75 -2.05 -113.6 -2.35 -113.6 L-2.9 -113.75 -3.1 -114.15 -2.9 -114.55" fill="#953217" fill-rule="evenodd" stroke="none"/>
      <path d="M-5.7 -114.7 L-5.2 -114.55 -4.95 -114.15 Q-4.95 -113.9 -5.2 -113.75 L-5.7 -113.6 -6.25 -113.75 -6.45 -114.15 -6.25 -114.55 -5.7 -114.7" fill="#953217" fill-rule="evenodd" stroke="none"/>
      <path d="M-8.55 -114.55 L-8.3 -114.15 Q-8.3 -113.9 -8.55 -113.75 L-9.05 -113.6 -9.6 -113.75 -9.8 -114.15 -9.6 -114.55 -9.05 -114.7 -8.55 -114.55" fill="#953217" fill-rule="evenodd" stroke="none"/>
      <path d="M20.3 -70.95 L-2.2 -70.95 -2.8 -83.25 20.3 -83.25 20.3 -70.95" fill="#232019" fill-rule="evenodd" stroke="none"/>
      <path d="M20.3 -70.95 L-2.2 -70.95 -2.8 -83.25 20.3 -83.25 20.3 -70.95 Z" fill="none" stroke="#000000" stroke-linecap="round" stroke-linejoin="round" stroke-opacity="0.30980393" stroke-width="0.2"/>
    </g>
    <linearGradient gradientTransform="matrix(0.0, -0.027, 0.0164, 0.0, 0.0, -115.9)" gradientUnits="userSpaceOnUse" id="decoration22-gradient0" spreadMethod="pad" x1="-819.2" x2="819.2">
      <stop offset="0.0" stop-color="#69481d"/>
      <stop offset="1.0" stop-color="#412a0c"/>
    </linearGradient>
    <linearGradient gradientTransform="matrix(0.0, -0.0319, 0.0164, 0.0, -1.35, -84.2)" gradientUnits="userSpaceOnUse" id="decoration22-gradient1" spreadMethod="pad" x1="-819.2" x2="819.2">
      <stop offset="0.027450980392156862" stop-color="#69481d"/>
      <stop offset="1.0" stop-color="#412a0c"/>
    </linearGradient>
    <linearGradient gradientTransform="matrix(0.0, -0.0303, 0.0175, 0.0, 2.05, -44.35)" gradientUnits="userSpaceOnUse" id="decoration22-gradient2" spreadMethod="pad" x1="-819.2" x2="819.2">
      <stop offset="0.027450980392156862" stop-color="#69481d"/>
      <stop offset="1.0" stop-color="#412a0c"/>
    </linearGradient>
    <linearGradient gradientTransform="matrix(0.0, -0.0303, 0.0175, 0.0, -1.2, -7.95)" gradientUnits="userSpaceOnUse" id="decoration22-gradient3" spreadMethod="pad" x1="-819.2" x2="819.2">
      <stop offset="0.027450980392156862" stop-color="#69481d"/>
      <stop offset="1.0" stop-color="#412a0c"/>
    </linearGradient>
    <linearGradient gradientTransform="matrix(0.0017, 2.0E-4, -0.0011, 0.0101, 26.05, -111.85)" gradientUnits="userSpaceOnUse" id="decoration22-gradient4" spreadMethod="pad" x1="-819.2" x2="819.2">
      <stop offset="0.0" stop-color="#cbc4b5"/>
      <stop offset="1.0" stop-color="#9a9078"/>
    </linearGradient>
    <linearGradient gradientTransform="matrix(0.0027, 0.0, 0.0, 0.0112, -29.85, -112.9)" gradientUnits="userSpaceOnUse" id="decoration22-gradient5" spreadMethod="pad" x1="-819.2" x2="819.2">
      <stop offset="0.027450980392156862" stop-color="#87371a"/>
      <stop offset="1.0" stop-color="#6d2206"/>
    </linearGradient>
    <g id="decoration22-sprite0" transform="matrix(1.0, 0.0, 0.0, 1.0, 0.1, 0.1)">
      <use height="12.5" transform="matrix(1.0, 0.0, 0.0, 1.0, -0.1, -0.1)" width="3.3" xlink:href="#decoration22-shape1"/>
    </g>
    <g id="decoration22-shape1" transform="matrix(1.0, 0.0, 0.0, 1.0, 0.1, 0.1)">
      <path d="M2.4 1.15 L0.7 1.15 Q0.3 1.7 0.7 2.2 L2.4 2.2 Q2.65 1.7 2.4 1.15 M2.1 3.6 Q1.5 3.1 0.9 3.6 L0.9 10.45 1.2 10.65 Q1.65 10.85 2.1 10.45 L2.1 3.6 M3.1 0.0 L3.1 12.05 Q1.8 12.55 0.0 12.05 L0.0 0.0 3.1 0.0" fill="#bbb4a1" fill-rule="evenodd" stroke="none"/>
      <path d="M2.4 1.15 Q2.65 1.7 2.4 2.2 L0.7 2.2 Q0.3 1.7 0.7 1.15 L2.4 1.15" fill="#7b2d10" fill-rule="evenodd" stroke="none"/>
      <path d="M2.1 3.6 L2.1 10.45 Q1.65 10.85 1.2 10.65 L0.9 10.45 0.9 3.6 Q1.5 3.1 2.1 3.6 M1.45 6.5 L1.4 6.25 1.55 5.9 1.35 5.75 1.6 5.75 1.6 5.65 1.4 5.45 1.6 4.9 1.35 4.8 1.6 4.9 1.4 5.45 1.6 5.65 1.6 5.75 1.35 5.75 1.55 5.9 1.4 6.25 1.45 6.5 M1.5 10.05 L1.5 9.7 1.45 9.7 1.4 9.75 1.45 9.45 1.4 9.75 1.45 9.7 1.5 9.7 1.5 10.05 M1.5 8.7 L1.7 8.3 1.45 7.8 1.25 7.9 1.3 7.85 1.45 7.4 1.3 7.85 1.25 7.9 1.45 7.8 1.7 8.3 1.5 8.7" fill="#486a9a" fill-rule="evenodd" stroke="none"/>
      <path d="M1.35 4.8 L1.6 4.9 1.4 5.45 1.6 5.65 1.6 5.75 1.35 5.75 1.55 5.9 1.4 6.25 1.45 6.5 M1.45 7.4 L1.3 7.85 1.25 7.9 1.45 7.8 1.7 8.3 1.5 8.7 M1.45 9.45 L1.4 9.75 1.45 9.7 1.5 9.7 1.5 10.05" fill="none" stroke="#ffffff" stroke-linecap="round" stroke-linejoin="round" stroke-opacity="0.30980393" stroke-width="0.2"/>
      <path d="M3.1 0.0 L3.1 12.05 Q1.8 12.55 0.0 12.05 L0.0 0.0 3.1 0.0" fill="none" stroke="#000000" stroke-linecap="round" stroke-linejoin="round" stroke-opacity="0.30980393" stroke-width="0.2"/>
    </g>
    <g id="decoration22-shape2" transform="matrix(1.0, 0.0, 0.0, 1.0, 1.75, 59.55)">
      <path d="M28.35 -55.8 L26.4 -37.9 13.2 -37.4 16.25 -55.8 28.35 -55.8" fill="#251d13" fill-rule="evenodd" stroke="none"/>
      <path d="M21.15 -55.9 L23.45 -55.7 20.35 -37.4 18.0 -37.65 21.15 -55.9 M24.1 -55.9 L26.4 -55.7 23.3 -37.4 20.95 -37.65 24.1 -55.9 M18.25 -55.9 L20.55 -55.7 17.45 -37.4 15.1 -37.65 18.25 -55.9 M15.25 -55.9 L17.55 -55.7 14.45 -37.4 12.1 -37.65 15.25 -55.9" fill="#7e633b" fill-rule="evenodd" stroke="none"/>
      <path d="M15.25 -55.9 L12.1 -37.65 14.45 -37.4 17.55 -55.7 15.25 -55.9 M18.25 -55.9 L15.1 -37.65 17.45 -37.4 20.55 -55.7 18.25 -55.9 M24.1 -55.9 L20.95 -37.65 23.3 -37.4 26.4 -55.7 24.1 -55.9 M21.15 -55.9 L18.0 -37.65 20.35 -37.4 23.45 -55.7 21.15 -55.9" fill="none" stroke="#000000" stroke-linecap="round" stroke-linejoin="round" stroke-opacity="0.30980393" stroke-width="0.2"/>
      <path d="M27.55 -59.3 Q29.3 -59.65 30.15 -59.05 L26.65 -37.4 23.95 -37.7 27.55 -59.3" fill="#24345b" fill-rule="evenodd" stroke="none"/>
      <path d="M27.55 -59.3 L23.95 -37.7 26.65 -37.4 30.15 -59.05 Q29.3 -59.65 27.55 -59.3 Z" fill="none" stroke="#000000" stroke-linecap="round" stroke-linejoin="round" stroke-opacity="0.30980393" stroke-width="0.2"/>
      <path d="M11.6 -37.65 L-1.3 -37.65 -1.65 -49.95 11.6 -49.95 11.6 -37.65" fill="#232019" fill-rule="evenodd" stroke="none"/>
      <path d="M11.6 -37.65 L-1.3 -37.65 -1.65 -49.95 11.6 -49.95 11.6 -37.65 Z" fill="none" stroke="#000000" stroke-linecap="round" stroke-linejoin="round" stroke-opacity="0.30980393" stroke-width="0.2"/>
    </g>
  </defs>
</svg>
