<?xml version="1.0" encoding="UTF-8" standalone="no"?>
<svg xmlns:ffdec="https://www.free-decompiler.com/flash" xmlns:xlink="http://www.w3.org/1999/xlink" ffdec:objectType="frame" height="20.7px" width="16.05px" xmlns="http://www.w3.org/2000/svg">
  <g transform="matrix(1.0, 0.0, 0.0, 1.0, 1.05, 2.4)">
    <use ffdec:characterId="89" height="20.7" transform="matrix(1.0, 0.0, 0.0, 1.0, -1.05, -2.4)" width="16.05" xlink:href="#decoration220-shape0"/>
  </g>
  <defs>
    <g id="decoration220-shape0" transform="matrix(1.0, 0.0, 0.0, 1.0, 1.05, 2.4)">
      <path d="M9.85 14.3 Q8.15 17.6 5.45 18.15 2.25 18.45 1.7 16.2 1.65 11.9 9.55 13.35 L9.85 14.3" fill="#131313" fill-rule="evenodd" stroke="none"/>
      <path d="M9.85 14.3 L9.55 13.35 Q1.65 11.9 1.7 16.2 2.25 18.45 5.45 18.15 8.15 17.6 9.85 14.3 Z" fill="none" stroke="#000000" stroke-linecap="round" stroke-linejoin="round" stroke-opacity="0.5019608" stroke-width="0.2"/>
      <path d="M4.7 17.55 Q4.55 18.3 4.2 17.95 3.9 17.65 4.2 17.35 4.5 17.0 4.7 17.55" fill="#f0e2a8" fill-rule="evenodd" stroke="none"/>
      <path d="M3.6 17.2 Q3.45 17.95 3.1 17.6 2.8 17.3 3.1 16.95 3.4 16.65 3.6 17.2" fill="#f0e2a8" fill-rule="evenodd" stroke="none"/>
      <path d="M2.95 16.05 Q2.8 17.05 2.35 16.65 1.9 16.25 2.3 15.9 2.7 15.55 2.95 16.05" fill="#f0e2a8" fill-rule="evenodd" stroke="none"/>
      <path d="M3.45 14.55 Q3.25 15.9 2.6 15.3 1.95 14.7 2.5 14.15 3.05 13.6 3.45 14.55" fill="#f0e2a8" fill-rule="evenodd" stroke="none"/>
      <path d="M4.45 15.1 Q5.75 15.0 5.1 15.75 4.3 16.5 3.9 16.0 3.4 15.45 4.45 15.1" fill="url(#decoration220-gradient0)" fill-rule="evenodd" stroke="none"/>
      <path d="M7.5 14.85 Q10.8 13.2 7.95 15.25 5.05 17.25 4.6 16.95 4.15 16.55 7.5 14.85" fill="url(#decoration220-gradient1)" fill-rule="evenodd" stroke="none"/>
      <path d="M7.4 13.55 Q11.15 13.5 7.65 14.35 4.15 15.25 3.9 14.4 3.6 13.55 7.4 13.55" fill="url(#decoration220-gradient2)" fill-rule="evenodd" stroke="none"/>
      <path d="M5.8 17.45 Q5.75 18.05 5.4 17.75 5.15 17.45 5.4 17.2 L5.8 17.45" fill="#f0e2a8" fill-rule="evenodd" stroke="none"/>
      <path d="M8.2 15.3 Q10.55 13.4 8.75 15.65 6.9 17.8 6.4 17.5 5.9 17.15 8.2 15.3" fill="url(#decoration220-gradient3)" fill-rule="evenodd" stroke="none"/>
      <path d="M10.05 13.4 Q4.7 10.65 3.75 6.15 3.45 0.7 7.1 -0.25 14.05 -7.9 11.65 12.9 L10.05 13.4" fill="#131313" fill-rule="evenodd" stroke="none"/>
      <path d="M10.05 13.4 L11.65 12.9 Q14.05 -7.9 7.1 -0.25 3.45 0.7 3.75 6.15 4.7 10.65 10.05 13.4 Z" fill="none" stroke="#000000" stroke-linecap="round" stroke-linejoin="round" stroke-opacity="0.5019608" stroke-width="0.2"/>
      <path d="M6.15 3.5 Q5.0 3.3 5.5 2.8 L6.5 2.75 Q6.9 3.2 6.15 3.5" fill="#f0e2a8" fill-rule="evenodd" stroke="none"/>
      <path d="M8.05 2.35 Q6.45 2.05 7.1 1.4 7.7 0.65 8.2 1.25 8.8 1.9 8.05 2.35" fill="#f0e2a8" fill-rule="evenodd" stroke="none"/>
      <path d="M10.6 -0.45 Q11.4 0.45 9.95 1.1 7.9 0.75 8.85 -0.25 9.7 -1.35 10.6 -0.45" fill="#f0e2a8" fill-rule="evenodd" stroke="none"/>
      <path d="M9.6 5.25 Q9.7 7.35 8.6 6.3 7.4 5.1 8.15 4.4 9.1 3.6 9.6 5.25" fill="url(#decoration220-gradient4)" fill-rule="evenodd" stroke="none"/>
      <path d="M9.8 10.05 Q12.3 15.3 9.2 10.8 6.15 6.3 6.7 5.55 7.3 4.8 9.8 10.05" fill="url(#decoration220-gradient5)" fill-rule="evenodd" stroke="none"/>
      <path d="M11.7 8.35 Q11.7 15.55 10.5 9.45 9.3 3.35 10.5 2.25 11.7 1.1 11.7 8.35" fill="url(#decoration220-gradient6)" fill-rule="evenodd" stroke="none"/>
      <path d="M0.35 4.0 Q2.55 -6.15 10.85 13.1 L9.7 14.35 Q3.7 14.65 0.65 11.2 -2.35 6.65 0.35 4.0" fill="#131313" fill-rule="evenodd" stroke="none"/>
      <path d="M0.35 4.0 Q-2.35 6.65 0.65 11.2 3.7 14.65 9.7 14.35 L10.85 13.1 Q2.55 -6.15 0.35 4.0 Z" fill="none" stroke="#000000" stroke-linecap="round" stroke-linejoin="round" stroke-opacity="0.5019608" stroke-width="0.2"/>
      <path d="M1.85 9.8 Q0.75 10.2 0.9 9.45 1.05 8.75 1.75 8.95 2.4 9.1 1.85 9.8" fill="#f0e2a8" fill-rule="evenodd" stroke="none"/>
      <path d="M1.6 8.0 Q0.45 8.35 0.65 7.7 0.8 6.95 1.5 7.1 2.1 7.35 1.6 8.0" fill="#f0e2a8" fill-rule="evenodd" stroke="none"/>
      <path d="M2.6 6.05 Q1.15 6.6 1.3 5.7 1.5 4.8 2.25 5.05 3.0 5.3 2.6 6.05" fill="#f0e2a8" fill-rule="evenodd" stroke="none"/>
      <path d="M3.75 3.75 Q1.85 4.45 2.1 3.1 2.4 1.7 3.55 2.1 4.7 2.45 3.75 3.75" fill="#f0e2a8" fill-rule="evenodd" stroke="none"/>
      <path d="M4.85 7.45 Q6.0 9.2 4.5 8.85 2.9 8.4 3.2 7.4 L4.85 7.45" fill="url(#decoration220-gradient7)" fill-rule="evenodd" stroke="none"/>
      <path d="M7.45 11.5 Q12.25 14.8 7.3 12.45 2.4 10.05 2.5 9.15 2.65 8.2 7.45 11.5" fill="url(#decoration220-gradient8)" fill-rule="evenodd" stroke="none"/>
      <path d="M8.4 8.8 Q12.05 15.5 8.0 10.85 3.95 6.2 4.35 4.15 4.7 2.05 8.4 8.8" fill="url(#decoration220-gradient9)" fill-rule="evenodd" stroke="none"/>
      <path d="M2.9 11.25 Q2.0 11.65 2.2 11.0 2.35 10.3 2.85 10.45 3.35 10.6 2.9 11.25" fill="#f0e2a8" fill-rule="evenodd" stroke="none"/>
      <path d="M7.5 12.85 Q11.75 14.6 7.4 13.8 3.1 13.0 3.15 12.1 3.25 11.15 7.5 12.85" fill="url(#decoration220-gradient10)" fill-rule="evenodd" stroke="none"/>
      <path d="M13.7 8.75 L13.3 6.7 Q13.3 5.85 13.7 7.85 L13.7 8.75 M12.75 8.4 Q11.3 6.65 12.4 6.75 L12.75 8.4" fill="#2c1f22" fill-rule="evenodd" stroke="none"/>
      <path d="M12.7 10.6 L12.95 11.65 12.95 11.85 Q13.05 12.25 10.75 14.7 L9.85 15.9 9.05 17.05 8.0 17.15 Q7.75 16.6 8.55 15.9 L9.65 14.15 11.25 11.3 12.25 10.4 Q12.5 10.35 12.7 10.6 M12.95 11.65 L12.5 11.7 12.95 11.65 M9.65 14.15 Q9.8 14.85 10.75 14.7 9.8 14.85 9.65 14.15 M8.55 15.9 Q8.8 16.3 9.85 15.9 8.8 16.3 8.55 15.9" fill="#f4d0b9" fill-rule="evenodd" stroke="none"/>
      <path d="M13.7 8.75 L13.3 6.7 Q13.3 5.85 13.7 7.85 L13.7 8.75 Q13.55 10.0 12.7 10.6 L12.95 11.65 13.75 11.5 Q14.3 11.45 14.6 11.8 15.0 12.1 14.85 12.55 L14.35 13.15 13.8 13.25 13.45 13.0 13.3 12.45 13.35 12.15 Q13.4 12.0 13.5 12.05 L13.8 12.1 13.9 12.4 M12.95 11.65 L12.95 11.85 Q13.05 12.25 10.75 14.7 L9.85 15.9 9.05 17.05 8.0 17.15 Q7.75 16.6 8.55 15.9 L9.65 14.15 11.25 11.3 12.25 10.4 Q13.0 9.6 12.75 8.4 11.3 6.65 12.4 6.75 L12.75 8.4 M12.5 11.7 L12.95 11.65 M12.25 10.4 Q12.5 10.35 12.7 10.6 M9.85 15.9 Q8.8 16.3 8.55 15.9 M10.75 14.7 Q9.8 14.85 9.65 14.15" fill="none" stroke="#000000" stroke-linecap="round" stroke-linejoin="round" stroke-opacity="0.5019608" stroke-width="0.2"/>
      <path d="M12.5 10.2 L12.45 9.95 Q12.75 9.9 12.8 10.1 L12.75 10.2 12.5 10.25 12.5 10.2" fill="#ffffff" fill-rule="evenodd" stroke="none"/>
      <path d="M12.0 10.55 L12.05 10.05 Q12.1 9.85 12.4 9.8 L12.8 9.9 13.05 10.35 12.95 10.8 12.6 10.95 12.2 10.9 12.0 10.55 M12.5 10.2 L12.5 10.25 12.75 10.2 12.8 10.1 Q12.75 9.9 12.45 9.95 L12.5 10.2" fill="#000004" fill-rule="evenodd" stroke="none"/>
      <path d="M12.0 10.55 L12.2 10.9 12.6 10.95 12.95 10.8 13.05 10.35 12.8 9.9 12.4 9.8 Q12.1 9.85 12.05 10.05 L12.0 10.55 Z" fill="none" stroke="#000000" stroke-linecap="round" stroke-linejoin="round" stroke-opacity="0.4" stroke-width="0.05"/>
      <path d="M11.55 10.15 L11.9 10.4 11.85 10.55 11.55 10.45 11.55 10.15" fill="#ffffff" fill-rule="evenodd" stroke="none"/>
      <path d="M11.55 10.15 L11.55 10.45 11.85 10.55 11.9 10.4 11.55 10.15 M11.95 10.1 L12.25 10.6 12.1 11.05 11.75 11.35 11.3 11.2 11.05 10.8 Q11.0 10.55 11.1 10.25 11.25 10.1 11.5 10.0 L11.95 10.1" fill="#000004" fill-rule="evenodd" stroke="none"/>
      <path d="M11.95 10.1 L11.5 10.0 Q11.25 10.1 11.1 10.25 11.0 10.55 11.05 10.8 L11.3 11.2 11.75 11.35 12.1 11.05 12.25 10.6 11.95 10.1 Z" fill="none" stroke="#000000" stroke-linecap="round" stroke-linejoin="round" stroke-opacity="0.4" stroke-width="0.05"/>
    </g>
    <linearGradient gradientTransform="matrix(-8.0E-4, -2.0E-4, 2.0E-4, -7.0E-4, 4.3, 15.55)" gradientUnits="userSpaceOnUse" id="decoration220-gradient0" spreadMethod="pad" x1="-819.2" x2="819.2">
      <stop offset="0.0" stop-color="#c2a000"/>
      <stop offset="1.0" stop-color="#edd149"/>
    </linearGradient>
    <linearGradient gradientTransform="matrix(-0.0027, 5.0E-4, -2.0E-4, -0.0017, 6.7, 15.55)" gradientUnits="userSpaceOnUse" id="decoration220-gradient1" spreadMethod="pad" x1="-819.2" x2="819.2">
      <stop offset="0.0" stop-color="#c2a000"/>
      <stop offset="1.0" stop-color="#edd149"/>
    </linearGradient>
    <linearGradient gradientTransform="matrix(-0.0017, -0.001, 0.0014, -0.0025, 6.45, 14.15)" gradientUnits="userSpaceOnUse" id="decoration220-gradient2" spreadMethod="pad" x1="-819.2" x2="819.2">
      <stop offset="0.0" stop-color="#c2a000"/>
      <stop offset="1.0" stop-color="#edd149"/>
    </linearGradient>
    <linearGradient gradientTransform="matrix(-0.0024, 7.0E-4, -2.0E-4, -8.0E-4, 7.7, 16.0)" gradientUnits="userSpaceOnUse" id="decoration220-gradient3" spreadMethod="pad" x1="-819.2" x2="819.2">
      <stop offset="0.0" stop-color="#c2a000"/>
      <stop offset="1.0" stop-color="#edd149"/>
    </linearGradient>
    <linearGradient gradientTransform="matrix(5.0E-4, -9.0E-4, 0.0013, 8.0E-4, 8.7, 5.35)" gradientUnits="userSpaceOnUse" id="decoration220-gradient4" spreadMethod="pad" x1="-819.2" x2="819.2">
      <stop offset="0.0" stop-color="#c2a000"/>
      <stop offset="1.0" stop-color="#edd149"/>
    </linearGradient>
    <linearGradient gradientTransform="matrix(7.0E-4, -0.0025, 0.0044, 0.0012, 8.75, 9.1)" gradientUnits="userSpaceOnUse" id="decoration220-gradient5" spreadMethod="pad" x1="-819.2" x2="819.2">
      <stop offset="0.0" stop-color="#c2a000"/>
      <stop offset="1.0" stop-color="#edd149"/>
    </linearGradient>
    <linearGradient gradientTransform="matrix(8.0E-4, -8.0E-4, 0.0044, 0.0044, 10.8, 7.1)" gradientUnits="userSpaceOnUse" id="decoration220-gradient6" spreadMethod="pad" x1="-819.2" x2="819.2">
      <stop offset="0.0" stop-color="#c2a000"/>
      <stop offset="1.0" stop-color="#edd149"/>
    </linearGradient>
    <linearGradient gradientTransform="matrix(-7.0E-4, -0.0012, 0.0011, -6.0E-4, 4.25, 7.8)" gradientUnits="userSpaceOnUse" id="decoration220-gradient7" spreadMethod="pad" x1="-819.2" x2="819.2">
      <stop offset="0.0" stop-color="#c2a000"/>
      <stop offset="1.0" stop-color="#edd149"/>
    </linearGradient>
    <linearGradient gradientTransform="matrix(-0.0031, -0.0031, 0.0019, -0.0019, 6.15, 11.15)" gradientUnits="userSpaceOnUse" id="decoration220-gradient8" spreadMethod="pad" x1="-819.2" x2="819.2">
      <stop offset="0.0" stop-color="#c2a000"/>
      <stop offset="1.0" stop-color="#edd149"/>
    </linearGradient>
    <linearGradient gradientTransform="matrix(0.0, -0.0036, 0.0056, 0.0, 7.2, 8.2)" gradientUnits="userSpaceOnUse" id="decoration220-gradient9" spreadMethod="pad" x1="-819.2" x2="819.2">
      <stop offset="0.0" stop-color="#c2a000"/>
      <stop offset="1.0" stop-color="#edd149"/>
    </linearGradient>
    <linearGradient gradientTransform="matrix(-0.0028, -0.0028, 0.001, -0.001, 6.35, 12.85)" gradientUnits="userSpaceOnUse" id="decoration220-gradient10" spreadMethod="pad" x1="-819.2" x2="819.2">
      <stop offset="0.0" stop-color="#c2a000"/>
      <stop offset="1.0" stop-color="#edd149"/>
    </linearGradient>
  </defs>
</svg>
