<?xml version="1.0" encoding="UTF-8" standalone="no"?>
<svg xmlns:xlink="http://www.w3.org/1999/xlink" height="20.6px" width="19.95px" xmlns="http://www.w3.org/2000/svg">
  <g transform="matrix(1.0, 0.0, 0.0, 1.0, 11.35, 19.7)">
    <use height="20.6" transform="matrix(1.0, 0.0, 0.0, 1.0, -11.35, -19.7)" width="19.95" xlink:href="#decoration222-shape0"/>
  </g>
  <defs>
    <g id="decoration222-shape0" transform="matrix(1.0, 0.0, 0.0, 1.0, 11.35, 19.7)">
      <path d="M0.9 -19.55 L0.85 -19.35 Q0.85 -18.3 2.55 -18.3 L3.05 -18.4 3.35 -17.3 Q3.35 -16.35 2.6 -15.7 1.9 -15.05 0.8 -15.05 -0.2 -15.05 -0.9 -15.7 -1.65 -16.35 -1.65 -17.3 -1.65 -18.25 -0.9 -18.9 -0.2 -19.55 0.8 -19.55 L0.9 -19.55" fill="#b3b3b3" fill-rule="evenodd" stroke="none"/>
      <path d="M3.05 -18.4 L2.55 -18.3 Q0.85 -18.3 0.85 -19.35 L0.9 -19.55 Q1.9 -19.55 2.6 -18.9 L3.05 -18.4" fill="#000000" fill-rule="evenodd" stroke="none"/>
      <path d="M0.9 -19.55 L0.8 -19.55 Q-0.2 -19.55 -0.9 -18.9 -1.65 -18.25 -1.65 -17.3 -1.65 -16.35 -0.9 -15.7 -0.2 -15.05 0.8 -15.05 1.9 -15.05 2.6 -15.7 3.35 -16.35 3.35 -17.3 L3.05 -18.4 2.6 -18.9 Q1.9 -19.55 0.9 -19.55 Z" fill="none" stroke="#000000" stroke-linecap="round" stroke-linejoin="round" stroke-opacity="0.3019608" stroke-width="0.30000000000000004"/>
      <path d="M-7.75 -14.0 Q-7.2 -13.25 -6.5 -12.9 -6.35 -11.15 -2.1 -10.8 L-3.7 -9.65 -4.45 -9.7 Q-8.35 -10.2 -7.75 -14.0 M4.05 -11.75 Q6.15 -11.4 8.05 -9.45 9.05 -7.8 7.4 -6.15 L6.8 -8.4 Q5.95 -10.5 4.05 -11.75" fill="#434b4d" fill-rule="evenodd" stroke="none"/>
      <path d="M-3.7 -9.65 L-2.1 -10.8 Q-6.35 -11.15 -6.5 -12.9 -7.2 -13.25 -7.75 -14.0 -6.4 -17.05 -2.3 -17.9 0.2 -18.55 2.25 -16.8 L3.5 -14.85 Q3.65 -13.25 3.05 -12.3 L4.05 -11.75 Q5.95 -10.5 6.8 -8.4 L4.6 -9.55 4.5 -9.6 3.6 -9.65 3.55 -9.65 Q1.1 -9.95 -1.05 -6.35 -3.25 -2.75 0.85 0.75 L-4.75 0.75 Q-6.7 -0.05 -8.25 -1.75 -9.15 -7.7 -4.45 -9.7 L-3.7 -9.65 M2.7 -10.1 Q2.85 -9.75 3.55 -9.65 2.85 -9.75 2.7 -10.1 M1.35 -11.2 Q2.5 -11.45 3.05 -12.3 2.5 -11.45 1.35 -11.2" fill="#5e6669" fill-rule="evenodd" stroke="none"/>
      <path d="M7.4 -6.15 L7.5 -4.65 Q7.0 -0.65 3.9 0.75 L0.85 0.75 Q-3.25 -2.75 -1.05 -6.35 1.1 -9.95 3.55 -9.65 L3.6 -9.65 4.5 -9.6 4.6 -9.55 3.95 -9.15 Q3.35 -8.85 3.3 -8.9 L3.55 -7.25 2.1 -7.75 3.55 -7.25 3.3 -8.9 Q3.35 -8.85 3.95 -9.15 L4.6 -9.55 6.8 -8.4 7.4 -6.15" fill="#8a8e91" fill-rule="evenodd" stroke="none"/>
      <path d="M-7.75 -14.0 Q-8.35 -10.2 -4.45 -9.7 L-3.7 -9.65 M-7.75 -14.0 Q-6.4 -17.05 -2.3 -17.9 0.2 -18.55 2.25 -16.8 L3.5 -14.85 Q3.65 -13.25 3.05 -12.3 L4.05 -11.75 Q6.15 -11.4 8.05 -9.45 9.05 -7.8 7.4 -6.15 L7.5 -4.65 Q7.0 -0.65 3.9 0.75 L0.85 0.75 -4.75 0.75 Q-6.7 -0.05 -8.25 -1.75 -9.15 -7.7 -4.45 -9.7 M4.6 -9.55 L3.95 -9.15 Q3.35 -8.85 3.3 -8.9 L3.55 -7.25 2.1 -7.75 M3.55 -9.65 Q2.85 -9.75 2.7 -10.1 M4.6 -9.55 L4.5 -9.6 3.6 -9.65 3.55 -9.65 M3.05 -12.3 Q2.5 -11.45 1.35 -11.2 M7.4 -6.15 L6.8 -8.4 Q5.95 -10.5 4.05 -11.75" fill="none" stroke="#000000" stroke-linecap="round" stroke-linejoin="round" stroke-opacity="0.3019608" stroke-width="0.30000000000000004"/>
      <path d="M-6.65 -8.95 L-6.5 -9.05 -6.15 -9.25 -5.6 -9.4 -5.4 -9.45 -5.5 -7.0 Q-5.35 -5.15 -4.4 -3.75 -5.05 -3.35 -5.75 -3.05 -6.8 -4.65 -6.8 -6.85 L-6.65 -8.95 M-6.8 -6.85 L-5.5 -7.0 -6.8 -6.85" fill="#3e4142" fill-rule="evenodd" stroke="none"/>
      <path d="M-5.4 -9.45 L-3.75 -9.5 -1.9 -8.85 Q-0.55 -7.45 -1.5 -5.6 L-3.0 -3.5 Q-4.35 -2.8 -3.85 -4.1 L-4.4 -3.75 Q-5.35 -5.15 -5.5 -7.0 L-5.4 -9.45 M-10.6 -2.55 Q-11.55 -2.8 -10.7 -3.65 -11.0 -3.75 -11.2 -4.0 L-9.85 -5.45 Q-9.55 -7.3 -6.65 -8.95 L-6.8 -6.85 Q-6.8 -4.65 -5.75 -3.05 -7.05 -2.6 -8.5 -2.55 -9.95 -2.4 -10.6 -2.55 M-3.4 -4.35 L-3.85 -4.1 -3.4 -4.35 M-9.85 -5.45 Q-8.6 -6.5 -6.8 -6.85 -8.6 -6.5 -9.85 -5.45 M-7.25 -4.35 Q-9.6 -3.35 -10.7 -3.65 -9.6 -3.35 -7.25 -4.35" fill="#5e6669" fill-rule="evenodd" stroke="none"/>
      <path d="M-1.9 -8.85 Q0.5 -7.05 -0.05 -5.4 -0.6 -3.8 -2.3 -2.7 L-3.0 -2.3 Q-3.85 -2.95 -4.4 -3.75 L-3.85 -4.1 Q-4.35 -2.8 -3.0 -3.5 L-1.5 -5.6 Q-0.55 -7.45 -1.9 -8.85 M-4.5 -1.7 L-5.7 -1.55 -8.3 -1.6 Q-9.8 -1.8 -10.6 -2.55 -9.95 -2.4 -8.5 -2.55 -7.05 -2.6 -5.75 -3.05 L-4.5 -1.7" fill="#434b4d" fill-rule="evenodd" stroke="none"/>
      <path d="M-3.0 -2.3 Q-3.75 -1.9 -4.5 -1.7 L-5.75 -3.05 Q-5.05 -3.35 -4.4 -3.75 -3.85 -2.95 -3.0 -2.3" fill="#333535" fill-rule="evenodd" stroke="none"/>
      <path d="M-5.4 -9.45 L-3.75 -9.5 -1.9 -8.85 Q0.5 -7.05 -0.05 -5.4 -0.6 -3.8 -2.3 -2.7 L-3.0 -2.3 Q-3.75 -1.9 -4.5 -1.7 L-5.7 -1.55 -8.3 -1.6 Q-9.8 -1.8 -10.6 -2.55 -11.55 -2.8 -10.7 -3.65 -11.0 -3.75 -11.2 -4.0 L-9.85 -5.45 Q-9.55 -7.3 -6.65 -8.95 M-6.5 -9.05 L-6.15 -9.25 -5.6 -9.4 -5.4 -9.45 M-4.4 -3.75 L-3.85 -4.1 -3.4 -4.35 M-5.5 -7.0 L-6.8 -6.85 Q-8.6 -6.5 -9.85 -5.45 M-5.75 -3.05 Q-5.05 -3.35 -4.4 -3.75 M-5.75 -3.05 Q-7.05 -2.6 -8.5 -2.55 -9.95 -2.4 -10.6 -2.55 M-10.7 -3.65 Q-9.6 -3.35 -7.25 -4.35" fill="none" stroke="#000000" stroke-linecap="round" stroke-linejoin="round" stroke-opacity="0.3019608" stroke-width="0.30000000000000004"/>
      <path d="M-7.9 -14.7 L-8.05 -15.85 Q-8.05 -17.25 -7.2 -18.3 -6.3 -19.45 -5.0 -19.55 -3.75 -19.65 -2.85 -18.75 L-2.2 -17.95 -1.95 -17.05 Q-3.05 -14.35 -4.45 -13.75 -6.6 -13.25 -7.9 -14.7 M-4.5 -17.5 Q-4.5 -17.95 -4.9 -18.3 L-5.55 -18.5 -6.45 -18.15 Q-7.15 -17.55 -7.25 -16.55 -7.45 -15.05 -6.15 -15.1 -5.5 -15.1 -4.95 -16.1 -4.5 -16.9 -4.5 -17.5" fill="#f9f9f9" fill-rule="evenodd" stroke="none"/>
      <path d="M-1.95 -17.05 L-1.9 -16.4 Q-1.9 -14.9 -2.85 -13.9 -3.75 -12.8 -5.0 -12.7 L-6.4 -12.95 -7.65 -14.05 -7.9 -14.7 Q-6.6 -13.25 -4.45 -13.75 -3.05 -14.35 -1.95 -17.05" fill="#aeaeae" fill-rule="evenodd" stroke="none"/>
      <path d="M-4.5 -17.5 Q-4.5 -16.9 -4.95 -16.1 -5.5 -15.1 -6.15 -15.1 -7.45 -15.05 -7.25 -16.55 -7.15 -17.55 -6.45 -18.15 L-5.55 -18.5 -4.9 -18.3 Q-4.5 -17.95 -4.5 -17.5" fill="#000000" fill-rule="evenodd" stroke="none"/>
      <path d="M-7.9 -14.7 L-8.05 -15.85 Q-8.05 -17.25 -7.2 -18.3 -6.3 -19.45 -5.0 -19.55 -3.75 -19.65 -2.85 -18.75 L-2.2 -17.95 -1.95 -17.05 -1.9 -16.4 Q-1.9 -14.9 -2.85 -13.9 -3.75 -12.8 -5.0 -12.7 L-6.4 -12.95 -7.65 -14.05 -7.9 -14.7 Z" fill="none" stroke="#000000" stroke-linecap="round" stroke-linejoin="round" stroke-opacity="0.3019608" stroke-width="0.30000000000000004"/>
      <path d="M0.5 -15.15 Q1.1 -16.2 1.8 -16.3 L2.85 -16.4 Q5.45 -16.6 6.35 -14.25 L5.25 -14.3 4.1 -14.45 3.05 -14.5 2.35 -13.7 1.35 -13.3 Q0.45 -13.25 0.15 -13.65 -0.15 -14.1 0.5 -15.15 M3.05 -14.5 L1.4 -14.25 3.05 -14.5" fill="#262b2e" fill-rule="evenodd" stroke="none"/>
      <path d="M0.5 -15.15 Q1.1 -16.2 1.8 -16.3 L2.85 -16.4 Q5.45 -16.6 6.35 -14.25 L5.25 -14.3 4.1 -14.45 3.05 -14.5 2.35 -13.7 1.35 -13.3 Q0.45 -13.25 0.15 -13.65 -0.15 -14.1 0.5 -15.15 M1.4 -14.25 L3.05 -14.5" fill="none" stroke="#000000" stroke-linecap="round" stroke-linejoin="round" stroke-opacity="0.3019608" stroke-width="0.30000000000000004"/>
    </g>
  </defs>
</svg>
