<?xml version="1.0" encoding="UTF-8" standalone="no"?>
<svg xmlns:xlink="http://www.w3.org/1999/xlink" height="150.95px" width="104.5px" xmlns="http://www.w3.org/2000/svg">
  <g transform="matrix(1.0, 0.0, 0.0, 1.0, 52.75, 150.7)">
    <use height="150.95" transform="matrix(1.0, 0.0, 0.0, 1.0, -52.75, -150.7)" width="104.5" xlink:href="#decoration223-shape0"/>
  </g>
  <defs>
    <g id="decoration223-shape0" transform="matrix(1.0, 0.0, 0.0, 1.0, 52.75, 150.7)">
      <path d="M-0.45 -133.75 L-0.45 -133.7 1.4 -136.8 Q3.5 -140.1 4.75 -141.6 7.55 -144.7 10.85 -146.7 17.05 -150.55 25.15 -150.55 L28.1 -150.35 30.0 -150.15 Q28.9 -69.1 -29.35 -78.75 L-35.7 -84.9 Q-39.85 -89.1 -41.25 -91.35 L-45.25 -97.3 Q-47.2 -100.0 -49.7 -106.55 L-51.8 -112.6 Q-52.4 -115.85 -52.55 -119.4 -53.05 -132.25 -45.7 -141.35 -42.5 -145.3 -38.45 -147.55 L-35.7 -148.7 Q-16.8 -146.1 -0.45 -133.75 M4.95 -133.05 Q13.6 -142.75 26.4 -145.2 9.0 -149.35 4.95 -133.05" fill="url(#decoration223-gradient0)" fill-rule="evenodd" stroke="none"/>
      <path d="M4.95 -133.05 Q9.0 -149.35 26.4 -145.2 13.6 -142.75 4.95 -133.05" fill="#ffa3a4" fill-rule="evenodd" stroke="none"/>
      <path d="M30.0 -150.15 Q38.8 -148.85 43.9 -142.4 50.4 -134.35 51.1 -128.1 L51.55 -123.6 Q51.7 -122.1 51.15 -118.1 50.7 -114.2 50.25 -112.75 48.85 -108.15 46.8 -103.8 44.6 -99.1 41.65 -94.7 L38.65 -90.65 33.85 -84.75 Q26.7 -77.05 16.9 -70.5 11.7 -66.8 6.15 -65.3 1.2 -64.15 -3.6 -64.6 L-3.65 -64.6 Q-11.2 -65.6 -21.15 -71.5 L-25.95 -75.65 -29.35 -78.75 Q28.9 -69.1 30.0 -150.15 M-35.7 -148.7 L-35.6 -148.75 -32.45 -149.8 -29.55 -150.25 -25.95 -150.55 Q-18.7 -150.55 -13.0 -147.45 -8.95 -145.3 -5.6 -141.6 -3.6 -139.25 -0.45 -133.75 -16.8 -146.1 -35.7 -148.7" fill="#d93b3f" fill-rule="evenodd" stroke="none"/>
      <path d="M6.15 -65.3 L9.3 -59.25 5.35 -59.75 1.7 -57.9 -2.55 -60.45 -8.05 -60.85 -3.6 -64.6 Q1.2 -64.15 6.15 -65.3" fill="#c32d33" fill-rule="evenodd" stroke="none"/>
      <path d="M-0.45 -133.75 L-0.45 -133.7 1.4 -136.8 Q3.5 -140.1 4.75 -141.6 7.55 -144.7 10.85 -146.7 17.05 -150.55 25.15 -150.55 L28.1 -150.35 30.0 -150.15 Q38.8 -148.85 43.9 -142.4 50.4 -134.35 51.1 -128.1 L51.55 -123.6 Q51.7 -122.1 51.15 -118.1 50.7 -114.2 50.25 -112.75 48.85 -108.15 46.8 -103.8 44.6 -99.1 41.65 -94.7 L38.65 -90.65 33.85 -84.75 Q26.7 -77.05 16.9 -70.5 11.7 -66.8 6.15 -65.3 L9.3 -59.25 5.35 -59.75 1.7 -57.9 -2.55 -60.45 -8.05 -60.85 -3.6 -64.6 M-3.65 -64.6 Q-11.2 -65.6 -21.15 -71.5 L-25.95 -75.65 -29.35 -78.75 -35.7 -84.9 Q-39.85 -89.1 -41.25 -91.35 L-45.25 -97.3 Q-47.2 -100.0 -49.7 -106.55 L-51.8 -112.6 Q-52.4 -115.85 -52.55 -119.4 -53.05 -132.25 -45.7 -141.35 -42.5 -145.3 -38.45 -147.55 L-35.7 -148.7 -35.6 -148.75 -32.45 -149.8 -29.55 -150.25 -25.95 -150.55 Q-18.7 -150.55 -13.0 -147.45 -8.95 -145.3 -5.6 -141.6 -3.6 -139.25 -0.45 -133.75 Z" fill="none" stroke="#000000" stroke-linecap="round" stroke-linejoin="round" stroke-opacity="0.3019608" stroke-width="0.30000000000000004"/>
      <path d="M-15.85 -83.3 Q-22.7 -86.25 -28.1 -89.45 -63.6 -110.55 -36.3 -143.5 -48.8 -114.4 -25.4 -91.35 -21.2 -87.25 -15.85 -83.3" fill="#ffa3a4" fill-rule="evenodd" stroke="none"/>
      <path d="M-18.6 -31.3 Q-38.85 -71.1 -50.05 -106.3 L-39.45 -103.5 Q-31.5 -101.6 -23.8 -100.45 0.95 -96.65 23.3 -100.15 L23.35 -100.15 34.7 -102.4 Q41.45 -104.05 47.9 -106.4 38.75 -67.85 18.95 -32.25 M34.7 -102.4 L14.05 -32.4 M23.3 -100.15 Q18.85 -66.05 6.2 -32.6 M-39.45 -103.5 L-13.85 -32.15 M-23.8 -100.45 Q-20.25 -66.1 -8.8 -32.8" fill="none" stroke="#000000" stroke-linecap="round" stroke-linejoin="round" stroke-opacity="0.4" stroke-width="0.8"/>
      <path d="M-23.7 -27.15 L-23.7 -32.5 23.35 -32.5 23.2 -7.1 22.6 -4.45 Q20.9 0.1 15.65 0.1 L-16.95 0.05 Q-20.4 -0.25 -22.1 -2.8 L-22.35 -3.3 -16.75 -3.4 Q-10.6 -3.85 1.8 -7.45 17.75 -12.05 17.6 -26.65 17.65 -26.8 -23.7 -27.15" fill="#b9874b" fill-rule="evenodd" stroke="none"/>
      <path d="M-22.35 -3.3 L-22.85 -4.45 Q-23.15 -5.25 -23.7 -27.15 17.65 -26.8 17.6 -26.65 17.75 -12.05 1.8 -7.45 -10.6 -3.85 -16.75 -3.4 L-22.35 -3.3" fill="url(#decoration223-gradient1)" fill-rule="evenodd" stroke="none"/>
      <path d="M-23.7 -27.15 L-23.7 -32.5 23.35 -32.5 23.2 -7.1 22.6 -4.45 Q20.9 0.1 15.65 0.1 L-16.95 0.05 Q-20.4 -0.25 -22.1 -2.8 L-22.35 -3.3 -22.85 -4.45 Q-23.15 -5.25 -23.7 -27.15 Z" fill="none" stroke="#000000" stroke-linecap="round" stroke-linejoin="round" stroke-opacity="0.3019608" stroke-width="0.30000000000000004"/>
      <path d="M-20.9 -7.15 Q-23.2 -16.15 -22.35 -25.15 L-15.25 -25.1 Q-17.85 -13.75 -5.9 -6.85 -12.2 -6.6 -20.9 -7.15" fill="#ffdbb0" fill-rule="evenodd" stroke="none"/>
      <path d="M26.6 -30.95 L26.05 -30.35 Q25.2 -29.6 24.0 -29.6 L-24.85 -29.6 Q-26.05 -29.6 -26.95 -30.35 L-27.45 -30.9 26.6 -30.95" fill="#b9874b" fill-rule="evenodd" stroke="none"/>
      <path d="M-27.45 -30.9 Q-27.85 -31.5 -27.85 -32.2 L-27.85 -32.25 Q-27.85 -33.25 -26.95 -34.1 -26.05 -34.85 -24.85 -34.85 L24.0 -34.85 Q25.2 -34.85 26.05 -34.1 26.95 -33.25 26.95 -32.25 L26.95 -32.2 Q26.95 -31.5 26.6 -30.95 L-27.45 -30.9" fill="url(#decoration223-gradient2)" fill-rule="evenodd" stroke="none"/>
      <path d="M-27.45 -30.9 Q-27.85 -31.5 -27.85 -32.2 L-27.85 -32.25 Q-27.85 -33.25 -26.95 -34.1 -26.05 -34.85 -24.85 -34.85 L24.0 -34.85 Q25.2 -34.85 26.05 -34.1 26.95 -33.25 26.95 -32.25 L26.95 -32.2 Q26.95 -31.5 26.6 -30.95 L26.05 -30.35 Q25.2 -29.6 24.0 -29.6 L-24.85 -29.6 Q-26.05 -29.6 -26.95 -30.35 L-27.45 -30.9 Z" fill="none" stroke="#000000" stroke-linecap="round" stroke-linejoin="round" stroke-opacity="0.3019608" stroke-width="0.30000000000000004"/>
      <path d="M23.55 -33.15 L22.65 -32.95 -23.35 -32.95 -24.35 -33.15 -24.7 -33.45 -24.35 -33.85 -23.35 -33.95 22.65 -33.95 23.55 -33.85 24.0 -33.45 23.55 -33.15" fill="#ffdbb0" fill-rule="evenodd" stroke="none"/>
      <path d="M48.1 -104.75 L44.3 -86.8 32.65 -100.5 48.1 -104.75 M37.65 -99.75 L37.45 -99.45 Q36.85 -98.3 37.55 -97.15 L38.05 -96.45 40.85 -94.9 43.15 -93.85 43.75 -94.9 Q45.2 -97.8 45.45 -99.1 45.6 -101.2 44.1 -101.85 L43.75 -101.95 Q41.9 -101.95 41.05 -99.9 L40.45 -100.1 Q39.15 -100.6 38.1 -100.1 L38.0 -100.0 37.65 -99.75" fill="#ffffff" fill-rule="evenodd" stroke="none"/>
      <path d="M37.65 -99.75 L38.0 -100.0 38.1 -100.1 Q39.15 -100.6 40.45 -100.1 L41.05 -99.9 Q41.9 -101.95 43.75 -101.95 L44.1 -101.85 Q45.6 -101.2 45.45 -99.1 45.2 -97.8 43.75 -94.9 L43.15 -93.85 40.85 -94.9 38.05 -96.45 37.55 -97.15 Q36.85 -98.3 37.45 -99.45 L37.65 -99.75" fill="#fc6a6b" fill-rule="evenodd" stroke="none"/>
      <path d="M32.65 -100.5 L31.45 -101.85 48.5 -106.5 48.1 -104.75 32.65 -100.5" fill="#c4c4c4" fill-rule="evenodd" stroke="none"/>
      <path d="M32.65 -100.5 L31.45 -101.85 48.5 -106.5 48.1 -104.75 44.3 -86.8 32.65 -100.5 Z" fill="none" stroke="#000000" stroke-linecap="round" stroke-linejoin="round" stroke-opacity="0.3019608" stroke-width="0.30000000000000004"/>
      <path d="M-5.75 -97.05 L-6.5 -98.7 11.2 -98.8 10.3 -97.2 -5.75 -97.05" fill="#c4c4c4" fill-rule="evenodd" stroke="none"/>
      <path d="M10.3 -97.2 L2.1 -80.85 -5.75 -97.05 10.3 -97.2 M0.8 -89.55 L2.75 -87.95 3.6 -88.8 Q5.75 -91.25 6.35 -92.45 7.0 -94.4 5.75 -95.45 L5.4 -95.65 Q3.6 -96.1 2.25 -94.35 L1.75 -94.7 Q0.65 -95.5 -0.55 -95.3 L-0.7 -95.2 -1.05 -95.05 -1.35 -94.8 Q-2.25 -93.85 -1.8 -92.55 L-1.55 -91.75 0.8 -89.55" fill="#ffffff" fill-rule="evenodd" stroke="none"/>
      <path d="M0.8 -89.55 L-1.55 -91.75 -1.8 -92.55 Q-2.25 -93.85 -1.35 -94.8 L-1.05 -95.05 -0.7 -95.2 -0.55 -95.3 Q0.65 -95.5 1.75 -94.7 L2.25 -94.35 Q3.6 -96.1 5.4 -95.65 L5.75 -95.45 Q7.0 -94.4 6.35 -92.45 5.75 -91.25 3.6 -88.8 L2.75 -87.95 0.8 -89.55" fill="#fc6a6b" fill-rule="evenodd" stroke="none"/>
      <path d="M-5.75 -97.05 L-6.5 -98.7 11.2 -98.8 10.3 -97.2 2.1 -80.85 -5.75 -97.05 Z" fill="none" stroke="#000000" stroke-linecap="round" stroke-linejoin="round" stroke-opacity="0.3019608" stroke-width="0.30000000000000004"/>
      <path d="M13.65 -97.45 L12.65 -98.9 30.2 -101.45 29.65 -99.75 13.65 -97.45" fill="#d05758" fill-rule="evenodd" stroke="none"/>
      <path d="M29.65 -99.75 L23.7 -82.35 13.65 -97.45 29.65 -99.75 M25.2 -97.75 L24.85 -97.95 Q23.05 -98.2 21.8 -96.35 L21.25 -96.7 Q20.05 -97.45 18.9 -97.15 L18.8 -97.05 18.4 -96.85 18.15 -96.55 Q17.35 -95.6 17.8 -94.3 L18.05 -93.8 18.2 -93.55 20.75 -91.5 22.8 -90.0 23.6 -90.95 25.5 -93.85 26.0 -94.8 Q26.5 -96.8 25.2 -97.75" fill="#fc6a6b" fill-rule="evenodd" stroke="none"/>
      <path d="M25.2 -97.75 Q26.5 -96.8 26.0 -94.8 L25.5 -93.85 23.6 -90.95 22.8 -90.0 20.75 -91.5 18.2 -93.55 18.05 -93.8 17.8 -94.3 Q17.35 -95.6 18.15 -96.55 L18.4 -96.85 18.8 -97.05 18.9 -97.15 Q20.05 -97.45 21.25 -96.7 L21.8 -96.35 Q23.05 -98.2 24.85 -97.95 L25.2 -97.75" fill="#ffffff" fill-rule="evenodd" stroke="none"/>
      <path d="M13.65 -97.45 L12.65 -98.9 30.2 -101.45 29.65 -99.75 23.7 -82.35 13.65 -97.45 Z" fill="none" stroke="#000000" stroke-linecap="round" stroke-linejoin="round" stroke-opacity="0.3019608" stroke-width="0.30000000000000004"/>
      <path d="M-25.45 -98.8 L-26.05 -100.5 -8.4 -98.8 -9.3 -97.3 -25.45 -98.8" fill="#d05758" fill-rule="evenodd" stroke="none"/>
      <path d="M-9.3 -97.3 L-19.25 -81.8 -25.45 -98.8 -9.3 -97.3 M-14.1 -96.35 L-14.4 -96.65 Q-16.05 -97.35 -17.7 -95.8 L-18.15 -96.3 Q-19.15 -97.3 -20.35 -97.25 L-20.5 -97.25 -20.9 -97.15 -21.2 -96.9 Q-22.25 -96.15 -22.1 -94.8 L-21.95 -94.0 -20.0 -91.4 -18.3 -89.45 -17.3 -90.15 -14.05 -93.3 Q-13.05 -95.15 -14.1 -96.35" fill="#fc6a6b" fill-rule="evenodd" stroke="none"/>
      <path d="M-14.1 -96.35 Q-13.05 -95.15 -14.05 -93.3 L-17.3 -90.15 -18.3 -89.45 -20.0 -91.4 -21.95 -94.0 -22.1 -94.8 Q-22.25 -96.15 -21.2 -96.9 L-20.9 -97.15 -20.5 -97.25 -20.35 -97.25 Q-19.15 -97.3 -18.15 -96.3 L-17.7 -95.8 Q-16.05 -97.35 -14.4 -96.65 L-14.1 -96.35" fill="#ffffff" fill-rule="evenodd" stroke="none"/>
      <path d="M-25.45 -98.8 L-26.05 -100.5 -8.4 -98.8 -9.3 -97.3 -19.25 -81.8 -25.45 -98.8 Z" fill="none" stroke="#000000" stroke-linecap="round" stroke-linejoin="round" stroke-opacity="0.3019608" stroke-width="0.30000000000000004"/>
      <path d="M-46.85 -103.85 L-47.2 -105.65 -29.9 -101.75 -31.15 -100.4 -46.85 -103.85" fill="#c4c4c4" fill-rule="evenodd" stroke="none"/>
      <path d="M-42.2 -100.95 L-42.3 -100.9 -42.7 -100.85 -43.05 -100.7 Q-44.1 -100.0 -44.0 -98.6 L-43.9 -97.8 -42.1 -95.1 -40.55 -93.1 -39.6 -93.75 Q-36.9 -95.65 -36.1 -96.65 -34.95 -98.4 -36.0 -99.75 L-36.25 -100.0 Q-37.95 -100.85 -39.6 -99.4 L-40.05 -99.85 Q-40.95 -100.95 -42.2 -100.95 M-31.15 -100.4 L-42.85 -86.3 -46.85 -103.85 -31.15 -100.4" fill="#ffffff" fill-rule="evenodd" stroke="none"/>
      <path d="M-42.2 -100.95 Q-40.95 -100.95 -40.05 -99.85 L-39.6 -99.4 Q-37.95 -100.85 -36.25 -100.0 L-36.0 -99.75 Q-34.95 -98.4 -36.1 -96.65 -36.9 -95.65 -39.6 -93.75 L-40.55 -93.1 -42.1 -95.1 -43.9 -97.8 -44.0 -98.6 Q-44.1 -100.0 -43.05 -100.7 L-42.7 -100.85 -42.3 -100.9 -42.2 -100.95" fill="#fc6a6b" fill-rule="evenodd" stroke="none"/>
      <path d="M-46.85 -103.85 L-47.2 -105.65 -29.9 -101.75 -31.15 -100.4 -42.85 -86.3 -46.85 -103.85 Z" fill="none" stroke="#000000" stroke-linecap="round" stroke-linejoin="round" stroke-opacity="0.3019608" stroke-width="0.30000000000000004"/>
    </g>
    <linearGradient gradientTransform="matrix(0.0504, 0.0, 0.0, 0.0445, -11.3, -114.15)" gradientUnits="userSpaceOnUse" id="decoration223-gradient0" spreadMethod="pad" x1="-819.2" x2="819.2">
      <stop offset="0.0" stop-color="#ff9191"/>
      <stop offset="0.984313725490196" stop-color="#fc6a6b"/>
    </linearGradient>
    <linearGradient gradientTransform="matrix(0.0253, 0.0, 0.0, 0.0146, -3.0, -15.25)" gradientUnits="userSpaceOnUse" id="decoration223-gradient1" spreadMethod="pad" x1="-819.2" x2="819.2">
      <stop offset="0.0" stop-color="#eec390"/>
      <stop offset="1.0" stop-color="#d09b5c"/>
    </linearGradient>
    <linearGradient gradientTransform="matrix(0.0177, -4.0E-4, 1.0E-4, 0.0024, -8.25, -32.7)" gradientUnits="userSpaceOnUse" id="decoration223-gradient2" spreadMethod="pad" x1="-819.2" x2="819.2">
      <stop offset="0.0" stop-color="#eec390"/>
      <stop offset="1.0" stop-color="#d09b5c"/>
    </linearGradient>
  </defs>
</svg>
