<?xml version="1.0" encoding="UTF-8" standalone="no"?>
<svg xmlns:xlink="http://www.w3.org/1999/xlink" height="106.75px" width="129.4px" xmlns="http://www.w3.org/2000/svg">
  <g transform="matrix(1.0, 0.0, 0.0, 1.0, 65.3, 53.1)">
    <use data-characterId="955" height="106.75" transform="matrix(1.0, 0.0, 0.0, 1.0, -65.3, -53.1)" width="129.4" xlink:href="#decoration225-shape0"/>
  </g>
  <defs>
    <g id="decoration225-shape0" transform="matrix(1.0, 0.0, 0.0, 1.0, 65.3, 53.1)">
      <path d="M4.7 -29.4 L4.75 -29.5 Q4.75 -31.7 5.45 -34.15 6.5 -37.85 8.65 -40.35 13.15 -45.6 20.5 -46.8 L23.7 -47.1 Q25.8 -48.6 29.15 -49.4 35.95 -51.0 43.8 -48.75 51.6 -46.45 55.85 -41.7 56.9 -40.5 59.05 -36.1 61.3 -31.5 61.55 -29.8 56.25 -22.75 54.9 -18.75 54.55 -17.75 55.25 -15.95 55.9 -14.1 56.65 -13.95 51.1 6.05 44.9 -2.8 32.1 28.15 28.15 12.0 26.3 14.95 20.85 20.65 15.9 25.75 14.75 26.4 12.5 27.75 -0.05 27.7 L-13.25 26.9 Q-15.15 25.6 -16.25 23.4 -17.35 21.25 -17.35 18.9 -17.35 18.15 -15.4 11.8 L-13.1 4.15 Q-22.05 7.5 -25.9 7.9 -28.5 8.15 -35.5 6.6 -41.6 5.3 -43.5 4.5 -45.8 3.55 -49.5 -2.15 -50.55 -3.8 -51.1 -7.1 -51.65 -10.25 -51.25 -11.95 L-49.9 -15.95 Q-49.05 -18.45 -49.5 -18.7 -58.3 -23.0 -57.2 -37.55 -54.3 -43.4 -47.7 -46.55 -41.15 -49.7 -31.2 -49.9 L-28.55 -50.85 -26.1 -51.65 Q-9.35 -42.1 2.75 -23.6 L2.85 -23.4 Q3.25 -26.4 4.7 -29.4" fill="#e1eff0" fill-rule="evenodd" stroke="none"/>
      <path d="M4.7 -29.4 Q3.25 -26.4 2.85 -23.4 L2.75 -23.6 Q-9.35 -42.1 -26.1 -51.65 -21.3 -53.05 -18.65 -52.75 L-16.3 -52.45 Q-9.55 -51.15 -5.35 -46.5 -2.65 -43.55 -1.9 -40.25 3.65 -36.75 4.7 -29.5 L4.7 -29.4 M-57.2 -37.55 Q-58.3 -23.0 -49.5 -18.7 -49.05 -18.45 -49.9 -15.95 L-51.25 -11.95 Q-51.65 -10.25 -51.1 -7.1 -50.55 -3.8 -49.5 -2.15 -45.8 3.55 -43.5 4.5 -41.6 5.3 -35.5 6.6 -28.5 8.15 -25.9 7.9 -22.05 7.5 -13.1 4.15 L-15.4 11.8 Q-17.35 18.15 -17.35 18.9 -17.35 21.25 -16.25 23.4 -15.15 25.6 -13.25 26.9 L-0.05 27.7 Q12.5 27.75 14.75 26.4 15.9 25.75 20.85 20.65 26.3 14.95 28.15 12.0 32.1 28.15 44.9 -2.8 51.1 6.05 56.65 -13.95 55.9 -14.1 55.25 -15.95 54.55 -17.75 54.9 -18.75 56.25 -22.75 61.55 -29.8 L63.35 -17.75 Q66.65 5.3 45.4 15.6 44.2 18.95 42.2 21.85 37.1 29.05 26.75 32.8 25.6 35.3 19.8 39.5 L14.15 43.25 Q5.4 45.05 -1.6 53.35 -2.85 44.3 -16.2 38.3 -30.0 34.8 -33.35 22.75 -51.4 19.85 -52.1 5.7 -67.95 -4.4 -64.35 -18.0 -63.15 -22.45 -59.95 -27.2 L-59.15 -31.25 Q-58.15 -35.6 -57.2 -37.55" fill="#add1d4" fill-rule="evenodd" stroke="none"/>
      <path d="M61.55 -29.8 Q61.3 -31.5 59.05 -36.1 56.9 -40.5 55.85 -41.7 51.6 -46.45 43.8 -48.75 35.95 -51.0 29.15 -49.4 25.8 -48.6 23.7 -47.1 L20.5 -46.8 Q13.15 -45.6 8.65 -40.35 6.5 -37.85 5.45 -34.15 4.75 -31.7 4.75 -29.5 L4.7 -29.4 4.7 -29.5 Q3.65 -36.75 -1.9 -40.25 -2.65 -43.55 -5.35 -46.5 -9.55 -51.15 -16.3 -52.45 L-18.65 -52.75 Q-21.3 -53.05 -26.1 -51.65 L-28.55 -50.85 -31.2 -49.9 Q-41.15 -49.7 -47.7 -46.55 -54.3 -43.4 -57.2 -37.55 -58.15 -35.6 -59.15 -31.25 L-59.95 -27.2 Q-63.15 -22.45 -64.35 -18.0 -67.95 -4.4 -52.1 5.7 -51.4 19.85 -33.35 22.75 -30.0 34.8 -16.2 38.3 -2.85 44.3 -1.6 53.35 5.4 45.05 14.15 43.25 L19.8 39.5 Q25.6 35.3 26.75 32.8 37.1 29.05 42.2 21.85 44.2 18.95 45.4 15.6 66.65 5.3 63.35 -17.75 L61.55 -29.8 Z" fill="none" stroke="#2b5558" stroke-linecap="round" stroke-linejoin="round" stroke-opacity="0.3019608" stroke-width="0.6000000000000001"/>
    </g>
  </defs>
</svg>
