<?xml version="1.0" encoding="UTF-8" standalone="no"?>
<svg xmlns:ffdec="https://www.free-decompiler.com/flash" xmlns:xlink="http://www.w3.org/1999/xlink" ffdec:objectType="frame" height="89.0px" width="70.35px" xmlns="http://www.w3.org/2000/svg">
  <g transform="matrix(1.0, 0.0, 0.0, 1.0, 35.7, 44.4)">
    <use ffdec:characterId="978" height="89.0" transform="matrix(1.0, 0.0, 0.0, 1.0, -35.7, -44.4)" width="70.35" xlink:href="#decoration227-shape0"/>
  </g>
  <defs>
    <g id="decoration227-shape0" transform="matrix(1.0, 0.0, 0.0, 1.0, 35.7, 44.4)">
      <path d="M28.65 -24.55 Q31.0 -24.8 32.45 -26.5 33.9 -28.15 33.9 -30.4 33.9 -33.8 30.45 -38.65 26.75 -44.05 22.9 -44.0 L22.9 -44.2 Q27.15 -44.75 31.05 -39.1 34.5 -34.15 34.5 -30.2 34.5 -27.9 33.6 -26.45 32.45 -24.65 29.55 -23.6 L28.35 -23.3 22.4 -22.35 Q15.7 -21.65 11.95 -22.55 8.2 -23.45 7.65 -25.5 7.1 -27.55 7.55 -28.45 8.0 -29.35 9.7 -29.7 L11.65 -29.7 Q18.55 -28.75 23.95 -26.9 L25.75 -26.15 21.85 -26.45 20.1 -26.9 Q14.7 -28.3 11.8 -28.3 10.6 -28.3 10.9 -27.2 11.15 -26.0 12.9 -25.0 16.8 -22.55 24.0 -23.45 L27.5 -24.1 28.65 -24.55 M33.95 -17.35 L34.15 -15.55 Q34.15 -12.75 32.9 -11.2 31.6 -9.6 28.15 -8.4 L26.9 -8.05 24.85 -7.35 20.25 -6.25 18.2 -6.2 11.75 -6.7 Q7.7 -7.3 7.6 -10.3 7.45 -13.3 9.55 -13.8 L13.1 -14.35 Q16.6 -14.35 20.8 -12.55 L22.45 -11.85 19.4 -11.65 Q16.1 -12.7 12.1 -13.05 10.75 -13.1 10.1 -12.2 9.4 -11.15 10.45 -10.15 13.35 -7.3 25.75 -8.75 L27.2 -9.35 Q30.25 -9.9 31.55 -11.15 33.55 -13.05 33.55 -15.55 33.55 -16.85 32.9 -18.25 L32.25 -19.4 33.95 -17.35 M34.45 1.05 Q34.65 2.45 33.75 4.9 32.4 8.65 29.1 10.0 L27.9 10.55 Q25.45 11.4 22.0 11.8 L18.7 12.0 Q14.35 11.45 11.8 9.7 9.25 7.85 8.95 6.25 8.65 4.6 10.25 4.0 L14.7 3.45 Q18.3 3.45 22.75 5.9 L23.55 6.3 24.3 6.85 21.15 6.4 19.15 5.8 15.65 4.9 Q10.95 4.9 11.35 6.9 11.85 8.85 18.5 10.8 L22.2 10.4 26.75 9.65 28.15 9.15 31.3 6.6 Q34.3 3.4 33.55 -0.05 L34.45 1.05 M29.05 17.85 L27.65 19.3 Q25.9 20.8 22.9 22.15 25.05 26.15 25.25 27.85 L25.25 29.0 Q24.9 31.45 21.35 32.15 27.2 40.45 21.05 40.25 14.9 40.05 19.8 32.7 17.2 36.15 15.5 36.95 L12.6 36.9 Q11.4 36.05 11.45 33.8 11.5 31.5 18.75 31.45 10.75 30.6 14.7 25.25 18.65 19.85 21.1 30.45 24.1 30.6 23.9 27.75 L23.3 24.9 22.25 22.45 17.1 22.15 Q12.75 21.35 12.75 18.9 12.75 18.25 13.25 17.5 13.7 16.8 14.8 16.85 15.85 16.9 17.45 18.1 L19.4 19.55 18.5 19.65 16.75 18.55 Q13.65 16.95 13.4 18.9 13.35 19.55 14.65 20.4 L17.8 21.1 20.8 21.4 21.7 21.3 21.75 21.3 Q23.8 20.7 26.5 18.95 29.0 17.35 29.35 16.65 L29.05 17.85 M22.9 22.15 L22.25 22.45 22.9 23.7 22.9 22.15" fill="#56cc09" fill-rule="evenodd" stroke="none"/>
      <path d="M29.55 -23.6 Q32.2 -21.4 33.1 -19.65 L33.5 -18.65 33.95 -17.35 32.25 -19.4 32.15 -19.5 32.1 -19.5 28.35 -23.3 29.55 -23.6 M28.15 -8.4 Q30.95 -6.5 32.1 -5.05 33.6 -3.05 34.2 -0.4 L34.45 1.05 33.55 -0.05 Q32.75 -3.55 29.75 -6.2 L26.9 -8.05 28.15 -8.4 M29.1 10.0 L30.1 11.15 Q30.8 12.4 30.7 14.55 30.6 16.3 29.05 17.85 L29.35 16.65 Q30.6 13.8 29.55 11.9 28.8 10.6 27.9 10.55 L29.1 10.0 M19.4 19.55 L21.7 21.3 20.8 21.4 18.5 19.65 19.4 19.55 M24.3 6.85 Q27.8 9.15 28.15 9.15 L26.75 9.65 22.6 7.2 22.0 6.85 21.15 6.4 24.3 6.85 M22.45 -11.85 L27.2 -9.35 25.75 -8.75 20.8 -11.3 19.4 -11.65 22.45 -11.85 M25.75 -26.15 Q28.15 -25.05 28.65 -24.55 L27.5 -24.1 24.65 -25.45 21.85 -26.45 25.75 -26.15 M22.25 22.45 L22.9 22.15 22.9 23.7 22.25 22.45" fill="#3e9a02" fill-rule="evenodd" stroke="none"/>
      <path d="M28.65 -24.55 Q31.0 -24.8 32.45 -26.5 33.9 -28.15 33.9 -30.4 33.9 -33.8 30.45 -38.65 26.75 -44.05 22.9 -44.0 L22.9 -44.2 Q27.15 -44.75 31.05 -39.1 34.5 -34.15 34.5 -30.2 34.5 -27.9 33.6 -26.45 32.45 -24.65 29.55 -23.6 32.2 -21.4 33.1 -19.65 L33.5 -18.65 33.95 -17.35 34.15 -15.55 Q34.15 -12.75 32.9 -11.2 31.6 -9.6 28.15 -8.4 30.95 -6.5 32.1 -5.05 33.6 -3.05 34.2 -0.4 L34.45 1.05 Q34.65 2.45 33.75 4.9 32.4 8.65 29.1 10.0 L30.1 11.15 Q30.8 12.4 30.7 14.55 30.6 16.3 29.05 17.85 L27.65 19.3 Q25.9 20.8 22.9 22.15 25.05 26.15 25.25 27.85 L25.25 29.0 Q24.9 31.45 21.35 32.15 27.2 40.45 21.05 40.25 14.9 40.05 19.8 32.7 17.2 36.15 15.5 36.95 L12.6 36.9 Q11.4 36.05 11.45 33.8 11.5 31.5 18.75 31.45 10.75 30.6 14.7 25.25 18.65 19.85 21.1 30.45 24.1 30.6 23.9 27.75 L23.3 24.9 22.25 22.45 17.1 22.15 Q12.75 21.35 12.75 18.9 12.75 18.25 13.25 17.5 13.7 16.8 14.8 16.85 15.85 16.9 17.45 18.1 L19.4 19.55 21.7 21.3 21.75 21.3 Q23.8 20.7 26.5 18.95 29.0 17.35 29.35 16.65 30.6 13.8 29.55 11.9 28.8 10.6 27.9 10.55 25.45 11.4 22.0 11.8 L18.7 12.0 Q14.35 11.45 11.8 9.7 9.25 7.85 8.95 6.25 8.65 4.6 10.25 4.0 L14.7 3.45 Q18.3 3.45 22.75 5.9 L23.55 6.3 24.3 6.85 Q27.8 9.15 28.15 9.15 L31.3 6.6 Q34.3 3.4 33.55 -0.05 32.75 -3.55 29.75 -6.2 L26.9 -8.05 24.85 -7.35 20.25 -6.25 18.2 -6.2 11.75 -6.7 Q7.7 -7.3 7.6 -10.3 7.45 -13.3 9.55 -13.8 L13.1 -14.35 Q16.6 -14.35 20.8 -12.55 L22.45 -11.85 27.2 -9.35 Q30.25 -9.9 31.55 -11.15 33.55 -13.05 33.55 -15.55 33.55 -16.85 32.9 -18.25 L32.25 -19.4 32.15 -19.5 32.1 -19.5 28.35 -23.3 22.4 -22.35 Q15.7 -21.65 11.95 -22.55 8.2 -23.45 7.65 -25.5 7.1 -27.55 7.55 -28.45 8.0 -29.35 9.7 -29.7 L11.65 -29.7 Q18.55 -28.75 23.95 -26.9 L25.75 -26.15 Q28.15 -25.05 28.65 -24.55 L27.5 -24.1 24.0 -23.45 Q16.8 -22.55 12.9 -25.0 11.15 -26.0 10.9 -27.2 10.6 -28.3 11.8 -28.3 14.7 -28.3 20.1 -26.9 L21.85 -26.45 24.65 -25.45 27.5 -24.1 M19.4 -11.65 Q16.1 -12.7 12.1 -13.05 10.75 -13.1 10.1 -12.2 9.4 -11.15 10.45 -10.15 13.35 -7.3 25.75 -8.75 L20.8 -11.3 19.4 -11.65 M29.55 -23.6 L28.35 -23.3 M25.75 -8.75 L27.2 -9.35 M28.15 -8.4 L26.9 -8.05 M21.15 6.4 L22.0 6.85 22.6 7.2 26.75 9.65 28.15 9.15 M29.1 10.0 L27.9 10.55 M21.15 6.4 L19.15 5.8 15.65 4.9 Q10.95 4.9 11.35 6.9 11.85 8.85 18.5 10.8 L22.2 10.4 26.75 9.65 M22.9 22.15 L22.25 22.45 M20.8 21.4 L21.7 21.3 M18.5 19.65 L16.75 18.55 Q13.65 16.95 13.4 18.9 13.35 19.55 14.65 20.4 L17.8 21.1 20.8 21.4 18.5 19.65 M33.55 -0.05 L34.45 1.05" fill="none" stroke="#000000" stroke-linecap="round" stroke-linejoin="round" stroke-opacity="0.3019608" stroke-width="0.30000000000000004"/>
      <path d="M-14.25 -37.1 Q-12.15 -37.8 -10.8 -38.8 -9.45 -39.85 -8.5 -41.15 -8.75 -39.9 -9.3 -39.05 -9.9 -38.2 -13.35 -36.15 L-14.55 -35.85 -20.5 -34.9 Q-27.2 -34.2 -30.95 -35.1 -34.7 -36.0 -35.25 -38.05 -35.8 -40.1 -35.35 -41.0 -34.9 -41.9 -33.2 -42.25 L-31.25 -42.25 Q-24.35 -41.3 -18.95 -39.45 L-17.15 -38.7 -21.05 -39.0 -22.8 -39.45 Q-28.2 -40.85 -31.1 -40.85 -32.3 -40.85 -32.0 -39.75 -31.75 -38.55 -30.0 -37.55 -26.1 -35.1 -18.9 -36.0 L-15.4 -36.65 Q-14.7 -36.9 -14.25 -37.1 M-8.95 -29.9 L-8.75 -28.1 Q-8.75 -25.3 -10.0 -23.75 -11.3 -22.15 -14.75 -20.95 L-16.0 -20.6 -18.05 -19.9 -22.65 -18.8 -24.7 -18.75 -31.15 -19.25 Q-35.2 -19.85 -35.3 -22.85 -35.45 -25.85 -33.35 -26.35 L-29.8 -26.9 Q-26.3 -26.9 -22.1 -25.1 L-20.45 -24.4 -23.5 -24.2 Q-26.8 -25.25 -30.8 -25.6 -32.15 -25.65 -32.8 -24.75 -33.5 -23.7 -32.45 -22.7 -29.55 -19.85 -17.15 -21.3 L-15.7 -21.9 Q-12.65 -22.45 -11.35 -23.7 -9.35 -25.6 -9.35 -28.1 -9.35 -29.4 -10.0 -30.8 L-10.65 -31.95 -8.95 -29.9 M-8.45 -11.5 Q-8.25 -10.1 -9.15 -7.65 -10.5 -3.9 -13.8 -2.55 L-15.0 -2.0 Q-17.45 -1.15 -20.9 -0.75 L-24.2 -0.55 Q-28.55 -1.1 -31.1 -2.85 -33.65 -4.7 -33.95 -6.3 -34.25 -7.95 -32.65 -8.55 L-28.2 -9.1 Q-24.6 -9.1 -20.15 -6.65 L-18.6 -5.7 -21.75 -6.15 -23.1 -6.65 Q-24.85 -7.35 -27.25 -7.65 -31.95 -7.65 -31.55 -5.65 -31.05 -3.7 -25.05 -2.4 L-20.7 -2.15 -16.15 -2.9 -14.75 -3.4 Q-13.1 -4.35 -11.6 -5.95 -8.6 -9.15 -9.35 -12.6 L-8.45 -11.5 M-13.85 5.3 L-15.7 7.25 Q-17.1 8.4 -20.0 9.6 L-19.45 10.6 -18.45 12.75 Q-18.0 13.9 -17.95 17.3 L-17.9 17.35 Q-7.95 16.45 -11.15 21.65 -14.45 26.9 -18.35 19.0 -16.65 22.95 -16.8 24.8 -16.95 26.7 -18.3 27.35 -19.65 27.9 -21.55 26.8 -23.55 25.6 -19.95 19.25 -24.65 25.8 -27.35 19.65 -29.6 14.55 -22.7 15.95 L-20.65 16.45 -19.65 16.7 Q-19.1 15.9 -19.0 15.1 -19.15 13.4 -19.6 12.35 L-20.35 10.6 -20.65 9.9 -25.8 9.6 -26.7 9.4 Q-30.15 8.55 -30.15 6.35 -30.15 5.7 -29.65 4.95 -29.2 4.25 -28.1 4.3 -27.05 4.35 -25.45 5.55 L-23.5 7.0 -24.4 7.1 Q-25.25 6.45 -26.15 6.0 -29.25 4.4 -29.5 6.35 -29.55 7.0 -28.25 7.85 L-25.1 8.55 -22.1 8.85 -21.2 8.75 -21.15 8.75 Q-19.65 8.7 -16.95 6.95 -14.25 5.15 -13.55 4.1 L-13.85 5.3 M-20.65 9.9 L-20.0 11.15 -20.0 10.6 -20.0 9.6 -20.65 9.9" fill="#5eaf00" fill-rule="evenodd" stroke="none"/>
      <path d="M-13.35 -36.15 Q-10.7 -33.95 -9.8 -32.2 L-9.4 -31.2 -8.95 -29.9 -10.65 -31.95 -14.55 -35.85 -13.35 -36.15 M-14.75 -20.95 Q-11.95 -19.05 -10.8 -17.6 -9.3 -15.6 -8.7 -12.95 L-8.45 -11.5 -9.35 -12.6 Q-10.15 -16.1 -13.15 -18.75 L-16.0 -20.6 -14.75 -20.95 M-13.8 -2.55 L-12.8 -1.4 Q-12.1 -0.15 -12.2 2.0 -12.3 3.75 -13.85 5.3 L-13.55 4.1 Q-12.3 1.25 -13.35 -0.65 -14.1 -1.95 -15.0 -2.0 L-13.8 -2.55 M-23.5 7.0 L-21.2 8.75 -22.1 8.85 -24.4 7.1 -23.5 7.0 M-18.6 -5.7 Q-15.1 -3.4 -14.75 -3.4 L-16.15 -2.9 -20.3 -5.35 -21.75 -6.15 -18.6 -5.7 M-20.45 -24.4 L-15.7 -21.9 -17.15 -21.3 Q-19.35 -22.8 -22.1 -23.85 L-23.5 -24.2 -20.45 -24.4 M-17.15 -38.7 Q-14.75 -37.6 -14.25 -37.1 -14.7 -36.9 -15.4 -36.65 L-18.25 -38.0 -21.05 -39.0 -17.15 -38.7 M-20.0 9.6 L-20.0 10.6 -20.0 11.15 -20.65 9.9 -20.0 9.6" fill="#478400" fill-rule="evenodd" stroke="none"/>
      <path d="M-14.25 -37.1 Q-12.15 -37.8 -10.8 -38.8 -9.45 -39.85 -8.5 -41.15 -8.75 -39.9 -9.3 -39.05 -9.9 -38.2 -13.35 -36.15 -10.7 -33.95 -9.8 -32.2 L-9.4 -31.2 -8.95 -29.9 -8.75 -28.1 Q-8.75 -25.3 -10.0 -23.75 -11.3 -22.15 -14.75 -20.95 -11.95 -19.05 -10.8 -17.6 -9.3 -15.6 -8.7 -12.95 L-8.45 -11.5 Q-8.25 -10.1 -9.15 -7.65 -10.5 -3.9 -13.8 -2.55 L-12.8 -1.4 Q-12.1 -0.15 -12.2 2.0 -12.3 3.75 -13.85 5.3 L-15.7 7.25 Q-17.1 8.4 -20.0 9.6 L-19.45 10.6 -18.45 12.75 Q-18.0 13.9 -17.95 17.3 L-17.9 17.35 Q-7.95 16.45 -11.15 21.65 -14.45 26.9 -18.35 19.0 -16.65 22.95 -16.8 24.8 -16.95 26.7 -18.3 27.35 -19.65 27.9 -21.55 26.8 -23.55 25.6 -19.95 19.25 -24.65 25.8 -27.35 19.65 -29.6 14.55 -22.7 15.95 L-20.65 16.45 -19.65 16.7 Q-19.1 15.9 -19.0 15.1 -19.15 13.4 -19.6 12.35 L-20.35 10.6 -20.65 9.9 -25.8 9.6 -26.7 9.4 Q-30.15 8.55 -30.15 6.35 -30.15 5.7 -29.65 4.95 -29.2 4.25 -28.1 4.3 -27.05 4.35 -25.45 5.55 L-23.5 7.0 -21.2 8.75 -21.15 8.75 Q-19.65 8.7 -16.95 6.95 -14.25 5.15 -13.55 4.1 -12.3 1.25 -13.35 -0.65 -14.1 -1.95 -15.0 -2.0 -17.45 -1.15 -20.9 -0.75 L-24.2 -0.55 Q-28.55 -1.1 -31.1 -2.85 -33.65 -4.7 -33.95 -6.3 -34.25 -7.95 -32.65 -8.55 L-28.2 -9.1 Q-24.6 -9.1 -20.15 -6.65 L-18.6 -5.7 Q-15.1 -3.4 -14.75 -3.4 -13.1 -4.35 -11.6 -5.95 -8.6 -9.15 -9.35 -12.6 -10.15 -16.1 -13.15 -18.75 L-16.0 -20.6 -18.05 -19.9 -22.65 -18.8 -24.7 -18.75 -31.15 -19.25 Q-35.2 -19.85 -35.3 -22.85 -35.45 -25.85 -33.35 -26.35 L-29.8 -26.9 Q-26.3 -26.9 -22.1 -25.1 L-20.45 -24.4 -15.7 -21.9 Q-12.65 -22.45 -11.35 -23.7 -9.35 -25.6 -9.35 -28.1 -9.35 -29.4 -10.0 -30.8 L-10.65 -31.95 -14.55 -35.85 -20.5 -34.9 Q-27.2 -34.2 -30.95 -35.1 -34.7 -36.0 -35.25 -38.05 -35.8 -40.1 -35.35 -41.0 -34.9 -41.9 -33.2 -42.25 L-31.25 -42.25 Q-24.35 -41.3 -18.95 -39.45 L-17.15 -38.7 Q-14.75 -37.6 -14.25 -37.1 -14.7 -36.9 -15.4 -36.65 L-18.9 -36.0 Q-26.1 -35.1 -30.0 -37.55 -31.75 -38.55 -32.0 -39.75 -32.3 -40.85 -31.1 -40.85 -28.2 -40.85 -22.8 -39.45 L-21.05 -39.0 -18.25 -38.0 -15.4 -36.65 M-13.35 -36.15 L-14.55 -35.85 M-23.5 -24.2 L-22.1 -23.85 Q-19.35 -22.8 -17.15 -21.3 L-15.7 -21.9 M-23.5 -24.2 Q-26.8 -25.25 -30.8 -25.6 -32.15 -25.65 -32.8 -24.75 -33.5 -23.7 -32.45 -22.7 -29.55 -19.85 -17.15 -21.3 M-16.15 -2.9 L-20.3 -5.35 -21.75 -6.15 -23.1 -6.65 Q-24.85 -7.35 -27.25 -7.65 -31.95 -7.65 -31.55 -5.65 -31.05 -3.7 -25.05 -2.4 L-20.7 -2.15 -16.15 -2.9 -14.75 -3.4 M-14.75 -20.95 L-16.0 -20.6 M-13.8 -2.55 L-15.0 -2.0 M-20.0 9.6 L-20.65 9.9 M-24.4 7.1 Q-25.25 6.45 -26.15 6.0 -29.25 4.4 -29.5 6.35 -29.55 7.0 -28.25 7.85 L-25.1 8.55 -22.1 8.85 -24.4 7.1 M-22.1 8.85 L-21.2 8.75" fill="none" stroke="#000000" stroke-linecap="round" stroke-linejoin="round" stroke-opacity="0.3019608" stroke-width="0.30000000000000004"/>
      <path d="M-7.85 -24.8 L-4.7 -25.6 Q4.55 -27.55 16.45 -28.55 L19.9 -28.55 Q22.8 -28.15 23.6 -27.2 24.35 -26.3 23.4 -24.15 22.45 -22.0 16.0 -21.05 9.55 -20.1 -2.1 -20.8 L-12.35 -21.8 -14.4 -22.15 Q-19.45 -23.25 -21.4 -25.1 -22.95 -26.65 -22.95 -29.05 -22.95 -33.2 -17.0 -38.4 -10.3 -44.35 -2.9 -43.75 L-2.9 -43.55 Q-9.55 -43.6 -16.05 -37.95 -21.95 -32.85 -21.95 -29.25 -21.95 -26.9 -19.45 -25.2 -16.95 -23.4 -12.85 -23.15 L-10.9 -22.65 -4.85 -22.0 Q7.55 -21.05 14.4 -23.6 17.35 -24.65 17.8 -25.9 18.25 -27.05 16.25 -27.05 L1.85 -25.6 -1.1 -25.1 -7.85 -24.8 M-19.1 -17.7 L-20.2 -16.5 Q-21.35 -15.05 -21.35 -13.7 -21.35 -11.05 -17.9 -9.05 -15.65 -7.75 -10.4 -7.2 L-7.85 -6.55 Q13.55 -5.05 18.6 -8.0 20.4 -9.05 19.2 -10.15 18.05 -11.1 15.75 -11.05 L3.1 -9.6 -2.15 -9.8 0.7 -10.55 Q8.0 -12.4 14.0 -12.4 L20.15 -11.85 Q23.8 -11.3 23.55 -8.15 23.3 -5.05 16.35 -4.4 L5.15 -3.85 1.6 -3.95 -6.35 -5.1 -9.85 -5.8 -11.95 -6.2 Q-18.0 -7.45 -20.2 -9.1 -22.35 -10.75 -22.35 -13.7 L-22.0 -15.55 -19.1 -17.7 M-21.35 2.6 Q-22.65 6.2 -17.45 9.55 -14.85 11.25 -11.95 12.25 L-9.6 12.75 -1.75 13.55 4.6 13.95 Q16.2 11.95 17.0 9.9 17.75 7.8 9.6 7.8 L3.55 8.7 0.15 9.35 -5.4 9.8 -4.05 9.25 -2.7 8.85 Q5.0 6.25 11.2 6.25 L18.85 6.85 Q21.65 7.45 21.15 9.2 20.65 10.9 16.25 12.8 11.85 14.65 4.35 15.25 L-1.45 15.0 -11.6 13.7 -13.65 13.15 Q-19.3 11.7 -21.65 7.8 -23.2 5.2 -22.85 3.75 L-21.35 2.6 M-14.05 20.1 Q-13.45 20.85 -9.15 22.55 -4.5 24.35 -0.95 25.0 L-0.9 25.0 0.75 25.1 5.9 24.8 11.25 24.05 Q13.55 23.15 13.45 22.45 13.0 20.45 7.75 22.1 L4.7 23.25 3.05 23.15 6.45 21.65 Q9.2 20.35 11.1 20.3 12.95 20.25 13.8 21.0 14.6 21.8 14.6 22.45 14.6 25.05 7.05 25.9 L-0.5 26.2 -1.85 26.2 Q-7.75 24.6 -11.1 22.9 L-13.6 21.35 -14.05 20.1 M-2.3 28.5 L-2.75 29.5 Q-3.75 32.65 -0.1 35.1 0.45 35.5 1.15 35.9 L1.4 35.35 1.55 35.1 1.8 34.6 Q5.2 28.4 8.55 32.6 9.4 34.05 8.15 35.1 6.7 36.25 2.5 36.85 9.45 41.3 5.15 43.8 -0.65 46.6 1.1 37.65 L0.75 38.4 -1.25 41.65 Q-3.25 44.95 -6.75 40.9 -8.7 37.6 0.4 36.8 -0.5 36.45 -2.05 35.1 L-2.2 35.0 Q-3.8 33.6 -4.25 32.2 L-4.1 30.1 -3.75 28.75 -2.3 28.5" fill="#a5cc08" fill-rule="evenodd" stroke="none"/>
      <path d="M-7.85 -24.8 L-1.1 -25.1 -5.9 -24.05 -10.9 -22.65 -12.85 -23.15 Q-12.05 -23.65 -7.85 -24.8 M-14.4 -22.15 L-12.35 -21.8 -18.85 -17.85 -18.9 -17.85 -19.1 -17.7 -22.0 -15.55 -21.25 -16.95 -20.6 -18.0 Q-19.0 -19.85 -14.4 -22.15 M-10.4 -7.2 L-2.15 -9.8 3.1 -9.6 0.75 -9.2 Q-4.05 -8.1 -7.85 -6.55 L-10.4 -7.2 M-9.85 -5.8 Q-12.2 -5.2 -14.8 -3.85 -19.95 -1.1 -21.35 2.6 L-22.85 3.75 -22.45 2.2 Q-21.4 -0.55 -18.85 -2.65 -16.85 -4.2 -11.95 -6.2 L-9.85 -5.8 M-11.95 12.25 L-5.4 9.8 0.15 9.35 -1.4 9.8 -2.45 10.2 -9.6 12.75 -11.95 12.25 M-11.6 13.7 Q-13.1 13.75 -14.4 15.1 -16.2 17.1 -14.05 20.1 L-13.6 21.35 Q-16.3 19.75 -16.45 17.9 -16.55 15.65 -15.4 14.35 L-13.65 13.15 -11.6 13.7 M-0.9 25.0 Q1.1 24.1 3.05 23.15 L4.7 23.25 Q3.7 23.65 0.75 25.1 L-0.9 25.0 M-0.5 26.2 L-1.45 27.3 -2.3 28.5 -3.75 28.75 -3.1 27.75 -1.85 26.2 -0.5 26.2" fill="#7c9a05" fill-rule="evenodd" stroke="none"/>
      <path d="M-12.35 -21.8 L-2.1 -20.8 Q9.55 -20.1 16.0 -21.05 22.45 -22.0 23.4 -24.15 24.35 -26.3 23.6 -27.2 22.8 -28.15 19.9 -28.55 L16.45 -28.55 Q4.55 -27.55 -4.7 -25.6 L-7.85 -24.8 Q-12.05 -23.65 -12.85 -23.15 -16.95 -23.4 -19.45 -25.2 -21.95 -26.9 -21.95 -29.25 -21.95 -32.85 -16.05 -37.95 -9.55 -43.6 -2.9 -43.55 L-2.9 -43.75 Q-10.3 -44.35 -17.0 -38.4 -22.95 -33.2 -22.95 -29.05 -22.95 -26.65 -21.4 -25.1 -19.45 -23.25 -14.4 -22.15 L-12.35 -21.8 -18.85 -17.85 -18.9 -17.85 -19.1 -17.7 -20.2 -16.5 Q-21.35 -15.05 -21.35 -13.7 -21.35 -11.05 -17.9 -9.05 -15.65 -7.75 -10.4 -7.2 L-2.15 -9.8 0.7 -10.55 Q8.0 -12.4 14.0 -12.4 L20.15 -11.85 Q23.8 -11.3 23.55 -8.15 23.3 -5.05 16.35 -4.4 L5.15 -3.85 1.6 -3.95 -6.35 -5.1 -9.85 -5.8 Q-12.2 -5.2 -14.8 -3.85 -19.95 -1.1 -21.35 2.6 -22.65 6.2 -17.45 9.55 -14.85 11.25 -11.95 12.25 L-5.4 9.8 -4.05 9.25 -2.7 8.85 Q5.0 6.25 11.2 6.25 L18.85 6.85 Q21.65 7.45 21.15 9.2 20.65 10.9 16.25 12.8 11.85 14.65 4.35 15.25 L-1.45 15.0 -11.6 13.7 Q-13.1 13.75 -14.4 15.1 -16.2 17.1 -14.05 20.1 -13.45 20.85 -9.15 22.55 -4.5 24.35 -0.95 25.0 L-0.9 25.0 Q1.1 24.1 3.05 23.15 L6.45 21.65 Q9.2 20.35 11.1 20.3 12.95 20.25 13.8 21.0 14.6 21.8 14.6 22.45 14.6 25.05 7.05 25.9 L-0.5 26.2 -1.45 27.3 -2.3 28.5 -2.75 29.5 Q-3.75 32.65 -0.1 35.1 0.45 35.5 1.15 35.9 L1.4 35.35 1.55 35.1 1.8 34.6 Q5.2 28.4 8.55 32.6 9.4 34.05 8.15 35.1 6.7 36.25 2.5 36.85 9.45 41.3 5.15 43.8 -0.65 46.6 1.1 37.65 L0.75 38.4 -1.25 41.65 Q-3.25 44.95 -6.75 40.9 -8.7 37.6 0.4 36.8 -0.5 36.45 -2.05 35.1 L-2.2 35.0 Q-3.8 33.6 -4.25 32.2 L-4.1 30.1 -3.75 28.75 -3.1 27.75 -1.85 26.2 Q-7.75 24.6 -11.1 22.9 L-13.6 21.35 Q-16.3 19.75 -16.45 17.9 -16.55 15.65 -15.4 14.35 L-13.65 13.15 Q-19.3 11.7 -21.65 7.8 -23.2 5.2 -22.85 3.75 L-22.45 2.2 Q-21.4 -0.55 -18.85 -2.65 -16.85 -4.2 -11.95 -6.2 -18.0 -7.45 -20.2 -9.1 -22.35 -10.75 -22.35 -13.7 L-22.0 -15.55 -21.25 -16.95 -20.6 -18.0 Q-19.0 -19.85 -14.4 -22.15 M-1.1 -25.1 L1.85 -25.6 16.25 -27.05 Q18.25 -27.05 17.8 -25.9 17.35 -24.65 14.4 -23.6 7.55 -21.05 -4.85 -22.0 L-10.9 -22.65 -12.85 -23.15 M3.1 -9.6 L15.75 -11.05 Q18.05 -11.1 19.2 -10.15 20.4 -9.05 18.6 -8.0 13.55 -5.05 -7.85 -6.55 L-10.4 -7.2 M-7.85 -6.55 Q-4.05 -8.1 0.75 -9.2 L3.1 -9.6 M0.15 9.35 L3.55 8.7 9.6 7.8 Q17.75 7.8 17.0 9.9 16.2 11.95 4.6 13.95 L-1.75 13.55 -9.6 12.75 -11.95 12.25 M4.7 23.25 L7.75 22.1 Q13.0 20.45 13.45 22.45 13.55 23.15 11.25 24.05 L5.9 24.8 0.75 25.1 -0.9 25.0 M4.7 23.25 Q3.7 23.65 0.75 25.1 M-11.95 -6.2 L-9.85 -5.8 M-10.9 -22.65 L-5.9 -24.05 -1.1 -25.1 M-9.6 12.75 L-2.45 10.2 -1.4 9.8 0.15 9.35 M-13.65 13.15 L-11.6 13.7 M-21.35 2.6 L-22.85 3.75 M-1.85 26.2 L-0.5 26.2" fill="none" stroke="#000000" stroke-linecap="round" stroke-linejoin="round" stroke-opacity="0.3019608" stroke-width="0.30000000000000004"/>
    </g>
  </defs>
</svg>
