<?xml version="1.0" encoding="UTF-8" standalone="no"?>
<svg xmlns:xlink="http://www.w3.org/1999/xlink" height="44.3px" width="56.8px" xmlns="http://www.w3.org/2000/svg">
  <g transform="matrix(1.0, 0.0, 0.0, 1.0, 28.2, 44.25)">
    <use data-characterId="949" height="44.3" transform="matrix(1.0, 0.0, 0.0, 1.0, -28.2, -44.25)" width="56.8" xlink:href="#decoration228-shape0"/>
  </g>
  <defs>
    <g id="decoration228-shape0" transform="matrix(1.0, 0.0, 0.0, 1.0, 28.2, 44.25)">
      <path d="M5.2 -12.65 L3.9 -12.65 Q3.85 -19.1 -4.15 -27.4 L-5.1 -28.5 -2.2 -26.1 Q4.4 -18.9 5.2 -12.65" fill="#42651b" fill-rule="evenodd" stroke="none"/>
      <path d="M5.2 -12.65 Q4.4 -18.9 -2.2 -26.1 L-5.1 -28.5 -4.15 -27.4 Q3.85 -19.1 3.9 -12.65 L5.2 -12.65 Z" fill="none" stroke="#000000" stroke-linecap="round" stroke-linejoin="round" stroke-opacity="0.3882353" stroke-width="0.2"/>
      <path d="M12.95 -25.5 L11.75 -24.7 Q1.85 -18.8 0.15 -12.55 L-1.1 -12.9 Q1.25 -18.75 9.5 -23.95 L12.95 -25.5" fill="#42651b" fill-rule="evenodd" stroke="none"/>
      <path d="M12.95 -25.5 L11.75 -24.7 Q1.85 -18.8 0.15 -12.55 L-1.1 -12.9 Q1.25 -18.75 9.5 -23.95 L12.95 -25.5 Z" fill="none" stroke="#000000" stroke-linecap="round" stroke-linejoin="round" stroke-opacity="0.3882353" stroke-width="0.2"/>
      <path d="M-10.75 -9.6 L-12.0 -9.25 Q-12.9 -15.5 -8.35 -24.15 L-6.15 -27.2 -6.85 -25.9 Q-12.4 -15.85 -10.75 -9.6" fill="#42651b" fill-rule="evenodd" stroke="none"/>
      <path d="M-10.75 -9.6 L-12.0 -9.25 Q-12.9 -15.5 -8.35 -24.15 L-6.15 -27.2 -6.85 -25.9 Q-12.4 -15.85 -10.75 -9.6 Z" fill="none" stroke="#000000" stroke-linecap="round" stroke-linejoin="round" stroke-opacity="0.3882353" stroke-width="0.2"/>
      <path d="M-4.3 -22.8 Q-4.45 -22.25 -5.1 -21.95 L-6.5 -21.9 -8.05 -22.6 -8.85 -22.55 -9.95 -22.5 Q-10.65 -22.75 -11.1 -23.25 -11.55 -23.85 -11.3 -24.5 -11.05 -25.15 -9.25 -26.1 L-7.15 -27.05 -4.55 -23.9 Q-4.1 -23.35 -4.3 -22.8 M-7.65 -24.25 Q-7.4 -26.55 -7.15 -27.05 -7.4 -26.55 -7.65 -24.25" fill="#42651b" fill-rule="evenodd" stroke="none"/>
      <path d="M-4.3 -22.8 Q-4.45 -22.25 -5.1 -21.95 L-6.5 -21.9 -8.05 -22.6 -8.85 -22.55 -9.95 -22.5 Q-10.65 -22.75 -11.1 -23.25 -11.55 -23.85 -11.3 -24.5 -11.05 -25.15 -9.25 -26.1 L-7.15 -27.05 -4.55 -23.9 Q-4.1 -23.35 -4.3 -22.8 M-7.15 -27.05 Q-7.4 -26.55 -7.65 -24.25" fill="none" stroke="#000000" stroke-linecap="round" stroke-linejoin="round" stroke-opacity="0.29803923" stroke-width="0.2"/>
      <path d="M-4.35 -28.2 L-5.45 -27.75 -7.85 -26.15 -8.55 -27.35 -8.95 -27.75 -10.45 -29.3 Q-10.9 -29.85 -10.7 -30.45 -10.55 -31.05 -9.9 -31.3 -9.25 -31.5 -8.5 -31.3 L-6.95 -30.6 -6.15 -30.7 -5.05 -30.7 -3.9 -30.0 Q-3.5 -29.4 -3.6 -29.0 -3.7 -28.55 -4.35 -28.2 M-7.35 -28.95 L-7.35 -28.35 -7.45 -27.55 Q-7.45 -26.85 -7.85 -26.15 -7.45 -26.85 -7.45 -27.55 L-7.35 -28.35 -7.35 -28.95" fill="#42651b" fill-rule="evenodd" stroke="none"/>
      <path d="M-4.35 -28.2 L-5.45 -27.75 -7.85 -26.15 -8.55 -27.35 -8.95 -27.75 -10.45 -29.3 Q-10.9 -29.85 -10.7 -30.45 -10.55 -31.05 -9.9 -31.3 -9.25 -31.5 -8.5 -31.3 L-6.95 -30.6 -6.15 -30.7 -5.05 -30.7 -3.9 -30.0 Q-3.5 -29.4 -3.6 -29.0 -3.7 -28.55 -4.35 -28.2 M-7.85 -26.15 Q-7.45 -26.85 -7.45 -27.55 L-7.35 -28.35 -7.35 -28.95" fill="none" stroke="#000000" stroke-linecap="round" stroke-linejoin="round" stroke-opacity="0.29803923" stroke-width="0.2"/>
      <path d="M-8.45 -27.05 L-7.65 -26.1 -8.45 -27.05 -8.5 -27.1 -8.45 -27.05 M-9.25 -27.5 L-8.9 -27.3 -8.5 -27.1 -8.9 -27.3 -9.25 -27.5 M-7.65 -26.1 Q-11.0 -24.1 -12.5 -25.25 -14.0 -26.4 -13.85 -27.05 L-13.3 -28.2 -12.95 -28.5 -12.85 -29.1 -12.5 -29.9 Q-12.1 -30.35 -11.2 -30.45 -10.35 -30.6 -9.2 -28.95 L-8.45 -27.65 -7.65 -26.1" fill="#42651b" fill-rule="evenodd" stroke="none"/>
      <path d="M-7.65 -26.1 L-8.45 -27.05 M-8.5 -27.1 L-8.9 -27.3 -9.25 -27.5 M-7.65 -26.1 L-8.45 -27.65 -9.2 -28.95 Q-10.35 -30.6 -11.2 -30.45 -12.1 -30.35 -12.5 -29.9 L-12.85 -29.1 -12.95 -28.5 -13.3 -28.2 -13.85 -27.05 Q-14.0 -26.4 -12.5 -25.25 -11.0 -24.1 -7.65 -26.1" fill="none" stroke="#000000" stroke-linecap="round" stroke-linejoin="round" stroke-opacity="0.29803923" stroke-width="0.2"/>
      <path d="M-8.45 -27.05 L-8.5 -27.1" fill="none" stroke="#000000" stroke-linecap="round" stroke-linejoin="round" stroke-opacity="0.29803923" stroke-width="0.1"/>
      <path d="M-0.6 -25.3 Q-0.7 -24.7 -1.25 -24.15 -1.8 -23.75 -3.15 -23.8 -4.05 -23.8 -5.8 -24.85 L-6.95 -25.6 -7.65 -26.05 Q-8.0 -27.15 -5.75 -28.5 -3.5 -29.85 -2.6 -29.35 -1.65 -28.95 -1.35 -28.4 -1.05 -27.9 -1.1 -27.45 L-1.25 -26.95 Q-0.5 -25.9 -0.6 -25.3 M-5.5 -27.0 L-6.4 -26.8 -7.65 -26.05 -6.4 -26.8 -5.5 -27.0" fill="#42651b" fill-rule="evenodd" stroke="none"/>
      <path d="M-0.6 -25.3 Q-0.7 -24.7 -1.25 -24.15 -1.8 -23.75 -3.15 -23.8 -4.05 -23.8 -5.8 -24.85 L-6.95 -25.6 -7.65 -26.05 Q-8.0 -27.15 -5.75 -28.5 -3.5 -29.85 -2.6 -29.35 -1.65 -28.95 -1.35 -28.4 -1.05 -27.9 -1.1 -27.45 L-1.25 -26.95 Q-0.5 -25.9 -0.6 -25.3 M-7.65 -26.05 L-6.4 -26.8 -5.5 -27.0" fill="none" stroke="#000000" stroke-linecap="round" stroke-linejoin="round" stroke-opacity="0.29803923" stroke-width="0.2"/>
      <path d="M8.6 -11.3 Q1.7 -15.6 -3.7 -25.8 L-5.15 -29.8 -4.35 -28.35 Q1.7 -16.2 9.2 -12.5 L8.6 -11.3" fill="#42651b" fill-rule="evenodd" stroke="none"/>
      <path d="M8.6 -11.3 Q1.7 -15.6 -3.7 -25.8 L-5.15 -29.8 -4.35 -28.35 Q1.7 -16.2 9.2 -12.5 L8.6 -11.3 Z" fill="none" stroke="#000000" stroke-linecap="round" stroke-linejoin="round" stroke-opacity="0.3882353" stroke-width="0.2"/>
      <path d="M-20.6 -26.25 L-21.55 -27.35 -18.65 -24.95 Q-12.05 -17.75 -11.25 -11.5 L-12.55 -11.5 Q-12.6 -17.95 -20.6 -26.25" fill="#42651b" fill-rule="evenodd" stroke="none"/>
      <path d="M-20.6 -26.25 Q-12.6 -17.95 -12.55 -11.5 L-11.25 -11.5 Q-12.05 -17.75 -18.65 -24.95 L-21.55 -27.35 -20.6 -26.25 Z" fill="none" stroke="#000000" stroke-linecap="round" stroke-linejoin="round" stroke-opacity="0.3882353" stroke-width="0.2"/>
      <path d="M-18.95 -32.95 Q-19.9 -32.95 -20.55 -33.8 -20.7 -34.9 -20.3 -35.5 L-19.35 -36.05 -19.25 -35.85 Q-18.85 -35.15 -18.6 -34.2 -18.5 -33.55 -18.95 -32.95" fill="#c36477" fill-rule="evenodd" stroke="none"/>
      <path d="M-18.95 -32.95 Q-18.5 -33.55 -18.6 -34.2 -18.85 -35.15 -19.25 -35.85 L-19.35 -36.05 -20.3 -35.5 Q-20.7 -34.9 -20.55 -33.8 -19.9 -32.95 -18.95 -32.95 Z" fill="none" stroke="#000000" stroke-linecap="round" stroke-linejoin="round" stroke-opacity="0.29803923" stroke-width="0.2"/>
      <path d="M-19.05 -33.15 Q-19.55 -32.35 -20.65 -32.25 L-22.1 -33.25 Q-22.35 -33.75 -22.05 -34.35 L-21.85 -34.35 -20.05 -34.0 Q-19.4 -33.8 -19.05 -33.15" fill="#c36477" fill-rule="evenodd" stroke="none"/>
      <path d="M-19.05 -33.15 Q-19.4 -33.8 -20.05 -34.0 L-21.85 -34.35 -22.05 -34.35 Q-22.35 -33.75 -22.1 -33.25 L-20.65 -32.25 Q-19.55 -32.35 -19.05 -33.15 Z" fill="none" stroke="#000000" stroke-linecap="round" stroke-linejoin="round" stroke-opacity="0.29803923" stroke-width="0.2"/>
      <path d="M-19.0 -33.0 Q-19.3 -33.7 -19.0 -34.3 L-18.0 -35.7 -17.8 -35.9 Q-17.15 -35.65 -17.0 -35.1 -16.8 -34.5 -17.2 -33.45 -18.15 -32.75 -19.0 -33.0" fill="#c36477" fill-rule="evenodd" stroke="none"/>
      <path d="M-19.0 -33.0 Q-19.3 -33.7 -19.0 -34.3 L-18.0 -35.7 -17.8 -35.9 Q-17.15 -35.65 -17.0 -35.1 -16.8 -34.5 -17.2 -33.45 -18.15 -32.75 -19.0 -33.0 Z" fill="none" stroke="#000000" stroke-linecap="round" stroke-linejoin="round" stroke-opacity="0.29803923" stroke-width="0.2"/>
      <path d="M-19.05 -33.15 Q-18.55 -32.35 -19.0 -31.35 -19.95 -30.7 -20.65 -30.7 -21.25 -30.75 -21.65 -31.25 L-21.55 -31.45 -20.35 -32.8 -19.05 -33.15" fill="#c36477" fill-rule="evenodd" stroke="none"/>
      <path d="M-19.05 -33.15 L-20.35 -32.8 -21.55 -31.45 -21.65 -31.25 Q-21.25 -30.75 -20.65 -30.7 -19.95 -30.7 -19.0 -31.35 -18.55 -32.35 -19.05 -33.15 Z" fill="none" stroke="#000000" stroke-linecap="round" stroke-linejoin="round" stroke-opacity="0.29803923" stroke-width="0.2"/>
      <path d="M-19.25 -33.05 L-17.9 -33.35 -16.2 -32.75 -16.0 -32.65 Q-16.1 -32.0 -16.6 -31.7 L-18.35 -31.45 Q-19.25 -32.15 -19.25 -33.05" fill="#c36477" fill-rule="evenodd" stroke="none"/>
      <path d="M-19.25 -33.05 L-17.9 -33.35 -16.2 -32.75 -16.0 -32.65 Q-16.1 -32.0 -16.6 -31.7 L-18.35 -31.45 Q-19.25 -32.15 -19.25 -33.05 Z" fill="none" stroke="#000000" stroke-linecap="round" stroke-linejoin="round" stroke-opacity="0.29803923" stroke-width="0.2"/>
      <path d="M-16.25 -27.45 Q-15.9 -27.0 -16.25 -26.4 -16.6 -25.85 -17.35 -25.45 L-19.05 -24.9 -19.65 -24.3 -20.5 -23.6 -22.0 -23.3 Q-22.75 -23.35 -23.05 -23.95 -23.4 -24.55 -22.65 -26.25 L-21.75 -28.25 -17.35 -28.0 Q-16.6 -27.9 -16.25 -27.45 M-20.0 -26.2 L-21.75 -28.25 -20.0 -26.2" fill="#42651b" fill-rule="evenodd" stroke="none"/>
      <path d="M-16.25 -27.45 Q-15.9 -27.0 -16.25 -26.4 -16.6 -25.85 -17.35 -25.45 L-19.05 -24.9 -19.65 -24.3 -20.5 -23.6 -22.0 -23.3 Q-22.75 -23.35 -23.05 -23.95 -23.4 -24.55 -22.65 -26.25 L-21.75 -28.25 -17.35 -28.0 Q-16.6 -27.9 -16.25 -27.45 M-21.75 -28.25 L-20.0 -26.2" fill="none" stroke="#000000" stroke-linecap="round" stroke-linejoin="round" stroke-opacity="0.29803923" stroke-width="0.2"/>
      <path d="M-20.45 -30.8 L-20.95 -29.8 -21.6 -27.25 -23.1 -27.55 -23.65 -27.5 -26.0 -27.5 Q-26.75 -27.6 -27.1 -28.05 -27.45 -28.5 -27.15 -29.1 L-26.0 -30.05 -24.3 -30.6 -23.7 -31.2 -22.85 -31.9 -21.35 -32.2 Q-20.6 -32.15 -20.4 -31.8 -20.15 -31.45 -20.45 -30.8 M-23.35 -29.3 L-22.85 -28.95 -22.35 -28.45 -21.6 -27.25 -22.35 -28.45 -22.85 -28.95 -23.35 -29.3" fill="#42651b" fill-rule="evenodd" stroke="none"/>
      <path d="M-20.45 -30.8 L-20.95 -29.8 -21.6 -27.25 -23.1 -27.55 -23.65 -27.5 -26.0 -27.5 Q-26.75 -27.6 -27.1 -28.05 -27.45 -28.5 -27.15 -29.1 L-26.0 -30.05 -24.3 -30.6 -23.7 -31.2 -22.85 -31.9 -21.35 -32.2 Q-20.6 -32.15 -20.4 -31.8 -20.15 -31.45 -20.45 -30.8 M-21.6 -27.25 L-22.35 -28.45 -22.85 -28.95 -23.35 -29.3" fill="none" stroke="#000000" stroke-linecap="round" stroke-linejoin="round" stroke-opacity="0.29803923" stroke-width="0.2"/>
      <path d="M-22.8 -27.4 L-21.35 -27.35 -22.8 -27.4 -22.85 -27.4 -22.8 -27.4 M-23.7 -27.15 L-23.3 -27.3 -22.85 -27.4 -23.3 -27.3 -23.7 -27.15 M-21.35 -27.35 Q-22.5 -23.9 -24.55 -23.65 -26.6 -23.35 -27.05 -23.9 -27.5 -24.35 -27.45 -25.0 L-27.4 -25.4 -27.8 -25.85 -28.1 -26.55 Q-28.15 -27.05 -27.55 -27.75 -26.9 -28.4 -24.8 -28.05 L-23.25 -27.8 -21.35 -27.35" fill="#42651b" fill-rule="evenodd" stroke="none"/>
      <path d="M-21.35 -27.35 L-22.8 -27.4 M-22.85 -27.4 L-23.3 -27.3 -23.7 -27.15 M-21.35 -27.35 L-23.25 -27.8 -24.8 -28.05 Q-26.9 -28.4 -27.55 -27.75 -28.15 -27.05 -28.1 -26.55 L-27.8 -25.85 -27.4 -25.4 -27.45 -25.0 Q-27.5 -24.35 -27.05 -23.9 -26.6 -23.35 -24.55 -23.65 -22.5 -23.9 -21.35 -27.35" fill="none" stroke="#000000" stroke-linecap="round" stroke-linejoin="round" stroke-opacity="0.29803923" stroke-width="0.2"/>
      <path d="M-22.8 -27.4 L-22.85 -27.4" fill="none" stroke="#000000" stroke-linecap="round" stroke-linejoin="round" stroke-opacity="0.29803923" stroke-width="0.1"/>
      <path d="M-15.3 -31.45 Q-14.85 -30.95 -14.9 -30.3 -15.05 -29.65 -16.15 -28.85 -16.9 -28.25 -19.0 -27.75 L-20.5 -27.5 -21.3 -27.35 Q-22.5 -27.75 -21.7 -30.1 -20.95 -32.4 -19.9 -32.7 L-18.2 -32.9 -17.25 -32.45 -17.05 -32.05 Q-15.65 -31.85 -15.3 -31.45 M-20.4 -29.3 L-20.95 -28.6 -21.3 -27.35 -20.95 -28.6 -20.4 -29.3" fill="#42651b" fill-rule="evenodd" stroke="none"/>
      <path d="M-15.3 -31.45 Q-14.85 -30.95 -14.9 -30.3 -15.05 -29.65 -16.15 -28.85 -16.9 -28.25 -19.0 -27.75 L-20.5 -27.5 -21.3 -27.35 Q-22.5 -27.75 -21.7 -30.1 -20.95 -32.4 -19.9 -32.7 L-18.2 -32.9 -17.25 -32.45 -17.05 -32.05 Q-15.65 -31.85 -15.3 -31.45 M-21.3 -27.35 L-20.95 -28.6 -20.4 -29.3" fill="none" stroke="#000000" stroke-linecap="round" stroke-linejoin="round" stroke-opacity="0.29803923" stroke-width="0.2"/>
      <path d="M-2.8 -12.55 L-4.45 -13.0 Q-2.5 -20.55 -9.95 -32.95 L-10.8 -34.5 -7.9 -30.75 Q-1.85 -20.15 -2.8 -12.55" fill="#42651b" fill-rule="evenodd" stroke="none"/>
      <path d="M-2.8 -12.55 Q-1.85 -20.15 -7.9 -30.75 L-10.8 -34.5 -9.95 -32.95 Q-2.5 -20.55 -4.45 -13.0 L-2.8 -12.55 Z" fill="none" stroke="#000000" stroke-linecap="round" stroke-linejoin="round" stroke-opacity="0.3882353" stroke-width="0.2"/>
      <path d="M-18.1 -19.5 L-14.4 -18.9 Q-5.1 -15.95 -1.25 -10.95 L-2.35 -10.3 Q-5.65 -15.9 -16.75 -19.05 L-18.1 -19.5" fill="#42651b" fill-rule="evenodd" stroke="none"/>
      <path d="M-18.1 -19.5 L-16.75 -19.05 Q-5.65 -15.9 -2.35 -10.3 L-1.25 -10.95 Q-5.1 -15.95 -14.4 -18.9 L-18.1 -19.5 Z" fill="none" stroke="#000000" stroke-linecap="round" stroke-linejoin="round" stroke-opacity="0.3882353" stroke-width="0.2"/>
      <path d="M2.55 -29.45 L1.7 -31.0 4.6 -27.25 Q10.65 -16.65 9.7 -9.05 L8.05 -9.5 Q10.0 -17.05 2.55 -29.45" fill="#42651b" fill-rule="evenodd" stroke="none"/>
      <path d="M2.55 -29.45 Q10.0 -17.05 8.05 -9.5 L9.7 -9.05 Q10.65 -16.65 4.6 -27.25 L1.7 -31.0 2.55 -29.45 Z" fill="none" stroke="#000000" stroke-linecap="round" stroke-linejoin="round" stroke-opacity="0.3882353" stroke-width="0.2"/>
      <path d="M21.35 -30.5 Q20.9 -31.1 21.05 -31.75 L21.65 -33.4 21.75 -33.6 22.75 -33.0 Q23.1 -32.45 23.0 -31.35 22.3 -30.45 21.35 -30.5" fill="#c36477" fill-rule="evenodd" stroke="none"/>
      <path d="M21.35 -30.5 Q20.9 -31.1 21.05 -31.75 L21.65 -33.4 21.75 -33.6 22.75 -33.0 Q23.1 -32.45 23.0 -31.35 22.3 -30.45 21.35 -30.5 Z" fill="none" stroke="#000000" stroke-linecap="round" stroke-linejoin="round" stroke-opacity="0.29803923" stroke-width="0.2"/>
      <path d="M21.5 -30.7 Q21.85 -31.35 22.45 -31.55 L24.25 -31.9 24.5 -31.9 Q24.75 -31.3 24.5 -30.8 24.15 -30.2 23.1 -29.8 21.95 -29.9 21.5 -30.7" fill="#c36477" fill-rule="evenodd" stroke="none"/>
      <path d="M21.5 -30.7 Q21.85 -31.35 22.45 -31.55 L24.25 -31.9 24.5 -31.9 Q24.75 -31.3 24.5 -30.8 24.15 -30.2 23.1 -29.8 21.95 -29.9 21.5 -30.7 Z" fill="none" stroke="#000000" stroke-linecap="round" stroke-linejoin="round" stroke-opacity="0.29803923" stroke-width="0.2"/>
      <path d="M21.4 -30.55 Q20.55 -30.3 19.65 -30.95 19.2 -32.05 19.4 -32.65 19.55 -33.2 20.25 -33.4 L20.4 -33.25 21.4 -31.85 Q21.75 -31.25 21.4 -30.55" fill="#c36477" fill-rule="evenodd" stroke="none"/>
      <path d="M21.4 -30.55 Q21.75 -31.25 21.4 -31.85 L20.4 -33.25 20.25 -33.4 Q19.55 -33.2 19.4 -32.65 19.2 -32.05 19.65 -30.95 20.55 -30.3 21.4 -30.55 Z" fill="none" stroke="#000000" stroke-linecap="round" stroke-linejoin="round" stroke-opacity="0.29803923" stroke-width="0.2"/>
      <path d="M24.05 -28.8 Q23.7 -28.3 23.05 -28.25 22.35 -28.25 21.4 -28.9 20.95 -29.9 21.5 -30.7 22.2 -30.75 22.75 -30.35 L23.95 -29.0 24.05 -28.8" fill="#c36477" fill-rule="evenodd" stroke="none"/>
      <path d="M24.05 -28.8 Q23.7 -28.3 23.05 -28.25 22.35 -28.25 21.4 -28.9 20.95 -29.9 21.5 -30.7 22.2 -30.75 22.75 -30.35 L23.95 -29.0 24.05 -28.8 Z" fill="none" stroke="#000000" stroke-linecap="round" stroke-linejoin="round" stroke-opacity="0.29803923" stroke-width="0.2"/>
      <path d="M21.65 -30.55 Q21.65 -29.7 20.75 -29.0 L19.0 -29.25 Q18.5 -29.55 18.4 -30.2 L18.65 -30.3 20.35 -30.85 Q21.05 -31.0 21.65 -30.55" fill="#c36477" fill-rule="evenodd" stroke="none"/>
      <path d="M21.65 -30.55 Q21.05 -31.0 20.35 -30.85 L18.65 -30.3 18.4 -30.2 Q18.5 -29.55 19.0 -29.25 L20.75 -29.0 Q21.65 -29.7 21.65 -30.55 Z" fill="none" stroke="#000000" stroke-linecap="round" stroke-linejoin="round" stroke-opacity="0.29803923" stroke-width="0.2"/>
      <path d="M19.95 -36.6 Q16.8 -17.3 23.05 -10.9 L21.2 -9.1 Q16.25 -16.3 18.5 -32.6 L20.25 -39.0 19.95 -36.6" fill="#42651b" fill-rule="evenodd" stroke="none"/>
      <path d="M19.95 -36.6 Q16.8 -17.3 23.05 -10.9 L21.2 -9.1 Q16.25 -16.3 18.5 -32.6 L20.25 -39.0 19.95 -36.6 Z" fill="none" stroke="#000000" stroke-linecap="round" stroke-linejoin="round" stroke-opacity="0.3882353" stroke-width="0.2"/>
      <path d="M3.5 -31.45 Q-3.85 -17.05 -1.45 -8.0 L-3.2 -7.55 Q-4.5 -16.6 1.45 -28.95 L4.35 -33.35 3.5 -31.45" fill="#42651b" fill-rule="evenodd" stroke="none"/>
      <path d="M3.5 -31.45 Q-3.85 -17.05 -1.45 -8.0 L-3.2 -7.55 Q-4.5 -16.6 1.45 -28.95 L4.35 -33.35 3.5 -31.45 Z" fill="none" stroke="#000000" stroke-linecap="round" stroke-linejoin="round" stroke-opacity="0.3882353" stroke-width="0.2"/>
      <path d="M11.7 -19.85 Q11.3 -19.35 10.55 -19.45 9.9 -19.6 9.35 -20.2 L8.35 -21.5 7.65 -21.9 Q6.85 -22.15 6.65 -22.4 6.15 -22.95 6.0 -23.65 5.9 -24.35 6.5 -24.8 L9.0 -25.15 11.3 -24.95 12.05 -20.95 Q12.1 -20.25 11.7 -19.85 M9.55 -22.75 L11.3 -24.95 9.55 -22.75" fill="#42651b" fill-rule="evenodd" stroke="none"/>
      <path d="M11.7 -19.85 Q11.3 -19.35 10.55 -19.45 9.9 -19.6 9.35 -20.2 L8.35 -21.5 7.65 -21.9 Q6.85 -22.15 6.65 -22.4 6.15 -22.95 6.0 -23.65 5.9 -24.35 6.5 -24.8 L9.0 -25.15 11.3 -24.95 12.05 -20.95 Q12.1 -20.25 11.7 -19.85 M11.3 -24.95 L9.55 -22.75" fill="none" stroke="#000000" stroke-linecap="round" stroke-linejoin="round" stroke-opacity="0.29803923" stroke-width="0.2"/>
      <path d="M14.35 -24.6 L13.15 -24.65 10.3 -24.5 10.25 -25.95 10.15 -26.4 9.65 -28.5 Q9.5 -29.2 9.95 -29.65 10.35 -30.1 11.1 -30.0 11.75 -29.85 12.3 -29.3 L13.25 -27.9 14.05 -27.6 14.95 -27.05 15.6 -25.8 Q15.7 -25.15 15.4 -24.85 15.05 -24.55 14.35 -24.6 M12.1 -26.7 L11.8 -26.15 11.4 -25.55 10.3 -24.5 11.4 -25.55 11.8 -26.15 12.1 -26.7" fill="#42651b" fill-rule="evenodd" stroke="none"/>
      <path d="M14.35 -24.6 L13.15 -24.65 10.3 -24.5 10.25 -25.95 10.15 -26.4 9.65 -28.5 Q9.5 -29.2 9.95 -29.65 10.35 -30.1 11.1 -30.0 11.75 -29.85 12.3 -29.3 L13.25 -27.9 14.05 -27.6 14.95 -27.05 15.6 -25.8 Q15.7 -25.15 15.4 -24.85 15.05 -24.55 14.35 -24.6 M10.3 -24.5 L11.4 -25.55 11.8 -26.15 12.1 -26.7" fill="none" stroke="#000000" stroke-linecap="round" stroke-linejoin="round" stroke-opacity="0.29803923" stroke-width="0.2"/>
      <path d="M10.2 -25.65 L10.45 -24.3 10.2 -25.65 10.15 -25.7 10.2 -25.65 M9.75 -26.35 L10.0 -26.05 10.15 -25.7 10.0 -26.05 9.75 -26.35 M10.45 -24.3 Q6.55 -24.3 5.8 -26.05 5.05 -27.75 5.5 -28.3 5.9 -28.85 6.6 -29.0 L7.1 -29.15 7.45 -29.6 8.1 -30.1 9.5 -29.95 Q10.35 -29.6 10.45 -27.6 L10.55 -26.1 10.45 -24.3" fill="#42651b" fill-rule="evenodd" stroke="none"/>
      <path d="M10.45 -24.3 L10.2 -25.65 M10.15 -25.7 L10.0 -26.05 9.75 -26.35 M10.45 -24.3 L10.55 -26.1 10.45 -27.6 Q10.35 -29.6 9.5 -29.95 L8.1 -30.1 7.45 -29.6 7.1 -29.15 6.6 -29.0 Q5.9 -28.85 5.5 -28.3 5.05 -27.75 5.8 -26.05 6.55 -24.3 10.45 -24.3" fill="none" stroke="#000000" stroke-linecap="round" stroke-linejoin="round" stroke-opacity="0.29803923" stroke-width="0.2"/>
      <path d="M10.2 -25.65 L10.15 -25.7" fill="none" stroke="#000000" stroke-linecap="round" stroke-linejoin="round" stroke-opacity="0.29803923" stroke-width="0.1"/>
      <path d="M16.15 -20.2 Q15.75 -19.65 15.05 -19.5 14.35 -19.45 13.2 -20.15 12.4 -20.65 11.35 -22.4 L10.8 -23.6 10.45 -24.3 Q10.65 -25.45 13.3 -25.5 15.9 -25.5 16.5 -24.65 L17.05 -23.25 Q17.1 -22.6 16.8 -22.25 L16.4 -21.9 Q16.5 -20.65 16.15 -20.2 M12.75 -24.05 L11.9 -24.35 11.85 -24.35 10.45 -24.3 11.85 -24.35 11.9 -24.35 12.75 -24.05" fill="#42651b" fill-rule="evenodd" stroke="none"/>
      <path d="M16.15 -20.2 Q15.75 -19.65 15.05 -19.5 14.35 -19.45 13.2 -20.15 12.4 -20.65 11.35 -22.4 L10.8 -23.6 10.45 -24.3 Q10.65 -25.45 13.3 -25.5 15.9 -25.5 16.5 -24.65 L17.05 -23.25 Q17.1 -22.6 16.8 -22.25 L16.4 -21.9 Q16.5 -20.65 16.15 -20.2 M10.45 -24.3 L11.85 -24.35 11.9 -24.35 12.75 -24.05" fill="none" stroke="#000000" stroke-linecap="round" stroke-linejoin="round" stroke-opacity="0.29803923" stroke-width="0.2"/>
      <path d="M20.1 -24.3 Q12.15 -12.9 13.85 -6.2 L12.15 -5.75 Q11.5 -12.5 18.0 -22.3 L21.05 -25.8 20.1 -24.3" fill="#42651b" fill-rule="evenodd" stroke="none"/>
      <path d="M20.1 -24.3 Q12.15 -12.9 13.85 -6.2 L12.15 -5.75 Q11.5 -12.5 18.0 -22.3 L21.05 -25.8 20.1 -24.3 Z" fill="none" stroke="#000000" stroke-linecap="round" stroke-linejoin="round" stroke-opacity="0.3882353" stroke-width="0.2"/>
      <path d="M-13.45 -25.2 L-11.65 -23.15 Q-7.5 -17.15 -6.95 -11.9 L-7.8 -11.9 Q-7.8 -17.3 -12.85 -24.25 L-13.45 -25.2" fill="#42651b" fill-rule="evenodd" stroke="none"/>
      <path d="M-13.45 -25.2 L-12.85 -24.25 Q-7.8 -17.3 -7.8 -11.9 L-6.95 -11.9 Q-7.5 -17.15 -11.65 -23.15 L-13.45 -25.2 Z" fill="none" stroke="#000000" stroke-linecap="round" stroke-linejoin="round" stroke-opacity="0.3882353" stroke-width="0.2"/>
      <path d="M21.5 -22.65 L21.4 -23.25 Q20.55 -22.8 20.35 -23.75 L20.35 -24.5 20.25 -24.5 19.75 -23.8 20.25 -24.5 Q19.4 -24.25 19.45 -24.8 L19.55 -25.7 19.05 -25.75 Q18.5 -24.45 19.15 -24.0 19.4 -23.8 19.75 -23.8 20.1 -22.15 20.9 -22.35 21.3 -22.45 21.5 -22.65" fill="#528229" fill-rule="evenodd" stroke="none"/>
      <path d="M21.4 -23.25 L20.95 -26.1 19.55 -25.7 19.45 -24.8 Q19.4 -24.25 20.25 -24.5 L20.35 -24.5 20.35 -23.75 Q20.55 -22.8 21.4 -23.25 M20.95 -26.1 L20.35 -24.5 20.95 -26.1" fill="#42651b" fill-rule="evenodd" stroke="none"/>
      <path d="M19.05 -25.75 L16.95 -25.75 Q16.25 -25.65 15.95 -25.0 15.65 -24.4 15.95 -23.55 16.25 -22.8 16.95 -22.3 17.6 -21.85 18.5 -21.55 L19.0 -20.75 19.75 -19.75 Q20.45 -19.3 21.1 -19.35 21.8 -19.45 22.0 -19.9 L21.95 -21.25 21.5 -22.65 Q21.3 -22.45 20.9 -22.35 20.1 -22.15 19.75 -23.8 19.4 -23.8 19.15 -24.0 18.5 -24.45 19.05 -25.75 M19.35 -23.3 L19.75 -23.8 19.35 -23.3" fill="url(#decoration228-gradient0)" fill-rule="evenodd" stroke="none"/>
      <path d="M19.05 -25.75 L16.95 -25.75 Q16.25 -25.65 15.95 -25.0 15.65 -24.4 15.95 -23.55 16.25 -22.8 16.95 -22.3 17.6 -21.85 18.5 -21.55 L19.0 -20.75 19.75 -19.75 Q20.45 -19.3 21.1 -19.35 21.8 -19.45 22.0 -19.9 L21.95 -21.25 21.5 -22.65 21.4 -23.25 20.95 -26.1 19.55 -25.7 19.05 -25.75 M19.75 -23.8 L19.35 -23.3 M19.75 -23.8 L20.25 -24.5 M20.35 -24.5 L20.95 -26.1" fill="none" stroke="#000000" stroke-linecap="round" stroke-linejoin="round" stroke-opacity="0.29803923" stroke-width="0.2"/>
      <path d="M20.2 -28.2 L20.3 -27.6 Q21.15 -28.05 21.35 -27.1 L21.35 -26.35 21.45 -26.35 21.95 -27.05 21.45 -26.35 Q22.3 -26.6 22.25 -26.05 22.05 -25.45 22.15 -25.15 L22.65 -25.1 Q23.2 -26.4 22.55 -26.85 L21.95 -27.05 Q21.6 -28.7 20.8 -28.5 L20.2 -28.2" fill="#528229" fill-rule="evenodd" stroke="none"/>
      <path d="M20.3 -27.6 L20.75 -24.75 22.15 -25.15 Q22.05 -25.45 22.25 -26.05 22.3 -26.6 21.45 -26.35 L21.35 -26.35 21.35 -27.1 Q21.15 -28.05 20.3 -27.6 M20.75 -24.75 L21.35 -26.35 20.75 -24.75" fill="#42651b" fill-rule="evenodd" stroke="none"/>
      <path d="M22.65 -25.1 L24.75 -25.1 Q25.45 -25.2 25.75 -25.85 26.05 -26.45 25.75 -27.3 L24.75 -28.55 23.2 -29.3 22.7 -30.1 21.95 -31.1 Q21.25 -31.55 20.6 -31.5 19.9 -31.4 19.7 -30.95 19.5 -30.45 19.75 -29.6 19.8 -29.2 20.2 -28.2 L20.8 -28.5 Q21.6 -28.7 21.95 -27.05 L22.55 -26.85 Q23.2 -26.4 22.65 -25.1 M22.35 -27.55 L21.95 -27.05 22.35 -27.55" fill="url(#decoration228-gradient1)" fill-rule="evenodd" stroke="none"/>
      <path d="M22.65 -25.1 L24.75 -25.1 Q25.45 -25.2 25.75 -25.85 26.05 -26.45 25.75 -27.3 L24.75 -28.55 23.2 -29.3 22.7 -30.1 21.95 -31.1 Q21.25 -31.55 20.6 -31.5 19.9 -31.4 19.7 -30.95 19.5 -30.45 19.75 -29.6 19.8 -29.2 20.2 -28.2 L20.3 -27.6 20.75 -24.75 22.15 -25.15 22.65 -25.1 M21.95 -27.05 L22.35 -27.55 M21.95 -27.05 L21.45 -26.35 M21.35 -26.35 L20.75 -24.75" fill="none" stroke="#000000" stroke-linecap="round" stroke-linejoin="round" stroke-opacity="0.29803923" stroke-width="0.2"/>
      <path d="M21.95 -24.95 L22.35 -24.8 22.7 -24.6 22.35 -24.8 21.95 -24.95 21.85 -24.95 21.9 -24.35 Q21.65 -23.85 20.85 -24.0 L21.35 -22.6 Q21.9 -22.4 22.15 -23.4 L22.65 -23.35 Q23.15 -23.5 22.7 -24.6 23.6 -24.85 23.45 -25.25 L23.0 -25.9 21.9 -25.75 Q23.0 -25.35 21.95 -24.95" fill="#528229" fill-rule="evenodd" stroke="none"/>
      <path d="M21.95 -24.95 Q23.0 -25.35 21.9 -25.75 L20.6 -24.85 21.85 -24.95 21.95 -24.95 M20.85 -24.0 Q21.65 -23.85 21.9 -24.35 L21.85 -24.95 20.6 -24.85 20.85 -24.0" fill="#42651b" fill-rule="evenodd" stroke="none"/>
      <path d="M23.0 -25.9 L23.45 -25.25 Q23.6 -24.85 22.7 -24.6 23.15 -23.5 22.65 -23.35 L22.15 -23.4 Q21.9 -22.4 21.35 -22.6 22.25 -20.6 22.95 -20.0 24.0 -19.2 24.6 -19.3 25.3 -19.45 25.7 -20.15 26.1 -20.8 26.05 -21.65 L26.0 -22.25 26.35 -22.85 26.65 -23.8 Q26.7 -24.5 26.05 -25.0 25.45 -25.6 23.65 -25.85 L23.0 -25.9" fill="url(#decoration228-gradient2)" fill-rule="evenodd" stroke="none"/>
      <path d="M22.7 -24.6 L22.35 -24.8 21.95 -24.95 M21.9 -25.75 L23.0 -25.9 23.65 -25.85 Q25.45 -25.6 26.05 -25.0 26.7 -24.5 26.65 -23.8 L26.35 -22.85 26.0 -22.25 26.05 -21.65 Q26.1 -20.8 25.7 -20.15 25.3 -19.45 24.6 -19.3 24.0 -19.2 22.95 -20.0 22.25 -20.6 21.35 -22.6 L20.85 -24.0 20.6 -24.85 21.85 -24.95 M20.6 -24.85 L21.9 -25.75" fill="none" stroke="#000000" stroke-linecap="round" stroke-linejoin="round" stroke-opacity="0.29803923" stroke-width="0.2"/>
      <path d="M21.85 -24.95 L21.95 -24.95" fill="none" stroke="#000000" stroke-linecap="round" stroke-linejoin="round" stroke-opacity="0.29803923" stroke-width="0.1"/>
      <path d="M20.6 -28.2 L19.95 -28.65 Q19.6 -28.8 19.7 -27.55 18.6 -27.9 18.65 -27.25 L18.85 -26.55 Q18.15 -26.05 18.45 -25.4 L19.8 -25.05 Q19.4 -26.05 19.75 -26.45 L20.2 -26.55 20.2 -26.6 Q20.2 -28.1 20.8 -26.8 L20.6 -28.2 M19.7 -27.55 L20.2 -26.6 19.7 -27.55" fill="#528229" fill-rule="evenodd" stroke="none"/>
      <path d="M20.8 -26.8 Q20.2 -28.1 20.2 -26.6 L20.2 -26.55 20.55 -24.85 20.2 -26.55 19.75 -26.45 Q19.4 -26.05 19.8 -25.05 L20.55 -24.85 Q20.85 -25.8 20.8 -26.8" fill="#42651b" fill-rule="evenodd" stroke="none"/>
      <path d="M18.45 -25.4 Q18.15 -26.05 18.85 -26.55 L18.65 -27.25 Q18.6 -27.9 19.7 -27.55 19.6 -28.8 19.95 -28.65 L20.6 -28.2 20.4 -29.05 Q19.6 -31.35 18.95 -32.0 18.3 -32.6 17.7 -32.45 17.15 -32.3 16.85 -31.85 L16.65 -31.3 Q15.4 -31.0 15.1 -30.45 14.7 -29.8 14.75 -28.9 14.85 -28.05 15.85 -26.9 16.55 -26.1 18.45 -25.4" fill="url(#decoration228-gradient3)" fill-rule="evenodd" stroke="none"/>
      <path d="M18.45 -25.4 Q16.55 -26.1 15.85 -26.9 14.85 -28.05 14.75 -28.9 14.7 -29.8 15.1 -30.45 15.4 -31.0 16.65 -31.3 L16.85 -31.85 Q17.15 -32.3 17.7 -32.45 18.3 -32.6 18.95 -32.0 19.6 -31.35 20.4 -29.05 L20.6 -28.2 20.8 -26.8 Q20.85 -25.8 20.55 -24.85 L20.2 -26.55 20.2 -26.6 19.7 -27.55 M20.55 -24.85 L19.8 -25.05 18.45 -25.4" fill="none" stroke="#000000" stroke-linecap="round" stroke-linejoin="round" stroke-opacity="0.29803923" stroke-width="0.2"/>
      <path d="M14.9 -29.9 Q9.35 -19.75 10.95 -13.55 L9.65 -13.2 Q8.85 -19.45 13.35 -28.15 L15.5 -31.2 14.9 -29.9" fill="#42651b" fill-rule="evenodd" stroke="none"/>
      <path d="M14.9 -29.9 Q9.35 -19.75 10.95 -13.55 L9.65 -13.2 Q8.85 -19.45 13.35 -28.15 L15.5 -31.2 14.9 -29.9 Z" fill="none" stroke="#000000" stroke-linecap="round" stroke-linejoin="round" stroke-opacity="0.3882353" stroke-width="0.2"/>
      <path d="M27.4 -11.7 L18.9 -0.15 -18.25 -0.15 -19.05 -1.3 Q-3.7 -0.9 9.4 -1.9 13.7 -5.55 12.9 -9.55 0.45 -11.25 -25.65 -10.55 L-26.5 -11.7 27.4 -11.7" fill="#892806" fill-rule="evenodd" stroke="none"/>
      <path d="M-26.5 -11.7 L-27.75 -11.7 -27.75 -14.35 28.4 -14.35 28.4 -11.7 27.4 -11.7 -26.5 -11.7 M-19.05 -1.3 L-25.65 -10.55 Q0.45 -11.25 12.9 -9.55 13.7 -5.55 9.4 -1.9 -3.7 -0.9 -19.05 -1.3" fill="#97300c" fill-rule="evenodd" stroke="none"/>
      <path d="M-26.5 -11.7 L-27.75 -11.7 -27.75 -14.35 28.4 -14.35 28.4 -11.7 27.4 -11.7 18.9 -0.15 -18.25 -0.15 -19.05 -1.3 -25.65 -10.55 -26.5 -11.7 27.4 -11.7" fill="none" stroke="#000000" stroke-linecap="round" stroke-linejoin="round" stroke-opacity="0.2784314" stroke-width="0.4"/>
      <path d="M14.5 -35.55 Q14.35 -35.0 13.7 -34.7 L12.3 -34.65 10.75 -35.35 9.95 -35.3 8.85 -35.25 Q8.15 -35.5 7.7 -36.0 7.25 -36.6 7.5 -37.25 7.75 -37.9 9.55 -38.85 L11.65 -39.8 14.25 -36.65 Q14.7 -36.1 14.5 -35.55 M11.15 -37.0 Q11.4 -39.3 11.65 -39.8 11.4 -39.3 11.15 -37.0" fill="#42651b" fill-rule="evenodd" stroke="none"/>
      <path d="M14.5 -35.55 Q14.35 -35.0 13.7 -34.7 L12.3 -34.65 10.75 -35.35 9.95 -35.3 8.85 -35.25 Q8.15 -35.5 7.7 -36.0 7.25 -36.6 7.5 -37.25 7.75 -37.9 9.55 -38.85 L11.65 -39.8 14.25 -36.65 Q14.7 -36.1 14.5 -35.55 M11.65 -39.8 Q11.4 -39.3 11.15 -37.0" fill="none" stroke="#000000" stroke-linecap="round" stroke-linejoin="round" stroke-opacity="0.29803923" stroke-width="0.2"/>
      <path d="M14.45 -40.95 L13.35 -40.5 10.95 -38.9 10.25 -40.1 9.85 -40.5 8.35 -42.05 Q7.9 -42.6 8.1 -43.2 8.25 -43.8 8.9 -44.05 9.55 -44.25 10.3 -44.05 L11.85 -43.35 12.65 -43.45 13.75 -43.45 14.9 -42.75 Q15.3 -42.15 15.2 -41.75 15.1 -41.3 14.45 -40.95 M11.45 -41.7 L11.45 -41.1 11.35 -40.3 Q11.35 -39.6 10.95 -38.9 11.35 -39.6 11.35 -40.3 L11.45 -41.1 11.45 -41.7" fill="#42651b" fill-rule="evenodd" stroke="none"/>
      <path d="M14.45 -40.95 L13.35 -40.5 10.95 -38.9 10.25 -40.1 9.85 -40.5 8.35 -42.05 Q7.9 -42.6 8.1 -43.2 8.25 -43.8 8.9 -44.05 9.55 -44.25 10.3 -44.05 L11.85 -43.35 12.65 -43.45 13.75 -43.45 14.9 -42.75 Q15.3 -42.15 15.2 -41.75 15.1 -41.3 14.45 -40.95 M10.95 -38.9 Q11.35 -39.6 11.35 -40.3 L11.45 -41.1 11.45 -41.7" fill="none" stroke="#000000" stroke-linecap="round" stroke-linejoin="round" stroke-opacity="0.29803923" stroke-width="0.2"/>
      <path d="M10.35 -39.8 L11.15 -38.85 10.35 -39.8 10.3 -39.85 10.35 -39.8 M9.55 -40.25 L9.9 -40.05 10.3 -39.85 9.9 -40.05 9.55 -40.25 M11.15 -38.85 Q7.8 -36.85 6.3 -38.0 4.8 -39.15 4.95 -39.8 5.0 -40.45 5.5 -40.95 L5.85 -41.25 5.95 -41.85 6.3 -42.65 Q6.7 -43.1 7.6 -43.2 8.45 -43.35 9.6 -41.7 L10.35 -40.4 11.15 -38.85" fill="#42651b" fill-rule="evenodd" stroke="none"/>
      <path d="M11.15 -38.85 L10.35 -39.8 M10.3 -39.85 L9.9 -40.05 9.55 -40.25 M11.15 -38.85 L10.35 -40.4 9.6 -41.7 Q8.45 -43.35 7.6 -43.2 6.7 -43.1 6.3 -42.65 L5.95 -41.85 5.85 -41.25 5.5 -40.95 Q5.0 -40.45 4.95 -39.8 4.8 -39.15 6.3 -38.0 7.8 -36.85 11.15 -38.85" fill="none" stroke="#000000" stroke-linecap="round" stroke-linejoin="round" stroke-opacity="0.29803923" stroke-width="0.2"/>
      <path d="M10.35 -39.8 L10.3 -39.85" fill="none" stroke="#000000" stroke-linecap="round" stroke-linejoin="round" stroke-opacity="0.29803923" stroke-width="0.1"/>
      <path d="M18.2 -38.05 L17.55 -36.9 Q17.0 -36.5 15.65 -36.55 14.75 -36.55 13.0 -37.6 12.45 -37.9 11.85 -38.35 L11.15 -38.8 Q10.8 -39.9 13.05 -41.25 15.3 -42.6 16.2 -42.1 L17.45 -41.15 17.7 -40.2 17.55 -39.7 Q18.3 -38.65 18.2 -38.05 M13.3 -39.75 L12.4 -39.55 11.15 -38.8 12.4 -39.55 13.3 -39.75" fill="#42651b" fill-rule="evenodd" stroke="none"/>
      <path d="M18.2 -38.05 L17.55 -36.9 Q17.0 -36.5 15.65 -36.55 14.75 -36.55 13.0 -37.6 12.45 -37.9 11.85 -38.35 L11.15 -38.8 Q10.8 -39.9 13.05 -41.25 15.3 -42.6 16.2 -42.1 L17.45 -41.15 17.7 -40.2 17.55 -39.7 Q18.3 -38.65 18.2 -38.05 M11.15 -38.8 L12.4 -39.55 13.3 -39.75" fill="none" stroke="#000000" stroke-linecap="round" stroke-linejoin="round" stroke-opacity="0.29803923" stroke-width="0.2"/>
      <path d="M6.7 -36.4 L5.6 -35.95 3.2 -34.35 2.5 -35.55 2.1 -35.95 0.6 -37.5 Q0.15 -38.05 0.35 -38.65 0.5 -39.25 1.15 -39.5 1.8 -39.7 2.55 -39.5 L4.1 -38.8 4.9 -38.9 6.0 -38.9 Q6.7 -38.65 7.15 -38.2 7.55 -37.6 7.45 -37.2 7.35 -36.75 6.7 -36.4 M3.7 -37.15 L3.7 -36.55 3.6 -35.75 Q3.6 -35.05 3.2 -34.35 3.6 -35.05 3.6 -35.75 L3.7 -36.55 3.7 -37.15" fill="#42651b" fill-rule="evenodd" stroke="none"/>
      <path d="M6.7 -36.4 L5.6 -35.95 3.2 -34.35 2.5 -35.55 2.1 -35.95 0.6 -37.5 Q0.15 -38.05 0.35 -38.65 0.5 -39.25 1.15 -39.5 1.8 -39.7 2.55 -39.5 L4.1 -38.8 4.9 -38.9 6.0 -38.9 Q6.7 -38.65 7.15 -38.2 7.55 -37.6 7.45 -37.2 7.35 -36.75 6.7 -36.4 M3.2 -34.35 Q3.6 -35.05 3.6 -35.75 L3.7 -36.55 3.7 -37.15" fill="none" stroke="#000000" stroke-linecap="round" stroke-linejoin="round" stroke-opacity="0.29803923" stroke-width="0.2"/>
      <path d="M2.6 -35.25 L3.4 -34.3 2.6 -35.25 2.55 -35.3 2.6 -35.25 M1.8 -35.7 L2.15 -35.5 2.55 -35.3 2.15 -35.5 1.8 -35.7 M3.4 -34.3 Q0.05 -32.3 -1.45 -33.45 -2.95 -34.6 -2.8 -35.25 L-2.25 -36.4 -1.9 -36.7 -1.8 -37.3 -1.45 -38.1 Q-1.05 -38.55 -0.15 -38.65 0.7 -38.8 1.85 -37.15 L2.6 -35.85 3.4 -34.3" fill="#42651b" fill-rule="evenodd" stroke="none"/>
      <path d="M3.4 -34.3 L2.6 -35.25 M2.55 -35.3 L2.15 -35.5 1.8 -35.7 M3.4 -34.3 L2.6 -35.85 1.85 -37.15 Q0.7 -38.8 -0.15 -38.65 -1.05 -38.55 -1.45 -38.1 L-1.8 -37.3 -1.9 -36.7 -2.25 -36.4 -2.8 -35.25 Q-2.95 -34.6 -1.45 -33.45 0.05 -32.3 3.4 -34.3" fill="none" stroke="#000000" stroke-linecap="round" stroke-linejoin="round" stroke-opacity="0.29803923" stroke-width="0.2"/>
      <path d="M2.6 -35.25 L2.55 -35.3" fill="none" stroke="#000000" stroke-linecap="round" stroke-linejoin="round" stroke-opacity="0.29803923" stroke-width="0.1"/>
      <path d="M10.45 -33.5 L9.8 -32.35 Q9.25 -31.95 7.9 -32.0 7.0 -32.0 5.25 -33.05 L4.1 -33.8 3.4 -34.25 Q3.05 -35.35 5.3 -36.7 7.55 -38.05 8.45 -37.55 L9.7 -36.6 9.95 -35.65 9.8 -35.15 Q10.55 -34.1 10.45 -33.5 M5.55 -35.2 L4.65 -35.0 Q4.1 -34.8 3.4 -34.25 4.1 -34.8 4.65 -35.0 L5.55 -35.2" fill="#42651b" fill-rule="evenodd" stroke="none"/>
      <path d="M10.45 -33.5 L9.8 -32.35 Q9.25 -31.95 7.9 -32.0 7.0 -32.0 5.25 -33.05 L4.1 -33.8 3.4 -34.25 Q3.05 -35.35 5.3 -36.7 7.55 -38.05 8.45 -37.55 L9.7 -36.6 9.95 -35.65 9.8 -35.15 Q10.55 -34.1 10.45 -33.5 M3.4 -34.25 Q4.1 -34.8 4.65 -35.0 L5.55 -35.2" fill="none" stroke="#000000" stroke-linecap="round" stroke-linejoin="round" stroke-opacity="0.29803923" stroke-width="0.2"/>
      <path d="M-15.6 -30.9 Q-15.05 -31.85 -13.9 -32.0 L-13.7 -31.6 Q-13.1 -30.2 -12.65 -28.35 -12.45 -27.1 -13.2 -25.95 -14.85 -25.9 -16.0 -27.6 -16.2 -29.75 -15.6 -30.9" fill="url(#decoration228-gradient4)" fill-rule="evenodd" stroke="none"/>
      <path d="M-15.6 -30.9 Q-16.2 -29.75 -16.0 -27.6 -14.85 -25.9 -13.2 -25.95 -12.45 -27.1 -12.65 -28.35 -13.1 -30.2 -13.7 -31.6 L-13.9 -32.0 Q-15.05 -31.85 -15.6 -30.9 Z" fill="none" stroke="#000000" stroke-linecap="round" stroke-linejoin="round" stroke-opacity="0.29803923" stroke-width="0.2"/>
      <path d="M-18.55 -28.7 L-18.2 -28.7 -15.1 -28.05 Q-14.05 -27.6 -13.45 -26.3 -14.25 -24.7 -16.15 -24.5 -18.0 -25.35 -18.6 -26.5 -19.05 -27.45 -18.55 -28.7" fill="url(#decoration228-gradient5)" fill-rule="evenodd" stroke="none"/>
      <path d="M-18.55 -28.7 Q-19.05 -27.45 -18.6 -26.5 -18.0 -25.35 -16.15 -24.5 -14.25 -24.7 -13.45 -26.3 -14.05 -27.6 -15.1 -28.05 L-18.2 -28.7 -18.55 -28.7 Z" fill="none" stroke="#000000" stroke-linecap="round" stroke-linejoin="round" stroke-opacity="0.29803923" stroke-width="0.2"/>
      <path d="M-13.3 -28.55 L-11.55 -31.35 -11.25 -31.65 Q-10.15 -31.2 -9.9 -30.15 -9.55 -28.9 -10.3 -26.85 -11.8 -25.5 -13.35 -26.0 -13.8 -27.35 -13.3 -28.55" fill="url(#decoration228-gradient6)" fill-rule="evenodd" stroke="none"/>
      <path d="M-13.3 -28.55 L-11.55 -31.35 -11.25 -31.65 Q-10.15 -31.2 -9.9 -30.15 -9.55 -28.9 -10.3 -26.85 -11.8 -25.5 -13.35 -26.0 -13.8 -27.35 -13.3 -28.55 Z" fill="none" stroke="#000000" stroke-linecap="round" stroke-linejoin="round" stroke-opacity="0.29803923" stroke-width="0.2"/>
      <path d="M-17.1 -22.4 L-15.8 -25.4 Q-15.15 -26.5 -13.85 -26.75 -12.6 -25.4 -12.9 -23.3 -14.1 -21.65 -15.25 -21.4 -16.2 -21.15 -17.2 -22.0 L-17.1 -22.4" fill="url(#decoration228-gradient7)" fill-rule="evenodd" stroke="none"/>
      <path d="M-17.1 -22.4 L-17.2 -22.0 Q-16.2 -21.15 -15.25 -21.4 -14.1 -21.65 -12.9 -23.3 -12.6 -25.4 -13.85 -26.75 -15.15 -26.5 -15.8 -25.4 L-17.1 -22.4 Z" fill="none" stroke="#000000" stroke-linecap="round" stroke-linejoin="round" stroke-opacity="0.29803923" stroke-width="0.2"/>
      <path d="M-12.2 -23.0 Q-13.75 -24.25 -13.7 -26.05 -12.65 -26.9 -11.5 -26.65 -9.8 -26.2 -8.5 -25.5 L-8.2 -25.3 Q-8.3 -24.05 -9.2 -23.45 -10.2 -22.75 -12.2 -23.0" fill="url(#decoration228-gradient8)" fill-rule="evenodd" stroke="none"/>
      <path d="M-12.2 -23.0 Q-13.75 -24.25 -13.7 -26.05 -12.65 -26.9 -11.5 -26.65 -9.8 -26.2 -8.5 -25.5 L-8.2 -25.3 Q-8.3 -24.05 -9.2 -23.45 -10.2 -22.75 -12.2 -23.0 Z" fill="none" stroke="#000000" stroke-linecap="round" stroke-linejoin="round" stroke-opacity="0.29803923" stroke-width="0.2"/>
      <path d="M17.7 -37.7 L18.3 -37.9 Q18.35 -37.0 19.25 -37.25 L19.9 -37.65 19.9 -37.6 19.55 -36.85 19.9 -37.6 Q20.1 -36.75 20.6 -37.1 21.0 -37.55 21.3 -37.65 L21.6 -37.2 Q20.75 -36.1 20.05 -36.4 L19.55 -36.85 Q18.0 -36.25 17.75 -37.05 17.65 -37.4 17.7 -37.7" fill="#528229" fill-rule="evenodd" stroke="none"/>
      <path d="M18.3 -37.9 L21.0 -38.95 21.3 -37.65 Q21.0 -37.55 20.6 -37.1 20.1 -36.75 19.9 -37.6 L19.9 -37.65 19.25 -37.25 Q18.35 -37.0 18.3 -37.9 M21.0 -38.95 L19.9 -37.65 21.0 -38.95" fill="#42651b" fill-rule="evenodd" stroke="none"/>
      <path d="M21.6 -37.2 L22.6 -35.45 Q22.85 -34.85 22.4 -34.3 L21.2 -33.5 19.6 -33.75 Q18.95 -34.05 18.2 -34.65 L17.25 -34.65 16.05 -34.8 Q15.3 -35.15 15.05 -35.75 14.8 -36.35 15.1 -36.75 15.45 -37.2 16.3 -37.4 L17.7 -37.7 Q17.65 -37.4 17.75 -37.05 18.0 -36.25 19.55 -36.85 L20.05 -36.4 Q20.75 -36.1 21.6 -37.2 M19.35 -36.25 L19.55 -36.85 19.35 -36.25" fill="url(#decoration228-gradient9)" fill-rule="evenodd" stroke="none"/>
      <path d="M21.6 -37.2 L22.6 -35.45 Q22.85 -34.85 22.4 -34.3 L21.2 -33.5 19.6 -33.75 Q18.95 -34.05 18.2 -34.65 L17.25 -34.65 16.05 -34.8 Q15.3 -35.15 15.05 -35.75 14.8 -36.35 15.1 -36.75 15.45 -37.2 16.3 -37.4 L17.7 -37.7 18.3 -37.9 21.0 -38.95 21.3 -37.65 21.6 -37.2 M19.55 -36.85 L19.35 -36.25 M19.55 -36.85 L19.9 -37.6 M19.9 -37.65 L21.0 -38.95" fill="none" stroke="#000000" stroke-linecap="round" stroke-linejoin="round" stroke-opacity="0.29803923" stroke-width="0.2"/>
      <path d="M23.2 -39.3 L22.6 -39.1 Q22.55 -40.05 21.65 -39.75 L21.0 -39.4 21.0 -39.45 21.35 -40.2 21.0 -39.45 Q20.8 -40.25 20.3 -39.95 19.9 -39.5 19.6 -39.4 L19.3 -39.8 Q20.15 -40.9 20.85 -40.65 L21.35 -40.2 Q22.9 -40.75 23.15 -39.95 L23.2 -39.3" fill="#528229" fill-rule="evenodd" stroke="none"/>
      <path d="M22.6 -39.1 L19.9 -38.1 19.6 -39.4 Q19.9 -39.5 20.3 -39.95 20.8 -40.25 21.0 -39.45 L21.0 -39.4 21.65 -39.75 Q22.55 -40.05 22.6 -39.1 M19.9 -38.1 L21.0 -39.4 19.9 -38.1" fill="#42651b" fill-rule="evenodd" stroke="none"/>
      <path d="M19.3 -39.8 L18.3 -41.55 Q18.05 -42.15 18.5 -42.75 18.85 -43.3 19.7 -43.5 L21.3 -43.3 22.7 -42.35 23.65 -42.35 24.85 -42.2 Q25.6 -41.9 25.85 -41.25 26.1 -40.65 25.8 -40.3 L24.6 -39.6 23.2 -39.3 23.15 -39.95 Q22.9 -40.75 21.35 -40.2 L20.85 -40.65 Q20.15 -40.9 19.3 -39.8 M21.55 -40.8 L21.35 -40.2 21.55 -40.8" fill="url(#decoration228-gradient10)" fill-rule="evenodd" stroke="none"/>
      <path d="M19.3 -39.8 L18.3 -41.55 Q18.05 -42.15 18.5 -42.75 18.85 -43.3 19.7 -43.5 L21.3 -43.3 22.7 -42.35 23.65 -42.35 24.85 -42.2 Q25.6 -41.9 25.85 -41.25 26.1 -40.65 25.8 -40.3 L24.6 -39.6 23.2 -39.3 22.6 -39.1 19.9 -38.1 19.6 -39.4 19.3 -39.8 M21.35 -40.2 L21.55 -40.8 M21.35 -40.2 L21.0 -39.45 M21.0 -39.4 L19.9 -38.1" fill="none" stroke="#000000" stroke-linecap="round" stroke-linejoin="round" stroke-opacity="0.29803923" stroke-width="0.2"/>
      <path d="M19.5 -39.15 L19.2 -39.4 18.85 -39.6 19.2 -39.4 19.5 -39.15 19.55 -39.1 19.0 -38.8 Q18.7 -38.35 19.2 -37.75 L17.75 -37.5 Q17.3 -37.8 18.05 -38.5 L17.8 -38.95 Q17.7 -39.4 18.85 -39.6 18.65 -40.5 19.1 -40.55 L19.85 -40.5 20.2 -39.5 Q19.35 -40.25 19.5 -39.15" fill="#528229" fill-rule="evenodd" stroke="none"/>
      <path d="M19.5 -39.15 Q19.35 -40.25 20.2 -39.5 L20.1 -37.95 19.55 -39.1 19.5 -39.15 M19.2 -37.75 Q18.7 -38.35 19.0 -38.8 L19.55 -39.1 20.1 -37.95 19.2 -37.75" fill="#42651b" fill-rule="evenodd" stroke="none"/>
      <path d="M19.85 -40.5 L19.1 -40.55 Q18.65 -40.5 18.85 -39.6 17.7 -39.4 17.8 -38.95 L18.05 -38.5 Q17.3 -37.8 17.75 -37.5 15.6 -37.2 14.75 -37.5 13.55 -37.95 13.3 -38.5 13.15 -39.2 13.55 -39.85 L14.7 -40.9 15.25 -41.2 15.6 -41.8 16.25 -42.45 17.6 -42.55 Q18.4 -42.35 19.5 -41.0 L19.85 -40.5" fill="url(#decoration228-gradient11)" fill-rule="evenodd" stroke="none"/>
      <path d="M18.85 -39.6 L19.2 -39.4 19.5 -39.15 M20.2 -39.5 L19.85 -40.5 19.5 -41.0 Q18.4 -42.35 17.6 -42.55 L16.25 -42.45 15.6 -41.8 15.25 -41.2 14.7 -40.9 13.55 -39.85 Q13.15 -39.2 13.3 -38.5 13.55 -37.95 14.75 -37.5 15.6 -37.2 17.75 -37.5 L19.2 -37.75 20.1 -37.95 19.55 -39.1 M20.1 -37.95 L20.2 -39.5" fill="none" stroke="#000000" stroke-linecap="round" stroke-linejoin="round" stroke-opacity="0.29803923" stroke-width="0.2"/>
      <path d="M19.55 -39.1 L19.5 -39.15" fill="none" stroke="#000000" stroke-linecap="round" stroke-linejoin="round" stroke-opacity="0.29803923" stroke-width="0.1"/>
      <path d="M23.0 -39.6 L23.65 -39.35 Q24.0 -39.1 22.85 -38.6 23.65 -37.85 23.05 -37.6 L22.4 -37.4 Q22.25 -36.55 21.55 -36.45 L20.65 -37.4 Q21.7 -37.55 21.85 -38.05 L21.75 -38.5 21.8 -38.5 Q23.1 -39.25 21.65 -39.1 L23.0 -39.6 M22.85 -38.6 L21.8 -38.5 22.85 -38.6" fill="#528229" fill-rule="evenodd" stroke="none"/>
      <path d="M21.65 -39.1 Q23.1 -39.25 21.8 -38.5 L21.75 -38.5 20.1 -37.95 21.75 -38.5 21.85 -38.05 Q21.7 -37.55 20.65 -37.4 L20.1 -37.95 21.65 -39.1" fill="#42651b" fill-rule="evenodd" stroke="none"/>
      <path d="M21.55 -36.45 Q22.25 -36.55 22.4 -37.4 L23.05 -37.6 Q23.65 -37.85 22.85 -38.6 24.0 -39.1 23.65 -39.35 L23.0 -39.6 23.8 -39.9 27.05 -40.15 Q27.9 -39.95 28.05 -39.4 28.2 -38.8 27.95 -38.4 L27.55 -37.9 Q27.9 -36.75 27.6 -36.2 L26.4 -35.15 24.1 -35.05 Q23.1 -35.2 21.55 -36.45" fill="url(#decoration228-gradient12)" fill-rule="evenodd" stroke="none"/>
      <path d="M21.55 -36.45 Q23.1 -35.2 24.1 -35.05 L26.4 -35.15 27.6 -36.2 Q27.9 -36.75 27.55 -37.9 L27.95 -38.4 Q28.2 -38.8 28.05 -39.4 27.9 -39.95 27.05 -40.15 L23.8 -39.9 23.0 -39.6 21.65 -39.1 20.1 -37.95 21.75 -38.5 21.8 -38.5 22.85 -38.6 M20.1 -37.95 L20.65 -37.4 21.55 -36.45" fill="none" stroke="#000000" stroke-linecap="round" stroke-linejoin="round" stroke-opacity="0.29803923" stroke-width="0.2"/>
      <path d="M13.6 -29.65 Q12.9 -30.8 13.1 -32.05 L14.1 -35.3 14.3 -35.7 Q15.45 -35.55 16.0 -34.6 16.6 -33.45 16.4 -31.3 15.25 -29.6 13.6 -29.65" fill="url(#decoration228-gradient13)" fill-rule="evenodd" stroke="none"/>
      <path d="M13.6 -29.65 Q12.9 -30.8 13.1 -32.05 L14.1 -35.3 14.3 -35.7 Q15.45 -35.55 16.0 -34.6 16.6 -33.45 16.4 -31.3 15.25 -29.6 13.6 -29.65 Z" fill="none" stroke="#000000" stroke-linecap="round" stroke-linejoin="round" stroke-opacity="0.29803923" stroke-width="0.2"/>
      <path d="M19.0 -30.2 Q18.4 -29.05 16.6 -28.2 14.65 -28.4 13.85 -30.0 14.45 -31.3 15.5 -31.75 L18.6 -32.4 18.95 -32.4 Q19.45 -31.15 19.0 -30.2" fill="url(#decoration228-gradient14)" fill-rule="evenodd" stroke="none"/>
      <path d="M19.0 -30.2 Q18.4 -29.05 16.6 -28.2 14.65 -28.4 13.85 -30.0 14.45 -31.3 15.5 -31.75 L18.6 -32.4 18.95 -32.4 Q19.45 -31.15 19.0 -30.2 Z" fill="none" stroke="#000000" stroke-linecap="round" stroke-linejoin="round" stroke-opacity="0.29803923" stroke-width="0.2"/>
      <path d="M10.7 -30.55 Q9.95 -32.6 10.3 -33.85 10.55 -34.9 11.7 -35.35 L11.95 -35.05 13.7 -32.25 Q14.25 -31.05 13.75 -29.7 12.2 -29.2 10.7 -30.55" fill="url(#decoration228-gradient15)" fill-rule="evenodd" stroke="none"/>
      <path d="M10.7 -30.55 Q12.2 -29.2 13.75 -29.7 14.25 -31.05 13.7 -32.25 L11.95 -35.05 11.7 -35.35 Q10.55 -34.9 10.3 -33.85 9.95 -32.6 10.7 -30.55 Z" fill="none" stroke="#000000" stroke-linecap="round" stroke-linejoin="round" stroke-opacity="0.29803923" stroke-width="0.2"/>
      <path d="M16.05 -29.25 L18.05 -26.65 18.25 -26.3 Q17.55 -25.25 16.55 -25.2 15.35 -25.15 13.75 -26.45 12.95 -28.4 13.8 -30.0 15.1 -30.1 16.05 -29.25" fill="url(#decoration228-gradient16)" fill-rule="evenodd" stroke="none"/>
      <path d="M16.05 -29.25 L18.05 -26.65 18.25 -26.3 Q17.55 -25.25 16.55 -25.2 15.35 -25.15 13.75 -26.45 12.95 -28.4 13.8 -30.0 15.1 -30.1 16.05 -29.25 Z" fill="none" stroke="#000000" stroke-linecap="round" stroke-linejoin="round" stroke-opacity="0.29803923" stroke-width="0.2"/>
      <path d="M11.5 -30.25 Q12.55 -30.8 13.8 -30.25 14.35 -28.5 13.15 -26.9 11.25 -26.15 10.15 -26.6 9.15 -26.9 8.7 -28.1 L8.95 -28.4 Q10.05 -29.4 11.5 -30.25" fill="url(#decoration228-gradient17)" fill-rule="evenodd" stroke="none"/>
      <path d="M11.5 -30.25 Q10.05 -29.4 8.95 -28.4 L8.7 -28.1 Q9.15 -26.9 10.15 -26.6 11.25 -26.15 13.15 -26.9 14.35 -28.5 13.8 -30.25 12.55 -30.8 11.5 -30.25 Z" fill="none" stroke="#000000" stroke-linecap="round" stroke-linejoin="round" stroke-opacity="0.29803923" stroke-width="0.2"/>
      <path d="M-12.05 -32.1 L-11.9 -32.7 Q-10.8 -32.25 -10.55 -33.2 L-10.55 -33.95 -10.45 -33.95 -9.85 -33.25 -10.45 -33.95 Q-9.4 -33.7 -9.45 -34.25 L-9.6 -35.15 -8.95 -35.2 Q-8.25 -33.9 -9.05 -33.45 L-9.85 -33.25 Q-10.25 -31.6 -11.25 -31.8 -11.75 -31.9 -12.05 -32.1" fill="#528229" fill-rule="evenodd" stroke="none"/>
      <path d="M-11.9 -32.7 L-11.3 -35.55 -9.6 -35.15 -9.45 -34.25 Q-9.4 -33.7 -10.45 -33.95 L-10.55 -33.95 -10.55 -33.2 Q-10.8 -32.25 -11.9 -32.7 M-11.3 -35.55 L-10.55 -33.95 -11.3 -35.55" fill="#42651b" fill-rule="evenodd" stroke="none"/>
      <path d="M-8.95 -35.2 L-6.3 -35.2 Q-5.45 -35.1 -5.1 -34.45 -4.7 -33.85 -5.05 -33.0 -5.45 -32.25 -6.3 -31.75 L-8.25 -31.0 -8.9 -30.2 -9.85 -29.2 Q-10.7 -28.75 -11.55 -28.8 -12.4 -28.9 -12.65 -29.35 -12.9 -29.85 -12.6 -30.7 L-12.05 -32.1 Q-11.75 -31.9 -11.25 -31.8 -10.25 -31.6 -9.85 -33.25 L-9.05 -33.45 Q-8.25 -33.9 -8.95 -35.2 M-9.3 -32.75 L-9.85 -33.25 -9.3 -32.75" fill="url(#decoration228-gradient18)" fill-rule="evenodd" stroke="none"/>
      <path d="M-8.95 -35.2 L-6.3 -35.2 Q-5.45 -35.1 -5.1 -34.45 -4.7 -33.85 -5.05 -33.0 -5.45 -32.25 -6.3 -31.75 L-8.25 -31.0 -8.9 -30.2 -9.85 -29.2 Q-10.7 -28.75 -11.55 -28.8 -12.4 -28.9 -12.65 -29.35 -12.9 -29.85 -12.6 -30.7 L-12.05 -32.1 -11.9 -32.7 -11.3 -35.55 -9.6 -35.15 -8.95 -35.2 M-9.85 -33.25 L-9.3 -32.75 M-9.85 -33.25 L-10.45 -33.95 M-10.55 -33.95 L-11.3 -35.55" fill="none" stroke="#000000" stroke-linecap="round" stroke-linejoin="round" stroke-opacity="0.29803923" stroke-width="0.2"/>
      <path d="M-10.35 -37.65 L-10.5 -37.05 Q-11.6 -37.5 -11.85 -36.55 L-11.85 -35.8 -11.95 -35.8 -12.55 -36.5 -11.95 -35.8 Q-13.0 -36.05 -12.95 -35.5 -12.7 -34.9 -12.8 -34.6 L-13.45 -34.55 Q-14.15 -35.85 -13.35 -36.3 L-12.55 -36.5 Q-12.15 -38.15 -11.15 -37.95 L-10.35 -37.65" fill="#528229" fill-rule="evenodd" stroke="none"/>
      <path d="M-10.5 -37.05 L-11.1 -34.2 -12.8 -34.6 Q-12.7 -34.9 -12.95 -35.5 -13.0 -36.05 -11.95 -35.8 L-11.85 -35.8 -11.85 -36.55 Q-11.6 -37.5 -10.5 -37.05 M-11.1 -34.2 Q-11.4 -35.1 -11.85 -35.8 -11.4 -35.1 -11.1 -34.2" fill="#42651b" fill-rule="evenodd" stroke="none"/>
      <path d="M-13.45 -34.55 L-16.1 -34.55 Q-16.95 -34.65 -17.3 -35.3 -17.7 -35.9 -17.35 -36.75 L-16.1 -38.0 -14.15 -38.75 -13.5 -39.55 -12.55 -40.55 -10.85 -40.95 Q-10.0 -40.85 -9.75 -40.4 -9.5 -39.9 -9.8 -39.05 L-10.35 -37.65 -11.15 -37.95 Q-12.15 -38.15 -12.55 -36.5 L-13.35 -36.3 Q-14.15 -35.85 -13.45 -34.55 M-13.1 -37.0 L-12.55 -36.5 -13.1 -37.0" fill="url(#decoration228-gradient19)" fill-rule="evenodd" stroke="none"/>
      <path d="M-13.45 -34.55 L-16.1 -34.55 Q-16.95 -34.65 -17.3 -35.3 -17.7 -35.9 -17.35 -36.75 L-16.1 -38.0 -14.15 -38.75 -13.5 -39.55 -12.55 -40.55 -10.85 -40.95 Q-10.0 -40.85 -9.75 -40.4 -9.5 -39.9 -9.8 -39.05 L-10.35 -37.65 -10.5 -37.05 -11.1 -34.2 -12.8 -34.6 -13.45 -34.55 M-12.55 -36.5 L-13.1 -37.0 M-12.55 -36.5 L-11.95 -35.8 M-11.85 -35.8 Q-11.4 -35.1 -11.1 -34.2" fill="none" stroke="#000000" stroke-linecap="round" stroke-linejoin="round" stroke-opacity="0.29803923" stroke-width="0.2"/>
      <path d="M-12.55 -34.4 L-13.05 -34.25 -13.5 -34.05 -13.05 -34.25 -12.55 -34.4 -12.45 -34.4 -12.5 -33.8 Q-12.2 -33.3 -11.2 -33.45 L-11.85 -32.05 Q-12.5 -31.85 -12.8 -32.85 L-13.45 -32.8 Q-14.05 -32.95 -13.5 -34.05 -14.65 -34.3 -14.45 -34.7 L-13.9 -35.35 -12.5 -35.2 Q-13.9 -34.8 -12.55 -34.4" fill="#528229" fill-rule="evenodd" stroke="none"/>
      <path d="M-12.55 -34.4 Q-13.9 -34.8 -12.5 -35.2 L-10.85 -34.3 -12.45 -34.4 -12.55 -34.4 M-11.2 -33.45 Q-12.2 -33.3 -12.5 -33.8 L-12.45 -34.4 -10.85 -34.3 -11.2 -33.45" fill="#42651b" fill-rule="evenodd" stroke="none"/>
      <path d="M-13.9 -35.35 L-14.45 -34.7 Q-14.65 -34.3 -13.5 -34.05 -14.05 -32.95 -13.45 -32.8 L-12.8 -32.85 Q-12.5 -31.85 -11.85 -32.05 -12.95 -30.05 -13.85 -29.45 -15.15 -28.65 -15.9 -28.75 -16.75 -28.9 -17.25 -29.6 -17.75 -30.25 -17.7 -31.1 L-17.65 -31.7 -18.1 -32.3 -18.45 -33.25 Q-18.5 -33.95 -17.7 -34.45 -16.95 -35.05 -14.7 -35.3 L-13.9 -35.35" fill="url(#decoration228-gradient20)" fill-rule="evenodd" stroke="none"/>
      <path d="M-13.5 -34.05 L-13.05 -34.25 -12.55 -34.4 M-12.5 -35.2 L-13.9 -35.35 -14.7 -35.3 Q-16.95 -35.05 -17.7 -34.45 -18.5 -33.95 -18.45 -33.25 L-18.1 -32.3 -17.65 -31.7 -17.7 -31.1 Q-17.75 -30.25 -17.25 -29.6 -16.75 -28.9 -15.9 -28.75 -15.15 -28.65 -13.85 -29.45 -12.95 -30.05 -11.85 -32.05 L-11.2 -33.45 -10.85 -34.3 -12.45 -34.4 M-10.85 -34.3 L-12.5 -35.2" fill="none" stroke="#000000" stroke-linecap="round" stroke-linejoin="round" stroke-opacity="0.29803923" stroke-width="0.2"/>
      <path d="M-12.45 -34.4 L-12.55 -34.4" fill="none" stroke="#000000" stroke-linecap="round" stroke-linejoin="round" stroke-opacity="0.29803923" stroke-width="0.1"/>
      <path d="M-10.85 -37.65 L-10.05 -38.1 Q-9.6 -38.25 -9.75 -37.0 -8.4 -37.35 -8.45 -36.7 L-8.7 -36.0 Q-7.8 -35.5 -8.2 -34.85 L-9.85 -34.5 Q-9.35 -35.5 -9.8 -35.9 L-10.4 -36.0 -10.4 -36.05 Q-10.35 -37.55 -11.15 -36.25 L-10.85 -37.65 M-9.75 -37.0 L-10.4 -36.05 -9.75 -37.0" fill="#528229" fill-rule="evenodd" stroke="none"/>
      <path d="M-11.15 -36.25 Q-10.35 -37.55 -10.4 -36.05 L-10.4 -36.0 -10.8 -34.3 -10.4 -36.0 -9.8 -35.9 Q-9.35 -35.5 -9.85 -34.5 L-10.8 -34.3 Q-11.2 -35.25 -11.15 -36.25" fill="#42651b" fill-rule="evenodd" stroke="none"/>
      <path d="M-8.2 -34.85 Q-7.8 -35.5 -8.7 -36.0 L-8.45 -36.7 Q-8.4 -37.35 -9.75 -37.0 -9.6 -38.25 -10.05 -38.1 L-10.85 -37.65 -10.6 -38.5 Q-9.65 -40.8 -8.8 -41.45 -8.0 -42.05 -7.25 -41.9 -6.55 -41.75 -6.2 -41.3 L-5.95 -40.75 Q-4.4 -40.45 -4.0 -39.9 -3.5 -39.25 -3.55 -38.35 -3.7 -37.5 -4.95 -36.35 -5.8 -35.55 -8.2 -34.85" fill="url(#decoration228-gradient21)" fill-rule="evenodd" stroke="none"/>
      <path d="M-8.2 -34.85 Q-5.8 -35.55 -4.95 -36.35 -3.7 -37.5 -3.55 -38.35 -3.5 -39.25 -4.0 -39.9 -4.4 -40.45 -5.95 -40.75 L-6.2 -41.3 Q-6.55 -41.75 -7.25 -41.9 -8.0 -42.05 -8.8 -41.45 -9.65 -40.8 -10.6 -38.5 L-10.85 -37.65 -11.15 -36.25 Q-11.2 -35.25 -10.8 -34.3 L-10.4 -36.0 -10.4 -36.05 -9.75 -37.0 M-10.8 -34.3 L-9.85 -34.5 -8.2 -34.85" fill="none" stroke="#000000" stroke-linecap="round" stroke-linejoin="round" stroke-opacity="0.29803923" stroke-width="0.2"/>
      <path d="M-4.8 -29.9 Q-6.2 -29.85 -7.15 -31.15 -7.3 -32.8 -6.8 -33.7 -6.35 -34.4 -5.4 -34.5 L-5.2 -34.25 Q-4.7 -33.15 -4.35 -31.75 -4.2 -30.8 -4.8 -29.9" fill="url(#decoration228-gradient22)" fill-rule="evenodd" stroke="none"/>
      <path d="M-4.8 -29.9 Q-4.2 -30.8 -4.35 -31.75 -4.7 -33.15 -5.2 -34.25 L-5.4 -34.5 Q-6.35 -34.4 -6.8 -33.7 -7.3 -32.8 -7.15 -31.15 -6.2 -29.85 -4.8 -29.9 Z" fill="none" stroke="#000000" stroke-linecap="round" stroke-linejoin="round" stroke-opacity="0.29803923" stroke-width="0.2"/>
      <path d="M-5.0 -30.15 Q-5.65 -28.95 -7.3 -28.8 -8.8 -29.45 -9.3 -30.35 -9.7 -31.05 -9.3 -32.0 L-9.0 -32.0 -6.4 -31.5 Q-5.5 -31.15 -5.0 -30.15" fill="url(#decoration228-gradient23)" fill-rule="evenodd" stroke="none"/>
      <path d="M-5.0 -30.15 Q-5.5 -31.15 -6.4 -31.5 L-9.0 -32.0 -9.3 -32.0 Q-9.7 -31.05 -9.3 -30.35 -8.8 -29.45 -7.3 -28.8 -5.65 -28.95 -5.0 -30.15 Z" fill="none" stroke="#000000" stroke-linecap="round" stroke-linejoin="round" stroke-opacity="0.29803923" stroke-width="0.2"/>
      <path d="M-4.85 -31.9 L-3.45 -34.05 -3.2 -34.25 Q-2.25 -33.95 -2.0 -33.1 -1.75 -32.15 -2.35 -30.6 -3.65 -29.6 -4.9 -29.95 -5.3 -31.0 -4.85 -31.9" fill="url(#decoration228-gradient24)" fill-rule="evenodd" stroke="none"/>
      <path d="M-4.85 -31.9 L-3.45 -34.05 -3.2 -34.25 Q-2.25 -33.95 -2.0 -33.1 -1.75 -32.15 -2.35 -30.6 -3.65 -29.6 -4.9 -29.95 -5.3 -31.0 -4.85 -31.9 Z" fill="none" stroke="#000000" stroke-linecap="round" stroke-linejoin="round" stroke-opacity="0.29803923" stroke-width="0.2"/>
      <path d="M-5.0 -30.15 Q-4.25 -28.95 -4.9 -27.5 -6.25 -26.5 -7.25 -26.5 -8.1 -26.55 -8.7 -27.35 L-8.55 -27.6 -6.85 -29.6 Q-6.05 -30.25 -5.0 -30.15" fill="url(#decoration228-gradient25)" fill-rule="evenodd" stroke="none"/>
      <path d="M-5.0 -30.15 Q-6.05 -30.25 -6.85 -29.6 L-8.55 -27.6 -8.7 -27.35 Q-8.1 -26.55 -7.25 -26.5 -6.25 -26.5 -4.9 -27.5 -4.25 -28.95 -5.0 -30.15 Z" fill="none" stroke="#000000" stroke-linecap="round" stroke-linejoin="round" stroke-opacity="0.29803923" stroke-width="0.2"/>
      <path d="M-0.6 -29.4 Q-0.7 -28.45 -1.45 -28.0 -2.3 -27.5 -3.95 -27.65 -5.25 -28.6 -5.2 -30.0 -4.3 -30.6 -3.35 -30.45 -1.95 -30.1 -0.85 -29.6 L-0.6 -29.4" fill="url(#decoration228-gradient26)" fill-rule="evenodd" stroke="none"/>
      <path d="M-0.6 -29.4 Q-0.7 -28.45 -1.45 -28.0 -2.3 -27.5 -3.95 -27.65 -5.25 -28.6 -5.2 -30.0 -4.3 -30.6 -3.35 -30.45 -1.95 -30.1 -0.85 -29.6 L-0.6 -29.4 Z" fill="none" stroke="#000000" stroke-linecap="round" stroke-linejoin="round" stroke-opacity="0.29803923" stroke-width="0.2"/>
      <path d="M1.35 -28.15 L1.8 -28.6 Q2.55 -27.65 3.2 -28.35 L3.6 -29.0 3.7 -28.95 3.85 -28.0 3.7 -28.95 Q4.45 -28.2 4.7 -28.7 L5.0 -29.55 5.6 -29.25 Q5.55 -27.8 4.65 -27.8 L3.85 -28.0 Q2.65 -26.8 1.9 -27.45 L1.35 -28.15" fill="#528229" fill-rule="evenodd" stroke="none"/>
      <path d="M1.8 -28.6 L3.75 -30.75 5.0 -29.55 4.7 -28.7 Q4.45 -28.2 3.7 -28.95 L3.6 -29.0 3.2 -28.35 Q2.55 -27.65 1.8 -28.6 M3.75 -30.75 L3.6 -29.0 3.75 -30.75" fill="#42651b" fill-rule="evenodd" stroke="none"/>
      <path d="M5.6 -29.25 L7.9 -27.95 Q8.55 -27.4 8.55 -26.7 8.6 -26.0 7.85 -25.4 7.15 -24.95 6.2 -24.95 L4.1 -25.25 3.15 -24.95 1.8 -24.5 Q0.85 -24.6 0.15 -25.0 -0.55 -25.55 -0.5 -26.05 -0.5 -26.65 0.15 -27.2 L1.35 -28.15 1.9 -27.45 Q2.65 -26.8 3.85 -28.0 L4.65 -27.8 Q5.55 -27.8 5.6 -29.25 M4.1 -27.35 L3.85 -28.0 4.1 -27.35" fill="url(#decoration228-gradient27)" fill-rule="evenodd" stroke="none"/>
      <path d="M5.6 -29.25 L7.9 -27.95 Q8.55 -27.4 8.55 -26.7 8.6 -26.0 7.85 -25.4 7.15 -24.95 6.2 -24.95 L4.1 -25.25 3.15 -24.95 1.8 -24.5 Q0.85 -24.6 0.15 -25.0 -0.55 -25.55 -0.5 -26.05 -0.5 -26.65 0.15 -27.2 L1.35 -28.15 1.8 -28.6 3.75 -30.75 5.0 -29.55 5.6 -29.25 M3.85 -28.0 L4.1 -27.35 M3.85 -28.0 L3.7 -28.95 M3.6 -29.0 L3.75 -30.75" fill="none" stroke="#000000" stroke-linecap="round" stroke-linejoin="round" stroke-opacity="0.29803923" stroke-width="0.2"/>
      <path d="M5.6 -32.05 L5.15 -31.6 Q4.4 -32.55 3.75 -31.85 L3.35 -31.2 3.25 -31.25 3.1 -32.2 3.25 -31.25 Q2.5 -32.0 2.25 -31.5 L1.95 -30.65 Q1.65 -30.75 1.35 -30.95 1.4 -32.4 2.3 -32.4 L3.1 -32.2 Q4.3 -33.4 5.05 -32.75 L5.6 -32.05" fill="#528229" fill-rule="evenodd" stroke="none"/>
      <path d="M5.15 -31.6 L3.2 -29.45 1.95 -30.65 2.25 -31.5 Q2.5 -32.0 3.25 -31.25 L3.35 -31.2 3.75 -31.85 Q4.4 -32.55 5.15 -31.6 M3.2 -29.45 L3.35 -31.2 3.2 -29.45" fill="#42651b" fill-rule="evenodd" stroke="none"/>
      <path d="M1.35 -30.95 L-0.95 -32.25 Q-1.6 -32.8 -1.6 -33.5 -1.65 -34.2 -0.9 -34.8 L0.75 -35.25 2.85 -34.95 3.8 -35.25 5.15 -35.7 6.8 -35.2 Q7.5 -34.65 7.45 -34.15 7.45 -33.55 6.8 -33.0 L5.6 -32.05 5.05 -32.75 Q4.3 -33.4 3.1 -32.2 L2.3 -32.4 Q1.4 -32.4 1.35 -30.95 M2.85 -32.85 L3.1 -32.2 2.85 -32.85" fill="url(#decoration228-gradient28)" fill-rule="evenodd" stroke="none"/>
      <path d="M1.35 -30.95 L-0.95 -32.25 Q-1.6 -32.8 -1.6 -33.5 -1.65 -34.2 -0.9 -34.8 L0.75 -35.25 2.85 -34.95 3.8 -35.25 5.15 -35.7 6.8 -35.2 Q7.5 -34.65 7.45 -34.15 7.45 -33.55 6.8 -33.0 L5.6 -32.05 5.15 -31.6 3.2 -29.45 1.95 -30.65 Q1.65 -30.75 1.35 -30.95 M3.1 -32.2 L2.85 -32.85 M3.1 -32.2 L3.25 -31.25 M3.35 -31.2 L3.2 -29.45" fill="none" stroke="#000000" stroke-linecap="round" stroke-linejoin="round" stroke-opacity="0.29803923" stroke-width="0.2"/>
      <path d="M2.05 -30.35 L1.55 -30.5 1.05 -30.5 1.55 -30.5 2.05 -30.35 2.15 -30.3 1.8 -29.8 Q1.8 -29.2 2.75 -28.85 L1.5 -27.95 Q0.85 -28.1 1.1 -29.1 0.75 -29.2 0.45 -29.4 0.05 -29.85 1.05 -30.5 0.2 -31.3 0.55 -31.55 L1.4 -31.85 2.5 -31.0 Q1.1 -31.35 2.05 -30.35" fill="#528229" fill-rule="evenodd" stroke="none"/>
      <path d="M2.05 -30.35 Q1.1 -31.35 2.5 -31.0 L3.45 -29.4 Q2.8 -30.05 2.15 -30.3 L2.05 -30.35 M2.75 -28.85 Q1.8 -29.2 1.8 -29.8 L2.15 -30.3 Q2.8 -30.05 3.45 -29.4 L2.75 -28.85" fill="#42651b" fill-rule="evenodd" stroke="none"/>
      <path d="M1.4 -31.85 L0.55 -31.55 Q0.2 -31.3 1.05 -30.5 0.05 -29.85 0.45 -29.4 0.75 -29.2 1.1 -29.1 0.85 -28.1 1.5 -27.95 -0.45 -26.8 -1.55 -26.7 L-3.65 -27.1 Q-4.35 -27.7 -4.4 -28.55 -4.5 -29.35 -4.05 -30.05 L-3.7 -30.55 -3.8 -31.3 -3.6 -32.3 Q-3.3 -32.9 -2.35 -32.95 -1.4 -33.1 0.65 -32.2 L1.4 -31.85" fill="url(#decoration228-gradient29)" fill-rule="evenodd" stroke="none"/>
      <path d="M1.05 -30.5 L1.55 -30.5 2.05 -30.35 M2.5 -31.0 L1.4 -31.85 0.65 -32.2 Q-1.4 -33.1 -2.35 -32.95 -3.3 -32.9 -3.6 -32.3 L-3.8 -31.3 -3.7 -30.55 -4.05 -30.05 Q-4.5 -29.35 -4.4 -28.55 -4.35 -27.7 -3.65 -27.1 L-1.55 -26.7 Q-0.45 -26.8 1.5 -27.95 L2.75 -28.85 3.45 -29.4 Q2.8 -30.05 2.15 -30.3 M3.45 -29.4 L2.5 -31.0" fill="none" stroke="#000000" stroke-linecap="round" stroke-linejoin="round" stroke-opacity="0.29803923" stroke-width="0.2"/>
      <path d="M2.15 -30.3 L2.05 -30.35" fill="none" stroke="#000000" stroke-linecap="round" stroke-linejoin="round" stroke-opacity="0.29803923" stroke-width="0.1"/>
      <path d="M4.75 -30.7 L5.75 -31.2 4.75 -30.7 Q5.55 -32.0 4.2 -31.25 L5.15 -32.3 6.05 -32.3 Q6.55 -32.2 5.75 -31.2 7.15 -30.8 6.75 -30.3 L6.2 -29.8 Q6.7 -28.9 6.05 -28.55 L4.45 -29.1 Q5.35 -29.7 5.2 -30.25 L4.7 -30.65 4.75 -30.7" fill="#528229" fill-rule="evenodd" stroke="none"/>
      <path d="M4.75 -30.7 L4.7 -30.65 5.2 -30.25 Q5.35 -29.7 4.45 -29.1 L3.5 -29.35 4.7 -30.65 3.5 -29.35 Q3.65 -30.4 4.2 -31.25 5.55 -32.0 4.75 -30.7" fill="#42651b" fill-rule="evenodd" stroke="none"/>
      <path d="M6.05 -28.55 Q6.7 -28.9 6.2 -29.8 L6.75 -30.3 Q7.15 -30.8 5.75 -31.2 6.55 -32.2 6.05 -32.3 L5.15 -32.3 5.8 -32.9 Q7.75 -34.45 8.85 -34.55 9.85 -34.7 10.4 -34.2 L11.0 -33.15 10.95 -32.55 Q12.15 -31.5 12.2 -30.8 12.35 -30.0 11.85 -29.3 11.25 -28.6 9.65 -28.25 L6.05 -28.55" fill="url(#decoration228-gradient30)" fill-rule="evenodd" stroke="none"/>
      <path d="M5.75 -31.2 L4.75 -30.7 4.7 -30.65 3.5 -29.35 Q3.65 -30.4 4.2 -31.25 L5.15 -32.3 5.8 -32.9 Q7.75 -34.45 8.85 -34.55 9.85 -34.7 10.4 -34.2 L11.0 -33.15 10.95 -32.55 Q12.15 -31.5 12.2 -30.8 12.35 -30.0 11.85 -29.3 11.25 -28.6 9.65 -28.25 L6.05 -28.55 4.45 -29.1 3.5 -29.35" fill="none" stroke="#000000" stroke-linecap="round" stroke-linejoin="round" stroke-opacity="0.29803923" stroke-width="0.2"/>
      <path d="M-20.0 -15.85 L-19.9 -16.45 Q-19.05 -16.0 -18.85 -16.95 L-18.85 -17.7 -18.75 -17.7 -18.3 -17.0 -18.75 -17.7 Q-17.95 -17.45 -18.0 -18.0 L-18.1 -18.9 -17.6 -18.95 Q-17.1 -17.65 -17.7 -17.2 L-18.3 -17.0 Q-18.6 -15.35 -19.4 -15.55 L-20.0 -15.85" fill="#528229" fill-rule="evenodd" stroke="none"/>
      <path d="M-19.9 -16.45 L-19.4 -19.3 -18.1 -18.9 -18.0 -18.0 Q-17.95 -17.45 -18.75 -17.7 L-18.85 -17.7 -18.85 -16.95 Q-19.05 -16.0 -19.9 -16.45 M-19.4 -19.3 L-18.85 -17.7 -19.4 -19.3" fill="#42651b" fill-rule="evenodd" stroke="none"/>
      <path d="M-17.6 -18.95 L-15.6 -18.95 Q-14.95 -18.85 -14.65 -18.2 -14.35 -17.6 -14.65 -16.75 -14.95 -16.0 -15.6 -15.5 -16.25 -15.05 -17.1 -14.75 L-17.6 -13.95 -18.3 -12.95 Q-18.95 -12.5 -19.6 -12.55 -20.25 -12.65 -20.45 -13.1 L-20.4 -14.45 -20.0 -15.85 -19.4 -15.55 Q-18.6 -15.35 -18.3 -17.0 L-17.7 -17.2 Q-17.1 -17.65 -17.6 -18.95 M-17.9 -16.5 L-18.3 -17.0 -17.9 -16.5" fill="url(#decoration228-gradient31)" fill-rule="evenodd" stroke="none"/>
      <path d="M-17.6 -18.95 L-15.6 -18.95 Q-14.95 -18.85 -14.65 -18.2 -14.35 -17.6 -14.65 -16.75 -14.95 -16.0 -15.6 -15.5 -16.25 -15.05 -17.1 -14.75 L-17.6 -13.95 -18.3 -12.95 Q-18.95 -12.5 -19.6 -12.55 -20.25 -12.65 -20.45 -13.1 L-20.4 -14.45 -20.0 -15.85 -19.9 -16.45 -19.4 -19.3 -18.1 -18.9 -17.6 -18.95 M-18.3 -17.0 L-17.9 -16.5 M-18.3 -17.0 L-18.75 -17.7 M-18.85 -17.7 L-19.4 -19.3" fill="none" stroke="#000000" stroke-linecap="round" stroke-linejoin="round" stroke-opacity="0.29803923" stroke-width="0.2"/>
      <path d="M-18.7 -21.4 L-18.8 -20.8 Q-19.65 -21.25 -19.85 -20.3 L-19.85 -19.55 -19.95 -19.55 -20.4 -20.25 -19.95 -19.55 Q-20.75 -19.8 -20.7 -19.25 -20.5 -18.65 -20.6 -18.35 L-21.1 -18.3 Q-21.6 -19.6 -21.0 -20.05 L-20.4 -20.25 Q-20.1 -21.9 -19.3 -21.7 L-18.7 -21.4" fill="#528229" fill-rule="evenodd" stroke="none"/>
      <path d="M-18.8 -20.8 L-19.3 -17.95 -20.6 -18.35 Q-20.5 -18.65 -20.7 -19.25 -20.75 -19.8 -19.95 -19.55 L-19.85 -19.55 -19.85 -20.3 Q-19.65 -21.25 -18.8 -20.8 M-19.3 -17.95 Q-19.5 -18.85 -19.85 -19.55 -19.5 -18.85 -19.3 -17.95" fill="#42651b" fill-rule="evenodd" stroke="none"/>
      <path d="M-21.1 -18.3 L-23.1 -18.3 Q-23.75 -18.4 -24.05 -19.05 -24.35 -19.65 -24.05 -20.5 L-23.1 -21.75 -21.6 -22.5 -21.1 -23.3 -20.4 -24.3 -19.1 -24.7 Q-18.45 -24.6 -18.25 -24.15 -18.05 -23.65 -18.3 -22.8 L-18.7 -21.4 -19.3 -21.7 Q-20.1 -21.9 -20.4 -20.25 L-21.0 -20.05 Q-21.6 -19.6 -21.1 -18.3 M-20.8 -20.75 L-20.4 -20.25 -20.8 -20.75" fill="url(#decoration228-gradient32)" fill-rule="evenodd" stroke="none"/>
      <path d="M-21.1 -18.3 L-23.1 -18.3 Q-23.75 -18.4 -24.05 -19.05 -24.35 -19.65 -24.05 -20.5 L-23.1 -21.75 -21.6 -22.5 -21.1 -23.3 -20.4 -24.3 -19.1 -24.7 Q-18.45 -24.6 -18.25 -24.15 -18.05 -23.65 -18.3 -22.8 L-18.7 -21.4 -18.8 -20.8 -19.3 -17.95 -20.6 -18.35 -21.1 -18.3 M-20.4 -20.25 L-20.8 -20.75 M-20.4 -20.25 L-19.95 -19.55 M-19.85 -19.55 Q-19.5 -18.85 -19.3 -17.95" fill="none" stroke="#000000" stroke-linecap="round" stroke-linejoin="round" stroke-opacity="0.29803923" stroke-width="0.2"/>
      <path d="M-20.4 -18.15 L-20.8 -18.0 -21.1 -17.8 -20.8 -18.0 -20.4 -18.15 -20.3 -18.15 -20.35 -17.55 Q-20.1 -17.05 -19.35 -17.2 L-19.85 -15.8 Q-20.35 -15.6 -20.6 -16.6 L-21.1 -16.55 Q-21.55 -16.7 -21.1 -17.8 -22.0 -18.05 -21.85 -18.45 L-21.45 -19.1 -20.35 -18.95 Q-21.45 -18.55 -20.4 -18.15" fill="#528229" fill-rule="evenodd" stroke="none"/>
      <path d="M-20.4 -18.15 Q-21.45 -18.55 -20.35 -18.95 L-19.1 -18.05 -20.3 -18.15 -20.4 -18.15 M-19.35 -17.2 Q-20.1 -17.05 -20.35 -17.55 L-20.3 -18.15 -19.1 -18.05 -19.35 -17.2" fill="#42651b" fill-rule="evenodd" stroke="none"/>
      <path d="M-21.45 -19.1 L-21.85 -18.45 Q-22.0 -18.05 -21.1 -17.8 -21.55 -16.7 -21.1 -16.55 L-20.6 -16.6 Q-20.35 -15.6 -19.85 -15.8 -20.7 -13.8 -21.4 -13.2 -22.4 -12.4 -22.95 -12.5 -23.6 -12.65 -24.0 -13.35 -24.4 -14.0 -24.35 -14.85 L-24.3 -15.45 -24.65 -16.05 -24.9 -17.0 Q-24.95 -17.7 -24.35 -18.2 -23.75 -18.8 -22.05 -19.05 L-21.45 -19.1" fill="url(#decoration228-gradient33)" fill-rule="evenodd" stroke="none"/>
      <path d="M-21.1 -17.8 L-20.8 -18.0 -20.4 -18.15 M-20.35 -18.95 L-21.45 -19.1 -22.05 -19.05 Q-23.75 -18.8 -24.35 -18.2 -24.95 -17.7 -24.9 -17.0 L-24.65 -16.05 -24.3 -15.45 -24.35 -14.85 Q-24.4 -14.0 -24.0 -13.35 -23.6 -12.65 -22.95 -12.5 -22.4 -12.4 -21.4 -13.2 -20.7 -13.8 -19.85 -15.8 L-19.35 -17.2 -19.1 -18.05 -20.3 -18.15 M-19.1 -18.05 L-20.35 -18.95" fill="none" stroke="#000000" stroke-linecap="round" stroke-linejoin="round" stroke-opacity="0.29803923" stroke-width="0.2"/>
      <path d="M-20.3 -18.15 L-20.4 -18.15" fill="none" stroke="#000000" stroke-linecap="round" stroke-linejoin="round" stroke-opacity="0.29803923" stroke-width="0.1"/>
      <path d="M-19.1 -21.4 L-18.5 -21.85 Q-18.15 -22.0 -18.25 -20.75 -17.2 -21.1 -17.25 -20.45 L-17.45 -19.75 Q-16.75 -19.25 -17.05 -18.6 L-18.3 -18.25 Q-17.95 -19.25 -18.3 -19.65 L-18.75 -19.75 -18.75 -19.8 Q-18.7 -21.3 -19.3 -20.0 L-19.1 -21.4 M-18.25 -20.75 L-18.75 -19.8 -18.25 -20.75" fill="#528229" fill-rule="evenodd" stroke="none"/>
      <path d="M-19.3 -20.0 Q-18.7 -21.3 -18.75 -19.8 L-18.75 -19.75 -19.05 -18.05 -18.75 -19.75 -18.3 -19.65 Q-17.95 -19.25 -18.3 -18.25 L-19.05 -18.05 Q-19.35 -19.0 -19.3 -20.0" fill="#42651b" fill-rule="evenodd" stroke="none"/>
      <path d="M-17.05 -18.6 Q-16.75 -19.25 -17.45 -19.75 L-17.25 -20.45 Q-17.2 -21.1 -18.25 -20.75 -18.15 -22.0 -18.5 -21.85 L-19.1 -21.4 -18.9 -22.25 Q-18.15 -24.55 -17.5 -25.2 -16.9 -25.8 -16.35 -25.65 L-15.55 -25.05 -15.35 -24.5 Q-14.15 -24.2 -13.85 -23.65 -13.45 -23.0 -13.5 -22.1 -13.6 -21.25 -14.55 -20.1 -15.2 -19.3 -17.05 -18.6" fill="url(#decoration228-gradient34)" fill-rule="evenodd" stroke="none"/>
      <path d="M-17.05 -18.6 Q-15.2 -19.3 -14.55 -20.1 -13.6 -21.25 -13.5 -22.1 -13.45 -23.0 -13.85 -23.65 -14.15 -24.2 -15.35 -24.5 L-15.55 -25.05 -16.35 -25.65 Q-16.9 -25.8 -17.5 -25.2 -18.15 -24.55 -18.9 -22.25 L-19.1 -21.4 -19.3 -20.0 Q-19.35 -19.0 -19.05 -18.05 L-18.75 -19.75 -18.75 -19.8 -18.25 -20.75 M-19.05 -18.05 L-18.3 -18.25 -17.05 -18.6" fill="none" stroke="#000000" stroke-linecap="round" stroke-linejoin="round" stroke-opacity="0.29803923" stroke-width="0.2"/>
    </g>
    <linearGradient gradientTransform="matrix(-6.0E-4, 0.0014, 0.0019, 0.0013, 19.1, -22.75)" gradientUnits="userSpaceOnUse" id="decoration228-gradient0" spreadMethod="pad" x1="-819.2" x2="819.2">
      <stop offset="0.0" stop-color="#42651b"/>
      <stop offset="1.0" stop-color="#5f8b2b"/>
    </linearGradient>
    <linearGradient gradientTransform="matrix(6.0E-4, -0.0014, -0.0019, -0.0013, 22.6, -28.1)" gradientUnits="userSpaceOnUse" id="decoration228-gradient1" spreadMethod="pad" x1="-819.2" x2="819.2">
      <stop offset="0.0" stop-color="#42651b"/>
      <stop offset="1.0" stop-color="#5f8b2b"/>
    </linearGradient>
    <linearGradient gradientTransform="matrix(0.0016, 0.0015, -0.0018, 0.003, 23.5, -23.3)" gradientUnits="userSpaceOnUse" id="decoration228-gradient2" spreadMethod="pad" x1="-819.2" x2="819.2">
      <stop offset="0.0" stop-color="#42651b"/>
      <stop offset="1.0" stop-color="#5f8b2b"/>
    </linearGradient>
    <linearGradient gradientTransform="matrix(-0.0018, -0.0017, -0.0018, 0.003, 18.4, -28.25)" gradientUnits="userSpaceOnUse" id="decoration228-gradient3" spreadMethod="pad" x1="-819.2" x2="819.2">
      <stop offset="0.0" stop-color="#42651b"/>
      <stop offset="1.0" stop-color="#5f8b2b"/>
    </linearGradient>
    <radialGradient cx="0" cy="0" gradientTransform="matrix(-0.0012, -0.0049, 0.0044, -0.0013, -13.55, -26.2)" gradientUnits="userSpaceOnUse" id="decoration228-gradient4" r="819.2" spreadMethod="pad">
      <stop offset="0.054901960784313725" stop-color="#7a7300"/>
      <stop offset="0.3411764705882353" stop-color="#d0b279"/>
      <stop offset="0.9176470588235294" stop-color="#d77689"/>
    </radialGradient>
    <radialGradient cx="0" cy="0" gradientTransform="matrix(0.0046, 0.0, 0.0, 0.005, -13.8, -26.1)" gradientUnits="userSpaceOnUse" id="decoration228-gradient5" r="819.2" spreadMethod="pad">
      <stop offset="0.054901960784313725" stop-color="#7a7300"/>
      <stop offset="0.3411764705882353" stop-color="#d0b279"/>
      <stop offset="0.9176470588235294" stop-color="#d77689"/>
    </radialGradient>
    <radialGradient cx="0" cy="0" gradientTransform="matrix(0.0023, -0.0044, 0.0035, 0.0022, -13.25, -26.3)" gradientUnits="userSpaceOnUse" id="decoration228-gradient6" r="819.2" spreadMethod="pad">
      <stop offset="0.054901960784313725" stop-color="#7a7300"/>
      <stop offset="0.3411764705882353" stop-color="#d0b279"/>
      <stop offset="0.9176470588235294" stop-color="#d77689"/>
    </radialGradient>
    <radialGradient cx="0" cy="0" fx="96.0" fy="0" gradientTransform="matrix(-0.0021, 0.0041, -0.0037, -0.0023, -13.9, -26.45)" gradientUnits="userSpaceOnUse" id="decoration228-gradient7" r="819.2" spreadMethod="pad">
      <stop offset="0.054901960784313725" stop-color="#7a7300"/>
      <stop offset="0.3411764705882353" stop-color="#d0b279"/>
      <stop offset="0.9176470588235294" stop-color="#d77689"/>
    </radialGradient>
    <radialGradient cx="0" cy="0" gradientTransform="matrix(0.0058, 0.0, 0.0, 0.0042, -13.75, -25.75)" gradientUnits="userSpaceOnUse" id="decoration228-gradient8" r="819.2" spreadMethod="pad">
      <stop offset="0.054901960784313725" stop-color="#7a7300"/>
      <stop offset="0.3411764705882353" stop-color="#d0b279"/>
      <stop offset="0.9176470588235294" stop-color="#d77689"/>
    </radialGradient>
    <linearGradient gradientTransform="matrix(-9.0E-4, 0.0013, -0.0021, -9.0E-4, 18.95, -35.75)" gradientUnits="userSpaceOnUse" id="decoration228-gradient9" spreadMethod="pad" x1="-819.2" x2="819.2">
      <stop offset="0.0" stop-color="#42651b"/>
      <stop offset="1.0" stop-color="#5f8b2b"/>
    </linearGradient>
    <linearGradient gradientTransform="matrix(9.0E-4, -0.0013, 0.0021, 9.0E-4, 21.95, -41.25)" gradientUnits="userSpaceOnUse" id="decoration228-gradient10" spreadMethod="pad" x1="-819.2" x2="819.2">
      <stop offset="0.0" stop-color="#42651b"/>
      <stop offset="1.0" stop-color="#5f8b2b"/>
    </linearGradient>
    <linearGradient gradientTransform="matrix(-0.0021, -5.0E-4, -0.0017, 0.0031, 17.35, -39.6)" gradientUnits="userSpaceOnUse" id="decoration228-gradient11" spreadMethod="pad" x1="-819.2" x2="819.2">
      <stop offset="0.0" stop-color="#42651b"/>
      <stop offset="1.0" stop-color="#5f8b2b"/>
    </linearGradient>
    <linearGradient gradientTransform="matrix(0.0023, 6.0E-4, -0.0017, 0.0031, 24.05, -37.85)" gradientUnits="userSpaceOnUse" id="decoration228-gradient12" spreadMethod="pad" x1="-819.2" x2="819.2">
      <stop offset="0.0" stop-color="#42651b"/>
      <stop offset="1.0" stop-color="#5f8b2b"/>
    </linearGradient>
    <radialGradient cx="0" cy="0" gradientTransform="matrix(0.0012, -0.0049, -0.0044, -0.0013, 14.0, -29.9)" gradientUnits="userSpaceOnUse" id="decoration228-gradient13" r="819.2" spreadMethod="pad">
      <stop offset="0.054901960784313725" stop-color="#7a7300"/>
      <stop offset="0.3411764705882353" stop-color="#d0b279"/>
      <stop offset="0.9176470588235294" stop-color="#d77689"/>
    </radialGradient>
    <radialGradient cx="0" cy="0" gradientTransform="matrix(-0.0046, 0.0, 0.0, 0.005, 14.3, -29.8)" gradientUnits="userSpaceOnUse" id="decoration228-gradient14" r="819.2" spreadMethod="pad">
      <stop offset="0.054901960784313725" stop-color="#7a7300"/>
      <stop offset="0.3411764705882353" stop-color="#d0b279"/>
      <stop offset="0.9176470588235294" stop-color="#d77689"/>
    </radialGradient>
    <radialGradient cx="0" cy="0" gradientTransform="matrix(-0.0023, -0.0044, -0.0035, 0.0022, 13.7, -30.0)" gradientUnits="userSpaceOnUse" id="decoration228-gradient15" r="819.2" spreadMethod="pad">
      <stop offset="0.054901960784313725" stop-color="#7a7300"/>
      <stop offset="0.3411764705882353" stop-color="#d0b279"/>
      <stop offset="0.9176470588235294" stop-color="#d77689"/>
    </radialGradient>
    <radialGradient cx="0" cy="0" fx="96.0" fy="0" gradientTransform="matrix(0.0031, 0.0035, 0.0029, -0.0032, 13.9, -29.65)" gradientUnits="userSpaceOnUse" id="decoration228-gradient16" r="819.2" spreadMethod="pad">
      <stop offset="0.054901960784313725" stop-color="#7a7300"/>
      <stop offset="0.3411764705882353" stop-color="#d0b279"/>
      <stop offset="0.9176470588235294" stop-color="#d77689"/>
    </radialGradient>
    <radialGradient cx="0" cy="0" gradientTransform="matrix(-0.0056, 0.0015, 0.0011, 0.0041, 14.0, -30.0)" gradientUnits="userSpaceOnUse" id="decoration228-gradient17" r="819.2" spreadMethod="pad">
      <stop offset="0.054901960784313725" stop-color="#7a7300"/>
      <stop offset="0.3411764705882353" stop-color="#d0b279"/>
      <stop offset="0.9176470588235294" stop-color="#d77689"/>
    </radialGradient>
    <linearGradient gradientTransform="matrix(8.0E-4, 0.0014, -0.0024, 0.0013, -9.0, -32.2)" gradientUnits="userSpaceOnUse" id="decoration228-gradient18" spreadMethod="pad" x1="-819.2" x2="819.2">
      <stop offset="0.0" stop-color="#42651b"/>
      <stop offset="1.0" stop-color="#5f8b2b"/>
    </linearGradient>
    <linearGradient gradientTransform="matrix(-8.0E-4, -0.0014, 0.0024, -0.0013, -13.4, -37.55)" gradientUnits="userSpaceOnUse" id="decoration228-gradient19" spreadMethod="pad" x1="-819.2" x2="819.2">
      <stop offset="0.0" stop-color="#42651b"/>
      <stop offset="1.0" stop-color="#5f8b2b"/>
    </linearGradient>
    <linearGradient gradientTransform="matrix(-0.002, 0.0015, 0.0023, 0.003, -14.5, -32.75)" gradientUnits="userSpaceOnUse" id="decoration228-gradient20" spreadMethod="pad" x1="-819.2" x2="819.2">
      <stop offset="0.0" stop-color="#42651b"/>
      <stop offset="1.0" stop-color="#5f8b2b"/>
    </linearGradient>
    <linearGradient gradientTransform="matrix(0.0022, -0.0017, 0.0023, 0.003, -8.1, -37.7)" gradientUnits="userSpaceOnUse" id="decoration228-gradient21" spreadMethod="pad" x1="-819.2" x2="819.2">
      <stop offset="0.0" stop-color="#42651b"/>
      <stop offset="1.0" stop-color="#5f8b2b"/>
    </linearGradient>
    <radialGradient cx="0" cy="0" gradientTransform="matrix(-0.001, -0.0037, 0.0037, -0.001, -5.1, -30.1)" gradientUnits="userSpaceOnUse" id="decoration228-gradient22" r="819.2" spreadMethod="pad">
      <stop offset="0.054901960784313725" stop-color="#7a7300"/>
      <stop offset="0.3411764705882353" stop-color="#d0b279"/>
      <stop offset="0.9176470588235294" stop-color="#d77689"/>
    </radialGradient>
    <radialGradient cx="0" cy="0" gradientTransform="matrix(0.0038, 0.0, 0.0, 0.0039, -5.35, -30.05)" gradientUnits="userSpaceOnUse" id="decoration228-gradient23" r="819.2" spreadMethod="pad">
      <stop offset="0.054901960784313725" stop-color="#7a7300"/>
      <stop offset="0.3411764705882353" stop-color="#d0b279"/>
      <stop offset="0.9176470588235294" stop-color="#d77689"/>
    </radialGradient>
    <radialGradient cx="0" cy="0" gradientTransform="matrix(0.0019, -0.0033, 0.0029, 0.0017, -4.85, -30.15)" gradientUnits="userSpaceOnUse" id="decoration228-gradient24" r="819.2" spreadMethod="pad">
      <stop offset="0.054901960784313725" stop-color="#7a7300"/>
      <stop offset="0.3411764705882353" stop-color="#d0b279"/>
      <stop offset="0.9176470588235294" stop-color="#d77689"/>
    </radialGradient>
    <radialGradient cx="0" cy="0" fx="96.0" fy="0" gradientTransform="matrix(-0.0026, 0.0026, -0.0025, -0.0025, -5.05, -29.95)" gradientUnits="userSpaceOnUse" id="decoration228-gradient25" r="819.2" spreadMethod="pad">
      <stop offset="0.054901960784313725" stop-color="#7a7300"/>
      <stop offset="0.3411764705882353" stop-color="#d0b279"/>
      <stop offset="0.9176470588235294" stop-color="#d77689"/>
    </radialGradient>
    <radialGradient cx="0" cy="0" gradientTransform="matrix(0.0049, 0.0, 0.0, 0.0032, -5.3, -29.75)" gradientUnits="userSpaceOnUse" id="decoration228-gradient26" r="819.2" spreadMethod="pad">
      <stop offset="0.054901960784313725" stop-color="#7a7300"/>
      <stop offset="0.3411764705882353" stop-color="#d0b279"/>
      <stop offset="0.9176470588235294" stop-color="#d77689"/>
    </radialGradient>
    <linearGradient gradientTransform="matrix(0.0, 0.0016, -0.0027, 0.0, 4.05, -26.7)" gradientUnits="userSpaceOnUse" id="decoration228-gradient27" spreadMethod="pad" x1="-819.2" x2="819.2">
      <stop offset="0.0" stop-color="#42651b"/>
      <stop offset="1.0" stop-color="#5f8b2b"/>
    </linearGradient>
    <linearGradient gradientTransform="matrix(0.0, -0.0016, 0.0027, 0.0, 2.9, -33.5)" gradientUnits="userSpaceOnUse" id="decoration228-gradient28" spreadMethod="pad" x1="-819.2" x2="819.2">
      <stop offset="0.0" stop-color="#42651b"/>
      <stop offset="1.0" stop-color="#5f8b2b"/>
    </linearGradient>
    <linearGradient gradientTransform="matrix(-0.0025, 3.0E-4, 5.0E-4, 0.0038, -0.45, -29.9)" gradientUnits="userSpaceOnUse" id="decoration228-gradient29" spreadMethod="pad" x1="-819.2" x2="819.2">
      <stop offset="0.0" stop-color="#42651b"/>
      <stop offset="1.0" stop-color="#5f8b2b"/>
    </linearGradient>
    <linearGradient gradientTransform="matrix(0.0027, -4.0E-4, 5.0E-4, 0.0038, 7.55, -31.0)" gradientUnits="userSpaceOnUse" id="decoration228-gradient30" spreadMethod="pad" x1="-819.2" x2="819.2">
      <stop offset="0.0" stop-color="#42651b"/>
      <stop offset="1.0" stop-color="#5f8b2b"/>
    </linearGradient>
    <linearGradient gradientTransform="matrix(6.0E-4, 0.0014, -0.0018, 0.0013, -17.65, -15.95)" gradientUnits="userSpaceOnUse" id="decoration228-gradient31" spreadMethod="pad" x1="-819.2" x2="819.2">
      <stop offset="0.0" stop-color="#42651b"/>
      <stop offset="1.0" stop-color="#5f8b2b"/>
    </linearGradient>
    <linearGradient gradientTransform="matrix(-6.0E-4, -0.0014, 0.0018, -0.0013, -21.05, -21.3)" gradientUnits="userSpaceOnUse" id="decoration228-gradient32" spreadMethod="pad" x1="-819.2" x2="819.2">
      <stop offset="0.0" stop-color="#42651b"/>
      <stop offset="1.0" stop-color="#5f8b2b"/>
    </linearGradient>
    <linearGradient gradientTransform="matrix(-0.0015, 0.0015, 0.0018, 0.003, -21.9, -16.5)" gradientUnits="userSpaceOnUse" id="decoration228-gradient33" spreadMethod="pad" x1="-819.2" x2="819.2">
      <stop offset="0.0" stop-color="#42651b"/>
      <stop offset="1.0" stop-color="#5f8b2b"/>
    </linearGradient>
    <linearGradient gradientTransform="matrix(0.0017, -0.0017, 0.0018, 0.003, -17.0, -21.45)" gradientUnits="userSpaceOnUse" id="decoration228-gradient34" spreadMethod="pad" x1="-819.2" x2="819.2">
      <stop offset="0.0" stop-color="#42651b"/>
      <stop offset="1.0" stop-color="#5f8b2b"/>
    </linearGradient>
  </defs>
</svg>
