<?xml version="1.0" encoding="UTF-8" standalone="no"?>
<svg xmlns:xlink="http://www.w3.org/1999/xlink" height="57.15px" width="55.1px" xmlns="http://www.w3.org/2000/svg">
  <g transform="matrix(1.0, 0.0, 0.0, 1.0, 27.35, 56.95)">
    <use height="57.15" transform="matrix(1.0, 0.0, 0.0, 1.0, -27.35, -56.95)" width="55.1" xlink:href="#decoration229-shape0"/>
  </g>
  <defs>
    <g id="decoration229-shape0" transform="matrix(1.0, 0.0, 0.0, 1.0, 27.35, 56.95)">
      <path d="M21.45 -46.0 L16.55 -44.8 0.7 -44.15 -12.8 -44.75 -17.4 -45.65 -21.45 -46.65 Q-16.95 -48.65 -4.45 -49.55 8.1 -50.4 21.45 -46.0" fill="#2a2725" fill-rule="evenodd" stroke="none"/>
      <path d="M16.9 -11.85 L16.85 -11.75 16.8 -11.75 16.9 -11.85" fill="#22201f" fill-rule="evenodd" stroke="none"/>
      <path d="M-23.2 -48.5 L-23.25 -48.85 -23.25 -49.0 Q-23.35 -50.85 -16.15 -52.2 -8.8 -53.55 1.5 -53.4 11.9 -53.25 18.3 -51.45 24.75 -49.75 24.85 -47.9 23.85 -46.8 21.45 -46.0 8.1 -50.4 -4.45 -49.55 -16.95 -48.65 -21.45 -46.65 -22.9 -47.55 -23.2 -48.5" fill="#332e2b" fill-rule="evenodd" stroke="none"/>
      <path d="M-23.2 -48.5 L-23.25 -48.85 -23.25 -49.0 Q-23.35 -50.85 -16.15 -52.2 -8.8 -53.55 1.5 -53.4 11.9 -53.25 18.3 -51.45 24.75 -49.75 24.85 -47.9 M21.45 -46.0 Q8.1 -50.4 -4.45 -49.55 -16.95 -48.65 -21.45 -46.65" fill="none" stroke="#000000" stroke-linecap="round" stroke-linejoin="round" stroke-opacity="0.29803923" stroke-width="0.1"/>
      <path d="M-19.85 -48.6 L-19.1 -47.7 -17.2 -46.75 Q-16.9 -46.55 -16.5 -46.45 L-13.95 -45.95 Q-12.9 -46.05 -11.95 -46.45 L-12.55 -44.7 Q-13.1 -44.2 -13.75 -44.1 L-17.1 -44.3 Q-18.3 -44.6 -19.65 -45.55 L-20.4 -46.45 -19.85 -48.6" fill="#a05939" fill-rule="evenodd" stroke="none"/>
      <path d="M-19.85 -48.6 L-19.85 -49.2 Q-19.65 -49.85 -18.5 -50.15 L-17.65 -50.25 Q-15.75 -48.1 -17.2 -46.75 L-19.1 -47.7 -19.85 -48.6 M-14.45 -49.55 Q-12.6 -48.7 -12.15 -47.7 -11.65 -46.95 -11.95 -46.45 -12.9 -46.05 -13.95 -45.95 -15.3 -48.0 -14.45 -49.55" fill="#ffcc4d" fill-rule="evenodd" stroke="none"/>
      <path d="M-17.2 -46.75 Q-15.75 -48.1 -17.65 -50.25 L-15.75 -49.95 -14.45 -49.55 Q-15.3 -48.0 -13.95 -45.95 L-16.5 -46.45 Q-16.9 -46.55 -17.2 -46.75" fill="#fff9ec" fill-rule="evenodd" stroke="none"/>
      <path d="M-17.65 -50.25 L-18.5 -50.15 Q-19.65 -49.85 -19.85 -49.2 L-19.85 -48.6 M-17.65 -50.25 L-15.75 -49.95 -14.45 -49.55 Q-12.6 -48.7 -12.15 -47.7 -11.65 -46.95 -11.95 -46.45 L-12.55 -44.7 Q-13.1 -44.2 -13.75 -44.1 L-17.1 -44.3 Q-18.3 -44.6 -19.65 -45.55 L-20.4 -46.45 -19.85 -48.6" fill="none" stroke="#000000" stroke-linecap="round" stroke-linejoin="round" stroke-opacity="0.4" stroke-width="0.05"/>
      <path d="M-4.25 -46.25 L-5.1 -44.5 Q-5.8 -44.1 -6.45 -44.0 -7.8 -43.9 -9.7 -44.7 -10.9 -45.2 -12.05 -46.15 L-12.8 -47.15 -12.05 -49.1 -11.3 -48.1 -9.5 -47.05 Q-9.3 -46.85 -8.9 -46.75 -7.8 -46.05 -6.35 -45.95 L-4.25 -46.25" fill="#a05939" fill-rule="evenodd" stroke="none"/>
      <path d="M-4.25 -46.25 L-6.35 -45.95 Q-7.6 -48.1 -6.55 -49.45 -4.75 -48.6 -4.35 -47.4 -4.0 -46.65 -4.25 -46.25 M-9.5 -47.05 L-11.3 -48.1 -12.05 -49.1 -11.95 -49.75 Q-11.65 -50.35 -10.45 -50.55 L-9.6 -50.45 Q-7.95 -48.3 -9.5 -47.05" fill="#ffcc4d" fill-rule="evenodd" stroke="none"/>
      <path d="M-6.35 -45.95 Q-7.8 -46.05 -8.9 -46.75 -9.3 -46.85 -9.5 -47.05 -7.95 -48.3 -9.6 -50.45 L-7.8 -50.05 -6.55 -49.45 Q-7.6 -48.1 -6.35 -45.95" fill="#fff9ec" fill-rule="evenodd" stroke="none"/>
      <path d="M-12.05 -49.1 L-12.8 -47.15 -12.05 -46.15 Q-10.9 -45.2 -9.7 -44.7 -7.8 -43.9 -6.45 -44.0 -5.8 -44.1 -5.1 -44.5 L-4.25 -46.25 M-12.05 -49.1 L-11.95 -49.75 Q-11.65 -50.35 -10.45 -50.55 L-9.6 -50.45 -7.8 -50.05 -6.55 -49.45 Q-4.75 -48.6 -4.35 -47.4 -4.0 -46.65 -4.25 -46.25" fill="none" stroke="#000000" stroke-linecap="round" stroke-linejoin="round" stroke-opacity="0.4" stroke-width="0.05"/>
      <path d="M-8.75 -50.55 L-9.15 -49.15 -9.2 -49.0 Q-9.75 -48.4 -10.45 -48.2 L-14.15 -48.0 Q-15.4 -48.0 -16.8 -48.7 L-17.55 -49.15 -17.75 -49.3 -17.45 -51.25 -16.5 -50.55 -14.45 -49.85 -13.65 -49.85 -10.9 -49.75 Q-9.85 -49.95 -8.75 -50.55" fill="#a05939" fill-rule="evenodd" stroke="none"/>
      <path d="M-17.45 -51.25 L-17.55 -51.7 Q-17.45 -52.4 -16.4 -52.8 L-15.4 -53.0 Q-13.3 -51.3 -14.45 -49.85 L-16.5 -50.55 -17.45 -51.25 M-12.15 -52.9 Q-9.95 -52.5 -9.2 -51.5 -8.65 -51.05 -8.75 -50.55 -9.85 -49.95 -10.9 -49.75 -12.8 -51.3 -12.15 -52.9" fill="#ffcc4d" fill-rule="evenodd" stroke="none"/>
      <path d="M-15.4 -53.0 L-13.5 -53.1 -12.15 -52.9 Q-12.8 -51.3 -10.9 -49.75 L-13.65 -49.85 -14.45 -49.85 Q-13.3 -51.3 -15.4 -53.0" fill="#fff9ec" fill-rule="evenodd" stroke="none"/>
      <path d="M-17.45 -51.25 L-17.55 -51.7 Q-17.45 -52.4 -16.4 -52.8 L-15.4 -53.0 -13.5 -53.1 -12.15 -52.9 Q-9.95 -52.5 -9.2 -51.5 -8.65 -51.05 -8.75 -50.55 L-9.15 -49.15 -9.2 -49.0 Q-9.75 -48.4 -10.45 -48.2 L-14.15 -48.0 Q-15.4 -48.0 -16.8 -48.7 L-17.55 -49.15 -17.75 -49.3 -17.45 -51.25 Z" fill="none" stroke="#000000" stroke-linecap="round" stroke-linejoin="round" stroke-opacity="0.4" stroke-width="0.05"/>
      <path d="M1.25 -47.25 L1.9 -46.55 Q2.55 -45.65 2.2 -45.0 L1.7 -44.7 0.65 -44.5 -1.4 -45.1 Q-1.8 -46.75 1.25 -47.25 M-6.05 -48.3 Q-5.8 -48.8 -5.0 -49.1 L-1.7 -48.7 Q-2.15 -47.15 -4.65 -46.75 L-6.05 -48.3" fill="#ffcc4d" fill-rule="evenodd" stroke="none"/>
      <path d="M-1.7 -48.7 L-0.45 -48.2 1.25 -47.25 Q-1.8 -46.75 -1.4 -45.1 -1.9 -45.1 -2.25 -45.4 -3.5 -45.75 -4.65 -46.75 -2.15 -47.15 -1.7 -48.7" fill="#fff9ec" fill-rule="evenodd" stroke="none"/>
      <path d="M1.7 -44.7 L0.85 -42.85 -0.35 -42.85 -2.85 -43.5 Q-5.1 -44.5 -5.95 -45.55 L-6.75 -46.85 -6.05 -48.3 -4.65 -46.75 Q-3.5 -45.75 -2.25 -45.4 -1.9 -45.1 -1.4 -45.1 L0.65 -44.5 1.7 -44.7" fill="#a05939" fill-rule="evenodd" stroke="none"/>
      <path d="M-1.7 -48.7 L-0.45 -48.2 1.25 -47.25 1.9 -46.55 Q2.55 -45.65 2.2 -45.0 L1.7 -44.7 0.85 -42.85 -0.35 -42.85 -2.85 -43.5 Q-5.1 -44.5 -5.95 -45.55 L-6.75 -46.85 -6.05 -48.3 Q-5.8 -48.8 -5.0 -49.1 L-1.7 -48.7 Z" fill="none" stroke="#000000" stroke-linecap="round" stroke-linejoin="round" stroke-opacity="0.4" stroke-width="0.05"/>
      <path d="M1.5 -46.75 Q1.8 -46.55 2.2 -46.45 3.4 -45.95 4.75 -45.95 L6.75 -46.45 6.15 -44.7 Q5.6 -44.2 4.95 -44.1 L1.6 -44.3 Q0.4 -44.6 -0.95 -45.55 L-1.7 -46.45 -1.15 -48.6 -0.4 -47.7 1.5 -46.75" fill="#a05939" fill-rule="evenodd" stroke="none"/>
      <path d="M4.75 -45.95 Q3.4 -45.95 2.2 -46.45 1.8 -46.55 1.5 -46.75 2.95 -48.1 1.05 -50.25 L2.95 -49.95 4.25 -49.55 Q3.4 -48.0 4.75 -45.95" fill="#fff9ec" fill-rule="evenodd" stroke="none"/>
      <path d="M1.5 -46.75 L-0.4 -47.7 -1.15 -48.6 -1.15 -49.2 Q-0.95 -49.85 0.2 -50.15 L1.05 -50.25 Q2.95 -48.1 1.5 -46.75 M6.75 -46.45 L4.75 -45.95 Q3.4 -48.0 4.25 -49.55 6.1 -48.7 6.55 -47.7 7.05 -46.95 6.75 -46.45" fill="#ffcc4d" fill-rule="evenodd" stroke="none"/>
      <path d="M-1.15 -48.6 L-1.7 -46.45 -0.95 -45.55 Q0.4 -44.6 1.6 -44.3 L4.95 -44.1 Q5.6 -44.2 6.15 -44.7 L6.75 -46.45 Q7.05 -46.95 6.55 -47.7 6.1 -48.7 4.25 -49.55 L2.95 -49.95 1.05 -50.25 0.2 -50.15 Q-0.95 -49.85 -1.15 -49.2 L-1.15 -48.6 Z" fill="none" stroke="#000000" stroke-linecap="round" stroke-linejoin="round" stroke-opacity="0.4" stroke-width="0.05"/>
      <path d="M14.45 -46.25 L13.6 -44.5 12.25 -44.0 Q10.9 -43.9 9.0 -44.7 L6.65 -46.15 5.9 -47.15 6.65 -49.1 7.4 -48.1 9.2 -47.05 Q9.4 -46.85 9.8 -46.75 10.9 -46.05 12.35 -45.95 L14.45 -46.25" fill="#a05939" fill-rule="evenodd" stroke="none"/>
      <path d="M14.45 -46.25 L12.35 -45.95 Q11.1 -48.1 12.15 -49.45 13.95 -48.6 14.35 -47.4 14.7 -46.65 14.45 -46.25 M9.2 -47.05 L7.4 -48.1 6.65 -49.1 6.75 -49.75 Q7.05 -50.35 8.25 -50.55 L9.1 -50.45 Q10.75 -48.3 9.2 -47.05" fill="#ffcc4d" fill-rule="evenodd" stroke="none"/>
      <path d="M12.35 -45.95 Q10.9 -46.05 9.8 -46.75 9.4 -46.85 9.2 -47.05 10.75 -48.3 9.1 -50.45 L10.9 -50.05 12.15 -49.45 Q11.1 -48.1 12.35 -45.95" fill="#fff9ec" fill-rule="evenodd" stroke="none"/>
      <path d="M6.65 -49.1 L5.9 -47.15 6.65 -46.15 9.0 -44.7 Q10.9 -43.9 12.25 -44.0 L13.6 -44.5 14.45 -46.25 M6.65 -49.1 L6.75 -49.75 Q7.05 -50.35 8.25 -50.55 L9.1 -50.45 10.9 -50.05 12.15 -49.45 Q13.95 -48.6 14.35 -47.4 14.7 -46.65 14.45 -46.25" fill="none" stroke="#000000" stroke-linecap="round" stroke-linejoin="round" stroke-opacity="0.4" stroke-width="0.05"/>
      <path d="M1.25 -51.25 L1.15 -51.7 Q1.25 -52.4 2.3 -52.8 L3.3 -53.0 Q5.4 -51.3 4.25 -49.85 L2.2 -50.55 1.25 -51.25 M6.55 -52.9 Q8.75 -52.5 9.5 -51.5 10.05 -51.05 9.95 -50.55 8.85 -49.95 7.8 -49.75 5.9 -51.3 6.55 -52.9" fill="#ffcc4d" fill-rule="evenodd" stroke="none"/>
      <path d="M9.95 -50.55 L9.5 -49.0 8.25 -48.2 4.55 -48.0 Q3.3 -48.0 1.9 -48.7 1.25 -49.0 0.95 -49.3 L1.25 -51.25 2.2 -50.55 4.25 -49.85 5.05 -49.85 7.8 -49.75 Q8.85 -49.95 9.95 -50.55" fill="#a05939" fill-rule="evenodd" stroke="none"/>
      <path d="M3.3 -53.0 L5.2 -53.1 6.55 -52.9 Q5.9 -51.3 7.8 -49.75 L5.05 -49.85 4.25 -49.85 Q5.4 -51.3 3.3 -53.0" fill="#fff9ec" fill-rule="evenodd" stroke="none"/>
      <path d="M1.25 -51.25 L1.15 -51.7 Q1.25 -52.4 2.3 -52.8 L3.3 -53.0 5.2 -53.1 6.55 -52.9 Q8.75 -52.5 9.5 -51.5 10.05 -51.05 9.95 -50.55 L9.5 -49.0 8.25 -48.2 4.55 -48.0 Q3.3 -48.0 1.9 -48.7 1.25 -49.0 0.95 -49.3 L1.25 -51.25 Z" fill="none" stroke="#000000" stroke-linecap="round" stroke-linejoin="round" stroke-opacity="0.4" stroke-width="0.05"/>
      <path d="M9.25 -44.3 Q9.05 -44.2 7.8 -44.75 6.55 -45.3 5.85 -45.75 8.5 -46.25 9.1 -47.8 L10.55 -47.15 12.0 -46.35 Q9.0 -45.95 9.25 -44.3" fill="#fff9ec" fill-rule="evenodd" stroke="none"/>
      <path d="M13.05 -44.65 Q12.65 -44.15 11.3 -44.05 L9.25 -44.3 Q9.0 -45.95 12.0 -46.35 L12.8 -45.55 13.05 -44.85 13.1 -44.75 13.05 -44.65 M5.85 -45.75 L4.4 -47.5 Q4.6 -48.0 5.45 -48.3 6.9 -48.6 9.1 -47.8 8.5 -46.25 5.85 -45.75" fill="#ffcc4d" fill-rule="evenodd" stroke="none"/>
      <path d="M13.05 -44.65 Q12.1 -41.95 10.1 -42.1 8.1 -42.3 6.8 -42.9 5.45 -43.5 4.5 -44.7 L3.85 -45.95 4.4 -47.5 5.85 -45.75 Q6.55 -45.3 7.8 -44.75 9.05 -44.2 9.25 -44.3 L11.3 -44.05 Q12.65 -44.15 13.05 -44.65" fill="#a05939" fill-rule="evenodd" stroke="none"/>
      <path d="M4.4 -47.5 L3.85 -45.95 4.5 -44.7 Q5.45 -43.5 6.8 -42.9 8.1 -42.3 10.1 -42.1 12.1 -41.95 13.05 -44.65 M4.4 -47.5 Q4.6 -48.0 5.45 -48.3 6.9 -48.6 9.1 -47.8 L10.55 -47.15 12.0 -46.35 12.8 -45.55 13.05 -44.85 13.1 -44.75 13.05 -44.65" fill="none" stroke="#000000" stroke-linecap="round" stroke-linejoin="round" stroke-opacity="0.4" stroke-width="0.05"/>
      <path d="M20.6 -47.0 Q20.4 -46.4 19.1 -45.95 L17.05 -45.7 Q16.35 -47.2 19.15 -48.4 L20.15 -47.8 20.55 -47.2 Q20.55 -47.15 20.65 -47.15 L20.6 -47.0 M13.35 -46.2 L11.5 -47.55 Q11.6 -48.1 12.35 -48.55 13.7 -49.2 16.0 -49.05 15.8 -47.4 13.35 -46.2" fill="#ffcc4d" fill-rule="evenodd" stroke="none"/>
      <path d="M20.6 -47.0 Q20.4 -44.15 18.4 -43.8 L15.05 -43.7 Q13.6 -43.95 12.35 -44.85 L11.4 -45.9 11.5 -47.55 13.35 -46.2 15.55 -45.75 17.05 -45.7 19.1 -45.95 Q20.4 -46.4 20.6 -47.0" fill="#a05939" fill-rule="evenodd" stroke="none"/>
      <path d="M17.05 -45.7 L15.55 -45.75 13.35 -46.2 Q15.8 -47.4 16.0 -49.05 L17.55 -48.75 19.15 -48.4 Q16.35 -47.2 17.05 -45.7" fill="#fff9ec" fill-rule="evenodd" stroke="none"/>
      <path d="M11.5 -47.55 L11.4 -45.9 12.35 -44.85 Q13.6 -43.95 15.05 -43.7 L18.4 -43.8 Q20.4 -44.15 20.6 -47.0 M11.5 -47.55 Q11.6 -48.1 12.35 -48.55 13.7 -49.2 16.0 -49.05 L17.55 -48.75 19.15 -48.4 20.15 -47.8 20.55 -47.2 Q20.55 -47.15 20.65 -47.15 L20.6 -47.0" fill="none" stroke="#000000" stroke-linecap="round" stroke-linejoin="round" stroke-opacity="0.4" stroke-width="0.05"/>
      <path d="M17.65 -50.7 Q17.25 -50.2 15.9 -50.1 L13.85 -50.35 Q13.6 -52.0 16.6 -52.4 L17.4 -51.6 17.65 -50.9 17.7 -50.8 17.65 -50.7 M10.45 -51.8 L9.0 -53.55 Q9.2 -54.05 10.05 -54.35 11.5 -54.65 13.7 -53.85 13.1 -52.3 10.45 -51.8" fill="#ffcc4d" fill-rule="evenodd" stroke="none"/>
      <path d="M17.65 -50.7 Q16.7 -48.0 14.7 -48.15 12.7 -48.35 11.4 -48.95 10.05 -49.55 9.1 -50.75 L8.45 -52.0 9.0 -53.55 10.45 -51.8 Q11.15 -51.35 12.4 -50.8 13.65 -50.25 13.85 -50.35 L15.9 -50.1 Q17.25 -50.2 17.65 -50.7" fill="#a05939" fill-rule="evenodd" stroke="none"/>
      <path d="M13.85 -50.35 Q13.65 -50.25 12.4 -50.8 11.15 -51.35 10.45 -51.8 13.1 -52.3 13.7 -53.85 L15.15 -53.2 16.6 -52.4 Q13.6 -52.0 13.85 -50.35" fill="#fff9ec" fill-rule="evenodd" stroke="none"/>
      <path d="M9.0 -53.55 L8.45 -52.0 9.1 -50.75 Q10.05 -49.55 11.4 -48.95 12.7 -48.35 14.7 -48.15 16.7 -48.0 17.65 -50.7 M9.0 -53.55 Q9.2 -54.05 10.05 -54.35 11.5 -54.65 13.7 -53.85 L15.15 -53.2 16.6 -52.4 17.4 -51.6 17.65 -50.9 17.7 -50.8 17.65 -50.7" fill="none" stroke="#000000" stroke-linecap="round" stroke-linejoin="round" stroke-opacity="0.4" stroke-width="0.05"/>
      <path d="M-8.5 -44.3 L-9.95 -44.75 Q-11.2 -45.3 -11.9 -45.75 -9.25 -46.25 -8.65 -47.8 L-7.2 -47.15 Q-5.9 -46.55 -5.75 -46.35 -8.75 -45.95 -8.5 -44.3" fill="#fff9ec" fill-rule="evenodd" stroke="none"/>
      <path d="M-4.7 -44.65 Q-5.1 -44.15 -6.45 -44.05 L-8.5 -44.3 Q-8.75 -45.95 -5.75 -46.35 L-4.95 -45.55 -4.7 -44.85 -4.65 -44.75 -4.7 -44.65 M-11.9 -45.75 L-13.35 -47.5 Q-13.15 -48.0 -12.3 -48.3 -10.85 -48.6 -8.65 -47.8 -9.25 -46.25 -11.9 -45.75" fill="#ffcc4d" fill-rule="evenodd" stroke="none"/>
      <path d="M-4.7 -44.65 Q-5.65 -41.95 -7.65 -42.1 -9.65 -42.3 -10.95 -42.9 -12.3 -43.5 -13.25 -44.7 L-13.9 -45.95 -13.35 -47.5 -11.9 -45.75 Q-11.2 -45.3 -9.95 -44.75 L-8.5 -44.3 -6.45 -44.05 Q-5.1 -44.15 -4.7 -44.65" fill="#a05939" fill-rule="evenodd" stroke="none"/>
      <path d="M-13.35 -47.5 L-13.9 -45.95 -13.25 -44.7 Q-12.3 -43.5 -10.95 -42.9 -9.65 -42.3 -7.65 -42.1 -5.65 -41.95 -4.7 -44.65 M-13.35 -47.5 Q-13.15 -48.0 -12.3 -48.3 -10.85 -48.6 -8.65 -47.8 L-7.2 -47.15 Q-5.9 -46.55 -5.75 -46.35 L-4.95 -45.55 -4.7 -44.85 -4.65 -44.75 -4.7 -44.65" fill="none" stroke="#000000" stroke-linecap="round" stroke-linejoin="round" stroke-opacity="0.4" stroke-width="0.05"/>
      <path d="M24.55 -34.55 Q23.9 -32.55 22.15 -31.8 20.35 -31.1 18.5 -32.1 16.65 -33.0 15.8 -35.1 14.9 -37.25 15.55 -39.25 16.2 -41.2 18.0 -41.9 L21.6 -41.7 Q23.45 -40.75 24.35 -38.6 25.2 -36.5 24.55 -34.55 M16.45 -39.4 Q16.0 -37.9 16.7 -36.2 17.35 -34.5 18.75 -33.75 20.15 -32.95 21.45 -33.45 22.75 -34.0 23.25 -35.6 23.65 -37.05 23.0 -38.75 22.3 -40.45 20.95 -41.25 L18.2 -41.45 Q16.9 -40.95 16.45 -39.4" fill="#22201f" fill-rule="evenodd" stroke="none"/>
      <path d="M24.55 -34.55 Q23.9 -32.55 22.15 -31.8 20.35 -31.1 18.5 -32.1 16.65 -33.0 15.8 -35.1 14.9 -37.25 15.55 -39.25 16.2 -41.2 18.0 -41.9 L21.6 -41.7 Q23.45 -40.75 24.35 -38.6 25.2 -36.5 24.55 -34.55 M16.45 -39.4 Q16.9 -40.95 18.2 -41.45 L20.95 -41.25 Q22.3 -40.45 23.0 -38.75 23.65 -37.05 23.25 -35.6 22.75 -34.0 21.45 -33.45 20.15 -32.95 18.75 -33.75 17.35 -34.5 16.7 -36.2 16.0 -37.9 16.45 -39.4" fill="none" stroke="#000000" stroke-linecap="round" stroke-linejoin="round" stroke-opacity="0.29803923" stroke-width="0.1"/>
      <path d="M19.1 -41.9 L23.65 -37.4 Q25.55 -34.9 26.6 -32.15 27.5 -29.65 27.65 -26.9 28.2 -18.05 20.15 -10.7 L18.55 -9.35 Q17.6 -11.35 16.85 -11.75 L16.9 -11.85 Q19.05 -13.6 20.1 -15.35 L21.35 -18.6 22.35 -22.05 Q24.8 -32.15 11.95 -40.1 L19.1 -41.9 M14.5 -6.7 Q9.2 -3.9 2.55 -3.45 L2.05 -1.25 Q1.65 -0.05 0.95 0.1 0.3 0.15 -0.15 -1.05 L-0.9 -3.4 Q-8.8 -3.6 -14.75 -6.45 -14.15 -8.3 -14.3 -9.6 -7.4 -5.35 1.3 -5.85 10.0 -6.35 14.15 -10.05 L14.15 -9.9 Q13.95 -8.65 14.5 -6.7 M-0.9 -3.4 L2.55 -3.45 -0.9 -3.4" fill="#22201f" fill-rule="evenodd" stroke="none"/>
      <path d="M17.75 0.0 L17.65 0.05 17.6 0.05 17.3 0.15 Q16.6 0.15 16.1 -1.5 L14.5 -6.7 Q13.95 -8.65 14.15 -9.9 L14.15 -10.05 Q10.0 -6.35 1.3 -5.85 -7.4 -5.35 -14.3 -9.6 L-14.6 -10.55 -14.9 -11.3 -14.6 -10.55 -14.3 -9.6 Q-14.15 -8.3 -14.75 -6.45 L-16.3 -1.5 Q-16.8 0.15 -17.55 0.15 -17.95 -3.35 -17.6 -6.45 -17.1 -10.95 -14.9 -11.3 -15.65 -12.2 -16.85 -11.85 -17.55 -11.55 -18.0 -11.05 -21.0 -12.25 -23.95 -13.85 -25.65 -16.15 -26.45 -18.7 -11.7 -8.4 1.6 -13.75 14.9 -19.05 15.15 -26.8 15.35 -34.65 8.75 -39.6 L11.95 -40.1 Q24.8 -32.15 22.35 -22.05 L21.35 -18.6 20.1 -15.35 Q19.05 -13.6 16.9 -11.85 L16.8 -11.75 Q15.25 -11.85 14.75 -11.3 17.05 -10.65 17.65 -5.7 18.0 -2.7 17.75 0.0 M14.75 -11.3 L14.15 -10.05 14.75 -11.3" fill="#2a2725" fill-rule="evenodd" stroke="none"/>
      <path d="M18.55 -9.35 L18.8 -7.9 19.0 -5.6 Q19.0 -3.25 18.5 -1.5 L17.75 0.0 Q18.0 -2.7 17.65 -5.7 17.05 -10.65 14.75 -11.3 15.25 -11.85 16.8 -11.75 L16.85 -11.75 Q17.6 -11.35 18.55 -9.35 M-17.55 0.15 Q-18.3 0.15 -18.8 -1.5 -19.3 -3.25 -19.3 -5.6 -19.3 -7.55 -18.95 -9.0 L-18.0 -11.05 Q-17.55 -11.55 -16.85 -11.85 -15.65 -12.2 -14.9 -11.3 -17.1 -10.95 -17.6 -6.45 -17.95 -3.35 -17.55 0.15 M-26.45 -18.7 Q-27.55 -22.0 -27.25 -25.85 -26.95 -29.6 -25.6 -32.85 L-24.9 -34.3 -24.85 -34.5 Q-22.8 -38.55 -19.1 -41.75 L-19.0 -41.8 -13.8 -40.6 -6.45 -39.25 Q-2.15 -38.8 8.75 -39.6 15.35 -34.65 15.15 -26.8 14.9 -19.05 1.6 -13.75 -11.7 -8.4 -26.45 -18.7 M-23.55 -30.25 Q-24.9 -26.75 -24.05 -23.3 -23.35 -19.8 -21.55 -17.55 -19.75 -15.5 -20.9 -20.15 -22.15 -24.85 -20.4 -28.2 L-19.3 -30.7 Q-18.9 -31.55 -20.6 -32.65 -22.25 -33.7 -23.55 -30.25" fill="#332e2b" fill-rule="evenodd" stroke="none"/>
      <path d="M-23.55 -30.25 Q-22.25 -33.7 -20.6 -32.65 -18.9 -31.55 -19.3 -30.7 L-20.4 -28.2 Q-22.15 -24.85 -20.9 -20.15 -19.75 -15.5 -21.55 -17.55 -23.35 -19.8 -24.05 -23.3 -24.9 -26.75 -23.55 -30.25" fill="#484644" fill-rule="evenodd" stroke="none"/>
      <path d="M-18.95 -9.0 L-20.2 -10.0 Q-22.45 -11.8 -23.95 -13.85 -21.0 -12.25 -18.0 -11.05 L-18.95 -9.0" fill="#1c1815" fill-rule="evenodd" stroke="none"/>
      <path d="M19.1 -41.9 L23.65 -37.4 Q25.55 -34.9 26.6 -32.15 27.5 -29.65 27.65 -26.9 28.2 -18.05 20.15 -10.7 L18.55 -9.35 18.8 -7.9 19.0 -5.6 Q19.0 -3.25 18.5 -1.5 L17.75 0.0 17.65 0.05 17.6 0.05 17.3 0.15 Q16.6 0.15 16.1 -1.5 L14.5 -6.7 Q9.2 -3.9 2.55 -3.45 L2.05 -1.25 Q1.65 -0.05 0.95 0.1 0.3 0.15 -0.15 -1.05 L-0.9 -3.4 Q-8.8 -3.6 -14.75 -6.45 L-16.3 -1.5 Q-16.8 0.15 -17.55 0.15 -18.3 0.15 -18.8 -1.5 -19.3 -3.25 -19.3 -5.6 -19.3 -7.55 -18.95 -9.0 L-20.2 -10.0 Q-22.45 -11.8 -23.95 -13.85 -25.65 -16.15 -26.45 -18.7 -27.55 -22.0 -27.25 -25.85 -26.95 -29.6 -25.6 -32.85 L-24.9 -34.3 -24.85 -34.5 Q-22.8 -38.55 -19.1 -41.75 L-19.0 -41.8 M-14.9 -11.3 L-14.6 -10.55 -14.3 -9.6 Q-14.15 -8.3 -14.75 -6.45 M14.15 -10.05 L14.75 -11.3 Q15.25 -11.85 16.8 -11.75 M16.9 -11.85 L16.85 -11.75 Q17.6 -11.35 18.55 -9.35 M2.55 -3.45 L-0.9 -3.4 M14.15 -10.05 L14.15 -9.9 Q13.95 -8.65 14.5 -6.7 M16.85 -11.75 L16.8 -11.75 M-18.95 -9.0 L-18.0 -11.05 Q-17.55 -11.55 -16.85 -11.85 -15.65 -12.2 -14.9 -11.3" fill="none" stroke="#000000" stroke-linecap="round" stroke-linejoin="round" stroke-opacity="0.29803923" stroke-width="0.1"/>
      <path d="M-25.95 -34.55 Q-26.6 -36.5 -25.75 -38.6 -24.85 -40.75 -23.0 -41.7 L-19.4 -41.9 Q-17.6 -41.2 -16.95 -39.25 -16.3 -37.25 -17.2 -35.1 -18.05 -33.0 -19.9 -32.1 -21.75 -31.1 -23.55 -31.8 -25.3 -32.55 -25.95 -34.55 M-24.65 -35.6 Q-24.15 -34.0 -22.85 -33.45 -21.55 -32.95 -20.15 -33.75 -18.75 -34.5 -18.1 -36.2 -17.4 -37.9 -17.85 -39.4 -18.3 -40.95 -19.6 -41.45 L-22.35 -41.25 Q-23.7 -40.45 -24.4 -38.75 -25.05 -37.05 -24.65 -35.6" fill="#332e2b" fill-rule="evenodd" stroke="none"/>
      <path d="M-25.95 -34.55 Q-25.3 -32.55 -23.55 -31.8 -21.75 -31.1 -19.9 -32.1 -18.05 -33.0 -17.2 -35.1 -16.3 -37.25 -16.95 -39.25 -17.6 -41.2 -19.4 -41.9 L-23.0 -41.7 Q-24.85 -40.75 -25.75 -38.6 -26.6 -36.5 -25.95 -34.55 M-24.65 -35.6 Q-24.15 -34.0 -22.85 -33.45 -21.55 -32.95 -20.15 -33.75 -18.75 -34.5 -18.1 -36.2 -17.4 -37.9 -17.85 -39.4 -18.3 -40.95 -19.6 -41.45 L-22.35 -41.25 Q-23.7 -40.45 -24.4 -38.75 -25.05 -37.05 -24.65 -35.6" fill="none" stroke="#000000" stroke-linecap="round" stroke-linejoin="round" stroke-opacity="0.29803923" stroke-width="0.1"/>
      <path d="M-19.05 -40.45 L-19.1 -40.4 Q-19.85 -38.05 -20.9 -38.55 -21.95 -39.05 -21.75 -40.85 -20.9 -41.2 -19.9 -40.85 L-19.05 -40.45" fill="#332e2b" fill-rule="evenodd" stroke="none"/>
      <path d="M-19.05 -40.45 L-19.9 -40.85 Q-20.9 -41.2 -21.75 -40.85 L-21.75 -40.95 Q-21.5 -42.9 -20.85 -43.05 L-19.25 -43.0 Q-18.25 -42.75 -19.05 -40.45" fill="#2a2725" fill-rule="evenodd" stroke="none"/>
      <path d="M-21.75 -40.85 Q-21.95 -39.05 -20.9 -38.55 -19.85 -38.05 -19.1 -40.4 L-19.05 -40.45 M-21.75 -40.85 L-21.75 -40.95 Q-21.5 -42.9 -20.85 -43.05 L-19.25 -43.0 Q-18.25 -42.75 -19.05 -40.45" fill="none" stroke="#000000" stroke-linecap="round" stroke-linejoin="round" stroke-opacity="0.29803923" stroke-width="0.1"/>
      <path d="M-23.2 -48.5 Q-22.9 -47.55 -21.45 -46.65 L-17.4 -45.65 -12.8 -44.75 0.7 -44.15 16.55 -44.8 21.45 -46.0 Q23.85 -46.8 24.85 -47.9 24.55 -46.55 22.55 -44.35 21.2 -42.85 19.1 -41.9 L11.95 -40.1 8.75 -39.6 Q-2.15 -38.8 -6.45 -39.25 L-13.8 -40.6 -19.0 -41.8 Q-20.8 -42.75 -21.8 -44.35 -22.85 -46.15 -23.2 -48.5" fill="#332e2b" fill-rule="evenodd" stroke="none"/>
      <path d="M-23.2 -48.5 Q-22.85 -46.15 -21.8 -44.35 -20.8 -42.75 -19.0 -41.8 L-13.8 -40.6 -6.45 -39.25 Q-2.15 -38.8 8.75 -39.6 L11.95 -40.1 19.1 -41.9 Q21.2 -42.85 22.55 -44.35 24.55 -46.55 24.85 -47.9 23.85 -46.8 21.45 -46.0 L16.55 -44.8 0.7 -44.15 -12.8 -44.75 -17.4 -45.65 -21.45 -46.65 Q-22.9 -47.55 -23.2 -48.5 Z" fill="none" stroke="#000000" stroke-linecap="round" stroke-linejoin="round" stroke-opacity="0.29803923" stroke-width="0.1"/>
      <path d="M-7.5 -51.05 L-8.95 -52.8 Q-8.75 -53.3 -7.9 -53.6 -6.45 -53.9 -4.25 -53.1 -4.85 -51.55 -7.5 -51.05 M-0.3 -49.95 Q-0.7 -49.45 -2.05 -49.35 L-4.1 -49.6 Q-4.35 -51.25 -1.35 -51.65 L-0.55 -50.85 -0.3 -50.15 -0.25 -50.05 -0.3 -49.95" fill="#ffcc4d" fill-rule="evenodd" stroke="none"/>
      <path d="M-8.95 -52.8 L-7.5 -51.05 Q-6.8 -50.6 -5.55 -50.05 -4.3 -49.5 -4.1 -49.6 L-2.05 -49.35 Q-0.7 -49.45 -0.3 -49.95 -1.25 -47.25 -3.25 -47.4 L-6.55 -48.2 Q-7.9 -48.8 -8.85 -50.0 L-9.5 -51.25 -8.95 -52.8" fill="#a05939" fill-rule="evenodd" stroke="none"/>
      <path d="M-7.5 -51.05 Q-4.85 -51.55 -4.25 -53.1 L-2.8 -52.45 Q-1.5 -51.85 -1.35 -51.65 -4.35 -51.25 -4.1 -49.6 -4.3 -49.5 -5.55 -50.05 -6.8 -50.6 -7.5 -51.05" fill="#fff9ec" fill-rule="evenodd" stroke="none"/>
      <path d="M-4.25 -53.1 Q-6.45 -53.9 -7.9 -53.6 -8.75 -53.3 -8.95 -52.8 L-9.5 -51.25 -8.85 -50.0 Q-7.9 -48.8 -6.55 -48.2 L-3.25 -47.4 Q-1.25 -47.25 -0.3 -49.95 L-0.25 -50.05 -0.3 -50.15 -0.55 -50.85 -1.35 -51.65 Q-1.5 -51.85 -2.8 -52.45 L-4.25 -53.1 Z" fill="none" stroke="#000000" stroke-linecap="round" stroke-linejoin="round" stroke-opacity="0.4" stroke-width="0.05"/>
      <path d="M10.8 -56.95 L14.2 -54.25 14.5 -54.55 15.85 -54.65 16.85 -53.9 Q19.15 -54.45 22.35 -55.85 19.3 -54.45 17.0 -52.7 L17.0 -52.5 Q16.8 -51.85 16.15 -51.4 L14.9 -51.25 14.35 -51.4 12.55 -50.9 13.85 -52.15 Q13.45 -52.65 13.7 -53.4 L13.85 -53.75 10.8 -56.95 M14.4 -53.0 L14.5 -52.55 15.0 -52.15 15.5 -52.25 Q15.8 -52.3 15.8 -52.65 L15.85 -53.25 Q15.7 -53.5 15.4 -53.55 L14.85 -53.55 14.4 -53.0 M-8.7 -56.95 L-5.4 -54.15 -5.1 -54.5 -3.75 -54.55 Q-3.15 -54.4 -2.75 -53.9 -0.4 -54.4 2.8 -55.8 -0.25 -54.3 -2.55 -52.6 L-2.5 -52.45 Q-2.8 -51.7 -3.45 -51.35 L-4.6 -51.25 -5.15 -51.4 -7.0 -50.8 -5.75 -52.05 Q-6.2 -52.6 -5.9 -53.35 L-5.75 -53.7 Q-6.95 -55.35 -8.7 -56.95 M-5.1 -53.0 L-5.1 -52.45 Q-4.85 -52.15 -4.65 -52.1 L-4.1 -52.1 Q-3.75 -52.25 -3.7 -52.6 L-3.75 -53.2 -4.2 -53.4 -4.75 -53.5 -5.1 -53.0" fill="#f2f2f2" fill-opacity="0.5921569" fill-rule="evenodd" stroke="none"/>
      <path d="M14.4 -53.0 L14.85 -53.55 15.4 -53.55 Q15.7 -53.5 15.85 -53.25 L15.8 -52.65 Q15.8 -52.3 15.5 -52.25 L15.0 -52.15 14.5 -52.55 14.4 -53.0 M-5.1 -53.0 L-4.75 -53.5 -4.2 -53.4 -3.75 -53.2 -3.7 -52.6 Q-3.75 -52.25 -4.1 -52.1 L-4.65 -52.1 Q-4.85 -52.15 -5.1 -52.45 L-5.1 -53.0" fill="#f2f2f2" fill-opacity="0.9411765" fill-rule="evenodd" stroke="none"/>
    </g>
  </defs>
</svg>
