<?xml version="1.0" encoding="UTF-8" standalone="no"?>
<svg xmlns:xlink="http://www.w3.org/1999/xlink" height="115.55px" width="142.2px" xmlns="http://www.w3.org/2000/svg">
  <g transform="matrix(1.0, 0.0, 0.0, 1.0, 72.05, 57.9)">
    <use height="110.6" transform="matrix(1.0, 0.0, 0.0, 1.0, -68.5, -54.25)" width="138.65" xlink:href="#decoration23-shape0"/>
    <use height="453.5" transform="matrix(0.2497, 5.0E-4, 0.0, 0.2502, -72.0419, -56.0789)" width="561.65" xlink:href="#decoration23-sprite0"/>
    <use height="113.05" transform="matrix(1.0, 0.0, 0.0, 1.0, -70.05, -57.9)" width="140.15" xlink:href="#decoration23-shape4"/>
  </g>
  <defs>
    <g id="decoration23-shape0" transform="matrix(1.0, 0.0, 0.0, 1.0, 68.5, 54.25)">
      <path d="M67.75 -53.75 L67.75 -53.55 Q66.9 -43.2 66.4 -32.95 64.2 11.4 67.75 54.6 L16.1 54.6 13.45 51.3 10.7 54.6 -51.8 54.6 Q-62.65 50.1 -64.1 43.35 L-67.5 46.6 -68.0 46.85 -67.3 24.85 -63.8 24.85 -63.8 24.65 -67.25 21.2 Q-64.25 -12.35 -68.0 -53.75 -3.4 -50.5 67.75 -53.75" fill="url(#decoration23-gradient0)" fill-rule="evenodd" stroke="none"/>
      <path d="M66.4 -32.95 Q66.8 12.0 70.15 56.35 L-55.2 56.35 -60.5 52.15 Q-56.6 53.85 -51.8 54.6 L10.7 54.6 13.45 51.3 16.1 54.6 67.75 54.6 Q64.2 11.4 66.4 -32.95" fill="url(#decoration23-gradient1)" fill-rule="evenodd" stroke="none"/>
      <path d="M-60.5 52.15 Q-64.75 50.25 -68.0 47.2 L-67.5 46.6 -64.1 43.35 Q-62.65 50.1 -51.8 54.6 -56.6 53.85 -60.5 52.15" fill="url(#decoration23-gradient2)" fill-rule="evenodd" stroke="none"/>
      <path d="M67.75 -53.55 Q66.9 -43.2 66.4 -32.95 64.2 11.4 67.75 54.6 L16.1 54.6 13.45 51.3 10.7 54.6 -51.8 54.6 Q-56.6 53.85 -60.5 52.15 -64.75 50.25 -68.0 47.2 L-68.0 47.15 -68.0 46.85 -67.3 24.85 -63.8 24.85 M-63.8 24.65 L-67.25 21.2 Q-64.25 -12.35 -68.0 -53.75 -3.4 -50.5 67.75 -53.75 M-67.5 46.6 L-68.0 47.2 M-67.5 46.6 L-68.0 46.85 M-67.5 46.6 L-64.1 43.35 Q-62.65 50.1 -51.8 54.6" fill="none" stroke="#000000" stroke-linecap="round" stroke-linejoin="round" stroke-opacity="0.4509804" stroke-width="1.0"/>
    </g>
    <linearGradient gradientTransform="matrix(0.0463, 0.0685, -0.0547, 0.037, 18.1, 35.95)" gradientUnits="userSpaceOnUse" id="decoration23-gradient0" spreadMethod="pad" x1="-819.2" x2="819.2">
      <stop offset="0.03529411764705882" stop-color="#edede0"/>
      <stop offset="1.0" stop-color="#b0b0a7"/>
    </linearGradient>
    <linearGradient gradientTransform="matrix(0.0757, 0.025, -0.0171, 0.0517, 0.6, 10.55)" gradientUnits="userSpaceOnUse" id="decoration23-gradient1" spreadMethod="pad" x1="-819.2" x2="819.2">
      <stop offset="0.0" stop-color="#000000" stop-opacity="0.0"/>
      <stop offset="1.0" stop-color="#000000" stop-opacity="0.23137255"/>
    </linearGradient>
    <linearGradient gradientTransform="matrix(0.5777, 0.0, 0.0, 0.5777, 97.4, -1.45)" gradientUnits="userSpaceOnUse" id="decoration23-gradient2" spreadMethod="pad" x1="-819.2" x2="819.2">
      <stop offset="0.03137254901960784" stop-color="#ababa2"/>
      <stop offset="1.0" stop-color="#8c8c84"/>
    </linearGradient>
    <g id="decoration23-sprite0" transform="matrix(1.0, 0.0, 0.0, 1.0, 31.2, 8.05)">
      <clipPath id="decoration23-clipPath0" transform="matrix(1.0, 0.0, 0.0, 1.0, 31.2, 8.05)">
        <use height="434.05" transform="matrix(1.0, 0.0, 0.0, 1.0, -17.7, -0.1)" width="545.9" xlink:href="#decoration23-shape1"/>
      </clipPath>
      <g clip-path="url(#decoration23-clipPath0)">
        <use height="453.5" transform="matrix(1.0, 0.0, 0.0, 1.0, -31.2, -8.05)" width="561.65" xlink:href="#decoration23-shape2"/>
        <use height="433.55" transform="matrix(1.0, 0.0, 0.0, 1.0, -17.45, 0.15)" width="545.4" xlink:href="#decoration23-sprite1"/>
      </g>
    </g>
    <g id="decoration23-shape1" transform="matrix(1.0, 0.0, 0.0, 1.0, 17.7, 0.1)">
      <path d="M309.55 421.6 L298.6 433.7 47.55 433.7 Q8.25 418.85 -0.95 388.2 L-17.45 403.8 Q-14.4 360.4 -12.65 316.75 L2.5 315.85 -12.05 300.1 Q-7.1 151.65 -17.45 0.15 246.85 11.25 527.95 0.15 509.8 215.2 527.0 433.7 L320.2 433.7 309.55 421.6" fill="#0092ff" fill-opacity="0.43137255" fill-rule="evenodd" stroke="none"/>
      <path d="M309.55 421.6 L320.2 433.7 527.0 433.7 Q509.8 215.2 527.95 0.15 246.85 11.25 -17.45 0.15 -7.1 151.65 -12.05 300.1 L2.5 315.85 -12.65 316.75 Q-14.4 360.4 -17.45 403.8 L-0.95 388.2 Q8.25 418.85 47.55 433.7 L298.6 433.7 309.55 421.6 Z" fill="none" stroke="#000000" stroke-linecap="round" stroke-linejoin="round" stroke-opacity="0.3019608" stroke-width="0.5"/>
    </g>
    <g id="decoration23-shape2" transform="matrix(1.0, 0.0, 0.0, 1.0, 31.2, 8.05)">
      <path d="M530.05 -7.5 L530.05 435.1 Q300.85 444.3 67.2 430.35 L67.2 -7.5 530.05 -7.5" fill="url(#decoration23-gradient3)" fill-rule="evenodd" stroke="none"/>
      <path d="M530.05 -7.5 L530.05 435.1 Q300.85 444.3 67.2 430.35 L67.2 -7.5 530.05 -7.5 Z" fill="none" stroke="#009933" stroke-linecap="round" stroke-linejoin="round" stroke-width="0.05"/>
      <path d="M291.05 437.65 L276.65 415.55 Q262.05 393.4 261.6 392.25 260.45 389.3 253.8 382.8 L247.4 376.9 274.35 360.35 Q273.35 386.55 273.05 387.55 288.2 420.7 288.65 422.35 L313.3 444.5 297.0 444.5 291.05 437.65" fill="#7d5417" fill-rule="evenodd" stroke="none"/>
      <path d="M313.3 444.5 L288.65 422.35 Q288.2 420.7 273.05 387.55 273.35 386.55 274.35 360.35 L247.4 376.9 207.05 397.4 205.05 388.25 177.4 406.5 176.2 400.4 276.05 348.9 299.05 354.75 294.05 372.75 288.9 386.9 304.8 413.15 327.65 444.5 313.3 444.5" fill="#302112" fill-rule="evenodd" stroke="none"/>
      <path d="M247.4 376.9 L253.8 382.8 Q260.45 389.3 261.6 392.25 262.05 393.4 276.65 415.55 L291.05 437.65 Q289.25 437.95 275.35 435.5 L262.5 433.5 269.25 439.15 275.55 444.2 Q271.85 444.0 251.4 444.25 L231.65 444.5 219.1 416.2 241.15 392.25 Q234.2 391.0 223.4 398.4 218.0 402.05 214.0 406.0 L207.05 397.4 247.4 376.9 M176.2 400.4 L177.4 406.5 205.05 388.25 207.05 397.4 200.8 405.0 Q193.75 412.65 189.75 412.7 182.85 411.9 177.4 406.5 175.3 406.5 170.05 410.9 L165.25 415.3 176.2 400.4 M97.5 444.5 L95.1 438.35 123.55 421.75 161.65 421.95 107.5 444.5 97.5 444.5 M243.25 413.4 L244.65 403.0 241.75 400.0 239.0 405.35 243.25 413.4 M250.15 402.85 L250.45 407.05 Q250.95 411.5 252.0 413.05 255.3 417.7 259.65 420.7 L272.95 423.05 Q272.35 422.0 250.15 402.85" fill="#453119" fill-rule="evenodd" stroke="none"/>
      <path d="M294.05 372.75 Q294.05 378.45 297.25 388.0 298.85 392.75 300.45 396.35 L315.9 406.1 304.8 413.15 288.9 386.9 294.05 372.75 M163.15 433.65 L165.65 444.5 129.85 444.5 163.15 433.65" fill="#594021" fill-rule="evenodd" stroke="none"/>
      <path d="M299.05 354.75 L276.05 348.9 176.2 400.4 165.25 415.3 163.05 426.45 178.95 444.5 165.65 444.5 163.15 433.65 161.65 421.95 123.55 421.75 95.1 438.35 97.5 444.5 78.7 444.5 76.9 432.95 54.7 444.5 48.55 444.5 41.1 433.9 24.45 444.5 -8.9 437.35 -14.0 444.5 -22.45 444.5 -19.55 433.55 Q-16.1 421.65 -13.4 416.85 -11.15 412.8 130.2 372.55 253.75 337.35 274.45 332.25 290.4 328.45 300.05 341.85 L299.05 354.75" fill="#332313" fill-rule="evenodd" stroke="none"/>
      <path d="M291.05 437.65 L297.0 444.5 275.55 444.2 269.25 439.15 262.5 433.5 275.35 435.5 Q289.25 437.95 291.05 437.65 M315.9 406.1 L358.1 444.5 342.3 444.5 304.8 413.15 315.9 406.1" fill="#78572e" fill-rule="evenodd" stroke="none"/>
      <path d="M207.05 397.4 L214.0 406.0 Q218.0 402.05 223.4 398.4 234.2 391.0 241.15 392.25 L219.1 416.2 173.25 421.6 165.25 415.3 170.05 410.9 Q175.3 406.5 177.4 406.5 182.85 411.9 189.75 412.7 193.75 412.65 200.8 405.0 L207.05 397.4 M-14.0 444.5 L-8.9 437.35 24.45 444.5 41.1 433.9 48.55 444.5 24.45 444.5 -14.0 444.5 M54.7 444.5 L76.9 432.95 78.7 444.5 54.7 444.5 M161.65 421.95 L163.15 433.65 129.85 444.5 107.5 444.5 161.65 421.95 M243.25 413.4 L239.0 405.35 241.75 400.0 244.65 403.0 243.25 413.4" fill="#664926" fill-rule="evenodd" stroke="none"/>
      <path d="M342.3 444.5 L327.65 444.5 304.8 413.15 342.3 444.5 M250.15 402.85 Q272.35 422.0 272.95 423.05 L259.65 420.7 Q255.3 417.7 252.0 413.05 250.95 411.5 250.45 407.05 L250.15 402.85" fill="#694524" fill-rule="evenodd" stroke="none"/>
      <path d="M219.1 416.2 L231.65 444.5 178.95 444.5 163.05 426.45 165.25 415.3 173.25 421.6 219.1 416.2" fill="#4f331a" fill-rule="evenodd" stroke="none"/>
      <path d="M294.05 372.75 Q294.05 378.45 297.25 388.0 298.85 392.75 300.45 396.35 L315.9 406.1 358.1 444.5 M294.05 372.75 L299.05 354.75 M300.05 341.85 Q290.4 328.45 274.45 332.25 253.75 337.35 130.2 372.55 -11.15 412.8 -13.4 416.85" fill="none" stroke="#000000" stroke-linecap="round" stroke-linejoin="round" stroke-opacity="0.3019608" stroke-width="0.5"/>
      <path d="M112.1 290.5 L132.1 283.25 228.2 299.1 247.85 290.4 Q238.15 300.2 232.75 304.2 L241.65 299.95 244.6 297.6 244.65 297.55 Q245.25 297.1 261.45 291.7 L277.55 286.45 262.6 297.15 271.25 292.85 Q267.2 298.1 263.5 309.45 259.8 320.75 260.35 326.05 L270.65 313.0 285.7 312.75 Q301.65 312.5 306.0 312.75 305.1 312.9 283.7 320.35 L292.4 319.55 313.7 317.45 Q309.55 325.25 302.55 330.95 295.95 336.35 287.85 339.1 L297.15 342.05 290.6 348.1 285.1 353.4 Q285.6 352.1 285.8 347.45 286.05 341.95 284.95 340.35 282.25 353.25 273.5 361.85 L263.45 370.65 Q252.9 380.0 250.6 382.8 252.45 379.2 253.05 376.45 253.45 374.45 253.35 371.35 250.8 373.3 248.55 377.8 246.75 381.4 246.3 383.65 L239.15 383.6 232.0 383.65 237.8 388.05 213.6 383.5 223.95 394.9 213.1 387.65 216.6 398.15 Q214.9 396.45 205.3 393.6 197.05 391.15 195.6 391.0 190.35 395.75 187.5 399.4 186.05 401.2 185.65 402.05 L183.15 391.6 167.9 409.2 172.8 397.75 161.25 389.95 166.5 396.7 145.45 416.2 Q145.45 413.5 146.25 409.9 146.85 407.0 147.7 404.75 L134.65 411.4 131.55 413.6 127.35 416.9 132.4 408.1 Q129.25 410.45 124.9 414.35 119.45 417.95 104.7 422.95 L109.65 404.3 Q100.5 406.1 95.9 411.35 L94.05 406.7 Q92.1 402.05 91.45 402.05 L87.65 401.05 71.9 397.15 75.05 410.6 69.55 406.25 Q65.15 403.05 62.75 403.05 62.25 403.05 57.4 408.8 L48.85 419.05 45.35 411.75 Q41.9 404.2 42.2 403.25 L14.35 421.35 15.25 412.4 9.55 417.9 -3.1 428.6 -14.85 418.15 -14.8 372.95 18.3 339.2 18.9 342.9 Q19.95 347.3 22.3 350.6 29.8 361.25 47.35 357.2 L47.55 357.35 48.35 359.5 51.25 369.8 Q53.95 360.9 54.9 358.35 L55.45 356.95 Q56.1 360.7 66.65 362.45 83.65 365.2 121.05 360.6 119.4 361.25 116.9 364.8 113.85 369.2 114.45 373.0 116.2 384.55 150.4 384.25 205.0 383.65 219.3 368.8 223.75 364.15 223.65 358.65 223.6 356.95 223.15 355.35 L222.65 354.1 229.5 355.25 233.75 355.7 Q243.45 355.7 250.75 352.95 257.6 350.4 257.6 347.5 257.6 334.6 232.3 328.5 215.0 324.35 193.25 324.35 176.65 324.35 160.35 325.0 L147.25 325.65 133.65 311.25 Q118.75 295.75 112.1 290.5 M62.2 383.45 L62.15 383.5 63.95 388.65 56.0 381.6 60.35 387.85 Q63.65 393.05 64.5 396.65 65.75 395.25 66.45 390.7 67.2 385.7 66.2 382.1 L69.2 383.45 72.65 385.3 Q72.95 385.65 76.25 386.1 L80.25 386.8 75.95 380.05 85.6 390.05 82.75 375.05 88.0 380.4 Q87.25 377.35 86.45 375.9 85.3 373.8 80.25 368.45 L82.45 380.55 70.35 371.1 72.9 382.55 Q62.3 373.95 56.1 370.35 58.45 373.5 62.4 380.2 65.95 386.2 66.1 386.85 L62.2 383.45 M238.0 320.1 Q238.65 318.35 239.55 314.4 240.6 309.65 240.35 308.2 L244.55 313.95 Q247.7 307.9 248.7 306.45 L249.3 305.75 Q249.25 306.3 249.55 310.95 L249.95 316.1 249.55 310.95 Q249.25 306.3 249.3 305.75 L248.7 306.45 Q247.7 307.9 244.55 313.95 L240.35 308.2 Q240.6 309.65 239.55 314.4 238.65 318.35 238.0 320.1 M222.25 302.55 L228.2 299.1 222.25 302.55 M247.9 330.2 L246.85 323.7 251.35 329.25 250.55 320.0 256.85 330.8 250.55 320.0 251.35 329.25 246.85 323.7 247.9 330.2 M277.6 355.35 Q278.45 354.3 279.3 352.0 280.1 349.8 280.1 348.95 L279.85 343.65 275.8 349.95 279.85 343.65 280.1 348.95 Q280.1 349.8 279.3 352.0 278.45 354.3 277.6 355.35" fill="#859e3d" fill-rule="evenodd" stroke="none"/>
      <path d="M18.3 339.2 L40.85 316.2 112.1 290.5 Q118.75 295.75 133.65 311.25 L147.25 325.65 160.35 325.0 Q176.65 324.35 193.25 324.35 215.0 324.35 232.3 328.5 257.6 334.6 257.6 347.5 257.6 350.4 250.75 352.95 243.45 355.7 233.75 355.7 L229.5 355.25 222.65 354.1 223.15 355.35 Q223.6 356.95 223.65 358.65 223.75 364.15 219.3 368.8 205.0 383.65 150.4 384.25 116.2 384.55 114.45 373.0 113.85 369.2 116.9 364.8 119.4 361.25 121.05 360.6 83.65 365.2 66.65 362.45 56.1 360.7 55.45 356.95 L54.9 358.35 Q53.95 360.9 51.25 369.8 L48.35 359.5 47.55 357.35 47.35 357.2 Q29.8 361.25 22.3 350.6 19.95 347.3 18.9 342.9 L18.3 339.2" fill="#565e1e" fill-rule="evenodd" stroke="none"/>
      <path d="M271.25 292.85 Q268.4 299.55 267.25 303.2 266.45 305.8 265.3 311.1 L271.2 305.1 270.65 313.0 260.35 326.05 Q259.8 320.75 263.5 309.45 267.2 298.1 271.25 292.85 M313.7 317.45 L314.1 317.45 314.25 317.55 Q313.55 320.4 308.85 326.65 303.9 333.2 299.65 336.5 L309.7 330.6 304.65 335.85 Q300.25 340.15 297.15 342.05 L287.85 339.1 Q295.95 336.35 302.55 330.95 309.55 325.25 313.7 317.45 M80.25 368.45 Q85.3 373.8 86.45 375.9 87.25 377.35 88.0 380.4 L82.75 375.05 85.6 390.05 75.95 380.05 80.25 386.8 76.25 386.1 Q72.95 385.65 72.65 385.3 L69.2 383.45 66.2 382.1 Q67.2 385.7 66.45 390.7 65.75 395.25 64.5 396.65 63.65 393.05 60.35 387.85 L56.0 381.6 63.95 388.65 62.15 383.5 62.2 383.45 66.1 386.85 Q65.95 386.2 62.4 380.2 58.45 373.5 56.1 370.35 62.3 373.95 72.9 382.55 L70.35 371.1 82.45 380.55 80.25 368.45" fill="#6c7a29" fill-rule="evenodd" stroke="none"/>
      <path d="M247.85 290.4 L252.95 287.25 Q252.35 288.7 249.25 292.55 246.1 296.5 244.65 297.55 L244.6 297.6 241.65 299.95 232.75 304.2 Q238.15 300.2 247.85 290.4 M285.1 353.4 L273.5 361.85 Q282.25 353.25 284.95 340.35 286.05 341.95 285.8 347.45 285.6 352.1 285.1 353.4 M145.45 416.2 L142.35 411.4 134.65 411.4 147.7 404.75 Q146.85 407.0 146.25 409.9 145.45 413.5 145.45 416.2" fill="#76852d" fill-rule="evenodd" stroke="none"/>
      <path d="M306.0 312.75 Q300.75 315.1 292.4 319.55 L283.7 320.35 Q305.1 312.9 306.0 312.75" fill="#5e6322" fill-rule="evenodd" stroke="none"/>
      <path d="M172.8 397.75 L145.45 416.2 166.5 396.7 161.25 389.95 172.8 397.75" fill="#677026" fill-rule="evenodd" stroke="none"/>
      <path d="M112.1 290.5 L132.1 283.25 228.2 299.1 247.85 290.4 252.95 287.25 Q252.35 288.7 249.25 292.55 246.1 296.5 244.65 297.55 245.25 297.1 261.45 291.7 L277.55 286.45 262.6 297.15 271.25 292.85 Q268.4 299.55 267.25 303.2 266.45 305.8 265.3 311.1 L271.2 305.1 270.65 313.0 285.7 312.75 Q301.65 312.5 306.0 312.75 300.75 315.1 292.4 319.55 L313.7 317.45 M314.1 317.45 L314.25 317.55 Q313.55 320.4 308.85 326.65 303.9 333.2 299.65 336.5 L309.7 330.6 304.65 335.85 Q300.25 340.15 297.15 342.05 L290.6 348.1 285.1 353.4 273.5 361.85 263.45 370.65 Q252.9 380.0 250.6 382.8 252.45 379.2 253.05 376.45 253.45 374.45 253.35 371.35 250.8 373.3 248.55 377.8 246.75 381.4 246.3 383.65 L239.15 383.6 232.0 383.65 237.8 388.05 213.6 383.5 223.95 394.9 213.1 387.65 216.6 398.15 Q214.9 396.45 205.3 393.6 197.05 391.15 195.6 391.0 190.35 395.75 187.5 399.4 186.05 401.2 185.65 402.05 L183.15 391.6 167.9 409.2 172.8 397.75 145.45 416.2 142.35 411.4 134.65 411.4 131.55 413.6 127.35 416.9 132.4 408.1 Q129.25 410.45 124.9 414.35 119.45 417.95 104.7 422.95 L109.65 404.3 Q100.5 406.1 95.9 411.35 L94.05 406.7 Q92.1 402.05 91.45 402.05 L87.65 401.05 71.9 397.15 75.05 410.6 69.55 406.25 Q65.15 403.05 62.75 403.05 62.25 403.05 57.4 408.8 L48.85 419.05 45.35 411.75 Q41.9 404.2 42.2 403.25 L14.35 421.35 15.25 412.4 9.55 417.9 -3.1 428.6 -14.85 418.15 -14.8 372.95 18.3 339.2 40.85 316.2 112.1 290.5 M80.25 368.45 L82.45 380.55 70.35 371.1 72.9 382.55 Q62.3 373.95 56.1 370.35 58.45 373.5 62.4 380.2 65.95 386.2 66.1 386.85 L62.2 383.45 M249.95 316.1 L249.55 310.95 Q249.25 306.3 249.3 305.75 L248.7 306.45 Q247.7 307.9 244.55 313.95 L240.35 308.2 Q240.6 309.65 239.55 314.4 238.65 318.35 238.0 320.1 M241.65 299.95 L244.6 297.6 244.65 297.55 M228.2 299.1 L222.25 302.55 M306.0 312.75 Q305.1 312.9 283.7 320.35 L292.4 319.55 M256.85 330.8 L250.55 320.0 251.35 329.25 246.85 323.7 247.9 330.2 M275.8 349.95 L279.85 343.65 280.1 348.95 Q280.1 349.8 279.3 352.0 278.45 354.3 277.6 355.35 M285.1 353.4 Q285.6 352.1 285.8 347.45 286.05 341.95 284.95 340.35" fill="none" stroke="#000000" stroke-linecap="round" stroke-linejoin="round" stroke-opacity="0.3019608" stroke-width="0.30000000000000004"/>
      <path d="M69.95 -7.55 L71.15 23.95 Q70.05 49.15 67.95 77.1 66.3 99.4 66.3 104.6 66.3 123.25 70.45 143.35 65.35 142.55 52.5 134.1 38.45 124.85 32.6 117.0 L27.1 108.05 21.7 99.65 Q17.2 94.35 12.75 91.15 8.75 88.2 3.65 86.15 4.05 71.65 2.55 41.7 1.4 18.7 0.6 10.1 L1.05 25.9 Q1.05 39.65 -0.4 61.6 -1.55 79.15 -2.25 84.55 L-9.95 84.75 -17.05 85.4 -17.05 -7.55 -1.45 -7.55 12.45 -7.55 58.25 -7.55 69.95 -7.55 M104.25 77.8 Q97.1 84.4 91.1 96.5 85.7 107.4 85.3 113.65 82.35 95.45 77.8 44.15 74.35 5.95 77.35 -7.55 L108.15 -7.55 Q104.9 11.2 103.85 41.65 102.9 69.15 104.25 77.8 M12.45 -7.55 Q17.0 37.35 19.0 60.65 21.0 83.85 21.7 99.65 21.0 83.85 19.0 60.65 17.0 37.35 12.45 -7.55 M3.55 95.75 L22.05 118.0 21.95 130.4 21.85 130.6 13.05 149.55 Q4.25 169.85 4.25 176.45 4.25 181.45 6.95 190.95 9.65 200.45 9.65 201.75 9.65 212.95 3.15 235.8 -1.35 251.7 -17.05 299.4 L-17.05 219.55 -9.5 185.65 Q-1.85 150.45 1.15 132.75 2.8 120.55 3.2 111.2 L3.55 96.0 3.55 95.75 M58.25 -7.55 Q57.35 26.45 55.25 43.65 52.0 70.3 43.7 89.45 L38.25 100.9 Q33.25 111.95 32.6 117.0 33.25 111.95 38.25 100.9 L43.7 89.45 Q52.0 70.3 55.25 43.65 57.35 26.45 58.25 -7.55 M15.05 212.35 L20.0 220.1 7.25 264.7 15.05 212.35 M-17.05 90.7 L-11.2 91.65 Q-8.4 92.1 -4.25 93.1 -7.0 103.7 -11.0 111.55 -13.9 117.15 -17.05 120.65 L-17.05 90.7 M0.6 10.1 L-1.45 -7.55 0.6 10.1" fill="#54412f" fill-rule="evenodd" stroke="none"/>
      <path d="M69.95 -7.55 L77.35 -7.55 Q74.35 5.95 77.8 44.15 82.35 95.45 85.3 113.65 85.7 107.4 91.1 96.5 97.1 84.4 104.25 77.8 L104.9 87.3 Q99.05 90.0 95.2 98.55 91.5 106.8 91.5 116.25 91.5 120.05 93.0 127.75 L97.55 149.75 Q87.35 149.45 79.4 107.65 72.15 69.55 71.15 23.95 L69.95 -7.55 M0.6 10.1 Q1.4 18.7 2.55 41.7 4.05 71.65 3.65 86.15 L-2.25 84.55 Q-1.55 79.15 -0.4 61.6 1.05 39.65 1.05 25.9 L0.6 10.1 M3.55 95.75 L3.55 96.0 3.2 111.2 Q2.8 120.55 1.15 132.75 -5.35 151.7 -9.85 159.1 -13.65 165.35 -17.05 164.75 L-17.05 120.65 Q-13.9 117.15 -11.0 111.55 -7.0 103.7 -4.25 93.1 L3.55 95.75 M20.0 220.1 L28.1 228.7 27.3 233.35 Q23.05 251.05 17.2 263.9 6.6 287.3 0.65 303.15 L2.0 294.05 7.25 264.7 20.0 220.1" fill="#473321" fill-rule="evenodd" stroke="none"/>
      <path d="M71.15 23.95 Q72.15 69.55 79.4 107.65 87.35 149.45 97.55 149.75 L93.0 127.75 Q91.5 120.05 91.5 116.25 91.5 106.8 95.2 98.55 99.05 90.0 104.9 87.3 108.1 119.6 120.25 172.6 132.35 225.55 142.75 252.6 L141.45 260.35 Q139.8 268.5 138.0 270.2 136.95 269.0 127.55 249.5 L97.7 186.65 Q99.75 206.15 101.0 215.65 105.3 247.55 112.2 270.2 117.35 287.0 122.0 293.55 114.65 287.2 106.35 278.95 89.75 262.45 86.05 254.55 79.25 241.6 74.85 230.55 69.4 217.0 64.55 199.65 72.3 255.35 88.45 294.85 96.55 314.65 103.05 323.25 L115.95 344.3 109.7 341.9 Q103.65 339.85 98.95 340.8 86.6 340.2 76.2 318.3 64.05 292.65 60.5 247.2 L59.6 255.55 Q58.85 264.6 58.85 273.05 58.85 292.2 64.1 317.2 66.7 329.75 69.3 338.4 65.75 336.95 60.85 334.1 54.9 330.65 53.0 328.35 L55.4 343.0 49.9 338.45 Q43.8 332.95 41.1 328.35 L28.8 344.0 Q15.95 359.9 11.7 363.2 13.3 360.4 16.4 352.4 19.15 345.3 20.45 341.0 19.15 345.3 16.4 352.4 13.3 360.4 11.7 363.2 9.2 364.75 -2.15 372.9 -13.1 380.6 -16.6 381.8 L-17.05 381.8 -17.05 365.25 -17.05 299.4 Q-1.35 251.7 3.15 235.8 9.65 212.95 9.65 201.75 9.65 200.45 6.95 190.95 4.25 181.45 4.25 176.45 4.25 169.85 13.05 149.55 L21.85 130.6 21.95 130.4 22.05 118.0 3.55 95.75 3.65 86.15 3.55 95.75 -4.25 93.1 Q-8.4 92.1 -11.2 91.65 L-17.05 90.7 -17.05 85.4 -9.95 84.75 -2.25 84.55 3.65 86.15 Q8.75 88.2 12.75 91.15 17.2 94.35 21.7 99.65 L22.05 118.0 21.7 99.65 27.1 108.05 32.6 117.0 Q38.45 124.85 52.5 134.1 65.35 142.55 70.45 143.35 66.3 123.25 66.3 104.6 66.3 99.4 67.95 77.1 70.05 49.15 71.15 23.95 M1.15 132.75 Q-1.85 150.45 -9.5 185.65 L-17.05 219.55 -17.05 164.75 Q-13.65 165.35 -9.85 159.1 -5.35 151.7 1.15 132.75 M32.6 117.0 Q30.85 122.35 30.0 134.2 29.45 142.2 29.45 149.7 L29.1 187.5 Q28.65 223.1 28.1 228.7 28.65 223.1 29.1 187.5 L29.45 149.7 Q29.45 142.2 30.0 134.2 30.85 122.35 32.6 117.0 M15.05 212.35 Q17.7 191.4 20.05 158.9 L21.85 130.6 20.05 158.9 Q17.7 191.4 15.05 212.35 L7.25 264.7 2.0 294.05 0.65 303.15 Q-0.5 315.75 -6.6 333.6 -9.8 342.85 -13.85 353.0 -11.35 359.2 -8.5 361.55 -5.95 363.65 -1.85 363.65 5.7 363.65 11.8 354.75 17.65 344.25 20.45 341.0 24.2 335.2 27.25 325.3 33.35 305.5 29.8 284.85 32.55 274.6 38.0 257.1 L44.15 237.5 Q41.9 237.3 37.1 234.85 31.55 232.0 28.1 228.7 L20.0 220.1 15.05 212.35 M60.45 171.05 L64.55 199.65 60.45 171.05 M82.9 226.75 L84.0 237.25 Q85.25 248.75 86.05 254.55 85.25 248.75 84.0 237.25 L82.9 226.75 M-17.05 365.25 L-13.85 353.0 -17.05 365.25" fill="#36281b" fill-rule="evenodd" stroke="none"/>
      <path d="M55.4 343.0 L53.0 328.35 Q54.9 330.65 60.85 334.1 65.75 336.95 69.3 338.4 66.7 329.75 64.1 317.2 58.85 292.2 58.85 273.05 58.85 264.6 59.6 255.55 L60.5 247.2 Q64.05 292.65 76.2 318.3 86.6 340.2 98.95 340.8 L55.4 343.0 M103.05 323.25 Q96.55 314.65 88.45 294.85 72.3 255.35 64.55 199.65 69.4 217.0 74.85 230.55 79.25 241.6 86.05 254.55 89.75 262.45 106.35 278.95 114.65 287.2 122.0 293.55 117.35 287.0 112.2 270.2 105.3 247.55 101.0 215.65 99.75 206.15 97.7 186.65 L127.55 249.5 Q136.95 269.0 138.0 270.2 139.8 268.5 141.45 260.35 L142.75 252.6 Q144.8 258.55 158.1 290.95 171.4 323.3 173.85 328.3 L137.2 325.35 103.05 323.25 M104.5 305.6 L98.0 297.1 Q94.65 292.6 92.75 288.35 87.85 277.6 86.05 254.55 87.85 277.6 92.75 288.35 94.65 292.6 98.0 297.1 L104.5 305.6" fill="#261c12" fill-rule="evenodd" stroke="none"/>
      <path d="M28.1 228.7 Q31.55 232.0 37.1 234.85 41.9 237.3 44.15 237.5 L38.0 257.1 Q32.55 274.6 29.8 284.85 33.35 305.5 27.25 325.3 24.2 335.2 20.45 341.0 17.65 344.25 11.8 354.75 5.7 363.65 -1.85 363.65 -5.95 363.65 -8.5 361.55 -11.35 359.2 -13.85 353.0 -9.8 342.85 -6.6 333.6 -0.5 315.75 0.65 303.15 6.6 287.3 17.2 263.9 23.05 251.05 27.3 233.35 L28.1 228.7 M14.7 311.25 Q17.0 300.1 19.65 301.35 22.0 302.45 22.65 310.65 23.35 319.25 21.0 325.2 18.15 332.45 11.9 330.9 4.05 328.95 3.25 319.0 2.55 310.5 6.95 298.6 11.0 287.6 16.9 279.95 23.1 272.0 27.05 273.45 28.35 275.85 28.75 277.85 L29.8 284.85 28.75 277.85 Q28.35 275.85 27.05 273.45 23.1 272.0 16.9 279.95 11.0 287.6 6.95 298.6 2.55 310.5 3.25 319.0 4.05 328.95 11.9 330.9 18.15 332.45 21.0 325.2 23.35 319.25 22.65 310.65 22.0 302.45 19.65 301.35 17.0 300.1 14.7 311.25" fill="#5b4431" fill-rule="evenodd" stroke="none"/>
      <path d="M69.95 -7.55 L71.15 23.95 M104.9 87.3 L104.25 77.8 M77.35 -7.55 L108.15 -7.55 Q104.9 11.2 103.85 41.65 102.9 69.15 104.25 77.8 M-17.05 85.4 L-17.05 -7.55 -1.45 -7.55 12.45 -7.55 58.25 -7.55 69.95 -7.55 M21.7 99.65 Q21.0 83.85 19.0 60.65 17.0 37.35 12.45 -7.55 M22.05 118.0 L21.7 99.65 M-17.05 219.55 L-17.05 299.4 M21.85 130.6 L21.95 130.4 22.05 118.0 M21.85 130.6 L20.05 158.9 Q17.7 191.4 15.05 212.35 M11.7 363.2 Q15.95 359.9 28.8 344.0 L41.1 328.35 Q43.8 332.95 49.9 338.45 L55.4 343.0 M98.95 340.8 Q103.65 339.85 109.7 341.9 L115.95 344.3 103.05 323.25 Q96.55 314.65 88.45 294.85 72.3 255.35 64.55 199.65 L60.45 171.05 M104.9 87.3 Q108.1 119.6 120.25 172.6 132.35 225.55 142.75 252.6 144.8 258.55 158.1 290.95 171.4 323.3 173.85 328.3 L137.2 325.35 103.05 323.25 M0.65 303.15 Q-0.5 315.75 -6.6 333.6 -9.8 342.85 -13.85 353.0 L-17.05 365.25 -17.05 299.4 M7.25 264.7 L2.0 294.05 0.65 303.15 M7.25 264.7 L15.05 212.35 M98.95 340.8 L55.4 343.0 M-17.05 85.4 L-17.05 90.7 M-17.05 164.75 L-17.05 219.55 M-17.05 164.75 L-17.05 120.65 -17.05 90.7 M11.7 363.2 Q9.2 364.75 -2.15 372.9 -13.1 380.6 -16.6 381.8 L-17.05 381.95 -17.05 381.8 -17.05 365.25 M-16.6 381.8 L-17.05 381.8" fill="none" stroke="#000000" stroke-linecap="round" stroke-linejoin="round" stroke-opacity="0.3019608" stroke-width="0.5"/>
      <path d="M3.65 86.15 Q4.05 71.65 2.55 41.7 1.4 18.7 0.6 10.1 M3.65 86.15 L3.55 95.75 3.55 96.0 3.2 111.2 Q2.8 120.55 1.15 132.75 -1.85 150.45 -9.5 185.65 L-17.05 219.55 M32.6 117.0 Q33.25 111.95 38.25 100.9 L43.7 89.45 Q52.0 70.3 55.25 43.65 57.35 26.45 58.25 -7.55 M28.1 228.7 Q28.65 223.1 29.1 187.5 L29.45 149.7 Q29.45 142.2 30.0 134.2 30.85 122.35 32.6 117.0 M29.8 284.85 Q33.35 305.5 27.25 325.3 24.2 335.2 20.45 341.0 19.15 345.3 16.4 352.4 13.3 360.4 11.7 363.2 M69.3 338.4 Q66.7 329.75 64.1 317.2 58.85 292.2 58.85 273.05 M60.5 247.2 Q64.05 292.65 76.2 318.3 86.6 340.2 98.95 340.8 M86.05 254.55 Q85.25 248.75 84.0 237.25 L82.9 226.75 M86.05 254.55 Q87.85 277.6 92.75 288.35 94.65 292.6 98.0 297.1 L104.5 305.6 M28.1 228.7 L27.3 233.35 Q23.05 251.05 17.2 263.9 6.6 287.3 0.65 303.15 M29.8 284.85 L28.75 277.85 Q28.35 275.85 27.05 273.45 23.1 272.0 16.9 279.95 11.0 287.6 6.95 298.6 2.55 310.5 3.25 319.0 4.05 328.95 11.9 330.9 18.15 332.45 21.0 325.2 23.35 319.25 22.65 310.65 22.0 302.45 19.65 301.35 17.0 300.1 14.7 311.25 M-1.45 -7.55 L0.6 10.1" fill="none" stroke="#000000" stroke-linecap="round" stroke-linejoin="round" stroke-opacity="0.2" stroke-width="1.0"/>
      <path d="M4.4 90.4 L1.0 89.35 -12.35 86.05 Q-21.8 83.95 -30.0 83.4 L-30.3 83.35 -30.5 83.35 -30.7 83.35 -30.5 83.35 -30.6 83.35 -30.7 83.35 -31.05 83.3 -30.05 83.25 Q-13.15 82.2 0.55 83.65 14.75 85.2 25.85 101.15 64.6 156.8 67.05 213.15 67.9 232.5 64.3 251.65 62.65 260.5 58.45 275.25 54.8 287.75 56.75 298.2 57.7 303.2 59.9 307.25 66.2 324.05 60.9 326.15 41.05 317.95 47.2 293.6 L54.7 264.2 Q63.05 232.1 57.45 194.25 51.85 156.4 37.25 125.75 23.75 97.5 4.4 90.4" fill="#f2cda6" fill-rule="evenodd" stroke="none"/>
      <path d="M4.4 90.4 Q23.75 97.5 37.25 125.75 51.85 156.4 57.45 194.25 63.05 232.1 54.7 264.2 L47.2 293.6 Q41.05 317.95 60.9 326.15 66.2 324.05 59.9 307.25 L60.95 309.1 Q72.85 327.6 100.8 323.65 109.4 333.1 110.75 336.7 112.75 341.95 106.05 345.7 98.3 349.95 83.6 348.6 67.5 347.15 55.2 339.55 43.75 332.35 39.95 310.2 38.6 301.85 38.7 293.55 38.85 285.95 40.05 282.4 L48.15 257.95 Q58.15 225.6 46.0 166.35 40.25 136.0 28.05 114.7 16.95 95.3 4.4 90.4" fill="#ad8964" fill-rule="evenodd" stroke="none"/>
      <path d="M-30.5 83.35 L-30.3 83.35 -30.0 83.4 Q-21.8 83.95 -12.35 86.05 L1.0 89.35 4.4 90.4 Q16.95 95.3 28.05 114.7 40.25 136.0 46.0 166.35 58.15 225.6 48.15 257.95 L40.05 282.4 Q38.85 285.95 38.7 293.55 38.6 301.85 39.95 310.2 43.75 332.35 55.2 339.55 67.5 347.15 83.6 348.6 98.3 349.95 106.05 345.7 112.75 341.95 110.75 336.7 109.4 333.1 100.8 323.65 72.85 327.6 60.95 309.1 L59.9 307.25 Q57.7 303.2 56.75 298.2 54.8 287.75 58.45 275.25 62.65 260.5 64.3 251.65 67.9 232.5 67.05 213.15 64.6 156.8 25.85 101.15 14.75 85.2 0.55 83.65 -13.15 82.2 -30.05 83.25 L-31.05 83.3 -30.7 83.35 -30.5 83.35 -30.6 83.35 -30.7 83.35" fill="none" stroke="#000000" stroke-linecap="round" stroke-linejoin="miter" stroke-miterlimit="5.0" stroke-opacity="0.3019608" stroke-width="0.30000000000000004"/>
      <path d="M126.5 353.2 Q120.5 350.9 110.25 341.45 L101.15 332.3 Q83.75 300.6 106.9 253.1 108.7 247.4 110.5 240.2 114.05 225.9 114.35 217.7 L172.05 241.65 Q175.1 248.3 180.0 255.55 170.6 248.35 159.55 250.25 151.75 251.65 148.35 255.15 147.35 255.5 142.6 260.8 136.95 267.05 131.7 274.35 116.3 295.8 114.3 311.7 118.1 334.15 143.8 330.05 169.45 325.9 172.65 311.9 175.85 297.9 175.65 295.9 181.7 301.2 185.35 308.75 188.85 316.2 190.1 324.15 191.8 334.9 188.2 342.05 L185.7 345.9 185.65 346.0 Q184.95 346.75 180.05 349.05 173.55 352.1 166.45 354.05 144.4 360.05 126.5 353.2 M224.0 284.35 Q228.1 290.2 229.3 296.35 231.5 307.8 224.1 322.2 214.0 331.85 205.45 331.25 208.75 325.8 210.15 317.2 212.3 303.85 206.3 293.1 L200.6 283.35 Q196.15 276.15 194.15 273.6 205.6 280.5 214.15 290.0 222.2 291.35 224.0 284.35 M100.7 281.75 L100.75 281.7 100.7 281.65 100.7 281.75" fill="#422d1b" fill-rule="evenodd" stroke="none"/>
      <path d="M100.7 281.75 L100.7 281.65 100.75 281.7 100.7 281.75 M141.75 288.3 Q134.5 291.0 127.9 297.85 132.95 289.6 141.1 285.25 141.35 286.85 141.75 288.3" fill="#422f1f" fill-rule="evenodd" stroke="none"/>
      <path d="M141.1 285.25 Q144.4 283.45 152.8 284.45 164.2 285.85 172.45 293.35 170.2 291.75 159.3 289.3 146.65 286.45 141.75 288.3 141.35 286.85 141.1 285.25" fill="#b69d65" fill-rule="evenodd" stroke="none"/>
      <path d="M172.45 293.35 L175.65 295.9 Q175.85 297.9 172.65 311.9 169.45 325.9 143.8 330.05 118.1 334.15 114.3 311.7 L125.1 300.9 127.9 297.85 Q134.5 291.0 141.75 288.3 146.65 286.45 159.3 289.3 170.2 291.75 172.45 293.35" fill="url(#decoration23-gradient4)" fill-rule="evenodd" stroke="none"/>
      <path d="M180.0 255.55 L187.05 264.65 194.15 273.6 Q196.15 276.15 200.6 283.35 L206.3 293.1 Q206.05 299.35 196.95 304.85 193.45 306.95 189.95 308.1 186.65 309.2 185.35 308.75 181.7 301.2 175.65 295.9 L172.45 293.35 Q164.2 285.85 152.8 284.45 144.4 283.45 141.1 285.25 140.45 281.55 142.9 270.2 145.5 258.05 148.35 255.15 151.75 251.65 159.55 250.25 170.6 248.35 180.0 255.55" fill="url(#decoration23-gradient5)" fill-rule="evenodd" stroke="none"/>
      <path d="M114.3 311.7 Q116.3 295.8 131.7 274.35 136.95 267.05 142.6 260.8 147.35 255.5 148.35 255.15 145.5 258.05 142.9 270.2 140.45 281.55 141.1 285.25 132.95 289.6 127.9 297.85 L125.1 300.9 114.3 311.7" fill="#66482c" fill-rule="evenodd" stroke="none"/>
      <path d="M224.1 322.2 L228.4 322.9 Q224.0 325.65 222.05 328.45 234.4 330.7 244.3 336.2 254.05 341.55 257.35 335.6 260.6 340.05 260.35 344.15 L258.65 347.15 Q250.7 347.5 239.95 344.15 L222.35 340.05 202.0 335.5 Q204.0 333.6 205.45 331.25 214.0 331.85 224.1 322.2 M262.1 335.4 Q264.7 339.15 263.6 342.85 262.8 343.6 260.35 344.15 260.6 340.05 257.35 335.6 253.0 332.55 251.3 331.95 L262.1 335.4 M185.7 345.9 L190.5 345.85 186.45 348.2 Q182.05 350.7 180.15 352.9 173.9 360.2 192.55 365.65 L200.25 366.0 Q207.65 365.5 206.95 361.55 206.8 360.55 205.05 360.05 L201.65 359.2 Q204.65 359.6 207.15 356.6 209.55 353.7 208.3 352.4 L207.45 350.2 Q208.7 350.8 209.95 351.5 216.35 355.0 216.9 361.45 217.8 364.05 217.85 367.15 L215.95 368.75 Q213.75 370.25 211.8 369.9 L211.45 371.95 Q207.0 373.5 193.05 370.75 L166.5 364.45 Q145.85 361.9 130.45 361.4 126.0 358.3 126.5 353.2 144.4 360.05 166.45 354.05 173.55 352.1 180.05 349.05 184.95 346.75 185.65 346.0 L185.7 345.9 M211.8 369.9 Q212.1 364.7 206.95 361.55 212.1 364.7 211.8 369.9 M216.9 361.45 Q214.8 355.6 208.3 352.4 214.8 355.6 216.9 361.45" fill="#bd8f62" fill-rule="evenodd" stroke="none"/>
      <path d="M194.15 273.6 Q205.8 267.75 216.95 276.4 L217.35 276.8 Q221.3 280.5 224.0 284.35 222.2 291.35 214.15 290.0 205.6 280.5 194.15 273.6" fill="url(#decoration23-gradient6)" fill-rule="evenodd" stroke="none"/>
      <path d="M228.4 322.9 Q241.75 325.3 253.75 329.85 259.65 331.9 262.1 335.4 L251.3 331.95 251.25 331.95 246.95 330.45 251.25 331.95 251.3 331.95 Q253.0 332.55 257.35 335.6 254.05 341.55 244.3 336.2 234.4 330.7 222.05 328.45 224.0 325.65 228.4 322.9 M190.5 345.85 Q199.15 346.15 207.25 350.1 L207.45 350.2 208.3 352.4 Q209.55 353.7 207.15 356.6 204.65 359.6 201.65 359.2 L205.05 360.05 Q206.8 360.55 206.95 361.55 207.65 365.5 200.25 366.0 L192.55 365.65 Q173.9 360.2 180.15 352.9 182.05 350.7 186.45 348.2 L190.5 345.85 M202.0 350.1 Q205.55 351.0 208.3 352.4 205.55 351.0 202.0 350.1" fill="#f3cca5" fill-rule="evenodd" stroke="none"/>
      <path d="M202.0 335.5 Q196.95 340.25 188.2 342.05 191.8 334.9 190.1 324.15 188.85 316.2 185.35 308.75 186.65 309.2 189.95 308.1 193.45 306.95 196.95 304.85 206.05 299.35 206.3 293.1 212.3 303.85 210.15 317.2 208.75 325.8 205.45 331.25 204.0 333.6 202.0 335.5" fill="url(#decoration23-gradient7)" fill-rule="evenodd" stroke="none"/>
      <path d="M126.5 353.2 Q120.5 350.9 110.25 341.45 L101.15 332.3 Q83.75 300.6 106.9 253.1 108.7 247.4 110.5 240.2 114.05 225.9 114.35 217.7 L172.05 241.65 Q175.1 248.3 180.0 255.55 L187.05 264.65 194.15 273.6 Q205.8 267.75 216.95 276.4 L217.35 276.8 Q221.3 280.5 224.0 284.35 228.1 290.2 229.3 296.35 231.5 307.8 224.1 322.2 L228.4 322.9 Q241.75 325.3 253.75 329.85 259.65 331.9 262.1 335.4 264.7 339.15 263.6 342.85 262.8 343.6 260.35 344.15 L258.65 347.15 Q250.7 347.5 239.95 344.15 L222.35 340.05 202.0 335.5 Q196.95 340.25 188.2 342.05 L185.7 345.9 190.5 345.85 Q199.15 346.15 207.25 350.1 M207.45 350.2 Q208.7 350.8 209.95 351.5 216.35 355.0 216.9 361.45 217.8 364.05 217.85 367.15 L215.95 368.75 Q213.75 370.25 211.8 369.9 L211.45 371.95 Q207.0 373.5 193.05 370.75 L166.5 364.45 Q145.85 361.9 130.45 361.4 126.0 358.3 126.5 353.2 144.4 360.05 166.45 354.05 173.55 352.1 180.05 349.05 184.95 346.75 185.65 346.0 L185.7 345.9 M148.35 255.15 Q151.75 251.65 159.55 250.25 170.6 248.35 180.0 255.55 M148.35 255.15 Q145.5 258.05 142.9 270.2 140.45 281.55 141.1 285.25 M172.45 293.35 L175.65 295.9 Q181.7 301.2 185.35 308.75 M206.3 293.1 L200.6 283.35 Q196.15 276.15 194.15 273.6 M172.45 293.35 Q170.2 291.75 159.3 289.3 146.65 286.45 141.75 288.3 134.5 291.0 127.9 297.85 L125.1 300.9 M141.75 288.3 Q141.35 286.85 141.1 285.25 M205.45 331.25 Q208.75 325.8 210.15 317.2 212.3 303.85 206.3 293.1 M205.45 331.25 Q214.0 331.85 224.1 322.2 M188.2 342.05 Q191.8 334.9 190.1 324.15 188.85 316.2 185.35 308.75 M201.65 359.2 L205.05 360.05 Q206.8 360.55 206.95 361.55 212.1 364.7 211.8 369.9 M208.3 352.4 Q214.8 355.6 216.9 361.45 M208.3 352.4 Q205.55 351.0 202.0 350.1 M205.45 331.25 Q204.0 333.6 202.0 335.5 M251.3 331.95 L251.25 331.95 246.95 330.45 M257.35 335.6 Q260.6 340.05 260.35 344.15 M257.35 335.6 Q253.0 332.55 251.3 331.95" fill="none" stroke="#000000" stroke-linecap="round" stroke-linejoin="miter" stroke-miterlimit="5.0" stroke-opacity="0.4" stroke-width="0.5"/>
      <path d="M183.6 246.45 Q191.55 249.65 196.4 258.25 L199.65 269.8 Q202.8 281.25 196.3 280.75 L189.3 274.55 Q182.1 267.75 180.95 264.6 L180.35 262.5 173.35 244.55 Q179.6 244.85 183.6 246.45 M180.35 262.5 Q179.75 260.35 179.4 257.75 179.75 260.35 180.35 262.5" fill="#3b2a1b" fill-rule="evenodd" stroke="none"/>
      <path d="M183.6 246.45 Q191.55 249.65 196.4 258.25 L199.65 269.8 Q202.8 281.25 196.3 280.75 L189.3 274.55 Q182.1 267.75 180.95 264.6 L180.35 262.5 173.35 244.55 Q179.6 244.85 183.6 246.45 M179.4 257.75 Q179.75 260.35 180.35 262.5" fill="none" stroke="#000000" stroke-linecap="round" stroke-linejoin="miter" stroke-miterlimit="5.0" stroke-opacity="0.4" stroke-width="0.30000000000000004"/>
      <path d="M118.55 94.05 L118.65 94.05 Q146.8 92.95 162.4 140.9 L151.6 151.05 Q140.05 161.6 136.15 163.85 105.45 171.1 106.4 131.65 107.3 92.15 118.55 94.05" fill="#3d2b1a" fill-rule="evenodd" stroke="none"/>
      <path d="M118.55 94.05 Q107.3 92.15 106.4 131.65 105.45 171.1 136.15 163.85 140.05 161.6 151.6 151.05 L162.4 140.9 Q146.8 92.95 118.65 94.05 L118.55 94.05 Z" fill="none" stroke="#000000" stroke-linecap="round" stroke-linejoin="miter" stroke-miterlimit="5.0" stroke-opacity="0.3019608" stroke-width="0.30000000000000004"/>
      <path d="M168.5 146.9 Q171.65 146.85 174.7 147.55 170.1 148.0 166.65 150.2 177.2 152.8 183.45 160.55 L175.55 160.55 179.85 164.6 Q185.1 169.8 187.2 177.15 188.1 180.25 189.85 192.25 190.55 194.45 194.65 200.15 L198.85 205.85 Q200.15 208.25 199.5 211.1 L195.55 208.2 Q194.1 206.5 193.4 206.25 188.75 204.7 182.85 209.0 L181.05 210.4 174.2 211.2 Q166.35 212.55 161.2 215.15 L154.2 217.0 Q136.35 220.85 123.1 214.55 108.4 200.25 106.9 177.0 L104.35 180.55 110.4 165.1 Q122.4 155.95 126.9 141.45 L126.9 149.4 Q154.4 131.75 183.55 139.65 170.6 141.55 160.9 147.9 L154.7 152.6 168.5 146.9 M163.95 152.3 Q165.2 151.1 166.65 150.2 165.2 151.1 163.95 152.3 M152.9 153.95 L154.7 152.6 152.9 153.95" fill="url(#decoration23-gradient8)" fill-rule="evenodd" stroke="none"/>
      <path d="M199.5 211.1 L198.4 215.25 Q196.9 219.8 194.45 223.95 186.75 236.95 172.6 241.8 L170.3 242.35 170.2 242.4 Q143.0 248.2 126.65 236.4 121.4 233.1 118.15 229.6 L116.35 227.35 111.95 222.15 Q108.05 217.9 106.1 216.5 102.15 205.7 102.7 192.45 103.1 182.25 104.35 180.55 L106.9 177.0 Q108.4 200.25 123.1 214.55 136.35 220.85 154.2 217.0 L161.2 215.15 Q166.35 212.55 174.2 211.2 L181.05 210.4 179.05 212.15 179.15 212.25 181.95 215.75 Q185.1 214.5 187.45 215.75 L190.2 218.7 Q192.2 217.4 194.05 213.1 L195.5 209.05 195.55 208.2 199.5 211.1 M166.95 234.7 L156.6 234.2 Q152.8 233.1 148.4 229.8 L146.5 232.35 148.4 229.8 Q152.8 233.1 156.6 234.2 L166.95 234.7 M165.75 238.3 Q162.7 239.85 157.85 237.35 162.7 239.85 165.75 238.3" fill="#422d1b" fill-rule="evenodd" stroke="none"/>
      <path d="M160.9 147.9 Q164.75 146.9 168.5 146.9 L154.7 152.6 160.9 147.9" fill="#422f1f" fill-rule="evenodd" stroke="none"/>
      <path d="M181.05 210.4 L182.85 209.0 Q182.2 210.35 185.85 210.65 L189.6 210.7 191.65 209.25 Q193.7 207.5 193.4 206.25 194.1 206.5 195.55 208.2 L195.5 209.05 193.45 211.6 Q191.05 214.2 189.35 214.3 181.6 214.25 179.15 212.25 L179.05 212.15 181.05 210.4" fill="#f2cda6" fill-rule="evenodd" stroke="none"/>
      <path d="M182.85 209.0 Q188.75 204.7 193.4 206.25 193.7 207.5 191.65 209.25 L189.6 210.7 185.85 210.65 Q182.2 210.35 182.85 209.0" fill="#fbede1" fill-rule="evenodd" stroke="none"/>
      <path d="M195.5 209.05 L194.05 213.1 Q192.2 217.4 190.2 218.7 L187.45 215.75 Q185.1 214.5 181.95 215.75 L179.15 212.25 Q181.6 214.25 189.35 214.3 191.05 214.2 193.45 211.6 L195.5 209.05" fill="#b8936e" fill-rule="evenodd" stroke="none"/>
      <path d="M168.5 146.9 Q171.65 146.85 174.7 147.55 170.1 148.0 166.65 150.2 177.2 152.8 183.45 160.55 L175.55 160.55 M187.2 177.15 Q188.1 180.25 189.85 192.25 190.55 194.45 194.65 200.15 L198.85 205.85 Q200.15 208.25 199.5 211.1 L198.4 215.25 Q196.9 219.8 194.45 223.95 186.75 236.95 172.6 241.8 L170.3 242.35 M126.65 236.4 Q121.4 233.1 118.15 229.6 L116.35 227.35 111.95 222.15 Q108.05 217.9 106.1 216.5 M104.35 180.55 L110.4 165.1 Q122.4 155.95 126.9 141.45 L126.9 149.4 Q154.4 131.75 183.55 139.65 170.6 141.55 160.9 147.9 164.75 146.9 168.5 146.9 M154.7 152.6 L152.9 153.95 M166.65 150.2 Q165.2 151.1 163.95 152.3 M182.85 209.0 Q188.75 204.7 193.4 206.25 194.1 206.5 195.55 208.2 M160.9 147.9 L154.7 152.6 M146.5 232.35 L148.4 229.8 Q152.8 233.1 156.6 234.2 L166.95 234.7 M195.5 209.05 L195.55 208.2 M179.15 212.25 L181.95 215.75 Q185.1 214.5 187.45 215.75 L190.2 218.7 Q192.2 217.4 194.05 213.1 L195.5 209.05 M179.15 212.25 L179.05 212.15 181.05 210.4 M157.85 237.35 Q162.7 239.85 165.75 238.3" fill="none" stroke="#000000" stroke-linecap="round" stroke-linejoin="miter" stroke-miterlimit="5.0" stroke-opacity="0.3019608" stroke-width="0.30000000000000004"/>
      <path d="M145.9 184.2 Q143.75 179.8 138.6 180.25 M154.75 177.65 Q142.15 164.3 127.45 176.6" fill="none" stroke="#000000" stroke-linecap="round" stroke-linejoin="round" stroke-opacity="0.3019608" stroke-width="0.5"/>
      <path d="M125.4 200.8 Q127.25 193.45 130.1 190.15 133.35 186.5 137.8 185.75 146.95 186.5 147.15 196.9 L144.85 206.95 Q145.7 198.6 140.7 192.85 132.85 191.2 125.4 200.8" fill="#bdaf9e" fill-rule="evenodd" stroke="none"/>
      <path d="M144.85 206.95 L133.9 205.45 Q130.1 204.85 128.15 203.3 L125.4 200.8 Q132.85 191.2 140.7 192.85 145.7 198.6 144.85 206.95" fill="url(#decoration23-gradient9)" fill-rule="evenodd" stroke="none"/>
      <path d="M126.75 195.6 Q128.25 190.7 131.05 187.85 L131.2 187.8 Q136.55 182.35 142.75 184.9 145.65 186.1 147.3 191.3 148.15 193.9 148.45 196.15 L145.7 191.2 Q143.2 187.75 138.55 187.8 133.9 187.65 131.05 190.25 128.25 192.8 127.6 193.75 L126.75 195.6" fill="#000000" fill-rule="evenodd" stroke="none"/>
      <path d="M138.85 197.1 Q137.85 199.35 137.85 201.1 137.85 203.05 138.7 204.95 139.85 207.45 141.75 207.45 143.65 207.45 144.75 204.6 145.55 202.5 145.55 200.4 145.55 198.5 144.5 196.3 143.3 193.65 141.65 194.05 140.0 194.45 138.85 197.1 M141.45 191.9 Q143.7 191.7 145.25 194.3 146.85 196.95 146.9 200.8 146.9 204.65 145.35 207.55 143.8 210.45 141.55 210.65 139.35 210.85 137.75 208.25 136.15 205.65 136.15 201.8 136.1 197.95 137.65 195.0 139.25 192.1 141.45 191.9" fill="#000000" fill-rule="evenodd" stroke="none"/>
      <path d="M138.85 197.1 Q140.0 194.45 141.65 194.05 143.3 193.65 144.5 196.3 145.55 198.5 145.55 200.4 145.55 202.5 144.75 204.6 143.65 207.45 141.75 207.45 139.85 207.45 138.7 204.95 137.85 203.05 137.85 201.1 137.85 199.35 138.85 197.1" fill="url(#decoration23-gradient10)" fill-rule="evenodd" stroke="none"/>
      <path d="M143.4 202.55 Q142.9 203.45 142.2 203.5 141.5 203.55 141.0 202.75 140.5 201.9 140.5 200.7 140.45 199.45 140.95 198.55 141.45 197.6 142.15 197.55 142.85 197.5 143.35 198.35 143.85 199.15 143.9 200.4 143.9 201.6 143.4 202.55" fill="#000000" fill-rule="evenodd" stroke="none"/>
      <path d="M136.65 198.45 Q140.1 199.0 139.75 200.5 139.4 202.0 135.85 201.4 132.3 200.8 132.75 199.35 133.2 197.9 136.65 198.45" fill="#ffffff" fill-rule="evenodd" stroke="none"/>
      <path d="M143.4 195.65 Q143.75 194.1 145.25 194.15 146.75 194.25 146.25 195.95 145.75 197.65 144.4 197.4 143.05 197.15 143.4 195.65" fill="#ffffff" fill-rule="evenodd" stroke="none"/>
      <path d="M145.95 208.4 L143.25 211.6 136.1 210.05 133.6 206.2 Q139.75 205.35 145.95 207.05 L145.95 208.4" fill="#66482c" fill-rule="evenodd" stroke="none"/>
      <path d="M110.45 151.65 Q113.7 173.2 104.9 173.9 98.7 172.45 94.2 161.7 93.5 156.8 93.8 151.8 88.5 136.05 71.5 127.45 L71.2 127.45 Q60.95 123.35 48.05 127.55 34.1 133.7 26.85 145.6 20.3 155.85 21.3 165.35 16.5 180.95 18.8 197.6 15.8 190.25 14.4 181.3 11.35 162.15 19.2 148.55 29.55 130.75 47.4 123.3 56.8 119.4 65.7 119.1 79.85 118.7 89.1 126.2 102.85 137.45 110.45 151.65" fill="#73512d" fill-rule="evenodd" stroke="none"/>
      <path d="M21.3 165.35 Q20.3 155.85 26.85 145.6 34.1 133.7 48.05 127.55 60.95 123.35 71.2 127.45 L71.5 127.45 Q88.5 136.05 93.8 151.8 93.5 156.8 94.2 161.7 98.7 172.45 104.9 173.9 113.7 173.2 110.45 151.65 L113.6 159.7 116.45 167.4 Q117.2 170.65 117.15 172.0 L108.65 182.95 Q108.5 183.2 107.95 183.25 L102.75 184.3 107.95 183.25 Q108.5 183.2 108.65 182.95 L104.95 189.25 110.55 190.7 Q107.05 207.9 111.8 207.1 108.55 211.3 108.35 215.05 107.35 213.4 106.7 211.75 L106.45 210.75 Q104.4 203.7 108.65 195.3 103.75 198.0 102.15 200.2 102.05 196.7 105.6 192.75 97.65 195.85 96.4 201.9 96.3 192.05 102.75 184.3 94.5 184.7 90.05 178.2 85.85 171.9 84.45 157.05 83.55 148.05 79.05 141.95 77.45 139.85 72.5 135.55 64.35 130.65 54.1 132.1 33.8 135.0 21.3 165.35" fill="url(#decoration23-gradient11)" fill-rule="evenodd" stroke="none"/>
      <path d="M21.3 165.35 Q33.8 135.0 54.1 132.1 64.35 130.65 72.5 135.55 77.45 139.85 79.05 141.95 83.55 148.05 84.45 157.05 85.85 171.9 90.05 178.2 94.5 184.7 102.75 184.3 96.3 192.05 96.4 201.9 97.65 195.85 105.6 192.75 102.05 196.7 102.15 200.2 103.75 198.0 108.65 195.3 104.4 203.7 106.45 210.75 103.5 208.95 102.05 203.25 L98.15 210.45 98.15 203.4 Q93.95 205.5 93.05 211.4 89.4 204.45 91.15 194.6 87.45 194.85 82.3 190.2 L77.85 185.5 Q76.7 176.6 74.5 172.75 72.3 168.95 68.85 169.75 61.75 171.45 58.25 179.85 55.0 187.8 57.75 198.5 L57.6 198.55 Q52.95 188.7 52.35 185.25 51.8 182.1 51.7 178.9 L51.7 178.65 Q49.05 171.2 46.65 168.75 43.5 165.55 39.0 168.35 29.2 174.5 23.5 187.85 20.7 194.5 19.8 199.95 L18.8 197.6 Q16.5 180.95 21.3 165.35 M72.5 135.55 Q51.05 156.65 51.7 178.65 51.05 156.65 72.5 135.55" fill="url(#decoration23-gradient12)" fill-rule="evenodd" stroke="none"/>
      <path d="M19.8 199.95 Q20.7 194.5 23.5 187.85 29.2 174.5 39.0 168.35 43.5 165.55 46.65 168.75 49.05 171.2 51.7 178.65 L51.7 178.9 Q51.8 182.1 52.35 185.25 52.95 188.7 57.6 198.55 L57.75 198.8 57.75 198.5 Q55.0 187.8 58.25 179.85 61.75 171.45 68.85 169.75 72.3 168.95 74.5 172.75 76.7 176.6 77.85 185.5 L82.3 190.2 Q87.45 194.85 91.15 194.6 89.4 204.45 93.05 211.4 93.95 205.5 98.15 203.4 L98.15 210.45 102.05 203.25 Q103.5 208.95 106.45 210.75 L106.7 211.75 Q107.35 213.4 108.35 215.05 108.55 211.3 111.8 207.1 113.45 208.9 112.8 214.4 L111.8 219.6 Q99.5 229.25 82.95 232.35 L82.85 232.35 77.75 215.55 70.85 231.6 Q42.8 225.05 28.5 211.85 24.05 207.75 21.45 203.45 L19.8 199.95" fill="url(#decoration23-gradient13)" fill-rule="evenodd" stroke="none"/>
      <path d="M21.3 165.35 Q33.8 135.0 54.1 132.1 64.35 130.65 72.5 135.55 77.45 139.85 79.05 141.95 83.55 148.05 84.45 157.05 85.85 171.9 90.05 178.2 94.5 184.7 102.75 184.3 L107.95 183.25 Q108.5 183.2 108.65 182.95 M117.15 172.0 Q117.2 170.65 116.45 167.4 L113.6 159.7 110.45 151.65 Q102.85 137.45 89.1 126.2 79.85 118.7 65.7 119.1 56.8 119.4 47.4 123.3 29.55 130.75 19.2 148.55 11.35 162.15 14.4 181.3 15.8 190.25 18.8 197.6 L19.8 199.95 21.45 203.45 Q24.05 207.75 28.5 211.85 42.8 225.05 70.85 231.6 L77.75 215.55 82.85 232.35 82.95 232.35 Q99.5 229.25 111.8 219.6 M111.8 207.1 Q108.55 211.3 108.35 215.05 107.35 213.4 106.7 211.75 M57.75 198.5 L57.75 198.8 57.6 198.55 Q52.95 188.7 52.35 185.25 51.8 182.1 51.7 178.9 M51.7 178.65 Q51.05 156.65 72.5 135.55 M106.45 210.75 Q104.4 203.7 108.65 195.3 103.75 198.0 102.15 200.2 102.05 196.7 105.6 192.75 97.65 195.85 96.4 201.9 96.3 192.05 102.75 184.3" fill="none" stroke="#000000" stroke-linecap="round" stroke-linejoin="miter" stroke-miterlimit="5.0" stroke-opacity="0.3019608" stroke-width="0.30000000000000004"/>
      <path d="M247.2 173.7 Q286.95 106.95 327.25 35.8 L331.1 35.65 326.35 43.85 335.45 30.95 338.0 32.6 323.1 57.75 Q315.65 68.9 311.95 72.75 307.2 77.55 302.8 87.8 300.95 92.05 299.8 95.9 L283.05 123.55 279.65 126.3 Q272.4 132.85 268.95 140.85 264.75 150.4 261.35 155.0 258.1 158.65 256.45 161.4 253.75 165.85 249.1 180.6 219.15 231.7 190.7 282.7 L184.3 292.1 176.65 289.65 181.1 282.15 188.65 270.0 Q192.15 268.05 195.9 263.65 L206.3 249.1 Q212.2 240.8 215.7 231.35 L219.75 219.3 227.25 207.0 230.95 203.6 Q236.0 198.4 237.65 194.1 L240.6 186.85 Q242.05 183.65 245.65 177.15 L247.2 173.7" fill="#5b4020" fill-rule="evenodd" stroke="none"/>
      <path d="M323.1 57.75 L299.8 95.9 Q300.95 92.05 302.8 87.8 307.2 77.55 311.95 72.75 315.65 68.9 323.1 57.75 M283.05 123.55 Q265.8 152.05 249.1 180.6 253.75 165.85 256.45 161.4 258.1 158.65 261.35 155.0 264.75 150.4 268.95 140.85 272.4 132.85 279.65 126.3 L283.05 123.55 M188.65 270.0 L219.75 219.3 215.7 231.35 Q212.2 240.8 206.3 249.1 L195.9 263.65 Q192.15 268.05 188.65 270.0 M227.25 207.0 L247.2 173.7 245.65 177.15 Q242.05 183.65 240.6 186.85 L237.65 194.1 Q236.0 198.4 230.95 203.6 L227.25 207.0" fill="#452f18" fill-rule="evenodd" stroke="none"/>
      <path d="M247.2 173.7 Q286.95 106.95 327.25 35.8 L331.1 35.65 326.35 43.85 335.45 30.95 338.0 32.6 323.1 57.75 299.8 95.9 283.05 123.55 Q265.8 152.05 249.1 180.6 219.15 231.7 190.7 282.7 L184.3 292.1 176.65 289.65 181.1 282.15 188.65 270.0 219.75 219.3 227.25 207.0 247.2 173.7" fill="none" stroke="#000000" stroke-linecap="round" stroke-linejoin="miter" stroke-miterlimit="5.0" stroke-opacity="0.4" stroke-width="0.30000000000000004"/>
      <path d="M247.2 173.7 L245.65 177.15 Q242.05 183.65 240.6 186.85 L237.65 194.1 Q236.0 198.4 230.95 203.6 L227.25 207.0 M299.8 95.9 Q300.95 92.05 302.8 87.8 307.2 77.55 311.95 72.75 315.65 68.9 323.1 57.75 M283.05 123.55 L279.65 126.3 Q272.4 132.85 268.95 140.85 264.75 150.4 261.35 155.0 258.1 158.65 256.45 161.4 253.75 165.85 249.1 180.6 M188.65 270.0 Q192.15 268.05 195.9 263.65 L206.3 249.1 Q212.2 240.8 215.7 231.35 L219.75 219.3" fill="none" stroke="#000000" stroke-linecap="round" stroke-linejoin="miter" stroke-miterlimit="5.0" stroke-opacity="0.2" stroke-width="0.2"/>
      <path d="M197.6 280.35 Q192.95 283.25 187.05 283.5 181.9 283.65 176.7 281.95 172.85 280.65 168.5 279.65 L163.1 278.45 Q140.6 272.35 134.8 262.75 133.0 259.75 133.05 256.8 L133.5 254.4 Q145.1 249.05 154.6 250.0 164.1 250.95 178.55 256.65 185.2 259.5 185.85 259.9 189.75 257.9 194.25 259.85 194.85 262.6 191.55 263.75 197.05 267.65 198.45 270.05 199.85 272.55 195.7 272.75 200.5 275.15 196.85 277.95 L197.55 279.0 197.6 280.35 M187.6 277.8 Q187.85 278.6 190.95 278.95 194.0 279.25 196.75 277.9 L196.8 277.9 196.85 277.95 196.8 277.9 196.75 277.9 Q194.0 279.25 190.95 278.95 187.85 278.6 187.6 277.8 M195.7 272.75 Q196.25 272.45 194.0 271.45 191.4 270.2 188.8 269.55 191.4 270.2 194.0 271.45 196.25 272.45 195.7 272.75" fill="url(#decoration23-gradient14)" fill-rule="evenodd" stroke="none"/>
      <path d="M133.5 254.4 L133.05 256.8 Q133.0 259.75 134.8 262.75 140.6 272.35 163.1 278.45 L168.5 279.65 Q172.85 280.65 176.7 281.95 181.9 283.65 187.05 283.5 192.95 283.25 197.6 280.35 195.75 283.2 192.75 284.45 190.35 285.35 182.15 286.8 L164.1 287.6 Q148.8 286.65 135.95 280.9 131.85 279.05 128.25 276.85 L124.9 274.7 Q125.3 270.9 129.45 262.3 L133.5 254.4" fill="#422f1f" fill-rule="evenodd" stroke="none"/>
      <path d="M124.9 274.7 L128.25 276.85 Q131.85 279.05 135.95 280.9 148.8 286.65 164.1 287.6 L182.15 286.8 Q190.35 285.35 192.75 284.45 195.75 283.2 197.6 280.35 L197.55 279.0 196.85 277.95 196.8 277.9 196.75 277.9 Q194.0 279.25 190.95 278.95 187.85 278.6 187.6 277.8 M188.8 269.55 Q191.4 270.2 194.0 271.45 196.25 272.45 195.7 272.75 199.85 272.55 198.45 270.05 197.05 267.65 191.55 263.75 194.85 262.6 194.25 259.85 189.75 257.9 185.85 259.9 185.2 259.5 178.55 256.65 164.1 250.95 154.6 250.0 M195.7 272.75 Q200.5 275.15 196.85 277.95" fill="none" stroke="#000000" stroke-linecap="round" stroke-linejoin="miter" stroke-miterlimit="5.0" stroke-opacity="0.3019608" stroke-width="0.30000000000000004"/>
      <path d="M26.15 425.35 L37.6 427.5 Q50.25 429.45 64.4 429.45 L94.15 428.3 121.45 426.4 Q155.75 425.5 168.95 420.8 L175.9 417.65 Q178.85 416.3 182.5 416.3 L205.7 413.55 249.7 408.3 Q276.05 405.3 286.6 393.4 295.25 383.7 294.05 366.65 L326.75 367.95 368.3 369.25 443.8 368.7 522.2 368.0 530.2 433.8 Q425.1 436.95 248.4 440.6 68.1 444.3 -27.5 445.2 -26.4 443.9 -23.5 437.6 -20.45 430.95 -20.45 429.25 L-20.4 429.1 Q-11.95 431.05 -9.4 431.05 -0.95 431.05 6.35 429.35 18.2 426.65 26.15 425.5 L26.15 425.35" fill="#45ffff" fill-opacity="0.19215687" fill-rule="evenodd" stroke="none"/>
      <path d="M26.15 425.35 L37.6 427.5 Q50.25 429.45 64.4 429.45 L94.15 428.3 121.45 426.4 Q155.75 425.5 168.95 420.8 L175.9 417.65 Q178.85 416.3 182.5 416.3 L205.7 413.55 249.7 408.3 Q276.05 405.3 286.6 393.4 295.25 383.7 294.05 366.65 L326.75 367.95 368.3 369.25 443.8 368.7 522.2 368.0 530.2 433.8 Q425.1 436.95 248.4 440.6 68.1 444.3 -27.5 445.2 -26.4 443.9 -23.5 437.6 -20.45 430.95 -20.45 429.25 L-20.4 429.1 Q-11.95 431.05 -9.4 431.05 -0.95 431.05 6.35 429.35 18.2 426.65 26.15 425.5 L25.05 425.5 25.7 425.4 26.15 425.35 Z" fill="none" stroke="#000000" stroke-linecap="round" stroke-linejoin="round" stroke-opacity="0.3019608" stroke-width="0.5"/>
      <path d="M411.9 323.75 Q412.05 321.0 416.0 319.95 L420.2 319.5 Q420.65 320.85 419.95 323.45 419.1 326.55 417.15 326.55 415.35 326.55 413.6 325.4 412.4 324.65 411.9 323.75 M424.45 362.9 L423.4 368.7 417.05 368.95 Q410.45 368.6 405.85 366.1 L406.3 361.7 Q408.35 362.55 415.45 362.95 422.1 363.3 424.45 362.9" fill="#fce1c7" fill-rule="evenodd" stroke="none"/>
      <path d="M416.7 333.25 Q415.2 333.15 413.85 331.95 411.2 329.45 411.9 323.75 412.4 324.65 413.6 325.4 415.35 326.55 417.15 326.55 419.1 326.55 419.95 323.45 420.65 320.85 420.2 319.5 422.0 319.95 423.4 321.4 425.5 323.5 425.5 326.35 425.5 331.5 420.5 333.15 L418.35 333.3 416.7 333.25" fill="#c4ae9a" fill-rule="evenodd" stroke="none"/>
      <path d="M416.7 348.5 L416.7 333.25 418.35 333.3 420.5 333.15 420.5 348.15 416.7 348.5" fill="#ab5d00" fill-rule="evenodd" stroke="none"/>
      <path d="M424.75 349.3 Q426.9 350.35 428.75 352.25 431.6 355.2 432.5 359.1 431.35 361.1 426.8 362.35 L424.45 362.9 424.75 355.9 424.75 349.3 M433.45 363.6 L433.55 366.2 433.55 368.65 Q432.05 370.05 428.9 371.2 425.45 372.45 421.95 372.85 L423.4 368.7 Q426.15 368.2 428.3 367.35 431.75 365.95 433.45 363.6" fill="#cf8122" fill-rule="evenodd" stroke="none"/>
      <path d="M432.5 359.1 L433.45 363.6 Q431.75 365.95 428.3 367.35 426.15 368.2 423.4 368.7 L424.45 362.9 426.8 362.35 Q431.35 361.1 432.5 359.1" fill="#d6bea8" fill-rule="evenodd" stroke="none"/>
      <path d="M433.55 368.65 Q433.0 374.9 429.55 379.5 426.3 383.85 421.35 384.75 L418.8 385.0 Q413.65 384.45 409.9 379.5 L408.9 378.05 Q409.75 378.3 415.4 376.2 421.25 374.05 421.95 372.85 425.45 372.45 428.9 371.2 432.05 370.05 433.55 368.65" fill="#d4a56c" fill-rule="evenodd" stroke="none"/>
      <path d="M407.8 357.05 Q408.65 355.15 409.9 353.45 412.85 349.55 416.7 348.5 L420.5 348.15 Q422.75 348.25 424.75 349.3 L424.75 355.9 424.45 362.9 Q422.1 363.3 415.45 362.95 408.35 362.55 406.3 361.7 406.8 359.2 407.8 357.05 M423.4 368.7 L421.95 372.85 414.15 371.5 406.05 369.6 405.85 366.1 Q410.45 368.6 417.05 368.95 L423.4 368.7" fill="#f59929" fill-rule="evenodd" stroke="none"/>
      <path d="M421.35 384.75 L421.35 399.55 418.8 408.95 418.8 385.0 421.35 384.75" fill="#e0a665" fill-rule="evenodd" stroke="none"/>
      <path d="M406.05 369.6 L414.15 371.5 421.95 372.85 Q421.25 374.05 415.4 376.2 409.75 378.3 408.9 378.05 406.6 374.3 406.05 369.6" fill="#ffc782" fill-rule="evenodd" stroke="none"/>
      <path d="M320.0 47.25 Q319.7 50.25 321.3 51.8 322.6 53.0 324.75 53.0 326.65 53.0 327.3 51.9 327.7 51.2 328.15 48.6 M326.25 58.75 L331.5 76.1 Q337.15 94.4 338.75 103.6 364.55 251.65 392.9 324.65 401.0 345.55 407.8 357.05 408.65 355.15 409.9 353.45 412.85 349.55 416.7 348.5 L416.7 333.25 Q415.2 333.15 413.85 331.95 411.2 329.45 411.9 323.75 412.05 321.0 416.0 319.95 L420.2 319.5 Q422.0 319.95 423.4 321.4 425.5 323.5 425.5 326.35 425.5 331.5 420.5 333.15 L420.5 348.15 Q422.75 348.25 424.75 349.3 426.9 350.35 428.75 352.25 431.6 355.2 432.5 359.1 L433.45 363.6 433.55 366.2 433.55 368.65 M420.5 333.15 L418.35 333.3 416.7 333.25 M420.5 348.15 L416.7 348.5 M406.05 369.6 L405.85 366.1 406.3 361.7 Q406.8 359.2 407.8 357.05 M317.05 50.55 Q316.95 54.65 317.3 56.3 318.1 60.25 321.15 60.25 323.4 60.25 325.75 57.8 M320.0 64.5 Q318.35 67.45 317.8 70.7 L317.25 77.05 Q316.45 86.9 311.75 97.8" fill="none" stroke="#000000" stroke-linecap="round" stroke-linejoin="round" stroke-opacity="0.4" stroke-width="1.0"/>
      <path d="M433.55 368.65 Q433.0 374.9 429.55 379.5 426.3 383.85 421.35 384.75 L421.35 399.55 418.8 408.95 M406.05 369.6 Q406.6 374.3 408.9 378.05 L409.9 379.5 Q413.65 384.45 418.8 385.0 L421.35 384.75 M418.8 385.0 L418.8 408.95" fill="none" stroke="#000000" stroke-linecap="round" stroke-linejoin="round" stroke-opacity="0.11372549" stroke-width="1.0"/>
      <path d="M418.8 408.95 L419.5 437.2" fill="none" stroke="#000000" stroke-linecap="round" stroke-linejoin="round" stroke-opacity="0.15294118" stroke-width="1.0"/>
      <path d="M358.0 375.1 Q354.55 375.7 348.55 379.15 340.4 383.85 340.4 388.7 340.4 389.9 342.55 392.45 344.9 395.25 348.25 397.6 357.35 404.0 365.85 401.95 M398.25 375.1 Q397.05 375.25 396.25 376.65 395.35 378.2 396.25 379.6 398.75 383.7 413.1 383.0 M444.5 373.75 Q451.8 377.5 449.85 381.9 448.05 385.95 439.5 388.95 430.85 392.0 419.75 392.45 407.5 392.95 396.9 389.9 M473.65 383.9 Q473.65 385.25 472.55 387.15 471.1 389.55 469.05 389.9" fill="none" stroke="#000000" stroke-linecap="round" stroke-linejoin="round" stroke-opacity="0.15294118" stroke-width="1.0"/>
    </g>
    <linearGradient gradientTransform="matrix(-0.0382, -0.2798, 0.2647, -0.0361, 198.45, 61.0)" gradientUnits="userSpaceOnUse" id="decoration23-gradient3" spreadMethod="pad" x1="-819.2" x2="819.2">
      <stop offset="0.0" stop-color="#d6faff"/>
      <stop offset="0.3137254901960784" stop-color="#9de2ea"/>
      <stop offset="1.0" stop-color="#00b5e3"/>
    </linearGradient>
    <radialGradient cx="0" cy="0" gradientTransform="matrix(0.067, 0.0228, -0.02, 0.0587, 171.6, 315.25)" gradientUnits="userSpaceOnUse" id="decoration23-gradient4" r="819.2" spreadMethod="pad">
      <stop offset="0.0392156862745098" stop-color="#8f633a"/>
      <stop offset="1.0" stop-color="#66482c"/>
    </radialGradient>
    <linearGradient gradientTransform="matrix(-0.0104, -0.0388, 0.0365, -0.0098, 173.35, 279.7)" gradientUnits="userSpaceOnUse" id="decoration23-gradient5" spreadMethod="pad" x1="-819.2" x2="819.2">
      <stop offset="0.06666666666666667" stop-color="#ffeeb5"/>
      <stop offset="1.0" stop-color="#e5d6a3"/>
    </linearGradient>
    <radialGradient cx="0" cy="0" gradientTransform="matrix(0.0201, 0.0, 0.0, 0.0201, 211.5, 274.0)" gradientUnits="userSpaceOnUse" id="decoration23-gradient6" r="819.2" spreadMethod="pad">
      <stop offset="0.0392156862745098" stop-color="#8f633a"/>
      <stop offset="1.0" stop-color="#66482c"/>
    </radialGradient>
    <linearGradient gradientTransform="matrix(-0.0078, 0.0135, -0.0259, -0.0149, 194.1, 333.2)" gradientUnits="userSpaceOnUse" id="decoration23-gradient7" spreadMethod="pad" x1="-819.2" x2="819.2">
      <stop offset="0.06666666666666667" stop-color="#b69d65"/>
      <stop offset="1.0" stop-color="#bfaf8b"/>
    </linearGradient>
    <linearGradient gradientTransform="matrix(-0.0154, 0.0429, -0.0237, -0.0085, 167.25, 173.2)" gradientUnits="userSpaceOnUse" id="decoration23-gradient8" spreadMethod="pad" x1="-819.2" x2="819.2">
      <stop offset="0.0" stop-color="#a16e2f"/>
      <stop offset="0.12941176470588237" stop-color="#94662f"/>
      <stop offset="0.21176470588235294" stop-color="#885e2f"/>
      <stop offset="1.0" stop-color="#66482c"/>
    </linearGradient>
    <radialGradient cx="0" cy="0" gradientTransform="matrix(-0.0158, 0.0017, 1.0E-4, 0.0178, 136.25, 197.0)" gradientUnits="userSpaceOnUse" id="decoration23-gradient9" r="819.2" spreadMethod="pad">
      <stop offset="0.0" stop-color="#fcf1e2"/>
      <stop offset="1.0" stop-color="#bdb4a9"/>
    </radialGradient>
    <linearGradient gradientTransform="matrix(0.0, 0.0063, 0.0084, -8.0E-4, 141.7, 200.75)" gradientUnits="userSpaceOnUse" id="decoration23-gradient10" spreadMethod="pad" x1="-819.2" x2="819.2">
      <stop offset="0.0" stop-color="#000000"/>
      <stop offset="1.0" stop-color="#1f1717"/>
    </linearGradient>
    <linearGradient gradientTransform="matrix(0.0822, -0.0863, 0.0853, 0.0589, 131.75, 182.3)" gradientUnits="userSpaceOnUse" id="decoration23-gradient11" spreadMethod="pad" x1="-819.2" x2="819.2">
      <stop offset="0.0" stop-color="#4a3624"/>
      <stop offset="1.0" stop-color="#382719"/>
    </linearGradient>
    <linearGradient gradientTransform="matrix(0.0137, -0.0287, 0.0583, 0.0125, 56.45, 164.2)" gradientUnits="userSpaceOnUse" id="decoration23-gradient12" spreadMethod="pad" x1="-819.2" x2="819.2">
      <stop offset="0.0" stop-color="#cc9b72"/>
      <stop offset="1.0" stop-color="#967254"/>
    </linearGradient>
    <linearGradient gradientTransform="matrix(0.0, -0.0499, 0.0505, -0.0091, 67.7, 188.15)" gradientUnits="userSpaceOnUse" id="decoration23-gradient13" spreadMethod="pad" x1="-819.2" x2="819.2">
      <stop offset="0.0" stop-color="#edc49a"/>
      <stop offset="1.0" stop-color="#fad5b1"/>
    </linearGradient>
    <linearGradient gradientTransform="matrix(-0.0084, 0.0309, -0.0136, -0.0055, 174.6, 249.85)" gradientUnits="userSpaceOnUse" id="decoration23-gradient14" spreadMethod="pad" x1="-819.2" x2="819.2">
      <stop offset="0.0" stop-color="#a16e2f"/>
      <stop offset="0.12941176470588237" stop-color="#94662f"/>
      <stop offset="0.22745098039215686" stop-color="#885e2f"/>
      <stop offset="1.0" stop-color="#66482c"/>
    </linearGradient>
    <g id="decoration23-sprite1" transform="matrix(1.0, 0.0, 0.0, 1.0, 0.0, 0.0)">
      <use height="433.55" transform="matrix(1.0, 0.0, 0.0, 1.0, 0.0, 0.0)" width="545.4" xlink:href="#decoration23-shape3"/>
    </g>
    <g id="decoration23-shape3" transform="matrix(1.0, 0.0, 0.0, 1.0, 0.0, 0.0)">
      <path d="M4.8 316.6 L19.95 315.7 5.4 299.95 Q10.35 151.5 0.0 0.0 264.3 11.1 545.4 0.0 527.25 215.05 544.45 433.55 L337.65 433.55 327.0 421.45 316.05 433.55 65.0 433.55 Q25.7 418.7 16.5 388.05 L0.0 403.65 Q3.05 360.25 4.8 316.6" fill="url(#decoration23-gradient15)" fill-rule="evenodd" stroke="none"/>
    </g>
    <radialGradient cx="0" cy="0" fx="-1536.0" fy="0" gradientTransform="matrix(0.5553, 0.0, 0.0, 0.5553, 189.65, 95.95)" gradientUnits="userSpaceOnUse" id="decoration23-gradient15" r="819.2" spreadMethod="pad">
      <stop offset="0.0" stop-color="#ffffff"/>
      <stop offset="1.0" stop-color="#000000"/>
    </radialGradient>
    <g id="decoration23-shape4" transform="matrix(1.0, 0.0, 0.0, 1.0, 70.05, 57.9)">
      <path d="M62.65 49.45 L61.95 49.65 60.55 49.45 59.85 47.9 60.25 48.65 61.6 48.9 63.15 48.0 63.9 47.0 64.0 46.5 63.6 45.3 64.4 46.85 64.4 47.3 Q64.3 48.1 63.55 48.8 L63.45 48.9 62.65 49.45 63.45 48.9 64.2 51.5 62.65 49.45" fill="#919189" fill-rule="evenodd" stroke="none"/>
      <path d="M63.6 45.3 L64.0 46.5 63.9 47.0 63.15 48.0 61.6 48.9 60.25 48.65 59.85 47.9 59.8 47.85 Q59.75 47.65 59.85 47.35 59.95 46.6 60.65 45.9 61.35 45.2 62.25 45.0 63.1 44.85 63.6 45.3" fill="#babab0" fill-rule="evenodd" stroke="none"/>
      <path d="M64.2 51.5 L67.95 52.9 69.15 51.9 70.1 52.5 Q69.5 54.35 67.7 55.15 L66.65 54.6 67.45 53.65 64.2 51.5" fill="#000000" fill-opacity="0.3019608" fill-rule="evenodd" stroke="none"/>
      <path d="M59.85 47.9 L60.55 49.45 61.95 49.65 62.65 49.45 63.45 48.9 63.55 48.8 Q64.3 48.1 64.4 47.3 L64.4 46.85 63.6 45.3 M59.85 47.9 L59.8 47.85 Q59.75 47.65 59.85 47.35 59.95 46.6 60.65 45.9 61.35 45.2 62.25 45.0 63.1 44.85 63.6 45.3 M64.2 51.5 L62.65 49.45 M64.2 51.5 L63.45 48.9" fill="none" stroke="#000000" stroke-linecap="round" stroke-linejoin="round" stroke-opacity="0.4509804" stroke-width="0.30000000000000004"/>
      <path d="M58.65 -53.5 L58.6 -53.55 58.65 -54.05 Q58.75 -54.8 59.45 -55.5 60.15 -56.2 61.05 -56.4 61.9 -56.55 62.4 -56.1 L62.8 -54.9 62.7 -54.4 61.95 -53.4 Q61.3 -52.7 60.4 -52.5 59.55 -52.35 59.05 -52.75 L58.65 -53.5" fill="#babab0" fill-rule="evenodd" stroke="none"/>
      <path d="M58.65 -53.5 L59.05 -52.75 Q59.55 -52.35 60.4 -52.5 61.3 -52.7 61.95 -53.4 L62.7 -54.4 62.8 -54.9 62.4 -56.1 63.2 -54.55 63.2 -54.1 Q63.1 -53.3 62.35 -52.6 L62.25 -52.5 63.0 -49.9 61.45 -51.95 60.75 -51.75 Q59.9 -51.55 59.35 -51.95 59.05 -52.3 58.65 -53.5 M62.25 -52.5 L61.45 -51.95 62.25 -52.5" fill="#919189" fill-rule="evenodd" stroke="none"/>
      <path d="M63.0 -49.9 L66.75 -48.5 67.95 -49.5 68.9 -48.9 Q68.3 -47.05 66.5 -46.25 L65.45 -46.8 66.25 -47.75 Q64.65 -48.8 63.0 -49.9" fill="#000000" fill-opacity="0.3019608" fill-rule="evenodd" stroke="none"/>
      <path d="M62.4 -56.1 Q61.9 -56.55 61.05 -56.4 60.15 -56.2 59.45 -55.5 58.75 -54.8 58.65 -54.05 L58.6 -53.55 58.65 -53.5 M62.4 -56.1 L63.2 -54.55 63.2 -54.1 Q63.1 -53.3 62.35 -52.6 L62.25 -52.5 63.0 -49.9 61.45 -51.95 60.75 -51.75 Q59.9 -51.55 59.35 -51.95 59.05 -52.3 58.65 -53.5 M61.45 -51.95 L62.25 -52.5" fill="none" stroke="#000000" stroke-linecap="round" stroke-linejoin="round" stroke-opacity="0.4509804" stroke-width="0.30000000000000004"/>
      <path d="M-66.1 -57.4 L-65.7 -56.2 -65.8 -55.7 -66.55 -54.7 Q-67.2 -54.0 -68.1 -53.8 -68.95 -53.65 -69.45 -54.05 L-69.85 -54.8 -69.9 -54.85 -69.85 -55.35 Q-69.75 -56.1 -69.05 -56.8 L-67.45 -57.7 Q-66.6 -57.85 -66.1 -57.4" fill="#babab0" fill-rule="evenodd" stroke="none"/>
      <path d="M-69.85 -54.8 L-69.45 -54.05 Q-68.95 -53.65 -68.1 -53.8 -67.2 -54.0 -66.55 -54.7 L-65.8 -55.7 -65.7 -56.2 -66.1 -57.4 -65.3 -55.85 -65.3 -55.4 Q-65.4 -54.6 -66.15 -53.9 L-66.25 -53.8 Q-66.6 -53.45 -67.05 -53.25 -66.6 -53.45 -66.25 -53.8 L-65.5 -51.2 -67.05 -53.25 -67.75 -53.05 -69.15 -53.25 -69.85 -54.8" fill="#919189" fill-rule="evenodd" stroke="none"/>
      <path d="M-65.5 -51.2 L-61.75 -49.8 -60.55 -50.8 -59.6 -50.2 Q-60.2 -48.35 -62.0 -47.55 L-63.05 -48.1 -62.25 -49.05 -65.5 -51.2" fill="#000000" fill-opacity="0.3019608" fill-rule="evenodd" stroke="none"/>
      <path d="M-66.1 -57.4 Q-66.6 -57.85 -67.45 -57.7 L-69.05 -56.8 Q-69.75 -56.1 -69.85 -55.35 L-69.9 -54.85 -69.85 -54.8 -69.15 -53.25 -67.75 -53.05 -67.05 -53.25 Q-66.6 -53.45 -66.25 -53.8 L-66.15 -53.9 Q-65.4 -54.6 -65.3 -55.4 L-65.3 -55.85 -66.1 -57.4 M-65.5 -51.2 L-67.05 -53.25 M-65.5 -51.2 L-66.25 -53.8" fill="none" stroke="#000000" stroke-linecap="round" stroke-linejoin="round" stroke-opacity="0.4509804" stroke-width="0.30000000000000004"/>
    </g>
  </defs>
</svg>
