<?xml version="1.0" encoding="UTF-8" standalone="no"?>
<svg xmlns:ffdec="https://www.free-decompiler.com/flash" xmlns:xlink="http://www.w3.org/1999/xlink" ffdec:objectType="frame" height="33.25px" width="33.55px" xmlns="http://www.w3.org/2000/svg">
  <g transform="matrix(1.0, 0.0, 0.0, 1.0, 16.7, 33.1)">
    <use ffdec:characterId="971" height="25.75" transform="matrix(1.0, 0.0, 0.0, 1.0, -10.15, -25.6)" width="14.35" xlink:href="#decoration230-sprite0"/>
    <use ffdec:characterId="972" height="24.15" transform="matrix(1.0, 0.0, 0.0, 1.0, -16.7, -33.1)" width="33.55" xlink:href="#decoration230-shape1"/>
  </g>
  <defs>
    <g id="decoration230-sprite0" transform="matrix(1.0, 0.0, 0.0, 1.0, 4.95, 23.95)">
      <use ffdec:characterId="970" height="25.75" transform="matrix(1.0, 0.0, 0.0, 1.0, -4.95, -23.95)" width="14.35" xlink:href="#decoration230-shape0"/>
    </g>
    <g id="decoration230-shape0" transform="matrix(1.0, 0.0, 0.0, 1.0, 4.95, 23.95)">
      <path d="M7.3 -8.25 L5.8 1.7 4.55 1.7 7.0 -13.75 Q8.15 -20.55 9.3 -23.85 L7.3 -8.25" fill="#42651b" fill-rule="evenodd" stroke="none"/>
      <path d="M7.3 -8.25 L5.8 1.7 4.55 1.7 7.0 -13.75 Q8.15 -20.55 9.3 -23.85 L7.3 -8.25 Z" fill="none" stroke="#000000" stroke-linecap="round" stroke-linejoin="round" stroke-opacity="0.3882353" stroke-width="0.2"/>
      <path d="M-3.9 -13.05 L-4.85 -14.15 -1.95 -11.75 Q4.65 -4.55 5.45 1.7 L4.15 1.7 Q4.1 -4.75 -3.9 -13.05" fill="#42651b" fill-rule="evenodd" stroke="none"/>
      <path d="M-3.9 -13.05 Q4.1 -4.75 4.15 1.7 L5.45 1.7 Q4.65 -4.55 -1.95 -11.75 L-4.85 -14.15 -3.9 -13.05 Z" fill="none" stroke="#000000" stroke-linecap="round" stroke-linejoin="round" stroke-opacity="0.3882353" stroke-width="0.2"/>
    </g>
    <g id="decoration230-shape1" transform="matrix(1.0, 0.0, 0.0, 1.0, 16.7, 33.1)">
      <path d="M-10.7 -16.8 Q-10.3 -18.45 -9.3 -18.25 L-8.5 -17.95 -8.65 -17.35 Q-9.75 -17.8 -10.0 -16.85 L-10.0 -16.1 -10.1 -16.1 -10.7 -16.8 -10.1 -16.1 Q-11.15 -16.35 -11.1 -15.8 -10.85 -15.2 -10.95 -14.9 L-11.6 -14.85 Q-12.3 -16.15 -11.5 -16.6 L-10.7 -16.8" fill="#528229" fill-rule="evenodd" stroke="none"/>
      <path d="M-10.1 -16.1 L-10.0 -16.1 -10.0 -16.85 Q-9.75 -17.8 -8.65 -17.35 L-9.25 -14.5 -10.95 -14.9 Q-10.85 -15.2 -11.1 -15.8 -11.15 -16.35 -10.1 -16.1 M-9.25 -14.5 Q-9.55 -15.4 -10.0 -16.1 -9.55 -15.4 -9.25 -14.5" fill="#42651b" fill-rule="evenodd" stroke="none"/>
      <path d="M-8.5 -17.95 L-9.3 -18.25 Q-10.3 -18.45 -10.7 -16.8 L-11.5 -16.6 Q-12.3 -16.15 -11.6 -14.85 L-14.25 -14.85 Q-15.1 -14.95 -15.45 -15.6 -15.85 -16.2 -15.5 -17.05 L-14.25 -18.3 -12.3 -19.05 -11.65 -19.85 -10.7 -20.85 Q-9.85 -21.3 -9.0 -21.25 -8.15 -21.15 -7.9 -20.7 -7.65 -20.2 -7.95 -19.35 L-8.5 -17.95 M-11.25 -17.3 L-10.7 -16.8 -11.25 -17.3" fill="url(#decoration230-gradient0)" fill-rule="evenodd" stroke="none"/>
      <path d="M-10.7 -16.8 L-10.1 -16.1 M-8.65 -17.35 L-8.5 -17.95 -7.95 -19.35 Q-7.65 -20.2 -7.9 -20.7 -8.15 -21.15 -9.0 -21.25 -9.85 -21.3 -10.7 -20.85 L-11.65 -19.85 -12.3 -19.05 -14.25 -18.3 -15.5 -17.05 Q-15.85 -16.2 -15.45 -15.6 -15.1 -14.95 -14.25 -14.85 L-11.6 -14.85 -10.95 -14.9 -9.25 -14.5 -8.65 -17.35 M-10.7 -16.8 L-11.25 -17.3 M-10.0 -16.1 Q-9.55 -15.4 -9.25 -14.5" fill="none" stroke="#000000" stroke-linecap="round" stroke-linejoin="round" stroke-opacity="0.29803923" stroke-width="0.2"/>
      <path d="M-10.7 -14.7 L-11.2 -14.55 -11.65 -14.35 -11.2 -14.55 -10.7 -14.7 -10.6 -14.7 -10.65 -14.1 Q-10.35 -13.6 -9.35 -13.75 L-10.0 -12.35 Q-10.65 -12.15 -10.95 -13.15 L-11.6 -13.1 Q-12.2 -13.25 -11.65 -14.35 -12.8 -14.6 -12.6 -15.0 L-12.05 -15.65 -10.65 -15.5 Q-12.05 -15.1 -10.7 -14.7" fill="#528229" fill-rule="evenodd" stroke="none"/>
      <path d="M-10.7 -14.7 Q-12.05 -15.1 -10.65 -15.5 L-9.0 -14.6 -9.35 -13.75 Q-10.35 -13.6 -10.65 -14.1 L-10.6 -14.7 -10.7 -14.7 M-10.6 -14.7 L-9.0 -14.6 -10.6 -14.7" fill="#42651b" fill-rule="evenodd" stroke="none"/>
      <path d="M-12.05 -15.65 L-12.6 -15.0 Q-12.8 -14.6 -11.65 -14.35 -12.2 -13.25 -11.6 -13.1 L-10.95 -13.15 Q-10.65 -12.15 -10.0 -12.35 -11.1 -10.35 -12.0 -9.75 -13.3 -8.95 -14.05 -9.05 -14.9 -9.2 -15.4 -9.9 -15.9 -10.55 -15.85 -11.4 L-15.8 -12.0 -16.25 -12.6 -16.6 -13.55 Q-16.65 -14.25 -15.85 -14.75 -15.1 -15.35 -12.85 -15.6 L-12.05 -15.65" fill="url(#decoration230-gradient1)" fill-rule="evenodd" stroke="none"/>
      <path d="M-11.65 -14.35 L-11.2 -14.55 -10.7 -14.7 M-10.65 -15.5 L-12.05 -15.65 -12.85 -15.6 Q-15.1 -15.35 -15.85 -14.75 -16.65 -14.25 -16.6 -13.55 L-16.25 -12.6 -15.8 -12.0 -15.85 -11.4 Q-15.9 -10.55 -15.4 -9.9 -14.9 -9.2 -14.05 -9.05 -13.3 -8.95 -12.0 -9.75 -11.1 -10.35 -10.0 -12.35 L-9.35 -13.75 -9.0 -14.6 -10.6 -14.7 M-9.0 -14.6 L-10.65 -15.5" fill="none" stroke="#000000" stroke-linecap="round" stroke-linejoin="round" stroke-opacity="0.29803923" stroke-width="0.2"/>
      <path d="M-10.6 -14.7 L-10.7 -14.7" fill="none" stroke="#000000" stroke-linecap="round" stroke-linejoin="round" stroke-opacity="0.29803923" stroke-width="0.1"/>
      <path d="M-6.35 -15.15 L-8.0 -14.8 Q-7.5 -15.8 -7.95 -16.2 L-8.55 -16.3 -8.55 -16.35 -7.9 -17.3 -8.55 -16.35 Q-8.5 -17.85 -9.3 -16.55 L-9.0 -17.95 -8.2 -18.4 Q-7.75 -18.55 -7.9 -17.3 -6.55 -17.65 -6.6 -17.0 L-6.85 -16.3 Q-5.95 -15.8 -6.35 -15.15" fill="#528229" fill-rule="evenodd" stroke="none"/>
      <path d="M-8.0 -14.8 L-8.95 -14.6 Q-9.35 -15.55 -9.3 -16.55 -8.5 -17.85 -8.55 -16.35 L-8.55 -16.3 -7.95 -16.2 Q-7.5 -15.8 -8.0 -14.8 M-8.95 -14.6 L-8.55 -16.3 -8.95 -14.6" fill="#42651b" fill-rule="evenodd" stroke="none"/>
      <path d="M-9.0 -17.95 L-8.75 -18.8 Q-7.8 -21.1 -6.95 -21.75 -6.15 -22.35 -5.4 -22.2 -4.7 -22.05 -4.35 -21.6 L-4.1 -21.05 Q-2.55 -20.75 -2.15 -20.2 -1.65 -19.55 -1.7 -18.65 -1.85 -17.8 -3.1 -16.65 -3.95 -15.85 -6.35 -15.15 -5.95 -15.8 -6.85 -16.3 L-6.6 -17.0 Q-6.55 -17.65 -7.9 -17.3 -7.75 -18.55 -8.2 -18.4 L-9.0 -17.95" fill="url(#decoration230-gradient2)" fill-rule="evenodd" stroke="none"/>
      <path d="M-9.0 -17.95 L-8.75 -18.8 Q-7.8 -21.1 -6.95 -21.75 -6.15 -22.35 -5.4 -22.2 -4.7 -22.05 -4.35 -21.6 L-4.1 -21.05 Q-2.55 -20.75 -2.15 -20.2 -1.65 -19.55 -1.7 -18.65 -1.85 -17.8 -3.1 -16.65 -3.95 -15.85 -6.35 -15.15 L-8.0 -14.8 -8.95 -14.6 Q-9.35 -15.55 -9.3 -16.55 L-9.0 -17.95 M-8.55 -16.35 L-8.55 -16.3 -8.95 -14.6 M-7.9 -17.3 L-8.55 -16.35" fill="none" stroke="#000000" stroke-linecap="round" stroke-linejoin="round" stroke-opacity="0.29803923" stroke-width="0.2"/>
      <path d="M-2.75 -30.1 L-2.8 -30.95 Q-2.65 -32.0 -1.55 -32.6 -0.45 -33.15 1.0 -32.95 L4.0 -32.1 5.4 -32.4 7.4 -32.7 Q8.85 -32.45 9.75 -31.7 10.65 -30.8 10.5 -30.0 L10.5 -29.9 7.85 -28.65 7.05 -28.1 6.75 -28.5 Q5.75 -29.6 3.85 -28.0 3.25 -28.45 2.65 -28.55 1.8 -28.7 1.4 -27.75 L1.15 -27.95 Q-1.15 -29.65 -2.75 -30.1 M3.65 -29.1 L3.85 -28.0 3.65 -29.1" fill="url(#decoration230-gradient3)" fill-rule="evenodd" stroke="none"/>
      <path d="M7.4 -22.35 Q6.35 -22.8 5.15 -23.35 6.65 -24.05 6.45 -24.95 L5.85 -25.6 5.9 -25.65 Q6.6 -26.5 6.4 -26.7 L5.15 -26.55 6.25 -27.45 Q5.5 -28.15 4.65 -27.45 L3.95 -26.6 3.9 -26.75 Q2.9 -27.9 2.45 -27.25 L2.35 -26.85 1.4 -27.75 2.35 -26.85 2.65 -26.55 2.25 -26.7 Q1.2 -27.0 1.55 -26.3 L1.95 -25.65 2.0 -25.6 1.45 -24.95 Q1.3 -24.05 2.65 -23.35 L0.6 -22.35 Q-0.3 -22.7 0.25 -24.1 L-0.6 -24.65 Q-1.15 -25.35 0.55 -26.15 -0.35 -27.2 -0.15 -27.55 L0.0 -27.7 1.15 -27.95 1.4 -27.75 Q1.8 -28.7 2.65 -28.55 3.25 -28.45 3.85 -28.0 L3.9 -26.75 3.85 -28.0 Q5.75 -29.6 6.75 -28.5 L7.05 -28.1 6.8 -27.95 7.2 -27.85 8.0 -27.7 8.1 -27.7 Q8.75 -27.45 7.45 -26.15 9.35 -25.35 8.75 -24.65 L7.8 -24.1 Q8.4 -22.7 7.4 -22.35 M1.95 -25.65 L0.55 -26.15 1.95 -25.65 M6.8 -27.95 L6.25 -27.45 6.8 -27.95 M5.9 -25.65 L7.45 -26.15 5.9 -25.65" fill="#528229" fill-rule="evenodd" stroke="none"/>
      <path d="M5.15 -23.35 L3.85 -24.0 4.1 -24.7 3.7 -24.35 3.8 -24.0 2.65 -23.35 Q1.3 -24.05 1.45 -24.95 L2.0 -25.6 1.95 -25.65 1.55 -26.3 Q1.2 -27.0 2.25 -26.7 L2.65 -26.55 2.35 -26.85 2.45 -27.25 Q2.9 -27.9 3.9 -26.75 L3.95 -26.6 4.65 -27.45 Q5.5 -28.15 6.25 -27.45 L5.15 -26.55 6.4 -26.7 Q6.6 -26.5 5.9 -25.65 L5.85 -25.6 6.45 -24.95 Q6.65 -24.05 5.15 -23.35 M3.8 -24.0 L3.6 -24.25 3.55 -24.3 2.75 -25.1 2.0 -25.6 2.75 -25.1 3.55 -24.3 3.6 -24.25 3.8 -24.0 M4.1 -24.7 Q4.45 -25.7 5.15 -26.55 4.45 -25.7 4.1 -24.7 M3.85 -24.0 Q4.85 -25.1 5.85 -25.6 4.85 -25.1 3.85 -24.0 M2.65 -26.55 L3.65 -24.65 3.95 -26.6 3.65 -24.65 3.7 -24.35 3.65 -24.65 2.65 -26.55" fill="#42651b" fill-rule="evenodd" stroke="none"/>
      <path d="M0.6 -22.35 Q-1.0 -21.6 -2.2 -21.3 L-4.0 -21.1 -5.25 -21.3 Q-6.45 -21.6 -7.0 -22.2 -7.75 -23.05 -7.8 -24.25 L-7.8 -24.4 Q-7.75 -25.65 -7.0 -26.5 L-6.45 -27.1 -6.6 -27.95 Q-6.6 -28.8 -6.0 -29.6 -5.4 -30.45 -3.6 -30.3 L-2.75 -30.1 Q-1.15 -29.65 1.15 -27.95 L0.0 -27.7 -0.15 -27.55 Q-0.35 -27.2 0.55 -26.15 -1.15 -25.35 -0.6 -24.65 L0.25 -24.1 Q-0.3 -22.7 0.6 -22.35" fill="url(#decoration230-gradient4)" fill-rule="evenodd" stroke="none"/>
      <path d="M10.5 -29.9 L12.55 -30.4 Q14.05 -30.45 14.75 -29.6 15.4 -28.8 15.4 -27.95 L15.25 -27.1 15.85 -26.5 Q16.75 -25.6 16.75 -24.35 16.75 -23.1 15.85 -22.2 15.25 -21.6 13.9 -21.3 L12.5 -21.1 10.5 -21.3 7.4 -22.35 Q8.4 -22.7 7.8 -24.1 L8.75 -24.65 Q9.35 -25.35 7.45 -26.15 8.75 -27.45 8.1 -27.7 L8.0 -27.7 7.2 -27.85 6.8 -27.95 7.05 -28.1 7.85 -28.65 10.5 -29.9" fill="url(#decoration230-gradient5)" fill-rule="evenodd" stroke="none"/>
      <path d="M-2.75 -30.1 L-2.8 -30.95 Q-2.65 -32.0 -1.55 -32.6 -0.45 -33.15 1.0 -32.95 L4.0 -32.1 5.4 -32.4 7.4 -32.7 Q8.85 -32.45 9.75 -31.7 10.65 -30.8 10.5 -30.0 L10.5 -29.9 12.55 -30.4 Q14.05 -30.45 14.75 -29.6 15.4 -28.8 15.4 -27.95 L15.25 -27.1 15.85 -26.5 Q16.75 -25.6 16.75 -24.35 16.75 -23.1 15.85 -22.2 15.25 -21.6 13.9 -21.3 L12.5 -21.1 10.5 -21.3 7.4 -22.35 Q6.35 -22.8 5.15 -23.35 L3.85 -24.0 4.1 -24.7 3.7 -24.35 3.8 -24.0 2.65 -23.35 0.6 -22.35 Q-1.0 -21.6 -2.2 -21.3 L-4.0 -21.1 -5.25 -21.3 Q-6.45 -21.6 -7.0 -22.2 -7.75 -23.05 -7.8 -24.25 L-7.8 -24.4 Q-7.75 -25.65 -7.0 -26.5 L-6.45 -27.1 -6.6 -27.95 Q-6.6 -28.8 -6.0 -29.6 -5.4 -30.45 -3.6 -30.3 L-2.75 -30.1 Q-1.15 -29.65 1.15 -27.95 L1.4 -27.75 2.35 -26.85 2.65 -26.55 3.65 -24.65 3.7 -24.35 M3.85 -28.0 L3.65 -29.1 M3.9 -26.75 L3.85 -28.0 M7.05 -28.1 L7.85 -28.65 10.5 -29.9 M2.0 -25.6 L2.75 -25.1 3.55 -24.3 3.6 -24.25 3.8 -24.0 M0.55 -26.15 L1.95 -25.65 M6.25 -27.45 L6.8 -27.95 7.05 -28.1 M5.15 -26.55 Q4.45 -25.7 4.1 -24.7 M7.45 -26.15 L5.9 -25.65 5.85 -25.6 Q4.85 -25.1 3.85 -24.0 M5.15 -26.55 L6.25 -27.45 M3.95 -26.6 L3.65 -24.65" fill="none" stroke="#000000" stroke-linecap="round" stroke-linejoin="round" stroke-opacity="0.29803923" stroke-width="0.2"/>
      <path d="M1.95 -25.65 L2.0 -25.6" fill="none" stroke="#000000" stroke-linecap="round" stroke-linejoin="round" stroke-opacity="0.29803923" stroke-width="0.1"/>
    </g>
    <linearGradient gradientTransform="matrix(-8.0E-4, -0.0014, 0.0024, -0.0013, -11.55, -17.85)" gradientUnits="userSpaceOnUse" id="decoration230-gradient0" spreadMethod="pad" x1="-819.2" x2="819.2">
      <stop offset="0.0" stop-color="#42651b"/>
      <stop offset="1.0" stop-color="#5f8b2b"/>
    </linearGradient>
    <linearGradient gradientTransform="matrix(-0.002, 0.0015, 0.0023, 0.003, -12.65, -13.05)" gradientUnits="userSpaceOnUse" id="decoration230-gradient1" spreadMethod="pad" x1="-819.2" x2="819.2">
      <stop offset="0.0" stop-color="#42651b"/>
      <stop offset="1.0" stop-color="#5f8b2b"/>
    </linearGradient>
    <linearGradient gradientTransform="matrix(0.0022, -0.0017, 0.0023, 0.003, -6.25, -18.0)" gradientUnits="userSpaceOnUse" id="decoration230-gradient2" spreadMethod="pad" x1="-819.2" x2="819.2">
      <stop offset="0.0" stop-color="#42651b"/>
      <stop offset="1.0" stop-color="#5f8b2b"/>
    </linearGradient>
    <linearGradient gradientTransform="matrix(3.0E-4, -0.0024, 0.004, 6.0E-4, 3.75, -29.95)" gradientUnits="userSpaceOnUse" id="decoration230-gradient3" spreadMethod="pad" x1="-819.2" x2="819.2">
      <stop offset="0.0" stop-color="#42651b"/>
      <stop offset="1.0" stop-color="#5f8b2b"/>
    </linearGradient>
    <linearGradient gradientTransform="matrix(-0.0037, 0.0, 0.0, 0.0056, -1.8, -25.45)" gradientUnits="userSpaceOnUse" id="decoration230-gradient4" spreadMethod="pad" x1="-819.2" x2="819.2">
      <stop offset="0.0" stop-color="#42651b"/>
      <stop offset="1.0" stop-color="#5f8b2b"/>
    </linearGradient>
    <linearGradient gradientTransform="matrix(0.0041, 0.0, 0.0, 0.0056, 10.05, -25.45)" gradientUnits="userSpaceOnUse" id="decoration230-gradient5" spreadMethod="pad" x1="-819.2" x2="819.2">
      <stop offset="0.0" stop-color="#42651b"/>
      <stop offset="1.0" stop-color="#5f8b2b"/>
    </linearGradient>
  </defs>
</svg>
