<?xml version="1.0" encoding="UTF-8" standalone="no"?>
<svg xmlns:xlink="http://www.w3.org/1999/xlink" height="50.35px" width="76.8px" xmlns="http://www.w3.org/2000/svg">
  <g transform="matrix(1.0, 0.0, 0.0, 1.0, 37.9, 47.75)">
    <use height="50.35" transform="matrix(1.0, 0.0, 0.0, 1.0, -37.9, -47.75)" width="76.8" xlink:href="#decoration231-shape0"/>
  </g>
  <defs>
    <g id="decoration231-shape0" transform="matrix(1.0, 0.0, 0.0, 1.0, 37.9, 47.75)">
      <path d="M36.65 -1.9 Q36.65 0.15 25.7 1.5 L-0.7 2.6 -27.05 1.0 Q-37.9 -0.55 -37.9 -2.6 -37.85 -4.55 -27.0 -5.8 L-0.65 -7.0 Q14.75 -6.85 25.75 -5.3 36.65 -3.9 36.65 -1.9" fill="#090909" fill-opacity="0.4" fill-rule="evenodd" stroke="none"/>
      <path d="M6.3 -6.45 Q6.45 -7.55 8.9 -8.1 L11.9 -8.25 Q14.55 -4.4 10.35 -3.2 L8.95 -3.7 8.05 -4.15 7.05 -4.95 Q6.3 -5.65 6.3 -6.45 M16.55 -7.35 L19.1 -6.3 Q20.85 -5.05 20.65 -3.8 L20.75 -3.65 Q20.6 -3.15 19.9 -2.6 L18.5 -2.45 16.75 -2.1 Q13.85 -5.6 16.55 -7.35" fill="#ffdc35" fill-rule="evenodd" stroke="none"/>
      <path d="M20.75 -3.65 L20.25 -0.9 Q20.1 0.3 18.05 0.8 L14.3 1.0 12.45 0.7 10.9 0.5 Q10.8 0.35 10.5 0.35 L8.7 -0.4 8.25 -0.7 7.2 -1.4 Q6.55 -1.55 6.15 -2.35 L5.75 -3.7 6.3 -6.45 Q6.3 -5.65 7.05 -4.95 L8.05 -4.15 8.95 -3.7 10.35 -3.2 11.15 -2.8 11.55 -2.7 13.0 -2.3 14.75 -2.25 16.75 -2.1 18.5 -2.45 19.9 -2.6 Q20.6 -3.15 20.75 -3.65" fill="url(#decoration231-gradient0)" fill-rule="evenodd" stroke="none"/>
      <path d="M11.9 -8.25 L14.15 -8.1 16.55 -7.35 Q13.85 -5.6 16.75 -2.1 L14.75 -2.25 13.0 -2.3 11.55 -2.7 11.15 -2.8 10.35 -3.2 Q14.55 -4.4 11.9 -8.25" fill="#fff9ec" fill-rule="evenodd" stroke="none"/>
      <path d="M6.3 -6.45 Q6.45 -7.55 8.9 -8.1 L11.9 -8.25 14.15 -8.1 16.55 -7.35 19.1 -6.3 Q20.85 -5.05 20.65 -3.8 L20.75 -3.65 20.25 -0.9 Q20.1 0.3 18.05 0.8 L14.3 1.0 12.45 0.7 10.9 0.5 Q10.8 0.35 10.5 0.35 L8.7 -0.4 8.25 -0.7 7.2 -1.4 Q6.55 -1.55 6.15 -2.35 L5.75 -3.7 6.3 -6.45 Q6.3 -5.65 7.05 -4.95 L8.05 -4.15 8.95 -3.7 10.35 -3.2 M16.75 -2.1 L14.75 -2.25 13.0 -2.3 11.55 -2.7 11.15 -2.8 10.35 -3.2 M20.75 -3.65 Q20.6 -3.15 19.9 -2.6 L18.5 -2.45 16.75 -2.1" fill="none" stroke="#000000" stroke-linecap="round" stroke-linejoin="round" stroke-opacity="0.4" stroke-width="0.1"/>
      <path d="M-0.65 -7.85 L1.6 -8.25 4.05 -8.05 Q1.9 -5.75 5.45 -3.0 L3.55 -2.6 1.9 -2.3 0.35 -2.3 -0.1 -2.3 -0.9 -2.5 Q2.85 -4.7 -0.65 -7.85" fill="#fff9ec" fill-rule="evenodd" stroke="none"/>
      <path d="M9.05 -5.45 L9.25 -2.65 Q9.4 -1.45 7.5 -0.55 5.25 0.45 3.85 0.65 L2.0 0.8 0.5 0.9 0.05 0.9 -1.95 0.55 -2.4 0.45 -3.6 0.0 Q-4.2 0.0 -4.85 -0.75 L-5.55 -1.9 -5.6 -4.7 Q-5.5 -4.0 -4.55 -3.5 L-3.4 -2.85 -2.4 -2.65 -0.9 -2.5 -0.1 -2.3 0.35 -2.3 1.9 -2.3 3.55 -2.6 5.45 -3.0 7.15 -3.7 8.4 -4.2 Q9.05 -4.9 9.05 -5.45" fill="url(#decoration231-gradient1)" fill-rule="evenodd" stroke="none"/>
      <path d="M4.05 -8.05 L6.85 -7.55 Q8.9 -6.8 8.95 -5.6 L9.05 -5.45 Q9.05 -4.9 8.4 -4.2 L7.15 -3.7 5.45 -3.0 Q1.9 -5.75 4.05 -8.05 M-5.6 -4.7 Q-5.75 -5.9 -3.6 -6.95 -2.25 -7.65 -0.65 -7.85 2.85 -4.7 -0.9 -2.5 L-2.4 -2.65 -3.4 -2.85 -4.55 -3.5 Q-5.5 -4.0 -5.6 -4.7" fill="#ffdc35" fill-rule="evenodd" stroke="none"/>
      <path d="M-0.65 -7.85 L1.6 -8.25 4.05 -8.05 6.85 -7.55 Q8.9 -6.8 8.95 -5.6 L9.05 -5.45 9.25 -2.65 Q9.4 -1.45 7.5 -0.55 5.25 0.45 3.85 0.65 L2.0 0.8 0.5 0.9 0.05 0.9 -1.95 0.55 -2.4 0.45 -3.6 0.0 Q-4.2 0.0 -4.85 -0.75 L-5.55 -1.9 -5.6 -4.7 Q-5.75 -5.9 -3.6 -6.95 -2.25 -7.65 -0.65 -7.85 M-0.9 -2.5 L-0.1 -2.3 0.35 -2.3 1.9 -2.3 3.55 -2.6 5.45 -3.0 M9.05 -5.45 Q9.05 -4.9 8.4 -4.2 L7.15 -3.7 5.45 -3.0 M-0.9 -2.5 L-2.4 -2.65 -3.4 -2.85 -4.55 -3.5 Q-5.5 -4.0 -5.6 -4.7" fill="none" stroke="#000000" stroke-linecap="round" stroke-linejoin="round" stroke-opacity="0.4" stroke-width="0.1"/>
      <path d="M-15.7 -9.65 Q-15.85 -8.95 -15.35 -8.1 L-14.5 -7.0 -13.75 -6.35 -12.5 -5.6 -11.85 -5.05 -11.5 -4.85 -10.1 -4.15 -8.5 -3.55 -6.6 -3.15 -4.8 -2.95 -3.45 -2.85 Q-2.55 -3.2 -2.25 -3.7 L-3.4 -1.1 Q-3.8 0.0 -5.9 -0.05 L-9.7 -0.6 Q-10.45 -1.05 -11.35 -1.3 L-12.75 -1.9 -13.2 -2.1 -14.85 -3.35 -15.15 -3.55 -16.05 -4.55 Q-16.55 -4.85 -16.85 -5.8 L-16.9 -7.15 -15.7 -9.65" fill="url(#decoration231-gradient2)" fill-rule="evenodd" stroke="none"/>
      <path d="M-12.5 -5.6 L-13.75 -6.35 -14.5 -7.0 -15.35 -8.1 Q-15.85 -8.95 -15.7 -9.65 -15.3 -10.8 -12.9 -10.7 L-9.8 -10.2 Q-8.15 -5.8 -12.5 -5.6 M-2.25 -3.7 Q-2.55 -3.2 -3.45 -2.85 L-4.8 -2.95 -6.6 -3.15 Q-8.55 -7.2 -5.55 -8.25 -4.2 -7.55 -3.3 -6.6 -1.75 -4.95 -2.25 -3.85 L-2.25 -3.7" fill="#ffdc35" fill-rule="evenodd" stroke="none"/>
      <path d="M-6.6 -3.15 L-8.5 -3.55 -10.1 -4.15 -11.5 -4.85 -11.85 -5.05 -12.5 -5.6 Q-8.15 -5.8 -9.8 -10.2 L-7.65 -9.6 -5.55 -8.25 Q-8.55 -7.2 -6.6 -3.15" fill="#fff9ec" fill-rule="evenodd" stroke="none"/>
      <path d="M-12.5 -5.6 L-13.75 -6.35 -14.5 -7.0 -15.35 -8.1 Q-15.85 -8.95 -15.7 -9.65 L-16.9 -7.15 -16.85 -5.8 Q-16.55 -4.85 -16.05 -4.55 L-15.15 -3.55 -14.85 -3.35 -13.2 -2.1 -12.75 -1.9 -11.35 -1.3 Q-10.45 -1.05 -9.7 -0.6 L-5.9 -0.05 Q-3.8 0.0 -3.4 -1.1 L-2.25 -3.7 Q-2.55 -3.2 -3.45 -2.85 L-4.8 -2.95 -6.6 -3.15 -8.5 -3.55 -10.1 -4.15 -11.5 -4.85 -11.85 -5.05 -12.5 -5.6 M-9.8 -10.2 L-12.9 -10.7 Q-15.3 -10.8 -15.7 -9.65 M-9.8 -10.2 L-7.65 -9.6 -5.55 -8.25 Q-4.2 -7.55 -3.3 -6.6 -1.75 -4.95 -2.25 -3.85 L-2.25 -3.7" fill="none" stroke="#000000" stroke-linecap="round" stroke-linejoin="round" stroke-opacity="0.4" stroke-width="0.1"/>
      <path d="M-26.9 -5.6 Q-27.0 -6.85 -24.8 -7.85 L-21.95 -8.75 Q-18.5 -5.55 -22.25 -3.35 L-23.65 -3.55 -24.6 -3.8 -25.85 -4.4 Q-26.7 -4.9 -26.9 -5.6 M-17.2 -8.9 L-14.45 -8.4 Q-12.35 -7.65 -12.25 -6.45 L-12.2 -6.3 Q-12.25 -5.75 -12.9 -4.95 L-14.15 -4.5 -15.9 -3.8 Q-19.4 -6.65 -17.2 -8.9" fill="#ffdc35" fill-rule="evenodd" stroke="none"/>
      <path d="M-12.2 -6.3 L-12.05 -3.45 Q-11.9 -2.25 -13.9 -1.3 -16.15 -0.35 -17.55 -0.25 L-19.3 -0.05 -20.9 -0.05 -21.3 -0.05 -23.3 -0.4 -23.65 -0.5 -24.95 -0.9 Q-25.5 -0.95 -26.15 -1.65 L-26.8 -2.8 -26.9 -5.6 Q-26.7 -4.9 -25.85 -4.4 L-24.6 -3.8 -23.65 -3.55 -22.25 -3.35 -21.45 -3.15 -20.95 -3.15 -19.4 -3.15 -17.75 -3.35 -15.9 -3.8 -14.15 -4.5 -12.9 -4.95 Q-12.25 -5.75 -12.2 -6.3" fill="url(#decoration231-gradient3)" fill-rule="evenodd" stroke="none"/>
      <path d="M-21.95 -8.75 L-19.7 -9.1 -17.2 -8.9 Q-19.4 -6.65 -15.9 -3.8 L-17.75 -3.35 -19.4 -3.15 -20.95 -3.15 -21.45 -3.15 -22.25 -3.35 Q-18.5 -5.55 -21.95 -8.75" fill="#fff9ec" fill-rule="evenodd" stroke="none"/>
      <path d="M-26.9 -5.6 Q-27.0 -6.85 -24.8 -7.85 L-21.95 -8.75 -19.7 -9.1 -17.2 -8.9 -14.45 -8.4 Q-12.35 -7.65 -12.25 -6.45 L-12.2 -6.3 -12.05 -3.45 Q-11.9 -2.25 -13.9 -1.3 -16.15 -0.35 -17.55 -0.25 L-19.3 -0.05 -20.9 -0.05 -21.3 -0.05 -23.3 -0.4 -23.65 -0.5 -24.95 -0.9 Q-25.5 -0.95 -26.15 -1.65 L-26.8 -2.8 -26.9 -5.6 Q-26.7 -4.9 -25.85 -4.4 L-24.6 -3.8 -23.65 -3.55 -22.25 -3.35 M-15.9 -3.8 L-17.75 -3.35 -19.4 -3.15 -20.95 -3.15 -21.45 -3.15 -22.25 -3.35 M-12.2 -6.3 Q-12.25 -5.75 -12.9 -4.95 L-14.15 -4.5 -15.9 -3.8" fill="none" stroke="#000000" stroke-linecap="round" stroke-linejoin="round" stroke-opacity="0.4" stroke-width="0.1"/>
      <path d="M-33.85 -8.4 L-32.25 -9.95 -30.05 -11.2 Q-30.65 -8.0 -26.15 -7.75 L-27.35 -6.35 -28.65 -5.25 -29.95 -4.35 -30.3 -4.05 -31.05 -3.8 Q-29.25 -7.7 -33.85 -8.4" fill="#fff9ec" fill-rule="evenodd" stroke="none"/>
      <path d="M-30.05 -11.2 Q-28.9 -12.05 -27.55 -12.3 -25.4 -12.9 -24.6 -11.95 L-24.45 -11.9 Q-24.2 -11.4 -24.35 -10.45 L-25.1 -9.25 -26.15 -7.75 Q-30.65 -8.0 -30.05 -11.2 M-36.25 -2.95 Q-36.95 -3.9 -35.8 -5.95 L-33.85 -8.4 Q-29.25 -7.7 -31.05 -3.8 L-32.4 -3.15 -33.3 -2.7 -34.7 -2.6 Q-35.6 -2.5 -36.25 -2.95" fill="#ffdc35" fill-rule="evenodd" stroke="none"/>
      <path d="M-24.45 -11.9 L-22.8 -9.65 Q-21.95 -8.7 -23.05 -6.85 -24.4 -4.75 -25.45 -3.9 L-26.8 -2.7 -28.05 -1.8 -28.4 -1.6 -30.3 -0.6 -30.65 -0.5 -31.9 -0.2 Q-32.4 0.1 -33.35 -0.2 -34.4 -0.5 -34.5 -0.75 L-36.25 -2.95 Q-35.6 -2.5 -34.7 -2.6 L-33.3 -2.7 -32.4 -3.15 -31.05 -3.8 -30.3 -4.05 -29.95 -4.35 -28.65 -5.25 -27.35 -6.35 -26.15 -7.75 -25.1 -9.25 -24.35 -10.45 Q-24.2 -11.4 -24.45 -11.9" fill="url(#decoration231-gradient4)" fill-rule="evenodd" stroke="none"/>
      <path d="M-33.85 -8.4 L-32.25 -9.95 -30.05 -11.2 Q-28.9 -12.05 -27.55 -12.3 -25.4 -12.9 -24.6 -11.95 L-24.45 -11.9 -22.8 -9.65 Q-21.95 -8.7 -23.05 -6.85 -24.4 -4.75 -25.45 -3.9 L-26.8 -2.7 -28.05 -1.8 -28.4 -1.6 -30.3 -0.6 -30.65 -0.5 -31.9 -0.2 Q-32.4 0.1 -33.35 -0.2 -34.4 -0.5 -34.5 -0.75 L-36.25 -2.95 Q-36.95 -3.9 -35.8 -5.95 L-33.85 -8.4 M-31.05 -3.8 L-30.3 -4.05 -29.95 -4.35 -28.65 -5.25 -27.35 -6.35 -26.15 -7.75 M-31.05 -3.8 L-32.4 -3.15 -33.3 -2.7 -34.7 -2.6 Q-35.6 -2.5 -36.25 -2.95 M-24.45 -11.9 Q-24.2 -11.4 -24.35 -10.45 L-25.1 -9.25 -26.15 -7.75" fill="none" stroke="#000000" stroke-linecap="round" stroke-linejoin="round" stroke-opacity="0.4" stroke-width="0.1"/>
      <path d="M-13.55 -10.7 L-14.25 -7.85 Q-14.45 -6.7 -16.55 -6.45 L-20.25 -6.35 -22.1 -6.65 -23.55 -7.05 -24.0 -7.2 Q-24.75 -7.65 -25.95 -8.1 L-26.2 -8.25 -27.35 -9.05 Q-27.85 -9.25 -28.25 -10.15 L-28.55 -11.4 -27.85 -14.15 Q-27.85 -13.4 -27.25 -12.75 L-26.15 -11.75 -25.3 -11.25 Q-24.7 -10.9 -23.9 -10.65 L-23.3 -10.3 -22.85 -10.1 -21.3 -9.65 -19.65 -9.4 -17.8 -9.3 -15.85 -9.45 -14.6 -9.65 Q-13.75 -10.15 -13.55 -10.7" fill="url(#decoration231-gradient5)" fill-rule="evenodd" stroke="none"/>
      <path d="M-27.85 -14.15 Q-27.55 -15.35 -25.25 -15.7 L-22.15 -15.75 Q-19.75 -11.7 -23.9 -10.65 -24.7 -10.9 -25.3 -11.25 L-26.15 -11.75 -27.25 -12.75 Q-27.85 -13.4 -27.85 -14.15 M-17.6 -14.5 Q-16.15 -14.1 -15.15 -13.4 -13.35 -11.95 -13.55 -10.8 L-13.55 -10.7 Q-13.75 -10.15 -14.6 -9.65 L-15.85 -9.45 -17.8 -9.3 Q-20.4 -13.05 -17.6 -14.5" fill="#ffdc35" fill-rule="evenodd" stroke="none"/>
      <path d="M-22.15 -15.75 L-19.9 -15.4 Q-18.7 -15.05 -17.6 -14.5 -20.4 -13.05 -17.8 -9.3 L-19.65 -9.4 -21.3 -9.65 -22.85 -10.1 -23.3 -10.3 -23.9 -10.65 Q-19.75 -11.7 -22.15 -15.75" fill="#fff9ec" fill-rule="evenodd" stroke="none"/>
      <path d="M-27.85 -14.15 Q-27.55 -15.35 -25.25 -15.7 L-22.15 -15.75 -19.9 -15.4 Q-18.7 -15.05 -17.6 -14.5 -16.15 -14.1 -15.15 -13.4 -13.35 -11.95 -13.55 -10.8 L-13.55 -10.7 -14.25 -7.85 Q-14.45 -6.7 -16.55 -6.45 L-20.25 -6.35 -22.1 -6.65 -23.55 -7.05 -24.0 -7.2 Q-24.75 -7.65 -25.95 -8.1 L-26.2 -8.25 -27.35 -9.05 Q-27.85 -9.25 -28.25 -10.15 L-28.55 -11.4 -27.85 -14.15 Q-27.85 -13.4 -27.25 -12.75 L-26.15 -11.75 -25.3 -11.25 Q-24.7 -10.9 -23.9 -10.65 M-17.8 -9.3 L-19.65 -9.4 -21.3 -9.65 -22.85 -10.1 -23.3 -10.3 -23.9 -10.65 M-13.55 -10.7 Q-13.75 -10.15 -14.6 -9.65 L-15.85 -9.45 -17.8 -9.3" fill="none" stroke="#000000" stroke-linecap="round" stroke-linejoin="round" stroke-opacity="0.4" stroke-width="0.1"/>
      <path d="M-5.9 -14.85 L-4.9 -12.2 Q-4.45 -11.15 -5.95 -9.75 -7.95 -8.05 -9.1 -7.55 L-10.8 -6.95 -12.2 -6.35 -12.65 -6.3 -14.8 -6.0 -15.1 -5.95 -16.5 -5.95 Q-17.05 -5.8 -17.9 -6.35 L-18.8 -7.3 -19.7 -9.85 Q-19.3 -9.3 -18.45 -9.05 L-16.95 -8.9 -16.0 -8.95 -14.6 -9.15 -13.75 -9.15 Q-13.45 -9.3 -13.35 -9.4 L-11.85 -9.8 -10.25 -10.45 Q-9.6 -10.8 -8.7 -11.4 L-7.15 -12.6 -6.2 -13.5 Q-5.75 -14.35 -5.9 -14.85" fill="url(#decoration231-gradient6)" fill-rule="evenodd" stroke="none"/>
      <path d="M-11.35 -15.9 L-8.65 -16.25 Q-6.45 -16.1 -5.95 -15.0 L-5.9 -14.85 Q-5.75 -14.35 -6.2 -13.5 L-7.15 -12.6 -8.7 -11.4 Q-12.9 -13.1 -11.35 -15.9 M-19.7 -9.85 Q-20.1 -11.05 -18.45 -12.6 L-15.85 -14.45 Q-11.65 -12.3 -14.6 -9.15 L-16.0 -8.95 -16.95 -8.9 -18.45 -9.05 Q-19.3 -9.3 -19.7 -9.85" fill="#ffdc35" fill-rule="evenodd" stroke="none"/>
      <path d="M-15.85 -14.45 Q-14.95 -14.85 -13.8 -15.4 L-11.35 -15.9 Q-12.9 -13.1 -8.7 -11.4 -9.6 -10.8 -10.25 -10.45 L-11.85 -9.8 -13.35 -9.4 Q-13.45 -9.3 -13.75 -9.15 L-14.6 -9.15 Q-11.65 -12.3 -15.85 -14.45" fill="#fff9ec" fill-rule="evenodd" stroke="none"/>
      <path d="M-11.35 -15.9 L-8.65 -16.25 Q-6.45 -16.1 -5.95 -15.0 L-5.9 -14.85 -4.9 -12.2 Q-4.45 -11.15 -5.95 -9.75 -7.95 -8.05 -9.1 -7.55 L-10.8 -6.95 -12.2 -6.35 -12.65 -6.3 -14.8 -6.0 -15.1 -5.95 -16.5 -5.95 Q-17.05 -5.8 -17.9 -6.35 L-18.8 -7.3 -19.7 -9.85 Q-20.1 -11.05 -18.45 -12.6 L-15.85 -14.45 Q-14.95 -14.85 -13.8 -15.4 L-11.35 -15.9 M-8.7 -11.4 L-7.15 -12.6 -6.2 -13.5 Q-5.75 -14.35 -5.9 -14.85 M-8.7 -11.4 Q-9.6 -10.8 -10.25 -10.45 L-11.85 -9.8 -13.35 -9.4 Q-13.45 -9.3 -13.75 -9.15 L-14.6 -9.15 -16.0 -8.95 -16.95 -8.9 -18.45 -9.05 Q-19.3 -9.3 -19.7 -9.85" fill="none" stroke="#000000" stroke-linecap="round" stroke-linejoin="round" stroke-opacity="0.4" stroke-width="0.1"/>
      <path d="M-25.3 -17.25 Q-25.65 -18.5 -23.85 -19.9 L-21.15 -21.45 Q-17.05 -19.1 -20.25 -16.2 L-21.75 -16.05 -22.7 -16.05 -24.05 -16.4 Q-24.95 -16.65 -25.3 -17.25 M-16.55 -22.65 L-13.8 -22.75 Q-11.55 -22.5 -11.2 -21.3 L-11.15 -21.2 Q-11.1 -20.75 -11.5 -19.8 L-12.65 -19.05 -14.25 -18.0 Q-18.25 -19.95 -16.55 -22.65" fill="#ffdc35" fill-rule="evenodd" stroke="none"/>
      <path d="M-11.15 -21.2 L-10.4 -18.5 Q-9.95 -17.35 -11.65 -16.05 -13.7 -14.55 -14.95 -14.15 L-16.6 -13.6 -18.15 -13.15 -18.6 -13.1 -20.7 -12.95 -21.05 -12.9 -22.35 -13.1 Q-22.95 -13.05 -23.7 -13.65 L-24.6 -14.55 -25.3 -17.25 Q-24.95 -16.65 -24.05 -16.4 L-22.7 -16.05 -21.75 -16.05 -20.25 -16.2 -19.4 -16.1 -19.0 -16.25 -17.45 -16.6 -15.8 -17.15 -14.25 -18.0 -12.65 -19.05 -11.5 -19.8 Q-11.1 -20.75 -11.15 -21.2" fill="url(#decoration231-gradient7)" fill-rule="evenodd" stroke="none"/>
      <path d="M-21.15 -21.45 L-19.05 -22.25 -16.55 -22.65 Q-18.25 -19.95 -14.25 -18.0 L-15.8 -17.15 -17.45 -16.6 -19.0 -16.25 -19.4 -16.1 -20.25 -16.2 Q-17.05 -19.1 -21.15 -21.45" fill="#fff9ec" fill-rule="evenodd" stroke="none"/>
      <path d="M-25.3 -17.25 Q-25.65 -18.5 -23.85 -19.9 L-21.15 -21.45 -19.05 -22.25 -16.55 -22.65 -13.8 -22.75 Q-11.55 -22.5 -11.2 -21.3 L-11.15 -21.2 -10.4 -18.5 Q-9.95 -17.35 -11.65 -16.05 -13.7 -14.55 -14.95 -14.15 L-16.6 -13.6 -18.15 -13.15 -18.6 -13.1 -20.7 -12.95 -21.05 -12.9 -22.35 -13.1 Q-22.95 -13.05 -23.7 -13.65 L-24.6 -14.55 -25.3 -17.25 Q-24.95 -16.65 -24.05 -16.4 L-22.7 -16.05 -21.75 -16.05 -20.25 -16.2 M-11.15 -21.2 Q-11.1 -20.75 -11.5 -19.8 L-12.65 -19.05 -14.25 -18.0 -15.8 -17.15 -17.45 -16.6 -19.0 -16.25 -19.4 -16.1 -20.25 -16.2" fill="none" stroke="#000000" stroke-linecap="round" stroke-linejoin="round" stroke-opacity="0.4" stroke-width="0.1"/>
      <path d="M-20.6 -24.45 Q-20.7 -25.7 -18.5 -26.6 L-15.5 -27.45 Q-12.15 -24.1 -16.0 -22.15 L-17.45 -22.35 -18.45 -22.55 -19.7 -23.2 Q-20.45 -23.75 -20.6 -24.45 M-10.75 -27.4 Q-9.25 -27.3 -8.05 -26.75 -5.95 -25.9 -5.95 -24.75 L-5.9 -24.6 Q-5.95 -24.05 -6.65 -23.35 -7.25 -23.25 -7.85 -22.85 L-9.7 -22.35 Q-13.05 -25.15 -10.75 -27.4" fill="#ffdc35" fill-rule="evenodd" stroke="none"/>
      <path d="M-15.5 -27.45 L-13.25 -27.65 -10.75 -27.4 Q-13.05 -25.15 -9.7 -22.35 L-11.5 -21.9 -13.2 -21.7 -14.8 -21.8 -15.2 -21.85 -16.0 -22.15 Q-12.15 -24.1 -15.5 -27.45" fill="#fff9ec" fill-rule="evenodd" stroke="none"/>
      <path d="M-5.9 -24.6 L-5.9 -21.7 Q-5.75 -20.6 -7.7 -19.75 -10.05 -18.85 -11.45 -18.75 L-13.25 -18.7 -14.75 -18.65 -15.2 -18.65 -17.25 -19.05 -17.6 -19.2 -18.85 -19.7 Q-19.35 -19.7 -20.05 -20.5 L-20.7 -21.7 -20.6 -24.45 Q-20.45 -23.75 -19.7 -23.2 L-18.45 -22.55 -17.45 -22.35 -16.0 -22.15 -15.2 -21.85 -14.8 -21.8 -13.2 -21.7 -11.5 -21.9 -9.7 -22.35 -7.85 -22.85 Q-7.25 -23.25 -6.65 -23.35 -5.95 -24.05 -5.9 -24.6" fill="url(#decoration231-gradient8)" fill-rule="evenodd" stroke="none"/>
      <path d="M-20.6 -24.45 Q-20.7 -25.7 -18.5 -26.6 L-15.5 -27.45 -13.25 -27.65 -10.75 -27.4 Q-9.25 -27.3 -8.05 -26.75 -5.95 -25.9 -5.95 -24.75 L-5.9 -24.6 -5.9 -21.7 Q-5.75 -20.6 -7.7 -19.75 -10.05 -18.85 -11.45 -18.75 L-13.25 -18.7 -14.75 -18.65 -15.2 -18.65 -17.25 -19.05 -17.6 -19.2 -18.85 -19.7 Q-19.35 -19.7 -20.05 -20.5 L-20.7 -21.7 -20.6 -24.45 Q-20.45 -23.75 -19.7 -23.2 L-18.45 -22.55 -17.45 -22.35 -16.0 -22.15 M-5.9 -24.6 Q-5.95 -24.05 -6.65 -23.35 -7.25 -23.25 -7.85 -22.85 L-9.7 -22.35 -11.5 -21.9 -13.2 -21.7 -14.8 -21.8 -15.2 -21.85 -16.0 -22.15" fill="none" stroke="#000000" stroke-linecap="round" stroke-linejoin="round" stroke-opacity="0.4" stroke-width="0.1"/>
      <path d="M3.05 -9.6 Q2.8 -9.1 1.9 -8.75 L0.55 -8.8 -1.25 -9.05 Q-3.25 -13.1 -0.2 -14.15 L2.0 -12.45 Q3.55 -10.85 3.05 -9.75 L3.05 -9.6 M-7.15 -11.5 L-8.4 -12.25 -9.2 -12.9 -10.05 -14.0 Q-10.5 -14.85 -10.4 -15.55 -9.95 -16.65 -7.6 -16.6 L-4.5 -16.1 Q-2.8 -11.7 -7.15 -11.5" fill="#ffdc35" fill-rule="evenodd" stroke="none"/>
      <path d="M-1.25 -9.05 L0.55 -8.8 1.9 -8.75 Q2.8 -9.1 3.05 -9.6 L1.95 -7.0 Q1.55 -5.9 -0.55 -5.95 L-4.35 -6.5 Q-5.15 -6.95 -6.05 -7.2 -6.75 -7.65 -7.45 -7.75 L-7.85 -8.0 -9.55 -9.25 Q-9.7 -9.45 -9.8 -9.45 L-10.75 -10.45 Q-11.2 -10.7 -11.5 -11.7 L-11.55 -13.05 -10.4 -15.55 Q-10.5 -14.85 -10.05 -14.0 L-9.2 -12.9 -8.4 -12.25 -7.15 -11.5 -6.55 -10.9 -6.2 -10.7 -4.8 -10.0 -3.15 -9.45 -1.25 -9.05" fill="url(#decoration231-gradient9)" fill-rule="evenodd" stroke="none"/>
      <path d="M-1.25 -9.05 L-3.15 -9.45 -4.8 -10.0 -6.2 -10.7 -6.55 -10.9 -7.15 -11.5 Q-2.8 -11.7 -4.5 -16.1 L-2.3 -15.5 -0.2 -14.15 Q-3.25 -13.1 -1.25 -9.05" fill="#fff9ec" fill-rule="evenodd" stroke="none"/>
      <path d="M3.05 -9.6 Q2.8 -9.1 1.9 -8.75 L0.55 -8.8 -1.25 -9.05 -3.15 -9.45 -4.8 -10.0 -6.2 -10.7 -6.55 -10.9 -7.15 -11.5 -8.4 -12.25 -9.2 -12.9 -10.05 -14.0 Q-10.5 -14.85 -10.4 -15.55 L-11.55 -13.05 -11.5 -11.7 Q-11.2 -10.7 -10.75 -10.45 L-9.8 -9.45 Q-9.7 -9.45 -9.55 -9.25 L-7.85 -8.0 -7.45 -7.75 Q-6.75 -7.65 -6.05 -7.2 -5.15 -6.95 -4.35 -6.5 L-0.55 -5.95 Q1.55 -5.9 1.95 -7.0 L3.05 -9.6 3.05 -9.75 Q3.55 -10.85 2.0 -12.45 L-0.2 -14.15 M-4.5 -16.1 L-2.3 -15.5 -0.2 -14.15 M-10.4 -15.55 Q-9.95 -16.65 -7.6 -16.6 L-4.5 -16.1" fill="none" stroke="#000000" stroke-linecap="round" stroke-linejoin="round" stroke-opacity="0.4" stroke-width="0.1"/>
      <path d="M3.15 -25.15 Q-1.0 -27.05 0.75 -29.75 L3.4 -29.9 Q5.65 -29.65 6.0 -28.45 L6.15 -28.3 Q6.2 -27.75 5.75 -26.95 L4.6 -26.2 3.15 -25.15 M-3.85 -28.6 Q0.2 -26.25 -2.95 -23.25 L-4.35 -23.1 -5.35 -23.2 -6.75 -23.45 Q-7.65 -23.8 -8.0 -24.4 -8.4 -25.55 -6.55 -27.05 L-3.85 -28.6" fill="#ffdc35" fill-rule="evenodd" stroke="none"/>
      <path d="M0.75 -29.75 Q-1.0 -27.05 3.15 -25.15 L1.45 -24.3 -0.15 -23.7 -1.7 -23.4 -2.2 -23.25 -2.95 -23.25 Q0.2 -26.25 -3.85 -28.6 L-1.75 -29.4 0.75 -29.75" fill="#fff9ec" fill-rule="evenodd" stroke="none"/>
      <path d="M3.15 -25.15 L4.6 -26.2 5.75 -26.95 Q6.2 -27.75 6.15 -28.3 L6.95 -25.65 Q7.3 -24.45 5.6 -23.2 L2.35 -21.2 0.6 -20.65 -0.85 -20.25 -1.25 -20.25 -3.4 -20.1 -3.65 -20.05 -5.05 -20.25 Q-5.6 -20.15 -6.4 -20.75 L-7.3 -21.7 -8.0 -24.4 Q-7.65 -23.8 -6.75 -23.45 L-5.35 -23.2 -4.35 -23.1 -2.95 -23.25 -2.2 -23.25 -1.7 -23.4 -0.15 -23.7 1.45 -24.3 3.15 -25.15" fill="url(#decoration231-gradient10)" fill-rule="evenodd" stroke="none"/>
      <path d="M3.15 -25.15 L4.6 -26.2 5.75 -26.95 Q6.2 -27.75 6.15 -28.3 L6.0 -28.45 Q5.65 -29.65 3.4 -29.9 L0.75 -29.75 -1.75 -29.4 -3.85 -28.6 M-2.95 -23.25 L-2.2 -23.25 -1.7 -23.4 -0.15 -23.7 1.45 -24.3 3.15 -25.15 M6.15 -28.3 L6.95 -25.65 Q7.3 -24.45 5.6 -23.2 L2.35 -21.2 0.6 -20.65 -0.85 -20.25 -1.25 -20.25 -3.4 -20.1 -3.65 -20.05 -5.05 -20.25 Q-5.6 -20.15 -6.4 -20.75 L-7.3 -21.7 -8.0 -24.4 Q-8.4 -25.55 -6.55 -27.05 L-3.85 -28.6 M-2.95 -23.25 L-4.35 -23.1 -5.35 -23.2 -6.75 -23.45 Q-7.65 -23.8 -8.0 -24.4" fill="none" stroke="#000000" stroke-linecap="round" stroke-linejoin="round" stroke-opacity="0.4" stroke-width="0.1"/>
      <path d="M9.4 -15.25 Q10.85 -15.0 12.05 -14.35 14.05 -13.3 13.95 -12.1 L13.95 -11.95 13.95 -11.9 Q13.85 -11.4 13.1 -10.8 L11.85 -10.45 10.1 -10.1 Q6.85 -13.25 9.4 -15.25 M-0.7 -13.25 Q-0.65 -14.45 1.65 -15.15 L4.7 -15.6 Q7.75 -12.05 3.7 -10.45 L2.25 -10.7 1.3 -11.05 0.2 -11.85 Q-0.55 -12.45 -0.7 -13.25" fill="#ffdc35" fill-rule="evenodd" stroke="none"/>
      <path d="M4.7 -15.6 L7.0 -15.85 9.4 -15.25 Q6.85 -13.25 10.1 -10.1 L8.1 -9.8 6.5 -9.8 4.9 -10.0 4.45 -10.1 Q4.05 -10.2 3.7 -10.45 7.75 -12.05 4.7 -15.6" fill="#fff9ec" fill-rule="evenodd" stroke="none"/>
      <path d="M13.95 -11.9 L13.8 -9.15 Q13.8 -8.0 11.75 -7.35 L8.0 -6.65 6.2 -6.7 4.7 -6.85 4.2 -6.95 2.15 -7.55 1.9 -7.55 0.7 -8.25 Q0.15 -8.35 -0.45 -9.25 L-1.0 -10.45 -0.7 -13.25 Q-0.55 -12.45 0.2 -11.85 L1.3 -11.05 2.25 -10.7 3.7 -10.45 Q4.05 -10.2 4.45 -10.1 L4.9 -10.0 6.5 -9.8 8.1 -9.8 10.1 -10.1 11.85 -10.45 13.1 -10.8 Q13.85 -11.4 13.95 -11.9" fill="url(#decoration231-gradient11)" fill-rule="evenodd" stroke="none"/>
      <path d="M4.7 -15.6 L7.0 -15.85 9.4 -15.25 Q10.85 -15.0 12.05 -14.35 14.05 -13.3 13.95 -12.1 L13.95 -11.95 13.95 -11.9 13.8 -9.15 Q13.8 -8.0 11.75 -7.35 L8.0 -6.65 6.2 -6.7 4.7 -6.85 4.2 -6.95 2.15 -7.55 1.9 -7.55 0.7 -8.25 Q0.15 -8.35 -0.45 -9.25 L-1.0 -10.45 -0.7 -13.25 Q-0.65 -14.45 1.65 -15.15 L4.7 -15.6 M3.7 -10.45 Q4.05 -10.2 4.45 -10.1 L4.9 -10.0 6.5 -9.8 8.1 -9.8 10.1 -10.1 M3.7 -10.45 L2.25 -10.7 1.3 -11.05 0.2 -11.85 Q-0.55 -12.45 -0.7 -13.25 M13.95 -11.9 Q13.85 -11.4 13.1 -10.8 L11.85 -10.45 10.1 -10.1" fill="none" stroke="#000000" stroke-linecap="round" stroke-linejoin="round" stroke-opacity="0.4" stroke-width="0.1"/>
      <path d="M18.9 -4.95 Q19.0 -4.25 19.9 -3.7 L21.0 -2.95 22.0 -2.65 23.4 -2.35 24.25 -2.1 24.65 -2.1 26.2 -1.95 27.95 -2.1 29.85 -2.3 31.6 -2.85 32.9 -3.3 Q33.55 -3.9 33.6 -4.5 L33.6 -1.65 Q33.6 -0.5 31.65 0.3 L27.95 1.2 26.05 1.15 24.5 1.15 24.1 1.15 22.15 0.55 21.7 0.45 20.5 -0.15 Q19.9 -0.15 19.35 -0.95 L18.75 -2.15 18.9 -4.95" fill="url(#decoration231-gradient12)" fill-rule="evenodd" stroke="none"/>
      <path d="M23.4 -2.35 L22.0 -2.65 21.0 -2.95 19.9 -3.7 Q19.0 -4.25 18.9 -4.95 18.9 -6.15 21.15 -7.05 22.55 -7.65 24.15 -7.7 27.4 -4.25 23.4 -2.35 M33.6 -4.5 Q33.55 -3.9 32.9 -3.3 L31.6 -2.85 29.85 -2.3 Q26.5 -5.4 28.85 -7.5 L31.65 -6.8 Q33.6 -5.8 33.55 -4.6 L33.6 -4.5" fill="#ffdc35" fill-rule="evenodd" stroke="none"/>
      <path d="M29.85 -2.3 L27.95 -2.1 26.2 -1.95 24.65 -2.1 24.25 -2.1 23.4 -2.35 Q27.4 -4.25 24.15 -7.7 L26.5 -7.9 28.85 -7.5 Q26.5 -5.4 29.85 -2.3" fill="#fff9ec" fill-rule="evenodd" stroke="none"/>
      <path d="M23.4 -2.35 L22.0 -2.65 21.0 -2.95 19.9 -3.7 Q19.0 -4.25 18.9 -4.95 L18.75 -2.15 19.35 -0.95 Q19.9 -0.15 20.5 -0.15 L21.7 0.45 22.15 0.55 24.1 1.15 24.5 1.15 26.05 1.15 27.95 1.2 31.65 0.3 Q33.6 -0.5 33.6 -1.65 L33.6 -4.5 Q33.55 -3.9 32.9 -3.3 L31.6 -2.85 29.85 -2.3 27.95 -2.1 26.2 -1.95 24.65 -2.1 24.25 -2.1 23.4 -2.35 M24.15 -7.7 Q22.55 -7.65 21.15 -7.05 18.9 -6.15 18.9 -4.95 M24.15 -7.7 L26.5 -7.9 28.85 -7.5 31.65 -6.8 Q33.6 -5.8 33.55 -4.6 L33.6 -4.5" fill="none" stroke="#000000" stroke-linecap="round" stroke-linejoin="round" stroke-opacity="0.4" stroke-width="0.1"/>
      <path d="M18.85 -13.8 Q18.7 -13.15 19.25 -12.3 L20.15 -11.25 21.0 -10.7 22.25 -9.95 22.95 -9.45 23.4 -9.25 24.8 -8.6 26.4 -8.25 28.3 -7.85 30.1 -7.75 31.45 -7.75 Q32.3 -8.1 32.55 -8.6 L31.65 -6.0 Q31.3 -4.85 29.15 -4.75 L25.35 -5.2 23.65 -5.8 22.15 -6.25 21.8 -6.45 20.05 -7.55 19.75 -7.85 18.75 -8.75 Q18.2 -8.95 18.0 -9.95 L17.8 -11.25 18.85 -13.8" fill="url(#decoration231-gradient13)" fill-rule="evenodd" stroke="none"/>
      <path d="M22.25 -9.95 L21.0 -10.7 20.15 -11.25 19.25 -12.3 Q18.7 -13.15 18.85 -13.8 19.2 -15.0 21.55 -15.15 L24.65 -14.7 Q26.6 -10.45 22.25 -9.95 M32.55 -8.6 Q32.3 -8.1 31.45 -7.75 L30.1 -7.75 28.3 -7.85 Q26.15 -11.75 29.05 -13.05 L31.45 -11.5 Q32.9 -9.95 32.5 -8.8 L32.55 -8.6" fill="#ffdc35" fill-rule="evenodd" stroke="none"/>
      <path d="M28.3 -7.85 L26.4 -8.25 24.8 -8.6 23.4 -9.25 22.95 -9.45 22.25 -9.95 Q26.6 -10.45 24.65 -14.7 L26.9 -14.2 29.05 -13.05 Q26.15 -11.75 28.3 -7.85" fill="#fff9ec" fill-rule="evenodd" stroke="none"/>
      <path d="M22.25 -9.95 L21.0 -10.7 20.15 -11.25 19.25 -12.3 Q18.7 -13.15 18.85 -13.8 L17.8 -11.25 18.0 -9.95 Q18.2 -8.95 18.75 -8.75 L19.75 -7.85 20.05 -7.55 21.8 -6.45 22.15 -6.25 23.65 -5.8 25.35 -5.2 29.15 -4.75 Q31.3 -4.85 31.65 -6.0 L32.55 -8.6 Q32.3 -8.1 31.45 -7.75 L30.1 -7.75 28.3 -7.85 26.4 -8.25 24.8 -8.6 23.4 -9.25 22.95 -9.45 22.25 -9.95 M24.65 -14.7 L21.55 -15.15 Q19.2 -15.0 18.85 -13.8 M24.65 -14.7 L26.9 -14.2 29.05 -13.05 31.45 -11.5 Q32.9 -9.95 32.5 -8.8 L32.55 -8.6" fill="none" stroke="#000000" stroke-linecap="round" stroke-linejoin="round" stroke-opacity="0.4" stroke-width="0.1"/>
      <path d="M22.55 -6.8 L20.95 -4.5 Q20.25 -3.45 18.2 -4.0 15.8 -4.7 14.7 -5.4 L13.15 -6.5 11.9 -7.35 11.6 -7.65 10.2 -9.15 10.0 -9.6 9.4 -10.65 Q8.9 -11.05 8.9 -12.1 L9.1 -13.4 10.8 -15.6 Q10.5 -15.0 10.85 -14.0 L11.4 -12.75 12.05 -11.9 13.0 -10.9 13.6 -10.15 13.95 -9.85 15.05 -8.9 16.55 -8.1 18.3 -7.15 19.95 -6.65 21.3 -6.15 Q22.2 -6.35 22.55 -6.8" fill="url(#decoration231-gradient14)" fill-rule="evenodd" stroke="none"/>
      <path d="M10.8 -15.6 Q11.5 -16.6 13.85 -15.95 15.25 -15.7 16.65 -14.8 17.3 -10.15 13.0 -10.9 L12.05 -11.9 11.4 -12.75 10.85 -14.0 Q10.5 -15.0 10.8 -15.6 M20.4 -11.9 L22.25 -9.8 Q23.3 -7.9 22.6 -6.95 L22.55 -6.8 Q22.2 -6.35 21.3 -6.15 L19.95 -6.65 18.3 -7.15 Q17.25 -11.55 20.4 -11.9" fill="#ffdc35" fill-rule="evenodd" stroke="none"/>
      <path d="M16.65 -14.8 L18.65 -13.75 20.4 -11.9 Q17.25 -11.55 18.3 -7.15 L16.55 -8.1 15.05 -8.9 13.95 -9.85 13.6 -10.15 13.0 -10.9 Q17.3 -10.15 16.65 -14.8" fill="#fff9ec" fill-rule="evenodd" stroke="none"/>
      <path d="M10.8 -15.6 Q11.5 -16.6 13.85 -15.95 15.25 -15.7 16.65 -14.8 L18.65 -13.75 20.4 -11.9 22.25 -9.8 Q23.3 -7.9 22.6 -6.95 L22.55 -6.8 20.95 -4.5 Q20.25 -3.45 18.2 -4.0 15.8 -4.7 14.7 -5.4 L13.15 -6.5 11.9 -7.35 11.6 -7.65 10.2 -9.15 10.0 -9.6 9.4 -10.65 Q8.9 -11.05 8.9 -12.1 L9.1 -13.4 10.8 -15.6 Q10.5 -15.0 10.85 -14.0 L11.4 -12.75 12.05 -11.9 13.0 -10.9 M18.3 -7.15 L19.95 -6.65 21.3 -6.15 Q22.2 -6.35 22.55 -6.8 M18.3 -7.15 L16.55 -8.1 15.05 -8.9 13.95 -9.85 13.6 -10.15 13.0 -10.9" fill="none" stroke="#000000" stroke-linecap="round" stroke-linejoin="round" stroke-opacity="0.4" stroke-width="0.1"/>
      <path d="M3.65 -23.8 Q3.85 -25.1 6.2 -25.35 L9.3 -25.3 Q11.7 -21.2 7.35 -20.4 L6.0 -20.95 5.15 -21.5 4.25 -22.4 Q3.55 -23.2 3.65 -23.8 M13.85 -24.1 Q15.25 -23.55 16.4 -22.7 18.05 -21.35 17.7 -20.25 L17.7 -20.1 17.7 -20.05 Q17.55 -19.55 16.8 -19.1 L15.45 -19.0 13.65 -18.9 Q11.05 -22.55 13.85 -24.1" fill="#ffdc35" fill-rule="evenodd" stroke="none"/>
      <path d="M9.3 -25.3 L11.6 -25.1 13.85 -24.1 Q11.05 -22.55 13.65 -18.9 L11.7 -19.05 10.0 -19.25 8.6 -19.75 8.2 -19.9 7.35 -20.4 Q11.7 -21.2 9.3 -25.3" fill="#fff9ec" fill-rule="evenodd" stroke="none"/>
      <path d="M17.7 -20.05 L17.1 -17.35 Q16.9 -16.2 14.85 -15.9 12.4 -15.7 11.0 -15.9 L9.15 -16.3 7.65 -16.65 7.3 -16.75 5.45 -17.7 5.1 -18.0 4.05 -18.75 Q3.5 -19.0 3.15 -19.9 L2.85 -21.15 3.65 -23.8 Q3.55 -23.2 4.25 -22.4 L5.15 -21.5 6.0 -20.95 7.35 -20.4 8.2 -19.9 8.6 -19.75 10.0 -19.25 11.7 -19.05 13.65 -18.9 15.45 -19.0 16.8 -19.1 Q17.55 -19.55 17.7 -20.05" fill="url(#decoration231-gradient15)" fill-rule="evenodd" stroke="none"/>
      <path d="M3.65 -23.8 Q3.85 -25.1 6.2 -25.35 L9.3 -25.3 11.6 -25.1 13.85 -24.1 Q15.25 -23.55 16.4 -22.7 18.05 -21.35 17.7 -20.25 L17.7 -20.1 17.7 -20.05 17.1 -17.35 Q16.9 -16.2 14.85 -15.9 12.4 -15.7 11.0 -15.9 L9.15 -16.3 7.65 -16.65 7.3 -16.75 5.45 -17.7 5.1 -18.0 4.05 -18.75 Q3.5 -19.0 3.15 -19.9 L2.85 -21.15 3.65 -23.8 Q3.55 -23.2 4.25 -22.4 L5.15 -21.5 6.0 -20.95 7.35 -20.4 M13.65 -18.9 L15.45 -19.0 16.8 -19.1 Q17.55 -19.55 17.7 -20.05 M13.65 -18.9 L11.7 -19.05 10.0 -19.25 8.6 -19.75 8.2 -19.9 7.35 -20.4" fill="none" stroke="#000000" stroke-linecap="round" stroke-linejoin="round" stroke-opacity="0.4" stroke-width="0.1"/>
      <path d="M-1.15 -36.85 L0.55 -34.55 Q1.3 -33.7 0.2 -31.85 -1.05 -29.85 -2.2 -28.95 L-3.65 -27.8 -4.9 -26.85 -5.25 -26.6 -7.1 -25.85 -7.5 -25.7 -8.75 -25.45 Q-9.35 -25.1 -10.25 -25.45 L-11.45 -25.9 -13.05 -28.3 Q-12.5 -27.75 -11.5 -27.8 L-10.15 -27.95 -9.2 -28.3 -7.95 -29.0 -7.0 -29.3 -6.65 -29.5 -5.4 -30.35 -4.2 -31.45 -2.8 -32.8 Q-2.2 -33.55 -1.75 -34.35 L-1.0 -35.45 Q-0.8 -36.35 -1.15 -36.85" fill="url(#decoration231-gradient16)" fill-rule="evenodd" stroke="none"/>
      <path d="M-1.15 -36.85 Q-0.8 -36.35 -1.0 -35.45 L-1.75 -34.35 Q-2.2 -33.55 -2.8 -32.8 -7.3 -33.2 -6.75 -36.3 -5.4 -37.05 -4.1 -37.4 -1.95 -37.9 -1.25 -36.9 -1.2 -36.8 -1.15 -36.85 M-7.95 -29.0 L-9.2 -28.3 -10.15 -27.95 -11.5 -27.8 Q-12.5 -27.75 -13.05 -28.3 -13.8 -29.2 -12.5 -31.3 -11.7 -32.6 -10.5 -33.65 -5.9 -32.85 -7.95 -29.0" fill="#ffdc35" fill-rule="evenodd" stroke="none"/>
      <path d="M-2.8 -32.8 L-4.2 -31.45 -5.4 -30.35 -6.65 -29.5 -7.0 -29.3 -7.95 -29.0 Q-5.9 -32.85 -10.5 -33.65 L-8.85 -35.25 -6.75 -36.3 Q-7.3 -33.2 -2.8 -32.8" fill="#fff9ec" fill-rule="evenodd" stroke="none"/>
      <path d="M-13.05 -28.3 L-11.45 -25.9 -10.25 -25.45 Q-9.35 -25.1 -8.75 -25.45 L-7.5 -25.7 -7.1 -25.85 -5.25 -26.6 -4.9 -26.85 -3.65 -27.8 -2.2 -28.95 Q-1.05 -29.85 0.2 -31.85 1.3 -33.7 0.55 -34.55 L-1.15 -36.85 Q-0.8 -36.35 -1.0 -35.45 L-1.75 -34.35 Q-2.2 -33.55 -2.8 -32.8 L-4.2 -31.45 -5.4 -30.35 -6.65 -29.5 -7.0 -29.3 -7.95 -29.0 -9.2 -28.3 -10.15 -27.95 -11.5 -27.8 Q-12.5 -27.75 -13.05 -28.3 -13.8 -29.2 -12.5 -31.3 -11.7 -32.6 -10.5 -33.65 L-8.85 -35.25 -6.75 -36.3 Q-5.4 -37.05 -4.1 -37.4 -1.95 -37.9 -1.25 -36.9 -1.2 -36.8 -1.15 -36.85" fill="none" stroke="#000000" stroke-linecap="round" stroke-linejoin="round" stroke-opacity="0.4" stroke-width="0.1"/>
      <path d="M11.55 -20.05 L11.75 -17.25 Q11.9 -16.05 10.0 -15.15 7.75 -14.15 6.35 -13.95 L4.55 -13.8 3.0 -13.65 2.6 -13.65 0.55 -14.0 0.15 -14.15 -1.05 -14.55 Q-1.7 -14.55 -2.3 -15.35 L-3.05 -16.45 -3.1 -19.25 Q-2.95 -18.55 -2.05 -18.05 L-0.85 -17.45 0.15 -17.25 1.6 -17.1 2.45 -16.9 2.85 -16.9 4.4 -16.9 6.1 -17.15 8.0 -17.6 9.65 -18.3 10.9 -18.75 Q11.55 -19.45 11.55 -20.05" fill="url(#decoration231-gradient17)" fill-rule="evenodd" stroke="none"/>
      <path d="M-3.1 -19.25 Q-3.25 -20.45 -1.05 -21.5 0.25 -22.2 1.9 -22.4 5.4 -19.25 1.6 -17.1 L0.15 -17.25 -0.85 -17.45 -2.05 -18.05 Q-2.95 -18.55 -3.1 -19.25 M6.55 -22.65 L9.4 -22.15 Q11.4 -21.35 11.5 -20.15 L11.55 -20.05 Q11.55 -19.45 10.9 -18.75 L9.65 -18.3 8.0 -17.6 Q4.4 -20.3 6.55 -22.65" fill="#ffdc35" fill-rule="evenodd" stroke="none"/>
      <path d="M1.9 -22.4 L4.1 -22.85 6.55 -22.65 Q4.4 -20.3 8.0 -17.6 L6.1 -17.15 4.4 -16.9 2.85 -16.9 2.45 -16.9 1.6 -17.1 Q5.4 -19.25 1.9 -22.4" fill="#fff9ec" fill-rule="evenodd" stroke="none"/>
      <path d="M11.55 -20.05 L11.75 -17.25 Q11.9 -16.05 10.0 -15.15 7.75 -14.15 6.35 -13.95 L4.55 -13.8 3.0 -13.65 2.6 -13.65 0.55 -14.0 0.15 -14.15 -1.05 -14.55 Q-1.7 -14.55 -2.3 -15.35 L-3.05 -16.45 -3.1 -19.25 Q-3.25 -20.45 -1.05 -21.5 0.25 -22.2 1.9 -22.4 L4.1 -22.85 6.55 -22.65 9.4 -22.15 Q11.4 -21.35 11.5 -20.15 L11.55 -20.05 Q11.55 -19.45 10.9 -18.75 L9.65 -18.3 8.0 -17.6 6.1 -17.15 4.4 -16.9 2.85 -16.9 2.45 -16.9 1.6 -17.1 0.15 -17.25 -0.85 -17.45 -2.05 -18.05 Q-2.95 -18.55 -3.1 -19.25" fill="none" stroke="#000000" stroke-linecap="round" stroke-linejoin="round" stroke-opacity="0.4" stroke-width="0.1"/>
      <path d="M-2.05 -19.9 Q-0.85 -19.1 -0.1 -18.0 1.25 -16.2 0.6 -15.15 L0.6 -15.0 Q0.25 -14.55 -0.65 -14.3 L-1.95 -14.55 -3.8 -15.0 Q-5.2 -19.25 -2.05 -19.9 M-12.0 -22.55 Q-11.45 -23.7 -9.05 -23.35 -7.5 -23.05 -6.05 -22.4 -5.0 -17.85 -9.35 -18.05 L-10.4 -19.1 -11.1 -19.8 -11.85 -21.1 Q-12.2 -21.85 -12.0 -22.55" fill="#ffdc35" fill-rule="evenodd" stroke="none"/>
      <path d="M-6.05 -22.4 L-4.0 -21.5 -2.05 -19.9 Q-5.2 -19.25 -3.8 -15.0 L-5.55 -15.6 -7.1 -16.4 -8.35 -17.25 Q-8.5 -17.3 -8.75 -17.5 L-9.35 -18.05 Q-5.0 -17.85 -6.05 -22.4" fill="#fff9ec" fill-rule="evenodd" stroke="none"/>
      <path d="M0.6 -15.0 L-0.8 -12.55 Q-1.4 -11.55 -3.5 -11.85 -5.9 -12.3 -7.15 -12.95 L-8.7 -13.75 -10.05 -14.5 -10.4 -14.8 -11.9 -16.25 -12.2 -16.45 -13.0 -17.6 Q-13.4 -17.95 -13.55 -19.0 L-13.45 -20.15 -12.0 -22.55 Q-12.2 -21.85 -11.85 -21.1 L-11.1 -19.8 -10.4 -19.1 -9.35 -18.05 -8.75 -17.5 Q-8.5 -17.3 -8.35 -17.25 L-7.1 -16.4 -5.55 -15.6 -3.8 -15.0 -1.95 -14.55 -0.65 -14.3 Q0.25 -14.55 0.6 -15.0" fill="url(#decoration231-gradient18)" fill-rule="evenodd" stroke="none"/>
      <path d="M-2.05 -19.9 Q-0.85 -19.1 -0.1 -18.0 1.25 -16.2 0.6 -15.15 L0.6 -15.0 -0.8 -12.55 Q-1.4 -11.55 -3.5 -11.85 -5.9 -12.3 -7.15 -12.95 L-8.7 -13.75 -10.05 -14.5 -10.4 -14.8 -11.9 -16.25 -12.2 -16.45 -13.0 -17.6 Q-13.4 -17.95 -13.55 -19.0 L-13.45 -20.15 -12.0 -22.55 Q-11.45 -23.7 -9.05 -23.35 -7.5 -23.05 -6.05 -22.4 L-4.0 -21.5 -2.05 -19.9 M-3.8 -15.0 L-1.95 -14.55 -0.65 -14.3 Q0.25 -14.55 0.6 -15.0 M-3.8 -15.0 L-5.55 -15.6 -7.1 -16.4 -8.35 -17.25 Q-8.5 -17.3 -8.75 -17.5 L-9.35 -18.05 -10.4 -19.1 -11.1 -19.8 -11.85 -21.1 Q-12.2 -21.85 -12.0 -22.55" fill="none" stroke="#000000" stroke-linecap="round" stroke-linejoin="round" stroke-opacity="0.4" stroke-width="0.1"/>
      <path d="M-17.65 -12.0 Q-17.65 -11.55 -17.35 -11.4 -17.05 -10.75 -16.55 -10.6 -16.1 -10.45 -15.45 -10.6 -14.85 -10.75 -14.85 -11.25 -14.65 -11.85 -14.85 -12.65 -15.0 -12.95 -15.6 -13.1 L-16.85 -13.3 -17.65 -12.0 M-19.25 -12.95 L-18.75 -13.6 Q-21.1 -16.75 -24.55 -19.4 L-17.95 -14.55 -17.5 -15.15 -14.65 -15.3 Q-13.4 -15.0 -12.65 -13.9 -7.9 -14.7 -1.45 -17.35 -7.6 -14.7 -12.15 -11.55 L-12.15 -11.1 Q-12.65 -10.0 -14.05 -9.2 -15.0 -8.7 -16.4 -8.9 L-17.5 -9.2 -21.25 -8.25 -18.75 -10.6 Q-19.55 -11.55 -19.25 -12.95" fill="#f2f2f2" fill-opacity="0.5921569" fill-rule="evenodd" stroke="none"/>
      <path d="M-17.65 -12.0 L-16.85 -13.3 -15.6 -13.1 Q-15.0 -12.95 -14.85 -12.65 -14.65 -11.85 -14.85 -11.25 -14.85 -10.75 -15.45 -10.6 -16.1 -10.45 -16.55 -10.6 -17.05 -10.75 -17.35 -11.4 -17.65 -11.55 -17.65 -12.0" fill="#f2f2f2" fill-opacity="0.9411765" fill-rule="evenodd" stroke="none"/>
      <path d="M-5.6 -37.7 Q-5.7 -39.5 -4.3 -39.95 -1.95 -40.4 0.7 -37.95 L6.8 -32.1 Q-1.35 -37.4 -5.6 -37.7 M13.0 -47.7 Q29.35 -46.25 34.75 -32.85 L22.25 -20.1 Q33.4 -41.1 13.0 -47.7 M32.45 -17.15 L32.9 -16.95 Q34.55 -16.05 34.65 -14.45 L34.65 -13.75 Q34.45 -11.35 30.0 -11.9 28.1 -12.1 21.7 -16.25 L15.7 -20.3 Q-0.55 -25.85 -4.7 -34.25 -0.8 -27.4 8.7 -23.45 18.15 -19.6 24.7 -17.85 31.4 -16.2 32.45 -17.15" fill="#192e0f" fill-rule="evenodd" stroke="none"/>
      <path d="M6.8 -32.1 Q8.45 -40.7 12.95 -47.7 L13.0 -47.7 Q33.4 -41.1 22.25 -20.1 L32.0 -17.35 32.45 -17.15 Q31.4 -16.2 24.7 -17.85 18.15 -19.6 8.7 -23.45 -0.8 -27.4 -4.7 -34.25 L-5.0 -34.9 Q-5.6 -36.65 -5.6 -37.7 -1.35 -37.4 6.8 -32.1" fill="url(#decoration231-gradient19)" fill-rule="evenodd" stroke="none"/>
      <path d="M-5.6 -37.7 Q-5.7 -39.5 -4.3 -39.95 -1.95 -40.4 0.7 -37.95 L6.8 -32.1 Q8.45 -40.7 12.95 -47.7 L13.0 -47.7 Q29.35 -46.25 34.75 -32.85 L22.25 -20.1 32.0 -17.35 32.45 -17.15 M32.9 -16.95 Q34.55 -16.05 34.65 -14.45 L34.65 -13.75 Q34.45 -11.35 30.0 -11.9 28.1 -12.1 21.7 -16.25 L15.7 -20.3 Q-0.55 -25.85 -4.7 -34.25 L-5.0 -34.9 Q-5.6 -36.65 -5.6 -37.7" fill="none" stroke="#000000" stroke-linecap="round" stroke-linejoin="round" stroke-opacity="0.4" stroke-width="0.1"/>
      <path d="M32.45 -17.15 L32.9 -16.95" fill="none" stroke="#000000" stroke-linecap="round" stroke-linejoin="round" stroke-opacity="0.3019608" stroke-width="0.1"/>
      <path d="M31.1 -31.1 Q25.3 -27.9 21.1 -23.55 L20.3 -24.3 Q24.6 -28.95 31.1 -31.1" fill="#577722" fill-rule="evenodd" stroke="none"/>
      <path d="M31.1 -31.1 Q25.3 -27.9 21.1 -23.55 L20.3 -24.3 Q24.6 -28.95 31.1 -31.1 Z" fill="none" stroke="#000000" stroke-linecap="round" stroke-linejoin="round" stroke-opacity="0.4" stroke-width="0.05"/>
      <path d="M33.35 -29.65 L34.1 -29.3 35.0 -28.0 32.55 -27.9 Q31.75 -26.2 30.25 -26.4 L30.75 -28.35 33.35 -29.65" fill="#94d95a" fill-rule="evenodd" stroke="none"/>
      <path d="M33.35 -29.65 L30.75 -28.35 Q31.1 -29.4 31.75 -30.05 L33.35 -29.65" fill="#577722" fill-rule="evenodd" stroke="none"/>
      <path d="M30.25 -26.4 Q31.75 -26.2 32.55 -27.9 L35.0 -28.0 Q35.35 -27.45 34.8 -26.75 34.45 -26.15 33.05 -26.75 L32.8 -26.05 32.1 -25.35 Q30.7 -24.95 30.25 -26.4" fill="#5d9127" fill-rule="evenodd" stroke="none"/>
      <path d="M35.0 -28.0 L34.1 -29.3 33.35 -29.65 M30.75 -28.35 L30.25 -26.4 M35.0 -28.0 Q35.35 -27.45 34.8 -26.75 34.45 -26.15 33.05 -26.75 L32.8 -26.05 32.1 -25.35 Q30.7 -24.95 30.25 -26.4 M30.75 -28.35 Q31.1 -29.4 31.75 -30.05 L33.35 -29.65" fill="none" stroke="#000000" stroke-linecap="round" stroke-linejoin="round" stroke-opacity="0.4" stroke-width="0.05"/>
      <path d="M34.95 -35.85 L37.55 -35.75 Q38.4 -35.15 37.0 -33.0 L38.1 -32.3 Q38.8 -31.95 38.9 -31.15 38.9 -30.35 38.2 -29.55 37.55 -28.85 37.0 -28.7 37.7 -30.0 37.15 -31.15 36.7 -32.3 35.5 -32.65 36.65 -34.95 34.95 -35.85" fill="#5d9127" fill-rule="evenodd" stroke="none"/>
      <path d="M34.95 -35.85 Q36.65 -34.95 35.5 -32.65 36.7 -32.3 37.15 -31.15 37.7 -30.0 37.0 -28.7 L34.95 -28.85 Q35.95 -30.45 35.6 -31.05 35.25 -31.95 34.25 -32.1 34.6 -32.95 34.25 -33.85 L33.55 -34.7 34.95 -35.85" fill="#94d95a" fill-rule="evenodd" stroke="none"/>
      <path d="M34.95 -28.85 L33.0 -30.45 31.65 -31.65 33.55 -34.7 34.25 -33.85 Q34.6 -32.95 34.25 -32.1 35.25 -31.95 35.6 -31.05 35.95 -30.45 34.95 -28.85" fill="#577722" fill-rule="evenodd" stroke="none"/>
      <path d="M37.0 -28.7 Q37.55 -28.85 38.2 -29.55 38.9 -30.35 38.9 -31.15 38.8 -31.95 38.1 -32.3 L37.0 -33.0 Q38.4 -35.15 37.55 -35.75 L34.95 -35.85 M37.0 -28.7 L34.95 -28.85 33.0 -30.45 31.65 -31.65 33.55 -34.7 34.95 -35.85" fill="none" stroke="#000000" stroke-linecap="round" stroke-linejoin="round" stroke-opacity="0.4" stroke-width="0.05"/>
      <path d="M25.4 -31.5 L27.05 -31.85 Q27.2 -30.8 29.05 -29.75 28.7 -28.45 29.5 -27.65 30.0 -27.3 30.4 -27.1 L29.7 -25.85 Q28.8 -25.8 28.25 -26.4 27.45 -27.3 27.75 -28.95 26.6 -29.5 25.4 -31.5" fill="#94d95a" fill-rule="evenodd" stroke="none"/>
      <path d="M27.05 -31.85 L29.2 -31.5 30.6 -31.05 Q31.45 -29.55 30.4 -27.1 30.0 -27.3 29.5 -27.65 28.7 -28.45 29.05 -29.75 27.2 -30.8 27.05 -31.85" fill="#577722" fill-rule="evenodd" stroke="none"/>
      <path d="M29.7 -25.85 Q29.35 -25.0 28.3 -24.8 27.2 -24.4 26.25 -25.3 25.75 -25.7 25.85 -26.75 L26.0 -28.15 Q24.0 -28.5 23.95 -29.55 23.95 -31.15 25.4 -31.5 26.6 -29.5 27.75 -28.95 27.45 -27.3 28.25 -26.4 28.8 -25.8 29.7 -25.85" fill="#5d9127" fill-rule="evenodd" stroke="none"/>
      <path d="M25.4 -31.5 L27.05 -31.85 29.2 -31.5 30.6 -31.05 Q31.45 -29.55 30.4 -27.1 L29.7 -25.85 Q29.35 -25.0 28.3 -24.8 27.2 -24.4 26.25 -25.3 25.75 -25.7 25.85 -26.75 L26.0 -28.15 Q24.0 -28.5 23.95 -29.55 23.95 -31.15 25.4 -31.5 Z" fill="none" stroke="#000000" stroke-linecap="round" stroke-linejoin="round" stroke-opacity="0.4" stroke-width="0.05"/>
      <path d="M32.15 -36.2 Q29.5 -37.2 28.15 -35.4 25.3 -35.95 24.6 -33.15 23.3 -33.85 23.25 -35.1 23.4 -36.0 24.3 -36.65 L25.9 -37.2 27.55 -36.8 27.55 -36.85 Q28.1 -39.3 29.35 -39.0 32.1 -39.1 32.15 -36.2" fill="#5d9127" fill-rule="evenodd" stroke="none"/>
      <path d="M26.0 -32.35 Q26.75 -33.75 29.15 -33.7 29.35 -34.35 30.25 -34.6 L32.15 -34.7 31.45 -31.8 31.25 -31.75 26.05 -32.3 26.0 -32.35" fill="#577722" fill-rule="evenodd" stroke="none"/>
      <path d="M32.15 -34.7 L30.25 -34.6 Q29.35 -34.35 29.15 -33.7 26.75 -33.75 26.0 -32.35 25.05 -32.7 24.6 -33.15 25.3 -35.95 28.15 -35.4 29.5 -37.2 32.15 -36.2 L32.15 -36.0 32.15 -34.7" fill="#94d95a" fill-rule="evenodd" stroke="none"/>
      <path d="M32.15 -34.7 L32.15 -36.0 32.15 -36.2 Q32.1 -39.1 29.35 -39.0 28.1 -39.3 27.55 -36.85 L27.55 -36.8 25.9 -37.2 24.3 -36.65 Q23.4 -36.0 23.25 -35.1 23.3 -33.85 24.6 -33.15 25.05 -32.7 26.0 -32.35 L26.05 -32.3 31.25 -31.75 31.45 -31.8 32.15 -34.7 Z" fill="none" stroke="#000000" stroke-linecap="round" stroke-linejoin="round" stroke-opacity="0.4" stroke-width="0.05"/>
      <path d="M23.4 -19.9 Q23.1 -19.25 22.25 -19.7 13.7 -26.5 4.55 -30.1 3.35 -30.45 3.9 -31.4 L5.85 -34.55 Q6.55 -35.65 7.85 -34.95 18.5 -31.1 25.4 -23.05 26.15 -22.4 25.15 -21.65 L23.4 -19.9" fill="#101c0a" fill-rule="evenodd" stroke="none"/>
      <path d="M23.4 -19.9 Q23.1 -19.25 22.25 -19.7 13.7 -26.5 4.55 -30.1 3.35 -30.45 3.9 -31.4 L5.85 -34.55 Q6.55 -35.65 7.85 -34.95 18.5 -31.1 25.4 -23.05 26.15 -22.4 25.15 -21.65 L23.4 -19.9 Z" fill="none" stroke="#000000" stroke-linecap="round" stroke-linejoin="round" stroke-opacity="0.4" stroke-width="0.1"/>
      <path d="M20.95 -29.9 Q20.75 -26.2 18.0 -23.45 L17.65 -23.0 Q11.4 -23.9 7.5 -28.3 L7.55 -28.85 Q11.5 -25.1 17.15 -23.6 19.7 -26.35 20.95 -29.9 M10.8 -28.85 L10.2 -29.5 12.4 -33.0 Q15.9 -31.65 18.55 -29.55 L18.05 -29.05 12.9 -31.8 Q11.75 -30.8 10.8 -28.85" fill="#855f00" fill-rule="evenodd" stroke="none"/>
      <path d="M10.1 -28.7 L9.4 -28.8 9.15 -28.15 Q11.25 -26.5 11.7 -26.95 11.85 -27.1 11.0 -28.15 L10.1 -28.7 M20.95 -29.9 Q19.7 -26.35 17.15 -23.6 11.5 -25.1 7.55 -28.85 8.45 -32.3 11.2 -35.05 17.25 -33.4 20.95 -29.9 M13.5 -25.45 Q13.8 -25.65 13.5 -25.85 13.25 -26.2 13.0 -26.05 12.9 -25.9 13.15 -25.55 13.45 -25.3 13.5 -25.45 M17.8 -31.75 L15.9 -32.25 Q15.45 -32.3 16.45 -31.5 L18.4 -30.25 Q19.45 -29.75 19.75 -30.05 20.1 -30.25 19.55 -30.75 19.05 -31.25 17.8 -31.75 M18.05 -29.05 L18.55 -29.55 Q15.9 -31.65 12.4 -33.0 L10.2 -29.5 10.8 -28.85 Q13.5 -26.55 16.6 -25.55 18.4 -27.25 18.05 -29.05" fill="#ffd121" fill-rule="evenodd" stroke="none"/>
      <path d="M10.1 -28.7 L11.0 -28.15 Q11.85 -27.1 11.7 -26.95 11.25 -26.5 9.15 -28.15 L9.4 -28.8 10.1 -28.7 M17.8 -31.75 Q19.05 -31.25 19.55 -30.75 20.1 -30.25 19.75 -30.05 19.45 -29.75 18.4 -30.25 L16.45 -31.5 Q15.45 -32.3 15.9 -32.25 L17.8 -31.75 M13.5 -25.45 Q13.45 -25.3 13.15 -25.55 12.9 -25.9 13.0 -26.05 13.25 -26.2 13.5 -25.85 13.8 -25.65 13.5 -25.45" fill="#fff5d2" fill-rule="evenodd" stroke="none"/>
      <path d="M7.55 -28.85 L7.5 -28.3 Q11.4 -23.9 17.65 -23.0 L18.0 -23.45 Q20.75 -26.2 20.95 -29.9 M7.55 -28.85 Q8.45 -32.3 11.2 -35.05 17.25 -33.4 20.95 -29.9 M10.8 -28.85 Q11.75 -30.8 12.9 -31.8 L18.05 -29.05 Q18.4 -27.25 16.6 -25.55 13.5 -26.55 10.8 -28.85" fill="none" stroke="#000000" stroke-linecap="round" stroke-linejoin="round" stroke-opacity="0.4" stroke-width="0.05"/>
      <path d="M5.1 -32.45 L7.15 -31.5 9.05 -29.9 Q5.85 -29.3 7.2 -25.0 L5.4 -25.7 3.9 -26.5 2.65 -27.4 2.3 -27.6 1.75 -28.3 Q6.1 -27.8 5.1 -32.45" fill="#fff9ec" fill-rule="evenodd" stroke="none"/>
      <path d="M11.55 -24.95 L10.0 -22.5 Q9.5 -21.45 7.4 -21.85 4.95 -22.35 3.75 -23.0 L2.25 -23.9 0.9 -24.65 0.55 -24.95 -1.0 -26.5 -1.2 -26.75 -1.9 -27.8 Q-2.3 -28.15 -2.45 -29.15 L-2.3 -30.45 -0.8 -32.85 Q-1.0 -32.15 -0.65 -31.25 L-0.1 -30.0 0.6 -29.3 1.75 -28.3 2.3 -27.6 2.65 -27.4 3.9 -26.5 5.4 -25.7 7.2 -25.0 8.95 -24.5 10.2 -24.25 Q11.2 -24.45 11.55 -24.95" fill="url(#decoration231-gradient20)" fill-rule="evenodd" stroke="none"/>
      <path d="M9.05 -29.9 L10.9 -27.9 Q12.25 -26.05 11.55 -25.1 L11.55 -24.95 Q11.2 -24.45 10.2 -24.25 L8.95 -24.5 7.2 -25.0 Q5.85 -29.3 9.05 -29.9 M-0.8 -32.85 Q-0.2 -33.85 2.1 -33.4 3.65 -33.15 5.1 -32.45 6.1 -27.8 1.75 -28.3 L0.6 -29.3 -0.1 -30.0 -0.65 -31.25 Q-1.0 -32.15 -0.8 -32.85" fill="#ffdc35" fill-rule="evenodd" stroke="none"/>
      <path d="M5.1 -32.45 L7.15 -31.5 9.05 -29.9 10.9 -27.9 Q12.25 -26.05 11.55 -25.1 L11.55 -24.95 10.0 -22.5 Q9.5 -21.45 7.4 -21.85 4.95 -22.35 3.75 -23.0 L2.25 -23.9 0.9 -24.65 0.55 -24.95 -1.0 -26.5 -1.2 -26.75 -1.9 -27.8 Q-2.3 -28.15 -2.45 -29.15 L-2.3 -30.45 -0.8 -32.85 Q-0.2 -33.85 2.1 -33.4 3.65 -33.15 5.1 -32.45 M1.75 -28.3 L2.3 -27.6 2.65 -27.4 3.9 -26.5 5.4 -25.7 7.2 -25.0 M1.75 -28.3 L0.6 -29.3 -0.1 -30.0 -0.65 -31.25 Q-1.0 -32.15 -0.8 -32.85 M11.55 -24.95 Q11.2 -24.45 10.2 -24.25 L8.95 -24.5 7.2 -25.0" fill="none" stroke="#000000" stroke-linecap="round" stroke-linejoin="round" stroke-opacity="0.4" stroke-width="0.1"/>
      <path d="M16.65 -20.5 L18.9 -20.95 21.35 -20.75 Q19.2 -18.4 22.75 -15.7 L20.85 -15.25 19.2 -15.0 17.65 -15.0 17.25 -15.0 16.4 -15.2 Q20.15 -17.35 16.65 -20.5" fill="#fff9ec" fill-rule="evenodd" stroke="none"/>
      <path d="M26.35 -18.15 L26.55 -15.35 Q26.7 -14.15 24.8 -13.25 22.55 -12.25 21.15 -12.05 L19.35 -11.9 17.8 -11.75 17.35 -11.75 15.35 -12.1 14.9 -12.25 13.7 -12.65 Q13.1 -12.65 12.45 -13.45 L11.75 -14.55 11.7 -17.35 Q11.85 -16.65 12.75 -16.2 L13.95 -15.55 14.9 -15.35 16.4 -15.2 17.25 -15.0 17.65 -15.0 19.2 -15.0 20.85 -15.25 22.75 -15.7 Q23.65 -15.95 24.45 -16.4 L25.7 -16.9 Q26.35 -17.6 26.35 -18.15" fill="url(#decoration231-gradient21)" fill-rule="evenodd" stroke="none"/>
      <path d="M21.35 -20.75 L24.15 -20.25 Q26.2 -19.45 26.25 -18.3 26.25 -18.15 26.35 -18.15 26.35 -17.6 25.7 -16.9 L24.45 -16.4 Q23.65 -15.95 22.75 -15.7 19.2 -18.4 21.35 -20.75 M11.7 -17.35 Q11.55 -18.55 13.7 -19.6 15.05 -20.3 16.65 -20.5 20.15 -17.35 16.4 -15.2 L14.9 -15.35 13.95 -15.55 12.75 -16.2 Q11.85 -16.65 11.7 -17.35" fill="#ffdc35" fill-rule="evenodd" stroke="none"/>
      <path d="M16.65 -20.5 L18.9 -20.95 21.35 -20.75 24.15 -20.25 Q26.2 -19.45 26.25 -18.3 26.25 -18.15 26.35 -18.15 L26.55 -15.35 Q26.7 -14.15 24.8 -13.25 22.55 -12.25 21.15 -12.05 L19.35 -11.9 17.8 -11.75 17.35 -11.75 15.35 -12.1 14.9 -12.25 13.7 -12.65 Q13.1 -12.65 12.45 -13.45 L11.75 -14.55 11.7 -17.35 Q11.55 -18.55 13.7 -19.6 15.05 -20.3 16.65 -20.5 M16.4 -15.2 L17.25 -15.0 17.65 -15.0 19.2 -15.0 20.85 -15.25 22.75 -15.7 M16.4 -15.2 L14.9 -15.35 13.95 -15.55 12.75 -16.2 Q11.85 -16.65 11.7 -17.35 M26.35 -18.15 Q26.35 -17.6 25.7 -16.9 L24.45 -16.4 Q23.65 -15.95 22.75 -15.7" fill="none" stroke="#000000" stroke-linecap="round" stroke-linejoin="round" stroke-opacity="0.4" stroke-width="0.1"/>
      <path d="M-5.95 -35.55 Q-5.95 -35.1 -5.65 -34.95 -5.35 -34.3 -4.85 -34.15 -4.4 -34.0 -3.75 -34.15 -3.15 -34.3 -3.15 -34.8 -2.95 -35.4 -3.15 -36.2 -3.3 -36.5 -3.9 -36.65 L-5.15 -36.85 -5.95 -35.55 M-7.55 -36.5 L-7.05 -37.15 Q-9.4 -40.3 -12.85 -42.95 L-6.25 -38.1 -5.8 -38.7 -2.95 -38.85 Q-1.7 -38.55 -0.95 -37.45 3.8 -38.25 10.25 -40.9 4.1 -38.25 -0.45 -35.1 L-0.45 -34.65 Q-0.95 -33.55 -2.35 -32.75 -3.3 -32.25 -4.7 -32.45 L-5.8 -32.75 -9.55 -31.8 -7.05 -34.15 Q-7.85 -35.1 -7.55 -36.5" fill="#f2f2f2" fill-opacity="0.5921569" fill-rule="evenodd" stroke="none"/>
      <path d="M-5.95 -35.55 L-5.15 -36.85 -3.9 -36.65 Q-3.3 -36.5 -3.15 -36.2 -2.95 -35.4 -3.15 -34.8 -3.15 -34.3 -3.75 -34.15 -4.4 -34.0 -4.85 -34.15 -5.35 -34.3 -5.65 -34.95 -5.95 -35.1 -5.95 -35.55" fill="#f2f2f2" fill-opacity="0.9411765" fill-rule="evenodd" stroke="none"/>
      <path d="M21.95 -8.45 Q21.95 -8.0 22.25 -7.85 22.55 -7.2 23.05 -7.05 23.5 -6.9 24.15 -7.05 24.75 -7.2 24.75 -7.7 24.95 -8.3 24.75 -9.1 24.6 -9.4 24.0 -9.55 L22.75 -9.75 21.95 -8.45 M20.35 -9.4 L20.85 -10.05 Q18.5 -13.2 15.05 -15.85 L21.65 -11.0 22.1 -11.6 24.95 -11.75 Q26.2 -11.45 26.95 -10.35 31.7 -11.15 38.15 -13.8 32.0 -11.15 27.45 -8.0 L27.45 -7.55 Q26.95 -6.45 25.55 -5.65 24.6 -5.15 23.2 -5.35 L22.1 -5.65 18.35 -4.7 20.85 -7.05 Q20.05 -8.0 20.35 -9.4" fill="#f2f2f2" fill-opacity="0.5921569" fill-rule="evenodd" stroke="none"/>
      <path d="M21.95 -8.45 L22.75 -9.75 24.0 -9.55 Q24.6 -9.4 24.75 -9.1 24.95 -8.3 24.75 -7.7 24.75 -7.2 24.15 -7.05 23.5 -6.9 23.05 -7.05 22.55 -7.2 22.25 -7.85 21.95 -8.0 21.95 -8.45" fill="#f2f2f2" fill-opacity="0.9411765" fill-rule="evenodd" stroke="none"/>
    </g>
    <linearGradient gradientTransform="matrix(0.006, 0.0023, -0.0013, 0.0034, 10.55, -1.95)" gradientUnits="userSpaceOnUse" id="decoration231-gradient0" spreadMethod="pad" x1="-819.2" x2="819.2">
      <stop offset="0.0" stop-color="#ae7315"/>
      <stop offset="0.17254901960784313" stop-color="#d2983b"/>
      <stop offset="0.2901960784313726" stop-color="#ffd085"/>
      <stop offset="0.42745098039215684" stop-color="#d2983b"/>
      <stop offset="0.5647058823529412" stop-color="#ae7315"/>
    </linearGradient>
    <linearGradient gradientTransform="matrix(0.0064, 9.0E-4, -4.0E-4, 0.0037, -0.45, -1.4)" gradientUnits="userSpaceOnUse" id="decoration231-gradient1" spreadMethod="pad" x1="-819.2" x2="819.2">
      <stop offset="0.0" stop-color="#ae7315"/>
      <stop offset="0.17254901960784313" stop-color="#d2983b"/>
      <stop offset="0.2901960784313726" stop-color="#ffd085"/>
      <stop offset="0.42745098039215684" stop-color="#d2983b"/>
      <stop offset="0.5647058823529412" stop-color="#ae7315"/>
    </linearGradient>
    <linearGradient gradientTransform="matrix(0.0053, 0.0036, -0.0021, 0.0031, -12.55, -4.4)" gradientUnits="userSpaceOnUse" id="decoration231-gradient2" spreadMethod="pad" x1="-819.2" x2="819.2">
      <stop offset="0.0" stop-color="#ae7315"/>
      <stop offset="0.17254901960784313" stop-color="#d2983b"/>
      <stop offset="0.2901960784313726" stop-color="#ffd085"/>
      <stop offset="0.42745098039215684" stop-color="#d2983b"/>
      <stop offset="0.5647058823529412" stop-color="#ae7315"/>
    </linearGradient>
    <linearGradient gradientTransform="matrix(0.0064, 9.0E-4, -5.0E-4, 0.0036, -21.8, -2.25)" gradientUnits="userSpaceOnUse" id="decoration231-gradient3" spreadMethod="pad" x1="-819.2" x2="819.2">
      <stop offset="0.0" stop-color="#ae7315"/>
      <stop offset="0.17254901960784313" stop-color="#d2983b"/>
      <stop offset="0.2901960784313726" stop-color="#ffd085"/>
      <stop offset="0.42745098039215684" stop-color="#d2983b"/>
      <stop offset="0.5647058823529412" stop-color="#ae7315"/>
    </linearGradient>
    <linearGradient gradientTransform="matrix(0.0058, -0.0029, 0.0017, 0.0033, -30.05, -3.15)" gradientUnits="userSpaceOnUse" id="decoration231-gradient4" spreadMethod="pad" x1="-819.2" x2="819.2">
      <stop offset="0.0" stop-color="#ae7315"/>
      <stop offset="0.17254901960784313" stop-color="#d2983b"/>
      <stop offset="0.2901960784313726" stop-color="#ffd085"/>
      <stop offset="0.42745098039215684" stop-color="#d2983b"/>
      <stop offset="0.5647058823529412" stop-color="#ae7315"/>
    </linearGradient>
    <linearGradient gradientTransform="matrix(0.0059, 0.0026, -0.0015, 0.0034, -23.85, -9.45)" gradientUnits="userSpaceOnUse" id="decoration231-gradient5" spreadMethod="pad" x1="-819.2" x2="819.2">
      <stop offset="0.0" stop-color="#ae7315"/>
      <stop offset="0.17254901960784313" stop-color="#d2983b"/>
      <stop offset="0.2901960784313726" stop-color="#ffd085"/>
      <stop offset="0.42745098039215684" stop-color="#d2983b"/>
      <stop offset="0.5647058823529412" stop-color="#ae7315"/>
    </linearGradient>
    <linearGradient gradientTransform="matrix(0.0064, -0.001, 6.0E-4, 0.0036, -13.8, -8.25)" gradientUnits="userSpaceOnUse" id="decoration231-gradient6" spreadMethod="pad" x1="-819.2" x2="819.2">
      <stop offset="0.0" stop-color="#ae7315"/>
      <stop offset="0.17254901960784313" stop-color="#d2983b"/>
      <stop offset="0.2901960784313726" stop-color="#ffd085"/>
      <stop offset="0.42745098039215684" stop-color="#d2983b"/>
      <stop offset="0.5647058823529412" stop-color="#ae7315"/>
    </linearGradient>
    <linearGradient gradientTransform="matrix(0.0064, -5.0E-4, 3.0E-4, 0.0037, -19.55, -15.2)" gradientUnits="userSpaceOnUse" id="decoration231-gradient7" spreadMethod="pad" x1="-819.2" x2="819.2">
      <stop offset="0.0" stop-color="#ae7315"/>
      <stop offset="0.17254901960784313" stop-color="#d2983b"/>
      <stop offset="0.2901960784313726" stop-color="#ffd085"/>
      <stop offset="0.42745098039215684" stop-color="#d2983b"/>
      <stop offset="0.5647058823529412" stop-color="#ae7315"/>
    </linearGradient>
    <linearGradient gradientTransform="matrix(0.0063, 0.0011, -6.0E-4, 0.0036, -15.55, -21.0)" gradientUnits="userSpaceOnUse" id="decoration231-gradient8" spreadMethod="pad" x1="-819.2" x2="819.2">
      <stop offset="0.0" stop-color="#ae7315"/>
      <stop offset="0.17254901960784313" stop-color="#d2983b"/>
      <stop offset="0.2901960784313726" stop-color="#ffd085"/>
      <stop offset="0.42745098039215684" stop-color="#d2983b"/>
      <stop offset="0.5647058823529412" stop-color="#ae7315"/>
    </linearGradient>
    <linearGradient gradientTransform="matrix(0.0053, 0.0036, -0.0021, 0.0031, -7.25, -10.3)" gradientUnits="userSpaceOnUse" id="decoration231-gradient9" spreadMethod="pad" x1="-819.2" x2="819.2">
      <stop offset="0.0" stop-color="#ae7315"/>
      <stop offset="0.17254901960784313" stop-color="#d2983b"/>
      <stop offset="0.2901960784313726" stop-color="#ffd085"/>
      <stop offset="0.42745098039215684" stop-color="#d2983b"/>
      <stop offset="0.5647058823529412" stop-color="#ae7315"/>
    </linearGradient>
    <linearGradient gradientTransform="matrix(0.0064, -5.0E-4, 3.0E-4, 0.0037, -2.25, -22.25)" gradientUnits="userSpaceOnUse" id="decoration231-gradient10" spreadMethod="pad" x1="-819.2" x2="819.2">
      <stop offset="0.0" stop-color="#ae7315"/>
      <stop offset="0.17254901960784313" stop-color="#d2983b"/>
      <stop offset="0.2901960784313726" stop-color="#ffd085"/>
      <stop offset="0.42745098039215684" stop-color="#d2983b"/>
      <stop offset="0.5647058823529412" stop-color="#ae7315"/>
    </linearGradient>
    <linearGradient gradientTransform="matrix(0.0062, 0.0017, -9.0E-4, 0.0036, 4.05, -9.3)" gradientUnits="userSpaceOnUse" id="decoration231-gradient11" spreadMethod="pad" x1="-819.2" x2="819.2">
      <stop offset="0.0" stop-color="#ae7315"/>
      <stop offset="0.17254901960784313" stop-color="#d2983b"/>
      <stop offset="0.2901960784313726" stop-color="#ffd085"/>
      <stop offset="0.42745098039215684" stop-color="#d2983b"/>
      <stop offset="0.5647058823529412" stop-color="#ae7315"/>
    </linearGradient>
    <linearGradient gradientTransform="matrix(0.0063, 0.0014, -8.0E-4, 0.0036, 23.8, -1.25)" gradientUnits="userSpaceOnUse" id="decoration231-gradient12" spreadMethod="pad" x1="-819.2" x2="819.2">
      <stop offset="0.0" stop-color="#ae7315"/>
      <stop offset="0.17254901960784313" stop-color="#d2983b"/>
      <stop offset="0.2901960784313726" stop-color="#ffd085"/>
      <stop offset="0.42745098039215684" stop-color="#d2983b"/>
      <stop offset="0.5647058823529412" stop-color="#ae7315"/>
    </linearGradient>
    <linearGradient gradientTransform="matrix(0.0055, 0.0034, -0.0019, 0.0032, 22.2, -8.75)" gradientUnits="userSpaceOnUse" id="decoration231-gradient13" spreadMethod="pad" x1="-819.2" x2="819.2">
      <stop offset="0.0" stop-color="#ae7315"/>
      <stop offset="0.17254901960784313" stop-color="#d2983b"/>
      <stop offset="0.2901960784313726" stop-color="#ffd085"/>
      <stop offset="0.42745098039215684" stop-color="#d2983b"/>
      <stop offset="0.5647058823529412" stop-color="#ae7315"/>
    </linearGradient>
    <linearGradient gradientTransform="matrix(0.0043, 0.0047, -0.0027, 0.0025, 12.65, -9.75)" gradientUnits="userSpaceOnUse" id="decoration231-gradient14" spreadMethod="pad" x1="-819.2" x2="819.2">
      <stop offset="0.0" stop-color="#ae7315"/>
      <stop offset="0.17254901960784313" stop-color="#d2983b"/>
      <stop offset="0.2901960784313726" stop-color="#ffd085"/>
      <stop offset="0.42745098039215684" stop-color="#d2983b"/>
      <stop offset="0.5647058823529412" stop-color="#ae7315"/>
    </linearGradient>
    <linearGradient gradientTransform="matrix(0.0058, 0.0028, -0.0016, 0.0034, 7.55, -19.2)" gradientUnits="userSpaceOnUse" id="decoration231-gradient15" spreadMethod="pad" x1="-819.2" x2="819.2">
      <stop offset="0.0" stop-color="#ae7315"/>
      <stop offset="0.17254901960784313" stop-color="#d2983b"/>
      <stop offset="0.2901960784313726" stop-color="#ffd085"/>
      <stop offset="0.42745098039215684" stop-color="#d2983b"/>
      <stop offset="0.5647058823529412" stop-color="#ae7315"/>
    </linearGradient>
    <linearGradient gradientTransform="matrix(0.0058, -0.0027, 0.0016, 0.0033, -6.9, -28.3)" gradientUnits="userSpaceOnUse" id="decoration231-gradient16" spreadMethod="pad" x1="-819.2" x2="819.2">
      <stop offset="0.0" stop-color="#ae7315"/>
      <stop offset="0.17254901960784313" stop-color="#d2983b"/>
      <stop offset="0.2901960784313726" stop-color="#ffd085"/>
      <stop offset="0.42745098039215684" stop-color="#d2983b"/>
      <stop offset="0.5647058823529412" stop-color="#ae7315"/>
    </linearGradient>
    <linearGradient gradientTransform="matrix(0.0064, 9.0E-4, -4.0E-4, 0.0037, 2.1, -15.95)" gradientUnits="userSpaceOnUse" id="decoration231-gradient17" spreadMethod="pad" x1="-819.2" x2="819.2">
      <stop offset="0.0" stop-color="#ae7315"/>
      <stop offset="0.17254901960784313" stop-color="#d2983b"/>
      <stop offset="0.2901960784313726" stop-color="#ffd085"/>
      <stop offset="0.42745098039215684" stop-color="#d2983b"/>
      <stop offset="0.5647058823529412" stop-color="#ae7315"/>
    </linearGradient>
    <linearGradient gradientTransform="matrix(0.0048, 0.0043, -0.0024, 0.0028, -9.55, -16.9)" gradientUnits="userSpaceOnUse" id="decoration231-gradient18" spreadMethod="pad" x1="-819.2" x2="819.2">
      <stop offset="0.0" stop-color="#ae7315"/>
      <stop offset="0.17254901960784313" stop-color="#d2983b"/>
      <stop offset="0.2901960784313726" stop-color="#ffd085"/>
      <stop offset="0.42745098039215684" stop-color="#d2983b"/>
      <stop offset="0.5647058823529412" stop-color="#ae7315"/>
    </linearGradient>
    <linearGradient gradientTransform="matrix(0.0075, 0.0034, -0.009, 0.0199, 14.3, -31.75)" gradientUnits="userSpaceOnUse" id="decoration231-gradient19" spreadMethod="pad" x1="-819.2" x2="819.2">
      <stop offset="0.0" stop-color="#75a840"/>
      <stop offset="1.0" stop-color="#4a731f"/>
    </linearGradient>
    <linearGradient gradientTransform="matrix(0.0047, 0.0044, -0.0025, 0.0027, 1.55, -27.1)" gradientUnits="userSpaceOnUse" id="decoration231-gradient20" spreadMethod="pad" x1="-819.2" x2="819.2">
      <stop offset="0.0" stop-color="#ae7315"/>
      <stop offset="0.17254901960784313" stop-color="#d2983b"/>
      <stop offset="0.2901960784313726" stop-color="#ffd085"/>
      <stop offset="0.42745098039215684" stop-color="#d2983b"/>
      <stop offset="0.5647058823529412" stop-color="#ae7315"/>
    </linearGradient>
    <linearGradient gradientTransform="matrix(0.0064, 9.0E-4, -4.0E-4, 0.0037, 16.9, -14.1)" gradientUnits="userSpaceOnUse" id="decoration231-gradient21" spreadMethod="pad" x1="-819.2" x2="819.2">
      <stop offset="0.0" stop-color="#ae7315"/>
      <stop offset="0.17254901960784313" stop-color="#d2983b"/>
      <stop offset="0.2901960784313726" stop-color="#ffd085"/>
      <stop offset="0.42745098039215684" stop-color="#d2983b"/>
      <stop offset="0.5647058823529412" stop-color="#ae7315"/>
    </linearGradient>
  </defs>
</svg>
