<?xml version="1.0" encoding="UTF-8" standalone="no"?>
<svg xmlns:ffdec="https://www.free-decompiler.com/flash" xmlns:xlink="http://www.w3.org/1999/xlink" ffdec:objectType="frame" height="62.35px" width="50.05px" xmlns="http://www.w3.org/2000/svg">
  <g transform="matrix(1.0, 0.0, 0.0, 1.0, 25.2, 61.85)">
    <use ffdec:characterId="966" height="62.35" transform="matrix(1.0, 0.0, 0.0, 1.0, -25.2, -61.85)" width="50.05" xlink:href="#decoration232-shape0"/>
  </g>
  <defs>
    <g id="decoration232-shape0" transform="matrix(1.0, 0.0, 0.0, 1.0, 25.2, 61.85)">
      <path d="M12.85 -43.45 L14.3 -43.55 20.2 -37.65 20.4 -37.2 20.2 -36.85 19.85 -36.65 Q19.55 -36.65 19.45 -36.85 L12.85 -43.45" fill="url(#decoration232-gradient0)" fill-rule="evenodd" stroke="none"/>
      <path d="M12.85 -43.45 L10.55 -45.7 10.4 -46.05 10.55 -46.5 11.0 -46.65 11.35 -46.5 14.3 -43.55 12.85 -43.45 M6.25 -42.55 L1.35 -47.4 Q1.2 -47.55 1.2 -47.8 L1.35 -48.2 1.75 -48.35 2.2 -48.2 7.65 -42.75 6.25 -42.55 M1.35 -41.15 L0.2 -40.6 -11.05 -51.95 -11.25 -52.35 -11.05 -52.75 -10.7 -52.9 -10.25 -52.75 1.35 -41.15 M-4.25 -38.05 L-5.1 -37.3 -17.6 -49.8 -17.75 -50.15 -17.6 -50.55 -17.15 -50.75 -16.75 -50.55 -4.25 -38.05 M-8.0 -33.5 L-8.45 -32.35 -16.6 -40.5 -16.75 -40.85 -16.6 -41.3 -16.2 -41.45 -15.8 -41.3 -8.0 -33.5 M-9.0 -26.05 L-8.7 -24.15 -12.55 -28.0 -12.65 -28.35 -12.55 -28.75 -12.15 -28.95 -11.7 -28.75 -9.0 -26.05" fill="#b88b5e" fill-rule="evenodd" stroke="none"/>
      <path d="M0.2 -40.6 L1.35 -41.15 16.8 -25.7 17.0 -25.3 16.8 -24.85 16.45 -24.7 Q16.15 -24.7 16.0 -24.85 L0.2 -40.6" fill="url(#decoration232-gradient1)" fill-rule="evenodd" stroke="none"/>
      <path d="M6.25 -42.55 L7.65 -42.75 18.2 -32.2 18.35 -31.75 18.2 -31.4 17.8 -31.2 Q17.5 -31.2 17.4 -31.4 L6.25 -42.55" fill="url(#decoration232-gradient2)" fill-rule="evenodd" stroke="none"/>
      <path d="M-4.25 -38.05 L14.3 -19.55 14.45 -19.1 14.3 -18.7 13.85 -18.5 13.5 -18.7 -5.1 -37.3 -4.25 -38.05" fill="url(#decoration232-gradient3)" fill-rule="evenodd" stroke="none"/>
      <path d="M-8.0 -33.5 L6.9 -18.65 7.05 -18.2 6.9 -17.8 6.5 -17.6 Q6.25 -17.6 6.1 -17.8 L-8.45 -32.35 -8.0 -33.5" fill="url(#decoration232-gradient4)" fill-rule="evenodd" stroke="none"/>
      <path d="M-9.0 -26.05 L4.3 -12.75 4.45 -12.35 4.3 -11.95 3.85 -11.75 3.5 -11.95 -8.7 -24.15 -9.0 -26.05" fill="url(#decoration232-gradient5)" fill-rule="evenodd" stroke="none"/>
      <path d="M24.75 -43.55 L24.2 -44.4 23.4 -45.1 24.0 -46.5 24.45 -45.7 Q24.9 -44.7 24.75 -43.55" fill="#cbb479" fill-rule="evenodd" stroke="none"/>
      <path d="M23.4 -45.1 L24.2 -44.4 24.75 -43.55 Q24.7 -42.55 24.1 -41.3 L7.85 -3.3 3.3 -3.3 Q10.45 -15.85 15.6 -26.4 L19.3 -34.6 19.85 -35.75 23.4 -45.1 M-15.7 -52.0 Q-14.4 -29.9 -0.75 -8.3 L-1.15 -7.6 Q-16.25 -28.7 -17.75 -52.2 L-15.7 -52.0" fill="#af8720" fill-rule="evenodd" stroke="none"/>
      <path d="M24.0 -46.5 L23.4 -45.1 Q20.55 -46.9 11.95 -45.85 7.0 -46.05 2.85 -48.95 -8.3 -56.0 -16.5 -57.4 L-16.7 -57.4 -16.85 -57.4 -18.7 -57.65 Q-20.95 -57.45 -21.15 -55.05 -21.3 -58.95 -19.15 -59.25 -16.4 -60.4 -7.1 -56.25 -0.35 -53.25 5.9 -49.05 9.5 -47.1 12.6 -47.4 L18.6 -47.75 Q22.65 -47.8 24.0 -46.5" fill="#fff2d2" fill-rule="evenodd" stroke="none"/>
      <path d="M-16.85 -57.4 L-16.7 -57.4 -16.5 -57.4 Q-8.3 -56.0 2.85 -48.95 7.0 -46.05 11.95 -45.85 20.55 -46.9 23.4 -45.1 L19.85 -35.75 19.3 -34.6 15.6 -26.4 Q10.45 -15.85 3.3 -3.3 L-5.1 -3.3 -3.1 -6.0 -3.25 -6.15 Q-13.45 -19.85 -17.9 -36.45 L-18.75 -39.7 Q-19.8 -44.05 -20.4 -48.6 L-20.5 -49.4 Q-21.05 -57.9 -16.85 -57.4 M-0.75 -8.3 Q5.15 -13.75 12.85 -29.0 20.55 -44.35 19.2 -44.65 L14.55 -44.2 7.15 -44.45 Q2.25 -45.3 -2.85 -48.2 -8.0 -51.1 -15.7 -52.0 L-17.75 -52.2 Q-16.25 -28.7 -1.15 -7.6 L-0.75 -8.3" fill="url(#decoration232-gradient6)" fill-rule="evenodd" stroke="none"/>
      <path d="M-16.85 -57.4 Q-21.05 -57.9 -20.5 -49.4 L-20.6 -50.3 -21.15 -55.05 Q-20.95 -57.45 -18.7 -57.65 L-16.85 -57.4" fill="#fff8e9" fill-rule="evenodd" stroke="none"/>
      <path d="M24.75 -43.55 Q24.9 -44.7 24.45 -45.7 L24.0 -46.5 Q22.65 -47.8 18.6 -47.75 L12.6 -47.4 Q9.5 -47.1 5.9 -49.05 -0.35 -53.25 -7.1 -56.25 -16.4 -60.4 -19.15 -59.25 -21.3 -58.95 -21.15 -55.05 L-20.6 -50.3 -20.5 -49.4 -20.4 -48.6 Q-19.8 -44.05 -18.75 -39.7 L-17.9 -36.45 Q-13.45 -19.85 -3.25 -6.15 L-3.1 -6.0 -5.1 -3.3 3.3 -3.3 7.85 -3.3 24.1 -41.3 Q24.7 -42.55 24.75 -43.55 M-0.75 -8.3 Q5.15 -13.75 12.85 -29.0 20.55 -44.35 19.2 -44.65 L14.55 -44.2 7.15 -44.45 Q2.25 -45.3 -2.85 -48.2 -8.0 -51.1 -15.7 -52.0 -14.4 -29.9 -0.75 -8.3 Z" fill="none" stroke="#000000" stroke-linecap="round" stroke-linejoin="round" stroke-opacity="0.4" stroke-width="0.1"/>
      <path d="M7.6 -4.4 L8.15 -4.4 Q9.2 -4.4 9.9 -3.7 10.6 -3.0 10.6 -1.95 10.6 -0.95 9.9 -0.25 9.2 0.45 8.15 0.45 L-4.7 0.45 Q-5.7 0.45 -6.3 -0.1 10.15 0.8 7.6 -4.4" fill="#af8720" fill-rule="evenodd" stroke="none"/>
      <path d="M-6.3 -0.1 L-6.45 -0.25 Q-7.15 -0.95 -7.15 -1.95 -7.15 -3.0 -6.45 -3.7 -5.75 -4.4 -4.7 -4.4 L7.6 -4.4 Q10.15 0.8 -6.3 -0.1" fill="url(#decoration232-gradient7)" fill-rule="evenodd" stroke="none"/>
      <path d="M7.6 -4.4 L8.15 -4.4 Q9.2 -4.4 9.9 -3.7 10.6 -3.0 10.6 -1.95 10.6 -0.95 9.9 -0.25 9.2 0.45 8.15 0.45 L-4.7 0.45 Q-5.7 0.45 -6.3 -0.1 L-6.45 -0.25 Q-7.15 -0.95 -7.15 -1.95 -7.15 -3.0 -6.45 -3.7 -5.75 -4.4 -4.7 -4.4 L7.6 -4.4 Z" fill="none" stroke="#000000" stroke-linecap="round" stroke-linejoin="round" stroke-opacity="0.4" stroke-width="0.1"/>
      <path d="M-18.85 -55.1 L-18.6 -54.55 -17.85 -53.8 Q-17.45 -53.65 -16.85 -53.8 -16.3 -53.95 -16.3 -54.4 -16.15 -54.95 -16.3 -55.7 L-17.0 -56.1 -18.15 -56.25 -18.85 -55.1 M-19.9 -56.55 Q-22.05 -59.4 -25.2 -61.85 L-19.15 -57.4 -18.75 -58.0 -16.15 -58.15 Q-15.0 -57.85 -14.25 -56.85 -9.95 -57.55 -4.05 -60.0 -9.65 -57.55 -13.85 -54.7 L-13.85 -54.25 Q-14.25 -53.25 -15.55 -52.5 L-17.7 -52.25 -18.75 -52.5 -22.2 -51.65 -19.9 -53.8 Q-20.6 -54.7 -20.3 -55.95 L-19.9 -56.55" fill="#f2f2f2" fill-opacity="0.5921569" fill-rule="evenodd" stroke="none"/>
      <path d="M-18.85 -55.1 L-18.15 -56.25 -17.0 -56.1 -16.3 -55.7 Q-16.15 -54.95 -16.3 -54.4 -16.3 -53.95 -16.85 -53.8 -17.45 -53.65 -17.85 -53.8 L-18.6 -54.55 -18.85 -55.1" fill="#f2f2f2" fill-opacity="0.9411765" fill-rule="evenodd" stroke="none"/>
      <path d="M1.55 -2.35 L-1.5 -2.15 -4.8 -2.35 Q-6.0 -2.55 -6.0 -2.85 -6.0 -3.1 -4.8 -3.35 L-1.5 -3.55 1.55 -3.35 Q2.95 -3.1 2.95 -2.85 2.95 -2.55 1.55 -2.35" fill="#ffffff" fill-opacity="0.32941177" fill-rule="evenodd" stroke="none"/>
      <path d="M-8.05 -52.55 Q-8.3 -51.95 -9.85 -52.15 L-13.0 -52.9 Q-14.9 -53.6 -16.05 -54.45 -17.15 -55.15 -16.9 -55.75 -16.7 -56.2 -15.35 -56.2 L-11.95 -55.3 Q-10.1 -54.65 -9.15 -53.9 -7.85 -53.0 -8.05 -52.55" fill="#ffffff" fill-opacity="0.4" fill-rule="evenodd" stroke="none"/>
      <path d="M-3.65 -51.4 Q-3.3 -51.0 -3.7 -50.85 L-4.7 -50.75 -6.4 -51.1 -7.5 -51.75 -7.55 -52.35 -6.3 -52.4 -4.85 -52.1 -3.65 -51.4" fill="#ffffff" fill-opacity="0.32941177" fill-rule="evenodd" stroke="none"/>
      <path d="M4.05 -11.6 Q12.35 -25.05 17.9 -36.85 15.15 -23.2 4.05 -11.6" fill="#ffffff" fill-opacity="0.4" fill-rule="evenodd" stroke="none"/>
      <path d="M-18.65 -47.15 Q-14.8 -28.35 -6.75 -13.95 -15.05 -23.8 -18.65 -47.15" fill="#ffffff" fill-opacity="0.4" fill-rule="evenodd" stroke="none"/>
      <path d="M-19.25 -51.3 L-18.75 -50.25 -18.65 -48.75 Q-18.65 -47.8 -18.9 -47.35 L-19.4 -47.3 Q-19.7 -47.4 -19.85 -48.2 L-20.05 -49.85 -19.7 -51.05 Q-19.6 -51.45 -19.25 -51.3" fill="#ffffff" fill-opacity="0.32941177" fill-rule="evenodd" stroke="none"/>
    </g>
    <linearGradient gradientTransform="matrix(0.0037, 0.0027, -0.0025, 0.0034, 16.3, -41.2)" gradientUnits="userSpaceOnUse" id="decoration232-gradient0" spreadMethod="pad" x1="-819.2" x2="819.2">
      <stop offset="0.0" stop-color="#ffc285"/>
      <stop offset="0.5254901960784314" stop-color="#fff5db"/>
      <stop offset="0.9764705882352941" stop-color="#ffc285"/>
    </linearGradient>
    <linearGradient gradientTransform="matrix(0.0064, 0.0044, -0.0056, 0.0083, 8.05, -34.2)" gradientUnits="userSpaceOnUse" id="decoration232-gradient1" spreadMethod="pad" x1="-819.2" x2="819.2">
      <stop offset="0.0" stop-color="#ffc285"/>
      <stop offset="0.5254901960784314" stop-color="#fff5db"/>
      <stop offset="0.9764705882352941" stop-color="#ffc285"/>
    </linearGradient>
    <linearGradient gradientTransform="matrix(0.0043, 0.0038, -0.0047, 0.0053, 10.9, -38.65)" gradientUnits="userSpaceOnUse" id="decoration232-gradient2" spreadMethod="pad" x1="-819.2" x2="819.2">
      <stop offset="0.0" stop-color="#ffc285"/>
      <stop offset="0.5254901960784314" stop-color="#fff5db"/>
      <stop offset="0.9764705882352941" stop-color="#ffc285"/>
    </linearGradient>
    <linearGradient gradientTransform="matrix(0.0058, 0.0053, -0.0081, 0.0088, 3.75, -29.5)" gradientUnits="userSpaceOnUse" id="decoration232-gradient3" spreadMethod="pad" x1="-819.2" x2="819.2">
      <stop offset="0.0" stop-color="#ffc285"/>
      <stop offset="0.5254901960784314" stop-color="#fff5db"/>
      <stop offset="0.9764705882352941" stop-color="#ffc285"/>
    </linearGradient>
    <linearGradient gradientTransform="matrix(0.0058, 0.0045, -0.0059, 0.0077, -0.7, -25.55)" gradientUnits="userSpaceOnUse" id="decoration232-gradient4" spreadMethod="pad" x1="-819.2" x2="819.2">
      <stop offset="0.0" stop-color="#ffc285"/>
      <stop offset="0.5254901960784314" stop-color="#fff5db"/>
      <stop offset="0.9764705882352941" stop-color="#ffc285"/>
    </linearGradient>
    <linearGradient gradientTransform="matrix(0.0049, 0.0049, -0.0062, 0.0061, -2.3, -18.9)" gradientUnits="userSpaceOnUse" id="decoration232-gradient5" spreadMethod="pad" x1="-819.2" x2="819.2">
      <stop offset="0.0" stop-color="#ffc285"/>
      <stop offset="0.5254901960784314" stop-color="#fff5db"/>
      <stop offset="0.9764705882352941" stop-color="#ffc285"/>
    </linearGradient>
    <linearGradient gradientTransform="matrix(0.0196, -0.0033, 0.0055, 0.0326, -5.95, -33.0)" gradientUnits="userSpaceOnUse" id="decoration232-gradient6" spreadMethod="pad" x1="-819.2" x2="819.2">
      <stop offset="0.0" stop-color="#f7cd5f"/>
      <stop offset="0.9764705882352941" stop-color="#ffca40"/>
    </linearGradient>
    <linearGradient gradientTransform="matrix(0.0108, 0.0, 0.0, 0.003, 1.7, -1.95)" gradientUnits="userSpaceOnUse" id="decoration232-gradient7" spreadMethod="pad" x1="-819.2" x2="819.2">
      <stop offset="0.0" stop-color="#f7cd5f"/>
      <stop offset="0.9764705882352941" stop-color="#ffca40"/>
    </linearGradient>
  </defs>
</svg>
