<?xml version="1.0" encoding="UTF-8" standalone="no"?>
<svg xmlns:xlink="http://www.w3.org/1999/xlink" height="58.8px" width="170.3px" xmlns="http://www.w3.org/2000/svg">
  <g transform="matrix(1.0, 0.0, 0.0, 1.0, 85.8, 37.85)">
    <use data-characterId="937" height="58.8" transform="matrix(1.0, 0.0, 0.0, 1.0, -85.8, -37.85)" width="170.3" xlink:href="#decoration233-shape0"/>
  </g>
  <defs>
    <g id="decoration233-shape0" transform="matrix(1.0, 0.0, 0.0, 1.0, 85.8, 37.85)">
      <path d="M-85.8 -37.85 Q7.4 37.85 84.5 -35.15" fill="none" stroke="#000000" stroke-linecap="round" stroke-linejoin="round" stroke-opacity="0.3019608" stroke-width="0.05"/>
      <path d="M-53.05 -14.2 L-52.3 -15.95 -37.35 -9.2 -38.15 -7.3 -53.05 -14.2" fill="#ffb358" fill-rule="evenodd" stroke="none"/>
      <path d="M-38.15 -7.3 L-46.5 11.0 -51.65 2.1 -61.5 4.2 -53.05 -14.2 -38.15 -7.3" fill="url(#decoration233-gradient0)" fill-rule="evenodd" stroke="none"/>
      <path d="M-53.05 -14.2 L-52.3 -15.95 -37.35 -9.2 -38.15 -7.3 -46.5 11.0 -51.65 2.1 -61.5 4.2 -53.05 -14.2 Z" fill="none" stroke="#000000" stroke-linecap="round" stroke-linejoin="round" stroke-opacity="0.4" stroke-width="0.1"/>
      <path d="M-32.1 -5.25 L-31.75 -7.1 -15.8 -2.95 -16.35 -0.95 -32.1 -5.25" fill="#c1ff8e" fill-rule="evenodd" stroke="none"/>
      <path d="M-16.35 -0.95 L-21.4 18.45 -28.05 10.6 -37.35 14.4 -32.1 -5.25 -16.35 -0.95" fill="url(#decoration233-gradient1)" fill-rule="evenodd" stroke="none"/>
      <path d="M-32.1 -5.25 L-31.75 -7.1 -15.8 -2.95 -16.35 -0.95 -21.4 18.45 -28.05 10.6 -37.35 14.4 -32.1 -5.25 Z" fill="none" stroke="#000000" stroke-linecap="round" stroke-linejoin="round" stroke-opacity="0.4" stroke-width="0.1"/>
      <path d="M15.3 0.75 L15.05 -1.15 31.35 -3.15 31.6 -1.15 15.3 0.75" fill="#ffb358" fill-rule="evenodd" stroke="none"/>
      <path d="M31.6 -1.15 L34.05 18.85 25.05 13.95 17.7 20.9 15.3 0.75 31.6 -1.15" fill="url(#decoration233-gradient2)" fill-rule="evenodd" stroke="none"/>
      <path d="M15.3 0.75 L15.05 -1.15 31.35 -3.15 31.6 -1.15 34.05 18.85 25.05 13.95 17.7 20.9 15.3 0.75 Z" fill="none" stroke="#000000" stroke-linecap="round" stroke-linejoin="round" stroke-opacity="0.4" stroke-width="0.1"/>
      <path d="M36.55 -2.8 L35.75 -4.5 50.7 -11.4 51.6 -9.5 36.55 -2.8" fill="#c1ff8e" fill-rule="evenodd" stroke="none"/>
      <path d="M51.6 -9.5 L59.95 8.65 49.85 6.85 45.1 15.7 36.55 -2.8 51.6 -9.5" fill="url(#decoration233-gradient3)" fill-rule="evenodd" stroke="none"/>
      <path d="M36.55 -2.8 L35.75 -4.5 50.7 -11.4 51.6 -9.5 59.95 8.65 49.85 6.85 45.1 15.7 36.55 -2.8 Z" fill="none" stroke="#000000" stroke-linecap="round" stroke-linejoin="round" stroke-opacity="0.4" stroke-width="0.1"/>
      <path d="M-71.3 -24.4 L-70.4 -26.0 -56.15 -17.8 -57.2 -16.0 -71.3 -24.4" fill="#ffffff" fill-rule="evenodd" stroke="none"/>
      <path d="M-57.2 -16.0 L-67.25 1.4 -71.55 -7.95 -81.55 -6.95 -71.3 -24.4 -57.2 -16.0" fill="url(#decoration233-gradient4)" fill-rule="evenodd" stroke="none"/>
      <path d="M-71.3 -24.4 L-70.4 -26.0 -56.15 -17.8 -57.2 -16.0 -67.25 1.4 -71.55 -7.95 -81.55 -6.95 -71.3 -24.4 Z" fill="none" stroke="#000000" stroke-linecap="round" stroke-linejoin="round" stroke-opacity="0.4" stroke-width="0.1"/>
      <path d="M-64.6 -8.85 Q-66.45 -9.0 -67.25 -11.95 -67.9 -14.3 -65.45 -14.6 -60.55 -15.0 -61.7 -12.3 -62.35 -11.45 -63.6 -11.45 -62.6 -9.1 -64.6 -8.85 M-71.1 -9.7 Q-72.25 -9.25 -73.25 -9.95 -74.05 -11.05 -72.45 -12.2 L-70.15 -13.5 Q-67.95 -14.35 -67.7 -11.95 -67.35 -8.3 -68.95 -7.75 L-69.8 -7.7 Q-70.7 -8.05 -70.65 -9.25 L-70.6 -9.95 Q-70.8 -9.75 -71.1 -9.7 M-68.5 -16.25 Q-68.15 -14.6 -69.5 -14.2 L-72.7 -13.9 Q-74.05 -14.3 -73.8 -15.8 -73.6 -16.4 -72.7 -16.65 L-71.8 -16.7 Q-72.45 -18.8 -71.4 -19.25 -69.8 -20.05 -68.5 -16.25 M-65.05 -18.4 Q-63.55 -19.8 -62.4 -18.1 -61.75 -16.35 -64.8 -15.1 -67.9 -13.95 -68.15 -16.55 -68.35 -21.3 -66.05 -20.65 -64.6 -19.95 -65.05 -18.4" fill="#ffffff" fill-rule="evenodd" stroke="none"/>
      <path d="M-48.15 -2.35 Q-48.95 -4.5 -46.75 -5.0 -42.3 -5.75 -43.15 -3.2 -43.65 -2.35 -44.8 -2.25 -43.65 -0.25 -45.45 0.2 -47.2 0.2 -48.15 -2.35 M-47.85 -10.4 Q-46.4 -9.9 -46.75 -8.5 -45.5 -9.9 -44.3 -8.4 -43.5 -6.85 -46.15 -5.5 -48.95 -4.2 -49.3 -6.5 -49.95 -10.85 -47.85 -10.4 M-52.95 -2.15 L-50.95 -3.6 Q-49.0 -4.55 -48.55 -2.35 -47.9 1.0 -49.4 1.6 L-50.1 1.7 Q-51.0 1.45 -51.05 0.35 L-51.05 -0.3 -51.45 0.05 -53.45 -0.05 Q-54.3 -1.0 -52.95 -2.15 M-53.3 -3.7 Q-54.55 -3.9 -54.5 -5.4 -54.35 -5.9 -53.55 -6.2 L-52.75 -6.35 Q-53.45 -8.15 -52.6 -8.65 -51.2 -9.55 -49.7 -6.2 -49.2 -4.75 -50.35 -4.2 -52.35 -3.45 -53.3 -3.7" fill="#ffffff" fill-rule="evenodd" stroke="none"/>
      <path d="M-27.55 8.6 Q-28.45 9.35 -29.45 9.0 -30.55 8.2 -29.4 6.8 L-27.65 5.05 Q-25.95 3.7 -25.15 5.75 -23.85 9.0 -25.15 9.8 -25.55 10.1 -25.85 10.1 -26.85 10.0 -27.05 9.0 L-27.15 8.3 -27.55 8.6 M-26.95 2.2 Q-26.1 3.65 -27.3 4.2 -29.15 5.4 -30.05 5.4 -31.35 5.3 -31.55 3.9 -31.45 3.4 -30.75 2.95 L-29.95 2.65 Q-31.1 1.0 -30.25 0.35 -29.0 -0.8 -26.95 2.2 M-24.7 5.65 Q-25.85 3.75 -23.8 2.95 -19.6 1.3 -19.95 3.95 -20.35 4.95 -21.4 5.25 -19.85 7.0 -21.6 7.7 -23.2 8.1 -24.7 5.65 M-24.45 -0.55 Q-23.5 -2.1 -22.0 -0.95 -20.95 0.4 -23.4 2.3 -25.8 4.1 -26.65 1.9 -28.05 -2.35 -25.85 -2.25 -24.45 -1.95 -24.45 -0.55" fill="#ffffff" fill-rule="evenodd" stroke="none"/>
      <path d="M23.25 7.85 Q21.9 9.55 21.05 9.9 19.8 10.35 19.15 9.05 19.0 8.55 19.5 7.85 L20.15 7.3 Q18.55 6.15 19.0 5.3 19.75 3.75 22.8 5.85 24.0 6.8 23.25 7.85 M24.85 11.5 L24.6 11.95 Q24.0 13.0 22.9 13.05 21.6 12.65 22.2 11.0 22.45 10.1 23.15 8.75 24.25 6.8 25.75 8.4 28.05 10.9 27.25 12.2 L26.65 12.7 Q25.75 13.0 25.15 12.1 L24.85 11.5 M26.2 1.0 Q27.7 1.9 26.05 4.55 24.5 7.1 22.9 5.4 20.05 2.05 22.15 1.25 23.55 0.95 24.05 2.3 24.4 0.4 26.2 1.0 M25.95 5.3 Q29.3 2.2 30.0 4.85 30.0 5.85 29.05 6.55 31.1 7.7 29.75 8.9 28.4 9.9 26.15 8.15 24.35 6.85 25.95 5.3" fill="#ffffff" fill-rule="evenodd" stroke="none"/>
      <path d="M44.9 4.3 Q43.85 5.1 42.8 4.1 42.5 3.7 42.75 2.85 L43.2 2.15 Q41.2 1.6 41.45 0.6 41.65 -1.05 45.2 -0.1 46.7 0.4 46.3 1.65 45.55 3.7 44.9 4.3 M51.4 4.6 L51.05 5.25 Q50.3 5.75 49.45 5.1 L48.95 4.65 48.9 5.2 Q48.6 6.35 47.5 6.75 46.3 6.75 46.25 4.95 46.15 3.95 46.45 2.55 46.95 0.4 48.8 1.45 51.85 3.1 51.4 4.6 M43.1 -4.2 Q44.45 -4.95 45.4 -3.85 45.0 -5.7 46.9 -5.7 48.6 -5.3 47.9 -2.35 47.25 0.6 45.15 -0.55 41.4 -2.85 43.1 -4.2 M51.7 -3.2 Q52.05 -2.3 51.4 -1.3 53.65 -0.95 52.8 0.75 51.85 2.05 49.05 1.05 47.0 0.5 48.05 -1.6 50.3 -5.6 51.7 -3.2" fill="#ffffff" fill-rule="evenodd" stroke="none"/>
      <path d="M-7.5 0.1 L-7.5 -1.7 8.95 -1.3 8.85 0.8 -7.5 0.1" fill="#ffffff" fill-rule="evenodd" stroke="none"/>
      <path d="M8.85 0.8 L8.2 20.9 -0.05 14.65 -8.35 20.25 -7.5 0.1 8.85 0.8" fill="url(#decoration233-gradient5)" fill-rule="evenodd" stroke="none"/>
      <path d="M8.85 0.8 L8.2 20.9 -0.05 14.65 -8.35 20.25 -7.5 0.1 -7.5 -1.7 8.95 -1.3 8.85 0.8 Z" fill="none" stroke="#000000" stroke-linecap="round" stroke-linejoin="round" stroke-opacity="0.4" stroke-width="0.1"/>
      <path d="M-5.75 8.85 Q-5.85 8.2 -5.2 7.55 L-4.4 7.05 Q-5.9 5.55 -5.25 4.65 -4.2 3.2 -1.3 5.95 -0.15 7.25 -1.2 8.2 -2.85 9.9 -3.85 10.0 -5.2 10.35 -5.75 8.85 M2.3 13.6 L1.65 14.1 Q0.7 14.2 0.15 13.15 L-0.15 12.45 Q-0.15 12.8 -0.5 12.9 -1.25 13.9 -2.5 13.7 -3.7 13.15 -2.8 11.35 L-1.45 9.1 Q0.1 7.35 1.5 9.35 3.5 12.4 2.3 13.6 M0.75 2.4 Q1.4 0.5 3.25 1.45 4.7 2.65 2.6 5.2 0.35 7.65 -1.05 5.5 -3.5 1.45 -1.2 0.95 0.4 0.8 0.75 2.4 M5.3 7.9 Q7.3 9.35 5.65 10.6 3.95 11.35 1.9 9.2 0.25 7.35 2.25 5.95 6.4 3.25 6.6 6.2 6.5 7.3 5.3 7.9" fill="#ffffff" fill-rule="evenodd" stroke="none"/>
      <path d="M57.0 -11.75 L55.9 -13.25 69.3 -22.8 70.55 -21.05 57.0 -11.75" fill="#ffffff" fill-rule="evenodd" stroke="none"/>
      <path d="M70.55 -21.05 L82.05 -4.65 71.75 -4.65 68.55 4.85 57.0 -11.75 70.55 -21.05" fill="url(#decoration233-gradient6)" fill-rule="evenodd" stroke="none"/>
      <path d="M57.0 -11.75 L55.9 -13.25 69.3 -22.8 70.55 -21.05 82.05 -4.65 71.75 -4.65 68.55 4.85 57.0 -11.75 Z" fill="none" stroke="#000000" stroke-linecap="round" stroke-linejoin="round" stroke-opacity="0.4" stroke-width="0.1"/>
      <path d="M63.75 -8.1 Q61.55 -8.35 61.55 -9.45 61.55 -11.25 65.5 -10.85 67.25 -10.55 67.0 -9.1 66.6 -6.8 65.95 -6.05 65.0 -5.0 63.7 -5.9 63.25 -6.35 63.45 -7.2 L63.75 -8.1 M67.35 -8.3 Q67.5 -10.6 69.8 -9.85 73.3 -8.6 73.05 -6.85 L72.8 -6.1 Q72.05 -5.4 71.0 -5.95 L70.4 -6.35 70.4 -5.75 Q70.35 -4.55 69.25 -3.95 67.95 -3.65 67.5 -5.6 67.35 -6.6 67.35 -8.3 M66.45 -17.2 Q68.25 -17.05 68.1 -13.75 67.9 -10.45 65.45 -11.3 61.0 -13.1 62.55 -14.9 63.85 -16.0 65.05 -14.9 64.35 -16.85 66.45 -17.2 M72.0 -15.45 Q72.45 -14.45 71.95 -13.25 74.5 -13.25 73.9 -11.3 73.0 -9.65 69.95 -10.3 67.55 -10.6 68.35 -13.0 70.0 -17.55 72.0 -15.45" fill="#ffffff" fill-rule="evenodd" stroke="none"/>
    </g>
    <linearGradient gradientTransform="matrix(0.0068, 0.0033, -0.0067, 0.0138, -50.55, -3.9)" gradientUnits="userSpaceOnUse" id="decoration233-gradient0" spreadMethod="pad" x1="-819.2" x2="819.2">
      <stop offset="0.0" stop-color="#ff981c"/>
      <stop offset="1.0" stop-color="#e0871c"/>
    </linearGradient>
    <linearGradient gradientTransform="matrix(0.0128, 0.0, 0.0, 0.0145, -26.85, 6.6)" gradientUnits="userSpaceOnUse" id="decoration233-gradient1" spreadMethod="pad" x1="-819.2" x2="819.2">
      <stop offset="0.0" stop-color="#94d95a"/>
      <stop offset="1.0" stop-color="#74ad44"/>
    </linearGradient>
    <linearGradient gradientTransform="matrix(0.0075, -7.0E-4, 0.0015, 0.0153, 22.8, 8.3)" gradientUnits="userSpaceOnUse" id="decoration233-gradient2" spreadMethod="pad" x1="-819.2" x2="819.2">
      <stop offset="0.0" stop-color="#ff981c"/>
      <stop offset="1.0" stop-color="#e0871c"/>
    </linearGradient>
    <linearGradient gradientTransform="matrix(0.0099, -0.0081, 0.0092, 0.0112, 48.25, 3.0)" gradientUnits="userSpaceOnUse" id="decoration233-gradient3" spreadMethod="pad" x1="-819.2" x2="819.2">
      <stop offset="0.0" stop-color="#94d95a"/>
      <stop offset="1.0" stop-color="#74ad44"/>
    </linearGradient>
    <linearGradient gradientTransform="matrix(0.0064, 0.0039, -0.008, 0.0131, -69.8, -13.9)" gradientUnits="userSpaceOnUse" id="decoration233-gradient4" spreadMethod="pad" x1="-819.2" x2="819.2">
      <stop offset="0.0" stop-color="#e0dcdc"/>
      <stop offset="1.0" stop-color="#d7d5d5"/>
    </linearGradient>
    <linearGradient gradientTransform="matrix(0.0075, 4.0E-4, -9.0E-4, 0.0153, -1.25, 8.6)" gradientUnits="userSpaceOnUse" id="decoration233-gradient5" spreadMethod="pad" x1="-819.2" x2="819.2">
      <stop offset="0.0" stop-color="#e0dcdc"/>
      <stop offset="1.0" stop-color="#d7d5d5"/>
    </linearGradient>
    <linearGradient gradientTransform="matrix(0.0063, -0.0042, 0.0085, 0.0128, 67.2, -8.65)" gradientUnits="userSpaceOnUse" id="decoration233-gradient6" spreadMethod="pad" x1="-819.2" x2="819.2">
      <stop offset="0.0" stop-color="#e0dcdc"/>
      <stop offset="1.0" stop-color="#d7d5d5"/>
    </linearGradient>
  </defs>
</svg>
