<?xml version="1.0" encoding="UTF-8" standalone="no"?>
<svg xmlns:xlink="http://www.w3.org/1999/xlink" height="82.35px" width="46.6px" xmlns="http://www.w3.org/2000/svg">
  <g transform="matrix(1.0, 0.0, 0.0, 1.0, 25.2, 77.6)">
    <use data-characterId="935" height="82.35" transform="matrix(1.0, 0.0, 0.0, 1.0, -25.2, -77.6)" width="46.6" xlink:href="#decoration234-shape0"/>
  </g>
  <defs>
    <g id="decoration234-shape0" transform="matrix(1.0, 0.0, 0.0, 1.0, 25.2, 77.6)">
      <path d="M-18.1 -44.0 L1.3 0.8 -8.05 -31.5 M9.95 -48.8 L1.3 0.8 8.45 -31.35 M1.3 -26.35 L1.3 0.8 7.3 -59.25 M-5.4 -34.75 L1.3 0.8 -3.55 -52.65" fill="none" stroke="#000000" stroke-linecap="round" stroke-linejoin="round" stroke-opacity="0.3019608" stroke-width="0.30000000000000004"/>
      <path d="M10.8 -55.3 L11.85 -55.2 12.25 -53.5 11.2 -53.9 10.15 -53.65 9.3 -54.7 7.9 -55.3 9.45 -55.95 10.1 -55.55 10.8 -55.3 11.15 -54.25 10.8 -55.3" fill="#5e88b6" fill-rule="evenodd" stroke="none"/>
      <path d="M10.8 -55.3 L10.1 -55.55 9.45 -55.95 7.9 -55.3 9.3 -54.7 10.15 -53.65 11.2 -53.9 12.25 -53.5 11.85 -55.2 10.8 -55.3 11.15 -54.25" fill="none" stroke="#000000" stroke-linecap="round" stroke-linejoin="round" stroke-opacity="0.3019608" stroke-width="0.1"/>
      <path d="M13.15 -58.1 Q10.9 -57.9 7.0 -60.75 9.65 -54.75 14.55 -56.15 19.5 -57.55 20.6 -63.15 17.5 -58.5 13.15 -58.1 M6.8 -66.25 Q8.15 -69.5 11.15 -70.95 14.05 -72.4 16.95 -71.25 19.55 -70.25 20.7 -67.6 L20.9 -66.95 Q21.95 -63.85 20.65 -60.6 19.35 -57.35 16.4 -55.85 13.45 -54.4 10.55 -55.55 7.7 -56.7 6.65 -59.85 6.2 -60.95 6.1 -62.05 5.95 -64.1 6.8 -66.25" fill="url(#decoration234-gradient0)" fill-rule="evenodd" stroke="none"/>
      <path d="M13.15 -58.1 Q17.5 -58.5 20.6 -63.15 19.5 -57.55 14.55 -56.15 9.65 -54.75 7.0 -60.75 10.9 -57.9 13.15 -58.1" fill="#5e88b6" fill-rule="evenodd" stroke="none"/>
      <path d="M6.8 -66.25 Q8.15 -69.5 11.15 -70.95 14.05 -72.4 16.95 -71.25 19.55 -70.25 20.7 -67.6 L20.9 -66.95 Q21.95 -63.85 20.65 -60.6 19.35 -57.35 16.4 -55.85 13.45 -54.4 10.55 -55.55 7.7 -56.7 6.65 -59.85 6.2 -60.95 6.1 -62.05 5.95 -64.1 6.8 -66.25 Z" fill="none" stroke="#000000" stroke-linecap="round" stroke-linejoin="round" stroke-opacity="0.3019608" stroke-width="0.1"/>
      <path d="M16.35 -68.25 Q15.65 -67.35 14.4 -66.85 13.1 -66.25 12.0 -66.5 10.85 -66.7 10.45 -67.55 10.15 -68.4 10.85 -69.35 11.55 -70.25 12.75 -70.75 14.1 -71.3 15.25 -71.05 16.35 -70.9 16.65 -70.1 17.0 -69.2 16.35 -68.25" fill="#ffffff" fill-opacity="0.29803923" fill-rule="evenodd" stroke="none"/>
      <path d="M9.65 -67.25 L9.3 -66.05 8.4 -65.15 Q7.8 -64.95 7.45 -65.15 7.0 -65.4 7.05 -66.05 7.05 -66.6 7.45 -67.2 L8.3 -68.05 Q8.9 -68.3 9.3 -68.05 9.7 -67.8 9.65 -67.25" fill="#ffffff" fill-opacity="0.29803923" fill-rule="evenodd" stroke="none"/>
      <path d="M2.5 -61.1 L3.45 -61.6 4.6 -60.25 3.6 -60.15 2.75 -59.4 1.5 -59.9 0.0 -59.65 1.1 -61.05 1.8 -61.05 2.5 -61.1 3.35 -60.4 2.5 -61.1" fill="#8253a5" fill-rule="evenodd" stroke="none"/>
      <path d="M2.5 -61.1 L1.8 -61.05 1.1 -61.05 0.0 -59.65 1.5 -59.9 2.75 -59.4 3.6 -60.15 4.6 -60.25 3.45 -61.6 2.5 -61.1 3.35 -60.4" fill="none" stroke="#000000" stroke-linecap="round" stroke-linejoin="round" stroke-opacity="0.3019608" stroke-width="0.1"/>
      <path d="M8.45 -70.1 Q8.95 -66.65 7.1 -63.85 5.3 -61.15 2.25 -60.7 -0.8 -60.25 -3.35 -62.45 -4.3 -63.15 -4.85 -64.05 -6.0 -65.8 -6.35 -68.05 -6.85 -71.5 -5.0 -74.3 -3.2 -77.0 -0.1 -77.5 2.65 -77.9 4.95 -76.15 L5.5 -75.75 Q7.95 -73.55 8.45 -70.1 M5.35 -63.2 Q8.95 -66.85 7.1 -72.2 6.75 -66.65 3.25 -64.2 1.4 -62.85 -3.5 -63.45 1.85 -59.55 5.35 -63.2" fill="url(#decoration234-gradient1)" fill-rule="evenodd" stroke="none"/>
      <path d="M5.35 -63.2 Q1.85 -59.55 -3.5 -63.45 1.4 -62.85 3.25 -64.2 6.75 -66.65 7.1 -72.2 8.95 -66.85 5.35 -63.2" fill="#8253a5" fill-rule="evenodd" stroke="none"/>
      <path d="M8.45 -70.1 Q8.95 -66.65 7.1 -63.85 5.3 -61.15 2.25 -60.7 -0.8 -60.25 -3.35 -62.45 -4.3 -63.15 -4.85 -64.05 -6.0 -65.8 -6.35 -68.05 -6.85 -71.5 -5.0 -74.3 -3.2 -77.0 -0.1 -77.5 2.65 -77.9 4.95 -76.15 L5.5 -75.75 Q7.95 -73.55 8.45 -70.1 Z" fill="none" stroke="#000000" stroke-linecap="round" stroke-linejoin="round" stroke-opacity="0.3019608" stroke-width="0.1"/>
      <path d="M0.8 -74.75 Q0.7 -73.65 -0.2 -72.55 -1.0 -71.45 -2.1 -71.1 -3.2 -70.7 -3.95 -71.3 -4.55 -71.85 -4.45 -73.05 -4.4 -74.1 -3.55 -75.15 -2.65 -76.3 -1.55 -76.65 L0.15 -76.5 Q0.9 -75.9 0.8 -74.75" fill="#ffffff" fill-opacity="0.29803923" fill-rule="evenodd" stroke="none"/>
      <path d="M-4.1 -70.5 Q-3.8 -69.95 -3.9 -69.25 -3.95 -68.5 -4.3 -68.0 -4.65 -67.55 -5.1 -67.6 -5.55 -67.6 -5.85 -68.15 L-6.15 -69.4 -5.75 -70.6 Q-5.35 -71.1 -4.85 -71.0 -4.4 -71.0 -4.1 -70.5" fill="#ffffff" fill-opacity="0.29803923" fill-rule="evenodd" stroke="none"/>
      <path d="M-6.45 -58.85 L-7.3 -59.6 -6.45 -58.85 M-7.3 -59.6 L-6.3 -60.0 -5.15 -58.7 -6.15 -58.55 -7.0 -57.9 -8.3 -58.35 -9.8 -58.1 -8.7 -59.5 -8.0 -59.5 -7.3 -59.6" fill="#b37f58" fill-rule="evenodd" stroke="none"/>
      <path d="M-7.3 -59.6 L-6.45 -58.85 M-7.3 -59.6 L-8.0 -59.5 -8.7 -59.5 -9.8 -58.1 -8.3 -58.35 -7.0 -57.9 -6.15 -58.55 -5.15 -58.7 -6.3 -60.0 -7.3 -59.6 Z" fill="none" stroke="#000000" stroke-linecap="round" stroke-linejoin="round" stroke-opacity="0.3019608" stroke-width="0.1"/>
      <path d="M-4.4 -74.4 Q-1.9 -72.25 -1.4 -68.8 -0.95 -65.35 -2.7 -62.55 -4.55 -59.85 -7.65 -59.4 -10.7 -59.0 -13.2 -61.1 -14.15 -61.85 -14.7 -62.8 -15.9 -64.55 -16.25 -66.8 -16.7 -70.25 -14.85 -73.05 -13.0 -75.75 -9.95 -76.15 -7.25 -76.55 -4.9 -74.9 L-4.4 -74.4 M-2.7 -70.95 Q-3.15 -65.4 -6.65 -62.85 -8.5 -61.5 -13.35 -62.1 -8.05 -58.3 -4.45 -61.85 -0.95 -65.55 -2.7 -70.95" fill="url(#decoration234-gradient2)" fill-rule="evenodd" stroke="none"/>
      <path d="M-2.7 -70.95 Q-0.95 -65.55 -4.45 -61.85 -8.05 -58.3 -13.35 -62.1 -8.5 -61.5 -6.65 -62.85 -3.15 -65.4 -2.7 -70.95" fill="#b37f58" fill-rule="evenodd" stroke="none"/>
      <path d="M-4.4 -74.4 Q-1.9 -72.25 -1.4 -68.8 -0.95 -65.35 -2.7 -62.55 -4.55 -59.85 -7.65 -59.4 -10.7 -59.0 -13.2 -61.1 -14.15 -61.85 -14.7 -62.8 -15.9 -64.55 -16.25 -66.8 -16.7 -70.25 -14.85 -73.05 -13.0 -75.75 -9.95 -76.15 -7.25 -76.55 -4.9 -74.9 L-4.4 -74.4 Z" fill="none" stroke="#000000" stroke-linecap="round" stroke-linejoin="round" stroke-opacity="0.3019608" stroke-width="0.1"/>
      <path d="M-11.15 -75.15 L-9.45 -75.0 Q-8.7 -74.4 -8.8 -73.25 -8.9 -72.15 -9.8 -71.05 -10.6 -69.95 -11.7 -69.6 -12.8 -69.2 -13.55 -69.8 -14.15 -70.35 -14.05 -71.5 -14.0 -72.6 -13.15 -73.65 -12.25 -74.8 -11.15 -75.15" fill="#ffffff" fill-opacity="0.29803923" fill-rule="evenodd" stroke="none"/>
      <path d="M-13.95 -68.9 Q-13.65 -68.4 -13.7 -67.7 -13.75 -66.95 -14.1 -66.45 -14.45 -65.95 -14.9 -66.05 -15.4 -66.05 -15.7 -66.6 L-15.95 -67.8 -15.55 -69.05 Q-15.15 -69.55 -14.7 -69.45 -14.25 -69.45 -13.95 -68.9" fill="#ffffff" fill-opacity="0.29803923" fill-rule="evenodd" stroke="none"/>
      <path d="M-13.9 -52.5 L-13.05 -53.25 -11.55 -52.25 -12.5 -51.8 -13.15 -50.95 -14.45 -51.1 -15.85 -50.5 -15.2 -52.1 -14.5 -52.25 -13.9 -52.5 -12.85 -52.1 -13.9 -52.5" fill="#8253a5" fill-rule="evenodd" stroke="none"/>
      <path d="M-13.9 -52.5 L-14.5 -52.25 -15.2 -52.1 -15.85 -50.5 -14.45 -51.1 -13.15 -50.95 -12.5 -51.8 -11.55 -52.25 -13.05 -53.25 -13.9 -52.5 -12.85 -52.1" fill="none" stroke="#000000" stroke-linecap="round" stroke-linejoin="round" stroke-opacity="0.3019608" stroke-width="0.1"/>
      <path d="M-20.75 -67.8 L-15.55 -67.95 -14.9 -67.65 Q-11.9 -66.15 -10.6 -62.9 -9.2 -59.8 -10.25 -56.55 -11.35 -53.5 -14.15 -52.25 -17.0 -51.05 -20.0 -52.5 -21.1 -52.9 -21.85 -53.7 -23.5 -55.05 -24.35 -57.15 -25.75 -60.35 -24.7 -63.55 -23.6 -66.6 -20.75 -67.8 M-12.4 -64.65 Q-11.35 -59.2 -14.05 -55.85 -15.55 -54.1 -20.35 -53.45 -14.25 -51.05 -11.75 -55.5 -9.25 -59.95 -12.4 -64.65" fill="url(#decoration234-gradient3)" fill-rule="evenodd" stroke="none"/>
      <path d="M-12.4 -64.65 Q-9.25 -59.95 -11.75 -55.5 -14.25 -51.05 -20.35 -53.45 -15.55 -54.1 -14.05 -55.85 -11.35 -59.2 -12.4 -64.65" fill="#8253a5" fill-rule="evenodd" stroke="none"/>
      <path d="M-20.75 -67.8 L-15.55 -67.95 -14.9 -67.65 Q-11.9 -66.15 -10.6 -62.9 -9.2 -59.8 -10.25 -56.55 -11.35 -53.5 -14.15 -52.25 -17.0 -51.05 -20.0 -52.5 -21.1 -52.9 -21.85 -53.7 -23.5 -55.05 -24.35 -57.15 -25.75 -60.35 -24.7 -63.55 -23.6 -66.6 -20.75 -67.8 Z" fill="none" stroke="#000000" stroke-linecap="round" stroke-linejoin="round" stroke-opacity="0.3019608" stroke-width="0.1"/>
      <path d="M-18.9 -65.45 Q-18.75 -64.35 -19.25 -63.1 -19.8 -61.8 -20.7 -61.15 -21.7 -60.55 -22.55 -60.9 -23.35 -61.25 -23.55 -62.45 -23.7 -63.5 -23.2 -64.75 -22.65 -66.05 -21.7 -66.65 -20.7 -67.4 -19.95 -67.0 -19.1 -66.6 -18.9 -65.45" fill="#ffffff" fill-opacity="0.29803923" fill-rule="evenodd" stroke="none"/>
      <path d="M-22.85 -59.9 L-22.3 -58.7 Q-22.15 -58.0 -22.4 -57.45 -22.55 -56.9 -23.0 -56.85 -23.5 -56.7 -23.9 -57.15 -24.3 -57.55 -24.45 -58.3 -24.6 -59.0 -24.4 -59.55 -24.25 -60.15 -23.75 -60.2 -23.25 -60.25 -22.85 -59.9" fill="#ffffff" fill-opacity="0.29803923" fill-rule="evenodd" stroke="none"/>
      <path d="M-12.05 -41.3 L-11.35 -42.05 -9.7 -41.25 -10.65 -40.75 -11.15 -39.8 -12.5 -39.8 -13.85 -38.95 -13.3 -40.7 -12.65 -40.95 -12.05 -41.3 -11.0 -40.95 -12.05 -41.3" fill="#55a75b" fill-rule="evenodd" stroke="none"/>
      <path d="M-12.05 -41.3 L-12.65 -40.95 -13.3 -40.7 -13.85 -38.95 -12.5 -39.8 -11.15 -39.8 -10.65 -40.75 -9.7 -41.25 -11.35 -42.05 -12.05 -41.3 -11.0 -40.95" fill="none" stroke="#000000" stroke-linecap="round" stroke-linejoin="round" stroke-opacity="0.3019608" stroke-width="0.1"/>
      <path d="M-14.8 -56.15 Q-11.7 -55.05 -9.95 -52.0 -8.2 -48.95 -8.95 -45.75 -9.6 -42.5 -12.3 -41.0 -15.0 -39.45 -18.15 -40.55 -19.25 -40.9 -20.15 -41.5 -21.9 -42.65 -23.0 -44.7 -24.7 -47.7 -24.0 -51.0 -23.3 -54.25 -20.65 -55.75 -18.2 -57.05 -15.5 -56.35 L-14.8 -56.15 M-12.65 -44.6 Q-13.9 -42.6 -18.6 -41.45 -12.2 -39.8 -10.25 -44.45 -8.35 -49.15 -12.05 -53.55 -10.3 -48.2 -12.65 -44.6" fill="url(#decoration234-gradient4)" fill-rule="evenodd" stroke="none"/>
      <path d="M-12.65 -44.6 Q-10.3 -48.2 -12.05 -53.55 -8.35 -49.15 -10.25 -44.45 -12.2 -39.8 -18.6 -41.45 -13.9 -42.6 -12.65 -44.6" fill="#55a75b" fill-rule="evenodd" stroke="none"/>
      <path d="M-14.8 -56.15 Q-11.7 -55.05 -9.95 -52.0 -8.2 -48.95 -8.95 -45.75 -9.6 -42.5 -12.3 -41.0 -15.0 -39.45 -18.15 -40.55 -19.25 -40.9 -20.15 -41.5 -21.9 -42.65 -23.0 -44.7 -24.7 -47.7 -24.0 -51.0 -23.3 -54.25 -20.65 -55.75 -18.2 -57.05 -15.5 -56.35 L-14.8 -56.15 Z" fill="none" stroke="#000000" stroke-linecap="round" stroke-linejoin="round" stroke-opacity="0.3019608" stroke-width="0.1"/>
      <path d="M-18.7 -53.7 Q-18.45 -52.55 -18.8 -51.3 -19.2 -49.9 -20.05 -49.2 -21.0 -48.45 -21.85 -48.7 -22.65 -48.95 -22.95 -50.15 -23.3 -51.15 -22.9 -52.45 -22.55 -53.85 -21.65 -54.6 -20.75 -55.4 -19.9 -55.05 -19.1 -54.8 -18.7 -53.7" fill="#ffffff" fill-opacity="0.29803923" fill-rule="evenodd" stroke="none"/>
      <path d="M-22.6 -44.75 L-23.3 -45.85 Q-23.55 -46.5 -23.35 -47.1 L-22.8 -47.8 Q-22.4 -48.0 -21.85 -47.6 L-21.15 -46.55 Q-20.95 -45.8 -21.1 -45.25 -21.25 -44.65 -21.7 -44.5 L-22.6 -44.75" fill="#ffffff" fill-opacity="0.29803923" fill-rule="evenodd" stroke="none"/>
      <path d="M5.65 -56.5 L6.75 -56.55 7.35 -54.95 6.3 -55.15 5.3 -54.75 4.35 -55.7 2.85 -56.05 4.35 -56.95 4.95 -56.65 5.65 -56.5 6.2 -55.55 5.65 -56.5" fill="#a9548d" fill-rule="evenodd" stroke="none"/>
      <path d="M5.65 -56.5 L4.95 -56.65 4.35 -56.95 2.85 -56.05 4.35 -55.7 5.3 -54.75 6.3 -55.15 7.35 -54.95 6.75 -56.55 5.65 -56.5 6.2 -55.55" fill="none" stroke="#000000" stroke-linecap="round" stroke-linejoin="round" stroke-opacity="0.3019608" stroke-width="0.1"/>
      <path d="M14.5 -62.95 Q13.7 -59.55 10.9 -57.65 8.3 -55.75 5.3 -56.45 2.25 -57.15 0.75 -60.05 0.1 -61.1 -0.1 -62.2 -0.6 -64.2 -0.05 -66.45 0.75 -69.85 3.45 -71.75 6.1 -73.6 9.2 -72.9 11.85 -72.35 13.4 -69.9 L13.75 -69.35 Q15.25 -66.3 14.5 -62.95 M7.4 -59.3 Q5.2 -58.8 0.9 -61.05 4.5 -55.55 9.05 -57.6 13.75 -59.8 14.0 -65.45 11.65 -60.4 7.4 -59.3" fill="url(#decoration234-gradient5)" fill-rule="evenodd" stroke="none"/>
      <path d="M7.4 -59.3 Q11.65 -60.4 14.0 -65.45 13.75 -59.8 9.05 -57.6 4.5 -55.55 0.9 -61.05 5.2 -58.8 7.4 -59.3" fill="#a9548d" fill-rule="evenodd" stroke="none"/>
      <path d="M14.5 -62.95 Q13.7 -59.55 10.9 -57.65 8.3 -55.75 5.3 -56.45 2.25 -57.15 0.75 -60.05 0.1 -61.1 -0.1 -62.2 -0.6 -64.2 -0.05 -66.45 0.75 -69.85 3.45 -71.75 6.1 -73.6 9.2 -72.9 11.85 -72.35 13.4 -69.9 L13.75 -69.35 Q15.25 -66.3 14.5 -62.95 Z" fill="none" stroke="#000000" stroke-linecap="round" stroke-linejoin="round" stroke-opacity="0.3019608" stroke-width="0.1"/>
      <path d="M9.25 -70.0 Q8.7 -69.05 7.5 -68.3 6.3 -67.6 5.2 -67.65 4.0 -67.65 3.5 -68.5 3.1 -69.25 3.7 -70.3 4.15 -71.25 5.3 -72.0 6.45 -72.75 7.7 -72.6 8.85 -72.6 9.3 -71.85 9.7 -71.05 9.25 -70.0" fill="#ffffff" fill-opacity="0.29803923" fill-rule="evenodd" stroke="none"/>
      <path d="M2.75 -67.95 Q2.85 -67.35 2.55 -66.7 2.25 -66.05 1.75 -65.75 L0.85 -65.6 Q0.4 -65.85 0.35 -66.4 0.2 -66.95 0.45 -67.65 0.8 -68.3 1.3 -68.65 L2.25 -68.75 Q2.65 -68.55 2.75 -67.95" fill="#ffffff" fill-opacity="0.29803923" fill-rule="evenodd" stroke="none"/>
      <path d="M1.65 -50.0 L2.7 -50.3 3.65 -48.9 2.65 -48.85 1.75 -48.3 0.55 -48.85 -1.0 -48.75 0.2 -50.0 1.0 -49.95 1.65 -50.0 2.4 -49.2 1.65 -50.0" fill="#9d8f4d" fill-rule="evenodd" stroke="none"/>
      <path d="M1.65 -50.0 L1.0 -49.95 0.2 -50.0 -1.0 -48.75 0.55 -48.85 1.75 -48.3 2.65 -48.85 3.65 -48.9 2.7 -50.3 1.65 -50.0 2.4 -49.2" fill="none" stroke="#000000" stroke-linecap="round" stroke-linejoin="round" stroke-opacity="0.3019608" stroke-width="0.1"/>
      <path d="M6.0 -64.45 Q8.25 -62.1 8.45 -58.55 8.6 -55.1 6.55 -52.5 4.45 -49.95 1.3 -49.8 -1.75 -49.65 -4.05 -52.05 L-5.45 -53.85 Q-6.45 -55.7 -6.55 -57.95 -6.7 -61.45 -4.5 -64.05 -2.5 -66.6 0.55 -66.65 3.35 -66.85 5.55 -64.95 L6.0 -64.45 M7.3 -60.85 Q6.4 -55.35 2.65 -53.15 0.65 -52.05 -4.1 -53.0 0.8 -48.7 4.7 -52.0 8.6 -55.35 7.3 -60.85" fill="url(#decoration234-gradient6)" fill-rule="evenodd" stroke="none"/>
      <path d="M7.3 -60.85 Q8.6 -55.35 4.7 -52.0 0.8 -48.7 -4.1 -53.0 0.65 -52.05 2.65 -53.15 6.4 -55.35 7.3 -60.85" fill="#9d8f4d" fill-rule="evenodd" stroke="none"/>
      <path d="M6.0 -64.45 Q8.25 -62.1 8.45 -58.55 8.6 -55.1 6.55 -52.5 4.45 -49.95 1.3 -49.8 -1.75 -49.65 -4.05 -52.05 L-5.45 -53.85 Q-6.45 -55.7 -6.55 -57.95 -6.7 -61.45 -4.5 -64.05 -2.5 -66.6 0.55 -66.65 3.35 -66.85 5.55 -64.95 L6.0 -64.45 Z" fill="none" stroke="#000000" stroke-linecap="round" stroke-linejoin="round" stroke-opacity="0.3019608" stroke-width="0.1"/>
      <path d="M0.15 -61.8 Q-0.75 -60.75 -1.8 -60.55 -2.95 -60.2 -3.65 -60.9 -4.3 -61.5 -4.05 -62.6 -3.8 -63.7 -2.95 -64.75 -1.95 -65.8 -0.8 -66.05 0.35 -66.3 1.0 -65.7 1.6 -65.1 1.4 -63.95 1.15 -62.8 0.15 -61.8" fill="#ffffff" fill-opacity="0.29803923" fill-rule="evenodd" stroke="none"/>
      <path d="M-4.25 -60.25 Q-4.0 -59.65 -4.1 -59.0 -4.15 -58.2 -4.55 -57.8 -5.0 -57.35 -5.45 -57.4 -5.9 -57.45 -6.15 -58.05 L-6.25 -59.25 Q-6.2 -60.0 -5.8 -60.5 -5.4 -60.95 -4.9 -60.85 -4.45 -60.75 -4.25 -60.25" fill="#ffffff" fill-opacity="0.29803923" fill-rule="evenodd" stroke="none"/>
      <path d="M-6.25 -44.5 L-5.25 -45.0 -4.1 -43.65 -5.15 -43.5 -6.0 -42.8 -7.25 -43.25 -8.75 -43.1 -7.7 -44.4 -6.95 -44.4 -6.25 -44.5 -5.45 -43.85 -6.25 -44.5" fill="#5e88b6" fill-rule="evenodd" stroke="none"/>
      <path d="M-6.25 -44.5 L-6.95 -44.4 -7.7 -44.4 -8.75 -43.1 -7.25 -43.25 -6.0 -42.8 -5.15 -43.5 -4.1 -43.65 -5.25 -45.0 -6.25 -44.5 -5.45 -43.85" fill="none" stroke="#000000" stroke-linecap="round" stroke-linejoin="round" stroke-opacity="0.3019608" stroke-width="0.1"/>
      <path d="M-0.4 -53.7 Q0.05 -50.3 -1.75 -47.45 -3.55 -44.75 -6.6 -44.35 -9.65 -43.9 -12.2 -46.1 -13.15 -46.8 -13.7 -47.7 -14.9 -49.45 -15.2 -51.7 -15.75 -55.15 -13.85 -57.95 -12.05 -60.65 -8.95 -61.1 -6.2 -61.5 -3.95 -59.8 L-3.35 -59.4 Q-0.85 -57.2 -0.4 -53.7 M-5.6 -47.8 Q-7.5 -46.5 -12.3 -47.05 -7.0 -43.2 -3.5 -46.85 0.05 -50.5 -1.75 -55.85 -2.1 -50.3 -5.6 -47.8" fill="url(#decoration234-gradient7)" fill-rule="evenodd" stroke="none"/>
      <path d="M-5.6 -47.8 Q-2.1 -50.3 -1.75 -55.85 0.05 -50.5 -3.5 -46.85 -7.0 -43.2 -12.3 -47.05 -7.5 -46.5 -5.6 -47.8" fill="#5e88b6" fill-rule="evenodd" stroke="none"/>
      <path d="M-0.4 -53.7 Q0.05 -50.3 -1.75 -47.45 -3.55 -44.75 -6.6 -44.35 -9.65 -43.9 -12.2 -46.1 -13.15 -46.8 -13.7 -47.7 -14.9 -49.45 -15.2 -51.7 -15.75 -55.15 -13.85 -57.95 -12.05 -60.65 -8.95 -61.1 -6.2 -61.5 -3.95 -59.8 L-3.35 -59.4 Q-0.85 -57.2 -0.4 -53.7 Z" fill="none" stroke="#000000" stroke-linecap="round" stroke-linejoin="round" stroke-opacity="0.3019608" stroke-width="0.1"/>
      <path d="M-10.35 -60.2 Q-9.25 -60.6 -8.55 -60.0 -7.85 -59.45 -7.95 -58.35 -8.1 -57.2 -8.9 -56.1 -9.8 -55.0 -10.8 -54.65 L-12.65 -54.8 Q-13.35 -55.4 -13.25 -56.55 -13.15 -57.65 -12.3 -58.7 -11.45 -59.85 -10.35 -60.2" fill="#ffffff" fill-opacity="0.29803923" fill-rule="evenodd" stroke="none"/>
      <path d="M-13.15 -54.0 Q-12.85 -53.5 -12.9 -52.8 -12.95 -52.05 -13.3 -51.5 -13.65 -51.05 -14.1 -51.1 -14.6 -51.1 -14.85 -51.7 L-15.15 -52.9 -14.75 -54.1 Q-14.35 -54.65 -13.9 -54.5 -13.4 -54.5 -13.15 -54.0" fill="#ffffff" fill-opacity="0.29803923" fill-rule="evenodd" stroke="none"/>
      <path d="M-7.0 -31.15 L-6.2 -31.9 -4.7 -30.95 -5.6 -30.45 -6.25 -29.6 -7.6 -29.8 -8.95 -29.15 -8.35 -30.75 Q-8.3 -30.7 -7.65 -30.95 L-7.0 -31.15 -5.95 -30.75 -7.0 -31.15" fill="#a9548d" fill-rule="evenodd" stroke="none"/>
      <path d="M-7.0 -31.15 L-7.65 -30.95 Q-8.3 -30.7 -8.35 -30.75 L-8.95 -29.15 -7.6 -29.8 -6.25 -29.6 -5.6 -30.45 -4.7 -30.95 -6.2 -31.9 -7.0 -31.15 -5.95 -30.75" fill="none" stroke="#000000" stroke-linecap="round" stroke-linejoin="round" stroke-opacity="0.3019608" stroke-width="0.1"/>
      <path d="M-3.55 -41.15 Q-2.2 -37.95 -3.2 -34.7 -4.3 -31.7 -7.2 -30.45 L-12.95 -30.65 -14.8 -31.85 Q-16.45 -33.25 -17.35 -35.35 -18.75 -38.5 -17.65 -41.75 -16.6 -44.8 -13.75 -46.0 L-8.5 -46.15 -7.85 -45.8 Q-4.9 -44.35 -3.55 -41.15 M-4.7 -33.65 Q-2.25 -38.15 -5.4 -42.85 -4.35 -37.4 -7.05 -34.05 -8.5 -32.25 -13.3 -31.65 -7.2 -29.25 -4.7 -33.65" fill="url(#decoration234-gradient8)" fill-rule="evenodd" stroke="none"/>
      <path d="M-4.7 -33.65 Q-7.2 -29.25 -13.3 -31.65 -8.5 -32.25 -7.05 -34.05 -4.35 -37.4 -5.4 -42.85 -2.25 -38.15 -4.7 -33.65" fill="#a9548d" fill-rule="evenodd" stroke="none"/>
      <path d="M-3.55 -41.15 Q-2.2 -37.95 -3.2 -34.7 -4.3 -31.7 -7.2 -30.45 L-12.95 -30.65 -14.8 -31.85 Q-16.45 -33.25 -17.35 -35.35 -18.75 -38.5 -17.65 -41.75 -16.6 -44.8 -13.75 -46.0 L-8.5 -46.15 -7.85 -45.8 Q-4.9 -44.35 -3.55 -41.15 Z" fill="none" stroke="#000000" stroke-linecap="round" stroke-linejoin="round" stroke-opacity="0.3019608" stroke-width="0.1"/>
      <path d="M-15.75 -39.55 Q-16.5 -39.9 -16.65 -41.0 -16.85 -42.15 -16.3 -43.4 -15.8 -44.65 -14.85 -45.25 -13.9 -46.0 -13.05 -45.6 -12.25 -45.2 -12.05 -44.1 -11.85 -42.95 -12.4 -41.75 -12.9 -40.45 -13.9 -39.85 -14.8 -39.15 -15.75 -39.55" fill="#ffffff" fill-opacity="0.29803923" fill-rule="evenodd" stroke="none"/>
      <path d="M-15.8 -38.35 L-15.25 -37.1 Q-15.1 -36.45 -15.35 -35.9 -15.5 -35.35 -15.95 -35.2 -16.45 -35.15 -16.85 -35.55 L-17.4 -36.7 Q-17.55 -37.4 -17.35 -38.0 -17.2 -38.55 -16.65 -38.6 -16.2 -38.75 -15.8 -38.35" fill="#ffffff" fill-opacity="0.29803923" fill-rule="evenodd" stroke="none"/>
      <path d="M7.95 -43.7 L9.0 -43.5 9.25 -41.75 8.3 -42.2 7.2 -42.1 6.45 -43.2 5.1 -43.75 6.75 -44.35 7.35 -43.95 7.95 -43.7 8.25 -42.6 7.95 -43.7" fill="#b3525e" fill-rule="evenodd" stroke="none"/>
      <path d="M7.95 -43.7 L7.35 -43.95 6.75 -44.35 5.1 -43.75 6.45 -43.2 7.2 -42.1 8.3 -42.2 9.25 -41.75 9.0 -43.5 7.95 -43.7 8.25 -42.6" fill="none" stroke="#000000" stroke-linecap="round" stroke-linejoin="round" stroke-opacity="0.3019608" stroke-width="0.1"/>
      <path d="M4.7 -54.65 Q6.1 -57.75 9.25 -59.1 12.25 -60.35 15.1 -59.05 17.55 -57.95 18.6 -55.3 L18.8 -54.5 Q19.65 -51.35 18.2 -48.2 16.7 -45.05 13.65 -43.7 10.7 -42.45 7.85 -43.75 5.0 -45.05 4.1 -48.2 3.75 -49.4 3.75 -50.5 3.7 -52.6 4.7 -54.65 M10.5 -46.15 Q8.25 -46.0 4.55 -49.15 6.85 -43.0 11.85 -44.1 16.8 -45.2 18.25 -50.7 14.9 -46.3 10.5 -46.15" fill="url(#decoration234-gradient9)" fill-rule="evenodd" stroke="none"/>
      <path d="M10.5 -46.15 Q14.9 -46.3 18.25 -50.7 16.8 -45.2 11.85 -44.1 6.85 -43.0 4.55 -49.15 8.25 -46.0 10.5 -46.15" fill="#b3525e" fill-rule="evenodd" stroke="none"/>
      <path d="M4.7 -54.65 Q6.1 -57.75 9.25 -59.1 12.25 -60.35 15.1 -59.05 17.55 -57.95 18.6 -55.3 L18.8 -54.5 Q19.65 -51.35 18.2 -48.2 16.7 -45.05 13.65 -43.7 10.7 -42.45 7.85 -43.75 5.0 -45.05 4.1 -48.2 3.75 -49.4 3.75 -50.5 3.7 -52.6 4.7 -54.65 Z" fill="none" stroke="#000000" stroke-linecap="round" stroke-linejoin="round" stroke-opacity="0.3019608" stroke-width="0.1"/>
      <path d="M14.25 -56.1 Q13.5 -55.2 12.25 -54.75 L9.9 -54.6 Q8.8 -54.85 8.45 -55.8 8.2 -56.6 8.95 -57.55 9.6 -58.4 10.85 -58.8 L13.35 -59.0 Q14.5 -58.75 14.75 -57.95 15.05 -57.0 14.25 -56.1" fill="#ffffff" fill-opacity="0.29803923" fill-rule="evenodd" stroke="none"/>
      <path d="M7.5 -55.5 L7.05 -54.35 Q6.65 -53.7 6.05 -53.55 L5.15 -53.65 Q4.8 -53.9 4.8 -54.45 4.8 -55.1 5.25 -55.7 5.65 -56.2 6.25 -56.5 L7.15 -56.45 Q7.55 -56.15 7.5 -55.5" fill="#ffffff" fill-opacity="0.29803923" fill-rule="evenodd" stroke="none"/>
      <path d="M7.35 -31.65 L8.4 -31.65 8.9 -29.95 7.9 -30.25 6.85 -29.95 5.95 -30.9 4.5 -31.35 6.0 -32.1 6.65 -31.8 7.35 -31.65 7.8 -30.65 7.35 -31.65" fill="#b37f58" fill-rule="evenodd" stroke="none"/>
      <path d="M7.35 -31.65 L6.65 -31.8 6.0 -32.1 4.5 -31.35 5.95 -30.9 6.85 -29.95 7.9 -30.25 8.9 -29.95 8.4 -31.65 7.35 -31.65 7.8 -30.65" fill="none" stroke="#000000" stroke-linecap="round" stroke-linejoin="round" stroke-opacity="0.3019608" stroke-width="0.1"/>
      <path d="M15.85 -44.6 L16.1 -43.95 Q17.45 -40.9 16.45 -37.6 15.5 -34.25 12.65 -32.45 9.9 -30.7 6.95 -31.55 4.0 -32.45 2.55 -35.45 2.0 -36.5 1.9 -37.6 1.5 -39.65 2.2 -41.85 3.1 -45.15 6.0 -46.95 8.8 -48.7 11.75 -47.8 14.45 -47.0 15.85 -44.6 M9.3 -34.3 Q7.0 -33.9 2.85 -36.45 6.1 -30.7 10.85 -32.55 15.6 -34.4 16.1 -40.0 13.5 -35.15 9.3 -34.3" fill="url(#decoration234-gradient10)" fill-rule="evenodd" stroke="none"/>
      <path d="M9.3 -34.3 Q13.5 -35.15 16.1 -40.0 15.6 -34.4 10.85 -32.55 6.1 -30.7 2.85 -36.45 7.0 -33.9 9.3 -34.3" fill="#b37f58" fill-rule="evenodd" stroke="none"/>
      <path d="M15.85 -44.6 L16.1 -43.95 Q17.45 -40.9 16.45 -37.6 15.5 -34.25 12.65 -32.45 9.9 -30.7 6.95 -31.55 4.0 -32.45 2.55 -35.45 2.0 -36.5 1.9 -37.6 1.5 -39.65 2.2 -41.85 3.1 -45.15 6.0 -46.95 8.8 -48.7 11.75 -47.8 14.45 -47.0 15.85 -44.6 Z" fill="none" stroke="#000000" stroke-linecap="round" stroke-linejoin="round" stroke-opacity="0.3019608" stroke-width="0.1"/>
      <path d="M5.75 -43.65 Q5.45 -44.45 6.0 -45.45 6.55 -46.35 7.8 -47.0 9.0 -47.7 10.1 -47.55 11.3 -47.45 11.65 -46.65 12.1 -45.85 11.55 -44.85 11.0 -43.9 9.75 -43.25 8.5 -42.55 7.4 -42.65 6.25 -42.8 5.75 -43.65" fill="#ffffff" fill-opacity="0.29803923" fill-rule="evenodd" stroke="none"/>
      <path d="M5.1 -43.35 L4.85 -42.15 4.0 -41.25 3.05 -41.1 Q2.65 -41.35 2.6 -41.9 2.55 -42.55 2.9 -43.2 L3.75 -44.1 4.6 -44.15 Q5.1 -43.95 5.1 -43.35" fill="#ffffff" fill-opacity="0.29803923" fill-rule="evenodd" stroke="none"/>
      <path d="M-0.4 -35.6 L0.65 -35.85 1.6 -34.35 0.55 -34.4 -0.35 -33.85 -1.5 -34.45 -3.0 -34.5 -1.8 -35.75 -1.1 -35.6 -0.4 -35.6 0.35 -34.8 -0.4 -35.6" fill="#55a75b" fill-rule="evenodd" stroke="none"/>
      <path d="M-0.4 -35.6 L-1.1 -35.6 -1.8 -35.75 -3.0 -34.5 -1.5 -34.45 -0.35 -33.85 0.55 -34.4 1.6 -34.35 0.65 -35.85 -0.4 -35.6 0.35 -34.8" fill="none" stroke="#000000" stroke-linecap="round" stroke-linejoin="round" stroke-opacity="0.3019608" stroke-width="0.1"/>
      <path d="M4.7 -49.85 Q6.8 -47.35 6.75 -43.85 6.75 -40.35 4.55 -37.8 2.35 -35.45 -0.75 -35.5 -3.8 -35.5 -6.0 -38.0 -6.85 -38.85 -7.3 -39.85 -8.15 -41.75 -8.15 -44.0 -8.1 -47.55 -5.85 -49.95 -3.65 -52.45 -0.6 -52.4 2.2 -52.4 4.25 -50.35 L4.7 -49.85 M5.75 -46.15 Q4.6 -40.7 0.75 -38.75 L-6.0 -38.95 Q-1.35 -34.4 2.7 -37.45 6.8 -40.6 5.75 -46.15" fill="url(#decoration234-gradient11)" fill-rule="evenodd" stroke="none"/>
      <path d="M5.75 -46.15 Q6.8 -40.6 2.7 -37.45 -1.35 -34.4 -6.0 -38.95 L0.75 -38.75 Q4.6 -40.7 5.75 -46.15" fill="#55a75b" fill-rule="evenodd" stroke="none"/>
      <path d="M4.7 -49.85 Q6.8 -47.35 6.75 -43.85 6.75 -40.35 4.55 -37.8 2.35 -35.45 -0.75 -35.5 -3.8 -35.5 -6.0 -38.0 -6.85 -38.85 -7.3 -39.85 -8.15 -41.75 -8.15 -44.0 -8.1 -47.55 -5.85 -49.95 -3.65 -52.45 -0.6 -52.4 2.2 -52.4 4.25 -50.35 L4.7 -49.85 Z" fill="none" stroke="#000000" stroke-linecap="round" stroke-linejoin="round" stroke-opacity="0.3019608" stroke-width="0.1"/>
      <path d="M-0.4 -51.45 Q0.15 -50.75 0.0 -49.6 -0.3 -48.55 -1.35 -47.6 -2.3 -46.6 -3.4 -46.45 -4.55 -46.2 -5.2 -46.9 -5.85 -47.55 -5.5 -48.7 -5.25 -49.8 -4.25 -50.7 -3.3 -51.65 -2.15 -51.85 -1.0 -52.15 -0.4 -51.45" fill="#ffffff" fill-opacity="0.29803923" fill-rule="evenodd" stroke="none"/>
      <path d="M-7.25 -43.6 Q-7.65 -43.75 -7.85 -44.3 -8.1 -44.85 -7.95 -45.5 L-7.4 -46.7 Q-7.0 -47.05 -6.5 -47.0 -6.1 -46.9 -5.85 -46.35 -5.6 -45.8 -5.8 -45.05 -5.9 -44.4 -6.35 -43.95 -6.7 -43.5 -7.25 -43.6" fill="#ffffff" fill-opacity="0.29803923" fill-rule="evenodd" stroke="none"/>
      <path d="M1.15 -22.3 L2.15 -22.8 3.3 -21.45 2.25 -21.35 1.45 -20.6 0.15 -21.1 -1.35 -20.85 -0.25 -22.25 0.45 -22.25 1.15 -22.3 2.0 -21.65 1.15 -22.3" fill="#9d8f4d" fill-rule="evenodd" stroke="none"/>
      <path d="M1.15 -22.3 L0.45 -22.25 -0.25 -22.25 -1.35 -20.85 0.15 -21.1 1.45 -20.6 2.25 -21.35 3.3 -21.45 2.15 -22.8 1.15 -22.3 2.0 -21.65" fill="none" stroke="#000000" stroke-linecap="round" stroke-linejoin="round" stroke-opacity="0.3019608" stroke-width="0.1"/>
      <path d="M4.2 -36.95 Q6.7 -34.75 7.2 -31.3 7.7 -27.85 5.9 -25.05 4.05 -22.4 1.05 -21.9 -2.05 -21.45 -4.55 -23.65 L-6.1 -25.25 Q-7.3 -27.0 -7.6 -29.25 -8.1 -32.75 -6.2 -35.5 -4.4 -38.2 -1.35 -38.7 1.4 -39.1 3.7 -37.4 L4.2 -36.95 M4.15 -24.4 Q7.7 -28.05 5.9 -33.4 5.55 -27.85 1.95 -25.4 0.1 -24.05 -4.7 -24.65 0.65 -20.75 4.15 -24.4" fill="url(#decoration234-gradient12)" fill-rule="evenodd" stroke="none"/>
      <path d="M4.15 -24.4 Q0.65 -20.75 -4.7 -24.65 0.1 -24.05 1.95 -25.4 5.55 -27.85 5.9 -33.4 7.7 -28.05 4.15 -24.4" fill="#9d8f4d" fill-rule="evenodd" stroke="none"/>
      <path d="M4.2 -36.95 Q6.7 -34.75 7.2 -31.3 7.7 -27.85 5.9 -25.05 4.05 -22.4 1.05 -21.9 -2.05 -21.45 -4.55 -23.65 L-6.1 -25.25 Q-7.3 -27.0 -7.6 -29.25 -8.1 -32.75 -6.2 -35.5 -4.4 -38.2 -1.35 -38.7 1.4 -39.1 3.7 -37.4 L4.2 -36.95 Z" fill="none" stroke="#000000" stroke-linecap="round" stroke-linejoin="round" stroke-opacity="0.3019608" stroke-width="0.1"/>
      <path d="M-0.4 -36.2 Q-0.6 -35.05 -1.4 -33.95 -2.25 -32.85 -3.3 -32.5 L-5.15 -32.65 Q-5.85 -33.25 -5.75 -34.4 -5.6 -35.5 -4.8 -36.55 -3.95 -37.7 -2.85 -38.05 -1.75 -38.45 -1.05 -37.85 -0.35 -37.3 -0.4 -36.2" fill="#ffffff" fill-opacity="0.29803923" fill-rule="evenodd" stroke="none"/>
      <path d="M-5.4 -31.65 Q-5.1 -31.1 -5.15 -30.4 -5.2 -29.65 -5.55 -29.15 -5.9 -28.7 -6.35 -28.75 -6.85 -28.75 -7.1 -29.3 L-7.4 -30.55 -7.0 -31.75 Q-6.6 -32.25 -6.15 -32.15 -5.65 -32.15 -5.4 -31.65" fill="#ffffff" fill-opacity="0.29803923" fill-rule="evenodd" stroke="none"/>
      <path d="M-0.3 4.5 Q-0.55 3.3 0.3 2.2 L1.1 1.15 0.7 1.25 -0.05 1.45 -1.15 1.2 Q-2.2 0.85 -2.85 0.1 L-3.3 -0.6 -3.05 -1.4 Q-2.8 -2.25 -2.25 -2.35 L-1.4 -2.15 Q0.35 -1.05 1.1 0.8 1.75 -1.05 3.1 -2.05 L4.05 -2.5 4.9 -2.25 5.35 -1.2 Q5.5 -0.65 5.25 -0.05 5.0 0.65 4.45 0.85 L3.45 1.2 2.35 1.25 1.3 1.1 1.2 1.1 2.5 2.6 Q3.35 3.75 3.35 4.6 M1.1 1.15 L1.2 1.1 M1.3 1.1 L1.15 1.0 1.1 0.8" fill="none" stroke="#000000" stroke-linecap="round" stroke-linejoin="round" stroke-opacity="0.3019608" stroke-width="0.30000000000000004"/>
    </g>
    <radialGradient cx="0" cy="0" gradientTransform="matrix(-0.0091, -0.0053, -0.0053, 0.0091, 13.0, -65.4)" gradientUnits="userSpaceOnUse" id="decoration234-gradient0" r="819.2" spreadMethod="pad">
      <stop offset="0.050980392156862744" stop-color="#8abaf0"/>
      <stop offset="0.9764705882352941" stop-color="#71a0d4"/>
    </radialGradient>
    <radialGradient cx="0" cy="0" gradientTransform="matrix(-0.0106, 0.0, 0.0, 0.0106, -0.55, -70.5)" gradientUnits="userSpaceOnUse" id="decoration234-gradient1" r="819.2" spreadMethod="pad">
      <stop offset="0.050980392156862744" stop-color="#d39dfd"/>
      <stop offset="1.0" stop-color="#a971d4"/>
    </radialGradient>
    <radialGradient cx="0" cy="0" gradientTransform="matrix(-0.0106, 0.0, 0.0, 0.0106, -10.35, -69.2)" gradientUnits="userSpaceOnUse" id="decoration234-gradient2" r="819.2" spreadMethod="pad">
      <stop offset="0.050980392156862744" stop-color="#f8c298"/>
      <stop offset="1.0" stop-color="#d49c71"/>
    </radialGradient>
    <radialGradient cx="0" cy="0" gradientTransform="matrix(-0.0102, 0.0027, 0.0027, 0.0102, -19.4, -61.05)" gradientUnits="userSpaceOnUse" id="decoration234-gradient3" r="819.2" spreadMethod="pad">
      <stop offset="0.050980392156862744" stop-color="#d39dfd"/>
      <stop offset="1.0" stop-color="#a971d4"/>
    </radialGradient>
    <radialGradient cx="0" cy="0" gradientTransform="matrix(-0.0098, 0.0039, 0.0039, 0.0098, -18.5, -49.15)" gradientUnits="userSpaceOnUse" id="decoration234-gradient4" r="819.2" spreadMethod="pad">
      <stop offset="0.058823529411764705" stop-color="#a3ffaa"/>
      <stop offset="0.984313725490196" stop-color="#71d479"/>
      <stop offset="0.984313725490196" stop-color="#71d479"/>
    </radialGradient>
    <radialGradient cx="0" cy="0" gradientTransform="matrix(-0.0098, -0.0038, -0.0038, 0.0098, 6.25, -66.7)" gradientUnits="userSpaceOnUse" id="decoration234-gradient5" r="819.2" spreadMethod="pad">
      <stop offset="0.050980392156862744" stop-color="#ff97dc"/>
      <stop offset="0.984313725490196" stop-color="#d471b3"/>
    </radialGradient>
    <radialGradient cx="0" cy="0" gradientTransform="matrix(-0.0105, -0.001, -0.001, 0.0105, -0.55, -59.85)" gradientUnits="userSpaceOnUse" id="decoration234-gradient6" r="819.2" spreadMethod="pad">
      <stop offset="0.050980392156862744" stop-color="#faea9e"/>
      <stop offset="0.984313725490196" stop-color="#d4c271"/>
    </radialGradient>
    <radialGradient cx="0" cy="0" gradientTransform="matrix(-0.0106, 0.0, 0.0, 0.0106, -9.35, -54.1)" gradientUnits="userSpaceOnUse" id="decoration234-gradient7" r="819.2" spreadMethod="pad">
      <stop offset="0.050980392156862744" stop-color="#8abaf0"/>
      <stop offset="0.984313725490196" stop-color="#71a0d4"/>
    </radialGradient>
    <radialGradient cx="0" cy="0" gradientTransform="matrix(-0.0102, 0.0027, 0.0027, 0.0102, -12.3, -39.25)" gradientUnits="userSpaceOnUse" id="decoration234-gradient8" r="819.2" spreadMethod="pad">
      <stop offset="0.050980392156862744" stop-color="#ff97dc"/>
      <stop offset="0.984313725490196" stop-color="#d471b3"/>
    </radialGradient>
    <radialGradient cx="0" cy="0" gradientTransform="matrix(-0.0088, -0.0058, -0.0058, 0.0088, 10.8, -53.45)" gradientUnits="userSpaceOnUse" id="decoration234-gradient9" r="819.2" spreadMethod="pad">
      <stop offset="0.050980392156862744" stop-color="#ffa2ad"/>
      <stop offset="0.984313725490196" stop-color="#d4717d"/>
    </radialGradient>
    <radialGradient cx="0" cy="0" gradientTransform="matrix(-0.0096, -0.0044, -0.0044, 0.0096, 8.45, -41.7)" gradientUnits="userSpaceOnUse" id="decoration234-gradient10" r="819.2" spreadMethod="pad">
      <stop offset="0.050980392156862744" stop-color="#f8c298"/>
      <stop offset="1.0" stop-color="#d49c71"/>
    </radialGradient>
    <radialGradient cx="0" cy="0" gradientTransform="matrix(-0.0104, -0.0016, -0.0016, 0.0104, -2.1, -45.7)" gradientUnits="userSpaceOnUse" id="decoration234-gradient11" r="819.2" spreadMethod="pad">
      <stop offset="0.058823529411764705" stop-color="#a3ffaa"/>
      <stop offset="0.984313725490196" stop-color="#71d479"/>
      <stop offset="0.984313725490196" stop-color="#71d479"/>
    </radialGradient>
    <radialGradient cx="0" cy="0" gradientTransform="matrix(-0.0106, 0.0, 0.0, 0.0106, -1.75, -31.7)" gradientUnits="userSpaceOnUse" id="decoration234-gradient12" r="819.2" spreadMethod="pad">
      <stop offset="0.050980392156862744" stop-color="#faea9e"/>
      <stop offset="0.984313725490196" stop-color="#d4c271"/>
    </radialGradient>
  </defs>
</svg>
