<?xml version="1.0" encoding="UTF-8" standalone="no"?>
<svg xmlns:xlink="http://www.w3.org/1999/xlink" height="21.15px" width="83.55px" xmlns="http://www.w3.org/2000/svg">
  <g transform="matrix(1.0, 0.0, 0.0, 1.0, 41.8, 10.55)">
    <use height="21.15" transform="matrix(1.0, 0.0, 0.0, 1.0, -41.8, -10.55)" width="83.55" xlink:href="#decoration235-shape0"/>
  </g>
  <defs>
    <g id="decoration235-shape0" transform="matrix(1.0, 0.0, 0.0, 1.0, 41.8, 10.55)">
      <path d="M-40.35 -10.5 Q-34.2 -6.9 -26.6 -4.9 -12.6 -1.25 1.15 -0.45 L6.5 -0.25 Q25.25 0.05 41.7 -8.75" fill="none" stroke="#000000" stroke-linecap="round" stroke-linejoin="round" stroke-opacity="0.3019608" stroke-width="0.1"/>
      <path d="M-37.6 -7.1 L-37.0 -8.9 -33.2 -7.65 -33.8 -5.85 -37.6 -7.1" fill="#ad6e59" fill-rule="evenodd" stroke="none"/>
      <path d="M-37.6 -7.1 L-37.0 -8.9 -33.2 -7.65 -33.8 -5.85 -37.6 -7.1 Z" fill="none" stroke="#000000" stroke-linecap="round" stroke-linejoin="round" stroke-opacity="0.3019608" stroke-width="0.1"/>
      <path d="M-39.6 -5.05 Q-39.15 -6.4 -37.9 -7.1 L-35.2 -7.25 Q-33.85 -6.8 -33.25 -5.55 L-32.95 -4.85 Q-32.65 -3.9 -33.0 -2.9 -33.45 -1.55 -34.75 -0.9 -36.05 -0.2 -37.4 -0.65 -38.75 -1.1 -39.4 -2.45 -40.05 -3.7 -39.6 -5.05" fill="#fff8ca" fill-rule="evenodd" stroke="none"/>
      <path d="M-39.6 -5.05 Q-39.15 -6.4 -37.9 -7.1 L-35.2 -7.25 Q-33.85 -6.8 -33.25 -5.55 L-32.95 -4.85 Q-32.65 -3.9 -33.0 -2.9 -33.45 -1.55 -34.75 -0.9 -36.05 -0.2 -37.4 -0.65 -38.75 -1.1 -39.4 -2.45 -40.05 -3.7 -39.6 -5.05 Z" fill="none" stroke="#000000" stroke-linecap="round" stroke-linejoin="round" stroke-opacity="0.3019608" stroke-width="0.1"/>
      <path d="M-41.8 -2.25 Q-41.55 -6.75 -36.9 -7.3 L-35.1 -7.0 Q-29.9 -4.3 -32.55 0.8 -34.05 3.6 -37.05 3.05 -42.1 2.5 -41.8 -2.25" fill="url(#decoration235-gradient0)" fill-rule="evenodd" stroke="none"/>
      <path d="M-18.55 -1.3 L-22.35 -2.55 -21.75 -4.35 -17.95 -3.1 -18.55 -1.3" fill="#ad6e59" fill-rule="evenodd" stroke="none"/>
      <path d="M-18.55 -1.3 L-22.35 -2.55 -21.75 -4.35 -17.95 -3.1 -18.55 -1.3 Z" fill="none" stroke="#000000" stroke-linecap="round" stroke-linejoin="round" stroke-opacity="0.3019608" stroke-width="0.1"/>
      <path d="M-17.75 1.65 Q-18.2 3.0 -19.5 3.65 -20.8 4.35 -22.15 3.9 -23.5 3.45 -24.15 2.1 -24.8 0.85 -24.35 -0.5 -23.9 -1.85 -22.65 -2.55 L-19.95 -2.7 Q-18.6 -2.25 -18.0 -1.0 L-17.7 -0.3 Q-17.4 0.65 -17.75 1.65" fill="#fff8ca" fill-rule="evenodd" stroke="none"/>
      <path d="M-17.75 1.65 Q-18.2 3.0 -19.5 3.65 -20.8 4.35 -22.15 3.9 -23.5 3.45 -24.15 2.1 -24.8 0.85 -24.35 -0.5 -23.9 -1.85 -22.65 -2.55 L-19.95 -2.7 Q-18.6 -2.25 -18.0 -1.0 L-17.7 -0.3 Q-17.4 0.65 -17.75 1.65 Z" fill="none" stroke="#000000" stroke-linecap="round" stroke-linejoin="round" stroke-opacity="0.3019608" stroke-width="0.1"/>
      <path d="M-21.65 -2.75 L-19.85 -2.45 Q-14.65 0.25 -17.3 5.35 -18.8 8.15 -21.85 7.6 -26.85 7.05 -26.55 2.3 -26.3 -2.2 -21.65 -2.75" fill="url(#decoration235-gradient1)" fill-rule="evenodd" stroke="none"/>
      <path d="M-8.25 0.0 L-8.15 -1.9 -4.15 -1.65 -4.25 0.25 -8.25 0.0" fill="#ad6e59" fill-rule="evenodd" stroke="none"/>
      <path d="M-8.25 0.0 L-8.15 -1.9 -4.15 -1.65 -4.25 0.25 -8.25 0.0 Z" fill="none" stroke="#000000" stroke-linecap="round" stroke-linejoin="round" stroke-opacity="0.3019608" stroke-width="0.1"/>
      <path d="M-2.75 2.9 Q-2.8 4.3 -3.85 5.3 -5.0 6.2 -6.4 6.15 -7.85 6.05 -8.75 5.0 -9.75 3.9 -9.7 2.5 -9.6 1.05 -8.5 0.1 -7.45 -0.9 -6.0 -0.8 -4.6 -0.75 -3.6 0.4 L-3.2 0.95 Q-2.65 1.85 -2.75 2.9" fill="#fff8ca" fill-rule="evenodd" stroke="none"/>
      <path d="M-2.75 2.9 Q-2.8 4.3 -3.85 5.3 -5.0 6.2 -6.4 6.15 -7.85 6.05 -8.75 5.0 -9.75 3.9 -9.7 2.5 -9.6 1.05 -8.5 0.1 -7.45 -0.9 -6.0 -0.8 -4.6 -0.75 -3.6 0.4 L-3.2 0.95 Q-2.65 1.85 -2.75 2.9 Z" fill="none" stroke="#000000" stroke-linecap="round" stroke-linejoin="round" stroke-opacity="0.3019608" stroke-width="0.1"/>
      <path d="M-5.8 -0.55 Q-0.05 0.75 -1.3 6.4 -2.05 9.4 -5.1 9.7 -10.15 10.45 -11.05 5.85 -11.95 1.35 -7.6 -0.4 L-5.8 -0.55" fill="url(#decoration235-gradient2)" fill-rule="evenodd" stroke="none"/>
      <path d="M6.75 0.8 L6.85 -1.1 10.85 -0.85 10.75 1.05 6.75 0.8" fill="#ad6e59" fill-rule="evenodd" stroke="none"/>
      <path d="M6.75 0.8 L6.85 -1.1 10.85 -0.85 10.75 1.05 6.75 0.8 Z" fill="none" stroke="#000000" stroke-linecap="round" stroke-linejoin="round" stroke-opacity="0.3019608" stroke-width="0.1"/>
      <path d="M11.4 1.2 L11.8 1.75 Q12.35 2.65 12.25 3.7 12.2 5.1 11.15 6.1 10.0 7.0 8.6 6.95 7.15 6.85 6.25 5.8 5.25 4.7 5.3 3.3 5.4 1.85 6.5 0.9 7.55 -0.1 9.0 0.0 10.4 0.05 11.4 1.2" fill="#fff8ca" fill-rule="evenodd" stroke="none"/>
      <path d="M11.4 1.2 L11.8 1.75 Q12.35 2.65 12.25 3.7 12.2 5.1 11.15 6.1 10.0 7.0 8.6 6.95 7.15 6.85 6.25 5.8 5.25 4.7 5.3 3.3 5.4 1.85 6.5 0.9 7.55 -0.1 9.0 0.0 10.4 0.05 11.4 1.2 Z" fill="none" stroke="#000000" stroke-linecap="round" stroke-linejoin="round" stroke-opacity="0.3019608" stroke-width="0.1"/>
      <path d="M9.2 0.25 Q14.95 1.55 13.7 7.2 12.95 10.2 9.9 10.5 4.85 11.25 3.95 6.65 3.05 2.15 7.4 0.4 L9.2 0.25" fill="url(#decoration235-gradient3)" fill-rule="evenodd" stroke="none"/>
      <path d="M18.85 -2.05 L22.8 -2.5 23.05 -0.65 19.1 -0.2 18.85 -2.05" fill="#ad6e59" fill-rule="evenodd" stroke="none"/>
      <path d="M18.85 -2.05 L22.8 -2.5 23.05 -0.65 19.1 -0.2 18.85 -2.05 Z" fill="none" stroke="#000000" stroke-linecap="round" stroke-linejoin="round" stroke-opacity="0.3019608" stroke-width="0.1"/>
      <path d="M21.15 -1.35 Q22.6 -1.5 23.7 -0.6 L24.2 -0.1 Q24.85 0.65 25.0 1.7 L25.0 1.75 Q25.15 3.15 24.25 4.25 23.35 5.4 21.9 5.55 20.5 5.7 19.35 4.85 18.25 3.95 18.1 2.5 17.9 1.1 18.8 0.0 19.75 -1.2 21.15 -1.35" fill="#fff8ca" fill-rule="evenodd" stroke="none"/>
      <path d="M21.15 -1.35 Q22.6 -1.5 23.7 -0.6 L24.2 -0.1 Q24.85 0.65 25.0 1.7 L25.0 1.75 Q25.15 3.15 24.25 4.25 23.35 5.4 21.9 5.55 20.5 5.7 19.35 4.85 18.25 3.95 18.1 2.5 17.9 1.1 18.8 0.0 19.75 -1.2 21.15 -1.35 Z" fill="none" stroke="#000000" stroke-linecap="round" stroke-linejoin="round" stroke-opacity="0.3019608" stroke-width="0.1"/>
      <path d="M21.4 -1.1 Q27.2 -0.85 26.95 4.95 26.75 8.05 23.75 8.85 19.0 10.45 17.25 6.05 15.65 1.8 19.6 -0.65 L21.4 -1.1" fill="url(#decoration235-gradient4)" fill-rule="evenodd" stroke="none"/>
      <path d="M33.15 -3.6 L32.75 -5.45 36.65 -6.3 37.05 -4.45 33.15 -3.6" fill="#ad6e59" fill-rule="evenodd" stroke="none"/>
      <path d="M33.15 -3.6 L32.75 -5.45 36.65 -6.3 37.05 -4.45 33.15 -3.6 Z" fill="none" stroke="#000000" stroke-linecap="round" stroke-linejoin="round" stroke-opacity="0.3019608" stroke-width="0.1"/>
      <path d="M38.3 -3.95 Q39.0 -3.3 39.25 -2.25 39.5 -0.9 38.75 0.4 37.95 1.6 36.55 1.9 35.15 2.15 33.95 1.4 32.7 0.55 32.45 -0.8 32.15 -2.2 32.95 -3.4 33.7 -4.7 35.1 -4.95 36.5 -5.25 37.75 -4.4 L38.3 -3.95" fill="#fff8ca" fill-rule="evenodd" stroke="none"/>
      <path d="M38.3 -3.95 Q39.0 -3.3 39.25 -2.25 39.5 -0.9 38.75 0.4 37.95 1.6 36.55 1.9 35.15 2.15 33.95 1.4 32.7 0.55 32.45 -0.8 32.15 -2.2 32.95 -3.4 33.7 -4.7 35.1 -4.95 36.5 -5.25 37.75 -4.4 L38.3 -3.95 Z" fill="none" stroke="#000000" stroke-linecap="round" stroke-linejoin="round" stroke-opacity="0.3019608" stroke-width="0.1"/>
      <path d="M41.5 0.75 Q41.55 3.85 38.7 4.95 34.05 7.0 31.95 2.75 29.95 -1.35 33.6 -4.15 L35.35 -4.75 Q41.2 -5.05 41.5 0.75" fill="url(#decoration235-gradient5)" fill-rule="evenodd" stroke="none"/>
    </g>
    <radialGradient cx="0" cy="0" gradientTransform="matrix(0.0063, 0.0021, -0.0021, 0.0063, -37.05, -2.6)" gradientUnits="userSpaceOnUse" id="decoration235-gradient0" r="819.2" spreadMethod="pad">
      <stop offset="0.0" stop-color="#ffffff"/>
      <stop offset="0.9372549019607843" stop-color="#ffffff" stop-opacity="0.007843138"/>
    </radialGradient>
    <radialGradient cx="0" cy="0" gradientTransform="matrix(0.0063, 0.0021, -0.0021, 0.0063, -21.8, 1.9)" gradientUnits="userSpaceOnUse" id="decoration235-gradient1" r="819.2" spreadMethod="pad">
      <stop offset="0.0" stop-color="#ffffff"/>
      <stop offset="0.9372549019607843" stop-color="#ffffff" stop-opacity="0.007843138"/>
    </radialGradient>
    <radialGradient cx="0" cy="0" gradientTransform="matrix(0.0067, 4.0E-4, -4.0E-4, 0.0067, -6.5, 4.25)" gradientUnits="userSpaceOnUse" id="decoration235-gradient2" r="819.2" spreadMethod="pad">
      <stop offset="0.0" stop-color="#ffffff"/>
      <stop offset="0.9372549019607843" stop-color="#ffffff" stop-opacity="0.007843138"/>
    </radialGradient>
    <radialGradient cx="0" cy="0" gradientTransform="matrix(0.0067, 4.0E-4, -4.0E-4, 0.0067, 8.5, 5.05)" gradientUnits="userSpaceOnUse" id="decoration235-gradient3" r="819.2" spreadMethod="pad">
      <stop offset="0.0" stop-color="#ffffff"/>
      <stop offset="0.9372549019607843" stop-color="#ffffff" stop-opacity="0.007843138"/>
    </radialGradient>
    <radialGradient cx="0" cy="0" gradientTransform="matrix(0.0066, -8.0E-4, 8.0E-4, 0.0066, 21.4, 3.65)" gradientUnits="userSpaceOnUse" id="decoration235-gradient4" r="819.2" spreadMethod="pad">
      <stop offset="0.0" stop-color="#ffffff"/>
      <stop offset="0.9372549019607843" stop-color="#ffffff" stop-opacity="0.007843138"/>
    </radialGradient>
    <radialGradient cx="0" cy="0" gradientTransform="matrix(0.0065, -0.0014, 0.0014, 0.0065, 35.85, 0.0)" gradientUnits="userSpaceOnUse" id="decoration235-gradient5" r="819.2" spreadMethod="pad">
      <stop offset="0.0" stop-color="#ffffff"/>
      <stop offset="0.9372549019607843" stop-color="#ffffff" stop-opacity="0.007843138"/>
    </radialGradient>
  </defs>
</svg>
