<?xml version="1.0" encoding="UTF-8" standalone="no"?>
<svg xmlns:ffdec="https://www.free-decompiler.com/flash" xmlns:xlink="http://www.w3.org/1999/xlink" ffdec:objectType="frame" height="23.9px" width="35.2px" xmlns="http://www.w3.org/2000/svg">
  <g transform="matrix(1.0, 0.0, 0.0, 1.0, 17.6, 23.35)">
    <use ffdec:characterId="952" height="23.9" transform="matrix(1.0, 0.0, 0.0, 1.0, -17.6, -23.35)" width="35.2" xlink:href="#decoration239-shape0"/>
  </g>
  <defs>
    <g id="decoration239-shape0" transform="matrix(1.0, 0.0, 0.0, 1.0, 17.6, 23.35)">
      <path d="M5.4 -21.7 L5.3 -21.8 Q5.15 -22.05 5.55 -22.25 L7.6 -22.65 8.6 -22.65 Q10.1 -22.5 10.85 -21.55 L10.9 -21.55 10.95 -21.5 10.95 -21.05 7.85 -20.9 Q5.75 -21.45 5.4 -21.7 M9.35 -22.25 Q9.2 -22.5 8.65 -22.55 L6.95 -22.45 Q5.75 -22.3 6.0 -22.05 L6.05 -22.05 7.2 -22.35 8.35 -22.25 9.35 -22.25" fill="url(#decoration239-gradient0)" fill-rule="evenodd" stroke="none"/>
      <path d="M10.9 -21.55 L12.5 -21.45 12.7 -21.45 Q15.8 -20.75 12.7 -20.0 L6.3 -20.1 Q7.25 -20.1 6.5 -20.95 L5.25 -20.85 4.3 -20.65 4.1 -20.35 4.45 -20.15 -4.25 -20.3 -12.9 -20.25 Q-15.9 -20.4 -12.9 -21.85 L-12.6 -21.95 -10.35 -22.25 Q-9.45 -22.85 -8.2 -23.1 -6.65 -23.45 -5.45 -23.1 L-5.7 -22.6 -5.8 -22.05 Q-5.75 -21.85 -4.95 -21.55 L-3.75 -21.2 -1.95 -21.35 Q-1.05 -21.6 -0.9 -21.85 -0.7 -22.15 -1.6 -22.5 L-1.65 -22.55 0.05 -22.35 5.4 -21.7 Q5.75 -21.45 7.85 -20.9 L10.95 -21.05 10.95 -21.5 10.9 -21.55 M1.5 -20.5 Q2.6 -20.7 1.95 -21.4 0.35 -22.2 -0.2 -21.75 L-0.35 -21.35 -0.45 -20.85 0.0 -20.5 Q0.4 -20.3 1.5 -20.5 M-9.5 -21.5 L-9.35 -20.75 -8.35 -20.65 -7.35 -20.75 -7.1 -21.0 Q-6.95 -21.25 -7.1 -21.3 L-8.35 -21.6 -9.5 -21.5" fill="url(#decoration239-gradient1)" fill-rule="evenodd" stroke="none"/>
      <path d="M9.35 -22.25 L8.35 -22.25 7.2 -22.35 6.05 -22.05 6.0 -22.05 Q5.75 -22.3 6.95 -22.45 L8.65 -22.55 Q9.2 -22.5 9.35 -22.25" fill="#94541f" fill-rule="evenodd" stroke="none"/>
      <path d="M6.3 -20.1 L6.15 -20.1 4.5 -20.15 4.45 -20.15 4.1 -20.35 4.3 -20.65 5.25 -20.85 6.5 -20.95 Q7.25 -20.1 6.3 -20.1" fill="#3d1908" fill-rule="evenodd" stroke="none"/>
      <path d="M1.5 -20.5 Q0.4 -20.3 0.0 -20.5 L-0.45 -20.85 -0.35 -21.35 -0.2 -21.75 Q0.35 -22.2 1.95 -21.4 2.6 -20.7 1.5 -20.5" fill="#471b06" fill-rule="evenodd" stroke="none"/>
      <path d="M-5.45 -23.1 Q-4.65 -23.65 -2.15 -22.7 L-1.65 -22.55 -1.6 -22.5 Q-0.7 -22.15 -0.9 -21.85 -1.05 -21.6 -1.95 -21.35 L-3.75 -21.2 -4.95 -21.55 Q-5.75 -21.85 -5.8 -22.05 L-5.7 -22.6 -5.45 -23.1" fill="url(#decoration239-gradient2)" fill-rule="evenodd" stroke="none"/>
      <path d="M-9.5 -21.5 L-8.35 -21.6 -7.1 -21.3 Q-6.95 -21.25 -7.1 -21.0 L-7.35 -20.75 -8.35 -20.65 -9.35 -20.75 -9.5 -21.5" fill="#652608" fill-rule="evenodd" stroke="none"/>
      <path d="M10.9 -21.55 L12.5 -21.45 12.7 -21.45 Q15.8 -20.75 12.7 -20.0 L6.3 -20.1 6.15 -20.1 5.3 -20.1 4.5 -20.15 4.45 -20.15 -4.25 -20.3 -12.9 -20.25 Q-15.9 -20.4 -12.9 -21.85 L-12.6 -21.95 -10.35 -22.25 Q-9.45 -22.85 -8.2 -23.1 -6.65 -23.45 -5.45 -23.1 -4.65 -23.65 -2.15 -22.7 L-1.65 -22.55 0.05 -22.35 5.4 -21.7 5.3 -21.8 Q5.15 -22.05 5.55 -22.25 L7.6 -22.65 8.6 -22.65 Q10.1 -22.5 10.85 -21.55 L10.9 -21.55 10.95 -21.5 10.95 -21.05 7.85 -20.9 Q5.75 -21.45 5.4 -21.7 M6.3 -20.1 Q7.25 -20.1 6.5 -20.95 L5.25 -20.85 4.3 -20.65 4.1 -20.35 4.45 -20.15 M1.5 -20.5 Q0.4 -20.3 0.0 -20.5 L-0.45 -20.85 -0.35 -21.35 -0.2 -21.75 Q0.35 -22.2 1.95 -21.4 2.6 -20.7 1.5 -20.5 M6.15 -20.1 L4.5 -20.15 M-5.45 -23.1 L-5.7 -22.6 -5.8 -22.05 Q-5.75 -21.85 -4.95 -21.55 L-3.75 -21.2 -1.95 -21.35 Q-1.05 -21.6 -0.9 -21.85 -0.7 -22.15 -1.6 -22.5 M-9.5 -21.5 L-8.35 -21.6 -7.1 -21.3 Q-6.95 -21.25 -7.1 -21.0 L-7.35 -20.75 -8.35 -20.65 -9.35 -20.75 -9.5 -21.5 Z" fill="none" stroke="#000000" stroke-linecap="round" stroke-linejoin="round" stroke-opacity="0.29803923" stroke-width="0.1"/>
      <path d="M15.85 -17.0 Q15.9 -9.8 16.1 -6.65 L10.45 0.35 -9.95 0.35 -11.0 -1.25 -6.0 -1.3 -3.05 -1.35 5.3 -2.45 Q6.9 -6.2 7.3 -11.65 5.75 -15.05 -15.7 -15.15 L-15.75 -16.2 -15.75 -17.0 15.85 -17.0" fill="#151515" fill-rule="evenodd" stroke="none"/>
      <path d="M-15.75 -17.0 L-17.4 -17.0 -17.4 -21.0 17.4 -21.0 17.4 -17.0 15.85 -17.0 -15.75 -17.0 M-11.0 -1.25 L-15.55 -6.75 -15.7 -15.15 Q5.75 -15.05 7.3 -11.65 6.9 -6.2 5.3 -2.45 L-3.05 -1.35 -6.0 -1.3 -11.0 -1.25" fill="#272727" fill-rule="evenodd" stroke="none"/>
      <path d="M-15.75 -17.0 L-17.4 -17.0 -17.4 -21.0 17.4 -21.0 17.4 -17.0 15.85 -17.0 Q15.9 -9.8 16.1 -6.65 L10.45 0.35 -9.95 0.35 -11.0 -1.25 -15.55 -6.75 -15.7 -15.15 -15.75 -16.2 -15.75 -17.0 15.85 -17.0" fill="none" stroke="#000000" stroke-linecap="round" stroke-linejoin="round" stroke-opacity="0.2784314" stroke-width="0.4"/>
    </g>
    <linearGradient gradientTransform="matrix(-0.0024, -0.0013, -0.0015, 8.0E-4, 8.35, -21.8)" gradientUnits="userSpaceOnUse" id="decoration239-gradient0" spreadMethod="pad" x1="-819.2" x2="819.2">
      <stop offset="0.0" stop-color="#581f04"/>
      <stop offset="1.0" stop-color="#803d03"/>
    </linearGradient>
    <linearGradient gradientTransform="matrix(-0.0252, 0.0, 0.0, 0.002, 0.95, -21.75)" gradientUnits="userSpaceOnUse" id="decoration239-gradient1" spreadMethod="pad" x1="-819.2" x2="819.2">
      <stop offset="0.0" stop-color="#471a04"/>
      <stop offset="1.0" stop-color="#2a0f02"/>
    </linearGradient>
    <linearGradient gradientTransform="matrix(-0.0013, -0.0013, -0.0018, 5.0E-4, -3.2, -22.4)" gradientUnits="userSpaceOnUse" id="decoration239-gradient2" spreadMethod="pad" x1="-819.2" x2="819.2">
      <stop offset="0.0" stop-color="#331304"/>
      <stop offset="1.0" stop-color="#6d3708"/>
    </linearGradient>
  </defs>
</svg>
