<?xml version="1.0" encoding="UTF-8" standalone="no"?>
<svg xmlns:ffdec="https://www.free-decompiler.com/flash" xmlns:xlink="http://www.w3.org/1999/xlink" ffdec:objectType="frame" height="43.45px" width="49.75px" xmlns="http://www.w3.org/2000/svg">
  <g transform="matrix(1.0, 0.0, 0.0, 1.0, 24.35, 43.7)">
    <use ffdec:characterId="948" height="43.45" transform="matrix(1.0, 0.0, 0.0, 1.0, -24.35, -43.7)" width="49.75" xlink:href="#decoration241-shape0"/>
  </g>
  <defs>
    <g id="decoration241-shape0" transform="matrix(1.0, 0.0, 0.0, 1.0, 24.35, 43.7)">
      <path d="M-2.8 -15.75 L-4.15 -15.1 Q-4.95 -17.0 -5.15 -18.55 -5.55 -20.75 0.45 -28.7 0.05 -20.1 -0.75 -18.2 -1.55 -16.35 -2.8 -15.75" fill="#4c7317" fill-rule="evenodd" stroke="none"/>
      <path d="M-2.8 -15.75 Q-1.55 -16.35 -0.75 -18.2 0.05 -20.1 0.45 -28.7 -5.55 -20.75 -5.15 -18.55 -4.95 -17.0 -4.15 -15.1 L-2.8 -15.75 Z" fill="none" stroke="#000000" stroke-linecap="round" stroke-linejoin="round" stroke-opacity="0.3882353" stroke-width="0.4"/>
      <path d="M-2.2 -0.6 L-3.5 -0.5 Q-4.8 -0.35 -6.25 -1.0 -7.75 -1.7 -11.75 -5.75 -3.4 -3.8 -2.85 -2.6 -2.3 -1.8 -2.2 -0.6" fill="#4c7317" fill-rule="evenodd" stroke="none"/>
      <path d="M-2.2 -0.6 L-3.5 -0.5 Q-4.8 -0.35 -6.25 -1.0 -7.75 -1.7 -11.75 -5.75 -3.4 -3.8 -2.85 -2.6 -2.3 -1.8 -2.2 -0.6 Z" fill="none" stroke="#000000" stroke-linecap="round" stroke-linejoin="round" stroke-opacity="0.3882353" stroke-width="0.4"/>
      <path d="M-2.7 -0.4 Q-4.4 -21.25 -11.9 -23.15 -4.25 -23.1 -0.3 -0.4 L-2.7 -0.4" fill="#4c7317" fill-rule="evenodd" stroke="none"/>
      <path d="M-2.7 -0.4 L-0.3 -0.4" fill="none" stroke="#000000" stroke-linecap="round" stroke-linejoin="round" stroke-opacity="0.3019608" stroke-width="0.1"/>
      <path d="M-0.3 -0.4 Q-4.25 -23.1 -11.9 -23.15 -4.4 -21.25 -2.7 -0.4" fill="none" stroke="#000000" stroke-linecap="round" stroke-linejoin="round" stroke-opacity="0.4" stroke-width="0.05"/>
      <path d="M-15.5 -18.8 Q-3.1 -14.1 -2.3 -9.65 L-1.35 -5.95 -15.5 -18.8" fill="#5c8622" fill-rule="evenodd" stroke="none"/>
      <path d="M-1.35 -5.95 L-2.95 -6.05 Q-6.3 -5.6 -8.7 -7.2 -11.15 -8.8 -15.5 -18.8 L-1.35 -5.95" fill="#4c7317" fill-rule="evenodd" stroke="none"/>
      <path d="M-15.5 -18.8 Q-3.1 -14.1 -2.3 -9.65 L-1.35 -5.95 -2.95 -6.05 Q-6.3 -5.6 -8.7 -7.2 -11.15 -8.8 -15.5 -18.8 Z" fill="none" stroke="#000000" stroke-linecap="round" stroke-linejoin="round" stroke-opacity="0.3882353" stroke-width="0.4"/>
      <path d="M-22.2 -28.0 Q-20.75 -28.55 -16.5 -26.3 -12.2 -24.0 -14.25 -24.15 -22.0 -26.0 -22.2 -28.0" fill="url(#decoration241-gradient0)" fill-rule="evenodd" stroke="none"/>
      <path d="M-22.2 -28.0 Q-20.75 -28.55 -16.5 -26.3 -12.2 -24.0 -14.25 -24.15 -22.0 -26.0 -22.2 -28.0 Z" fill="none" stroke="#000000" stroke-linecap="round" stroke-linejoin="round" stroke-opacity="0.3019608" stroke-width="0.1"/>
      <path d="M-13.9 -24.6 Q-19.3 -27.7 -16.7 -30.4 -16.0 -30.45 -15.65 -29.6 L-13.9 -24.6" fill="url(#decoration241-gradient1)" fill-rule="evenodd" stroke="none"/>
      <path d="M-13.9 -24.6 Q-19.3 -27.7 -16.7 -30.4 -16.0 -30.45 -15.65 -29.6 L-13.9 -24.6 Z" fill="none" stroke="#000000" stroke-linecap="round" stroke-linejoin="round" stroke-opacity="0.3019608" stroke-width="0.1"/>
      <path d="M-20.3 -19.45 Q-20.45 -23.0 -13.5 -24.45 -17.45 -22.85 -18.5 -19.3 -19.4 -18.5 -20.3 -19.45" fill="url(#decoration241-gradient2)" fill-rule="evenodd" stroke="none"/>
      <path d="M-20.3 -19.45 Q-19.4 -18.5 -18.5 -19.3 -17.45 -22.85 -13.5 -24.45 -20.45 -23.0 -20.3 -19.45 Z" fill="none" stroke="#000000" stroke-linecap="round" stroke-linejoin="round" stroke-opacity="0.3019608" stroke-width="0.1"/>
      <path d="M-23.85 -24.7 Q-19.8 -26.3 -12.95 -23.65 -17.55 -24.95 -23.4 -23.6 -24.9 -23.6 -23.85 -24.7" fill="url(#decoration241-gradient3)" fill-rule="evenodd" stroke="none"/>
      <path d="M-23.85 -24.7 Q-24.9 -23.6 -23.4 -23.6 -17.55 -24.95 -12.95 -23.65 -19.8 -26.3 -23.85 -24.7 Z" fill="none" stroke="#000000" stroke-linecap="round" stroke-linejoin="round" stroke-opacity="0.3019608" stroke-width="0.1"/>
      <path d="M-23.55 -21.4 Q-21.1 -24.95 -14.2 -24.05 -16.4 -24.0 -21.85 -21.5 L-23.55 -21.4" fill="url(#decoration241-gradient4)" fill-rule="evenodd" stroke="none"/>
      <path d="M-23.55 -21.4 L-21.85 -21.5 Q-16.4 -24.0 -14.2 -24.05 -21.1 -24.95 -23.55 -21.4 Z" fill="none" stroke="#000000" stroke-linecap="round" stroke-linejoin="round" stroke-opacity="0.3019608" stroke-width="0.1"/>
      <path d="M-9.05 -29.85 Q-7.25 -29.7 -8.15 -28.9 -13.3 -26.5 -13.95 -24.1 -14.45 -28.6 -9.05 -29.85" fill="url(#decoration241-gradient5)" fill-rule="evenodd" stroke="none"/>
      <path d="M-9.05 -29.85 Q-7.25 -29.7 -8.15 -28.9 -13.3 -26.5 -13.95 -24.1 -14.45 -28.6 -9.05 -29.85 Z" fill="none" stroke="#000000" stroke-linecap="round" stroke-linejoin="round" stroke-opacity="0.3019608" stroke-width="0.1"/>
      <path d="M-11.15 -30.15 Q-14.65 -26.75 -13.8 -24.5 -17.05 -28.3 -12.65 -30.75 -10.8 -31.1 -11.15 -30.15" fill="url(#decoration241-gradient6)" fill-rule="evenodd" stroke="none"/>
      <path d="M-11.15 -30.15 Q-14.65 -26.75 -13.8 -24.5 -17.05 -28.3 -12.65 -30.75 -10.8 -31.1 -11.15 -30.15 Z" fill="none" stroke="#000000" stroke-linecap="round" stroke-linejoin="round" stroke-opacity="0.3019608" stroke-width="0.1"/>
      <path d="M-13.8 -24.9 Q-13.55 -25.2 -14.3 -25.8 -11.15 -24.5 -10.95 -23.5 -10.75 -22.75 -11.7 -22.6 L-12.25 -22.55 -12.55 -22.55 Q-13.65 -22.6 -15.25 -23.4 L-16.4 -24.25 -14.55 -23.95 Q-15.4 -24.3 -15.45 -24.7 L-14.15 -24.5 -14.55 -25.25 -13.8 -24.9" fill="#4c7317" fill-rule="evenodd" stroke="none"/>
      <path d="M-13.8 -24.9 Q-13.55 -25.2 -14.3 -25.8 -11.15 -24.5 -10.95 -23.5 -10.75 -22.75 -11.7 -22.6 L-12.25 -22.55 -12.55 -22.55 Q-13.65 -22.6 -15.25 -23.4 L-16.4 -24.25 -14.55 -23.95 Q-15.4 -24.3 -15.45 -24.7 L-14.15 -24.5 -14.55 -25.25 -13.8 -24.9 Z" fill="none" stroke="#000000" stroke-linecap="round" stroke-linejoin="round" stroke-opacity="0.3019608" stroke-width="0.1"/>
      <path d="M13.0 -16.8 L-0.3 -4.3 Q0.3 -6.7 1.25 -8.5 2.4 -11.05 13.0 -16.8" fill="#5c8622" fill-rule="evenodd" stroke="none"/>
      <path d="M13.0 -16.8 Q6.75 -7.6 4.75 -6.05 2.85 -4.4 1.3 -4.35 L-0.3 -4.3 13.0 -16.8" fill="#4c7317" fill-rule="evenodd" stroke="none"/>
      <path d="M-0.3 -4.3 L1.3 -4.35 Q2.85 -4.4 4.75 -6.05 6.75 -7.6 13.0 -16.8 2.4 -11.05 1.25 -8.5 0.3 -6.7 -0.3 -4.3 Z" fill="none" stroke="#000000" stroke-linecap="round" stroke-linejoin="round" stroke-opacity="0.3882353" stroke-width="0.4"/>
      <path d="M-1.7 -2.85 Q-1.0 -21.55 -7.3 -32.25 -0.5 -22.35 -0.15 -12.55 1.9 -20.9 9.25 -25.05 -1.4 -15.35 0.25 -0.4 L-1.85 -0.4 -1.7 -2.85" fill="url(#decoration241-gradient7)" fill-rule="evenodd" stroke="none"/>
      <path d="M0.25 -0.4 Q-1.4 -15.35 9.25 -25.05 1.9 -20.9 -0.15 -12.55 -0.5 -22.35 -7.3 -32.25 -1.0 -21.55 -1.7 -2.85" fill="none" stroke="#000000" stroke-linecap="round" stroke-linejoin="round" stroke-opacity="0.4" stroke-width="0.05"/>
      <path d="M-1.85 -0.4 L0.25 -0.4" fill="none" stroke="#000000" stroke-linecap="round" stroke-linejoin="round" stroke-opacity="0.3019608" stroke-width="0.1"/>
      <path d="M-13.6 -43.2 Q-11.45 -43.3 -8.65 -37.55 -5.95 -31.75 -8.15 -33.15 -15.2 -40.25 -13.6 -43.2" fill="url(#decoration241-gradient8)" fill-rule="evenodd" stroke="none"/>
      <path d="M-13.6 -43.2 Q-11.45 -43.3 -8.65 -37.55 -5.95 -31.75 -8.15 -33.15 -15.2 -40.25 -13.6 -43.2 Z" fill="none" stroke="#000000" stroke-linecap="round" stroke-linejoin="round" stroke-opacity="0.3019608" stroke-width="0.1"/>
      <path d="M-5.1 -43.65 Q-4.25 -43.35 -4.6 -41.95 -6.8 -36.05 -7.4 -33.65 -10.6 -41.2 -5.1 -43.65" fill="url(#decoration241-gradient9)" fill-rule="evenodd" stroke="none"/>
      <path d="M-5.1 -43.65 Q-4.25 -43.35 -4.6 -41.95 -6.8 -36.05 -7.4 -33.65 -10.6 -41.2 -5.1 -43.65 Z" fill="none" stroke="#000000" stroke-linecap="round" stroke-linejoin="round" stroke-opacity="0.3019608" stroke-width="0.1"/>
      <path d="M-17.6 -28.45 Q-19.4 -27.75 -19.45 -29.7 -16.35 -34.95 -7.05 -33.1 -13.0 -33.0 -17.6 -28.45" fill="url(#decoration241-gradient10)" fill-rule="evenodd" stroke="none"/>
      <path d="M-17.6 -28.45 Q-13.0 -33.0 -7.05 -33.1 -16.35 -34.95 -19.45 -29.7 -19.4 -27.75 -17.6 -28.45 Z" fill="none" stroke="#000000" stroke-linecap="round" stroke-linejoin="round" stroke-opacity="0.3019608" stroke-width="0.1"/>
      <path d="M-18.8 -39.3 Q-12.6 -39.35 -7.3 -31.65 -11.25 -36.15 -19.25 -37.45 -20.95 -38.3 -18.8 -39.3" fill="url(#decoration241-gradient11)" fill-rule="evenodd" stroke="none"/>
      <path d="M-18.8 -39.3 Q-20.95 -38.3 -19.25 -37.45 -11.25 -36.15 -7.3 -31.65 -12.6 -39.35 -18.8 -39.3 Z" fill="none" stroke="#000000" stroke-linecap="round" stroke-linejoin="round" stroke-opacity="0.3019608" stroke-width="0.1"/>
      <path d="M-19.45 -33.55 Q-21.3 -33.6 -21.5 -34.3 -15.35 -38.2 -8.25 -32.95 -10.8 -34.1 -19.45 -33.55" fill="url(#decoration241-gradient12)" fill-rule="evenodd" stroke="none"/>
      <path d="M-19.45 -33.55 Q-10.8 -34.1 -8.25 -32.95 -15.35 -38.2 -21.5 -34.3 -21.3 -33.6 -19.45 -33.55 Z" fill="none" stroke="#000000" stroke-linecap="round" stroke-linejoin="round" stroke-opacity="0.3019608" stroke-width="0.1"/>
      <path d="M3.2 -36.6 Q-4.95 -36.05 -7.95 -32.9 -4.25 -39.75 3.0 -38.5 5.0 -37.3 3.2 -36.6" fill="url(#decoration241-gradient13)" fill-rule="evenodd" stroke="none"/>
      <path d="M3.2 -36.6 Q-4.95 -36.05 -7.95 -32.9 -4.25 -39.75 3.0 -38.5 5.0 -37.3 3.2 -36.6 Z" fill="none" stroke="#000000" stroke-linecap="round" stroke-linejoin="round" stroke-opacity="0.3019608" stroke-width="0.1"/>
      <path d="M1.1 -40.2 Q-6.15 -37.2 -7.3 -33.35 -7.35 -40.85 0.0 -41.85 2.45 -41.3 1.1 -40.2" fill="url(#decoration241-gradient14)" fill-rule="evenodd" stroke="none"/>
      <path d="M1.1 -40.2 Q-6.15 -37.2 -7.3 -33.35 -7.35 -40.85 0.0 -41.85 2.45 -41.3 1.1 -40.2 Z" fill="none" stroke="#000000" stroke-linecap="round" stroke-linejoin="round" stroke-opacity="0.3019608" stroke-width="0.1"/>
      <path d="M-10.1 -32.55 L-11.0 -33.65 Q-10.15 -33.8 -8.85 -33.0 -9.4 -34.05 -9.1 -34.55 L-7.8 -33.55 -7.55 -34.95 -7.0 -33.95 Q-6.5 -34.2 -6.8 -35.6 -4.4 -31.9 -5.05 -30.25 -5.6 -29.1 -6.85 -29.45 -5.55 -29.25 -5.65 -30.9 -5.75 -32.5 -6.9 -32.9 -8.1 -31.0 -10.1 -32.55" fill="#4c7317" fill-rule="evenodd" stroke="none"/>
      <path d="M-10.1 -32.55 Q-8.1 -31.0 -6.9 -32.9 -5.75 -32.5 -5.65 -30.9 -5.55 -29.25 -6.85 -29.45 L-7.5 -29.65 -7.8 -29.85 Q-9.0 -30.5 -10.1 -32.55" fill="#5c8622" fill-rule="evenodd" stroke="none"/>
      <path d="M-6.85 -29.45 Q-5.6 -29.1 -5.05 -30.25 -4.4 -31.9 -6.8 -35.6 -6.5 -34.2 -7.0 -33.95 L-7.55 -34.95 -7.8 -33.55 -9.1 -34.55 Q-9.4 -34.05 -8.85 -33.0 -10.15 -33.8 -11.0 -33.65 L-10.1 -32.55 Q-9.0 -30.5 -7.8 -29.85 L-7.5 -29.65 -6.85 -29.45 Z" fill="none" stroke="#000000" stroke-linecap="round" stroke-linejoin="round" stroke-opacity="0.3019608" stroke-width="0.1"/>
      <path d="M13.95 -31.75 Q18.45 -36.8 20.55 -36.3 21.15 -33.1 12.05 -27.65 9.5 -26.7 13.95 -31.75" fill="url(#decoration241-gradient15)" fill-rule="evenodd" stroke="none"/>
      <path d="M13.95 -31.75 Q9.5 -26.7 12.05 -27.65 21.15 -33.1 20.55 -36.3 18.45 -36.8 13.95 -31.75 Z" fill="none" stroke="#000000" stroke-linecap="round" stroke-linejoin="round" stroke-opacity="0.3019608" stroke-width="0.1"/>
      <path d="M12.35 -38.4 Q16.9 -34.95 11.4 -28.25 L11.35 -36.8 Q11.45 -38.25 12.35 -38.4" fill="url(#decoration241-gradient16)" fill-rule="evenodd" stroke="none"/>
      <path d="M12.35 -38.4 Q11.45 -38.25 11.35 -36.8 L11.4 -28.25 Q16.9 -34.95 12.35 -38.4 Z" fill="none" stroke="#000000" stroke-linecap="round" stroke-linejoin="round" stroke-opacity="0.3019608" stroke-width="0.1"/>
      <path d="M21.9 -22.15 Q21.25 -20.25 19.75 -21.3 16.75 -26.55 11.0 -27.8 20.55 -27.8 21.9 -22.15" fill="url(#decoration241-gradient17)" fill-rule="evenodd" stroke="none"/>
      <path d="M21.9 -22.15 Q21.25 -20.25 19.75 -21.3 16.75 -26.55 11.0 -27.8 20.55 -27.8 21.9 -22.15 Z" fill="none" stroke="#000000" stroke-linecap="round" stroke-linejoin="round" stroke-opacity="0.3019608" stroke-width="0.1"/>
      <path d="M24.25 -31.55 Q26.05 -30.15 24.15 -29.7 16.0 -29.9 10.7 -26.35 18.3 -32.8 24.25 -31.55" fill="url(#decoration241-gradient18)" fill-rule="evenodd" stroke="none"/>
      <path d="M24.25 -31.55 Q26.05 -30.15 24.15 -29.7 16.0 -29.9 10.7 -26.35 18.3 -32.8 24.25 -31.55 Z" fill="none" stroke="#000000" stroke-linecap="round" stroke-linejoin="round" stroke-opacity="0.3019608" stroke-width="0.1"/>
      <path d="M25.35 -26.2 Q24.85 -25.55 23.1 -25.85 14.9 -28.0 12.0 -27.4 20.6 -31.15 25.35 -26.2" fill="url(#decoration241-gradient19)" fill-rule="evenodd" stroke="none"/>
      <path d="M25.35 -26.2 Q24.85 -25.55 23.1 -25.85 14.9 -28.0 12.0 -27.4 20.6 -31.15 25.35 -26.2 Z" fill="none" stroke="#000000" stroke-linecap="round" stroke-linejoin="round" stroke-opacity="0.3019608" stroke-width="0.1"/>
      <path d="M2.1 -33.1 Q0.6 -34.15 2.85 -34.9 10.35 -34.7 11.7 -27.4 9.8 -31.0 2.1 -33.1" fill="url(#decoration241-gradient20)" fill-rule="evenodd" stroke="none"/>
      <path d="M2.1 -33.1 Q9.8 -31.0 11.7 -27.4 10.35 -34.7 2.85 -34.9 0.6 -34.15 2.1 -33.1 Z" fill="none" stroke="#000000" stroke-linecap="round" stroke-linejoin="round" stroke-opacity="0.3019608" stroke-width="0.1"/>
      <path d="M6.95 -37.55 Q13.75 -35.15 11.3 -27.95 11.4 -31.85 5.35 -36.1 4.45 -37.5 6.95 -37.55" fill="url(#decoration241-gradient21)" fill-rule="evenodd" stroke="none"/>
      <path d="M6.95 -37.55 Q4.45 -37.5 5.35 -36.1 11.4 -31.85 11.3 -27.95 13.75 -35.15 6.95 -37.55 Z" fill="none" stroke="#000000" stroke-linecap="round" stroke-linejoin="round" stroke-opacity="0.3019608" stroke-width="0.1"/>
      <path d="M8.25 -25.5 L8.2 -26.15 8.3 -26.6 Q8.55 -28.0 10.2 -29.85 9.3 -27.35 11.4 -26.95 11.35 -25.7 9.8 -24.95 8.4 -24.25 8.25 -25.5" fill="#5c8622" fill-rule="evenodd" stroke="none"/>
      <path d="M10.2 -29.85 L10.65 -31.0 Q11.3 -30.45 10.95 -28.85 11.8 -29.85 12.35 -29.75 L11.8 -28.1 13.1 -28.4 12.35 -27.5 Q12.8 -27.1 13.95 -27.95 11.1 -24.2 9.45 -24.15 8.25 -24.15 8.25 -25.5 8.4 -24.25 9.8 -24.95 11.35 -25.7 11.4 -26.95 9.3 -27.35 10.2 -29.85" fill="#4c7317" fill-rule="evenodd" stroke="none"/>
      <path d="M8.25 -25.5 L8.2 -26.15 8.3 -26.6 Q8.55 -28.0 10.2 -29.85 L10.65 -31.0 Q11.3 -30.45 10.95 -28.85 11.8 -29.85 12.35 -29.75 L11.8 -28.1 13.1 -28.4 12.35 -27.5 Q12.8 -27.1 13.95 -27.95 11.1 -24.2 9.45 -24.15 8.25 -24.15 8.25 -25.5 Z" fill="none" stroke="#000000" stroke-linecap="round" stroke-linejoin="round" stroke-opacity="0.3019608" stroke-width="0.1"/>
    </g>
    <linearGradient gradientTransform="matrix(0.0015, 0.0023, -0.0038, 0.0029, -19.85, -27.65)" gradientUnits="userSpaceOnUse" id="decoration241-gradient0" spreadMethod="pad" x1="-819.2" x2="819.2">
      <stop offset="0.0" stop-color="#d222a0"/>
      <stop offset="1.0" stop-color="#d222a0"/>
    </linearGradient>
    <linearGradient gradientTransform="matrix(-5.0E-4, 0.0026, -0.0054, 0.0014, -16.4, -29.1)" gradientUnits="userSpaceOnUse" id="decoration241-gradient1" spreadMethod="pad" x1="-819.2" x2="819.2">
      <stop offset="0.0" stop-color="#d222a0"/>
      <stop offset="1.0" stop-color="#d222a0"/>
    </linearGradient>
    <linearGradient gradientTransform="matrix(0.0, 0.0, 0.0, 0.0, -428.7, -148.3)" gradientUnits="userSpaceOnUse" id="decoration241-gradient2" spreadMethod="pad" x1="-819.2" x2="819.2">
      <stop offset="0.0" stop-color="#d222a0"/>
      <stop offset="1.0" stop-color="#d222a0"/>
    </linearGradient>
    <linearGradient gradientTransform="matrix(0.0, 0.0, 0.0, 0.0, -428.7, -148.3)" gradientUnits="userSpaceOnUse" id="decoration241-gradient3" spreadMethod="pad" x1="-819.2" x2="819.2">
      <stop offset="0.0" stop-color="#d222a0"/>
      <stop offset="1.0" stop-color="#d222a0"/>
    </linearGradient>
    <linearGradient gradientTransform="matrix(0.0, 0.0, 0.0, 0.0, -428.7, -148.3)" gradientUnits="userSpaceOnUse" id="decoration241-gradient4" spreadMethod="pad" x1="-819.2" x2="819.2">
      <stop offset="0.0" stop-color="#d222a0"/>
      <stop offset="1.0" stop-color="#d222a0"/>
    </linearGradient>
    <linearGradient gradientTransform="matrix(-0.0043, 0.0022, -0.0069, 6.0E-4, -9.8, -28.55)" gradientUnits="userSpaceOnUse" id="decoration241-gradient5" spreadMethod="pad" x1="-819.2" x2="819.2">
      <stop offset="0.0" stop-color="#d222a0"/>
      <stop offset="1.0" stop-color="#d222a0"/>
    </linearGradient>
    <linearGradient gradientTransform="matrix(0.0, 0.0, 0.0, 0.0, -428.7, -148.3)" gradientUnits="userSpaceOnUse" id="decoration241-gradient6" spreadMethod="pad" x1="-819.2" x2="819.2">
      <stop offset="0.0" stop-color="#d222a0"/>
      <stop offset="1.0" stop-color="#d222a0"/>
    </linearGradient>
    <linearGradient gradientTransform="matrix(0.0015, -0.0043, 0.0243, 0.005, 2.45, -7.4)" gradientUnits="userSpaceOnUse" id="decoration241-gradient7" spreadMethod="pad" x1="-819.2" x2="819.2">
      <stop offset="0.0" stop-color="#4c7317"/>
      <stop offset="1.0" stop-color="#5c8622"/>
    </linearGradient>
    <linearGradient gradientTransform="matrix(-4.0E-4, 0.0042, -0.0072, 0.0021, -11.4, -41.2)" gradientUnits="userSpaceOnUse" id="decoration241-gradient8" spreadMethod="pad" x1="-819.2" x2="819.2">
      <stop offset="0.0" stop-color="#ff85dc"/>
      <stop offset="1.0" stop-color="#ee34b9"/>
    </linearGradient>
    <linearGradient gradientTransform="matrix(-0.0031, 0.0034, -0.0076, -9.0E-4, -6.05, -41.4)" gradientUnits="userSpaceOnUse" id="decoration241-gradient9" spreadMethod="pad" x1="-819.2" x2="819.2">
      <stop offset="0.0" stop-color="#ff85dc"/>
      <stop offset="1.0" stop-color="#ee34b9"/>
    </linearGradient>
    <linearGradient gradientTransform="matrix(0.0052, -0.0038, 0.002, -0.0071, -16.7, -29.8)" gradientUnits="userSpaceOnUse" id="decoration241-gradient10" spreadMethod="pad" x1="-819.2" x2="819.2">
      <stop offset="0.0" stop-color="#ff85dc"/>
      <stop offset="1.0" stop-color="#ee34b9"/>
    </linearGradient>
    <linearGradient gradientTransform="matrix(0.0069, 0.0015, 0.0089, -0.0023, -17.5, -37.35)" gradientUnits="userSpaceOnUse" id="decoration241-gradient11" spreadMethod="pad" x1="-819.2" x2="819.2">
      <stop offset="0.0" stop-color="#ff85dc"/>
      <stop offset="1.0" stop-color="#ee34b9"/>
    </linearGradient>
    <linearGradient gradientTransform="matrix(0.0051, -0.0015, 6.0E-4, -0.0059, -18.6, -34.35)" gradientUnits="userSpaceOnUse" id="decoration241-gradient12" spreadMethod="pad" x1="-819.2" x2="819.2">
      <stop offset="0.0" stop-color="#ff85dc"/>
      <stop offset="1.0" stop-color="#ee34b9"/>
    </linearGradient>
    <linearGradient gradientTransform="matrix(-0.0071, 9.0E-4, -0.0086, -0.003, 0.95, -36.8)" gradientUnits="userSpaceOnUse" id="decoration241-gradient13" spreadMethod="pad" x1="-819.2" x2="819.2">
      <stop offset="0.0" stop-color="#ff85dc"/>
      <stop offset="1.0" stop-color="#ee34b9"/>
    </linearGradient>
    <linearGradient gradientTransform="matrix(-0.0061, 0.0029, -0.0094, -2.0E-4, -1.05, -39.65)" gradientUnits="userSpaceOnUse" id="decoration241-gradient14" spreadMethod="pad" x1="-819.2" x2="819.2">
      <stop offset="0.0" stop-color="#ff85dc"/>
      <stop offset="1.0" stop-color="#ee34b9"/>
    </linearGradient>
    <linearGradient gradientTransform="matrix(-9.0E-4, 0.0041, 0.0063, 0.0034, 17.75, -34.65)" gradientUnits="userSpaceOnUse" id="decoration241-gradient15" spreadMethod="pad" x1="-819.2" x2="819.2">
      <stop offset="0.0" stop-color="#ff85dc"/>
      <stop offset="1.0" stop-color="#ee34b9"/>
    </linearGradient>
    <linearGradient gradientTransform="matrix(0.0019, 0.0039, 0.0076, 5.0E-4, 12.65, -35.95)" gradientUnits="userSpaceOnUse" id="decoration241-gradient16" spreadMethod="pad" x1="-819.2" x2="819.2">
      <stop offset="0.0" stop-color="#ff85dc"/>
      <stop offset="1.0" stop-color="#ee34b9"/>
    </linearGradient>
    <linearGradient gradientTransform="matrix(-0.0038, -0.0046, 4.0E-4, -0.0072, 19.3, -22.75)" gradientUnits="userSpaceOnUse" id="decoration241-gradient17" spreadMethod="pad" x1="-819.2" x2="819.2">
      <stop offset="0.0" stop-color="#ff85dc"/>
      <stop offset="1.0" stop-color="#ee34b9"/>
    </linearGradient>
    <linearGradient gradientTransform="matrix(-0.0071, 2.0E-4, -0.0079, -0.0039, 22.45, -29.9)" gradientUnits="userSpaceOnUse" id="decoration241-gradient18" spreadMethod="pad" x1="-819.2" x2="819.2">
      <stop offset="0.0" stop-color="#ff85dc"/>
      <stop offset="1.0" stop-color="#ee34b9"/>
    </linearGradient>
    <linearGradient gradientTransform="matrix(-0.0044, -0.0024, 0.0013, -0.0058, 22.6, -26.8)" gradientUnits="userSpaceOnUse" id="decoration241-gradient19" spreadMethod="pad" x1="-819.2" x2="819.2">
      <stop offset="0.0" stop-color="#ff85dc"/>
      <stop offset="1.0" stop-color="#ee34b9"/>
    </linearGradient>
    <linearGradient gradientTransform="matrix(0.0066, 0.0022, 0.0092, -0.0013, 4.35, -32.85)" gradientUnits="userSpaceOnUse" id="decoration241-gradient20" spreadMethod="pad" x1="-819.2" x2="819.2">
      <stop offset="0.0" stop-color="#ff85dc"/>
      <stop offset="1.0" stop-color="#ee34b9"/>
    </linearGradient>
    <linearGradient gradientTransform="matrix(0.005, 0.004, 0.0092, 0.0016, 7.35, -35.2)" gradientUnits="userSpaceOnUse" id="decoration241-gradient21" spreadMethod="pad" x1="-819.2" x2="819.2">
      <stop offset="0.0" stop-color="#ff85dc"/>
      <stop offset="1.0" stop-color="#ee34b9"/>
    </linearGradient>
  </defs>
</svg>
