<?xml version="1.0" encoding="UTF-8" standalone="no"?>
<svg xmlns:xlink="http://www.w3.org/1999/xlink" height="42.45px" width="45.05px" xmlns="http://www.w3.org/2000/svg">
  <g transform="matrix(1.0, 0.0, 0.0, 1.0, 20.6, 41.85)">
    <use height="42.45" transform="matrix(1.0, 0.0, 0.0, 1.0, -20.6, -41.85)" width="45.05" xlink:href="#decoration243-shape0"/>
  </g>
  <defs>
    <g id="decoration243-shape0" transform="matrix(1.0, 0.0, 0.0, 1.0, 20.6, 41.85)">
      <path d="M0.55 -14.55 Q5.6 -26.9 15.4 -20.1 4.4 -25.35 1.05 -11.0 1.55 -5.85 1.5 0.6 L-0.75 0.6 Q-7.0 -3.75 -6.2 -6.05 -4.8 -2.55 -0.65 -1.2 -0.25 -19.8 -7.1 -31.3 -4.7 -29.05 -2.95 -25.75 -1.85 -29.65 1.5 -30.05 -1.5 -27.5 -1.8 -23.3 -0.25 -19.5 0.55 -14.55" fill="#496915" fill-rule="evenodd" stroke="none"/>
      <path d="M0.55 -14.55 Q-0.25 -19.5 -1.8 -23.3 -1.5 -27.5 1.5 -30.05 -1.85 -29.65 -2.95 -25.75 -4.7 -29.05 -7.1 -31.3 -0.25 -19.8 -0.65 -1.2 -4.8 -2.55 -6.2 -6.05 -7.0 -3.75 -0.75 0.6 L1.5 0.6 Q1.55 -5.85 1.05 -11.0 4.4 -25.35 15.4 -20.1 5.6 -26.9 0.55 -14.55 Z" fill="none" stroke="#000000" stroke-linecap="round" stroke-linejoin="round" stroke-opacity="0.4" stroke-width="0.05"/>
      <path d="M-3.9 -8.45 Q-5.55 -7.25 -3.4 -6.9 -5.2 -7.05 -5.65 -6.0 -5.2 -7.05 -3.4 -6.9 L-2.85 -6.8 Q-5.9 -5.6 -3.7 -4.3 L-4.35 -4.45 Q-4.85 -4.55 -5.8 -5.15 L-5.65 -6.0 Q-6.0 -6.6 -5.45 -7.65 -5.05 -8.55 -3.9 -8.45" fill="#486617" fill-rule="evenodd" stroke="none"/>
      <path d="M-3.4 -6.9 Q-5.55 -7.25 -3.9 -8.45 L-3.45 -8.4 -1.55 -8.0 -0.8 -8.0 Q-0.75 -7.2 -1.35 -6.1 -1.95 -5.05 -2.8 -4.5 L-3.7 -4.3 Q-5.9 -5.6 -2.85 -6.8 L-3.4 -6.9 M-2.35 -6.75 L-2.85 -6.8 -2.35 -6.75" fill="#5a7b24" fill-rule="evenodd" stroke="none"/>
      <path d="M-3.9 -8.45 Q-5.05 -8.55 -5.45 -7.65 -6.0 -6.6 -5.65 -6.0 -5.2 -7.05 -3.4 -6.9 L-2.85 -6.8 -2.35 -6.75 M-3.7 -4.3 L-2.8 -4.5 Q-1.95 -5.05 -1.35 -6.1 -0.75 -7.2 -0.8 -8.0 L-1.55 -8.0 -3.45 -8.4 -3.9 -8.45 M-5.65 -6.0 L-5.8 -5.15 Q-4.85 -4.55 -4.35 -4.45 L-3.7 -4.3" fill="none" stroke="#000000" stroke-linecap="round" stroke-linejoin="round" stroke-opacity="0.4" stroke-width="0.05"/>
      <path d="M-4.35 -25.5 L-4.3 -25.5 -1.95 -25.6 -0.35 -24.95 Q0.75 -24.5 1.2 -23.5 1.7 -22.6 0.65 -21.9 L0.25 -21.65 Q-4.35 -26.05 -9.85 -22.75 L-8.85 -23.6 -7.1 -24.85 -4.35 -25.5 -7.1 -24.85 -8.85 -23.6 Q-7.65 -25.0 -9.55 -25.75 L-8.1 -26.05 Q-6.2 -26.3 -4.35 -25.5" fill="#486617" fill-rule="evenodd" stroke="none"/>
      <path d="M-8.85 -23.6 L-9.85 -22.75 Q-4.35 -26.05 0.25 -21.65 -0.9 -21.15 -3.45 -20.7 L-9.1 -20.05 Q-11.7 -19.9 -14.0 -18.5 L-13.4 -21.35 Q-13.25 -22.75 -11.8 -24.3 -10.95 -25.35 -9.55 -25.75 -7.65 -25.0 -8.85 -23.6" fill="#5a7b24" fill-rule="evenodd" stroke="none"/>
      <path d="M0.25 -21.65 L0.65 -21.9 Q1.7 -22.6 1.2 -23.5 0.75 -24.5 -0.35 -24.95 L-1.95 -25.6 -4.3 -25.5 -4.35 -25.5 -7.1 -24.85 -8.85 -23.6 -9.85 -22.75 M0.25 -21.65 Q-0.9 -21.15 -3.45 -20.7 L-9.1 -20.05 Q-11.7 -19.9 -14.0 -18.5 L-13.4 -21.35 Q-13.25 -22.75 -11.8 -24.3 -10.95 -25.35 -9.55 -25.75 L-8.1 -26.05 Q-6.2 -26.3 -4.35 -25.5" fill="none" stroke="#000000" stroke-linecap="round" stroke-linejoin="round" stroke-opacity="0.4" stroke-width="0.05"/>
      <path d="M15.15 -15.7 L13.9 -15.9 Q10.85 -16.4 9.8 -17.05 8.75 -17.75 9.05 -18.65 9.35 -19.6 10.25 -20.05 11.2 -20.55 12.1 -20.65 L14.75 -20.65 14.8 -20.65 Q16.65 -21.4 18.55 -21.25 L20.2 -20.85 Q18.5 -19.95 19.55 -18.55 L20.3 -17.85 Q17.15 -19.0 14.45 -17.85 11.8 -16.45 15.15 -15.7 M14.8 -20.65 L17.5 -19.95 19.55 -18.55 17.5 -19.95 14.8 -20.65" fill="#486617" fill-rule="evenodd" stroke="none"/>
      <path d="M20.2 -20.85 Q21.45 -20.4 22.25 -19.45 23.7 -17.95 23.85 -16.5 L24.45 -13.6 Q22.15 -15.05 19.55 -15.2 L15.15 -15.7 Q11.8 -16.45 14.45 -17.85 17.15 -19.0 20.3 -17.85 L19.55 -18.55 Q18.5 -19.95 20.2 -20.85" fill="#5a7b24" fill-rule="evenodd" stroke="none"/>
      <path d="M15.15 -15.7 L13.9 -15.9 Q10.85 -16.4 9.8 -17.05 8.75 -17.75 9.05 -18.65 9.35 -19.6 10.25 -20.05 11.2 -20.55 12.1 -20.65 L14.75 -20.65 14.8 -20.65 Q16.65 -21.4 18.55 -21.25 L20.2 -20.85 Q21.45 -20.4 22.25 -19.45 23.7 -17.95 23.85 -16.5 L24.45 -13.6 Q22.15 -15.05 19.55 -15.2 L15.15 -15.7 M20.3 -17.85 L19.55 -18.55 17.5 -19.95 14.8 -20.65" fill="none" stroke="#000000" stroke-linecap="round" stroke-linejoin="round" stroke-opacity="0.4" stroke-width="0.05"/>
      <path d="M19.35 -36.05 Q22.0 -31.7 17.7 -28.8 13.3 -26.9 9.0 -28.4 L8.85 -28.45 Q8.0 -36.7 11.55 -36.4 15.3 -36.1 16.75 -36.95 18.3 -37.8 19.35 -36.05 M9.0 -28.4 Q9.05 -30.35 13.15 -31.4 9.05 -30.35 9.0 -28.4" fill="url(#decoration243-gradient0)" fill-rule="evenodd" stroke="none"/>
      <path d="M13.15 -31.4 Q9.05 -30.35 9.0 -28.4" fill="none" stroke="#000000" stroke-linecap="round" stroke-linejoin="round" stroke-opacity="0.3019608" stroke-width="0.30000000000000004"/>
      <path d="M19.35 -36.05 Q22.0 -31.7 17.7 -28.8 13.3 -26.9 9.0 -28.4 L8.85 -28.45 Q8.0 -36.7 11.55 -36.4 15.3 -36.1 16.75 -36.95 18.3 -37.8 19.35 -36.05" fill="none" stroke="#000000" stroke-linecap="round" stroke-linejoin="round" stroke-opacity="0.3019608" stroke-width="0.4"/>
      <path d="M12.45 -22.95 Q9.05 -25.75 9.3 -28.6 L9.35 -28.75 Q18.15 -29.25 18.95 -26.9 19.65 -24.55 21.05 -23.6 22.4 -22.6 20.8 -21.9 16.9 -20.15 12.45 -22.95 M9.3 -28.6 Q11.55 -28.55 13.9 -25.95 11.55 -28.55 9.3 -28.6" fill="url(#decoration243-gradient1)" fill-rule="evenodd" stroke="none"/>
      <path d="M12.45 -22.95 Q9.05 -25.75 9.3 -28.6 L9.35 -28.75 Q18.15 -29.25 18.95 -26.9 19.65 -24.55 21.05 -23.6 22.4 -22.6 20.8 -21.9 16.9 -20.15 12.45 -22.95" fill="none" stroke="#000000" stroke-linecap="round" stroke-linejoin="round" stroke-opacity="0.3019608" stroke-width="0.4"/>
      <path d="M13.9 -25.95 Q11.55 -28.55 9.3 -28.6" fill="none" stroke="#000000" stroke-linecap="round" stroke-linejoin="round" stroke-opacity="0.3019608" stroke-width="0.30000000000000004"/>
      <path d="M21.25 -31.0 Q19.85 -30.0 19.0 -30.2 16.7 -31.4 12.9 -30.1 L9.05 -29.0 Q14.3 -32.35 19.8 -31.45 L21.25 -31.0" fill="url(#decoration243-gradient2)" fill-rule="evenodd" stroke="none"/>
      <path d="M12.9 -30.1 Q16.7 -31.4 19.0 -30.2 19.85 -30.0 21.25 -31.0 21.75 -30.5 20.1 -29.65 18.4 -28.75 17.55 -30.05 16.3 -30.9 12.9 -30.1" fill="#dedede" fill-rule="evenodd" stroke="none"/>
      <path d="M12.9 -30.1 Q16.3 -30.9 17.55 -30.05 18.4 -28.75 20.1 -29.65 21.75 -30.5 21.25 -31.0 L19.8 -31.45 Q14.3 -32.35 9.05 -29.0 L12.9 -30.1 Z" fill="none" stroke="#000000" stroke-linecap="round" stroke-linejoin="round" stroke-opacity="0.3019608" stroke-width="0.1"/>
      <path d="M14.85 -34.75 Q15.45 -34.75 15.1 -33.8 14.65 -32.75 13.35 -33.0 12.1 -32.9 10.6 -31.2 12.0 -33.25 14.05 -33.65 14.75 -33.85 14.85 -34.75" fill="#dedede" fill-rule="evenodd" stroke="none"/>
      <path d="M10.6 -31.2 L9.15 -29.3 Q9.9 -32.75 13.7 -34.45 L14.85 -34.75 Q14.75 -33.85 14.05 -33.65 12.0 -33.25 10.6 -31.2" fill="url(#decoration243-gradient3)" fill-rule="evenodd" stroke="none"/>
      <path d="M10.6 -31.2 L9.15 -29.3 Q9.9 -32.75 13.7 -34.45 L14.85 -34.75 Q15.45 -34.75 15.1 -33.8 14.65 -32.75 13.35 -33.0 12.1 -32.9 10.6 -31.2 Z" fill="none" stroke="#000000" stroke-linecap="round" stroke-linejoin="round" stroke-opacity="0.3019608" stroke-width="0.1"/>
      <path d="M9.15 -28.9 Q9.1 -27.8 2.9 -29.65 -3.3 -31.55 2.4 -37.95 8.45 -38.1 8.9 -34.1 9.3 -30.1 9.15 -28.9 L8.65 -30.3 Q7.85 -31.7 6.25 -32.55 7.85 -31.7 8.65 -30.3 L9.15 -28.9" fill="url(#decoration243-gradient4)" fill-rule="evenodd" stroke="none"/>
      <path d="M9.15 -28.9 L8.65 -30.3 Q7.85 -31.7 6.25 -32.55" fill="none" stroke="#000000" stroke-linecap="round" stroke-linejoin="round" stroke-opacity="0.3019608" stroke-width="0.30000000000000004"/>
      <path d="M9.15 -28.9 Q9.3 -30.1 8.9 -34.1 8.45 -38.1 2.4 -37.95 -3.3 -31.55 2.9 -29.65 9.1 -27.8 9.15 -28.9 Z" fill="none" stroke="#000000" stroke-linecap="round" stroke-linejoin="round" stroke-opacity="0.3019608" stroke-width="0.4"/>
      <path d="M9.3 -29.0 Q10.65 -27.6 9.85 -24.9 L9.7 -24.25 Q7.85 -20.65 3.55 -21.05 -0.75 -21.5 -2.15 -22.8 -0.5 -23.3 -1.7 -25.75 -2.6 -28.45 2.55 -29.55 7.6 -30.65 9.3 -29.0 5.5 -28.6 4.7 -26.25 5.5 -28.6 9.3 -29.0" fill="url(#decoration243-gradient5)" fill-rule="evenodd" stroke="none"/>
      <path d="M9.3 -29.0 Q5.5 -28.6 4.7 -26.25" fill="none" stroke="#000000" stroke-linecap="round" stroke-linejoin="round" stroke-opacity="0.3019608" stroke-width="0.30000000000000004"/>
      <path d="M9.3 -29.0 Q7.6 -30.65 2.55 -29.55 -2.6 -28.45 -1.7 -25.75 -0.5 -23.3 -2.15 -22.8 -0.75 -21.5 3.55 -21.05 7.85 -20.65 9.7 -24.25 L9.85 -24.9 Q10.65 -27.6 9.3 -29.0 Z" fill="none" stroke="#000000" stroke-linecap="round" stroke-linejoin="round" stroke-opacity="0.3019608" stroke-width="0.4"/>
      <path d="M-7.7 -31.85 Q-8.2 -32.4 -10.15 -36.6 -12.15 -40.75 -4.9 -41.65 2.3 -38.9 -6.15 -32.9 L-7.7 -31.85 -7.1 -32.95 Q-6.5 -34.25 -6.7 -35.85 -6.5 -34.25 -7.1 -32.95 L-7.7 -31.85" fill="url(#decoration243-gradient6)" fill-rule="evenodd" stroke="none"/>
      <path d="M-7.7 -31.85 L-7.1 -32.95 Q-6.5 -34.25 -6.7 -35.85" fill="none" stroke="#000000" stroke-linecap="round" stroke-linejoin="round" stroke-opacity="0.3019608" stroke-width="0.30000000000000004"/>
      <path d="M-7.7 -31.85 L-6.15 -32.9 Q2.3 -38.9 -4.9 -41.65 -12.15 -40.75 -10.15 -36.6 -8.2 -32.4 -7.7 -31.85 Z" fill="none" stroke="#000000" stroke-linecap="round" stroke-linejoin="round" stroke-opacity="0.3019608" stroke-width="0.4"/>
      <path d="M-7.8 -31.7 Q-10.65 -30.15 -15.25 -31.25 -20.35 -33.15 -20.4 -36.95 -20.45 -38.35 -18.8 -37.8 L-14.25 -37.9 Q-11.4 -38.45 -7.7 -31.8 L-7.8 -31.7 Q-8.9 -33.3 -12.85 -33.75 -8.9 -33.3 -7.8 -31.7" fill="url(#decoration243-gradient7)" fill-rule="evenodd" stroke="none"/>
      <path d="M-7.8 -31.7 Q-8.9 -33.3 -12.85 -33.75" fill="none" stroke="#000000" stroke-linecap="round" stroke-linejoin="round" stroke-opacity="0.3019608" stroke-width="0.30000000000000004"/>
      <path d="M-7.8 -31.7 L-7.7 -31.8 Q-11.4 -38.45 -14.25 -37.9 L-18.8 -37.8 Q-20.45 -38.35 -20.4 -36.95 -20.35 -33.15 -15.25 -31.25 -10.65 -30.15 -7.8 -31.7 Z" fill="none" stroke="#000000" stroke-linecap="round" stroke-linejoin="round" stroke-opacity="0.3019608" stroke-width="0.4"/>
      <path d="M-15.8 -40.35 Q-15.5 -38.9 -14.65 -38.6 -12.0 -38.3 -10.0 -35.3 -12.1 -37.7 -13.65 -37.7 -15.3 -37.15 -15.95 -38.75 -16.6 -40.25 -15.8 -40.35" fill="#dedede" fill-rule="evenodd" stroke="none"/>
      <path d="M-10.0 -35.3 Q-12.0 -38.3 -14.65 -38.6 -15.5 -38.9 -15.8 -40.35 L-14.35 -40.0 Q-9.4 -37.75 -7.9 -32.45 L-10.0 -35.3" fill="url(#decoration243-gradient8)" fill-rule="evenodd" stroke="none"/>
      <path d="M-10.0 -35.3 L-7.9 -32.45 Q-9.4 -37.75 -14.35 -40.0 L-15.8 -40.35 Q-16.6 -40.25 -15.95 -38.75 -15.3 -37.15 -13.65 -37.7 -12.1 -37.7 -10.0 -35.3 Z" fill="none" stroke="#000000" stroke-linecap="round" stroke-linejoin="round" stroke-opacity="0.3019608" stroke-width="0.1"/>
      <path d="M-8.15 -38.9 Q-8.85 -38.05 -8.45 -37.5 -7.1 -36.1 -7.6 -33.9 -7.45 -35.9 -8.4 -36.7 -9.6 -37.25 -9.1 -38.25 -8.7 -39.15 -8.15 -38.9" fill="#dedede" fill-rule="evenodd" stroke="none"/>
      <path d="M-8.15 -38.9 L-7.55 -38.0 Q-5.9 -34.65 -7.9 -31.6 -7.6 -32.9 -7.6 -33.9 -7.1 -36.1 -8.45 -37.5 -8.85 -38.05 -8.15 -38.9" fill="url(#decoration243-gradient9)" fill-rule="evenodd" stroke="none"/>
      <path d="M-7.6 -33.9 Q-7.6 -32.9 -7.9 -31.6 -5.9 -34.65 -7.55 -38.0 L-8.15 -38.9 M-7.6 -33.9 Q-7.45 -35.9 -8.4 -36.7 -9.6 -37.25 -9.1 -38.25 -8.7 -39.15 -8.15 -38.9" fill="none" stroke="#000000" stroke-linecap="round" stroke-linejoin="round" stroke-opacity="0.3019608" stroke-width="0.1"/>
      <path d="M4.95 -33.95 Q6.75 -33.9 6.1 -32.55 4.35 -29.1 -1.25 -28.95 -6.0 -29.35 -7.9 -31.65 L-8.0 -31.8 Q-1.6 -36.8 0.8 -35.4 3.2 -34.0 4.95 -33.95 M-7.9 -31.65 Q-6.2 -32.8 -2.4 -32.0 -6.2 -32.8 -7.9 -31.65" fill="url(#decoration243-gradient10)" fill-rule="evenodd" stroke="none"/>
      <path d="M4.95 -33.95 Q6.75 -33.9 6.1 -32.55 4.35 -29.1 -1.25 -28.95 -6.0 -29.35 -7.9 -31.65 L-8.0 -31.8 Q-1.6 -36.8 0.8 -35.4 3.2 -34.0 4.95 -33.95" fill="none" stroke="#000000" stroke-linecap="round" stroke-linejoin="round" stroke-opacity="0.3019608" stroke-width="0.4"/>
      <path d="M-2.4 -32.0 Q-6.2 -32.8 -7.9 -31.65" fill="none" stroke="#000000" stroke-linecap="round" stroke-linejoin="round" stroke-opacity="0.3019608" stroke-width="0.30000000000000004"/>
      <path d="M-7.95 -32.1 Q-5.4 -32.2 -4.9 -29.8 -4.75 -23.7 -17.1 -25.55 L-16.4 -26.55 Q-18.75 -25.55 -18.9 -26.25 -17.7 -31.55 -7.95 -32.1 -11.75 -30.55 -11.85 -28.8 -11.75 -30.55 -7.95 -32.1" fill="url(#decoration243-gradient11)" fill-rule="evenodd" stroke="none"/>
      <path d="M-7.95 -32.1 Q-11.75 -30.55 -11.85 -28.8" fill="none" stroke="#000000" stroke-linecap="round" stroke-linejoin="round" stroke-opacity="0.3019608" stroke-width="0.30000000000000004"/>
      <path d="M-7.95 -32.1 Q-17.7 -31.55 -18.9 -26.25 -18.75 -25.55 -16.4 -26.55 L-17.1 -25.55 Q-4.75 -23.7 -4.9 -29.8 -5.4 -32.2 -7.95 -32.1 Z" fill="none" stroke="#000000" stroke-linecap="round" stroke-linejoin="round" stroke-opacity="0.3019608" stroke-width="0.4"/>
      <path d="M-12.1 -6.95 L-11.1 -7.2 Q-7.1 -8.05 -5.95 -5.15 -7.1 -8.05 -11.1 -7.2 -8.8 -7.85 -10.35 -10.25 L-9.45 -10.1 -8.6 -9.65 Q-6.5 -7.4 -5.95 -5.15 -7.1 -4.0 -7.9 -3.7 -9.2 -3.05 -10.6 -3.4 -12.55 -4.0 -14.3 -5.45 L-14.35 -5.5 Q-11.55 -3.75 -9.8 -5.1 -8.1 -6.5 -12.1 -6.95" fill="#486617" fill-rule="evenodd" stroke="none"/>
      <path d="M-11.1 -7.2 L-12.1 -6.95 Q-8.1 -6.5 -9.8 -5.1 -11.55 -3.75 -14.35 -5.5 -16.05 -6.95 -16.55 -8.2 L-14.95 -8.6 Q-14.0 -8.9 -13.35 -9.4 L-12.55 -8.3 -12.5 -9.75 -11.4 -10.1 -10.35 -10.25 Q-8.8 -7.85 -11.1 -7.2 M-12.9 -6.7 L-12.1 -6.95 -12.9 -6.7" fill="#5a7b24" fill-rule="evenodd" stroke="none"/>
      <path d="M-11.1 -7.2 L-12.1 -6.95 -12.9 -6.7 M-14.35 -5.5 L-14.3 -5.45 Q-12.55 -4.0 -10.6 -3.4 -9.2 -3.05 -7.9 -3.7 -7.1 -4.0 -5.95 -5.15 -7.1 -8.05 -11.1 -7.2 M-10.35 -10.25 L-11.4 -10.1 -12.5 -9.75 -12.55 -8.3 -13.35 -9.4 Q-14.0 -8.9 -14.95 -8.6 L-16.55 -8.2 Q-16.05 -6.95 -14.35 -5.5 M-5.95 -5.15 Q-6.5 -7.4 -8.6 -9.65 L-9.45 -10.1 -10.35 -10.25" fill="none" stroke="#000000" stroke-linecap="round" stroke-linejoin="round" stroke-opacity="0.4" stroke-width="0.05"/>
      <path d="M2.65 -6.35 L3.4 -7.05 Q4.15 -7.55 5.25 -7.5 L6.45 -7.4 6.9 -6.0 7.35 -7.3 Q8.15 -6.95 9.1 -6.85 L10.75 -6.8 Q10.65 -5.6 9.5 -3.9 5.95 -1.65 4.2 -2.05 2.45 -2.45 3.55 -4.25 2.15 -4.6 2.65 -6.35 M7.8 -4.6 L3.55 -4.25 7.8 -4.6" fill="#5a7b24" fill-rule="evenodd" stroke="none"/>
      <path d="M9.5 -3.9 L9.4 -3.75 Q8.15 -1.9 6.45 -0.9 5.15 -0.2 3.75 -0.45 2.9 -0.6 1.4 -1.5 1.35 -3.75 2.65 -6.35 2.15 -4.6 3.55 -4.25 1.6 -3.55 1.4 -1.5 1.6 -3.55 3.55 -4.25 2.45 -2.45 4.2 -2.05 5.95 -1.65 9.5 -3.9" fill="#486617" fill-rule="evenodd" stroke="none"/>
      <path d="M2.65 -6.35 L3.4 -7.05 Q4.15 -7.55 5.25 -7.5 L6.45 -7.4 6.9 -6.0 7.35 -7.3 Q8.15 -6.95 9.1 -6.85 L10.75 -6.8 Q10.65 -5.6 9.5 -3.9 L9.4 -3.75 Q8.15 -1.9 6.45 -0.9 5.15 -0.2 3.75 -0.45 2.9 -0.6 1.4 -1.5 1.35 -3.75 2.65 -6.35 M3.55 -4.25 L7.8 -4.6 M1.4 -1.5 Q1.6 -3.55 3.55 -4.25" fill="none" stroke="#000000" stroke-linecap="round" stroke-linejoin="round" stroke-opacity="0.4" stroke-width="0.05"/>
    </g>
    <linearGradient gradientTransform="matrix(-0.0035, 0.0054, -0.0055, -0.0028, 12.55, -30.85)" gradientUnits="userSpaceOnUse" id="decoration243-gradient0" spreadMethod="pad" x1="-819.2" x2="819.2">
      <stop offset="0.12156862745098039" stop-color="#fbda3e"/>
      <stop offset="1.0" stop-color="#889562"/>
    </linearGradient>
    <linearGradient gradientTransform="matrix(-0.0042, -0.0055, 0.0042, -0.0025, 11.8, -26.15)" gradientUnits="userSpaceOnUse" id="decoration243-gradient1" spreadMethod="pad" x1="-819.2" x2="819.2">
      <stop offset="0.12156862745098039" stop-color="#fbda3e"/>
      <stop offset="1.0" stop-color="#889562"/>
    </linearGradient>
    <linearGradient gradientTransform="matrix(0.0038, -0.0027, -0.0037, -0.0036, 14.8, -29.35)" gradientUnits="userSpaceOnUse" id="decoration243-gradient2" spreadMethod="pad" x1="-819.2" x2="819.2">
      <stop offset="0.0" stop-color="#93bd6f"/>
      <stop offset="0.5137254901960784" stop-color="#f6ffd4"/>
    </linearGradient>
    <linearGradient gradientTransform="matrix(4.0E-4, -0.0026, -0.0046, -1.0E-4, 12.15, -31.6)" gradientUnits="userSpaceOnUse" id="decoration243-gradient3" spreadMethod="pad" x1="-819.2" x2="819.2">
      <stop offset="0.0" stop-color="#93bd6f"/>
      <stop offset="0.5137254901960784" stop-color="#f6ffd4"/>
    </linearGradient>
    <linearGradient gradientTransform="matrix(0.004, 0.0036, -0.0045, 0.004, 6.15, -30.9)" gradientUnits="userSpaceOnUse" id="decoration243-gradient4" spreadMethod="pad" x1="-819.2" x2="819.2">
      <stop offset="0.12156862745098039" stop-color="#fbda3e"/>
      <stop offset="1.0" stop-color="#889562"/>
    </linearGradient>
    <linearGradient gradientTransform="matrix(0.0064, -0.0033, 0.003, 0.0047, 5.75, -27.35)" gradientUnits="userSpaceOnUse" id="decoration243-gradient5" spreadMethod="pad" x1="-819.2" x2="819.2">
      <stop offset="0.12156862745098039" stop-color="#fbda3e"/>
      <stop offset="1.0" stop-color="#889562"/>
    </linearGradient>
    <linearGradient gradientTransform="matrix(0.0013, 0.0047, -0.0064, 0.0015, -7.25, -35.35)" gradientUnits="userSpaceOnUse" id="decoration243-gradient6" spreadMethod="pad" x1="-819.2" x2="819.2">
      <stop offset="0.12156862745098039" stop-color="#fbda3e"/>
      <stop offset="1.0" stop-color="#889562"/>
    </linearGradient>
    <linearGradient gradientTransform="matrix(0.0066, 0.0034, -0.0023, 0.0037, -11.05, -33.15)" gradientUnits="userSpaceOnUse" id="decoration243-gradient7" spreadMethod="pad" x1="-819.2" x2="819.2">
      <stop offset="0.12156862745098039" stop-color="#fbda3e"/>
      <stop offset="1.0" stop-color="#889562"/>
    </linearGradient>
    <linearGradient gradientTransform="matrix(-9.0E-4, -0.0041, 0.0056, -8.0E-4, -12.1, -35.7)" gradientUnits="userSpaceOnUse" id="decoration243-gradient8" spreadMethod="pad" x1="-819.2" x2="819.2">
      <stop offset="0.0" stop-color="#93bd6f"/>
      <stop offset="0.5137254901960784" stop-color="#f6ffd4"/>
    </linearGradient>
    <linearGradient gradientTransform="matrix(0.0016, -0.0022, 0.0036, 0.0023, -8.8, -35.05)" gradientUnits="userSpaceOnUse" id="decoration243-gradient9" spreadMethod="pad" x1="-819.2" x2="819.2">
      <stop offset="0.0" stop-color="#93bd6f"/>
      <stop offset="0.5137254901960784" stop-color="#f6ffd4"/>
    </linearGradient>
    <linearGradient gradientTransform="matrix(-0.0083, -0.0019, 0.0011, -0.0039, -3.15, -32.65)" gradientUnits="userSpaceOnUse" id="decoration243-gradient10" spreadMethod="pad" x1="-819.2" x2="819.2">
      <stop offset="0.12156862745098039" stop-color="#fbda3e"/>
      <stop offset="1.0" stop-color="#889562"/>
    </linearGradient>
    <linearGradient gradientTransform="matrix(0.0067, -0.0045, 0.0027, 0.0033, -10.75, -30.75)" gradientUnits="userSpaceOnUse" id="decoration243-gradient11" spreadMethod="pad" x1="-819.2" x2="819.2">
      <stop offset="0.12156862745098039" stop-color="#fbda3e"/>
      <stop offset="1.0" stop-color="#889562"/>
    </linearGradient>
  </defs>
</svg>
