<?xml version="1.0" encoding="UTF-8" standalone="no"?>
<svg xmlns:xlink="http://www.w3.org/1999/xlink" height="48.25px" width="49.55px" xmlns="http://www.w3.org/2000/svg">
  <g transform="matrix(1.0, 0.0, 0.0, 1.0, 30.45, 46.45)">
    <use height="9.5" transform="matrix(1.1902, -0.6566, 0.6871, 1.1374, -13.7939, -11.274)" width="8.95" xlink:href="#decoration245-sprite0"/>
    <use height="9.5" transform="matrix(0.6999, -0.5972, 0.8108, 0.5584, -3.1255, -7.3981)" width="8.95" xlink:href="#decoration245-sprite0"/>
    <use height="46.5" transform="matrix(1.0, 0.0, 0.0, 1.0, -23.2, -46.45)" width="42.3" xlink:href="#decoration245-shape1"/>
    <use height="9.5" transform="matrix(1.3743, 0.0, 0.0, 0.964, -8.5687, -8.3982)" width="8.95" xlink:href="#decoration245-sprite0"/>
    <use height="9.5" transform="matrix(-1.0979, 0.0, 0.0, 1.0353, 7.2049, -8.9018)" width="8.95" xlink:href="#decoration245-sprite0"/>
    <use height="16.0" transform="matrix(1.0, 0.0, 0.0, 1.0, -30.45, -28.3)" width="42.1" xlink:href="#decoration245-shape2"/>
    <use height="9.5" transform="matrix(1.3743, 0.0, 0.0, 1.3133, 5.5813, -10.9157)" width="8.95" xlink:href="#decoration245-sprite0"/>
    <use height="9.5" transform="matrix(-1.3743, 0.0, 0.0, 1.3133, -6.0313, -10.6657)" width="8.95" xlink:href="#decoration245-sprite0"/>
    <use height="9.5" transform="matrix(0.9682, 0.2479, -0.241, 0.8593, 9.8636, -19.9554)" width="8.95" xlink:href="#decoration245-sprite0"/>
    <use height="9.5" transform="matrix(0.9088, -0.5246, 0.4207, 0.7287, -18.8665, -19.6602)" width="8.95" xlink:href="#decoration245-sprite0"/>
  </g>
  <defs>
    <g id="decoration245-sprite0" transform="matrix(1.0, 0.0, 0.0, 1.0, 0.05, 0.05)">
      <use height="9.5" transform="matrix(1.0, 0.0, 0.0, 1.0, -0.05, -0.05)" width="8.95" xlink:href="#decoration245-shape0"/>
    </g>
    <g id="decoration245-shape0" transform="matrix(1.0, 0.0, 0.0, 1.0, 0.05, 0.05)">
      <path d="M5.15 2.85 L5.45 2.15 Q5.55 1.15 6.35 1.85 8.35 -0.2 8.7 0.05 9.25 0.25 7.6 2.85 7.65 4.35 6.4 4.4 6.4 5.35 5.75 5.3 4.55 5.55 3.4 6.45 3.25 7.1 3.7 6.9 4.35 6.35 5.3 6.9 L6.3 6.7 Q6.95 5.8 7.15 6.25 7.4 6.9 6.05 8.0 6.5 8.55 6.25 8.8 L4.4 9.0 Q4.55 9.3 4.3 9.4 L3.95 9.2 Q2.8 9.0 2.55 8.2 L1.15 7.85 1.05 6.6 Q0.3 6.25 0.2 5.2 L0.0 4.85 0.5 4.8 Q0.4 3.7 0.85 3.1 1.2 2.8 1.7 3.3 2.9 2.1 3.6 2.45 4.0 2.65 3.1 3.2 2.7 3.65 2.75 4.1 3.15 5.1 2.6 5.6 2.3 6.1 3.05 6.0 4.55 4.6 4.25 3.45 3.75 2.35 5.15 2.85 M6.35 7.15 Q4.0 8.5 1.95 7.2 L1.75 7.25 Q1.2 4.8 3.0 2.95 1.2 4.8 1.75 7.25 L1.95 7.2 Q5.15 4.85 8.1 1.0 5.15 4.85 1.95 7.2 4.0 8.5 6.35 7.15 M1.75 7.25 L1.4 7.5 1.75 7.25" fill="#7a9732" fill-rule="evenodd" stroke="none"/>
      <path d="M5.15 2.85 Q3.75 2.35 4.25 3.45 4.55 4.6 3.05 6.0 2.3 6.1 2.6 5.6 3.15 5.1 2.75 4.1 2.7 3.65 3.1 3.2 4.0 2.65 3.6 2.45 2.9 2.1 1.7 3.3 1.2 2.8 0.85 3.1 0.4 3.7 0.5 4.8 L0.0 4.85 0.2 5.2 Q0.3 6.25 1.05 6.6 L1.15 7.85 2.55 8.2 Q2.8 9.0 3.95 9.2 L4.3 9.4 Q4.55 9.3 4.4 9.0 L6.25 8.8 Q6.5 8.55 6.05 8.0 7.4 6.9 7.15 6.25 6.95 5.8 6.3 6.7 L5.3 6.9 Q4.35 6.35 3.7 6.9 3.25 7.1 3.4 6.45 4.55 5.55 5.75 5.3 6.4 5.35 6.4 4.4 7.65 4.35 7.6 2.85 9.25 0.25 8.7 0.05 8.35 -0.2 6.35 1.85 5.55 1.15 5.45 2.15 L5.15 2.85" fill="none" stroke="#000000" stroke-linecap="round" stroke-linejoin="round" stroke-opacity="0.4" stroke-width="0.1"/>
      <path d="M3.0 2.95 Q1.2 4.8 1.75 7.25 L1.95 7.2 Q5.15 4.85 8.1 1.0 M1.4 7.5 L1.75 7.25 M1.95 7.2 Q4.0 8.5 6.35 7.15" fill="none" stroke="#000000" stroke-linecap="round" stroke-linejoin="round" stroke-opacity="0.2" stroke-width="0.1"/>
    </g>
    <g id="decoration245-shape1" transform="matrix(1.0, 0.0, 0.0, 1.0, 23.2, 46.45)">
      <path d="M15.05 -29.25 Q9.8 -19.0 7.35 -0.55 L5.75 -0.55 4.85 -9.1 Q-1.55 -10.95 -5.9 -18.9 -8.75 -23.95 -10.75 -31.5 L-9.7 -31.5 Q-8.2 -24.75 -5.7 -20.05 -1.75 -12.65 4.85 -10.55 L4.6 -16.15 Q4.05 -28.8 5.3 -40.3 L6.6 -40.3 Q4.95 -30.5 5.85 -16.15 L6.3 -9.85 7.0 -3.4 Q8.55 -17.5 14.55 -29.7 L15.05 -29.25" fill="url(#decoration245-gradient0)" fill-rule="evenodd" stroke="none"/>
      <path d="M15.05 -29.25 Q9.8 -19.0 7.35 -0.55 L5.75 -0.55 4.85 -9.1 Q-1.55 -10.95 -5.9 -18.9 -8.75 -23.95 -10.75 -31.5 L-9.7 -31.5 Q-8.2 -24.75 -5.7 -20.05 -1.75 -12.65 4.85 -10.55 L4.6 -16.15 Q4.05 -28.8 5.3 -40.3 L6.6 -40.3 Q4.95 -30.5 5.85 -16.15 L6.3 -9.85 7.0 -3.4 Q8.55 -17.5 14.55 -29.7 L15.05 -29.25 Z" fill="none" stroke="#000000" stroke-linecap="round" stroke-linejoin="round" stroke-opacity="0.4" stroke-width="0.2"/>
      <path d="M-18.25 -35.15 Q-16.65 -36.35 -11.25 -33.4 -18.3 -33.6 -18.25 -35.15" fill="#fefdff" fill-rule="evenodd" stroke="none"/>
      <path d="M-18.25 -35.15 Q-16.65 -36.35 -11.25 -33.4 -18.3 -33.6 -18.25 -35.15 Z" fill="none" stroke="#000000" stroke-linecap="round" stroke-linejoin="round" stroke-opacity="0.3882353" stroke-width="0.4"/>
      <path d="M-3.65 -35.15 Q-3.55 -33.6 -10.65 -33.3 -5.3 -36.35 -3.65 -35.15" fill="#fefdff" fill-rule="evenodd" stroke="none"/>
      <path d="M-3.65 -35.15 Q-5.3 -36.35 -10.65 -33.3 -3.55 -33.6 -3.65 -35.15 Z" fill="none" stroke="#000000" stroke-linecap="round" stroke-linejoin="round" stroke-opacity="0.3882353" stroke-width="0.4"/>
      <path d="M-10.95 -38.55 Q-8.75 -38.05 -10.95 -33.6 -13.3 -38.0 -10.95 -38.55" fill="#fefdff" fill-rule="evenodd" stroke="none"/>
      <path d="M-10.95 -38.55 Q-13.3 -38.0 -10.95 -33.6 -8.75 -38.05 -10.95 -38.55 Z" fill="none" stroke="#000000" stroke-linecap="round" stroke-linejoin="round" stroke-opacity="0.3882353" stroke-width="0.4"/>
      <path d="M-11.25 -28.65 Q-13.45 -29.15 -11.25 -33.6 -8.9 -29.2 -11.25 -28.65" fill="#fefdff" fill-rule="evenodd" stroke="none"/>
      <path d="M-11.25 -28.65 Q-8.9 -29.2 -11.25 -33.6 -13.45 -29.15 -11.25 -28.65 Z" fill="none" stroke="#000000" stroke-linecap="round" stroke-linejoin="round" stroke-opacity="0.3882353" stroke-width="0.4"/>
      <path d="M-6.3 -37.6 Q-5.0 -36.35 -10.75 -33.65 -8.7 -38.05 -6.3 -37.6" fill="#fefdff" fill-rule="evenodd" stroke="none"/>
      <path d="M-6.3 -37.6 Q-8.7 -38.05 -10.75 -33.65 -5.0 -36.35 -6.3 -37.6 Z" fill="none" stroke="#000000" stroke-linecap="round" stroke-linejoin="round" stroke-opacity="0.3882353" stroke-width="0.4"/>
      <path d="M-15.5 -37.45 Q-13.15 -37.9 -11.1 -33.45 -16.85 -36.2 -15.5 -37.45" fill="#fefdff" fill-rule="evenodd" stroke="none"/>
      <path d="M-15.5 -37.45 Q-13.15 -37.9 -11.1 -33.45 -16.85 -36.2 -15.5 -37.45 Z" fill="none" stroke="#000000" stroke-linecap="round" stroke-linejoin="round" stroke-opacity="0.3882353" stroke-width="0.4"/>
      <path d="M-6.5 -29.4 Q-8.85 -28.95 -10.9 -33.4 -5.15 -30.65 -6.5 -29.4" fill="#fefdff" fill-rule="evenodd" stroke="none"/>
      <path d="M-6.5 -29.4 Q-8.85 -28.95 -10.9 -33.4 -5.15 -30.65 -6.5 -29.4 Z" fill="none" stroke="#000000" stroke-linecap="round" stroke-linejoin="round" stroke-opacity="0.3882353" stroke-width="0.4"/>
      <path d="M-15.55 -29.6 Q-16.85 -30.85 -11.1 -33.55 -13.15 -29.15 -15.55 -29.6" fill="#fefdff" fill-rule="evenodd" stroke="none"/>
      <path d="M-15.55 -29.6 Q-13.15 -29.15 -11.1 -33.55 -16.85 -30.85 -15.55 -29.6 Z" fill="none" stroke="#000000" stroke-linecap="round" stroke-linejoin="round" stroke-opacity="0.3882353" stroke-width="0.4"/>
      <path d="M-18.35 -31.85 Q-18.35 -33.45 -11.3 -33.4 -16.95 -30.65 -18.35 -31.85" fill="#fefdff" fill-rule="evenodd" stroke="none"/>
      <path d="M-18.35 -31.85 Q-18.35 -33.45 -11.3 -33.4 -16.95 -30.65 -18.35 -31.85 Z" fill="none" stroke="#000000" stroke-linecap="round" stroke-linejoin="round" stroke-opacity="0.3882353" stroke-width="0.4"/>
      <path d="M-3.85 -31.8 Q-5.3 -30.6 -10.95 -33.35 -3.9 -33.4 -3.85 -31.8" fill="#fefdff" fill-rule="evenodd" stroke="none"/>
      <path d="M-3.85 -31.8 Q-3.9 -33.4 -10.95 -33.35 -5.3 -30.6 -3.85 -31.8 Z" fill="none" stroke="#000000" stroke-linecap="round" stroke-linejoin="round" stroke-opacity="0.3882353" stroke-width="0.4"/>
      <path d="M-12.6 -34.45 L-12.45 -34.55 Q-11.8 -35.0 -10.95 -35.0 -10.05 -35.0 -9.4 -34.55 -8.8 -34.1 -8.8 -33.5 -8.8 -33.25 -8.95 -33.0 -11.4 -32.7 -12.6 -34.45" fill="#f4cb4f" fill-rule="evenodd" stroke="none"/>
      <path d="M-12.6 -34.45 Q-11.4 -32.7 -8.95 -33.0 L-9.4 -32.45 Q-10.05 -32.05 -10.95 -32.05 -11.8 -32.05 -12.45 -32.45 -13.05 -32.9 -13.05 -33.5 L-12.6 -34.45" fill="#d4ac34" fill-rule="evenodd" stroke="none"/>
      <path d="M-8.95 -33.0 Q-8.8 -33.25 -8.8 -33.5 -8.8 -34.1 -9.4 -34.55 -10.05 -35.0 -10.95 -35.0 -11.8 -35.0 -12.45 -34.55 L-12.6 -34.45 M-8.95 -33.0 L-9.4 -32.45 Q-10.05 -32.05 -10.95 -32.05 -11.8 -32.05 -12.45 -32.45 -13.05 -32.9 -13.05 -33.5 L-12.6 -34.45" fill="none" stroke="#000000" stroke-linecap="round" stroke-linejoin="round" stroke-opacity="0.3882353" stroke-width="0.4"/>
      <path d="M-10.35 -34.8 Q-10.8 -34.6 -11.1 -35.0 -11.4 -35.45 -10.95 -35.7 -10.45 -35.95 -10.15 -35.5 -9.85 -35.05 -10.35 -34.8 M-8.95 -33.75 Q-9.4 -34.3 -8.85 -34.7 -8.25 -35.1 -7.8 -34.55 -7.35 -34.05 -7.95 -33.6 -8.55 -33.15 -8.95 -33.75 M-12.6 -34.0 L-12.45 -34.6 Q-12.1 -34.9 -11.9 -34.5 -11.7 -34.1 -12.05 -33.9 -12.4 -33.7 -12.6 -34.0" fill="#f4cb4f" fill-rule="evenodd" stroke="none"/>
      <path d="M-10.1 -32.6 Q-10.25 -33.15 -9.8 -33.45 -9.3 -33.75 -9.1 -33.25 -8.85 -32.7 -9.4 -32.4 -9.9 -32.05 -10.1 -32.6 M-11.25 -31.15 Q-12.4 -30.6 -12.9 -31.45 -13.35 -32.35 -12.35 -32.9 -11.35 -33.45 -10.75 -32.6 -10.15 -31.75 -11.25 -31.15 M-13.9 -34.3 Q-13.5 -34.8 -13.05 -34.05 -12.6 -33.35 -13.2 -32.85 -13.75 -32.4 -14.05 -33.1 -14.35 -33.85 -13.9 -34.3" fill="#f4cb4f" fill-rule="evenodd" stroke="none"/>
      <path d="M17.15 -29.8 L17.85 -30.8 Q18.25 -31.6 18.0 -32.55 18.25 -31.6 17.85 -30.8 L17.15 -29.8 Q16.7 -30.05 16.3 -30.25 17.5 -31.65 17.45 -33.5 17.5 -31.65 16.3 -30.25 15.3 -30.85 15.0 -31.6 L14.75 -32.9 14.85 -33.95 17.1 -34.0 16.3 -33.65 Q15.45 -33.6 14.75 -32.9 15.45 -33.6 16.3 -33.65 L17.45 -33.5 18.0 -32.55 18.0 -33.65 Q19.55 -32.05 18.75 -30.55 L18.05 -29.45 17.15 -29.8 M15.0 -31.6 L16.4 -32.85 17.45 -33.5 16.4 -32.85 15.0 -31.6" fill="#a0c051" fill-rule="evenodd" stroke="none"/>
      <path d="M17.15 -29.8 L18.05 -29.45 Q17.0 -28.2 15.75 -28.9 16.5 -28.95 17.15 -29.8 16.5 -28.95 15.75 -28.9 L14.8 -29.05 16.3 -30.25 14.8 -29.05 14.4 -29.3 Q14.05 -30.0 14.8 -31.4 L15.0 -31.6 14.8 -31.4 Q14.05 -30.0 14.4 -29.3 L13.8 -29.9 Q12.2 -30.75 13.85 -33.15 14.25 -33.7 14.85 -33.95 L14.75 -32.9 14.2 -32.15 Q13.3 -30.85 13.8 -29.9 13.3 -30.85 14.2 -32.15 L14.75 -32.9 15.0 -31.6 Q15.3 -30.85 16.3 -30.25 16.7 -30.05 17.15 -29.8" fill="#7a9732" fill-rule="evenodd" stroke="none"/>
      <path d="M18.0 -32.55 Q18.25 -31.6 17.85 -30.8 L17.15 -29.8 Q16.5 -28.95 15.75 -28.9 17.0 -28.2 18.05 -29.45 L18.75 -30.55 Q19.55 -32.05 18.0 -33.65 L18.0 -32.55 17.45 -33.5 Q17.5 -31.65 16.3 -30.25 L14.8 -29.05 15.75 -28.9 M16.3 -33.65 L17.1 -34.0 14.85 -33.95 Q14.25 -33.7 13.85 -33.15 12.2 -30.75 13.8 -29.9 13.3 -30.85 14.2 -32.15 L14.75 -32.9 Q15.45 -33.6 16.3 -33.65 L17.45 -33.5 16.4 -32.85 15.0 -31.6 14.8 -31.4 Q14.05 -30.0 14.4 -29.3 L14.8 -29.05 M13.8 -29.9 L14.4 -29.3" fill="none" stroke="#000000" stroke-linecap="round" stroke-linejoin="round" stroke-opacity="0.3882353" stroke-width="0.2"/>
      <path d="M5.35 -43.0 Q-2.8 -40.25 -3.95 -42.4 -3.15 -44.85 5.35 -43.0" fill="#fefdff" fill-rule="evenodd" stroke="none"/>
      <path d="M5.35 -43.0 Q-2.8 -40.25 -3.95 -42.4 -3.15 -44.85 5.35 -43.0 Z" fill="none" stroke="#000000" stroke-linecap="round" stroke-linejoin="round" stroke-opacity="0.3882353" stroke-width="0.4"/>
      <path d="M15.4 -42.35 Q14.2 -40.2 6.05 -42.95 14.6 -44.85 15.4 -42.35" fill="#fefdff" fill-rule="evenodd" stroke="none"/>
      <path d="M15.4 -42.35 Q14.6 -44.85 6.05 -42.95 14.2 -40.2 15.4 -42.35 Z" fill="none" stroke="#000000" stroke-linecap="round" stroke-linejoin="round" stroke-opacity="0.3882353" stroke-width="0.4"/>
      <path d="M-1.95 -38.05 Q-2.55 -40.55 5.85 -43.05 0.2 -36.7 -1.95 -38.05" fill="#fefdff" fill-rule="evenodd" stroke="none"/>
      <path d="M-1.95 -38.05 Q-2.55 -40.55 5.85 -43.05 0.2 -36.7 -1.95 -38.05 Z" fill="none" stroke="#000000" stroke-linecap="round" stroke-linejoin="round" stroke-opacity="0.3882353" stroke-width="0.4"/>
      <path d="M13.65 -38.05 Q11.5 -36.7 5.85 -43.0 14.25 -40.55 13.65 -38.05" fill="#fefdff" fill-rule="evenodd" stroke="none"/>
      <path d="M13.65 -38.05 Q14.25 -40.55 5.85 -43.0 11.5 -36.7 13.65 -38.05 Z" fill="none" stroke="#000000" stroke-linecap="round" stroke-linejoin="round" stroke-opacity="0.3882353" stroke-width="0.4"/>
      <path d="M10.05 -35.0 Q7.5 -34.9 5.95 -43.0 11.85 -36.9 10.05 -35.0" fill="#fefdff" fill-rule="evenodd" stroke="none"/>
      <path d="M10.05 -35.0 Q11.85 -36.9 5.95 -43.0 7.5 -34.9 10.05 -35.0 Z" fill="none" stroke="#000000" stroke-linecap="round" stroke-linejoin="round" stroke-opacity="0.3882353" stroke-width="0.4"/>
      <path d="M5.7 -42.85 Q4.15 -34.7 1.6 -34.85 -0.2 -36.7 5.7 -42.85" fill="#fefdff" fill-rule="evenodd" stroke="none"/>
      <path d="M5.7 -42.85 Q4.15 -34.7 1.6 -34.85 -0.2 -36.7 5.7 -42.85 Z" fill="none" stroke="#000000" stroke-linecap="round" stroke-linejoin="round" stroke-opacity="0.3882353" stroke-width="0.4"/>
      <path d="M6.25 -33.95 Q3.7 -34.75 5.7 -42.9 8.55 -35.1 6.25 -33.95" fill="#fefdff" fill-rule="evenodd" stroke="none"/>
      <path d="M6.25 -33.95 Q3.7 -34.75 5.7 -42.9 8.55 -35.1 6.25 -33.95 Z" fill="none" stroke="#000000" stroke-linecap="round" stroke-linejoin="round" stroke-opacity="0.3882353" stroke-width="0.4"/>
      <path d="M4.1 -44.65 Q4.85 -42.5 8.45 -42.7 5.8 -40.35 2.95 -42.7 3.25 -44.1 4.1 -44.65" fill="#d4ac34" fill-rule="evenodd" stroke="none"/>
      <path d="M4.1 -44.65 Q5.0 -45.3 6.55 -45.0 8.3 -44.45 8.45 -42.7 4.85 -42.5 4.1 -44.65" fill="#f4cb4f" fill-rule="evenodd" stroke="none"/>
      <path d="M8.45 -42.7 Q8.3 -44.45 6.55 -45.0 5.0 -45.3 4.1 -44.65 M8.45 -42.7 Q5.8 -40.35 2.95 -42.7 3.25 -44.1 4.1 -44.65" fill="none" stroke="#000000" stroke-linecap="round" stroke-linejoin="round" stroke-opacity="0.3882353" stroke-width="0.4"/>
      <path d="M8.5 -44.95 Q8.95 -44.9 9.15 -44.25 9.55 -43.2 8.7 -42.95 7.85 -42.75 7.4 -43.4 7.2 -43.7 7.3 -44.0 6.95 -44.1 6.7 -44.55 6.2 -45.45 7.0 -46.15 7.8 -46.85 8.3 -45.85 L8.5 -44.95 M5.8 -45.25 Q6.1 -44.85 5.55 -44.6 5.0 -44.3 4.75 -44.7 4.55 -45.15 5.0 -45.4 L5.8 -45.25 M2.75 -43.2 Q2.35 -43.8 3.0 -44.3 3.65 -44.8 4.1 -44.15 4.55 -43.5 3.85 -43.05 3.2 -42.6 2.75 -43.2" fill="#f4cb4f" fill-rule="evenodd" stroke="none"/>
      <path d="M2.75 -21.1 Q-0.45 -8.9 -5.3 -2.2 L-7.0 -0.05 -8.25 -0.05 Q-8.8 -14.15 -23.1 -17.75 L-23.1 -18.95 Q-7.85 -14.95 -7.1 -1.6 -1.25 -8.65 1.3 -21.1 L2.75 -21.1 M-7.15 -1.55 L-7.1 -1.55 -7.1 -1.6 -7.15 -1.55" fill="url(#decoration245-gradient1)" fill-rule="evenodd" stroke="none"/>
      <path d="M2.75 -21.1 Q-0.45 -8.9 -5.3 -2.2 L-7.0 -0.05 -8.25 -0.05 Q-8.8 -14.15 -23.1 -17.75 L-23.1 -18.95 Q-7.85 -14.95 -7.1 -1.6 -1.25 -8.65 1.3 -21.1 L2.75 -21.1 M-7.1 -1.55 L-7.1 -1.6 -7.15 -1.55" fill="none" stroke="#000000" stroke-linecap="round" stroke-linejoin="round" stroke-opacity="0.4" stroke-width="0.2"/>
    </g>
    <linearGradient gradientTransform="matrix(-8.0E-4, -0.015, -0.0253, 0.0012, 2.2, -20.6)" gradientUnits="userSpaceOnUse" id="decoration245-gradient0" spreadMethod="pad" x1="-819.2" x2="819.2">
      <stop offset="0.0" stop-color="#7a9732"/>
      <stop offset="1.0" stop-color="#a0c051"/>
    </linearGradient>
    <linearGradient gradientTransform="matrix(0.0018, -0.0054, 0.0147, 0.0045, -3.65, -12.25)" gradientUnits="userSpaceOnUse" id="decoration245-gradient1" spreadMethod="pad" x1="-819.2" x2="819.2">
      <stop offset="0.0" stop-color="#7a9732"/>
      <stop offset="1.0" stop-color="#a0c051"/>
    </linearGradient>
    <g id="decoration245-shape2" transform="matrix(1.0, 0.0, 0.0, 1.0, 30.45, 28.3)">
      <path d="M-29.3 -12.5 Q-31.2 -13.65 -27.8 -19.9 -27.3 -12.95 -29.3 -12.5" fill="#fefdff" fill-rule="evenodd" stroke="none"/>
      <path d="M-29.3 -12.5 Q-31.2 -13.65 -27.8 -19.9 -27.3 -12.95 -29.3 -12.5 Z" fill="none" stroke="#000000" stroke-linecap="round" stroke-linejoin="round" stroke-opacity="0.3882353" stroke-width="0.4"/>
      <path d="M-25.2 -27.45 Q-23.6 -26.05 -27.65 -20.3 -27.4 -27.35 -25.2 -27.45" fill="#fefdff" fill-rule="evenodd" stroke="none"/>
      <path d="M-25.2 -27.45 Q-27.4 -27.35 -27.65 -20.3 -23.6 -26.05 -25.2 -27.45 Z" fill="none" stroke="#000000" stroke-linecap="round" stroke-linejoin="round" stroke-opacity="0.3882353" stroke-width="0.4"/>
      <path d="M-25.1 -13.1 Q-27.3 -13.2 -27.55 -20.25 -23.55 -14.5 -25.1 -13.1" fill="#fefdff" fill-rule="evenodd" stroke="none"/>
      <path d="M-25.1 -13.1 Q-27.3 -13.2 -27.55 -20.25 -23.55 -14.5 -25.1 -13.1 Z" fill="none" stroke="#000000" stroke-linecap="round" stroke-linejoin="round" stroke-opacity="0.3882353" stroke-width="0.4"/>
      <path d="M-21.85 -25.05 Q-21.25 -23.1 -27.6 -20.15 -23.8 -26.05 -21.85 -25.05" fill="#fefdff" fill-rule="evenodd" stroke="none"/>
      <path d="M-21.85 -25.05 Q-23.8 -26.05 -27.6 -20.15 -21.25 -23.1 -21.85 -25.05 Z" fill="none" stroke="#000000" stroke-linecap="round" stroke-linejoin="round" stroke-opacity="0.3882353" stroke-width="0.4"/>
      <path d="M-20.1 -21.75 Q-20.55 -19.75 -27.6 -20.25 -21.3 -23.55 -20.1 -21.75" fill="#fefdff" fill-rule="evenodd" stroke="none"/>
      <path d="M-20.1 -21.75 Q-21.3 -23.55 -27.6 -20.25 -20.55 -19.75 -20.1 -21.75 Z" fill="none" stroke="#000000" stroke-linecap="round" stroke-linejoin="round" stroke-opacity="0.3882353" stroke-width="0.4"/>
      <path d="M-21.9 -14.95 Q-23.8 -13.95 -27.6 -19.85 -21.25 -16.9 -21.9 -14.95" fill="#fefdff" fill-rule="evenodd" stroke="none"/>
      <path d="M-21.9 -14.95 Q-23.8 -13.95 -27.6 -19.85 -21.25 -16.9 -21.9 -14.95 Z" fill="none" stroke="#000000" stroke-linecap="round" stroke-linejoin="round" stroke-opacity="0.3882353" stroke-width="0.4"/>
      <path d="M-20.0 -18.35 Q-21.2 -16.55 -27.5 -19.85 -20.5 -20.35 -20.0 -18.35" fill="#fefdff" fill-rule="evenodd" stroke="none"/>
      <path d="M-20.0 -18.35 Q-21.2 -16.55 -27.5 -19.85 -20.5 -20.35 -20.0 -18.35 Z" fill="none" stroke="#000000" stroke-linecap="round" stroke-linejoin="round" stroke-opacity="0.3882353" stroke-width="0.4"/>
      <path d="M-29.35 -18.9 Q-27.4 -19.05 -26.8 -21.9 -25.45 -19.35 -28.0 -17.65 -29.1 -18.15 -29.35 -18.9" fill="#d4ac34" fill-rule="evenodd" stroke="none"/>
      <path d="M-26.8 -21.9 Q-27.4 -19.05 -29.35 -18.9 -29.7 -19.75 -29.1 -20.95 -28.3 -22.15 -26.8 -21.9" fill="#f4cb4f" fill-rule="evenodd" stroke="none"/>
      <path d="M-26.8 -21.9 Q-28.3 -22.15 -29.1 -20.95 -29.7 -19.75 -29.35 -18.9 -29.1 -18.15 -28.0 -17.65 -25.45 -19.35 -26.8 -21.9 Z" fill="none" stroke="#000000" stroke-linecap="round" stroke-linejoin="round" stroke-opacity="0.3882353" stroke-width="0.4"/>
      <path d="M-29.55 -18.4 Q-29.8 -18.75 -29.4 -18.9 L-28.75 -18.75 Q-28.55 -18.4 -28.9 -18.2 -29.3 -18.05 -29.55 -18.4 M-29.15 -19.7 Q-29.85 -19.25 -30.25 -20.0 -30.7 -20.7 -30.0 -21.25 -29.35 -21.75 -28.9 -20.95 -28.5 -20.15 -29.15 -19.7 M-27.2 -21.75 Q-27.6 -21.5 -27.85 -21.9 -28.05 -22.25 -27.7 -22.5 L-27.1 -22.4 Q-26.8 -22.0 -27.2 -21.75" fill="#f4cb4f" fill-rule="evenodd" stroke="none"/>
      <path d="M11.4 -23.95 Q11.5 -22.15 2.75 -21.95 9.45 -25.45 11.4 -23.95" fill="#fefdff" fill-rule="evenodd" stroke="none"/>
      <path d="M11.4 -23.95 Q9.45 -25.45 2.75 -21.95 11.5 -22.15 11.4 -23.95 Z" fill="none" stroke="#000000" stroke-linecap="round" stroke-linejoin="round" stroke-opacity="0.3882353" stroke-width="0.4"/>
      <path d="M-6.65 -23.95 Q-4.65 -25.4 2.0 -21.8 -6.8 -22.1 -6.65 -23.95" fill="#fefdff" fill-rule="evenodd" stroke="none"/>
      <path d="M-6.65 -23.95 Q-4.65 -25.4 2.0 -21.8 -6.8 -22.1 -6.65 -23.95 Z" fill="none" stroke="#000000" stroke-linecap="round" stroke-linejoin="round" stroke-opacity="0.3882353" stroke-width="0.4"/>
      <path d="M2.45 -28.1 Q5.35 -27.5 2.4 -22.2 -0.3 -27.5 2.45 -28.1" fill="#fefdff" fill-rule="evenodd" stroke="none"/>
      <path d="M2.45 -28.1 Q5.35 -27.5 2.4 -22.2 -0.3 -27.5 2.45 -28.1 Z" fill="none" stroke="#000000" stroke-linecap="round" stroke-linejoin="round" stroke-opacity="0.3882353" stroke-width="0.4"/>
      <path d="M2.75 -22.05 Q5.45 -16.75 2.7 -16.15 -0.2 -16.75 2.75 -22.05" fill="#fefdff" fill-rule="evenodd" stroke="none"/>
      <path d="M2.75 -22.05 Q5.45 -16.75 2.7 -16.15 -0.2 -16.75 2.75 -22.05 Z" fill="none" stroke="#000000" stroke-linecap="round" stroke-linejoin="round" stroke-opacity="0.3882353" stroke-width="0.4"/>
      <path d="M-3.3 -27.0 Q-0.35 -27.55 2.15 -22.2 -4.95 -25.5 -3.3 -27.0" fill="#fefdff" fill-rule="evenodd" stroke="none"/>
      <path d="M-3.3 -27.0 Q-0.35 -27.55 2.15 -22.2 -4.95 -25.5 -3.3 -27.0 Z" fill="none" stroke="#000000" stroke-linecap="round" stroke-linejoin="round" stroke-opacity="0.3882353" stroke-width="0.4"/>
      <path d="M8.0 -26.8 Q9.65 -25.3 2.55 -22.05 5.05 -27.35 8.0 -26.8" fill="#fefdff" fill-rule="evenodd" stroke="none"/>
      <path d="M8.0 -26.8 Q5.05 -27.35 2.55 -22.05 9.65 -25.3 8.0 -26.8 Z" fill="none" stroke="#000000" stroke-linecap="round" stroke-linejoin="round" stroke-opacity="0.3882353" stroke-width="0.4"/>
      <path d="M-3.25 -17.2 Q-4.85 -18.7 2.25 -21.95 -0.25 -16.65 -3.25 -17.2" fill="#fefdff" fill-rule="evenodd" stroke="none"/>
      <path d="M-3.25 -17.2 Q-0.25 -16.65 2.25 -21.95 -4.85 -18.7 -3.25 -17.2 Z" fill="none" stroke="#000000" stroke-linecap="round" stroke-linejoin="round" stroke-opacity="0.3882353" stroke-width="0.4"/>
      <path d="M8.1 -17.35 Q5.15 -16.8 2.65 -22.15 9.75 -18.85 8.1 -17.35" fill="#fefdff" fill-rule="evenodd" stroke="none"/>
      <path d="M8.1 -17.35 Q5.15 -16.8 2.65 -22.15 9.75 -18.85 8.1 -17.35 Z" fill="none" stroke="#000000" stroke-linecap="round" stroke-linejoin="round" stroke-opacity="0.3882353" stroke-width="0.4"/>
      <path d="M11.45 -20.05 Q9.65 -18.6 2.65 -21.95 11.4 -22.0 11.45 -20.05" fill="#fefdff" fill-rule="evenodd" stroke="none"/>
      <path d="M11.45 -20.05 Q11.4 -22.0 2.65 -21.95 9.65 -18.6 11.45 -20.05 Z" fill="none" stroke="#000000" stroke-linecap="round" stroke-linejoin="round" stroke-opacity="0.3882353" stroke-width="0.4"/>
      <path d="M-6.45 -19.95 Q-6.4 -21.9 2.3 -21.9 -4.65 -18.55 -6.45 -19.95" fill="#fefdff" fill-rule="evenodd" stroke="none"/>
      <path d="M-6.45 -19.95 Q-6.4 -21.9 2.3 -21.9 -4.65 -18.55 -6.45 -19.95 Z" fill="none" stroke="#000000" stroke-linecap="round" stroke-linejoin="round" stroke-opacity="0.3882353" stroke-width="0.4"/>
      <path d="M4.35 -23.2 Q4.95 -22.75 4.95 -22.1 4.95 -21.35 4.15 -20.85 3.35 -20.35 2.25 -20.35 1.15 -20.35 0.4 -20.85 L-0.2 -21.45 Q2.85 -21.1 4.35 -23.2" fill="#d4ac34" fill-rule="evenodd" stroke="none"/>
      <path d="M-0.2 -21.45 L-0.4 -22.1 Q-0.4 -22.85 0.4 -23.35 1.15 -23.85 2.25 -23.85 3.35 -23.85 4.15 -23.35 L4.35 -23.2 Q2.85 -21.1 -0.2 -21.45" fill="#f4cb4f" fill-rule="evenodd" stroke="none"/>
      <path d="M4.35 -23.2 Q4.95 -22.75 4.95 -22.1 4.95 -21.35 4.15 -20.85 3.35 -20.35 2.25 -20.35 1.15 -20.35 0.4 -20.85 L-0.2 -21.45 -0.4 -22.1 Q-0.4 -22.85 0.4 -23.35 1.15 -23.85 2.25 -23.85 3.35 -23.85 4.15 -23.35 L4.35 -23.2 Z" fill="none" stroke="#000000" stroke-linecap="round" stroke-linejoin="round" stroke-opacity="0.3882353" stroke-width="0.4"/>
      <path d="M4.0 -24.1 Q4.5 -23.4 3.6 -22.65 2.65 -21.95 2.0 -22.8 L1.85 -23.05 1.75 -23.0 Q1.1 -22.65 0.6 -23.4 0.1 -24.15 0.8 -24.7 1.5 -25.25 1.95 -24.35 L2.1 -24.05 2.4 -24.25 Q3.5 -24.85 4.0 -24.1 M0.45 -21.6 Q-0.35 -21.05 -1.05 -21.95 -1.8 -22.85 -0.75 -23.35 0.25 -23.8 0.8 -22.95 1.3 -22.1 0.45 -21.6" fill="#f4cb4f" fill-rule="evenodd" stroke="none"/>
      <path d="M0.9 -20.25 Q0.7 -20.75 1.2 -21.1 1.7 -21.45 2.0 -21.0 2.3 -20.5 1.7 -20.1 1.05 -19.75 0.9 -20.25 M5.75 -20.9 Q5.2 -20.55 4.9 -21.05 4.55 -21.6 5.1 -22.1 5.65 -22.55 6.0 -21.9 6.3 -21.25 5.75 -20.9 M3.5 -19.9 Q3.1 -19.7 2.95 -20.1 2.75 -20.5 3.1 -20.7 3.4 -20.9 3.65 -20.45 3.9 -20.05 3.5 -19.9" fill="#f4cb4f" fill-rule="evenodd" stroke="none"/>
    </g>
  </defs>
</svg>
