<?xml version="1.0" encoding="UTF-8" standalone="no"?>
<svg xmlns:xlink="http://www.w3.org/1999/xlink" height="39.5px" width="71.6px" xmlns="http://www.w3.org/2000/svg">
  <g transform="matrix(1.0, 0.0, 0.0, 1.0, 28.05, 38.75)">
    <use height="39.5" transform="matrix(1.0, 0.0, 0.0, 1.0, -28.05, -38.75)" width="71.6" xlink:href="#decoration248-shape0"/>
  </g>
  <defs>
    <g id="decoration248-shape0" transform="matrix(1.0, 0.0, 0.0, 1.0, 28.05, 38.75)">
      <path d="M-23.25 -19.3 L-13.95 -10.2 -13.95 -4.75 Q-20.9 -11.25 -27.65 -19.65 -27.15 -22.0 -23.25 -19.3" fill="url(#decoration248-gradient0)" fill-rule="evenodd" stroke="none"/>
      <path d="M-27.65 -19.65 Q-28.55 -23.05 -26.2 -24.4 -26.85 -22.1 -23.8 -19.85 L-23.25 -19.3 Q-27.15 -22.0 -27.65 -19.65" fill="#605a54" fill-rule="evenodd" stroke="none"/>
      <path d="M-27.65 -19.65 Q-28.55 -23.05 -26.2 -24.4 -26.85 -22.1 -23.8 -19.85 L-23.25 -19.3 -13.95 -10.2 -13.95 -4.75 Q-20.9 -11.25 -27.65 -19.65 Z" fill="none" stroke="#000000" stroke-linecap="round" stroke-linejoin="round" stroke-opacity="0.29803923" stroke-width="0.30000000000000004"/>
      <path d="M-9.75 -24.9 Q-17.7 -30.55 -24.45 -26.65 -26.2 -26.05 -27.9 -22.15 -27.85 -23.9 -26.2 -26.45 -20.65 -31.45 -9.75 -27.25 L-9.75 -24.9" fill="#c5c5c5" fill-rule="evenodd" stroke="none"/>
      <path d="M-9.75 -24.9 L-9.75 -22.5 Q-17.9 -26.35 -21.25 -26.5 -26.45 -26.0 -27.65 -20.6 -28.0 -21.3 -27.9 -22.15 -26.2 -26.05 -24.45 -26.65 -17.7 -30.55 -9.75 -24.9" fill="#605a54" fill-rule="evenodd" stroke="none"/>
      <path d="M-27.9 -22.15 Q-28.0 -21.3 -27.65 -20.6 -26.45 -26.0 -21.25 -26.5 -17.9 -26.35 -9.75 -22.5 L-9.75 -24.9 M-27.9 -22.15 Q-27.85 -23.9 -26.2 -26.45 -20.65 -31.45 -9.75 -27.25 L-9.75 -24.9" fill="none" stroke="#000000" stroke-linecap="round" stroke-linejoin="round" stroke-opacity="0.29803923" stroke-width="0.30000000000000004"/>
      <path d="M29.3 -27.05 Q18.85 -19.5 11.0 -10.85 L11.25 -12.95 11.7 -14.85 Q14.45 -15.2 28.35 -28.25 L29.3 -27.05" fill="#ffffff" fill-rule="evenodd" stroke="none"/>
      <path d="M11.0 -10.85 Q18.85 -19.5 29.3 -27.05 24.55 -20.4 12.0 -8.95 10.95 -9.45 11.0 -10.85 M28.35 -28.25 Q14.45 -15.2 11.7 -14.85 11.85 -15.85 12.75 -18.7 L28.1 -28.7 28.35 -28.25" fill="#c5c5c5" fill-rule="evenodd" stroke="none"/>
      <path d="M11.7 -14.85 L11.25 -12.95 11.0 -10.85 Q10.95 -9.45 12.0 -8.95 24.55 -20.4 29.3 -27.05 L30.55 -25.3 11.15 -4.55 Q7.7 -6.85 12.75 -18.7 11.85 -15.85 11.7 -14.85" fill="#605a54" fill-rule="evenodd" stroke="none"/>
      <path d="M29.3 -27.05 L28.35 -28.25 M29.3 -27.05 L30.55 -25.3 11.15 -4.55 Q7.7 -6.85 12.75 -18.7 L28.1 -28.7 28.35 -28.25" fill="none" stroke="#000000" stroke-linecap="round" stroke-linejoin="round" stroke-opacity="0.29803923" stroke-width="0.30000000000000004"/>
      <path d="M-11.1 -29.45 Q-10.35 -31.0 -8.95 -31.65 -0.4 -33.4 8.45 -31.65 10.1 -30.9 10.9 -28.95 L8.5 -28.3 -0.2 -27.95 -9.05 -28.5 Q-11.4 -28.85 -11.1 -29.4 L-11.1 -29.45" fill="#c5c5c5" fill-rule="evenodd" stroke="none"/>
      <path d="M-15.2 -6.05 L-11.95 -26.85 -11.75 -27.75 -11.35 -28.95 -11.1 -29.4 Q-11.4 -28.85 -9.05 -28.5 -5.0 -16.35 -9.2 -4.7 -12.1 -5.2 -15.2 -6.05" fill="#999999" fill-rule="evenodd" stroke="none"/>
      <path d="M14.8 -6.05 L14.65 -5.55 14.0 -3.8 Q13.4 -2.7 12.5 -1.95 -1.4 1.85 -13.25 -2.35 -13.9 -2.95 -14.35 -3.8 L-15.0 -5.55 -15.2 -6.05 Q-3.7 -0.4 9.65 -4.25 12.2 -5.0 14.8 -6.05" fill="#929292" fill-rule="evenodd" stroke="none"/>
      <path d="M10.9 -28.95 L11.5 -26.9 11.5 -26.85 14.8 -6.05 Q12.2 -5.0 9.65 -4.25 -3.7 -0.4 -15.2 -6.05 -12.1 -5.2 -9.2 -4.7 L-2.55 -4.05 Q5.1 -3.9 11.3 -6.5 12.1 -10.2 9.85 -23.0 L8.5 -28.3 10.9 -28.95 M12.5 -1.95 Q11.75 -1.4 10.85 -1.1 -0.65 2.35 -11.2 -1.1 -12.4 -1.55 -13.25 -2.35 -1.4 1.85 12.5 -1.95" fill="#605a54" fill-rule="evenodd" stroke="none"/>
      <path d="M8.5 -28.3 L9.85 -23.0 Q12.1 -10.2 11.3 -6.5 5.1 -3.9 -2.55 -4.05 -4.2 -8.3 -4.4 -17.05 -4.6 -25.8 -0.2 -27.95 L8.5 -28.3" fill="url(#decoration248-gradient1)" fill-rule="evenodd" stroke="none"/>
      <path d="M-2.55 -4.05 L-9.2 -4.7 Q-5.0 -16.35 -9.05 -28.5 L-0.2 -27.95 Q-4.6 -25.8 -4.4 -17.05 -4.2 -8.3 -2.55 -4.05" fill="#ffffff" fill-rule="evenodd" stroke="none"/>
      <path d="M-11.1 -29.45 Q-10.35 -31.0 -8.95 -31.65 -0.4 -33.4 8.45 -31.65 10.1 -30.9 10.9 -28.95 L11.5 -26.9 11.5 -26.85 14.8 -6.05 14.65 -5.55 14.0 -3.8 Q13.4 -2.7 12.5 -1.95 11.75 -1.4 10.85 -1.1 -0.65 2.35 -11.2 -1.1 -12.4 -1.55 -13.25 -2.35 -13.9 -2.95 -14.35 -3.8 L-15.0 -5.55 -15.2 -6.05 -11.95 -26.85 -11.75 -27.75 -11.35 -28.95 -11.1 -29.4 M-15.2 -6.05 Q-3.7 -0.4 9.65 -4.25 12.2 -5.0 14.8 -6.05" fill="none" stroke="#000000" stroke-linecap="round" stroke-linejoin="round" stroke-opacity="0.29803923" stroke-width="0.30000000000000004"/>
      <path d="M-11.1 -29.4 L-11.1 -29.45 M-0.2 -27.95 L8.5 -28.3 10.9 -28.95 M-9.05 -28.5 L-0.2 -27.95 M-11.1 -29.4 Q-11.4 -28.85 -9.05 -28.5" fill="none" stroke="#000000" stroke-linecap="round" stroke-linejoin="miter" stroke-miterlimit="5.0" stroke-opacity="0.4" stroke-width="0.30000000000000004"/>
      <path d="M0.65 -28.55 L-6.0 -28.75 Q-9.15 -29.0 -9.35 -30.1 -9.55 -31.25 -6.1 -31.55 L1.25 -31.75 0.65 -28.55" fill="#484643" fill-rule="evenodd" stroke="none"/>
      <path d="M1.25 -31.75 L6.5 -31.5 Q9.2 -31.3 9.05 -30.15 8.95 -29.0 6.25 -28.8 L0.65 -28.55 1.25 -31.75" fill="#929292" fill-rule="evenodd" stroke="none"/>
      <path d="M0.65 -28.55 L-6.0 -28.75 Q-9.15 -29.0 -9.35 -30.1 -9.55 -31.25 -6.1 -31.55 L1.25 -31.75 6.5 -31.5 Q9.2 -31.3 9.05 -30.15 8.95 -29.0 6.25 -28.8 L0.65 -28.55 1.25 -31.75" fill="none" stroke="#000000" stroke-linecap="round" stroke-linejoin="round" stroke-opacity="0.29803923" stroke-width="0.30000000000000004"/>
      <path d="M28.6 -26.45 L27.05 -28.3 29.5 -30.05 31.15 -28.4 29.5 -30.05 Q34.6 -34.05 36.85 -38.05 39.1 -37.35 40.65 -35.8 35.1 -33.9 31.15 -28.4 L28.6 -26.45" fill="#3f3e3b" fill-rule="evenodd" stroke="none"/>
      <path d="M41.85 -34.35 Q42.95 -32.55 43.4 -29.95 40.7 -27.0 32.85 -26.7 L30.2 -24.55 28.6 -26.45 31.15 -28.4 32.85 -26.7 31.15 -28.4 Q40.0 -29.05 41.85 -34.35" fill="#11100e" fill-rule="evenodd" stroke="none"/>
      <path d="M29.5 -30.05 Q30.0 -36.15 34.0 -38.6 L36.85 -38.05 Q34.6 -34.05 29.5 -30.05 M40.65 -35.8 L41.85 -34.35 Q40.0 -29.05 31.15 -28.4 35.1 -33.9 40.65 -35.8" fill="#2e2d2b" fill-rule="evenodd" stroke="none"/>
      <path d="M28.6 -26.45 L27.05 -28.3 29.5 -30.05 Q30.0 -36.15 34.0 -38.6 L36.85 -38.05 Q39.1 -37.35 40.65 -35.8 L41.85 -34.35 Q42.95 -32.55 43.4 -29.95 40.7 -27.0 32.85 -26.7 L30.2 -24.55 28.6 -26.45 M31.15 -28.4 L29.5 -30.05 M31.15 -28.4 L32.85 -26.7" fill="none" stroke="#000000" stroke-linecap="round" stroke-linejoin="round" stroke-opacity="0.29803923" stroke-width="0.30000000000000004"/>
    </g>
    <linearGradient gradientTransform="matrix(-0.0052, -0.008, 0.0062, -0.006, -20.85, -12.8)" gradientUnits="userSpaceOnUse" id="decoration248-gradient0" spreadMethod="pad" x1="-819.2" x2="819.2">
      <stop offset="0.0" stop-color="#929292"/>
      <stop offset="1.0" stop-color="#777777"/>
    </linearGradient>
    <linearGradient gradientTransform="matrix(-0.0072, 0.0, 0.0, -0.0115, 5.25, -13.85)" gradientUnits="userSpaceOnUse" id="decoration248-gradient1" spreadMethod="pad" x1="-819.2" x2="819.2">
      <stop offset="0.0" stop-color="#929292"/>
      <stop offset="1.0" stop-color="#777777"/>
    </linearGradient>
  </defs>
</svg>
