<?xml version="1.0" encoding="UTF-8" standalone="no"?>
<svg xmlns:ffdec="https://www.free-decompiler.com/flash" xmlns:xlink="http://www.w3.org/1999/xlink" ffdec:objectType="frame" height="60.15px" width="18.5px" xmlns="http://www.w3.org/2000/svg">
  <g transform="matrix(1.0, 0.0, 0.0, 1.0, 8.9, 58.5)">
    <use ffdec:characterId="983" height="60.15" transform="matrix(1.0, 0.0, 0.0, 1.0, -8.9, -58.5)" width="18.5" xlink:href="#decoration249-shape0"/>
  </g>
  <defs>
    <g id="decoration249-shape0" transform="matrix(1.0, 0.0, 0.0, 1.0, 8.9, 58.5)">
      <path d="M-6.55 -26.0 Q-6.3 -12.8 -0.85 -2.5 -1.5 -3.1 -1.95 -2.4 -5.8 -11.85 -7.15 -19.7 -7.35 -25.0 -6.55 -26.0" fill="#75912a" fill-rule="evenodd" stroke="none"/>
      <path d="M-0.85 -2.5 L0.5 -0.1 Q0.7 1.55 -0.55 0.9 L-1.95 -2.4 Q-1.5 -3.1 -0.85 -2.5 M-7.15 -19.7 Q-8.05 -24.9 -7.85 -29.4 -7.25 -30.2 -6.5 -29.4 L-6.55 -26.0 Q-7.35 -25.0 -7.15 -19.7" fill="#5f771f" fill-rule="evenodd" stroke="none"/>
      <path d="M-6.55 -26.0 Q-6.3 -12.8 -0.85 -2.5 L0.5 -0.1 Q0.7 1.55 -0.55 0.9 L-1.95 -2.4 Q-5.8 -11.85 -7.15 -19.7 -8.05 -24.9 -7.85 -29.4 -7.25 -30.2 -6.5 -29.4 L-6.55 -26.0 Z" fill="none" stroke="#000000" stroke-linecap="round" stroke-linejoin="round" stroke-opacity="0.4" stroke-width="0.30000000000000004"/>
      <path d="M-8.5 -30.7 L-8.35 -36.95 -8.75 -38.0 -8.05 -38.05 -7.95 -41.6 -4.85 -41.65 -5.0 -38.55 Q-6.85 -31.15 -8.5 -30.7" fill="#665540" fill-rule="evenodd" stroke="none"/>
      <path d="M-5.0 -38.55 L-5.35 -33.35 Q-4.9 -33.95 -4.6 -33.65 L-5.3 -32.4 -5.85 -28.3 Q-7.75 -26.8 -8.6 -29.0 L-8.5 -30.7 Q-6.85 -31.15 -5.0 -38.55" fill="#5b4135" fill-rule="evenodd" stroke="none"/>
      <path d="M-8.5 -30.7 L-8.35 -36.95 -8.75 -38.0 -8.05 -38.05 -7.95 -41.6 -4.85 -41.65 -5.0 -38.55 -5.35 -33.35 Q-4.9 -33.95 -4.6 -33.65 L-5.3 -32.4 -5.85 -28.3 Q-7.75 -26.8 -8.6 -29.0 L-8.5 -30.7 Z" fill="none" stroke="#000000" stroke-linecap="round" stroke-linejoin="round" stroke-opacity="0.4" stroke-width="0.30000000000000004"/>
      <path d="M-6.55 -41.55 L-6.95 -44.05 -6.0 -50.15 -5.95 -44.25 -6.55 -41.55" fill="#cbb79f" fill-rule="evenodd" stroke="none"/>
      <path d="M-6.55 -41.55 L-6.95 -44.05 -6.0 -50.15 -5.95 -44.25 -6.55 -41.55 Z" fill="none" stroke="#000000" stroke-linecap="round" stroke-linejoin="round" stroke-opacity="0.4" stroke-width="0.30000000000000004"/>
      <path d="M1.8 -31.7 L0.95 -34.9 Q1.3 -36.8 2.65 -35.7 L3.2 -31.55 Q2.4 -30.9 1.8 -31.7 M3.45 -10.15 Q2.7 -3.9 0.85 1.2 -0.2 2.0 -0.8 0.75 L0.45 -3.15 Q1.8 -4.0 3.45 -10.15" fill="#5f771f" fill-rule="evenodd" stroke="none"/>
      <path d="M0.45 -3.15 Q4.8 -18.3 1.8 -31.7 2.4 -30.9 3.2 -31.55 4.55 -19.55 3.45 -10.15 1.8 -4.0 0.45 -3.15" fill="#75912a" fill-rule="evenodd" stroke="none"/>
      <path d="M0.45 -3.15 Q4.8 -18.3 1.8 -31.7 L0.95 -34.9 Q1.3 -36.8 2.65 -35.7 L3.2 -31.55 Q4.55 -19.55 3.45 -10.15 2.7 -3.9 0.85 1.2 -0.2 2.0 -0.8 0.75 L0.45 -3.15 Z" fill="none" stroke="#000000" stroke-linecap="round" stroke-linejoin="round" stroke-opacity="0.4" stroke-width="0.30000000000000004"/>
      <path d="M0.25 -46.1 L2.0 -40.25 Q2.3 -41.1 2.75 -40.95 2.8 -40.1 2.45 -39.25 L3.55 -34.5 Q1.95 -31.95 -0.1 -33.95 L-0.7 -35.85 Q1.15 -37.1 0.25 -46.1" fill="#5b4135" fill-rule="evenodd" stroke="none"/>
      <path d="M-0.7 -35.85 L-3.15 -42.85 -4.1 -43.8 -3.3 -44.15 -4.7 -48.1 Q-3.65 -50.7 -0.95 -49.6 L0.25 -46.1 Q1.15 -37.1 -0.7 -35.85" fill="#665540" fill-rule="evenodd" stroke="none"/>
      <path d="M0.25 -46.1 L2.0 -40.25 Q2.3 -41.1 2.75 -40.95 2.8 -40.1 2.45 -39.25 L3.55 -34.5 Q1.95 -31.95 -0.1 -33.95 L-0.7 -35.85 -3.15 -42.85 -4.1 -43.8 -3.3 -44.15 -4.7 -48.1 Q-3.65 -50.7 -0.95 -49.6 L0.25 -46.1 Z" fill="none" stroke="#000000" stroke-linecap="round" stroke-linejoin="round" stroke-opacity="0.4" stroke-width="0.30000000000000004"/>
      <path d="M-5.95 -58.35 L-3.4 -51.95 -2.95 -48.65 -4.45 -51.25 -5.95 -58.35" fill="#cbb79f" fill-rule="evenodd" stroke="none"/>
      <path d="M-5.95 -58.35 L-3.4 -51.95 -2.95 -48.65 -4.45 -51.25 -5.95 -58.35 Z" fill="none" stroke="#000000" stroke-linecap="round" stroke-linejoin="round" stroke-opacity="0.4" stroke-width="0.30000000000000004"/>
      <path d="M7.75 -20.8 Q7.95 -26.5 7.1 -27.55 L7.05 -31.2 Q7.85 -32.1 8.5 -31.2 8.7 -26.4 7.75 -20.8 M0.95 -2.35 Q1.65 -2.95 2.15 -2.2 L0.65 1.3 Q-0.7 2.0 -0.5 0.25 L0.95 -2.35" fill="#5f771f" fill-rule="evenodd" stroke="none"/>
      <path d="M7.75 -20.8 Q6.25 -12.35 2.15 -2.2 1.65 -2.95 0.95 -2.35 6.8 -13.4 7.1 -27.55 7.95 -26.5 7.75 -20.8" fill="#75912a" fill-rule="evenodd" stroke="none"/>
      <path d="M2.15 -2.2 Q6.25 -12.35 7.75 -20.8 8.7 -26.4 8.5 -31.2 7.85 -32.1 7.05 -31.2 L7.1 -27.55 Q6.8 -13.4 0.95 -2.35 L-0.5 0.25 Q-0.7 2.0 0.65 1.3 L2.15 -2.2 Z" fill="none" stroke="#000000" stroke-linecap="round" stroke-linejoin="round" stroke-opacity="0.4" stroke-width="0.30000000000000004"/>
      <path d="M5.4 -41.05 L5.25 -44.4 Q7.05 -46.25 8.6 -44.35 L8.7 -40.5 9.45 -40.45 9.0 -39.35 9.2 -32.6 Q7.4 -33.1 5.4 -41.05" fill="#665540" fill-rule="evenodd" stroke="none"/>
      <path d="M5.4 -41.05 Q7.4 -33.1 9.2 -32.6 L9.3 -30.8 Q8.35 -28.45 6.35 -30.05 L5.75 -34.45 Q5.2 -35.1 5.0 -35.8 5.3 -36.1 5.8 -35.45 L5.4 -41.05" fill="#5b4135" fill-rule="evenodd" stroke="none"/>
      <path d="M9.2 -32.6 L9.0 -39.35 9.45 -40.45 8.7 -40.5 8.6 -44.35 Q7.05 -46.25 5.25 -44.4 L5.4 -41.05 5.8 -35.45 Q5.3 -36.1 5.0 -35.8 5.2 -35.1 5.75 -34.45 L6.35 -30.05 Q8.35 -28.45 9.3 -30.8 L9.2 -32.6 Z" fill="none" stroke="#000000" stroke-linecap="round" stroke-linejoin="round" stroke-opacity="0.4" stroke-width="0.30000000000000004"/>
      <path d="M7.1 -44.25 L6.45 -47.2 6.5 -53.5 7.5 -46.95 7.1 -44.25" fill="#cbb79f" fill-rule="evenodd" stroke="none"/>
      <path d="M7.1 -44.25 L7.5 -46.95 6.5 -53.5 6.45 -47.2 7.1 -44.25 Z" fill="none" stroke="#000000" stroke-linecap="round" stroke-linejoin="round" stroke-opacity="0.4" stroke-width="0.30000000000000004"/>
    </g>
  </defs>
</svg>
