<?xml version="1.0" encoding="UTF-8" standalone="no"?>
<svg xmlns:ffdec="https://www.free-decompiler.com/flash" xmlns:xlink="http://www.w3.org/1999/xlink" ffdec:objectType="frame" height="44.25px" width="44.25px" xmlns="http://www.w3.org/2000/svg">
  <g transform="matrix(1.0, 0.0, 0.0, 1.0, 23.4, 43.8)">
    <use ffdec:characterId="796" height="44.25" transform="matrix(1.0, 0.0, 0.0, 1.0, -23.4, -43.8)" width="44.25" xlink:href="#decoration25-shape0"/>
  </g>
  <defs>
    <g id="decoration25-shape0" transform="matrix(1.0, 0.0, 0.0, 1.0, 23.4, 43.8)">
      <path d="M20.8 -19.9 L20.8 -1.05 Q21.55 0.65 14.45 0.15 L-8.85 -24.55 16.45 -24.55 -21.05 -42.3 -20.1 -43.65 -17.5 -42.7 -18.0 -41.7 19.25 -24.55 Q21.0 -23.85 20.8 -19.9" fill="#000000" fill-opacity="0.3019608" fill-rule="evenodd" stroke="none"/>
      <path d="M16.55 -25.0 L14.75 -25.0 -20.65 -41.5 -20.5 -41.75 -20.0 -42.15 16.55 -25.0" fill="#6d6b6a" fill-rule="evenodd" stroke="none"/>
      <path d="M-20.65 -41.5 L-20.9 -41.2 -23.2 -42.25 -22.2 -43.6 -19.65 -42.6 -19.95 -42.2 -20.0 -42.15 -20.5 -41.75 -20.65 -41.5" fill="#312d2c" fill-rule="evenodd" stroke="none"/>
      <path d="M14.75 -25.0 L-20.65 -41.5 -20.9 -41.2 -23.2 -42.25 -22.2 -43.6 -19.65 -42.6 -19.95 -42.2 -20.0 -42.15 16.55 -25.0 M-20.0 -42.15 L-20.5 -41.75 -20.65 -41.5" fill="none" stroke="#000000" stroke-linecap="round" stroke-linejoin="round" stroke-opacity="0.32156864" stroke-width="0.4"/>
      <path d="M17.3 -17.35 L17.3 -22.7 4.65 -22.7 4.65 -17.35 17.3 -17.35 M2.45 -20.3 Q2.1 -21.35 1.25 -21.8 L-15.55 -21.8 Q-16.9 -21.15 -16.95 -18.95 L-16.95 -4.7 Q-16.75 -2.5 -15.55 -2.25 L-15.45 -2.25 1.25 -2.25 Q2.6 -2.65 2.65 -4.7 L2.65 -18.95 2.45 -20.3 M4.5 -12.7 Q5.5 -12.25 6.5 -13.2 L6.85 -14.35 Q6.95 -15.55 5.8 -15.85 4.8 -16.15 3.8 -15.25 3.15 -13.7 4.5 -12.7 M9.3 -9.7 L9.1 -9.5 8.3 -8.25 Q7.95 -7.55 7.95 -6.65 L7.95 -6.55 6.8 -6.55 7.95 -6.55 8.05 -5.65 8.55 -4.5 9.1 -3.75 9.4 -3.45 8.65 -2.9 9.4 -3.45 Q10.0 -2.95 10.75 -2.7 L12.0 -2.55 12.0 -1.55 12.0 -2.55 13.65 -2.85 14.5 -1.6 13.65 -2.85 14.75 -3.65 14.85 -3.75 15.7 -4.95 17.05 -4.25 15.7 -4.95 Q16.05 -5.7 16.05 -6.55 L16.05 -6.65 Q16.05 -7.6 15.7 -8.35 L15.2 -9.15 14.85 -9.5 Q14.25 -10.1 13.5 -10.4 L14.3 -11.8 13.5 -10.4 12.1 -10.65 12.0 -10.65 10.7 -10.45 9.7 -11.75 10.7 -10.45 9.3 -9.7 8.35 -10.45 9.3 -9.7 M6.25 -7.65 L6.35 -7.75 Q6.85 -8.2 6.9 -8.85 L6.9 -8.95 Q6.9 -9.7 6.35 -10.2 5.95 -10.6 5.3 -10.65 L5.2 -10.65 Q4.5 -10.65 3.95 -10.2 L3.8 -10.0 Q3.5 -9.55 3.5 -8.95 3.5 -8.25 3.95 -7.75 4.4 -7.3 5.0 -7.25 L5.2 -7.25 Q5.85 -7.25 6.25 -7.65 M6.9 -8.85 L8.3 -8.25 6.9 -8.85 M4.7 -0.8 Q5.4 -0.8 5.5 -1.55 5.65 -2.5 4.7 -2.45 3.8 -2.35 3.9 -1.55 4.0 -0.75 4.7 -0.8 M6.95 -3.75 L8.55 -4.5 6.95 -3.75 M17.4 -9.2 L15.7 -8.35 17.4 -9.2 M16.85 -6.55 L16.05 -6.55 16.85 -6.55 M15.9 -10.5 L14.85 -9.5 15.9 -10.5 M12.1 -11.9 L12.1 -10.65 12.1 -11.9 M15.6 -2.85 L14.75 -3.65 15.6 -2.85 M9.95 -1.3 L10.75 -2.7 9.95 -1.3 M19.35 -3.05 Q19.2 -0.3 16.6 0.2 L-16.1 0.2 Q-18.1 0.05 -18.8 -1.75 L-19.1 -2.95 -19.1 -21.35 Q-18.95 -24.15 -16.3 -25.0 L16.55 -25.0 Q19.2 -24.15 19.35 -21.35 L19.35 -3.05" fill="url(#decoration25-gradient0)" fill-rule="evenodd" stroke="none"/>
      <path d="M16.1 -18.05 L16.1 -22.2 5.75 -22.2 5.75 -18.05 16.1 -18.05 M17.3 -17.35 L4.65 -17.35 4.65 -22.7 17.3 -22.7 17.3 -17.35" fill="#272524" fill-rule="evenodd" stroke="none"/>
      <path d="M16.1 -18.05 L5.75 -18.05 5.75 -22.2 16.1 -22.2 16.1 -18.05 M8.3 -8.25 L9.1 -9.5 9.3 -9.7 10.7 -10.45 12.0 -10.65 12.1 -10.65 13.5 -10.4 Q14.25 -10.1 14.85 -9.5 L15.2 -9.15 15.7 -8.35 Q16.05 -7.6 16.05 -6.65 L16.05 -6.55 Q16.05 -5.7 15.7 -4.95 L14.85 -3.75 14.75 -3.65 13.65 -2.85 12.0 -2.55 10.75 -2.7 Q10.0 -2.95 9.4 -3.45 L9.1 -3.75 8.55 -4.5 8.05 -5.65 7.95 -6.55 7.95 -6.65 Q7.95 -7.55 8.3 -8.25 M5.3 -10.65 Q5.95 -10.6 6.35 -10.2 6.9 -9.7 6.9 -8.95 L6.9 -8.85 Q6.85 -8.2 6.35 -7.75 L6.25 -7.65 5.15 -8.7 5.3 -10.65 M5.0 -7.25 Q4.4 -7.3 3.95 -7.75 3.5 -8.25 3.5 -8.95 3.5 -9.55 3.8 -10.0 L5.15 -8.7 5.0 -7.25 M11.9 -9.75 Q10.65 -9.75 9.7 -8.9 L9.35 -8.45 Q8.25 -6.3 9.8 -4.75 10.6 -3.95 11.6 -3.6 13.2 -3.65 14.1 -4.55 L14.3 -4.75 Q15.0 -5.6 15.0 -6.75 L14.95 -7.4 14.1 -8.9 Q13.2 -9.75 11.9 -9.75" fill="#a2a8a7" fill-rule="evenodd" stroke="none"/>
      <path d="M2.45 -20.3 L2.65 -18.95 2.65 -4.7 Q2.6 -2.65 1.25 -2.25 L-15.45 -2.25 -15.55 -2.25 Q-16.75 -2.5 -16.95 -4.7 L-16.95 -18.95 Q-16.9 -21.15 -15.55 -21.8 L1.25 -21.8 Q2.1 -21.35 2.45 -20.3" fill="url(#decoration25-gradient1)" fill-rule="evenodd" stroke="none"/>
      <path d="M5.3 -10.65 L5.15 -8.7 6.25 -7.65 Q5.85 -7.25 5.2 -7.25 L5.0 -7.25 5.15 -8.7 3.8 -10.0 3.95 -10.2 Q4.5 -10.65 5.2 -10.65 L5.3 -10.65 M9.35 -8.45 L9.7 -8.9 Q10.65 -9.75 11.9 -9.75 L11.75 -6.65 9.35 -8.45 M14.3 -4.75 L14.1 -4.55 Q13.2 -3.65 11.6 -3.6 L11.75 -6.65 14.3 -4.75" fill="#c2c2c2" fill-rule="evenodd" stroke="none"/>
      <path d="M4.7 -0.8 Q4.0 -0.75 3.9 -1.55 3.8 -2.35 4.7 -2.45 5.65 -2.5 5.5 -1.55 5.4 -0.8 4.7 -0.8" fill="#aa4e20" fill-rule="evenodd" stroke="none"/>
      <path d="M11.9 -9.75 Q13.2 -9.75 14.1 -8.9 L14.95 -7.4 15.0 -6.75 Q15.0 -5.6 14.3 -4.75 L11.75 -6.65 11.6 -3.6 Q10.6 -3.95 9.8 -4.75 8.25 -6.3 9.35 -8.45 L11.75 -6.65 11.9 -9.75" fill="#979a99" fill-rule="evenodd" stroke="none"/>
      <path d="M17.3 -17.35 L4.65 -17.35 4.65 -22.7 17.3 -22.7 17.3 -17.35 M8.3 -8.25 L9.1 -9.5 9.3 -9.7 8.35 -10.45 M6.25 -7.65 L6.35 -7.75 Q6.85 -8.2 6.9 -8.85 L6.9 -8.95 Q6.9 -9.7 6.35 -10.2 5.95 -10.6 5.3 -10.65 L5.2 -10.65 Q4.5 -10.65 3.95 -10.2 L3.8 -10.0 Q3.5 -9.55 3.5 -8.95 3.5 -8.25 3.95 -7.75 4.4 -7.3 5.0 -7.25 L5.2 -7.25 Q5.85 -7.25 6.25 -7.65 M9.35 -8.45 L9.7 -8.9 Q10.65 -9.75 11.9 -9.75 13.2 -9.75 14.1 -8.9 L14.95 -7.4 15.0 -6.75 Q15.0 -5.6 14.3 -4.75 L14.1 -4.55 Q13.2 -3.65 11.6 -3.6 10.6 -3.95 9.8 -4.75 8.25 -6.3 9.35 -8.45 M7.95 -6.55 L7.95 -6.65 Q7.95 -7.55 8.3 -8.25 M7.95 -6.55 L6.8 -6.55 M9.4 -3.45 L9.1 -3.75 8.55 -4.5 8.05 -5.65 7.95 -6.55 M9.4 -3.45 L8.65 -2.9 M14.85 -9.5 L15.2 -9.15 15.7 -8.35 Q16.05 -7.6 16.05 -6.65 L16.05 -6.55 16.85 -6.55 M13.5 -10.4 Q14.25 -10.1 14.85 -9.5 L15.9 -10.5 M10.7 -10.45 L12.0 -10.65 12.1 -10.65 12.1 -11.9 M12.1 -10.65 L13.5 -10.4 M15.7 -4.95 L14.85 -3.75 14.75 -3.65 15.6 -2.85 M12.0 -2.55 L12.0 -1.55 M12.0 -2.55 L10.75 -2.7 Q10.0 -2.95 9.4 -3.45 M13.65 -2.85 L12.0 -2.55 M14.75 -3.65 L13.65 -2.85 M16.05 -6.55 Q16.05 -5.7 15.7 -4.95 M9.3 -9.7 L10.7 -10.45" fill="none" stroke="#000000" stroke-linecap="round" stroke-linejoin="round" stroke-opacity="0.32156864" stroke-width="0.2"/>
      <path d="M16.1 -18.05 L5.75 -18.05 5.75 -22.2 16.1 -22.2 16.1 -18.05" fill="none" stroke="#e5dcdc" stroke-linecap="round" stroke-linejoin="round" stroke-opacity="0.32156864" stroke-width="0.2"/>
      <path d="M8.3 -8.25 L6.9 -8.85 M8.55 -4.5 L6.95 -3.75 M15.7 -8.35 L17.4 -9.2 M13.5 -10.4 L14.3 -11.8 M10.75 -2.7 L9.95 -1.3 M13.65 -2.85 L14.5 -1.6 M15.7 -4.95 L17.05 -4.25 M10.7 -10.45 L9.7 -11.75" fill="none" stroke="#000000" stroke-linecap="round" stroke-linejoin="round" stroke-opacity="0.18039216" stroke-width="0.2"/>
      <path d="M4.7 -0.8 Q5.4 -0.8 5.5 -1.55 5.65 -2.5 4.7 -2.45 3.8 -2.35 3.9 -1.55 4.0 -0.75 4.7 -0.8" fill="none" stroke="#000000" stroke-linecap="round" stroke-linejoin="round" stroke-opacity="0.32156864" stroke-width="0.4"/>
      <path d="M19.35 -3.05 Q19.2 -0.3 16.6 0.2 L-16.1 0.2 Q-18.1 0.05 -18.8 -1.75 L-19.1 -2.95 -19.1 -21.35 Q-18.95 -24.15 -16.3 -25.0 L16.55 -25.0 Q19.2 -24.15 19.35 -21.35 L19.35 -3.05 Z" fill="none" stroke="#000000" stroke-linecap="round" stroke-linejoin="round" stroke-opacity="0.34901962" stroke-width="0.5"/>
      <path d="M2.65 -18.95 L2.45 -20.3 Q2.1 -21.35 1.25 -21.8 L1.25 -18.95 2.65 -18.95 2.65 -16.1 2.65 -13.4 2.65 -10.65 2.65 -7.7 2.65 -4.7 Q2.6 -2.65 1.25 -2.25 L-0.8 -2.25 -2.85 -2.25 -4.6 -2.25 -6.7 -2.25 -9.15 -2.25 -11.35 -2.25 -13.2 -2.25 -15.55 -2.25 Q-16.75 -2.5 -16.95 -4.7 L-16.95 -7.7 -16.95 -10.65 -16.95 -13.4 -16.95 -16.1 -16.95 -18.95 Q-16.9 -21.15 -15.55 -21.8 L-13.2 -21.8 -11.35 -21.8 -9.15 -21.8 -6.7 -21.8 -4.6 -21.8 -2.85 -21.8 -0.8 -21.8 1.25 -21.8 M2.65 -16.1 L1.25 -16.1 1.25 -13.4 2.65 -13.4 M1.25 -18.95 L1.25 -16.1 -0.8 -16.1 -0.8 -13.4 1.25 -13.4 1.25 -10.65 2.65 -10.65 M2.65 -7.7 L1.25 -7.7 1.25 -4.7 2.65 -4.7 M1.25 -10.65 L1.25 -7.7 -0.8 -7.7 -0.8 -4.7 1.25 -4.7 1.25 -2.25 M-0.8 -21.8 L-0.8 -18.95 1.25 -18.95 M-4.6 -21.8 L-4.6 -18.95 -2.85 -18.95 -2.85 -21.8 M-2.85 -18.95 L-0.8 -18.95 -0.8 -16.1 -2.85 -16.1 -2.85 -13.4 -0.8 -13.4 -0.8 -10.65 1.25 -10.65 M-9.15 -21.8 L-9.15 -18.95 -6.7 -18.95 -6.7 -21.8 M-9.15 -18.95 L-9.15 -16.1 -6.7 -16.1 -6.7 -18.95 -4.6 -18.95 -4.6 -16.1 -2.85 -16.1 -2.85 -18.95 M-9.15 -16.1 L-9.15 -13.4 -6.7 -13.4 -6.7 -16.1 -4.6 -16.1 -4.6 -13.4 -2.85 -13.4 -2.85 -10.65 -0.8 -10.65 -0.8 -7.7 -2.85 -7.7 -2.85 -4.7 -0.8 -4.7 -0.8 -2.25 M-6.7 -13.4 L-4.6 -13.4 -4.6 -10.65 -2.85 -10.65 -2.85 -7.7 -4.6 -7.7 -4.6 -4.7 -2.85 -4.7 -2.85 -2.25 M-11.35 -21.8 L-11.35 -18.95 -9.15 -18.95 M-13.2 -21.8 L-13.2 -18.95 -11.35 -18.95 -11.35 -16.1 -9.15 -16.1 M-16.95 -18.95 L-15.55 -18.95 -15.55 -21.8 M-16.95 -13.4 L-15.55 -13.4 -15.55 -16.1 -16.95 -16.1 M-13.2 -13.4 L-11.35 -13.4 -11.35 -16.1 -13.2 -16.1 -13.2 -13.4 -13.2 -10.65 -11.35 -10.65 -11.35 -13.4 -9.15 -13.4 -9.15 -10.65 -6.7 -10.65 -6.7 -13.4 M-13.2 -18.95 L-15.55 -18.95 -15.55 -16.1 -13.2 -16.1 -13.2 -18.95 M-15.55 -13.4 L-13.2 -13.4 M-13.2 -10.65 L-13.2 -7.7 -11.35 -7.7 -11.35 -10.65 -9.15 -10.65 -9.15 -7.7 -6.7 -7.7 -6.7 -10.65 -4.6 -10.65 -4.6 -7.7 -6.7 -7.7 -6.7 -4.7 -4.6 -4.7 -4.6 -2.25 M-16.95 -7.7 L-15.55 -7.7 -15.55 -10.65 -16.95 -10.65 M-13.2 -2.25 L-13.2 -4.7 -15.55 -4.7 -15.55 -2.25 M-16.95 -4.7 L-15.55 -4.7 -15.55 -7.7 -13.2 -7.7 -13.2 -4.7 -11.35 -4.7 -11.35 -7.7 -9.15 -7.7 -9.15 -4.7 -6.7 -4.7 -6.7 -2.25 M-9.15 -2.25 L-9.15 -4.7 -11.35 -4.7 -11.35 -2.25 M-15.55 -13.4 L-15.55 -10.65 -13.2 -10.65" fill="none" stroke="#000000" stroke-linecap="round" stroke-linejoin="round" stroke-opacity="0.32156864" stroke-width="0.4"/>
      <path d="M6.3 -20.75 L6.85 -20.75 7.65 -20.75 9.0 -20.75 9.55 -20.15 10.15 -20.75 10.15 -19.35 M6.85 -20.75 L6.85 -19.35 M7.65 -19.35 L7.65 -20.05 7.65 -20.75 M9.0 -19.35 L9.0 -20.75 M7.65 -20.05 L8.2 -20.05" fill="none" stroke="#000000" stroke-linecap="round" stroke-linejoin="round" stroke-opacity="0.36078432" stroke-width="0.4"/>
      <path d="M15.6 -20.7 L15.6 -19.25 M11.35 -19.95 L11.35 -20.75 12.75 -20.75 12.75 -19.95 12.75 -19.25 11.35 -19.25 11.35 -19.95 12.75 -19.95 M13.15 -20.75 L14.5 -20.75 14.5 -19.25 13.15 -19.25 13.15 -20.75 Z" fill="none" stroke="#000000" stroke-linecap="round" stroke-linejoin="round" stroke-opacity="0.36078432" stroke-width="0.30000000000000004"/>
      <path d="M4.5 -12.7 Q3.15 -13.7 3.8 -15.25 L5.15 -14.25 4.5 -12.7 M5.8 -15.85 Q6.95 -15.55 6.85 -14.35 L6.5 -13.2 5.15 -14.25 5.8 -15.85" fill="#a2a8a7" fill-rule="evenodd" stroke="none"/>
      <path d="M3.8 -15.25 Q4.8 -16.15 5.8 -15.85 L5.15 -14.25 6.5 -13.2 Q5.5 -12.25 4.5 -12.7 L5.15 -14.25 3.8 -15.25" fill="#c2c2c2" fill-rule="evenodd" stroke="none"/>
      <path d="M4.5 -12.7 Q3.15 -13.7 3.8 -15.25 4.8 -16.15 5.8 -15.85 6.95 -15.55 6.85 -14.35 L6.5 -13.2 Q5.5 -12.25 4.5 -12.7 Z" fill="none" stroke="#000000" stroke-linecap="round" stroke-linejoin="round" stroke-opacity="0.32156864" stroke-width="0.2"/>
      <path d="M10.3 -16.0 Q11.5 -16.0 11.7 -14.8 L11.7 -13.6 10.1 -14.25 10.3 -16.0 M9.9 -12.6 Q8.3 -13.2 8.5 -14.85 L10.1 -14.25 9.9 -12.6" fill="#a2a8a7" fill-rule="evenodd" stroke="none"/>
      <path d="M10.3 -16.0 L10.1 -14.25 11.7 -13.6 Q10.95 -12.4 9.9 -12.6 L10.1 -14.25 8.5 -14.85 Q9.3 -16.05 10.3 -16.0" fill="#c2c2c2" fill-rule="evenodd" stroke="none"/>
      <path d="M11.7 -13.6 L11.7 -14.8 Q11.5 -16.0 10.3 -16.0 9.3 -16.05 8.5 -14.85 8.3 -13.2 9.9 -12.6 10.95 -12.4 11.7 -13.6 Z" fill="none" stroke="#000000" stroke-linecap="round" stroke-linejoin="round" stroke-opacity="0.32156864" stroke-width="0.2"/>
      <path d="M14.2 -14.0 Q14.25 -15.35 15.15 -15.8 L15.85 -14.25 14.2 -14.0 M17.55 -14.45 Q17.5 -13.1 16.5 -12.7 L15.85 -14.25 17.55 -14.45" fill="#c2c2c2" fill-rule="evenodd" stroke="none"/>
      <path d="M15.15 -15.8 Q16.2 -16.4 17.0 -15.5 L17.55 -14.45 15.85 -14.25 16.5 -12.7 Q14.85 -12.45 14.2 -14.0 L15.85 -14.25 15.15 -15.8" fill="#a2a8a7" fill-rule="evenodd" stroke="none"/>
      <path d="M14.2 -14.0 Q14.25 -15.35 15.15 -15.8 16.2 -16.4 17.0 -15.5 L17.55 -14.45 Q17.5 -13.1 16.5 -12.7 14.85 -12.45 14.2 -14.0 Z" fill="none" stroke="#000000" stroke-linecap="round" stroke-linejoin="round" stroke-opacity="0.32156864" stroke-width="0.2"/>
      <path d="M-2.65 -19.95 L-2.65 -17.9 -11.35 -17.9 -11.35 -19.95 -2.65 -19.95" fill="#bfbdbc" fill-rule="evenodd" stroke="none"/>
      <path d="M-2.65 -19.95 L-2.65 -17.9 -11.35 -17.9 -11.35 -19.95 -2.65 -19.95 Z" fill="none" stroke="#000000" stroke-linecap="round" stroke-linejoin="round" stroke-opacity="0.32156864" stroke-width="0.4"/>
    </g>
    <linearGradient gradientTransform="matrix(0.0, 0.0204, -0.0154, 0.0, 3.4, -10.65)" gradientUnits="userSpaceOnUse" id="decoration25-gradient0" spreadMethod="pad" x1="-819.2" x2="819.2">
      <stop offset="0.0" stop-color="#807e7d"/>
      <stop offset="0.39215686274509803" stop-color="#a1a1a1"/>
      <stop offset="0.5058823529411764" stop-color="#565555"/>
      <stop offset="0.9568627450980393" stop-color="#959494"/>
    </linearGradient>
    <radialGradient cx="0" cy="0" gradientTransform="matrix(0.0181, 0.0, 0.0, 0.0181, -13.2, -20.4)" gradientUnits="userSpaceOnUse" id="decoration25-gradient1" r="819.2" spreadMethod="pad">
      <stop offset="0.0392156862745098" stop-color="#48423f"/>
      <stop offset="1.0" stop-color="#272524"/>
    </radialGradient>
  </defs>
</svg>
