<?xml version="1.0" encoding="UTF-8" standalone="no"?>
<svg xmlns:xlink="http://www.w3.org/1999/xlink" height="60.15px" width="10.2px" xmlns="http://www.w3.org/2000/svg">
  <g transform="matrix(1.0, 0.0, 0.0, 1.0, 6.25, 58.9)">
    <use data-characterId="883" height="60.15" transform="matrix(1.0, 0.0, 0.0, 1.0, -6.25, -58.9)" width="10.2" xlink:href="#decoration250-shape0"/>
  </g>
  <defs>
    <g id="decoration250-shape0" transform="matrix(1.0, 0.0, 0.0, 1.0, 6.25, 58.9)">
      <path d="M1.65 -32.1 L0.8 -35.3 Q1.15 -37.2 2.5 -36.1 L3.05 -31.95 Q2.25 -31.3 1.65 -32.1 M3.3 -10.55 Q2.55 -4.3 0.7 0.8 -0.35 1.6 -0.95 0.35 L0.3 -3.55 Q1.65 -4.4 3.3 -10.55" fill="#5f771f" fill-rule="evenodd" stroke="none"/>
      <path d="M0.3 -3.55 Q4.65 -18.7 1.65 -32.1 2.25 -31.3 3.05 -31.95 4.4 -19.95 3.3 -10.55 1.65 -4.4 0.3 -3.55" fill="#75912a" fill-rule="evenodd" stroke="none"/>
      <path d="M0.3 -3.55 Q4.65 -18.7 1.65 -32.1 L0.8 -35.3 Q1.15 -37.2 2.5 -36.1 L3.05 -31.95 Q4.4 -19.95 3.3 -10.55 2.55 -4.3 0.7 0.8 -0.35 1.6 -0.95 0.35 L0.3 -3.55 Z" fill="none" stroke="#000000" stroke-linecap="round" stroke-linejoin="round" stroke-opacity="0.4" stroke-width="0.30000000000000004"/>
      <path d="M0.1 -46.5 L1.85 -40.65 Q2.15 -41.5 2.6 -41.35 2.65 -40.5 2.3 -39.65 L3.4 -34.9 Q1.8 -32.35 -0.25 -34.35 L-0.85 -36.25 Q1.0 -37.5 0.1 -46.5" fill="#5b4135" fill-rule="evenodd" stroke="none"/>
      <path d="M-0.85 -36.25 L-3.3 -43.25 -4.25 -44.2 -3.45 -44.55 -4.85 -48.5 Q-3.8 -51.1 -1.1 -50.0 L0.1 -46.5 Q1.0 -37.5 -0.85 -36.25" fill="#665540" fill-rule="evenodd" stroke="none"/>
      <path d="M0.1 -46.5 L1.85 -40.65 Q2.15 -41.5 2.6 -41.35 2.65 -40.5 2.3 -39.65 L3.4 -34.9 Q1.8 -32.35 -0.25 -34.35 L-0.85 -36.25 -3.3 -43.25 -4.25 -44.2 -3.45 -44.55 -4.85 -48.5 Q-3.8 -51.1 -1.1 -50.0 L0.1 -46.5 Z" fill="none" stroke="#000000" stroke-linecap="round" stroke-linejoin="round" stroke-opacity="0.4" stroke-width="0.30000000000000004"/>
      <path d="M-3.55 -52.35 L-3.1 -49.05 -4.6 -51.65 -6.1 -58.75 -3.55 -52.35" fill="#cbb79f" fill-rule="evenodd" stroke="none"/>
      <path d="M-3.55 -52.35 L-3.1 -49.05 -4.6 -51.65 -6.1 -58.75 -3.55 -52.35 Z" fill="none" stroke="#000000" stroke-linecap="round" stroke-linejoin="round" stroke-opacity="0.4" stroke-width="0.30000000000000004"/>
    </g>
  </defs>
</svg>
