<?xml version="1.0" encoding="UTF-8" standalone="no"?>
<svg xmlns:ffdec="https://www.free-decompiler.com/flash" xmlns:xlink="http://www.w3.org/1999/xlink" ffdec:objectType="frame" height="76.2px" width="59.2px" xmlns="http://www.w3.org/2000/svg">
  <g transform="matrix(1.0, 0.0, 0.0, 1.0, 8.85, 74.6)">
    <use ffdec:characterId="979" height="76.2" transform="matrix(1.0, 0.0, 0.0, 1.0, -8.85, -74.6)" width="59.2" xlink:href="#decoration251-shape0"/>
  </g>
  <defs>
    <g id="decoration251-shape0" transform="matrix(1.0, 0.0, 0.0, 1.0, 8.85, 74.6)">
      <path d="M2.85 -68.75 L3.4 -69.4 Q7.4 -67.4 4.85 -60.6 2.25 -58.05 0.3 -55.0 -1.0 -59.55 2.85 -68.75 M-1.45 -9.1 Q0.0 -4.45 1.95 0.6 0.6 2.2 -1.1 0.75 -7.1 -14.9 -8.35 -28.15 -6.25 -13.1 -1.45 -9.1" fill="#3b8137" fill-rule="evenodd" stroke="none"/>
      <path d="M0.3 -55.0 Q-10.6 -38.5 -1.45 -9.1 -6.25 -13.1 -8.35 -28.15 -10.75 -52.5 2.85 -68.75 -1.0 -59.55 0.3 -55.0" fill="#669933" fill-rule="evenodd" stroke="none"/>
      <path d="M2.85 -68.75 L3.4 -69.4 Q7.4 -67.4 4.85 -60.6 2.25 -58.05 0.3 -55.0 -10.6 -38.5 -1.45 -9.1 0.0 -4.45 1.95 0.6 0.6 2.2 -1.1 0.75 -7.1 -14.9 -8.35 -28.15 -10.75 -52.5 2.85 -68.75 Z" fill="none" stroke="#000000" stroke-linecap="round" stroke-linejoin="round" stroke-opacity="0.4" stroke-width="0.30000000000000004"/>
      <path d="M16.0 -47.3 Q4.85 -52.5 2.25 -59.75 1.4 -64.45 2.15 -67.5 4.3 -56.85 16.95 -49.0 16.35 -48.3 16.0 -47.3 M35.15 -42.55 L28.65 -43.1 28.5 -43.9 35.25 -43.15 35.15 -42.55 M20.95 -63.4 L21.05 -63.2 21.05 -63.15 21.05 -63.2 23.75 -59.3 23.55 -58.3 23.75 -59.3 Q24.85 -57.85 25.7 -57.1 27.95 -55.1 31.05 -55.0 26.6 -54.35 23.55 -58.3 L22.7 -59.55 22.65 -59.65 22.55 -59.8 22.45 -60.0 21.05 -63.15 20.95 -63.4" fill="#3b8137" fill-rule="evenodd" stroke="none"/>
      <path d="M2.15 -67.5 Q2.9 -70.65 5.3 -72.1 9.25 -72.05 15.55 -69.35 16.35 -72.55 18.1 -74.4 30.85 -74.85 37.3 -71.2 40.5 -68.45 39.15 -62.75 38.55 -60.4 39.8 -57.7 42.9 -52.35 50.2 -53.0 48.15 -48.15 44.65 -45.55 41.9 -46.9 38.15 -46.15 35.6 -45.15 35.25 -43.15 L28.5 -43.9 Q27.9 -46.35 25.9 -45.85 25.4 -51.0 22.65 -51.25 18.8 -51.3 16.95 -49.0 4.3 -56.85 2.15 -67.5 M20.95 -63.4 L20.85 -63.5 18.9 -66.6 Q17.25 -68.65 15.55 -69.35 17.25 -68.65 18.9 -66.6 L20.85 -63.5 20.95 -63.4 21.05 -63.15 22.45 -60.0 22.55 -59.8 22.65 -59.65 22.7 -59.55 23.55 -58.3 Q26.6 -54.35 31.05 -55.0 27.95 -55.1 25.7 -57.1 24.85 -57.85 23.75 -59.3 L21.05 -63.2 20.95 -63.4 M30.2 -69.3 Q23.2 -70.2 21.05 -63.2 23.2 -70.2 30.2 -69.3 M26.8 -61.15 Q24.35 -60.7 23.75 -59.3 24.35 -60.7 26.8 -61.15 M41.65 -51.7 Q36.35 -55.15 31.05 -55.0 36.35 -55.15 41.65 -51.7 M22.55 -59.8 Q18.05 -66.8 11.25 -62.65 18.05 -66.8 22.55 -59.8" fill="url(#decoration251-gradient0)" fill-rule="evenodd" stroke="none"/>
      <path d="M42.3 -44.15 Q39.2 -42.7 35.15 -42.55 L35.25 -43.15 Q38.8 -43.2 42.3 -44.15" fill="#75912a" fill-rule="evenodd" stroke="none"/>
      <path d="M44.65 -45.55 L42.3 -44.15 Q38.8 -43.2 35.25 -43.15 35.6 -45.15 38.15 -46.15 41.9 -46.9 44.65 -45.55" fill="#9fa82b" fill-rule="evenodd" stroke="none"/>
      <path d="M23.55 -45.55 Q22.25 -50.0 20.1 -47.2 L19.85 -47.35 16.95 -49.0 Q18.8 -51.3 22.65 -51.25 25.4 -51.0 25.9 -45.85 27.9 -46.35 28.5 -43.9 26.05 -44.5 23.55 -45.55" fill="#848f21" fill-rule="evenodd" stroke="none"/>
      <path d="M28.65 -43.1 L25.85 -43.7 23.6 -45.4 23.55 -45.55 Q26.05 -44.5 28.5 -43.9 L28.65 -43.1 M20.1 -47.2 L19.25 -45.9 16.0 -47.3 Q16.35 -48.3 16.95 -49.0 L19.85 -47.35 20.1 -47.2" fill="#5d801f" fill-rule="evenodd" stroke="none"/>
      <path d="M16.0 -47.3 Q4.85 -52.5 2.25 -59.75 1.4 -64.45 2.15 -67.5 2.9 -70.65 5.3 -72.1 9.25 -72.05 15.55 -69.35 16.35 -72.55 18.1 -74.4 30.85 -74.85 37.3 -71.2 40.5 -68.45 39.15 -62.75 38.55 -60.4 39.8 -57.7 42.9 -52.35 50.2 -53.0 48.15 -48.15 44.65 -45.55 L42.3 -44.15 Q39.2 -42.7 35.15 -42.55 L28.65 -43.1 25.85 -43.7 23.6 -45.4 23.55 -45.55 Q22.25 -50.0 20.1 -47.2 L19.25 -45.9 16.0 -47.3" fill="none" stroke="#000000" stroke-linecap="round" stroke-linejoin="round" stroke-opacity="0.4" stroke-width="0.30000000000000004"/>
      <path d="M15.55 -69.35 Q17.25 -68.65 18.9 -66.6 L20.85 -63.5 20.95 -63.4 21.05 -63.15 21.05 -63.2 Q23.2 -70.2 30.2 -69.3 M23.75 -59.3 Q24.35 -60.7 26.8 -61.15 M21.05 -63.15 L22.45 -60.0 22.55 -59.8 22.65 -59.65 22.7 -59.55 23.55 -58.3 23.75 -59.3 M31.05 -55.0 Q36.35 -55.15 41.65 -51.7 M23.55 -58.3 Q26.6 -54.35 31.05 -55.0 M11.25 -62.65 Q18.05 -66.8 22.55 -59.8" fill="none" stroke="#000000" stroke-linecap="round" stroke-linejoin="round" stroke-opacity="0.4" stroke-width="0.2"/>
      <path d="M46.3 -53.5 Q47.55 -51.85 44.85 -51.25 42.1 -50.65 38.85 -53.35 42.1 -55.55 43.55 -55.35 45.0 -55.15 46.3 -53.5" fill="#cee0e0" fill-rule="evenodd" stroke="none"/>
      <path d="M46.3 -53.5 Q47.55 -51.85 44.85 -51.25 42.1 -50.65 38.85 -53.35 42.1 -55.55 43.55 -55.35 45.0 -55.15 46.3 -53.5 Z" fill="none" stroke="#000000" stroke-linecap="round" stroke-linejoin="round" stroke-opacity="0.4" stroke-width="0.30000000000000004"/>
      <path d="M39.6 -50.9 Q40.3 -50.9 41.0 -50.15 L41.85 -48.5 Q42.05 -47.6 41.2 -48.0 L39.6 -48.4 Q38.9 -48.4 38.4 -48.8 37.9 -49.15 37.9 -49.65 37.9 -50.15 38.4 -50.55 38.9 -50.9 39.6 -50.9" fill="#cee0e0" fill-rule="evenodd" stroke="none"/>
      <path d="M39.6 -50.9 Q40.3 -50.9 41.0 -50.15 L41.85 -48.5 Q42.05 -47.6 41.2 -48.0 L39.6 -48.4 Q38.9 -48.4 38.4 -48.8 37.9 -49.15 37.9 -49.65 37.9 -50.15 38.4 -50.55 38.9 -50.9 39.6 -50.9 Z" fill="none" stroke="#000000" stroke-linecap="round" stroke-linejoin="round" stroke-opacity="0.4" stroke-width="0.30000000000000004"/>
      <path d="M44.7 -53.5 L44.85 -53.15 44.85 -53.0 44.85 -52.75 44.8 -52.45 44.7 -52.3 44.65 -52.15 Q44.0 -51.45 42.95 -51.75 L42.2 -51.9 41.2 -52.2 Q40.8 -52.45 40.7 -52.9 L40.7 -53.1 40.8 -53.5 41.05 -53.9 41.55 -54.15 41.8 -54.2 42.45 -54.15 43.05 -54.05 44.2 -54.0 44.7 -53.5" fill="#8ba9bc" fill-rule="evenodd" stroke="none"/>
      <path d="M39.8 -49.75 L39.85 -49.3 Q39.7 -48.65 38.95 -48.75 L38.4 -48.95 37.9 -49.55 37.9 -49.8 37.9 -49.9 37.9 -49.95 37.95 -50.05 38.0 -50.2 38.15 -50.4 38.5 -50.55 38.65 -50.55 39.5 -50.2 39.8 -49.75" fill="#8ba9bc" fill-rule="evenodd" stroke="none"/>
      <path d="M44.0 -54.6 Q44.5 -54.7 44.85 -54.4 L45.55 -53.75 45.55 -53.7 45.6 -53.65 45.6 -53.55 45.65 -53.5 45.65 -53.4 45.7 -53.3 45.7 -53.15 45.75 -53.05 45.7 -53.0 45.7 -52.75 45.65 -52.75 45.65 -52.65 45.6 -52.6 45.6 -52.55 Q45.1 -52.05 44.4 -52.25 L43.8 -52.4 Q43.0 -52.6 42.9 -53.45 L42.9 -53.75 42.95 -54.0 43.45 -54.5 44.0 -54.6" fill="#ffffff" fill-rule="evenodd" stroke="none"/>
      <path d="M40.0 -50.3 L40.45 -50.15 40.8 -49.8 40.85 -49.75 40.85 -49.7 40.9 -49.65 40.9 -49.55 40.95 -49.5 40.95 -49.05 40.9 -49.05 40.9 -48.95 40.85 -48.9 40.85 -48.85 39.65 -48.75 Q39.35 -49.0 39.25 -49.4 L39.25 -49.7 39.35 -49.9 Q39.5 -50.2 39.8 -50.3 L40.0 -50.3" fill="#ffffff" fill-rule="evenodd" stroke="none"/>
      <path d="M15.25 -69.45 Q16.5 -67.8 13.8 -67.2 11.05 -66.6 7.8 -70.85 L12.5 -71.3 Q13.95 -71.1 15.25 -69.45" fill="#cee0e0" fill-rule="evenodd" stroke="none"/>
      <path d="M15.25 -69.45 Q16.5 -67.8 13.8 -67.2 11.05 -66.6 7.8 -70.85 L12.5 -71.3 Q13.95 -71.1 15.25 -69.45 Z" fill="none" stroke="#000000" stroke-linecap="round" stroke-linejoin="round" stroke-opacity="0.4" stroke-width="0.30000000000000004"/>
      <path d="M10.75 -70.15 L11.4 -70.1 12.0 -70.0 13.15 -69.95 13.65 -69.45 13.8 -69.1 13.8 -68.95 13.8 -68.7 13.75 -68.4 13.65 -68.25 13.6 -68.1 Q12.95 -67.4 11.9 -67.7 11.55 -67.8 10.75 -68.35 9.95 -68.9 9.9 -69.6 9.8 -70.35 10.25 -70.25 L10.75 -70.15" fill="#8ba9bc" fill-rule="evenodd" stroke="none"/>
      <path d="M12.95 -70.55 L13.8 -70.35 14.5 -69.7 14.5 -69.65 14.55 -69.6 14.55 -69.5 14.6 -69.45 14.6 -69.35 14.65 -69.25 14.65 -69.1 14.7 -69.0 14.65 -68.95 14.65 -68.7 14.6 -68.7 14.6 -68.6 14.55 -68.55 14.55 -68.5 Q14.05 -68.0 13.35 -68.2 L12.75 -68.35 Q11.95 -68.55 11.85 -69.4 L11.85 -69.7 11.9 -69.95 12.4 -70.45 12.95 -70.55" fill="#ffffff" fill-rule="evenodd" stroke="none"/>
    </g>
    <radialGradient cx="0" cy="0" gradientTransform="matrix(0.0317, 0.0, 0.0, 0.0317, 42.7, -52.2)" gradientUnits="userSpaceOnUse" id="decoration251-gradient0" r="819.2" spreadMethod="pad">
      <stop offset="0.0" stop-color="#88c44c"/>
      <stop offset="1.0" stop-color="#669933"/>
    </radialGradient>
  </defs>
</svg>
