<?xml version="1.0" encoding="UTF-8" standalone="no"?>
<svg xmlns:xlink="http://www.w3.org/1999/xlink" height="21.35px" width="43.95px" xmlns="http://www.w3.org/2000/svg">
  <g transform="matrix(1.0, 0.0, 0.0, 1.0, 21.2, 21.0)">
    <use height="21.35" transform="matrix(1.0, 0.0, 0.0, 1.0, -21.2, -21.0)" width="43.95" xlink:href="#decoration252-shape0"/>
  </g>
  <defs>
    <g id="decoration252-shape0" transform="matrix(1.0, 0.0, 0.0, 1.0, 21.2, 21.0)">
      <path d="M-20.6 -1.9 L-17.9 -6.7 -16.75 -8.4 Q-17.3 -10.6 -16.95 -11.75 -14.5 -13.5 -12.6 -13.95 L-12.7 -16.75 -2.1 -20.5 1.15 -17.2 -1.65 -9.3 -2.9 -8.8 -10.4 -8.25 Q-16.5 -4.15 -20.6 -1.9" fill="#8f948e" fill-rule="evenodd" stroke="none"/>
      <path d="M-2.9 -8.8 L-1.65 -9.3 12.0 -8.75 Q17.85 -13.0 18.5 -14.9 L21.6 -11.65 22.6 -1.15 Q15.15 1.35 7.7 -0.7 L6.95 -3.85 Q2.05 -6.3 -2.9 -8.8" fill="#6c736a" fill-rule="evenodd" stroke="none"/>
      <path d="M-1.65 -9.3 L1.15 -17.2 Q12.7 -15.3 18.5 -14.9 17.85 -13.0 12.0 -8.75 L-1.65 -9.3" fill="#a8aea6" fill-rule="evenodd" stroke="none"/>
      <path d="M-20.6 -1.9 Q-16.5 -4.15 -10.4 -8.25 L-2.9 -8.8 Q2.05 -6.3 6.95 -3.85 L7.7 -0.7 -15.7 0.1 -20.6 -1.9" fill="#616b5e" fill-rule="evenodd" stroke="none"/>
      <path d="M1.15 -17.2 L-2.1 -20.5 -12.7 -16.75 -12.6 -13.95 Q-14.5 -13.5 -16.95 -11.75 -17.3 -10.6 -16.75 -8.4 L-17.9 -6.7 -20.6 -1.9 M1.15 -17.2 Q12.7 -15.3 18.5 -14.9 L21.6 -11.65 22.6 -1.15 Q15.15 1.35 7.7 -0.7 L-15.7 0.1 -20.6 -1.9" fill="none" stroke="#000000" stroke-linecap="round" stroke-linejoin="round" stroke-opacity="0.4" stroke-width="0.30000000000000004"/>
      <path d="M-20.6 -1.9 Q-16.5 -4.15 -10.4 -8.25 L-2.9 -8.8 -1.65 -9.3 1.15 -17.2 M18.5 -14.9 Q17.85 -13.0 12.0 -8.75 L-1.65 -9.3 M-2.9 -8.8 Q2.05 -6.3 6.95 -3.85 L7.7 -0.7" fill="none" stroke="#000000" stroke-linecap="round" stroke-linejoin="round" stroke-opacity="0.4" stroke-width="0.1"/>
      <path d="M-19.45 -5.3 L-18.6 -7.0 Q-19.75 -7.05 -19.75 -8.1 -17.6 -8.4 -17.25 -9.0 L-18.0 -12.6 Q-16.5 -13.35 -15.9 -14.95 L-15.55 -13.95 Q-14.85 -15.1 -13.4 -14.35 -13.6 -15.75 -13.0 -17.75 -12.8 -18.35 -12.05 -18.5 L-11.65 -17.6 -6.55 -18.45 -2.15 -16.8 0.4 -19.6 Q1.5 -18.8 1.9 -17.65 L5.35 -18.05 5.95 -17.0 6.75 -17.65 7.2 -16.5 10.6 -16.4 10.75 -15.6 Q3.8 -15.9 2.35 -14.35 1.2 -15.7 0.6 -15.25 0.6 -13.9 -0.6 -12.85 L-4.3 -15.8 -5.65 -13.5 -6.35 -14.05 Q-7.1 -14.7 -9.1 -10.7 L-11.3 -11.0 Q-11.2 -12.2 -11.8 -12.5 L-12.4 -10.55 Q-12.7 -10.35 -14.0 -11.35 -14.55 -10.5 -14.2 -9.55 L-19.45 -5.3" fill="#59723a" fill-rule="evenodd" stroke="none"/>
      <path d="M-12.05 -18.5 L-11.1 -18.6 -10.4 -19.9 -10.0 -18.9 -2.15 -20.85 Q-0.6 -20.35 0.4 -19.6 L-2.15 -16.8 -6.55 -18.45 -11.65 -17.6 -12.05 -18.5" fill="#6a723a" fill-rule="evenodd" stroke="none"/>
      <path d="M10.6 -16.4 Q11.1 -16.35 12.15 -18.2 12.5 -17.8 11.95 -16.3 L16.9 -15.2 Q16.55 -14.5 16.9 -12.65 L13.5 -12.5 Q13.5 -11.3 13.95 -10.5 14.4 -9.7 11.0 -11.15 10.7 -9.55 9.8 -9.1 L7.45 -9.55 Q7.2 -9.55 7.1 -8.2 L-1.6 -9.35 Q-3.65 -8.4 -4.75 -8.25 -9.55 -4.5 -12.5 -4.85 L-12.7 -5.5 Q-20.65 -0.4 -21.05 -2.4 L-19.45 -5.3 -14.2 -9.55 Q-14.55 -10.5 -14.0 -11.35 -12.7 -10.35 -12.4 -10.55 L-11.8 -12.5 Q-11.2 -12.2 -11.3 -11.0 L-9.1 -10.7 Q-7.1 -14.7 -6.35 -14.05 L-5.65 -13.5 -4.3 -15.8 -0.6 -12.85 Q0.6 -13.9 0.6 -15.25 1.2 -15.7 2.35 -14.35 3.8 -15.9 10.75 -15.6 L10.6 -16.4" fill="#3c652d" fill-rule="evenodd" stroke="none"/>
      <path d="M-19.45 -5.3 L-18.6 -7.0 Q-19.75 -7.05 -19.75 -8.1 -17.6 -8.4 -17.25 -9.0 L-18.0 -12.6 Q-16.5 -13.35 -15.9 -14.95 L-15.55 -13.95 Q-14.85 -15.1 -13.4 -14.35 -13.6 -15.75 -13.0 -17.75 -12.8 -18.35 -12.05 -18.5 L-11.1 -18.6 -10.4 -19.9 -10.0 -18.9 -2.15 -20.85 Q-0.6 -20.35 0.4 -19.6 1.5 -18.8 1.9 -17.65 L5.35 -18.05 5.95 -17.0 6.75 -17.65 7.2 -16.5 10.6 -16.4 Q11.1 -16.35 12.15 -18.2 12.5 -17.8 11.95 -16.3 L16.9 -15.2 Q16.55 -14.5 16.9 -12.65 L13.5 -12.5 Q13.5 -11.3 13.95 -10.5 14.4 -9.7 11.0 -11.15 10.7 -9.55 9.8 -9.1 L7.45 -9.55 Q7.2 -9.55 7.1 -8.2 L-1.6 -9.35 Q-3.65 -8.4 -4.75 -8.25 -9.55 -4.5 -12.5 -4.85 L-12.7 -5.5 Q-20.65 -0.4 -21.05 -2.4 L-19.45 -5.3 Z" fill="none" stroke="#000000" stroke-linecap="round" stroke-linejoin="round" stroke-opacity="0.4" stroke-width="0.30000000000000004"/>
      <path d="M-14.1 -6.75 Q-13.0 -10.25 -14.4 -11.85 -12.5 -10.25 -10.05 -9.6 -11.05 -11.15 -10.05 -12.05 -9.35 -10.8 -8.1 -10.8" fill="none" stroke="#000000" stroke-linecap="round" stroke-linejoin="round" stroke-opacity="0.4" stroke-width="0.30000000000000004"/>
      <path d="M-8.9 -14.55 Q-7.55 -15.85 -7.4 -17.8 L-5.6 -16.45 -5.2 -18.1 Q-4.2 -17.15 -3.75 -17.7" fill="none" stroke="#000000" stroke-linecap="round" stroke-linejoin="round" stroke-opacity="0.4" stroke-width="0.30000000000000004"/>
      <path d="M1.85 -11.65 Q0.65 -12.4 0.95 -15.1 1.9 -12.65 4.15 -13.0 3.8 -14.0 4.5 -14.75 4.55 -13.4 6.2 -14.25" fill="none" stroke="#000000" stroke-linecap="round" stroke-linejoin="round" stroke-opacity="0.4" stroke-width="0.30000000000000004"/>
    </g>
  </defs>
</svg>
