<?xml version="1.0" encoding="UTF-8" standalone="no"?>
<svg xmlns:ffdec="https://www.free-decompiler.com/flash" xmlns:xlink="http://www.w3.org/1999/xlink" ffdec:objectType="frame" height="20.35px" width="45.0px" xmlns="http://www.w3.org/2000/svg">
  <g transform="matrix(1.0, 0.0, 0.0, 1.0, 22.9, 19.8)">
    <use ffdec:characterId="975" height="20.35" transform="matrix(1.0, 0.0, 0.0, 1.0, -22.9, -19.8)" width="45.0" xlink:href="#decoration253-shape0"/>
  </g>
  <defs>
    <g id="decoration253-shape0" transform="matrix(1.0, 0.0, 0.0, 1.0, 22.9, 19.8)">
      <path d="M13.1 -13.7 Q11.5 -14.55 11.3 -14.75 11.5 -14.55 13.1 -13.7 M9.85 -8.6 L-2.4 -11.55 -0.7 -16.85 6.45 -16.65 16.35 -14.75 Q15.7 -12.85 9.85 -8.6" fill="#a8aea6" fill-rule="evenodd" stroke="none"/>
      <path d="M-5.05 -8.65 L1.1 -5.45 5.55 -0.55 -9.35 0.3 -7.55 -0.95 -8.6 -2.25 -8.7 -2.25 -8.3 -2.35 -7.9 -2.55 -8.3 -2.35 -8.7 -2.25 -8.6 -2.25 -7.55 -0.95 -9.35 0.3 -9.55 0.3 -17.85 0.25 -22.75 -1.75 Q-18.65 -4.0 -12.55 -8.1 L-5.05 -8.65 M2.6 -2.15 L1.3 -3.25 2.6 -2.15 M-13.75 -1.1 L-13.9 -1.35 Q-14.05 -1.55 -14.25 -1.55 -14.65 -1.55 -14.7 -1.05 -14.65 -1.55 -14.25 -1.55 -14.05 -1.55 -13.9 -1.35 L-13.75 -1.1 M-16.8 -1.15 L-16.35 -2.65 -16.8 -1.15 M-17.4 -2.25 L-17.0 -3.0 -16.45 -3.8 -17.0 -3.0 -17.4 -2.25 M-19.05 -2.0 L-19.15 -2.75 Q-19.9 -2.75 -20.0 -2.05 -19.9 -2.75 -19.15 -2.75 L-19.05 -2.0 M-2.4 -1.55 L-3.0 -1.9 -2.9 -1.4 -3.0 -1.9 -2.4 -1.55 M-3.3 -1.15 L-3.65 -1.4 -4.25 -1.4 -4.1 -0.8 -4.25 -1.4 -3.65 -1.4 -3.3 -1.15 M-4.5 -3.65 L-4.5 -4.0 -4.15 -4.0 -4.5 -4.0 -4.5 -3.65 M-2.35 -3.35 L-2.55 -3.8 -2.5 -4.15 Q-2.15 -4.15 -1.9 -3.95 L-1.4 -3.4 -1.9 -3.95 Q-2.15 -4.15 -2.5 -4.15 L-2.55 -3.8 -2.35 -3.35" fill="#616b5e" fill-rule="evenodd" stroke="none"/>
      <path d="M1.1 -5.45 L9.85 -8.6 13.55 -7.5 13.9 -5.0 12.75 -2.9 10.9 -2.9 8.45 0.1 5.55 -0.55 1.1 -5.45" fill="#61695e" fill-rule="evenodd" stroke="none"/>
      <path d="M9.85 -8.6 L1.1 -5.45 -5.05 -8.65 -2.4 -11.55 9.85 -8.6 Q15.7 -12.85 16.35 -14.75 L19.45 -11.5 21.95 -8.35 13.9 -5.0 13.55 -7.5 9.85 -8.6" fill="#6c736a" fill-rule="evenodd" stroke="none"/>
      <path d="M8.45 0.1 L10.9 -2.9 12.75 -2.9 13.9 -5.0 21.95 -8.35 20.45 -1.0 Q14.45 1.0 8.45 0.1 M18.8 -2.4 Q17.7 -4.95 17.7 -5.35 17.7 -4.95 18.8 -2.4 M15.65 -1.3 Q15.65 -1.8 16.0 -2.05 L16.3 -1.6 16.5 -1.0 16.3 -1.6 16.0 -2.05 Q15.65 -1.8 15.65 -1.3 M14.0 -1.05 Q13.95 -1.55 14.35 -1.65 13.95 -1.55 14.0 -1.05 M12.15 -0.8 L12.0 -1.2 11.65 -1.5 Q11.05 -1.5 10.55 -0.55 11.05 -1.5 11.65 -1.5 L12.0 -1.2 12.15 -0.8 M18.05 -2.75 L17.7 -3.45 18.05 -2.75" fill="#525b50" fill-rule="evenodd" stroke="none"/>
      <path d="M-2.4 -11.55 L-5.05 -8.65 -12.55 -8.1 -19.1 -11.6 Q-16.65 -13.35 -14.75 -13.8 L-11.6 -15.6 -14.85 -16.6 Q-10.45 -18.75 -5.4 -19.65 L-0.7 -16.85 -2.4 -11.55 M-6.6 -13.85 Q-7.2 -13.45 -7.55 -13.35 -7.2 -13.45 -6.6 -13.85 M-6.1 -15.05 L-7.85 -14.05 -10.05 -12.65 -7.85 -14.05 -6.1 -15.05 M-22.75 -1.75 L-20.05 -6.55 -18.9 -8.25 -12.55 -8.1 Q-18.65 -4.0 -22.75 -1.75" fill="#8f948e" fill-rule="evenodd" stroke="none"/>
      <path d="M-14.85 -16.6 L-11.6 -15.6 -14.75 -13.8 -14.85 -16.6 M-19.1 -11.6 L-12.55 -8.1 -18.9 -8.25 Q-19.45 -10.45 -19.1 -11.6" fill="#868a86" fill-rule="evenodd" stroke="none"/>
      <path d="M11.3 -14.75 Q11.5 -14.55 13.1 -13.7 M1.1 -5.45 L9.85 -8.6 M10.55 -0.55 Q11.05 -1.5 11.65 -1.5 L12.0 -1.2 12.15 -0.8 M14.35 -1.65 Q13.95 -1.55 14.0 -1.05 M16.5 -1.0 L16.3 -1.6 16.0 -2.05 Q15.65 -1.8 15.65 -1.3 M17.7 -5.35 Q17.7 -4.95 18.8 -2.4 M-7.55 -13.35 Q-7.2 -13.45 -6.6 -13.85 M-10.05 -12.65 L-7.85 -14.05 -6.1 -15.05 M-20.0 -2.05 Q-19.9 -2.75 -19.15 -2.75 L-19.05 -2.0 M-16.45 -3.8 L-17.0 -3.0 -17.4 -2.25 M-16.35 -2.65 L-16.8 -1.15 M-14.7 -1.05 Q-14.65 -1.55 -14.25 -1.55 -14.05 -1.55 -13.9 -1.35 L-13.75 -1.1 M-1.4 -3.4 L-1.9 -3.95 Q-2.15 -4.15 -2.5 -4.15 L-2.55 -3.8 -2.35 -3.35 M-4.15 -4.0 L-4.5 -4.0 -4.5 -3.65 M-4.1 -0.8 L-4.25 -1.4 -3.65 -1.4 -3.3 -1.15 M-2.9 -1.4 L-3.0 -1.9 -2.4 -1.55" fill="none" stroke="#000000" stroke-linecap="round" stroke-linejoin="round" stroke-opacity="0.101960786" stroke-width="0.1"/>
      <path d="M9.85 -8.6 L-2.4 -11.55 -0.7 -16.85 M1.1 -5.45 L5.55 -0.55 M-12.55 -8.1 L-5.05 -8.65 M-22.75 -1.75 Q-18.65 -4.0 -12.55 -8.1" fill="none" stroke="#000000" stroke-linecap="round" stroke-linejoin="round" stroke-opacity="0.4" stroke-width="0.1"/>
      <path d="M8.45 0.1 L10.9 -2.9 12.75 -2.9 13.9 -5.0 13.55 -7.5 9.85 -8.6 M1.3 -3.25 L2.6 -2.15 M17.7 -3.45 L18.05 -2.75 M21.95 -8.35 L13.9 -5.0 M-14.85 -16.6 L-11.6 -15.6 -14.75 -13.8 M-19.1 -11.6 L-12.55 -8.1 -18.9 -8.25 M-9.35 0.3 L-7.55 -0.95 -8.6 -2.25 -8.7 -2.25 -8.3 -2.35 -7.9 -2.55 M-9.55 0.3 L-9.35 0.3" fill="none" stroke="#000000" stroke-linecap="round" stroke-linejoin="round" stroke-opacity="0.16862746" stroke-width="0.1"/>
      <path d="M5.55 -0.55 L8.45 0.1 Q14.45 1.0 20.45 -1.0 L21.95 -8.35 19.45 -11.5 16.35 -14.75 6.45 -16.65 -0.7 -16.85 -5.4 -19.65 Q-10.45 -18.75 -14.85 -16.6 L-14.75 -13.8 Q-16.65 -13.35 -19.1 -11.6 -19.45 -10.45 -18.9 -8.25 L-20.05 -6.55 -22.75 -1.75 -17.85 0.25 -9.55 0.3 M-9.35 0.3 L5.55 -0.55" fill="none" stroke="#000000" stroke-linecap="round" stroke-linejoin="round" stroke-opacity="0.4" stroke-width="0.30000000000000004"/>
    </g>
  </defs>
</svg>
