<?xml version="1.0" encoding="UTF-8" standalone="no"?>
<svg xmlns:xlink="http://www.w3.org/1999/xlink" height="9.9px" width="19.1px" xmlns="http://www.w3.org/2000/svg">
  <g transform="matrix(1.0, 0.0, 0.0, 1.0, 10.3, 9.5)">
    <use height="9.9" transform="matrix(1.0, 0.0, 0.0, 1.0, -10.3, -9.5)" width="19.1" xlink:href="#decoration254-shape0"/>
  </g>
  <defs>
    <g id="decoration254-shape0" transform="matrix(1.0, 0.0, 0.0, 1.0, 10.3, 9.5)">
      <path d="M-2.55 -6.45 L0.15 -9.1 5.75 -9.35 8.65 -1.05 5.25 -0.65 2.4 -4.5 -2.15 -4.75 -2.55 -6.45" fill="#8f948e" fill-rule="evenodd" stroke="none"/>
      <path d="M5.25 -0.65 Q1.85 1.2 -1.0 -0.65 L-2.15 -4.75 2.4 -4.5 5.25 -0.65" fill="#616b5e" fill-rule="evenodd" stroke="none"/>
      <path d="M-1.0 -0.65 L-2.15 0.1 -3.95 -0.4 -5.3 -3.2 -8.35 -3.5 -5.2 -8.1 -2.55 -6.45 -2.15 -4.75 -1.0 -0.65" fill="#898b88" fill-rule="evenodd" stroke="none"/>
      <path d="M-3.95 -0.4 Q-6.9 0.3 -10.15 -0.4 L-8.35 -3.5 -5.3 -3.2 -3.95 -0.4" fill="#6e746c" fill-rule="evenodd" stroke="none"/>
      <path d="M-2.55 -6.45 L0.15 -9.1 5.75 -9.35 8.65 -1.05 5.25 -0.65 Q1.85 1.2 -1.0 -0.65 L-2.15 0.1 -3.95 -0.4 Q-6.9 0.3 -10.15 -0.4 L-8.35 -3.5 -5.2 -8.1 -2.55 -6.45" fill="none" stroke="#000000" stroke-linecap="round" stroke-linejoin="round" stroke-opacity="0.4" stroke-width="0.30000000000000004"/>
      <path d="M-2.55 -6.45 L-2.15 -4.75 2.4 -4.5 5.25 -0.65 M-8.35 -3.5 L-5.3 -3.2 -3.95 -0.4 M-2.15 -4.75 L-1.0 -0.65" fill="none" stroke="#000000" stroke-linecap="round" stroke-linejoin="round" stroke-opacity="0.4" stroke-width="0.1"/>
    </g>
  </defs>
</svg>
