<?xml version="1.0" encoding="UTF-8" standalone="no"?>
<svg xmlns:ffdec="https://www.free-decompiler.com/flash" xmlns:xlink="http://www.w3.org/1999/xlink" ffdec:objectType="frame" height="31.1px" width="28.8px" xmlns="http://www.w3.org/2000/svg">
  <g transform="matrix(1.0, 0.0, 0.0, 1.0, 26.7, 29.75)">
    <use ffdec:characterId="969" height="31.1" transform="matrix(1.0, 0.0, 0.0, 1.0, -26.7, -29.75)" width="28.8" xlink:href="#decoration256-shape0"/>
  </g>
  <defs>
    <g id="decoration256-shape0" transform="matrix(1.0, 0.0, 0.0, 1.0, 26.7, 29.75)">
      <path d="M1.6 -4.2 L1.0 0.7 -0.55 0.75 -0.25 -1.1 Q0.75 -2.15 1.6 -4.2 M-0.3 -20.95 L-0.4 -21.15 -1.1 -22.05 Q-0.8 -23.15 0.8 -23.1 L0.85 -22.95 Q1.25 -18.3 -0.3 -20.95" fill="#3b8137" fill-rule="evenodd" stroke="none"/>
      <path d="M0.85 -22.95 Q2.55 -14.4 1.6 -4.2 0.75 -2.15 -0.25 -1.1 2.2 -16.35 -0.3 -20.95 1.25 -18.3 0.85 -22.95" fill="#669933" fill-rule="evenodd" stroke="none"/>
      <path d="M0.85 -22.95 Q2.55 -14.4 1.6 -4.2 L1.0 0.7 -0.55 0.75 -0.25 -1.1 Q2.2 -16.35 -0.3 -20.95 L-0.4 -21.15 -1.1 -22.05 Q-0.8 -23.15 0.8 -23.1 L0.85 -22.95 Z" fill="none" stroke="#000000" stroke-linecap="round" stroke-linejoin="round" stroke-opacity="0.4" stroke-width="0.30000000000000004"/>
      <path d="M1.25 -22.85 L1.1 -21.6 Q-2.1 -22.25 -7.85 -19.95 -19.1 -16.6 -24.05 -18.65 -17.1 -17.35 -6.05 -22.1 L1.25 -22.85" fill="#3b8137" fill-rule="evenodd" stroke="none"/>
      <path d="M1.25 -22.85 L-6.05 -22.1 Q-17.1 -17.35 -24.05 -18.65 -25.6 -19.3 -26.55 -20.45 -18.95 -22.6 -13.3 -29.25 -9.85 -30.35 -5.95 -27.85 L-1.0 -27.75 Q1.3 -25.75 1.25 -22.85 M-13.6 -24.55 Q-12.5 -25.2 -11.75 -25.05 L-9.5 -26.5 -14.05 -26.75 -9.5 -26.5 -9.2 -26.65 -8.9 -26.8 Q-7.35 -27.6 -5.95 -27.85 -7.35 -27.6 -8.9 -26.8 L-9.2 -26.65 -9.5 -26.5 -11.75 -25.05 -13.1 -23.85 -11.75 -25.05 Q-12.5 -25.2 -13.6 -24.55 M-4.15 -25.0 Q-5.65 -27.5 -8.9 -26.8 -5.65 -27.5 -4.15 -25.0" fill="url(#decoration256-gradient0)" fill-rule="evenodd" stroke="none"/>
      <path d="M-24.05 -18.65 Q-19.1 -16.6 -7.85 -19.95 -2.1 -22.25 1.1 -21.6 L1.25 -22.85 Q1.3 -25.75 -1.0 -27.75 L-5.95 -27.85 Q-9.85 -30.35 -13.3 -29.25 -18.95 -22.6 -26.55 -20.45 -25.6 -19.3 -24.05 -18.65" fill="none" stroke="#000000" stroke-linecap="round" stroke-linejoin="round" stroke-opacity="0.4" stroke-width="0.30000000000000004"/>
      <path d="M-14.05 -26.75 L-9.5 -26.5 -9.2 -26.65 -8.9 -26.8 Q-7.35 -27.6 -5.95 -27.85 M-8.9 -26.8 Q-5.65 -27.5 -4.15 -25.0 M-9.5 -26.5 L-11.75 -25.05 -13.1 -23.85 M-11.75 -25.05 Q-12.5 -25.2 -13.6 -24.55" fill="none" stroke="#000000" stroke-linecap="round" stroke-linejoin="round" stroke-opacity="0.4" stroke-width="0.1"/>
    </g>
    <radialGradient cx="0" cy="0" gradientTransform="matrix(0.0247, 0.0, 0.0, 0.0247, -30.05, -21.85)" gradientUnits="userSpaceOnUse" id="decoration256-gradient0" r="819.2" spreadMethod="pad">
      <stop offset="0.0" stop-color="#88c44c"/>
      <stop offset="1.0" stop-color="#669933"/>
    </radialGradient>
  </defs>
</svg>
