<?xml version="1.0" encoding="UTF-8" standalone="no"?>
<svg xmlns:xlink="http://www.w3.org/1999/xlink" height="400.85px" width="800.0px" xmlns="http://www.w3.org/2000/svg">
  <g transform="matrix(1.0, 0.0, 0.0, 1.0, 0.0, 0.0)">
    <use height="400.85" transform="matrix(1.0, 0.0, 0.0, 1.0, 0.0, 0.0)" width="800.0" xlink:href="#decoration257-shape0"/>
  </g>
  <defs>
    <g id="decoration257-shape0" transform="matrix(1.0, 0.0, 0.0, 1.0, 0.0, 0.0)">
      <path d="M800.0 400.0 L0.0 400.0 0.0 0.0 800.0 0.0 800.0 400.0" fill="url(#decoration257-gradient0)" fill-rule="evenodd" stroke="none"/>
      <path d="M366.9 216.6 Q379.3 233.45 403.65 231.9 504.3 244.9 640.85 34.2 703.9 71.05 685.25 159.2 659.95 262.4 451.85 315.35 342.25 408.45 204.4 348.5 232.9 274.0 210.55 259.15 180.5 247.3 109.35 281.65 136.35 223.2 186.05 184.4 L215.9 170.95 Q267.35 149.05 304.4 114.6 337.1 96.25 366.9 216.6" fill="url(#decoration257-gradient1)" fill-rule="evenodd" stroke="none"/>
      <path d="M711.75 45.25 Q716.15 47.85 718.75 45.85 718.8 58.65 712.1 70.85 704.9 79.25 697.1 87.25 689.35 95.25 678.15 102.8 L669.95 107.45 Q670.95 89.25 681.6 74.45 642.9 95.3 602.8 102.95 637.55 58.7 678.1 14.4 664.15 34.65 668.65 45.9 672.1 46.6 711.75 45.25 M730.05 271.3 Q712.5 279.6 701.15 276.5 728.35 250.15 728.8 241.8 L715.0 240.15 Q729.3 232.25 741.35 220.4 752.8 204.6 755.65 188.95 762.85 204.05 760.9 223.55 758.95 243.0 753.25 253.0 747.55 262.95 730.05 271.3 M800.0 188.3 Q799.8 399.5 799.55 399.55 L526.65 400.85 Q604.4 374.0 619.2 376.5 618.8 376.45 597.75 368.05 684.1 341.3 733.55 301.75 797.45 221.65 800.0 188.3 M497.8 144.95 L521.9 144.7 Q588.85 96.6 603.2 84.9 594.25 95.95 565.8 139.75 560.6 145.9 564.6 156.75 568.55 167.55 571.2 168.0 573.85 168.4 538.15 194.1 502.45 219.75 485.9 229.1 440.95 248.75 414.75 255.85 399.45 256.6 376.0 253.35 352.5 250.15 366.65 232.3 355.7 224.15 350.1 215.3 L370.6 217.5 Q391.05 219.6 396.05 212.2 401.0 204.75 392.65 192.9 384.3 181.05 380.75 178.05 393.7 178.45 428.3 175.3 L486.25 169.95 497.8 144.95 M466.05 48.8 Q447.9 74.2 348.95 85.05 L353.7 74.45 Q358.35 63.85 329.0 71.0 299.65 78.15 297.7 79.65 298.2 78.9 350.3 53.15 402.4 27.45 405.65 27.9 408.85 28.35 383.45 56.8 385.25 57.45 420.35 56.0 455.45 54.55 466.05 48.8 M422.15 383.05 Q366.3 393.95 301.65 395.65 301.35 395.45 285.35 399.35 L37.3 399.35 26.45 397.75 Q22.0 395.5 100.4 354.75 151.85 328.85 180.8 329.25 152.0 364.7 160.05 370.4 168.1 376.1 184.35 361.75 197.3 350.3 197.75 342.45 200.85 352.25 202.1 361.5 203.35 370.75 202.7 375.05 226.3 357.05 270.3 332.4 307.4 311.55 318.15 310.0 313.2 313.6 309.85 323.4 306.45 333.25 303.9 350.2 301.3 367.1 386.05 369.35 470.8 371.6 475.05 370.15 478.0 372.1 422.15 383.05" fill="#0e1b36" fill-rule="evenodd" stroke="none"/>
      <path d="M729.25 66.5 L729.3 66.55 729.35 66.65 729.4 66.75 729.5 66.9 729.5 66.95 729.5 67.05 729.5 67.15 729.5 67.2 729.5 67.3 729.5 67.4 729.4 67.45 729.4 67.55 729.35 67.6 729.15 67.8 728.8 67.95 728.6 67.95 728.1 67.8 727.75 67.4 727.75 67.3 727.75 67.25 727.7 67.15 727.7 67.1 727.7 67.0 727.75 66.9 727.75 66.85 727.8 66.75 727.8 66.7 727.95 66.5 728.3 66.3 728.6 66.25 728.8 66.3 729.15 66.4 729.25 66.5 M727.65 23.2 L727.85 23.25 728.15 23.35 728.3 23.45 728.4 23.6 728.5 23.75 728.55 24.0 728.6 24.05 728.55 24.15 728.55 24.25 728.55 24.3 728.55 24.4 728.5 24.45 728.45 24.55 728.4 24.65 728.35 24.7 728.25 24.8 728.1 24.9 728.05 24.95 728.0 24.95 727.85 25.0 727.65 25.0 727.15 24.9 726.8 24.45 726.8 24.4 726.8 24.3 726.8 24.2 726.75 24.15 726.75 24.05 726.8 24.0 726.8 23.9 726.8 23.8 726.8 23.75 727.0 23.5 Q727.15 23.3 727.5 23.2 L727.65 23.2 M688.6 49.05 L688.6 49.1 688.6 49.2 688.6 49.3 688.6 49.35 688.55 49.45 688.5 49.5 688.45 49.6 688.3 49.75 687.95 49.9 687.75 49.95 687.25 49.8 686.85 49.35 686.85 49.3 686.85 49.2 686.85 49.15 686.8 49.05 686.85 48.95 686.85 48.9 686.85 48.8 686.9 48.75 686.95 48.65 687.1 48.5 687.4 48.3 687.75 48.2 687.9 48.25 688.25 48.4 688.35 48.45 688.4 48.55 688.45 48.65 688.5 48.7 688.6 48.85 688.6 48.95 688.6 49.05 M714.4 25.4 L714.45 25.55 714.5 25.65 714.5 25.75 714.5 25.8 714.45 25.9 714.45 25.95 714.45 26.05 714.4 26.15 714.35 26.2 714.3 26.3 714.15 26.45 713.8 26.6 713.6 26.65 713.1 26.5 712.75 26.05 712.75 26.0 712.7 25.9 712.7 25.8 712.7 25.75 712.7 25.65 712.75 25.6 712.75 25.5 712.75 25.4 712.8 25.35 712.95 25.2 713.3 25.0 713.6 24.9 713.8 24.95 714.1 25.1 714.25 25.15 714.3 25.25 714.35 25.35 714.4 25.4 M671.65 12.95 L671.7 13.05 671.75 13.15 671.85 13.2 671.9 13.35 671.9 13.45 671.9 13.55 671.9 13.6 671.9 13.7 671.9 13.8 671.9 13.85 671.85 13.95 671.8 14.0 671.75 14.1 671.55 14.25 671.25 14.4 671.0 14.45 Q670.75 14.45 670.5 14.25 L670.15 13.85 670.15 13.8 670.15 13.7 670.15 13.65 670.1 13.55 670.15 13.45 670.15 13.4 670.15 13.3 670.2 13.25 670.25 13.15 670.35 13.0 670.7 12.8 671.0 12.7 671.2 12.75 671.55 12.9 671.65 12.95 M688.0 90.6 L688.3 90.5 688.5 90.55 688.85 90.7 688.95 90.75 689.0 90.85 689.05 90.95 689.1 91.0 689.15 91.2 689.2 91.25 689.2 91.35 689.2 91.4 689.2 91.5 689.2 91.6 689.15 91.65 689.1 91.75 689.1 91.8 689.0 91.9 688.85 92.05 688.5 92.2 688.3 92.25 687.8 92.1 687.45 91.7 687.45 91.6 687.4 91.5 687.4 91.45 687.4 91.35 687.4 91.3 687.45 91.2 687.45 91.1 687.5 91.05 687.5 90.95 687.65 90.8 Q687.8 90.65 688.0 90.6 M682.6 90.65 L682.65 90.75 682.7 90.8 682.8 90.95 682.8 91.05 682.8 91.15 682.8 91.2 682.8 91.3 682.8 91.4 682.8 91.45 682.75 91.55 682.7 91.65 682.65 91.7 682.5 91.85 682.15 92.05 681.95 92.05 681.4 91.9 681.05 91.5 681.05 91.4 681.05 91.35 681.05 91.25 681.0 91.2 681.05 91.1 681.05 91.0 681.05 90.95 681.1 90.85 681.15 90.75 681.3 90.6 681.6 90.4 681.95 90.35 682.1 90.4 682.45 90.5 682.55 90.55 682.6 90.65 M694.0 78.1 L694.15 78.15 694.2 78.25 694.25 78.3 694.3 78.4 694.35 78.55 694.4 78.65 694.4 78.75 694.4 78.8 694.35 78.9 694.35 78.95 694.35 79.05 694.3 79.15 694.25 79.2 694.2 79.3 694.05 79.45 693.7 79.65 693.5 79.65 693.0 79.5 692.6 79.1 692.6 79.0 692.6 78.95 692.6 78.85 692.6 78.75 692.6 78.7 692.6 78.6 692.6 78.5 692.65 78.45 692.7 78.35 692.85 78.2 693.15 78.0 693.5 77.9 693.7 77.95 694.0 78.1 M719.25 107.45 L719.35 107.3 719.95 106.7 Q720.65 106.05 721.7 105.85 L722.5 105.7 Q724.2 105.8 725.3 107.0 726.4 108.2 726.25 109.75 L726.2 109.95 726.15 110.1 726.1 110.2 726.05 110.4 Q724.55 113.55 721.0 112.35 719.3 111.75 718.9 110.1 L718.75 109.25 718.8 108.95 718.85 108.65 718.95 108.2 719.25 107.45 M685.85 103.6 L685.85 103.75 685.85 104.0 Q685.6 104.9 684.65 105.05 683.15 105.3 682.75 104.0 L682.75 103.9 682.7 103.8 682.7 103.65 682.7 103.55 682.75 103.4 682.75 103.3 682.8 103.15 682.85 103.05 682.9 102.95 683.0 102.8 683.1 102.7 683.25 102.6 683.35 102.5 683.6 102.35 683.95 102.25 684.3 102.2 685.15 102.4 685.75 103.15 685.8 103.25 685.8 103.4 685.85 103.5 685.85 103.6 M683.35 108.55 L684.15 108.8 684.75 109.5 684.85 109.65 684.85 109.75 684.9 109.85 684.9 110.0 684.95 110.1 684.9 110.2 684.9 110.35 684.9 110.45 684.85 110.6 684.8 110.7 684.75 110.85 684.65 111.05 684.55 111.2 Q683.9 111.85 683.0 111.65 682.0 111.45 681.75 110.55 L681.75 110.4 681.75 110.3 681.7 110.2 681.75 110.05 681.75 109.95 681.75 109.85 681.75 109.7 682.0 109.25 Q682.4 108.75 683.0 108.6 L683.35 108.55 M670.45 134.8 L670.6 134.65 670.85 134.55 671.2 134.45 671.5 134.4 672.35 134.6 672.95 135.3 673.0 135.45 673.05 135.55 673.05 135.7 673.05 135.8 673.05 135.95 673.05 136.2 Q672.8 137.1 671.85 137.25 670.35 137.5 669.95 136.2 L669.95 136.1 669.95 135.95 669.9 135.85 669.95 135.75 669.95 135.6 670.0 135.5 670.0 135.35 670.05 135.25 670.15 135.15 670.2 135.05 670.35 134.9 670.45 134.8 M702.35 197.95 L702.45 198.05 702.55 198.1 702.6 198.2 702.65 198.3 702.7 198.45 702.7 198.5 702.7 198.6 702.7 198.65 702.7 198.75 702.7 198.85 702.7 198.9 702.65 199.0 702.6 199.1 702.55 199.15 702.4 199.3 702.05 199.5 701.85 199.55 701.3 199.35 701.0 198.95 700.95 198.85 700.95 198.8 700.95 198.7 700.9 198.65 700.95 198.55 700.95 198.45 701.0 198.4 701.0 198.3 701.05 198.2 701.15 198.05 701.55 197.85 701.85 197.8 702.05 197.85 702.35 197.95 M775.7 204.1 L775.75 204.2 775.75 204.3 775.85 204.35 775.85 204.45 775.9 204.6 775.9 204.7 775.9 204.75 775.9 204.85 775.9 204.95 775.9 205.0 775.85 205.1 775.8 205.15 775.75 205.25 775.7 205.3 Q774.95 205.85 774.05 205.65 L774.0 205.65 773.85 205.65 773.65 205.7 773.45 205.65 Q773.2 205.65 773.05 205.45 L772.8 205.15 772.8 205.05 772.8 204.95 772.75 204.9 772.75 204.8 772.75 204.75 772.75 204.65 772.8 204.55 772.8 204.5 772.8 204.4 772.85 204.3 773.05 204.05 773.65 203.9 773.65 203.85 775.05 203.85 775.7 204.1 M680.7 215.0 L680.75 215.1 680.8 215.15 680.85 215.25 680.95 215.4 680.95 215.5 680.95 215.6 680.95 215.65 680.95 215.75 680.95 215.8 680.95 215.9 680.9 216.0 680.85 216.05 680.8 216.15 680.6 216.3 680.25 216.45 680.05 216.5 679.55 216.3 Q679.3 216.2 679.2 215.9 L679.2 215.8 679.2 215.75 679.15 215.65 679.15 215.6 679.15 215.5 679.2 215.45 679.2 215.35 679.25 215.25 679.25 215.2 679.4 215.05 Q679.55 214.9 679.75 214.85 L680.05 214.75 680.25 214.8 680.55 214.9 680.7 215.0 M678.15 266.9 L678.3 266.7 678.5 266.55 678.9 266.45 679.55 266.5 Q679.9 266.6 680.1 266.8 L680.2 266.9 680.4 266.95 680.5 267.05 680.6 267.15 680.65 267.2 680.7 267.3 680.75 267.35 680.8 267.45 680.8 267.55 680.85 267.6 680.85 267.7 680.85 267.75 680.85 267.85 680.8 267.95 680.8 268.0 680.75 268.1 680.7 268.15 680.65 268.25 680.6 268.35 679.75 268.55 Q679.2 268.5 678.8 268.15 L678.4 268.0 678.2 267.85 678.05 267.6 678.05 267.55 678.05 267.45 678.05 267.35 678.0 267.3 678.05 267.2 678.05 267.15 678.05 267.05 678.1 266.95 678.15 266.9 M660.6 259.0 L660.65 259.05 660.7 259.15 660.7 259.25 660.75 259.3 660.75 259.4 660.75 259.5 660.75 259.55 660.75 259.65 660.7 259.7 660.7 259.8 660.65 259.9 660.6 259.95 660.55 260.05 660.5 260.15 660.3 260.3 659.85 260.4 659.65 260.35 659.35 260.2 659.05 260.0 658.5 259.7 657.65 259.1 657.6 258.95 657.55 258.85 657.55 258.8 657.55 258.7 657.55 258.6 657.55 258.55 657.55 258.45 657.6 258.35 657.6 258.3 657.65 258.2 657.7 258.1 657.9 258.0 Q658.05 257.85 658.25 257.8 L658.45 257.8 Q659.1 257.7 659.5 258.1 L660.35 258.8 660.5 258.85 660.55 258.9 660.6 259.0 M649.0 294.75 L649.05 294.85 649.15 295.0 649.2 295.1 649.2 295.2 649.25 295.25 649.25 295.35 649.25 295.5 649.2 295.6 649.2 295.65 649.2 295.75 649.15 295.85 649.1 295.9 Q648.8 296.25 648.35 296.35 L646.6 296.0 646.35 295.7 646.35 295.6 646.35 295.55 646.3 295.45 646.3 295.4 646.3 295.3 646.35 295.15 646.35 295.05 646.35 295.0 646.55 294.75 646.6 294.65 646.9 294.5 647.2 294.45 647.4 294.45 647.6 294.5 648.7 294.65 648.85 294.7 649.0 294.75 M678.7 283.65 L678.7 283.75 678.65 283.8 678.65 283.9 678.6 284.0 678.55 284.05 678.5 284.15 Q678.25 284.5 677.8 284.5 676.95 284.6 676.6 283.9 L676.6 283.85 676.55 283.75 676.55 283.7 676.55 283.6 676.55 283.5 676.6 283.45 676.6 283.35 676.65 283.25 676.65 283.2 676.7 283.1 676.9 282.95 677.25 282.8 677.45 282.8 677.8 282.8 678.15 282.85 678.4 283.0 678.5 283.1 678.55 283.2 678.6 283.25 678.65 283.35 678.7 283.5 678.7 283.6 678.7 283.65 M732.9 310.65 L733.0 310.7 733.05 310.8 733.1 310.95 733.15 311.05 733.2 311.1 733.2 311.2 733.2 311.3 733.15 311.45 733.15 311.5 733.1 311.6 733.05 311.7 733.0 311.75 Q732.55 312.25 731.85 312.2 730.9 312.15 730.4 311.45 L730.4 311.35 730.35 311.3 730.35 311.2 730.35 311.1 730.35 311.05 730.4 310.95 730.45 310.8 730.45 310.7 730.55 310.65 730.85 310.4 730.95 310.35 731.25 310.3 732.0 310.3 732.8 310.55 732.9 310.65 M603.75 61.65 Q605.45 61.7 606.55 62.9 607.65 64.15 607.5 65.7 L607.45 65.85 607.4 66.0 607.35 66.15 607.35 66.3 Q605.8 69.5 602.25 68.25 600.55 67.65 600.15 66.05 L600.0 65.15 600.05 64.85 600.1 64.55 600.2 64.1 600.5 63.35 600.6 63.2 601.2 62.65 Q601.9 61.95 602.95 61.75 L603.75 61.65 M637.8 90.8 L637.9 90.9 637.95 90.95 638.0 91.05 638.05 91.2 638.05 91.3 638.05 91.35 638.05 91.45 638.05 91.5 638.05 91.6 638.05 91.7 638.0 91.75 637.95 91.85 637.9 91.95 637.75 92.1 637.4 92.25 637.2 92.3 636.65 92.1 636.35 91.7 636.3 91.65 636.3 91.55 636.3 91.45 636.3 91.4 636.3 91.3 636.3 91.2 636.35 91.15 636.35 91.05 636.4 91.0 636.55 90.8 636.9 90.65 637.2 90.55 637.4 90.6 637.7 90.7 637.8 90.8 M537.2 85.95 L537.2 85.9 537.4 85.65 Q537.55 85.45 537.9 85.35 L538.05 85.35 538.25 85.4 538.55 85.5 538.7 85.6 538.8 85.75 538.9 85.9 538.95 86.15 539.0 86.2 538.95 86.3 538.95 86.4 538.95 86.45 538.95 86.55 538.9 86.65 538.85 86.7 538.8 86.8 538.7 86.9 538.65 86.95 538.5 87.05 538.45 87.1 538.4 87.1 538.25 87.15 538.05 87.15 537.55 87.0 Q537.3 86.9 537.2 86.6 L537.2 86.5 537.2 86.45 537.15 86.35 537.15 86.3 537.15 86.2 537.15 86.1 537.2 86.05 537.2 85.95 M534.85 144.5 L535.0 144.35 535.35 144.1 535.7 144.05 535.85 144.1 536.2 144.25 536.3 144.3 536.35 144.35 536.4 144.45 536.45 144.55 536.55 144.7 536.55 144.8 536.55 144.85 536.55 144.95 536.55 145.0 536.55 145.1 536.55 145.2 536.45 145.25 536.45 145.35 536.4 145.45 536.2 145.6 535.85 145.75 535.7 145.8 535.15 145.65 534.8 145.25 534.8 145.15 534.8 145.05 534.8 145.0 534.75 144.9 534.8 144.8 534.8 144.75 534.8 144.65 534.85 144.55 534.85 144.5 M524.85 170.1 L524.9 170.2 524.95 170.3 525.0 170.35 525.05 170.55 525.1 170.6 525.1 170.7 525.1 170.75 525.1 170.85 525.05 170.95 525.05 171.0 525.0 171.1 524.95 171.15 524.9 171.25 524.75 171.4 524.4 171.55 524.2 171.6 523.65 171.45 523.35 171.05 523.3 170.95 523.3 170.85 523.3 170.8 523.3 170.7 523.3 170.6 523.3 170.55 523.35 170.45 523.35 170.4 523.4 170.3 523.55 170.15 523.9 169.95 524.2 169.9 524.4 169.9 524.7 170.05 524.85 170.1 M505.8 179.1 L506.15 179.0 506.3 179.05 506.65 179.15 506.75 179.25 506.8 179.35 506.85 179.4 506.9 179.5 507.0 179.65 507.0 179.75 507.0 179.85 507.0 179.9 507.0 180.0 507.0 180.1 507.0 180.15 506.95 180.25 506.9 180.3 506.85 180.4 506.7 180.55 506.3 180.7 506.15 180.75 505.6 180.6 505.25 180.15 505.25 180.1 505.25 180.0 505.25 179.95 505.2 179.85 505.25 179.75 505.25 179.7 505.25 179.6 505.3 179.55 505.35 179.45 505.5 179.3 505.8 179.1 M526.45 194.4 L526.4 194.35 526.4 194.25 526.4 194.15 526.45 194.1 526.45 194.0 526.5 193.9 526.5 193.85 526.65 193.65 Q526.8 193.5 527.0 193.45 L527.35 193.4 527.5 193.45 527.85 193.55 527.95 193.65 528.0 193.7 528.05 193.8 528.1 193.9 528.2 194.05 528.2 194.1 528.2 194.2 528.2 194.3 528.2 194.35 528.2 194.45 528.2 194.55 528.15 194.6 528.1 194.7 528.05 194.8 527.9 194.95 527.5 195.1 527.35 195.1 526.8 195.0 526.45 194.55 526.45 194.5 526.45 194.4 M551.5 169.25 L551.55 169.2 551.55 169.1 551.7 168.95 Q551.85 168.8 552.05 168.75 L552.35 168.65 552.55 168.7 552.85 168.8 553.0 168.9 553.05 169.0 553.1 169.05 553.15 169.15 553.2 169.3 553.25 169.4 553.25 169.45 553.25 169.55 553.25 169.65 553.25 169.7 553.2 169.8 553.15 169.9 553.1 169.95 553.05 170.05 552.9 170.2 552.55 170.35 552.35 170.4 551.85 170.25 551.5 169.8 551.45 169.75 551.45 169.65 551.45 169.6 551.45 169.5 551.45 169.4 551.45 169.35 551.5 169.25 M536.75 151.25 L536.8 151.35 536.85 151.5 536.9 151.55 536.9 151.65 536.9 151.75 536.9 151.8 536.85 151.9 536.85 152.0 536.8 152.05 536.75 152.15 536.7 152.25 536.55 152.4 536.2 152.55 536.0 152.6 535.45 152.45 535.15 152.0 535.1 151.95 535.1 151.85 535.1 151.8 535.1 151.7 535.1 151.6 535.1 151.55 535.15 151.45 535.15 151.35 535.2 151.3 535.3 151.1 535.7 150.9 536.0 150.85 536.2 150.9 536.5 151.05 536.6 151.1 536.7 151.15 536.75 151.25 M527.65 159.5 L527.85 159.55 528.15 159.7 528.25 159.75 528.35 159.85 528.4 159.95 528.4 160.0 528.5 160.15 528.5 160.25 528.5 160.35 528.5 160.4 528.5 160.5 528.5 160.55 528.5 160.65 528.45 160.75 528.4 160.8 528.35 160.9 528.2 161.05 527.85 161.2 527.65 161.25 527.1 161.1 526.8 160.65 526.75 160.6 526.75 160.5 526.75 160.4 526.75 160.35 526.75 160.25 526.75 160.2 526.8 160.1 526.8 160.0 526.85 159.95 526.95 159.8 527.35 159.6 527.65 159.5 M536.35 168.1 L536.5 168.15 536.85 168.3 536.95 168.35 537.0 168.45 537.05 168.55 537.1 168.6 537.2 168.75 537.2 168.85 537.2 168.95 537.2 169.0 537.2 169.1 537.2 169.2 537.2 169.25 537.15 169.35 537.1 169.4 537.05 169.5 536.9 169.65 536.55 169.8 536.35 169.85 535.85 169.7 535.45 169.25 535.45 169.2 535.45 169.1 535.45 169.05 535.4 168.95 535.45 168.85 535.45 168.8 535.45 168.7 535.5 168.65 535.55 168.55 535.7 168.4 536.0 168.2 536.35 168.1 M608.4 125.85 Q606.85 129.05 603.3 127.8 601.6 127.25 601.2 125.6 L601.0 124.7 601.05 124.45 601.1 124.1 601.2 123.65 601.55 122.95 601.65 122.8 602.25 122.2 Q602.95 121.5 603.95 121.3 L604.8 121.2 Q606.5 121.25 607.6 122.5 608.65 123.7 608.5 125.25 L608.45 125.4 608.45 125.55 608.4 125.7 608.4 125.85 M642.95 125.35 L642.95 125.45 642.9 125.55 642.85 125.6 642.8 125.7 642.8 125.8 642.6 125.95 642.3 126.1 642.05 126.15 641.55 126.0 641.2 125.55 641.2 125.5 641.2 125.4 641.2 125.35 641.15 125.25 641.2 125.15 641.2 125.1 641.2 125.0 641.25 124.9 641.25 124.85 641.4 124.65 641.75 124.5 642.05 124.4 642.25 124.45 642.6 124.6 642.7 124.65 642.75 124.7 642.8 124.8 642.85 124.9 642.9 125.05 642.95 125.1 642.95 125.2 642.95 125.3 642.95 125.35 M577.3 106.35 L577.35 106.4 577.4 106.5 577.45 106.6 577.5 106.75 577.55 106.8 577.55 106.9 577.55 107.0 577.55 107.05 577.55 107.15 577.5 107.25 577.45 107.3 577.4 107.4 577.35 107.45 577.2 107.65 576.85 107.8 576.65 107.85 576.15 107.7 575.8 107.25 575.75 107.2 575.75 107.1 575.75 107.0 575.75 106.95 575.75 106.85 575.75 106.8 575.8 106.7 575.85 106.6 575.85 106.55 576.0 106.35 Q576.15 106.2 576.35 106.15 L576.65 106.1 576.85 106.15 577.15 106.25 577.3 106.35 M370.6 49.35 Q371.05 49.35 371.35 49.65 L372.0 50.2 372.05 50.25 372.15 50.4 372.2 50.5 372.25 50.7 372.3 50.85 372.25 50.95 372.25 51.1 372.15 51.3 372.05 51.4 371.85 51.55 371.55 51.6 371.15 51.5 370.9 51.2 370.8 51.1 370.55 50.85 370.05 50.5 369.95 50.4 369.9 50.3 369.9 50.25 369.85 50.2 369.85 50.1 369.85 49.95 369.85 49.85 369.95 49.65 370.15 49.5 370.4 49.35 370.6 49.35 M373.8 123.6 L374.3 123.8 374.45 123.9 374.55 124.05 374.65 124.2 374.75 124.3 374.85 124.55 374.85 124.65 374.85 124.8 374.85 124.9 374.85 125.05 374.85 125.2 374.85 125.3 374.75 125.45 374.7 125.55 374.6 125.7 374.5 125.8 374.35 125.95 374.15 126.05 374.0 126.15 373.8 126.2 373.5 126.25 372.7 126.0 372.15 125.35 372.1 125.2 372.1 125.1 372.1 124.95 372.05 124.85 372.1 124.7 372.1 124.6 372.15 124.45 372.2 124.35 372.25 124.2 372.35 124.1 Q372.4 124.0 372.5 124.0 L372.8 123.7 373.0 123.6 373.2 123.6 373.5 123.55 373.8 123.6 M326.65 168.1 L326.75 168.35 326.8 168.5 326.8 168.65 326.8 168.75 326.75 168.9 326.75 169.0 326.75 169.15 326.65 169.25 326.6 169.4 326.5 169.5 326.4 169.65 326.25 169.75 326.05 169.9 325.9 169.95 325.7 170.0 325.4 170.05 324.6 169.8 324.05 169.2 324.0 169.05 324.0 168.95 324.0 168.8 324.0 168.65 324.0 168.55 324.0 168.4 324.05 168.3 324.1 168.15 324.15 168.05 324.25 167.9 324.4 167.8 324.75 167.55 324.9 167.45 325.05 167.4 325.4 167.4 325.4 167.35 325.7 167.4 326.2 167.65 326.4 167.75 326.45 167.85 326.55 168.0 326.65 168.1 M359.2 181.35 L359.25 181.2 359.25 181.1 359.3 181.0 359.35 180.85 359.45 180.7 359.6 180.6 359.95 180.35 360.1 180.25 360.3 180.2 360.6 180.2 360.6 180.15 360.9 180.25 361.4 180.45 361.6 180.55 361.65 180.65 361.75 180.8 361.85 180.95 361.95 181.2 362.0 181.3 362.0 181.45 362.0 181.55 362.0 181.65 361.95 181.8 361.95 181.95 361.85 182.05 361.8 182.2 361.7 182.3 361.6 182.45 361.45 182.55 361.25 182.7 361.1 182.8 360.9 182.8 360.6 182.85 359.8 182.6 359.25 181.95 359.25 181.85 359.2 181.7 359.2 181.6 359.2 181.45 359.2 181.35 M382.95 172.85 L383.2 173.2 383.25 173.75 383.2 174.1 383.15 174.2 383.1 174.25 383.05 174.35 382.9 174.5 382.55 174.65 382.35 174.7 381.8 174.55 381.5 174.15 381.45 173.9 381.45 173.5 381.55 173.05 381.7 172.9 Q381.8 172.75 382.05 172.7 L382.35 172.65 382.55 172.7 382.85 172.8 382.95 172.85 M403.95 186.55 L404.25 186.65 404.4 186.75 404.45 186.8 404.5 186.9 404.55 187.0 404.6 187.15 404.65 187.2 404.65 187.3 404.65 187.35 404.6 187.45 404.6 187.55 404.6 187.6 404.55 187.7 404.5 187.75 404.45 187.85 404.3 188.0 403.95 188.2 403.75 188.2 403.25 188.05 402.9 187.65 402.9 187.55 402.85 187.5 402.85 187.4 402.85 187.3 402.85 187.25 402.9 187.15 402.9 187.1 402.9 187.0 402.95 186.9 403.1 186.75 403.45 186.55 403.75 186.5 403.95 186.55 M421.75 197.85 L421.85 197.95 421.9 198.0 421.95 198.1 422.0 198.25 422.0 198.35 422.0 198.4 422.0 198.5 422.0 198.6 422.0 198.65 422.0 198.75 421.95 198.85 421.9 198.9 421.85 199.0 421.7 199.15 421.35 199.3 421.15 199.3 420.6 199.15 420.3 198.75 420.25 198.65 420.25 198.6 420.25 198.5 420.25 198.45 420.25 198.35 420.25 198.3 420.3 198.2 420.3 198.1 420.35 198.05 420.5 197.9 Q420.6 197.7 420.85 197.7 L421.15 197.6 421.35 197.65 421.65 197.75 421.75 197.85 M458.85 161.85 L458.9 162.2 458.9 162.25 458.9 162.35 458.85 162.45 458.85 162.5 458.85 162.6 458.8 162.65 458.75 162.75 458.7 162.85 458.5 163.0 458.2 163.15 458.0 163.15 457.45 163.05 457.15 162.6 457.1 162.45 457.1 162.15 457.15 161.75 457.2 161.65 457.35 161.5 Q457.45 161.35 457.7 161.3 L458.0 161.2 458.2 161.25 458.5 161.4 458.6 161.45 458.75 161.6 458.85 161.85 M460.05 221.45 L459.8 220.5 Q459.8 219.8 460.2 219.2 461.35 217.65 463.25 217.35 465.7 217.65 465.8 219.9 465.8 221.1 464.9 221.95 463.05 223.65 460.9 222.4 460.3 222.05 460.05 221.45 M460.9 233.65 Q461.45 232.3 463.0 232.05 L463.35 232.0 Q465.4 232.1 465.9 233.85 466.45 235.45 465.5 236.85 464.1 238.65 461.95 237.65 460.95 237.15 460.7 236.2 L460.6 235.6 460.6 235.5 460.65 235.45 460.65 235.25 460.65 235.2 460.65 235.05 460.7 234.8 460.7 234.7 460.7 234.6 460.7 234.55 460.9 233.65 M419.3 229.75 L420.1 229.75 420.75 230.0 420.8 230.05 420.85 230.15 420.9 230.25 420.9 230.3 421.0 230.5 421.0 230.55 421.0 230.65 420.95 230.75 420.95 230.8 420.95 230.9 420.9 230.95 420.9 231.05 420.8 231.15 420.4 231.45 Q419.1 231.85 418.45 230.9 L418.45 230.85 418.45 230.75 418.4 230.7 418.4 230.6 418.4 230.5 418.45 230.45 418.45 230.35 418.5 230.3 418.5 230.2 418.6 230.1 418.75 229.95 419.15 229.8 419.3 229.75 M435.15 291.85 L435.5 291.65 435.8 291.55 436.5 291.6 Q436.9 291.65 437.2 291.95 L437.35 292.15 437.35 292.2 437.4 292.3 437.45 292.35 437.5 292.45 437.5 292.55 437.5 292.6 437.5 292.7 437.5 292.75 437.45 292.85 437.4 292.95 437.35 293.0 437.35 293.1 437.25 293.2 437.2 293.25 437.05 293.35 436.95 293.4 436.1 293.45 Q435.4 293.3 435.0 292.8 L434.95 292.75 434.9 292.65 434.9 292.55 434.9 292.5 434.9 292.4 434.9 292.3 434.9 292.25 434.95 292.15 434.95 292.05 435.0 292.0 435.15 291.85 M375.5 210.15 Q376.55 210.15 377.25 210.95 377.95 211.75 377.9 212.75 L377.85 212.85 377.8 212.95 377.8 213.05 377.8 213.1 Q376.8 215.15 374.5 214.4 373.45 214.0 373.2 212.95 L373.05 212.4 373.1 212.2 373.15 212.0 373.2 211.75 373.4 211.25 373.45 211.15 373.8 210.75 Q374.3 210.35 374.95 210.2 L375.5 210.15 M366.25 227.2 L366.35 227.3 366.35 227.35 366.4 227.4 366.45 227.5 366.5 227.6 366.55 227.65 366.55 227.75 366.55 227.85 366.5 227.95 366.5 228.0 366.45 228.05 366.45 228.1 366.4 228.2 366.3 228.3 366.0 228.45 365.8 228.45 365.4 228.35 365.15 228.0 365.15 227.9 365.15 227.8 365.1 227.75 365.15 227.7 365.15 227.6 365.15 227.55 365.2 227.5 365.2 227.45 365.3 227.3 365.6 227.15 365.8 227.1 366.0 227.15 366.25 227.2 M364.6 237.75 L364.9 237.55 365.15 237.5 365.3 237.55 365.55 237.65 365.65 237.7 365.7 237.75 365.75 237.85 365.75 237.9 365.8 238.0 365.8 238.1 365.8 238.2 365.8 238.3 365.8 238.45 365.75 238.55 365.7 238.6 365.55 238.75 365.3 238.85 365.15 238.9 364.7 238.75 364.45 238.45 364.4 238.4 364.4 238.3 364.4 238.2 364.4 238.1 364.4 238.05 364.45 238.0 364.45 237.9 364.5 237.85 364.6 237.75 M369.55 246.25 L369.55 246.15 369.55 246.05 369.6 245.95 369.7 245.85 370.0 245.7 370.25 245.65 370.4 245.7 370.65 245.75 370.75 245.85 370.85 245.95 370.9 246.0 370.95 246.15 370.95 246.2 370.95 246.3 370.95 246.45 370.95 246.55 370.9 246.6 370.85 246.65 370.8 246.75 370.65 246.85 370.4 247.0 370.25 247.0 369.85 246.9 369.55 246.55 369.55 246.5 369.55 246.4 369.55 246.35 369.5 246.3 369.55 246.25 M397.2 233.4 L397.2 233.3 397.2 233.2 397.25 233.15 397.25 233.05 397.3 233.0 397.3 232.9 397.4 232.8 397.55 232.65 Q397.7 232.55 397.95 232.5 L398.15 232.45 399.5 232.5 Q400.05 232.55 400.4 232.95 L400.45 233.0 400.5 233.1 400.55 233.2 400.6 233.25 400.6 233.35 400.6 233.45 400.6 233.5 400.6 233.6 400.6 233.7 400.6 233.75 400.55 233.85 400.5 233.9 400.45 234.0 400.35 234.15 400.25 234.25 399.6 234.4 399.1 234.25 398.15 234.15 Q397.6 234.15 397.3 233.7 L397.25 233.6 397.25 233.55 397.25 233.45 397.2 233.4 M390.85 224.15 L391.3 224.35 391.35 224.4 391.4 224.5 391.5 224.65 391.55 224.75 391.55 224.85 391.55 224.9 391.55 225.0 391.55 225.15 391.55 225.25 391.5 225.3 391.45 225.4 391.4 225.5 Q390.8 226.05 389.9 225.8 389.15 225.55 388.65 225.05 L388.6 224.95 388.6 224.9 388.55 224.7 388.55 224.65 388.5 224.55 388.55 224.5 388.55 224.4 388.55 224.35 388.6 224.05 388.9 223.85 389.2 223.7 389.4 223.7 389.9 223.8 390.25 223.95 390.4 224.05 390.85 224.15 M344.0 213.45 L343.95 213.55 343.95 213.65 Q342.95 215.7 340.7 214.9 339.6 214.5 339.35 213.5 L339.25 212.9 339.25 212.7 339.3 212.55 339.35 212.25 339.55 211.75 339.65 211.7 340.0 211.3 Q340.45 210.85 341.1 210.75 L341.65 210.65 Q342.75 210.7 343.45 211.5 344.1 212.25 344.05 213.25 L344.0 213.35 344.0 213.45 M336.85 230.55 L337.0 230.85 337.05 231.25 337.05 231.45 336.95 231.75 336.7 232.15 336.55 232.25 336.15 232.4 335.9 232.45 335.25 232.3 334.85 231.75 334.8 231.65 334.8 231.55 334.8 231.45 334.8 231.35 334.75 231.25 334.8 231.15 334.8 231.05 334.8 230.95 334.8 230.85 334.9 230.65 335.1 230.35 Q335.35 230.15 335.65 230.05 L335.9 230.05 336.15 230.1 336.55 230.25 336.7 230.35 336.85 230.55 M338.1 242.45 L338.15 242.5 338.25 242.65 338.3 242.75 338.35 242.95 338.4 243.05 338.4 243.15 338.4 243.25 338.4 243.35 338.4 243.45 338.35 243.55 338.3 243.65 338.25 243.75 338.2 243.85 338.1 243.95 338.0 244.05 337.85 244.15 337.7 244.2 337.55 244.25 337.3 244.3 336.65 244.1 336.25 243.6 336.2 243.45 336.2 243.4 336.2 243.25 336.15 243.2 336.2 243.05 336.2 242.95 336.25 242.85 336.25 242.75 336.3 242.65 336.4 242.55 336.5 242.5 336.75 242.3 336.9 242.2 337.05 242.15 337.3 242.15 337.3 242.1 337.55 242.2 337.95 242.35 338.1 242.45 M362.1 230.75 L362.15 230.85 362.2 230.95 362.3 231.2 362.3 231.25 362.25 231.4 362.2 231.55 362.1 231.85 362.0 231.9 361.7 232.0 361.6 232.0 361.15 231.9 360.9 231.55 360.85 231.5 360.85 231.4 360.85 231.3 360.85 231.2 360.85 231.1 360.85 231.05 360.9 230.95 361.05 230.75 361.4 230.55 361.55 230.55 361.6 230.5 361.7 230.55 362.0 230.65 362.1 230.75 M349.15 230.7 L349.25 230.55 349.55 230.4 349.8 230.35 349.95 230.4 350.2 230.5 350.3 230.55 350.35 230.6 350.4 230.7 350.4 230.75 350.45 230.9 350.5 230.95 350.5 231.05 350.45 231.15 350.45 231.25 350.45 231.35 350.4 231.4 350.35 231.45 350.2 231.6 349.95 231.7 349.8 231.75 Q349.55 231.75 349.4 231.6 L349.1 231.3 349.05 231.2 349.05 231.1 349.05 231.0 349.05 230.9 349.1 230.85 349.1 230.75 349.15 230.7 M347.25 250.4 L347.35 250.6 347.45 250.8 347.55 251.1 347.6 251.2 347.55 251.35 347.55 251.4 347.55 251.55 347.5 251.6 347.45 251.7 347.4 251.8 347.35 251.9 347.25 252.0 347.15 252.1 347.0 252.25 346.9 252.3 346.8 252.3 346.7 252.35 346.45 252.4 345.8 252.2 345.35 251.7 345.35 251.55 345.35 251.5 345.3 251.4 345.3 251.3 345.3 251.2 345.3 251.1 345.35 251.0 345.35 250.9 345.35 250.8 345.5 250.6 345.7 250.4 Q345.85 250.25 346.05 250.2 L346.2 250.15 346.45 250.15 346.45 250.1 346.7 250.15 347.1 250.3 347.25 250.4 M359.65 263.15 L359.85 263.1 361.2 263.35 Q361.9 263.55 362.45 264.05 L362.5 264.1 362.55 264.2 362.6 264.25 362.65 264.35 362.65 264.45 362.65 264.5 362.7 264.6 362.7 264.7 362.7 264.75 362.65 264.85 362.65 264.9 362.65 265.0 362.65 265.1 362.6 265.15 362.55 265.25 362.45 265.35 362.35 265.4 362.25 265.5 362.15 265.55 362.1 265.6 362.0 265.6 361.8 265.6 361.45 265.55 361.15 265.35 361.05 265.3 361.05 265.2 360.9 265.15 360.75 265.1 360.6 265.05 360.5 265.0 359.65 264.8 Q359.25 264.7 359.05 264.45 L359.0 264.25 358.95 264.2 358.95 264.1 358.95 264.05 358.95 263.95 358.95 263.85 358.95 263.8 359.0 263.7 359.0 263.65 359.05 263.55 359.2 263.4 359.45 263.25 359.65 263.15 M334.1 261.6 L334.25 261.55 334.5 261.5 334.85 261.55 335.25 261.75 335.4 261.8 335.5 261.9 335.55 262.0 335.65 262.15 335.65 262.2 335.75 262.4 335.75 262.5 335.75 262.65 335.7 262.7 335.7 262.85 335.7 262.9 335.6 263.1 335.45 263.3 334.95 263.7 334.9 263.75 334.75 263.75 334.5 263.8 333.85 263.6 333.45 263.2 333.4 263.1 333.4 263.0 333.4 262.9 333.4 262.8 333.35 262.7 333.35 262.6 333.4 262.5 333.4 262.4 333.4 262.3 333.4 262.2 333.55 262.0 333.75 261.8 334.1 261.6 M387.95 253.65 Q388.45 253.75 388.7 254.05 L388.8 254.15 388.85 254.25 388.9 254.3 388.95 254.4 389.0 254.5 389.0 254.55 389.05 254.65 389.05 254.75 389.05 254.8 389.05 254.9 389.05 254.95 389.0 255.05 389.0 255.15 388.95 255.2 388.9 255.3 388.8 255.35 388.7 255.45 388.6 255.55 388.55 255.6 388.45 255.6 388.35 255.65 388.15 255.65 387.95 255.65 387.8 255.6 387.65 255.5 387.5 255.4 386.95 255.35 386.5 255.15 386.25 254.8 386.25 254.75 386.25 254.65 386.25 254.55 386.2 254.5 386.25 254.4 386.25 254.3 386.25 254.25 386.3 254.15 386.3 254.05 386.4 254.0 386.55 253.85 386.8 253.7 387.1 253.65 387.95 253.65 M389.6 279.7 L390.75 279.75 391.75 280.35 391.8 280.45 391.85 280.5 391.85 280.6 391.9 280.7 391.9 280.75 391.9 280.85 391.9 280.95 391.9 281.0 391.85 281.1 391.85 281.15 391.8 281.25 391.75 281.35 391.7 281.4 391.6 281.5 391.4 281.65 391.3 281.65 390.7 281.65 390.25 281.45 389.6 281.4 Q389.1 281.4 388.85 281.0 L388.75 280.85 388.75 280.75 388.7 280.7 388.7 280.6 388.7 280.5 388.7 280.45 388.75 280.35 388.75 280.3 388.8 280.2 388.8 280.1 388.9 280.05 389.15 279.75 389.6 279.7 M333.45 335.3 L333.5 335.4 333.65 335.5 333.8 335.6 333.85 335.7 333.95 335.8 334.0 335.95 334.05 336.15 334.1 336.2 334.1 336.35 334.1 336.4 334.1 336.55 334.05 336.6 334.05 336.75 334.0 336.85 333.95 336.95 333.9 337.05 333.8 337.15 333.65 337.25 333.5 337.35 333.4 337.4 331.95 337.25 Q331.6 337.1 331.5 336.75 L331.4 336.45 331.4 336.05 331.5 335.55 331.55 335.45 331.65 335.35 331.75 335.25 332.0 335.05 332.15 335.0 332.3 334.95 332.55 334.95 332.55 334.9 332.8 334.95 333.2 335.1 333.35 335.2 333.45 335.3 M622.6 231.3 L622.9 231.4 623.05 231.5 623.15 231.65 623.2 231.7 623.25 231.8 623.25 231.95 623.25 232.05 623.25 232.1 623.25 232.2 623.25 232.3 623.25 232.35 623.2 232.45 623.15 232.55 623.1 232.6 Q622.8 233.0 622.3 232.95 621.7 232.95 621.45 232.4 L621.45 232.35 621.45 232.25 621.4 232.15 621.4 232.1 621.4 232.0 621.45 231.9 621.45 231.85 621.5 231.75 621.5 231.65 621.75 231.45 622.1 231.25 622.3 231.25 622.6 231.3 M630.1 251.8 L630.3 251.8 630.6 251.95 630.7 252.0 630.75 252.1 630.85 252.2 630.9 252.25 630.95 252.4 631.0 252.5 631.0 252.6 631.0 252.65 631.0 252.75 630.95 252.85 630.95 252.9 630.9 253.0 630.85 253.05 630.8 253.15 630.65 253.3 630.3 253.45 630.1 253.5 629.6 253.35 629.25 252.9 629.2 252.85 629.2 252.75 629.2 252.7 629.15 252.6 629.2 252.5 629.2 252.45 629.25 252.35 629.25 252.25 629.3 252.2 629.45 252.05 Q629.6 251.9 629.8 251.85 L630.1 251.8 M528.05 210.35 L528.15 210.45 528.25 210.5 528.35 210.7 528.4 210.85 528.45 211.1 528.4 211.15 528.4 211.25 528.4 211.3 528.4 211.4 528.4 211.5 528.35 211.55 528.3 211.65 528.2 211.75 528.1 211.8 528.0 211.9 527.9 211.95 527.85 211.95 527.75 212.0 527.55 212.05 527.35 212.0 526.85 211.8 526.5 211.55 526.05 211.45 Q525.75 211.4 525.55 211.15 L525.4 210.9 525.35 210.85 525.35 210.75 525.35 210.7 525.35 210.6 525.35 210.5 525.35 210.45 525.4 210.35 525.4 210.3 525.45 210.2 525.55 210.1 525.7 209.95 525.95 209.85 526.25 209.75 526.9 209.85 Q527.3 209.9 527.55 210.1 L527.75 210.2 527.9 210.3 528.05 210.35 M538.7 228.1 Q537.2 231.35 533.65 230.1 531.95 229.5 531.55 227.85 L531.35 227.0 531.45 226.7 531.45 226.4 531.55 225.95 531.9 225.2 532.0 225.05 532.6 224.45 Q533.3 223.8 534.3 223.6 L535.15 223.5 Q536.85 223.5 537.95 224.75 539.0 225.95 538.9 227.55 L538.8 227.7 538.8 227.8 538.75 228.0 538.7 228.1 M486.55 278.3 L486.6 278.25 486.8 278.05 487.35 277.8 487.65 277.85 488.0 278.0 488.15 278.1 488.8 278.3 489.25 278.7 489.35 278.85 489.4 278.95 489.45 279.05 489.5 279.1 489.5 279.2 489.5 279.25 489.5 279.35 489.5 279.4 489.5 279.5 489.5 279.6 489.45 279.65 489.4 279.75 489.35 279.85 489.3 279.9 489.2 280.0 489.1 280.05 489.0 280.15 488.5 280.25 Q488.15 280.2 487.9 279.95 L487.8 279.9 487.0 279.55 486.6 279.15 486.5 278.95 486.5 278.9 486.5 278.8 486.5 278.7 486.45 278.65 486.5 278.55 486.5 278.5 486.5 278.4 486.55 278.3 M541.45 256.3 Q543.15 256.4 544.25 257.6 545.3 258.8 545.15 260.4 L545.1 260.55 545.1 260.65 545.05 260.85 545.0 260.95 Q543.5 264.2 539.95 262.95 538.25 262.35 537.85 260.7 L537.65 259.85 537.7 259.55 537.75 259.25 537.85 258.8 538.2 258.05 538.3 257.9 538.9 257.3 Q539.6 256.65 540.6 256.45 L541.45 256.3 M559.25 312.8 L559.4 312.85 560.45 313.0 560.7 313.1 560.9 313.35 560.95 313.45 561.0 313.6 561.05 313.7 561.05 313.75 561.05 313.85 561.05 313.9 561.05 314.0 561.0 314.1 560.95 314.25 560.9 314.3 560.8 314.4 560.65 314.55 560.55 314.65 560.5 314.65 560.15 314.7 559.95 314.65 559.8 314.65 558.7 314.5 558.45 314.35 558.2 314.0 558.15 313.95 558.15 313.85 558.15 313.8 558.1 313.7 558.15 313.6 558.15 313.45 558.15 313.35 558.2 313.3 558.35 313.05 558.45 313.0 558.75 312.85 559.05 312.75 559.25 312.8 M642.9 307.2 L642.95 307.15 642.95 307.05 643.15 306.9 643.45 306.7 643.8 306.65 643.95 306.7 644.3 306.8 644.4 306.9 644.45 306.95 644.5 307.05 644.55 307.15 644.65 307.3 644.65 307.35 644.65 307.45 644.65 307.5 644.65 307.6 644.65 307.7 644.65 307.75 644.6 307.85 644.55 307.9 644.5 308.0 644.35 308.15 643.95 308.35 643.8 308.35 643.25 308.2 642.9 307.8 642.9 307.7 642.9 307.65 642.9 307.55 642.85 307.45 642.9 307.4 642.9 307.3 642.9 307.2 M258.85 37.65 L258.75 37.8 258.65 37.8 258.55 37.85 258.4 37.8 258.3 37.65 258.3 37.4 258.35 37.35 258.5 37.25 258.55 37.25 258.65 37.3 258.75 37.3 258.75 37.35 258.8 37.4 258.85 37.45 258.85 37.65 M262.4 69.85 L262.4 70.0 262.3 70.1 262.2 70.1 262.1 70.1 262.05 70.0 262.0 69.95 262.0 69.9 262.05 69.9 262.05 69.8 262.1 69.75 262.25 69.75 262.3 69.8 262.35 69.8 262.4 69.85 M226.05 23.85 L226.05 24.0 226.0 24.0 226.0 24.05 225.95 24.05 225.9 24.1 225.9 24.15 225.75 24.15 225.55 24.1 225.4 23.95 225.4 23.65 225.45 23.55 225.65 23.45 225.75 23.45 225.8 23.45 225.95 23.5 226.0 23.55 226.0 23.6 226.05 23.65 226.1 23.75 226.1 23.8 226.05 23.85 M190.95 42.45 L191.05 42.55 191.05 42.6 191.1 42.7 191.1 42.9 191.05 42.95 191.05 43.05 190.95 43.15 190.9 43.2 190.75 43.2 190.65 43.25 190.4 43.2 190.25 43.0 190.25 42.9 190.2 42.85 190.2 42.7 190.25 42.65 190.25 42.55 190.35 42.45 190.55 42.3 190.65 42.3 190.75 42.35 190.9 42.4 190.95 42.45 M178.9 58.15 L179.1 58.1 179.2 58.1 179.35 58.1 179.5 58.15 179.6 58.25 179.65 58.3 179.65 58.35 179.7 58.4 179.7 58.55 179.65 58.6 179.65 58.65 179.6 58.7 179.6 58.75 179.2 58.9 178.8 58.65 178.8 58.5 178.75 58.5 178.8 58.45 178.8 58.3 178.9 58.15 M182.05 68.55 L182.05 68.8 182.0 68.85 181.9 68.95 181.7 69.0 181.6 69.05 181.4 69.0 181.2 68.8 181.2 68.45 181.25 68.4 181.3 68.35 181.5 68.25 181.6 68.2 181.7 68.25 181.9 68.3 182.0 68.4 182.0 68.45 182.05 68.55 M187.7 90.7 L187.7 90.95 187.65 91.0 187.65 91.05 187.6 91.1 187.55 91.2 187.35 91.25 187.25 91.25 187.0 91.2 186.85 90.95 186.8 90.95 186.8 90.75 186.85 90.7 186.85 90.65 186.95 90.55 187.1 90.45 187.25 90.4 187.35 90.45 187.5 90.5 187.55 90.55 187.6 90.55 187.65 90.6 187.65 90.65 187.7 90.7 M226.15 49.8 L226.15 50.0 226.1 50.05 226.1 50.1 226.0 50.2 225.85 50.3 225.75 50.3 225.45 50.25 225.3 50.0 225.3 49.75 225.35 49.7 225.35 49.65 225.4 49.6 225.55 49.5 225.75 49.45 225.85 49.5 226.0 49.55 226.05 49.55 226.05 49.6 226.1 49.65 226.1 49.7 226.15 49.8 M239.9 139.95 Q240.25 139.6 240.7 139.5 L240.9 139.45 241.15 139.5 241.55 139.65 241.7 139.75 241.85 139.95 241.95 140.15 242.05 140.45 242.05 140.55 242.05 140.65 242.05 140.75 242.05 140.85 242.0 140.95 241.95 141.05 241.9 141.15 241.85 141.25 Q241.4 141.85 240.65 141.85 239.85 141.85 239.6 141.15 L239.55 141.05 239.55 140.95 239.55 140.85 239.5 140.75 239.55 140.65 239.55 140.55 239.6 140.45 239.6 140.35 239.65 140.25 239.9 139.95 M228.1 188.85 L228.1 188.95 228.15 189.05 228.25 189.25 228.25 189.35 228.25 189.45 228.25 189.55 228.2 189.65 228.2 189.75 228.15 189.85 228.1 189.95 228.05 190.05 227.95 190.15 227.8 190.25 227.65 190.35 227.55 190.45 227.15 190.5 Q225.75 190.85 224.95 190.0 L224.8 189.8 224.75 189.7 224.75 189.6 224.75 189.5 224.7 189.4 224.75 189.3 224.75 189.2 224.8 189.1 224.85 189.0 224.85 188.9 224.95 188.8 225.05 188.65 225.15 188.6 225.45 188.4 225.6 188.4 225.85 188.35 227.15 188.35 Q227.6 188.35 227.95 188.65 L228.0 188.75 228.1 188.85 M281.8 180.65 L282.55 180.75 283.2 181.15 283.3 181.25 283.35 181.35 283.4 181.45 283.45 181.55 283.45 181.65 283.45 181.75 283.5 181.85 283.5 181.95 283.45 182.05 283.4 182.25 283.35 182.45 283.15 182.8 283.0 182.85 282.8 182.95 282.6 183.0 282.35 183.05 281.6 182.9 280.75 182.2 280.7 182.1 280.7 182.0 280.7 181.9 280.65 181.8 280.65 181.7 280.65 181.6 280.7 181.5 280.7 181.4 280.75 181.3 280.8 181.2 280.9 181.1 281.0 181.0 281.1 180.9 281.25 180.8 281.4 180.75 281.55 180.7 281.8 180.65 M88.55 34.05 L88.85 34.0 89.05 34.05 89.35 34.15 89.45 34.2 89.5 34.3 89.55 34.4 89.6 34.45 89.65 34.6 89.7 34.7 89.7 34.75 89.7 34.85 89.7 34.9 89.65 35.0 89.65 35.1 89.6 35.15 89.55 35.2 89.5 35.3 89.35 35.45 89.05 35.6 88.85 35.65 88.35 35.5 88.05 35.1 88.0 35.0 88.0 34.95 88.0 34.85 87.95 34.8 88.0 34.7 88.0 34.6 88.05 34.55 88.05 34.45 88.1 34.4 88.25 34.25 Q88.35 34.1 88.55 34.05 M103.0 80.4 L103.05 80.45 103.1 80.6 103.15 80.7 103.15 80.75 103.15 80.85 103.15 80.9 103.1 81.0 103.1 81.05 103.1 81.15 103.05 81.2 103.0 81.3 102.8 81.45 102.5 81.6 102.3 81.65 101.8 81.5 101.5 81.1 101.5 81.0 101.45 80.95 101.45 80.85 101.45 80.8 101.45 80.7 101.5 80.65 101.5 80.55 101.55 80.5 101.55 80.4 101.7 80.25 Q101.8 80.1 102.0 80.1 L102.3 80.0 102.5 80.05 102.8 80.15 102.9 80.25 102.95 80.3 103.0 80.4 M143.95 74.2 L143.9 74.4 143.9 74.55 143.85 74.75 Q141.95 78.65 137.4 77.4 134.95 76.7 134.35 74.4 L134.15 73.3 134.2 72.95 134.3 72.4 134.45 71.85 134.9 70.9 135.65 70.15 Q136.45 69.45 137.55 69.15 L138.85 68.95 Q141.15 68.8 142.65 70.35 144.2 71.9 144.05 74.0 L143.95 74.2 M69.5 21.25 L69.5 21.2 69.55 21.1 69.55 21.05 69.6 20.95 69.6 20.85 69.75 20.7 Q69.85 20.6 70.1 20.55 L70.35 20.45 70.55 20.5 70.85 20.6 70.95 20.7 71.0 20.75 71.05 20.85 71.1 20.9 71.2 21.05 71.2 21.15 71.2 21.25 71.2 21.3 71.2 21.4 71.2 21.45 71.2 21.55 71.15 21.6 71.1 21.7 71.05 21.75 70.85 21.95 70.55 22.05 70.35 22.1 69.85 21.95 69.55 21.55 69.55 21.5 69.55 21.4 69.5 21.35 69.5 21.25 M76.9 24.45 Q77.05 24.3 77.25 24.25 L77.55 24.2 77.7 24.2 78.05 24.35 78.15 24.4 78.2 24.5 78.25 24.55 78.3 24.65 78.35 24.8 78.4 24.9 78.4 25.0 78.35 25.1 78.35 25.15 78.35 25.25 78.3 25.35 78.25 25.4 78.25 25.5 78.05 25.65 77.7 25.8 77.55 25.8 77.05 25.65 76.7 25.3 76.7 25.2 76.7 25.1 76.7 25.05 76.65 24.95 76.7 24.9 76.7 24.8 76.7 24.75 76.75 24.65 76.8 24.6 76.9 24.45 M46.9 16.3 L47.0 16.15 47.35 15.95 47.65 15.85 47.85 15.9 48.15 16.05 48.25 16.1 48.3 16.2 48.35 16.25 48.4 16.35 48.5 16.5 48.5 16.55 48.5 16.65 48.5 16.75 48.5 16.8 48.5 16.9 48.5 16.95 48.4 17.0 48.4 17.1 48.35 17.2 48.15 17.35 47.85 17.5 47.65 17.5 47.15 17.35 46.85 17.0 46.8 16.9 46.8 16.8 46.8 16.75 46.8 16.65 46.8 16.55 46.85 16.45 46.85 16.35 46.9 16.3 M60.3 28.15 L60.35 28.25 60.4 28.3 60.45 28.4 60.55 28.55 60.55 28.6 60.55 28.7 60.55 28.75 60.55 28.85 60.55 28.95 60.55 29.0 60.5 29.1 60.45 29.15 60.4 29.25 60.2 29.4 59.9 29.55 59.7 29.6 59.2 29.4 58.9 29.05 58.9 28.95 58.85 28.9 58.85 28.8 58.85 28.75 58.85 28.65 58.9 28.55 58.9 28.5 58.95 28.4 58.95 28.35 59.1 28.2 Q59.2 28.05 59.4 28.0 L59.7 27.95 59.9 28.0 60.2 28.1 60.3 28.15 M50.4 44.15 Q50.55 44.0 50.7 44.0 L50.9 43.95 51.2 44.0 51.5 44.1 51.6 44.2 51.7 44.35 51.75 44.4 51.75 44.5 51.85 44.65 51.85 44.75 51.85 44.8 51.8 44.85 51.8 44.95 51.8 45.05 51.75 45.1 51.75 45.2 51.7 45.25 Q51.4 45.6 50.9 45.6 50.3 45.55 50.1 45.05 L50.1 45.0 50.1 44.9 50.05 44.8 50.05 44.75 50.05 44.65 50.1 44.6 50.1 44.55 50.15 44.45 50.15 44.35 50.4 44.15 M79.1 50.9 L79.4 51.05 79.5 51.15 79.6 51.2 79.65 51.3 79.7 51.35 79.75 51.5 79.8 51.6 79.8 51.65 79.8 51.75 79.75 51.8 79.75 51.9 79.75 51.95 79.7 52.05 79.65 52.1 79.6 52.2 79.45 52.35 79.1 52.5 78.9 52.5 78.45 52.4 78.1 52.0 78.1 51.9 78.1 51.85 78.1 51.75 78.05 51.7 78.1 51.6 78.1 51.55 78.1 51.45 78.15 51.35 78.15 51.3 78.3 51.15 Q78.45 51.0 78.65 50.95 L78.9 50.9 79.1 50.9 M92.85 121.25 L93.0 121.2 93.2 121.15 93.5 121.2 93.85 121.35 94.0 121.45 94.15 121.65 94.25 121.85 94.35 122.15 94.35 122.25 94.35 122.4 94.35 122.45 94.35 122.55 94.3 122.65 94.25 122.75 94.2 122.85 94.15 122.95 94.05 123.05 93.95 123.15 93.8 123.3 93.7 123.35 93.6 123.35 93.5 123.4 93.2 123.45 92.55 123.25 92.15 122.75 92.15 122.6 92.1 122.55 92.1 122.4 92.1 122.35 92.1 122.25 92.1 122.15 92.15 122.05 92.15 121.95 92.15 121.85 92.3 121.65 92.5 121.45 Q92.65 121.3 92.85 121.25 M129.1 187.8 L129.05 187.75 129.05 187.6 129.0 187.55 129.0 187.4 129.0 187.3 129.05 187.2 129.05 187.1 129.15 186.85 129.35 186.65 129.65 186.4 129.9 186.35 130.15 186.35 130.15 186.3 130.95 186.45 131.7 186.8 131.85 186.85 131.95 187.0 132.0 187.1 132.1 187.2 132.15 187.3 132.15 187.4 132.2 187.5 132.2 187.6 132.2 187.7 132.2 187.8 132.15 187.9 132.15 188.0 132.1 188.1 132.05 188.2 132.0 188.3 131.9 188.4 131.75 188.5 131.65 188.6 131.5 188.65 129.9 188.5 129.1 187.95 129.1 187.8 M150.25 216.5 L150.25 216.7 150.2 216.9 150.15 217.1 Q148.25 221.1 143.8 219.55 141.7 218.8 141.2 216.75 L140.95 215.65 141.05 215.3 141.05 214.9 141.2 214.35 141.65 213.45 141.75 213.25 142.45 212.5 Q143.35 211.65 144.65 211.4 L145.7 211.3 Q147.8 211.35 149.15 212.9 150.5 214.4 150.3 216.35 L150.25 216.5 M91.4 225.0 L91.4 225.1 91.4 225.2 91.4 225.3 91.35 225.4 91.35 225.5 91.3 225.6 91.25 225.7 91.15 225.8 91.1 225.9 90.95 226.0 90.8 226.1 90.65 226.2 90.5 226.2 90.3 226.25 89.65 226.05 89.2 225.55 89.2 225.45 89.2 225.3 89.15 225.25 89.15 225.1 89.15 225.05 89.2 224.9 89.2 224.85 89.25 224.7 89.3 224.65 89.35 224.5 89.45 224.45 89.75 224.2 89.9 224.15 90.0 224.15 90.3 224.1 90.5 224.15 90.9 224.3 91.05 224.4 91.15 224.5 91.2 224.6 91.25 224.7 91.35 224.9 91.4 225.0 M118.6 228.05 L118.65 228.05 118.8 228.15 118.85 228.15 118.9 228.2 118.9 228.25 118.95 228.25 118.95 228.55 118.9 228.6 118.9 228.65 118.85 228.65 118.8 228.7 118.75 228.7 118.7 228.75 118.6 228.75 118.4 228.7 118.25 228.55 118.25 228.45 118.2 228.4 118.25 228.35 118.25 228.25 118.3 228.2 118.35 228.2 118.45 228.1 118.5 228.1 118.5 228.05 118.6 228.05 M106.4 266.4 Q104.9 269.65 101.3 268.4 99.65 267.8 99.25 266.15 L99.05 265.3 99.1 265.0 99.15 264.7 99.25 264.25 99.6 263.5 99.7 263.35 100.25 262.75 Q101.0 262.1 102.0 261.9 L102.85 261.75 Q104.5 261.85 105.6 263.05 106.7 264.25 106.55 265.8 L106.5 266.0 106.45 266.1 106.45 266.25 106.4 266.4 M148.35 263.95 L148.65 264.0 149.15 264.25 149.3 264.35 149.4 264.45 149.5 264.6 149.6 264.7 149.7 264.95 149.75 265.1 149.75 265.2 149.75 265.35 149.75 265.45 149.7 265.6 149.7 265.7 149.6 265.85 149.55 265.95 149.45 266.1 149.35 266.2 149.2 266.35 149.0 266.5 148.85 266.55 148.65 266.6 148.35 266.65 147.55 266.4 147.0 265.75 147.0 265.6 146.95 265.5 146.95 265.35 146.9 265.25 146.95 265.15 147.0 265.0 147.0 264.9 147.05 264.75 147.1 264.65 147.2 264.5 147.35 264.4 147.7 264.15 147.85 264.05 148.05 264.0 148.35 264.0 148.35 263.95 M146.55 282.85 L147.05 283.05 147.25 283.15 147.3 283.3 147.4 283.4 147.5 283.55 147.6 283.8 147.6 283.9 147.6 284.05 147.6 284.15 147.6 284.3 147.6 284.4 147.6 284.55 147.5 284.7 147.45 284.8 147.35 284.95 147.25 285.05 147.1 285.2 146.9 285.3 146.75 285.4 146.55 285.45 146.25 285.5 145.45 285.25 144.9 284.6 144.9 284.45 144.9 284.35 144.85 284.2 144.85 284.1 144.85 283.95 144.9 283.85 144.9 283.7 144.95 283.6 145.0 283.45 145.15 283.3 145.25 283.25 145.6 282.95 145.75 282.85 145.95 282.85 146.25 282.8 146.55 282.85 M74.9 219.95 L75.1 219.95 75.1 219.9 75.4 219.95 75.75 220.1 75.9 220.2 76.0 220.35 76.05 220.4 76.1 220.55 76.2 220.75 76.25 220.8 76.25 220.95 76.25 221.0 76.2 221.15 76.2 221.25 76.2 221.35 76.15 221.45 76.1 221.55 76.05 221.65 75.95 221.7 75.8 221.85 75.65 221.95 75.55 222.0 75.4 222.05 75.1 222.1 74.5 221.9 74.05 221.35 74.05 221.25 74.0 221.15 74.0 221.05 74.0 220.95 74.0 220.85 74.05 220.75 74.05 220.65 74.1 220.55 74.15 220.45 74.25 220.35 74.35 220.25 74.6 220.05 74.75 220.0 74.9 219.95 M45.3 217.7 Q47.25 217.75 48.6 219.1 49.9 220.4 50.05 222.2 L49.95 222.75 49.8 223.5 49.3 224.65 49.1 225.0 Q46.35 228.0 42.75 225.85 40.65 224.65 40.6 222.35 L40.6 222.15 40.65 221.95 40.65 221.75 40.65 221.6 40.65 221.4 40.7 221.2 40.75 221.0 40.8 220.85 40.85 220.65 Q41.1 220.05 41.5 219.55 42.65 218.1 44.6 217.8 L45.3 217.7 M50.6 246.65 L50.7 246.45 50.9 246.3 51.25 246.05 51.4 246.05 51.65 246.0 51.9 246.05 52.3 246.2 52.45 246.3 52.55 246.5 52.7 246.7 52.8 247.0 52.8 247.1 52.75 247.2 52.75 247.3 52.75 247.4 52.75 247.5 52.7 247.6 52.6 247.7 52.6 247.8 52.45 247.9 52.35 248.0 52.25 248.1 52.1 248.15 52.05 248.2 51.9 248.25 51.65 248.3 Q51.3 248.3 51.0 248.1 L50.6 247.6 50.55 247.5 50.55 247.4 50.55 247.25 50.5 247.2 50.5 247.05 50.55 247.0 50.55 246.85 50.6 246.8 50.6 246.65 M58.05 246.9 L58.05 246.8 58.1 246.8 58.15 246.7 58.4 246.55 58.6 246.5 58.7 246.55 58.9 246.6 59.0 246.65 59.05 246.7 59.05 246.75 59.1 246.8 59.15 246.9 59.15 246.95 59.15 247.05 59.15 247.1 59.15 247.2 59.15 247.25 59.1 247.25 59.1 247.3 59.05 247.4 58.95 247.5 58.7 247.6 58.6 247.6 58.25 247.5 58.05 247.25 58.05 247.1 58.0 247.05 58.05 247.0 58.05 246.9 M70.55 236.35 L70.9 236.55 71.05 236.65 71.15 236.7 71.2 236.85 71.3 236.9 71.35 237.05 71.35 237.1 71.4 237.25 71.55 237.3 71.6 237.45 71.65 237.55 71.7 237.65 71.7 237.75 71.7 237.85 71.75 237.95 71.75 238.05 71.75 238.15 71.75 238.25 71.7 238.35 71.7 238.45 71.7 238.55 71.6 238.65 71.55 238.75 71.5 238.85 71.4 238.95 71.3 239.05 71.15 239.15 71.0 239.2 70.0 239.15 Q69.55 239.0 69.4 238.55 L69.35 238.45 68.9 238.2 68.2 237.7 68.1 237.5 68.05 237.4 68.05 237.3 68.05 237.2 68.0 237.1 68.05 237.0 68.05 236.9 68.1 236.8 68.1 236.7 68.15 236.6 68.35 236.4 68.55 236.2 68.9 236.0 69.05 235.95 69.3 235.95 69.7 235.95 70.05 236.15 70.3 236.3 70.55 236.35 M25.25 245.0 L25.55 244.95 26.65 245.25 27.65 245.9 27.8 246.05 27.85 246.15 27.9 246.25 27.95 246.35 28.0 246.45 28.05 246.55 28.1 246.65 28.1 246.75 28.1 246.85 28.1 246.95 28.05 247.05 28.05 247.15 28.0 247.25 27.95 247.35 27.9 247.45 27.8 247.55 27.65 247.65 27.5 247.75 27.4 247.8 26.0 247.7 Q25.05 247.2 24.45 246.35 L24.45 246.25 24.4 246.15 24.4 246.05 24.4 245.95 24.4 245.85 24.45 245.75 24.45 245.65 24.5 245.55 24.55 245.45 24.65 245.35 24.75 245.25 24.8 245.15 25.0 245.05 25.15 245.0 25.25 245.0 M80.9 252.75 L80.9 253.0 80.85 253.05 80.85 253.1 80.8 253.15 80.75 253.2 80.7 253.25 80.65 253.3 80.55 253.35 80.45 253.35 80.35 253.4 80.0 253.3 79.8 253.05 79.8 252.9 79.75 252.85 79.75 252.8 79.8 252.7 79.8 252.6 79.9 252.45 Q80.0 252.3 80.2 252.25 L80.35 252.25 80.45 252.25 80.65 252.35 80.75 252.4 80.8 252.5 80.9 252.6 80.9 252.75 M74.45 249.25 L74.45 249.3 74.5 249.35 74.5 249.45 74.55 249.5 74.55 249.65 74.55 249.75 74.5 249.75 74.5 249.8 74.5 249.9 74.45 249.95 74.35 250.0 74.1 250.15 74.0 250.15 73.65 250.05 73.45 249.8 73.45 249.65 73.4 249.6 73.45 249.5 73.45 249.45 73.45 249.35 73.45 249.3 73.55 249.25 Q73.65 249.15 73.8 249.1 L74.0 249.05 74.1 249.05 74.3 249.15 74.4 249.2 74.45 249.25 M71.4 256.75 L71.75 256.9 71.85 256.95 71.9 257.0 71.95 257.1 72.0 257.2 72.05 257.25 72.1 257.45 72.1 257.5 72.1 257.6 72.1 257.65 72.1 257.75 72.1 257.85 72.05 257.9 72.0 258.0 71.95 258.1 Q71.6 258.45 71.1 258.4 70.45 258.4 70.25 257.85 L70.2 257.8 70.2 257.7 70.2 257.65 70.2 257.55 70.2 257.45 70.2 257.4 70.25 257.3 70.25 257.2 70.3 257.15 70.45 257.0 Q70.55 256.8 70.8 256.75 L71.1 256.7 71.4 256.75 M60.65 285.0 L60.7 284.9 60.75 284.75 60.75 284.65 60.9 284.5 61.0 284.4 61.35 284.15 61.55 284.05 61.75 284.0 62.05 284.0 62.05 283.95 62.35 284.05 62.85 284.2 63.0 284.35 63.1 284.45 63.2 284.6 63.25 284.7 63.4 284.95 63.4 285.1 63.4 285.25 63.4 285.35 63.4 285.5 63.4 285.6 63.4 285.7 63.3 285.85 63.25 285.95 63.15 286.1 63.05 286.2 62.85 286.35 62.7 286.45 62.5 286.55 62.35 286.6 62.05 286.65 61.25 286.4 60.7 285.75 60.65 285.65 60.65 285.5 60.65 285.4 60.6 285.25 60.65 285.15 60.65 285.0 M25.2 307.7 L25.5 307.7 25.5 307.65 25.8 307.75 26.3 307.95 26.45 308.05 26.55 308.15 26.65 308.3 26.7 308.45 26.85 308.65 26.85 308.8 26.85 308.95 26.85 309.05 26.85 309.2 26.85 309.3 26.85 309.45 26.75 309.55 26.7 309.7 26.6 309.8 26.5 309.9 26.3 310.05 26.15 310.15 25.95 310.25 25.8 310.3 25.5 310.35 24.7 310.1 24.15 309.45 24.1 309.35 24.1 309.25 24.1 309.1 24.05 309.0 24.1 308.85 24.1 308.7 24.15 308.6 24.2 308.45 24.2 308.35 24.35 308.2 24.45 308.1 24.8 307.85 25.0 307.75 25.2 307.7 M86.05 343.65 L86.05 343.6 86.25 343.35 86.3 343.25 86.55 343.15 86.9 343.05 88.05 343.3 89.05 343.7 89.15 343.8 89.25 343.95 89.3 344.05 89.3 344.1 89.35 344.2 89.35 344.3 89.35 344.45 89.3 344.55 89.3 344.6 89.25 344.7 89.2 344.75 89.15 344.85 88.85 345.1 88.75 345.15 88.45 345.2 87.85 345.1 87.7 345.0 87.55 344.95 86.7 344.75 86.4 344.65 86.05 344.25 86.05 344.15 86.05 344.1 86.05 344.0 86.0 343.9 86.05 343.85 86.05 343.75 86.05 343.65 M108.35 326.9 L108.35 326.8 108.55 326.6 Q108.7 326.35 109.0 326.3 L109.2 326.25 109.4 326.3 109.7 326.45 109.85 326.5 109.95 326.65 110.05 326.85 110.1 327.1 110.1 327.15 110.1 327.25 110.1 327.35 110.1 327.4 110.05 327.5 110.05 327.55 110.0 327.65 109.95 327.75 109.9 327.8 109.8 327.9 109.65 328.0 109.6 328.0 109.5 328.05 109.4 328.1 109.2 328.1 108.7 327.95 108.35 327.55 108.35 327.45 108.35 327.4 108.3 327.3 108.3 327.2 108.3 327.15 108.3 327.05 108.35 327.0 108.35 326.9 M104.6 342.35 L104.9 342.45 105.0 342.55 105.15 342.7 105.25 342.85 105.3 343.1 105.3 343.2 105.3 343.25 105.25 343.35 105.25 343.4 105.25 343.5 105.25 343.6 105.2 343.65 105.15 343.75 105.05 343.85 104.95 343.9 104.85 344.0 104.75 344.05 102.6 343.85 102.4 343.55 102.35 343.5 102.35 343.4 102.35 343.3 102.35 343.25 102.35 343.15 102.35 343.1 102.4 343.0 102.4 342.9 102.45 342.85 102.95 342.5 104.0 342.35 104.1 342.35 104.2 342.3 104.4 342.3 104.6 342.35 M85.85 353.1 L86.15 353.0 86.6 353.05 87.1 353.3 87.25 353.35 87.35 353.5 87.4 353.6 87.45 353.7 87.45 353.75 87.5 353.85 87.5 353.9 87.5 354.0 87.5 354.1 87.45 354.15 87.45 354.25 87.4 354.35 87.35 354.4 87.3 354.5 Q87.0 354.9 86.45 354.85 85.65 354.8 85.3 354.15 L85.25 354.1 85.25 354.0 85.25 353.95 85.2 353.85 85.25 353.75 85.25 353.7 85.3 353.6 85.3 353.5 85.35 353.45 85.6 353.2 85.85 353.1 M319.05 215.65 L319.1 215.75 319.15 215.85 319.15 215.9 319.15 216.0 319.15 216.05 319.1 216.1 319.1 216.2 319.05 216.25 319.05 216.3 319.0 216.4 318.4 216.65 Q317.8 216.7 317.6 216.2 L317.55 216.15 317.55 216.05 317.55 215.9 317.55 215.8 317.55 215.75 317.6 215.7 317.6 215.55 317.75 215.45 317.9 215.3 318.25 215.2 318.55 215.3 318.8 215.4 318.9 215.45 318.95 215.55 319.05 215.65 M303.65 282.2 L303.8 282.15 304.05 282.15 304.05 282.1 304.4 282.2 304.85 282.3 304.95 282.4 305.05 282.55 305.1 282.6 305.2 282.75 305.25 282.8 305.3 283.0 305.3 283.15 305.3 283.25 305.3 283.35 305.25 283.45 305.25 283.55 305.2 283.65 305.15 283.75 305.1 283.85 305.0 283.9 304.9 284.05 304.7 284.15 304.6 284.2 303.8 284.25 Q303.2 284.1 302.95 283.55 L302.95 283.45 302.95 283.35 302.95 283.25 302.9 283.15 302.95 283.05 302.95 282.95 302.95 282.85 303.0 282.75 303.05 282.65 303.25 282.45 303.35 282.35 303.65 282.2 M240.95 213.4 L241.25 213.7 241.45 213.9 241.5 214.0 241.55 214.1 241.6 214.2 241.6 214.3 241.6 214.4 241.65 214.5 241.65 214.6 241.65 214.7 241.6 214.9 241.5 215.1 241.3 215.4 241.15 215.5 240.95 215.6 240.8 215.65 240.5 215.7 239.85 215.5 239.4 215.1 239.25 214.9 239.2 214.8 239.15 214.7 238.95 214.65 238.4 214.35 238.15 213.95 238.1 213.8 238.1 213.75 238.1 213.65 238.05 213.55 238.1 213.4 238.1 213.35 238.15 213.25 238.2 213.1 238.2 213.05 238.3 212.9 238.4 212.85 238.5 212.75 238.7 212.65 238.8 212.55 238.95 212.55 239.2 212.5 240.0 212.6 240.65 213.0 240.8 213.2 240.95 213.4 M195.85 218.65 L196.05 218.65 196.5 218.8 196.85 219.0 196.9 219.05 196.95 219.2 197.0 219.25 197.05 219.4 197.15 219.6 197.15 219.65 197.15 219.75 197.15 219.9 197.1 219.95 197.1 220.1 197.05 220.2 197.0 220.3 196.9 220.35 196.85 220.45 196.7 220.55 196.55 220.65 196.4 220.75 196.05 220.8 194.8 220.6 194.7 220.5 194.3 220.45 193.55 220.1 193.25 219.7 193.2 219.6 193.2 219.5 193.2 219.4 193.2 219.3 193.2 219.2 193.2 219.1 193.25 219.0 193.3 218.9 193.35 218.8 193.45 218.7 193.5 218.6 193.65 218.5 193.8 218.4 193.95 218.3 194.1 218.3 194.3 218.3 194.3 218.25 195.15 218.35 195.85 218.65 M195.75 267.9 L196.25 268.05 196.45 268.2 196.55 268.3 196.6 268.45 196.7 268.55 196.8 268.8 196.85 268.95 196.85 269.1 196.85 269.2 196.85 269.35 196.8 269.45 196.8 269.6 196.7 269.7 196.65 269.85 196.55 269.95 196.45 270.1 196.3 270.2 196.15 270.35 195.95 270.4 195.8 270.45 195.45 270.5 194.65 270.25 Q194.25 270.05 194.15 269.65 L194.1 269.5 194.1 269.4 194.05 269.25 194.05 269.1 194.05 269.0 194.1 268.85 194.15 268.75 194.2 268.6 194.2 268.5 194.35 268.35 194.45 268.25 194.8 268.0 194.95 267.9 195.15 267.85 195.45 267.85 195.75 267.9 M252.65 319.25 L252.85 319.05 Q253.05 318.9 253.3 318.85 L253.55 318.8 254.8 318.85 Q255.25 318.85 255.6 319.15 L255.65 319.2 255.75 319.35 255.8 319.4 255.85 319.55 255.95 319.75 255.95 319.85 255.95 319.95 255.9 320.05 255.9 320.15 255.9 320.25 255.8 320.35 255.75 320.45 255.7 320.55 255.35 320.8 Q253.85 321.45 252.7 320.55 L252.5 320.3 252.45 320.15 252.45 320.1 252.45 319.95 252.4 319.9 252.45 319.75 252.45 319.65 252.5 319.55 252.5 319.45 252.55 319.35 252.65 319.25 M288.85 351.75 L289.05 351.9 289.2 352.0 289.35 352.2 289.45 352.4 289.5 352.6 289.55 352.8 289.55 352.9 289.55 353.0 289.55 353.1 289.5 353.2 289.45 353.3 289.4 353.4 289.35 353.5 289.25 353.6 289.1 353.7 289.0 353.8 288.9 353.85 288.8 353.9 288.65 353.95 288.4 354.0 287.35 353.6 286.8 353.15 286.7 353.05 286.65 352.9 286.6 352.8 286.6 352.7 286.55 352.5 286.55 352.4 286.55 352.3 286.55 352.2 286.6 352.1 286.65 351.9 286.7 351.8 286.9 351.6 287.3 351.35 287.7 351.3 287.7 351.25 288.15 351.4 288.5 351.55 288.6 351.65 288.85 351.75" fill="#e8e2f1" fill-rule="evenodd" stroke="none"/>
    </g>
    <linearGradient gradientTransform="matrix(0.1554, 0.2837, -0.2213, 0.1145, 393.8, 219.25)" gradientUnits="userSpaceOnUse" id="decoration257-gradient0" spreadMethod="pad" x1="-819.2" x2="819.2">
      <stop offset="0.0" stop-color="#0b162d"/>
      <stop offset="0.4117647058823529" stop-color="#11203c" stop-opacity="0.99607843"/>
      <stop offset="1.0" stop-color="#1b2d4e" stop-opacity="0.9882353"/>
    </linearGradient>
    <radialGradient cx="0" cy="0" gradientTransform="matrix(0.3697, -0.0107, 0.0092, 0.2827, 452.15, 210.75)" gradientUnits="userSpaceOnUse" id="decoration257-gradient1" r="819.2" spreadMethod="pad">
      <stop offset="0.0" stop-color="#444972"/>
      <stop offset="1.0" stop-color="#132441" stop-opacity="0.0"/>
    </radialGradient>
  </defs>
</svg>
