<?xml version="1.0" encoding="UTF-8" standalone="no"?>
<svg xmlns:xlink="http://www.w3.org/1999/xlink" height="121.25px" width="65.85px" xmlns="http://www.w3.org/2000/svg">
  <g transform="matrix(1.0, 0.0, 0.0, 1.0, 39.0, 120.6)">
    <use height="121.25" transform="matrix(1.0, 0.0, 0.0, 1.0, -39.0, -120.6)" width="65.85" xlink:href="#decoration259-shape0"/>
  </g>
  <defs>
    <g id="decoration259-shape0" transform="matrix(1.0, 0.0, 0.0, 1.0, 39.0, 120.6)">
      <path d="M-20.45 -111.3 L-20.65 -111.1 Q-21.45 -111.1 -21.85 -111.85 -21.3 -113.2 -20.0 -114.5 -19.3 -114.65 -18.9 -113.85 L-19.2 -113.4 -20.45 -111.3" fill="#101010" fill-rule="evenodd" stroke="none"/>
      <path d="M-19.2 -113.4 Q-13.85 -110.05 -9.6 -106.15 L-5.25 -101.65 -2.55 -98.2 Q-3.25 -96.3 -5.25 -97.25 -6.9 -100.3 -10.8 -103.95 -14.55 -107.4 -20.45 -111.3 L-19.2 -113.4" fill="url(#decoration259-gradient0)" fill-rule="evenodd" stroke="none"/>
      <path d="M-2.55 -98.2 Q-1.95 -94.95 -2.2 -87.0 L-2.35 -83.7 -2.65 -80.4 -2.8 -80.05 Q-4.6 -78.95 -5.8 -80.4 -5.45 -80.95 -5.4 -81.65 L-5.25 -82.85 -4.8 -88.65 Q-4.6 -93.05 -5.2 -97.15 L-5.25 -97.25 Q-3.25 -96.3 -2.55 -98.2" fill="url(#decoration259-gradient1)" fill-rule="evenodd" stroke="none"/>
      <path d="M-2.8 -80.05 Q-3.25 -79.25 -4.85 -77.85 L-5.25 -77.5 Q-7.3 -76.1 -10.35 -76.7 -15.3 -77.65 -17.55 -83.05 L-15.15 -84.05 Q-12.65 -79.2 -9.15 -79.05 -6.6 -79.0 -5.8 -80.4 -4.6 -78.95 -2.8 -80.05" fill="#121212" fill-rule="evenodd" stroke="none"/>
      <path d="M-20.45 -111.3 L-20.65 -111.1 Q-21.45 -111.1 -21.85 -111.85 -21.3 -113.2 -20.0 -114.5 -19.3 -114.65 -18.9 -113.85 L-19.2 -113.4 Q-13.85 -110.05 -9.6 -106.15 L-5.25 -101.65 -2.55 -98.2 Q-1.95 -94.95 -2.2 -87.0 L-2.35 -83.7 -2.65 -80.4 -2.8 -80.05 Q-3.25 -79.25 -4.85 -77.85 L-5.25 -77.5 Q-7.3 -76.1 -10.35 -76.7 -15.3 -77.65 -17.55 -83.05 L-15.15 -84.05 Q-12.65 -79.2 -9.15 -79.05 -6.6 -79.0 -5.8 -80.4 -5.45 -80.95 -5.4 -81.65 L-5.25 -82.85 -4.8 -88.65 Q-4.6 -93.05 -5.2 -97.15 L-5.25 -97.25 Q-6.9 -100.3 -10.8 -103.95 -14.55 -107.4 -20.45 -111.3 L-19.2 -113.4" fill="none" stroke="#000000" stroke-linecap="round" stroke-linejoin="round" stroke-opacity="0.34117648" stroke-width="0.2"/>
      <path d="M-0.45 -119.05 L-0.95 -119.2 Q-1.35 -119.95 -0.8 -120.35 L2.6 -119.9 Q3.15 -119.1 2.55 -118.55 L2.1 -118.6 -0.35 -119.05 -0.45 -119.05" fill="#101010" fill-rule="evenodd" stroke="none"/>
      <path d="M2.1 -118.6 L1.6 -107.45 -1.15 -107.2 -0.45 -119.05 -0.35 -119.05 2.1 -118.6" fill="#0e0e0e" fill-rule="evenodd" stroke="none"/>
      <path d="M2.1 -118.6 L1.6 -107.45 -1.15 -107.2 -0.45 -119.05 -0.95 -119.2 Q-1.35 -119.95 -0.8 -120.35 L2.6 -119.9 Q3.15 -119.1 2.55 -118.55 L2.1 -118.6 -0.35 -119.05 -0.45 -119.05" fill="none" stroke="#000000" stroke-linecap="round" stroke-linejoin="round" stroke-opacity="0.34117648" stroke-width="0.2"/>
      <path d="M19.1 -117.5 L18.85 -117.95 Q19.25 -118.8 19.9 -118.6 21.25 -117.3 21.8 -115.95 21.4 -115.2 20.6 -115.2 L20.4 -115.45 19.1 -117.5" fill="#101010" fill-rule="evenodd" stroke="none"/>
      <path d="M19.1 -117.5 L20.4 -115.45 Q14.5 -111.5 10.75 -108.1 6.8 -104.45 5.2 -101.35 3.2 -100.45 2.5 -102.3 L5.2 -105.8 9.55 -110.25 Q13.8 -114.15 19.1 -117.5" fill="url(#decoration259-gradient2)" fill-rule="evenodd" stroke="none"/>
      <path d="M5.2 -101.35 L5.15 -101.25 Q4.55 -97.2 4.75 -92.8 L5.2 -86.95 5.35 -85.8 Q5.4 -85.05 5.75 -84.55 4.55 -83.05 2.75 -84.2 L2.6 -84.55 2.3 -87.85 2.15 -91.15 Q1.9 -99.1 2.5 -102.3 3.2 -100.45 5.2 -101.35" fill="url(#decoration259-gradient3)" fill-rule="evenodd" stroke="none"/>
      <path d="M5.75 -84.55 Q6.55 -83.15 9.1 -83.2 12.55 -83.3 15.1 -88.2 L17.5 -87.2 Q15.25 -81.75 10.3 -80.85 7.2 -80.25 5.2 -81.6 L4.8 -81.95 Q3.2 -83.35 2.75 -84.2 4.55 -83.05 5.75 -84.55" fill="#121212" fill-rule="evenodd" stroke="none"/>
      <path d="M20.4 -115.45 L20.6 -115.2 Q21.4 -115.2 21.8 -115.95 21.25 -117.3 19.9 -118.6 19.25 -118.8 18.85 -117.95 L19.1 -117.5 20.4 -115.45 Q14.5 -111.5 10.75 -108.1 6.8 -104.45 5.2 -101.35 L5.15 -101.25 Q4.55 -97.2 4.75 -92.8 L5.2 -86.95 5.35 -85.8 Q5.4 -85.05 5.75 -84.55 6.55 -83.15 9.1 -83.2 12.55 -83.3 15.1 -88.2 L17.5 -87.2 Q15.25 -81.75 10.3 -80.85 7.2 -80.25 5.2 -81.6 L4.8 -81.95 Q3.2 -83.35 2.75 -84.2 L2.6 -84.55 2.3 -87.85 2.15 -91.15 Q1.9 -99.1 2.5 -102.3 L5.2 -105.8 9.55 -110.25 Q13.8 -114.15 19.1 -117.5" fill="none" stroke="#000000" stroke-linecap="round" stroke-linejoin="round" stroke-opacity="0.34117648" stroke-width="0.2"/>
      <path d="M-2.35 -108.95 L-3.35 -108.95 Q-4.0 -109.85 -3.35 -110.8 -0.4 -111.3 3.0 -110.8 4.0 -110.1 3.0 -108.95 L2.35 -108.95 -2.35 -108.95" fill="#101010" fill-rule="evenodd" stroke="none"/>
      <path d="M2.35 -60.7 L2.35 -15.05 6.7 -15.05 Q8.1 -14.15 6.7 -13.2 0.6 -12.65 -6.5 -13.2 -8.55 -13.9 -6.5 -15.05 L-2.35 -15.05 -2.35 -43.7 Q1.2 -47.95 2.35 -60.7 M2.35 -15.05 L-2.35 -15.05 2.35 -15.05" fill="#0e0e0e" fill-rule="evenodd" stroke="none"/>
      <path d="M2.35 -108.95 L2.35 -60.7 Q1.2 -47.95 -2.35 -43.7 L-2.35 -108.95 2.35 -108.95" fill="url(#decoration259-gradient4)" fill-rule="evenodd" stroke="none"/>
      <path d="M-2.35 -108.95 L-3.35 -108.95 Q-4.0 -109.85 -3.35 -110.8 -0.4 -111.3 3.0 -110.8 4.0 -110.1 3.0 -108.95 L2.35 -108.95 2.35 -60.7 2.35 -15.05 6.7 -15.05 Q8.1 -14.15 6.7 -13.2 0.6 -12.65 -6.5 -13.2 -8.55 -13.9 -6.5 -15.05 L-2.35 -15.05 -2.35 -43.7 -2.35 -108.95 2.35 -108.95 M-2.35 -15.05 L2.35 -15.05" fill="none" stroke="#000000" stroke-linecap="round" stroke-linejoin="round" stroke-opacity="0.34117648" stroke-width="0.2"/>
      <path d="M2.1 -1.9 L2.3 -0.75 Q1.4 1.55 -0.95 -0.15 L-1.0 -1.3 Q-0.2 -3.45 2.1 -1.9" fill="#121212" fill-rule="evenodd" stroke="none"/>
      <path d="M-1.35 -7.0 Q-1.55 -29.65 -1.25 -45.6 L1.55 -45.6 Q1.15 -33.0 1.5 -6.55 L1.1 -6.2 -0.65 -6.3 -1.35 -7.0" fill="url(#decoration259-gradient5)" fill-rule="evenodd" stroke="none"/>
      <path d="M-1.35 -7.0 L-0.65 -6.3 1.1 -6.2 1.5 -6.55 2.1 -1.9 Q-0.2 -3.45 -1.0 -1.3 L-1.35 -7.0" fill="url(#decoration259-gradient6)" fill-rule="evenodd" stroke="none"/>
      <path d="M1.5 -6.55 Q1.15 -33.0 1.55 -45.6 L-1.25 -45.6 Q-1.55 -29.65 -1.35 -7.0 M1.5 -6.55 L2.1 -1.9 Q-0.2 -3.45 -1.0 -1.3 L-1.35 -7.0" fill="none" stroke="#000000" stroke-linecap="round" stroke-linejoin="round" stroke-opacity="0.34117648" stroke-width="0.2"/>
      <path d="M0.3 -40.65 L0.3 -41.1 -0.1 -41.1 Q-0.25 -40.8 -0.05 -40.6 L0.3 -40.65 M0.65 -40.3 Q0.15 -39.7 -0.4 -40.2 -0.95 -40.75 -0.45 -41.4 0.1 -41.9 0.65 -41.4 0.95 -40.85 0.65 -40.3" fill="#9a9a9a" fill-rule="evenodd" stroke="none"/>
      <path d="M0.3 -40.65 L-0.05 -40.6 Q-0.25 -40.8 -0.1 -41.1 L0.3 -41.1 0.3 -40.65" fill="#5b5b5b" fill-rule="evenodd" stroke="none"/>
      <path d="M0.65 -40.3 Q0.15 -39.7 -0.4 -40.2 -0.95 -40.75 -0.45 -41.4 0.1 -41.9 0.65 -41.4 0.95 -40.85 0.65 -40.3 Z" fill="none" stroke="#000000" stroke-linecap="round" stroke-linejoin="miter" stroke-miterlimit="5.0" stroke-opacity="0.4" stroke-width="0.2"/>
      <path d="M0.2 -27.85 L0.2 -28.3 -0.2 -28.3 Q-0.35 -28.0 -0.15 -27.8 L0.2 -27.85 M0.55 -27.5 Q0.05 -26.9 -0.5 -27.4 -1.05 -27.95 -0.55 -28.6 0.0 -29.1 0.55 -28.6 0.85 -28.05 0.55 -27.5" fill="#9a9a9a" fill-rule="evenodd" stroke="none"/>
      <path d="M0.2 -27.85 L-0.15 -27.8 Q-0.35 -28.0 -0.2 -28.3 L0.2 -28.3 0.2 -27.85" fill="#5b5b5b" fill-rule="evenodd" stroke="none"/>
      <path d="M0.55 -27.5 Q0.05 -26.9 -0.5 -27.4 -1.05 -27.95 -0.55 -28.6 0.0 -29.1 0.55 -28.6 0.85 -28.05 0.55 -27.5 Z" fill="none" stroke="#000000" stroke-linecap="round" stroke-linejoin="miter" stroke-miterlimit="5.0" stroke-opacity="0.4" stroke-width="0.2"/>
      <path d="M5.45 -26.0 Q3.45 -26.4 2.75 -24.9 2.05 -29.1 2.3 -45.65 L4.95 -45.65 Q4.65 -31.65 5.45 -26.0" fill="url(#decoration259-gradient7)" fill-rule="evenodd" stroke="none"/>
      <path d="M2.75 -24.9 Q3.45 -26.4 5.45 -26.0 7.6 -16.25 12.4 -6.15 11.8 -4.35 9.45 -5.25 7.3 -9.75 2.75 -24.9" fill="url(#decoration259-gradient8)" fill-rule="evenodd" stroke="none"/>
      <path d="M13.15 -0.45 Q12.6 -2.65 15.6 -2.35 L16.45 -1.45 Q17.0 0.9 13.85 0.5 L13.15 -0.45" fill="#121212" fill-rule="evenodd" stroke="none"/>
      <path d="M9.45 -5.25 Q11.8 -4.35 12.4 -6.15 L15.6 -2.35 Q12.6 -2.65 13.15 -0.45 L9.45 -5.25" fill="url(#decoration259-gradient9)" fill-rule="evenodd" stroke="none"/>
      <path d="M5.45 -26.0 Q4.65 -31.65 4.95 -45.65 L2.3 -45.65 Q2.05 -29.1 2.75 -24.9 7.3 -9.75 9.45 -5.25 L13.15 -0.45 13.85 0.5 Q17.0 0.9 16.45 -1.45 L15.6 -2.35 12.4 -6.15 Q7.6 -16.25 5.45 -26.0 M15.6 -2.35 Q12.6 -2.65 13.15 -0.45" fill="none" stroke="#000000" stroke-linecap="round" stroke-linejoin="round" stroke-opacity="0.34117648" stroke-width="0.2"/>
      <path d="M-2.85 -24.9 Q-3.55 -26.4 -5.55 -25.95 -4.75 -31.6 -5.1 -45.65 L-2.4 -45.65 Q-2.15 -29.1 -2.85 -24.9" fill="url(#decoration259-gradient10)" fill-rule="evenodd" stroke="none"/>
      <path d="M-5.55 -25.95 Q-3.55 -26.4 -2.85 -24.9 -7.4 -9.75 -9.55 -5.25 -11.9 -4.35 -12.5 -6.15 -7.7 -16.25 -5.55 -25.95" fill="url(#decoration259-gradient11)" fill-rule="evenodd" stroke="none"/>
      <path d="M-12.5 -6.15 Q-11.9 -4.35 -9.55 -5.25 L-13.25 -0.45 Q-12.7 -2.65 -15.7 -2.35 L-12.5 -6.15" fill="url(#decoration259-gradient12)" fill-rule="evenodd" stroke="none"/>
      <path d="M-13.25 -0.45 L-13.95 0.5 Q-17.1 0.95 -16.6 -1.45 L-15.7 -2.35 Q-12.7 -2.65 -13.25 -0.45" fill="#121212" fill-rule="evenodd" stroke="none"/>
      <path d="M-2.85 -24.9 Q-2.15 -29.1 -2.4 -45.65 L-5.1 -45.65 Q-4.75 -31.6 -5.55 -25.95 -7.7 -16.25 -12.5 -6.15 M-9.55 -5.25 Q-7.4 -9.75 -2.85 -24.9 M-9.55 -5.25 L-13.25 -0.45 -13.95 0.5 Q-17.1 0.95 -16.6 -1.45 L-15.7 -2.35 -12.5 -6.15 M-15.7 -2.35 Q-12.7 -2.65 -13.25 -0.45" fill="none" stroke="#000000" stroke-linecap="round" stroke-linejoin="round" stroke-opacity="0.34117648" stroke-width="0.2"/>
      <path d="M-37.25 -106.55 L-39.0 -106.2 -35.5 -107.85 -37.45 -107.7 -35.7 -108.65 -38.8 -108.75 -35.9 -109.6 -38.75 -110.05 -36.9 -110.35 -38.2 -110.8 -35.7 -110.9 -37.2 -111.7 -35.75 -111.5 -37.45 -113.0 -34.95 -112.15 -35.95 -113.75 -34.75 -112.85 -35.9 -114.8 -34.4 -113.7 -35.95 -117.3 -33.3 -114.05 -33.8 -116.5 -32.3 -113.75 -32.45 -116.55 -31.45 -114.1 -31.3 -115.5 -30.85 -114.2 -30.25 -116.6 -29.8 -114.4 -28.7 -116.15 -28.65 -114.2 -27.2 -115.75 -27.55 -113.8 -26.2 -114.4 -26.9 -112.9 -25.05 -113.6 -28.95 -107.85 -30.6 -106.95 -30.6 -108.8 -31.65 -107.0 -31.2 -108.95 -34.0 -107.4 -32.6 -109.15 -37.25 -106.55" fill="#f7edf6" fill-rule="evenodd" stroke="none"/>
      <path d="M-37.25 -106.55 L-32.6 -109.15 -34.0 -107.4 -31.2 -108.95 -31.65 -107.0 -30.6 -108.8 -30.6 -106.95 -28.95 -107.85 -32.0 -103.0 -32.7 -105.8 -34.1 -103.4 -34.25 -106.15 -35.95 -104.55 -35.05 -106.55 -36.9 -105.6 -35.5 -106.9 -37.25 -106.55" fill="#d3c5d4" fill-rule="evenodd" stroke="none"/>
      <path d="M-28.95 -107.85 L-25.05 -113.6 -26.9 -112.9 -26.2 -114.4 -27.55 -113.8 -27.2 -115.75 -28.65 -114.2 -28.7 -116.15 -29.8 -114.4 -30.25 -116.6 -30.85 -114.2 -31.3 -115.5 -31.45 -114.1 -32.45 -116.55 -32.3 -113.75 -33.8 -116.5 -33.3 -114.05 -35.95 -117.3 -34.4 -113.7 -35.9 -114.8 -34.75 -112.85 -35.95 -113.75 -34.95 -112.15 -37.45 -113.0 -35.75 -111.5 -37.2 -111.7 -35.7 -110.9 -38.2 -110.8 -36.9 -110.35 -38.75 -110.05 -35.9 -109.6 -38.8 -108.75 -35.7 -108.65 -37.45 -107.7 -35.5 -107.85 -39.0 -106.2 -37.25 -106.55 M-28.95 -107.85 L-32.0 -103.0 -32.7 -105.8 -34.1 -103.4 -34.25 -106.15 -35.95 -104.55 -35.05 -106.55 -36.9 -105.6 -35.5 -106.9 -37.25 -106.55" fill="none" stroke="#000000" stroke-linecap="round" stroke-linejoin="round" stroke-opacity="0.2" stroke-width="0.05"/>
      <path d="M-29.95 -112.8 L-28.15 -111.75 Q-25.55 -115.8 -24.85 -118.35 L-23.2 -119.25 Q-22.65 -117.5 -27.05 -111.15 L-26.75 -110.9 Q-26.05 -110.5 -26.2 -110.0 -26.45 -109.4 -27.15 -109.75 L-27.75 -110.05 Q-29.9 -105.65 -29.05 -100.65 L-30.3 -103.15 Q-30.35 -106.65 -28.8 -110.55 L-27.75 -110.05 -28.8 -110.55 -30.45 -111.45 -29.95 -112.8 M-28.15 -111.75 L-27.05 -111.15 -28.15 -111.75" fill="#f1f0f8" fill-rule="evenodd" stroke="none"/>
      <path d="M-29.95 -112.8 L-28.3 -115.5 Q-26.8 -117.25 -24.85 -118.35 -25.55 -115.8 -28.15 -111.75 L-29.95 -112.8 M-23.2 -119.25 Q-20.8 -120.25 -17.9 -120.45 -16.25 -120.2 -15.6 -119.1 -16.15 -117.3 -18.15 -116.05 -20.7 -114.45 -22.7 -112.55 -27.1 -106.45 -25.2 -100.5 -24.6 -98.75 -25.35 -97.75 L-25.65 -97.8 Q-27.7 -98.45 -29.05 -100.65 -29.9 -105.65 -27.75 -110.05 L-27.15 -109.75 Q-26.45 -109.4 -26.2 -110.0 -26.05 -110.5 -26.75 -110.9 L-27.05 -111.15 Q-22.65 -117.5 -23.2 -119.25 M-30.3 -103.15 L-31.05 -105.45 Q-31.25 -108.7 -30.45 -111.45 L-28.8 -110.55 Q-30.35 -106.65 -30.3 -103.15" fill="#085136" fill-rule="evenodd" stroke="none"/>
      <path d="M-15.6 -119.1 Q-14.75 -117.5 -15.75 -114.35 L-14.85 -113.25 Q-20.35 -106.1 -22.2 -98.45 L-23.55 -98.35 Q-24.45 -97.7 -25.35 -97.75 -24.6 -98.75 -25.2 -100.5 -27.1 -106.45 -22.7 -112.55 -20.7 -114.45 -18.15 -116.05 -16.15 -117.3 -15.6 -119.1 M-15.75 -114.35 Q-18.1 -113.4 -21.05 -107.3 -24.05 -101.2 -23.55 -98.35 -24.05 -101.2 -21.05 -107.3 -18.1 -113.4 -15.75 -114.35" fill="#0b3b2f" fill-rule="evenodd" stroke="none"/>
      <path d="M-24.85 -118.35 Q-26.8 -117.25 -28.3 -115.5 L-29.95 -112.8 M-24.85 -118.35 L-23.2 -119.25 Q-20.8 -120.25 -17.9 -120.45 -16.25 -120.2 -15.6 -119.1 -14.75 -117.5 -15.75 -114.35 L-14.85 -113.25 Q-20.35 -106.1 -22.2 -98.45 L-23.55 -98.35 Q-24.45 -97.7 -25.35 -97.75 L-25.65 -97.8 Q-27.7 -98.45 -29.05 -100.65 L-30.3 -103.15 -31.05 -105.45 Q-31.25 -108.7 -30.45 -111.45 L-29.95 -112.8 M-23.55 -98.35 Q-24.05 -101.2 -21.05 -107.3 -18.1 -113.4 -15.75 -114.35" fill="none" stroke="#000000" stroke-linecap="round" stroke-linejoin="round" stroke-opacity="0.4" stroke-width="0.30000000000000004"/>
      <path d="M-29.95 -112.8 L-28.15 -111.75 Q-25.55 -115.8 -24.85 -118.35 M-29.05 -100.65 Q-29.9 -105.65 -27.75 -110.05 L-28.8 -110.55 Q-30.35 -106.65 -30.3 -103.15 M-27.75 -110.05 L-27.15 -109.75 Q-26.45 -109.4 -26.2 -110.0 -26.05 -110.5 -26.75 -110.9 L-27.05 -111.15 -28.15 -111.75 M-30.45 -111.45 L-28.8 -110.55 M-23.2 -119.25 Q-22.65 -117.5 -27.05 -111.15" fill="none" stroke="#000000" stroke-linecap="round" stroke-linejoin="round" stroke-opacity="0.4" stroke-width="0.05"/>
      <path d="M-18.45 -88.0 L-18.95 -87.6 Q-20.95 -87.45 -22.6 -85.45 L-22.8 -85.0 Q-24.9 -78.8 -22.75 -72.85 L-22.05 -71.05 Q-23.85 -71.15 -25.3 -72.1 -26.65 -73.1 -26.65 -74.25 L-26.45 -75.15 -25.9 -75.6 -27.15 -76.5 Q-27.9 -77.2 -27.95 -78.15 -28.0 -79.15 -27.6 -79.75 -27.1 -80.5 -26.25 -80.35 L-27.0 -80.9 Q-27.5 -81.45 -27.55 -82.1 -27.55 -82.8 -27.15 -83.25 -26.8 -83.8 -26.2 -83.75 L-25.8 -83.7 -25.55 -83.65 -26.2 -84.1 -26.55 -85.3 Q-26.55 -86.25 -26.2 -86.7 L-25.4 -87.2 -24.7 -86.95 -24.3 -86.75 -24.5 -87.3 -24.85 -88.4 -24.55 -89.45 Q-24.25 -90.0 -23.65 -90.0 -22.9 -89.95 -22.75 -89.6 L-22.85 -90.05 Q-22.9 -90.8 -22.6 -91.2 -22.3 -91.65 -21.7 -91.65 -21.05 -91.6 -20.55 -91.2 -20.1 -90.75 -20.05 -90.15 L-20.1 -89.65 -20.2 -89.4 -19.7 -89.6 -19.2 -89.75 -18.5 -89.6 Q-18.15 -89.4 -18.1 -89.05 -18.1 -88.45 -18.4 -88.05 L-18.45 -88.0" fill="#ffffff" fill-rule="evenodd" stroke="none"/>
      <path d="M-18.45 -88.0 L-18.95 -87.6 Q-20.95 -87.45 -22.6 -85.45 L-22.8 -85.0 Q-24.9 -78.8 -22.75 -72.85 L-22.05 -71.05 Q-23.85 -71.15 -25.3 -72.1 -26.65 -73.1 -26.65 -74.25 L-26.45 -75.15 -25.9 -75.6 -27.15 -76.5 Q-27.9 -77.2 -27.95 -78.15 -28.0 -79.15 -27.6 -79.75 -27.1 -80.5 -26.25 -80.35 L-27.0 -80.9 Q-27.5 -81.45 -27.55 -82.1 -27.55 -82.8 -27.15 -83.25 -26.8 -83.8 -26.2 -83.75 L-25.8 -83.7 -25.55 -83.65 -26.2 -84.1 -26.55 -85.3 Q-26.55 -86.25 -26.2 -86.7 L-25.4 -87.2 -24.7 -86.95 -24.3 -86.75 -24.5 -87.3 -24.85 -88.4 -24.55 -89.45 Q-24.25 -90.0 -23.65 -90.0 -22.9 -89.95 -22.75 -89.6 L-22.85 -90.05 Q-22.9 -90.8 -22.6 -91.2 -22.3 -91.65 -21.7 -91.65 -21.05 -91.6 -20.55 -91.2 -20.1 -90.75 -20.05 -90.15 L-20.1 -89.65 -20.2 -89.4 -19.7 -89.6 -19.2 -89.75 -18.5 -89.6 Q-18.15 -89.4 -18.1 -89.05 -18.1 -88.45 -18.4 -88.05" fill="none" stroke="#000000" stroke-linecap="round" stroke-linejoin="round" stroke-opacity="0.4" stroke-width="0.05"/>
      <path d="M-21.95 -71.65 Q-23.7 -74.3 -24.3 -77.0 -25.6 -84.75 -20.25 -88.95 L-17.75 -86.95 -15.9 -85.1 Q-16.35 -75.55 -20.35 -69.45 L-21.95 -71.65" fill="#fea7ba" fill-rule="evenodd" stroke="none"/>
      <path d="M-21.95 -71.65 L-20.35 -69.45 Q-16.35 -75.55 -15.9 -85.1 L-17.75 -86.95 -20.25 -88.95 Q-25.6 -84.75 -24.3 -77.0 -23.7 -74.3 -21.95 -71.65 Z" fill="none" stroke="#000000" stroke-linecap="round" stroke-linejoin="round" stroke-opacity="0.4" stroke-width="0.05"/>
      <path d="M-19.65 -68.35 L-20.75 -68.05 -21.35 -68.2 -21.65 -68.7 -21.4 -69.2 Q-22.6 -69.65 -22.7 -70.5 -22.85 -71.55 -21.5 -71.65 L-21.85 -72.05 -21.95 -72.9 Q-21.9 -73.45 -21.4 -73.8 L-20.4 -74.45 Q-21.25 -75.2 -21.15 -75.65 -20.55 -77.2 -19.85 -77.55 L-19.05 -77.5 Q-20.25 -77.85 -20.35 -79.15 -20.55 -80.55 -18.55 -81.3 L-18.8 -81.6 Q-19.05 -82.0 -18.95 -82.55 -18.6 -84.1 -17.45 -83.9 -17.85 -84.55 -17.9 -85.45 -17.9 -86.9 -16.3 -87.5 L-14.05 -87.4 Q-13.2 -86.95 -13.0 -86.4 -11.6 -87.2 -11.0 -87.05 -9.25 -86.7 -8.75 -85.25 -8.1 -83.85 -9.65 -83.05 -8.85 -84.8 -10.4 -85.3 -11.95 -86.1 -12.6 -83.9 -12.75 -84.55 -13.2 -84.9 -13.8 -85.25 -14.95 -84.65 -15.75 -84.1 -14.85 -82.75 -16.55 -83.15 -16.95 -82.1 -17.25 -81.35 -17.15 -81.0 L-16.65 -80.2 Q-18.45 -79.95 -18.5 -79.05 L-17.9 -78.1 -17.25 -77.35 -18.2 -77.25 Q-18.95 -76.9 -19.2 -75.55 -19.4 -74.85 -18.3 -74.35 -19.2 -74.45 -19.7 -73.7 -20.65 -72.0 -19.65 -70.9 -21.8 -70.45 -21.35 -69.5 -20.95 -68.65 -19.65 -68.35" fill="#ffffff" fill-rule="evenodd" stroke="none"/>
      <path d="M-19.65 -68.35 Q-20.95 -68.65 -21.35 -69.5 -21.8 -70.45 -19.65 -70.9 -20.65 -72.0 -19.7 -73.7 -19.2 -74.45 -18.3 -74.35 -19.4 -74.85 -19.2 -75.55 -18.95 -76.9 -18.2 -77.25 L-17.25 -77.35 -17.9 -78.1 -18.5 -79.05 Q-18.45 -79.95 -16.65 -80.2 L-17.15 -81.0 Q-17.25 -81.35 -16.95 -82.1 -16.55 -83.15 -14.85 -82.75 -15.75 -84.1 -14.95 -84.65 -13.8 -85.25 -13.2 -84.9 -12.75 -84.55 -12.6 -83.9 -11.95 -86.1 -10.4 -85.3 -8.85 -84.8 -9.65 -83.05 L-11.65 -82.75 Q-11.4 -82.0 -12.2 -81.05 -12.7 -80.3 -14.2 -80.25 -13.65 -80.2 -13.55 -79.5 -13.4 -78.75 -13.55 -78.0 -13.65 -76.8 -15.4 -76.15 -15.0 -76.2 -14.65 -75.2 -14.1 -74.3 -14.55 -73.85 L-15.5 -72.75 -17.4 -72.4 -17.0 -72.2 Q-16.55 -72.0 -16.6 -71.45 -16.7 -70.4 -18.25 -70.45 -17.15 -70.2 -17.15 -69.5 -17.25 -68.75 -18.75 -68.7 L-19.15 -68.6 -19.55 -68.35 -19.65 -68.35" fill="#d7c3c5" fill-rule="evenodd" stroke="none"/>
      <path d="M-9.65 -83.05 Q-8.1 -83.85 -8.75 -85.25 -9.25 -86.7 -11.0 -87.05 -11.6 -87.2 -13.0 -86.4 -13.2 -86.95 -14.05 -87.4 L-16.3 -87.5 Q-17.9 -86.9 -17.9 -85.45 -17.85 -84.55 -17.45 -83.9 -18.6 -84.1 -18.95 -82.55 -19.05 -82.0 -18.8 -81.6 L-18.55 -81.3 Q-20.55 -80.55 -20.35 -79.15 -20.25 -77.85 -19.05 -77.5 L-19.85 -77.55 Q-20.55 -77.2 -21.15 -75.65 -21.25 -75.2 -20.4 -74.45 L-21.4 -73.8 Q-21.9 -73.45 -21.95 -72.9 L-21.85 -72.05 -21.5 -71.65 Q-22.85 -71.55 -22.7 -70.5 -22.6 -69.65 -21.4 -69.2 L-21.65 -68.7 -21.35 -68.2 -20.75 -68.05 -19.65 -68.35 M-9.65 -83.05 L-11.65 -82.75 Q-11.4 -82.0 -12.2 -81.05 -12.7 -80.3 -14.2 -80.25 -13.65 -80.2 -13.55 -79.5 -13.4 -78.75 -13.55 -78.0 -13.65 -76.8 -15.4 -76.15 -15.0 -76.2 -14.65 -75.2 -14.1 -74.3 -14.55 -73.85 L-15.5 -72.75 -17.4 -72.4 -17.0 -72.2 Q-16.55 -72.0 -16.6 -71.45 -16.7 -70.4 -18.25 -70.45 -17.15 -70.2 -17.15 -69.5 -17.25 -68.75 -18.75 -68.7 L-19.15 -68.6 -19.55 -68.35 -19.65 -68.35" fill="none" stroke="#000000" stroke-linecap="round" stroke-linejoin="round" stroke-opacity="0.4" stroke-width="0.05"/>
      <path d="M-23.75 -66.7 Q-23.85 -68.25 -26.5 -68.1 -24.9 -69.15 -21.95 -68.8 L-21.75 -68.4 -23.75 -66.7" fill="#e38296" fill-rule="evenodd" stroke="none"/>
      <path d="M-26.5 -68.1 Q-23.85 -68.25 -23.75 -66.7 L-26.1 -64.45 Q-26.4 -65.65 -25.8 -66.4 -27.8 -65.85 -28.35 -65.3 -28.0 -67.2 -26.5 -68.1" fill="#ffaebf" fill-rule="evenodd" stroke="none"/>
      <path d="M-26.5 -68.1 Q-28.0 -67.2 -28.35 -65.3 -27.8 -65.85 -25.8 -66.4 -26.4 -65.65 -26.1 -64.45 L-23.75 -66.7 -21.75 -68.4 -21.95 -68.8 Q-24.9 -69.15 -26.5 -68.1 Z" fill="none" stroke="#000000" stroke-linecap="round" stroke-linejoin="round" stroke-opacity="0.4" stroke-width="0.05"/>
      <path d="M-23.45 -70.45 L-22.2 -69.3 -22.25 -68.85 -26.25 -69.2 Q-23.25 -69.35 -23.45 -70.45" fill="#e38296" fill-rule="evenodd" stroke="none"/>
      <path d="M-23.45 -70.45 Q-23.25 -69.35 -26.25 -69.2 L-26.35 -69.2 Q-29.25 -70.05 -29.45 -71.6 L-27.2 -70.6 Q-28.3 -73.35 -26.85 -74.3 L-26.2 -73.9 -25.4 -73.1 -24.2 -71.55 -23.45 -70.45" fill="#ffaebf" fill-rule="evenodd" stroke="none"/>
      <path d="M-26.25 -69.2 L-22.25 -68.85 -22.2 -69.3 -23.45 -70.45 M-26.25 -69.2 L-26.35 -69.2 Q-29.25 -70.05 -29.45 -71.6 L-27.2 -70.6 Q-28.3 -73.35 -26.85 -74.3 L-26.2 -73.9 -25.4 -73.1 -24.2 -71.55 -23.45 -70.45" fill="none" stroke="#000000" stroke-linecap="round" stroke-linejoin="round" stroke-opacity="0.4" stroke-width="0.05"/>
      <path d="M-24.5 -66.4 Q-24.15 -67.35 -23.35 -67.7 -23.85 -68.25 -23.4 -68.8 L-23.25 -68.9 -23.8 -69.3 -25.15 -71.05 Q-23.35 -69.4 -22.7 -70.05 L-22.25 -69.25 -21.85 -68.75 -21.75 -68.65 -21.85 -68.75 -22.25 -69.25 -22.7 -70.05 -23.15 -71.5 Q-21.85 -69.2 -20.95 -69.95 L-20.9 -69.0 -20.9 -68.85 -20.65 -68.85 -20.45 -68.8 -20.95 -68.8 -21.75 -68.65 Q-22.9 -68.45 -22.8 -67.7 L-22.35 -66.95 -22.15 -66.9 -22.15 -65.6 -22.15 -66.9 -21.55 -66.95 -21.2 -67.0 -20.6 -66.15 -20.4 -65.9 Q-21.75 -66.75 -22.15 -65.6 -23.25 -67.5 -24.5 -66.4 M-20.2 -68.05 Q-18.8 -67.6 -17.35 -65.9 L-17.7 -65.5 Q-17.7 -64.65 -18.25 -64.6 -18.35 -65.85 -20.45 -67.4 -20.2 -67.65 -20.2 -68.05 M-23.35 -67.7 L-22.35 -66.95 -23.35 -67.7 M-20.9 -68.85 L-20.95 -68.8 -20.9 -68.85 M-23.25 -68.9 Q-22.2 -68.3 -21.85 -68.75 -22.2 -68.3 -23.25 -68.9" fill="#e38296" fill-rule="evenodd" stroke="none"/>
      <path d="M-20.9 -68.85 L-20.9 -69.0 -20.95 -69.95 Q-20.75 -72.85 -19.4 -72.5 -18.9 -71.05 -20.85 -69.0 L-20.9 -68.85 M-21.2 -67.0 Q-20.65 -67.15 -20.45 -67.4 -18.35 -65.85 -18.25 -64.6 -18.9 -64.5 -20.4 -65.9 L-20.6 -66.15 -21.2 -67.0" fill="#ad5c6c" fill-rule="evenodd" stroke="none"/>
      <path d="M-25.15 -71.05 Q-26.1 -73.0 -24.85 -73.75 -24.0 -74.5 -22.05 -72.9 -20.5 -76.8 -18.6 -74.35 -16.9 -73.1 -18.45 -70.05 L-20.65 -68.85 -20.9 -68.85 -20.85 -69.0 Q-18.9 -71.05 -19.4 -72.5 -20.75 -72.85 -20.95 -69.95 -21.85 -69.2 -23.15 -71.5 L-22.7 -70.05 Q-23.35 -69.4 -25.15 -71.05 M-20.45 -68.8 L-20.2 -68.05 Q-20.2 -67.65 -20.45 -67.4 -20.65 -67.15 -21.2 -67.0 L-21.55 -66.95 -22.15 -66.9 -22.35 -66.95 -22.8 -67.7 Q-22.9 -68.45 -21.75 -68.65 L-20.95 -68.8 -20.45 -68.8 M-17.35 -65.9 Q-16.45 -64.3 -17.25 -63.0 -19.2 -61.95 -20.5 -63.6 -23.65 -62.5 -24.85 -64.8 L-24.5 -66.4 Q-23.25 -67.5 -22.15 -65.6 -21.75 -66.75 -20.4 -65.9 -18.9 -64.5 -18.25 -64.6 -17.7 -64.65 -17.7 -65.5 L-17.35 -65.9 M-21.95 -64.65 L-22.15 -65.6 -21.95 -64.65" fill="#fea7ba" fill-rule="evenodd" stroke="none"/>
      <path d="M-24.5 -66.4 Q-24.15 -67.35 -23.35 -67.7 -23.85 -68.25 -23.4 -68.8 L-23.25 -68.9 -23.8 -69.3 -25.15 -71.05 Q-26.1 -73.0 -24.85 -73.75 -24.0 -74.5 -22.05 -72.9 -20.5 -76.8 -18.6 -74.35 -16.9 -73.1 -18.45 -70.05 L-20.65 -68.85 -20.45 -68.8 -20.2 -68.05 Q-18.8 -67.6 -17.35 -65.9 -16.45 -64.3 -17.25 -63.0 -19.2 -61.95 -20.5 -63.6 -23.65 -62.5 -24.85 -64.8 L-24.5 -66.4 M-22.15 -65.6 L-22.15 -66.9 -22.35 -66.95 -23.35 -67.7 M-22.7 -70.05 L-22.25 -69.25 -21.85 -68.75 -21.75 -68.65 -20.95 -68.8 -20.9 -68.85 -20.9 -69.0 -20.95 -69.95 M-23.15 -71.5 L-22.7 -70.05 M-20.65 -68.85 L-20.9 -68.85 -20.85 -69.0 Q-18.9 -71.05 -19.4 -72.5 -20.75 -72.85 -20.95 -69.95 M-21.85 -68.75 Q-22.2 -68.3 -23.25 -68.9 M-22.15 -66.9 L-21.55 -66.95 -21.2 -67.0 Q-20.65 -67.15 -20.45 -67.4 -20.2 -67.65 -20.2 -68.05 M-20.4 -65.9 L-20.6 -66.15 -21.2 -67.0 M-22.15 -65.6 L-21.95 -64.65 M-18.25 -64.6 Q-17.7 -64.65 -17.7 -65.5 M-20.45 -67.4 Q-18.35 -65.85 -18.25 -64.6 -18.9 -64.5 -20.4 -65.9" fill="none" stroke="#000000" stroke-linecap="round" stroke-linejoin="round" stroke-opacity="0.4" stroke-width="0.05"/>
      <path d="M11.6 -71.35 Q12.0 -74.45 11.45 -78.15 10.85 -83.25 12.5 -83.35 14.4 -83.55 15.35 -82.85 16.15 -82.45 17.25 -82.5 15.25 -80.7 16.05 -77.9 16.95 -74.05 16.2 -71.15 L15.4 -69.0 Q14.75 -66.8 16.95 -64.65 18.5 -63.2 19.1 -61.65 12.35 -62.8 11.6 -71.35" fill="url(#decoration259-gradient13)" fill-rule="evenodd" stroke="none"/>
      <path d="M11.6 -71.35 Q12.35 -62.8 19.1 -61.65 L19.4 -59.9 16.25 -61.75 16.2 -61.15 Q11.9 -62.6 10.9 -68.2 L11.6 -71.35 M16.2 -71.15 Q16.95 -74.05 16.05 -77.9 15.25 -80.7 17.25 -82.5 L18.3 -82.6 Q19.85 -83.0 17.85 -80.3 17.25 -78.75 17.3 -77.25 17.4 -74.6 16.2 -71.15" fill="url(#decoration259-gradient14)" fill-rule="evenodd" stroke="none"/>
      <path d="M10.9 -68.2 Q11.9 -62.6 16.2 -61.15 L16.1 -58.8 14.4 -60.8 13.65 -58.9 Q10.2 -63.35 10.9 -68.2" fill="#d04d87" fill-rule="evenodd" stroke="none"/>
      <path d="M17.25 -82.5 Q16.15 -82.45 15.35 -82.85 14.4 -83.55 12.5 -83.35 10.85 -83.25 11.45 -78.15 12.0 -74.45 11.6 -71.35 L10.9 -68.2 Q10.2 -63.35 13.65 -58.9 L14.4 -60.8 16.1 -58.8 16.2 -61.15 16.25 -61.75 19.4 -59.9 19.1 -61.65 Q18.5 -63.2 16.95 -64.65 14.75 -66.8 15.4 -69.0 L16.2 -71.15 M17.25 -82.5 L18.3 -82.6 Q19.85 -83.0 17.85 -80.3 17.25 -78.75 17.3 -77.25 17.4 -74.6 16.2 -71.15" fill="none" stroke="#000000" stroke-linecap="round" stroke-linejoin="miter" stroke-miterlimit="5.0" stroke-opacity="0.4" stroke-width="0.2"/>
      <path d="M22.75 -80.35 L24.1 -77.7 Q20.35 -76.9 22.85 -70.05 21.45 -71.8 20.75 -75.3 L20.7 -75.35 Q20.45 -79.45 22.75 -80.35" fill="url(#decoration259-gradient15)" fill-rule="evenodd" stroke="none"/>
      <path d="M24.1 -77.7 L24.9 -76.55 Q28.25 -70.1 25.5 -67.55 L24.6 -69.6 Q23.9 -68.7 22.9 -68.25 L22.85 -70.05 Q20.35 -76.9 24.1 -77.7" fill="url(#decoration259-gradient16)" fill-rule="evenodd" stroke="none"/>
      <path d="M22.85 -70.05 Q21.55 -69.1 20.35 -68.95 21.1 -72.25 20.75 -75.3 21.45 -71.8 22.85 -70.05 M20.7 -75.35 Q20.4 -78.6 18.8 -81.5 L20.3 -85.35 22.75 -80.35 Q20.45 -79.45 20.7 -75.35" fill="#d04d87" fill-rule="evenodd" stroke="none"/>
      <path d="M22.75 -80.35 L24.1 -77.7 24.9 -76.55 Q28.25 -70.1 25.5 -67.55 L24.6 -69.6 Q23.9 -68.7 22.9 -68.25 L22.85 -70.05 Q21.55 -69.1 20.35 -68.95 21.1 -72.25 20.75 -75.3 L20.7 -75.35 Q20.4 -78.6 18.8 -81.5 L20.3 -85.35 22.75 -80.35 Z" fill="none" stroke="#000000" stroke-linecap="round" stroke-linejoin="miter" stroke-miterlimit="5.0" stroke-opacity="0.4" stroke-width="0.2"/>
      <path d="M14.65 -88.65 Q14.65 -89.15 15.3 -89.9 15.85 -90.6 16.8 -90.2 17.5 -89.8 17.55 -88.2 L17.4 -87.05 17.15 -85.05 17.5 -84.65 17.15 -85.05 17.4 -87.05 17.55 -88.2 Q18.75 -87.1 19.85 -87.0 20.9 -84.9 20.9 -83.1 18.85 -81.0 17.15 -79.95 L16.1 -79.8 16.0 -80.5 Q19.95 -82.75 19.45 -84.9 18.9 -86.05 18.25 -86.0 17.85 -84.55 17.5 -84.65 16.25 -84.4 16.65 -87.2 16.55 -89.45 14.65 -88.65" fill="url(#decoration259-gradient17)" fill-rule="evenodd" stroke="none"/>
      <path d="M14.65 -88.65 Q16.55 -89.45 16.65 -87.2 16.25 -84.4 17.5 -84.65 17.85 -84.55 18.25 -86.0 18.9 -86.05 19.45 -84.9 19.95 -82.75 16.0 -80.5 12.5 -79.75 11.9 -82.8 13.9 -85.45 14.65 -88.65" fill="url(#decoration259-gradient18)" fill-rule="evenodd" stroke="none"/>
      <path d="M17.15 -79.95 Q15.85 -79.15 14.8 -78.85 L14.6 -78.85 Q11.55 -78.55 11.9 -82.8 12.5 -79.75 16.0 -80.5 L16.1 -79.8 17.15 -79.95" fill="url(#decoration259-gradient19)" fill-rule="evenodd" stroke="none"/>
      <path d="M17.55 -88.2 Q17.5 -89.8 16.8 -90.2 15.85 -90.6 15.3 -89.9 14.65 -89.15 14.65 -88.65 M17.5 -84.65 L17.15 -85.05 17.4 -87.05 17.55 -88.2 Q18.75 -87.1 19.85 -87.0 20.9 -84.9 20.9 -83.1 18.85 -81.0 17.15 -79.95 15.85 -79.15 14.8 -78.85 L14.6 -78.85 Q11.55 -78.55 11.9 -82.8 13.9 -85.45 14.65 -88.65 M19.45 -84.9 Q18.9 -86.05 18.25 -86.0 17.85 -84.55 17.5 -84.65" fill="none" stroke="#000000" stroke-linecap="round" stroke-linejoin="miter" stroke-miterlimit="5.0" stroke-opacity="0.4" stroke-width="0.2"/>
    </g>
    <linearGradient gradientTransform="matrix(-0.0024, 0.0018, 0.0072, 0.0077, -9.1, -103.45)" gradientUnits="userSpaceOnUse" id="decoration259-gradient0" spreadMethod="pad" x1="-819.2" x2="819.2">
      <stop offset="0.16470588235294117" stop-color="#121212"/>
      <stop offset="0.34509803921568627" stop-color="#2e2e2e"/>
      <stop offset="0.5607843137254902" stop-color="#121212"/>
    </linearGradient>
    <linearGradient gradientTransform="matrix(-0.0022, 0.0, 0.0, 0.0113, -3.5, -88.85)" gradientUnits="userSpaceOnUse" id="decoration259-gradient1" spreadMethod="pad" x1="-819.2" x2="819.2">
      <stop offset="0.16470588235294117" stop-color="#121212"/>
      <stop offset="0.34509803921568627" stop-color="#2e2e2e"/>
      <stop offset="0.5607843137254902" stop-color="#121212"/>
    </linearGradient>
    <linearGradient gradientTransform="matrix(0.0024, 0.0018, -0.0072, 0.0077, 8.85, -107.6)" gradientUnits="userSpaceOnUse" id="decoration259-gradient2" spreadMethod="pad" x1="-819.2" x2="819.2">
      <stop offset="0.16470588235294117" stop-color="#121212"/>
      <stop offset="0.34509803921568627" stop-color="#2e2e2e"/>
      <stop offset="0.5607843137254902" stop-color="#121212"/>
    </linearGradient>
    <linearGradient gradientTransform="matrix(0.0022, 0.0, 0.0, 0.0113, 3.25, -93.0)" gradientUnits="userSpaceOnUse" id="decoration259-gradient3" spreadMethod="pad" x1="-819.2" x2="819.2">
      <stop offset="0.16470588235294117" stop-color="#121212"/>
      <stop offset="0.34509803921568627" stop-color="#2e2e2e"/>
      <stop offset="0.5607843137254902" stop-color="#121212"/>
    </linearGradient>
    <linearGradient gradientTransform="matrix(0.0028, 0.0, 0.0, 0.0573, -0.1, -62.1)" gradientUnits="userSpaceOnUse" id="decoration259-gradient4" spreadMethod="pad" x1="-819.2" x2="819.2">
      <stop offset="0.16470588235294117" stop-color="#121212"/>
      <stop offset="0.34509803921568627" stop-color="#2e2e2e"/>
      <stop offset="0.5607843137254902" stop-color="#121212"/>
    </linearGradient>
    <linearGradient gradientTransform="matrix(0.0032, 0.0, 0.0, 0.0238, -0.1, -25.6)" gradientUnits="userSpaceOnUse" id="decoration259-gradient5" spreadMethod="pad" x1="-819.2" x2="819.2">
      <stop offset="0.16470588235294117" stop-color="#121212"/>
      <stop offset="0.34509803921568627" stop-color="#2e2e2e"/>
      <stop offset="0.5607843137254902" stop-color="#121212"/>
    </linearGradient>
    <linearGradient gradientTransform="matrix(-0.0035, 0.0, 0.0, 0.0034, -1.8, -4.0)" gradientUnits="userSpaceOnUse" id="decoration259-gradient6" spreadMethod="pad" x1="-819.2" x2="819.2">
      <stop offset="0.16470588235294117" stop-color="#121212"/>
      <stop offset="0.34509803921568627" stop-color="#2e2e2e"/>
      <stop offset="0.5607843137254902" stop-color="#121212"/>
    </linearGradient>
    <linearGradient gradientTransform="matrix(-0.0034, 0.0, 0.0, 0.0126, 3.25, -32.75)" gradientUnits="userSpaceOnUse" id="decoration259-gradient7" spreadMethod="pad" x1="-819.2" x2="819.2">
      <stop offset="0.16470588235294117" stop-color="#121212"/>
      <stop offset="0.34509803921568627" stop-color="#2e2e2e"/>
      <stop offset="0.5607843137254902" stop-color="#121212"/>
    </linearGradient>
    <linearGradient gradientTransform="matrix(-0.0031, 7.0E-4, 0.0037, 0.0123, 6.05, -16.3)" gradientUnits="userSpaceOnUse" id="decoration259-gradient8" spreadMethod="pad" x1="-819.2" x2="819.2">
      <stop offset="0.16470588235294117" stop-color="#121212"/>
      <stop offset="0.34509803921568627" stop-color="#2e2e2e"/>
      <stop offset="0.5607843137254902" stop-color="#121212"/>
    </linearGradient>
    <linearGradient gradientTransform="matrix(-0.0032, 0.0016, 0.0019, 0.0029, 10.8, -2.6)" gradientUnits="userSpaceOnUse" id="decoration259-gradient9" spreadMethod="pad" x1="-819.2" x2="819.2">
      <stop offset="0.16470588235294117" stop-color="#121212"/>
      <stop offset="0.34509803921568627" stop-color="#2e2e2e"/>
      <stop offset="0.5607843137254902" stop-color="#121212"/>
    </linearGradient>
    <linearGradient gradientTransform="matrix(0.0034, 0.0, 0.0, 0.0126, -3.9, -32.75)" gradientUnits="userSpaceOnUse" id="decoration259-gradient10" spreadMethod="pad" x1="-819.2" x2="819.2">
      <stop offset="0.16470588235294117" stop-color="#121212"/>
      <stop offset="0.34509803921568627" stop-color="#2e2e2e"/>
      <stop offset="0.5607843137254902" stop-color="#121212"/>
    </linearGradient>
    <linearGradient gradientTransform="matrix(0.0031, 7.0E-4, -0.0037, 0.0123, -6.7, -16.3)" gradientUnits="userSpaceOnUse" id="decoration259-gradient11" spreadMethod="pad" x1="-819.2" x2="819.2">
      <stop offset="0.16470588235294117" stop-color="#121212"/>
      <stop offset="0.34509803921568627" stop-color="#2e2e2e"/>
      <stop offset="0.5607843137254902" stop-color="#121212"/>
    </linearGradient>
    <linearGradient gradientTransform="matrix(0.0032, 0.0016, -0.0019, 0.0029, -11.45, -2.6)" gradientUnits="userSpaceOnUse" id="decoration259-gradient12" spreadMethod="pad" x1="-819.2" x2="819.2">
      <stop offset="0.16470588235294117" stop-color="#121212"/>
      <stop offset="0.34509803921568627" stop-color="#2e2e2e"/>
      <stop offset="0.5607843137254902" stop-color="#121212"/>
    </linearGradient>
    <radialGradient cx="0" cy="0" gradientTransform="matrix(-0.0029, 0.0132, -0.008, -0.0011, 8.05, -78.85)" gradientUnits="userSpaceOnUse" id="decoration259-gradient13" r="819.2" spreadMethod="pad">
      <stop offset="0.3803921568627451" stop-color="#fbaa87"/>
      <stop offset="1.0" stop-color="#f37487"/>
    </radialGradient>
    <radialGradient cx="0" cy="0" gradientTransform="matrix(0.0033, -0.0025, 0.0062, 0.0062, 15.95, -66.45)" gradientUnits="userSpaceOnUse" id="decoration259-gradient14" r="819.2" spreadMethod="pad">
      <stop offset="0.6470588235294118" stop-color="#f37487"/>
      <stop offset="1.0" stop-color="#e05e87"/>
    </radialGradient>
    <radialGradient cx="0" cy="0" gradientTransform="matrix(0.0037, -0.0017, 0.0041, 0.0071, 23.95, -74.2)" gradientUnits="userSpaceOnUse" id="decoration259-gradient15" r="819.2" spreadMethod="pad">
      <stop offset="0.27450980392156865" stop-color="#f37487"/>
      <stop offset="1.0" stop-color="#e05e87"/>
    </radialGradient>
    <radialGradient cx="0" cy="0" gradientTransform="matrix(0.0015, 0.0153, -0.0092, 0.0011, 26.5, -72.85)" gradientUnits="userSpaceOnUse" id="decoration259-gradient16" r="819.2" spreadMethod="pad">
      <stop offset="0.09803921568627451" stop-color="#fbaa87"/>
      <stop offset="0.4392156862745098" stop-color="#f37487"/>
    </radialGradient>
    <radialGradient cx="0" cy="0" gradientTransform="matrix(0.007, -0.0067, 0.004, 0.0033, 13.05, -82.5)" gradientUnits="userSpaceOnUse" id="decoration259-gradient17" r="819.2" spreadMethod="pad">
      <stop offset="0.396078431372549" stop-color="#fb6294"/>
      <stop offset="1.0" stop-color="#d04d87"/>
    </radialGradient>
    <radialGradient cx="0" cy="0" gradientTransform="matrix(0.0039, -0.0077, 0.0046, 0.0017, 11.05, -84.5)" gradientUnits="userSpaceOnUse" id="decoration259-gradient18" r="819.2" spreadMethod="pad">
      <stop offset="0.3803921568627451" stop-color="#fbaa87"/>
      <stop offset="1.0" stop-color="#f37487"/>
    </radialGradient>
    <radialGradient cx="0" cy="0" gradientTransform="matrix(0.0, 0.0, 0.0, 0.0, -846.05, -88.55)" gradientUnits="userSpaceOnUse" id="decoration259-gradient19" r="819.2" spreadMethod="pad">
      <stop offset="0.396078431372549" stop-color="#fb6294"/>
      <stop offset="1.0" stop-color="#d04d87"/>
    </radialGradient>
  </defs>
</svg>
