<?xml version="1.0" encoding="UTF-8" standalone="no"?>
<svg xmlns:xlink="http://www.w3.org/1999/xlink" height="30.65px" width="25.75px" xmlns="http://www.w3.org/2000/svg">
  <g transform="matrix(1.0, 0.0, 0.0, 1.0, 13.35, 30.05)">
    <use height="30.65" transform="matrix(1.0, 0.0, 0.0, 1.0, -13.35, -30.05)" width="25.75" xlink:href="#decoration260-shape0"/>
  </g>
  <defs>
    <g id="decoration260-shape0" transform="matrix(1.0, 0.0, 0.0, 1.0, 13.35, 30.05)">
      <path d="M-11.3 -11.7 L-11.3 -11.8 -10.25 -13.5 Q-9.15 -14.9 -5.55 -13.75 -3.7 -15.6 1.65 -14.25 6.9 -12.9 8.7 -13.05 10.55 -13.3 11.75 -15.7 11.4 -11.4 8.45 -8.15 6.65 -11.15 2.0 -9.0 -2.7 -6.85 -6.9 -8.55 -11.2 -10.25 -11.3 -11.7" fill="#f2f7f8" fill-rule="evenodd" stroke="none"/>
      <path d="M8.45 -8.15 L8.2 -7.9 Q6.85 -6.45 5.3 -5.55 L5.05 -5.45 3.8 -4.9 Q2.0 -4.15 0.75 -4.15 L0.4 -4.15 -0.4 -4.15 Q-5.45 -4.15 -9.05 -7.9 -10.55 -9.5 -11.45 -11.4 L-11.3 -11.7 Q-11.2 -10.25 -6.9 -8.55 -2.7 -6.85 2.0 -9.0 6.65 -11.15 8.45 -8.15" fill="#bbd1d7" fill-rule="evenodd" stroke="none"/>
      <path d="M10.25 -13.75 Q10.1 -13.95 10.35 -14.15 L10.8 -14.05 Q11.0 -13.8 10.7 -13.65 10.45 -13.5 10.25 -13.75 M11.25 -15.3 Q10.9 -15.8 11.45 -16.2 L12.3 -16.1 Q12.6 -15.6 12.1 -15.2 11.6 -14.8 11.25 -15.3 M0.95 -14.1 Q0.65 -14.5 1.1 -14.75 1.55 -15.05 1.85 -14.6 2.15 -14.2 1.7 -13.95 1.2 -13.75 0.95 -14.1 M3.3 -13.05 Q3.0 -13.5 3.45 -13.85 L4.2 -13.75 Q4.5 -13.35 4.05 -12.95 3.6 -12.6 3.3 -13.05 M8.2 -13.1 Q8.55 -13.3 8.8 -12.9 9.05 -12.5 8.7 -12.25 8.3 -11.95 8.05 -12.4 7.85 -12.9 8.2 -13.1 M6.2 -12.85 Q5.7 -12.55 5.45 -13.0 5.2 -13.5 5.65 -13.75 6.1 -14.0 6.4 -13.55 6.7 -13.15 6.2 -12.85 M-7.7 -14.6 Q-7.25 -14.9 -6.95 -14.45 -6.65 -14.05 -7.1 -13.8 -7.6 -13.6 -7.85 -13.95 -8.15 -14.35 -7.7 -14.6 M-8.6 -14.2 Q-9.1 -13.85 -9.4 -14.45 -9.7 -15.05 -9.2 -15.35 -8.75 -15.65 -8.4 -15.1 -8.1 -14.55 -8.6 -14.2 M-5.3 -14.45 L-4.8 -14.4 Q-4.65 -14.15 -4.9 -13.95 L-5.4 -14.0 Q-5.6 -14.25 -5.3 -14.45 M-2.95 -15.3 Q-2.5 -15.55 -2.2 -15.1 -1.9 -14.7 -2.4 -14.4 -2.9 -14.1 -3.15 -14.55 -3.4 -15.05 -2.95 -15.3 M-1.05 -14.55 Q-1.25 -14.95 -0.95 -15.1 -0.65 -15.3 -0.45 -14.95 -0.2 -14.6 -0.55 -14.4 -0.9 -14.15 -1.05 -14.55" fill="#ffffff" fill-opacity="0.81960785" fill-rule="evenodd" stroke="none"/>
      <path d="M-3.7 -22.1 L-3.65 -21.45 -3.75 -21.85 -3.7 -22.1 M-3.55 -22.2 L-3.4 -21.65 -3.2 -21.0 -3.45 -21.6 -3.55 -21.85 -3.55 -22.2 M-3.7 -18.9 L-3.9 -18.3 -3.9 -18.65 -3.7 -18.9" fill="#326209" fill-rule="evenodd" stroke="none"/>
      <path d="M0.05 -16.05 L0.15 -15.85 -0.4 -16.3 -0.4 -15.9 -1.05 -16.55 Q-1.1 -15.95 -1.45 -15.65 L-1.95 -16.35 Q-2.05 -15.8 -2.35 -15.6 L-2.5 -16.2 Q-2.85 -15.65 -3.15 -15.65 L-2.95 -16.05 -3.1 -15.85 -3.1 -16.05 -3.2 -15.75 -3.5 -16.5 -3.5 -15.75 -3.85 -16.05 -4.1 -16.35 -5.0 -15.65 -4.85 -16.0 Q-5.35 -15.7 -5.9 -15.5 L-5.65 -16.15 Q-6.05 -15.85 -6.55 -15.65 L-6.2 -16.2 -6.7 -15.85 -6.25 -16.45 -5.65 -17.0 -6.2 -16.0 -5.35 -16.7 -5.55 -15.9 Q-4.95 -16.15 -4.5 -16.5 L-4.7 -15.95 -4.05 -16.55 -3.6 -15.9 -3.55 -16.65 -3.15 -15.95 -3.2 -16.7 -3.0 -16.1 -2.75 -16.6 -2.95 -15.8 -2.5 -16.45 -2.3 -15.8 -2.0 -16.55 -1.45 -15.8 Q-1.15 -16.2 -1.1 -16.75 L-0.45 -16.05 -0.6 -16.7 -0.1 -16.3 0.05 -16.05 M0.7 -14.05 L0.6 -14.05 0.5 -14.05 0.25 -14.4 0.7 -14.05 M0.45 -14.05 L0.3 -14.05 0.05 -14.45 0.45 -14.05 M-0.65 -14.05 L-0.9 -14.05 -1.05 -14.3 -0.65 -14.05 M-1.25 -14.05 L-1.8 -14.05 -1.6 -14.25 -1.25 -14.05 M-1.9 -14.05 L-2.15 -14.0 -1.95 -14.15 -1.9 -14.05 M-2.95 -14.0 L-3.05 -14.0 -2.9 -14.1 -2.95 -14.0 M-3.8 -14.0 L-3.9 -14.0 -4.05 -14.25 -3.8 -14.0 M-4.1 -14.0 L-4.35 -14.0 -4.2 -14.15 -4.1 -14.0 M-6.1 -14.05 L-6.4 -14.0 -5.95 -14.3 -6.1 -14.05 M-6.8 -14.0 L-7.9 -14.0 -6.6 -14.3 -6.8 -14.0" fill="#2b5607" fill-rule="evenodd" stroke="none"/>
      <path d="M0.2 -16.3 L0.7 -15.6 0.05 -16.05 -0.1 -16.3 0.15 -16.15 -0.2 -16.6 0.2 -16.3 M0.15 -15.85 L0.3 -15.6 -0.3 -16.1 -0.35 -15.7 -1.0 -16.35 Q-1.1 -15.8 -1.45 -15.5 L-1.95 -16.15 Q-2.1 -15.55 -2.5 -15.45 L-2.55 -15.95 -3.25 -15.45 -3.2 -15.7 -3.25 -15.6 -3.45 -16.2 -3.4 -15.55 -3.9 -15.95 -4.1 -16.25 Q-4.65 -15.6 -5.2 -15.5 L-5.1 -15.75 Q-5.55 -15.45 -6.1 -15.3 L-5.85 -15.9 Q-6.2 -15.65 -6.7 -15.5 L-6.55 -15.85 -6.8 -15.7 -6.7 -15.85 -7.1 -15.55 -6.65 -16.4 -6.5 -16.5 -6.75 -16.15 -6.25 -16.45 -6.7 -15.85 -6.2 -16.2 -6.55 -15.65 Q-6.05 -15.85 -5.65 -16.15 L-5.9 -15.5 Q-5.35 -15.7 -4.85 -16.0 L-5.0 -15.65 -4.1 -16.35 -3.85 -16.05 -3.5 -15.75 -3.5 -16.5 -3.2 -15.75 -3.1 -16.05 -3.1 -15.85 -2.95 -16.05 -3.15 -15.65 Q-2.85 -15.65 -2.5 -16.2 L-2.35 -15.6 Q-2.05 -15.8 -1.95 -16.35 L-1.45 -15.65 Q-1.1 -15.95 -1.05 -16.55 L-0.4 -15.9 -0.4 -16.3 0.15 -15.85 M1.55 -14.2 L0.7 -14.05 0.25 -14.4 0.05 -14.65 Q0.4 -14.35 0.7 -14.25 L1.55 -14.2 M0.45 -13.85 L-0.65 -14.05 -1.05 -14.3 -1.15 -14.4 Q-0.8 -14.15 -0.35 -14.05 L0.45 -13.85 M-0.8 -13.85 L-1.25 -14.05 -1.6 -14.25 -1.7 -14.45 -1.15 -14.05 -0.8 -13.85 M-3.45 -13.75 L-3.8 -14.0 -4.05 -14.25 -4.1 -14.4 -4.15 -14.6 -3.45 -13.75 M-4.35 -14.0 L-5.0 -13.7 -4.3 -14.25 -4.2 -14.15 -4.35 -14.0 M-5.05 -13.8 L-5.35 -14.05 -6.2 -13.8 -6.1 -14.05 -5.95 -14.3 -6.4 -14.0 -6.9 -13.85 -5.65 -14.7 -5.05 -13.8 M-7.9 -14.0 L-8.2 -14.0 Q-6.95 -14.25 -5.95 -15.2 L-6.1 -14.95 -6.6 -14.3 -7.9 -14.0" fill="#326209" fill-rule="evenodd" stroke="none"/>
      <path d="M0.3 -15.6 L0.55 -15.25 1.55 -14.2 0.7 -14.25 Q0.4 -14.35 0.05 -14.65 L0.25 -14.4 0.5 -14.05 0.6 -13.9 0.45 -14.05 0.05 -14.45 0.3 -14.05 0.45 -13.85 -0.35 -14.05 Q-0.8 -14.15 -1.15 -14.4 L-1.05 -14.3 -0.9 -14.05 -0.8 -13.85 -1.15 -14.05 -1.7 -14.45 -1.6 -14.25 -1.8 -14.05 -1.95 -13.8 -1.9 -14.05 -1.95 -14.15 -2.15 -14.0 Q-2.45 -13.8 -2.9 -13.7 L-2.75 -14.0 -2.75 -14.05 -3.15 -13.8 -2.95 -14.0 -2.9 -14.1 -3.05 -14.0 -3.45 -13.75 -4.15 -14.6 -4.1 -14.4 -4.05 -14.25 -3.9 -14.0 -3.85 -13.8 -4.1 -14.0 -4.2 -14.15 -4.3 -14.25 -5.0 -13.7 -5.05 -13.8 -5.65 -14.7 -6.9 -13.85 -6.8 -14.0 -6.6 -14.3 -6.1 -14.95 -5.95 -15.2 Q-6.95 -14.25 -8.2 -14.0 L-7.15 -15.25 -6.8 -15.7 -6.55 -15.85 -6.7 -15.5 Q-6.2 -15.65 -5.85 -15.9 L-6.1 -15.3 Q-5.55 -15.45 -5.1 -15.75 L-5.2 -15.5 Q-4.65 -15.6 -4.1 -16.25 L-3.9 -15.95 -3.4 -15.55 -3.45 -16.2 -3.25 -15.6 -3.2 -15.7 -3.25 -15.45 -2.55 -15.95 -2.5 -15.45 Q-2.1 -15.55 -1.95 -16.15 L-1.45 -15.5 Q-1.1 -15.8 -1.0 -16.35 L-0.35 -15.7 -0.3 -16.1 0.3 -15.6" fill="url(#decoration260-gradient0)" fill-rule="evenodd" stroke="none"/>
      <path d="M0.2 -16.3 L0.7 -15.6 0.05 -16.05 0.15 -15.85 0.3 -15.6 0.55 -15.25 1.55 -14.2 0.7 -14.05 0.6 -14.05 M0.5 -14.05 L0.6 -13.9 0.45 -14.05 0.3 -14.05 0.45 -13.85 -0.65 -14.05 -0.9 -14.05 -0.8 -13.85 -1.25 -14.05 -1.8 -14.05 -1.95 -13.8 -1.9 -14.05 -2.15 -14.0 Q-2.45 -13.8 -2.9 -13.7 L-2.75 -14.0 -2.75 -14.05 -3.15 -13.8 -2.95 -14.0 M-3.05 -14.0 L-3.45 -13.75 -3.8 -14.0 -3.9 -14.0 -3.85 -13.8 -4.1 -14.0 -4.35 -14.0 -5.0 -13.7 M-5.05 -13.8 L-5.35 -14.05 -6.2 -13.8 -6.1 -14.05 M-6.4 -14.0 L-6.9 -13.85 -6.8 -14.0 -7.9 -14.0 -8.2 -14.0 -7.15 -15.25 -6.8 -15.7 -6.7 -15.85 -7.1 -15.55 -6.65 -16.4 M0.25 -14.4 L0.05 -14.65 M0.3 -14.05 L0.05 -14.45 0.45 -14.05 M0.5 -14.05 L0.25 -14.4 0.7 -14.05 M-6.25 -16.45 L-6.7 -15.85 M-6.1 -14.95 L-6.6 -14.3 -6.8 -14.0 M-6.4 -14.0 L-5.95 -14.3 -6.1 -14.05 M-7.9 -14.0 L-6.6 -14.3 M-3.05 -14.0 L-2.9 -14.1 -2.95 -14.0 M-4.3 -14.25 L-4.2 -14.15 -4.1 -14.0 M-4.2 -14.15 L-4.35 -14.0 M-3.8 -14.0 L-4.05 -14.25 -3.9 -14.0 M-4.05 -14.25 L-4.1 -14.4 M-1.05 -14.3 L-1.15 -14.4 M-0.9 -14.05 L-1.05 -14.3 -0.65 -14.05 M-1.8 -14.05 L-1.6 -14.25 M-2.15 -14.0 L-1.95 -14.15 -1.9 -14.05 M-1.25 -14.05 L-1.6 -14.25 M0.05 -16.05 L-0.1 -16.3" fill="none" stroke="#000000" stroke-linecap="round" stroke-linejoin="round" stroke-opacity="0.3019608" stroke-width="0.1"/>
      <path d="M-0.6 -17.75 Q-0.1 -16.85 0.95 -16.25 L0.2 -16.3 -0.2 -16.6 0.15 -16.15 -0.1 -16.3 -0.6 -16.7 -0.45 -16.05 -1.1 -16.75 Q-1.15 -16.2 -1.45 -15.8 L-2.0 -16.55 -2.3 -15.8 -2.5 -16.45 -2.95 -15.8 -2.75 -16.6 -3.0 -16.1 -3.2 -16.7 -3.15 -15.95 -3.55 -16.65 -3.6 -15.9 -4.05 -16.55 -4.0 -16.65 -4.5 -16.5 -4.0 -16.65 -4.05 -16.55 -4.7 -15.95 -4.5 -16.5 Q-4.95 -16.15 -5.55 -15.9 L-5.35 -16.7 -6.2 -16.0 -5.65 -17.0 -6.25 -16.45 -6.75 -16.15 -6.5 -16.5 -6.65 -16.4 -7.5 -16.15 Q-6.55 -16.9 -6.0 -18.15 L-5.9 -17.55 Q-5.35 -17.65 -4.95 -18.0 L-5.1 -17.7 Q-4.55 -17.75 -4.1 -18.15 L-4.0 -17.55 -3.55 -18.2 Q-3.45 -17.7 -3.05 -17.55 -2.8 -17.75 -2.8 -18.2 L-1.7 -17.6 -1.85 -18.05 Q-1.65 -17.85 -1.25 -17.75 L-1.15 -18.15 -0.6 -17.75 M-3.5 -16.9 L-3.55 -16.65 -3.5 -16.9 M-0.2 -16.6 L-0.7 -17.05 -0.6 -16.7 -0.7 -17.05 -0.2 -16.6 M-1.4 -16.95 L-1.1 -16.75 -1.4 -16.95 M-2.2 -16.85 L-2.0 -16.55 -2.2 -16.85 M-2.75 -16.6 L-2.75 -16.7 -2.5 -16.45 -2.75 -16.7 -2.75 -16.6" fill="url(#decoration260-gradient1)" fill-rule="evenodd" stroke="none"/>
      <path d="M-5.5 -19.2 L-1.85 -19.5 -1.25 -19.2 -0.9 -18.2 -0.7 -17.9 -1.15 -18.25 -1.25 -17.9 -1.55 -18.45 -1.4 -17.9 -2.0 -18.3 -1.85 -17.75 Q-2.5 -17.9 -2.85 -18.6 -2.85 -17.95 -3.1 -17.7 -3.4 -17.95 -3.5 -18.5 L-3.9 -17.85 -4.0 -18.35 Q-4.4 -18.05 -4.9 -17.9 L-4.75 -18.2 -5.0 -18.05 -5.8 -17.8 -5.85 -18.4 -5.7 -18.7 -6.2 -18.35 -5.5 -19.2" fill="#2b5607" fill-rule="evenodd" stroke="none"/>
      <path d="M-0.6 -17.75 L-1.15 -18.15 -1.25 -17.75 Q-1.65 -17.85 -1.85 -18.05 L-1.7 -17.6 -2.8 -18.2 Q-2.8 -17.75 -3.05 -17.55 -3.45 -17.7 -3.55 -18.2 L-4.0 -17.55 -4.1 -18.15 Q-4.55 -17.75 -5.1 -17.7 L-4.95 -18.0 Q-5.35 -17.65 -5.9 -17.55 L-6.0 -18.15 -5.95 -18.25 Q-6.25 -18.05 -6.6 -18.0 L-5.95 -19.1 -5.7 -19.1 -5.5 -19.2 -6.2 -18.35 -5.7 -18.7 -5.85 -18.4 -5.8 -17.8 -5.0 -18.05 -4.75 -18.2 -4.9 -17.9 Q-4.4 -18.05 -4.0 -18.35 L-3.9 -17.85 -3.5 -18.5 Q-3.4 -17.95 -3.1 -17.7 -2.85 -17.95 -2.85 -18.6 -2.5 -17.9 -1.85 -17.75 L-2.0 -18.3 -1.4 -17.9 -1.55 -18.45 -1.25 -17.9 -1.15 -18.25 -0.7 -17.9 -0.6 -17.75 M-0.9 -18.2 L-1.25 -19.2 -1.05 -19.2 Q-0.6 -18.5 -0.15 -18.25 L-0.7 -18.45 -0.35 -17.9 -0.9 -18.2 M-5.85 -18.4 L-5.95 -18.25 -5.85 -18.4" fill="#326209" fill-rule="evenodd" stroke="none"/>
      <path d="M-0.2 -16.6 L0.2 -16.3 0.95 -16.25 Q-0.1 -16.85 -0.6 -17.75 L-0.7 -17.9 -0.9 -18.2 -1.25 -19.2 M-6.0 -18.15 Q-6.55 -16.9 -7.5 -16.15 L-6.65 -16.4 -6.5 -16.5 -6.75 -16.15 -6.25 -16.45 -5.65 -17.0 -6.2 -16.0 -5.35 -16.7 -5.55 -15.9 Q-4.95 -16.15 -4.5 -16.5 L-4.0 -16.65 -4.05 -16.55 -3.6 -15.9 -3.55 -16.65 -3.5 -16.9 M-5.7 -18.7 L-5.85 -18.4 M-1.05 -19.2 Q-0.6 -18.5 -0.15 -18.25 L-0.7 -18.45 -0.35 -17.9 -0.9 -18.2 M-5.95 -19.1 L-6.6 -18.0 Q-6.25 -18.05 -5.95 -18.25 L-5.85 -18.4 M-5.95 -18.25 L-6.0 -18.15 M-0.2 -16.6 L0.15 -16.15 -0.1 -16.3 -0.6 -16.7 -0.45 -16.05 -1.1 -16.75 Q-1.15 -16.2 -1.45 -15.8 L-2.0 -16.55 -2.3 -15.8 -2.5 -16.45 -2.95 -15.8 -2.75 -16.6 -3.0 -16.1 -3.2 -16.7 -3.15 -15.95 -3.55 -16.65 M-2.0 -16.55 L-2.2 -16.85 M-1.1 -16.75 L-1.4 -16.95 M-0.6 -16.7 L-0.7 -17.05 -0.2 -16.6 M-4.05 -16.55 L-4.7 -15.95 -4.5 -16.5 M-2.5 -16.45 L-2.75 -16.7 -2.75 -16.6" fill="none" stroke="#000000" stroke-linecap="round" stroke-linejoin="round" stroke-opacity="0.3019608" stroke-width="0.1"/>
      <path d="M-2.1 -21.85 L-2.2 -22.25 -1.85 -21.9 -1.2 -20.9 -1.95 -21.4 -2.1 -21.8 -2.1 -21.85 M-5.15 -21.85 L-5.25 -21.35 -5.3 -21.15 -6.0 -20.9 Q-5.4 -21.35 -5.15 -21.85 M-5.4 -20.85 L-4.9 -21.35 -5.0 -21.1 Q-4.6 -21.25 -4.3 -21.55 L-4.25 -21.35 -3.85 -20.8 -3.7 -21.5 -3.55 -20.9 -3.45 -21.45 -3.15 -20.95 -3.05 -21.4 -3.05 -20.7 Q-2.75 -20.9 -2.7 -21.55 L-2.45 -21.1 -2.35 -21.45 -2.0 -21.05 -1.9 -21.25 -1.85 -21.1 -1.95 -20.85 -2.3 -21.25 -2.5 -20.85 -2.65 -21.25 Q-2.75 -20.75 -3.1 -20.6 L-3.1 -20.85 -3.2 -20.7 -3.4 -21.1 Q-3.4 -20.85 -3.55 -20.65 L-3.75 -21.15 -3.85 -20.5 -4.45 -21.25 -5.15 -20.8 -5.05 -21.05 -5.5 -20.65 -5.4 -20.85 M-4.05 -18.95 L-4.3 -18.75 -4.35 -18.75 -4.3 -18.75 -4.05 -18.95 -4.2 -18.8 -4.6 -18.3 -4.35 -18.75 Q-4.9 -18.3 -5.5 -18.15 -5.15 -18.3 -4.7 -18.6 L-3.95 -19.2 -4.05 -18.95 M-3.35 -19.2 L-3.3 -18.8 -3.05 -18.05 -3.45 -18.75 -3.45 -18.95 -3.35 -19.2 M-2.9 -18.5 L-3.0 -19.2 -2.9 -19.1 -2.9 -18.8 -2.9 -18.5 M-1.9 -18.0 L-2.4 -18.85 -2.5 -19.2 -2.2 -18.85 -2.15 -18.8 -1.9 -18.0 M-1.75 -19.05 L-1.75 -19.25 -1.4 -18.85 -1.55 -19.3 -1.3 -18.95 -1.25 -18.3 Q-1.3 -18.65 -1.7 -19.05 L-1.75 -19.05 M-0.75 -18.45 L-1.45 -19.6 -1.0 -19.2 -0.8 -18.65 -0.75 -18.45 M-7.05 -18.6 Q-6.2 -18.8 -5.85 -19.1 L-5.6 -19.4 -5.45 -19.6 -5.55 -19.2 -5.75 -19.0 -5.8 -19.0 -6.15 -18.7 -7.05 -18.6 M-5.5 -19.05 L-5.35 -19.2 -5.55 -18.6 -5.5 -18.9 -5.5 -19.05" fill="#326209" fill-rule="evenodd" stroke="none"/>
      <path d="M-2.2 -22.25 L-2.1 -21.85 -2.1 -21.8 -1.95 -21.4 -1.9 -21.25 -2.0 -21.05 -2.35 -21.45 -2.45 -21.1 -2.7 -21.55 Q-2.75 -20.9 -3.05 -20.7 L-3.05 -21.4 -3.15 -20.95 -3.45 -21.45 -3.55 -20.9 -3.7 -21.5 -3.85 -20.8 -4.25 -21.35 -4.3 -21.55 Q-4.6 -21.25 -5.0 -21.1 L-4.9 -21.35 -5.4 -20.85 -5.3 -21.15 -5.25 -21.35 -5.15 -21.85 -4.6 -22.3 -2.2 -22.25" fill="#2b5607" fill-rule="evenodd" stroke="none"/>
      <path d="M-5.5 -20.65 L-5.05 -21.05 -5.15 -20.8 -4.45 -21.25 -3.85 -20.5 -3.75 -21.15 -3.55 -20.65 Q-3.4 -20.85 -3.4 -21.1 L-3.2 -20.7 -3.1 -20.85 -3.1 -20.6 Q-2.75 -20.75 -2.65 -21.25 L-2.5 -20.85 -2.3 -21.25 -1.95 -20.85 -1.85 -21.1 Q-1.3 -19.85 -0.1 -18.85 L-0.8 -19.1 -1.0 -19.2 -1.45 -19.6 -0.75 -18.45 -0.95 -18.6 -1.3 -18.95 -1.55 -19.3 -1.4 -18.85 -1.75 -19.25 -1.75 -19.05 -1.75 -19.0 -1.45 -18.15 -2.15 -18.8 -2.2 -18.85 -2.5 -19.2 -2.4 -18.85 -1.9 -18.0 -2.75 -18.85 -2.9 -19.1 -3.0 -19.2 -2.9 -18.5 -3.05 -18.05 -3.3 -18.8 -3.35 -19.2 -3.45 -18.95 -3.55 -18.75 -3.85 -18.2 -3.85 -18.45 -3.75 -18.9 -3.85 -18.8 -3.9 -18.75 Q-4.25 -18.4 -4.6 -18.3 L-4.2 -18.8 -4.05 -18.95 -3.95 -19.2 -4.7 -18.6 Q-5.15 -18.3 -5.5 -18.15 L-5.55 -18.6 -5.35 -19.2 -5.5 -19.05 -5.6 -18.95 -5.7 -18.85 -6.15 -18.5 -5.8 -19.0 -5.75 -19.0 -5.55 -19.2 -5.45 -19.6 -5.6 -19.4 -5.85 -19.1 Q-6.2 -18.8 -7.05 -18.6 -6.15 -19.4 -5.5 -20.65" fill="url(#decoration260-gradient2)" fill-rule="evenodd" stroke="none"/>
      <path d="M-5.25 -21.35 L-5.3 -21.15 -5.4 -20.85 M-1.9 -21.25 L-1.95 -21.4 -2.1 -21.8 -2.1 -21.85 M-1.85 -21.9 L-1.2 -20.9 -1.95 -21.4 M-1.85 -21.1 L-1.9 -21.25 M-4.35 -18.75 L-4.3 -18.75 -4.05 -18.95 M-5.5 -18.15 Q-4.9 -18.3 -4.35 -18.75 L-4.6 -18.3 M-3.75 -18.9 L-3.85 -18.8 -3.9 -18.75 Q-4.25 -18.4 -4.6 -18.3 M-3.05 -18.05 L-2.9 -18.5 M-3.0 -19.2 L-2.9 -19.1 -2.75 -18.85 -1.9 -18.0 M-2.5 -19.2 L-2.2 -18.85 -2.15 -18.8 -1.45 -18.15 -1.75 -19.0 -1.75 -19.05 -1.75 -19.25 M-1.55 -19.3 L-1.3 -18.95 -0.95 -18.6 -0.75 -18.45 M-1.45 -19.6 L-1.0 -19.2 -0.8 -19.1 -0.1 -18.85 Q-1.3 -19.85 -1.85 -21.1 M-3.05 -18.05 L-3.45 -18.75 -3.45 -18.95 -3.55 -18.75 -3.85 -18.2 -3.85 -18.45 M-2.9 -19.1 L-2.9 -18.8 -2.9 -18.5 M-3.45 -18.95 L-3.35 -19.2 M-1.3 -18.95 L-1.25 -18.3 Q-1.3 -18.65 -1.7 -19.05 L-1.75 -19.05 M-1.0 -19.2 L-0.8 -18.65 -0.75 -18.45 M-5.3 -21.15 L-6.0 -20.9 Q-5.4 -21.35 -5.15 -21.85 M-5.5 -20.65 L-5.4 -20.85 M-5.55 -19.2 L-5.75 -19.0 -5.8 -19.0 -6.15 -18.5 -5.7 -18.85 -5.6 -18.95 -5.5 -19.05 -5.35 -19.2 M-5.55 -18.6 L-5.5 -18.15 M-5.8 -19.0 L-6.15 -18.7 -7.05 -18.6 Q-6.15 -19.4 -5.5 -20.65 M-5.55 -18.6 L-5.5 -18.9 -5.5 -19.05 M-2.15 -18.8 L-1.9 -18.0" fill="none" stroke="#000000" stroke-linecap="round" stroke-linejoin="round" stroke-opacity="0.3019608" stroke-width="0.1"/>
      <path d="M-2.0 -21.05 L-2.1 -21.7 -2.3 -22.15 -2.2 -22.0 -2.1 -21.9 -2.05 -21.7 -2.0 -21.05 M-6.35 -21.45 L-5.55 -22.1 -4.85 -22.95 Q-5.0 -22.45 -5.3 -22.05 L-5.5 -21.9 -6.35 -21.45 M-5.35 -21.0 L-4.9 -21.6 -4.45 -22.45 -4.65 -21.8 -4.8 -21.6 -5.35 -21.0 M-4.85 -21.15 L-4.55 -21.55 -4.1 -22.65 -4.25 -21.75 -4.4 -21.55 -4.85 -21.15 M-3.75 -21.85 L-3.75 -21.9 -3.7 -22.15 -3.65 -21.5 -3.75 -21.85 M-3.5 -21.85 L-3.5 -21.9 -3.5 -22.05 -3.4 -21.65 -3.15 -21.05 -3.5 -21.85 M-3.1 -21.85 L-3.15 -22.4 -2.9 -21.7 -2.9 -21.15 -3.05 -21.7 -3.1 -21.85" fill="#326209" fill-rule="evenodd" stroke="none"/>
      <path d="M-2.3 -22.15 L-2.1 -21.7 -2.0 -21.05 -2.45 -21.7 -2.55 -21.9 -2.8 -22.1 -2.7 -21.9 -2.8 -22.1 -2.55 -21.9 -2.4 -21.2 -2.7 -21.9 -2.7 -21.7 -2.85 -20.8 -2.9 -21.15 -2.9 -21.7 -3.15 -22.4 -3.1 -21.85 -3.1 -21.7 -3.15 -21.05 -3.4 -21.65 -3.5 -22.05 -3.5 -21.9 -3.5 -21.85 -3.5 -21.65 -3.55 -21.05 -3.65 -21.5 -3.7 -22.15 -3.75 -21.9 -3.75 -21.85 -3.8 -21.5 -3.95 -20.9 -4.25 -21.55 -4.25 -21.75 -4.1 -22.65 -4.55 -21.55 -4.85 -21.15 -4.65 -21.8 -4.45 -22.45 -4.9 -21.6 -5.35 -21.0 -5.3 -21.25 -5.2 -21.75 -5.1 -22.05 -5.3 -21.8 -6.05 -21.25 -5.3 -22.05 Q-5.0 -22.45 -4.85 -22.95 L-5.55 -22.1 -6.35 -21.45 Q-4.15 -23.95 -3.5 -27.2 -2.8 -24.1 -1.0 -21.55 L-1.85 -21.9 -2.2 -22.0 -1.85 -21.9 -1.35 -21.35 Q-1.6 -21.45 -1.65 -21.5 L-2.1 -21.9 -2.2 -22.0 -2.3 -22.15" fill="url(#decoration260-gradient3)" fill-rule="evenodd" stroke="none"/>
      <path d="M-2.3 -22.15 L-2.2 -22.0 -1.85 -21.9 -1.0 -21.55 Q-2.8 -24.1 -3.5 -27.2 -4.15 -23.95 -6.35 -21.45 M-5.3 -22.05 L-6.05 -21.25 -5.3 -21.8 -5.1 -22.05 -5.2 -21.75 -5.3 -21.25 -5.35 -21.0 M-4.65 -21.8 L-4.85 -21.15 M-4.25 -21.75 L-4.25 -21.55 -3.95 -20.9 -3.8 -21.5 -3.75 -21.85 -3.75 -21.9 -3.7 -22.15 M-3.65 -21.5 L-3.55 -21.05 -3.5 -21.65 -3.5 -21.85 -3.5 -21.9 -3.5 -22.05 M-3.15 -21.05 L-3.1 -21.7 -3.1 -21.85 -3.15 -22.4 M-2.9 -21.15 L-2.85 -20.8 -2.7 -21.7 -2.7 -21.9 -2.8 -22.1 -2.55 -21.9 -2.45 -21.7 -2.0 -21.05 -2.05 -21.7 -2.1 -21.9 -2.2 -22.0 M-2.9 -21.15 L-3.05 -21.7 -3.1 -21.85 M-4.25 -21.75 L-4.4 -21.55 -4.85 -21.15 M-1.85 -21.9 L-1.35 -21.35 Q-1.6 -21.45 -1.65 -21.5 L-2.1 -21.9 M-3.15 -21.05 L-3.5 -21.85 M-2.55 -21.9 L-2.4 -21.2 -2.7 -21.9 M-4.65 -21.8 L-4.8 -21.6 -5.35 -21.0 M-3.65 -21.5 L-3.75 -21.85 M-5.3 -22.05 L-5.5 -21.9 -6.35 -21.45" fill="none" stroke="#000000" stroke-linecap="round" stroke-linejoin="round" stroke-opacity="0.3019608" stroke-width="0.1"/>
      <path d="M3.3 -25.35 Q2.75 -24.95 2.45 -25.7 2.2 -26.4 2.7 -26.75 3.2 -27.1 3.55 -26.4 3.9 -25.75 3.3 -25.35 M10.3 -19.55 Q9.85 -20.15 10.6 -20.65 11.4 -21.1 11.85 -20.5 12.3 -19.9 11.55 -19.45 L10.3 -19.55 M8.55 -18.95 Q8.45 -19.2 8.7 -19.35 L8.95 -19.45 8.75 -19.3 8.55 -18.95 M1.25 -19.6 Q1.75 -19.1 1.05 -18.6 0.35 -18.15 -0.1 -18.95 -0.5 -19.75 0.1 -19.95 0.75 -20.15 1.25 -19.6 M3.05 -18.9 Q2.2 -18.5 1.55 -19.3 0.9 -20.15 1.65 -20.6 2.35 -21.1 3.15 -20.2 3.9 -19.3 3.05 -18.9 M0.25 -14.25 Q-0.2 -15.05 0.4 -15.5 1.0 -16.0 1.85 -15.25 2.7 -14.55 1.7 -14.0 0.7 -13.5 0.25 -14.25 M1.45 -13.25 Q1.8 -12.55 1.15 -12.3 0.45 -12.05 0.05 -12.65 -0.4 -13.25 0.35 -13.6 1.1 -13.95 1.45 -13.25 M3.15 -13.15 L4.0 -13.1 Q4.35 -12.65 3.9 -12.35 L3.0 -12.4 Q2.6 -12.75 3.15 -13.15 M4.1 -13.8 Q3.45 -13.4 2.9 -14.0 2.4 -14.6 3.15 -15.0 3.9 -15.35 4.35 -14.8 4.8 -14.2 4.1 -13.8 M-4.7 -26.85 Q-5.45 -26.45 -5.65 -27.25 -5.85 -28.0 -5.4 -28.2 -4.9 -28.4 -4.45 -27.8 -4.0 -27.2 -4.7 -26.85 M-1.5 -16.25 Q-1.65 -17.0 -1.1 -17.45 -0.55 -17.9 -0.1 -17.15 0.3 -16.4 -0.5 -15.95 -1.3 -15.5 -1.5 -16.25 M-7.5 -19.8 Q-7.7 -20.6 -7.05 -20.95 -6.35 -21.3 -6.2 -20.65 -6.0 -20.0 -6.65 -19.5 -7.35 -19.0 -7.5 -19.8 M-9.7 -14.5 Q-10.8 -13.85 -11.35 -14.7 L-11.5 -14.9 Q-11.55 -14.65 -11.95 -14.4 L-13.15 -14.45 Q-13.65 -15.05 -12.9 -15.45 L-11.65 -15.4 -11.6 -15.35 -11.1 -16.2 Q-10.25 -16.85 -9.45 -16.0 -8.6 -15.15 -9.7 -14.5 M-5.2 -9.4 Q-5.95 -8.8 -6.25 -9.7 -6.55 -10.6 -5.8 -10.9 -5.1 -11.2 -4.8 -10.6 -4.45 -10.0 -5.2 -9.4 M-6.5 -7.9 Q-6.95 -8.5 -6.35 -8.95 -5.75 -9.4 -5.25 -8.8 -4.7 -8.25 -5.4 -7.75 -6.1 -7.25 -6.5 -7.9" fill="#ffffff" fill-opacity="0.49803922" fill-rule="evenodd" stroke="none"/>
      <path d="M8.95 -19.45 Q9.4 -19.75 9.85 -19.25 10.35 -18.65 9.65 -18.1 L8.6 -18.15 Q8.35 -18.6 8.55 -18.95 L8.75 -19.3 8.95 -19.45 M-12.5 -17.45 Q-12.9 -18.05 -12.35 -18.5 L-11.4 -18.4 Q-10.95 -17.85 -11.5 -17.35 -12.05 -16.85 -12.5 -17.45" fill="#ffffff" fill-opacity="0.3019608" fill-rule="evenodd" stroke="none"/>
      <path d="M3.9 -20.3 L3.9 -20.2 3.85 -20.1 3.6 -19.25 Q3.5 -19.1 3.45 -19.25 L3.45 -19.4 3.3 -19.3 3.25 -19.5 3.2 -19.75 3.2 -19.8 3.25 -20.0 3.3 -20.4 3.45 -20.65 3.55 -20.9 3.7 -21.0 3.85 -20.65 3.9 -20.3" fill="#f2f7f8" fill-rule="evenodd" stroke="none"/>
      <path d="M3.2 -19.75 L3.25 -19.5 3.3 -19.3 3.45 -19.4 3.45 -19.25 Q3.5 -19.1 3.6 -19.25 L3.85 -20.1 3.9 -20.2 3.9 -20.3 3.9 -19.95 3.9 -19.7 3.8 -19.3 3.75 -19.15 3.7 -18.95 3.6 -18.8 Q3.55 -18.75 3.4 -18.95 L3.2 -19.15 3.2 -19.55 3.2 -19.75" fill="#bbd1d7" fill-rule="evenodd" stroke="none"/>
      <path d="M4.85 -20.3 Q5.4 -19.8 4.7 -19.4 4.05 -18.95 3.65 -19.55 L3.6 -19.65 3.45 -19.55 3.4 -19.5 3.45 -19.45 Q3.65 -19.1 3.3 -18.7 2.9 -18.35 2.7 -18.8 2.5 -19.25 2.85 -19.5 L2.9 -19.55 2.8 -19.7 Q2.55 -20.1 2.9 -20.35 3.25 -20.55 3.55 -20.15 L3.8 -20.45 4.85 -20.3" fill="#ffffff" fill-opacity="0.81960785" fill-rule="evenodd" stroke="none"/>
      <path d="M0.8 -17.35 L0.8 -17.45 0.85 -17.55 Q0.75 -17.75 0.8 -17.9 L0.9 -18.1 Q0.95 -18.7 1.5 -19.1 L2.1 -19.3 2.75 -19.4 2.95 -19.3 3.25 -19.15 Q3.6 -19.05 3.8 -18.75 L3.9 -18.65 4.0 -18.15 Q4.0 -16.9 3.35 -16.75 L3.05 -16.45 2.3 -16.55 1.65 -16.65 1.6 -16.95 1.35 -16.85 Q1.05 -16.85 0.8 -17.35" fill="#f2f7f8" fill-rule="evenodd" stroke="none"/>
      <path d="M0.8 -17.35 Q1.05 -16.85 1.35 -16.85 L1.6 -16.95 1.65 -16.65 2.3 -16.55 3.05 -16.45 3.35 -16.75 Q4.0 -16.9 4.0 -18.15 L4.05 -18.15 4.1 -17.5 4.1 -17.15 3.7 -16.4 Q3.35 -16.0 2.6 -15.95 L2.2 -15.95 Q1.85 -15.9 1.8 -16.1 L1.55 -16.15 1.05 -16.55 0.95 -16.9 0.8 -17.35" fill="#bbd1d7" fill-rule="evenodd" stroke="none"/>
      <path d="M0.55 -18.8 Q0.25 -19.15 0.6 -19.4 L1.25 -19.3 Q1.5 -19.0 1.15 -18.7 0.8 -18.45 0.55 -18.8 M3.55 -18.65 Q3.1 -18.3 2.75 -18.75 2.4 -19.2 2.8 -19.5 L3.6 -19.4 Q3.95 -19.0 3.55 -18.65 M3.35 -15.55 L2.75 -15.65 Q2.45 -16.05 2.9 -16.25 L3.5 -16.15 Q3.65 -15.85 3.35 -15.55 M3.55 -16.9 Q3.35 -17.45 3.75 -17.7 4.1 -18.0 4.4 -17.45 4.7 -16.95 4.25 -16.65 3.75 -16.35 3.55 -16.9 M0.7 -16.55 Q0.45 -16.95 0.85 -17.2 1.25 -17.4 1.55 -17.0 1.8 -16.65 1.4 -16.4 0.95 -16.1 0.7 -16.55" fill="#ffffff" fill-opacity="0.81960785" fill-rule="evenodd" stroke="none"/>
      <path d="M-0.45 -19.2 L-0.45 -19.3 -0.45 -19.45 -0.4 -19.6 0.0 -20.25 0.4 -20.4 0.8 -20.45 0.95 -20.4 1.15 -20.25 1.5 -20.05 1.5 -19.8 1.5 -19.55 1.45 -19.2 Q1.35 -18.95 1.0 -19.1 L0.65 -18.55 0.25 -18.5 -0.1 -18.8 -0.2 -19.1 -0.35 -19.1 -0.45 -19.2" fill="#f2f7f8" fill-rule="evenodd" stroke="none"/>
      <path d="M1.5 -20.05 L1.55 -19.85 1.6 -19.65 1.65 -19.2 1.55 -19.05 1.15 -18.55 Q1.0 -18.2 0.7 -18.2 L0.45 -18.2 0.2 -18.25 0.05 -18.35 Q-0.15 -18.4 -0.3 -18.6 L-0.35 -18.8 -0.45 -19.2 -0.35 -19.1 -0.2 -19.1 -0.1 -18.8 0.25 -18.5 0.65 -18.55 1.0 -19.1 Q1.35 -18.95 1.45 -19.2 L1.5 -19.55 1.5 -19.8 1.5 -20.05" fill="#bbd1d7" fill-rule="evenodd" stroke="none"/>
      <path d="M1.2 -20.25 Q1.6 -20.5 1.85 -20.05 2.1 -19.6 1.7 -19.4 1.3 -19.2 1.05 -19.6 0.8 -19.45 0.55 -19.8 0.25 -20.15 0.65 -20.3 L1.15 -20.2 1.2 -20.25 M2.25 -18.65 Q2.4 -18.2 2.0 -18.05 1.6 -17.9 1.3 -18.25 0.95 -18.65 1.5 -18.9 2.05 -19.15 2.25 -18.65 M-0.75 -18.7 Q-0.9 -19.1 -0.6 -19.35 -0.25 -19.6 0.05 -19.2 0.4 -18.85 -0.1 -18.55 -0.65 -18.25 -0.75 -18.7" fill="#ffffff" fill-opacity="0.81960785" fill-rule="evenodd" stroke="none"/>
      <path d="M3.2 -17.75 Q3.15 -17.25 3.9 -17.3 L4.65 -17.5 Q3.7 -17.0 3.1 -17.25 L3.0 -17.6 3.15 -17.75 3.2 -17.75" fill="#c05b17" fill-rule="evenodd" stroke="none"/>
      <path d="M4.65 -17.5 L3.9 -17.3 Q3.15 -17.25 3.2 -17.75 L3.75 -17.65 4.15 -17.65 4.2 -17.65 4.65 -17.5" fill="#df6c1f" fill-rule="evenodd" stroke="none"/>
      <path d="M3.2 -17.75 L3.15 -17.75 3.0 -17.6 3.1 -17.25 Q3.7 -17.0 4.65 -17.5 L4.2 -17.65 4.15 -17.65 3.75 -17.65 3.2 -17.75 Z" fill="none" stroke="#000000" stroke-linecap="round" stroke-linejoin="round" stroke-opacity="0.29803923" stroke-width="0.1"/>
      <path d="M3.9 -18.35 L3.95 -18.25 3.65 -17.95 3.45 -18.25 3.7 -18.0 3.9 -18.35" fill="#bbd1d7" fill-rule="evenodd" stroke="none"/>
      <path d="M3.9 -18.35 L3.7 -18.0 3.45 -18.25 3.45 -18.3 3.5 -18.45 3.65 -18.55 3.8 -18.55 3.9 -18.35 M3.75 -18.3 L3.75 -18.25 3.65 -18.15 3.7 -18.15 3.75 -18.2 3.8 -18.25 3.75 -18.3 M3.6 -18.45 L3.55 -18.4 3.6 -18.4 3.6 -18.35 3.7 -18.45 3.65 -18.5 3.6 -18.45" fill="#23170b" fill-rule="evenodd" stroke="none"/>
      <path d="M3.6 -18.45 L3.65 -18.5 3.7 -18.45 3.6 -18.35 3.6 -18.4 3.55 -18.4 3.6 -18.45 M3.75 -18.3 L3.8 -18.25 3.75 -18.2 3.7 -18.15 3.65 -18.15 3.75 -18.25 3.75 -18.3" fill="#ada49a" fill-rule="evenodd" stroke="none"/>
      <path d="M3.9 -18.35 L3.7 -18.0 3.45 -18.25 3.45 -18.3 3.5 -18.45 3.65 -18.55 3.8 -18.55 3.9 -18.35 Z" fill="none" stroke="#000000" stroke-linecap="round" stroke-linejoin="round" stroke-opacity="0.3019608" stroke-width="0.1"/>
      <path d="M2.55 -18.35 L2.6 -18.25 2.35 -17.95 2.1 -18.25 2.35 -18.0 2.55 -18.35" fill="#bbd1d7" fill-rule="evenodd" stroke="none"/>
      <path d="M2.55 -18.35 L2.35 -18.0 2.1 -18.25 2.1 -18.3 2.15 -18.45 2.3 -18.55 2.45 -18.55 2.55 -18.35 M2.25 -18.45 L2.25 -18.4 2.3 -18.35 2.35 -18.45 2.3 -18.5 2.25 -18.45 M2.45 -18.2 L2.45 -18.3 2.4 -18.25 2.3 -18.15 2.35 -18.15 2.45 -18.2" fill="#23170b" fill-rule="evenodd" stroke="none"/>
      <path d="M2.45 -18.2 L2.35 -18.15 2.3 -18.15 2.4 -18.25 2.45 -18.3 2.45 -18.2 M2.25 -18.45 L2.3 -18.5 2.35 -18.45 2.3 -18.35 2.25 -18.4 2.25 -18.45" fill="#ada49a" fill-rule="evenodd" stroke="none"/>
      <path d="M2.55 -18.35 L2.35 -18.0 2.1 -18.25 2.1 -18.3 2.15 -18.45 2.3 -18.55 2.45 -18.55 2.55 -18.35 Z" fill="none" stroke="#000000" stroke-linecap="round" stroke-linejoin="round" stroke-opacity="0.3019608" stroke-width="0.1"/>
      <path d="M4.15 -15.2 L4.05 -15.5 4.5 -15.9 Q4.35 -15.55 4.7 -15.95 L5.15 -16.4 5.2 -16.4 6.0 -16.55 6.05 -16.5 6.1 -16.45 5.3 -16.35 4.6 -15.75 4.15 -15.2 M5.8 -17.45 L5.45 -16.65 5.3 -16.6 5.45 -16.8 5.55 -17.05 5.8 -17.45 M4.6 -15.75 L5.15 -16.4 4.6 -15.75" fill="#563f25" fill-rule="evenodd" stroke="none"/>
      <path d="M4.5 -15.9 L5.35 -16.8 5.65 -17.6 5.8 -17.45 5.55 -17.05 5.45 -16.8 5.3 -16.6 5.45 -16.65 6.0 -16.75 6.0 -16.55 5.2 -16.4 5.15 -16.4 4.7 -15.95 Q4.35 -15.55 4.5 -15.9" fill="#856638" fill-rule="evenodd" stroke="none"/>
      <path d="M6.0 -16.75 L6.05 -16.75 6.15 -16.55 6.1 -16.45 6.05 -16.5 6.0 -16.55 6.0 -16.75" fill="#4d3821" fill-rule="evenodd" stroke="none"/>
      <path d="M4.05 -15.5 L4.5 -15.9 5.35 -16.8 5.65 -17.6 5.8 -17.45 5.45 -16.65 6.0 -16.75 6.05 -16.75 6.15 -16.55 6.1 -16.45 5.3 -16.35 4.6 -15.75 4.15 -15.2 M6.0 -16.55 L6.0 -16.75 M6.1 -16.45 L6.05 -16.5 6.0 -16.55 M5.15 -16.4 L4.6 -15.75" fill="none" stroke="#000000" stroke-linecap="round" stroke-linejoin="round" stroke-opacity="0.3019608" stroke-width="0.1"/>
      <path d="M0.4 -14.3 L0.4 -14.4 0.4 -14.55 Q0.3 -14.8 0.35 -14.95 L0.5 -15.2 Q0.6 -15.95 1.2 -16.4 2.4 -15.95 2.9 -16.05 L4.0 -16.0 4.1 -15.85 4.3 -15.3 4.3 -15.25 Q4.3 -13.7 3.45 -13.5 L3.1 -13.15 Q2.65 -12.95 2.2 -13.3 L1.4 -13.4 1.35 -13.75 1.05 -13.65 Q0.7 -13.65 0.4 -14.3" fill="#f2f7f8" fill-rule="evenodd" stroke="none"/>
      <path d="M0.4 -14.3 Q0.7 -13.65 1.05 -13.65 L1.35 -13.75 1.4 -13.4 2.2 -13.3 Q2.65 -12.95 3.1 -13.15 L3.45 -13.5 Q4.3 -13.7 4.3 -15.25 L4.4 -14.45 4.35 -14.0 3.9 -13.15 3.45 -12.75 1.4 -12.75 1.3 -12.85 Q0.9 -12.95 0.7 -13.3 L0.6 -13.7 0.4 -14.3" fill="#bbd1d7" fill-rule="evenodd" stroke="none"/>
      <path d="M3.45 -15.7 Q3.25 -16.0 3.6 -16.25 4.0 -16.45 4.15 -16.1 4.35 -15.75 4.0 -15.55 3.6 -15.4 3.45 -15.7 M1.9 -16.4 Q2.35 -16.7 2.6 -16.25 2.85 -15.85 2.45 -15.45 2.1 -15.05 1.75 -15.6 1.45 -16.1 1.9 -16.4 M0.25 -14.6 Q0.05 -14.9 0.45 -15.15 0.85 -15.4 1.05 -15.0 1.25 -14.6 0.85 -14.45 0.45 -14.25 0.25 -14.6 M0.85 -13.7 Q1.15 -13.3 0.65 -13.05 0.15 -12.75 -0.1 -13.2 -0.35 -13.7 0.1 -13.9 0.6 -14.1 0.85 -13.7 M2.55 -12.7 Q2.4 -12.85 2.65 -13.0 2.85 -13.15 3.0 -12.9 3.15 -12.65 2.95 -12.6 L2.55 -12.7 M3.6 -13.55 Q3.25 -14.15 3.7 -14.45 4.2 -14.75 4.45 -14.3 4.75 -13.85 4.35 -13.45 3.9 -13.0 3.6 -13.55" fill="#ffffff" fill-opacity="0.81960785" fill-rule="evenodd" stroke="none"/>
      <path d="M-1.0 -16.85 L-0.4 -16.7 -0.35 -16.7 -0.2 -16.65 -0.4 -16.9 -0.5 -17.15 -0.75 -17.6 -0.6 -17.75 -0.2 -16.85 0.7 -15.95 Q0.9 -15.5 0.45 -16.0 L0.0 -16.45 -0.05 -16.5 -1.0 -16.65 -1.0 -16.85" fill="#856638" fill-rule="evenodd" stroke="none"/>
      <path d="M1.05 -15.15 L0.55 -15.75 -0.2 -16.4 -1.1 -16.55 -1.05 -16.6 -1.0 -16.65 -0.05 -16.5 0.0 -16.45 0.45 -16.0 Q0.9 -15.5 0.7 -15.95 L1.2 -15.45 1.05 -15.15 M-0.35 -16.7 L-0.75 -17.55 -0.75 -17.6 -0.5 -17.15 -0.4 -16.9 -0.2 -16.65 -0.35 -16.7 M0.0 -16.45 L0.55 -15.75 0.0 -16.45" fill="#563f25" fill-rule="evenodd" stroke="none"/>
      <path d="M-1.1 -16.55 L-1.15 -16.65 -1.05 -16.85 -1.0 -16.85 -1.0 -16.65 -1.05 -16.6 -1.1 -16.55" fill="#4d3821" fill-rule="evenodd" stroke="none"/>
      <path d="M1.05 -15.15 L0.55 -15.75 -0.2 -16.4 -1.1 -16.55 -1.15 -16.65 -1.05 -16.85 -1.0 -16.85 -0.4 -16.7 -0.35 -16.7 -0.75 -17.55 -0.75 -17.6 -0.6 -17.75 -0.2 -16.85 0.7 -15.95 1.2 -15.45 M0.55 -15.75 L0.0 -16.45 M-1.0 -16.65 L-1.05 -16.6 -1.1 -16.55 M-1.0 -16.85 L-1.0 -16.65" fill="none" stroke="#000000" stroke-linecap="round" stroke-linejoin="round" stroke-opacity="0.3019608" stroke-width="0.1"/>
      <path d="M4.4 -16.4 L4.4 -16.2 4.2 -15.8 1.65 -15.55 0.95 -15.8 0.7 -15.95 Q0.55 -16.65 0.8 -16.75 L1.05 -16.7 1.2 -16.45 1.7 -15.95 Q2.7 -15.4 4.4 -16.4" fill="#b97309" fill-rule="evenodd" stroke="none"/>
      <path d="M1.05 -16.7 L1.35 -16.5 2.05 -16.2 Q3.2 -15.85 4.05 -16.95 L4.4 -16.4 Q2.7 -15.4 1.7 -15.95 L1.2 -16.45 1.05 -16.7" fill="#ff9900" fill-rule="evenodd" stroke="none"/>
      <path d="M4.4 -16.4 L4.4 -16.2 4.2 -15.8 1.65 -15.55 0.95 -15.8 0.7 -15.95 Q0.55 -16.65 0.8 -16.75 L1.05 -16.7 1.35 -16.5 2.05 -16.2 Q3.2 -15.85 4.05 -16.95 L4.4 -16.4 Z" fill="none" stroke="#000000" stroke-linecap="round" stroke-linejoin="round" stroke-opacity="0.3019608" stroke-width="0.1"/>
      <path d="M1.4 -15.0 Q1.85 -15.0 1.95 -15.65 L2.0 -15.9 2.0 -16.25 2.3 -16.3 2.4 -16.15 2.25 -15.3 Q2.1 -14.6 1.6 -14.3 L1.3 -14.15 1.15 -14.1 Q1.6 -14.55 1.4 -14.95 L1.4 -15.0" fill="#da8300" fill-rule="evenodd" stroke="none"/>
      <path d="M1.4 -15.0 L1.3 -15.65 1.5 -16.2 Q1.6 -16.45 1.8 -16.4 L2.0 -16.25 2.0 -15.9 1.95 -15.65 Q1.85 -15.0 1.4 -15.0" fill="#ff9900" fill-rule="evenodd" stroke="none"/>
      <path d="M2.25 -15.3 L2.35 -14.65 2.15 -14.1 1.9 -13.9 0.8 -13.9 1.15 -14.1 1.3 -14.15 1.6 -14.3 Q2.1 -14.6 2.25 -15.3" fill="#b97309" fill-rule="evenodd" stroke="none"/>
      <path d="M2.0 -16.25 L1.8 -16.4 Q1.6 -16.45 1.5 -16.2 L1.3 -15.65 1.4 -15.0 M2.0 -15.9 L2.0 -16.25 2.3 -16.3 2.4 -16.15 2.25 -15.3 2.35 -14.65 2.15 -14.1 1.9 -13.9 0.8 -13.9 1.15 -14.1 Q1.6 -14.55 1.4 -14.95 L1.4 -15.0" fill="none" stroke="#000000" stroke-linecap="round" stroke-linejoin="round" stroke-opacity="0.3019608" stroke-width="0.1"/>
      <path d="M8.3 -26.05 Q11.9 -22.3 11.9 -17.0 11.9 -11.65 8.3 -7.95 4.75 -4.2 -0.3 -4.2 -5.35 -4.2 -8.95 -7.95 -12.5 -11.65 -12.5 -17.0 -12.5 -22.3 -8.95 -26.05 -5.35 -29.8 -0.3 -29.8 4.75 -29.8 8.3 -26.05 M8.55 -10.25 Q12.4 -16.8 9.2 -21.2 8.3 -6.3 -4.55 -6.25 4.85 -3.65 8.55 -10.25 M-7.65 -24.8 Q-10.0 -22.8 -9.55 -18.9 -8.1 -15.0 -5.05 -17.6 -2.45 -21.55 -3.2 -24.7 -4.8 -27.45 -7.65 -24.8" fill="#9ae8ff" fill-opacity="0.09803922" fill-rule="evenodd" stroke="none"/>
      <path d="M8.55 -10.25 Q4.85 -3.65 -4.55 -6.25 8.3 -6.3 9.2 -21.2 12.4 -16.8 8.55 -10.25" fill="#57737b" fill-opacity="0.29803923" fill-rule="evenodd" stroke="none"/>
      <path d="M-7.65 -24.8 Q-4.8 -27.45 -3.2 -24.7 -2.45 -21.55 -5.05 -17.6 -8.1 -15.0 -9.55 -18.9 -10.0 -22.8 -7.65 -24.8" fill="#dbf7ff" fill-opacity="0.29803923" fill-rule="evenodd" stroke="none"/>
      <path d="M8.3 -26.05 Q4.75 -29.8 -0.3 -29.8 -5.35 -29.8 -8.95 -26.05 -12.5 -22.3 -12.5 -17.0 -12.5 -11.65 -8.95 -7.95 -5.35 -4.2 -0.3 -4.2 4.75 -4.2 8.3 -7.95 11.9 -11.65 11.9 -17.0 11.9 -22.3 8.3 -26.05 Z" fill="none" stroke="#ffffff" stroke-linecap="round" stroke-linejoin="round" stroke-opacity="0.3019608" stroke-width="0.5"/>
      <path d="M-9.75 -5.55 L-9.75 -5.6 Q-8.65 -5.75 -8.2 -7.05 -0.55 -2.95 7.6 -7.0 8.0 -5.85 9.15 -5.6 L7.15 -4.85 Q4.8 -4.05 2.5 -3.75 L1.9 -3.65 0.0 -3.5 Q-5.0 -3.4 -9.75 -5.55" fill="#723712" fill-rule="evenodd" stroke="none"/>
      <path d="M1.9 -3.65 L2.5 -3.75 Q4.8 -4.05 7.15 -4.85 8.05 -0.8 3.1 0.25 L0.35 0.25 -7.35 0.2 -11.05 0.1 -11.05 -1.5 Q2.8 -0.85 1.9 -3.65" fill="#89441a" fill-rule="evenodd" stroke="none"/>
      <path d="M0.0 -3.5 L1.9 -3.65 Q2.8 -0.85 -11.05 -1.5 L-11.05 -2.05 Q-10.15 -3.3 -9.85 -4.95 -6.7 -3.4 -2.45 -3.2 L0.0 -3.5" fill="#984b1b" fill-rule="evenodd" stroke="none"/>
      <path d="M7.15 -4.85 L9.15 -5.6 Q9.25 -4.3 10.45 -2.05 L10.45 0.15 6.75 0.2 3.1 0.25 Q8.05 -0.8 7.15 -4.85" fill="#7e3e19" fill-rule="evenodd" stroke="none"/>
      <path d="M-9.75 -5.55 Q-5.0 -3.4 0.0 -3.5 L-2.45 -3.2 Q-6.7 -3.4 -9.85 -4.95 L-9.75 -5.55" fill="#a85725" fill-rule="evenodd" stroke="none"/>
      <path d="M10.45 0.15 L10.45 0.45 6.75 0.5 0.35 0.55 -7.35 0.5 -11.05 0.4 -11.05 0.1 -7.35 0.2 0.35 0.25 3.1 0.25 6.75 0.2 10.45 0.15" fill="#703412" fill-rule="evenodd" stroke="none"/>
      <path d="M9.15 -5.6 Q8.0 -5.85 7.6 -7.0 -0.55 -2.95 -8.2 -7.05 -8.65 -5.75 -9.75 -5.6 L-9.75 -5.55 Q-5.0 -3.4 0.0 -3.5 L1.9 -3.65 2.5 -3.75 Q4.8 -4.05 7.15 -4.85 L9.15 -5.6 Q9.25 -4.3 10.45 -2.05 L10.45 0.15 10.45 0.45 6.75 0.5 0.35 0.55 -7.35 0.5 -11.05 0.4 -11.05 0.1 -11.05 -1.5 -11.05 -2.05 Q-10.15 -3.3 -9.85 -4.95 L-9.75 -5.55" fill="none" stroke="#000000" stroke-linecap="round" stroke-linejoin="round" stroke-opacity="0.4" stroke-width="0.1"/>
      <path d="M0.1 -2.9 L0.6 -2.9 -2.55 -0.35 -3.1 -0.35 0.1 -2.9 M1.05 -2.9 L1.3 -2.9 -1.9 -0.35 -2.15 -0.35 1.05 -2.9" fill="#ffff00" fill-rule="evenodd" stroke="none"/>
      <path d="M3.45 -2.4 L3.9 -2.3 3.9 -0.55 Q3.15 -0.45 3.15 0.05 L-2.25 0.05 -2.95 0.0 -3.1 -0.35 -2.55 -0.35 -2.15 -0.35 -1.9 -0.35 2.5 -0.35 Q3.3 -0.35 3.4 -0.95 L3.45 -2.4" fill="#a06500" fill-rule="evenodd" stroke="none"/>
      <path d="M0.6 -2.9 L1.05 -2.9 -2.15 -0.35 -2.55 -0.35 0.6 -2.9 M1.3 -2.9 L3.1 -2.9 Q3.2 -2.6 3.45 -2.4 L3.4 -0.95 Q3.3 -0.35 2.5 -0.35 L-1.9 -0.35 1.3 -2.9 M-3.1 -0.35 L-3.7 -0.55 -3.7 -2.3 Q-3.05 -2.3 -2.9 -2.9 L0.1 -2.9 -3.1 -0.35" fill="#e9ba00" fill-rule="evenodd" stroke="none"/>
      <path d="M0.1 -2.9 L0.6 -2.9 1.05 -2.9 1.3 -2.9 3.1 -2.9 Q3.2 -2.6 3.45 -2.4 L3.9 -2.3 3.9 -0.55 Q3.15 -0.45 3.15 0.05 L-2.25 0.05 -2.95 0.0 -3.1 -0.35 -3.7 -0.55 -3.7 -2.3 Q-3.05 -2.3 -2.9 -2.9 L0.1 -2.9 Z" fill="none" stroke="#000000" stroke-linecap="round" stroke-linejoin="round" stroke-opacity="0.4" stroke-width="0.1"/>
    </g>
    <linearGradient gradientTransform="matrix(0.0, 0.0017, -0.0015, 0.0, -3.3, -15.05)" gradientUnits="userSpaceOnUse" id="decoration260-gradient0" spreadMethod="pad" x1="-819.2" x2="819.2">
      <stop offset="0.0" stop-color="#32690e"/>
      <stop offset="1.0" stop-color="#4d9f34"/>
    </linearGradient>
    <linearGradient gradientTransform="matrix(-2.0E-4, 0.0019, -0.0013, -1.0E-4, -3.2, -17.25)" gradientUnits="userSpaceOnUse" id="decoration260-gradient1" spreadMethod="pad" x1="-819.2" x2="819.2">
      <stop offset="0.0" stop-color="#32690e"/>
      <stop offset="1.0" stop-color="#4d9f34"/>
    </linearGradient>
    <linearGradient gradientTransform="matrix(-3.0E-4, 0.0022, -0.0017, -3.0E-4, -3.5, -20.35)" gradientUnits="userSpaceOnUse" id="decoration260-gradient2" spreadMethod="pad" x1="-819.2" x2="819.2">
      <stop offset="0.0" stop-color="#32690e"/>
      <stop offset="1.0" stop-color="#4d9f34"/>
    </linearGradient>
    <linearGradient gradientTransform="matrix(-8.0E-4, 0.0035, -0.0033, -0.001, -3.6, -25.55)" gradientUnits="userSpaceOnUse" id="decoration260-gradient3" spreadMethod="pad" x1="-819.2" x2="819.2">
      <stop offset="0.0" stop-color="#32690e"/>
      <stop offset="1.0" stop-color="#4d9f34"/>
    </linearGradient>
  </defs>
</svg>
