<?xml version="1.0" encoding="UTF-8" standalone="no"?>
<svg xmlns:xlink="http://www.w3.org/1999/xlink" height="35.55px" width="52.05px" xmlns="http://www.w3.org/2000/svg">
  <g transform="matrix(1.0, 0.0, 0.0, 1.0, 25.35, 35.1)">
    <use height="35.55" transform="matrix(1.0, 0.0, 0.0, 1.0, -25.35, -35.1)" width="52.05" xlink:href="#decoration261-shape0"/>
  </g>
  <defs>
    <g id="decoration261-shape0" transform="matrix(1.0, 0.0, 0.0, 1.0, 25.35, 35.1)">
      <path d="M-18.3 -1.85 L-14.0 0.1 -17.65 -0.05 Q-25.25 -0.4 -25.25 -1.0 -25.25 -1.5 -18.3 -1.85 M15.0 0.1 L19.8 -1.85 Q26.6 -1.5 26.6 -1.0 26.6 -0.4 19.05 -0.05 L15.0 0.1" fill="#e7e1d0" fill-rule="evenodd" stroke="none"/>
      <path d="M-18.3 -1.85 L-17.65 -1.9 Q-10.05 -2.25 0.7 -2.25 11.4 -2.25 19.05 -1.9 L19.8 -1.85 15.0 0.1 0.7 0.35 -14.0 0.1 -18.3 -1.85" fill="#a39e8e" fill-rule="evenodd" stroke="none"/>
      <path d="M19.8 -1.85 L19.05 -1.9 Q11.4 -2.25 0.7 -2.25 -10.05 -2.25 -17.65 -1.9 L-18.3 -1.85 Q-25.25 -1.5 -25.25 -1.0 -25.25 -0.4 -17.65 -0.05 L-14.0 0.1 0.7 0.35 15.0 0.1 M19.8 -1.85 Q26.6 -1.5 26.6 -1.0 26.6 -0.4 19.05 -0.05 L15.0 0.1" fill="none" stroke="#000000" stroke-linecap="round" stroke-linejoin="round" stroke-opacity="0.34117648" stroke-width="0.2"/>
      <path d="M-15.85 -3.45 Q4.3 0.35 10.85 -3.55 13.6 -5.15 14.3 -6.3 14.3 -13.4 12.0 -19.3 L11.75 -19.3 Q11.05 -18.35 8.85 -18.35 6.5 -18.35 5.8 -17.65 5.05 -16.0 3.1 -17.15 0.15 -18.1 0.2 -17.15 0.45 -15.85 -0.35 -15.2 -1.2 -14.5 -1.5 -16.4 -1.6 -17.6 -2.75 -17.5 L-5.5 -17.6 -9.4 -18.45 Q-11.1 -18.65 -12.8 -15.6 L-14.3 -12.95 -13.25 -16.45 Q-10.4 -23.9 -5.75 -23.25 L10.05 -23.25 Q11.2 -23.1 12.25 -22.0 14.7 -19.65 16.5 -12.9 L17.25 -9.75 17.55 -8.4 17.75 -7.55 18.0 -5.75 18.0 -5.65 Q18.25 -4.35 18.0 -3.4 17.6 -1.95 15.95 -1.2 L3.55 -0.65 Q-8.0 -0.5 -13.2 -1.0 -15.3 -1.75 -15.85 -3.45 M17.25 -9.75 L17.85 -6.5 18.0 -5.65 17.85 -6.5 17.25 -9.75" fill="#432e27" fill-rule="evenodd" stroke="none"/>
      <path d="M11.25 -16.7 Q11.7 -17.1 11.3 -17.2 L10.65 -17.05 Q10.25 -16.85 10.55 -16.55 10.8 -16.3 11.25 -16.7 M-14.3 -12.95 L-12.8 -15.6 Q-11.1 -18.65 -9.4 -18.45 L-5.5 -17.6 -2.75 -17.5 Q-1.6 -17.6 -1.5 -16.4 -1.2 -14.5 -0.35 -15.2 0.45 -15.85 0.2 -17.15 0.15 -18.1 3.1 -17.15 5.05 -16.0 5.8 -17.65 6.5 -18.35 8.85 -18.35 11.05 -18.35 11.75 -19.3 L12.0 -19.3 Q14.3 -13.4 14.3 -6.3 13.6 -5.15 10.85 -3.55 4.3 0.35 -15.85 -3.45 -16.2 -4.7 -15.65 -6.55 L-14.3 -12.95 M2.45 -14.75 L2.25 -14.75 2.25 -14.4 2.55 -14.6 2.45 -14.75 M6.5 -9.9 L7.15 -9.75 Q7.55 -9.75 7.45 -10.05 7.4 -10.45 6.8 -10.3 6.2 -10.15 6.5 -9.9 M8.65 -8.1 L8.5 -8.25 8.3 -8.25 8.3 -7.95 Q8.65 -7.95 8.65 -8.1 M2.95 -7.25 Q3.6 -7.4 3.35 -7.8 L3.05 -7.9 Q2.7 -7.7 2.85 -7.45 L2.95 -7.25 M7.2 -5.3 Q8.15 -5.35 7.75 -6.1 7.5 -6.5 7.25 -6.35 6.75 -6.1 7.05 -5.65 L7.2 -5.3 M2.85 -2.65 L2.95 -2.5 Q3.6 -2.6 3.35 -3.0 L3.05 -3.1 Q2.7 -2.9 2.85 -2.65 M-9.55 -16.05 L-9.55 -16.25 Q-10.2 -16.5 -10.2 -16.0 L-9.95 -15.8 -9.55 -16.05 M11.3 -11.95 L10.85 -12.2 Q9.8 -11.55 10.15 -10.95 10.5 -10.45 11.05 -11.05 11.55 -11.6 11.3 -11.95 M12.9 -11.75 L12.9 -11.95 Q12.25 -12.2 12.25 -11.7 12.25 -11.45 12.5 -11.45 12.9 -11.45 12.9 -11.75 M-10.4 -12.4 Q-10.4 -12.75 -11.0 -12.6 L-11.55 -12.25 -11.35 -12.0 Q-10.4 -12.0 -10.4 -12.4 M-6.2 -14.2 Q-6.8 -14.4 -6.8 -14.0 L-6.6 -13.75 Q-6.2 -13.75 -6.2 -14.0 L-6.2 -14.2 M-11.0 -7.8 Q-11.55 -7.7 -11.55 -7.5 L-11.35 -7.25 Q-10.4 -7.25 -10.4 -7.65 -10.4 -7.95 -11.0 -7.8 M-10.4 -4.45 Q-9.95 -4.85 -10.35 -4.95 L-11.0 -4.8 Q-11.35 -4.6 -11.1 -4.3 -10.8 -4.05 -10.4 -4.45 M-3.45 -4.25 Q-4.05 -4.5 -4.05 -4.0 L-3.8 -3.8 -3.45 -4.05 -3.45 -4.25 M-6.8 -9.2 L-6.6 -9.0 Q-6.2 -9.0 -6.2 -9.25 L-6.2 -9.45 Q-6.8 -9.7 -6.8 -9.2 M-9.85 -9.75 Q-9.5 -9.55 -9.4 -9.75 L-9.35 -10.15 -9.45 -10.5 -9.6 -10.6 -9.9 -10.85 Q-10.55 -10.25 -9.85 -9.75 M-4.7 -11.05 L-4.7 -11.25 Q-5.4 -11.4 -5.4 -11.0 L-5.15 -10.75 Q-4.7 -10.75 -4.7 -11.05" fill="#5c4037" fill-rule="evenodd" stroke="none"/>
      <path d="M11.25 -16.7 Q10.8 -16.3 10.55 -16.55 10.25 -16.85 10.65 -17.05 L11.3 -17.2 Q11.7 -17.1 11.25 -16.7 M2.45 -14.75 L2.55 -14.6 2.25 -14.4 2.25 -14.75 2.45 -14.75 M6.5 -9.9 Q6.2 -10.15 6.8 -10.3 7.4 -10.45 7.45 -10.05 7.55 -9.75 7.15 -9.75 L6.5 -9.9 M8.65 -8.1 Q8.65 -7.95 8.3 -7.95 L8.3 -8.25 8.5 -8.25 8.65 -8.1 M2.95 -7.25 L2.85 -7.45 Q2.7 -7.7 3.05 -7.9 L3.35 -7.8 Q3.6 -7.4 2.95 -7.25 M-6.2 -14.2 L-6.2 -14.0 Q-6.2 -13.75 -6.6 -13.75 L-6.8 -14.0 Q-6.8 -14.4 -6.2 -14.2 M-10.4 -12.4 Q-10.4 -12.0 -11.35 -12.0 L-11.55 -12.25 -11.0 -12.6 Q-10.4 -12.75 -10.4 -12.4 M-10.4 -4.45 Q-10.8 -4.05 -11.1 -4.3 -11.35 -4.6 -11.0 -4.8 L-10.35 -4.95 Q-9.95 -4.85 -10.4 -4.45" fill="#bf8311" fill-rule="evenodd" stroke="none"/>
      <path d="M2.85 -2.65 Q2.7 -2.9 3.05 -3.1 L3.35 -3.0 Q3.6 -2.6 2.95 -2.5 L2.85 -2.65 M7.2 -5.3 L7.05 -5.65 Q6.75 -6.1 7.25 -6.35 7.5 -6.5 7.75 -6.1 8.15 -5.35 7.2 -5.3 M12.9 -11.75 Q12.9 -11.45 12.5 -11.45 12.25 -11.45 12.25 -11.7 12.25 -12.2 12.9 -11.95 L12.9 -11.75 M11.3 -11.95 Q11.55 -11.6 11.05 -11.05 10.5 -10.45 10.15 -10.95 9.8 -11.55 10.85 -12.2 L11.3 -11.95 M-9.55 -16.05 L-9.95 -15.8 -10.2 -16.0 Q-10.2 -16.5 -9.55 -16.25 L-9.55 -16.05 M-11.0 -7.8 Q-10.4 -7.95 -10.4 -7.65 -10.4 -7.25 -11.35 -7.25 L-11.55 -7.5 Q-11.55 -7.7 -11.0 -7.8 M-4.7 -11.05 Q-4.7 -10.75 -5.15 -10.75 L-5.4 -11.0 Q-5.4 -11.4 -4.7 -11.25 L-4.7 -11.05 M-9.85 -9.75 Q-10.55 -10.25 -9.9 -10.85 L-9.6 -10.6 -9.45 -10.5 -9.35 -10.15 -9.4 -9.75 Q-9.5 -9.55 -9.85 -9.75 M-6.8 -9.2 Q-6.8 -9.7 -6.2 -9.45 L-6.2 -9.25 Q-6.2 -9.0 -6.6 -9.0 L-6.8 -9.2 M-3.45 -4.25 L-3.45 -4.05 -3.8 -3.8 -4.05 -4.0 Q-4.05 -4.5 -3.45 -4.25" fill="#411f15" fill-rule="evenodd" stroke="none"/>
      <path d="M-15.85 -3.45 Q-15.3 -1.75 -13.2 -1.0 -8.0 -0.5 3.55 -0.65 L15.95 -1.2 Q17.6 -1.95 18.0 -3.4 18.25 -4.35 18.0 -5.65 L17.85 -6.5 17.25 -9.75 16.5 -12.9 Q14.7 -19.65 12.25 -22.0 11.2 -23.1 10.05 -23.25 L-5.75 -23.25 Q-10.4 -23.9 -13.25 -16.45 L-14.3 -12.95 -15.65 -6.55 Q-16.2 -4.7 -15.85 -3.45 M18.0 -5.65 L18.0 -5.75 17.75 -7.55 17.55 -8.4 17.25 -9.75" fill="none" stroke="#000000" stroke-linecap="round" stroke-linejoin="round" stroke-opacity="0.34117648" stroke-width="0.2"/>
      <path d="M-13.4 -18.35 L-11.05 -22.0 Q-8.75 -26.2 9.35 -24.3 12.6 -23.9 13.95 -22.2 15.25 -20.45 17.3 -10.05 L17.3 -9.2 Q16.85 -7.8 16.3 -10.6 15.8 -13.3 15.0 -15.1 L14.95 -15.2 14.85 -15.35 Q11.9 -21.5 11.4 -20.95 9.65 -18.2 10.55 -15.2 L11.5 -12.05 12.1 -9.05 Q12.65 -6.15 11.3 -6.2 10.05 -5.85 9.55 -8.8 L9.25 -11.95 Q7.75 -21.45 5.5 -19.3 4.75 -17.65 2.8 -18.75 -0.15 -19.75 -0.1 -18.75 0.7 -15.3 0.4 -12.2 L0.25 -11.15 Q-0.1 -9.1 -1.25 -9.15 -3.25 -9.1 -2.15 -12.0 -1.1 -13.75 -1.75 -18.05 -1.85 -19.25 -3.05 -19.15 -4.8 -18.55 -5.95 -15.3 -6.2 -12.55 -7.35 -12.8 -8.8 -12.95 -7.7 -16.45 -6.4 -19.45 -9.0 -20.05 -11.6 -20.65 -12.1 -17.5 -12.75 -13.45 -13.8 -13.55 -14.85 -15.25 -13.4 -18.35 M9.55 -8.8 Q11.15 -5.85 11.65 -7.05 12.05 -7.75 11.75 -9.4 11.6 -5.85 9.55 -8.8 M5.05 -20.65 Q10.85 -21.25 12.55 -22.9 1.75 -19.5 -9.45 -22.9 -2.65 -19.65 5.05 -20.65 M0.25 -11.15 Q-2.4 -8.85 -1.65 -12.35 -2.75 -9.15 -1.55 -9.65 -0.75 -9.85 0.25 -11.15" fill="#fae9b0" fill-rule="evenodd" stroke="none"/>
      <path d="M9.55 -8.8 Q11.6 -5.85 11.75 -9.4 12.05 -7.75 11.65 -7.05 11.15 -5.85 9.55 -8.8 M0.25 -11.15 Q-0.75 -9.85 -1.55 -9.65 -2.75 -9.15 -1.65 -12.35 -2.4 -8.85 0.25 -11.15" fill="#fff3cb" fill-rule="evenodd" stroke="none"/>
      <path d="M-13.8 -13.55 L-14.3 -13.85 Q-15.25 -14.9 -13.4 -18.35 -14.85 -15.25 -13.8 -13.55 M5.05 -20.65 Q-2.65 -19.65 -9.45 -22.9 1.75 -19.5 12.55 -22.9 10.85 -21.25 5.05 -20.65" fill="#fff6d9" fill-rule="evenodd" stroke="none"/>
      <path d="M-13.4 -18.35 L-11.05 -22.0 Q-8.75 -26.2 9.35 -24.3 12.6 -23.9 13.95 -22.2 15.25 -20.45 17.3 -10.05 L17.3 -9.2 Q16.85 -7.8 16.3 -10.6 15.8 -13.3 15.0 -15.1 L14.95 -15.2 14.85 -15.35 Q11.9 -21.5 11.4 -20.95 9.65 -18.2 10.55 -15.2 L11.5 -12.05 12.1 -9.05 Q12.65 -6.15 11.3 -6.2 10.05 -5.85 9.55 -8.8 L9.25 -11.95 Q7.75 -21.45 5.5 -19.3 4.75 -17.65 2.8 -18.75 -0.15 -19.75 -0.1 -18.75 0.7 -15.3 0.4 -12.2 L0.25 -11.15 Q-0.1 -9.1 -1.25 -9.15 -3.25 -9.1 -2.15 -12.0 -1.1 -13.75 -1.75 -18.05 -1.85 -19.25 -3.05 -19.15 -4.8 -18.55 -5.95 -15.3 -6.2 -12.55 -7.35 -12.8 -8.8 -12.95 -7.7 -16.45 -6.4 -19.45 -9.0 -20.05 -11.6 -20.65 -12.1 -17.5 -12.75 -13.45 -13.8 -13.55 L-14.3 -13.85 Q-15.25 -14.9 -13.4 -18.35 Z" fill="none" stroke="#000000" stroke-linecap="round" stroke-linejoin="round" stroke-opacity="0.34117648" stroke-width="0.2"/>
      <path d="M0.35 -24.1 L-3.65 -24.35 Q-1.35 -25.95 -3.1 -26.4 L-5.2 -26.35 Q-4.8 -26.75 -4.7 -27.25 -4.5 -28.1 -4.9 -28.5 -5.25 -28.9 -5.95 -29.15 L-7.7 -29.75 Q-6.0 -30.3 -5.6 -30.75 -5.15 -31.25 -5.1 -31.8 -5.0 -32.35 -5.2 -33.35 L-5.5 -34.75 -3.15 -30.65 -1.15 -28.55 Q-0.75 -28.1 -0.3 -27.15 L0.35 -25.25 0.35 -24.1" fill="#234a0f" fill-rule="evenodd" stroke="none"/>
      <path d="M-5.5 -34.75 L-5.65 -35.1 -4.15 -33.25 -2.65 -32.2 -1.25 -32.15 Q-0.45 -32.3 -0.15 -32.75 -0.7 -31.4 -0.15 -30.2 0.35 -29.0 2.75 -29.35 1.4 -27.9 1.25 -27.2 L1.2 -26.05 1.15 -25.0 1.2 -23.9 0.35 -24.1 0.35 -25.25 -0.3 -27.15 Q-0.75 -28.1 -1.15 -28.55 L-3.15 -30.65 -5.5 -34.75" fill="#316218" fill-rule="evenodd" stroke="none"/>
      <path d="M-5.5 -34.75 L-5.65 -35.1 -4.15 -33.25 -2.65 -32.2 -1.25 -32.15 Q-0.45 -32.3 -0.15 -32.75 -0.7 -31.4 -0.15 -30.2 0.35 -29.0 2.75 -29.35 1.4 -27.9 1.25 -27.2 L1.2 -26.05 1.15 -25.0 1.2 -23.9 0.35 -24.1 -3.65 -24.35 Q-1.35 -25.95 -3.1 -26.4 L-5.2 -26.35 -5.4 -26.2 M0.35 -24.1 L0.35 -25.25 -0.3 -27.15 Q-0.75 -28.1 -1.15 -28.55 L-3.15 -30.65 M-5.5 -34.75 L-5.2 -33.35 Q-5.0 -32.35 -5.1 -31.8 -5.15 -31.25 -5.6 -30.75 -6.0 -30.3 -7.7 -29.75 L-5.95 -29.15 Q-5.25 -28.9 -4.9 -28.5 -4.5 -28.1 -4.7 -27.25 -4.8 -26.75 -5.2 -26.35" fill="none" stroke="#000000" stroke-linecap="round" stroke-linejoin="round" stroke-opacity="0.4" stroke-width="0.05"/>
      <path d="M0.2 -23.35 Q-0.15 -23.0 -1.2 -22.2 L-2.55 -21.35 Q-2.4 -21.7 -2.5 -22.1 -2.6 -22.7 -3.0 -22.9 L-4.3 -22.65 -4.75 -21.95 -4.95 -22.4 -5.95 -23.15 -7.3 -23.0 -7.95 -22.45 Q-7.7 -23.15 -7.75 -23.7 L-8.3 -25.0 -9.45 -26.2 -10.85 -26.9 -8.9 -26.6 -7.55 -26.65 -6.8 -27.25 Q-6.4 -27.7 -6.6 -28.1 -6.0 -27.1 -4.9 -26.6 -3.9 -26.1 -3.0 -27.45 -2.7 -25.9 -2.3 -25.5 -1.95 -25.1 -0.95 -24.9 L0.95 -25.05 0.7 -24.0 0.2 -23.35 M-6.7 -25.55 L-4.4 -25.15 -3.0 -24.75 Q-2.1 -24.4 -1.5 -23.95 L-1.0 -23.5 -1.5 -23.95 Q-2.1 -24.4 -3.0 -24.75 L-4.4 -25.15 -6.7 -25.55" fill="#1d3a0e" fill-rule="evenodd" stroke="none"/>
      <path d="M0.2 -23.35 Q-0.15 -23.0 -1.2 -22.2 L-2.55 -21.35 Q-2.4 -21.7 -2.5 -22.1 -2.6 -22.7 -3.0 -22.9 L-4.3 -22.65 -4.75 -21.95 -4.95 -22.4 -5.95 -23.15 -7.3 -23.0 -7.95 -22.45 Q-7.7 -23.15 -7.75 -23.7 L-8.3 -25.0 -9.45 -26.2 -10.85 -26.9 -8.9 -26.6 -7.55 -26.65 -6.8 -27.25 Q-6.4 -27.7 -6.6 -28.1 -6.0 -27.1 -4.9 -26.6 -3.9 -26.1 -3.0 -27.45 -2.7 -25.9 -2.3 -25.5 -1.95 -25.1 -0.95 -24.9 L0.95 -25.05 0.7 -24.0 0.2 -23.35 M-1.0 -23.5 L-1.5 -23.95 Q-2.1 -24.4 -3.0 -24.75 L-4.4 -25.15 -6.7 -25.55" fill="none" stroke="#000000" stroke-linecap="round" stroke-linejoin="round" stroke-opacity="0.4" stroke-width="0.05"/>
      <path d="M8.35 -26.85 L5.65 -25.85 4.05 -25.05 2.3 -23.8 1.7 -22.85 0.75 -23.1 1.35 -24.0 1.9 -24.95 2.5 -25.9 Q2.8 -26.5 2.2 -28.45 4.4 -26.95 5.65 -27.7 6.8 -28.45 7.0 -29.85 7.0 -29.3 7.75 -28.8 8.55 -28.3 9.2 -28.1 L11.25 -28.3 13.1 -28.75 8.35 -26.85" fill="#4b9127" fill-rule="evenodd" stroke="none"/>
      <path d="M1.7 -22.85 L2.3 -23.8 4.05 -25.05 5.65 -25.85 8.35 -26.85 13.1 -28.75 13.85 -29.0 12.3 -27.8 11.4 -26.55 Q11.15 -26.05 11.3 -25.45 11.4 -24.8 12.9 -23.55 L10.8 -23.9 9.35 -23.9 Q8.7 -23.75 8.45 -22.9 8.3 -22.5 8.5 -21.9 8.15 -22.55 6.4 -23.0 4.4 -23.55 5.8 -21.0 3.45 -22.9 1.7 -22.85" fill="#316218" fill-rule="evenodd" stroke="none"/>
      <path d="M1.7 -22.85 L2.3 -23.8 4.05 -25.05 5.65 -25.85 8.35 -26.85 M13.1 -28.75 L11.25 -28.3 9.2 -28.1 Q8.55 -28.3 7.75 -28.8 7.0 -29.3 7.0 -29.85 6.8 -28.45 5.65 -27.7 4.4 -26.95 2.2 -28.45 2.8 -26.5 2.5 -25.9 L1.9 -24.95 1.35 -24.0 0.75 -23.1 1.7 -22.85 Q3.45 -22.9 5.8 -21.0 4.4 -23.55 6.4 -23.0 8.15 -22.55 8.5 -21.9 8.3 -22.5 8.45 -22.9 8.7 -23.75 9.35 -23.9 L10.8 -23.9 12.9 -23.55 Q11.4 -24.8 11.3 -25.45 11.15 -26.05 11.4 -26.55 L12.3 -27.8 13.85 -29.0 M8.5 -21.9 L8.6 -21.65" fill="none" stroke="#000000" stroke-linecap="round" stroke-linejoin="round" stroke-opacity="0.4" stroke-width="0.05"/>
      <path d="M-1.65 -26.45 L-0.6 -26.5 0.45 -25.75 Q0.8 -25.2 0.6 -24.5 0.45 -23.9 -0.15 -23.55 L-1.4 -23.4 -2.3 -24.1 -0.4 -24.2 Q0.25 -25.2 -0.25 -25.9 -0.8 -26.6 -1.65 -26.45" fill="#b11603" fill-rule="evenodd" stroke="none"/>
      <path d="M-1.65 -26.45 Q-0.8 -26.6 -0.25 -25.9 0.25 -25.2 -0.4 -24.2 L-2.3 -24.1 -2.4 -24.2 Q-2.75 -24.8 -2.6 -25.4 -2.4 -26.05 -1.85 -26.35 L-1.65 -26.45 M-1.7 -25.7 Q-2.0 -26.15 -2.15 -25.7 L-2.2 -24.9 -2.1 -24.8 -1.85 -24.8 Q-1.65 -24.9 -1.7 -25.3 L-1.7 -25.7" fill="#f0311a" fill-rule="evenodd" stroke="none"/>
      <path d="M-1.7 -25.7 L-1.7 -25.3 Q-1.65 -24.9 -1.85 -24.8 L-2.1 -24.8 -2.2 -24.9 -2.15 -25.7 Q-2.0 -26.15 -1.7 -25.7" fill="#ffb1a8" fill-rule="evenodd" stroke="none"/>
      <path d="M-2.3 -24.1 L-1.4 -23.4 -0.15 -23.55 Q0.45 -23.9 0.6 -24.5 0.8 -25.2 0.45 -25.75 L-0.6 -26.5 -1.65 -26.45 M-2.3 -24.1 L-2.4 -24.2 Q-2.75 -24.8 -2.6 -25.4 -2.4 -26.05 -1.85 -26.35 L-1.65 -26.45" fill="none" stroke="#000000" stroke-linecap="round" stroke-linejoin="round" stroke-opacity="0.4" stroke-width="0.05"/>
      <path d="M-0.2 -23.05 L-0.25 -23.15 Q-0.45 -23.9 -0.1 -24.6 0.3 -25.25 1.05 -25.4 L1.3 -25.5 Q2.25 -25.4 2.65 -24.5 3.05 -23.5 1.95 -22.65 0.95 -22.1 -0.2 -23.05 M0.55 -23.1 L0.6 -23.0 0.85 -22.9 0.9 -23.15 0.7 -23.3 0.55 -23.1 M0.9 -24.2 L0.95 -24.7 Q0.8 -25.3 0.4 -24.8 0.05 -24.25 0.15 -23.9 L0.25 -23.8 Q0.3 -23.7 0.55 -23.7 L0.9 -24.2" fill="#f0311a" fill-rule="evenodd" stroke="none"/>
      <path d="M-0.2 -23.05 Q0.95 -22.1 1.95 -22.65 3.05 -23.5 2.65 -24.5 2.25 -25.4 1.3 -25.5 L2.5 -25.2 Q3.15 -24.85 3.4 -24.1 3.6 -23.35 3.2 -22.7 2.85 -22.05 2.05 -21.85 L0.65 -22.05 Q0.0 -22.45 -0.2 -23.05" fill="#b11603" fill-rule="evenodd" stroke="none"/>
      <path d="M0.9 -24.2 L0.55 -23.7 Q0.3 -23.7 0.25 -23.8 L0.15 -23.9 Q0.05 -24.25 0.4 -24.8 0.8 -25.3 0.95 -24.7 L0.9 -24.2 M0.55 -23.1 L0.7 -23.3 0.9 -23.15 0.85 -22.9 0.6 -23.0 0.55 -23.1" fill="#ffb1a8" fill-rule="evenodd" stroke="none"/>
      <path d="M1.3 -25.5 L1.05 -25.4 Q0.3 -25.25 -0.1 -24.6 -0.45 -23.9 -0.25 -23.15 L-0.2 -23.05 M1.3 -25.5 L2.5 -25.2 Q3.15 -24.85 3.4 -24.1 3.6 -23.35 3.2 -22.7 2.85 -22.05 2.05 -21.85 L0.65 -22.05 Q0.0 -22.45 -0.2 -23.05" fill="none" stroke="#000000" stroke-linecap="round" stroke-linejoin="round" stroke-opacity="0.4" stroke-width="0.05"/>
    </g>
  </defs>
</svg>
