<?xml version="1.0" encoding="UTF-8" standalone="no"?>
<svg xmlns:xlink="http://www.w3.org/1999/xlink" height="43.1px" width="39.95px" xmlns="http://www.w3.org/2000/svg">
  <g transform="matrix(1.0, 0.0, 0.0, 1.0, 14.0, 42.7)">
    <use height="43.1" transform="matrix(1.0, 0.0, 0.0, 1.0, -14.0, -42.7)" width="39.95" xlink:href="#decoration263-shape0"/>
  </g>
  <defs>
    <g id="decoration263-shape0" transform="matrix(1.0, 0.0, 0.0, 1.0, 14.0, 42.7)">
      <path d="M12.1 -3.0 L16.05 -2.35 16.65 -1.9 Q16.65 -1.35 12.1 -0.95 L12.05 -0.95 1.3 -0.5 -5.65 -0.7 -9.55 -0.95 Q-14.0 -1.35 -14.0 -1.9 -14.0 -2.15 -11.7 -2.6 L-9.35 -3.0 1.3 -3.35 12.1 -3.0" fill="#000000" fill-opacity="0.3019608" fill-rule="evenodd" stroke="none"/>
      <path d="M25.9 -38.8 L25.95 -38.8 25.95 -38.6 25.9 -38.8" fill="#79593c" fill-rule="evenodd" stroke="none"/>
      <path d="M2.05 -39.15 Q2.2 -38.3 2.8 -37.55 L4.1 -36.4 Q3.4 -38.05 3.7 -40.45 4.5 -39.6 5.6 -39.05 10.8 -37.9 13.4 -34.65 12.7 -30.65 11.35 -27.9 11.1 -29.45 10.35 -31.2 8.9 -34.65 5.4 -33.55 1.85 -32.45 1.15 -26.15 L-0.85 -26.15 Q-1.1 -35.25 -5.65 -32.4 L-4.2 -34.5 -1.55 -36.45 Q-0.9 -38.75 2.05 -39.15 M-1.75 -35.7 L-1.55 -36.45 -1.75 -35.7 -1.8 -34.75 Q-0.25 -35.9 1.3 -35.65 L1.9 -35.5 Q0.95 -36.5 2.8 -35.25 2.0 -36.45 0.65 -36.75 -0.75 -37.05 -1.75 -35.7" fill="url(#decoration263-gradient0)" fill-rule="evenodd" stroke="none"/>
      <path d="M2.8 -37.55 Q2.2 -38.3 2.05 -39.15 1.75 -40.6 2.8 -42.3 2.9 -41.15 3.7 -40.45 3.4 -38.05 4.1 -36.4 L2.8 -37.55 M-1.75 -35.7 Q-0.75 -37.05 0.65 -36.75 2.0 -36.45 2.8 -35.25 0.95 -36.5 1.9 -35.5 L1.3 -35.65 Q-0.25 -35.9 -1.8 -34.75 L-1.75 -35.7 M13.4 -34.65 L14.9 -32.05 Q17.1 -26.65 15.8 -23.25 14.45 -19.9 11.4 -19.1 14.9 -22.4 11.35 -25.2 L11.45 -26.45 11.35 -27.75 11.35 -27.9 Q12.7 -30.65 13.4 -34.65 M18.25 -9.15 L19.0 -8.45 Q15.95 -7.6 13.55 -8.85 13.5 -7.1 13.25 -6.25 L12.3 -4.5 Q11.45 -3.45 9.05 -2.4 10.9 -7.55 9.55 -12.05 11.55 -9.75 13.55 -8.85 11.55 -9.75 9.55 -12.05 L8.9 -13.05 8.15 -14.1 7.55 -15.3 Q7.15 -16.3 7.2 -18.15 L9.15 -18.45 9.35 -18.45 Q8.6 -18.05 9.8 -15.75 13.3 -9.4 18.25 -9.15 M-7.25 -9.75 Q-9.0 -8.15 -11.05 -8.95 L-10.4 -9.7 Q-9.8 -9.55 -8.3 -10.35 L-6.85 -11.4 -7.25 -9.75 M-2.1 -18.15 Q-3.95 -17.1 -6.8 -11.6 -5.1 -17.55 -3.45 -18.4 L-2.1 -18.15" fill="#1a2327" fill-rule="evenodd" stroke="none"/>
      <path d="M-6.25 -24.95 L-6.2 -25.55 -6.4 -26.6 Q-6.85 -29.9 -5.65 -32.4 -1.1 -35.25 -0.85 -26.15 L1.15 -26.15 Q1.85 -32.45 5.4 -33.55 8.9 -34.65 10.35 -31.2 11.1 -29.45 11.35 -27.9 10.0 -25.3 8.0 -23.9 L5.35 -23.0 1.4 -22.3 -0.65 -22.3 Q-2.45 -22.45 -3.8 -23.05 -5.2 -23.75 -6.25 -24.95 M7.2 -18.15 Q7.15 -16.3 7.55 -15.3 L8.15 -14.1 8.9 -13.05 Q9.45 -7.1 2.9 -4.5 -0.6 -3.15 -3.9 -4.5 L-4.7 -4.85 Q-7.3 -6.4 -6.85 -11.4 L-6.8 -11.6 Q-3.95 -17.1 -2.1 -18.15 -0.25 -16.65 4.4 -17.5 L7.2 -18.15 M1.0 -5.9 L0.55 -6.9 1.2 -7.8 0.55 -6.9 1.0 -5.9 M0.1 -7.9 L0.55 -6.9 0.05 -6.0 0.55 -6.9 0.1 -7.9" fill="#fdfdfd" fill-rule="evenodd" stroke="none"/>
      <path d="M12.85 -35.55 L12.85 -35.5 12.8 -35.55 12.85 -35.55" fill="#5b432d" fill-rule="evenodd" stroke="none"/>
      <path d="M9.05 -2.4 L8.0 -1.95 Q4.65 -0.7 -1.75 -1.7 -6.7 -2.75 -7.3 -6.65 -7.55 -8.05 -7.25 -9.75 L-6.85 -11.4 Q-7.3 -6.4 -4.7 -4.85 L-3.9 -4.5 Q-0.6 -3.15 2.9 -4.5 9.45 -7.1 8.9 -13.05 L9.55 -12.05 Q10.9 -7.55 9.05 -2.4 M-4.05 -18.55 Q-5.4 -18.8 -6.35 -20.2 -7.35 -21.65 -6.75 -23.25 L-6.25 -24.95 Q-5.2 -23.75 -3.8 -23.05 -2.45 -22.45 -0.65 -22.3 L1.4 -22.3 5.35 -23.0 8.0 -23.9 Q10.0 -25.3 11.35 -27.9 L11.35 -27.75 11.45 -26.45 11.35 -25.2 Q14.9 -22.4 11.4 -19.1 10.85 -18.8 9.35 -18.45 L9.15 -18.45 7.2 -18.15 4.4 -17.5 Q-0.25 -16.65 -2.1 -18.15 L-3.45 -18.4 -4.05 -18.55" fill="#bfbfbf" fill-rule="evenodd" stroke="none"/>
      <path d="M11.4 -19.1 Q14.9 -17.65 16.2 -13.5 17.15 -10.45 18.25 -9.15 13.3 -9.4 9.8 -15.75 8.6 -18.05 9.35 -18.45 10.85 -18.8 11.4 -19.1 M-10.4 -9.7 Q-9.6 -10.85 -8.9 -12.65 -7.2 -17.65 -4.05 -18.55 L-3.45 -18.4 Q-5.1 -17.55 -6.8 -11.6 L-6.85 -11.4 -8.3 -10.35 Q-9.8 -9.55 -10.4 -9.7" fill="#232e33" fill-rule="evenodd" stroke="none"/>
      <path d="M2.05 -39.15 Q2.2 -38.3 2.8 -37.55 M3.7 -40.45 Q2.9 -41.15 2.8 -42.3 1.75 -40.6 2.05 -39.15 -0.9 -38.75 -1.55 -36.45 L-1.75 -35.7 M1.9 -35.5 L1.3 -35.65 Q-0.25 -35.9 -1.8 -34.75 L-1.75 -35.7 M3.7 -40.45 Q4.5 -39.6 5.6 -39.05 10.8 -37.9 13.4 -34.65 L14.9 -32.05 Q17.1 -26.65 15.8 -23.25 14.45 -19.9 11.4 -19.1 14.9 -17.65 16.2 -13.5 17.15 -10.45 18.25 -9.15 L19.0 -8.45 Q15.95 -7.6 13.55 -8.85 13.5 -7.1 13.25 -6.25 L12.3 -4.5 Q11.45 -3.45 9.05 -2.4 L8.0 -1.95 Q4.65 -0.7 -1.75 -1.7 -6.7 -2.75 -7.3 -6.65 -7.55 -8.05 -7.25 -9.75 -9.0 -8.15 -11.05 -8.95 L-10.4 -9.7 Q-9.6 -10.85 -8.9 -12.65 -7.2 -17.65 -4.05 -18.55 -5.4 -18.8 -6.35 -20.2 -7.35 -21.65 -6.75 -23.25 L-6.25 -24.95 -6.2 -25.55 -6.4 -26.6 Q-6.85 -29.9 -5.65 -32.4 L-4.2 -34.5 -1.55 -36.45 M11.4 -19.1 Q10.85 -18.8 9.35 -18.45 M-6.8 -11.6 L-6.85 -11.4 M8.9 -13.05 L8.15 -14.1 M7.2 -18.15 L9.15 -18.45 9.35 -18.45 M13.55 -8.85 Q11.55 -9.75 9.55 -12.05 L8.9 -13.05 M-4.05 -18.55 L-3.45 -18.4 -2.1 -18.15 M-7.25 -9.75 L-6.85 -11.4 M-6.8 -11.6 Q-5.1 -17.55 -3.45 -18.4" fill="none" stroke="#000000" stroke-linecap="round" stroke-linejoin="round" stroke-opacity="0.3882353" stroke-width="0.8"/>
      <path d="M0.05 -6.0 L0.55 -6.9 0.1 -7.9 M1.2 -7.8 L0.55 -6.9 1.0 -5.9" fill="none" stroke="#000000" stroke-linecap="round" stroke-linejoin="round" stroke-opacity="0.4" stroke-width="0.4"/>
      <path d="M-2.7 -23.25 L-3.1 -23.45 -2.85 -24.1 -2.3 -24.95 Q0.35 -28.45 2.6 -24.95 L3.15 -24.05 3.4 -23.55 2.95 -23.35 Q-0.2 -22.4 -2.7 -23.25" fill="url(#decoration263-gradient1)" fill-rule="evenodd" stroke="none"/>
      <path d="M-2.7 -23.25 Q-0.2 -22.4 2.95 -23.35 1.0 -21.35 -0.4 -21.6 -1.8 -21.9 -2.25 -22.5 L-2.7 -23.25" fill="#b1510e" fill-rule="evenodd" stroke="none"/>
      <path d="M2.95 -23.35 L3.4 -23.55 3.15 -24.05 2.6 -24.95 Q0.35 -28.45 -2.3 -24.95 L-2.85 -24.1 -3.1 -23.45 -2.7 -23.25 Q-0.2 -22.4 2.95 -23.35 1.0 -21.35 -0.4 -21.6 -1.8 -21.9 -2.25 -22.5 L-2.7 -23.25" fill="none" stroke="#000000" stroke-linecap="round" stroke-linejoin="round" stroke-opacity="0.3882353" stroke-width="0.2"/>
      <path d="M6.45 -17.95 L6.05 -17.85 M5.2 -17.65 L4.8 -17.6 4.3 -17.55 M3.25 -17.4 L2.4 -17.35 M1.35 -17.35 L0.35 -17.4 M-0.6 -17.5 L-1.6 -17.65" fill="none" stroke="#000000" stroke-linecap="round" stroke-linejoin="round" stroke-opacity="0.4" stroke-width="0.4"/>
      <path d="M11.95 -12.55 L11.5 -13.15 M15.15 -10.1 Q14.65 -10.3 14.25 -10.55 M16.9 -9.55 L16.1 -9.75 M13.4 -11.15 L12.6 -11.85 M10.0 -15.55 L9.75 -16.05 M10.95 -14.0 L10.45 -14.8" fill="none" stroke="#000000" stroke-linecap="round" stroke-linejoin="round" stroke-opacity="0.4" stroke-width="0.4"/>
      <path d="M-7.65 -10.65 L-8.35 -10.35 M-10.05 -9.6 L-9.25 -9.85" fill="none" stroke="#000000" stroke-linecap="round" stroke-linejoin="round" stroke-opacity="0.4" stroke-width="0.4"/>
      <path d="M7.35 -30.6 L8.5 -29.95 Q9.35 -29.2 9.35 -28.15 9.35 -27.1 8.5 -26.45 7.75 -25.6 6.7 -25.6 5.55 -25.6 4.75 -26.45 4.0 -27.1 4.0 -28.15 L4.05 -28.75 4.65 -29.75 Q4.65 -29.1 5.3 -28.9 5.05 -26.95 6.45 -26.85 L7.35 -26.9 Q7.35 -26.45 7.75 -26.45 8.4 -26.45 8.4 -26.9 8.4 -27.3 8.0 -27.35 L8.2 -28.45 Q8.0 -29.35 7.35 -29.5 7.7 -30.0 7.35 -30.6 M-3.35 -30.5 Q-2.65 -30.4 -2.4 -29.9 -1.85 -29.25 -1.85 -28.25 -1.85 -27.35 -2.4 -26.7 L-2.75 -26.35 Q-3.25 -26.0 -3.8 -26.0 -4.35 -26.0 -4.8 -26.35 L-5.25 -26.7 -5.55 -27.05 -5.8 -28.25 -5.8 -28.7 -5.55 -29.45 -5.3 -29.8 Q-5.3 -29.15 -4.8 -28.95 -5.0 -27.15 -3.95 -27.05 L-3.3 -27.1 Q-3.3 -26.7 -2.95 -26.7 -2.5 -26.7 -2.5 -27.1 -2.5 -27.5 -2.75 -27.5 -2.6 -27.95 -2.6 -28.55 -2.75 -29.35 -3.35 -29.5 -3.0 -30.0 -3.35 -30.5" fill="#352006" fill-rule="evenodd" stroke="none"/>
      <path d="M7.35 -30.6 Q7.7 -30.0 7.35 -29.5 7.0 -29.2 6.45 -29.0 L5.3 -28.9 Q4.65 -29.1 4.65 -29.75 L4.75 -29.95 Q5.55 -30.65 6.7 -30.65 L7.35 -30.6 M8.0 -27.35 Q8.4 -27.3 8.4 -26.9 8.4 -26.45 7.75 -26.45 7.35 -26.45 7.35 -26.9 7.35 -27.4 7.95 -27.35 L8.0 -27.35 M-5.3 -29.8 L-5.25 -29.9 Q-4.7 -30.6 -3.85 -30.6 L-3.75 -30.6 -3.35 -30.5 Q-3.0 -30.0 -3.35 -29.5 L-3.95 -29.0 -4.8 -28.95 Q-5.3 -29.15 -5.3 -29.8 M-2.75 -27.5 Q-2.5 -27.5 -2.5 -27.1 -2.5 -26.7 -2.95 -26.7 -3.3 -26.7 -3.3 -27.1 -3.3 -27.55 -2.8 -27.5 L-2.75 -27.5" fill="#d7d2cd" fill-rule="evenodd" stroke="none"/>
      <path d="M7.35 -29.5 Q8.0 -29.35 8.2 -28.45 L8.0 -27.35 7.95 -27.35 Q7.35 -27.4 7.35 -26.9 L6.45 -26.85 Q5.05 -26.95 5.3 -28.9 L6.45 -29.0 Q7.0 -29.2 7.35 -29.5 M-4.8 -28.95 L-3.95 -29.0 -3.35 -29.5 Q-2.75 -29.35 -2.6 -28.55 -2.6 -27.95 -2.75 -27.5 L-2.8 -27.5 Q-3.3 -27.55 -3.3 -27.1 L-3.95 -27.05 Q-5.0 -27.15 -4.8 -28.95" fill="#170e04" fill-rule="evenodd" stroke="none"/>
      <path d="M4.65 -29.75 L4.05 -28.75 4.0 -28.15 Q4.0 -27.1 4.75 -26.45 5.55 -25.6 6.7 -25.6 7.75 -25.6 8.5 -26.45 9.35 -27.1 9.35 -28.15 9.35 -29.2 8.5 -29.95 L7.35 -30.6 M4.65 -29.75 L4.75 -29.95 Q5.55 -30.65 6.7 -30.65 L7.35 -30.6 M-5.3 -29.8 L-5.25 -29.9 Q-4.7 -30.6 -3.85 -30.6 L-3.75 -30.6 -3.35 -30.5 Q-2.65 -30.4 -2.4 -29.9 -1.85 -29.25 -1.85 -28.25 -1.85 -27.35 -2.4 -26.7 L-2.75 -26.35 Q-3.25 -26.0 -3.8 -26.0 -4.35 -26.0 -4.8 -26.35 L-5.25 -26.7 -5.55 -27.05 -5.8 -28.25 -5.8 -28.7 -5.55 -29.45 -5.3 -29.8" fill="none" stroke="#000000" stroke-linecap="round" stroke-linejoin="round" stroke-opacity="0.3882353" stroke-width="0.4"/>
      <path d="M-4.4 -9.2 L-3.75 -8.95 Q-2.75 -8.35 -2.15 -5.35 -1.45 -2.0 -2.8 -0.8 L-3.3 -0.45 Q-2.7 -4.8 -4.4 -9.2" fill="#dd6c1f" fill-rule="evenodd" stroke="none"/>
      <path d="M-3.3 -0.45 L-3.95 -0.25 -4.65 -0.25 Q-8.6 -0.75 -10.1 -6.2 -10.5 -7.7 -9.75 -8.2 L-8.8 -7.95 Q-8.45 -9.3 -7.7 -9.5 -6.1 -9.6 -5.35 -8.35 L-5.05 -8.85 -4.65 -9.2 -4.4 -9.2 Q-2.7 -4.8 -3.3 -0.45 M-8.8 -7.95 L-8.8 -7.3 -8.8 -7.95 M-5.5 -7.7 L-5.35 -8.35 -5.5 -7.7" fill="#b1510e" fill-rule="evenodd" stroke="none"/>
      <path d="M-4.4 -9.2 L-3.75 -8.95 Q-2.75 -8.35 -2.15 -5.35 -1.45 -2.0 -2.8 -0.8 L-3.3 -0.45 -3.95 -0.25 -4.65 -0.25 Q-8.6 -0.75 -10.1 -6.2 -10.5 -7.7 -9.75 -8.2 L-8.8 -7.95 Q-8.45 -9.3 -7.7 -9.5 -6.1 -9.6 -5.35 -8.35 L-5.05 -8.85 -4.65 -9.2 -4.4 -9.2 M-5.35 -8.35 L-5.5 -7.7 M-8.8 -7.3 L-8.8 -7.95" fill="none" stroke="#000000" stroke-linecap="round" stroke-linejoin="round" stroke-opacity="0.3882353" stroke-width="0.8"/>
      <path d="M-3.95 -7.6 L-4.05 -8.05 -4.25 -8.4 M-3.15 -2.9 L-3.2 -3.9 M-3.4 -5.2 L-3.65 -6.3 M-3.3 -0.45 L-3.15 -1.65" fill="none" stroke="#000000" stroke-linecap="round" stroke-linejoin="round" stroke-opacity="0.4" stroke-width="0.4"/>
      <path d="M5.8 -8.95 L6.05 -8.95 6.45 -8.6 6.75 -8.1 Q7.5 -9.35 9.1 -9.25 9.85 -9.05 10.2 -7.7 10.5 -8.05 11.15 -7.95 11.9 -7.45 11.5 -5.95 10.0 -0.5 6.05 0.0 L5.35 0.0 4.7 -0.2 Q4.1 -4.55 5.8 -8.95 M10.2 -7.05 L10.2 -7.7 10.2 -7.05 M6.75 -8.1 L6.9 -7.45 6.75 -8.1" fill="#b1510e" fill-rule="evenodd" stroke="none"/>
      <path d="M4.7 -0.2 L4.2 -0.55 Q2.85 -1.75 3.55 -5.1 4.15 -8.1 5.15 -8.7 5.4 -8.95 5.8 -8.95 4.1 -4.55 4.7 -0.2" fill="#dd6c1f" fill-rule="evenodd" stroke="none"/>
      <path d="M5.8 -8.95 L6.05 -8.95 6.45 -8.6 6.75 -8.1 Q7.5 -9.35 9.1 -9.25 9.85 -9.05 10.2 -7.7 10.5 -8.05 11.15 -7.95 11.9 -7.45 11.5 -5.95 10.0 -0.5 6.05 0.0 L5.35 0.0 4.7 -0.2 4.2 -0.55 Q2.85 -1.75 3.55 -5.1 4.15 -8.1 5.15 -8.7 5.4 -8.95 5.8 -8.95 M6.9 -7.45 L6.75 -8.1 M10.2 -7.7 L10.2 -7.05" fill="none" stroke="#000000" stroke-linecap="round" stroke-linejoin="round" stroke-opacity="0.3882353" stroke-width="0.8"/>
      <path d="M5.35 -7.35 L5.45 -7.8 5.65 -8.15 M4.55 -2.65 L4.6 -3.65 M4.8 -4.95 L5.05 -6.05 M4.7 -0.2 L4.55 -1.4" fill="none" stroke="#000000" stroke-linecap="round" stroke-linejoin="round" stroke-opacity="0.4" stroke-width="0.4"/>
    </g>
    <linearGradient gradientTransform="matrix(-0.0044, -0.0076, 0.0076, -0.0044, 4.2, -31.7)" gradientUnits="userSpaceOnUse" id="decoration263-gradient0" spreadMethod="pad" x1="-819.2" x2="819.2">
      <stop offset="0.0" stop-color="#232e33"/>
      <stop offset="1.0" stop-color="#333e43"/>
    </linearGradient>
    <linearGradient gradientTransform="matrix(0.0034, 0.002, -0.0012, 0.002, 0.15, -24.8)" gradientUnits="userSpaceOnUse" id="decoration263-gradient1" spreadMethod="pad" x1="-819.2" x2="819.2">
      <stop offset="0.0" stop-color="#ff9146"/>
      <stop offset="1.0" stop-color="#dd6c1f"/>
    </linearGradient>
  </defs>
</svg>
