<?xml version="1.0" encoding="UTF-8" standalone="no"?>
<svg xmlns:xlink="http://www.w3.org/1999/xlink" height="37.8px" width="30.9px" xmlns="http://www.w3.org/2000/svg">
  <g transform="matrix(1.0, 0.0, 0.0, 1.0, 14.45, 37.55)">
    <use data-characterId="48" height="37.8" transform="matrix(1.0, 0.0, 0.0, 1.0, -14.45, -37.55)" width="30.9" xlink:href="#decoration265-shape0"/>
  </g>
  <defs>
    <g id="decoration265-shape0" transform="matrix(1.0, 0.0, 0.0, 1.0, 14.45, 37.55)">
      <path d="M-14.2 -12.9 Q-13.05 -15.9 -1.2 -16.65 13.3 -16.55 14.7 -12.9 -1.2 -0.75 -14.2 -12.9" fill="#8c6e20" fill-rule="evenodd" stroke="none"/>
      <path d="M-14.2 -12.9 Q-1.2 -0.75 14.7 -12.9 13.3 -16.55 -1.2 -16.65 -13.05 -15.9 -14.2 -12.9 Z" fill="none" stroke="#000000" stroke-linecap="round" stroke-linejoin="miter-clip" stroke-miterlimit="5.0" stroke-opacity="0.5019608" stroke-width="0.1"/>
      <path d="M-4.8 -20.9 Q-3.65 -21.2 -1.25 -19.85 L0.85 -18.5 Q2.45 -17.35 3.15 -16.2 L3.65 -15.25 Q-2.25 -8.15 -4.8 -20.9 M-2.3 -19.0 Q2.65 -16.55 -0.05 -18.55 -2.85 -20.6 -3.6 -20.3 -4.5 -20.1 -2.3 -19.0" fill="#b12745" fill-rule="evenodd" stroke="none"/>
      <path d="M3.1 -10.9 Q2.4 -10.0 1.15 -9.35 -1.2 -8.2 -2.95 -8.6 -4.6 -9.0 -5.3 -10.4 L-5.6 -11.1 -6.2 -14.4 -6.4 -15.75 Q-6.5 -18.65 -5.75 -20.1 -6.2 -17.0 -5.0 -13.95 -3.85 -10.95 -1.6 -10.4 0.3 -9.9 3.1 -10.9" fill="#7b0e27" fill-rule="evenodd" stroke="none"/>
      <path d="M3.65 -15.25 L4.0 -13.75 3.85 -12.45 Q3.7 -11.6 3.1 -10.9 0.3 -9.9 -1.6 -10.4 -3.85 -10.95 -5.0 -13.95 -6.2 -17.0 -5.75 -20.1 L-5.45 -20.55 -4.8 -20.9 Q-2.25 -8.15 3.65 -15.25" fill="#911933" fill-rule="evenodd" stroke="none"/>
      <path d="M-2.3 -19.0 Q-4.5 -20.1 -3.6 -20.3 -2.85 -20.6 -0.05 -18.55 2.65 -16.55 -2.3 -19.0" fill="#e23c60" fill-rule="evenodd" stroke="none"/>
      <path d="M3.65 -15.25 L4.0 -13.75 3.85 -12.45 Q3.7 -11.6 3.1 -10.9 2.4 -10.0 1.15 -9.35 -1.2 -8.2 -2.95 -8.6 -4.6 -9.0 -5.3 -10.4 L-5.6 -11.1 -6.2 -14.4 -6.4 -15.75 Q-6.5 -18.65 -5.75 -20.1 L-5.45 -20.55 -4.8 -20.9 Q-3.65 -21.2 -1.25 -19.85 L0.85 -18.5 Q2.45 -17.35 3.15 -16.2 L3.65 -15.25 Z" fill="none" stroke="#000000" stroke-linecap="round" stroke-linejoin="miter-clip" stroke-miterlimit="5.0" stroke-opacity="0.5019608" stroke-width="0.30000000000000004"/>
      <path d="M1.0 -11.65 Q0.3 -12.3 1.0 -12.9 1.8 -13.55 2.65 -12.9 3.3 -12.2 2.65 -11.65 1.8 -11.0 1.0 -11.65 M0.4 -14.35 Q-0.7 -13.4 -1.7 -14.35 -2.6 -15.2 -1.7 -16.1 -0.7 -17.05 0.4 -16.1 1.2 -15.15 0.4 -14.35 M-5.5 -16.15 Q-4.95 -16.9 -4.35 -16.15 -3.9 -15.45 -4.35 -14.9 -4.95 -14.15 -5.5 -14.9 -6.0 -15.5 -5.5 -16.15 M-2.25 -17.6 Q-2.85 -17.1 -3.4 -17.6 -3.9 -18.05 -3.4 -18.5 -2.85 -19.0 -2.25 -18.5 -1.8 -18.0 -2.25 -17.6 M-3.95 -11.55 Q-2.85 -12.25 -1.65 -11.55 -0.85 -10.95 -1.45 -10.45 L-1.65 -10.35 Q-2.85 -9.65 -3.95 -10.35 -4.85 -10.9 -4.15 -11.35 L-3.95 -11.55" fill="#ffda5f" fill-rule="evenodd" stroke="none"/>
      <path d="M-5.55 -15.6 Q-2.85 -13.6 -7.8 -16.05 -10.0 -17.2 -9.15 -17.45 -8.35 -17.7 -5.55 -15.6" fill="#faad39" fill-rule="evenodd" stroke="none"/>
      <path d="M-10.3 -18.0 Q-9.15 -18.3 -6.75 -16.95 L-5.15 -15.95 -4.65 -15.6 Q-3.05 -14.45 -2.35 -13.3 L-2.25 -13.15 -2.05 -12.65 -1.9 -12.35 Q-7.75 -5.25 -10.3 -18.0 M-5.55 -15.6 Q-8.35 -17.7 -9.15 -17.45 -10.0 -17.2 -7.8 -16.05 -2.85 -13.6 -5.55 -15.6" fill="#e58d08" fill-rule="evenodd" stroke="none"/>
      <path d="M-1.9 -12.35 Q-1.55 -11.6 -1.55 -10.85 -1.5 -10.2 -1.6 -9.6 -1.85 -8.75 -2.4 -8.0 -11.4 -4.8 -11.25 -17.2 L-11.1 -17.5 -10.95 -17.65 -10.3 -18.0 Q-7.75 -5.25 -1.9 -12.35" fill="#c97a03" fill-rule="evenodd" stroke="none"/>
      <path d="M-2.4 -8.0 Q-3.15 -7.15 -4.4 -6.45 -6.75 -5.25 -8.5 -5.7 -10.1 -6.05 -10.9 -7.6 L-11.05 -7.95 -11.1 -8.2 Q-11.6 -9.55 -11.7 -11.5 L-11.8 -12.3 -11.9 -12.8 Q-12.0 -15.75 -11.25 -17.2 -11.4 -4.8 -2.4 -8.0" fill="#af6900" fill-rule="evenodd" stroke="none"/>
      <path d="M-10.3 -18.0 Q-9.15 -18.3 -6.75 -16.95 L-5.15 -15.95 -4.65 -15.6 Q-3.05 -14.45 -2.35 -13.3 L-2.25 -13.15 -2.05 -12.65 -1.9 -12.35 Q-1.55 -11.6 -1.55 -10.85 -1.5 -10.2 -1.6 -9.6 -1.85 -8.75 -2.4 -8.0 -3.15 -7.15 -4.4 -6.45 -6.75 -5.25 -8.5 -5.7 -10.1 -6.05 -10.9 -7.6 L-11.05 -7.95 -11.1 -8.2 Q-11.6 -9.55 -11.7 -11.5 L-11.8 -12.3 -11.9 -12.8 Q-12.0 -15.75 -11.25 -17.2 L-11.1 -17.5 -10.95 -17.65 -10.3 -18.0 Z" fill="none" stroke="#000000" stroke-linecap="round" stroke-linejoin="miter-clip" stroke-miterlimit="5.0" stroke-opacity="0.5019608" stroke-width="0.30000000000000004"/>
      <path d="M-6.1 -15.5 Q-5.45 -15.1 -5.7 -14.45 -5.95 -13.8 -6.55 -14.1 -7.25 -14.45 -6.95 -15.15 -6.65 -15.8 -6.1 -15.5 M-10.75 -8.85 Q-10.45 -9.5 -9.9 -9.2 -9.25 -8.8 -9.5 -8.15 -9.75 -7.5 -10.35 -7.8 -11.0 -8.15 -10.75 -8.85 M-4.1 -11.35 Q-3.8 -11.9 -3.4 -11.7 L-3.25 -11.65 Q-2.6 -11.25 -2.85 -10.6 -3.05 -10.0 -3.5 -10.25 L-3.7 -10.3 Q-4.35 -10.6 -4.1 -11.35 M-7.5 -11.5 Q-7.2 -12.1 -6.65 -11.8 -6.0 -11.45 -6.25 -10.75 -6.5 -10.15 -7.1 -10.45 -7.75 -10.75 -7.5 -11.5 M-7.25 -6.7 Q-7.9 -7.0 -7.65 -7.8 -7.35 -8.35 -6.8 -8.1 -6.15 -7.7 -6.4 -7.0 -6.7 -6.4 -7.25 -6.7 M-9.5 -12.0 Q-9.75 -11.4 -10.35 -11.7 -11.0 -12.0 -10.75 -12.8 -10.4 -13.35 -9.9 -13.1 -9.2 -12.7 -9.5 -12.0" fill="#ff7bb5" fill-rule="evenodd" stroke="none"/>
      <path d="M10.45 -19.4 Q11.4 -19.05 12.3 -15.85 13.15 -12.7 13.05 -10.3 L12.9 -9.55 Q12.6 -8.05 11.15 -7.2 9.55 -6.35 6.95 -6.85 5.55 -7.15 4.7 -7.85 7.65 -7.6 9.35 -8.6 11.35 -9.7 11.7 -12.9 12.05 -16.15 10.45 -19.4" fill="#628711" fill-rule="evenodd" stroke="none"/>
      <path d="M10.45 -19.4 Q12.05 -16.15 11.7 -12.9 11.35 -9.7 9.35 -8.6 7.65 -7.6 4.7 -7.85 3.9 -8.4 3.55 -9.15 L3.05 -10.35 Q2.9 -11.05 3.0 -11.9 10.55 -6.6 9.7 -19.6 L10.45 -19.4" fill="#7da821" fill-rule="evenodd" stroke="none"/>
      <path d="M3.0 -11.9 L3.25 -13.0 Q3.6 -14.25 4.85 -15.8 L6.55 -17.6 Q8.5 -19.55 9.7 -19.6 10.55 -6.6 3.0 -11.9 M8.7 -18.7 Q7.9 -18.8 5.75 -16.05 3.6 -13.45 7.8 -17.1 9.65 -18.7 8.7 -18.7" fill="#9ecb3f" fill-rule="evenodd" stroke="none"/>
      <path d="M8.7 -18.7 Q9.65 -18.7 7.8 -17.1 3.6 -13.45 5.75 -16.05 7.9 -18.8 8.7 -18.7" fill="#c9f36d" fill-rule="evenodd" stroke="none"/>
      <path d="M4.7 -7.85 Q5.55 -7.15 6.95 -6.85 9.55 -6.35 11.15 -7.2 12.6 -8.05 12.9 -9.55 L13.05 -10.3 Q13.15 -12.7 12.3 -15.85 11.4 -19.05 10.45 -19.4 L9.7 -19.6 Q8.5 -19.55 6.55 -17.6 L4.85 -15.8 Q3.6 -14.25 3.25 -13.0 L3.0 -11.9 Q2.9 -11.05 3.05 -10.35 L3.55 -9.15 Q3.9 -8.4 4.7 -7.85 Z" fill="none" stroke="#000000" stroke-linecap="round" stroke-linejoin="miter-clip" stroke-miterlimit="5.0" stroke-opacity="0.5019608" stroke-width="0.30000000000000004"/>
      <path d="M10.2 -8.85 Q10.0 -9.55 10.75 -9.85 11.35 -10.0 11.55 -9.4 11.65 -8.6 11.0 -8.4 10.35 -8.15 10.2 -8.85 M7.35 -9.35 Q8.1 -9.45 8.45 -8.7 8.8 -7.85 7.9 -7.7 7.1 -7.65 6.8 -8.35 6.4 -9.2 7.35 -9.35 M9.75 -11.05 Q8.55 -10.75 8.25 -11.9 7.9 -13.25 9.3 -13.75 10.4 -14.0 10.8 -12.9 11.1 -11.4 9.75 -11.05 M9.15 -16.4 Q9.3 -15.35 8.35 -15.0 7.45 -14.7 7.25 -15.6 7.1 -16.65 8.05 -17.0 8.9 -17.35 9.15 -16.4 M4.95 -14.05 Q5.7 -14.35 5.8 -13.35 5.8 -11.95 4.65 -11.35 L4.4 -11.3 Q3.65 -10.95 3.65 -11.95 3.55 -13.25 4.8 -13.95 L4.95 -14.05" fill="#d0203d" fill-rule="evenodd" stroke="none"/>
      <path d="M5.1 -16.9 Q2.55 -4.15 -3.35 -11.25 L-3.2 -11.55 -2.95 -12.05 -2.85 -12.2 Q-2.15 -13.35 -0.55 -14.5 -0.25 -14.7 -0.05 -14.85 L1.55 -15.85 Q3.95 -17.2 5.1 -16.9 M3.9 -16.3 Q3.15 -16.6 0.35 -14.55 -2.35 -12.55 2.6 -15.0 4.8 -16.1 3.9 -16.3" fill="#398afa" fill-rule="evenodd" stroke="none"/>
      <path d="M3.9 -16.3 Q4.8 -16.1 2.6 -15.0 -2.35 -12.55 0.35 -14.55 3.15 -16.6 3.9 -16.3" fill="#5da1ff" fill-rule="evenodd" stroke="none"/>
      <path d="M-2.8 -6.9 Q6.15 -3.7 6.05 -16.1 6.65 -15.0 6.7 -11.95 6.75 -8.9 5.85 -6.95 4.9 -5.0 3.25 -4.6 1.5 -4.2 -0.85 -5.35 L-2.8 -6.9" fill="#1e68cd" fill-rule="evenodd" stroke="none"/>
      <path d="M5.1 -16.9 L5.7 -16.55 6.05 -16.1 Q6.15 -3.7 -2.8 -6.9 -3.4 -7.6 -3.55 -8.45 L-3.7 -9.75 -3.35 -11.25 Q2.55 -4.15 5.1 -16.9" fill="#2c7be7" fill-rule="evenodd" stroke="none"/>
      <path d="M6.05 -16.1 L5.7 -16.55 5.1 -16.9 Q3.95 -17.2 1.55 -15.85 L-0.05 -14.85 Q-0.25 -14.7 -0.55 -14.5 -2.15 -13.35 -2.85 -12.2 L-2.95 -12.05 -3.2 -11.55 -3.35 -11.25 -3.7 -9.75 -3.55 -8.45 Q-3.4 -7.6 -2.8 -6.9 L-0.85 -5.35 Q1.5 -4.2 3.25 -4.6 4.9 -5.0 5.85 -6.95 6.75 -8.9 6.7 -11.95 6.65 -15.0 6.05 -16.1 Z" fill="none" stroke="#000000" stroke-linecap="round" stroke-linejoin="miter-clip" stroke-miterlimit="5.0" stroke-opacity="0.5019608" stroke-width="0.30000000000000004"/>
      <path d="M4.3 -13.2 Q3.65 -12.5 3.05 -13.2 2.4 -14.0 3.05 -14.85 3.75 -15.5 4.3 -14.85 4.95 -14.0 4.3 -13.2 M4.6 -8.05 L4.4 -8.25 Q3.7 -9.35 4.4 -10.55 5.0 -11.35 5.5 -10.75 L5.6 -10.55 Q6.3 -9.35 5.6 -8.25 5.05 -7.35 4.6 -8.05 M1.05 -6.7 Q0.45 -6.2 -0.2 -6.7 -0.95 -7.25 -0.2 -7.85 0.5 -8.3 1.05 -7.85 1.8 -7.25 1.05 -6.7 M1.6 -10.5 Q0.75 -9.6 -0.15 -10.5 -1.1 -11.5 -0.15 -12.6 0.8 -13.4 1.6 -12.6 2.55 -11.5 1.6 -10.5 M-1.65 -9.95 Q-1.15 -9.35 -1.65 -8.8 -2.1 -8.3 -2.55 -8.8 -3.05 -9.35 -2.55 -9.95 -2.05 -10.4 -1.65 -9.95" fill="#ccff79" fill-rule="evenodd" stroke="none"/>
      <path d="M-11.55 -27.3 Q-10.75 -28.95 -9.5 -30.2 L-8.95 -30.75 Q-6.9 -32.7 -4.0 -33.75 L-0.5 -34.25 0.45 -34.25 3.9 -33.75 Q15.15 -29.75 14.35 -12.3 L13.0 -12.3 Q14.05 -28.7 3.2 -32.55 L-0.3 -33.05 -1.2 -33.05 -4.75 -32.55 -7.2 -31.4 -9.65 -29.55 -10.25 -29.0 -11.55 -27.3" fill="#d1b14d" fill-rule="evenodd" stroke="none"/>
      <path d="M-7.2 -31.4 Q-13.6 -24.55 -12.65 -12.3 L-13.8 -12.3 Q-14.55 -21.8 -11.55 -27.3 L-10.25 -29.0 -9.65 -29.55 -7.2 -31.4" fill="#856f29" fill-rule="evenodd" stroke="none"/>
      <path d="M-11.55 -27.3 Q-10.75 -28.95 -9.5 -30.2 L-8.95 -30.75 Q-6.9 -32.7 -4.0 -33.75 L-0.5 -34.25 0.45 -34.25 3.9 -33.75 Q15.15 -29.75 14.35 -12.3 L13.0 -12.3 Q14.05 -28.7 3.2 -32.55 L-0.3 -33.05 -1.2 -33.05 -4.75 -32.55 -7.2 -31.4 Q-13.6 -24.55 -12.65 -12.3 L-13.8 -12.3 Q-14.55 -21.8 -11.55 -27.3 L-10.25 -29.0 -9.65 -29.55 -7.2 -31.4" fill="none" stroke="#000000" stroke-linecap="round" stroke-linejoin="miter-clip" stroke-miterlimit="5.0" stroke-opacity="0.5019608" stroke-width="0.1"/>
      <path d="M5.15 -6.9 L5.35 -8.25 8.15 -8.85 8.15 -8.8 Q6.75 -7.75 5.15 -6.9 M-7.85 -8.85 L-5.2 -8.3 -4.95 -6.3 -7.5 -6.85 -7.85 -8.85 M-1.4 -4.75 L-1.55 -5.95 1.45 -5.9 1.45 -5.4 -1.4 -4.75 M-13.0 -8.6 L-12.1 -8.25 -10.5 -7.7 -9.45 -5.35 -12.1 -6.35 -12.3 -6.45 -13.0 -8.6 M-7.2 -4.25 L-7.35 -4.7 -5.5 -4.3 -7.2 -4.25" fill="#b89848" fill-rule="evenodd" stroke="none"/>
      <path d="M8.15 -8.85 L5.35 -8.25 5.15 -6.9 3.7 -6.25 3.2 -6.0 1.8 -5.55 1.45 -5.4 1.45 -5.9 -1.55 -5.95 -1.4 -4.75 -5.5 -4.3 -7.35 -4.7 -7.2 -4.25 -11.5 -4.4 -12.1 -5.2 Q-12.4 -5.8 -12.3 -6.45 L-12.1 -6.35 -9.45 -5.35 -10.5 -7.7 -12.1 -8.25 -13.0 -8.6 Q-14.45 -9.75 -13.95 -11.0 L-14.35 -11.85 Q-2.7 -6.95 10.1 -10.5 L8.2 -8.85 8.15 -8.85 M-7.85 -8.85 L-12.1 -10.25 -13.95 -11.0 -12.1 -10.25 -7.85 -8.85 -7.5 -6.85 -10.5 -7.7 -7.5 -6.85 -4.95 -6.3 -5.2 -8.3 -7.85 -8.85 M5.35 -8.25 Q0.1 -7.45 -5.2 -8.3 0.1 -7.45 5.35 -8.25 M1.45 -5.9 L3.2 -6.0 1.45 -5.9 M-9.45 -5.35 L-7.35 -4.7 -9.45 -5.35 M-1.55 -5.95 L-4.95 -6.3 -1.55 -5.95" fill="#d1b14d" fill-rule="evenodd" stroke="none"/>
      <path d="M5.15 -6.9 Q6.75 -7.75 8.15 -8.8 L7.75 -6.75 5.05 -6.25 5.15 -6.9 M-1.4 -4.75 L1.45 -5.4 1.3 -3.7 -1.3 -3.75 -1.4 -4.75 M-10.55 -2.95 L-11.2 -4.1 Q-9.75 -3.55 -8.25 -3.15 L-8.15 -2.85 -10.55 -2.95 M-6.85 -2.8 L-7.2 -4.25 -5.5 -4.3 -4.6 -4.1 -4.4 -2.85 -6.85 -2.8" fill="#a8893a" fill-rule="evenodd" stroke="none"/>
      <path d="M8.15 -8.8 L8.15 -8.85 8.2 -8.85 10.1 -10.5 Q11.95 -11.05 14.6 -12.1 L14.4 -11.55 13.5 -10.6 13.45 -10.55 9.05 -7.05 7.75 -6.75 9.05 -7.05 Q6.95 -5.75 4.65 -4.8 L2.75 -4.1 1.35 -3.7 1.3 -3.7 1.45 -5.4 1.8 -5.55 3.2 -6.0 3.7 -6.25 5.15 -6.9 5.05 -6.25 7.75 -6.75 8.15 -8.8 M8.2 -8.85 Q10.85 -9.5 13.45 -10.55 10.85 -9.5 8.2 -8.85 M-1.4 -4.75 L-1.3 -3.75 1.3 -3.7 1.35 -3.7 -4.4 -2.85 -4.6 -4.1 -5.5 -4.3 -1.4 -4.75 M5.05 -6.25 L3.2 -6.0 5.05 -6.25 M-11.5 -4.4 L-7.2 -4.25 -6.85 -2.8 -8.25 -3.15 -6.85 -2.8 -8.15 -2.85 -8.25 -3.15 Q-9.75 -3.55 -11.2 -4.1 L-11.5 -4.4 M-4.6 -4.1 L-1.3 -3.75 -4.6 -4.1" fill="#aa8f3b" fill-rule="evenodd" stroke="none"/>
      <path d="M9.05 -7.05 L13.45 -10.55 13.5 -10.6 13.9 -10.8 13.5 -10.6 14.4 -11.55 14.25 -11.3 13.9 -10.8 Q14.15 -9.85 13.5 -8.95 L13.2 -8.55 10.55 -7.55 9.75 -5.25 7.35 -4.55 9.75 -5.25 12.15 -6.15 Q12.65 -5.15 11.45 -4.05 9.7 -3.35 7.95 -2.9 7.45 -1.65 5.7 -0.4 L1.25 0.0 1.35 -1.95 3.85 -2.1 6.7 -2.6 7.35 -4.55 4.45 -3.95 1.35 -3.7 4.45 -3.95 3.85 -2.1 1.35 -1.95 -1.25 -1.95 -1.15 0.0 -6.35 -0.6 Q-7.65 -1.5 -8.15 -2.85 L-6.85 -2.8 -4.35 -2.3 -4.4 -2.85 1.35 -3.7 2.75 -4.1 4.65 -4.8 Q6.95 -5.75 9.05 -7.05 L10.55 -7.55 9.05 -7.05 M7.95 -2.9 L6.7 -2.6 7.95 -2.9 M-4.35 -2.3 L-1.25 -1.95 -4.35 -2.3" fill="#856f29" fill-rule="evenodd" stroke="none"/>
      <path d="M4.45 -3.95 L7.35 -4.55 6.7 -2.6 3.85 -2.1 4.45 -3.95 M9.75 -5.25 L10.55 -7.55 13.2 -8.55 12.15 -6.15 9.75 -5.25 M5.7 -0.4 Q7.45 -1.65 7.95 -2.9 9.7 -3.35 11.45 -4.05 9.5 -1.25 7.55 -0.75 L5.7 -0.4 M1.35 -1.95 L1.25 0.0 -1.15 0.0 -1.25 -1.95 1.35 -1.95 M-6.35 -0.6 L-6.85 -0.7 Q-9.25 -1.1 -10.55 -2.95 L-8.15 -2.85 Q-7.65 -1.5 -6.35 -0.6 M-4.35 -2.3 L-6.85 -2.8 -4.4 -2.85 -4.35 -2.3" fill="#917327" fill-rule="evenodd" stroke="none"/>
      <path d="M14.6 -12.1 Q11.95 -11.05 10.1 -10.5 L11.05 -11.6 12.35 -12.0 14.7 -12.9 14.6 -12.1" fill="#d2b55c" fill-rule="evenodd" stroke="none"/>
      <path d="M10.1 -10.5 Q-2.7 -6.95 -14.35 -11.85 L-14.2 -12.9 Q-11.65 -11.8 -9.1 -11.1 -0.1 -8.65 9.3 -11.1 L11.05 -11.6 10.1 -10.5" fill="#e7ca6e" fill-rule="evenodd" stroke="none"/>
      <path d="M8.15 -8.85 L5.35 -8.25 5.15 -6.9 5.05 -6.25 7.75 -6.75 9.05 -7.05 10.55 -7.55 13.2 -8.55 12.15 -6.15 9.75 -5.25 10.55 -7.55 M8.15 -8.8 L8.15 -8.85 8.2 -8.85 Q10.85 -9.5 13.45 -10.55 L13.5 -10.6 13.9 -10.8 14.25 -11.3 14.4 -11.55 14.6 -12.1 14.7 -12.9 12.35 -12.0 11.05 -11.6 9.3 -11.1 Q-0.1 -8.65 -9.1 -11.1 -11.65 -11.8 -14.2 -12.9 L-14.35 -11.85 -13.95 -11.0 -12.1 -10.25 -7.85 -8.85 -5.2 -8.3 Q0.1 -7.45 5.35 -8.25 M8.15 -8.8 L7.75 -6.75 M1.35 -3.7 L4.45 -3.95 7.35 -4.55 9.75 -5.25 M1.45 -5.4 L1.45 -5.9 -1.55 -5.95 -1.4 -4.75 -1.3 -3.75 1.3 -3.7 1.45 -5.4 M3.2 -6.0 L1.45 -5.9 M1.35 -3.7 L1.3 -3.7 M4.45 -3.95 L3.85 -2.1 6.7 -2.6 7.35 -4.55 M1.35 -1.95 L3.85 -2.1 M11.45 -4.05 Q9.7 -3.35 7.95 -2.9 7.45 -1.65 5.7 -0.4 L7.55 -0.75 Q9.5 -1.25 11.45 -4.05 12.65 -5.15 12.15 -6.15 M6.7 -2.6 L7.95 -2.9 M3.2 -6.0 L5.05 -6.25 M13.9 -10.8 Q14.15 -9.85 13.5 -8.95 L13.2 -8.55 M1.35 -1.95 L1.25 0.0 5.7 -0.4 M-13.0 -8.6 L-12.1 -8.25 -10.5 -7.7 -7.5 -6.85 -7.85 -8.85 M-13.95 -11.0 Q-14.45 -9.75 -13.0 -8.6 L-12.3 -6.45 -12.1 -6.35 -9.45 -5.35 -10.5 -7.7 M-12.3 -6.45 Q-12.4 -5.8 -12.1 -5.2 L-11.5 -4.4 -11.2 -4.1 Q-9.75 -3.55 -8.25 -3.15 L-6.85 -2.8 -7.2 -4.25 -7.35 -4.7 -9.45 -5.35 M-10.55 -2.95 L-11.2 -4.1 M-5.5 -4.3 L-7.35 -4.7 M-6.35 -0.6 L-6.85 -0.7 Q-9.25 -1.1 -10.55 -2.95 M-8.15 -2.85 L-8.25 -3.15 M-8.15 -2.85 Q-7.65 -1.5 -6.35 -0.6 L-1.15 0.0 -1.25 -1.95 -4.35 -2.3 -6.85 -2.8 M-4.4 -2.85 L-4.6 -4.1 -5.5 -4.3 M-1.3 -3.75 L-4.6 -4.1 M-4.4 -2.85 L-4.35 -2.3 M-7.5 -6.85 L-4.95 -6.3 -5.2 -8.3 M-4.95 -6.3 L-1.55 -5.95 M1.25 0.0 L-1.15 0.0 M-1.25 -1.95 L1.35 -1.95" fill="none" stroke="#000000" stroke-linecap="round" stroke-linejoin="miter-clip" stroke-miterlimit="5.0" stroke-opacity="0.5019608" stroke-width="0.1"/>
      <path d="M6.8 -29.7 Q6.8 -30.4 7.6 -31.05 8.45 -31.7 8.8 -31.35 9.05 -31.1 9.1 -29.6 L8.15 -30.25 Q7.3 -30.65 6.8 -29.7" fill="#7e0202" fill-rule="evenodd" stroke="none"/>
      <path d="M6.8 -29.7 Q7.3 -30.65 8.15 -30.25 L9.1 -29.6 9.45 -26.5 9.2 -26.7 Q7.75 -29.4 6.75 -27.8 L6.8 -29.7" fill="#9d0808" fill-rule="evenodd" stroke="none"/>
      <path d="M9.65 -24.8 Q10.15 -23.2 11.0 -21.85 L8.4 -23.5 7.3 -20.65 Q6.75 -22.5 6.6 -24.55 7.5 -25.25 8.15 -25.3 9.05 -25.3 9.65 -24.8 M6.7 -26.65 L6.75 -27.8 Q7.75 -29.4 9.2 -26.7 L8.1 -26.3 Q7.3 -26.25 6.7 -26.65" fill="#b70909" fill-rule="evenodd" stroke="none"/>
      <path d="M9.45 -26.5 L9.65 -24.8 Q9.05 -25.3 8.15 -25.3 7.5 -25.25 6.6 -24.55 L6.7 -26.65 Q7.3 -26.25 8.1 -26.3 L9.2 -26.7 9.45 -26.5" fill="#cd2f2f" fill-rule="evenodd" stroke="none"/>
      <path d="M9.1 -29.6 Q9.05 -31.1 8.8 -31.35 8.45 -31.7 7.6 -31.05 6.8 -30.4 6.8 -29.7 L6.75 -27.8 6.7 -26.65 6.6 -24.55 Q6.75 -22.5 7.3 -20.65 L8.4 -23.5 11.0 -21.85 Q10.15 -23.2 9.65 -24.8 L9.45 -26.5 9.1 -29.6 Z" fill="none" stroke="#000000" stroke-linecap="round" stroke-linejoin="round" stroke-opacity="0.4" stroke-width="0.05"/>
      <path d="M5.65 -30.95 Q5.95 -31.45 7.25 -32.15 8.45 -32.95 8.6 -32.5 L8.7 -32.5 7.1 -29.65 Q7.25 -30.55 6.6 -30.75 L5.65 -30.95" fill="#7e0202" fill-rule="evenodd" stroke="none"/>
      <path d="M5.95 -26.75 L5.35 -25.2 Q5.0 -26.0 4.3 -26.35 L2.6 -26.55 3.65 -28.4 Q3.95 -27.7 4.7 -27.3 L5.9 -27.1 5.95 -26.75" fill="#cd2f2f" fill-rule="evenodd" stroke="none"/>
      <path d="M5.35 -25.2 Q5.0 -23.55 5.15 -21.9 L3.65 -24.75 1.3 -22.85 Q1.75 -24.75 2.6 -26.55 L4.3 -26.35 Q5.0 -26.0 5.35 -25.2 M3.65 -28.4 L4.3 -29.35 Q5.9 -30.25 5.9 -27.1 L4.7 -27.3 Q3.95 -27.7 3.65 -28.4" fill="#b70909" fill-rule="evenodd" stroke="none"/>
      <path d="M7.1 -29.65 L5.95 -26.75 5.9 -27.1 Q5.9 -30.25 4.3 -29.35 4.9 -30.25 5.65 -30.95 L6.6 -30.75 Q7.25 -30.55 7.1 -29.65" fill="#9d0808" fill-rule="evenodd" stroke="none"/>
      <path d="M5.65 -30.95 Q5.95 -31.45 7.25 -32.15 8.45 -32.95 8.6 -32.5 L8.7 -32.5 7.1 -29.65 5.95 -26.75 5.35 -25.2 Q5.0 -23.55 5.15 -21.9 L3.65 -24.75 1.3 -22.85 Q1.75 -24.75 2.6 -26.55 L3.65 -28.4 4.3 -29.35 Q4.9 -30.25 5.65 -30.95 Z" fill="none" stroke="#000000" stroke-linecap="round" stroke-linejoin="round" stroke-opacity="0.4" stroke-width="0.05"/>
      <path d="M5.75 -36.75 L6.7 -36.0 Q5.2 -35.75 4.75 -34.5 L3.75 -35.25 Q5.15 -35.65 5.75 -36.75 M11.85 -33.0 L12.75 -32.75 13.05 -32.5 Q12.9 -32.35 12.9 -31.6 L12.9 -30.5 13.1 -29.7 12.6 -30.05 11.95 -30.4 12.15 -30.85 Q12.5 -31.8 11.85 -33.0 M14.65 -29.05 L15.7 -27.75 13.9 -27.15 12.5 -25.6 11.75 -27.15 Q12.65 -27.15 14.0 -28.15 L14.65 -29.05 M-0.35 -34.75 L1.0 -35.05 Q0.7 -32.85 2.25 -31.6 L0.85 -30.9 Q0.85 -32.85 -0.35 -34.75" fill="#cd2f2f" fill-rule="evenodd" stroke="none"/>
      <path d="M8.45 -30.9 Q7.3 -30.9 7.1 -31.9 L7.2 -31.9 Q7.05 -32.1 7.2 -32.1 L7.2 -32.35 7.2 -32.1 Q7.05 -32.1 7.2 -31.9 L7.1 -31.9 2.25 -31.6 Q0.7 -32.85 1.0 -35.05 L2.25 -34.95 2.5 -34.65 2.5 -35.05 Q2.45 -35.95 3.75 -35.25 L4.75 -34.5 7.2 -32.35 7.25 -32.65 7.9 -32.2 8.7 -31.95 9.2 -32.3 9.3 -32.1 9.05 -31.3 8.8 -31.15 8.6 -30.95 8.45 -30.9 M7.2 -32.1 L6.75 -32.5 5.6 -33.15 2.5 -34.65 5.6 -33.15 6.75 -32.5 7.2 -32.1 M2.0 -33.85 Q4.05 -33.8 5.6 -33.15 4.05 -33.8 2.0 -33.85" fill="#9d0808" fill-rule="evenodd" stroke="none"/>
      <path d="M6.7 -36.0 Q7.8 -34.85 7.9 -33.2 L8.55 -33.0 9.15 -32.55 9.15 -32.6 Q10.45 -33.4 11.85 -33.0 12.5 -31.8 12.15 -30.85 L11.95 -30.4 9.05 -31.3 9.3 -32.1 9.2 -32.3 8.7 -31.95 7.9 -32.2 7.25 -32.65 7.45 -32.85 7.9 -33.2 7.45 -32.85 7.25 -32.65 7.2 -32.35 4.75 -34.5 Q5.2 -35.75 6.7 -36.0 M13.05 -32.5 Q14.7 -32.15 14.45 -31.15 14.25 -30.95 14.7 -29.65 L14.65 -29.05 14.0 -28.15 Q12.65 -27.15 11.75 -27.15 10.8 -29.25 8.6 -30.95 L8.8 -31.15 9.45 -30.75 10.8 -30.05 12.8 -28.55 13.35 -28.35 14.0 -28.15 13.35 -28.35 13.6 -28.4 Q14.4 -28.75 13.35 -29.5 L13.1 -29.7 12.9 -30.5 12.9 -31.6 Q12.9 -32.35 13.05 -32.5 M15.7 -27.75 Q17.15 -26.0 15.8 -25.45 L13.95 -24.4 Q12.35 -23.4 12.1 -23.7 L11.35 -24.25 Q13.2 -23.6 12.5 -25.6 L13.9 -27.15 15.7 -27.75 M0.9 -29.0 L0.4 -28.85 -0.1 -29.0 Q-0.95 -29.0 -1.45 -31.05 -1.4 -32.8 -1.9 -33.15 -2.3 -34.45 -0.85 -34.75 L-0.35 -34.75 Q0.85 -32.85 0.85 -30.9 L0.1 -30.4 Q-0.4 -29.85 0.4 -29.25 L0.9 -29.0 M2.25 -34.95 Q2.1 -35.15 2.2 -35.75 2.3 -36.2 2.9 -36.7 3.9 -36.85 3.95 -37.25 4.65 -38.0 5.75 -36.75 5.15 -35.65 3.75 -35.25 2.45 -35.95 2.5 -35.05 L2.5 -34.65 2.25 -34.95 M9.15 -32.55 L9.2 -32.3 9.15 -32.55 M6.3 -35.25 Q7.25 -33.9 7.45 -32.85 7.25 -33.9 6.3 -35.25 M11.6 -32.15 L9.3 -32.1 11.6 -32.15" fill="#b70909" fill-rule="evenodd" stroke="none"/>
      <path d="M11.35 -24.25 L8.7 -30.55 8.45 -30.9 8.6 -30.95 Q10.8 -29.25 11.75 -27.15 L12.5 -25.6 Q13.2 -23.6 11.35 -24.25 M7.1 -31.9 Q6.45 -31.7 3.75 -30.3 1.0 -29.0 0.9 -29.0 L0.4 -29.25 Q-0.4 -29.85 0.1 -30.4 L0.85 -30.9 2.25 -31.6 7.1 -31.9 M8.8 -31.15 L9.05 -31.3 11.95 -30.4 12.6 -30.05 13.1 -29.7 13.35 -29.5 Q14.4 -28.75 13.6 -28.4 L13.35 -28.35 12.8 -28.55 10.8 -30.05 9.45 -30.75 8.8 -31.15" fill="#7e0202" fill-rule="evenodd" stroke="none"/>
      <path d="M5.75 -36.75 L6.7 -36.0 Q7.8 -34.85 7.9 -33.2 L8.55 -33.0 9.15 -32.55 9.15 -32.6 Q10.45 -33.4 11.85 -33.0 L12.75 -32.75 13.05 -32.5 Q14.7 -32.15 14.45 -31.15 14.25 -30.95 14.7 -29.65 L14.65 -29.05 15.7 -27.75 Q17.15 -26.0 15.8 -25.45 L13.95 -24.4 Q12.35 -23.4 12.1 -23.7 L11.35 -24.25 8.7 -30.55 8.45 -30.9 Q7.3 -30.9 7.1 -31.9 6.45 -31.7 3.75 -30.3 1.0 -29.0 0.9 -29.0 L0.4 -28.85 -0.1 -29.0 Q-0.95 -29.0 -1.45 -31.05 -1.4 -32.8 -1.9 -33.15 -2.3 -34.45 -0.85 -34.75 L-0.35 -34.75 1.0 -35.05 2.25 -34.95 Q2.1 -35.15 2.2 -35.75 2.3 -36.2 2.9 -36.7 3.9 -36.85 3.95 -37.25 4.65 -38.0 5.75 -36.75 M3.75 -35.25 L4.75 -34.5 7.2 -32.35 7.2 -32.1 Q7.05 -32.1 7.2 -31.9 L7.1 -31.9 2.25 -31.6 0.85 -30.9 0.1 -30.4 Q-0.4 -29.85 0.4 -29.25 L0.9 -29.0 M2.5 -34.65 L5.6 -33.15 6.75 -32.5 7.2 -32.1 M7.9 -33.2 L7.45 -32.85 7.25 -32.65 7.2 -32.35 M9.2 -32.3 L9.15 -32.55 M8.6 -30.95 L8.8 -31.15 9.05 -31.3 9.3 -32.1 9.2 -32.3 M7.45 -32.85 Q7.25 -33.9 6.3 -35.25 M3.75 -35.25 Q2.45 -35.95 2.5 -35.05 L2.5 -34.65 2.25 -34.95 M5.6 -33.15 Q4.05 -33.8 2.0 -33.85 M8.45 -30.9 L8.6 -30.95 Q10.8 -29.25 11.75 -27.15 L12.5 -25.6 Q13.2 -23.6 11.35 -24.25 M14.0 -28.15 L13.35 -28.35 12.8 -28.55 10.8 -30.05 9.45 -30.75 8.8 -31.15 M13.1 -29.7 L13.35 -29.5 Q14.4 -28.75 13.6 -28.4 L13.35 -28.35 M14.0 -28.15 L14.65 -29.05 M11.95 -30.4 L12.6 -30.05 13.1 -29.7 M9.05 -31.3 L11.95 -30.4 M9.3 -32.1 L11.6 -32.15" fill="none" stroke="#000000" stroke-linecap="round" stroke-linejoin="round" stroke-opacity="0.4" stroke-width="0.05"/>
    </g>
  </defs>
</svg>
