<?xml version="1.0" encoding="UTF-8" standalone="no"?>
<svg xmlns:xlink="http://www.w3.org/1999/xlink" height="18.45px" width="16.25px" xmlns="http://www.w3.org/2000/svg">
  <g transform="matrix(1.0, 0.0, 0.0, 1.0, 8.1, 18.25)">
    <use data-characterId="44" height="18.45" transform="matrix(1.0, 0.0, 0.0, 1.0, -8.1, -18.25)" width="16.25" xlink:href="#decoration267-shape0"/>
  </g>
  <defs>
    <g id="decoration267-shape0" transform="matrix(1.0, 0.0, 0.0, 1.0, 8.1, 18.25)">
      <path d="M0.7 -0.05 L-0.05 0.0 Q-1.3 -5.5 -0.65 -11.55 -0.9 -5.3 0.7 -0.05" fill="#657e06" fill-rule="evenodd" stroke="none"/>
      <path d="M0.7 -0.05 Q-0.9 -5.3 -0.65 -11.55 -1.3 -5.5 -0.05 0.0 L0.7 -0.05 Z" fill="none" stroke="#000000" stroke-linecap="round" stroke-linejoin="round" stroke-opacity="0.3882353" stroke-width="0.4"/>
      <path d="M7.25 -6.35 L1.05 0.0 0.45 0.0 -0.2 0.0 Q0.75 -5.95 5.0 -7.3 7.65 -7.55 7.25 -6.35 M5.25 -6.35 Q1.85 -3.8 0.45 0.0 1.85 -3.8 5.25 -6.35" fill="url(#decoration267-gradient0)" fill-rule="evenodd" stroke="none"/>
      <path d="M7.25 -6.35 L1.05 0.0 0.45 0.0 -0.2 0.0 Q0.75 -5.95 5.0 -7.3 7.65 -7.55 7.25 -6.35 M0.45 0.0 Q1.85 -3.8 5.25 -6.35" fill="none" stroke="#000000" stroke-linecap="round" stroke-linejoin="round" stroke-opacity="0.3882353" stroke-width="0.4"/>
      <path d="M5.8 -0.65 L0.7 0.0 Q1.9 -2.65 4.5 -1.85 6.15 -1.1 5.8 -0.65 M4.7 -1.3 Q2.6 -1.1 0.7 0.0 2.6 -1.1 4.7 -1.3" fill="url(#decoration267-gradient1)" fill-rule="evenodd" stroke="none"/>
      <path d="M5.8 -0.65 L0.7 0.0 Q1.9 -2.65 4.5 -1.85 6.15 -1.1 5.8 -0.65" fill="none" stroke="#000000" stroke-linecap="round" stroke-linejoin="round" stroke-opacity="0.3882353" stroke-width="0.4"/>
      <path d="M0.7 0.0 Q2.6 -1.1 4.7 -1.3" fill="none" stroke="#000000" stroke-linecap="round" stroke-linejoin="round" stroke-opacity="0.23137255" stroke-width="0.4"/>
      <path d="M3.3 -16.4 Q0.95 -15.3 0.25 -13.35 -1.15 -13.1 -1.7 -14.0 -4.7 -19.1 0.45 -17.85 2.6 -17.25 3.25 -16.45 L3.3 -16.4" fill="#f6cb00" fill-rule="evenodd" stroke="none"/>
      <path d="M3.3 -16.4 L3.4 -15.6 3.35 -15.15 0.25 -13.35 Q0.95 -15.3 3.3 -16.4" fill="#d2a511" fill-rule="evenodd" stroke="none"/>
      <path d="M0.25 -13.35 L3.35 -15.15 3.4 -15.6 3.3 -16.4 Q0.95 -15.3 0.25 -13.35 -1.15 -13.1 -1.7 -14.0 -4.7 -19.1 0.45 -17.85 2.6 -17.25 3.25 -16.45 L3.3 -16.4" fill="none" stroke="#000000" stroke-linecap="round" stroke-linejoin="round" stroke-opacity="0.4" stroke-width="0.30000000000000004"/>
      <path d="M-7.5 -15.3 Q-8.85 -17.8 -6.2 -17.8 -5.1 -17.8 -3.1 -16.55 -1.15 -15.45 0.15 -13.45 -5.15 -17.0 -7.5 -15.3" fill="#f6cb00" fill-rule="evenodd" stroke="none"/>
      <path d="M0.15 -13.45 Q-1.3 -11.8 -7.5 -15.3 -5.15 -17.0 0.15 -13.45" fill="#d2a511" fill-rule="evenodd" stroke="none"/>
      <path d="M-7.5 -15.3 Q-8.85 -17.8 -6.2 -17.8 -5.1 -17.8 -3.1 -16.55 -1.15 -15.45 0.15 -13.45 -1.3 -11.8 -7.5 -15.3 -5.15 -17.0 0.15 -13.45" fill="none" stroke="#000000" stroke-linecap="round" stroke-linejoin="round" stroke-opacity="0.4" stroke-width="0.30000000000000004"/>
      <path d="M-0.15 -13.0 Q2.3 -15.1 5.95 -15.65 7.05 -15.65 7.65 -14.75 8.4 -13.6 7.6 -12.9 6.2 -14.7 -0.15 -13.0" fill="#f6cb00" fill-rule="evenodd" stroke="none"/>
      <path d="M-0.15 -13.0 Q6.2 -14.7 7.6 -12.9 1.15 -11.85 -0.15 -13.0" fill="#d2a511" fill-rule="evenodd" stroke="none"/>
      <path d="M7.6 -12.9 Q8.4 -13.6 7.65 -14.75 7.05 -15.65 5.95 -15.65 2.3 -15.1 -0.15 -13.0 6.2 -14.7 7.6 -12.9 1.15 -11.85 -0.15 -13.0" fill="none" stroke="#000000" stroke-linecap="round" stroke-linejoin="round" stroke-opacity="0.4" stroke-width="0.30000000000000004"/>
      <path d="M6.2 -11.55 Q3.0 -13.1 2.9 -11.9 2.25 -11.1 1.4 -12.35 1.25 -10.75 3.55 -9.1 3.05 -9.3 2.5 -9.7 0.05 -11.2 -0.5 -14.0 L3.9 -12.85 Q5.65 -12.45 6.2 -11.55" fill="#d2a511" fill-rule="evenodd" stroke="none"/>
      <path d="M3.55 -9.1 Q1.25 -10.75 1.4 -12.35 2.25 -11.1 2.9 -11.9 3.0 -13.1 6.2 -11.55 6.5 -11.0 6.35 -10.25 5.25 -8.55 3.55 -9.1" fill="#f6cb00" fill-rule="evenodd" stroke="none"/>
      <path d="M3.55 -9.1 Q5.25 -8.55 6.35 -10.25 6.5 -11.0 6.2 -11.55 5.65 -12.45 3.9 -12.85 L-0.5 -14.0 Q0.05 -11.2 2.5 -9.7 3.05 -9.3 3.55 -9.1 Z" fill="none" stroke="#000000" stroke-linecap="round" stroke-linejoin="round" stroke-opacity="0.4" stroke-width="0.30000000000000004"/>
      <path d="M-5.8 -13.75 L-4.15 -14.1 -2.5 -14.0 Q-1.15 -13.85 -0.45 -13.3 0.8 -11.8 0.6 -10.65 0.45 -9.95 0.1 -9.6 0.25 -13.15 -2.7 -12.85 -5.7 -12.55 -5.8 -13.75" fill="#d2a511" fill-rule="evenodd" stroke="none"/>
      <path d="M-5.8 -13.75 Q-5.7 -12.55 -2.7 -12.85 0.25 -13.15 0.1 -9.6 L-2.05 -9.5 Q-6.9 -11.8 -6.35 -13.35 L-5.8 -13.75" fill="#f6cb00" fill-rule="evenodd" stroke="none"/>
      <path d="M0.1 -9.6 Q0.45 -9.95 0.6 -10.65 0.8 -11.8 -0.45 -13.3 -1.15 -13.85 -2.5 -14.0 L-4.15 -14.1 -5.8 -13.75 -6.35 -13.35 Q-6.9 -11.8 -2.05 -9.5 L0.1 -9.6 Z" fill="none" stroke="#000000" stroke-linecap="round" stroke-linejoin="round" stroke-opacity="0.4" stroke-width="0.30000000000000004"/>
      <path d="M0.9 -13.55 L0.35 -13.0 -0.55 -13.0 -1.3 -13.45 Q-1.6 -13.8 -1.5 -14.15 L-1.0 -14.65 -0.1 -14.7 0.65 -14.2 0.9 -13.55" fill="#ffb704" fill-rule="evenodd" stroke="none"/>
      <path d="M0.9 -13.55 L0.35 -13.0 -0.55 -13.0 -1.3 -13.45 Q-1.6 -13.8 -1.5 -14.15 L-1.0 -14.65 -0.1 -14.7 0.65 -14.2 0.9 -13.55 Z" fill="none" stroke="#000000" stroke-linecap="round" stroke-linejoin="round" stroke-opacity="0.4" stroke-width="0.1"/>
      <path d="M0.4 -13.8 L0.1 -13.5 -0.45 -13.5 Q-0.8 -13.55 -0.9 -13.75 L-1.05 -14.15 -0.75 -14.45 -0.2 -14.45 0.25 -14.2 0.4 -13.8" fill="#ffd654" fill-rule="evenodd" stroke="none"/>
      <path d="M0.4 -13.8 L0.1 -13.5 -0.45 -13.5 Q-0.8 -13.55 -0.9 -13.75 L-1.05 -14.15 -0.75 -14.45 -0.2 -14.45 0.25 -14.2 0.4 -13.8 Z" fill="none" stroke="#000000" stroke-linecap="round" stroke-linejoin="round" stroke-opacity="0.4" stroke-width="0.1"/>
    </g>
    <linearGradient gradientTransform="matrix(-0.0024, 0.0024, 0.0027, 0.0037, 3.4, -3.8)" gradientUnits="userSpaceOnUse" id="decoration267-gradient0" spreadMethod="pad" x1="-819.2" x2="819.2">
      <stop offset="0.043137254901960784" stop-color="#96b426"/>
      <stop offset="0.9686274509803922" stop-color="#829f14"/>
    </linearGradient>
    <linearGradient gradientTransform="matrix(-0.0015, 4.0E-4, 0.0015, 0.0029, 2.95, -0.35)" gradientUnits="userSpaceOnUse" id="decoration267-gradient1" spreadMethod="pad" x1="-819.2" x2="819.2">
      <stop offset="0.043137254901960784" stop-color="#96b426"/>
      <stop offset="0.9686274509803922" stop-color="#829f14"/>
    </linearGradient>
  </defs>
</svg>
