<?xml version="1.0" encoding="UTF-8" standalone="no"?>
<svg xmlns:xlink="http://www.w3.org/1999/xlink" height="20.5px" width="16.65px" xmlns="http://www.w3.org/2000/svg">
  <g transform="matrix(1.0, 0.0, 0.0, 1.0, 8.1, 20.3)">
    <use height="20.5" transform="matrix(1.0, 0.0, 0.0, 1.0, -8.1, -20.3)" width="16.65" xlink:href="#decoration269-shape0"/>
  </g>
  <defs>
    <g id="decoration269-shape0" transform="matrix(1.0, 0.0, 0.0, 1.0, 8.1, 20.3)">
      <path d="M0.8 -3.5 Q-2.9 -4.9 -5.3 -6.35 -5.55 -7.1 -3.3 -7.5 0.1 -7.55 0.8 -3.5 -1.2 -5.75 -3.7 -6.75 -1.2 -5.75 0.8 -3.5" fill="url(#decoration269-gradient0)" fill-rule="evenodd" stroke="none"/>
      <path d="M0.8 -3.5 Q0.1 -7.55 -3.3 -7.5 -5.55 -7.1 -5.3 -6.35 -2.9 -4.9 0.8 -3.5" fill="none" stroke="#000000" stroke-linecap="round" stroke-linejoin="round" stroke-opacity="0.3882353" stroke-width="0.4"/>
      <path d="M0.8 -3.5 Q-1.2 -5.75 -3.7 -6.75" fill="none" stroke="#000000" stroke-linecap="round" stroke-linejoin="round" stroke-opacity="0.23137255" stroke-width="0.4"/>
      <path d="M0.45 0.0 L-0.3 -0.05 Q1.3 -5.3 1.05 -11.55 1.7 -5.5 0.45 0.0" fill="#657e06" fill-rule="evenodd" stroke="none"/>
      <path d="M0.45 0.0 L-0.3 -0.05 Q1.3 -5.3 1.05 -11.55 1.7 -5.5 0.45 0.0 Z" fill="none" stroke="#000000" stroke-linecap="round" stroke-linejoin="round" stroke-opacity="0.3882353" stroke-width="0.4"/>
      <path d="M6.9 -5.25 Q4.5 -3.8 0.8 -2.4 1.5 -6.45 4.9 -6.4 7.15 -6.0 6.9 -5.25 M5.3 -5.65 Q2.8 -4.65 0.8 -2.4 2.8 -4.65 5.3 -5.65" fill="url(#decoration269-gradient1)" fill-rule="evenodd" stroke="none"/>
      <path d="M0.8 -2.4 Q2.8 -4.65 5.3 -5.65" fill="none" stroke="#000000" stroke-linecap="round" stroke-linejoin="round" stroke-opacity="0.23137255" stroke-width="0.4"/>
      <path d="M6.9 -5.25 Q4.5 -3.8 0.8 -2.4 1.5 -6.45 4.9 -6.4 7.15 -6.0 6.9 -5.25" fill="none" stroke="#000000" stroke-linecap="round" stroke-linejoin="round" stroke-opacity="0.3882353" stroke-width="0.4"/>
      <path d="M1.85 -11.85 L1.65 -10.8 Q1.05 -8.75 0.6 -10.9 L-0.4 -13.3 2.45 -14.5 Q1.95 -13.75 1.85 -12.25 L1.85 -11.85" fill="#a11f6d" fill-rule="evenodd" stroke="none"/>
      <path d="M1.85 -11.85 L1.85 -12.25 Q1.95 -13.75 2.45 -14.5 L-0.4 -13.3 0.6 -10.9 Q1.05 -8.75 1.65 -10.8 L1.85 -11.85 Z" fill="none" stroke="#000000" stroke-linecap="round" stroke-linejoin="round" stroke-opacity="0.3882353" stroke-width="0.4"/>
      <path d="M5.65 -14.6 Q3.85 -14.5 5.25 -17.05 L6.1 -17.1 Q7.65 -17.25 8.35 -16.75 L6.25 -15.0 5.65 -14.6" fill="url(#decoration269-gradient2)" fill-rule="evenodd" stroke="none"/>
      <path d="M5.25 -17.05 Q3.85 -14.5 5.65 -14.6 2.55 -12.6 -0.45 -13.9 0.3 -16.65 5.25 -17.05" fill="#a11f6d" fill-rule="evenodd" stroke="none"/>
      <path d="M5.65 -14.6 L6.25 -15.0 8.35 -16.75 Q7.65 -17.25 6.1 -17.1 L5.25 -17.05 Q0.3 -16.65 -0.45 -13.9 2.55 -12.6 5.65 -14.6 Z" fill="none" stroke="#000000" stroke-linecap="round" stroke-linejoin="round" stroke-opacity="0.3882353" stroke-width="0.4"/>
      <path d="M3.6 -18.95 Q3.65 -17.35 1.85 -14.3 0.8 -13.05 0.25 -14.3 -1.1 -16.95 2.05 -19.25 L2.95 -20.1 Q3.55 -20.2 3.6 -18.95" fill="url(#decoration269-gradient3)" fill-rule="evenodd" stroke="none"/>
      <path d="M3.6 -18.95 Q3.65 -17.35 1.85 -14.3 0.8 -13.05 0.25 -14.3 -1.1 -16.95 2.05 -19.25 L2.95 -20.1 Q3.55 -20.2 3.6 -18.95 Z" fill="none" stroke="#000000" stroke-linecap="round" stroke-linejoin="round" stroke-opacity="0.3882353" stroke-width="0.4"/>
      <path d="M-3.95 -17.5 Q-4.45 -18.85 -4.15 -19.7 L-1.85 -18.9 Q1.5 -17.3 0.75 -13.6 -2.4 -12.7 -3.95 -17.5" fill="url(#decoration269-gradient4)" fill-rule="evenodd" stroke="none"/>
      <path d="M-3.95 -17.5 Q-2.4 -12.7 0.75 -13.6 1.5 -17.3 -1.85 -18.9 L-4.15 -19.7 Q-4.45 -18.85 -3.95 -17.5 Z" fill="none" stroke="#000000" stroke-linecap="round" stroke-linejoin="round" stroke-opacity="0.3882353" stroke-width="0.4"/>
      <path d="M-5.95 -13.7 Q-6.1 -14.75 -3.7 -15.9 -1.85 -15.9 0.05 -14.55 1.9 -13.15 -0.75 -13.5 L-5.95 -13.7" fill="#a11f6d" fill-rule="evenodd" stroke="none"/>
      <path d="M-5.95 -13.7 L-7.5 -13.6 Q-8.15 -13.8 -7.7 -14.35 -5.7 -16.05 -3.7 -15.9 -6.1 -14.75 -5.95 -13.7" fill="url(#decoration269-gradient5)" fill-rule="evenodd" stroke="none"/>
      <path d="M-3.7 -15.9 Q-5.7 -16.05 -7.7 -14.35 -8.15 -13.8 -7.5 -13.6 L-5.95 -13.7 M-3.7 -15.9 Q-1.85 -15.9 0.05 -14.55 1.9 -13.15 -0.75 -13.5 L-5.95 -13.7" fill="none" stroke="#000000" stroke-linecap="round" stroke-linejoin="round" stroke-opacity="0.3882353" stroke-width="0.4"/>
      <path d="M1.5 -17.35 L2.05 -17.45 2.15 -16.85 Q2.0 -14.7 0.25 -13.4 L1.0 -14.55 Q1.65 -15.65 1.4 -16.4 1.05 -16.85 1.5 -17.35" fill="url(#decoration269-gradient6)" fill-rule="evenodd" stroke="none"/>
      <path d="M1.5 -17.35 Q1.05 -16.85 1.4 -16.4 1.65 -15.65 1.0 -14.55 L0.25 -13.4 Q2.0 -14.7 2.15 -16.85 L2.05 -17.45 1.5 -17.35 Z" fill="none" stroke="#000000" stroke-linecap="round" stroke-linejoin="round" stroke-opacity="0.3019608" stroke-width="0.05"/>
      <path d="M0.6 -13.6 L0.5 -14.9 Q0.35 -16.0 -0.15 -16.4 -0.85 -16.5 -0.7 -17.1 L-0.3 -17.6 0.15 -17.15 Q1.4 -15.45 0.6 -13.6" fill="url(#decoration269-gradient7)" fill-rule="evenodd" stroke="none"/>
      <path d="M0.6 -13.6 Q1.4 -15.45 0.15 -17.15 L-0.3 -17.6 -0.7 -17.1 Q-0.85 -16.5 -0.15 -16.4 0.35 -16.0 0.5 -14.9 L0.6 -13.6 Z" fill="none" stroke="#000000" stroke-linecap="round" stroke-linejoin="round" stroke-opacity="0.3019608" stroke-width="0.05"/>
      <path d="M0.75 -13.7 L0.1 -14.6 Q-0.65 -15.45 -1.4 -15.45 -2.2 -15.25 -2.4 -15.8 -2.55 -16.3 -2.25 -16.3 L-1.55 -16.15 Q0.55 -15.45 0.75 -13.7" fill="url(#decoration269-gradient8)" fill-rule="evenodd" stroke="none"/>
      <path d="M0.75 -13.7 Q0.55 -15.45 -1.55 -16.15 L-2.25 -16.3 Q-2.55 -16.3 -2.4 -15.8 -2.2 -15.25 -1.4 -15.45 -0.65 -15.45 0.1 -14.6 L0.75 -13.7 Z" fill="none" stroke="#000000" stroke-linecap="round" stroke-linejoin="round" stroke-opacity="0.3019608" stroke-width="0.05"/>
      <path d="M5.75 -10.55 Q5.9 -11.8 3.1 -13.9 3.7 -14.6 5.45 -14.4 6.15 -13.95 6.4 -13.0 6.85 -11.1 5.75 -10.55" fill="url(#decoration269-gradient9)" fill-rule="evenodd" stroke="none"/>
      <path d="M5.75 -10.55 Q4.2 -12.7 0.8 -13.55 L1.3 -14.0 Q2.15 -14.9 3.65 -14.9 4.75 -14.9 5.45 -14.4 3.7 -14.6 3.1 -13.9 5.9 -11.8 5.75 -10.55" fill="#a11f6d" fill-rule="evenodd" stroke="none"/>
      <path d="M5.45 -14.4 Q4.75 -14.9 3.65 -14.9 2.15 -14.9 1.3 -14.0 L0.8 -13.55 Q4.2 -12.7 5.75 -10.55 M5.45 -14.4 Q6.15 -13.95 6.4 -13.0 6.85 -11.1 5.75 -10.55" fill="none" stroke="#000000" stroke-linecap="round" stroke-linejoin="round" stroke-opacity="0.3882353" stroke-width="0.4"/>
      <path d="M-2.35 -12.75 Q-4.15 -12.15 -5.5 -11.1 -6.35 -11.7 -5.0 -13.5 -4.2 -14.6 -3.1 -14.95 -1.3 -14.95 -0.65 -14.25 L-2.35 -12.75" fill="url(#decoration269-gradient10)" fill-rule="evenodd" stroke="none"/>
      <path d="M-3.1 -14.95 L-1.4 -15.05 Q0.1 -14.95 1.05 -13.55 L-2.35 -12.75 -0.65 -14.25 Q-1.3 -14.95 -3.1 -14.95" fill="#a11f6d" fill-rule="evenodd" stroke="none"/>
      <path d="M-3.1 -14.95 L-1.4 -15.05 Q0.1 -14.95 1.05 -13.55 L-2.35 -12.75 Q-4.15 -12.15 -5.5 -11.1 -6.35 -11.7 -5.0 -13.5 -4.2 -14.6 -3.1 -14.95 Z" fill="none" stroke="#000000" stroke-linecap="round" stroke-linejoin="round" stroke-opacity="0.3882353" stroke-width="0.4"/>
    </g>
    <linearGradient gradientTransform="matrix(0.0016, 0.0011, -0.0027, 0.0031, -1.55, -4.65)" gradientUnits="userSpaceOnUse" id="decoration269-gradient0" spreadMethod="pad" x1="-819.2" x2="819.2">
      <stop offset="0.043137254901960784" stop-color="#96b426"/>
      <stop offset="0.9686274509803922" stop-color="#829f14"/>
    </linearGradient>
    <linearGradient gradientTransform="matrix(-0.0016, 0.0011, 0.0027, 0.0032, 3.2, -3.65)" gradientUnits="userSpaceOnUse" id="decoration269-gradient1" spreadMethod="pad" x1="-819.2" x2="819.2">
      <stop offset="0.043137254901960784" stop-color="#96b426"/>
      <stop offset="0.9686274509803922" stop-color="#829f14"/>
    </linearGradient>
    <linearGradient gradientTransform="matrix(0.002, -0.0011, 8.0E-4, 0.0013, 6.9, -16.55)" gradientUnits="userSpaceOnUse" id="decoration269-gradient2" spreadMethod="pad" x1="-819.2" x2="819.2">
      <stop offset="0.0" stop-color="#d9419d"/>
      <stop offset="1.0" stop-color="#f73f86"/>
    </linearGradient>
    <linearGradient gradientTransform="matrix(0.002, -0.0011, 0.002, 0.0034, 2.4, -17.9)" gradientUnits="userSpaceOnUse" id="decoration269-gradient3" spreadMethod="pad" x1="-819.2" x2="819.2">
      <stop offset="0.0" stop-color="#d9419d"/>
      <stop offset="1.0" stop-color="#f73f86"/>
    </linearGradient>
    <linearGradient gradientTransform="matrix(8.0E-4, -0.003, 0.0037, 0.001, -1.7, -16.65)" gradientUnits="userSpaceOnUse" id="decoration269-gradient4" spreadMethod="pad" x1="-819.2" x2="819.2">
      <stop offset="0.0" stop-color="#d9419d"/>
      <stop offset="1.0" stop-color="#f73f86"/>
    </linearGradient>
    <linearGradient gradientTransform="matrix(-7.0E-4, -0.0025, 0.0013, -4.0E-4, -6.4, -15.5)" gradientUnits="userSpaceOnUse" id="decoration269-gradient5" spreadMethod="pad" x1="-819.2" x2="819.2">
      <stop offset="0.0" stop-color="#d9419d"/>
      <stop offset="1.0" stop-color="#f73f86"/>
    </linearGradient>
    <linearGradient gradientTransform="matrix(-5.0E-4, -0.0011, -0.0018, 9.0E-4, 1.4, -15.4)" gradientUnits="userSpaceOnUse" id="decoration269-gradient6" spreadMethod="pad" x1="-819.2" x2="819.2">
      <stop offset="0.0" stop-color="#f6ffd4"/>
      <stop offset="1.0" stop-color="#dfa849"/>
    </linearGradient>
    <linearGradient gradientTransform="matrix(-0.0011, -5.0E-4, -0.0011, 0.0015, 0.65, -15.8)" gradientUnits="userSpaceOnUse" id="decoration269-gradient7" spreadMethod="pad" x1="-819.2" x2="819.2">
      <stop offset="0.0" stop-color="#f6ffd4"/>
      <stop offset="1.0" stop-color="#dfa849"/>
    </linearGradient>
    <linearGradient gradientTransform="matrix(-0.0013, 1.0E-4, -2.0E-4, 0.0017, -0.3, -15.4)" gradientUnits="userSpaceOnUse" id="decoration269-gradient8" spreadMethod="pad" x1="-819.2" x2="819.2">
      <stop offset="0.0" stop-color="#f6ffd4"/>
      <stop offset="1.0" stop-color="#dfa849"/>
    </linearGradient>
    <linearGradient gradientTransform="matrix(0.002, -5.0E-4, 6.0E-4, 0.0023, 6.05, -13.1)" gradientUnits="userSpaceOnUse" id="decoration269-gradient9" spreadMethod="pad" x1="-819.2" x2="819.2">
      <stop offset="0.0" stop-color="#d9419d"/>
      <stop offset="1.0" stop-color="#f73f86"/>
    </linearGradient>
    <linearGradient gradientTransform="matrix(-0.0019, -0.0025, 0.0018, -0.0014, -4.7, -13.3)" gradientUnits="userSpaceOnUse" id="decoration269-gradient10" spreadMethod="pad" x1="-819.2" x2="819.2">
      <stop offset="0.0" stop-color="#d9419d"/>
      <stop offset="1.0" stop-color="#f73f86"/>
    </linearGradient>
  </defs>
</svg>
