<?xml version="1.0" encoding="UTF-8" standalone="no"?>
<svg xmlns:xlink="http://www.w3.org/1999/xlink" height="196.3px" width="103.45px" xmlns="http://www.w3.org/2000/svg">
  <g transform="matrix(1.0, 0.0, 0.0, 1.0, 55.35, 196.1)">
    <use height="193.6" transform="matrix(1.0, 0.0, 0.0, 1.0, -34.05, -193.4)" width="66.8" xlink:href="#decoration27-shape0"/>
    <use height="116.85" transform="matrix(-0.0248, 0.6485, -0.8385, -0.0321, 48.0774, -192.3622)" width="220.6" xlink:href="#decoration27-sprite0"/>
  </g>
  <defs>
    <g id="decoration27-shape0" transform="matrix(1.0, 0.0, 0.0, 1.0, 34.05, 193.4)">
      <path d="M3.2 -10.55 Q19.95 -7.5 24.65 0.2 L-0.35 0.2 -0.35 -101.3 3.2 -101.3 3.2 -10.55" fill="#000000" fill-opacity="0.3019608" fill-rule="evenodd" stroke="none"/>
      <path d="M-11.8 -152.7 L-23.8 -184.5 Q0.3 -200.25 24.8 -188.2 L14.8 -152.7 Q1.5 -156.25 -11.8 -152.7" fill="url(#decoration27-gradient0)" fill-rule="evenodd" stroke="none"/>
      <path d="M22.85 -102.95 L32.75 -47.35 Q18.2 -40.85 1.45 -39.1 L1.45 -100.3 14.9 -101.45 22.85 -102.95 M-1.45 -39.25 Q-22.1 -40.5 -34.05 -46.65 L-22.45 -102.95 Q-12.15 -100.45 -1.45 -100.3 L-1.45 -39.25 M14.9 -90.8 L14.9 -101.45 14.9 -90.8 M13.9 -87.75 Q14.4 -87.25 15.1 -87.25 15.8 -87.25 16.25 -87.75 16.75 -88.2 16.75 -88.9 16.75 -89.6 16.25 -90.1 15.8 -90.55 15.1 -90.55 14.4 -90.55 13.9 -90.1 13.45 -89.6 13.45 -88.9 13.45 -88.2 13.9 -87.75" fill="url(#decoration27-gradient1)" fill-rule="evenodd" stroke="none"/>
      <path d="M14.8 -152.7 L22.85 -102.95 14.9 -101.45 1.45 -100.3 -1.45 -100.3 Q-12.15 -100.45 -22.45 -102.95 L-11.8 -152.7 Q1.5 -156.25 14.8 -152.7" fill="#e0dacb" fill-rule="evenodd" stroke="none"/>
      <path d="M1.45 -39.1 L1.45 -7.65 1.45 -6.15 Q0.45 -4.3 -1.45 -5.95 L-1.45 -7.55 -1.45 -39.25 -1.45 -100.3 1.45 -100.3 1.45 -39.1 M13.9 -87.75 Q13.45 -88.2 13.45 -88.9 13.45 -89.6 13.9 -90.1 14.4 -90.55 15.1 -90.55 15.8 -90.55 16.25 -90.1 16.75 -89.6 16.75 -88.9 16.75 -88.2 16.25 -87.75 15.8 -87.25 15.1 -87.25 14.4 -87.25 13.9 -87.75" fill="#1c1812" fill-rule="evenodd" stroke="none"/>
      <path d="M1.45 -7.65 L4.9 -7.3 Q6.1 -5.7 4.9 -4.6 2.75 -2.4 -6.1 -2.1 -13.75 -2.7 -12.85 -4.85 -7.9 -6.8 -1.45 -7.55 L-1.45 -5.95 Q0.45 -4.3 1.45 -6.15 L1.45 -7.65" fill="#583e1c" fill-rule="evenodd" stroke="none"/>
      <path d="M4.9 -7.3 Q16.9 -5.7 21.05 -0.5 L-20.3 -0.5 Q-17.15 -3.15 -12.85 -4.85 -13.75 -2.7 -6.1 -2.1 2.75 -2.4 4.9 -4.6 6.1 -5.7 4.9 -7.3" fill="#38250c" fill-rule="evenodd" stroke="none"/>
      <path d="M14.8 -152.7 L22.85 -102.95 14.9 -101.45 14.9 -90.8 M1.45 -39.1 L1.45 -7.65 4.9 -7.3 Q16.9 -5.7 21.05 -0.5 L-20.3 -0.5 Q-17.15 -3.15 -12.85 -4.85 -7.9 -6.8 -1.45 -7.55 L-1.45 -39.25 M-22.45 -102.95 L-11.8 -152.7 Q1.5 -156.25 14.8 -152.7 M14.9 -101.45 L1.45 -100.3 1.45 -39.1 M13.9 -87.75 Q13.45 -88.2 13.45 -88.9 13.45 -89.6 13.9 -90.1 14.4 -90.55 15.1 -90.55 15.8 -90.55 16.25 -90.1 16.75 -89.6 16.75 -88.9 16.75 -88.2 16.25 -87.75 15.8 -87.25 15.1 -87.25 14.4 -87.25 13.9 -87.75 M-1.45 -7.55 L-1.45 -5.95 Q0.45 -4.3 1.45 -6.15 L1.45 -7.65 M-1.45 -100.3 Q-12.15 -100.45 -22.45 -102.95 M-1.45 -100.3 L-1.45 -39.25 M1.45 -100.3 L-1.45 -100.3" fill="none" stroke="#000000" stroke-linecap="round" stroke-linejoin="round" stroke-opacity="0.47843137" stroke-width="0.8"/>
    </g>
    <linearGradient gradientTransform="matrix(0.0, -0.0527, 0.0248, 0.0, 4.25, -125.25)" gradientUnits="userSpaceOnUse" id="decoration27-gradient0" spreadMethod="pad" x1="-819.2" x2="819.2">
      <stop offset="0.0" stop-color="#ffe6b6" stop-opacity="0.36078432"/>
      <stop offset="1.0" stop-color="#ffdfb1" stop-opacity="0.0"/>
    </linearGradient>
    <linearGradient gradientTransform="matrix(0.0, 0.0665, -0.039, 0.0, 3.75, -122.55)" gradientUnits="userSpaceOnUse" id="decoration27-gradient1" spreadMethod="pad" x1="-819.2" x2="819.2">
      <stop offset="0.0" stop-color="#ffe6b6" stop-opacity="0.36078432"/>
      <stop offset="1.0" stop-color="#ffdfb1" stop-opacity="0.0"/>
    </linearGradient>
    <g id="decoration27-sprite0" transform="matrix(1.0, 0.0, 0.0, 1.0, -2.6, 0.05)">
      <use height="116.85" transform="matrix(1.0, 0.0, 0.0, 1.0, 2.6, -0.05)" width="220.6" xlink:href="#decoration27-shape1"/>
    </g>
    <g id="decoration27-shape1" transform="matrix(1.0, 0.0, 0.0, 1.0, -2.6, 0.05)">
      <path d="M216.6 72.9 Q209.6 82.3 197.3 90.5 165.65 111.5 112.85 116.1 61.0 120.6 28.05 95.7 15.85 86.45 8.7 74.85 2.6 65.0 2.6 58.05 2.6 51.0 7.9 41.95 14.25 31.1 25.85 22.35 57.15 -1.2 112.85 0.0 173.9 1.15 201.1 17.6 224.7 31.9 223.1 58.05 222.7 64.7 216.6 72.9" fill="url(#decoration27-gradient2)" fill-rule="evenodd" stroke="none"/>
    </g>
    <radialGradient cx="0" cy="0" gradientTransform="matrix(0.0971, 0.0, 0.0, 0.0572, 109.5, 53.65)" gradientUnits="userSpaceOnUse" id="decoration27-gradient2" r="819.2" spreadMethod="pad">
      <stop offset="0.0" stop-color="#cdfdff" stop-opacity="0.45882353"/>
      <stop offset="0.19607843137254902" stop-color="#dafdff" stop-opacity="0.34117648"/>
      <stop offset="1.0" stop-color="#ffffff" stop-opacity="0.0"/>
    </radialGradient>
  </defs>
</svg>
