<?xml version="1.0" encoding="UTF-8" standalone="no"?>
<svg xmlns:ffdec="https://www.free-decompiler.com/flash" xmlns:xlink="http://www.w3.org/1999/xlink" ffdec:objectType="frame" height="41.1px" width="44.6px" xmlns="http://www.w3.org/2000/svg">
  <g transform="matrix(1.0, 0.0, 0.0, 1.0, 20.5, 41.05)">
    <use ffdec:characterId="50" height="41.1" transform="matrix(1.0, 0.0, 0.0, 1.0, -20.5, -41.05)" width="44.6" xlink:href="#decoration273-shape0"/>
  </g>
  <defs>
    <g id="decoration273-shape0" transform="matrix(1.0, 0.0, 0.0, 1.0, 20.5, 41.05)">
      <path d="M-8.65 -12.2 Q-6.8 -12.2 -5.75 -11.05 -3.8 -8.65 -4.2 -5.7 -6.0 -9.9 -8.65 -12.2" fill="#bfd955" fill-rule="evenodd" stroke="none"/>
      <path d="M-2.4 0.0 Q-2.6 -6.7 -7.15 -15.05 L-6.45 -15.2 Q-2.7 -11.3 1.55 0.0 L-2.4 0.0" fill="#6a8202" fill-rule="evenodd" stroke="none"/>
      <path d="M-8.65 -12.2 L-10.0 -13.25 Q-8.7 -14.6 -7.15 -15.05 -2.6 -6.7 -2.4 0.0 -3.15 -3.15 -4.2 -5.7 -3.8 -8.65 -5.75 -11.05 -6.8 -12.2 -8.65 -12.2" fill="#9cb72c" fill-rule="evenodd" stroke="none"/>
      <path d="M-7.15 -15.05 Q-8.7 -14.6 -10.0 -13.25 L-8.65 -12.2 Q-6.0 -9.9 -4.2 -5.7 -3.15 -3.15 -2.4 0.0 L1.55 0.0 Q-2.7 -11.3 -6.45 -15.2 L-7.15 -15.05 Z" fill="none" stroke="#000000" stroke-linecap="round" stroke-linejoin="round" stroke-opacity="0.3019608" stroke-width="0.1"/>
      <path d="M17.85 -15.3 L20.4 -11.3 16.3 -12.6 17.85 -15.3 M19.95 -18.2 L22.55 -14.25 18.45 -15.55 19.95 -18.2 M9.85 -11.0 L9.15 -5.75 7.3 -10.2 9.85 -11.0 M13.15 -6.25 L10.3 -9.95 12.7 -11.3 13.15 -6.25 M13.45 -10.45 L15.5 -12.55 17.05 -7.85 13.45 -10.45 M24.05 -17.55 L20.0 -18.9 21.45 -21.6 24.05 -17.55" fill="#ffffff" fill-rule="evenodd" stroke="none"/>
      <path d="M17.85 -15.3 L20.4 -11.3 16.3 -12.6 17.85 -15.3 M19.95 -18.2 L22.55 -14.25 18.45 -15.55 19.95 -18.2 M9.85 -11.0 L9.15 -5.75 7.3 -10.2 9.85 -11.0 M13.15 -6.25 L10.3 -9.95 12.7 -11.3 13.15 -6.25 M13.45 -10.45 L15.5 -12.55 17.05 -7.85 13.45 -10.45 M24.05 -17.55 L20.0 -18.9 21.45 -21.6 24.05 -17.55 Z" fill="none" stroke="#000000" stroke-linecap="round" stroke-linejoin="round" stroke-opacity="0.3019608" stroke-width="0.1"/>
      <path d="M0.8 -13.65 L7.75 -12.7 9.7 -12.9 Q10.65 -13.3 11.6 -14.45 L12.05 -15.15 Q17.1 -22.0 19.8 -21.3 22.35 -20.6 21.05 -17.75 20.25 -16.2 18.6 -14.1 13.75 -9.95 6.7 -11.4 3.7 -12.15 0.8 -13.65" fill="#9cb72c" fill-rule="evenodd" stroke="none"/>
      <path d="M12.05 -15.15 Q13.15 -16.75 14.25 -19.35 15.8 -23.45 20.85 -22.6 22.05 -22.25 22.05 -21.05 22.2 -19.8 21.05 -17.75 22.35 -20.6 19.8 -21.3 17.1 -22.0 12.05 -15.15" fill="#bfd955" fill-rule="evenodd" stroke="none"/>
      <path d="M18.6 -14.1 L17.7 -12.9 Q14.85 -9.3 11.35 -8.65 8.75 -8.6 7.6 -9.3 L3.25 -11.15 Q-4.65 -14.0 0.8 -13.65 3.7 -12.15 6.7 -11.4 13.75 -9.95 18.6 -14.1" fill="#6a8202" fill-rule="evenodd" stroke="none"/>
      <path d="M0.8 -13.65 L7.75 -12.7 9.7 -12.9 Q10.65 -13.3 11.6 -14.45 L12.05 -15.15 Q13.15 -16.75 14.25 -19.35 15.8 -23.45 20.85 -22.6 22.05 -22.25 22.05 -21.05 22.2 -19.8 21.05 -17.75 20.25 -16.2 18.6 -14.1 L17.7 -12.9 Q14.85 -9.3 11.35 -8.65 8.75 -8.6 7.6 -9.3 L3.25 -11.15 Q-4.65 -14.0 0.8 -13.65 Z" fill="none" stroke="#000000" stroke-linecap="round" stroke-linejoin="round" stroke-opacity="0.3019608" stroke-width="0.1"/>
      <path d="M-1.0 -20.45 L-0.4 -23.8 2.7 -24.4 2.1 -20.3 1.6 -15.45 0.45 -13.85 Q1.35 -19.1 -1.0 -20.45" fill="#9cb72c" fill-rule="evenodd" stroke="none"/>
      <path d="M1.6 -15.45 Q0.95 -6.45 2.6 -0.25 L2.7 -0.1 -2.45 0.0 -2.6 -1.6 Q-1.05 -3.15 -0.35 -6.5 0.2 -9.05 0.45 -13.85 L1.6 -15.45" fill="#6a8202" fill-rule="evenodd" stroke="none"/>
      <path d="M-2.6 -1.6 L-2.45 -9.35 -2.05 -13.2 -1.0 -20.45 Q1.35 -19.1 0.45 -13.85 0.2 -9.05 -0.35 -6.5 -1.05 -3.15 -2.6 -1.6" fill="#bfd955" fill-rule="evenodd" stroke="none"/>
      <path d="M-1.0 -20.45 L-0.4 -23.8 2.7 -24.4 2.1 -20.3 1.6 -15.45 Q0.95 -6.45 2.6 -0.25 L2.7 -0.1 -2.45 0.0 -2.6 -1.6 -2.45 -9.35 -2.05 -13.2 -1.0 -20.45 Z" fill="none" stroke="#000000" stroke-linecap="round" stroke-linejoin="round" stroke-opacity="0.3019608" stroke-width="0.1"/>
      <path d="M2.5 -33.05 L7.35 -39.35 5.75 -31.3 2.5 -33.05 M6.3 -32.0 L13.35 -35.8 8.65 -29.05 6.3 -32.0 M10.3 -25.85 L9.1 -29.35 16.9 -30.6 10.3 -25.85 M2.3 -32.95 L-1.45 -33.45 0.8 -41.0 2.3 -32.95 M10.15 -21.7 L10.05 -25.45 17.85 -24.35 10.15 -21.7 M-6.25 -30.95 L-9.95 -30.4 -9.7 -38.4 -6.25 -30.95 M-4.6 -40.25 L-1.95 -32.4 -5.75 -32.3 -4.6 -40.25" fill="#c4c3c3" fill-rule="evenodd" stroke="none"/>
      <path d="M2.5 -33.05 L7.35 -39.35 5.75 -31.3 2.5 -33.05 M6.3 -32.0 L13.35 -35.8 8.65 -29.05 6.3 -32.0 M10.3 -25.85 L9.1 -29.35 16.9 -30.6 10.3 -25.85 M2.3 -32.95 L-1.45 -33.45 0.8 -41.0 2.3 -32.95 M10.15 -21.7 L10.05 -25.45 17.85 -24.35 10.15 -21.7 M-6.25 -30.95 L-9.95 -30.4 -9.7 -38.4 -6.25 -30.95 M-4.6 -40.25 L-1.95 -32.4 -5.75 -32.3 -4.6 -40.25 Z" fill="none" stroke="#000000" stroke-linecap="round" stroke-linejoin="round" stroke-opacity="0.3019608" stroke-width="0.1"/>
      <path d="M8.65 -19.35 Q13.85 -25.0 7.3 -30.7 2.5 -35.0 -2.75 -33.2 -7.3 -31.25 -9.4 -25.55 L-10.35 -25.75 -11.0 -26.65 -10.9 -27.4 Q-4.25 -40.75 7.55 -32.9 16.05 -26.15 10.25 -18.1 L8.65 -19.35" fill="url(#decoration273-gradient0)" fill-rule="evenodd" stroke="none"/>
      <path d="M-9.4 -25.55 Q-7.3 -31.25 -2.75 -33.2 2.5 -35.0 7.3 -30.7 13.85 -25.0 8.65 -19.35 -1.6 -27.4 -8.1 -25.4 L-9.4 -25.55" fill="url(#decoration273-gradient1)" fill-rule="evenodd" stroke="none"/>
      <path d="M8.65 -19.35 L10.25 -18.1 Q16.05 -26.15 7.55 -32.9 -4.25 -40.75 -10.9 -27.4 L-11.0 -26.65 -10.35 -25.75 -9.4 -25.55 -8.1 -25.4 Q-1.6 -27.4 8.65 -19.35 Z" fill="none" stroke="#000000" stroke-linecap="round" stroke-linejoin="round" stroke-opacity="0.3019608" stroke-width="0.1"/>
      <path d="M11.75 -30.1 L7.45 -23.1 5.25 -25.6 11.75 -30.1 M2.2 -27.75 L2.3 -28.15 2.2 -27.75 2.2 -27.65 0.2 -28.5 -0.9 -29.0 -0.3 -30.05 -0.9 -29.0 0.2 -28.5 -3.05 -28.4 -2.15 -36.25 -0.3 -30.05 3.4 -35.75 2.3 -28.15 7.85 -33.35 4.85 -25.65 2.2 -27.75 M9.3 -20.8 L7.7 -23.45 14.9 -26.75 9.8 -21.35 17.3 -22.75 10.3 -18.6 9.55 -21.15 9.3 -20.8 M9.8 -21.35 L9.6 -21.3 9.55 -21.15 9.6 -21.3 9.8 -21.35 M-10.8 -34.6 L-7.05 -27.35 -10.7 -26.6 -10.8 -34.6 M-7.3 -28.0 L-6.2 -35.85 -3.55 -28.1 -7.3 -28.0" fill="#ffffff" fill-rule="evenodd" stroke="none"/>
      <path d="M11.75 -30.1 L7.45 -23.1 5.25 -25.6 11.75 -30.1 M2.3 -28.15 L2.2 -27.75 4.85 -25.65 7.85 -33.35 2.3 -28.15 3.4 -35.75 -0.3 -30.05 -0.9 -29.0 0.2 -28.5 2.2 -27.65 2.2 -27.75 M9.3 -20.8 L7.7 -23.45 14.9 -26.75 9.8 -21.35 17.3 -22.75 10.3 -18.6 9.55 -21.15 9.3 -20.8 M9.55 -21.15 L9.6 -21.3 9.8 -21.35 M-10.8 -34.6 L-7.05 -27.35 -10.7 -26.6 -10.8 -34.6 M0.2 -28.5 L-3.05 -28.4 -2.15 -36.25 -0.3 -30.05 M-7.3 -28.0 L-6.2 -35.85 -3.55 -28.1 -7.3 -28.0 Z" fill="none" stroke="#000000" stroke-linecap="round" stroke-linejoin="round" stroke-opacity="0.3019608" stroke-width="0.1"/>
      <path d="M-10.9 -25.9 Q-7.4 -29.5 -3.65 -28.95 0.8 -28.15 3.0 -26.55 7.5 -23.4 8.65 -20.85 9.7 -18.8 7.3 -17.25 L4.65 -17.65 Q5.85 -18.25 0.35 -23.4 -5.25 -28.5 -8.45 -24.4 -9.05 -24.35 -9.75 -24.8 -10.5 -25.2 -10.9 -25.9" fill="url(#decoration273-gradient2)" fill-rule="evenodd" stroke="none"/>
      <path d="M4.65 -17.65 Q2.85 -18.25 1.3 -19.75 -4.4 -26.55 -7.6 -24.7 L-8.45 -24.4 Q-5.25 -28.5 0.35 -23.4 5.85 -18.25 4.65 -17.65" fill="url(#decoration273-gradient3)" fill-rule="evenodd" stroke="none"/>
      <path d="M-10.9 -25.9 Q-11.25 -26.45 -11.2 -27.25 -9.95 -30.5 -3.5 -30.55 2.35 -30.55 6.6 -26.3 11.65 -20.8 10.45 -18.45 9.65 -16.95 7.3 -17.25 9.7 -18.8 8.65 -20.85 7.5 -23.4 3.0 -26.55 0.8 -28.15 -3.65 -28.95 -7.4 -29.5 -10.9 -25.9" fill="#ebff9b" fill-rule="evenodd" stroke="none"/>
      <path d="M7.3 -17.25 Q9.65 -16.95 10.45 -18.45 11.65 -20.8 6.6 -26.3 2.35 -30.55 -3.5 -30.55 -9.95 -30.5 -11.2 -27.25 -11.25 -26.45 -10.9 -25.9 -10.5 -25.2 -9.75 -24.8 -9.05 -24.35 -8.45 -24.4 L-7.6 -24.7 Q-4.4 -26.55 1.3 -19.75 2.85 -18.25 4.65 -17.65 L7.3 -17.25 Z" fill="none" stroke="#000000" stroke-linecap="round" stroke-linejoin="round" stroke-opacity="0.3019608" stroke-width="0.1"/>
      <path d="M-15.35 -11.45 L-15.3 -9.05 -20.45 -10.55 -15.35 -11.45 M-10.25 -18.1 L-12.45 -17.05 -13.2 -22.35 -10.25 -18.1 M-12.9 -16.9 L-14.6 -15.15 -17.25 -19.85 -12.9 -16.9 M-15.25 -12.45 L-19.65 -15.6 -14.5 -14.65 -15.25 -12.45 M-5.55 -23.25 L-5.1 -18.1 -7.45 -18.3 -5.55 -23.25 M-9.8 -18.1 L-9.8 -23.5 -7.45 -18.8 -9.8 -18.1" fill="#c4c3c3" fill-rule="evenodd" stroke="none"/>
      <path d="M-9.8 -18.1 L-7.45 -18.8 -9.8 -23.5 -9.8 -18.1 M-5.55 -23.25 L-7.45 -18.3 -5.1 -18.1 -5.55 -23.25 M-15.25 -12.45 L-14.5 -14.65 -19.65 -15.6 -15.25 -12.45 M-12.9 -16.9 L-17.25 -19.85 -14.6 -15.15 -12.9 -16.9 M-10.25 -18.1 L-13.2 -22.35 -12.45 -17.05 -10.25 -18.1 M-15.35 -11.45 L-20.45 -10.55 -15.3 -9.05 -15.35 -11.45 Z" fill="none" stroke="#000000" stroke-linecap="round" stroke-linejoin="round" stroke-opacity="0.3019608" stroke-width="0.1"/>
      <path d="M-3.25 -15.35 Q-5.7 -18.4 -8.95 -18.7 -12.55 -18.65 -14.65 -15.05 -17.4 -10.15 -13.1 -7.8 L-13.8 -6.65 Q-19.1 -10.4 -15.25 -16.35 -9.6 -23.6 -2.75 -16.75 L-2.5 -16.35 Q-2.4 -16.0 -2.7 -15.65 L-3.25 -15.35" fill="url(#decoration273-gradient4)" fill-rule="evenodd" stroke="none"/>
      <path d="M-13.1 -7.8 Q-17.4 -10.15 -14.65 -15.05 -12.55 -18.65 -8.95 -18.7 -5.7 -18.4 -3.25 -15.35 -3.55 -15.15 -3.95 -15.0 -8.4 -14.85 -13.1 -7.8" fill="url(#decoration273-gradient5)" fill-rule="evenodd" stroke="none"/>
      <path d="M-13.1 -7.8 Q-8.4 -14.85 -3.95 -15.0 -3.55 -15.15 -3.25 -15.35 L-2.7 -15.65 Q-2.4 -16.0 -2.5 -16.35 L-2.75 -16.75 Q-9.6 -23.6 -15.25 -16.35 -19.1 -10.4 -13.8 -6.65 L-13.1 -7.8 Z" fill="none" stroke="#000000" stroke-linecap="round" stroke-linejoin="round" stroke-opacity="0.3019608" stroke-width="0.1"/>
      <path d="M-11.45 -12.0 L-14.55 -16.3 -10.1 -13.7 -11.45 -12.0 M-11.95 -11.55 L-12.8 -9.55 -16.95 -12.85 -11.95 -11.55 M-12.85 -8.3 L-13.15 -6.55 -17.95 -8.95 -12.85 -8.3 M-2.6 -16.7 L-5.05 -16.45 -4.25 -21.65 -2.6 -16.7 M-8.1 -15.4 L-9.9 -14.05 -11.8 -19.1 -8.1 -15.4 M-7.95 -21.2 L-5.55 -16.5 -7.95 -15.85 -7.95 -21.2" fill="#ffffff" fill-rule="evenodd" stroke="none"/>
      <path d="M-7.95 -21.2 L-7.95 -15.85 -5.55 -16.5 -7.95 -21.2 M-8.1 -15.4 L-11.8 -19.1 -9.9 -14.05 -8.1 -15.4 M-2.6 -16.7 L-4.25 -21.65 -5.05 -16.45 -2.6 -16.7 M-12.85 -8.3 L-17.95 -8.95 -13.15 -6.55 -12.85 -8.3 M-11.95 -11.55 L-16.95 -12.85 -12.8 -9.55 -11.95 -11.55 M-11.45 -12.0 L-10.1 -13.7 -14.55 -16.3 -11.45 -12.0 Z" fill="none" stroke="#000000" stroke-linecap="round" stroke-linejoin="round" stroke-opacity="0.3019608" stroke-width="0.1"/>
      <path d="M-12.1 -7.0 L-14.35 -7.05 Q-15.55 -8.25 -13.55 -12.7 -11.85 -16.25 -8.2 -17.45 -4.2 -18.75 -2.8 -17.0 -2.6 -16.55 -2.7 -16.15 -5.6 -17.65 -7.8 -16.5 -10.35 -15.05 -11.4 -13.6 -13.5 -10.7 -13.65 -8.9 -13.9 -7.45 -12.1 -7.0" fill="#ebff9b" fill-rule="evenodd" stroke="none"/>
      <path d="M-2.7 -16.15 Q-2.75 -15.65 -3.2 -15.25 -3.45 -14.75 -3.9 -14.65 -6.7 -16.55 -9.1 -12.2 -11.4 -7.9 -10.55 -7.8 -11.25 -7.25 -12.1 -7.0 -13.9 -7.45 -13.65 -8.9 -13.5 -10.7 -11.4 -13.6 -10.35 -15.05 -7.8 -16.5 -5.6 -17.65 -2.7 -16.15" fill="url(#decoration273-gradient6)" fill-rule="evenodd" stroke="none"/>
      <path d="M-3.9 -14.65 L-4.5 -14.7 Q-6.85 -15.15 -8.9 -9.75 -9.5 -8.5 -10.55 -7.8 -11.4 -7.9 -9.1 -12.2 -6.7 -16.55 -3.9 -14.65" fill="url(#decoration273-gradient7)" fill-rule="evenodd" stroke="none"/>
      <path d="M-12.1 -7.0 L-14.35 -7.05 Q-15.55 -8.25 -13.55 -12.7 -11.85 -16.25 -8.2 -17.45 -4.2 -18.75 -2.8 -17.0 -2.6 -16.55 -2.7 -16.15 -2.75 -15.65 -3.2 -15.25 -3.45 -14.75 -3.9 -14.65 L-4.5 -14.7 Q-6.85 -15.15 -8.9 -9.75 -9.5 -8.5 -10.55 -7.8 -11.25 -7.25 -12.1 -7.0 Z" fill="none" stroke="#000000" stroke-linecap="round" stroke-linejoin="round" stroke-opacity="0.3019608" stroke-width="0.1"/>
    </g>
    <linearGradient gradientTransform="matrix(0.0048, 0.0119, -0.0122, 0.005, 1.05, -25.9)" gradientUnits="userSpaceOnUse" id="decoration273-gradient0" spreadMethod="pad" x1="-819.2" x2="819.2">
      <stop offset="0.0" stop-color="#9cb72c"/>
      <stop offset="0.8705882352941177" stop-color="#6a8202"/>
    </linearGradient>
    <radialGradient cx="0" cy="0" gradientTransform="matrix(0.0043, 0.0106, -0.0106, 0.0043, 1.45, -25.05)" gradientUnits="userSpaceOnUse" id="decoration273-gradient1" r="819.2" spreadMethod="pad">
      <stop offset="0.6705882352941176" stop-color="#fa5f72"/>
      <stop offset="0.8549019607843137" stop-color="#a73c49"/>
    </radialGradient>
    <linearGradient gradientTransform="matrix(-4.0E-4, 0.0026, -0.0096, -0.0013, 0.4, -25.4)" gradientUnits="userSpaceOnUse" id="decoration273-gradient2" spreadMethod="pad" x1="-819.2" x2="819.2">
      <stop offset="0.0" stop-color="#d0ee53"/>
      <stop offset="0.8705882352941177" stop-color="#9fbf1a"/>
    </linearGradient>
    <linearGradient gradientTransform="matrix(3.0E-4, 0.002, -0.006, 8.0E-4, -5.85, -24.95)" gradientUnits="userSpaceOnUse" id="decoration273-gradient3" spreadMethod="pad" x1="-819.2" x2="819.2">
      <stop offset="0.0" stop-color="#9cb72c"/>
      <stop offset="0.8705882352941177" stop-color="#6a8202"/>
    </linearGradient>
    <linearGradient gradientTransform="matrix(-4.0E-4, 0.0082, 0.0085, 4.0E-4, -10.2, -13.6)" gradientUnits="userSpaceOnUse" id="decoration273-gradient4" spreadMethod="pad" x1="-819.2" x2="819.2">
      <stop offset="0.0" stop-color="#9cb72c"/>
      <stop offset="0.8705882352941177" stop-color="#6a8202"/>
    </linearGradient>
    <radialGradient cx="0" cy="0" gradientTransform="matrix(-4.0E-4, 0.0073, 0.0073, 4.0E-4, -10.3, -13.0)" gradientUnits="userSpaceOnUse" id="decoration273-gradient5" r="819.2" spreadMethod="pad">
      <stop offset="0.6705882352941176" stop-color="#fa5f72"/>
      <stop offset="0.8549019607843137" stop-color="#a73c49"/>
    </radialGradient>
    <linearGradient gradientTransform="matrix(7.0E-4, 0.0015, 0.0056, -0.0028, -9.7, -13.65)" gradientUnits="userSpaceOnUse" id="decoration273-gradient6" spreadMethod="pad" x1="-819.2" x2="819.2">
      <stop offset="0.0" stop-color="#d0ee53"/>
      <stop offset="0.8705882352941177" stop-color="#9fbf1a"/>
    </linearGradient>
    <linearGradient gradientTransform="matrix(2.0E-4, 0.0013, 0.0038, -7.0E-4, -5.7, -14.7)" gradientUnits="userSpaceOnUse" id="decoration273-gradient7" spreadMethod="pad" x1="-819.2" x2="819.2">
      <stop offset="0.0" stop-color="#9cb72c"/>
      <stop offset="0.8705882352941177" stop-color="#6a8202"/>
    </linearGradient>
  </defs>
</svg>
