<?xml version="1.0" encoding="UTF-8" standalone="no"?>
<svg xmlns:ffdec="https://www.free-decompiler.com/flash" xmlns:xlink="http://www.w3.org/1999/xlink" ffdec:objectType="frame" height="55.3px" width="42.8px" xmlns="http://www.w3.org/2000/svg">
  <g transform="matrix(1.0, 0.0, 0.0, 1.0, 21.4, 55.25)">
    <use ffdec:characterId="48" height="55.3" transform="matrix(1.0, 0.0, 0.0, 1.0, -21.4, -55.25)" width="42.8" xlink:href="#decoration274-shape0"/>
  </g>
  <defs>
    <g id="decoration274-shape0" transform="matrix(1.0, 0.0, 0.0, 1.0, 21.4, 55.25)">
      <path d="M13.1 -33.8 Q9.55 -33.35 8.95 -30.55 8.35 -27.8 5.9 -26.45 L5.9 -15.05 12.5 -15.05 12.4 -11.7 -4.65 -11.15 -4.65 -31.9 -3.6 -32.35 13.3 -40.0 13.1 -33.8 M2.4 -14.55 L2.4 -25.25 -1.0 -25.25 Q-1.4 -22.1 -2.35 -21.65 L-2.35 -14.55 2.4 -14.55" fill="url(#decoration274-gradient0)" fill-rule="evenodd" stroke="none"/>
      <path d="M2.4 -14.55 L-2.35 -14.55 -2.35 -21.65 Q-1.4 -22.1 -1.0 -25.25 L2.4 -25.25 2.4 -14.55" fill="url(#decoration274-gradient1)" fill-rule="evenodd" stroke="none"/>
      <path d="M12.5 -15.05 L5.9 -15.05 5.9 -26.45 Q8.35 -27.8 8.95 -30.55 9.55 -33.35 13.1 -33.8 L12.5 -15.05" fill="url(#decoration274-gradient2)" fill-rule="evenodd" stroke="none"/>
      <path d="M-4.65 -31.9 L-4.65 -11.15 -13.3 -10.95 Q-12.55 -15.3 -13.1 -21.35 L-13.8 -27.55 Q-13.95 -27.7 -4.65 -31.9" fill="#6b4f47" fill-rule="evenodd" stroke="none"/>
      <path d="M13.1 -33.8 L13.3 -40.0 -3.6 -32.35 -4.65 -31.9 Q-13.95 -27.7 -13.8 -27.55 L-13.1 -21.35 Q-12.55 -15.3 -13.3 -10.95 L-4.65 -11.15 12.4 -11.7 12.5 -15.05 13.1 -33.8 Z" fill="none" stroke="#000000" stroke-linecap="round" stroke-linejoin="round" stroke-opacity="0.29803923" stroke-width="0.1"/>
      <path d="M5.9 -26.45 L5.9 -15.05" fill="none" stroke="#000000" stroke-linecap="round" stroke-linejoin="round" stroke-opacity="0.29803923" stroke-width="0.8"/>
      <path d="M-1.35 -12.55 L16.65 -13.35 16.8 -10.35 Q15.25 -11.6 10.0 -10.25 L-1.35 -9.5 -1.35 -12.55" fill="url(#decoration274-gradient3)" fill-rule="evenodd" stroke="none"/>
      <path d="M16.8 -10.35 L16.95 -7.35 -4.65 -6.55 -4.65 -12.5 -1.35 -12.55 -1.35 -9.5 10.0 -10.25 Q15.25 -11.6 16.8 -10.35" fill="url(#decoration274-gradient4)" fill-rule="evenodd" stroke="none"/>
      <path d="M-4.65 -6.55 L-16.65 -6.4 -17.0 -12.3 -4.65 -12.5 -4.65 -6.55" fill="#6b4f47" fill-rule="evenodd" stroke="none"/>
      <path d="M16.8 -10.35 L16.95 -7.35 -4.65 -6.55 -16.65 -6.4 -17.0 -12.3 -4.65 -12.5 -1.35 -12.55 16.65 -13.35 16.8 -10.35 Z" fill="none" stroke="#000000" stroke-linecap="round" stroke-linejoin="round" stroke-opacity="0.29803923" stroke-width="0.1"/>
      <path d="M-1.55 -8.25 L-1.55 -3.3 4.1 -2.65 Q6.35 -2.0 10.05 -1.8 L21.05 -2.55 20.9 -0.2 -4.75 -0.05 -4.75 -8.2 -1.55 -8.25" fill="url(#decoration274-gradient5)" fill-rule="evenodd" stroke="none"/>
      <path d="M21.05 -2.55 L10.05 -1.8 Q6.35 -2.0 4.1 -2.65 L-1.55 -3.3 -1.55 -8.25 21.35 -8.6 21.05 -2.55" fill="url(#decoration274-gradient6)" fill-rule="evenodd" stroke="none"/>
      <path d="M-4.75 -8.2 L-4.75 -0.05 -20.8 0.0 -21.35 -8.0 -4.75 -8.2" fill="#6b4f47" fill-rule="evenodd" stroke="none"/>
      <path d="M21.05 -2.55 L21.35 -8.6 -1.55 -8.25 -4.75 -8.2 -21.35 -8.0 -20.8 0.0 -4.75 -0.05 20.9 -0.2 21.05 -2.55 Z" fill="none" stroke="#000000" stroke-linecap="round" stroke-linejoin="round" stroke-opacity="0.29803923" stroke-width="0.1"/>
      <path d="M9.2 -54.55 Q12.05 -56.2 15.2 -53.6 17.2 -51.6 13.45 -46.65 15.1 -46.4 15.35 -45.1 L15.4 -44.6 Q15.2 -43.0 13.9 -42.05 8.4 -44.05 9.2 -54.55" fill="#c2c861" fill-rule="evenodd" stroke="none"/>
      <path d="M-1.8 -43.9 Q-0.35 -44.05 1.1 -45.1 3.7 -46.95 6.25 -51.65 7.7 -53.7 9.2 -54.55 8.4 -44.05 13.9 -42.05 15.05 -41.1 15.25 -40.0 11.8 -37.3 9.8 -42.75 8.7 -33.85 2.65 -34.75 4.35 -31.7 2.65 -30.4 0.75 -29.2 -0.2 -31.2 -1.7 -32.5 -2.15 -31.2 -3.5 -28.15 -5.0 -28.45 -6.75 -29.45 -5.0 -32.2 -6.8 -32.35 -7.1 -32.9 -7.65 -34.0 -4.75 -35.75 L-0.8 -38.1 Q-6.6 -38.75 -1.8 -43.9" fill="url(#decoration274-gradient7)" fill-rule="evenodd" stroke="none"/>
      <path d="M15.25 -40.0 L15.2 -38.75 Q15.15 -37.8 14.65 -37.0 14.15 -37.45 9.55 -36.0 7.8 -34.9 7.5 -33.45 5.65 -33.45 5.6 -31.45 5.9 -27.8 -0.9 -28.65 -3.0 -26.0 -6.2 -27.7 L-5.55 -25.75 Q-5.35 -24.75 -6.65 -24.0 -8.0 -23.3 -10.2 -26.7 -11.8 -27.15 -12.3 -28.85 -12.35 -31.05 -8.85 -31.7 -11.45 -31.55 -11.6 -34.65 -9.8 -36.35 -6.9 -37.5 -7.75 -40.45 -6.3 -41.9 -4.4 -43.85 -2.0 -43.9 L-1.8 -43.9 Q-6.6 -38.75 -0.8 -38.1 L-4.75 -35.75 Q-7.65 -34.0 -7.1 -32.9 -6.8 -32.35 -5.0 -32.2 -6.75 -29.45 -5.0 -28.45 -3.5 -28.15 -2.15 -31.2 -1.7 -32.5 -0.2 -31.2 0.75 -29.2 2.65 -30.4 4.35 -31.7 2.65 -34.75 8.7 -33.85 9.8 -42.75 11.8 -37.3 15.25 -40.0" fill="url(#decoration274-gradient8)" fill-rule="evenodd" stroke="none"/>
      <path d="M14.65 -37.0 Q13.4 -35.1 9.3 -34.2 9.05 -31.7 6.45 -31.75 8.2 -28.15 5.7 -27.15 1.5 -25.7 -0.9 -28.65 -0.7 -26.05 -2.2 -25.3 -0.9 -22.45 -4.0 -21.45 -8.2 -20.45 -9.95 -24.4 -10.35 -21.45 -12.35 -22.2 -15.35 -22.9 -14.5 -28.45 -14.3 -32.15 -11.6 -34.65 -11.45 -31.55 -8.85 -31.7 -12.35 -31.05 -12.3 -28.85 -11.8 -27.15 -10.2 -26.7 -8.0 -23.3 -6.65 -24.0 -5.35 -24.75 -5.55 -25.75 L-6.2 -27.7 Q-3.0 -26.0 -0.9 -28.65 5.9 -27.8 5.6 -31.45 5.65 -33.45 7.5 -33.45 7.8 -34.9 9.55 -36.0 14.15 -37.45 14.65 -37.0" fill="url(#decoration274-gradient9)" fill-rule="evenodd" stroke="none"/>
      <path d="M-1.8 -43.9 Q-0.35 -44.05 1.1 -45.1 3.7 -46.95 6.25 -51.65 7.7 -53.7 9.2 -54.55 12.05 -56.2 15.2 -53.6 17.2 -51.6 13.45 -46.65 15.1 -46.4 15.35 -45.1 L15.4 -44.6 Q15.2 -43.0 13.9 -42.05 15.05 -41.1 15.25 -40.0 L15.2 -38.75 Q15.15 -37.8 14.65 -37.0 13.4 -35.1 9.3 -34.2 9.05 -31.7 6.45 -31.75 8.2 -28.15 5.7 -27.15 1.5 -25.7 -0.9 -28.65 -0.7 -26.05 -2.2 -25.3 -0.9 -22.45 -4.0 -21.45 -8.2 -20.45 -9.95 -24.4 -10.35 -21.45 -12.35 -22.2 -15.35 -22.9 -14.5 -28.45 -14.3 -32.15 -11.6 -34.65 -9.8 -36.35 -6.9 -37.5 -7.75 -40.45 -6.3 -41.9 -4.4 -43.85 -2.0 -43.9 L-1.8 -43.9 Z" fill="none" stroke="#000000" stroke-linecap="round" stroke-linejoin="round" stroke-opacity="0.29803923" stroke-width="0.1"/>
      <path d="M7.9 -47.5 Q9.85 -46.65 9.7 -44.25 9.45 -42.1 7.25 -41.75 4.95 -41.95 4.55 -44.1 4.1 -47.9 7.9 -47.5" fill="#c2c861" fill-rule="evenodd" stroke="none"/>
    </g>
    <linearGradient gradientTransform="matrix(0.0056, 2.0E-4, -5.0E-4, 0.0176, 8.95, -29.55)" gradientUnits="userSpaceOnUse" id="decoration274-gradient0" spreadMethod="pad" x1="-819.2" x2="819.2">
      <stop offset="0.0" stop-color="#8a786e"/>
      <stop offset="0.39215686274509803" stop-color="#b3a78f"/>
      <stop offset="0.6" stop-color="#b3a78f"/>
      <stop offset="1.0" stop-color="#8f7d70"/>
    </linearGradient>
    <linearGradient gradientTransform="matrix(0.0044, 0.0, 0.0, 0.0065, 1.15, -19.95)" gradientUnits="userSpaceOnUse" id="decoration274-gradient1" spreadMethod="pad" x1="-819.2" x2="819.2">
      <stop offset="0.0" stop-color="#b2aea5"/>
      <stop offset="0.396078431372549" stop-color="#cfc6a1"/>
      <stop offset="0.615686274509804" stop-color="#cfc6a1"/>
      <stop offset="1.0" stop-color="#b7b3a9"/>
    </linearGradient>
    <linearGradient gradientTransform="matrix(0.0044, 0.0, 0.0, 0.0114, 9.5, -24.45)" gradientUnits="userSpaceOnUse" id="decoration274-gradient2" spreadMethod="pad" x1="-819.2" x2="819.2">
      <stop offset="0.0" stop-color="#b2aea5"/>
      <stop offset="0.396078431372549" stop-color="#cfc6a1"/>
      <stop offset="0.615686274509804" stop-color="#cfc6a1"/>
      <stop offset="1.0" stop-color="#b7b3a9"/>
    </linearGradient>
    <linearGradient gradientTransform="matrix(0.0111, 0.0, 0.0, 0.0023, 7.7, -11.45)" gradientUnits="userSpaceOnUse" id="decoration274-gradient3" spreadMethod="pad" x1="-819.2" x2="819.2">
      <stop offset="0.0" stop-color="#b2aea5"/>
      <stop offset="0.396078431372549" stop-color="#cfc6a1"/>
      <stop offset="0.615686274509804" stop-color="#cfc6a1"/>
      <stop offset="1.0" stop-color="#b7b3a9"/>
    </linearGradient>
    <linearGradient gradientTransform="matrix(0.0132, 0.0, 0.0, 0.0037, 6.15, -9.55)" gradientUnits="userSpaceOnUse" id="decoration274-gradient4" spreadMethod="pad" x1="-819.2" x2="819.2">
      <stop offset="0.0" stop-color="#837068"/>
      <stop offset="0.39215686274509803" stop-color="#b3a78f"/>
      <stop offset="0.6" stop-color="#b3a78f"/>
      <stop offset="1.0" stop-color="#8f7d70"/>
    </linearGradient>
    <linearGradient gradientTransform="matrix(0.0123, 0.0, 0.0, 0.0052, 8.3, -4.35)" gradientUnits="userSpaceOnUse" id="decoration274-gradient5" spreadMethod="pad" x1="-819.2" x2="819.2">
      <stop offset="0.0" stop-color="#837068"/>
      <stop offset="0.39215686274509803" stop-color="#b3a78f"/>
      <stop offset="0.6" stop-color="#b3a78f"/>
      <stop offset="1.0" stop-color="#8f7d70"/>
    </linearGradient>
    <linearGradient gradientTransform="matrix(0.014, 0.0, 0.0, 0.0042, 9.9, -5.2)" gradientUnits="userSpaceOnUse" id="decoration274-gradient6" spreadMethod="pad" x1="-819.2" x2="819.2">
      <stop offset="0.0" stop-color="#b2aea5"/>
      <stop offset="0.396078431372549" stop-color="#cfc6a1"/>
      <stop offset="0.615686274509804" stop-color="#cfc6a1"/>
      <stop offset="1.0" stop-color="#b7b3a9"/>
    </linearGradient>
    <linearGradient gradientTransform="matrix(0.0104, -0.0028, 0.0042, 0.0157, 7.9, -44.3)" gradientUnits="userSpaceOnUse" id="decoration274-gradient7" spreadMethod="pad" x1="-819.2" x2="819.2">
      <stop offset="0.0" stop-color="#9fab51"/>
      <stop offset="1.0" stop-color="#b3ba4b"/>
    </linearGradient>
    <linearGradient gradientTransform="matrix(0.0132, 0.0, 0.0, 0.0122, 1.5, -33.9)" gradientUnits="userSpaceOnUse" id="decoration274-gradient8" spreadMethod="pad" x1="-819.2" x2="819.2">
      <stop offset="0.0" stop-color="#6d692d"/>
      <stop offset="1.0" stop-color="#878b40"/>
    </linearGradient>
    <linearGradient gradientTransform="matrix(0.0084, 0.0, 0.0, 0.0082, 2.45, -30.6)" gradientUnits="userSpaceOnUse" id="decoration274-gradient9" spreadMethod="pad" x1="-819.2" x2="819.2">
      <stop offset="0.0" stop-color="#54471c"/>
      <stop offset="1.0" stop-color="#5c4f21"/>
    </linearGradient>
  </defs>
</svg>
