<?xml version="1.0" encoding="UTF-8" standalone="no"?>
<svg xmlns:ffdec="https://www.free-decompiler.com/flash" xmlns:xlink="http://www.w3.org/1999/xlink" ffdec:objectType="frame" height="54.1px" width="99.8px" xmlns="http://www.w3.org/2000/svg">
  <g transform="matrix(1.0, 0.0, 0.0, 1.0, 49.9, 54.05)">
    <use ffdec:characterId="46" height="54.1" transform="matrix(1.0, 0.0, 0.0, 1.0, -49.9, -54.05)" width="99.8" xlink:href="#decoration275-shape0"/>
  </g>
  <defs>
    <g id="decoration275-shape0" transform="matrix(1.0, 0.0, 0.0, 1.0, 49.9, 54.05)">
      <path d="M41.05 -20.5 Q40.7 -17.7 38.75 -18.05 37.45 -18.15 36.9 -19.85 36.85 -17.75 34.6 -16.9 29.4 -15.7 28.8 -19.0 L24.6 -19.0 24.6 -14.35 29.9 -14.35 Q36.3 -13.2 41.05 -14.2 L41.05 -9.8 16.5 -11.4 15.7 -23.9 41.05 -22.95 41.05 -20.5" fill="url(#decoration275-gradient0)" fill-rule="evenodd" stroke="none"/>
      <path d="M41.05 -14.2 Q36.3 -13.2 29.9 -14.35 L24.6 -14.35 24.6 -19.0 28.8 -19.0 Q29.4 -15.7 34.6 -16.9 36.85 -17.75 36.9 -19.85 37.45 -18.15 38.75 -18.05 40.7 -17.7 41.05 -20.5 L41.05 -14.2" fill="url(#decoration275-gradient1)" fill-rule="evenodd" stroke="none"/>
      <path d="M41.05 -20.5 L41.05 -22.95 15.7 -23.9 16.5 -11.4 41.05 -9.8 41.05 -14.2 41.05 -20.5 Z" fill="none" stroke="#000000" stroke-linecap="round" stroke-linejoin="round" stroke-opacity="0.29803923" stroke-width="0.1"/>
      <path d="M25.2 -12.4 L25.2 -7.0 12.1 -6.8 Q10.85 -10.35 12.1 -13.3 L25.2 -12.4" fill="#6b4f47" fill-rule="evenodd" stroke="none"/>
      <path d="M25.2 -12.4 L30.65 -12.2 30.65 -9.9 44.55 -9.75 44.55 -7.35 25.2 -7.0 25.2 -12.4" fill="url(#decoration275-gradient2)" fill-rule="evenodd" stroke="none"/>
      <path d="M44.55 -9.75 L30.65 -9.9 30.65 -12.2 Q37.7 -12.0 44.55 -12.1 L44.55 -9.75" fill="url(#decoration275-gradient3)" fill-rule="evenodd" stroke="none"/>
      <path d="M30.65 -12.2 L25.2 -12.4 12.1 -13.3 Q10.85 -10.35 12.1 -6.8 L25.2 -7.0 44.55 -7.35 44.55 -9.75 44.55 -12.1 Q37.7 -12.0 30.65 -12.2 Z" fill="none" stroke="#000000" stroke-linecap="round" stroke-linejoin="round" stroke-opacity="0.29803923" stroke-width="0.1"/>
      <path d="M23.0 -8.55 L23.0 0.0 6.05 0.0 6.05 -8.25 23.0 -8.55" fill="#6b4f47" fill-rule="evenodd" stroke="none"/>
      <path d="M23.0 -8.55 L27.85 -8.6 Q27.1 -5.45 27.85 -1.4 38.65 -0.4 49.85 -1.1 L49.85 0.0 23.0 0.0 23.0 -8.55" fill="url(#decoration275-gradient4)" fill-rule="evenodd" stroke="none"/>
      <path d="M49.85 -1.1 Q38.65 -0.4 27.85 -1.4 27.1 -5.45 27.85 -8.6 L49.85 -8.25 49.85 -1.1" fill="url(#decoration275-gradient5)" fill-rule="evenodd" stroke="none"/>
      <path d="M27.85 -8.6 L23.0 -8.55 6.05 -8.25 6.05 0.0 23.0 0.0 49.85 0.0 49.85 -1.1 49.85 -8.25 27.85 -8.6 Z" fill="none" stroke="#000000" stroke-linecap="round" stroke-linejoin="round" stroke-opacity="0.29803923" stroke-width="0.1"/>
      <path d="M15.65 -23.85 Q15.35 -26.9 21.2 -26.85 20.35 -28.5 25.8 -28.05 22.7 -26.3 25.2 -24.6 27.7 -23.55 29.5 -26.4 29.8 -22.85 31.75 -22.15 33.15 -21.5 34.9 -24.55 36.0 -21.7 37.85 -22.15 40.1 -22.55 39.3 -25.8 L41.9 -24.45 Q44.0 -23.05 43.3 -21.65 42.55 -21.15 41.9 -21.0 40.6 -20.75 39.85 -22.05 39.65 -19.6 38.85 -19.3 37.85 -18.85 36.8 -21.0 L36.55 -20.3 Q35.4 -19.0 33.7 -19.1 33.6 -20.15 34.05 -21.55 32.1 -20.3 31.7 -19.55 31.6 -20.95 27.9 -22.15 L24.15 -23.0 Q23.55 -25.35 22.25 -26.0 20.95 -26.6 21.35 -23.75 18.7 -23.5 17.8 -24.65 16.55 -22.4 15.65 -23.85" fill="url(#decoration275-gradient6)" fill-rule="evenodd" stroke="none"/>
      <path d="M32.6 -28.35 L38.0 -26.3 Q39.05 -24.6 37.2 -24.05 35.25 -24.0 34.55 -25.95 33.1 -24.2 31.65 -24.9 30.45 -26.0 32.6 -28.35" fill="#c2c861" fill-rule="evenodd" stroke="none"/>
      <path d="M39.3 -25.8 Q40.1 -22.55 37.85 -22.15 36.0 -21.7 34.9 -24.55 33.15 -21.5 31.75 -22.15 29.8 -22.85 29.5 -26.4 27.7 -23.55 25.2 -24.6 22.7 -26.3 25.8 -28.05 26.1 -31.25 32.6 -28.35 30.45 -26.0 31.65 -24.9 33.1 -24.2 34.55 -25.95 35.25 -24.0 37.2 -24.05 39.05 -24.6 38.0 -26.3 L39.3 -25.8" fill="url(#decoration275-gradient7)" fill-rule="evenodd" stroke="none"/>
      <path d="M15.65 -23.85 Q16.55 -22.4 17.8 -24.65 18.7 -23.5 21.35 -23.75 20.95 -26.6 22.25 -26.0 23.55 -25.35 24.15 -23.0 L27.9 -22.15 Q31.6 -20.95 31.7 -19.55 32.1 -20.3 34.05 -21.55 33.6 -20.15 33.7 -19.1 35.4 -19.0 36.55 -20.3 34.7 -16.05 31.15 -18.35 27.35 -20.9 23.5 -21.3 L22.5 -21.0 Q19.35 -21.05 18.5 -22.6 19.4 -20.1 14.5 -21.3 13.1 -22.1 15.65 -23.85" fill="url(#decoration275-gradient8)" fill-rule="evenodd" stroke="none"/>
      <path d="M25.8 -28.05 Q20.35 -28.5 21.2 -26.85 15.35 -26.9 15.65 -23.85 13.1 -22.1 14.5 -21.3 19.4 -20.1 18.5 -22.6 19.35 -21.05 22.5 -21.0 L23.5 -21.3 Q27.35 -20.9 31.15 -18.35 34.7 -16.05 36.55 -20.3 L36.8 -21.0 Q37.85 -18.85 38.85 -19.3 39.65 -19.6 39.85 -22.05 40.6 -20.75 41.9 -21.0 42.55 -21.15 43.3 -21.65 44.0 -23.05 41.9 -24.45 L39.3 -25.8 38.0 -26.3 32.6 -28.35 Q26.1 -31.25 25.8 -28.05 Z" fill="none" stroke="#000000" stroke-linecap="round" stroke-linejoin="round" stroke-opacity="0.29803923" stroke-width="0.1"/>
      <path d="M14.8 -45.2 Q18.55 -43.7 20.1 -39.25 22.3 -33.6 21.75 -28.3 L18.4 -26.4 Q16.05 -37.95 10.7 -34.6 2.2 -34.35 14.8 -45.2" fill="url(#decoration275-gradient9)" fill-rule="evenodd" stroke="none"/>
      <path d="M10.1 -30.5 Q4.5 -38.85 -6.9 -40.8 7.75 -48.05 14.8 -45.2 2.2 -34.35 10.7 -34.6 16.05 -37.95 18.4 -26.4 L-21.8 -3.6 Q-27.25 -0.4 -31.2 -0.05 -33.55 -0.7 -33.0 -2.85 L-33.05 -3.0 -33.1 -3.1 Q-32.2 -5.85 -29.55 -7.4 L10.1 -30.5" fill="url(#decoration275-gradient10)" fill-rule="evenodd" stroke="none"/>
      <path d="M10.1 -30.5 Q7.5 -32.9 1.35 -32.1 -14.4 -20.55 -28.45 -15.0 -29.0 -13.3 -31.0 -12.4 -35.45 -9.25 -33.1 -3.1 -34.75 -7.05 -38.0 -4.05 -39.35 -3.6 -40.7 -5.45 -42.6 -9.25 -43.4 -15.55 L-42.9 -16.35 Q-40.5 -20.15 -24.7 -30.2 -11.95 -38.3 -6.9 -40.8 4.5 -38.85 10.1 -30.5 M-8.75 -32.0 Q-9.6 -34.05 -11.75 -34.3 -13.95 -34.55 -15.25 -29.45 -16.6 -24.35 -20.25 -22.25 -23.5 -21.05 -25.3 -22.25 -28.4 -23.45 -31.6 -17.2 -28.85 -17.75 -27.95 -16.8 -15.7 -23.05 -5.05 -30.05 -8.4 -30.0 -8.75 -32.0" fill="url(#decoration275-gradient11)" fill-rule="evenodd" stroke="none"/>
      <path d="M1.35 -32.1 Q7.5 -32.9 10.1 -30.5 L-29.55 -7.4 Q-32.2 -5.85 -33.1 -3.1 -35.45 -9.25 -31.0 -12.4 -29.0 -13.3 -28.45 -15.0 -14.4 -20.55 1.35 -32.1 M-8.75 -32.0 Q-8.4 -30.0 -5.05 -30.05 -15.7 -23.05 -27.95 -16.8 -28.85 -17.75 -31.6 -17.2 -28.4 -23.45 -25.3 -22.25 -23.5 -21.05 -20.25 -22.25 -16.6 -24.35 -15.25 -29.45 -13.95 -34.55 -11.75 -34.3 -9.6 -34.05 -8.75 -32.0" fill="url(#decoration275-gradient12)" fill-rule="evenodd" stroke="none"/>
      <path d="M-43.4 -15.55 Q-42.6 -9.25 -40.7 -5.45 -39.35 -3.6 -38.0 -4.05 -34.75 -7.05 -33.1 -3.1 L-33.05 -3.0 -33.0 -2.85 Q-33.55 -0.7 -31.2 -0.05 -34.4 0.25 -36.6 -1.35 -41.75 0.95 -43.95 -5.1 L-44.4 -6.0 Q-46.45 -10.55 -43.4 -15.55" fill="url(#decoration275-gradient13)" fill-rule="evenodd" stroke="none"/>
      <path d="M-6.9 -40.8 Q-11.95 -38.3 -24.7 -30.2 -40.5 -20.15 -42.9 -16.35 L-43.4 -15.55 Q-42.6 -9.25 -40.7 -5.45 -39.35 -3.6 -38.0 -4.05 -34.75 -7.05 -33.1 -3.1 L-33.05 -3.0 -33.0 -2.85 Q-33.55 -0.7 -31.2 -0.05 -34.4 0.25 -36.6 -1.35 -41.75 0.95 -43.95 -5.1 L-44.4 -6.0 Q-46.45 -10.55 -43.4 -15.55 M18.4 -26.4 L21.75 -28.3 Q22.3 -33.6 20.1 -39.25 18.55 -43.7 14.8 -45.2 7.75 -48.05 -6.9 -40.8 M18.4 -26.4 L-21.8 -3.6 Q-27.25 -0.4 -31.2 -0.05" fill="none" stroke="#000000" stroke-linecap="round" stroke-linejoin="round" stroke-opacity="0.29803923" stroke-width="0.1"/>
      <path d="M-28.45 -15.0 Q-14.4 -20.55 1.35 -32.1 M-29.55 -7.4 L10.1 -30.5" fill="none" stroke="#000000" stroke-linecap="round" stroke-linejoin="round" stroke-opacity="0.29803923" stroke-width="0.8"/>
      <path d="M-38.65 -22.85 L-32.75 -26.1 Q-34.1 -28.8 -30.85 -29.35 -24.75 -30.4 -21.05 -35.6 -23.7 -35.15 -21.8 -37.05 -20.75 -38.3 -17.9 -38.55 -19.3 -41.35 -16.65 -42.55 -14.0 -43.25 -12.95 -41.7 -7.7 -47.2 6.5 -52.25 11.35 -54.1 17.0 -54.0 L21.65 -53.5 Q26.5 -52.0 28.65 -48.25 L28.75 -47.8 Q29.5 -44.6 27.15 -42.05 L28.6 -40.7 Q27.75 -38.4 25.4 -38.2 23.8 -37.8 22.8 -39.95 22.0 -37.9 19.95 -38.0 17.8 -38.7 16.6 -41.7 16.65 -38.7 14.1 -38.8 L14.1 -42.0 12.0 -39.25 Q10.1 -36.75 9.4 -36.7 7.9 -36.75 8.7 -40.15 6.15 -38.15 5.45 -38.95 L5.45 -42.0 3.15 -38.55 Q1.85 -35.6 -0.8 -35.45 -3.7 -34.9 -4.85 -38.85 -4.8 -41.25 -4.25 -42.5 -7.35 -41.7 -7.5 -39.35 -7.85 -39.75 -8.45 -39.65 -8.2 -42.25 -9.5 -42.45 -11.45 -41.8 -11.1 -39.2 -10.8 -36.55 -12.3 -35.9 L-18.9 -35.6 Q-14.8 -31.85 -18.9 -28.95 -21.95 -27.45 -23.65 -30.4 -24.2 -25.95 -26.75 -24.9 -28.35 -24.05 -30.55 -22.0 L-32.55 -20.05 Q-35.9 -16.75 -38.65 -18.35 -41.15 -19.2 -38.65 -22.85" fill="url(#decoration275-gradient14)" fill-rule="evenodd" stroke="none"/>
      <path d="M-38.65 -22.85 Q-41.15 -19.2 -38.65 -18.35 -35.9 -16.75 -32.55 -20.05 L-30.55 -22.0 Q-28.35 -24.05 -26.75 -24.9 -24.2 -25.95 -23.65 -30.4 -21.95 -27.45 -18.9 -28.95 -14.8 -31.85 -18.9 -35.6 L-12.3 -35.9 Q-10.8 -36.55 -11.1 -39.2 -11.45 -41.8 -9.5 -42.45 -8.2 -42.25 -8.45 -39.65 -10.2 -39.55 -9.8 -38.15 -9.5 -34.8 -12.0 -34.4 -15.6 -33.45 -15.4 -29.1 -17.75 -22.2 -23.25 -25.0 -28.25 -22.0 -31.55 -18.25 -34.05 -14.25 -37.85 -16.1 -39.65 -16.9 -40.55 -17.1 -41.45 -17.3 -41.5 -16.8 -41.6 -16.35 -41.1 -15.85 -38.35 -12.85 -39.55 -10.75 -41.3 -9.8 -42.25 -11.95 -41.55 -9.8 -42.9 -9.3 -43.8 -8.8 -44.75 -10.8 L-46.45 -16.55 Q-43.65 -19.8 -38.65 -22.85 M-7.5 -39.35 Q-7.35 -41.7 -4.25 -42.5 -4.8 -41.25 -4.85 -38.85 -3.7 -34.9 -0.8 -35.45 1.85 -35.6 3.15 -38.55 L5.45 -42.0 5.45 -38.95 Q6.15 -38.15 8.7 -40.15 7.9 -36.75 9.4 -36.7 10.1 -36.75 12.0 -39.25 L14.1 -42.0 14.1 -38.8 Q16.65 -38.7 16.6 -41.7 17.8 -38.7 19.95 -38.0 22.0 -37.9 22.8 -39.95 23.8 -37.8 25.4 -38.2 27.75 -38.4 28.6 -40.7 30.2 -38.65 27.15 -37.1 25.6 -36.6 24.8 -35.85 20.9 -33.85 18.15 -36.15 17.9 -37.3 15.35 -37.35 12.75 -37.55 12.7 -35.4 11.5 -31.75 9.0 -34.35 6.05 -29.45 6.3 -36.85 4.25 -28.5 0.35 -29.65 -4.8 -31.95 -6.95 -37.9 -7.1 -38.9 -7.5 -39.35" fill="url(#decoration275-gradient15)" fill-rule="evenodd" stroke="none"/>
      <path d="M24.8 -35.85 Q23.1 -34.3 24.6 -31.85 23.6 -31.0 22.3 -32.55 21.1 -32.65 21.0 -31.85 19.45 -30.75 18.15 -36.15 20.9 -33.85 24.8 -35.85 M-31.55 -18.25 Q-30.0 -14.75 -37.05 -12.95 -33.95 -1.7 -43.65 -3.7 -53.25 -5.7 -47.95 -14.55 L-46.45 -16.55 -44.75 -10.8 Q-43.8 -8.8 -42.9 -9.3 -41.55 -9.8 -42.25 -11.95 -41.3 -9.8 -39.55 -10.75 -38.35 -12.85 -41.1 -15.85 -41.6 -16.35 -41.5 -16.8 -41.45 -17.3 -40.55 -17.1 -39.65 -16.9 -37.85 -16.1 -34.05 -14.25 -31.55 -18.25" fill="url(#decoration275-gradient16)" fill-rule="evenodd" stroke="none"/>
      <path d="M28.6 -40.7 L27.15 -42.05 Q29.5 -44.6 28.75 -47.8 L28.65 -48.25 Q26.5 -52.0 21.65 -53.5 L17.0 -54.0 Q11.35 -54.1 6.5 -52.25 -7.7 -47.2 -12.95 -41.7 -14.0 -43.25 -16.65 -42.55 -19.3 -41.35 -17.9 -38.55 -20.75 -38.3 -21.8 -37.05 -23.7 -35.15 -21.05 -35.6 -24.75 -30.4 -30.85 -29.35 -34.1 -28.8 -32.75 -26.1 L-38.65 -22.85 Q-43.65 -19.8 -46.45 -16.55 L-47.95 -14.55 Q-53.25 -5.7 -43.65 -3.7 -33.95 -1.7 -37.05 -12.95 -30.0 -14.75 -31.55 -18.25 -28.25 -22.0 -23.25 -25.0 -17.75 -22.2 -15.4 -29.1 -15.6 -33.45 -12.0 -34.4 -9.5 -34.8 -9.8 -38.15 -10.2 -39.55 -8.45 -39.65 -7.85 -39.75 -7.5 -39.35 -7.1 -38.9 -6.95 -37.9 -4.8 -31.95 0.35 -29.65 4.25 -28.5 6.3 -36.85 6.05 -29.45 9.0 -34.35 11.5 -31.75 12.7 -35.4 12.75 -37.55 15.35 -37.35 17.9 -37.3 18.15 -36.15 19.45 -30.75 21.0 -31.85 21.1 -32.65 22.3 -32.55 23.6 -31.0 24.6 -31.85 23.1 -34.3 24.8 -35.85 25.6 -36.6 27.15 -37.1 30.2 -38.65 28.6 -40.7 Z" fill="none" stroke="#000000" stroke-linecap="round" stroke-linejoin="round" stroke-opacity="0.29803923" stroke-width="0.1"/>
      <path d="M25.3 -45.35 Q24.2 -44.75 22.5 -46.1 21.7 -44.9 20.15 -44.65 17.9 -44.75 17.75 -48.2 17.6 -52.25 21.75 -52.4 24.75 -52.15 25.3 -48.8 27.35 -46.05 25.3 -45.35 M15.9 -42.8 Q15.95 -41.15 14.45 -41.0 12.85 -41.3 12.65 -42.8 12.8 -44.5 14.85 -44.65 16.15 -44.3 15.9 -42.8 M1.8 -45.2 Q2.55 -47.65 5.25 -47.95 7.55 -47.1 6.6 -44.15 6.3 -41.7 3.65 -41.3 1.3 -42.2 1.8 -45.2" fill="#c2c861" fill-rule="evenodd" stroke="none"/>
    </g>
    <linearGradient gradientTransform="matrix(0.0155, 0.0, 0.0, 0.0086, 28.35, -16.85)" gradientUnits="userSpaceOnUse" id="decoration275-gradient0" spreadMethod="pad" x1="-819.2" x2="819.2">
      <stop offset="0.0" stop-color="#6b4f47"/>
      <stop offset="1.0" stop-color="#8c755e"/>
    </linearGradient>
    <linearGradient gradientTransform="matrix(0.0074, 0.0, 0.0, 0.0041, 34.25, -16.85)" gradientUnits="userSpaceOnUse" id="decoration275-gradient1" spreadMethod="pad" x1="-819.2" x2="819.2">
      <stop offset="0.0" stop-color="#b2aea5"/>
      <stop offset="0.396078431372549" stop-color="#cfc6a1"/>
      <stop offset="0.615686274509804" stop-color="#cfc6a1"/>
      <stop offset="1.0" stop-color="#b7b3a9"/>
    </linearGradient>
    <linearGradient gradientTransform="matrix(0.0118, 0.0, 0.0, 0.0033, 34.85, -9.7)" gradientUnits="userSpaceOnUse" id="decoration275-gradient2" spreadMethod="pad" x1="-819.2" x2="819.2">
      <stop offset="0.0" stop-color="#837068"/>
      <stop offset="0.39215686274509803" stop-color="#b3a78f"/>
      <stop offset="0.6" stop-color="#b3a78f"/>
      <stop offset="1.0" stop-color="#8f7d70"/>
    </linearGradient>
    <linearGradient gradientTransform="matrix(0.0085, 0.0, 0.0, 0.0015, 37.6, -11.0)" gradientUnits="userSpaceOnUse" id="decoration275-gradient3" spreadMethod="pad" x1="-819.2" x2="819.2">
      <stop offset="0.0" stop-color="#b2aea5"/>
      <stop offset="0.396078431372549" stop-color="#cfc6a1"/>
      <stop offset="0.615686274509804" stop-color="#cfc6a1"/>
      <stop offset="1.0" stop-color="#b7b3a9"/>
    </linearGradient>
    <linearGradient gradientTransform="matrix(0.0164, 0.0, 0.0, 0.0052, 36.4, -4.3)" gradientUnits="userSpaceOnUse" id="decoration275-gradient4" spreadMethod="pad" x1="-819.2" x2="819.2">
      <stop offset="0.0" stop-color="#837068"/>
      <stop offset="0.39215686274509803" stop-color="#b3a78f"/>
      <stop offset="0.6" stop-color="#b3a78f"/>
      <stop offset="1.0" stop-color="#8f7d70"/>
    </linearGradient>
    <linearGradient gradientTransform="matrix(0.0118, 0.0, 0.0, 0.0048, 38.65, -4.7)" gradientUnits="userSpaceOnUse" id="decoration275-gradient5" spreadMethod="pad" x1="-819.2" x2="819.2">
      <stop offset="0.0" stop-color="#b2aea5"/>
      <stop offset="0.396078431372549" stop-color="#cfc6a1"/>
      <stop offset="0.615686274509804" stop-color="#cfc6a1"/>
      <stop offset="1.0" stop-color="#b7b3a9"/>
    </linearGradient>
    <linearGradient gradientTransform="matrix(0.0139, 0.0, 0.0, 0.0055, 29.55, -23.65)" gradientUnits="userSpaceOnUse" id="decoration275-gradient6" spreadMethod="pad" x1="-819.2" x2="819.2">
      <stop offset="0.0" stop-color="#6d692d"/>
      <stop offset="1.0" stop-color="#878b40"/>
    </linearGradient>
    <linearGradient gradientTransform="matrix(0.0059, 0.0, 0.0, 0.0047, 31.8, -25.9)" gradientUnits="userSpaceOnUse" id="decoration275-gradient7" spreadMethod="pad" x1="-819.2" x2="819.2">
      <stop offset="0.0" stop-color="#9fab51"/>
      <stop offset="1.0" stop-color="#b3ba4b"/>
    </linearGradient>
    <linearGradient gradientTransform="matrix(0.0138, 0.0, 0.0, 0.0052, 25.25, -21.85)" gradientUnits="userSpaceOnUse" id="decoration275-gradient8" spreadMethod="pad" x1="-819.2" x2="819.2">
      <stop offset="0.0" stop-color="#54471c"/>
      <stop offset="1.0" stop-color="#5c4f21"/>
    </linearGradient>
    <linearGradient gradientTransform="matrix(-0.0044, -0.0077, 0.0099, -0.0057, 14.5, -35.85)" gradientUnits="userSpaceOnUse" id="decoration275-gradient9" spreadMethod="pad" x1="-819.2" x2="819.2">
      <stop offset="0.0" stop-color="#7a6256"/>
      <stop offset="1.0" stop-color="#645535"/>
    </linearGradient>
    <radialGradient cx="0" cy="0" gradientTransform="matrix(0.0429, 0.0, 0.0, 0.0429, -12.5, -23.05)" gradientUnits="userSpaceOnUse" id="decoration275-gradient10" r="819.2" spreadMethod="pad">
      <stop offset="0.0" stop-color="#6e5449"/>
      <stop offset="1.0" stop-color="#8d7664"/>
      <stop offset="1.0" stop-color="#6d6049"/>
    </radialGradient>
    <radialGradient cx="0" cy="0" gradientTransform="matrix(0.0429, 0.0, 0.0, 0.0429, -12.5, -23.05)" gradientUnits="userSpaceOnUse" id="decoration275-gradient11" r="819.2" spreadMethod="pad">
      <stop offset="0.0" stop-color="#807266"/>
      <stop offset="1.0" stop-color="#847569"/>
      <stop offset="1.0" stop-color="#6d6049"/>
    </radialGradient>
    <linearGradient gradientTransform="matrix(0.0269, 0.0, 0.0, 0.0178, -11.9, -17.7)" gradientUnits="userSpaceOnUse" id="decoration275-gradient12" spreadMethod="pad" x1="-819.2" x2="819.2">
      <stop offset="0.0" stop-color="#a49b8b"/>
      <stop offset="0.41568627450980394" stop-color="#cfc6a1"/>
      <stop offset="0.5764705882352941" stop-color="#cfc6a1"/>
      <stop offset="0.8666666666666667" stop-color="#c8c1b4"/>
      <stop offset="1.0" stop-color="#c8c1b4"/>
    </linearGradient>
    <linearGradient gradientTransform="matrix(0.0085, 0.0, 0.0, 0.0095, -38.2, -7.8)" gradientUnits="userSpaceOnUse" id="decoration275-gradient13" spreadMethod="pad" x1="-819.2" x2="819.2">
      <stop offset="0.0" stop-color="#655042"/>
      <stop offset="1.0" stop-color="#543f37"/>
    </linearGradient>
    <linearGradient gradientTransform="matrix(0.0184, -0.0049, 0.0057, 0.0213, 6.4, -44.2)" gradientUnits="userSpaceOnUse" id="decoration275-gradient14" spreadMethod="pad" x1="-819.2" x2="819.2">
      <stop offset="0.0" stop-color="#9fab51"/>
      <stop offset="1.0" stop-color="#b3ba4b"/>
    </linearGradient>
    <linearGradient gradientTransform="matrix(1.0, 0.0, 0.0, 1.0, -394.55, -269.85)" gradientUnits="userSpaceOnUse" id="decoration275-gradient15" spreadMethod="pad" x1="-819.2" x2="819.2">
      <stop offset="0.0" stop-color="#6d692d"/>
      <stop offset="1.0" stop-color="#878b40"/>
    </linearGradient>
    <linearGradient gradientTransform="matrix(0.0114, 0.0, 0.0, 0.0091, -40.55, -10.85)" gradientUnits="userSpaceOnUse" id="decoration275-gradient16" spreadMethod="pad" x1="-819.2" x2="819.2">
      <stop offset="0.0" stop-color="#54471c"/>
      <stop offset="1.0" stop-color="#5c4f21"/>
    </linearGradient>
  </defs>
</svg>
