<?xml version="1.0" encoding="UTF-8" standalone="no"?>
<svg xmlns:xlink="http://www.w3.org/1999/xlink" height="52.15px" width="23.0px" xmlns="http://www.w3.org/2000/svg">
  <g transform="matrix(1.0, 0.0, 0.0, 1.0, 11.25, 51.95)">
    <use data-characterId="17" height="52.15" transform="matrix(1.0, 0.0, 0.0, 1.0, -11.25, -51.95)" width="23.0" xlink:href="#decoration277-shape0"/>
  </g>
  <defs>
    <g id="decoration277-shape0" transform="matrix(1.0, 0.0, 0.0, 1.0, 11.25, 51.95)">
      <path d="M1.45 -35.45 L4.75 -35.3 4.35 -34.95 1.05 -35.15 1.45 -35.45 1.05 -35.15 -1.7 -35.4 -1.5 -35.6 1.45 -35.45" fill="#423a24" fill-rule="evenodd" stroke="none"/>
      <path d="M2.9 -34.35 L2.6 -34.6 1.95 -34.7 1.2 -34.6 Q0.75 -34.5 0.65 -34.25 0.6 -34.0 1.05 -33.8 L1.95 -33.75 2.65 -34.0 2.9 -34.35 M1.05 -35.15 L4.35 -34.95 Q3.3 -34.1 2.35 -33.7 L1.2 -33.45 Q-0.5 -33.7 0.3 -34.5 L1.05 -35.15 M4.2 -2.55 Q5.65 -2.55 7.05 -1.4 9.45 -1.25 11.75 0.2 L9.05 0.15 Q9.3 -0.5 6.35 -0.85 1.2 -1.2 -8.7 -1.1 L-6.65 -1.4 -6.25 -1.8 Q3.5 -1.65 3.95 -1.8 5.15 -2.05 4.2 -2.55 M7.05 -1.4 L6.45 -1.4 -6.65 -1.4 6.45 -1.4 7.05 -1.4" fill="#8c6a21" fill-rule="evenodd" stroke="none"/>
      <path d="M2.9 -34.35 L2.65 -34.0 1.95 -33.75 1.05 -33.8 Q0.6 -34.0 0.65 -34.25 0.75 -34.5 1.2 -34.6 L1.95 -34.7 2.6 -34.6 2.9 -34.35 M-0.35 -33.65 L-1.2 -33.75 Q-1.7 -34.0 -1.65 -34.35 L-1.1 -35.0 -0.2 -34.85 -0.7 -34.2 Q-0.85 -33.95 -0.35 -33.65" fill="#4c4223" fill-rule="evenodd" stroke="none"/>
      <path d="M-1.8 -33.8 Q-2.95 -34.1 -1.7 -35.4 L1.05 -35.15 0.3 -34.5 Q-0.5 -33.7 1.2 -33.45 L0.6 -33.55 -0.35 -33.65 Q-0.85 -33.95 -0.7 -34.2 L-0.2 -34.85 -1.1 -35.0 -1.65 -34.35 Q-1.7 -34.0 -1.2 -33.75 L-1.5 -33.75 -1.8 -33.8" fill="#c7a353" fill-rule="evenodd" stroke="none"/>
      <path d="M2.35 -33.7 L2.3 -32.95 1.75 -32.95 -1.35 -32.95 -1.85 -32.95 -1.8 -33.8 -1.5 -33.75 -1.2 -33.75 -0.35 -33.65 0.6 -33.55 1.2 -33.45 2.35 -33.7" fill="url(#decoration277-gradient0)" fill-rule="evenodd" stroke="none"/>
      <path d="M1.75 -2.55 L4.2 -2.55 Q5.15 -2.05 3.95 -1.8 3.5 -1.65 -6.25 -1.8 -5.35 -2.55 -4.05 -2.55 L-1.35 -2.55 1.75 -2.55 M9.05 0.15 L-11.25 0.1 Q-10.2 -0.8 -8.7 -1.1 1.2 -1.2 6.35 -0.85 9.3 -0.5 9.05 0.15" fill="#b0914d" fill-rule="evenodd" stroke="none"/>
      <path d="M1.75 -32.95 L1.75 -2.55 -1.35 -2.55 -1.35 -32.95 1.75 -32.95" fill="url(#decoration277-gradient1)" fill-rule="evenodd" stroke="none"/>
      <path d="M2.9 -34.35 L2.65 -34.0 1.95 -33.75 1.05 -33.8 Q0.6 -34.0 0.65 -34.25 0.75 -34.5 1.2 -34.6 L1.95 -34.7 2.6 -34.6 2.9 -34.35 M4.35 -34.95 L4.75 -35.3 1.45 -35.45 1.05 -35.15 4.35 -34.95 Q3.3 -34.1 2.35 -33.7 L2.3 -32.95 1.75 -32.95 1.75 -2.55 4.2 -2.55 Q5.65 -2.55 7.05 -1.4 9.45 -1.25 11.75 0.2 L9.05 0.15 -11.25 0.1 Q-10.2 -0.8 -8.7 -1.1 L-6.65 -1.4 -6.25 -1.8 Q-5.35 -2.55 -4.05 -2.55 L-1.35 -2.55 -1.35 -32.95 -1.85 -32.95 -1.8 -33.8 Q-2.95 -34.1 -1.7 -35.4 L-1.5 -35.6 1.45 -35.45 M1.2 -33.45 Q-0.5 -33.7 0.3 -34.5 L1.05 -35.15 -1.7 -35.4 M2.35 -33.7 L1.2 -33.45 0.6 -33.55 -0.35 -33.65 -1.2 -33.75 -1.5 -33.75 -1.8 -33.8 M-6.65 -1.4 L6.45 -1.4 7.05 -1.4 M-1.2 -33.75 Q-1.7 -34.0 -1.65 -34.35 L-1.1 -35.0 -0.2 -34.85 -0.7 -34.2 Q-0.85 -33.95 -0.35 -33.65 M1.75 -2.55 L-1.35 -2.55 M-1.35 -32.95 L1.75 -32.95" fill="none" stroke="#000000" stroke-linecap="round" stroke-linejoin="round" stroke-opacity="0.3019608" stroke-width="0.05"/>
      <path d="M3.45 -50.8 Q2.85 -50.5 2.6 -50.1 2.3 -49.8 1.85 -50.2 1.7 -51.2 3.15 -51.4 4.6 -51.65 5.15 -50.9 L3.45 -50.8 M0.7 -51.35 L0.15 -50.75 -0.1 -50.35 Q-0.25 -50.2 -0.4 -50.35 -0.25 -51.2 0.45 -51.4 1.2 -51.65 0.7 -51.35 M1.45 -51.5 L2.4 -51.6 1.3 -50.75 0.85 -50.25 Q0.7 -50.1 0.55 -50.35 0.7 -51.2 1.45 -51.5 M-1.95 -49.2 L-1.3 -49.2 -1.45 -48.75 -2.1 -48.75 -1.95 -49.2 M-2.15 -48.5 L-1.55 -48.5 -1.8 -47.6 -2.45 -47.6 -2.3 -48.05 -2.15 -48.5 M-2.55 -47.35 L-1.85 -47.4 -2.15 -46.35 -2.85 -46.25 -2.8 -46.5 -2.6 -46.95 -2.55 -47.35 M-3.0 -45.8 L-2.3 -45.95 -2.55 -45.2 -3.15 -45.2 -3.15 -45.35 -3.0 -45.8 M-3.3 -44.75 L-2.6 -44.75 -2.85 -44.05 -3.55 -43.95 -3.45 -44.25 -3.3 -44.75 M-4.0 -42.4 L-3.3 -42.4 -3.55 -41.65 -4.25 -41.75 -4.15 -41.95 -4.0 -42.4 M-4.4 -41.25 L-3.8 -41.1 -3.95 -40.5 -4.6 -40.5 -4.55 -40.8 -4.4 -41.25 M-3.4 -40.4 L-3.15 -41.1 Q0.15 -40.8 2.0 -40.05 3.45 -39.5 3.15 -38.95 L3.0 -38.9 0.3 -39.8 -0.1 -39.9 -1.1 -40.1 -1.4 -40.1 -3.4 -40.4 M8.75 -42.8 L6.7 -43.9 Q6.4 -44.05 6.45 -44.4 6.55 -44.8 7.45 -44.4 L9.0 -43.65 8.9 -43.25 8.75 -42.8 M9.05 -43.95 L7.0 -45.05 Q6.7 -45.25 6.75 -45.6 6.85 -45.95 7.75 -45.6 L9.4 -44.8 9.2 -44.4 9.05 -43.95 M9.6 -45.6 L7.6 -46.5 Q7.2 -46.6 7.15 -47.05 7.3 -47.6 8.75 -46.9 L10.05 -46.2 10.0 -45.25 9.6 -45.6 M8.45 -41.75 Q7.2 -42.25 6.4 -42.8 6.05 -42.95 6.15 -43.35 6.15 -43.75 7.15 -43.35 L8.75 -42.6 8.55 -42.1 8.45 -41.75 M4.6 -43.8 Q4.3 -43.6 3.85 -43.8 1.05 -45.1 -1.95 -45.2 L-1.7 -46.05 Q1.6 -45.65 3.45 -44.9 4.9 -44.35 4.6 -43.8 M5.0 -45.05 Q4.6 -44.75 4.2 -45.05 1.45 -46.25 -1.55 -46.4 L-1.3 -47.2 Q1.9 -46.9 3.75 -46.05 5.3 -45.5 5.0 -45.05 M2.85 -40.2 Q0.0 -41.4 -3.0 -41.6 L-2.8 -42.35 Q0.55 -42.05 2.4 -41.2 3.85 -40.75 3.55 -40.2 3.2 -39.95 2.85 -40.2 M3.2 -41.35 Q0.4 -42.65 -2.7 -42.75 L-2.45 -43.6 Q0.9 -43.2 2.75 -42.4 4.2 -41.9 3.9 -41.35 3.6 -41.1 3.2 -41.35 M3.55 -42.65 Q0.7 -43.9 -2.3 -43.95 L-2.1 -44.8 3.05 -43.65 Q4.6 -43.1 4.3 -42.65 3.9 -42.35 3.55 -42.65 M8.15 -40.65 L8.15 -40.6 Q6.75 -41.2 6.0 -41.75 5.7 -41.9 5.7 -42.2 5.75 -42.65 6.75 -42.2 L8.4 -41.4 8.2 -41.05 8.15 -40.65 M7.15 -37.1 L7.05 -36.9 6.7 -37.2 5.3 -38.05 Q4.7 -38.35 4.75 -38.75 4.85 -39.1 5.85 -38.75 L7.4 -37.95 7.3 -37.6 7.15 -37.1 M7.75 -39.4 L5.75 -40.5 Q5.4 -40.75 5.45 -41.05 5.55 -41.4 6.55 -41.05 L8.05 -40.25 7.9 -39.9 7.75 -39.4 M7.45 -38.25 L5.4 -39.35 Q5.05 -39.6 5.15 -39.9 5.2 -40.25 6.15 -39.9 L7.75 -39.1 7.6 -38.75 7.45 -38.25 M5.7 -47.35 Q5.4 -47.1 5.0 -47.35 2.15 -48.65 -0.85 -48.75 L-0.6 -49.6 Q2.7 -49.2 4.55 -48.4 6.0 -47.9 5.7 -47.35 M5.3 -46.2 Q5.0 -45.95 4.6 -46.2 1.75 -47.4 -1.25 -47.6 L-1.0 -48.35 Q2.3 -48.05 4.15 -47.2 5.7 -46.65 5.3 -46.2 M1.4 -35.65 Q1.15 -35.35 -0.15 -36.1 -1.95 -37.1 -1.55 -39.05 -0.85 -39.25 -0.85 -38.5 -0.8 -37.05 0.75 -36.1 L1.4 -35.65 M-1.3 -50.2 Q-1.4 -50.8 -0.7 -51.05 0.0 -51.35 -0.4 -50.95 L-0.95 -50.4 Q-0.95 -50.2 -1.1 -50.1 L-1.3 -50.2 M-4.4 -37.6 Q-5.1 -38.35 -4.95 -39.25 -4.8 -40.5 -4.8 -39.1 -4.85 -38.1 -4.4 -37.6 M-4.1 -38.95 Q-4.0 -37.65 -3.3 -36.75 -4.6 -37.75 -4.4 -39.05 -4.15 -40.35 -4.1 -38.95 M-3.15 -38.35 Q-3.0 -36.6 -0.45 -35.35 -0.7 -35.2 -2.45 -36.4 -4.3 -37.65 -3.85 -39.4 -3.3 -40.1 -3.15 -38.35 M-2.15 -38.2 Q-2.15 -36.75 0.4 -35.4 0.4 -35.1 -1.45 -36.25 -3.3 -37.4 -2.95 -39.4 -2.25 -39.65 -2.15 -38.2" fill="#4c4223" fill-rule="evenodd" stroke="none"/>
      <path d="M1.45 -51.5 Q0.7 -51.2 0.55 -50.35 0.7 -50.1 0.85 -50.25 L1.3 -50.75 2.4 -51.6 1.45 -51.5 M0.7 -51.35 Q1.2 -51.65 0.45 -51.4 -0.25 -51.2 -0.4 -50.35 -0.25 -50.2 -0.1 -50.35 L0.15 -50.75 0.7 -51.35 M3.45 -50.8 L5.15 -50.9 Q4.6 -51.65 3.15 -51.4 1.7 -51.2 1.85 -50.2 2.3 -49.8 2.6 -50.1 2.85 -50.5 3.45 -50.8 M-2.55 -49.2 L-1.7 -50.6 Q-1.0 -51.4 0.85 -51.9 4.3 -52.35 7.9 -49.65 9.85 -47.95 10.0 -46.8 L10.05 -46.2 8.75 -46.9 Q7.3 -47.6 7.15 -47.05 7.2 -46.6 7.6 -46.5 L9.6 -45.6 9.45 -45.1 9.4 -44.8 7.75 -45.6 Q6.85 -45.95 6.75 -45.6 6.7 -45.25 7.0 -45.05 L9.05 -43.95 9.0 -43.75 9.0 -43.65 9.0 -43.75 9.55 -43.4 9.45 -42.95 8.9 -43.25 9.0 -43.65 7.45 -44.4 Q6.55 -44.8 6.45 -44.4 6.4 -44.05 6.7 -43.9 L8.75 -42.8 8.75 -42.6 7.15 -43.35 Q6.15 -43.75 6.15 -43.35 6.05 -42.95 6.4 -42.8 7.2 -42.25 8.45 -41.75 L8.45 -41.65 8.4 -41.5 8.85 -41.2 8.75 -40.75 8.2 -41.05 8.4 -41.4 8.4 -41.5 8.4 -41.4 6.75 -42.2 Q5.75 -42.65 5.7 -42.2 5.7 -41.9 6.0 -41.75 6.75 -41.2 8.15 -40.6 L8.05 -40.25 8.55 -40.05 8.45 -39.5 7.9 -39.9 8.05 -40.25 6.55 -41.05 Q5.55 -41.4 5.45 -41.05 5.4 -40.75 5.75 -40.5 L7.75 -39.4 7.75 -39.2 8.15 -38.95 8.05 -38.4 7.6 -38.75 7.75 -39.1 6.15 -39.9 Q5.2 -40.25 5.15 -39.9 5.05 -39.6 5.4 -39.35 L7.45 -38.25 7.4 -38.05 7.85 -37.75 7.75 -37.25 7.3 -37.6 7.4 -37.95 5.85 -38.75 Q4.85 -39.1 4.75 -38.75 4.7 -38.35 5.3 -38.05 L6.7 -37.2 7.05 -36.9 7.4 -36.75 Q6.7 -34.2 2.85 -34.5 -0.95 -34.9 -3.0 -35.95 -5.95 -37.35 -5.15 -40.5 L-5.15 -40.6 -4.6 -40.5 -3.95 -40.5 -3.8 -41.1 -4.4 -41.25 -4.25 -41.75 -4.4 -41.25 -4.95 -41.25 -4.8 -41.75 -4.25 -41.75 -3.55 -41.65 -3.3 -42.4 -4.0 -42.4 -3.95 -42.9 -4.0 -42.4 -4.6 -42.4 -4.4 -42.9 -3.95 -42.9 -3.25 -42.9 -3.0 -43.6 -3.7 -43.5 -3.55 -43.95 -3.7 -43.5 -4.3 -43.6 -4.15 -43.95 Q-4.0 -44.2 -3.55 -43.95 L-2.85 -44.05 -2.6 -44.75 -3.3 -44.75 -3.15 -45.2 -3.3 -44.75 -3.85 -44.75 -3.7 -45.2 -3.15 -45.2 -2.55 -45.2 -2.3 -45.95 -3.0 -45.8 -2.85 -46.25 -3.0 -45.8 -3.55 -45.8 -3.4 -46.25 -2.85 -46.25 -2.15 -46.35 -1.85 -47.4 -2.55 -47.35 -2.45 -47.6 -1.8 -47.6 -1.55 -48.5 -2.15 -48.5 -2.1 -48.75 -1.45 -48.75 -1.3 -49.2 -1.95 -49.2 -2.55 -49.2 M-3.4 -40.4 L-3.85 -40.5 -3.95 -40.5 -3.85 -40.5 -3.4 -40.4 -1.4 -40.1 -1.1 -40.1 -0.1 -39.9 0.3 -39.8 3.0 -38.9 3.15 -38.95 Q3.45 -39.5 2.0 -40.05 0.15 -40.8 -3.15 -41.1 L-3.4 -40.4 M9.4 -44.8 L9.45 -44.8 9.85 -44.6 9.7 -44.1 9.2 -44.4 9.4 -44.8 M3.55 -42.65 Q3.9 -42.35 4.3 -42.65 4.6 -43.1 3.05 -43.65 L-2.1 -44.8 -2.3 -43.95 Q0.7 -43.9 3.55 -42.65 M3.2 -41.35 Q3.6 -41.1 3.9 -41.35 4.2 -41.9 2.75 -42.4 0.9 -43.2 -2.45 -43.6 L-2.7 -42.75 Q0.4 -42.65 3.2 -41.35 M2.85 -40.2 Q3.2 -39.95 3.55 -40.2 3.85 -40.75 2.4 -41.2 0.55 -42.05 -2.8 -42.35 L-3.0 -41.6 Q0.0 -41.4 2.85 -40.2 M5.0 -45.05 Q5.3 -45.5 3.75 -46.05 1.9 -46.9 -1.3 -47.2 L-1.55 -46.4 Q1.45 -46.25 4.2 -45.05 4.6 -44.75 5.0 -45.05 M4.6 -43.8 Q4.9 -44.35 3.45 -44.9 1.6 -45.65 -1.7 -46.05 L-1.95 -45.2 Q1.05 -45.1 3.85 -43.8 4.3 -43.6 4.6 -43.8 M8.75 -42.6 L9.15 -42.25 9.05 -41.8 8.55 -42.1 8.75 -42.6 M-3.25 -46.95 L-3.1 -47.4 -2.55 -47.35 -2.6 -46.95 -3.25 -46.95 M7.75 -39.2 L7.75 -39.1 7.75 -39.2 M7.4 -38.05 L7.4 -37.95 7.4 -38.05 M5.7 -47.35 Q6.0 -47.9 4.55 -48.4 2.7 -49.2 -0.6 -49.6 L-0.85 -48.75 Q2.15 -48.65 5.0 -47.35 5.4 -47.1 5.7 -47.35 M1.4 -35.65 L0.75 -36.1 Q-0.8 -37.05 -0.85 -38.5 -0.85 -39.25 -1.55 -39.05 -1.95 -37.1 -0.15 -36.1 1.15 -35.35 1.4 -35.65 M5.3 -46.2 Q5.7 -46.65 4.15 -47.2 2.3 -48.05 -1.0 -48.35 L-1.25 -47.6 Q1.75 -47.4 4.6 -46.2 5.0 -45.95 5.3 -46.2 M-1.3 -50.2 L-1.1 -50.1 Q-0.95 -50.2 -0.95 -50.4 L-0.4 -50.95 Q0.0 -51.35 -0.7 -51.05 -1.4 -50.8 -1.3 -50.2 M-2.15 -48.5 L-2.3 -48.05 -2.85 -48.05 -2.7 -48.5 -2.15 -48.5 M-2.15 -38.2 Q-2.25 -39.65 -2.95 -39.4 -3.3 -37.4 -1.45 -36.25 0.4 -35.1 0.4 -35.4 -2.15 -36.75 -2.15 -38.2 M-3.15 -38.35 Q-3.3 -40.1 -3.85 -39.4 -4.3 -37.65 -2.45 -36.4 -0.7 -35.2 -0.45 -35.35 -3.0 -36.6 -3.15 -38.35 M-4.1 -38.95 Q-4.15 -40.35 -4.4 -39.05 -4.6 -37.75 -3.3 -36.75 -4.0 -37.65 -4.1 -38.95 M-4.4 -37.6 Q-4.85 -38.1 -4.8 -39.1 -4.8 -40.5 -4.95 -39.25 -5.1 -38.35 -4.4 -37.6" fill="url(#decoration277-gradient2)" fill-rule="evenodd" stroke="none"/>
      <path d="M-2.55 -49.2 L-1.95 -49.2 -2.1 -48.75 -2.55 -49.2 M9.45 -45.1 L9.6 -45.6 10.0 -45.25 9.45 -45.1 M8.75 -42.8 L8.9 -43.25 9.45 -42.95 8.75 -42.8 M9.7 -44.1 L9.05 -43.95 9.2 -44.4 9.7 -44.1 M9.05 -41.8 L8.45 -41.65 8.45 -41.75 8.55 -42.1 9.05 -41.8 M8.75 -40.75 L8.15 -40.65 8.2 -41.05 8.75 -40.75 M8.45 -39.5 L7.75 -39.4 7.9 -39.9 8.45 -39.5 M8.05 -38.4 L7.45 -38.25 7.6 -38.75 8.05 -38.4 M7.75 -37.25 L7.15 -37.1 7.3 -37.6 7.75 -37.25" fill="#413a21" fill-rule="evenodd" stroke="none"/>
      <path d="M-3.7 -43.5 L-3.0 -43.6 -3.25 -42.9 -3.95 -42.9 -3.85 -43.05 -4.3 -43.6 -3.7 -43.5 -3.85 -43.05 -3.7 -43.5 M-4.15 -41.95 L-4.6 -42.4 -4.0 -42.4 -4.15 -41.95 M-3.45 -44.25 L-3.85 -44.75 -3.3 -44.75 -3.45 -44.25 M-3.15 -45.35 L-3.55 -45.8 -3.0 -45.8 -3.15 -45.35 M-2.8 -46.5 L-3.25 -46.95 -2.6 -46.95 -2.8 -46.5 M-2.85 -48.05 L-2.3 -48.05 -2.45 -47.6 -2.85 -48.05" fill="#3e3825" fill-rule="evenodd" stroke="none"/>
      <path d="M-4.55 -40.8 Q-4.95 -41.05 -4.95 -41.25 L-4.4 -41.25 -4.55 -40.8" fill="#423a24" fill-rule="evenodd" stroke="none"/>
      <path d="M10.05 -46.2 L10.0 -46.8 Q9.85 -47.95 7.9 -49.65 4.3 -52.35 0.85 -51.9 -1.0 -51.4 -1.7 -50.6 L-2.55 -49.2 -1.95 -49.2 -2.1 -48.75 -2.15 -48.5 -2.7 -48.5 -2.85 -48.05 -2.3 -48.05 -2.45 -47.6 -2.85 -48.05 M-2.45 -47.6 L-2.55 -47.35 -2.6 -46.95 -2.8 -46.5 -3.25 -46.95 -3.1 -47.4 -2.55 -47.35 M-2.85 -46.25 L-3.0 -45.8 -3.15 -45.35 -3.55 -45.8 -3.4 -46.25 -2.85 -46.25 -2.8 -46.5 M-3.15 -45.2 L-3.3 -44.75 -3.85 -44.75 -3.7 -45.2 -3.15 -45.2 -3.15 -45.35 M-3.55 -43.95 L-3.7 -43.5 -3.85 -43.05 -4.3 -43.6 -4.15 -43.95 Q-4.0 -44.2 -3.55 -43.95 L-3.45 -44.25 -3.85 -44.75 M-3.95 -42.9 L-4.0 -42.4 -4.15 -41.95 -4.6 -42.4 -4.4 -42.9 -3.95 -42.9 -3.85 -43.05 M-4.25 -41.75 L-4.4 -41.25 -4.55 -40.8 Q-4.95 -41.05 -4.95 -41.25 L-4.8 -41.75 -4.25 -41.75 -4.15 -41.95 M-3.95 -40.5 L-3.85 -40.5 -3.4 -40.4 -1.4 -40.1 -1.1 -40.1 -0.1 -39.9 0.3 -39.8 3.0 -38.9 M9.0 -43.65 L9.0 -43.75 9.05 -43.95 9.2 -44.4 9.4 -44.8 9.45 -45.1 9.6 -45.6 10.0 -45.25 9.45 -45.1 M10.05 -46.2 L10.0 -45.25 M8.75 -42.6 L8.75 -42.8 8.9 -43.25 9.0 -43.65 M9.4 -44.8 L9.45 -44.8 9.85 -44.6 9.7 -44.1 9.05 -43.95 M9.0 -43.75 L9.55 -43.4 9.45 -42.95 8.75 -42.8 M9.2 -44.4 L9.7 -44.1 M8.75 -42.6 L9.15 -42.25 9.05 -41.8 8.45 -41.65 8.4 -41.5 8.85 -41.2 8.75 -40.75 8.15 -40.65 8.15 -40.6 8.05 -40.25 8.55 -40.05 8.45 -39.5 7.75 -39.4 7.75 -39.2 8.15 -38.95 8.05 -38.4 7.45 -38.25 7.4 -38.05 7.85 -37.75 7.75 -37.25 7.15 -37.1 7.05 -36.9 7.4 -36.75 Q6.7 -34.2 2.85 -34.5 -0.95 -34.9 -3.0 -35.95 -5.95 -37.35 -5.15 -40.5 L-5.15 -40.6 -4.6 -40.5 -4.55 -40.8 M8.9 -43.25 L9.45 -42.95 M8.75 -42.6 L8.55 -42.1 9.05 -41.8 M8.45 -41.65 L8.45 -41.75 8.55 -42.1 M8.4 -41.4 L8.4 -41.5 M8.2 -41.05 L8.15 -40.65 M8.2 -41.05 L8.75 -40.75 M8.4 -41.4 L8.2 -41.05 M8.05 -40.25 L7.9 -39.9 8.45 -39.5 M7.75 -39.1 L7.75 -39.2 M7.4 -37.95 L7.4 -38.05 M7.3 -37.6 L7.4 -37.95 M7.75 -39.1 L7.6 -38.75 8.05 -38.4 M7.9 -39.9 L7.75 -39.4 M7.3 -37.6 L7.75 -37.25 M7.6 -38.75 L7.45 -38.25 M7.15 -37.1 L7.3 -37.6 M-2.3 -48.05 L-2.15 -48.5 M-3.25 -46.95 L-2.6 -46.95 M-3.55 -45.8 L-3.0 -45.8 M-3.45 -44.25 L-3.3 -44.75 M-4.3 -43.6 L-3.7 -43.5 M-2.55 -49.2 L-2.1 -48.75 M-4.6 -42.4 L-4.0 -42.4 M-4.95 -41.25 L-4.4 -41.25 M-4.6 -40.5 L-3.95 -40.5" fill="none" stroke="#000000" stroke-linecap="round" stroke-linejoin="round" stroke-opacity="0.3019608" stroke-width="0.05"/>
    </g>
    <linearGradient gradientTransform="matrix(0.0044, 0.0, 0.0, 5.0E-4, -1.5, -33.65)" gradientUnits="userSpaceOnUse" id="decoration277-gradient0" spreadMethod="pad" x1="-819.2" x2="819.2">
      <stop offset="0.0" stop-color="#fbca60"/>
      <stop offset="0.19607843137254902" stop-color="#b4944e"/>
      <stop offset="0.4196078431372549" stop-color="#ffcd62"/>
      <stop offset="0.611764705882353" stop-color="#b0914d"/>
      <stop offset="1.0" stop-color="#8c6a21"/>
    </linearGradient>
    <linearGradient gradientTransform="matrix(0.0018, 0.0, 0.0, 0.0185, -0.1, -17.9)" gradientUnits="userSpaceOnUse" id="decoration277-gradient1" spreadMethod="pad" x1="-819.2" x2="819.2">
      <stop offset="0.0" stop-color="#b4944e"/>
      <stop offset="0.29411764705882354" stop-color="#ffcd62"/>
      <stop offset="0.611764705882353" stop-color="#b0914d"/>
      <stop offset="1.0" stop-color="#8c6a21"/>
    </linearGradient>
    <linearGradient gradientTransform="matrix(0.0063, 0.002, -0.0028, 0.0087, 3.05, -45.05)" gradientUnits="userSpaceOnUse" id="decoration277-gradient2" spreadMethod="pad" x1="-819.2" x2="819.2">
      <stop offset="0.0" stop-color="#fbca60"/>
      <stop offset="0.19607843137254902" stop-color="#b4944e"/>
      <stop offset="0.4196078431372549" stop-color="#ffcd62"/>
      <stop offset="0.611764705882353" stop-color="#b0914d"/>
      <stop offset="1.0" stop-color="#8c6a21"/>
    </linearGradient>
  </defs>
</svg>
