<?xml version="1.0" encoding="UTF-8" standalone="no"?>
<svg xmlns:xlink="http://www.w3.org/1999/xlink" height="16.2px" width="57.15px" xmlns="http://www.w3.org/2000/svg">
  <g transform="matrix(1.0, 0.0, 0.0, 1.0, 28.5, 15.95)">
    <use data-characterId="15" height="16.2" transform="matrix(1.0, 0.0, 0.0, 1.0, -28.5, -15.95)" width="57.15" xlink:href="#decoration278-shape0"/>
  </g>
  <defs>
    <g id="decoration278-shape0" transform="matrix(1.0, 0.0, 0.0, 1.0, 28.5, 15.95)">
      <path d="M-26.1 -15.75 L26.85 -15.75 26.85 0.1 -26.1 0.1 -26.1 -15.75" fill="url(#decoration278-gradient0)" fill-rule="evenodd" stroke="none"/>
      <path d="M-26.1 -15.75 L26.85 -15.75 26.85 0.1 -26.1 0.1 -26.1 -15.75 Z" fill="none" stroke="#000000" stroke-linecap="round" stroke-linejoin="round" stroke-opacity="0.14117648" stroke-width="0.30000000000000004"/>
      <path d="M13.05 -1.1 L9.85 -1.85 8.7 -1.95 Q5.35 -2.25 2.15 -1.2 -0.05 -0.45 -2.75 -0.6 L-3.0 -0.6 -6.5 -1.15 Q-8.0 -1.9 -9.35 -2.2 L-9.6 -2.25 -10.0 -2.3 -10.3 -2.3 -12.85 -1.95 -13.35 -1.75 Q-14.5 -0.9 -15.65 -0.75 L-15.75 -0.75 Q-17.35 -0.6 -19.0 -1.7 -20.2 -1.05 -21.55 -0.8 L-23.85 -0.75 Q-25.7 -0.95 -27.8 -1.8 -28.75 -2.95 -28.4 -6.95 L-28.25 -9.3 Q-28.0 -12.0 -26.05 -15.55 L25.65 -14.4 Q26.9 -11.85 27.25 -9.0 L27.35 -6.3 Q27.25 -3.85 26.6 -1.2 25.2 -0.55 23.75 -0.45 L22.15 -0.55 Q20.25 -0.9 18.25 -2.2 17.2 -1.2 14.95 -1.05 L13.05 -1.1" fill="#000000" fill-opacity="0.32941177" fill-rule="evenodd" stroke="none"/>
      <path d="M11.0 -3.25 L9.85 -3.35 Q6.5 -3.65 3.3 -2.6 1.1 -1.85 -1.6 -2.0 L-1.85 -2.0 -3.35 -5.6 -4.2 -8.05 -4.85 -10.35 -4.85 -8.15 -4.9 -7.15 Q-4.95 -4.85 -5.35 -2.55 L-8.2 -3.6 -8.45 -3.65 Q-9.8 -4.9 -10.8 -8.0 L-11.4 -10.45 -11.6 -11.35 -11.7 -10.55 -12.25 -8.0 Q-13.1 -4.6 -14.6 -2.15 -16.2 -2.0 -17.85 -3.1 L-17.65 -5.55 -17.6 -7.7 -17.65 -8.3 -17.85 -10.6 -17.9 -11.05 Q-18.0 -11.35 -18.0 -11.05 L-18.05 -10.55 -18.35 -8.2 -18.45 -7.55 -18.9 -5.65 Q-19.5 -3.65 -20.4 -2.2 L-22.7 -2.15 Q-25.25 -2.95 -25.85 -8.15 L-26.05 -10.55 -26.0 -15.7 26.8 -15.8 26.9 -10.1 26.7 -7.5 Q26.25 -3.55 24.9 -1.85 L23.3 -1.95 Q21.85 -4.0 20.85 -6.35 L20.3 -7.7 19.5 -10.3 18.95 -7.55 18.2 -5.55 Q17.35 -3.8 16.1 -2.45 L14.2 -2.5 14.3 -6.0 14.3 -7.7 14.25 -10.15 13.65 -7.9 13.05 -6.5 Q12.2 -4.7 11.0 -3.25" fill="url(#decoration278-gradient1)" fill-rule="evenodd" stroke="none"/>
      <path d="M11.0 -3.25 Q12.2 -4.7 13.05 -6.5 L13.65 -7.9 14.25 -10.15 14.3 -7.7 14.3 -6.0 14.2 -2.5 11.0 -3.25 M16.1 -2.45 Q17.35 -3.8 18.2 -5.55 L18.95 -7.55 19.5 -10.3 20.3 -7.7 20.85 -6.35 Q21.85 -4.0 23.3 -1.95 21.4 -2.3 19.4 -3.6 18.35 -2.6 16.1 -2.45 M24.9 -1.85 Q26.25 -3.55 26.7 -7.5 L26.9 -10.1 26.8 -15.8 Q28.05 -13.25 28.4 -10.4 L28.5 -7.7 Q28.4 -5.25 27.75 -2.6 26.35 -1.95 24.9 -1.85 M-26.0 -15.7 L-26.05 -10.55 -25.85 -8.15 Q-25.25 -2.95 -22.7 -2.15 -24.55 -2.35 -26.65 -3.2 -27.6 -4.35 -27.25 -8.35 L-27.1 -10.7 Q-26.85 -13.4 -26.0 -15.7 M-20.4 -2.2 Q-19.5 -3.65 -18.9 -5.65 L-18.45 -7.55 -18.35 -8.2 -18.05 -10.55 -18.0 -11.05 Q-18.0 -11.35 -17.9 -11.05 L-17.85 -10.6 -17.65 -8.3 -17.6 -7.7 -17.65 -5.55 -17.85 -3.1 Q-19.05 -2.45 -20.4 -2.2 M-14.6 -2.15 Q-13.1 -4.6 -12.25 -8.0 L-11.7 -10.55 -11.6 -11.35 -11.5 -10.5 -11.4 -10.45 -10.8 -8.0 Q-9.8 -4.9 -8.45 -3.65 L-8.85 -3.7 -9.15 -3.7 -11.7 -3.35 -12.2 -3.15 Q-13.35 -2.3 -14.5 -2.15 L-14.6 -2.15 M-5.35 -2.55 Q-4.95 -4.85 -4.9 -7.15 L-4.85 -8.15 -4.85 -10.35 -4.2 -8.05 -3.35 -5.6 -1.85 -2.0 -5.35 -2.55 M19.5 -10.3 L19.65 -7.8 19.4 -3.6 19.65 -7.8 19.5 -10.3 M-11.5 -10.5 L-11.35 -8.15 Q-11.3 -5.55 -11.7 -3.35 -11.3 -5.55 -11.35 -8.15 L-11.5 -10.5" fill="url(#decoration278-gradient2)" fill-rule="evenodd" stroke="none"/>
      <path d="M-11.6 -11.35 L-11.4 -10.45 -11.5 -10.5 -11.6 -11.35" fill="url(#decoration278-gradient3)" fill-rule="evenodd" stroke="none"/>
      <path d="M-1.85 -2.0 L-1.6 -2.0 Q1.1 -1.85 3.3 -2.6 6.5 -3.65 9.85 -3.35 L11.0 -3.25 14.2 -2.5 16.1 -2.45 Q18.35 -2.6 19.4 -3.6 21.4 -2.3 23.3 -1.95 L24.9 -1.85 Q26.35 -1.95 27.75 -2.6 28.4 -5.25 28.5 -7.7 L28.4 -10.4 Q28.05 -13.25 26.8 -15.8 L-26.0 -15.7 Q-26.85 -13.4 -27.1 -10.7 L-27.25 -8.35 Q-27.6 -4.35 -26.65 -3.2 -24.55 -2.35 -22.7 -2.15 L-20.4 -2.2 Q-19.05 -2.45 -17.85 -3.1 -16.2 -2.0 -14.6 -2.15 L-14.5 -2.15 Q-13.35 -2.3 -12.2 -3.15 L-11.7 -3.35 -9.15 -3.7 -8.85 -3.7 -8.45 -3.65 -8.2 -3.6 -5.35 -2.55 Q-4.95 -4.85 -4.9 -7.15 L-4.85 -8.15 -4.85 -10.35 M14.25 -10.15 L14.3 -7.7 14.3 -6.0 14.2 -2.5 M-17.9 -11.05 L-17.85 -10.6 -17.65 -8.3 -17.6 -7.7 -17.65 -5.55 -17.85 -3.1 M-1.85 -2.0 L-5.35 -2.55 M19.4 -3.6 L19.65 -7.8 19.5 -10.3 M-11.7 -3.35 Q-11.3 -5.55 -11.35 -8.15 L-11.5 -10.5 -11.6 -11.35" fill="none" stroke="#000000" stroke-linecap="round" stroke-linejoin="round" stroke-opacity="0.14117648" stroke-width="0.30000000000000004"/>
      <path d="M27.65 -14.05 L27.0 -14.0 -26.45 -14.0 -25.9 -15.75 26.9 -15.85 27.65 -14.05" fill="url(#decoration278-gradient4)" fill-rule="evenodd" stroke="none"/>
    </g>
    <linearGradient gradientTransform="matrix(0.0224, 0.0, 0.0, 0.0097, 0.4, -1.85)" gradientUnits="userSpaceOnUse" id="decoration278-gradient0" spreadMethod="pad" x1="-819.2" x2="819.2">
      <stop offset="0.0" stop-color="#5f3811"/>
      <stop offset="0.984313725490196" stop-color="#2c1c02"/>
    </linearGradient>
    <linearGradient gradientTransform="matrix(0.0323, 0.0, 0.0, 0.0085, 0.4, -8.85)" gradientUnits="userSpaceOnUse" id="decoration278-gradient1" spreadMethod="pad" x1="-819.2" x2="819.2">
      <stop offset="0.0" stop-color="#dedede"/>
      <stop offset="1.0" stop-color="#b7b7b7"/>
    </linearGradient>
    <linearGradient gradientTransform="matrix(0.0, 0.0024, -0.0054, 0.0, -13.05, -5.8)" gradientUnits="userSpaceOnUse" id="decoration278-gradient2" spreadMethod="pad" x1="-819.2" x2="819.2">
      <stop offset="0.0" stop-color="#b7b7b7"/>
      <stop offset="1.0" stop-color="#888686"/>
    </linearGradient>
    <linearGradient gradientTransform="matrix(0.0025, -0.0025, 0.003, 0.003, -10.35, -5.45)" gradientUnits="userSpaceOnUse" id="decoration278-gradient3" spreadMethod="pad" x1="-819.2" x2="819.2">
      <stop offset="0.0" stop-color="#640000"/>
      <stop offset="1.0" stop-color="#af0b0b"/>
    </linearGradient>
    <linearGradient gradientTransform="matrix(0.033, 0.0, 0.0, 0.0011, 8.5, -15.85)" gradientUnits="userSpaceOnUse" id="decoration278-gradient4" spreadMethod="pad" x1="-819.2" x2="819.2">
      <stop offset="0.0" stop-color="#ffffff" stop-opacity="0.54901963"/>
      <stop offset="1.0" stop-color="#ffffff" stop-opacity="0.4392157"/>
    </linearGradient>
  </defs>
</svg>
