<?xml version="1.0" encoding="UTF-8" standalone="no"?>
<svg xmlns:ffdec="https://www.free-decompiler.com/flash" xmlns:xlink="http://www.w3.org/1999/xlink" ffdec:objectType="frame" height="77.7px" width="57.4px" xmlns="http://www.w3.org/2000/svg">
  <g transform="matrix(1.0, 0.0, 0.0, 1.0, 28.5, 77.3)">
    <use ffdec:characterId="36" height="77.7" transform="matrix(1.0, 0.0, 0.0, 1.0, -28.5, -77.3)" width="57.4" xlink:href="#decoration280-shape0"/>
  </g>
  <defs>
    <g id="decoration280-shape0" transform="matrix(1.0, 0.0, 0.0, 1.0, 28.5, 77.3)">
      <path d="M4.4 -3.2 L4.4 -6.4 Q8.6 -8.9 11.15 -6.7 13.65 -4.55 22.65 -3.8 23.25 -3.65 23.6 -3.15 L23.25 -2.8 Q22.45 -2.05 21.35 -1.85 19.75 -1.55 17.25 -2.35 L9.5 -3.7 5.25 -3.6 4.4 -3.2" fill="url(#decoration280-gradient0)" fill-rule="evenodd" stroke="none"/>
      <path d="M4.4 -3.2 L5.25 -3.6 9.5 -3.7 17.25 -2.35 Q19.75 -1.55 21.35 -1.85 22.45 -2.05 23.25 -2.8 L23.6 -3.15 23.7 -2.95 23.9 -1.85 23.65 -0.95 22.15 0.0 Q20.95 0.45 18.7 -0.4 11.55 -2.6 4.4 -0.4 L4.4 -3.2" fill="url(#decoration280-gradient1)" fill-rule="evenodd" stroke="none"/>
      <path d="M23.6 -3.15 Q23.25 -3.65 22.65 -3.8 13.65 -4.55 11.15 -6.7 8.6 -8.9 4.4 -6.4 L4.4 -3.2 4.4 -0.4 Q11.55 -2.6 18.7 -0.4 20.95 0.45 22.15 0.0 L23.65 -0.95 23.9 -1.85 23.7 -2.95 23.6 -3.15 Z" fill="none" stroke="#000000" stroke-linecap="round" stroke-linejoin="round" stroke-opacity="0.3019608" stroke-width="0.30000000000000004"/>
      <path d="M-22.15 -3.05 L-21.8 -2.7 Q-21.0 -1.95 -19.9 -1.75 -18.3 -1.45 -15.8 -2.25 L-8.05 -3.6 -3.8 -3.5 -2.95 -3.1 -2.95 -0.3 Q-10.1 -2.5 -17.25 -0.3 -19.5 0.55 -20.7 0.1 -21.9 -0.35 -22.2 -0.85 L-22.45 -1.75 -22.25 -2.85 -22.15 -3.05" fill="url(#decoration280-gradient2)" fill-rule="evenodd" stroke="none"/>
      <path d="M-2.95 -3.1 L-3.8 -3.5 -8.05 -3.6 -15.8 -2.25 Q-18.3 -1.45 -19.9 -1.75 -21.0 -1.95 -21.8 -2.7 L-22.15 -3.05 -21.2 -3.7 Q-12.2 -4.45 -9.7 -6.6 -7.15 -8.8 -2.95 -6.3 L-2.95 -3.1" fill="url(#decoration280-gradient3)" fill-rule="evenodd" stroke="none"/>
      <path d="M-22.15 -3.05 L-22.25 -2.85 -22.45 -1.75 -22.2 -0.85 Q-21.9 -0.35 -20.7 0.1 -19.5 0.55 -17.25 -0.3 -10.1 -2.5 -2.95 -0.3 L-2.95 -3.1 -2.95 -6.3 Q-7.15 -8.8 -9.7 -6.6 -12.2 -4.45 -21.2 -3.7 L-22.15 -3.05 Z" fill="none" stroke="#000000" stroke-linecap="round" stroke-linejoin="round" stroke-opacity="0.3019608" stroke-width="0.30000000000000004"/>
      <path d="M-2.65 -39.6 L-2.2 -51.55 2.5 -51.55 4.85 -6.4 -4.0 -6.4 -3.85 -9.8 -0.85 -9.8 Q4.45 -18.25 1.1 -35.1 0.55 -37.75 -1.6 -39.05 L-2.65 -39.6" fill="#492304" fill-rule="evenodd" stroke="none"/>
      <path d="M-3.85 -9.8 L-2.65 -39.6 -1.6 -39.05 Q0.55 -37.75 1.1 -35.1 4.45 -18.25 -0.85 -9.8 L-3.85 -9.8" fill="url(#decoration280-gradient4)" fill-rule="evenodd" stroke="none"/>
      <path d="M-2.65 -39.6 L-2.2 -51.55 2.5 -51.55 4.85 -6.4 -4.0 -6.4 -3.85 -9.8 -2.65 -39.6 Z" fill="none" stroke="#000000" stroke-linecap="round" stroke-linejoin="round" stroke-opacity="0.3019608" stroke-width="0.30000000000000004"/>
      <path d="M-21.0 -3.65 Q-12.0 -4.4 -9.5 -6.55 -6.95 -8.75 -2.75 -6.25 L-2.75 -5.25 -7.0 -5.65 Q-8.7 -5.6 -11.15 -4.65 L-15.15 -3.15 -21.85 -2.9 -21.95 -3.0 -21.0 -3.65" fill="url(#decoration280-gradient5)" fill-rule="evenodd" stroke="none"/>
      <path d="M16.75 -3.2 L12.75 -4.7 Q10.3 -5.65 8.6 -5.7 L4.35 -5.3 4.35 -6.3 Q8.55 -8.8 11.1 -6.6 13.6 -4.45 22.6 -3.7 L23.55 -3.05 23.45 -2.95 16.75 -3.2" fill="url(#decoration280-gradient6)" fill-rule="evenodd" stroke="none"/>
      <path d="M-4.35 -0.9 L-2.75 -0.85 Q-0.45 -0.75 0.85 -1.35 2.85 -2.35 4.0 -5.2 L4.55 -8.2 Q5.15 -7.8 5.3 -6.95 L5.3 -1.85 Q5.3 0.15 3.2 0.15 L-2.4 0.15 Q-3.95 0.15 -4.35 -0.9" fill="url(#decoration280-gradient7)" fill-rule="evenodd" stroke="none"/>
      <path d="M4.55 -8.2 L4.0 -5.2 Q2.85 -2.35 0.85 -1.35 -0.45 -0.75 -2.75 -0.85 L-4.35 -0.9 -4.5 -1.85 -4.5 -6.5 Q-4.5 -8.55 -2.4 -8.55 L3.2 -8.55 4.55 -8.2" fill="url(#decoration280-gradient8)" fill-rule="evenodd" stroke="none"/>
      <path d="M4.55 -8.2 L3.2 -8.55 -2.4 -8.55 Q-4.5 -8.55 -4.5 -6.5 L-4.5 -1.85 -4.35 -0.9 Q-3.95 0.15 -2.4 0.15 L3.2 0.15 Q5.3 0.15 5.3 -1.85 L5.3 -6.95 Q5.15 -7.8 4.55 -8.2 Z" fill="none" stroke="#000000" stroke-linecap="round" stroke-linejoin="round" stroke-opacity="0.3019608" stroke-width="0.30000000000000004"/>
      <path d="M24.65 -73.1 L24.65 -43.2 -24.45 -43.2 -24.45 -74.85 Q-24.4 -77.05 -21.5 -77.15 L22.0 -77.15 Q24.35 -77.0 24.65 -73.1" fill="url(#decoration280-gradient9)" fill-rule="evenodd" stroke="none"/>
      <path d="M24.65 -73.1 L24.65 -43.2 -24.45 -43.2 -24.45 -74.85 Q-24.4 -77.05 -21.5 -77.15 L22.0 -77.15 Q24.35 -77.0 24.65 -73.1 Z" fill="none" stroke="#000000" stroke-linecap="round" stroke-linejoin="round" stroke-opacity="0.3019608" stroke-width="0.30000000000000004"/>
      <path d="M0.35 -71.4 Q5.55 -74.65 23.1 -74.45 L23.4 -47.8 Q7.05 -48.3 0.2 -48.05 -14.05 -48.15 -23.0 -47.8 L-23.0 -74.9 Q-6.7 -75.85 0.35 -71.4" fill="#000000" fill-opacity="0.32941177" fill-rule="evenodd" stroke="none"/>
      <path d="M0.15 -48.85 L0.15 -69.35 Q6.5 -74.1 22.15 -73.1 L22.15 -49.5 Q11.85 -51.55 0.15 -48.85" fill="url(#decoration280-gradient10)" fill-rule="evenodd" stroke="none"/>
      <path d="M0.15 -48.85 Q11.85 -51.55 22.15 -49.5 L22.15 -47.25 Q11.65 -49.5 0.15 -48.85" fill="#926e3f" fill-rule="evenodd" stroke="none"/>
      <path d="M22.15 -49.5 L22.15 -73.1 Q6.5 -74.1 0.15 -69.35 L0.15 -48.85 Q11.85 -51.55 22.15 -49.5 L22.15 -47.25 Q11.65 -49.5 0.15 -48.85" fill="none" stroke="#000000" stroke-linecap="round" stroke-linejoin="round" stroke-opacity="0.3019608" stroke-width="0.30000000000000004"/>
      <path d="M22.15 -48.4 Q15.15 -51.1 0.15 -48.85" fill="none" stroke="#000000" stroke-linecap="round" stroke-linejoin="round" stroke-opacity="0.3019608" stroke-width="0.1"/>
      <path d="M22.15 -47.25 Q15.6 -50.45 0.15 -48.85" fill="none" stroke="#000000" stroke-linecap="round" stroke-linejoin="round" stroke-opacity="0.3019608" stroke-width="0.1"/>
      <path d="M-21.8 -49.65 L-21.8 -73.25 Q-6.15 -74.2 0.25 -69.5 L0.25 -48.95 Q-11.45 -51.65 -21.8 -49.65" fill="url(#decoration280-gradient11)" fill-rule="evenodd" stroke="none"/>
      <path d="M0.25 -48.95 Q-11.3 -49.65 -21.8 -47.35 L-21.8 -49.65 Q-11.45 -51.65 0.25 -48.95" fill="#926e3f" fill-rule="evenodd" stroke="none"/>
      <path d="M-21.8 -49.65 L-21.8 -73.25 Q-6.15 -74.2 0.25 -69.5 L0.25 -48.95 Q-11.3 -49.65 -21.8 -47.35 L-21.8 -49.65 Q-11.45 -51.65 0.25 -48.95" fill="none" stroke="#000000" stroke-linecap="round" stroke-linejoin="round" stroke-opacity="0.3019608" stroke-width="0.30000000000000004"/>
      <path d="M-21.8 -47.85 Q-11.85 -50.25 -1.65 -49.3" fill="none" stroke="#000000" stroke-linecap="round" stroke-linejoin="round" stroke-opacity="0.3019608" stroke-width="0.1"/>
      <path d="M-21.8 -48.5 Q-11.4 -51.3 0.25 -48.95" fill="none" stroke="#000000" stroke-linecap="round" stroke-linejoin="round" stroke-opacity="0.3019608" stroke-width="0.1"/>
      <path d="M26.95 -44.7 L-26.3 -44.7 -28.35 -48.1 28.75 -47.95 26.95 -44.7" fill="url(#decoration280-gradient12)" fill-rule="evenodd" stroke="none"/>
      <path d="M26.95 -44.7 L25.95 -43.0 -25.35 -43.0 -26.3 -44.7 26.95 -44.7" fill="#492304" fill-rule="evenodd" stroke="none"/>
      <path d="M-26.3 -44.7 L-25.35 -43.0 25.95 -43.0 26.95 -44.7 28.75 -47.95 -28.35 -48.1 -26.3 -44.7 Z" fill="none" stroke="#000000" stroke-linecap="round" stroke-linejoin="round" stroke-opacity="0.3019608" stroke-width="0.30000000000000004"/>
      <path d="M19.75 -59.7 Q11.0 -60.25 3.15 -57.85 M20.0 -61.9 Q11.2 -62.0 2.7 -59.7 M19.4 -55.0 Q10.75 -55.1 2.85 -53.15 M19.5 -52.8 Q11.15 -53.25 3.15 -51.55 M19.55 -56.75 Q10.5 -56.95 2.7 -54.8 M20.1 -63.75 Q10.75 -63.6 2.95 -61.4 M20.25 -66.9 Q10.3 -66.75 2.2 -64.15 M20.35 -68.7 Q10.2 -68.4 1.8 -65.65 M20.25 -70.45 Q9.55 -70.05 1.7 -67.2" fill="none" stroke="#000000" stroke-linecap="round" stroke-linejoin="round" stroke-opacity="0.3019608" stroke-width="0.1"/>
      <path d="M-20.05 -70.45 Q-9.35 -70.05 -1.5 -67.2 M-20.15 -68.7 Q-10.0 -68.4 -1.6 -65.65 M-20.05 -66.9 Q-10.1 -66.75 -2.0 -64.15 M-19.9 -63.75 Q-10.55 -63.6 -2.75 -61.4 M-19.55 -59.7 Q-10.8 -60.25 -2.95 -57.85 M-19.35 -56.75 Q-10.3 -56.95 -2.5 -54.8 M-19.3 -52.8 Q-10.95 -53.25 -2.95 -51.55 M-19.2 -55.0 Q-10.55 -55.1 -2.65 -53.15 M-19.8 -61.9 Q-11.0 -62.0 -2.5 -59.7" fill="none" stroke="#000000" stroke-linecap="round" stroke-linejoin="round" stroke-opacity="0.3019608" stroke-width="0.1"/>
      <path d="M-12.9 -61.7 Q-12.85 -62.2 -11.8 -62.3 L-11.8 -65.0 -11.45 -65.0 -11.45 -62.3 Q-11.55 -61.45 -12.2 -61.35 -12.9 -61.25 -12.9 -61.7" fill="#948c86" fill-rule="evenodd" stroke="none"/>
      <path d="M-12.9 -71.65 L-12.9 -69.4 Q-12.95 -68.7 -13.5 -68.6 -14.1 -68.5 -14.05 -68.9 -14.05 -69.3 -13.15 -69.4 L-13.15 -71.1 -14.4 -71.1 -14.4 -69.4 Q-14.5 -68.7 -15.05 -68.6 -15.6 -68.5 -15.6 -68.9 -15.6 -69.3 -14.7 -69.4 L-14.7 -71.65 -12.9 -71.65" fill="#948c86" fill-rule="evenodd" stroke="none"/>
      <path d="M-6.4 -65.85 Q-6.4 -66.25 -5.5 -66.35 L-5.5 -68.6 -3.7 -68.6 -3.7 -66.35 Q-3.75 -65.65 -4.3 -65.55 -4.9 -65.45 -4.85 -65.85 -4.85 -66.25 -3.95 -66.35 L-3.95 -68.05 -5.2 -68.05 -5.2 -66.35 Q-5.3 -65.65 -5.85 -65.55 -6.4 -65.45 -6.4 -65.85" fill="#948c86" fill-rule="evenodd" stroke="none"/>
      <path d="M-10.6 -67.05 Q-10.55 -67.55 -9.5 -67.65 L-9.5 -70.35 -9.15 -70.35 -9.15 -67.65 Q-9.25 -66.8 -9.9 -66.7 -10.6 -66.6 -10.6 -67.05" fill="#948c86" fill-rule="evenodd" stroke="none"/>
      <path d="M-16.95 -68.55 Q-17.0 -69.05 -17.55 -69.15 L-17.65 -69.15 -17.55 -67.7 Q-16.95 -67.8 -16.95 -68.55 M-17.4 -72.95 Q-16.5 -72.75 -16.95 -71.2 -17.25 -70.6 -18.9 -69.7 -19.75 -69.05 -19.2 -68.05 -18.95 -67.55 -17.75 -67.6 L-17.9 -69.15 -18.45 -68.8 Q-18.75 -68.45 -18.25 -67.95 -18.95 -68.2 -18.8 -68.85 L-18.15 -69.5 Q-16.95 -69.75 -16.75 -68.8 -16.5 -67.8 -17.55 -67.35 -17.3 -65.9 -18.2 -65.8 -18.9 -65.7 -19.1 -66.3 -19.15 -66.6 -18.85 -66.7 -18.5 -66.7 -18.5 -66.45 -18.5 -66.15 -18.85 -66.2 L-18.65 -66.0 -18.35 -65.95 -17.9 -66.1 Q-17.55 -66.6 -17.75 -67.35 -19.1 -67.25 -19.55 -68.05 -20.0 -68.95 -19.5 -69.7 L-18.3 -70.8 Q-18.35 -72.6 -17.4 -72.95 M-17.25 -72.55 Q-18.1 -72.3 -18.0 -70.95 -16.9 -71.6 -17.25 -72.55" fill="#948c86" fill-rule="evenodd" stroke="none"/>
      <path d="M3.15 -68.3 Q3.1 -70.1 4.05 -70.45 4.95 -70.25 4.5 -68.7 4.2 -68.1 2.55 -67.2 1.7 -66.55 2.25 -65.55 2.5 -65.05 3.7 -65.1 L3.55 -66.65 3.0 -66.3 Q2.7 -65.95 3.2 -65.45 2.5 -65.7 2.65 -66.35 2.8 -66.9 3.3 -67.0 4.5 -67.25 4.7 -66.3 4.95 -65.3 3.9 -64.85 4.15 -63.4 3.25 -63.3 2.55 -63.2 2.35 -63.8 2.3 -64.1 2.6 -64.2 2.95 -64.2 2.95 -63.95 2.95 -63.65 2.6 -63.7 L2.8 -63.5 3.1 -63.45 3.55 -63.6 Q3.9 -64.1 3.7 -64.85 2.35 -64.75 1.9 -65.55 1.45 -66.45 1.95 -67.2 2.45 -68.0 3.15 -68.3 M4.2 -70.05 Q3.35 -69.8 3.45 -68.45 4.55 -69.1 4.2 -70.05 M3.9 -66.65 L3.8 -66.65 3.9 -65.2 Q4.5 -65.3 4.5 -66.05 4.45 -66.55 3.9 -66.65" fill="#948c86" fill-rule="evenodd" stroke="none"/>
      <path d="M6.3 -64.15 Q6.3 -64.55 7.2 -64.65 L7.2 -66.9 9.0 -66.9 9.0 -64.65 Q8.95 -63.95 8.4 -63.85 7.8 -63.75 7.85 -64.15 7.85 -64.55 8.75 -64.65 L8.75 -66.35 7.5 -66.35 7.5 -64.65 Q7.4 -63.95 6.85 -63.85 6.3 -63.75 6.3 -64.15" fill="#948c86" fill-rule="evenodd" stroke="none"/>
      <path d="M15.6 -58.65 L13.8 -58.65 13.8 -60.9 Q13.85 -61.6 14.4 -61.7 15.0 -61.8 14.95 -61.4 14.95 -61.0 14.05 -60.9 L14.05 -59.2 15.3 -59.2 15.3 -60.9 Q15.4 -61.6 15.95 -61.7 16.5 -61.8 16.5 -61.4 16.5 -61.0 15.6 -60.9 L15.6 -58.65" fill="#948c86" fill-rule="evenodd" stroke="none"/>
      <path d="M3.85 -53.6 Q3.85 -54.0 4.75 -54.1 L4.75 -56.35 6.55 -56.35 6.55 -54.1 Q6.5 -53.4 5.95 -53.3 5.35 -53.2 5.4 -53.6 5.4 -54.0 6.3 -54.1 L6.3 -55.8 5.05 -55.8 5.05 -54.1 Q4.95 -53.4 4.4 -53.3 3.85 -53.2 3.85 -53.6" fill="#948c86" fill-rule="evenodd" stroke="none"/>
      <path d="M-9.55 -59.65 Q-9.5 -60.15 -8.45 -60.25 L-8.45 -62.95 -8.1 -62.95 -8.1 -60.25 Q-8.2 -59.4 -8.85 -59.3 -9.55 -59.2 -9.55 -59.65" fill="#948c86" fill-rule="evenodd" stroke="none"/>
      <path d="M10.05 -68.35 Q10.1 -68.85 11.15 -68.95 L11.15 -71.65 11.5 -71.65 11.5 -68.95 Q11.4 -68.1 10.75 -68.0 10.05 -67.9 10.05 -68.35" fill="#948c86" fill-rule="evenodd" stroke="none"/>
      <path d="M14.75 -67.05 Q14.8 -67.55 15.85 -67.65 L15.85 -70.35 16.2 -70.35 16.2 -67.65 Q16.1 -66.8 15.45 -66.7 14.75 -66.6 14.75 -67.05" fill="#948c86" fill-rule="evenodd" stroke="none"/>
      <path d="M9.3 -60.55 Q9.35 -61.05 10.4 -61.15 L10.4 -63.85 10.75 -63.85 10.75 -61.15 Q10.65 -60.3 10.0 -60.2 9.3 -60.1 9.3 -60.55" fill="#948c86" fill-rule="evenodd" stroke="none"/>
      <path d="M9.7 -54.85 Q9.75 -55.35 10.8 -55.45 L10.8 -58.15 11.15 -58.15 11.15 -55.45 Q11.05 -54.6 10.4 -54.5 9.7 -54.4 9.7 -54.85" fill="#948c86" fill-rule="evenodd" stroke="none"/>
      <path d="M17.6 -61.0 Q17.65 -61.5 18.7 -61.6 L18.7 -64.3 19.05 -64.3 19.05 -61.6 Q18.95 -60.75 18.3 -60.65 17.6 -60.55 17.6 -61.0" fill="#948c86" fill-rule="evenodd" stroke="none"/>
      <path d="M-13.55 -56.0 Q-13.5 -56.5 -12.45 -56.6 L-12.45 -59.3 -12.1 -59.3 -12.1 -56.6 Q-12.2 -55.75 -12.85 -55.65 -13.55 -55.55 -13.55 -56.0" fill="#948c86" fill-rule="evenodd" stroke="none"/>
      <path d="M-17.2 -53.35 Q-17.15 -53.85 -16.1 -53.95 L-16.1 -56.65 -15.75 -56.65 -15.75 -53.95 Q-15.85 -53.1 -16.5 -53.0 -17.2 -52.9 -17.2 -53.35" fill="#948c86" fill-rule="evenodd" stroke="none"/>
      <path d="M-7.35 -56.4 L-7.35 -54.15 -9.15 -54.15 -9.15 -56.4 Q-9.1 -57.1 -8.55 -57.2 -7.95 -57.3 -8.0 -56.9 -8.0 -56.5 -8.9 -56.4 L-8.9 -54.7 -7.65 -54.7 -7.65 -56.4 Q-7.55 -57.1 -7.0 -57.2 -6.45 -57.3 -6.45 -56.9 -6.45 -56.5 -7.35 -56.4" fill="#948c86" fill-rule="evenodd" stroke="none"/>
      <path d="M-17.25 -63.15 L-17.25 -61.45 Q-17.35 -60.75 -17.9 -60.65 -18.45 -60.55 -18.45 -60.95 -18.45 -61.35 -17.55 -61.45 L-17.55 -63.7 -15.75 -63.7 -15.75 -61.45 Q-15.8 -60.75 -16.35 -60.65 -16.95 -60.55 -16.9 -60.95 L-16.0 -61.45 -16.0 -63.15 -17.25 -63.15" fill="#948c86" fill-rule="evenodd" stroke="none"/>
      <path d="M-3.75 -59.5 Q-3.8 -61.3 -2.85 -61.65 -1.95 -61.45 -2.4 -59.9 -2.7 -59.3 -4.35 -58.4 -5.2 -57.75 -4.65 -56.75 -4.4 -56.25 -3.2 -56.3 L-3.35 -57.85 -3.9 -57.5 Q-4.2 -57.15 -3.7 -56.65 -4.4 -56.9 -4.25 -57.55 L-3.6 -58.2 Q-2.4 -58.45 -2.2 -57.5 -1.95 -56.5 -3.0 -56.05 -2.75 -54.6 -3.65 -54.5 -4.35 -54.4 -4.55 -55.0 L-4.3 -55.4 -3.95 -55.15 Q-3.95 -54.85 -4.3 -54.9 L-4.1 -54.7 -3.8 -54.65 -3.35 -54.8 Q-3.0 -55.3 -3.2 -56.05 -4.55 -55.95 -5.0 -56.75 -5.45 -57.65 -4.95 -58.4 L-3.75 -59.5 M-3.45 -59.65 Q-2.35 -60.3 -2.7 -61.25 -3.55 -61.0 -3.45 -59.65 M-3.0 -57.85 L-3.1 -57.85 -3.0 -56.4 Q-2.4 -56.5 -2.4 -57.25 -2.45 -57.75 -3.0 -57.85" fill="#948c86" fill-rule="evenodd" stroke="none"/>
      <path d="M12.85 -54.25 L12.85 -56.95 13.2 -56.95 13.2 -54.25 Q13.1 -53.4 12.45 -53.3 11.75 -53.2 11.75 -53.65 11.8 -54.15 12.85 -54.25" fill="#948c86" fill-rule="evenodd" stroke="none"/>
      <path d="M3.35 -59.65 Q3.4 -60.15 4.45 -60.25 L4.45 -62.95 4.8 -62.95 4.8 -60.25 Q4.7 -59.4 4.05 -59.3 3.35 -59.2 3.35 -59.65" fill="#948c86" fill-rule="evenodd" stroke="none"/>
      <path d="M18.65 -52.65 Q18.6 -51.95 18.05 -51.85 17.45 -51.75 17.5 -52.15 17.5 -52.55 18.4 -52.65 L18.4 -54.35 17.15 -54.35 17.15 -52.65 Q17.05 -51.95 16.5 -51.85 15.95 -51.75 15.95 -52.15 15.95 -52.55 16.85 -52.65 L16.85 -54.9 18.65 -54.9 18.65 -52.65" fill="#948c86" fill-rule="evenodd" stroke="none"/>
      <path d="M28.75 -47.95 L28.1 -46.75 -27.5 -46.75 -28.35 -48.1 28.75 -47.95" fill="url(#decoration280-gradient13)" fill-rule="evenodd" stroke="none"/>
      <path d="M24.1 -75.4 L-24.4 -75.4 Q-24.0 -77.0 -21.55 -77.1 L21.95 -77.1 Q23.45 -77.0 24.1 -75.4" fill="url(#decoration280-gradient14)" fill-rule="evenodd" stroke="none"/>
      <path d="M-3.7 -9.8 L-2.5 -39.6 -1.45 -39.05 -0.8 -38.6 -0.8 -9.8 -3.7 -9.8" fill="url(#decoration280-gradient15)" fill-rule="evenodd" stroke="none"/>
      <path d="M4.55 -8.2 L4.55 -8.15 Q1.8 -7.95 -0.6 -6.7 -3.05 -5.5 -4.5 -3.45 L-4.5 -6.5 Q-4.5 -8.55 -2.4 -8.55 L3.2 -8.55 4.55 -8.2" fill="url(#decoration280-gradient16)" fill-rule="evenodd" stroke="none"/>
    </g>
    <linearGradient gradientTransform="matrix(-0.0113, -0.003, 9.0E-4, -0.0035, 11.6, -6.6)" gradientUnits="userSpaceOnUse" id="decoration280-gradient0" spreadMethod="pad" x1="-819.2" x2="819.2">
      <stop offset="0.0" stop-color="#a0683e"/>
      <stop offset="1.0" stop-color="#7a4114"/>
    </linearGradient>
    <linearGradient gradientTransform="matrix(-0.0118, -0.0013, 3.0E-4, -0.0024, 14.05, -1.7)" gradientUnits="userSpaceOnUse" id="decoration280-gradient1" spreadMethod="pad" x1="-819.2" x2="819.2">
      <stop offset="0.0" stop-color="#804719"/>
      <stop offset="1.0" stop-color="#492304"/>
    </linearGradient>
    <linearGradient gradientTransform="matrix(0.0119, 0.0, 0.0, 0.0024, -12.7, -1.75)" gradientUnits="userSpaceOnUse" id="decoration280-gradient2" spreadMethod="pad" x1="-819.2" x2="819.2">
      <stop offset="0.0" stop-color="#804719"/>
      <stop offset="1.0" stop-color="#492304"/>
    </linearGradient>
    <linearGradient gradientTransform="matrix(0.0117, 0.0, 0.0, 0.0037, -8.2, -5.35)" gradientUnits="userSpaceOnUse" id="decoration280-gradient3" spreadMethod="pad" x1="-819.2" x2="819.2">
      <stop offset="0.0" stop-color="#a0683e"/>
      <stop offset="1.0" stop-color="#7a4114"/>
    </linearGradient>
    <linearGradient gradientTransform="matrix(0.0054, 0.0, 0.0, 0.0276, 0.4, -29.0)" gradientUnits="userSpaceOnUse" id="decoration280-gradient4" spreadMethod="pad" x1="-819.2" x2="819.2">
      <stop offset="0.0" stop-color="#a0683e"/>
      <stop offset="1.0" stop-color="#7a4114"/>
    </linearGradient>
    <linearGradient gradientTransform="matrix(0.0117, 0.0, 0.0, 0.0037, -8.0, -5.3)" gradientUnits="userSpaceOnUse" id="decoration280-gradient5" spreadMethod="pad" x1="-819.2" x2="819.2">
      <stop offset="0.0" stop-color="#ffffff" stop-opacity="0.28627452"/>
      <stop offset="1.0" stop-color="#ffffff" stop-opacity="0.09803922"/>
    </linearGradient>
    <linearGradient gradientTransform="matrix(-0.0117, 0.0, 0.0, 0.0037, 9.6, -5.35)" gradientUnits="userSpaceOnUse" id="decoration280-gradient6" spreadMethod="pad" x1="-819.2" x2="819.2">
      <stop offset="0.0" stop-color="#ffffff" stop-opacity="0.28627452"/>
      <stop offset="1.0" stop-color="#ffffff" stop-opacity="0.09803922"/>
    </linearGradient>
    <linearGradient gradientTransform="matrix(0.0059, 0.0, 0.0, 0.0051, 0.45, -4.05)" gradientUnits="userSpaceOnUse" id="decoration280-gradient7" spreadMethod="pad" x1="-819.2" x2="819.2">
      <stop offset="0.0" stop-color="#804719"/>
      <stop offset="1.0" stop-color="#492304"/>
    </linearGradient>
    <linearGradient gradientTransform="matrix(0.0044, 5.0E-4, -5.0E-4, 0.0053, -1.2, -4.95)" gradientUnits="userSpaceOnUse" id="decoration280-gradient8" spreadMethod="pad" x1="-819.2" x2="819.2">
      <stop offset="0.0" stop-color="#a0683e"/>
      <stop offset="1.0" stop-color="#7a4114"/>
    </linearGradient>
    <linearGradient gradientTransform="matrix(0.03, 0.0, 0.0, 0.0207, 0.1, -60.25)" gradientUnits="userSpaceOnUse" id="decoration280-gradient9" spreadMethod="pad" x1="-819.2" x2="819.2">
      <stop offset="0.0" stop-color="#582d0b"/>
      <stop offset="0.44313725490196076" stop-color="#a0683e"/>
      <stop offset="1.0" stop-color="#582d0b"/>
    </linearGradient>
    <linearGradient gradientTransform="matrix(-0.0144, 0.0029, 0.0061, 0.0146, 10.5, -62.5)" gradientUnits="userSpaceOnUse" id="decoration280-gradient10" spreadMethod="pad" x1="-819.2" x2="819.2">
      <stop offset="0.0" stop-color="#ffebd1"/>
      <stop offset="0.00392156862745098" stop-color="#ffebd1"/>
      <stop offset="0.3333333333333333" stop-color="#fff7ed"/>
      <stop offset="1.0" stop-color="#c7a67b"/>
    </linearGradient>
    <linearGradient gradientTransform="matrix(0.0144, 0.0079, -0.0126, 0.012, -11.4, -62.55)" gradientUnits="userSpaceOnUse" id="decoration280-gradient11" spreadMethod="pad" x1="-819.2" x2="819.2">
      <stop offset="0.0" stop-color="#ffebd1"/>
      <stop offset="0.00392156862745098" stop-color="#ffebd1"/>
      <stop offset="0.3568627450980392" stop-color="#fff7ed"/>
      <stop offset="1.0" stop-color="#c7a67b"/>
    </linearGradient>
    <linearGradient gradientTransform="matrix(0.0213, -0.0082, 0.0015, 0.0017, -0.05, -46.6)" gradientUnits="userSpaceOnUse" id="decoration280-gradient12" spreadMethod="pad" x1="-819.2" x2="819.2">
      <stop offset="0.0" stop-color="#7a4114"/>
      <stop offset="0.44313725490196076" stop-color="#a0683e"/>
      <stop offset="1.0" stop-color="#7a4114"/>
    </linearGradient>
    <linearGradient gradientTransform="matrix(0.0349, 0.0, 0.0, 8.0E-4, 27.25, -47.1)" gradientUnits="userSpaceOnUse" id="decoration280-gradient13" spreadMethod="pad" x1="-819.2" x2="819.2">
      <stop offset="0.0" stop-color="#ffffff" stop-opacity="0.28627452"/>
      <stop offset="1.0" stop-color="#ffffff" stop-opacity="0.09803922"/>
    </linearGradient>
    <linearGradient gradientTransform="matrix(0.03, 0.0, 0.0, 0.0207, 17.55, -60.9)" gradientUnits="userSpaceOnUse" id="decoration280-gradient14" spreadMethod="pad" x1="-819.2" x2="819.2">
      <stop offset="0.0" stop-color="#ffffff" stop-opacity="0.28627452"/>
      <stop offset="1.0" stop-color="#ffffff" stop-opacity="0.09803922"/>
    </linearGradient>
    <linearGradient gradientTransform="matrix(0.0, 0.0179, -0.0276, 0.0, -0.55, -19.4)" gradientUnits="userSpaceOnUse" id="decoration280-gradient15" spreadMethod="pad" x1="-819.2" x2="819.2">
      <stop offset="0.0" stop-color="#ffffff" stop-opacity="0.28627452"/>
      <stop offset="1.0" stop-color="#ffffff" stop-opacity="0.09803922"/>
    </linearGradient>
    <linearGradient gradientTransform="matrix(0.0044, 5.0E-4, -5.0E-4, 0.0053, -1.2, -4.95)" gradientUnits="userSpaceOnUse" id="decoration280-gradient16" spreadMethod="pad" x1="-819.2" x2="819.2">
      <stop offset="0.0" stop-color="#ffffff" stop-opacity="0.28627452"/>
      <stop offset="1.0" stop-color="#ffffff" stop-opacity="0.09803922"/>
    </linearGradient>
  </defs>
</svg>
