<?xml version="1.0" encoding="UTF-8" standalone="no"?>
<svg xmlns:ffdec="https://www.free-decompiler.com/flash" xmlns:xlink="http://www.w3.org/1999/xlink" ffdec:objectType="frame" height="98.9px" width="92.5px" xmlns="http://www.w3.org/2000/svg">
  <g transform="matrix(1.0, 0.0, 0.0, 1.0, 46.75, 98.45)">
    <use ffdec:characterId="34" height="98.9" transform="matrix(1.0, 0.0, 0.0, 1.0, -46.75, -98.45)" width="92.5" xlink:href="#decoration281-shape0"/>
  </g>
  <defs>
    <g id="decoration281-shape0" transform="matrix(1.0, 0.0, 0.0, 1.0, 46.75, 98.45)">
      <path d="M-29.3 -75.8 L-21.2 -90.4 -19.3 -88.75 -28.3 -72.5 -29.3 -75.8" fill="url(#decoration281-gradient0)" fill-rule="evenodd" stroke="none"/>
      <path d="M-28.3 -72.5 L-36.9 -57.05 -38.55 -59.25 -29.3 -75.8 -28.3 -72.5" fill="url(#decoration281-gradient1)" fill-rule="evenodd" stroke="none"/>
      <path d="M-36.9 -57.05 L-42.6 -46.85 -44.55 -48.5 -38.55 -59.25 -36.9 -57.05" fill="url(#decoration281-gradient2)" fill-rule="evenodd" stroke="none"/>
      <path d="M-29.3 -75.8 L-21.2 -90.4 -19.3 -88.75 -28.3 -72.5 -36.9 -57.05 -42.6 -46.85 -44.55 -48.5 -38.55 -59.25 -29.3 -75.8 Z" fill="none" stroke="#000000" stroke-linecap="round" stroke-linejoin="round" stroke-opacity="0.29803923" stroke-width="0.30000000000000004"/>
      <path d="M-29.7 -98.15 L41.9 -54.5 41.9 -51.55 39.35 -51.55 -28.65 -93.7 Q-33.35 -96.6 -29.7 -98.15" fill="url(#decoration281-gradient3)" fill-rule="evenodd" stroke="none"/>
      <path d="M39.35 -51.55 L35.45 -51.55 Q11.7 -65.15 -9.5 -78.9 L-25.25 -88.85 -30.7 -92.1 Q-34.25 -94.45 -33.7 -96.65 -33.2 -98.8 -29.7 -98.15 -33.35 -96.6 -28.65 -93.7 L39.35 -51.55" fill="url(#decoration281-gradient4)" fill-rule="evenodd" stroke="none"/>
      <path d="M-29.7 -98.15 L41.9 -54.5 41.9 -51.55 39.35 -51.55 M35.45 -51.55 Q11.7 -65.15 -9.5 -78.9 L-25.25 -88.85 -30.7 -92.1 Q-34.25 -94.45 -33.7 -96.65 -33.2 -98.8 -29.7 -98.15" fill="none" stroke="#000000" stroke-linecap="round" stroke-linejoin="round" stroke-opacity="0.29803923" stroke-width="0.30000000000000004"/>
      <path d="M39.35 -51.55 L35.45 -51.55" fill="none" stroke="#000000" stroke-linecap="round" stroke-linejoin="round" stroke-opacity="0.14117648" stroke-width="0.30000000000000004"/>
      <path d="M41.9 -52.65 L-30.75 -97.55 -29.7 -98.15 41.9 -54.5 41.9 -52.65" fill="url(#decoration281-gradient5)" fill-rule="evenodd" stroke="none"/>
      <path d="M30.35 -28.1 L29.9 -33.7 39.25 -33.7 37.25 0.3 32.4 0.3 32.15 -3.65 Q35.6 -3.7 35.8 -28.1 L30.35 -28.1" fill="url(#decoration281-gradient6)" fill-rule="evenodd" stroke="none"/>
      <path d="M32.15 -3.65 L30.35 -28.1 35.8 -28.1 Q35.6 -3.7 32.15 -3.65" fill="url(#decoration281-gradient7)" fill-rule="evenodd" stroke="none"/>
      <path d="M30.35 -28.1 L29.9 -33.7 39.25 -33.7 37.25 0.3 32.4 0.3 32.15 -3.65 30.35 -28.1 Z" fill="none" stroke="#000000" stroke-linecap="round" stroke-linejoin="round" stroke-opacity="0.29803923" stroke-width="0.30000000000000004"/>
      <path d="M30.4 -28.05 L32.0 -28.05 Q33.3 -8.35 34.65 -8.5 33.7 -3.65 32.15 -3.6 L30.4 -28.05" fill="url(#decoration281-gradient8)" fill-rule="evenodd" stroke="none"/>
      <path d="M-39.5 -28.1 L-39.95 -33.7 -30.6 -33.7 -32.6 0.3 -37.45 0.3 -37.7 -3.65 Q-34.25 -3.7 -34.05 -28.1 L-39.5 -28.1" fill="url(#decoration281-gradient9)" fill-rule="evenodd" stroke="none"/>
      <path d="M-37.7 -3.65 L-39.5 -28.1 -34.05 -28.1 Q-34.25 -3.7 -37.7 -3.65" fill="url(#decoration281-gradient10)" fill-rule="evenodd" stroke="none"/>
      <path d="M-39.5 -28.1 L-39.95 -33.7 -30.6 -33.7 -32.6 0.3 -37.45 0.3 -37.7 -3.65 -39.5 -28.1 Z" fill="none" stroke="#000000" stroke-linecap="round" stroke-linejoin="round" stroke-opacity="0.13725491" stroke-width="0.30000000000000004"/>
      <path d="M-39.4 -28.25 L-37.8 -28.25 Q-36.45 -8.55 -35.15 -8.65 -36.1 -3.85 -37.6 -3.8 L-39.4 -28.25" fill="url(#decoration281-gradient11)" fill-rule="evenodd" stroke="none"/>
      <path d="M43.5 -54.4 L43.85 -54.25 44.0 -53.9 44.0 -31.8 43.85 -31.45 43.5 -31.3 -44.6 -31.3 Q-44.8 -31.3 -44.95 -31.45 L-45.1 -31.8 -45.1 -53.9 -44.95 -54.25 -44.6 -54.4 43.5 -54.4 M-44.1 -37.85 L-44.1 -32.3 43.0 -32.3 43.0 -37.85 43.0 -46.35 43.0 -53.4 -44.1 -53.4 -44.1 -46.35 -44.1 -37.85" fill="url(#decoration281-gradient12)" fill-rule="evenodd" stroke="none"/>
      <path d="M-44.1 -37.85 L-44.1 -46.35 43.0 -46.35 43.0 -37.85 -44.1 -37.85" fill="url(#decoration281-gradient13)" fill-rule="evenodd" stroke="none"/>
      <path d="M43.0 -37.85 L43.0 -32.3 -44.1 -32.3 -44.1 -37.85 43.0 -37.85" fill="url(#decoration281-gradient14)" fill-rule="evenodd" stroke="none"/>
      <path d="M-44.1 -46.35 L-44.1 -53.4 43.0 -53.4 43.0 -46.35 -44.1 -46.35" fill="url(#decoration281-gradient15)" fill-rule="evenodd" stroke="none"/>
      <path d="M43.5 -54.4 L-44.6 -54.4 -44.95 -54.25 -45.1 -53.9 -45.1 -31.8 -44.95 -31.45 Q-44.8 -31.3 -44.6 -31.3 L43.5 -31.3 43.85 -31.45 44.0 -31.8 44.0 -53.9 43.85 -54.25 43.5 -54.4 Z" fill="none" stroke="#000000" stroke-linecap="round" stroke-linejoin="round" stroke-opacity="0.29803923" stroke-width="0.30000000000000004"/>
      <path d="M-7.2 -54.4 L-7.55 -53.85 -7.75 -53.4 Q-10.1 -48.65 -11.65 -46.45 L-11.7 -46.35 Q-14.1 -42.6 -18.15 -40.2 -20.25 -39.05 -21.05 -37.85 L-21.5 -37.05 Q-21.9 -36.0 -21.5 -34.4 L-20.95 -32.3 -20.9 -31.8 -20.85 -31.3 -44.6 -31.3 Q-44.8 -31.3 -44.95 -31.45 L-45.1 -31.8 -45.1 -53.9 -44.95 -54.25 -44.6 -54.4 -7.2 -54.4" fill="url(#decoration281-gradient16)" fill-rule="evenodd" stroke="none"/>
      <path d="M22.75 -40.2 Q22.25 -41.55 20.9 -42.05 19.75 -42.55 18.2 -42.55 L14.8 -42.4 13.45 -41.6 12.35 -40.5 Q10.1 -38.65 7.4 -38.15 L4.9 -38.05 Q3.45 -38.25 2.9 -39.4 1.95 -40.6 2.7 -41.85 3.1 -42.4 3.85 -42.5 4.55 -42.6 5.05 -42.2 5.6 -41.85 5.5 -41.15 5.5 -40.4 4.9 -40.05" fill="none" stroke="#000000" stroke-linecap="round" stroke-linejoin="round" stroke-opacity="0.32941177" stroke-width="2.0"/>
      <path d="M33.0 -31.7 L-36.05 -31.7 -36.05 -37.05 33.0 -37.05 33.0 -31.7" fill="#000000" fill-opacity="0.32941177" fill-rule="evenodd" stroke="none"/>
      <path d="M21.0 -32.45 L21.0 -34.7 21.0 -32.45 17.25 -32.45 17.25 -34.7 17.25 -32.45 13.15 -32.45 9.25 -32.45 5.2 -32.45 0.9 -32.45 0.9 -34.7 0.9 -32.45 -2.85 -32.45 -2.85 -34.7 -2.85 -32.45 -6.5 -32.45 -10.55 -32.45 -10.55 -34.7 -10.55 -32.45 -14.8 -32.45 -18.65 -32.45 -23.2 -32.45 -26.75 -32.45 -30.6 -32.45 -34.65 -32.45 -34.65 -34.7 -30.6 -34.7 -26.75 -34.7 -23.2 -34.7 -18.65 -34.7 -14.8 -34.7 -10.55 -34.7 -6.5 -34.7 -6.5 -32.45 -6.5 -34.7 -2.85 -34.7 0.9 -34.7 5.2 -34.7 9.25 -34.7 13.15 -34.7 17.25 -34.7 21.0 -34.7 24.4 -34.7 27.8 -34.7 31.2 -34.7 31.2 -32.45 27.8 -32.45 24.4 -32.45 21.0 -32.45 M24.4 -34.7 L24.4 -32.45 24.4 -34.7 M27.8 -32.45 L27.8 -34.7 27.8 -32.45 M5.2 -34.7 L5.2 -32.45 5.2 -34.7 M13.15 -32.45 L13.15 -34.7 13.15 -32.45 M9.25 -32.45 L9.25 -34.7 9.25 -32.45 M-14.8 -32.45 L-14.8 -34.7 -14.8 -32.45 M-18.65 -32.45 L-18.65 -34.7 -18.65 -32.45 M-23.2 -32.45 L-23.2 -34.7 -23.2 -32.45 M-26.75 -32.45 L-26.75 -34.7 -26.75 -32.45 M-30.6 -32.45 L-30.6 -34.7 -30.6 -32.45" fill="url(#decoration281-gradient17)" fill-rule="evenodd" stroke="none"/>
      <path d="M21.0 -34.7 L21.0 -32.45 24.4 -32.45 24.4 -34.7 21.0 -34.7 17.25 -34.7 17.25 -32.45 21.0 -32.45 M24.4 -34.7 L27.8 -34.7 31.2 -34.7 31.2 -32.45 27.8 -32.45 24.4 -32.45 M27.8 -34.7 L27.8 -32.45 M0.9 -34.7 L0.9 -32.45 5.2 -32.45 5.2 -34.7 0.9 -34.7 -2.85 -34.7 -2.85 -32.45 0.9 -32.45 M17.25 -32.45 L13.15 -32.45 9.25 -32.45 5.2 -32.45 M5.2 -34.7 L9.25 -34.7 13.15 -34.7 17.25 -34.7 M9.25 -34.7 L9.25 -32.45 M13.15 -34.7 L13.15 -32.45 M-10.55 -34.7 L-10.55 -32.45 -6.5 -32.45 -6.5 -34.7 -10.55 -34.7 -14.8 -34.7 -14.8 -32.45 -10.55 -32.45 M-14.8 -32.45 L-18.65 -32.45 -23.2 -32.45 -26.75 -32.45 -30.6 -32.45 -34.65 -32.45 -34.65 -34.7 -30.6 -34.7 -26.75 -34.7 -23.2 -34.7 -18.65 -34.7 -14.8 -34.7 M-18.65 -34.7 L-18.65 -32.45 M-6.5 -34.7 L-2.85 -34.7 M-2.85 -32.45 L-6.5 -32.45 M-30.6 -34.7 L-30.6 -32.45 M-26.75 -34.7 L-26.75 -32.45 M-23.2 -34.7 L-23.2 -32.45" fill="none" stroke="#000000" stroke-linecap="round" stroke-linejoin="round" stroke-opacity="0.14117648" stroke-width="0.30000000000000004"/>
      <path d="M-29.75 -34.65 L-31.45 -34.65 -31.45 -36.05 -29.75 -36.05 -29.75 -34.65 M-25.9 -34.65 L-27.6 -34.65 -27.6 -36.05 -25.9 -36.05 -25.9 -34.65 M-2.0 -34.65 L-3.7 -34.65 -3.7 -36.05 -2.0 -36.05 -2.0 -34.65 M-17.8 -36.05 L-17.8 -34.65 -19.5 -34.65 -19.5 -36.05 -17.8 -36.05 M-11.8 -34.65 L-11.8 -36.0 -10.1 -36.0 -10.1 -34.65 -11.8 -34.65 M-14.2 -36.0 L-14.2 -34.65 -15.9 -34.65 -15.9 -36.0 -14.2 -36.0 M12.3 -34.7 L12.3 -36.1 14.0 -36.1 14.0 -34.7 12.3 -34.7 M18.1 -34.7 L16.4 -34.7 16.4 -36.1 18.1 -36.1 18.1 -34.7 M0.05 -34.6 L0.05 -36.0 1.75 -36.0 1.75 -34.6 0.05 -34.6 M4.35 -36.0 L6.05 -36.0 6.05 -34.65 4.35 -34.65 4.35 -36.0 M23.55 -34.7 L23.55 -36.1 25.25 -36.1 25.25 -34.7 23.55 -34.7 M26.95 -34.7 L26.95 -36.1 28.65 -36.1 28.65 -34.7 26.95 -34.7" fill="#000000" fill-rule="evenodd" stroke="none"/>
      <path d="M26.95 -34.7 L28.65 -34.7 28.65 -36.1 26.95 -36.1 26.95 -34.7 M23.55 -34.7 L25.25 -34.7 25.25 -36.1 23.55 -36.1 23.55 -34.7 M4.35 -36.0 L4.35 -34.65 6.05 -34.65 6.05 -36.0 4.35 -36.0 M0.05 -34.6 L1.75 -34.6 1.75 -36.0 0.05 -36.0 0.05 -34.6 M18.1 -34.7 L18.1 -36.1 16.4 -36.1 16.4 -34.7 18.1 -34.7 M12.3 -34.7 L14.0 -34.7 14.0 -36.1 12.3 -36.1 12.3 -34.7 M-14.2 -36.0 L-15.9 -36.0 -15.9 -34.65 -14.2 -34.65 -14.2 -36.0 M-11.8 -34.65 L-10.1 -34.65 -10.1 -36.0 -11.8 -36.0 -11.8 -34.65 M-17.8 -36.05 L-19.5 -36.05 -19.5 -34.65 -17.8 -34.65 -17.8 -36.05 M-2.0 -34.65 L-2.0 -36.05 -3.7 -36.05 -3.7 -34.65 -2.0 -34.65 M-25.9 -34.65 L-25.9 -36.05 -27.6 -36.05 -27.6 -34.65 -25.9 -34.65 M-29.75 -34.65 L-29.75 -36.05 -31.45 -36.05 -31.45 -34.65 -29.75 -34.65 Z" fill="none" stroke="#000000" stroke-linecap="round" stroke-linejoin="round" stroke-opacity="0.14117648" stroke-width="0.30000000000000004"/>
      <path d="M9.25 -67.25 L17.45 -67.25 17.45 -48.65 -18.6 -48.65 -18.6 -67.25 -10.2 -67.25 0.0 -72.45 9.25 -67.25" fill="url(#decoration281-gradient18)" fill-rule="evenodd" stroke="none"/>
      <path d="M9.25 -67.25 L17.45 -67.25 17.45 -48.65 -18.6 -48.65 -18.6 -67.25 -10.2 -67.25 0.0 -72.45 9.25 -67.25 Z" fill="none" stroke="#000000" stroke-linecap="round" stroke-linejoin="round" stroke-opacity="0.29803923" stroke-width="0.30000000000000004"/>
      <path d="M15.8 -47.85 L-16.5 -48.35 -16.5 -65.6 15.8 -65.6 15.8 -47.85" fill="#000000" fill-opacity="0.32941177" fill-rule="evenodd" stroke="none"/>
      <path d="M14.4 -46.85 L-0.55 -46.85 -0.55 -64.1 14.4 -64.1 14.4 -46.85" fill="url(#decoration281-gradient19)" fill-rule="evenodd" stroke="none"/>
      <path d="M14.4 -46.85 L-0.55 -46.85 -0.55 -64.1 14.4 -64.1 14.4 -46.85 Z" fill="none" stroke="#000000" stroke-linecap="round" stroke-linejoin="round" stroke-opacity="0.14117648" stroke-width="0.30000000000000004"/>
      <path d="M18.0 -43.05 L-18.3 -43.05 -23.2 -48.65 23.1 -48.65 18.0 -43.05" fill="#000000" fill-opacity="0.32941177" fill-rule="evenodd" stroke="none"/>
      <path d="M-15.25 -64.1 L-0.3 -64.1 -0.3 -46.85 -15.25 -46.85 -15.25 -64.1" fill="url(#decoration281-gradient20)" fill-rule="evenodd" stroke="none"/>
      <path d="M-15.25 -64.1 L-15.25 -46.85 -0.3 -46.85 -0.3 -64.1 -15.25 -64.1 Z" fill="none" stroke="#000000" stroke-linecap="round" stroke-linejoin="round" stroke-opacity="0.14117648" stroke-width="0.30000000000000004"/>
      <path d="M15.65 -45.95 L14.7 -45.05 -15.65 -45.05 -16.55 -45.95 15.65 -45.95" fill="#492304" fill-rule="evenodd" stroke="none"/>
      <path d="M-16.55 -45.95 L-19.4 -48.65 18.4 -48.65 15.65 -45.95 -16.55 -45.95" fill="url(#decoration281-gradient21)" fill-rule="evenodd" stroke="none"/>
      <path d="M-16.55 -45.95 L-19.4 -48.65 18.4 -48.65 15.65 -45.95 14.7 -45.05 -15.65 -45.05 -16.55 -45.95 Z" fill="none" stroke="#000000" stroke-linecap="round" stroke-linejoin="round" stroke-opacity="0.29803923" stroke-width="0.30000000000000004"/>
      <path d="M-19.4 -48.65 L8.5 -48.65" fill="none" stroke="#000000" stroke-linecap="round" stroke-linejoin="round" stroke-opacity="0.14117648" stroke-width="0.30000000000000004"/>
      <path d="M1.1 -52.05 L12.2 -52.05 M1.2 -53.35 L12.05 -53.35 M1.25 -55.3 L11.8 -55.3 M1.2 -56.55 L11.75 -56.55 M1.25 -57.85 L11.9 -57.85 M1.55 -61.25 L12.1 -61.25 M1.45 -60.0 L12.05 -60.0 M1.4 -62.55 L12.3 -62.55 M1.05 -50.7 L12.05 -50.7" fill="none" stroke="#000000" stroke-linecap="round" stroke-linejoin="round" stroke-opacity="0.3019608" stroke-width="0.1"/>
      <path d="M-13.8 -52.0 L-2.7 -52.0 M-13.7 -53.3 L-2.85 -53.3 M-13.65 -55.25 L-3.1 -55.25 M-13.7 -56.5 L-3.15 -56.5 M-13.65 -57.8 L-3.0 -57.8 M-13.35 -61.2 L-2.8 -61.2 M-13.45 -59.95 L-2.85 -59.95 M-13.5 -62.5 L-2.6 -62.5 M-13.85 -50.65 L-2.85 -50.65" fill="none" stroke="#000000" stroke-linecap="round" stroke-linejoin="round" stroke-opacity="0.3019608" stroke-width="0.1"/>
      <path d="M3.65 -63.35 Q4.2 -63.45 4.2 -63.05 4.2 -62.65 3.3 -62.55 L3.3 -60.3 1.5 -60.3 1.5 -62.55 Q1.55 -63.25 2.1 -63.35 2.7 -63.45 2.65 -63.05 2.65 -62.65 1.75 -62.55 L1.75 -60.85 3.0 -60.85 3.0 -62.55 Q3.1 -63.25 3.65 -63.35" fill="#948c86" fill-rule="evenodd" stroke="none"/>
      <path d="M-4.5 -52.0 Q-4.45 -52.7 -3.9 -52.8 -3.3 -52.9 -3.35 -52.5 -3.35 -52.1 -4.25 -52.0 L-4.25 -50.3 -3.0 -50.3 -3.0 -52.0 Q-2.9 -52.7 -2.35 -52.8 -1.8 -52.9 -1.8 -52.5 -1.8 -52.1 -2.7 -52.0 L-2.7 -49.75 -4.5 -49.75 -4.5 -52.0" fill="#948c86" fill-rule="evenodd" stroke="none"/>
      <path d="M-7.05 -58.15 Q-7.0 -58.65 -5.95 -58.75 L-5.95 -61.45 -5.6 -61.45 -5.6 -58.75 Q-5.7 -57.9 -6.35 -57.8 -7.05 -57.7 -7.05 -58.15" fill="#948c86" fill-rule="evenodd" stroke="none"/>
      <path d="M10.1 -55.65 Q10.15 -56.15 11.2 -56.25 L11.2 -58.95 11.55 -58.95 11.55 -56.25 Q11.45 -55.4 10.8 -55.3 10.1 -55.2 10.1 -55.65" fill="#948c86" fill-rule="evenodd" stroke="none"/>
      <path d="M-11.85 -59.55 L-11.95 -59.55 -11.85 -58.1 Q-11.25 -58.2 -11.25 -58.95 -11.3 -59.45 -11.85 -59.55 M-12.45 -59.9 Q-11.25 -60.15 -11.05 -59.2 -10.8 -58.2 -11.85 -57.75 -11.6 -56.3 -12.5 -56.2 -13.2 -56.1 -13.4 -56.7 L-13.15 -57.1 -12.8 -56.85 Q-12.8 -56.55 -13.15 -56.6 L-12.95 -56.4 -12.65 -56.35 -12.2 -56.5 Q-11.85 -57.0 -12.05 -57.75 -13.4 -57.65 -13.85 -58.45 -14.3 -59.35 -13.8 -60.1 L-12.6 -61.2 Q-12.65 -63.0 -11.7 -63.35 -10.8 -63.15 -11.25 -61.6 -11.55 -61.0 -13.2 -60.1 -14.05 -59.45 -13.5 -58.45 -13.25 -57.95 -12.05 -58.0 L-12.2 -59.55 -12.75 -59.2 Q-13.05 -58.85 -12.55 -58.35 -13.25 -58.6 -13.1 -59.25 L-12.45 -59.9 M-12.3 -61.35 Q-11.2 -62.0 -11.55 -62.95 -12.4 -62.7 -12.3 -61.35" fill="#948c86" fill-rule="evenodd" stroke="none"/>
      <path d="M-10.85 -52.8 Q-11.4 -52.7 -11.4 -53.1 L-10.5 -53.6 -10.5 -55.85 -8.7 -55.85 -8.7 -53.6 Q-8.75 -52.9 -9.3 -52.8 -9.9 -52.7 -9.85 -53.1 -9.85 -53.5 -8.95 -53.6 L-8.95 -55.3 -10.2 -55.3 -10.2 -53.6 Q-10.3 -52.9 -10.85 -52.8" fill="#948c86" fill-rule="evenodd" stroke="none"/>
      <path d="M6.9 -50.25 Q6.35 -50.15 6.35 -50.55 6.35 -50.95 7.25 -51.05 L7.25 -53.3 9.05 -53.3 9.05 -51.05 Q9.0 -50.35 8.45 -50.25 7.85 -50.15 7.9 -50.55 7.9 -50.95 8.8 -51.05 L8.8 -52.75 7.55 -52.75 7.55 -51.05 Q7.45 -50.35 6.9 -50.25" fill="#948c86" fill-rule="evenodd" stroke="none"/>
      <path d="M5.2 -58.15 Q5.25 -58.65 6.3 -58.75 L6.3 -61.45 6.65 -61.45 6.65 -58.75 Q6.55 -57.9 5.9 -57.8 5.2 -57.7 5.2 -58.15" fill="#948c86" fill-rule="evenodd" stroke="none"/>
      <path d="M34.0 -41.2 L32.7 -41.45 Q32.05 -41.25 31.8 -40.85 31.0 -39.85 31.95 -38.55 32.6 -37.7 34.1 -37.45 35.75 -37.45 36.3 -38.0 37.05 -38.55 37.4 -40.35 37.4 -42.55 36.85 -43.25 35.75 -44.65 32.9 -44.65 L30.65 -44.65 Q29.3 -44.8 28.55 -45.2 27.3 -45.7 26.9 -47.15 26.4 -48.5 26.9 -49.75" fill="none" stroke="#000000" stroke-linecap="round" stroke-linejoin="round" stroke-opacity="0.32941177" stroke-width="2.0"/>
      <path d="M34.65 -41.7 Q34.1 -42.15 33.35 -41.95 32.7 -41.75 32.45 -41.35 31.65 -40.35 32.6 -39.05 33.25 -38.2 34.75 -37.95 36.4 -37.95 36.95 -38.5 37.7 -39.05 38.05 -40.85 38.05 -43.05 37.5 -43.75 36.4 -45.15 33.55 -45.15 L31.3 -45.15 Q29.95 -45.3 29.2 -45.7 27.95 -46.2 27.55 -47.65 27.05 -49.0 27.55 -50.25" fill="none" stroke="url(#decoration281-gradient22)" stroke-linecap="round" stroke-linejoin="round" stroke-width="0.8"/>
      <path d="M22.05 -41.5 Q21.55 -42.85 20.2 -43.35 L17.5 -43.85 14.1 -43.7 Q13.5 -43.5 12.75 -42.9 L11.65 -41.8 Q9.4 -39.95 6.7 -39.45 L4.2 -39.35 Q2.75 -39.55 2.2 -40.7 1.25 -41.9 2.0 -43.15 2.4 -43.7 3.15 -43.8 L4.35 -43.5 Q4.9 -43.15 4.8 -42.45 4.8 -41.7 4.2 -41.35" fill="none" stroke="url(#decoration281-gradient23)" stroke-linecap="round" stroke-linejoin="round" stroke-width="0.8"/>
      <path d="M-35.55 -40.6 L-34.25 -40.85 Q-33.6 -40.65 -33.35 -40.25 -32.55 -39.25 -33.5 -37.95 -34.15 -37.1 -35.65 -36.85 -37.3 -36.85 -37.85 -37.4 -38.6 -37.95 -38.95 -39.75 -38.95 -41.95 -38.4 -42.65 -37.3 -44.05 -34.45 -44.05 L-32.2 -44.05 Q-30.85 -44.2 -30.1 -44.6 -28.85 -45.1 -28.45 -46.55 -27.95 -47.9 -28.45 -49.15" fill="none" stroke="#000000" stroke-linecap="round" stroke-linejoin="round" stroke-opacity="0.32941177" stroke-width="2.0"/>
      <path d="M-36.55 -41.05 Q-36.05 -41.55 -35.3 -41.3 -34.65 -41.15 -34.4 -40.7 -33.55 -39.7 -34.55 -38.4 -35.2 -37.55 -36.7 -37.3 -38.35 -37.3 -38.9 -37.85 -39.65 -38.4 -39.95 -40.2 -39.95 -42.4 -39.45 -43.1 -38.35 -44.55 -35.45 -44.55 L-33.25 -44.55 -31.15 -45.05 Q-29.9 -45.55 -29.5 -47.0 -29.0 -48.35 -29.5 -49.6" fill="none" stroke="url(#decoration281-gradient24)" stroke-linecap="round" stroke-linejoin="round" stroke-width="0.8"/>
      <path d="M-21.6 -40.6 Q-21.1 -41.95 -19.75 -42.45 L-17.05 -42.95 -13.65 -42.8 -12.3 -42.0 -11.2 -40.9 Q-8.95 -39.05 -6.25 -38.55 L-3.75 -38.45 Q-2.3 -38.65 -1.75 -39.8 -0.8 -41.0 -1.55 -42.25 -1.95 -42.8 -2.7 -42.9 L-3.9 -42.6 Q-4.45 -42.25 -4.35 -41.55 -4.35 -40.8 -3.75 -40.45" fill="none" stroke="#000000" stroke-linecap="round" stroke-linejoin="round" stroke-opacity="0.32941177" stroke-width="2.0"/>
      <path d="M-22.2 -41.5 Q-21.7 -42.85 -20.35 -43.35 L-17.65 -43.85 -14.25 -43.7 Q-13.65 -43.5 -12.9 -42.9 L-11.8 -41.8 Q-9.55 -39.95 -6.85 -39.45 L-4.35 -39.35 Q-2.9 -39.55 -2.35 -40.7 -1.4 -41.9 -2.15 -43.15 -2.55 -43.7 -3.3 -43.8 L-4.5 -43.5 Q-5.05 -43.15 -4.95 -42.45 -4.95 -41.7 -4.35 -41.35" fill="none" stroke="url(#decoration281-gradient25)" stroke-linecap="round" stroke-linejoin="round" stroke-width="0.8"/>
      <path d="M16.95 -47.25 L-18.0 -47.25 -19.45 -48.6 18.35 -48.6 16.95 -47.25" fill="url(#decoration281-gradient26)" fill-rule="evenodd" stroke="none"/>
      <path d="M17.45 -66.3 L-18.6 -66.3 -18.6 -67.25 -10.2 -67.25 0.0 -72.45 9.25 -67.25 17.45 -67.25 17.45 -66.3" fill="url(#decoration281-gradient27)" fill-rule="evenodd" stroke="none"/>
      <path d="M-29.85 -73.75 L-29.0 -73.25 -36.35 -60.5 -37.2 -61.0 -29.85 -73.75" fill="url(#decoration281-gradient28)" fill-rule="evenodd" stroke="none"/>
      <path d="M45.6 -27.75 L-46.6 -27.75 -46.6 -32.6 45.6 -32.6 45.6 -27.75" fill="url(#decoration281-gradient29)" fill-rule="evenodd" stroke="none"/>
      <path d="M45.6 -27.75 L-46.6 -27.75 -46.6 -32.6 45.6 -32.6 45.6 -27.75 Z" fill="none" stroke="#000000" stroke-linecap="round" stroke-linejoin="round" stroke-opacity="0.29803923" stroke-width="0.30000000000000004"/>
      <path d="M45.6 -31.2 L-46.6 -31.2 -46.6 -32.6 45.6 -32.6 45.6 -31.2" fill="url(#decoration281-gradient30)" fill-rule="evenodd" stroke="none"/>
      <path d="M45.6 -27.75 L-46.6 -27.75 -46.6 -29.45 45.6 -29.45 45.6 -27.75" fill="#492304" fill-rule="evenodd" stroke="none"/>
    </g>
    <linearGradient gradientTransform="matrix(0.0053, -0.0031, 0.0055, 0.0095, -26.45, -77.9)" gradientUnits="userSpaceOnUse" id="decoration281-gradient0" spreadMethod="pad" x1="-819.2" x2="819.2">
      <stop offset="0.0" stop-color="#804719"/>
      <stop offset="1.0" stop-color="#492304"/>
    </linearGradient>
    <linearGradient gradientTransform="matrix(0.0055, -0.0055, 0.0081, 0.0081, -32.65, -67.05)" gradientUnits="userSpaceOnUse" id="decoration281-gradient1" spreadMethod="pad" x1="-819.2" x2="819.2">
      <stop offset="0.0" stop-color="#9f5922"/>
      <stop offset="0.44313725490196076" stop-color="#d39363"/>
      <stop offset="1.0" stop-color="#9f5a24"/>
    </linearGradient>
    <linearGradient gradientTransform="matrix(-0.0018, 0.0031, -0.0065, -0.0038, -39.35, -55.45)" gradientUnits="userSpaceOnUse" id="decoration281-gradient2" spreadMethod="pad" x1="-819.2" x2="819.2">
      <stop offset="0.0" stop-color="#804719"/>
      <stop offset="1.0" stop-color="#492304"/>
    </linearGradient>
    <linearGradient gradientTransform="matrix(0.0462, 0.0, 0.0, 0.0285, 4.05, -74.95)" gradientUnits="userSpaceOnUse" id="decoration281-gradient3" spreadMethod="pad" x1="-819.2" x2="819.2">
      <stop offset="0.0" stop-color="#9f5922"/>
      <stop offset="0.44313725490196076" stop-color="#d39363"/>
      <stop offset="1.0" stop-color="#9f5a24"/>
    </linearGradient>
    <linearGradient gradientTransform="matrix(0.0165, 0.0, 0.0, 0.0285, -14.15, -85.6)" gradientUnits="userSpaceOnUse" id="decoration281-gradient4" spreadMethod="pad" x1="-819.2" x2="819.2">
      <stop offset="0.0" stop-color="#804719"/>
      <stop offset="1.0" stop-color="#492304"/>
    </linearGradient>
    <linearGradient gradientTransform="matrix(0.0462, 0.0, 0.0, 0.0285, 4.05, -74.95)" gradientUnits="userSpaceOnUse" id="decoration281-gradient5" spreadMethod="pad" x1="-819.2" x2="819.2">
      <stop offset="0.0" stop-color="#ffffff" stop-opacity="0.28627452"/>
      <stop offset="1.0" stop-color="#ffffff" stop-opacity="0.09803922"/>
    </linearGradient>
    <linearGradient gradientTransform="matrix(0.0057, 0.0, 0.0, 0.0207, 34.5, -16.75)" gradientUnits="userSpaceOnUse" id="decoration281-gradient6" spreadMethod="pad" x1="-819.2" x2="819.2">
      <stop offset="0.0" stop-color="#804719"/>
      <stop offset="1.0" stop-color="#492304"/>
    </linearGradient>
    <linearGradient gradientTransform="matrix(0.0057, 0.0, 0.0, 0.0207, 34.5, -16.75)" gradientUnits="userSpaceOnUse" id="decoration281-gradient7" spreadMethod="pad" x1="-819.2" x2="819.2">
      <stop offset="0.0" stop-color="#a0683e"/>
      <stop offset="1.0" stop-color="#7a4114"/>
    </linearGradient>
    <radialGradient cx="0" cy="0" gradientTransform="matrix(0.0156, 0.0, 0.0, 0.0158, 32.3, -16.1)" gradientUnits="userSpaceOnUse" id="decoration281-gradient8" r="819.2" spreadMethod="pad">
      <stop offset="0.0" stop-color="#ffffff" stop-opacity="0.54901963"/>
      <stop offset="1.0" stop-color="#ffffff" stop-opacity="0.0"/>
    </radialGradient>
    <linearGradient gradientTransform="matrix(0.0056, 0.0, 0.0, 0.0206, -35.65, -17.05)" gradientUnits="userSpaceOnUse" id="decoration281-gradient9" spreadMethod="pad" x1="-819.2" x2="819.2">
      <stop offset="0.0" stop-color="#804719"/>
      <stop offset="1.0" stop-color="#492304"/>
    </linearGradient>
    <linearGradient gradientTransform="matrix(0.0056, 0.0, 0.0, 0.0206, -35.65, -17.05)" gradientUnits="userSpaceOnUse" id="decoration281-gradient10" spreadMethod="pad" x1="-819.2" x2="819.2">
      <stop offset="0.0" stop-color="#a0683e"/>
      <stop offset="1.0" stop-color="#7a4114"/>
    </linearGradient>
    <radialGradient cx="0" cy="0" gradientTransform="matrix(0.0155, 0.0, 0.0, 0.0157, -37.65, -16.4)" gradientUnits="userSpaceOnUse" id="decoration281-gradient11" r="819.2" spreadMethod="pad">
      <stop offset="0.0" stop-color="#ffffff" stop-opacity="0.54901963"/>
      <stop offset="1.0" stop-color="#ffffff" stop-opacity="0.0"/>
    </radialGradient>
    <linearGradient gradientTransform="matrix(0.055, 0.0, 0.0, 0.0147, -0.55, -42.85)" gradientUnits="userSpaceOnUse" id="decoration281-gradient12" spreadMethod="pad" x1="-819.2" x2="819.2">
      <stop offset="0.4117647058823529" stop-color="#c68555"/>
      <stop offset="0.9529411764705882" stop-color="#ffc395"/>
    </linearGradient>
    <linearGradient gradientTransform="matrix(0.0538, 0.0, 0.0, 0.0135, -0.6, -42.95)" gradientUnits="userSpaceOnUse" id="decoration281-gradient13" spreadMethod="pad" x1="-819.2" x2="819.2">
      <stop offset="0.0" stop-color="#7a4114"/>
      <stop offset="0.44313725490196076" stop-color="#a0683e"/>
      <stop offset="1.0" stop-color="#7a4114"/>
    </linearGradient>
    <linearGradient gradientTransform="matrix(0.0538, 0.0, 0.0, 0.0135, -0.6, -42.95)" gradientUnits="userSpaceOnUse" id="decoration281-gradient14" spreadMethod="pad" x1="-819.2" x2="819.2">
      <stop offset="0.0" stop-color="#643510"/>
      <stop offset="0.44313725490196076" stop-color="#84522d"/>
      <stop offset="1.0" stop-color="#5c300d"/>
    </linearGradient>
    <linearGradient gradientTransform="matrix(0.0538, 0.0, 0.0, 0.0135, -0.6, -42.95)" gradientUnits="userSpaceOnUse" id="decoration281-gradient15" spreadMethod="pad" x1="-819.2" x2="819.2">
      <stop offset="0.0" stop-color="#9f5922"/>
      <stop offset="0.44313725490196076" stop-color="#d39363"/>
      <stop offset="1.0" stop-color="#9f5a24"/>
    </linearGradient>
    <radialGradient cx="0" cy="0" gradientTransform="matrix(0.0223, 0.0, 0.0, 0.0223, -34.75, -48.7)" gradientUnits="userSpaceOnUse" id="decoration281-gradient16" r="819.2" spreadMethod="pad">
      <stop offset="0.0" stop-color="#ffffff" stop-opacity="0.54901963"/>
      <stop offset="1.0" stop-color="#ffffff" stop-opacity="0.0"/>
    </radialGradient>
    <linearGradient gradientTransform="matrix(0.0, 0.0013, 0.0016, 0.0, 3.0, -33.35)" gradientUnits="userSpaceOnUse" id="decoration281-gradient17" spreadMethod="pad" x1="-819.2" x2="819.2">
      <stop offset="0.043137254901960784" stop-color="#ded4cf"/>
      <stop offset="0.9921568627450981" stop-color="#b8a8a1"/>
    </linearGradient>
    <linearGradient gradientTransform="matrix(0.0215, 0.0, 0.0, 0.0114, -0.6, -57.95)" gradientUnits="userSpaceOnUse" id="decoration281-gradient18" spreadMethod="pad" x1="-819.2" x2="819.2">
      <stop offset="0.0" stop-color="#9f5922"/>
      <stop offset="0.44313725490196076" stop-color="#d39363"/>
      <stop offset="1.0" stop-color="#9f5a24"/>
    </linearGradient>
    <linearGradient gradientTransform="matrix(0.0091, 0.0, 0.0, 0.0105, 6.9, -55.5)" gradientUnits="userSpaceOnUse" id="decoration281-gradient19" spreadMethod="pad" x1="-819.2" x2="819.2">
      <stop offset="0.0" stop-color="#ffebd1"/>
      <stop offset="0.00392156862745098" stop-color="#ffebd1"/>
      <stop offset="0.3333333333333333" stop-color="#fff7ed"/>
      <stop offset="1.0" stop-color="#c7a67b"/>
    </linearGradient>
    <linearGradient gradientTransform="matrix(-0.0091, 0.0, 0.0, 0.0105, -7.75, -55.5)" gradientUnits="userSpaceOnUse" id="decoration281-gradient20" spreadMethod="pad" x1="-819.2" x2="819.2">
      <stop offset="0.0" stop-color="#ffebd1"/>
      <stop offset="0.00392156862745098" stop-color="#ffebd1"/>
      <stop offset="0.3333333333333333" stop-color="#fff7ed"/>
      <stop offset="1.0" stop-color="#c7a67b"/>
    </linearGradient>
    <linearGradient gradientTransform="matrix(0.0176, 0.0, 0.0, 0.0022, -0.45, -46.9)" gradientUnits="userSpaceOnUse" id="decoration281-gradient21" spreadMethod="pad" x1="-819.2" x2="819.2">
      <stop offset="0.0" stop-color="#7a4114"/>
      <stop offset="0.44313725490196076" stop-color="#a0683e"/>
      <stop offset="1.0" stop-color="#7a4114"/>
    </linearGradient>
    <linearGradient gradientTransform="matrix(-0.0024, 0.0042, -0.0068, -0.0039, 33.2, -46.0)" gradientUnits="userSpaceOnUse" id="decoration281-gradient22" spreadMethod="pad" x1="-819.2" x2="819.2">
      <stop offset="0.4117647058823529" stop-color="#c68555"/>
      <stop offset="0.9529411764705882" stop-color="#ffc395"/>
    </linearGradient>
    <linearGradient gradientTransform="matrix(-6.0E-4, -0.0023, -0.0032, 8.0E-4, 12.5, -41.6)" gradientUnits="userSpaceOnUse" id="decoration281-gradient23" spreadMethod="pad" x1="-819.2" x2="819.2">
      <stop offset="0.4117647058823529" stop-color="#c68555"/>
      <stop offset="0.9529411764705882" stop-color="#ffc395"/>
    </linearGradient>
    <linearGradient gradientTransform="matrix(0.0022, 0.004, 0.0066, -0.0037, -35.8, -45.95)" gradientUnits="userSpaceOnUse" id="decoration281-gradient24" spreadMethod="pad" x1="-819.2" x2="819.2">
      <stop offset="0.4117647058823529" stop-color="#c68555"/>
      <stop offset="0.9529411764705882" stop-color="#ffc395"/>
    </linearGradient>
    <linearGradient gradientTransform="matrix(6.0E-4, -0.0023, 0.0032, 8.0E-4, -12.65, -41.6)" gradientUnits="userSpaceOnUse" id="decoration281-gradient25" spreadMethod="pad" x1="-819.2" x2="819.2">
      <stop offset="0.4117647058823529" stop-color="#c68555"/>
      <stop offset="0.9529411764705882" stop-color="#ffc395"/>
    </linearGradient>
    <linearGradient gradientTransform="matrix(0.0176, 0.0, 0.0, 0.0022, -0.5, -46.85)" gradientUnits="userSpaceOnUse" id="decoration281-gradient26" spreadMethod="pad" x1="-819.2" x2="819.2">
      <stop offset="0.0" stop-color="#ffffff" stop-opacity="0.28627452"/>
      <stop offset="1.0" stop-color="#ffffff" stop-opacity="0.09803922"/>
    </linearGradient>
    <linearGradient gradientTransform="matrix(-0.0085, -0.0023, 0.0029, -0.011, -4.05, -79.1)" gradientUnits="userSpaceOnUse" id="decoration281-gradient27" spreadMethod="pad" x1="-819.2" x2="819.2">
      <stop offset="0.0" stop-color="#ffffff" stop-opacity="0.28627452"/>
      <stop offset="1.0" stop-color="#ffffff" stop-opacity="0.09803922"/>
    </linearGradient>
    <linearGradient gradientTransform="matrix(5.0E-4, 3.0E-4, -0.0044, 0.0077, -33.1, -67.4)" gradientUnits="userSpaceOnUse" id="decoration281-gradient28" spreadMethod="pad" x1="-819.2" x2="819.2">
      <stop offset="0.0" stop-color="#ffffff" stop-opacity="0.28627452"/>
      <stop offset="1.0" stop-color="#ffffff" stop-opacity="0.09803922"/>
    </linearGradient>
    <linearGradient gradientTransform="matrix(0.0563, 0.0, 0.0, 0.0029, -0.5, -30.2)" gradientUnits="userSpaceOnUse" id="decoration281-gradient29" spreadMethod="pad" x1="-819.2" x2="819.2">
      <stop offset="0.0" stop-color="#7a4114"/>
      <stop offset="0.44313725490196076" stop-color="#a0683e"/>
      <stop offset="1.0" stop-color="#7a4114"/>
    </linearGradient>
    <linearGradient gradientTransform="matrix(0.0245, 0.0, 0.0, 0.0029, -0.5, -30.2)" gradientUnits="userSpaceOnUse" id="decoration281-gradient30" spreadMethod="pad" x1="-819.2" x2="819.2">
      <stop offset="0.0" stop-color="#ffffff" stop-opacity="0.28627452"/>
      <stop offset="1.0" stop-color="#ffffff" stop-opacity="0.09803922"/>
    </linearGradient>
  </defs>
</svg>
