<?xml version="1.0" encoding="UTF-8" standalone="no"?>
<svg xmlns:xlink="http://www.w3.org/1999/xlink" height="20.35px" width="17.05px" xmlns="http://www.w3.org/2000/svg">
  <g transform="matrix(1.0, 0.0, 0.0, 1.0, 7.4, 19.85)">
    <use data-characterId="1" height="20.35" transform="matrix(1.0, 0.0, 0.0, 1.0, -7.4, -19.85)" width="17.05" xlink:href="#decoration285-shape0"/>
  </g>
  <defs>
    <g id="decoration285-shape0" transform="matrix(1.0, 0.0, 0.0, 1.0, 7.4, 19.85)">
      <path d="M-0.3 -0.05 L-0.55 -0.15 Q-4.1 -1.5 -6.4 -2.9 -6.65 -3.65 -4.4 -4.05 -1.5 -4.1 -0.55 -1.1 L-0.3 -0.05 -0.55 -0.3 Q-2.45 -2.35 -4.8 -3.3 -2.45 -2.35 -0.55 -0.3 L-0.3 -0.05" fill="url(#decoration285-gradient0)" fill-rule="evenodd" stroke="none"/>
      <path d="M-0.3 -0.05 L-0.55 -0.3 Q-2.45 -2.35 -4.8 -3.3" fill="none" stroke="#000000" stroke-linecap="round" stroke-linejoin="round" stroke-opacity="0.23137255" stroke-width="0.4"/>
      <path d="M-0.3 -0.05 L-0.55 -1.1 Q-1.5 -4.1 -4.4 -4.05 -6.65 -3.65 -6.4 -2.9 -4.1 -1.5 -0.55 -0.15 L-0.3 -0.05 Z" fill="none" stroke="#000000" stroke-linecap="round" stroke-linejoin="round" stroke-opacity="0.3882353" stroke-width="0.4"/>
      <path d="M6.35 -2.7 Q3.95 -1.25 0.25 0.15 0.95 -3.9 4.35 -3.85 6.6 -3.45 6.35 -2.7 M4.75 -3.1 Q2.25 -2.1 0.25 0.15 2.25 -2.1 4.75 -3.1" fill="url(#decoration285-gradient1)" fill-rule="evenodd" stroke="none"/>
      <path d="M6.35 -2.7 Q3.95 -1.25 0.25 0.15 0.95 -3.9 4.35 -3.85 6.6 -3.45 6.35 -2.7" fill="none" stroke="#000000" stroke-linecap="round" stroke-linejoin="round" stroke-opacity="0.3882353" stroke-width="0.4"/>
      <path d="M0.25 0.15 Q2.25 -2.1 4.75 -3.1" fill="none" stroke="#000000" stroke-linecap="round" stroke-linejoin="round" stroke-opacity="0.23137255" stroke-width="0.4"/>
      <path d="M-0.5 0.25 Q1.1 -5.0 0.85 -11.25 1.5 -5.2 0.25 0.3 L-0.5 0.25" fill="#657e06" fill-rule="evenodd" stroke="none"/>
      <path d="M-0.5 0.25 Q1.1 -5.0 0.85 -11.25 1.5 -5.2 0.25 0.3 L-0.5 0.25 Z" fill="none" stroke="#000000" stroke-linecap="round" stroke-linejoin="round" stroke-opacity="0.3882353" stroke-width="0.4"/>
      <path d="M6.3 -15.15 L6.3 -15.0 Q6.15 -14.45 5.4 -14.0 L5.25 -13.9 5.05 -13.8 Q4.45 -13.55 3.85 -13.45 L1.2 -13.55 0.55 -13.8 Q0.1 -14.05 -0.25 -14.45 -0.95 -15.35 -1.4 -16.95 -1.35 -18.0 -0.25 -17.75 L0.3 -17.55 0.7 -17.7 Q0.8 -16.65 2.6 -15.35 L5.25 -14.95 6.3 -15.15" fill="url(#decoration285-gradient2)" fill-rule="evenodd" stroke="none"/>
      <path d="M6.3 -15.15 L5.25 -14.95 2.6 -15.35 Q0.8 -16.65 0.7 -17.7 1.5 -18.0 2.05 -16.95 2.75 -18.1 3.55 -17.95 4.7 -17.7 5.1 -16.6 L5.25 -16.55 6.05 -15.95 6.3 -15.15" fill="url(#decoration285-gradient3)" fill-rule="evenodd" stroke="none"/>
      <path d="M0.7 -17.7 L0.3 -17.55 -0.25 -17.75 Q-1.35 -18.0 -1.4 -16.95 -0.95 -15.35 -0.25 -14.45 0.1 -14.05 0.55 -13.8 L1.2 -13.55 3.85 -13.45 Q4.45 -13.55 5.05 -13.8 L5.25 -13.9 5.4 -14.0 Q6.15 -14.45 6.3 -15.0 L6.3 -15.15 6.05 -15.95 5.25 -16.55 5.1 -16.6 Q4.7 -17.7 3.55 -17.95 2.75 -18.1 2.05 -16.95 1.5 -18.0 0.7 -17.7 Z" fill="none" stroke="#000000" stroke-linecap="round" stroke-linejoin="round" stroke-opacity="0.3882353" stroke-width="0.4"/>
      <path d="M5.95 -9.55 Q5.15 -9.45 4.8 -10.2 L4.5 -10.85 3.75 -11.5 Q-1.4 -13.45 1.75 -14.0 L4.5 -14.45 5.9 -14.6 Q6.75 -14.6 7.85 -13.9 L8.35 -13.55 8.6 -13.4 7.85 -13.5 Q6.6 -13.75 4.95 -12.25 5.95 -10.9 5.95 -9.55" fill="url(#decoration285-gradient4)" fill-rule="evenodd" stroke="none"/>
      <path d="M5.95 -9.55 Q5.95 -10.9 4.95 -12.25 6.6 -13.75 7.85 -13.5 L8.6 -13.4 Q9.7 -12.5 9.4 -12.0 L9.1 -11.35 9.15 -10.7 9.1 -9.95 8.4 -9.9 7.85 -9.85 7.7 -9.7 Q7.4 -9.3 7.15 -9.4 L6.85 -9.6 6.35 -9.7 5.95 -9.55" fill="url(#decoration285-gradient5)" fill-rule="evenodd" stroke="none"/>
      <path d="M8.6 -13.4 L8.35 -13.55 7.85 -13.9 Q6.75 -14.6 5.9 -14.6 L4.5 -14.45 1.75 -14.0 Q-1.4 -13.45 3.75 -11.5 L4.5 -10.85 4.8 -10.2 Q5.15 -9.45 5.95 -9.55 L6.35 -9.7 6.85 -9.6 7.15 -9.4 Q7.4 -9.3 7.7 -9.7 L7.85 -9.85 8.4 -9.9 9.1 -9.95 9.15 -10.7 9.1 -11.35 9.4 -12.0 Q9.7 -12.5 8.6 -13.4 Z" fill="none" stroke="#000000" stroke-linecap="round" stroke-linejoin="round" stroke-opacity="0.3882353" stroke-width="0.4"/>
      <path d="M-4.75 -14.85 Q-3.35 -15.35 -2.35 -14.45 3.05 -9.5 -2.3 -10.85 -3.1 -11.0 -3.9 -10.35 -3.1 -12.3 -4.75 -14.85" fill="url(#decoration285-gradient6)" fill-rule="evenodd" stroke="none"/>
      <path d="M-3.9 -10.35 L-3.95 -10.35 Q-4.85 -9.9 -5.5 -10.85 L-5.95 -11.05 -6.4 -11.1 -6.85 -11.5 -7.1 -12.05 Q-7.35 -12.75 -6.85 -13.45 L-6.4 -13.9 -4.75 -14.85 Q-3.1 -12.3 -3.9 -10.35" fill="url(#decoration285-gradient7)" fill-rule="evenodd" stroke="none"/>
      <path d="M-3.9 -10.35 L-3.95 -10.35 Q-4.85 -9.9 -5.5 -10.85 L-5.95 -11.05 -6.4 -11.1 -6.85 -11.5 -7.1 -12.05 Q-7.35 -12.75 -6.85 -13.45 L-6.4 -13.9 -4.75 -14.85 Q-3.35 -15.35 -2.35 -14.45 3.05 -9.5 -2.3 -10.85 -3.1 -11.0 -3.9 -10.35 Z" fill="none" stroke="#000000" stroke-linecap="round" stroke-linejoin="round" stroke-opacity="0.3882353" stroke-width="0.4"/>
      <path d="M0.15 -17.05 L1.2 -14.25 Q2.45 -10.4 -1.45 -14.25 -2.05 -14.75 -3.1 -14.6 -4.15 -14.65 -4.2 -15.8 L-4.3 -16.05 Q-0.75 -14.45 0.15 -17.05" fill="url(#decoration285-gradient8)" fill-rule="evenodd" stroke="none"/>
      <path d="M-4.3 -16.05 L-4.45 -16.2 -4.85 -16.45 -5.0 -17.05 -4.95 -17.65 Q-4.8 -18.3 -4.2 -18.6 L-4.0 -18.7 Q-3.75 -19.4 -3.1 -19.6 -2.5 -19.85 -1.25 -18.95 -0.55 -18.45 0.15 -17.05 -0.75 -14.45 -4.3 -16.05" fill="url(#decoration285-gradient9)" fill-rule="evenodd" stroke="none"/>
      <path d="M0.15 -17.05 L1.2 -14.25 Q2.45 -10.4 -1.45 -14.25 -2.05 -14.75 -3.1 -14.6 -4.15 -14.65 -4.2 -15.8 L-4.3 -16.05 -4.45 -16.2 -4.85 -16.45 -5.0 -17.05 -4.95 -17.65 Q-4.8 -18.3 -4.2 -18.6 L-4.0 -18.7 Q-3.75 -19.4 -3.1 -19.6 -2.5 -19.85 -1.25 -18.95 -0.55 -18.45 0.15 -17.05 Z" fill="none" stroke="#000000" stroke-linecap="round" stroke-linejoin="round" stroke-opacity="0.3882353" stroke-width="0.4"/>
      <path d="M1.55 -14.8 Q2.35 -14.75 3.1 -13.9 3.9 -12.9 3.35 -11.95 1.15 -13.4 1.55 -14.8" fill="#8ca91d" fill-rule="evenodd" stroke="none"/>
      <path d="M3.35 -11.95 Q0.9 -11.85 0.15 -14.3 0.85 -14.9 1.55 -14.8 1.15 -13.4 3.35 -11.95" fill="#7b9517" fill-rule="evenodd" stroke="none"/>
      <path d="M3.35 -11.95 Q0.9 -11.85 0.15 -14.3 0.85 -14.9 1.55 -14.8 2.35 -14.75 3.1 -13.9 3.9 -12.9 3.35 -11.95 Z" fill="none" stroke="#000000" stroke-linecap="round" stroke-linejoin="round" stroke-opacity="0.3882353" stroke-width="0.4"/>
      <path d="M2.05 -15.9 L2.3 -15.4 2.35 -15.45 Q2.95 -15.8 3.4 -15.15 3.8 -14.55 3.2 -14.25 2.55 -14.0 2.15 -14.55 L2.0 -14.85 1.85 -14.75 Q1.05 -14.35 0.65 -14.95 0.2 -15.5 0.8 -16.05 1.45 -16.6 2.05 -15.9 M4.1 -13.0 Q4.55 -12.4 3.75 -12.0 3.0 -11.6 2.6 -12.25 2.2 -12.9 2.9 -13.25 3.6 -13.6 4.1 -13.0" fill="#9ebb03" fill-rule="evenodd" stroke="none"/>
      <path d="M3.1 -12.75 L5.4 -12.6 Q6.85 -12.85 6.4 -11.3 5.9 -9.75 3.5 -9.8 1.05 -9.9 -1.55 -10.85 -4.15 -11.8 -4.4 -13.0 -4.7 -14.25 -4.0 -14.65 L-3.05 -14.9 Q-2.5 -15.95 -2.0 -15.1 -0.15 -16.1 0.55 -14.05 L1.15 -12.6 Q1.4 -12.35 1.85 -12.75 2.3 -13.15 3.1 -12.75" fill="url(#decoration285-gradient10)" fill-rule="evenodd" stroke="none"/>
      <path d="M3.1 -12.75 Q2.3 -13.15 1.85 -12.75 1.4 -12.35 1.15 -12.6 L0.55 -14.05 Q-0.15 -16.1 -2.0 -15.1 -2.5 -15.95 -3.05 -14.9 L-4.0 -14.65 Q-4.7 -14.25 -4.4 -13.0 -4.15 -11.8 -1.55 -10.85 1.05 -9.9 3.5 -9.8 5.9 -9.75 6.4 -11.3 6.85 -12.85 5.4 -12.6 L3.1 -12.75 Z" fill="none" stroke="#000000" stroke-linecap="round" stroke-linejoin="round" stroke-opacity="0.3882353" stroke-width="0.4"/>
    </g>
    <linearGradient gradientTransform="matrix(0.0015, 0.001, -0.0026, 0.0031, -2.45, -1.1)" gradientUnits="userSpaceOnUse" id="decoration285-gradient0" spreadMethod="pad" x1="-819.2" x2="819.2">
      <stop offset="0.043137254901960784" stop-color="#96b426"/>
      <stop offset="0.9686274509803922" stop-color="#829f14"/>
    </linearGradient>
    <linearGradient gradientTransform="matrix(-0.0015, 0.001, 0.0026, 0.003, 2.15, -0.7)" gradientUnits="userSpaceOnUse" id="decoration285-gradient1" spreadMethod="pad" x1="-819.2" x2="819.2">
      <stop offset="0.043137254901960784" stop-color="#96b426"/>
      <stop offset="0.9686274509803922" stop-color="#829f14"/>
    </linearGradient>
    <linearGradient gradientTransform="matrix(-0.0013, 0.003, -0.0024, -0.0011, 1.75, -14.4)" gradientUnits="userSpaceOnUse" id="decoration285-gradient2" spreadMethod="pad" x1="-819.2" x2="819.2">
      <stop offset="0.0" stop-color="#b1b1b1"/>
      <stop offset="0.9725490196078431" stop-color="#a3b682"/>
    </linearGradient>
    <linearGradient gradientTransform="matrix(-3.0E-4, 0.0014, -0.0027, -6.0E-4, 2.65, -14.3)" gradientUnits="userSpaceOnUse" id="decoration285-gradient3" spreadMethod="pad" x1="-819.2" x2="819.2">
      <stop offset="0.0" stop-color="#cdcdcd"/>
      <stop offset="0.9725490196078431" stop-color="#cfe5aa"/>
    </linearGradient>
    <linearGradient gradientTransform="matrix(-0.0048, -8.0E-4, 5.0E-4, -0.003, 2.0, -12.6)" gradientUnits="userSpaceOnUse" id="decoration285-gradient4" spreadMethod="pad" x1="-819.2" x2="819.2">
      <stop offset="0.0" stop-color="#b1b1b1"/>
      <stop offset="0.9725490196078431" stop-color="#a3b682"/>
    </linearGradient>
    <linearGradient gradientTransform="matrix(-0.0052, -4.0E-4, 2.0E-4, -0.0032, 1.3, -12.85)" gradientUnits="userSpaceOnUse" id="decoration285-gradient5" spreadMethod="pad" x1="-819.2" x2="819.2">
      <stop offset="0.0" stop-color="#cdcdcd"/>
      <stop offset="0.9725490196078431" stop-color="#cfe5aa"/>
    </linearGradient>
    <linearGradient gradientTransform="matrix(0.0034, 0.0011, -9.0E-4, 0.0028, -0.9, -11.5)" gradientUnits="userSpaceOnUse" id="decoration285-gradient6" spreadMethod="pad" x1="-819.2" x2="819.2">
      <stop offset="0.0" stop-color="#b1b1b1"/>
      <stop offset="0.9725490196078431" stop-color="#a3b682"/>
    </linearGradient>
    <linearGradient gradientTransform="matrix(0.0034, 0.0011, -9.0E-4, 0.0028, -0.9, -11.5)" gradientUnits="userSpaceOnUse" id="decoration285-gradient7" spreadMethod="pad" x1="-819.2" x2="819.2">
      <stop offset="0.0" stop-color="#cdcdcd"/>
      <stop offset="0.9725490196078431" stop-color="#cfe5aa"/>
    </linearGradient>
    <linearGradient gradientTransform="matrix(0.0027, 0.0022, -0.0018, 0.0022, -0.7, -13.65)" gradientUnits="userSpaceOnUse" id="decoration285-gradient8" spreadMethod="pad" x1="-819.2" x2="819.2">
      <stop offset="0.0" stop-color="#b1b1b1"/>
      <stop offset="0.9725490196078431" stop-color="#a3b682"/>
    </linearGradient>
    <linearGradient gradientTransform="matrix(0.0023, 0.0026, -0.0022, 0.0019, 0.1, -14.1)" gradientUnits="userSpaceOnUse" id="decoration285-gradient9" spreadMethod="pad" x1="-819.2" x2="819.2">
      <stop offset="0.0" stop-color="#cdcdcd"/>
      <stop offset="0.9725490196078431" stop-color="#cfe5aa"/>
    </linearGradient>
    <linearGradient gradientTransform="matrix(-0.0018, 0.0058, -0.0031, -9.0E-4, -0.45, -8.2)" gradientUnits="userSpaceOnUse" id="decoration285-gradient10" spreadMethod="pad" x1="-819.2" x2="819.2">
      <stop offset="0.0" stop-color="#cdcdcd"/>
      <stop offset="0.9725490196078431" stop-color="#cfe5aa"/>
    </linearGradient>
  </defs>
</svg>
