<?xml version="1.0" encoding="UTF-8" standalone="no"?>
<svg xmlns:xlink="http://www.w3.org/1999/xlink" height="32.75px" width="26.5px" xmlns="http://www.w3.org/2000/svg">
  <g transform="matrix(1.0, 0.0, 0.0, 1.0, 13.4, 32.5)">
    <use data-characterId="985" height="32.75" transform="matrix(1.0, 0.0, 0.0, 1.0, -13.4, -32.5)" width="26.5" xlink:href="#decoration287-shape0"/>
  </g>
  <defs>
    <g id="decoration287-shape0" transform="matrix(1.0, 0.0, 0.0, 1.0, 13.4, 32.5)">
      <path d="M10.9 -20.8 Q10.8 -19.55 9.65 -18.75 7.1 -16.9 -0.5 -17.0 -11.7 -17.1 -11.25 -21.0 -10.8 -22.15 -9.2 -22.35 L-6.65 -22.5 -5.05 -22.35 0.25 -21.05 Q5.05 -19.95 6.55 -21.1 8.0 -22.25 9.2 -22.2 10.4 -22.15 10.9 -20.8" fill="#ffa927" fill-rule="evenodd" stroke="none"/>
      <path d="M10.9 -20.8 Q11.8 -18.25 11.1 -14.35 L10.6 -11.7 Q8.45 -1.3 5.65 -1.5 L-1.6 -1.3 1.65 -1.65 5.9 -2.4 Q10.3 -8.7 9.65 -18.75 10.8 -19.55 10.9 -20.8" fill="#d48d03" fill-rule="evenodd" stroke="none"/>
      <path d="M9.65 -18.75 Q10.3 -8.7 5.9 -2.4 L1.65 -1.65 -1.6 -1.3 -5.95 -1.5 Q-6.6 -1.7 -7.25 -2.4 L-8.0 -3.25 -8.5 -4.3 -9.05 -5.5 Q-9.95 -7.8 -10.85 -11.65 L-11.4 -14.2 Q-12.2 -18.25 -11.25 -21.0 -11.7 -17.1 -0.5 -17.0 7.1 -16.9 9.65 -18.75 M-10.7 -16.05 Q-11.1 -15.05 -10.65 -13.75 -10.0 -12.85 -9.7 -13.75 L-9.65 -14.0 Q-9.35 -17.0 -10.7 -16.05 M-9.75 -12.6 Q-10.5 -9.8 -8.65 -5.75 -6.85 -1.75 -7.7 -4.4 -8.5 -6.95 -8.25 -8.8 -7.85 -14.35 -9.75 -12.6" fill="#e79c15" fill-rule="evenodd" stroke="none"/>
      <path d="M-9.75 -12.6 Q-7.85 -14.35 -8.25 -8.8 -8.5 -6.95 -7.7 -4.4 -6.85 -1.75 -8.65 -5.75 -10.5 -9.8 -9.75 -12.6 M-10.7 -16.05 Q-9.35 -17.0 -9.65 -14.0 L-9.7 -13.75 Q-10.0 -12.85 -10.65 -13.75 -11.1 -15.05 -10.7 -16.05" fill="#ffd511" fill-rule="evenodd" stroke="none"/>
      <path d="M-6.9 -0.05 L-7.75 -0.35 -8.2 -0.7 -8.95 -1.7 -9.55 -2.85 -10.2 -4.25 Q-11.25 -7.05 -12.2 -11.6 L-12.85 -14.7 Q-14.15 -21.55 -11.35 -25.35 L-11.0 -25.8 -9.05 -27.5 -8.75 -27.7 -8.65 -27.75 -6.9 -28.85 -5.75 -28.8 -8.2 -26.8 Q-15.75 -19.15 -8.3 -2.05 L-6.9 -0.05" fill="#c7d5df" fill-rule="evenodd" stroke="none"/>
      <path d="M-6.9 -0.05 L-8.3 -2.05 Q-5.35 -2.25 -1.75 -1.95 4.0 -1.45 5.15 -2.05 14.7 -18.9 7.8 -26.6 3.7 -27.9 -2.5 -27.35 L-8.2 -26.8 -5.75 -28.8 6.45 -28.7 8.1 -27.75 8.2 -27.7 8.45 -27.5 Q14.15 -23.3 12.65 -14.9 L12.15 -11.75 Q9.65 0.7 6.6 0.05 L-6.35 0.0 -6.9 -0.05" fill="#7eaaa8" fill-opacity="0.49803922" fill-rule="evenodd" stroke="none"/>
      <path d="M-8.3 -2.05 Q-15.75 -19.15 -8.2 -26.8 L-2.5 -27.35 Q3.7 -27.9 7.8 -26.6 14.7 -18.9 5.15 -2.05 4.0 -1.45 -1.75 -1.95 -5.35 -2.25 -8.3 -2.05" fill="#c7e3e2" fill-opacity="0.3019608" fill-rule="evenodd" stroke="none"/>
      <path d="M-5.75 -28.8 L-6.9 -28.85 -8.65 -27.75 -8.75 -27.7 -9.05 -27.5 -11.0 -25.8 -11.35 -25.35 Q-14.15 -21.55 -12.85 -14.7 L-12.2 -11.6 Q-11.25 -7.05 -10.2 -4.25 L-9.55 -2.85 -8.95 -1.7 -8.2 -0.7 -7.75 -0.35 -6.9 -0.05 -6.35 0.0 6.6 0.05 Q9.65 0.7 12.15 -11.75 L12.65 -14.9 Q14.15 -23.3 8.45 -27.5 L8.2 -27.7 8.1 -27.75 6.45 -28.7 -5.75 -28.8 Z" fill="none" stroke="#000000" stroke-linecap="round" stroke-linejoin="round" stroke-opacity="0.4" stroke-width="0.30000000000000004"/>
      <path d="M-10.0 -18.6 Q-10.7 -18.7 -11.05 -19.35 -11.4 -20.0 -11.2 -20.8 -11.05 -21.6 -10.5 -22.15 -9.95 -22.6 -9.35 -22.6 -8.75 -22.45 -8.25 -21.75 -8.05 -21.15 -8.1 -20.4 -8.3 -19.55 -8.75 -19.05 -9.45 -18.45 -10.0 -18.6 M-9.25 -24.6 L-8.95 -25.2 -8.3 -25.45 -7.7 -25.1 Q-7.45 -24.8 -7.5 -24.5 -7.45 -24.15 -7.7 -23.9 -8.0 -23.6 -8.35 -23.65 -8.75 -23.65 -8.95 -24.0 L-9.25 -24.6" fill="#ffffff" fill-opacity="0.32156864" fill-rule="evenodd" stroke="none"/>
      <path d="M-7.75 -17.2 Q-7.75 -20.4 -5.45 -22.65 -3.15 -24.9 0.05 -24.9 3.3 -24.9 5.6 -22.65 7.85 -20.4 7.85 -17.2 7.85 -14.0 5.6 -11.75 3.3 -9.5 0.05 -9.5 -3.15 -9.5 -5.45 -11.75 -7.75 -14.0 -7.75 -17.2" fill="#decc9f" fill-rule="evenodd" stroke="none"/>
      <path d="M-7.75 -17.2 Q-7.75 -20.4 -5.45 -22.65 -3.15 -24.9 0.05 -24.9 3.3 -24.9 5.6 -22.65 7.85 -20.4 7.85 -17.2 7.85 -14.0 5.6 -11.75 3.3 -9.5 0.05 -9.5 -3.15 -9.5 -5.45 -11.75 -7.75 -14.0 -7.75 -17.2 Z" fill="none" stroke="#000000" stroke-linecap="round" stroke-linejoin="round" stroke-opacity="0.4" stroke-width="0.1"/>
      <path d="M-9.3 -29.05 Q-9.95 -30.35 -8.9 -31.95 L-5.0 -32.2 -1.15 -32.35 Q-0.6 -31.95 -1.3 -30.85 L-2.85 -29.05 -9.3 -29.05 M-8.5 -31.5 Q-9.0 -31.05 -8.6 -31.15 L-7.1 -31.2 -6.25 -31.3 -6.3 -31.45 Q-6.55 -31.75 -7.0 -31.7 L-7.95 -31.7 -8.5 -31.5 M-8.6 -30.35 L-8.35 -30.85 Q-8.3 -31.05 -8.8 -30.85 -9.05 -30.55 -8.9 -30.35 -8.75 -30.15 -8.6 -30.35 M-2.35 -30.25 L-6.35 -30.6 -8.6 -30.25 -2.35 -30.25" fill="url(#decoration287-gradient0)" fill-rule="evenodd" stroke="none"/>
      <path d="M-9.3 -29.05 L-2.85 -29.05 -3.5 -28.35 -8.9 -28.35 -8.9 -28.4 -9.3 -29.05 M6.8 -32.15 L8.35 -32.05 8.4 -31.95 Q9.4 -29.95 8.25 -28.4 L8.25 -28.35 -2.45 -28.35 -1.75 -29.05 6.65 -29.1 Q8.6 -29.8 6.8 -32.15 M6.35 -29.75 L0.1 -29.75 2.35 -30.1 6.35 -29.75" fill="#916a46" fill-rule="evenodd" stroke="none"/>
      <path d="M-2.85 -29.05 L-1.3 -30.85 Q-0.6 -31.95 -1.15 -32.35 L0.55 -32.35 Q-0.5 -30.4 -1.75 -29.05 L-2.85 -29.05 M-8.6 -30.35 Q-8.75 -30.15 -8.9 -30.35 -9.05 -30.55 -8.8 -30.85 -8.3 -31.05 -8.35 -30.85 L-8.6 -30.35 M-8.5 -31.5 L-7.95 -31.7 -7.0 -31.7 Q-6.55 -31.75 -6.3 -31.45 L-6.25 -31.3 -7.1 -31.2 -8.6 -31.15 Q-9.0 -31.05 -8.5 -31.5" fill="#d9a97b" fill-rule="evenodd" stroke="none"/>
      <path d="M-2.45 -28.35 L-3.5 -28.35 -2.85 -29.05 -1.75 -29.05 -2.45 -28.35" fill="#ad825a" fill-rule="evenodd" stroke="none"/>
      <path d="M-2.35 -30.25 L-8.6 -30.25 -6.35 -30.6 -2.35 -30.25" fill="#9f7853" fill-rule="evenodd" stroke="none"/>
      <path d="M0.55 -32.35 L6.8 -32.15 Q8.6 -29.8 6.65 -29.1 L-1.75 -29.05 Q-0.5 -30.4 0.55 -32.35 M6.35 -29.75 L2.35 -30.1 0.1 -29.75 6.35 -29.75" fill="url(#decoration287-gradient1)" fill-rule="evenodd" stroke="none"/>
      <path d="M-1.15 -32.35 L-5.0 -32.2 -8.9 -31.95 Q-9.95 -30.35 -9.3 -29.05 L-8.9 -28.4 -8.9 -28.35 -3.5 -28.35 -2.45 -28.35 8.25 -28.35 8.25 -28.4 Q9.4 -29.95 8.4 -31.95 L8.35 -32.05 6.8 -32.15 0.55 -32.35 -1.15 -32.35 Z" fill="none" stroke="#000000" stroke-linecap="round" stroke-linejoin="round" stroke-opacity="0.4" stroke-width="0.30000000000000004"/>
      <path d="M-6.55 -30.55 L-9.3 -30.6 M-9.4 -29.2 L-5.4 -29.2 M3.65 -29.75 L-1.15 -29.8 M8.4 -31.3 L2.25 -31.35" fill="none" stroke="#000000" stroke-linecap="round" stroke-linejoin="round" stroke-opacity="0.4" stroke-width="0.1"/>
      <path d="M2.75 -18.75 L0.15 -17.3 -2.5 -18.8 -2.4 -21.8 0.2 -23.2 2.8 -21.7 2.75 -18.75" fill="url(#decoration287-gradient2)" fill-rule="evenodd" stroke="none"/>
      <path d="M5.7 -13.7 L3.05 -12.25 0.4 -13.85 0.55 -16.75 3.15 -18.2 5.75 -16.7 5.7 -13.7" fill="url(#decoration287-gradient3)" fill-rule="evenodd" stroke="none"/>
      <path d="M-5.45 -16.75 L-2.85 -18.2 -0.25 -16.7 -0.3 -13.7 -2.95 -12.25 -5.55 -13.85 -5.45 -16.75" fill="url(#decoration287-gradient4)" fill-rule="evenodd" stroke="none"/>
      <path d="M5.7 -13.7 L3.05 -12.25 0.4 -13.85 0.55 -16.75 3.15 -18.2 5.75 -16.7 5.7 -13.7 M2.75 -18.75 L0.15 -17.3 -2.5 -18.8 -2.4 -21.8 0.2 -23.2 2.8 -21.7 2.75 -18.75 M-5.45 -16.75 L-2.85 -18.2 -0.25 -16.7 -0.3 -13.7 -2.95 -12.25 -5.55 -13.85 -5.45 -16.75 Z" fill="none" stroke="#000000" stroke-linecap="round" stroke-linejoin="round" stroke-opacity="0.3019608" stroke-width="0.30000000000000004"/>
      <path d="M1.5 -21.8 Q1.4 -21.55 0.85 -21.95 L0.5 -22.25 0.4 -22.35 0.85 -22.5 1.4 -22.3 1.4 -22.25 1.5 -21.8 M2.1 -21.65 Q2.35 -21.45 2.2 -21.25 L2.05 -21.25 Q1.75 -21.15 1.8 -21.5 1.8 -21.85 2.1 -21.65 M-1.4 -20.1 L-1.55 -19.05 Q-2.15 -19.8 -1.8 -20.35 -1.45 -20.95 -1.4 -20.1" fill="#f3f38c" fill-rule="evenodd" stroke="none"/>
      <path d="M2.8 -18.75 L0.1 -17.25 -2.55 -18.85 -2.45 -21.75 0.2 -23.2 2.85 -21.7 2.8 -18.75" fill="url(#decoration287-gradient5)" fill-rule="evenodd" stroke="none"/>
      <path d="M3.2 -18.35 L5.85 -16.8 5.8 -13.85 3.1 -12.35 0.45 -13.95 0.5 -16.85 3.2 -18.35" fill="url(#decoration287-gradient6)" fill-rule="evenodd" stroke="none"/>
    </g>
    <linearGradient gradientTransform="matrix(-0.0037, -1.0E-4, 0.0, -0.002, -8.85, -30.75)" gradientUnits="userSpaceOnUse" id="decoration287-gradient0" spreadMethod="pad" x1="-819.2" x2="819.2">
      <stop offset="0.0" stop-color="#b98d63"/>
      <stop offset="1.0" stop-color="#a17042"/>
    </linearGradient>
    <linearGradient gradientTransform="matrix(0.0065, 0.0, 0.0, 0.002, 4.45, -30.35)" gradientUnits="userSpaceOnUse" id="decoration287-gradient1" spreadMethod="pad" x1="-819.2" x2="819.2">
      <stop offset="0.0" stop-color="#b98d63"/>
      <stop offset="1.0" stop-color="#8c643f"/>
    </linearGradient>
    <radialGradient cx="0" cy="0" gradientTransform="matrix(0.0036, 0.0, 0.0, 0.0037, 0.1, -20.3)" gradientUnits="userSpaceOnUse" id="decoration287-gradient2" r="819.2" spreadMethod="pad">
      <stop offset="0.06274509803921569" stop-color="#ffd036"/>
      <stop offset="1.0" stop-color="#eeaf2f"/>
    </radialGradient>
    <radialGradient cx="0" cy="0" gradientTransform="matrix(0.0037, 0.0, 0.0, 0.0037, 3.05, -15.3)" gradientUnits="userSpaceOnUse" id="decoration287-gradient3" r="819.2" spreadMethod="pad">
      <stop offset="0.06274509803921569" stop-color="#ffd036"/>
      <stop offset="1.0" stop-color="#eeaf2f"/>
    </radialGradient>
    <radialGradient cx="0" cy="0" gradientTransform="matrix(0.0036, 0.0, 0.0, 0.0037, -2.95, -15.3)" gradientUnits="userSpaceOnUse" id="decoration287-gradient4" r="819.2" spreadMethod="pad">
      <stop offset="0.06274509803921569" stop-color="#ffd036"/>
      <stop offset="1.0" stop-color="#eeaf2f"/>
    </radialGradient>
    <radialGradient cx="0" cy="0" gradientTransform="matrix(0.0038, 0.0054, -0.0115, 0.0078, 0.1, -20.35)" gradientUnits="userSpaceOnUse" id="decoration287-gradient5" r="819.2" spreadMethod="pad">
      <stop offset="0.0" stop-color="#c48205" stop-opacity="0.0"/>
      <stop offset="1.0" stop-color="#f88225" stop-opacity="0.8"/>
    </radialGradient>
    <radialGradient cx="0" cy="0" gradientTransform="matrix(0.0038, 0.0054, -0.0115, 0.0078, 3.05, -15.45)" gradientUnits="userSpaceOnUse" id="decoration287-gradient6" r="819.2" spreadMethod="pad">
      <stop offset="0.0" stop-color="#f88225" stop-opacity="0.0"/>
      <stop offset="1.0" stop-color="#f88225" stop-opacity="0.8"/>
    </radialGradient>
  </defs>
</svg>
