<?xml version="1.0" encoding="UTF-8" standalone="no"?>
<svg xmlns:ffdec="https://www.free-decompiler.com/flash" xmlns:xlink="http://www.w3.org/1999/xlink" ffdec:objectType="frame" height="55.05px" width="40.8px" xmlns="http://www.w3.org/2000/svg">
  <g transform="matrix(1.0, 0.0, 0.0, 1.0, 25.5, 2.3)">
    <use ffdec:characterId="20" height="55.05" transform="matrix(1.0, 0.0, 0.0, 1.0, -25.5, -2.3)" width="40.8" xlink:href="#decoration288-shape0"/>
  </g>
  <defs>
    <g id="decoration288-shape0" transform="matrix(1.0, 0.0, 0.0, 1.0, 25.5, 2.3)">
      <path d="M-12.4 6.55 Q-12.15 5.05 -9.95 3.85 -8.25 2.9 -5.35 2.2 L-4.65 2.05 -4.4 2.1 Q-1.05 2.7 0.65 3.85 2.1 4.8 2.45 6.15 L2.0 6.0 1.55 5.85 -0.75 5.35 -2.5 5.2 -5.0 5.2 -8.35 5.55 -10.9 6.1 -12.4 6.55 M3.75 6.75 Q6.5 8.25 6.9 11.15 L6.95 11.15 7.85 11.55 Q12.35 13.75 12.0 18.9 L12.0 18.95 12.1 18.95 Q14.95 20.65 15.15 23.65 15.15 25.85 13.15 27.35 17.35 35.4 10.1 38.45 L10.05 38.45 Q9.75 41.65 7.85 43.8 3.8 48.2 -7.45 47.55 -14.0 46.8 -17.45 44.9 -22.2 42.2 -20.9 37.25 L-17.45 38.15 -16.95 38.3 -16.7 38.35 -14.15 38.9 Q-5.45 40.8 -0.7 39.95 7.1 38.55 4.35 29.85 7.3 27.75 7.85 25.1 8.1 23.9 7.85 22.65 7.35 20.05 5.0 17.05 9.7 13.9 4.3 10.35 5.85 8.65 3.75 6.75 M-23.2 25.25 Q-23.95 24.45 -24.15 23.45 -24.45 21.5 -23.7 20.2 -22.6 26.7 -12.65 28.0 -3.15 29.25 3.7 28.45 L4.45 28.35 3.7 29.9 3.65 29.95 Q-1.85 30.4 -9.5 29.65 L-12.4 29.4 -12.7 29.35 -17.45 28.35 Q-21.25 27.2 -22.95 25.55 L-23.0 25.45 -23.2 25.25 M6.9 11.15 Q5.75 10.65 4.3 10.35 5.75 10.65 6.9 11.15 M13.15 27.35 Q11.0 28.6 7.85 29.3 L4.35 29.85 7.85 29.3 Q11.0 28.6 13.15 27.35 M12.0 18.9 Q10.35 17.95 7.85 17.45 L5.0 17.05 7.85 17.45 Q10.35 17.95 12.0 18.9 M6.5 39.85 L-1.25 40.8 Q-10.3 41.3 -17.45 38.8 L-17.5 38.75 -20.9 37.25 -17.5 38.75 -17.45 38.8 Q-10.3 41.3 -1.25 40.8 L6.5 39.85 M8.65 38.95 L10.05 38.45 8.65 38.95" fill="#bd7b24" fill-rule="evenodd" stroke="none"/>
      <path d="M-12.4 6.55 L-10.9 6.1 -8.35 5.55 -5.0 5.2 -2.5 5.2 -0.75 5.35 1.55 5.85 2.0 6.0 Q5.4 11.35 4.2 17.0 6.55 23.3 4.45 28.35 L3.7 28.45 Q-3.15 29.25 -12.65 28.0 -22.6 26.7 -23.7 20.2 -23.15 19.2 -21.95 18.55 L-21.9 18.55 -21.6 16.3 Q-20.8 13.15 -17.7 11.5 L-17.45 10.8 Q-16.35 8.0 -12.4 6.55 M-20.9 37.25 L-20.95 37.2 -21.0 37.2 Q-22.9 35.95 -24.0 34.55 -27.1 30.5 -23.2 25.25 L-23.0 25.45 -22.95 25.55 Q-21.25 27.2 -17.45 28.35 L-12.7 29.35 -12.4 29.4 -9.5 29.65 Q-1.85 30.4 3.65 29.95 3.7 32.45 2.85 34.55 2.15 36.2 0.9 37.55 -3.25 41.05 -14.15 38.9 L-16.7 38.35 -16.95 38.3 -17.45 38.15 -20.9 37.25 M-16.75 17.35 Q-7.65 16.35 3.55 16.95 L3.7 16.95 4.2 17.0 3.7 16.95 3.55 16.95 Q-7.65 16.35 -16.75 17.35 M1.0 9.9 Q-11.75 8.45 -17.45 11.35 L-17.7 11.5 -17.45 11.35 Q-11.75 8.45 1.0 9.9 M-12.95 10.5 Q-14.6 11.5 -12.75 12.4 -9.7 12.3 -10.45 10.8 -11.45 9.9 -12.95 10.5 M-17.25 14.9 Q-13.5 13.25 -14.8 12.1 -16.45 11.25 -18.2 12.55 -21.8 16.25 -17.25 14.9 M-22.7 26.95 Q-23.8 27.1 -24.25 28.95 -24.85 33.5 -22.95 30.3 -21.65 27.15 -22.7 26.95 M-19.6 17.8 Q-20.95 18.05 -21.9 18.55 -20.95 18.05 -19.6 17.8" fill="url(#decoration288-gradient0)" fill-rule="evenodd" stroke="none"/>
      <path d="M2.0 6.0 L2.45 6.15 3.75 6.75 Q5.85 8.65 4.3 10.35 9.7 13.9 5.0 17.05 7.35 20.05 7.85 22.65 8.1 23.9 7.85 25.1 7.3 27.75 4.35 29.85 L3.7 29.95 3.65 29.95 3.7 29.95 4.35 29.85 Q7.1 38.55 -0.7 39.95 -5.45 40.8 -14.15 38.9 -3.25 41.05 0.9 37.55 2.15 36.2 2.85 34.55 3.7 32.45 3.65 29.95 L3.7 29.9 4.45 28.35 Q6.55 23.3 4.2 17.0 5.4 11.35 2.0 6.0 M5.0 17.05 L4.2 17.0 5.0 17.05 M-17.25 14.9 Q-21.8 16.25 -18.2 12.55 -16.45 11.25 -14.8 12.1 -13.5 13.25 -17.25 14.9 M-12.95 10.5 Q-11.45 9.9 -10.45 10.8 -9.7 12.3 -12.75 12.4 -14.6 11.5 -12.95 10.5 M-22.7 26.95 Q-21.65 27.15 -22.95 30.3 -24.85 33.5 -24.25 28.95 -23.8 27.1 -22.7 26.95" fill="#d7ac43" fill-rule="evenodd" stroke="none"/>
      <path d="M2.45 6.15 Q2.1 4.8 0.65 3.85 -1.05 2.7 -4.4 2.1 L-4.65 2.05 -5.35 2.2 Q-8.25 2.9 -9.95 3.85 -12.15 5.05 -12.4 6.55 L-10.9 6.1 -8.35 5.55 -5.0 5.2 -2.5 5.2 -0.75 5.35 1.55 5.85 2.0 6.0 2.45 6.15 3.75 6.75 Q6.5 8.25 6.9 11.15 L6.95 11.15 7.85 11.55 Q12.35 13.75 12.0 18.9 L12.0 18.95 12.1 18.95 Q14.95 20.65 15.15 23.65 15.15 25.85 13.15 27.35 17.35 35.4 10.1 38.45 L10.05 38.45 Q9.75 41.65 7.85 43.8 3.8 48.2 -7.45 47.55 -14.0 46.8 -17.45 44.9 -22.2 42.2 -20.9 37.25 L-17.5 38.75 -17.45 38.8 Q-10.3 41.3 -1.25 40.8 L6.5 39.85 M-21.0 37.2 Q-22.9 35.95 -24.0 34.55 -27.1 30.5 -23.2 25.25 -23.95 24.45 -24.15 23.45 -24.45 21.5 -23.7 20.2 -23.15 19.2 -21.95 18.55 L-21.9 18.55 -21.6 16.3 Q-20.8 13.15 -17.7 11.5 L-17.45 10.8 Q-16.35 8.0 -12.4 6.55 M4.3 10.35 Q5.75 10.65 6.9 11.15 M4.35 29.85 L7.85 29.3 Q11.0 28.6 13.15 27.35 M4.2 17.0 L5.0 17.05 7.85 17.45 Q10.35 17.95 12.0 18.9 M4.2 17.0 L3.7 16.95 3.55 16.95 Q-7.65 16.35 -16.75 17.35 M3.65 29.95 L3.7 29.95 4.35 29.85 M10.05 38.45 L8.65 38.95 M-17.7 11.5 L-17.45 11.35 Q-11.75 8.45 1.0 9.9 M-23.2 25.25 L-23.0 25.45 -22.95 25.55 Q-21.25 27.2 -17.45 28.35 L-12.7 29.35 -12.4 29.4 M-9.5 29.65 Q-1.85 30.4 3.65 29.95 M-21.9 18.55 Q-20.95 18.05 -19.6 17.8" fill="none" stroke="#000000" stroke-linecap="round" stroke-linejoin="round" stroke-opacity="0.4" stroke-width="0.30000000000000004"/>
      <path d="M-15.1 28.55 Q-12.9 26.45 -9.95 26.45 -6.85 26.45 -4.65 28.7 -2.45 31.0 -2.45 34.2 -2.45 35.9 -3.05 37.3 L-3.15 37.55 Q-9.55 42.0 -13.85 38.4 L-13.85 38.35 Q-16.75 35.35 -15.1 28.55" fill="#482c03" fill-rule="evenodd" stroke="none"/>
      <path d="M-15.1 28.55 Q-16.75 35.35 -13.85 38.35 L-13.85 38.4 Q-9.55 42.0 -3.15 37.55 -3.65 38.75 -4.65 39.7 -6.85 42.0 -9.95 42.0 -13.05 42.0 -15.25 39.7 -17.5 37.45 -17.5 34.2 -17.5 31.0 -15.25 28.7 L-15.1 28.55" fill="#794d0d" fill-rule="evenodd" stroke="none"/>
      <path d="M-3.15 37.55 L-3.05 37.3 Q-2.45 35.9 -2.45 34.2 -2.45 31.0 -4.65 28.7 -6.85 26.45 -9.95 26.45 -12.9 26.45 -15.1 28.55 L-15.25 28.7 Q-17.5 31.0 -17.5 34.2 -17.5 37.45 -15.25 39.7 -13.05 42.0 -9.95 42.0 -6.85 42.0 -4.65 39.7 -3.65 38.75 -3.15 37.55 Z" fill="none" stroke="#000000" stroke-linecap="round" stroke-linejoin="round" stroke-opacity="0.3882353" stroke-width="0.4"/>
      <path d="M-11.45 40.95 L-11.4 42.35 Q-11.2 43.05 -11.35 43.8 -11.65 44.75 -12.4 44.45 L-12.75 44.0 Q-12.9 43.55 -12.65 41.6 -12.4 39.65 -13.6 38.55 -9.95 36.65 -5.7 39.25 L-5.8 39.35 Q-6.4 39.35 -6.7 40.1 -7.5 41.2 -7.65 43.8 L-7.65 46.6 Q-7.5 47.5 -7.5 50.15 -7.65 52.75 -9.35 52.6 -11.05 52.6 -10.9 48.45 L-10.25 43.8 Q-10.45 40.2 -10.95 40.25 -11.4 40.25 -11.45 40.95 M-8.4 44.25 L-8.4 45.5 -8.7 48.45 -8.7 49.05 Q-8.7 49.8 -8.4 49.8 -7.95 49.8 -7.95 48.45 L-8.25 43.95 -8.25 43.8 -8.4 44.25 M-9.5 48.15 L-9.65 46.9 -9.65 45.5 Q-10.25 49.05 -10.1 49.65 -9.8 50.75 -9.35 50.75 -8.85 50.75 -8.85 50.3 L-9.5 48.15" fill="url(#decoration288-gradient1)" fill-rule="evenodd" stroke="none"/>
      <path d="M-8.4 44.25 L-8.25 43.8 -8.25 43.95 -7.95 48.45 Q-7.95 49.8 -8.4 49.8 -8.7 49.8 -8.7 49.05 L-8.7 48.45 -8.4 45.5 -8.4 44.25" fill="#ffff11" fill-rule="evenodd" stroke="none"/>
      <path d="M-9.5 48.15 L-8.85 50.3 Q-8.85 50.75 -9.35 50.75 -9.8 50.75 -10.1 49.65 -10.25 49.05 -9.65 45.5 L-9.65 46.9 -9.5 48.15" fill="#d48d03" fill-rule="evenodd" stroke="none"/>
      <path d="M-11.45 40.95 L-11.4 42.35 Q-11.2 43.05 -11.35 43.8 -11.65 44.75 -12.4 44.45 L-12.75 44.0 Q-12.9 43.55 -12.65 41.6 -12.4 39.65 -13.6 38.55 -9.95 36.65 -5.7 39.25 L-5.8 39.35 Q-6.4 39.35 -6.7 40.1 -7.5 41.2 -7.65 43.8 L-7.65 46.6 Q-7.5 47.5 -7.5 50.15 -7.65 52.75 -9.35 52.6 -11.05 52.6 -10.9 48.45 L-10.25 43.8 Q-10.45 40.2 -10.95 40.25 -11.4 40.25 -11.45 40.95 Z" fill="none" stroke="#000000" stroke-linecap="round" stroke-linejoin="round" stroke-opacity="0.14901961" stroke-width="0.30000000000000004"/>
      <path d="M8.65 3.3 L7.7 2.95 3.35 1.8 Q2.15 1.45 -3.3 3.25 L-3.75 3.4 -4.25 3.15 -6.05 2.3 Q-3.65 1.0 -0.9 0.4 L-10.85 -1.6 -2.1 -1.85 8.65 0.55 Q9.9 1.7 8.65 3.3" fill="#3a1f0a" fill-rule="evenodd" stroke="none"/>
      <path d="M8.65 3.3 L7.7 2.95 3.35 1.8 Q2.15 1.45 -3.3 3.25 L-3.75 3.4 -4.25 3.15 -6.05 2.3 Q-3.65 1.0 -0.9 0.4 L-10.85 -1.6 -2.1 -1.85 8.65 0.55" fill="none" stroke="#000000" stroke-linecap="round" stroke-linejoin="round" stroke-opacity="0.3882353" stroke-width="0.4"/>
      <path d="M-10.7 23.35 Q-10.05 22.8 -8.65 23.35 -7.35 23.85 -7.0 25.05 -8.65 23.4 -9.6 23.85 L-11.05 24.1 Q-11.45 23.9 -10.7 23.35" fill="#252525" fill-rule="evenodd" stroke="none"/>
      <path d="M-10.7 23.35 Q-11.45 23.9 -11.05 24.1 L-9.6 23.85 Q-8.65 23.4 -7.0 25.05 -7.35 23.85 -8.65 23.35 -10.05 22.8 -10.7 23.35 Z" fill="none" stroke="#000000" stroke-linecap="round" stroke-linejoin="round" stroke-opacity="0.32941177" stroke-width="0.05"/>
      <path d="M-5.95 24.1 Q-7.1 23.65 -7.35 22.2 -7.65 20.75 -7.05 20.2 -6.35 19.55 -6.25 20.0 -6.0 20.4 -6.75 21.3 -7.3 22.2 -5.95 24.1" fill="#151515" fill-rule="evenodd" stroke="none"/>
      <path d="M-5.95 24.1 Q-7.1 23.65 -7.35 22.2 -7.65 20.75 -7.05 20.2 -6.35 19.55 -6.25 20.0 -6.0 20.4 -6.75 21.3 -7.3 22.2 -5.95 24.1 Z" fill="none" stroke="#000000" stroke-linecap="round" stroke-linejoin="round" stroke-opacity="0.32941177" stroke-width="0.05"/>
      <path d="M-6.9 27.1 L-7.0 27.0 Q-7.55 26.25 -7.45 25.55 -7.5 24.7 -6.8 24.15 -6.25 23.65 -5.35 23.8 -4.7 23.85 -3.9 24.65 L-3.8 24.9 Q-6.3 24.3 -6.85 27.1 L-6.9 27.1 M-7.0 27.0 L-6.85 27.1 -7.0 27.0" fill="#844c2a" fill-rule="evenodd" stroke="none"/>
      <path d="M-3.8 24.9 L-3.7 25.75 Q-3.9 26.4 -4.45 26.9 -5.15 27.45 -5.9 27.35 L-5.95 27.35 Q-6.5 27.4 -6.85 27.1 -6.3 24.3 -3.8 24.9" fill="#634222" fill-rule="evenodd" stroke="none"/>
      <path d="M-6.9 27.1 L-7.0 27.0 Q-7.55 26.25 -7.45 25.55 -7.5 24.7 -6.8 24.15 -6.25 23.65 -5.35 23.8 -4.7 23.85 -3.9 24.65 L-3.8 24.9 -3.7 25.75 Q-3.9 26.4 -4.45 26.9 -5.15 27.45 -5.9 27.35 L-5.95 27.35 Q-6.5 27.4 -6.85 27.1 L-7.0 27.0" fill="none" stroke="#000000" stroke-linecap="round" stroke-linejoin="round" stroke-opacity="0.32941177" stroke-width="0.05"/>
      <path d="M-4.7 29.9 Q-4.4 27.15 -1.75 27.55 -1.95 28.5 -2.8 29.25 -3.65 30.0 -4.7 29.9" fill="#e19d30" fill-rule="evenodd" stroke="none"/>
      <path d="M-1.75 27.55 Q-4.4 27.15 -4.7 29.9 L-4.7 29.95 Q-5.0 30.05 -5.9 29.3 -6.75 28.5 -6.7 27.5 -6.6 26.45 -5.7 25.7 -4.9 25.0 -3.85 25.15 -2.8 25.25 -2.15 26.25 -1.55 27.15 -1.8 27.5 L-1.75 27.55" fill="#f7c24b" fill-rule="evenodd" stroke="none"/>
      <path d="M-4.7 29.9 Q-3.65 30.0 -2.8 29.25 -1.95 28.5 -1.75 27.55 L-1.8 27.5 Q-1.55 27.15 -2.15 26.25 -2.8 25.25 -3.85 25.15 -4.9 25.0 -5.7 25.7 -6.6 26.45 -6.7 27.5 -6.75 28.5 -5.9 29.3 -5.0 30.05 -4.7 29.95 L-4.7 29.9 Z" fill="none" stroke="#000000" stroke-linecap="round" stroke-linejoin="round" stroke-opacity="0.32941177" stroke-width="0.05"/>
      <path d="M1.3 29.45 L1.85 30.4 1.0 30.75 0.45 29.65 1.3 29.45 M2.3 32.15 L2.35 32.3 2.2 33.75 Q1.3 34.2 0.65 34.95 L-0.65 34.85 -0.95 34.8 -1.0 34.7 -0.9 34.65 -0.95 34.8 -0.9 34.65 Q0.9 33.95 1.3 32.6 1.7 32.35 2.3 32.15 M-1.3 27.4 L-0.85 27.55 -0.05 27.95 -0.65 28.1 -1.3 27.4" fill="#e19d30" fill-rule="evenodd" stroke="none"/>
      <path d="M1.3 29.45 L0.45 29.65 -0.25 28.65 -0.65 28.1 -0.05 27.95 0.5 28.45 1.3 29.45 M1.0 30.75 L1.85 30.4 2.05 31.0 2.3 32.15 Q1.7 32.35 1.3 32.6 L1.2 31.25 1.0 30.75 M2.2 33.75 L1.85 34.3 2.1 35.15 1.25 34.75 0.65 34.95 Q1.3 34.2 2.2 33.75 M1.25 34.75 L1.6 34.5 1.85 34.3 1.6 34.5 1.25 34.75" fill="#634222" fill-rule="evenodd" stroke="none"/>
      <path d="M0.45 29.65 L1.0 30.75 Q-1.45 31.6 -2.5 34.05 L-3.4 33.4 Q-2.25 30.6 0.45 29.65 M-4.65 31.95 L-4.95 31.0 Q-5.25 29.6 -3.65 28.25 -2.4 27.2 -1.3 27.4 L-0.65 28.1 Q-3.5 29.05 -4.65 31.95 M-0.9 34.65 Q-0.05 33.35 1.3 32.6 0.9 33.95 -0.9 34.65" fill="#f7c24b" fill-rule="evenodd" stroke="none"/>
      <path d="M-1.0 34.7 L-2.0 34.3 -2.5 34.05 Q-1.45 31.6 1.0 30.75 L1.2 31.25 1.3 32.6 Q-0.05 33.35 -0.9 34.65 L-1.0 34.7 M-3.4 33.4 L-4.15 32.65 -4.65 31.95 Q-3.5 29.05 -0.65 28.1 L-0.25 28.65 0.45 29.65 Q-2.25 30.6 -3.4 33.4" fill="#844c2a" fill-rule="evenodd" stroke="none"/>
      <path d="M1.85 30.4 L1.3 29.45 0.5 28.45 -0.05 27.95 -0.85 27.55 -1.3 27.4 Q-2.4 27.2 -3.65 28.25 -5.25 29.6 -4.95 31.0 L-4.65 31.95 -4.15 32.65 -3.4 33.4 -2.5 34.05 -2.0 34.3 -1.0 34.7 -0.95 34.8 -0.9 34.65 M1.85 30.4 L2.05 31.0 2.3 32.15 2.35 32.3 2.2 33.75 1.85 34.3 2.1 35.15 1.25 34.75 0.65 34.95 -0.65 34.85 -0.95 34.8 M1.85 34.3 L1.6 34.5 1.25 34.75" fill="none" stroke="#000000" stroke-linecap="round" stroke-linejoin="round" stroke-opacity="0.32941177" stroke-width="0.05"/>
      <path d="M-7.4 25.25 L-6.75 25.3 -6.45 25.9 Q-6.35 26.3 -6.55 26.5 L-6.85 26.9 -7.3 26.9 -7.7 26.3 -7.7 25.55 -7.4 25.25" fill="#252525" fill-rule="evenodd" stroke="none"/>
      <path d="M-7.4 25.25 L-6.75 25.3 -6.45 25.9 Q-6.35 26.3 -6.55 26.5 L-6.85 26.9 -7.3 26.9 -7.7 26.3 -7.7 25.55 -7.4 25.25 Z" fill="none" stroke="#000000" stroke-linecap="round" stroke-linejoin="round" stroke-opacity="0.32941177" stroke-width="0.1"/>
      <path d="M-3.95 24.65 L-4.4 25.05 -5.05 24.85 -5.45 24.4 -5.55 23.9 -5.25 23.6 -4.55 23.7 Q-4.1 23.8 -4.0 24.1 -3.8 24.4 -3.95 24.65" fill="#252525" fill-rule="evenodd" stroke="none"/>
      <path d="M-3.95 24.65 L-4.4 25.05 -5.05 24.85 -5.45 24.4 -5.55 23.9 -5.25 23.6 -4.55 23.7 Q-4.1 23.8 -4.0 24.1 -3.8 24.4 -3.95 24.65 Z" fill="none" stroke="#000000" stroke-linecap="round" stroke-linejoin="round" stroke-opacity="0.32941177" stroke-width="0.1"/>
      <path d="M-5.9 28.35 Q-5.4 28.35 -5.2 29.15 -4.25 31.2 -4.5 33.25 L-4.55 33.35 Q-5.0 29.8 -6.4 29.8 L-5.95 28.4 -5.9 28.35 -5.95 28.4 -6.4 29.8 Q-6.45 29.2 -6.85 29.45 L-7.0 29.3 -6.7 28.7 Q-6.25 28.35 -5.9 28.35 M-5.95 28.4 L-6.85 29.45 -5.95 28.4" fill="#bfa656" fill-opacity="0.24705882" fill-rule="evenodd" stroke="none"/>
      <path d="M-6.4 29.8 Q-5.0 29.8 -4.55 33.35 L-5.05 34.5 Q-5.6 35.15 -6.6 35.4 L-7.4 35.55 -9.0 35.5 Q-9.6 34.8 -8.65 32.3 L-7.55 30.55 -7.5 30.45 -7.0 29.3 -6.85 29.45 Q-6.45 29.2 -6.4 29.8 L-6.6 30.6 -6.8 31.95 Q-6.55 34.15 -5.05 34.5 -6.55 34.15 -6.8 31.95 L-6.6 30.6 -6.4 29.8 M-6.85 29.45 L-7.5 30.45 -6.85 29.45 M-9.0 35.5 Q-8.5 32.45 -6.6 30.6 -8.5 32.45 -9.0 35.5 M-6.6 35.4 Q-7.05 33.8 -6.8 31.95 -7.05 33.8 -6.6 35.4" fill="#ded07e" fill-opacity="0.24705882" fill-rule="evenodd" stroke="none"/>
      <path d="M-4.55 33.35 L-4.5 33.25 Q-4.25 31.2 -5.2 29.15 -5.4 28.35 -5.9 28.35 L-5.95 28.4 -6.4 29.8 -6.6 30.6 -6.8 31.95 Q-6.55 34.15 -5.05 34.5 -5.6 35.15 -6.6 35.4 L-7.4 35.55 -9.0 35.5 Q-9.6 34.8 -8.65 32.3 L-7.55 30.55 -7.5 30.45 -7.0 29.3 -6.7 28.7 Q-6.25 28.35 -5.9 28.35 M-4.55 33.35 L-5.05 34.5 M-7.5 30.45 L-6.85 29.45 -5.95 28.4 M-6.8 31.95 Q-7.05 33.8 -6.6 35.4 M-6.6 30.6 Q-8.5 32.45 -9.0 35.5" fill="none" stroke="#000000" stroke-linecap="round" stroke-linejoin="round" stroke-opacity="0.32941177" stroke-width="0.05"/>
      <path d="M-2.1 25.35 L-0.35 24.75 1.15 24.25 4.4 24.35 Q4.75 24.9 4.2 26.0 L3.9 26.75 Q3.5 27.7 2.75 28.15 L1.55 28.4 Q-1.9 27.35 -1.7 26.05 -2.25 25.85 -1.95 25.5 L-2.1 25.35 M2.75 28.15 Q2.65 26.6 0.5 26.0 L-0.8 25.95 Q1.3 24.4 4.4 24.35 1.3 24.4 -0.8 25.95 L0.5 26.0 Q2.35 26.05 3.9 26.75 2.35 26.05 0.5 26.0 2.65 26.6 2.75 28.15 M-0.35 24.75 Q-1.3 25.1 -1.95 25.5 -1.3 25.1 -0.35 24.75 M-0.8 25.95 L-1.7 26.05 -0.8 25.95" fill="#ded07e" fill-opacity="0.24705882" fill-rule="evenodd" stroke="none"/>
      <path d="M1.55 28.4 L1.4 28.5 Q-0.65 28.35 -2.5 27.1 -3.3 26.8 -3.2 26.3 L-2.7 25.55 -2.1 25.35 -1.95 25.5 Q-2.25 25.85 -1.7 26.05 L-3.15 26.25 -3.2 26.3 -3.15 26.25 -1.7 26.05 Q-1.9 27.35 1.55 28.4 M-3.15 26.25 L-1.95 25.5 -3.15 26.25" fill="#bfa656" fill-opacity="0.24705882" fill-rule="evenodd" stroke="none"/>
      <path d="M-2.1 25.35 L-0.35 24.75 1.15 24.25 4.4 24.35 Q4.75 24.9 4.2 26.0 L3.9 26.75 Q3.5 27.7 2.75 28.15 L1.55 28.4 1.4 28.5 Q-0.65 28.35 -2.5 27.1 -3.3 26.8 -3.2 26.3 L-2.7 25.55 -2.1 25.35 M-1.95 25.5 Q-1.3 25.1 -0.35 24.75 M4.4 24.35 Q1.3 24.4 -0.8 25.95 L0.5 26.0 Q2.35 26.05 3.9 26.75 M0.5 26.0 Q2.65 26.6 2.75 28.15 M-1.7 26.05 L-0.8 25.95 M-1.7 26.05 L-3.15 26.25 -3.2 26.3 M-1.95 25.5 L-3.15 26.25" fill="none" stroke="#000000" stroke-linecap="round" stroke-linejoin="round" stroke-opacity="0.32941177" stroke-width="0.05"/>
    </g>
    <radialGradient cx="0" cy="0" gradientTransform="matrix(-0.0248, 0.0, 0.0, 0.0248, -7.95, 39.75)" gradientUnits="userSpaceOnUse" id="decoration288-gradient0" r="819.2" spreadMethod="pad">
      <stop offset="0.0" stop-color="#d7ac43"/>
      <stop offset="0.9725490196078431" stop-color="#ce8c2c"/>
    </radialGradient>
    <linearGradient gradientTransform="matrix(0.0, 0.0032, -0.0213, 1.0E-4, 3.35, 40.7)" gradientUnits="userSpaceOnUse" id="decoration288-gradient1" spreadMethod="pad" x1="-819.2" x2="819.2">
      <stop offset="0.0" stop-color="#f5aa2c"/>
      <stop offset="0.9568627450980393" stop-color="#f7a60b"/>
    </linearGradient>
  </defs>
</svg>
