<?xml version="1.0" encoding="UTF-8" standalone="no"?>
<svg xmlns:xlink="http://www.w3.org/1999/xlink" height="125.0px" width="103.15px" xmlns="http://www.w3.org/2000/svg">
  <g transform="matrix(1.0, 0.0, 0.0, 1.0, 61.1, 124.6)">
    <use height="125.0" transform="matrix(1.0, 0.0, 0.0, 1.0, -61.1, -124.6)" width="103.15" xlink:href="#decoration29-shape0"/>
  </g>
  <defs>
    <g id="decoration29-shape0" transform="matrix(1.0, 0.0, 0.0, 1.0, 61.1, 124.6)">
      <path d="M22.5 -115.0 Q26.95 -117.85 30.6 -113.9 L34.6 -106.05 Q41.05 -105.5 42.05 -99.35 L42.05 -10.05 Q41.0 -6.35 37.6 -5.95 40.35 -0.4 32.9 0.1 L24.15 -4.0 -19.9 -4.0 Q-20.5 1.05 -27.1 0.15 L-33.1 -11.6 -25.65 -115.4 Q-23.15 -117.85 -18.85 -116.05 -9.7 -113.2 -1.15 -116.7 L3.1 -122.8 Q6.55 -123.65 11.2 -119.75 16.15 -113.25 22.5 -115.0" fill="#000000" fill-opacity="0.3019608" fill-rule="evenodd" stroke="none"/>
      <path d="M-2.85 -123.95 Q0.4 -124.75 3.7 -123.2 L6.45 -120.9 Q8.6 -118.75 9.65 -116.8 10.65 -115.0 13.2 -114.4 15.55 -113.9 18.6 -114.4 20.25 -115.55 21.85 -116.05 24.6 -112.5 28.85 -113.05 L29.0 -112.75 Q29.85 -111.2 30.25 -109.15 L26.05 -109.15 23.85 -109.15 Q12.25 -114.8 -2.25 -114.3 -11.7 -113.3 -22.0 -109.15 L-28.4 -109.15 Q-27.05 -113.6 -21.05 -115.15 L-19.95 -114.4 Q-14.35 -113.4 -11.0 -116.8 -2.95 -119.3 -2.85 -123.95" fill="url(#decoration29-gradient0)" fill-rule="evenodd" stroke="none"/>
      <path d="M21.85 -116.05 L25.65 -116.2 Q27.7 -115.1 28.85 -113.05 24.6 -112.5 21.85 -116.05 M-31.6 -109.15 Q-31.1 -111.65 -29.95 -113.45 -28.8 -115.2 -27.0 -116.2 -24.2 -116.9 -21.05 -115.15 -27.05 -113.6 -28.4 -109.15 L-31.6 -109.15 M-11.0 -116.8 Q-8.0 -121.75 -5.05 -123.2 L-2.85 -123.95 Q-2.95 -119.3 -11.0 -116.8 M-22.0 -109.15 Q-11.7 -113.3 -2.25 -114.3 12.25 -114.8 23.85 -109.15 L-12.4 -109.15 -22.0 -109.15" fill="#664626" fill-rule="evenodd" stroke="none"/>
      <path d="M38.55 -86.5 L38.55 -71.4 Q37.8 -59.2 32.85 -53.25 L32.85 -90.9 32.85 -94.05 32.85 -96.55 Q36.8 -93.9 38.55 -86.5 M38.55 -55.65 L38.55 -19.05 Q35.05 -26.05 35.0 -37.65 35.25 -46.65 38.55 -55.65 M37.7 -10.6 Q37.1 -8.95 34.85 -7.9 L32.65 -7.25 27.75 -7.25 9.7 -7.25 Q13.7 -9.3 18.6 -10.45 L28.45 -10.45 Q31.65 -10.7 33.0 -12.95 36.4 -12.6 37.7 -10.6 M-18.9 -7.25 L-26.85 -7.25 -31.15 -7.25 -31.8 -7.25 Q-38.05 -7.4 -38.65 -13.4 -36.9 -28.05 -30.95 -40.3 -29.1 -38.4 -25.3 -38.4 L12.9 -38.4 Q-5.25 -36.9 -15.5 -33.55 L-27.35 -33.55 Q-32.1 -33.55 -32.1 -28.8 L-32.1 -16.4 Q-32.1 -13.95 -30.55 -12.5 -29.85 -11.25 -28.05 -10.45 L-26.65 -10.45 Q-24.85 -8.25 -18.9 -7.25 M-38.75 -31.55 L-38.75 -56.9 Q-37.85 -74.65 -32.85 -87.75 L-32.85 -54.15 Q-34.3 -38.1 -38.75 -31.55 M-38.75 -98.9 L-38.75 -101.55 Q-38.75 -108.9 -31.6 -109.15 -34.55 -101.85 -38.75 -98.9 M23.85 -109.15 L26.05 -109.15 Q21.35 -106.05 11.75 -104.15 L-17.95 -104.15 Q-17.35 -107.0 -12.4 -109.15 L23.85 -109.15" fill="url(#decoration29-gradient1)" fill-rule="evenodd" stroke="none"/>
      <path d="M30.25 -109.15 L32.5 -109.05 Q38.55 -108.35 38.55 -101.55 L38.55 -86.5 Q36.8 -93.9 32.85 -96.55 32.85 -104.15 25.25 -104.15 L11.75 -104.15 Q21.35 -106.05 26.05 -109.15 L30.25 -109.15 M38.55 -71.4 L38.55 -55.65 Q35.25 -46.65 35.0 -37.65 35.05 -26.05 38.55 -19.05 L38.55 -14.85 Q38.55 -12.35 37.7 -10.6 36.4 -12.6 33.0 -12.95 L33.0 -28.45 32.35 -30.55 Q31.5 -33.55 27.8 -33.55 L24.35 -33.55 14.75 -33.55 -15.5 -33.55 Q-5.25 -36.9 12.9 -38.4 L25.25 -38.4 Q32.85 -38.4 32.85 -46.0 L32.85 -53.25 Q37.8 -59.2 38.55 -71.4 M9.7 -7.25 L-18.9 -7.25 Q-24.85 -8.25 -26.65 -10.45 L18.6 -10.45 Q13.7 -9.3 9.7 -7.25 M-38.65 -13.4 L-38.75 -14.85 -38.75 -31.55 Q-34.3 -38.1 -32.85 -54.15 L-32.85 -46.0 Q-32.85 -42.2 -30.95 -40.3 -36.9 -28.05 -38.65 -13.4 M-38.75 -56.9 L-38.75 -98.9 Q-34.55 -101.85 -31.6 -109.15 L-28.4 -109.15 -22.0 -109.15 -12.4 -109.15 Q-17.35 -107.0 -17.95 -104.15 L-25.3 -104.15 Q-32.85 -104.15 -32.85 -96.55 L-32.85 -94.05 -32.85 -90.9 -32.85 -87.75 Q-37.85 -74.65 -38.75 -56.9" fill="url(#decoration29-gradient2)" fill-rule="evenodd" stroke="none"/>
      <path d="M11.75 -104.15 L25.25 -104.15 Q32.85 -104.15 32.85 -96.55 L32.85 -94.05 -32.85 -94.05 -32.85 -96.55 Q-32.85 -104.15 -25.3 -104.15 L-17.95 -104.15 11.75 -104.15 M-32.85 -90.9 L32.85 -90.9 32.85 -53.25 32.85 -46.0 Q32.85 -38.4 25.25 -38.4 L12.9 -38.4 -25.3 -38.4 Q-29.1 -38.4 -30.95 -40.3 -32.85 -42.2 -32.85 -46.0 L-32.85 -54.15 -32.85 -87.75 -32.85 -90.9" fill="url(#decoration29-gradient3)" fill-rule="evenodd" stroke="none"/>
      <path d="M32.85 -94.05 L32.85 -90.9 -32.85 -90.9 -32.85 -94.05 32.85 -94.05" fill="#625e5a" fill-rule="evenodd" stroke="none"/>
      <path d="M24.35 -33.55 L27.8 -33.55 Q31.5 -33.55 32.35 -30.55 25.6 -27.0 23.85 -20.95 25.35 -17.05 32.5 -16.4 32.5 -14.2 31.45 -13.0 30.3 -11.65 27.8 -11.65 L15.1 -11.65 Q5.6 -14.05 6.4 -19.05 11.2 -28.2 24.35 -33.55 M14.75 -33.55 Q9.95 -30.25 -0.5 -28.75 -17.0 -26.15 -27.35 -33.55 L-15.5 -33.55 14.75 -33.55 M-32.1 -28.8 Q-14.45 -24.15 -13.65 -17.9 -13.25 -13.6 -22.4 -11.65 L-27.35 -11.65 Q-29.35 -11.65 -30.55 -12.5 -32.1 -13.95 -32.1 -16.4 L-32.1 -28.8" fill="url(#decoration29-gradient4)" fill-rule="evenodd" stroke="none"/>
      <path d="M15.1 -11.65 L27.8 -11.65 Q22.85 -11.4 18.6 -10.45 L-26.65 -10.45 Q-27.2 -11.0 -27.35 -11.65 L-22.4 -11.65 15.1 -11.65 M31.45 -13.0 Q32.5 -14.2 32.5 -16.4 L32.5 -28.8 32.35 -30.55 33.0 -28.45 33.0 -12.95 31.45 -13.0" fill="#4f341a" fill-rule="evenodd" stroke="none"/>
      <path d="M24.35 -33.55 Q11.2 -28.2 6.4 -19.05 5.6 -14.05 15.1 -11.65 L-22.4 -11.65 Q-13.25 -13.6 -13.65 -17.9 -14.45 -24.15 -32.1 -28.8 -32.1 -33.55 -27.35 -33.55 -17.0 -26.15 -0.5 -28.75 9.95 -30.25 14.75 -33.55 L24.35 -33.55 M32.5 -16.4 Q25.35 -17.05 23.85 -20.95 25.6 -27.0 32.35 -30.55 L32.5 -28.8 32.5 -16.4 M-2.75 -19.05 L-2.25 -17.6 Q-1.2 -16.05 1.25 -15.85 3.0 -15.7 4.35 -17.15 5.4 -18.35 5.4 -19.35 5.35 -20.65 4.7 -21.5 L3.9 -22.05 Q3.9 -23.45 3.1 -24.45 L2.45 -25.2 Q1.35 -26.1 -0.1 -26.1 -1.75 -26.1 -2.95 -24.9 -3.95 -23.9 -4.1 -22.55 -4.4 -20.6 -2.75 -19.05" fill="url(#decoration29-gradient5)" fill-rule="evenodd" stroke="none"/>
      <path d="M3.9 -22.05 L4.7 -21.5 Q5.35 -20.65 5.4 -19.35 5.4 -18.35 4.35 -17.15 3.0 -15.7 1.25 -15.85 -1.2 -16.05 -2.25 -17.6 L-2.75 -19.05 Q-4.4 -20.6 -4.1 -22.55 -3.65 -21.5 -2.65 -20.8 -0.85 -19.65 1.75 -21.2 3.05 -21.95 2.95 -23.55 L2.45 -25.2 3.1 -24.45 Q3.9 -23.45 3.9 -22.05 3.9 -20.4 2.75 -19.2 1.55 -18.0 -0.1 -18.0 -0.75 -18.0 -1.8 -18.55 L-2.75 -19.05 -1.8 -18.55 Q-0.75 -18.0 -0.1 -18.0 1.55 -18.0 2.75 -19.2 3.9 -20.4 3.9 -22.05" fill="#513417" fill-rule="evenodd" stroke="none"/>
      <path d="M-4.1 -22.55 Q-3.95 -23.9 -2.95 -24.9 -1.75 -26.1 -0.1 -26.1 1.35 -26.1 2.45 -25.2 L2.95 -23.55 Q3.05 -21.95 1.75 -21.2 -0.85 -19.65 -2.65 -20.8 -3.65 -21.5 -4.1 -22.55 M-1.0 -22.3 Q-0.25 -22.4 -0.05 -22.75 0.65 -24.1 -0.15 -24.75 -0.65 -25.2 -1.25 -25.2 -2.7 -25.05 -2.75 -23.9 L-2.45 -22.75 Q-1.9 -22.15 -1.0 -22.3" fill="#795531" fill-rule="evenodd" stroke="none"/>
      <path d="M27.8 -11.65 Q30.3 -11.65 31.45 -13.0 L33.0 -12.95 Q31.65 -10.7 28.45 -10.45 L18.6 -10.45 Q22.85 -11.4 27.8 -11.65 M-30.55 -12.5 Q-29.35 -11.65 -27.35 -11.65 -27.2 -11.0 -26.65 -10.45 L-28.05 -10.45 Q-29.85 -11.25 -30.55 -12.5" fill="#624222" fill-rule="evenodd" stroke="none"/>
      <path d="M32.65 -7.25 Q34.1 -7.2 35.1 -6.2 36.15 -5.1 36.15 -3.65 L36.15 -3.6 Q36.15 -2.15 35.1 -1.1 34.05 0.0 32.55 0.0 L28.65 0.0 Q27.15 0.0 26.05 -1.1 25.05 -2.15 25.05 -3.6 L25.05 -3.65 Q25.05 -5.1 26.05 -6.2 27.1 -7.2 27.75 -7.25 L32.65 -7.25 M-26.85 -7.25 L-25.35 -6.2 Q-24.25 -5.1 -24.25 -3.65 L-24.25 -3.6 Q-24.25 -2.15 -25.35 -1.1 -26.4 0.0 -27.85 0.0 L-31.8 0.0 Q-33.25 0.0 -34.35 -1.1 -35.4 -2.15 -35.4 -3.6 L-35.4 -3.65 Q-35.4 -5.1 -34.35 -6.2 -33.25 -7.25 -31.8 -7.25 L-31.15 -7.25 -26.85 -7.25" fill="#583b1e" fill-rule="evenodd" stroke="none"/>
      <path d="M-1.0 -22.3 Q-1.9 -22.15 -2.45 -22.75 L-2.75 -23.9 Q-2.7 -25.05 -1.25 -25.2 -0.65 -25.2 -0.15 -24.75 0.65 -24.1 -0.05 -22.75 -0.25 -22.4 -1.0 -22.3" fill="#9f6f40" fill-rule="evenodd" stroke="none"/>
      <path d="M-2.85 -123.95 Q0.4 -124.75 3.7 -123.2 L6.45 -120.9 Q8.6 -118.75 9.65 -116.8 10.65 -115.0 13.2 -114.4 15.55 -113.9 18.6 -114.4 20.25 -115.55 21.85 -116.05 L25.65 -116.2 Q27.7 -115.1 28.85 -113.05 L29.0 -112.75 Q29.85 -111.2 30.25 -109.15 L32.5 -109.05 Q38.55 -108.35 38.55 -101.55 L38.55 -86.5 38.55 -71.4 38.55 -55.65 38.55 -19.05 38.55 -14.85 Q38.55 -12.35 37.7 -10.6 37.1 -8.95 34.85 -7.9 L32.65 -7.25 Q34.1 -7.2 35.1 -6.2 36.15 -5.1 36.15 -3.65 L36.15 -3.6 Q36.15 -2.15 35.1 -1.1 34.05 0.0 32.55 0.0 L28.65 0.0 Q27.15 0.0 26.05 -1.1 25.05 -2.15 25.05 -3.6 L25.05 -3.65 Q25.05 -5.1 26.05 -6.2 27.1 -7.2 27.75 -7.25 L9.7 -7.25 -18.9 -7.25 -26.85 -7.25 -25.35 -6.2 Q-24.25 -5.1 -24.25 -3.65 L-24.25 -3.6 Q-24.25 -2.15 -25.35 -1.1 -26.4 0.0 -27.85 0.0 L-31.8 0.0 Q-33.25 0.0 -34.35 -1.1 -35.4 -2.15 -35.4 -3.6 L-35.4 -3.65 Q-35.4 -5.1 -34.35 -6.2 -33.25 -7.25 -31.8 -7.25 -38.05 -7.4 -38.65 -13.4 L-38.75 -14.85 -38.75 -31.55 -38.75 -56.9 -38.75 -98.9 -38.75 -101.55 Q-38.75 -108.9 -31.6 -109.15 -31.1 -111.65 -29.95 -113.45 -28.8 -115.2 -27.0 -116.2 -24.2 -116.9 -21.05 -115.15 L-19.95 -114.4 Q-14.35 -113.4 -11.0 -116.8 -8.0 -121.75 -5.05 -123.2 L-2.85 -123.95 M23.85 -109.15 L26.05 -109.15 30.25 -109.15 M32.65 -7.25 L27.75 -7.25 M-28.4 -109.15 L-31.6 -109.15 M-28.4 -109.15 L-22.0 -109.15 M23.85 -109.15 L-12.4 -109.15 -22.0 -109.15 M-26.85 -7.25 L-31.15 -7.25 -31.8 -7.25" fill="none" stroke="#000000" stroke-linecap="round" stroke-linejoin="round" stroke-opacity="0.47843137" stroke-width="0.8"/>
      <path d="M-2.85 -123.95 Q-2.95 -119.3 -11.0 -116.8 M21.85 -116.05 Q24.6 -112.5 28.85 -113.05 M26.05 -109.15 Q21.35 -106.05 11.75 -104.15 M32.85 -96.55 Q36.8 -93.9 38.55 -86.5 M32.85 -53.25 Q37.8 -59.2 38.55 -71.4 M24.35 -33.55 Q11.2 -28.2 6.4 -19.05 5.6 -14.05 15.1 -11.65 M32.5 -16.4 Q25.35 -17.05 23.85 -20.95 25.6 -27.0 32.35 -30.55 M33.0 -12.95 Q36.4 -12.6 37.7 -10.6 M9.7 -7.25 Q13.7 -9.3 18.6 -10.45 22.85 -11.4 27.8 -11.65 M-26.65 -10.45 Q-24.85 -8.25 -18.9 -7.25 M31.45 -13.0 L33.0 -12.95 M14.75 -33.55 Q9.95 -30.25 -0.5 -28.75 -17.0 -26.15 -27.35 -33.55 M-32.1 -28.8 Q-14.45 -24.15 -13.65 -17.9 -13.25 -13.6 -22.4 -11.65 M38.55 -55.65 Q35.25 -46.65 35.0 -37.65 35.05 -26.05 38.55 -19.05 M-31.6 -109.15 Q-34.55 -101.85 -38.75 -98.9 M-21.05 -115.15 Q-27.05 -113.6 -28.4 -109.15 M-22.0 -109.15 Q-11.7 -113.3 -2.25 -114.3 12.25 -114.8 23.85 -109.15 M-12.4 -109.15 Q-17.35 -107.0 -17.95 -104.15 M12.9 -38.4 Q-5.25 -36.9 -15.5 -33.55 M-38.75 -56.9 Q-37.85 -74.65 -32.85 -87.75 M-26.65 -10.45 Q-27.2 -11.0 -27.35 -11.65 M-30.95 -40.3 Q-36.9 -28.05 -38.65 -13.4 M-32.85 -54.15 Q-34.3 -38.1 -38.75 -31.55" fill="none" stroke="#000000" stroke-linecap="round" stroke-linejoin="round" stroke-opacity="0.16862746" stroke-width="0.2"/>
      <path d="M11.75 -104.15 L25.25 -104.15 Q32.85 -104.15 32.85 -96.55 M32.85 -90.9 L32.85 -94.05 -32.85 -94.05 -32.85 -90.9 32.85 -90.9 32.85 -53.25 M32.85 -94.05 L32.85 -96.55 M32.35 -30.55 Q31.5 -33.55 27.8 -33.55 L24.35 -33.55 14.75 -33.55 M15.1 -11.65 L27.8 -11.65 Q30.3 -11.65 31.45 -13.0 32.5 -14.2 32.5 -16.4 M32.35 -30.55 L32.5 -28.8 32.5 -16.4 M12.9 -38.4 L25.25 -38.4 Q32.85 -38.4 32.85 -46.0 L32.85 -53.25 M-2.75 -19.05 Q-4.4 -20.6 -4.1 -22.55 -3.95 -23.9 -2.95 -24.9 -1.75 -26.1 -0.1 -26.1 1.35 -26.1 2.45 -25.2 L3.1 -24.45 Q3.9 -23.45 3.9 -22.05 3.9 -20.4 2.75 -19.2 1.55 -18.0 -0.1 -18.0 -0.75 -18.0 -1.8 -18.55 L-2.75 -19.05 M-27.35 -33.55 Q-32.1 -33.55 -32.1 -28.8 L-32.1 -16.4 Q-32.1 -13.95 -30.55 -12.5 -29.35 -11.65 -27.35 -11.65 L-22.4 -11.65 15.1 -11.65 M-17.95 -104.15 L11.75 -104.15 M-17.95 -104.15 L-25.3 -104.15 Q-32.85 -104.15 -32.85 -96.55 L-32.85 -94.05 M-32.85 -90.9 L-32.85 -87.75 -32.85 -54.15 -32.85 -46.0 Q-32.85 -42.2 -30.95 -40.3 -29.1 -38.4 -25.3 -38.4 L12.9 -38.4 M-15.5 -33.55 L14.75 -33.55 M-15.5 -33.55 L-27.35 -33.55" fill="none" stroke="#000000" stroke-linecap="round" stroke-linejoin="round" stroke-opacity="0.32941177" stroke-width="0.30000000000000004"/>
      <path d="M-0.4 -81.1 Q13.05 -86.85 23.15 -104.3 L28.55 -104.3 Q33.5 -104.3 33.5 -99.2 L33.5 -96.95 Q5.4 -86.0 -0.4 -49.45 L-0.4 -81.1 M33.5 -78.15 L33.5 -63.8 Q25.7 -46.45 30.25 -38.3 L28.55 -38.15 12.65 -38.15 Q14.65 -64.9 33.5 -78.15" fill="url(#decoration29-gradient6)" fill-rule="evenodd" stroke="none"/>
      <path d="M-0.4 -81.1 L-0.4 -99.2 Q-0.4 -104.3 4.55 -104.3 L23.15 -104.3 Q13.05 -86.85 -0.4 -81.1 M33.5 -96.95 L33.5 -78.15 Q14.65 -64.9 12.65 -38.15 L4.55 -38.15 Q-0.4 -38.15 -0.4 -43.2 L-0.4 -49.45 Q5.4 -86.0 33.5 -96.95 M33.5 -63.8 L33.5 -43.2 Q33.5 -39.1 30.25 -38.3 25.7 -46.45 33.5 -63.8" fill="url(#decoration29-gradient7)" fill-rule="evenodd" stroke="none"/>
      <path d="M23.15 -104.3 L4.55 -104.3 Q-0.4 -104.3 -0.4 -99.2 L-0.4 -81.1 M23.15 -104.3 L28.55 -104.3 Q33.5 -104.3 33.5 -99.2 L33.5 -96.95 33.5 -78.15 33.5 -63.8 33.5 -43.2 Q33.5 -39.1 30.25 -38.3 L28.55 -38.15 12.65 -38.15 4.55 -38.15 Q-0.4 -38.15 -0.4 -43.2 L-0.4 -49.45 -0.4 -81.1" fill="none" stroke="#000000" stroke-linecap="round" stroke-linejoin="round" stroke-opacity="0.30980393" stroke-width="0.30000000000000004"/>
      <path d="M-0.4 -81.1 Q13.05 -86.85 23.15 -104.3 M33.5 -78.15 Q14.65 -64.9 12.65 -38.15 M30.25 -38.3 Q25.7 -46.45 33.5 -63.8 M33.5 -96.95 Q5.4 -86.0 -0.4 -49.45" fill="none" stroke="#000000" stroke-linecap="round" stroke-linejoin="round" stroke-opacity="0.16862746" stroke-width="0.2"/>
      <path d="M-16.7 -88.3 L-17.6 -86.7 Q-18.4 -85.65 -19.7 -85.3 L-19.25 -86.55 -18.15 -87.4 Q-17.65 -88.0 -17.5 -88.85 L-16.7 -88.3 M-28.15 -76.55 Q-27.05 -75.3 -26.3 -73.35 L-26.3 -73.3 -26.7 -71.65 -27.1 -73.0 -28.75 -75.4 -28.15 -76.55 M-14.25 -85.0 L-13.7 -83.8 Q-14.2 -81.95 -15.65 -80.6 L-15.8 -82.05 Q-14.35 -83.0 -14.25 -85.0 M-9.25 -61.45 L-8.8 -60.8 -8.75 -60.2 Q-8.8 -58.55 -9.95 -57.25 -11.5 -57.15 -11.65 -56.35 L-11.3 -55.6 Q-12.6 -53.35 -14.8 -53.2 L-17.0 -53.45 Q-18.95 -54.6 -20.1 -53.85 L-20.1 -52.85 -21.95 -52.8 -24.55 -52.8 -24.5 -53.6 -20.1 -53.85 -20.1 -55.1 Q-18.65 -55.95 -16.55 -54.45 -12.55 -53.6 -11.65 -56.35 L-12.35 -57.85 Q-11.7 -58.65 -10.3 -58.5 -9.05 -58.65 -9.25 -61.45" fill="#b69033" fill-rule="evenodd" stroke="none"/>
      <path d="M-19.7 -85.3 Q-18.4 -85.65 -17.6 -86.7 L-16.7 -88.3 -14.7 -86.3 -14.25 -85.0 Q-14.35 -83.0 -15.8 -82.05 L-15.65 -80.6 -15.3 -77.85 -15.3 -71.85 -9.25 -61.45 Q-9.05 -58.65 -10.3 -58.5 -11.7 -58.65 -12.35 -57.85 L-11.65 -56.35 Q-12.55 -53.6 -16.55 -54.45 -18.65 -55.95 -20.1 -55.1 L-20.1 -53.85 -24.5 -53.6 Q-22.9 -62.55 -23.8 -68.15 -25.25 -67.8 -27.0 -64.95 L-25.6 -71.5 -26.3 -73.3 -26.3 -73.35 Q-27.05 -75.3 -28.15 -76.55 -25.8 -79.5 -25.25 -83.05 -22.75 -82.45 -21.4 -84.05 L-22.75 -77.45 Q-20.35 -81.15 -19.7 -85.3 M-25.5 -78.1 L-25.75 -76.15 -26.3 -73.35 -25.75 -76.15 -25.5 -78.1 M-15.8 -82.05 L-16.4 -86.6 -15.8 -82.05 M-24.15 -80.55 Q-24.5 -77.3 -25.75 -76.15 -24.5 -77.3 -24.15 -80.55 M-24.95 -69.65 L-25.6 -71.5 -24.95 -69.65 M-20.1 -61.25 L-20.1 -55.1 -20.1 -61.25 M-16.65 -68.15 L-12.35 -57.85 -16.65 -68.15 M-21.3 -70.8 Q-18.2 -73.6 -17.25 -81.95 -18.2 -73.6 -21.3 -70.8" fill="#bf80b9" fill-rule="evenodd" stroke="none"/>
      <path d="M-19.25 -86.55 L-19.7 -85.3 -20.6 -85.15 Q-23.75 -85.15 -25.45 -87.3 L-24.25 -88.0 Q-23.85 -87.1 -22.85 -86.7 L-19.25 -86.55 M-24.55 -52.8 Q-27.55 -53.15 -29.25 -54.4 L-29.0 -55.3 Q-27.35 -53.9 -24.5 -53.6 L-24.55 -52.8 M-31.35 -77.15 L-30.85 -78.4 Q-29.35 -78.0 -28.15 -76.55 L-28.75 -75.4 Q-30.25 -77.35 -31.35 -77.15" fill="#e5c169" fill-rule="evenodd" stroke="none"/>
      <path d="M-19.7 -85.3 Q-20.35 -81.15 -22.75 -77.45 L-21.4 -84.05 Q-22.75 -82.45 -25.25 -83.05 -25.8 -79.5 -28.15 -76.55 -29.35 -78.0 -30.85 -78.4 L-28.4 -84.55 -25.45 -87.3 Q-23.75 -85.15 -20.6 -85.15 L-19.7 -85.3 M-29.0 -55.3 L-27.0 -64.95 Q-25.25 -67.8 -23.8 -68.15 -22.9 -62.55 -24.5 -53.6 -27.35 -53.9 -29.0 -55.3" fill="#dea5d8" fill-rule="evenodd" stroke="none"/>
      <path d="M-26.7 -71.65 Q-27.05 -71.15 -28.85 -72.9 -31.15 -75.15 -31.35 -77.15 -30.25 -77.35 -28.75 -75.4 L-27.1 -73.0 -26.7 -71.65" fill="#a3669d" fill-rule="evenodd" stroke="none"/>
      <path d="M-19.7 -85.3 Q-18.4 -85.65 -17.6 -86.7 L-16.7 -88.3 -17.5 -88.85 Q-17.65 -88.0 -18.15 -87.4 L-19.25 -86.55 -22.85 -86.7 Q-23.85 -87.1 -24.25 -88.0 L-20.65 -91.45 -20.85 -93.2 Q-20.8 -94.45 -19.9 -94.3 M-28.15 -76.55 Q-27.05 -75.3 -26.3 -73.35 L-25.75 -76.15 -25.5 -78.1 M-14.25 -85.0 L-13.7 -83.8 Q-14.2 -81.95 -15.65 -80.6 L-15.3 -77.85 -15.3 -71.85 -9.25 -61.45 -8.8 -60.8 -8.75 -60.2 Q-8.8 -58.55 -9.95 -57.25 -11.5 -57.15 -11.65 -56.35 L-11.3 -55.6 Q-12.6 -53.35 -14.8 -53.2 L-17.0 -53.45 Q-18.95 -54.6 -20.1 -53.85 L-20.1 -52.85 -21.95 -52.8 -24.55 -52.8 Q-27.55 -53.15 -29.25 -54.4 L-29.0 -55.3 -27.0 -64.95 -25.6 -71.5 -26.3 -73.3 -26.7 -71.65 Q-27.05 -71.15 -28.85 -72.9 -31.15 -75.15 -31.35 -77.15 L-30.85 -78.4 -28.4 -84.55 -25.45 -87.3 -24.25 -88.0 M-15.8 -82.05 Q-14.35 -83.0 -14.25 -85.0 L-14.7 -86.3 -16.7 -88.3 M-15.8 -82.05 L-15.65 -80.6 M-16.4 -86.6 L-15.8 -82.05 M-28.75 -75.4 L-27.1 -73.0 -26.7 -71.65 M-25.75 -76.15 Q-24.5 -77.3 -24.15 -80.55 M-19.7 -85.3 L-20.6 -85.15 Q-23.75 -85.15 -25.45 -87.3 M-31.35 -77.15 Q-30.25 -77.35 -28.75 -75.4 M-30.85 -78.4 Q-29.35 -78.0 -28.15 -76.55 M-24.5 -53.6 L-20.1 -53.85 -20.1 -55.1 -20.1 -61.25 M-25.6 -71.5 L-24.95 -69.65 M-26.3 -73.3 L-26.3 -73.35 M-29.0 -55.3 Q-27.35 -53.9 -24.5 -53.6 M-12.35 -57.85 Q-11.7 -58.65 -10.3 -58.5 -9.05 -58.65 -9.25 -61.45 M-20.1 -55.1 Q-18.65 -55.95 -16.55 -54.45 -12.55 -53.6 -11.65 -56.35 L-12.35 -57.85 -16.65 -68.15 M-18.15 -87.4 L-22.85 -86.7 M-17.25 -81.95 Q-18.2 -73.6 -21.3 -70.8 M-17.5 -88.85 L-20.65 -91.45" fill="none" stroke="#000000" stroke-linecap="round" stroke-linejoin="round" stroke-opacity="0.3019608" stroke-width="0.30000000000000004"/>
      <path d="M-9.7 -88.75 Q-8.25 -88.35 -7.55 -87.45 L-5.75 -81.2 -6.0 -78.0 -4.9 -73.0 -4.75 -72.35 Q-4.9 -71.5 -7.4 -70.45 -5.55 -66.65 -5.65 -64.75 L-5.85 -63.95 Q-9.85 -61.6 -17.0 -61.35 -18.8 -61.75 -18.35 -63.1 L-18.15 -65.05 -18.9 -64.95 Q-21.05 -65.4 -20.85 -66.1 L-20.45 -67.55 Q-20.4 -65.75 -18.35 -66.0 -16.95 -69.1 -16.8 -73.6 L-18.05 -72.35 -15.6 -78.75 -15.7 -78.05 -15.0 -78.85 -15.4 -73.85 Q-13.65 -76.15 -12.65 -79.1 -13.75 -78.45 -14.9 -77.85 L-14.25 -78.35 -12.7 -80.15 Q-11.8 -81.7 -11.2 -83.9 L-14.1 -85.15 -11.9 -85.75 Q-14.55 -86.25 -16.55 -87.35 L-16.05 -87.75 Q-12.4 -85.7 -9.7 -88.75 M-15.95 -73.15 Q-16.05 -75.65 -15.7 -78.05 -16.05 -75.65 -15.95 -73.15 L-16.15 -72.8 -15.85 -71.2 -15.95 -73.15 M-18.15 -65.05 Q-15.65 -65.4 -14.5 -66.6 -14.55 -67.3 -15.15 -68.3 L-15.85 -71.2 -15.15 -68.3 Q-14.55 -67.3 -14.5 -66.6 -15.65 -65.4 -18.15 -65.05 M-7.4 -70.45 L-7.65 -72.1 -7.7 -73.0 Q-7.4 -75.15 -7.65 -76.35 L-7.1 -78.15 -6.9 -80.45 Q-6.85 -82.35 -8.3 -85.2 -6.85 -82.35 -6.9 -80.45 L-7.1 -78.15 -7.65 -76.35 Q-7.4 -75.15 -7.7 -73.0 L-7.65 -72.1 -7.4 -70.45 M-6.4 -75.45 L-6.0 -78.0 -6.4 -75.45 M-10.45 -71.0 Q-9.0 -73.45 -7.65 -76.35 -9.0 -73.45 -10.45 -71.0 M-15.95 -69.3 L-15.15 -68.3 -15.95 -69.3" fill="#323c0d" fill-rule="evenodd" stroke="none"/>
      <path d="M-20.45 -67.55 L-20.25 -68.1 Q-20.8 -69.45 -20.5 -70.7 L-19.9 -72.9 Q-20.55 -75.55 -20.3 -79.35 -20.1 -83.2 -19.2 -84.65 L-16.55 -87.35 Q-14.55 -86.25 -11.9 -85.75 L-14.1 -85.15 -11.2 -83.9 Q-11.8 -81.7 -12.7 -80.15 L-14.25 -78.35 -14.9 -77.85 Q-13.75 -78.45 -12.65 -79.1 -13.65 -76.15 -15.4 -73.85 L-15.0 -78.85 -15.7 -78.05 -15.6 -78.75 -15.35 -80.35 -15.6 -78.75 -18.05 -72.35 -16.8 -73.6 Q-16.95 -69.1 -18.35 -66.0 -20.4 -65.75 -20.45 -67.55 M-15.95 -73.15 L-15.85 -71.2 -16.15 -72.8 -15.95 -73.15 M-14.0 -80.95 Q-14.45 -79.7 -15.0 -78.85 -14.45 -79.7 -14.0 -80.95 M-19.9 -72.9 Q-19.55 -74.95 -19.6 -77.15 -19.55 -74.95 -19.9 -72.9" fill="#475416" fill-rule="evenodd" stroke="none"/>
      <path d="M-9.7 -88.75 Q-8.25 -88.35 -7.55 -87.45 L-5.75 -81.2 -6.0 -78.0 -4.9 -73.0 -4.75 -72.35 Q-4.9 -71.5 -7.4 -70.45 -5.55 -66.65 -5.65 -64.75 L-5.85 -63.95 Q-9.85 -61.6 -17.0 -61.35 -18.8 -61.75 -18.35 -63.1 L-18.15 -65.05 -18.9 -64.95 Q-21.05 -65.4 -20.85 -66.1 L-20.45 -67.55 -20.25 -68.1 Q-20.8 -69.45 -20.5 -70.7 L-19.9 -72.9 Q-20.55 -75.55 -20.3 -79.35 -20.1 -83.2 -19.2 -84.65 L-16.55 -87.35 -16.05 -87.75 -12.9 -91.0 Q-13.75 -92.1 -13.1 -93.15 -12.7 -94.05 -12.0 -93.85 L-11.55 -93.75 M-15.0 -78.85 L-15.7 -78.05 Q-16.05 -75.65 -15.95 -73.15 L-15.85 -71.2 -15.15 -68.3 Q-14.55 -67.3 -14.5 -66.6 -15.65 -65.4 -18.15 -65.05 M-15.6 -78.75 L-15.7 -78.05 M-15.6 -78.75 L-15.35 -80.35 M-15.0 -78.85 Q-14.45 -79.7 -14.0 -80.95 M-6.0 -78.0 L-6.4 -75.45 M-8.3 -85.2 Q-6.85 -82.35 -6.9 -80.45 L-7.1 -78.15 -7.65 -76.35 Q-7.4 -75.15 -7.7 -73.0 L-7.65 -72.1 -7.4 -70.45 M-16.05 -87.75 Q-12.4 -85.7 -9.7 -88.75 L-12.9 -91.0 M-16.15 -72.8 L-15.85 -71.2 M-15.15 -68.3 L-15.95 -69.3 M-7.65 -76.35 Q-9.0 -73.45 -10.45 -71.0 M-19.6 -77.15 Q-19.55 -74.95 -19.9 -72.9" fill="none" stroke="#000000" stroke-linecap="round" stroke-linejoin="round" stroke-opacity="0.3019608" stroke-width="0.30000000000000004"/>
      <path d="M-56.15 -110.05 Q-58.9 -109.6 -58.85 -105.6 L-58.85 -91.1 -58.85 -54.05 -58.85 -40.95 -58.85 -38.8 Q-59.0 -34.85 -55.9 -34.1 -60.9 -33.8 -60.7 -38.8 L-60.7 -105.6 Q-60.75 -110.0 -57.4 -110.15 L-56.5 -110.1 -56.15 -110.05" fill="#794814" fill-rule="evenodd" stroke="none"/>
      <path d="M-56.15 -110.05 L-55.55 -110.15 -54.65 -110.1 -52.6 -109.65 Q-54.25 -98.15 -58.85 -91.1 L-58.85 -105.6 Q-58.9 -109.6 -56.15 -110.05 M-38.4 -105.65 L-32.95 -104.15 Q-41.7 -88.4 -39.45 -79.8 -35.4 -76.25 -28.7 -85.35 L-28.65 -79.2 Q-50.05 -70.25 -58.85 -40.95 L-58.85 -54.05 Q-55.95 -94.25 -38.4 -105.65 M-28.6 -68.25 L-28.5 -44.75 Q-28.55 -40.05 -32.75 -38.95 -35.9 -51.85 -28.6 -68.25 M-35.85 -38.2 L-52.55 -34.25 -54.1 -33.95 -55.9 -34.1 Q-49.8 -48.95 -41.85 -53.4 -36.7 -54.4 -35.85 -38.2" fill="#4f3112" fill-rule="evenodd" stroke="none"/>
      <path d="M-58.85 -91.1 Q-54.25 -98.15 -52.6 -109.65 L-38.4 -105.65 Q-55.95 -94.25 -58.85 -54.05 L-58.85 -91.1 M-32.95 -104.15 Q-28.75 -102.9 -28.75 -98.15 L-28.7 -85.35 Q-35.4 -76.25 -39.45 -79.8 -41.7 -88.4 -32.95 -104.15 M-28.65 -79.2 L-28.6 -68.25 Q-35.9 -51.85 -32.75 -38.95 L-35.85 -38.2 Q-36.7 -54.4 -41.85 -53.4 -49.8 -48.95 -55.9 -34.1 -59.0 -34.85 -58.85 -38.8 L-58.85 -40.95 Q-50.05 -70.25 -28.65 -79.2" fill="#462b0f" fill-rule="evenodd" stroke="none"/>
      <path d="M-52.6 -109.65 L-54.65 -110.1 -55.55 -110.15 -56.15 -110.05 M-52.6 -109.65 L-38.4 -105.65 -32.95 -104.15 M-32.75 -38.95 L-35.85 -38.2 -52.55 -34.25 -54.1 -33.95 -55.9 -34.1 Q-60.9 -33.8 -60.7 -38.8 L-60.7 -105.6 Q-60.75 -110.0 -57.4 -110.15 L-56.5 -110.1 -56.15 -110.05" fill="none" stroke="#000000" stroke-linecap="round" stroke-linejoin="round" stroke-opacity="0.47843137" stroke-width="0.8"/>
      <path d="M-32.95 -104.15 Q-28.75 -102.9 -28.75 -98.15 L-28.7 -85.35 -28.65 -79.2 -28.6 -68.25 -28.5 -44.75 Q-28.55 -40.05 -32.75 -38.95" fill="none" stroke="#000000" stroke-linecap="round" stroke-linejoin="round" stroke-opacity="0.30980393" stroke-width="0.30000000000000004"/>
      <path d="M-58.85 -91.1 Q-54.25 -98.15 -52.6 -109.65 M-28.7 -85.35 Q-35.4 -76.25 -39.45 -79.8 -41.7 -88.4 -32.95 -104.15 M-58.85 -54.05 Q-55.95 -94.25 -38.4 -105.65 M-28.65 -79.2 Q-50.05 -70.25 -58.85 -40.95 M-35.85 -38.2 Q-36.7 -54.4 -41.85 -53.4 -49.8 -48.95 -55.9 -34.1 M-32.75 -38.95 Q-35.9 -51.85 -28.6 -68.25" fill="none" stroke="#000000" stroke-linecap="round" stroke-linejoin="round" stroke-opacity="0.16862746" stroke-width="0.2"/>
      <path d="M9.7 -70.55 L10.5 -70.0 Q11.15 -69.15 11.2 -67.85 11.2 -66.85 10.15 -65.65 8.8 -64.2 7.05 -64.35 4.6 -64.55 3.55 -66.1 L3.05 -67.55 Q1.4 -69.1 1.7 -71.05 2.15 -70.0 3.15 -69.3 4.95 -68.15 7.55 -69.7 8.85 -70.45 8.75 -72.05 L8.25 -73.7 8.9 -72.95 Q9.7 -71.95 9.7 -70.55 9.7 -68.9 8.55 -67.7 7.35 -66.5 5.7 -66.5 5.05 -66.5 4.0 -67.05 L3.05 -67.55 4.0 -67.05 Q5.05 -66.5 5.7 -66.5 7.35 -66.5 8.55 -67.7 9.7 -68.9 9.7 -70.55" fill="#513417" fill-rule="evenodd" stroke="none"/>
      <path d="M1.7 -71.05 Q1.85 -72.4 2.85 -73.4 4.05 -74.6 5.7 -74.6 7.15 -74.6 8.25 -73.7 L8.75 -72.05 Q8.85 -70.45 7.55 -69.7 4.95 -68.15 3.15 -69.3 2.15 -70.0 1.7 -71.05 M5.65 -73.25 Q5.15 -73.7 4.55 -73.7 3.1 -73.55 3.05 -72.4 3.05 -71.85 3.35 -71.25 3.9 -70.65 4.8 -70.8 5.55 -70.9 5.75 -71.25 6.45 -72.6 5.65 -73.25" fill="#795531" fill-rule="evenodd" stroke="none"/>
      <path d="M5.65 -73.25 Q6.45 -72.6 5.75 -71.25 5.55 -70.9 4.8 -70.8 3.9 -70.65 3.35 -71.25 3.05 -71.85 3.05 -72.4 3.1 -73.55 4.55 -73.7 5.15 -73.7 5.65 -73.25" fill="#9f6f40" fill-rule="evenodd" stroke="none"/>
      <path d="M3.05 -67.55 Q1.4 -69.1 1.7 -71.05 1.85 -72.4 2.85 -73.4 4.05 -74.6 5.7 -74.6 7.15 -74.6 8.25 -73.7 L8.9 -72.95 Q9.7 -71.95 9.7 -70.55 9.7 -68.9 8.55 -67.7 7.35 -66.5 5.7 -66.5 5.05 -66.5 4.0 -67.05 L3.05 -67.55 Z" fill="none" stroke="#000000" stroke-linecap="round" stroke-linejoin="round" stroke-opacity="0.32941177" stroke-width="0.30000000000000004"/>
      <path d="M-5.25 -89.1 L-3.8 -87.75 Q-4.1 -86.15 -5.25 -85.65 -7.95 -85.1 -9.55 -86.25 L-8.75 -87.7 Q-6.8 -86.1 -5.15 -87.7 -4.8 -88.4 -5.25 -89.1" fill="#2a5b59" fill-rule="evenodd" stroke="none"/>
      <path d="M-3.8 -87.75 Q-2.0 -80.9 -2.1 -74.9 -2.2 -68.9 -1.6 -63.4 -4.65 -58.5 -9.35 -59.3 L-9.1 -63.85 -8.3 -66.2 -8.65 -71.7 -7.6 -71.65 Q-7.1 -77.75 -8.35 -79.2 -9.75 -79.2 -11.45 -77.55 L-11.3 -78.5 -11.4 -83.0 -9.85 -85.8 -9.55 -86.25 Q-7.95 -85.1 -5.25 -85.65 -4.1 -86.15 -3.8 -87.75 M-10.4 -81.9 L-11.3 -78.5 -10.4 -81.9 M-4.25 -81.65 Q-4.1 -78.7 -4.7 -76.5 L-5.25 -80.5 -4.7 -76.5 Q-4.1 -78.7 -4.25 -81.65 M-4.7 -76.5 L-4.15 -72.55 Q-5.85 -71.7 -7.6 -71.65 -5.85 -71.7 -4.15 -72.55 L-4.7 -76.5 M-7.4 -70.3 Q-7.1 -68.55 -8.3 -66.2 -7.1 -68.55 -7.4 -70.3" fill="#45706e" fill-rule="evenodd" stroke="none"/>
      <path d="M-8.65 -71.7 Q-10.4 -72.05 -12.3 -73.1 L-11.45 -77.55 Q-9.75 -79.2 -8.35 -79.2 -7.1 -77.75 -7.6 -71.65 L-8.65 -71.7" fill="#549a97" fill-rule="evenodd" stroke="none"/>
      <path d="M-5.4 -94.2 Q-7.65 -94.65 -7.1 -90.6 L-5.6 -89.5 -5.25 -89.1 -3.8 -87.75 Q-2.0 -80.9 -2.1 -74.9 -2.2 -68.9 -1.6 -63.4 -4.65 -58.5 -9.35 -59.3 L-9.1 -63.85 -8.3 -66.2 -8.65 -71.7 Q-10.4 -72.05 -12.3 -73.1 L-11.45 -77.55 -11.3 -78.5 -11.4 -83.0 -9.85 -85.8 -9.55 -86.25 -8.75 -87.7 -7.1 -90.6 M-8.75 -87.7 Q-6.8 -86.1 -5.15 -87.7 -4.8 -88.4 -5.25 -89.1 M-11.3 -78.5 L-10.4 -81.9 M-9.55 -86.25 L-9.85 -85.8 M-9.55 -86.25 Q-7.95 -85.1 -5.25 -85.65 -4.1 -86.15 -3.8 -87.75 M-5.25 -80.5 L-4.7 -76.5 Q-4.1 -78.7 -4.25 -81.65 M-7.6 -71.65 Q-5.85 -71.7 -4.15 -72.55 L-4.7 -76.5 M-8.65 -71.7 L-7.6 -71.65 M-8.3 -66.2 Q-7.1 -68.55 -7.4 -70.3" fill="none" stroke="#000000" stroke-linecap="round" stroke-linejoin="round" stroke-opacity="0.3019608" stroke-width="0.30000000000000004"/>
    </g>
    <linearGradient gradientTransform="matrix(0.0, 0.0123, -0.0092, 0.0, 1.5, -119.45)" gradientUnits="userSpaceOnUse" id="decoration29-gradient0" spreadMethod="pad" x1="-819.2" x2="819.2">
      <stop offset="0.023529411764705882" stop-color="#9a6e42"/>
      <stop offset="1.0" stop-color="#795531"/>
    </linearGradient>
    <linearGradient gradientTransform="matrix(0.0, 0.0587, -0.0202, 0.0, -49.55, -86.7)" gradientUnits="userSpaceOnUse" id="decoration29-gradient1" spreadMethod="pad" x1="-819.2" x2="819.2">
      <stop offset="0.023529411764705882" stop-color="#9a6e42"/>
      <stop offset="1.0" stop-color="#795531"/>
    </linearGradient>
    <linearGradient gradientTransform="matrix(0.0, 0.0605, -0.0319, 0.0, 0.05, -70.7)" gradientUnits="userSpaceOnUse" id="decoration29-gradient2" spreadMethod="pad" x1="-819.2" x2="819.2">
      <stop offset="0.043137254901960784" stop-color="#79522a"/>
      <stop offset="1.0" stop-color="#583b1e"/>
    </linearGradient>
    <linearGradient gradientTransform="matrix(0.0, -0.0374, 0.0401, 0.0, 0.0, -71.3)" gradientUnits="userSpaceOnUse" id="decoration29-gradient3" spreadMethod="pad" x1="-819.2" x2="819.2">
      <stop offset="0.0" stop-color="#3a2510"/>
      <stop offset="1.0" stop-color="#271708"/>
    </linearGradient>
    <linearGradient gradientTransform="matrix(0.0, 0.016, -0.0133, 0.0, 19.0, -26.05)" gradientUnits="userSpaceOnUse" id="decoration29-gradient4" spreadMethod="pad" x1="-819.2" x2="819.2">
      <stop offset="0.0" stop-color="#9a6e42"/>
      <stop offset="1.0" stop-color="#795531"/>
    </linearGradient>
    <linearGradient gradientTransform="matrix(0.0, 0.0192, -0.0133, 0.0, -3.4, -29.35)" gradientUnits="userSpaceOnUse" id="decoration29-gradient5" spreadMethod="pad" x1="-819.2" x2="819.2">
      <stop offset="0.00784313725490196" stop-color="#79522a"/>
      <stop offset="0.9764705882352941" stop-color="#664626"/>
    </linearGradient>
    <linearGradient gradientTransform="matrix(0.0, 0.0587, -0.0202, 0.0, -49.15, -89.0)" gradientUnits="userSpaceOnUse" id="decoration29-gradient6" spreadMethod="pad" x1="-819.2" x2="819.2">
      <stop offset="0.023529411764705882" stop-color="#9a6e42"/>
      <stop offset="1.0" stop-color="#795531"/>
    </linearGradient>
    <linearGradient gradientTransform="matrix(0.0, 0.054, -0.0306, 0.0, 1.9, -72.05)" gradientUnits="userSpaceOnUse" id="decoration29-gradient7" spreadMethod="pad" x1="-819.2" x2="819.2">
      <stop offset="0.043137254901960784" stop-color="#79522a"/>
      <stop offset="1.0" stop-color="#583b1e"/>
    </linearGradient>
  </defs>
</svg>
