<?xml version="1.0" encoding="UTF-8" standalone="no"?>
<svg xmlns:ffdec="https://www.free-decompiler.com/flash" xmlns:xlink="http://www.w3.org/1999/xlink" ffdec:objectType="frame" height="81.3px" width="54.75px" xmlns="http://www.w3.org/2000/svg">
  <g transform="matrix(1.0, 0.0, 0.0, 1.0, 25.05, 80.6)">
    <use ffdec:characterId="88" height="81.3" transform="matrix(1.0, 0.0, 0.0, 1.0, -25.05, -80.6)" width="54.75" xlink:href="#decoration291-shape0"/>
  </g>
  <defs>
    <g id="decoration291-shape0" transform="matrix(1.0, 0.0, 0.0, 1.0, 25.05, 80.6)">
      <path d="M11.95 -42.5 Q14.6 -45.5 15.2 -53.4 15.3 -55.25 15.7 -56.6 18.7 -57.5 19.15 -52.8 L21.55 -56.15 22.75 -52.35 Q24.9 -53.35 25.0 -56.75 25.7 -54.95 25.75 -52.35 25.9 -47.5 24.65 -43.85 21.5 -38.4 18.0 -39.5 23.65 -43.7 24.4 -46.45 19.65 -41.8 15.3 -40.3 17.85 -42.85 18.75 -46.9 17.1 -43.35 11.95 -42.5" fill="url(#decoration291-gradient0)" fill-rule="evenodd" stroke="none"/>
      <path d="M15.7 -56.6 Q16.8 -60.9 20.35 -60.65 22.8 -60.4 24.2 -58.35 L24.85 -57.1 25.0 -56.75 Q24.9 -53.35 22.75 -52.35 L21.55 -56.15 19.15 -52.8 Q18.7 -57.5 15.7 -56.6" fill="url(#decoration291-gradient1)" fill-rule="evenodd" stroke="none"/>
      <path d="M24.65 -43.85 L23.55 -41.35 Q21.25 -37.15 16.9 -35.5 11.1 -33.5 4.6 -34.75 L5.15 -41.2 9.2 -40.85 Q10.8 -41.2 11.95 -42.5 17.1 -43.35 18.75 -46.9 17.85 -42.85 15.3 -40.3 19.65 -41.8 24.4 -46.45 23.65 -43.7 18.0 -39.5 21.5 -38.4 24.65 -43.85" fill="url(#decoration291-gradient2)" fill-rule="evenodd" stroke="none"/>
      <path d="M11.95 -42.5 Q14.6 -45.5 15.2 -53.4 15.3 -55.25 15.7 -56.6 16.8 -60.9 20.35 -60.65 22.8 -60.4 24.2 -58.35 L24.85 -57.1 25.0 -56.75 Q25.7 -54.95 25.75 -52.35 25.9 -47.5 24.65 -43.85 L23.55 -41.35 Q21.25 -37.15 16.9 -35.5 11.1 -33.5 4.6 -34.75 L5.15 -41.2 9.2 -40.85 Q10.8 -41.2 11.95 -42.5 Z" fill="none" stroke="#000000" stroke-linecap="round" stroke-linejoin="round" stroke-opacity="0.3019608" stroke-width="0.1"/>
      <path d="M-15.2 -42.0 Q-14.5 -40.85 -13.45 -37.8 L-11.45 -35.15 Q-9.1 -32.35 -7.65 -31.7 L-6.95 -31.4 -6.7 -24.4 Q-11.0 -23.3 -15.8 -25.2 -19.65 -26.85 -21.55 -30.05 -22.35 -31.3 -22.85 -33.2 L-23.2 -34.75 -23.25 -35.55 Q-23.8 -39.75 -21.8 -42.0 L-19.65 -43.55 Q-17.0 -44.6 -15.2 -42.0" fill="url(#decoration291-gradient3)" fill-rule="evenodd" stroke="none"/>
      <path d="M-15.2 -42.0 Q-14.5 -40.85 -13.45 -37.8 L-11.45 -35.15 Q-9.1 -32.35 -7.65 -31.7 L-6.95 -31.4 -6.7 -24.4 Q-11.0 -23.3 -15.8 -25.2 -19.65 -26.85 -21.55 -30.05 -22.35 -31.3 -22.85 -33.2 L-23.2 -34.75 -23.25 -35.55 Q-23.8 -39.75 -21.8 -42.0 L-19.65 -43.55 Q-17.0 -44.6 -15.2 -42.0 Z" fill="none" stroke="#000000" stroke-linecap="round" stroke-linejoin="round" stroke-opacity="0.3019608" stroke-width="0.1"/>
      <path d="M-23.25 -35.6 Q-23.8 -39.8 -21.8 -42.05 L-19.65 -43.6 Q-17.0 -44.65 -15.2 -42.05 -14.5 -40.9 -13.45 -37.85 -16.05 -40.55 -17.95 -40.55 -17.15 -37.45 -18.4 -35.3 -18.55 -38.05 -19.9 -40.75 -22.25 -38.3 -23.25 -35.6" fill="url(#decoration291-gradient4)" fill-rule="evenodd" stroke="none"/>
      <path d="M-23.25 -35.6 Q-23.8 -39.8 -21.8 -42.05 L-19.65 -43.6 Q-17.0 -44.65 -15.2 -42.05 -14.5 -40.9 -13.45 -37.85" fill="none" stroke="#000000" stroke-linecap="round" stroke-linejoin="round" stroke-opacity="0.3019608" stroke-width="0.1"/>
      <path d="M-21.55 -30.0 Q-17.9 -28.8 -14.25 -26.45 -15.5 -29.05 -17.95 -31.1 -14.15 -29.6 -10.85 -26.7 -13.95 -30.85 -16.45 -35.5 -12.5 -32.2 -9.95 -29.15 L-10.45 -32.8 Q-9.15 -31.45 -7.65 -31.65 L-6.95 -31.35 -6.7 -24.35 Q-11.0 -23.25 -15.8 -25.15 -19.65 -26.8 -21.55 -30.0" fill="url(#decoration291-gradient5)" fill-rule="evenodd" stroke="none"/>
      <path d="M-6.95 -31.35 L-6.7 -24.35 Q-11.0 -23.25 -15.8 -25.15 -19.65 -26.8 -21.55 -30.0" fill="none" stroke="#000000" stroke-linecap="round" stroke-linejoin="round" stroke-opacity="0.3019608" stroke-width="0.1"/>
      <path d="M-5.05 -0.45 Q-6.55 -11.3 -7.55 -31.3 -7.8 -40.95 -7.3 -50.8 L-6.15 -65.85 Q-5.3 -81.0 2.2 -80.55 L3.5 -80.45 Q5.75 -80.1 7.15 -78.6 L4.1 -78.2 Q-2.55 -76.05 -5.05 -62.05 -7.35 -24.45 -2.5 -1.35 -3.65 -0.55 -5.05 -0.45" fill="url(#decoration291-gradient6)" fill-rule="evenodd" stroke="none"/>
      <path d="M-5.05 -0.45 Q-3.65 -0.55 -2.5 -1.35 1.85 -4.35 2.1 -17.05 2.4 -39.1 5.0 -59.2 6.75 -72.85 4.1 -78.2 L7.15 -78.6 Q10.15 -75.35 8.6 -66.75 3.55 -33.25 5.25 0.65 L-4.9 0.65 -5.05 -0.45" fill="url(#decoration291-gradient7)" fill-rule="evenodd" stroke="none"/>
      <path d="M-2.5 -1.35 Q-7.35 -24.45 -5.05 -62.05 -2.55 -76.05 4.1 -78.2 6.75 -72.85 5.0 -59.2 2.4 -39.1 2.1 -17.05 1.85 -4.35 -2.5 -1.35" fill="url(#decoration291-gradient8)" fill-rule="evenodd" stroke="none"/>
      <path d="M7.15 -78.6 Q5.75 -80.1 3.5 -80.45 L2.2 -80.55 Q-5.3 -81.0 -6.15 -65.85 L-7.3 -50.8 Q-7.8 -40.95 -7.55 -31.3 -6.55 -11.3 -5.05 -0.45 L-4.9 0.65 5.25 0.65 Q3.55 -33.25 8.6 -66.75 10.15 -75.35 7.15 -78.6 Z" fill="none" stroke="#000000" stroke-linecap="round" stroke-linejoin="round" stroke-opacity="0.3019608" stroke-width="0.1"/>
      <path d="M6.5 -80.6 L4.35 -77.15 6.7 -76.9 3.95 -76.2 3.05 -76.95 2.5 -80.25 3.65 -77.85 6.5 -80.6 M7.35 -69.2 L6.7 -72.5 7.85 -70.05 10.65 -72.9 8.55 -69.45 10.95 -69.2 8.2 -68.5 7.35 -69.2 M3.35 -63.45 L2.25 -63.05 -0.85 -64.35 1.8 -64.0 1.0 -67.9 2.7 -64.25 4.25 -66.1 3.35 -63.45 M4.55 -56.3 L1.7 -56.35 1.05 -57.3 1.35 -60.65 1.8 -58.0 5.25 -59.95 2.3 -57.2 4.55 -56.3 M6.0 -50.5 L9.45 -52.45 6.5 -49.7 8.75 -48.8 5.9 -48.85 5.25 -49.8 5.55 -53.15 6.0 -50.5 M16.95 -57.85 L18.9 -54.4 20.3 -56.4 19.65 -53.6 18.55 -53.15 15.35 -54.25 18.05 -54.15 16.95 -57.85 M26.3 -56.9 L25.9 -54.15 29.7 -54.95 26.05 -53.35 27.9 -51.75 25.2 -52.65 24.85 -53.8 26.3 -56.9 M29.3 -44.3 L25.35 -43.75 26.7 -41.7 24.35 -43.35 24.3 -44.5 26.55 -47.1 25.4 -44.6 29.3 -44.3 M21.2 -45.65 L20.15 -46.1 18.75 -49.2 20.5 -47.1 22.45 -50.55 21.3 -46.7 23.7 -47.1 21.2 -45.65 M20.3 -36.35 L20.35 -33.9 19.3 -36.55 19.85 -37.6 23.15 -38.6 20.8 -37.05 23.95 -34.7 Q22.15 -35.5 20.3 -36.35 M15.2 -42.6 L12.5 -45.5 15.8 -43.25 16.2 -45.65 16.8 -42.85 16.05 -41.95 12.65 -41.55 15.2 -42.6 M0.2 -47.1 L-2.9 -48.25 -0.25 -48.0 -1.2 -51.85 0.65 -48.3 2.1 -50.2 1.3 -47.45 0.2 -47.1 M10.05 -36.1 L11.2 -36.3 14.05 -34.4 11.45 -35.25 11.6 -31.3 10.55 -35.2 8.7 -33.6 10.05 -36.1 M1.0 -32.15 L-0.1 -31.8 -3.2 -32.95 -0.55 -32.7 -1.5 -36.55 0.35 -33.0 1.8 -34.9 1.0 -32.15 M3.85 -29.1 L4.2 -30.35 4.1 -27.65 4.25 -26.8 7.7 -28.75 6.0 -27.1 6.25 -27.25 4.85 -25.95 7.0 -25.1 4.15 -25.15 4.0 -25.35 3.1 -25.5 0.9 -28.15 3.15 -26.55 3.75 -28.65 3.8 -29.45 3.85 -29.1 M4.75 -12.85 L7.0 -11.95 4.15 -12.0 3.5 -12.95 3.8 -16.3 4.25 -13.65 7.7 -15.6 4.75 -12.85 M0.25 -20.7 L-0.85 -20.35 -3.95 -21.5 -1.3 -21.25 -2.25 -25.1 -0.4 -21.55 1.05 -23.45 0.25 -20.7 M4.0 -4.5 L4.3 -7.85 4.75 -5.2 8.2 -7.15 5.25 -4.4 7.5 -3.5 4.65 -3.55 4.0 -4.5 M1.5 -4.05 L0.7 -1.3 -0.4 -0.95 -3.5 -2.1 -0.85 -1.85 -1.8 -5.7 0.05 -2.15 1.5 -4.05 M-2.25 -72.0 L-5.1 -73.8 -2.55 -73.05 -2.65 -76.95 -1.55 -73.05 0.25 -74.65 -1.1 -72.15 -2.25 -72.0 M-2.9 -65.95 L-3.1 -63.1 -4.05 -62.5 -7.4 -63.0 -4.75 -63.3 -6.5 -66.85 -3.9 -63.75 -2.9 -65.95 M-8.3 -56.3 L-5.35 -53.6 -4.6 -55.9 -4.45 -53.05 -5.35 -52.35 -8.7 -52.35 -6.1 -53.05 -8.3 -56.3 M-9.9 -40.55 L-7.15 -40.6 -8.6 -44.3 -6.35 -41.0 -5.1 -43.05 -5.6 -40.3 -6.6 -39.75 -9.9 -40.55 M-19.45 -41.45 L-17.25 -39.95 -16.2 -43.7 -16.35 -39.7 -14.1 -40.65 -16.15 -38.65 -17.25 -38.9 -19.45 -41.45 M-12.15 -33.5 L-8.7 -35.45 -11.65 -32.7 -9.4 -31.8 -12.25 -31.85 -12.9 -32.8 -12.6 -36.15 -12.15 -33.5 M-17.1 -26.45 L-17.3 -23.1 -17.85 -25.75 -21.2 -23.65 -18.35 -26.5 -20.65 -27.35 -17.8 -27.4 -17.1 -26.45 M-18.6 -29.65 L-15.95 -29.7 -17.35 -33.4 -15.1 -30.1 -13.85 -32.15 -14.3 -29.35 -15.35 -28.85 -18.6 -29.65 M-8.65 -25.4 L-7.4 -22.3 -9.0 -24.45 -11.15 -21.1 -9.8 -24.9 -12.2 -24.7 Q-10.9 -25.3 -9.65 -25.95 L-8.65 -25.4 M-21.1 -34.35 L-25.05 -34.0 -21.2 -35.25 -22.9 -37.05 -20.3 -35.8 -20.1 -34.7 -21.75 -31.75 -21.1 -34.35 M-5.25 -16.55 L-6.7 -20.25 -4.45 -16.95 -3.2 -19.0 -3.7 -16.25 -4.7 -15.7 -8.0 -16.5 -5.25 -16.55 M-2.6 -10.7 L-3.1 -7.95 -4.1 -7.4 -7.4 -8.2 -4.65 -8.25 -6.1 -11.95 -3.85 -8.65 -2.6 -10.7" fill="#c9ceab" fill-rule="evenodd" stroke="none"/>
    </g>
    <linearGradient gradientTransform="matrix(0.0031, 4.0E-4, -0.0021, 0.0159, 18.55, -46.1)" gradientUnits="userSpaceOnUse" id="decoration291-gradient0" spreadMethod="reflect" x1="-819.2" x2="819.2">
      <stop offset="0.0" stop-color="#99c333"/>
      <stop offset="0.5294117647058824" stop-color="#7ca124"/>
      <stop offset="1.0" stop-color="#587413"/>
    </linearGradient>
    <linearGradient gradientTransform="matrix(0.0, 0.0036, -0.0051, 0.0, 20.25, -56.7)" gradientUnits="userSpaceOnUse" id="decoration291-gradient1" spreadMethod="reflect" x1="-819.2" x2="819.2">
      <stop offset="0.00784313725490196" stop-color="#7ca124"/>
      <stop offset="1.0" stop-color="#c1f24a"/>
    </linearGradient>
    <linearGradient gradientTransform="matrix(0.0122, 0.0, 0.0, 0.0077, 14.6, -40.6)" gradientUnits="userSpaceOnUse" id="decoration291-gradient2" spreadMethod="reflect" x1="-819.2" x2="819.2">
      <stop offset="0.0" stop-color="#304008"/>
      <stop offset="0.5333333333333333" stop-color="#445a0f"/>
      <stop offset="1.0" stop-color="#536d14"/>
    </linearGradient>
    <linearGradient gradientTransform="matrix(-0.0018, 0.0016, -0.0078, -0.0091, -17.3, -34.15)" gradientUnits="userSpaceOnUse" id="decoration291-gradient3" spreadMethod="reflect" x1="-819.2" x2="819.2">
      <stop offset="0.0" stop-color="#99c333"/>
      <stop offset="0.5294117647058824" stop-color="#7ca124"/>
      <stop offset="1.0" stop-color="#587413"/>
    </linearGradient>
    <linearGradient gradientTransform="matrix(0.0021, 0.0012, -0.0026, 0.0045, -19.2, -41.75)" gradientUnits="userSpaceOnUse" id="decoration291-gradient4" spreadMethod="reflect" x1="-819.2" x2="819.2">
      <stop offset="0.00784313725490196" stop-color="#b5e544" stop-opacity="0.49803922"/>
      <stop offset="1.0" stop-color="#d0ff61" stop-opacity="0.49803922"/>
    </linearGradient>
    <linearGradient gradientTransform="matrix(0.0037, -0.0015, 0.0027, 0.0065, -8.95, -26.95)" gradientUnits="userSpaceOnUse" id="decoration291-gradient5" spreadMethod="reflect" x1="-819.2" x2="819.2">
      <stop offset="0.5529411764705883" stop-color="#151515" stop-opacity="0.49803922"/>
      <stop offset="0.9921568627450981" stop-color="#000000" stop-opacity="0.49803922"/>
    </linearGradient>
    <linearGradient gradientTransform="matrix(-0.0089, 0.001, -0.0053, -0.0485, -35.05, -54.0)" gradientUnits="userSpaceOnUse" id="decoration291-gradient6" spreadMethod="reflect" x1="-819.2" x2="819.2">
      <stop offset="0.00784313725490196" stop-color="#7ca124"/>
      <stop offset="1.0" stop-color="#c1f24a"/>
    </linearGradient>
    <linearGradient gradientTransform="matrix(0.0026, 0.0, 0.0, 0.0484, 2.05, -39.0)" gradientUnits="userSpaceOnUse" id="decoration291-gradient7" spreadMethod="reflect" x1="-819.2" x2="819.2">
      <stop offset="0.0" stop-color="#304008"/>
      <stop offset="0.5333333333333333" stop-color="#445a0f"/>
      <stop offset="1.0" stop-color="#536d14"/>
    </linearGradient>
    <linearGradient gradientTransform="matrix(0.0024, 2.0E-4, -0.0043, 0.0487, -0.65, -43.0)" gradientUnits="userSpaceOnUse" id="decoration291-gradient8" spreadMethod="reflect" x1="-819.2" x2="819.2">
      <stop offset="0.0" stop-color="#99c333"/>
      <stop offset="0.5294117647058824" stop-color="#7ca124"/>
      <stop offset="1.0" stop-color="#587413"/>
    </linearGradient>
  </defs>
</svg>
