<?xml version="1.0" encoding="UTF-8" standalone="no"?>
<svg xmlns:ffdec="https://www.free-decompiler.com/flash" xmlns:xlink="http://www.w3.org/1999/xlink" ffdec:objectType="frame" height="29.2px" width="39.35px" xmlns="http://www.w3.org/2000/svg">
  <g transform="matrix(1.0, 0.0, 0.0, 1.0, 18.95, 27.45)">
    <use ffdec:characterId="12" height="29.2" transform="matrix(1.0, 0.0, 0.0, 1.0, -18.95, -27.45)" width="39.35" xlink:href="#decoration292-shape0"/>
  </g>
  <defs>
    <g id="decoration292-shape0" transform="matrix(1.0, 0.0, 0.0, 1.0, 18.95, 27.45)">
      <path d="M-16.15 -19.9 L-18.8 -19.9 Q-19.35 -20.75 -16.65 -21.6 -17.55 -23.55 -13.75 -23.65 -15.8 -25.1 -10.2 -24.55 -10.25 -27.65 -7.4 -25.0 -0.85 -27.5 -1.5 -24.95 0.95 -27.35 2.5 -25.1 1.45 -27.55 3.9 -25.25 3.95 -27.2 7.45 -25.6 12.7 -29.3 9.2 -25.3 13.4 -27.5 13.1 -25.05 17.4 -26.45 18.0 -24.95 20.85 -25.4 19.8 -24.3 L18.75 -23.2 Q20.5 -21.65 18.6 -20.75 21.8 -18.15 19.15 -15.85 21.55 -13.8 18.95 -14.15 20.55 -11.5 19.2 -10.2 21.4 -9.25 19.1 -7.9 20.5 -6.1 18.7 -4.05 21.65 -5.4 18.35 -1.75 20.3 -0.55 16.25 -0.6 17.35 1.05 13.5 0.2 L12.3 -19.7 Q15.15 -17.95 14.9 -21.0 16.65 -20.55 16.15 -22.85 19.55 -24.95 10.4 -24.55 7.15 -25.75 3.85 -24.05 3.55 -25.1 1.1 -24.05 L-4.75 -24.25 Q-3.3 -25.95 -8.35 -23.75 -12.45 -24.3 -12.85 -22.8 -17.45 -22.15 -16.15 -19.9" fill="url(#decoration292-gradient0)" fill-rule="evenodd" stroke="none"/>
      <path d="M-16.15 -19.9 Q-17.45 -22.15 -12.85 -22.8 -12.45 -24.3 -8.35 -23.75 -3.3 -25.95 -4.75 -24.25 L1.1 -24.05 Q3.55 -25.1 3.85 -24.05 7.15 -25.75 10.4 -24.55 19.55 -24.95 16.15 -22.85 16.65 -20.55 14.9 -21.0 15.15 -17.95 12.3 -19.7 L-16.15 -19.9" fill="url(#decoration292-gradient1)" fill-rule="evenodd" stroke="none"/>
      <path d="M12.3 -19.7 L13.5 0.2 Q17.35 1.05 16.25 -0.6 20.3 -0.55 18.35 -1.75 21.65 -5.4 18.7 -4.05 20.5 -6.1 19.1 -7.9 21.4 -9.25 19.2 -10.2 20.55 -11.5 18.95 -14.15 21.55 -13.8 19.15 -15.85 21.8 -18.15 18.6 -20.75 20.5 -21.65 18.75 -23.2 L19.8 -24.3 Q20.85 -25.4 18.0 -24.95 17.4 -26.45 13.1 -25.05 13.4 -27.5 9.2 -25.3 12.7 -29.3 7.45 -25.6 3.95 -27.2 3.9 -25.25 1.45 -27.55 2.5 -25.1 0.95 -27.35 -1.5 -24.95 -0.85 -27.5 -7.4 -25.0 -10.25 -27.65 -10.2 -24.55 -15.8 -25.1 -13.75 -23.65 -17.55 -23.55 -16.65 -21.6 -19.35 -20.75 -18.8 -19.9 L-16.15 -19.9 12.3 -19.7 Z" fill="none" stroke="#000000" stroke-linecap="round" stroke-linejoin="round" stroke-opacity="0.3019608" stroke-width="0.1"/>
      <path d="M13.85 -19.85 Q17.7 -19.65 14.65 -17.35 19.2 -13.7 14.5 -15.35 16.35 -14.1 14.65 -12.65 17.9 -9.5 14.65 -9.6 16.3 -7.55 14.65 -6.85 17.95 -5.4 14.5 -4.35 17.95 -3.65 14.15 -2.05 17.05 -0.9 13.45 0.0 14.2 1.4 13.45 1.55 12.7 1.75 10.55 0.55 9.95 2.6 5.5 0.35 6.85 2.8 2.85 0.65 1.2 2.15 -2.65 0.4 -2.7 1.4 -4.05 1.7 -4.8 1.35 -4.85 0.15 -6.7 1.5 -9.8 1.55 L-9.1 0.05 Q-10.7 1.2 -14.3 1.1 L-14.7 0.15 Q-15.2 1.05 -15.75 1.0 -16.95 -0.5 -16.6 -3.55 -17.4 -5.15 -16.6 -8.35 -18.55 -5.85 -16.65 -15.3 -17.65 -14.35 -17.25 -16.15 -19.25 -15.05 -17.6 -17.05 -20.25 -16.1 -16.95 -18.75 -21.7 -20.05 -14.85 -20.45 -11.1 -23.25 -12.3 -20.75 -9.2 -22.3 -8.4 -21.0 -6.35 -22.5 -3.25 -21.1 -3.9 -22.5 -0.5 -21.55 3.25 -23.35 3.25 -21.4 8.85 -23.6 7.3 -20.75 9.15 -22.2 10.3 -20.5 13.8 -22.4 13.85 -19.85 M5.8 -19.1 Q5.0 -21.85 1.05 -19.35 2.8 -22.15 -3.0 -18.9 -4.65 -21.15 -5.8 -18.8 -5.4 -21.75 -9.1 -18.95 -12.85 -20.9 -12.9 -18.8 -17.45 -20.5 -15.4 -18.35 -16.55 -16.85 -14.7 -16.55 -18.05 -8.9 -15.3 -9.95 -16.05 -8.5 -15.0 -7.05 -16.35 -4.7 -15.2 -3.25 -15.5 0.4 -13.0 -2.15 -10.0 -0.4 -7.75 -2.6 L-5.65 -4.65 -4.1 -2.7 Q-1.25 -2.55 -1.3 -4.3 1.4 -0.35 4.0 -3.45 6.1 -1.15 8.1 -3.85 12.3 -0.75 11.25 -5.25 13.4 -6.6 10.6 -8.6 13.5 -12.4 10.85 -11.8 13.9 -14.7 11.2 -15.6 14.1 -16.95 11.5 -17.8 12.6 -18.7 11.15 -19.65 6.95 -21.45 5.8 -19.1" fill="url(#decoration292-gradient2)" fill-rule="evenodd" stroke="none"/>
      <path d="M5.8 -19.1 Q6.95 -21.45 11.15 -19.65 12.6 -18.7 11.5 -17.8 14.1 -16.95 11.2 -15.6 13.9 -14.7 10.85 -11.8 13.5 -12.4 10.6 -8.6 13.4 -6.6 11.25 -5.25 12.3 -0.75 8.1 -3.85 6.1 -1.15 4.0 -3.45 1.4 -0.35 -1.3 -4.3 -1.25 -2.55 -4.1 -2.7 L-5.65 -4.65 -7.75 -2.6 Q-10.0 -0.4 -13.0 -2.15 -15.5 0.4 -15.2 -3.25 -16.35 -4.7 -15.0 -7.05 -16.05 -8.5 -15.3 -9.95 -18.05 -8.9 -14.7 -16.55 -16.55 -16.85 -15.4 -18.35 -17.45 -20.5 -12.9 -18.8 -12.85 -20.9 -9.1 -18.95 -5.4 -21.75 -5.8 -18.8 -4.65 -21.15 -3.0 -18.9 2.8 -22.15 1.05 -19.35 5.0 -21.85 5.8 -19.1" fill="url(#decoration292-gradient3)" fill-rule="evenodd" stroke="none"/>
      <path d="M13.85 -19.85 Q13.8 -22.4 10.3 -20.5 9.15 -22.2 7.3 -20.75 8.85 -23.6 3.25 -21.4 3.25 -23.35 -0.5 -21.55 -3.9 -22.5 -3.25 -21.1 -6.35 -22.5 -8.4 -21.0 -9.2 -22.3 -12.3 -20.75 -11.1 -23.25 -14.85 -20.45 -21.7 -20.05 -16.95 -18.75 -20.25 -16.1 -17.6 -17.05 -19.25 -15.05 -17.25 -16.15 -17.65 -14.35 -16.65 -15.3 -18.55 -5.85 -16.6 -8.35 -17.4 -5.15 -16.6 -3.55 -16.95 -0.5 -15.75 1.0 -15.2 1.05 -14.7 0.15 L-14.3 1.1 Q-10.7 1.2 -9.1 0.05 L-9.8 1.55 Q-6.7 1.5 -4.85 0.15 -4.8 1.35 -4.05 1.7 -2.7 1.4 -2.65 0.4 1.2 2.15 2.85 0.65 6.85 2.8 5.5 0.35 9.95 2.6 10.55 0.55 12.7 1.75 13.45 1.55 14.2 1.4 13.45 0.0 17.05 -0.9 14.15 -2.05 17.95 -3.65 14.5 -4.35 17.95 -5.4 14.65 -6.85 16.3 -7.55 14.65 -9.6 17.9 -9.5 14.65 -12.65 16.35 -14.1 14.5 -15.35 19.2 -13.7 14.65 -17.35 17.7 -19.65 13.85 -19.85 Z" fill="none" stroke="#000000" stroke-linecap="round" stroke-linejoin="round" stroke-opacity="0.3019608" stroke-width="0.1"/>
      <path d="M10.95 -22.25 Q14.9 -22.2 13.05 -24.45 16.85 -21.15 10.95 -22.25 M8.0 -12.95 Q7.15 -15.1 10.15 -16.05 8.45 -14.7 8.0 -12.95 M6.8 -5.0 Q10.45 -5.25 10.6 -7.5 10.55 -4.05 6.8 -5.0 M-12.15 -10.45 Q-15.3 -7.3 -14.3 -13.1 -14.5 -9.15 -12.15 -10.45 M-3.65 -7.0 Q-7.75 -8.2 -7.1 -11.5 -6.25 -8.55 -3.65 -7.0 M-2.45 -15.45 Q-1.9 -17.9 2.5 -17.85 -1.05 -17.05 -2.45 -15.45 M-1.25 -23.25 Q-1.35 -24.55 2.3 -23.25 -0.25 -23.75 -1.25 -23.25" fill="#9d5e1c" fill-rule="evenodd" stroke="none"/>
      <path d="M10.95 -22.25 Q16.85 -21.15 13.05 -24.45 M10.15 -16.05 Q8.45 -14.7 8.0 -12.95 M6.8 -5.0 Q10.45 -5.25 10.6 -7.5 M-12.15 -10.45 Q-14.5 -9.15 -14.3 -13.1 M-7.1 -11.5 Q-7.75 -8.2 -3.65 -7.0 M2.5 -17.85 Q-1.05 -17.05 -2.45 -15.45 M-1.25 -23.25 Q-1.35 -24.55 2.3 -23.25" fill="none" stroke="#000000" stroke-linecap="round" stroke-linejoin="round" stroke-opacity="0.3019608" stroke-width="0.1"/>
      <path d="M4.1 -20.35 L7.1 -20.35 6.3 1.7 3.0 1.7 4.1 -20.35" fill="url(#decoration292-gradient4)" fill-rule="evenodd" stroke="none"/>
      <path d="M7.1 -20.35 L4.1 -20.35 9.1 -25.25 Q11.75 -26.65 12.3 -26.2 12.6 -25.95 12.2 -25.1 L7.1 -20.35" fill="url(#decoration292-gradient5)" fill-rule="evenodd" stroke="none"/>
      <path d="M7.1 -20.35 L12.2 -25.1 Q12.6 -25.95 12.3 -26.2 11.75 -26.65 9.1 -25.25 L4.1 -20.35 3.0 1.7 6.3 1.7 7.1 -20.35 Z" fill="none" stroke="#000000" stroke-linecap="round" stroke-linejoin="round" stroke-opacity="0.3019608" stroke-width="0.1"/>
      <path d="M-7.35 -20.35 L-10.35 -20.35 -5.35 -25.25 Q-2.7 -26.65 -2.15 -26.2 -1.85 -25.95 -2.25 -25.1 L-7.35 -20.35" fill="url(#decoration292-gradient6)" fill-rule="evenodd" stroke="none"/>
      <path d="M-7.35 -20.35 L-8.15 1.7 -11.45 1.7 -10.35 -20.35 -7.35 -20.35" fill="url(#decoration292-gradient7)" fill-rule="evenodd" stroke="none"/>
      <path d="M-10.35 -20.35 L-11.45 1.7 -8.15 1.7 -7.35 -20.35 -2.25 -25.1 Q-1.85 -25.95 -2.15 -26.2 -2.7 -26.65 -5.35 -25.25 L-10.35 -20.35 Z" fill="none" stroke="#000000" stroke-linecap="round" stroke-linejoin="round" stroke-opacity="0.3019608" stroke-width="0.1"/>
    </g>
    <linearGradient gradientTransform="matrix(0.0224, 0.0083, -0.0059, 0.0159, 0.7, -13.45)" gradientUnits="userSpaceOnUse" id="decoration292-gradient0" spreadMethod="pad" x1="-819.2" x2="819.2">
      <stop offset="0.0" stop-color="#d7aa3e"/>
      <stop offset="0.9607843137254902" stop-color="#9d5e1c"/>
    </linearGradient>
    <linearGradient gradientTransform="matrix(0.019, 0.0037, -7.0E-4, 0.0036, 0.3, -22.05)" gradientUnits="userSpaceOnUse" id="decoration292-gradient1" spreadMethod="pad" x1="-819.2" x2="819.2">
      <stop offset="0.0" stop-color="#ffdf7e"/>
      <stop offset="0.9921568627450981" stop-color="#bc9146"/>
    </linearGradient>
    <linearGradient gradientTransform="matrix(0.0092, 0.0075, -0.0093, 0.0114, -1.0, -10.35)" gradientUnits="userSpaceOnUse" id="decoration292-gradient2" spreadMethod="pad" x1="-819.2" x2="819.2">
      <stop offset="0.0" stop-color="#c09836"/>
      <stop offset="0.9921568627450981" stop-color="#9d5e1c"/>
    </linearGradient>
    <linearGradient gradientTransform="matrix(0.0122, 0.0054, -0.0048, 0.0109, -2.65, -10.85)" gradientUnits="userSpaceOnUse" id="decoration292-gradient3" spreadMethod="pad" x1="-819.2" x2="819.2">
      <stop offset="0.0" stop-color="#ffdf7e"/>
      <stop offset="1.0" stop-color="#bc9146"/>
    </linearGradient>
    <linearGradient gradientTransform="matrix(0.0056, 0.0, 0.0, 0.0165, 7.6, -11.85)" gradientUnits="userSpaceOnUse" id="decoration292-gradient4" spreadMethod="pad" x1="-819.2" x2="819.2">
      <stop offset="0.0" stop-color="#614427"/>
      <stop offset="0.9921568627450981" stop-color="#442e18"/>
    </linearGradient>
    <linearGradient gradientTransform="matrix(0.0056, 0.0, 0.0, 0.0165, 7.6, -11.85)" gradientUnits="userSpaceOnUse" id="decoration292-gradient5" spreadMethod="pad" x1="-819.2" x2="819.2">
      <stop offset="0.0" stop-color="#7d5a37"/>
      <stop offset="0.9686274509803922" stop-color="#5b3f23"/>
    </linearGradient>
    <linearGradient gradientTransform="matrix(0.0056, 0.0, 0.0, 0.0165, -6.85, -11.85)" gradientUnits="userSpaceOnUse" id="decoration292-gradient6" spreadMethod="pad" x1="-819.2" x2="819.2">
      <stop offset="0.0" stop-color="#7d5a37"/>
      <stop offset="0.9686274509803922" stop-color="#5b3f23"/>
    </linearGradient>
    <linearGradient gradientTransform="matrix(0.0056, 0.0, 0.0, 0.0165, -6.85, -11.85)" gradientUnits="userSpaceOnUse" id="decoration292-gradient7" spreadMethod="pad" x1="-819.2" x2="819.2">
      <stop offset="0.0" stop-color="#614427"/>
      <stop offset="0.9921568627450981" stop-color="#442e18"/>
    </linearGradient>
  </defs>
</svg>
