<?xml version="1.0" encoding="UTF-8" standalone="no"?>
<svg xmlns:ffdec="https://www.free-decompiler.com/flash" xmlns:xlink="http://www.w3.org/1999/xlink" ffdec:objectType="frame" height="61.2px" width="120.4px" xmlns="http://www.w3.org/2000/svg">
  <g transform="matrix(1.0, 0.0, 0.0, 1.0, 60.05, 61.05)">
    <use ffdec:characterId="5" height="42.4" transform="matrix(1.0, 0.0, 0.0, 1.0, -51.6, -54.35)" width="47.8" xlink:href="#decoration293-shape0"/>
    <use ffdec:characterId="7" height="2.2" transform="matrix(1.0, 0.0, 0.0, 1.0, -49.75, -18.1)" width="2.3" xlink:href="#decoration293-sprite0"/>
    <use ffdec:characterId="7" height="2.2" transform="matrix(1.0, 0.0, 0.0, 1.0, -7.65, -49.75)" width="2.3" xlink:href="#decoration293-sprite0"/>
    <use ffdec:characterId="7" height="2.2" transform="matrix(1.0, 0.0, 0.0, 1.0, -50.15, -49.75)" width="2.3" xlink:href="#decoration293-sprite0"/>
    <use ffdec:characterId="8" height="42.4" transform="matrix(1.0, 0.0, 0.0, 1.0, 0.1, -54.4)" width="47.65" xlink:href="#decoration293-shape2"/>
    <use ffdec:characterId="7" height="2.2" transform="matrix(1.0, 0.0, 0.0, 1.0, 43.9, -18.6)" width="2.3" xlink:href="#decoration293-sprite0"/>
    <use ffdec:characterId="7" height="2.2" transform="matrix(1.0, 0.0, 0.0, 1.0, 1.65, -18.9)" width="2.3" xlink:href="#decoration293-sprite0"/>
    <use ffdec:characterId="7" height="2.2" transform="matrix(1.0, 0.0, 0.0, 1.0, 1.65, -49.2)" width="2.3" xlink:href="#decoration293-sprite0"/>
    <use ffdec:characterId="7" height="2.2" transform="matrix(1.0, 0.0, 0.0, 1.0, 43.9, -49.65)" width="2.3" xlink:href="#decoration293-sprite0"/>
    <use ffdec:characterId="9" height="61.15" transform="matrix(1.0, 0.0, 0.0, 1.0, -58.0, -61.05)" width="118.35" xlink:href="#decoration293-shape3"/>
    <use ffdec:characterId="7" height="2.2" transform="matrix(1.0, 0.0, 0.0, 1.0, 55.7, -12.95)" width="2.3" xlink:href="#decoration293-sprite0"/>
    <use ffdec:characterId="7" height="2.2" transform="matrix(1.0, 0.0, 0.0, 1.0, 55.95, -54.05)" width="2.3" xlink:href="#decoration293-sprite0"/>
    <use ffdec:characterId="10" height="61.2" transform="matrix(1.0, 0.0, 0.0, 1.0, -60.05, -61.05)" width="6.55" xlink:href="#decoration293-shape4"/>
    <use ffdec:characterId="7" height="2.2" transform="matrix(1.0, 0.0, 0.0, 1.0, -57.8, -53.85)" width="2.3" xlink:href="#decoration293-sprite0"/>
    <use ffdec:characterId="7" height="2.2" transform="matrix(1.0, 0.0, 0.0, 1.0, -57.8, -11.1)" width="2.3" xlink:href="#decoration293-sprite0"/>
  </g>
  <defs>
    <g id="decoration293-shape0" transform="matrix(1.0, 0.0, 0.0, 1.0, 51.6, 54.35)">
      <path d="M-15.55 -44.6 L-7.75 -50.5 -7.05 -49.75 -16.25 -42.8 -15.75 -44.05 -15.55 -44.6 M-46.15 -21.45 L-44.6 -21.25 -50.5 -16.9 -51.2 -17.65 -46.15 -21.45 M-22.4 -38.15 L-34.75 -28.8 -34.75 -30.1 -24.65 -37.7 -22.4 -38.15" fill="#c38c54" fill-rule="evenodd" stroke="none"/>
      <path d="M-34.75 -28.8 L-34.9 -28.25 Q-35.2 -27.45 -36.25 -26.3 L-38.9 -23.4 Q-40.4 -22.0 -42.7 -21.5 L-44.6 -21.25 -34.75 -28.8 M-49.8 -16.2 L-46.3 -16.55 -45.65 -16.6 -48.35 -14.55 -49.8 -16.2 M-33.2 -26.1 L-32.85 -26.85 -31.35 -28.8 -28.75 -31.25 -25.5 -33.2 -21.9 -34.75 -33.2 -26.1 M-12.35 -42.05 L-11.85 -42.5 -10.2 -44.05 Q-7.45 -46.4 -5.1 -47.65 L-5.0 -47.55 -12.35 -42.05 M-16.25 -42.8 L-16.5 -42.3 Q-17.85 -40.0 -20.25 -38.95 -21.2 -38.4 -22.4 -38.15 L-16.25 -42.8" fill="#daa064" fill-rule="evenodd" stroke="none"/>
      <path d="M-44.6 -21.25 L-42.7 -21.5 Q-40.4 -22.0 -38.9 -23.4 L-36.25 -26.3 Q-35.2 -27.45 -34.9 -28.25 L-34.75 -28.8 -22.4 -38.15 Q-21.2 -38.4 -20.25 -38.95 -17.85 -40.0 -16.5 -42.3 L-16.25 -42.8 -7.05 -49.75 -5.1 -47.65 Q-7.45 -46.4 -10.2 -44.05 L-11.85 -42.5 -12.35 -42.05 -21.9 -34.75 -25.5 -33.2 -28.75 -31.25 -31.35 -28.8 -32.85 -26.85 -33.2 -26.1 -45.65 -16.6 -46.3 -16.55 -49.8 -16.2 -50.5 -16.9 -44.6 -21.25" fill="url(#decoration293-gradient0)" fill-rule="evenodd" stroke="none"/>
      <path d="M-48.35 -14.55 L-45.65 -16.6 -44.45 -16.5 -47.75 -14.0 -48.35 -14.55 M-33.4 -24.85 L-33.2 -26.1 -21.9 -34.75 -19.35 -35.5 -33.4 -24.85 M-13.8 -39.75 Q-13.55 -40.7 -12.35 -42.05 L-5.0 -47.55 -4.4 -46.9 -13.8 -39.75" fill="#bf8a53" fill-rule="evenodd" stroke="none"/>
      <path d="M-45.65 -16.6 L-33.2 -26.1 -33.4 -24.85 -44.45 -16.5 -45.65 -16.6 M-21.9 -34.75 L-12.35 -42.05 Q-13.55 -40.7 -13.8 -39.75 L-19.35 -35.5 -21.9 -34.75" fill="#906539" fill-rule="evenodd" stroke="none"/>
      <path d="M-34.75 -28.8 L-44.6 -21.25 -46.15 -21.45 -34.75 -30.1 -34.75 -28.8 M-15.55 -44.6 L-15.75 -44.05 -16.25 -42.8 -22.4 -38.15 -24.65 -37.7 -15.55 -44.6" fill="#f0b87d" fill-rule="evenodd" stroke="none"/>
      <path d="M-15.55 -44.6 L-7.75 -50.5 -7.05 -49.75 -6.0 -50.6 M-46.15 -21.45 L-51.2 -17.65 -50.5 -16.9 -49.8 -16.2 -48.35 -14.55 -47.75 -14.0 -44.45 -16.5 -33.4 -24.85 -19.35 -35.5 -13.8 -39.75 -4.4 -46.9 -5.0 -47.55 -5.1 -47.65 -7.05 -49.75 M-34.75 -30.1 L-46.15 -21.45 M-15.55 -44.6 L-24.65 -37.7 -34.75 -30.1" fill="none" stroke="#000000" stroke-linecap="round" stroke-linejoin="round" stroke-opacity="0.3019608" stroke-width="0.1"/>
      <path d="M-33.65 -30.85 L-32.25 -31.9 -32.2 -31.95 -30.3 -33.45 -26.2 -30.3 -29.5 -27.8 -32.2 -29.75 -32.25 -29.8 -33.65 -30.85" fill="#222222" fill-opacity="0.4" fill-rule="evenodd" stroke="none"/>
      <path d="M-46.7 -50.25 L-46.15 -50.85 -35.6 -42.3 -36.95 -42.3 -46.7 -50.25 M-22.95 -32.1 L-7.5 -19.5 -7.5 -18.6 -24.1 -31.9 -22.95 -32.1" fill="#c38c54" fill-rule="evenodd" stroke="none"/>
      <path d="M-48.75 -48.15 L-46.7 -50.25 -36.95 -42.3 -38.65 -42.6 Q-39.75 -42.9 -41.35 -44.0 L-41.45 -44.05 Q-43.95 -45.5 -46.2 -46.05 L-48.75 -48.15" fill="url(#decoration293-gradient1)" fill-rule="evenodd" stroke="none"/>
      <path d="M-6.65 -13.85 L-7.45 -13.1 -12.45 -17.2 -12.35 -18.45 -6.65 -13.85 M-24.45 -26.9 L-39.5 -39.1 -39.35 -39.1 -37.6 -39.05 -23.0 -27.15 -24.45 -26.9 M-48.45 -46.35 L-49.65 -47.3 -48.75 -48.15 -46.2 -46.05 -48.45 -46.35" fill="#906539" fill-rule="evenodd" stroke="none"/>
      <path d="M-12.45 -17.2 L-24.45 -26.9 -23.0 -27.15 -12.35 -18.45 -12.45 -17.2 M-39.5 -39.1 L-48.45 -46.35 -46.2 -46.05 -37.6 -39.05 -39.35 -39.1 -39.5 -39.1" fill="#bf8a53" fill-rule="evenodd" stroke="none"/>
      <path d="M-4.4 -16.1 L-5.7 -14.8 Q-6.6 -15.6 -7.2 -17.0 L-7.5 -18.6 -4.4 -16.1 M-46.2 -46.05 Q-43.95 -45.5 -41.45 -44.05 L-41.35 -44.0 Q-39.75 -42.9 -38.65 -42.6 L-36.95 -42.3 -24.1 -31.9 -25.85 -32.2 -28.85 -33.7 -30.9 -34.65 Q-32.0 -35.2 -32.6 -35.9 L-34.0 -37.65 Q-35.25 -39.05 -37.35 -39.05 L-37.6 -39.05 -46.2 -46.05 M-23.0 -27.15 L-19.55 -26.9 Q-16.45 -26.1 -14.1 -23.05 -12.35 -20.7 -12.35 -18.45 L-23.0 -27.15" fill="#daa064" fill-rule="evenodd" stroke="none"/>
      <path d="M-35.6 -42.3 L-22.95 -32.1 -24.1 -31.9 -36.95 -42.3 -35.6 -42.3 M-7.5 -19.5 L-3.9 -16.6 -4.4 -16.1 -7.5 -18.6 -7.5 -19.5" fill="#f0b87d" fill-rule="evenodd" stroke="none"/>
      <path d="M-5.7 -14.8 L-6.65 -13.85 -12.35 -18.45 Q-12.35 -20.7 -14.1 -23.05 -16.45 -26.1 -19.55 -26.9 L-23.0 -27.15 -37.6 -39.05 -37.35 -39.05 Q-35.25 -39.05 -34.0 -37.65 L-32.6 -35.9 Q-32.0 -35.2 -30.9 -34.65 L-28.85 -33.7 -25.85 -32.2 -24.1 -31.9 -7.5 -18.6 -7.2 -17.0 Q-6.6 -15.6 -5.7 -14.8" fill="url(#decoration293-gradient2)" fill-rule="evenodd" stroke="none"/>
      <path d="M-46.7 -50.25 L-46.15 -50.85 -35.6 -42.3 -22.95 -32.1 -7.5 -19.5 -3.9 -16.6 -4.4 -16.1 -5.7 -14.8 -6.65 -13.85 -7.45 -13.1 -12.45 -17.2 -24.45 -26.9 -39.5 -39.1 -48.45 -46.35 -49.65 -47.3 -48.75 -48.15 -46.7 -50.25 Z" fill="none" stroke="#000000" stroke-linecap="round" stroke-linejoin="round" stroke-opacity="0.3019608" stroke-width="0.1"/>
      <path d="M-4.9 -54.3 L-3.85 -54.3 -3.85 -47.6 -4.3 -48.1 -4.9 -48.7 -4.9 -54.3 M-3.85 -39.25 L-3.85 -28.8 -4.9 -31.15 -4.9 -37.05 -3.85 -39.25 M-3.85 -20.8 L-3.85 -16.9 -4.9 -16.1 -4.9 -20.2 -3.85 -20.8 M-50.5 -54.3 L-50.5 -48.7 -51.15 -48.1 -51.55 -47.6 -51.55 -54.3 -50.5 -54.3 M-51.55 -16.9 L-51.55 -20.8 -50.5 -20.15 -50.5 -16.1 Q-50.95 -16.5 -51.55 -16.9 M-51.55 -28.8 L-51.55 -39.25 -50.5 -37.05 -50.5 -31.15 Q-50.85 -29.95 -51.55 -28.8" fill="#bf8a53" fill-rule="evenodd" stroke="none"/>
      <path d="M-8.3 -54.3 L-7.35 -54.3 Q-6.3 -53.2 -6.0 -51.85 L-5.65 -50.3 -5.0 -48.85 -4.9 -48.7 -4.9 -37.05 Q-5.4 -35.45 -5.3 -33.75 -5.3 -32.45 -4.9 -31.15 L-4.9 -20.2 Q-6.95 -18.85 -7.9 -16.8 L-8.3 -15.85 -8.3 -21.5 -7.6 -21.95 Q-6.4 -23.25 -6.1 -25.15 -5.95 -26.95 -6.4 -28.7 -6.7 -30.5 -7.35 -31.35 L-8.3 -32.25 -8.3 -37.2 -7.45 -39.0 Q-6.65 -41.15 -6.5 -42.2 -6.35 -43.95 -7.3 -45.65 L-8.3 -47.15 -8.3 -54.3" fill="url(#decoration293-gradient3)" fill-rule="evenodd" stroke="none"/>
      <path d="M-7.35 -54.3 L-4.9 -54.3 -4.9 -48.7 -5.0 -48.85 -5.65 -50.3 -6.0 -51.85 Q-6.3 -53.2 -7.35 -54.3 M-6.85 -12.0 L-8.3 -12.0 -8.3 -15.85 -7.9 -16.8 Q-6.95 -18.85 -4.9 -20.2 L-4.9 -16.1 -5.3 -15.7 Q-6.95 -14.05 -6.85 -12.0 M-50.5 -54.3 L-48.1 -54.3 Q-49.15 -53.2 -49.45 -51.85 L-49.75 -50.3 Q-50.0 -49.35 -50.45 -48.85 L-50.5 -48.7 -50.5 -54.3 M-47.15 -12.0 L-48.6 -12.0 Q-48.5 -14.05 -50.15 -15.7 L-50.5 -16.1 -50.5 -20.15 Q-48.5 -18.85 -47.55 -16.8 L-47.15 -15.85 -47.15 -12.0 M-47.15 -47.1 L-47.15 -37.2 -48.0 -39.0 -48.95 -42.15 Q-49.1 -43.95 -48.2 -45.65 L-47.15 -47.1 M-50.5 -37.05 Q-50.05 -35.45 -50.15 -33.75 -50.15 -32.35 -50.5 -31.15 L-50.5 -37.05 M-47.15 -21.5 L-47.75 -21.95 Q-49.05 -23.25 -49.35 -25.15 -49.45 -26.95 -49.05 -28.7 -48.7 -30.5 -48.05 -31.35 L-47.15 -32.25 -47.15 -21.5 M-8.3 -47.15 L-7.3 -45.65 Q-6.35 -43.95 -6.5 -42.2 -6.65 -41.15 -7.45 -39.0 L-8.3 -37.2 -8.3 -47.15 M-8.3 -32.25 L-7.35 -31.35 Q-6.7 -30.5 -6.4 -28.7 -5.95 -26.95 -6.1 -25.15 -6.4 -23.25 -7.6 -21.95 L-8.3 -21.5 -8.3 -32.25 M-4.9 -31.15 Q-5.3 -32.45 -5.3 -33.75 -5.4 -35.45 -4.9 -37.05 L-4.9 -31.15" fill="#daa064" fill-rule="evenodd" stroke="none"/>
      <path d="M-9.45 -48.0 L-9.45 -54.3 -8.3 -54.3 -8.3 -47.15 -9.45 -48.0 M-8.65 -12.0 L-9.45 -12.0 -9.45 -20.85 -8.3 -21.5 -8.3 -15.85 Q-9.0 -14.0 -8.65 -12.0 M-9.45 -32.6 L-9.45 -35.2 -8.3 -37.2 -8.3 -32.25 Q-8.8 -32.6 -9.45 -32.6 M-47.15 -54.3 L-46.0 -54.3 -46.0 -48.0 -47.15 -47.1 -47.15 -54.3 M-46.0 -35.2 L-46.0 -32.6 -47.15 -32.25 -47.15 -37.2 -46.0 -35.2 M-46.0 -20.8 L-46.0 -12.0 -46.7 -12.0 Q-46.45 -14.0 -47.15 -15.85 L-47.15 -21.5 -46.0 -20.8" fill="#c38c54" fill-rule="evenodd" stroke="none"/>
      <path d="M-50.5 -48.7 L-50.45 -48.85 Q-50.0 -49.35 -49.75 -50.3 L-49.45 -51.85 Q-49.15 -53.2 -48.1 -54.3 L-47.15 -54.3 -47.15 -47.1 -48.2 -45.65 Q-49.1 -43.95 -48.95 -42.15 L-48.0 -39.0 -47.15 -37.2 -47.15 -32.25 -48.05 -31.35 Q-48.7 -30.5 -49.05 -28.7 -49.45 -26.95 -49.35 -25.15 -49.05 -23.25 -47.75 -21.95 L-47.15 -21.5 -47.15 -15.85 -47.55 -16.8 Q-48.5 -18.85 -50.5 -20.15 L-50.5 -31.15 Q-50.15 -32.35 -50.15 -33.75 -50.05 -35.45 -50.5 -37.05 L-50.5 -48.7" fill="url(#decoration293-gradient4)" fill-rule="evenodd" stroke="none"/>
      <path d="M-8.3 -12.0 L-8.65 -12.0 Q-9.0 -14.0 -8.3 -15.85 L-8.3 -12.0 M-9.45 -20.85 L-9.45 -32.6 Q-8.8 -32.6 -8.3 -32.25 L-8.3 -21.5 -9.45 -20.85 M-9.45 -35.2 L-9.45 -48.0 -8.3 -47.15 -8.3 -37.2 -9.45 -35.2 M-46.0 -48.0 L-46.0 -35.2 -47.15 -37.2 -47.15 -47.1 -46.0 -48.0 M-46.0 -32.6 L-46.0 -20.8 -47.15 -21.5 -47.15 -32.25 -46.0 -32.6 M-46.7 -12.0 L-47.15 -12.0 -47.15 -15.85 Q-46.45 -14.0 -46.7 -12.0" fill="#f0b87d" fill-rule="evenodd" stroke="none"/>
      <path d="M-3.85 -47.6 L-3.85 -39.25 -4.9 -37.05 -4.9 -48.7 -4.3 -48.1 -3.85 -47.6 M-3.85 -28.8 L-3.85 -20.8 -4.9 -20.2 -4.9 -31.15 -3.85 -28.8 M-3.85 -16.9 L-3.85 -12.0 -4.9 -12.0 -4.9 -16.1 -3.85 -16.9 M-50.5 -12.0 L-51.55 -12.0 -51.55 -16.9 Q-50.95 -16.5 -50.5 -16.1 L-50.5 -12.0 M-51.55 -20.8 L-51.55 -28.8 Q-50.85 -29.95 -50.5 -31.15 L-50.5 -20.15 -51.55 -20.8 M-51.55 -39.25 L-51.55 -47.6 -51.15 -48.1 -50.5 -48.7 -50.5 -37.05 -51.55 -39.25" fill="#906539" fill-rule="evenodd" stroke="none"/>
      <path d="M-4.9 -12.0 L-6.85 -12.0 Q-6.95 -14.05 -5.3 -15.7 L-4.9 -16.1 -4.9 -12.0 M-48.6 -12.0 L-50.5 -12.0 -50.5 -16.1 -50.15 -15.7 Q-48.5 -14.05 -48.6 -12.0" fill="#a47443" fill-rule="evenodd" stroke="none"/>
      <path d="M-9.45 -48.0 L-9.45 -54.3 -8.3 -54.3 -7.35 -54.3 -4.9 -54.3 -3.85 -54.3 -3.85 -47.6 -3.85 -39.25 -3.85 -28.8 -3.85 -20.8 -3.85 -16.9 -3.85 -12.0 -4.9 -12.0 -6.85 -12.0 -8.3 -12.0 -8.65 -12.0 -9.45 -12.0 -9.45 -20.85 -9.45 -32.6 -9.45 -35.2 -9.45 -48.0 M-48.1 -54.3 L-50.5 -54.3 -51.55 -54.3 -51.55 -47.6 -51.55 -39.25 -51.55 -28.8 -51.55 -20.8 -51.55 -16.9 -51.55 -12.0 -50.5 -12.0 -48.6 -12.0 -47.15 -12.0 -46.7 -12.0 -46.0 -12.0 -46.0 -20.8 -46.0 -32.6 -46.0 -35.2 -46.0 -48.0 -46.0 -54.3 -47.15 -54.3 -48.1 -54.3 Z" fill="none" stroke="#000000" stroke-linecap="round" stroke-linejoin="round" stroke-opacity="0.3019608" stroke-width="0.1"/>
      <path d="M-6.9 -15.8 L-7.1 -16.4 -6.9 -17.05 -6.25 -17.25 -5.6 -17.05 -5.4 -16.4 -5.6 -15.8 Q-5.85 -15.5 -6.25 -15.5 L-6.9 -15.8" fill="#000000" fill-opacity="0.32941177" fill-rule="evenodd" stroke="none"/>
      <path d="M-7.35 -17.35 L-7.6 -17.95 -7.35 -18.55 -6.75 -18.8 -6.1 -18.55 Q-5.85 -18.35 -5.85 -17.95 -5.85 -17.6 -6.1 -17.35 -6.3 -17.05 -6.75 -17.05 -7.1 -17.05 -7.35 -17.35" fill="#cabeae" fill-rule="evenodd" stroke="none"/>
      <path d="M-7.35 -17.35 L-7.6 -17.95 -7.35 -18.55 -6.75 -18.8 -6.1 -18.55 Q-5.85 -18.35 -5.85 -17.95 -5.85 -17.6 -6.1 -17.35 -6.3 -17.05 -6.75 -17.05 -7.1 -17.05 -7.35 -17.35 Z" fill="none" stroke="#000000" stroke-linecap="round" stroke-linejoin="round" stroke-opacity="0.3019608" stroke-width="0.1"/>
      <path d="M-8.1 -17.8 L-7.1 -19.0 -6.9 -18.8 -7.9 -17.65 -8.1 -17.8" fill="#7c786d" fill-rule="evenodd" stroke="none"/>
    </g>
    <radialGradient cx="0" cy="0" gradientTransform="matrix(0.02, -0.013, 0.0048, 0.0075, -25.95, -35.95)" gradientUnits="userSpaceOnUse" id="decoration293-gradient0" r="819.2" spreadMethod="pad">
      <stop offset="0.0" stop-color="#d1a06f"/>
      <stop offset="1.0" stop-color="#79522b"/>
    </radialGradient>
    <radialGradient cx="0" cy="0" gradientTransform="matrix(0.0022, -0.0028, 0.0295, 0.0238, -27.7, -32.95)" gradientUnits="userSpaceOnUse" id="decoration293-gradient1" r="819.2" spreadMethod="pad">
      <stop offset="0.0" stop-color="#d1a06f"/>
      <stop offset="1.0" stop-color="#a47443"/>
    </radialGradient>
    <radialGradient cx="0" cy="0" gradientTransform="matrix(0.0022, -0.0028, 0.0295, 0.0238, -27.7, -32.95)" gradientUnits="userSpaceOnUse" id="decoration293-gradient2" r="819.2" spreadMethod="pad">
      <stop offset="0.0" stop-color="#d1a06f"/>
      <stop offset="1.0" stop-color="#79522b"/>
    </radialGradient>
    <radialGradient cx="0" cy="0" gradientTransform="matrix(0.003, 0.0, 5.0E-4, 0.0243, -7.15, -33.5)" gradientUnits="userSpaceOnUse" id="decoration293-gradient3" r="819.2" spreadMethod="pad">
      <stop offset="0.0" stop-color="#d1a06f"/>
      <stop offset="1.0" stop-color="#79522b"/>
    </radialGradient>
    <radialGradient cx="0" cy="0" gradientTransform="matrix(-0.003, 0.0, -5.0E-4, 0.0243, -50.4, -33.5)" gradientUnits="userSpaceOnUse" id="decoration293-gradient4" r="819.2" spreadMethod="pad">
      <stop offset="0.0" stop-color="#d1a06f"/>
      <stop offset="1.0" stop-color="#79522b"/>
    </radialGradient>
    <g id="decoration293-sprite0" transform="matrix(1.0, 0.0, 0.0, 1.0, 1.15, 0.05)">
      <use ffdec:characterId="6" height="2.2" transform="matrix(1.0, 0.0, 0.0, 1.0, -1.15, -0.05)" width="2.3" xlink:href="#decoration293-shape1"/>
    </g>
    <g id="decoration293-shape1" transform="matrix(1.0, 0.0, 0.0, 1.0, 1.15, 0.05)">
      <path d="M0.95 0.65 L1.15 1.3 0.95 1.9 0.3 2.15 -0.35 1.9 -0.6 1.3 -0.35 0.65 0.3 0.45 0.95 0.65" fill="#000000" fill-opacity="0.32941177" fill-rule="evenodd" stroke="none"/>
      <path d="M0.4 1.45 L-0.25 1.75 -0.9 1.45 -1.1 0.85 -0.9 0.25 -0.25 0.0 Q0.15 0.0 0.4 0.25 L0.65 0.85 0.4 1.45" fill="#cabeae" fill-rule="evenodd" stroke="none"/>
      <path d="M0.4 1.45 L-0.25 1.75 -0.9 1.45 -1.1 0.85 -0.9 0.25 -0.25 0.0 Q0.15 0.0 0.4 0.25 L0.65 0.85 0.4 1.45 Z" fill="none" stroke="#000000" stroke-linecap="round" stroke-linejoin="round" stroke-opacity="0.3019608" stroke-width="0.1"/>
      <path d="M0.2 0.3 L-0.75 1.45 -1.0 1.3 0.0 0.15 0.2 0.3" fill="#7c786d" fill-rule="evenodd" stroke="none"/>
    </g>
    <g id="decoration293-shape2" transform="matrix(1.0, 0.0, 0.0, 1.0, -0.1, 54.4)">
      <path d="M35.75 -45.0 L43.55 -50.95 44.25 -50.15 35.05 -43.2 35.5 -44.45 35.75 -45.0 M0.75 -17.3 L0.15 -18.05 5.15 -21.85 6.65 -21.65 0.75 -17.3 M16.55 -30.5 L26.65 -38.15 28.85 -38.55 16.55 -29.25 16.55 -30.5" fill="#c38c54" fill-rule="evenodd" stroke="none"/>
      <path d="M37.5 -40.15 L31.9 -35.85 29.4 -35.15 39.0 -42.4 Q37.7 -41.1 37.5 -40.15 M17.85 -25.2 L6.85 -16.9 5.6 -17.0 18.1 -26.5 Q17.8 -25.85 17.85 -25.2" fill="#906539" fill-rule="evenodd" stroke="none"/>
      <path d="M46.25 -47.95 L46.85 -47.3 37.5 -40.15 Q37.7 -41.1 39.0 -42.4 L46.25 -47.95 M31.9 -35.85 L17.85 -25.2 Q17.8 -25.85 18.1 -26.5 L29.4 -35.15 31.9 -35.85 M6.85 -16.9 L3.5 -14.4 3.0 -14.95 5.6 -17.0 6.85 -16.9" fill="#bf8a53" fill-rule="evenodd" stroke="none"/>
      <path d="M5.15 -21.85 L16.55 -30.5 16.55 -29.25 6.65 -21.65 5.15 -21.85 M26.65 -38.15 L35.75 -45.0 35.5 -44.45 35.05 -43.2 28.85 -38.55 26.65 -38.15" fill="#f0b87d" fill-rule="evenodd" stroke="none"/>
      <path d="M46.15 -48.1 L46.25 -47.95 39.0 -42.4 39.4 -42.9 41.1 -44.45 Q43.8 -46.8 46.15 -48.1 M3.0 -14.95 L1.45 -16.6 4.95 -17.0 5.6 -17.0 3.0 -14.95 M35.05 -43.2 L34.75 -42.75 Q33.4 -40.4 31.0 -39.35 30.1 -38.9 28.85 -38.55 L35.05 -43.2 M16.55 -29.25 L16.35 -28.65 Q16.15 -27.85 14.95 -26.75 L12.35 -23.8 Q10.9 -22.35 8.55 -21.9 L6.65 -21.65 16.55 -29.25 M18.1 -26.5 L18.4 -27.2 19.9 -29.25 22.55 -31.65 25.8 -33.6 29.4 -35.15 18.1 -26.5" fill="#daa064" fill-rule="evenodd" stroke="none"/>
      <path d="M44.25 -50.15 L46.15 -48.1 Q43.8 -46.8 41.1 -44.45 L39.4 -42.9 39.0 -42.4 29.4 -35.15 25.8 -33.6 22.55 -31.65 19.9 -29.25 18.4 -27.2 18.1 -26.5 5.6 -17.0 4.95 -17.0 1.45 -16.6 0.75 -17.3 6.65 -21.65 8.55 -21.9 Q10.9 -22.35 12.35 -23.8 L14.95 -26.75 Q16.15 -27.85 16.35 -28.65 L16.55 -29.25 28.85 -38.55 Q30.1 -38.9 31.0 -39.35 33.4 -40.4 34.75 -42.75 L35.05 -43.2 44.25 -50.15" fill="url(#decoration293-gradient5)" fill-rule="evenodd" stroke="none"/>
      <path d="M44.25 -50.15 L45.25 -51.0 M35.75 -45.0 L43.55 -50.95 44.25 -50.15 46.15 -48.1 46.25 -47.95 46.85 -47.3 37.5 -40.15 31.9 -35.85 17.85 -25.2 6.85 -16.9 3.5 -14.4 3.0 -14.95 1.45 -16.6 0.75 -17.3 0.15 -18.05 5.15 -21.85 16.55 -30.5 26.65 -38.15 35.75 -45.0 Z" fill="none" stroke="#000000" stroke-linecap="round" stroke-linejoin="round" stroke-opacity="0.3019608" stroke-width="0.1"/>
      <path d="M24.25 -30.15 L20.95 -27.65 18.25 -29.6 18.2 -29.65 16.8 -30.7 18.2 -31.75 18.25 -31.8 20.15 -33.3 24.25 -30.15" fill="#222222" fill-opacity="0.4" fill-rule="evenodd" stroke="none"/>
      <path d="M4.85 -50.25 L5.4 -50.85 15.95 -42.3 14.6 -42.3 4.85 -50.25 M28.65 -32.1 L44.05 -19.5 44.05 -18.6 27.45 -31.9 28.65 -32.1" fill="#c38c54" fill-rule="evenodd" stroke="none"/>
      <path d="M45.85 -14.8 L44.95 -13.85 39.2 -18.45 Q39.2 -20.65 37.5 -23.05 35.1 -26.1 32.0 -26.9 L28.6 -27.15 13.95 -39.05 14.2 -39.05 Q16.3 -39.05 17.6 -37.65 L19.0 -35.9 Q19.55 -35.2 20.65 -34.65 L22.7 -33.7 25.75 -32.2 27.45 -31.9 44.05 -18.6 Q44.05 -17.75 44.35 -17.0 45.0 -15.6 45.85 -14.8" fill="url(#decoration293-gradient6)" fill-rule="evenodd" stroke="none"/>
      <path d="M47.15 -16.1 L45.85 -14.8 Q45.0 -15.6 44.35 -17.0 44.05 -17.75 44.05 -18.6 L47.15 -16.1 M27.45 -31.9 L25.75 -32.2 22.7 -33.7 20.65 -34.65 Q19.55 -35.2 19.0 -35.9 L17.6 -37.65 Q16.3 -39.05 14.2 -39.05 L13.95 -39.05 5.35 -46.05 Q7.65 -45.5 10.15 -44.05 L10.2 -44.0 Q11.8 -42.9 12.95 -42.6 L14.6 -42.3 27.45 -31.9 M28.6 -27.15 L32.0 -26.9 Q35.1 -26.1 37.5 -23.05 39.2 -20.65 39.2 -18.45 L28.6 -27.15" fill="#daa064" fill-rule="evenodd" stroke="none"/>
      <path d="M15.95 -42.3 L28.65 -32.1 27.45 -31.9 14.6 -42.3 15.95 -42.3 M44.05 -19.5 L47.65 -16.6 47.15 -16.1 44.05 -18.6 44.05 -19.5" fill="#f0b87d" fill-rule="evenodd" stroke="none"/>
      <path d="M39.1 -17.2 L27.1 -26.9 28.6 -27.15 39.2 -18.45 39.1 -17.2 M12.05 -39.1 L3.1 -46.35 5.35 -46.05 13.95 -39.05 12.25 -39.1 12.05 -39.1" fill="#bf8a53" fill-rule="evenodd" stroke="none"/>
      <path d="M44.95 -13.85 L44.1 -13.1 39.1 -17.2 39.2 -18.45 44.95 -13.85 M27.1 -26.9 L12.05 -39.1 12.25 -39.1 13.95 -39.05 28.6 -27.15 27.1 -26.9 M3.1 -46.35 L1.95 -47.3 2.8 -48.15 5.35 -46.05 3.1 -46.35" fill="#906539" fill-rule="evenodd" stroke="none"/>
      <path d="M2.8 -48.15 L4.85 -50.25 14.6 -42.3 12.95 -42.6 Q11.8 -42.9 10.2 -44.0 L10.15 -44.05 Q7.65 -45.5 5.35 -46.05 L2.8 -48.15" fill="url(#decoration293-gradient7)" fill-rule="evenodd" stroke="none"/>
      <path d="M4.85 -50.25 L5.4 -50.85 15.95 -42.3 28.65 -32.1 44.05 -19.5 47.65 -16.6 47.15 -16.1 45.85 -14.8 44.95 -13.85 44.1 -13.1 39.1 -17.2 27.1 -26.9 12.05 -39.1 3.1 -46.35 1.95 -47.3 2.8 -48.15 4.85 -50.25 Z" fill="none" stroke="#000000" stroke-linecap="round" stroke-linejoin="round" stroke-opacity="0.3019608" stroke-width="0.1"/>
      <path d="M46.65 -48.8 L46.65 -54.35 47.7 -54.35 47.7 -47.65 47.25 -48.2 46.65 -48.8 M0.15 -47.65 L0.15 -54.35 1.1 -54.35 1.1 -48.8 0.55 -48.15 0.15 -47.65 M0.15 -17.0 L0.15 -20.85 1.1 -20.25 1.1 -16.15 0.15 -17.0 M0.15 -28.9 L0.15 -39.35 1.1 -37.1 1.1 -31.2 0.15 -28.9 M46.65 -16.15 L46.65 -20.25 47.7 -20.9 47.7 -17.0 46.65 -16.15 M47.7 -28.9 Q46.95 -30.05 46.65 -31.2 L46.65 -37.1 Q47.0 -38.25 47.7 -39.35 L47.7 -28.9" fill="#bf8a53" fill-rule="evenodd" stroke="none"/>
      <path d="M44.25 -54.35 Q45.25 -53.25 45.55 -52.0 L45.9 -50.35 Q46.1 -49.4 46.55 -48.95 L46.65 -48.8 46.65 -37.1 Q46.15 -35.5 46.25 -33.9 46.25 -32.5 46.65 -31.2 L46.65 -20.25 Q44.65 -18.95 43.65 -16.9 L43.25 -15.95 43.25 -21.55 43.95 -22.05 Q45.15 -23.35 45.45 -25.2 45.6 -27.05 45.15 -28.8 44.85 -30.55 44.15 -31.45 L43.25 -32.3 43.25 -37.25 44.05 -39.05 45.0 -42.25 Q45.2 -44.0 44.3 -45.75 L43.25 -47.2 43.25 -54.35 44.25 -54.35" fill="url(#decoration293-gradient8)" fill-rule="evenodd" stroke="none"/>
      <path d="M43.25 -54.35 L43.25 -47.2 42.15 -48.15 42.15 -54.35 43.25 -54.35 M43.25 -37.25 L43.25 -32.3 42.15 -32.7 42.15 -35.35 43.25 -37.25 M43.25 -21.55 L43.25 -15.95 Q42.55 -14.05 42.9 -12.05 L42.15 -12.05 42.15 -20.9 43.25 -21.55 M4.55 -54.35 L5.6 -54.35 5.6 -48.15 4.55 -47.2 4.55 -54.35 M5.6 -35.35 L5.6 -32.7 4.55 -32.3 4.55 -37.25 5.6 -35.35 M5.6 -20.9 L5.6 -12.05 4.9 -12.05 Q5.25 -14.05 4.55 -15.95 L4.55 -21.55 5.6 -20.9" fill="#c38c54" fill-rule="evenodd" stroke="none"/>
      <path d="M46.65 -48.8 L46.55 -48.95 Q46.1 -49.4 45.9 -50.35 L45.55 -52.0 Q45.25 -53.25 44.25 -54.35 L46.65 -54.35 46.65 -48.8 M43.25 -47.2 L44.3 -45.75 Q45.2 -44.0 45.0 -42.25 L44.05 -39.05 43.25 -37.25 43.25 -47.2 M43.25 -32.3 L44.15 -31.45 Q44.85 -30.55 45.15 -28.8 45.6 -27.05 45.45 -25.2 45.15 -23.35 43.95 -22.05 L43.25 -21.55 43.25 -32.3 M43.25 -15.95 L43.65 -16.9 Q44.65 -18.95 46.65 -20.25 L46.65 -16.15 46.25 -15.75 Q44.65 -14.15 44.7 -12.05 L43.25 -12.05 43.25 -15.95 M46.65 -31.2 Q46.25 -32.5 46.25 -33.9 46.15 -35.5 46.65 -37.1 L46.65 -31.2 M1.1 -48.8 L1.1 -54.35 3.55 -54.35 Q2.5 -53.25 2.2 -52.0 L1.95 -50.35 Q1.7 -49.4 1.25 -48.95 L1.1 -48.8 M4.55 -12.05 L3.1 -12.05 Q3.15 -14.15 1.5 -15.75 L1.1 -16.15 1.1 -20.25 Q3.15 -18.95 4.15 -16.9 L4.55 -15.95 4.55 -12.05 M1.1 -37.1 Q1.65 -35.5 1.5 -33.8 1.5 -32.5 1.1 -31.2 L1.1 -37.1 M4.55 -21.55 L3.9 -22.05 Q2.65 -23.3 2.35 -25.2 2.15 -27.05 2.65 -28.8 3.0 -30.55 3.6 -31.4 4.0 -31.95 4.55 -32.3 L4.55 -21.55 M4.55 -37.25 L3.75 -39.05 Q2.85 -41.2 2.75 -42.25 2.55 -44.0 3.5 -45.7 L4.55 -47.2 4.55 -37.25" fill="#daa064" fill-rule="evenodd" stroke="none"/>
      <path d="M3.55 -54.35 L4.55 -54.35 4.55 -47.2 3.5 -45.7 Q2.55 -44.0 2.75 -42.25 2.85 -41.2 3.75 -39.05 L4.55 -37.25 4.55 -32.3 Q4.0 -31.95 3.6 -31.4 3.0 -30.55 2.65 -28.8 2.15 -27.05 2.35 -25.2 2.65 -23.3 3.9 -22.05 L4.55 -21.55 4.55 -15.95 4.15 -16.9 Q3.15 -18.95 1.1 -20.25 L1.1 -31.2 Q1.5 -32.5 1.5 -33.8 1.65 -35.5 1.1 -37.1 L1.1 -48.8 1.25 -48.95 Q1.7 -49.4 1.95 -50.35 L2.2 -52.0 Q2.5 -53.25 3.55 -54.35" fill="url(#decoration293-gradient9)" fill-rule="evenodd" stroke="none"/>
      <path d="M46.65 -20.25 L46.65 -31.2 Q46.95 -30.05 47.7 -28.9 L47.7 -20.9 46.65 -20.25 M46.65 -37.1 L46.65 -48.8 47.25 -48.2 47.7 -47.65 47.7 -39.35 Q47.0 -38.25 46.65 -37.1 M0.15 -47.65 L0.55 -48.15 1.1 -48.8 1.1 -37.1 0.15 -39.35 0.15 -47.65 M1.1 -12.05 L0.15 -12.05 0.15 -17.0 1.1 -16.15 1.1 -12.05 M0.15 -20.85 L0.15 -28.9 1.1 -31.2 1.1 -20.25 0.15 -20.85 M46.65 -16.15 L47.7 -17.0 47.7 -12.05 46.65 -12.05 46.65 -16.15" fill="#906539" fill-rule="evenodd" stroke="none"/>
      <path d="M5.6 -48.15 L5.6 -35.35 4.55 -37.25 4.55 -47.2 5.6 -48.15 M5.6 -32.7 L5.6 -20.9 4.55 -21.55 4.55 -32.3 5.6 -32.7 M4.9 -12.05 L4.55 -12.05 4.55 -15.95 Q5.25 -14.05 4.9 -12.05 M42.15 -48.15 L43.25 -47.2 43.25 -37.25 42.15 -35.35 42.15 -48.15 M42.15 -32.7 L43.25 -32.3 43.25 -21.55 42.15 -20.9 42.15 -32.7 M42.9 -12.05 Q42.55 -14.05 43.25 -15.95 L43.25 -12.05 42.9 -12.05" fill="#f0b87d" fill-rule="evenodd" stroke="none"/>
      <path d="M3.1 -12.05 L1.1 -12.05 1.1 -16.15 1.5 -15.75 Q3.15 -14.15 3.1 -12.05 M44.7 -12.05 Q44.65 -14.15 46.25 -15.75 L46.65 -16.15 46.65 -12.05 44.7 -12.05" fill="#a47443" fill-rule="evenodd" stroke="none"/>
      <path d="M46.65 -54.35 L44.25 -54.35 43.25 -54.35 42.15 -54.35 42.15 -48.15 42.15 -35.35 42.15 -32.7 42.15 -20.9 42.15 -12.05 42.9 -12.05 43.25 -12.05 44.7 -12.05 46.65 -12.05 47.7 -12.05 47.7 -17.0 47.7 -20.9 47.7 -28.9 47.7 -39.35 47.7 -47.65 47.7 -54.35 46.65 -54.35 M1.1 -54.35 L0.15 -54.35 0.15 -47.65 0.15 -39.35 0.15 -28.9 0.15 -20.85 0.15 -17.0 0.15 -12.05 1.1 -12.05 3.1 -12.05 4.55 -12.05 4.9 -12.05 5.6 -12.05 5.6 -20.9 5.6 -32.7 5.6 -35.35 5.6 -48.15 5.6 -54.35 4.55 -54.35 3.55 -54.35 1.1 -54.35 Z" fill="none" stroke="#000000" stroke-linecap="round" stroke-linejoin="round" stroke-opacity="0.3019608" stroke-width="0.1"/>
    </g>
    <radialGradient cx="0" cy="0" gradientTransform="matrix(0.02, -0.0131, 0.0048, 0.0075, 25.35, -36.1)" gradientUnits="userSpaceOnUse" id="decoration293-gradient5" r="819.2" spreadMethod="pad">
      <stop offset="0.0" stop-color="#d1a06f"/>
      <stop offset="1.0" stop-color="#79522b"/>
    </radialGradient>
    <radialGradient cx="0" cy="0" gradientTransform="matrix(0.0021, -0.0028, 0.0294, 0.0238, 23.8, -33.0)" gradientUnits="userSpaceOnUse" id="decoration293-gradient6" r="819.2" spreadMethod="pad">
      <stop offset="0.0" stop-color="#d1a06f"/>
      <stop offset="1.0" stop-color="#79522b"/>
    </radialGradient>
    <radialGradient cx="0" cy="0" gradientTransform="matrix(0.0021, -0.0028, 0.0294, 0.0238, 23.8, -33.0)" gradientUnits="userSpaceOnUse" id="decoration293-gradient7" r="819.2" spreadMethod="pad">
      <stop offset="0.0" stop-color="#d1a06f"/>
      <stop offset="1.0" stop-color="#a47443"/>
    </radialGradient>
    <radialGradient cx="0" cy="0" gradientTransform="matrix(0.003, 0.0, 5.0E-4, 0.0243, 44.3, -33.65)" gradientUnits="userSpaceOnUse" id="decoration293-gradient8" r="819.2" spreadMethod="pad">
      <stop offset="0.0" stop-color="#d1a06f"/>
      <stop offset="1.0" stop-color="#79522b"/>
    </radialGradient>
    <radialGradient cx="0" cy="0" gradientTransform="matrix(-0.003, 0.0, -5.0E-4, 0.0243, 1.25, -33.65)" gradientUnits="userSpaceOnUse" id="decoration293-gradient9" r="819.2" spreadMethod="pad">
      <stop offset="0.0" stop-color="#d1a06f"/>
      <stop offset="1.0" stop-color="#79522b"/>
    </radialGradient>
    <g id="decoration293-shape3" transform="matrix(1.0, 0.0, 0.0, 1.0, 58.0, 61.05)">
      <path d="M15.7 -14.35 Q13.35 -12.95 11.95 -12.8 L9.65 -13.1 7.35 -13.5 4.35 -13.65 1.35 -13.5 Q-2.15 -13.4 -6.2 -14.2 L-6.95 -14.35 15.7 -14.35 M44.15 -14.35 L37.1 -13.95 33.3 -14.35 44.15 -14.35 M27.75 -11.35 L30.5 -11.45 33.3 -11.35 27.75 -11.35 M49.4 -11.35 Q50.25 -12.05 52.0 -12.5 L55.45 -13.2 55.45 -11.35 49.4 -11.35 M-32.2 -11.35 L-27.1 -11.75 -22.9 -11.35 -32.2 -11.35 M-49.05 -14.35 L-34.6 -14.35 -40.65 -13.5 Q-45.35 -13.3 -49.05 -14.35" fill="#daa064" fill-rule="evenodd" stroke="none"/>
      <path d="M-6.95 -14.35 L-6.2 -14.2 Q-2.15 -13.4 1.35 -13.5 L4.35 -13.65 7.35 -13.5 9.65 -13.1 11.95 -12.8 Q13.35 -12.95 15.7 -14.35 L33.3 -14.35 37.1 -13.95 44.15 -14.35 55.45 -14.35 55.45 -13.2 52.0 -12.5 Q50.25 -12.05 49.4 -11.35 L33.3 -11.35 30.5 -11.45 27.75 -11.35 -22.9 -11.35 -27.1 -11.75 -32.2 -11.35 -57.95 -11.35 -57.95 -14.35 -49.05 -14.35 Q-45.35 -13.3 -40.65 -13.5 L-34.6 -14.35 -6.95 -14.35" fill="url(#decoration293-gradient10)" fill-rule="evenodd" stroke="none"/>
      <path d="M13.3 -10.2 L1.35 -11.15 Q-4.0 -11.15 -7.3 -10.2 L-19.2 -10.2 -22.9 -11.35 27.75 -11.35 Q25.2 -11.0 23.7 -10.2 L13.3 -10.2 M39.0 -10.2 Q36.4 -11.0 33.3 -11.35 L49.4 -11.35 49.2 -11.15 48.45 -10.2 39.0 -10.2 M-35.9 -10.2 L-57.95 -10.2 -57.95 -11.35 -32.2 -11.35 Q-34.15 -10.95 -35.9 -10.2" fill="#906539" fill-rule="evenodd" stroke="none"/>
      <path d="M-7.3 -10.2 Q-4.0 -11.15 1.35 -11.15 L13.3 -10.2 -7.3 -10.2 M23.7 -10.2 Q25.2 -11.0 27.75 -11.35 L33.3 -11.35 Q36.4 -11.0 39.0 -10.2 L23.7 -10.2 M-22.9 -11.35 L-19.2 -10.2 -35.9 -10.2 Q-34.15 -10.95 -32.2 -11.35 L-22.9 -11.35 M48.45 -10.2 L49.2 -11.15 49.4 -11.35 55.45 -11.35 55.45 -10.2 48.45 -10.2" fill="#bf8a53" fill-rule="evenodd" stroke="none"/>
      <path d="M15.7 -14.35 L-6.95 -14.35 -11.4 -15.45 17.6 -15.45 16.2 -14.65 15.7 -14.35 M-29.95 -15.45 L-34.1 -14.5 -34.6 -14.35 -49.05 -14.35 Q-50.6 -14.75 -52.0 -15.45 L-29.95 -15.45 M44.15 -14.35 L33.3 -14.35 31.1 -14.75 27.8 -15.45 47.85 -15.45 44.15 -14.35" fill="#f0b87d" fill-rule="evenodd" stroke="none"/>
      <path d="M-11.4 -15.45 L-6.95 -14.35 -34.6 -14.35 -34.1 -14.5 -29.95 -15.45 -11.4 -15.45 M15.7 -14.35 L16.2 -14.65 17.6 -15.45 27.8 -15.45 31.1 -14.75 33.3 -14.35 15.7 -14.35 M55.45 -14.35 L44.15 -14.35 47.85 -15.45 55.45 -15.45 55.45 -14.35 M-57.95 -14.35 L-57.95 -15.45 -52.0 -15.45 Q-50.6 -14.75 -49.05 -14.35 L-57.95 -14.35" fill="#c38c54" fill-rule="evenodd" stroke="none"/>
      <path d="M-11.4 -15.45 L-29.95 -15.45 -52.0 -15.45 -57.95 -15.45 -57.95 -14.35 -57.95 -11.35 -57.95 -10.2 -35.9 -10.2 -19.2 -10.2 -7.3 -10.2 13.3 -10.2 23.7 -10.2 39.0 -10.2 48.45 -10.2 55.45 -10.2 55.45 -11.35 55.45 -13.2 55.45 -14.35 55.45 -15.45 47.85 -15.45 27.8 -15.45 17.6 -15.45 -11.4 -15.45 Z" fill="none" stroke="#000000" stroke-linecap="round" stroke-linejoin="round" stroke-opacity="0.3019608" stroke-width="0.1"/>
      <path d="M42.15 -54.35 L47.7 -54.35 47.7 -45.25 42.15 -45.25 42.15 -45.3 42.05 -45.25 36.1 -45.25 42.15 -49.85 42.15 -54.35 M0.15 -54.35 L5.6 -54.35 5.6 -50.7 12.35 -45.25 0.15 -45.25 0.15 -54.35 M-3.85 -54.3 L-3.85 -45.25 -14.7 -45.25 -9.45 -49.2 -9.45 -54.3 -3.85 -54.3 M-46.0 -54.3 L-46.0 -50.7 -39.25 -45.25 -51.55 -45.25 -51.55 -54.3 -46.0 -54.3" fill="#000000" fill-opacity="0.12941177" fill-rule="evenodd" stroke="none"/>
      <path d="M49.1 -55.35 L45.35 -54.25 34.5 -54.25 32.35 -54.65 29.0 -55.35 49.1 -55.35 M18.8 -55.35 L17.45 -54.6 16.9 -54.25 -5.75 -54.25 -10.2 -55.35 18.8 -55.35 M-28.75 -55.35 L-32.85 -54.35 -33.4 -54.25 -47.8 -54.25 -50.8 -55.35 -28.75 -55.35" fill="#f0b87d" fill-rule="evenodd" stroke="none"/>
      <path d="M56.65 -54.25 L45.35 -54.25 49.1 -55.35 56.65 -55.35 56.65 -54.25 M34.5 -54.25 L16.9 -54.25 17.45 -54.6 18.8 -55.35 29.0 -55.35 32.35 -54.65 34.5 -54.25 M-5.75 -54.25 L-33.4 -54.25 -32.85 -54.35 -28.75 -55.35 -10.2 -55.35 -5.75 -54.25 M-47.8 -54.25 L-56.8 -54.25 -56.8 -55.35 -50.8 -55.35 -47.8 -54.25" fill="#c38c54" fill-rule="evenodd" stroke="none"/>
      <path d="M50.55 -51.2 L50.45 -51.1 49.65 -50.05 40.25 -50.05 Q37.55 -50.9 34.5 -51.2 L50.55 -51.2 M-56.8 -51.2 L-31.05 -51.2 -34.65 -50.05 -56.8 -50.05 -56.8 -51.2 M-21.75 -51.2 L28.95 -51.2 Q26.45 -50.9 24.95 -50.05 L14.5 -50.05 2.6 -51.1 Q-2.75 -51.1 -6.1 -50.05 L-18.0 -50.05 -21.75 -51.2" fill="#906539" fill-rule="evenodd" stroke="none"/>
      <path d="M49.65 -50.05 L50.45 -51.1 50.55 -51.2 56.65 -51.2 56.65 -50.05 49.65 -50.05 M34.5 -51.2 Q37.55 -50.9 40.25 -50.05 L24.95 -50.05 Q26.45 -50.9 28.95 -51.2 L34.5 -51.2 M-6.1 -50.05 Q-2.75 -51.1 2.6 -51.1 L14.5 -50.05 -6.1 -50.05 M-34.65 -50.05 L-31.05 -51.2 -21.75 -51.2 -18.0 -50.05 -34.65 -50.05" fill="#bf8a53" fill-rule="evenodd" stroke="none"/>
      <path d="M56.65 -51.2 L50.55 -51.2 Q51.5 -51.9 53.2 -52.45 L56.65 -53.05 56.65 -51.2 M45.35 -54.25 L38.3 -53.9 34.5 -54.25 45.35 -54.25 M16.9 -54.25 Q14.6 -52.85 13.2 -52.7 L10.85 -52.95 8.5 -53.4 5.55 -53.6 2.55 -53.4 -5.0 -54.1 -5.75 -54.25 16.9 -54.25 M-33.4 -54.25 L-39.5 -53.4 Q-44.15 -53.2 -47.8 -54.25 L-33.4 -54.25 M-31.05 -51.2 L-25.85 -51.65 -21.75 -51.2 -31.05 -51.2 M28.95 -51.2 L31.75 -51.3 34.5 -51.2 28.95 -51.2" fill="#daa064" fill-rule="evenodd" stroke="none"/>
      <path d="M50.55 -51.2 L34.5 -51.2 31.75 -51.3 28.95 -51.2 -21.75 -51.2 -25.85 -51.65 -31.05 -51.2 -56.8 -51.2 -56.8 -54.25 -47.8 -54.25 Q-44.15 -53.2 -39.5 -53.4 L-33.4 -54.25 -5.75 -54.25 -5.0 -54.1 2.55 -53.4 5.55 -53.6 8.5 -53.4 10.85 -52.95 13.2 -52.7 Q14.6 -52.85 16.9 -54.25 L34.5 -54.25 38.3 -53.9 45.35 -54.25 56.65 -54.25 56.65 -53.05 53.2 -52.45 Q51.5 -51.9 50.55 -51.2" fill="url(#decoration293-gradient11)" fill-rule="evenodd" stroke="none"/>
      <path d="M40.25 -50.05 L49.65 -50.05 56.65 -50.05 56.65 -51.2 56.65 -53.05 56.65 -54.25 56.65 -55.35 49.1 -55.35 29.0 -55.35 18.8 -55.35 -10.2 -55.35 -28.75 -55.35 -50.8 -55.35 -56.8 -55.35 -56.8 -54.25 -56.8 -51.2 -56.8 -50.05 -34.65 -50.05 -18.0 -50.05 -6.1 -50.05 14.5 -50.05 24.95 -50.05 40.25 -50.05 Z" fill="none" stroke="#000000" stroke-linecap="round" stroke-linejoin="round" stroke-opacity="0.3019608" stroke-width="0.1"/>
      <path d="M58.85 -61.0 L60.3 -61.0 60.3 -48.2 Q59.35 -47.15 58.9 -45.65 L58.85 -45.45 58.85 -61.0 M60.3 -38.4 L60.3 -17.2 59.1 -16.2 58.85 -15.95 58.85 -41.55 Q59.25 -39.95 60.3 -38.4 M60.3 -12.6 L60.3 -6.4 Q59.7 -7.45 59.4 -8.7 59.05 -9.9 59.4 -11.1 59.6 -11.8 60.3 -12.6" fill="#906539" fill-rule="evenodd" stroke="none"/>
      <path d="M54.9 0.05 L53.8 0.05 53.8 -17.75 54.9 -19.6 54.9 0.05 M53.8 -37.95 L53.8 -47.25 54.9 -48.75 54.9 -37.15 53.8 -37.95 M53.8 -58.15 L53.8 -61.0 54.9 -61.0 54.9 -57.65 54.55 -57.9 53.8 -58.15" fill="#c38c54" fill-rule="evenodd" stroke="none"/>
      <path d="M53.8 -17.75 L53.8 -37.95 54.9 -37.15 54.9 -19.6 53.8 -17.75 M53.8 -47.25 L53.8 -58.15 54.55 -57.9 54.9 -57.65 54.9 -48.85 54.9 -48.75 53.8 -47.25" fill="#f0b87d" fill-rule="evenodd" stroke="none"/>
      <path d="M58.55 0.05 L54.9 0.05 54.9 -19.6 55.7 -21.3 Q56.65 -23.65 56.5 -25.55 55.95 -27.9 55.95 -29.05 L56.2 -31.2 56.55 -33.3 Q56.55 -34.85 55.6 -36.25 L54.9 -37.15 54.9 -48.75 54.9 -48.85 Q56.4 -51.25 56.55 -53.8 56.55 -55.6 55.8 -56.85 L54.9 -57.65 54.9 -61.0 58.85 -61.0 58.85 -45.45 Q58.45 -44.05 58.7 -42.5 L58.85 -41.55 58.85 -15.95 Q57.05 -14.2 56.5 -12.3 55.85 -10.3 56.5 -6.45 57.3 -2.4 58.55 0.05" fill="url(#decoration293-gradient12)" fill-rule="evenodd" stroke="none"/>
      <path d="M58.85 0.05 L58.55 0.05 Q57.3 -2.4 56.5 -6.45 55.85 -10.3 56.5 -12.3 57.05 -14.2 58.85 -15.95 L58.85 0.05 M54.9 -57.65 L55.8 -56.85 Q56.55 -55.6 56.55 -53.8 56.4 -51.25 54.9 -48.85 L54.9 -57.65 M54.9 -37.15 L55.6 -36.25 Q56.55 -34.85 56.55 -33.3 L56.2 -31.2 55.95 -29.05 Q55.95 -27.9 56.5 -25.55 56.65 -23.65 55.7 -21.3 L54.9 -19.6 54.9 -37.15 M58.85 -41.55 L58.7 -42.5 Q58.45 -44.05 58.85 -45.45 L58.85 -41.55" fill="#daa064" fill-rule="evenodd" stroke="none"/>
      <path d="M60.3 -48.2 L60.3 -38.4 Q59.25 -39.95 58.85 -41.55 L58.85 -45.45 58.9 -45.65 Q59.35 -47.15 60.3 -48.2 M60.3 -17.2 L60.3 -12.6 Q59.6 -11.8 59.4 -11.1 59.05 -9.9 59.4 -8.7 59.7 -7.45 60.3 -6.4 L60.3 0.05 58.85 0.05 58.85 -15.95 59.1 -16.2 60.3 -17.2" fill="#bf8a53" fill-rule="evenodd" stroke="none"/>
      <path d="M58.85 -61.0 L60.3 -61.0 60.3 -48.2 60.3 -38.4 60.3 -17.2 60.3 -12.6 60.3 -6.4 60.3 0.05 58.85 0.05 58.55 0.05 54.9 0.05 53.8 0.05 53.8 -17.75 53.8 -37.95 53.8 -47.25 53.8 -58.15 53.8 -61.0 54.9 -61.0 58.85 -61.0 Z" fill="none" stroke="#000000" stroke-linecap="round" stroke-linejoin="round" stroke-opacity="0.3019608" stroke-width="0.1"/>
    </g>
    <radialGradient cx="0" cy="0" gradientTransform="matrix(0.0613, 2.0E-4, 0.0, 0.0088, -1.8, -13.3)" gradientUnits="userSpaceOnUse" id="decoration293-gradient10" r="819.2" spreadMethod="pad">
      <stop offset="0.0" stop-color="#d1a06f"/>
      <stop offset="1.0" stop-color="#79522b"/>
    </radialGradient>
    <radialGradient cx="0" cy="0" gradientTransform="matrix(0.0614, 3.0E-4, 0.0, 0.0088, -0.4, -53.05)" gradientUnits="userSpaceOnUse" id="decoration293-gradient11" r="819.2" spreadMethod="pad">
      <stop offset="0.0" stop-color="#d1a06f"/>
      <stop offset="1.0" stop-color="#79522b"/>
    </radialGradient>
    <radialGradient cx="0" cy="0" gradientTransform="matrix(0.0247, 0.0, 0.0, 0.0247, 55.85, -31.5)" gradientUnits="userSpaceOnUse" id="decoration293-gradient12" r="819.2" spreadMethod="pad">
      <stop offset="0.0" stop-color="#d1a06f"/>
      <stop offset="1.0" stop-color="#79522b"/>
    </radialGradient>
    <g id="decoration293-shape4" transform="matrix(1.0, 0.0, 0.0, 1.0, 60.05, 61.05)">
      <path d="M-54.95 -61.0 L-53.55 -61.0 -53.55 -48.15 Q-54.5 -47.1 -54.95 -45.6 L-54.95 -61.0 M-53.55 -38.4 L-53.55 -17.2 -54.7 -16.15 -54.95 -15.9 -54.95 -41.5 Q-54.55 -39.9 -53.55 -38.4 M-53.55 -12.6 L-53.55 -6.45 -54.5 -8.7 Q-54.8 -9.85 -54.5 -11.1 L-53.55 -12.6" fill="#906539" fill-rule="evenodd" stroke="none"/>
      <path d="M-58.95 0.1 L-60.0 0.1 -60.0 -17.8 -58.95 -19.6 -58.95 0.1 M-60.0 -37.95 L-60.0 -47.2 -58.95 -48.75 -58.95 -37.15 -60.0 -37.95 M-60.0 -58.1 L-60.0 -61.0 -58.95 -61.0 -58.95 -57.65 -59.3 -57.85 -60.0 -58.1" fill="#c38c54" fill-rule="evenodd" stroke="none"/>
      <path d="M-60.0 -17.8 L-60.0 -37.95 -58.95 -37.15 -58.95 -19.6 -60.0 -17.8 M-60.0 -47.2 L-60.0 -58.1 -59.3 -57.85 -58.95 -57.65 -58.95 -48.75 -60.0 -47.2" fill="#f0b87d" fill-rule="evenodd" stroke="none"/>
      <path d="M-55.3 0.1 L-58.95 0.1 -58.95 -19.6 Q-58.4 -20.55 -58.15 -21.25 -57.15 -23.6 -57.35 -25.6 L-57.85 -29.0 -57.65 -31.15 -57.3 -33.25 Q-57.3 -34.85 -58.2 -36.25 L-58.95 -37.15 -58.95 -48.75 -58.9 -48.85 Q-57.4 -51.25 -57.3 -53.75 -57.3 -55.55 -58.05 -56.85 L-58.95 -57.65 -58.95 -61.0 -54.95 -61.0 -54.95 -45.6 -54.95 -45.4 Q-55.35 -44.0 -55.2 -42.45 L-54.95 -41.5 -54.95 -15.9 Q-56.75 -14.25 -57.35 -12.25 -58.0 -10.35 -57.35 -6.45 -56.55 -2.35 -55.3 0.1" fill="url(#decoration293-gradient13)" fill-rule="evenodd" stroke="none"/>
      <path d="M-54.95 0.1 L-55.3 0.1 Q-56.55 -2.35 -57.35 -6.45 -58.0 -10.35 -57.35 -12.25 -56.75 -14.25 -54.95 -15.9 L-54.95 0.1 M-58.95 -57.65 L-58.05 -56.85 Q-57.3 -55.55 -57.3 -53.75 -57.4 -51.25 -58.9 -48.85 L-58.95 -48.75 -58.95 -57.65 M-58.95 -37.15 L-58.2 -36.25 Q-57.3 -34.85 -57.3 -33.25 L-57.65 -31.15 -57.85 -29.0 -57.35 -25.6 Q-57.15 -23.6 -58.15 -21.25 -58.4 -20.55 -58.95 -19.6 L-58.95 -37.15 M-54.95 -41.5 L-55.2 -42.45 Q-55.35 -44.0 -54.95 -45.4 L-54.95 -41.5" fill="#daa064" fill-rule="evenodd" stroke="none"/>
      <path d="M-53.55 -48.15 L-53.55 -38.4 Q-54.55 -39.9 -54.95 -41.5 L-54.95 -45.4 -54.95 -45.6 Q-54.5 -47.1 -53.55 -48.15 M-53.55 -17.2 L-53.55 -12.6 -54.5 -11.1 Q-54.8 -9.85 -54.5 -8.7 L-53.55 -6.45 -53.55 0.1 -54.95 0.1 -54.95 -15.9 -54.7 -16.15 -53.55 -17.2" fill="#bf8a53" fill-rule="evenodd" stroke="none"/>
      <path d="M-54.95 -61.0 L-53.55 -61.0 -53.55 -48.15 -53.55 -38.4 -53.55 -17.2 -53.55 -12.6 -53.55 -6.45 -53.55 0.1 -54.95 0.1 -55.3 0.1 -58.95 0.1 -60.0 0.1 -60.0 -17.8 -60.0 -37.95 -60.0 -47.2 -60.0 -58.1 -60.0 -61.0 -58.95 -61.0 -54.95 -61.0 Z" fill="none" stroke="#000000" stroke-linecap="round" stroke-linejoin="round" stroke-opacity="0.3019608" stroke-width="0.1"/>
    </g>
    <radialGradient cx="0" cy="0" gradientTransform="matrix(0.0247, 0.0, 0.0, 0.0247, -58.0, -31.5)" gradientUnits="userSpaceOnUse" id="decoration293-gradient13" r="819.2" spreadMethod="pad">
      <stop offset="0.0" stop-color="#d1a06f"/>
      <stop offset="1.0" stop-color="#79522b"/>
    </radialGradient>
  </defs>
</svg>
