<?xml version="1.0" encoding="UTF-8" standalone="no"?>
<svg xmlns:ffdec="https://www.free-decompiler.com/flash" xmlns:xlink="http://www.w3.org/1999/xlink" ffdec:objectType="frame" height="98.05px" width="87.15px" xmlns="http://www.w3.org/2000/svg">
  <g transform="matrix(1.0, 0.0, 0.0, 1.0, 44.05, 97.0)">
    <use ffdec:characterId="16" height="98.05" transform="matrix(1.0, 0.0, 0.0, 1.0, -44.05, -97.0)" width="87.15" xlink:href="#decoration294-shape0"/>
  </g>
  <defs>
    <g id="decoration294-shape0" transform="matrix(1.0, 0.0, 0.0, 1.0, 44.05, 97.0)">
      <path d="M-40.8 -94.55 L-37.5 -94.55 -37.5 1.0 -40.8 1.0 -40.8 -94.55" fill="url(#decoration294-gradient0)" fill-rule="evenodd" stroke="none"/>
      <path d="M-40.8 1.0 L-44.0 1.0 -44.0 -94.55 -40.8 -94.55 -40.8 1.0" fill="url(#decoration294-gradient1)" fill-rule="evenodd" stroke="none"/>
      <path d="M-40.8 1.0 L-44.0 1.0 -44.0 -94.55 -40.8 -94.55 -37.5 -94.55 -37.5 1.0 -40.8 1.0 Z" fill="none" stroke="#000000" stroke-linecap="round" stroke-linejoin="round" stroke-opacity="0.3019608" stroke-width="0.1"/>
      <path d="M-41.5 -69.55 Q-41.0 -56.0 -41.55 -40.95 -42.25 -55.6 -41.5 -69.55" fill="#d1a06f" fill-rule="evenodd" stroke="none"/>
      <path d="M-41.55 -40.95 Q-41.0 -56.0 -41.5 -69.55 -40.1 -55.0 -41.55 -40.95" fill="#493015" fill-rule="evenodd" stroke="none"/>
      <path d="M-40.5 -35.05 Q-40.0 -21.5 -40.55 -6.45 -41.25 -21.1 -40.5 -35.05" fill="#d1a06f" fill-rule="evenodd" stroke="none"/>
      <path d="M-40.55 -6.45 Q-40.0 -21.5 -40.5 -35.05 -39.1 -20.5 -40.55 -6.45" fill="#493015" fill-rule="evenodd" stroke="none"/>
      <path d="M-41.5 -94.55 Q-41.7 -87.9 -41.45 -82.05 -42.0 -81.4 -42.2 -94.55 L-41.5 -94.55" fill="#493015" fill-rule="evenodd" stroke="none"/>
      <path d="M-41.5 -94.55 L-40.8 -94.55 Q-40.9 -81.85 -41.45 -81.95 L-41.45 -82.05 Q-41.7 -87.9 -41.5 -94.55" fill="#d1a06f" fill-rule="evenodd" stroke="none"/>
      <path d="M-42.45 -73.05 Q-40.05 -73.3 -37.3 -73.1 L-37.3 -72.4 Q-42.45 -72.5 -42.45 -73.05" fill="#d1a06f" fill-rule="evenodd" stroke="none"/>
      <path d="M-37.3 -73.1 Q-40.05 -73.3 -42.45 -73.05 -42.65 -73.6 -37.3 -73.8 L-37.3 -73.1" fill="#493015" fill-rule="evenodd" stroke="none"/>
      <path d="M39.7 -94.55 L43.05 -94.55 43.05 1.0 39.7 1.0 39.7 -94.55" fill="url(#decoration294-gradient2)" fill-rule="evenodd" stroke="none"/>
      <path d="M39.7 1.0 L36.5 1.0 36.5 -94.55 39.7 -94.55 39.7 1.0" fill="url(#decoration294-gradient3)" fill-rule="evenodd" stroke="none"/>
      <path d="M39.7 -94.55 L43.05 -94.55 43.05 1.0 39.7 1.0 36.5 1.0 36.5 -94.55 39.7 -94.55 Z" fill="none" stroke="#000000" stroke-linecap="round" stroke-linejoin="round" stroke-opacity="0.3019608" stroke-width="0.1"/>
      <path d="M38.3 1.0 Q38.5 -5.65 38.25 -11.45 38.8 -12.15 39.0 1.0 L38.3 1.0" fill="#493015" fill-rule="evenodd" stroke="none"/>
      <path d="M38.3 1.0 L37.6 1.0 Q37.7 -11.7 38.25 -11.6 L38.25 -11.45 Q38.5 -5.65 38.3 1.0" fill="#d1a06f" fill-rule="evenodd" stroke="none"/>
      <path d="M37.85 -23.9 Q40.25 -24.15 43.0 -23.95 L43.0 -23.25 Q37.85 -23.35 37.85 -23.9" fill="#d1a06f" fill-rule="evenodd" stroke="none"/>
      <path d="M43.0 -23.95 Q40.25 -24.15 37.85 -23.9 37.65 -24.45 43.0 -24.65 L43.0 -23.95" fill="#493015" fill-rule="evenodd" stroke="none"/>
      <path d="M41.5 -59.15 Q42.0 -45.65 41.45 -30.65 40.75 -45.2 41.5 -59.15" fill="#d1a06f" fill-rule="evenodd" stroke="none"/>
      <path d="M41.45 -30.65 Q42.0 -45.65 41.5 -59.15 42.9 -44.65 41.45 -30.65" fill="#493015" fill-rule="evenodd" stroke="none"/>
      <path d="M39.55 -94.05 Q40.05 -80.5 39.5 -65.45 38.8 -80.1 39.55 -94.05" fill="#d1a06f" fill-rule="evenodd" stroke="none"/>
      <path d="M39.5 -65.45 Q40.05 -80.5 39.55 -94.05 40.95 -79.5 39.5 -65.45" fill="#493015" fill-rule="evenodd" stroke="none"/>
      <path d="M43.0 -92.9 L43.0 -90.55 -44.0 -90.55 -44.0 -92.9 43.0 -92.9" fill="url(#decoration294-gradient4)" fill-rule="evenodd" stroke="none"/>
      <path d="M-44.0 -92.9 L-44.0 -96.85 43.0 -96.95 43.0 -92.9 -44.0 -92.9" fill="url(#decoration294-gradient5)" fill-rule="evenodd" stroke="none"/>
      <path d="M43.0 -92.9 L43.0 -90.55 -44.0 -90.55 -44.0 -92.9 -44.0 -96.85 43.0 -96.95 43.0 -92.9 Z" fill="none" stroke="#000000" stroke-linecap="round" stroke-linejoin="round" stroke-opacity="0.3019608" stroke-width="0.1"/>
      <path d="M-42.05 -92.95 L-42.5 -93.15 -42.65 -93.65 -42.5 -94.15 -42.05 -94.35 Q-41.75 -94.35 -41.6 -94.15 L-41.4 -93.65 -41.6 -93.15 Q-41.75 -92.95 -42.05 -92.95" fill="#000000" fill-opacity="0.32941177" fill-rule="evenodd" stroke="none"/>
      <path d="M-42.25 -93.7 Q-42.5 -93.7 -42.7 -93.95 L-42.85 -94.45 -42.7 -94.95 -42.25 -95.15 Q-41.95 -95.15 -41.8 -94.95 L-41.6 -94.45 -41.8 -93.95 Q-41.95 -93.7 -42.25 -93.7" fill="#cabeae" fill-rule="evenodd" stroke="none"/>
      <path d="M-42.25 -93.7 Q-42.5 -93.7 -42.7 -93.95 L-42.85 -94.45 -42.7 -94.95 -42.25 -95.15 Q-41.95 -95.15 -41.8 -94.95 L-41.6 -94.45 -41.8 -93.95 Q-41.95 -93.7 -42.25 -93.7 Z" fill="none" stroke="#000000" stroke-linecap="round" stroke-linejoin="round" stroke-opacity="0.3019608" stroke-width="0.1"/>
      <path d="M-42.6 -93.75 L-42.75 -93.85 -42.05 -94.8 -41.9 -94.65 -42.6 -93.75" fill="#7c786d" fill-rule="evenodd" stroke="none"/>
      <path d="M41.45 -93.0 L41.0 -93.2 Q40.85 -93.4 40.85 -93.7 L41.0 -94.2 41.45 -94.4 41.9 -94.2 42.1 -93.7 41.9 -93.2 Q41.75 -93.0 41.45 -93.0" fill="#000000" fill-opacity="0.32941177" fill-rule="evenodd" stroke="none"/>
      <path d="M41.2 -93.9 Q40.95 -93.9 40.75 -94.15 40.6 -94.35 40.6 -94.65 40.6 -94.95 40.75 -95.15 L41.2 -95.35 Q41.5 -95.35 41.65 -95.15 L41.85 -94.65 Q41.85 -94.35 41.65 -94.15 41.5 -93.9 41.2 -93.9" fill="#cabeae" fill-rule="evenodd" stroke="none"/>
      <path d="M41.2 -93.9 Q40.95 -93.9 40.75 -94.15 40.6 -94.35 40.6 -94.65 40.6 -94.95 40.75 -95.15 L41.2 -95.35 Q41.5 -95.35 41.65 -95.15 L41.85 -94.65 Q41.85 -94.35 41.65 -94.15 41.5 -93.9 41.2 -93.9 Z" fill="none" stroke="#000000" stroke-linecap="round" stroke-linejoin="round" stroke-opacity="0.3019608" stroke-width="0.1"/>
      <path d="M40.85 -93.45 L40.7 -93.55 41.4 -94.5 41.55 -94.35 40.85 -93.45" fill="#7c786d" fill-rule="evenodd" stroke="none"/>
      <path d="M-39.35 -94.65 Q-31.1 -95.15 -21.95 -94.6 -30.85 -93.9 -39.35 -94.65" fill="#d1a06f" fill-rule="evenodd" stroke="none"/>
      <path d="M-21.95 -94.6 Q-31.1 -95.15 -39.35 -94.65 -30.5 -96.05 -21.95 -94.6" fill="#493015" fill-rule="evenodd" stroke="none"/>
      <path d="M23.35 -95.55 Q31.6 -96.05 40.75 -95.5 31.85 -94.8 23.35 -95.55" fill="#d1a06f" fill-rule="evenodd" stroke="none"/>
      <path d="M40.75 -95.5 Q31.6 -96.05 23.35 -95.55 32.2 -96.95 40.75 -95.5" fill="#493015" fill-rule="evenodd" stroke="none"/>
      <path d="M43.0 -92.75 Q36.35 -92.95 30.55 -92.7 L43.0 -93.45 43.0 -92.75" fill="#493015" fill-rule="evenodd" stroke="none"/>
      <path d="M43.0 -92.75 L43.0 -92.05 30.4 -92.7 30.55 -92.7 Q36.35 -92.95 43.0 -92.75" fill="#d1a06f" fill-rule="evenodd" stroke="none"/>
      <path d="M-36.85 -92.4 L-44.0 -92.45 -44.0 -92.9 -36.85 -92.4" fill="#493015" fill-rule="evenodd" stroke="none"/>
      <path d="M-44.0 -92.45 L-36.85 -92.4 -44.0 -92.0 -44.0 -92.45" fill="#d1a06f" fill-rule="evenodd" stroke="none"/>
      <path d="M-7.85 -97.0 L-7.0 -97.0 Q-0.85 -93.45 -1.2 -93.0 L-1.25 -93.0 Q-4.0 -94.35 -7.85 -97.0" fill="#d1a06f" fill-rule="evenodd" stroke="none"/>
      <path d="M-7.85 -97.0 Q-4.0 -94.35 -1.25 -93.0 -1.2 -92.35 -8.4 -96.3 L-7.85 -97.0" fill="#493015" fill-rule="evenodd" stroke="none"/>
    </g>
    <linearGradient gradientTransform="matrix(0.0018, 0.0, -3.0E-4, 0.0582, -40.0, -47.6)" gradientUnits="userSpaceOnUse" id="decoration294-gradient0" spreadMethod="reflect" x1="-819.2" x2="819.2">
      <stop offset="0.13725490196078433" stop-color="#a3703c"/>
      <stop offset="1.0" stop-color="#63411e"/>
      <stop offset="1.0" stop-color="#f2bb83"/>
      <stop offset="1.0" stop-color="#d59a5d"/>
    </linearGradient>
    <linearGradient gradientTransform="matrix(0.0014, 0.0, 0.0, 0.0582, -41.95, -46.8)" gradientUnits="userSpaceOnUse" id="decoration294-gradient1" spreadMethod="reflect" x1="-819.2" x2="819.2">
      <stop offset="0.13725490196078433" stop-color="#dfa86f"/>
      <stop offset="1.0" stop-color="#a9753e"/>
      <stop offset="1.0" stop-color="#f2bb83"/>
      <stop offset="1.0" stop-color="#d59a5d"/>
    </linearGradient>
    <linearGradient gradientTransform="matrix(0.0018, 0.0, -1.0E-4, 0.0582, 41.1, -47.5)" gradientUnits="userSpaceOnUse" id="decoration294-gradient2" spreadMethod="reflect" x1="-819.2" x2="819.2">
      <stop offset="0.13725490196078433" stop-color="#a3703c"/>
      <stop offset="1.0" stop-color="#63411e"/>
      <stop offset="1.0" stop-color="#f2bb83"/>
      <stop offset="1.0" stop-color="#d59a5d"/>
    </linearGradient>
    <linearGradient gradientTransform="matrix(0.0039, 0.0, 0.0, 0.0583, 37.4, -47.5)" gradientUnits="userSpaceOnUse" id="decoration294-gradient3" spreadMethod="reflect" x1="-819.2" x2="819.2">
      <stop offset="0.13725490196078433" stop-color="#dfa86f"/>
      <stop offset="1.0" stop-color="#a9753e"/>
      <stop offset="1.0" stop-color="#f2bb83"/>
      <stop offset="1.0" stop-color="#d59a5d"/>
    </linearGradient>
    <linearGradient gradientTransform="matrix(0.0, 0.002, -0.0582, -4.0E-4, 12.45, -92.5)" gradientUnits="userSpaceOnUse" id="decoration294-gradient4" spreadMethod="reflect" x1="-819.2" x2="819.2">
      <stop offset="0.13725490196078433" stop-color="#a3703c"/>
      <stop offset="1.0" stop-color="#63411e"/>
      <stop offset="1.0" stop-color="#f2bb83"/>
      <stop offset="1.0" stop-color="#d59a5d"/>
    </linearGradient>
    <linearGradient gradientTransform="matrix(0.0, 0.0022, -0.0582, 1.0E-4, -42.15, -97.4)" gradientUnits="userSpaceOnUse" id="decoration294-gradient5" spreadMethod="reflect" x1="-819.2" x2="819.2">
      <stop offset="0.13725490196078433" stop-color="#dfa86f"/>
      <stop offset="1.0" stop-color="#a9753e"/>
      <stop offset="1.0" stop-color="#f2bb83"/>
      <stop offset="1.0" stop-color="#d59a5d"/>
    </linearGradient>
  </defs>
</svg>
