<?xml version="1.0" encoding="UTF-8" standalone="no"?>
<svg xmlns:ffdec="https://www.free-decompiler.com/flash" xmlns:xlink="http://www.w3.org/1999/xlink" ffdec:objectType="frame" height="87.05px" width="39.4px" xmlns="http://www.w3.org/2000/svg">
  <g transform="matrix(1.0, 0.0, 0.0, 1.0, 34.0, 0.05)">
    <use ffdec:characterId="1" height="87.05" transform="matrix(1.0, 0.0, 0.0, 1.0, -34.0, -0.05)" width="39.4" xlink:href="#decoration295-shape0"/>
  </g>
  <defs>
    <g id="decoration295-shape0" transform="matrix(1.0, 0.0, 0.0, 1.0, 34.0, 0.05)">
      <path d="M-10.2 0.0 Q-8.1 0.9 -6.3 1.25 L-4.3 1.4 Q-1.8 1.35 -0.1 0.0 L1.0 86.55 -3.3 86.9 Q-4.7 87.0 -7.35 85.9 -7.65 83.35 -7.35 80.8 L-9.0 80.8 Q-12.8 80.15 -10.7 72.35 L-12.35 71.85 Q-13.35 71.25 -13.55 70.15 -10.2 58.25 -10.35 49.4 -31.3 46.4 -33.95 0.0 L-28.1 1.35 -24.3 1.05 Q-23.05 0.7 -22.0 0.0 -18.85 1.25 -16.25 1.4 -13.75 1.55 -11.7 0.75 L-10.2 0.0" fill="url(#decoration295-gradient0)" fill-rule="evenodd" stroke="none"/>
      <path d="M-10.2 0.0 Q-8.1 0.9 -6.3 1.25 L-4.3 1.4 Q-1.8 1.35 -0.1 0.0 L1.0 86.55 -3.3 86.9 Q-4.7 87.0 -7.35 85.9 -7.65 83.35 -7.35 80.8 L-9.0 80.8 Q-12.8 80.15 -10.7 72.35 L-12.35 71.85 Q-13.35 71.25 -13.55 70.15 -10.2 58.25 -10.35 49.4 -31.3 46.4 -33.95 0.0 L-28.1 1.35 -24.3 1.05 Q-23.05 0.7 -22.0 0.0 -18.85 1.25 -16.25 1.4 -13.75 1.55 -11.7 0.75 L-10.2 0.0 Z" fill="none" stroke="#000000" stroke-linecap="round" stroke-linejoin="round" stroke-opacity="0.3019608" stroke-width="0.1"/>
      <path d="M1.0 86.55 L-3.3 86.9 Q-3.25 67.6 -2.2 48.9 L0.5 47.7 1.0 86.55 M-4.3 1.4 Q-4.3 23.6 -0.7 47.0 L-3.1 47.6 Q-7.15 24.05 -6.3 1.25 L-4.3 1.4 M-9.85 18.6 Q-7.4 38.4 -4.35 47.85 L-6.1 48.3 Q-15.7 26.55 -16.25 1.4 -13.75 1.55 -11.7 0.75 L-9.85 18.6 M-24.3 1.15 Q-24.05 12.65 -19.9 24.3 -15.9 35.8 -7.5 48.6 -8.45 48.65 -9.1 49.1 -32.05 21.45 -28.1 1.35 L-24.3 1.05 -24.3 1.15 M-5.05 62.4 Q-6.0 75.0 -7.35 80.8 L-9.0 80.8 -4.4 50.85 -5.05 62.4 M-10.7 72.35 L-12.35 71.85 -6.9 51.75 Q-7.75 62.4 -10.7 72.35" fill="#000000" fill-opacity="0.09803922" fill-rule="evenodd" stroke="none"/>
      <path d="M1.0 86.55 L-3.3 86.9 Q-3.25 67.6 -2.2 48.9 L0.5 47.7 1.0 86.55 M-9.85 18.6 Q-7.4 38.4 -4.35 47.85 L-6.1 48.3 Q-15.7 26.55 -16.25 1.4 -13.75 1.55 -11.7 0.75 L-9.85 18.6 M-4.3 1.4 Q-4.3 23.6 -0.7 47.0 L-3.1 47.6 Q-7.15 24.05 -6.3 1.25 L-4.3 1.4 M-24.3 1.15 Q-24.05 12.65 -19.9 24.3 -15.9 35.8 -7.5 48.6 -8.45 48.65 -9.1 49.1 -32.05 21.45 -28.1 1.35 L-24.3 1.05 -24.3 1.15 M-10.7 72.35 L-12.35 71.85 -6.9 51.75 Q-7.75 62.4 -10.7 72.35 M-5.05 62.4 Q-6.0 75.0 -7.35 80.8 L-9.0 80.8 -4.4 50.85 -5.05 62.4" fill="url(#decoration295-gradient1)" fill-rule="evenodd" stroke="none"/>
      <path d="M0.0 46.2 Q1.3 46.2 1.95 47.1 L1.85 47.3 2.0 47.1 Q4.9 47.95 5.35 50.35 5.3 51.6 4.3 51.4 4.95 52.25 4.95 52.9 4.85 54.8 3.15 53.05 1.7 50.7 1.25 48.15 L0.35 48.85 Q-1.65 49.95 -4.15 50.45 L-5.9 50.65 -8.7 50.55 -10.45 50.25 -7.3 50.1 -2.95 48.6 -2.65 48.6 Q-0.5 47.55 0.0 46.2 M4.3 51.4 L3.85 51.25 Q3.05 49.95 1.25 48.15 L1.35 48.05 1.8 47.4 1.85 47.35 1.85 47.3 1.85 47.35 1.8 47.4 1.35 48.05 1.25 48.15 Q3.05 49.95 3.85 51.25 L4.3 51.4 M0.35 48.85 L-2.65 48.6 0.35 48.85 M-5.9 50.65 L-7.3 50.1 -5.9 50.65" fill="#a07542" fill-rule="evenodd" stroke="none"/>
      <path d="M-10.45 50.25 L-10.85 49.65 Q-11.1 49.0 -10.6 48.55 L-8.85 48.8 -4.3 47.8 -2.3 47.1 -0.6 46.2 0.0 46.2 Q-0.5 47.55 -2.65 48.6 L-2.95 48.6 -4.3 47.8 -2.95 48.6 -7.3 50.1 -10.45 50.25 M-8.85 48.8 Q-8.5 49.5 -7.3 50.1 -8.5 49.5 -8.85 48.8" fill="url(#decoration295-gradient2)" fill-rule="evenodd" stroke="none"/>
      <path d="M0.0 46.2 Q1.3 46.2 1.95 47.1 L1.85 47.3 1.85 47.35 1.8 47.4 1.35 48.05 1.25 48.15 Q3.05 49.95 3.85 51.25 L4.3 51.4 Q4.95 52.25 4.95 52.9 4.85 54.8 3.15 53.05 1.7 50.7 1.25 48.15 L0.35 48.85 Q-1.65 49.95 -4.15 50.45 L-5.9 50.65 -8.7 50.55 -10.45 50.25 -10.85 49.65 Q-11.1 49.0 -10.6 48.55 L-8.85 48.8 -4.3 47.8 -2.3 47.1 -0.6 46.2 0.0 46.2 M2.0 47.1 Q4.9 47.95 5.35 50.35 5.3 51.6 4.3 51.4 M-2.65 48.6 L0.35 48.85 M-4.3 47.8 L-2.95 48.6 -2.65 48.6 M-7.3 50.1 L-5.9 50.65 M-7.3 50.1 Q-8.5 49.5 -8.85 48.8" fill="none" stroke="#000000" stroke-linecap="round" stroke-linejoin="round" stroke-opacity="0.3019608" stroke-width="0.1"/>
    </g>
    <linearGradient gradientTransform="matrix(0.0021, -0.0209, 0.0527, 0.0053, -2.2, 45.6)" gradientUnits="userSpaceOnUse" id="decoration295-gradient0" spreadMethod="pad" x1="-819.2" x2="819.2">
      <stop offset="0.0" stop-color="#ffffff" stop-opacity="0.69803923"/>
      <stop offset="1.0" stop-color="#ffffff" stop-opacity="0.6"/>
    </linearGradient>
    <linearGradient gradientTransform="matrix(0.0169, -0.0169, 0.0207, 0.0207, -15.05, 26.1)" gradientUnits="userSpaceOnUse" id="decoration295-gradient1" spreadMethod="pad" x1="-819.2" x2="819.2">
      <stop offset="0.0" stop-color="#000000" stop-opacity="0.0"/>
      <stop offset="0.5333333333333333" stop-color="#ffffff" stop-opacity="0.12941177"/>
      <stop offset="1.0" stop-color="#000000" stop-opacity="0.0"/>
    </linearGradient>
    <linearGradient gradientTransform="matrix(-0.0021, 0.0, 0.0, 0.001, -2.95, 48.5)" gradientUnits="userSpaceOnUse" id="decoration295-gradient2" spreadMethod="pad" x1="-819.2" x2="819.2">
      <stop offset="0.10588235294117647" stop-color="#d09b5c"/>
      <stop offset="1.0" stop-color="#b6854b"/>
    </linearGradient>
  </defs>
</svg>
