<?xml version="1.0" encoding="UTF-8" standalone="no"?>
<svg xmlns:ffdec="https://www.free-decompiler.com/flash" xmlns:xlink="http://www.w3.org/1999/xlink" ffdec:objectType="frame" height="52.4px" width="47.55px" xmlns="http://www.w3.org/2000/svg">
  <g transform="matrix(1.0, 0.0, 0.0, 1.0, 23.7, 50.8)">
    <use ffdec:characterId="71" height="52.4" transform="matrix(1.0, 0.0, 0.0, 1.0, -23.7, -50.8)" width="47.55" xlink:href="#decoration297-shape0"/>
  </g>
  <defs>
    <g id="decoration297-shape0" transform="matrix(1.0, 0.0, 0.0, 1.0, 23.7, 50.8)">
      <path d="M-4.35 -42.4 Q-2.55 -41.35 -1.75 -40.65 L-1.4 -41.4 Q-0.3 -40.7 0.45 -39.2 L0.7 -40.0 Q2.25 -38.3 2.6 -36.4 L3.25 -37.05 Q3.3 -35.55 2.5 -34.45 2.95 -34.25 3.75 -35.0 3.4 -33.35 2.4 -32.3 -1.5 -38.75 -4.35 -42.4" fill="#5c8622" fill-rule="evenodd" stroke="none"/>
      <path d="M2.4 -32.3 Q-0.1 -32.0 -2.5 -34.35 -1.4 -34.5 -1.3 -35.05 -2.65 -35.1 -3.8 -36.0 L-2.95 -36.15 Q-4.25 -37.55 -4.65 -39.85 L-3.85 -39.5 Q-4.55 -41.05 -4.35 -42.4 -1.5 -38.75 2.4 -32.3" fill="#4c7317" fill-rule="evenodd" stroke="none"/>
      <path d="M-4.35 -42.4 Q-2.55 -41.35 -1.75 -40.65 L-1.4 -41.4 Q-0.3 -40.7 0.45 -39.2 L0.7 -40.0 Q2.25 -38.3 2.6 -36.4 L3.25 -37.05 Q3.3 -35.55 2.5 -34.45 2.95 -34.25 3.75 -35.0 3.4 -33.35 2.4 -32.3 -0.1 -32.0 -2.5 -34.35 -1.4 -34.5 -1.3 -35.05 -2.65 -35.1 -3.8 -36.0 L-2.95 -36.15 Q-4.25 -37.55 -4.65 -39.85 L-3.85 -39.5 Q-4.55 -41.05 -4.35 -42.4 Z" fill="none" stroke="#000000" stroke-linecap="round" stroke-linejoin="round" stroke-opacity="0.4" stroke-width="0.05"/>
      <path d="M3.25 -32.55 Q3.75 -34.2 5.2 -35.55 4.9 -34.25 5.45 -33.9 6.05 -35.4 7.65 -36.2 L7.4 -35.2 12.2 -35.45 11.5 -34.65 Q13.5 -34.8 14.9 -34.0 L14.3 -33.3 17.65 -31.65 3.25 -32.55" fill="#5c8622" fill-rule="evenodd" stroke="none"/>
      <path d="M3.25 -32.55 L17.65 -31.65 Q16.45 -30.65 14.35 -30.45 L15.2 -29.8 Q12.65 -28.9 10.45 -29.35 L10.8 -28.35 Q9.15 -29.0 8.3 -30.4 7.8 -29.95 8.35 -28.75 4.4 -29.85 3.25 -32.55" fill="#4c7317" fill-rule="evenodd" stroke="none"/>
      <path d="M17.65 -31.65 L14.3 -33.3 14.9 -34.0 Q13.5 -34.8 11.5 -34.65 L12.2 -35.45 7.4 -35.2 7.65 -36.2 Q6.05 -35.4 5.45 -33.9 4.9 -34.25 5.2 -35.55 3.75 -34.2 3.25 -32.55 4.4 -29.85 8.35 -28.75 7.8 -29.95 8.3 -30.4 9.15 -29.0 10.8 -28.35 L10.45 -29.35 Q12.65 -28.9 15.2 -29.8 L14.35 -30.45 Q16.45 -30.65 17.65 -31.65 Z" fill="none" stroke="#000000" stroke-linecap="round" stroke-linejoin="round" stroke-opacity="0.4" stroke-width="0.05"/>
      <path d="M9.2 -44.3 Q-0.05 -27.7 1.05 -16.25 5.8 -25.8 14.5 -19.75 3.9 -24.85 0.65 -10.95 1.1 -6.0 1.05 0.25 L-1.1 0.25 Q-7.15 -3.95 -6.35 -6.2 -5.0 -2.8 -1.0 -1.5 -0.85 -7.35 -1.8 -12.8 -3.25 -17.85 -10.1 -21.25 -5.5 -20.25 -2.7 -17.3 -3.6 -25.35 -9.9 -33.9 -5.05 -28.55 -3.55 -24.9 L-1.4 -19.25 -0.4 -16.3 Q-1.0 -28.8 9.2 -44.3" fill="#496915" fill-rule="evenodd" stroke="none"/>
      <path d="M9.2 -44.3 Q-1.0 -28.8 -0.4 -16.3 L-1.4 -19.25 -3.55 -24.9 Q-5.05 -28.55 -9.9 -33.9 -3.6 -25.35 -2.7 -17.3 -5.5 -20.25 -10.1 -21.25 -3.25 -17.85 -1.8 -12.8 -0.85 -7.35 -1.0 -1.5 -5.0 -2.8 -6.35 -6.2 -7.15 -3.95 -1.1 0.25 L1.05 0.25 Q1.1 -6.0 0.65 -10.95 3.9 -24.85 14.5 -19.75 5.8 -25.8 1.05 -16.25 -0.05 -27.7 9.2 -44.3 Z" fill="none" stroke="#000000" stroke-linecap="round" stroke-linejoin="round" stroke-opacity="0.4" stroke-width="0.05"/>
      <path d="M1.25 -9.5 L1.45 -12.95 0.6 -12.8 Q0.65 -14.25 1.65 -15.8 L0.7 -15.6 Q1.5 -18.0 3.1 -19.4 L2.2 -19.65 Q3.55 -20.5 5.05 -20.35 5.0 -20.9 3.85 -21.25 L7.1 -21.4 Q3.15 -14.2 1.25 -9.5" fill="#5c8622" fill-rule="evenodd" stroke="none"/>
      <path d="M7.1 -21.4 Q8.8 -19.25 7.9 -15.65 7.1 -16.6 6.55 -16.4 7.3 -15.05 7.0 -13.45 L6.4 -14.2 Q5.8 -12.2 3.8 -10.65 L3.7 -11.55 Q2.6 -10.0 1.25 -9.5 3.15 -14.2 7.1 -21.4" fill="#4c7317" fill-rule="evenodd" stroke="none"/>
      <path d="M1.25 -9.5 L1.45 -12.95 0.6 -12.8 Q0.65 -14.25 1.65 -15.8 L0.7 -15.6 Q1.5 -18.0 3.1 -19.4 L2.2 -19.65 Q3.55 -20.5 5.05 -20.35 5.0 -20.9 3.85 -21.25 L7.1 -21.4 Q8.8 -19.25 7.9 -15.65 7.1 -16.6 6.55 -16.4 7.3 -15.05 7.0 -13.45 L6.4 -14.2 Q5.8 -12.2 3.8 -10.65 L3.7 -11.55 Q2.6 -10.0 1.25 -9.5 Z" fill="none" stroke="#000000" stroke-linecap="round" stroke-linejoin="round" stroke-opacity="0.4" stroke-width="0.05"/>
      <path d="M-13.9 -31.6 L-11.65 -29.15 -11.2 -29.85 Q-10.2 -28.9 -9.75 -27.15 L-9.3 -27.95 Q-8.2 -25.85 -8.3 -23.75 L-7.5 -24.3 Q-7.8 -22.75 -8.9 -21.85 -8.5 -21.45 -7.5 -22.05 -8.2 -20.45 -9.55 -19.65 -12.15 -20.0 -14.05 -23.0 -12.9 -22.9 -12.65 -23.45 -14.05 -23.75 -14.9 -25.0 L-14.05 -24.9 Q-15.05 -26.65 -14.85 -29.05 L-14.15 -28.55 Q-14.45 -30.3 -13.9 -31.6" fill="#4c7317" fill-rule="evenodd" stroke="none"/>
      <path d="M-13.9 -31.6 L-11.65 -29.15 -11.2 -29.85 Q-10.2 -28.9 -9.75 -27.15 L-9.3 -27.95 Q-8.2 -25.85 -8.3 -23.75 L-7.5 -24.3 Q-7.8 -22.75 -8.9 -21.85 -8.5 -21.45 -7.5 -22.05 -8.2 -20.45 -9.55 -19.65 -12.15 -20.0 -14.05 -23.0 -12.9 -22.9 -12.65 -23.45 -14.05 -23.75 -14.9 -25.0 L-14.05 -24.9 Q-15.05 -26.65 -14.85 -29.05 L-14.15 -28.55 Q-14.45 -30.3 -13.9 -31.6 Z" fill="none" stroke="#000000" stroke-linecap="round" stroke-linejoin="round" stroke-opacity="0.4" stroke-width="0.05"/>
      <path d="M13.95 -11.85 L13.0 -12.1 Q9.7 -12.55 9.2 -15.8 8.7 -19.05 12.1 -20.55 L12.0 -20.95 Q11.6 -22.45 13.45 -24.05 14.85 -25.4 17.05 -25.55 19.25 -27.2 20.35 -26.45 L20.75 -25.95 Q17.3 -25.05 16.05 -21.4 15.85 -19.3 13.0 -19.3 L12.65 -19.7 Q10.95 -14.75 16.8 -11.65 10.95 -14.75 12.65 -19.7 L12.1 -20.55 12.65 -19.7 13.0 -19.3 13.05 -19.2 Q14.05 -18.7 14.8 -18.5 16.35 -16.35 15.6 -14.7 15.15 -13.9 16.2 -12.7 17.25 -11.5 18.35 -12.6 18.0 -11.05 16.8 -11.65 15.55 -11.3 13.7 -12.55 L13.95 -11.85 M20.65 -25.4 L22.7 -24.75 Q23.45 -23.0 21.5 -22.5 19.55 -22.0 20.55 -20.85 21.55 -19.65 21.2 -17.35 21.35 -15.5 18.75 -14.55 18.7 -14.9 19.5 -16.2 21.05 -18.85 18.45 -20.95 L19.0 -23.0 Q19.35 -24.2 19.8 -24.6 L20.65 -25.4 M17.65 -19.3 Q18.85 -18.8 17.9 -16.2 17.4 -14.8 18.75 -14.55 L18.85 -14.45 Q19.05 -14.1 20.4 -15.0 17.4 -11.25 16.75 -15.05 16.4 -17.25 14.8 -18.5 L15.8 -18.35 Q16.95 -18.35 17.65 -19.3" fill="#de8545" fill-rule="evenodd" stroke="none"/>
      <path d="M20.75 -25.95 L20.65 -25.4 19.8 -24.6 Q19.35 -24.2 19.0 -23.0 L18.45 -20.95 18.5 -20.9 Q18.2 -19.9 17.65 -19.3 18.2 -19.9 18.5 -20.9 L18.45 -20.95 Q21.05 -18.85 19.5 -16.2 18.7 -14.9 18.75 -14.55 17.4 -14.8 17.9 -16.2 18.85 -18.8 17.65 -19.3 16.95 -18.35 15.8 -18.35 L14.8 -18.5 Q16.4 -17.25 16.75 -15.05 17.4 -11.25 20.4 -15.0 19.05 -14.1 18.85 -14.45 L18.75 -14.55 Q21.35 -15.5 21.2 -17.35 21.55 -19.65 20.55 -20.85 19.55 -22.0 21.5 -22.5 23.45 -23.0 22.7 -24.75 24.6 -23.7 23.25 -21.4 21.65 -20.1 22.15 -17.95 22.3 -15.9 20.4 -15.0 19.15 -10.8 16.8 -10.85 16.8 -9.6 16.1 -9.7 15.35 -9.85 15.2 -10.8 15.05 -11.35 13.95 -11.85 L13.7 -12.55 Q15.55 -11.3 16.8 -11.65 L16.8 -10.85 16.8 -11.65 Q18.0 -11.05 18.35 -12.6 17.25 -11.5 16.2 -12.7 15.15 -13.9 15.6 -14.7 16.35 -16.35 14.8 -18.5 14.05 -18.7 13.05 -19.2 L13.0 -19.3 Q15.85 -19.3 16.05 -21.4 17.3 -25.05 20.75 -25.95" fill="#f2a460" fill-rule="evenodd" stroke="none"/>
      <path d="M13.95 -11.85 L13.0 -12.1 Q9.7 -12.55 9.2 -15.8 8.7 -19.05 12.1 -20.55 L12.0 -20.95 Q11.6 -22.45 13.45 -24.05 14.85 -25.4 17.05 -25.55 19.25 -27.2 20.35 -26.45 L20.75 -25.95 20.65 -25.4 22.7 -24.75 Q24.6 -23.7 23.25 -21.4 21.65 -20.1 22.15 -17.95 22.3 -15.9 20.4 -15.0 19.15 -10.8 16.8 -10.85 16.8 -9.6 16.1 -9.7 15.35 -9.85 15.2 -10.8 15.05 -11.35 13.95 -11.85 M16.8 -11.65 Q10.95 -14.75 12.65 -19.7 L12.1 -20.55 M18.45 -20.95 L19.0 -23.0 Q19.35 -24.2 19.8 -24.6 L20.65 -25.4 M18.45 -20.95 L18.5 -20.9 Q18.2 -19.9 17.65 -19.3 16.95 -18.35 15.8 -18.35 L14.8 -18.5 Q16.4 -17.25 16.75 -15.05 17.4 -11.25 20.4 -15.0 19.05 -14.1 18.85 -14.45 L18.75 -14.55 Q18.7 -14.9 19.5 -16.2 21.05 -18.85 18.45 -20.95 M13.0 -19.3 L12.65 -19.7 M14.8 -18.5 Q14.05 -18.7 13.05 -19.2 L13.0 -19.3 M16.8 -10.85 L16.8 -11.65 Q18.0 -11.05 18.35 -12.6" fill="none" stroke="#000000" stroke-linecap="round" stroke-linejoin="round" stroke-opacity="0.4" stroke-width="0.1"/>
      <path d="M-8.7 -42.9 L-8.0 -42.85 Q-6.85 -42.2 -7.2 -39.5 -6.15 -37.55 -6.65 -35.6 -7.15 -33.2 -8.6 -32.8 L-9.0 -32.7 Q-8.6 -29.05 -11.7 -27.85 -14.8 -26.6 -16.7 -29.25 L-17.5 -29.95 -16.75 -30.05 Q-18.8 -31.05 -19.1 -32.3 -20.2 -33.05 -19.0 -34.15 -19.4 -32.65 -17.8 -32.3 -16.3 -32.05 -15.8 -32.8 -14.8 -34.25 -12.15 -34.05 L-10.65 -32.85 -10.55 -32.85 Q-12.0 -35.35 -10.25 -36.55 -7.7 -39.5 -8.7 -42.9 M-10.65 -44.0 L-9.1 -42.55 -9.3 -41.45 Q-9.45 -40.8 -10.35 -40.0 L-11.85 -38.45 -11.9 -38.45 Q-14.95 -39.6 -16.4 -36.95 -17.2 -35.65 -17.6 -35.5 -18.0 -38.2 -16.35 -38.95 -14.5 -40.45 -13.0 -40.2 -11.5 -39.95 -12.0 -41.8 -12.55 -43.75 -10.65 -44.0 M-9.0 -32.7 L-10.05 -32.8 -10.55 -32.85 -10.05 -32.8 -9.0 -32.7 M-12.9 -36.95 Q-13.3 -35.8 -12.75 -34.8 L-12.15 -34.05 -16.1 -33.95 Q-19.75 -32.6 -17.95 -37.15 -18.05 -35.55 -17.65 -35.5 L-17.6 -35.5 Q-16.55 -34.4 -15.65 -35.6 -13.85 -37.65 -12.9 -36.95 M-10.05 -32.8 Q-13.5 -28.8 -19.1 -32.3 -13.5 -28.8 -10.05 -32.8" fill="#de8545" fill-rule="evenodd" stroke="none"/>
      <path d="M-17.5 -29.95 Q-18.4 -30.65 -19.05 -30.5 -19.85 -30.15 -20.4 -30.75 -20.85 -31.35 -19.7 -32.0 -21.0 -33.95 -17.95 -37.15 -18.1 -39.2 -16.3 -40.1 -14.2 -40.7 -13.85 -42.8 -12.5 -45.1 -10.65 -44.0 -12.55 -43.75 -12.0 -41.8 -11.5 -39.95 -13.0 -40.2 -14.5 -40.45 -16.35 -38.95 -18.0 -38.2 -17.6 -35.5 -17.2 -35.65 -16.4 -36.95 -14.95 -39.6 -11.9 -38.45 L-11.85 -38.45 -10.35 -40.0 Q-9.45 -40.8 -9.3 -41.45 L-9.1 -42.55 -8.7 -42.9 Q-7.7 -39.5 -10.25 -36.55 -12.0 -35.35 -10.55 -32.85 L-10.65 -32.85 -12.15 -34.05 -12.75 -34.8 Q-13.3 -35.8 -12.9 -36.95 -13.85 -37.65 -15.65 -35.6 -16.55 -34.4 -17.6 -35.5 L-17.65 -35.5 Q-18.05 -35.55 -17.95 -37.15 -19.75 -32.6 -16.1 -33.95 L-12.15 -34.05 Q-14.8 -34.25 -15.8 -32.8 -16.3 -32.05 -17.8 -32.3 -19.4 -32.65 -19.0 -34.15 -20.2 -33.05 -19.1 -32.3 L-19.7 -32.0 -19.1 -32.3 Q-18.8 -31.05 -16.75 -30.05 L-17.5 -29.95 M-12.9 -36.95 L-11.9 -38.45 -12.9 -36.95" fill="#f2a460" fill-rule="evenodd" stroke="none"/>
      <path d="M-8.7 -42.9 L-8.0 -42.85 Q-6.85 -42.2 -7.2 -39.5 -6.15 -37.55 -6.65 -35.6 -7.15 -33.2 -8.6 -32.8 L-9.0 -32.7 Q-8.6 -29.05 -11.7 -27.85 -14.8 -26.6 -16.7 -29.25 L-17.5 -29.95 Q-18.4 -30.65 -19.05 -30.5 -19.85 -30.15 -20.4 -30.75 -20.85 -31.35 -19.7 -32.0 -21.0 -33.95 -17.95 -37.15 -18.1 -39.2 -16.3 -40.1 -14.2 -40.7 -13.85 -42.8 -12.5 -45.1 -10.65 -44.0 L-9.1 -42.55 -8.7 -42.9 M-10.55 -32.85 L-10.05 -32.8 -9.0 -32.7 M-17.6 -35.5 Q-17.2 -35.65 -16.4 -36.95 -14.95 -39.6 -11.9 -38.45 L-11.85 -38.45 -10.35 -40.0 Q-9.45 -40.8 -9.3 -41.45 L-9.1 -42.55 M-12.9 -36.95 Q-13.3 -35.8 -12.75 -34.8 L-12.15 -34.05 -10.65 -32.85 -10.55 -32.85 M-17.6 -35.5 L-17.65 -35.5 Q-18.05 -35.55 -17.95 -37.15 -19.75 -32.6 -16.1 -33.95 L-12.15 -34.05 M-19.0 -34.15 Q-20.2 -33.05 -19.1 -32.3 -13.5 -28.8 -10.05 -32.8 M-19.1 -32.3 L-19.7 -32.0 M-11.9 -38.45 L-12.9 -36.95" fill="none" stroke="#000000" stroke-linecap="round" stroke-linejoin="round" stroke-opacity="0.4" stroke-width="0.1"/>
      <path d="M-8.6 -4.25 L-9.0 -4.95 Q-7.7 -4.65 -6.85 -3.75 -6.55 -4.1 -7.05 -4.95 -5.65 -4.3 -4.95 -3.15 -5.2 -0.85 -7.85 0.75 -7.8 -0.2 -8.25 -0.45 -8.5 0.8 -9.65 1.6 L-9.55 0.8 Q-11.1 1.65 -13.25 1.45 L-12.75 0.85 -15.45 0.7 -13.3 -1.3 -13.9 -1.7 Q-13.05 -2.6 -11.5 -2.95 L-12.2 -3.35 Q-10.35 -4.35 -8.6 -4.25" fill="#4c7317" fill-rule="evenodd" stroke="none"/>
      <path d="M-8.6 -4.25 L-9.0 -4.95 Q-7.7 -4.65 -6.85 -3.75 -6.55 -4.1 -7.05 -4.95 -5.65 -4.3 -4.95 -3.15 -5.2 -0.85 -7.85 0.75 -7.8 -0.2 -8.25 -0.45 -8.5 0.8 -9.65 1.6 L-9.55 0.8 Q-11.1 1.65 -13.25 1.45 L-12.75 0.85 -15.45 0.7 -13.3 -1.3 -13.9 -1.7 Q-13.05 -2.6 -11.5 -2.95 L-12.2 -3.35 Q-10.35 -4.35 -8.6 -4.25 Z" fill="none" stroke="#000000" stroke-linecap="round" stroke-linejoin="round" stroke-opacity="0.4" stroke-width="0.05"/>
      <path d="M-8.95 -19.9 Q-6.75 -18.15 -6.75 -14.45 -7.7 -15.2 -8.25 -14.85 -7.15 -13.75 -7.05 -12.15 L-7.8 -12.7 Q-7.9 -10.6 -9.35 -8.6 L-9.75 -9.45 Q-10.35 -7.7 -11.5 -6.8 -10.95 -11.9 -8.95 -19.9" fill="#4c7317" fill-rule="evenodd" stroke="none"/>
      <path d="M-11.5 -6.8 L-12.25 -10.2 -13.05 -9.85 Q-13.4 -11.25 -12.8 -13.0 -13.2 -12.75 -13.65 -12.55 -13.55 -15.1 -12.3 -16.85 L-13.25 -16.85 Q-12.15 -18.0 -10.65 -18.25 -10.9 -18.85 -12.1 -18.85 -10.55 -19.8 -8.95 -19.9 -10.95 -11.9 -11.5 -6.8" fill="#5c8622" fill-rule="evenodd" stroke="none"/>
      <path d="M-8.95 -19.9 Q-6.75 -18.15 -6.75 -14.45 -7.7 -15.2 -8.25 -14.85 -7.15 -13.75 -7.05 -12.15 L-7.8 -12.7 Q-7.9 -10.6 -9.35 -8.6 L-9.75 -9.45 Q-10.35 -7.7 -11.5 -6.8 L-12.25 -10.2 -13.05 -9.85 Q-13.4 -11.25 -12.8 -13.0 -13.2 -12.75 -13.65 -12.55 -13.55 -15.1 -12.3 -16.85 L-13.25 -16.85 Q-12.15 -18.0 -10.65 -18.25 -10.9 -18.85 -12.1 -18.85 -10.55 -19.8 -8.95 -19.9 Z" fill="none" stroke="#000000" stroke-linecap="round" stroke-linejoin="round" stroke-opacity="0.4" stroke-width="0.05"/>
      <path d="M-23.7 -25.15 L-19.6 -25.45 -19.85 -26.4 Q-18.15 -26.55 -16.2 -25.6 L-16.6 -26.65 Q-13.65 -26.1 -11.75 -24.4 L-11.6 -25.45 Q-10.4 -24.05 -10.4 -22.2 -9.7 -22.35 -9.5 -23.75 -8.6 -21.75 -8.8 -19.9 -17.85 -23.6 -23.7 -25.15" fill="#5c8622" fill-rule="evenodd" stroke="none"/>
      <path d="M-8.8 -19.9 Q-11.15 -17.65 -15.55 -18.25 -14.5 -19.25 -14.85 -19.9 -16.25 -18.85 -18.2 -18.95 L-17.4 -19.75 Q-19.85 -20.2 -22.0 -22.3 L-20.95 -22.6 Q-22.85 -23.7 -23.7 -25.15 -17.85 -23.6 -8.8 -19.9" fill="#4c7317" fill-rule="evenodd" stroke="none"/>
      <path d="M-23.7 -25.15 L-19.6 -25.45 -19.85 -26.4 Q-18.15 -26.55 -16.2 -25.6 L-16.6 -26.65 Q-13.65 -26.1 -11.75 -24.4 L-11.6 -25.45 Q-10.4 -24.05 -10.4 -22.2 -9.7 -22.35 -9.5 -23.75 -8.6 -21.75 -8.8 -19.9 -11.15 -17.65 -15.55 -18.25 -14.5 -19.25 -14.85 -19.9 -16.25 -18.85 -18.2 -18.95 L-17.4 -19.75 Q-19.85 -20.2 -22.0 -22.3 L-20.95 -22.6 Q-22.85 -23.7 -23.7 -25.15 Z" fill="none" stroke="#000000" stroke-linecap="round" stroke-linejoin="round" stroke-opacity="0.4" stroke-width="0.05"/>
      <path d="M6.2 -45.4 L6.1 -45.5 6.2 -46.05 Q6.25 -46.8 6.65 -47.6 7.65 -49.65 12.75 -50.75 13.5 -48.9 13.55 -47.4 12.7 -43.45 11.0 -45.45 L11.85 -46.9 Q12.55 -48.5 12.75 -50.75 12.55 -48.5 11.85 -46.9 L11.0 -45.45 Q8.4 -44.2 6.2 -45.4 M6.2 -46.05 Q9.1 -49.35 11.85 -46.9 9.1 -49.35 6.2 -46.05" fill="#f2a460" fill-rule="evenodd" stroke="none"/>
      <path d="M13.55 -47.4 Q13.8 -44.45 11.5 -42.9 8.95 -41.0 6.85 -43.7 L6.65 -44.0 Q6.3 -44.6 6.2 -45.4 8.4 -44.2 11.0 -45.45 12.7 -43.45 13.55 -47.4 M6.85 -43.7 Q9.45 -43.6 11.0 -45.45 9.45 -43.6 6.85 -43.7" fill="#de8545" fill-rule="evenodd" stroke="none"/>
      <path d="M11.0 -45.45 Q9.45 -43.6 6.85 -43.7 M12.75 -50.75 Q12.55 -48.5 11.85 -46.9 L11.0 -45.45 M11.85 -46.9 Q9.1 -49.35 6.2 -46.05" fill="none" stroke="#000000" stroke-linecap="round" stroke-linejoin="round" stroke-opacity="0.3882353" stroke-width="0.1"/>
      <path d="M13.55 -47.4 Q13.8 -44.45 11.5 -42.9 8.95 -41.0 6.85 -43.7 L6.65 -44.0 Q6.3 -44.6 6.2 -45.4 M6.1 -45.5 L6.2 -46.05 Q6.25 -46.8 6.65 -47.6 7.65 -49.65 12.75 -50.75 13.5 -48.9 13.55 -47.4" fill="none" stroke="#000000" stroke-linecap="round" stroke-linejoin="round" stroke-opacity="0.4" stroke-width="0.1"/>
      <path d="M4.85 -45.35 Q5.15 -47.65 8.9 -49.4 5.75 -46.75 7.4 -43.9 L9.6 -46.3 9.1 -43.75 12.8 -44.4 12.35 -42.9 Q10.1 -40.9 7.7 -42.1 L8.25 -42.95 6.85 -42.2 Q5.2 -43.85 4.85 -45.35" fill="#657e06" fill-rule="evenodd" stroke="none"/>
      <path d="M4.85 -45.35 Q5.2 -43.85 6.85 -42.2 L8.25 -42.95 7.7 -42.1 Q10.1 -40.9 12.35 -42.9 11.15 -40.05 8.55 -40.4 6.2 -39.0 6.15 -41.7 4.6 -43.65 4.85 -45.35" fill="#4a5d00" fill-rule="evenodd" stroke="none"/>
      <path d="M12.35 -42.9 L12.8 -44.4 9.1 -43.75 9.6 -46.3 7.4 -43.9 Q5.75 -46.75 8.9 -49.4 5.15 -47.65 4.85 -45.35 4.6 -43.65 6.15 -41.7 6.2 -39.0 8.55 -40.4 11.15 -40.05 12.35 -42.9 Z" fill="none" stroke="#000000" stroke-linecap="round" stroke-linejoin="round" stroke-opacity="0.4" stroke-width="0.1"/>
    </g>
  </defs>
</svg>
