<?xml version="1.0" encoding="UTF-8" standalone="no"?>
<svg xmlns:ffdec="https://www.free-decompiler.com/flash" xmlns:xlink="http://www.w3.org/1999/xlink" ffdec:objectType="frame" height="26.95px" width="20.5px" xmlns="http://www.w3.org/2000/svg">
  <g transform="matrix(1.0, 0.0, 0.0, 1.0, 6.2, 26.9)">
    <use ffdec:characterId="1016" height="26.95" transform="matrix(1.0, 0.0, 0.0, 1.0, -6.2, -26.9)" width="20.5" xlink:href="#decoration299-shape0"/>
  </g>
  <defs>
    <g id="decoration299-shape0" transform="matrix(1.0, 0.0, 0.0, 1.0, 6.2, 26.9)">
      <path d="M2.95 -11.7 L3.6 -12.85 5.95 -11.5 4.6 -9.2 5.15 -8.85 8.5 -7.9 Q9.15 -7.9 9.4 -7.35 9.4 -5.3 7.95 -3.25 6.9 -1.65 5.1 -0.1 L1.55 -0.1 Q2.4 -2.35 2.5 -5.3 L2.15 -4.75 Q4.35 -8.7 2.95 -11.7 M5.15 -8.85 L2.5 -5.3 5.15 -8.85 M4.3 -9.35 L4.6 -9.2 4.3 -9.35" fill="#777777" fill-rule="evenodd" stroke="none"/>
      <path d="M-2.45 -0.1 L-5.8 -0.1 Q-6.15 -1.4 -6.05 -3.15 -5.7 -7.6 -4.35 -10.35 -3.65 -11.9 -2.6 -12.85 0.2 -8.7 -2.45 -0.1 M1.45 -10.25 Q3.7 -8.4 0.3 -2.6 -1.1 -1.8 -0.95 -4.25 L1.45 -10.25" fill="#c5c5c5" fill-rule="evenodd" stroke="none"/>
      <path d="M1.55 -0.1 L-2.45 -0.1 Q0.2 -8.7 -2.6 -12.85 L-1.55 -13.65 Q-0.9 -13.7 -0.55 -13.1 L1.65 -10.9 2.25 -10.55 2.95 -11.7 Q4.35 -8.7 2.15 -4.75 L2.5 -5.3 Q2.4 -2.35 1.55 -0.1 M1.45 -10.25 L1.65 -10.9 1.45 -10.25 -0.95 -4.25 Q-1.1 -1.8 0.3 -2.6 3.7 -8.4 1.45 -10.25 M2.25 -10.55 L2.55 -10.35 2.25 -10.55 M2.15 -4.75 L1.0 -3.15 0.3 -2.6 1.0 -3.15 2.15 -4.75" fill="#999999" fill-rule="evenodd" stroke="none"/>
      <path d="M2.95 -11.7 L3.6 -12.85 5.95 -11.5 4.6 -9.2 5.15 -8.85 8.5 -7.9 Q9.15 -7.9 9.4 -7.35 9.4 -5.3 7.95 -3.25 6.9 -1.65 5.1 -0.1 L1.55 -0.1 -2.45 -0.1 -5.8 -0.1 Q-6.15 -1.4 -6.05 -3.15 -5.7 -7.6 -4.35 -10.35 -3.65 -11.9 -2.6 -12.85 L-1.55 -13.65 Q-0.9 -13.7 -0.55 -13.1 L1.65 -10.9 2.25 -10.55 2.95 -11.7 M2.15 -4.75 L2.5 -5.3 5.15 -8.85 M2.55 -10.35 L2.25 -10.55 M1.65 -10.9 L1.45 -10.25 -0.95 -4.25 Q-1.1 -1.8 0.3 -2.6 L1.0 -3.15 2.15 -4.75 M4.6 -9.2 L4.3 -9.35" fill="none" stroke="#000000" stroke-linecap="round" stroke-linejoin="round" stroke-opacity="0.29803923" stroke-width="0.30000000000000004"/>
      <path d="M3.7 -15.75 L10.05 -26.7 10.25 -26.75 Q10.7 -26.55 10.85 -25.2 L10.7 -24.8 10.55 -24.6 10.5 -24.0 Q9.0 -19.15 6.05 -14.55 4.6 -14.5 3.7 -15.75" fill="url(#decoration299-gradient0)" fill-rule="evenodd" stroke="none"/>
      <path d="M10.5 -24.0 L10.55 -24.6 10.7 -24.8 11.1 -24.95 11.65 -24.9 12.05 -24.4 11.9 -23.8 11.5 -23.4 10.85 -23.45 Q10.55 -23.6 10.55 -23.95 L10.5 -24.0" fill="#953a00" fill-rule="evenodd" stroke="none"/>
      <path d="M3.7 -15.75 Q4.6 -14.5 6.05 -14.55 9.0 -19.15 10.5 -24.0 L10.55 -23.95 Q10.55 -23.6 10.85 -23.45 L11.5 -23.4 11.9 -23.8 12.05 -24.4 11.65 -24.9 11.1 -24.95 10.7 -24.8 10.85 -25.2 Q10.7 -26.55 10.25 -26.75 13.1 -26.9 14.15 -24.3 L7.25 -12.3 3.1 -14.65 3.7 -15.75" fill="#e25800" fill-rule="evenodd" stroke="none"/>
      <path d="M7.25 -12.3 L8.05 -11.8 Q8.45 -11.05 7.35 -10.0 L1.45 -13.4 Q1.15 -14.45 2.35 -15.1 L3.1 -14.65 7.25 -12.3" fill="#ff6809" fill-rule="evenodd" stroke="none"/>
      <path d="M10.25 -26.75 L10.05 -26.7 3.7 -15.75 3.1 -14.65 2.35 -15.1 Q1.15 -14.45 1.45 -13.4 L7.35 -10.0 Q8.45 -11.05 8.05 -11.8 L7.25 -12.3 3.1 -14.65 M10.25 -26.75 Q13.1 -26.9 14.15 -24.3 L7.25 -12.3" fill="none" stroke="#000000" stroke-linecap="round" stroke-linejoin="round" stroke-opacity="0.29803923" stroke-width="0.30000000000000004"/>
      <path d="M10.5 -24.0 L10.55 -24.6 10.7 -24.8 11.1 -24.95 11.65 -24.9 12.05 -24.4 11.9 -23.8 11.5 -23.4 10.85 -23.45 Q10.55 -23.6 10.55 -23.95 L10.5 -24.0 Z" fill="none" stroke="#000000" stroke-linecap="round" stroke-linejoin="round" stroke-opacity="0.29803923" stroke-width="0.1"/>
    </g>
    <linearGradient gradientTransform="matrix(0.0015, 9.0E-4, 0.0034, -0.0067, 8.2, -21.45)" gradientUnits="userSpaceOnUse" id="decoration299-gradient0" spreadMethod="pad" x1="-819.2" x2="819.2">
      <stop offset="0.0" stop-color="#ff6809"/>
      <stop offset="0.396078431372549" stop-color="#ff8335"/>
      <stop offset="0.9764705882352941" stop-color="#ff6809"/>
    </linearGradient>
  </defs>
</svg>
