<?xml version="1.0" encoding="UTF-8" standalone="no"?>
<svg xmlns:xlink="http://www.w3.org/1999/xlink" height="17.8px" width="15.05px" xmlns="http://www.w3.org/2000/svg">
  <g transform="matrix(1.0, 0.0, 0.0, 1.0, 7.8, 17.6)">
    <use height="17.8" transform="matrix(1.0, 0.0, 0.0, 1.0, -7.8, -17.6)" width="15.05" xlink:href="#decoration3-shape0"/>
  </g>
  <defs>
    <g id="decoration3-shape0" transform="matrix(1.0, 0.0, 0.0, 1.0, 7.8, 17.6)">
      <path d="M1.05 -13.9 L-1.6 -14.4 -3.7 -16.55 Q-1.55 -17.9 0.8 -17.05 2.0 -16.6 2.75 -15.9 L1.05 -13.9" fill="#398582" fill-rule="evenodd" stroke="none"/>
      <path d="M1.05 -13.9 L-1.6 -14.4 -3.7 -16.55 Q-1.55 -17.9 0.8 -17.05 2.0 -16.6 2.75 -15.9 L1.05 -13.9 Z" fill="none" stroke="#000000" stroke-linecap="round" stroke-linejoin="round" stroke-opacity="0.3882353" stroke-width="0.4"/>
      <path d="M-7.3 -13.8 Q-6.9 -16.4 -5.1 -16.55 -3.7 -16.4 -2.75 -15.9 L-1.85 -14.7 -4.3 -15.25 Q-3.35 -14.45 -3.4 -13.85 L-7.3 -13.8" fill="#67afac" fill-rule="evenodd" stroke="none"/>
      <path d="M-7.3 -13.8 L-3.4 -13.85 Q-3.35 -14.45 -4.3 -15.25 L-1.85 -14.7 -2.75 -15.9 -1.35 -14.8 -3.0 -13.2 -7.3 -13.8" fill="#3c837f" fill-rule="evenodd" stroke="none"/>
      <path d="M-2.75 -15.9 Q-3.7 -16.4 -5.1 -16.55 -6.9 -16.4 -7.3 -13.8 M-2.75 -15.9 L-1.35 -14.8 -3.0 -13.2 -7.3 -13.8" fill="none" stroke="#000000" stroke-linecap="round" stroke-linejoin="round" stroke-opacity="0.3882353" stroke-width="0.4"/>
      <path d="M3.05 -15.8 Q7.25 -14.5 6.4 -12.75 5.8 -12.25 1.15 -12.75 L0.85 -14.3 2.05 -15.25 3.05 -15.8" fill="#428c89" fill-rule="evenodd" stroke="none"/>
      <path d="M3.05 -15.8 Q7.25 -14.5 6.4 -12.75 5.8 -12.25 1.15 -12.75 L0.85 -14.3 2.05 -15.25 3.05 -15.8 Z" fill="none" stroke="#000000" stroke-linecap="round" stroke-linejoin="round" stroke-opacity="0.3882353" stroke-width="0.4"/>
      <path d="M1.9 -13.9 L2.65 -12.85 Q2.0 -11.5 -0.6 -12.5 -3.1 -13.45 -2.75 -14.25 L-1.95 -14.85 Q-1.45 -14.05 -0.75 -13.7 L1.9 -13.9" fill="#c6b28a" fill-rule="evenodd" stroke="none"/>
      <path d="M-1.95 -14.85 Q0.25 -15.2 1.9 -13.9 L-0.75 -13.7 Q-1.45 -14.05 -1.95 -14.85" fill="#f7f1e5" fill-rule="evenodd" stroke="none"/>
      <path d="M1.9 -13.9 L2.65 -12.85 Q2.0 -11.5 -0.6 -12.5 -3.1 -13.45 -2.75 -14.25 L-1.95 -14.85 Q0.25 -15.2 1.9 -13.9 Z" fill="none" stroke="#000000" stroke-linecap="round" stroke-linejoin="round" stroke-opacity="0.3882353" stroke-width="0.4"/>
      <path d="M-0.05 -0.05 Q-1.3 -5.55 -0.65 -11.6 -0.9 -5.35 0.7 -0.1 L-0.05 -0.05" fill="#657e06" fill-rule="evenodd" stroke="none"/>
      <path d="M-0.05 -0.05 L0.7 -0.1 Q-0.9 -5.35 -0.65 -11.6 -1.3 -5.55 -0.05 -0.05 Z" fill="none" stroke="#000000" stroke-linecap="round" stroke-linejoin="round" stroke-opacity="0.3882353" stroke-width="0.4"/>
      <path d="M5.85 -9.75 Q4.6 -9.0 2.2 -9.25 0.3 -10.65 0.35 -12.65 1.65 -13.55 3.05 -13.3 L6.65 -12.05 Q3.85 -12.9 2.1 -12.6 L3.35 -11.55 1.1 -12.1 1.65 -10.8 2.2 -9.7 Q3.6 -9.35 5.85 -9.75" fill="#549a97" fill-rule="evenodd" stroke="none"/>
      <path d="M6.65 -12.05 L7.05 -11.8 Q6.9 -10.4 5.85 -9.75 3.6 -9.35 2.2 -9.7 L1.65 -10.8 1.1 -12.1 3.35 -11.55 2.1 -12.6 Q3.85 -12.9 6.65 -12.05" fill="#82c2bf" fill-rule="evenodd" stroke="none"/>
      <path d="M5.85 -9.75 Q4.6 -9.0 2.2 -9.25 0.3 -10.65 0.35 -12.65 1.65 -13.55 3.05 -13.3 L6.65 -12.05 7.05 -11.8 Q6.9 -10.4 5.85 -9.75 Z" fill="none" stroke="#000000" stroke-linecap="round" stroke-linejoin="round" stroke-opacity="0.3882353" stroke-width="0.4"/>
      <path d="M-5.95 -13.9 Q-4.55 -14.15 -2.65 -13.9 L0.85 -12.7 Q1.75 -10.4 0.45 -9.25 1.1 -11.3 -1.15 -12.35 -2.4 -12.5 -4.25 -11.6 -3.15 -12.7 -1.75 -12.95 -3.25 -13.8 -5.95 -13.9" fill="#499390" fill-rule="evenodd" stroke="none"/>
      <path d="M0.45 -9.25 Q-3.1 -9.25 -5.4 -10.05 -7.4 -11.3 -7.6 -13.25 L-5.95 -13.9 Q-3.25 -13.8 -1.75 -12.95 -3.15 -12.7 -4.25 -11.6 -2.4 -12.5 -1.15 -12.35 1.1 -11.3 0.45 -9.25" fill="#82c2bf" fill-rule="evenodd" stroke="none"/>
      <path d="M-5.95 -13.9 Q-4.55 -14.15 -2.65 -13.9 L0.85 -12.7 Q1.75 -10.4 0.45 -9.25 -3.1 -9.25 -5.4 -10.05 -7.4 -11.3 -7.6 -13.25 L-5.95 -13.9 Z" fill="none" stroke="#000000" stroke-linecap="round" stroke-linejoin="round" stroke-opacity="0.3882353" stroke-width="0.4"/>
      <path d="M-0.15 -0.2 L-0.65 -0.2 -6.0 -5.7 Q-6.35 -6.75 -4.05 -6.5 -0.4 -5.35 0.4 -0.2 L-0.15 -0.2 Q-1.35 -3.5 -4.25 -5.7 -1.35 -3.5 -0.15 -0.2" fill="url(#decoration3-gradient0)" fill-rule="evenodd" stroke="none"/>
      <path d="M-0.15 -0.2 Q-1.35 -3.5 -4.25 -5.7" fill="none" stroke="#000000" stroke-linecap="round" stroke-linejoin="round" stroke-opacity="0.23137255" stroke-width="0.4"/>
      <path d="M-0.15 -0.2 L0.4 -0.2 Q-0.4 -5.35 -4.05 -6.5 -6.35 -6.75 -6.0 -5.7 L-0.65 -0.2 -0.15 -0.2 Z" fill="none" stroke="#000000" stroke-linecap="round" stroke-linejoin="round" stroke-opacity="0.3882353" stroke-width="0.4"/>
      <path d="M4.35 -3.1 L0.25 0.0 Q-0.05 -2.95 2.6 -3.55 4.4 -3.7 4.35 -3.1 M3.05 -3.1 Q1.3 -1.9 0.25 0.0 1.3 -1.9 3.05 -3.1" fill="url(#decoration3-gradient1)" fill-rule="evenodd" stroke="none"/>
      <path d="M4.35 -3.1 L0.25 0.0 Q-0.05 -2.95 2.6 -3.55 4.4 -3.7 4.35 -3.1" fill="none" stroke="#000000" stroke-linecap="round" stroke-linejoin="round" stroke-opacity="0.3882353" stroke-width="0.4"/>
      <path d="M0.25 0.0 Q1.3 -1.9 3.05 -3.1" fill="none" stroke="#000000" stroke-linecap="round" stroke-linejoin="round" stroke-opacity="0.23137255" stroke-width="0.4"/>
    </g>
    <linearGradient gradientTransform="matrix(0.0021, 0.0021, -0.0024, 0.0033, -2.45, -3.25)" gradientUnits="userSpaceOnUse" id="decoration3-gradient0" spreadMethod="pad" x1="-819.2" x2="819.2">
      <stop offset="0.043137254901960784" stop-color="#96b426"/>
      <stop offset="0.9686274509803922" stop-color="#829f14"/>
    </linearGradient>
    <linearGradient gradientTransform="matrix(-0.0012, 0.0012, 0.0028, 0.0018, 2.25, -1.7)" gradientUnits="userSpaceOnUse" id="decoration3-gradient1" spreadMethod="pad" x1="-819.2" x2="819.2">
      <stop offset="0.043137254901960784" stop-color="#96b426"/>
      <stop offset="0.9686274509803922" stop-color="#829f14"/>
    </linearGradient>
  </defs>
</svg>
