<?xml version="1.0" encoding="UTF-8" standalone="no"?>
<svg xmlns:ffdec="https://www.free-decompiler.com/flash" xmlns:xlink="http://www.w3.org/1999/xlink" ffdec:objectType="frame" height="76.95px" width="39.95px" xmlns="http://www.w3.org/2000/svg">
  <g transform="matrix(1.0, 0.0, 0.0, 1.0, 20.15, 76.4)">
    <use ffdec:characterId="58" height="76.95" transform="matrix(1.0, 0.0, 0.0, 1.0, -20.15, -76.4)" width="39.95" xlink:href="#decoration302-shape0"/>
  </g>
  <defs>
    <g id="decoration302-shape0" transform="matrix(1.0, 0.0, 0.0, 1.0, 20.15, 76.4)">
      <path d="M2.65 -18.35 L2.65 -9.55 Q-1.15 -6.55 -3.05 -11.95 L-3.05 -25.8 Q0.4 -14.15 2.65 -18.35 M-3.05 -30.7 L-3.05 -33.4 Q-1.5 -34.75 -0.15 -38.95 1.4 -43.9 2.05 -49.0 L2.65 -49.0 2.65 -40.45 Q-0.15 -33.25 -3.05 -30.7" fill="url(#decoration302-gradient0)" fill-rule="evenodd" stroke="none"/>
      <path d="M2.65 -40.45 L2.65 -18.35 Q0.4 -14.15 -3.05 -25.8 L-3.05 -30.7 Q-0.15 -33.25 2.65 -40.45" fill="url(#decoration302-gradient1)" fill-rule="evenodd" stroke="none"/>
      <path d="M2.65 -9.55 L2.65 0.35 -3.05 0.35 -3.05 -11.95 Q-1.15 -6.55 2.65 -9.55" fill="url(#decoration302-gradient2)" fill-rule="evenodd" stroke="none"/>
      <path d="M-3.05 -33.4 L-3.05 -49.0 2.05 -49.0 Q1.4 -43.9 -0.15 -38.95 -1.5 -34.75 -3.05 -33.4" fill="url(#decoration302-gradient3)" fill-rule="evenodd" stroke="none"/>
      <path d="M2.65 -40.45 L2.65 -18.35 2.65 -9.55 2.65 0.35 -3.05 0.35 -3.05 -11.95 -3.05 -25.8 -3.05 -30.7 -3.05 -33.4 -3.05 -49.0 2.05 -49.0 2.65 -49.0 2.65 -40.45 Z" fill="none" stroke="#000000" stroke-linecap="round" stroke-linejoin="round" stroke-opacity="0.3882353" stroke-width="0.4"/>
      <path d="M-0.35 -25.25 L-0.35 -4.75 M-2.0 -33.4 L-2.0 -12.6" fill="none" stroke="#000000" stroke-linecap="round" stroke-linejoin="round" stroke-opacity="0.2" stroke-width="0.1"/>
      <path d="M11.8 -45.8 Q13.2 -44.7 14.05 -44.45 L14.05 -41.2 6.1 -41.4 -14.15 -41.25 -14.2 -44.55 -14.2 -45.8 11.8 -45.8" fill="url(#decoration302-gradient4)" fill-rule="evenodd" stroke="none"/>
      <path d="M14.05 -44.45 Q13.2 -44.7 11.8 -45.8 L14.05 -45.8 14.05 -44.45" fill="#b68b62" fill-rule="evenodd" stroke="none"/>
      <path d="M14.05 -44.45 L14.05 -45.8 11.8 -45.8 -14.2 -45.8 -14.2 -44.55 -14.15 -41.25 6.1 -41.4 14.05 -41.2 14.05 -44.45 Z" fill="none" stroke="#000000" stroke-linecap="round" stroke-linejoin="round" stroke-opacity="0.4" stroke-width="0.30000000000000004"/>
      <path d="M1.3 -43.5 L4.85 -43.5 M7.95 -42.4 L11.65 -42.4 M2.75 -44.3 L5.65 -44.3 M-8.3 -42.65 L-4.45 -42.65 M-10.35 -43.25 L-5.8 -43.25" fill="none" stroke="#000000" stroke-linecap="round" stroke-linejoin="round" stroke-opacity="0.2" stroke-width="0.2"/>
      <path d="M12.75 -50.25 L14.05 -50.25 14.05 -47.0 14.05 -45.7 -11.95 -45.7 Q-13.35 -46.8 -14.2 -47.1 L-14.2 -50.3 -6.2 -50.15 -4.75 -49.9 -1.85 -49.7 3.4 -49.25 Q8.2 -47.9 9.35 -48.9 10.25 -49.9 12.75 -50.25 M-5.35 -47.85 Q-7.5 -47.05 -9.1 -46.95 L1.2 -46.95 Q-3.0 -48.25 -5.35 -47.85" fill="url(#decoration302-gradient5)" fill-rule="evenodd" stroke="none"/>
      <path d="M12.75 -50.25 Q10.25 -49.9 9.35 -48.9 8.2 -47.9 3.4 -49.25 L-1.85 -49.7 -4.75 -49.9 -6.2 -50.15 12.75 -50.25 M-14.2 -47.1 Q-13.35 -46.8 -11.95 -45.7 L-14.2 -45.7 -14.2 -47.1 M-5.35 -47.85 Q-3.0 -48.25 1.2 -46.95 L-9.1 -46.95 Q-7.5 -47.05 -5.35 -47.85" fill="#b68b62" fill-rule="evenodd" stroke="none"/>
      <path d="M-11.95 -45.7 L14.05 -45.7 14.05 -47.0 14.05 -50.25 12.75 -50.25 -6.2 -50.15 -14.2 -50.3 -14.2 -47.1 -14.2 -45.7 -11.95 -45.7 Z" fill="none" stroke="#000000" stroke-linecap="round" stroke-linejoin="round" stroke-opacity="0.4" stroke-width="0.30000000000000004"/>
      <path d="M9.55 -47.45 L5.7 -47.45 M11.55 -46.85 L7.05 -46.85 M-7.95 -47.75 L-11.65 -47.75 M-6.2 -46.9 L-10.8 -46.9 M1.85 -48.65 L-1.05 -48.65 M3.3 -49.45 L-0.25 -49.45" fill="none" stroke="#000000" stroke-linecap="round" stroke-linejoin="round" stroke-opacity="0.2" stroke-width="0.2"/>
      <path d="M6.1 -50.3 L4.6 -50.5 1.7 -50.75 -3.55 -51.15 Q-8.35 -52.5 -9.5 -51.55 -10.35 -50.5 -12.9 -50.15 L-14.2 -50.15 -14.2 -53.45 Q-13.45 -52.15 -10.9 -53.05 -8.1 -54.1 -6.7 -53.45 -2.1 -53.1 -1.45 -54.7 L1.0 -54.7 Q5.25 -53.4 7.55 -53.8 9.7 -54.6 11.35 -54.7 L11.8 -54.7 Q13.2 -53.6 14.05 -53.35 L14.05 -50.1 6.1 -50.3" fill="url(#decoration302-gradient6)" fill-rule="evenodd" stroke="none"/>
      <path d="M-12.9 -50.15 Q-10.35 -50.5 -9.5 -51.55 -8.35 -52.5 -3.55 -51.15 L1.7 -50.75 4.6 -50.5 6.1 -50.3 -12.9 -50.15 M14.05 -53.35 Q13.2 -53.6 11.8 -54.7 L14.05 -54.7 14.05 -53.35 M11.35 -54.7 Q9.7 -54.6 7.55 -53.8 5.25 -53.4 1.0 -54.7 L11.35 -54.7 M-1.45 -54.7 Q-2.1 -53.1 -6.7 -53.45 -8.1 -54.1 -10.9 -53.05 -13.45 -52.15 -14.2 -53.45 L-14.2 -54.7 -1.45 -54.7" fill="#b68b62" fill-rule="evenodd" stroke="none"/>
      <path d="M6.1 -50.3 L14.05 -50.1 14.05 -53.35 14.05 -54.7 11.8 -54.7 11.35 -54.7 1.0 -54.7 -1.45 -54.7 -14.2 -54.7 -14.2 -53.45 -14.2 -50.15 -12.9 -50.15 6.1 -50.3 Z" fill="none" stroke="#000000" stroke-linecap="round" stroke-linejoin="round" stroke-opacity="0.4" stroke-width="0.30000000000000004"/>
      <path d="M0.35 -52.75 L3.9 -52.75 M1.8 -53.55 L4.75 -53.55 M7.35 -51.5 L11.05 -51.5 M5.55 -52.3 L10.15 -52.3 M-7.2 -51.25 L-3.4 -51.25 M-9.25 -51.9 L-4.75 -51.9" fill="none" stroke="#000000" stroke-linecap="round" stroke-linejoin="round" stroke-opacity="0.2" stroke-width="0.2"/>
      <path d="M7.8 -68.2 Q5.55 -67.85 4.75 -66.8 3.85 -66.0 0.55 -66.85 L0.3 -66.9 -0.55 -67.2 -5.2 -67.6 Q-6.05 -67.6 -7.2 -68.05 L7.8 -68.2 M0.55 -66.85 L3.65 -66.85 0.55 -66.85" fill="#b68b62" fill-rule="evenodd" stroke="none"/>
      <path d="M0.55 -66.85 Q3.85 -66.0 4.75 -66.8 5.55 -67.85 7.8 -68.2 L8.95 -68.2 8.95 -64.9 8.95 -63.65 -7.2 -63.65 -7.2 -65.25 -6.15 -65.25 -7.2 -65.25 -7.2 -66.05 -7.2 -68.05 Q-6.05 -67.6 -5.2 -67.6 L-0.55 -67.2 0.3 -66.9 0.55 -66.85 M1.45 -66.25 L5.45 -66.25 1.45 -66.25 M-4.85 -66.05 L-7.2 -66.05 -4.85 -66.05" fill="url(#decoration302-gradient7)" fill-rule="evenodd" stroke="none"/>
      <path d="M0.55 -66.85 L0.3 -66.9 M-7.2 -66.05 L-4.85 -66.05 M5.45 -66.25 L1.45 -66.25 M3.65 -66.85 L0.55 -66.85 M-6.15 -65.25 L-7.2 -65.25" fill="none" stroke="#000000" stroke-linecap="round" stroke-linejoin="round" stroke-opacity="0.2" stroke-width="0.2"/>
      <path d="M-7.2 -68.05 L-7.2 -66.05 -7.2 -65.25 -7.2 -63.65 8.95 -63.65 8.95 -64.9 8.95 -68.2 7.8 -68.2 -7.2 -68.05 Z" fill="none" stroke="#000000" stroke-linecap="round" stroke-linejoin="round" stroke-opacity="0.4" stroke-width="0.30000000000000004"/>
      <path d="M3.5 -72.65 L4.0 -72.65 4.0 -69.35 4.0 -68.1 -2.7 -68.1 -2.7 -69.7 -2.25 -69.7 -2.7 -69.7 -2.7 -70.5 -2.7 -72.5 Q-2.2 -72.05 -1.85 -72.05 -1.2 -72.3 0.05 -71.65 L0.4 -71.35 0.5 -71.3 2.25 -71.25 Q2.6 -72.3 3.5 -72.65 M-1.7 -70.5 L-2.7 -70.5 -1.7 -70.5 M0.9 -70.7 L2.55 -70.7 0.9 -70.7" fill="url(#decoration302-gradient8)" fill-rule="evenodd" stroke="none"/>
      <path d="M3.5 -72.65 Q2.6 -72.3 2.25 -71.25 L0.5 -71.3 0.4 -71.35 0.05 -71.65 Q-1.2 -72.3 -1.85 -72.05 -2.2 -72.05 -2.7 -72.5 L3.5 -72.65 M0.5 -71.3 L1.8 -71.3 0.5 -71.3" fill="#b68b62" fill-rule="evenodd" stroke="none"/>
      <path d="M-2.7 -69.7 L-2.7 -68.1 4.0 -68.1 4.0 -69.35 4.0 -72.65 3.5 -72.65 -2.7 -72.5 -2.7 -70.5 -2.7 -69.7" fill="none" stroke="#000000" stroke-linecap="round" stroke-linejoin="round" stroke-opacity="0.4" stroke-width="0.30000000000000004"/>
      <path d="M0.5 -71.3 L0.4 -71.35 M-2.7 -70.5 L-1.7 -70.5 M1.8 -71.3 L0.5 -71.3 M2.55 -70.7 L0.9 -70.7 M-2.25 -69.7 L-2.7 -69.7" fill="none" stroke="#000000" stroke-linecap="round" stroke-linejoin="round" stroke-opacity="0.2" stroke-width="0.2"/>
      <path d="M5.55 -59.2 L4.2 -59.45 1.55 -59.65 -3.25 -60.1 Q-7.65 -61.45 -8.75 -60.45 -9.55 -59.45 -11.8 -59.1 L-13.05 -59.1 -13.05 -62.35 -13.05 -63.65 10.85 -63.65 12.95 -62.25 12.95 -59.05 5.55 -59.2 M4.8 -61.5 Q6.75 -62.3 8.25 -62.4 L-1.2 -62.4 Q2.65 -61.1 4.8 -61.5" fill="url(#decoration302-gradient9)" fill-rule="evenodd" stroke="none"/>
      <path d="M-11.8 -59.1 Q-9.55 -59.45 -8.75 -60.45 -7.65 -61.45 -3.25 -60.1 L1.55 -59.65 4.2 -59.45 5.55 -59.2 -11.8 -59.1 M12.95 -62.25 L10.85 -63.65 12.95 -63.65 12.95 -62.25 M4.8 -61.5 Q2.65 -61.1 -1.2 -62.4 L8.25 -62.4 Q6.75 -62.3 4.8 -61.5" fill="#b68b62" fill-rule="evenodd" stroke="none"/>
      <path d="M5.55 -59.2 L12.95 -59.05 12.95 -62.25 12.95 -63.65 10.85 -63.65 -13.05 -63.65 -13.05 -62.35 -13.05 -59.1 -11.8 -59.1 5.55 -59.2 Z" fill="none" stroke="#000000" stroke-linecap="round" stroke-linejoin="round" stroke-opacity="0.4" stroke-width="0.30000000000000004"/>
      <path d="M7.7 -61.85 L11.4 -61.85 M5.95 -62.7 L10.55 -62.7 M-9.8 -62.15 L-5.95 -62.15 M-11.8 -62.75 L-7.3 -62.75 M-2.1 -60.95 L0.8 -60.95 M-3.55 -60.15 L0.0 -60.15" fill="none" stroke="#000000" stroke-linecap="round" stroke-linejoin="round" stroke-opacity="0.2" stroke-width="0.2"/>
      <path d="M16.95 -58.4 L16.95 -55.3 -17.15 -55.3 -17.15 -58.4 16.95 -58.4" fill="#8c2721" fill-rule="evenodd" stroke="none"/>
      <path d="M16.95 -58.4 L-17.15 -58.4 -17.15 -55.3 16.95 -55.3 16.95 -58.4 Z" fill="none" stroke="#000000" stroke-linecap="round" stroke-linejoin="round" stroke-opacity="0.3882353" stroke-width="0.4"/>
      <path d="M12.7 -59.2 L14.0 -59.2 14.05 -55.95 14.05 -54.65 -1.2 -54.65 Q-5.4 -56.0 -7.75 -55.6 -9.85 -54.75 -11.5 -54.65 L-11.95 -54.65 -14.25 -56.05 -14.25 -59.25 -6.25 -59.05 -4.75 -58.85 -1.85 -58.65 3.35 -58.2 Q8.15 -56.85 9.35 -57.85 10.2 -58.85 12.7 -59.2" fill="url(#decoration302-gradient10)" fill-rule="evenodd" stroke="none"/>
      <path d="M12.7 -59.2 Q10.2 -58.85 9.35 -57.85 8.15 -56.85 3.35 -58.2 L-1.85 -58.65 -4.75 -58.85 -6.25 -59.05 12.7 -59.2 M-14.25 -56.05 L-11.95 -54.65 -14.25 -54.65 -14.25 -56.05 M-11.5 -54.65 Q-9.85 -54.75 -7.75 -55.6 -5.4 -56.0 -1.2 -54.65 L-11.5 -54.65" fill="#b68b62" fill-rule="evenodd" stroke="none"/>
      <path d="M-1.2 -54.65 L14.05 -54.65 14.05 -55.95 14.0 -59.2 12.7 -59.2 -6.25 -59.05 -14.25 -59.25 -14.25 -56.05 -14.25 -54.65 -11.95 -54.65 -11.5 -54.65 -1.2 -54.65 Z" fill="none" stroke="#000000" stroke-linecap="round" stroke-linejoin="round" stroke-opacity="0.4" stroke-width="0.30000000000000004"/>
      <path d="M7.0 -58.1 L3.2 -58.1 M9.05 -57.5 L4.55 -57.5 M-2.0 -55.8 L-4.9 -55.8 M-0.55 -56.6 L-4.1 -56.6 M-7.5 -57.9 L-11.25 -57.9 M-5.75 -57.1 L-10.35 -57.1" fill="none" stroke="#000000" stroke-linecap="round" stroke-linejoin="round" stroke-opacity="0.2" stroke-width="0.2"/>
      <path d="M1.0 -32.5 Q5.2 -31.15 7.55 -31.55 9.65 -32.4 11.3 -32.5 L11.8 -32.5 Q13.2 -31.4 14.05 -31.1 L14.05 -27.9 6.05 -28.05 4.6 -28.3 1.7 -28.5 -3.55 -28.95 Q-8.35 -30.3 -9.5 -29.3 -10.4 -28.3 -12.9 -27.95 L-14.2 -27.95 -14.2 -31.2 -14.2 -32.5 1.0 -32.5" fill="url(#decoration302-gradient11)" fill-rule="evenodd" stroke="none"/>
      <path d="M11.3 -32.5 Q9.65 -32.4 7.55 -31.55 5.2 -31.15 1.0 -32.5 L11.3 -32.5 M-12.9 -27.95 Q-10.4 -28.3 -9.5 -29.3 -8.35 -30.3 -3.55 -28.95 L1.7 -28.5 4.6 -28.3 6.05 -28.05 -12.9 -27.95 M14.05 -31.1 Q13.2 -31.4 11.8 -32.5 L14.05 -32.5 14.05 -31.1" fill="#b68b62" fill-rule="evenodd" stroke="none"/>
      <path d="M11.3 -32.5 L1.0 -32.5 -14.2 -32.5 -14.2 -31.2 -14.2 -27.95 -12.9 -27.95 6.05 -28.05 14.05 -27.9 14.05 -31.1 14.05 -32.5 11.8 -32.5 11.3 -32.5 Z" fill="none" stroke="#000000" stroke-linecap="round" stroke-linejoin="round" stroke-opacity="0.4" stroke-width="0.30000000000000004"/>
      <path d="M1.3 -30.1 L4.85 -30.1 M7.95 -29.0 L11.65 -29.0 M2.75 -30.9 L5.65 -30.9 M-8.3 -29.25 L-4.45 -29.25 M-10.35 -29.85 L-5.8 -29.85" fill="none" stroke="#000000" stroke-linecap="round" stroke-linejoin="round" stroke-opacity="0.2" stroke-width="0.2"/>
      <path d="M-14.2 -33.75 L-14.2 -37.0 14.0 -36.95 14.05 -33.7 14.05 -32.4 -11.95 -32.4 Q-13.35 -33.5 -14.2 -33.75 M-5.4 -34.55 Q-7.5 -33.75 -9.15 -33.65 L1.15 -33.65 Q-3.05 -34.95 -5.4 -34.55" fill="url(#decoration302-gradient12)" fill-rule="evenodd" stroke="none"/>
      <path d="M-11.95 -32.4 L-14.2 -32.4 -14.2 -33.75 Q-13.35 -33.5 -11.95 -32.4 M-5.4 -34.55 Q-3.05 -34.95 1.15 -33.65 L-9.15 -33.65 Q-7.5 -33.75 -5.4 -34.55" fill="#b68b62" fill-rule="evenodd" stroke="none"/>
      <path d="M-14.2 -33.75 L-14.2 -37.0 14.0 -36.95 14.05 -33.7 14.05 -32.4 -11.95 -32.4 -14.2 -32.4 -14.2 -33.75 Z" fill="none" stroke="#000000" stroke-linecap="round" stroke-linejoin="round" stroke-opacity="0.4" stroke-width="0.30000000000000004"/>
      <path d="M9.65 -34.1 L5.8 -34.1 M11.65 -33.5 L7.15 -33.5 M-7.85 -34.4 L-11.55 -34.4 M-6.1 -33.55 L-10.7 -33.55 M1.95 -35.3 L-0.95 -35.3 M3.4 -36.1 L-0.15 -36.1" fill="none" stroke="#000000" stroke-linecap="round" stroke-linejoin="round" stroke-opacity="0.2" stroke-width="0.2"/>
      <path d="M-12.9 -36.8 Q-10.4 -37.15 -9.5 -38.2 -8.35 -39.15 -3.55 -37.85 L1.7 -37.4 4.6 -37.15 6.05 -36.95 -12.9 -36.8 M14.05 -40.0 Q13.2 -40.25 11.8 -41.35 L14.05 -41.35 14.05 -40.0 M-1.5 -41.35 Q-2.1 -39.8 -6.7 -40.1 -8.1 -40.75 -10.9 -39.7 -13.5 -38.8 -14.2 -40.1 L-14.2 -41.35 -1.5 -41.35" fill="#b68b62" fill-rule="evenodd" stroke="none"/>
      <path d="M6.05 -36.95 L4.6 -37.15 1.7 -37.4 -3.55 -37.85 Q-8.35 -39.15 -9.5 -38.2 -10.4 -37.15 -12.9 -36.8 L-14.2 -36.8 -14.2 -40.1 Q-13.5 -38.8 -10.9 -39.7 -8.1 -40.75 -6.7 -40.1 -2.1 -39.8 -1.5 -41.35 L11.8 -41.35 Q13.2 -40.25 14.05 -40.0 L14.05 -36.8 6.05 -36.95" fill="url(#decoration302-gradient13)" fill-rule="evenodd" stroke="none"/>
      <path d="M6.05 -36.95 L14.05 -36.8 14.05 -40.0 14.05 -41.35 11.8 -41.35 -1.5 -41.35 -14.2 -41.35 -14.2 -40.1 -14.2 -36.8 -12.9 -36.8 6.05 -36.95 Z" fill="none" stroke="#000000" stroke-linecap="round" stroke-linejoin="round" stroke-opacity="0.4" stroke-width="0.30000000000000004"/>
      <path d="M0.35 -39.4 L3.9 -39.4 M1.8 -40.2 L4.75 -40.2 M7.35 -38.15 L11.05 -38.15 M5.55 -38.95 L10.15 -38.95 M-7.2 -37.9 L-3.4 -37.9 M-9.25 -38.55 L-4.75 -38.55" fill="none" stroke="#000000" stroke-linecap="round" stroke-linejoin="round" stroke-opacity="0.2" stroke-width="0.2"/>
      <path d="M9.4 -37.1 Q8.5 -34.25 6.95 -31.7 2.9 -25.3 -3.8 -23.9 -10.4 -22.55 -14.6 -30.15 -16.15 -32.95 -17.05 -36.5 -17.85 -39.5 -17.85 -41.65 -17.85 -43.8 -17.15 -46.55 -16.35 -49.9 -14.85 -52.55 -10.9 -59.75 -3.8 -59.4 3.95 -59.05 7.45 -54.0 10.45 -49.65 10.25 -41.65 10.2 -39.6 9.4 -37.1" fill="url(#decoration302-gradient14)" fill-rule="evenodd" stroke="none"/>
      <path d="M13.0 -63.8 Q17.2 -60.45 17.65 -58.65 18.05 -57.0 15.15 -57.1 L3.4 -58.55 Q-2.7 -59.7 -10.6 -58.65 -18.55 -57.6 -14.6 -60.9 L-8.4 -66.4 -5.1 -69.3 Q-2.65 -70.9 0.95 -70.8 4.35 -70.7 13.0 -63.8" fill="url(#decoration302-gradient15)" fill-rule="evenodd" stroke="none"/>
      <path d="M-4.35 -56.15 Q-2.4 -58.05 0.2 -58.05 2.95 -58.05 4.9 -56.05 6.85 -54.0 6.85 -51.2 6.85 -49.65 6.3 -48.45 L6.25 -48.2 Q0.6 -44.3 -3.2 -47.45 L-3.2 -47.5 Q-5.8 -50.15 -4.35 -56.15" fill="#482c03" fill-rule="evenodd" stroke="none"/>
      <path d="M-4.35 -56.15 Q-5.8 -50.15 -3.2 -47.5 L-3.2 -47.45 Q0.6 -44.3 6.25 -48.2 5.8 -47.15 4.9 -46.3 2.95 -44.3 0.2 -44.3 -2.5 -44.3 -4.45 -46.3 -6.45 -48.3 -6.45 -51.2 -6.45 -54.0 -4.45 -56.05 L-4.35 -56.15" fill="#794d0d" fill-rule="evenodd" stroke="none"/>
      <path d="M6.25 -48.2 L6.3 -48.45 Q6.85 -49.65 6.85 -51.2 6.85 -54.0 4.9 -56.05 2.95 -58.05 0.2 -58.05 -2.4 -58.05 -4.35 -56.15 L-4.45 -56.05 Q-6.45 -54.0 -6.45 -51.2 -6.45 -48.3 -4.45 -46.3 -2.5 -44.3 0.2 -44.3 2.95 -44.3 4.9 -46.3 5.8 -47.15 6.25 -48.2 Z" fill="none" stroke="#000000" stroke-linecap="round" stroke-linejoin="round" stroke-opacity="0.3882353" stroke-width="0.4"/>
      <path d="M-2.8 -41.5 L3.6 -41.5 3.6 -39.4 Q1.5 -39.7 -0.5 -40.35 -2.25 -40.85 -2.8 -41.5" fill="url(#decoration302-gradient16)" fill-rule="evenodd" stroke="none"/>
      <path d="M3.6 -39.4 L3.6 -39.2 0.1 -39.2 Q-2.3 -40.1 -3.45 -41.05 L-3.6 -41.2 -3.6 -41.5 -2.8 -41.5 Q-2.25 -40.85 -0.5 -40.35 1.5 -39.7 3.6 -39.4 M-2.7 -41.05 L-3.45 -41.05 -2.7 -41.05" fill="url(#decoration302-gradient17)" fill-rule="evenodd" stroke="none"/>
      <path d="M0.1 -39.2 L-3.6 -39.2 -3.6 -41.05 -3.6 -41.2 -3.45 -41.05 Q-2.3 -40.1 0.1 -39.2 M-3.6 -41.05 L-3.45 -41.05 -3.6 -41.05" fill="url(#decoration302-gradient18)" fill-rule="evenodd" stroke="none"/>
      <path d="M3.6 -39.4 L3.6 -39.2 0.1 -39.2 -3.6 -39.2 -3.6 -41.05 M-3.6 -41.2 L-3.6 -41.5 -2.8 -41.5 3.6 -41.5 3.6 -39.4" fill="none" stroke="#000000" stroke-linecap="round" stroke-linejoin="round" stroke-opacity="0.3882353" stroke-width="0.4"/>
      <path d="M-3.45 -41.05 L-3.6 -41.05 M-3.45 -41.05 L-2.7 -41.05" fill="none" stroke="#000000" stroke-linecap="round" stroke-linejoin="round" stroke-opacity="0.2" stroke-width="0.1"/>
      <path d="M17.0 -55.35 L0.65 -70.8 -17.1 -55.15 -19.95 -57.6 0.75 -76.2 19.6 -57.75 17.0 -55.35" fill="#a92f28" fill-rule="evenodd" stroke="none"/>
      <path d="M17.0 -55.35 L19.6 -57.75 0.75 -76.2 -19.95 -57.6 -17.1 -55.15 0.65 -70.8 17.0 -55.35 Z" fill="none" stroke="#000000" stroke-linecap="round" stroke-linejoin="round" stroke-opacity="0.3882353" stroke-width="0.4"/>
    </g>
    <linearGradient gradientTransform="matrix(0.0054, 0.0, 0.0, 0.0473, 1.85, -49.0)" gradientUnits="userSpaceOnUse" id="decoration302-gradient0" spreadMethod="pad" x1="-819.2" x2="819.2">
      <stop offset="0.0" stop-color="#9b6330"/>
      <stop offset="1.0" stop-color="#7d5732"/>
    </linearGradient>
    <linearGradient gradientTransform="matrix(0.0087, 0.0071, -0.0049, 0.0562, 3.45, -58.35)" gradientUnits="userSpaceOnUse" id="decoration302-gradient1" spreadMethod="pad" x1="-819.2" x2="819.2">
      <stop offset="0.0" stop-color="#7e4e20"/>
      <stop offset="1.0" stop-color="#6a401a"/>
    </linearGradient>
    <linearGradient gradientTransform="matrix(0.0046, 0.0082, -0.0025, 0.0132, -0.2, -15.75)" gradientUnits="userSpaceOnUse" id="decoration302-gradient2" spreadMethod="pad" x1="-819.2" x2="819.2">
      <stop offset="0.0" stop-color="#7e4e20"/>
      <stop offset="1.0" stop-color="#6a401a"/>
    </linearGradient>
    <linearGradient gradientTransform="matrix(0.0055, 0.0, 0.0, 0.0267, 0.75, -55.75)" gradientUnits="userSpaceOnUse" id="decoration302-gradient3" spreadMethod="pad" x1="-819.2" x2="819.2">
      <stop offset="0.0" stop-color="#7e4e20"/>
      <stop offset="1.0" stop-color="#6a401a"/>
    </linearGradient>
    <linearGradient gradientTransform="matrix(0.0086, 0.0, 0.0, 0.0027, -7.45, -43.95)" gradientUnits="userSpaceOnUse" id="decoration302-gradient4" spreadMethod="reflect" x1="-819.2" x2="819.2">
      <stop offset="0.25882352941176473" stop-color="#956a40"/>
      <stop offset="1.0" stop-color="#ac7d53"/>
    </linearGradient>
    <linearGradient gradientTransform="matrix(-0.0086, 0.0, 0.0, -0.0027, 7.2, -47.75)" gradientUnits="userSpaceOnUse" id="decoration302-gradient5" spreadMethod="reflect" x1="-819.2" x2="819.2">
      <stop offset="0.25882352941176473" stop-color="#956a40"/>
      <stop offset="1.0" stop-color="#ac7d53"/>
    </linearGradient>
    <linearGradient gradientTransform="matrix(0.0086, 0.0, 0.0, 0.0027, -7.45, -52.85)" gradientUnits="userSpaceOnUse" id="decoration302-gradient6" spreadMethod="reflect" x1="-819.2" x2="819.2">
      <stop offset="0.25882352941176473" stop-color="#956a40"/>
      <stop offset="1.0" stop-color="#ac7d53"/>
    </linearGradient>
    <linearGradient gradientTransform="matrix(-0.0077, 0.0, 0.0, -0.0027, 2.8, -65.7)" gradientUnits="userSpaceOnUse" id="decoration302-gradient7" spreadMethod="reflect" x1="-819.2" x2="819.2">
      <stop offset="0.25882352941176473" stop-color="#956a40"/>
      <stop offset="1.0" stop-color="#ac7d53"/>
    </linearGradient>
    <linearGradient gradientTransform="matrix(-0.0032, 0.0, 0.0, -0.0027, 1.45, -70.15)" gradientUnits="userSpaceOnUse" id="decoration302-gradient8" spreadMethod="reflect" x1="-819.2" x2="819.2">
      <stop offset="0.25882352941176473" stop-color="#956a40"/>
      <stop offset="1.0" stop-color="#ac7d53"/>
    </linearGradient>
    <linearGradient gradientTransform="matrix(0.0079, 0.0, 0.0, 0.0027, -6.95, -61.8)" gradientUnits="userSpaceOnUse" id="decoration302-gradient9" spreadMethod="reflect" x1="-819.2" x2="819.2">
      <stop offset="0.25882352941176473" stop-color="#956a40"/>
      <stop offset="1.0" stop-color="#ac7d53"/>
    </linearGradient>
    <linearGradient gradientTransform="matrix(-0.0086, 0.0, 0.0, -0.0027, 7.2, -56.7)" gradientUnits="userSpaceOnUse" id="decoration302-gradient10" spreadMethod="reflect" x1="-819.2" x2="819.2">
      <stop offset="0.25882352941176473" stop-color="#956a40"/>
      <stop offset="1.0" stop-color="#ac7d53"/>
    </linearGradient>
    <linearGradient gradientTransform="matrix(0.0086, 0.0, 0.0, 0.0027, -7.45, -30.65)" gradientUnits="userSpaceOnUse" id="decoration302-gradient11" spreadMethod="reflect" x1="-819.2" x2="819.2">
      <stop offset="0.25882352941176473" stop-color="#956a40"/>
      <stop offset="1.0" stop-color="#ac7d53"/>
    </linearGradient>
    <linearGradient gradientTransform="matrix(-0.0086, 0.0, 0.0, -0.0027, 7.2, -34.45)" gradientUnits="userSpaceOnUse" id="decoration302-gradient12" spreadMethod="reflect" x1="-819.2" x2="819.2">
      <stop offset="0.25882352941176473" stop-color="#956a40"/>
      <stop offset="1.0" stop-color="#ac7d53"/>
    </linearGradient>
    <linearGradient gradientTransform="matrix(0.0086, 0.0, 0.0, 0.0027, -7.45, -39.5)" gradientUnits="userSpaceOnUse" id="decoration302-gradient13" spreadMethod="reflect" x1="-819.2" x2="819.2">
      <stop offset="0.25882352941176473" stop-color="#956a40"/>
      <stop offset="1.0" stop-color="#ac7d53"/>
    </linearGradient>
    <radialGradient cx="0" cy="0" gradientTransform="matrix(0.0123, 0.0, 0.0, 0.0174, -4.3, -43.1)" gradientUnits="userSpaceOnUse" id="decoration302-gradient14" r="819.2" spreadMethod="pad">
      <stop offset="0.0" stop-color="#cdfdff" stop-opacity="0.2784314"/>
      <stop offset="0.19607843137254902" stop-color="#dafdff" stop-opacity="0.14901961"/>
      <stop offset="1.0" stop-color="#ffffff" stop-opacity="0.0"/>
    </radialGradient>
    <linearGradient gradientTransform="matrix(0.0016, 0.0104, -0.008, 2.0E-4, -0.45, -68.05)" gradientUnits="userSpaceOnUse" id="decoration302-gradient15" spreadMethod="pad" x1="-819.2" x2="819.2">
      <stop offset="0.0" stop-color="#000000" stop-opacity="0.72156864"/>
      <stop offset="0.9882352941176471" stop-color="#000000" stop-opacity="0.0"/>
    </linearGradient>
    <linearGradient gradientTransform="matrix(0.0, 0.0023, -0.011, 0.0, 6.4, -39.95)" gradientUnits="userSpaceOnUse" id="decoration302-gradient16" spreadMethod="pad" x1="-819.2" x2="819.2">
      <stop offset="0.0" stop-color="#7e4e20"/>
      <stop offset="1.0" stop-color="#6a401a"/>
    </linearGradient>
    <linearGradient gradientTransform="matrix(0.0, 0.0022, -0.0195, 0.0, 3.6, -39.5)" gradientUnits="userSpaceOnUse" id="decoration302-gradient17" spreadMethod="pad" x1="-819.2" x2="819.2">
      <stop offset="0.0" stop-color="#9b6330"/>
      <stop offset="1.0" stop-color="#7d5732"/>
    </linearGradient>
    <linearGradient gradientTransform="matrix(-0.0029, 0.0036, -0.0232, -0.002, 7.5, -38.85)" gradientUnits="userSpaceOnUse" id="decoration302-gradient18" spreadMethod="pad" x1="-819.2" x2="819.2">
      <stop offset="0.0" stop-color="#7e4e20"/>
      <stop offset="1.0" stop-color="#6a401a"/>
    </linearGradient>
  </defs>
</svg>
