<?xml version="1.0" encoding="UTF-8" standalone="no"?>
<svg xmlns:ffdec="https://www.free-decompiler.com/flash" xmlns:xlink="http://www.w3.org/1999/xlink" ffdec:objectType="frame" height="137.5px" width="236.15px" xmlns="http://www.w3.org/2000/svg">
  <g transform="matrix(1.0, 0.0, 0.0, 1.0, 102.65, 136.9)">
    <use ffdec:characterId="5" height="70.05" transform="matrix(1.0, 0.0, 0.0, 1.0, -45.3, -69.45)" width="114.1" xlink:href="#decoration303-shape0"/>
    <use ffdec:characterId="55" height="63.15" transform="matrix(-0.6506, -0.3005, -0.2869, 0.6815, 109.9487, -71.0793)" width="55.45" xlink:href="#decoration303-sprite0"/>
    <use ffdec:characterId="55" height="63.15" transform="matrix(-0.5785, 0.6097, -0.5157, -0.4381, 108.7493, -70.521)" width="55.45" xlink:href="#decoration303-sprite0"/>
    <use ffdec:characterId="53" height="21.2" transform="matrix(-0.585, 0.1496, 0.1181, 0.5684, -1.7066, -83.5436)" width="18.75" xlink:href="#decoration303-sprite1"/>
    <use ffdec:characterId="55" height="63.15" transform="matrix(-0.2121, -0.4592, 0.4515, -0.2665, -7.4824, -73.3053)" width="55.45" xlink:href="#decoration303-sprite0"/>
    <use ffdec:characterId="53" height="21.2" transform="matrix(-0.172, 0.6128, -0.6533, -0.1237, -54.6349, -94.7478)" width="18.75" xlink:href="#decoration303-sprite1"/>
    <use ffdec:characterId="55" height="63.15" transform="matrix(0.858, -0.2947, 0.2814, 0.8191, -102.6489, -99.8721)" width="55.45" xlink:href="#decoration303-sprite0"/>
    <use ffdec:characterId="55" height="63.15" transform="matrix(-0.4227, -0.7679, 0.7679, -0.4639, -69.4747, -50.3689)" width="55.45" xlink:href="#decoration303-sprite0"/>
    <use ffdec:characterId="55" height="63.15" transform="matrix(0.2121, -0.4592, -0.481, -0.2025, -23.1087, -52.6244)" width="55.45" xlink:href="#decoration303-sprite0"/>
    <use ffdec:characterId="53" height="21.2" transform="matrix(0.7233, -0.185, 0.1938, 0.6905, -33.9334, -51.8511)" width="18.75" xlink:href="#decoration303-sprite1"/>
    <use ffdec:characterId="55" height="63.15" transform="matrix(0.3247, 0.703, -0.7363, 0.31, -31.8103, -99.7687)" width="55.45" xlink:href="#decoration303-sprite0"/>
    <use ffdec:characterId="56" height="25.65" transform="matrix(1.0, 0.0, 0.0, 1.0, -13.8, -106.45)" width="44.75" xlink:href="#decoration303-shape3"/>
    <use ffdec:characterId="55" height="63.15" transform="matrix(-0.5817, -0.3206, -0.3358, 0.5553, 31.1962, -90.5364)" width="55.45" xlink:href="#decoration303-sprite0"/>
    <use ffdec:characterId="55" height="63.15" transform="matrix(0.1231, 0.7593, -0.7953, 0.1175, 2.5078, -134.0251)" width="55.45" xlink:href="#decoration303-sprite0"/>
    <use ffdec:characterId="55" height="63.15" transform="matrix(-0.8001, -0.0829, 0.0869, -0.7638, 55.874, -75.8501)" width="55.45" xlink:href="#decoration303-sprite0"/>
    <use ffdec:characterId="55" height="63.15" transform="matrix(0.0232, 0.6587, 0.69, -0.0222, -19.2128, -135.508)" width="55.45" xlink:href="#decoration303-sprite0"/>
    <use ffdec:characterId="55" height="63.15" transform="matrix(-0.5691, -0.5433, 0.5691, -0.5433, 50.3715, -70.4012)" width="55.45" xlink:href="#decoration303-sprite0"/>
    <use ffdec:characterId="55" height="63.15" transform="matrix(0.4905, -0.6091, 0.638, 0.4682, -5.314, -93.3882)" width="55.45" xlink:href="#decoration303-sprite0"/>
    <use ffdec:characterId="55" height="63.15" transform="matrix(-0.2782, -0.4601, -0.4819, 0.2656, 6.1141, -94.1647)" width="55.45" xlink:href="#decoration303-sprite0"/>
    <use ffdec:characterId="55" height="63.15" transform="matrix(-0.7953, -0.1175, -0.123, 0.7593, 9.9857, -108.0484)" width="55.45" xlink:href="#decoration303-sprite0"/>
    <use ffdec:characterId="55" height="63.15" transform="matrix(-0.769, -0.2796, -0.1786, 0.5239, 52.1458, -83.1373)" width="55.45" xlink:href="#decoration303-sprite0"/>
    <use ffdec:characterId="55" height="63.15" transform="matrix(-0.6415, 0.6124, 0.6415, 0.6124, 92.9679, -114.8368)" width="55.45" xlink:href="#decoration303-sprite0"/>
    <use ffdec:characterId="55" height="63.15" transform="matrix(-0.2348, 0.8366, -0.8763, -0.2241, 99.4216, -104.0919)" width="55.45" xlink:href="#decoration303-sprite0"/>
    <use ffdec:characterId="55" height="63.15" transform="matrix(-0.5096, -0.4568, -0.3684, 0.5541, 34.7879, -94.4021)" width="55.45" xlink:href="#decoration303-sprite0"/>
    <use ffdec:characterId="55" height="63.15" transform="matrix(-0.5043, 0.4501, -0.4714, -0.4814, 70.6675, -59.4681)" width="55.45" xlink:href="#decoration303-sprite0"/>
    <use ffdec:characterId="55" height="63.15" transform="matrix(-0.5043, -0.4501, -0.4714, 0.4814, 3.5675, -99.5319)" width="55.45" xlink:href="#decoration303-sprite0"/>
    <use ffdec:characterId="54" height="116.85" transform="matrix(0.1272, -0.2103, 0.3409, 0.1879, 17.2636, -67.906)" width="220.6" xlink:href="#decoration303-sprite2"/>
    <use ffdec:characterId="53" height="21.2" transform="matrix(-0.4964, 0.127, -0.133, -0.4739, 26.2259, -35.2306)" width="18.75" xlink:href="#decoration303-sprite1"/>
    <use ffdec:characterId="53" height="21.2" transform="matrix(-0.1029, -0.39, 0.4255, -0.1145, 19.9855, -27.6991)" width="18.75" xlink:href="#decoration303-sprite1"/>
  </g>
  <defs>
    <g id="decoration303-shape0" transform="matrix(1.0, 0.0, 0.0, 1.0, 45.65, 70.4)">
      <path d="M40.65 -53.95 L50.45 -53.4 56.45 -54.45 Q60.55 -56.65 60.1 -64.05 L61.8 -64.15 Q61.9 -57.15 59.35 -55.35 63.5 -57.0 67.55 -59.75 L68.25 -58.9 Q59.7 -53.15 50.45 -51.9 41.7 -50.7 32.3 -53.45 31.3 -54.7 40.65 -53.95 M3.2 -0.9 L2.05 -0.8 -0.7 -13.85 Q-1.35 -7.6 -2.15 -4.8 L-5.3 -0.55 Q-4.7 -1.85 -4.05 -3.65 -2.85 -7.3 -2.85 -9.6 L-2.15 -16.65 Q-5.55 -17.5 -10.7 -24.75 L-12.3 -30.1 Q-13.15 -33.1 -10.2 -39.4 L-10.15 -39.45 -8.65 -41.0 -5.55 -43.6 -2.85 -45.4 Q1.7 -47.9 5.25 -51.8 L3.9 -47.7 Q3.05 -45.7 1.95 -44.5 L-0.85 -42.95 -3.75 -41.25 Q-7.9 -38.55 -9.55 -35.55 -12.0 -31.3 -9.55 -26.45 -8.7 -24.7 -7.25 -22.9 L-5.1 -20.75 -2.7 -18.55 -0.95 -25.8 Q-1.0 -25.55 -0.3 -25.2 L1.05 -25.05 1.5 -25.35 Q0.1 -21.6 0.1 -20.4 L0.85 -17.95 Q0.2 -15.0 0.2 -12.15 L1.5 -6.65 3.2 -0.9 M-4.45 -12.05 L-5.4 -13.55 -5.35 -14.6 Q-4.45 -14.2 -3.25 -16.55 L-3.85 -14.2 -4.45 -12.05 M-16.25 -50.65 L-21.7 -53.35 Q-16.0 -50.85 -16.6 -53.65 -17.65 -56.95 -16.2 -60.15 -15.55 -55.1 -12.0 -52.5 L-8.0 -49.55 -6.4 -45.7 -16.25 -50.65 M1.5 -63.5 Q1.05 -66.3 0.9 -70.1 L2.45 -70.1 Q2.25 -60.8 7.1 -54.1 L6.7 -54.1 Q5.05 -54.65 4.3 -56.15 2.65 -60.15 1.5 -63.5 M0.85 -40.35 Q2.35 -37.35 2.7 -33.9 L2.2 -30.9 Q1.1 -27.25 -0.5 -29.6 L-1.05 -31.25 Q-0.45 -32.1 -0.75 -34.25 -1.0 -35.45 -0.7 -37.6 -0.35 -40.35 0.85 -40.35" fill="#543217" fill-rule="evenodd" stroke="none"/>
      <path d="M40.65 -53.95 Q31.3 -54.7 32.3 -53.45 L30.25 -54.15 Q24.6 -51.65 20.65 -49.25 8.25 -44.1 27.35 -55.3 45.25 -62.7 49.15 -66.9 L51.15 -65.8 Q42.05 -59.4 34.2 -55.8 37.45 -54.6 40.65 -53.95 M13.35 -42.7 L10.6 -37.6 Q7.9 -32.5 7.65 -31.6 12.25 -30.5 18.8 -35.35 L18.8 -33.9 Q13.2 -29.7 5.75 -27.85 L4.3 -24.6 Q3.45 -22.3 3.5 -17.65 L2.85 -19.35 2.2 -21.25 0.85 -17.95 0.1 -20.4 Q0.1 -21.6 1.5 -25.35 L1.05 -25.05 -0.3 -25.2 Q-1.0 -25.55 -0.95 -25.8 L-0.95 -25.95 -1.05 -31.25 -0.5 -29.6 0.0 -28.1 Q0.55 -27.0 1.25 -27.0 L1.85 -29.45 2.2 -30.9 2.7 -33.9 3.2 -31.4 2.95 -30.4 5.3 -31.85 13.35 -42.7 M2.05 -0.8 L-5.3 -0.55 -2.15 -4.8 Q-1.35 -7.6 -0.7 -13.85 L2.05 -0.8 M-21.7 -53.35 L-22.35 -53.65 -26.4 -55.45 Q-40.25 -61.4 -45.45 -70.2 L-42.35 -70.2 Q-34.05 -61.85 -26.8 -58.95 -19.55 -56.1 -19.25 -55.8 -20.75 -59.65 -18.25 -70.1 L-15.25 -70.1 Q-16.7 -64.3 -16.2 -60.15 -17.65 -56.95 -16.6 -53.65 -16.0 -50.85 -21.7 -53.35 M5.25 -51.8 L4.35 -53.6 3.75 -55.05 Q2.9 -57.1 2.35 -59.5 L1.65 -62.7 1.6 -62.95 1.5 -63.5 Q2.65 -60.15 4.3 -56.15 5.05 -54.65 6.7 -54.1 L7.1 -54.1 Q11.05 -62.0 11.95 -69.95 L14.35 -69.95 Q10.9 -50.7 1.95 -44.5 3.05 -45.7 3.9 -47.7 L5.25 -51.8 M2.95 -25.35 L2.7 -23.4 2.2 -21.25 2.7 -23.4 2.95 -25.35 M0.85 -1.8 Q0.55 -2.15 0.15 -3.55 -0.45 -5.05 -0.35 -5.85 -0.45 -5.05 0.15 -3.55 0.55 -2.15 0.85 -1.8" fill="#3a1f0a" fill-rule="evenodd" stroke="none"/>
      <path d="M20.65 -49.25 Q18.55 -47.85 15.75 -45.15 L13.35 -42.7 5.3 -31.85 2.95 -30.4 3.2 -31.4 Q5.6 -35.1 10.25 -43.45 13.75 -49.65 27.35 -55.3 8.25 -44.1 20.65 -49.25 M3.5 -17.65 Q3.5 -14.5 4.0 -10.25 3.05 -11.55 1.15 -15.95 L0.85 -17.95 2.2 -21.25 2.85 -19.35 3.5 -17.65 M-5.55 -43.6 Q-9.7 -47.1 -16.25 -50.65 L-6.4 -45.7 -8.0 -49.55 -4.55 -46.9 -4.45 -46.8 -2.85 -45.4 -5.55 -43.6 M-0.85 -42.95 L0.85 -40.35 Q-0.35 -40.35 -0.7 -37.6 -1.0 -35.45 -0.75 -34.25 -0.45 -32.1 -1.05 -31.25 -0.75 -32.3 -1.95 -36.85 -3.15 -41.4 -3.75 -41.25 L-0.85 -42.95" fill="#251305" fill-rule="evenodd" stroke="none"/>
      <path d="M-5.3 -0.55 L-7.15 -0.55 Q-6.0 -2.5 -5.5 -5.65 L-4.75 -11.05 -4.45 -12.05 -3.85 -14.2 -3.25 -16.55 Q-4.45 -14.2 -5.35 -14.6 L-11.5 -23.7 -12.2 -25.1 Q-16.1 -32.85 -10.2 -39.4 -13.15 -33.1 -12.3 -30.1 L-10.7 -24.75 Q-5.55 -17.5 -2.15 -16.65 L-2.85 -9.6 Q-2.85 -7.3 -4.05 -3.65 -4.7 -1.85 -5.3 -0.55 M-0.5 -29.6 Q1.1 -27.25 2.2 -30.9 L1.85 -29.45 1.25 -27.0 Q0.55 -27.0 0.0 -28.1 L-0.5 -29.6" fill="#85551c" fill-rule="evenodd" stroke="none"/>
      <path d="M4.6 -0.9 L3.2 -0.9 1.5 -6.65 0.2 -12.15 Q0.2 -15.0 0.85 -17.95 L1.15 -15.95 4.6 -0.9" fill="#404610" fill-rule="evenodd" stroke="none"/>
      <path d="M-7.15 -0.55 L-8.7 -0.55 Q-6.85 -0.8 -6.55 -4.05 -6.15 -6.95 -4.75 -11.05 L-5.5 -5.65 Q-6.0 -2.5 -7.15 -0.55 M-5.4 -13.55 L-8.9 -19.1 -11.5 -23.7 -5.35 -14.6 -5.4 -13.55" fill="#bb7a01" fill-rule="evenodd" stroke="none"/>
      <path d="M4.0 -10.25 Q4.7 -8.55 6.75 -4.8 8.85 -1.05 9.3 -0.9 L4.6 -0.9 1.15 -15.95 Q3.05 -11.55 4.0 -10.25" fill="#343a07" fill-rule="evenodd" stroke="none"/>
      <path d="M32.3 -53.45 Q41.7 -50.7 50.45 -51.9 59.7 -53.15 68.25 -58.9 L67.55 -59.75 Q63.5 -57.0 59.35 -55.35 61.9 -57.15 61.8 -64.15 L60.1 -64.05 Q60.55 -56.65 56.45 -54.45 L50.45 -53.4 40.65 -53.95 Q37.45 -54.6 34.2 -55.8 42.05 -59.4 51.15 -65.8 M32.3 -53.45 L30.25 -54.15 Q24.6 -51.65 20.65 -49.25 18.55 -47.85 15.75 -45.15 L13.35 -42.7 10.6 -37.6 Q7.9 -32.5 7.65 -31.6 12.25 -30.5 18.8 -35.35 L18.8 -33.9 Q13.2 -29.7 5.75 -27.85 L4.3 -24.6 Q3.45 -22.3 3.5 -17.65 3.5 -14.5 4.0 -10.25 4.7 -8.55 6.75 -4.8 8.85 -1.05 9.3 -0.9 L4.6 -0.9 3.2 -0.9 2.05 -0.8 -5.3 -0.55 -7.15 -0.55 -8.7 -0.55 Q-6.85 -0.8 -6.55 -4.05 -6.15 -6.95 -4.75 -11.05 L-4.45 -12.05 -5.4 -13.55 -8.9 -19.1 -11.5 -23.7 -12.2 -25.1 Q-16.1 -32.85 -10.2 -39.4 L-10.15 -39.45 -8.65 -41.0 -5.55 -43.6 Q-9.7 -47.1 -16.25 -50.65 L-21.7 -53.35 -22.35 -53.65 -26.4 -55.45 Q-40.25 -61.4 -45.45 -70.2 L-42.35 -70.2 Q-34.05 -61.85 -26.8 -58.95 -19.55 -56.1 -19.25 -55.8 -20.75 -59.65 -18.25 -70.1 L-15.25 -70.1 Q-16.7 -64.3 -16.2 -60.15 -15.55 -55.1 -12.0 -52.5 L-8.0 -49.55 -4.55 -46.9 -4.45 -46.8 -2.85 -45.4 Q1.7 -47.9 5.25 -51.8 L4.35 -53.6 3.75 -55.05 Q2.9 -57.1 2.35 -59.5 L1.65 -62.7 1.6 -62.95 1.5 -63.5 Q1.05 -66.3 0.9 -70.1 L2.45 -70.1 Q2.25 -60.8 7.1 -54.1 11.05 -62.0 11.95 -69.95 L14.35 -69.95 Q10.9 -50.7 1.95 -44.5 L-0.85 -42.95 0.85 -40.35 Q2.35 -37.35 2.7 -33.9 L3.2 -31.4 Q5.6 -35.1 10.25 -43.45 13.75 -49.65 27.35 -55.3 45.25 -62.7 49.15 -66.9 M-2.85 -45.4 L-5.55 -43.6 M-3.75 -41.25 L-0.85 -42.95 M2.95 -30.4 L3.2 -31.4 M-1.05 -31.25 L-0.95 -25.95 -0.95 -25.8 -2.7 -18.55 -5.1 -20.75 -7.25 -22.9 Q-8.7 -24.7 -9.55 -26.45 -12.0 -31.3 -9.55 -35.55 -7.9 -38.55 -3.75 -41.25 -3.15 -41.4 -1.95 -36.85 -0.75 -32.3 -1.05 -31.25 M2.2 -21.25 L2.7 -23.4 2.95 -25.35 M-3.85 -14.2 L-3.25 -16.55 M-0.35 -5.85 Q-0.45 -5.05 0.15 -3.55 0.55 -2.15 0.85 -1.8" fill="none" stroke="#000000" stroke-linecap="round" stroke-linejoin="round" stroke-opacity="0.3882353" stroke-width="0.4"/>
    </g>
    <g id="decoration303-sprite0" transform="matrix(1.0, 0.0, 0.0, 1.0, 0.25, 0.3)">
      <use ffdec:characterId="53" height="21.2" transform="matrix(1.1086, 0.0, 0.0, 1.1086, 13.3783, 36.1283)" width="18.75" xlink:href="#decoration303-sprite1"/>
      <use ffdec:characterId="53" height="21.2" transform="matrix(0.658, 0.6579, -0.6579, 0.658, 13.7, 19.6868)" width="18.75" xlink:href="#decoration303-sprite1"/>
      <use ffdec:characterId="53" height="21.2" transform="matrix(-1.3822, -0.3703, -0.3703, 1.3822, 55.2005, 33.5476)" width="18.75" xlink:href="#decoration303-sprite1"/>
      <use ffdec:characterId="53" height="21.2" transform="matrix(-0.8312, 0.8312, -0.9377, -0.63, 45.6038, 13.0597)" width="18.75" xlink:href="#decoration303-sprite1"/>
      <use ffdec:characterId="54" height="116.85" transform="matrix(-0.0271, -0.1011, 0.1594, -0.0427, 21.7217, 27.6393)" width="220.6" xlink:href="#decoration303-sprite2"/>
      <use ffdec:characterId="54" height="116.85" transform="matrix(-0.0271, -0.1011, 0.1594, -0.0427, 34.4717, 61.0393)" width="220.6" xlink:href="#decoration303-sprite2"/>
    </g>
    <g id="decoration303-sprite1" transform="matrix(1.0, 0.0, 0.0, 1.0, 0.2, 0.2)">
      <use ffdec:characterId="6" height="21.2" transform="matrix(1.0, 0.0, 0.0, 1.0, -0.2, -0.2)" width="18.75" xlink:href="#decoration303-shape1"/>
    </g>
    <g id="decoration303-shape1" transform="matrix(1.0, 0.0, 0.0, 1.0, 0.2, 0.2)">
      <path d="M14.6 0.0 Q16.7 1.2 17.4 2.6 18.1 4.0 16.95 4.1 15.8 4.2 17.45 5.75 19.1 7.3 17.8 8.1 16.75 8.7 14.9 8.75 15.2 9.1 15.55 11.4 15.7 12.35 14.8 13.05 L13.85 13.55 Q11.2 8.85 8.9 6.75 11.3 3.15 14.6 0.0 11.3 3.15 8.9 6.75 7.1 9.75 6.4 11.25 L7.6 6.7 4.1 6.6 Q3.6 6.1 4.1 5.05 4.85 3.45 7.95 2.8 4.85 1.2 9.3 0.55 L14.6 0.0" fill="#251d07" fill-rule="evenodd" stroke="none"/>
      <path d="M8.9 6.75 Q11.2 8.85 13.85 13.55 14.0 16.1 12.7 17.15 L11.65 17.3 10.55 17.15 Q9.9 16.85 8.4 18.7 6.9 20.55 5.2 18.3 3.9 21.0 1.75 20.8 -1.05 18.25 0.7 15.55 -1.2 13.25 2.05 11.9 2.35 11.4 1.6 10.25 0.85 9.1 1.4 8.15 1.65 7.8 2.8 7.2 L4.1 6.6 7.6 6.7 6.4 11.25 Q7.1 9.75 8.9 6.75 M5.75 8.85 L6.65 8.45 5.75 8.85 M8.85 15.5 Q8.9 10.6 9.2 9.8 8.9 10.6 8.85 15.5 M6.4 11.25 Q5.7 12.65 5.15 14.15 5.7 12.65 6.4 11.25 M3.5 13.1 L1.5 14.45 3.5 13.1" fill="url(#decoration303-gradient0)" fill-rule="evenodd" stroke="none"/>
      <path d="M13.85 13.55 L14.8 13.05 Q15.7 12.35 15.55 11.4 15.2 9.1 14.9 8.75 16.75 8.7 17.8 8.1 19.1 7.3 17.45 5.75 15.8 4.2 16.95 4.1 18.1 4.0 17.4 2.6 16.7 1.2 14.6 0.0 L9.3 0.55 Q4.85 1.2 7.95 2.8 4.85 3.45 4.1 5.05 3.6 6.1 4.1 6.6 L2.8 7.2 Q1.65 7.8 1.4 8.15 0.85 9.1 1.6 10.25 2.35 11.4 2.05 11.9 -1.2 13.25 0.7 15.55 -1.05 18.25 1.75 20.8 3.9 21.0 5.2 18.3 6.9 20.55 8.4 18.7 9.9 16.85 10.55 17.15 L11.65 17.3 12.7 17.15 Q14.0 16.1 13.85 13.55" fill="none" stroke="#190e06" stroke-linecap="round" stroke-linejoin="round" stroke-opacity="0.2784314" stroke-width="0.4"/>
      <path d="M14.6 0.0 Q11.3 3.15 8.9 6.75 7.1 9.75 6.4 11.25 5.7 12.65 5.15 14.15 M6.65 8.45 L5.75 8.85 M1.5 14.45 L3.5 13.1 M9.2 9.8 Q8.9 10.6 8.85 15.5" fill="none" stroke="#190e06" stroke-linecap="round" stroke-linejoin="round" stroke-opacity="0.16078432" stroke-width="0.4"/>
    </g>
    <linearGradient gradientTransform="matrix(0.0051, -0.0088, 0.011, 0.0063, 7.6, 13.3)" gradientUnits="userSpaceOnUse" id="decoration303-gradient0" spreadMethod="pad" x1="-819.2" x2="819.2">
      <stop offset="0.0" stop-color="#302811"/>
      <stop offset="0.9764705882352941" stop-color="#271f09"/>
    </linearGradient>
    <g id="decoration303-sprite2" transform="matrix(1.0, 0.0, 0.0, 1.0, -2.6, 0.05)">
      <use ffdec:characterId="8" height="116.85" transform="matrix(1.0, 0.0, 0.0, 1.0, 2.6, -0.05)" width="220.6" xlink:href="#decoration303-shape2"/>
    </g>
    <g id="decoration303-shape2" transform="matrix(1.0, 0.0, 0.0, 1.0, -2.6, 0.05)">
      <path d="M216.6 72.9 Q209.6 82.3 197.3 90.5 165.65 111.5 112.85 116.1 61.0 120.6 28.05 95.7 15.85 86.45 8.7 74.85 2.6 65.0 2.6 58.05 2.6 51.0 7.9 41.95 14.25 31.1 25.85 22.35 57.15 -1.2 112.85 0.0 173.9 1.15 201.1 17.6 224.7 31.9 223.1 58.05 222.7 64.7 216.6 72.9" fill="url(#decoration303-gradient1)" fill-rule="evenodd" stroke="none"/>
    </g>
    <radialGradient cx="0" cy="0" gradientTransform="matrix(0.0971, 0.0, 0.0, 0.0572, 109.5, 53.65)" gradientUnits="userSpaceOnUse" id="decoration303-gradient1" r="819.2" spreadMethod="pad">
      <stop offset="0.0" stop-color="#6a726b" stop-opacity="0.45882353"/>
      <stop offset="0.19607843137254902" stop-color="#6f726b" stop-opacity="0.34117648"/>
      <stop offset="1.0" stop-color="#7e736b" stop-opacity="0.0"/>
    </radialGradient>
    <g id="decoration303-shape3" transform="matrix(1.0, 0.0, 0.0, 1.0, 13.8, 106.45)">
      <path d="M-10.25 -87.9 Q-2.1 -102.35 -4.15 -104.5 L0.15 -106.25 Q-1.5 -95.35 -9.85 -84.2 -11.1 -82.65 -11.8 -81.0 L-13.6 -82.0 -10.25 -87.9" fill="#351d09" fill-rule="evenodd" stroke="none"/>
      <path d="M-10.25 -87.9 L-13.6 -82.0 -11.8 -81.0 Q-11.1 -82.65 -9.85 -84.2 -1.5 -95.35 0.15 -106.25 L-4.15 -104.5 Q-2.1 -102.35 -10.25 -87.9 Z" fill="none" stroke="#000000" stroke-linecap="round" stroke-linejoin="round" stroke-opacity="0.3882353" stroke-width="0.4"/>
      <path d="M18.15 -87.3 Q20.55 -89.0 22.6 -91.4 24.7 -95.8 19.2 -104.0 L21.3 -105.1 Q24.85 -100.05 25.65 -96.45 27.0 -97.65 28.6 -102.7 L30.75 -101.8 Q26.3 -91.5 19.45 -84.8 L18.15 -87.3" fill="#351d09" fill-rule="evenodd" stroke="none"/>
      <path d="M19.45 -84.8 Q26.3 -91.5 30.75 -101.8 L28.6 -102.7 Q27.0 -97.65 25.65 -96.45 24.85 -100.05 21.3 -105.1 L19.2 -104.0 Q24.7 -95.8 22.6 -91.4 20.55 -89.0 18.15 -87.3" fill="none" stroke="#000000" stroke-linecap="round" stroke-linejoin="round" stroke-opacity="0.3882353" stroke-width="0.4"/>
    </g>
  </defs>
</svg>
