<?xml version="1.0" encoding="UTF-8" standalone="no"?>
<svg xmlns:ffdec="https://www.free-decompiler.com/flash" xmlns:xlink="http://www.w3.org/1999/xlink" ffdec:objectType="frame" height="148.3px" width="236.15px" xmlns="http://www.w3.org/2000/svg">
  <g transform="matrix(1.0, 0.0, 0.0, 1.0, 101.2, 145.0)">
    <use ffdec:characterId="50" height="63.15" transform="matrix(0.858, -0.2947, 0.2814, 0.8191, -101.1989, -100.3221)" width="55.45" xlink:href="#decoration304-sprite0"/>
    <use ffdec:characterId="5" height="70.05" transform="matrix(1.0, 0.0, 0.0, 1.0, -43.85, -69.9)" width="114.1" xlink:href="#decoration304-shape2"/>
    <use ffdec:characterId="50" height="63.15" transform="matrix(-0.6506, -0.3005, -0.2869, 0.6815, 111.3987, -71.5293)" width="55.45" xlink:href="#decoration304-sprite0"/>
    <use ffdec:characterId="50" height="63.15" transform="matrix(-0.5785, 0.6097, -0.5157, -0.4381, 110.1993, -70.971)" width="55.45" xlink:href="#decoration304-sprite0"/>
    <use ffdec:characterId="48" height="21.2" transform="matrix(-0.585, 0.1496, 0.1181, 0.5684, -0.2566, -83.9936)" width="18.75" xlink:href="#decoration304-sprite1"/>
    <use ffdec:characterId="50" height="63.15" transform="matrix(-0.2121, -0.4592, 0.4515, -0.2665, -6.0324, -73.7553)" width="55.45" xlink:href="#decoration304-sprite0"/>
    <use ffdec:characterId="48" height="21.2" transform="matrix(-0.172, 0.6128, -0.6533, -0.1237, -53.1849, -95.1978)" width="18.75" xlink:href="#decoration304-sprite1"/>
    <use ffdec:characterId="50" height="63.15" transform="matrix(-0.4227, -0.7679, 0.7679, -0.4639, -68.0247, -50.8189)" width="55.45" xlink:href="#decoration304-sprite0"/>
    <use ffdec:characterId="50" height="63.15" transform="matrix(0.2121, -0.4592, -0.481, -0.2025, -21.6587, -53.0744)" width="55.45" xlink:href="#decoration304-sprite0"/>
    <use ffdec:characterId="48" height="21.2" transform="matrix(0.7233, -0.185, 0.1938, 0.6905, -32.4834, -52.3011)" width="18.75" xlink:href="#decoration304-sprite1"/>
    <use ffdec:characterId="50" height="63.15" transform="matrix(0.3247, 0.703, -0.7363, 0.31, -30.3603, -100.2187)" width="55.45" xlink:href="#decoration304-sprite0"/>
    <use ffdec:characterId="11" height="25.6" transform="matrix(1.0, 0.0, 0.0, 1.0, -12.45, -107.05)" width="44.95" xlink:href="#decoration304-shape3"/>
    <use ffdec:characterId="50" height="63.15" transform="matrix(-0.5817, -0.3206, -0.3358, 0.5553, 32.6462, -90.9864)" width="55.45" xlink:href="#decoration304-sprite0"/>
    <use ffdec:characterId="50" height="63.15" transform="matrix(0.1231, 0.7593, -0.7953, 0.1175, 3.9578, -134.4751)" width="55.45" xlink:href="#decoration304-sprite0"/>
    <use ffdec:characterId="50" height="63.15" transform="matrix(-0.8001, -0.0829, 0.0869, -0.7638, 57.324, -76.3001)" width="55.45" xlink:href="#decoration304-sprite0"/>
    <use ffdec:characterId="50" height="63.15" transform="matrix(0.0232, 0.6587, 0.69, -0.0222, -17.7628, -135.958)" width="55.45" xlink:href="#decoration304-sprite0"/>
    <use ffdec:characterId="50" height="63.15" transform="matrix(-0.5691, -0.5433, 0.5691, -0.5433, 51.8215, -70.8512)" width="55.45" xlink:href="#decoration304-sprite0"/>
    <use ffdec:characterId="50" height="63.15" transform="matrix(0.4905, -0.6091, 0.638, 0.4682, -3.864, -93.8382)" width="55.45" xlink:href="#decoration304-sprite0"/>
    <use ffdec:characterId="50" height="63.15" transform="matrix(-0.2782, -0.4601, -0.4819, 0.2656, 7.5641, -94.6147)" width="55.45" xlink:href="#decoration304-sprite0"/>
    <use ffdec:characterId="50" height="63.15" transform="matrix(-0.7953, -0.1175, -0.123, 0.7593, 11.4357, -108.4984)" width="55.45" xlink:href="#decoration304-sprite0"/>
    <use ffdec:characterId="50" height="63.15" transform="matrix(-0.769, -0.2796, -0.1786, 0.5239, 53.5958, -83.5873)" width="55.45" xlink:href="#decoration304-sprite0"/>
    <use ffdec:characterId="50" height="63.15" transform="matrix(-0.6415, 0.6124, 0.6415, 0.6124, 94.4179, -115.2868)" width="55.45" xlink:href="#decoration304-sprite0"/>
    <use ffdec:characterId="50" height="63.15" transform="matrix(-0.2348, 0.8366, -0.8763, -0.2241, 100.8716, -104.5419)" width="55.45" xlink:href="#decoration304-sprite0"/>
    <use ffdec:characterId="50" height="63.15" transform="matrix(-0.5096, -0.4568, -0.3684, 0.5541, 36.2379, -94.8521)" width="55.45" xlink:href="#decoration304-sprite0"/>
    <use ffdec:characterId="50" height="63.15" transform="matrix(-0.5043, 0.4501, -0.4714, -0.4814, 72.1175, -59.9181)" width="55.45" xlink:href="#decoration304-sprite0"/>
    <use ffdec:characterId="50" height="63.15" transform="matrix(-0.5043, -0.4501, -0.4714, 0.4814, 5.0175, -99.9819)" width="55.45" xlink:href="#decoration304-sprite0"/>
    <use ffdec:characterId="49" height="116.85" transform="matrix(0.1272, -0.2103, 0.3409, 0.1879, 18.7136, -68.356)" width="220.6" xlink:href="#decoration304-sprite2"/>
    <use ffdec:characterId="51" height="148.3" transform="matrix(1.0, 0.0, 0.0, 1.0, -80.7, -145.0)" width="193.05" xlink:href="#decoration304-shape4"/>
  </g>
  <defs>
    <g id="decoration304-sprite0" transform="matrix(1.0, 0.0, 0.0, 1.0, 0.25, 0.3)">
      <use ffdec:characterId="48" height="21.2" transform="matrix(1.1086, 0.0, 0.0, 1.1086, 13.3783, 36.1283)" width="18.75" xlink:href="#decoration304-sprite1"/>
      <use ffdec:characterId="48" height="21.2" transform="matrix(0.658, 0.6579, -0.6579, 0.658, 13.7, 19.6868)" width="18.75" xlink:href="#decoration304-sprite1"/>
      <use ffdec:characterId="48" height="21.2" transform="matrix(-1.3822, -0.3703, -0.3703, 1.3822, 55.2005, 33.5476)" width="18.75" xlink:href="#decoration304-sprite1"/>
      <use ffdec:characterId="48" height="21.2" transform="matrix(-0.8312, 0.8312, -0.9377, -0.63, 45.6038, 13.0597)" width="18.75" xlink:href="#decoration304-sprite1"/>
      <use ffdec:characterId="49" height="116.85" transform="matrix(-0.0271, -0.1011, 0.1594, -0.0427, 21.7217, 27.6393)" width="220.6" xlink:href="#decoration304-sprite2"/>
      <use ffdec:characterId="49" height="116.85" transform="matrix(-0.0271, -0.1011, 0.1594, -0.0427, 34.4717, 61.0393)" width="220.6" xlink:href="#decoration304-sprite2"/>
    </g>
    <g id="decoration304-sprite1" transform="matrix(1.0, 0.0, 0.0, 1.0, 0.2, 0.2)">
      <use ffdec:characterId="6" height="21.2" transform="matrix(1.0, 0.0, 0.0, 1.0, -0.2, -0.2)" width="18.75" xlink:href="#decoration304-shape0"/>
    </g>
    <g id="decoration304-shape0" transform="matrix(1.0, 0.0, 0.0, 1.0, 0.2, 0.2)">
      <path d="M14.6 0.0 Q16.7 1.2 17.4 2.6 18.1 4.0 16.95 4.1 15.8 4.2 17.45 5.75 19.1 7.3 17.8 8.1 16.75 8.7 14.9 8.75 15.2 9.1 15.55 11.4 15.7 12.35 14.8 13.05 L13.85 13.55 Q11.2 8.85 8.9 6.75 11.3 3.15 14.6 0.0 11.3 3.15 8.9 6.75 7.1 9.75 6.4 11.25 L7.6 6.7 4.1 6.6 Q3.6 6.1 4.1 5.05 4.85 3.45 7.95 2.8 4.85 1.2 9.3 0.55 L14.6 0.0" fill="#2d4329" fill-rule="evenodd" stroke="none"/>
      <path d="M8.9 6.75 Q11.2 8.85 13.85 13.55 14.0 16.1 12.7 17.15 L11.65 17.3 10.55 17.15 Q9.9 16.85 8.4 18.7 6.9 20.55 5.2 18.3 3.9 21.0 1.75 20.8 -1.05 18.25 0.7 15.55 -1.2 13.25 2.05 11.9 2.35 11.4 1.6 10.25 0.85 9.1 1.4 8.15 1.65 7.8 2.8 7.2 L4.1 6.6 7.6 6.7 6.4 11.25 Q7.1 9.75 8.9 6.75 M5.75 8.85 L6.65 8.45 5.75 8.85 M8.85 15.5 Q8.9 10.6 9.2 9.8 8.9 10.6 8.85 15.5 M6.4 11.25 Q5.7 12.65 5.15 14.15 5.7 12.65 6.4 11.25 M3.5 13.1 L1.5 14.45 3.5 13.1" fill="url(#decoration304-gradient0)" fill-rule="evenodd" stroke="none"/>
      <path d="M13.85 13.55 L14.8 13.05 Q15.7 12.35 15.55 11.4 15.2 9.1 14.9 8.75 16.75 8.7 17.8 8.1 19.1 7.3 17.45 5.75 15.8 4.2 16.95 4.1 18.1 4.0 17.4 2.6 16.7 1.2 14.6 0.0 L9.3 0.55 Q4.85 1.2 7.95 2.8 4.85 3.45 4.1 5.05 3.6 6.1 4.1 6.6 L2.8 7.2 Q1.65 7.8 1.4 8.15 0.85 9.1 1.6 10.25 2.35 11.4 2.05 11.9 -1.2 13.25 0.7 15.55 -1.05 18.25 1.75 20.8 3.9 21.0 5.2 18.3 6.9 20.55 8.4 18.7 9.9 16.85 10.55 17.15 L11.65 17.3 12.7 17.15 Q14.0 16.1 13.85 13.55" fill="none" stroke="#1a2c28" stroke-linecap="round" stroke-linejoin="round" stroke-opacity="0.2784314" stroke-width="0.4"/>
      <path d="M14.6 0.0 Q11.3 3.15 8.9 6.75 7.1 9.75 6.4 11.25 5.7 12.65 5.15 14.15 M6.65 8.45 L5.75 8.85 M1.5 14.45 L3.5 13.1 M9.2 9.8 Q8.9 10.6 8.85 15.5" fill="none" stroke="#1a2c28" stroke-linecap="round" stroke-linejoin="round" stroke-opacity="0.16078432" stroke-width="0.4"/>
    </g>
    <linearGradient gradientTransform="matrix(0.0051, -0.0088, 0.011, 0.0063, 7.6, 13.3)" gradientUnits="userSpaceOnUse" id="decoration304-gradient0" spreadMethod="pad" x1="-819.2" x2="819.2">
      <stop offset="0.0" stop-color="#3e5539"/>
      <stop offset="0.9764705882352941" stop-color="#30462d"/>
    </linearGradient>
    <g id="decoration304-sprite2" transform="matrix(1.0, 0.0, 0.0, 1.0, -2.6, 0.05)">
      <use ffdec:characterId="8" height="116.85" transform="matrix(1.0, 0.0, 0.0, 1.0, 2.6, -0.05)" width="220.6" xlink:href="#decoration304-shape1"/>
    </g>
    <g id="decoration304-shape1" transform="matrix(1.0, 0.0, 0.0, 1.0, -2.6, 0.05)">
      <path d="M216.6 72.9 Q209.6 82.3 197.3 90.5 165.65 111.5 112.85 116.1 61.0 120.6 28.05 95.7 15.85 86.45 8.7 74.85 2.6 65.0 2.6 58.05 2.6 51.0 7.9 41.95 14.25 31.1 25.85 22.35 57.15 -1.2 112.85 0.0 173.9 1.15 201.1 17.6 224.7 31.9 223.1 58.05 222.7 64.7 216.6 72.9" fill="url(#decoration304-gradient1)" fill-rule="evenodd" stroke="none"/>
    </g>
    <radialGradient cx="0" cy="0" gradientTransform="matrix(0.0971, 0.0, 0.0, 0.0572, 109.5, 53.65)" gradientUnits="userSpaceOnUse" id="decoration304-gradient1" r="819.2" spreadMethod="pad">
      <stop offset="0.0" stop-color="#697068" stop-opacity="0.45882353"/>
      <stop offset="0.19607843137254902" stop-color="#6e7068" stop-opacity="0.34117648"/>
      <stop offset="1.0" stop-color="#7c7168" stop-opacity="0.0"/>
    </radialGradient>
    <g id="decoration304-shape2" transform="matrix(1.0, 0.0, 0.0, 1.0, 45.65, 70.4)">
      <path d="M40.65 -53.95 L50.45 -53.4 56.45 -54.45 Q60.55 -56.65 60.1 -64.05 L61.8 -64.15 Q61.9 -57.15 59.35 -55.35 63.5 -57.0 67.55 -59.75 L68.25 -58.9 Q59.7 -53.15 50.45 -51.9 41.7 -50.7 32.3 -53.45 31.3 -54.7 40.65 -53.95 M3.2 -0.9 L2.05 -0.8 -0.7 -13.85 Q-1.35 -7.6 -2.15 -4.8 L-5.3 -0.55 Q-4.7 -1.85 -4.05 -3.65 -2.85 -7.3 -2.85 -9.6 L-2.15 -16.65 Q-5.55 -17.5 -10.7 -24.75 L-12.3 -30.1 Q-13.15 -33.1 -10.2 -39.4 L-10.15 -39.45 -8.65 -41.0 -5.55 -43.6 -2.85 -45.4 Q1.7 -47.9 5.25 -51.8 L3.9 -47.7 Q3.05 -45.7 1.95 -44.5 L-0.85 -42.95 -3.75 -41.25 Q-7.9 -38.55 -9.55 -35.55 -12.0 -31.3 -9.55 -26.45 -8.7 -24.7 -7.25 -22.9 L-5.1 -20.75 -2.7 -18.55 -0.95 -25.8 Q-1.0 -25.55 -0.3 -25.2 L1.05 -25.05 1.5 -25.35 Q0.1 -21.6 0.1 -20.4 L0.85 -17.95 Q0.2 -15.0 0.2 -12.15 L1.5 -6.65 3.2 -0.9 M-4.45 -12.05 L-5.4 -13.55 -5.35 -14.6 Q-4.45 -14.2 -3.25 -16.55 L-3.85 -14.2 -4.45 -12.05 M-16.25 -50.65 L-21.7 -53.35 Q-16.0 -50.85 -16.6 -53.65 -17.65 -56.95 -16.2 -60.15 -15.55 -55.1 -12.0 -52.5 L-8.0 -49.55 -6.4 -45.7 -16.25 -50.65 M1.5 -63.5 Q1.05 -66.3 0.9 -70.1 L2.45 -70.1 Q2.25 -60.8 7.1 -54.1 L6.7 -54.1 Q5.05 -54.65 4.3 -56.15 2.65 -60.15 1.5 -63.5 M0.85 -40.35 Q2.35 -37.35 2.7 -33.9 L2.2 -30.9 Q1.1 -27.25 -0.5 -29.6 L-1.05 -31.25 Q-0.45 -32.1 -0.75 -34.25 -1.0 -35.45 -0.7 -37.6 -0.35 -40.35 0.85 -40.35" fill="#543217" fill-rule="evenodd" stroke="none"/>
      <path d="M40.65 -53.95 Q31.3 -54.7 32.3 -53.45 L30.25 -54.15 Q24.6 -51.65 20.65 -49.25 8.25 -44.1 27.35 -55.3 45.25 -62.7 49.15 -66.9 L51.15 -65.8 Q42.05 -59.4 34.2 -55.8 37.45 -54.6 40.65 -53.95 M13.35 -42.7 L10.6 -37.6 Q7.9 -32.5 7.65 -31.6 12.25 -30.5 18.8 -35.35 L18.8 -33.9 Q13.2 -29.7 5.75 -27.85 L4.3 -24.6 Q3.45 -22.3 3.5 -17.65 L2.85 -19.35 2.2 -21.25 0.85 -17.95 0.1 -20.4 Q0.1 -21.6 1.5 -25.35 L1.05 -25.05 -0.3 -25.2 Q-1.0 -25.55 -0.95 -25.8 L-0.95 -25.95 -1.05 -31.25 -0.5 -29.6 0.0 -28.1 Q0.55 -27.0 1.25 -27.0 L1.85 -29.45 2.2 -30.9 2.7 -33.9 3.2 -31.4 2.95 -30.4 5.3 -31.85 13.35 -42.7 M2.05 -0.8 L-5.3 -0.55 -2.15 -4.8 Q-1.35 -7.6 -0.7 -13.85 L2.05 -0.8 M-21.7 -53.35 L-22.35 -53.65 -26.4 -55.45 Q-40.25 -61.4 -45.45 -70.2 L-42.35 -70.2 Q-34.05 -61.85 -26.8 -58.95 -19.55 -56.1 -19.25 -55.8 -20.75 -59.65 -18.25 -70.1 L-15.25 -70.1 Q-16.7 -64.3 -16.2 -60.15 -17.65 -56.95 -16.6 -53.65 -16.0 -50.85 -21.7 -53.35 M5.25 -51.8 L4.35 -53.6 3.75 -55.05 Q2.9 -57.1 2.35 -59.5 L1.65 -62.7 1.6 -62.95 1.5 -63.5 Q2.65 -60.15 4.3 -56.15 5.05 -54.65 6.7 -54.1 L7.1 -54.1 Q11.05 -62.0 11.95 -69.95 L14.35 -69.95 Q10.9 -50.7 1.95 -44.5 3.05 -45.7 3.9 -47.7 L5.25 -51.8 M2.95 -25.35 L2.7 -23.4 2.2 -21.25 2.7 -23.4 2.95 -25.35 M0.85 -1.8 Q0.55 -2.15 0.15 -3.55 -0.45 -5.05 -0.35 -5.85 -0.45 -5.05 0.15 -3.55 0.55 -2.15 0.85 -1.8" fill="#3a1f0a" fill-rule="evenodd" stroke="none"/>
      <path d="M20.65 -49.25 Q18.55 -47.85 15.75 -45.15 L13.35 -42.7 5.3 -31.85 2.95 -30.4 3.2 -31.4 Q5.6 -35.1 10.25 -43.45 13.75 -49.65 27.35 -55.3 8.25 -44.1 20.65 -49.25 M3.5 -17.65 Q3.5 -14.5 4.0 -10.25 3.05 -11.55 1.15 -15.95 L0.85 -17.95 2.2 -21.25 2.85 -19.35 3.5 -17.65 M-5.55 -43.6 Q-9.7 -47.1 -16.25 -50.65 L-6.4 -45.7 -8.0 -49.55 -4.55 -46.9 -4.45 -46.8 -2.85 -45.4 -5.55 -43.6 M-0.85 -42.95 L0.85 -40.35 Q-0.35 -40.35 -0.7 -37.6 -1.0 -35.45 -0.75 -34.25 -0.45 -32.1 -1.05 -31.25 -0.75 -32.3 -1.95 -36.85 -3.15 -41.4 -3.75 -41.25 L-0.85 -42.95" fill="#251305" fill-rule="evenodd" stroke="none"/>
      <path d="M-5.3 -0.55 L-7.15 -0.55 Q-6.0 -2.5 -5.5 -5.65 L-4.75 -11.05 -4.45 -12.05 -3.85 -14.2 -3.25 -16.55 Q-4.45 -14.2 -5.35 -14.6 L-11.5 -23.7 -12.2 -25.1 Q-16.1 -32.85 -10.2 -39.4 -13.15 -33.1 -12.3 -30.1 L-10.7 -24.75 Q-5.55 -17.5 -2.15 -16.65 L-2.85 -9.6 Q-2.85 -7.3 -4.05 -3.65 -4.7 -1.85 -5.3 -0.55 M-0.5 -29.6 Q1.1 -27.25 2.2 -30.9 L1.85 -29.45 1.25 -27.0 Q0.55 -27.0 0.0 -28.1 L-0.5 -29.6" fill="#85551c" fill-rule="evenodd" stroke="none"/>
      <path d="M4.6 -0.9 L3.2 -0.9 1.5 -6.65 0.2 -12.15 Q0.2 -15.0 0.85 -17.95 L1.15 -15.95 4.6 -0.9" fill="#404610" fill-rule="evenodd" stroke="none"/>
      <path d="M-7.15 -0.55 L-8.7 -0.55 Q-6.85 -0.8 -6.55 -4.05 -6.15 -6.95 -4.75 -11.05 L-5.5 -5.65 Q-6.0 -2.5 -7.15 -0.55 M-5.4 -13.55 L-8.9 -19.1 -11.5 -23.7 -5.35 -14.6 -5.4 -13.55" fill="#bb7a01" fill-rule="evenodd" stroke="none"/>
      <path d="M4.0 -10.25 Q4.7 -8.55 6.75 -4.8 8.85 -1.05 9.3 -0.9 L4.6 -0.9 1.15 -15.95 Q3.05 -11.55 4.0 -10.25" fill="#343a07" fill-rule="evenodd" stroke="none"/>
      <path d="M32.3 -53.45 Q41.7 -50.7 50.45 -51.9 59.7 -53.15 68.25 -58.9 L67.55 -59.75 Q63.5 -57.0 59.35 -55.35 61.9 -57.15 61.8 -64.15 L60.1 -64.05 Q60.55 -56.65 56.45 -54.45 L50.45 -53.4 40.65 -53.95 Q37.45 -54.6 34.2 -55.8 42.05 -59.4 51.15 -65.8 M32.3 -53.45 L30.25 -54.15 Q24.6 -51.65 20.65 -49.25 18.55 -47.85 15.75 -45.15 L13.35 -42.7 10.6 -37.6 Q7.9 -32.5 7.65 -31.6 12.25 -30.5 18.8 -35.35 L18.8 -33.9 Q13.2 -29.7 5.75 -27.85 L4.3 -24.6 Q3.45 -22.3 3.5 -17.65 3.5 -14.5 4.0 -10.25 4.7 -8.55 6.75 -4.8 8.85 -1.05 9.3 -0.9 L4.6 -0.9 3.2 -0.9 2.05 -0.8 -5.3 -0.55 -7.15 -0.55 -8.7 -0.55 Q-6.85 -0.8 -6.55 -4.05 -6.15 -6.95 -4.75 -11.05 L-4.45 -12.05 -5.4 -13.55 -8.9 -19.1 -11.5 -23.7 -12.2 -25.1 Q-16.1 -32.85 -10.2 -39.4 L-10.15 -39.45 -8.65 -41.0 -5.55 -43.6 Q-9.7 -47.1 -16.25 -50.65 L-21.7 -53.35 -22.35 -53.65 -26.4 -55.45 Q-40.25 -61.4 -45.45 -70.2 L-42.35 -70.2 Q-34.05 -61.85 -26.8 -58.95 -19.55 -56.1 -19.25 -55.8 -20.75 -59.65 -18.25 -70.1 L-15.25 -70.1 Q-16.7 -64.3 -16.2 -60.15 -15.55 -55.1 -12.0 -52.5 L-8.0 -49.55 -4.55 -46.9 -4.45 -46.8 -2.85 -45.4 Q1.7 -47.9 5.25 -51.8 L4.35 -53.6 3.75 -55.05 Q2.9 -57.1 2.35 -59.5 L1.65 -62.7 1.6 -62.95 1.5 -63.5 Q1.05 -66.3 0.9 -70.1 L2.45 -70.1 Q2.25 -60.8 7.1 -54.1 11.05 -62.0 11.95 -69.95 L14.35 -69.95 Q10.9 -50.7 1.95 -44.5 L-0.85 -42.95 0.85 -40.35 Q2.35 -37.35 2.7 -33.9 L3.2 -31.4 Q5.6 -35.1 10.25 -43.45 13.75 -49.65 27.35 -55.3 45.25 -62.7 49.15 -66.9 M-2.85 -45.4 L-5.55 -43.6 M-3.75 -41.25 L-0.85 -42.95 M2.95 -30.4 L3.2 -31.4 M-1.05 -31.25 L-0.95 -25.95 -0.95 -25.8 -2.7 -18.55 -5.1 -20.75 -7.25 -22.9 Q-8.7 -24.7 -9.55 -26.45 -12.0 -31.3 -9.55 -35.55 -7.9 -38.55 -3.75 -41.25 -3.15 -41.4 -1.95 -36.85 -0.75 -32.3 -1.05 -31.25 M2.2 -21.25 L2.7 -23.4 2.95 -25.35 M-3.85 -14.2 L-3.25 -16.55 M-0.35 -5.85 Q-0.45 -5.05 0.15 -3.55 0.55 -2.15 0.85 -1.8" fill="none" stroke="#000000" stroke-linecap="round" stroke-linejoin="round" stroke-opacity="0.3882353" stroke-width="0.4"/>
    </g>
    <g id="decoration304-shape3" transform="matrix(1.0, 0.0, 0.0, 1.0, 14.2, 107.55)">
      <path d="M-10.65 -89.05 Q-2.55 -103.45 -4.6 -105.6 L-0.3 -107.35 Q-1.9 -96.5 -10.3 -85.35 L-12.25 -82.15 -14.0 -83.1 -10.65 -89.05" fill="#351d09" fill-rule="evenodd" stroke="none"/>
      <path d="M-10.65 -89.05 L-14.0 -83.1 -12.25 -82.15 -10.3 -85.35 Q-1.9 -96.5 -0.3 -107.35 L-4.6 -105.6 Q-2.55 -103.45 -10.65 -89.05 Z" fill="none" stroke="#000000" stroke-linecap="round" stroke-linejoin="round" stroke-opacity="0.3882353" stroke-width="0.4"/>
      <path d="M17.95 -88.25 Q20.35 -90.0 22.35 -92.35 24.45 -96.8 18.95 -104.95 L21.05 -106.05 Q24.6 -101.05 25.4 -97.45 26.75 -98.6 28.35 -103.65 L30.55 -102.75 Q26.05 -92.45 19.2 -85.75 L17.95 -88.25" fill="#351d09" fill-rule="evenodd" stroke="none"/>
      <path d="M19.2 -85.75 Q26.05 -92.45 30.55 -102.75 L28.35 -103.65 Q26.75 -98.6 25.4 -97.45 24.6 -101.05 21.05 -106.05 L18.95 -104.95 Q24.45 -96.8 22.35 -92.35 20.35 -90.0 17.95 -88.25" fill="none" stroke="#000000" stroke-linecap="round" stroke-linejoin="round" stroke-opacity="0.3882353" stroke-width="0.4"/>
    </g>
    <g id="decoration304-shape4" transform="matrix(1.0, 0.0, 0.0, 1.0, 80.7, 145.0)">
      <path d="M98.95 -89.6 L99.0 -89.75 99.9 -90.9 100.1 -91.1 104.5 -94.45 107.5 -94.9 111.3 -95.3 112.0 -94.85 Q111.0 -93.55 109.35 -93.0 L108.15 -92.65 105.5 -92.05 102.65 -90.0 Q101.5 -89.25 99.3 -89.55 L98.95 -89.6 M64.05 -116.4 Q64.65 -119.1 70.3 -117.2 76.4 -115.1 76.6 -112.65 L75.8 -112.6 Q74.0 -112.6 69.95 -114.6 65.9 -116.6 65.05 -116.6 L64.05 -116.4 M80.45 -100.55 Q81.05 -104.45 85.55 -100.85 87.45 -99.3 89.15 -97.1 90.5 -95.3 90.7 -94.45 88.6 -94.75 85.35 -97.6 L81.3 -100.85 80.45 -100.55 M95.2 -79.7 L96.55 -79.2 99.35 -78.05 Q100.9 -77.05 100.95 -75.05 101.9 -74.5 106.7 -73.25 108.35 -72.65 109.3 -71.05 110.4 -69.45 110.85 -66.95 111.7 -62.95 109.55 -62.95 L109.5 -63.0 Q108.15 -64.45 106.8 -66.8 L105.6 -68.9 103.15 -72.95 Q101.0 -73.7 98.1 -76.05 95.45 -78.15 95.2 -79.7 M62.25 -91.85 L60.65 -92.3 48.95 -88.65 48.4 -88.3 Q40.35 -83.6 40.35 -82.65 L40.6 -81.85 40.35 -81.6 Q41.3 -81.05 42.25 -79.4 L43.7 -76.35 Q45.15 -72.6 45.15 -70.9 L45.15 -70.5 44.2 -71.8 41.15 -76.7 39.1 -78.6 37.85 -79.5 36.75 -79.9 33.7 -80.35 33.1 -80.45 31.35 -81.1 31.35 -81.15 Q31.35 -81.65 32.7 -82.75 L33.25 -83.25 Q35.2 -84.85 36.2 -84.85 37.2 -84.85 37.7 -84.1 L38.25 -83.2 39.75 -86.85 Q40.8 -89.55 42.6 -89.55 43.75 -89.55 44.1 -89.1 L44.35 -88.45 45.85 -91.3 Q46.95 -93.15 48.25 -93.4 L48.7 -93.45 Q49.95 -93.45 50.1 -92.9 50.25 -92.4 50.35 -92.4 L56.95 -93.6 Q61.3 -94.0 62.25 -91.85 M63.4 -75.55 Q63.65 -75.95 64.15 -76.15 L65.9 -76.15 Q66.75 -75.7 67.0 -74.2 L68.55 -74.8 70.5 -75.3 Q71.9 -75.3 72.7 -73.85 73.45 -72.45 73.0 -71.1 L71.65 -72.15 71.2 -72.5 67.25 -73.7 Q64.7 -74.4 63.6 -75.55 L63.4 -75.55 M2.15 -126.75 L1.8 -128.55 1.55 -131.35 Q1.55 -135.4 4.15 -136.1 5.3 -136.4 7.2 -134.6 9.2 -132.9 10.25 -133.2 L11.65 -133.8 14.4 -135.05 Q15.8 -135.65 16.7 -137.55 17.55 -139.45 17.85 -141.6 18.65 -144.45 21.7 -144.15 24.6 -143.85 25.05 -142.05 24.9 -142.5 24.75 -131.4 24.85 -131.0 26.4 -130.25 27.85 -129.7 28.25 -126.5 L28.45 -126.25 Q28.7 -126.1 29.15 -126.25 29.9 -126.45 30.6 -127.45 31.2 -128.35 31.6 -128.45 33.1 -128.85 36.0 -126.3 38.5 -124.1 39.7 -122.0 41.05 -122.6 41.55 -123.9 41.95 -124.9 46.5 -126.1 50.4 -127.15 51.75 -126.15 52.2 -125.8 52.5 -124.6 L53.2 -121.95 Q50.9 -123.35 49.25 -123.0 L46.45 -122.6 Q45.35 -122.55 43.75 -119.8 42.2 -117.15 40.9 -117.65 39.6 -118.2 37.65 -120.4 L34.5 -124.05 Q33.35 -124.8 31.5 -124.9 L27.8 -124.6 Q25.75 -124.4 24.45 -125.9 L21.7 -129.65 Q19.45 -132.7 15.75 -129.9 L8.95 -124.4 Q5.95 -121.75 4.35 -123.4 2.6 -125.1 2.15 -126.75 M30.95 -100.9 Q30.85 -101.6 30.9 -102.25 30.9 -104.3 31.2 -105.0 32.05 -107.0 35.3 -107.2 37.25 -108.95 38.95 -109.9 42.05 -111.6 44.2 -110.55 45.3 -110.0 45.9 -109.05 46.55 -108.05 46.65 -106.65 L45.9 -106.0 Q45.45 -105.7 45.0 -105.7 41.4 -105.7 38.8 -104.8 37.05 -104.2 35.75 -103.2 L33.75 -101.5 Q32.85 -100.75 32.05 -100.75 L30.95 -100.9 M28.9 -103.5 Q27.7 -103.9 27.1 -105.45 L25.6 -109.3 Q25.05 -109.95 21.85 -110.95 20.6 -111.35 20.2 -112.2 20.35 -112.65 20.65 -112.85 21.4 -113.45 23.3 -112.3 L24.75 -111.35 Q29.4 -107.9 29.4 -104.35 29.4 -103.75 28.9 -103.5 M22.25 -115.8 L20.9 -115.35 16.85 -115.25 Q15.4 -115.65 13.4 -116.75 11.3 -117.95 10.05 -118.25 7.65 -118.85 5.15 -117.7 3.25 -116.8 1.15 -117.1 L0.4 -117.25 1.3 -117.8 Q2.35 -118.3 3.85 -118.65 7.55 -119.5 8.7 -120.05 12.6 -121.8 13.95 -120.15 14.75 -118.05 14.9 -118.0 16.05 -117.65 16.9 -118.25 17.55 -118.95 18.15 -118.75 20.6 -118.1 22.25 -115.8 M-17.1 -117.6 L-17.05 -118.1 -16.9 -119.1 -16.6 -119.8 -16.4 -120.15 Q-15.6 -121.65 -13.6 -123.3 -9.55 -126.7 -5.55 -122.95 -4.25 -123.6 -3.75 -123.6 -2.7 -123.6 -2.05 -122.65 L-1.9 -122.45 Q-3.8 -121.45 -4.7 -121.45 -5.9 -121.45 -7.0 -122.6 -8.1 -123.75 -8.9 -123.75 -10.3 -123.75 -13.85 -120.65 L-17.1 -117.6 M-27.05 -109.05 Q-27.05 -111.0 -25.65 -112.0 -24.65 -112.7 -20.65 -114.8 L-19.65 -115.35 Q-15.15 -117.8 -11.35 -116.1 -9.9 -115.45 -9.1 -114.7 -10.0 -113.85 -11.8 -113.2 L-15.65 -112.2 -15.85 -112.2 -20.25 -109.5 Q-22.15 -108.2 -23.9 -108.2 L-26.3 -108.8 -27.05 -109.05 M-5.9 -91.95 Q-7.6 -93.35 -6.7 -94.6 L-6.0 -95.3 Q-5.15 -95.9 -3.65 -96.5 -1.35 -97.4 1.4 -97.8 3.65 -98.05 4.5 -97.8 3.2 -96.1 -0.9 -94.75 -5.55 -93.2 -5.75 -92.85 L-5.9 -91.95 M16.3 -89.05 L16.6 -89.45 Q17.0 -89.85 17.8 -89.8 19.55 -89.65 21.0 -87.45 21.8 -85.8 21.85 -84.8 L21.8 -82.9 Q19.85 -83.25 18.9 -85.1 17.3 -88.05 16.3 -89.05 M-58.5 -105.35 L-58.65 -105.7 -58.75 -105.95 -58.75 -106.8 -58.75 -107.15 Q-58.65 -109.7 -57.15 -113.05 L-56.8 -113.85 Q-53.95 -119.85 -49.75 -119.6 -46.85 -123.45 -43.1 -122.5 -41.8 -122.2 -40.55 -121.55 -39.4 -120.45 -39.4 -119.8 -39.4 -116.9 -42.85 -114.8 L-42.95 -114.75 Q-46.25 -112.85 -50.65 -112.6 -52.45 -112.5 -53.85 -111.6 -55.25 -110.7 -55.8 -109.35 -56.35 -107.2 -56.65 -106.5 -57.1 -105.35 -58.45 -105.35 L-58.5 -105.35 M-27.05 -104.6 L-27.15 -104.5 Q-28.3 -103.45 -31.25 -103.0 L-38.55 -102.0 -41.4 -100.55 -42.25 -100.1 Q-43.75 -99.25 -44.65 -98.0 L-46.7 -95.6 -47.75 -93.9 -47.7 -94.45 Q-47.7 -96.95 -45.2 -99.6 -43.2 -101.7 -40.3 -102.75 L-36.0 -103.7 Q-35.15 -105.2 -34.05 -105.95 -32.3 -107.15 -29.9 -106.3 -27.95 -105.55 -27.05 -104.6 M-78.85 -105.5 Q-78.25 -108.2 -72.6 -106.3 -66.5 -104.2 -66.3 -101.75 L-67.1 -101.7 Q-68.9 -101.7 -72.95 -103.7 -77.0 -105.7 -77.85 -105.7 L-78.85 -105.5 M-79.6 -77.35 L-79.9 -77.9 -80.0 -79.6 Q-80.0 -81.3 -78.15 -84.35 L-77.65 -85.15 Q-75.0 -89.2 -72.6 -89.2 L-71.85 -88.9 -71.6 -88.45 Q-69.85 -89.9 -67.3 -89.85 -66.95 -89.45 -66.95 -88.8 -66.95 -87.15 -68.8 -85.9 L-72.45 -83.25 -73.1 -82.55 -75.6 -80.05 Q-78.45 -77.35 -79.35 -77.35 L-79.6 -77.35 M-62.4 -56.5 L-62.1 -57.6 -61.35 -59.85 Q-60.6 -61.15 -58.65 -61.4 -58.25 -62.2 -57.65 -65.95 -57.3 -67.25 -55.85 -68.2 -54.45 -69.2 -52.05 -69.85 -48.2 -70.9 -47.9 -69.3 L-47.9 -69.25 -51.3 -66.75 -53.2 -65.6 -56.85 -63.3 Q-57.3 -61.55 -59.2 -59.1 -60.9 -56.85 -62.4 -56.5 M-23.95 1.0 L-24.85 1.0 -27.3 0.75 -22.75 -1.15 Q-17.95 -3.15 -17.45 -3.6 -16.35 -4.6 -12.5 -5.1 -8.85 -5.5 -7.6 -7.2 L-3.05 -10.3 -3.05 -10.15 -3.95 -9.1 Q-5.2 -7.9 -5.5 -6.2 L-5.75 -4.3 Q-5.7 -4.1 -4.5 -3.1 L-3.4 -2.4 -2.55 -1.9 -2.5 -1.9 Q-1.9 -1.3 -1.4 -1.3 -0.05 -1.3 1.25 -1.9 2.6 -2.55 3.4 -2.55 L5.15 -2.3 6.35 -1.8 6.65 -1.8 7.35 -1.85 9.5 -1.45 10.55 -1.45 Q9.55 -2.3 7.4 -5.3 4.95 -8.8 4.75 -10.2 L5.45 -10.45 Q5.85 -10.45 8.15 -7.9 10.65 -5.1 12.6 -4.5 L19.8 -2.35 26.85 -0.25 21.25 0.25 11.7 -0.3 Q11.4 -0.3 9.05 1.35 L7.1 2.5 Q5.65 3.1 4.2 3.15 L0.3 3.3 -0.05 3.3 -2.0 3.15 -4.95 2.15 -5.35 1.75 -6.5 0.4 Q-7.45 -0.7 -9.5 -0.95 -11.6 -1.2 -13.75 -0.05 -16.0 1.1 -19.0 1.0 L-23.95 1.0 M11.85 -35.95 L13.45 -35.7 Q13.8 -35.3 13.4 -34.25 12.95 -33.15 13.5 -32.65 L14.8 -32.45 16.05 -32.4 16.1 -31.95 15.75 -31.6 15.7 -31.55 15.15 -31.45 Q12.85 -31.05 11.9 -31.9 L11.3 -33.65 Q11.2 -34.05 11.85 -35.95 M0.4 -23.5 L0.35 -23.2 Q0.2 -21.9 -0.5 -21.15 -1.25 -20.4 -2.85 -20.45 -3.25 -20.45 -4.95 -21.55 -4.75 -22.85 -4.3 -23.05 -3.8 -23.3 -2.9 -22.6 -1.95 -21.95 -1.3 -22.3 -1.05 -22.45 -0.8 -23.5 -0.5 -24.6 0.25 -24.25 L0.3 -24.15 0.4 -23.6 0.4 -23.5" fill="#f3f7f8" fill-rule="evenodd" stroke="none"/>
      <path d="M112.0 -94.85 L112.1 -94.65 112.1 -93.6 Q111.85 -91.9 110.95 -91.9 110.45 -91.9 109.7 -92.3 L108.5 -91.05 105.35 -89.15 Q102.0 -87.7 100.25 -87.95 98.15 -88.2 98.95 -89.6 L99.3 -89.55 Q101.5 -89.25 102.65 -90.0 L105.5 -92.05 108.15 -92.65 109.35 -93.0 Q111.0 -93.55 112.0 -94.85 M76.6 -112.65 L76.6 -112.5 76.55 -111.9 Q76.4 -110.8 75.45 -110.8 L71.05 -112.5 Q66.7 -114.3 65.0 -114.4 64.2 -114.6 64.0 -115.0 L63.95 -115.65 64.0 -116.2 64.05 -116.4 65.05 -116.6 Q65.9 -116.6 69.95 -114.6 74.0 -112.6 75.8 -112.6 L76.6 -112.65 M90.7 -94.45 L90.75 -94.15 90.7 -93.45 90.2 -92.85 89.8 -92.7 88.8 -93.0 88.65 -94.55 87.55 -94.35 85.35 -95.75 Q83.1 -97.25 82.5 -97.85 L82.35 -96.85 Q82.15 -96.05 81.4 -96.0 L80.4 -96.35 80.35 -99.15 80.35 -99.55 80.45 -100.55 81.3 -100.85 85.35 -97.6 Q88.6 -94.75 90.7 -94.45 M109.5 -63.0 L108.2 -63.25 Q106.5 -63.85 104.65 -67.1 L104.35 -67.8 Q102.7 -70.5 101.95 -70.8 L100.45 -70.95 99.4 -70.95 Q98.8 -71.15 95.75 -74.85 92.55 -78.7 92.9 -79.35 L93.4 -79.8 Q93.95 -80.1 94.95 -79.8 L95.2 -79.7 Q95.45 -78.15 98.1 -76.05 101.0 -73.7 103.15 -72.95 L105.6 -68.9 106.8 -66.8 Q108.15 -64.45 109.5 -63.0 M62.25 -91.85 L62.5 -91.0 62.5 -90.5 Q62.5 -89.7 62.0 -89.0 61.4 -88.3 60.7 -88.3 60.35 -88.3 60.2 -88.6 L59.65 -88.9 56.15 -87.75 Q52.1 -86.65 49.0 -86.65 48.65 -86.65 48.55 -86.35 L48.3 -86.05 48.1 -86.05 Q47.75 -86.05 47.5 -86.35 47.3 -86.65 46.9 -86.65 44.2 -85.25 41.35 -82.5 L40.6 -81.85 40.35 -82.65 Q40.35 -83.6 48.4 -88.3 L48.95 -88.65 60.65 -92.3 62.25 -91.85 M45.15 -70.5 L45.1 -70.0 44.9 -69.8 44.2 -69.6 43.55 -69.8 Q43.1 -70.2 42.85 -71.2 L42.55 -73.15 41.55 -74.85 Q40.75 -76.0 40.6 -76.75 L38.8 -76.7 Q37.7 -77.95 35.7 -78.9 34.4 -79.55 32.3 -79.65 31.35 -79.75 31.35 -81.1 L33.1 -80.45 33.7 -80.35 36.75 -79.9 37.85 -79.5 39.1 -78.6 41.15 -76.7 44.2 -71.8 45.15 -70.5 M73.0 -71.1 L74.55 -70.0 Q75.8 -69.15 76.95 -68.65 77.65 -67.9 77.65 -67.3 L77.4 -66.6 Q77.05 -66.25 76.15 -66.25 75.5 -66.25 70.05 -70.05 L69.15 -70.7 Q63.15 -74.95 63.15 -74.5 L63.15 -74.65 Q63.2 -75.2 63.4 -75.55 L63.6 -75.55 Q64.7 -74.4 67.25 -73.7 L71.2 -72.5 71.65 -72.15 73.0 -71.1 M53.2 -121.95 Q53.2 -120.2 52.4 -120.0 L50.35 -120.4 45.45 -119.95 Q44.75 -119.7 42.75 -117.3 L41.4 -115.6 40.75 -114.85 39.05 -114.95 37.3 -115.75 Q35.65 -116.5 31.4 -123.45 30.75 -122.85 30.05 -122.7 24.4 -121.15 23.7 -123.15 L22.7 -125.75 Q21.5 -127.95 19.3 -127.95 17.1 -128.0 12.35 -124.4 7.6 -120.8 5.35 -122.1 3.05 -123.4 2.65 -124.65 L2.15 -126.75 Q2.6 -125.1 4.35 -123.4 5.95 -121.75 8.95 -124.4 L15.75 -129.9 Q19.45 -132.7 21.7 -129.65 L24.45 -125.9 Q25.75 -124.4 27.8 -124.6 L31.5 -124.9 Q33.35 -124.8 34.5 -124.05 L37.65 -120.4 Q39.6 -118.2 40.9 -117.65 42.2 -117.15 43.75 -119.8 45.35 -122.55 46.45 -122.6 L49.25 -123.0 Q50.9 -123.35 53.2 -121.95 M46.65 -106.65 L46.65 -106.2 Q46.65 -104.85 46.35 -104.2 L45.9 -103.65 45.35 -103.5 43.9 -103.85 42.4 -104.2 Q40.8 -104.2 38.65 -102.75 37.75 -102.2 36.75 -101.35 33.35 -98.5 32.55 -98.5 31.4 -98.5 31.05 -100.15 L31.0 -100.3 30.95 -100.9 32.05 -100.75 Q32.85 -100.75 33.75 -101.5 L35.75 -103.2 Q37.05 -104.2 38.8 -104.8 41.4 -105.7 45.0 -105.7 45.45 -105.7 45.9 -106.0 L46.65 -106.65 M20.2 -112.2 Q20.6 -111.35 21.85 -110.95 25.05 -109.95 25.6 -109.3 L27.1 -105.45 Q27.7 -103.9 28.9 -103.5 L28.1 -103.3 27.75 -103.3 Q25.95 -103.3 26.0 -105.2 L26.0 -107.65 25.95 -107.8 22.9 -109.25 Q20.1 -110.55 20.1 -111.4 L20.1 -111.45 20.2 -112.2 M23.3 -112.3 Q21.4 -113.45 20.65 -112.85 L19.2 -113.65 17.95 -113.45 16.3 -113.4 Q15.0 -113.75 13.85 -114.95 L12.4 -116.3 7.1 -115.85 Q3.75 -115.05 2.3 -115.4 L0.95 -116.6 0.4 -117.25 1.15 -117.1 Q3.25 -116.8 5.15 -117.7 7.65 -118.85 10.05 -118.25 11.3 -117.95 13.4 -116.75 15.4 -115.65 16.85 -115.25 L20.9 -115.35 22.25 -115.8 23.95 -112.5 23.3 -112.3 M-1.9 -122.45 L-1.7 -122.05 -1.6 -121.6 Q-1.6 -121.15 -1.75 -120.85 -2.0 -120.5 -2.6 -120.45 L-4.7 -120.55 -5.7 -120.2 Q-6.3 -119.85 -6.7 -119.85 -7.85 -119.85 -7.9 -120.95 -7.9 -122.05 -8.8 -122.05 -9.15 -122.05 -16.0 -116.8 -16.85 -116.8 -17.0 -117.3 L-17.05 -117.4 -17.1 -117.6 -13.85 -120.65 Q-10.3 -123.75 -8.9 -123.75 -8.1 -123.75 -7.0 -122.6 -5.9 -121.45 -4.7 -121.45 -3.8 -121.45 -1.9 -122.45 M-9.1 -114.7 L-8.75 -114.3 -8.4 -113.7 -8.25 -112.95 -8.4 -112.7 Q-9.0 -112.15 -12.2 -110.75 -12.7 -110.55 -13.25 -110.3 -18.3 -108.2 -22.65 -106.95 L-26.0 -106.95 -26.7 -107.7 Q-27.05 -108.3 -27.05 -109.05 L-26.3 -108.8 -23.9 -108.2 Q-22.15 -108.2 -20.25 -109.5 L-15.85 -112.2 -15.65 -112.2 -11.8 -113.2 Q-10.0 -113.85 -9.1 -114.7 M4.5 -97.8 L4.75 -97.65 5.4 -97.3 5.65 -96.55 5.6 -96.15 4.8 -95.45 3.35 -96.05 3.0 -95.0 Q2.95 -94.85 0.7 -93.8 -1.7 -92.6 -2.55 -92.4 L-1.75 -91.75 Q-1.2 -91.2 -1.5 -90.55 L-2.3 -89.8 -4.75 -91.15 -5.1 -91.35 -5.9 -91.95 -5.75 -92.85 Q-5.55 -93.2 -0.9 -94.75 3.2 -96.1 4.5 -97.8 M21.8 -82.9 L21.8 -82.6 21.75 -81.4 Q21.6 -80.75 20.85 -80.7 L20.75 -80.7 16.1 -88.0 16.3 -89.05 Q17.3 -88.05 18.9 -85.1 19.85 -83.25 21.8 -82.9 M-58.5 -105.35 L-58.45 -105.35 Q-57.1 -105.35 -56.65 -106.5 -56.35 -107.2 -55.8 -109.35 -55.25 -110.7 -53.85 -111.6 -52.45 -112.5 -50.65 -112.6 -46.25 -112.85 -42.95 -114.75 L-42.85 -114.8 Q-39.4 -116.9 -39.4 -119.8 -39.4 -120.45 -40.55 -121.55 -38.05 -120.25 -35.6 -117.55 L-35.65 -117.25 -36.1 -114.8 Q-36.35 -113.45 -38.95 -112.45 -40.5 -111.85 -42.85 -111.3 L-50.35 -109.95 Q-51.45 -109.95 -53.85 -105.5 -55.25 -102.95 -56.2 -102.55 L-57.15 -102.8 -57.35 -103.1 -58.5 -105.35 M-47.75 -93.9 L-46.7 -95.6 -44.65 -98.0 Q-43.75 -99.25 -42.25 -100.1 L-41.4 -100.55 -38.55 -102.0 -31.25 -103.0 Q-28.3 -103.45 -27.15 -104.5 L-27.05 -104.6 -26.95 -104.45 -26.5 -103.6 -26.4 -102.9 Q-26.4 -102.4 -27.05 -101.55 -27.8 -100.65 -28.5 -100.65 L-30.3 -100.95 -32.15 -101.25 -33.15 -100.9 -34.05 -100.2 -39.95 -99.6 Q-41.3 -99.5 -41.85 -98.95 L-42.1 -98.65 Q-42.4 -97.7 -42.9 -97.35 L-44.55 -95.1 Q-46.0 -93.15 -46.5 -93.15 L-46.75 -93.15 Q-47.55 -93.25 -47.7 -93.75 L-47.75 -93.9 M-66.3 -101.75 L-66.3 -101.6 -66.35 -101.0 Q-66.5 -99.9 -67.45 -99.9 L-71.85 -101.6 Q-76.2 -103.4 -77.9 -103.5 L-78.9 -104.1 -78.95 -104.75 -78.9 -105.3 -78.85 -105.5 -77.85 -105.7 Q-77.0 -105.7 -72.95 -103.7 -68.9 -101.7 -67.1 -101.7 L-66.3 -101.75 M-67.3 -89.85 L-66.1 -89.8 Q-63.45 -89.45 -63.0 -88.35 L-62.9 -87.85 -66.05 -85.85 Q-69.5 -83.65 -70.85 -82.15 L-71.05 -81.85 -73.0 -79.4 Q-74.7 -77.4 -76.5 -76.15 L-78.45 -76.15 -79.6 -77.35 -79.35 -77.35 Q-78.45 -77.35 -75.6 -80.05 L-73.1 -82.55 -72.45 -83.25 -68.8 -85.9 Q-66.95 -87.15 -66.95 -88.8 -66.95 -89.45 -67.3 -89.85 M-47.9 -69.25 L-47.95 -68.2 Q-48.3 -66.85 -51.3 -65.1 -51.65 -64.9 -51.95 -64.8 -54.4 -63.25 -54.55 -62.6 L-54.5 -61.5 -54.35 -60.65 Q-54.45 -60.2 -57.65 -57.45 -61.0 -54.6 -61.7 -54.8 -62.05 -54.9 -62.2 -55.1 -62.6 -55.5 -62.45 -56.3 L-62.4 -56.5 Q-60.9 -56.85 -59.2 -59.1 -57.3 -61.55 -56.85 -63.3 L-53.2 -65.6 -51.3 -66.75 -47.9 -69.25 M-3.05 -10.15 Q-4.55 -5.7 -3.4 -2.4 L-4.5 -3.1 Q-5.7 -4.1 -5.75 -4.3 L-5.5 -6.2 Q-5.2 -7.9 -3.95 -9.1 L-3.05 -10.15 M7.35 -1.85 Q7.55 -1.9 6.95 -3.5 L6.1 -5.5 Q4.5 -8.0 4.5 -9.35 4.5 -9.9 4.75 -10.2 4.95 -8.8 7.4 -5.3 9.55 -2.3 10.55 -1.45 L9.5 -1.45 7.35 -1.85 M26.85 -0.25 Q28.1 0.3 28.1 0.65 28.1 1.5 26.9 1.5 L21.6 1.4 17.85 1.4 8.45 2.15 7.1 2.5 9.05 1.35 Q11.4 -0.3 11.7 -0.3 L21.25 0.25 26.85 -0.25 M-4.95 2.15 L-5.75 1.75 Q-7.85 0.7 -12.55 1.7 L-23.95 1.0 -19.0 1.0 Q-16.0 1.1 -13.75 -0.05 -11.6 -1.2 -9.5 -0.95 -7.45 -0.7 -6.5 0.4 L-5.35 1.75 -4.95 2.15 M15.7 -31.55 L12.4 -30.85 Q9.25 -30.45 8.75 -30.9 L8.5 -31.2 9.1 -31.7 9.5 -31.85 9.9 -32.65 10.5 -33.85 11.85 -35.95 Q11.2 -34.05 11.3 -33.65 L11.9 -31.9 Q12.85 -31.05 15.15 -31.45 L15.7 -31.55 M-4.95 -21.55 Q-3.25 -20.45 -2.85 -20.45 -1.25 -20.4 -0.5 -21.15 0.2 -21.9 0.35 -23.2 L0.4 -23.5 0.15 -20.8 Q-0.3 -17.65 -0.85 -17.3 L-1.2 -17.15 -1.55 -17.8 -1.6 -18.25 -2.25 -18.85 -3.25 -19.7 -4.95 -21.55" fill="#bbd1d7" fill-rule="evenodd" stroke="none"/>
      <path d="M21.95 -144.75 Q22.3 -144.3 21.9 -144.1 21.5 -143.85 21.3 -144.25 21.1 -144.65 21.4 -144.9 L21.95 -144.75 M107.8 -94.9 Q108.2 -94.3 107.75 -94.05 107.3 -93.8 106.95 -94.25 106.6 -94.65 107.0 -95.1 107.4 -95.5 107.8 -94.9 M110.95 -95.35 Q111.2 -95.0 110.75 -94.75 110.35 -94.45 110.15 -94.85 109.95 -95.25 110.35 -95.5 110.75 -95.75 110.95 -95.35 M72.05 -116.8 Q72.45 -116.35 71.9 -116.1 71.4 -115.8 71.15 -116.25 70.95 -116.7 71.3 -117.0 71.7 -117.3 72.05 -116.8 M73.6 -115.95 L74.25 -115.85 Q74.5 -115.6 74.2 -115.3 73.85 -115.0 73.55 -115.4 73.2 -115.75 73.6 -115.95 M75.15 -114.4 Q74.9 -114.9 75.4 -115.1 75.9 -115.35 76.2 -114.9 76.45 -114.45 75.9 -114.15 75.4 -113.9 75.15 -114.4 M76.95 -112.2 Q77.1 -111.85 76.75 -111.6 76.45 -111.35 76.2 -111.75 75.9 -112.15 76.35 -112.35 76.75 -112.55 76.95 -112.2 M68.95 -117.15 Q68.65 -117.6 69.15 -117.85 69.6 -118.1 69.85 -117.65 70.05 -117.25 69.65 -117.0 69.25 -116.7 68.95 -117.15 M67.75 -117.75 Q67.6 -118.05 67.9 -118.2 L68.35 -118.05 Q68.5 -117.75 68.2 -117.6 67.9 -117.45 67.75 -117.75 M64.25 -116.4 Q64.5 -116.1 64.15 -115.95 63.85 -115.75 63.7 -116.05 63.55 -116.35 63.8 -116.5 L64.25 -116.4 M65.8 -117.4 Q65.45 -117.1 65.15 -117.5 64.8 -117.85 65.2 -118.05 L65.85 -117.95 Q66.1 -117.7 65.8 -117.4 M80.65 -102.05 Q81.05 -102.35 81.45 -101.9 81.8 -101.5 81.3 -101.25 80.85 -101.0 80.55 -101.4 80.25 -101.8 80.65 -102.05 M80.15 -99.25 Q79.85 -99.05 79.7 -99.4 79.6 -99.75 79.8 -99.95 L80.25 -99.85 Q80.5 -99.5 80.15 -99.25 M82.8 -102.05 Q82.35 -101.75 82.0 -102.15 81.7 -102.6 82.15 -102.85 L82.9 -102.75 Q83.25 -102.3 82.8 -102.05 M86.3 -101.05 Q86.75 -100.45 86.2 -100.1 85.65 -99.7 85.4 -100.3 85.2 -100.9 85.55 -101.25 85.9 -101.6 86.3 -101.05 M84.45 -101.95 Q84.2 -101.75 84.1 -101.95 84.0 -102.15 84.2 -102.35 84.45 -102.6 84.6 -102.35 84.7 -102.1 84.45 -101.95 M89.5 -96.65 L88.95 -96.75 Q88.7 -97.05 89.05 -97.25 L89.6 -97.15 Q89.85 -96.85 89.5 -96.65 M88.35 -98.25 Q87.75 -97.95 87.4 -98.45 87.0 -98.95 87.55 -99.25 88.05 -99.6 88.45 -99.1 88.9 -98.55 88.35 -98.25 M99.55 -91.5 Q99.95 -91.9 100.3 -91.35 100.7 -90.75 100.25 -90.55 L100.1 -90.45 99.85 -90.2 Q99.45 -89.95 99.25 -90.3 99.05 -90.7 99.4 -90.95 99.3 -91.25 99.55 -91.5 M90.0 -94.0 Q89.8 -94.35 90.2 -94.75 L90.85 -94.7 Q91.15 -94.25 90.65 -93.95 L90.0 -94.0 M89.7 -92.45 Q89.5 -92.95 89.8 -93.25 90.1 -93.55 90.45 -93.05 90.8 -92.6 90.35 -92.3 89.9 -92.0 89.7 -92.45 M96.9 -78.95 Q96.4 -78.65 96.0 -79.1 95.6 -79.6 96.25 -80.05 96.9 -80.55 97.15 -79.9 97.45 -79.25 96.9 -78.95 M101.35 -76.8 Q101.8 -76.25 101.2 -75.85 100.6 -75.45 100.25 -76.05 99.9 -76.6 100.4 -76.95 100.85 -77.3 101.35 -76.8 M98.85 -77.95 Q98.5 -77.65 98.25 -78.05 98.05 -78.45 98.55 -78.75 L99.15 -78.65 Q99.25 -78.25 98.85 -77.95 M93.85 -79.3 Q93.65 -79.75 94.05 -79.9 94.4 -80.0 94.65 -79.6 94.9 -79.25 94.45 -79.05 94.0 -78.85 93.85 -79.3 M101.4 -75.15 L102.0 -74.9 Q102.2 -74.55 101.8 -74.4 101.4 -74.2 101.2 -74.65 101.05 -75.05 101.4 -75.15 M61.85 -91.4 Q61.45 -92.0 61.95 -92.2 62.5 -92.45 62.85 -91.95 63.2 -91.4 62.7 -91.15 62.25 -90.85 61.85 -91.4 M61.3 -92.65 Q61.0 -92.4 60.8 -92.75 60.6 -93.1 60.95 -93.3 L61.4 -93.2 Q61.6 -92.9 61.3 -92.65 M64.25 -76.75 Q64.45 -76.4 64.15 -76.2 63.9 -76.0 63.6 -76.35 63.35 -76.7 63.7 -76.9 64.0 -77.1 64.25 -76.75 M68.75 -74.75 Q68.5 -75.35 69.05 -75.6 69.65 -75.85 70.05 -75.3 70.45 -74.8 69.7 -74.5 68.95 -74.2 68.75 -74.75 M71.0 -75.45 Q71.35 -75.7 71.65 -75.3 71.9 -74.9 71.45 -74.7 71.0 -74.45 70.85 -74.85 70.7 -75.25 71.0 -75.45 M66.75 -73.95 Q66.6 -74.6 67.0 -74.85 67.35 -75.1 67.75 -74.5 68.1 -73.85 67.5 -73.6 66.9 -73.3 66.75 -73.95 M65.9 -76.1 Q65.75 -76.4 66.05 -76.6 66.3 -76.75 66.45 -76.5 L66.3 -76.05 65.9 -76.1 M72.35 -73.75 L72.9 -73.65 Q73.1 -73.3 72.75 -73.0 72.4 -72.75 72.2 -73.1 72.0 -73.5 72.35 -73.75 M73.15 -70.55 Q72.75 -70.35 72.65 -70.8 72.55 -71.25 72.8 -71.4 73.1 -71.55 73.3 -71.15 73.55 -70.75 73.15 -70.55 M76.8 -66.8 Q76.5 -67.35 77.0 -67.7 77.5 -68.05 77.95 -67.5 78.35 -66.9 77.75 -66.55 77.1 -66.2 76.8 -66.8 M112.15 -93.85 Q111.85 -93.65 111.6 -94.05 111.35 -94.45 111.7 -94.65 112.05 -94.85 112.25 -94.45 112.5 -94.1 112.15 -93.85 M104.3 -93.7 Q103.9 -93.4 103.6 -93.9 103.35 -94.4 103.75 -94.6 104.15 -94.85 104.4 -94.4 104.65 -94.0 104.3 -93.7 M105.7 -93.95 Q105.5 -94.25 105.85 -94.55 L106.4 -94.5 Q106.65 -94.1 106.25 -93.85 105.9 -93.65 105.7 -93.95 M102.1 -92.15 Q101.7 -91.85 101.5 -92.25 101.3 -92.65 101.7 -92.9 102.1 -93.15 102.3 -92.75 102.55 -92.4 102.1 -92.15 M105.75 -73.75 L106.3 -73.65 Q106.4 -73.25 106.05 -73.0 105.7 -72.7 105.5 -73.1 105.3 -73.45 105.75 -73.75 M104.55 -73.85 Q104.05 -73.6 103.7 -74.0 103.3 -74.4 103.9 -74.85 104.5 -75.3 104.75 -74.7 105.0 -74.15 104.55 -73.85 M109.25 -70.2 Q108.7 -69.95 108.45 -70.5 108.25 -71.1 108.7 -71.2 109.2 -71.35 109.5 -70.9 109.8 -70.45 109.25 -70.2 M108.8 -72.3 Q108.35 -72.0 108.15 -72.4 107.9 -72.8 108.25 -73.05 L108.9 -72.9 Q109.2 -72.55 108.8 -72.3 M110.1 -68.45 Q109.8 -68.75 110.25 -69.1 110.7 -69.45 110.9 -69.0 111.1 -68.55 110.75 -68.35 L110.1 -68.45 M111.35 -67.25 Q111.45 -66.95 111.15 -66.65 110.8 -66.4 110.6 -66.75 110.45 -67.1 110.85 -67.35 111.3 -67.6 111.35 -67.25 M111.2 -63.95 Q110.7 -63.6 110.4 -64.1 110.1 -64.6 110.5 -64.9 110.9 -65.15 111.3 -64.7 111.7 -64.25 111.2 -63.95 M109.05 -62.25 Q108.85 -62.85 109.3 -62.95 109.8 -63.1 110.1 -62.65 110.4 -62.2 109.85 -61.95 109.3 -61.7 109.05 -62.25 M49.6 -126.1 Q49.2 -125.75 48.95 -126.2 48.7 -126.6 49.1 -127.0 L49.75 -126.95 Q50.05 -126.45 49.6 -126.1 M47.3 -125.95 Q46.9 -125.7 46.7 -126.1 46.5 -126.5 46.8 -126.75 47.05 -127.0 47.35 -126.6 47.7 -126.15 47.3 -125.95 M44.75 -125.7 Q44.95 -125.4 44.65 -125.25 44.35 -125.1 44.2 -125.4 44.05 -125.65 44.3 -125.85 L44.75 -125.7 M41.3 -123.7 Q41.45 -123.4 41.2 -123.2 L40.75 -123.25 Q40.6 -123.5 40.85 -123.75 L41.3 -123.7 M42.35 -124.6 Q41.95 -125.2 42.55 -125.4 43.1 -125.6 43.45 -125.1 43.8 -124.6 43.3 -124.3 42.75 -124.0 42.35 -124.6 M51.05 -126.1 Q50.9 -126.3 51.1 -126.4 L51.45 -126.25 Q51.6 -126.1 51.4 -126.0 51.2 -125.9 51.05 -126.1 M53.6 -121.35 Q53.0 -121.0 52.7 -121.6 52.4 -122.25 52.8 -122.65 53.25 -123.05 53.75 -122.4 54.25 -121.75 53.6 -121.35 M52.95 -123.9 Q52.6 -123.7 52.35 -124.1 52.15 -124.45 52.5 -124.65 L53.1 -124.5 Q53.3 -124.15 52.95 -123.9 M24.3 -143.5 Q24.15 -143.75 24.4 -144.0 L24.85 -143.95 Q25.0 -143.65 24.75 -143.45 L24.3 -143.5 M25.3 -141.35 Q24.95 -141.2 24.7 -141.55 24.45 -141.95 24.8 -142.05 25.2 -142.2 25.4 -141.85 25.6 -141.55 25.3 -141.35 M25.25 -139.1 Q24.9 -138.9 24.65 -139.3 24.45 -139.65 24.8 -139.85 25.15 -140.1 25.4 -139.7 25.6 -139.35 25.25 -139.1 M24.3 -136.6 Q24.05 -137.1 24.4 -137.4 24.75 -137.7 25.15 -137.2 25.55 -136.7 25.05 -136.4 24.55 -136.1 24.3 -136.6 M25.1 -135.45 Q25.4 -134.95 24.95 -134.55 24.5 -134.2 24.25 -134.65 23.95 -135.1 24.4 -135.55 24.8 -135.95 25.1 -135.45 M24.4 -132.6 Q24.1 -133.05 24.5 -133.15 24.95 -133.3 25.2 -132.95 25.45 -132.55 25.1 -132.35 24.7 -132.15 24.4 -132.6 M25.85 -130.95 Q25.4 -130.7 25.15 -131.15 24.9 -131.55 25.3 -131.85 25.7 -132.1 26.0 -131.65 26.25 -131.2 25.85 -130.95 M26.45 -129.25 Q26.3 -129.55 26.5 -129.75 L26.95 -129.6 Q27.2 -129.3 26.9 -129.1 26.6 -128.95 26.45 -129.25 M27.5 -127.4 Q27.35 -127.65 27.6 -127.9 L28.05 -127.85 Q28.2 -127.55 27.95 -127.35 L27.5 -127.4 M29.35 -126.15 Q29.05 -126.6 29.5 -126.75 29.95 -126.9 30.25 -126.5 30.5 -126.1 30.1 -125.9 29.7 -125.65 29.35 -126.15 M30.65 -128.35 Q31.05 -128.65 31.35 -128.15 31.65 -127.7 31.2 -127.4 30.75 -127.15 30.45 -127.65 30.2 -128.1 30.65 -128.35 M32.5 -128.1 Q32.3 -128.5 32.6 -128.75 32.85 -129.0 33.15 -128.6 33.5 -128.15 33.1 -127.95 32.7 -127.7 32.5 -128.1 M35.1 -126.4 L34.45 -126.45 Q34.25 -126.85 34.6 -127.25 34.95 -127.6 35.25 -127.15 35.5 -126.7 35.1 -126.4 M36.65 -125.25 Q36.4 -125.65 36.75 -125.75 37.15 -125.9 37.35 -125.55 37.55 -125.25 37.25 -125.05 36.9 -124.9 36.65 -125.25 M37.6 -124.4 Q38.15 -124.75 38.5 -124.15 38.85 -123.6 38.3 -123.3 37.75 -122.95 37.4 -123.5 37.1 -124.05 37.6 -124.4 M40.05 -121.6 Q39.6 -121.35 39.4 -121.75 39.2 -122.2 39.5 -122.5 39.8 -122.75 40.15 -122.3 40.5 -121.85 40.05 -121.6 M34.5 -107.3 Q34.75 -106.95 34.3 -106.75 33.9 -106.6 33.7 -106.9 33.5 -107.2 33.85 -107.45 L34.5 -107.3 M35.75 -108.1 Q36.15 -108.35 36.3 -107.95 36.4 -107.6 36.0 -107.45 35.65 -107.25 35.5 -107.55 35.3 -107.9 35.75 -108.1 M40.45 -110.35 Q40.1 -110.15 39.95 -110.5 39.8 -110.85 40.15 -111.05 40.5 -111.25 40.65 -110.9 40.8 -110.55 40.45 -110.35 M37.75 -109.85 Q38.2 -110.0 38.3 -109.65 L38.05 -109.1 Q37.7 -108.9 37.5 -109.3 37.3 -109.75 37.75 -109.85 M20.65 -117.55 Q20.4 -118.15 20.95 -118.5 21.45 -118.85 21.65 -118.35 21.8 -117.9 21.35 -117.45 20.95 -117.0 20.65 -117.55 M21.8 -115.8 Q21.6 -116.05 21.95 -116.25 22.35 -116.45 22.6 -116.1 22.8 -115.75 22.4 -115.65 22.0 -115.5 21.8 -115.8 M22.35 -113.45 L22.25 -113.15 Q22.0 -112.95 21.9 -113.15 21.75 -113.35 21.95 -113.5 L22.35 -113.45 M25.4 -108.05 Q25.7 -108.2 25.85 -107.9 26.05 -107.6 25.8 -107.5 25.55 -107.35 25.35 -107.65 25.15 -107.9 25.4 -108.05 M20.65 -111.9 Q20.25 -111.55 19.9 -112.0 19.55 -112.45 19.95 -112.8 20.3 -113.15 20.7 -112.7 21.05 -112.2 20.65 -111.9 M23.75 -111.65 Q23.55 -111.95 23.9 -112.25 L24.5 -112.1 Q24.75 -111.75 24.35 -111.55 L23.75 -111.65 M26.5 -110.45 Q26.6 -110.1 26.35 -109.95 26.05 -109.8 25.9 -110.1 25.7 -110.4 26.05 -110.6 26.45 -110.8 26.5 -110.45 M27.85 -108.9 Q28.1 -109.15 28.4 -108.8 28.65 -108.45 28.35 -108.25 L27.8 -108.3 Q27.55 -108.65 27.85 -108.9 M28.5 -106.4 Q28.25 -106.8 28.7 -107.05 L29.45 -106.95 Q29.7 -106.6 29.25 -106.3 28.8 -106.0 28.5 -106.4 M29.3 -104.75 Q29.1 -105.05 29.4 -105.3 L30.0 -105.2 Q30.2 -104.85 29.85 -104.65 L29.3 -104.75 M28.05 -103.45 Q28.5 -103.7 28.6 -103.3 28.7 -102.9 28.35 -102.7 28.05 -102.5 27.85 -102.85 27.65 -103.2 28.05 -103.45 M31.4 -105.85 Q31.3 -106.1 31.55 -106.25 L31.95 -106.1 Q32.1 -105.85 31.8 -105.7 31.55 -105.55 31.4 -105.85 M31.35 -101.9 Q31.45 -101.5 31.1 -101.3 30.7 -101.1 30.5 -101.45 30.3 -101.8 30.8 -102.05 31.25 -102.3 31.35 -101.9 M31.35 -103.6 Q31.5 -103.2 31.05 -102.95 30.65 -102.7 30.45 -103.2 30.2 -103.65 30.75 -103.8 31.25 -103.95 31.35 -103.6 M42.25 -110.75 Q42.05 -111.05 42.4 -111.3 L43.05 -111.15 Q43.3 -110.8 42.85 -110.6 42.45 -110.45 42.25 -110.75 M44.75 -109.8 Q44.25 -109.55 44.0 -110.0 43.75 -110.45 44.4 -110.75 45.0 -111.05 45.15 -110.55 45.3 -110.05 44.75 -109.8 M46.3 -108.05 Q45.9 -107.8 45.7 -108.25 45.5 -108.7 46.0 -108.85 46.45 -109.0 46.55 -108.6 46.7 -108.25 46.3 -108.05 M46.5 -104.0 Q46.2 -103.9 46.05 -104.1 45.9 -104.35 46.2 -104.5 L46.6 -104.4 Q46.8 -104.15 46.5 -104.0 M46.95 -105.5 Q46.5 -105.25 46.25 -105.75 46.05 -106.2 46.5 -106.45 46.95 -106.65 47.15 -106.2 47.35 -105.75 46.95 -105.5 M19.25 -143.6 Q19.0 -144.0 19.4 -144.3 19.8 -144.55 20.1 -144.1 20.35 -143.65 19.95 -143.4 19.5 -143.15 19.25 -143.6 M17.2 -142.0 Q16.9 -142.45 17.3 -142.55 17.75 -142.7 18.0 -142.35 18.25 -141.95 17.9 -141.75 17.5 -141.55 17.2 -142.0 M17.0 -138.4 Q17.4 -137.9 16.9 -137.6 16.45 -137.35 16.25 -137.8 16.0 -138.25 16.35 -138.55 16.65 -138.85 17.0 -138.4 M17.3 -139.55 Q17.1 -139.95 17.45 -140.35 L18.1 -140.25 Q18.35 -139.8 17.95 -139.5 L17.3 -139.55 M15.5 -136.85 Q16.05 -137.2 16.4 -136.6 16.75 -136.05 16.2 -135.75 15.65 -135.4 15.3 -135.95 15.0 -136.5 15.5 -136.85 M12.15 -133.35 L11.5 -133.4 Q11.3 -133.8 11.65 -134.2 L12.3 -134.1 Q12.55 -133.65 12.15 -133.35 M13.65 -134.25 Q13.15 -134.0 12.75 -134.55 12.4 -135.15 12.95 -135.3 13.5 -135.5 13.85 -135.0 14.15 -134.55 13.65 -134.25 M5.3 -136.55 Q5.8 -136.7 6.05 -136.3 6.35 -135.85 5.9 -135.6 5.45 -135.4 5.15 -135.9 4.8 -136.4 5.3 -136.55 M3.95 -135.35 L3.3 -135.4 Q3.1 -135.8 3.45 -136.2 L4.1 -136.1 Q4.35 -135.65 3.95 -135.35 M1.55 -132.4 Q1.3 -132.8 1.65 -133.05 2.05 -133.3 2.3 -132.85 2.55 -132.45 2.15 -132.25 1.75 -132.0 1.55 -132.4 M2.3 -134.15 Q2.05 -134.0 1.9 -134.25 L1.95 -134.7 2.35 -134.6 Q2.55 -134.3 2.3 -134.15 M6.95 -134.1 Q6.65 -134.65 7.15 -135.0 7.7 -135.35 8.05 -134.75 8.4 -134.2 7.85 -133.9 7.3 -133.55 6.95 -134.1 M9.05 -133.0 Q8.85 -133.45 9.15 -133.75 9.45 -134.0 9.8 -133.55 10.15 -133.1 9.7 -132.85 9.25 -132.6 9.05 -133.0 M1.85 -129.0 Q1.5 -128.8 1.2 -129.2 0.95 -129.6 1.35 -129.75 1.75 -129.85 2.0 -129.55 2.2 -129.2 1.85 -129.0 M2.0 -127.0 L1.35 -127.05 Q1.15 -127.45 1.5 -127.85 1.85 -128.2 2.15 -127.75 2.4 -127.3 2.0 -127.0 M8.1 -120.05 Q8.4 -119.55 7.9 -119.45 7.35 -119.3 7.1 -119.65 6.8 -120.0 7.3 -120.25 7.8 -120.5 8.1 -120.05 M9.4 -120.1 Q9.65 -119.75 9.3 -119.45 8.9 -119.2 8.6 -119.65 8.3 -120.1 8.7 -120.25 L9.4 -120.1 M11.15 -120.3 Q10.85 -120.75 11.35 -121.15 11.85 -121.6 12.2 -121.0 12.55 -120.35 12.0 -120.1 11.45 -119.8 11.15 -120.3 M13.45 -120.3 Q13.25 -120.75 13.65 -121.05 L14.25 -120.95 Q14.4 -120.55 14.0 -120.2 13.65 -119.8 13.45 -120.3 M-17.0 -120.0 L-16.9 -120.5 Q-16.65 -120.65 -16.5 -120.35 -16.35 -120.1 -16.65 -119.9 -16.95 -119.7 -17.0 -120.0 M-15.0 -122.3 Q-14.65 -122.5 -14.45 -122.1 -14.3 -121.7 -14.7 -121.6 -15.05 -121.45 -15.25 -121.75 -15.4 -122.1 -15.0 -122.3 M-11.95 -124.5 L-11.85 -125.0 Q-11.6 -125.2 -11.4 -124.9 -11.25 -124.6 -11.5 -124.4 -11.8 -124.15 -11.95 -124.5 M-13.85 -123.25 L-13.7 -123.8 Q-13.4 -124.0 -13.15 -123.65 -12.9 -123.35 -13.3 -123.15 -13.7 -122.95 -13.85 -123.25 M-5.3 -122.8 L-5.6 -122.85 -5.5 -123.2 -5.2 -123.15 Q-5.0 -122.9 -5.3 -122.8 M-9.3 -124.8 L-9.2 -125.3 Q-8.95 -125.45 -8.8 -125.15 -8.65 -124.9 -8.95 -124.7 -9.25 -124.5 -9.3 -124.8 M-7.65 -124.55 Q-7.35 -124.75 -7.2 -124.4 -7.1 -124.1 -7.4 -124.0 -7.7 -123.9 -7.85 -124.15 L-7.65 -124.55 M-2.3 -121.4 Q-2.55 -121.9 -2.0 -122.3 -1.45 -122.7 -1.2 -122.1 -0.9 -121.5 -1.5 -121.15 -2.05 -120.85 -2.3 -121.4 M0.3 -117.8 L1.0 -117.6 Q1.3 -117.25 0.9 -116.95 0.5 -116.65 0.2 -117.1 -0.1 -117.6 0.3 -117.8 M-8.0 -114.0 Q-8.45 -113.7 -8.7 -114.15 -9.0 -114.65 -8.55 -114.95 -8.1 -115.25 -7.8 -114.75 -7.5 -114.3 -8.0 -114.0 M-13.15 -116.3 Q-13.4 -116.85 -12.95 -117.05 -12.55 -117.25 -12.3 -116.85 -12.05 -116.5 -12.45 -116.1 -12.85 -115.75 -13.15 -116.3 M-10.2 -115.25 Q-10.6 -114.85 -10.9 -115.25 -11.25 -115.7 -10.85 -116.0 L-10.15 -115.95 Q-9.8 -115.6 -10.2 -115.25 M-14.2 -116.35 Q-14.65 -115.85 -15.05 -116.35 -15.4 -116.85 -14.85 -117.25 L-14.0 -117.2 Q-13.7 -116.8 -14.2 -116.35 M-16.9 -116.7 Q-16.7 -116.45 -16.95 -116.3 -17.25 -116.1 -17.4 -116.4 -17.55 -116.65 -17.3 -116.8 L-16.9 -116.7 M-19.0 -114.9 Q-19.2 -114.7 -19.4 -114.9 L-19.35 -115.3 Q-19.15 -115.5 -18.95 -115.3 -18.8 -115.1 -19.0 -114.9 M-4.85 -96.25 Q-4.45 -96.45 -4.25 -96.1 -4.05 -95.75 -4.4 -95.55 -4.75 -95.3 -4.95 -95.65 -5.2 -96.05 -4.85 -96.25 M-2.85 -97.0 Q-3.05 -97.25 -2.75 -97.45 L-2.25 -97.35 Q-2.1 -97.05 -2.4 -96.9 -2.7 -96.7 -2.85 -97.0 M-0.45 -97.25 Q-0.65 -97.55 -0.35 -97.65 L0.1 -97.55 Q0.25 -97.3 0.0 -97.15 -0.25 -96.95 -0.45 -97.25 M16.4 -118.1 Q16.1 -118.55 16.5 -118.7 16.85 -118.85 17.1 -118.5 17.35 -118.2 17.0 -117.95 16.7 -117.7 16.4 -118.1 M18.25 -118.15 Q18.1 -118.4 18.35 -118.65 L18.9 -118.55 Q19.1 -118.2 18.75 -118.0 18.45 -117.85 18.25 -118.15 M14.5 -118.2 Q14.2 -118.55 14.7 -118.8 15.2 -119.05 15.5 -118.6 15.8 -118.1 15.3 -118.0 14.75 -117.85 14.5 -118.2 M3.35 -117.65 Q2.9 -117.4 2.65 -117.8 2.4 -118.2 2.8 -118.55 3.2 -118.85 3.5 -118.35 3.8 -117.85 3.35 -117.65 M4.55 -118.35 Q4.35 -118.8 4.75 -119.1 L5.35 -119.0 Q5.5 -118.6 5.1 -118.25 4.75 -117.85 4.55 -118.35 M1.3 -97.6 Q1.0 -98.0 1.45 -98.25 1.95 -98.5 2.15 -98.05 2.35 -97.6 2.0 -97.4 1.65 -97.2 1.3 -97.6 M4.65 -97.55 Q4.3 -97.3 4.1 -97.65 3.85 -98.05 4.2 -98.25 4.6 -98.45 4.8 -98.1 5.0 -97.75 4.65 -97.55 M5.8 -96.55 Q5.45 -96.35 5.3 -96.65 5.1 -97.0 5.45 -97.2 L5.95 -97.1 Q6.15 -96.75 5.8 -96.55 M18.55 -89.2 Q18.2 -89.65 18.6 -89.8 L19.25 -89.7 Q19.55 -89.4 19.25 -89.1 18.9 -88.75 18.55 -89.2 M17.35 -89.3 Q17.65 -88.8 17.15 -88.5 16.65 -88.15 16.4 -88.7 16.2 -89.2 16.6 -89.5 17.0 -89.8 17.35 -89.3 M19.9 -87.85 Q19.7 -88.3 20.05 -88.55 L20.7 -88.45 Q20.9 -88.1 20.5 -87.75 20.05 -87.35 19.9 -87.85 M-6.55 -93.35 Q-6.9 -93.15 -7.25 -93.55 -7.55 -93.95 -7.1 -94.2 -6.6 -94.45 -6.4 -94.0 -6.2 -93.55 -6.55 -93.35 M-5.7 -92.15 Q-6.05 -91.95 -6.3 -92.35 -6.55 -92.75 -6.15 -92.95 -5.75 -93.15 -5.55 -92.8 -5.35 -92.4 -5.7 -92.15 M58.05 -93.05 Q57.7 -93.45 58.15 -93.7 58.55 -93.95 58.85 -93.5 59.1 -93.05 58.75 -92.85 58.4 -92.65 58.05 -93.05 M56.75 -94.2 Q57.05 -93.85 56.6 -93.6 56.2 -93.35 55.9 -93.75 55.55 -94.1 56.05 -94.3 L56.75 -94.2 M51.85 -92.15 Q51.5 -91.85 51.3 -92.25 51.1 -92.7 51.45 -92.9 51.85 -93.1 52.05 -92.75 52.25 -92.45 51.85 -92.15 M54.45 -92.9 Q54.0 -92.65 53.65 -93.2 53.25 -93.7 53.75 -93.9 54.25 -94.15 54.55 -93.65 54.9 -93.2 54.45 -92.9 M49.7 -92.8 Q49.4 -93.1 49.75 -93.3 50.1 -93.5 50.3 -93.15 50.5 -92.8 50.25 -92.65 49.95 -92.5 49.7 -92.8 M46.45 -91.7 Q46.6 -91.45 46.35 -91.3 46.15 -91.2 45.95 -91.45 45.8 -91.7 46.0 -91.8 L46.45 -91.7 M47.9 -92.4 Q47.45 -92.1 47.1 -92.5 46.75 -92.95 47.25 -93.15 47.8 -93.35 48.05 -93.0 48.35 -92.65 47.9 -92.4 M42.4 -88.95 Q41.95 -88.65 41.55 -89.1 41.2 -89.55 41.75 -89.75 L42.6 -89.6 Q42.9 -89.25 42.4 -88.95 M44.5 -89.55 L44.7 -89.7 Q45.1 -89.95 45.3 -89.6 45.55 -89.2 45.15 -88.9 L44.75 -88.8 44.5 -88.55 Q44.0 -88.3 43.55 -88.85 43.1 -89.35 43.7 -89.65 L44.5 -89.55 M41.85 -82.6 Q42.15 -82.3 41.8 -81.95 L41.15 -82.0 Q40.85 -82.5 41.2 -82.7 L41.85 -82.6 M42.5 -79.75 Q42.7 -79.45 42.35 -79.25 L41.75 -79.35 Q41.5 -79.7 41.9 -79.9 L42.5 -79.75 M41.65 -80.95 Q42.0 -80.35 41.45 -79.9 40.95 -79.45 40.65 -80.05 40.3 -80.65 40.85 -81.05 41.35 -81.5 41.65 -80.95 M43.1 -77.3 L43.7 -77.2 Q43.95 -76.8 43.5 -76.6 43.05 -76.4 42.9 -76.7 42.75 -77.05 43.1 -77.3 M44.35 -74.35 Q44.15 -74.1 44.0 -74.4 43.85 -74.65 44.0 -74.75 L44.4 -74.7 Q44.6 -74.55 44.35 -74.35 M45.3 -70.55 Q45.6 -70.15 45.15 -69.85 44.75 -69.55 44.4 -70.0 44.05 -70.45 44.55 -70.7 45.05 -70.95 45.3 -70.55 M45.6 -72.1 Q45.2 -71.75 44.95 -72.2 44.7 -72.65 45.1 -72.95 45.5 -73.3 45.75 -72.85 46.0 -72.45 45.6 -72.1 M33.2 -82.8 Q33.45 -82.4 33.05 -82.1 32.65 -81.8 32.4 -82.25 32.2 -82.7 32.6 -82.9 L33.2 -82.8 M34.85 -83.75 Q34.45 -83.55 34.15 -84.0 33.85 -84.4 34.25 -84.6 34.65 -84.75 34.9 -84.35 35.2 -83.95 34.85 -83.75 M39.75 -87.3 Q39.4 -87.8 39.85 -88.0 40.3 -88.2 40.65 -87.75 40.95 -87.3 40.5 -87.05 40.1 -86.8 39.75 -87.3 M40.2 -86.1 Q40.45 -85.7 40.0 -85.35 39.6 -85.05 39.35 -85.5 39.1 -86.0 39.5 -86.25 39.95 -86.5 40.2 -86.1 M36.15 -84.95 Q35.8 -85.3 36.3 -85.5 L37.0 -85.4 Q37.3 -85.05 36.85 -84.8 36.45 -84.55 36.15 -84.95 M38.15 -83.65 Q38.7 -83.95 39.05 -83.4 39.35 -82.85 38.9 -82.6 38.45 -82.35 38.05 -82.85 37.65 -83.35 38.15 -83.65 M21.5 -83.75 Q21.3 -84.2 21.65 -84.45 22.0 -84.7 22.3 -84.25 22.6 -83.85 22.15 -83.55 21.7 -83.25 21.5 -83.75 M21.45 -85.6 Q21.3 -86.05 21.7 -86.35 L22.45 -86.25 Q22.75 -85.8 22.2 -85.5 21.65 -85.15 21.45 -85.6 M21.65 -81.55 Q21.25 -82.05 21.7 -82.3 L22.45 -82.15 Q22.8 -81.8 22.45 -81.45 22.05 -81.05 21.65 -81.55 M-38.8 -120.4 Q-39.05 -120.8 -38.6 -121.15 -38.15 -121.5 -37.85 -121.0 -37.6 -120.55 -38.05 -120.25 -38.55 -119.95 -38.8 -120.4 M-40.15 -120.95 Q-40.5 -120.75 -40.7 -121.05 L-40.65 -121.55 Q-40.4 -121.75 -40.1 -121.4 -39.85 -121.1 -40.15 -120.95 M-48.75 -120.05 Q-49.2 -119.8 -49.45 -120.2 -49.7 -120.6 -49.35 -120.85 -49.05 -121.1 -48.7 -120.65 -48.3 -120.25 -48.75 -120.05 M-47.75 -122.35 L-47.15 -122.25 Q-46.85 -121.85 -47.3 -121.6 -47.7 -121.3 -47.95 -121.7 -48.15 -122.05 -47.75 -122.35 M-45.25 -123.2 L-44.6 -123.1 Q-44.35 -122.7 -44.8 -122.4 -45.2 -122.15 -45.45 -122.5 -45.65 -122.9 -45.25 -123.2 M-42.65 -122.1 Q-43.0 -122.5 -42.55 -122.8 L-41.85 -122.75 Q-41.6 -122.4 -41.95 -122.05 L-42.65 -122.1 M-50.15 -119.8 Q-50.0 -119.6 -50.25 -119.3 L-50.75 -119.35 Q-50.95 -119.65 -50.65 -119.85 L-50.15 -119.8 M-52.55 -118.6 Q-52.95 -118.4 -53.1 -118.7 -53.3 -119.0 -52.95 -119.3 -52.65 -119.55 -52.45 -119.2 -52.2 -118.85 -52.55 -118.6 M-54.15 -117.2 Q-54.75 -116.85 -55.05 -117.35 -55.35 -117.85 -54.8 -118.25 -54.3 -118.65 -53.95 -118.1 -53.6 -117.55 -54.15 -117.2 M-54.95 -115.65 Q-55.45 -115.35 -55.75 -115.85 -56.1 -116.35 -55.7 -116.65 -55.3 -116.9 -54.85 -116.4 -54.4 -115.9 -54.95 -115.65 M-57.05 -113.75 Q-57.35 -114.1 -56.95 -114.35 L-56.35 -114.3 Q-56.15 -114.0 -56.45 -113.7 L-57.05 -113.75 M-56.8 -112.0 Q-56.45 -111.4 -57.05 -111.05 -57.65 -110.65 -57.95 -111.2 -58.25 -111.7 -57.7 -112.15 -57.2 -112.55 -56.8 -112.0 M-58.65 -108.75 Q-59.25 -108.4 -59.55 -108.9 -59.85 -109.4 -59.3 -109.8 -58.8 -110.2 -58.45 -109.65 -58.1 -109.1 -58.65 -108.75 M-57.85 -107.4 Q-57.4 -106.95 -57.9 -106.65 -58.4 -106.4 -58.7 -106.85 -59.0 -107.35 -58.6 -107.6 -58.25 -107.85 -57.85 -107.4 M-41.6 -101.65 Q-42.1 -101.3 -42.3 -101.85 -42.5 -102.4 -42.05 -102.55 -41.65 -102.7 -41.4 -102.35 -41.1 -101.95 -41.6 -101.65 M-43.7 -101.05 Q-43.6 -100.8 -43.75 -100.65 -43.85 -100.45 -44.0 -100.75 -44.15 -101.05 -43.95 -101.15 -43.75 -101.25 -43.7 -101.05 M-45.6 -100.0 Q-45.1 -100.3 -44.8 -99.85 -44.5 -99.4 -45.1 -99.05 -45.7 -98.75 -45.9 -99.25 -46.15 -99.75 -45.6 -100.0 M-46.3 -98.2 Q-46.0 -97.75 -46.45 -97.35 -46.9 -96.95 -47.2 -97.45 -47.55 -97.95 -47.05 -98.25 L-46.3 -98.2 M-47.05 -94.9 Q-47.6 -94.55 -47.8 -95.15 -48.05 -95.8 -47.55 -95.95 -47.05 -96.15 -46.75 -95.7 -46.45 -95.3 -47.05 -94.9 M-21.05 -114.1 Q-21.4 -113.8 -21.6 -114.25 -21.85 -114.7 -21.5 -114.9 L-20.9 -114.75 Q-20.7 -114.4 -21.05 -114.1 M-22.85 -113.55 Q-22.65 -113.25 -23.0 -112.9 L-23.6 -112.95 Q-23.9 -113.3 -23.45 -113.55 -23.05 -113.8 -22.85 -113.55 M-25.05 -113.05 Q-24.6 -113.4 -24.3 -112.85 -23.95 -112.35 -24.45 -112.05 -24.95 -111.75 -25.25 -112.25 -25.55 -112.75 -25.05 -113.05 M-26.0 -110.5 Q-26.2 -110.3 -26.4 -110.5 L-26.35 -110.9 Q-26.15 -111.1 -25.95 -110.9 -25.8 -110.7 -26.0 -110.5 M-26.75 -108.25 Q-27.25 -107.85 -27.55 -108.45 -27.85 -109.1 -27.35 -109.3 -26.85 -109.55 -26.6 -109.1 -26.3 -108.65 -26.75 -108.25 M-31.8 -107.25 Q-31.65 -107.0 -31.9 -106.75 L-32.4 -106.8 Q-32.6 -107.1 -32.3 -107.35 L-31.8 -107.25 M-37.5 -118.8 Q-37.75 -119.2 -37.3 -119.55 -36.9 -119.9 -36.65 -119.45 -36.35 -119.0 -36.85 -118.7 -37.3 -118.4 -37.5 -118.8 M-30.1 -106.3 Q-29.65 -106.55 -29.4 -106.15 -29.1 -105.75 -29.65 -105.45 -30.2 -105.2 -30.35 -105.65 -30.55 -106.1 -30.1 -106.3 M-34.2 -105.25 Q-34.65 -104.95 -34.8 -105.45 -35.0 -105.95 -34.6 -106.1 -34.2 -106.3 -33.95 -105.9 -33.7 -105.55 -34.2 -105.25 M-35.55 -104.05 Q-35.4 -103.7 -35.6 -103.45 -35.8 -103.2 -36.05 -103.6 -36.25 -104.05 -35.95 -104.25 -35.65 -104.4 -35.55 -104.05 M-39.65 -102.85 Q-39.5 -102.6 -39.75 -102.35 L-40.25 -102.4 Q-40.45 -102.7 -40.15 -102.95 -39.85 -103.15 -39.65 -102.85 M-37.7 -103.7 Q-37.25 -103.95 -37.0 -103.55 -36.7 -103.15 -37.25 -102.85 -37.8 -102.6 -37.95 -103.05 -38.15 -103.5 -37.7 -103.7 M-26.4 -104.15 Q-26.15 -103.8 -26.65 -103.5 -27.1 -103.2 -27.25 -103.7 -27.45 -104.2 -27.05 -104.35 -26.65 -104.55 -26.4 -104.15 M-28.0 -105.2 Q-28.15 -105.55 -27.95 -105.7 -27.7 -105.85 -27.6 -105.55 -27.45 -105.3 -27.65 -105.05 -27.8 -104.85 -28.0 -105.2 M-75.3 -107.35 Q-75.05 -107.1 -75.4 -106.8 -75.8 -106.45 -76.1 -106.8 -76.4 -107.1 -76.0 -107.35 -75.6 -107.55 -75.3 -107.35 M-76.8 -107.4 Q-76.6 -107.1 -76.95 -106.9 -77.3 -106.65 -77.5 -107.0 -77.7 -107.4 -77.35 -107.55 -77.0 -107.75 -76.8 -107.4 M-72.9 -106.1 Q-73.4 -105.75 -73.65 -106.25 -73.9 -106.75 -73.5 -107.1 -73.1 -107.5 -72.75 -106.95 -72.35 -106.45 -72.9 -106.1 M-71.0 -106.25 Q-70.65 -106.4 -70.3 -106.0 -69.95 -105.55 -70.35 -105.35 -70.75 -105.15 -71.1 -105.6 -71.4 -106.05 -71.0 -106.25 M-79.0 -105.45 Q-79.35 -105.25 -79.65 -105.7 -79.95 -106.15 -79.6 -106.3 -79.25 -106.45 -78.95 -106.05 -78.6 -105.65 -79.0 -105.45 M-69.15 -104.7 Q-69.35 -105.0 -69.05 -105.2 L-68.55 -105.05 Q-68.35 -104.75 -68.65 -104.55 -68.95 -104.35 -69.15 -104.7 M-65.6 -101.7 Q-65.25 -101.25 -65.7 -100.95 -66.15 -100.65 -66.4 -101.1 -66.6 -101.5 -66.25 -101.85 -65.9 -102.15 -65.6 -101.7 M-67.6 -103.1 L-67.55 -103.45 -67.15 -103.45 Q-66.95 -103.3 -67.2 -103.1 -67.45 -102.9 -67.6 -103.1 M-64.6 -89.55 Q-64.9 -89.3 -65.2 -89.65 -65.5 -90.0 -65.1 -90.25 -64.75 -90.5 -64.5 -90.15 -64.3 -89.85 -64.6 -89.55 M-69.8 -89.4 Q-70.0 -89.8 -69.6 -90.0 L-68.95 -89.8 Q-68.7 -89.45 -69.15 -89.2 -69.65 -88.95 -69.8 -89.4 M-67.9 -89.25 Q-68.1 -89.45 -67.9 -89.65 L-67.45 -89.6 Q-67.2 -89.35 -67.45 -89.2 L-67.9 -89.25 M-62.85 -87.45 Q-63.2 -87.25 -63.4 -87.7 -63.6 -88.1 -63.2 -88.35 -62.85 -88.6 -62.65 -88.1 -62.5 -87.65 -62.85 -87.45 M-71.25 -88.7 Q-71.05 -88.2 -71.45 -87.95 -71.85 -87.75 -72.05 -88.2 -72.25 -88.65 -71.85 -88.95 -71.4 -89.2 -71.25 -88.7 M-73.1 -89.0 Q-73.45 -88.7 -73.8 -89.1 -74.15 -89.55 -73.7 -89.8 -73.25 -90.1 -73.0 -89.7 -72.75 -89.35 -73.1 -89.0 M-75.7 -88.45 L-75.3 -88.4 Q-75.1 -88.15 -75.3 -88.0 L-75.7 -88.05 Q-75.9 -88.25 -75.7 -88.45 M-77.05 -85.6 Q-77.55 -85.35 -77.7 -85.8 -77.9 -86.2 -77.5 -86.4 -77.15 -86.55 -76.85 -86.2 -76.6 -85.85 -77.05 -85.6 M-78.55 -83.35 Q-78.9 -83.15 -79.1 -83.6 -79.3 -84.0 -78.9 -84.25 -78.55 -84.5 -78.35 -84.0 -78.2 -83.55 -78.55 -83.35 M-80.0 -79.5 Q-80.2 -79.7 -80.0 -79.9 L-79.55 -79.85 Q-79.3 -79.6 -79.55 -79.45 L-80.0 -79.5 M-79.7 -81.95 Q-79.9 -82.2 -79.65 -82.35 L-79.25 -82.3 Q-79.1 -82.1 -79.3 -81.9 L-79.7 -81.95 M-80.65 -77.5 L-80.5 -77.95 Q-80.2 -78.05 -80.0 -77.8 -79.8 -77.55 -80.15 -77.35 -80.5 -77.15 -80.65 -77.5 M-77.8 -76.3 Q-77.6 -75.8 -78.0 -75.55 -78.4 -75.35 -78.6 -75.8 -78.8 -76.25 -78.4 -76.55 -77.95 -76.8 -77.8 -76.3 M-61.0 -59.75 Q-61.55 -59.45 -61.7 -59.95 -61.85 -60.4 -61.4 -60.75 -61.0 -61.1 -60.75 -60.55 -60.5 -60.05 -61.0 -59.75 M-61.75 -57.65 Q-62.05 -57.5 -62.25 -57.8 -62.45 -58.05 -62.15 -58.25 -61.85 -58.45 -61.65 -58.1 -61.45 -57.75 -61.75 -57.65 M-62.45 -56.2 Q-62.75 -56.65 -62.3 -56.85 -61.8 -57.05 -61.6 -56.7 -61.35 -56.4 -61.75 -56.1 -62.1 -55.8 -62.45 -56.2 M-49.15 -70.0 Q-48.9 -69.6 -49.2 -69.45 -49.55 -69.3 -49.75 -69.6 -50.0 -69.95 -49.7 -70.15 -49.35 -70.35 -49.15 -70.0 M-47.1 -92.8 Q-47.45 -92.35 -47.75 -93.05 -48.1 -93.75 -47.65 -94.0 -47.2 -94.25 -47.0 -93.7 -46.75 -93.2 -47.1 -92.8 M-47.0 -70.1 Q-46.75 -69.5 -47.3 -69.2 -47.85 -68.9 -48.0 -69.45 -48.2 -69.95 -47.75 -70.3 -47.3 -70.65 -47.0 -70.1 M-53.75 -69.35 Q-53.4 -68.8 -53.9 -68.4 -54.45 -68.0 -54.75 -68.55 -55.1 -69.1 -54.6 -69.5 -54.15 -69.9 -53.75 -69.35 M-52.0 -69.3 Q-52.35 -69.7 -51.9 -69.9 L-51.25 -69.75 Q-51.05 -69.45 -51.35 -69.15 -51.7 -68.9 -52.0 -69.3 M-57.95 -65.75 Q-58.25 -66.1 -57.85 -66.35 -57.5 -66.6 -57.25 -66.15 -56.95 -65.7 -57.35 -65.55 -57.7 -65.35 -57.95 -65.75 M-56.85 -67.65 L-56.6 -68.35 Q-56.25 -68.6 -56.0 -68.15 -55.8 -67.7 -56.25 -67.45 -56.7 -67.2 -56.85 -67.65 M-59.3 -60.9 L-59.25 -61.4 -58.8 -61.3 Q-58.6 -61.05 -58.9 -60.85 L-59.3 -60.9 M-58.25 -63.05 Q-58.55 -63.5 -58.1 -63.7 -57.6 -63.9 -57.4 -63.55 -57.15 -63.25 -57.55 -62.95 -57.9 -62.65 -58.25 -63.05 M-21.0 -1.9 Q-20.9 -1.65 -21.1 -1.55 L-21.5 -1.6 Q-21.65 -1.85 -21.4 -2.0 -21.15 -2.15 -21.0 -1.9 M-27.05 1.05 Q-27.3 0.65 -26.9 0.4 -26.55 0.2 -26.25 0.65 -25.95 1.05 -26.35 1.25 -26.8 1.5 -27.05 1.05 M-26.5 0.25 Q-26.65 -0.05 -26.4 -0.15 -26.15 -0.3 -26.05 -0.05 -25.9 0.2 -26.1 0.4 L-26.5 0.25 M-24.25 -0.2 Q-24.45 -0.55 -24.1 -0.8 -23.8 -1.05 -23.55 -0.6 -23.3 -0.1 -23.65 0.0 -24.05 0.15 -24.25 -0.2 M-23.55 0.9 Q-23.35 1.4 -23.75 1.6 -24.2 1.85 -24.45 1.45 -24.75 1.05 -24.25 0.75 -23.75 0.45 -23.55 0.9 M22.5 -1.9 Q22.75 -1.45 22.3 -1.25 21.8 -1.1 21.6 -1.5 21.4 -1.9 21.85 -2.15 22.3 -2.4 22.5 -1.9 M24.5 -0.35 Q24.15 -0.1 23.85 -0.5 23.6 -0.85 23.9 -1.15 L24.55 -1.05 Q24.85 -0.6 24.5 -0.35 M27.0 -0.25 Q26.65 0.05 26.4 -0.35 26.15 -0.7 26.55 -1.0 L27.15 -0.9 Q27.35 -0.55 27.0 -0.25 M-6.2 -8.55 Q-5.85 -7.95 -6.35 -7.8 -6.8 -7.6 -7.1 -8.1 -7.35 -8.55 -6.9 -8.85 -6.5 -9.15 -6.2 -8.55 M-5.2 -9.8 Q-4.5 -10.25 -4.2 -9.55 -3.85 -8.9 -4.5 -8.55 -5.15 -8.25 -5.55 -8.8 -5.9 -9.35 -5.2 -9.8 M-2.65 -9.9 Q-3.1 -9.65 -3.35 -10.1 -3.6 -10.5 -3.2 -10.75 -2.85 -10.95 -2.55 -10.5 -2.25 -10.1 -2.65 -9.9 M-11.0 -5.5 Q-11.25 -5.9 -10.85 -6.15 -10.5 -6.35 -10.2 -5.9 -9.9 -5.5 -10.3 -5.3 -10.75 -5.05 -11.0 -5.5 M-12.45 -5.2 Q-12.15 -4.65 -12.7 -4.4 -13.25 -4.1 -13.55 -4.6 -13.9 -5.05 -13.3 -5.4 -12.7 -5.8 -12.45 -5.2 M-14.8 -4.15 Q-15.25 -4.0 -15.5 -4.45 -15.75 -4.85 -15.35 -5.15 -14.95 -5.45 -14.65 -4.9 -14.35 -4.3 -14.8 -4.15 M-19.05 -2.3 Q-19.35 -2.15 -19.55 -2.45 -19.7 -2.75 -19.45 -2.9 L-18.95 -2.75 Q-18.75 -2.45 -19.05 -2.3 M-16.75 -3.7 Q-17.05 -3.45 -17.3 -3.9 -17.55 -4.3 -17.2 -4.55 -16.8 -4.75 -16.65 -4.35 -16.45 -3.95 -16.75 -3.7 M-8.8 -6.45 Q-9.05 -6.85 -8.7 -7.1 -8.3 -7.3 -8.15 -6.9 -7.95 -6.5 -8.25 -6.25 -8.55 -6.0 -8.8 -6.45 M4.75 -10.35 Q4.55 -10.7 4.95 -11.05 5.4 -11.35 5.55 -10.9 5.7 -10.45 5.35 -10.2 4.95 -10.0 4.75 -10.35 M6.55 -9.25 Q6.35 -9.65 6.8 -9.9 7.25 -10.15 7.45 -9.65 7.7 -9.2 7.25 -9.0 6.75 -8.85 6.55 -9.25 M7.8 -7.4 Q7.5 -7.85 7.85 -8.15 8.2 -8.45 8.5 -8.0 8.85 -7.55 8.45 -7.25 8.05 -7.0 7.8 -7.4 M9.45 -5.9 Q9.25 -6.2 9.55 -6.35 L9.95 -6.3 Q10.1 -6.1 9.85 -5.85 L9.45 -5.9 M15.65 -3.2 Q15.4 -3.55 15.7 -3.8 16.0 -4.1 16.3 -3.7 16.55 -3.35 16.2 -3.1 15.9 -2.85 15.65 -3.2 M17.7 -3.05 Q18.1 -3.3 18.3 -2.95 18.5 -2.6 18.15 -2.3 17.8 -2.0 17.55 -2.4 17.3 -2.75 17.7 -3.05 M20.2 -1.95 Q19.8 -1.7 19.55 -2.1 19.3 -2.5 19.8 -2.9 20.3 -3.3 20.45 -2.75 20.65 -2.25 20.2 -1.95 M11.25 -4.8 Q11.05 -5.15 11.45 -5.45 11.8 -5.75 11.95 -5.35 12.1 -4.9 11.75 -4.7 11.45 -4.5 11.25 -4.8 M13.6 -3.95 Q13.45 -4.25 13.8 -4.45 14.15 -4.65 14.3 -4.3 14.5 -3.95 14.15 -3.8 13.75 -3.65 13.6 -3.95" fill="#ffffff" fill-opacity="0.81960785" fill-rule="evenodd" stroke="none"/>
    </g>
  </defs>
</svg>
