<?xml version="1.0" encoding="UTF-8" standalone="no"?>
<svg xmlns:ffdec="https://www.free-decompiler.com/flash" xmlns:xlink="http://www.w3.org/1999/xlink" ffdec:objectType="frame" height="86.9px" width="61.1px" xmlns="http://www.w3.org/2000/svg">
  <g transform="matrix(1.0, 0.0, 0.0, 1.0, 32.9, 85.85)">
    <use ffdec:characterId="32" height="47.75" transform="matrix(1.1395, 0.0, 0.0, 1.1395, -2.9209, -54.3024)" width="13.3" xlink:href="#decoration309-sprite0"/>
    <use ffdec:characterId="34" height="32.95" transform="matrix(0.9109, 0.244, -0.244, 0.9109, -24.8834, -45.231)" width="33.4" xlink:href="#decoration309-sprite1"/>
    <use ffdec:characterId="36" height="73.55" transform="matrix(0.938, -0.0976, 0.0976, 0.938, -5.3421, -85.3055)" width="5.7" xlink:href="#decoration309-sprite2"/>
    <use ffdec:characterId="38" height="71.4" transform="matrix(0.9402, 0.0736, -0.0736, 0.9402, 9.5357, -77.6249)" width="14.4" xlink:href="#decoration309-sprite3"/>
    <use ffdec:characterId="40" height="41.8" transform="matrix(0.943, 0.0, 0.0, 0.943, 2.1699, -39.05)" width="22.6" xlink:href="#decoration309-sprite4"/>
    <use ffdec:characterId="42" height="34.75" transform="matrix(0.9076, -0.2559, 0.2559, 0.9076, -12.3161, -43.0881)" width="26.3" xlink:href="#decoration309-sprite5"/>
    <use ffdec:characterId="42" height="34.75" transform="matrix(0.943, 0.0, 0.0, 0.943, 3.3886, -32.2728)" width="26.3" xlink:href="#decoration309-sprite5"/>
    <use ffdec:characterId="38" height="71.4" transform="matrix(-0.9361, 0.1141, 0.1141, 0.9361, -8.5365, -67.4126)" width="14.4" xlink:href="#decoration309-sprite3"/>
    <use ffdec:characterId="32" height="47.75" transform="matrix(0.943, 0.0, 0.0, 0.943, -0.9915, -44.6399)" width="13.3" xlink:href="#decoration309-sprite0"/>
    <use ffdec:characterId="34" height="32.95" transform="matrix(0.943, 0.0, 0.0, 0.943, -31.5886, -30.6386)" width="33.4" xlink:href="#decoration309-sprite1"/>
    <use ffdec:characterId="42" height="34.75" transform="matrix(-0.679, 0.0, 0.0, 0.679, -3.2858, -23.2784)" width="26.3" xlink:href="#decoration309-sprite5"/>
    <use ffdec:characterId="40" height="41.8" transform="matrix(-0.6699, 0.0, 0.0, 0.6699, 4.2845, -27.55)" width="22.6" xlink:href="#decoration309-sprite4"/>
  </g>
  <defs>
    <g id="decoration309-sprite0" transform="matrix(1.0, 0.0, 0.0, 1.0, 0.15, -0.7)">
      <use ffdec:characterId="31" height="47.75" transform="matrix(1.0, 0.0, 0.0, 1.0, -0.15, 0.7)" width="13.3" xlink:href="#decoration309-shape0"/>
    </g>
    <g id="decoration309-shape0" transform="matrix(1.0, 0.0, 0.0, 1.0, 0.15, -0.7)">
      <path d="M4.5 21.1 Q5.85 16.95 7.65 12.65 16.05 -7.95 11.1 7.5 7.85 17.45 6.0 26.15 4.1 25.9 4.5 21.1" fill="url(#decoration309-gradient0)" fill-rule="evenodd" stroke="none"/>
      <path d="M4.5 21.1 Q4.1 25.9 6.0 26.15 L5.2 30.0 4.3 35.35 4.1 36.9 Q2.1 36.6 1.6 31.7 2.35 28.2 3.45 24.55 L4.5 21.1" fill="#344a0d" fill-rule="evenodd" stroke="none"/>
      <path d="M4.1 36.9 L3.5 41.65 Q3.0 46.6 3.4 48.25 L0.1 48.25 Q-0.2 42.05 0.95 35.15 L1.6 31.7 Q2.1 36.6 4.1 36.9" fill="#2d410b" fill-rule="evenodd" stroke="none"/>
      <path d="M6.0 26.15 Q7.85 17.45 11.1 7.5 16.05 -7.95 7.65 12.65 5.85 16.95 4.5 21.1 L3.45 24.55 Q2.35 28.2 1.6 31.7 L0.95 35.15 Q-0.2 42.05 0.1 48.25 L3.4 48.25 Q3.0 46.6 3.5 41.65 L4.1 36.9 4.3 35.35 5.2 30.0 6.0 26.15 Z" fill="none" stroke="#000000" stroke-linecap="round" stroke-linejoin="round" stroke-opacity="0.3882353" stroke-width="0.4"/>
    </g>
    <linearGradient gradientTransform="matrix(0.0122, -0.0122, 0.0207, 0.0207, 8.4, 18.7)" gradientUnits="userSpaceOnUse" id="decoration309-gradient0" spreadMethod="pad" x1="-819.2" x2="819.2">
      <stop offset="0.0" stop-color="#3a530f"/>
      <stop offset="1.0" stop-color="#536e22"/>
    </linearGradient>
    <g id="decoration309-sprite1" transform="matrix(1.0, 0.0, 0.0, 1.0, 0.2, 0.2)">
      <use ffdec:characterId="33" height="32.95" transform="matrix(1.0, 0.0, 0.0, 1.0, -0.2, -0.2)" width="33.4" xlink:href="#decoration309-shape1"/>
    </g>
    <g id="decoration309-shape1" transform="matrix(1.0, 0.0, 0.0, 1.0, 0.2, 0.2)">
      <path d="M29.55 32.55 Q26.85 23.0 23.85 16.4 13.9 -5.3 0.0 5.7 14.1 -7.8 24.55 10.6 L25.75 12.85 Q29.6 20.45 33.0 32.55 L29.55 32.55" fill="url(#decoration309-gradient1)" fill-rule="evenodd" stroke="none"/>
      <path d="M29.55 32.55 L33.0 32.55 Q29.6 20.45 25.75 12.85 L24.55 10.6 Q14.1 -7.8 0.0 5.7 13.9 -5.3 23.85 16.4 26.85 23.0 29.55 32.55 Z" fill="none" stroke="#000000" stroke-linecap="round" stroke-linejoin="round" stroke-opacity="0.3882353" stroke-width="0.4"/>
    </g>
    <linearGradient gradientTransform="matrix(0.0202, 0.0, 0.0, 0.0201, 16.5, 16.4)" gradientUnits="userSpaceOnUse" id="decoration309-gradient1" spreadMethod="pad" x1="-819.2" x2="819.2">
      <stop offset="0.0784313725490196" stop-color="#6c6033"/>
      <stop offset="0.4196078431372549" stop-color="#485807"/>
      <stop offset="0.9019607843137255" stop-color="#426129"/>
      <stop offset="1.0" stop-color="#2f471c"/>
    </linearGradient>
    <g id="decoration309-sprite2" transform="matrix(1.0, 0.0, 0.0, 1.0, -0.6, 0.05)">
      <use ffdec:characterId="35" height="73.55" transform="matrix(1.0, 0.0, 0.0, 1.0, 0.6, -0.05)" width="5.7" xlink:href="#decoration309-shape2"/>
    </g>
    <g id="decoration309-shape2" transform="matrix(1.0, 0.0, 0.0, 1.0, -0.6, 0.05)">
      <path d="M0.65 73.45 Q3.95 19.75 2.35 0.0 6.7 21.95 2.35 73.45 L0.65 73.45" fill="url(#decoration309-gradient2)" fill-rule="evenodd" stroke="none"/>
      <path d="M0.65 73.45 Q3.95 19.75 2.35 0.0 6.7 21.95 2.35 73.45 L0.65 73.45 Z" fill="none" stroke="#000000" stroke-linecap="round" stroke-linejoin="round" stroke-opacity="0.3882353" stroke-width="0.1"/>
      <path d="M0.9 19.95 L0.9 19.9 0.95 17.15 Q1.15 11.05 1.55 10.0 2.5 8.2 3.5 8.35 5.1 17.9 2.45 22.25 1.2 22.95 0.9 19.95 M1.25 15.2 Q1.15 19.1 2.25 16.55 L2.75 9.9 Q1.8 8.15 1.25 15.2" fill="#7f3513" fill-rule="evenodd" stroke="none"/>
      <path d="M4.3 8.75 L5.3 10.0 Q6.1 11.6 6.25 16.75 6.35 21.9 5.3 23.9 3.4 26.1 1.55 23.9 3.05 24.3 4.15 22.5 5.7 18.5 4.3 8.75" fill="#5b2a11" fill-rule="evenodd" stroke="none"/>
      <path d="M3.5 8.35 Q3.9 8.4 4.3 8.75 5.7 18.5 4.15 22.5 3.05 24.3 1.55 23.9 0.95 23.4 0.9 19.95 1.2 22.95 2.45 22.25 5.1 17.9 3.5 8.35" fill="#703012" fill-rule="evenodd" stroke="none"/>
      <path d="M1.25 15.2 Q1.8 8.15 2.75 9.9 L2.25 16.55 Q1.15 19.1 1.25 15.2" fill="#8d3d18" fill-rule="evenodd" stroke="none"/>
      <path d="M3.5 8.35 Q3.9 8.4 4.3 8.75 L5.3 10.0 Q6.1 11.6 6.25 16.75 6.35 21.9 5.3 23.9 3.4 26.1 1.55 23.9 0.95 23.4 0.9 19.95 L0.9 19.9 0.95 17.15 Q1.15 11.05 1.55 10.0 2.5 8.2 3.5 8.35 Z" fill="none" stroke="#000000" stroke-linecap="round" stroke-linejoin="round" stroke-opacity="0.3882353" stroke-width="0.1"/>
    </g>
    <linearGradient gradientTransform="matrix(-0.0022, 0.0082, -0.0384, -0.0103, 0.95, 19.4)" gradientUnits="userSpaceOnUse" id="decoration309-gradient2" spreadMethod="pad" x1="-819.2" x2="819.2">
      <stop offset="0.0784313725490196" stop-color="#6c6033"/>
      <stop offset="0.4196078431372549" stop-color="#485807"/>
      <stop offset="1.0" stop-color="#426129"/>
    </linearGradient>
    <g id="decoration309-sprite3" transform="matrix(1.0, 0.0, 0.0, 1.0, -0.3, 0.05)">
      <use ffdec:characterId="37" height="71.4" transform="matrix(1.0, 0.0, 0.0, 1.0, 0.3, -0.05)" width="14.4" xlink:href="#decoration309-shape3"/>
    </g>
    <g id="decoration309-shape3" transform="matrix(1.0, 0.0, 0.0, 1.0, -0.3, 0.05)">
      <path d="M4.85 30.5 Q8.35 13.9 14.65 0.0 4.45 30.8 2.7 61.65 L2.15 71.3 1.6 71.3 Q2.25 47.05 4.85 30.5" fill="url(#decoration309-gradient3)" fill-rule="evenodd" stroke="none"/>
      <path d="M4.85 30.5 Q2.25 47.05 1.6 71.3 L0.35 71.3 0.65 65.3 0.85 61.65 Q1.8 45.0 4.85 30.5" fill="#97b02f" fill-rule="evenodd" stroke="none"/>
      <path d="M2.15 71.3 L2.7 61.65 Q4.45 30.8 14.65 0.0 8.35 13.9 4.85 30.5 1.8 45.0 0.85 61.65 L0.65 65.3 0.35 71.3 1.6 71.3" fill="none" stroke="#000000" stroke-linecap="round" stroke-linejoin="round" stroke-opacity="0.3882353" stroke-width="0.1"/>
      <path d="M6.25 21.5 Q5.8 20.85 6.65 17.5 6.1 20.45 7.5 20.15 11.25 16.55 12.15 7.0 L12.85 7.55 Q11.65 17.35 9.1 20.75 7.6 22.3 6.25 21.5" fill="#8c3c17" fill-rule="evenodd" stroke="none"/>
      <path d="M12.85 7.55 L13.45 9.0 Q13.8 10.8 12.6 15.8 11.4 20.8 9.85 22.45 7.45 24.1 6.25 21.5 7.6 22.3 9.1 20.75 11.65 17.35 12.85 7.55" fill="#723515" fill-rule="evenodd" stroke="none"/>
      <path d="M6.65 17.5 L6.65 17.45 7.4 14.8 Q9.2 8.95 9.85 8.05 11.25 6.55 12.15 7.0 11.25 16.55 7.5 20.15 6.1 20.45 6.65 17.5 M8.15 13.0 Q7.05 16.75 8.75 14.6 L11.0 8.25 Q10.55 6.35 8.15 13.0" fill="#9e4318" fill-rule="evenodd" stroke="none"/>
      <path d="M8.15 13.0 Q10.55 6.35 11.0 8.25 L8.75 14.6 Q7.05 16.75 8.15 13.0" fill="#b04c1e" fill-rule="evenodd" stroke="none"/>
      <path d="M12.85 7.55 L13.45 9.0 Q13.8 10.8 12.6 15.8 11.4 20.8 9.85 22.45 7.45 24.1 6.25 21.5 5.8 20.85 6.65 17.5 L6.65 17.45 7.4 14.8 Q9.2 8.95 9.85 8.05 11.25 6.55 12.15 7.0 L12.85 7.55 Z" fill="none" stroke="#000000" stroke-linecap="round" stroke-linejoin="round" stroke-opacity="0.3882353" stroke-width="0.1"/>
    </g>
    <linearGradient gradientTransform="matrix(-0.0022, 0.0082, 0.0385, 0.0103, 11.7, 14.05)" gradientUnits="userSpaceOnUse" id="decoration309-gradient3" spreadMethod="pad" x1="-819.2" x2="819.2">
      <stop offset="0.0784313725490196" stop-color="#877840"/>
      <stop offset="0.4196078431372549" stop-color="#5a6e09"/>
      <stop offset="1.0" stop-color="#527933"/>
    </linearGradient>
    <g id="decoration309-sprite4" transform="matrix(1.0, 0.0, 0.0, 1.0, 0.35, 0.0)">
      <use ffdec:characterId="39" height="41.8" transform="matrix(1.0, 0.0, 0.0, 1.0, -0.35, 0.0)" width="22.6" xlink:href="#decoration309-shape4"/>
    </g>
    <g id="decoration309-shape4" transform="matrix(1.0, 0.0, 0.0, 1.0, 0.35, 0.0)">
      <path d="M2.45 25.25 Q5.55 21.15 10.7 17.5 15.8 13.8 22.05 0.2 21.35 13.5 10.75 21.25 6.95 24.1 5.1 28.5 2.8 33.85 3.4 41.6 L0.0 41.6 Q-0.7 29.3 2.45 25.25" fill="url(#decoration309-gradient4)" fill-rule="evenodd" stroke="none"/>
      <path d="M2.45 25.25 Q-0.7 29.3 0.0 41.6 L3.4 41.6 Q2.8 33.85 5.1 28.5 6.95 24.1 10.75 21.25 21.35 13.5 22.05 0.2 15.8 13.8 10.7 17.5 5.55 21.15 2.45 25.25 Z" fill="none" stroke="#000000" stroke-linecap="round" stroke-linejoin="round" stroke-opacity="0.3882353" stroke-width="0.4"/>
    </g>
    <linearGradient gradientTransform="matrix(-0.0067, 0.0093, -0.0274, -0.0126, 13.8, 13.55)" gradientUnits="userSpaceOnUse" id="decoration309-gradient4" spreadMethod="pad" x1="-819.2" x2="819.2">
      <stop offset="0.0" stop-color="#4b5b00"/>
      <stop offset="1.0" stop-color="#375427"/>
    </linearGradient>
    <g id="decoration309-sprite5" transform="matrix(1.0, 0.0, 0.0, 1.0, -0.2, -0.4)">
      <use ffdec:characterId="41" height="34.75" transform="matrix(1.0, 0.0, 0.0, 1.0, 0.2, 0.4)" width="26.3" xlink:href="#decoration309-shape5"/>
    </g>
    <g id="decoration309-shape5" transform="matrix(1.0, 0.0, 0.0, 1.0, -0.2, -0.4)">
      <path d="M11.95 11.2 L11.45 11.55 Q9.4 11.55 7.4 14.25 10.2 7.3 13.55 1.25 14.9 3.0 15.55 3.35 14.25 5.75 12.05 10.95 L11.95 11.2" fill="#213c19" fill-rule="evenodd" stroke="none"/>
      <path d="M11.95 11.2 L11.95 11.25 10.75 14.05 Q7.7 21.3 4.0 34.95 L0.4 34.95 Q1.85 29.6 3.5 24.6 5.3 19.2 7.4 14.25 9.4 11.55 11.45 11.55 L11.95 11.2" fill="#25441c" fill-rule="evenodd" stroke="none"/>
      <path d="M13.55 1.25 Q16.3 -1.55 21.6 7.6 33.45 28.05 15.55 3.35 14.9 3.0 13.55 1.25" fill="url(#decoration309-gradient5)" fill-rule="evenodd" stroke="none"/>
      <path d="M7.4 14.25 Q5.3 19.2 3.5 24.6 1.85 29.6 0.4 34.95 L4.0 34.95 Q7.7 21.3 10.75 14.05 L11.95 11.25 11.95 11.2 12.05 10.95 Q14.25 5.75 15.55 3.35 14.9 3.0 13.55 1.25 16.3 -1.55 21.6 7.6 33.45 28.05 15.55 3.35 M7.4 14.25 Q10.2 7.3 13.55 1.25" fill="none" stroke="#000000" stroke-linecap="round" stroke-linejoin="round" stroke-opacity="0.3882353" stroke-width="0.4"/>
    </g>
    <linearGradient gradientTransform="matrix(-0.0102, -0.0059, 0.005, -0.0086, 19.85, 8.75)" gradientUnits="userSpaceOnUse" id="decoration309-gradient5" spreadMethod="pad" x1="-819.2" x2="819.2">
      <stop offset="0.0784313725490196" stop-color="#6c6033"/>
      <stop offset="0.4196078431372549" stop-color="#485807"/>
      <stop offset="1.0" stop-color="#426129"/>
    </linearGradient>
  </defs>
</svg>
