<?xml version="1.0" encoding="UTF-8" standalone="no"?>
<svg xmlns:xlink="http://www.w3.org/1999/xlink" height="31.7px" width="13.05px" xmlns="http://www.w3.org/2000/svg">
  <g transform="matrix(1.0, 0.0, 0.0, 1.0, 7.3, 31.4)">
    <use data-characterId="750" height="31.7" transform="matrix(1.0, 0.0, 0.0, 1.0, -5.25, -31.4)" width="11.0" xlink:href="#decoration31-shape0"/>
    <use data-characterId="280" height="116.85" transform="matrix(-0.0137, 0.0931, -0.0698, -0.0103, 3.8678, -24.2075)" width="220.6" xlink:href="#decoration31-sprite0"/>
  </g>
  <defs>
    <g id="decoration31-shape0" transform="matrix(1.0, 0.0, 0.0, 1.0, 5.25, 31.4)">
      <path d="M-1.95 -30.45 L-1.85 -30.75 -0.25 -31.3 Q1.75 -31.45 2.1 -30.5 L2.1 -30.45 Q2.05 -30.25 0.95 -29.95 -1.35 -29.6 -1.95 -30.45" fill="#e0c585" fill-rule="evenodd" stroke="none"/>
      <path d="M1.5 -28.55 L1.8 -28.65 2.05 -28.45 1.6 -28.05 Q1.5 -27.9 1.4 -28.05 L1.4 -28.3 1.5 -28.55" fill="#77653c" fill-rule="evenodd" stroke="none"/>
      <path d="M2.1 -30.45 L2.05 -28.45 2.05 -27.25 Q2.1 -26.65 0.95 -26.35 L0.95 -29.95 Q2.05 -30.25 2.1 -30.45 M1.5 -28.55 L1.4 -28.3 1.4 -28.05 Q1.5 -27.9 1.6 -28.05 L2.05 -28.45 1.8 -28.65 1.5 -28.55" fill="url(#decoration31-gradient0)" fill-rule="evenodd" stroke="none"/>
      <path d="M0.95 -26.35 Q-1.5 -26.25 -1.6 -26.95 L-1.8 -29.0 -1.95 -30.45 Q-1.35 -29.6 0.95 -29.95 L0.95 -26.35 M-1.4 -28.4 L-1.3 -28.2 -1.15 -28.3 -1.1 -28.4 -1.2 -28.6 -1.3 -28.6 -1.4 -28.6 -1.4 -28.4 M-1.55 -29.0 L-1.6 -28.85 -1.55 -28.75 -1.45 -28.9 -1.5 -29.0 -1.55 -29.0" fill="url(#decoration31-gradient1)" fill-rule="evenodd" stroke="none"/>
      <path d="M-1.55 -29.0 L-1.5 -29.0 -1.45 -28.9 -1.55 -28.75 -1.6 -28.85 -1.55 -29.0 M-1.4 -28.4 L-1.4 -28.6 -1.3 -28.6 -1.2 -28.6 -1.1 -28.4 -1.15 -28.3 -1.3 -28.2 -1.4 -28.4" fill="#927b47" fill-rule="evenodd" stroke="none"/>
      <path d="M-1.95 -30.45 L-1.85 -30.75 -0.25 -31.3 Q1.75 -31.45 2.1 -30.5 L2.1 -30.45 2.05 -28.45 2.05 -27.25 Q2.1 -26.65 0.95 -26.35 -1.5 -26.25 -1.6 -26.95 L-1.8 -29.0 -1.95 -30.45 Z" fill="none" stroke="#000000" stroke-linecap="round" stroke-linejoin="round" stroke-opacity="0.2509804" stroke-width="0.25"/>
      <path d="M4.8 -15.5 Q4.8 -15.1 3.25 -14.55 L0.1 -14.15 -2.5 -14.7 Q-3.55 -15.1 -3.55 -15.5 L-2.1 -15.6 0.75 -16.0 3.55 -16.15 Q4.8 -15.9 4.8 -15.5" fill="url(#decoration31-gradient2)" fill-rule="evenodd" stroke="none"/>
      <path d="M-3.55 -15.5 Q-3.55 -15.1 -2.5 -14.7 L0.1 -14.15 3.25 -14.55 Q4.8 -15.1 4.8 -15.5 L4.8 -2.55 Q4.4 -1.1 1.25 -1.05 -1.9 -1.0 -3.55 -2.35 L-3.55 -15.5 M-2.3 -8.05 L-2.35 -7.8 -2.3 -7.65 -2.05 -7.5 -1.9 -7.65 -1.8 -7.8 -1.9 -8.05 -2.05 -8.1 -2.3 -8.05 M-0.2 -12.55 L-0.7 -12.8 -1.2 -12.55 -1.45 -12.05 -1.2 -11.5 -0.7 -11.3 Q-0.4 -11.3 -0.2 -11.5 0.05 -11.75 0.05 -12.05 L-0.2 -12.55 M0.4 -5.45 L0.65 -5.95 0.4 -6.5 -0.1 -6.7 -0.65 -6.5 -0.85 -5.95 -0.65 -5.45 Q-0.4 -5.2 -0.1 -5.2 0.15 -5.2 0.4 -5.45 M2.5 -9.75 L2.4 -9.4 2.5 -9.1 Q2.7 -8.95 2.85 -8.95 3.05 -8.95 3.15 -9.1 L3.3 -9.4 3.15 -9.75 2.85 -9.85 2.5 -9.75" fill="url(#decoration31-gradient3)" fill-rule="evenodd" stroke="none"/>
      <path d="M2.5 -9.75 L2.85 -9.85 3.15 -9.75 3.3 -9.4 3.15 -9.1 Q3.05 -8.95 2.85 -8.95 2.7 -8.95 2.5 -9.1 L2.4 -9.4 2.5 -9.75 M0.4 -5.45 Q0.15 -5.2 -0.1 -5.2 -0.4 -5.2 -0.65 -5.45 L-0.85 -5.95 -0.65 -6.5 -0.1 -6.7 0.4 -6.5 0.65 -5.95 0.4 -5.45 M-0.2 -12.55 L0.05 -12.05 Q0.05 -11.75 -0.2 -11.5 -0.4 -11.3 -0.7 -11.3 L-1.2 -11.5 -1.45 -12.05 -1.2 -12.55 -0.7 -12.8 -0.2 -12.55 M-2.3 -8.05 L-2.05 -8.1 -1.9 -8.05 -1.8 -7.8 -1.9 -7.65 -2.05 -7.5 -2.3 -7.65 -2.35 -7.8 -2.3 -8.05" fill="#bb7014" fill-rule="evenodd" stroke="none"/>
      <path d="M-3.55 -15.5 L-3.55 -2.35 Q-1.9 -1.0 1.25 -1.05 4.4 -1.1 4.8 -2.55 L4.8 -15.5 Q4.8 -15.9 3.55 -16.15 L0.75 -16.0 -2.1 -15.6 -3.55 -15.5 Z" fill="none" stroke="#000000" stroke-linecap="round" stroke-linejoin="round" stroke-opacity="0.12156863" stroke-width="0.30000000000000004"/>
      <path d="M-1.85 -27.8 Q-2.4 -28.35 -1.8 -28.9 -0.9 -28.1 0.75 -28.45 L2.25 -28.95 2.4 -28.55 2.3 -27.8 Q1.2 -27.1 -0.2 -27.1 -1.35 -27.15 -1.85 -27.8" fill="#738a7e" fill-opacity="0.5019608" fill-rule="evenodd" stroke="none"/>
      <path d="M2.3 -27.8 L2.3 -26.4 Q2.55 -24.15 3.3 -22.2 L4.85 -19.3 Q3.9 -18.75 4.1 -15.65 3.35 -18.15 1.1 -18.25 -0.45 -18.65 -1.35 -14.7 L-1.4 -18.65 Q0.0 -23.9 -0.2 -27.1 1.2 -27.1 2.3 -27.8" fill="#afcfbf" fill-opacity="0.5019608" fill-rule="evenodd" stroke="none"/>
      <path d="M4.85 -19.3 Q5.65 -17.6 5.6 -16.4 L5.6 -1.6 Q5.45 -0.7 4.35 -0.25 L4.35 -7.5 Q4.3 -14.95 4.1 -15.65 3.9 -18.75 4.85 -19.3" fill="url(#decoration31-gradient4)" fill-rule="evenodd" stroke="none"/>
      <path d="M4.35 -0.25 L3.75 -0.05 0.2 0.1 0.2 0.15 -1.25 0.1 -1.35 -14.7 Q-0.45 -18.65 1.1 -18.25 3.35 -18.15 4.1 -15.65 4.3 -14.95 4.35 -7.5 L4.35 -0.25" fill="url(#decoration31-gradient5)" fill-rule="evenodd" stroke="none"/>
      <path d="M-1.25 0.1 L-2.8 -0.05 Q-5.05 -0.5 -5.1 -1.75 L-5.1 -16.55 Q-5.15 -17.75 -4.35 -19.5 -3.45 -20.75 -2.8 -22.2 -2.15 -24.15 -1.85 -26.5 L-1.85 -27.8 Q-1.35 -27.15 -0.2 -27.1 0.0 -23.9 -1.4 -18.65 L-1.35 -14.7 -1.25 0.1" fill="#e4efeb" fill-opacity="0.8" fill-rule="evenodd" stroke="none"/>
      <path d="M-1.85 -27.8 Q-2.4 -28.35 -1.8 -28.9 -0.9 -28.1 0.75 -28.45 L2.25 -28.95 2.4 -28.55 2.3 -27.8 2.3 -26.4 Q2.55 -24.15 3.3 -22.2 L4.85 -19.3 Q5.65 -17.6 5.6 -16.4 L5.6 -1.6 Q5.45 -0.7 4.35 -0.25 L3.75 -0.05 0.2 0.1 0.2 0.15 -1.25 0.1 -2.8 -0.05 Q-5.05 -0.5 -5.1 -1.75 L-5.1 -16.55 Q-5.15 -17.75 -4.35 -19.5 -3.45 -20.75 -2.8 -22.2 -2.15 -24.15 -1.85 -26.5 L-1.85 -27.8 Q-1.35 -27.15 -0.2 -27.1 1.2 -27.1 2.3 -27.8" fill="none" stroke="#000000" stroke-linecap="round" stroke-linejoin="round" stroke-opacity="0.3019608" stroke-width="0.30000000000000004"/>
      <path d="M-1.35 -14.7 L-1.25 0.1 M4.35 -0.25 L4.35 -7.5 Q4.3 -14.95 4.1 -15.65" fill="none" stroke="#ffffff" stroke-linecap="round" stroke-linejoin="round" stroke-opacity="0.5019608" stroke-width="0.2"/>
    </g>
    <linearGradient gradientTransform="matrix(-0.0013, 0.0011, -6.0E-4, -0.0014, 1.55, -29.3)" gradientUnits="userSpaceOnUse" id="decoration31-gradient0" spreadMethod="pad" x1="-819.2" x2="819.2">
      <stop offset="0.14901960784313725" stop-color="#c2a561"/>
      <stop offset="0.5725490196078431" stop-color="#927b47"/>
    </linearGradient>
    <linearGradient gradientTransform="matrix(0.0018, -1.0E-4, 0.0, 0.0025, -0.45, -29.3)" gradientUnits="userSpaceOnUse" id="decoration31-gradient1" spreadMethod="pad" x1="-819.2" x2="819.2">
      <stop offset="0.14901960784313725" stop-color="#c2a561"/>
      <stop offset="0.5725490196078431" stop-color="#927b47"/>
    </linearGradient>
    <linearGradient gradientTransform="matrix(0.0051, 0.0, 0.0, 0.0011, 1.55, -15.4)" gradientUnits="userSpaceOnUse" id="decoration31-gradient2" spreadMethod="pad" x1="-819.2" x2="819.2">
      <stop offset="0.00392156862745098" stop-color="#ffc064"/>
      <stop offset="0.6313725490196078" stop-color="#ec9020"/>
      <stop offset="1.0" stop-color="#ffcc4d"/>
    </linearGradient>
    <linearGradient gradientTransform="matrix(0.0047, 0.0, 0.0, 0.0088, 1.75, -8.45)" gradientUnits="userSpaceOnUse" id="decoration31-gradient3" spreadMethod="pad" x1="-819.2" x2="819.2">
      <stop offset="0.0" stop-color="#e9a540"/>
      <stop offset="0.6549019607843137" stop-color="#cd770f"/>
      <stop offset="1.0" stop-color="#f5980d"/>
    </linearGradient>
    <linearGradient gradientTransform="matrix(-0.0274, 0.0324, -0.0035, -0.0029, -288.85, -477.4)" gradientUnits="userSpaceOnUse" id="decoration31-gradient4" spreadMethod="pad" x1="-819.2" x2="819.2">
      <stop offset="0.08627450980392157" stop-color="#dae9e2" stop-opacity="0.21176471"/>
      <stop offset="0.4470588235294118" stop-color="#afcfbf" stop-opacity="0.07058824"/>
    </linearGradient>
    <linearGradient gradientTransform="matrix(-0.0298, 0.028, -0.0074, -0.0077, -297.0, -480.85)" gradientUnits="userSpaceOnUse" id="decoration31-gradient5" spreadMethod="pad" x1="-819.2" x2="819.2">
      <stop offset="0.3215686274509804" stop-color="#dae9e2" stop-opacity="0.4117647"/>
      <stop offset="0.6274509803921569" stop-color="#afcfbf" stop-opacity="0.16078432"/>
    </linearGradient>
    <g id="decoration31-sprite0" transform="matrix(1.0, 0.0, 0.0, 1.0, -2.6, 0.05)">
      <use data-characterId="279" height="116.85" transform="matrix(1.0, 0.0, 0.0, 1.0, 2.6, -0.05)" width="220.6" xlink:href="#decoration31-shape1"/>
    </g>
    <g id="decoration31-shape1" transform="matrix(1.0, 0.0, 0.0, 1.0, -2.6, 0.05)">
      <path d="M216.6 72.9 Q209.6 82.3 197.3 90.5 165.65 111.5 112.85 116.1 61.0 120.6 28.05 95.7 15.85 86.45 8.7 74.85 2.6 65.0 2.6 58.05 2.6 51.0 7.9 41.95 14.25 31.1 25.85 22.35 57.15 -1.2 112.85 0.0 173.9 1.15 201.1 17.6 224.7 31.9 223.1 58.05 222.7 64.7 216.6 72.9" fill="url(#decoration31-gradient6)" fill-rule="evenodd" stroke="none"/>
    </g>
    <radialGradient cx="0" cy="0" gradientTransform="matrix(0.0971, 0.0, 0.0, 0.0572, 109.5, 53.65)" gradientUnits="userSpaceOnUse" id="decoration31-gradient6" r="819.2" spreadMethod="pad">
      <stop offset="0.0" stop-color="#cdfdff" stop-opacity="0.45882353"/>
      <stop offset="0.19607843137254902" stop-color="#dafdff" stop-opacity="0.34117648"/>
      <stop offset="1.0" stop-color="#ffffff" stop-opacity="0.0"/>
    </radialGradient>
  </defs>
</svg>
