<?xml version="1.0" encoding="UTF-8" standalone="no"?>
<svg xmlns:ffdec="https://www.free-decompiler.com/flash" xmlns:xlink="http://www.w3.org/1999/xlink" ffdec:objectType="frame" height="41.95px" width="34.8px" xmlns="http://www.w3.org/2000/svg">
  <g transform="matrix(1.0, 0.0, 0.0, 1.0, 16.7, 40.95)">
    <use ffdec:characterId="769" height="41.95" transform="matrix(1.0, 0.0, 0.0, 1.0, -16.7, -40.95)" width="34.8" xlink:href="#decoration33-shape0"/>
  </g>
  <defs>
    <g id="decoration33-shape0" transform="matrix(1.0, 0.0, 0.0, 1.0, 16.7, 40.95)">
      <path d="M13.95 -40.2 Q16.85 -40.65 18.0 -37.95 L18.0 -5.1 Q18.45 -2.35 16.7 -1.85 16.7 0.7 14.25 0.9 12.65 0.15 12.2 -2.25 L-6.3 -2.25 -6.3 -1.05 Q-6.5 0.5 -8.1 1.0 L-11.7 1.0 -12.5 -6.05 13.95 -40.2" fill="#000000" fill-opacity="0.32156864" fill-rule="evenodd" stroke="none"/>
      <path d="M5.9 -40.8 L14.8 -40.8 Q17.15 -40.8 17.15 -38.4 L17.15 -28.3 Q7.9 -32.15 5.9 -40.8 M17.15 -24.8 L17.15 -5.5 Q17.15 -3.1 14.8 -3.1 L13.8 -3.1 13.75 -3.1 13.2 -5.5 Q11.15 -15.4 14.2 -21.1 15.3 -23.25 17.15 -24.8 M8.35 -3.1 L-8.4 -3.1 -13.75 -3.1 -14.15 -3.1 -15.3 -3.4 Q-16.5 -3.95 -16.55 -5.5 L-16.55 -6.65 -14.5 -7.55 Q-11.9 -8.5 -9.2 -8.9 -0.55 -10.15 6.0 -5.3 L8.35 -3.1 M-16.55 -13.05 L-16.55 -30.9 Q-11.65 -34.45 -8.95 -40.8 L-2.95 -40.8 Q-10.5 -34.2 -14.3 -22.95 -16.15 -17.35 -16.55 -13.05" fill="#855e37" fill-rule="evenodd" stroke="none"/>
      <path d="M5.9 -40.8 Q7.9 -32.15 17.15 -28.3 L17.15 -24.8 Q15.3 -23.25 14.2 -21.1 11.15 -15.4 13.2 -5.5 L13.75 -3.1 9.65 -3.1 8.35 -3.1 6.0 -5.3 Q-0.55 -10.15 -9.2 -8.9 -11.9 -8.5 -14.5 -7.55 L-16.55 -6.65 -16.55 -13.05 Q-16.15 -17.35 -14.3 -22.95 -10.5 -34.2 -2.95 -40.8 L5.9 -40.8 M-16.55 -30.9 L-16.55 -38.4 Q-16.55 -40.8 -14.15 -40.8 L-8.95 -40.8 Q-11.65 -34.45 -16.55 -30.9" fill="#6a4826" fill-rule="evenodd" stroke="none"/>
      <path d="M13.8 -3.1 Q14.4 -3.1 14.95 -2.55 15.55 -1.95 15.55 -1.2 L15.55 -1.15 Q15.55 -0.35 14.95 0.2 14.4 0.8 13.6 0.8 L11.2 0.8 Q10.45 0.8 9.85 0.2 9.6 -0.05 9.45 -0.6 L9.3 -1.2 Q9.2 -1.95 9.35 -2.55 L9.65 -3.1 13.75 -3.1 13.8 -3.1 M-8.4 -3.1 L-8.1 -2.75 Q-7.85 -2.2 -7.9 -1.15 L-8.05 -0.25 -8.5 0.2 Q-9.05 0.8 -9.85 0.8 L-12.25 0.8 Q-13.0 0.8 -13.6 0.2 -14.15 -0.35 -14.15 -1.15 L-14.15 -1.2 -13.95 -2.65 -13.75 -3.1 -8.4 -3.1" fill="#583b1e" fill-rule="evenodd" stroke="none"/>
      <path d="M17.15 -28.3 L17.15 -38.4 Q17.15 -40.8 14.8 -40.8 L5.9 -40.8 -2.95 -40.8 -8.95 -40.8 -14.15 -40.8 Q-16.55 -40.8 -16.55 -38.4 L-16.55 -30.9 -16.55 -13.05 -16.55 -6.65 -16.55 -5.5 Q-16.5 -3.95 -15.3 -3.4 L-14.15 -3.1 -13.75 -3.1 -8.4 -3.1 -8.1 -2.75 Q-7.85 -2.2 -7.9 -1.15 L-8.05 -0.25 -8.5 0.2 Q-9.05 0.8 -9.85 0.8 L-12.25 0.8 Q-13.0 0.8 -13.6 0.2 -14.15 -0.35 -14.15 -1.15 L-14.15 -1.2 -13.95 -2.65 -13.75 -3.1 M17.15 -28.3 L17.15 -24.8 17.15 -5.5 Q17.15 -3.1 14.8 -3.1 L13.8 -3.1 Q14.4 -3.1 14.95 -2.55 15.55 -1.95 15.55 -1.2 L15.55 -1.15 Q15.55 -0.35 14.95 0.2 14.4 0.8 13.6 0.8 L11.2 0.8 Q10.45 0.8 9.85 0.2 9.6 -0.05 9.45 -0.6 L9.3 -1.2 Q9.2 -1.95 9.35 -2.55 L9.65 -3.1 8.35 -3.1 -8.4 -3.1 M13.8 -3.1 L13.75 -3.1 9.65 -3.1" fill="none" stroke="#000000" stroke-linecap="round" stroke-linejoin="round" stroke-opacity="0.3019608" stroke-width="0.30000000000000004"/>
      <path d="M5.9 -40.8 Q7.9 -32.15 17.15 -28.3 M-16.55 -6.65 L-14.5 -7.55 Q-11.9 -8.5 -9.2 -8.9 -0.55 -10.15 6.0 -5.3 L8.35 -3.1 M17.15 -24.8 Q15.3 -23.25 14.2 -21.1 11.15 -15.4 13.2 -5.5 L13.75 -3.1 M-16.55 -30.9 Q-11.65 -34.45 -8.95 -40.8 M-16.55 -13.05 Q-16.15 -17.35 -14.3 -22.95 -10.5 -34.2 -2.95 -40.8" fill="none" stroke="#000000" stroke-linecap="round" stroke-linejoin="round" stroke-opacity="0.16078432" stroke-width="0.30000000000000004"/>
      <path d="M16.4 -20.1 Q16.65 -10.35 16.5 -7.8 16.2 -3.8 14.65 -3.85 L-10.0 -3.85 Q-13.25 -3.95 -13.9 -6.15 L14.1 -24.0 Q16.2 -24.05 16.4 -20.1 M16.25 -29.15 Q16.35 -25.7 14.65 -25.45 L-10.6 -25.45 Q-14.0 -25.15 -14.8 -27.6 L13.8 -37.15 Q15.95 -37.45 16.25 -35.3 L16.25 -29.15" fill="#000000" fill-opacity="0.3019608" fill-rule="evenodd" stroke="none"/>
      <path d="M11.95 -37.45 L13.6 -37.45 Q15.4 -37.45 15.8 -35.95 12.55 -34.1 11.7 -31.05 12.4 -29.05 15.9 -28.7 15.9 -27.6 15.35 -26.95 14.8 -26.3 13.6 -26.3 L7.45 -26.3 Q2.85 -27.5 3.25 -30.05 5.6 -34.75 11.95 -37.45 M-10.65 -26.3 L-13.05 -26.3 Q-14.0 -26.3 -14.6 -26.7 -15.35 -27.45 -15.35 -28.7 L-15.35 -35.05 Q-6.8 -32.65 -6.45 -29.45 -6.25 -27.3 -10.65 -26.3 M-13.05 -37.45 L7.3 -37.45 Q4.95 -35.8 -0.1 -35.0 -8.05 -33.7 -13.05 -37.45" fill="url(#decoration33-gradient0)" fill-rule="evenodd" stroke="none"/>
      <path d="M0.1 -32.95 Q0.5 -32.65 0.15 -31.95 0.05 -31.75 -0.3 -31.7 -0.75 -31.65 -1.0 -31.95 L-1.15 -32.55 Q-1.15 -33.1 -0.45 -33.2 L0.1 -32.95" fill="#9f6f40" fill-rule="evenodd" stroke="none"/>
      <path d="M0.1 -32.95 L-0.45 -33.2 Q-1.15 -33.1 -1.15 -32.55 L-1.0 -31.95 Q-0.75 -31.65 -0.3 -31.7 0.05 -31.75 0.15 -31.95 0.5 -32.65 0.1 -32.95 M1.35 -33.2 L1.6 -32.35 Q1.65 -31.55 1.0 -31.15 -0.25 -30.35 -1.1 -30.95 L-1.8 -31.85 -1.25 -33.05 Q-0.7 -33.65 0.1 -33.65 L1.35 -33.2" fill="#795531" fill-rule="evenodd" stroke="none"/>
      <path d="M-1.8 -31.85 L-1.1 -30.95 Q-0.25 -30.35 1.0 -31.15 1.65 -31.55 1.6 -32.35 L1.35 -33.2 1.65 -32.8 Q2.05 -32.3 2.05 -31.6 L2.45 -31.3 2.8 -30.2 Q2.8 -29.7 2.25 -29.1 1.6 -28.35 0.75 -28.45 -0.4 -28.55 -0.9 -29.3 L-1.15 -30.05 Q-1.95 -30.85 -1.8 -31.85 M2.05 -31.6 Q2.05 -30.75 1.5 -30.15 0.9 -29.5 0.1 -29.5 -0.2 -29.5 -0.7 -29.8 L-1.15 -30.05 -0.7 -29.8 Q-0.2 -29.5 0.1 -29.5 0.9 -29.5 1.5 -30.15 2.05 -30.75 2.05 -31.6" fill="#513417" fill-rule="evenodd" stroke="none"/>
      <path d="M15.8 -35.95 L15.9 -35.05 15.9 -28.7 Q12.4 -29.05 11.7 -31.05 12.55 -34.1 15.8 -35.95 M7.45 -26.3 L-10.65 -26.3 Q-6.25 -27.3 -6.45 -29.45 -6.8 -32.65 -15.35 -35.05 -15.35 -37.45 -13.05 -37.45 -8.05 -33.7 -0.1 -35.0 4.95 -35.8 7.3 -37.45 L11.95 -37.45 Q5.6 -34.75 3.25 -30.05 2.85 -27.5 7.45 -26.3 M1.35 -33.2 L0.1 -33.65 Q-0.7 -33.65 -1.25 -33.05 L-1.8 -31.85 Q-1.95 -30.85 -1.15 -30.05 L-0.9 -29.3 Q-0.4 -28.55 0.75 -28.45 1.6 -28.35 2.25 -29.1 2.8 -29.7 2.8 -30.2 L2.45 -31.3 2.05 -31.6 Q2.05 -32.3 1.65 -32.8 L1.35 -33.2" fill="url(#decoration33-gradient1)" fill-rule="evenodd" stroke="none"/>
      <path d="M11.95 -37.45 L13.6 -37.45 Q15.4 -37.45 15.8 -35.95 L15.9 -35.05 15.9 -28.7 Q15.9 -27.6 15.35 -26.95 14.8 -26.3 13.6 -26.3 L7.45 -26.3 -10.65 -26.3 -13.05 -26.3 Q-14.0 -26.3 -14.6 -26.7 -15.35 -27.45 -15.35 -28.7 L-15.35 -35.05 Q-15.35 -37.45 -13.05 -37.45 L7.3 -37.45 11.95 -37.45 M1.35 -33.2 L0.1 -33.65 Q-0.7 -33.65 -1.25 -33.05 L-1.8 -31.85 Q-1.95 -30.85 -1.15 -30.05 L-0.7 -29.8 Q-0.2 -29.5 0.1 -29.5 0.9 -29.5 1.5 -30.15 2.05 -30.75 2.05 -31.6 2.05 -32.3 1.65 -32.8 L1.35 -33.2" fill="none" stroke="#000000" stroke-linecap="round" stroke-linejoin="round" stroke-opacity="0.32941177" stroke-width="0.30000000000000004"/>
      <path d="M11.95 -37.45 Q5.6 -34.75 3.25 -30.05 2.85 -27.5 7.45 -26.3 M15.9 -28.7 Q12.4 -29.05 11.7 -31.05 12.55 -34.1 15.8 -35.95 M7.3 -37.45 Q4.95 -35.8 -0.1 -35.0 -8.05 -33.7 -13.05 -37.45 M-15.35 -35.05 Q-6.8 -32.65 -6.45 -29.45 -6.25 -27.3 -10.65 -26.3" fill="none" stroke="#000000" stroke-linecap="round" stroke-linejoin="round" stroke-opacity="0.16862746" stroke-width="0.2"/>
      <path d="M15.85 -20.05 Q7.3 -15.95 6.95 -10.4 6.75 -6.7 11.15 -4.95 L-6.95 -4.95 Q-2.35 -7.05 -2.75 -11.45 -5.1 -19.55 -11.45 -24.2 L-6.8 -24.2 Q-4.45 -21.35 0.6 -20.0 8.55 -17.75 13.55 -24.2 15.85 -24.2 15.85 -20.05 M-15.4 -9.1 L-15.4 -20.05 -15.3 -21.6 Q-12.05 -18.45 -11.2 -13.15 -11.9 -9.7 -15.4 -9.1" fill="url(#decoration33-gradient2)" fill-rule="evenodd" stroke="none"/>
      <path d="M15.85 -20.05 L15.85 -9.1 Q15.85 -6.95 15.1 -5.65 14.5 -4.95 13.55 -4.95 L11.15 -4.95 Q6.75 -6.7 6.95 -10.4 7.3 -15.95 15.85 -20.05 M-6.95 -4.95 L-13.1 -4.95 Q-14.3 -4.95 -14.85 -6.1 -15.4 -7.2 -15.4 -9.1 -11.9 -9.7 -11.2 -13.15 -12.05 -18.45 -15.3 -21.6 -14.9 -24.2 -13.1 -24.2 L-11.45 -24.2 Q-5.1 -19.55 -2.75 -11.45 -2.35 -7.05 -6.95 -4.95 M-6.8 -24.2 L13.55 -24.2 Q8.55 -17.75 0.6 -20.0 -4.45 -21.35 -6.8 -24.2" fill="url(#decoration33-gradient3)" fill-rule="evenodd" stroke="none"/>
      <path d="M15.85 -20.05 Q7.3 -15.95 6.95 -10.4 6.75 -6.7 11.15 -4.95 M13.55 -24.2 Q8.55 -17.75 0.6 -20.0 -4.45 -21.35 -6.8 -24.2 M-15.3 -21.6 Q-12.05 -18.45 -11.2 -13.15 -11.9 -9.7 -15.4 -9.1 M-11.45 -24.2 Q-5.1 -19.55 -2.75 -11.45 -2.35 -7.05 -6.95 -4.95" fill="none" stroke="#000000" stroke-linecap="round" stroke-linejoin="round" stroke-opacity="0.16862746" stroke-width="0.2"/>
      <path d="M11.15 -4.95 L13.55 -4.95 Q14.5 -4.95 15.1 -5.65 15.85 -6.95 15.85 -9.1 L15.85 -20.05 Q15.85 -24.2 13.55 -24.2 L-6.8 -24.2 -11.45 -24.2 -13.1 -24.2 Q-14.9 -24.2 -15.3 -21.6 L-15.4 -20.05 -15.4 -9.1 Q-15.4 -7.2 -14.85 -6.1 -14.3 -4.95 -13.1 -4.95 L-6.95 -4.95 11.15 -4.95 Z" fill="none" stroke="#000000" stroke-linecap="round" stroke-linejoin="round" stroke-opacity="0.32941177" stroke-width="0.30000000000000004"/>
      <path d="M-9.9 -14.75 L-9.5 -14.45 Q-9.2 -14.05 -9.15 -13.35 -9.15 -12.85 -9.7 -12.25 -10.35 -11.5 -11.2 -11.6 -12.35 -11.7 -12.85 -12.45 L-13.1 -13.2 Q-13.9 -14.0 -13.75 -15.0 L-13.05 -14.1 Q-12.2 -13.5 -10.95 -14.3 -10.3 -14.7 -10.35 -15.5 L-10.6 -16.35 -10.3 -15.95 Q-9.9 -15.45 -9.9 -14.75 -9.9 -13.9 -10.45 -13.3 -11.05 -12.65 -11.85 -12.65 L-12.65 -12.95 -13.1 -13.2 -12.65 -12.95 -11.85 -12.65 Q-11.05 -12.65 -10.45 -13.3 -9.9 -13.9 -9.9 -14.75" fill="#513417" fill-rule="evenodd" stroke="none"/>
      <path d="M-12.4 -16.35 L-11.85 -16.1 Q-11.45 -15.8 -11.8 -15.1 -11.9 -14.9 -12.25 -14.85 -12.7 -14.8 -12.95 -15.1 L-13.1 -15.7 Q-13.1 -16.25 -12.4 -16.35" fill="#9f6f40" fill-rule="evenodd" stroke="none"/>
      <path d="M-13.75 -15.0 Q-13.7 -15.7 -13.2 -16.2 -12.65 -16.8 -11.85 -16.8 L-10.6 -16.35 -10.35 -15.5 Q-10.3 -14.7 -10.95 -14.3 -12.2 -13.5 -13.05 -14.1 L-13.75 -15.0 M-12.4 -16.35 Q-13.1 -16.25 -13.1 -15.7 L-12.95 -15.1 Q-12.7 -14.8 -12.25 -14.85 -11.9 -14.9 -11.8 -15.1 -11.45 -15.8 -11.85 -16.1 L-12.4 -16.35" fill="#795531" fill-rule="evenodd" stroke="none"/>
      <path d="M-13.1 -13.2 Q-13.9 -14.0 -13.75 -15.0 -13.7 -15.7 -13.2 -16.2 -12.65 -16.8 -11.85 -16.8 L-10.6 -16.35 -10.3 -15.95 Q-9.9 -15.45 -9.9 -14.75 -9.9 -13.9 -10.45 -13.3 -11.05 -12.65 -11.85 -12.65 L-12.65 -12.95 -13.1 -13.2 Z" fill="none" stroke="#000000" stroke-linecap="round" stroke-linejoin="round" stroke-opacity="0.32941177" stroke-width="0.30000000000000004"/>
    </g>
    <linearGradient gradientTransform="matrix(0.0, 0.0082, -0.0064, 0.0, 9.35, -33.65)" gradientUnits="userSpaceOnUse" id="decoration33-gradient0" spreadMethod="pad" x1="-819.2" x2="819.2">
      <stop offset="0.0" stop-color="#9a6e42"/>
      <stop offset="1.0" stop-color="#795531"/>
    </linearGradient>
    <linearGradient gradientTransform="matrix(0.0, 0.0098, -0.0064, 0.0, -1.5, -35.3)" gradientUnits="userSpaceOnUse" id="decoration33-gradient1" spreadMethod="pad" x1="-819.2" x2="819.2">
      <stop offset="0.00784313725490196" stop-color="#79522a"/>
      <stop offset="0.9764705882352941" stop-color="#664626"/>
    </linearGradient>
    <linearGradient gradientTransform="matrix(0.0, 0.0169, 0.0064, 0.0, 2.0, -20.5)" gradientUnits="userSpaceOnUse" id="decoration33-gradient2" spreadMethod="pad" x1="-819.2" x2="819.2">
      <stop offset="0.00784313725490196" stop-color="#79522a"/>
      <stop offset="0.9764705882352941" stop-color="#664626"/>
    </linearGradient>
    <linearGradient gradientTransform="matrix(0.0, 0.0141, 0.0064, 0.0, -8.85, -17.65)" gradientUnits="userSpaceOnUse" id="decoration33-gradient3" spreadMethod="pad" x1="-819.2" x2="819.2">
      <stop offset="0.0" stop-color="#9a6e42"/>
      <stop offset="1.0" stop-color="#795531"/>
    </linearGradient>
  </defs>
</svg>
