<?xml version="1.0" encoding="UTF-8" standalone="no"?>
<svg xmlns:ffdec="https://www.free-decompiler.com/flash" xmlns:xlink="http://www.w3.org/1999/xlink" ffdec:objectType="frame" height="75.6px" width="266.15px" xmlns="http://www.w3.org/2000/svg">
  <g transform="matrix(1.0, 0.0, 0.0, 1.0, 130.6, 48.05)">
    <use ffdec:characterId="767" height="75.75" transform="matrix(0.3233, 0.1867, -0.1867, 0.3233, -93.5633, -24.2034)" width="83.05" xlink:href="#decoration35-sprite0"/>
    <use ffdec:characterId="767" height="75.75" transform="matrix(0.3606, 0.0966, -0.0966, 0.3606, -68.194, -10.4602)" width="83.05" xlink:href="#decoration35-sprite0"/>
    <use ffdec:characterId="767" height="75.75" transform="matrix(0.3733, 0.0, 0.0, 0.3733, -42.4979, -0.7493)" width="83.05" xlink:href="#decoration35-sprite0"/>
    <use ffdec:characterId="767" height="75.75" transform="matrix(0.3733, 0.0, 0.0, 0.3733, -11.998, -0.7493)" width="83.05" xlink:href="#decoration35-sprite0"/>
    <use ffdec:characterId="767" height="75.75" transform="matrix(0.3703, -0.047, 0.047, 0.3703, 16.0868, -1.9417)" width="83.05" xlink:href="#decoration35-sprite0"/>
    <use ffdec:characterId="767" height="75.75" transform="matrix(0.3606, -0.0966, 0.0966, 0.3606, 43.5787, -5.7283)" width="83.05" xlink:href="#decoration35-sprite0"/>
    <use ffdec:characterId="767" height="75.75" transform="matrix(0.3606, -0.0966, 0.0966, 0.3606, 71.1287, -16.7283)" width="83.05" xlink:href="#decoration35-sprite0"/>
    <use ffdec:characterId="767" height="75.75" transform="matrix(0.264, 0.264, -0.264, 0.264, -110.6112, -44.3224)" width="83.05" xlink:href="#decoration35-sprite0"/>
    <use ffdec:characterId="767" height="75.75" transform="matrix(0.3233, -0.1866, 0.1866, 0.3233, 94.5874, -25.6053)" width="83.05" xlink:href="#decoration35-sprite0"/>
    <use ffdec:characterId="767" height="75.75" transform="matrix(0.3115, 0.1799, -0.1799, 0.3115, -94.9018, -27.0404)" width="83.05" xlink:href="#decoration35-sprite0"/>
    <use ffdec:characterId="767" height="75.75" transform="matrix(0.368, 0.0986, -0.0986, 0.368, -73.0021, -13.7155)" width="83.05" xlink:href="#decoration35-sprite0"/>
    <use ffdec:characterId="767" height="75.75" transform="matrix(0.381, 0.0, 0.0, 0.381, -46.6571, -4.0524)" width="83.05" xlink:href="#decoration35-sprite0"/>
    <use ffdec:characterId="767" height="75.75" transform="matrix(0.381, 0.0, 0.0, 0.381, -15.4571, -4.0524)" width="83.05" xlink:href="#decoration35-sprite0"/>
    <use ffdec:characterId="767" height="75.75" transform="matrix(0.3779, -0.048, 0.048, 0.3779, 13.2773, -4.9436)" width="83.05" xlink:href="#decoration35-sprite0"/>
    <use ffdec:characterId="767" height="75.75" transform="matrix(0.368, -0.0986, 0.0986, 0.368, 41.169, -8.9289)" width="83.05" xlink:href="#decoration35-sprite0"/>
    <use ffdec:characterId="767" height="75.75" transform="matrix(0.352, -0.0943, 0.0943, 0.352, 70.0398, -19.9776)" width="83.05" xlink:href="#decoration35-sprite0"/>
    <use ffdec:characterId="767" height="75.75" transform="matrix(0.3054, -0.1763, 0.1763, 0.3054, 93.663, -29.8606)" width="83.05" xlink:href="#decoration35-sprite0"/>
    <use ffdec:characterId="767" height="75.75" transform="matrix(0.2524, 0.2524, -0.2524, 0.2524, -110.4019, -48.0538)" width="83.05" xlink:href="#decoration35-sprite0"/>
  </g>
  <defs>
    <g id="decoration35-sprite0" transform="matrix(1.0, 0.0, 0.0, 1.0, 1.2, 0.4)">
      <use ffdec:characterId="766" height="75.75" transform="matrix(1.0, 0.0, 0.0, 1.0, -1.2, -0.4)" width="83.05" xlink:href="#decoration35-shape0"/>
    </g>
    <g id="decoration35-shape0" transform="matrix(1.0, 0.0, 0.0, 1.0, 1.2, 0.4)">
      <path d="M40.0 14.45 L41.7 13.1 Q43.5 11.7 44.05 11.6 43.5 11.7 41.7 13.1 L40.0 14.45 40.0 2.4 40.6 0.0 44.35 0.0 Q45.55 5.55 44.05 11.6 63.1 8.05 72.3 17.35 82.1 27.25 81.4 42.5 80.75 57.75 68.1 65.4 55.65 72.95 40.6 72.6 L40.6 69.0 48.1 68.8 48.55 63.9 53.1 62.4 56.1 66.45 Q64.75 61.4 71.4 45.95 L62.5 52.6 63.7 57.2 58.75 58.9 57.1 54.9 Q53.55 56.65 46.75 58.25 L40.6 59.45 40.0 61.9 40.0 56.4 40.6 54.0 43.55 54.0 40.6 47.95 40.0 14.45 M69.05 27.55 L47.25 43.1 Q56.55 43.6 65.6 40.5 L69.05 27.55" fill="url(#decoration35-gradient0)" fill-rule="evenodd" stroke="none"/>
      <path d="M40.0 14.45 L40.6 47.95 34.0 56.4 40.0 56.4 40.0 61.9 Q33.35 62.25 27.1 59.9 L25.75 64.95 19.65 62.45 19.65 57.55 6.75 52.7 Q21.25 68.6 27.5 70.25 L29.65 66.95 33.15 66.95 34.65 71.25 40.6 69.0 40.6 72.6 39.5 74.95 Q31.15 74.65 24.85 73.0 17.6 71.1 12.55 67.2 -2.45 55.65 -0.6 39.45 0.05 33.45 3.05 27.75 5.55 22.95 8.55 20.2 18.3 11.3 38.05 14.15 L40.0 14.45 38.05 14.15 Q36.95 7.5 33.0 2.4 L40.0 2.4 40.0 14.45 M11.6 30.25 L15.05 43.2 Q24.1 46.3 33.4 45.8 L11.6 30.25" fill="url(#decoration35-gradient1)" fill-rule="evenodd" stroke="none"/>
      <path d="M44.05 11.6 Q43.5 11.7 41.7 13.1 L40.0 14.45 38.05 14.15 Q18.3 11.3 8.55 20.2 5.55 22.95 3.05 27.75 0.05 33.45 -0.6 39.45 -2.45 55.65 12.55 67.2 17.6 71.1 24.85 73.0 31.15 74.65 39.5 74.95 L40.6 72.6 Q55.65 72.95 68.1 65.4 80.75 57.75 81.4 42.5 82.1 27.25 72.3 17.35 63.1 8.05 44.05 11.6 45.55 5.55 44.35 0.0 L40.6 0.0 40.0 2.4 33.0 2.4 Q36.95 7.5 38.05 14.15 M40.6 47.95 L43.55 54.0 40.6 54.0 40.0 56.4 34.0 56.4 40.6 47.95 M40.0 61.9 L40.6 59.45 46.75 58.25 Q53.55 56.65 57.1 54.9 L58.75 58.9 63.7 57.2 62.5 52.6 71.4 45.95 Q64.75 61.4 56.1 66.45 L53.1 62.4 48.55 63.9 48.1 68.8 40.6 69.0 34.65 71.25 33.15 66.95 29.65 66.95 27.5 70.25 Q21.25 68.6 6.75 52.7 L19.65 57.55 19.65 62.45 25.75 64.95 27.1 59.9 Q33.35 62.25 40.0 61.9 M69.05 27.55 L47.25 43.1 Q56.55 43.6 65.6 40.5 L69.05 27.55 M11.6 30.25 L33.4 45.8 Q24.1 46.3 15.05 43.2 L11.6 30.25 M63.7 57.2 L64.5 56.9" fill="none" stroke="#000000" stroke-linecap="round" stroke-linejoin="round" stroke-opacity="0.11764706" stroke-width="0.8"/>
      <path d="M40.0 14.45 L40.6 47.95 M40.0 56.4 L40.0 61.9 M40.6 69.0 L40.6 72.6 M40.0 2.4 L40.0 14.45" fill="none" stroke="#000000" stroke-linecap="round" stroke-linejoin="round" stroke-opacity="0.06666667" stroke-width="0.30000000000000004"/>
    </g>
    <linearGradient gradientTransform="matrix(-0.0129, 0.0021, -0.007, -0.0437, 50.95, 37.6)" gradientUnits="userSpaceOnUse" id="decoration35-gradient0" spreadMethod="pad" x1="-819.2" x2="819.2">
      <stop offset="0.0" stop-color="#000000" stop-opacity="0.28627452"/>
      <stop offset="1.0" stop-color="#000000" stop-opacity="0.28627452"/>
    </linearGradient>
    <linearGradient gradientTransform="matrix(0.0167, 0.0, 0.0, 0.0376, 26.9, 43.5)" gradientUnits="userSpaceOnUse" id="decoration35-gradient1" spreadMethod="pad" x1="-819.2" x2="819.2">
      <stop offset="0.0" stop-color="#000000" stop-opacity="0.28627452"/>
      <stop offset="1.0" stop-color="#000000" stop-opacity="0.28627452"/>
    </linearGradient>
  </defs>
</svg>
