<?xml version="1.0" encoding="UTF-8" standalone="no"?>
<svg xmlns:ffdec="https://www.free-decompiler.com/flash" xmlns:xlink="http://www.w3.org/1999/xlink" ffdec:objectType="frame" height="75.8px" width="283.8px" xmlns="http://www.w3.org/2000/svg">
  <g transform="matrix(1.0, 0.0, 0.0, 1.0, 139.55, 43.1)">
    <use ffdec:characterId="835" height="87.2" transform="matrix(0.3406, 0.1966, -0.1966, 0.3406, -120.9599, -39.0507)" width="83.7" xlink:href="#decoration36-sprite0"/>
    <use ffdec:characterId="835" height="87.2" transform="matrix(0.357, 0.1648, -0.1648, 0.357, -96.2525, -24.734)" width="83.7" xlink:href="#decoration36-sprite0"/>
    <use ffdec:characterId="835" height="87.2" transform="matrix(0.3774, 0.1105, -0.1105, 0.3774, -70.9082, -12.6186)" width="83.7" xlink:href="#decoration36-sprite0"/>
    <use ffdec:characterId="835" height="87.2" transform="matrix(0.3918, 0.0332, -0.0332, 0.3918, -43.9554, -4.2514)" width="83.7" xlink:href="#decoration36-sprite0"/>
    <use ffdec:characterId="835" height="87.2" transform="matrix(0.3931, -0.011, 0.011, 0.3931, -14.567, -1.5543)" width="83.7" xlink:href="#decoration36-sprite0"/>
    <use ffdec:characterId="835" height="87.2" transform="matrix(-0.3204, 0.185, 0.1911, 0.3438, 127.5667, -41.9757)" width="83.7" xlink:href="#decoration36-sprite0"/>
    <use ffdec:characterId="835" height="87.2" transform="matrix(-0.3342, 0.1722, 0.1648, 0.357, 102.0022, -27.4502)" width="83.7" xlink:href="#decoration36-sprite0"/>
    <use ffdec:characterId="835" height="87.2" transform="matrix(-0.3774, 0.1105, 0.1105, 0.3774, 76.7582, -13.8186)" width="83.7" xlink:href="#decoration36-sprite0"/>
    <use ffdec:characterId="835" height="87.2" transform="matrix(-0.3826, 0.0324, 0.0332, 0.3918, 49.135, -5.1497)" width="83.7" xlink:href="#decoration36-sprite0"/>
    <use ffdec:characterId="835" height="87.2" transform="matrix(0.3406, 0.1966, -0.1966, 0.3406, -122.4099, -41.9007)" width="83.7" xlink:href="#decoration36-sprite0"/>
    <use ffdec:characterId="835" height="87.2" transform="matrix(0.357, 0.1648, -0.1648, 0.357, -97.7025, -27.584)" width="83.7" xlink:href="#decoration36-sprite0"/>
    <use ffdec:characterId="835" height="87.2" transform="matrix(0.3774, 0.1105, -0.1105, 0.3774, -72.3582, -15.4686)" width="83.7" xlink:href="#decoration36-sprite0"/>
    <use ffdec:characterId="835" height="87.2" transform="matrix(0.3918, 0.0332, -0.0332, 0.3918, -45.4054, -7.1014)" width="83.7" xlink:href="#decoration36-sprite0"/>
    <use ffdec:characterId="835" height="87.2" transform="matrix(0.3931, -0.011, 0.011, 0.3931, -16.017, -4.4043)" width="83.7" xlink:href="#decoration36-sprite0"/>
    <use ffdec:characterId="835" height="87.2" transform="matrix(-0.3406, 0.1966, 0.1966, 0.3406, 125.1099, -43.1007)" width="83.7" xlink:href="#decoration36-sprite0"/>
    <use ffdec:characterId="835" height="87.2" transform="matrix(-0.357, 0.1648, 0.1648, 0.357, 100.4025, -28.784)" width="83.7" xlink:href="#decoration36-sprite0"/>
    <use ffdec:characterId="835" height="87.2" transform="matrix(-0.3774, 0.1105, 0.1105, 0.3774, 75.0582, -16.6686)" width="83.7" xlink:href="#decoration36-sprite0"/>
    <use ffdec:characterId="835" height="87.2" transform="matrix(-0.3918, 0.0332, 0.0332, 0.3918, 48.1054, -8.3014)" width="83.7" xlink:href="#decoration36-sprite0"/>
  </g>
  <defs>
    <g id="decoration36-sprite0" transform="matrix(1.0, 0.0, 0.0, 1.0, 2.2, 0.2)">
      <use ffdec:characterId="834" height="87.2" transform="matrix(1.0, 0.0, 0.0, 1.0, -2.2, -0.2)" width="83.7" xlink:href="#decoration36-shape0"/>
    </g>
    <g id="decoration36-shape0" transform="matrix(1.0, 0.0, 0.0, 1.0, 2.2, 0.2)">
      <path d="M38.6 13.75 Q41.2 11.75 43.0 12.1 44.8 12.45 47.1 14.0 47.35 9.15 48.65 5.6 50.65 -0.1 54.65 -0.05 57.5 0.0 60.05 6.25 62.25 11.75 62.25 15.8 62.3 22.9 59.25 27.75 56.8 31.6 54.65 31.6 L54.0 31.45 53.6 31.5 Q54.25 35.85 52.25 38.95 L50.05 41.15 81.35 34.15 81.35 46.3 55.0 52.3 68.05 75.55 Q65.8 81.45 58.6 79.85 58.7 82.9 53.75 83.0 49.3 80.45 47.1 81.7 44.95 82.95 44.0 84.6 41.4 87.8 35.55 86.45 L38.6 13.75 M45.0 23.25 Q43.2 23.3 42.55 24.6 42.25 25.25 42.2 26.7 42.1 27.75 42.7 28.9 43.45 30.3 44.8 30.35 46.15 30.4 47.0 29.0 47.65 28.0 47.7 26.9 47.9 23.2 45.0 23.25" fill="url(#decoration36-gradient0)" fill-rule="evenodd" stroke="none"/>
      <path d="M38.6 13.75 L35.55 86.45 Q32.5 87.7 29.95 85.1 27.8 80.65 23.9 83.15 19.9 85.65 16.35 79.85 10.6 81.8 7.25 74.6 L23.6 52.05 -2.05 46.3 -2.05 34.15 29.35 41.15 25.6 38.95 Q22.6 36.35 21.5 31.2 21.15 31.4 19.7 30.75 17.9 29.95 16.4 28.5 11.75 24.05 12.1 15.8 12.35 10.7 13.9 6.1 16.1 -0.25 19.7 -0.05 22.8 0.1 25.2 5.95 27.1 10.6 27.3 14.65 29.95 12.5 33.2 11.95 37.05 11.25 38.6 13.75 M31.45 23.25 Q29.6 23.15 28.95 24.55 28.7 25.15 28.6 26.7 28.45 30.35 31.25 30.35 34.0 30.35 34.15 26.9 34.2 25.5 33.9 24.75 33.35 23.35 31.45 23.25" fill="url(#decoration36-gradient1)" fill-rule="evenodd" stroke="none"/>
      <path d="M35.55 86.45 Q41.4 87.8 44.0 84.6 44.95 82.95 47.1 81.7 49.3 80.45 53.75 83.0 58.7 82.9 58.6 79.85 65.8 81.45 68.05 75.55 L55.0 52.3 81.35 46.3 81.35 34.15 50.05 41.15 52.25 38.95 Q54.25 35.85 53.6 31.5 L54.0 31.45 54.65 31.6 Q56.8 31.6 59.25 27.75 62.3 22.9 62.25 15.8 62.25 11.75 60.05 6.25 57.5 0.0 54.65 -0.05 50.65 -0.1 48.65 5.6 47.35 9.15 47.1 14.0 44.8 12.45 43.0 12.1 41.2 11.75 38.6 13.75 L35.55 86.45 Q32.5 87.7 29.95 85.1 27.8 80.65 23.9 83.15 19.9 85.65 16.35 79.85 10.6 81.8 7.25 74.6 L23.6 52.05 -2.05 46.3 -2.05 34.15 29.35 41.15 25.6 38.95 Q22.6 36.35 21.5 31.2 21.15 31.4 19.7 30.75 17.9 29.95 16.4 28.5 11.75 24.05 12.1 15.8 12.35 10.7 13.9 6.1 16.1 -0.25 19.7 -0.05 22.8 0.1 25.2 5.95 27.1 10.6 27.3 14.65 29.95 12.5 33.2 11.95 37.05 11.25 38.6 13.75 M45.0 23.25 Q47.9 23.2 47.7 26.9 47.65 28.0 47.0 29.0 46.15 30.4 44.8 30.35 43.45 30.3 42.7 28.9 42.1 27.75 42.2 26.7 42.25 25.25 42.55 24.6 43.2 23.3 45.0 23.25 M31.45 23.25 Q33.35 23.35 33.9 24.75 34.2 25.5 34.15 26.9 34.0 30.35 31.25 30.35 28.45 30.35 28.6 26.7 28.7 25.15 28.95 24.55 29.6 23.15 31.45 23.25 Z" fill="none" stroke="#000000" stroke-linecap="round" stroke-linejoin="round" stroke-opacity="0.06666667" stroke-width="0.30000000000000004"/>
    </g>
    <linearGradient gradientTransform="matrix(0.028, 0.0, 0.0, 0.053, 69.85, 41.8)" gradientUnits="userSpaceOnUse" id="decoration36-gradient0" spreadMethod="pad" x1="-819.2" x2="819.2">
      <stop offset="0.0" stop-color="#000000" stop-opacity="0.29803923"/>
      <stop offset="1.0" stop-color="#000000" stop-opacity="0.29803923"/>
    </linearGradient>
    <linearGradient gradientTransform="matrix(0.0197, 0.003, -0.0086, 0.0524, 38.7, 45.8)" gradientUnits="userSpaceOnUse" id="decoration36-gradient1" spreadMethod="pad" x1="-819.2" x2="819.2">
      <stop offset="0.0" stop-color="#000000" stop-opacity="0.29803923"/>
      <stop offset="1.0" stop-color="#000000" stop-opacity="0.29803923"/>
    </linearGradient>
  </defs>
</svg>
