<?xml version="1.0" encoding="UTF-8" standalone="no"?>
<svg xmlns:xlink="http://www.w3.org/1999/xlink" height="97.85px" width="94.85px" xmlns="http://www.w3.org/2000/svg">
  <g transform="matrix(1.0, 0.0, 0.0, 1.0, 41.9, 87.3)">
    <use height="38.15" transform="matrix(0.8955, -1.0078, 0.9995, 0.8927, -41.8859, -23.5101)" width="63.3" xlink:href="#decoration37-sprite0"/>
  </g>
  <defs>
    <g id="decoration37-sprite0" transform="matrix(1.0, 0.0, 0.0, 1.0, -1.3, 0.0)">
      <use height="38.15" transform="matrix(1.0, 0.0, 0.0, 1.0, 1.3, 0.0)" width="63.3" xlink:href="#decoration37-shape0"/>
    </g>
    <g id="decoration37-shape0" transform="matrix(1.0, 0.0, 0.0, 1.0, -1.3, 0.0)">
      <path d="M26.1 25.7 L25.75 24.3 Q42.25 16.5 63.35 0.0 64.25 0.8 64.5 1.8 44.45 15.9 26.1 25.7" fill="#4f3115" fill-rule="evenodd" stroke="none"/>
      <path d="M64.5 1.8 Q64.8 3.0 64.1 4.5 44.2 15.55 26.55 27.85 L26.1 25.7 Q44.45 15.9 64.5 1.8" fill="#301d0c" fill-rule="evenodd" stroke="none"/>
      <path d="M64.5 1.8 Q64.8 3.0 64.1 4.5 44.2 15.55 26.55 27.85 L26.1 25.7 25.75 24.3 Q42.25 16.5 63.35 0.0 64.25 0.8 64.5 1.8 Z" fill="none" stroke="#000000" stroke-linecap="round" stroke-linejoin="round" stroke-opacity="0.3019608" stroke-width="0.05"/>
      <path d="M26.75 24.2 L30.3 22.8 27.0 24.55 24.5 25.85 23.9 25.45 24.5 24.75 25.05 23.65 26.85 19.05 27.85 21.05 25.05 25.1 26.75 24.2" fill="url(#decoration37-gradient0)" fill-rule="evenodd" stroke="none"/>
      <path d="M25.05 25.1 L29.1 20.6 29.05 22.5 26.75 24.2 25.05 25.1 M27.0 24.55 Q30.75 23.2 34.0 22.85 30.35 23.9 27.25 25.4 L30.35 24.4 31.35 24.5 30.2 25.4 28.8 26.0 34.45 25.15 34.45 25.8 29.55 26.25 27.85 26.2 28.8 26.0 27.85 26.2 25.65 26.9 25.65 26.95 26.25 27.75 25.9 28.6 25.75 28.95 Q26.65 32.85 25.05 36.25 25.6 33.3 25.1 30.55 L24.95 29.7 23.5 31.8 20.25 34.85 Q18.95 35.95 17.1 36.0 L18.25 35.3 17.15 34.6 Q14.6 35.45 11.9 35.7 L15.0 32.8 Q12.35 33.9 8.45 34.0 7.0 33.15 1.3 26.45 6.4 32.0 10.0 31.5 L8.3 32.3 Q11.0 33.5 17.1 31.6 L13.95 34.65 Q16.45 34.5 17.9 33.3 L17.65 34.25 20.6 33.7 19.35 32.25 20.5 33.05 Q23.3 30.75 24.7 27.65 L24.25 27.15 Q21.0 26.1 18.3 26.5 L19.05 25.8 23.7 26.35 22.25 25.15 23.85 25.45 23.9 25.45 Q24.9 22.95 24.2 20.7 25.3 21.2 25.05 23.65 L24.5 24.75 23.9 25.45 24.5 25.85 27.0 24.55 M28.85 27.15 Q32.05 28.45 34.25 30.85 L32.95 31.8 Q32.35 30.7 30.9 29.65 L31.1 29.5 Q29.85 27.7 26.15 27.0 L27.25 27.0 28.85 27.15 M10.15 30.45 L12.45 30.45 15.9 30.35 Q17.8 30.1 21.45 28.15 L22.3 27.8 18.8 30.3 Q14.65 31.3 10.15 30.45 M13.85 27.3 L16.35 27.45 14.15 27.95 9.15 28.55 9.15 28.5 Q11.15 27.5 13.85 27.3 M25.55 26.4 L27.25 25.4 25.55 26.4" fill="#b5a13a" fill-rule="evenodd" stroke="none"/>
      <path d="M1.3 26.45 Q4.4 29.7 6.75 27.35 11.55 24.05 14.85 23.8 12.05 23.15 9.25 23.7 15.65 21.6 22.25 23.85 21.05 21.9 19.1 20.8 20.6 21.1 22.4 23.3 L23.75 25.15 23.9 25.45 23.85 25.45 22.25 25.15 23.7 26.35 19.05 25.8 18.05 25.8 Q18.3 25.2 19.35 24.5 20.95 24.65 22.25 25.15 20.95 24.65 19.35 24.5 18.3 25.2 18.05 25.8 L19.05 25.8 18.3 26.5 Q21.0 26.1 24.25 27.15 L24.05 27.5 Q22.15 30.6 19.35 32.25 22.15 30.6 24.05 27.5 L24.25 27.15 24.7 27.65 Q23.3 30.75 20.5 33.05 L19.35 32.25 20.6 33.7 17.65 34.25 17.9 33.3 Q16.45 34.5 13.95 34.65 L17.1 31.6 Q11.0 33.5 8.3 32.3 L10.0 31.5 Q6.4 32.0 1.3 26.45 M12.45 30.45 L10.15 30.45 Q14.65 31.3 18.8 30.3 L22.3 27.8 21.45 28.15 Q16.25 30.1 12.45 30.45 M9.15 28.5 L9.15 28.55 14.15 27.95 16.35 27.45 13.85 27.3 Q11.15 27.5 9.15 28.5 L8.6 28.75 Q9.65 26.9 12.4 26.2 9.65 26.9 8.6 28.75 L9.15 28.5 M18.95 27.4 Q13.85 30.3 10.15 30.45 13.85 30.3 18.95 27.4" fill="url(#decoration37-gradient1)" fill-rule="evenodd" stroke="none"/>
      <path d="M29.1 28.8 L29.85 30.1 30.8 32.35 Q29.95 30.35 28.05 28.65 L27.15 27.45 29.1 28.8 M25.1 30.55 Q23.95 33.0 22.3 35.45 L21.75 35.35 Q19.7 37.2 16.75 38.15 18.4 37.55 20.15 35.8 14.7 38.55 11.5 37.75 15.55 36.7 17.25 35.1 14.4 37.05 10.7 36.6 9.55 36.05 9.4 35.45 10.9 36.2 13.0 34.3 11.15 35.5 8.45 34.0 12.35 33.9 15.0 32.8 L11.9 35.7 Q14.6 35.45 17.15 34.6 L18.25 35.3 17.1 36.0 Q18.95 35.95 20.25 34.85 L23.5 31.8 Q22.8 33.85 21.25 35.25 L21.75 35.35 21.25 35.25 Q22.8 33.85 23.5 31.8 L24.95 29.7 25.1 30.55 M21.45 28.15 Q17.8 30.1 15.9 30.35 L12.45 30.45 Q16.25 30.1 21.45 28.15" fill="#998629" fill-rule="evenodd" stroke="none"/>
      <path d="M30.9 29.65 L30.4 30.05 29.1 28.8 27.15 27.45 26.15 27.0 Q29.85 27.7 31.1 29.5 L30.9 29.65" fill="#d4ce58" fill-rule="evenodd" stroke="none"/>
      <path d="M29.55 26.25 Q32.35 26.4 34.8 27.75 L33.15 28.7 Q31.2 27.6 28.85 27.15 L27.25 27.0 26.15 27.0 27.15 27.45 28.05 28.65 Q28.9 29.8 29.1 31.1 L28.25 31.3 Q28.25 29.25 26.9 27.75 27.6 29.8 27.15 31.8 27.25 30.0 26.45 28.05 L26.25 27.75 25.65 26.9 27.85 26.2 29.55 26.25" fill="url(#decoration37-gradient2)" fill-rule="evenodd" stroke="none"/>
      <path d="M25.05 25.1 L29.1 20.6 29.05 22.5 26.75 24.2 30.3 22.8 27.0 24.55 Q30.75 23.2 34.0 22.85 30.35 23.9 27.25 25.4 L30.35 24.4 31.35 24.5 30.2 25.4 28.8 26.0 34.45 25.15 34.45 25.8 29.55 26.25 Q32.35 26.4 34.8 27.75 L33.15 28.7 Q31.2 27.6 28.85 27.15 32.05 28.45 34.25 30.85 L32.95 31.8 Q32.35 30.7 30.9 29.65 L30.4 30.05 29.1 28.8 29.85 30.1 30.8 32.35 Q29.95 30.35 28.05 28.65 28.9 29.8 29.1 31.1 L28.25 31.3 Q28.25 29.25 26.9 27.75 27.6 29.8 27.15 31.8 27.25 30.0 26.45 28.05 L26.25 27.75 25.9 28.6 25.75 28.95 Q26.65 32.85 25.05 36.25 25.6 33.3 25.1 30.55 23.95 33.0 22.3 35.45 L21.75 35.35 Q19.7 37.2 16.75 38.15 18.4 37.55 20.15 35.8 14.7 38.55 11.5 37.75 15.55 36.7 17.25 35.1 14.4 37.05 10.7 36.6 9.55 36.05 9.4 35.45 10.9 36.2 13.0 34.3 11.15 35.5 8.45 34.0 7.0 33.15 1.3 26.45 4.4 29.7 6.75 27.35 11.55 24.05 14.85 23.8 12.05 23.15 9.25 23.7 15.65 21.6 22.25 23.85 21.05 21.9 19.1 20.8 20.6 21.1 22.4 23.3 L23.75 25.15 23.9 25.45 Q24.9 22.95 24.2 20.7 25.3 21.2 25.05 23.65 L26.85 19.05 27.85 21.05 25.05 25.1 26.75 24.2 M25.05 23.65 L24.5 24.75 23.9 25.45 24.5 25.85 27.0 24.55 M19.05 25.8 L18.05 25.8 Q18.3 25.2 19.35 24.5 20.95 24.65 22.25 25.15 M19.05 25.8 L23.7 26.35 22.25 25.15 M12.45 30.45 L10.15 30.45 Q13.85 30.3 18.95 27.4 M22.3 27.8 L21.45 28.15 M12.45 30.45 Q16.25 30.1 21.45 28.15 M19.35 32.25 Q22.15 30.6 24.05 27.5 L24.25 27.15 24.7 27.65 Q23.3 30.75 20.5 33.05 L19.35 32.25 M9.15 28.5 L8.6 28.75 Q9.65 26.9 12.4 26.2 M13.85 27.3 Q11.15 27.5 9.15 28.5 M26.15 27.0 Q29.85 27.7 31.1 29.5 L30.9 29.65 M28.8 26.0 L27.85 26.2 29.55 26.25 M26.25 27.75 L25.65 26.9 27.85 26.2 M27.15 27.45 L26.15 27.0 27.25 27.0 28.85 27.15 M27.25 25.4 L25.55 26.4 M29.1 28.8 L27.15 27.45 28.05 28.65 M24.95 29.7 L25.1 30.55 M23.5 31.8 Q22.8 33.85 21.25 35.25 L21.75 35.35" fill="none" stroke="#000000" stroke-linecap="round" stroke-linejoin="round" stroke-opacity="0.3019608" stroke-width="0.05"/>
      <path d="M23.95 24.7 L24.15 24.4 Q24.4 24.15 24.7 24.25 24.7 24.7 24.85 25.0 L26.0 26.55 26.65 27.15 25.85 27.2 24.5 25.85 23.95 24.7 M25.85 27.2 Q25.85 26.75 26.0 26.55 25.85 26.75 25.85 27.2 M24.85 25.0 Q24.6 25.25 24.5 25.85 24.6 25.25 24.85 25.0" fill="#cfbc5a" fill-rule="evenodd" stroke="none"/>
      <path d="M26.65 27.15 L27.3 27.6 Q27.7 28.25 27.3 28.8 L26.8 28.75 Q26.8 29.35 25.95 29.25 L25.45 28.8 Q24.45 27.95 24.0 26.8 23.6 26.0 23.5 25.1 L23.75 24.75 23.95 24.7 24.5 25.85 25.85 27.2 26.65 27.15 M25.85 27.2 L26.3 28.55 26.8 28.75 26.3 28.55 24.85 27.15 Q24.7 27.75 25.45 28.8 24.7 27.75 24.85 27.15 L26.3 28.55 25.85 27.2 M23.95 24.7 L24.1 25.4 24.5 26.55 24.5 25.85 24.5 26.55 24.85 27.15 24.5 26.55 24.1 25.4 Q23.7 25.75 24.0 26.8 23.7 25.75 24.1 25.4 L23.95 24.7" fill="#a39138" fill-rule="evenodd" stroke="none"/>
      <path d="M23.95 24.7 L24.15 24.4 Q24.4 24.15 24.7 24.25 24.7 24.7 24.85 25.0 L26.0 26.55 26.65 27.15 27.3 27.6 Q27.7 28.25 27.3 28.8 L26.8 28.75 Q26.8 29.35 25.95 29.25 L25.45 28.8 Q24.45 27.95 24.0 26.8 23.6 26.0 23.5 25.1 L23.75 24.75 23.95 24.7 M24.5 25.85 Q24.6 25.25 24.85 25.0 M26.0 26.55 Q25.85 26.75 25.85 27.2 M26.8 28.75 L26.3 28.55 24.85 27.15 Q24.7 27.75 25.45 28.8 M26.3 28.55 L25.85 27.2 M24.5 25.85 L24.5 26.55 24.85 27.15 M24.5 26.55 L24.1 25.4 Q23.7 25.75 24.0 26.8 M24.1 25.4 L23.95 24.7 Z" fill="none" stroke="#000000" stroke-linecap="round" stroke-linejoin="round" stroke-opacity="0.3019608" stroke-width="0.05"/>
    </g>
    <linearGradient gradientTransform="matrix(-0.0017, 0.0029, -0.0035, -0.0023, 26.4, 21.85)" gradientUnits="userSpaceOnUse" id="decoration37-gradient0" spreadMethod="pad" x1="-819.2" x2="819.2">
      <stop offset="0.01568627450980392" stop-color="#ebdd54"/>
      <stop offset="0.9921568627450981" stop-color="#d4ce58"/>
    </linearGradient>
    <linearGradient gradientTransform="matrix(7.0E-4, 0.0076, -0.0085, 4.0E-4, 12.9, 26.1)" gradientUnits="userSpaceOnUse" id="decoration37-gradient1" spreadMethod="pad" x1="-819.2" x2="819.2">
      <stop offset="0.0" stop-color="#ebdd54"/>
      <stop offset="0.9921568627450981" stop-color="#d4ce58"/>
    </linearGradient>
    <linearGradient gradientTransform="matrix(-0.004, 0.0038, -0.0024, -0.0026, 30.15, 29.15)" gradientUnits="userSpaceOnUse" id="decoration37-gradient2" spreadMethod="pad" x1="-819.2" x2="819.2">
      <stop offset="0.01568627450980392" stop-color="#ebdd54"/>
      <stop offset="0.9921568627450981" stop-color="#d4ce58"/>
    </linearGradient>
  </defs>
</svg>
