<?xml version="1.0" encoding="UTF-8" standalone="no"?>
<svg xmlns:xlink="http://www.w3.org/1999/xlink" height="159.0px" width="107.5px" xmlns="http://www.w3.org/2000/svg">
  <g transform="matrix(1.0, 0.0, 0.0, 1.0, 42.15, 0.2)">
    <use height="159.0" transform="matrix(1.0, 0.0, 0.0, 1.0, -42.15, -0.2)" width="107.5" xlink:href="#decoration38-shape0"/>
    <use height="15.65" transform="matrix(0.3368, 0.0, 0.0, 0.3368, -8.7005, 90.8495)" width="23.0" xlink:href="#decoration38-sprite0"/>
    <use height="15.65" transform="matrix(0.4788, 0.0, 0.0, 0.3368, -10.9218, 99.6495)" width="23.0" xlink:href="#decoration38-sprite0"/>
    <use height="15.65" transform="matrix(0.4337, 0.0, 0.0, 0.3368, -10.365, 95.8995)" width="23.0" xlink:href="#decoration38-sprite0"/>
    <use height="15.65" transform="matrix(0.2668, 0.0, 0.0, 0.2668, -7.09, 105.11)" width="23.0" xlink:href="#decoration38-sprite0"/>
    <use height="15.65" transform="matrix(-0.3368, 0.0, 0.0, 0.3368, 13.6005, 90.2995)" width="23.0" xlink:href="#decoration38-sprite0"/>
    <use height="15.65" transform="matrix(-0.4788, 0.0, 0.0, 0.3368, 15.8218, 99.6495)" width="23.0" xlink:href="#decoration38-sprite0"/>
    <use height="15.65" transform="matrix(-0.4337, 0.0, 0.0, 0.3368, 15.315, 95.5995)" width="23.0" xlink:href="#decoration38-sprite0"/>
    <use height="15.65" transform="matrix(-0.2668, 0.0, 0.0, 0.2668, 11.79, 104.76)" width="23.0" xlink:href="#decoration38-sprite0"/>
    <use height="15.65" transform="matrix(0.2668, 0.0, 0.0, 0.211, -7.09, 88.1184)" width="23.0" xlink:href="#decoration38-sprite0"/>
    <use height="15.65" transform="matrix(-0.2668, 0.0, 0.0, 0.211, 10.64, 88.1184)" width="23.0" xlink:href="#decoration38-sprite0"/>
    <use height="41.75" transform="matrix(1.0, 0.0, 0.0, 1.0, -41.2, 113.55)" width="54.2" xlink:href="#decoration38-shape2"/>
  </g>
  <defs>
    <g id="decoration38-shape0" transform="matrix(1.0, 0.0, 0.0, 1.0, 42.15, 0.2)">
      <path d="M14.0 41.05 Q17.8 37.25 23.75 38.1 28.15 38.75 29.9 48.75 31.8 59.7 27.45 70.3 27.25 70.8 22.4 69.65 L23.2 72.15 Q22.45 73.8 16.85 74.9 13.45 74.75 10.6 76.7 10.5 83.6 8.75 85.35 14.1 85.15 18.35 83.9 22.6 82.55 24.55 86.6 25.5 91.4 27.95 95.85 29.3 95.25 30.0 92.05 27.7 90.35 26.9 83.5 28.05 80.9 30.7 83.5 L32.25 87.8 Q34.9 89.05 35.65 82.95 37.25 80.25 41.9 79.05 L42.05 79.0 42.95 78.9 Q46.25 78.65 46.3 82.65 50.45 85.45 47.4 87.65 43.85 86.9 41.5 90.3 L45.3 91.8 Q48.25 94.25 46.7 98.25 45.15 102.3 43.3 101.1 41.45 99.85 43.15 95.95 41.2 94.9 39.65 95.05 39.5 97.75 34.35 96.8 30.45 105.6 27.55 106.05 24.65 106.5 23.0 101.7 22.75 96.7 19.35 90.9 16.9 88.85 14.1 90.1 19.1 97.35 18.7 103.6 17.75 107.8 16.25 109.25 L13.15 112.05 Q11.5 113.45 8.05 113.25 8.45 119.85 9.65 124.3 11.6 127.65 18.2 122.25 24.8 116.85 27.2 115.9 29.55 114.9 31.55 120.6 31.75 124.0 32.95 128.1 33.95 130.75 35.75 132.45 35.25 117.95 39.7 109.55 44.0 100.25 55.9 101.95 70.05 107.95 63.0 122.55 64.9 109.15 54.8 106.15 45.25 105.2 42.3 114.9 40.2 122.0 40.85 129.5 40.9 134.5 38.5 137.85 40.1 137.9 40.2 140.05 41.55 142.0 44.2 142.9 L47.3 144.35 Q50.65 146.55 51.85 150.5 51.75 154.55 48.3 156.45 L47.3 154.15 Q46.6 156.1 43.2 157.25 41.75 158.65 39.6 158.8 L38.7 158.8 Q39.8 156.85 38.7 154.9 36.95 153.2 37.95 150.6 36.05 146.7 33.75 146.15 26.1 158.8 14.75 154.95 10.95 153.65 7.25 150.65 4.6 148.55 3.5 147.05 0.95 143.65 2.55 135.45 0.3 135.05 -1.7 133.55 -4.35 134.15 -7.4 129.45 -10.45 124.7 -14.1 124.0 -17.0 129.75 -17.95 135.95 -16.35 137.8 -17.6 140.05 -13.5 142.9 -15.1 145.0 -15.1 148.65 -18.95 149.55 -18.3 147.2 -18.95 145.5 -20.3 142.1 -23.7 145.5 -26.9 147.65 -26.7 150.15 -25.7 152.75 -27.45 154.45 -28.55 156.4 -27.45 158.35 -30.25 158.5 -31.95 156.8 -35.35 155.65 -36.35 152.35 -37.5 153.8 -37.05 156.0 -40.55 154.1 -39.85 149.5 -39.25 148.0 -32.35 141.35 -25.25 134.4 -23.7 131.5 -19.35 123.3 -20.3 120.15 -19.5 114.0 -13.9 115.75 -4.9 123.95 -4.25 122.4 -2.0 120.35 1.75 124.45 2.75 119.25 1.8 113.25 -7.15 112.35 -9.9 104.55 -10.6 97.65 -5.75 90.5 -8.75 89.95 -11.9 92.6 -15.1 95.2 -15.25 100.5 -15.45 105.75 -18.8 105.3 -22.2 104.85 -25.55 96.3 -27.8 97.0 -29.7 95.0 -32.95 94.2 -33.85 96.5 -31.6 99.45 -32.65 101.05 -34.9 102.1 -38.15 96.65 -39.05 94.5 -36.85 92.1 -33.5 90.9 -34.85 90.0 L-38.85 88.7 Q-40.2 87.35 -34.1 84.6 -28.0 81.85 -27.2 83.25 -26.7 87.0 -23.8 86.6 L-22.25 83.75 Q-19.6 81.2 -18.45 83.75 -19.25 90.65 -20.85 92.65 -20.25 94.8 -19.15 94.45 -16.35 92.05 -15.1 86.85 -14.15 82.85 -10.1 84.55 -6.05 86.2 -1.0 85.85 -4.0 83.1 -3.75 77.3 -6.6 75.25 -11.35 75.0 -17.75 74.7 -20.75 72.45 L-19.75 69.5 -21.95 70.45 Q-24.95 64.45 -26.0 57.45 -28.05 43.4 -18.25 38.2 -15.1 36.55 -10.1 40.85 -4.5 45.7 -3.6 55.35 -3.15 54.8 -0.25 53.25 L2.3 51.9 2.45 51.85 Q5.75 51.9 8.45 54.9 10.1 44.95 14.0 41.05 M9.8 135.65 Q9.45 135.75 9.5 139.1 9.5 142.7 10.2 144.55 17.8 156.55 26.75 147.6 26.45 146.85 26.25 145.25 26.05 143.25 26.55 142.55 L27.65 139.7 Q28.6 137.1 29.2 136.4 28.55 129.1 25.45 123.75 23.1 124.0 21.55 126.1 19.95 128.15 19.4 129.8 18.8 131.45 17.15 132.75 15.85 133.75 9.8 135.65" fill="#000000" fill-opacity="0.3019608" fill-rule="evenodd" stroke="none"/>
      <path d="M0.8 49.6 L1.25 49.65 Q2.9 49.85 5.1 51.2 5.15 44.1 10.4 39.7 15.6 35.3 19.75 35.45 23.9 35.6 26.2 40.2 28.45 44.75 28.45 53.2 28.45 61.05 26.7 65.3 25.6 68.1 24.85 68.1 L20.35 67.25 20.75 68.15 21.15 69.75 Q21.15 70.65 18.55 71.6 15.6 72.7 11.55 72.9 8.55 73.1 7.95 77.35 7.15 82.5 6.7 82.95 L18.35 81.2 Q20.1 81.2 21.3 83.6 L25.9 93.45 27.25 91.45 27.95 89.65 26.7 87.3 Q25.3 84.4 24.85 81.1 L26.4 79.8 31.2 85.7 Q32.15 85.7 32.8 84.25 L33.95 81.1 Q35.95 76.5 40.9 76.5 41.7 76.5 44.2 79.35 46.75 82.25 46.75 83.25 46.75 84.3 46.05 84.75 45.35 85.2 43.7 85.2 41.65 85.2 39.45 87.9 L43.5 90.2 Q45.25 91.5 45.25 93.1 45.25 95.75 43.9 97.6 42.85 99.0 42.2 99.0 41.45 99.0 40.9 98.4 40.3 97.75 40.3 96.8 40.3 95.7 41.1 93.55 39.1 92.65 37.6 92.65 L36.45 94.7 Q34.85 96.35 32.3 94.4 28.7 103.75 24.85 103.75 22.8 103.75 21.6 101.15 20.95 99.8 19.95 95.5 18.05 87.25 14.15 87.25 L13.25 87.35 12.05 87.7 Q14.25 88.8 15.65 93.9 16.7 97.6 16.7 99.65 16.7 104.45 13.7 107.85 10.5 111.4 6.0 110.85 L7.6 121.9 9.65 120.3 Q10.65 119.65 11.4 119.65 11.9 119.65 12.55 120.1 L13.7 120.5 Q15.1 120.5 18.95 116.7 22.8 112.9 25.45 112.9 27.6 112.9 28.85 117.25 31.25 125.7 32.85 129.2 L33.7 130.05 Q33.6 114.95 37.1 107.8 41.15 99.35 51.05 99.35 57.2 99.35 60.7 104.2 63.4 107.95 63.4 111.9 L61.8 118.4 60.95 120.15 Q61.35 117.6 61.35 115.55 61.35 111.05 58.7 107.5 55.85 103.7 51.65 103.7 46.85 103.7 44.6 105.6 42.75 107.15 40.25 112.5 39.3 114.5 38.55 124.1 37.8 133.3 36.45 135.45 38.75 138.25 45.2 142.25 49.8 145.15 49.8 148.1 49.8 153.0 46.25 154.05 L45.25 151.75 Q44.95 153.15 42.65 154.2 39.45 155.45 37.55 156.4 L36.65 156.4 Q37.2 155.5 37.2 154.5 37.2 153.2 35.35 149.05 33.25 144.4 31.7 143.75 28.0 149.45 24.3 151.7 21.35 153.5 17.55 153.5 9.35 153.5 3.0 145.75 -3.3 138.05 0.5 133.05 -3.55 132.65 -8.1 127.8 -13.1 122.5 -16.15 121.6 L-20.0 133.55 -19.65 137.65 Q-19.65 138.55 -18.15 139.75 -16.7 141.0 -16.7 141.25 -16.7 142.9 -17.75 144.65 -18.8 146.3 -20.05 146.9 L-21.0 147.15 Q-20.65 146.0 -20.65 145.0 -20.65 143.45 -21.3 142.4 -21.95 141.4 -22.85 141.4 -27.9 141.4 -29.25 148.4 -30.2 153.2 -29.5 155.95 -31.2 156.4 -34.55 154.05 -37.55 151.95 -38.1 150.8 L-38.4 149.95 Q-39.05 151.3 -39.2 152.55 L-39.1 153.6 Q-40.45 152.5 -41.3 150.65 L-41.95 148.75 Q-41.95 144.45 -40.7 142.6 -39.75 141.25 -37.55 140.65 L-33.45 139.45 Q-30.95 138.3 -29.25 135.5 L-25.2 128.2 Q-22.5 122.85 -22.3 120.9 -21.85 116.9 -21.4 115.7 -20.55 113.0 -18.45 113.0 -15.85 113.0 -11.6 116.65 -7.35 120.3 -6.75 120.3 -6.25 120.3 -5.7 119.85 -5.2 119.4 -4.7 119.4 -2.05 119.4 -0.3 122.05 L0.25 117.35 0.15 110.85 Q-2.55 110.85 -6.45 108.7 -12.0 105.65 -12.0 100.45 -12.0 99.3 -10.6 94.95 -9.1 90.25 -7.8 88.1 -15.85 88.8 -16.95 96.0 L-17.6 100.85 Q-18.15 103.0 -20.0 103.0 -23.15 103.0 -25.6 98.55 -28.05 94.1 -28.65 94.1 L-30.75 93.25 Q-32.8 92.4 -33.2 92.4 -34.95 92.4 -35.9 94.1 -35.7 94.2 -35.05 95.5 -34.4 96.8 -34.3 97.3 L-34.45 98.25 -34.45 98.55 Q-34.6 98.85 -35.25 98.85 -36.7 98.85 -38.6 96.6 -40.4 94.5 -40.4 93.2 -40.4 92.5 -39.2 91.1 L-36.5 88.1 Q-36.6 87.9 -40.9 86.3 -41.9 85.9 -41.9 84.35 -41.9 83.7 -40.6 82.45 -39.35 81.25 -39.35 80.1 -39.35 76.8 -36.55 76.8 -32.8 76.8 -30.05 80.55 -27.3 84.25 -26.5 84.25 -25.6 84.25 -25.75 83.85 L-26.25 82.85 Q-26.8 81.15 -22.0 80.1 L-20.75 80.45 -20.6 80.55 -20.5 81.35 Q-20.5 82.8 -21.7 86.4 L-22.9 90.25 Q-22.9 91.3 -21.7 92.1 -18.95 90.15 -17.5 85.5 -16.3 81.7 -14.35 81.7 -13.9 81.7 -10.6 82.65 L-5.45 83.55 -3.05 83.45 Q-3.55 82.95 -4.85 77.95 -5.85 73.95 -9.1 73.35 L-17.6 72.0 Q-22.1 71.2 -22.8 70.05 L-21.8 67.1 -24.0 68.05 Q-26.35 65.15 -27.6 58.25 L-28.35 51.7 Q-28.35 43.75 -24.45 39.0 -21.5 35.4 -18.55 35.4 -15.25 35.4 -12.05 38.7 -7.55 43.35 -5.65 52.95 -3.75 49.75 -0.35 49.6 L-0.85 49.95 Q-1.3 50.35 -1.3 50.95 L-0.85 52.0 Q-0.45 52.4 0.15 52.4 0.75 52.4 1.2 52.0 1.6 51.55 1.6 50.95 1.6 50.35 1.2 49.95 L0.7 49.6 0.8 49.6 M10.9 131.85 L6.75 133.55 Q6.75 140.25 10.1 144.85 13.25 149.1 17.2 149.1 18.65 149.1 21.45 147.9 24.7 146.5 24.7 145.2 L24.3 143.45 23.85 141.7 Q23.85 140.6 25.3 139.65 26.75 138.75 26.75 138.15 L27.15 134.0 Q27.15 130.8 25.6 126.4 24.6 123.7 23.4 121.35 20.25 121.8 18.1 125.35 17.0 127.2 15.9 129.7 15.25 130.25 10.9 131.85" fill="#3a3424" fill-rule="evenodd" stroke="none"/>
      <path d="M0.8 49.6 L1.25 49.65 Q2.9 49.85 5.1 51.2 5.15 44.1 10.4 39.7 15.6 35.3 19.75 35.45 23.9 35.6 26.2 40.2 28.45 44.75 28.45 53.2 28.45 61.05 26.7 65.3 25.6 68.1 24.85 68.1 L20.35 67.25 20.75 68.15 21.15 69.75 Q21.15 70.65 18.55 71.6 15.6 72.7 11.55 72.9 8.55 73.1 7.95 77.35 7.15 82.5 6.7 82.95 L18.35 81.2 Q20.1 81.2 21.3 83.6 L25.9 93.45 27.25 91.45 27.95 89.65 26.7 87.3 Q25.3 84.4 24.85 81.1 L26.4 79.8 31.2 85.7 Q32.15 85.7 32.8 84.25 L33.95 81.1 Q35.95 76.5 40.9 76.5 41.7 76.5 44.2 79.35 46.75 82.25 46.75 83.25 46.75 84.3 46.05 84.75 45.35 85.2 43.7 85.2 41.65 85.2 39.45 87.9 L43.5 90.2 Q45.25 91.5 45.25 93.1 45.25 95.75 43.9 97.6 42.85 99.0 42.2 99.0 41.45 99.0 40.9 98.4 40.3 97.75 40.3 96.8 40.3 95.7 41.1 93.55 39.1 92.65 37.6 92.65 L36.45 94.7 Q34.85 96.35 32.3 94.4 28.7 103.75 24.85 103.75 22.8 103.75 21.6 101.15 20.95 99.8 19.95 95.5 18.05 87.25 14.15 87.25 L13.25 87.35 12.05 87.7 Q14.25 88.8 15.65 93.9 16.7 97.6 16.7 99.65 16.7 104.45 13.7 107.85 10.5 111.4 6.0 110.85 L7.6 121.9 9.65 120.3 Q10.65 119.65 11.4 119.65 11.9 119.65 12.55 120.1 L13.7 120.5 Q15.1 120.5 18.95 116.7 22.8 112.9 25.45 112.9 27.6 112.9 28.85 117.25 31.25 125.7 32.85 129.2 L33.7 130.05 Q33.6 114.95 37.1 107.8 41.15 99.35 51.05 99.35 57.2 99.35 60.7 104.2 63.4 107.95 63.4 111.9 L61.8 118.4 60.95 120.15 Q61.35 117.6 61.35 115.55 61.35 111.05 58.7 107.5 55.85 103.7 51.65 103.7 46.85 103.7 44.6 105.6 42.75 107.15 40.25 112.5 39.3 114.5 38.55 124.1 37.8 133.3 36.45 135.45 38.75 138.25 45.2 142.25 49.8 145.15 49.8 148.1 49.8 153.0 46.25 154.05 L45.25 151.75 Q44.95 153.15 42.65 154.2 39.45 155.45 37.55 156.4 L36.65 156.4 Q37.2 155.5 37.2 154.5 37.2 153.2 35.35 149.05 33.25 144.4 31.7 143.75 28.0 149.45 24.3 151.7 21.35 153.5 17.55 153.5 9.35 153.5 3.0 145.75 -3.3 138.05 0.5 133.05 -3.55 132.65 -8.1 127.8 -13.1 122.5 -16.15 121.6 L-20.0 133.55 -19.65 137.65 Q-19.65 138.55 -18.15 139.75 -16.7 141.0 -16.7 141.25 -16.7 142.9 -17.75 144.65 -18.8 146.3 -20.05 146.9 L-21.0 147.15 Q-20.65 146.0 -20.65 145.0 -20.65 143.45 -21.3 142.4 -21.95 141.4 -22.85 141.4 -27.9 141.4 -29.25 148.4 -30.2 153.2 -29.5 155.95 -31.2 156.4 -34.55 154.05 -37.55 151.95 -38.1 150.8 L-38.4 149.95 Q-39.05 151.3 -39.2 152.55 L-39.1 153.6 Q-40.45 152.5 -41.3 150.65 L-41.95 148.75 Q-41.95 144.45 -40.7 142.6 -39.75 141.25 -37.55 140.65 L-33.45 139.45 Q-30.95 138.3 -29.25 135.5 L-25.2 128.2 Q-22.5 122.85 -22.3 120.9 -21.85 116.9 -21.4 115.7 -20.55 113.0 -18.45 113.0 -15.85 113.0 -11.6 116.65 -7.35 120.3 -6.75 120.3 -6.25 120.3 -5.7 119.85 -5.2 119.4 -4.7 119.4 -2.05 119.4 -0.3 122.05 L0.25 117.35 0.15 110.85 Q-2.55 110.85 -6.45 108.7 -12.0 105.65 -12.0 100.45 -12.0 99.3 -10.6 94.95 -9.1 90.25 -7.8 88.1 -15.85 88.8 -16.95 96.0 L-17.6 100.85 Q-18.15 103.0 -20.0 103.0 -23.15 103.0 -25.6 98.55 -28.05 94.1 -28.65 94.1 L-30.75 93.25 Q-32.8 92.4 -33.2 92.4 -34.95 92.4 -35.9 94.1 -35.7 94.2 -35.05 95.5 -34.4 96.8 -34.3 97.3 L-34.45 98.25 -34.45 98.55 Q-34.6 98.85 -35.25 98.85 -36.7 98.85 -38.6 96.6 -40.4 94.5 -40.4 93.2 -40.4 92.5 -39.2 91.1 L-36.5 88.1 Q-36.6 87.9 -40.9 86.3 -41.9 85.9 -41.9 84.35 -41.9 83.7 -40.6 82.45 -39.35 81.25 -39.35 80.1 -39.35 76.8 -36.55 76.8 -32.8 76.8 -30.05 80.55 -27.3 84.25 -26.5 84.25 -25.6 84.25 -25.75 83.85 L-26.25 82.85 Q-26.8 81.15 -22.0 80.1 L-20.75 80.45 -20.6 80.55 -20.5 81.35 Q-20.5 82.8 -21.7 86.4 L-22.9 90.25 Q-22.9 91.3 -21.7 92.1 -18.95 90.15 -17.5 85.5 -16.3 81.7 -14.35 81.7 -13.9 81.7 -10.6 82.65 L-5.45 83.55 -3.05 83.45 Q-3.55 82.95 -4.85 77.95 -5.85 73.95 -9.1 73.35 L-17.6 72.0 Q-22.1 71.2 -22.8 70.05 L-21.8 67.1 -24.0 68.05 Q-26.35 65.15 -27.6 58.25 L-28.35 51.7 Q-28.35 43.75 -24.45 39.0 -21.5 35.4 -18.55 35.4 -15.25 35.4 -12.05 38.7 -7.55 43.35 -5.65 52.95 -3.75 49.75 -0.35 49.6 L0.15 49.5 0.7 49.6 0.8 49.6 0.35 49.45 0.35 0.0 M-0.35 49.6 L-0.85 49.95 Q-1.3 50.35 -1.3 50.95 L-0.85 52.0 Q-0.45 52.4 0.15 52.4 0.75 52.4 1.2 52.0 1.6 51.55 1.6 50.95 1.6 50.35 1.2 49.95 L0.7 49.6 -0.35 49.6 M10.9 131.85 Q15.25 130.25 15.9 129.7 17.0 127.2 18.1 125.35 20.25 121.8 23.4 121.35 24.6 123.7 25.6 126.4 27.15 130.8 27.15 134.0 L26.75 138.15 Q26.75 138.75 25.3 139.65 23.85 140.6 23.85 141.7 L24.3 143.45 24.7 145.2 Q24.7 146.5 21.45 147.9 18.65 149.1 17.2 149.1 13.25 149.1 10.1 144.85 6.75 140.25 6.75 133.55 L10.9 131.85" fill="none" stroke="#000000" stroke-linecap="round" stroke-linejoin="round" stroke-opacity="0.3882353" stroke-width="0.4"/>
      <path d="M61.7 115.6 Q61.9 108.35 57.1 103.85 58.25 103.2 59.85 105.0 62.35 108.8 61.75 115.35 L61.7 115.6 M56.6 103.1 Q55.45 103.6 54.65 102.85 52.9 102.0 50.5 102.35 L49.95 102.3 Q48.55 102.1 48.6 101.15 49.85 100.75 52.3 101.15 L56.45 102.55 Q57.55 102.7 56.6 103.1 M46.5 103.0 Q44.9 103.3 43.4 104.35 42.25 104.95 42.05 104.35 41.1 103.95 43.0 103.35 L46.7 101.7 Q47.45 101.05 47.45 102.0 47.9 103.0 46.5 103.0 M40.8 106.5 Q39.25 108.6 38.9 110.55 38.85 112.25 37.95 111.8 L37.1 111.8 Q36.65 111.6 37.7 110.85 38.9 107.6 40.85 105.05 42.5 105.0 40.8 106.5 M36.1 116.8 Q36.45 115.0 37.4 113.05 38.3 112.4 37.7 114.3 37.5 119.1 37.1 119.55 35.9 119.85 36.1 116.8 M37.55 120.75 Q38.05 121.1 37.55 122.1 36.95 124.95 37.75 126.95 37.85 128.0 36.9 128.0 34.7 127.8 35.8 126.25 36.3 124.4 35.8 122.1 35.3 121.1 35.9 120.55 L37.55 120.75 M1.65 131.15 L6.35 130.6 Q4.0 133.85 4.95 137.3 6.15 139.65 4.9 140.05 L4.7 140.1 Q5.4 140.4 4.85 141.65 5.5 144.2 7.5 144.35 8.75 144.5 9.0 145.35 9.75 145.0 10.1 147.05 12.45 150.15 15.35 149.8 L16.2 149.8 16.7 150.65 Q17.15 149.6 18.45 149.85 21.7 150.15 23.7 149.15 24.1 148.15 24.95 148.05 24.65 147.25 25.7 146.5 27.15 145.95 27.65 144.35 27.9 142.9 29.15 143.6 28.25 142.75 28.9 142.05 30.85 140.85 31.25 138.3 L33.0 139.25 Q31.5 140.3 30.85 142.75 31.15 144.2 29.65 144.0 30.2 144.45 30.15 144.95 30.05 145.45 29.2 145.5 27.75 146.4 27.4 147.75 27.2 149.9 25.8 149.25 L26.0 150.4 Q25.6 151.25 24.5 150.95 21.2 150.85 18.6 151.8 L16.35 151.75 Q15.2 152.85 14.0 151.75 L8.75 148.3 Q7.4 148.35 6.95 147.45 5.45 147.55 5.1 145.5 4.7 143.6 2.35 142.5 1.2 141.2 2.35 140.2 L1.65 140.1 Q0.1 139.25 1.65 135.85 2.5 133.55 1.65 131.15 M9.0 145.35 Q8.75 146.45 6.95 147.45 8.75 146.45 9.0 145.35 M4.7 140.1 L2.35 140.2 4.7 140.1 M36.65 130.6 Q34.45 134.25 34.85 136.65 L33.45 133.6 Q34.9 131.8 34.9 129.8 34.85 128.25 35.95 128.3 37.4 128.65 37.45 129.75 37.45 130.2 36.65 130.6 M25.8 149.25 Q25.5 148.4 24.95 148.05 25.5 148.4 25.8 149.25 M16.7 150.65 Q16.8 151.15 16.35 151.75 16.8 151.15 16.7 150.65 M29.15 143.6 L29.65 144.0 29.15 143.6" fill="#e5e0d2" fill-rule="evenodd" stroke="none"/>
      <path d="M61.7 115.6 Q61.9 108.35 57.1 103.85 58.25 103.2 59.85 105.0 62.35 108.8 61.75 115.35 L61.7 115.6 M56.6 103.1 Q57.55 102.7 56.45 102.55 L52.3 101.15 Q49.85 100.75 48.6 101.15 48.55 102.1 49.95 102.3 L50.5 102.35 Q52.9 102.0 54.65 102.85 55.45 103.6 56.6 103.1 M46.5 103.0 Q44.9 103.3 43.4 104.35 42.25 104.95 42.05 104.35 41.1 103.95 43.0 103.35 L46.7 101.7 Q47.45 101.05 47.45 102.0 47.9 103.0 46.5 103.0 M40.8 106.5 Q39.25 108.6 38.9 110.55 38.85 112.25 37.95 111.8 L37.1 111.8 Q36.65 111.6 37.7 110.85 38.9 107.6 40.85 105.05 42.5 105.0 40.8 106.5 M37.55 120.75 L35.9 120.55 Q35.3 121.1 35.8 122.1 36.3 124.4 35.8 126.25 34.7 127.8 36.9 128.0 37.85 128.0 37.75 126.95 36.95 124.95 37.55 122.1 38.05 121.1 37.55 120.75 M36.1 116.8 Q35.9 119.85 37.1 119.55 37.5 119.1 37.7 114.3 38.3 112.4 37.4 113.05 36.45 115.0 36.1 116.8 M1.65 131.15 L6.35 130.6 Q4.0 133.85 4.95 137.3 6.15 139.65 4.9 140.05 L4.7 140.1 Q5.4 140.4 4.85 141.65 5.5 144.2 7.5 144.35 8.75 144.5 9.0 145.35 9.75 145.0 10.1 147.05 12.45 150.15 15.35 149.8 L16.2 149.8 16.7 150.65 Q17.15 149.6 18.45 149.85 21.7 150.15 23.7 149.15 24.1 148.15 24.95 148.05 24.65 147.25 25.7 146.5 27.15 145.95 27.65 144.35 27.9 142.9 29.15 143.6 28.25 142.75 28.9 142.05 30.85 140.85 31.25 138.3 L33.0 139.25 Q31.5 140.3 30.85 142.75 31.15 144.2 29.65 144.0 30.2 144.45 30.15 144.95 30.05 145.45 29.2 145.5 27.75 146.4 27.4 147.75 27.2 149.9 25.8 149.25 L26.0 150.4 Q25.6 151.25 24.5 150.95 21.2 150.85 18.6 151.8 L16.35 151.75 Q15.2 152.85 14.0 151.75 L8.75 148.3 Q7.4 148.35 6.95 147.45 5.45 147.55 5.1 145.5 4.7 143.6 2.35 142.5 1.2 141.2 2.35 140.2 L1.65 140.1 Q0.1 139.25 1.65 135.85 2.5 133.55 1.65 131.15 M2.35 140.2 L4.7 140.1 M6.95 147.45 Q8.75 146.45 9.0 145.35 M36.65 130.6 Q34.45 134.25 34.85 136.65 L33.45 133.6 Q34.9 131.8 34.9 129.8 34.85 128.25 35.95 128.3 37.4 128.65 37.45 129.75 37.45 130.2 36.65 130.6 M29.65 144.0 L29.15 143.6 M16.35 151.75 Q16.8 151.15 16.7 150.65 M24.95 148.05 Q25.5 148.4 25.8 149.25" fill="none" stroke="#000000" stroke-linecap="round" stroke-linejoin="round" stroke-opacity="0.3019608" stroke-width="0.30000000000000004"/>
      <path d="M9.75 47.0 L9.45 46.7 9.35 46.5 Q10.35 43.4 11.1 42.0 11.95 40.45 13.1 39.6 13.6 39.6 14.0 39.95 14.35 40.25 14.35 40.75 14.35 40.25 14.0 39.95 13.6 39.6 13.1 39.6 13.55 39.15 16.3 37.7 19.05 36.3 19.45 36.3 L20.5 36.45 21.2 36.85 Q23.85 38.5 25.1 40.0 26.9 42.1 26.9 44.75 L26.25 45.1 Q25.0 44.1 23.1 41.45 21.5 39.2 20.8 37.75 L20.9 37.55 Q19.55 37.7 17.45 38.7 15.35 39.75 14.35 40.75 L12.7 44.0 Q11.65 46.0 10.55 47.1 L9.75 47.0 10.55 47.1 11.15 47.35 Q11.45 47.5 11.45 48.15 L10.4 52.85 10.7 54.7 Q10.8 56.55 9.85 57.75 L8.8 56.2 7.4 54.5 8.8 56.2 9.85 57.75 Q12.25 63.85 13.55 66.45 L13.85 67.95 13.45 69.3 12.5 71.4 Q10.35 71.4 8.85 72.2 7.35 73.0 7.35 74.1 8.15 82.35 3.25 82.95 L3.75 81.1 Q4.9 81.1 5.7 79.9 6.5 78.65 6.5 76.9 L5.2 77.95 3.9 78.9 -1.25 78.55 -3.4 78.0 Q-3.4 79.25 -2.65 80.15 -1.9 81.0 -0.8 81.0 L-0.35 82.6 Q-2.05 82.6 -3.25 80.45 -4.45 78.3 -4.45 75.25 L-4.6 74.75 Q-5.95 73.2 -8.85 72.6 -11.65 72.0 -12.3 71.05 L-12.65 68.95 Q-12.65 64.75 -10.3 60.7 L-8.8 57.75 Q-9.7 57.4 -9.95 57.05 -10.35 56.6 -10.35 55.6 L-10.8 48.4 Q-10.8 47.75 -10.5 47.45 L-9.9 47.1 -11.85 44.0 Q-13.0 41.6 -13.75 40.7 -14.9 39.6 -16.9 38.6 -18.9 37.65 -20.25 37.5 L-20.05 37.7 Q-20.4 38.75 -22.55 41.5 L-25.65 45.05 -26.0 45.05 Q-26.2 45.5 -26.2 44.5 -22.3 37.2 -20.55 36.8 -18.75 36.3 -15.7 37.7 -13.15 38.8 -12.5 39.6 -10.45 40.45 -9.35 43.5 -8.8 45.0 -8.7 46.45 -8.7 47.45 -8.9 46.9 L-9.15 46.95 Q-8.35 47.6 -7.5 50.15 -6.65 52.6 -6.65 53.9 -6.65 54.8 -7.05 55.25 -6.05 54.2 -3.65 53.4 -1.3 52.55 0.5 52.55 5.15 52.55 7.4 54.5 7.35 53.1 8.15 50.55 8.95 48.0 9.75 47.0 M5.25 118.4 Q6.55 120.45 7.0 123.1 L6.85 123.7 5.25 124.75 3.6 125.7 0.7 123.55 Q1.4 119.9 1.9 118.6 L2.0 116.5 1.9 114.4 3.9 114.35 Q5.05 114.45 3.95 115.45 4.05 117.0 4.65 118.65 L5.25 118.4 M20.9 37.55 L21.2 37.45 Q21.45 37.25 21.2 36.85 21.45 37.25 21.2 37.45 L20.9 37.55 M8.0 58.65 Q6.4 58.65 5.25 60.25 4.1 61.8 4.1 64.05 4.1 65.25 5.15 66.15 L5.2 66.2 Q5.9 67.15 6.75 67.7 7.65 68.3 8.35 68.3 9.7 68.3 10.65 66.85 11.55 65.5 11.55 63.9 11.55 62.8 10.75 61.4 9.75 59.6 8.0 58.65 M1.2 68.65 L1.65 71.9 3.4 71.0 1.2 68.65 M18.9 83.0 L20.35 83.25 20.65 83.6 Q21.7 87.15 25.7 95.4 L29.75 90.3 29.6 89.4 27.4 86.3 28.7 85.7 30.3 88.2 31.0 88.2 31.95 87.75 Q33.6 87.75 34.75 88.4 35.9 89.0 35.9 89.85 36.3 91.0 35.6 91.65 L34.05 93.35 Q33.25 93.35 32.2 92.65 L26.0 102.3 Q24.15 102.5 23.35 101.0 22.9 100.1 22.9 99.15 L23.1 98.05 23.5 97.25 Q22.15 90.6 19.7 87.85 17.45 86.15 17.1 84.9 L16.05 84.85 Q15.55 84.85 11.2 86.4 L6.35 87.95 Q5.65 87.95 5.2 87.05 4.85 86.3 4.85 85.35 5.8 84.85 11.55 83.5 L17.2 82.25 18.4 82.55 Q18.8 82.8 18.9 83.0 18.9 83.8 18.4 84.35 17.85 84.9 17.1 84.9 17.85 84.9 18.4 84.35 18.9 83.8 18.9 83.0 M7.35 74.1 Q7.15 75.9 6.5 76.9 7.15 75.9 7.35 74.1 M-4.45 75.25 L-4.05 76.45 -3.4 78.0 -4.05 76.45 -4.45 75.25 M36.85 80.05 L40.2 77.85 40.9 78.55 37.95 81.05 36.85 80.05 M33.6 85.35 Q35.35 81.9 35.9 80.25 L36.6 80.45 Q37.3 80.8 37.3 81.4 37.3 82.4 35.15 86.2 33.75 85.8 33.6 85.35 M38.6 84.1 L39.6 85.2 36.9 88.2 35.6 87.0 38.6 84.1 M26.8 80.75 L28.2 84.95 27.0 84.85 Q26.65 82.8 26.8 80.75 M31.0 88.2 L31.8 89.75 31.65 91.9 Q30.85 91.9 30.3 91.45 29.75 90.95 29.75 90.3 29.75 90.95 30.3 91.45 30.85 91.9 31.65 91.9 L31.8 89.75 31.0 88.2 M30.3 88.2 L29.6 89.4 30.3 88.2 M25.7 95.4 L23.5 97.25 25.7 95.4 M37.05 91.5 L37.05 89.95 41.85 89.95 41.85 91.5 37.05 91.5 M31.8 89.75 L34.3 90.85 34.65 89.8 35.9 89.85 34.65 89.8 34.3 90.85 35.6 91.65 34.3 90.85 31.8 89.75 M34.65 89.8 L31.95 87.75 34.65 89.8 M31.65 91.9 L32.05 92.15 32.2 92.65 32.05 92.15 31.65 91.9 M43.0 80.0 L41.55 77.2 43.0 77.2 43.0 80.0 M43.6 81.65 L44.95 81.65 44.95 83.95 43.6 81.65 M42.3 81.4 L42.95 82.8 40.2 85.0 Q39.6 84.25 40.9 82.75 L42.3 81.4 M44.75 94.1 L42.55 94.35 Q42.15 92.1 43.3 90.7 L44.75 94.1 M42.4 94.85 L44.25 95.45 41.45 97.7 42.4 94.85 M41.7 144.35 L41.15 144.9 40.35 145.3 41.15 144.9 Q43.1 145.25 44.0 146.7 44.4 147.3 44.75 149.6 L43.2 150.7 41.7 148.7 40.2 145.85 40.35 145.3 38.75 143.7 Q37.55 142.55 36.25 142.35 L35.65 141.65 35.9 141.2 36.4 140.6 39.55 141.85 Q41.0 142.55 41.7 144.35 41.0 142.55 39.55 141.85 L36.4 140.6 35.9 141.2 35.65 141.65 36.25 142.35 Q36.8 143.3 37.65 143.95 L39.1 144.95 38.75 145.55 Q38.05 146.1 37.2 146.05 38.05 146.1 38.75 145.55 39.25 146.45 39.5 148.1 L39.85 150.9 Q39.05 151.45 38.05 151.45 L37.2 151.3 37.05 151.0 37.2 149.05 Q37.3 147.2 36.95 146.6 L37.2 146.05 35.3 144.35 33.8 142.6 Q34.0 142.35 34.85 142.0 L35.65 141.65 35.1 138.9 35.65 141.65 Q32.75 141.25 30.35 140.0 L28.6 140.15 Q27.95 140.25 27.95 140.9 L27.75 141.85 27.2 142.25 26.0 141.6 25.3 140.9 Q25.55 139.4 26.35 139.1 L28.35 138.15 28.35 136.6 27.6 136.25 Q28.45 134.75 28.45 133.75 28.45 131.65 26.15 125.95 23.95 120.5 23.1 119.8 20.3 121.85 16.15 126.3 L12.35 130.05 11.15 129.7 10.7 129.3 11.0 128.4 Q10.8 126.8 12.5 123.05 13.2 122.6 15.15 122.1 L17.7 121.1 20.25 117.35 Q22.85 113.9 24.75 113.9 25.75 113.9 26.0 114.5 26.0 115.2 25.45 115.95 24.5 115.95 23.8 117.1 23.1 118.2 23.1 119.8 23.1 118.2 23.8 117.1 24.5 115.95 25.45 115.95 L27.05 114.95 Q28.05 116.1 28.6 119.55 L29.45 124.45 Q30.1 126.4 32.75 130.1 34.95 133.25 34.95 134.85 L34.75 136.1 Q35.45 136.1 35.95 136.7 36.45 137.3 36.45 138.15 36.8 138.15 37.1 138.65 L37.35 139.75 Q38.95 141.05 41.35 141.65 43.15 142.1 43.6 143.05 L43.1 143.9 43.6 143.05 Q44.75 142.3 46.3 144.25 47.15 145.25 47.85 146.9 47.75 147.35 46.8 147.75 L46.05 145.85 Q45.55 144.6 44.5 144.6 L43.5 144.45 43.1 143.9 Q42.7 144.3 41.7 144.35 M36.4 140.6 L37.35 139.75 36.4 140.6 M1.9 118.6 L4.65 118.65 1.9 118.6 M33.25 136.75 L30.35 139.05 28.35 138.15 30.35 139.05 33.25 136.75 32.15 136.65 Q31.0 136.55 28.35 136.6 31.0 136.55 32.15 136.65 L33.25 136.75 34.45 136.55 34.75 136.1 34.45 136.55 33.25 136.75 M30.35 139.05 L30.35 140.0 30.35 139.05 M27.2 146.35 L26.15 144.2 25.2 141.9 25.55 142.3 27.2 142.85 27.0 144.6 27.2 146.35 M36.45 138.15 L35.1 138.9 34.95 137.75 34.45 136.55 34.95 137.75 35.1 138.9 36.45 138.15 M39.15 154.45 L37.85 155.55 38.05 151.95 39.8 152.1 Q39.65 153.8 39.15 154.45 M48.5 149.4 Q48.15 150.55 46.95 152.0 L47.15 150.55 46.95 149.1 Q48.3 147.85 48.5 149.4 M43.35 151.45 Q43.8 152.0 42.5 153.0 L40.85 154.05 41.45 153.55 Q42.1 152.5 42.1 151.25 L43.35 151.45 M-12.5 39.6 Q-13.0 39.6 -13.35 39.95 -13.75 40.25 -13.75 40.7 -13.75 40.25 -13.35 39.95 -13.0 39.6 -12.5 39.6 M-20.55 36.8 L-20.65 37.2 -20.5 37.45 -20.25 37.5 -20.5 37.45 -20.65 37.2 -20.55 36.8 M-9.15 46.95 L-9.9 47.1 -9.15 46.95 M-7.05 55.25 L-7.1 55.25 -8.8 57.75 -7.1 55.25 -7.05 55.25 M-7.45 58.9 Q-8.7 59.55 -9.75 60.9 -10.9 62.35 -10.9 63.6 L-10.5 66.1 Q-9.7 68.5 -7.8 68.5 -6.9 68.5 -5.65 67.45 L-4.7 66.5 -4.55 66.4 Q-3.55 65.5 -3.55 64.3 -3.55 62.05 -4.7 60.5 -5.85 58.9 -7.45 58.9 M-6.45 71.65 L-5.45 73.25 -4.6 74.75 -5.45 73.25 -6.45 71.65 M-0.4 68.75 L-1.85 71.05 -0.3 72.0 -0.4 68.75 M-28.55 86.05 L-29.7 86.5 Q-31.95 81.95 -30.75 80.85 -28.8 84.8 -28.55 86.05 M-22.6 86.6 L-24.7 89.5 -24.85 90.35 -21.0 95.15 Q-18.15 89.0 -16.7 84.3 -16.45 83.45 -16.2 83.35 L-15.1 83.4 -14.45 83.45 Q-11.2 82.4 -7.5 83.5 -5.3 84.15 -1.05 86.05 -1.5 88.15 -2.5 88.15 -3.5 88.15 -3.45 87.65 -11.8 85.25 -12.8 85.25 L-14.9 88.05 Q-17.05 90.75 -18.9 96.9 L-18.35 98.0 Q-18.1 98.5 -18.1 99.15 -18.1 100.2 -19.2 100.85 -20.0 101.35 -20.55 101.35 -21.0 101.35 -22.55 99.0 -24.95 95.25 -27.2 92.55 L-29.0 93.65 Q-29.85 93.65 -30.4 91.65 -31.05 90.95 -30.7 89.95 L-28.4 86.8 -27.0 87.9 -25.4 88.35 -23.65 85.95 -22.6 86.6 M-22.15 81.6 L-22.75 85.35 -23.6 85.0 -22.15 81.6 M-35.3 79.55 Q-35.2 78.85 -34.45 79.0 -33.6 79.2 -31.55 80.65 L-32.55 81.65 -35.3 79.55 M-36.1 78.0 L-36.1 80.6 -37.45 80.6 -37.45 78.0 -36.1 78.0 M-38.65 82.25 L-38.15 81.85 Q-38.2 83.8 -39.75 84.5 -39.25 82.95 -38.65 82.25 M-36.7 81.95 L-33.9 84.2 -34.7 85.4 -35.95 84.2 Q-37.1 82.8 -36.7 81.95 M-31.6 88.4 L-32.75 86.85 Q-33.8 85.2 -33.1 84.65 L-30.45 87.25 -31.6 88.4 M-36.15 97.5 L-38.65 95.2 -36.9 94.65 -36.15 97.5 M-37.8 90.8 L-36.65 92.1 -36.95 94.15 -38.95 94.05 -37.8 90.8 M-31.85 90.05 L-31.85 91.55 -36.4 91.55 -36.4 90.05 -31.85 90.05 M-29.2 90.8 L-27.65 90.8 -27.7 89.0 -27.0 87.9 -27.7 89.0 -27.65 90.8 Q-27.25 90.8 -26.95 91.1 -26.65 91.4 -26.65 91.85 L-25.65 91.15 -24.85 90.35 -25.65 91.15 -26.65 91.85 Q-26.65 91.4 -26.95 91.1 -27.25 90.8 -27.65 90.8 L-29.2 90.8 -30.4 91.65 -29.2 90.8 -29.55 89.9 -30.7 89.95 -29.55 89.9 -29.2 90.8 M-27.7 89.0 Q-29.05 89.35 -29.55 89.9 -29.05 89.35 -27.7 89.0 M-26.65 91.85 L-27.05 92.05 -27.2 92.55 -27.05 92.05 -26.65 91.85 M-24.7 89.5 L-24.9 88.7 Q-25.1 88.35 -25.4 88.35 -25.1 88.35 -24.9 88.7 L-24.7 89.5 M-18.9 96.9 L-21.0 95.15 -18.9 96.9 M-12.8 85.25 Q-13.5 85.25 -14.0 84.75 -14.5 84.2 -14.5 83.45 L-14.45 83.45 -14.5 83.45 -14.4 83.45 -14.45 83.45 -14.4 83.45 -14.5 83.45 Q-14.5 84.2 -14.0 84.75 -13.5 85.25 -12.8 85.25" fill="#e5e0d2" fill-rule="evenodd" stroke="none"/>
      <path d="M10.55 47.1 Q11.65 46.0 12.7 44.0 L14.35 40.75 Q15.35 39.75 17.45 38.7 19.55 37.7 20.9 37.55 L20.8 37.75 Q21.5 39.2 23.1 41.45 25.0 44.1 26.25 45.1 L27.3 53.9 26.4 59.05 Q25.4 64.1 24.8 65.5 L22.75 61.75 23.2 63.45 23.65 65.85 Q23.65 66.85 22.2 67.0 L16.35 59.2 Q17.95 62.05 19.0 65.3 19.85 68.0 19.8 69.0 L17.45 68.25 14.95 71.05 Q14.5 71.5 13.9 71.5 L12.5 71.4 13.45 69.3 13.85 67.95 13.55 66.45 Q12.25 63.85 9.85 57.75 10.8 56.55 10.7 54.7 L10.4 52.85 11.45 48.15 Q11.45 47.5 11.15 47.35 L10.55 47.1 M3.25 82.95 L3.05 83.55 1.6 83.55 Q0.0 83.55 -0.35 82.6 L-0.8 81.0 -1.25 78.55 3.9 78.9 3.75 81.1 3.25 82.95 M-12.3 71.05 L-14.0 70.05 -15.55 68.65 -17.0 69.55 -17.75 69.7 Q-17.3 69.7 -17.8 69.2 -18.2 68.75 -17.95 68.7 -18.3 68.75 -18.4 69.35 -18.55 69.95 -18.9 70.05 -18.65 69.95 -19.05 69.5 -19.55 68.9 -19.05 68.9 -20.05 68.9 -21.25 69.5 L-19.9 66.0 -18.35 62.8 -19.55 63.8 Q-21.8 65.1 -24.15 65.5 L-26.8 57.6 -22.8 51.15 -26.65 54.25 Q-26.25 48.65 -25.65 45.05 L-22.55 41.5 Q-20.4 38.75 -20.05 37.7 L-20.25 37.5 Q-18.9 37.65 -16.9 38.6 -14.9 39.6 -13.75 40.7 -13.0 41.6 -11.85 44.0 L-9.9 47.1 -10.5 47.45 Q-10.8 47.75 -10.8 48.4 L-10.35 55.6 Q-10.35 56.6 -9.95 57.05 -9.7 57.4 -8.8 57.75 L-10.3 60.7 Q-12.65 64.75 -12.65 68.95 L-12.3 71.05 M16.2 58.9 L16.35 59.2 16.2 58.9 M1.6 83.55 L1.6 80.0 1.6 83.55 M-10.3 60.7 Q-11.05 58.65 -12.75 57.35 -14.9 55.65 -17.95 55.65 L-20.2 56.3 -22.55 57.35 -20.2 56.3 -17.95 55.65 Q-14.9 55.65 -12.75 57.35 -11.05 58.65 -10.3 60.7" fill="#e9e8e3" fill-rule="evenodd" stroke="none"/>
      <path d="M4.1 64.05 Q4.1 61.8 5.25 60.25 6.4 58.65 8.0 58.65 10.5 60.3 10.5 63.9 10.5 65.7 7.6 67.0 6.2 67.0 5.2 66.2 L5.15 66.15 Q4.1 65.25 4.1 64.05 L5.2 66.2 4.1 64.05 M1.2 68.65 L3.4 71.0 1.65 71.9 1.2 68.65 M6.5 76.9 Q6.5 78.65 5.7 79.9 4.9 81.1 3.75 81.1 L3.9 78.9 5.2 77.95 6.5 76.9 M-0.8 81.0 Q-1.9 81.0 -2.65 80.15 -3.4 79.25 -3.4 78.0 L-1.25 78.55 -0.8 81.0 M-7.45 58.9 Q-5.85 58.9 -4.7 60.5 -3.55 62.05 -3.55 64.3 -3.55 65.5 -4.55 66.4 L-4.7 66.5 Q-3.95 65.5 -3.55 64.3 -3.95 65.5 -4.7 66.5 -5.7 67.25 -7.05 67.25 L-9.15 65.85 Q-9.9 64.9 -9.9 63.35 L-9.1 61.45 Q-8.15 59.65 -7.45 58.9 M-0.4 68.75 L-0.3 72.0 -1.85 71.05 -0.4 68.75" fill="#4d4633" fill-rule="evenodd" stroke="none"/>
      <path d="M5.2 66.2 Q6.2 67.0 7.6 67.0 10.5 65.7 10.5 63.9 10.5 60.3 8.0 58.65 9.75 59.6 10.75 61.4 11.55 62.8 11.55 63.9 11.55 65.5 10.65 66.85 9.7 68.3 8.35 68.3 7.65 68.3 6.75 67.7 5.9 67.15 5.2 66.2 M7.6 67.0 Q8.95 67.1 9.85 66.4 8.95 67.1 7.6 67.0 M-4.7 66.5 L-5.65 67.45 Q-6.9 68.5 -7.8 68.5 -9.7 68.5 -10.5 66.1 L-10.9 63.6 Q-10.9 62.35 -9.75 60.9 -8.7 59.55 -7.45 58.9 -8.15 59.65 -9.1 61.45 L-9.9 63.35 Q-9.9 64.9 -9.15 65.85 L-7.05 67.25 Q-8.3 67.25 -9.3 66.65 -8.3 67.25 -7.05 67.25 -5.7 67.25 -4.7 66.5" fill="#afa998" fill-rule="evenodd" stroke="none"/>
      <path d="M3.05 83.55 L2.9 85.15 Q2.9 85.65 3.55 86.35 4.15 87.0 4.15 87.5 L3.85 87.85 3.05 88.7 2.9 89.7 2.7 90.95 Q2.7 91.4 3.05 92.25 3.35 92.95 3.25 93.4 L3.2 94.05 Q2.95 94.6 2.95 95.1 2.95 95.6 3.5 96.55 L4.0 97.95 Q4.0 98.95 3.65 98.9 4.5 101.55 4.5 102.7 4.5 103.7 3.95 103.6 L4.6 105.55 4.85 107.5 Q4.85 108.5 4.35 108.4 L5.0 110.45 5.3 112.5 Q5.3 113.15 5.1 113.25 L4.65 113.4 Q5.7 116.65 5.7 117.65 5.7 118.65 5.25 118.4 L4.65 118.65 Q4.05 117.0 3.95 115.45 5.05 114.45 3.9 114.35 L1.9 114.4 2.0 116.5 1.9 118.6 Q1.1 117.55 1.0 116.6 L0.95 114.4 Q0.95 113.8 1.2 113.6 L1.45 113.5 Q1.3 113.2 1.3 111.8 L0.95 109.4 1.4 108.5 Q0.9 107.5 0.9 104.55 L1.1 103.8 1.25 103.75 Q0.95 103.4 0.9 102.1 L0.6 99.75 0.9 98.95 0.5 98.8 Q0.3 98.6 0.25 98.0 L0.6 95.85 0.6 93.7 0.05 93.75 Q-0.25 93.3 -0.25 91.35 -0.25 89.4 -0.05 88.85 L-0.55 88.9 -0.7 88.3 -0.9 86.55 -1.1 84.2 Q-1.1 83.25 -0.35 82.6 0.0 83.55 1.6 83.55 L3.05 83.55 M3.65 98.9 L0.9 98.95 3.65 98.9 M0.6 93.7 L3.25 93.4 0.6 93.7 M4.65 113.4 L1.45 113.5 4.65 113.4 M4.35 108.4 L1.4 108.5 4.35 108.4 M3.95 103.6 L1.25 103.75 3.95 103.6 M3.05 88.7 L-0.05 88.85 3.05 88.7" fill="#ada396" fill-rule="evenodd" stroke="none"/>
      <path d="M13.1 39.6 Q11.95 40.45 11.1 42.0 10.35 43.4 9.35 46.5 L9.45 46.7 9.75 47.0 10.55 47.1 Q11.65 46.0 12.7 44.0 L14.35 40.75 Q14.35 40.25 14.0 39.95 13.6 39.6 13.1 39.6 13.55 39.15 16.3 37.7 19.05 36.3 19.45 36.3 L20.5 36.45 21.2 36.85 Q23.85 38.5 25.1 40.0 26.9 42.1 26.9 44.75 L26.25 45.1 27.3 53.9 26.4 59.05 Q25.4 64.1 24.8 65.5 L22.75 61.75 23.2 63.45 23.65 65.85 Q23.65 66.85 22.2 67.0 L16.35 59.2 Q17.95 62.05 19.0 65.3 19.85 68.0 19.8 69.0 L17.45 68.25 14.95 71.05 Q14.5 71.5 13.9 71.5 L12.5 71.4 Q10.35 71.4 8.85 72.2 7.35 73.0 7.35 74.1 8.15 82.35 3.25 82.95 L3.05 83.55 2.9 85.15 Q2.9 85.65 3.55 86.35 4.15 87.0 4.15 87.5 L3.85 87.85 3.05 88.7 2.9 89.7 2.7 90.95 Q2.7 91.4 3.05 92.25 3.35 92.95 3.25 93.4 L3.2 94.05 Q2.95 94.6 2.95 95.1 2.95 95.6 3.5 96.55 L4.0 97.95 Q4.0 98.95 3.65 98.9 4.5 101.55 4.5 102.7 4.5 103.7 3.95 103.6 L4.6 105.55 4.85 107.5 Q4.85 108.5 4.35 108.4 L5.0 110.45 5.3 112.5 Q5.3 113.15 5.1 113.25 L4.65 113.4 Q5.7 116.65 5.7 117.65 5.7 118.65 5.25 118.4 6.55 120.45 7.0 123.1 L6.85 123.7 M0.7 123.55 Q1.4 119.9 1.9 118.6 1.1 117.55 1.0 116.6 L0.95 114.4 Q0.95 113.8 1.2 113.6 L1.45 113.5 Q1.3 113.2 1.3 111.8 L0.95 109.4 1.4 108.5 Q0.9 107.5 0.9 104.55 L1.1 103.8 1.25 103.75 Q0.95 103.4 0.9 102.1 L0.6 99.75 0.9 98.95 0.5 98.8 Q0.3 98.6 0.25 98.0 L0.6 95.85 0.6 93.7 0.05 93.75 Q-0.25 93.3 -0.25 91.35 -0.25 89.4 -0.05 88.85 L-0.55 88.9 -0.7 88.3 -0.9 86.55 -1.1 84.2 Q-1.1 83.25 -0.35 82.6 -2.05 82.6 -3.25 80.45 -4.45 78.3 -4.45 75.25 L-4.6 74.75 Q-5.95 73.2 -8.85 72.6 -11.65 72.0 -12.3 71.05 L-14.0 70.05 -15.55 68.65 -17.0 69.55 -17.75 69.7 Q-17.3 69.7 -17.8 69.2 -18.2 68.75 -17.95 68.7 -18.3 68.75 -18.4 69.35 -18.55 69.95 -18.9 70.05 -18.65 69.95 -19.05 69.5 -19.55 68.9 -19.05 68.9 -20.05 68.9 -21.25 69.5 L-19.9 66.0 -18.35 62.8 -19.55 63.8 Q-21.8 65.1 -24.15 65.5 L-26.8 57.6 -22.8 51.15 -26.65 54.25 Q-26.25 48.65 -25.65 45.05 L-26.0 45.05 Q-26.2 45.5 -26.2 44.5 -22.3 37.2 -20.55 36.8 -18.75 36.3 -15.7 37.7 -13.15 38.8 -12.5 39.6 -10.45 40.45 -9.35 43.5 -8.8 45.0 -8.7 46.45 -8.7 47.45 -8.9 46.9 L-9.15 46.95 Q-8.35 47.6 -7.5 50.15 -6.65 52.6 -6.65 53.9 -6.65 54.8 -7.05 55.25 -6.05 54.2 -3.65 53.4 -1.3 52.55 0.5 52.55 5.15 52.55 7.4 54.5 7.35 53.1 8.15 50.55 8.95 48.0 9.75 47.0 M9.85 57.75 Q10.8 56.55 10.7 54.7 L10.4 52.85 11.45 48.15 Q11.45 47.5 11.15 47.35 L10.55 47.1 M26.25 45.1 Q25.0 44.1 23.1 41.45 21.5 39.2 20.8 37.75 L20.9 37.55 Q19.55 37.7 17.45 38.7 15.35 39.75 14.35 40.75 M21.2 36.85 Q21.45 37.25 21.2 37.45 L20.9 37.55 M16.35 59.2 L16.2 58.9 M7.4 54.5 L8.8 56.2 9.85 57.75 Q12.25 63.85 13.55 66.45 L13.85 67.95 13.45 69.3 12.5 71.4 M8.0 58.65 Q6.4 58.65 5.25 60.25 4.1 61.8 4.1 64.05 L5.2 66.2 Q6.2 67.0 7.6 67.0 10.5 65.7 10.5 63.9 10.5 60.3 8.0 58.65 9.75 59.6 10.75 61.4 11.55 62.8 11.55 63.9 11.55 65.5 10.65 66.85 9.7 68.3 8.35 68.3 7.65 68.3 6.75 67.7 5.9 67.15 5.2 66.2 L5.15 66.15 Q4.1 65.25 4.1 64.05 M9.85 66.4 Q8.95 67.1 7.6 67.0 M1.2 68.65 L1.65 71.9 3.4 71.0 1.2 68.65 M18.9 83.0 L20.35 83.25 20.65 83.6 Q21.7 87.15 25.7 95.4 L29.75 90.3 29.6 89.4 27.4 86.3 28.7 85.7 30.3 88.2 31.0 88.2 31.95 87.75 Q33.6 87.75 34.75 88.4 35.9 89.0 35.9 89.85 36.3 91.0 35.6 91.65 L34.05 93.35 Q33.25 93.35 32.2 92.65 L26.0 102.3 Q24.15 102.5 23.35 101.0 22.9 100.1 22.9 99.15 L23.1 98.05 23.5 97.25 Q22.15 90.6 19.7 87.85 17.45 86.15 17.1 84.9 L16.05 84.85 Q15.55 84.85 11.2 86.4 L6.35 87.95 Q5.65 87.95 5.2 87.05 4.85 86.3 4.85 85.35 5.8 84.85 11.55 83.5 L17.2 82.25 18.4 82.55 Q18.8 82.8 18.9 83.0 18.9 83.8 18.4 84.35 17.85 84.9 17.1 84.9 M6.5 76.9 Q6.5 78.65 5.7 79.9 4.9 81.1 3.75 81.1 L3.25 82.95 M3.9 78.9 L5.2 77.95 6.5 76.9 Q7.15 75.9 7.35 74.1 M3.05 83.55 L1.6 83.55 Q0.0 83.55 -0.35 82.6 L-0.8 81.0 Q-1.9 81.0 -2.65 80.15 -3.4 79.25 -3.4 78.0 L-4.05 76.45 -4.45 75.25 M1.6 80.0 L1.6 83.55 M3.75 81.1 L3.9 78.9 -1.25 78.55 -0.8 81.0 M3.25 93.4 L0.6 93.7 M0.9 98.95 L3.65 98.9 M36.85 80.05 L37.95 81.05 40.9 78.55 40.2 77.85 36.85 80.05 M33.6 85.35 Q35.35 81.9 35.9 80.25 L36.6 80.45 Q37.3 80.8 37.3 81.4 37.3 82.4 35.15 86.2 33.75 85.8 33.6 85.35 M38.6 84.1 L35.6 87.0 36.9 88.2 39.6 85.2 38.6 84.1 M26.8 80.75 L28.2 84.95 27.0 84.85 Q26.65 82.8 26.8 80.75 M23.5 97.25 L25.7 95.4 M29.6 89.4 L30.3 88.2 M29.75 90.3 Q29.75 90.95 30.3 91.45 30.85 91.9 31.65 91.9 L31.8 89.75 31.0 88.2 M37.05 91.5 L41.85 91.5 41.85 89.95 37.05 89.95 37.05 91.5 M32.2 92.65 L32.05 92.15 31.65 91.9 M35.9 89.85 L34.65 89.8 34.3 90.85 35.6 91.65 M31.95 87.75 L34.65 89.8 M34.3 90.85 L31.8 89.75 M43.0 80.0 L43.0 77.2 41.55 77.2 43.0 80.0 M43.6 81.65 L44.95 81.65 44.95 83.95 43.6 81.65 M42.3 81.4 L40.9 82.75 Q39.6 84.25 40.2 85.0 L42.95 82.8 42.3 81.4 M44.75 94.1 L42.55 94.35 Q42.15 92.1 43.3 90.7 L44.75 94.1 M42.4 94.85 L44.25 95.45 41.45 97.7 42.4 94.85 M41.15 144.9 L41.7 144.35 Q41.0 142.55 39.55 141.85 L36.4 140.6 35.9 141.2 35.65 141.65 36.25 142.35 Q37.55 142.55 38.75 143.7 L40.35 145.3 41.15 144.9 Q43.1 145.25 44.0 146.7 44.4 147.3 44.75 149.6 L43.2 150.7 41.7 148.7 40.2 145.85 40.35 145.3 M41.7 144.35 Q42.7 144.3 43.1 143.9 L43.6 143.05 Q43.15 142.1 41.35 141.65 38.95 141.05 37.35 139.75 L36.4 140.6 M43.1 143.9 L43.5 144.45 44.5 144.6 Q45.55 144.6 46.05 145.85 L46.8 147.75 Q47.75 147.35 47.85 146.9 47.15 145.25 46.3 144.25 44.75 142.3 43.6 143.05 M25.45 115.95 Q26.0 115.2 26.0 114.5 25.75 113.9 24.75 113.9 22.85 113.9 20.25 117.35 L17.7 121.1 15.15 122.1 Q13.2 122.6 12.5 123.05 M10.7 129.3 L11.15 129.7 12.35 130.05 16.15 126.3 Q20.3 121.85 23.1 119.8 23.1 118.2 23.8 117.1 24.5 115.95 25.45 115.95 L27.05 114.95 Q28.05 116.1 28.6 119.55 L29.45 124.45 Q30.1 126.4 32.75 130.1 34.95 133.25 34.95 134.85 L34.75 136.1 Q35.45 136.1 35.95 136.7 36.45 137.3 36.45 138.15 36.8 138.15 37.1 138.65 L37.35 139.75 M1.25 103.75 L3.95 103.6 M1.4 108.5 L4.35 108.4 M1.45 113.5 L4.65 113.4 M4.65 118.65 L5.25 118.4 M4.65 118.65 L1.9 118.6 M23.1 119.8 Q23.95 120.5 26.15 125.95 28.45 131.65 28.45 133.75 28.45 134.75 27.6 136.25 L28.35 136.6 Q31.0 136.55 32.15 136.65 L33.25 136.75 34.45 136.55 34.75 136.1 M28.35 138.15 L30.35 139.05 33.25 136.75 M28.35 136.6 L28.35 138.15 26.35 139.1 Q25.55 139.4 25.3 140.9 L26.0 141.6 27.2 142.25 27.75 141.85 27.95 140.9 Q27.95 140.25 28.6 140.15 L30.35 140.0 30.35 139.05 M27.2 146.35 L27.0 144.6 27.2 142.85 25.55 142.3 25.2 141.9 26.15 144.2 27.2 146.35 M34.45 136.55 L34.95 137.75 35.1 138.9 36.45 138.15 M35.65 141.65 L34.85 142.0 Q34.0 142.35 33.8 142.6 L35.3 144.35 37.2 146.05 Q38.05 146.1 38.75 145.55 L39.1 144.95 37.65 143.95 Q36.8 143.3 36.25 142.35 M37.2 146.05 L36.95 146.6 Q37.3 147.2 37.2 149.05 L37.05 151.0 37.2 151.3 38.05 151.45 Q39.05 151.45 39.85 150.9 L39.5 148.1 Q39.25 146.45 38.75 145.55 M35.1 138.9 L35.65 141.65 Q32.75 141.25 30.35 140.0 M39.15 154.45 Q39.65 153.8 39.8 152.1 L38.05 151.95 37.85 155.55 39.15 154.45 M48.5 149.4 Q48.15 150.55 46.95 152.0 L47.15 150.55 46.95 149.1 Q48.3 147.85 48.5 149.4 M43.35 151.45 L42.1 151.25 Q42.1 152.5 41.45 153.55 L40.85 154.05 42.5 153.0 Q43.8 152.0 43.35 151.45 M-25.65 45.05 L-22.55 41.5 Q-20.4 38.75 -20.05 37.7 L-20.25 37.5 -20.5 37.45 -20.65 37.2 -20.55 36.8 M-13.75 40.7 Q-13.75 40.25 -13.35 39.95 -13.0 39.6 -12.5 39.6 M-20.25 37.5 Q-18.9 37.65 -16.9 38.6 -14.9 39.6 -13.75 40.7 -13.0 41.6 -11.85 44.0 L-9.9 47.1 -9.15 46.95 M-9.9 47.1 L-10.5 47.45 Q-10.8 47.75 -10.8 48.4 L-10.35 55.6 Q-10.35 56.6 -9.95 57.05 -9.7 57.4 -8.8 57.75 L-7.1 55.25 -7.05 55.25 M-4.7 66.5 L-5.65 67.45 Q-6.9 68.5 -7.8 68.5 -9.7 68.5 -10.5 66.1 L-10.9 63.6 Q-10.9 62.35 -9.75 60.9 -8.7 59.55 -7.45 58.9 -5.85 58.9 -4.7 60.5 -3.55 62.05 -3.55 64.3 -3.55 65.5 -4.55 66.4 L-4.7 66.5 Q-3.95 65.5 -3.55 64.3 M-7.05 67.25 L-9.15 65.85 Q-9.9 64.9 -9.9 63.35 L-9.1 61.45 Q-8.15 59.65 -7.45 58.9 M-22.55 57.35 L-20.2 56.3 -17.95 55.65 Q-14.9 55.65 -12.75 57.35 -11.05 58.65 -10.3 60.7 L-8.8 57.75 M-10.3 60.7 Q-12.65 64.75 -12.65 68.95 L-12.3 71.05 M-9.3 66.65 Q-8.3 67.25 -7.05 67.25 -5.7 67.25 -4.7 66.5 M-4.6 74.75 L-5.45 73.25 -6.45 71.65 M-0.4 68.75 L-0.3 72.0 -1.85 71.05 -0.4 68.75 M-28.55 86.05 Q-28.8 84.8 -30.75 80.85 -31.95 81.95 -29.7 86.5 L-28.55 86.05 M-22.6 86.6 L-24.7 89.5 -24.85 90.35 -21.0 95.15 Q-18.15 89.0 -16.7 84.3 -16.45 83.45 -16.2 83.35 L-15.1 83.4 -14.45 83.45 Q-11.2 82.4 -7.5 83.5 -5.3 84.15 -1.05 86.05 -1.5 88.15 -2.5 88.15 -3.5 88.15 -3.45 87.65 -11.8 85.25 -12.8 85.25 L-14.9 88.05 Q-17.05 90.75 -18.9 96.9 L-18.35 98.0 Q-18.1 98.5 -18.1 99.15 -18.1 100.2 -19.2 100.85 -20.0 101.35 -20.55 101.35 -21.0 101.35 -22.55 99.0 -24.95 95.25 -27.2 92.55 L-29.0 93.65 Q-29.85 93.65 -30.4 91.65 -31.05 90.95 -30.7 89.95 L-28.4 86.8 -27.0 87.9 -25.4 88.35 -23.65 85.95 -22.6 86.6 M-22.15 81.6 L-22.75 85.35 -23.6 85.0 -22.15 81.6 M-35.3 79.55 L-32.55 81.65 -31.55 80.65 Q-33.6 79.2 -34.45 79.0 -35.2 78.85 -35.3 79.55 M-36.1 78.0 L-36.1 80.6 -37.45 80.6 -37.45 78.0 -36.1 78.0 M-38.65 82.25 Q-39.25 82.95 -39.75 84.5 -38.2 83.8 -38.15 81.85 L-38.65 82.25 M-36.7 81.95 L-33.9 84.2 -34.7 85.4 -35.95 84.2 Q-37.1 82.8 -36.7 81.95 M-31.6 88.4 L-32.75 86.85 Q-33.8 85.2 -33.1 84.65 L-30.45 87.25 -31.6 88.4 M-31.85 90.05 L-36.4 90.05 -36.4 91.55 -31.85 91.55 -31.85 90.05 M-37.8 90.8 L-38.95 94.05 -36.95 94.15 -36.65 92.1 -37.8 90.8 M-36.15 97.5 L-36.9 94.65 -38.65 95.2 -36.15 97.5 M-25.4 88.35 Q-25.1 88.35 -24.9 88.7 L-24.7 89.5 M-27.0 87.9 L-27.7 89.0 -27.65 90.8 Q-27.25 90.8 -26.95 91.1 -26.65 91.4 -26.65 91.85 L-25.65 91.15 -24.85 90.35 M-30.4 91.65 L-29.2 90.8 -29.55 89.9 -30.7 89.95 M-27.2 92.55 L-27.05 92.05 -26.65 91.85 M-29.55 89.9 Q-29.05 89.35 -27.7 89.0 M-27.65 90.8 L-29.2 90.8 M-3.4 78.0 L-1.25 78.55 M-14.45 83.45 L-14.5 83.45 -14.4 83.45 -14.45 83.45 M-14.5 83.45 Q-14.5 84.2 -14.0 84.75 -13.5 85.25 -12.8 85.25 M-21.0 95.15 L-18.9 96.9 M-0.05 88.85 L3.05 88.7" fill="none" stroke="#000000" stroke-linecap="round" stroke-linejoin="round" stroke-opacity="0.3019608" stroke-width="0.30000000000000004"/>
    </g>
    <g id="decoration38-sprite0" transform="matrix(1.0, 0.0, 0.0, 1.0, 0.15, 0.15)">
      <use height="15.65" transform="matrix(1.0, 0.0, 0.0, 1.0, -0.15, -0.15)" width="23.0" xlink:href="#decoration38-shape1"/>
    </g>
    <g id="decoration38-shape1" transform="matrix(1.0, 0.0, 0.0, 1.0, 0.15, 0.15)">
      <path d="M7.3 5.5 Q14.65 8.8 21.8 8.2 24.7 13.8 18.35 15.35 6.95 13.9 1.3 9.65 -0.4 1.9 5.65 2.95 6.1 4.35 7.3 5.5" fill="#e5e0d2" fill-rule="evenodd" stroke="none"/>
      <path d="M1.3 9.65 L1.25 9.6 Q-1.2 5.2 1.25 0.8 8.1 -0.75 15.65 0.8 L15.65 4.7 Q8.75 4.0 7.3 5.5 6.1 4.35 5.65 2.95 -0.4 1.9 1.3 9.65" fill="#ada396" fill-rule="evenodd" stroke="none"/>
      <path d="M7.3 5.5 Q14.65 8.8 21.8 8.2 24.7 13.8 18.35 15.35 6.95 13.9 1.3 9.65 L1.25 9.6 Q-1.2 5.2 1.25 0.8 8.1 -0.75 15.65 0.8 L15.65 4.7 Q8.75 4.0 7.3 5.5 6.1 4.35 5.65 2.95" fill="none" stroke="#000000" stroke-linecap="round" stroke-linejoin="round" stroke-opacity="0.3019608" stroke-width="0.30000000000000004"/>
    </g>
    <g id="decoration38-shape2" transform="matrix(1.0, 0.0, 0.0, 1.0, 41.2, -113.55)">
      <path d="M-5.2 122.65 L-5.35 122.15 Q-5.35 121.5 -5.0 121.2 L-4.45 120.85 Q-3.55 121.0 -0.2 123.35 3.1 125.7 3.6 125.7 4.6 125.7 7.8 123.4 10.95 121.05 11.9 121.05 12.55 121.05 12.7 121.4 L12.85 122.05 Q12.15 124.1 11.65 128.8 10.25 132.5 3.75 132.5 1.85 132.5 -0.75 131.0 -3.05 129.7 -3.4 128.95 L-4.55 124.9 -5.2 122.65 -4.55 124.9 -3.4 128.95 Q-4.15 129.7 -5.2 129.7 -5.7 129.7 -8.45 127.35 -12.2 124.1 -15.75 119.4 L-19.35 123.2 Q-21.1 126.35 -21.1 133.7 L-20.75 134.8 -20.25 135.55 Q-20.3 135.9 -21.05 136.3 L-21.05 137.8 -19.45 139.05 -17.85 140.55 Q-18.1 141.5 -19.9 141.9 L-20.75 140.3 Q-21.1 139.4 -23.05 139.65 -25.3 140.8 -26.75 140.8 L-27.8 140.6 -27.95 141.1 Q-28.1 141.3 -28.35 141.3 -27.05 141.5 -26.5 142.25 L-29.9 145.7 Q-29.75 146.0 -29.9 146.75 L-30.15 148.15 Q-30.15 149.8 -29.25 150.85 L-30.65 151.1 Q-32.25 150.95 -32.45 150.55 -32.25 149.75 -32.0 147.4 -31.8 145.65 -31.45 145.25 L-31.8 144.6 -30.45 143.5 Q-29.5 142.9 -29.0 142.0 -30.6 142.5 -31.4 143.3 L-33.05 144.95 -32.85 145.35 -34.2 148.0 Q-35.2 150.0 -35.8 150.35 L-36.75 150.0 -37.35 149.5 Q-36.75 146.75 -35.75 145.45 -35.1 144.5 -34.5 144.5 L-33.85 144.55 -34.35 144.0 -35.8 143.6 -35.95 144.15 Q-36.0 144.5 -36.65 144.5 -38.2 144.5 -38.5 145.7 -38.9 147.15 -39.4 147.4 L-39.95 147.1 -40.45 146.55 Q-38.1 143.3 -36.3 142.7 -35.55 141.25 -33.05 140.45 L-30.05 139.35 Q-29.7 138.3 -29.1 137.8 -29.1 136.95 -28.6 136.35 -28.15 135.75 -27.5 135.75 -27.25 132.65 -24.05 127.9 -21.0 123.4 -21.0 119.15 L-21.1 115.6 Q-20.95 113.5 -19.7 114.65 -19.05 114.8 -18.15 115.6 L-18.4 115.25 -18.5 114.55 -18.25 113.8 -18.05 113.8 -17.4 113.7 -9.8 119.1 -5.2 122.65 M10.15 124.35 Q9.25 124.75 8.15 126.0 7.2 127.1 7.0 127.8 L7.45 128.45 9.45 126.65 Q10.35 125.7 10.5 124.9 L10.15 124.35 M0.1 128.25 L0.15 127.65 Q-0.15 125.5 -2.95 124.5 L-3.2 125.05 Q-3.15 125.7 -2.15 126.75 L-0.25 128.6 0.1 128.25 M-29.9 145.7 L-31.45 145.25 -29.9 145.7 M-27.15 136.15 L-27.5 135.75 -27.15 136.15 -23.1 136.4 -23.05 138.3 -23.05 139.65 -23.05 138.3 -23.1 136.4 -27.15 136.15 Q-27.75 137.15 -27.8 138.55 L-27.6 139.8 -27.8 140.6 -29.05 140.25 -27.8 140.6 -27.6 139.8 -27.8 138.55 Q-27.75 137.15 -27.15 136.15 M-29.0 142.0 L-28.35 141.3 -29.0 142.0 M-27.8 138.55 L-28.7 138.35 -29.1 137.8 -28.7 138.35 -27.8 138.55 M-23.05 138.3 L-21.05 137.8 -23.05 138.3 M-21.05 136.3 L-23.1 136.4 -21.05 136.3 M-30.05 139.35 L-29.05 140.25 -32.2 141.85 Q-34.3 142.95 -34.5 143.4 L-34.35 144.0 -34.5 143.4 Q-34.3 142.95 -32.2 141.85 L-29.05 140.25 -30.05 139.35 M-33.85 144.55 L-33.8 144.55 -33.85 144.55 -33.05 144.95 -33.85 144.55 -33.8 144.55 -33.85 144.55 M-36.3 142.7 L-35.8 143.6 -36.3 142.7 M-18.1 117.6 L-19.45 116.75 Q-19.1 116.2 -18.15 115.6 -17.15 115.6 -16.45 116.75 -15.75 117.85 -15.75 119.4 -15.75 117.85 -16.45 116.75 -17.15 115.6 -18.15 115.6 -19.1 116.2 -19.45 116.75 L-18.1 117.6 M-19.9 146.05 Q-19.65 145.35 -19.65 144.25 -19.65 143.15 -19.9 142.5 L-18.2 141.95 -17.9 141.6 -18.8 143.9 -19.9 146.05 M-34.75 150.85 L-34.25 152.25 -33.55 153.65 -34.95 152.55 -36.25 151.35 -35.65 150.9 -34.75 150.85 M-30.85 154.35 L-30.55 155.15 -31.75 154.1 Q-32.75 152.95 -32.5 151.75 -31.7 151.6 -30.75 151.75 -31.1 153.3 -30.85 154.35 M-39.65 148.75 Q-39.9 150.2 -39.65 151.65 -40.8 150.5 -41.05 149.05 -41.0 148.3 -40.55 148.25 -40.2 148.2 -39.65 148.75" fill="#e5e0d2" fill-rule="evenodd" stroke="none"/>
      <path d="M-3.4 128.95 Q-3.05 129.7 -0.75 131.0 1.85 132.5 3.75 132.5 10.25 132.5 11.65 128.8 12.15 124.1 12.85 122.05 L12.7 121.4 Q12.55 121.05 11.9 121.05 10.95 121.05 7.8 123.4 4.6 125.7 3.6 125.7 3.1 125.7 -0.2 123.35 -3.55 121.0 -4.45 120.85 L-5.0 121.2 Q-5.35 121.5 -5.35 122.15 L-5.2 122.65 -4.55 124.9 -3.4 128.95 Q-4.15 129.7 -5.2 129.7 -5.7 129.7 -8.45 127.35 -12.2 124.1 -15.75 119.4 L-19.35 123.2 Q-21.1 126.35 -21.1 133.7 L-20.75 134.8 -20.25 135.55 Q-20.3 135.9 -21.05 136.3 L-21.05 137.8 -19.45 139.05 -17.85 140.55 Q-18.1 141.5 -19.9 141.9 L-20.75 140.3 Q-21.1 139.4 -23.05 139.65 -25.3 140.8 -26.75 140.8 L-27.8 140.6 -27.95 141.1 Q-28.1 141.3 -28.35 141.3 -27.05 141.5 -26.5 142.25 L-29.9 145.7 Q-29.75 146.0 -29.9 146.75 L-30.15 148.15 Q-30.15 149.8 -29.25 150.85 L-30.65 151.1 Q-32.25 150.95 -32.45 150.55 -32.25 149.75 -32.0 147.4 -31.8 145.65 -31.45 145.25 L-31.8 144.6 -30.45 143.5 Q-29.5 142.9 -29.0 142.0 -30.6 142.5 -31.4 143.3 L-33.05 144.95 -32.85 145.35 -34.2 148.0 Q-35.2 150.0 -35.8 150.35 L-36.75 150.0 -37.35 149.5 Q-36.75 146.75 -35.75 145.45 -35.1 144.5 -34.5 144.5 L-33.85 144.55 -34.35 144.0 -35.8 143.6 -35.95 144.15 Q-36.0 144.5 -36.65 144.5 -38.2 144.5 -38.5 145.7 -38.9 147.15 -39.4 147.4 L-39.95 147.1 -40.45 146.55 Q-38.1 143.3 -36.3 142.7 -35.55 141.25 -33.05 140.45 L-30.05 139.35 Q-29.7 138.3 -29.1 137.8 -29.1 136.95 -28.6 136.35 -28.15 135.75 -27.5 135.75 -27.25 132.65 -24.05 127.9 -21.0 123.4 -21.0 119.15 L-21.1 115.6 Q-20.95 113.5 -19.7 114.65 -19.05 114.8 -18.15 115.6 L-18.4 115.25 -18.5 114.55 -18.25 113.8 -18.05 113.8 -17.4 113.7 -9.8 119.1 -5.2 122.65 M10.15 124.35 Q9.25 124.75 8.15 126.0 7.2 127.1 7.0 127.8 L7.45 128.45 9.45 126.65 Q10.35 125.7 10.5 124.9 L10.15 124.35 M0.1 128.25 L-0.25 128.6 -2.15 126.75 Q-3.15 125.7 -3.2 125.05 L-2.95 124.5 Q-0.15 125.5 0.15 127.65 L0.1 128.25 M-15.75 119.4 Q-15.75 117.85 -16.45 116.75 -17.15 115.6 -18.15 115.6 -19.1 116.2 -19.45 116.75 L-18.1 117.6 M-35.8 143.6 L-36.3 142.7 M-33.05 144.95 L-33.85 144.55 -33.8 144.55 -33.85 144.55 M-34.35 144.0 L-34.5 143.4 Q-34.3 142.95 -32.2 141.85 L-29.05 140.25 -30.05 139.35 M-23.05 139.65 L-23.05 138.3 -23.1 136.4 -27.15 136.15 Q-27.75 137.15 -27.8 138.55 L-27.6 139.8 -27.8 140.6 -29.05 140.25 M-23.1 136.4 L-21.05 136.3 M-21.05 137.8 L-23.05 138.3 M-29.1 137.8 L-28.7 138.35 -27.8 138.55 M-28.35 141.3 L-29.0 142.0 M-27.5 135.75 L-27.15 136.15 M-31.45 145.25 L-29.9 145.7 M-19.9 146.05 Q-19.65 145.35 -19.65 144.25 -19.65 143.15 -19.9 142.5 L-18.2 141.95 -17.9 141.6 -18.8 143.9 -19.9 146.05 M-34.75 150.85 L-35.65 150.9 -36.25 151.35 -34.95 152.55 -33.55 153.65 -34.25 152.25 -34.75 150.85 M-30.85 154.35 L-30.55 155.15 -31.75 154.1 Q-32.75 152.95 -32.5 151.75 -31.7 151.6 -30.75 151.75 -31.1 153.3 -30.85 154.35 M-39.65 148.75 Q-40.2 148.2 -40.55 148.25 -41.0 148.3 -41.05 149.05 -40.8 150.5 -39.65 151.65 -39.9 150.2 -39.65 148.75" fill="none" stroke="#000000" stroke-linecap="round" stroke-linejoin="round" stroke-opacity="0.3019608" stroke-width="0.30000000000000004"/>
    </g>
  </defs>
</svg>
