<?xml version="1.0" encoding="UTF-8" standalone="no"?>
<svg xmlns:xlink="http://www.w3.org/1999/xlink" height="59.2px" width="47.9px" xmlns="http://www.w3.org/2000/svg">
  <g transform="matrix(1.0, 0.0, 0.0, 1.0, 23.65, 57.65)">
    <use height="140.45" transform="matrix(0.0915, 0.0412, -0.0222, 0.124, 3.7188, -17.5451)" width="40.4" xlink:href="#decoration4-sprite0"/>
    <use height="53.6" transform="matrix(1.0, 0.0, 0.0, 1.0, -23.15, -53.4)" width="46.85" xlink:href="#decoration4-shape1"/>
    <use height="138.9" transform="matrix(-0.077, 0.0118, 0.0, 0.077, -2.7145, -10.7565)" width="37.25" xlink:href="#decoration4-sprite1"/>
    <use height="140.45" transform="matrix(-0.1147, 0.0191, 0.0172, 0.096, -5.3536, -13.6534)" width="40.4" xlink:href="#decoration4-sprite0"/>
    <use height="140.45" transform="matrix(-0.1181, 0.006, 0.0033, 0.0803, -0.3585, -11.0203)" width="40.4" xlink:href="#decoration4-sprite0"/>
    <use height="138.9" transform="matrix(0.077, 0.0118, 0.0, 0.0622, 1.8645, -8.7655)" width="37.25" xlink:href="#decoration4-sprite1"/>
    <use height="138.9" transform="matrix(0.077, 0.0118, 0.0, 0.077, -1.0855, -10.2565)" width="37.25" xlink:href="#decoration4-sprite1"/>
    <use height="140.45" transform="matrix(0.0774, 0.0338, -0.0129, 0.072, 4.9871, -9.9594)" width="40.4" xlink:href="#decoration4-sprite0"/>
    <use height="7.5" transform="matrix(1.0, 0.0, 0.0, 1.0, -23.65, -57.65)" width="47.9" xlink:href="#decoration4-shape2"/>
  </g>
  <defs>
    <g id="decoration4-sprite0" transform="matrix(1.0, 0.0, 0.0, 1.0, 18.45, 117.2)">
      <use height="138.9" transform="matrix(1.0, 0.0, 0.0, 1.0, -18.45, -117.2)" width="37.25" xlink:href="#decoration4-sprite1"/>
      <use height="138.9" transform="matrix(0.5411, 0.0, 0.0, 0.5411, 1.8046, -60.2126)" width="37.25" xlink:href="#decoration4-sprite1"/>
      <use height="138.9" transform="matrix(-0.5411, 0.0, 0.0, 0.5411, 13.9454, -51.9126)" width="37.25" xlink:href="#decoration4-sprite1"/>
    </g>
    <g id="decoration4-sprite1" transform="matrix(1.0, 0.0, 0.0, 1.0, 19.95, 114.6)">
      <use height="138.9" transform="matrix(1.0, 0.0, 0.0, 1.0, -19.95, -114.6)" width="37.25" xlink:href="#decoration4-shape0"/>
    </g>
    <g id="decoration4-shape0" transform="matrix(1.0, 0.0, 0.0, 1.0, 19.95, 114.6)">
      <path d="M-17.35 24.05 Q-25.2 -29.85 -6.75 -75.15 -0.65 -90.15 7.7 -102.5 13.1 -110.45 17.05 -114.35 11.05 -97.6 6.05 -72.6 -3.9 -22.6 1.15 18.6 -12.3 22.95 -17.35 24.05" fill="url(#decoration4-gradient0)" fill-rule="evenodd" stroke="none"/>
      <path d="M-17.35 24.05 Q-25.2 -29.85 -6.75 -75.15 -0.65 -90.15 7.7 -102.5 13.1 -110.45 17.05 -114.35 11.05 -97.6 6.05 -72.6 -3.9 -22.6 1.15 18.6" fill="none" stroke="url(#decoration4-gradient1)" stroke-linecap="round" stroke-linejoin="round" stroke-width="0.5"/>
    </g>
    <linearGradient gradientTransform="matrix(7.0E-4, 0.0798, -0.0205, -0.0085, -3.45, -52.95)" gradientUnits="userSpaceOnUse" id="decoration4-gradient0" spreadMethod="pad" x1="-819.2" x2="819.2">
      <stop offset="0.0" stop-color="#ccc845"/>
      <stop offset="0.32941176470588235" stop-color="#c7c737"/>
      <stop offset="0.788235294117647" stop-color="#3c5c0a" stop-opacity="0.8627451"/>
      <stop offset="1.0" stop-color="#6f7d0c" stop-opacity="0.4509804"/>
    </linearGradient>
    <linearGradient gradientTransform="matrix(-0.0066, 0.0549, -0.0194, -0.04, -4.1, -57.1)" gradientUnits="userSpaceOnUse" id="decoration4-gradient1" spreadMethod="pad" x1="-819.2" x2="819.2">
      <stop offset="0.396078431372549" stop-color="#9b9b17" stop-opacity="0.8509804"/>
      <stop offset="1.0" stop-color="#6b6b1d" stop-opacity="0.0"/>
    </linearGradient>
    <g id="decoration4-shape1" transform="matrix(1.0, 0.0, 0.0, 1.0, 23.15, 53.4)">
      <path d="M-1.05 -1.7 Q-0.85 -2.05 0.4 -5.95 L1.15 -1.75 1.8 -2.35 2.35 -1.4 1.8 -8.65 2.75 -6.4 2.75 0.0 -0.6 0.0 -1.05 -1.7 -0.6 0.0 -2.75 0.0 -2.75 -2.3 -1.55 -0.65 -1.05 -1.7" fill="#4b4f04" fill-rule="evenodd" stroke="none"/>
      <path d="M2.75 -6.4 L1.8 -8.65 2.35 -1.4 1.8 -2.35 1.15 -1.75 0.4 -5.95 Q-0.85 -2.05 -1.05 -1.7 L-1.55 -0.65 -2.75 -2.3 -2.75 -3.15 Q-1.75 -4.5 -1.1 -6.2 0.15 -9.4 -0.05 -13.7 L-0.2 -17.85 -0.4 -20.85 Q-1.0 -25.0 -2.75 -25.85 L-2.75 -30.0 2.75 -30.0 2.75 -6.4 M0.85 -22.85 L0.85 -26.25 0.85 -22.85 M1.7 -9.3 L1.5 -17.25 1.7 -9.3 M1.15 -1.75 L1.4 -5.25 1.15 -1.75" fill="#4f2d04" fill-rule="evenodd" stroke="none"/>
      <path d="M-2.75 -24.5 Q-2.25 -24.25 -1.6 -21.95 -0.65 -18.65 -0.7 -13.55 -0.7 -13.0 -1.05 -11.7 L-1.5 -10.25 Q-1.7 -9.9 -2.25 -9.65 L-2.75 -9.45 -2.75 -24.5 M-1.9 -17.65 L-1.5 -10.25 -1.9 -17.65" fill="#ad6a1b" fill-rule="evenodd" stroke="none"/>
      <path d="M-2.75 -25.85 Q-1.0 -25.0 -0.4 -20.85 L-0.2 -17.85 -0.05 -13.7 Q0.15 -9.4 -1.1 -6.2 -1.75 -4.5 -2.75 -3.15 L-2.75 -9.45 -2.25 -9.65 Q-1.7 -9.9 -1.5 -10.25 L-1.05 -11.7 Q-0.7 -13.0 -0.7 -13.55 -0.65 -18.65 -1.6 -21.95 -2.25 -24.25 -2.75 -24.5 L-2.75 -25.85" fill="#85551c" fill-rule="evenodd" stroke="none"/>
      <path d="M-1.05 -1.7 L-0.6 0.0 M1.4 -5.25 L1.15 -1.75 M1.5 -17.25 L1.7 -9.3 M0.85 -26.25 L0.85 -22.85 M-1.5 -10.25 L-1.9 -17.65" fill="none" stroke="#000000" stroke-linecap="round" stroke-linejoin="round" stroke-opacity="0.16862746" stroke-width="0.4"/>
      <path d="M-0.6 0.0 L2.75 0.0 2.75 -6.4 2.75 -30.0 -2.75 -30.0 -2.75 -25.85 M-2.75 -3.15 L-2.75 -2.3 M-2.75 -24.5 L-2.75 -9.45 M-2.75 -3.15 L-2.75 -9.45 M-2.75 -24.5 L-2.75 -25.85 M-0.6 0.0 L-2.75 0.0 -2.75 -2.3" fill="none" stroke="#000000" stroke-linecap="round" stroke-linejoin="round" stroke-opacity="0.3882353" stroke-width="0.4"/>
      <path d="M1.95 -51.2 L3.0 -52.35 15.1 -52.35 14.8 -51.9 Q14.25 -51.0 14.25 -49.25 L14.25 -48.95 Q14.4 -46.65 16.65 -45.05 18.9 -43.45 22.2 -43.45 L22.5 -43.45 22.5 -34.55 Q18.55 -33.4 14.75 -33.4 10.3 -33.4 5.4 -34.75 1.75 -35.75 -0.15 -37.2 L0.95 -38.25 Q4.7 -41.9 4.7 -45.0 4.7 -47.95 1.95 -51.2 M13.9 -38.25 L0.95 -38.25 13.9 -38.25 M-22.95 -27.4 L-22.95 -31.2 Q-19.6 -31.05 -10.9 -32.35 L-8.55 -32.9 -7.35 -32.45 Q-5.2 -31.65 0.4 -28.75 L0.75 -28.55 Q0.55 -26.7 -0.85 -25.7 -2.3 -24.65 -4.05 -25.25 L-6.55 -25.6 -10.3 -26.2 Q-12.45 -26.75 -11.9 -28.05 -13.15 -26.0 -17.45 -26.0 L-19.95 -25.65 -22.95 -27.4 M0.8 -28.55 Q4.25 -26.8 7.65 -25.65 L5.25 -25.2 2.75 -25.3 Q1.85 -25.6 1.35 -26.3 L0.8 -28.55 M10.75 -48.95 L14.25 -48.95 10.75 -48.95 M9.0 -47.55 L11.25 -47.55 9.0 -47.55 M12.3 -36.8 L10.1 -36.8 12.3 -36.8 M-4.1 -30.2 L-17.0 -30.2 -4.1 -30.2 M-3.7 -29.15 L-5.65 -29.15 -3.7 -29.15 M-17.1 -27.05 L-21.75 -27.05 -17.1 -27.05" fill="#563106" fill-rule="evenodd" stroke="none"/>
      <path d="M3.0 -52.35 L1.95 -51.2 0.9 -52.35 3.0 -52.35 M15.1 -52.35 L20.0 -52.35 22.5 -50.4 22.5 -50.3 22.5 -43.45 22.2 -43.45 Q18.9 -43.45 16.65 -45.05 14.4 -46.65 14.25 -48.95 L14.25 -49.25 Q14.25 -51.0 14.8 -51.9 L15.1 -52.35 M19.4 -48.95 L14.25 -48.95 19.4 -48.95 M22.5 -34.55 L22.5 -30.45 22.2 -30.1 19.7 -31.05 18.3 -28.25 Q17.4 -26.9 15.8 -27.3 L15.6 -28.1 15.45 -27.45 13.75 -29.6 13.15 -27.1 Q12.5 -24.85 10.55 -25.9 L9.2 -25.95 7.65 -25.65 Q4.25 -26.8 0.8 -28.55 L0.75 -28.75 0.75 -28.55 0.4 -28.75 Q-5.2 -31.65 -7.35 -32.45 L-8.55 -32.9 -6.45 -33.55 Q-3.65 -34.55 -2.35 -35.5 L-0.15 -37.2 Q1.75 -35.75 5.4 -34.75 10.3 -33.4 14.75 -33.4 18.55 -33.4 22.5 -34.55 M15.6 -30.8 L15.6 -28.1 15.6 -30.8 M17.65 -33.0 L14.35 -33.0 17.65 -33.0 M13.3 -28.75 L3.0 -28.75 13.3 -28.75" fill="#643a09" fill-rule="evenodd" stroke="none"/>
      <path d="M0.9 -52.35 L1.95 -51.2 Q0.85 -49.95 -0.15 -48.3 L-0.15 -48.25 -11.6 -48.25 -0.15 -48.25 Q-2.25 -44.7 -2.4 -41.9 L-16.35 -42.55 Q-14.4 -44.05 -12.5 -46.9 L-11.6 -48.25 Q-10.25 -50.55 -10.2 -51.8 L0.9 -52.35 M-22.95 -33.4 L-22.95 -39.25 -22.9 -39.4 Q-20.75 -40.0 -17.6 -41.75 L-16.8 -42.25 -12.55 -41.75 -2.45 -41.75 -2.45 -41.4 Q-2.45 -39.65 -1.25 -38.25 L-0.15 -37.2 -2.35 -35.5 Q-3.65 -34.55 -6.45 -33.55 L-8.55 -32.9 Q-12.45 -34.1 -16.45 -34.1 L-21.1 -33.9 -22.95 -33.4 M-7.95 -38.25 L-1.25 -38.25 -7.95 -38.25" fill="#85551c" fill-rule="evenodd" stroke="none"/>
      <path d="M15.1 -52.35 L3.0 -52.35 0.9 -52.35 -10.2 -52.35 -21.2 -52.35 -20.0 -53.2 21.2 -53.2 20.0 -52.35 15.1 -52.35" fill="#b47222" fill-rule="evenodd" stroke="none"/>
      <path d="M20.0 -52.35 L21.2 -53.2 23.5 -51.3 22.5 -50.3 22.5 -50.4 20.0 -52.35" fill="#774307" fill-rule="evenodd" stroke="none"/>
      <path d="M22.5 -50.3 L23.5 -51.3 23.5 -28.95 22.5 -27.9 22.5 -30.45 22.5 -34.55 22.5 -43.45 22.5 -50.3" fill="#381e00" fill-rule="evenodd" stroke="none"/>
      <path d="M22.5 -30.45 L22.5 -27.9 20.0 -24.85 16.3 -24.85 16.0 -26.1 15.8 -27.3 Q17.4 -26.9 18.3 -28.25 L19.7 -31.05 22.2 -30.1 22.5 -30.45 M14.75 -24.85 L10.35 -24.85 -21.3 -24.85 -22.95 -27.4 -19.95 -25.65 -17.45 -26.0 Q-13.15 -26.0 -11.9 -28.05 -12.45 -26.75 -10.3 -26.2 L-6.55 -25.6 -4.05 -25.25 Q-2.3 -24.65 -0.85 -25.7 0.55 -26.7 0.75 -28.55 L0.75 -28.75 0.8 -28.55 1.35 -26.3 Q1.85 -25.6 2.75 -25.3 L5.25 -25.2 7.65 -25.65 9.2 -25.95 10.55 -25.9 Q12.5 -24.85 13.15 -27.1 L13.75 -29.6 15.45 -27.45 14.75 -24.85 M0.75 -28.55 L0.8 -28.55 0.75 -28.55 M7.65 -25.65 L10.35 -24.85 7.65 -25.65" fill="#4b4f04" fill-rule="evenodd" stroke="none"/>
      <path d="M1.95 -51.2 Q4.7 -47.95 4.7 -45.0 4.7 -41.9 0.95 -38.25 L-1.25 -38.25 0.95 -38.25 -0.15 -37.2 -1.25 -38.25 Q-2.45 -39.65 -2.45 -41.4 L-2.45 -41.75 2.65 -41.75 -2.4 -41.9 Q-2.25 -44.7 -0.15 -48.25 L-0.15 -48.3 Q0.85 -49.95 1.95 -51.2 M-10.2 -51.8 Q-10.25 -50.55 -11.6 -48.25 L-12.5 -46.9 Q-14.4 -44.05 -16.35 -42.55 L-21.1 -42.75 -16.8 -42.25 -17.6 -41.75 Q-20.75 -40.0 -22.9 -39.4 L-20.9 -49.75 -10.2 -51.8 M-22.95 -31.2 L-22.95 -33.4 -21.1 -33.9 -16.45 -34.1 Q-12.45 -34.1 -8.55 -32.9 L-10.9 -32.35 Q-19.6 -31.05 -22.95 -31.2 M-13.4 -48.25 L-11.6 -48.25 -13.4 -48.25 M-18.3 -46.6 L-15.45 -46.6 -18.3 -46.6 M-18.15 -44.0 L-19.1 -44.0 -18.15 -44.0 M1.25 -48.25 L-0.15 -48.25 1.25 -48.25" fill="#744610" fill-rule="evenodd" stroke="none"/>
      <path d="M16.0 -26.1 L14.75 -24.85 15.45 -27.45 15.6 -28.1 15.8 -27.3 16.0 -26.1" fill="#272a00" fill-rule="evenodd" stroke="none"/>
      <path d="M0.9 -52.35 L-10.2 -51.8 -10.2 -51.9 -10.2 -52.35 0.9 -52.35 M-22.95 -39.25 L-22.95 -39.4 -22.9 -39.4 -22.95 -39.25 M-16.8 -42.25 L-21.1 -42.75 -16.35 -42.55 -16.8 -42.25 -16.35 -42.55 -2.4 -41.9 2.65 -41.75 -2.45 -41.75 -2.4 -41.9 -2.45 -41.75 -12.55 -41.75 -16.8 -42.25" fill="#aa6614" fill-rule="evenodd" stroke="none"/>
      <path d="M-21.2 -52.35 L-10.2 -52.35 -10.2 -51.9 -10.2 -51.8 -20.9 -49.75 -22.9 -39.4 -22.95 -39.4 -22.95 -50.4 -21.2 -52.35" fill="#9c5e12" fill-rule="evenodd" stroke="none"/>
      <path d="M3.0 -52.35 L1.95 -51.2 M-10.2 -51.8 Q-10.25 -50.55 -11.6 -48.25 M-0.15 -48.25 L-0.15 -48.3 Q0.85 -49.95 1.95 -51.2 M15.1 -52.35 L14.8 -51.9 Q14.25 -51.0 14.25 -49.25 L14.25 -48.95 Q14.4 -46.65 16.65 -45.05 18.9 -43.45 22.2 -43.45 L22.5 -43.45 M22.5 -34.55 Q18.55 -33.4 14.75 -33.4 10.3 -33.4 5.4 -34.75 1.75 -35.75 -0.15 -37.2 L-1.25 -38.25 M-8.55 -32.9 L-7.35 -32.45 Q-5.2 -31.65 0.4 -28.75 L0.75 -28.55 M0.8 -28.55 Q4.25 -26.8 7.65 -25.65 M0.8 -28.55 L0.75 -28.55 M10.35 -24.85 L7.65 -25.65 M-22.9 -39.4 Q-20.75 -40.0 -17.6 -41.75 L-16.8 -42.25 -16.35 -42.55 Q-14.4 -44.05 -12.5 -46.9 L-11.6 -48.25 M-10.2 -52.35 L-10.2 -51.9 -10.2 -51.8 M-0.15 -48.25 Q-2.25 -44.7 -2.4 -41.9 L-2.45 -41.75 -2.45 -41.4 Q-2.45 -39.65 -1.25 -38.25 M-8.55 -32.9 Q-12.45 -34.1 -16.45 -34.1 L-21.1 -33.9 -22.95 -33.4 M-22.9 -39.4 L-22.95 -39.4" fill="none" stroke="#000000" stroke-linecap="round" stroke-linejoin="round" stroke-opacity="0.101960786" stroke-width="0.4"/>
      <path d="M15.1 -52.35 L20.0 -52.35 21.2 -53.2 M-10.2 -52.35 L0.9 -52.35 M20.0 -52.35 L22.5 -50.4 22.5 -50.3 23.5 -51.3 M22.5 -34.55 L22.5 -30.45 M22.5 -43.45 L22.5 -34.55 M22.5 -43.45 L22.5 -50.3" fill="none" stroke="#000000" stroke-linecap="round" stroke-linejoin="round" stroke-opacity="0.3019608" stroke-width="0.2"/>
      <path d="M0.9 -52.35 L3.0 -52.35" fill="none" stroke="#000000" stroke-linecap="round" stroke-linejoin="round" stroke-opacity="0.3882353" stroke-width="0.2"/>
      <path d="M21.2 -53.2 L-20.0 -53.2 -21.2 -52.35 M23.5 -51.3 L21.2 -53.2 M22.5 -27.9 L23.5 -28.95 23.5 -51.3 M22.5 -30.45 L22.5 -27.9 20.0 -24.85 16.3 -24.85 16.0 -26.1 14.75 -24.85 10.35 -24.85 -21.3 -24.85 -22.95 -27.4 -22.95 -31.2 -22.95 -33.4 -22.95 -39.25 -22.95 -39.4 -22.95 -50.4 -21.2 -52.35 M15.45 -27.45 L15.6 -28.1 15.6 -30.8 M15.8 -27.3 L16.0 -26.1 M15.6 -28.1 L15.8 -27.3 M14.75 -24.85 L15.45 -27.45" fill="none" stroke="#000000" stroke-linecap="round" stroke-linejoin="round" stroke-opacity="0.3882353" stroke-width="0.4"/>
      <path d="M0.95 -38.25 L13.9 -38.25 M-11.6 -48.25 L-0.15 -48.25 1.25 -48.25 M14.25 -48.95 L19.4 -48.95 M14.25 -48.95 L10.75 -48.95 M14.35 -33.0 L17.65 -33.0 M3.0 -28.75 L13.3 -28.75 M10.1 -36.8 L12.3 -36.8 M11.25 -47.55 L9.0 -47.55 M-11.6 -48.25 L-13.4 -48.25 M-1.25 -38.25 L0.95 -38.25 M-1.25 -38.25 L-7.95 -38.25 M-19.1 -44.0 L-18.15 -44.0 M-15.45 -46.6 L-18.3 -46.6 M-5.65 -29.15 L-3.7 -29.15 M-17.0 -30.2 L-4.1 -30.2 M-21.75 -27.05 L-17.1 -27.05" fill="none" stroke="#000000" stroke-linecap="round" stroke-linejoin="round" stroke-opacity="0.2" stroke-width="0.4"/>
      <path d="M21.9 -30.55 Q22.05 -31.2 22.8 -28.65 L20.1 -24.95 -22.0 -24.95 Q-21.6 -25.95 -21.2 -28.5 -20.7 -31.45 -20.65 -33.6 L-20.35 -30.4 Q-20.25 -30.05 -19.8 -30.05 L-19.5 -30.05 -19.35 -30.65 Q-18.8 -27.75 -17.9 -27.75 L-16.6 -29.4 -15.5 -31.2 Q-14.65 -31.2 -14.65 -32.1 -14.65 -32.65 -14.95 -32.85 -13.35 -38.0 -13.8 -42.05 L-13.8 -42.3 -12.1 -33.0 -11.95 -32.4 -11.05 -29.3 Q-8.85 -27.85 -8.5 -27.85 -8.2 -27.85 -7.65 -28.4 -7.1 -28.85 -6.95 -29.25 -6.4 -30.55 -6.3 -32.2 L-5.95 -28.5 Q-5.6 -27.1 -4.5 -27.1 -3.4 -27.1 -2.65 -28.35 -2.0 -28.45 -2.0 -29.2 L-2.05 -29.65 -1.7 -31.0 Q-1.3 -31.2 -1.3 -31.85 L-1.5 -32.45 Q-1.0 -36.35 -0.75 -45.2 -0.6 -40.0 -0.1 -35.8 0.15 -34.05 1.1 -31.15 2.1 -27.95 2.7 -27.95 3.2 -27.95 3.65 -28.75 L4.05 -29.6 5.65 -28.0 Q5.85 -27.5 6.45 -27.5 6.8 -27.5 7.15 -27.85 L7.4 -27.8 Q7.4 -26.9 8.25 -26.9 8.55 -26.9 9.4 -27.45 L10.3 -28.3 11.15 -32.8 11.25 -32.8 Q12.15 -32.8 12.15 -33.7 12.05 -34.55 11.3 -34.55 L11.55 -40.5 Q11.75 -36.7 12.05 -34.75 L13.15 -29.2 Q13.15 -28.3 14.05 -28.3 15.0 -28.3 15.0 -29.15 L20.1 -27.75 Q20.6 -27.75 21.75 -29.45 L21.9 -30.05 21.9 -30.55 M0.4 -39.55 L0.6 -39.55 0.8 -39.0 0.6 -38.9 0.4 -39.0 0.4 -39.55 M9.9 -35.1 Q10.35 -35.15 10.35 -34.8 L10.15 -34.65 9.95 -34.7 9.9 -35.1 M12.95 -36.45 Q12.55 -36.45 12.5 -36.65 L12.5 -36.9 12.95 -37.5 Q13.4 -37.7 13.4 -37.05 13.4 -36.45 12.95 -36.45 M-12.0 -38.2 Q-12.25 -38.2 -12.3 -38.9 L-11.85 -38.8 -11.85 -38.5 Q-11.85 -38.2 -12.0 -38.2 M-17.05 -31.3 Q-16.6 -31.25 -16.6 -30.75 L-16.6 -30.65 -17.3 -30.55 -17.5 -30.95 -17.05 -31.3 M-7.7 -32.1 L-7.4 -32.2 -7.15 -32.05 -7.45 -31.95 -7.7 -32.1 M-4.95 -31.0 Q-4.5 -31.05 -4.5 -30.4 L-5.4 -30.45 Q-5.4 -30.95 -4.95 -31.0" fill="#f3f3f3" fill-opacity="0.2" fill-rule="evenodd" stroke="none"/>
      <path d="M6.85 -33.15 L6.3 -33.2 5.65 -32.25 Q5.65 -31.8 6.25 -31.55 L7.15 -31.35 8.2 -31.45 Q8.7 -31.75 8.65 -32.95 L9.35 -32.35 Q9.5 -31.95 9.95 -31.95 10.3 -31.95 10.7 -33.45 11.15 -35.05 12.05 -35.35 L10.05 -36.35 11.1 -36.9 12.25 -37.15 Q12.25 -35.0 13.65 -34.75 L12.8 -33.45 11.65 -32.35 11.65 -30.75 14.65 -30.75 16.65 -34.15 16.65 -34.25 16.85 -36.15 Q17.45 -35.55 17.45 -33.65 17.45 -32.15 17.25 -31.75 L17.15 -31.9 17.05 -31.95 Q17.05 -32.95 16.65 -34.15 L16.7 -32.2 Q16.8 -31.55 17.25 -30.75 18.55 -30.35 19.3 -31.65 L20.25 -33.15 20.25 -34.15 20.45 -34.15 20.25 -33.15 M3.05 -46.15 L4.15 -45.35 Q4.6 -44.95 5.55 -44.95 L6.9 -45.55 8.45 -46.05 Q8.65 -46.35 9.25 -46.35 L9.25 -46.15 8.45 -46.05 8.25 -45.45 Q8.25 -44.85 9.05 -44.55 L10.15 -44.35 Q11.05 -44.35 12.65 -45.75 14.25 -47.15 15.05 -47.15 L16.4 -46.7 17.55 -46.05 18.25 -45.55 M17.55 -46.05 Q17.3 -45.1 16.0 -44.3 14.9 -43.65 14.05 -43.55 L14.05 -44.75 15.45 -44.95 15.45 -44.35 M6.3 -33.2 Q5.45 -33.45 5.45 -34.15 L5.55 -34.85 7.05 -35.15 7.25 -35.0 7.25 -34.65 6.3 -33.2 M-3.7 -35.25 L-3.75 -35.35 -3.75 -35.45 -3.7 -35.25 -3.7 -35.2 Q-3.6 -34.35 -2.75 -32.55 L-2.55 -32.55 -2.55 -34.35 -1.95 -33.15 -1.25 -34.55 -0.75 -35.75 -0.8 -32.7 Q-0.8 -30.95 -0.15 -30.35 0.35 -30.4 0.85 -31.5 1.25 -32.3 1.25 -32.95 L1.25 -31.75 M-17.9 -44.75 Q-17.2 -45.0 -16.7 -45.9 -16.35 -46.6 -16.35 -47.0 L-16.35 -46.15 -15.15 -46.55 -14.35 -43.65 Q-13.8 -41.75 -12.55 -41.75 -10.85 -41.75 -9.3 -43.5 -7.75 -45.25 -6.75 -48.35 L-6.75 -45.55 -6.55 -45.35 -6.15 -47.55 Q-5.65 -47.35 -5.05 -45.8 -4.5 -44.45 -3.75 -44.35 L-2.35 -45.55 -2.05 -45.1 -1.55 -44.55 M-20.55 -33.15 L-20.55 -34.15 Q-19.75 -33.75 -19.15 -33.75 -17.75 -33.75 -17.55 -34.35 L-17.55 -35.55 Q-17.55 -36.75 -17.95 -37.55 -17.55 -36.9 -17.0 -34.85 -16.75 -33.95 -15.45 -33.95 L-14.3 -34.05 Q-14.15 -34.15 -13.75 -35.35 L-13.55 -35.35 -13.3 -34.0 Q-12.95 -32.8 -12.95 -32.4 -12.5 -33.1 -11.15 -33.75 -9.45 -34.55 -8.55 -34.55 -7.0 -34.55 -6.45 -34.05 -5.85 -33.55 -6.15 -32.15 L-4.95 -32.15 Q-4.25 -32.7 -3.9 -33.75 -3.65 -34.65 -3.7 -35.2 M-12.95 -32.4 L-12.95 -32.35 -11.25 -32.2 -11.15 -31.45 Q-11.15 -30.7 -11.55 -30.55 L-12.05 -30.55 -12.95 -30.75 Q-13.15 -30.95 -13.15 -31.75 L-12.95 -32.4" fill="none" stroke="#000000" stroke-linecap="round" stroke-linejoin="round" stroke-opacity="0.5411765" stroke-width="1.0"/>
    </g>
    <g id="decoration4-shape2" transform="matrix(1.0, 0.0, 0.0, 1.0, 23.65, 57.65)">
      <path d="M22.8 -53.2 L21.25 -53.2 Q20.25 -53.45 17.85 -54.5 16.4 -55.15 14.25 -55.15 L9.1 -54.45 1.2 -53.8 -4.4 -54.2 -9.25 -54.65 Q-15.4 -54.65 -18.6 -53.45 -21.05 -52.6 -23.4 -50.35 L-22.8 -51.45 Q-21.8 -52.9 -20.65 -53.8 -17.95 -56.0 -16.0 -55.9 L2.9 -55.85 12.0 -56.95 18.05 -56.55 20.0 -55.85 22.8 -53.2" fill="#f3f7f8" fill-rule="evenodd" stroke="none"/>
      <path d="M-23.4 -50.35 Q-21.05 -52.6 -18.6 -53.45 -15.4 -54.65 -9.25 -54.65 L-4.4 -54.2 1.2 -53.8 9.1 -54.45 14.25 -55.15 Q16.4 -55.15 17.85 -54.5 20.25 -53.45 21.25 -53.2 L22.8 -53.2 24.25 -51.6 Q24.25 -50.8 23.3 -50.8 22.6 -50.8 21.75 -51.4 L20.95 -52.05 20.0 -52.6 17.6 -53.05 -2.3 -52.7 -17.95 -53.05 Q-19.25 -53.4 -23.55 -50.15 L-23.4 -50.35" fill="#bbd1d7" fill-rule="evenodd" stroke="none"/>
      <path d="M8.85 -56.2 Q8.6 -56.05 8.35 -56.45 8.05 -56.85 8.35 -57.05 8.65 -57.25 8.9 -56.8 9.1 -56.35 8.85 -56.2 M6.7 -55.75 Q6.25 -55.45 5.95 -55.9 5.65 -56.4 6.05 -56.65 6.45 -56.95 6.8 -56.5 7.15 -56.05 6.7 -55.75 M2.0 -56.45 Q2.25 -56.0 1.9 -55.7 1.55 -55.45 1.25 -56.0 0.9 -56.5 1.35 -56.7 1.8 -56.95 2.0 -56.45 M4.45 -55.85 Q4.7 -55.45 4.3 -55.25 3.95 -55.05 3.65 -55.35 3.35 -55.7 3.75 -56.0 4.2 -56.25 4.45 -55.85 M17.55 -57.2 Q17.95 -57.5 18.2 -56.9 18.5 -56.35 18.15 -56.15 17.85 -55.95 17.5 -56.45 17.15 -56.95 17.55 -57.2 M15.9 -56.35 Q15.5 -56.1 15.25 -56.5 15.0 -56.9 15.35 -57.15 15.7 -57.4 16.0 -57.0 16.3 -56.6 15.9 -56.35 M19.15 -56.45 Q19.55 -56.65 19.7 -56.25 19.9 -55.8 19.6 -55.6 19.35 -55.4 19.05 -55.8 18.75 -56.25 19.15 -56.45 M10.45 -56.65 Q10.15 -57.05 10.5 -57.2 10.9 -57.4 11.05 -57.0 11.2 -56.65 10.95 -56.45 10.7 -56.25 10.45 -56.65 M12.85 -56.7 Q12.45 -57.1 13.0 -57.5 13.55 -57.9 13.9 -57.35 14.25 -56.8 13.75 -56.5 13.25 -56.25 12.85 -56.7 M22.95 -53.1 Q22.65 -52.9 22.4 -53.25 22.2 -53.6 22.5 -53.8 22.8 -54.0 23.05 -53.65 23.3 -53.35 22.95 -53.1 M21.5 -54.25 Q21.1 -54.0 20.75 -54.4 20.4 -54.75 20.85 -55.1 21.35 -55.4 21.65 -54.95 21.95 -54.5 21.5 -54.25 M-23.5 -50.75 Q-23.9 -51.35 -23.35 -51.6 -22.85 -51.85 -22.6 -51.3 -22.35 -50.75 -22.7 -50.45 -23.1 -50.15 -23.5 -50.75 M-22.05 -53.15 Q-22.35 -53.45 -21.95 -53.7 L-21.35 -53.6 Q-21.1 -53.2 -21.45 -53.0 -21.8 -52.8 -22.05 -53.15 M-11.15 -56.1 Q-10.85 -55.7 -11.3 -55.45 -11.7 -55.15 -11.95 -55.6 -12.25 -56.0 -11.85 -56.3 -11.5 -56.55 -11.15 -56.1 M-14.05 -56.1 L-13.65 -56.0 Q-13.45 -55.75 -13.7 -55.6 L-14.15 -55.7 Q-14.35 -55.9 -14.05 -56.1 M-15.55 -56.05 Q-15.4 -55.7 -15.65 -55.5 -15.9 -55.3 -16.15 -55.7 -16.45 -56.1 -16.1 -56.25 -15.7 -56.45 -15.55 -56.05 M-19.6 -54.55 Q-19.3 -54.15 -19.7 -53.9 -20.1 -53.65 -20.35 -54.05 -20.6 -54.45 -20.25 -54.7 -19.9 -54.95 -19.6 -54.55 M-18.45 -55.25 Q-18.75 -55.65 -18.45 -55.85 -18.15 -56.05 -17.9 -55.6 -17.7 -55.15 -17.95 -55.0 -18.2 -54.85 -18.45 -55.25 M-4.3 -56.0 Q-4.0 -55.55 -4.4 -55.3 -4.8 -55.1 -5.15 -55.45 -5.45 -55.8 -5.0 -56.1 L-4.3 -56.0 M-0.05 -55.85 Q0.25 -55.3 -0.1 -55.1 -0.4 -54.9 -0.75 -55.4 -1.1 -55.9 -0.7 -56.15 -0.3 -56.45 -0.05 -55.85 M-2.55 -55.9 Q-2.4 -55.7 -2.6 -55.55 L-2.95 -55.6 -2.9 -55.95 -2.55 -55.9 M-8.4 -56.1 Q-8.05 -55.35 -8.5 -55.1 -8.9 -54.85 -9.35 -55.5 -9.75 -56.15 -9.3 -56.5 -8.8 -56.85 -8.4 -56.1 M-6.25 -55.8 Q-6.0 -55.25 -6.35 -54.95 -6.75 -54.65 -7.15 -55.25 -7.55 -55.85 -7.0 -56.1 -6.5 -56.35 -6.25 -55.8" fill="#ffffff" fill-opacity="0.81960785" fill-rule="evenodd" stroke="none"/>
    </g>
  </defs>
</svg>
