<?xml version="1.0" encoding="UTF-8" standalone="no"?>
<svg xmlns:xlink="http://www.w3.org/1999/xlink" height="71.75px" width="52.4px" xmlns="http://www.w3.org/2000/svg">
  <g transform="matrix(1.0, 0.0, 0.0, 1.0, 28.65, 12.55)">
    <use height="71.75" transform="matrix(1.0, 0.0, 0.0, 1.0, -28.65, -12.55)" width="52.4" xlink:href="#decoration41-shape0"/>
  </g>
  <defs>
    <g id="decoration41-shape0" transform="matrix(1.0, 0.0, 0.0, 1.0, 28.65, 12.55)">
      <path d="M0.35 52.25 L0.35 -1.65" fill="none" stroke="#ffffff" stroke-linecap="round" stroke-linejoin="round" stroke-opacity="0.6117647" stroke-width="0.4"/>
      <path d="M9.1 -7.2 L8.5 -8.1 Q2.7 -6.2 1.95 -3.85 L2.25 -2.55 Q3.15 -3.4 11.45 -6.15 9.95 -6.25 9.1 -7.2 M1.1 -3.75 Q1.15 -4.05 -1.5 -2.95 L-1.95 -2.4 Q-2.3 -1.75 -1.65 -1.3 L0.65 -2.55 1.1 -3.75 M5.2 -9.2 Q10.3 -9.75 13.1 -12.55 L13.8 -12.35 11.35 -10.1 Q9.65 -8.4 9.65 -8.05 9.65 -6.55 12.15 -6.55 21.95 -11.8 23.75 -12.15 21.2 -10.15 14.15 -6.75 L5.75 -2.9 Q2.05 -1.15 -4.5 3.4 -11.05 7.9 -16.35 11.95 L-24.8 21.85 Q-28.45 25.95 -28.45 25.45 -24.0 18.45 -24.0 17.95 -24.0 17.15 -24.75 15.65 L-25.5 14.35 -28.55 15.65 -28.65 15.3 -21.95 11.55 Q-21.1 8.6 -22.1 6.5 -22.95 4.65 -24.95 3.85 L-27.9 4.45 -27.9 3.75 Q-26.5 3.5 -25.45 2.1 -23.3 -0.7 -24.95 -6.55 -25.3 -7.8 -26.45 -9.75 L-28.0 -12.05 Q-23.15 -8.25 -15.15 -8.5 -7.2 -8.8 -4.15 -12.5 -4.25 -12.3 -2.35 -10.95 -0.4 -9.55 0.6 -9.25 2.6 -8.95 5.2 -9.2 M-15.8 -4.3 L-12.7 -4.95 Q-9.0 -6.3 -6.1 -9.5 -13.6 -7.4 -18.55 -8.1 -23.15 -8.75 -24.8 -9.4 -22.0 -6.85 -18.6 -5.3 -16.9 -4.55 -15.8 -4.3 M-24.95 -8.95 Q-23.45 -4.6 -23.45 -0.15 -23.45 0.9 -24.35 3.15 -19.15 2.0 -18.55 -1.3 -18.25 -2.95 -19.1 -4.45 L-24.95 -8.95 M1.85 -5.8 Q2.25 -5.8 4.35 -7.0 6.5 -8.2 7.9 -9.25 5.4 -8.3 0.4 -8.7 -2.65 -9.35 -3.95 -10.1 -4.25 -10.25 -4.9 -8.85 -5.55 -7.4 -5.3 -6.95 -4.4 -5.15 -1.35 -5.3 L1.85 -5.8 M-17.8 -3.35 Q-17.35 0.75 -19.3 2.15 L-14.85 1.55 Q-14.75 0.3 -13.95 -1.2 L-17.8 -3.35 M-5.3 -3.15 Q-6.3 -3.65 -6.5 -3.85 -6.75 -2.65 -6.6 -1.45 -4.65 -1.75 -3.4 -2.5 -4.15 -2.55 -5.3 -3.15 M-16.35 -3.6 Q-14.35 -2.5 -12.25 -1.45 L-8.95 -1.5 Q-8.25 -2.45 -7.3 -5.2 -6.5 -7.5 -6.45 -8.05 -7.05 -7.25 -8.2 -6.15 -9.4 -5.0 -12.7 -4.15 L-16.35 -3.6 M-9.0 -0.85 L-10.85 -0.8 -8.0 0.15 -7.55 -2.5 Q-7.9 -1.85 -9.0 -0.85 M-5.7 -6.25 L-6.35 -4.75 Q-5.5 -3.1 -2.9 -3.5 -0.95 -3.8 0.85 -4.9 -3.4 -4.4 -5.7 -6.25 M-2.55 -2.05 L-2.7 -2.4 -6.45 -0.4 Q-2.45 -1.1 -2.55 -1.45 L-2.55 -2.05 M-8.55 0.75 L-13.45 1.95 Q-13.15 2.1 -13.0 2.8 -12.8 3.65 -13.15 4.55 L-12.2 3.55 Q-11.45 2.8 -9.9 1.7 L-8.55 0.75 M-7.8 0.9 L-10.55 4.8 Q-5.2 1.45 -3.95 0.1 -5.5 0.05 -7.8 0.9 M-12.1 5.8 L-8.4 1.35 -13.1 5.35 Q-13.7 6.45 -12.1 5.8 M-13.7 4.2 Q-13.4 2.3 -14.8 2.3 L-18.1 2.75 -16.95 3.6 -16.45 4.1 -16.25 7.8 Q-14.0 6.2 -13.7 4.2 M-18.6 2.8 L-24.45 3.8 Q-22.25 4.65 -21.45 5.75 -20.9 6.55 -20.9 8.7 -20.9 9.6 -19.6 9.55 -18.5 9.5 -17.65 8.95 L-17.65 8.9 -17.05 7.45 Q-16.55 5.85 -17.0 4.45 L-18.6 2.8 M-12.0 6.65 L-15.05 10.35 1.6 -1.8 -3.0 0.1 Q-11.85 6.75 -12.0 6.65 M-19.65 11.05 L-17.75 11.9 -12.95 6.85 Q-16.3 8.0 -19.65 11.05 M-9.2 0.7 Q-10.85 0.4 -13.25 -0.8 -13.2 0.1 -13.75 1.35 L-9.2 0.7 M-23.95 15.3 Q-23.45 16.55 -23.45 17.95 L-23.45 19.2 -18.3 13.3 Q-18.3 11.55 -20.4 11.4 L-24.85 14.0 Q-24.35 14.4 -23.95 15.3" fill="#e2e1de" fill-opacity="0.7411765" fill-rule="evenodd" stroke="none"/>
      <path d="M6.15 56.6 L6.5 55.2 6.5 54.65 6.5 55.2 6.15 56.6 4.9 57.95 Q3.35 59.05 1.05 59.05 -1.4 59.05 -2.8 57.95 L-3.9 56.8 -4.45 55.45 -3.9 56.8 -6.4 55.45 -8.2 58.6 Q-8.2 55.55 -6.95 53.65 -5.5 53.95 -4.45 55.45 L-4.45 55.2 -4.25 54.2 -3.8 53.2 -4.25 54.2 -6.5 52.25 -9.7 55.3 Q-8.75 52.3 -6.75 50.55 -5.35 51.0 -4.6 51.7 -4.05 52.3 -3.8 53.2 L-2.8 52.3 Q-1.45 51.6 -0.6 51.5 L0.05 51.45 0.75 51.25 1.5 51.25 2.4 51.45 Q3.8 51.6 4.9 52.3 L5.35 52.7 6.15 51.95 8.2 49.65 Q10.45 51.25 11.25 53.3 L8.1 51.05 6.15 53.75 6.5 54.65 8.85 52.75 Q10.6 55.2 10.6 57.5 L8.3 54.45 6.15 56.6 M5.35 52.7 Q5.85 53.15 6.15 53.75 5.85 53.15 5.35 52.7 M-2.3 57.5 L-2.2 57.6 -1.4 57.7 -0.65 57.6 Q-0.3 57.5 0.15 57.05 L0.7 55.9 0.7 55.45 Q0.6 54.75 0.15 54.2 -0.3 53.85 -0.65 53.75 L-1.4 53.65 -2.2 53.85 -2.3 53.95 Q-2.65 54.0 -2.8 54.2 L-3.1 54.9 -3.2 55.2 -3.25 55.3 -3.35 55.45 -3.35 55.9 -3.25 56.1 -3.1 56.5 -2.8 57.05 -2.3 57.5 M4.8 54.2 Q4.25 53.65 3.35 53.65 2.55 53.65 1.85 54.2 1.3 54.85 1.3 55.75 1.3 56.55 1.85 57.05 2.55 57.7 3.35 57.7 4.25 57.7 4.8 57.05 5.4 56.55 5.4 55.75 5.4 54.85 4.8 54.2 M2.65 56.8 L2.3 57.05 Q1.75 57.05 1.75 56.1 1.75 55.75 2.3 55.8 2.85 55.9 2.85 56.35 L2.65 56.8 M-0.85 56.35 Q-0.85 55.9 -0.3 55.8 0.25 55.75 0.25 56.1 0.25 57.05 -0.3 57.05 L-0.6 56.8 -0.85 56.35" fill="#0d0a07" fill-rule="evenodd" stroke="none"/>
      <path d="M-2.3 53.95 L-2.2 53.85 -1.4 53.65 -0.65 53.75 Q-0.3 53.85 0.15 54.2 0.6 54.75 0.7 55.45 L0.7 55.9 0.15 57.05 Q-0.3 57.5 -0.65 57.6 L-1.4 57.7 -2.2 57.6 -2.3 57.5 -2.75 57.05 -3.1 56.5 -3.25 56.1 -3.35 55.9 -3.35 55.45 -3.25 55.3 -3.2 55.2 -3.1 54.9 -2.75 54.2 -2.3 53.95 M4.8 54.2 Q5.4 54.85 5.4 55.75 5.4 56.55 4.8 57.05 4.25 57.7 3.35 57.7 2.55 57.7 1.85 57.05 1.3 56.55 1.3 55.75 1.3 54.85 1.85 54.2 2.55 53.65 3.35 53.65 4.25 53.65 4.8 54.2 M2.65 56.8 L2.85 56.35 Q2.85 55.9 2.3 55.8 1.75 55.75 1.75 56.1 1.75 57.05 2.3 57.05 L2.65 56.8 M-0.85 56.35 L-0.6 56.8 -0.3 57.05 Q0.25 57.05 0.25 56.1 0.25 55.75 -0.3 55.8 -0.85 55.9 -0.85 56.35" fill="#ffffff" fill-rule="evenodd" stroke="none"/>
      <path d="M6.5 54.65 L6.5 55.2 6.15 56.6 8.3 54.45 10.6 57.5 Q10.6 55.2 8.85 52.75 L6.5 54.65 6.15 53.75 Q5.85 53.15 5.35 52.7 L4.9 52.3 Q3.8 51.6 2.4 51.45 L1.5 51.25 0.75 51.25 0.05 51.45 -0.6 51.5 Q-1.45 51.6 -2.8 52.3 L-3.8 53.2 -4.25 54.2 -4.45 55.2 -4.45 55.45 -3.9 56.8 -2.8 57.95 Q-1.4 59.05 1.05 59.05 3.35 59.05 4.9 57.95 L6.15 56.6 M6.15 53.75 L8.1 51.05 11.25 53.3 Q10.45 51.25 8.2 49.65 L6.15 51.95 5.35 52.7 M2.4 51.45 Q3.2 50.15 3.45 50.15 5.0 50.15 6.15 51.95 M-4.6 51.7 Q-3.55 50.0 -2.75 49.9 -2.0 49.8 -0.6 51.5 M-3.8 53.2 Q-4.05 52.3 -4.6 51.7 -5.35 51.0 -6.75 50.55 -8.75 52.3 -9.7 55.3 L-6.5 52.25 -4.25 54.2 M-3.9 56.8 L-6.4 55.45 -8.2 58.6 Q-8.2 55.55 -6.95 53.65 -5.5 53.95 -4.45 55.45" fill="none" stroke="#000000" stroke-linecap="round" stroke-linejoin="round" stroke-opacity="0.3019608" stroke-width="0.30000000000000004"/>
    </g>
  </defs>
</svg>
