<?xml version="1.0" encoding="UTF-8" standalone="no"?>
<svg xmlns:ffdec="https://www.free-decompiler.com/flash" xmlns:xlink="http://www.w3.org/1999/xlink" ffdec:objectType="frame" height="223.5px" width="162.3px" xmlns="http://www.w3.org/2000/svg">
  <g transform="matrix(1.0, 0.0, 0.0, 1.0, 78.7, 215.75)">
    <use ffdec:characterId="704" height="21.2" transform="matrix(-0.6449, 0.1728, 0.1302, 0.6563, 22.0529, -120.3158)" width="18.75" xlink:href="#decoration42-sprite0"/>
    <use ffdec:characterId="733" height="63.15" transform="matrix(-0.2339, -0.5302, 0.4977, -0.3077, 15.6592, -108.5251)" width="55.45" xlink:href="#decoration42-sprite1"/>
    <use ffdec:characterId="706" height="36.1" transform="matrix(1.0, 0.0, 0.0, 1.0, -32.0, -144.4)" width="67.3" xlink:href="#decoration42-shape2"/>
    <use ffdec:characterId="733" height="63.15" transform="matrix(0.2339, -0.5302, -0.5302, -0.2339, -1.5494, -84.5973)" width="55.45" xlink:href="#decoration42-sprite1"/>
    <use ffdec:characterId="734" height="178.5" transform="matrix(1.0, 0.0, 0.0, 1.0, -29.6, -178.05)" width="39.55" xlink:href="#decoration42-shape3"/>
    <use ffdec:characterId="704" height="21.2" transform="matrix(0.5836, -0.5837, 0.5837, 0.5836, -22.1335, -79.55)" width="18.75" xlink:href="#decoration42-sprite0"/>
    <use ffdec:characterId="733" height="63.15" transform="matrix(0.8766, 0.0, -0.0808, 0.7236, -54.5449, -123.2671)" width="55.45" xlink:href="#decoration42-sprite1"/>
    <use ffdec:characterId="733" height="63.15" transform="matrix(-0.6411, -0.3702, -0.3702, 0.6411, 54.3713, -112.6998)" width="55.45" xlink:href="#decoration42-sprite1"/>
    <use ffdec:characterId="733" height="63.15" transform="matrix(0.7158, 0.5239, -0.5239, 0.7158, -45.6218, -159.8957)" width="55.45" xlink:href="#decoration42-sprite1"/>
    <use ffdec:characterId="733" height="63.15" transform="matrix(0.0033, -0.2201, 0.5714, 0.0085, -8.3722, 5.6025)" width="55.45" xlink:href="#decoration42-sprite1"/>
    <use ffdec:characterId="733" height="63.15" transform="matrix(-0.3067, -0.5312, -0.5312, 0.3067, 30.636, -132.5592)" width="55.45" xlink:href="#decoration42-sprite1"/>
    <use ffdec:characterId="733" height="63.15" transform="matrix(-0.8766, -0.1357, -0.1357, 0.8766, 34.9099, -148.6291)" width="55.45" xlink:href="#decoration42-sprite1"/>
    <use ffdec:characterId="733" height="63.15" transform="matrix(0.2339, -0.5302, -0.5302, -0.2339, -21.4994, -102.8973)" width="55.45" xlink:href="#decoration42-sprite1"/>
    <use ffdec:characterId="733" height="63.15" transform="matrix(-0.7937, -0.3023, -0.1844, 0.5664, 83.6037, -125.4443)" width="55.45" xlink:href="#decoration42-sprite1"/>
    <use ffdec:characterId="733" height="63.15" transform="matrix(0.1721, 0.7413, -0.7413, 0.1721, -19.2207, -176.8869)" width="55.45" xlink:href="#decoration42-sprite1"/>
    <use ffdec:characterId="733" height="63.15" transform="matrix(0.0, -0.8871, 0.8871, 0.0, -4.2661, -110.9782)" width="55.45" xlink:href="#decoration42-sprite1"/>
    <use ffdec:characterId="733" height="63.15" transform="matrix(-0.5097, -0.4765, -0.4765, 0.5097, 18.9704, -140.1838)" width="55.45" xlink:href="#decoration42-sprite1"/>
    <use ffdec:characterId="733" height="63.15" transform="matrix(-0.1268, -0.819, 0.819, -0.1268, 4.786, -121.7572)" width="55.45" xlink:href="#decoration42-sprite1"/>
    <use ffdec:characterId="704" height="21.2" transform="matrix(0.5782, 0.3338, -0.2956, 0.6002, -57.8565, -94.7868)" width="18.75" xlink:href="#decoration42-sprite0"/>
    <use ffdec:characterId="733" height="63.15" transform="matrix(-0.5618, -0.5274, -0.4061, 0.6398, 46.2623, -166.7101)" width="55.45" xlink:href="#decoration42-sprite1"/>
    <use ffdec:characterId="704" height="21.2" transform="matrix(0.0, 0.6676, -0.6676, 0.0441, -50.4165, -174.1923)" width="18.75" xlink:href="#decoration42-sprite0"/>
    <use ffdec:characterId="733" height="63.15" transform="matrix(-0.3887, 0.7575, -0.6096, -0.3061, 28.4801, -196.3975)" width="55.45" xlink:href="#decoration42-sprite1"/>
    <use ffdec:characterId="307" height="116.85" transform="matrix(0.1402, -0.2428, 0.3758, 0.217, -59.4043, -112.7421)" width="220.6" xlink:href="#decoration42-sprite2"/>
    <use ffdec:characterId="733" height="63.15" transform="matrix(-0.0033, -0.2201, -0.5714, 0.0085, 11.3722, 5.6025)" width="55.45" xlink:href="#decoration42-sprite1"/>
    <use ffdec:characterId="704" height="21.2" transform="matrix(0.0924, 0.3226, -0.6296, 0.2262, 8.1574, -3.1098)" width="18.75" xlink:href="#decoration42-sprite0"/>
    <use ffdec:characterId="704" height="21.2" transform="matrix(0.1483, 0.3011, -0.4707, 0.2718, -27.3355, -5.1646)" width="18.75" xlink:href="#decoration42-sprite0"/>
  </g>
  <defs>
    <g id="decoration42-sprite0" transform="matrix(1.0, 0.0, 0.0, 1.0, 0.2, 0.2)">
      <use ffdec:characterId="703" height="21.2" transform="matrix(1.0, 0.0, 0.0, 1.0, -0.2, -0.2)" width="18.75" xlink:href="#decoration42-shape0"/>
    </g>
    <g id="decoration42-shape0" transform="matrix(1.0, 0.0, 0.0, 1.0, 0.2, 0.2)">
      <path d="M14.6 0.0 Q16.7 1.2 17.4 2.6 18.1 4.0 16.95 4.1 15.8 4.2 17.45 5.75 19.1 7.3 17.8 8.1 16.75 8.7 14.9 8.75 15.2 9.1 15.55 11.4 15.7 12.35 14.8 13.05 L13.85 13.55 Q11.2 8.85 8.9 6.75 11.3 3.15 14.6 0.0 11.3 3.15 8.9 6.75 7.1 9.75 6.4 11.25 L7.6 6.7 4.1 6.6 Q3.6 6.1 4.1 5.05 4.85 3.45 7.95 2.8 4.85 1.2 9.3 0.55 L14.6 0.0" fill="#4b3404" fill-rule="evenodd" stroke="none"/>
      <path d="M8.9 6.75 Q11.2 8.85 13.85 13.55 14.0 16.1 12.7 17.15 L11.65 17.3 10.55 17.15 Q9.9 16.85 8.4 18.7 6.9 20.55 5.2 18.3 3.9 21.0 1.75 20.8 -1.05 18.25 0.7 15.55 -1.2 13.25 2.05 11.9 2.35 11.4 1.6 10.25 0.85 9.1 1.4 8.15 1.65 7.8 2.8 7.2 L4.1 6.6 7.6 6.7 6.4 11.25 Q7.1 9.75 8.9 6.75 M5.75 8.85 L6.65 8.45 5.75 8.85 M5.15 14.15 Q5.7 12.65 6.4 11.25 5.7 12.65 5.15 14.15 M8.85 15.5 Q8.9 10.6 9.2 9.8 8.9 10.6 8.85 15.5 M3.5 13.1 L1.5 14.45 3.5 13.1" fill="url(#decoration42-gradient0)" fill-rule="evenodd" stroke="none"/>
      <path d="M13.85 13.55 L14.8 13.05 Q15.7 12.35 15.55 11.4 15.2 9.1 14.9 8.75 16.75 8.7 17.8 8.1 19.1 7.3 17.45 5.75 15.8 4.2 16.95 4.1 18.1 4.0 17.4 2.6 16.7 1.2 14.6 0.0 L9.3 0.55 Q4.85 1.2 7.95 2.8 4.85 3.45 4.1 5.05 3.6 6.1 4.1 6.6 L2.8 7.2 Q1.65 7.8 1.4 8.15 0.85 9.1 1.6 10.25 2.35 11.4 2.05 11.9 -1.2 13.25 0.7 15.55 -1.05 18.25 1.75 20.8 3.9 21.0 5.2 18.3 6.9 20.55 8.4 18.7 9.9 16.85 10.55 17.15 L11.65 17.3 12.7 17.15 Q14.0 16.1 13.85 13.55" fill="none" stroke="#321502" stroke-linecap="round" stroke-linejoin="round" stroke-opacity="0.2784314" stroke-width="0.4"/>
      <path d="M14.6 0.0 Q11.3 3.15 8.9 6.75 7.1 9.75 6.4 11.25 5.7 12.65 5.15 14.15 M6.65 8.45 L5.75 8.85 M1.5 14.45 L3.5 13.1 M9.2 9.8 Q8.9 10.6 8.85 15.5" fill="none" stroke="#321502" stroke-linecap="round" stroke-linejoin="round" stroke-opacity="0.16078432" stroke-width="0.4"/>
    </g>
    <linearGradient gradientTransform="matrix(0.0051, -0.0088, 0.011, 0.0063, 7.6, 13.3)" gradientUnits="userSpaceOnUse" id="decoration42-gradient0" spreadMethod="pad" x1="-819.2" x2="819.2">
      <stop offset="0.0" stop-color="#614b18"/>
      <stop offset="0.9764705882352941" stop-color="#4f3809"/>
    </linearGradient>
    <g id="decoration42-sprite1" transform="matrix(1.0, 0.0, 0.0, 1.0, 0.25, 0.3)">
      <use ffdec:characterId="704" height="21.2" transform="matrix(1.1086, 0.0, 0.0, 1.1086, 13.3783, 36.1283)" width="18.75" xlink:href="#decoration42-sprite0"/>
      <use ffdec:characterId="704" height="21.2" transform="matrix(0.658, 0.6579, -0.6579, 0.658, 13.7, 19.6868)" width="18.75" xlink:href="#decoration42-sprite0"/>
      <use ffdec:characterId="704" height="21.2" transform="matrix(-1.3822, -0.3703, -0.3703, 1.3822, 55.2005, 33.5476)" width="18.75" xlink:href="#decoration42-sprite0"/>
      <use ffdec:characterId="704" height="21.2" transform="matrix(-0.8313, 0.8312, -0.9378, -0.63, 45.6038, 13.0597)" width="18.75" xlink:href="#decoration42-sprite0"/>
      <use ffdec:characterId="307" height="116.85" transform="matrix(-0.0271, -0.1011, 0.1594, -0.0427, 21.7217, 27.6393)" width="220.6" xlink:href="#decoration42-sprite2"/>
      <use ffdec:characterId="307" height="116.85" transform="matrix(-0.0271, -0.1011, 0.1594, -0.0427, 34.4717, 61.0393)" width="220.6" xlink:href="#decoration42-sprite2"/>
    </g>
    <g id="decoration42-sprite2" transform="matrix(1.0, 0.0, 0.0, 1.0, -2.6, 0.05)">
      <use ffdec:characterId="306" height="116.85" transform="matrix(1.0, 0.0, 0.0, 1.0, 2.6, -0.05)" width="220.6" xlink:href="#decoration42-shape1"/>
    </g>
    <g id="decoration42-shape1" transform="matrix(1.0, 0.0, 0.0, 1.0, -2.6, 0.05)">
      <path d="M216.6 72.9 Q209.6 82.3 197.3 90.5 165.65 111.5 112.85 116.1 61.0 120.6 28.05 95.7 15.85 86.45 8.7 74.85 2.6 65.0 2.6 58.05 2.6 51.0 7.9 41.95 14.25 31.1 25.85 22.35 57.15 -1.2 112.85 0.0 173.9 1.15 201.1 17.6 224.7 31.9 223.1 58.05 222.7 64.7 216.6 72.9" fill="url(#decoration42-gradient1)" fill-rule="evenodd" stroke="none"/>
    </g>
    <radialGradient cx="0" cy="0" gradientTransform="matrix(0.0971, 0.0, 0.0, 0.0572, 109.5, 53.65)" gradientUnits="userSpaceOnUse" id="decoration42-gradient1" r="819.2" spreadMethod="pad">
      <stop offset="0.0" stop-color="#5c7172" stop-opacity="0.45882353"/>
      <stop offset="0.19607843137254902" stop-color="#617172" stop-opacity="0.34117648"/>
      <stop offset="1.0" stop-color="#727272" stop-opacity="0.0"/>
    </radialGradient>
    <g id="decoration42-shape2" transform="matrix(1.0, 0.0, 0.0, 1.0, 32.0, 144.4)">
      <path d="M25.25 -139.3 L26.95 -140.35 Q25.6 -137.5 21.85 -134.25 L15.1 -129.05 10.85 -126.5 6.1 -124.0 Q4.1 -122.85 2.2 -121.4 L2.15 -121.65 Q2.15 -123.2 5.4 -126.1 L6.55 -126.35 6.7 -126.4 Q6.7 -126.1 9.35 -127.05 12.5 -128.1 14.9 -129.95 L18.45 -132.6 20.75 -134.9 Q22.6 -137.25 25.25 -139.3 M-30.5 -129.0 L2.0 -109.15 -4.15 -108.55 -31.75 -124.95 -30.5 -129.0" fill="#513926" fill-rule="evenodd" stroke="none"/>
      <path d="M26.95 -140.35 L32.3 -143.4 35.05 -144.15 Q33.3 -140.0 16.7 -129.2 11.35 -125.75 9.05 -122.35 7.2 -118.75 5.6 -116.7 0.75 -116.75 -0.1 -118.65 2.35 -120.25 2.2 -121.4 4.1 -122.85 6.1 -124.0 L10.85 -126.5 15.1 -129.05 21.85 -134.25 Q25.6 -137.5 26.95 -140.35" fill="#312419" fill-rule="evenodd" stroke="none"/>
      <path d="M5.4 -126.1 Q8.95 -129.25 16.35 -133.95 20.55 -136.6 25.25 -139.3 22.6 -137.25 20.75 -134.9 L18.45 -132.6 14.9 -129.95 Q12.5 -128.1 9.35 -127.05 6.7 -126.1 6.7 -126.4 L6.55 -126.35 5.4 -126.1" fill="#644a2b" fill-rule="evenodd" stroke="none"/>
      <path d="M25.25 -139.3 L26.95 -140.35 32.3 -143.4 35.05 -144.15 Q33.3 -140.0 16.7 -129.2 11.35 -125.75 9.05 -122.35 7.2 -118.75 5.6 -116.7 0.75 -116.75 -0.1 -118.65 2.35 -120.25 2.2 -121.4 L2.15 -121.65 Q2.15 -123.2 5.4 -126.1 8.95 -129.25 16.35 -133.95 20.55 -136.6 25.25 -139.3 M-30.5 -129.0 L2.0 -109.15 -4.15 -108.55 -31.75 -124.95 -30.5 -129.0 Z" fill="none" stroke="#000000" stroke-linecap="round" stroke-linejoin="round" stroke-opacity="0.4117647" stroke-width="0.5"/>
    </g>
    <g id="decoration42-shape3" transform="matrix(1.0, 0.0, 0.0, 1.0, 29.6, 178.05)">
      <path d="M-8.6 -117.45 L-4.55 -119.2 Q0.1 -114.25 2.8 -109.65 1.95 -105.4 1.8 -99.2 L-8.6 -117.45" fill="#2a1505" fill-rule="evenodd" stroke="none"/>
      <path d="M2.55 -0.2 L1.2 -0.1 -2.0 -18.8 Q-2.4 -14.3 -3.15 -10.8 -3.7 -8.15 -3.7 -5.8 L-5.55 -2.6 -7.4 0.25 Q-6.7 -1.65 -5.95 -4.25 -4.55 -9.4 -4.55 -12.7 L-5.3 -18.7 -3.75 -24.85 Q-3.35 -26.25 -2.5 -35.65 -2.45 -36.9 -2.9 -41.75 -3.4 -47.6 -4.2 -50.6 -4.0 -52.65 -4.55 -63.8 L-2.65 -71.45 Q-0.65 -78.7 -0.45 -80.7 -0.2 -83.35 -2.35 -91.1 -4.45 -98.45 -6.1 -101.55 -7.4 -104.3 -9.05 -106.95 -8.0 -105.7 -3.65 -97.4 0.85 -88.75 1.1 -87.0 1.7 -82.85 1.7 -81.15 1.7 -77.95 0.75 -74.55 L0.7 -76.35 0.9 -78.75 0.7 -76.35 0.75 -74.55 -0.45 -71.2 Q-2.55 -66.15 -2.55 -65.15 -2.55 -64.2 -0.2 -55.2 L-1.8 -51.15 -0.05 -46.75 1.4 -40.5 Q1.4 -37.6 0.6 -35.35 -1.1 -29.95 -1.1 -28.3 L-0.2 -24.7 Q-0.95 -20.55 -0.95 -16.4 L0.6 -8.55 Q2.2 -1.25 2.55 -0.2 M-3.75 -19.9 Q-3.4 -21.85 -2.5 -35.65 -3.4 -21.85 -3.75 -19.9" fill="#563b25" fill-rule="evenodd" stroke="none"/>
      <path d="M-8.6 -117.45 L1.8 -99.2 Q1.55 -89.05 3.05 -73.55 L1.8 -70.25 Q0.35 -66.6 0.35 -65.4 0.35 -62.6 1.7 -60.15 L1.1 -58.5 0.6 -62.05 1.1 -58.5 -0.2 -55.2 Q-2.55 -64.2 -2.55 -65.15 -2.55 -66.15 -0.45 -71.2 L0.75 -74.55 Q1.7 -77.95 1.7 -81.15 1.7 -82.85 1.1 -87.0 0.85 -88.75 -3.65 -97.4 -8.0 -105.7 -9.05 -106.95 L-14.05 -115.1 -8.6 -117.45 M3.0 -55.8 Q2.95 -54.3 3.8 -52.1 4.6 -50.1 4.75 -50.2 5.95 -51.1 8.85 -54.9 6.7 -50.55 5.7 -47.1 L5.7 -44.65 Q5.35 -40.0 4.9 -37.85 L3.95 -34.45 Q2.85 -31.15 2.95 -24.3 2.65 -24.9 2.1 -26.75 L1.4 -29.45 0.95 -30.95 -0.2 -24.7 -1.1 -28.3 Q-1.1 -29.95 0.6 -35.35 1.4 -37.6 1.4 -40.5 L-0.05 -46.75 0.4 -47.95 1.55 -46.75 1.2 -52.9 3.0 -55.8 M1.2 -0.1 L-7.4 0.25 -5.55 -2.6 -3.7 -5.8 Q-3.7 -8.15 -3.15 -10.8 -2.4 -14.3 -2.0 -18.8 L1.2 -0.1 M0.75 -74.55 L0.9 -72.45 0.75 -74.55 M2.45 -38.2 L2.0 -32.55 1.4 -29.45 2.0 -32.55 2.45 -38.2 M1.8 -45.6 Q1.8 -45.2 2.7 -44.4 3.55 -43.65 3.55 -43.95 L3.4 -45.2 2.65 -46.2 1.9 -46.35 1.8 -45.6 M-0.2 -1.5 L-1.05 -4.05 Q-1.7 -6.25 -1.6 -7.4 -1.7 -6.25 -1.05 -4.05 L-0.2 -1.5" fill="#3c2818" fill-rule="evenodd" stroke="none"/>
      <path d="M3.05 -73.55 L3.1 -71.95 1.8 -66.1 Q2.15 -66.25 2.75 -63.45 L1.7 -60.15 Q0.35 -62.6 0.35 -65.4 0.35 -66.6 1.8 -70.25 L3.05 -73.55" fill="#251305" fill-rule="evenodd" stroke="none"/>
      <path d="M2.75 -63.45 L3.0 -55.8 1.2 -52.9 -0.2 -55.2 1.1 -58.5 1.7 -60.15 2.75 -63.45 M1.4 -55.55 L1.1 -58.5 1.4 -55.55" fill="#383c14" fill-rule="evenodd" stroke="none"/>
      <path d="M1.8 -45.6 L1.9 -46.35 2.65 -46.2 3.4 -45.2 3.55 -43.95 Q3.55 -43.65 2.7 -44.4 1.8 -45.2 1.8 -45.6" fill="#404610" fill-rule="evenodd" stroke="none"/>
      <path d="M1.2 -52.9 L1.55 -46.75 0.4 -47.95 1.2 -52.9" fill="#543217" fill-rule="evenodd" stroke="none"/>
      <path d="M2.95 -24.3 Q2.95 -19.75 3.55 -13.7 2.4 -15.55 0.15 -21.85 L-0.2 -24.7 0.95 -30.95 1.4 -29.45 0.4 -25.15 1.4 -29.45 2.1 -26.75 Q2.65 -24.9 2.95 -24.3" fill="#25190f" fill-rule="evenodd" stroke="none"/>
      <path d="M3.55 -13.7 Q5.0 -8.9 6.85 -4.8 8.65 -0.75 9.75 -0.2 L4.2 -0.2 Q4.05 -2.25 0.15 -21.85 2.4 -15.55 3.55 -13.7" fill="#373c11" fill-rule="evenodd" stroke="none"/>
      <path d="M4.2 -0.2 L2.55 -0.2 Q2.2 -1.25 0.6 -8.55 L-0.95 -16.4 Q-0.95 -20.55 -0.2 -24.7 L0.15 -21.85 Q4.05 -2.25 4.2 -0.2" fill="#404324" fill-rule="evenodd" stroke="none"/>
      <path d="M-0.2 -55.2 L1.2 -52.9 0.4 -47.95 -0.05 -46.75 -1.8 -51.15 -0.2 -55.2" fill="#474d1a" fill-rule="evenodd" stroke="none"/>
      <path d="M-26.25 -150.1 L-29.4 -157.9 Q-29.2 -157.85 -28.8 -158.1 L-28.1 -158.4 -25.8 -153.1 Q-23.3 -148.15 -21.0 -146.1 -19.2 -144.55 -14.45 -137.4 -9.5 -129.9 -8.85 -130.6 L-8.0 -126.1 -9.65 -128.7 Q-10.9 -130.9 -11.75 -131.65 L-15.45 -135.1 Q-17.8 -137.25 -19.35 -139.15 -23.5 -144.3 -26.25 -150.1 M-6.55 -173.5 Q-6.95 -174.75 -6.2 -177.85 L-3.05 -168.25 Q-0.6 -160.2 -0.7 -157.05 L-0.6 -150.95 -0.55 -144.7 Q-0.6 -140.6 -0.15 -138.35 L0.35 -135.5 Q0.35 -135.4 -1.3 -134.25 -3.0 -133.0 -3.35 -132.9 -3.25 -135.75 -3.7 -138.85 -4.15 -142.1 -4.15 -145.6 L-3.9 -156.85 -3.95 -158.95 -10.8 -163.3 -13.55 -169.45 -13.25 -170.4 -9.85 -164.7 -4.05 -162.45 Q-4.3 -165.9 -4.9 -168.15 L-6.55 -173.5" fill="#3a1f0a" fill-rule="evenodd" stroke="none"/>
      <path d="M-9.6 0.25 L-11.45 0.25 Q-9.25 -0.1 -8.85 -4.85 -8.45 -8.95 -6.8 -14.9 L-7.65 -7.15 Q-8.25 -2.55 -9.6 0.25 M-5.25 -70.1 Q-5.1 -73.85 -5.4 -77.75 L-4.15 -75.85 Q-3.9 -75.45 -3.9 -74.3 -3.9 -73.25 -5.25 -70.1 M-5.7 -80.5 L-5.8 -82.25 -5.35 -80.6 -3.1 -80.7 Q-1.15 -81.9 -1.55 -84.25 -1.95 -86.65 -2.85 -87.9 -1.15 -86.25 -1.0 -83.7 -0.85 -81.15 -1.5 -79.95 -2.15 -78.75 -3.65 -78.75 -4.0 -78.75 -4.9 -79.6 L-5.7 -80.5 M-5.85 -84.85 L-6.1 -97.6 Q-5.1 -95.95 -4.1 -92.6 -3.05 -89.1 -3.6 -88.85 -4.35 -88.5 -5.85 -84.85" fill="#b4854d" fill-rule="evenodd" stroke="none"/>
      <path d="M-7.4 0.25 L-9.6 0.25 Q-8.25 -2.55 -7.65 -7.15 L-6.8 -14.9 -5.3 -20.35 Q-4.1 -24.75 -2.5 -35.65 -3.35 -26.25 -3.75 -24.85 L-5.3 -18.7 -4.55 -12.7 Q-4.55 -9.4 -5.95 -4.25 -6.7 -1.65 -7.4 0.25 M-4.2 -50.6 L-5.3 -55.45 Q-6.35 -60.15 -6.15 -60.7 -5.95 -61.6 -5.25 -70.1 -3.9 -73.25 -3.9 -74.3 -3.9 -75.45 -4.15 -75.85 L-5.4 -77.75 -5.7 -80.5 -4.9 -79.6 Q-4.0 -78.75 -3.65 -78.75 -2.15 -78.75 -1.5 -79.95 -0.85 -81.15 -1.0 -83.7 -1.15 -86.25 -2.85 -87.9 L-2.95 -88.0 Q-4.3 -87.25 -4.5 -85.0 -4.65 -82.75 -3.35 -83.0 -4.65 -82.75 -4.5 -85.0 -4.3 -87.25 -2.95 -88.0 L-2.85 -87.9 Q-1.95 -86.65 -1.55 -84.25 -1.15 -81.9 -3.1 -80.7 L-5.35 -80.6 -5.8 -82.25 -5.85 -84.85 Q-4.35 -88.5 -3.6 -88.85 -3.05 -89.1 -4.1 -92.6 -5.1 -95.95 -6.1 -97.6 L-6.1 -101.55 Q-4.45 -98.45 -2.35 -91.1 -0.2 -83.35 -0.45 -80.7 -0.65 -78.7 -2.65 -71.45 L-4.55 -63.8 Q-4.0 -52.65 -4.2 -50.6" fill="#856238" fill-rule="evenodd" stroke="none"/>
      <path d="M1.8 -99.2 Q1.95 -105.4 2.8 -109.65 0.1 -114.25 -4.55 -119.2 L-8.6 -117.45 -14.05 -115.1 -9.05 -106.95 Q-7.4 -104.3 -6.1 -101.55 L-6.1 -97.6 -5.85 -84.85 -5.8 -82.25 -5.7 -80.5 -5.4 -77.75 Q-5.1 -73.85 -5.25 -70.1 -5.95 -61.6 -6.15 -60.7 -6.35 -60.15 -5.3 -55.45 L-4.2 -50.6 Q-3.4 -47.6 -2.9 -41.75 -2.45 -36.9 -2.5 -35.65 -3.4 -21.85 -3.75 -19.9 M1.8 -99.2 Q1.55 -89.05 3.05 -73.55 L3.1 -71.95 1.8 -66.1 Q2.15 -66.25 2.75 -63.45 L3.0 -55.8 Q2.95 -54.3 3.8 -52.1 4.6 -50.1 4.75 -50.2 5.95 -51.1 8.85 -54.9 6.7 -50.55 5.7 -47.1 L5.7 -44.65 Q5.35 -40.0 4.9 -37.85 L3.95 -34.45 Q2.85 -31.15 2.95 -24.3 2.95 -19.75 3.55 -13.7 5.0 -8.9 6.85 -4.8 8.65 -0.75 9.75 -0.2 L4.2 -0.2 2.55 -0.2 1.2 -0.1 -7.4 0.25 -9.6 0.25 -11.45 0.25 Q-9.25 -0.1 -8.85 -4.85 -8.45 -8.95 -6.8 -14.9 L-5.3 -20.35 Q-4.1 -24.75 -2.5 -35.65 M-6.55 -173.5 L-4.9 -168.15 Q-4.3 -165.9 -4.05 -162.45 L-9.85 -164.7 -13.25 -170.4 -13.55 -169.45 -10.8 -163.3 -3.95 -158.95 -3.9 -156.85 -4.15 -145.6 Q-4.15 -142.1 -3.7 -138.85 -3.25 -135.75 -3.35 -132.9 -3.0 -133.0 -1.3 -134.25 0.35 -135.4 0.35 -135.5 L-0.15 -138.35 Q-0.6 -140.6 -0.55 -144.7 L-0.6 -150.95 -0.7 -157.05 Q-0.6 -160.2 -3.05 -168.25 L-6.2 -177.85 Q-6.95 -174.75 -6.55 -173.5 M-26.25 -150.1 Q-23.5 -144.3 -19.35 -139.15 -17.8 -137.25 -15.45 -135.1 L-11.75 -131.65 Q-10.9 -130.9 -9.65 -128.7 L-8.0 -126.1 -8.85 -130.6 Q-9.5 -129.9 -14.45 -137.4 -19.2 -144.55 -21.0 -146.1 -23.3 -148.15 -25.8 -153.1 L-28.1 -158.4 -28.8 -158.1 Q-29.2 -157.85 -29.4 -157.9 L-26.25 -150.1" fill="none" stroke="#000000" stroke-linecap="round" stroke-linejoin="round" stroke-opacity="0.3882353" stroke-width="0.4"/>
      <path d="M0.9 -78.75 L0.7 -76.35 0.75 -74.55 0.9 -72.45 M1.1 -58.5 L1.4 -55.55 M0.6 -62.05 L1.1 -58.5 M1.4 -29.45 L2.0 -32.55 2.45 -38.2 M1.4 -29.45 L0.4 -25.15 M-2.85 -87.9 L-2.95 -88.0 Q-4.3 -87.25 -4.5 -85.0 -4.65 -82.75 -3.35 -83.0 M-2.85 -87.9 Q-1.15 -86.25 -1.0 -83.7 -0.85 -81.15 -1.5 -79.95 -2.15 -78.75 -3.65 -78.75 -4.0 -78.75 -4.9 -79.6 L-5.7 -80.5 M-1.6 -7.4 Q-1.7 -6.25 -1.05 -4.05 L-0.2 -1.5" fill="none" stroke="#000000" stroke-linecap="round" stroke-linejoin="round" stroke-opacity="0.21176471" stroke-width="0.4"/>
    </g>
  </defs>
</svg>
