<?xml version="1.0" encoding="UTF-8" standalone="no"?>
<svg xmlns:xlink="http://www.w3.org/1999/xlink" height="127.6px" width="69.4px" xmlns="http://www.w3.org/2000/svg">
  <g transform="matrix(1.0, 0.0, 0.0, 1.0, 35.45, 127.4)">
    <use height="74.4" transform="matrix(1.0, 0.0, 0.0, 1.0, -35.45, -127.4)" width="69.4" xlink:href="#decoration44-shape0"/>
    <use height="145.35" transform="matrix(0.2979, 0.0, 0.0, 0.3572, -15.4, -122.65)" width="99.45" xlink:href="#decoration44-sprite0"/>
    <use height="148.9" transform="matrix(-0.2964, 0.0, 0.0152, 0.2846, 11.2993, -113.4102)" width="101.1" xlink:href="#decoration44-sprite1"/>
    <use height="148.9" transform="matrix(0.2502, 0.0, 0.0, 0.2637, -12.7749, -108.7499)" width="101.1" xlink:href="#decoration44-sprite1"/>
    <use height="148.9" transform="matrix(-0.1954, 0.0, 0.0076, 0.201, 7.4603, -100.6209)" width="101.1" xlink:href="#decoration44-sprite1"/>
    <use height="148.9" transform="matrix(0.1614, 0.0, -0.0042, 0.1104, -7.7896, -86.6955)" width="101.1" xlink:href="#decoration44-sprite1"/>
    <use height="105.4" transform="matrix(1.0, 0.0, 0.0, 1.0, -12.45, -105.2)" width="24.1" xlink:href="#decoration44-shape3"/>
  </g>
  <defs>
    <g id="decoration44-shape0" transform="matrix(1.0, 0.0, 0.0, 1.0, 35.45, 127.4)">
      <path d="M20.55 -59.45 Q11.2 -53.0 -0.75 -53.0 -11.15 -53.0 -21.2 -60.85 -34.6 -71.35 -35.4 -90.2 -36.2 -108.95 -22.1 -119.5 -16.85 -123.45 -10.35 -125.6 -4.95 -127.4 -0.75 -127.4 10.75 -127.4 19.75 -120.95 33.2 -111.3 33.9 -90.2 34.6 -69.15 20.55 -59.45" fill="url(#decoration44-gradient0)" fill-rule="evenodd" stroke="none"/>
    </g>
    <radialGradient cx="0" cy="0" gradientTransform="matrix(0.0403, 0.0, 0.0, 0.045, -0.75, -90.2)" gradientUnits="userSpaceOnUse" id="decoration44-gradient0" r="819.2" spreadMethod="pad">
      <stop offset="0.0" stop-color="#fffdf5" stop-opacity="0.8784314"/>
      <stop offset="0.14901960784313725" stop-color="#ffd202" stop-opacity="0.7019608"/>
      <stop offset="0.39215686274509803" stop-color="#f79331" stop-opacity="0.5411765"/>
      <stop offset="0.615686274509804" stop-color="#fcc86f" stop-opacity="0.14117648"/>
      <stop offset="1.0" stop-color="#ffdd87" stop-opacity="0.0"/>
    </radialGradient>
    <g id="decoration44-sprite0" transform="matrix(1.0, 0.0, 0.0, 1.0, 0.0, 0.0)">
      <use height="145.35" transform="matrix(1.0, 0.0, 0.0, 1.0, 0.0, 0.0)" width="99.45" xlink:href="#decoration44-shape1"/>
    </g>
    <g id="decoration44-shape1" transform="matrix(1.0, 0.0, 0.0, 1.0, 0.0, 0.0)">
      <path d="M76.95 49.4 Q81.25 57.95 82.55 66.75 81.0 63.25 76.65 60.55 77.45 73.25 74.25 90.2 77.75 80.65 92.2 72.0 81.15 87.2 78.8 98.9 83.05 89.75 90.1 83.1 85.3 92.3 87.15 100.6 88.5 107.85 87.0 113.25 91.35 101.25 99.45 95.0 95.05 104.45 97.1 112.5 92.8 135.55 71.85 144.75 L52.25 145.35 37.1 143.1 22.8 140.2 Q10.55 134.9 4.5 125.3 3.45 123.6 2.15 118.75 1.0 114.35 1.1 114.05 0.75 110.05 1.6 105.35 2.7 99.8 0.0 93.95 5.55 100.2 7.15 107.8 6.8 97.95 11.05 86.95 L12.4 99.2 Q14.15 84.95 22.65 69.65 19.7 83.1 20.2 90.75 25.5 84.35 28.2 74.2 27.0 74.85 25.85 76.05 25.45 76.5 27.9 68.75 L30.5 60.2 Q31.75 66.75 31.95 72.95 44.3 48.7 36.35 21.0 45.85 30.4 47.9 45.1 45.65 21.3 62.7 0.0 46.2 35.15 68.0 58.35 77.35 60.65 68.2 35.45 73.8 43.0 76.95 49.4 M35.6 39.15 L35.8 47.0 Q35.8 50.85 34.2 53.05 L32.85 55.25 32.85 55.15 Q32.85 54.35 32.25 52.95 31.65 51.6 31.65 49.1 31.65 47.45 33.15 44.15 L35.6 39.15 M68.95 71.35 Q69.1 67.65 67.75 65.25 67.1 64.1 64.3 61.15 58.3 54.8 56.2 35.7 59.65 78.05 61.4 76.15 67.3 84.8 68.05 80.95 68.65 77.75 68.95 71.35" fill="url(#decoration44-gradient1)" fill-rule="evenodd" stroke="none"/>
    </g>
    <linearGradient gradientTransform="matrix(0.0036, 0.0669, -0.0761, 0.0072, 41.35, 57.95)" gradientUnits="userSpaceOnUse" id="decoration44-gradient1" spreadMethod="pad" x1="-819.2" x2="819.2">
      <stop offset="0.0" stop-color="#bb1400" stop-opacity="0.52156866"/>
      <stop offset="1.0" stop-color="#f04f00"/>
    </linearGradient>
    <g id="decoration44-sprite1" transform="matrix(1.0, 0.0, 0.0, 1.0, -0.3, -9.1)">
      <use height="148.9" transform="matrix(1.0, 0.0, 0.0, 1.0, 0.3, 9.1)" width="101.1" xlink:href="#decoration44-shape2"/>
    </g>
    <g id="decoration44-shape2" transform="matrix(1.0, 0.0, 0.0, 1.0, -0.3, -9.1)">
      <path d="M19.85 82.2 Q19.85 83.4 18.85 84.9 L15.9 88.65 16.95 83.2 16.0 67.7 19.85 82.2 M10.25 69.45 L10.75 63.9 Q12.15 65.65 13.5 69.25 14.7 72.6 14.7 74.0 14.7 76.6 13.3 81.25 10.7 77.2 10.15 75.75 9.8 74.95 9.8 73.5 L10.25 69.45 M37.65 38.55 L34.75 44.95 Q32.1 52.9 32.1 63.95 L32.5 69.0 Q30.8 65.0 29.5 60.85 28.55 57.7 28.55 57.3 28.55 55.6 30.4 52.35 34.4 45.3 37.65 38.55 M50.85 45.7 L52.4 40.15 Q51.45 44.1 51.45 46.25 51.45 48.15 52.2 49.55 53.1 51.2 54.55 51.2 58.65 47.1 58.65 40.85 58.65 37.7 58.05 35.4 57.3 32.35 54.75 26.9 L59.9 35.45 Q60.85 37.5 60.85 43.0 L59.9 55.6 Q59.9 57.0 60.6 57.9 L61.5 58.75 63.45 56.15 Q65.65 52.8 66.75 49.35 L64.7 65.9 Q63.4 76.8 64.5 77.75 63.75 75.0 65.1 70.8 66.95 64.85 72.35 62.4 69.8 66.55 68.95 71.3 68.5 73.75 68.6 75.4 68.6 79.6 70.1 82.5 71.55 85.45 71.55 86.6 L71.0 92.3 79.15 79.8 Q84.7 69.95 88.2 58.4 L74.8 105.9 86.75 97.8 Q84.65 101.9 81.45 106.85 79.25 110.15 79.25 111.15 79.25 113.2 79.95 118.55 80.7 123.95 81.1 124.75 L81.25 124.7 Q82.55 116.95 84.3 111.05 87.65 99.7 93.25 97.95 92.75 99.75 91.0 110.1 91.0 114.6 93.55 121.75 96.1 128.9 96.1 132.1 96.1 140.3 87.2 147.7 74.8 158.0 50.8 158.0 29.45 158.0 18.85 147.1 11.15 139.2 4.9 118.8 L5.8 125.05 Q6.85 131.65 7.45 133.35 3.65 129.2 1.8 124.3 0.3 120.45 0.3 117.1 0.3 115.5 1.4 108.1 2.5 100.75 3.25 97.2 L9.5 105.3 Q7.9 102.65 6.3 96.3 5.35 92.45 5.05 86.45 L4.95 81.25 Q6.1 86.45 9.35 88.8 11.8 90.65 15.1 90.65 19.2 90.65 21.0 84.95 22.85 79.3 22.85 66.65 22.85 61.65 22.0 59.2 20.65 55.2 16.2 51.55 24.3 54.45 27.6 62.8 29.3 67.0 29.9 67.85 31.35 70.0 34.15 70.0 38.25 70.0 40.4 41.05 41.6 24.65 41.8 9.1 42.0 28.5 44.75 43.1 47.5 57.6 51.15 59.65 L49.25 52.6 Q49.25 51.45 50.85 45.7 M97.3 105.5 L99.55 94.85 Q99.95 97.3 100.8 100.25 101.4 102.2 101.4 104.25 101.4 106.8 100.0 109.1 L95.3 115.45 Q95.15 114.95 97.3 105.5" fill="url(#decoration44-gradient2)" fill-rule="evenodd" stroke="none"/>
    </g>
    <linearGradient gradientTransform="matrix(0.0086, -0.0816, 0.0979, 0.0103, 47.65, 92.85)" gradientUnits="userSpaceOnUse" id="decoration44-gradient2" spreadMethod="pad" x1="-819.2" x2="819.2">
      <stop offset="0.023529411764705882" stop-color="#f3781b" stop-opacity="0.2509804"/>
      <stop offset="1.0" stop-color="#f88f8e"/>
    </linearGradient>
    <g id="decoration44-shape3" transform="matrix(1.0, 0.0, 0.0, 1.0, 12.45, 105.2)">
      <path d="M-2.2 -102.45 Q-2.45 -102.8 -1.9 -102.9 L-1.75 -102.6 -2.2 -102.45 M-0.95 -104.35 L-1.15 -104.1 -1.3 -104.35 -0.95 -104.35 M0.8 -102.7 L0.95 -102.85 1.2 -103.0 1.45 -102.85 1.6 -102.7 1.45 -102.55 1.2 -102.4 0.95 -102.55 0.8 -102.7 M0.1 -105.2 L0.45 -105.2 0.45 -104.85 Q0.2 -104.7 -0.2 -104.85 L0.1 -105.2" fill="#ff9d51" fill-rule="evenodd" stroke="none"/>
      <path d="M-6.4 -97.45 L-6.55 -97.65 -6.25 -97.65 -6.4 -97.45 M-7.3 -96.35 L-7.0 -96.25 -7.0 -96.15 -7.5 -96.15 -7.3 -96.35 M-5.1 -98.15 L-5.65 -98.2 -5.35 -98.3 -5.05 -98.25 -5.1 -98.15 M-0.3 -94.3 L-0.3 -94.0 -0.8 -94.0 -0.8 -94.2 -0.3 -94.3 M-1.95 -93.95 L-1.65 -93.95 -1.75 -93.9 -1.95 -93.95 M-3.1 -93.1 Q-3.25 -92.8 -3.55 -92.9 L-3.55 -93.05 -3.1 -93.1 M-4.05 -96.25 L-4.2 -96.1 -4.4 -95.95 -4.6 -96.1 -4.75 -96.25 -4.6 -96.4 -4.4 -96.55 -4.2 -96.4 -4.05 -96.25 M-2.0 -86.3 L-2.15 -86.15 -2.4 -86.0 -2.65 -86.15 -2.8 -86.3 -2.65 -86.5 -2.0 -86.3 M-1.55 -88.5 L-1.55 -88.05 -2.25 -88.05 -2.25 -88.5 -1.55 -88.5 M-5.05 -88.4 L-4.6 -88.4 -4.85 -88.2 -5.15 -88.25 -5.05 -88.4 M-2.6 -90.65 L-2.6 -90.2 -3.2 -90.2 -3.2 -90.65 -2.6 -90.65 M-4.15 -89.75 L-4.0 -89.75 -3.85 -89.65 -4.1 -89.6 -4.15 -89.75 M-1.15 -91.75 L-1.35 -91.85 -1.5 -92.0 -1.35 -92.15 -1.15 -92.25 -0.95 -92.15 -0.8 -92.0 -0.95 -91.85 Q-1.1 -91.75 -1.15 -91.75 M-6.4 -87.95 L-7.0 -87.9 -7.0 -88.25 -6.4 -88.25 -6.2 -88.1 -6.4 -87.95 M-0.8 -83.65 L-0.6 -83.45 -0.75 -83.2 -1.45 -83.7 -1.1 -83.8 -0.8 -83.65 M-3.25 -80.95 L-3.05 -81.15 -2.75 -81.3 -2.45 -81.15 -2.25 -80.95 -2.45 -80.75 Q-2.65 -80.6 -2.75 -80.6 -2.85 -80.6 -3.05 -80.75 L-3.25 -80.95 M-5.0 -82.9 L-4.85 -82.65 -5.0 -82.4 -5.7 -82.9 -5.35 -83.0 -5.0 -82.9 M-3.7 -82.95 L-3.7 -82.55 -4.1 -82.55 -4.1 -82.95 -3.7 -82.95 M-4.05 -85.6 L-3.85 -85.45 -4.2 -85.25 -4.05 -85.6 M-5.0 -85.45 L-4.8 -85.25 -5.2 -85.05 -5.65 -85.0 -5.8 -85.25 -5.6 -85.45 -5.3 -85.6 -5.0 -85.45 M-1.7 -82.9 L-1.95 -82.75 -2.2 -82.9 -2.35 -83.05 -2.2 -83.2 -1.95 -83.35 -1.65 -83.25 -1.55 -83.05 -1.7 -82.9 M-5.45 -83.55 Q-5.3 -83.75 -5.0 -83.75 L-5.25 -83.6 -5.45 -83.55 M-6.65 -78.9 L-6.9 -79.15 -6.4 -79.15 -6.65 -78.9 M-6.5 -81.1 L-6.5 -81.55 -5.85 -81.55 -5.85 -81.1 -6.5 -81.1 M-8.95 -81.05 L-9.4 -80.85 -9.65 -81.2 -9.0 -81.2 -8.95 -81.05 M-7.5 -80.05 L-7.65 -80.25 -7.5 -80.4 -7.25 -80.55 -7.0 -80.4 -6.85 -80.25 -7.5 -80.05 M-7.0 -76.35 L-7.0 -76.6 -6.55 -76.6 -7.0 -76.35 M-5.65 -75.85 L-5.35 -76.0 -5.05 -75.85 -4.9 -75.7 -5.65 -75.5 -5.8 -75.7 -5.65 -75.85 M-9.75 -76.65 L-9.55 -76.75 -9.35 -76.65 -9.2 -76.5 -9.3 -76.3 -9.55 -76.25 -9.75 -76.35 -9.9 -76.5 -9.75 -76.65 M-2.65 -80.1 L-2.5 -79.85 -2.65 -79.6 Q-2.85 -79.45 -2.95 -79.45 -3.05 -79.45 -3.25 -79.6 L-3.4 -79.85 -3.25 -80.1 -2.95 -80.25 -2.65 -80.1 M-9.65 -73.6 Q-9.4 -73.85 -8.6 -73.6 L-8.9 -73.25 -9.65 -73.35 -9.65 -73.6 M-4.9 -78.05 L-4.3 -78.25 -4.15 -77.95 -4.55 -77.75 -4.9 -78.05" fill="#ffff7a" fill-rule="evenodd" stroke="none"/>
      <path d="M-8.2 -87.05 L-8.5 -87.2 -8.2 -87.4 -8.05 -87.25 -8.2 -87.05 M-9.5 -85.45 L-9.05 -85.4 -9.55 -85.0 -9.8 -85.2 -9.5 -85.45 M-8.9 -84.65 L-8.6 -84.8 -8.25 -84.7 -8.6 -84.1 -8.9 -84.25 -9.05 -84.45 -8.9 -84.65 M-9.75 -83.0 L-9.7 -83.2 -9.5 -83.3 -9.35 -83.15 Q-9.4 -83.0 -9.75 -83.0" fill="#ffffff" fill-rule="evenodd" stroke="none"/>
      <path d="M0.1 -84.0 L-0.4 -84.0 -0.4 -84.25 0.1 -84.25 0.1 -84.0 M1.95 -83.8 L2.2 -83.4 1.45 -83.45 1.35 -83.85 1.95 -83.8 M3.55 -82.7 L3.55 -82.45 3.1 -82.45 3.1 -82.7 3.55 -82.7 M4.35 -80.65 L3.95 -80.75 3.7 -81.05 4.4 -80.8 4.35 -80.65 M3.35 -80.15 Q2.75 -80.15 2.5 -80.5 L3.45 -80.35 3.35 -80.15 M3.4 -79.25 L3.5 -79.35 3.8 -79.1 3.75 -79.0 3.4 -79.25 M2.85 -77.95 L3.1 -77.9 3.2 -77.75 3.1 -77.6 2.85 -77.55 2.6 -77.6 2.5 -77.75 2.6 -77.9 2.85 -77.95 M0.75 -77.4 L0.4 -77.3 0.05 -77.4 -0.1 -77.6 0.05 -77.8 0.4 -77.9 0.75 -77.8 0.9 -77.6 0.75 -77.4 M2.2 -74.05 L1.45 -74.2 2.15 -74.3 2.3 -74.2 2.2 -74.05 M0.25 -72.35 L0.65 -72.45 1.05 -72.35 1.2 -72.15 1.05 -71.95 0.65 -71.85 0.25 -71.95 0.1 -72.15 0.25 -72.35 M-3.0 -84.7 L-3.65 -84.55 -3.65 -84.7 -3.1 -84.85 -3.0 -84.7 M-3.55 -83.4 L-3.3 -83.5 -3.0 -83.4 -2.9 -83.2 -3.0 -83.0 -3.3 -82.9 -3.55 -83.0 -3.7 -83.2 -3.55 -83.4 M-4.4 -80.6 L-5.0 -80.75 -5.15 -80.95 -4.75 -80.95 -4.3 -80.75 -4.4 -80.6 M-1.6 -82.05 L-2.0 -82.15 -2.05 -82.25 -1.6 -82.15 -1.6 -82.05 M-0.45 -81.45 L-0.8 -81.55 -0.95 -81.75 -0.8 -81.95 -0.45 -82.05 -0.1 -81.95 0.05 -81.75 -0.1 -81.55 Q-0.25 -81.45 -0.45 -81.45 M-1.2 -80.65 Q-0.75 -80.6 -0.65 -80.35 L-0.75 -80.2 -1.35 -80.35 -1.4 -80.6 -1.2 -80.65 M-5.55 -81.05 L-5.95 -81.15 -6.1 -81.35 -5.95 -81.55 -5.55 -81.65 -5.15 -81.55 -5.0 -81.35 -5.15 -81.15 -5.55 -81.05 M-0.55 -79.7 L-0.55 -79.55 -1.15 -79.55 -1.6 -79.95 -1.05 -79.95 -0.55 -79.7 M-2.5 -80.1 L-2.9 -80.15 -3.0 -80.25 -2.5 -80.35 -2.5 -80.1 M-1.0 -78.7 L-0.2 -78.55 -0.65 -78.4 -1.0 -78.7 M-4.75 -79.25 L-4.35 -79.35 -3.95 -79.25 -3.8 -79.05 -3.95 -78.85 -4.35 -78.75 -4.75 -78.85 -4.9 -79.05 -4.75 -79.25 M-3.9 -78.2 L-4.05 -78.0 -4.45 -77.9 -4.85 -78.0 -5.0 -78.2 -4.85 -78.4 -4.45 -78.5 -4.05 -78.4 -3.9 -78.2 M-2.95 -76.6 L-2.85 -76.45 Q-3.1 -76.2 -3.55 -76.45 L-3.45 -76.75 -2.95 -76.6 M-2.95 -74.85 L-2.5 -74.5 -2.5 -74.35 Q-2.9 -74.3 -3.35 -74.65 L-2.95 -74.85 M-0.35 -76.85 L-0.35 -76.75 -0.9 -76.75 -0.9 -76.85 -0.35 -76.85 M-1.3 -74.95 L-0.95 -74.8 -0.95 -74.65 Q-1.25 -74.65 -1.35 -74.85 L-1.3 -74.95" fill="#ffffe0" fill-rule="evenodd" stroke="none"/>
      <path d="M3.2 -68.9 L3.05 -61.0 1.25 -60.9 1.2 -60.9 0.75 -64.2 -0.05 -68.55 3.2 -68.9 M-2.95 -61.75 L-3.0 -64.55 -3.1 -68.85 -0.05 -68.55 0.75 -64.2 1.2 -60.9 -1.45 -61.2 -2.95 -61.75 M-1.45 -61.2 Q-2.0 -62.95 -3.0 -64.55 -2.0 -62.95 -1.45 -61.2" fill="#201608" fill-rule="evenodd" stroke="none"/>
      <path d="M3.05 -61.0 L2.5 -32.55 Q1.55 -34.4 1.1 -36.05 0.6 -37.9 0.6 -41.25 0.6 -44.35 0.95 -49.4 L1.25 -58.6 1.2 -60.9 1.25 -60.9 3.05 -61.0 M2.45 -29.6 L2.25 -18.55 1.3 -20.3 Q0.35 -22.45 0.35 -23.9 0.35 -25.25 1.4 -27.3 L2.45 -29.6 M1.95 -2.5 L1.9 0.05 -1.75 0.05 -2.35 -30.8 Q-1.3 -28.4 -0.95 -25.7 -0.65 -20.4 -0.05 -17.65 0.3 -15.85 0.0 -13.15 L-0.3 -8.65 Q-0.15 -5.65 1.95 -2.5 M-2.65 -47.85 L-2.95 -61.75 -1.45 -61.2 Q-0.85 -59.3 -0.85 -57.2 -0.85 -54.7 -1.4 -52.95 L-2.65 -47.85" fill="url(#decoration44-gradient3)" fill-rule="evenodd" stroke="none"/>
      <path d="M-3.1 -68.85 Q-5.45 -69.35 -12.45 -73.65 -1.3 -69.75 11.65 -73.55 9.7 -71.65 6.8 -70.25 4.15 -68.95 3.2 -68.9 L-0.05 -68.55 -3.1 -68.85" fill="#191612" fill-rule="evenodd" stroke="none"/>
      <path d="M2.5 -32.55 L2.45 -29.6 1.4 -27.3 Q0.35 -25.25 0.35 -23.9 0.35 -22.45 1.3 -20.3 L2.25 -18.55 1.95 -2.5 Q-0.15 -5.65 -0.3 -8.65 L0.0 -13.15 Q0.3 -15.85 -0.05 -17.65 -0.65 -20.4 -0.95 -25.7 -1.3 -28.4 -2.35 -30.8 L-2.65 -47.85 -1.4 -52.95 Q-0.85 -54.7 -0.85 -57.2 -0.85 -59.3 -1.45 -61.2 L1.2 -60.9 1.25 -58.6 0.95 -49.4 Q0.6 -44.35 0.6 -41.25 0.6 -37.9 1.1 -36.05 1.55 -34.4 2.5 -32.55" fill="url(#decoration44-gradient4)" fill-rule="evenodd" stroke="none"/>
      <path d="M2.5 -32.55 L2.45 -29.6 2.25 -18.55 1.95 -2.5 1.9 0.05 -1.75 0.05 -2.35 -30.8 -2.65 -47.85 -2.95 -61.75 -3.0 -64.55 -3.1 -68.85 -0.05 -68.55 M1.2 -60.9 L0.75 -64.2 -0.05 -68.55 M1.2 -60.9 L1.25 -58.6 0.95 -49.4 Q0.6 -44.35 0.6 -41.25 0.6 -37.9 1.1 -36.05 1.55 -34.4 2.5 -32.55 M2.45 -29.6 L1.4 -27.3 Q0.35 -25.25 0.35 -23.9 0.35 -22.45 1.3 -20.3 L2.25 -18.55 M-3.0 -64.55 Q-2.0 -62.95 -1.45 -61.2 M-2.65 -47.85 L-1.4 -52.95 Q-0.85 -54.7 -0.85 -57.2 -0.85 -59.3 -1.45 -61.2 M1.95 -2.5 Q-0.15 -5.65 -0.3 -8.65 L0.0 -13.15 Q0.3 -15.85 -0.05 -17.65 -0.65 -20.4 -0.95 -25.7 -1.3 -28.4 -2.35 -30.8" fill="none" stroke="#000000" stroke-linecap="round" stroke-linejoin="round" stroke-opacity="0.3019608" stroke-width="0.30000000000000004"/>
    </g>
    <linearGradient gradientTransform="matrix(0.0, 0.0238, -0.0377, 0.0, -1.6, -45.4)" gradientUnits="userSpaceOnUse" id="decoration44-gradient3" spreadMethod="pad" x1="-819.2" x2="819.2">
      <stop offset="0.0196078431372549" stop-color="#855311"/>
      <stop offset="1.0" stop-color="#3a2202"/>
    </linearGradient>
    <linearGradient gradientTransform="matrix(0.0, 0.0339, -0.0358, 0.0, -0.85, -44.55)" gradientUnits="userSpaceOnUse" id="decoration44-gradient4" spreadMethod="pad" x1="-819.2" x2="819.2">
      <stop offset="0.0" stop-color="#986219"/>
      <stop offset="1.0" stop-color="#412a0c"/>
    </linearGradient>
  </defs>
</svg>
