<?xml version="1.0" encoding="UTF-8" standalone="no"?>
<svg xmlns:xlink="http://www.w3.org/1999/xlink" height="120.7px" width="65.75px" xmlns="http://www.w3.org/2000/svg">
  <g transform="matrix(1.0, 0.0, 0.0, 1.0, 33.75, 120.05)">
    <use height="70.65" transform="matrix(1.0, 0.0, 0.0, 1.0, -33.75, -120.05)" width="65.75" xlink:href="#decoration46-shape0"/>
    <use height="145.35" transform="matrix(0.2828, 0.0, 0.0, 0.3391, -14.8, -115.35)" width="99.45" xlink:href="#decoration46-sprite0"/>
    <use height="148.9" transform="matrix(-0.2814, 0.0, 0.0144, 0.2702, 10.5467, -106.6912)" width="101.1" xlink:href="#decoration46-sprite1"/>
    <use height="148.9" transform="matrix(0.2375, 0.0, 0.0, 0.2504, -12.3287, -102.2717)" width="101.1" xlink:href="#decoration46-sprite1"/>
    <use height="148.9" transform="matrix(-0.1855, 0.0, 0.0072, 0.1908, 6.9096, -94.5633)" width="101.1" xlink:href="#decoration46-sprite1"/>
    <use height="99.65" transform="matrix(1.0, 0.0, 0.0, 1.0, -22.2, -99.0)" width="42.45" xlink:href="#decoration46-shape3"/>
    <use height="116.85" transform="matrix(0.2286, 0.0, 0.0, 0.0858, -26.2056, -74.4542)" width="220.6" xlink:href="#decoration46-sprite2"/>
  </g>
  <defs>
    <g id="decoration46-shape0" transform="matrix(1.0, 0.0, 0.0, 1.0, 33.75, 120.05)">
      <path d="M22.4 -59.75 Q12.75 -49.4 -0.9 -49.4 -14.5 -49.4 -24.15 -59.75 -33.75 -70.1 -33.75 -84.75 -33.75 -99.35 -24.15 -109.7 -14.5 -120.05 -0.9 -120.05 12.75 -120.05 22.4 -109.7 32.0 -99.35 32.0 -84.75 32.0 -70.1 22.4 -59.75" fill="url(#decoration46-gradient0)" fill-rule="evenodd" stroke="none"/>
    </g>
    <radialGradient cx="0" cy="0" gradientTransform="matrix(0.0382, 0.0, 0.0, 0.0427, -0.9, -84.75)" gradientUnits="userSpaceOnUse" id="decoration46-gradient0" r="819.2" spreadMethod="pad">
      <stop offset="0.0" stop-color="#fffdf5" stop-opacity="0.8784314"/>
      <stop offset="0.14901960784313725" stop-color="#ffd202" stop-opacity="0.7019608"/>
      <stop offset="0.39215686274509803" stop-color="#f79331" stop-opacity="0.5411765"/>
      <stop offset="0.615686274509804" stop-color="#fcc86f" stop-opacity="0.14117648"/>
      <stop offset="1.0" stop-color="#ffdd87" stop-opacity="0.0"/>
    </radialGradient>
    <g id="decoration46-sprite0" transform="matrix(1.0, 0.0, 0.0, 1.0, 0.0, 0.0)">
      <use height="145.35" transform="matrix(1.0, 0.0, 0.0, 1.0, 0.0, 0.0)" width="99.45" xlink:href="#decoration46-shape1"/>
    </g>
    <g id="decoration46-shape1" transform="matrix(1.0, 0.0, 0.0, 1.0, 0.0, 0.0)">
      <path d="M76.95 49.4 Q81.25 57.95 82.55 66.75 81.0 63.25 76.65 60.55 77.45 73.25 74.25 90.2 77.75 80.65 92.2 72.0 81.15 87.2 78.8 98.9 83.05 89.75 90.1 83.1 85.3 92.3 87.15 100.6 88.5 107.85 87.0 113.25 91.35 101.25 99.45 95.0 95.05 104.45 97.1 112.5 92.8 135.55 71.85 144.75 L52.25 145.35 37.1 143.1 22.8 140.2 Q10.55 134.9 4.5 125.3 3.45 123.6 2.15 118.75 1.0 114.35 1.1 114.05 0.75 110.05 1.6 105.35 2.7 99.8 0.0 93.95 5.55 100.2 7.15 107.8 6.8 97.95 11.05 86.95 L12.4 99.2 Q14.15 84.95 22.65 69.65 19.7 83.1 20.2 90.75 25.5 84.35 28.2 74.2 27.0 74.85 25.85 76.05 25.45 76.5 27.9 68.75 L30.5 60.2 Q31.75 66.75 31.95 72.95 44.3 48.7 36.35 21.0 45.85 30.4 47.9 45.1 45.65 21.3 62.7 0.0 46.2 35.15 68.0 58.35 77.35 60.65 68.2 35.45 73.8 43.0 76.95 49.4 M35.6 39.15 L35.8 47.0 Q35.8 50.85 34.2 53.05 L32.85 55.25 32.85 55.15 Q32.85 54.35 32.25 52.95 31.65 51.6 31.65 49.1 31.65 47.45 33.15 44.15 L35.6 39.15 M68.95 71.35 Q69.1 67.65 67.75 65.25 67.1 64.1 64.3 61.15 58.3 54.8 56.2 35.7 59.65 78.05 61.4 76.15 67.3 84.8 68.05 80.95 68.65 77.75 68.95 71.35" fill="url(#decoration46-gradient1)" fill-rule="evenodd" stroke="none"/>
    </g>
    <linearGradient gradientTransform="matrix(0.0036, 0.0669, -0.0761, 0.0072, 41.35, 57.95)" gradientUnits="userSpaceOnUse" id="decoration46-gradient1" spreadMethod="pad" x1="-819.2" x2="819.2">
      <stop offset="0.0" stop-color="#bb1400" stop-opacity="0.52156866"/>
      <stop offset="1.0" stop-color="#f04f00"/>
    </linearGradient>
    <g id="decoration46-sprite1" transform="matrix(1.0, 0.0, 0.0, 1.0, -0.3, -9.1)">
      <use height="148.9" transform="matrix(1.0, 0.0, 0.0, 1.0, 0.3, 9.1)" width="101.1" xlink:href="#decoration46-shape2"/>
    </g>
    <g id="decoration46-shape2" transform="matrix(1.0, 0.0, 0.0, 1.0, -0.3, -9.1)">
      <path d="M19.85 82.2 Q19.85 83.4 18.85 84.9 L15.9 88.65 16.95 83.2 16.0 67.7 19.85 82.2 M10.25 69.45 L10.75 63.9 Q12.15 65.65 13.5 69.25 14.7 72.6 14.7 74.0 14.7 76.6 13.3 81.25 10.7 77.2 10.15 75.75 9.8 74.95 9.8 73.5 L10.25 69.45 M37.65 38.55 L34.75 44.95 Q32.1 52.9 32.1 63.95 L32.5 69.0 Q30.8 65.0 29.5 60.85 28.55 57.7 28.55 57.3 28.55 55.6 30.4 52.35 34.4 45.3 37.65 38.55 M50.85 45.7 L52.4 40.15 Q51.45 44.1 51.45 46.25 51.45 48.15 52.2 49.55 53.1 51.2 54.55 51.2 58.65 47.1 58.65 40.85 58.65 37.7 58.05 35.4 57.3 32.35 54.75 26.9 L59.9 35.45 Q60.85 37.5 60.85 43.0 L59.9 55.6 Q59.9 57.0 60.6 57.9 L61.5 58.75 63.45 56.15 Q65.65 52.8 66.75 49.35 L64.7 65.9 Q63.4 76.8 64.5 77.75 63.75 75.0 65.1 70.8 66.95 64.85 72.35 62.4 69.8 66.55 68.95 71.3 68.5 73.75 68.6 75.4 68.6 79.6 70.1 82.5 71.55 85.45 71.55 86.6 L71.0 92.3 79.15 79.8 Q84.7 69.95 88.2 58.4 L74.8 105.9 86.75 97.8 Q84.65 101.9 81.45 106.85 79.25 110.15 79.25 111.15 79.25 113.2 79.95 118.55 80.7 123.95 81.1 124.75 L81.25 124.7 Q82.55 116.95 84.3 111.05 87.65 99.7 93.25 97.95 92.75 99.75 91.0 110.1 91.0 114.6 93.55 121.75 96.1 128.9 96.1 132.1 96.1 140.3 87.2 147.7 74.8 158.0 50.8 158.0 29.45 158.0 18.85 147.1 11.15 139.2 4.9 118.8 L5.8 125.05 Q6.85 131.65 7.45 133.35 3.65 129.2 1.8 124.3 0.3 120.45 0.3 117.1 0.3 115.5 1.4 108.1 2.5 100.75 3.25 97.2 L9.5 105.3 Q7.9 102.65 6.3 96.3 5.35 92.45 5.05 86.45 L4.95 81.25 Q6.1 86.45 9.35 88.8 11.8 90.65 15.1 90.65 19.2 90.65 21.0 84.95 22.85 79.3 22.85 66.65 22.85 61.65 22.0 59.2 20.65 55.2 16.2 51.55 24.3 54.45 27.6 62.8 29.3 67.0 29.9 67.85 31.35 70.0 34.15 70.0 38.25 70.0 40.4 41.05 41.6 24.65 41.8 9.1 42.0 28.5 44.75 43.1 47.5 57.6 51.15 59.65 L49.25 52.6 Q49.25 51.45 50.85 45.7 M97.3 105.5 L99.55 94.85 Q99.95 97.3 100.8 100.25 101.4 102.2 101.4 104.25 101.4 106.8 100.0 109.1 L95.3 115.45 Q95.15 114.95 97.3 105.5" fill="url(#decoration46-gradient2)" fill-rule="evenodd" stroke="none"/>
    </g>
    <linearGradient gradientTransform="matrix(0.0086, -0.0816, 0.0979, 0.0103, 47.65, 92.85)" gradientUnits="userSpaceOnUse" id="decoration46-gradient2" spreadMethod="pad" x1="-819.2" x2="819.2">
      <stop offset="0.023529411764705882" stop-color="#f3781b" stop-opacity="0.2509804"/>
      <stop offset="1.0" stop-color="#f88f8e"/>
    </linearGradient>
    <g id="decoration46-shape3" transform="matrix(1.0, 0.0, 0.0, 1.0, 22.2, 99.0)">
      <path d="M0.15 -98.95 L0.3 -98.85 0.3 -98.6 0.05 -98.5 -0.2 -98.6 -0.3 -98.6 -0.3 -98.85 0.0 -98.95 0.15 -98.95 M1.2 -96.8 L1.35 -96.65 1.35 -96.45 1.05 -96.35 0.8 -96.3 0.6 -96.5 0.7 -96.75 0.9 -96.8 1.2 -96.8 M-1.25 -97.95 L-1.3 -97.95 -1.4 -98.0 -1.4 -98.1 -1.3 -98.15 -1.1 -98.1 -1.05 -98.1 -1.05 -97.95 -1.25 -97.95 M-2.05 -96.35 L-2.25 -96.35 -2.4 -96.5 -2.35 -96.65 -2.2 -96.75 -2.0 -96.8 -1.9 -96.65 -1.85 -96.5 -2.05 -96.35" fill="#ff9d51" fill-rule="evenodd" stroke="none"/>
      <path d="M-5.55 -92.3 L-5.45 -92.45 -5.3 -92.5 -5.05 -92.45 -4.95 -92.35 -5.0 -92.25 -5.2 -92.15 -5.4 -92.15 -5.55 -92.3 M-6.1 -91.8 L-6.2 -91.65 -6.3 -91.65 -6.4 -91.65 -6.4 -91.7 -6.3 -91.8 -6.15 -91.8 -6.1 -91.8 M-7.2 -90.5 L-7.05 -90.6 -6.9 -90.6 -6.75 -90.5 -6.8 -90.35 -7.0 -90.3 -7.2 -90.3 -7.3 -90.35 -7.2 -90.5 M-4.0 -90.6 L-4.05 -90.35 Q-4.1 -90.3 -4.25 -90.2 L-4.5 -90.2 -4.65 -90.35 -4.6 -90.55 -4.35 -90.65 -4.15 -90.65 -4.0 -90.6 M-3.1 -87.45 L-3.15 -87.3 Q-3.25 -87.2 -3.4 -87.2 L-3.55 -87.25 -3.55 -87.4 -3.4 -87.5 -3.25 -87.45 -3.1 -87.45 M-0.6 -88.35 L-0.75 -88.3 -0.9 -88.35 -0.9 -88.5 -0.75 -88.6 -0.6 -88.65 -0.45 -88.6 -0.45 -88.5 Q-0.45 -88.35 -0.6 -88.35 M-1.8 -88.2 L-1.9 -88.2 -2.05 -88.25 -1.95 -88.35 -1.8 -88.35 -1.75 -88.25 -1.8 -88.2 M-0.95 -86.4 L-1.15 -86.25 -1.35 -86.2 -1.5 -86.3 -1.6 -86.45 -1.4 -86.6 -1.2 -86.65 -1.0 -86.55 -0.95 -86.4 M-2.75 -85.1 L-2.65 -85.05 -2.6 -84.85 -2.8 -84.75 -3.05 -84.7 -3.15 -84.85 -3.15 -85.0 -3.0 -85.1 -2.75 -85.1 M-3.85 -84.2 L-3.95 -84.15 -4.05 -84.15 -4.15 -84.2 -4.1 -84.3 -4.05 -84.35 -3.9 -84.35 -3.85 -84.3 -3.85 -84.2 M-4.5 -83.0 L-4.6 -82.85 -4.75 -82.75 -4.9 -82.75 -5.05 -82.85 -4.95 -83.0 -4.85 -83.1 -4.65 -83.05 -4.5 -83.0 M-2.85 -80.9 L-2.8 -81.15 -2.55 -81.3 -2.25 -81.3 -2.1 -81.15 -2.2 -80.9 -2.4 -80.75 -2.7 -80.75 -2.85 -80.9 M-1.65 -82.95 L-1.65 -82.8 Q-1.75 -82.7 -1.85 -82.7 L-2.15 -82.7 -2.25 -82.75 -2.25 -83.0 -2.05 -83.1 -1.75 -83.1 -1.65 -82.95 M-6.8 -82.85 L-6.55 -83.0 -6.3 -83.0 -6.1 -82.85 Q-6.05 -82.7 -6.15 -82.65 -6.25 -82.5 -6.4 -82.5 L-6.7 -82.45 -6.8 -82.55 -6.8 -82.85 M-5.45 -79.7 L-5.65 -79.95 -5.6 -80.15 -5.35 -80.3 -4.95 -80.3 -4.75 -80.15 -4.85 -79.85 Q-4.9 -79.7 -5.1 -79.7 L-5.45 -79.7 M-5.35 -78.4 L-5.2 -78.6 -4.9 -78.6 -4.8 -78.45 Q-4.75 -78.35 -4.85 -78.2 L-5.05 -78.15 -5.25 -78.05 -5.45 -78.2 -5.35 -78.4 M-5.2 -77.9 L-4.9 -77.85 -4.8 -77.6 -4.95 -77.4 Q-5.05 -77.25 -5.25 -77.25 L-5.65 -77.3 -5.7 -77.55 -5.6 -77.8 -5.2 -77.9 M-8.7 -76.15 L-8.75 -75.95 Q-8.85 -75.85 -9.0 -75.85 L-9.2 -75.95 -9.3 -76.1 -9.3 -76.15 -8.7 -76.15 M-5.7 -76.4 L-5.65 -76.3 -5.9 -76.1 -6.1 -76.05 -6.3 -76.2 -6.3 -76.35 -6.1 -76.45 -5.85 -76.55 -5.7 -76.4 M-7.05 -75.55 L-6.75 -75.5 -6.65 -75.3 -6.75 -75.15 Q-6.9 -75.0 -7.05 -75.0 L-7.35 -75.1 -7.45 -75.3 -7.35 -75.5 -7.05 -75.55 M-1.6 -78.45 L-1.3 -78.6 -0.95 -78.6 -0.75 -78.45 -0.75 -78.15 -1.15 -78.0 -1.45 -78.0 -1.65 -78.2 -1.6 -78.45 M-1.9 -78.2 L-1.65 -78.1 -1.65 -77.85 -1.8 -77.7 -2.1 -77.65 -2.3 -77.75 -2.4 -78.0 -2.2 -78.15 -1.9 -78.2 M-3.8 -80.25 Q-3.75 -80.15 -3.85 -80.1 L-3.9 -80.1 -4.15 -80.1 -4.2 -80.15 -4.15 -80.25 -4.0 -80.3 -3.9 -80.3 -3.8 -80.25 M-4.05 -77.6 L-4.0 -77.7 -3.95 -77.85 -3.75 -77.8 -3.6 -77.7 -3.6 -77.6 -3.7 -77.55 -3.9 -77.45 -4.05 -77.6 M-3.15 -76.15 L-2.8 -76.25 -2.45 -76.15 -2.35 -75.95 -2.5 -75.7 -2.85 -75.6 -3.15 -75.65 -3.25 -75.85 -3.15 -76.15 M-2.55 -75.05 L-2.5 -74.85 -2.7 -74.6 -3.05 -74.55 -3.3 -74.7 -3.4 -74.9 -3.15 -75.1 -2.8 -75.2 -2.55 -75.05 M-4.65 -73.35 L-4.45 -73.4 -4.2 -73.4 -4.15 -73.25 -4.25 -73.0 -4.45 -72.9 Q-4.6 -72.9 -4.65 -73.0 L-4.8 -73.15 -4.65 -73.35 M-4.9 -70.95 L-5.1 -70.7 -5.4 -70.65 -5.65 -70.8 -5.65 -71.0 -5.4 -71.2 -5.15 -71.25 -4.9 -71.15 -4.9 -70.95 M-6.25 -74.1 L-6.4 -74.05 -6.55 -74.0 -6.6 -74.0 Q-6.75 -74.0 -6.7 -74.15 L-6.6 -74.2 -6.5 -74.25 -6.3 -74.25 -6.25 -74.1 M-6.4 -71.65 L-6.55 -71.55 -6.65 -71.5 -6.75 -71.55 -6.75 -71.7 -6.7 -71.85 -6.55 -71.85 -6.45 -71.75 -6.4 -71.65 M-9.55 -71.7 L-9.4 -71.9 -9.15 -71.95 -8.95 -71.8 -8.9 -71.6 -9.1 -71.5 -9.3 -71.45 -9.55 -71.55 -9.55 -71.7 M-8.4 -69.15 L-8.4 -68.85 -8.65 -68.6 -9.0 -68.6 -9.3 -68.7 -9.3 -69.0 -9.1 -69.2 -8.75 -69.25 -8.4 -69.15" fill="#ffff7a" fill-rule="evenodd" stroke="none"/>
      <path d="M-7.9 -82.05 L-7.8 -81.95 -7.85 -81.85 -7.95 -81.75 -8.15 -81.8 -8.25 -81.9 -8.2 -81.9 -8.05 -82.05 -7.9 -82.05 M-6.8 -82.55 L-6.9 -82.65 -6.85 -82.85 -6.8 -82.85 -6.8 -82.55 M-8.8 -79.95 L-9.05 -79.85 -9.25 -79.8 -9.45 -80.0 -9.4 -80.15 -9.2 -80.3 -8.95 -80.3 -8.75 -80.15 Q-8.7 -80.1 -8.8 -79.95 M-8.35 -79.55 L-8.1 -79.45 -7.95 -79.3 -8.15 -79.05 -8.45 -78.95 -8.7 -79.05 -8.75 -79.2 -8.65 -79.4 -8.35 -79.55 M-9.05 -78.0 L-9.05 -77.9 -9.25 -77.85 -9.4 -77.85 -9.4 -78.0 -9.4 -78.05 -9.15 -78.15 -9.1 -78.15 -9.05 -78.0 M-9.3 -76.15 L-9.25 -76.3 -8.95 -76.35 -8.7 -76.3 -8.7 -76.15 -9.3 -76.15" fill="#ffffff" fill-rule="evenodd" stroke="none"/>
      <path d="M10.75 -65.35 Q12.95 -64.7 14.1 -64.7 L15.2 -64.75 14.5 -62.75 13.65 -63.25 9.6 -63.8 -0.7 -64.5 -0.7 -62.05 -2.5 -61.75 -2.65 -62.65 Q-3.05 -63.75 -4.1 -64.6 L-11.1 -64.0 Q-14.15 -64.6 -15.0 -63.7 L-16.3 -64.75 -14.4 -64.75 -14.15 -66.05 Q-12.9 -65.15 -7.25 -65.1 L-1.05 -65.55 2.75 -64.85 5.45 -64.7 8.25 -64.6 9.05 -64.65 Q10.0 -64.85 10.75 -65.35" fill="#2e281c" fill-rule="evenodd" stroke="none"/>
      <path d="M14.1 -64.7 Q12.95 -64.7 10.75 -65.35 L10.25 -69.2 10.05 -70.4 13.7 -70.8 16.65 -68.65 15.35 -66.65 16.65 -68.65 13.7 -70.8 19.75 -71.3 20.0 -65.05 17.25 -64.9 15.35 -66.65 14.1 -64.7 M8.25 -64.6 L5.45 -64.7 2.45 -66.35 2.75 -64.85 -1.05 -65.55 -1.0 -67.55 2.45 -66.35 -1.0 -67.55 -1.0 -69.25 -5.05 -70.15 -2.8 -70.95 -5.05 -70.15 Q-6.7 -69.6 -9.3 -68.0 -11.55 -66.7 -14.15 -66.05 L-14.4 -64.75 -16.3 -64.75 -19.3 -64.7 -19.95 -66.15 -18.85 -67.45 Q-17.65 -69.2 -17.05 -71.2 -17.65 -69.2 -18.85 -67.45 L-19.95 -66.15 -21.45 -64.7 Q-23.55 -65.6 -17.05 -71.2 L-14.4 -71.0 Q-13.0 -71.3 -2.8 -70.95 -1.95 -70.85 -1.0 -69.5 -0.3 -70.1 4.2 -70.35 L8.5 -70.5 10.2 -67.7 9.25 -66.85 Q8.25 -65.8 8.25 -64.6 M-15.85 -57.05 L-15.85 -62.25 -11.7 -61.55 Q-6.45 -62.4 -3.75 -61.5 L-2.55 -60.75 -2.95 -54.75 -9.4 -54.75 -13.95 -58.05 -15.85 -57.05 M-1.0 -69.25 L-1.0 -69.5 -1.0 -69.25 M-14.4 -71.0 L-14.15 -66.05 -14.4 -71.0 M-13.95 -58.05 Q-11.9 -60.8 -11.7 -61.55 -11.9 -60.8 -13.95 -58.05" fill="#857d5e" fill-rule="evenodd" stroke="none"/>
      <path d="M-15.0 -63.7 Q-14.15 -64.6 -11.1 -64.0 L-4.1 -64.6 -4.35 -63.35 Q-4.45 -62.0 -3.75 -61.5 -6.45 -62.4 -11.7 -61.55 L-15.85 -62.25 Q-15.85 -62.85 -15.0 -63.7 M-0.7 -62.05 L-0.7 -64.5 9.6 -63.8 13.65 -63.25 14.5 -62.75 6.45 -61.9 3.15 -62.1 9.6 -63.8 3.15 -62.1 Q1.7 -62.45 -0.7 -62.05 M-11.1 -64.0 L-11.7 -61.55 -11.1 -64.0" fill="#695f3d" fill-rule="evenodd" stroke="none"/>
      <path d="M10.75 -65.35 Q10.0 -64.85 9.05 -64.65 L8.25 -64.6 Q8.25 -65.8 9.25 -66.85 L10.2 -67.7 8.5 -70.5 10.25 -69.2 10.75 -65.35 M5.45 -64.7 L2.75 -64.85 2.45 -66.35 5.45 -64.7 M-1.05 -65.55 L-7.25 -65.1 Q-12.9 -65.15 -14.15 -66.05 -11.55 -66.7 -9.3 -68.0 -6.7 -69.6 -5.05 -70.15 L-1.0 -69.25 -1.0 -67.55 -1.05 -65.55 M15.2 -64.75 L14.1 -64.7 15.35 -66.65 17.25 -64.9 15.2 -64.75 M13.65 -48.75 Q13.65 -46.6 13.3 -45.35 L12.9 -44.55 10.9 -45.6 13.65 -48.75 M14.1 -6.0 Q14.1 -2.6 13.35 -1.85 L11.35 -2.85 14.1 -6.0 M-13.9 -23.25 Q-14.7 -23.95 -14.7 -27.35 L-11.9 -24.2 -13.9 -23.25 M-0.7 -58.95 L1.65 -60.6 1.65 -53.7 0.5 -54.7 Q-0.7 -56.25 -0.7 -58.95 M2.1 -17.9 L2.1 -11.0 0.95 -12.0 Q-0.2 -13.55 -0.2 -16.25 L2.1 -17.9 M-19.95 -66.15 L-19.3 -64.7 -21.45 -64.7 -19.95 -66.15 M-0.35 -37.65 Q-0.35 -34.95 -1.5 -33.4 L-2.65 -32.4 -2.7 -39.25 -0.35 -37.65" fill="#776e4d" fill-rule="evenodd" stroke="none"/>
      <path d="M3.15 -62.1 L6.45 -61.9 14.5 -62.75 Q14.5 -58.1 14.05 -55.85 L13.55 -54.5 8.2 -53.85 3.75 -53.7 1.65 -53.7 1.65 -60.6 -0.7 -58.95 -0.7 -62.05 Q1.7 -62.45 3.15 -62.1 L1.65 -60.6 3.15 -62.1 M-14.05 -45.2 Q-14.3 -45.85 -14.0 -47.2 L-13.65 -49.1 Q-13.65 -50.1 -14.5 -52.35 L-13.8 -52.7 -3.4 -54.2 Q-2.5 -53.65 -1.75 -52.7 L-1.2 -51.8 -1.2 -44.3 -8.8 -43.4 -5.85 -47.5 Q-9.1 -45.3 -13.0 -44.0 -13.6 -44.15 -14.05 -45.2 M-3.4 -54.2 Q-4.95 -52.3 -5.55 -49.7 L-5.85 -47.5 -5.55 -49.7 Q-4.95 -52.3 -3.4 -54.2" fill="#8a8161" fill-rule="evenodd" stroke="none"/>
      <path d="M14.85 -35.7 Q14.85 -35.05 14.15 -34.5 L13.45 -34.05 Q12.0 -33.4 8.35 -33.4 L12.95 -36.75 14.85 -35.7 M-14.0 -12.65 Q-15.45 -13.3 -15.45 -14.35 L-13.5 -15.35 -8.9 -12.05 -14.0 -12.65 M-14.45 -55.35 Q-15.85 -56.0 -15.85 -57.05 L-13.95 -58.05 -9.4 -54.75 Q-13.0 -54.75 -14.45 -55.35 M3.5 -52.8 Q2.6 -51.6 1.1 -50.8 L-0.25 -50.25 -0.25 -52.9 3.5 -52.8 M1.55 -39.4 Q1.45 -41.0 2.25 -42.3 L3.05 -43.25 3.9 -41.0 1.55 -39.4 M4.85 -26.2 Q8.1 -23.95 12.0 -22.7 L7.8 -22.05 4.85 -26.2 M0.2 -7.55 L0.2 -10.2 4.0 -10.1 Q2.45 -8.15 0.2 -7.55 M-3.75 -61.5 L-2.5 -61.75 -2.55 -60.75 -3.75 -61.5 M-8.8 -43.4 L-13.0 -44.0 Q-9.1 -45.3 -5.85 -47.5 L-8.8 -43.4 M-4.55 -31.45 L-0.75 -31.55 -0.75 -28.95 -2.1 -29.5 Q-3.6 -30.25 -4.55 -31.45 M-2.1 -18.05 L-3.15 -19.15 Q-4.1 -20.5 -3.6 -21.9 L-2.75 -20.95 Q-1.95 -19.65 -2.1 -18.05 M-8.35 -0.7 L-12.55 -1.35 Q-8.65 -2.6 -5.4 -4.8 L-8.35 -0.7" fill="#6d6544" fill-rule="evenodd" stroke="none"/>
      <path d="M12.6 -52.2 L13.65 -52.15 13.65 -48.75 10.9 -45.6 9.15 -45.4 Q7.1 -44.95 5.7 -43.85 7.1 -44.95 9.15 -45.4 L10.9 -45.6 12.9 -44.55 Q12.35 -44.1 9.0 -43.95 L5.7 -43.85 -0.25 -43.85 -0.25 -50.25 1.1 -50.8 Q2.6 -51.6 3.5 -52.8 L12.6 -52.2" fill="#7c7558" fill-rule="evenodd" stroke="none"/>
      <path d="M-2.5 -61.75 L-0.7 -62.05 -0.7 -58.95 Q-0.7 -56.25 0.5 -54.7 L1.65 -53.7 3.75 -53.7 8.2 -53.85 13.55 -54.5 12.6 -52.2 3.5 -52.8 -0.25 -52.9 -0.25 -50.25 -0.25 -43.85 5.7 -43.85 9.0 -43.95 Q12.35 -44.1 12.9 -44.55 L13.8 -43.85 13.2 -43.2 10.1 -42.65 3.05 -43.25 2.25 -42.3 Q1.45 -41.0 1.55 -39.4 L1.95 -33.4 8.35 -33.4 Q12.0 -33.4 13.45 -34.05 L12.8 -31.35 2.35 -32.85 0.75 -31.35 0.2 -30.5 0.2 -22.95 7.8 -22.05 12.0 -22.7 Q12.6 -22.8 13.05 -23.9 13.25 -22.8 12.9 -21.85 L12.5 -21.1 10.05 -21.1 -0.2 -21.8 -0.2 -16.25 Q-0.2 -13.55 0.95 -12.0 L2.1 -11.0 14.05 -11.0 13.05 -9.5 4.0 -10.1 0.2 -10.2 0.2 -7.55 0.2 -1.15 6.15 -1.15 Q12.5 -1.15 13.35 -1.85 L14.3 -1.2 12.9 0.3 -13.0 0.4 Q-13.9 -0.8 -13.6 -2.55 -13.15 -1.4 -12.55 -1.35 L-8.35 -0.7 -0.75 -1.6 -0.75 -9.15 Q-1.5 -10.65 -2.95 -11.45 L-13.35 -10.0 -14.0 -12.65 -8.9 -12.05 -2.55 -12.05 -2.1 -18.05 Q-1.95 -19.65 -2.75 -20.95 L-3.6 -21.9 -10.65 -21.3 -13.95 -21.6 -14.85 -22.55 -13.9 -23.25 -12.7 -22.85 -6.75 -22.5 -6.7 -22.5 -0.75 -22.5 -0.75 -28.95 -0.75 -31.55 -4.55 -31.45 -13.6 -30.9 -14.55 -33.45 -13.0 -33.0 -4.8 -32.4 -2.65 -32.4 -1.5 -33.4 Q-0.35 -34.95 -0.35 -37.65 L-0.35 -43.2 -10.6 -42.45 -13.6 -42.45 Q-14.4 -43.45 -14.05 -45.2 -13.6 -44.15 -13.0 -44.0 L-8.8 -43.4 -1.2 -44.3 -1.2 -51.8 -1.75 -52.7 Q-2.5 -53.65 -3.4 -54.2 L-13.8 -52.7 -14.45 -55.35 Q-13.0 -54.75 -9.4 -54.75 L-2.95 -54.75 -2.55 -60.75 -2.5 -61.75" fill="url(#decoration46-gradient3)" fill-rule="evenodd" stroke="none"/>
      <path d="M13.2 -43.2 Q14.25 -42.15 14.65 -38.85 L14.85 -35.7 12.95 -36.75 Q10.9 -39.45 10.1 -42.65 10.9 -39.45 12.95 -36.75 L8.35 -33.4 1.95 -33.4 1.55 -39.4 3.9 -41.0 3.05 -43.25 10.1 -42.65 13.2 -43.2" fill="url(#decoration46-gradient4)" fill-rule="evenodd" stroke="none"/>
      <path d="M12.8 -31.35 Q13.2 -31.1 13.0 -29.8 L12.65 -27.8 13.05 -23.9 Q12.6 -22.8 12.0 -22.7 8.1 -23.95 4.85 -26.2 L7.8 -22.05 0.2 -22.95 0.2 -30.5 0.75 -31.35 2.35 -32.85 12.8 -31.35 M4.85 -26.2 Q4.85 -28.5 3.6 -30.9 L2.35 -32.85 3.6 -30.9 Q4.85 -28.5 4.85 -26.2" fill="url(#decoration46-gradient5)" fill-rule="evenodd" stroke="none"/>
      <path d="M12.5 -21.1 Q14.3 -21.1 15.0 -20.1 15.0 -12.65 14.05 -11.0 L2.1 -11.0 2.1 -17.9 3.65 -18.85 Q6.0 -20.05 10.05 -21.1 6.0 -20.05 3.65 -18.85 L2.1 -17.9 -0.2 -16.25 -0.2 -21.8 10.05 -21.1 12.5 -21.1" fill="url(#decoration46-gradient6)" fill-rule="evenodd" stroke="none"/>
      <path d="M13.05 -9.5 L14.1 -9.45 14.1 -6.0 11.35 -2.85 13.35 -1.85 Q12.5 -1.15 6.15 -1.15 L0.2 -1.15 0.2 -7.55 Q2.45 -8.15 4.0 -10.1 L13.05 -9.5 M6.15 -1.15 Q7.55 -2.2 9.6 -2.65 L11.35 -2.85 9.6 -2.65 Q7.55 -2.2 6.15 -1.15" fill="url(#decoration46-gradient7)" fill-rule="evenodd" stroke="none"/>
      <path d="M-4.1 -64.6 Q-3.05 -63.75 -2.65 -62.65 L-2.5 -61.75 -3.75 -61.5 Q-4.45 -62.0 -4.35 -63.35 L-4.1 -64.6" fill="#4f482a" fill-rule="evenodd" stroke="none"/>
      <path d="M-14.55 -33.45 Q-16.55 -33.4 -15.55 -41.45 -14.85 -42.45 -13.6 -42.45 L-10.6 -42.45 -0.35 -43.2 -0.35 -37.65 -2.7 -39.25 -2.65 -32.4 -4.8 -32.4 -13.0 -33.0 -14.55 -33.45 M-10.6 -42.45 Q-6.55 -41.4 -4.25 -40.25 L-2.7 -39.25 -4.25 -40.25 Q-6.55 -41.4 -10.6 -42.45" fill="url(#decoration46-gradient8)" fill-rule="evenodd" stroke="none"/>
      <path d="M-14.7 -27.35 L-13.6 -30.9 -4.55 -31.45 Q-3.6 -30.25 -2.1 -29.5 L-0.75 -28.95 -0.75 -22.5 -6.7 -22.5 -6.75 -22.5 -12.7 -22.85 -13.9 -23.25 -11.9 -24.2 -14.7 -27.35 M-6.75 -22.5 Q-8.1 -23.55 -10.15 -24.0 L-11.9 -24.2 -10.15 -24.0 Q-8.1 -23.55 -6.75 -22.5" fill="url(#decoration46-gradient9)" fill-rule="evenodd" stroke="none"/>
      <path d="M-15.45 -14.35 Q-15.45 -17.95 -14.7 -20.15 L-13.95 -21.6 -10.65 -21.3 -3.6 -21.9 Q-4.1 -20.5 -3.15 -19.15 L-2.1 -18.05 -2.55 -12.05 -8.9 -12.05 -13.5 -15.35 -15.45 -14.35 M-13.5 -15.35 Q-11.4 -18.1 -10.65 -21.3 -11.4 -18.1 -13.5 -15.35" fill="url(#decoration46-gradient10)" fill-rule="evenodd" stroke="none"/>
      <path d="M-13.6 -2.55 Q-13.85 -3.15 -13.55 -4.5 L-13.2 -6.45 -13.35 -10.0 -2.95 -11.45 Q-1.5 -10.65 -0.75 -9.15 L-0.75 -1.6 -8.35 -0.7 -5.4 -4.8 Q-8.65 -2.6 -12.55 -1.35 -13.15 -1.4 -13.6 -2.55 M-2.95 -11.45 Q-4.5 -9.6 -5.1 -7.0 L-5.4 -4.8 -5.1 -7.0 Q-4.5 -9.6 -2.95 -11.45" fill="url(#decoration46-gradient11)" fill-rule="evenodd" stroke="none"/>
      <path d="M14.1 -64.7 Q12.95 -64.7 10.75 -65.35 10.0 -64.85 9.05 -64.65 L8.25 -64.6 5.45 -64.7 2.75 -64.85 -1.05 -65.55 -7.25 -65.1 Q-12.9 -65.15 -14.15 -66.05 L-14.4 -64.75 -16.3 -64.75 -15.0 -63.7 Q-14.15 -64.6 -11.1 -64.0 L-4.1 -64.6 Q-3.05 -63.75 -2.65 -62.65 L-2.5 -61.75 -2.55 -60.75 -2.95 -54.75 -9.4 -54.75 Q-13.0 -54.75 -14.45 -55.35 -15.85 -56.0 -15.85 -57.05 L-15.85 -62.25 Q-15.85 -62.85 -15.0 -63.7 M-0.7 -62.05 L-0.7 -64.5 9.6 -63.8 13.65 -63.25 14.5 -62.75 15.2 -64.75 14.1 -64.7 M13.7 -70.8 L10.05 -70.4 10.25 -69.2 10.75 -65.35 M15.2 -64.75 L17.25 -64.9 20.0 -65.05 19.75 -71.3 13.7 -70.8 M-1.0 -67.55 L-1.05 -65.55 M14.5 -62.75 Q14.5 -58.1 14.05 -55.85 L13.55 -54.5 8.2 -53.85 3.75 -53.7 1.65 -53.7 0.5 -54.7 Q-0.7 -56.25 -0.7 -58.95 M12.6 -52.2 L13.65 -52.15 13.65 -48.75 Q13.65 -46.6 13.3 -45.35 L12.9 -44.55 Q12.35 -44.1 9.0 -43.95 L5.7 -43.85 M13.2 -43.2 Q14.25 -42.15 14.65 -38.85 L14.85 -35.7 Q14.85 -35.05 14.15 -34.5 L13.45 -34.05 M12.8 -31.35 Q13.2 -31.1 13.0 -29.8 L12.65 -27.8 13.05 -23.9 M12.5 -21.1 Q14.3 -21.1 15.0 -20.1 15.0 -12.65 14.05 -11.0 M13.05 -9.5 L14.1 -9.45 14.1 -6.0 Q14.1 -2.6 13.35 -1.85 M-13.6 -2.55 Q-13.85 -3.15 -13.55 -4.5 L-13.2 -6.45 -13.35 -10.0 -2.95 -11.45 Q-1.5 -10.65 -0.75 -9.15 L-0.75 -1.6 -8.35 -0.7 -12.55 -1.35 Q-13.15 -1.4 -13.6 -2.55 M-14.0 -12.65 Q-15.45 -13.3 -15.45 -14.35 -15.45 -17.95 -14.7 -20.15 L-13.95 -21.6 -10.65 -21.3 M-13.9 -23.25 Q-14.7 -23.95 -14.7 -27.35 L-13.6 -30.9 M-14.55 -33.45 Q-16.55 -33.4 -15.55 -41.45 -14.85 -42.45 -13.6 -42.45 L-10.6 -42.45 -0.35 -43.2 -0.35 -37.65 Q-0.35 -34.95 -1.5 -33.4 L-2.65 -32.4 -4.8 -32.4 -13.0 -33.0 -14.55 -33.45 M-14.05 -45.2 Q-14.3 -45.85 -14.0 -47.2 L-13.65 -49.1 Q-13.65 -50.1 -14.5 -52.35 L-13.8 -52.7 -3.4 -54.2 Q-2.5 -53.65 -1.75 -52.7 L-1.2 -51.8 -1.2 -44.3 -8.8 -43.4 -13.0 -44.0 Q-13.6 -44.15 -14.05 -45.2 M-0.7 -62.05 L-0.7 -58.95 M8.5 -70.5 L4.2 -70.35 Q-0.3 -70.1 -1.0 -69.5 L-1.0 -69.25 -1.0 -67.55 M3.5 -52.8 L-0.25 -52.9 -0.25 -50.25 -0.25 -43.85 5.7 -43.85 M10.25 -69.2 L8.5 -70.5 M12.6 -52.2 L3.5 -52.8 M3.05 -43.25 L2.25 -42.3 Q1.45 -41.0 1.55 -39.4 M3.05 -43.25 L10.1 -42.65 13.2 -43.2 M7.8 -22.05 L0.2 -22.95 0.2 -30.5 0.75 -31.35 2.35 -32.85 12.8 -31.35 M8.35 -33.4 L1.95 -33.4 1.55 -39.4 M12.0 -22.7 Q12.6 -22.8 13.05 -23.9 M8.35 -33.4 Q12.0 -33.4 13.45 -34.05 M2.1 -11.0 L14.05 -11.0 M2.1 -11.0 L0.95 -12.0 Q-0.2 -13.55 -0.2 -16.25 L-0.2 -21.8 10.05 -21.1 12.5 -21.1 M4.0 -10.1 L0.2 -10.2 0.2 -7.55 M4.0 -10.1 L13.05 -9.5 M6.15 -1.15 Q12.5 -1.15 13.35 -1.85 M6.15 -1.15 L0.2 -1.15 0.2 -7.55 M12.0 -22.7 L7.8 -22.05 M-14.15 -66.05 L-14.4 -71.0 -17.05 -71.2 Q-23.55 -65.6 -21.45 -64.7 L-19.3 -64.7 -16.3 -64.75 M-1.0 -69.5 Q-1.95 -70.85 -2.8 -70.95 -13.0 -71.3 -14.4 -71.0 M-4.55 -31.45 L-0.75 -31.55 -0.75 -28.95 -0.75 -22.5 -6.7 -22.5 M-6.75 -22.5 L-12.7 -22.85 -13.9 -23.25 M-4.55 -31.45 L-13.6 -30.9 M-3.6 -21.9 L-10.65 -21.3 M-8.9 -12.05 L-2.55 -12.05 -2.1 -18.05 Q-1.95 -19.65 -2.75 -20.95 L-3.6 -21.9 M-8.9 -12.05 L-14.0 -12.65" fill="none" stroke="#000000" stroke-linecap="round" stroke-linejoin="round" stroke-opacity="0.3019608" stroke-width="0.5"/>
      <path d="M14.1 -64.7 L15.35 -66.65 16.65 -68.65 13.7 -70.8 M17.25 -64.9 L15.35 -66.65 M2.75 -64.85 L2.45 -66.35 -1.0 -67.55 M8.5 -70.5 L10.2 -67.7 9.25 -66.85 Q8.25 -65.8 8.25 -64.6 M5.45 -64.7 L2.45 -66.35 M13.55 -54.5 L12.6 -52.2 M12.9 -44.55 L13.8 -43.85 13.2 -43.2 M13.45 -34.05 L12.8 -31.35 M13.05 -23.9 Q13.25 -22.8 12.9 -21.85 L12.5 -21.1 M14.05 -11.0 L13.05 -9.5 M13.35 -1.85 L14.3 -1.2 12.9 0.3 -13.0 0.4 Q-13.9 -0.8 -13.6 -2.55 M-13.35 -10.0 L-14.0 -12.65 M-13.95 -21.6 L-14.85 -22.55 -13.9 -23.25 -11.9 -24.2 -14.7 -27.35 M-13.6 -30.9 L-14.55 -33.45 M-13.6 -42.45 Q-14.4 -43.45 -14.05 -45.2 M-13.8 -52.7 L-14.45 -55.35 M9.6 -63.8 L3.15 -62.1 M-0.7 -58.95 L1.65 -60.6 3.15 -62.1 M1.65 -53.7 L1.65 -60.6 M-0.25 -50.25 L1.1 -50.8 Q2.6 -51.6 3.5 -52.8 M5.7 -43.85 Q7.1 -44.95 9.15 -45.4 L10.9 -45.6 13.65 -48.75 M12.9 -44.55 L10.9 -45.6 M1.55 -39.4 L3.9 -41.0 3.05 -43.25 M2.35 -32.85 L3.6 -30.9 Q4.85 -28.5 4.85 -26.2 8.1 -23.95 12.0 -22.7 M12.95 -36.75 L14.85 -35.7 M10.1 -42.65 Q10.9 -39.45 12.95 -36.75 L8.35 -33.4 M10.05 -21.1 Q6.0 -20.05 3.65 -18.85 L2.1 -17.9 2.1 -11.0 M0.2 -7.55 Q2.45 -8.15 4.0 -10.1 M11.35 -2.85 L9.6 -2.65 Q7.55 -2.2 6.15 -1.15 M13.35 -1.85 L11.35 -2.85 14.1 -6.0 M7.8 -22.05 L4.85 -26.2 M-5.05 -70.15 L-1.0 -69.25 M-2.8 -70.95 L-5.05 -70.15 Q-6.7 -69.6 -9.3 -68.0 -11.55 -66.7 -14.15 -66.05 M-17.05 -71.2 Q-17.65 -69.2 -18.85 -67.45 L-19.95 -66.15 -19.3 -64.7 M-4.1 -64.6 L-4.35 -63.35 Q-4.45 -62.0 -3.75 -61.5 M-11.7 -61.55 Q-11.9 -60.8 -13.95 -58.05 L-9.4 -54.75 M-13.95 -58.05 L-15.85 -57.05 M-2.55 -60.75 L-3.75 -61.5 M-5.85 -47.5 L-5.55 -49.7 Q-4.95 -52.3 -3.4 -54.2 M-11.7 -61.55 L-11.1 -64.0 M-19.95 -66.15 L-21.45 -64.7 M-8.8 -43.4 L-5.85 -47.5 Q-9.1 -45.3 -13.0 -44.0 M-0.35 -37.65 L-2.7 -39.25 -2.65 -32.4 M-2.7 -39.25 L-4.25 -40.25 Q-6.55 -41.4 -10.6 -42.45 M-6.7 -22.5 L-6.75 -22.5 M-0.75 -28.95 L-2.1 -29.5 Q-3.6 -30.25 -4.55 -31.45 M-2.1 -18.05 L-3.15 -19.15 Q-4.1 -20.5 -3.6 -21.9 M-10.65 -21.3 Q-11.4 -18.1 -13.5 -15.35 L-8.9 -12.05 M-11.9 -24.2 L-10.15 -24.0 Q-8.1 -23.55 -6.75 -22.5 M-15.45 -14.35 L-13.5 -15.35 M-12.55 -1.35 Q-8.65 -2.6 -5.4 -4.8 L-5.1 -7.0 Q-4.5 -9.6 -2.95 -11.45 M-8.35 -0.7 L-5.4 -4.8 M-0.2 -16.25 L2.1 -17.9" fill="none" stroke="#000000" stroke-linecap="round" stroke-linejoin="round" stroke-opacity="0.2" stroke-width="0.5"/>
      <path d="M10.95 -65.55 L13.15 -64.8 14.7 -64.8 14.7 -55.55 12.8 -52.5 13.75 -52.25 13.75 -45.6 13.05 -44.7 13.95 -44.15 13.45 -43.5 14.95 -41.75 14.95 -35.0 13.45 -34.15 12.9 -31.65 13.65 -31.1 -14.65 -30.45 -15.45 -41.6 -14.65 -42.75 -13.85 -45.0 -14.65 -46.55 -13.7 -49.35 -14.5 -52.5 -13.7 -53.05 -14.65 -55.05 -15.9 -55.95 -15.9 -63.05 -14.35 -64.95 -14.0 -66.15 -12.1 -64.85 -2.25 -65.1 -0.95 -66.1 1.1 -65.1 9.65 -64.7 10.95 -65.55" fill="url(#decoration46-gradient12)" fill-rule="evenodd" stroke="none"/>
    </g>
    <radialGradient cx="0" cy="0" gradientTransform="matrix(0.0183, 0.0, 0.0, 0.0516, -0.25, -31.75)" gradientUnits="userSpaceOnUse" id="decoration46-gradient3" r="819.2" spreadMethod="pad">
      <stop offset="0.0196078431372549" stop-color="#2a251c"/>
      <stop offset="1.0" stop-color="#453f32"/>
    </radialGradient>
    <linearGradient gradientTransform="matrix(0.0, 0.0078, -0.0062, 0.0, 8.25, -38.3)" gradientUnits="userSpaceOnUse" id="decoration46-gradient4" spreadMethod="pad" x1="-819.2" x2="819.2">
      <stop offset="0.0" stop-color="#9a906d"/>
      <stop offset="1.0" stop-color="#83774e"/>
    </linearGradient>
    <linearGradient gradientTransform="matrix(0.0, 0.0053, -0.0064, 0.0, 8.5, -27.8)" gradientUnits="userSpaceOnUse" id="decoration46-gradient5" spreadMethod="pad" x1="-819.2" x2="819.2">
      <stop offset="0.0" stop-color="#9a906d"/>
      <stop offset="1.0" stop-color="#83774e"/>
    </linearGradient>
    <linearGradient gradientTransform="matrix(0.002, 0.0073, -0.0061, 0.0016, 8.2, -19.2)" gradientUnits="userSpaceOnUse" id="decoration46-gradient6" spreadMethod="pad" x1="-819.2" x2="819.2">
      <stop offset="0.0196078431372549" stop-color="#9a906d"/>
      <stop offset="1.0" stop-color="#83774e"/>
    </linearGradient>
    <linearGradient gradientTransform="matrix(0.0017, 0.0061, -0.0055, 0.0014, 6.75, -7.7)" gradientUnits="userSpaceOnUse" id="decoration46-gradient7" spreadMethod="pad" x1="-819.2" x2="819.2">
      <stop offset="0.0196078431372549" stop-color="#988d67"/>
      <stop offset="1.0" stop-color="#7b7047"/>
    </linearGradient>
    <linearGradient gradientTransform="matrix(0.0011, 0.0075, -0.0063, 9.0E-4, -9.7, -38.55)" gradientUnits="userSpaceOnUse" id="decoration46-gradient8" spreadMethod="pad" x1="-819.2" x2="819.2">
      <stop offset="0.0" stop-color="#9a906d"/>
      <stop offset="1.0" stop-color="#83774e"/>
    </linearGradient>
    <linearGradient gradientTransform="matrix(0.0016, 0.0056, -0.0055, 0.0014, -7.8, -27.75)" gradientUnits="userSpaceOnUse" id="decoration46-gradient9" spreadMethod="pad" x1="-819.2" x2="819.2">
      <stop offset="0.0" stop-color="#9a906d"/>
      <stop offset="1.0" stop-color="#83774e"/>
    </linearGradient>
    <linearGradient gradientTransform="matrix(7.0E-4, 0.0067, -0.0062, 6.0E-4, -7.8, -16.95)" gradientUnits="userSpaceOnUse" id="decoration46-gradient10" spreadMethod="pad" x1="-819.2" x2="819.2">
      <stop offset="0.0196078431372549" stop-color="#9a906d"/>
      <stop offset="1.0" stop-color="#83774e"/>
    </linearGradient>
    <linearGradient gradientTransform="matrix(0.0021, 0.0076, -0.0066, 0.0017, -8.7, -8.6)" gradientUnits="userSpaceOnUse" id="decoration46-gradient11" spreadMethod="pad" x1="-819.2" x2="819.2">
      <stop offset="0.0" stop-color="#988d67"/>
      <stop offset="1.0" stop-color="#7b7047"/>
    </linearGradient>
    <linearGradient gradientTransform="matrix(0.0, 0.0316, -0.0211, 0.0, -0.6, -57.85)" gradientUnits="userSpaceOnUse" id="decoration46-gradient12" spreadMethod="pad" x1="-819.2" x2="819.2">
      <stop offset="0.0" stop-color="#000000" stop-opacity="0.54901963"/>
      <stop offset="1.0" stop-color="#000000" stop-opacity="0.0"/>
    </linearGradient>
    <g id="decoration46-sprite2" transform="matrix(1.0, 0.0, 0.0, 1.0, -2.6, 0.05)">
      <use height="116.85" transform="matrix(1.0, 0.0, 0.0, 1.0, 2.6, -0.05)" width="220.6" xlink:href="#decoration46-shape4"/>
    </g>
    <g id="decoration46-shape4" transform="matrix(1.0, 0.0, 0.0, 1.0, -2.6, 0.05)">
      <path d="M216.6 72.9 Q209.6 82.3 197.3 90.5 165.65 111.5 112.85 116.1 61.0 120.6 28.05 95.7 15.85 86.45 8.7 74.85 2.6 65.0 2.6 58.05 2.6 51.0 7.9 41.95 14.25 31.1 25.85 22.35 57.15 -1.2 112.85 0.0 173.9 1.15 201.1 17.6 224.7 31.9 223.1 58.05 222.7 64.7 216.6 72.9" fill="url(#decoration46-gradient13)" fill-rule="evenodd" stroke="none"/>
    </g>
    <radialGradient cx="0" cy="0" gradientTransform="matrix(0.0971, 0.0, 0.0, 0.0572, 109.5, 53.65)" gradientUnits="userSpaceOnUse" id="decoration46-gradient13" r="819.2" spreadMethod="pad">
      <stop offset="0.0" stop-color="#cdfdff" stop-opacity="0.45882353"/>
      <stop offset="0.19607843137254902" stop-color="#dafdff" stop-opacity="0.34117648"/>
      <stop offset="1.0" stop-color="#ffffff" stop-opacity="0.0"/>
    </radialGradient>
  </defs>
</svg>
