<?xml version="1.0" encoding="UTF-8" standalone="no"?>
<svg xmlns:xlink="http://www.w3.org/1999/xlink" height="68.35px" width="153.6px" xmlns="http://www.w3.org/2000/svg">
  <g transform="matrix(1.0, 0.0, 0.0, 1.0, 90.1, 66.1)">
    <use height="68.35" transform="matrix(1.0, 0.0, 0.0, 1.0, -90.1, -66.1)" width="153.6" xlink:href="#decoration47-shape0"/>
  </g>
  <defs>
    <g id="decoration47-shape0" transform="matrix(1.0, 0.0, 0.0, 1.0, 90.1, 66.1)">
      <path d="M56.4 -66.1 L61.55 -56.9 56.5 -57.1 57.6 -47.4 Q58.3 -48.8 59.45 -48.95 60.55 -49.15 61.55 -48.0 62.5 -46.9 60.95 -45.9 61.45 -46.8 61.1 -47.25 60.9 -47.7 59.85 -47.8 58.8 -47.9 58.65 -47.0 L59.45 -45.95 Q60.25 -44.85 60.0 -44.1 59.8 -43.5 59.2 -43.05 L58.8 -42.85 58.3 -42.65 58.4 -42.1 59.1 -42.1 59.6 -42.0 Q60.4 -41.6 60.6 -40.8 60.7 -40.0 60.15 -38.95 59.6 -37.85 59.75 -37.55 59.8 -36.65 60.75 -36.65 61.85 -36.6 62.05 -36.9 L62.1 -37.35 Q61.35 -37.5 61.15 -37.8 L61.25 -38.2 61.55 -38.35 Q62.8 -38.65 63.3 -38.1 L63.45 -37.6 Q62.85 -35.6 61.2 -35.45 L60.0 -35.45 62.0 -8.15 63.2 2.0 61.6 2.0 60.2 -6.4 47.9 -6.05 42.9 -5.95 43.85 2.1 41.4 2.1 41.2 -5.95 24.65 -5.45 25.05 2.0 22.45 2.0 23.0 -5.25 6.9 -5.25 0.8 -5.9 1.75 2.25 -0.7 2.25 -0.85 -5.95 Q-8.75 -6.35 -16.5 -5.55 L-13.85 2.15 -16.25 2.15 -17.55 -2.85 -18.15 -5.65 -40.15 -6.2 -39.45 2.1 -42.2 2.1 -41.75 -6.25 Q-53.4 -6.1 -59.55 -6.25 L-58.1 2.15 -60.55 2.15 -60.85 -6.25 -77.1 -6.25 Q-76.15 1.15 -76.15 2.15 L-77.75 2.15 -79.15 -6.25 -81.45 -7.15 -82.15 -7.95 -82.4 -9.1 Q-82.5 -9.95 -81.3 -11.35 L-79.75 -12.8 Q-81.45 -11.35 -81.1 -9.65 -80.85 -8.4 -79.4 -8.3 L-81.1 -34.85 -84.3 -34.6 -84.75 -35.4 Q-85.2 -36.5 -84.25 -36.95 -83.75 -37.15 -83.5 -36.6 -83.35 -36.25 -83.75 -35.3 -82.9 -35.2 -82.5 -35.7 -82.1 -36.25 -82.9 -36.8 -85.25 -38.7 -85.4 -39.3 -85.8 -40.0 -85.45 -40.9 -84.8 -41.9 -85.35 -42.6 L-86.2 -43.65 Q-86.45 -44.4 -85.6 -45.5 L-84.85 -46.55 Q-85.05 -47.55 -86.05 -47.35 -87.0 -47.2 -87.25 -46.5 -87.45 -46.0 -87.15 -45.5 -88.65 -46.45 -87.7 -47.55 -86.75 -48.7 -84.9 -48.3 L-84.0 -47.45 -84.25 -56.95 -90.1 -57.2 -82.95 -65.95 -77.8 -56.75 -82.85 -56.95 -81.75 -47.25 Q-81.05 -48.65 -79.9 -48.8 -78.8 -49.0 -77.8 -47.85 -76.85 -46.75 -78.4 -45.75 -77.9 -46.65 -78.25 -47.1 -78.45 -47.55 -79.5 -47.65 -80.55 -47.75 -80.7 -46.85 L-79.9 -45.8 Q-79.1 -44.7 -79.35 -43.95 -79.55 -43.35 -80.15 -42.9 L-80.55 -42.7 -81.05 -42.5 -64.7 -42.5 -65.15 -43.75 -66.65 -55.25 -72.65 -55.25 -65.85 -64.15 -58.45 -55.25 -65.05 -55.15 -62.95 -42.35 Q-62.45 -43.3 -62.6 -44.05 L-63.45 -45.45 Q-63.35 -46.35 -62.85 -46.9 L-62.25 -47.3 Q-60.45 -47.7 -59.45 -46.65 -58.5 -45.65 -59.9 -44.5 -59.45 -45.5 -59.8 -45.85 -60.65 -46.9 -61.5 -46.5 -62.2 -46.15 -62.25 -45.5 L-61.4 -44.55 Q-60.6 -43.4 -60.8 -42.65 L-61.25 -41.9 -54.9 -41.35 -42.65 -41.3 Q-43.65 -41.9 -43.85 -42.7 -44.1 -43.5 -43.3 -44.6 L-42.45 -45.6 Q-42.55 -46.45 -43.6 -46.45 -44.65 -46.45 -44.9 -45.95 -45.2 -45.5 -44.75 -44.55 -46.15 -45.7 -45.2 -46.8 -44.25 -47.8 -42.45 -47.4 -41.45 -47.15 -41.25 -45.75 L-41.15 -49.05 -40.85 -53.3 Q-41.55 -53.9 -42.3 -53.45 -43.25 -52.95 -43.15 -50.9 -43.15 -50.45 -43.35 -51.0 L-43.7 -52.25 Q-43.95 -54.45 -42.55 -55.25 L-46.75 -55.25 -39.95 -64.15 -32.55 -55.25 -37.55 -55.0 Q-36.55 -54.8 -36.05 -53.7 -35.55 -52.65 -37.1 -51.1 -36.65 -52.15 -37.6 -52.95 -38.5 -53.75 -39.15 -53.25 L-39.7 -47.05 -39.9 -42.15 -39.3 -42.4 Q-38.75 -42.95 -38.95 -44.15 L-39.5 -44.95 -39.75 -45.5 -39.15 -46.8 -38.55 -47.4 Q-36.8 -47.8 -35.8 -46.75 -34.85 -45.7 -36.25 -44.55 -35.75 -45.55 -36.1 -45.95 -37.0 -47.0 -37.85 -46.55 -38.55 -46.25 -38.55 -45.6 L-37.75 -44.6 Q-36.9 -43.5 -37.15 -42.7 -37.25 -42.25 -37.6 -42.0 L-37.75 -41.95 -20.4 -41.75 Q-21.3 -42.3 -21.5 -43.05 -21.7 -43.8 -20.85 -44.95 L-20.0 -45.85 Q-20.15 -46.8 -21.15 -46.8 -22.25 -46.8 -22.45 -46.1 -22.65 -45.5 -22.35 -44.9 -23.75 -46.0 -22.8 -47.0 -21.8 -48.1 -20.0 -47.7 L-19.35 -47.0 -19.45 -55.25 -25.6 -55.25 -18.8 -64.15 -11.4 -55.25 -17.65 -55.25 -17.2 -46.85 Q-16.25 -47.95 -14.75 -47.3 -13.2 -46.65 -14.55 -44.15 -14.1 -45.05 -14.45 -45.5 -14.65 -46.0 -15.75 -46.05 -16.75 -46.05 -16.9 -45.15 L-16.05 -44.2 Q-15.2 -43.05 -15.4 -42.3 -15.6 -41.75 -16.05 -41.5 L-7.1 -41.1 -4.5 -40.95 -2.05 -40.8 Q-2.65 -41.25 -2.8 -41.85 -3.05 -42.65 -2.2 -43.75 L-1.35 -44.7 Q-1.45 -45.6 -2.5 -45.6 -3.4 -45.55 -3.75 -44.85 -3.95 -44.25 -3.65 -43.7 -5.1 -44.8 -4.1 -45.85 -3.15 -46.9 -1.35 -46.5 L-1.55 -55.25 -7.35 -57.2 1.5 -64.05 6.35 -53.5 0.2 -54.7 Q-0.4 -50.2 0.5 -46.15 L3.45 -46.2 Q4.65 -44.9 3.25 -43.65 3.7 -44.6 3.4 -45.15 3.15 -45.65 2.1 -45.65 1.05 -45.65 0.95 -44.7 L1.8 -43.7 Q2.65 -42.5 2.4 -41.75 L2.1 -41.1 7.9 -41.95 19.95 -42.1 19.4 -42.85 Q19.1 -43.55 19.85 -44.75 L20.6 -45.85 Q20.4 -46.65 19.35 -46.55 18.3 -46.4 18.05 -45.85 17.85 -45.45 18.4 -44.55 16.8 -45.5 17.7 -46.65 18.6 -47.8 20.4 -47.6 L18.65 -52.8 11.95 -51.8 17.85 -61.7 26.05 -53.95 20.45 -53.1 21.6 -49.1 22.35 -46.85 22.65 -47.4 22.95 -47.75 Q24.65 -48.45 25.75 -47.5 26.9 -46.55 25.7 -45.15 26.0 -46.2 25.6 -46.65 25.25 -47.15 24.2 -47.0 23.15 -46.85 23.2 -45.85 L24.2 -45.0 Q25.25 -44.0 25.05 -43.15 L24.95 -42.6 31.15 -42.65 37.4 -42.8 Q36.45 -44.05 36.4 -44.5 36.3 -45.25 37.4 -46.15 L38.4 -47.0 Q38.4 -47.9 37.4 -48.05 L36.0 -47.8 Q35.6 -47.4 35.85 -46.45 34.65 -47.75 35.85 -48.6 L38.7 -48.75 39.05 -48.2 39.5 -50.05 40.65 -55.5 34.25 -55.75 42.45 -64.45 48.3 -55.25 42.25 -55.45 Q41.45 -51.55 40.95 -47.8 L41.55 -48.3 Q43.35 -48.55 44.25 -47.4 45.15 -46.25 43.65 -45.15 44.1 -46.1 43.85 -46.65 43.65 -47.15 42.6 -47.25 41.6 -47.4 41.35 -46.4 L42.15 -45.35 Q42.9 -44.1 42.55 -43.35 L42.3 -42.85 48.05 -42.35 49.1 -42.4 54.0 -42.75 Q53.35 -43.2 53.15 -43.8 52.9 -44.55 53.75 -45.65 L54.5 -46.7 Q54.3 -47.7 53.3 -47.5 52.35 -47.35 52.1 -46.65 51.9 -46.15 52.2 -45.65 50.7 -46.6 51.65 -47.7 52.6 -48.85 54.45 -48.45 L55.35 -47.6 55.1 -57.1 49.25 -57.35 56.4 -66.1 M38.35 -43.6 L38.4 -45.5 Q37.85 -44.35 38.35 -43.6 M36.7 -40.3 L36.65 -39.75 Q36.65 -39.25 37.65 -38.4 L38.05 -38.1 38.0 -41.1 37.45 -41.05 36.7 -40.3 M35.85 -41.25 L26.2 -41.25 Q27.4 -39.95 26.8 -38.5 L26.1 -36.7 26.45 -36.15 Q26.75 -35.8 27.25 -36.0 L27.95 -36.4 28.5 -36.8 28.55 -36.9 27.95 -36.9 Q27.55 -36.95 27.5 -37.15 L27.55 -37.6 27.8 -37.85 29.55 -37.8 Q29.9 -37.55 29.85 -37.25 29.5 -35.25 27.9 -34.85 L26.65 -34.7 26.6 -34.7 27.15 -33.25 Q28.75 -29.6 28.8 -25.6 28.8 -24.55 26.75 -20.35 L24.05 -14.75 Q23.6 -13.7 23.8 -10.8 L24.0 -7.85 Q26.0 -7.85 26.45 -8.5 27.15 -9.8 26.0 -12.3 28.65 -10.35 28.5 -9.05 L27.65 -6.6 38.55 -7.25 37.9 -8.0 Q37.5 -8.7 37.45 -9.15 37.4 -10.0 38.6 -11.35 L40.15 -12.8 Q38.45 -11.35 38.8 -9.7 39.05 -8.3 40.65 -8.35 40.8 -8.35 38.15 -34.95 37.8 -34.65 37.1 -34.65 35.4 -34.65 34.95 -35.65 L34.8 -36.55 Q34.85 -37.75 35.85 -37.75 L36.35 -37.65 36.45 -37.5 36.45 -37.15 35.75 -36.05 37.75 -36.35 36.3 -38.55 Q35.65 -39.45 35.7 -40.35 35.7 -40.9 35.85 -41.25 M39.9 -37.9 L39.95 -38.0 40.4 -38.7 41.25 -39.9 Q41.35 -40.5 40.75 -40.8 L40.5 -40.95 40.2 -40.95 Q40.05 -40.75 40.05 -39.9 L39.9 -37.9 M21.05 -44.4 Q20.85 -43.05 21.6 -42.45 L22.3 -42.45 21.4 -44.9 21.05 -44.4 M22.45 -39.75 Q22.0 -39.2 22.3 -38.65 22.55 -38.05 22.85 -38.0 L23.7 -37.85 23.45 -38.85 23.05 -40.2 Q22.7 -40.05 22.45 -39.75 M21.15 -38.9 Q20.9 -39.6 21.15 -40.8 L8.5 -40.8 5.3 -40.35 2.7 -39.85 Q3.55 -39.45 3.7 -38.7 3.9 -37.9 3.35 -36.75 2.8 -35.7 2.95 -35.3 L3.25 -34.75 Q3.5 -34.4 4.05 -34.55 L4.8 -34.85 5.35 -35.25 5.45 -35.3 4.85 -35.4 Q4.45 -35.45 4.4 -35.65 L4.5 -36.1 4.8 -36.3 Q6.0 -36.6 6.5 -36.1 L6.75 -35.55 Q6.25 -33.55 4.55 -33.3 L3.5 -33.25 3.65 -32.8 2.8 -24.6 0.8 -18.35 0.8 -8.4 Q2.55 -7.5 3.3 -8.7 4.05 -10.0 2.8 -12.45 5.55 -10.55 5.4 -9.25 L5.1 -7.75 4.85 -7.3 4.45 -6.75 12.6 -6.75 20.15 -6.4 19.8 -6.7 19.55 -6.95 19.55 -7.05 19.4 -7.15 19.1 -8.3 Q19.05 -9.15 20.25 -10.55 L21.8 -12.0 Q20.1 -10.55 20.45 -8.9 20.7 -7.5 22.3 -7.5 L22.3 -7.9 22.15 -10.0 Q22.0 -14.1 22.75 -16.05 L25.05 -20.4 Q26.9 -23.6 26.9 -24.3 26.95 -28.15 25.8 -31.85 L24.95 -34.65 24.5 -34.45 22.1 -34.6 21.65 -35.3 Q21.25 -36.35 22.2 -36.7 L22.75 -36.75 22.85 -36.65 23.0 -36.4 22.75 -35.25 24.5 -36.0 24.5 -36.05 Q22.8 -37.15 22.35 -37.55 21.45 -38.1 21.15 -38.9 M24.65 -40.2 L25.35 -38.05 Q26.0 -38.95 25.7 -39.8 25.5 -40.35 25.05 -40.35 L24.65 -40.2 M23.1 -44.35 L23.5 -43.25 Q23.85 -44.05 23.1 -44.35 M40.45 -28.2 L41.65 -17.75 42.75 -8.35 Q43.9 -7.85 45.15 -8.75 45.5 -10.85 44.65 -12.5 47.35 -10.55 47.25 -9.3 L46.7 -7.3 48.05 -7.3 57.9 -7.3 57.2 -8.1 Q56.95 -8.6 56.95 -9.25 56.85 -10.1 58.05 -11.5 L59.6 -12.95 Q57.9 -11.5 58.25 -9.8 58.5 -8.55 59.95 -8.45 L58.25 -35.0 55.05 -34.75 54.6 -35.55 Q54.15 -36.65 55.1 -37.1 55.6 -37.3 55.85 -36.75 56.0 -36.4 55.6 -35.45 56.45 -35.35 56.85 -35.85 57.25 -36.4 56.45 -36.95 54.1 -38.85 53.95 -39.45 53.55 -40.15 53.9 -41.05 L49.0 -41.0 41.8 -40.95 42.15 -39.8 Q42.0 -39.0 41.15 -38.1 40.3 -37.25 40.3 -36.9 L40.4 -36.2 Q40.55 -35.8 41.1 -35.75 L41.85 -35.8 42.55 -36.0 42.7 -36.05 42.1 -36.35 Q41.75 -36.5 41.8 -36.75 L42.0 -37.15 42.35 -37.15 Q43.65 -37.1 43.9 -36.45 L43.95 -35.85 Q42.8 -34.15 41.2 -34.45 L40.35 -34.7 39.9 -34.85 40.45 -28.2 M1.15 -39.35 L2.3 -36.4 2.45 -37.1 2.85 -38.5 Q2.75 -39.05 2.1 -39.2 L1.15 -39.35 M0.55 -41.45 Q0.95 -42.1 0.6 -43.2 L0.2 -43.8 Q0.3 -42.65 0.55 -41.45 M1.2 -36.15 L1.0 -36.75 0.3 -38.9 -0.2 -38.75 -0.65 -37.85 -0.6 -37.35 Q-0.45 -36.9 0.75 -36.35 1.0 -36.2 1.2 -36.15 M1.3 -32.7 Q-0.3 -32.2 -1.05 -33.0 L-1.45 -33.8 Q-1.8 -34.9 -0.75 -35.25 L-0.2 -35.3 -0.2 -35.15 0.0 -34.85 Q0.05 -34.5 -0.4 -33.65 1.4 -34.2 1.45 -34.4 L-0.6 -36.1 Q-1.5 -36.75 -1.75 -37.65 -1.95 -38.35 -1.4 -39.25 L-7.95 -39.7 -15.5 -40.1 Q-14.8 -39.55 -14.8 -38.75 -14.8 -37.9 -15.55 -36.95 L-16.25 -35.65 -16.1 -35.0 Q-15.85 -34.6 -15.35 -34.6 L-14.5 -34.75 Q-14.0 -34.85 -13.9 -35.0 L-13.8 -35.05 -14.35 -35.25 -14.8 -35.65 -14.55 -36.0 Q-14.45 -36.2 -14.2 -36.2 -12.95 -36.2 -12.6 -35.6 -12.35 -35.25 -12.5 -35.0 -13.45 -33.2 -15.1 -33.3 L-16.35 -33.55 -16.05 -31.55 -14.95 -23.0 -16.85 -8.0 Q-15.4 -7.55 -14.5 -8.75 -13.7 -10.0 -14.6 -11.1 -10.5 -8.05 -14.75 -6.6 -8.9 -7.05 -3.1 -6.85 L-3.95 -7.8 -4.55 -9.0 Q-4.55 -9.8 -3.4 -11.2 L-1.85 -12.65 Q-3.55 -11.2 -3.2 -9.6 -2.9 -8.0 -0.9 -8.25 L-1.0 -14.05 -0.9 -18.35 1.3 -25.4 2.1 -33.1 Q1.85 -32.85 1.3 -32.7 M58.3 -45.55 L57.9 -45.95 57.9 -45.25 58.1 -43.85 Q58.5 -44.45 58.3 -45.55 M55.25 -45.65 L54.9 -45.25 Q54.7 -44.35 55.55 -43.35 L55.25 -45.65 M54.9 -39.7 L55.05 -39.2 Q55.2 -38.8 56.5 -38.35 L55.8 -41.0 55.25 -40.75 54.9 -39.7 M40.8 -43.35 Q41.05 -44.0 40.9 -44.95 L40.65 -45.35 40.45 -43.05 40.8 -43.35 M59.0 -41.35 L58.55 -41.5 59.05 -38.55 59.75 -40.7 Q59.65 -41.25 59.0 -41.35 M-81.45 -45.8 L-81.45 -45.1 -81.25 -43.7 Q-80.85 -44.3 -81.05 -45.4 L-81.45 -45.8 M-84.1 -45.5 L-84.45 -45.1 Q-84.65 -44.2 -83.8 -43.2 L-84.1 -45.5 M-82.85 -38.2 L-83.55 -40.85 -84.1 -40.6 -84.45 -39.55 -84.3 -39.05 Q-84.15 -38.65 -82.85 -38.2 M-41.4 -45.1 L-42.1 -44.15 Q-42.45 -42.85 -41.75 -42.2 -41.15 -42.4 -41.15 -43.05 L-41.25 -45.75 -41.4 -45.1 M-41.75 -39.25 L-42.35 -38.5 -40.9 -36.8 -41.05 -39.75 -41.75 -39.25 M-43.0 -40.35 L-60.1 -39.95 -59.65 -39.25 Q-59.5 -38.5 -59.95 -37.35 -60.35 -36.25 -60.2 -35.95 -60.0 -35.05 -59.05 -35.15 -57.9 -35.3 -57.65 -35.75 L-57.7 -36.1 -58.4 -36.1 Q-58.75 -36.1 -58.8 -36.35 L-58.75 -36.75 Q-58.7 -36.95 -58.45 -36.95 L-56.7 -36.9 -56.45 -36.4 Q-56.9 -34.35 -58.5 -34.0 L-59.45 -33.9 -59.95 -33.9 -60.0 -33.9 -57.35 -27.15 -59.45 -8.8 -58.45 -8.45 Q-57.5 -8.35 -57.0 -9.15 -56.3 -10.4 -57.35 -12.7 L-57.5 -12.9 -57.35 -12.8 Q-54.8 -10.95 -54.9 -9.7 L-55.25 -8.2 -54.75 -8.05 -51.05 -7.55 -45.3 -7.1 -44.65 -7.1 Q-44.9 -7.15 -45.05 -7.3 -45.7 -7.6 -46.0 -8.0 -46.45 -8.55 -46.5 -9.4 -46.55 -10.25 -45.4 -11.65 L-43.8 -13.05 Q-45.5 -11.65 -45.2 -10.0 -44.85 -8.35 -42.75 -8.65 L-42.65 -8.7 -39.55 -24.55 -40.75 -33.7 -41.75 -33.5 Q-43.5 -33.5 -44.0 -34.45 L-44.15 -35.35 Q-44.15 -36.5 -43.15 -36.5 L-42.6 -36.4 -42.55 -36.25 -42.55 -35.9 -43.15 -34.9 -41.25 -35.05 -42.75 -37.35 Q-43.35 -38.2 -43.35 -39.15 -43.35 -39.85 -43.0 -40.35 M-62.2 -39.75 L-61.05 -36.8 -60.6 -39.05 Q-60.6 -39.25 -61.3 -39.5 L-62.2 -39.75 M-78.75 -40.65 Q-78.65 -39.85 -79.2 -38.8 -79.75 -37.7 -79.6 -37.4 -79.55 -36.5 -78.6 -36.5 -77.5 -36.45 -77.3 -36.75 -77.2 -36.9 -77.25 -37.2 -78.0 -37.35 -78.2 -37.65 L-78.1 -38.05 -77.8 -38.2 Q-76.55 -38.5 -76.05 -37.95 -75.75 -37.7 -75.9 -37.45 -76.5 -35.45 -78.15 -35.3 L-79.35 -35.3 -77.35 -8.35 Q-76.9 -8.5 -76.6 -9.0 -75.9 -10.25 -76.95 -12.55 L-77.1 -12.75 -76.95 -12.65 Q-74.4 -10.8 -74.5 -9.55 L-74.85 -8.05 -74.75 -8.0 -63.35 -8.0 -63.95 -8.5 Q-64.4 -9.05 -64.45 -9.9 -64.5 -10.75 -63.35 -12.15 L-61.75 -13.55 Q-63.45 -12.15 -63.15 -10.5 -62.85 -9.0 -61.05 -9.1 L-60.9 -11.5 -58.85 -26.4 -64.1 -40.85 -78.8 -40.85 -78.75 -40.65 M-79.6 -40.55 L-79.7 -40.85 -80.7 -40.85 -80.3 -38.4 -79.6 -40.55 M-0.65 -43.65 L-1.0 -43.25 Q-1.4 -41.15 0.05 -40.8 L-0.2 -41.75 -0.65 -43.7 -0.65 -43.65 M-19.7 -44.45 Q-20.05 -43.1 -19.4 -42.45 L-19.35 -44.85 -19.7 -44.45 M-18.9 -37.15 L-19.3 -40.05 -19.95 -39.45 -20.5 -38.65 -18.9 -37.15 M-15.6 -38.75 Q-15.6 -39.05 -17.2 -40.0 L-16.7 -36.7 -15.6 -38.75 M-18.35 -33.9 L-18.4 -34.15 Q-18.8 -33.85 -19.4 -33.75 -21.1 -33.55 -21.65 -34.5 L-21.95 -35.35 Q-22.05 -36.5 -21.05 -36.65 L-20.5 -36.6 -20.45 -36.45 -20.4 -36.1 Q-20.35 -35.8 -20.9 -35.05 L-19.0 -35.4 -20.7 -37.45 Q-21.45 -38.3 -21.55 -39.2 -21.65 -39.85 -21.35 -40.35 L-37.85 -40.25 Q-36.9 -39.65 -36.9 -38.75 -36.9 -37.9 -37.6 -36.95 -38.35 -36.0 -38.35 -35.65 -38.35 -34.95 -37.4 -34.6 L-36.1 -34.65 -35.9 -35.05 -36.45 -35.25 -36.9 -35.65 -36.7 -36.0 -36.3 -36.2 Q-35.1 -36.2 -34.7 -35.6 -34.45 -35.25 -34.6 -35.0 -35.55 -33.2 -37.2 -33.3 -38.2 -33.35 -38.6 -33.7 L-38.9 -33.9 -37.7 -24.3 Q-39.25 -11.65 -39.7 -9.3 L-39.8 -8.9 Q-38.0 -8.0 -37.2 -9.25 -36.45 -10.5 -37.7 -13.0 -35.0 -11.05 -35.15 -9.8 L-35.45 -8.3 -35.7 -7.75 -36.1 -7.2 -36.2 -7.15 -36.3 -7.05 -20.3 -6.6 Q-25.05 -8.05 -20.7 -11.5 -22.0 -9.05 -20.65 -8.35 -19.3 -7.7 -18.2 -7.95 L-16.7 -23.1 -18.35 -33.85 -18.35 -33.9 M-38.35 -39.55 L-39.7 -40.3 -39.4 -37.8 -39.1 -36.05 -38.5 -37.45 -37.75 -38.75 Q-37.75 -39.3 -38.35 -39.55" fill="#191612" fill-rule="evenodd" stroke="none"/>
    </g>
  </defs>
</svg>
