<?xml version="1.0" encoding="UTF-8" standalone="no"?>
<svg xmlns:xlink="http://www.w3.org/1999/xlink" height="51.45px" width="70.7px" xmlns="http://www.w3.org/2000/svg">
  <g transform="matrix(1.0, 0.0, 0.0, 1.0, 34.45, 45.2)">
    <clipPath id="decoration5-clipPath0" transform="matrix(1.0, 0.0, 0.0, 1.0, 34.45, 45.2)">
      <use height="4.65" transform="matrix(2.4464, 0.0, 0.0, 9.7312, -34.4251, -45.2129)" width="28.9" xlink:href="#decoration5-shape0"/>
    </clipPath>
    <g clip-path="url(#decoration5-clipPath0)">
      <use height="4.65" transform="matrix(1.0, 0.0, 0.0, 1.0, -13.05, -3.3)" width="28.9" xlink:href="#decoration5-shape0"/>
      <use height="140.45" transform="matrix(0.3137, 0.0267, 0.0, 0.3262, 1.5127, -40.6188)" width="40.4" xlink:href="#decoration5-sprite0"/>
      <use height="140.45" transform="matrix(0.1632, -0.0139, 0.0, 0.1904, 0.5897, -30.3065)" width="40.4" xlink:href="#decoration5-sprite0"/>
      <use height="140.45" transform="matrix(0.2214, -0.0189, 0.0356, 0.2704, -7.461, -39.8466)" width="40.4" xlink:href="#decoration5-sprite0"/>
      <use height="140.45" transform="matrix(-0.1577, 0.0208, 0.0896, 0.175, -1.4407, -27.2387)" width="40.4" xlink:href="#decoration5-sprite0"/>
      <use height="140.45" transform="matrix(0.1577, 0.0208, -0.0896, 0.175, 10.5407, -22.5387)" width="40.4" xlink:href="#decoration5-sprite0"/>
      <use height="140.45" transform="matrix(-0.2554, 0.0717, 0.1201, 0.2574, -15.3112, -37.4459)" width="40.4" xlink:href="#decoration5-sprite0"/>
      <use height="140.45" transform="matrix(-0.177, 0.0518, 0.1718, 0.1445, -23.3671, -17.9463)" width="40.4" xlink:href="#decoration5-sprite0"/>
      <use height="140.45" transform="matrix(-0.1929, -0.0164, 0.0383, 0.2283, -5.0817, -32.0556)" width="40.4" xlink:href="#decoration5-sprite0"/>
      <use height="140.45" transform="matrix(0.2135, -0.0145, 0.0, 0.1979, -1.3891, -24.3298)" width="40.4" xlink:href="#decoration5-sprite0"/>
      <use height="140.45" transform="matrix(0.2006, 0.0264, -0.1139, 0.2224, 18.3495, -33.3582)" width="40.4" xlink:href="#decoration5-sprite0"/>
      <use height="140.45" transform="matrix(0.2135, -0.0182, 0.0, 0.2362, 4.7109, -28.9013)" width="40.4" xlink:href="#decoration5-sprite0"/>
      <use height="140.45" transform="matrix(-0.1534, 0.0915, 0.1468, 0.103, -24.6712, -13.6149)" width="40.4" xlink:href="#decoration5-sprite0"/>
      <use height="140.45" transform="matrix(-0.2131, 0.0171, 0.0516, 0.1566, -3.9131, -19.2689)" width="40.4" xlink:href="#decoration5-sprite0"/>
      <use height="140.45" transform="matrix(0.1534, 0.0915, -0.1468, 0.103, 29.2212, -17.4149)" width="40.4" xlink:href="#decoration5-sprite0"/>
      <use height="140.45" transform="matrix(-0.1632, -0.011, 0.0, 0.1513, 16.6603, -18.2239)" width="40.4" xlink:href="#decoration5-sprite0"/>
      <use height="140.45" transform="matrix(0.162, 0.0101, -0.0598, 0.0867, 17.2234, -10.1007)" width="40.4" xlink:href="#decoration5-sprite0"/>
    </g>
  </g>
  <defs>
    <g id="decoration5-shape0" transform="matrix(1.0, 0.0, 0.0, 1.0, 13.05, 3.3)">
      <path d="M15.85 -3.3 L15.85 1.35 -13.05 1.35 -13.05 -3.3 15.85 -3.3" fill="#799414" fill-rule="evenodd" stroke="none"/>
    </g>
    <g id="decoration5-sprite0" transform="matrix(1.0, 0.0, 0.0, 1.0, 18.45, 117.2)">
      <use height="138.9" transform="matrix(1.0, 0.0, 0.0, 1.0, -18.45, -117.2)" width="37.25" xlink:href="#decoration5-sprite1"/>
      <use height="138.9" transform="matrix(0.5411, 0.0, 0.0, 0.5411, 1.8046, -60.2126)" width="37.25" xlink:href="#decoration5-sprite1"/>
      <use height="138.9" transform="matrix(-0.5411, 0.0, 0.0, 0.5411, 13.9454, -51.9126)" width="37.25" xlink:href="#decoration5-sprite1"/>
    </g>
    <g id="decoration5-sprite1" transform="matrix(1.0, 0.0, 0.0, 1.0, 19.95, 114.6)">
      <use height="138.9" transform="matrix(1.0, 0.0, 0.0, 1.0, -19.95, -114.6)" width="37.25" xlink:href="#decoration5-shape1"/>
    </g>
    <g id="decoration5-shape1" transform="matrix(1.0, 0.0, 0.0, 1.0, 19.95, 114.6)">
      <path d="M-17.35 24.05 Q-25.2 -29.85 -6.75 -75.15 -0.65 -90.15 7.7 -102.5 13.1 -110.45 17.05 -114.35 11.05 -97.6 6.05 -72.6 -3.9 -22.6 1.15 18.6 -12.3 22.95 -17.35 24.05" fill="url(#decoration5-gradient0)" fill-rule="evenodd" stroke="none"/>
      <path d="M-17.35 24.05 Q-25.2 -29.85 -6.75 -75.15 -0.65 -90.15 7.7 -102.5 13.1 -110.45 17.05 -114.35 11.05 -97.6 6.05 -72.6 -3.9 -22.6 1.15 18.6" fill="none" stroke="url(#decoration5-gradient1)" stroke-linecap="round" stroke-linejoin="round" stroke-width="0.5"/>
    </g>
    <linearGradient gradientTransform="matrix(7.0E-4, 0.0798, -0.0205, -0.0085, -3.45, -52.95)" gradientUnits="userSpaceOnUse" id="decoration5-gradient0" spreadMethod="pad" x1="-819.2" x2="819.2">
      <stop offset="0.0" stop-color="#ccc845"/>
      <stop offset="0.32941176470588235" stop-color="#c7c737"/>
      <stop offset="0.788235294117647" stop-color="#3c5c0a" stop-opacity="0.8627451"/>
      <stop offset="1.0" stop-color="#6f7d0c" stop-opacity="0.4509804"/>
    </linearGradient>
    <linearGradient gradientTransform="matrix(-0.0066, 0.0549, -0.0194, -0.04, -4.1, -57.1)" gradientUnits="userSpaceOnUse" id="decoration5-gradient1" spreadMethod="pad" x1="-819.2" x2="819.2">
      <stop offset="0.396078431372549" stop-color="#9b9b17" stop-opacity="0.8509804"/>
      <stop offset="1.0" stop-color="#6b6b1d" stop-opacity="0.0"/>
    </linearGradient>
  </defs>
</svg>
