<?xml version="1.0" encoding="UTF-8" standalone="no"?>
<svg xmlns:ffdec="https://www.free-decompiler.com/flash" xmlns:xlink="http://www.w3.org/1999/xlink" ffdec:objectType="frame" height="219.6px" width="162.3px" xmlns="http://www.w3.org/2000/svg">
  <g transform="matrix(1.0, 0.0, 0.0, 1.0, 78.7, 215.75)">
    <use ffdec:characterId="775" height="21.2" transform="matrix(-0.6449, 0.1728, 0.1302, 0.6563, 22.0529, -120.3158)" width="18.75" xlink:href="#decoration51-sprite0"/>
    <use ffdec:characterId="776" height="63.2" transform="matrix(-0.2339, -0.5302, 0.4977, -0.3077, 15.6343, -108.5098)" width="55.45" xlink:href="#decoration51-sprite1"/>
    <use ffdec:characterId="777" height="36.1" transform="matrix(1.0, 0.0, 0.0, 1.0, -32.0, -144.4)" width="67.3" xlink:href="#decoration51-shape2"/>
    <use ffdec:characterId="776" height="63.2" transform="matrix(0.2339, -0.5302, -0.5302, -0.2339, -1.5229, -84.5856)" width="55.45" xlink:href="#decoration51-sprite1"/>
    <use ffdec:characterId="778" height="178.5" transform="matrix(1.0, 0.0, 0.0, 1.0, -29.6, -178.05)" width="39.55" xlink:href="#decoration51-shape3"/>
    <use ffdec:characterId="776" height="63.2" transform="matrix(-0.6411, -0.3702, -0.3702, 0.6411, 54.3898, -112.7319)" width="55.45" xlink:href="#decoration51-sprite1"/>
    <use ffdec:characterId="776" height="63.2" transform="matrix(0.7158, 0.5239, -0.5239, 0.7158, -45.5956, -159.9315)" width="55.45" xlink:href="#decoration51-sprite1"/>
    <use ffdec:characterId="776" height="63.2" transform="matrix(-0.3067, -0.5312, -0.5312, 0.3067, 30.6626, -132.5745)" width="55.45" xlink:href="#decoration51-sprite1"/>
    <use ffdec:characterId="776" height="63.2" transform="matrix(-0.8766, -0.1357, -0.1357, 0.8766, 34.9167, -148.6729)" width="55.45" xlink:href="#decoration51-sprite1"/>
    <use ffdec:characterId="776" height="63.2" transform="matrix(0.2339, -0.5302, -0.5302, -0.2339, -21.4729, -102.8856)" width="55.45" xlink:href="#decoration51-sprite1"/>
    <use ffdec:characterId="776" height="63.2" transform="matrix(-0.7937, -0.3023, -0.1844, 0.5664, 83.613, -125.4727)" width="55.45" xlink:href="#decoration51-sprite1"/>
    <use ffdec:characterId="776" height="63.2" transform="matrix(0.1721, 0.7413, -0.7413, 0.1721, -19.1836, -176.8956)" width="55.45" xlink:href="#decoration51-sprite1"/>
    <use ffdec:characterId="776" height="63.2" transform="matrix(0.0, -0.8871, 0.8871, 0.0, -4.3105, -110.9782)" width="55.45" xlink:href="#decoration51-sprite1"/>
    <use ffdec:characterId="776" height="63.2" transform="matrix(-0.5097, -0.4765, -0.4765, 0.5097, 18.9942, -140.2093)" width="55.45" xlink:href="#decoration51-sprite1"/>
    <use ffdec:characterId="776" height="63.2" transform="matrix(-0.1268, -0.819, 0.819, -0.1268, 4.7451, -121.7509)" width="55.45" xlink:href="#decoration51-sprite1"/>
    <use ffdec:characterId="776" height="63.2" transform="matrix(-0.5618, -0.5274, -0.4061, 0.6398, 46.2826, -166.7421)" width="55.45" xlink:href="#decoration51-sprite1"/>
    <use ffdec:characterId="775" height="21.2" transform="matrix(0.0, 0.6676, -0.6676, 0.0441, -50.4165, -174.1923)" width="18.75" xlink:href="#decoration51-sprite0"/>
    <use ffdec:characterId="776" height="63.2" transform="matrix(-0.3887, 0.7575, -0.6096, -0.3061, 28.5105, -196.3822)" width="55.45" xlink:href="#decoration51-sprite1"/>
    <use ffdec:characterId="379" height="116.85" transform="matrix(0.1874, -0.2235, 0.3325, 0.2787, -62.7294, -124.7951)" width="220.6" xlink:href="#decoration51-sprite2"/>
    <use ffdec:characterId="779" height="211.1" transform="matrix(1.0, 0.0, 0.0, 1.0, -65.25, -207.25)" width="142.85" xlink:href="#decoration51-shape4"/>
  </g>
  <defs>
    <g id="decoration51-sprite0" transform="matrix(1.0, 0.0, 0.0, 1.0, 0.2, 0.2)">
      <use ffdec:characterId="6" height="21.2" transform="matrix(1.0, 0.0, 0.0, 1.0, -0.2, -0.2)" width="18.75" xlink:href="#decoration51-shape0"/>
    </g>
    <g id="decoration51-shape0" transform="matrix(1.0, 0.0, 0.0, 1.0, 0.2, 0.2)">
      <path d="M14.6 0.0 Q16.7 1.2 17.4 2.6 18.1 4.0 16.95 4.1 15.8 4.2 17.45 5.75 19.1 7.3 17.8 8.1 16.75 8.7 14.9 8.75 15.2 9.1 15.55 11.4 15.7 12.35 14.8 13.05 L13.85 13.55 Q11.2 8.85 8.9 6.75 11.3 3.15 14.6 0.0 11.3 3.15 8.9 6.75 7.1 9.75 6.4 11.25 L7.6 6.7 4.1 6.6 Q3.6 6.1 4.1 5.05 4.85 3.45 7.95 2.8 4.85 1.2 9.3 0.55 L14.6 0.0" fill="#4b3404" fill-rule="evenodd" stroke="none"/>
      <path d="M8.9 6.75 Q11.2 8.85 13.85 13.55 14.0 16.1 12.7 17.15 L11.65 17.3 10.55 17.15 Q9.9 16.85 8.4 18.7 6.9 20.55 5.2 18.3 3.9 21.0 1.75 20.8 -1.05 18.25 0.7 15.55 -1.2 13.25 2.05 11.9 2.35 11.4 1.6 10.25 0.85 9.1 1.4 8.15 1.65 7.8 2.8 7.2 L4.1 6.6 7.6 6.7 6.4 11.25 Q7.1 9.75 8.9 6.75 M5.75 8.85 L6.65 8.45 5.75 8.85 M8.85 15.5 Q8.9 10.6 9.2 9.8 8.9 10.6 8.85 15.5 M6.4 11.25 Q5.7 12.65 5.15 14.15 5.7 12.65 6.4 11.25 M3.5 13.1 L1.5 14.45 3.5 13.1" fill="url(#decoration51-gradient0)" fill-rule="evenodd" stroke="none"/>
      <path d="M13.85 13.55 L14.8 13.05 Q15.7 12.35 15.55 11.4 15.2 9.1 14.9 8.75 16.75 8.7 17.8 8.1 19.1 7.3 17.45 5.75 15.8 4.2 16.95 4.1 18.1 4.0 17.4 2.6 16.7 1.2 14.6 0.0 L9.3 0.55 Q4.85 1.2 7.95 2.8 4.85 3.45 4.1 5.05 3.6 6.1 4.1 6.6 L2.8 7.2 Q1.65 7.8 1.4 8.15 0.85 9.1 1.6 10.25 2.35 11.4 2.05 11.9 -1.2 13.25 0.7 15.55 -1.05 18.25 1.75 20.8 3.9 21.0 5.2 18.3 6.9 20.55 8.4 18.7 9.9 16.85 10.55 17.15 L11.65 17.3 12.7 17.15 Q14.0 16.1 13.85 13.55" fill="none" stroke="#321502" stroke-linecap="round" stroke-linejoin="round" stroke-opacity="0.2784314" stroke-width="0.4"/>
      <path d="M14.6 0.0 Q11.3 3.15 8.9 6.75 7.1 9.75 6.4 11.25 5.7 12.65 5.15 14.15 M6.65 8.45 L5.75 8.85 M1.5 14.45 L3.5 13.1 M9.2 9.8 Q8.9 10.6 8.85 15.5" fill="none" stroke="#321502" stroke-linecap="round" stroke-linejoin="round" stroke-opacity="0.16078432" stroke-width="0.4"/>
    </g>
    <linearGradient gradientTransform="matrix(0.0051, -0.0088, 0.011, 0.0063, 7.6, 13.3)" gradientUnits="userSpaceOnUse" id="decoration51-gradient0" spreadMethod="pad" x1="-819.2" x2="819.2">
      <stop offset="0.0" stop-color="#614b18"/>
      <stop offset="0.9764705882352941" stop-color="#4f3809"/>
    </linearGradient>
    <g id="decoration51-sprite1" transform="matrix(1.0, 0.0, 0.0, 1.0, 0.25, 0.35)">
      <use ffdec:characterId="775" height="21.2" transform="matrix(1.1086, 0.0, 0.0, 1.1086, 13.3783, 36.1283)" width="18.75" xlink:href="#decoration51-sprite0"/>
      <use ffdec:characterId="775" height="21.2" transform="matrix(0.658, 0.6579, -0.6579, 0.658, 13.7, 19.6868)" width="18.75" xlink:href="#decoration51-sprite0"/>
      <use ffdec:characterId="775" height="21.2" transform="matrix(-1.3822, -0.3703, -0.3703, 1.3822, 55.2005, 33.5476)" width="18.75" xlink:href="#decoration51-sprite0"/>
      <use ffdec:characterId="775" height="21.2" transform="matrix(-0.8313, 0.8312, -0.9378, -0.63, 45.6038, 13.0597)" width="18.75" xlink:href="#decoration51-sprite0"/>
      <use ffdec:characterId="379" height="116.85" transform="matrix(-0.0271, -0.1011, 0.1594, -0.0427, 22.3217, 26.9393)" width="220.6" xlink:href="#decoration51-sprite2"/>
      <use ffdec:characterId="379" height="116.85" transform="matrix(-0.0271, -0.1011, 0.1594, -0.0427, 35.2217, 58.3393)" width="220.6" xlink:href="#decoration51-sprite2"/>
    </g>
    <g id="decoration51-sprite2" transform="matrix(1.0, 0.0, 0.0, 1.0, -2.6, 0.05)">
      <use ffdec:characterId="8" height="116.85" transform="matrix(1.0, 0.0, 0.0, 1.0, 2.6, -0.05)" width="220.6" xlink:href="#decoration51-shape1"/>
    </g>
    <g id="decoration51-shape1" transform="matrix(1.0, 0.0, 0.0, 1.0, -2.6, 0.05)">
      <path d="M216.6 72.9 Q209.6 82.3 197.3 90.5 165.65 111.5 112.85 116.1 61.0 120.6 28.05 95.7 15.85 86.45 8.7 74.85 2.6 65.0 2.6 58.05 2.6 51.0 7.9 41.95 14.25 31.1 25.85 22.35 57.15 -1.2 112.85 0.0 173.9 1.15 201.1 17.6 224.7 31.9 223.1 58.05 222.7 64.7 216.6 72.9" fill="url(#decoration51-gradient1)" fill-rule="evenodd" stroke="none"/>
    </g>
    <radialGradient cx="0" cy="0" gradientTransform="matrix(0.0971, 0.0, 0.0, 0.0572, 109.5, 53.65)" gradientUnits="userSpaceOnUse" id="decoration51-gradient1" r="819.2" spreadMethod="pad">
      <stop offset="0.0" stop-color="#5c7172" stop-opacity="0.45882353"/>
      <stop offset="0.19607843137254902" stop-color="#617172" stop-opacity="0.34117648"/>
      <stop offset="1.0" stop-color="#727272" stop-opacity="0.0"/>
    </radialGradient>
    <g id="decoration51-shape2" transform="matrix(1.0, 0.0, 0.0, 1.0, 32.0, 144.4)">
      <path d="M25.25 -139.3 L26.95 -140.35 Q25.6 -137.5 21.85 -134.25 L15.1 -129.05 10.85 -126.5 6.1 -124.0 Q4.1 -122.85 2.2 -121.4 L2.15 -121.65 Q2.15 -123.2 5.4 -126.1 L6.55 -126.35 6.7 -126.4 Q6.7 -126.1 9.35 -127.05 12.5 -128.1 14.9 -129.95 L18.45 -132.6 20.75 -134.9 Q22.6 -137.25 25.25 -139.3 M-30.5 -129.0 L2.0 -109.15 -4.15 -108.55 -31.75 -124.95 -30.5 -129.0" fill="#513926" fill-rule="evenodd" stroke="none"/>
      <path d="M26.95 -140.35 L32.3 -143.4 35.05 -144.15 Q33.3 -140.0 16.7 -129.2 11.35 -125.75 9.05 -122.35 7.2 -118.75 5.6 -116.7 0.75 -116.75 -0.1 -118.65 2.35 -120.25 2.2 -121.4 4.1 -122.85 6.1 -124.0 L10.85 -126.5 15.1 -129.05 21.85 -134.25 Q25.6 -137.5 26.95 -140.35" fill="#312419" fill-rule="evenodd" stroke="none"/>
      <path d="M5.4 -126.1 Q8.95 -129.25 16.35 -133.95 20.55 -136.6 25.25 -139.3 22.6 -137.25 20.75 -134.9 L18.45 -132.6 14.9 -129.95 Q12.5 -128.1 9.35 -127.05 6.7 -126.1 6.7 -126.4 L6.55 -126.35 5.4 -126.1" fill="#644a2b" fill-rule="evenodd" stroke="none"/>
      <path d="M25.25 -139.3 L26.95 -140.35 32.3 -143.4 35.05 -144.15 Q33.3 -140.0 16.7 -129.2 11.35 -125.75 9.05 -122.35 7.2 -118.75 5.6 -116.7 0.75 -116.75 -0.1 -118.65 2.35 -120.25 2.2 -121.4 L2.15 -121.65 Q2.15 -123.2 5.4 -126.1 8.95 -129.25 16.35 -133.95 20.55 -136.6 25.25 -139.3 M-30.5 -129.0 L2.0 -109.15 -4.15 -108.55 -31.75 -124.95 -30.5 -129.0 Z" fill="none" stroke="#000000" stroke-linecap="round" stroke-linejoin="round" stroke-opacity="0.4117647" stroke-width="0.5"/>
    </g>
    <g id="decoration51-shape3" transform="matrix(1.0, 0.0, 0.0, 1.0, 29.6, 178.05)">
      <path d="M-8.6 -117.45 L-4.55 -119.2 Q0.1 -114.25 2.8 -109.65 1.95 -105.4 1.8 -99.2 L-8.6 -117.45 M3.05 -73.55 L3.1 -71.95 1.8 -66.1 Q2.15 -66.25 2.75 -63.45 L1.7 -60.15 Q0.35 -62.6 0.35 -65.4 0.35 -66.6 1.8 -70.25 L3.05 -73.55 M2.95 -24.3 Q2.95 -19.75 3.55 -13.7 2.4 -15.55 0.15 -21.85 L-0.2 -24.7 0.95 -30.95 1.4 -29.45 0.4 -25.15 1.4 -29.45 2.1 -26.75 Q2.65 -24.9 2.95 -24.3" fill="#2a1905" fill-rule="evenodd" stroke="none"/>
      <path d="M2.55 -0.2 L1.2 -0.1 -2.0 -18.8 Q-2.4 -14.3 -3.15 -10.8 -3.7 -8.15 -3.7 -5.8 L-5.55 -2.6 -7.4 0.25 Q-6.7 -1.65 -5.95 -4.25 -4.55 -9.4 -4.55 -12.7 L-5.3 -18.7 -3.75 -24.85 Q-3.35 -26.25 -2.5 -35.65 -2.45 -36.9 -2.9 -41.75 -3.4 -47.6 -4.2 -50.6 -4.0 -52.65 -4.55 -63.8 L-2.65 -71.45 Q-0.65 -78.7 -0.45 -80.7 -0.2 -83.35 -2.35 -91.1 -4.45 -98.45 -6.1 -101.55 -7.4 -104.3 -9.05 -106.95 -8.0 -105.7 -3.65 -97.4 0.85 -88.75 1.1 -87.0 1.7 -82.85 1.7 -81.15 1.7 -77.95 0.75 -74.55 L-0.45 -71.2 Q-2.55 -66.15 -2.55 -65.15 -2.55 -64.2 -0.2 -55.2 L-1.8 -51.15 -0.05 -46.75 1.4 -40.5 Q1.4 -37.6 0.6 -35.35 -1.1 -29.95 -1.1 -28.3 L-0.2 -24.7 Q-0.95 -20.55 -0.95 -16.4 L0.6 -8.55 Q2.2 -1.25 2.55 -0.2 M0.75 -74.55 L0.7 -76.35 0.9 -78.75 0.7 -76.35 0.75 -74.55 M-3.75 -19.9 Q-3.4 -21.85 -2.5 -35.65 -3.4 -21.85 -3.75 -19.9" fill="#563f25" fill-rule="evenodd" stroke="none"/>
      <path d="M-8.6 -117.45 L1.8 -99.2 Q1.55 -89.05 3.05 -73.55 L1.8 -70.25 Q0.35 -66.6 0.35 -65.4 0.35 -62.6 1.7 -60.15 L1.1 -58.5 0.6 -62.05 1.1 -58.5 -0.2 -55.2 Q-2.55 -64.2 -2.55 -65.15 -2.55 -66.15 -0.45 -71.2 L0.75 -74.55 Q1.7 -77.95 1.7 -81.15 1.7 -82.85 1.1 -87.0 0.85 -88.75 -3.65 -97.4 -8.0 -105.7 -9.05 -106.95 L-14.05 -115.1 -8.6 -117.45 M3.0 -55.8 Q2.95 -54.3 3.8 -52.1 4.6 -50.1 4.75 -50.2 5.95 -51.1 8.85 -54.9 6.7 -50.55 5.7 -47.1 L5.7 -44.65 Q5.35 -40.0 4.9 -37.85 L3.95 -34.45 Q2.85 -31.15 2.95 -24.3 2.65 -24.9 2.1 -26.75 L1.4 -29.45 0.95 -30.95 -0.2 -24.7 -1.1 -28.3 Q-1.1 -29.95 0.6 -35.35 1.4 -37.6 1.4 -40.5 L-0.05 -46.75 0.4 -47.95 1.55 -46.75 1.2 -52.9 3.0 -55.8 M1.2 -0.1 L-7.4 0.25 -5.55 -2.6 -3.7 -5.8 Q-3.7 -8.15 -3.15 -10.8 -2.4 -14.3 -2.0 -18.8 L1.2 -0.1 M0.75 -74.55 L0.9 -72.45 0.75 -74.55 M1.8 -45.6 Q1.8 -45.2 2.7 -44.4 3.55 -43.65 3.55 -43.95 L3.4 -45.2 2.65 -46.2 1.9 -46.35 1.8 -45.6 M2.45 -38.2 L2.0 -32.55 1.4 -29.45 2.0 -32.55 2.45 -38.2 M-0.2 -1.5 L-1.05 -4.05 Q-1.7 -6.25 -1.6 -7.4 -1.7 -6.25 -1.05 -4.05 L-0.2 -1.5" fill="#3c2b18" fill-rule="evenodd" stroke="none"/>
      <path d="M2.75 -63.45 L3.0 -55.8 1.2 -52.9 -0.2 -55.2 1.1 -58.5 1.4 -55.55 1.1 -58.5 1.7 -60.15 2.75 -63.45" fill="#383c14" fill-rule="evenodd" stroke="none"/>
      <path d="M1.8 -45.6 L1.9 -46.35 2.65 -46.2 3.4 -45.2 3.55 -43.95 Q3.55 -43.65 2.7 -44.4 1.8 -45.2 1.8 -45.6" fill="#404610" fill-rule="evenodd" stroke="none"/>
      <path d="M1.2 -52.9 L1.55 -46.75 0.4 -47.95 1.2 -52.9" fill="#543217" fill-rule="evenodd" stroke="none"/>
      <path d="M3.55 -13.7 Q5.0 -8.9 6.85 -4.8 8.65 -0.75 9.75 -0.2 L4.2 -0.2 Q4.05 -2.25 0.15 -21.85 2.4 -15.55 3.55 -13.7" fill="#373c11" fill-rule="evenodd" stroke="none"/>
      <path d="M4.2 -0.2 L2.55 -0.2 Q2.2 -1.25 0.6 -8.55 L-0.95 -16.4 Q-0.95 -20.55 -0.2 -24.7 L0.15 -21.85 Q4.05 -2.25 4.2 -0.2" fill="#404324" fill-rule="evenodd" stroke="none"/>
      <path d="M1.2 -52.9 L0.4 -47.95 -0.05 -46.75 -1.8 -51.15 -0.2 -55.2 1.2 -52.9" fill="#474d1a" fill-rule="evenodd" stroke="none"/>
      <path d="M-26.25 -150.1 L-29.4 -157.9 Q-29.2 -157.85 -28.8 -158.1 L-28.1 -158.4 -25.8 -153.1 Q-23.3 -148.15 -21.0 -146.1 -19.2 -144.55 -14.45 -137.4 -9.5 -129.9 -8.85 -130.6 L-8.0 -126.1 -9.65 -128.7 Q-10.9 -130.9 -11.75 -131.65 L-15.45 -135.1 Q-17.8 -137.25 -19.35 -139.15 -23.5 -144.3 -26.25 -150.1 M-6.55 -173.5 Q-6.95 -174.75 -6.2 -177.85 L-3.05 -168.25 Q-0.6 -160.2 -0.7 -157.05 L-0.6 -150.95 -0.55 -144.7 Q-0.6 -140.6 -0.15 -138.35 L0.35 -135.5 Q0.35 -135.4 -1.3 -134.25 -3.0 -133.0 -3.35 -132.9 -3.25 -135.75 -3.7 -138.85 -4.15 -142.1 -4.15 -145.6 L-3.9 -156.85 -3.95 -158.95 -10.8 -163.3 -13.55 -169.45 -13.25 -170.4 -9.85 -164.7 -4.05 -162.45 Q-4.3 -165.9 -4.9 -168.15 L-6.55 -173.5" fill="#3a1f0a" fill-rule="evenodd" stroke="none"/>
      <path d="M-7.4 0.25 L-9.6 0.25 Q-8.25 -2.55 -7.65 -7.15 L-6.8 -14.9 -5.3 -20.35 Q-4.1 -24.75 -2.5 -35.65 -3.35 -26.25 -3.75 -24.85 L-5.3 -18.7 -4.55 -12.7 Q-4.55 -9.4 -5.95 -4.25 -6.7 -1.65 -7.4 0.25 M-4.2 -50.6 L-5.3 -55.45 Q-6.35 -60.15 -6.15 -60.7 -5.95 -61.6 -5.25 -70.1 -3.9 -73.25 -3.9 -74.3 -3.9 -75.45 -4.15 -75.85 L-5.4 -77.75 -5.7 -80.5 -4.9 -79.6 Q-4.0 -78.75 -3.65 -78.75 -2.15 -78.75 -1.5 -79.95 -0.85 -81.15 -1.0 -83.7 -1.15 -86.25 -2.85 -87.9 L-2.95 -88.0 Q-4.3 -87.25 -4.5 -85.0 -4.65 -82.75 -3.35 -83.0 -4.65 -82.75 -4.5 -85.0 -4.3 -87.25 -2.95 -88.0 L-2.85 -87.9 Q-1.95 -86.65 -1.55 -84.25 -1.15 -81.9 -3.1 -80.7 L-5.35 -80.6 -5.8 -82.25 -5.85 -84.85 Q-4.35 -88.5 -3.6 -88.85 -3.05 -89.1 -4.1 -92.6 -5.1 -95.95 -6.1 -97.6 L-6.1 -101.55 Q-4.45 -98.45 -2.35 -91.1 -0.2 -83.35 -0.45 -80.7 -0.65 -78.7 -2.65 -71.45 L-4.55 -63.8 Q-4.0 -52.65 -4.2 -50.6" fill="#856638" fill-rule="evenodd" stroke="none"/>
      <path d="M-9.6 0.25 L-11.45 0.25 Q-9.25 -0.1 -8.85 -4.85 -8.45 -8.95 -6.8 -14.9 L-7.65 -7.15 Q-8.25 -2.55 -9.6 0.25 M-5.25 -70.1 Q-5.1 -73.85 -5.4 -77.75 L-4.15 -75.85 Q-3.9 -75.45 -3.9 -74.3 -3.9 -73.25 -5.25 -70.1 M-5.7 -80.5 L-5.8 -82.25 -5.35 -80.6 -3.1 -80.7 Q-1.15 -81.9 -1.55 -84.25 -1.95 -86.65 -2.85 -87.9 -1.15 -86.25 -1.0 -83.7 -0.85 -81.15 -1.5 -79.95 -2.15 -78.75 -3.65 -78.75 -4.0 -78.75 -4.9 -79.6 L-5.7 -80.5 M-5.85 -84.85 L-6.1 -97.6 Q-5.1 -95.95 -4.1 -92.6 -3.05 -89.1 -3.6 -88.85 -4.35 -88.5 -5.85 -84.85" fill="#b4914d" fill-rule="evenodd" stroke="none"/>
      <path d="M1.8 -99.2 Q1.95 -105.4 2.8 -109.65 0.1 -114.25 -4.55 -119.2 L-8.6 -117.45 -14.05 -115.1 -9.05 -106.95 Q-7.4 -104.3 -6.1 -101.55 L-6.1 -97.6 -5.85 -84.85 -5.8 -82.25 -5.7 -80.5 -5.4 -77.75 Q-5.1 -73.85 -5.25 -70.1 -5.95 -61.6 -6.15 -60.7 -6.35 -60.15 -5.3 -55.45 L-4.2 -50.6 Q-3.4 -47.6 -2.9 -41.75 -2.45 -36.9 -2.5 -35.65 -3.4 -21.85 -3.75 -19.9 M1.8 -99.2 Q1.55 -89.05 3.05 -73.55 L3.1 -71.95 1.8 -66.1 Q2.15 -66.25 2.75 -63.45 L3.0 -55.8 Q2.95 -54.3 3.8 -52.1 4.6 -50.1 4.75 -50.2 5.95 -51.1 8.85 -54.9 6.7 -50.55 5.7 -47.1 L5.7 -44.65 Q5.35 -40.0 4.9 -37.85 L3.95 -34.45 Q2.85 -31.15 2.95 -24.3 2.95 -19.75 3.55 -13.7 5.0 -8.9 6.85 -4.8 8.65 -0.75 9.75 -0.2 L4.2 -0.2 2.55 -0.2 1.2 -0.1 -7.4 0.25 -9.6 0.25 -11.45 0.25 Q-9.25 -0.1 -8.85 -4.85 -8.45 -8.95 -6.8 -14.9 L-5.3 -20.35 Q-4.1 -24.75 -2.5 -35.65 M-6.55 -173.5 L-4.9 -168.15 Q-4.3 -165.9 -4.05 -162.45 L-9.85 -164.7 -13.25 -170.4 -13.55 -169.45 -10.8 -163.3 -3.95 -158.95 -3.9 -156.85 -4.15 -145.6 Q-4.15 -142.1 -3.7 -138.85 -3.25 -135.75 -3.35 -132.9 -3.0 -133.0 -1.3 -134.25 0.35 -135.4 0.35 -135.5 L-0.15 -138.35 Q-0.6 -140.6 -0.55 -144.7 L-0.6 -150.95 -0.7 -157.05 Q-0.6 -160.2 -3.05 -168.25 L-6.2 -177.85 Q-6.95 -174.75 -6.55 -173.5 M-26.25 -150.1 Q-23.5 -144.3 -19.35 -139.15 -17.8 -137.25 -15.45 -135.1 L-11.75 -131.65 Q-10.9 -130.9 -9.65 -128.7 L-8.0 -126.1 -8.85 -130.6 Q-9.5 -129.9 -14.45 -137.4 -19.2 -144.55 -21.0 -146.1 -23.3 -148.15 -25.8 -153.1 L-28.1 -158.4 -28.8 -158.1 Q-29.2 -157.85 -29.4 -157.9 L-26.25 -150.1" fill="none" stroke="#000000" stroke-linecap="round" stroke-linejoin="round" stroke-opacity="0.3882353" stroke-width="0.4"/>
      <path d="M0.9 -78.75 L0.7 -76.35 0.75 -74.55 0.9 -72.45 M1.1 -58.5 L1.4 -55.55 M1.1 -58.5 L0.6 -62.05 M1.4 -29.45 L2.0 -32.55 2.45 -38.2 M1.4 -29.45 L0.4 -25.15 M-2.85 -87.9 L-2.95 -88.0 Q-4.3 -87.25 -4.5 -85.0 -4.65 -82.75 -3.35 -83.0 M-2.85 -87.9 Q-1.15 -86.25 -1.0 -83.7 -0.85 -81.15 -1.5 -79.95 -2.15 -78.75 -3.65 -78.75 -4.0 -78.75 -4.9 -79.6 L-5.7 -80.5 M-1.6 -7.4 Q-1.7 -6.25 -1.05 -4.05 L-0.2 -1.5" fill="none" stroke="#000000" stroke-linecap="round" stroke-linejoin="round" stroke-opacity="0.21176471" stroke-width="0.4"/>
    </g>
    <g id="decoration51-shape4" transform="matrix(1.0, 0.0, 0.0, 1.0, 65.25, 207.25)">
      <path d="M-16.4 -194.65 L-16.25 -196.5 -15.8 -199.25 Q-14.75 -203.15 -12.1 -203.15 -10.9 -203.15 -9.5 -200.95 -8.05 -198.75 -6.95 -198.75 L-5.4 -199.0 -2.45 -199.5 Q-0.95 -199.7 0.4 -201.3 1.75 -202.9 2.55 -204.95 4.1 -207.45 6.95 -206.4 9.65 -205.35 9.65 -203.5 9.65 -204.2 6.6 -193.3 6.6 -192.85 7.9 -191.8 9.15 -190.85 8.75 -187.65 L8.85 -187.4 9.5 -187.2 Q10.3 -187.2 11.2 -187.95 L12.45 -188.7 Q14.0 -188.7 16.15 -185.45 18.0 -182.65 18.6 -180.35 20.05 -180.6 20.9 -181.7 21.5 -182.55 26.25 -182.55 30.25 -182.55 31.3 -181.2 31.65 -180.8 31.65 -179.55 L31.65 -176.8 Q29.8 -178.75 28.1 -178.85 L25.3 -179.15 Q24.2 -179.4 22.0 -177.2 19.75 -175.0 18.65 -175.85 17.55 -176.7 16.25 -179.3 L14.1 -183.65 Q13.25 -184.7 11.45 -185.25 L7.8 -185.95 Q5.8 -186.25 4.9 -188.05 L3.2 -192.4 Q1.85 -195.95 -2.5 -194.15 L-10.45 -190.6 Q-14.05 -188.85 -15.2 -190.85 -16.4 -192.9 -16.4 -194.65 M49.85 -167.8 L48.25 -168.25 36.55 -164.6 36.0 -164.25 Q27.95 -159.55 27.95 -158.6 L28.2 -157.8 27.95 -157.55 Q28.9 -157.0 29.85 -155.35 L31.3 -152.3 Q32.75 -148.55 32.75 -146.85 L32.75 -146.45 31.8 -147.75 28.75 -152.65 26.7 -154.55 25.45 -155.45 24.35 -155.85 21.3 -156.3 20.7 -156.4 Q19.6 -156.7 18.95 -157.05 L18.95 -157.1 Q18.95 -157.6 20.3 -158.7 L20.85 -159.2 Q22.8 -160.8 23.8 -160.8 24.8 -160.8 25.3 -160.05 L25.85 -159.15 27.35 -162.8 Q28.4 -165.5 30.2 -165.5 31.35 -165.5 31.7 -165.05 L31.95 -164.4 33.45 -167.25 Q34.55 -169.1 35.85 -169.35 L36.3 -169.4 Q37.55 -169.4 37.7 -168.85 37.85 -168.35 37.95 -168.35 L44.55 -169.55 Q48.9 -169.95 49.85 -167.8 M12.75 -168.65 Q13.9 -167.55 13.9 -166.9 13.9 -164.0 10.45 -161.9 L10.35 -161.85 Q7.05 -159.95 2.65 -159.7 0.85 -159.6 -0.55 -158.7 -1.95 -157.8 -2.5 -156.45 -3.05 -154.3 -3.35 -153.6 -3.8 -152.45 -5.15 -152.45 L-5.2 -152.45 -5.35 -152.8 -5.45 -153.05 -5.45 -153.9 -5.45 -154.25 Q-5.35 -156.8 -3.85 -160.15 L-3.5 -160.95 Q-0.65 -166.95 3.55 -166.7 6.45 -170.55 10.2 -169.6 L12.75 -168.65 M35.3 -136.9 Q33.35 -137.25 32.4 -139.1 30.8 -142.05 29.8 -143.05 L30.1 -143.45 Q30.5 -143.85 31.3 -143.8 33.05 -143.65 34.5 -141.45 35.3 -139.8 35.35 -138.8 L35.3 -136.9 M38.95 -136.1 Q39.55 -138.2 43.5 -135.25 48.15 -131.8 48.15 -128.25 48.15 -127.65 47.65 -127.4 46.45 -127.8 45.85 -129.35 L44.35 -133.2 Q43.8 -133.85 40.6 -134.85 39.35 -135.25 38.95 -136.1 M33.4 -107.7 L33.1 -108.25 33.0 -109.95 Q33.0 -111.65 34.85 -114.7 L35.35 -115.5 Q38.0 -119.55 40.4 -119.55 L41.15 -119.25 41.4 -118.8 Q43.15 -120.25 45.7 -120.2 46.05 -119.8 46.05 -119.15 46.05 -117.5 44.2 -116.25 L40.55 -113.6 39.9 -112.9 37.4 -110.4 Q34.55 -107.7 33.65 -107.7 L33.4 -107.7 M49.7 -124.8 Q49.6 -125.5 49.65 -126.15 49.65 -128.2 49.95 -128.9 50.8 -130.9 54.05 -131.1 56.0 -132.85 57.7 -133.8 60.8 -135.5 62.95 -134.45 65.2 -133.3 65.4 -130.55 64.55 -129.6 63.75 -129.6 60.15 -129.6 57.55 -128.7 55.8 -128.1 54.5 -127.1 L52.5 -125.4 Q51.6 -124.65 50.8 -124.65 L49.7 -124.8 M62.85 -98.4 Q61.4 -99.2 60.65 -100.75 L60.15 -101.9 59.2 -104.5 56.85 -107.05 Q55.95 -108.1 55.95 -110.35 L55.95 -110.7 56.1 -110.65 57.35 -109.85 57.6 -109.7 61.5 -105.8 62.3 -102.85 63.2 -99.15 Q63.2 -98.65 62.85 -98.4 M72.6 -111.65 L71.25 -112.7 70.8 -113.05 66.85 -114.25 Q64.3 -114.95 63.2 -116.1 L63.0 -116.1 Q63.4 -116.75 64.45 -116.85 66.2 -117.05 66.6 -114.75 L68.15 -115.35 70.1 -115.85 Q71.5 -115.85 72.3 -114.4 73.05 -113.0 72.6 -111.65 74.3 -111.15 75.75 -109.95 L76.55 -109.2 Q75.4 -109.7 74.15 -110.55 L72.6 -111.65 M2.7 -54.35 L3.0 -58.0 3.85 -58.1 Q4.75 -58.1 4.95 -56.4 5.15 -54.75 6.0 -54.75 L7.2 -55.55 8.25 -56.5 8.7 -56.15 8.8 -55.55 8.8 -55.5 8.4 -54.95 Q6.9 -52.8 5.45 -52.8 5.1 -52.8 3.4 -53.9 L2.7 -54.35 M4.2 -13.05 Q4.45 -13.35 4.95 -13.35 5.4 -13.35 8.0 -10.15 10.8 -6.7 12.95 -5.9 L21.0 -3.25 28.9 -0.6 22.65 0.0 11.95 -0.65 9.0 1.4 6.8 2.8 Q5.2 3.55 3.6 3.65 L-0.75 3.85 -1.15 3.85 -3.35 3.65 Q-4.9 3.3 -6.65 2.4 L-7.1 1.9 -8.4 0.2 Q-9.45 -1.2 -11.75 -1.5 -14.05 -1.8 -16.5 -0.35 -19.0 1.05 -22.35 0.95 -25.75 0.8 -27.85 0.95 L-28.9 0.95 -31.6 0.65 -26.55 -1.75 Q-21.15 -4.25 -20.6 -4.8 -19.35 -6.05 -15.05 -6.65 -11.0 -7.2 -9.6 -9.3 L-7.0 -15.75 -6.8 -16.2 -6.65 -16.5 -6.75 -14.85 -7.2 -10.8 -7.6 -6.1 Q-7.5 -5.45 -6.15 -4.15 -4.85 -2.95 -3.95 -2.7 L-3.9 -2.7 Q-3.25 -1.95 -2.7 -1.95 -1.15 -1.95 0.3 -2.7 1.8 -3.5 2.7 -3.5 L4.65 -3.15 6.0 -2.55 6.3 -2.55 7.1 -2.6 9.5 -2.1 10.65 -2.1 Q9.55 -3.15 7.15 -6.95 4.4 -11.3 4.2 -13.05 M-26.55 -181.75 Q-25.55 -183.0 -23.6 -184.0 -20.25 -185.8 -19.25 -186.6 -16.0 -189.3 -14.2 -188.05 L-12.75 -186.2 Q-11.55 -186.2 -10.95 -187.0 -10.4 -187.8 -9.75 -187.8 -7.25 -187.8 -5.1 -186.05 -5.55 -185.65 -6.3 -185.2 -8.2 -184.05 -10.15 -184.05 L-13.9 -184.6 -17.5 -185.2 Q-20.0 -185.2 -22.05 -183.45 -23.95 -181.85 -26.55 -181.75 M-45.25 -168.5 Q-44.65 -172.4 -40.15 -168.8 L-36.55 -165.05 Q-35.2 -163.25 -35.0 -162.4 -37.1 -162.7 -40.35 -165.55 -44.0 -168.8 -44.4 -168.8 L-45.25 -168.5 M-32.0 -153.35 L-31.95 -153.85 -31.8 -154.85 -31.5 -155.55 -31.3 -155.9 Q-30.5 -157.4 -28.5 -159.05 -24.45 -162.45 -20.45 -158.7 L-18.65 -159.35 Q-17.6 -159.35 -16.95 -158.4 L-16.8 -158.2 Q-18.7 -157.2 -19.6 -157.2 -20.8 -157.2 -21.9 -158.35 -23.0 -159.5 -23.8 -159.5 -25.2 -159.5 -28.75 -156.4 L-32.0 -153.35 M-65.05 -173.2 Q-64.45 -175.9 -58.8 -174.0 -52.7 -171.9 -52.5 -169.45 L-53.3 -169.4 Q-55.1 -169.4 -59.15 -171.4 -63.2 -173.4 -64.05 -173.4 L-65.05 -173.2 M-35.3 -148.4 L-35.4 -148.3 Q-36.55 -147.25 -39.5 -146.8 L-46.8 -145.8 -49.65 -144.35 -50.5 -143.9 Q-52.0 -143.05 -52.9 -141.8 L-54.95 -139.4 -56.0 -137.7 -55.95 -138.25 Q-55.95 -140.75 -53.45 -143.4 -51.45 -145.5 -48.55 -146.55 L-44.25 -147.5 Q-43.4 -149.0 -42.3 -149.75 -40.55 -150.95 -38.15 -150.1 -36.2 -149.35 -35.3 -148.4 M-49.5 -103.5 L-49.5 -104.65 -49.35 -107.05 Q-48.95 -108.5 -47.1 -109.2 -46.95 -110.1 -47.3 -113.85 -47.3 -115.2 -46.2 -116.5 -45.1 -117.85 -42.9 -119.1 -39.5 -121.1 -38.75 -119.65 L-38.75 -119.6 Q-39.7 -118.1 -41.4 -116.3 L-42.95 -114.7 -45.85 -111.55 Q-45.85 -109.7 -47.05 -106.85 -48.15 -104.25 -49.5 -103.5 M-13.45 -142.75 Q-14.35 -141.9 -16.15 -141.25 L-20.0 -140.25 -20.2 -140.25 Q-21.65 -139.6 -24.6 -137.55 -26.5 -136.25 -28.25 -136.25 L-30.65 -136.85 -31.4 -137.1 Q-31.4 -139.05 -30.0 -140.05 -29.0 -140.75 -25.0 -142.85 L-24.0 -143.4 Q-19.5 -145.85 -15.7 -144.15 L-13.45 -142.75 M-15.2 -102.6 L-15.45 -103.15 -16.35 -105.5 Q-16.7 -106.55 -16.65 -107.55 L-16.35 -110.0 -16.15 -111.1 -16.05 -112.5 Q-16.05 -115.55 -9.6 -121.4 -6.15 -124.5 -4.5 -125.4 -3.05 -124.3 -3.05 -123.2 -3.05 -121.75 -4.95 -120.5 L-7.6 -118.95 Q-8.8 -117.85 -8.95 -115.65 L-8.95 -112.1 -8.95 -111.8 Q-9.1 -109.9 -10.65 -109.55 -12.6 -109.1 -12.95 -108.1 L-13.1 -104.2 Q-13.15 -102.65 -15.2 -102.6" fill="#f3f7f8" fill-rule="evenodd" stroke="none"/>
      <path d="M31.65 -176.8 Q31.2 -175.1 30.35 -175.1 L28.5 -176.05 Q26.25 -177.0 23.65 -176.9 22.9 -176.85 20.35 -175.0 L17.8 -173.15 Q16.5 -173.15 16.05 -173.9 15.85 -174.25 15.9 -174.7 15.9 -175.2 17.0 -176.75 17.0 -177.35 15.7 -179.8 14.4 -182.3 13.8 -182.85 L12.35 -181.8 Q11.35 -181.8 11.05 -182.8 L10.95 -183.9 Q10.2 -183.5 9.45 -183.5 3.6 -183.5 3.45 -185.65 L3.15 -188.35 Q2.45 -190.95 0.5 -191.6 -2.3 -192.55 -8.0 -190.1 -13.95 -187.55 -15.15 -189.3 -16.4 -191.15 -16.45 -192.5 L-16.4 -194.65 Q-16.4 -192.9 -15.2 -190.85 -14.05 -188.85 -10.45 -190.6 L-2.5 -194.15 Q1.85 -195.95 3.2 -192.4 L4.9 -188.05 Q5.8 -186.25 7.8 -185.95 L11.45 -185.25 Q13.25 -184.7 14.1 -183.65 L16.25 -179.3 Q17.55 -176.7 18.65 -175.85 19.75 -175.0 22.0 -177.2 24.2 -179.4 25.3 -179.15 L28.1 -178.85 Q29.8 -178.75 31.65 -176.8 M28.2 -157.8 L27.95 -158.6 Q27.95 -159.55 36.0 -164.25 L36.55 -164.6 48.25 -168.25 49.85 -167.8 50.1 -166.95 50.1 -166.45 Q50.1 -165.65 49.6 -164.95 49.0 -164.25 48.3 -164.25 47.95 -164.25 47.8 -164.55 L47.25 -164.85 43.75 -163.7 Q39.7 -162.6 36.6 -162.6 36.25 -162.6 36.15 -162.3 L35.9 -162.0 35.7 -162.0 Q35.35 -162.0 35.1 -162.3 34.9 -162.6 34.5 -162.6 31.8 -161.2 28.95 -158.45 L28.2 -157.8 M18.95 -157.05 Q19.6 -156.7 20.7 -156.4 L21.3 -156.3 24.35 -155.85 25.45 -155.45 26.7 -154.55 28.75 -152.65 31.8 -147.75 32.75 -146.45 32.7 -145.95 32.5 -145.75 31.8 -145.55 31.15 -145.75 Q30.7 -146.15 30.45 -147.15 L30.15 -149.1 29.15 -150.8 Q28.35 -151.95 28.2 -152.7 L26.4 -152.65 Q25.3 -153.9 23.3 -154.85 22.0 -155.5 19.9 -155.6 18.95 -155.7 18.95 -157.05 M-5.2 -152.45 L-5.15 -152.45 Q-3.8 -152.45 -3.35 -153.6 -3.05 -154.3 -2.5 -156.45 -1.95 -157.8 -0.55 -158.7 0.85 -159.6 2.65 -159.7 7.05 -159.95 10.35 -161.85 L10.45 -161.9 Q13.9 -164.0 13.9 -166.9 13.9 -167.55 12.75 -168.65 15.25 -167.35 17.7 -164.65 L17.65 -164.35 17.2 -161.9 Q16.95 -160.55 14.35 -159.55 L10.45 -158.4 2.95 -157.05 Q1.85 -157.05 -0.55 -152.6 -3.0 -148.15 -4.05 -150.2 L-5.2 -152.45 M29.8 -143.05 Q30.8 -142.05 32.4 -139.1 33.35 -137.25 35.3 -136.9 L35.3 -136.6 35.25 -135.4 Q35.1 -134.75 34.35 -134.7 L34.25 -134.7 29.6 -142.0 29.8 -143.05 M47.65 -127.4 L46.85 -127.2 46.5 -127.2 Q44.7 -127.2 44.75 -129.1 L44.75 -131.55 44.7 -131.7 41.65 -133.15 Q38.85 -134.45 38.85 -135.3 L38.85 -135.35 38.95 -136.1 Q39.35 -135.25 40.6 -134.85 43.8 -133.85 44.35 -133.2 L45.85 -129.35 Q46.45 -127.8 47.65 -127.4 M45.7 -120.2 L46.9 -120.15 Q49.55 -119.8 50.0 -118.7 L50.1 -118.2 46.95 -116.2 Q43.5 -114.0 42.15 -112.5 L41.95 -112.2 40.0 -109.75 Q38.3 -107.75 36.5 -106.5 L34.55 -106.5 33.4 -107.7 33.65 -107.7 Q34.55 -107.7 37.4 -110.4 L39.9 -112.9 40.55 -113.6 44.2 -116.25 Q46.05 -117.5 46.05 -119.15 46.05 -119.8 45.7 -120.2 M65.4 -130.55 L65.4 -130.1 Q65.4 -128.75 65.1 -128.1 64.75 -127.4 64.1 -127.4 L62.65 -127.75 61.15 -128.1 Q59.55 -128.1 57.4 -126.65 L55.5 -125.25 Q52.1 -122.4 51.3 -122.4 50.15 -122.4 49.8 -124.05 L49.75 -124.2 49.7 -124.8 50.8 -124.65 Q51.6 -124.65 52.5 -125.4 L54.5 -127.1 Q55.8 -128.1 57.55 -128.7 60.15 -129.6 63.75 -129.6 64.55 -129.6 65.4 -130.55 M55.95 -110.7 L55.95 -110.35 Q55.95 -108.1 56.85 -107.05 L59.2 -104.5 60.15 -101.9 60.65 -100.75 Q61.4 -99.2 62.85 -98.4 L62.65 -98.3 61.6 -98.15 Q59.85 -98.15 59.75 -99.05 59.7 -99.55 60.0 -100.35 59.3 -100.65 58.6 -101.35 57.5 -102.4 56.35 -104.3 54.45 -107.4 54.45 -109.15 54.45 -111.3 55.95 -110.7 M63.0 -116.1 L63.2 -116.1 Q64.3 -114.95 66.85 -114.25 L70.8 -113.05 71.25 -112.7 72.6 -111.65 74.15 -110.55 Q75.4 -109.7 76.55 -109.2 77.25 -108.45 77.25 -107.85 L77.0 -107.15 Q76.65 -106.8 75.75 -106.8 75.1 -106.8 69.65 -110.6 L68.75 -111.25 Q62.75 -115.5 62.75 -115.05 L62.75 -115.2 Q62.8 -115.75 63.0 -116.1 M8.8 -55.5 Q8.75 -54.85 6.8 -52.25 4.7 -49.4 3.85 -49.4 L3.4 -49.5 Q3.25 -50.1 3.4 -50.45 L3.6 -50.85 3.15 -51.9 Q2.65 -52.75 2.65 -53.4 L2.7 -54.35 3.4 -53.9 Q5.1 -52.8 5.45 -52.8 6.9 -52.8 8.4 -54.95 L8.8 -55.5 M28.9 -0.6 Q30.3 0.1 30.3 0.5 30.3 1.55 28.95 1.55 L23.0 1.45 18.85 1.45 Q11.45 1.55 8.3 2.4 L6.8 2.8 9.0 1.4 11.95 -0.65 22.65 0.0 28.9 -0.6 M-6.65 2.4 L-7.55 1.9 Q-9.9 0.6 -15.15 1.8 L-27.85 0.95 Q-25.75 0.8 -22.35 0.95 -19.0 1.05 -16.5 -0.35 -14.05 -1.8 -11.75 -1.5 -9.45 -1.2 -8.4 0.2 L-7.1 1.9 -6.65 2.4 M-6.75 -14.85 L-6.3 -10.1 Q-5.55 -3.15 -3.95 -2.7 -4.85 -2.95 -6.15 -4.15 -7.5 -5.45 -7.6 -6.1 L-7.2 -10.8 -6.75 -14.85 M7.1 -2.6 Q7.35 -2.65 6.65 -4.7 L5.7 -7.15 Q3.9 -10.3 3.9 -12.0 3.9 -12.7 4.2 -13.05 4.4 -11.3 7.15 -6.95 9.55 -3.15 10.65 -2.1 L9.5 -2.1 7.1 -2.6 M-5.1 -186.05 L-2.6 -183.3 -7.45 -183.15 -8.6 -182.6 Q-9.6 -182.1 -10.2 -182.1 -11.55 -182.1 -12.95 -183.0 L-14.7 -183.9 Q-16.7 -183.9 -19.75 -182.15 -22.75 -180.45 -24.25 -180.45 -24.75 -180.45 -26.55 -181.75 -23.95 -181.85 -22.05 -183.45 -20.0 -185.2 -17.5 -185.2 L-13.9 -184.6 -10.15 -184.05 Q-8.2 -184.05 -6.3 -185.2 -5.55 -185.65 -5.1 -186.05 M-35.0 -162.4 L-34.95 -162.1 -35.0 -161.4 -35.5 -160.8 -35.9 -160.65 -36.9 -160.95 -37.05 -162.5 -38.15 -162.3 -40.35 -163.7 -43.2 -165.8 -43.35 -164.8 Q-43.55 -164.0 -44.3 -163.95 L-45.3 -164.3 -45.35 -167.1 -45.35 -167.5 -45.25 -168.5 -44.4 -168.8 Q-44.0 -168.8 -40.35 -165.55 -37.1 -162.7 -35.0 -162.4 M-16.8 -158.2 L-16.6 -157.8 -16.5 -157.35 Q-16.5 -156.9 -16.65 -156.6 -16.9 -156.25 -17.5 -156.2 L-19.6 -156.3 -20.6 -155.95 Q-21.2 -155.6 -21.6 -155.6 -22.75 -155.6 -22.8 -156.7 -22.8 -157.8 -23.7 -157.8 L-30.9 -152.55 Q-31.75 -152.55 -31.9 -153.05 L-31.95 -153.15 -32.0 -153.35 -28.75 -156.4 Q-25.2 -159.5 -23.8 -159.5 -23.0 -159.5 -21.9 -158.35 -20.8 -157.2 -19.6 -157.2 -18.7 -157.2 -16.8 -158.2 M-52.5 -169.45 L-52.5 -169.3 -52.55 -168.7 Q-52.7 -167.6 -53.65 -167.6 L-58.05 -169.3 Q-62.4 -171.1 -64.1 -171.2 L-65.1 -171.8 -65.15 -172.45 -65.1 -173.0 -65.05 -173.2 -64.05 -173.4 Q-63.2 -173.4 -59.15 -171.4 -55.1 -169.4 -53.3 -169.4 L-52.5 -169.45 M-56.0 -137.7 L-54.95 -139.4 -52.9 -141.8 Q-52.0 -143.05 -50.5 -143.9 L-49.65 -144.35 -46.8 -145.8 -39.5 -146.8 Q-36.55 -147.25 -35.4 -148.3 L-35.3 -148.4 -35.2 -148.25 -34.75 -147.4 -34.65 -146.7 Q-34.65 -146.2 -35.3 -145.35 -36.05 -144.45 -36.75 -144.45 L-38.55 -144.75 -40.4 -145.05 Q-41.0 -145.05 -41.4 -144.7 L-42.3 -144.0 -48.2 -143.4 Q-49.55 -143.3 -50.1 -142.75 L-50.35 -142.45 Q-50.65 -141.5 -51.15 -141.15 L-52.8 -138.9 Q-54.25 -136.95 -54.75 -136.95 L-55.0 -136.95 Q-55.8 -137.05 -55.95 -137.55 L-56.0 -137.7 M-38.75 -119.6 L-38.55 -118.55 Q-38.55 -117.2 -41.0 -114.7 L-41.5 -114.2 Q-43.5 -112.1 -43.5 -111.45 L-43.1 -110.4 -42.75 -109.6 Q-42.75 -109.15 -45.15 -105.65 -47.65 -102.05 -48.35 -102.05 L-48.9 -102.2 Q-49.4 -102.5 -49.5 -103.3 L-49.5 -103.5 Q-48.15 -104.25 -47.05 -106.85 -45.85 -109.7 -45.85 -111.55 L-42.95 -114.7 -41.4 -116.3 Q-39.7 -118.1 -38.75 -119.6 M-31.4 -137.1 L-30.65 -136.85 -28.25 -136.25 Q-26.5 -136.25 -24.6 -137.55 -21.65 -139.6 -20.2 -140.25 L-20.0 -140.25 -16.15 -141.25 Q-14.35 -141.9 -13.45 -142.75 L-13.1 -142.35 Q-12.6 -141.7 -12.6 -141.0 -12.6 -140.5 -16.55 -138.8 L-17.6 -138.35 Q-22.65 -136.25 -27.0 -135.0 L-30.35 -135.0 -31.05 -135.75 Q-31.4 -136.35 -31.4 -137.1 M-4.5 -125.4 Q-3.15 -126.15 -3.1 -125.25 -3.1 -123.35 -0.3 -123.4 2.5 -123.5 -2.05 -120.5 L-6.6 -117.3 -6.25 -116.25 -4.05 -113.3 -3.65 -112.75 Q-2.5 -110.85 -4.3 -109.45 -6.4 -107.9 -7.85 -107.1 -9.4 -106.3 -11.2 -103.2 -13.05 -100.15 -13.95 -100.9 L-15.2 -102.6 Q-13.15 -102.65 -13.1 -104.2 L-12.95 -108.1 Q-12.6 -109.1 -10.65 -109.55 -9.1 -109.9 -8.95 -111.8 L-8.95 -112.1 -8.95 -115.65 Q-8.8 -117.85 -7.6 -118.95 L-4.95 -120.5 Q-3.05 -121.75 -3.05 -123.2 -3.05 -124.3 -4.5 -125.4" fill="#bbd1d7" fill-rule="evenodd" stroke="none"/>
      <path d="M5.35 -206.5 Q5.1 -206.85 5.55 -207.15 6.05 -207.45 6.35 -206.95 6.65 -206.5 6.15 -206.35 5.6 -206.15 5.35 -206.5 M8.0 -205.8 Q7.9 -206.1 8.1 -206.3 L8.6 -206.15 Q8.85 -205.9 8.5 -205.65 8.15 -205.45 8.0 -205.8 M2.55 -204.6 Q2.85 -204.25 2.45 -203.95 L1.85 -204.0 Q1.6 -204.35 1.95 -204.65 L2.55 -204.6 M3.5 -205.8 Q3.3 -206.15 3.6 -206.25 L4.1 -206.1 Q4.3 -205.8 4.0 -205.65 3.7 -205.45 3.5 -205.8 M0.85 -201.55 Q0.7 -201.9 1.0 -202.15 1.25 -202.35 1.55 -202.0 1.85 -201.65 1.45 -201.4 1.0 -201.15 0.85 -201.55 M9.05 -203.35 Q8.8 -203.65 9.1 -203.95 L9.7 -203.9 Q9.95 -203.55 9.6 -203.3 L9.05 -203.35 M8.5 -202.3 Q8.25 -202.75 8.65 -202.85 L9.3 -202.6 Q9.6 -202.25 9.15 -202.05 8.75 -201.85 8.5 -202.3 M8.4 -200.0 Q8.15 -200.3 8.55 -200.55 8.95 -200.75 9.2 -200.4 9.45 -200.0 9.05 -199.85 8.6 -199.75 8.4 -200.0 M8.35 -198.2 Q8.65 -197.85 8.2 -197.55 7.75 -197.3 7.6 -197.7 7.4 -198.15 7.7 -198.35 L8.35 -198.2 M47.2 -169.15 L46.55 -169.2 Q46.2 -169.6 46.6 -169.85 L47.25 -169.8 Q47.55 -169.45 47.2 -169.15 M48.9 -168.55 Q48.55 -168.95 49.05 -169.25 49.5 -169.55 49.75 -169.05 50.05 -168.6 49.6 -168.35 49.2 -168.1 48.9 -168.55 M50.25 -167.15 Q50.55 -166.75 50.1 -166.5 49.65 -166.25 49.3 -166.75 49.0 -167.3 49.45 -167.4 49.95 -167.55 50.25 -167.15 M42.35 -169.75 L43.0 -169.55 Q43.25 -169.2 42.85 -169.0 42.5 -168.8 42.2 -169.2 41.95 -169.6 42.35 -169.75 M40.65 -168.7 Q40.15 -168.4 39.75 -168.95 39.4 -169.45 39.95 -169.8 40.5 -170.15 40.85 -169.55 41.15 -169.0 40.65 -168.7 M44.45 -169.05 Q44.25 -168.85 43.9 -169.2 43.6 -169.5 43.95 -169.65 L44.5 -169.5 Q44.7 -169.2 44.45 -169.05 M29.35 -182.1 L28.75 -182.15 Q28.5 -182.5 28.85 -182.8 L29.45 -182.75 Q29.75 -182.4 29.35 -182.1 M26.9 -182.1 Q26.3 -181.7 26.05 -182.3 25.85 -182.9 26.25 -183.2 26.65 -183.5 27.1 -183.0 27.55 -182.5 26.9 -182.1 M20.25 -181.3 Q20.0 -181.6 20.3 -181.9 L20.9 -181.85 Q21.15 -181.5 20.8 -181.25 L20.25 -181.3 M24.7 -182.0 L24.1 -182.1 Q23.9 -182.4 24.25 -182.6 L24.85 -182.5 Q25.1 -182.15 24.7 -182.0 M22.85 -181.85 Q22.4 -181.65 22.15 -182.1 21.85 -182.6 22.3 -182.75 22.7 -182.85 23.0 -182.5 23.3 -182.1 22.85 -181.85 M31.1 -180.8 Q30.95 -181.1 31.2 -181.15 L31.6 -181.0 Q31.75 -180.8 31.5 -180.65 31.25 -180.5 31.1 -180.8 M31.95 -176.65 Q31.6 -176.45 31.45 -176.8 31.35 -177.1 31.55 -177.3 L32.05 -177.15 Q32.3 -176.9 31.95 -176.65 M32.05 -178.65 Q31.6 -178.55 31.4 -178.8 31.15 -179.1 31.55 -179.35 L32.2 -179.2 Q32.45 -178.8 32.05 -178.65 M12.25 -187.9 Q11.7 -187.7 11.45 -188.05 11.2 -188.4 11.65 -188.7 12.15 -189.0 12.45 -188.5 12.75 -188.05 12.25 -187.9 M10.3 -187.15 Q9.75 -186.85 9.4 -187.45 9.05 -188.1 9.6 -188.25 10.15 -188.4 10.5 -187.95 10.9 -187.45 10.3 -187.15 M13.3 -187.85 Q13.2 -188.15 13.4 -188.25 L13.75 -188.2 Q13.95 -187.95 13.7 -187.8 L13.3 -187.85 M15.7 -186.1 L15.15 -186.15 Q14.9 -186.45 15.2 -186.75 L15.8 -186.7 Q16.05 -186.35 15.7 -186.1 M7.05 -195.8 Q6.85 -196.1 7.1 -196.3 7.35 -196.55 7.6 -196.3 7.8 -196.0 7.5 -195.8 7.25 -195.55 7.05 -195.8 M7.05 -192.2 Q7.3 -192.35 7.45 -192.1 7.6 -191.85 7.35 -191.75 7.05 -191.65 6.9 -191.85 6.8 -192.0 7.05 -192.2 M6.7 -193.7 Q6.15 -193.4 5.8 -194.0 5.45 -194.65 6.0 -194.8 6.55 -194.95 6.9 -194.5 7.3 -194.0 6.7 -193.7 M8.4 -190.35 Q8.2 -190.8 8.5 -191.0 L9.15 -190.85 Q9.45 -190.5 9.0 -190.2 8.55 -189.95 8.4 -190.35 M8.4 -188.0 Q8.1 -188.35 8.45 -188.7 L9.15 -188.65 Q9.45 -188.25 9.05 -187.95 L8.4 -188.0 M16.55 -184.4 Q16.3 -184.8 16.65 -184.9 17.05 -185.05 17.3 -184.7 17.5 -184.4 17.15 -184.2 16.75 -184.0 16.55 -184.4 M17.25 -182.5 L17.7 -182.4 Q17.9 -182.15 17.6 -182.05 L17.15 -182.1 Q17.0 -182.3 17.25 -182.5 M19.05 -179.9 Q18.6 -179.65 18.45 -180.05 18.25 -180.5 18.55 -180.7 L19.2 -180.55 Q19.5 -180.2 19.05 -179.9 M11.45 -169.0 Q11.0 -168.75 10.8 -169.15 10.55 -169.55 10.95 -169.85 L11.6 -169.75 Q11.85 -169.25 11.45 -169.0 M12.9 -168.65 Q12.6 -168.4 12.35 -168.8 12.1 -169.2 12.45 -169.5 12.8 -169.75 13.0 -169.35 13.25 -168.9 12.9 -168.65 M14.3 -167.05 Q14.05 -167.4 14.45 -167.7 L15.25 -167.6 Q15.55 -167.25 15.05 -167.0 L14.3 -167.05 M16.4 -165.75 Q16.3 -166.05 16.6 -166.3 16.9 -166.55 17.1 -166.15 17.3 -165.8 16.9 -165.65 16.55 -165.5 16.4 -165.75 M7.6 -169.55 Q7.5 -169.85 7.8 -170.1 8.1 -170.35 8.3 -169.95 8.5 -169.6 8.1 -169.45 L7.6 -169.55 M5.45 -168.55 Q5.15 -169.0 5.7 -169.4 L6.7 -169.3 Q7.15 -168.85 6.45 -168.45 L5.45 -168.55 M3.6 -167.45 Q3.35 -167.85 3.7 -168.15 4.05 -168.4 4.25 -168.0 4.5 -167.55 4.15 -167.3 3.85 -167.05 3.6 -167.45 M3.15 -167.1 Q3.45 -166.55 2.95 -166.2 2.45 -165.9 2.15 -166.4 1.85 -166.9 2.35 -167.3 2.8 -167.7 3.15 -167.1 M0.15 -165.7 Q0.05 -166.0 0.35 -166.3 0.7 -166.6 0.95 -166.15 1.2 -165.7 0.75 -165.5 0.3 -165.35 0.15 -165.7 M37.85 -168.55 L38.5 -168.5 Q38.8 -168.15 38.45 -167.85 L37.8 -167.9 Q37.45 -168.3 37.85 -168.55 M36.9 -168.6 Q36.55 -168.3 35.95 -168.85 35.4 -169.4 36.0 -169.65 36.65 -169.9 36.95 -169.4 37.3 -168.9 36.9 -168.6 M34.45 -168.2 Q34.2 -168.55 34.55 -168.65 L35.05 -168.45 Q35.3 -168.2 34.95 -168.05 34.65 -167.85 34.45 -168.2 M33.85 -166.05 Q33.35 -165.75 32.95 -166.3 32.6 -166.8 33.15 -167.15 33.7 -167.5 34.05 -166.9 34.35 -166.35 33.85 -166.05 M32.45 -164.65 Q32.8 -164.9 33.05 -164.55 33.3 -164.25 32.95 -163.95 32.65 -163.7 32.35 -164.05 32.05 -164.4 32.45 -164.65 M31.05 -164.95 Q30.8 -164.75 30.4 -165.15 30.0 -165.55 30.45 -165.7 L31.1 -165.55 Q31.3 -165.2 31.05 -164.95 M24.1 -161.1 Q24.35 -160.75 24.0 -160.55 23.6 -160.3 23.3 -160.75 23.0 -161.2 23.4 -161.3 23.85 -161.45 24.1 -161.1 M28.15 -164.6 Q27.85 -165.05 28.25 -165.15 28.7 -165.3 28.95 -164.95 29.2 -164.6 28.85 -164.4 28.45 -164.15 28.15 -164.6 M26.55 -161.35 Q26.8 -161.1 26.5 -160.85 26.25 -160.65 26.0 -160.95 25.75 -161.2 26.05 -161.45 L26.55 -161.35 M26.85 -163.05 Q26.6 -163.45 27.0 -163.7 27.45 -163.95 27.7 -163.55 27.95 -163.1 27.55 -162.9 27.15 -162.65 26.85 -163.05 M29.5 -158.05 Q29.05 -157.9 28.85 -158.2 28.6 -158.5 28.95 -158.7 L29.6 -158.6 Q29.9 -158.2 29.5 -158.05 M25.55 -159.2 Q25.15 -159.6 25.6 -159.8 26.05 -159.95 26.3 -159.6 26.55 -159.2 26.25 -159.0 26.0 -158.75 25.55 -159.2 M29.7 -155.65 Q30.2 -156.0 30.6 -155.35 31.0 -154.7 30.45 -154.4 29.9 -154.1 29.55 -154.7 29.2 -155.25 29.7 -155.65 M28.5 -156.45 Q28.35 -156.8 28.65 -157.0 28.95 -157.15 29.1 -156.9 29.3 -156.65 28.95 -156.4 L28.5 -156.45 M22.15 -159.95 Q21.75 -159.7 21.45 -160.1 21.2 -160.5 21.6 -160.75 22.05 -161.0 22.3 -160.6 22.55 -160.15 22.15 -159.95 M31.5 -152.25 Q31.2 -152.1 31.0 -152.4 30.85 -152.65 31.1 -152.8 L31.55 -152.65 Q31.8 -152.4 31.5 -152.25 M32.15 -150.55 Q31.7 -150.35 31.45 -150.7 31.2 -151.0 31.6 -151.25 31.95 -151.5 32.3 -151.1 32.65 -150.7 32.15 -150.55 M31.95 -147.65 Q31.75 -148.05 32.1 -148.3 L32.7 -148.2 Q32.9 -147.9 32.5 -147.6 L31.95 -147.65 M31.45 -142.75 Q31.05 -143.2 31.6 -143.55 32.1 -143.95 32.6 -143.35 33.1 -142.75 32.45 -142.55 31.8 -142.3 31.45 -142.75 M30.45 -143.1 Q30.05 -142.8 29.75 -143.2 29.45 -143.55 29.9 -143.8 L30.55 -143.7 Q30.8 -143.35 30.45 -143.1 M34.35 -142.45 Q34.6 -142.05 34.25 -141.8 33.9 -141.5 33.6 -141.95 33.25 -142.4 33.7 -142.6 L34.35 -142.45 M32.2 -145.35 Q31.95 -145.85 32.35 -146.1 32.75 -146.4 33.05 -145.9 33.35 -145.35 32.95 -145.1 32.5 -144.9 32.2 -145.35 M35.35 -138.25 L36.0 -138.15 Q36.25 -137.8 35.9 -137.55 35.5 -137.25 35.2 -137.65 34.9 -138.0 35.35 -138.25 M35.0 -140.3 L35.65 -140.25 Q35.9 -139.9 35.5 -139.65 L34.85 -139.7 Q34.65 -140.05 35.0 -140.3 M39.55 -136.7 Q39.8 -136.3 39.4 -136.1 39.0 -135.85 38.8 -136.25 38.55 -136.6 38.95 -136.85 39.35 -137.15 39.55 -136.7 M34.95 -135.45 Q34.7 -135.75 35.05 -135.95 L35.7 -135.8 Q36.0 -135.45 35.6 -135.3 35.15 -135.15 34.95 -135.45 M37.25 -118.4 Q37.1 -118.65 37.4 -119.0 L38.0 -118.95 Q38.25 -118.5 37.85 -118.35 L37.25 -118.4 M39.3 -119.25 Q39.15 -119.45 39.35 -119.6 L39.7 -119.5 39.6 -119.15 Q39.45 -119.05 39.3 -119.25 M33.35 -111.95 Q33.05 -112.35 33.45 -112.6 33.9 -112.9 34.1 -112.4 34.3 -111.95 34.0 -111.75 33.65 -111.55 33.35 -111.95 M33.85 -113.8 Q33.65 -114.15 33.95 -114.4 34.25 -114.65 34.5 -114.3 34.8 -113.95 34.4 -113.75 L33.85 -113.8 M35.6 -116.5 Q35.4 -117.0 35.9 -117.5 36.4 -117.95 36.65 -117.4 36.9 -116.8 36.4 -116.4 35.85 -116.0 35.6 -116.5 M33.5 -110.7 Q33.7 -110.35 33.35 -110.2 L32.85 -110.25 Q32.75 -110.45 33.0 -110.75 L33.5 -110.7 M34.45 -106.65 Q34.25 -107.0 34.6 -107.25 L35.2 -107.2 Q35.5 -106.8 35.05 -106.55 34.65 -106.3 34.45 -106.65 M32.95 -107.9 L32.65 -107.95 Q32.55 -108.15 32.75 -108.3 L33.05 -108.25 32.95 -107.9 M63.65 -133.75 Q63.4 -133.55 63.2 -133.95 63.0 -134.3 63.3 -134.45 63.6 -134.65 63.75 -134.3 63.9 -133.95 63.65 -133.75 M61.4 -134.75 Q61.25 -134.95 61.45 -135.1 61.65 -135.3 61.85 -135.0 62.0 -134.7 61.8 -134.6 61.55 -134.55 61.4 -134.75 M65.1 -131.8 Q64.65 -131.55 64.4 -131.95 64.15 -132.35 64.6 -132.6 L65.35 -132.5 Q65.6 -132.1 65.1 -131.8 M65.15 -128.8 Q65.65 -129.2 66.05 -128.45 66.45 -127.75 65.9 -127.6 65.4 -127.45 65.05 -127.9 64.65 -128.35 65.15 -128.8 M65.95 -129.55 Q65.7 -129.45 65.55 -129.65 65.4 -129.85 65.6 -130.0 L66.0 -129.9 65.95 -129.55 M40.8 -137.0 Q40.65 -137.25 40.9 -137.4 L41.35 -137.3 Q41.55 -137.0 41.25 -136.85 40.95 -136.7 40.8 -137.0 M46.0 -132.0 Q45.75 -132.4 46.2 -132.7 46.65 -133.05 46.9 -132.55 47.2 -132.05 46.75 -131.8 46.3 -131.55 46.0 -132.0 M46.9 -130.65 Q46.6 -131.15 47.15 -131.45 47.65 -131.75 48.0 -131.2 48.3 -130.65 47.75 -130.4 47.2 -130.15 46.9 -130.65 M45.2 -134.25 Q44.85 -133.85 44.5 -134.35 44.15 -134.85 44.65 -135.2 45.15 -135.55 45.35 -135.1 45.55 -134.6 45.2 -134.25 M42.85 -135.45 Q42.6 -135.3 42.5 -135.55 42.35 -135.8 42.55 -135.9 L42.9 -135.8 42.85 -135.45 M44.55 -131.3 Q44.35 -131.7 44.75 -132.0 45.1 -132.35 45.35 -131.85 45.6 -131.4 45.2 -131.15 44.75 -130.9 44.55 -131.3 M48.55 -127.45 Q48.35 -127.8 48.6 -128.1 L48.45 -128.0 Q47.95 -127.65 47.65 -128.2 47.4 -128.75 47.85 -129.0 48.35 -129.3 48.65 -128.85 L48.7 -128.2 48.85 -128.35 Q49.45 -128.7 49.8 -128.15 50.2 -127.65 49.55 -127.3 48.9 -126.95 48.55 -127.45 M46.7 -127.45 Q46.45 -127.75 46.8 -128.0 L47.3 -127.95 47.2 -127.35 Q46.95 -127.1 46.7 -127.45 M49.2 -125.75 Q48.95 -126.25 49.35 -126.45 49.75 -126.65 49.95 -126.2 50.15 -125.75 49.8 -125.5 49.45 -125.25 49.2 -125.75 M50.1 -130.3 Q50.5 -130.5 50.85 -130.15 51.15 -129.75 50.75 -129.55 50.3 -129.3 50.0 -129.7 49.75 -130.05 50.1 -130.3 M59.55 -134.3 Q59.0 -134.05 58.7 -134.5 58.4 -134.95 58.8 -135.2 59.25 -135.45 59.65 -135.0 60.05 -134.55 59.55 -134.3 M56.7 -132.55 L56.0 -132.65 Q55.8 -133.0 56.2 -133.25 L56.9 -133.15 Q57.15 -132.8 56.7 -132.55 M52.35 -130.5 Q52.1 -130.8 52.45 -131.1 52.75 -131.35 53.05 -130.85 53.35 -130.4 52.95 -130.25 52.6 -130.15 52.35 -130.5 M54.3 -131.95 Q54.05 -132.4 54.45 -132.6 54.8 -132.8 54.95 -132.35 55.15 -131.95 54.85 -131.75 54.5 -131.5 54.3 -131.95 M48.05 -120.35 Q48.5 -120.7 48.75 -120.15 49.0 -119.6 48.65 -119.4 48.25 -119.15 47.9 -119.6 47.6 -120.05 48.05 -120.35 M49.75 -118.5 Q49.35 -118.25 49.15 -118.6 48.95 -118.95 49.3 -119.2 L49.9 -119.15 Q50.2 -118.75 49.75 -118.5 M45.65 -120.3 L45.05 -120.35 Q44.9 -120.6 45.2 -120.95 L45.8 -120.9 Q46.05 -120.45 45.65 -120.3 M41.2 -118.65 Q40.95 -118.45 40.8 -118.75 40.65 -119.0 40.9 -119.15 L41.3 -119.1 Q41.5 -118.85 41.2 -118.65 M43.8 -119.2 Q43.35 -118.85 43.15 -119.3 42.95 -119.7 43.35 -120.1 43.8 -120.5 44.0 -120.0 44.2 -119.5 43.8 -119.2 M59.45 -108.45 Q59.8 -108.15 59.35 -107.9 58.9 -107.65 58.65 -108.0 58.35 -108.35 58.75 -108.55 L59.45 -108.45 M57.4 -109.65 Q57.3 -109.95 57.5 -110.1 L57.85 -110.0 Q58.0 -109.75 57.75 -109.55 57.5 -109.35 57.4 -109.65 M55.8 -110.45 Q55.6 -110.8 55.9 -110.95 56.2 -111.1 56.4 -110.8 56.65 -110.5 56.35 -110.3 56.05 -110.1 55.8 -110.45 M71.45 -115.25 Q71.15 -115.7 71.55 -116.0 72.0 -116.25 72.3 -115.8 72.6 -115.4 72.15 -115.05 71.75 -114.75 71.45 -115.25 M73.3 -111.7 Q73.55 -111.3 73.15 -111.1 72.75 -110.95 72.55 -111.3 72.35 -111.65 72.7 -111.9 73.05 -112.15 73.3 -111.7 M72.25 -113.0 Q72.05 -113.4 72.45 -113.7 72.85 -114.0 73.15 -113.5 73.4 -112.95 72.95 -112.8 72.45 -112.6 72.25 -113.0 M64.1 -116.4 Q63.7 -117.0 64.2 -117.3 64.7 -117.65 65.1 -117.15 65.45 -116.6 64.95 -116.2 64.45 -115.85 64.1 -116.4 M61.85 -114.65 Q61.65 -115.05 62.05 -115.2 L62.65 -115.15 Q62.8 -114.85 62.4 -114.6 L61.85 -114.65 M69.45 -115.55 Q69.2 -115.95 69.65 -116.15 L70.25 -116.05 Q70.45 -115.75 70.05 -115.45 69.65 -115.15 69.45 -115.55 M66.65 -116.1 Q66.15 -115.9 65.95 -116.3 65.75 -116.7 66.15 -117.0 66.55 -117.3 66.85 -116.8 67.1 -116.25 66.65 -116.1 M67.4 -114.75 Q66.95 -114.55 66.7 -114.95 66.45 -115.35 66.9 -115.65 67.3 -115.95 67.6 -115.45 67.9 -114.95 67.4 -114.75 M61.4 -105.75 Q61.0 -105.5 60.75 -105.9 60.5 -106.25 60.85 -106.45 L61.5 -106.35 Q61.8 -106.0 61.4 -105.75 M61.15 -103.5 Q60.9 -104.15 61.35 -104.35 61.8 -104.55 62.1 -104.1 62.4 -103.7 61.9 -103.3 61.35 -102.85 61.15 -103.5 M62.85 -102.2 Q63.0 -101.95 62.75 -101.75 62.5 -101.55 62.4 -101.85 62.3 -102.15 62.5 -102.3 L62.85 -102.2 M63.0 -100.4 L63.8 -100.25 Q64.15 -99.95 63.65 -99.65 63.2 -99.4 62.9 -99.8 62.6 -100.15 63.0 -100.4 M77.35 -108.05 Q76.95 -107.75 76.65 -108.25 76.35 -108.7 76.75 -109.0 77.2 -109.25 77.5 -108.8 77.8 -108.4 77.35 -108.05 M75.45 -110.15 Q75.15 -109.95 75.0 -110.25 74.85 -110.5 75.15 -110.65 L75.6 -110.6 75.45 -110.15 M5.45 -12.95 Q5.3 -13.25 5.55 -13.35 5.75 -13.45 5.95 -13.15 6.1 -12.9 5.8 -12.75 5.55 -12.65 5.45 -12.95 M9.1 -9.9 Q9.6 -9.3 9.0 -8.95 8.4 -8.6 8.0 -9.1 7.55 -9.6 8.1 -10.0 8.65 -10.45 9.1 -9.9 M6.9 -11.15 Q6.65 -11.55 7.1 -11.8 L7.75 -11.65 Q7.9 -11.25 7.55 -11.0 7.15 -10.7 6.9 -11.15 M9.6 -8.1 Q9.4 -8.35 9.7 -8.5 L10.15 -8.4 Q10.3 -8.15 10.0 -8.0 9.75 -7.8 9.6 -8.1 M12.15 -6.75 Q12.5 -6.15 11.95 -5.95 11.4 -5.7 11.15 -6.3 10.95 -6.85 11.35 -7.05 11.8 -7.3 12.15 -6.75 M13.6 -5.35 Q13.35 -5.75 13.75 -5.9 L14.25 -5.8 Q14.4 -5.45 14.1 -5.25 13.8 -5.0 13.6 -5.35 M19.85 -3.75 Q20.05 -3.85 20.25 -3.55 20.4 -3.3 20.1 -3.15 L19.75 -3.35 Q19.6 -3.65 19.85 -3.75 M15.4 -4.75 Q15.15 -5.05 15.45 -5.3 L16.1 -5.25 Q16.4 -4.9 16.05 -4.7 L15.4 -4.75 M17.25 -4.5 Q17.65 -4.75 17.85 -4.35 18.1 -3.95 17.7 -3.7 17.3 -3.45 17.05 -3.85 16.85 -4.25 17.25 -4.5 M22.0 -2.75 Q21.75 -3.15 22.2 -3.35 22.6 -3.55 22.75 -3.2 22.9 -2.85 22.6 -2.6 22.25 -2.35 22.0 -2.75 M23.7 -2.1 Q23.45 -2.4 23.8 -2.7 L24.5 -2.6 Q24.8 -2.25 24.4 -2.0 L23.7 -2.1 M29.2 -0.3 Q28.65 -0.05 28.4 -0.65 28.2 -1.2 28.6 -1.4 29.05 -1.65 29.4 -1.1 29.75 -0.5 29.2 -0.3 M26.55 -0.95 Q26.15 -0.7 25.9 -1.1 25.7 -1.5 26.1 -1.75 26.5 -2.0 26.7 -1.6 26.95 -1.2 26.55 -0.95 M-15.65 -198.35 Q-15.45 -198.05 -15.8 -197.85 -16.1 -197.7 -16.35 -198.05 -16.55 -198.45 -16.2 -198.55 -15.9 -198.65 -15.65 -198.35 M-15.45 -201.15 L-15.0 -201.05 Q-14.8 -200.8 -15.1 -200.7 L-15.55 -200.75 Q-15.7 -200.95 -15.45 -201.15 M-12.45 -203.25 Q-12.7 -203.6 -12.35 -203.9 L-11.75 -203.85 Q-11.45 -203.5 -11.85 -203.2 L-12.45 -203.25 M-10.4 -202.6 Q-9.85 -202.75 -9.45 -202.25 -9.05 -201.75 -9.65 -201.4 -10.25 -201.1 -10.6 -201.75 -11.0 -202.4 -10.4 -202.6 M-14.45 -202.25 Q-14.6 -202.7 -14.3 -202.95 -14.0 -203.2 -13.65 -202.8 -13.3 -202.4 -13.75 -202.1 -14.25 -201.8 -14.45 -202.25 M-8.4 -199.55 Q-9.0 -199.35 -9.3 -199.7 -9.6 -200.1 -9.05 -200.4 -8.55 -200.75 -8.2 -200.25 -7.85 -199.75 -8.4 -199.55 M-6.75 -198.3 Q-7.2 -198.05 -7.35 -198.45 -7.55 -198.9 -7.25 -199.1 L-6.6 -198.95 Q-6.3 -198.6 -6.75 -198.3 M-4.85 -199.0 Q-5.2 -199.45 -4.75 -199.85 L-3.95 -199.8 Q-3.6 -199.35 -4.05 -198.95 L-4.85 -199.0 M-1.85 -199.6 Q-1.55 -199.25 -2.0 -199.05 -2.4 -198.85 -2.65 -199.3 -2.9 -199.75 -2.5 -199.85 -2.1 -199.95 -1.85 -199.6 M-0.75 -199.8 Q-0.9 -199.95 -0.65 -200.1 L-0.3 -200.05 Q-0.15 -199.8 -0.4 -199.75 L-0.75 -199.8 M-8.55 -187.65 L-9.25 -187.75 Q-9.5 -188.1 -9.15 -188.4 L-8.45 -188.3 Q-8.1 -187.9 -8.55 -187.65 M-7.25 -186.85 Q-7.45 -187.2 -7.05 -187.4 -6.7 -187.6 -6.5 -187.2 -6.25 -186.85 -6.65 -186.65 -7.0 -186.5 -7.25 -186.85 M-5.4 -186.75 Q-4.9 -187.25 -4.5 -186.6 -4.1 -185.95 -4.75 -185.75 -5.35 -185.5 -5.6 -185.9 -5.85 -186.3 -5.4 -186.75 M-16.4 -195.65 L-17.2 -195.7 Q-17.55 -196.15 -17.1 -196.55 L-16.3 -196.5 Q-15.95 -196.05 -16.4 -195.65 M-19.75 -186.4 Q-19.9 -186.65 -19.65 -186.85 L-19.25 -186.75 Q-19.15 -186.45 -19.35 -186.3 L-19.75 -186.4 M-17.45 -187.8 Q-17.75 -188.25 -17.3 -188.55 L-16.45 -188.45 Q-16.05 -188.0 -16.6 -187.7 -17.15 -187.4 -17.45 -187.8 M-14.05 -188.85 Q-13.85 -188.4 -14.25 -188.2 -14.7 -188.0 -14.95 -188.4 -15.2 -188.8 -14.75 -189.05 -14.3 -189.3 -14.05 -188.85 M-13.25 -186.2 L-13.8 -186.3 -13.65 -186.85 Q-13.35 -187.15 -13.1 -186.75 -12.85 -186.35 -13.25 -186.2 M-11.9 -186.6 Q-12.15 -186.95 -11.8 -187.25 -11.4 -187.55 -11.2 -187.1 -11.0 -186.65 -11.35 -186.4 -11.7 -186.2 -11.9 -186.6 M-20.55 -185.9 Q-20.35 -185.55 -20.7 -185.45 -21.0 -185.35 -21.15 -185.55 L-21.0 -186.0 -20.55 -185.9 M-25.0 -182.8 L-25.6 -182.85 Q-25.8 -183.15 -25.5 -183.4 L-24.9 -183.3 Q-24.65 -183.0 -25.0 -182.8 M-23.0 -184.4 Q-23.2 -184.65 -22.85 -184.85 -22.55 -185.05 -22.4 -184.7 -22.2 -184.35 -22.55 -184.25 -22.85 -184.1 -23.0 -184.4 M-26.75 -181.75 Q-27.05 -182.15 -26.6 -182.5 -26.2 -182.85 -25.95 -182.35 -25.7 -181.8 -26.1 -181.55 -26.5 -181.3 -26.75 -181.75 M-39.0 -167.9 L-38.95 -168.25 -38.55 -168.2 Q-38.45 -168.0 -38.65 -167.8 L-39.0 -167.9 M-35.55 -162.5 Q-35.1 -162.75 -34.8 -162.3 -34.45 -161.8 -34.95 -161.65 -35.45 -161.5 -35.75 -161.85 -36.05 -162.2 -35.55 -162.5 M-36.2 -163.65 Q-36.45 -164.1 -36.0 -164.35 -35.55 -164.6 -35.35 -164.1 -35.1 -163.65 -35.55 -163.4 -36.0 -163.15 -36.2 -163.65 M-37.6 -165.7 Q-38.0 -166.1 -37.45 -166.3 L-36.65 -166.15 Q-36.4 -165.8 -36.8 -165.5 -37.2 -165.25 -37.6 -165.7 M-30.8 -156.05 Q-31.25 -155.7 -31.5 -156.15 -31.8 -156.55 -31.35 -156.75 L-30.65 -156.7 Q-30.4 -156.4 -30.8 -156.05 M-40.25 -150.05 L-40.8 -150.1 Q-41.05 -150.45 -40.7 -150.75 -40.4 -151.05 -40.15 -150.65 -39.85 -150.25 -40.25 -150.05 M-37.9 -149.7 Q-38.35 -149.45 -38.45 -149.85 L-38.2 -150.45 Q-37.9 -150.7 -37.65 -150.35 -37.4 -149.95 -37.9 -149.7 M-35.4 -149.0 Q-34.95 -148.4 -35.4 -148.05 -35.85 -147.7 -36.25 -148.25 -36.7 -148.85 -36.25 -149.2 -35.85 -149.6 -35.4 -149.0 M-20.65 -159.55 Q-20.4 -159.8 -20.2 -159.45 -20.0 -159.15 -20.3 -158.95 -20.6 -158.8 -20.75 -159.05 -20.9 -159.3 -20.65 -159.55 M-21.85 -159.3 Q-22.2 -159.1 -22.45 -159.5 -22.75 -159.85 -22.3 -160.2 -21.9 -160.5 -21.7 -160.0 -21.5 -159.55 -21.85 -159.3 M-23.95 -160.2 Q-24.4 -159.85 -24.65 -160.3 -24.95 -160.7 -24.5 -160.9 L-23.8 -160.85 Q-23.55 -160.55 -23.95 -160.2 M-26.15 -160.25 Q-26.45 -160.0 -26.75 -160.4 -27.05 -160.75 -26.65 -161.0 -26.3 -161.2 -26.05 -160.85 -25.8 -160.45 -26.15 -160.25 M-28.2 -159.4 Q-28.45 -159.3 -28.55 -159.5 L-28.5 -159.9 -28.1 -159.85 Q-27.95 -159.55 -28.2 -159.4 M-29.15 -157.95 Q-29.0 -157.5 -29.3 -157.3 -29.65 -157.1 -29.9 -157.45 -30.15 -157.8 -29.75 -158.1 -29.35 -158.4 -29.15 -157.95 M-1.45 -164.3 Q-1.6 -164.55 -1.35 -164.7 L-0.9 -164.65 Q-0.7 -164.45 -1.0 -164.3 -1.3 -164.1 -1.45 -164.3 M-3.05 -162.1 Q-3.35 -162.6 -2.9 -162.95 -2.45 -163.3 -2.15 -162.75 -1.85 -162.2 -2.25 -161.9 -2.7 -161.55 -3.05 -162.1 M-18.55 -159.5 Q-18.85 -159.85 -18.45 -160.1 -18.1 -160.3 -17.85 -159.95 -17.6 -159.55 -17.95 -159.35 -18.25 -159.1 -18.55 -159.5 M-17.05 -157.6 Q-17.35 -158.0 -16.9 -158.2 L-16.2 -158.15 Q-15.95 -157.85 -16.35 -157.5 -16.8 -157.15 -17.05 -157.6 M-3.55 -160.45 Q-3.7 -160.7 -3.45 -160.95 L-3.0 -160.85 Q-2.8 -160.5 -3.1 -160.35 -3.4 -160.15 -3.55 -160.45 M-4.6 -158.1 Q-4.7 -158.4 -4.4 -158.7 -4.05 -159.0 -3.8 -158.55 -3.55 -158.1 -4.0 -157.9 -4.45 -157.75 -4.6 -158.1 M-4.9 -156.2 L-5.65 -156.25 Q-5.9 -156.6 -5.5 -156.9 L-4.7 -156.8 Q-4.4 -156.45 -4.9 -156.2 M-5.35 -153.75 Q-5.65 -153.5 -5.85 -153.85 -6.1 -154.25 -5.8 -154.5 -5.45 -154.75 -5.25 -154.35 -5.05 -153.95 -5.35 -153.75 M-59.9 -174.1 Q-60.05 -174.4 -59.75 -174.55 -59.45 -174.7 -59.3 -174.4 -59.15 -174.1 -59.45 -174.0 L-59.9 -174.1 M-56.15 -173.55 Q-55.85 -172.9 -56.4 -172.7 -56.95 -172.45 -57.35 -173.0 -57.75 -173.55 -57.1 -173.85 -56.5 -174.2 -56.15 -173.55 M-64.15 -174.2 Q-64.45 -174.75 -64.05 -175.0 -63.65 -175.25 -63.3 -174.8 -63.0 -174.3 -63.45 -174.0 -63.85 -173.7 -64.15 -174.2 M-61.6 -174.35 Q-61.85 -174.8 -61.45 -175.1 -61.0 -175.4 -60.75 -174.85 -60.55 -174.3 -60.9 -174.1 -61.3 -173.9 -61.6 -174.35 M-65.1 -172.35 Q-65.45 -172.85 -64.9 -173.15 -64.3 -173.5 -64.0 -172.85 -63.7 -172.25 -64.2 -172.05 -64.75 -171.85 -65.1 -172.35 M-42.55 -170.3 Q-42.9 -170.1 -43.1 -170.5 -43.3 -170.9 -42.9 -171.1 -42.55 -171.3 -42.35 -170.9 -42.2 -170.5 -42.55 -170.3 M-45.05 -169.4 Q-45.45 -169.8 -44.9 -170.0 L-44.1 -169.85 Q-43.85 -169.5 -44.25 -169.2 -44.65 -168.95 -45.05 -169.4 M-44.55 -167.85 Q-44.25 -167.4 -44.7 -167.05 -45.2 -166.7 -45.55 -167.25 -45.9 -167.75 -45.35 -168.05 -44.85 -168.35 -44.55 -167.85 M-41.35 -169.3 L-41.2 -169.65 -40.75 -169.55 Q-40.55 -169.25 -40.85 -169.15 -41.15 -169.05 -41.35 -169.3 M-52.65 -170.5 Q-52.5 -170.2 -52.7 -170.1 -52.95 -170.0 -53.1 -170.25 -53.25 -170.45 -53.0 -170.65 -52.75 -170.8 -52.65 -170.5 M-55.2 -172.2 Q-55.45 -172.65 -55.1 -172.9 -54.75 -173.1 -54.45 -172.7 -54.2 -172.25 -54.55 -172.0 -54.95 -171.75 -55.2 -172.2 M-53.15 -168.35 Q-53.45 -168.9 -52.9 -169.15 -52.4 -169.45 -52.1 -168.9 -51.85 -168.35 -52.35 -168.1 -52.9 -167.8 -53.15 -168.35 M-42.85 -149.1 Q-43.1 -149.5 -42.75 -149.7 L-42.1 -149.55 Q-41.9 -149.15 -42.25 -148.95 -42.6 -148.75 -42.85 -149.1 M-43.55 -147.05 Q-43.9 -146.75 -44.25 -147.25 -44.6 -147.7 -44.25 -148.0 -43.9 -148.35 -43.55 -147.85 -43.15 -147.35 -43.55 -147.05 M-50.25 -145.65 Q-50.6 -145.45 -50.85 -145.8 -51.1 -146.2 -50.75 -146.4 -50.35 -146.65 -50.1 -146.25 -49.9 -145.85 -50.25 -145.65 M-48.6 -146.35 Q-48.85 -146.7 -48.5 -147.0 L-47.85 -146.95 Q-47.55 -146.5 -47.95 -146.25 L-48.6 -146.35 M-46.1 -147.65 Q-45.8 -147.85 -45.6 -147.5 -45.35 -147.15 -45.8 -146.95 -46.2 -146.7 -46.3 -147.05 -46.4 -147.4 -46.1 -147.65 M-51.75 -144.35 Q-52.0 -144.15 -52.25 -144.5 -52.5 -144.85 -52.25 -145.05 -52.0 -145.3 -51.75 -144.95 -51.45 -144.55 -51.75 -144.35 M-53.3 -142.4 Q-53.95 -142.05 -54.1 -142.6 -54.25 -143.15 -53.8 -143.45 -53.35 -143.8 -53.0 -143.25 -52.65 -142.75 -53.3 -142.4 M-56.15 -140.1 Q-55.75 -140.35 -55.5 -139.95 -55.3 -139.55 -55.65 -139.35 -56.0 -139.15 -56.25 -139.5 -56.5 -139.9 -56.15 -140.1 M-54.65 -140.95 Q-55.15 -140.65 -55.4 -141.05 -55.65 -141.45 -55.3 -141.8 L-54.55 -141.7 Q-54.2 -141.2 -54.65 -140.95 M-54.95 -136.5 Q-55.2 -136.3 -55.45 -136.6 -55.65 -136.9 -55.45 -137.15 -55.2 -137.35 -54.95 -137.0 -54.7 -136.7 -54.95 -136.5 M-42.65 -119.2 Q-43.0 -119.75 -42.5 -120.15 -41.95 -120.5 -41.65 -119.9 -41.35 -119.3 -41.8 -119.0 -42.3 -118.65 -42.65 -119.2 M-44.65 -118.45 Q-45.15 -119.0 -44.5 -119.35 -43.9 -119.7 -43.55 -119.05 -43.2 -118.4 -43.65 -118.2 -44.1 -117.95 -44.65 -118.45 M-46.25 -116.55 Q-46.55 -116.85 -46.2 -117.05 L-45.7 -116.95 Q-45.55 -116.65 -45.75 -116.45 -45.95 -116.2 -46.25 -116.55 M-46.4 -114.65 Q-46.25 -114.2 -46.6 -114.0 L-47.25 -114.1 Q-47.55 -114.5 -47.05 -114.75 -46.55 -115.05 -46.4 -114.65 M-47.3 -112.2 Q-47.55 -112.6 -47.15 -112.85 -46.8 -113.15 -46.6 -112.7 -46.35 -112.3 -46.7 -112.05 -47.0 -111.8 -47.3 -112.2 M-47.35 -109.85 Q-47.7 -110.25 -47.25 -110.5 -46.8 -110.75 -46.55 -110.3 -46.3 -109.8 -46.65 -109.65 -46.95 -109.45 -47.35 -109.85 M-49.2 -106.15 Q-49.5 -105.95 -49.75 -106.25 -50.0 -106.55 -49.6 -106.8 -49.15 -107.05 -49.05 -106.7 -48.9 -106.35 -49.2 -106.15 M-47.85 -107.9 Q-48.1 -107.6 -48.55 -108.05 -48.95 -108.5 -48.45 -108.75 -48.0 -109.0 -47.75 -108.6 -47.55 -108.2 -47.85 -107.9 M-50.2 -104.3 Q-50.55 -104.85 -50.05 -105.25 -49.5 -105.6 -49.2 -105.0 -48.9 -104.4 -49.35 -104.1 -49.85 -103.75 -50.2 -104.3 M-49.45 -101.95 Q-50.0 -102.5 -49.35 -102.9 -48.7 -103.25 -48.3 -102.6 -47.95 -101.9 -48.45 -101.65 -48.9 -101.4 -49.45 -101.95 M-14.55 -143.85 Q-14.4 -143.5 -14.75 -143.25 -15.1 -143.0 -15.35 -143.4 -15.6 -143.85 -15.15 -144.05 -14.65 -144.2 -14.55 -143.85 M-12.85 -142.6 Q-12.5 -142.3 -12.95 -141.95 -13.4 -141.6 -13.75 -142.05 -14.1 -142.45 -13.6 -142.7 L-12.85 -142.6 M-19.5 -144.6 Q-19.8 -145.05 -19.45 -145.25 -19.05 -145.5 -18.75 -145.15 -18.45 -144.8 -18.85 -144.5 -19.2 -144.15 -19.5 -144.6 M-17.2 -144.7 Q-17.5 -145.05 -17.15 -145.25 L-16.6 -145.15 Q-16.35 -144.85 -16.65 -144.6 L-17.2 -144.7 M-5.6 -124.2 Q-5.9 -123.95 -6.15 -124.3 -6.4 -124.6 -6.05 -124.85 -5.7 -125.1 -5.5 -124.75 -5.3 -124.4 -5.6 -124.2 M-2.05 -123.95 Q-1.8 -123.5 -2.25 -123.3 -2.65 -123.1 -2.85 -123.45 -3.05 -123.8 -2.65 -124.1 -2.3 -124.35 -2.05 -123.95 M-3.4 -125.3 Q-3.75 -125.05 -4.0 -125.45 -4.25 -125.85 -3.9 -126.15 -3.5 -126.45 -3.25 -126.0 -3.05 -125.55 -3.4 -125.3 M-21.7 -144.15 Q-21.95 -144.45 -21.65 -144.6 -21.3 -144.8 -21.1 -144.6 -20.85 -144.35 -21.15 -144.1 L-21.7 -144.15 M-23.0 -143.1 Q-23.4 -142.85 -23.7 -143.35 -24.0 -143.85 -23.45 -144.05 -22.95 -144.25 -22.8 -143.85 -22.65 -143.4 -23.0 -143.1 M-29.75 -140.2 Q-30.05 -140.6 -29.7 -140.8 L-29.0 -140.7 Q-28.7 -140.45 -29.1 -140.15 L-29.75 -140.2 M-27.7 -141.25 Q-28.0 -141.7 -27.65 -141.9 L-26.95 -141.8 Q-26.65 -141.45 -27.05 -141.15 -27.4 -140.8 -27.7 -141.25 M-26.0 -142.3 Q-26.45 -142.85 -25.95 -143.2 -25.4 -143.55 -24.95 -143.05 -24.5 -142.55 -25.05 -142.1 -25.55 -141.7 -26.0 -142.3 M-34.55 -146.6 Q-34.9 -146.4 -35.15 -146.75 -35.4 -147.15 -35.05 -147.35 -34.65 -147.6 -34.4 -147.2 -34.2 -146.8 -34.55 -146.6 M-32.0 -136.6 Q-32.3 -137.0 -31.95 -137.2 L-31.3 -137.1 Q-31.05 -136.75 -31.35 -136.5 -31.7 -136.2 -32.0 -136.6 M-31.3 -139.75 Q-30.6 -140.0 -30.4 -139.5 -30.2 -138.95 -30.7 -138.6 -31.2 -138.2 -31.6 -138.85 -31.95 -139.5 -31.3 -139.75 M-39.75 -119.6 Q-40.1 -119.35 -40.45 -119.75 -40.75 -120.15 -40.25 -120.45 -39.7 -120.75 -39.5 -120.3 -39.35 -119.85 -39.75 -119.6 M-0.85 -123.25 Q-1.1 -123.65 -0.65 -123.9 -0.25 -124.15 0.0 -123.75 0.25 -123.35 -0.2 -123.1 -0.6 -122.85 -0.85 -123.25 M-10.05 -121.45 Q-10.25 -121.9 -9.8 -122.3 -9.3 -122.65 -9.0 -122.05 -8.65 -121.5 -9.25 -121.25 -9.8 -120.95 -10.05 -121.45 M-8.05 -122.7 Q-8.3 -123.1 -7.85 -123.35 -7.45 -123.6 -7.2 -123.2 -6.95 -122.8 -7.4 -122.55 -7.8 -122.3 -8.05 -122.7 M-10.4 -120.2 Q-10.7 -120.0 -10.9 -120.35 -11.1 -120.65 -10.8 -120.9 L-10.25 -120.8 Q-10.1 -120.45 -10.4 -120.2 M-12.45 -117.75 Q-12.85 -117.45 -13.15 -117.9 -13.5 -118.3 -13.0 -118.65 -12.55 -119.0 -12.3 -118.5 -12.05 -118.05 -12.45 -117.75 M-16.4 -112.3 Q-16.6 -112.7 -16.25 -112.95 -15.9 -113.25 -15.7 -112.85 -15.5 -112.4 -15.8 -112.2 L-16.4 -112.3 M-15.4 -115.1 Q-15.05 -115.35 -14.8 -114.95 -14.55 -114.5 -15.0 -114.3 -15.4 -114.1 -15.6 -114.45 -15.8 -114.8 -15.4 -115.1 M-14.6 -117.05 Q-14.85 -117.45 -14.45 -117.65 L-13.85 -117.55 Q-13.6 -117.15 -14.0 -116.95 L-14.6 -117.05 M-16.2 -108.75 Q-15.9 -108.25 -16.4 -107.95 -16.95 -107.65 -17.2 -108.15 -17.5 -108.65 -17.0 -108.95 -16.5 -109.25 -16.2 -108.75 M-16.55 -110.65 Q-16.8 -111.0 -16.4 -111.25 -16.05 -111.55 -15.8 -111.15 -15.6 -110.8 -15.95 -110.55 -16.25 -110.3 -16.55 -110.65 M-17.05 -105.85 Q-17.25 -106.3 -16.8 -106.65 -16.35 -107.0 -16.05 -106.45 -15.75 -105.9 -16.3 -105.65 -16.8 -105.4 -17.05 -105.85 M-16.85 -103.75 Q-17.15 -104.3 -16.65 -104.7 -16.1 -105.1 -15.8 -104.5 -15.5 -103.9 -16.0 -103.55 -16.5 -103.15 -16.85 -103.75 M-29.2 -0.35 Q-28.95 0.1 -29.45 0.25 -29.9 0.4 -30.2 0.0 -30.45 -0.4 -29.95 -0.6 -29.45 -0.8 -29.2 -0.35 M-28.55 -0.9 Q-28.8 -1.3 -28.3 -1.55 -27.85 -1.8 -27.5 -1.3 -27.15 -0.8 -27.75 -0.65 -28.35 -0.45 -28.55 -0.9 M-26.45 -1.6 Q-26.75 -2.15 -26.25 -2.45 -25.75 -2.75 -25.4 -2.3 -25.0 -1.8 -25.6 -1.45 -26.15 -1.05 -26.45 -1.6 M-24.45 -2.25 Q-24.85 -2.8 -24.3 -3.2 -23.7 -3.6 -23.4 -3.0 -23.1 -2.4 -23.6 -2.05 -24.05 -1.7 -24.45 -2.25 M-22.4 -3.8 L-22.25 -4.15 Q-22.0 -4.25 -21.85 -4.0 -21.7 -3.75 -21.95 -3.65 -22.25 -3.55 -22.4 -3.8 M-7.25 -15.8 Q-7.45 -16.15 -7.05 -16.4 -6.65 -16.6 -6.35 -16.15 -6.05 -15.75 -6.55 -15.6 -7.1 -15.45 -7.25 -15.8 M-8.6 -13.9 Q-8.95 -14.45 -8.3 -14.7 -7.6 -15.0 -7.25 -14.4 -6.95 -13.8 -7.6 -13.55 -8.2 -13.35 -8.6 -13.9 M-7.0 -14.55 L-6.9 -14.95 -6.5 -14.9 Q-6.3 -14.65 -6.6 -14.5 L-7.0 -14.55 M-14.8 -6.2 Q-15.25 -5.85 -15.65 -6.4 -16.05 -6.95 -15.5 -7.35 -14.9 -7.75 -14.6 -7.15 -14.3 -6.55 -14.8 -6.2 M-13.5 -6.9 Q-13.75 -7.3 -13.25 -7.5 -12.75 -7.7 -12.5 -7.25 -12.25 -6.8 -12.75 -6.65 -13.2 -6.5 -13.5 -6.9 M-11.4 -8.1 L-11.25 -8.45 Q-11.05 -8.55 -10.9 -8.3 -10.75 -8.1 -11.0 -8.0 L-11.4 -8.1 M-20.15 -5.1 Q-20.35 -5.45 -19.95 -5.7 -19.55 -5.9 -19.25 -5.45 -18.95 -5.05 -19.45 -4.9 -20.0 -4.75 -20.15 -5.1 M-17.7 -5.7 L-17.6 -6.1 -17.2 -6.05 Q-17.0 -5.8 -17.3 -5.65 L-17.7 -5.7 M-9.9 -9.55 Q-10.2 -10.1 -9.7 -10.4 -9.2 -10.7 -8.85 -10.25 -8.45 -9.75 -9.05 -9.4 -9.6 -9.0 -9.9 -9.55 M-9.15 -11.6 Q-9.55 -12.15 -8.95 -12.6 -8.3 -13.0 -8.0 -12.35 -7.7 -11.75 -8.2 -11.35 -8.7 -11.0 -9.15 -11.6 M-28.95 1.15 Q-29.1 0.85 -28.85 0.7 L-28.4 0.8 Q-28.2 1.05 -28.5 1.25 L-28.95 1.15 M-31.25 0.9 Q-31.55 0.5 -31.1 0.2 -30.7 -0.05 -30.45 0.35 -30.25 0.8 -30.6 1.05 -30.95 1.3 -31.25 0.9" fill="#ffffff" fill-opacity="0.81960785" fill-rule="evenodd" stroke="none"/>
    </g>
  </defs>
</svg>
