<?xml version="1.0" encoding="UTF-8" standalone="no"?>
<svg xmlns:xlink="http://www.w3.org/1999/xlink" height="20.4px" width="71.45px" xmlns="http://www.w3.org/2000/svg">
  <g transform="matrix(1.0, 0.0, 0.0, 1.0, 34.75, 20.15)">
    <use height="20.4" transform="matrix(1.0, 0.0, 0.0, 1.0, -34.75, -20.15)" width="71.45" xlink:href="#decoration52-shape0"/>
  </g>
  <defs>
    <g id="decoration52-shape0" transform="matrix(1.0, 0.0, 0.0, 1.0, 34.75, 20.15)">
      <path d="M-32.95 -4.6 L-25.15 -3.1 -8.0 -2.1 9.75 -3.2 18.2 -4.6 9.75 -3.2 -8.0 -2.1 -25.15 -3.1 -32.95 -4.6 Q-34.75 -5.0 -34.75 -5.3 -34.75 -5.95 -26.7 -6.45 -18.6 -6.9 -7.2 -6.9 4.2 -6.9 12.25 -6.45 20.35 -5.95 20.35 -5.3 20.35 -4.95 18.2 -4.6 L4.05 0.0 -20.95 0.0 -32.95 -4.6 M2.6 -4.35 L12.05 -5.15 Q15.45 -5.35 6.15 -5.85 L-9.55 -6.35 -23.65 -6.05 Q-31.4 -5.8 -28.45 -5.45 L-20.85 -4.4 -9.85 -3.75 2.6 -4.35" fill="#e0d9d4" fill-rule="evenodd" stroke="none"/>
      <path d="M2.6 -4.35 L-9.85 -3.75 -20.85 -4.4 -28.45 -5.45 Q-31.4 -5.8 -23.65 -6.05 L-9.55 -6.35 6.15 -5.85 Q15.45 -5.35 12.05 -5.15 L2.6 -4.35" fill="#b8b0ab" fill-rule="evenodd" stroke="none"/>
      <path d="M18.2 -4.6 L9.75 -3.2 -8.0 -2.1 -25.15 -3.1 -32.95 -4.6 -20.95 0.0 4.05 0.0 18.2 -4.6 Q20.35 -4.95 20.35 -5.3 20.35 -5.95 12.25 -6.45 4.2 -6.9 -7.2 -6.9 -18.6 -6.9 -26.7 -6.45 -34.75 -5.95 -34.75 -5.3 -34.75 -5.0 -32.95 -4.6 M2.6 -4.35 L-9.85 -3.75 -20.85 -4.4 -28.45 -5.45 Q-31.4 -5.8 -23.65 -6.05 L-9.55 -6.35 6.15 -5.85 Q15.45 -5.35 12.05 -5.15 L2.6 -4.35" fill="none" stroke="#000000" stroke-linecap="round" stroke-linejoin="round" stroke-opacity="0.3019608" stroke-width="0.05"/>
      <path d="M5.9 -8.7 L5.9 -8.65 6.05 -8.0 5.35 -8.15 6.05 -8.0 5.9 -8.65 5.9 -8.7 10.0 -8.55 9.3 -8.35 Q8.9 -8.15 9.1 -7.75 9.45 -7.1 11.05 -7.35 10.7 -7.15 10.9 -6.7 11.15 -6.05 13.05 -5.95 14.1 -5.9 14.1 -6.6 15.1 -6.1 15.8 -6.1 16.85 -6.1 17.8 -7.35 19.65 -6.5 17.9 -5.9 L9.9 -5.1 7.25 -4.8 2.7 -4.45 -6.2 -3.8 -12.05 -3.75 Q-12.5 -4.9 -13.75 -6.35 L-11.65 -7.85 -13.75 -6.35 Q-12.5 -4.9 -12.05 -3.75 L-24.05 -4.85 -32.9 -6.1 Q-31.85 -7.55 -30.6 -8.35 L-29.7 -8.85 Q-30.95 -7.35 -28.55 -7.05 -27.85 -7.0 -25.75 -7.7 L-23.5 -8.5 -24.0 -7.9 -24.4 -7.2 Q-24.2 -6.65 -23.15 -6.25 -22.15 -5.85 -21.25 -6.6 L-20.3 -5.7 -19.1 -5.0 -17.35 -4.7 Q-16.15 -4.75 -15.6 -5.3 -15.1 -5.8 -15.55 -5.9 -14.75 -6.1 -14.7 -6.55 L-14.7 -6.65 -15.0 -7.3 -13.75 -6.35 -15.0 -7.3 -16.9 -8.4 -15.4 -8.45 -12.8 -8.6 Q-8.55 -9.0 -9.2 -10.05 L-10.55 -10.2 Q-9.7 -10.85 -8.2 -11.35 -8.6 -10.35 -8.0 -10.35 -7.45 -10.35 -7.4 -10.55 L-7.05 -10.05 Q-6.55 -9.6 -5.8 -9.6 L-4.6 -9.9 Q-4.05 -10.2 -4.05 -10.5 L-2.8 -10.4 Q-1.55 -10.3 -0.9 -9.8 0.2 -8.95 2.2 -9.55 L3.3 -9.1 Q4.55 -8.8 5.25 -9.6 L5.9 -8.7 M-6.25 -9.15 Q-7.5 -9.8 -9.2 -10.05 -7.5 -9.8 -6.25 -9.15 L-8.9 -8.7 -11.65 -7.85 -11.85 -6.65 Q-11.85 -5.55 -10.55 -5.75 L-9.4 -4.85 Q-9.15 -4.3 -8.45 -4.25 L-7.5 -4.25 Q-7.0 -4.25 -5.55 -5.05 L-4.4 -4.5 Q-2.9 -4.15 -1.1 -5.05 L0.75 -4.85 Q2.25 -5.05 2.25 -5.9 L1.9 -7.0 1.15 -8.25 2.1 -7.45 5.35 -8.15 0.6 -8.55 -1.4 -8.9 -3.2 -9.05 -6.25 -9.15 M6.0 -6.25 L2.9 -6.05 2.1 -7.45 2.9 -6.05 6.0 -6.25 5.75 -6.1 6.0 -5.75 Q6.25 -5.45 6.5 -5.45 L8.45 -5.5 Q9.1 -5.5 9.5 -6.3 10.35 -5.8 9.9 -5.1 10.35 -5.8 9.5 -6.3 L8.6 -6.35 6.0 -6.25 M6.05 -8.0 L6.1 -8.0 Q8.15 -7.2 8.6 -6.35 8.15 -7.2 6.1 -8.0 L6.05 -8.0 M2.9 -6.05 L2.7 -4.45 2.9 -6.05 M-24.4 -7.2 Q-24.7 -6.3 -24.35 -5.4 L-24.05 -4.85 -24.35 -5.4 Q-24.7 -6.3 -24.4 -7.2" fill="#5b3509" fill-rule="evenodd" stroke="none"/>
      <path d="M5.25 -9.6 Q4.55 -8.8 3.3 -9.1 L2.2 -9.55 Q0.2 -8.95 -0.9 -9.8 -1.55 -10.3 -2.8 -10.4 L-4.05 -10.5 Q-4.05 -10.2 -4.6 -9.9 L-5.8 -9.6 Q-6.55 -9.6 -7.05 -10.05 L-7.4 -10.55 Q-7.45 -10.35 -8.0 -10.35 -8.6 -10.35 -8.2 -11.35 L-2.25 -12.0 Q1.2 -11.9 3.55 -10.7 L5.25 -9.6 M-10.55 -10.2 L-9.2 -10.05 Q-8.55 -9.0 -12.8 -8.6 L-15.4 -8.45 -16.9 -8.4 Q-18.3 -9.05 -19.55 -9.05 L-20.35 -9.05 -23.5 -8.5 -25.75 -7.7 Q-27.85 -7.0 -28.55 -7.05 -30.95 -7.35 -29.7 -8.85 -27.65 -9.85 -24.2 -10.45 L-20.85 -10.55 -17.55 -10.05 -10.55 -10.2 M-6.25 -9.15 L-3.2 -9.05 -1.4 -8.9 0.6 -8.55 5.35 -8.15 2.1 -7.45 1.15 -8.25 1.9 -7.0 2.25 -5.9 Q2.25 -5.05 0.75 -4.85 L-1.1 -5.05 Q-2.9 -4.15 -4.4 -4.5 L-5.55 -5.05 Q-7.0 -4.25 -7.5 -4.25 L-8.45 -4.25 Q-9.15 -4.3 -9.4 -4.85 L-10.55 -5.75 Q-11.85 -5.55 -11.85 -6.65 L-11.65 -7.85 -8.9 -8.7 -6.25 -9.15 M6.0 -6.25 L8.6 -6.35 9.5 -6.3 Q9.1 -5.5 8.45 -5.5 L6.5 -5.45 Q6.25 -5.45 6.0 -5.75 L5.75 -6.1 6.0 -6.25 M17.8 -7.35 Q16.85 -6.1 15.8 -6.1 15.1 -6.1 14.1 -6.6 14.1 -5.9 13.05 -5.95 11.15 -6.05 10.9 -6.7 10.7 -7.15 11.05 -7.35 9.45 -7.1 9.1 -7.75 8.9 -8.15 9.3 -8.35 L10.0 -8.55 15.3 -7.95 17.8 -7.35 M0.6 -8.55 L1.15 -8.25 0.6 -8.55 M-24.4 -7.2 L-24.0 -7.9 -23.5 -8.5 -20.35 -9.05 -19.55 -9.05 Q-18.3 -9.05 -16.9 -8.4 L-15.0 -7.3 -14.7 -6.65 -14.7 -6.55 Q-14.75 -6.1 -15.55 -5.9 -15.1 -5.8 -15.6 -5.3 -16.15 -4.75 -17.35 -4.7 L-19.1 -5.0 -20.3 -5.7 -21.25 -6.6 Q-22.15 -5.85 -23.15 -6.25 -24.2 -6.65 -24.4 -7.2 M-17.55 -10.05 Q-19.1 -10.0 -20.35 -9.05 -19.1 -10.0 -17.55 -10.05" fill="#7e5320" fill-rule="evenodd" stroke="none"/>
      <path d="M5.35 -8.15 L6.05 -8.0 5.9 -8.65 5.9 -8.7 5.25 -9.6 3.55 -10.7 Q1.2 -11.9 -2.25 -12.0 L-8.2 -11.35 Q-9.7 -10.85 -10.55 -10.2 L-9.2 -10.05 Q-7.5 -9.8 -6.25 -9.15 L-3.2 -9.05 -1.4 -8.9 0.6 -8.55 5.35 -8.15 M2.1 -7.45 L2.9 -6.05 6.0 -6.25 8.6 -6.35 Q8.15 -7.2 6.1 -8.0 L6.05 -8.0 M10.0 -8.55 L5.9 -8.7 M9.5 -6.3 L8.6 -6.35 M-11.65 -7.85 L-13.75 -6.35 Q-12.5 -4.9 -12.05 -3.75 L-6.2 -3.8 2.7 -4.45 2.9 -6.05 M2.1 -7.45 L1.15 -8.25 0.6 -8.55 M17.8 -7.35 Q19.65 -6.5 17.9 -5.9 L9.9 -5.1 7.25 -4.8 2.7 -4.45 M9.9 -5.1 Q10.35 -5.8 9.5 -6.3 M17.8 -7.35 L15.3 -7.95 10.0 -8.55 M-29.7 -8.85 L-30.6 -8.35 Q-31.85 -7.55 -32.9 -6.1 L-24.05 -4.85 -24.35 -5.4 Q-24.7 -6.3 -24.4 -7.2 L-24.0 -7.9 -23.5 -8.5 M-29.7 -8.85 Q-27.65 -9.85 -24.2 -10.45 L-20.85 -10.55 -17.55 -10.05 -10.55 -10.2 M-16.9 -8.4 Q-18.3 -9.05 -19.55 -9.05 L-20.35 -9.05 -23.5 -8.5 M-13.75 -6.35 L-15.0 -7.3 -16.9 -8.4 M-11.65 -7.85 L-8.9 -8.7 -6.25 -9.15 M-12.05 -3.75 L-24.05 -4.85 M-20.35 -9.05 Q-19.1 -10.0 -17.55 -10.05" fill="none" stroke="#000000" stroke-linecap="round" stroke-linejoin="round" stroke-opacity="0.3019608" stroke-width="0.30000000000000004"/>
      <path d="M5.9 -6.8 L5.7 -7.2 Q5.7 -7.65 6.1 -7.6 6.5 -7.55 6.5 -7.15 L6.35 -6.8 5.9 -6.8 M8.05 -8.35 Q8.05 -9.1 9.05 -9.3 10.0 -9.5 10.0 -8.5 10.0 -8.05 9.0 -8.05 L8.15 -8.2 8.05 -8.35 M7.75 -6.45 Q8.5 -6.4 8.5 -6.05 8.5 -5.55 7.75 -5.55 7.4 -5.55 7.4 -5.9 L7.55 -6.25 7.75 -6.45 M3.7 -9.45 L3.5 -9.25 Q3.3 -9.25 3.05 -9.5 L2.8 -9.75 Q2.8 -10.1 3.25 -9.9 L3.7 -9.45 M1.0 -11.05 Q0.45 -11.05 0.45 -11.35 0.45 -12.15 1.4 -12.1 2.3 -12.05 2.3 -11.1 2.3 -10.85 2.1 -10.85 1.95 -10.85 1.8 -11.0 L1.5 -11.15 1.0 -11.05 M3.75 -7.7 Q4.25 -7.7 4.25 -7.3 L3.95 -7.0 3.4 -6.85 3.2 -7.1 3.25 -7.4 3.3 -7.55 3.35 -7.55 3.75 -7.7 M1.65 -5.45 L1.45 -5.2 1.2 -5.35 1.15 -5.5 Q1.15 -5.7 1.4 -5.65 L1.65 -5.45 M4.55 -5.35 L4.5 -5.5 4.7 -5.7 5.15 -5.7 5.35 -5.5 Q5.35 -5.25 4.8 -5.25 L4.55 -5.35 M16.55 -7.2 Q16.55 -6.75 16.1 -6.75 15.8 -6.75 15.8 -7.1 15.8 -7.3 16.1 -7.3 L16.35 -7.45 16.55 -7.2 M12.25 -7.3 L12.1 -7.35 12.05 -7.5 12.6 -8.1 13.0 -8.75 13.6 -8.25 13.9 -7.5 Q13.9 -7.15 13.4 -7.15 L12.45 -7.2 12.25 -7.3 M11.2 -5.8 L11.15 -6.0 11.35 -6.2 11.55 -6.0 11.35 -5.75 11.2 -5.8 M-31.0 -8.3 Q-30.2 -8.05 -30.2 -7.75 L-31.05 -7.2 -31.65 -7.2 -31.85 -7.45 Q-31.85 -8.55 -31.0 -8.3 M-21.65 -9.9 L-21.85 -9.7 -22.05 -9.75 -22.1 -9.9 Q-22.1 -10.15 -21.7 -10.05 L-21.65 -9.9 M-25.2 -8.55 Q-25.45 -8.4 -25.65 -8.4 L-26.1 -8.55 -26.3 -8.8 -25.65 -9.35 Q-25.0 -9.5 -25.0 -8.85 L-25.2 -8.55 M-21.7 -7.2 L-22.15 -7.4 -22.25 -7.6 -21.75 -8.1 -21.1 -8.1 -20.9 -7.85 -21.1 -7.45 Q-21.35 -7.2 -21.7 -7.2 M-27.0 -9.75 L-27.2 -9.8 -27.75 -9.45 -28.2 -9.45 -28.4 -9.7 -28.25 -9.9 -28.1 -10.15 -27.95 -10.5 Q-27.75 -10.7 -26.85 -9.95 -26.85 -9.75 -27.0 -9.75 M-28.4 -7.75 L-28.6 -7.5 Q-29.6 -7.65 -29.6 -7.95 L-29.15 -8.3 -28.8 -8.3 Q-28.4 -8.1 -28.4 -7.75 M-27.05 -6.4 L-27.2 -6.15 -27.6 -6.15 -27.8 -6.35 Q-27.8 -6.55 -27.4 -6.65 L-27.05 -6.4 M-10.2 -10.05 Q-9.8 -10.2 -9.8 -9.8 L-10.05 -9.45 -10.55 -9.45 -10.75 -9.6 -10.2 -10.05 M-13.8 -10.15 L-14.0 -9.9 -14.9 -9.8 -15.15 -9.85 -15.2 -10.0 -15.0 -10.35 -14.7 -10.7 -14.35 -10.7 -13.8 -10.15 M-15.0 -9.0 L-14.5 -9.35 Q-14.0 -9.35 -14.0 -9.0 L-14.2 -8.7 -14.75 -8.7 -15.0 -9.0 M-10.6 -6.55 L-11.05 -6.35 -11.35 -6.55 -11.45 -6.8 -10.9 -7.15 Q-10.4 -7.15 -10.4 -6.9 L-10.6 -6.55 M-19.2 -10.0 Q-20.45 -10.0 -20.45 -10.4 L-20.0 -11.0 Q-19.3 -11.25 -18.8 -10.3 -18.8 -10.0 -19.2 -10.0 M-19.55 -6.7 L-18.85 -6.05 Q-18.85 -5.7 -19.2 -5.7 -19.85 -5.7 -20.1 -6.05 L-20.25 -6.45 Q-20.25 -7.05 -19.55 -6.7 M-18.25 -7.5 Q-18.25 -7.15 -18.5 -7.15 -18.85 -7.15 -18.85 -7.5 L-18.55 -7.75 -18.25 -7.5 M-18.65 -8.65 Q-18.65 -9.1 -17.9 -9.45 -17.2 -9.75 -17.2 -8.9 -17.2 -8.05 -17.5 -8.05 L-18.35 -8.3 -18.65 -8.65 M-14.65 -5.15 L-14.75 -5.45 Q-14.75 -5.95 -14.25 -5.85 L-13.75 -5.4 Q-13.75 -5.15 -14.4 -4.9 L-14.65 -5.15 M-3.1 -11.75 L-4.1 -11.3 -4.75 -11.4 -4.8 -11.75 Q-4.8 -12.5 -3.95 -12.35 -3.1 -12.15 -3.1 -11.75 M-2.75 -8.6 L-2.05 -9.25 -1.65 -9.25 -1.35 -8.8 -1.15 -8.35 Q-1.15 -8.05 -2.05 -8.05 -2.5 -8.05 -2.65 -8.3 L-2.75 -8.6 M-6.8 -10.65 L-7.0 -10.8 -6.8 -11.05 -6.2 -11.05 -6.0 -10.85 -6.15 -10.65 -6.8 -10.65 M-8.35 -7.6 Q-8.35 -8.15 -7.45 -8.1 -6.6 -8.05 -6.6 -7.65 L-6.8 -7.3 Q-7.05 -7.05 -7.45 -7.05 L-8.2 -7.3 -8.35 -7.6 M-8.8 -4.8 Q-8.8 -5.35 -8.3 -5.2 -7.85 -5.05 -7.85 -4.65 L-8.05 -4.35 -8.5 -4.35 -8.8 -4.8 M-1.55 -5.6 L-1.6 -5.8 -1.15 -6.3 Q-0.75 -6.45 -0.75 -5.85 L-0.95 -5.6 -1.35 -5.45 Q-1.5 -5.45 -1.55 -5.6 M-3.45 -5.25 L-3.6 -5.3 -3.65 -5.5 -3.45 -5.7 -3.25 -5.5 -3.45 -5.25" fill="#2e1900" fill-rule="evenodd" stroke="none"/>
      <path d="M28.6 -20.0 L36.55 -20.0 35.85 -13.45 29.25 -13.45 28.6 -20.0 M23.25 -13.45 L22.45 -20.0 25.1 -20.0 25.75 -13.45 23.25 -13.45" fill="#e7e7e7" fill-opacity="0.32156864" fill-rule="evenodd" stroke="none"/>
      <path d="M29.25 -13.45 L35.85 -13.45 34.4 0.1 30.6 0.1 29.25 -13.45 M27.15 0.1 L24.9 0.1 23.25 -13.45 25.75 -13.45 27.15 0.1" fill="url(#decoration52-gradient0)" fill-rule="evenodd" stroke="none"/>
      <path d="M28.6 -20.0 L29.25 -13.45 25.75 -13.45 25.1 -20.0 28.6 -20.0" fill="#e7e7e7" fill-opacity="0.4" fill-rule="evenodd" stroke="none"/>
      <path d="M30.6 0.1 L27.15 0.1 25.75 -13.45 29.25 -13.45 30.6 0.1" fill="#fafafa" fill-rule="evenodd" stroke="none"/>
      <path d="M35.85 -13.45 L36.55 -20.0 28.6 -20.0 M35.85 -13.45 L34.4 0.1 30.6 0.1 27.15 0.1 24.9 0.1 23.25 -13.45 22.45 -20.0 25.1 -20.0 28.6 -20.0" fill="none" stroke="#000000" stroke-linecap="round" stroke-linejoin="round" stroke-opacity="0.3019608" stroke-width="0.30000000000000004"/>
    </g>
    <radialGradient cx="0" cy="0" gradientTransform="matrix(0.0102, 0.0, 0.0, 0.0136, 27.6, -9.95)" gradientUnits="userSpaceOnUse" id="decoration52-gradient0" r="819.2" spreadMethod="pad">
      <stop offset="0.0" stop-color="#ffffff"/>
      <stop offset="1.0" stop-color="#c9beb4"/>
    </radialGradient>
  </defs>
</svg>
