<?xml version="1.0" encoding="UTF-8" standalone="no"?>
<svg xmlns:xlink="http://www.w3.org/1999/xlink" height="51.55px" width="24.65px" xmlns="http://www.w3.org/2000/svg">
  <g transform="matrix(1.0, 0.0, 0.0, 1.0, 17.15, 0.15)">
    <use height="51.55" transform="matrix(1.0, 0.0, 0.0, 1.0, -17.15, -0.15)" width="24.65" xlink:href="#decoration54-shape0"/>
  </g>
  <defs>
    <g id="decoration54-shape0" transform="matrix(1.0, 0.0, 0.0, 1.0, 17.15, 0.15)">
      <path d="M-10.25 33.5 L-11.7 27.0 -0.1 24.2 3.4 37.1 Q5.85 45.8 1.1 47.55 -9.55 53.15 -14.05 50.3 L-9.6 50.15 Q-7.3 49.4 -2.65 46.85 2.0 44.25 1.35 38.6 0.65 32.95 -1.25 30.5 L-2.55 32.4 Q-1.6 32.7 -0.9 34.15 -0.25 35.6 -1.15 36.85 -2.1 38.05 -3.65 37.7 -5.25 37.3 -5.05 36.0 -4.85 34.7 -3.8 34.0 -6.7 32.65 -8.4 30.55 L-10.25 33.5" fill="#6d2200" fill-rule="evenodd" stroke="none"/>
      <path d="M-10.25 33.5 L-8.4 30.55 Q-6.7 32.65 -3.8 34.0 -4.85 34.7 -5.05 36.0 -5.25 37.3 -3.65 37.7 -2.1 38.05 -1.15 36.85 -0.25 35.6 -0.9 34.15 -1.6 32.7 -2.55 32.4 L-1.25 30.5 Q0.65 32.95 1.35 38.6 2.0 44.25 -2.65 46.85 -7.3 49.4 -9.6 50.15 L-14.05 50.3 Q-15.0 50.0 -15.65 48.9 L-16.65 46.55 Q-18.5 41.15 -11.15 38.0 -9.85 36.5 -9.85 35.3 L-10.25 33.5" fill="#a63400" fill-rule="evenodd" stroke="none"/>
      <path d="M-14.05 50.3 Q-9.55 53.15 1.1 47.55 5.85 45.8 3.4 37.1 L-0.1 24.2 -11.7 27.0 -10.25 33.5 M-14.05 50.3 Q-15.0 50.0 -15.65 48.9 L-16.65 46.55 Q-18.5 41.15 -11.15 38.0 -9.85 36.5 -9.85 35.3 L-10.25 33.5" fill="none" stroke="#000000" stroke-linecap="round" stroke-linejoin="round" stroke-opacity="0.3019608" stroke-width="0.30000000000000004"/>
      <path d="M0.05 0.05 Q2.0 1.3 1.45 7.8 1.05 12.45 -0.65 19.75 L-0.65 18.85 Q0.45 11.25 0.6 7.05 0.75 2.35 -0.3 1.8 L-0.25 1.65 0.05 0.05" fill="#723f00" fill-rule="evenodd" stroke="none"/>
      <path d="M0.05 0.05 L-0.25 1.65 -0.3 1.8 -0.8 5.75 Q-1.2 11.2 -0.65 18.85 L-0.65 19.75 -0.65 20.35 -0.85 20.45 -1.05 20.45 -1.7 12.15 Q-2.25 3.85 -1.15 0.25 L-1.05 0.0 -0.65 0.1 0.05 0.05 M-0.85 20.45 L-0.65 19.75 -0.85 20.45 -0.65 18.85 -0.85 20.45 M-0.25 1.65 L-0.3 1.75 -0.3 1.8 -0.3 1.75 -0.25 1.65" fill="#bd7f06" fill-rule="evenodd" stroke="none"/>
      <path d="M-0.65 19.75 Q1.05 12.45 1.45 7.8 2.0 1.3 0.05 0.05 L-0.25 1.65 -0.3 1.8 Q0.75 2.35 0.6 7.05 0.45 11.25 -0.65 18.85 L-0.65 19.75 -0.65 20.35 -0.85 20.45 -1.05 20.45 -1.7 12.15 Q-2.25 3.85 -1.15 0.25 L-1.05 0.0 -0.65 0.1 0.05 0.05 M-0.65 18.85 Q-1.2 11.2 -0.8 5.75 L-0.3 1.8 -0.3 1.75 -0.25 1.65 M-0.85 20.45 L-0.65 18.85 M-0.65 19.75 L-0.85 20.45" fill="none" stroke="#000000" stroke-linecap="round" stroke-linejoin="round" stroke-opacity="0.3019608" stroke-width="0.30000000000000004"/>
      <path d="M0.85 19.5 L0.8 19.5 Q2.15 26.1 0.8 25.85 L2.05 26.8 Q2.6 28.25 5.1 29.2 L3.7 29.25 Q-1.75 28.9 -2.05 26.8 L-2.95 29.6 Q-3.45 30.85 -3.5 32.45 L-5.05 31.25 Q-6.7 29.65 -8.95 28.45 -9.35 31.0 -13.75 34.5 -12.05 31.55 -13.0 29.95 -14.25 30.1 -14.45 29.15 -15.5 26.35 -15.95 23.0 L-15.95 22.65 Q-15.85 22.0 -14.85 21.8 -7.35 20.8 -0.5 18.8 L-0.1 18.75 Q0.45 18.75 0.7 19.1 L0.85 19.5" fill="url(#decoration54-gradient0)" fill-rule="evenodd" stroke="none"/>
      <path d="M2.05 26.8 L0.8 25.85 Q2.15 26.1 0.8 19.5 L0.85 19.5 Q1.7 21.95 2.25 24.9 2.4 25.75 1.9 26.15 L2.05 26.8 M-2.95 29.6 L-2.05 26.8 Q-1.75 28.9 3.7 29.25 -0.45 29.3 -2.0 27.9 L-2.95 29.6" fill="#a39f9c" fill-rule="evenodd" stroke="none"/>
      <path d="M-13.75 34.5 Q-9.35 31.0 -8.95 28.45 -6.7 29.65 -5.05 31.25 -6.8 30.05 -8.55 29.6 -9.85 32.65 -13.75 34.5" fill="#c9bcbc" fill-rule="evenodd" stroke="none"/>
      <path d="M0.85 19.5 L0.7 19.1 Q0.45 18.75 -0.1 18.75 L-0.5 18.8 Q-7.35 20.8 -14.85 21.8 -15.85 22.0 -15.95 22.65 L-15.95 23.0 Q-15.5 26.35 -14.45 29.15 -14.25 30.1 -13.0 29.95 -12.05 31.55 -13.75 34.5 -9.85 32.65 -8.55 29.6 -6.8 30.05 -5.05 31.25 L-3.5 32.45 Q-3.45 30.85 -2.95 29.6 L-2.0 27.9 Q-0.45 29.3 3.7 29.25 L5.1 29.2 Q2.6 28.25 2.05 26.8 L1.9 26.15 Q2.4 25.75 2.25 24.9 1.7 21.95 0.85 19.5 Z" fill="none" stroke="#000000" stroke-linecap="round" stroke-linejoin="round" stroke-opacity="0.3019608" stroke-width="0.30000000000000004"/>
      <path d="M-15.9 35.35 L-15.2 34.4 -14.9 34.65 -13.95 34.55 -13.75 34.1 -13.2 33.4 -12.75 33.15 Q-12.5 33.75 -12.75 33.85 -13.2 33.7 -13.3 34.25 -12.9 34.6 -13.25 35.3 L-13.65 35.95 Q-13.8 35.35 -14.35 35.35 -14.7 35.35 -14.9 35.75 L-15.05 36.1 -15.9 35.35 M-13.75 34.1 L-13.3 34.25 -13.75 34.1 M-15.3 36.95 L-15.1 37.15 -15.15 37.25 -15.2 37.35 -15.45 37.2 -15.55 37.05 -15.3 36.95 M-12.8 36.5 L-12.7 36.7 -12.9 37.1 Q-13.15 37.4 -13.45 37.4 L-13.65 37.35 -13.05 36.8 -12.8 36.5" fill="#fcc200" fill-rule="evenodd" stroke="none"/>
      <path d="M-12.75 33.15 L-12.2 33.4 Q-11.8 33.9 -12.45 35.0 -12.15 35.45 -12.15 36.0 -12.15 36.8 -12.7 37.4 -13.15 37.8 -13.7 37.9 L-14.15 37.2 -14.15 36.7 -13.7 36.25 -13.65 35.95 -13.25 35.3 Q-12.9 34.6 -13.3 34.25 L-12.75 34.6 Q-12.45 34.05 -12.6 33.9 L-12.75 33.85 Q-12.5 33.75 -12.75 33.15 M-14.65 37.75 Q-15.1 37.75 -15.45 37.4 -16.05 36.8 -16.05 36.0 L-15.9 35.35 -15.05 36.1 -15.0 36.25 -14.65 36.65 Q-14.9 37.35 -14.65 37.75 M-15.3 36.95 L-15.55 37.05 -15.45 37.2 -15.2 37.35 -15.15 37.25 -15.1 37.15 -15.3 36.95 M-12.8 36.5 L-13.05 36.8 -13.65 37.35 -13.45 37.4 Q-13.15 37.4 -12.9 37.1 L-12.7 36.7 -12.8 36.5 M-12.45 35.0 L-12.75 34.6 -12.45 35.0" fill="#b46300" fill-rule="evenodd" stroke="none"/>
      <path d="M-15.2 34.4 Q-14.75 34.0 -13.75 34.1 L-13.95 34.55 -14.9 34.65 -15.2 34.4" fill="#fff125" fill-rule="evenodd" stroke="none"/>
      <path d="M-13.7 37.9 L-14.35 37.65 -14.65 37.75 Q-14.9 37.35 -14.65 36.65 L-15.0 36.25 -15.05 36.1 -14.9 35.75 Q-14.7 35.35 -14.35 35.35 -13.8 35.35 -13.65 35.95 L-13.7 36.25 -14.15 36.7 -14.15 37.2 -13.7 37.9" fill="#351a00" fill-rule="evenodd" stroke="none"/>
      <path d="M-15.9 35.35 L-15.2 34.4 Q-14.75 34.0 -13.75 34.1 L-13.2 33.4 -12.75 33.15 -12.2 33.4 Q-11.8 33.9 -12.45 35.0 -12.15 35.45 -12.15 36.0 -12.15 36.8 -12.7 37.4 -13.15 37.8 -13.7 37.9 M-14.65 37.75 Q-15.1 37.75 -15.45 37.4 -16.05 36.8 -16.05 36.0 L-15.9 35.35 M-15.05 36.1 L-14.9 35.75 Q-14.7 35.35 -14.35 35.35 -13.8 35.35 -13.65 35.95 L-13.7 36.25 -14.15 36.7 -14.15 37.2 -13.7 37.9 M-13.3 34.25 L-13.75 34.1 M-13.3 34.25 L-12.75 34.6 Q-12.45 34.05 -12.6 33.9 L-12.75 33.85 Q-13.2 33.7 -13.3 34.25 M-14.65 37.75 Q-14.9 37.35 -14.65 36.65 L-15.0 36.25 -15.05 36.1 M-12.75 34.6 L-12.45 35.0" fill="none" stroke="#000000" stroke-linecap="round" stroke-linejoin="round" stroke-opacity="0.3019608" stroke-width="0.30000000000000004"/>
      <path d="M-5.2 35.05 L-5.25 33.85 -4.85 33.85 -4.15 33.2 -4.25 32.75 Q-4.45 32.4 -4.25 31.9 L-4.05 31.4 Q-3.5 31.7 -3.65 31.9 -4.1 32.1 -3.85 32.6 -3.35 32.6 -3.15 33.4 -3.05 33.75 -3.1 34.15 L-4.0 34.1 -4.2 34.7 -4.05 35.1 -5.2 35.05 M-4.25 32.75 L-3.85 32.6 -4.25 32.75 M-3.8 35.95 L-3.5 36.0 -3.45 36.1 -3.45 36.2 -3.75 36.25 -3.85 36.15 -3.8 35.95 M-1.85 34.15 Q-1.75 34.25 -1.8 34.6 L-2.05 35.2 -2.25 35.25 -2.1 34.45 -2.05 34.1 Q-2.0 33.95 -1.85 34.15" fill="#fcc200" fill-rule="evenodd" stroke="none"/>
      <path d="M-5.2 35.05 L-4.05 35.1 -3.95 35.25 -3.45 35.3 -2.75 36.2 Q-3.1 36.5 -3.65 36.4 L-4.9 35.65 -5.2 35.05 M-3.1 34.15 Q-3.05 33.75 -3.15 33.4 -3.35 32.6 -3.85 32.6 L-3.15 32.5 Q-3.25 31.95 -3.5 31.9 L-3.65 31.9 Q-3.5 31.7 -4.05 31.4 L-3.45 31.25 Q-2.85 31.4 -2.7 32.65 L-1.85 33.3 Q-1.35 33.95 -1.5 34.75 -1.55 35.3 -1.9 35.75 L-2.7 35.45 -3.0 35.05 -2.95 34.4 -3.1 34.15 M-2.7 32.65 L-3.15 32.5 -2.7 32.65 M-1.85 34.15 Q-2.0 33.95 -2.05 34.1 L-2.1 34.45 -2.25 35.25 -2.05 35.2 -1.8 34.6 Q-1.75 34.25 -1.85 34.15 M-3.8 35.95 L-3.85 36.15 -3.75 36.25 -3.45 36.2 -3.45 36.1 -3.5 36.0 -3.8 35.95" fill="#b46300" fill-rule="evenodd" stroke="none"/>
      <path d="M-4.25 32.75 L-4.15 33.2 -4.85 33.85 -5.25 33.85 Q-5.15 33.25 -4.25 32.75" fill="#fff125" fill-rule="evenodd" stroke="none"/>
      <path d="M-4.05 35.1 L-4.2 34.7 -4.0 34.1 -3.1 34.15 -2.95 34.4 -3.0 35.05 -2.7 35.45 -1.9 35.75 -2.55 35.9 -2.75 36.2 -3.45 35.3 -3.95 35.25 -4.05 35.1" fill="#351a00" fill-rule="evenodd" stroke="none"/>
      <path d="M-5.25 33.85 L-5.2 35.05 M-4.05 35.1 L-4.2 34.7 -4.0 34.1 -3.1 34.15 -2.95 34.4 -3.0 35.05 -2.7 35.45 -1.9 35.75 M-3.85 32.6 L-4.25 32.75 Q-4.45 32.4 -4.25 31.9 L-4.05 31.4 -3.45 31.25 Q-2.85 31.4 -2.7 32.65 L-1.85 33.3 Q-1.35 33.95 -1.5 34.75 -1.55 35.3 -1.9 35.75 M-5.25 33.85 Q-5.15 33.25 -4.25 32.75 M-2.75 36.2 Q-3.1 36.5 -3.65 36.4 L-4.9 35.65 -5.2 35.05 M-3.65 31.9 L-3.5 31.9 Q-3.25 31.95 -3.15 32.5 L-2.7 32.65 M-3.65 31.9 Q-4.1 32.1 -3.85 32.6 L-3.15 32.5 M-2.75 36.2 L-3.45 35.3 -3.95 35.25 -4.05 35.1" fill="none" stroke="#000000" stroke-linecap="round" stroke-linejoin="round" stroke-opacity="0.3019608" stroke-width="0.30000000000000004"/>
      <path d="M6.9 30.75 Q7.1 30.45 6.85 30.1 L6.6 29.75 6.35 29.8 6.5 30.15 6.8 30.95 6.9 30.75 M5.1 28.85 L6.15 29.0 Q6.9 29.3 7.15 30.05 7.45 30.6 7.3 31.2 L6.5 31.35 6.0 31.1 5.75 30.5 5.5 30.35 5.05 29.75 Q4.55 29.15 4.05 29.4 L4.6 29.0 5.1 28.85 4.6 29.0 Q4.25 28.5 4.05 28.6 L3.95 28.7 Q3.9 28.45 3.25 28.45 L3.75 28.05 Q4.3 27.85 5.1 28.85 M6.8 31.95 L6.1 32.6 Q5.4 32.9 4.65 32.6 L4.1 32.25 Q4.55 32.4 5.1 31.65 L5.3 31.75 Q5.5 31.75 5.75 31.55 6.3 32.0 6.8 31.95 M6.05 32.1 L5.8 32.25 Q5.65 32.45 5.8 32.5 L6.0 32.5 6.15 32.3 6.2 32.25 6.05 32.1" fill="#b46300" fill-rule="evenodd" stroke="none"/>
      <path d="M6.9 30.75 L6.8 30.95 6.5 30.15 6.35 29.8 6.6 29.75 6.85 30.1 Q7.1 30.45 6.9 30.75 M4.05 29.4 Q4.55 29.15 5.05 29.75 L5.5 30.35 Q4.9 30.25 4.65 30.75 4.6 31.1 4.85 31.4 L5.1 31.65 Q4.55 32.4 4.1 32.25 L3.5 31.2 3.85 31.0 4.1 30.1 3.8 29.75 3.8 29.7 Q3.4 29.55 3.35 28.95 L3.25 28.45 Q3.9 28.45 3.95 28.7 3.55 29.1 4.05 29.4 L3.8 29.7 4.05 29.4 M6.05 32.1 L6.2 32.25 6.15 32.3 6.0 32.5 5.8 32.5 Q5.65 32.45 5.8 32.25 L6.05 32.1" fill="#fcc200" fill-rule="evenodd" stroke="none"/>
      <path d="M5.5 30.35 L5.75 30.5 6.0 31.1 6.5 31.35 7.3 31.2 6.85 31.65 6.8 31.95 Q6.3 32.0 5.75 31.55 5.5 31.75 5.3 31.75 L5.1 31.65 4.85 31.4 Q4.6 31.1 4.65 30.75 4.9 30.25 5.5 30.35" fill="#351a00" fill-rule="evenodd" stroke="none"/>
      <path d="M3.5 31.2 Q3.3 30.65 3.8 29.75 L4.1 30.1 3.85 31.0 3.5 31.2" fill="#fff125" fill-rule="evenodd" stroke="none"/>
      <path d="M7.3 31.2 Q7.45 30.6 7.15 30.05 6.9 29.3 6.15 29.0 L5.1 28.85 4.6 29.0 4.05 29.4 3.8 29.7 Q3.4 29.55 3.35 28.95 L3.25 28.45 3.75 28.05 Q4.3 27.85 5.1 28.85 M5.5 30.35 L5.75 30.5 6.0 31.1 6.5 31.35 7.3 31.2 M6.8 31.95 L6.1 32.6 Q5.4 32.9 4.65 32.6 L4.1 32.25 3.5 31.2 Q3.3 30.65 3.8 29.75 L3.8 29.7 M3.95 28.7 L4.05 28.6 Q4.25 28.5 4.6 29.0 M4.05 29.4 Q3.55 29.1 3.95 28.7 M6.8 31.95 Q6.3 32.0 5.75 31.55 5.5 31.75 5.3 31.75 L5.1 31.65 4.85 31.4 Q4.6 31.1 4.65 30.75 4.9 30.25 5.5 30.35" fill="none" stroke="#000000" stroke-linecap="round" stroke-linejoin="round" stroke-opacity="0.3019608" stroke-width="0.30000000000000004"/>
    </g>
    <linearGradient gradientTransform="matrix(0.0055, 0.0055, -0.0068, 0.0068, -5.35, 26.45)" gradientUnits="userSpaceOnUse" id="decoration54-gradient0" spreadMethod="pad" x1="-819.2" x2="819.2">
      <stop offset="0.0" stop-color="#ffffff"/>
      <stop offset="0.9725490196078431" stop-color="#b8aea2"/>
    </linearGradient>
  </defs>
</svg>
