<?xml version="1.0" encoding="UTF-8" standalone="no"?>
<svg xmlns:ffdec="https://www.free-decompiler.com/flash" xmlns:xlink="http://www.w3.org/1999/xlink" ffdec:objectType="frame" height="72.1px" width="254.7px" xmlns="http://www.w3.org/2000/svg">
  <g transform="matrix(1.0, 0.0, 0.0, 1.0, 8.6, 8.65)">
    <use ffdec:characterId="683" height="31.5" id="decoration56-Couleur0_CE4505" filter="url(#decoration56-filter0)" transform="matrix(0.5454, -0.1898, -0.2451, -0.624, -0.445, 20.5221)" width="38.8" xlink:href="#decoration56-sprite0"/>
    <use ffdec:characterId="683" height="31.5" id="decoration56-Couleur0_CE4505" filter="url(#decoration56-filter0)" transform="matrix(0.4272, -0.4947, -0.5961, -0.4651, 10.1753, 30.594)" width="38.8" xlink:href="#decoration56-sprite0"/>
    <use ffdec:characterId="683" height="31.5" id="decoration56-Couleur0_CE4505" filter="url(#decoration56-filter0)" transform="matrix(-0.3277, 0.5885, -0.5835, -0.4257, 29.3867, 13.3756)" width="38.8" xlink:href="#decoration56-sprite0"/>
    <use ffdec:characterId="683" height="31.5" id="decoration56-Couleur0_CE4505" filter="url(#decoration56-filter0)" transform="matrix(0.3227, -0.6672, -0.7025, -0.1933, 26.907, 35.5791)" width="38.8" xlink:href="#decoration56-sprite0"/>
    <use ffdec:characterId="683" height="31.5" id="decoration56-Couleur0_CE4505" filter="url(#decoration56-filter0)" transform="matrix(-0.2916, 0.6342, -0.6182, -0.3721, 42.6865, 18.7107)" width="38.8" xlink:href="#decoration56-sprite0"/>
    <use ffdec:characterId="683" height="31.5" id="decoration56-Couleur0_CE4505" filter="url(#decoration56-filter0)" transform="matrix(0.3019, -0.5625, -0.7004, -0.2132, 42.8598, 40.4164)" width="38.8" xlink:href="#decoration56-sprite0"/>
    <use ffdec:characterId="683" height="31.5" id="decoration56-Couleur0_CE4505" filter="url(#decoration56-filter0)" transform="matrix(-0.3366, 0.6578, -0.6089, -0.3879, 57.4418, 24.5095)" width="38.8" xlink:href="#decoration56-sprite0"/>
    <use ffdec:characterId="683" height="31.5" id="decoration56-Couleur0_CE4505" filter="url(#decoration56-filter0)" transform="matrix(0.2223, -0.6229, -0.7241, -0.1333, 58.4253, 43.6134)" width="38.8" xlink:href="#decoration56-sprite0"/>
    <use ffdec:characterId="683" height="31.5" id="decoration56-Couleur0_CE4505" filter="url(#decoration56-filter0)" transform="matrix(-0.1697, 0.647, -0.6899, -0.2272, 72.929, 27.337)" width="38.8" xlink:href="#decoration56-sprite0"/>
    <use ffdec:characterId="683" height="31.5" id="decoration56-Couleur0_CE4505" filter="url(#decoration56-filter0)" transform="matrix(0.1466, -0.6085, -0.7425, -0.0745, 77.3394, 46.3024)" width="38.8" xlink:href="#decoration56-sprite0"/>
    <use ffdec:characterId="683" height="31.5" id="decoration56-Couleur0_CE4505" filter="url(#decoration56-filter0)" transform="matrix(-0.0792, 0.605, -0.7197, -0.1334, 87.0698, 29.2293)" width="38.8" xlink:href="#decoration56-sprite0"/>
    <use ffdec:characterId="683" height="31.5" id="decoration56-Couleur0_CE4505" filter="url(#decoration56-filter0)" transform="matrix(-0.019, -0.6223, -0.799, 0.0777, 96.1227, 46.7817)" width="38.8" xlink:href="#decoration56-sprite0"/>
    <use ffdec:characterId="683" height="31.5" id="decoration56-Couleur0_CE4505" filter="url(#decoration56-filter0)" transform="matrix(0.0034, 0.6448, -0.7311, -0.035, 104.7592, 27.0585)" width="38.8" xlink:href="#decoration56-sprite0"/>
    <use ffdec:characterId="683" height="31.5" id="decoration56-Couleur0_CE4505" filter="url(#decoration56-filter0)" transform="matrix(-0.019, -0.6223, -0.799, 0.0777, 114.9227, 47.4317)" width="38.8" xlink:href="#decoration56-sprite0"/>
    <use ffdec:characterId="683" height="31.5" id="decoration56-Couleur0_CE4505" filter="url(#decoration56-filter0)" transform="matrix(0.4283, 0.5022, 0.4991, -0.4837, 213.7609, 6.5972)" width="38.8" xlink:href="#decoration56-sprite0"/>
    <use ffdec:characterId="683" height="31.5" id="decoration56-Couleur0_CE4505" filter="url(#decoration56-filter0)" transform="matrix(-0.3529, -0.5307, 0.6619, -0.3771, 215.1536, 28.2862)" width="38.8" xlink:href="#decoration56-sprite0"/>
    <use ffdec:characterId="683" height="31.5" id="decoration56-Couleur0_CE4505" filter="url(#decoration56-filter0)" transform="matrix(0.3337, 0.5694, 0.5807, -0.3809, 197.9628, 15.7217)" width="38.8" xlink:href="#decoration56-sprite0"/>
    <use ffdec:characterId="683" height="31.5" id="decoration56-Couleur0_CE4505" filter="url(#decoration56-filter0)" transform="matrix(-0.2839, -0.5699, 0.7112, -0.2784, 197.2359, 37.7272)" width="38.8" xlink:href="#decoration56-sprite0"/>
    <use ffdec:characterId="683" height="31.5" id="decoration56-Couleur0_CE4505" filter="url(#decoration56-filter0)" transform="matrix(0.2789, 0.5972, 0.6189, -0.3162, 180.8153, 22.9579)" width="38.8" xlink:href="#decoration56-sprite0"/>
    <use ffdec:characterId="683" height="31.5" id="decoration56-Couleur0_CE4505" filter="url(#decoration56-filter0)" transform="matrix(-0.1999, -0.6018, 0.7514, -0.1611, 179.8673, 41.4144)" width="38.8" xlink:href="#decoration56-sprite0"/>
    <use ffdec:characterId="683" height="31.5" id="decoration56-Couleur0_CE4505" filter="url(#decoration56-filter0)" transform="matrix(0.2243, 0.618, 0.6494, -0.2517, 166.319, 25.4951)" width="38.8" xlink:href="#decoration56-sprite0"/>
    <use ffdec:characterId="683" height="31.5" id="decoration56-Couleur0_CE4505" filter="url(#decoration56-filter0)" transform="matrix(-0.1471, -0.6143, 0.7672, -0.0885, 163.807, 45.3054)" width="38.8" xlink:href="#decoration56-sprite0"/>
    <use ffdec:characterId="683" height="31.5" id="decoration56-Couleur0_CE4505" filter="url(#decoration56-filter0)" transform="matrix(0.1571, 0.6353, 0.6778, -0.1727, 151.2248, 27.2806)" width="38.8" xlink:href="#decoration56-sprite0"/>
    <use ffdec:characterId="683" height="31.5" id="decoration56-Couleur0_CE4505" filter="url(#decoration56-filter0)" transform="matrix(-0.098, -0.6213, 0.7761, -0.0221, 143.9483, 47.7465)" width="38.8" xlink:href="#decoration56-sprite0"/>
    <use ffdec:characterId="683" height="31.5" id="decoration56-Couleur0_CE4505" filter="url(#decoration56-filter0)" transform="matrix(0.0797, 0.6452, 0.6994, -0.0817, 133.3331, 29.1155)" width="38.8" xlink:href="#decoration56-sprite0"/>
    <use ffdec:characterId="683" height="31.5" id="decoration56-Couleur0_CE4505" filter="url(#decoration56-filter0)" transform="matrix(-0.0276, -0.6239, 0.7796, 0.0721, 126.6872, 47.3328)" width="38.8" xlink:href="#decoration56-sprite0"/>
    <use ffdec:characterId="683" height="31.5" id="decoration56-Couleur0_CE4505" filter="url(#decoration56-filter0)" transform="matrix(0.001, 0.6449, 0.7099, 0.0105, 118.7434, 28.3017)" width="38.8" xlink:href="#decoration56-sprite0"/>
    <use ffdec:characterId="683" height="31.5" id="decoration56-Couleur0_CE4505" filter="url(#decoration56-filter0)" transform="matrix(0.0565, -0.6158, 0.7698, 0.1827, 109.576, 47.465)" width="38.8" xlink:href="#decoration56-sprite0"/>
    <use ffdec:characterId="641" height="48.6" id="decoration56-Couleur1_FCC304" filter="url(#decoration56-filter1)" transform="matrix(1.0, 0.0, 0.0, 1.0, 86.6, 14.85)" width="53.55" xlink:href="#decoration56-sprite1"/>
  </g>
  <defs>
    <g id="decoration56-sprite0" transform="matrix(1.0, 0.0, 0.0, 1.0, 0.15, 0.15)">
      <use ffdec:characterId="682" height="31.5" transform="matrix(1.0, 0.0, 0.0, 1.0, -0.15, -0.15)" width="38.8" xlink:href="#decoration56-shape0"/>
    </g>
    <g id="decoration56-shape0" transform="matrix(1.0, 0.0, 0.0, 1.0, 0.15, 0.15)">
      <path d="M6.55 7.15 L6.55 12.8 8.6 14.2 11.7 5.1 13.2 14.8 13.2 7.1 15.1 14.7 17.0 14.7 17.0 7.6 21.6 18.7 24.65 18.1 26.0 22.2 Q23.45 23.9 20.55 23.15 L17.9 15.4 17.9 25.7 16.3 24.2 14.8 16.3 12.5 29.2 12.1 11.0 9.55 28.7 10.25 12.8 8.65 20.15 Q7.1 20.1 3.55 18.15 L5.0 13.9 0.0 21.2 6.55 7.15 M24.95 17.7 L26.05 16.15 32.2 29.4 30.1 30.6 24.95 17.7 M26.4 15.65 L27.75 13.8 Q32.5 20.25 38.5 26.8 L30.9 19.3 34.8 28.5 Q30.3 22.3 26.4 15.65 M26.6 24.05 L28.6 30.0 22.7 29.4 21.75 26.55 Q23.6 23.75 26.6 24.05 M2.1 22.4 Q5.2 20.5 8.35 21.65 L7.3 26.5 1.1 25.3 2.1 22.4" fill="#808080" fill-rule="evenodd" stroke="none"/>
      <path d="M3.55 18.15 Q7.1 20.1 8.65 20.15 L10.25 12.8 8.2 27.65 1.1 25.3 7.3 26.5 8.35 21.65 Q5.2 20.5 2.1 22.4 L3.55 18.15 M14.8 16.3 L16.3 24.2 17.9 25.7 15.3 25.4 14.8 16.3 M17.9 15.4 L20.55 23.15 Q23.45 23.9 26.0 22.2 L26.6 24.05 Q23.6 23.75 21.75 26.55 L22.7 29.4 28.6 30.0 21.6 31.2 17.9 15.4" fill="#b4aca1" fill-rule="evenodd" stroke="none"/>
      <path d="M24.65 18.1 L21.6 18.7 17.0 7.6 17.0 14.7 15.1 14.7 13.2 7.1 13.2 14.8 11.7 5.1 8.6 14.2 6.55 12.8 6.55 7.15 Q7.85 4.15 10.9 0.3 14.35 -0.6 19.5 1.2 23.05 7.45 27.75 13.8 L26.4 15.65 23.0 9.7 26.05 16.15 24.95 17.7 22.3 11.1 24.65 18.1" fill="#5d5553" fill-rule="evenodd" stroke="none"/>
      <path d="M6.55 7.15 L0.0 21.2 5.0 13.9 3.55 18.15 2.1 22.4 1.1 25.3 8.2 27.65 10.25 12.8 9.55 28.7 12.1 11.0 12.5 29.2 14.8 16.3 15.3 25.4 17.9 25.7 17.9 15.4 21.6 31.2 28.6 30.0 26.6 24.05 26.0 22.2 24.65 18.1 22.3 11.1 24.95 17.7 30.1 30.6 32.2 29.4 26.05 16.15 23.0 9.7 26.4 15.65 Q30.3 22.3 34.8 28.5 L30.9 19.3 38.5 26.8 Q32.5 20.25 27.75 13.8 23.05 7.45 19.5 1.2 14.35 -0.6 10.9 0.3 7.85 4.15 6.55 7.15 Z" fill="none" stroke="#000000" stroke-linecap="round" stroke-linejoin="round" stroke-opacity="0.3019608" stroke-width="0.30000000000000004"/>
    </g>
    <g id="decoration56-sprite1" transform="matrix(1.0, 0.0, 0.0, 1.0, 0.15, 0.15)">
      <use ffdec:characterId="640" height="48.6" transform="matrix(1.0, 0.0, 0.0, 1.0, -0.15, -0.15)" width="53.55" xlink:href="#decoration56-shape1"/>
    </g>
    <g id="decoration56-shape1" transform="matrix(1.0, 0.0, 0.0, 1.0, 0.15, 0.15)">
      <path d="M23.45 7.4 L24.9 10.85 Q25.35 17.35 16.65 15.85 16.8 9.75 23.45 7.4 M0.05 17.85 Q-0.8 4.35 15.3 0.0 16.7 0.4 17.95 1.15 18.35 7.9 7.75 14.35 L7.65 14.4 Q2.4 15.65 0.05 17.85" fill="#808080" fill-rule="evenodd" stroke="none"/>
      <path d="M24.9 10.85 L26.15 15.45 25.5 21.25 21.85 22.85 20.35 23.0 19.8 23.05 Q11.85 23.55 5.6 21.0 6.6 15.95 13.5 16.7 18.6 19.85 25.5 21.25 19.6 17.4 15.6 15.65 L16.65 15.85 Q25.35 17.35 24.9 10.85" fill="#5b554f" fill-rule="evenodd" stroke="none"/>
      <path d="M5.6 21.0 Q2.65 19.75 0.05 17.85 2.4 15.65 7.65 14.4 L7.75 14.35 9.95 14.1 Q11.6 15.5 13.5 16.7 6.6 15.95 5.6 21.0" fill="#4a433b" fill-rule="evenodd" stroke="none"/>
      <path d="M17.95 1.15 Q21.25 3.1 23.45 7.4 16.8 9.75 16.65 15.85 L15.6 15.65 Q12.05 14.1 9.95 14.1 L7.75 14.35 Q18.35 7.9 17.95 1.15" fill="#b4aaa5" fill-rule="evenodd" stroke="none"/>
      <path d="M23.45 7.4 L24.9 10.85 26.15 15.45 25.5 21.25 21.85 22.85 20.35 23.0 19.8 23.05 Q11.85 23.55 5.6 21.0 2.65 19.75 0.05 17.85 -0.8 4.35 15.3 0.0 16.7 0.4 17.95 1.15 21.25 3.1 23.45 7.4 M13.5 16.7 Q11.6 15.5 9.95 14.1 12.05 14.1 15.6 15.65 19.6 17.4 25.5 21.25 18.6 19.85 13.5 16.7 Z" fill="none" stroke="#000000" stroke-linecap="round" stroke-linejoin="round" stroke-opacity="0.3019608" stroke-width="0.30000000000000004"/>
      <path d="M39.05 0.9 Q38.75 5.65 43.5 9.55 L47.25 12.05 45.25 12.5 Q43.5 12.95 41.9 13.55 L40.6 10.8 Q38.3 7.2 33.55 5.55 35.75 2.85 39.05 0.9" fill="#b4aaa5" fill-rule="evenodd" stroke="none"/>
      <path d="M47.25 12.05 L43.5 9.55 Q38.75 5.65 39.05 0.9 39.75 0.45 40.55 0.05 58.7 2.05 50.9 16.15 50.5 14.3 49.7 13.3 48.75 12.15 47.25 12.05 M33.55 5.55 Q38.3 7.2 40.6 10.8 L41.9 13.55 36.45 13.7 Q30.7 13.25 31.05 9.7 32.0 7.45 33.55 5.55" fill="#808080" fill-rule="evenodd" stroke="none"/>
      <path d="M45.25 12.5 L47.25 12.05 Q48.75 12.15 49.7 13.3 50.5 14.3 50.9 16.15 47.5 18.4 43.2 19.7 44.9 17.65 45.5 16.3 46.45 14.0 44.3 13.5 L45.25 12.5" fill="#4a433b" fill-rule="evenodd" stroke="none"/>
      <path d="M44.3 13.5 Q46.45 14.0 45.5 16.3 44.9 17.65 43.2 19.7 37.35 21.4 29.85 21.35 L29.2 17.75 Q29.45 13.25 31.05 9.7 30.7 13.25 36.45 13.7 L41.9 13.55 Q35.2 15.8 31.1 19.4 41.15 16.15 44.3 13.5" fill="#5b554f" fill-rule="evenodd" stroke="none"/>
      <path d="M39.05 0.9 Q35.75 2.85 33.55 5.55 32.0 7.45 31.05 9.7 29.45 13.25 29.2 17.75 L29.85 21.35 Q37.35 21.4 43.2 19.7 47.5 18.4 50.9 16.15 58.7 2.05 40.55 0.05 39.75 0.45 39.05 0.9 M41.9 13.55 Q43.5 12.95 45.25 12.5 L47.25 12.05 M44.3 13.5 L45.25 12.5 M41.9 13.55 Q35.2 15.8 31.1 19.4 41.15 16.15 44.3 13.5" fill="none" stroke="#000000" stroke-linecap="round" stroke-linejoin="round" stroke-opacity="0.3019608" stroke-width="0.30000000000000004"/>
      <path d="M41.15 35.9 Q44.5 37.0 48.8 37.95 L41.0 40.35 38.4 48.3 Q35.7 45.75 33.5 42.7 34.55 40.2 36.25 38.6 38.2 36.65 41.15 35.9 M31.85 40.15 L30.7 38.1 Q30.65 36.2 31.2 35.0 32.0 33.15 34.25 33.05 L36.9 34.35 Q36.35 36.2 35.25 37.6 33.95 39.2 31.85 40.15 M20.0 36.75 Q18.75 36.4 17.8 35.9 15.45 34.7 14.8 32.5 L16.4 30.75 Q19.5 30.95 20.15 34.15 L20.3 35.45 20.0 36.75 M11.65 36.4 Q14.6 35.85 16.6 37.45 18.1 38.65 19.0 41.15 L17.8 48.15 12.2 42.0 7.2 42.85 Q9.35 39.4 11.65 36.4" fill="#808080" fill-rule="evenodd" stroke="none"/>
      <path d="M33.5 42.7 L31.85 40.15 Q33.95 39.2 35.25 37.6 36.35 36.2 36.9 34.35 L41.15 35.9 Q38.2 36.65 36.25 38.6 34.55 40.2 33.5 42.7 M14.8 32.5 Q15.45 34.7 17.8 35.9 18.75 36.4 20.0 36.75 L19.0 41.15 Q18.1 38.65 16.6 37.45 14.6 35.85 11.65 36.4 L14.8 32.5" fill="#b4aaa5" fill-rule="evenodd" stroke="none"/>
      <path d="M30.7 38.1 L28.9 34.2 Q27.45 30.8 26.45 26.95 L28.55 26.6 Q29.05 30.15 34.25 33.05 32.0 33.15 31.2 35.0 30.65 36.2 30.7 38.1 M20.3 35.45 L20.15 34.15 Q19.5 30.95 16.4 30.75 18.8 28.2 21.35 26.1 L22.45 28.0 Q21.5 30.8 20.7 33.85 L20.3 35.45" fill="#5b554f" fill-rule="evenodd" stroke="none"/>
      <path d="M41.15 35.9 Q44.5 37.0 48.8 37.95 L41.0 40.35 38.4 48.3 Q35.7 45.75 33.5 42.7 L31.85 40.15 30.7 38.1 28.9 34.2 Q27.45 30.8 26.45 26.95 L28.55 26.6 Q29.05 30.15 34.25 33.05 L36.9 34.35 41.15 35.9 M20.0 36.75 L20.3 35.45 20.7 33.85 Q21.5 30.8 22.45 28.0 L21.35 26.1 Q18.8 28.2 16.4 30.75 L14.8 32.5 11.65 36.4 Q9.35 39.4 7.2 42.85 L12.2 42.0 17.8 48.15 19.0 41.15 20.0 36.75 Z" fill="none" stroke="#000000" stroke-linecap="round" stroke-linejoin="round" stroke-opacity="0.3019608" stroke-width="0.30000000000000004"/>
      <path d="M29.4 19.7 L28.5 21.05 Q23.8 18.55 20.1 21.85 20.1 20.9 20.25 19.95 L20.75 17.7 Q24.05 20.45 30.6 17.25 L29.4 19.7" fill="#b4aaa5" fill-rule="evenodd" stroke="none"/>
      <path d="M28.5 21.05 L29.4 19.7 30.6 17.25 31.1 16.35 31.2 20.2 Q28.7 24.15 28.35 29.45 27.65 28.6 27.4 27.45 L27.4 29.65 Q25.05 29.4 23.8 28.75 21.3 27.65 20.15 23.65 L23.55 24.85 Q25.55 25.4 28.5 21.05 M20.25 19.95 Q20.1 20.9 20.1 21.85 L20.15 23.65 Q20.55 26.85 22.85 29.0 17.55 28.55 20.25 19.95 M29.4 19.7 Q27.65 23.6 27.4 27.45 27.65 23.6 29.4 19.7" fill="#5b554f" fill-rule="evenodd" stroke="none"/>
      <path d="M30.6 17.25 Q24.05 20.45 20.75 17.7 26.15 14.35 31.1 16.35 L30.6 17.25 M20.1 21.85 Q23.8 18.55 28.5 21.05 25.55 25.4 23.55 24.85 L20.15 23.65 Q21.3 27.65 23.8 28.75 25.05 29.4 27.4 29.65 L27.45 30.6 23.5 29.55 22.85 29.0 Q20.55 26.85 20.15 23.65 L20.1 21.85 M28.35 29.45 Q28.7 24.15 31.2 20.2 L31.35 31.6 Q29.35 30.85 28.35 29.45" fill="#808080" fill-rule="evenodd" stroke="none"/>
      <path d="M29.4 19.7 L30.6 17.25 31.1 16.35 Q26.15 14.35 20.75 17.7 L20.25 19.95 Q20.1 20.9 20.1 21.85 L20.15 23.65 Q20.55 26.85 22.85 29.0 L23.5 29.55 27.45 30.6 27.4 29.65 27.4 27.45 Q27.65 23.6 29.4 19.7 M31.2 20.2 L31.1 16.35 M27.4 27.45 Q27.65 28.6 28.35 29.45 29.35 30.85 31.35 31.6 L31.2 20.2 M20.25 19.95 Q17.55 28.55 22.85 29.0" fill="none" stroke="#000000" stroke-linecap="round" stroke-linejoin="round" stroke-opacity="0.3019608" stroke-width="0.30000000000000004"/>
    </g>
  </defs>
</svg>
