<?xml version="1.0" encoding="UTF-8" standalone="no"?>
<svg xmlns:xlink="http://www.w3.org/1999/xlink" height="153.15px" width="105.2px" xmlns="http://www.w3.org/2000/svg">
  <g transform="matrix(1.0, 0.0, 0.0, 1.0, 79.65, 151.8)">
    <use height="34.5" transform="matrix(0.636, -0.2284, 0.1659, 0.8525, -17.4235, -101.5033)" width="22.75" xlink:href="#decoration6-sprite0"/>
    <use height="34.5" transform="matrix(0.6818, 0.0, -0.0048, 0.9671, -8.6028, -80.1596)" width="22.75" xlink:href="#decoration6-sprite0"/>
    <use height="89.95" transform="matrix(1.0, 0.0, 0.0, 1.0, -79.65, -151.8)" width="105.2" xlink:href="#decoration6-shape1"/>
    <use height="34.5" transform="matrix(0.8376, 0.0, -0.1136, 0.9618, -5.9383, -52.0449)" width="22.75" xlink:href="#decoration6-sprite0"/>
    <use height="128.0" transform="matrix(1.0, 0.0, 0.0, 1.0, -57.1, -126.65)" width="68.1" xlink:href="#decoration6-shape2"/>
    <use height="116.85" transform="matrix(0.158, -0.2965, 0.2737, 0.1712, -72.7528, -73.6295)" width="220.6" xlink:href="#decoration6-sprite1"/>
  </g>
  <defs>
    <g id="decoration6-sprite0" transform="matrix(1.0, 0.0, 0.0, 1.0, 2.15, 2.75)">
      <use height="34.5" transform="matrix(1.0, 0.0, 0.0, 1.0, -2.15, -2.75)" width="22.75" xlink:href="#decoration6-shape0"/>
    </g>
    <g id="decoration6-shape0" transform="matrix(1.0, 0.0, 0.0, 1.0, 2.15, 2.75)">
      <path d="M1.8 22.05 Q3.75 14.75 -1.95 1.9 0.35 -0.6 4.95 -1.65 8.25 3.4 9.9 7.4 13.2 15.4 13.05 18.95 L7.75 23.45 1.8 22.05 M7.1 17.2 L5.15 8.3 7.1 17.2 M6.6 4.5 L4.95 -1.65 6.6 4.5" fill="#6a5324" fill-rule="evenodd" stroke="none"/>
      <path d="M1.7 23.45 L1.8 22.05 7.75 23.45 13.05 18.95 Q13.2 15.4 9.9 7.4 8.25 3.4 4.95 -1.65 L10.3 -2.55 Q13.8 8.8 14.5 15.45 L14.5 22.7 9.9 25.25 Q3.6 24.7 1.7 23.45" fill="#533f12" fill-rule="evenodd" stroke="none"/>
      <path d="M10.3 -2.55 Q13.05 -2.4 15.45 -1.35 15.75 10.4 20.4 23.05 L19.0 23.9 16.9 25.15 14.8 26.4 4.75 26.25 1.4 26.15 1.7 23.45 Q3.6 24.7 9.9 25.25 L14.5 22.7 14.5 15.45 Q13.8 8.8 10.3 -2.55 M15.8 16.5 L16.9 25.15 15.8 16.5" fill="#2d1f09" fill-rule="evenodd" stroke="none"/>
      <path d="M19.0 23.9 Q18.55 25.4 18.6 26.2 15.15 27.9 10.9 28.65 L5.2 28.0 4.75 26.25 14.8 26.4 16.9 25.15 19.0 23.9" fill="#3c2206" fill-rule="evenodd" stroke="none"/>
      <path d="M18.6 26.2 Q18.7 27.75 19.1 28.65 15.45 31.05 12.15 31.35 L4.45 31.55 Q5.45 29.95 5.2 28.0 L10.9 28.65 Q15.15 27.9 18.6 26.2" fill="#513110" fill-rule="evenodd" stroke="none"/>
      <path d="M10.3 -2.55 Q13.05 -2.4 15.45 -1.35 15.75 10.4 20.4 23.05 L19.0 23.9 Q18.55 25.4 18.6 26.2 18.7 27.75 19.1 28.65 15.45 31.05 12.15 31.35 L4.45 31.55 Q5.45 29.95 5.2 28.0 L4.75 26.25 1.4 26.15 1.7 23.45 1.8 22.05 Q3.75 14.75 -1.95 1.9 0.35 -0.6 4.95 -1.65 L10.3 -2.55 M4.75 26.25 L14.8 26.4 16.9 25.15 M19.0 23.9 L16.9 25.15" fill="none" stroke="#000000" stroke-linecap="round" stroke-linejoin="round" stroke-opacity="0.34901962" stroke-width="0.4"/>
      <path d="M4.95 -1.65 L6.6 4.5 M5.15 8.3 L7.1 17.2 M16.9 25.15 L15.8 16.5" fill="none" stroke="#000000" stroke-linecap="round" stroke-linejoin="round" stroke-opacity="0.101960786" stroke-width="0.5"/>
    </g>
    <g id="decoration6-shape1" transform="matrix(1.0, 0.0, 0.0, 1.0, 79.65, 151.8)">
      <path d="M20.6 -133.7 L21.7 -135.1 Q22.85 -136.65 23.05 -137.5 23.2 -136.65 22.8 -134.9 L22.35 -133.35 20.6 -133.7" fill="#616b08" fill-rule="evenodd" stroke="none"/>
      <path d="M23.05 -137.5 Q22.85 -136.65 21.7 -135.1 L20.6 -133.7 9.05 -133.5 Q-3.3 -133.0 -7.6 -131.35 -3.75 -134.6 2.2 -136.75 L20.85 -139.65 Q14.8 -138.55 8.55 -135.35 12.05 -136.3 23.05 -137.5 M10.05 -146.35 L1.35 -138.35 Q-1.55 -137.5 -5.9 -134.55 L-9.85 -131.75 Q-9.55 -133.7 -7.5 -135.25 -5.25 -139.3 -2.65 -142.25 L-0.9 -144.0 1.9 -146.45 6.3 -146.6 10.05 -146.35" fill="#485b00" fill-rule="evenodd" stroke="none"/>
      <path d="M20.6 -133.7 L22.35 -133.35 20.4 -132.5 Q18.8 -131.65 20.1 -131.35 L13.0 -129.95 14.4 -129.15 12.45 -127.7 12.55 -127.7 13.65 -127.35 10.75 -124.45 7.55 -122.8 Q5.65 -121.9 5.35 -121.85 L1.0 -123.0 -0.2 -123.35 Q3.0 -122.95 5.15 -123.25 9.1 -123.8 11.9 -126.45 10.95 -127.4 9.3 -127.7 12.05 -128.05 13.25 -128.95 L11.6 -130.3 Q14.85 -130.75 20.6 -133.7" fill="#363c02" fill-rule="evenodd" stroke="none"/>
      <path d="M20.85 -139.65 L2.2 -136.75 9.5 -138.8 1.35 -138.35 10.05 -146.35 14.05 -145.6 13.65 -145.1 15.4 -145.05 18.65 -144.4 Q20.5 -143.5 24.2 -140.05 L20.85 -139.65 M9.95 -143.0 L13.65 -145.1 9.95 -143.0" fill="#5a7200" fill-rule="evenodd" stroke="none"/>
      <path d="M2.2 -136.75 Q-3.75 -134.6 -7.6 -131.35 L-9.65 -129.35 -16.35 -126.0 -13.85 -128.75 -11.9 -130.3 -9.85 -131.75 -5.9 -134.55 Q-1.55 -137.5 1.35 -138.35 L9.5 -138.8 2.2 -136.75 M-9.65 -129.35 L-9.85 -131.75 -9.65 -129.35" fill="#414002" fill-rule="evenodd" stroke="none"/>
      <path d="M-7.6 -131.35 Q-3.3 -133.0 9.05 -133.5 L20.6 -133.7 Q14.85 -130.75 11.6 -130.3 L13.25 -128.95 Q12.05 -128.05 9.3 -127.7 10.95 -127.4 11.9 -126.45 9.1 -123.8 5.15 -123.25 3.0 -122.95 -0.2 -123.35 -6.85 -125.4 -13.4 -125.6 L-9.65 -129.35 -7.6 -131.35 M10.75 -129.65 L4.75 -129.8 10.75 -129.65" fill="#515b00" fill-rule="evenodd" stroke="none"/>
      <path d="M1.0 -123.0 L5.35 -121.85 6.35 -121.65 4.05 -121.25 Q2.95 -122.15 1.0 -123.0" fill="#495102" fill-rule="evenodd" stroke="none"/>
      <path d="M-0.2 -123.35 L1.0 -123.0 Q2.95 -122.15 4.05 -121.25 L-14.65 -121.25 -14.65 -123.95 -13.4 -125.6 Q-6.85 -125.4 -0.2 -123.35 M-16.35 -126.0 L-17.25 -127.9 -13.85 -128.75 -16.35 -126.0 M-3.25 -123.05 L-5.75 -123.5 -3.25 -123.05" fill="#464f00" fill-rule="evenodd" stroke="none"/>
      <path d="M-17.25 -127.9 Q-18.15 -129.85 -16.4 -135.5 L-14.4 -140.75 Q-12.5 -142.3 -10.0 -142.75 L-7.6 -142.9 Q-3.5 -144.5 -3.75 -143.1 -2.6 -144.8 -0.3 -145.75 L1.9 -146.45 -0.9 -144.0 -2.65 -142.25 Q-5.25 -139.3 -7.5 -135.25 -9.55 -133.7 -9.85 -131.75 L-11.9 -130.3 -13.85 -128.75 -17.25 -127.9 M-4.8 -140.5 L-4.0 -142.05 -4.8 -140.5 M-10.9 -140.6 Q-9.55 -142.2 -7.6 -142.9 -9.55 -142.2 -10.9 -140.6" fill="#485100" fill-rule="evenodd" stroke="none"/>
      <path d="M-14.65 -123.95 L-16.35 -126.0 -9.65 -129.35 -13.4 -125.6 -14.65 -123.95" fill="#2a2900" fill-rule="evenodd" stroke="none"/>
      <path d="M22.35 -133.35 L22.8 -134.9 Q23.2 -136.65 23.05 -137.5 12.05 -136.3 8.55 -135.35 14.8 -138.55 20.85 -139.65 M2.2 -136.75 Q-3.75 -134.6 -7.6 -131.35 M-0.2 -123.35 L1.0 -123.0 5.35 -121.85 Q5.65 -121.9 7.55 -122.8 L10.75 -124.45 13.65 -127.35 12.55 -127.7 12.45 -127.7 14.4 -129.15 13.0 -129.95 20.1 -131.35 Q18.8 -131.65 20.4 -132.5 L22.35 -133.35 M10.05 -146.35 L14.05 -145.6 13.65 -145.1 15.4 -145.05 18.65 -144.4 Q20.5 -143.5 24.2 -140.05 L20.85 -139.65 M9.5 -138.8 L2.2 -136.75 M1.9 -146.45 L6.3 -146.6 10.05 -146.35 M13.65 -145.1 L9.95 -143.0 M5.35 -121.85 L6.35 -121.65 4.05 -121.25 M-17.25 -127.9 Q-18.15 -129.85 -16.4 -135.5 L-14.4 -140.75 Q-12.5 -142.3 -10.0 -142.75 L-7.6 -142.9 Q-3.5 -144.5 -3.75 -143.1 -2.6 -144.8 -0.3 -145.75 L1.9 -146.45 M-7.5 -135.25 Q-9.55 -133.7 -9.85 -131.75 L-9.65 -129.35 -7.6 -131.35 M-13.4 -125.6 L-14.65 -123.95 M-9.65 -129.35 L-13.4 -125.6 M-7.6 -142.9 Q-9.55 -142.2 -10.9 -140.6" fill="none" stroke="#000000" stroke-linecap="round" stroke-linejoin="round" stroke-opacity="0.34901962" stroke-width="0.4"/>
      <path d="M4.75 -129.8 L10.75 -129.65 M1.9 -146.45 L-0.9 -144.0 -2.65 -142.25 M-4.0 -142.05 L-4.8 -140.5 M-5.75 -123.5 L-3.25 -123.05" fill="none" stroke="#000000" stroke-linecap="round" stroke-linejoin="round" stroke-opacity="0.18039216" stroke-width="0.4"/>
      <path d="M-59.35 -149.95 L-56.25 -150.65 -56.7 -151.0 Q-50.9 -152.25 -40.85 -149.2 L-39.65 -146.15 Q-38.3 -142.0 -37.8 -138.05 -39.45 -139.1 -42.65 -140.75 L-46.5 -142.35 Q-48.25 -145.75 -51.75 -147.7 -53.8 -148.85 -59.35 -149.95 M-44.3 -142.95 L-43.2 -141.7 -42.65 -140.75 -43.2 -141.7 -44.3 -142.95 M-63.85 -129.55 Q-64.2 -129.85 -64.0 -130.85 -63.8 -131.9 -63.2 -131.95 L-67.05 -132.4 -68.3 -132.95 Q-69.55 -133.55 -69.45 -133.95 L-69.1 -134.65 -68.7 -135.45 -72.0 -136.4 Q-74.45 -137.25 -75.05 -137.75 -76.0 -138.6 -74.25 -140.9 -66.85 -143.2 -60.1 -143.05 L-48.25 -142.35 -44.1 -140.3 Q-49.6 -138.15 -54.15 -135.7 -59.6 -132.8 -63.85 -129.55 M-57.65 -141.35 L-52.7 -141.2 -49.05 -140.45 -52.7 -141.2 -57.65 -141.35 M-62.55 -140.05 L-60.35 -140.2 -59.1 -140.2 -60.35 -140.2 -62.55 -140.05 M-64.0 -136.5 Q-67.95 -136.15 -68.7 -135.45 -67.95 -136.15 -64.0 -136.5" fill="#585d05" fill-rule="evenodd" stroke="none"/>
      <path d="M-46.5 -142.35 L-42.65 -140.75 -42.5 -139.35 -42.65 -140.75 Q-39.45 -139.1 -37.8 -138.05 L-35.6 -136.6 -35.35 -135.5 -35.1 -133.95 -35.35 -135.5 -35.6 -136.6 -35.05 -136.2 -30.35 -132.05 Q-25.3 -126.95 -23.25 -122.0 L-25.95 -120.3 Q-28.8 -128.2 -35.1 -133.95 L-39.15 -137.2 -42.5 -139.35 -44.1 -140.3 -48.25 -142.35 -51.2 -143.5 -46.5 -142.35" fill="#3c3807" fill-rule="evenodd" stroke="none"/>
      <path d="M-37.8 -138.05 Q-38.3 -142.0 -39.65 -146.15 L-40.85 -149.2 Q-31.7 -144.0 -31.05 -143.1 L-30.55 -144.25 Q-25.35 -143.3 -22.4 -139.85 -26.6 -139.7 -30.0 -138.65 -31.85 -138.05 -35.05 -136.2 L-35.6 -136.6 -37.8 -138.05 M-45.9 -122.7 L-49.35 -122.8 Q-52.1 -122.75 -53.3 -123.6 -53.95 -124.0 -54.0 -124.4 L-53.95 -124.5 Q-54.85 -124.6 -56.45 -125.35 -58.25 -126.2 -58.1 -126.7 -57.95 -127.25 -55.95 -128.05 L-62.05 -128.9 Q-63.3 -129.05 -63.85 -129.55 -59.6 -132.8 -54.15 -135.7 -49.6 -138.15 -44.1 -140.3 L-42.5 -139.35 -39.15 -137.2 Q-43.45 -134.1 -45.05 -130.25 -46.55 -126.75 -45.9 -122.7 M-52.5 -128.1 L-55.95 -128.05 -52.5 -128.1 M-36.15 -138.1 L-35.6 -136.6 -36.15 -138.1" fill="#5e6905" fill-rule="evenodd" stroke="none"/>
      <path d="M-59.35 -149.95 Q-53.8 -148.85 -51.75 -147.7 -48.25 -145.75 -46.5 -142.35 L-51.2 -143.5 -52.45 -143.95 -51.2 -143.5 -48.25 -142.35 -60.1 -143.05 Q-66.85 -143.2 -74.25 -140.9 L-73.15 -142.2 Q-72.6 -142.8 -70.7 -143.0 -69.0 -145.7 -63.75 -146.2 L-55.65 -146.7 -64.7 -147.35 Q-63.1 -148.55 -59.35 -149.95 M-57.25 -145.15 L-53.7 -144.35 -57.25 -145.15" fill="#667204" fill-rule="evenodd" stroke="none"/>
      <path d="M-22.4 -139.85 Q-21.0 -138.15 -20.1 -135.9 -17.4 -128.85 -20.6 -123.65 L-23.25 -122.0 Q-25.3 -126.95 -30.35 -132.05 L-35.05 -136.2 Q-31.85 -138.05 -30.0 -138.65 -26.6 -139.7 -22.4 -139.85 M-25.95 -120.3 L-25.65 -119.45 Q-37.1 -118.2 -41.45 -119.15 -45.8 -120.2 -43.7 -121.25 L-41.55 -121.55 -43.2 -122.05 -45.9 -122.7 Q-46.55 -126.75 -45.05 -130.25 -43.45 -134.1 -39.15 -137.2 L-35.1 -133.95 Q-28.8 -128.2 -25.95 -120.3" fill="#4d5605" fill-rule="evenodd" stroke="none"/>
      <path d="M-40.85 -149.2 Q-50.9 -152.25 -56.7 -151.0 L-56.25 -150.65 -59.35 -149.95 M-40.85 -149.2 Q-31.7 -144.0 -31.05 -143.1 L-30.55 -144.25 Q-25.35 -143.3 -22.4 -139.85 -21.0 -138.15 -20.1 -135.9 -17.4 -128.85 -20.6 -123.65 L-23.25 -122.0 -25.95 -120.3 -25.65 -119.45 Q-37.1 -118.2 -41.45 -119.15 -45.8 -120.2 -43.7 -121.25 L-41.55 -121.55 -43.2 -122.05 -45.9 -122.7 -49.35 -122.8 Q-52.1 -122.75 -53.3 -123.6 -53.95 -124.0 -54.0 -124.4 L-53.95 -124.5 Q-54.85 -124.6 -56.45 -125.35 -58.25 -126.2 -58.1 -126.7 -57.95 -127.25 -55.95 -128.05 L-62.05 -128.9 Q-63.3 -129.05 -63.85 -129.55 -64.2 -129.85 -64.0 -130.85 -63.8 -131.9 -63.2 -131.95 L-67.05 -132.4 -68.3 -132.95 Q-69.55 -133.55 -69.45 -133.95 L-69.1 -134.65 -68.7 -135.45 -72.0 -136.4 Q-74.45 -137.25 -75.05 -137.75 -76.0 -138.6 -74.25 -140.9 L-73.15 -142.2 Q-72.6 -142.8 -70.7 -143.0 -69.0 -145.7 -63.75 -146.2 L-55.65 -146.7 -64.7 -147.35 Q-63.1 -148.55 -59.35 -149.95 M-44.1 -140.3 L-42.5 -139.35 -39.15 -137.2 -35.1 -133.95 M-48.25 -142.35 L-44.1 -140.3 M-53.7 -144.35 L-57.25 -145.15 M-51.2 -143.5 L-52.45 -143.95 M-55.95 -128.05 L-52.5 -128.1 M-48.25 -142.35 L-51.2 -143.5 M-25.95 -120.3 Q-28.8 -128.2 -35.1 -133.95" fill="none" stroke="#000000" stroke-linecap="round" stroke-linejoin="round" stroke-opacity="0.3882353" stroke-width="0.4"/>
      <path d="M-42.65 -140.75 L-43.2 -141.7 -44.3 -142.95 M-42.5 -139.35 L-42.65 -140.75 M-35.1 -133.95 L-35.35 -135.5 -35.6 -136.6 -36.15 -138.1 M-59.1 -140.2 L-60.35 -140.2 -62.55 -140.05 M-49.05 -140.45 L-52.7 -141.2 -57.65 -141.35 M-68.7 -135.45 Q-67.95 -136.15 -64.0 -136.5" fill="none" stroke="#000000" stroke-linecap="round" stroke-linejoin="round" stroke-opacity="0.14117648" stroke-width="0.4"/>
      <path d="M-74.6 -112.7 Q-72.15 -115.85 -65.95 -119.35 -53.5 -126.35 -34.55 -128.0 -30.75 -128.35 -28.0 -125.7 L-43.6 -124.7 -50.3 -123.35 Q-52.95 -122.6 -59.8 -119.25 -67.05 -115.75 -69.1 -114.0 L-74.6 -112.7" fill="#414803" fill-rule="evenodd" stroke="none"/>
      <path d="M-74.6 -112.7 L-69.1 -114.0 -72.2 -111.15 Q-74.75 -109.75 -78.15 -105.95 L-74.6 -112.7" fill="#525b0a" fill-rule="evenodd" stroke="none"/>
      <path d="M-69.1 -114.0 Q-67.05 -115.75 -59.8 -119.25 -52.95 -122.6 -50.3 -123.35 -54.8 -117.2 -57.55 -110.7 -60.0 -105.0 -61.1 -99.0 L-62.5 -96.2 Q-67.35 -95.0 -67.45 -97.35 L-63.3 -107.85 Q-70.25 -100.7 -71.0 -94.55 L-72.9 -92.25 -72.95 -92.25 Q-74.85 -101.3 -73.5 -106.25 L-72.2 -111.15 -69.1 -114.0 M-79.25 -95.75 Q-79.95 -100.5 -78.15 -105.95 -74.75 -109.75 -72.2 -111.15 L-73.45 -109.5 Q-75.25 -106.6 -77.45 -100.9 L-79.25 -95.75" fill="#5f7413" fill-rule="evenodd" stroke="none"/>
      <path d="M-72.95 -92.25 Q-73.75 -92.35 -74.45 -94.25 L-74.45 -97.15 -76.2 -92.4 Q-78.4 -92.5 -78.9 -93.85 L-79.25 -95.75 -77.45 -100.9 Q-75.25 -106.6 -73.45 -109.5 L-72.2 -111.15 -73.5 -106.25 Q-74.85 -101.3 -72.95 -92.25" fill="#68830a" fill-rule="evenodd" stroke="none"/>
      <path d="M-50.3 -123.35 L-43.6 -124.7 Q-46.85 -119.15 -48.15 -113.4 -49.4 -108.0 -48.85 -102.3 -51.75 -97.35 -54.4 -96.5 -57.05 -95.65 -57.2 -100.9 -58.05 -98.15 -60.25 -97.3 L-61.1 -99.0 Q-60.0 -105.0 -57.55 -110.7 -54.8 -117.2 -50.3 -123.35" fill="#5b6b0c" fill-rule="evenodd" stroke="none"/>
      <path d="M-43.6 -124.7 L-28.0 -125.7 -23.6 -125.9 Q-22.8 -124.6 -23.0 -122.2 L-23.35 -120.05 Q-36.1 -109.7 -41.9 -106.9 L-42.6 -110.2 -48.85 -102.3 Q-49.4 -108.0 -48.15 -113.4 -46.85 -119.15 -43.6 -124.7 M-63.3 -107.85 Q-69.35 -100.6 -70.15 -94.1 -70.7 -93.55 -72.45 -92.4 -72.7 -92.25 -72.9 -92.25 L-71.0 -94.55 Q-70.25 -100.7 -63.3 -107.85" fill="#415106" fill-rule="evenodd" stroke="none"/>
      <path d="M-23.35 -120.05 L-34.15 -107.7 Q-34.5 -108.4 -38.4 -106.1 L-42.25 -103.6 -43.75 -107.05 -48.65 -100.75 -48.85 -102.3 -42.6 -110.2 -41.9 -106.9 Q-36.1 -109.7 -23.35 -120.05" fill="#2e3a01" fill-rule="evenodd" stroke="none"/>
      <path d="M-48.65 -100.75 L-50.7 -98.2 Q-51.8 -96.8 -53.9 -95.7 -55.6 -94.85 -56.1 -94.85 -56.8 -94.95 -57.7 -97.85 L-60.0 -95.8 Q-61.1 -94.75 -61.2 -94.8 L-61.55 -96.15 -61.1 -99.0 -60.25 -97.3 Q-58.05 -98.15 -57.2 -100.9 -57.05 -95.65 -54.4 -96.5 -51.75 -97.35 -48.85 -102.3 L-48.65 -100.75" fill="#485605" fill-rule="evenodd" stroke="none"/>
      <path d="M-61.55 -96.15 Q-62.1 -94.85 -64.5 -94.45 -66.85 -94.15 -67.95 -96.0 L-67.45 -97.35 Q-67.35 -95.0 -62.5 -96.2 L-61.1 -99.0 -61.55 -96.15" fill="#4d5f0a" fill-rule="evenodd" stroke="none"/>
      <path d="M-74.45 -94.25 Q-75.05 -90.85 -75.6 -90.7 -78.0 -89.9 -78.55 -92.15 L-78.9 -93.85 Q-78.4 -92.5 -76.2 -92.4 L-74.45 -97.15 -74.45 -94.25" fill="#465803" fill-rule="evenodd" stroke="none"/>
      <path d="M-28.0 -125.7 Q-30.75 -128.35 -34.55 -128.0 -53.5 -126.35 -65.95 -119.35 -72.15 -115.85 -74.6 -112.7 M-69.1 -114.0 Q-67.05 -115.75 -59.8 -119.25 -52.95 -122.6 -50.3 -123.35 L-43.6 -124.7 -28.0 -125.7 -23.6 -125.9 Q-22.8 -124.6 -23.0 -122.2 L-23.35 -120.05 -34.15 -107.7 Q-34.5 -108.4 -38.4 -106.1 L-42.25 -103.6 -43.75 -107.05 -48.65 -100.75 -50.7 -98.2 Q-51.8 -96.8 -53.9 -95.7 -55.6 -94.85 -56.1 -94.85 -56.8 -94.95 -57.7 -97.85 L-60.0 -95.8 Q-61.1 -94.75 -61.2 -94.8 L-61.55 -96.15 Q-62.1 -94.85 -64.5 -94.45 -66.85 -94.15 -67.95 -96.0 L-67.45 -97.35 -63.3 -107.85 Q-69.35 -100.6 -70.15 -94.1 -70.7 -93.55 -72.45 -92.4 -72.7 -92.25 -72.9 -92.25 L-72.95 -92.25 Q-73.75 -92.35 -74.45 -94.25 -75.05 -90.85 -75.6 -90.7 -78.0 -89.9 -78.55 -92.15 L-78.9 -93.85 -79.25 -95.75 Q-79.95 -100.5 -78.15 -105.95 L-74.6 -112.7 M-72.2 -111.15 L-69.1 -114.0 M-73.45 -109.5 L-72.2 -111.15" fill="none" stroke="#000000" stroke-linecap="round" stroke-linejoin="round" stroke-opacity="0.3882353" stroke-width="0.4"/>
      <path d="M-17.35 -104.7 L-15.95 -103.05 -15.0 -101.65 Q-12.7 -97.85 -13.3 -92.05 -14.05 -84.15 -22.35 -83.85 -27.25 -83.65 -30.25 -86.3 L-17.35 -104.7" fill="#271505" fill-rule="evenodd" stroke="none"/>
      <path d="M-15.1 -99.5 L-13.2 -100.2 M-15.85 -101.15 L-14.15 -102.15 M-16.85 -102.55 L-15.25 -103.75 M-18.0 -103.95 L-16.7 -105.45 M-15.3 -88.5 L-13.5 -87.6 M-14.6 -90.15 L-12.7 -89.65 M-14.3 -91.95 L-12.3 -91.75 M-14.2 -93.85 L-12.2 -93.85 M-14.2 -95.8 L-12.2 -95.9 M-14.5 -97.7 L-12.6 -98.1 M-19.25 -85.3 L-18.65 -83.4 M-17.6 -86.05 L-16.6 -84.35 M-16.25 -87.15 L-14.75 -85.75 M-28.2 -86.05 L-29.2 -84.35 M-26.5 -85.35 L-27.1 -83.45 M-24.75 -84.95 L-24.95 -82.95 M-22.9 -84.85 L-22.9 -82.85 M-21.05 -84.95 L-20.75 -82.95" fill="none" stroke="#000000" stroke-linecap="round" stroke-linejoin="round" stroke-opacity="0.3019608" stroke-width="0.35000000000000003"/>
      <path d="M5.1 -62.05 Q-0.25 -61.35 -5.6 -63.25 -6.35 -69.0 -8.45 -75.4 L-7.3 -76.65 -8.2 -78.35 -10.35 -77.6 Q-10.35 -82.4 -12.1 -88.1 L-12.1 -96.35 -3.2 -94.45 Q-1.4 -89.5 1.4 -84.5 L0.35 -83.65 Q0.35 -81.55 1.4 -79.5 L3.3 -78.85 Q3.55 -70.8 5.1 -62.05" fill="url(#decoration6-gradient0)" fill-rule="evenodd" stroke="none"/>
      <path d="M-8.95 -114.45 Q-5.7 -114.55 -3.7 -113.2 -1.75 -111.9 -0.25 -109.75 0.2 -109.35 0.3 -108.8 2.6 -105.0 2.0 -99.2 1.25 -91.3 -7.05 -91.0 -12.45 -90.8 -15.55 -94.05 L-16.1 -94.7 Q-13.5 -94.7 -11.4 -95.55 L-10.05 -95.1 -10.05 -95.15 -11.1 -95.65 Q-6.35 -97.85 -4.7 -104.9 -5.4 -109.4 -8.95 -114.45" fill="#2e1a08" fill-rule="evenodd" stroke="none"/>
      <path d="M-16.1 -94.7 Q-16.95 -95.85 -17.8 -97.7 -19.95 -102.4 -18.8 -106.9 -17.9 -110.5 -15.65 -112.3 -12.75 -114.35 -9.2 -114.45 L-8.95 -114.45 Q-5.4 -109.4 -4.7 -104.9 -6.35 -97.85 -11.1 -95.65 -12.1 -96.35 -13.05 -97.7 -15.25 -100.8 -13.1 -104.45 -11.75 -104.75 -11.35 -104.95 -9.75 -105.7 -8.7 -107.7 -6.7 -111.4 -9.05 -113.0 -11.2 -114.45 -13.8 -113.05 -15.35 -112.2 -16.55 -109.85 -18.25 -106.6 -17.45 -102.45 -17.05 -100.2 -15.05 -97.95 -13.65 -96.4 -11.4 -95.55 -13.5 -94.7 -16.1 -94.7" fill="url(#decoration6-gradient1)" fill-rule="evenodd" stroke="none"/>
      <path d="M-11.1 -95.65 L-10.05 -95.15 -10.05 -95.1 -11.4 -95.55 Q-13.65 -96.4 -15.05 -97.95 -17.05 -100.2 -17.45 -102.45 -18.25 -106.6 -16.55 -109.85 -15.35 -112.2 -13.8 -113.05 -11.2 -114.45 -9.05 -113.0 -6.7 -111.4 -8.7 -107.7 -9.75 -105.7 -11.35 -104.95 -11.75 -104.75 -13.1 -104.45 -15.25 -100.8 -13.05 -97.7 -12.1 -96.35 -11.1 -95.65" fill="#6b4522" fill-rule="evenodd" stroke="none"/>
      <path d="M2.5 -106.3 L0.6 -105.7 M2.95 -104.2 L0.95 -103.9 M3.15 -102.05 L1.15 -102.05 M3.1 -100.05 L1.1 -100.15 M2.85 -97.85 L0.85 -98.25 M2.2 -95.7 L0.3 -96.4 M-9.65 -115.45 L-9.55 -113.45 M-7.45 -115.4 L-7.55 -113.4 M-5.2 -115.0 L-5.8 -113.1 M-3.15 -114.05 L-4.25 -112.35 M-15.7 -113.5 L-14.6 -111.8 M-13.85 -114.45 L-13.15 -112.55 M-11.75 -115.1 L-11.35 -113.2 M-19.6 -99.75 L-17.7 -100.25 M-20.05 -101.9 L-18.05 -102.1 M-20.2 -104.0 L-18.2 -104.0 M-20.0 -106.2 L-18.0 -105.8 M-19.4 -108.4 L-17.5 -107.7 M-18.5 -110.4 L-16.8 -109.4 M-17.25 -112.15 L-15.75 -110.85 M-1.45 -112.65 L-2.85 -111.25 M-0.35 -92.05 L-1.65 -93.65 M-2.3 -90.95 L-3.1 -92.75 M-4.35 -90.3 L-4.75 -92.2 M-6.5 -90.0 L-6.6 -92.0 M-8.7 -90.05 L-8.6 -92.05 M-10.85 -90.3 L-10.45 -92.3 M-13.1 -91.1 L-12.3 -92.9 M-15.0 -92.25 L-13.8 -93.85 M-16.6 -93.75 L-15.1 -95.05 M-17.85 -95.6 L-16.15 -96.6 M-18.9 -97.7 L-17.1 -98.5 M1.65 -108.4 L-0.05 -107.4 M1.2 -93.8 L-0.4 -94.9 M0.0 -111.1 L-1.6 -109.9 M1.3 -109.0 L-0.7 -108.6" fill="none" stroke="#000000" stroke-linecap="round" stroke-linejoin="round" stroke-opacity="0.3019608" stroke-width="0.35000000000000003"/>
      <path d="M-19.65 -127.6 Q-19.4 -137.65 -13.95 -147.65 -16.9 -135.85 -16.0 -124.45 L-18.7 -124.0 -19.65 -127.6" fill="url(#decoration6-gradient2)" fill-rule="evenodd" stroke="none"/>
      <path d="M-19.65 -127.6 L-18.7 -124.0 -21.35 -122.25 -24.05 -120.55 Q-26.15 -130.95 -30.85 -142.0 L-29.25 -142.05 -31.85 -144.3 -33.2 -147.15 Q-34.95 -151.65 -33.0 -151.6 -31.0 -151.55 -27.65 -146.5 L-24.8 -141.8 -22.95 -136.6 -22.95 -138.0 Q-20.7 -132.95 -19.65 -127.6 M-26.95 -138.9 Q-22.35 -130.5 -21.35 -122.25 -22.35 -130.5 -26.95 -138.9" fill="url(#decoration6-gradient3)" fill-rule="evenodd" stroke="none"/>
      <path d="M-18.7 -124.0 L-16.0 -124.45 Q-16.9 -135.85 -13.95 -147.65 -19.4 -137.65 -19.65 -127.6 L-18.7 -124.0 -21.35 -122.25 -24.05 -120.55 Q-26.15 -130.95 -30.85 -142.0 L-29.25 -142.05 -31.85 -144.3 -33.2 -147.15 Q-34.95 -151.65 -33.0 -151.6 -31.0 -151.55 -27.65 -146.5 L-24.8 -141.8 -22.95 -136.6 -22.95 -138.0 Q-20.7 -132.95 -19.65 -127.6" fill="none" stroke="#000000" stroke-linecap="round" stroke-linejoin="round" stroke-opacity="0.3882353" stroke-width="0.4"/>
      <path d="M-21.35 -122.25 Q-22.35 -130.5 -26.95 -138.9" fill="none" stroke="#000000" stroke-linecap="round" stroke-linejoin="round" stroke-opacity="0.25882354" stroke-width="0.4"/>
      <path d="M18.7 -109.35 L19.85 -104.35 Q21.05 -99.4 19.4 -90.4 L19.35 -90.4 17.6 -92.8 Q16.9 -98.95 10.6 -106.3 L14.35 -95.7 Q15.25 -92.25 9.85 -94.75 L8.6 -97.55 Q7.55 -103.6 5.35 -109.4 2.85 -115.9 -1.2 -122.25 3.15 -120.85 6.95 -118.8 11.9 -116.15 15.85 -112.3 L18.7 -109.35 Q22.15 -107.1 24.1 -103.95 L24.35 -103.0 Q25.65 -97.7 25.3 -95.05 L25.1 -93.7 Q23.75 -100.65 19.8 -107.7 L18.7 -109.35" fill="#5f7413" fill-rule="evenodd" stroke="none"/>
      <path d="M19.4 -90.4 Q21.05 -99.4 19.85 -104.35 L18.7 -109.35 19.8 -107.7 Q23.75 -100.65 25.1 -93.7 L24.75 -91.8 Q24.3 -90.5 22.3 -90.45 L20.7 -95.35 20.7 -92.35 Q20.1 -90.5 19.4 -90.4" fill="#68830a" fill-rule="evenodd" stroke="none"/>
      <path d="M18.7 -109.35 L15.85 -112.3 20.85 -110.8 22.55 -108.7 Q23.1 -108.0 24.1 -103.95 22.15 -107.1 18.7 -109.35" fill="#525b0a" fill-rule="evenodd" stroke="none"/>
      <path d="M15.85 -112.3 Q11.9 -116.15 6.95 -118.8 3.15 -120.85 -1.2 -122.25 L-7.35 -123.85 Q-13.85 -125.3 -21.45 -125.35 -19.1 -127.7 -15.55 -127.45 0.5 -126.25 12.35 -118.3 L13.25 -117.6 Q17.75 -114.45 20.65 -111.1 L20.85 -110.8 15.85 -112.3" fill="#414803" fill-rule="evenodd" stroke="none"/>
      <path d="M20.7 -92.35 L20.7 -95.35 22.3 -90.45 Q24.3 -90.5 24.75 -91.8 L24.45 -90.2 Q23.95 -87.9 21.75 -88.75 21.25 -89.0 20.7 -92.35" fill="#465803" fill-rule="evenodd" stroke="none"/>
      <path d="M10.6 -106.3 Q16.9 -98.95 17.6 -92.8 L19.35 -90.4 Q19.15 -90.4 18.9 -90.55 L16.8 -92.35 Q16.05 -98.85 10.6 -106.3 M-21.45 -125.35 Q-13.85 -125.3 -7.35 -123.85 -4.35 -118.2 -3.2 -112.4 -2.05 -106.9 -2.55 -101.3 L-8.2 -109.4 -8.85 -106.15 Q-16.75 -110.5 -25.7 -119.85 -27.2 -122.7 -25.5 -125.75 L-21.45 -125.35" fill="#415106" fill-rule="evenodd" stroke="none"/>
      <path d="M8.6 -97.55 L9.85 -94.75 Q15.25 -92.25 14.35 -95.7 L14.8 -94.3 Q13.8 -92.5 11.7 -92.9 9.5 -93.3 9.0 -94.7 L8.6 -97.55" fill="#4d5f0a" fill-rule="evenodd" stroke="none"/>
      <path d="M8.6 -97.55 L9.0 -94.7 8.7 -93.25 7.95 -93.95 5.5 -96.55 Q4.65 -93.65 4.05 -93.6 L2.5 -93.65 Q1.5 -93.7 -0.85 -97.05 L-2.7 -99.7 -2.55 -101.3 Q0.1 -96.2 2.5 -95.25 4.9 -94.35 5.05 -99.6 5.8 -96.75 7.8 -95.85 L8.6 -97.55" fill="#485605" fill-rule="evenodd" stroke="none"/>
      <path d="M-1.2 -122.25 Q2.85 -115.9 5.35 -109.4 7.55 -103.6 8.6 -97.55 L7.8 -95.85 Q5.8 -96.75 5.05 -99.6 4.9 -94.35 2.5 -95.25 0.1 -96.2 -2.55 -101.3 -2.05 -106.9 -3.2 -112.4 -4.35 -118.2 -7.35 -123.85 L-1.2 -122.25" fill="#5b6b0c" fill-rule="evenodd" stroke="none"/>
      <path d="M-2.7 -99.7 L-7.15 -106.15 -8.55 -102.8 Q-9.1 -103.85 -10.15 -105.1 -12.3 -107.55 -14.85 -108.05 L-15.45 -108.1 -15.9 -107.15 -20.65 -113.05 -25.3 -119.2 -25.7 -119.85 Q-16.75 -110.5 -8.85 -106.15 L-8.2 -109.4 -2.55 -101.3 -2.7 -99.7" fill="#2e3a01" fill-rule="evenodd" stroke="none"/>
      <path d="M18.7 -109.35 L15.85 -112.3 Q11.9 -116.15 6.95 -118.8 3.15 -120.85 -1.2 -122.25 M14.35 -95.7 L10.6 -106.3 Q16.05 -98.85 16.8 -92.35 L18.9 -90.55 Q19.15 -90.4 19.35 -90.4 L19.4 -90.4 Q20.1 -90.5 20.7 -92.35 21.25 -89.0 21.75 -88.75 23.95 -87.9 24.45 -90.2 L24.75 -91.8 25.1 -93.7 25.3 -95.05 Q25.65 -97.7 24.35 -103.0 L24.1 -103.95 Q23.1 -108.0 22.55 -108.7 L20.85 -110.8 20.65 -111.1 Q17.75 -114.45 13.25 -117.6 L12.35 -118.3 Q0.5 -126.25 -15.55 -127.45 -19.1 -127.7 -21.45 -125.35 -13.85 -125.3 -7.35 -123.85 L-1.2 -122.25 M19.8 -107.7 L18.7 -109.35 M9.0 -94.7 Q9.5 -93.3 11.7 -92.9 13.8 -92.5 14.8 -94.3 L14.35 -95.7 M9.0 -94.7 L8.7 -93.25 7.95 -93.95 5.5 -96.55 Q4.65 -93.65 4.05 -93.6 L2.5 -93.65 Q1.5 -93.7 -0.85 -97.05 L-2.7 -99.7 -7.15 -106.15 -8.55 -102.8 Q-9.1 -103.85 -10.15 -105.1 -12.3 -107.55 -14.85 -108.05 L-15.45 -108.1 -15.9 -107.15 -20.65 -113.05 -25.3 -119.2 -25.7 -119.85 Q-27.2 -122.7 -25.5 -125.75 L-21.45 -125.35" fill="none" stroke="#000000" stroke-linecap="round" stroke-linejoin="round" stroke-opacity="0.3882353" stroke-width="0.4"/>
    </g>
    <linearGradient gradientTransform="matrix(0.0025, 0.0167, -0.0191, 0.0034, -1.2, -77.2)" gradientUnits="userSpaceOnUse" id="decoration6-gradient0" spreadMethod="pad" x1="-819.2" x2="819.2">
      <stop offset="0.0" stop-color="#000000" stop-opacity="0.4"/>
      <stop offset="1.0" stop-color="#000000" stop-opacity="0.0"/>
    </linearGradient>
    <radialGradient cx="0" cy="0" gradientTransform="matrix(0.022, 0.0043, -0.0023, 0.0243, -13.1, -109.75)" gradientUnits="userSpaceOnUse" id="decoration6-gradient1" r="819.2" spreadMethod="pad">
      <stop offset="0.6039215686274509" stop-color="#4b321b"/>
      <stop offset="0.9882352941176471" stop-color="#322112"/>
    </radialGradient>
    <linearGradient gradientTransform="matrix(0.0012, 0.012, -0.0133, 0.0015, -15.7, -140.2)" gradientUnits="userSpaceOnUse" id="decoration6-gradient2" spreadMethod="pad" x1="-819.2" x2="819.2">
      <stop offset="0.023529411764705882" stop-color="#919f21"/>
      <stop offset="0.984313725490196" stop-color="#4b5402"/>
    </linearGradient>
    <linearGradient gradientTransform="matrix(0.0085, 0.0126, -0.0141, 0.0112, -26.4, -136.1)" gradientUnits="userSpaceOnUse" id="decoration6-gradient3" spreadMethod="pad" x1="-819.2" x2="819.2">
      <stop offset="0.023529411764705882" stop-color="#919f21"/>
      <stop offset="0.984313725490196" stop-color="#4b5402"/>
    </linearGradient>
    <g id="decoration6-shape2" transform="matrix(1.0, 0.0, 0.0, 1.0, 57.1, 126.65)">
      <path d="M-46.8 -116.65 L-47.6 -116.75 -48.9 -116.8 Q-47.85 -119.95 -43.05 -121.65 L-37.9 -123.0 -38.4 -123.55 Q-34.65 -126.35 -28.8 -126.45 -24.1 -126.55 -22.9 -125.65 -29.35 -119.15 -33.4 -113.8 L-36.45 -109.65 -37.55 -107.85 Q-39.0 -111.1 -43.05 -114.2 -45.05 -115.75 -46.8 -116.65 L-45.6 -117.6 -46.8 -116.65 M-19.65 -122.9 L-18.3 -123.7 Q-17.1 -124.4 -16.55 -124.5 L-6.05 -124.1 Q-4.4 -119.1 -4.45 -117.3 L-4.45 -115.65 Q-4.6 -116.2 -5.45 -116.9 -6.25 -117.6 -6.6 -117.55 -6.45 -117.05 -7.15 -114.35 L-8.15 -111.15 -9.95 -112.25 -11.35 -113.35 -13.05 -116.7 -12.3 -112.65 -14.8 -113.95 Q-12.45 -109.5 -14.15 -106.25 -15.75 -107.15 -16.35 -109.15 L-16.2 -98.95 Q-19.35 -110.2 -25.0 -112.35 -28.2 -112.4 -31.4 -111.2 L-30.65 -112.05 Q-27.1 -116.6 -22.45 -120.85 L-19.65 -122.9 M-37.9 -123.0 L-37.35 -123.15 Q-33.75 -124.1 -31.85 -124.8 -33.75 -124.1 -37.35 -123.15 L-37.9 -123.0 M-40.6 -114.6 Q-37.05 -115.55 -33.4 -113.8 -37.05 -115.55 -40.6 -114.6" fill="#5e6905" fill-rule="evenodd" stroke="none"/>
      <path d="M-49.2 -114.6 L-46.8 -116.65 Q-45.05 -115.75 -43.05 -114.2 -39.0 -111.1 -37.55 -107.85 L-39.15 -104.85 Q-44.6 -104.2 -49.4 -100.95 L-53.35 -97.65 Q-55.05 -95.35 -55.3 -92.6 L-55.5 -93.9 -55.7 -97.0 Q-55.7 -99.75 -54.85 -101.5 L-51.05 -107.2 -54.05 -104.85 Q-53.9 -105.75 -53.35 -106.75 -52.95 -107.55 -52.95 -108.2 L-53.1 -109.85 Q-53.2 -110.5 -52.8 -111.1 L-49.2 -114.6" fill="#718c0c" fill-rule="evenodd" stroke="none"/>
      <path d="M-49.2 -114.6 L-48.9 -116.8 -47.6 -116.75 -46.8 -116.65 -49.2 -114.6" fill="#829f14" fill-rule="evenodd" stroke="none"/>
      <path d="M-22.9 -125.65 L-22.2 -125.3 Q-20.7 -124.2 -19.65 -122.9 L-22.45 -120.85 Q-27.1 -116.6 -30.65 -112.05 L-31.4 -111.2 -32.95 -109.1 -36.8 -102.8 -36.45 -109.65 -33.4 -113.8 Q-29.35 -119.15 -22.9 -125.65 M-33.4 -113.8 Q-32.1 -113.2 -30.65 -112.05 -32.1 -113.2 -33.4 -113.8" fill="#434303" fill-rule="evenodd" stroke="none"/>
      <path d="M-36.45 -109.65 L-36.8 -102.8 Q-38.2 -102.5 -40.3 -101.6 -38.2 -102.5 -36.8 -102.8 -41.65 -93.8 -42.7 -84.1 L-42.4 -89.7 Q-42.0 -93.65 -41.4 -96.4 L-40.3 -101.6 -39.15 -104.85 -37.55 -107.85 -36.45 -109.65" fill="#545306" fill-rule="evenodd" stroke="none"/>
      <path d="M-54.9 -73.3 L-55.9 -76.1 Q-56.9 -79.25 -56.9 -80.7 -56.8 -84.7 -54.15 -88.25 -56.1 -87.1 -55.3 -92.6 -55.05 -95.35 -53.35 -97.65 L-49.4 -100.95 Q-44.6 -104.2 -39.15 -104.85 L-40.3 -101.6 -41.4 -96.4 Q-47.4 -90.95 -52.1 -80.25 L-53.95 -75.85 -54.9 -73.3 M-36.8 -102.8 L-32.95 -109.1 Q-28.35 -99.8 -24.75 -95.75 -22.7 -91.75 -22.15 -89.1 -22.25 -84.2 -24.8 -80.3 -26.4 -80.8 -27.4 -82.5 -26.85 -79.25 -27.7 -77.35 -30.15 -77.9 -30.3 -78.35 -29.85 -75.85 -30.55 -71.45 -31.05 -67.95 -31.65 -66.35 -36.35 -75.75 -37.2 -89.15 -37.65 -96.65 -36.8 -102.8 M-44.4 -97.0 Q-43.4 -99.05 -40.3 -101.6 -43.4 -99.05 -44.4 -97.0 M-29.65 -79.8 Q-31.65 -82.9 -32.05 -86.45 -31.65 -82.9 -29.65 -79.8 M-50.9 -90.9 L-52.75 -89.1 -50.9 -90.9 M-53.2 -86.55 L-52.5 -87.45 -53.2 -86.55" fill="url(#decoration6-gradient4)" fill-rule="evenodd" stroke="none"/>
      <path d="M-32.95 -109.1 L-31.4 -111.2 Q-28.2 -112.4 -25.0 -112.35 -19.35 -110.2 -16.2 -98.95 -16.35 -94.7 -18.1 -91.75 -20.5 -91.65 -23.85 -94.55 L-24.75 -95.75 Q-28.35 -99.8 -32.95 -109.1 M-25.5 -99.35 L-27.15 -101.85 -25.5 -99.35 M-18.65 -94.25 L-22.65 -99.4 -18.65 -94.25" fill="#859311" fill-rule="evenodd" stroke="none"/>
      <path d="M-11.35 -113.35 L-11.9 -108.7 -12.85 -108.7 Q-13.4 -104.35 -13.65 -103.95 L-14.65 -105.05 -15.75 -106.6 -15.4 -102.6 Q-15.25 -101.0 -15.4 -98.65 L-15.55 -96.65 -16.2 -98.95 -16.35 -109.15 Q-15.75 -107.15 -14.15 -106.25 -12.45 -109.5 -14.8 -113.95 L-12.3 -112.65 -13.05 -116.7 -11.35 -113.35 M-13.6 -111.8 Q-12.7 -110.95 -12.85 -108.7 -12.7 -110.95 -13.6 -111.8" fill="#495102" fill-rule="evenodd" stroke="none"/>
      <path d="M-15.55 -96.65 Q-15.75 -94.75 -16.3 -92.9 -17.3 -89.15 -18.7 -89.2 -19.7 -89.2 -20.6 -90.35 L-23.85 -94.55 Q-20.5 -91.65 -18.1 -91.75 -16.35 -94.7 -16.2 -98.95 L-15.55 -96.65" fill="#6f7b05" fill-rule="evenodd" stroke="none"/>
      <path d="M-20.6 -90.35 Q-21.4 -85.2 -22.35 -82.85 -23.65 -79.45 -25.2 -77.9 L-26.2 -79.0 -26.75 -76.9 Q-26.9 -76.0 -27.55 -76.0 -28.5 -76.05 -29.25 -77.05 L-28.6 -68.35 Q-29.45 -69.55 -30.1 -67.2 L-30.55 -64.6 -31.65 -66.3 -31.65 -66.35 Q-31.05 -67.95 -30.55 -71.45 -29.85 -75.85 -30.3 -78.35 -30.15 -77.9 -27.7 -77.35 -26.85 -79.25 -27.4 -82.5 -26.4 -80.8 -24.8 -80.3 -22.25 -84.2 -22.15 -89.1 -22.7 -91.75 -24.75 -95.75 L-23.85 -94.55 -20.6 -90.35" fill="#698308" fill-rule="evenodd" stroke="none"/>
      <path d="M-30.55 -64.6 L-35.85 -61.5 Q-33.65 -62.85 -31.65 -66.3 L-30.55 -64.6" fill="#616b08" fill-rule="evenodd" stroke="none"/>
      <path d="M-35.85 -61.5 L-36.05 -61.4 Q-38.55 -74.4 -38.55 -78.9 L-42.95 -59.3 Q-44.7 -60.4 -50.45 -67.6 L-51.05 -66.75 -54.9 -73.3 -53.95 -75.85 -52.1 -80.25 Q-47.4 -90.95 -41.4 -96.4 -42.0 -93.65 -42.4 -89.7 L-42.7 -84.1 Q-41.65 -93.8 -36.8 -102.8 -37.65 -96.65 -37.2 -89.15 -36.35 -75.75 -31.65 -66.35 L-31.65 -66.3 Q-33.65 -62.85 -35.85 -61.5 M-42.95 -80.6 L-42.7 -84.1 -42.95 -80.6 M-50.45 -67.6 L-48.9 -72.95 -50.45 -67.6" fill="url(#decoration6-gradient5)" fill-rule="evenodd" stroke="none"/>
      <path d="M-48.9 -116.8 L-49.2 -114.6 -46.8 -116.65 -45.6 -117.6 M-48.9 -116.8 Q-47.85 -119.95 -43.05 -121.65 L-37.9 -123.0 -38.4 -123.55 Q-34.65 -126.35 -28.8 -126.45 -24.1 -126.55 -22.9 -125.65 L-22.2 -125.3 Q-20.7 -124.2 -19.65 -122.9 L-18.3 -123.7 Q-17.1 -124.4 -16.55 -124.5 L-6.05 -124.1 Q-4.4 -119.1 -4.45 -117.3 L-4.45 -115.65 Q-4.6 -116.2 -5.45 -116.9 -6.25 -117.6 -6.6 -117.55 -6.45 -117.05 -7.15 -114.35 L-8.15 -111.15 -9.95 -112.25 -11.35 -113.35 -11.9 -108.7 -12.85 -108.7 Q-13.4 -104.35 -13.65 -103.95 L-14.65 -105.05 -15.75 -106.6 -15.4 -102.6 Q-15.25 -101.0 -15.4 -98.65 L-15.55 -96.65 Q-15.75 -94.75 -16.3 -92.9 -17.3 -89.15 -18.7 -89.2 -19.7 -89.2 -20.6 -90.35 -21.4 -85.2 -22.35 -82.85 -23.65 -79.45 -25.2 -77.9 -25.8 -77.95 -26.0 -78.35 L-26.2 -79.0 -26.75 -76.9 Q-26.9 -76.0 -27.55 -76.0 -28.5 -76.05 -29.25 -77.05 L-28.6 -68.35 Q-29.45 -69.55 -30.1 -67.2 L-30.55 -64.6 -35.85 -61.5 -36.05 -61.4 Q-38.55 -74.4 -38.55 -78.9 L-42.95 -59.3 Q-44.7 -60.4 -50.45 -67.6 L-51.05 -66.75 -54.9 -73.3 -55.9 -76.1 Q-56.9 -79.25 -56.9 -80.7 -56.8 -84.7 -54.15 -88.25 -56.1 -87.1 -55.3 -92.6 L-55.5 -93.9 -55.7 -97.0 Q-55.7 -99.75 -54.85 -101.5 L-51.05 -107.2 -54.05 -104.85 Q-53.9 -105.75 -53.35 -106.75 -52.95 -107.55 -52.95 -108.2 L-53.1 -109.85 Q-53.2 -110.5 -52.8 -111.1 L-49.2 -114.6 M-31.85 -124.8 Q-33.75 -124.1 -37.35 -123.15 L-37.9 -123.0 M-30.65 -112.05 Q-32.1 -113.2 -33.4 -113.8 -37.05 -115.55 -40.6 -114.6 M-36.8 -102.8 L-32.95 -109.1 -31.4 -111.2 -30.65 -112.05 Q-27.1 -116.6 -22.45 -120.85 L-19.65 -122.9 M-36.8 -102.8 Q-38.2 -102.5 -40.3 -101.6 -43.4 -99.05 -44.4 -97.0 M-42.7 -84.1 Q-41.65 -93.8 -36.8 -102.8 M-13.05 -116.7 L-11.35 -113.35 M-12.85 -108.7 Q-12.7 -110.95 -13.6 -111.8 M-53.35 -97.65 Q-55.05 -95.35 -55.3 -92.6 M-23.85 -94.55 L-24.75 -95.75 M-20.6 -90.35 L-23.85 -94.55 M-25.2 -77.9 L-26.2 -79.0 M-42.7 -84.1 L-42.95 -80.6 M-48.9 -72.95 L-50.45 -67.6" fill="none" stroke="#000000" stroke-linecap="round" stroke-linejoin="round" stroke-opacity="0.34901962" stroke-width="0.4"/>
      <path d="M-27.15 -101.85 L-25.5 -99.35 M-32.05 -86.45 Q-31.65 -82.9 -29.65 -79.8 M-52.75 -89.1 L-50.9 -90.9 M-52.5 -87.45 L-53.2 -86.55 M-22.65 -99.4 L-18.65 -94.25" fill="none" stroke="#000000" stroke-linecap="round" stroke-linejoin="round" stroke-opacity="0.18039216" stroke-width="0.4"/>
      <path d="M-5.95 -4.55 L-5.15 -9.9 Q-4.55 -16.15 -5.05 -20.75 -2.35 -22.3 1.9 -22.45 3.55 -18.05 4.05 -14.6 5.0 -7.8 4.05 -5.05 -1.9 -0.9 -5.95 -4.55 M1.85 -17.4 L1.9 -22.45 1.85 -17.4 M-0.65 -7.2 L-0.25 -14.55 -0.65 -7.2" fill="#82662c" fill-rule="evenodd" stroke="none"/>
      <path d="M1.9 -22.45 Q3.85 -22.65 6.7 -22.45 7.05 -12.95 6.15 -7.6 L4.4 -1.85 -0.1 -0.5 Q-3.65 -1.35 -6.7 -3.1 L-5.95 -4.55 Q-1.9 -0.9 4.05 -5.05 5.0 -7.8 4.05 -14.6 3.55 -18.05 1.9 -22.45" fill="#664d17" fill-rule="evenodd" stroke="none"/>
      <path d="M6.7 -22.45 Q9.0 -21.95 10.8 -20.75 8.35 -11.4 10.05 1.1 L6.4 1.1 -8.95 1.1 -7.25 -1.9 -6.7 -3.1 Q-3.65 -1.35 -0.1 -0.5 L4.4 -1.85 6.15 -7.6 Q7.05 -12.95 6.7 -22.45 M6.95 -6.6 L6.4 1.1 6.95 -6.6" fill="#38260c" fill-rule="evenodd" stroke="none"/>
      <path d="M1.9 -22.45 L1.85 -17.4 M6.4 1.1 L6.95 -6.6 M-0.25 -14.55 L-0.65 -7.2" fill="none" stroke="#000000" stroke-linecap="round" stroke-linejoin="round" stroke-opacity="0.101960786" stroke-width="0.5"/>
      <path d="M1.9 -22.45 Q3.85 -22.65 6.7 -22.45 9.0 -21.95 10.8 -20.75 8.35 -11.4 10.05 1.1 L6.4 1.1 -8.95 1.1 -7.25 -1.9 -6.7 -3.1 -5.95 -4.55 -5.15 -9.9 Q-4.55 -16.15 -5.05 -20.75 -2.35 -22.3 1.9 -22.45 Z" fill="none" stroke="#000000" stroke-linecap="round" stroke-linejoin="round" stroke-opacity="0.34901962" stroke-width="0.4"/>
    </g>
    <linearGradient gradientTransform="matrix(0.0, 0.0237, -0.0234, 0.0, -39.55, -87.75)" gradientUnits="userSpaceOnUse" id="decoration6-gradient4" spreadMethod="pad" x1="-819.2" x2="819.2">
      <stop offset="0.043137254901960784" stop-color="#96b426"/>
      <stop offset="0.9686274509803922" stop-color="#829f14"/>
    </linearGradient>
    <linearGradient gradientTransform="matrix(0.0067, 0.0224, -0.0225, 0.0084, -43.55, -83.25)" gradientUnits="userSpaceOnUse" id="decoration6-gradient5" spreadMethod="pad" x1="-819.2" x2="819.2">
      <stop offset="0.0" stop-color="#889808"/>
      <stop offset="0.9294117647058824" stop-color="#7a870e"/>
    </linearGradient>
    <g id="decoration6-sprite1" transform="matrix(1.0, 0.0, 0.0, 1.0, -2.6, 0.05)">
      <use height="116.85" transform="matrix(1.0, 0.0, 0.0, 1.0, 2.6, -0.05)" width="220.6" xlink:href="#decoration6-shape3"/>
    </g>
    <g id="decoration6-shape3" transform="matrix(1.0, 0.0, 0.0, 1.0, -2.6, 0.05)">
      <path d="M216.6 72.9 Q209.6 82.3 197.3 90.5 165.65 111.5 112.85 116.1 61.0 120.6 28.05 95.7 15.85 86.45 8.7 74.85 2.6 65.0 2.6 58.05 2.6 51.0 7.9 41.95 14.25 31.1 25.85 22.35 57.15 -1.2 112.85 0.0 173.9 1.15 201.1 17.6 224.7 31.9 223.1 58.05 222.7 64.7 216.6 72.9" fill="url(#decoration6-gradient6)" fill-rule="evenodd" stroke="none"/>
    </g>
    <radialGradient cx="0" cy="0" gradientTransform="matrix(0.0971, 0.0, 0.0, 0.0572, 109.5, 53.65)" gradientUnits="userSpaceOnUse" id="decoration6-gradient6" r="819.2" spreadMethod="pad">
      <stop offset="0.0" stop-color="#cdfdff" stop-opacity="0.45882353"/>
      <stop offset="0.19607843137254902" stop-color="#dafdff" stop-opacity="0.34117648"/>
      <stop offset="1.0" stop-color="#ffffff" stop-opacity="0.0"/>
    </radialGradient>
  </defs>
</svg>
