<?xml version="1.0" encoding="UTF-8" standalone="no"?>
<svg xmlns:xlink="http://www.w3.org/1999/xlink" height="35.35px" width="25.6px" xmlns="http://www.w3.org/2000/svg">
  <g transform="matrix(1.0, 0.0, 0.0, 1.0, 13.95, 0.15)">
    <use height="25.6" id="decoration60-Couleur0_C54000" filter="url(#decoration60-filter0)" transform="matrix(1.0, 0.0, 0.0, 1.0, -13.95, 9.6)" width="25.6" xlink:href="#decoration60-sprite0"/>
    <use height="33.85" transform="matrix(1.0, 0.0, 0.0, 1.0, -13.35, -0.15)" width="24.7" xlink:href="#decoration60-shape1"/>
  </g>
  <defs>
    <g id="decoration60-sprite0" transform="matrix(1.0, 0.0, 0.0, 1.0, 0.25, 0.25)">
      <use height="25.6" transform="matrix(1.0, 0.0, 0.0, 1.0, -0.25, -0.25)" width="25.6" xlink:href="#decoration60-shape0"/>
    </g>
    <g id="decoration60-shape0" transform="matrix(1.0, 0.0, 0.0, 1.0, 0.25, 0.25)">
      <path d="M21.8 12.35 L21.65 9.35 Q22.8 11.25 22.8 13.85 22.8 17.8 19.9 20.7 17.2 23.3 13.15 23.3 9.15 23.3 6.25 20.7 L4.9 18.85 Q6.95 20.6 10.95 21.0 15.95 21.5 18.75 18.4 21.45 15.45 21.8 12.35" fill="url(#decoration60-gradient0)" fill-rule="evenodd" stroke="none"/>
      <path d="M21.8 12.35 Q21.45 15.45 18.75 18.4 15.95 21.5 10.95 21.0 6.95 20.6 4.9 18.85 L6.25 20.7 Q9.15 23.3 13.15 23.3 17.2 23.3 19.9 20.7 22.8 17.8 22.8 13.85 22.8 11.25 21.65 9.35 L21.8 12.35 M25.1 12.7 Q25.1 17.8 21.35 21.6 17.65 25.1 12.45 25.1 7.3 25.1 3.6 21.6 0.0 17.8 0.0 12.7 0.0 7.4 3.6 3.9 7.3 0.0 12.45 0.0 17.65 0.0 21.35 3.9 25.1 7.4 25.1 12.7" fill="url(#decoration60-gradient1)" fill-rule="evenodd" stroke="none"/>
      <path d="M25.1 12.7 Q25.1 17.8 21.35 21.6 17.65 25.1 12.45 25.1 7.3 25.1 3.6 21.6 0.0 17.8 0.0 12.7 0.0 7.4 3.6 3.9 7.3 0.0 12.45 0.0 17.65 0.0 21.35 3.9 25.1 7.4 25.1 12.7 Z" fill="none" stroke="#000000" stroke-linecap="round" stroke-linejoin="round" stroke-opacity="0.4509804" stroke-width="0.5"/>
    </g>
    <linearGradient gradientTransform="matrix(-0.0048, -0.0083, 0.0075, -0.0043, 18.25, 19.85)" gradientUnits="userSpaceOnUse" id="decoration60-gradient0" spreadMethod="pad" x1="-819.2" x2="819.2">
      <stop offset="0.0" stop-color="#8e8e8e"/>
      <stop offset="1.0" stop-color="#6b6161"/>
    </linearGradient>
    <radialGradient cx="0" cy="0" gradientTransform="matrix(0.0141, 0.0, 0.0, 0.0141, 10.7, 6.8)" gradientUnits="userSpaceOnUse" id="decoration60-gradient1" r="819.2" spreadMethod="pad">
      <stop offset="0.0" stop-color="#aaa7a7"/>
      <stop offset="0.9529411764705882" stop-color="#544c47"/>
    </radialGradient>
    <g id="decoration60-shape1" transform="matrix(1.0, 0.0, 0.0, 1.0, 13.35, 0.15)">
      <path d="M7.25 22.05 L8.15 22.15 9.2 22.0 9.65 21.85 Q9.65 21.7 10.55 21.6 11.45 21.45 11.35 22.0 11.15 23.3 10.95 23.25 L10.35 23.4 Q9.9 23.55 9.9 23.7 L10.15 24.1 Q10.4 24.3 10.55 24.3 L11.15 23.85 11.15 24.6 10.3 25.35 Q5.35 29.35 2.7 28.05 L2.7 22.95 3.55 22.7 6.65 21.9 7.25 22.05 M-8.6 23.3 Q-8.25 23.75 -8.05 23.55 -7.9 23.4 -8.35 22.9 -8.8 22.4 -8.9 22.65 L-8.6 23.3 M-13.35 21.2 Q-13.4 20.5 -12.55 20.5 L-7.25 19.85 Q-6.45 19.85 -5.9 20.25 L-5.35 20.85 -6.45 20.4 -7.6 20.25 Q-8.35 20.2 -8.3 20.5 -8.15 21.1 -6.45 21.6 L-5.35 21.7 -4.6 21.55 -4.6 21.5 -1.85 23.15 Q-1.15 23.65 -1.35 24.55 L-1.35 27.15 Q-1.5 27.65 -2.3 27.7 -11.1 26.5 -13.35 24.1 L-13.35 21.2 M-11.85 23.15 L-11.65 23.8 Q-11.4 24.25 -10.95 24.3 L-10.2 24.1 -9.95 23.7 -10.15 23.0 Q-10.45 22.45 -10.95 22.4 -11.85 22.3 -11.85 23.15 M5.6 26.45 L5.85 25.8 5.7 25.3 Q5.4 24.9 4.9 24.85 4.4 24.8 4.1 25.25 L3.9 25.8 4.15 26.35 Q4.45 26.75 4.9 26.8 5.35 26.85 5.6 26.45 M-3.5 25.4 Q-3.4 24.5 -4.5 24.15 -5.6 23.8 -5.55 24.85 -5.5 25.8 -4.55 25.9 -3.6 26.0 -3.5 25.4" fill="#ffd574" fill-opacity="0.50980395" fill-rule="evenodd" stroke="none"/>
      <path d="M9.1 14.7 L10.25 16.4 9.7 16.6 9.45 16.8 Q5.4 18.6 -0.1 18.6 -5.9 18.6 -9.95 16.6 L-11.0 16.1 -11.75 15.55 -10.55 14.15 -10.35 14.25 -9.95 14.4 -8.85 14.95 Q-5.15 16.45 -0.1 16.45 4.0 16.45 7.3 15.4 L8.85 14.8 9.1 14.7 M8.9 29.2 L10.3 28.1 7.7 31.5 Q3.85 33.7 -1.25 33.7 -6.25 33.7 -10.0 31.45 L-11.45 29.2 Q-1.1 35.65 8.9 29.2" fill="#fffbf3" fill-opacity="0.50980395" fill-rule="evenodd" stroke="none"/>
      <path d="M-11.55 18.95 Q-11.45 17.25 -10.6 15.75 -9.8 14.35 -8.25 13.35 -6.3 12.1 -4.75 12.85 -3.25 13.55 -3.45 15.95 -3.65 17.7 -4.45 19.15 -5.15 20.6 -6.5 21.65 -8.35 22.95 -10.05 22.15 -11.75 21.35 -11.55 18.95" fill="url(#decoration60-gradient2)" fill-rule="evenodd" stroke="none"/>
      <path d="M-12.0 25.35 Q-11.85 24.35 -10.95 24.2 -10.05 24.05 -9.45 24.8 -9.0 25.35 -8.9 26.05 -8.5 28.3 -9.8 28.65 -10.7 28.9 -11.3 28.1 L-11.85 26.85 -12.0 25.35" fill="url(#decoration60-gradient3)" fill-rule="evenodd" stroke="none"/>
      <path d="M3.2 7.65 L3.2 10.45 Q3.2 10.8 0.6 11.5 L0.6 8.5 3.2 7.65 M-3.8 11.5 L-6.0 10.85 -6.0 7.05 -5.65 7.75 -3.8 8.5 -3.8 11.5" fill="#ba6d27" fill-rule="evenodd" stroke="none"/>
      <path d="M-6.0 7.05 L-5.05 6.75 -1.45 6.55 1.8 6.7 Q3.2 7.05 3.2 7.55 L3.2 7.65 0.6 8.5 -2.9 8.6 -3.0 8.6 -3.8 8.5 -5.65 7.75 -6.0 7.05" fill="#f2cf52" fill-rule="evenodd" stroke="none"/>
      <path d="M0.6 11.5 L-2.9 11.6 -2.9 8.6 0.6 8.5 0.6 11.5" fill="#d48627" fill-rule="evenodd" stroke="none"/>
      <path d="M-2.9 11.6 L-3.8 11.5 -3.8 8.5 -3.0 8.6 -2.9 8.6 -2.9 11.6" fill="#f2dd8e" fill-rule="evenodd" stroke="none"/>
      <path d="M-6.0 7.05 L-5.05 6.75 -1.45 6.55 1.8 6.7 Q3.2 7.05 3.2 7.55 L3.2 7.65 3.2 10.45 Q3.2 10.8 0.6 11.5 M-2.9 11.6 L-3.8 11.5 -6.0 10.85 -6.0 7.05 Z" fill="none" stroke="#000000" stroke-linecap="round" stroke-linejoin="round" stroke-opacity="0.3019608" stroke-width="0.30000000000000004"/>
      <path d="M-1.85 7.45 Q-2.15 1.8 0.0 0.3 2.05 -1.2 2.3 4.5 2.35 6.35 1.15 7.55" fill="none" stroke="#000000" stroke-linecap="round" stroke-linejoin="round" stroke-opacity="0.4509804" stroke-width="0.30000000000000004"/>
    </g>
    <linearGradient gradientTransform="matrix(-0.004, 0.0068, -0.0053, -0.003, -6.6, 15.85)" gradientUnits="userSpaceOnUse" id="decoration60-gradient2" spreadMethod="pad" x1="-819.2" x2="819.2">
      <stop offset="0.0" stop-color="#ffffff" stop-opacity="0.5019608"/>
      <stop offset="1.0" stop-color="#ffffff" stop-opacity="0.0"/>
    </linearGradient>
    <linearGradient gradientTransform="matrix(-0.0019, 0.0033, -0.0024, -0.0014, -9.45, 25.25)" gradientUnits="userSpaceOnUse" id="decoration60-gradient3" spreadMethod="pad" x1="-819.2" x2="819.2">
      <stop offset="0.0" stop-color="#ffffff" stop-opacity="0.5019608"/>
      <stop offset="1.0" stop-color="#ffffff" stop-opacity="0.0"/>
    </linearGradient>
  </defs>
</svg>
