<?xml version="1.0" encoding="UTF-8" standalone="no"?>
<svg xmlns:xlink="http://www.w3.org/1999/xlink" height="65.8px" width="140.7px" xmlns="http://www.w3.org/2000/svg">
  <g transform="matrix(1.0, 0.0, 0.0, 1.0, 13.35, 11.6)">
    <use height="39.3" transform="matrix(1.0, 0.0, 0.0, 1.0, 0.1, -11.6)" width="113.3" xlink:href="#decoration61-shape0"/>
    <use height="27.55" transform="matrix(0.8881, 0.5038, -0.5127, 0.8369, 0.7756, 5.3582)" width="12.3" xlink:href="#decoration61-sprite0"/>
    <use height="27.55" transform="matrix(0.7401, 0.4198, -0.4273, 0.6974, 8.1214, 16.7151)" width="12.3" xlink:href="#decoration61-sprite2"/>
    <use height="27.55" transform="matrix(0.9906, 0.27, -0.2654, 0.9388, 22.1633, 25.0031)" width="12.3" xlink:href="#decoration61-sprite0"/>
    <use height="27.55" transform="matrix(0.9905, -0.2355, 0.2654, 0.948, 45.5867, 26.9526)" width="12.3" xlink:href="#decoration61-sprite2"/>
    <use height="27.55" transform="matrix(0.8223, -0.4379, 0.4748, 0.7914, 62.4263, 16.6604)" width="12.3" xlink:href="#decoration61-sprite0"/>
    <use height="27.55" transform="matrix(0.8254, 0.225, -0.2212, 0.7823, 79.5611, 1.5109)" width="12.3" xlink:href="#decoration61-sprite2"/>
    <use height="27.55" transform="matrix(0.8881, 0.5037, -0.5127, 0.8369, 95.3756, 2.8082)" width="12.3" xlink:href="#decoration61-sprite0"/>
    <use height="27.55" transform="matrix(0.888, -0.4729, 0.5128, 0.8547, 102.3244, 19.9073)" width="12.3" xlink:href="#decoration61-sprite2"/>
    <use height="27.55" transform="matrix(0.6249, -0.3328, 0.3608, 0.6014, 93.332, 18.5699)" width="12.3" xlink:href="#decoration61-sprite0"/>
    <use height="27.55" transform="matrix(0.8254, 0.225, -0.2212, 0.7823, 48.6611, 14.4109)" width="12.3" xlink:href="#decoration61-sprite2"/>
    <use height="27.55" transform="matrix(0.8254, -0.1963, 0.2212, 0.7899, 24.0389, 3.1605)" width="12.3" xlink:href="#decoration61-sprite2"/>
    <use height="27.55" transform="matrix(0.625, 0.3545, -0.3608, 0.5889, 38.768, 9.1206)" width="12.3" xlink:href="#decoration61-sprite0"/>
    <use height="27.55" transform="matrix(-0.7216, -0.0126, 0.0, 0.6872, 13.05, 3.5656)" width="12.3" xlink:href="#decoration61-sprite0"/>
    <use height="27.55" transform="matrix(0.6386, 0.1906, -0.1598, 0.6242, 99.758, -9.6312)" width="12.3" xlink:href="#decoration61-sprite2"/>
    <use height="27.55" transform="matrix(0.625, 0.3545, -0.3608, 0.5889, 107.068, -3.1294)" width="12.3" xlink:href="#decoration61-sprite0"/>
    <use height="27.55" transform="matrix(0.625, 0.3545, -0.3608, 0.5889, 16.318, -3.0294)" width="12.3" xlink:href="#decoration61-sprite0"/>
    <use height="27.55" transform="matrix(0.7401, 0.4198, -0.4273, 0.6974, 4.7714, -5.6349)" width="12.3" xlink:href="#decoration61-sprite2"/>
    <use height="27.55" transform="matrix(0.625, 0.3545, -0.3608, 0.5889, 71.618, 4.5206)" width="12.3" xlink:href="#decoration61-sprite0"/>
    <use height="27.55" transform="matrix(0.625, 0.3545, -0.3608, 0.5889, 90.918, -2.4794)" width="12.3" xlink:href="#decoration61-sprite0"/>
    <use height="27.55" transform="matrix(0.8254, 0.225, -0.2212, 0.7823, 78.6111, 19.4609)" width="12.3" xlink:href="#decoration61-sprite2"/>
  </g>
  <defs>
    <g id="decoration61-shape0" transform="matrix(1.0, 0.0, 0.0, 1.0, -0.1, 11.6)">
      <path d="M0.2 -3.05 Q-0.7 -4.25 5.9 -3.85 12.45 -3.45 21.05 0.1 29.7 3.6 40.0 10.0 L42.15 11.35 Q52.0 12.25 59.95 11.1 L69.6 9.5 Q72.95 5.85 74.95 4.5 80.65 0.5 89.25 0.7 94.7 -3.15 104.0 -10.35 L107.7 -11.35 Q113.4 -12.35 113.4 -9.65 113.4 -8.9 112.15 -6.35 110.6 -3.45 109.0 -2.3 L107.2 -1.2 Q107.3 -0.1 106.8 3.35 106.2 7.9 105.0 10.55 L107.8 14.4 Q110.25 18.1 110.25 20.4 110.25 22.1 107.1 23.95 103.05 26.4 96.5 26.1 92.35 25.9 89.6 23.35 84.8 24.45 78.25 24.45 67.85 24.5 60.35 21.05 L55.75 24.1 Q47.85 28.15 35.55 27.65 21.75 27.05 11.6 18.15 1.95 9.7 0.4 -2.75 L0.2 -3.05 M104.85 -9.0 Q108.1 -7.65 107.9 -2.5 L110.05 -5.3 Q112.1 -8.3 111.6 -9.7 111.3 -9.95 108.4 -9.7 L104.85 -9.0 M104.05 -8.2 L94.05 -1.3 91.0 0.8 Q92.0 0.9 94.55 2.2 L97.65 4.05 Q103.2 0.75 106.45 -2.0 108.05 -5.8 104.05 -8.2 M104.25 12.05 L102.6 14.55 Q98.25 20.65 91.05 22.9 93.15 24.45 99.25 24.6 105.35 24.75 108.05 22.2 110.7 19.65 104.25 12.05 M104.95 4.4 L106.05 -0.45 Q102.1 2.15 98.9 4.85 101.65 6.45 103.75 8.9 L104.95 4.4 M100.2 7.35 L98.25 6.2 Q95.45 8.0 93.2 9.7 88.8 12.95 87.5 17.7 87.15 18.95 89.65 21.65 90.2 22.2 94.25 19.9 99.4 16.85 103.3 10.85 102.3 8.9 100.2 7.35 M94.75 3.45 Q92.6 2.1 90.15 2.0 L86.1 4.25 Q80.3 7.1 70.85 9.9 L66.15 15.15 61.35 20.3 Q69.95 23.25 80.05 23.0 88.85 22.7 88.4 22.05 86.25 19.3 86.25 17.55 86.25 14.6 89.45 11.3 89.45 11.25 96.55 4.95 96.5 4.45 94.75 3.45 M80.0 5.6 Q85.85 3.0 87.3 2.0 79.05 1.35 71.8 8.95 74.0 8.35 80.0 5.6 M68.8 10.4 L61.7 11.9 44.3 12.65 53.15 17.45 59.2 20.35 Q62.5 17.8 65.95 13.7 L68.8 10.4 M49.4 16.75 Q42.95 13.9 40.6 12.5 29.6 12.2 16.0 6.55 6.7 2.65 2.25 -1.15 L2.9 1.1 Q4.5 6.7 7.2 11.05 16.05 25.55 35.55 26.4 47.7 26.9 55.4 22.85 57.1 21.95 58.9 20.65 56.0 19.75 49.4 16.75 M23.55 8.05 Q30.0 10.0 38.85 11.1 L36.4 9.35 Q30.05 4.85 20.2 0.7 10.35 -3.4 1.85 -2.95 11.85 4.5 23.55 8.05" fill="#1e1006" fill-rule="evenodd" stroke="none"/>
    </g>
    <g id="decoration61-sprite0" transform="matrix(1.0, 0.0, 0.0, 1.0, 0.0, 0.05)">
      <use height="27.55" transform="matrix(0.4218, 0.0, 0.0, 0.3022, 0.65, 0.3849)" width="12.3" xlink:href="#decoration61-sprite1"/>
    </g>
    <g id="decoration61-sprite1" transform="matrix(1.0, 0.0, 0.0, 1.0, 0.0, 0.05)">
      <use height="27.55" transform="matrix(1.0, 0.0, 0.0, 1.0, 0.0, -0.05)" width="12.3" xlink:href="#decoration61-shape1"/>
    </g>
    <g id="decoration61-shape1" transform="matrix(1.0, 0.0, 0.0, 1.0, 0.0, 0.05)">
      <path d="M6.1 11.5 Q6.6 11.5 6.9 11.85 L7.55 12.9 7.55 13.15 Q6.95 13.1 6.2 15.35 L5.6 17.6 4.7 17.0 Q3.75 16.15 3.75 14.95 3.75 13.6 4.45 12.55 5.15 11.5 6.1 11.5" fill="#ccbc28" fill-rule="evenodd" stroke="none"/>
      <path d="M2.1 16.85 Q2.2 15.35 2.7 17.75 L3.15 20.55 3.0 21.25 2.85 21.25 Q1.9 20.45 2.1 16.85 M4.3 8.95 Q2.35 9.7 2.25 7.25 2.15 4.8 4.15 4.1 6.1 3.4 6.15 5.8 6.2 8.2 4.3 8.95" fill="#fefd89" fill-rule="evenodd" stroke="none"/>
      <path d="M1.5 5.75 Q3.35 0.55 6.15 0.0 8.9 -0.55 10.8 5.15 12.3 9.7 12.3 13.75 12.3 18.25 11.2 21.9 9.6 27.2 6.15 27.5 3.0 27.75 1.25 22.2 0.0 18.15 0.0 13.75 0.0 10.05 1.5 5.75 M6.1 11.5 Q5.15 11.5 4.45 12.55 3.75 13.6 3.75 14.95 3.75 16.15 4.7 17.0 L5.6 17.6 6.2 15.35 Q6.95 13.1 7.55 13.15 L7.55 12.9 6.9 11.85 Q6.6 11.5 6.1 11.5 M4.3 8.95 Q6.2 8.2 6.15 5.8 6.1 3.4 4.15 4.1 2.15 4.8 2.25 7.25 2.35 9.7 4.3 8.95 M2.1 16.85 Q1.9 20.45 2.85 21.25 L3.0 21.25 3.15 20.55 2.7 17.75 Q2.2 15.35 2.1 16.85" fill="url(#decoration61-gradient0)" fill-rule="evenodd" stroke="none"/>
      <path d="M10.75 17.65 Q9.45 28.05 3.75 22.9 8.9 20.9 9.55 12.75 9.85 8.65 9.15 4.95 11.2 14.3 10.75 17.65" fill="#ccbc28" fill-rule="evenodd" stroke="none"/>
    </g>
    <radialGradient cx="0" cy="0" gradientTransform="matrix(0.0103, 0.0, 0.0, 0.0242, 5.75, 8.35)" gradientUnits="userSpaceOnUse" id="decoration61-gradient0" r="819.2" spreadMethod="pad">
      <stop offset="0.03529411764705882" stop-color="#fefd89"/>
      <stop offset="0.9882352941176471" stop-color="#ccc202"/>
    </radialGradient>
    <g id="decoration61-sprite2" transform="matrix(1.0, 0.0, 0.0, 1.0, 0.0, 0.05)">
      <use height="27.55" transform="matrix(0.4218, 0.0, 0.0, 0.3022, 0.65, 0.3849)" width="12.3" xlink:href="#decoration61-sprite1"/>
    </g>
  </defs>
</svg>
