<?xml version="1.0" encoding="UTF-8" standalone="no"?>
<svg xmlns:ffdec="https://www.free-decompiler.com/flash" xmlns:xlink="http://www.w3.org/1999/xlink" ffdec:objectType="frame" height="35.75px" width="37.15px" xmlns="http://www.w3.org/2000/svg">
  <g transform="matrix(1.0, 0.0, 0.0, 1.0, 18.0, 35.7)">
    <use ffdec:characterId="647" height="35.75" transform="matrix(1.0, 0.0, 0.0, 1.0, -18.0, -35.7)" width="37.15" xlink:href="#decoration62-shape0"/>
  </g>
  <defs>
    <g id="decoration62-shape0" transform="matrix(1.0, 0.0, 0.0, 1.0, 18.0, 35.7)">
      <path d="M-12.4 -18.05 L-12.85 -23.1 15.35 -23.1 14.9 -18.05 -12.4 -18.05" fill="url(#decoration62-gradient0)" fill-rule="evenodd" stroke="none"/>
      <path d="M14.7 -16.05 L13.25 -0.1 -10.95 -0.1 -12.3 -16.4 14.7 -16.05" fill="url(#decoration62-gradient1)" fill-rule="evenodd" stroke="none"/>
      <path d="M14.9 -18.05 L14.7 -16.05 -12.3 -16.4 -12.4 -18.05 14.9 -18.05" fill="#933000" fill-rule="evenodd" stroke="none"/>
      <path d="M14.9 -18.05 L14.7 -16.05 13.25 -0.1 -10.95 -0.1 -12.3 -16.4 -12.4 -18.05 -12.85 -23.1 15.35 -23.1 14.9 -18.05 -12.4 -18.05" fill="none" stroke="#000000" stroke-linecap="round" stroke-linejoin="round" stroke-opacity="0.3019608" stroke-width="0.30000000000000004"/>
      <path d="M7.85 -23.55 L14.3 -14.45 13.65 -5.9 Q11.0 -13.45 7.1 -17.6 6.15 -9.45 6.15 -0.15 L2.75 -0.15 1.95 -23.55 7.85 -23.55 M-5.1 -23.9 L-1.45 -23.9 Q-8.15 -16.25 -11.6 -9.6 L-12.35 -17.1 -5.1 -23.9" fill="#000000" fill-opacity="0.32941177" fill-rule="evenodd" stroke="none"/>
      <path d="M2.95 -25.25 L3.75 -25.45 Q3.25 -24.7 4.05 -24.2 L5.35 -23.8 7.7 -23.55 6.85 -23.55 5.55 -23.25 4.75 -23.1 4.55 -23.35 0.75 -23.35 2.35 -24.75 2.95 -25.25 2.35 -24.75 0.75 -23.35 -0.55 -24.55 -1.95 -25.65 -0.6 -25.9 Q0.05 -26.2 0.25 -26.95 L1.0 -25.45 1.2 -24.9 1.35 -25.45 2.0 -27.0 Q2.0 -26.35 2.8 -26.35 3.5 -26.3 4.95 -26.75 L2.95 -25.25 M10.2 -28.6 L11.75 -30.2 Q12.7 -30.6 14.55 -30.2 16.3 -30.1 19.0 -28.8 18.7 -25.05 12.45 -24.0 15.15 -25.75 14.5 -27.2 L14.35 -27.4 Q13.05 -28.6 10.2 -28.6 M4.35 -8.25 L4.35 -7.6 Q1.85 -10.1 -1.1 -6.0 L-1.25 -7.05 Q2.0 -10.7 4.35 -8.25 M-3.0 -23.15 L-6.7 -20.7 Q-6.0 -21.8 -6.35 -22.5 L-7.3 -23.3 -6.35 -23.65 -5.5 -23.55 -5.0 -23.5 -3.75 -23.8 -3.5 -23.9 -3.15 -24.0 Q-2.2 -24.3 -2.6 -24.6 L-1.2 -24.0 0.75 -23.35 -3.05 -23.35 -3.0 -23.15 M-14.8 -25.15 Q-17.15 -26.3 -17.85 -28.3 -15.4 -29.8 -11.4 -29.3 -10.3 -29.45 -8.4 -28.8 -7.7 -27.9 -6.8 -27.15 -12.55 -28.3 -14.8 -25.15 M1.2 -24.9 L0.75 -23.35 1.2 -24.9 M-3.05 -23.35 L-5.0 -23.5 -3.05 -23.35" fill="#a66400" fill-rule="evenodd" stroke="none"/>
      <path d="M0.75 -23.35 L4.55 -23.35 4.75 -23.1 4.55 -23.05 4.5 -20.4 -2.65 -20.05 -3.0 -23.15 -3.05 -23.35 0.75 -23.35 M7.7 -23.55 L5.35 -23.8 4.05 -24.2 Q3.25 -24.7 3.75 -25.45 7.85 -26.65 10.2 -28.6 13.05 -28.6 14.35 -27.4 L14.5 -27.2 Q15.15 -25.75 12.45 -24.0 L7.7 -23.55 M9.85 -29.45 Q7.2 -28.35 4.95 -26.75 3.5 -26.3 2.8 -26.35 2.0 -26.35 2.0 -27.0 L4.4 -31.15 Q3.25 -28.95 9.85 -29.45 M4.35 -7.6 L4.25 -0.15 -0.45 -0.15 -1.1 -6.0 Q1.85 -10.1 4.35 -7.6 M-6.7 -20.7 L-9.9 -18.0 -9.7 -18.4 Q-7.5 -22.3 -9.9 -22.15 L-7.3 -23.3 -6.35 -22.5 Q-6.0 -21.8 -6.7 -20.7 M-6.35 -23.65 Q-11.85 -23.7 -14.8 -25.15 -12.55 -28.3 -6.8 -27.15 -5.1 -25.7 -2.6 -24.6 -2.2 -24.3 -3.15 -24.0 L-3.5 -23.9 -3.75 -23.8 -5.0 -23.5 -5.5 -23.55 -6.35 -23.65 M-2.2 -30.85 Q-0.9 -29.2 0.25 -26.95 0.05 -26.2 -0.6 -25.9 L-1.95 -25.65 Q-4.55 -27.45 -7.75 -28.55 L-8.4 -28.8 -7.45 -28.75 Q-2.6 -28.8 -2.2 -30.85" fill="#cb8600" fill-rule="evenodd" stroke="none"/>
      <path d="M11.75 -30.2 Q10.75 -29.9 9.85 -29.45 3.25 -28.95 4.4 -31.15 L7.35 -35.15 Q10.3 -34.0 11.35 -31.85 L11.75 -30.2 M14.05 -34.55 Q17.65 -33.35 19.0 -28.8 16.3 -30.1 14.55 -30.2 L13.5 -31.95 Q11.95 -34.8 14.05 -34.55 M4.5 -20.4 L4.4 -14.3 Q1.45 -10.4 -1.95 -13.55 L-2.65 -20.05 4.5 -20.4 M-11.6 -16.3 L-14.2 -12.55 -13.7 -16.95 -17.6 -16.05 Q-15.85 -18.15 -13.55 -19.85 -12.35 -19.45 -11.85 -18.45 -11.45 -17.6 -11.6 -16.3 M-11.25 -21.35 L-9.9 -22.15 Q-7.5 -22.3 -9.7 -18.4 L-10.8 -19.3 Q-11.5 -20.2 -11.25 -21.35 M-17.85 -28.3 Q-17.0 -33.9 -8.4 -35.55 -8.4 -33.9 -9.0 -32.5 -9.7 -30.75 -11.4 -29.3 -15.4 -29.8 -17.85 -28.3 M-3.15 -31.95 L-2.2 -30.85 Q-2.6 -28.8 -7.45 -28.75 -7.2 -30.2 -6.35 -30.95 -5.2 -32.0 -3.15 -31.95" fill="#fcc200" fill-rule="evenodd" stroke="none"/>
      <path d="M7.35 -35.15 Q11.3 -35.5 14.05 -34.55 11.95 -34.8 13.5 -31.95 L14.55 -30.2 Q12.7 -30.6 11.75 -30.2 L11.35 -31.85 Q10.3 -34.0 7.35 -35.15 M4.4 -14.3 L4.35 -8.25 Q2.0 -10.7 -1.25 -7.05 L-1.95 -13.55 Q1.45 -10.4 4.4 -14.3 M-9.9 -18.0 L-11.6 -16.3 Q-11.45 -17.6 -11.85 -18.45 -12.35 -19.45 -13.55 -19.85 L-11.25 -21.35 Q-11.5 -20.2 -10.8 -19.3 L-9.7 -18.4 -9.9 -18.0 M-8.4 -35.55 Q-5.5 -34.5 -3.15 -31.95 -5.2 -32.0 -6.35 -30.95 -7.2 -30.2 -7.45 -28.75 L-8.4 -28.8 Q-10.3 -29.45 -11.4 -29.3 -9.7 -30.75 -9.0 -32.5 -8.4 -33.9 -8.4 -35.55" fill="#ffe841" fill-rule="evenodd" stroke="none"/>
      <path d="M3.75 -25.45 L2.95 -25.25 2.35 -24.75 0.75 -23.35 4.55 -23.35 4.75 -23.1 5.55 -23.25 6.85 -23.55 7.7 -23.55 12.45 -24.0 Q18.7 -25.05 19.0 -28.8 17.65 -33.35 14.05 -34.55 11.3 -35.5 7.35 -35.15 L4.4 -31.15 2.0 -27.0 1.35 -25.45 1.2 -24.9 1.0 -25.45 0.25 -26.95 Q-0.9 -29.2 -2.2 -30.85 L-3.15 -31.95 Q-5.5 -34.5 -8.4 -35.55 -17.0 -33.9 -17.85 -28.3 -17.15 -26.3 -14.8 -25.15 -11.85 -23.7 -6.35 -23.65 L-5.5 -23.55 -5.0 -23.5 -3.05 -23.35 -3.0 -23.15 -6.7 -20.7 -9.9 -18.0 -11.6 -16.3 -14.2 -12.55 -13.7 -16.95 -17.6 -16.05 Q-15.85 -18.15 -13.55 -19.85 L-11.25 -21.35 -9.9 -22.15 -7.3 -23.3 -6.35 -23.65 M3.75 -25.45 Q7.85 -26.65 10.2 -28.6 L11.75 -30.2 Q10.75 -29.9 9.85 -29.45 7.2 -28.35 4.95 -26.75 L2.95 -25.25 M14.55 -30.2 Q12.7 -30.6 11.75 -30.2 M4.75 -23.1 L4.55 -23.05 4.5 -20.4 4.4 -14.3 4.35 -8.25 4.35 -7.6 4.25 -0.15 -0.45 -0.15 -1.1 -6.0 -1.25 -7.05 -1.95 -13.55 -2.65 -20.05 -3.0 -23.15 M-1.95 -25.65 L-0.55 -24.55 0.75 -23.35 1.2 -24.9 M-11.4 -29.3 Q-10.3 -29.45 -8.4 -28.8 -7.7 -27.9 -6.8 -27.15 -5.1 -25.7 -2.6 -24.6 L-1.2 -24.0 0.75 -23.35 -3.05 -23.35 M-1.95 -25.65 Q-4.55 -27.45 -7.75 -28.55 L-8.4 -28.8" fill="none" stroke="#000000" stroke-linecap="round" stroke-linejoin="round" stroke-opacity="0.3019608" stroke-width="0.30000000000000004"/>
      <path d="M17.0 -14.5 L15.75 -13.35 14.55 -12.55 Q13.7 -11.95 12.8 -12.0 L12.1 -13.55 Q11.45 -15.25 12.25 -16.55 13.0 -17.7 14.6 -18.1 L17.0 -14.5 M13.75 -9.05 Q14.1 -10.65 15.2 -11.3 15.85 -11.85 17.7 -12.0 18.15 -10.7 18.15 -9.1 L17.85 -6.35 15.9 -8.55 14.0 -5.65 13.75 -9.05" fill="#fcc200" fill-rule="evenodd" stroke="none"/>
      <path d="M14.6 -18.1 Q13.0 -17.7 12.25 -16.55 11.45 -15.25 12.1 -13.55 10.85 -15.85 9.0 -18.05 8.7 -19.2 8.95 -19.95 9.1 -20.8 11.4 -21.75 L14.6 -18.1" fill="#cb8600" fill-rule="evenodd" stroke="none"/>
      <path d="M12.8 -12.0 Q13.7 -11.95 14.55 -12.55 L15.75 -13.35 17.0 -14.5 17.45 -13.25 17.7 -12.0 Q15.85 -11.85 15.2 -11.3 14.1 -10.65 13.75 -9.05 L12.8 -12.0" fill="#ffe841" fill-rule="evenodd" stroke="none"/>
      <path d="M9.0 -18.05 L4.55 -23.0 9.8 -23.1 11.4 -21.75 Q9.1 -20.8 8.95 -19.95 8.7 -19.2 9.0 -18.05" fill="#a66400" fill-rule="evenodd" stroke="none"/>
      <path d="M12.8 -12.0 L13.75 -9.05 14.0 -5.65 15.9 -8.55 17.85 -6.35 18.15 -9.1 Q18.15 -10.7 17.7 -12.0 L17.45 -13.25 17.0 -14.5 14.6 -18.1 11.4 -21.75 9.8 -23.1 M12.1 -13.55 L12.8 -12.0 M9.0 -18.05 L4.55 -23.0 M9.0 -18.05 Q10.85 -15.85 12.1 -13.55" fill="none" stroke="#000000" stroke-linecap="round" stroke-linejoin="round" stroke-opacity="0.3019608" stroke-width="0.30000000000000004"/>
    </g>
    <linearGradient gradientTransform="matrix(0.002, 0.0073, -0.003, 8.0E-4, 1.25, -20.5)" gradientUnits="userSpaceOnUse" id="decoration62-gradient0" spreadMethod="pad" x1="-819.2" x2="819.2">
      <stop offset="0.0" stop-color="#d74600"/>
      <stop offset="1.0" stop-color="#983300"/>
    </linearGradient>
    <linearGradient gradientTransform="matrix(0.0, 0.0165, -0.0099, 0.0, 1.15, -8.35)" gradientUnits="userSpaceOnUse" id="decoration62-gradient1" spreadMethod="pad" x1="-819.2" x2="819.2">
      <stop offset="0.0" stop-color="#d74600"/>
      <stop offset="1.0" stop-color="#983300"/>
    </linearGradient>
  </defs>
</svg>
