<?xml version="1.0" encoding="UTF-8" standalone="no"?>
<svg xmlns:xlink="http://www.w3.org/1999/xlink" height="63.5px" width="125.7px" xmlns="http://www.w3.org/2000/svg">
  <g transform="matrix(1.0, 0.0, 0.0, 1.0, 58.7, 62.85)">
    <use data-characterId="618" height="63.5" transform="matrix(1.0, 0.0, 0.0, 1.0, -58.7, -62.85)" width="125.7" xlink:href="#decoration63-shape0"/>
  </g>
  <defs>
    <g id="decoration63-shape0" transform="matrix(1.0, 0.0, 0.0, 1.0, 58.7, 62.85)">
      <path d="M5.55 -30.75 L15.2 -30.75 9.2 -24.75 -0.4 -24.75 9.2 -24.75 -15.85 0.35 -25.5 0.35 -0.4 -24.75 5.55 -30.75 M15.5 -22.4 L15.35 -12.65 2.3 0.35 -7.2 0.35 15.5 -22.4 M15.1 -2.45 L15.05 0.35 12.3 0.35 15.1 -2.45 M-35.5 0.35 L-45.0 0.35 -19.95 -24.75 -13.95 -30.75 -4.45 -30.75 -10.45 -24.75 -35.5 0.35 M-54.95 0.35 L-57.25 0.35 -57.25 -7.0 -39.5 -24.75 -29.85 -24.75 -39.5 -24.75 -33.5 -30.75 -23.9 -30.75 -29.85 -24.75 -54.95 0.35 M-57.25 -17.0 L-57.25 -24.75 -58.3 -24.75 -58.3 -25.45 -53.05 -30.75 -43.55 -30.75 -49.5 -24.75 -57.25 -17.0 M-49.5 -24.75 L-57.25 -24.75 -49.5 -24.75 M-10.45 -24.75 L-19.95 -24.75 -10.45 -24.75" fill="url(#decoration63-gradient0)" fill-rule="evenodd" stroke="none"/>
      <path d="M5.55 -30.75 L-0.4 -24.75 -10.45 -24.75 -4.45 -30.75 5.55 -30.75 M9.2 -24.75 L15.2 -30.75 16.55 -30.75 16.25 -24.75 15.55 -24.75 15.5 -22.4 -7.2 0.35 -15.85 0.35 9.2 -24.75 15.55 -24.75 9.2 -24.75 M15.35 -12.65 L15.1 -2.45 12.3 0.35 2.3 0.35 15.35 -12.65 M-25.5 0.35 L-35.5 0.35 -10.45 -24.75 -0.4 -24.75 -25.5 0.35 M-45.0 0.35 L-54.95 0.35 -29.85 -24.75 -23.9 -30.75 -13.95 -30.75 -19.95 -24.75 -45.0 0.35 M-57.25 -7.0 L-57.25 -17.0 -49.5 -24.75 -43.55 -30.75 -33.5 -30.75 -39.5 -24.75 -57.25 -7.0 M-58.3 -25.45 L-58.55 -30.75 -53.05 -30.75 -58.3 -25.45 M-29.85 -24.75 L-19.95 -24.75 -29.85 -24.75 M-49.5 -24.75 L-39.5 -24.75 -49.5 -24.75" fill="url(#decoration63-gradient1)" fill-rule="evenodd" stroke="none"/>
      <path d="M15.2 -30.75 L5.55 -30.75 -4.45 -30.75 -13.95 -30.75 -23.9 -30.75 -33.5 -30.75 -43.55 -30.75 -53.05 -30.75 -58.55 -30.75 -58.3 -25.45 -58.3 -24.75 -57.25 -24.75 -49.5 -24.75 -39.5 -24.75 -29.85 -24.75 -19.95 -24.75 -10.45 -24.75 -0.4 -24.75 9.2 -24.75 15.55 -24.75 15.5 -22.4 15.35 -12.65 15.1 -2.45 15.05 0.35 12.3 0.35 2.3 0.35 -7.2 0.35 -15.85 0.35 -25.5 0.35 -35.5 0.35 -45.0 0.35 -54.95 0.35 -57.25 0.35 -57.25 -7.0 -57.25 -17.0 -57.25 -24.75 M15.2 -30.75 L16.55 -30.75 16.25 -24.75 15.55 -24.75" fill="none" stroke="#000000" stroke-linecap="round" stroke-linejoin="round" stroke-opacity="0.3019608" stroke-width="0.30000000000000004"/>
      <path d="M15.3 -15.4 L15.3 -9.7 -15.0 -9.7 -15.0 0.45 -19.05 0.45 -19.05 -9.8 -57.15 -9.8 -57.15 -15.4 -17.9 -15.4 -17.9 -30.6 -15.5 -30.6 -15.5 -15.4 15.3 -15.4" fill="#000000" fill-opacity="0.32941177" fill-rule="evenodd" stroke="none"/>
      <path d="M-18.8 -31.4 L-17.3 -31.4 -17.3 -26.2 -18.8 -26.6 -18.8 -31.4 M-17.3 -15.9 L-17.3 0.35 -18.8 0.35 -18.8 -17.05 -17.3 -15.9 M-22.7 0.35 L-23.8 0.35 -23.8 -17.65 -22.7 -17.9 -22.7 0.35 M-23.8 -27.15 L-23.8 -31.4 -22.7 -31.4 -22.7 -27.15 -23.8 -27.15" fill="#0d4803" fill-rule="evenodd" stroke="none"/>
      <path d="M-18.8 -31.4 L-18.8 -26.6 -20.7 -27.0 -22.7 -27.15 -22.7 -31.4 -18.8 -31.4 M-18.8 0.35 L-22.7 0.35 -22.7 -17.9 -20.25 -17.75 Q-19.5 -17.5 -18.8 -17.05 L-18.8 0.35" fill="#950201" fill-rule="evenodd" stroke="none"/>
      <path d="M-18.8 -26.6 L-17.3 -26.2 -17.3 -21.9 -18.8 -21.8 -18.8 -26.6 M-23.8 -23.45 L-23.8 -27.15 -22.7 -27.15 -22.7 -22.75 -23.8 -23.45" fill="#237716" fill-rule="evenodd" stroke="none"/>
      <path d="M-22.7 -27.15 L-20.7 -27.0 -18.8 -26.6 -18.8 -21.8 -19.45 -21.85 Q-21.3 -22.0 -22.7 -22.75 L-22.7 -27.15" fill="#bc1817" fill-rule="evenodd" stroke="none"/>
      <path d="M-17.3 -21.9 L-17.3 -15.9 -18.8 -17.05 -18.8 -21.8 -17.3 -21.9 M-23.8 -17.65 L-23.8 -23.45 -22.7 -22.75 -22.7 -17.9 -23.8 -17.65" fill="#41a632" fill-rule="evenodd" stroke="none"/>
      <path d="M-22.7 -22.75 Q-21.3 -22.0 -19.45 -21.85 L-18.8 -21.8 -18.8 -17.05 Q-19.5 -17.5 -20.25 -17.75 L-22.7 -17.9 -22.7 -22.75" fill="#fc4443" fill-rule="evenodd" stroke="none"/>
      <path d="M-17.3 -26.2 L-17.3 -31.4 -18.8 -31.4 -22.7 -31.4 -23.8 -31.4 -23.8 -27.15 -23.8 -23.45 -23.8 -17.65 -23.8 0.35 -22.7 0.35 -18.8 0.35 -17.3 0.35 -17.3 -15.9 -17.3 -21.9 -17.3 -26.2 Z" fill="none" stroke="#000000" stroke-linecap="round" stroke-linejoin="round" stroke-opacity="0.3019608" stroke-width="0.30000000000000004"/>
      <path d="M-41.0 -30.55 L-42.2 -30.55 -43.5 -31.5 -43.8 -31.8 Q-43.6 -32.6 -42.4 -33.1 L-40.2 -31.55 -41.0 -30.55" fill="#062e00" fill-rule="evenodd" stroke="none"/>
      <path d="M-43.8 -31.8 Q-44.35 -32.35 -44.35 -32.8 L-44.35 -33.0 Q-41.5 -35.45 -35.25 -35.1 L-39.0 -33.9 -42.4 -33.1 Q-43.6 -32.6 -43.8 -31.8 M-4.9 -34.4 L-4.8 -33.35 -6.65 -33.4 Q-8.5 -34.1 -9.95 -34.9 L-5.95 -35.25 -4.9 -34.4 M-14.3 -33.15 L-13.45 -31.2 -14.7 -30.6 -15.85 -32.0 -14.3 -33.15 M-23.25 -32.1 Q-23.9 -31.75 -24.9 -31.5 L-27.75 -32.3 Q-28.2 -33.3 -28.15 -34.05 -25.5 -33.35 -23.25 -32.1" fill="#237716" fill-rule="evenodd" stroke="none"/>
      <path d="M-29.45 -39.75 Q-27.25 -39.35 -24.0 -37.45 L-23.95 -37.35 Q-26.65 -36.7 -27.65 -35.45 -28.1 -34.85 -28.15 -34.05 L-28.6 -34.2 -33.7 -35.0 -35.25 -35.1 Q-33.0 -35.95 -31.65 -36.85 -29.45 -38.3 -29.45 -39.75 M-22.05 -39.7 Q-21.05 -41.4 -18.65 -42.3 L-14.5 -42.0 Q-15.15 -39.5 -13.25 -37.35 -12.05 -36.05 -9.95 -34.9 -12.3 -34.4 -14.3 -33.15 L-15.8 -36.05 Q-18.6 -40.25 -22.05 -39.7" fill="#fc4443" fill-rule="evenodd" stroke="none"/>
      <path d="M-44.35 -33.0 Q-44.2 -36.0 -39.2 -38.05 -34.85 -39.8 -30.45 -39.8 L-29.45 -39.75 Q-29.45 -38.3 -31.65 -36.85 -33.0 -35.95 -35.25 -35.1 -41.5 -35.45 -44.35 -33.0 M-23.95 -37.35 Q-23.35 -37.1 -22.9 -36.7 -22.8 -38.45 -22.05 -39.7 -18.6 -40.25 -15.8 -36.05 L-14.3 -33.15 -15.85 -32.0 Q-18.3 -34.7 -20.6 -35.65 L-22.05 -36.1 -22.9 -36.7 Q-20.85 -33.5 -23.25 -32.1 -25.5 -33.35 -28.15 -34.05 -28.1 -34.85 -27.65 -35.45 -26.65 -36.7 -23.95 -37.35 M-14.5 -42.0 Q-5.7 -40.9 -4.9 -34.4 L-5.95 -35.25 -9.95 -34.9 Q-12.05 -36.05 -13.25 -37.35 -15.15 -39.5 -14.5 -42.0" fill="#bc1817" fill-rule="evenodd" stroke="none"/>
      <path d="M-39.0 -33.9 L-35.25 -35.1 -33.7 -35.0 -28.6 -34.2 -28.15 -34.05 Q-28.2 -33.3 -27.75 -32.3 -31.45 -33.25 -35.3 -33.6 L-39.0 -33.9 M-13.45 -31.2 L-14.3 -33.15 Q-12.3 -34.4 -9.95 -34.9 -8.5 -34.1 -6.65 -33.4 -9.2 -33.15 -13.45 -31.2" fill="#41a632" fill-rule="evenodd" stroke="none"/>
      <path d="M-17.3 -30.55 L-19.55 -30.55 -20.65 -30.55 -23.25 -32.1 Q-20.85 -33.5 -22.9 -36.7 L-22.05 -36.1 -20.6 -35.65 Q-18.3 -34.7 -15.85 -32.0 L-17.3 -30.55 M-32.05 -30.55 L-38.7 -30.55 -40.2 -31.55 Q-38.6 -32.85 -34.9 -32.1 -34.15 -31.2 -32.05 -30.55 M-19.55 -30.55 Q-19.4 -32.9 -20.85 -34.85 L-22.05 -36.0 -22.9 -36.7 -22.05 -36.0 -20.85 -34.85 Q-19.4 -32.9 -19.55 -30.55" fill="#950201" fill-rule="evenodd" stroke="none"/>
      <path d="M-4.8 -33.35 Q-4.9 -32.15 -7.8 -30.6 L-10.3 -30.6 Q-6.75 -32.75 -6.65 -33.4 L-4.8 -33.35 M-14.7 -30.6 L-17.3 -30.55 -15.85 -32.0 -14.7 -30.6 M-20.65 -30.55 L-22.0 -30.55 -24.9 -31.5 Q-23.9 -31.75 -23.25 -32.1 L-20.65 -30.55 M-38.7 -30.55 L-41.0 -30.55 -40.2 -31.55 -38.7 -30.55" fill="#0d4803" fill-rule="evenodd" stroke="none"/>
      <path d="M-42.4 -33.1 L-39.0 -33.9 -35.3 -33.6 Q-35.55 -32.8 -34.9 -32.1 -38.6 -32.85 -40.2 -31.55 L-42.4 -33.1" fill="#700000" fill-rule="evenodd" stroke="none"/>
      <path d="M-43.8 -31.8 Q-44.35 -32.35 -44.35 -32.8 L-44.35 -33.0 Q-44.2 -36.0 -39.2 -38.05 -34.85 -39.8 -30.45 -39.8 L-29.45 -39.75 Q-27.25 -39.35 -24.0 -37.45 L-23.95 -37.35 Q-23.35 -37.1 -22.9 -36.7 -22.8 -38.45 -22.05 -39.7 -21.05 -41.4 -18.65 -42.3 L-14.5 -42.0 Q-5.7 -40.9 -4.9 -34.4 L-4.8 -33.35 Q-4.9 -32.15 -7.8 -30.6 L-10.3 -30.6 -14.7 -30.6 -17.3 -30.55 -19.55 -30.55 -20.65 -30.55 -22.0 -30.55 -32.05 -30.55 -38.7 -30.55 -41.0 -30.55 -42.2 -30.55 -43.5 -31.5 -43.8 -31.8 M-13.45 -31.2 Q-9.2 -33.15 -6.65 -33.4 L-4.8 -33.35 M-22.05 -36.1 L-22.9 -36.7 -22.05 -36.0 -20.85 -34.85 Q-19.4 -32.9 -19.55 -30.55 M-14.7 -30.6 L-13.45 -31.2 M-10.3 -30.6 Q-6.75 -32.75 -6.65 -33.4 M-34.9 -32.1 Q-35.55 -32.8 -35.3 -33.6 L-39.0 -33.9 M-34.9 -32.1 Q-34.15 -31.2 -32.05 -30.55 M-27.75 -32.3 L-24.9 -31.5 -22.0 -30.55 M-35.3 -33.6 Q-31.45 -33.25 -27.75 -32.3" fill="none" stroke="#000000" stroke-linecap="round" stroke-linejoin="round" stroke-opacity="0.3019608" stroke-width="0.30000000000000004"/>
      <path d="M14.7 -16.15 L-24.8 -16.15 -22.15 -17.6 14.7 -17.6 14.7 -16.15 M-26.65 -12.2 L14.7 -12.2 14.7 -11.1 -26.15 -11.1 -26.65 -12.2 M-47.65 -11.1 L-57.25 -11.1 -57.25 -12.2 -47.65 -12.2 -47.65 -11.1 M-57.25 -16.15 L-57.25 -17.6 -45.5 -17.6 -46.4 -16.15 -57.25 -16.15" fill="#0d4803" fill-rule="evenodd" stroke="none"/>
      <path d="M14.7 -16.15 L14.7 -12.2 -26.65 -12.2 Q-27.0 -13.45 -26.4 -14.65 L-24.8 -16.15 14.7 -16.15 M-57.25 -12.2 L-57.25 -16.15 -46.4 -16.15 -47.25 -14.25 Q-47.65 -13.15 -47.65 -12.2 L-57.25 -12.2" fill="#950201" fill-rule="evenodd" stroke="none"/>
      <path d="M-39.25 -11.1 L-47.65 -11.1 -47.65 -12.2 -37.7 -12.2 -39.25 -11.1 M-45.5 -17.6 L-35.7 -17.6 -35.5 -16.15 -46.4 -16.15 -45.5 -17.6" fill="#237716" fill-rule="evenodd" stroke="none"/>
      <path d="M-47.65 -12.2 Q-47.65 -13.15 -47.25 -14.25 L-46.4 -16.15 -35.5 -16.15 -35.6 -15.5 Q-36.05 -13.65 -37.7 -12.2 L-47.65 -12.2" fill="#bc1817" fill-rule="evenodd" stroke="none"/>
      <path d="M-26.15 -11.1 L-39.25 -11.1 -37.7 -12.2 -26.65 -12.2 -26.15 -11.1 M-35.7 -17.6 L-22.15 -17.6 -24.8 -16.15 -35.5 -16.15 -35.7 -17.6" fill="#41a632" fill-rule="evenodd" stroke="none"/>
      <path d="M-24.8 -16.15 L-26.4 -14.65 Q-27.0 -13.45 -26.65 -12.2 L-37.7 -12.2 Q-36.05 -13.65 -35.6 -15.5 L-35.5 -16.15 -24.8 -16.15" fill="#fc4443" fill-rule="evenodd" stroke="none"/>
      <path d="M14.7 -12.2 L14.7 -16.15 14.7 -17.6 -22.15 -17.6 -35.7 -17.6 -45.5 -17.6 -57.25 -17.6 -57.25 -16.15 -57.25 -12.2 -57.25 -11.1 -47.65 -11.1 -39.25 -11.1 -26.15 -11.1 14.7 -11.1 14.7 -12.2 Z" fill="none" stroke="#000000" stroke-linecap="round" stroke-linejoin="round" stroke-opacity="0.3019608" stroke-width="0.30000000000000004"/>
      <path d="M12.9 -49.8 Q9.6 -51.85 5.8 -52.7 9.35 -52.95 9.05 -54.2 L11.25 -53.1 Q9.95 -51.75 12.9 -49.8" fill="#fc4443" fill-rule="evenodd" stroke="none"/>
      <path d="M5.8 -52.7 L3.95 -53.1 Q0.85 -51.8 1.0 -48.65 -1.15 -52.75 2.1 -56.2 5.95 -55.65 9.05 -54.2 9.35 -52.95 5.8 -52.7" fill="#bc1817" fill-rule="evenodd" stroke="none"/>
      <path d="M5.8 -52.7 Q6.55 -51.7 7.85 -50.9 4.85 -50.3 5.45 -47.35 L1.0 -48.65 Q0.85 -51.8 3.95 -53.1 L5.8 -52.7" fill="#720000" fill-rule="evenodd" stroke="none"/>
      <path d="M5.45 -47.35 Q4.85 -50.3 7.85 -50.9 10.2 -49.5 14.35 -48.75 L13.15 -49.6 13.05 -49.7 12.95 -49.75 12.9 -49.8 Q9.95 -51.75 11.25 -53.1 14.6 -51.2 17.05 -48.2 L17.3 -46.2 Q10.65 -46.25 5.45 -47.35 M14.35 -48.75 L17.3 -46.2 14.35 -48.75" fill="#950201" fill-rule="evenodd" stroke="none"/>
      <path d="M7.85 -50.9 Q6.55 -51.7 5.8 -52.7 L3.95 -53.1 M1.0 -48.65 L5.45 -47.35 Q10.65 -46.25 17.3 -46.2 L14.35 -48.75 13.15 -49.6 13.05 -49.7 12.95 -49.75 12.9 -49.8 Q9.6 -51.85 5.8 -52.7 M7.85 -50.9 Q10.2 -49.5 14.35 -48.75 M9.05 -54.2 Q5.95 -55.65 2.1 -56.2 -1.15 -52.75 1.0 -48.65 M11.25 -53.1 L9.05 -54.2 M11.25 -53.1 Q14.6 -51.2 17.05 -48.2 L17.3 -46.2" fill="none" stroke="#000000" stroke-linecap="round" stroke-linejoin="round" stroke-opacity="0.3019608" stroke-width="0.30000000000000004"/>
      <path d="M15.75 -60.25 L15.95 -58.65 17.3 -56.45 16.4 -54.8 15.5 -56.05 Q14.9 -56.8 14.7 -58.0 L15.75 -60.25 M25.05 -58.9 L25.6 -60.5 Q27.15 -63.05 29.25 -62.65 31.15 -62.35 32.15 -59.75 L31.05 -59.3 Q30.5 -61.05 29.05 -61.35 27.55 -61.7 26.55 -60.0 26.2 -59.25 26.3 -58.6 26.5 -57.55 28.1 -56.45 28.45 -56.25 28.95 -56.0 27.6 -55.35 25.9 -56.7 25.55 -57.05 25.25 -58.05 L25.05 -58.9 M25.05 -53.6 L24.0 -52.3 Q21.4 -52.05 19.45 -52.75 L21.3 -53.65 21.2 -53.85 21.55 -53.75 25.05 -53.6" fill="#bc1817" fill-rule="evenodd" stroke="none"/>
      <path d="M15.95 -58.65 L15.75 -60.25 Q17.45 -62.3 21.8 -61.55 L25.6 -60.5 25.05 -58.9 21.6 -59.85 Q17.8 -60.45 15.95 -58.65 M15.5 -56.05 L16.4 -54.8 15.05 -53.75 Q14.05 -51.2 17.95 -47.9 L19.35 -46.75 17.6 -47.35 Q16.3 -47.85 14.85 -49.35 12.85 -51.75 13.7 -54.35 14.0 -55.1 15.5 -56.05 M17.3 -56.45 L19.15 -56.9 23.75 -56.45 25.3 -55.65 25.6 -55.3 25.75 -54.35 Q25.6 -53.9 25.05 -53.6 23.2 -56.3 18.65 -55.4 L17.3 -56.45 M26.3 -58.6 Q26.2 -59.25 26.55 -60.0 29.9 -58.35 28.95 -56.0 28.45 -56.25 28.1 -56.45 27.9 -57.55 26.3 -58.6" fill="#720000" fill-rule="evenodd" stroke="none"/>
      <path d="M16.4 -54.8 L17.3 -56.45 18.65 -55.4 Q20.3 -54.2 21.2 -53.85 L21.3 -53.65 19.45 -52.75 Q17.65 -53.4 16.4 -54.8" fill="#fc4443" fill-rule="evenodd" stroke="none"/>
      <path d="M15.95 -58.65 L15.75 -60.25 14.7 -58.0 Q14.9 -56.8 15.5 -56.05 L16.4 -54.8 15.05 -53.75 Q14.05 -51.2 17.95 -47.9 L19.35 -46.75 17.6 -47.35 Q16.3 -47.85 14.85 -49.35 12.85 -51.75 13.7 -54.35 14.0 -55.1 15.5 -56.05 M17.3 -56.45 L15.95 -58.65 Q17.8 -60.45 21.6 -59.85 L25.05 -58.9 25.6 -60.5 21.8 -61.55 Q17.45 -62.3 15.75 -60.25 M17.3 -56.45 L19.15 -56.9 23.75 -56.45 25.3 -55.65 25.6 -55.3 25.75 -54.35 Q25.6 -53.9 25.05 -53.6 L24.0 -52.3 Q21.4 -52.05 19.45 -52.75 17.65 -53.4 16.4 -54.8 M18.65 -55.4 L17.3 -56.45 M28.1 -56.45 Q26.5 -57.55 26.3 -58.6 26.2 -59.25 26.55 -60.0 27.55 -61.7 29.05 -61.35 30.5 -61.05 31.05 -59.3 L32.15 -59.75 Q31.15 -62.35 29.25 -62.65 27.15 -63.05 25.6 -60.5 M25.05 -58.9 L25.25 -58.05 Q25.55 -57.05 25.9 -56.7 27.6 -55.35 28.95 -56.0 28.45 -56.25 28.1 -56.45 27.9 -57.55 26.3 -58.6 M26.55 -60.0 Q29.9 -58.35 28.95 -56.0 M25.05 -53.6 L21.55 -53.75 21.2 -53.85 Q20.3 -54.2 18.65 -55.4 23.2 -56.3 25.05 -53.6 Z" fill="none" stroke="#000000" stroke-linecap="round" stroke-linejoin="round" stroke-opacity="0.3019608" stroke-width="0.30000000000000004"/>
      <path d="M34.95 -50.3 L33.25 -49.0 31.15 -48.7 Q32.1 -50.45 29.0 -50.65 30.8 -51.35 31.95 -52.0 L34.25 -52.0 34.95 -50.3" fill="#720000" fill-rule="evenodd" stroke="none"/>
      <path d="M18.7 -50.9 Q20.35 -52.6 23.3 -53.65 31.35 -55.1 34.95 -53.65 36.85 -52.2 34.95 -50.3 L34.25 -52.0 31.95 -52.0 Q27.8 -51.8 24.1 -50.25 18.25 -48.7 18.7 -50.9" fill="#bc1817" fill-rule="evenodd" stroke="none"/>
      <path d="M31.15 -48.7 L18.35 -46.95 16.65 -46.1 Q16.8 -48.95 18.7 -50.9 18.25 -48.7 24.1 -50.25 22.15 -49.45 20.4 -48.3 25.8 -49.55 29.0 -50.65 32.1 -50.45 31.15 -48.7 M20.4 -48.3 Q19.3 -47.7 18.35 -46.95 19.3 -47.7 20.4 -48.3" fill="#950201" fill-rule="evenodd" stroke="none"/>
      <path d="M18.7 -50.9 Q20.35 -52.6 23.3 -53.65 31.35 -55.1 34.95 -53.65 36.85 -52.2 34.95 -50.3 L33.25 -49.0 31.15 -48.7 18.35 -46.95 16.65 -46.1 Q16.8 -48.95 18.7 -50.9 M24.1 -50.25 Q27.8 -51.8 31.95 -52.0 L34.25 -52.0 M31.95 -52.0 Q30.8 -51.35 29.0 -50.65 25.8 -49.55 20.4 -48.3 22.15 -49.45 24.1 -50.25 M18.35 -46.95 Q19.3 -47.7 20.4 -48.3" fill="none" stroke="#000000" stroke-linecap="round" stroke-linejoin="round" stroke-opacity="0.3019608" stroke-width="0.30000000000000004"/>
      <path d="M30.95 -47.55 L16.75 -29.75 2.6 -47.55 30.95 -47.55" fill="#237716" fill-rule="evenodd" stroke="none"/>
      <path d="M2.6 -47.55 L16.75 -29.75 30.95 -47.55 28.65 0.35 5.15 0.35 2.6 -47.55" fill="url(#decoration63-gradient2)" fill-rule="evenodd" stroke="none"/>
      <path d="M2.6 -47.55 L16.75 -29.75 30.95 -47.55 2.6 -47.55 5.15 0.35 28.65 0.35 30.95 -47.55" fill="none" stroke="#000000" stroke-linecap="round" stroke-linejoin="round" stroke-opacity="0.3019608" stroke-width="0.30000000000000004"/>
      <path d="M23.2 -34.25 L23.2 -31.7 10.85 -31.7 10.85 -34.25 23.2 -34.25" fill="#ffffff" fill-opacity="0.23921569" fill-rule="evenodd" stroke="none"/>
      <path d="M23.2 -34.25 L23.2 -31.7 10.85 -31.7 10.85 -34.25 23.2 -34.25 Z" fill="none" stroke="#000000" stroke-linecap="round" stroke-linejoin="round" stroke-opacity="0.3019608" stroke-width="0.30000000000000004"/>
      <path d="M6.15 -26.5 L6.15 -27.55 3.8 -27.55 5.5 -29.1 4.25 -29.1 5.4 -30.4 4.25 -30.4 6.45 -32.85 8.9 -30.4 7.65 -30.4 8.9 -29.1 7.65 -29.1 9.65 -27.55 7.35 -27.55 7.35 -26.5 6.15 -26.5" fill="#dad3cf" fill-rule="evenodd" stroke="none"/>
      <path d="M18.8 -18.6 L16.55 -18.6 16.55 -17.55 15.35 -17.55 15.35 -18.6 12.95 -18.6 14.7 -20.15 13.45 -20.15 14.6 -21.45 13.45 -21.45 15.6 -23.9 18.05 -21.45 16.8 -21.45 18.05 -20.15 16.8 -20.15 18.8 -18.6" fill="#dad3cf" fill-rule="evenodd" stroke="none"/>
      <path d="M25.2 -26.5 L25.2 -27.55 22.85 -27.55 24.55 -29.1 23.3 -29.1 24.45 -30.4 23.3 -30.4 25.5 -32.85 27.95 -30.4 26.7 -30.4 27.95 -29.1 26.7 -29.1 28.7 -27.55 26.4 -27.55 26.4 -26.5 25.2 -26.5" fill="#dad3cf" fill-rule="evenodd" stroke="none"/>
      <path d="M26.4 -8.2 L26.4 -7.2 25.2 -7.2 25.2 -8.2 22.85 -8.2 24.55 -9.8 23.3 -9.8 24.45 -11.1 23.3 -11.1 25.5 -13.55 27.95 -11.1 26.7 -11.1 27.95 -9.8 26.7 -9.8 28.7 -8.2 26.4 -8.2" fill="#dad3cf" fill-rule="evenodd" stroke="none"/>
      <path d="M9.85 -9.8 L8.6 -9.8 10.6 -8.2 8.35 -8.2 8.35 -7.2 7.15 -7.2 7.15 -8.2 4.75 -8.2 6.5 -9.8 5.25 -9.8 6.4 -11.1 5.25 -11.1 7.4 -13.55 9.85 -11.1 8.6 -11.1 9.85 -9.8" fill="#dad3cf" fill-rule="evenodd" stroke="none"/>
      <path d="M13.35 -2.25 L15.05 -3.85 13.8 -3.85 14.95 -5.15 13.8 -5.15 16.0 -7.6 18.45 -5.15 17.2 -5.15 18.45 -3.85 17.2 -3.85 19.2 -2.25 16.9 -2.25 16.9 -1.25 15.7 -1.25 15.7 -2.25 13.35 -2.25" fill="#dad3cf" fill-rule="evenodd" stroke="none"/>
      <path d="M13.05 -40.4 L14.8 -42.0 13.55 -42.0 14.7 -43.3 13.55 -43.3 15.7 -45.75 18.15 -43.3 16.9 -43.3 18.15 -42.0 16.9 -42.0 18.9 -40.4 16.65 -40.4 16.65 -39.4 15.45 -39.4 15.45 -40.4 13.05 -40.4" fill="#dad3cf" fill-rule="evenodd" stroke="none"/>
      <path d="M20.1 -47.75 L20.1 -21.45 29.6 -21.45 29.6 -19.3 20.2 -19.3 20.2 -0.1 16.65 -0.1 16.65 -19.3 4.15 -19.3 4.15 -22.1 16.85 -22.1 16.85 -47.75 20.1 -47.75" fill="#000000" fill-opacity="0.32941177" fill-rule="evenodd" stroke="none"/>
      <path d="M18.65 -42.45 Q17.35 -45.65 15.0 -42.45 L15.0 -47.65 18.65 -47.65 18.65 -42.45 M18.65 -14.65 L18.65 -6.3 Q17.8 -7.75 16.9 -7.9 16.0 -8.05 15.0 -6.2 L15.0 -15.15 Q16.45 -20.3 17.4 -18.8 18.25 -17.45 18.65 -14.65" fill="#950000" fill-rule="evenodd" stroke="none"/>
      <path d="M18.65 -37.25 Q17.7 -38.35 16.65 -38.15 15.9 -38.05 15.0 -37.35 L15.0 -42.45 Q17.35 -45.65 18.65 -42.45 L18.65 -37.25 M18.65 -6.3 L18.65 0.4 15.0 0.4 15.0 -6.2 Q16.0 -8.05 16.9 -7.9 17.8 -7.75 18.65 -6.3" fill="#a60d0c" fill-rule="evenodd" stroke="none"/>
      <path d="M15.0 -37.35 Q15.9 -38.05 16.65 -38.15 17.7 -38.35 18.65 -37.25 L18.65 -26.2 Q17.4 -22.5 16.6 -23.05 15.65 -23.65 15.0 -26.4 L15.0 -37.35" fill="#bc1817" fill-rule="evenodd" stroke="none"/>
      <path d="M15.0 -26.4 Q15.65 -23.65 16.6 -23.05 17.4 -22.5 18.65 -26.2 L18.65 -14.65 Q18.25 -17.45 17.4 -18.8 16.45 -20.3 15.0 -15.15 L15.0 -26.4" fill="#fc4443" fill-rule="evenodd" stroke="none"/>
      <path d="M18.65 -37.25 L18.65 -42.45 18.65 -47.65 15.0 -47.65 15.0 -42.45 15.0 -37.35 15.0 -26.4 15.0 -15.15 15.0 -6.2 15.0 0.4 18.65 0.4 18.65 -6.3 18.65 -14.65 18.65 -26.2 18.65 -37.25 Z" fill="none" stroke="#000000" stroke-linecap="round" stroke-linejoin="round" stroke-opacity="0.3019608" stroke-width="0.30000000000000004"/>
      <path d="M15.25 -22.95 Q17.25 -21.9 16.95 -21.25 16.65 -20.5 15.1 -20.0 L9.15 -20.0 Q8.8 -20.65 8.75 -21.25 8.65 -22.15 9.2 -22.95 L15.25 -22.95" fill="#bc1817" fill-rule="evenodd" stroke="none"/>
      <path d="M15.1 -20.0 Q16.65 -20.5 16.95 -21.25 17.25 -21.9 15.25 -22.95 L21.5 -22.95 Q20.0 -22.6 19.25 -21.9 18.45 -21.15 21.2 -20.0 L15.1 -20.0" fill="#fc4443" fill-rule="evenodd" stroke="none"/>
      <path d="M9.2 -22.95 Q8.65 -22.15 8.75 -21.25 8.8 -20.65 9.15 -20.0 L6.45 -20.0 Q4.65 -21.9 6.45 -22.95 L9.2 -22.95 M26.05 -22.95 L29.65 -22.95 29.65 -20.0 26.1 -20.0 Q25.05 -20.75 25.15 -21.5 25.25 -22.25 26.05 -22.95" fill="#a60d0c" fill-rule="evenodd" stroke="none"/>
      <path d="M21.2 -20.0 Q18.45 -21.15 19.25 -21.9 20.0 -22.6 21.5 -22.95 L26.05 -22.95 Q25.25 -22.25 25.15 -21.5 25.05 -20.75 26.1 -20.0 L21.2 -20.0 M6.45 -20.0 L3.6 -20.0 3.6 -22.95 6.45 -22.95 Q4.65 -21.9 6.45 -20.0" fill="#950000" fill-rule="evenodd" stroke="none"/>
      <path d="M15.25 -22.95 L9.2 -22.95 6.45 -22.95 3.6 -22.95 3.6 -20.0 6.45 -20.0 9.15 -20.0 15.1 -20.0 21.2 -20.0 26.1 -20.0 29.65 -20.0 29.65 -22.95 26.05 -22.95 21.5 -22.95 15.25 -22.95 Z" fill="none" stroke="#000000" stroke-linecap="round" stroke-linejoin="round" stroke-opacity="0.3019608" stroke-width="0.30000000000000004"/>
      <path d="M-12.05 -19.65 L-12.45 -25.3 12.15 -25.3 11.75 -19.65 -12.05 -19.65" fill="url(#decoration63-gradient3)" fill-rule="evenodd" stroke="none"/>
      <path d="M11.75 -19.65 L11.6 -17.35 -11.9 -17.75 -12.05 -19.65 11.75 -19.65" fill="#0e4583" fill-rule="evenodd" stroke="none"/>
      <path d="M11.6 -17.35 L10.3 0.45 -10.75 0.45 -11.9 -17.75 11.6 -17.35" fill="url(#decoration63-gradient4)" fill-rule="evenodd" stroke="none"/>
      <path d="M11.75 -19.65 L11.6 -17.35 10.3 0.45 -10.75 0.45 -11.9 -17.75 -12.05 -19.65 -12.45 -25.3 12.15 -25.3 11.75 -19.65 -12.05 -19.65" fill="none" stroke="#000000" stroke-linecap="round" stroke-linejoin="round" stroke-opacity="0.3019608" stroke-width="0.30000000000000004"/>
      <path d="M-8.5 -13.65 L-9.9 -12.45 -9.9 -14.25 -11.05 -14.85 -9.8 -15.55 -9.15 -16.9 -8.1 -15.8 -6.65 -15.8 -7.75 -14.6 -6.85 -13.0 -8.5 -13.65" fill="#fcc200" fill-rule="evenodd" stroke="none"/>
      <path d="M-9.1 -6.25 L-7.6 -6.25 -6.6 -7.35 -5.95 -6.0 -4.7 -5.3 -5.85 -4.7 -5.85 -2.9 -7.25 -4.1 -8.85 -3.45 -8.0 -5.05 -9.1 -6.25" fill="#fcc200" fill-rule="evenodd" stroke="none"/>
      <path d="M-3.75 -12.05 L-3.35 -11.15 -2.55 -10.7 -3.3 -10.35 -3.3 -9.2 -4.2 -9.95 -5.25 -9.5 -4.7 -10.55 -5.45 -11.35 -4.45 -11.35 -3.75 -12.05" fill="#fcc200" fill-rule="evenodd" stroke="none"/>
      <path d="M8.1 -16.05 L8.9 -15.55 8.15 -15.2 8.15 -14.05 7.25 -14.85 6.2 -14.35 6.75 -15.45 6.0 -16.2 7.0 -16.2 7.7 -16.9 8.1 -16.05" fill="#fcc200" fill-rule="evenodd" stroke="none"/>
      <path d="M0.6 -23.1 L1.4 -22.6 0.65 -22.25 0.65 -21.1 -0.25 -21.9 -1.3 -21.4 -0.75 -22.5 -1.5 -23.25 -0.5 -23.25 0.2 -23.95 0.6 -23.1" fill="#fcc200" fill-rule="evenodd" stroke="none"/>
      <path d="M-9.4 -23.25 L-8.7 -23.95 -8.3 -23.1 -7.5 -22.6 -8.25 -22.25 -8.25 -21.1 -9.15 -21.9 -10.2 -21.4 -9.65 -22.5 -10.4 -23.25 -9.4 -23.25" fill="#fcc200" fill-rule="evenodd" stroke="none"/>
      <path d="M3.35 -4.95 L5.25 -5.45 6.6 -7.1 7.55 -5.25 9.5 -4.7 7.6 -3.45 8.2 -0.95 6.3 -2.5 4.0 -1.4 4.65 -3.7 3.35 -4.95" fill="#fcc200" fill-rule="evenodd" stroke="none"/>
      <path d="M3.0 -6.95 L3.4 -6.2 Q3.05 -6.35 2.65 -6.55 L2.0 -6.0 2.0 -6.75 1.5 -7.05 2.05 -7.35 2.3 -8.0 2.8 -7.5 3.5 -7.5 3.0 -6.95" fill="#fcc200" fill-rule="evenodd" stroke="none"/>
      <path d="M11.5 -23.55 L11.0 -23.25 11.0 -22.5 10.35 -23.05 9.6 -22.7 9.95 -23.45 9.45 -24.0 10.15 -24.0 10.65 -24.5 10.95 -23.85 11.5 -23.55" fill="#fcc200" fill-rule="evenodd" stroke="none"/>
      <path d="M8.7 -10.45 L5.85 -6.25 Q7.95 -14.0 4.9 -18.45 4.2 -9.7 4.2 0.35 L1.55 0.35 0.95 -24.85 Q3.0 -26.45 5.5 -24.85 L10.45 -15.05 10.75 -5.8 8.7 -10.45 M-11.5 -13.45 L-11.65 -17.1 -7.35 -21.45 -4.45 -25.2 -1.7 -25.2 Q-6.8 -17.0 -9.45 -9.8 L-9.9 -15.5 -11.5 -13.45" fill="#000000" fill-opacity="0.32941177" fill-rule="evenodd" stroke="none"/>
      <path d="M2.7 -26.35 L7.3 -25.2 8.35 -23.65 Q6.1 -23.25 5.75 -22.55 5.35 -21.9 5.3 -20.8 L2.7 -26.35" fill="#a66400" fill-rule="evenodd" stroke="none"/>
      <path d="M11.45 -15.65 L11.55 -14.4 11.5 -13.2 9.15 -13.15 Q7.95 -12.75 7.25 -11.4 L7.2 -14.3 8.85 -14.45 10.1 -14.9 11.45 -15.65" fill="#ffe841" fill-rule="evenodd" stroke="none"/>
      <path d="M10.25 -19.5 L11.45 -15.65 10.1 -14.9 8.85 -14.45 7.2 -14.3 6.95 -15.95 Q6.8 -17.65 7.85 -18.65 8.75 -19.5 10.25 -19.5 M11.5 -13.2 Q11.55 -11.9 11.1 -10.45 L10.2 -7.9 9.05 -10.45 6.65 -8.2 Q7.2 -9.75 7.25 -11.4 7.95 -12.75 9.15 -13.15 L11.5 -13.2" fill="#fcc200" fill-rule="evenodd" stroke="none"/>
      <path d="M8.35 -23.65 L10.25 -19.5 Q8.75 -19.5 7.85 -18.65 6.8 -17.65 6.95 -15.95 6.4 -18.35 5.3 -20.8 5.35 -21.9 5.75 -22.55 6.1 -23.25 8.35 -23.65" fill="#cb8600" fill-rule="evenodd" stroke="none"/>
      <path d="M7.3 -25.2 L8.35 -23.65 10.25 -19.5 11.45 -15.65 11.55 -14.4 11.5 -13.2 Q11.55 -11.9 11.1 -10.45 L10.2 -7.9 9.05 -10.45 6.65 -8.2 Q7.2 -9.75 7.25 -11.4 L7.2 -14.3 6.95 -15.95 Q6.4 -18.35 5.3 -20.8 L2.7 -26.35" fill="none" stroke="#000000" stroke-linecap="round" stroke-linejoin="round" stroke-opacity="0.3019608" stroke-width="0.30000000000000004"/>
      <path d="M-5.8 -24.4 L-5.1 -24.95 -4.3 -25.1 -3.85 -25.1 -2.1 -25.4 -2.0 -25.25 -4.65 -22.1 Q-4.3 -23.3 -4.85 -23.85 L-5.8 -24.4" fill="#a66400" fill-rule="evenodd" stroke="none"/>
      <path d="M-4.65 -22.1 L-6.8 -18.85 -6.75 -19.35 Q-5.8 -23.45 -7.8 -22.7 L-5.8 -24.4 -4.85 -23.85 Q-4.3 -23.3 -4.65 -22.1" fill="#cb8600" fill-rule="evenodd" stroke="none"/>
      <path d="M-6.8 -18.85 L-7.85 -17.0 Q-8.05 -18.2 -8.65 -18.85 -9.3 -19.7 -10.45 -19.8 L-8.8 -21.7 Q-8.7 -20.6 -7.95 -19.9 -7.45 -19.5 -6.75 -19.35 L-6.8 -18.85" fill="#ffe841" fill-rule="evenodd" stroke="none"/>
      <path d="M-7.85 -17.0 L-9.25 -12.9 -9.9 -17.05 -13.1 -15.3 -10.45 -19.8 Q-9.3 -19.7 -8.65 -18.85 -8.05 -18.2 -7.85 -17.0 M-8.8 -21.7 L-7.8 -22.7 Q-5.8 -23.45 -6.75 -19.35 -7.45 -19.5 -7.95 -19.9 -8.7 -20.6 -8.8 -21.7" fill="#fcc200" fill-rule="evenodd" stroke="none"/>
      <path d="M-2.0 -25.25 L-4.65 -22.1 -6.8 -18.85 -7.85 -17.0 -9.25 -12.9 -9.9 -17.05 -13.1 -15.3 -10.45 -19.8 -8.8 -21.7 -7.8 -22.7 -5.8 -24.4" fill="none" stroke="#000000" stroke-linecap="round" stroke-linejoin="round" stroke-opacity="0.3019608" stroke-width="0.30000000000000004"/>
      <path d="M2.75 -15.65 L2.7 -8.85 Q0.55 -11.65 -2.35 -7.4 L-3.0 -14.8 Q0.05 -11.2 2.75 -15.65" fill="#ffe841" fill-rule="evenodd" stroke="none"/>
      <path d="M-3.65 -22.3 L2.75 -22.6 2.75 -15.65 Q0.05 -11.2 -3.0 -14.8 L-3.65 -22.3" fill="#fcc200" fill-rule="evenodd" stroke="none"/>
      <path d="M2.7 -8.85 L2.7 -8.05 Q0.4 -10.95 -2.3 -6.25 L-2.35 -7.4 Q0.55 -11.65 2.7 -8.85" fill="#a66400" fill-rule="evenodd" stroke="none"/>
      <path d="M3.0 -25.75 L2.8 -25.7 2.75 -22.6 -3.65 -22.3 -4.0 -25.75 -4.05 -25.95 -2.2 -25.95 -2.2 -25.75 3.0 -25.75 M2.7 -8.05 L2.6 0.35 -1.7 0.35 -2.3 -6.25 Q0.4 -10.95 2.7 -8.05" fill="#cb8600" fill-rule="evenodd" stroke="none"/>
      <path d="M2.75 -22.6 L2.8 -25.7 3.0 -25.75 M-2.2 -25.95 L-4.05 -25.95 -4.0 -25.75 -3.65 -22.3 -3.0 -14.8 -2.35 -7.4 -2.3 -6.25 -1.7 0.35 2.6 0.35 2.7 -8.05 2.7 -8.85 2.75 -15.65 2.75 -22.6 M-7.9 -25.9 L-7.05 -26.35 -6.25 -26.25 -5.8 -26.15 -4.05 -25.95" fill="none" stroke="#000000" stroke-linecap="round" stroke-linejoin="round" stroke-opacity="0.3019608" stroke-width="0.30000000000000004"/>
      <path d="M-16.6 -30.65 Q-14.5 -32.25 -11.05 -31.75 -10.1 -31.85 -8.45 -31.15 L-7.05 -29.4 Q-10.6 -30.25 -12.6 -28.85 -13.45 -28.3 -13.95 -27.3 -15.05 -27.95 -15.7 -28.85 -16.35 -29.65 -16.6 -30.65 M-0.95 -29.25 L-0.3 -27.65 -0.1 -27.1 -0.5 -25.4 -3.75 -25.4 -5.5 -25.55 -4.4 -25.9 -4.2 -26.0 -3.85 -26.15 Q-3.05 -26.4 -3.45 -26.75 L-2.2 -26.15 -0.5 -25.4 -1.6 -26.7 -2.85 -27.9 -1.65 -28.1 Q-1.1 -28.4 -0.95 -29.25" fill="#a66400" fill-rule="evenodd" stroke="none"/>
      <path d="M-13.95 -27.3 Q-13.45 -28.3 -12.6 -28.85 -10.6 -30.25 -7.05 -29.4 L-6.45 -28.85 Q-5.2 -27.65 -3.45 -26.75 -3.05 -26.4 -3.85 -26.15 L-4.2 -26.0 -4.4 -25.9 -5.5 -25.55 -5.9 -25.75 -6.7 -25.8 Q-11.45 -25.8 -13.95 -27.3 M-3.05 -33.35 L-2.5 -32.5 -0.95 -29.25 Q-1.1 -28.4 -1.65 -28.1 L-2.85 -27.9 -4.1 -28.85 -7.9 -30.95 -8.45 -31.15 -7.6 -31.1 Q-3.45 -31.15 -3.05 -33.35" fill="#cb8600" fill-rule="evenodd" stroke="none"/>
      <path d="M-11.05 -31.75 Q-14.5 -32.25 -16.6 -30.65 -15.9 -36.55 -8.45 -38.3 -8.45 -36.55 -8.95 -35.05 -9.55 -33.2 -11.05 -31.75 M-3.85 -34.5 L-3.05 -33.35 Q-3.45 -31.15 -7.6 -31.1 -7.4 -32.7 -6.7 -33.5 -5.65 -34.55 -3.85 -34.5" fill="#fcc200" fill-rule="evenodd" stroke="none"/>
      <path d="M-8.45 -31.15 Q-10.1 -31.85 -11.05 -31.75 -9.55 -33.2 -8.95 -35.05 -8.45 -36.55 -8.45 -38.3 -5.9 -37.2 -3.85 -34.5 -5.65 -34.55 -6.7 -33.5 -7.4 -32.7 -7.6 -31.1 L-8.45 -31.15" fill="#ffe841" fill-rule="evenodd" stroke="none"/>
      <path d="M-16.6 -30.65 Q-16.35 -29.65 -15.7 -28.85 -15.05 -27.95 -13.95 -27.3 -11.45 -25.8 -6.7 -25.8 M-7.05 -29.4 L-8.45 -31.15 Q-10.1 -31.85 -11.05 -31.75 M-8.45 -38.3 Q-15.9 -36.55 -16.6 -30.65 M-3.85 -34.5 L-3.05 -33.35 -2.5 -32.5 -0.95 -29.25 -0.3 -27.65 -0.1 -27.1 M-2.85 -27.9 L-4.1 -28.85 -7.9 -30.95 -8.45 -31.15 M-3.85 -34.5 Q-5.9 -37.2 -8.45 -38.3 M-3.45 -26.75 Q-5.2 -27.65 -6.45 -28.85 L-7.05 -29.4 M-2.85 -27.9 L-1.6 -26.7 -0.5 -25.4 -2.2 -26.15 -3.45 -26.75" fill="none" stroke="#000000" stroke-linecap="round" stroke-linejoin="round" stroke-opacity="0.3019608" stroke-width="0.30000000000000004"/>
      <path d="M7.7 -30.95 L9.1 -32.7 Q9.9 -33.1 11.5 -32.7 13.0 -32.55 15.4 -31.15 15.1 -27.2 9.65 -26.15 12.05 -27.95 11.45 -29.55 L11.35 -29.7 Q10.2 -30.95 7.7 -30.95 M0.6 -29.25 Q0.6 -28.6 1.3 -28.6 L3.2 -29.0 1.45 -27.45 2.1 -27.65 Q1.65 -26.85 2.35 -26.35 L3.5 -25.9 5.45 -25.75 4.8 -25.65 3.65 -25.35 2.95 -25.2 2.75 -25.4 -0.5 -25.4 -0.1 -27.1 0.05 -27.65 0.6 -29.25 M1.45 -27.45 L0.9 -27.0 -0.5 -25.4 0.9 -27.0 1.45 -27.45" fill="#a66400" fill-rule="evenodd" stroke="none"/>
      <path d="M15.4 -31.15 Q13.0 -32.55 11.5 -32.7 L10.55 -34.5 Q9.2 -37.5 11.05 -37.25 14.2 -35.95 15.4 -31.15 M5.3 -37.8 Q7.85 -36.65 8.7 -34.4 L9.1 -32.7 7.45 -31.85 Q1.65 -31.35 2.7 -33.65 3.75 -35.7 5.3 -37.8" fill="#fcc200" fill-rule="evenodd" stroke="none"/>
      <path d="M11.5 -32.7 Q9.9 -33.1 9.1 -32.7 L8.7 -34.4 Q7.85 -36.65 5.3 -37.8 8.65 -38.25 11.05 -37.25 9.2 -37.5 10.55 -34.5 L11.5 -32.7" fill="#ffe841" fill-rule="evenodd" stroke="none"/>
      <path d="M7.7 -30.95 Q10.2 -30.95 11.35 -29.7 L11.45 -29.55 Q12.05 -27.95 9.65 -26.15 L5.5 -25.75 5.45 -25.75 3.5 -25.9 2.35 -26.35 Q1.65 -26.85 2.1 -27.65 5.65 -28.9 7.7 -30.95 M2.7 -33.65 Q1.65 -31.35 7.45 -31.85 5.15 -30.7 3.2 -29.0 L1.3 -28.6 Q0.6 -28.6 0.6 -29.25 1.4 -31.4 2.7 -33.65 M-0.5 -25.4 L2.75 -25.4 2.95 -25.2 -2.0 -25.2 -2.0 -25.4 -0.5 -25.4" fill="#cb8600" fill-rule="evenodd" stroke="none"/>
      <path d="M9.1 -32.7 L7.7 -30.95 Q5.65 -28.9 2.1 -27.65 L1.45 -27.45 3.2 -29.0 Q5.15 -30.7 7.45 -31.85 L9.1 -32.7 Q9.9 -33.1 11.5 -32.7 M9.65 -26.15 Q15.1 -27.2 15.4 -31.15 14.2 -35.95 11.05 -37.25 8.65 -38.25 5.3 -37.8 3.75 -35.7 2.7 -33.65 1.4 -31.4 0.6 -29.25 L0.05 -27.65 -0.1 -27.1 -0.5 -25.4 0.9 -27.0 1.45 -27.45 M2.95 -25.2 L3.65 -25.35 4.8 -25.65 5.45 -25.75 5.5 -25.75 9.65 -26.15 M-0.5 -25.4 L2.75 -25.4 2.95 -25.2 M-2.0 -25.4 L-0.5 -25.4" fill="none" stroke="#000000" stroke-linecap="round" stroke-linejoin="round" stroke-opacity="0.3019608" stroke-width="0.30000000000000004"/>
      <path d="M-31.55 -10.25 L-15.35 -10.25 -15.5 -9.05 -31.45 -9.25 -31.55 -10.25" fill="#933000" fill-rule="evenodd" stroke="none"/>
      <path d="M-31.45 -9.25 L-15.5 -9.05 -16.35 0.35 -30.65 0.35 -31.45 -9.25" fill="url(#decoration63-gradient5)" fill-rule="evenodd" stroke="none"/>
      <path d="M-15.35 -10.25 L-31.55 -10.25 -31.75 -13.2 -15.1 -13.2 -15.35 -10.25" fill="url(#decoration63-gradient6)" fill-rule="evenodd" stroke="none"/>
      <path d="M-31.55 -10.25 L-15.35 -10.25 -15.1 -13.2 -31.75 -13.2 -31.55 -10.25 -31.45 -9.25 -30.65 0.35 -16.35 0.35 -15.5 -9.05 -15.35 -10.25" fill="none" stroke="#000000" stroke-linecap="round" stroke-linejoin="round" stroke-opacity="0.3019608" stroke-width="0.30000000000000004"/>
      <path d="M-23.15 -13.1 L-19.7 -13.1 -15.85 -7.8 -16.25 -2.75 Q-17.8 -7.2 -20.15 -9.65 -20.7 -4.85 -20.7 0.65 L-22.7 0.65 -23.15 -13.1 M-27.3 -13.35 L-25.2 -13.35 Q-29.1 -8.85 -31.15 -4.9 L-31.6 -9.35 -27.3 -13.35" fill="#000000" fill-opacity="0.32941177" fill-rule="evenodd" stroke="none"/>
      <path d="M-30.9 -16.8 Q-29.85 -17.6 -29.45 -18.65 -29.1 -19.45 -29.1 -20.45 -27.4 -19.8 -25.95 -18.3 -27.25 -18.3 -27.9 -17.7 -28.45 -17.25 -28.55 -16.4 L-29.1 -16.4 -30.9 -16.8 M-29.85 -10.3 L-30.0 -10.05 -31.0 -9.1 Q-30.95 -9.8 -31.15 -10.35 L-32.15 -11.15 -30.8 -12.05 Q-31.0 -11.35 -30.55 -10.85 L-29.85 -10.3 M-19.8 -20.2 L-15.85 -19.85 Q-17.1 -20.0 -16.15 -18.3 L-15.55 -17.25 Q-16.65 -17.5 -17.2 -17.25 L-17.45 -18.2 Q-18.05 -19.5 -19.8 -20.2 M-21.55 -7.85 L-21.6 -4.35 Q-22.95 -5.75 -24.9 -3.6 L-25.25 -7.4 Q-23.35 -5.6 -21.55 -7.85" fill="#ffe841" fill-rule="evenodd" stroke="none"/>
      <path d="M-29.1 -20.45 Q-29.1 -19.45 -29.45 -18.65 -29.85 -17.6 -30.9 -16.8 -33.3 -17.05 -34.7 -16.15 -34.15 -19.4 -29.1 -20.45 M-28.55 -16.4 Q-28.45 -17.25 -27.9 -17.7 -27.25 -18.3 -25.95 -18.3 L-25.45 -17.65 Q-25.7 -16.4 -28.55 -16.4 M-30.0 -12.5 Q-28.55 -12.6 -29.85 -10.3 L-30.55 -10.85 Q-31.0 -11.35 -30.8 -12.05 L-30.0 -12.5 M-21.55 -17.85 L-19.8 -20.2 Q-18.05 -19.5 -17.45 -18.2 L-17.2 -17.25 -18.3 -16.8 Q-22.2 -16.5 -21.55 -17.85 M-15.85 -19.85 Q-13.75 -19.15 -12.95 -16.4 -14.5 -17.25 -15.55 -17.25 L-16.15 -18.3 Q-17.1 -20.0 -15.85 -19.85 M-21.5 -11.5 L-21.55 -7.85 Q-23.35 -5.6 -25.25 -7.4 L-25.75 -11.25 -21.5 -11.5 M-32.15 -11.15 L-31.15 -10.35 Q-30.95 -9.8 -31.0 -9.1 L-32.55 -6.85 -32.25 -9.45 -34.55 -8.9 -32.15 -11.15" fill="#fcc200" fill-rule="evenodd" stroke="none"/>
      <path d="M-30.9 -16.8 L-29.1 -16.4 -28.15 -15.5 Q-31.6 -16.15 -32.9 -14.25 -34.25 -14.95 -34.7 -16.15 -33.3 -17.05 -30.9 -16.8 M-25.7 -13.95 L-24.85 -13.6 -23.75 -13.2 -24.5 -13.9 -25.3 -14.6 -24.55 -14.7 Q-24.1 -14.9 -24.0 -15.35 L-23.55 -14.45 -23.4 -14.2 -23.35 -14.45 -22.95 -15.4 Q-22.95 -15.0 -22.55 -15.0 L-21.25 -15.25 -22.45 -14.3 -21.95 -14.45 Q-22.2 -14.0 -21.75 -13.75 L-21.0 -13.5 -20.1 -13.35 -20.85 -13.15 -21.35 -13.05 -21.45 -13.2 -23.75 -13.2 -22.75 -14.1 -22.45 -14.3 -22.75 -14.1 -23.75 -13.2 -23.4 -14.2 -23.75 -13.2 -25.95 -13.2 -25.9 -13.1 -28.1 -11.65 Q-27.7 -12.35 -27.9 -12.75 L-28.45 -13.2 -27.9 -13.4 -27.4 -13.35 -27.15 -13.3 -26.4 -13.5 -26.25 -13.55 -25.95 -13.6 Q-25.45 -13.8 -25.7 -13.95 M-27.15 -13.3 L-25.95 -13.2 -27.15 -13.3 M-12.95 -16.4 Q-13.15 -14.25 -16.8 -13.6 -15.2 -14.65 -15.65 -15.55 L-15.7 -15.6 Q-16.45 -16.35 -18.15 -16.35 L-17.2 -17.25 Q-16.65 -17.5 -15.55 -17.25 -14.5 -17.25 -12.95 -16.4 M-21.6 -4.35 L-21.6 -3.95 Q-23.05 -5.4 -24.8 -3.0 L-24.9 -3.6 Q-22.95 -5.75 -21.6 -4.35" fill="#a66400" fill-rule="evenodd" stroke="none"/>
      <path d="M-29.1 -16.4 L-28.55 -16.4 Q-25.7 -16.4 -25.45 -17.65 -24.65 -16.7 -24.0 -15.35 -24.1 -14.9 -24.55 -14.7 L-25.3 -14.6 Q-26.85 -15.6 -28.75 -16.3 L-29.1 -16.4 M-28.15 -15.5 Q-27.2 -14.65 -25.7 -13.95 -25.45 -13.8 -25.95 -13.6 L-26.25 -13.55 -26.4 -13.5 -27.15 -13.3 -27.4 -13.35 -27.9 -13.4 Q-31.15 -13.45 -32.9 -14.25 -31.6 -16.15 -28.15 -15.5 M-28.45 -13.2 L-27.9 -12.75 Q-27.7 -12.35 -28.1 -11.65 L-30.0 -10.05 -29.85 -10.3 Q-28.55 -12.6 -30.0 -12.5 L-28.45 -13.2 M-25.9 -13.1 L-25.95 -13.2 -23.75 -13.2 -21.45 -13.2 -21.35 -13.05 -21.45 -13.0 -21.5 -11.5 -25.75 -11.25 -25.9 -13.1 M-22.95 -15.4 L-21.55 -17.85 Q-22.2 -16.5 -18.3 -16.8 -19.9 -16.2 -21.25 -15.25 L-22.55 -15.0 Q-22.95 -15.0 -22.95 -15.4 M-16.8 -13.6 L-19.6 -13.35 -19.85 -13.35 -20.1 -13.35 -21.0 -13.5 -21.75 -13.75 Q-22.2 -14.0 -21.95 -14.45 -19.5 -15.15 -18.15 -16.35 -16.45 -16.35 -15.7 -15.6 L-15.65 -15.55 Q-15.2 -14.65 -16.8 -13.6 M-21.6 -3.95 L-21.65 0.45 -24.45 0.45 -24.8 -3.0 Q-23.05 -5.4 -21.6 -3.95" fill="#cb8600" fill-rule="evenodd" stroke="none"/>
      <path d="M-30.9 -16.8 L-29.1 -16.4 -28.15 -15.5 Q-27.2 -14.65 -25.7 -13.95 L-24.85 -13.6 -23.75 -13.2 -24.5 -13.9 -25.3 -14.6 Q-26.85 -15.6 -28.75 -16.3 L-29.1 -16.4 M-25.95 -18.3 Q-27.4 -19.8 -29.1 -20.45 -34.15 -19.4 -34.7 -16.15 -34.25 -14.95 -32.9 -14.25 -31.15 -13.45 -27.9 -13.4 L-28.45 -13.2 -30.0 -12.5 -30.8 -12.05 -32.15 -11.15 -34.55 -8.9 -32.25 -9.45 -32.55 -6.85 -31.0 -9.1 -30.0 -10.05 -28.1 -11.65 -25.9 -13.1 -25.95 -13.2 -27.15 -13.3 -27.4 -13.35 -27.9 -13.4 M-25.45 -17.65 L-25.95 -18.3 M-24.0 -15.35 Q-24.65 -16.7 -25.45 -17.65 M-24.0 -15.35 L-23.55 -14.45 -23.4 -14.2 -23.35 -14.45 -22.95 -15.4 -21.55 -17.85 -19.8 -20.2 -15.85 -19.85 Q-13.75 -19.15 -12.95 -16.4 -13.15 -14.25 -16.8 -13.6 L-19.6 -13.35 -19.85 -13.35 -20.1 -13.35 -20.85 -13.15 -21.35 -13.05 -21.45 -13.0 -21.5 -11.5 -21.55 -7.85 -21.6 -4.35 -21.6 -3.95 -21.65 0.45 -24.45 0.45 -24.8 -3.0 -24.9 -3.6 -25.25 -7.4 -25.75 -11.25 -25.9 -13.1 M-23.75 -13.2 L-23.4 -14.2 M-22.45 -14.3 L-22.75 -14.1 -23.75 -13.2 -21.45 -13.2 -21.35 -13.05 M-21.95 -14.45 L-22.45 -14.3 -21.25 -15.25 Q-19.9 -16.2 -18.3 -16.8 L-17.2 -17.25 Q-16.65 -17.5 -15.55 -17.25 M-21.95 -14.45 Q-19.5 -15.15 -18.15 -16.35 L-17.2 -17.25 M-23.75 -13.2 L-25.95 -13.2" fill="none" stroke="#000000" stroke-linecap="round" stroke-linejoin="round" stroke-opacity="0.3019608" stroke-width="0.30000000000000004"/>
      <path d="M-16.55 -6.5 Q-16.1 -6.5 -15.55 -6.85 L-14.85 -7.3 -14.15 -8.0 -13.85 -7.25 -13.7 -6.5 -15.15 -6.1 Q-15.8 -5.7 -16.05 -4.75 L-16.55 -6.5" fill="#ffe841" fill-rule="evenodd" stroke="none"/>
      <path d="M-14.15 -8.0 L-14.85 -7.3 -15.55 -6.85 Q-16.1 -6.5 -16.55 -6.5 L-17.0 -7.4 Q-17.4 -8.45 -16.95 -9.2 -16.5 -9.9 -15.55 -10.15 L-14.15 -8.0 M-16.05 -4.75 Q-15.8 -5.7 -15.15 -6.1 L-13.7 -6.5 Q-13.45 -5.75 -13.45 -4.75 L-13.6 -3.15 -14.8 -4.45 -15.85 -2.75 Q-15.8 -3.75 -16.05 -4.75" fill="#fcc200" fill-rule="evenodd" stroke="none"/>
      <path d="M-15.55 -10.15 Q-16.5 -9.9 -16.95 -9.2 -17.4 -8.45 -17.0 -7.4 -17.75 -8.8 -18.85 -10.1 L-18.9 -11.2 Q-18.75 -11.7 -17.4 -12.3 L-15.55 -10.15" fill="#cb8600" fill-rule="evenodd" stroke="none"/>
      <path d="M-17.4 -12.3 Q-18.75 -11.7 -18.9 -11.2 L-18.85 -10.1 -21.45 -13.0 -18.35 -13.05 -17.4 -12.3" fill="#a66400" fill-rule="evenodd" stroke="none"/>
      <path d="M-16.55 -6.5 L-16.05 -4.75 Q-15.8 -3.75 -15.85 -2.75 L-14.8 -4.45 -13.6 -3.15 -13.45 -4.75 Q-13.45 -5.75 -13.7 -6.5 L-13.85 -7.25 -14.15 -8.0 -15.55 -10.15 -17.4 -12.3 -18.35 -13.05 M-17.0 -7.4 L-16.55 -6.5 M-18.85 -10.1 Q-17.75 -8.8 -17.0 -7.4 M-18.85 -10.1 L-21.45 -13.0" fill="none" stroke="#000000" stroke-linecap="round" stroke-linejoin="round" stroke-opacity="0.3019608" stroke-width="0.30000000000000004"/>
      <path d="M30.45 -17.75 L31.85 -19.75 Q33.55 -21.7 35.15 -21.0 L35.7 -19.9 Q34.1 -20.45 32.55 -18.75 31.8 -17.9 31.35 -16.9 L30.45 -17.75 M36.9 -18.35 Q37.95 -18.3 38.4 -17.9 39.85 -16.5 39.8 -14.3 39.75 -12.9 39.35 -12.1 L38.75 -11.1 38.95 -12.35 Q39.5 -15.75 38.0 -17.1 L37.0 -17.3 36.9 -18.35 M33.4 -13.55 L32.8 -13.8 32.5 -14.45 32.5 -14.8 32.9 -15.85 Q33.75 -17.05 34.85 -17.7 L35.9 -18.05 35.7 -16.85 Q33.2 -15.95 33.4 -13.55 M30.65 -13.7 Q29.3 -14.9 30.2 -17.1 L30.85 -16.3 Q31.2 -15.55 30.85 -14.35 L30.65 -13.7" fill="#720000" fill-rule="evenodd" stroke="none"/>
      <path d="M30.45 -17.75 L31.35 -16.9 31.6 -16.3 31.8 -15.25 Q31.5 -13.8 30.65 -13.7 L30.85 -14.35 Q31.2 -15.55 30.85 -16.3 L30.2 -17.1 28.45 -17.15 Q27.95 -16.45 28.35 -15.15 L27.65 -15.05 Q27.1 -17.05 27.95 -17.9 28.75 -18.85 30.45 -17.75 M35.7 -19.9 L35.15 -21.0 36.5 -19.95 Q36.9 -19.05 36.9 -18.35 L37.0 -17.3 35.9 -18.05 35.7 -19.9 M36.35 -14.9 Q35.7 -13.8 34.4 -13.05 L33.4 -13.55 Q34.1 -13.55 35.0 -14.85 L35.15 -15.05 35.15 -14.9 36.35 -14.9" fill="#bc1817" fill-rule="evenodd" stroke="none"/>
      <path d="M37.0 -17.3 Q36.95 -15.95 36.35 -14.9 L35.15 -14.9 35.15 -15.05 35.7 -16.85 35.9 -18.05 37.0 -17.3" fill="#fc4443" fill-rule="evenodd" stroke="none"/>
      <path d="M35.15 -21.0 Q33.55 -21.7 31.85 -19.75 L30.45 -17.75 31.35 -16.9 Q31.8 -17.9 32.55 -18.75 34.1 -20.45 35.7 -19.9 L35.15 -21.0 36.5 -19.95 Q36.9 -19.05 36.9 -18.35 37.95 -18.3 38.4 -17.9 39.85 -16.5 39.8 -14.3 39.75 -12.9 39.35 -12.1 L38.75 -11.1 38.95 -12.35 Q39.5 -15.75 38.0 -17.1 L37.0 -17.3 Q36.95 -15.95 36.35 -14.9 35.7 -13.8 34.4 -13.05 L33.4 -13.55 32.8 -13.8 32.5 -14.45 32.5 -14.8 32.9 -15.85 Q33.75 -17.05 34.85 -17.7 L35.9 -18.05 35.7 -19.9 M31.35 -16.9 L31.6 -16.3 31.8 -15.25 Q31.5 -13.8 30.65 -13.7 29.3 -14.9 30.2 -17.1 L28.45 -17.15 Q27.95 -16.45 28.35 -15.15 L27.65 -15.05 Q27.1 -17.05 27.95 -17.9 28.75 -18.85 30.45 -17.75 M30.65 -13.7 L30.85 -14.35 Q31.2 -15.55 30.85 -16.3 L30.2 -17.1 M35.15 -15.05 L35.0 -14.85 Q34.1 -13.55 33.4 -13.55 33.2 -15.95 35.7 -16.85 L35.9 -18.05 M37.0 -17.3 L36.9 -18.35 M35.15 -15.05 L35.7 -16.85" fill="none" stroke="#000000" stroke-linecap="round" stroke-linejoin="round" stroke-opacity="0.3019608" stroke-width="0.30000000000000004"/>
      <path d="M40.2 -12.65 Q37.1 -12.6 35.85 -14.3 L40.7 -13.85 41.85 -13.35 Q40.95 -13.1 40.2 -12.65 40.95 -13.1 41.85 -13.35 L40.7 -13.85 Q41.8 -15.35 44.65 -15.55 44.4 -13.7 42.85 -13.6 44.25 -11.5 41.0 -10.7 40.6 -10.85 40.15 -11.05 L38.6 -11.3 Q39.25 -12.15 40.2 -12.65 M38.4 -13.95 L37.75 -13.75 37.8 -13.6 39.05 -13.45 39.4 -13.55 39.4 -13.7 38.4 -13.95 M41.85 -13.35 L42.85 -13.6 41.85 -13.35 M42.5 -12.85 L41.4 -12.9 Q40.5 -12.7 40.5 -12.1 L40.8 -12.05 41.55 -12.25 Q42.3 -12.45 42.5 -12.85 M42.05 -14.2 L42.25 -14.1 42.95 -14.35 43.5 -14.75 43.5 -14.9 42.25 -14.65 42.05 -14.2 M45.35 -12.3 L49.6 -12.15 Q46.9 -10.9 45.15 -11.15 L45.35 -12.3" fill="#bc1817" fill-rule="evenodd" stroke="none"/>
      <path d="M38.4 -13.95 L39.4 -13.7 39.4 -13.55 39.05 -13.45 37.8 -13.6 37.75 -13.75 38.4 -13.95 M42.05 -14.2 L42.25 -14.65 43.5 -14.9 43.5 -14.75 42.95 -14.35 42.25 -14.1 42.05 -14.2 M42.5 -12.85 Q42.3 -12.45 41.55 -12.25 L40.8 -12.05 40.5 -12.1 Q40.5 -12.7 41.4 -12.9 L42.5 -12.85" fill="#fc4443" fill-rule="evenodd" stroke="none"/>
      <path d="M35.85 -14.3 Q37.1 -12.6 40.2 -12.65 39.25 -12.15 38.6 -11.3 L37.0 -12.35 38.6 -11.3 40.15 -11.05 Q35.95 -9.4 34.7 -11.1 L37.0 -12.35 Q36.15 -13.2 35.85 -14.3 M41.0 -10.7 Q44.25 -11.5 42.85 -13.6 44.4 -13.7 44.65 -15.55 45.4 -13.9 45.35 -12.3 L45.15 -11.15 Q46.9 -10.9 49.6 -12.15 47.95 -9.3 45.1 -9.35 L41.0 -10.7 M45.15 -11.15 Q44.75 -12.95 42.85 -13.6 44.75 -12.95 45.15 -11.15" fill="#720000" fill-rule="evenodd" stroke="none"/>
      <path d="M40.2 -12.65 Q40.95 -13.1 41.85 -13.35 L40.7 -13.85 35.85 -14.3 Q36.15 -13.2 37.0 -12.35 L38.6 -11.3 Q39.25 -12.15 40.2 -12.65 M40.15 -11.05 Q35.95 -9.4 34.7 -11.1 L37.0 -12.35 M40.15 -11.05 Q40.6 -10.85 41.0 -10.7 L45.1 -9.35 Q47.95 -9.3 49.6 -12.15 L45.35 -12.3 Q45.4 -13.9 44.65 -15.55 41.8 -15.35 40.7 -13.85 M42.85 -13.6 L41.85 -13.35 M42.85 -13.6 Q44.75 -12.95 45.15 -11.15 L45.35 -12.3" fill="none" stroke="#000000" stroke-linecap="round" stroke-linejoin="round" stroke-opacity="0.3019608" stroke-width="0.30000000000000004"/>
      <path d="M18.9 -6.5 L19.35 -6.65 19.85 -6.5 20.15 -5.9 19.85 -5.3 19.35 -5.1 Q19.15 -5.1 18.9 -5.3 18.6 -5.55 18.6 -5.9 L18.9 -6.5 M23.25 -11.1 L23.4 -11.1 23.9 -10.9 Q24.35 -10.65 24.15 -10.2 23.9 -9.6 23.3 -9.55 22.65 -9.45 22.4 -10.2 22.3 -10.45 22.7 -10.75 L23.25 -11.1 M53.2 -11.1 L53.45 -11.1 53.95 -10.9 54.3 -10.0 Q54.25 -8.95 53.25 -8.95 52.95 -8.95 52.65 -9.2 52.25 -9.5 52.2 -10.0 52.15 -10.5 52.55 -10.85 L53.2 -11.1 M58.25 -11.1 L62.5 -11.1 61.85 -10.1 Q61.2 -9.45 60.35 -9.4 59.5 -9.35 58.85 -10.1 58.3 -10.65 58.25 -11.1 M18.65 -1.1 Q18.65 -1.55 19.1 -1.9 19.5 -2.2 19.8 -2.2 L20.5 -1.95 Q20.9 -1.6 20.9 -1.1 20.9 -0.6 20.5 -0.25 L19.8 0.0 Q19.5 0.0 19.1 -0.3 18.65 -0.65 18.65 -1.1 M29.0 -6.65 L29.35 -6.45 29.5 -6.1 29.35 -5.8 29.0 -5.6 28.7 -5.8 28.5 -6.1 28.7 -6.45 29.0 -6.65 M24.55 -2.45 Q23.8 -3.1 23.75 -3.95 23.65 -4.75 24.45 -5.4 25.15 -5.95 25.7 -5.95 27.7 -5.95 27.7 -3.95 27.7 -1.95 25.7 -1.95 25.2 -1.95 24.55 -2.45 M34.75 -9.85 L35.2 -9.6 35.45 -9.2 35.2 -8.75 34.75 -8.5 34.35 -8.75 Q34.05 -9.05 34.05 -9.2 L34.35 -9.6 34.75 -9.85 M33.35 -4.85 L33.7 -5.35 34.15 -5.65 34.6 -5.35 34.95 -4.85 34.6 -4.4 34.15 -4.1 33.7 -4.4 Q33.35 -4.7 33.35 -4.85 M31.85 -1.65 L32.2 -0.9 Q32.2 -0.45 31.85 -0.2 L31.3 0.0 Q31.05 0.0 30.75 -0.25 30.35 -0.5 30.35 -0.9 30.35 -1.35 30.75 -1.6 L31.3 -1.85 31.85 -1.65 M39.5 -3.4 L40.6 -3.85 Q41.15 -3.85 41.7 -3.45 42.45 -2.85 42.45 -2.0 42.45 -1.1 41.7 -0.55 41.15 -0.15 40.6 -0.15 40.1 -0.15 39.5 -0.6 38.7 -1.15 38.75 -2.0 38.8 -2.8 39.5 -3.4 M41.25 -11.1 L41.75 -10.95 42.0 -10.45 Q42.0 -9.75 41.3 -9.75 40.6 -9.75 40.6 -10.45 L40.8 -10.95 41.25 -11.1 M44.15 -4.85 Q43.05 -4.85 42.95 -6.0 42.85 -7.2 44.15 -7.2 45.3 -7.2 45.3 -6.0 45.3 -4.85 44.15 -4.85 M48.15 -4.6 L48.35 -4.25 48.15 -3.95 47.85 -3.75 47.5 -3.95 47.3 -4.25 47.5 -4.6 47.85 -4.75 48.15 -4.6 M50.3 -2.45 Q51.45 -2.45 51.5 -1.25 51.55 -0.05 50.3 -0.05 L49.55 -0.25 Q49.05 -0.6 49.1 -1.25 49.15 -1.9 49.6 -2.2 L50.3 -2.45 M52.4 -6.55 L52.85 -6.25 53.1 -5.8 52.85 -5.35 52.4 -5.05 Q51.75 -5.05 51.65 -5.8 51.55 -6.55 52.4 -6.55 M58.95 -5.15 Q59.9 -4.55 59.9 -3.2 59.9 -1.85 58.95 -1.25 58.3 -0.85 57.5 -0.85 56.8 -0.85 56.15 -1.3 55.2 -1.9 55.15 -3.2 55.1 -4.45 56.1 -5.1 56.75 -5.55 57.5 -5.55 58.3 -5.55 58.95 -5.15 M61.45 -6.0 L61.95 -6.15 Q62.7 -6.15 62.75 -5.35 62.8 -4.6 61.95 -4.6 61.3 -4.6 61.2 -5.35 61.15 -5.75 61.45 -6.0" fill="url(#decoration63-gradient7)" fill-rule="evenodd" stroke="none"/>
      <path d="M18.9 -6.5 L18.6 -5.9 Q18.6 -5.55 18.9 -5.3 19.15 -5.1 19.35 -5.1 L19.85 -5.3 20.15 -5.9 19.85 -6.5 19.35 -6.65 18.9 -6.5 M62.5 -11.1 L66.55 -11.1 66.55 -8.1 66.55 0.45 17.4 0.45 17.4 -8.1 17.4 -11.1 23.25 -11.1 22.7 -10.75 Q22.3 -10.45 22.4 -10.2 22.65 -9.45 23.3 -9.55 23.9 -9.6 24.15 -10.2 24.35 -10.65 23.9 -10.9 L23.4 -11.1 41.25 -11.1 53.2 -11.1 52.55 -10.85 Q52.15 -10.5 52.2 -10.0 52.25 -9.5 52.65 -9.2 52.95 -8.95 53.25 -8.95 54.25 -8.95 54.3 -10.0 L53.95 -10.9 53.45 -11.1 58.25 -11.1 Q58.3 -10.65 58.85 -10.1 59.5 -9.35 60.35 -9.4 61.2 -9.45 61.85 -10.1 L62.5 -11.1 M29.0 -6.65 L28.7 -6.45 28.5 -6.1 28.7 -5.8 29.0 -5.6 29.35 -5.8 29.5 -6.1 29.35 -6.45 29.0 -6.65 M18.65 -1.1 Q18.65 -0.65 19.1 -0.3 19.5 0.0 19.8 0.0 L20.5 -0.25 Q20.9 -0.6 20.9 -1.1 20.9 -1.6 20.5 -1.95 L19.8 -2.2 Q19.5 -2.2 19.1 -1.9 18.65 -1.55 18.65 -1.1 M24.55 -2.45 Q25.2 -1.95 25.7 -1.95 27.7 -1.95 27.7 -3.95 27.7 -5.95 25.7 -5.95 25.15 -5.95 24.45 -5.4 23.65 -4.75 23.75 -3.95 23.8 -3.1 24.55 -2.45 M34.75 -9.85 L34.35 -9.6 34.05 -9.2 Q34.05 -9.05 34.35 -8.75 L34.75 -8.5 35.2 -8.75 35.45 -9.2 35.2 -9.6 34.75 -9.85 M33.35 -4.85 Q33.35 -4.7 33.7 -4.4 L34.15 -4.1 34.6 -4.4 34.95 -4.85 34.6 -5.35 34.15 -5.65 33.7 -5.35 33.35 -4.85 M44.15 -4.85 Q45.3 -4.85 45.3 -6.0 45.3 -7.2 44.15 -7.2 42.85 -7.2 42.95 -6.0 43.05 -4.85 44.15 -4.85 M41.25 -11.1 L40.8 -10.95 40.6 -10.45 Q40.6 -9.75 41.3 -9.75 42.0 -9.75 42.0 -10.45 L41.75 -10.95 41.25 -11.1 M39.5 -3.4 Q38.8 -2.8 38.75 -2.0 38.7 -1.15 39.5 -0.6 40.1 -0.15 40.6 -0.15 41.15 -0.15 41.7 -0.55 42.45 -1.1 42.45 -2.0 42.45 -2.85 41.7 -3.45 41.15 -3.85 40.6 -3.85 L39.5 -3.4 M31.85 -1.65 L31.3 -1.85 30.75 -1.6 Q30.35 -1.35 30.35 -0.9 30.35 -0.5 30.75 -0.25 31.05 0.0 31.3 0.0 L31.85 -0.2 Q32.2 -0.45 32.2 -0.9 L31.85 -1.65 M48.15 -4.6 L47.85 -4.75 47.5 -4.6 47.3 -4.25 47.5 -3.95 47.85 -3.75 48.15 -3.95 48.35 -4.25 48.15 -4.6 M50.3 -2.45 L49.6 -2.2 Q49.15 -1.9 49.1 -1.25 49.05 -0.6 49.55 -0.25 L50.3 -0.05 Q51.55 -0.05 51.5 -1.25 51.45 -2.45 50.3 -2.45 M52.4 -6.55 Q51.55 -6.55 51.65 -5.8 51.75 -5.05 52.4 -5.05 L52.85 -5.35 53.1 -5.8 52.85 -6.25 52.4 -6.55 M58.95 -5.15 Q58.3 -5.55 57.5 -5.55 56.75 -5.55 56.1 -5.1 55.1 -4.45 55.15 -3.2 55.2 -1.9 56.15 -1.3 56.8 -0.85 57.5 -0.85 58.3 -0.85 58.95 -1.25 59.9 -1.85 59.9 -3.2 59.9 -4.55 58.95 -5.15 M61.45 -6.0 Q61.15 -5.75 61.2 -5.35 61.3 -4.6 61.95 -4.6 62.8 -4.6 62.75 -5.35 62.7 -6.15 61.95 -6.15 L61.45 -6.0 M66.55 -8.1 L17.4 -8.1 66.55 -8.1" fill="url(#decoration63-gradient8)" fill-rule="evenodd" stroke="none"/>
      <path d="M62.5 -11.1 L66.55 -11.1 66.55 -8.1 66.55 0.45 17.4 0.45 17.4 -8.1 17.4 -11.1 23.25 -11.1 23.4 -11.1 41.25 -11.1 53.2 -11.1 53.45 -11.1 58.25 -11.1 62.5 -11.1 M17.4 -8.1 L66.55 -8.1" fill="none" stroke="#000000" stroke-linecap="round" stroke-linejoin="round" stroke-opacity="0.3019608" stroke-width="0.30000000000000004"/>
      <path d="M17.45 -2.55 L17.45 -5.1 41.65 -5.1 41.65 -11.15 42.8 -11.15 42.8 -5.1 66.85 -5.1 66.85 -2.5 42.8 -2.5 42.8 0.6 40.9 0.6 40.9 -2.55 17.45 -2.55" fill="#000000" fill-opacity="0.32941177" fill-rule="evenodd" stroke="none"/>
      <path d="M39.8 -9.8 L39.8 -11.1 42.15 -11.1 42.15 -9.8 Q41.3 -10.55 39.8 -9.8 M42.15 -3.2 L42.15 -1.2 41.0 -1.55 Q40.45 -1.6 39.8 -1.15 L39.8 -3.3 Q40.75 -4.55 41.35 -4.15 L42.15 -3.2" fill="#950000" fill-rule="evenodd" stroke="none"/>
      <path d="M39.8 -8.6 L39.8 -9.8 Q41.3 -10.55 42.15 -9.8 L42.15 -8.55 40.9 -8.8 39.8 -8.6 M42.15 -1.2 L42.15 0.4 39.8 0.4 39.8 -1.15 Q40.45 -1.6 41.0 -1.55 L42.15 -1.2" fill="#a60d0c" fill-rule="evenodd" stroke="none"/>
      <path d="M39.8 -6.0 L39.8 -8.6 40.9 -8.8 42.15 -8.55 42.15 -5.95 Q41.35 -5.05 40.85 -5.2 40.25 -5.35 39.8 -6.0" fill="#bc1817" fill-rule="evenodd" stroke="none"/>
      <path d="M39.8 -3.3 L39.8 -6.0 Q40.25 -5.35 40.85 -5.2 41.35 -5.05 42.15 -5.95 L42.15 -3.2 41.35 -4.15 Q40.75 -4.55 39.8 -3.3" fill="#fc4443" fill-rule="evenodd" stroke="none"/>
      <path d="M39.8 -3.3 L39.8 -6.0 39.8 -8.6 39.8 -9.8 39.8 -11.1 42.15 -11.1 42.15 -9.8 42.15 -8.55 42.15 -5.95 42.15 -3.2 42.15 -1.2 42.15 0.4 39.8 0.4 39.8 -1.15 39.8 -3.3 Z" fill="none" stroke="#000000" stroke-linecap="round" stroke-linejoin="round" stroke-opacity="0.3019608" stroke-width="0.30000000000000004"/>
      <path d="M24.1 -3.25 L17.35 -3.25 17.35 -5.55 24.3 -5.55 Q25.7 -5.05 25.9 -4.45 26.1 -3.9 24.1 -3.25 M56.05 -5.55 L61.45 -5.55 Q64.65 -4.7 61.45 -3.25 L56.25 -3.25 57.05 -4.3 Q57.25 -4.95 56.05 -5.55" fill="#a60d0c" fill-rule="evenodd" stroke="none"/>
      <path d="M24.1 -3.25 Q26.1 -3.9 25.9 -4.45 25.7 -5.05 24.3 -5.55 L32.9 -5.55 Q35.7 -5.35 37.1 -4.75 38.7 -4.15 33.3 -3.25 L24.1 -3.25 M61.45 -5.55 L66.85 -5.55 66.85 -3.25 61.45 -3.25 Q64.65 -4.7 61.45 -5.55" fill="#950000" fill-rule="evenodd" stroke="none"/>
      <path d="M32.9 -5.55 L44.7 -5.55 Q40.9 -4.75 41.5 -4.25 42.1 -3.65 44.85 -3.25 L33.3 -3.25 Q38.7 -4.15 37.1 -4.75 35.7 -5.35 32.9 -5.55" fill="#fc4443" fill-rule="evenodd" stroke="none"/>
      <path d="M44.7 -5.55 L56.05 -5.55 Q57.25 -4.95 57.05 -4.3 L56.25 -3.25 44.85 -3.25 Q42.1 -3.65 41.5 -4.25 40.9 -4.75 44.7 -5.55" fill="#bc1817" fill-rule="evenodd" stroke="none"/>
      <path d="M24.3 -5.55 L17.35 -5.55 17.35 -3.25 24.1 -3.25 33.3 -3.25 44.85 -3.25 56.25 -3.25 61.45 -3.25 66.85 -3.25 66.85 -5.55 61.45 -5.55 56.05 -5.55 44.7 -5.55 32.9 -5.55 24.3 -5.55 Z" fill="none" stroke="#000000" stroke-linecap="round" stroke-linejoin="round" stroke-opacity="0.3019608" stroke-width="0.30000000000000004"/>
    </g>
    <linearGradient gradientTransform="matrix(0.032, 0.0185, -0.0095, 0.0164, -16.75, -13.85)" gradientUnits="userSpaceOnUse" id="decoration63-gradient0" spreadMethod="pad" x1="-819.2" x2="819.2">
      <stop offset="0.043137254901960784" stop-color="#bc1817"/>
      <stop offset="0.9607843137254902" stop-color="#870000"/>
    </linearGradient>
    <linearGradient gradientTransform="matrix(0.024, 0.0168, -0.0196, 0.0281, -0.55, -25.15)" gradientUnits="userSpaceOnUse" id="decoration63-gradient1" spreadMethod="pad" x1="-819.2" x2="819.2">
      <stop offset="0.0" stop-color="#ded7d4"/>
      <stop offset="1.0" stop-color="#938076"/>
    </linearGradient>
    <linearGradient gradientTransform="matrix(0.0122, 0.0122, -0.0207, 0.0207, 18.4, -19.55)" gradientUnits="userSpaceOnUse" id="decoration63-gradient2" spreadMethod="pad" x1="-819.2" x2="819.2">
      <stop offset="0.0" stop-color="#237716"/>
      <stop offset="0.9725490196078431" stop-color="#0b5800"/>
    </linearGradient>
    <linearGradient gradientTransform="matrix(0.0, 0.006, -0.0035, 0.0, -0.15, -22.45)" gradientUnits="userSpaceOnUse" id="decoration63-gradient3" spreadMethod="pad" x1="-819.2" x2="819.2">
      <stop offset="0.0" stop-color="#5896b8"/>
      <stop offset="0.9568627450980393" stop-color="#30689a"/>
    </linearGradient>
    <linearGradient gradientTransform="matrix(0.0, 0.0143, -0.0111, 0.0, -0.2, -8.65)" gradientUnits="userSpaceOnUse" id="decoration63-gradient4" spreadMethod="pad" x1="-819.2" x2="819.2">
      <stop offset="0.0" stop-color="#5896b8"/>
      <stop offset="0.9568627450980393" stop-color="#30689a"/>
    </linearGradient>
    <linearGradient gradientTransform="matrix(0.0, 0.0097, -0.0059, 0.0, -23.45, -4.5)" gradientUnits="userSpaceOnUse" id="decoration63-gradient5" spreadMethod="pad" x1="-819.2" x2="819.2">
      <stop offset="0.0" stop-color="#d74600"/>
      <stop offset="1.0" stop-color="#983300"/>
    </linearGradient>
    <linearGradient gradientTransform="matrix(0.0012, 0.0043, -0.0018, 5.0E-4, -23.4, -11.7)" gradientUnits="userSpaceOnUse" id="decoration63-gradient6" spreadMethod="pad" x1="-819.2" x2="819.2">
      <stop offset="0.0" stop-color="#d74600"/>
      <stop offset="1.0" stop-color="#983300"/>
    </linearGradient>
    <linearGradient gradientTransform="matrix(0.0042, 0.0072, -0.0038, 0.0022, 40.8, -3.5)" gradientUnits="userSpaceOnUse" id="decoration63-gradient7" spreadMethod="pad" x1="-819.2" x2="819.2">
      <stop offset="0.0" stop-color="#ece5c3"/>
      <stop offset="1.0" stop-color="#d0c383"/>
    </linearGradient>
    <linearGradient gradientTransform="matrix(0.0029, 0.0109, -0.0051, 0.0014, 40.55, -4.9)" gradientUnits="userSpaceOnUse" id="decoration63-gradient8" spreadMethod="pad" x1="-819.2" x2="819.2">
      <stop offset="0.0" stop-color="#eebf23"/>
      <stop offset="1.0" stop-color="#cb8600"/>
    </linearGradient>
  </defs>
</svg>
