<?xml version="1.0" encoding="UTF-8" standalone="no"?>
<svg xmlns:ffdec="https://www.free-decompiler.com/flash" xmlns:xlink="http://www.w3.org/1999/xlink" ffdec:objectType="frame" height="142.95px" width="124.65px" xmlns="http://www.w3.org/2000/svg">
  <g transform="matrix(1.0, 0.0, 0.0, 1.0, 62.2, 141.35)">
    <use ffdec:characterId="710" height="142.95" transform="matrix(1.0, 0.0, 0.0, 1.0, -62.2, -141.35)" width="124.65" xlink:href="#decoration66-shape0"/>
  </g>
  <defs>
    <g id="decoration66-shape0" transform="matrix(1.0, 0.0, 0.0, 1.0, 62.2, 141.35)">
      <path d="M-22.7 -68.3 L-25.55 -64.75 Q-29.05 -67.6 -30.1 -69.1 -31.55 -71.15 -31.05 -73.9 -29.9 -76.1 -27.8 -74.8 L-26.55 -73.6 Q-24.45 -76.5 -21.4 -74.85 -19.2 -72.75 -22.7 -68.3" fill="url(#decoration66-gradient0)" fill-rule="evenodd" stroke="none"/>
      <path d="M-22.7 -68.3 L-25.55 -64.75 Q-29.05 -67.6 -30.1 -69.1 -31.55 -71.15 -31.05 -73.9 -29.9 -76.1 -27.8 -74.8 L-26.55 -73.6 Q-24.45 -76.5 -21.4 -74.85 -19.2 -72.75 -22.7 -68.3 Z" fill="none" stroke="#000000" stroke-linecap="round" stroke-linejoin="round" stroke-opacity="0.3019608" stroke-width="0.5"/>
      <path d="M-26.4 -73.6 L-26.4 -83.7" fill="none" stroke="#000000" stroke-linecap="round" stroke-linejoin="round" stroke-opacity="0.3019608" stroke-width="0.5"/>
      <path d="M-50.8 -69.8 L-53.45 -66.55 Q-56.65 -69.2 -57.65 -70.55 -59.0 -72.4 -58.55 -74.9 -57.45 -77.0 -55.55 -75.75 L-54.4 -74.65 Q-52.4 -77.35 -49.65 -75.8 -47.6 -73.85 -50.8 -69.8" fill="url(#decoration66-gradient1)" fill-rule="evenodd" stroke="none"/>
      <path d="M-50.8 -69.8 L-53.45 -66.55 Q-56.65 -69.2 -57.65 -70.55 -59.0 -72.4 -58.55 -74.9 -57.45 -77.0 -55.55 -75.75 L-54.4 -74.65 Q-52.4 -77.35 -49.65 -75.8 -47.6 -73.85 -50.8 -69.8 Z" fill="none" stroke="#000000" stroke-linecap="round" stroke-linejoin="round" stroke-opacity="0.3019608" stroke-width="0.5"/>
      <path d="M-54.25 -74.25 L-54.25 -83.55" fill="none" stroke="#000000" stroke-linecap="round" stroke-linejoin="round" stroke-opacity="0.3019608" stroke-width="0.5"/>
      <path d="M-1.7 -61.8 L-1.7 -92.75 2.05 -92.75 2.05 1.35 0.15 1.35 0.15 -61.8 -1.7 -61.8" fill="#a8938f" fill-rule="evenodd" stroke="none"/>
      <path d="M0.15 1.35 L-1.7 1.35 -1.7 -61.8 0.15 -61.8 0.15 1.35" fill="#dbcfcd" fill-rule="evenodd" stroke="none"/>
      <path d="M-1.7 -61.8 L-1.7 -92.75 2.05 -92.75 2.05 1.35 0.15 1.35 -1.7 1.35 -1.7 -61.8 Z" fill="none" stroke="#000000" stroke-linecap="round" stroke-linejoin="round" stroke-opacity="0.3019608" stroke-width="0.5"/>
      <path d="M0.45 -72.15 Q1.55 -74.25 3.45 -73.2 L4.6 -72.2 Q6.6 -75.05 9.35 -73.75 10.15 -73.05 10.15 -71.95 10.15 -70.25 8.15 -67.6 L5.55 -64.15 Q2.35 -66.5 1.35 -67.8 0.35 -69.15 0.35 -70.85 L0.45 -72.15" fill="url(#decoration66-gradient2)" fill-rule="evenodd" stroke="none"/>
      <path d="M0.45 -72.15 Q1.55 -74.25 3.45 -73.2 L4.6 -72.2 Q6.6 -75.05 9.35 -73.75 10.15 -73.05 10.15 -71.95 10.15 -70.25 8.15 -67.6 L5.55 -64.15 Q2.35 -66.5 1.35 -67.8 0.35 -69.15 0.35 -70.85 L0.45 -72.15 Z" fill="none" stroke="#000000" stroke-linecap="round" stroke-linejoin="round" stroke-opacity="0.3019608" stroke-width="0.5"/>
      <path d="M5.05 -72.2 L5.05 -81.5" fill="none" stroke="#000000" stroke-linecap="round" stroke-linejoin="round" stroke-opacity="0.3019608" stroke-width="0.5"/>
      <path d="M36.8 -72.75 L36.9 -71.45 Q36.95 -69.75 35.9 -68.4 34.95 -67.1 31.7 -64.75 L29.1 -68.2 Q27.1 -70.85 27.1 -72.55 27.1 -73.65 27.9 -74.3 30.7 -75.65 32.65 -72.8 L33.8 -73.8 Q35.75 -74.85 36.8 -72.75" fill="url(#decoration66-gradient3)" fill-rule="evenodd" stroke="none"/>
      <path d="M36.8 -72.75 Q35.75 -74.85 33.8 -73.8 L32.65 -72.8 Q30.7 -75.65 27.9 -74.3 27.1 -73.65 27.1 -72.55 27.1 -70.85 29.1 -68.2 L31.7 -64.75 Q34.95 -67.1 35.9 -68.4 36.95 -69.75 36.9 -71.45 L36.8 -72.75 Z" fill="none" stroke="#000000" stroke-linecap="round" stroke-linejoin="round" stroke-opacity="0.3019608" stroke-width="0.5"/>
      <path d="M33.1 -73.1 L33.1 -82.4" fill="none" stroke="#000000" stroke-linecap="round" stroke-linejoin="round" stroke-opacity="0.3019608" stroke-width="0.5"/>
      <path d="M58.65 -72.5 Q57.6 -70.9 54.1 -67.75 L51.25 -71.05 Q47.75 -75.2 49.95 -77.5 53.0 -79.45 55.1 -76.7 L56.4 -78.0 Q58.45 -79.45 59.65 -77.35 60.15 -74.6 58.65 -72.5" fill="url(#decoration66-gradient4)" fill-rule="evenodd" stroke="none"/>
      <path d="M58.65 -72.5 Q60.15 -74.6 59.65 -77.35 58.45 -79.45 56.4 -78.0 L55.1 -76.7 Q53.0 -79.45 49.95 -77.5 47.75 -75.2 51.25 -71.05 L54.1 -67.75 Q57.6 -70.9 58.65 -72.5 Z" fill="none" stroke="#000000" stroke-linecap="round" stroke-linejoin="round" stroke-opacity="0.3019608" stroke-width="0.5"/>
      <path d="M55.3 -77.15 L55.3 -87.25" fill="none" stroke="#000000" stroke-linecap="round" stroke-linejoin="round" stroke-opacity="0.3019608" stroke-width="0.5"/>
      <path d="M4.15 -132.45 L0.25 -128.3 Q-4.6 -131.65 -6.0 -133.4 -8.05 -135.8 -7.35 -139.1 -5.75 -141.7 -2.9 -140.15 L-1.15 -138.75 Q1.75 -142.2 6.0 -140.25 8.95 -137.7 4.15 -132.45" fill="url(#decoration66-gradient5)" fill-rule="evenodd" stroke="none"/>
      <path d="M4.15 -132.45 L0.25 -128.3 Q-4.6 -131.65 -6.0 -133.4 -8.05 -135.8 -7.35 -139.1 -5.75 -141.7 -2.9 -140.15 L-1.15 -138.75 Q1.75 -142.2 6.0 -140.25 8.95 -137.7 4.15 -132.45 Z" fill="none" stroke="#000000" stroke-linecap="round" stroke-linejoin="round" stroke-opacity="0.4" stroke-width="0.8"/>
      <path d="M3.35 -129.55 Q8.2 -129.65 14.25 -128.25 50.55 -115.55 60.55 -95.3 L44.45 -92.6 Q43.1 -101.9 36.15 -108.5 25.75 -124.75 3.35 -129.55 M-50.45 -105.85 L-48.25 -107.9 Q-30.75 -123.75 -2.3 -128.95 -37.0 -112.5 -45.8 -90.1 L-60.3 -91.2 Q-56.55 -98.55 -50.45 -105.85 M-1.1 -129.15 Q11.35 -124.3 16.55 -89.75 3.15 -88.95 -11.35 -88.95 -10.85 -100.95 -7.75 -113.25 -5.05 -121.45 -1.1 -129.15" fill="url(#decoration66-gradient6)" fill-rule="evenodd" stroke="none"/>
      <path d="M14.25 -128.25 L17.7 -127.35 Q27.8 -124.45 38.2 -118.65 48.3 -113.05 54.8 -106.85 60.85 -101.2 61.95 -95.6 L60.55 -95.3 Q50.55 -115.55 14.25 -128.25 M-61.7 -91.3 L-60.45 -93.6 -58.35 -96.45 Q-54.9 -101.5 -50.45 -105.85 -56.55 -98.55 -60.3 -91.2 L-61.7 -91.3 M-2.3 -128.95 L-1.1 -129.15 Q5.3 -127.7 9.9 -119.75 L11.0 -117.7 Q15.9 -107.95 18.75 -89.9 15.9 -107.95 11.0 -117.7 L9.9 -119.75 Q19.8 -106.35 20.65 -90.05 L18.75 -89.9 16.55 -89.75 Q11.35 -124.3 -1.1 -129.15 -21.05 -119.6 -32.55 -107.4 -38.75 -98.65 -42.6 -89.9 L-44.1 -90.0 -45.8 -90.1 Q-37.0 -112.5 -2.3 -128.95 M3.35 -129.55 Q25.75 -124.75 36.15 -108.5 43.1 -101.9 44.45 -92.6 L42.85 -92.3 Q40.6 -101.5 36.15 -108.5 40.6 -101.5 42.85 -92.3 L41.55 -92.2 Q34.15 -120.55 3.35 -129.55 M-7.75 -113.25 Q-10.85 -100.95 -11.35 -88.95 L-12.9 -88.95 Q-11.55 -101.6 -7.75 -113.25 -11.55 -101.6 -12.9 -88.95 L-14.05 -88.95 Q-12.8 -111.4 -1.1 -129.15 -5.05 -121.45 -7.75 -113.25 M-44.1 -90.0 Q-40.15 -99.3 -32.55 -107.4 -40.15 -99.3 -44.1 -90.0" fill="#e7e7e7" fill-rule="evenodd" stroke="none"/>
      <path d="M61.95 -95.6 Q62.95 -90.85 60.3 -87.65 57.95 -84.9 53.85 -84.4 49.8 -83.9 46.7 -85.9 43.55 -87.9 42.85 -92.3 43.35 -87.25 40.3 -84.45 37.3 -81.65 32.4 -81.25 27.45 -80.75 23.7 -82.9 19.45 -85.3 18.75 -89.9 18.05 -85.25 13.55 -82.55 9.5 -80.0 3.8 -79.85 -1.85 -79.7 -6.35 -81.95 -11.3 -84.45 -12.9 -88.95 -15.15 -84.0 -20.4 -81.7 -25.05 -79.65 -30.65 -80.15 -36.05 -80.65 -39.85 -83.3 -43.85 -86.05 -44.1 -90.0 -45.9 -84.8 -49.3 -82.55 -52.3 -80.45 -55.65 -81.1 -58.85 -81.75 -60.6 -84.45 -62.5 -87.4 -61.7 -91.3 L-60.3 -91.2 Q-61.1 -87.7 -60.1 -85.75 -59.05 -83.5 -55.45 -82.9 -52.05 -82.35 -49.2 -84.6 -46.45 -86.75 -45.8 -90.1 L-44.1 -90.0 -42.6 -89.9 Q-38.75 -82.15 -28.95 -81.85 -20.5 -81.6 -14.05 -88.95 L-12.9 -88.95 -11.35 -88.95 Q-5.6 -79.7 7.1 -81.65 14.2 -84.5 16.55 -89.75 L18.75 -89.9 20.65 -90.05 Q22.6 -83.35 32.3 -83.15 41.65 -84.75 41.55 -92.2 L42.85 -92.3 44.45 -92.6 Q45.85 -89.15 47.4 -87.95 49.55 -86.35 53.85 -86.55 58.25 -87.95 59.6 -90.0 60.75 -91.7 60.55 -95.3 L61.95 -95.6" fill="#dbcfcd" fill-rule="evenodd" stroke="none"/>
      <path d="M44.45 -92.6 L60.55 -95.3 Q60.75 -91.7 59.6 -90.0 58.25 -87.95 53.85 -86.55 49.55 -86.35 47.4 -87.95 45.85 -89.15 44.45 -92.6 M16.55 -89.75 Q14.2 -84.5 7.1 -81.65 -5.6 -79.7 -11.35 -88.95 3.15 -88.95 16.55 -89.75 M-45.8 -90.1 Q-46.45 -86.75 -49.2 -84.6 -52.05 -82.35 -55.45 -82.9 -59.05 -83.5 -60.1 -85.75 -61.1 -87.7 -60.3 -91.2 L-45.8 -90.1" fill="#af726a" fill-rule="evenodd" stroke="none"/>
      <path d="M41.55 -92.2 Q41.65 -84.75 32.3 -83.15 22.6 -83.35 20.65 -90.05 L41.55 -92.2 M-42.6 -89.9 L-14.05 -88.95 Q-20.5 -81.6 -28.95 -81.85 -38.75 -82.15 -42.6 -89.9" fill="#771f05" fill-rule="evenodd" stroke="none"/>
      <path d="M-1.1 -129.15 L-0.9 -129.2 3.35 -129.55 Q34.15 -120.55 41.55 -92.2 L20.65 -90.05 Q19.8 -106.35 9.9 -119.75 5.3 -127.7 -1.1 -129.15 -12.8 -111.4 -14.05 -88.95 L-42.6 -89.9 Q-38.75 -98.65 -32.55 -107.4 -21.05 -119.6 -1.1 -129.15" fill="url(#decoration66-gradient7)" fill-rule="evenodd" stroke="none"/>
      <path d="M3.35 -129.55 Q8.2 -129.65 14.25 -128.25 M-2.3 -128.95 L-1.1 -129.15 -0.9 -129.2 3.35 -129.55 Q25.75 -124.75 36.15 -108.5 40.6 -101.5 42.85 -92.3 L41.55 -92.2 20.65 -90.05 18.75 -89.9 Q15.9 -107.95 11.0 -117.7 L9.9 -119.75 Q5.3 -127.7 -1.1 -129.15 -21.05 -119.6 -32.55 -107.4 -40.15 -99.3 -44.1 -90.0 L-42.6 -89.9 M44.45 -92.6 L60.55 -95.3 61.95 -95.6 M16.55 -89.75 L18.75 -89.9 M44.45 -92.6 L42.85 -92.3 M16.55 -89.75 Q3.15 -88.95 -11.35 -88.95 L-12.9 -88.95 Q-11.55 -101.6 -7.75 -113.25 -5.05 -121.45 -1.1 -129.15 M-14.05 -88.95 L-12.9 -88.95" fill="none" stroke="#000000" stroke-linecap="round" stroke-linejoin="round" stroke-opacity="0.3019608" stroke-width="0.30000000000000004"/>
      <path d="M14.25 -128.25 L17.7 -127.35 Q27.8 -124.45 38.2 -118.65 48.3 -113.05 54.8 -106.85 60.85 -101.2 61.95 -95.6 62.95 -90.85 60.3 -87.65 57.95 -84.9 53.85 -84.4 49.8 -83.9 46.7 -85.9 43.55 -87.9 42.85 -92.3 43.35 -87.25 40.3 -84.45 37.3 -81.65 32.4 -81.25 27.45 -80.75 23.7 -82.9 19.45 -85.3 18.75 -89.9 18.05 -85.25 13.55 -82.55 9.5 -80.0 3.8 -79.85 -1.85 -79.7 -6.35 -81.95 -11.3 -84.45 -12.9 -88.95 -15.15 -84.0 -20.4 -81.7 -25.05 -79.65 -30.65 -80.15 -36.05 -80.65 -39.85 -83.3 -43.85 -86.05 -44.1 -90.0 -45.9 -84.8 -49.3 -82.55 -52.3 -80.45 -55.65 -81.1 -58.85 -81.75 -60.6 -84.45 -62.5 -87.4 -61.7 -91.3 L-60.45 -93.6 -58.35 -96.45 Q-54.9 -101.5 -50.45 -105.85 L-48.25 -107.9 Q-30.75 -123.75 -2.3 -128.95" fill="none" stroke="#000000" stroke-linecap="round" stroke-linejoin="round" stroke-opacity="0.3882353" stroke-width="0.5"/>
      <path d="M1.05 -129.45 Q6.7 -128.85 13.1 -125.3 19.4 -121.9 28.2 -112.65 37.0 -103.4 38.6 -91.7 L36.85 -84.8 M4.35 -129.55 Q21.2 -125.9 33.25 -115.25 45.0 -104.95 46.8 -93.0 L46.8 -88.65 M11.75 -128.85 Q27.85 -124.05 40.6 -115.05 54.5 -105.25 58.45 -94.95 L57.65 -88.35 M9.9 -83.0 L12.0 -89.35 Q13.05 -109.55 -0.65 -129.4 -6.95 -108.6 -7.85 -88.65 L-5.3 -83.3 M-39.6 -85.2 L-39.6 -89.75 Q-31.45 -111.2 -0.65 -129.4 22.5 -118.05 23.9 -90.15 L23.9 -84.95 M-11.4 -126.95 Q-26.7 -122.1 -40.65 -112.2 -54.6 -102.35 -59.55 -91.1 L-59.55 -84.7 M-0.65 -129.4 Q-18.1 -110.05 -18.2 -89.05 L-16.45 -86.45 M-2.9 -128.8 Q-35.9 -114.65 -48.85 -90.2 L-48.85 -85.0" fill="none" stroke="#ffffff" stroke-linecap="round" stroke-linejoin="round" stroke-opacity="0.7882353" stroke-width="0.05"/>
      <path d="M21.4 -125.8 Q19.85 -123.95 14.0 -122.95 L1.65 -121.95 -10.7 -122.75 Q-16.45 -123.6 -17.95 -125.2 M-23.5 -123.25 Q-13.2 -118.3 1.85 -118.6 16.35 -118.9 26.35 -123.85 M-59.05 -95.25 Q-53.85 -94.1 -34.3 -92.35 L0.9 -90.65 Q11.65 -90.85 31.0 -93.5 49.0 -95.95 59.0 -98.3 M-56.75 -97.6 Q-19.4 -93.0 7.55 -94.15 32.5 -95.25 56.7 -101.85" fill="none" stroke="#ffffff" stroke-linecap="round" stroke-linejoin="round" stroke-opacity="0.7882353" stroke-width="0.05"/>
    </g>
    <linearGradient gradientTransform="matrix(0.0017, 0.0063, -0.0063, 0.0017, -26.8, -72.25)" gradientUnits="userSpaceOnUse" id="decoration66-gradient0" spreadMethod="pad" x1="-819.2" x2="819.2">
      <stop offset="0.0" stop-color="#ee788b"/>
      <stop offset="1.0" stop-color="#b8364b"/>
    </linearGradient>
    <linearGradient gradientTransform="matrix(0.0016, 0.0058, -0.0058, 0.0016, -54.6, -73.4)" gradientUnits="userSpaceOnUse" id="decoration66-gradient1" spreadMethod="pad" x1="-819.2" x2="819.2">
      <stop offset="0.0" stop-color="#ee788b"/>
      <stop offset="1.0" stop-color="#b8364b"/>
    </linearGradient>
    <linearGradient gradientTransform="matrix(0.0016, 0.0057, -0.0058, 0.002, 4.4, -70.9)" gradientUnits="userSpaceOnUse" id="decoration66-gradient2" spreadMethod="pad" x1="-819.2" x2="819.2">
      <stop offset="0.0" stop-color="#ee788b"/>
      <stop offset="1.0" stop-color="#b8364b"/>
    </linearGradient>
    <linearGradient gradientTransform="matrix(-0.0016, 0.0057, 0.0058, 0.002, 32.85, -71.5)" gradientUnits="userSpaceOnUse" id="decoration66-gradient3" spreadMethod="pad" x1="-819.2" x2="819.2">
      <stop offset="0.0" stop-color="#ee788b"/>
      <stop offset="1.0" stop-color="#b8364b"/>
    </linearGradient>
    <linearGradient gradientTransform="matrix(-0.0017, 0.0064, 0.0063, 0.0012, 55.4, -75.35)" gradientUnits="userSpaceOnUse" id="decoration66-gradient4" spreadMethod="pad" x1="-819.2" x2="819.2">
      <stop offset="0.0" stop-color="#ee788b"/>
      <stop offset="1.0" stop-color="#b8364b"/>
    </linearGradient>
    <linearGradient gradientTransform="matrix(0.0023, 0.0075, -0.0087, 0.002, -1.5, -137.15)" gradientUnits="userSpaceOnUse" id="decoration66-gradient5" spreadMethod="pad" x1="-819.2" x2="819.2">
      <stop offset="0.0" stop-color="#ee788b"/>
      <stop offset="1.0" stop-color="#b8364b"/>
    </linearGradient>
    <linearGradient gradientTransform="matrix(0.0, 0.0301, -0.0271, 0.0, 0.15, -109.3)" gradientUnits="userSpaceOnUse" id="decoration66-gradient6" spreadMethod="pad" x1="-819.2" x2="819.2">
      <stop offset="0.0" stop-color="#ffc1b8"/>
      <stop offset="1.0" stop-color="#de968c"/>
    </linearGradient>
    <linearGradient gradientTransform="matrix(0.0, 0.0164, -0.0269, 0.0, -22.6, -112.95)" gradientUnits="userSpaceOnUse" id="decoration66-gradient7" spreadMethod="pad" x1="-819.2" x2="819.2">
      <stop offset="0.0" stop-color="#c64822"/>
      <stop offset="1.0" stop-color="#942d0e"/>
    </linearGradient>
  </defs>
</svg>
