<?xml version="1.0" encoding="UTF-8" standalone="no"?>
<svg xmlns:xlink="http://www.w3.org/1999/xlink" height="40.4px" width="60.0px" xmlns="http://www.w3.org/2000/svg">
  <g transform="matrix(1.0, 0.0, 0.0, 1.0, 29.45, 39.4)">
    <use data-characterId="606" height="40.4" transform="matrix(1.0, 0.0, 0.0, 1.0, -29.45, -39.4)" width="60.0" xlink:href="#decoration68-shape0"/>
    <use data-characterId="607" height="2.2" id="decoration68-B" transform="matrix(1.0, 0.0, 0.0, 1.0, -27.6, -38.75)" width="55.8" xlink:href="#decoration68-sprite0"/>
  </g>
  <defs>
    <g id="decoration68-shape0" transform="matrix(1.0, 0.0, 0.0, 1.0, 29.45, 39.4)">
      <path d="M-29.1 -37.95 Q-28.4 -38.55 -25.3 -39.25 L25.9 -39.25 Q29.15 -38.55 30.05 -37.95 L-29.1 -37.95 M6.3 -29.25 Q3.8 -25.65 3.25 -22.0 2.4 -16.3 4.35 -10.1 6.3 -3.9 10.55 -2.25 12.2 -1.65 14.2 -1.7 17.15 -1.8 17.45 -3.35 L17.4 -4.35 17.45 -6.35 Q17.25 -8.6 15.65 -8.0 15.05 -6.05 13.4 -7.1 16.85 -12.05 20.05 -7.4 20.45 -5.5 20.3 -4.05 19.45 -2.1 17.75 -1.55 14.5 -0.5 10.25 -1.05 L9.65 -1.25 Q6.7 -2.45 4.35 -6.0 2.55 -9.95 2.25 -15.8 L2.15 -18.0 2.05 -24.1 2.2 -23.25 Q3.5 -26.45 4.95 -29.25 L6.3 -29.25 M1.6 -12.85 L1.55 -12.35 Q1.15 -9.35 1.5 -6.5 L0.0 -6.25 -1.25 -6.6 -0.6 -9.45 0.2 -14.9 Q0.3 -18.95 -0.4 -22.95 -1.05 -15.45 -2.1 -9.95 -2.65 -5.75 -6.55 -2.2 -7.9 -1.15 -11.0 -0.95 L-15.1 -1.05 Q-17.95 -1.55 -18.55 -3.45 -18.9 -5.05 -18.45 -7.4 -15.25 -12.05 -11.8 -7.1 -12.9 -5.0 -14.35 -7.25 -14.65 -7.75 -15.1 -7.75 -15.9 -7.8 -17.25 -6.45 -17.65 -5.5 -16.8 -4.45 L-16.75 -3.95 -16.6 -3.55 Q-15.9 -1.45 -12.6 -1.7 L-11.7 -1.75 Q-7.45 -2.3 -5.25 -5.25 -2.6 -8.8 -2.1 -16.75 -1.45 -19.25 -1.95 -22.7 -2.45 -26.2 -4.8 -29.25 L-3.05 -29.25 Q-1.4 -26.25 -0.4 -22.95 0.0 -26.5 0.0 -29.25 L1.65 -29.25 Q1.7 -26.85 2.05 -24.35 L1.6 -12.85 M2.1 -3.75 L2.1 -3.7 Q2.4 -1.7 0.4 -1.45 L-0.65 -1.45 Q-1.8 -2.15 -1.9 -3.75 -0.25 -6.25 2.1 -3.75" fill="#ffffff" fill-rule="evenodd" stroke="none"/>
      <path d="M30.05 -37.95 Q30.75 -37.45 29.95 -37.0 L28.75 -36.55 13.2 -36.55 Q8.95 -32.7 6.9 -30.1 L6.3 -29.25 4.95 -29.25 Q7.0 -33.35 9.4 -36.55 L2.15 -36.55 Q1.55 -33.0 1.65 -29.25 L0.0 -29.25 Q-0.05 -34.2 -1.35 -36.55 L-8.45 -36.55 Q-5.2 -33.15 -3.05 -29.25 L-4.8 -29.25 Q-7.75 -34.5 -12.4 -36.55 L-27.35 -36.55 -28.7 -37.0 Q-29.65 -37.45 -29.1 -37.95 L30.05 -37.95 M17.4 -4.35 L16.6 -5.65 16.1 -6.15 Q14.4 -3.9 13.4 -7.1 15.05 -6.05 15.65 -8.0 17.25 -8.6 17.45 -6.35 L17.4 -4.35 M20.3 -4.05 Q19.95 -1.0 17.2 -0.3 L8.8 -0.3 8.75 -0.35 Q5.95 -2.4 4.35 -6.0 6.7 -2.45 9.65 -1.25 L10.25 -1.05 Q14.5 -0.5 17.75 -1.55 19.45 -2.1 20.3 -4.05 M2.25 -15.8 L1.6 -12.85 2.05 -24.35 2.05 -24.1 2.15 -18.0 2.25 -15.8 M1.5 -6.5 L2.1 -3.75 Q-0.25 -6.25 -1.9 -3.75 L-1.25 -6.6 0.0 -6.25 1.5 -6.5 M2.1 -3.7 Q2.6 -2.0 1.8 0.3 L0.1 0.85 Q-1.0 0.9 -1.5 0.0 -2.5 -1.9 -1.9 -3.75 -1.8 -2.15 -0.65 -1.45 L0.4 -1.45 Q2.4 -1.7 2.1 -3.7 M-0.6 -9.45 Q-0.15 -13.15 -0.55 -17.15 -0.9 -4.8 -7.2 -0.3 L-15.6 -0.3 Q-18.05 -0.95 -18.55 -3.45 -17.95 -1.55 -15.1 -1.05 L-11.0 -0.95 Q-7.9 -1.15 -6.55 -2.2 -2.65 -5.75 -2.1 -9.95 -1.05 -15.45 -0.4 -22.95 0.3 -18.95 0.2 -14.9 L-0.6 -9.45 M-11.8 -7.1 Q-12.6 -4.45 -13.9 -5.5 L-14.5 -6.15 Q-15.75 -6.3 -16.4 -5.6 -16.85 -5.1 -16.8 -4.45 -17.65 -5.5 -17.25 -6.45 -15.9 -7.8 -15.1 -7.75 -14.65 -7.75 -14.35 -7.25 -12.9 -5.0 -11.8 -7.1 M9.4 -36.55 L13.2 -36.55 9.4 -36.55 M-0.55 -17.15 L-0.55 -18.0 -0.55 -17.15 M-12.4 -36.55 L-8.45 -36.55 -12.4 -36.55 M-1.35 -36.55 L2.15 -36.55 -1.35 -36.55" fill="#cbc8c4" fill-rule="evenodd" stroke="none"/>
      <path d="M-29.1 -37.95 Q-28.4 -38.55 -25.3 -39.25 L25.9 -39.25 Q29.15 -38.55 30.05 -37.95 30.75 -37.45 29.95 -37.0 L28.75 -36.55 13.2 -36.55 Q8.95 -32.7 6.9 -30.1 L6.3 -29.25 Q3.8 -25.65 3.25 -22.0 2.4 -16.3 4.35 -10.1 6.3 -3.9 10.55 -2.25 12.2 -1.65 14.2 -1.7 17.15 -1.8 17.45 -3.35 M17.4 -4.35 L16.6 -5.65 16.1 -6.15 Q14.4 -3.9 13.4 -7.1 16.85 -12.05 20.05 -7.4 20.45 -5.5 20.3 -4.05 19.95 -1.0 17.2 -0.3 L8.8 -0.3 8.75 -0.35 Q5.95 -2.4 4.35 -6.0 2.55 -9.95 2.25 -15.8 L1.6 -12.85 M1.55 -12.35 Q1.15 -9.35 1.5 -6.5 L2.1 -3.75 2.1 -3.7 Q2.6 -2.0 1.8 0.3 L0.1 0.85 Q-1.0 0.9 -1.5 0.0 -2.5 -1.9 -1.9 -3.75 L-1.25 -6.6 -0.6 -9.45 Q-0.15 -13.15 -0.55 -17.15 -0.9 -4.8 -7.2 -0.3 L-15.6 -0.3 Q-18.05 -0.95 -18.55 -3.45 -18.9 -5.05 -18.45 -7.4 -15.25 -12.05 -11.8 -7.1 -12.6 -4.45 -13.9 -5.5 L-14.5 -6.15 Q-15.75 -6.3 -16.4 -5.6 -16.85 -5.1 -16.8 -4.45 L-16.75 -3.95 -16.6 -3.55 Q-15.9 -1.45 -12.6 -1.7 L-11.7 -1.75 Q-7.45 -2.3 -5.25 -5.25 -2.6 -8.8 -2.1 -16.75 -1.45 -19.25 -1.95 -22.7 -2.45 -26.2 -4.8 -29.25 -7.75 -34.5 -12.4 -36.55 L-27.35 -36.55 -28.7 -37.0 Q-29.65 -37.45 -29.1 -37.95 M13.2 -36.55 L9.4 -36.55 Q7.0 -33.35 4.95 -29.25 3.5 -26.45 2.2 -23.25 L2.05 -24.1 2.05 -24.35 Q1.7 -26.85 1.65 -29.25 1.55 -33.0 2.15 -36.55 L-1.35 -36.55 -8.45 -36.55 Q-5.2 -33.15 -3.05 -29.25 -1.4 -26.25 -0.4 -22.95 0.0 -26.5 0.0 -29.25 -0.05 -34.2 -1.35 -36.55 M9.4 -36.55 L2.15 -36.55 M2.15 -18.0 L2.25 -15.8 M-8.45 -36.55 L-12.4 -36.55 M-0.55 -18.0 L-0.55 -17.15 M2.1 -3.75 Q-0.25 -6.25 -1.9 -3.75" fill="none" stroke="#000000" stroke-linecap="round" stroke-linejoin="round" stroke-opacity="0.3019608" stroke-width="0.30000000000000004"/>
    </g>
    <g id="decoration68-sprite0" transform="matrix(1.0, 0.0, 0.0, 1.0, 0.0, 0.0)">
      <use data-characterId="238" height="2.2" transform="matrix(1.0, 0.0, 0.0, 1.0, 0.0, 0.0)" width="55.8" xlink:href="#decoration68-shape1"/>
    </g>
    <g id="decoration68-shape1" transform="matrix(1.0, 0.0, 0.0, 1.0, 0.0, 0.0)">
      <path d="M55.8 2.2 L0.0 2.2 0.0 0.0 55.8 0.0 55.8 2.2" fill="#0066ff" fill-opacity="0.0" fill-rule="evenodd" stroke="none"/>
    </g>
  </defs>
</svg>
