<?xml version="1.0" encoding="UTF-8" standalone="no"?>
<svg xmlns:xlink="http://www.w3.org/1999/xlink" height="74.1px" width="66.5px" xmlns="http://www.w3.org/2000/svg">
  <g transform="matrix(1.0, 0.0, 0.0, 1.0, 31.5, 73.75)">
    <use height="74.1" transform="matrix(1.0, 0.0, 0.0, 1.0, -31.5, -73.75)" width="66.5" xlink:href="#decoration69-shape0"/>
  </g>
  <defs>
    <g id="decoration69-shape0" transform="matrix(1.0, 0.0, 0.0, 1.0, 31.5, 73.75)">
      <path d="M26.1 -67.65 L32.25 -67.65 34.85 -1.95 28.7 -1.95 28.35 -11.25 26.1 -67.65 M-6.85 -11.25 L-6.5 -1.95 -12.65 -1.95 -12.85 -11.25 -6.85 -11.25" fill="#331501" fill-rule="evenodd" stroke="none"/>
      <path d="M26.1 -67.65 L28.35 -11.25 -6.85 -11.25 -9.1 -67.65 26.1 -67.65" fill="#201a15" fill-rule="evenodd" stroke="none"/>
      <path d="M28.35 -11.25 L28.7 -1.95 34.85 -1.95 32.25 -67.65 26.1 -67.65 28.35 -11.25 -6.85 -11.25 -6.5 -1.95 -12.65 -1.95 -12.85 -11.25 -6.85 -11.25 -9.1 -67.65 -15.1 -67.65 M26.1 -67.65 L-9.1 -67.65" fill="none" stroke="#000000" stroke-linecap="round" stroke-linejoin="round" stroke-opacity="0.3019608" stroke-width="0.30000000000000004"/>
      <path d="M31.8 -73.6 L31.3 -69.75 22.15 0.2 16.05 0.2 17.5 -10.85 17.7 -12.25 25.2 -69.75 31.3 -69.75 25.2 -69.75 -16.35 -69.75 -21.2 -69.75 -16.35 -69.75 -24.4 -12.25 -26.0 0.2 -31.35 0.2 -21.2 -69.75 -20.65 -73.6 31.8 -73.6" fill="#4f2b09" fill-rule="evenodd" stroke="none"/>
      <path d="M31.8 -73.6 L32.1 -66.75 23.65 0.2 22.15 0.2 31.3 -69.75 31.8 -73.6 M-22.85 -10.9 L-24.4 0.2 -26.0 0.2 -24.4 -12.25 -22.85 -10.9" fill="#331501" fill-rule="evenodd" stroke="none"/>
      <path d="M17.5 -10.85 L-22.85 -10.9 -24.4 -12.25 17.7 -12.25 17.5 -10.85" fill="#201a15" fill-rule="evenodd" stroke="none"/>
      <path d="M25.2 -69.75 L17.7 -12.25 -24.4 -12.25 -16.35 -69.75 25.2 -69.75" fill="url(#decoration69-gradient0)" fill-rule="evenodd" stroke="none"/>
      <path d="M22.15 0.2 L23.65 0.2 32.1 -66.75 31.8 -73.6 31.3 -69.75 22.15 0.2 16.05 0.2 17.5 -10.85 -22.85 -10.9 -24.4 0.2 -26.0 0.2 -31.35 0.2 -21.2 -69.75 -20.65 -73.6 31.8 -73.6 M31.3 -69.75 L25.2 -69.75 17.7 -12.25 17.5 -10.85 M-21.2 -69.75 L-16.35 -69.75 25.2 -69.75 M-22.85 -10.9 L-24.4 -12.25 -26.0 0.2 M-16.35 -69.75 L-24.4 -12.25 17.7 -12.25" fill="none" stroke="#000000" stroke-linecap="round" stroke-linejoin="round" stroke-opacity="0.3019608" stroke-width="0.30000000000000004"/>
      <path d="M-17.3 -40.3 Q-17.95 -40.3 -18.2 -40.8 L-18.35 -41.35 -18.05 -41.9 -16.65 -41.9 -16.55 -41.1 -16.6 -40.45 -17.3 -40.3 M-19.55 -32.95 L-19.7 -33.45 Q-19.7 -34.7 -18.4 -34.7 -17.15 -34.7 -17.45 -33.95 -17.45 -32.8 -18.2 -32.8 L-19.55 -32.95" fill="#ffffff" fill-opacity="0.3882353" fill-rule="evenodd" stroke="none"/>
      <path d="M7.85 -24.05 Q7.0 -23.45 6.7 -22.65 6.4 -21.8 5.55 -20.95 L4.15 -19.55 3.95 -19.3 5.15 -20.25 6.75 -21.35 7.95 -22.25 9.3 -23.45 10.1 -24.3 9.55 -24.0 8.2 -23.1 6.9 -21.85 M5.15 -18.4 L6.6 -19.85 8.1 -21.15 9.2 -21.9 Q9.6 -22.0 9.35 -21.75 L8.5 -20.9 6.9 -19.3 5.5 -17.55 4.35 -16.1 5.3 -16.95 Q5.95 -17.5 5.95 -17.35 L6.2 -17.05 Q6.4 -16.9 5.5 -15.7 M8.15 -24.4 Q8.5 -25.25 8.15 -25.1 L7.1 -24.45 5.9 -23.2 Q5.35 -22.35 4.25 -21.65 L2.8 -20.5 1.95 -19.45 Q1.45 -19.0 1.6 -19.3 L2.5 -20.25 2.8 -20.5 2.9 -20.7 3.45 -21.95 1.9 -20.85 Q1.0 -20.4 0.75 -20.65 0.55 -20.85 1.1 -21.1 1.7 -21.35 2.05 -22.15 L2.25 -22.85 1.4 -22.2 M4.15 -17.95 Q5.2 -18.8 5.45 -19.75 5.75 -20.65 6.5 -21.2 L6.75 -21.35 M3.45 -21.95 L3.5 -22.3 M1.05 -21.95 L-0.2 -21.35 Q-0.6 -21.0 -0.3 -21.4 L0.65 -22.35 1.45 -23.5 Q1.7 -24.05 1.1 -23.7 L-0.25 -22.9 Q-0.85 -22.55 -1.35 -22.35 L-1.65 -22.3 M3.95 -19.3 L3.9 -19.3 3.5 -19.0 M4.0 -15.85 L4.35 -16.1 M-1.35 -22.35 Q-0.5 -23.3 -0.55 -23.6 L0.55 -24.9" fill="none" stroke="#cc3399" stroke-linecap="round" stroke-linejoin="round" stroke-opacity="0.36078432" stroke-width="0.2"/>
      <path d="M13.85 -65.1 L13.75 -65.7 M15.0 -63.25 L12.9 -63.0 11.3 -62.8 10.3 -62.5 9.7 -61.15 9.15 -59.75 Q9.25 -58.95 10.05 -58.5 L11.35 -58.2 Q11.8 -58.3 12.2 -59.1 L12.25 -59.05 12.9 -61.0 M10.6 -63.95 L10.55 -63.5 10.3 -62.5 10.05 -62.45 9.4 -61.0 Q9.1 -60.7 9.15 -59.75 8.15 -58.45 7.85 -58.5 7.55 -58.55 6.7 -59.15 5.85 -59.7 5.85 -60.2 5.85 -60.65 5.05 -60.6 L3.25 -59.95 3.15 -59.1 M10.05 -62.45 L9.45 -62.4 M-3.2 -60.3 L-2.5 -61.95 -1.5 -63.55 Q-1.0 -64.6 -0.75 -64.35 -0.45 -64.1 -0.5 -63.5 L-0.85 -61.95 -1.7 -59.95 Q-2.2 -58.9 -3.1 -58.3 L-1.4 -58.35 Q-0.95 -58.55 -0.6 -58.8 L-0.25 -60.4 Q0.1 -60.9 0.1 -60.6 L-0.1 -59.65 Q-0.3 -58.95 -0.6 -58.8 L0.9 -58.7 Q1.75 -58.8 2.25 -59.55 L2.9 -60.45 3.25 -59.95 M-1.4 -47.15 L0.4 -47.55 2.5 -47.9 Q3.75 -48.05 4.75 -48.8 5.75 -49.5 5.9 -50.0 6.05 -50.5 5.4 -51.0 4.75 -51.5 4.25 -51.4 L2.5 -51.6 M15.85 -56.05 L13.75 -55.8 11.8 -55.65 9.8 -55.4 7.55 -55.3 5.55 -54.95 Q4.8 -54.5 3.8 -54.65 L1.95 -54.65 -0.35 -54.15 -2.55 -53.55 -4.15 -52.95 M12.25 -59.05 Q12.85 -58.1 13.4 -58.35 L14.55 -59.25 15.3 -60.45 Q15.5 -61.0 16.1 -59.9 L17.55 -60.85 18.8 -60.7 Q19.65 -60.25 19.9 -59.25 20.15 -58.2 19.45 -57.45 18.8 -56.65 18.0 -56.55 L16.35 -56.15 M16.1 -59.9 Q16.35 -59.0 15.95 -58.95 15.55 -58.85 15.8 -59.3 L16.1 -59.9 M10.55 -63.5 L10.05 -62.45 M15.15 -42.95 Q14.85 -43.4 15.15 -42.7 L15.0 -42.35 15.1 -42.2 15.2 -42.2 17.05 -42.75 M15.1 -42.2 L15.05 -42.05 15.1 -41.9 15.25 -41.9 15.2 -42.2 M15.0 -42.35 Q14.85 -42.0 15.05 -42.05 M15.1 -41.9 L14.85 -41.55 13.7 -41.7 13.05 -41.4 Q13.0 -41.2 12.5 -41.9 12.45 -42.1 11.7 -41.55 L10.8 -41.1 Q10.1 -41.1 10.35 -41.45 L9.8 -42.0 8.3 -42.25 Q8.2 -42.9 6.65 -42.05 L6.65 -41.4 M10.85 -42.4 Q10.9 -41.85 11.35 -41.5 L10.95 -42.4 10.85 -42.4 10.35 -41.45 10.8 -41.1 11.35 -41.5 11.7 -41.55 11.25 -42.1 10.95 -42.4 M1.25 -41.55 Q0.45 -41.6 0.05 -41.25 L-0.45 -40.85 Q-1.0 -40.65 -1.55 -40.85 -2.05 -41.0 -2.55 -41.6 L-3.55 -41.5 -4.15 -41.65 Q-4.65 -41.6 -5.15 -41.1 M4.05 -41.7 Q4.15 -41.3 5.15 -42.6 L4.15 -42.35 Q3.95 -42.1 4.05 -41.7 M6.65 -42.05 Q6.35 -41.4 6.05 -41.5 5.8 -41.55 5.3 -42.25 L5.15 -42.6 M6.15 -32.55 L6.2 -33.15 Q5.95 -33.55 5.95 -33.15 L5.65 -32.35 Q5.75 -31.05 5.1 -30.7 4.5 -30.35 3.85 -30.15 3.25 -29.9 3.45 -30.15 L4.4 -31.1 5.65 -32.35 Q5.2 -32.55 4.8 -32.95 L4.3 -33.95 Q4.15 -34.55 4.9 -33.55 M14.8 -32.0 Q14.1 -32.55 13.9 -33.05 13.7 -33.5 13.2 -33.35 L12.35 -32.8 Q12.05 -32.4 11.5 -32.8 10.95 -33.2 10.65 -33.1 10.35 -33.0 10.1 -33.7 L10.1 -34.1 10.15 -34.25 9.9 -33.85 9.3 -32.95 8.8 -33.55 Q8.7 -33.2 8.55 -33.55 L7.85 -33.1 7.6 -33.55 Q6.85 -33.9 6.2 -33.15 M7.6 -33.55 Q7.5 -34.0 8.55 -33.55 M1.25 -34.5 L0.05 -33.55 -0.4 -33.0 Q-0.2 -32.65 0.0 -32.9 M12.75 -34.25 L11.3 -34.2 10.1 -34.1 M10.15 -34.25 L10.35 -34.8 M-6.55 -65.7 L-8.15 -65.1 -9.6 -64.5 -9.15 -62.5 Q-9.0 -61.5 -9.5 -60.6 L-10.8 -58.8 Q-11.55 -57.85 -12.25 -57.85 -12.9 -57.85 -13.65 -58.45 L-14.85 -59.9 Q-15.3 -60.7 -15.05 -61.6 M-13.25 -64.4 Q-13.85 -64.9 -14.25 -64.7 -14.6 -64.45 -14.3 -64.35 L-13.25 -64.4 -14.05 -63.35 -14.8 -62.1 M-10.75 -64.5 Q-10.65 -64.25 -9.6 -64.5 L-10.65 -64.75 -10.75 -64.5 M-5.7 -59.7 Q-5.7 -59.4 -6.0 -59.3 -6.3 -59.2 -7.3 -58.85 -8.25 -58.5 -8.0 -59.25 L-7.1 -60.3 Q-6.45 -60.55 -5.7 -59.7 -5.45 -60.25 -5.45 -59.85 L-5.4 -58.8 Q-5.35 -58.15 -4.55 -58.3 L-3.1 -58.3 Q-2.95 -58.7 -3.25 -59.75 M-4.65 -52.85 Q-5.65 -52.35 -6.6 -52.35 -7.55 -52.3 -8.5 -51.65 L-9.95 -50.1 Q-10.45 -49.15 -9.6 -48.35 -8.75 -47.55 -8.0 -47.25 L-5.95 -46.95 -3.8 -47.05 -1.95 -47.05 M-5.65 -42.5 Q-6.45 -41.7 -6.25 -41.4 L-5.8 -40.95 Q-5.6 -40.6 -5.55 -41.25 -6.0 -41.75 -5.65 -42.5 M-5.8 -40.95 Q-6.75 -40.5 -7.15 -40.65 -7.55 -40.75 -7.9 -41.7 -8.8 -41.05 -9.3 -41.1 -9.8 -41.1 -10.15 -41.4 L-10.2 -42.35 M-7.9 -41.7 L-7.65 -43.15 Q-7.5 -43.85 -7.55 -43.4 L-7.5 -42.45 Q-7.4 -41.95 -7.9 -41.7 M-2.9 -42.45 L-2.65 -42.5 -2.15 -43.65 -2.25 -42.55 -0.75 -42.5 0.05 -42.75 M-0.45 -40.85 L-0.85 -41.55 M-2.55 -41.6 Q-2.2 -41.75 -2.6 -42.45 L-2.65 -42.5 M-2.6 -42.45 L-2.25 -42.55 Q-2.15 -41.7 -2.55 -41.6 M-10.3 -44.8 Q-10.35 -43.8 -10.85 -42.8 -11.35 -41.8 -11.8 -41.8 -12.2 -41.75 -12.65 -42.3 L-13.65 -43.3 Q-14.15 -43.75 -13.85 -44.0 M-14.35 -32.7 Q-14.7 -32.9 -13.9 -34.5 -13.0 -35.05 -12.75 -35.9 -12.5 -36.75 -12.25 -36.6 L-11.85 -35.9 -11.55 -34.6 -11.25 -32.9 M-13.9 -34.5 L-12.2 -34.4 -11.55 -34.6 M-10.35 -33.15 L-9.65 -33.6 Q-9.05 -33.65 -8.5 -34.0 L-8.5 -34.05 Q-8.3 -34.6 -7.9 -34.25 L-6.8 -33.25 Q-6.1 -32.55 -5.4 -32.8 -5.95 -33.15 -5.8 -33.55 L-4.95 -34.35 Q-4.35 -34.1 -3.95 -33.2 -3.5 -33.55 -3.1 -34.35 L-3.05 -34.8 M-0.4 -33.0 L-1.7 -33.45 -2.8 -33.2 Q-3.2 -32.85 -3.05 -34.45 L-3.05 -34.4 -3.1 -34.35 M-4.95 -34.35 Q-4.8 -33.95 -4.8 -33.15 L-4.1 -33.2 -3.95 -33.2 M-5.4 -32.8 Q-5.15 -32.45 -4.85 -33.05 L-4.8 -33.15 M-4.1 -33.2 L-4.85 -33.05 M-8.45 -33.75 L-8.5 -34.0" fill="none" stroke="#ffffff" stroke-linecap="round" stroke-linejoin="round" stroke-opacity="0.3019608" stroke-width="0.30000000000000004"/>
      <path d="M8.65 -18.85 Q8.8 -19.8 9.55 -20.55 10.35 -21.25 10.65 -22.35 L11.15 -24.15 Q11.35 -24.9 10.75 -25.6 L9.6 -26.5 8.35 -26.45 7.15 -26.5 5.55 -25.05 4.3 -24.05 Q4.15 -23.9 3.45 -24.45 L2.25 -25.4 0.55 -25.5 Q-0.6 -25.2 -1.1 -24.35 L-1.95 -22.9 M5.5 -15.7 Q6.05 -15.9 6.6 -16.35 L7.85 -17.85 M-1.8 -21.6 L-1.0 -19.85 Q-0.55 -18.7 0.25 -18.05 L1.95 -16.85 3.85 -15.95 4.0 -15.85 5.4 -15.7 5.5 -15.7" fill="none" stroke="#cc3399" stroke-linecap="round" stroke-linejoin="round" stroke-opacity="0.36078432" stroke-width="1.0"/>
    </g>
    <linearGradient gradientTransform="matrix(1.0E-4, 0.0525, -0.0318, -0.0017, 4.9, -49.4)" gradientUnits="userSpaceOnUse" id="decoration69-gradient0" spreadMethod="pad" x1="-819.2" x2="819.2">
      <stop offset="0.0" stop-color="#645a51"/>
      <stop offset="1.0" stop-color="#382e25"/>
    </linearGradient>
  </defs>
</svg>
