<?xml version="1.0" encoding="UTF-8" standalone="no"?>
<svg xmlns:xlink="http://www.w3.org/1999/xlink" height="19.8px" width="36.6px" xmlns="http://www.w3.org/2000/svg">
  <g transform="matrix(1.0, 0.0, 0.0, 1.0, 19.45, 19.35)">
    <use height="19.8" transform="matrix(1.0, 0.0, 0.0, 1.0, -19.45, -19.35)" width="36.6" xlink:href="#decoration70-shape0"/>
  </g>
  <defs>
    <g id="decoration70-shape0" transform="matrix(1.0, 0.0, 0.0, 1.0, 19.45, 19.35)">
      <path d="M17.0 -10.35 L17.0 -2.5 Q17.05 0.2 2.35 0.2 L-3.9 0.05 -19.3 0.05 -19.3 -7.85 -3.9 -7.85 2.35 -7.75 Q16.95 -7.75 17.0 -10.35" fill="url(#decoration70-gradient0)" fill-rule="evenodd" stroke="none"/>
      <path d="M-19.3 -7.85 Q-14.4 -13.7 -3.45 -16.9 L1.8 -17.5 Q7.1 -17.55 7.45 -14.05 16.6 -14.75 17.0 -10.4 L17.0 -10.35 Q16.95 -7.75 2.35 -7.75 L-3.9 -7.85 -19.3 -7.85" fill="url(#decoration70-gradient1)" fill-rule="evenodd" stroke="none"/>
      <path d="M-19.3 -7.85 Q-14.4 -13.7 -3.45 -16.9 L1.8 -17.5 Q7.1 -17.55 7.45 -14.05 16.6 -14.75 17.0 -10.4 L17.0 -10.35 17.0 -2.5 Q17.05 0.2 2.35 0.2 L-3.9 0.05 -19.3 0.05 -19.3 0.3 M17.0 -10.35 Q16.95 -7.75 2.35 -7.75 L-3.9 -7.85 -19.3 -7.85 -19.3 0.05" fill="none" stroke="#000000" stroke-linecap="round" stroke-linejoin="round" stroke-opacity="0.3019608" stroke-width="0.30000000000000004"/>
      <path d="M5.9 -12.95 L4.7 -12.7 Q1.2 -12.6 2.8 -14.2 L3.75 -14.4 Q1.45 -13.2 5.9 -12.95 M13.15 -8.55 L13.15 -0.55 1.55 0.15 1.55 -7.75 Q8.3 -7.5 13.15 -8.55 M0.1 -8.4 L-1.35 -9.0 Q-0.5 -11.3 5.7 -10.9 0.5 -10.6 0.1 -8.4 M-6.7 -10.0 L-7.9 -9.75 Q-6.95 -11.05 -10.2 -11.0 L-9.45 -11.2 Q-6.55 -11.05 -6.7 -10.0" fill="#660021" fill-rule="evenodd" stroke="none"/>
      <path d="M4.7 -12.7 L2.1 -12.05 5.7 -10.9 Q-0.5 -11.3 -1.35 -9.0 L-4.7 -10.45 -6.7 -10.0 Q-6.55 -11.05 -9.45 -11.2 L-7.5 -11.7 -10.25 -12.9 Q-4.7 -12.2 -4.6 -14.2 L-1.35 -13.15 2.8 -14.2 Q1.2 -12.6 4.7 -12.7 M-7.5 -11.7 L-1.35 -13.15 -7.5 -11.7 M-4.7 -10.45 L2.1 -12.05 -4.7 -10.45" fill="#db2864" fill-rule="evenodd" stroke="none"/>
      <path d="M3.75 -14.4 L7.0 -15.25 Q7.5 -14.6 7.4 -14.05 L10.85 -14.1 5.9 -12.95 Q1.45 -13.2 3.75 -14.4 M-7.9 -9.75 L-15.9 -7.85 -19.2 -7.85 -18.55 -9.0 -10.2 -11.0 Q-6.95 -11.05 -7.9 -9.75" fill="#a60d40" fill-rule="evenodd" stroke="none"/>
      <path d="M5.7 -10.9 L13.15 -8.55 Q8.3 -7.5 1.55 -7.75 L0.1 -8.4 Q0.5 -10.6 5.7 -10.9" fill="url(#decoration70-gradient2)" fill-rule="evenodd" stroke="none"/>
      <path d="M-10.25 -12.9 L-11.95 -13.65 -7.85 -15.25 -4.6 -14.2 Q-4.7 -12.2 -10.25 -12.9" fill="url(#decoration70-gradient3)" fill-rule="evenodd" stroke="none"/>
      <path d="M3.75 -14.4 L7.0 -15.25 Q7.5 -14.6 7.4 -14.05 L10.85 -14.1 5.9 -12.95 4.7 -12.7 2.1 -12.05 5.7 -10.9 13.15 -8.55 13.15 -0.55 1.55 0.15 1.55 -7.75 0.1 -8.4 -1.35 -9.0 -4.7 -10.45 -6.7 -10.0 -7.9 -9.75 -15.9 -7.85 -19.2 -7.85 -18.55 -9.0 -10.2 -11.0 -9.45 -11.2 -7.5 -11.7 -10.25 -12.9 -11.95 -13.65 -7.85 -15.25 -4.6 -14.2 -1.35 -13.15 2.8 -14.2 3.75 -14.4 M-1.35 -13.15 L-7.5 -11.7 M2.1 -12.05 L-4.7 -10.45" fill="none" stroke="#000000" stroke-linecap="round" stroke-linejoin="round" stroke-opacity="0.3019608" stroke-width="0.30000000000000004"/>
      <path d="M2.15 -16.9 L1.4 -16.5 2.15 -16.9 Q3.35 -17.8 5.05 -18.0 L5.6 -14.75 5.4 -15.3 4.65 -17.25 Q2.6 -17.05 0.2 -15.1 0.6 -15.95 1.4 -16.5 1.2 -17.55 -0.35 -18.6 -2.15 -17.9 -2.75 -16.8 L-3.4 -17.35 -2.75 -16.8 -1.95 -15.95 -2.35 -16.2 -2.9 -16.6 Q-4.65 -16.0 -5.25 -14.3 L-5.65 -15.65 Q-4.45 -15.95 -3.95 -17.25 -5.45 -18.2 -6.5 -18.2 -7.65 -16.25 -8.05 -14.3 -8.25 -16.6 -6.65 -18.8 -5.1 -18.85 -3.4 -17.35 L-1.9 -18.7 Q-1.2 -19.2 -0.5 -19.2 0.6 -19.2 1.65 -17.75 L2.15 -16.9 M4.1 -13.0 L4.9 -11.8 Q2.5 -13.25 0.0 -12.35 L1.05 -13.45 Q2.25 -12.7 4.1 -13.0 M0.2 -15.1 L0.65 -14.3 Q-1.4 -14.25 -3.4 -13.35 L-3.0 -14.25 Q-1.45 -14.0 0.2 -15.1" fill="#db2864" fill-rule="evenodd" stroke="none"/>
      <path d="M5.4 -15.3 L5.6 -14.75 Q5.65 -13.0 5.1 -11.2 L4.9 -11.8 5.1 -11.2 5.0 -11.05 5.0 -11.0 3.85 -10.65 2.4 -10.4 Q0.4 -8.45 -1.85 -8.4 L-2.6 -8.8 Q-5.0 -10.65 -4.4 -11.6 L-3.8 -12.5 -4.4 -11.6 Q-5.0 -10.65 -2.6 -8.8 -3.55 -8.15 -5.4 -8.45 -7.05 -8.65 -8.45 -9.45 -5.9 -9.3 -5.0 -10.1 -5.15 -10.75 -6.3 -11.7 L-7.3 -11.45 Q-7.85 -12.35 -8.0 -13.65 L-8.05 -14.3 Q-7.45 -13.0 -6.05 -13.35 -6.95 -14.95 -6.15 -17.15 L-5.65 -15.65 -5.25 -14.3 -5.05 -13.85 -4.4 -11.6 Q-5.55 -12.35 -6.05 -13.35 -5.55 -12.35 -4.4 -11.6 L-5.05 -13.85 Q-3.25 -14.0 -2.35 -16.2 L-1.95 -15.95 -3.0 -14.25 -3.4 -13.35 -3.6 -12.95 Q-0.8 -13.05 0.65 -14.3 L0.2 -15.1 5.4 -15.3 M4.1 -13.0 L2.5 -14.4 1.05 -13.45 0.65 -14.3 1.05 -13.45 0.0 -12.35 -1.8 -12.7 -3.8 -12.5 Q-3.7 -10.95 -2.05 -9.55 0.05 -9.45 0.55 -10.95 L0.85 -10.75 Q1.45 -10.5 2.4 -10.4 1.45 -10.5 0.85 -10.75 L0.55 -10.95 Q-0.1 -11.35 -0.15 -11.75 3.4 -10.95 4.9 -11.8 L4.1 -13.0 M-3.6 -12.95 L-3.8 -12.5 -3.6 -12.95 M-4.4 -11.6 L-6.3 -11.7 -4.4 -11.6" fill="#660021" fill-rule="evenodd" stroke="none"/>
      <path d="M-2.75 -16.8 Q-2.15 -17.9 -0.35 -18.6 1.2 -17.55 1.4 -16.5 0.6 -15.95 0.2 -15.1 2.6 -17.05 4.65 -17.25 L5.4 -15.3 0.2 -15.1 Q-0.7 -16.5 -1.25 -16.5 L-1.95 -15.95 -1.25 -16.5 Q-0.7 -16.5 0.2 -15.1 -1.45 -14.0 -3.0 -14.25 L-1.95 -15.95 -2.75 -16.8 M1.05 -13.45 L2.5 -14.4 4.1 -13.0 Q2.25 -12.7 1.05 -13.45 M0.55 -10.95 Q0.05 -9.45 -2.05 -9.55 -3.7 -10.95 -3.8 -12.5 L-1.8 -12.7 0.0 -12.35 Q2.5 -13.25 4.9 -11.8 3.4 -10.95 -0.15 -11.75 L-0.2 -12.0 0.0 -12.35 -0.2 -12.0 -0.15 -11.75 Q-0.1 -11.35 0.55 -10.95 M-5.65 -15.65 L-6.15 -17.15 Q-6.95 -14.95 -6.05 -13.35 -7.45 -13.0 -8.05 -14.3 -7.65 -16.25 -6.5 -18.2 -5.45 -18.2 -3.95 -17.25 -4.45 -15.95 -5.65 -15.65 M-5.05 -13.85 L-5.25 -14.3 Q-4.65 -16.0 -2.9 -16.6 L-2.35 -16.2 Q-3.25 -14.0 -5.05 -13.85 M-3.6 -12.95 L-3.4 -13.35 Q-1.4 -14.25 0.65 -14.3 -0.8 -13.05 -3.6 -12.95 M-8.45 -9.45 L-9.2 -10.0 Q-8.65 -10.95 -7.3 -11.45 L-6.3 -11.7 Q-5.15 -10.75 -5.0 -10.1 -5.9 -9.3 -8.45 -9.45" fill="url(#decoration70-gradient4)" fill-rule="evenodd" stroke="none"/>
      <path d="M1.4 -16.5 L2.15 -16.9 1.65 -17.75 Q0.6 -19.2 -0.5 -19.2 -1.2 -19.2 -1.9 -18.7 L-3.4 -17.35 -2.75 -16.8 M1.4 -16.5 Q0.6 -15.95 0.2 -15.1 L0.65 -14.3 1.05 -13.45 2.5 -14.4 4.1 -13.0 4.9 -11.8 5.1 -11.2 Q5.65 -13.0 5.6 -14.75 L5.05 -18.0 Q3.35 -17.8 2.15 -16.9 M0.2 -15.1 Q-0.7 -16.5 -1.25 -16.5 L-1.95 -15.95 -3.0 -14.25 M2.4 -10.4 Q1.45 -10.5 0.85 -10.75 L0.55 -10.95 Q-0.1 -11.35 -0.15 -11.75 M-3.8 -12.5 L-4.4 -11.6 Q-5.0 -10.65 -2.6 -8.8 L-1.85 -8.4 Q0.4 -8.45 2.4 -10.4 L3.85 -10.65 5.0 -11.0 5.0 -11.05 5.1 -11.2 M0.0 -12.35 L-0.2 -12.0 -0.15 -11.75 M0.0 -12.35 L1.05 -13.45 M-6.05 -13.35 Q-6.95 -14.95 -6.15 -17.15 L-5.65 -15.65 M-6.05 -13.35 Q-5.55 -12.35 -4.4 -11.6 L-5.05 -13.85 -5.25 -14.3 -5.65 -15.65 M-7.3 -11.45 Q-7.85 -12.35 -8.0 -13.65 L-8.05 -14.3 Q-8.25 -16.6 -6.65 -18.8 -5.1 -18.85 -3.4 -17.35 M-1.95 -15.95 L-2.75 -16.8 M-3.4 -13.35 L-3.0 -14.25 M-3.8 -12.5 L-3.6 -12.95 -3.4 -13.35 M0.0 -12.35 L-1.8 -12.7 -3.8 -12.5 M-8.45 -9.45 Q-7.05 -8.65 -5.4 -8.45 -3.55 -8.15 -2.6 -8.8 M-8.45 -9.45 L-9.2 -10.0 Q-8.65 -10.95 -7.3 -11.45 L-6.3 -11.7 -4.4 -11.6" fill="none" stroke="#000000" stroke-linecap="round" stroke-linejoin="round" stroke-opacity="0.3019608" stroke-width="0.30000000000000004"/>
    </g>
    <linearGradient gradientTransform="matrix(0.0222, 0.0, 0.0, 0.0064, -1.15, -5.1)" gradientUnits="userSpaceOnUse" id="decoration70-gradient0" spreadMethod="pad" x1="-819.2" x2="819.2">
      <stop offset="0.0" stop-color="#791620"/>
      <stop offset="0.15294117647058825" stop-color="#982e39"/>
      <stop offset="0.5333333333333333" stop-color="#b4404c"/>
      <stop offset="1.0" stop-color="#831a25"/>
    </linearGradient>
    <linearGradient gradientTransform="matrix(-0.0073, 0.0126, -0.0051, -0.003, -1.25, -12.45)" gradientUnits="userSpaceOnUse" id="decoration70-gradient1" spreadMethod="pad" x1="-819.2" x2="819.2">
      <stop offset="0.0" stop-color="#ff8390"/>
      <stop offset="1.0" stop-color="#cc5865"/>
    </linearGradient>
    <linearGradient gradientTransform="matrix(-0.0056, -0.0032, 0.001, -0.0017, 7.6, -8.95)" gradientUnits="userSpaceOnUse" id="decoration70-gradient2" spreadMethod="pad" x1="-819.2" x2="819.2">
      <stop offset="0.0" stop-color="#d42c64"/>
      <stop offset="1.0" stop-color="#a60d40"/>
    </linearGradient>
    <linearGradient gradientTransform="matrix(0.0022, 0.0039, -0.0013, 8.0E-4, -8.25, -14.0)" gradientUnits="userSpaceOnUse" id="decoration70-gradient3" spreadMethod="pad" x1="-819.2" x2="819.2">
      <stop offset="0.0" stop-color="#d42c64"/>
      <stop offset="1.0" stop-color="#a60d40"/>
    </linearGradient>
    <radialGradient cx="0" cy="0" gradientTransform="matrix(0.0059, 0.0, 0.0, 0.0059, -1.4, -15.05)" gradientUnits="userSpaceOnUse" id="decoration70-gradient4" r="819.2" spreadMethod="pad">
      <stop offset="0.0" stop-color="#db2864"/>
      <stop offset="1.0" stop-color="#a60d40"/>
    </radialGradient>
  </defs>
</svg>
