<?xml version="1.0" encoding="UTF-8" standalone="no"?>
<svg xmlns:xlink="http://www.w3.org/1999/xlink" height="51.0px" width="11.85px" xmlns="http://www.w3.org/2000/svg">
  <g transform="matrix(1.0, 0.0, 0.0, 1.0, 6.55, 50.4)">
    <use height="40.5" transform="matrix(1.0, 0.0, 0.0, 1.0, -6.55, -50.4)" width="11.85" xlink:href="#decoration71-shape0"/>
    <use height="0.0" transform="matrix(0.0462, 0.0029, 0.0028, 0.0664, -2.75, -44.5)" width="0.0" xlink:href="#decoration71-sprite0"/>
    <use height="13.65" transform="matrix(1.0, 0.0, 0.0, 1.0, -3.95, -13.05)" width="7.45" xlink:href="#decoration71-shape1"/>
  </g>
  <defs>
    <g id="decoration71-shape0" transform="matrix(1.0, 0.0, 0.0, 1.0, 6.55, 50.4)">
      <path d="M5.3 -40.7 Q5.3 -36.7 3.5 -33.85 1.8 -31.05 -0.6 -31.05 -3.1 -31.05 -4.8 -33.85 -6.55 -36.7 -6.55 -40.7 -6.55 -44.75 -4.8 -47.6 -3.1 -50.4 -0.6 -50.4 1.8 -50.4 3.5 -47.6 5.3 -44.75 5.3 -40.7" fill="url(#decoration71-gradient0)" fill-rule="evenodd" stroke="none"/>
      <path d="M-3.65 -29.95 Q-2.8 -32.05 -2.4 -35.85 L-2.4 -36.75 -0.3 -37.15 1.75 -36.8 Q1.9 -36.0 2.4 -35.3 L2.95 -34.3 Q2.05 -34.1 1.45 -34.65 1.1 -35.05 0.85 -35.7 L1.75 -27.45 Q1.85 -26.6 2.25 -25.45 L2.8 -23.7 Q2.95 -23.1 2.6 -22.65 1.45 -23.3 0.85 -26.05 L0.85 -10.05 -2.4 -10.05 -2.4 -16.75 -1.55 -33.05 -2.1 -30.7 -2.5 -30.05 -3.65 -29.95" fill="#b42509" fill-rule="evenodd" stroke="none"/>
      <path d="M-3.65 -29.95 L-2.5 -30.05 -2.1 -30.7 -1.55 -33.05 -2.4 -16.75 -2.4 -29.0 Q-3.45 -28.55 -3.65 -29.95 M0.85 -10.05 L0.85 -26.05 Q1.45 -23.3 2.6 -22.65 L1.75 -22.6 1.75 -10.05 0.85 -10.05 M1.75 -27.45 L0.85 -35.7 Q1.1 -35.05 1.45 -34.65 2.05 -34.1 2.95 -34.3 2.35 -33.1 1.75 -33.4 L1.75 -27.45" fill="#771300" fill-rule="evenodd" stroke="none"/>
      <path d="M2.95 -34.3 L2.4 -35.3 Q1.9 -36.0 1.75 -36.8 L-0.3 -37.15 -2.4 -36.75 -2.4 -35.85 Q-2.8 -32.05 -3.65 -29.95 M-2.4 -16.75 L-2.4 -10.05 M2.6 -22.65 Q2.95 -23.1 2.8 -23.7 L2.25 -25.45 Q1.85 -26.6 1.75 -27.45 M2.95 -34.3 Q2.35 -33.1 1.75 -33.4 L1.75 -27.45 M2.6 -22.65 L1.75 -22.6 1.75 -10.05 M-2.4 -16.75 L-2.4 -29.0 Q-3.45 -28.55 -3.65 -29.95 M-0.3 -37.15 L-0.3 -38.5" fill="none" stroke="#000000" stroke-linecap="round" stroke-linejoin="round" stroke-opacity="0.3019608" stroke-width="0.30000000000000004"/>
      <path d="M-0.55 -38.35 L-0.65 -38.35 Q-2.7 -38.75 -2.35 -40.5 -1.95 -42.4 -1.0 -43.5 0.2 -45.4 -0.45 -47.6 0.95 -44.85 -0.1 -42.7 L0.1 -41.65 0.75 -40.55 Q1.3 -39.5 1.0 -39.0 0.65 -38.5 0.0 -38.5 0.6 -39.35 0.05 -40.05 -0.85 -41.05 -0.9 -42.3 L-0.95 -39.35 Q-1.6 -39.55 -1.35 -41.0 -2.35 -39.3 -0.55 -38.35" fill="url(#decoration71-gradient1)" fill-rule="evenodd" stroke="none"/>
      <path d="M0.0 -38.5 L-0.4 -38.35 -0.55 -38.35 Q-2.35 -39.3 -1.35 -41.0 -1.6 -39.55 -0.95 -39.35 L-0.9 -42.3 Q-0.85 -41.05 0.05 -40.05 0.6 -39.35 0.0 -38.5" fill="#fff1b4" fill-rule="evenodd" stroke="none"/>
    </g>
    <radialGradient cx="0" cy="0" gradientTransform="matrix(0.0069, 0.0, 0.0, 0.0117, -0.6, -40.7)" gradientUnits="userSpaceOnUse" id="decoration71-gradient0" r="819.2" spreadMethod="pad">
      <stop offset="0.0" stop-color="#fffdf5" stop-opacity="0.8784314"/>
      <stop offset="0.14901960784313725" stop-color="#ffd202" stop-opacity="0.7019608"/>
      <stop offset="0.39215686274509803" stop-color="#f79331" stop-opacity="0.5411765"/>
      <stop offset="0.615686274509804" stop-color="#fcc86f" stop-opacity="0.14117648"/>
      <stop offset="1.0" stop-color="#ffdd87" stop-opacity="0.0"/>
    </radialGradient>
    <linearGradient gradientTransform="matrix(0.0, 0.0037, -0.0044, 0.0, -0.9, -40.75)" gradientUnits="userSpaceOnUse" id="decoration71-gradient1" spreadMethod="pad" x1="-819.2" x2="819.2">
      <stop offset="0.0" stop-color="#f35225"/>
      <stop offset="0.9882352941176471" stop-color="#ffe362"/>
    </linearGradient>
    <g id="decoration71-shape1" transform="matrix(1.0, 0.0, 0.0, 1.0, 3.95, 13.05)">
      <path d="M1.35 -8.95 Q0.95 -7.65 0.9 -6.25 L0.95 -5.7 Q1.4 -2.3 2.85 -0.95 4.75 0.8 -0.9 0.4 -1.3 -1.75 -2.4 -2.3 -1.65 -3.6 -1.2 -5.35 L-1.2 -5.7 -1.9 -8.85 1.35 -8.95" fill="#9f9494" fill-rule="evenodd" stroke="none"/>
      <path d="M-2.4 -2.3 Q-1.3 -1.75 -0.9 0.4 -4.2 0.5 -3.75 -0.45 -3.0 -1.25 -2.4 -2.3" fill="#dedcdc" fill-rule="evenodd" stroke="none"/>
      <path d="M-0.9 0.4 Q4.75 0.8 2.85 -0.95 1.4 -2.3 0.95 -5.7 L0.9 -6.25 Q0.95 -7.65 1.35 -8.95 M-1.9 -8.85 L-1.2 -5.7 -1.2 -5.35 Q-1.65 -3.6 -2.4 -2.3 M-0.9 0.4 Q-4.2 0.5 -3.75 -0.45 -3.0 -1.25 -2.4 -2.3" fill="none" stroke="#000000" stroke-linecap="round" stroke-linejoin="round" stroke-opacity="0.3019608" stroke-width="0.30000000000000004"/>
      <path d="M-3.15 -11.1 Q-3.15 -12.1 -2.6 -12.9 -2.3 -12.55 -1.55 -12.4 L-0.2 -12.35 0.95 -12.4 Q1.4 -10.0 0.45 -9.85 L-1.65 -9.85 Q-2.05 -9.9 -2.6 -10.55 L-3.15 -11.1" fill="#dedcdc" fill-rule="evenodd" stroke="none"/>
      <path d="M0.95 -12.4 L1.05 -12.4 1.95 -12.9 Q2.75 -11.95 2.7 -10.7 2.6 -9.6 1.95 -8.85 L1.45 -8.7 Q-0.15 -8.35 -1.8 -8.65 L-2.6 -8.85 Q-3.15 -9.35 -3.15 -10.3 L-3.15 -11.1 -2.6 -10.55 Q-2.05 -9.9 -1.65 -9.85 L0.45 -9.85 Q1.4 -10.0 0.95 -12.4" fill="#9f9494" fill-rule="evenodd" stroke="none"/>
      <path d="M0.95 -12.4 L1.05 -12.4 1.95 -12.9 Q2.75 -11.95 2.7 -10.7 2.6 -9.6 1.95 -8.85 L1.45 -8.7 Q-0.15 -8.35 -1.8 -8.65 L-2.6 -8.85 Q-3.15 -9.35 -3.15 -10.3 L-3.15 -11.1 Q-3.15 -12.1 -2.6 -12.9 -2.3 -12.55 -1.55 -12.4 L-0.2 -12.35 0.95 -12.4 Z" fill="none" stroke="#000000" stroke-linecap="round" stroke-linejoin="round" stroke-opacity="0.3019608" stroke-width="0.30000000000000004"/>
    </g>
  </defs>
</svg>
