<?xml version="1.0" encoding="UTF-8" standalone="no"?>
<svg xmlns:ffdec="https://www.free-decompiler.com/flash" xmlns:xlink="http://www.w3.org/1999/xlink" ffdec:objectType="frame" height="48.25px" width="49.0px" xmlns="http://www.w3.org/2000/svg">
  <g transform="matrix(1.0, 0.0, 0.0, 1.0, 26.05, 47.85)">
    <use ffdec:characterId="613" height="48.25" transform="matrix(1.0, 0.0, 0.0, 1.0, -26.05, -47.85)" width="44.3" xlink:href="#decoration72-shape0"/>
    <use ffdec:characterId="615" height="9.9" transform="matrix(0.919, -0.3942, 0.3942, 0.919, -16.2566, -32.733)" width="12.1" xlink:href="#decoration72-sprite0"/>
    <use ffdec:characterId="615" height="9.9" transform="matrix(0.9659, 0.2588, -0.2386, 0.8903, -4.2797, -43.8749)" width="12.1" xlink:href="#decoration72-sprite0"/>
    <use ffdec:characterId="616" height="17.25" transform="matrix(1.0, 0.0, 0.0, 1.0, 5.35, -35.75)" width="17.6" xlink:href="#decoration72-shape2"/>
    <use ffdec:characterId="615" height="9.9" transform="matrix(-0.8754, -0.2346, -0.2588, 0.9659, 15.286, -33.0983)" width="12.1" xlink:href="#decoration72-sprite0"/>
    <use ffdec:characterId="615" height="9.9" transform="matrix(-0.9327, -0.2499, -0.2758, 1.0292, 18.7777, -26.2694)" width="12.1" xlink:href="#decoration72-sprite0"/>
    <use ffdec:characterId="615" height="9.9" transform="matrix(0.9146, -0.4307, 0.4307, 0.9146, -17.4771, -23.7689)" width="12.1" xlink:href="#decoration72-sprite0"/>
    <use ffdec:characterId="615" height="9.9" transform="matrix(0.9994, -0.0347, 0.0347, 0.9994, -5.6675, -34.2436)" width="12.1" xlink:href="#decoration72-sprite0"/>
    <use ffdec:characterId="615" height="9.9" transform="matrix(-0.8301, 0.4792, 0.5288, 0.916, 3.8433, -29.5081)" width="12.1" xlink:href="#decoration72-sprite0"/>
  </g>
  <defs>
    <g id="decoration72-shape0" transform="matrix(1.0, 0.0, 0.0, 1.0, 26.05, 47.85)">
      <path d="M9.3 -40.15 Q13.25 -45.65 18.1 -47.7 13.55 -45.55 9.8 -40.4 8.15 -38.25 6.8 -35.6 1.95 -26.6 2.25 -18.7 L1.4 -17.5 Q1.65 -27.15 6.65 -36.1 L9.3 -40.15" fill="url(#decoration72-gradient0)" fill-rule="evenodd" stroke="none"/>
      <path d="M9.3 -40.15 Q13.25 -45.65 18.1 -47.7 13.55 -45.55 9.8 -40.4 8.15 -38.25 6.8 -35.6 1.95 -26.6 2.25 -18.7 L1.4 -17.5 Q1.65 -27.15 6.65 -36.1 L9.3 -40.15 Z" fill="none" stroke="#000000" stroke-linecap="round" stroke-linejoin="round" stroke-opacity="0.3019608" stroke-width="0.30000000000000004"/>
      <path d="M-14.15 -33.05 Q-7.65 -30.4 -4.1 -18.7 L-5.05 -18.7 Q-7.65 -29.25 -14.1 -32.2 -20.55 -35.2 -25.9 -27.9 -20.65 -35.65 -14.15 -33.05" fill="url(#decoration72-gradient1)" fill-rule="evenodd" stroke="none"/>
      <path d="M-14.15 -33.05 Q-20.65 -35.65 -25.9 -27.9 -20.55 -35.2 -14.1 -32.2 -7.65 -29.25 -5.05 -18.7 L-4.1 -18.7 Q-7.65 -30.4 -14.15 -33.05 Z" fill="none" stroke="#000000" stroke-linecap="round" stroke-linejoin="round" stroke-opacity="0.3019608" stroke-width="0.30000000000000004"/>
      <path d="M-0.25 -38.7 L0.8 -38.7 Q-1.7 -26.1 -0.4 -14.25 L-1.6 -14.25 Q-2.25 -26.4 -0.25 -38.7" fill="url(#decoration72-gradient2)" fill-rule="evenodd" stroke="none"/>
      <path d="M-0.25 -38.7 L0.8 -38.7 Q-1.7 -26.1 -0.4 -14.25 L-1.6 -14.25 Q-2.25 -26.4 -0.25 -38.7 Z" fill="none" stroke="#000000" stroke-linecap="round" stroke-linejoin="round" stroke-opacity="0.3019608" stroke-width="0.30000000000000004"/>
      <path d="M-1.7 -14.2 L-2.85 -13.95 Q-3.65 -22.65 -8.25 -30.95 L-7.2 -31.2 Q-3.2 -22.95 -1.7 -14.2" fill="url(#decoration72-gradient3)" fill-rule="evenodd" stroke="none"/>
      <path d="M-1.7 -14.2 Q-3.2 -22.95 -7.2 -31.2 L-8.25 -30.95 Q-3.65 -22.65 -2.85 -13.95 L-1.7 -14.2 Z" fill="none" stroke="#000000" stroke-linecap="round" stroke-linejoin="round" stroke-opacity="0.3019608" stroke-width="0.30000000000000004"/>
      <path d="M-12.05 -22.55 Q-6.75 -23.85 -1.9 -18.85 L-2.6 -18.45 Q-6.55 -23.2 -11.85 -22.1 -17.15 -21.0 -19.75 -14.65 -17.35 -21.2 -12.05 -22.55" fill="url(#decoration72-gradient4)" fill-rule="evenodd" stroke="none"/>
      <path d="M-12.05 -22.55 Q-17.35 -21.2 -19.75 -14.65 -17.15 -21.0 -11.85 -22.1 -6.55 -23.2 -2.6 -18.45 L-1.9 -18.85 Q-6.75 -23.85 -12.05 -22.55 Z" fill="none" stroke="#000000" stroke-linecap="round" stroke-linejoin="round" stroke-opacity="0.3019608" stroke-width="0.30000000000000004"/>
      <path d="M2.9 -14.0 L1.75 -14.25 Q3.25 -23.0 7.25 -31.25 L8.3 -31.0 Q3.7 -22.7 2.9 -14.0" fill="url(#decoration72-gradient5)" fill-rule="evenodd" stroke="none"/>
      <path d="M2.9 -14.0 L1.75 -14.25 Q3.25 -23.0 7.25 -31.25 L8.3 -31.0 Q3.7 -22.7 2.9 -14.0 Z" fill="none" stroke="#000000" stroke-linecap="round" stroke-linejoin="round" stroke-opacity="0.3019608" stroke-width="0.30000000000000004"/>
      <path d="M5.4 -19.1 L8.3 -19.1 5.4 0.25 -4.7 0.25 -5.8 -7.75 Q-4.35 -1.9 -1.05 -2.6 5.55 -3.85 5.4 -19.1" fill="#230407" fill-rule="evenodd" stroke="none"/>
      <path d="M-5.8 -7.75 L-7.4 -19.1 5.4 -19.1 Q5.55 -3.85 -1.05 -2.6 -4.35 -1.9 -5.8 -7.75" fill="url(#decoration72-gradient6)" fill-rule="evenodd" stroke="none"/>
      <path d="M5.4 -19.1 L8.3 -19.1 5.4 0.25 -4.7 0.25 -5.8 -7.75 -7.4 -19.1 5.4 -19.1 Z" fill="none" stroke="#000000" stroke-linecap="round" stroke-linejoin="round" stroke-opacity="0.3019608" stroke-width="0.30000000000000004"/>
    </g>
    <linearGradient gradientTransform="matrix(-0.0076, 0.0164, 0.0063, -0.0028, 9.05, -33.95)" gradientUnits="userSpaceOnUse" id="decoration72-gradient0" spreadMethod="pad" x1="-819.2" x2="819.2">
      <stop offset="0.0" stop-color="#5e8a3b"/>
      <stop offset="0.9529411764705882" stop-color="#293f17"/>
    </linearGradient>
    <linearGradient gradientTransform="matrix(0.0109, 0.0076, -0.0052, 0.0075, -15.0, -26.2)" gradientUnits="userSpaceOnUse" id="decoration72-gradient1" spreadMethod="pad" x1="-819.2" x2="819.2">
      <stop offset="0.0" stop-color="#5e8a3b"/>
      <stop offset="0.9529411764705882" stop-color="#293f17"/>
    </linearGradient>
    <linearGradient gradientTransform="matrix(0.0024, 0.0041, -0.0129, 0.0075, 3.9, -32.9)" gradientUnits="userSpaceOnUse" id="decoration72-gradient2" spreadMethod="pad" x1="-819.2" x2="819.2">
      <stop offset="0.0" stop-color="#5e8a3b"/>
      <stop offset="0.9529411764705882" stop-color="#293f17"/>
    </linearGradient>
    <linearGradient gradientTransform="matrix(-0.0016, 0.0035, 0.0138, 0.0022, -10.3, -26.1)" gradientUnits="userSpaceOnUse" id="decoration72-gradient3" spreadMethod="pad" x1="-819.2" x2="819.2">
      <stop offset="0.0" stop-color="#5e8a3b"/>
      <stop offset="0.9529411764705882" stop-color="#293f17"/>
    </linearGradient>
    <linearGradient gradientTransform="matrix(0.0095, -4.0E-4, -0.0025, 0.0064, -11.35, -18.35)" gradientUnits="userSpaceOnUse" id="decoration72-gradient4" spreadMethod="pad" x1="-819.2" x2="819.2">
      <stop offset="0.0" stop-color="#5e8a3b"/>
      <stop offset="0.9529411764705882" stop-color="#293f17"/>
    </linearGradient>
    <linearGradient gradientTransform="matrix(0.0016, 0.0035, -0.0138, 0.0022, 10.35, -26.15)" gradientUnits="userSpaceOnUse" id="decoration72-gradient5" spreadMethod="pad" x1="-819.2" x2="819.2">
      <stop offset="0.0" stop-color="#5e8a3b"/>
      <stop offset="0.9529411764705882" stop-color="#293f17"/>
    </linearGradient>
    <radialGradient cx="0" cy="0" gradientTransform="matrix(0.0196, 0.0, 0.0, 0.0196, -4.9, -20.0)" gradientUnits="userSpaceOnUse" id="decoration72-gradient6" r="819.2" spreadMethod="pad">
      <stop offset="0.0" stop-color="#80242c"/>
      <stop offset="1.0" stop-color="#3a090d"/>
    </radialGradient>
    <g id="decoration72-sprite0" transform="matrix(1.0, 0.0, 0.0, 1.0, 0.15, 1.95)">
      <use ffdec:characterId="614" height="9.9" transform="matrix(1.0, 0.0, 0.0, 1.0, -0.15, -1.95)" width="12.1" xlink:href="#decoration72-shape1"/>
    </g>
    <g id="decoration72-shape1" transform="matrix(1.0, 0.0, 0.0, 1.0, 0.15, 1.95)">
      <path d="M2.95 1.95 L3.75 1.75 Q4.55 1.45 4.7 0.65 L5.7 -1.05 5.65 -1.05 5.7 -1.1 7.5 -0.5 9.05 0.3 Q9.0 0.9 8.25 2.1 L8.0 2.5 Q7.9 1.75 7.5 1.3 L7.0 0.55 6.95 0.35 6.9 0.25 6.9 0.15 5.65 0.35 4.7 0.65 5.65 0.35 6.9 0.15 6.9 0.25 6.95 0.35 Q5.9 2.3 4.3 2.45 L2.95 1.95 M5.7 -1.05 L6.9 0.15 5.7 -1.05" fill="#870e00" fill-rule="evenodd" stroke="none"/>
      <path d="M6.95 0.35 L7.0 0.55 7.2 1.35 6.85 1.85 Q5.85 2.65 4.3 2.45 5.9 2.3 6.95 0.35" fill="#cd1600" fill-rule="evenodd" stroke="none"/>
      <path d="M2.95 -0.5 Q3.45 -1.6 4.0 -1.8 4.45 -1.9 5.65 -1.05 L5.7 -1.05 4.7 0.65 Q4.55 1.45 3.75 1.75 L2.95 1.95 2.9 1.95 Q2.75 3.0 4.1 3.6 L3.3 4.1 Q1.95 4.35 1.8 3.7 L1.65 3.35 1.65 3.2 Q1.35 1.45 2.95 -0.5" fill="url(#decoration72-gradient7)" fill-rule="evenodd" stroke="none"/>
      <path d="M2.95 -0.5 Q1.35 1.45 1.65 3.2 L1.65 3.35 1.8 4.35 2.35 5.4 3.75 5.95 3.25 6.0 1.55 5.45 0.5 4.9 Q-0.05 3.75 0.0 2.55 0.0 1.4 0.1 1.4 L1.1 0.5 1.85 -0.3 2.95 -0.5" fill="url(#decoration72-gradient8)" fill-rule="evenodd" stroke="none"/>
      <path d="M7.5 -0.5 L7.3 -1.1 Q7.3 -1.45 7.95 -1.5 L9.7 -1.1 10.95 -1.1 11.55 -0.45 11.65 -0.2 Q11.75 0.55 10.6 2.15 L8.35 4.25 Q10.2 2.65 9.1 0.55 L9.05 0.3 7.5 -0.5" fill="url(#decoration72-gradient9)" fill-rule="evenodd" stroke="none"/>
      <path d="M11.55 -0.45 L11.75 0.0 Q11.95 1.1 11.55 2.9 11.0 5.1 9.9 6.15 9.1 6.75 7.5 7.25 1.95 9.05 0.5 4.9 L1.55 5.45 3.25 6.0 3.75 5.95 4.3 5.75 4.35 5.7 4.35 5.65 Q4.6 5.1 6.1 4.6 L8.35 4.25 10.6 2.15 Q11.75 0.55 11.65 -0.2 L11.55 -0.45 M7.5 7.25 L5.95 7.2 Q4.45 7.0 4.3 6.15 L4.3 5.75 4.3 6.15 Q4.45 7.0 5.95 7.2 L7.5 7.25" fill="url(#decoration72-gradient10)" fill-rule="evenodd" stroke="none"/>
      <path d="M1.65 3.35 L1.8 3.7 Q1.95 4.35 3.3 4.1 L4.1 3.6 4.7 3.45 7.0 3.55 8.0 2.5 8.25 2.1 Q9.0 0.9 9.05 0.3 L9.1 0.55 Q10.2 2.65 8.35 4.25 L6.1 4.6 Q4.6 5.1 4.35 5.65 L4.3 5.75 3.75 5.95 2.35 5.4 1.8 4.35 1.65 3.35" fill="url(#decoration72-gradient11)" fill-rule="evenodd" stroke="none"/>
      <path d="M4.1 3.6 Q2.75 3.0 2.9 1.95 L2.95 1.95 4.3 2.45 Q5.85 2.65 6.85 1.85 L7.2 1.35 7.0 0.55 7.5 1.3 Q7.9 1.75 8.0 2.5 L7.0 3.55 4.7 3.45 4.1 3.6" fill="url(#decoration72-gradient12)" fill-rule="evenodd" stroke="none"/>
      <path d="M5.65 -1.05 Q4.45 -1.9 4.0 -1.8 3.45 -1.6 2.95 -0.5 1.35 1.45 1.65 3.2 L1.65 3.35 1.8 3.7 Q1.95 4.35 3.3 4.1 L4.1 3.6 Q2.75 3.0 2.9 1.95 L2.95 1.95 3.75 1.75 Q4.55 1.45 4.7 0.65 L5.7 -1.05 5.65 -1.05 5.7 -1.1 7.5 -0.5 7.3 -1.1 Q7.3 -1.45 7.95 -1.5 L9.7 -1.1 10.95 -1.1 11.55 -0.45 11.75 0.0 Q11.95 1.1 11.55 2.9 11.0 5.1 9.9 6.15 9.1 6.75 7.5 7.25 1.95 9.05 0.5 4.9 -0.05 3.75 0.0 2.55 0.0 1.4 0.1 1.4 L1.1 0.5 1.85 -0.3 2.95 -0.5 M11.55 -0.45 L11.65 -0.2 Q11.75 0.55 10.6 2.15 L8.35 4.25 6.1 4.6 Q4.6 5.1 4.35 5.65 L4.35 5.7 4.3 5.75 4.3 6.15 Q4.45 7.0 5.95 7.2 L7.5 7.25 M9.05 0.3 L9.1 0.55 Q10.2 2.65 8.35 4.25 M8.0 2.5 L8.25 2.1 Q9.0 0.9 9.05 0.3 L7.5 -0.5 M6.95 0.35 L7.0 0.55 7.5 1.3 Q7.9 1.75 8.0 2.5 L7.0 3.55 4.7 3.45 4.1 3.6 M7.0 0.55 L7.2 1.35 6.85 1.85 Q5.85 2.65 4.3 2.45 L2.95 1.95 M6.95 0.35 L6.9 0.25 6.9 0.15 5.65 0.35 4.7 0.65 M3.75 5.95 L2.35 5.4 1.8 4.35 1.65 3.35 M0.5 4.9 L1.55 5.45 3.25 6.0 3.75 5.95 4.3 5.75 4.35 5.65 M6.9 0.15 L5.7 -1.05" fill="none" stroke="#000000" stroke-linecap="round" stroke-linejoin="round" stroke-opacity="0.3019608" stroke-width="0.30000000000000004"/>
    </g>
    <linearGradient gradientTransform="matrix(0.0013, 0.0022, -0.0032, 0.0018, 4.3, 2.45)" gradientUnits="userSpaceOnUse" id="decoration72-gradient7" spreadMethod="pad" x1="-819.2" x2="819.2">
      <stop offset="0.0" stop-color="#870e00"/>
      <stop offset="0.9529411764705882" stop-color="#460700"/>
    </linearGradient>
    <linearGradient gradientTransform="matrix(0.0011, 0.002, -0.0034, 0.002, 2.4, 4.25)" gradientUnits="userSpaceOnUse" id="decoration72-gradient8" spreadMethod="pad" x1="-819.2" x2="819.2">
      <stop offset="0.0" stop-color="#870e00"/>
      <stop offset="0.9529411764705882" stop-color="#460700"/>
    </linearGradient>
    <linearGradient gradientTransform="matrix(0.0, 0.0034, -0.0035, 0.0, 9.3, 2.5)" gradientUnits="userSpaceOnUse" id="decoration72-gradient9" spreadMethod="pad" x1="-819.2" x2="819.2">
      <stop offset="0.0" stop-color="#870e00"/>
      <stop offset="0.9529411764705882" stop-color="#460700"/>
    </linearGradient>
    <linearGradient gradientTransform="matrix(0.0014, 0.0023, -0.0041, 0.0024, 8.25, 3.5)" gradientUnits="userSpaceOnUse" id="decoration72-gradient10" spreadMethod="pad" x1="-819.2" x2="819.2">
      <stop offset="0.0" stop-color="#ff4646"/>
      <stop offset="0.9725490196078431" stop-color="#a31100"/>
    </linearGradient>
    <linearGradient gradientTransform="matrix(0.0027, 0.0015, -0.0017, 0.003, 4.6, 3.35)" gradientUnits="userSpaceOnUse" id="decoration72-gradient11" spreadMethod="pad" x1="-819.2" x2="819.2">
      <stop offset="0.0" stop-color="#ff4646"/>
      <stop offset="0.9725490196078431" stop-color="#a31100"/>
    </linearGradient>
    <linearGradient gradientTransform="matrix(0.0, 0.0031, -0.002, 0.0, 5.55, 1.15)" gradientUnits="userSpaceOnUse" id="decoration72-gradient12" spreadMethod="pad" x1="-819.2" x2="819.2">
      <stop offset="0.0" stop-color="#ff4646"/>
      <stop offset="0.9725490196078431" stop-color="#a31100"/>
    </linearGradient>
    <g id="decoration72-shape2" transform="matrix(1.0, 0.0, 0.0, 1.0, -5.35, 35.75)">
      <path d="M6.35 -19.15 L5.5 -18.65 Q6.55 -27.4 11.7 -32.2 13.05 -33.4 14.35 -34.15 18.35 -36.5 22.8 -35.0 18.6 -36.2 14.85 -34.0 13.25 -33.15 11.8 -31.65 6.75 -26.7 6.35 -19.15" fill="url(#decoration72-gradient13)" fill-rule="evenodd" stroke="none"/>
      <path d="M6.35 -19.15 L5.5 -18.65 Q6.55 -27.4 11.7 -32.2 13.05 -33.4 14.35 -34.15 18.35 -36.5 22.8 -35.0 18.6 -36.2 14.85 -34.0 13.25 -33.15 11.8 -31.65 6.75 -26.7 6.35 -19.15 Z" fill="none" stroke="#000000" stroke-linecap="round" stroke-linejoin="round" stroke-opacity="0.3019608" stroke-width="0.30000000000000004"/>
    </g>
    <linearGradient gradientTransform="matrix(-0.0081, 0.0099, 0.0058, 0.0018, 13.65, -28.55)" gradientUnits="userSpaceOnUse" id="decoration72-gradient13" spreadMethod="pad" x1="-819.2" x2="819.2">
      <stop offset="0.0" stop-color="#5e8a3b"/>
      <stop offset="0.9529411764705882" stop-color="#293f17"/>
    </linearGradient>
  </defs>
</svg>
