<?xml version="1.0" encoding="UTF-8" standalone="no"?>
<svg xmlns:xlink="http://www.w3.org/1999/xlink" height="108.8px" width="65.45px" xmlns="http://www.w3.org/2000/svg">
  <g transform="matrix(1.0, 0.0, 0.0, 1.0, 16.4, 0.25)">
    <use height="108.8" transform="matrix(1.0, 0.0, 0.0, 1.0, -16.4, -0.25)" width="65.45" xlink:href="#decoration74-shape0"/>
  </g>
  <defs>
    <g id="decoration74-shape0" transform="matrix(1.0, 0.0, 0.0, 1.0, 16.4, 0.25)">
      <path d="M3.15 63.9 Q3.65 65.4 1.9 67.6 1.0 68.8 -2.65 70.05 -5.35 68.8 -6.5 66.85 -7.65 64.95 -7.25 63.5 -6.85 62.0 -4.85 61.8 -2.85 61.55 -2.05 64.9 -1.05 62.7 1.3 62.65 2.65 62.6 3.15 63.9" fill="#770013" fill-rule="evenodd" stroke="none"/>
      <path d="M3.15 63.9 Q2.65 62.6 1.3 62.65 -1.05 62.7 -2.05 64.9 -2.85 61.55 -4.85 61.8 -6.85 62.0 -7.25 63.5 -7.65 64.95 -6.5 66.85 -5.35 68.8 -2.65 70.05 1.0 68.8 1.9 67.6 3.65 65.4 3.15 63.9 Z" fill="none" stroke="#000000" stroke-linecap="round" stroke-linejoin="round" stroke-opacity="0.3019608" stroke-width="0.30000000000000004"/>
      <path d="M5.55 14.65 Q7.95 14.05 9.45 12.5 10.9 10.95 10.9 9.2 10.9 6.45 7.4 3.2 3.6 -0.35 -0.3 0.3 L-0.3 0.15 Q4.05 -1.0 8.0 2.75 11.5 6.1 11.5 9.2 11.5 11.0 10.55 12.3 9.45 13.95 6.45 15.2 L5.25 15.65 -0.75 17.45 Q-7.6 19.1 -11.6 18.3 -16.05 17.55 -16.05 15.6 L-15.8 14.7 Q-15.35 14.15 -13.7 13.75 L-11.65 13.4 Q-4.65 13.0 0.75 13.65 L2.6 13.9 -1.35 14.3 -3.1 14.2 -11.55 14.55 Q-12.7 14.75 -12.45 15.55 -12.15 16.4 -10.45 17.0 -6.4 18.2 0.85 16.25 L4.4 15.2 5.55 14.65 M10.95 19.4 L11.1 20.8 Q11.1 23.0 9.85 24.45 8.55 25.95 5.0 27.45 L3.8 27.95 Q2.8 28.4 1.75 28.8 L-2.9 30.45 -5.0 30.9 -9.6 31.4 Q-16.25 31.6 -16.25 27.7 -16.25 27.05 -13.45 26.15 L-10.2 25.3 Q-6.65 24.7 -2.4 25.4 L-0.75 25.75 -3.8 26.4 Q-7.1 26.1 -11.25 26.5 -12.6 26.7 -13.25 27.55 -13.95 28.45 -12.9 29.1 -9.95 30.75 2.6 27.55 L4.1 26.9 Q7.2 25.85 8.5 24.7 10.5 22.85 10.5 20.9 10.5 19.85 9.85 18.9 L9.1 17.95 10.95 19.4 M11.4 33.85 Q11.6 34.95 10.7 37.0 9.35 40.25 6.05 41.9 L4.8 42.4 Q2.35 43.5 -1.15 44.4 L-4.55 45.15 Q-7.4 45.2 -9.95 44.35 -13.15 43.35 -13.15 41.55 -13.15 40.7 -12.45 40.25 -11.4 39.5 -8.55 39.1 -4.95 38.5 -0.4 39.65 L0.4 39.75 Q0.8 40.0 1.2 40.1 L-2.1 40.35 -4.05 40.15 -7.65 40.05 Q-12.4 40.85 -12.4 41.55 -12.4 43.1 -4.7 44.2 L-0.95 43.35 Q3.15 42.3 3.65 41.9 L5.0 41.25 Q6.7 40.3 8.25 38.8 11.3 35.75 10.5 33.15 L11.4 33.85 M6.0 47.95 L4.5 49.45 Q2.6 50.95 -0.9 52.8 L-1.7 52.9 -6.1 53.4 Q-10.55 53.5 -10.55 51.55 -10.55 51.05 -10.05 50.4 -9.6 49.75 -8.5 49.65 -7.4 49.45 -5.8 50.15 L-3.8 50.95 -4.75 51.25 Q-5.6 50.9 -6.55 50.65 -9.65 49.9 -9.9 51.4 -9.95 51.95 -8.6 52.45 L-5.45 52.5 -2.4 52.15 -1.45 51.95 -1.4 51.95 Q0.65 51.15 3.4 49.35 L6.25 47.0 6.0 47.95 M0.2 54.5 L0.45 55.45 0.5 57.0 Q0.25 58.1 -0.7 59.4 L-2.05 60.65 -2.7 60.35 Q0.3 57.8 -0.4 55.15 L-0.65 54.4 0.2 54.5" fill="#e9c7cd" fill-rule="evenodd" stroke="none"/>
      <path d="M6.45 15.2 Q9.15 16.55 10.1 17.75 L10.5 18.5 10.95 19.4 9.1 17.95 5.25 15.65 6.45 15.2 M5.0 27.45 Q7.85 28.45 9.1 29.45 10.55 30.7 11.2 32.75 L11.4 33.85 10.5 33.15 Q9.7 30.55 6.7 29.0 5.15 28.25 3.8 27.95 L5.0 27.45 M6.05 41.9 L7.1 42.6 Q7.7 43.4 7.65 45.1 7.6 46.5 6.0 47.95 L6.25 47.0 Q7.55 44.55 6.45 43.25 5.7 42.3 4.8 42.4 L6.05 41.9 M-0.9 52.8 L-0.15 53.85 0.2 54.5 -0.65 54.4 -1.15 53.6 -1.7 52.9 -0.9 52.8 M-3.8 50.95 L-1.45 51.95 -2.4 52.15 -4.75 51.25 -3.8 50.95 M1.2 40.1 L5.0 41.25 3.65 41.9 -0.55 40.7 -1.15 40.5 -2.1 40.35 1.2 40.1 M-0.75 25.75 L4.1 26.9 2.6 27.55 Q0.4 26.75 -2.4 26.4 L-3.8 26.4 -0.75 25.75 M2.6 13.9 L5.55 14.65 4.4 15.2 Q3.8 14.95 1.45 14.65 L-1.35 14.3 2.6 13.9" fill="#aa7e86" fill-rule="evenodd" stroke="none"/>
      <path d="M5.55 14.65 Q7.95 14.05 9.45 12.5 10.9 10.95 10.9 9.2 10.9 6.45 7.4 3.2 3.6 -0.35 -0.3 0.3 L-0.3 0.15 Q4.05 -1.0 8.0 2.75 11.5 6.1 11.5 9.2 11.5 11.0 10.55 12.3 9.45 13.95 6.45 15.2 9.15 16.55 10.1 17.75 L10.5 18.5 10.95 19.4 11.1 20.8 Q11.1 23.0 9.85 24.45 8.55 25.95 5.0 27.45 7.85 28.45 9.1 29.45 10.55 30.7 11.2 32.75 L11.4 33.85 Q11.6 34.95 10.7 37.0 9.35 40.25 6.05 41.9 L7.1 42.6 Q7.7 43.4 7.65 45.1 7.6 46.5 6.0 47.95 L4.5 49.45 Q2.6 50.95 -0.9 52.8 L-0.15 53.85 0.2 54.5 0.45 55.45 0.5 57.0 Q0.25 58.1 -0.7 59.4 L-2.05 60.65 -2.7 60.35 Q0.3 57.8 -0.4 55.15 L-0.65 54.4 -1.15 53.6 -1.7 52.9 -6.1 53.4 Q-10.55 53.5 -10.55 51.55 -10.55 51.05 -10.05 50.4 -9.6 49.75 -8.5 49.65 -7.4 49.45 -5.8 50.15 L-3.8 50.95 -1.45 51.95 -1.4 51.95 Q0.65 51.15 3.4 49.35 L6.25 47.0 Q7.55 44.55 6.45 43.25 5.7 42.3 4.8 42.4 2.35 43.5 -1.15 44.4 L-4.55 45.15 Q-7.4 45.2 -9.95 44.35 -13.15 43.35 -13.15 41.55 -13.15 40.7 -12.45 40.25 -11.4 39.5 -8.55 39.1 -4.95 38.5 -0.4 39.65 L0.4 39.75 Q0.8 40.0 1.2 40.1 L5.0 41.25 Q6.7 40.3 8.25 38.8 11.3 35.75 10.5 33.15 9.7 30.55 6.7 29.0 5.15 28.25 3.8 27.95 2.8 28.4 1.75 28.8 L-2.9 30.45 -5.0 30.9 -9.6 31.4 Q-16.25 31.6 -16.25 27.7 -16.25 27.05 -13.45 26.15 L-10.2 25.3 Q-6.65 24.7 -2.4 25.4 L-0.75 25.75 4.1 26.9 Q7.2 25.85 8.5 24.7 10.5 22.85 10.5 20.9 10.5 19.85 9.85 18.9 L9.1 17.95 5.25 15.65 -0.75 17.45 Q-7.6 19.1 -11.6 18.3 -16.05 17.55 -16.05 15.6 L-15.8 14.7 Q-15.35 14.15 -13.7 13.75 L-11.65 13.4 Q-4.65 13.0 0.75 13.65 L2.6 13.9 5.55 14.65 4.4 15.2 0.85 16.25 Q-6.4 18.2 -10.45 17.0 -12.15 16.4 -12.45 15.55 -12.7 14.75 -11.55 14.55 L-3.1 14.2 -1.35 14.3 M6.45 15.2 L5.25 15.65 M4.4 15.2 Q3.8 14.95 1.45 14.65 L-1.35 14.3 M11.4 33.85 L10.5 33.15 M5.0 27.45 L3.8 27.95 M2.6 27.55 L4.1 26.9 M5.0 41.25 L3.65 41.9 Q3.15 42.3 -0.95 43.35 L-4.7 44.2 Q-12.4 43.1 -12.4 41.55 -12.4 40.85 -7.65 40.05 L-4.05 40.15 -2.1 40.35 M6.05 41.9 L4.8 42.4 M-3.8 26.4 L-2.4 26.4 Q0.4 26.75 2.6 27.55 -9.95 30.75 -12.9 29.1 -13.95 28.45 -13.25 27.55 -12.6 26.7 -11.25 26.5 -7.1 26.1 -3.8 26.4 M3.65 41.9 L-0.55 40.7 -1.15 40.5 -2.1 40.35 M-2.4 52.15 L-1.45 51.95 M-0.9 52.8 L-1.7 52.9 M-4.75 51.25 L-2.4 52.15 -5.45 52.5 -8.6 52.45 Q-9.95 51.95 -9.9 51.4 -9.65 49.9 -6.55 50.65 -5.6 50.9 -4.75 51.25" fill="none" stroke="#000000" stroke-linecap="round" stroke-linejoin="round" stroke-opacity="0.3019608" stroke-width="0.30000000000000004"/>
      <path d="M-1.15 31.45 Q-6.2 30.35 -8.15 28.5 -9.7 26.95 -9.7 24.55 -9.7 20.4 -3.75 15.2 2.95 9.25 10.35 9.85 L10.35 10.05 Q3.7 10.0 -2.8 15.65 -8.7 20.75 -8.7 24.35 -8.7 26.7 -6.2 28.4 -3.7 30.2 0.4 30.45 L2.35 30.95 8.4 31.6 Q20.8 32.55 27.65 30.0 30.6 28.95 31.05 27.7 31.5 26.55 29.5 26.55 24.45 26.55 15.1 28.0 L12.15 28.5 5.4 28.8 8.55 28.0 Q17.8 26.05 29.7 25.05 L33.15 25.05 Q36.05 25.2 36.8 25.8 37.15 26.1 37.15 27.05 37.15 29.55 29.7 31.6 22.8 33.5 11.15 32.8 L0.9 31.8 -1.15 31.45 M3.4 47.8 L1.3 47.4 Q-4.75 46.15 -6.95 44.5 -9.1 42.85 -9.1 39.9 -9.1 38.95 -8.75 38.05 L-5.85 35.9 -6.95 37.1 Q-8.1 38.55 -8.1 39.9 -8.1 42.55 -4.65 44.55 -2.4 45.85 2.85 46.4 L5.4 47.05 Q26.8 48.55 31.85 45.6 33.65 44.55 32.45 43.45 31.3 42.5 29.0 42.55 22.05 42.9 16.35 44.0 L11.1 43.8 13.95 43.05 Q21.25 41.2 27.25 41.2 L32.85 41.55 Q37.55 42.15 37.55 43.1 37.55 48.2 26.2 49.45 L18.4 49.75 14.85 49.65 6.9 48.5 3.4 47.8 M-9.6 57.35 L-8.1 56.2 Q-9.4 59.8 -4.2 63.15 -1.6 64.85 1.3 65.85 L3.65 66.35 11.5 67.15 17.85 67.55 Q31.0 64.35 31.0 62.3 31.0 61.4 22.85 61.4 L16.8 62.3 13.4 62.95 7.85 63.4 9.2 62.85 10.55 62.45 Q18.25 59.85 24.45 59.85 29.3 59.85 31.05 60.6 32.25 61.05 32.25 62.2 32.25 64.5 26.8 66.6 22.4 68.25 17.6 68.85 L11.8 68.6 1.65 67.3 -0.4 66.75 Q-6.05 65.3 -8.4 61.4 -9.95 58.8 -9.6 57.35 M17.95 76.85 L16.3 76.75 19.7 75.25 Q22.45 73.95 24.35 73.9 26.2 73.85 27.05 74.6 27.85 75.4 27.85 76.05 27.85 78.65 20.3 79.5 L12.75 79.8 11.4 79.8 Q5.5 78.2 2.15 76.5 L-0.35 74.95 -0.8 73.7 Q-0.2 74.45 4.1 76.15 8.75 77.95 12.3 78.6 L12.35 78.6 14.0 78.7 19.15 78.4 24.5 77.65 Q26.8 76.75 26.7 76.05 26.25 74.05 21.0 75.7 19.45 76.2 17.95 76.85 M10.95 82.1 L10.5 83.1 Q9.35 86.75 14.45 89.5 L13.35 90.05 Q12.7 90.05 11.05 88.6 9.45 87.2 9.0 85.8 8.85 85.2 9.15 83.7 L9.5 82.35 10.95 82.1" fill="#a10821" fill-rule="evenodd" stroke="none"/>
      <path d="M-1.15 31.45 L0.9 31.8 Q-4.35 34.7 -5.6 35.75 L-5.65 35.75 -5.85 35.9 -8.75 38.05 -8.0 36.65 -7.35 35.6 Q-5.75 33.75 -1.15 31.45 M5.4 28.8 L12.15 28.5 7.35 29.55 2.35 30.95 0.4 30.45 Q1.2 29.95 5.4 28.8 M1.3 47.4 L3.4 47.8 Q1.05 48.4 -1.55 49.75 -6.7 52.5 -8.1 56.2 L-9.6 57.35 -9.2 55.8 Q-8.15 53.05 -5.6 50.95 -3.6 49.4 1.3 47.4 M11.1 43.8 L16.35 44.0 14.0 44.4 Q9.2 45.5 5.4 47.05 L2.85 46.4 11.1 43.8 M7.85 63.4 L13.4 62.95 11.85 63.4 10.8 63.8 3.65 66.35 1.3 65.85 7.85 63.4 M16.3 76.75 L17.95 76.85 14.0 78.7 12.35 78.6 Q14.35 77.7 16.3 76.75 M-0.8 73.7 L-0.35 74.95 Q-3.05 73.35 -3.2 71.5 -3.3 69.25 -2.15 67.95 L-0.4 66.75 1.65 67.3 Q0.15 67.35 -1.15 68.7 -2.95 70.7 -0.8 73.7 M11.4 79.8 L12.75 79.8 11.8 80.9 10.95 82.1 9.5 82.35 10.15 81.35 11.4 79.8" fill="#6b0011" fill-rule="evenodd" stroke="none"/>
      <path d="M0.4 30.45 Q-3.7 30.2 -6.2 28.4 -8.7 26.7 -8.7 24.35 -8.7 20.75 -2.8 15.65 3.7 10.0 10.35 10.05 L10.35 9.85 Q2.95 9.25 -3.75 15.2 -9.7 20.4 -9.7 24.55 -9.7 26.95 -8.15 28.5 -6.2 30.35 -1.15 31.45 L0.9 31.8 11.15 32.8 Q22.8 33.5 29.7 31.6 37.15 29.55 37.15 27.05 37.15 26.1 36.8 25.8 36.05 25.2 33.15 25.05 L29.7 25.05 Q17.8 26.05 8.55 28.0 L5.4 28.8 M12.15 28.5 L15.1 28.0 Q24.45 26.55 29.5 26.55 31.5 26.55 31.05 27.7 30.6 28.95 27.65 30.0 20.8 32.55 8.4 31.6 L2.35 30.95 0.4 30.45 Q1.2 29.95 5.4 28.8 M12.15 28.5 L7.35 29.55 2.35 30.95 M1.3 47.4 L3.4 47.8 6.9 48.5 14.85 49.65 18.4 49.75 26.2 49.45 Q37.55 48.2 37.55 43.1 37.55 42.15 32.85 41.55 L27.25 41.2 Q21.25 41.2 13.95 43.05 L11.1 43.8 2.85 46.4 Q-2.4 45.85 -4.65 44.55 -8.1 42.55 -8.1 39.9 -8.1 38.55 -6.95 37.1 L-5.85 35.9 M16.35 44.0 Q22.05 42.9 29.0 42.55 31.3 42.5 32.45 43.45 33.65 44.55 31.85 45.6 26.8 48.55 5.4 47.05 L2.85 46.4 M-8.75 38.05 Q-9.1 38.95 -9.1 39.9 -9.1 42.85 -6.95 44.5 -4.75 46.15 1.3 47.4 -3.6 49.4 -5.6 50.95 -8.15 53.05 -9.2 55.8 L-9.6 57.35 -8.1 56.2 Q-6.7 52.5 -1.55 49.75 1.05 48.4 3.4 47.8 M5.4 47.05 Q9.2 45.5 14.0 44.4 L16.35 44.0 M1.65 67.3 L11.8 68.6 17.6 68.85 Q22.4 68.25 26.8 66.6 32.25 64.5 32.25 62.2 32.25 61.05 31.05 60.6 29.3 59.85 24.45 59.85 18.25 59.85 10.55 62.45 L9.2 62.85 7.85 63.4 M13.4 62.95 L16.8 62.3 22.85 61.4 Q31.0 61.4 31.0 62.3 31.0 64.35 17.85 67.55 L11.5 67.15 3.65 66.35 1.3 65.85 Q-1.6 64.85 -4.2 63.15 -9.4 59.8 -8.1 56.2 M1.3 65.85 L7.85 63.4 M3.65 66.35 L10.8 63.8 11.85 63.4 13.4 62.95 M17.95 76.85 Q19.45 76.2 21.0 75.7 26.25 74.05 26.7 76.05 26.8 76.75 24.5 77.65 L19.15 78.4 14.0 78.7 12.35 78.6 12.3 78.6 Q8.75 77.95 4.1 76.15 -0.2 74.45 -0.8 73.7 M-0.35 74.95 L2.15 76.5 Q5.5 78.2 11.4 79.8 L12.75 79.8 20.3 79.5 Q27.85 78.65 27.85 76.05 27.85 75.4 27.05 74.6 26.2 73.85 24.35 73.9 22.45 73.95 19.7 75.25 L16.3 76.75 Q14.35 77.7 12.35 78.6 M10.95 82.1 L10.5 83.1 Q9.35 86.75 14.45 89.5 L13.35 90.05 Q12.7 90.05 11.05 88.6 9.45 87.2 9.0 85.8 8.85 85.2 9.15 83.7 L9.5 82.35 10.15 81.35 11.4 79.8 M12.75 79.8 L11.8 80.9 10.95 82.1 M17.95 76.85 L14.0 78.7 M0.9 31.8 Q-4.35 34.7 -5.6 35.75 L-5.65 35.75 -5.85 35.9 M-8.75 38.05 L-8.0 36.65 -7.35 35.6 Q-5.75 33.75 -1.15 31.45 M-9.6 57.35 Q-9.95 58.8 -8.4 61.4 -6.05 65.3 -0.4 66.75 L1.65 67.3 Q0.15 67.35 -1.15 68.7 -2.95 70.7 -0.8 73.7 M-0.35 74.95 Q-3.05 73.35 -3.2 71.5 -3.3 69.25 -2.15 67.95 L-0.4 66.75" fill="none" stroke="#000000" stroke-linecap="round" stroke-linejoin="round" stroke-opacity="0.3019608" stroke-width="0.30000000000000004"/>
      <path d="M12.35 92.7 L12.35 92.45 12.35 92.7 M12.35 92.45 Q13.1 87.9 17.25 86.8 26.1 86.9 25.65 94.0 25.5 96.05 24.7 98.0 22.95 102.05 19.05 104.3 14.75 106.85 10.25 108.4 1.15 102.95 -0.95 97.1 L-1.25 94.7 Q-1.9 85.65 6.3 85.7 L6.7 85.7 8.75 85.9 Q12.6 87.65 12.35 92.45 M11.9 95.35 Q10.2 88.3 5.95 88.8 1.7 89.35 0.9 92.4 0.05 95.45 2.5 99.5 4.9 103.5 10.6 106.15 18.2 103.5 20.15 101.05 23.8 96.45 22.7 93.3 21.8 90.5 18.85 90.65 14.0 90.75 11.9 95.35" fill="#e9c7cd" fill-rule="evenodd" stroke="none"/>
      <path d="M11.9 95.35 Q14.0 90.75 18.85 90.65 21.8 90.5 22.7 93.3 23.8 96.45 20.15 101.05 18.2 103.5 10.6 106.15 4.9 103.5 2.5 99.5 0.05 95.45 0.9 92.4 1.7 89.35 5.95 88.8 10.2 88.3 11.9 95.35" fill="#a10821" fill-rule="evenodd" stroke="none"/>
      <path d="M12.35 92.45 L12.35 92.7 M12.35 92.45 Q12.6 87.65 8.75 85.9 L6.7 85.7 6.3 85.7 Q-1.9 85.65 -1.25 94.7 L-0.95 97.1 Q1.15 102.95 10.25 108.4 14.75 106.85 19.05 104.3 22.95 102.05 24.7 98.0 25.5 96.05 25.65 94.0 26.1 86.9 17.25 86.8 13.1 87.9 12.35 92.45 M11.9 95.35 Q10.2 88.3 5.95 88.8 1.7 89.35 0.9 92.4 0.05 95.45 2.5 99.5 4.9 103.5 10.6 106.15 18.2 103.5 20.15 101.05 23.8 96.45 22.7 93.3 21.8 90.5 18.85 90.65 14.0 90.75 11.9 95.35" fill="none" stroke="#000000" stroke-linecap="round" stroke-linejoin="round" stroke-opacity="0.3019608" stroke-width="0.30000000000000004"/>
      <path d="M42.95 25.6 Q45.35 25.0 46.8 23.35 48.3 21.8 48.3 20.0 48.3 17.2 44.8 13.85 41.0 10.15 37.1 10.9 L37.1 10.7 Q41.45 9.5 45.4 13.4 48.9 16.85 48.9 20.0 48.9 21.85 47.95 23.25 46.8 24.85 43.85 26.25 L42.65 26.65 36.65 28.5 Q29.8 30.2 25.75 29.4 21.35 28.6 21.35 26.6 L21.55 25.65 Q22.05 25.1 23.7 24.7 L25.75 24.35 Q32.75 23.9 38.15 24.55 L40.0 24.8 36.05 25.25 34.3 25.15 25.85 25.5 Q24.7 25.7 24.95 26.55 25.25 27.45 26.95 28.0 31.0 29.3 38.25 27.25 L41.8 26.15 42.95 25.6 M48.35 30.5 L48.5 31.9 Q48.5 34.2 47.25 35.65 45.95 37.2 42.4 38.7 L41.2 39.25 39.15 40.1 34.45 41.85 32.4 42.3 27.8 42.8 Q21.15 42.95 21.15 39.05 21.15 38.3 23.95 37.45 L27.2 36.6 Q30.75 35.95 35.0 36.65 L36.65 37.0 33.6 37.6 Q30.25 37.35 26.15 37.75 24.8 37.95 24.15 38.85 23.45 39.8 24.45 40.4 27.45 42.2 40.0 38.85 L41.5 38.2 Q44.6 37.1 45.9 35.9 47.9 34.05 47.9 32.0 47.9 31.0 47.25 30.0 L46.5 29.05 48.35 30.5 M48.8 45.3 Q49.0 46.4 48.1 48.55 46.75 51.85 43.4 53.55 L42.2 54.1 Q39.7 55.25 36.25 56.15 L32.85 56.9 Q30.0 56.95 27.45 56.1 24.25 55.05 24.25 53.2 24.25 52.35 24.95 51.9 26.0 51.15 28.85 50.65 32.45 50.05 37.0 51.25 L37.8 51.45 38.6 51.8 35.3 51.95 33.35 51.8 29.75 51.7 Q25.0 52.5 25.0 53.2 25.0 54.8 32.7 56.0 L36.45 55.05 41.05 53.6 42.4 52.95 Q44.1 51.95 45.65 50.35 48.65 47.2 47.9 44.6 L48.8 45.3 M43.4 59.8 L41.9 61.3 36.5 64.75 35.7 64.85 31.3 65.4 Q26.85 65.5 26.85 63.5 26.85 63.0 27.35 62.3 27.8 61.6 28.9 61.5 30.0 61.35 31.6 62.05 L33.6 62.8 32.6 63.15 30.85 62.55 Q27.75 61.8 27.5 63.35 27.45 63.95 28.8 64.4 29.35 64.6 31.95 64.4 L35.0 64.15 35.95 63.9 36.0 63.9 Q38.05 63.05 40.75 61.2 43.3 59.45 43.65 58.8 L43.4 59.8 M37.6 66.5 L37.85 67.5 37.85 69.1 Q37.65 70.25 36.7 71.5 L35.35 72.85 34.7 72.55 Q37.7 69.95 37.0 67.2 L36.75 66.45 37.6 66.5" fill="#e9c7cd" fill-rule="evenodd" stroke="none"/>
      <path d="M43.85 26.25 Q46.55 27.5 47.5 28.8 L47.85 29.5 48.35 30.5 46.5 29.05 Q45.75 28.4 42.65 26.65 L43.85 26.25 M42.4 38.7 Q45.25 39.8 46.5 40.8 47.95 42.15 48.6 44.15 L48.8 45.3 47.9 44.6 Q47.1 41.9 44.1 40.3 42.55 39.5 41.2 39.25 L42.4 38.7 M43.4 53.55 L44.45 54.3 Q45.1 55.15 45.05 56.85 44.95 58.35 43.4 59.8 L43.65 58.8 Q44.95 56.3 43.85 54.95 43.1 54.0 42.2 54.1 L43.4 53.55 M36.5 64.75 L37.25 65.8 37.6 66.5 36.75 66.45 36.25 65.6 35.7 64.85 36.5 64.75 M33.6 62.8 L35.95 63.9 35.0 64.15 32.6 63.15 33.6 62.8 M38.6 51.8 L42.4 52.95 41.05 53.6 36.8 52.35 36.25 52.15 35.3 51.95 38.6 51.8 M36.65 37.0 L41.5 38.2 40.0 38.85 Q37.8 38.0 35.0 37.7 L33.6 37.6 36.65 37.0 M40.0 24.8 L42.95 25.6 41.8 26.15 38.85 25.6 36.05 25.25 40.0 24.8" fill="#aa7e86" fill-rule="evenodd" stroke="none"/>
      <path d="M42.95 25.6 Q45.35 25.0 46.8 23.35 48.3 21.8 48.3 20.0 48.3 17.2 44.8 13.85 41.0 10.15 37.1 10.9 L37.1 10.7 Q41.45 9.5 45.4 13.4 48.9 16.85 48.9 20.0 48.9 21.85 47.95 23.25 46.8 24.85 43.85 26.25 46.55 27.5 47.5 28.8 L47.85 29.5 48.35 30.5 48.5 31.9 Q48.5 34.2 47.25 35.65 45.95 37.2 42.4 38.7 45.25 39.8 46.5 40.8 47.95 42.15 48.6 44.15 L48.8 45.3 Q49.0 46.4 48.1 48.55 46.75 51.85 43.4 53.55 L44.45 54.3 Q45.1 55.15 45.05 56.85 44.95 58.35 43.4 59.8 L41.9 61.3 36.5 64.75 37.25 65.8 37.6 66.5 37.85 67.5 37.85 69.1 Q37.65 70.25 36.7 71.5 L35.35 72.85 34.7 72.55 Q37.7 69.95 37.0 67.2 L36.75 66.45 36.25 65.6 35.7 64.85 31.3 65.4 Q26.85 65.5 26.85 63.5 26.85 63.0 27.35 62.3 27.8 61.6 28.9 61.5 30.0 61.35 31.6 62.05 L33.6 62.8 35.95 63.9 36.0 63.9 Q38.05 63.05 40.75 61.2 43.3 59.45 43.65 58.8 44.95 56.3 43.85 54.95 43.1 54.0 42.2 54.1 39.7 55.25 36.25 56.15 L32.85 56.9 Q30.0 56.95 27.45 56.1 24.25 55.05 24.25 53.2 24.25 52.35 24.95 51.9 26.0 51.15 28.85 50.65 32.45 50.05 37.0 51.25 L37.8 51.45 38.6 51.8 42.4 52.95 Q44.1 51.95 45.65 50.35 48.65 47.2 47.9 44.6 47.1 41.9 44.1 40.3 42.55 39.5 41.2 39.25 L39.15 40.1 34.45 41.85 32.4 42.3 27.8 42.8 Q21.15 42.95 21.15 39.05 21.15 38.3 23.95 37.45 L27.2 36.6 Q30.75 35.95 35.0 36.65 L36.65 37.0 41.5 38.2 Q44.6 37.1 45.9 35.9 47.9 34.05 47.9 32.0 47.9 31.0 47.25 30.0 L46.5 29.05 Q45.75 28.4 42.65 26.65 L36.65 28.5 Q29.8 30.2 25.75 29.4 21.35 28.6 21.35 26.6 L21.55 25.65 Q22.05 25.1 23.7 24.7 L25.75 24.35 Q32.75 23.9 38.15 24.55 L40.0 24.8 42.95 25.6 41.8 26.15 38.25 27.25 Q31.0 29.3 26.95 28.0 25.25 27.45 24.95 26.55 24.7 25.7 25.85 25.5 L34.3 25.15 36.05 25.25 M43.85 26.25 L42.65 26.65 M48.8 45.3 L47.9 44.6 M42.4 38.7 L41.2 39.25 M41.8 26.15 L38.85 25.6 36.05 25.25 M33.6 37.6 Q30.25 37.35 26.15 37.75 24.8 37.95 24.15 38.85 23.45 39.8 24.45 40.4 27.45 42.2 40.0 38.85 37.8 38.0 35.0 37.7 L33.6 37.6 M35.3 51.95 L33.35 51.8 29.75 51.7 Q25.0 52.5 25.0 53.2 25.0 54.8 32.7 56.0 L36.45 55.05 41.05 53.6 36.8 52.35 36.25 52.15 35.3 51.95 M35.0 64.15 L31.95 64.4 Q29.35 64.6 28.8 64.4 27.45 63.95 27.5 63.35 27.75 61.8 30.85 62.55 L32.6 63.15 35.0 64.15 35.95 63.9 M36.5 64.75 L35.7 64.85 M42.4 52.95 L41.05 53.6 M43.4 53.55 L42.2 54.1 M40.0 38.85 L41.5 38.2" fill="none" stroke="#000000" stroke-linecap="round" stroke-linejoin="round" stroke-opacity="0.3019608" stroke-width="0.30000000000000004"/>
      <path d="M39.9 71.4 Q41.9 72.55 43.2 74.5 45.3 77.85 44.2 81.5 43.15 85.2 39.45 87.1 35.7 88.95 31.55 88.0 27.9 87.1 25.8 84.5 L25.3 83.7 Q23.15 80.4 24.25 76.75 25.35 73.05 29.1 71.2 32.85 69.25 36.95 70.25 38.6 70.65 39.9 71.4 M36.3 71.85 Q32.85 71.05 29.75 72.6 26.75 74.2 25.8 77.3 24.9 80.3 26.65 83.0 27.75 84.6 29.45 85.6 L31.8 86.55 Q35.25 87.35 38.35 85.75 41.4 84.2 42.35 81.2 43.25 78.15 41.45 75.4 L41.0 74.85 Q39.3 72.55 36.3 71.85" fill="#e9c7cd" fill-rule="evenodd" stroke="none"/>
      <path d="M36.3 71.85 Q39.3 72.55 41.0 74.85 L41.45 75.4 Q43.25 78.15 42.35 81.2 41.4 84.2 38.35 85.75 35.25 87.35 31.8 86.55 L29.45 85.6 Q27.75 84.6 26.65 83.0 24.9 80.3 25.8 77.3 26.75 74.2 29.75 72.6 32.85 71.05 36.3 71.85" fill="#a10821" fill-rule="evenodd" stroke="none"/>
      <path d="M39.9 71.4 Q41.9 72.55 43.2 74.5 45.3 77.85 44.2 81.5 43.15 85.2 39.45 87.1 35.7 88.95 31.55 88.0 27.9 87.1 25.8 84.5 L25.3 83.7 Q23.15 80.4 24.25 76.75 25.35 73.05 29.1 71.2 32.85 69.25 36.95 70.25 38.6 70.65 39.9 71.4 M36.3 71.85 Q39.3 72.55 41.0 74.85 L41.45 75.4 Q43.25 78.15 42.35 81.2 41.4 84.2 38.35 85.75 35.25 87.35 31.8 86.55 L29.45 85.6 Q27.75 84.6 26.65 83.0 24.9 80.3 25.8 77.3 26.75 74.2 29.75 72.6 32.85 71.05 36.3 71.85" fill="none" stroke="#000000" stroke-linecap="round" stroke-linejoin="round" stroke-opacity="0.3019608" stroke-width="0.30000000000000004"/>
      <path d="M39.85 79.6 L38.95 80.95 Q37.8 82.3 35.9 82.75 L31.8 83.35 Q28.65 80.5 28.4 78.1 28.4 77.6 28.55 77.2 29.25 73.75 32.7 74.6 L32.85 74.65 33.7 74.9 Q35.15 75.9 34.45 77.7 35.3 76.1 37.1 76.1 40.85 76.95 39.85 79.6" fill="#e9c7cd" fill-rule="evenodd" stroke="none"/>
      <path d="M39.85 79.6 Q40.85 76.95 37.1 76.1 35.3 76.1 34.45 77.7 35.15 75.9 33.7 74.9 L32.85 74.65 32.7 74.6 Q29.25 73.75 28.55 77.2 28.4 77.6 28.4 78.1 28.65 80.5 31.8 83.35 L35.9 82.75 Q37.8 82.3 38.95 80.95 L39.85 79.6 Z" fill="none" stroke="#000000" stroke-linecap="round" stroke-linejoin="round" stroke-opacity="0.3019608" stroke-width="0.30000000000000004"/>
    </g>
  </defs>
</svg>
