<?xml version="1.0" encoding="UTF-8" standalone="no"?>
<svg xmlns:xlink="http://www.w3.org/1999/xlink" height="84.8px" width="44.8px" xmlns="http://www.w3.org/2000/svg">
  <g transform="matrix(1.0, 0.0, 0.0, 1.0, 24.6, 83.75)">
    <use data-characterId="592" height="84.8" transform="matrix(1.0, 0.0, 0.0, 1.0, -24.6, -83.75)" width="44.8" xlink:href="#decoration75-shape0"/>
  </g>
  <defs>
    <g id="decoration75-shape0" transform="matrix(1.0, 0.0, 0.0, 1.0, 24.6, 83.75)">
      <path d="M0.2 -46.25 L0.2 0.55" fill="none" stroke="#000000" stroke-linecap="round" stroke-linejoin="round" stroke-opacity="0.3019608" stroke-width="1.0"/>
      <path d="M-23.55 -65.45 Q-17.25 -54.1 -1.65 -53.15 8.05 -62.0 10.95 -69.1 13.3 -74.9 10.75 -78.05 8.4 -80.9 4.0 -80.0 -0.55 -79.1 -3.05 -74.7 -4.85 -80.4 -10.7 -83.6 -4.35 -83.35 -1.55 -78.45 3.8 -82.5 9.0 -82.75 L9.35 -82.75 Q16.05 -79.5 15.75 -72.1 15.95 -62.3 4.95 -54.7 -0.35 -51.35 -5.45 -51.05 -11.75 -52.6 -16.95 -56.75 -21.95 -60.75 -23.55 -65.45 M2.1 -51.2 L5.3 -44.85 Q3.5 -45.95 2.2 -45.3 L1.0 -44.05 Q-1.65 -42.25 -3.9 -43.8 L-1.7 -50.4 -0.3 -50.3 -1.7 -44.6 -0.3 -50.3 1.05 -50.75 2.1 -51.2 M2.55 -47.75 L1.05 -50.75 2.55 -47.75" fill="#870111" fill-rule="evenodd" stroke="none"/>
      <path d="M-10.7 -83.6 Q-4.85 -80.4 -3.05 -74.7 -0.55 -79.1 4.0 -80.0 8.4 -80.9 10.75 -78.05 13.3 -74.9 10.95 -69.1 8.05 -62.0 -1.65 -53.15 -17.25 -54.1 -23.55 -65.45 -24.45 -67.9 -24.45 -70.55 -24.25 -77.25 -21.6 -80.45 -19.1 -83.5 -10.7 -83.6 M-21.05 -70.45 Q-21.5 -69.8 -21.5 -68.9 -21.45 -68.05 -21.0 -67.4 -20.55 -66.8 -19.95 -66.8 -19.3 -66.9 -18.9 -67.5 -18.4 -68.2 -18.45 -69.1 -18.45 -70.0 -18.9 -70.55 -19.4 -71.15 -20.05 -71.1 -20.7 -71.05 -21.05 -70.45 M-16.8 -80.35 Q-18.25 -79.45 -18.75 -78.1 -19.35 -76.75 -18.75 -75.7 -18.15 -74.7 -16.7 -74.7 -15.3 -74.65 -13.85 -75.55 -12.55 -76.45 -11.95 -77.85 -11.4 -79.1 -12.0 -80.15 -12.65 -81.15 -14.05 -81.25 -15.45 -81.25 -16.8 -80.35" fill="url(#decoration75-gradient0)" fill-rule="evenodd" stroke="none"/>
      <path d="M-5.45 -51.05 Q-0.35 -51.35 4.95 -54.7 15.95 -62.3 15.75 -72.1 16.05 -79.5 9.35 -82.75 L13.7 -82.25 Q22.4 -76.7 19.2 -65.8 14.95 -56.05 2.1 -51.2 L1.05 -50.75 -0.3 -50.3 -1.7 -50.4 -5.45 -51.05" fill="url(#decoration75-gradient1)" fill-rule="evenodd" stroke="none"/>
      <path d="M-16.8 -80.35 Q-15.45 -81.25 -14.05 -81.25 -12.65 -81.15 -12.0 -80.15 -11.4 -79.1 -11.95 -77.85 -12.55 -76.45 -13.85 -75.55 -15.3 -74.65 -16.7 -74.7 -18.15 -74.7 -18.75 -75.7 -19.35 -76.75 -18.75 -78.1 -18.25 -79.45 -16.8 -80.35 M-21.05 -70.45 Q-20.7 -71.05 -20.05 -71.1 -19.4 -71.15 -18.9 -70.55 -18.45 -70.0 -18.45 -69.1 -18.4 -68.2 -18.9 -67.5 -19.3 -66.9 -19.95 -66.8 -20.55 -66.8 -21.0 -67.4 -21.45 -68.05 -21.5 -68.9 -21.5 -69.8 -21.05 -70.45" fill="#ff615b" fill-rule="evenodd" stroke="none"/>
      <path d="M-23.55 -65.45 Q-21.95 -60.75 -16.95 -56.75 -11.75 -52.6 -5.45 -51.05 L-1.7 -50.4 -3.9 -43.8 Q-1.65 -42.25 1.0 -44.05 L2.2 -45.3 Q3.5 -45.95 5.3 -44.85 L2.1 -51.2 1.05 -50.75 2.55 -47.75 M9.35 -82.75 L9.0 -82.75 Q3.8 -82.5 -1.55 -78.45 -4.35 -83.35 -10.7 -83.6 -19.1 -83.5 -21.6 -80.45 -24.25 -77.25 -24.45 -70.55 -24.45 -67.9 -23.55 -65.45 M9.35 -82.75 L13.7 -82.25 Q22.4 -76.7 19.2 -65.8 14.95 -56.05 2.1 -51.2 M-0.3 -50.3 L-1.7 -50.4 M-0.3 -50.3 L-1.7 -44.6 M1.05 -50.75 L-0.3 -50.3" fill="none" stroke="#000000" stroke-linecap="round" stroke-linejoin="round" stroke-opacity="0.3019608" stroke-width="0.30000000000000004"/>
    </g>
    <radialGradient cx="0" cy="0" gradientTransform="matrix(0.027, -0.0017, 5.0E-4, 0.0275, -12.25, -76.4)" gradientUnits="userSpaceOnUse" id="decoration75-gradient0" r="819.2" spreadMethod="pad">
      <stop offset="0.0" stop-color="#ff4238"/>
      <stop offset="1.0" stop-color="#bd1327"/>
    </radialGradient>
    <linearGradient gradientTransform="matrix(0.006, 0.0031, -0.0092, 0.0174, 18.65, -68.55)" gradientUnits="userSpaceOnUse" id="decoration75-gradient1" spreadMethod="pad" x1="-819.2" x2="819.2">
      <stop offset="0.0" stop-color="#870111"/>
      <stop offset="1.0" stop-color="#b4829b"/>
    </linearGradient>
  </defs>
</svg>
