<?xml version="1.0" encoding="UTF-8" standalone="no"?>
<svg xmlns:xlink="http://www.w3.org/1999/xlink" height="82.0px" width="116.4px" xmlns="http://www.w3.org/2000/svg">
  <g transform="matrix(1.0, 0.0, 0.0, 1.0, 58.0, 73.3)">
    <use height="82.0" transform="matrix(1.0, 0.0, 0.0, 1.0, -58.0, -73.3)" width="116.4" xlink:href="#decoration76-shape0"/>
    <use height="48.25" transform="matrix(0.9635, 0.0, 0.0, 0.9635, -10.5988, -49.3528)" width="49.0" xlink:href="#decoration76-sprite0"/>
  </g>
  <defs>
    <g id="decoration76-shape0" transform="matrix(1.0, 0.0, 0.0, 1.0, 58.0, 73.3)">
      <path d="M34.35 -2.05 L-34.25 -2.05 -34.25 -71.8 34.35 -71.8 34.35 -2.05" fill="#b6491f" fill-rule="evenodd" stroke="none"/>
      <path d="M28.3 -6.9 L-29.05 -6.9 -29.05 -65.2 28.3 -65.2 28.3 -6.9 Z" fill="none" stroke="#00cc33" stroke-linecap="round" stroke-linejoin="round" stroke-width="0.05"/>
      <path d="M37.1 -70.5 L37.1 4.0 -22.8 4.0 Q-30.4 2.5 -32.85 -1.65 L-23.15 -5.95 30.35 -6.7 33.7 -67.3 35.8 -71.95 37.1 -70.5" fill="#000000" fill-opacity="0.3019608" fill-rule="evenodd" stroke="none"/>
      <path d="M-1.25 -64.9 L-27.5 -64.9 -27.5 -7.25 -1.25 -7.25 -1.25 -64.9 M34.1 -70.45 L34.1 -2.8 -32.4 -2.8 -32.4 -70.45 34.1 -70.45 M29.2 -64.9 L3.7 -64.9 3.7 -7.25 29.2 -7.25 29.2 -64.9" fill="url(#decoration76-gradient0)" fill-rule="evenodd" stroke="none"/>
      <path d="M2.45 -70.45 L8.15 -70.45 Q15.5 -67.0 30.35 -70.45 L34.1 -70.45 29.2 -64.9 Q20.95 -66.9 10.05 -66.95 -1.65 -65.45 -10.4 -66.95 -17.25 -68.95 -19.45 -70.45 L-10.55 -70.45 Q-6.65 -68.05 2.45 -70.45 M1.25 -64.9 L3.7 -64.9 3.7 -63.6 3.7 -48.95 Q1.1 -43.1 0.65 -34.35 0.45 -25.35 3.7 -16.35 L3.7 -9.5 3.7 -8.5 3.7 -7.25 11.6 -7.25 Q21.75 -4.25 31.65 -5.05 L34.1 -2.8 17.65 -2.8 7.75 -5.05 Q-2.0 -6.25 -7.2 -2.8 L-30.5 -2.8 -29.75 -5.05 -29.8 -5.2 -27.5 -7.25 -29.8 -5.2 Q-28.75 -13.75 -32.4 -22.6 L-32.4 -39.05 Q-28.45 -32.4 -27.5 -15.95 L-27.5 -9.5 -27.5 -8.4 -27.5 -7.25 -24.8 -7.25 Q-18.55 -4.0 -9.1 -5.05 L-3.9 -7.25 -1.25 -7.25 1.25 -7.25 3.7 -7.25 1.25 -7.25 Q2.35 -14.95 -1.25 -22.0 L-1.25 -46.3 Q3.1 -53.1 1.25 -64.9 M29.2 -56.5 Q31.55 -49.25 31.65 -44.15 32.1 -31.55 29.2 -22.0 L29.2 -56.5 M34.1 -6.55 Q30.9 -12.5 31.65 -19.25 32.1 -25.8 34.1 -29.5 L34.1 -6.55 M34.1 -44.85 Q31.4 -53.2 31.65 -61.55 31.5 -65.9 34.1 -68.65 L34.1 -44.85 M-32.4 -64.2 Q-29.2 -56.8 -32.4 -49.9 L-32.4 -64.2 M-27.5 -29.65 Q-31.65 -45.55 -27.5 -57.45 L-27.5 -29.65 M-27.5 -64.9 Q-26.5 -68.05 -19.9 -68.2 -13.9 -67.25 -11.6 -64.9 L-27.5 -64.9" fill="#c4b5a2" fill-rule="evenodd" stroke="none"/>
      <path d="M8.15 -70.45 L2.45 -70.45 -10.55 -70.45 -19.45 -70.45 -32.4 -70.45 -32.4 -64.2 -32.4 -49.9 -32.4 -39.05 -32.4 -22.6 -32.4 -2.8 -30.5 -2.8 -7.2 -2.8 17.65 -2.8 34.1 -2.8 34.1 -6.55 34.1 -29.5 34.1 -44.85 34.1 -68.65 34.1 -70.45 30.35 -70.45 8.15 -70.45 M35.75 -1.45 L-33.65 -1.45 -33.65 -72.05 35.75 -72.05 35.75 -1.45" fill="url(#decoration76-gradient1)" fill-rule="evenodd" stroke="none"/>
      <path d="M2.45 -70.45 Q-6.65 -68.05 -10.55 -70.45 L2.45 -70.45 M-19.45 -70.45 Q-17.25 -68.95 -10.4 -66.95 -1.65 -65.45 10.05 -66.95 20.95 -66.9 29.2 -64.9 L34.1 -70.45 34.1 -68.65 Q31.5 -65.9 31.65 -61.55 31.4 -53.2 34.1 -44.85 L34.1 -29.5 Q32.1 -25.8 31.65 -19.25 30.9 -12.5 34.1 -6.55 L34.1 -2.8 31.65 -5.05 29.2 -7.25 31.65 -5.05 Q21.75 -4.25 11.6 -7.25 L29.2 -7.25 29.2 -22.0 Q32.1 -31.55 31.65 -44.15 31.55 -49.25 29.2 -56.5 L29.2 -64.9 28.2 -64.9 3.7 -64.9 1.25 -64.9 -1.25 -64.9 1.25 -64.9 Q3.1 -53.1 -1.25 -46.3 L-1.25 -64.9 -2.3 -64.9 -11.6 -64.9 Q-13.9 -67.25 -19.9 -68.2 -26.5 -68.05 -27.5 -64.9 L-27.5 -63.6 -27.5 -57.45 Q-31.65 -45.55 -27.5 -29.65 L-27.5 -15.95 Q-28.45 -32.4 -32.4 -39.05 L-32.4 -49.9 Q-29.2 -56.8 -32.4 -64.2 L-32.4 -70.45 -27.5 -64.9 -32.4 -70.45 -19.45 -70.45 M30.35 -70.45 Q15.5 -67.0 8.15 -70.45 L30.35 -70.45 M3.7 -16.35 Q0.45 -25.35 0.65 -34.35 1.1 -43.1 3.7 -48.95 L3.7 -16.6 3.7 -16.35 M1.25 -7.25 L-1.25 -7.25 -1.25 -22.0 Q2.35 -14.95 1.25 -7.25 M-3.9 -7.25 L-9.1 -5.05 Q-18.55 -4.0 -24.8 -7.25 L-3.9 -7.25 M-29.75 -5.05 L-30.5 -2.8 -32.4 -2.8 -29.85 -5.15 -32.4 -2.8 -32.4 -22.6 Q-28.75 -13.75 -29.8 -5.2 L-29.85 -5.15 -29.75 -5.05 M-7.2 -2.8 Q-2.0 -6.25 7.75 -5.05 L17.65 -2.8 -7.2 -2.8" fill="#b69f82" fill-rule="evenodd" stroke="none"/>
      <path d="M3.7 -64.9 L28.2 -64.9 28.2 -8.5 3.7 -8.5 3.7 -9.5 27.1 -9.5 27.1 -63.6 3.7 -63.6 3.7 -64.9" fill="url(#decoration76-gradient2)" fill-rule="evenodd" stroke="none"/>
      <path d="M28.2 -64.9 L29.2 -64.9 29.2 -56.5 29.2 -22.0 29.2 -7.25 28.2 -8.5 28.2 -64.9 M-2.3 -64.9 L-1.25 -64.9 -1.25 -46.3 -1.25 -22.0 -1.25 -7.25 -2.3 -8.4 -2.3 -64.9" fill="#80715e" fill-rule="evenodd" stroke="none"/>
      <path d="M3.7 -8.5 L28.2 -8.5 29.2 -7.25 11.6 -7.25 3.7 -7.25 3.7 -8.5 M-1.25 -7.25 L-3.9 -7.25 -24.8 -7.25 -27.5 -7.25 -27.5 -8.4 -2.3 -8.4 -1.25 -7.25" fill="#4f4232" fill-rule="evenodd" stroke="none"/>
      <path d="M-27.5 -63.6 L-27.5 -64.9 -11.6 -64.9 -2.3 -64.9 -2.3 -8.4 -27.5 -8.4 -27.5 -9.5 -3.15 -9.5 -3.15 -63.6 -27.5 -63.6" fill="url(#decoration76-gradient3)" fill-rule="evenodd" stroke="none"/>
      <path d="M-29.8 -5.2 L-29.75 -5.05 -29.85 -5.15 -29.8 -5.2" fill="#704a28" fill-rule="evenodd" stroke="none"/>
      <path d="M8.15 -70.45 L2.45 -70.45 -10.55 -70.45 -19.45 -70.45 -32.4 -70.45 -32.4 -64.2 M34.1 -70.45 L30.35 -70.45 M8.15 -70.45 L30.35 -70.45 M34.1 -2.8 L34.1 -6.55 34.1 -29.5 34.1 -44.85 34.1 -68.65 34.1 -70.45 M3.7 -63.6 L27.1 -63.6 27.1 -9.5 3.7 -9.5 M-30.5 -2.8 L-7.2 -2.8 M17.65 -2.8 L34.1 -2.8 M-32.4 -49.9 L-32.4 -39.05 M-32.4 -49.9 L-32.4 -64.2 M-27.5 -9.5 L-3.15 -9.5 -3.15 -63.6 -27.5 -63.6 M-32.4 -2.8 L-30.5 -2.8 M-32.4 -2.8 L-32.4 -22.6 -32.4 -39.05 M-29.85 -5.15 L-29.8 -5.2 M17.65 -2.8 L-7.2 -2.8" fill="none" stroke="#000000" stroke-linecap="round" stroke-linejoin="round" stroke-opacity="0.4509804" stroke-width="0.5"/>
      <path d="M2.45 -70.45 Q-6.65 -68.05 -10.55 -70.45 M-19.45 -70.45 Q-17.25 -68.95 -10.4 -66.95 -1.65 -65.45 10.05 -66.95 20.95 -66.9 29.2 -64.9 L34.1 -70.45 M30.35 -70.45 Q15.5 -67.0 8.15 -70.45 M1.25 -64.9 L3.7 -64.9 M29.2 -56.5 Q31.55 -49.25 31.65 -44.15 32.1 -31.55 29.2 -22.0 M34.1 -6.55 Q30.9 -12.5 31.65 -19.25 32.1 -25.8 34.1 -29.5 M34.1 -44.85 Q31.4 -53.2 31.65 -61.55 31.5 -65.9 34.1 -68.65 M3.7 -16.35 Q0.45 -25.35 0.65 -34.35 1.1 -43.1 3.7 -48.95 M3.7 -7.25 L1.25 -7.25 -1.25 -7.25 M-3.9 -7.25 L-9.1 -5.05 Q-18.55 -4.0 -24.8 -7.25 M-29.75 -5.05 L-30.5 -2.8 M-7.2 -2.8 Q-2.0 -6.25 7.75 -5.05 L17.65 -2.8 M11.6 -7.25 Q21.75 -4.25 31.65 -5.05 M-32.4 -64.2 Q-29.2 -56.8 -32.4 -49.9 M-32.4 -39.05 Q-28.45 -32.4 -27.5 -15.95 M-27.5 -29.65 Q-31.65 -45.55 -27.5 -57.45 M-1.25 -64.9 L1.25 -64.9 Q3.1 -53.1 -1.25 -46.3 M-1.25 -22.0 Q2.35 -14.95 1.25 -7.25 M-27.5 -64.9 Q-26.5 -68.05 -19.9 -68.2 -13.9 -67.25 -11.6 -64.9 M-29.8 -5.2 Q-28.75 -13.75 -32.4 -22.6" fill="none" stroke="#000000" stroke-linecap="round" stroke-linejoin="round" stroke-opacity="0.2" stroke-width="0.1"/>
      <path d="M3.7 -64.9 L28.2 -64.9 29.2 -64.9 29.2 -56.5 29.2 -22.0 29.2 -7.25 31.65 -5.05 34.1 -2.8 M3.7 -64.9 L3.7 -63.6 M3.7 -9.5 L3.7 -8.5 28.2 -8.5 28.2 -64.9 M3.7 -48.95 L3.7 -63.6 M11.6 -7.25 L3.7 -7.25 3.7 -8.5 M-1.25 -7.25 L-3.9 -7.25 -24.8 -7.25 -27.5 -7.25 -29.8 -5.2 M3.7 -16.35 L3.7 -9.5 M3.7 -48.95 L3.7 -16.6 3.7 -16.35 M28.2 -8.5 L29.2 -7.25 11.6 -7.25 M-27.5 -57.45 L-27.5 -63.6 -27.5 -64.9 -32.4 -70.45 M-27.5 -15.95 L-27.5 -29.65 M-27.5 -57.45 L-27.5 -29.65 M-2.3 -64.9 L-1.25 -64.9 M-1.25 -46.3 L-1.25 -22.0 M-11.6 -64.9 L-2.3 -64.9 M-1.25 -7.25 L-1.25 -22.0 M-11.6 -64.9 L-27.5 -64.9 M-29.85 -5.15 L-32.4 -2.8 M-27.5 -8.4 L-27.5 -9.5 -27.5 -15.95 M-27.5 -7.25 L-27.5 -8.4 M-1.25 -46.3 L-1.25 -64.9" fill="none" stroke="#000000" stroke-linecap="round" stroke-linejoin="round" stroke-opacity="0.3019608" stroke-width="0.5"/>
      <path d="M35.75 -1.45 L-33.65 -1.45 -33.65 -72.05 35.75 -72.05 35.75 -1.45" fill="none" stroke="#000000" stroke-linecap="round" stroke-linejoin="round" stroke-opacity="0.4509804" stroke-width="1.0"/>
      <path d="M-29.8 -5.2 L-29.75 -5.05" fill="none" stroke="#000000" stroke-linecap="round" stroke-linejoin="round" stroke-opacity="0.2" stroke-width="0.5"/>
      <path d="M-2.3 -64.9 L-2.3 -8.4 -1.25 -7.25 M-27.5 -8.4 L-2.3 -8.4" fill="none" stroke="#000000" stroke-linecap="round" stroke-linejoin="round" stroke-opacity="0.2509804" stroke-width="0.5"/>
      <path d="M27.7 -36.0 L27.7 -32.45 3.7 -10.1 3.7 -14.05 27.7 -36.0" fill="url(#decoration76-gradient4)" fill-rule="evenodd" stroke="none"/>
      <path d="M3.75 -18.75 L3.7 -26.6 27.7 -50.65 27.7 -42.2 3.75 -18.75" fill="url(#decoration76-gradient5)" fill-rule="evenodd" stroke="none"/>
      <path d="M-27.35 -22.5 L-27.35 -30.3 -2.45 -54.45 -2.45 -45.95 -27.35 -22.5" fill="url(#decoration76-gradient6)" fill-rule="evenodd" stroke="none"/>
      <path d="M-2.45 -39.8 L-2.45 -36.25 -27.35 -13.85 -27.35 -17.75 -2.45 -39.8" fill="url(#decoration76-gradient7)" fill-rule="evenodd" stroke="none"/>
      <path d="M35.1 -3.15 Q26.65 -0.75 13.95 -1.5 L6.85 -3.15 35.1 -3.15 M-14.0 -3.15 Q-27.7 -0.95 -37.75 -1.5 L-37.75 -3.15 -14.0 -3.15 M-22.15 0.15 L-8.85 -1.5 Q4.3 -2.4 11.35 0.15 L-22.15 0.15" fill="#b69f82" fill-rule="evenodd" stroke="none"/>
      <path d="M6.85 -3.15 L13.95 -1.5 Q26.65 -0.75 35.1 -3.15 L41.85 -3.15 41.85 0.15 11.35 0.15 Q4.3 -2.4 -8.85 -1.5 L-22.15 0.15 -37.75 0.15 -37.75 -1.5 Q-27.7 -0.95 -14.0 -3.15 L6.85 -3.15" fill="#c4b5a2" fill-rule="evenodd" stroke="none"/>
      <path d="M35.1 -3.15 L6.85 -3.15 -14.0 -3.15 -37.75 -3.15 -37.75 -1.5 -37.75 0.15 -22.15 0.15 11.35 0.15 41.85 0.15 M41.85 -3.15 L35.1 -3.15" fill="none" stroke="#000000" stroke-linecap="round" stroke-linejoin="round" stroke-opacity="0.4509804" stroke-width="0.5"/>
      <path d="M6.85 -3.15 L13.95 -1.5 Q26.65 -0.75 35.1 -3.15 M-14.0 -3.15 Q-27.7 -0.95 -37.75 -1.5 M-22.15 0.15 L-8.85 -1.5 Q4.3 -2.4 11.35 0.15" fill="none" stroke="#000000" stroke-linecap="round" stroke-linejoin="round" stroke-opacity="0.2" stroke-width="0.05"/>
      <path d="M41.85 0.15 L41.85 -3.15" fill="none" stroke="#000000" stroke-linecap="round" stroke-linejoin="round" stroke-opacity="0.2" stroke-width="0.5"/>
      <path d="M-37.65 -72.55 L-33.9 -72.45 Q-34.9 -59.75 -33.15 -47.4 L-37.65 -72.55 M-49.1 -72.4 Q-46.7 -70.75 -40.9 -72.35 -42.05 -65.2 -41.45 -53.4 -40.95 -44.75 -40.25 -39.3 L-43.05 -55.2 Q-44.15 -65.05 -46.6 -66.25 -48.5 -67.2 -48.1 -55.7 L-49.1 -72.4 M-45.8 -33.3 L-45.75 -33.25 Q-43.2 -14.25 -40.95 -8.2 -38.7 -2.2 -39.8 5.45 -40.95 2.65 -43.7 2.5 L-43.6 5.7 -47.4 6.35 Q-43.95 -0.25 -46.0 -33.25 L-46.0 -33.3 -45.8 -33.3 M-32.35 5.45 Q-35.1 -1.85 -37.15 -19.35 L-39.25 -33.1 Q-33.6 -2.95 -27.85 4.05 L-29.8 5.25 -32.35 5.45 M-45.75 -33.25 Q-44.2 -14.55 -43.7 2.5 -44.2 -14.55 -45.75 -33.25" fill="#620000" fill-rule="evenodd" stroke="none"/>
      <path d="M-33.15 -47.4 L-32.8 -44.3 -28.2 -2.0 Q-27.95 1.25 -26.55 2.3 -27.0 3.35 -27.85 4.05 -33.6 -2.95 -39.25 -33.1 L-40.25 -39.3 Q-40.95 -44.75 -41.45 -53.4 -42.05 -65.2 -40.9 -72.35 -39.3 -73.65 -37.65 -72.55 L-33.15 -47.4" fill="url(#decoration76-gradient8)" fill-rule="evenodd" stroke="none"/>
      <path d="M-56.05 3.75 L-57.05 2.65 Q-55.35 -4.95 -54.7 -16.3 -54.4 -24.5 -53.7 -32.05 -52.0 -62.55 -51.7 -72.55 -50.65 -73.4 -49.1 -72.4 L-48.1 -55.7 Q-48.5 -67.2 -46.6 -66.25 -44.15 -65.05 -43.05 -55.2 L-40.25 -39.3 -39.25 -33.1 -37.15 -19.35 Q-35.1 -1.85 -32.35 5.45 -37.2 8.95 -39.8 5.45 -38.7 -2.2 -40.95 -8.2 -43.2 -14.25 -45.75 -33.25 L-45.8 -33.3 -46.45 -40.55 -46.0 -33.3 -46.0 -33.25 Q-43.95 -0.25 -47.4 6.35 -50.55 6.6 -53.05 5.65 L-54.0 5.15 -56.05 3.75 M-47.2 -48.35 L-46.7 -42.95 -47.2 -48.35" fill="url(#decoration76-gradient9)" fill-rule="evenodd" stroke="none"/>
      <path d="M-45.8 -33.3 L-46.0 -33.3 -46.45 -40.55 -45.8 -33.3" fill="#2d223b" fill-rule="evenodd" stroke="none"/>
      <path d="M-32.8 -44.3 L-25.05 2.65 Q-28.3 7.45 -31.7 6.8 -32.8 8.45 -36.65 8.7 -40.4 8.35 -41.85 5.7 -42.95 7.65 -46.45 8.1 -53.0 8.55 -56.05 3.75 L-54.0 5.15 -53.65 5.45 -53.05 5.65 Q-50.55 6.6 -47.4 6.35 L-43.6 5.7 -43.7 2.5 Q-40.95 2.65 -39.8 5.45 -37.2 8.95 -32.35 5.45 L-29.8 5.25 -27.85 4.05 Q-27.0 3.35 -26.55 2.3 -27.95 1.25 -28.2 -2.0 L-32.8 -44.3" fill="#000000" fill-opacity="0.3019608" fill-rule="evenodd" stroke="none"/>
      <path d="M-54.0 5.15 L-53.05 5.65 -53.65 5.45 -54.0 5.15" fill="#75321d" fill-rule="evenodd" stroke="none"/>
      <path d="M-37.65 -72.55 L-33.9 -72.45 Q-34.9 -59.75 -33.15 -47.4 L-32.8 -44.3 M-56.05 3.75 L-57.05 2.65 Q-55.35 -4.95 -54.7 -16.3 -54.4 -24.5 -53.7 -32.05 -52.0 -62.55 -51.7 -72.55 -50.65 -73.4 -49.1 -72.4 -46.7 -70.75 -40.9 -72.35 -39.3 -73.65 -37.65 -72.55 M-39.8 5.45 Q-37.2 8.95 -32.35 5.45 L-29.8 5.25 -27.85 4.05 Q-27.0 3.35 -26.55 2.3 -27.95 1.25 -28.2 -2.0 L-32.8 -44.3 M-47.4 6.35 L-43.6 5.7 -43.7 2.5 M-54.0 5.15 L-56.05 3.75 M-53.05 5.65 L-54.0 5.15 M-53.05 5.65 Q-50.55 6.6 -47.4 6.35 M-39.8 5.45 Q-40.95 2.65 -43.7 2.5" fill="none" stroke="#000000" stroke-linecap="round" stroke-linejoin="round" stroke-opacity="0.4509804" stroke-width="0.5"/>
      <path d="M-37.65 -72.55 L-33.15 -47.4 M-32.35 5.45 Q-35.1 -1.85 -37.15 -19.35 L-39.25 -33.1 M-43.7 2.5 Q-44.2 -14.55 -45.75 -33.25 M-46.7 -42.95 L-47.2 -48.35" fill="none" stroke="#000000" stroke-linecap="round" stroke-linejoin="round" stroke-opacity="0.3019608" stroke-width="0.5"/>
      <path d="M-48.5 -67.2 L-40.65 -67.2 -40.65 -65.4 -48.2 -65.4 -48.5 -67.2 M31.2 -67.2 L31.2 -65.4 -35.65 -65.4 -36.05 -67.2 31.2 -67.2 M42.1 -67.2 L42.1 -65.4 34.5 -65.4 34.5 -67.2 42.1 -67.2 M49.85 -67.2 L49.85 -65.4 47.1 -65.4 46.75 -67.2 49.85 -67.2" fill="#000000" fill-opacity="0.34901962" fill-rule="evenodd" stroke="none"/>
      <path d="M55.5 -68.0 L55.5 -66.25 47.0 -66.25 46.7 -68.0 55.5 -68.0 M42.25 -68.0 L42.15 -66.25 34.5 -66.25 34.35 -68.0 42.25 -68.0 M31.25 -68.0 L31.2 -66.25 -35.85 -66.25 -36.05 -68.0 31.25 -68.0 M-40.6 -68.0 L-40.65 -66.25 -48.1 -66.25 -48.35 -67.55 -48.4 -68.0 -40.6 -68.0 M-57.75 -68.0 L-51.45 -68.0 -51.55 -66.25 -57.75 -66.25 -57.75 -68.0" fill="#917f69" fill-rule="evenodd" stroke="none"/>
      <path d="M46.7 -68.0 L46.45 -69.4 55.5 -69.4 55.5 -68.0 46.7 -68.0 M42.25 -68.0 L34.35 -68.0 34.25 -69.4 42.4 -69.4 42.25 -68.0 M-36.05 -68.0 L-36.4 -69.4 31.3 -69.4 31.25 -68.0 -36.05 -68.0 M-48.4 -68.0 L-48.35 -69.4 -40.5 -69.4 -40.6 -68.0 -48.4 -68.0 M-57.75 -68.0 L-57.75 -69.4 -51.45 -69.4 -51.45 -68.0 -57.75 -68.0" fill="#c4b5a2" fill-rule="evenodd" stroke="none"/>
      <path d="M46.7 -68.0 L46.45 -69.4 55.5 -69.4 55.5 -68.0 55.5 -66.25 47.0 -66.25 46.7 -68.0 M34.35 -68.0 L34.5 -66.25 42.15 -66.25 42.25 -68.0 M34.35 -68.0 L34.25 -69.4 42.4 -69.4 42.25 -68.0 M31.25 -68.0 L31.2 -66.25 -35.85 -66.25 -36.05 -68.0 -36.4 -69.4 31.3 -69.4 31.25 -68.0 M-40.6 -68.0 L-40.65 -66.25 -48.1 -66.25 -48.35 -67.55 -48.4 -68.0 -48.35 -69.4 -40.5 -69.4 -40.6 -68.0 M-51.45 -68.0 L-51.45 -69.4 -57.75 -69.4 -57.75 -68.0 M-51.45 -68.0 L-51.55 -66.25 -57.75 -66.25 -57.75 -68.0" fill="none" stroke="#000000" stroke-linecap="round" stroke-linejoin="round" stroke-opacity="0.4509804" stroke-width="0.5"/>
      <path d="M51.35 -70.45 L51.45 -70.8 Q51.9 -72.05 52.95 -72.1 53.95 -72.2 54.45 -71.1 54.75 -66.85 52.45 -67.6 51.7 -68.35 51.35 -70.45 M52.85 -65.35 Q53.8 -65.2 54.35 -67.3 54.3 -65.15 53.6 -64.25 52.5 -63.95 52.1 -64.75 51.7 -65.5 51.6 -67.45 51.85 -65.6 52.85 -65.35 M-55.9 -70.45 L-55.8 -70.8 Q-55.35 -72.05 -54.3 -72.1 -53.3 -72.2 -52.75 -71.1 -52.45 -66.85 -54.75 -67.6 -55.55 -68.35 -55.9 -70.45 M-53.65 -64.25 Q-54.7 -63.95 -55.15 -64.75 -55.55 -65.5 -55.65 -67.45 -55.4 -65.6 -54.4 -65.35 -53.45 -65.2 -52.9 -67.3 -52.95 -65.15 -53.65 -64.25" fill="#af9f8c" fill-rule="evenodd" stroke="none"/>
      <path d="M54.45 -71.1 L54.55 -70.95 Q55.0 -69.9 54.85 -68.35 L54.75 -66.4 Q54.65 -65.35 54.2 -64.45 53.75 -63.55 53.0 -63.55 52.25 -63.55 51.8 -64.5 51.3 -65.5 51.25 -66.55 L51.25 -68.3 Q51.1 -69.5 51.35 -70.45 51.7 -68.35 52.45 -67.6 54.75 -66.85 54.45 -71.1 M52.85 -65.35 Q51.85 -65.6 51.6 -67.45 51.7 -65.5 52.1 -64.75 52.5 -63.95 53.6 -64.25 54.3 -65.15 54.35 -67.3 53.8 -65.2 52.85 -65.35 M-55.9 -70.45 Q-55.55 -68.35 -54.75 -67.6 -52.45 -66.85 -52.75 -71.1 L-52.7 -70.95 Q-52.25 -69.9 -52.4 -68.35 L-52.5 -66.4 Q-52.6 -65.35 -53.05 -64.45 -53.5 -63.55 -54.25 -63.55 -55.0 -63.55 -55.45 -64.5 -55.9 -65.5 -55.95 -66.55 L-56.0 -68.3 Q-56.15 -69.5 -55.9 -70.45 M-53.65 -64.25 Q-52.95 -65.15 -52.9 -67.3 -53.45 -65.2 -54.4 -65.35 -55.4 -65.6 -55.65 -67.45 -55.55 -65.5 -55.15 -64.75 -54.7 -63.95 -53.65 -64.25" fill="#917f69" fill-rule="evenodd" stroke="none"/>
      <path d="M51.35 -70.45 L51.45 -70.8 Q51.9 -72.05 52.95 -72.1 53.95 -72.2 54.45 -71.1 L54.55 -70.95 Q55.0 -69.9 54.85 -68.35 L54.75 -66.4 Q54.65 -65.35 54.2 -64.45 53.75 -63.55 53.0 -63.55 52.25 -63.55 51.8 -64.5 51.3 -65.5 51.25 -66.55 L51.25 -68.3 Q51.1 -69.5 51.35 -70.45 M-52.75 -71.1 Q-53.3 -72.2 -54.3 -72.1 -55.35 -72.05 -55.8 -70.8 L-55.9 -70.45 M-52.75 -71.1 L-52.7 -70.95 Q-52.25 -69.9 -52.4 -68.35 L-52.5 -66.4 Q-52.6 -65.35 -53.05 -64.45 -53.5 -63.55 -54.25 -63.55 -55.0 -63.55 -55.45 -64.5 -55.9 -65.5 -55.95 -66.55 L-56.0 -68.3 Q-56.15 -69.5 -55.9 -70.45" fill="none" stroke="#000000" stroke-linecap="round" stroke-linejoin="round" stroke-opacity="0.2784314" stroke-width="0.4"/>
      <path d="M45.7 -72.55 L49.5 -72.45 Q48.5 -59.75 50.25 -47.4 L45.7 -72.55 M34.2 -72.4 Q36.65 -70.75 42.45 -72.35 41.3 -65.2 41.9 -53.4 42.4 -44.75 43.1 -39.3 40.65 -52.35 40.3 -55.2 39.2 -65.05 36.75 -66.25 34.85 -67.2 35.25 -55.7 L34.2 -72.4 M44.15 -33.1 Q49.8 -2.95 55.6 4.05 L53.6 5.25 51.1 5.45 Q48.3 -1.85 46.25 -19.35 L44.15 -33.1 M35.95 6.35 Q39.4 -0.25 37.35 -33.25 L37.35 -33.3 37.55 -33.3 37.55 -33.25 Q40.15 -14.25 42.4 -8.2 44.65 -2.2 43.6 5.45 42.4 2.65 39.65 2.5 L39.75 5.7 35.95 6.35 M37.55 -33.25 Q39.15 -14.55 39.65 2.5 39.15 -14.55 37.55 -33.25" fill="#620000" fill-rule="evenodd" stroke="none"/>
      <path d="M42.45 -72.35 Q44.1 -73.65 45.7 -72.55 L50.25 -47.4 50.6 -44.3 55.25 -2.0 Q55.45 1.25 56.9 2.3 56.45 3.35 55.6 4.05 49.8 -2.95 44.15 -33.1 L43.1 -39.3 Q42.4 -44.75 41.9 -53.4 41.3 -65.2 42.45 -72.35" fill="url(#decoration76-gradient10)" fill-rule="evenodd" stroke="none"/>
      <path d="M27.25 3.75 L26.25 2.65 Q27.95 -4.95 28.6 -16.3 28.9 -24.5 29.6 -32.05 31.35 -62.55 31.6 -72.55 32.65 -73.4 34.2 -72.4 L35.25 -55.7 Q34.85 -67.2 36.75 -66.25 39.2 -65.05 40.3 -55.2 40.65 -52.35 43.1 -39.3 L44.15 -33.1 46.25 -19.35 Q48.3 -1.85 51.1 5.45 46.15 8.95 43.6 5.45 44.65 -2.2 42.4 -8.2 40.15 -14.25 37.55 -33.25 L37.55 -33.3 37.0 -38.7 37.35 -33.3 37.35 -33.25 Q39.4 -0.25 35.95 6.35 32.75 6.6 30.25 5.65 L29.3 5.15 27.25 3.75 M36.1 -48.35 L36.65 -42.95 36.1 -48.35" fill="url(#decoration76-gradient11)" fill-rule="evenodd" stroke="none"/>
      <path d="M37.55 -33.3 L37.35 -33.3 37.0 -38.7 37.55 -33.3" fill="#2d223b" fill-rule="evenodd" stroke="none"/>
      <path d="M50.6 -44.3 L58.4 2.65 Q55.15 7.45 51.7 6.8 50.6 8.45 46.75 8.7 43.0 8.35 41.5 5.7 40.4 7.65 36.9 8.1 30.3 8.55 27.25 3.75 L29.3 5.15 29.65 5.45 30.25 5.65 Q32.75 6.6 35.95 6.35 L39.75 5.7 39.65 2.5 Q42.4 2.65 43.6 5.45 46.15 8.95 51.1 5.45 L53.6 5.25 55.6 4.05 Q56.45 3.35 56.9 2.3 55.45 1.25 55.25 -2.0 L50.6 -44.3" fill="#000000" fill-opacity="0.3019608" fill-rule="evenodd" stroke="none"/>
      <path d="M29.3 5.15 L30.25 5.65 29.65 5.45 29.3 5.15" fill="#75321d" fill-rule="evenodd" stroke="none"/>
      <path d="M42.45 -72.35 Q44.1 -73.65 45.7 -72.55 L49.5 -72.45 Q48.5 -59.75 50.25 -47.4 L50.6 -44.3 M27.25 3.75 L26.25 2.65 Q27.95 -4.95 28.6 -16.3 28.9 -24.5 29.6 -32.05 31.35 -62.55 31.6 -72.55 32.65 -73.4 34.2 -72.4 36.65 -70.75 42.45 -72.35 M55.6 4.05 Q56.45 3.35 56.9 2.3 55.45 1.25 55.25 -2.0 L50.6 -44.3 M35.95 6.35 L39.75 5.7 39.65 2.5 M43.6 5.45 Q46.15 8.95 51.1 5.45 L53.6 5.25 55.6 4.05 M29.3 5.15 L27.25 3.75 M30.25 5.65 L29.3 5.15 M30.25 5.65 Q32.75 6.6 35.95 6.35 M43.6 5.45 Q42.4 2.65 39.65 2.5" fill="none" stroke="#000000" stroke-linecap="round" stroke-linejoin="round" stroke-opacity="0.4509804" stroke-width="0.5"/>
      <path d="M39.65 2.5 Q39.15 -14.55 37.55 -33.25 M36.65 -42.95 L36.1 -48.35 M51.1 5.45 Q48.3 -1.85 46.25 -19.35 L44.15 -33.1 M50.25 -47.4 L45.7 -72.55" fill="none" stroke="#000000" stroke-linecap="round" stroke-linejoin="round" stroke-opacity="0.3019608" stroke-width="0.5"/>
      <path d="M-56.1 -4.8 Q-55.0 -2.55 -51.2 -1.55 -47.1 -0.45 -43.75 -2.05 M-34.45 -2.2 Q-30.1 -1.5 -28.45 -4.35 M-43.9 -3.5 Q-41.95 -4.45 -39.7 -0.9 -37.75 1.9 -34.15 -0.9 M-56.25 -1.2 Q-54.75 1.15 -50.35 1.7 -45.95 2.35 -43.5 0.4 M-43.7 -0.95 Q-42.35 -1.5 -40.55 1.35 -36.15 6.05 -33.1 2.35 M-33.7 1.4 Q-28.85 1.75 -28.0 -0.75" fill="none" stroke="#ffffff" stroke-linecap="round" stroke-linejoin="round" stroke-opacity="0.43137255" stroke-width="0.30000000000000004"/>
      <path d="M-49.9 -72.9 Q-50.8 -32.65 -55.7 3.6 M-27.35 3.9 Q-31.65 -6.1 -32.9 -40.0" fill="none" stroke="#ffffff" stroke-linecap="round" stroke-linejoin="round" stroke-opacity="0.43137255" stroke-width="0.30000000000000004"/>
      <path d="M27.25 -4.95 Q28.35 -2.7 32.15 -1.7 36.25 -0.6 39.55 -2.2 M48.85 -2.3 Q53.25 -1.65 54.9 -4.5 M39.45 -3.65 Q41.4 -4.6 43.6 -1.0 45.6 1.75 49.2 -1.0 M39.6 -1.05 Q40.95 -1.65 42.8 1.2 47.2 5.9 50.2 2.2 M27.1 -1.35 Q28.6 1.0 32.95 1.6 37.4 2.2 39.85 0.3 M49.65 1.25 Q54.5 1.65 55.35 -0.9" fill="none" stroke="#ffffff" stroke-linecap="round" stroke-linejoin="round" stroke-opacity="0.43137255" stroke-width="0.30000000000000004"/>
      <path d="M33.45 -73.05 Q32.55 -32.8 27.65 3.45 M56.0 3.75 Q51.7 -6.25 50.45 -40.15" fill="none" stroke="#ffffff" stroke-linecap="round" stroke-linejoin="round" stroke-opacity="0.43137255" stroke-width="0.30000000000000004"/>
    </g>
    <linearGradient gradientTransform="matrix(0.0056, 0.0268, -0.0396, 0.0086, 15.65, -10.55)" gradientUnits="userSpaceOnUse" id="decoration76-gradient0" spreadMethod="pad" x1="-819.2" x2="819.2">
      <stop offset="0.0" stop-color="#000000" stop-opacity="0.0"/>
      <stop offset="1.0" stop-color="#000000" stop-opacity="0.5019608"/>
    </linearGradient>
    <linearGradient gradientTransform="matrix(-0.0089, -0.0501, 0.0417, -0.0077, 5.05, -38.8)" gradientUnits="userSpaceOnUse" id="decoration76-gradient1" spreadMethod="pad" x1="-819.2" x2="819.2">
      <stop offset="0.0" stop-color="#2b1e0f"/>
      <stop offset="0.9882352941176471" stop-color="#b69f82"/>
    </linearGradient>
    <linearGradient gradientTransform="matrix(-0.014, -0.0333, 0.0318, -0.0138, 8.7, -55.1)" gradientUnits="userSpaceOnUse" id="decoration76-gradient2" spreadMethod="pad" x1="-819.2" x2="819.2">
      <stop offset="0.0" stop-color="#473118"/>
      <stop offset="0.9882352941176471" stop-color="#634422"/>
    </linearGradient>
    <linearGradient gradientTransform="matrix(-0.0196, -0.02, 0.0245, -0.0249, -14.35, -36.05)" gradientUnits="userSpaceOnUse" id="decoration76-gradient3" spreadMethod="pad" x1="-819.2" x2="819.2">
      <stop offset="0.0" stop-color="#473118"/>
      <stop offset="0.9882352941176471" stop-color="#634422"/>
    </linearGradient>
    <linearGradient gradientTransform="matrix(0.0193, -0.0072, 0.005, 0.0149, 12.1, -21.0)" gradientUnits="userSpaceOnUse" id="decoration76-gradient4" spreadMethod="pad" x1="-819.2" x2="819.2">
      <stop offset="0.0" stop-color="#ffffff" stop-opacity="0.6901961"/>
      <stop offset="1.0" stop-color="#ffffff" stop-opacity="0.0"/>
    </linearGradient>
    <linearGradient gradientTransform="matrix(0.0184, -0.0052, 0.0048, 0.0188, 11.9, -31.3)" gradientUnits="userSpaceOnUse" id="decoration76-gradient5" spreadMethod="pad" x1="-819.2" x2="819.2">
      <stop offset="0.0" stop-color="#ffffff" stop-opacity="0.6901961"/>
      <stop offset="1.0" stop-color="#ffffff" stop-opacity="0.0"/>
    </linearGradient>
    <linearGradient gradientTransform="matrix(0.019, -0.0052, 0.005, 0.0188, -18.8, -35.1)" gradientUnits="userSpaceOnUse" id="decoration76-gradient6" spreadMethod="pad" x1="-819.2" x2="819.2">
      <stop offset="0.0" stop-color="#ffffff" stop-opacity="0.6901961"/>
      <stop offset="1.0" stop-color="#ffffff" stop-opacity="0.0"/>
    </linearGradient>
    <linearGradient gradientTransform="matrix(0.02, -0.0072, 0.0052, 0.0149, -18.55, -24.8)" gradientUnits="userSpaceOnUse" id="decoration76-gradient7" spreadMethod="pad" x1="-819.2" x2="819.2">
      <stop offset="0.0" stop-color="#ffffff" stop-opacity="0.6901961"/>
      <stop offset="1.0" stop-color="#ffffff" stop-opacity="0.0"/>
    </linearGradient>
    <linearGradient gradientTransform="matrix(0.0092, 0.0, 0.0, 0.0471, -36.45, -34.55)" gradientUnits="userSpaceOnUse" id="decoration76-gradient8" spreadMethod="pad" x1="-819.2" x2="819.2">
      <stop offset="0.050980392156862744" stop-color="#b93131"/>
      <stop offset="1.0" stop-color="#9d1414"/>
    </linearGradient>
    <linearGradient gradientTransform="matrix(0.01, 9.0E-4, -0.0043, 0.0487, -51.25, -33.8)" gradientUnits="userSpaceOnUse" id="decoration76-gradient9" spreadMethod="pad" x1="-819.2" x2="819.2">
      <stop offset="0.0" stop-color="#b93131"/>
      <stop offset="1.0" stop-color="#9d1414"/>
    </linearGradient>
    <linearGradient gradientTransform="matrix(0.0093, 0.0, 0.0, 0.0471, 46.9, -34.55)" gradientUnits="userSpaceOnUse" id="decoration76-gradient10" spreadMethod="pad" x1="-819.2" x2="819.2">
      <stop offset="0.050980392156862744" stop-color="#b93131"/>
      <stop offset="1.0" stop-color="#9d1414"/>
    </linearGradient>
    <linearGradient gradientTransform="matrix(0.0101, 9.0E-4, -0.0044, 0.0487, 32.05, -33.8)" gradientUnits="userSpaceOnUse" id="decoration76-gradient11" spreadMethod="pad" x1="-819.2" x2="819.2">
      <stop offset="0.0" stop-color="#b93131"/>
      <stop offset="1.0" stop-color="#9d1414"/>
    </linearGradient>
    <g id="decoration76-sprite0" transform="matrix(1.0, 0.0, 0.0, 1.0, 26.05, 47.85)">
      <use height="48.25" transform="matrix(1.0, 0.0, 0.0, 1.0, -26.05, -47.85)" width="44.3" xlink:href="#decoration76-shape1"/>
      <use height="9.9" transform="matrix(0.919, -0.3942, 0.3942, 0.919, -16.2566, -32.733)" width="12.1" xlink:href="#decoration76-sprite1"/>
      <use height="9.9" transform="matrix(0.9659, 0.2588, -0.2386, 0.8903, -4.2797, -43.8749)" width="12.1" xlink:href="#decoration76-sprite1"/>
      <use height="17.25" transform="matrix(1.0, 0.0, 0.0, 1.0, 5.35, -35.75)" width="17.6" xlink:href="#decoration76-shape3"/>
      <use height="9.9" transform="matrix(-0.8754, -0.2346, -0.2588, 0.9659, 15.286, -33.0983)" width="12.1" xlink:href="#decoration76-sprite1"/>
      <use height="9.9" transform="matrix(-0.9327, -0.2499, -0.2758, 1.0292, 18.7777, -26.2694)" width="12.1" xlink:href="#decoration76-sprite1"/>
      <use height="9.9" transform="matrix(0.9146, -0.4307, 0.4307, 0.9146, -17.4771, -23.7689)" width="12.1" xlink:href="#decoration76-sprite1"/>
      <use height="9.9" transform="matrix(0.9994, -0.0347, 0.0347, 0.9994, -5.6675, -34.2436)" width="12.1" xlink:href="#decoration76-sprite1"/>
      <use height="9.9" transform="matrix(-0.8301, 0.4792, 0.5288, 0.916, 3.8433, -29.5081)" width="12.1" xlink:href="#decoration76-sprite1"/>
    </g>
    <g id="decoration76-shape1" transform="matrix(1.0, 0.0, 0.0, 1.0, 26.05, 47.85)">
      <path d="M6.65 -36.1 L9.3 -40.15 Q13.25 -45.65 18.1 -47.7 13.55 -45.55 9.8 -40.4 8.15 -38.25 6.8 -35.6 1.95 -26.6 2.25 -18.7 L1.4 -17.5 Q1.65 -27.15 6.65 -36.1" fill="url(#decoration76-gradient12)" fill-rule="evenodd" stroke="none"/>
      <path d="M6.65 -36.1 L9.3 -40.15 Q13.25 -45.65 18.1 -47.7 13.55 -45.55 9.8 -40.4 8.15 -38.25 6.8 -35.6 1.95 -26.6 2.25 -18.7 L1.4 -17.5 Q1.65 -27.15 6.65 -36.1 Z" fill="none" stroke="#000000" stroke-linecap="round" stroke-linejoin="round" stroke-opacity="0.3019608" stroke-width="0.30000000000000004"/>
      <path d="M-14.1 -32.2 Q-20.55 -35.2 -25.9 -27.9 -20.65 -35.65 -14.15 -33.05 -7.65 -30.4 -4.1 -18.7 L-5.05 -18.7 Q-7.65 -29.25 -14.1 -32.2" fill="url(#decoration76-gradient13)" fill-rule="evenodd" stroke="none"/>
      <path d="M-14.1 -32.2 Q-7.65 -29.25 -5.05 -18.7 L-4.1 -18.7 Q-7.65 -30.4 -14.15 -33.05 -20.65 -35.65 -25.9 -27.9 -20.55 -35.2 -14.1 -32.2 Z" fill="none" stroke="#000000" stroke-linecap="round" stroke-linejoin="round" stroke-opacity="0.3019608" stroke-width="0.30000000000000004"/>
      <path d="M-0.25 -38.7 L0.8 -38.7 Q-1.7 -26.1 -0.4 -14.25 L-1.6 -14.25 Q-2.25 -26.4 -0.25 -38.7" fill="url(#decoration76-gradient14)" fill-rule="evenodd" stroke="none"/>
      <path d="M-0.25 -38.7 L0.8 -38.7 Q-1.7 -26.1 -0.4 -14.25 L-1.6 -14.25 Q-2.25 -26.4 -0.25 -38.7 Z" fill="none" stroke="#000000" stroke-linecap="round" stroke-linejoin="round" stroke-opacity="0.3019608" stroke-width="0.30000000000000004"/>
      <path d="M-1.7 -14.2 L-2.85 -13.95 Q-3.65 -22.65 -8.25 -30.95 L-7.2 -31.2 Q-3.2 -22.95 -1.7 -14.2" fill="url(#decoration76-gradient15)" fill-rule="evenodd" stroke="none"/>
      <path d="M-1.7 -14.2 Q-3.2 -22.95 -7.2 -31.2 L-8.25 -30.95 Q-3.65 -22.65 -2.85 -13.95 L-1.7 -14.2 Z" fill="none" stroke="#000000" stroke-linecap="round" stroke-linejoin="round" stroke-opacity="0.3019608" stroke-width="0.30000000000000004"/>
      <path d="M-11.85 -22.1 Q-17.15 -21.0 -19.75 -14.65 -17.35 -21.2 -12.05 -22.55 -6.75 -23.85 -1.9 -18.85 L-2.6 -18.45 Q-6.55 -23.2 -11.85 -22.1" fill="url(#decoration76-gradient16)" fill-rule="evenodd" stroke="none"/>
      <path d="M-11.85 -22.1 Q-6.55 -23.2 -2.6 -18.45 L-1.9 -18.85 Q-6.75 -23.85 -12.05 -22.55 -17.35 -21.2 -19.75 -14.65 -17.15 -21.0 -11.85 -22.1 Z" fill="none" stroke="#000000" stroke-linecap="round" stroke-linejoin="round" stroke-opacity="0.3019608" stroke-width="0.30000000000000004"/>
      <path d="M2.9 -14.0 L1.75 -14.25 Q3.25 -23.0 7.25 -31.25 L8.3 -31.0 Q3.7 -22.7 2.9 -14.0" fill="url(#decoration76-gradient17)" fill-rule="evenodd" stroke="none"/>
      <path d="M2.9 -14.0 L1.75 -14.25 Q3.25 -23.0 7.25 -31.25 L8.3 -31.0 Q3.7 -22.7 2.9 -14.0 Z" fill="none" stroke="#000000" stroke-linecap="round" stroke-linejoin="round" stroke-opacity="0.3019608" stroke-width="0.30000000000000004"/>
      <path d="M5.4 -19.1 L8.3 -19.1 5.4 0.25 -4.7 0.25 -5.8 -7.75 Q-4.35 -1.9 -1.05 -2.6 5.55 -3.85 5.4 -19.1" fill="#230407" fill-rule="evenodd" stroke="none"/>
      <path d="M-5.8 -7.75 L-7.4 -19.1 5.4 -19.1 Q5.55 -3.85 -1.05 -2.6 -4.35 -1.9 -5.8 -7.75" fill="url(#decoration76-gradient18)" fill-rule="evenodd" stroke="none"/>
      <path d="M5.4 -19.1 L8.3 -19.1 5.4 0.25 -4.7 0.25 -5.8 -7.75 -7.4 -19.1 5.4 -19.1 Z" fill="none" stroke="#000000" stroke-linecap="round" stroke-linejoin="round" stroke-opacity="0.3019608" stroke-width="0.30000000000000004"/>
    </g>
    <linearGradient gradientTransform="matrix(-0.0076, 0.0164, 0.0063, -0.0028, 9.05, -33.95)" gradientUnits="userSpaceOnUse" id="decoration76-gradient12" spreadMethod="pad" x1="-819.2" x2="819.2">
      <stop offset="0.0" stop-color="#5e8a3b"/>
      <stop offset="0.9529411764705882" stop-color="#293f17"/>
    </linearGradient>
    <linearGradient gradientTransform="matrix(0.0109, 0.0076, -0.0052, 0.0075, -15.0, -26.2)" gradientUnits="userSpaceOnUse" id="decoration76-gradient13" spreadMethod="pad" x1="-819.2" x2="819.2">
      <stop offset="0.0" stop-color="#5e8a3b"/>
      <stop offset="0.9529411764705882" stop-color="#293f17"/>
    </linearGradient>
    <linearGradient gradientTransform="matrix(0.0024, 0.0041, -0.0129, 0.0075, 3.9, -32.9)" gradientUnits="userSpaceOnUse" id="decoration76-gradient14" spreadMethod="pad" x1="-819.2" x2="819.2">
      <stop offset="0.0" stop-color="#5e8a3b"/>
      <stop offset="0.9529411764705882" stop-color="#293f17"/>
    </linearGradient>
    <linearGradient gradientTransform="matrix(-0.0016, 0.0035, 0.0138, 0.0022, -10.3, -26.1)" gradientUnits="userSpaceOnUse" id="decoration76-gradient15" spreadMethod="pad" x1="-819.2" x2="819.2">
      <stop offset="0.0" stop-color="#5e8a3b"/>
      <stop offset="0.9529411764705882" stop-color="#293f17"/>
    </linearGradient>
    <linearGradient gradientTransform="matrix(0.0095, -4.0E-4, -0.0025, 0.0064, -11.35, -18.35)" gradientUnits="userSpaceOnUse" id="decoration76-gradient16" spreadMethod="pad" x1="-819.2" x2="819.2">
      <stop offset="0.0" stop-color="#5e8a3b"/>
      <stop offset="0.9529411764705882" stop-color="#293f17"/>
    </linearGradient>
    <linearGradient gradientTransform="matrix(0.0016, 0.0035, -0.0138, 0.0022, 10.35, -26.15)" gradientUnits="userSpaceOnUse" id="decoration76-gradient17" spreadMethod="pad" x1="-819.2" x2="819.2">
      <stop offset="0.0" stop-color="#5e8a3b"/>
      <stop offset="0.9529411764705882" stop-color="#293f17"/>
    </linearGradient>
    <radialGradient cx="0" cy="0" gradientTransform="matrix(0.0196, 0.0, 0.0, 0.0196, -4.9, -20.0)" gradientUnits="userSpaceOnUse" id="decoration76-gradient18" r="819.2" spreadMethod="pad">
      <stop offset="0.0" stop-color="#80242c"/>
      <stop offset="1.0" stop-color="#3a090d"/>
    </radialGradient>
    <g id="decoration76-sprite1" transform="matrix(1.0, 0.0, 0.0, 1.0, 0.15, 1.95)">
      <use height="9.9" transform="matrix(1.0, 0.0, 0.0, 1.0, -0.15, -1.95)" width="12.1" xlink:href="#decoration76-shape2"/>
    </g>
    <g id="decoration76-shape2" transform="matrix(1.0, 0.0, 0.0, 1.0, 0.15, 1.95)">
      <path d="M2.95 1.95 L3.75 1.75 Q4.55 1.45 4.7 0.65 L5.7 -1.05 5.65 -1.05 5.7 -1.1 7.5 -0.5 9.05 0.3 Q9.0 0.9 8.25 2.1 L8.0 2.5 Q7.9 1.75 7.5 1.3 L7.0 0.55 6.95 0.35 6.9 0.25 6.9 0.15 5.65 0.35 4.7 0.65 5.65 0.35 6.9 0.15 6.9 0.25 6.95 0.35 Q5.9 2.3 4.3 2.45 L2.95 1.95 M5.7 -1.05 L6.9 0.15 5.7 -1.05" fill="#870e00" fill-rule="evenodd" stroke="none"/>
      <path d="M6.95 0.35 L7.0 0.55 7.2 1.35 6.85 1.85 Q5.85 2.65 4.3 2.45 5.9 2.3 6.95 0.35" fill="#cd1600" fill-rule="evenodd" stroke="none"/>
      <path d="M2.95 -0.5 Q3.45 -1.6 4.0 -1.8 4.45 -1.9 5.65 -1.05 L5.7 -1.05 4.7 0.65 Q4.55 1.45 3.75 1.75 L2.95 1.95 2.9 1.95 Q2.75 3.0 4.1 3.6 L3.3 4.1 Q1.95 4.35 1.8 3.7 L1.65 3.35 1.65 3.2 Q1.35 1.45 2.95 -0.5" fill="url(#decoration76-gradient19)" fill-rule="evenodd" stroke="none"/>
      <path d="M2.95 -0.5 Q1.35 1.45 1.65 3.2 L1.65 3.35 1.8 4.35 2.35 5.4 3.75 5.95 3.25 6.0 1.55 5.45 0.5 4.9 Q-0.05 3.75 0.0 2.55 0.0 1.4 0.1 1.4 L1.1 0.5 1.85 -0.3 2.95 -0.5" fill="url(#decoration76-gradient20)" fill-rule="evenodd" stroke="none"/>
      <path d="M7.5 -0.5 L7.3 -1.1 Q7.3 -1.45 7.95 -1.5 L9.7 -1.1 10.95 -1.1 11.55 -0.45 11.65 -0.2 Q11.75 0.55 10.6 2.15 L8.35 4.25 Q10.2 2.65 9.1 0.55 L9.05 0.3 7.5 -0.5" fill="url(#decoration76-gradient21)" fill-rule="evenodd" stroke="none"/>
      <path d="M11.55 -0.45 L11.75 0.0 Q11.95 1.1 11.55 2.9 11.0 5.1 9.9 6.15 9.1 6.75 7.5 7.25 1.95 9.05 0.5 4.9 L1.55 5.45 3.25 6.0 3.75 5.95 4.3 5.75 4.35 5.7 4.35 5.65 Q4.6 5.1 6.1 4.6 L8.35 4.25 10.6 2.15 Q11.75 0.55 11.65 -0.2 L11.55 -0.45 M7.5 7.25 L5.95 7.2 Q4.45 7.0 4.3 6.15 L4.3 5.75 4.3 6.15 Q4.45 7.0 5.95 7.2 L7.5 7.25" fill="url(#decoration76-gradient22)" fill-rule="evenodd" stroke="none"/>
      <path d="M1.65 3.35 L1.8 3.7 Q1.95 4.35 3.3 4.1 L4.1 3.6 4.7 3.45 7.0 3.55 8.0 2.5 8.25 2.1 Q9.0 0.9 9.05 0.3 L9.1 0.55 Q10.2 2.65 8.35 4.25 L6.1 4.6 Q4.6 5.1 4.35 5.65 L4.3 5.75 3.75 5.95 2.35 5.4 1.8 4.35 1.65 3.35" fill="url(#decoration76-gradient23)" fill-rule="evenodd" stroke="none"/>
      <path d="M4.1 3.6 Q2.75 3.0 2.9 1.95 L2.95 1.95 4.3 2.45 Q5.85 2.65 6.85 1.85 L7.2 1.35 7.0 0.55 7.5 1.3 Q7.9 1.75 8.0 2.5 L7.0 3.55 4.7 3.45 4.1 3.6" fill="url(#decoration76-gradient24)" fill-rule="evenodd" stroke="none"/>
      <path d="M5.65 -1.05 Q4.45 -1.9 4.0 -1.8 3.45 -1.6 2.95 -0.5 1.35 1.45 1.65 3.2 L1.65 3.35 1.8 3.7 Q1.95 4.35 3.3 4.1 L4.1 3.6 Q2.75 3.0 2.9 1.95 L2.95 1.95 3.75 1.75 Q4.55 1.45 4.7 0.65 L5.7 -1.05 5.65 -1.05 5.7 -1.1 7.5 -0.5 7.3 -1.1 Q7.3 -1.45 7.95 -1.5 L9.7 -1.1 10.95 -1.1 11.55 -0.45 11.75 0.0 Q11.95 1.1 11.55 2.9 11.0 5.1 9.9 6.15 9.1 6.75 7.5 7.25 1.95 9.05 0.5 4.9 -0.05 3.75 0.0 2.55 0.0 1.4 0.1 1.4 L1.1 0.5 1.85 -0.3 2.95 -0.5 M11.55 -0.45 L11.65 -0.2 Q11.75 0.55 10.6 2.15 L8.35 4.25 6.1 4.6 Q4.6 5.1 4.35 5.65 L4.35 5.7 4.3 5.75 4.3 6.15 Q4.45 7.0 5.95 7.2 L7.5 7.25 M9.05 0.3 L9.1 0.55 Q10.2 2.65 8.35 4.25 M8.0 2.5 L8.25 2.1 Q9.0 0.9 9.05 0.3 L7.5 -0.5 M6.95 0.35 L7.0 0.55 7.5 1.3 Q7.9 1.75 8.0 2.5 L7.0 3.55 4.7 3.45 4.1 3.6 M7.0 0.55 L7.2 1.35 6.85 1.85 Q5.85 2.65 4.3 2.45 L2.95 1.95 M6.95 0.35 L6.9 0.25 6.9 0.15 5.65 0.35 4.7 0.65 M3.75 5.95 L2.35 5.4 1.8 4.35 1.65 3.35 M0.5 4.9 L1.55 5.45 3.25 6.0 3.75 5.95 4.3 5.75 4.35 5.65 M6.9 0.15 L5.7 -1.05" fill="none" stroke="#000000" stroke-linecap="round" stroke-linejoin="round" stroke-opacity="0.3019608" stroke-width="0.30000000000000004"/>
    </g>
    <linearGradient gradientTransform="matrix(0.0013, 0.0022, -0.0032, 0.0018, 4.3, 2.45)" gradientUnits="userSpaceOnUse" id="decoration76-gradient19" spreadMethod="pad" x1="-819.2" x2="819.2">
      <stop offset="0.0" stop-color="#870e00"/>
      <stop offset="0.9529411764705882" stop-color="#460700"/>
    </linearGradient>
    <linearGradient gradientTransform="matrix(0.0011, 0.002, -0.0034, 0.002, 2.4, 4.25)" gradientUnits="userSpaceOnUse" id="decoration76-gradient20" spreadMethod="pad" x1="-819.2" x2="819.2">
      <stop offset="0.0" stop-color="#870e00"/>
      <stop offset="0.9529411764705882" stop-color="#460700"/>
    </linearGradient>
    <linearGradient gradientTransform="matrix(0.0, 0.0034, -0.0035, 0.0, 9.3, 2.5)" gradientUnits="userSpaceOnUse" id="decoration76-gradient21" spreadMethod="pad" x1="-819.2" x2="819.2">
      <stop offset="0.0" stop-color="#870e00"/>
      <stop offset="0.9529411764705882" stop-color="#460700"/>
    </linearGradient>
    <linearGradient gradientTransform="matrix(0.0014, 0.0023, -0.0041, 0.0024, 8.25, 3.5)" gradientUnits="userSpaceOnUse" id="decoration76-gradient22" spreadMethod="pad" x1="-819.2" x2="819.2">
      <stop offset="0.0" stop-color="#ff4646"/>
      <stop offset="0.9725490196078431" stop-color="#a31100"/>
    </linearGradient>
    <linearGradient gradientTransform="matrix(0.0027, 0.0015, -0.0017, 0.003, 4.6, 3.35)" gradientUnits="userSpaceOnUse" id="decoration76-gradient23" spreadMethod="pad" x1="-819.2" x2="819.2">
      <stop offset="0.0" stop-color="#ff4646"/>
      <stop offset="0.9725490196078431" stop-color="#a31100"/>
    </linearGradient>
    <linearGradient gradientTransform="matrix(0.0, 0.0031, -0.002, 0.0, 5.55, 1.15)" gradientUnits="userSpaceOnUse" id="decoration76-gradient24" spreadMethod="pad" x1="-819.2" x2="819.2">
      <stop offset="0.0" stop-color="#ff4646"/>
      <stop offset="0.9725490196078431" stop-color="#a31100"/>
    </linearGradient>
    <g id="decoration76-shape3" transform="matrix(1.0, 0.0, 0.0, 1.0, -5.35, 35.75)">
      <path d="M11.8 -31.65 Q6.75 -26.7 6.35 -19.15 L5.5 -18.65 Q6.55 -27.4 11.7 -32.2 13.05 -33.4 14.35 -34.15 18.35 -36.5 22.8 -35.0 18.6 -36.2 14.85 -34.0 13.25 -33.15 11.8 -31.65" fill="url(#decoration76-gradient25)" fill-rule="evenodd" stroke="none"/>
      <path d="M11.8 -31.65 Q6.75 -26.7 6.35 -19.15 L5.5 -18.65 Q6.55 -27.4 11.7 -32.2 13.05 -33.4 14.35 -34.15 18.35 -36.5 22.8 -35.0 18.6 -36.2 14.85 -34.0 13.25 -33.15 11.8 -31.65 Z" fill="none" stroke="#000000" stroke-linecap="round" stroke-linejoin="round" stroke-opacity="0.3019608" stroke-width="0.30000000000000004"/>
    </g>
    <linearGradient gradientTransform="matrix(-0.0081, 0.0099, 0.0058, 0.0018, 13.65, -28.55)" gradientUnits="userSpaceOnUse" id="decoration76-gradient25" spreadMethod="pad" x1="-819.2" x2="819.2">
      <stop offset="0.0" stop-color="#5e8a3b"/>
      <stop offset="0.9529411764705882" stop-color="#293f17"/>
    </linearGradient>
  </defs>
</svg>
