<?xml version="1.0" encoding="UTF-8" standalone="no"?>
<svg xmlns:xlink="http://www.w3.org/1999/xlink" height="57.25px" width="37.1px" xmlns="http://www.w3.org/2000/svg">
  <g transform="matrix(1.0, 0.0, 0.0, 1.0, 16.65, 0.15)">
    <use height="57.25" transform="matrix(1.0, 0.0, 0.0, 1.0, -16.65, -0.15)" width="37.1" xlink:href="#decoration77-shape0"/>
  </g>
  <defs>
    <g id="decoration77-shape0" transform="matrix(1.0, 0.0, 0.0, 1.0, 16.65, 0.15)">
      <path d="M2.2 0.2 Q4.3 2.5 1.25 26.95 L1.0 25.45 Q1.95 9.45 0.25 5.85 0.8 2.2 2.2 0.2" fill="#510000" fill-rule="evenodd" stroke="none"/>
      <path d="M1.25 26.95 Q-4.15 12.4 -1.65 1.55 0.45 -0.55 2.2 0.2 0.8 2.2 0.25 5.85 -0.9 12.7 1.0 25.45 L1.25 26.95" fill="#950606" fill-rule="evenodd" stroke="none"/>
      <path d="M2.2 0.2 Q4.3 2.5 1.25 26.95 -4.15 12.4 -1.65 1.55 0.45 -0.55 2.2 0.2 0.8 2.2 0.25 5.85 1.95 9.45 1.0 25.45 L1.25 26.95 M0.25 5.85 Q-0.9 12.7 1.0 25.45" fill="none" stroke="#000000" stroke-linecap="round" stroke-linejoin="round" stroke-opacity="0.3019608" stroke-width="0.30000000000000004"/>
      <path d="M17.6 33.0 L18.15 33.3 18.6 33.05 18.7 32.7 Q18.7 32.1 18.1 32.15 17.5 32.15 17.5 32.75 L17.6 33.0 M18.4 28.15 Q18.35 27.55 17.75 27.55 17.15 27.55 17.2 28.1 L17.3 28.35 17.8 28.7 Q18.4 28.7 18.4 28.15 M6.35 24.55 Q8.2 20.65 11.45 23.9 15.1 21.15 16.6 26.2 21.45 25.7 18.65 30.7 22.25 32.2 17.95 35.3 20.65 38.35 16.65 39.15 18.35 42.55 14.8 43.1 16.8 47.5 12.5 47.35 13.8 50.85 10.2 51.3 11.55 54.3 7.8 55.1 6.15 58.8 2.45 55.0 -1.25 56.1 -1.5 52.7 -5.95 54.35 -5.35 49.85 -9.35 50.1 -8.7 47.0 -12.95 47.3 -11.55 43.6 -15.25 42.9 -13.6 40.05 -17.35 38.95 -15.05 35.8 -18.05 32.75 -14.9 31.4 -17.15 27.8 -12.1 27.9 -12.4 24.6 -7.8 25.55 -5.4 22.1 -2.8 26.0 0.6 23.55 1.2 27.95 1.5 22.7 6.35 24.55 M14.5 24.65 Q14.5 24.05 13.9 24.1 13.3 24.1 13.3 24.7 L13.35 25.0 13.9 25.35 Q14.5 25.3 14.5 24.65 M9.1 23.85 Q8.45 23.85 8.5 24.4 L8.5 24.75 9.15 25.05 Q9.8 25.0 9.8 24.35 9.75 23.8 9.1 23.85 M-5.7 27.05 L-7.85 27.45 Q-10.15 28.25 -11.95 30.45 -13.15 32.05 -13.5 33.85 -13.9 35.8 -13.25 38.05 -11.2 44.65 4.8 53.45 9.25 48.2 13.15 41.05 19.7 28.85 11.25 26.45 3.8 26.6 1.55 30.15 -1.95 26.8 -5.7 27.05 M-3.95 50.95 L-3.9 51.2 -3.3 51.45 Q-2.65 51.45 -2.65 50.9 -2.7 50.3 -3.35 50.3 -4.0 50.35 -3.95 50.95 M-7.25 48.2 L-7.2 48.5 Q-7.0 48.8 -6.55 48.75 -5.9 48.75 -5.95 48.15 -5.95 47.55 -6.6 47.55 -7.25 47.6 -7.25 48.2 M-10.7 45.35 L-10.65 45.65 Q-10.45 46.0 -9.95 46.0 -9.35 46.0 -9.4 45.45 -9.4 44.9 -10.05 44.75 -10.7 44.7 -10.7 45.35 M-14.65 38.6 Q-14.05 38.6 -14.1 38.05 -14.1 37.4 -14.7 37.5 -15.3 37.6 -15.3 38.1 L-15.2 38.4 -14.65 38.6 M-12.95 41.75 L-12.9 42.05 Q-12.75 42.4 -12.3 42.4 -11.75 42.35 -11.8 41.7 -11.8 41.15 -12.35 41.2 -12.95 41.2 -12.95 41.75 M-15.45 33.5 L-15.4 33.85 Q-15.2 34.25 -14.6 34.2 -14.15 34.2 -14.15 33.55 -14.15 33.05 -14.8 33.0 -15.45 33.0 -15.45 33.5 M-13.25 30.3 L-13.05 29.9 Q-13.05 29.35 -13.75 29.35 -14.4 29.4 -14.4 29.95 -14.35 30.65 -13.75 30.6 L-13.25 30.3 M-6.2 25.45 L-6.15 25.75 -5.6 26.1 Q-5.0 26.1 -5.0 25.45 -5.0 24.85 -5.6 24.85 -6.2 24.85 -6.2 25.45 M-9.5 26.95 Q-9.5 26.35 -10.1 26.4 -10.7 26.4 -10.7 27.0 L-10.6 27.25 -10.1 27.6 -9.6 27.3 -9.5 26.95 M-0.85 26.25 Q-1.5 26.3 -1.5 26.9 L-1.45 27.15 Q-1.3 27.5 -0.85 27.45 -0.2 27.45 -0.25 26.85 -0.25 26.25 -0.85 26.25 M0.05 53.45 L0.6 53.7 Q1.25 53.7 1.25 53.1 1.2 52.5 0.55 52.5 -0.1 52.5 -0.05 53.15 L0.05 53.45 M5.8 55.4 Q5.8 54.8 5.15 54.85 4.55 54.85 4.55 55.45 L4.6 55.7 Q4.8 56.05 5.25 56.05 5.6 56.0 5.75 55.75 L5.8 55.4 M8.0 52.7 L8.05 52.95 Q8.2 53.4 8.6 53.4 9.2 53.35 9.15 52.65 9.15 51.95 8.55 52.0 8.0 52.0 8.0 52.7 M10.75 48.6 Q10.1 48.65 10.15 49.25 L10.2 49.5 10.8 49.75 Q11.45 49.75 11.45 49.2 11.4 48.6 10.75 48.6 M13.4 45.6 Q13.8 45.6 14.05 45.25 L14.2 44.85 Q14.15 44.2 13.4 44.35 12.6 44.5 12.65 45.0 12.65 45.6 13.4 45.6 M16.4 37.55 Q16.55 37.9 16.9 37.9 17.5 37.9 17.5 37.25 17.45 36.55 16.85 36.6 16.25 36.65 16.3 37.25 L16.4 37.55 M16.3 40.9 Q16.25 40.3 15.65 40.3 15.05 40.3 15.1 40.9 L15.15 41.3 Q15.25 41.65 15.7 41.65 16.3 41.65 16.3 40.9 M3.95 26.35 Q4.1 26.7 4.45 26.65 4.8 26.65 4.95 26.4 L5.05 26.05 Q5.0 25.4 4.45 25.5 3.85 25.6 3.9 26.1 L3.95 26.35" fill="url(#decoration77-gradient0)" fill-rule="evenodd" stroke="none"/>
      <path d="M-5.7 27.05 Q0.65 28.6 2.25 32.85 3.05 29.25 6.15 28.5 9.3 27.7 11.3 30.9 13.1 35.65 11.05 40.0 9.35 43.45 3.6 49.2 -13.25 43.75 -13.5 33.85 -13.15 32.05 -11.95 30.45 -10.15 28.25 -7.85 27.45 L-5.7 27.05" fill="url(#decoration77-gradient1)" fill-rule="evenodd" stroke="none"/>
      <path d="M-13.5 33.85 Q-13.25 43.75 3.6 49.2 9.35 43.45 11.05 40.0 13.1 35.65 11.3 30.9 9.3 27.7 6.15 28.5 3.05 29.25 2.25 32.85 0.65 28.6 -5.7 27.05 -1.95 26.8 1.55 30.15 3.8 26.6 11.25 26.45 19.7 28.85 13.15 41.05 9.25 48.2 4.8 53.45 -11.2 44.65 -13.25 38.05 -13.9 35.8 -13.5 33.85" fill="#640000" fill-rule="evenodd" stroke="none"/>
      <path d="M9.1 23.85 Q9.75 23.8 9.8 24.35 9.8 25.0 9.15 25.05 L8.5 24.75 8.5 24.4 Q8.45 23.85 9.1 23.85 M14.5 24.65 Q14.5 25.3 13.9 25.35 L13.35 25.0 13.3 24.7 Q13.3 24.1 13.9 24.1 14.5 24.05 14.5 24.65 M6.35 24.55 Q1.5 22.7 1.2 27.95 0.6 23.55 -2.8 26.0 -5.4 22.1 -7.8 25.55 -12.4 24.6 -12.1 27.9 -17.15 27.8 -14.9 31.4 -18.05 32.75 -15.05 35.8 -17.35 38.95 -13.6 40.05 -15.25 42.9 -11.55 43.6 -12.95 47.3 -8.7 47.0 -9.35 50.1 -5.35 49.85 -5.95 54.35 -1.5 52.7 -1.25 56.1 2.45 55.0 6.15 58.8 7.8 55.1 11.55 54.3 10.2 51.3 13.8 50.85 12.5 47.35 16.8 47.5 14.8 43.1 18.35 42.55 16.65 39.15 20.65 38.35 17.95 35.3 22.25 32.2 18.65 30.7 21.45 25.7 16.6 26.2 15.1 21.15 11.45 23.9 8.2 20.65 6.35 24.55 M18.4 28.15 Q18.4 28.7 17.8 28.7 L17.3 28.35 17.2 28.1 Q17.15 27.55 17.75 27.55 18.35 27.55 18.4 28.15 M17.6 33.0 L17.5 32.75 Q17.5 32.15 18.1 32.15 18.7 32.1 18.7 32.7 L18.6 33.05 18.15 33.3 17.6 33.0 M-5.7 27.05 L-7.85 27.45 Q-10.15 28.25 -11.95 30.45 -13.15 32.05 -13.5 33.85 -13.9 35.8 -13.25 38.05 -11.2 44.65 4.8 53.45 9.25 48.2 13.15 41.05 19.7 28.85 11.25 26.45 3.8 26.6 1.55 30.15 -1.95 26.8 -5.7 27.05 M3.95 26.35 L3.9 26.1 Q3.85 25.6 4.45 25.5 5.0 25.4 5.05 26.05 L4.95 26.4 Q4.8 26.65 4.45 26.65 4.1 26.7 3.95 26.35 M16.3 40.9 Q16.3 41.65 15.7 41.65 15.25 41.65 15.15 41.3 L15.1 40.9 Q15.05 40.3 15.65 40.3 16.25 40.3 16.3 40.9 M16.4 37.55 L16.3 37.25 Q16.25 36.65 16.85 36.6 17.45 36.55 17.5 37.25 17.5 37.9 16.9 37.9 16.55 37.9 16.4 37.55 M13.4 45.6 Q12.65 45.6 12.65 45.0 12.6 44.5 13.4 44.35 14.15 44.2 14.2 44.85 L14.05 45.25 Q13.8 45.6 13.4 45.6 M10.75 48.6 Q11.4 48.6 11.45 49.2 11.45 49.75 10.8 49.75 L10.2 49.5 10.15 49.25 Q10.1 48.65 10.75 48.6 M8.0 52.7 Q8.0 52.0 8.55 52.0 9.15 51.95 9.15 52.65 9.2 53.35 8.6 53.4 8.2 53.4 8.05 52.95 L8.0 52.7 M5.8 55.4 L5.75 55.75 Q5.6 56.0 5.25 56.05 4.8 56.05 4.6 55.7 L4.55 55.45 Q4.55 54.85 5.15 54.85 5.8 54.8 5.8 55.4 M0.05 53.45 L-0.05 53.15 Q-0.1 52.5 0.55 52.5 1.2 52.5 1.25 53.1 1.25 53.7 0.6 53.7 L0.05 53.45 M-0.85 26.25 Q-0.25 26.25 -0.25 26.85 -0.2 27.45 -0.85 27.45 -1.3 27.5 -1.45 27.15 L-1.5 26.9 Q-1.5 26.3 -0.85 26.25 M-9.5 26.95 L-9.6 27.3 -10.1 27.6 -10.6 27.25 -10.7 27.0 Q-10.7 26.4 -10.1 26.4 -9.5 26.35 -9.5 26.95 M-6.2 25.45 Q-6.2 24.85 -5.6 24.85 -5.0 24.85 -5.0 25.45 -5.0 26.1 -5.6 26.1 L-6.15 25.75 -6.2 25.45 M-13.25 30.3 L-13.75 30.6 Q-14.35 30.65 -14.4 29.95 -14.4 29.4 -13.75 29.35 -13.05 29.35 -13.05 29.9 L-13.25 30.3 M-15.45 33.5 Q-15.45 33.0 -14.8 33.0 -14.15 33.05 -14.15 33.55 -14.15 34.2 -14.6 34.2 -15.2 34.25 -15.4 33.85 L-15.45 33.5 M-12.95 41.75 Q-12.95 41.2 -12.35 41.2 -11.8 41.15 -11.8 41.7 -11.75 42.35 -12.3 42.4 -12.75 42.4 -12.9 42.05 L-12.95 41.75 M-14.65 38.6 L-15.2 38.4 -15.3 38.1 Q-15.3 37.6 -14.7 37.5 -14.1 37.4 -14.1 38.05 -14.05 38.6 -14.65 38.6 M-10.7 45.35 Q-10.7 44.7 -10.05 44.75 -9.4 44.9 -9.4 45.45 -9.35 46.0 -9.95 46.0 -10.45 46.0 -10.65 45.65 L-10.7 45.35 M-7.25 48.2 Q-7.25 47.6 -6.6 47.55 -5.95 47.55 -5.95 48.15 -5.9 48.75 -6.55 48.75 -7.0 48.8 -7.2 48.5 L-7.25 48.2 M-3.95 50.95 Q-4.0 50.35 -3.35 50.3 -2.7 50.3 -2.65 50.9 -2.65 51.45 -3.3 51.45 L-3.9 51.2 -3.95 50.95" fill="none" stroke="#000000" stroke-linecap="round" stroke-linejoin="round" stroke-opacity="0.3019608" stroke-width="0.30000000000000004"/>
      <path d="M10.55 36.8 L10.35 36.65 M6.05 37.0 L5.75 37.0 M3.85 41.3 L4.05 41.45 M3.75 39.2 L3.55 39.5 M0.15 43.55 L0.45 43.55 M2.45 43.65 L2.75 43.65 M6.95 44.05 L7.25 44.05 M-2.85 37.4 L-3.15 37.4 M-3.85 39.4 L-4.1 39.2 M-5.95 39.9 L-6.05 40.15 M-5.4 41.95 L-5.1 42.1 M-7.35 37.55 L-7.65 37.55" fill="none" stroke="#ffffff" stroke-linecap="round" stroke-linejoin="round" stroke-opacity="0.78039217" stroke-width="0.8"/>
    </g>
    <linearGradient gradientTransform="matrix(0.0097, 0.0202, -0.0189, 0.009, 2.15, 39.85)" gradientUnits="userSpaceOnUse" id="decoration77-gradient0" spreadMethod="pad" x1="-819.2" x2="819.2">
      <stop offset="0.0196078431372549" stop-color="#f3f3f3"/>
      <stop offset="0.9568627450980393" stop-color="#d7d2cd"/>
    </linearGradient>
    <radialGradient cx="0" cy="0" gradientTransform="matrix(0.0224, -9.0E-4, 9.0E-4, 0.0224, -6.2, 25.45)" gradientUnits="userSpaceOnUse" id="decoration77-gradient1" r="819.2" spreadMethod="pad">
      <stop offset="0.0" stop-color="#d74d4d"/>
      <stop offset="1.0" stop-color="#8e0a0a"/>
    </radialGradient>
  </defs>
</svg>
