<?xml version="1.0" encoding="UTF-8" standalone="no"?>
<svg xmlns:xlink="http://www.w3.org/1999/xlink" height="35.0px" width="64.65px" xmlns="http://www.w3.org/2000/svg">
  <g transform="matrix(1.0, 0.0, 0.0, 1.0, 33.75, 35.35)">
    <use height="35.0" transform="matrix(1.0, 0.0, 0.0, 1.0, -33.75, -35.35)" width="64.65" xlink:href="#decoration78-shape0"/>
  </g>
  <defs>
    <g id="decoration78-shape0" transform="matrix(1.0, 0.0, 0.0, 1.0, 33.75, 35.35)">
      <path d="M15.85 -16.05 Q17.2 -17.2 18.9 -17.4 17.9 -16.0 20.3 -14.35 18.2 -15.55 15.85 -16.05 M28.7 -9.15 Q24.3 -6.05 15.35 -9.25 8.75 -13.25 13.1 -16.35 11.95 -12.75 14.9 -11.15 21.35 -7.45 28.7 -9.15" fill="#384822" fill-rule="evenodd" stroke="none"/>
      <path d="M18.9 -17.4 L21.8 -17.2 26.25 -13.15 Q27.85 -11.55 30.75 -11.35 29.9 -10.0 28.7 -9.15 21.35 -7.45 14.9 -11.15 11.95 -12.75 13.1 -16.35 L15.85 -16.05 Q18.2 -15.55 20.3 -14.35 17.9 -16.0 18.9 -17.4 M21.2 -13.8 L22.15 -13.15 21.2 -13.8" fill="#596930" fill-rule="evenodd" stroke="none"/>
      <path d="M15.85 -16.05 Q17.2 -17.2 18.9 -17.4 L21.8 -17.2 26.25 -13.15 Q27.85 -11.55 30.75 -11.35 29.9 -10.0 28.7 -9.15 24.3 -6.05 15.35 -9.25 8.75 -13.25 13.1 -16.35 L15.85 -16.05 Q18.2 -15.55 20.3 -14.35 M22.15 -13.15 L21.2 -13.8" fill="none" stroke="#000000" stroke-linecap="round" stroke-linejoin="round" stroke-opacity="0.3019608" stroke-width="0.30000000000000004"/>
      <path d="M21.4 -24.85 Q15.3 -28.1 8.2 -27.2 3.25 -27.6 4.45 -31.1 L5.3 -32.0 10.75 -32.2 8.4 -30.7 13.6 -30.5 Q18.2 -29.45 21.4 -24.85" fill="url(#decoration78-gradient0)" fill-rule="evenodd" stroke="none"/>
      <path d="M6.3 -25.4 Q5.2 -25.75 4.55 -26.3 5.2 -25.75 6.3 -25.4 3.4 -19.5 4.15 -11.7 L2.75 -11.7 Q2.75 -18.85 4.55 -26.3 2.85 -27.85 4.45 -31.1 3.25 -27.6 8.2 -27.2 15.3 -28.1 21.4 -24.85 L23.3 -21.5 Q19.05 -24.8 10.25 -24.9 L6.3 -25.4 M10.75 -32.2 Q12.1 -31.65 13.6 -30.5 L8.4 -30.7 10.75 -32.2" fill="#384822" fill-rule="evenodd" stroke="none"/>
      <path d="M4.55 -26.3 Q5.2 -25.75 6.3 -25.4 L10.25 -24.9 Q19.05 -24.8 23.3 -21.5 L21.4 -24.85 M4.45 -31.1 Q2.85 -27.85 4.55 -26.3 2.75 -18.85 2.75 -11.7 L4.15 -11.7 Q3.4 -19.5 6.3 -25.4 M10.75 -32.2 L5.3 -32.0 4.45 -31.1 M13.6 -30.5 Q12.1 -31.65 10.75 -32.2 M8.4 -30.7 L13.6 -30.5 Q18.2 -29.45 21.4 -24.85" fill="none" stroke="#000000" stroke-linecap="round" stroke-linejoin="round" stroke-opacity="0.3019608" stroke-width="0.30000000000000004"/>
      <path d="M-12.2 -16.35 Q-14.9 -19.5 -19.2 -19.8 -14.3 -24.85 -8.75 -23.9 -0.65 -22.85 1.25 -16.4 1.45 -14.85 -0.85 -14.85 -0.6 -11.7 -6.1 -12.2 -9.4 -13.2 -12.2 -16.35 M-0.85 -14.85 Q-4.6 -21.05 -12.85 -22.25 -4.6 -21.05 -0.85 -14.85" fill="#303c1e" fill-rule="evenodd" stroke="none"/>
      <path d="M-12.2 -16.35 Q-14.9 -19.5 -19.2 -19.8 -14.3 -24.85 -8.75 -23.9 -0.65 -22.85 1.25 -16.4 1.45 -14.85 -0.85 -14.85 -0.6 -11.7 -6.1 -12.2 -9.4 -13.2 -12.2 -16.35 M-12.85 -22.25 Q-4.6 -21.05 -0.85 -14.85" fill="none" stroke="#000000" stroke-linecap="round" stroke-linejoin="round" stroke-opacity="0.3019608" stroke-width="0.30000000000000004"/>
      <path d="M-16.15 -31.25 Q-11.85 -34.45 -16.45 -34.5 -10.65 -36.2 -8.85 -33.85 -6.6 -34.2 -4.3 -33.85 2.1 -32.15 0.65 -28.4 -0.6 -27.8 -2.1 -27.35 L-3.65 -27.0 -2.1 -27.35 Q1.3 -20.2 1.15 -13.05 L-0.65 -11.6 Q-0.3 -23.05 -3.65 -27.0 L-12.25 -26.45 -14.8 -26.4 Q-1.45 -29.05 -3.8 -32.05 -5.85 -33.7 -11.35 -33.35 -13.75 -32.65 -16.15 -31.25 M-11.35 -33.35 L-8.85 -33.85 -11.35 -33.35" fill="#384822" fill-rule="evenodd" stroke="none"/>
      <path d="M-16.15 -31.25 L-17.85 -30.2 -16.15 -31.25 Q-13.75 -32.65 -11.35 -33.35 -5.85 -33.7 -3.8 -32.05 -1.45 -29.05 -14.8 -26.4 -21.8 -26.05 -24.45 -23.1 -22.95 -29.7 -16.45 -34.5 -11.85 -34.45 -16.15 -31.25" fill="url(#decoration78-gradient1)" fill-rule="evenodd" stroke="none"/>
      <path d="M-17.85 -30.2 L-16.15 -31.25 M-16.45 -34.5 Q-22.95 -29.7 -24.45 -23.1 -21.8 -26.05 -14.8 -26.4 L-12.25 -26.45 -3.65 -27.0 -2.1 -27.35 Q-0.6 -27.8 0.65 -28.4 2.1 -32.15 -4.3 -33.85 -6.6 -34.2 -8.85 -33.85 L-11.35 -33.35 Q-13.75 -32.65 -16.15 -31.25 M-8.85 -33.85 Q-10.65 -36.2 -16.45 -34.5 M-2.1 -27.35 Q1.3 -20.2 1.15 -13.05 L-0.65 -11.6 Q-0.3 -23.05 -3.65 -27.0" fill="none" stroke="#000000" stroke-linecap="round" stroke-linejoin="round" stroke-opacity="0.3019608" stroke-width="0.30000000000000004"/>
      <path d="M7.75 -12.55 L8.5 -12.7 Q11.0 -12.7 12.7 -11.25 11.05 -12.8 11.75 -13.55 13.9 -13.45 15.35 -11.0 17.8 -6.95 15.05 -3.9 14.9 -5.25 13.55 -6.6 9.95 -7.9 7.75 -9.55 6.8 -11.05 7.75 -12.55 M14.45 -8.95 L12.7 -11.25 14.45 -8.95" fill="url(#decoration78-gradient2)" fill-rule="evenodd" stroke="none"/>
      <path d="M7.75 -12.55 Q6.8 -11.05 7.75 -9.55 9.95 -7.9 13.55 -6.6 14.9 -5.25 15.05 -3.9 12.55 -6.4 6.8 -8.95 4.75 -6.8 4.65 -4.8 L3.9 -5.3 Q4.15 -7.7 5.95 -10.05 4.95 -11.95 7.75 -12.55 M11.75 -13.55 Q11.05 -12.8 12.7 -11.25 11.0 -12.7 8.5 -12.7 10.25 -13.65 11.75 -13.55 M6.8 -8.95 L5.95 -10.05 6.8 -8.95" fill="#384822" fill-rule="evenodd" stroke="none"/>
      <path d="M8.5 -12.7 L7.75 -12.55 M15.05 -3.9 Q17.8 -6.95 15.35 -11.0 13.9 -13.45 11.75 -13.55 M12.7 -11.25 L14.45 -8.95 M15.05 -3.9 Q12.55 -6.4 6.8 -8.95 4.75 -6.8 4.65 -4.8 L3.9 -5.3 Q4.15 -7.7 5.95 -10.05 4.95 -11.95 7.75 -12.55 M5.95 -10.05 L6.8 -8.95 M12.7 -11.25 Q11.0 -12.7 8.5 -12.7 10.25 -13.65 11.75 -13.55" fill="none" stroke="#000000" stroke-linecap="round" stroke-linejoin="round" stroke-opacity="0.3019608" stroke-width="0.30000000000000004"/>
      <path d="M-27.15 -13.05 Q-25.6 -14.3 -24.15 -15.05 -25.6 -14.3 -27.15 -13.05 M-24.15 -15.05 L-21.1 -16.45 Q-16.25 -16.35 -16.8 -12.1 -18.1 -8.35 -22.75 -9.75 -25.6 -11.3 -31.8 -7.65 L-33.6 -6.75 Q-31.35 -13.0 -24.9 -17.8 L-22.6 -18.25 Q-20.55 -17.3 -24.15 -15.05" fill="#596930" fill-rule="evenodd" stroke="none"/>
      <path d="M-21.1 -16.45 L-24.15 -15.05 Q-20.55 -17.3 -22.6 -18.25 -20.0 -18.5 -18.6 -16.9 L-15.8 -16.35 Q-14.55 -14.95 -14.5 -13.25 -10.05 -10.75 -7.5 -4.9 L-10.45 -3.95 Q-10.55 -10.25 -14.75 -11.45 -15.15 -10.45 -15.8 -9.4 -18.85 -6.65 -22.75 -7.8 -27.6 -9.35 -31.8 -7.65 -25.6 -11.3 -22.75 -9.75 -18.1 -8.35 -16.8 -12.1 -16.25 -16.35 -21.1 -16.45 L-18.6 -16.9 -21.1 -16.45 M-14.75 -11.45 L-14.5 -13.25 -14.75 -11.45" fill="#384822" fill-rule="evenodd" stroke="none"/>
      <path d="M-24.15 -15.05 Q-25.6 -14.3 -27.15 -13.05 M-21.1 -16.45 L-24.15 -15.05 M-22.6 -18.25 L-24.9 -17.8 Q-31.35 -13.0 -33.6 -6.75 L-31.8 -7.65 M-21.1 -16.45 L-18.6 -16.9 Q-20.0 -18.5 -22.6 -18.25 M-18.6 -16.9 L-15.8 -16.35 Q-14.55 -14.95 -14.5 -13.25 -10.05 -10.75 -7.5 -4.9 L-10.45 -3.95 Q-10.55 -10.25 -14.75 -11.45 -15.15 -10.45 -15.8 -9.4 -18.85 -6.65 -22.75 -7.8 -27.6 -9.35 -31.8 -7.65 M-14.5 -13.25 L-14.75 -11.45" fill="none" stroke="#000000" stroke-linecap="round" stroke-linejoin="round" stroke-opacity="0.3019608" stroke-width="0.30000000000000004"/>
      <path d="M3.4 -1.95 L3.05 -1.85 1.3 -2.1 -0.55 -2.0 -1.5 -2.0 -1.9 -2.5 -1.0 -3.9 Q0.0 -5.15 0.8 -5.1 L1.95 -4.6 2.9 -4.1 4.55 -2.8 3.4 -1.95" fill="#433827" fill-rule="evenodd" stroke="none"/>
      <path d="M1.95 -4.6 L3.7 -5.7 Q4.75 -6.55 6.0 -6.1 7.25 -5.7 8.55 -4.8 10.6 -3.5 11.65 -3.15 L11.65 -2.8 10.3 -2.55 9.5 -2.6 Q7.9 -3.5 6.45 -3.5 6.05 -3.5 4.75 -2.9 L4.55 -2.8 2.9 -4.1 1.95 -4.6 M17.8 -3.8 L18.0 -3.7 19.45 -2.5 19.45 -1.9 15.95 -1.5 13.4 -1.6 14.9 -2.25 16.5 -2.3 17.2 -2.3 17.55 -3.35 17.8 -3.8 M-11.4 -6.95 L-10.2 -6.15 -9.05 -5.4 -7.5 -4.55 -6.8 -3.95 -6.15 -2.9 -5.5 -1.45 -9.05 -1.45 -9.5 -1.5 -12.1 -0.95 -17.1 -0.95 -16.9 -1.85 -16.1 -3.7 -16.05 -3.75 Q-12.2 -6.15 -11.4 -6.95 M-9.75 -3.1 L-8.55 -2.4 -9.05 -1.45 -8.55 -2.4 -9.75 -3.1 M-8.0 -3.1 L-8.55 -2.4 -8.0 -3.1" fill="#514533" fill-rule="evenodd" stroke="none"/>
      <path d="M9.5 -2.6 L10.4 -2.15 9.95 -1.7 8.05 -1.45 7.85 -1.4 5.7 -1.3 3.75 -1.3 Q3.35 -1.4 3.35 -1.85 L3.4 -1.95 4.55 -2.8 4.75 -2.9 Q6.05 -3.5 6.45 -3.5 7.9 -3.5 9.5 -2.6 M7.85 -1.4 L6.6 -2.2 7.85 -1.4 M-12.65 -7.85 L-11.4 -6.95 Q-12.2 -6.15 -16.05 -3.75 L-16.1 -3.7 -19.65 -3.75 -16.95 -5.5 Q-13.85 -7.4 -12.65 -7.85" fill="#796a54" fill-rule="evenodd" stroke="none"/>
      <path d="M13.4 -1.6 L10.6 -1.7 12.3 -2.85 12.45 -2.95 12.8 -3.35 13.6 -3.7 14.8 -3.55 16.75 -3.95 17.8 -3.8 17.55 -3.35 17.2 -2.3 16.5 -2.3 14.9 -2.25 13.4 -1.6 M-9.05 -5.4 L-7.0 -5.55 -5.35 -5.85 -3.15 -4.8 Q-1.75 -3.6 -1.9 -2.8 L-6.8 -3.95 -7.5 -4.55 -9.05 -5.4 M-19.65 -3.75 L-16.1 -3.7 -16.9 -1.85 -17.1 -0.95 -17.15 -0.95 Q-20.45 -2.35 -20.25 -3.35 L-19.85 -3.6 -19.65 -3.75" fill="#625543" fill-rule="evenodd" stroke="none"/>
      <path d="M-11.4 -6.95 L-12.65 -7.85 -12.4 -7.95 Q-8.75 -7.25 -5.35 -5.85 L-7.0 -5.55 -9.05 -5.4 -10.2 -6.15 -11.4 -6.95 M-6.8 -3.95 L-1.9 -2.8 Q-2.15 -1.7 -5.5 -1.45 L-6.15 -2.9 -6.8 -3.95" fill="#584c39" fill-rule="evenodd" stroke="none"/>
      <path d="M3.4 -1.95 L3.05 -1.85 1.3 -2.1 -0.55 -2.0 -1.5 -2.0 -1.9 -2.5 -1.0 -3.9 Q0.0 -5.15 0.8 -5.1 L1.95 -4.6 3.7 -5.7 Q4.75 -6.55 6.0 -6.1 7.25 -5.7 8.55 -4.8 10.6 -3.5 11.65 -3.15 L11.65 -2.8 10.3 -2.55 9.5 -2.6 10.4 -2.15 9.95 -1.7 8.05 -1.45 M7.85 -1.4 L5.7 -1.3 3.75 -1.3 Q3.35 -1.4 3.35 -1.85 L3.4 -1.95 4.55 -2.8 2.9 -4.1 1.95 -4.6 M4.55 -2.8 L4.75 -2.9 Q6.05 -3.5 6.45 -3.5 7.9 -3.5 9.5 -2.6 M13.4 -1.6 L10.6 -1.7 12.3 -2.85 12.45 -2.95 12.8 -3.35 13.6 -3.7 14.8 -3.55 16.75 -3.95 17.8 -3.8 18.0 -3.7 19.45 -2.5 19.45 -1.9 15.95 -1.5 13.4 -1.6 M-5.35 -5.85 Q-8.75 -7.25 -12.4 -7.95 L-12.65 -7.85 Q-13.85 -7.4 -16.95 -5.5 L-19.65 -3.75 M-17.1 -0.95 L-16.9 -1.85 -16.1 -3.7 M-19.85 -3.6 L-20.25 -3.35 Q-20.45 -2.35 -17.15 -0.95 L-17.1 -0.95 -12.1 -0.95 -9.5 -1.5 -9.05 -1.45 M-1.9 -2.8 Q-1.75 -3.6 -3.15 -4.8 L-5.35 -5.85 M-5.5 -1.45 Q-2.15 -1.7 -1.9 -2.8 M-5.5 -1.45 L-9.05 -1.45" fill="none" stroke="#000000" stroke-linecap="round" stroke-linejoin="round" stroke-opacity="0.3019608" stroke-width="0.30000000000000004"/>
      <path d="M8.05 -1.45 L7.85 -1.4 M6.6 -2.2 L7.85 -1.4 M-9.05 -1.45 L-8.55 -2.4 -9.75 -3.1 M-8.55 -2.4 L-8.0 -3.1" fill="none" stroke="#000000" stroke-linecap="round" stroke-linejoin="round" stroke-opacity="0.18039216" stroke-width="0.30000000000000004"/>
      <path d="M1.95 -3.85 Q4.95 -11.3 1.35 -12.95 -1.7 -14.55 -3.8 -10.5 -3.7 -12.55 -3.1 -14.5 -3.7 -12.55 -3.8 -10.5 L-3.75 -7.55 Q-6.2 -13.35 -8.9 -12.7 -7.9 -14.95 -3.1 -14.5 L-0.1 -15.5 Q4.4 -15.5 4.7 -10.05 4.9 -6.85 1.95 -3.85" fill="#384822" fill-rule="evenodd" stroke="none"/>
      <path d="M-3.8 -10.5 Q-1.7 -14.55 1.35 -12.95 4.95 -11.3 1.95 -3.85 0.3 -2.15 -2.4 -0.5 -8.1 -5.05 -9.1 -10.15 -9.4 -11.7 -8.9 -12.7 -6.2 -13.35 -3.75 -7.55 L-3.8 -10.5 M-3.3 -5.1 L-3.75 -7.55 -3.3 -5.1" fill="url(#decoration78-gradient3)" fill-rule="evenodd" stroke="none"/>
      <path d="M1.95 -3.85 Q4.9 -6.85 4.7 -10.05 4.4 -15.5 -0.1 -15.5 L-3.1 -14.5 Q-3.7 -12.55 -3.8 -10.5 L-3.75 -7.55 -3.3 -5.1 M-8.9 -12.7 Q-9.4 -11.7 -9.1 -10.15 -8.1 -5.05 -2.4 -0.5 0.3 -2.15 1.95 -3.85 M-3.1 -14.5 Q-7.9 -14.95 -8.9 -12.7" fill="none" stroke="#000000" stroke-linecap="round" stroke-linejoin="round" stroke-opacity="0.3019608" stroke-width="0.30000000000000004"/>
    </g>
    <linearGradient gradientTransform="matrix(0.0074, 0.0074, -0.0034, 0.0034, 9.35, -32.85)" gradientUnits="userSpaceOnUse" id="decoration78-gradient0" spreadMethod="pad" x1="-819.2" x2="819.2">
      <stop offset="0.0" stop-color="#739546"/>
      <stop offset="0.9725490196078431" stop-color="#556b38"/>
    </linearGradient>
    <linearGradient gradientTransform="matrix(-0.0048, 0.0082, -0.006, -0.0035, -11.2, -31.05)" gradientUnits="userSpaceOnUse" id="decoration78-gradient1" spreadMethod="pad" x1="-819.2" x2="819.2">
      <stop offset="0.0" stop-color="#739546"/>
      <stop offset="0.9725490196078431" stop-color="#556b38"/>
    </linearGradient>
    <linearGradient gradientTransform="matrix(0.0026, 0.0061, -0.0056, 0.0024, 11.05, -8.9)" gradientUnits="userSpaceOnUse" id="decoration78-gradient2" spreadMethod="pad" x1="-819.2" x2="819.2">
      <stop offset="0.0" stop-color="#739546"/>
      <stop offset="0.9725490196078431" stop-color="#556b38"/>
    </linearGradient>
    <linearGradient gradientTransform="matrix(0.0, 0.0055, -0.0079, 0.0, -2.95, -11.85)" gradientUnits="userSpaceOnUse" id="decoration78-gradient3" spreadMethod="pad" x1="-819.2" x2="819.2">
      <stop offset="0.0" stop-color="#739546"/>
      <stop offset="0.9725490196078431" stop-color="#556b38"/>
    </linearGradient>
  </defs>
</svg>
