<?xml version="1.0" encoding="UTF-8" standalone="no"?>
<svg xmlns:xlink="http://www.w3.org/1999/xlink" height="76.25px" width="50.5px" xmlns="http://www.w3.org/2000/svg">
  <g transform="matrix(1.0, 0.0, 0.0, 1.0, 15.35, 74.55)">
    <use height="76.25" transform="matrix(1.0, 0.0, 0.0, 1.0, -15.35, -74.55)" width="50.5" xlink:href="#decoration79-shape0"/>
  </g>
  <defs>
    <g id="decoration79-shape0" transform="matrix(1.0, 0.0, 0.0, 1.0, 15.35, 74.55)">
      <path d="M5.05 -61.4 L6.15 -62.0 Q8.8 -50.1 4.3 -38.55 -3.8 -18.05 1.8 0.05 L2.25 1.55 1.8 0.05 Q6.85 -8.85 4.8 -17.8 2.2 -27.2 5.65 -35.85 11.8 -43.85 17.75 -47.9 18.75 -47.45 19.7 -47.15 13.55 -44.1 9.3 -38.95 4.3 -32.75 4.25 -25.75 4.25 -23.85 5.55 -18.35 6.7 -13.1 5.8 -8.4 4.9 -3.75 2.25 1.55 L1.05 1.55 Q-5.0 -16.2 1.9 -33.85 8.8 -51.5 5.05 -61.4" fill="#577721" fill-rule="evenodd" stroke="none"/>
      <path d="M6.15 -62.0 L5.05 -61.4 Q-0.75 -58.35 -6.6 -58.55 -12.65 -58.7 -14.4 -62.0 -15.85 -64.8 -14.65 -67.45 -13.55 -69.95 -10.45 -71.85 -6.0 -74.3 0.75 -74.4 L-4.6 -68.35 7.8 -72.75 Q11.5 -70.7 11.15 -67.8 10.85 -64.7 6.15 -62.0 M8.0 -69.1 L-4.6 -68.35 8.0 -69.1 M-10.6 -69.9 Q-9.0 -68.7 -4.6 -68.35 -9.0 -68.7 -10.6 -69.9 M-13.0 -63.7 Q-9.85 -64.75 -4.6 -68.35 -9.85 -64.75 -13.0 -63.7 M0.3 -61.65 Q-3.0 -64.3 -4.6 -68.35 -3.0 -64.3 0.3 -61.65" fill="url(#decoration79-gradient0)" fill-rule="evenodd" stroke="none"/>
      <path d="M17.75 -47.9 L17.25 -48.1 16.2 -48.6 Q11.95 -50.85 11.45 -53.5 L11.4 -54.1 Q11.35 -56.35 14.1 -58.1 L25.2 -55.05 20.05 -60.0 Q25.8 -60.3 29.95 -58.5 32.85 -57.1 34.15 -54.9 L35.0 -52.7 35.0 -51.95 Q35.0 -50.95 34.65 -49.9 33.45 -46.75 28.05 -46.1 23.95 -45.75 19.7 -47.15 18.75 -47.45 17.75 -47.9 M33.2 -51.4 Q30.25 -52.2 25.2 -55.05 30.25 -52.2 33.2 -51.4 M30.25 -56.8 Q29.0 -55.65 25.2 -55.05 29.0 -55.65 30.25 -56.8 M14.15 -54.9 L25.2 -55.05 14.15 -54.9 M21.5 -48.6 Q24.15 -51.4 25.2 -55.05 24.15 -51.4 21.5 -48.6" fill="url(#decoration79-gradient1)" fill-rule="evenodd" stroke="none"/>
      <path d="M6.15 -62.0 L5.05 -61.4 Q8.8 -51.5 1.9 -33.85 -5.0 -16.2 1.05 1.55 L2.25 1.55 1.8 0.05 Q-3.8 -18.05 4.3 -38.55 8.8 -50.1 6.15 -62.0 10.85 -64.7 11.15 -67.8 11.5 -70.7 7.8 -72.75 L-4.6 -68.35 M17.75 -47.9 L17.25 -48.1 16.2 -48.6 Q11.95 -50.85 11.45 -53.5 L11.4 -54.1 Q11.35 -56.35 14.1 -58.1 L25.2 -55.05 20.05 -60.0 Q25.8 -60.3 29.95 -58.5 32.85 -57.1 34.15 -54.9 L35.0 -52.7 35.0 -51.95 Q35.0 -50.95 34.65 -49.9 33.45 -46.75 28.05 -46.1 23.95 -45.75 19.7 -47.15 13.55 -44.1 9.3 -38.95 4.3 -32.75 4.25 -25.75 4.25 -23.85 5.55 -18.35 6.7 -13.1 5.8 -8.4 4.9 -3.75 2.25 1.55 M1.8 0.05 Q6.85 -8.85 4.8 -17.8 2.2 -27.2 5.65 -35.85 11.8 -43.85 17.75 -47.9 18.75 -47.45 19.7 -47.15 M5.05 -61.4 Q-0.75 -58.35 -6.6 -58.55 -12.65 -58.7 -14.4 -62.0 -15.85 -64.8 -14.65 -67.45 -13.55 -69.95 -10.45 -71.85 -6.0 -74.3 0.75 -74.4 L-4.6 -68.35" fill="none" stroke="#000000" stroke-linecap="round" stroke-linejoin="round" stroke-opacity="0.3019608" stroke-width="0.30000000000000004"/>
      <path d="M25.2 -55.05 Q30.25 -52.2 33.2 -51.4 M-4.6 -68.35 Q-9.85 -64.75 -13.0 -63.7" fill="none" stroke="#000000" stroke-linecap="round" stroke-linejoin="round" stroke-opacity="0.07058824" stroke-width="0.30000000000000004"/>
      <path d="M25.2 -55.05 Q29.0 -55.65 30.25 -56.8 M-4.6 -68.35 Q-9.0 -68.7 -10.6 -69.9" fill="none" stroke="#000000" stroke-linecap="round" stroke-linejoin="round" stroke-opacity="0.10980392" stroke-width="0.30000000000000004"/>
      <path d="M-4.6 -68.35 L8.0 -69.1 M25.2 -55.05 L14.15 -54.9" fill="none" stroke="#000000" stroke-linecap="round" stroke-linejoin="round" stroke-opacity="0.05882353" stroke-width="0.30000000000000004"/>
      <path d="M25.2 -55.05 Q24.15 -51.4 21.5 -48.6 M-4.6 -68.35 Q-3.0 -64.3 0.3 -61.65" fill="none" stroke="#000000" stroke-linecap="round" stroke-linejoin="round" stroke-opacity="0.09019608" stroke-width="0.30000000000000004"/>
    </g>
    <linearGradient gradientTransform="matrix(0.0082, 0.0081, -0.0068, 0.0069, -8.1, -70.0)" gradientUnits="userSpaceOnUse" id="decoration79-gradient0" spreadMethod="pad" x1="-819.2" x2="819.2">
      <stop offset="0.0" stop-color="#8fb64e"/>
      <stop offset="0.9725490196078431" stop-color="#6f9137"/>
    </linearGradient>
    <linearGradient gradientTransform="matrix(0.0055, 0.0095, 0.0073, -0.0042, 23.55, -61.7)" gradientUnits="userSpaceOnUse" id="decoration79-gradient1" spreadMethod="pad" x1="-819.2" x2="819.2">
      <stop offset="0.0" stop-color="#8fb64e"/>
      <stop offset="1.0" stop-color="#64852f"/>
    </linearGradient>
  </defs>
</svg>
