<?xml version="1.0" encoding="UTF-8" standalone="no"?>
<svg xmlns:ffdec="https://www.free-decompiler.com/flash" xmlns:xlink="http://www.w3.org/1999/xlink" ffdec:objectType="frame" height="26.6px" width="50.8px" xmlns="http://www.w3.org/2000/svg">
  <g transform="matrix(1.0, 0.0, 0.0, 1.0, 26.1, 25.5)">
    <use ffdec:characterId="872" height="26.6" transform="matrix(1.0, 0.0, 0.0, 1.0, -26.1, -25.5)" width="50.8" xlink:href="#decoration8-shape0"/>
  </g>
  <defs>
    <g id="decoration8-shape0" transform="matrix(1.0, 0.0, 0.0, 1.0, 26.1, 25.5)">
      <path d="M-12.15 -3.3 L-10.5 -20.1 -6.25 -20.1 -6.25 -15.8 -2.8 -15.85 -3.05 -20.1 2.6 -20.1 3.0 -15.6 6.05 -15.7 5.5 -20.1 7.4 -20.1 Q8.45 -14.65 8.45 -11.35 8.45 -5.05 3.75 -3.2 L3.55 -4.7 3.25 -5.75 2.55 -7.45 -1.65 -7.4 0.2 -8.1 2.5 -8.5 Q2.25 -9.0 2.25 -10.85 L1.3 -10.75 Q-0.25 -10.75 -1.8 -11.5 -3.5 -12.3 -3.8 -13.35 L-3.85 -13.35 Q-3.35 -11.85 -5.45 -10.85 -6.3 -10.45 -7.0 -10.2 L-6.95 -10.45 Q-6.95 -10.85 -7.45 -10.9 -7.95 -10.9 -7.95 -10.45 L-7.75 -10.05 -7.5 -8.3 -8.3 -8.35 Q-9.7 -8.3 -9.55 -7.9 -9.4 -7.55 -8.15 -7.55 L-7.4 -7.6 -7.5 -7.0 -6.85 -7.35 -5.95 -7.4 Q-4.6 -7.4 -3.75 -6.7 L-3.5 -6.45 Q-4.55 -4.55 -4.6 -2.55 L-8.65 -2.3 Q-10.3 -2.4 -12.15 -3.3 M6.1 -11.85 L7.1 -11.95 7.25 -12.2 Q7.25 -12.75 6.05 -12.7 4.85 -12.65 4.85 -12.2 4.85 -12.0 5.0 -11.95 L6.1 -11.85 M0.05 -16.8 Q0.55 -16.8 0.55 -17.2 0.55 -17.6 0.1 -17.6 -0.4 -17.6 -0.4 -17.2 -0.55 -16.8 0.05 -16.8 M5.65 -8.25 Q5.1 -8.25 5.1 -7.8 L5.35 -7.5 5.55 -7.35 5.95 -7.5 6.15 -7.85 Q6.15 -8.25 5.65 -8.25 M-8.55 -16.15 Q-9.05 -16.15 -9.05 -15.75 L-8.55 -15.65 -8.1 -15.75 Q-8.1 -16.15 -8.55 -16.15 M-8.7 -17.5 L-7.85 -17.75 Q-7.55 -17.8 -7.55 -18.05 L-7.95 -18.5 -8.9 -18.45 -9.1 -18.3 -8.7 -17.5 M-6.6 -12.85 Q-7.15 -12.85 -7.15 -12.45 -7.15 -12.1 -6.55 -12.1 -6.1 -12.1 -6.1 -12.45 -6.1 -12.85 -6.6 -12.85 M-7.6 -4.35 Q-6.95 -4.35 -6.95 -4.7 L-7.15 -5.05 -6.75 -5.45 -7.4 -5.3 Q-8.3 -5.3 -9.0 -5.85 -8.95 -5.65 -9.4 -4.45 L-9.9 -3.25 -8.75 -3.4 -7.5 -3.2 -7.45 -3.2 -7.65 -4.05 -7.6 -4.35" fill="url(#decoration8-gradient0)" fill-rule="evenodd" stroke="none"/>
      <path d="M0.05 -16.8 Q-0.55 -16.8 -0.4 -17.2 -0.4 -17.6 0.1 -17.6 0.55 -17.6 0.55 -17.2 0.55 -16.8 0.05 -16.8 M6.1 -11.85 L5.0 -11.95 Q4.85 -12.0 4.85 -12.2 4.85 -12.65 6.05 -12.7 7.25 -12.75 7.25 -12.2 L7.1 -11.95 6.1 -11.85 M-6.6 -12.85 Q-6.1 -12.85 -6.1 -12.45 -6.1 -12.1 -6.55 -12.1 -7.15 -12.1 -7.15 -12.45 -7.15 -12.85 -6.6 -12.85 M-7.15 -5.05 L-6.95 -4.7 Q-6.95 -4.35 -7.6 -4.35 -8.5 -4.35 -8.5 -4.7 -8.5 -5.2 -7.35 -5.15 L-7.15 -5.05" fill="#e0c454" fill-rule="evenodd" stroke="none"/>
      <path d="M7.4 -20.1 L8.3 -20.1 11.1 0.05 3.4 0.05 Q3.85 -1.55 3.75 -3.2 8.45 -5.05 8.45 -11.35 8.45 -14.65 7.4 -20.1 M-4.25 0.05 L-12.45 0.05 -12.45 -0.85 -12.15 -3.3 Q-10.3 -2.4 -8.65 -2.3 L-4.6 -2.55 Q-4.6 -1.25 -4.25 0.05 M7.5 -4.2 L7.8 -3.95 Q8.1 -3.95 8.2 -4.1 L8.25 -4.35 8.2 -4.4 8.2 -4.5 Q8.2 -4.85 7.7 -4.75 7.2 -4.65 7.2 -4.25 L7.5 -4.2 M8.75 -4.75 L8.45 -3.65 7.75 -2.75 Q6.8 -2.05 5.7 -1.6 L4.95 -1.15 Q10.0 -0.5 10.0 -2.0 9.15 -6.6 8.75 -4.75 M8.4 -6.15 Q7.95 -6.8 7.95 -6.2 7.95 -5.45 8.65 -5.45 8.9 -5.45 8.4 -6.15 M6.45 -3.2 Q6.95 -3.2 6.95 -3.6 L6.5 -4.0 Q6.0 -4.0 6.0 -3.6 L6.0 -3.45 Q6.1 -3.2 6.45 -3.2 M-11.15 -1.4 Q-11.15 -1.05 -10.25 -1.05 -9.05 -1.05 -9.05 -1.5 -9.05 -2.05 -10.1 -1.95 -11.15 -1.85 -11.15 -1.4 M-8.1 -0.4 Q-7.65 -0.4 -7.65 -0.75 -7.65 -1.15 -8.15 -1.15 -8.65 -1.15 -8.65 -0.75 -8.65 -0.4 -8.1 -0.4 M-6.3 -1.75 Q-7.35 -1.85 -7.35 -1.3 -7.55 -0.8 -5.9 -0.8 -5.3 -0.8 -5.3 -1.2 -5.3 -1.65 -6.3 -1.75" fill="#d7b637" fill-rule="evenodd" stroke="none"/>
      <path d="M5.65 -8.25 Q6.15 -8.25 6.15 -7.85 L5.95 -7.5 5.55 -7.35 5.35 -7.5 5.1 -7.8 Q5.1 -8.25 5.65 -8.25 M-7.0 -10.2 L-7.75 -10.05 -7.95 -10.45 Q-7.95 -10.9 -7.45 -10.9 -6.95 -10.85 -6.95 -10.45 L-7.0 -10.2 M-8.7 -17.5 L-9.1 -18.3 -8.9 -18.45 -7.95 -18.5 -7.55 -18.05 Q-7.55 -17.8 -7.85 -17.75 L-8.7 -17.5 M-8.55 -16.15 Q-8.1 -16.15 -8.1 -15.75 L-8.55 -15.65 -9.05 -15.75 Q-9.05 -16.15 -8.55 -16.15" fill="#e7c954" fill-rule="evenodd" stroke="none"/>
      <path d="M-7.0 -10.2 Q-6.3 -10.45 -5.45 -10.85 -3.35 -11.85 -3.85 -13.35 L-3.8 -13.35 Q-3.5 -12.3 -1.8 -11.5 -0.25 -10.75 1.3 -10.75 L2.25 -10.85 Q2.25 -9.0 2.5 -8.5 L0.2 -8.1 -1.65 -7.4 -2.95 -7.4 -3.5 -6.45 -3.75 -6.7 Q-4.6 -7.4 -5.95 -7.4 L-6.85 -7.35 -7.5 -7.0 -7.4 -7.6 Q-6.95 -7.7 -6.95 -7.9 -6.95 -8.2 -7.5 -8.3 L-7.75 -10.05 -7.0 -10.2 M-7.6 -4.35 L-7.65 -4.05 -7.45 -3.2 -7.5 -3.2 -8.75 -3.4 -9.9 -3.25 -9.4 -4.45 Q-8.95 -5.65 -9.0 -5.85 -8.3 -5.3 -7.4 -5.3 L-6.75 -5.45 -7.15 -5.05 -7.35 -5.15 Q-8.5 -5.2 -8.5 -4.7 -8.5 -4.35 -7.6 -4.35" fill="#e2c44f" fill-rule="evenodd" stroke="none"/>
      <path d="M-0.95 0.05 L-2.25 0.05 Q-2.65 -2.9 -1.85 -5.55 L-1.25 -5.7 Q1.1 -6.35 3.25 -5.75 L3.55 -4.7 Q1.8 -5.4 -1.2 -4.65 L-0.95 0.05" fill="#ad841f" fill-rule="evenodd" stroke="none"/>
      <path d="M3.4 0.05 L-0.95 0.05 -1.2 -4.65 Q1.8 -5.4 3.55 -4.7 L3.75 -3.2 Q3.85 -1.55 3.4 0.05" fill="#9c7412" fill-rule="evenodd" stroke="none"/>
      <path d="M-7.5 -8.3 Q-6.95 -8.2 -6.95 -7.9 -6.95 -7.7 -7.4 -7.6 L-8.15 -7.55 Q-9.4 -7.55 -9.55 -7.9 -9.7 -8.3 -8.3 -8.35 L-7.5 -8.3 M8.2 -4.4 L8.25 -4.35 8.2 -4.1 Q8.1 -3.95 7.8 -3.95 L7.5 -4.2 8.2 -4.4" fill="#dbb538" fill-rule="evenodd" stroke="none"/>
      <path d="M8.75 -4.75 Q9.15 -6.6 10.0 -2.0 10.0 -0.5 4.95 -1.15 L5.7 -1.6 Q6.8 -2.05 7.75 -2.75 L8.45 -3.65 8.75 -4.75" fill="#d4c58a" fill-rule="evenodd" stroke="none"/>
      <path d="M8.4 -6.15 Q8.9 -5.45 8.65 -5.45 7.95 -5.45 7.95 -6.2 7.95 -6.8 8.4 -6.15 M6.45 -3.2 Q6.1 -3.2 6.0 -3.45 L6.0 -3.6 Q6.0 -4.0 6.5 -4.0 L6.95 -3.6 Q6.95 -3.2 6.45 -3.2 M-11.15 -1.4 Q-11.15 -1.85 -10.1 -1.95 -9.05 -2.05 -9.05 -1.5 -9.05 -1.05 -10.25 -1.05 -11.15 -1.05 -11.15 -1.4 M-8.1 -0.4 Q-8.65 -0.4 -8.65 -0.75 -8.65 -1.15 -8.15 -1.15 -7.65 -1.15 -7.65 -0.75 -7.65 -0.4 -8.1 -0.4" fill="#e0c041" fill-rule="evenodd" stroke="none"/>
      <path d="M7.5 -4.2 L7.2 -4.25 Q7.2 -4.65 7.7 -4.75 8.2 -4.85 8.2 -4.5 L8.2 -4.4 7.5 -4.2" fill="#b48f18" fill-rule="evenodd" stroke="none"/>
      <path d="M-2.25 0.05 L-4.25 0.05 Q-4.6 -1.25 -4.6 -2.55 -4.55 -4.55 -3.5 -6.45 L-2.95 -7.4 -1.65 -7.4 2.55 -7.45 3.25 -5.75 Q1.1 -6.35 -1.25 -5.7 L-1.85 -5.55 Q-2.65 -2.9 -2.25 0.05" fill="#bb9027" fill-rule="evenodd" stroke="none"/>
      <path d="M-6.3 -1.75 Q-5.3 -1.65 -5.3 -1.2 -5.3 -0.8 -5.9 -0.8 -7.55 -0.8 -7.35 -1.3 -7.35 -1.85 -6.3 -1.75" fill="#d0b035" fill-rule="evenodd" stroke="none"/>
      <path d="M7.5 -20.6 Q7.95 -20.85 8.15 -20.45 8.3 -20.0 7.85 -19.75 7.35 -19.5 7.2 -19.9 7.1 -20.35 7.5 -20.6 M5.85 -18.95 Q5.35 -18.7 5.15 -19.15 5.0 -19.6 5.35 -19.8 5.75 -19.95 6.05 -19.55 6.35 -19.15 5.85 -18.95 M8.55 -19.15 Q8.85 -18.55 8.4 -18.25 7.9 -18.0 7.6 -18.55 7.3 -19.1 7.75 -19.4 8.2 -19.75 8.55 -19.15 M0.6 -20.0 Q0.4 -20.25 0.65 -20.45 0.9 -20.65 1.1 -20.3 1.25 -20.0 1.0 -19.85 0.75 -19.7 0.6 -20.0 M2.15 -19.35 Q1.7 -19.75 2.4 -20.2 3.15 -20.65 3.45 -19.9 3.75 -19.2 3.15 -19.05 2.55 -18.95 2.15 -19.35 M2.15 -16.95 Q2.0 -17.3 2.3 -17.45 L2.85 -17.3 Q3.1 -16.95 2.7 -16.75 2.25 -16.55 2.15 -16.95 M3.5 -15.25 Q3.4 -15.5 3.65 -15.65 3.95 -15.85 4.05 -15.55 4.15 -15.3 3.85 -15.15 3.55 -15.0 3.5 -15.25 M8.35 -16.6 Q8.0 -16.95 8.6 -17.35 9.25 -17.8 9.5 -17.15 9.8 -16.5 9.25 -16.35 8.75 -16.25 8.35 -16.6 M6.55 -16.0 Q6.9 -15.3 6.35 -15.0 5.85 -14.7 5.5 -15.3 5.15 -15.9 5.65 -16.3 6.15 -16.7 6.55 -16.0 M5.6 -17.05 Q5.15 -17.45 5.85 -17.9 6.6 -18.35 6.9 -17.6 7.2 -16.9 6.6 -16.75 6.0 -16.65 5.6 -17.05 M8.25 -14.15 Q8.1 -14.55 8.45 -14.75 8.75 -14.95 9.05 -14.55 9.3 -14.2 8.85 -13.95 8.4 -13.75 8.25 -14.15 M9.35 -9.8 Q9.15 -10.15 9.45 -10.35 9.75 -10.6 10.0 -10.2 10.2 -9.8 9.9 -9.6 9.6 -9.45 9.35 -9.8 M9.65 -11.35 Q9.25 -11.1 9.1 -11.5 9.0 -11.85 9.4 -12.1 9.8 -12.35 9.95 -11.95 10.1 -11.55 9.65 -11.35 M9.75 -8.0 Q10.2 -8.3 10.4 -7.8 10.6 -7.35 10.2 -7.25 9.8 -7.15 9.55 -7.4 9.25 -7.7 9.75 -8.0 M0.95 -7.2 Q0.7 -7.6 1.05 -7.9 1.45 -8.15 1.7 -7.7 1.95 -7.2 1.55 -7.0 1.2 -6.8 0.95 -7.2 M3.2 -6.85 Q3.5 -6.15 2.9 -6.0 2.3 -5.9 1.9 -6.3 1.45 -6.7 2.15 -7.15 2.9 -7.6 3.2 -6.85 M3.15 -4.2 Q3.0 -4.65 3.35 -4.85 3.75 -5.0 4.05 -4.6 4.35 -4.2 3.85 -4.0 3.35 -3.75 3.15 -4.2 M0.85 -0.3 Q1.05 0.15 0.65 0.4 0.25 0.7 -0.05 0.25 -0.35 -0.15 0.15 -0.45 0.65 -0.75 0.85 -0.3 M2.35 -0.15 Q2.55 0.25 2.25 0.45 1.9 0.7 1.7 0.35 1.5 0.05 1.85 -0.2 L2.35 -0.15 M4.1 -0.05 Q4.25 0.25 4.05 0.35 L3.65 0.25 Q3.5 0.0 3.75 -0.15 3.95 -0.35 4.1 -0.05 M4.2 -2.0 Q3.8 -1.8 3.7 -2.15 3.55 -2.5 3.95 -2.75 4.3 -2.95 4.45 -2.6 4.6 -2.2 4.2 -2.0 M6.3 -0.35 Q6.45 0.05 6.05 0.25 5.65 0.45 5.55 0.1 5.4 -0.25 5.8 -0.5 6.15 -0.7 6.3 -0.35 M8.25 -0.15 Q8.55 0.25 8.05 0.45 7.55 0.7 7.35 0.25 7.2 -0.2 7.55 -0.4 7.95 -0.55 8.25 -0.15 M10.1 -6.0 Q10.5 -6.15 10.8 -5.75 11.1 -5.35 10.6 -5.15 10.1 -4.9 9.9 -5.35 9.75 -5.8 10.1 -6.0 M11.1 -3.75 Q11.25 -3.3 10.8 -3.05 10.3 -2.8 10.15 -3.2 10.05 -3.65 10.45 -3.9 10.9 -4.15 11.1 -3.75 M10.6 -0.9 Q10.35 -1.3 10.7 -1.6 11.1 -1.85 11.35 -1.4 11.6 -0.9 11.2 -0.7 10.85 -0.5 10.6 -0.9 M10.35 -0.25 Q10.65 0.45 10.05 0.6 L9.05 0.3 Q8.6 -0.1 9.3 -0.55 10.05 -1.0 10.35 -0.25 M-1.25 -20.1 Q-1.9 -19.75 -2.05 -20.3 -2.25 -20.85 -1.65 -21.2 -1.1 -21.55 -0.85 -21.0 -0.65 -20.4 -1.25 -20.1 M-2.55 -19.45 Q-3.2 -19.15 -3.4 -19.7 -3.6 -20.25 -3.15 -20.5 -2.7 -20.7 -2.3 -20.2 -1.95 -19.7 -2.55 -19.45 M-8.35 -19.6 Q-8.75 -19.4 -9.0 -19.85 -9.3 -20.3 -8.9 -20.55 -8.5 -20.85 -8.25 -20.35 -8.0 -19.85 -8.35 -19.6 M-9.95 -19.65 Q-10.3 -19.45 -10.45 -19.75 L-10.2 -20.3 Q-9.85 -20.5 -9.75 -20.15 -9.6 -19.8 -9.95 -19.65 M-6.25 -19.75 L-6.7 -19.9 Q-6.9 -20.05 -6.6 -20.25 L-6.15 -20.15 Q-6.0 -19.8 -6.25 -19.75 M-6.8 -17.95 Q-7.05 -18.5 -6.55 -18.75 -6.1 -19.0 -5.7 -18.5 -5.3 -17.95 -5.95 -17.65 -6.6 -17.35 -6.8 -17.95 M-5.95 -15.25 Q-6.05 -15.6 -5.65 -15.85 -5.25 -16.1 -5.1 -15.7 -4.95 -15.3 -5.4 -15.1 -5.8 -14.85 -5.95 -15.25 M-3.75 -15.55 Q-4.0 -15.9 -3.65 -16.15 -3.35 -16.4 -3.1 -15.95 -2.85 -15.5 -3.2 -15.35 -3.55 -15.15 -3.75 -15.55 M-3.5 -16.95 Q-3.65 -17.1 -3.4 -17.3 L-3.0 -17.15 Q-2.85 -16.9 -3.1 -16.85 L-3.5 -16.95 M-10.45 -15.8 Q-10.2 -15.25 -10.65 -15.15 L-11.4 -15.35 Q-11.7 -15.65 -11.2 -16.0 -10.65 -16.3 -10.45 -15.8 M-11.05 -17.6 L-10.95 -18.0 Q-10.7 -18.15 -10.55 -17.9 -10.35 -17.65 -10.65 -17.5 -10.95 -17.35 -11.05 -17.6 M-11.15 -13.15 Q-11.4 -13.55 -11.05 -13.85 -10.65 -14.1 -10.4 -13.65 -10.15 -13.15 -10.55 -12.95 -10.9 -12.75 -11.15 -13.15 M-11.75 -11.25 Q-11.85 -11.7 -11.45 -11.95 -11.0 -12.2 -10.8 -11.8 -10.65 -11.35 -11.1 -11.1 -11.6 -10.85 -11.75 -11.25 M-11.75 -6.6 Q-12.05 -6.9 -11.55 -7.25 -11.0 -7.55 -10.8 -7.05 -10.55 -6.5 -11.0 -6.4 L-11.75 -6.6 M-11.65 -8.8 Q-11.85 -9.25 -11.45 -9.45 -11.05 -9.65 -10.75 -9.25 -10.4 -8.8 -10.95 -8.55 -11.5 -8.3 -11.65 -8.8 M-11.75 -3.9 L-12.15 -4.0 Q-12.3 -4.25 -12.05 -4.4 L-11.7 -4.3 Q-11.55 -4.0 -11.75 -3.9 M-12.8 -2.5 Q-12.5 -2.7 -12.35 -2.4 -12.25 -2.1 -12.55 -1.9 -12.9 -1.75 -13.0 -2.05 L-12.8 -2.5 M-12.0 -0.35 Q-11.75 0.05 -12.15 0.3 L-12.75 0.25 Q-12.95 -0.1 -12.6 -0.4 L-12.0 -0.35 M-3.6 -6.8 Q-3.75 -7.25 -3.4 -7.45 -3.0 -7.6 -2.7 -7.2 -2.4 -6.8 -2.9 -6.6 -3.4 -6.35 -3.6 -6.8 M-0.85 -7.1 Q-1.35 -6.85 -1.5 -7.25 -1.6 -7.7 -1.2 -7.95 -0.75 -8.2 -0.55 -7.8 -0.4 -7.35 -0.85 -7.1 M-7.5 -0.3 Q-7.2 0.2 -7.6 0.45 -7.95 0.7 -8.35 0.25 -8.8 -0.2 -8.3 -0.5 -7.8 -0.8 -7.5 -0.3 M-3.95 -4.55 Q-4.35 -4.45 -4.6 -4.7 -4.9 -5.0 -4.4 -5.3 -3.95 -5.6 -3.75 -5.1 -3.55 -4.65 -3.95 -4.55 M-3.8 -0.25 Q-3.65 0.15 -4.1 0.35 -4.5 0.6 -4.65 0.25 L-4.75 0.1 Q-5.0 -0.2 -4.65 -0.5 -4.25 -0.8 -4.05 -0.5 L-3.8 -0.25 M-4.95 -2.6 Q-5.15 -2.95 -4.85 -3.15 -4.55 -3.4 -4.3 -3.0 -4.1 -2.6 -4.4 -2.4 -4.7 -2.25 -4.95 -2.6 M-2.05 -0.25 Q-1.85 0.1 -2.15 0.35 L-2.75 0.25 Q-3.0 -0.1 -2.6 -0.35 L-2.05 -0.25 M-10.05 0.7 Q-10.5 0.9 -10.75 0.45 -11.0 0.05 -10.65 -0.25 -10.25 -0.5 -9.9 0.0 -9.6 0.45 -10.05 0.7 M-5.95 0.7 Q-6.2 0.95 -6.35 0.6 -6.55 0.3 -6.25 0.15 L-5.85 0.2 Q-5.7 0.45 -5.95 0.7" fill="#c68d00" fill-opacity="0.49019608" fill-rule="evenodd" stroke="none"/>
      <path d="M2.15 -11.0 L0.3 -9.1 0.0 -9.0 Q1.0 -11.1 1.05 -13.45 1.0 -11.1 0.0 -9.0 L0.3 -9.1 2.15 -11.0 Q2.85 -10.45 2.55 -9.95 2.25 -9.5 1.05 -9.25 L1.4 -8.55 -1.25 -8.5 -0.75 -9.0 Q-2.4 -9.15 -2.95 -9.85 -3.1 -10.6 -2.45 -10.95 -1.8 -9.7 -1.05 -9.45 L0.0 -9.0 Q-1.35 -10.6 -1.35 -13.15 -1.35 -10.6 0.0 -9.0 L-1.05 -9.45 Q-1.8 -9.7 -2.45 -10.95 L-3.0 -12.15 Q-2.4 -13.4 -1.35 -13.15 L-1.25 -13.5 1.05 -13.45 Q2.5 -13.55 2.85 -12.15 L2.15 -11.0 M0.3 -9.1 L1.05 -9.25 0.3 -9.1 M0.0 -9.0 L-0.75 -9.0 0.0 -9.0" fill="#e7e2d0" fill-rule="evenodd" stroke="none"/>
      <path d="M1.05 -13.45 Q1.0 -11.1 0.0 -9.0 L0.3 -9.1 2.15 -11.0 2.85 -12.15 Q2.5 -13.55 1.05 -13.45 L-1.25 -13.5 -1.35 -13.15 Q-1.35 -10.6 0.0 -9.0 L-1.05 -9.45 Q-1.8 -9.7 -2.45 -10.95 -3.1 -10.6 -2.95 -9.85 -2.4 -9.15 -0.75 -9.0 L0.0 -9.0 M1.05 -9.25 L0.3 -9.1 M2.15 -11.0 Q2.85 -10.45 2.55 -9.95 2.25 -9.5 1.05 -9.25 L1.4 -8.55 -1.25 -8.5 -0.75 -9.0 M-2.45 -10.95 L-3.0 -12.15 Q-2.4 -13.4 -1.35 -13.15" fill="none" stroke="#000000" stroke-linecap="round" stroke-linejoin="round" stroke-opacity="0.23137255" stroke-width="0.2"/>
      <path d="M-23.0 -22.35 L-23.7 -22.25 -23.95 -22.0 -23.2 -21.75 -23.0 -22.35 M-21.15 -18.95 Q-21.15 -18.8 -20.9 -18.8 -20.6 -18.8 -20.6 -18.95 L-20.85 -19.25 -21.15 -18.95 M-25.0 -11.95 L-25.0 -24.6 -21.85 -24.6 -21.85 -20.65 -16.25 -20.55 -16.25 -24.6 -13.5 -24.6 -13.5 -23.45 Q-13.5 -15.75 -14.9 -10.35 -16.35 -4.75 -18.6 -4.75 -21.85 -4.75 -24.15 -9.8 L-25.0 -11.95 M-22.7 -18.75 Q-23.25 -19.25 -23.25 -18.75 L-23.0 -18.55 -22.7 -18.75 M-21.9 -15.85 L-22.65 -16.05 -23.4 -15.85 -23.8 -15.4 Q-23.8 -15.05 -22.75 -15.05 -21.6 -15.05 -21.6 -15.5 L-21.9 -15.85 M-17.1 -16.95 L-18.65 -18.15 Q-20.25 -18.1 -20.65 -17.3 -20.95 -16.7 -20.95 -14.8 L-20.95 -13.2 -20.25 -13.2 -17.4 -13.1 -17.4 -13.15 -17.15 -15.3 -17.1 -16.95 M-22.25 -13.3 Q-22.25 -13.05 -21.85 -13.05 -21.6 -13.05 -21.6 -13.3 -21.55 -13.5 -21.9 -13.5 -22.25 -13.5 -22.25 -13.3 M-21.05 -11.7 Q-20.9 -11.9 -21.6 -11.9 L-22.95 -11.75 -23.05 -11.35 Q-23.05 -10.95 -21.95 -10.95 -21.55 -10.95 -21.25 -11.3 L-21.05 -11.7 M-22.25 -8.3 Q-21.5 -8.25 -21.35 -8.95 -21.2 -9.65 -22.2 -9.55 -23.2 -9.45 -23.1 -8.9 -23.0 -8.35 -22.25 -8.3 M-14.75 -19.05 Q-14.2 -19.05 -14.2 -19.25 L-15.35 -19.5 -15.45 -19.3 -15.4 -19.15 -14.75 -19.05 M-15.15 -23.35 L-15.15 -23.15 -15.15 -22.95 -14.75 -22.8 Q-14.2 -22.8 -14.2 -23.1 L-14.4 -23.3 -14.85 -23.45 -15.15 -23.35 M-15.85 -15.3 L-15.35 -15.2 Q-14.45 -15.2 -14.45 -15.6 -14.45 -15.9 -15.15 -15.95 -15.9 -16.0 -15.9 -15.5 L-15.85 -15.3 M-15.6 -10.35 Q-15.2 -10.65 -15.2 -11.0 -15.2 -11.5 -16.35 -11.5 -18.3 -10.8 -18.3 -10.6 -18.3 -10.0 -16.75 -10.0 -16.05 -10.0 -15.6 -10.35 M-16.2 -9.55 L-16.85 -9.4 -16.2 -9.2 -15.55 -9.2 Q-15.55 -9.45 -16.2 -9.55 M-19.75 -7.7 L-17.25 -7.5 Q-16.75 -8.2 -17.9 -8.35 -19.7 -8.15 -19.75 -7.7" fill="url(#decoration8-gradient1)" fill-rule="evenodd" stroke="none"/>
      <path d="M-23.0 -22.35 L-23.2 -21.75 -23.95 -22.0 -23.7 -22.25 -23.0 -22.35 M-22.7 -18.75 L-23.0 -18.55 -23.25 -18.75 Q-23.25 -19.25 -22.7 -18.75 M-21.05 -11.7 L-21.25 -11.3 Q-21.55 -10.95 -21.95 -10.95 -23.05 -10.95 -23.05 -11.35 L-22.95 -11.75 -21.6 -11.9 Q-20.9 -11.9 -21.05 -11.7 M-15.15 -23.35 L-14.85 -23.45 -14.4 -23.3 -14.2 -23.1 Q-14.2 -22.8 -14.75 -22.8 L-15.15 -22.95 -15.15 -23.15 -15.15 -23.35 M-14.75 -19.05 L-15.4 -19.15 -15.45 -19.3 -15.35 -19.5 -14.2 -19.25 Q-14.2 -19.05 -14.75 -19.05 M-16.2 -9.55 Q-15.55 -9.45 -15.55 -9.2 L-16.2 -9.2 -16.85 -9.4 -16.2 -9.55" fill="#d9b939" fill-rule="evenodd" stroke="none"/>
      <path d="M-21.15 -18.95 L-20.85 -19.25 -20.6 -18.95 Q-20.6 -18.8 -20.9 -18.8 -21.15 -18.8 -21.15 -18.95 M-22.25 -13.3 Q-22.25 -13.5 -21.9 -13.5 -21.55 -13.5 -21.6 -13.3 -21.6 -13.05 -21.85 -13.05 -22.25 -13.05 -22.25 -13.3 M-22.25 -8.3 Q-23.0 -8.35 -23.1 -8.9 -23.2 -9.45 -22.2 -9.55 -21.2 -9.65 -21.35 -8.95 -21.5 -8.25 -22.25 -8.3 M-15.85 -15.3 L-15.9 -15.5 Q-15.9 -16.0 -15.15 -15.95 -14.45 -15.9 -14.45 -15.6 -14.45 -15.2 -15.35 -15.2 L-15.85 -15.3 M-15.6 -10.35 Q-16.05 -10.0 -16.75 -10.0 -18.3 -10.0 -18.3 -10.6 -18.3 -10.8 -16.35 -11.5 -15.2 -11.5 -15.2 -11.0 -15.2 -10.65 -15.6 -10.35" fill="#e9cc57" fill-rule="evenodd" stroke="none"/>
      <path d="M-21.9 -15.85 L-21.6 -15.5 Q-21.6 -15.05 -22.75 -15.05 -23.8 -15.05 -23.8 -15.4 L-23.4 -15.85 -22.65 -16.05 -21.9 -15.85" fill="#e5c64b" fill-rule="evenodd" stroke="none"/>
      <path d="M-20.25 -13.2 L-20.95 -13.2 -20.95 -14.8 Q-20.95 -16.7 -20.65 -17.3 -20.25 -18.1 -18.65 -18.15 L-17.1 -16.95 Q-18.8 -17.7 -19.95 -16.95 L-20.25 -13.2" fill="#bb9027" fill-rule="evenodd" stroke="none"/>
      <path d="M-25.0 -11.95 L-24.15 -9.8 Q-21.85 -4.75 -18.6 -4.75 -16.35 -4.75 -14.9 -10.35 -13.5 -15.75 -13.5 -23.45 L-13.5 -24.6 -12.25 -24.6 -12.25 0.05 -25.0 0.05 -25.0 -11.95 M-23.3 -4.5 L-23.1 -4.7 Q-23.1 -5.05 -23.5 -4.7 L-23.3 -4.5 M-20.5 -3.65 Q-20.5 -4.15 -21.8 -4.15 -23.1 -4.15 -23.1 -3.6 -23.1 -3.05 -21.6 -3.05 L-20.9 -3.25 -20.5 -3.65 M-21.35 -0.3 L-19.95 -0.3 -15.8 -0.7 -14.45 -0.75 Q-13.55 -0.65 -13.3 -1.1 L-13.2 -1.7 Q-13.2 -2.85 -13.35 -3.55 L-13.35 -5.9 -13.45 -7.15 -13.75 -8.3 Q-14.25 -8.5 -14.55 -7.7 L-14.9 -6.35 Q-15.75 -4.6 -17.0 -3.3 -18.3 -2.0 -21.25 -1.25 L-23.95 -0.5 -22.05 -0.3 -21.8 -0.25 -21.35 -0.3 M-14.25 -9.5 L-12.85 -9.5 Q-12.85 -10.05 -13.55 -9.95 -14.25 -9.9 -14.25 -9.5 M-12.75 -16.05 Q-12.75 -16.4 -13.1 -16.4 L-13.3 -16.1 -13.1 -15.8 Q-12.75 -15.8 -12.75 -16.05 M-13.75 -12.7 L-13.55 -12.5 Q-13.25 -12.5 -13.25 -12.75 L-13.75 -12.7 M-18.3 -4.2 L-18.35 -4.0 -18.35 -3.85 -18.0 -3.75 Q-17.55 -3.75 -17.55 -4.0 L-17.9 -4.25 -18.3 -4.2" fill="#d7b637" fill-rule="evenodd" stroke="none"/>
      <path d="M-20.5 -3.65 L-20.9 -3.25 -21.6 -3.05 Q-23.1 -3.05 -23.1 -3.6 -23.1 -4.15 -21.8 -4.15 -20.5 -4.15 -20.5 -3.65 M-23.3 -4.5 L-23.5 -4.7 Q-23.1 -5.05 -23.1 -4.7 L-23.3 -4.5 M-13.75 -12.7 L-13.25 -12.75 Q-13.25 -12.5 -13.55 -12.5 L-13.75 -12.7 M-12.75 -16.05 Q-12.75 -15.8 -13.1 -15.8 L-13.3 -16.1 -13.1 -16.4 Q-12.75 -16.4 -12.75 -16.05 M-14.25 -9.5 Q-14.25 -9.9 -13.55 -9.95 -12.85 -10.05 -12.85 -9.5 L-14.25 -9.5 M-18.3 -4.2 L-17.9 -4.25 -17.55 -4.0 Q-17.55 -3.75 -18.0 -3.75 L-18.35 -3.85 -18.35 -4.0 -18.3 -4.2" fill="#c2a430" fill-rule="evenodd" stroke="none"/>
      <path d="M-22.05 -0.3 L-22.05 -0.55 -21.55 -0.75 Q-21.15 -0.8 -21.15 -0.55 L-21.35 -0.3 -21.8 -0.25 -22.05 -0.3 M-18.15 -1.2 L-18.5 -1.1 Q-17.85 -2.0 -17.85 -1.5 L-18.15 -1.2 M-16.1 -2.05 L-16.1 -2.2 -15.75 -2.7 -14.6 -3.05 Q-14.3 -3.05 -14.15 -2.4 -14.15 -1.9 -15.45 -1.9 L-16.1 -2.05 M-15.1 -4.25 L-15.1 -4.4 -14.7 -4.7 Q-14.3 -4.7 -14.4 -4.5 -14.4 -4.15 -14.9 -4.15 -15.1 -4.15 -15.1 -4.25" fill="#c6b674" fill-rule="evenodd" stroke="none"/>
      <path d="M-21.35 -0.3 L-21.15 -0.55 Q-21.15 -0.8 -21.55 -0.75 L-22.05 -0.55 -22.05 -0.3 -23.95 -0.5 -21.25 -1.25 Q-18.3 -2.0 -17.0 -3.3 -15.75 -4.6 -14.9 -6.35 L-14.55 -7.7 Q-14.25 -8.5 -13.75 -8.3 L-13.45 -7.15 -13.35 -5.9 -13.35 -3.55 Q-13.2 -2.85 -13.2 -1.7 L-13.3 -1.1 Q-13.55 -0.65 -14.45 -0.75 L-15.8 -0.7 -19.95 -0.3 -21.35 -0.3 M-20.15 -1.1 L-19.65 -1.0 Q-19.15 -1.0 -19.15 -1.15 L-20.15 -1.1 M-18.15 -1.2 L-17.85 -1.5 Q-17.85 -2.0 -18.5 -1.1 L-18.15 -1.2 M-16.45 -2.3 Q-16.0 -2.6 -15.95 -2.85 L-16.9 -2.8 -17.05 -2.45 Q-17.05 -2.1 -16.85 -2.1 L-16.45 -2.3 M-15.1 -4.25 Q-15.1 -4.15 -14.9 -4.15 -14.4 -4.15 -14.4 -4.5 -14.3 -4.7 -14.7 -4.7 L-15.1 -4.4 -15.1 -4.25 M-16.1 -2.05 L-15.45 -1.9 Q-14.15 -1.9 -14.15 -2.4 -14.3 -3.05 -14.6 -3.05 L-15.75 -2.7 -16.1 -2.2 -16.1 -2.05" fill="#d4c58a" fill-rule="evenodd" stroke="none"/>
      <path d="M-17.1 -16.95 L-17.15 -15.3 -17.4 -13.15 -17.4 -13.1 -20.25 -13.2 -19.95 -16.95 Q-18.8 -17.7 -17.1 -16.95" fill="#a1750a" fill-rule="evenodd" stroke="none"/>
      <path d="M-19.75 -7.7 Q-19.7 -8.15 -17.9 -8.35 -16.75 -8.2 -17.25 -7.5 L-19.75 -7.7" fill="#e2c44f" fill-rule="evenodd" stroke="none"/>
      <path d="M-20.15 -1.1 L-19.15 -1.15 Q-19.15 -1.0 -19.65 -1.0 L-20.15 -1.1 M-16.45 -2.3 L-16.85 -2.1 Q-17.05 -2.1 -17.05 -2.45 L-16.9 -2.8 -15.95 -2.85 Q-16.0 -2.6 -16.45 -2.3" fill="#e2cf83" fill-rule="evenodd" stroke="none"/>
      <path d="M-22.05 -25.1 Q-21.9 -24.85 -22.25 -24.65 -22.55 -24.45 -22.7 -24.75 -22.8 -25.1 -22.5 -25.2 L-22.05 -25.1 M-24.5 -24.8 Q-24.3 -24.55 -24.6 -24.45 -24.9 -24.3 -25.0 -24.55 L-24.85 -24.9 -24.5 -24.8 M-21.85 -22.25 Q-22.0 -22.55 -21.75 -22.8 L-21.2 -22.7 Q-21.0 -22.4 -21.3 -22.15 -21.65 -21.9 -21.85 -22.25 M-24.9 -22.55 Q-25.2 -23.0 -24.85 -23.2 L-24.15 -23.05 Q-23.85 -22.65 -24.25 -22.4 -24.6 -22.1 -24.9 -22.55 M-24.4 -20.75 L-24.8 -20.8 -24.75 -21.2 -24.35 -21.15 Q-24.2 -20.95 -24.4 -20.75 M-21.95 -20.0 Q-22.3 -19.75 -22.5 -20.1 -22.7 -20.45 -22.4 -20.7 L-21.85 -20.6 Q-21.6 -20.3 -21.95 -20.0 M-25.75 -17.3 Q-25.3 -17.45 -24.95 -17.0 -24.55 -16.55 -25.2 -16.25 -25.85 -15.95 -26.05 -16.5 -26.2 -17.1 -25.75 -17.3 M-25.7 -14.25 Q-25.25 -14.55 -24.85 -14.05 -24.5 -13.55 -24.95 -13.25 -25.4 -12.9 -25.8 -13.45 -26.15 -13.95 -25.7 -14.25 M-20.8 -17.8 Q-20.35 -18.0 -20.15 -17.65 -19.9 -17.25 -20.3 -17.0 -20.65 -16.75 -20.95 -17.15 -21.25 -17.55 -20.8 -17.8 M-24.9 -17.75 Q-25.5 -17.4 -25.7 -17.95 -25.9 -18.5 -25.35 -18.75 -24.8 -19.0 -24.55 -18.55 -24.3 -18.05 -24.9 -17.75 M-20.35 -13.75 L-19.9 -13.65 Q-19.65 -13.45 -19.95 -13.3 L-20.45 -13.35 Q-20.65 -13.6 -20.35 -13.75 M-20.95 -14.65 Q-21.4 -14.35 -21.6 -14.9 -21.8 -15.4 -21.4 -15.6 -20.95 -15.75 -20.75 -15.3 -20.55 -14.9 -20.95 -14.65 M-25.3 -11.6 Q-25.5 -12.05 -25.2 -12.3 L-24.55 -12.2 Q-24.25 -11.85 -24.65 -11.5 -25.05 -11.2 -25.3 -11.6 M-24.9 -9.05 Q-25.55 -8.7 -25.8 -9.25 -26.0 -9.85 -25.45 -10.1 -24.85 -10.4 -24.55 -9.9 -24.3 -9.4 -24.9 -9.05 M-25.0 -7.6 L-24.9 -7.9 -24.55 -7.75 Q-24.4 -7.6 -24.7 -7.45 -24.95 -7.35 -25.0 -7.6 M-25.4 -1.2 Q-24.75 -1.5 -24.5 -0.95 -24.2 -0.45 -24.85 -0.05 -25.5 0.3 -25.75 -0.3 -26.0 -0.9 -25.4 -1.2 M-24.6 -5.2 Q-24.25 -4.8 -24.65 -4.5 -25.05 -4.2 -25.35 -4.7 -25.7 -5.15 -25.3 -5.4 -24.9 -5.65 -24.6 -5.2 M-24.75 -2.55 L-25.2 -2.6 Q-25.35 -2.9 -25.1 -3.1 L-24.65 -3.05 Q-24.45 -2.75 -24.75 -2.55 M-23.0 -0.6 Q-22.65 -0.2 -23.25 0.05 -23.8 0.3 -23.95 -0.2 -24.1 -0.7 -23.7 -0.85 -23.35 -1.0 -23.0 -0.6 M-21.1 -0.15 Q-20.8 0.25 -21.2 0.5 -21.55 0.8 -21.85 0.35 -22.15 -0.1 -21.8 -0.3 L-21.1 -0.15 M-11.85 -22.2 Q-12.3 -21.9 -12.5 -22.35 -12.65 -22.8 -12.2 -23.0 -11.75 -23.2 -11.55 -22.85 -11.35 -22.45 -11.85 -22.2 M-14.7 -23.75 Q-15.15 -23.4 -15.55 -23.95 -15.9 -24.45 -15.45 -24.75 -15.0 -25.05 -14.6 -24.55 -14.25 -24.05 -14.7 -23.75 M-13.05 -24.75 L-12.55 -24.6 Q-12.3 -24.3 -12.7 -24.1 -13.15 -23.9 -13.25 -24.3 -13.35 -24.65 -13.05 -24.75 M-11.95 -18.65 Q-11.65 -18.25 -12.05 -18.0 -12.4 -17.7 -12.7 -18.15 -13.0 -18.6 -12.65 -18.8 L-11.95 -18.65 M-12.1 -20.4 Q-12.35 -20.8 -12.0 -21.05 L-11.4 -20.95 Q-11.15 -20.6 -11.55 -20.3 -11.9 -20.0 -12.1 -20.4 M-16.5 -23.65 Q-16.65 -23.9 -16.45 -24.05 L-16.05 -24.0 Q-15.9 -23.8 -16.1 -23.6 L-16.5 -23.65 M-15.8 -21.85 Q-15.6 -21.45 -16.1 -21.2 -16.55 -20.9 -16.75 -21.35 -16.9 -21.8 -16.45 -22.0 -16.0 -22.2 -15.8 -21.85 M-19.4 -20.25 Q-19.7 -20.0 -19.95 -20.4 -20.2 -20.75 -19.9 -20.95 -19.55 -21.15 -19.3 -20.8 -19.05 -20.45 -19.4 -20.25 M-17.1 -20.15 Q-17.75 -19.85 -17.95 -20.4 -18.1 -21.0 -17.65 -21.2 -17.2 -21.35 -16.85 -20.9 -16.45 -20.45 -17.1 -20.15 M-17.45 -16.6 Q-17.75 -17.0 -17.35 -17.25 -17.0 -17.55 -16.75 -17.05 -16.5 -16.5 -16.85 -16.35 -17.2 -16.15 -17.45 -16.6 M-19.15 -17.95 Q-19.4 -18.3 -18.95 -18.55 L-18.15 -18.4 Q-17.8 -18.05 -18.3 -17.8 -18.85 -17.55 -19.15 -17.95 M-18.55 -12.8 Q-18.9 -13.25 -18.35 -13.55 -17.85 -13.8 -17.55 -13.35 -17.3 -12.9 -17.75 -12.65 -18.2 -12.35 -18.55 -12.8 M-17.75 -14.75 Q-17.55 -14.85 -17.4 -14.6 -17.3 -14.4 -17.5 -14.25 -17.75 -14.1 -17.85 -14.4 L-17.75 -14.75 M-11.7 -15.8 Q-11.35 -15.35 -11.95 -15.05 -12.6 -14.8 -12.75 -15.35 -12.9 -15.85 -12.5 -16.05 -12.1 -16.2 -11.7 -15.8 M-12.25 -13.15 Q-12.7 -12.85 -12.9 -13.3 -13.05 -13.75 -12.6 -13.95 -12.15 -14.15 -11.95 -13.8 -11.75 -13.4 -12.25 -13.15 M-11.35 -9.35 Q-10.95 -8.8 -11.45 -8.4 -11.95 -8.05 -12.4 -8.65 -12.8 -9.25 -12.3 -9.55 -11.75 -9.9 -11.35 -9.35 M-12.1 -11.15 L-12.0 -11.55 -11.7 -11.5 Q-11.5 -11.3 -11.75 -11.1 L-12.1 -11.15 M-11.85 -7.4 Q-11.5 -7.0 -12.1 -6.75 -12.65 -6.5 -12.8 -7.0 -12.95 -7.5 -12.55 -7.65 -12.2 -7.8 -11.85 -7.4 M-18.55 -0.15 Q-18.3 0.15 -18.65 0.45 -19.0 0.7 -19.2 0.35 -19.4 0.0 -19.1 -0.25 L-18.55 -0.15 M-12.3 -4.1 Q-12.75 -3.8 -12.95 -4.25 -13.1 -4.7 -12.65 -4.9 -12.2 -5.1 -12.0 -4.75 -11.8 -4.35 -12.3 -4.1 M-14.15 -0.05 Q-13.85 0.35 -14.35 0.55 -14.9 0.8 -15.0 0.35 -15.1 -0.1 -14.8 -0.25 -14.45 -0.4 -14.15 -0.05 M-12.0 -1.6 L-12.55 -1.7 Q-12.75 -2.05 -12.45 -2.3 L-11.9 -2.2 Q-11.65 -1.9 -12.0 -1.6 M-12.0 -0.05 Q-11.8 0.25 -12.05 0.45 L-12.55 0.35 Q-12.8 0.0 -12.5 -0.15 L-12.0 -0.05 M-17.35 0.6 Q-17.5 0.15 -17.05 -0.05 -16.6 -0.25 -16.4 0.1 -16.2 0.5 -16.7 0.75 -17.15 1.05 -17.35 0.6" fill="#c68d00" fill-opacity="0.49019608" fill-rule="evenodd" stroke="none"/>
      <path d="M15.55 -19.25 Q15.25 -19.3 15.25 -18.95 15.25 -18.8 15.5 -18.8 15.8 -18.8 15.8 -18.95 L15.55 -19.25 M11.4 -11.95 L11.4 -24.6 14.55 -24.6 14.55 -20.65 20.15 -20.55 20.15 -24.6 22.9 -24.6 22.9 -23.45 Q22.9 -15.75 21.5 -10.35 20.05 -4.75 17.8 -4.75 14.55 -4.75 12.25 -9.8 11.75 -10.9 11.4 -11.95 M13.7 -18.75 Q13.15 -19.25 13.15 -18.75 L13.4 -18.55 13.7 -18.75 M13.2 -21.75 L13.4 -22.35 12.7 -22.25 12.45 -22.0 13.2 -21.75 M14.8 -15.5 L14.5 -15.85 13.75 -16.05 13.0 -15.85 12.6 -15.4 Q12.6 -15.05 13.65 -15.05 14.8 -15.05 14.8 -15.5 M14.55 -13.05 L14.8 -13.3 Q14.85 -13.5 14.5 -13.5 14.15 -13.5 14.15 -13.3 14.15 -13.05 14.55 -13.05 M19.3 -16.95 L17.75 -18.15 Q16.15 -18.1 15.75 -17.3 15.45 -16.7 15.45 -14.8 L15.45 -13.2 16.15 -13.2 19.0 -13.1 19.0 -13.15 19.25 -15.3 19.3 -16.95 M19.55 -9.4 L20.2 -9.2 20.85 -9.2 Q20.85 -9.45 20.2 -9.55 L19.55 -9.4 M19.15 -7.5 Q19.65 -8.2 18.5 -8.35 16.7 -8.15 16.65 -7.7 16.55 -7.1 19.15 -7.5 M20.05 -11.5 Q18.1 -10.8 18.1 -10.6 18.1 -10.0 19.65 -10.0 20.35 -10.0 20.8 -10.35 21.2 -10.65 21.2 -11.0 21.2 -11.5 20.05 -11.5 M14.45 -10.95 Q14.85 -10.95 15.15 -11.3 L15.35 -11.7 Q15.5 -11.9 14.8 -11.9 L13.45 -11.75 13.35 -11.35 Q13.35 -10.95 14.45 -10.95 M14.15 -8.3 Q14.9 -8.25 15.05 -8.95 15.2 -9.65 14.2 -9.55 13.2 -9.45 13.3 -8.9 13.4 -8.35 14.15 -8.3 M22.2 -19.25 L21.05 -19.5 20.95 -19.3 21.0 -19.15 21.65 -19.05 Q22.2 -19.05 22.2 -19.25 M21.65 -22.8 Q22.2 -22.8 22.2 -23.1 L22.0 -23.3 21.55 -23.45 21.25 -23.35 21.25 -23.15 21.25 -22.95 Q21.3 -22.8 21.65 -22.8 M21.25 -15.95 Q20.5 -16.0 20.5 -15.5 L20.55 -15.3 21.05 -15.2 Q21.95 -15.2 21.95 -15.6 21.95 -15.9 21.25 -15.95" fill="url(#decoration8-gradient2)" fill-rule="evenodd" stroke="none"/>
      <path d="M15.55 -19.25 L15.8 -18.95 Q15.8 -18.8 15.5 -18.8 15.25 -18.8 15.25 -18.95 15.25 -19.3 15.55 -19.25 M14.55 -13.05 Q14.15 -13.05 14.15 -13.3 14.15 -13.5 14.5 -13.5 14.85 -13.5 14.8 -13.3 L14.55 -13.05 M20.05 -11.5 Q21.2 -11.5 21.2 -11.0 21.2 -10.65 20.8 -10.35 20.35 -10.0 19.65 -10.0 18.1 -10.0 18.1 -10.6 18.1 -10.8 20.05 -11.5 M14.15 -8.3 Q13.4 -8.35 13.3 -8.9 13.2 -9.45 14.2 -9.55 15.2 -9.65 15.05 -8.95 14.9 -8.25 14.15 -8.3 M21.25 -15.95 Q21.95 -15.9 21.95 -15.6 21.95 -15.2 21.05 -15.2 L20.55 -15.3 20.5 -15.5 Q20.5 -16.0 21.25 -15.95" fill="#e9cc57" fill-rule="evenodd" stroke="none"/>
      <path d="M13.2 -21.75 L12.45 -22.0 12.7 -22.25 13.4 -22.35 13.2 -21.75 M13.7 -18.75 L13.4 -18.55 13.15 -18.75 Q13.15 -19.25 13.7 -18.75 M19.55 -9.4 L20.2 -9.55 Q20.85 -9.45 20.85 -9.2 L20.2 -9.2 19.55 -9.4 M14.45 -10.95 Q13.35 -10.95 13.35 -11.35 L13.45 -11.75 14.8 -11.9 Q15.5 -11.9 15.35 -11.7 L15.15 -11.3 Q14.85 -10.95 14.45 -10.95 M21.65 -22.8 Q21.3 -22.8 21.25 -22.95 L21.25 -23.15 21.25 -23.35 21.55 -23.45 22.0 -23.3 22.2 -23.1 Q22.2 -22.8 21.65 -22.8 M22.2 -19.25 Q22.2 -19.05 21.65 -19.05 L21.0 -19.15 20.95 -19.3 21.05 -19.5 22.2 -19.25" fill="#d9b939" fill-rule="evenodd" stroke="none"/>
      <path d="M14.8 -15.5 Q14.8 -15.05 13.65 -15.05 12.6 -15.05 12.6 -15.4 L13.0 -15.85 13.75 -16.05 14.5 -15.85 14.8 -15.5" fill="#e5c64b" fill-rule="evenodd" stroke="none"/>
      <path d="M16.15 -13.2 L15.45 -13.2 15.45 -14.8 Q15.45 -16.7 15.75 -17.3 16.15 -18.1 17.75 -18.15 L19.3 -16.95 Q17.6 -17.7 16.45 -16.95 L16.15 -13.2" fill="#bb9027" fill-rule="evenodd" stroke="none"/>
      <path d="M19.3 -16.95 L19.25 -15.3 19.0 -13.15 19.0 -13.1 16.15 -13.2 16.45 -16.95 Q17.6 -17.7 19.3 -16.95" fill="#a1750a" fill-rule="evenodd" stroke="none"/>
      <path d="M19.15 -7.5 Q16.55 -7.1 16.65 -7.7 16.7 -8.15 18.5 -8.35 19.65 -8.2 19.15 -7.5" fill="#e2c44f" fill-rule="evenodd" stroke="none"/>
      <path d="M11.4 -11.95 Q11.75 -10.9 12.25 -9.8 14.55 -4.75 17.8 -4.75 20.05 -4.75 21.5 -10.35 22.9 -15.75 22.9 -23.45 L22.9 -24.6 24.15 -24.6 24.15 0.05 11.4 0.05 11.4 -11.95 M14.6 -4.15 Q13.3 -4.15 13.3 -3.6 13.3 -3.05 14.8 -3.05 L15.5 -3.25 15.9 -3.65 Q15.9 -4.15 14.6 -4.15 M12.9 -4.7 L13.1 -4.5 13.3 -4.7 Q13.3 -5.05 12.9 -4.7 M15.05 -0.3 L16.45 -0.3 20.6 -0.7 21.95 -0.75 Q22.85 -0.65 23.1 -1.1 L23.2 -1.7 23.05 -3.55 23.05 -5.9 22.95 -7.15 22.65 -8.3 Q22.15 -8.5 21.85 -7.7 L21.5 -6.35 Q20.65 -4.6 19.4 -3.3 18.1 -2.0 15.15 -1.25 L12.45 -0.5 14.35 -0.3 14.6 -0.25 15.05 -0.3 M18.5 -4.25 L18.1 -4.2 18.05 -4.0 18.05 -3.85 18.4 -3.75 Q18.85 -3.75 18.85 -4.0 L18.5 -4.25 M23.3 -15.8 L23.65 -16.05 23.3 -16.4 23.1 -16.1 Q23.1 -15.8 23.3 -15.8 M22.15 -9.5 L23.55 -9.5 Q23.55 -10.05 22.85 -9.95 22.15 -9.9 22.15 -9.5 M22.85 -12.5 L23.15 -12.75 22.65 -12.7 22.85 -12.5" fill="#d7b637" fill-rule="evenodd" stroke="none"/>
      <path d="M12.9 -4.7 Q13.3 -5.05 13.3 -4.7 L13.1 -4.5 12.9 -4.7 M14.6 -4.15 Q15.9 -4.15 15.9 -3.65 L15.5 -3.25 14.8 -3.05 Q13.3 -3.05 13.3 -3.6 13.3 -4.15 14.6 -4.15 M18.5 -4.25 L18.85 -4.0 Q18.85 -3.75 18.4 -3.75 L18.05 -3.85 18.05 -4.0 18.1 -4.2 18.5 -4.25 M23.3 -15.8 Q23.1 -15.8 23.1 -16.1 L23.3 -16.4 23.65 -16.05 23.3 -15.8 M22.85 -12.5 L22.65 -12.7 23.15 -12.75 22.85 -12.5 M22.15 -9.5 Q22.15 -9.9 22.85 -9.95 23.55 -10.05 23.55 -9.5 L22.15 -9.5" fill="#c2a430" fill-rule="evenodd" stroke="none"/>
      <path d="M15.05 -0.3 Q15.25 -0.35 15.25 -0.55 15.25 -0.8 14.85 -0.75 L14.35 -0.55 14.35 -0.3 12.45 -0.5 15.15 -1.25 Q18.1 -2.0 19.4 -3.3 20.65 -4.6 21.5 -6.35 L21.85 -7.7 Q22.15 -8.5 22.65 -8.3 L22.95 -7.15 23.05 -5.9 23.05 -3.55 23.2 -1.7 23.1 -1.1 Q22.85 -0.65 21.95 -0.75 L20.6 -0.7 16.45 -0.3 15.05 -0.3 M19.35 -2.45 Q19.35 -2.1 19.55 -2.1 L19.95 -2.3 20.45 -2.85 19.5 -2.8 Q19.35 -2.75 19.35 -2.45 M16.25 -1.1 L16.75 -1.0 17.25 -1.15 16.25 -1.1 M17.9 -1.1 L18.25 -1.2 18.55 -1.5 Q18.55 -2.0 17.9 -1.1 M20.65 -2.7 Q20.3 -2.45 20.3 -2.2 L20.3 -2.05 Q20.4 -1.9 20.95 -1.9 22.25 -1.9 22.25 -2.4 22.1 -3.05 21.8 -3.05 21.1 -3.05 20.65 -2.7 M21.3 -4.25 Q21.3 -4.15 21.5 -4.15 22.0 -4.15 22.0 -4.5 22.1 -4.7 21.7 -4.7 L21.3 -4.4 21.3 -4.25" fill="#d4c58a" fill-rule="evenodd" stroke="none"/>
      <path d="M14.35 -0.3 L14.35 -0.55 14.85 -0.75 Q15.25 -0.8 15.25 -0.55 15.25 -0.35 15.05 -0.3 L14.6 -0.25 14.35 -0.3 M17.9 -1.1 Q18.55 -2.0 18.55 -1.5 L18.25 -1.2 17.9 -1.1 M21.3 -4.25 L21.3 -4.4 21.7 -4.7 Q22.1 -4.7 22.0 -4.5 22.0 -4.15 21.5 -4.15 21.3 -4.15 21.3 -4.25 M20.65 -2.7 Q21.1 -3.05 21.8 -3.05 22.1 -3.05 22.25 -2.4 22.25 -1.9 20.95 -1.9 20.4 -1.9 20.3 -2.05 L20.3 -2.2 Q20.3 -2.45 20.65 -2.7" fill="#c6b674" fill-rule="evenodd" stroke="none"/>
      <path d="M16.25 -1.1 L17.25 -1.15 16.75 -1.0 16.25 -1.1 M19.35 -2.45 Q19.35 -2.75 19.5 -2.8 L20.45 -2.85 19.95 -2.3 19.55 -2.1 Q19.35 -2.1 19.35 -2.45" fill="#e2cf83" fill-rule="evenodd" stroke="none"/>
      <path d="M23.0 -24.85 Q23.4 -24.35 22.85 -24.05 22.3 -23.7 22.0 -24.25 21.75 -24.75 22.15 -25.05 22.6 -25.4 23.0 -24.85 M16.4 -20.05 Q15.85 -19.75 15.55 -20.25 15.25 -20.8 15.7 -21.15 16.15 -21.5 16.55 -20.95 17.0 -20.35 16.4 -20.05 M19.85 -21.25 Q20.1 -21.5 20.35 -21.1 20.6 -20.65 20.3 -20.5 20.0 -20.35 19.8 -20.65 19.55 -21.0 19.85 -21.25 M18.3 -18.7 Q18.5 -18.4 18.15 -18.2 17.85 -18.0 17.6 -18.3 17.35 -18.6 17.75 -18.8 L18.3 -18.7 M18.7 -20.25 Q18.35 -19.95 18.2 -20.35 18.1 -20.7 18.35 -20.9 L18.85 -20.8 Q19.1 -20.55 18.7 -20.25 M14.45 -23.3 Q14.0 -23.1 13.7 -23.6 13.5 -23.9 13.55 -24.15 13.35 -24.0 13.3 -24.25 13.2 -24.5 13.35 -24.6 L13.7 -24.55 13.75 -24.45 Q14.15 -24.8 14.55 -24.2 14.9 -23.55 14.45 -23.3 M11.2 -23.65 Q11.0 -23.95 11.25 -24.15 L11.75 -24.05 Q12.0 -23.7 11.65 -23.55 11.35 -23.35 11.2 -23.65 M11.7 -21.9 Q11.9 -21.5 11.6 -21.35 11.35 -21.2 11.15 -21.5 11.0 -21.8 11.25 -22.05 11.5 -22.3 11.7 -21.9 M12.1 -19.25 Q11.7 -19.1 11.45 -19.5 11.2 -19.9 11.55 -20.2 11.85 -20.5 12.15 -19.95 12.45 -19.45 12.1 -19.25 M13.85 -21.0 Q13.55 -21.5 13.95 -21.9 14.4 -22.3 14.75 -21.65 15.05 -20.95 14.6 -20.7 14.15 -20.45 13.85 -21.0 M10.8 -16.35 Q10.65 -16.8 10.95 -17.0 L11.55 -16.9 Q11.9 -16.6 11.4 -16.25 10.9 -15.85 10.8 -16.35 M11.55 -12.85 Q11.7 -13.0 11.85 -12.75 12.0 -12.45 11.8 -12.35 11.6 -12.25 11.5 -12.45 11.35 -12.7 11.55 -12.85 M11.6 -14.35 Q11.1 -14.05 10.85 -14.5 10.6 -14.95 11.0 -15.25 11.35 -15.55 11.7 -15.05 12.05 -14.6 11.6 -14.35 M15.0 -15.6 Q15.45 -15.9 15.75 -15.35 16.05 -14.85 15.6 -14.65 15.15 -14.45 14.85 -14.85 14.6 -15.3 15.0 -15.6 M19.1 -16.1 Q18.85 -16.45 19.2 -16.65 L19.75 -16.5 Q20.0 -16.2 19.65 -16.0 L19.1 -16.1 M15.5 -17.1 Q15.25 -17.5 15.65 -17.7 16.0 -17.9 16.25 -17.55 16.45 -17.2 16.1 -16.95 15.75 -16.75 15.5 -17.1 M16.2 -13.2 Q15.95 -13.5 16.35 -13.7 L16.9 -13.6 Q17.1 -13.3 16.75 -13.1 16.45 -12.9 16.2 -13.2 M19.05 -14.45 Q18.8 -14.8 19.2 -15.05 19.55 -15.35 19.85 -14.85 20.1 -14.4 19.7 -14.25 19.35 -14.1 19.05 -14.45 M18.4 -12.85 Q18.15 -13.25 18.55 -13.45 18.9 -13.65 19.15 -13.3 19.35 -12.95 19.0 -12.7 18.65 -12.5 18.4 -12.85 M11.05 -10.2 Q10.85 -10.5 11.1 -10.7 L11.6 -10.55 Q11.85 -10.15 11.55 -10.0 11.25 -9.9 11.05 -10.2 M11.35 -7.75 Q11.25 -8.0 11.4 -8.1 L11.75 -8.05 Q11.9 -7.9 11.65 -7.7 L11.35 -7.75 M11.1 -5.55 Q10.85 -5.95 11.2 -6.2 11.55 -6.5 11.9 -6.05 12.2 -5.6 11.75 -5.35 11.3 -5.1 11.1 -5.55 M11.2 -3.9 Q11.5 -4.2 11.75 -3.7 12.0 -3.2 11.7 -3.0 11.35 -2.8 11.1 -3.2 10.85 -3.6 11.2 -3.9 M11.25 -1.25 Q11.1 -1.45 11.3 -1.6 11.45 -1.75 11.6 -1.5 11.8 -1.2 11.6 -1.1 11.4 -1.0 11.25 -1.25 M14.9 -0.55 Q15.2 -0.15 14.8 0.1 14.35 0.35 14.15 -0.05 13.95 -0.45 14.25 -0.7 L14.9 -0.55 M18.4 -0.5 Q18.6 -0.7 18.8 -0.35 19.0 -0.05 18.75 0.05 18.5 0.2 18.35 -0.05 18.2 -0.3 18.4 -0.5 M17.15 -0.45 Q17.35 0.05 17.05 0.2 16.75 0.4 16.5 0.05 16.3 -0.35 16.6 -0.6 16.9 -0.9 17.15 -0.45 M24.1 -23.75 Q23.6 -23.35 23.5 -23.85 23.35 -24.3 23.65 -24.5 L24.25 -24.4 Q24.6 -24.1 24.1 -23.75 M24.4 -21.75 Q23.85 -21.5 23.5 -22.05 23.15 -22.6 23.6 -23.0 24.05 -23.45 24.5 -22.7 24.9 -22.0 24.4 -21.75 M20.25 -22.85 Q20.0 -23.25 20.35 -23.55 20.65 -23.85 20.9 -23.35 21.15 -22.85 20.85 -22.65 20.5 -22.45 20.25 -22.85 M23.75 -19.35 Q23.5 -19.75 23.85 -20.05 24.15 -20.35 24.4 -19.85 24.65 -19.35 24.35 -19.15 24.0 -18.95 23.75 -19.35 M24.45 -17.55 Q24.1 -17.3 23.9 -17.7 23.7 -18.05 24.0 -18.25 24.3 -18.5 24.55 -18.1 24.85 -17.75 24.45 -17.55 M24.45 -15.5 Q24.7 -15.25 24.35 -15.0 L23.9 -15.05 Q23.8 -15.4 24.0 -15.55 L24.45 -15.5 M23.8 -13.0 Q23.55 -13.4 23.9 -13.7 24.2 -14.0 24.5 -13.45 24.8 -12.95 24.45 -12.75 24.05 -12.6 23.8 -13.0 M23.85 -10.9 Q23.6 -11.3 23.95 -11.6 24.25 -11.9 24.5 -11.4 24.75 -10.9 24.45 -10.7 24.1 -10.5 23.85 -10.9 M24.45 -6.75 Q24.75 -6.45 24.3 -6.1 23.85 -5.75 23.7 -6.2 23.6 -6.65 23.85 -6.85 L24.45 -6.75 M23.4 -8.0 Q23.15 -8.5 23.55 -8.8 23.95 -9.1 24.3 -8.6 24.7 -8.1 24.15 -7.8 23.65 -7.5 23.4 -8.0 M24.45 -3.9 Q24.05 -3.75 23.8 -4.15 23.55 -4.55 23.9 -4.85 24.2 -5.15 24.5 -4.6 24.8 -4.1 24.45 -3.9 M21.7 -0.25 Q22.0 0.0 21.6 0.3 21.15 0.65 21.05 0.2 20.9 -0.2 21.15 -0.35 L21.7 -0.25 M24.15 -1.15 Q23.85 -0.95 23.6 -1.3 23.4 -1.7 23.7 -1.95 24.0 -2.25 24.25 -1.8 24.45 -1.3 24.15 -1.15 M24.05 -0.1 Q24.35 0.3 23.95 0.55 23.5 0.8 23.3 0.4 23.1 0.0 23.4 -0.25 23.75 -0.5 24.05 -0.1 M19.8 -24.65 Q19.55 -25.05 19.9 -25.4 20.25 -25.7 20.55 -25.15 20.8 -24.65 20.45 -24.4 20.1 -24.2 19.8 -24.65 M11.45 0.8 Q11.3 0.25 11.6 0.05 L12.3 0.15 Q12.65 0.5 12.1 0.9 11.6 1.3 11.45 0.8" fill="#c68d00" fill-opacity="0.49019608" fill-rule="evenodd" stroke="none"/>
    </g>
    <linearGradient gradientTransform="matrix(0.0063, 0.0081, -0.0074, 0.0071, -3.5, -13.2)" gradientUnits="userSpaceOnUse" id="decoration8-gradient0" spreadMethod="pad" x1="-819.2" x2="819.2">
      <stop offset="0.0392156862745098" stop-color="#ffe891"/>
      <stop offset="0.9372549019607843" stop-color="#eccf5d"/>
    </linearGradient>
    <linearGradient gradientTransform="matrix(0.004, 0.0058, -0.01, 0.0068, -19.25, -14.7)" gradientUnits="userSpaceOnUse" id="decoration8-gradient1" spreadMethod="pad" x1="-819.2" x2="819.2">
      <stop offset="0.0392156862745098" stop-color="#ffe891"/>
      <stop offset="0.9372549019607843" stop-color="#eccf5d"/>
    </linearGradient>
    <linearGradient gradientTransform="matrix(0.004, 0.0058, -0.01, 0.0068, 17.15, -14.7)" gradientUnits="userSpaceOnUse" id="decoration8-gradient2" spreadMethod="pad" x1="-819.2" x2="819.2">
      <stop offset="0.0392156862745098" stop-color="#ffe891"/>
      <stop offset="0.9372549019607843" stop-color="#eccf5d"/>
    </linearGradient>
  </defs>
</svg>
