<?xml version="1.0" encoding="UTF-8" standalone="no"?>
<svg xmlns:xlink="http://www.w3.org/1999/xlink" height="48.1px" width="64.8px" xmlns="http://www.w3.org/2000/svg">
  <g transform="matrix(1.0, 0.0, 0.0, 1.0, 28.15, 46.55)">
    <use height="48.1" transform="matrix(1.0, 0.0, 0.0, 1.0, -28.15, -46.55)" width="64.8" xlink:href="#decoration80-shape0"/>
  </g>
  <defs>
    <g id="decoration80-shape0" transform="matrix(1.0, 0.0, 0.0, 1.0, 28.15, 46.55)">
      <path d="M29.75 -44.4 Q31.8 -43.15 33.3 -41.05 L34.85 -38.5 Q30.9 -41.35 30.9 -36.4 L30.1 -38.0 28.5 -41.05 26.95 -42.75 Q30.2 -42.2 29.75 -44.4 M1.2 -39.55 L1.95 -38.85 2.75 -37.7 Q-1.5 -39.6 -0.95 -35.15 -1.3 -36.3 -2.4 -37.75 -4.15 -40.05 -5.0 -40.3 -3.35 -39.85 -2.35 -40.55 -1.8 -41.0 -1.65 -41.5 L-0.1 -40.45 1.0 -39.75 1.2 -39.55" fill="#ffd754" fill-rule="evenodd" stroke="none"/>
      <path d="M34.85 -38.5 Q36.15 -35.4 36.35 -31.05 L30.15 -23.7 6.1 -21.05 0.45 -26.1 Q0.4 -29.7 -0.25 -32.8 L-0.95 -35.15 Q-1.5 -39.6 2.75 -37.7 L3.95 -35.75 3.95 -35.7 Q4.7 -34.0 5.15 -31.75 L5.6 -27.95 5.55 -24.95 19.7 -26.35 31.85 -27.55 31.85 -30.5 31.6 -34.15 30.9 -36.4 Q30.9 -41.35 34.85 -38.5 M36.5 -22.0 L36.5 -10.7 29.55 -2.95 9.35 0.0 0.4 -6.25 0.4 -17.25 6.15 -18.0 6.15 -17.2 6.15 -13.6 6.15 -10.0 6.15 -6.8 6.15 -3.55 14.5 -4.75 32.35 -7.25 32.35 -13.45 32.35 -16.9 32.35 -20.35 32.25 -21.45 36.5 -22.0 M25.4 -46.0 Q27.75 -45.55 29.75 -44.4 30.2 -42.2 26.95 -42.75 25.8 -43.75 24.35 -44.4 L21.6 -45.1 Q22.25 -45.75 25.4 -46.0 M-1.65 -41.5 Q-1.8 -41.0 -2.35 -40.55 -3.35 -39.85 -5.0 -40.3 L-5.05 -40.3 -8.15 -42.15 Q-10.0 -44.3 -5.4 -43.35 -4.35 -43.0 -3.25 -42.4 L-1.65 -41.5" fill="#e9b32f" fill-rule="evenodd" stroke="none"/>
      <path d="M-10.3 -44.05 L1.85 -45.0 Q0.75 -43.8 -5.4 -43.35 -7.7 -44.15 -10.3 -44.05 M6.3 -45.3 L16.9 -46.15 21.6 -45.1 24.35 -44.4 Q25.8 -43.75 26.95 -42.75 L28.5 -41.05 Q24.95 -40.1 22.4 -37.3 L18.45 -36.95 11.0 -36.3 18.45 -36.95 Q22.25 -33.85 31.6 -34.15 L31.85 -30.5 24.85 -29.8 Q19.15 -35.9 7.75 -36.0 L11.0 -36.3 Q12.05 -38.2 13.4 -39.4 16.15 -41.9 21.7 -44.15 L22.3 -44.25 24.35 -44.4 22.3 -44.25 15.55 -43.7 Q8.95 -43.65 6.3 -45.3 M8.8 -43.25 Q8.35 -42.1 5.9 -40.85 3.45 -39.5 1.2 -39.55 L1.0 -39.75 -0.1 -40.45 -1.65 -41.5 -3.25 -42.4 8.8 -43.25 M19.7 -26.35 L5.55 -24.95 5.6 -27.95 11.85 -28.55 Q13.95 -26.85 19.7 -26.35 M16.5 -18.4 L23.15 -19.2 Q15.1 -16.5 11.5 -10.7 L14.25 -11.05 Q13.95 -7.15 6.15 -6.8 L6.15 -10.0 6.15 -13.6 Q15.5 -14.75 16.5 -18.4 M25.8 -19.55 L29.1 -19.95 Q29.3 -17.25 32.35 -16.9 L32.35 -13.45 31.4 -13.3 31.25 -13.3 Q22.55 -14.0 25.8 -19.55 M6.15 -10.0 L11.5 -10.7 6.15 -10.0 M17.0 -11.45 L19.25 -11.7 Q22.55 -8.1 32.35 -7.25 L14.5 -4.75 Q21.5 -8.65 17.0 -11.45" fill="#6b4c1b" fill-rule="evenodd" stroke="none"/>
      <path d="M1.85 -45.0 L6.3 -45.3 Q8.95 -43.65 15.55 -43.7 L22.3 -44.25 21.7 -44.15 Q16.15 -41.9 13.4 -39.4 12.05 -38.2 11.0 -36.3 L7.75 -36.0 7.45 -36.0 7.75 -36.0 Q19.15 -35.9 24.85 -29.8 L31.85 -30.5 31.85 -27.55 19.7 -26.35 Q13.95 -26.85 11.85 -28.55 L5.6 -27.95 5.15 -31.75 Q4.7 -34.0 3.95 -35.7 L3.95 -35.75 2.75 -37.7 1.95 -38.85 1.2 -39.55 Q3.45 -39.5 5.9 -40.85 8.35 -42.1 8.8 -43.25 L15.55 -43.7 8.8 -43.25 -3.25 -42.4 Q-4.35 -43.0 -5.4 -43.35 0.75 -43.8 1.85 -45.0 M28.5 -41.05 L30.1 -38.0 30.9 -36.4 31.6 -34.15 Q22.25 -33.85 18.45 -36.95 L22.4 -37.3 Q24.95 -40.1 28.5 -41.05 M7.45 -36.0 L3.95 -35.7 7.45 -36.0 M22.4 -37.3 L30.1 -38.0 22.4 -37.3 M11.85 -28.55 L24.85 -29.8 11.85 -28.55 M6.15 -17.2 L6.15 -18.0 32.25 -21.45 32.35 -20.35 29.1 -19.95 32.35 -20.35 32.35 -16.9 Q29.3 -17.25 29.1 -19.95 L25.8 -19.55 23.15 -19.2 25.8 -19.55 Q22.55 -14.0 31.25 -13.3 L19.25 -11.7 31.25 -13.3 31.4 -13.3 32.35 -13.45 32.35 -7.25 Q22.55 -8.1 19.25 -11.7 L17.0 -11.45 Q21.5 -8.65 14.5 -4.75 L6.15 -3.55 6.15 -6.8 Q13.95 -7.15 14.25 -11.05 L11.5 -10.7 Q15.1 -16.5 23.15 -19.2 L16.5 -18.4 6.15 -17.2 16.5 -18.4 Q15.5 -14.75 6.15 -13.6 L6.15 -17.2 M17.0 -11.45 L14.25 -11.05 17.0 -11.45" fill="#795722" fill-rule="evenodd" stroke="none"/>
      <path d="M36.5 -24.35 L36.5 -22.0 32.25 -21.45 32.25 -23.95 36.5 -24.35 M-8.3 -0.3 L-19.75 -2.4 -28.0 -10.9 -28.0 -26.8 -23.35 -25.75 -23.35 -22.3 -23.35 -18.35 -23.35 -14.45 -23.35 -7.45 -10.15 -4.9 -4.95 -3.9 -4.95 -7.3 -4.95 -10.65 -4.95 -14.45 -4.95 -18.25 -4.95 -21.6 0.4 -20.4 6.1 -21.05 6.15 -18.0 0.4 -17.25 0.4 -20.4 0.4 -17.25 0.4 -6.25 -8.3 -0.3 M-27.9 -32.15 Q-26.45 -43.55 -16.25 -43.65 L-15.85 -43.65 -10.3 -44.05 Q-7.7 -44.15 -5.4 -43.35 -10.0 -44.3 -8.15 -42.15 L-5.05 -40.3 -5.0 -40.3 Q-4.15 -40.05 -2.4 -37.75 -1.3 -36.3 -0.95 -35.15 L-0.25 -32.8 Q0.4 -29.7 0.45 -26.1 L-9.4 -22.6 -17.6 -24.45 -20.45 -25.1 -27.9 -32.15 M16.9 -46.15 L22.5 -46.4 24.9 -46.1 25.4 -46.0 Q22.25 -45.75 21.6 -45.1 L16.9 -46.15 M33.55 -25.9 L34.0 -26.65 34.7 -27.1 35.3 -26.75 35.65 -26.15 34.9 -25.5 Q34.05 -25.05 33.95 -25.15 33.55 -25.45 33.55 -25.9 M3.6 -22.55 L3.15 -21.85 2.45 -21.3 1.75 -21.7 1.3 -22.3 1.75 -23.0 2.45 -23.5 Q2.7 -23.65 3.1 -23.2 L3.6 -22.55 M2.85 -0.65 Q2.35 -1.05 2.4 -1.25 L2.85 -2.0 Q3.35 -2.5 3.75 -2.45 L4.55 -1.75 Q4.95 -1.05 4.4 -0.65 3.85 -0.35 3.6 -0.3 3.35 -0.3 2.85 -0.65 M35.25 -6.4 Q35.6 -6.2 35.6 -5.65 L35.2 -5.0 34.6 -4.5 Q34.35 -4.45 33.9 -4.8 L33.45 -5.4 34.25 -6.1 Q35.05 -6.55 35.25 -6.4 M-15.85 -43.65 L-12.55 -43.4 Q-10.2 -43.05 -8.15 -42.15 -10.2 -43.05 -12.55 -43.4 L-15.85 -43.65 M-7.1 -35.4 Q-9.45 -38.3 -13.4 -38.8 -16.85 -39.45 -19.1 -38.4 -20.8 -37.7 -21.75 -36.25 L-22.05 -35.8 Q-22.9 -34.65 -23.35 -32.8 L-23.75 -29.75 -14.2 -27.55 -7.55 -25.95 -4.65 -25.3 -4.65 -28.35 Q-4.75 -30.25 -5.25 -31.75 -5.65 -32.95 -6.2 -34.0 L-6.95 -35.2 -7.1 -35.4" fill="#b47210" fill-rule="evenodd" stroke="none"/>
      <path d="M36.35 -31.05 L36.5 -24.35 32.25 -23.95 30.15 -23.7 36.35 -31.05 M36.5 -10.7 L36.5 -3.95 29.55 -2.95 36.5 -10.7 M9.35 0.0 L0.4 1.4 0.4 -6.25 9.35 0.0 M33.55 -25.9 Q33.55 -25.45 33.95 -25.15 34.05 -25.05 34.9 -25.5 L35.65 -26.15 35.3 -26.75 34.7 -27.1 34.0 -26.65 33.55 -25.9 M3.6 -22.55 L3.1 -23.2 Q2.7 -23.65 2.45 -23.5 L1.75 -23.0 1.3 -22.3 1.75 -21.7 2.45 -21.3 3.15 -21.85 3.6 -22.55 M6.1 -21.05 L0.4 -20.4 0.45 -26.1 6.1 -21.05 M2.85 -0.65 Q3.35 -0.3 3.6 -0.3 3.85 -0.35 4.4 -0.65 4.95 -1.05 4.55 -1.75 L3.75 -2.45 Q3.35 -2.5 2.85 -2.0 L2.4 -1.25 Q2.35 -1.05 2.85 -0.65 M35.25 -6.4 Q35.05 -6.55 34.25 -6.1 L33.45 -5.4 33.9 -4.8 Q34.35 -4.45 34.6 -4.5 L35.2 -5.0 35.6 -5.65 Q35.6 -6.2 35.25 -6.4" fill="#d09a18" fill-rule="evenodd" stroke="none"/>
      <path d="M32.25 -21.45 L6.15 -18.0 6.1 -21.05 30.15 -23.7 32.25 -23.95 32.25 -21.45 M-7.15 -22.1 L-4.95 -21.6 -4.95 -18.25 -7.05 -18.7 Q-17.7 -19.05 -18.4 -13.4 L-20.9 -13.95 -23.35 -14.45 -20.9 -13.95 Q-20.05 -8.8 -10.15 -4.9 L-23.35 -7.45 -23.35 -14.45 -23.35 -18.35 Q-17.25 -16.5 -17.2 -20.9 L-23.35 -22.3 -23.35 -25.75 -20.45 -25.1 -17.6 -24.45 Q-12.7 -23.0 -11.0 -19.55 L-17.2 -20.9 -11.0 -19.55 -9.15 -19.1 Q-9.7 -20.9 -7.15 -22.1 M-21.75 -36.25 Q-20.8 -37.7 -19.1 -38.4 -16.85 -39.45 -13.4 -38.8 -9.45 -38.3 -7.1 -35.4 L-12.3 -36.7 Q-15.5 -34.6 -21.75 -36.25 M-6.2 -34.0 Q-5.65 -32.95 -5.25 -31.75 -4.75 -30.25 -4.65 -28.35 L-4.65 -25.3 -7.55 -25.95 Q-11.95 -27.65 -12.4 -30.15 L-18.1 -31.55 Q-15.2 -35.6 -6.2 -34.0 M-14.2 -27.55 L-23.75 -29.75 -23.35 -32.8 -20.7 -32.15 Q-19.65 -29.25 -14.2 -27.55 M-19.1 -38.4 L-12.3 -36.7 -19.1 -38.4 M-4.65 -28.35 L-12.4 -30.15 -4.65 -28.35 M-9.15 -19.1 L-7.05 -18.7 -9.15 -19.1 M-4.95 -14.45 L-4.95 -10.65 -4.95 -7.3 Q-9.3 -8.45 -10.6 -11.85 L-13.35 -12.35 Q-9.85 -14.9 -4.95 -14.45 M-4.95 -10.65 L-10.6 -11.85 -4.95 -10.65" fill="#5b3c0b" fill-rule="evenodd" stroke="none"/>
      <path d="M0.4 1.4 L-8.3 -0.3 0.4 -6.25 0.4 1.4 M-19.75 -2.4 L-28.0 -4.0 -28.0 -10.9 -19.75 -2.4 M-28.0 -26.8 L-27.9 -32.15 -20.45 -25.1 -23.35 -25.75 -28.0 -26.8 M0.45 -26.1 L0.4 -20.4 -4.95 -21.6 -7.15 -22.1 -9.4 -22.6 0.45 -26.1 M-26.1 -26.9 Q-25.85 -26.85 -25.35 -27.25 L-24.9 -27.9 -25.35 -28.7 Q-25.85 -29.25 -26.1 -29.25 L-26.9 -29.0 -27.35 -28.4 -26.9 -27.55 -26.1 -26.9 M-25.15 -4.7 Q-24.65 -5.05 -24.65 -5.3 -24.65 -5.6 -25.15 -6.1 -25.6 -6.65 -25.85 -6.65 -26.2 -6.7 -26.55 -5.85 -26.95 -5.0 -26.75 -4.75 -26.5 -4.45 -25.85 -4.3 L-25.15 -4.7 M-2.45 -21.95 L-1.85 -22.15 -1.3 -22.9 Q-0.95 -24.0 -2.45 -24.2 -3.4 -24.45 -3.65 -23.3 -4.1 -22.2 -2.45 -21.95 M-2.45 -2.7 Q-2.9 -2.8 -3.35 -2.15 -3.85 -1.4 -3.3 -0.9 -2.9 -0.5 -2.45 -0.45 -2.25 -0.45 -1.75 -0.8 L-1.3 -1.4 -1.75 -2.2 Q-2.25 -2.7 -2.45 -2.7" fill="#a3660a" fill-rule="evenodd" stroke="none"/>
      <path d="M-9.4 -22.6 L-7.15 -22.1 Q-9.7 -20.9 -9.15 -19.1 L-11.0 -19.55 Q-12.7 -23.0 -17.6 -24.45 L-9.4 -22.6 M-7.1 -35.4 L-6.95 -35.2 -6.2 -34.0 Q-15.2 -35.6 -18.1 -31.55 L-12.4 -30.15 Q-11.95 -27.65 -7.55 -25.95 L-14.2 -27.55 Q-19.65 -29.25 -20.7 -32.15 L-18.1 -31.55 -20.7 -32.15 -23.35 -32.8 Q-22.9 -34.65 -22.05 -35.8 L-21.75 -36.25 Q-15.5 -34.6 -12.3 -36.7 L-7.1 -35.4 M-23.35 -22.3 L-17.2 -20.9 Q-17.25 -16.5 -23.35 -18.35 L-23.35 -22.3 M-20.9 -13.95 L-18.4 -13.4 Q-17.7 -19.05 -7.05 -18.7 L-4.95 -18.25 -4.95 -14.45 Q-9.85 -14.9 -13.35 -12.35 L-10.6 -11.85 Q-9.3 -8.45 -4.95 -7.3 L-4.95 -3.9 -10.15 -4.9 Q-20.05 -8.8 -20.9 -13.95 M-18.4 -13.4 L-13.35 -12.35 -18.4 -13.4" fill="#543709" fill-rule="evenodd" stroke="none"/>
      <path d="M-26.1 -26.9 L-26.9 -27.55 -27.35 -28.4 -26.9 -29.0 -26.1 -29.25 Q-25.85 -29.25 -25.35 -28.7 L-24.9 -27.9 -25.35 -27.25 Q-25.85 -26.85 -26.1 -26.9 M-25.15 -4.7 L-25.85 -4.3 Q-26.5 -4.45 -26.75 -4.75 -26.95 -5.0 -26.55 -5.85 -26.2 -6.7 -25.85 -6.65 -25.6 -6.65 -25.15 -6.1 -24.65 -5.6 -24.65 -5.3 -24.65 -5.05 -25.15 -4.7 M-2.45 -21.95 Q-4.1 -22.2 -3.65 -23.3 -3.4 -24.45 -2.45 -24.2 -0.95 -24.0 -1.3 -22.9 L-1.85 -22.15 -2.45 -21.95 M-2.45 -2.7 Q-2.25 -2.7 -1.75 -2.2 L-1.3 -1.4 -1.75 -0.8 Q-2.25 -0.45 -2.45 -0.45 -2.9 -0.5 -3.3 -0.9 -3.85 -1.4 -3.35 -2.15 -2.9 -2.8 -2.45 -2.7" fill="#985a00" fill-rule="evenodd" stroke="none"/>
      <path d="M29.75 -44.4 Q31.8 -43.15 33.3 -41.05 L34.85 -38.5 Q36.15 -35.4 36.35 -31.05 L36.5 -24.35 36.5 -22.0 36.5 -10.7 36.5 -3.95 29.55 -2.95 9.35 0.0 0.4 1.4 -8.3 -0.3 -19.75 -2.4 -28.0 -4.0 -28.0 -10.9 -28.0 -26.8 -27.9 -32.15 Q-26.45 -43.55 -16.25 -43.65 L-15.85 -43.65 -10.3 -44.05 1.85 -45.0 6.3 -45.3 16.9 -46.15 22.5 -46.4 24.9 -46.1 25.4 -46.0 Q27.75 -45.55 29.75 -44.4 M26.95 -42.75 L28.5 -41.05 30.1 -38.0 30.9 -36.4 31.6 -34.15 31.85 -30.5 31.85 -27.55 19.7 -26.35 5.55 -24.95 5.6 -27.95 5.15 -31.75 Q4.7 -34.0 3.95 -35.7 L7.45 -36.0 M11.0 -36.3 L18.45 -36.95 22.4 -37.3 M24.35 -44.4 L22.3 -44.25 15.55 -43.7 8.8 -43.25 -3.25 -42.4 -1.65 -41.5 -0.1 -40.45 1.0 -39.75 M1.2 -39.55 L1.95 -38.85 2.75 -37.7 3.95 -35.75 3.95 -35.7 M7.75 -36.0 L11.0 -36.3 M24.35 -44.4 L21.6 -45.1 16.9 -46.15 M26.95 -42.75 Q25.8 -43.75 24.35 -44.4 M30.1 -38.0 L22.4 -37.3 M33.55 -25.9 L34.0 -26.65 34.7 -27.1 35.3 -26.75 35.65 -26.15 34.9 -25.5 Q34.05 -25.05 33.95 -25.15 33.55 -25.45 33.55 -25.9 M31.85 -30.5 L24.85 -29.8 11.85 -28.55 M5.6 -27.95 L11.85 -28.55 M3.6 -22.55 L3.15 -21.85 2.45 -21.3 1.75 -21.7 1.3 -22.3 1.75 -23.0 2.45 -23.5 Q2.7 -23.65 3.1 -23.2 L3.6 -22.55 M6.15 -18.0 L6.15 -17.2 16.5 -18.4 23.15 -19.2 25.8 -19.55 29.1 -19.95 32.35 -20.35 32.25 -21.45 M6.15 -18.0 L6.1 -21.05 0.4 -20.4 0.4 -17.25 0.4 -6.25 9.35 0.0 M6.15 -13.6 L6.15 -17.2 M6.15 -6.8 L6.15 -10.0 6.15 -13.6 M2.85 -0.65 Q2.35 -1.05 2.4 -1.25 L2.85 -2.0 Q3.35 -2.5 3.75 -2.45 L4.55 -1.75 Q4.95 -1.05 4.4 -0.65 3.85 -0.35 3.6 -0.3 3.35 -0.3 2.85 -0.65 M14.5 -4.75 L6.15 -3.55 6.15 -6.8 M14.25 -11.05 L11.5 -10.7 6.15 -10.0 M14.25 -11.05 L17.0 -11.45 19.25 -11.7 31.25 -13.3 M14.5 -4.75 L32.35 -7.25 M32.25 -23.95 L32.25 -21.45 M31.4 -13.3 L32.35 -13.45 32.35 -16.9 M32.25 -23.95 L36.5 -24.35 M32.35 -20.35 L32.35 -16.9 M35.25 -6.4 Q35.05 -6.55 34.25 -6.1 L33.45 -5.4 33.9 -4.8 Q34.35 -4.45 34.6 -4.5 L35.2 -5.0 35.6 -5.65 Q35.6 -6.2 35.25 -6.4 M29.55 -2.95 L36.5 -10.7 M32.35 -13.45 L32.35 -7.25 M30.15 -23.7 L32.25 -23.95 M0.45 -26.1 L6.1 -21.05 30.15 -23.7 36.35 -31.05 M0.4 -20.4 L0.45 -26.1 -9.4 -22.6 -7.15 -22.1 -4.95 -21.6 0.4 -20.4 M0.4 -6.25 L0.4 1.4 M-5.0 -40.3 Q-4.15 -40.05 -2.4 -37.75 -1.3 -36.3 -0.95 -35.15 L-0.25 -32.8 Q0.4 -29.7 0.45 -26.1 M-8.15 -42.15 L-5.05 -40.3 -5.0 -40.3 M-8.15 -42.15 Q-10.2 -43.05 -12.55 -43.4 L-15.85 -43.65 M-3.25 -42.4 Q-4.35 -43.0 -5.4 -43.35 -7.7 -44.15 -10.3 -44.05 M-21.75 -36.25 Q-20.8 -37.7 -19.1 -38.4 -16.85 -39.45 -13.4 -38.8 -9.45 -38.3 -7.1 -35.4 L-6.95 -35.2 -6.2 -34.0 Q-5.65 -32.95 -5.25 -31.75 -4.75 -30.25 -4.65 -28.35 L-4.65 -25.3 -7.55 -25.95 -14.2 -27.55 -23.75 -29.75 -23.35 -32.8 Q-22.9 -34.65 -22.05 -35.8 L-21.75 -36.25 M-12.3 -36.7 L-19.1 -38.4 M-12.4 -30.15 L-18.1 -31.55 -20.7 -32.15 M-12.4 -30.15 L-4.65 -28.35 M-12.3 -36.7 L-7.1 -35.4 M-23.35 -32.8 L-20.7 -32.15 M-26.1 -26.9 L-26.9 -27.55 -27.35 -28.4 -26.9 -29.0 -26.1 -29.25 Q-25.85 -29.25 -25.35 -28.7 L-24.9 -27.9 -25.35 -27.25 Q-25.85 -26.85 -26.1 -26.9 M-23.35 -25.75 L-20.45 -25.1 -27.9 -32.15 M-28.0 -26.8 L-23.35 -25.75 -23.35 -22.3 -17.2 -20.9 -11.0 -19.55 M-17.6 -24.45 L-20.45 -25.1 M-23.35 -18.35 L-23.35 -14.45 -20.9 -13.95 -18.4 -13.4 M-7.05 -18.7 L-9.15 -19.1 -11.0 -19.55 M-23.35 -22.3 L-23.35 -18.35 M-25.15 -4.7 L-25.85 -4.3 Q-26.5 -4.45 -26.75 -4.75 -26.95 -5.0 -26.55 -5.85 -26.2 -6.7 -25.85 -6.65 -25.6 -6.65 -25.15 -6.1 -24.65 -5.6 -24.65 -5.3 -24.65 -5.05 -25.15 -4.7 M-10.15 -4.9 L-23.35 -7.45 -23.35 -14.45 M-2.45 -21.95 Q-4.1 -22.2 -3.65 -23.3 -3.4 -24.45 -2.45 -24.2 -0.95 -24.0 -1.3 -22.9 L-1.85 -22.15 -2.45 -21.95 M-4.95 -18.25 L-4.95 -14.45 -4.95 -10.65 -4.95 -7.3 -4.95 -3.9 -10.15 -4.9 M-7.05 -18.7 L-4.95 -18.25 -4.95 -21.6 M-13.35 -12.35 L-10.6 -11.85 -4.95 -10.65 M-2.45 -2.7 Q-2.25 -2.7 -1.75 -2.2 L-1.3 -1.4 -1.75 -0.8 Q-2.25 -0.45 -2.45 -0.45 -2.9 -0.5 -3.3 -0.9 -3.85 -1.4 -3.35 -2.15 -2.9 -2.8 -2.45 -2.7 M-13.35 -12.35 L-18.4 -13.4 M-9.4 -22.6 L-17.6 -24.45 M-28.0 -10.9 L-19.75 -2.4 M0.4 -6.25 L-8.3 -0.3" fill="none" stroke="#000000" stroke-linecap="round" stroke-linejoin="round" stroke-opacity="0.3019608" stroke-width="0.30000000000000004"/>
      <path d="M22.3 -44.25 L21.7 -44.15 Q16.15 -41.9 13.4 -39.4 12.05 -38.2 11.0 -36.3 M22.4 -37.3 Q24.95 -40.1 28.5 -41.05 M8.8 -43.25 Q8.35 -42.1 5.9 -40.85 3.45 -39.5 1.2 -39.55 M7.45 -36.0 L7.75 -36.0 M11.85 -28.55 Q13.95 -26.85 19.7 -26.35 M1.0 -39.75 L1.2 -39.55 M15.55 -43.7 Q8.95 -43.65 6.3 -45.3 M6.15 -13.6 Q15.5 -14.75 16.5 -18.4 M6.15 -6.8 Q13.95 -7.15 14.25 -11.05 M31.25 -13.3 Q22.55 -14.0 25.8 -19.55 M17.0 -11.45 Q21.5 -8.65 14.5 -4.75 M32.35 -7.25 Q22.55 -8.1 19.25 -11.7 M31.25 -13.3 L31.4 -13.3 M32.35 -16.9 Q29.3 -17.25 29.1 -19.95 M11.5 -10.7 Q15.1 -16.5 23.15 -19.2 M24.85 -29.8 Q19.15 -35.9 7.75 -36.0 M18.45 -36.95 Q22.25 -33.85 31.6 -34.15 M-21.75 -36.25 Q-15.5 -34.6 -12.3 -36.7 M-20.7 -32.15 Q-19.65 -29.25 -14.2 -27.55 M-7.55 -25.95 Q-11.95 -27.65 -12.4 -30.15 M-18.1 -31.55 Q-15.2 -35.6 -6.2 -34.0 M-11.0 -19.55 Q-12.7 -23.0 -17.6 -24.45 M-18.4 -13.4 Q-17.7 -19.05 -7.05 -18.7 M-23.35 -18.35 Q-17.25 -16.5 -17.2 -20.9 M-9.15 -19.1 Q-9.7 -20.9 -7.15 -22.1 M-10.15 -4.9 Q-20.05 -8.8 -20.9 -13.95 M-4.95 -14.45 Q-9.85 -14.9 -13.35 -12.35 M-10.6 -11.85 Q-9.3 -8.45 -4.95 -7.3 M1.85 -45.0 Q0.75 -43.8 -5.4 -43.35" fill="none" stroke="#000000" stroke-linecap="round" stroke-linejoin="round" stroke-opacity="0.16078432" stroke-width="0.30000000000000004"/>
      <path d="M24.95 -28.6 Q26.6 -27.9 27.0 -25.9 25.1 -26.25 23.25 -23.45 L23.6 -24.0 Q24.0 -24.4 24.0 -24.85 24.0 -25.85 23.25 -25.95 L24.95 -28.6 M20.55 -19.45 L18.35 -19.15 18.35 -19.75 18.35 -22.5 Q19.7 -22.05 21.55 -24.3 L21.6 -24.25 21.9 -23.8 21.6 -22.6 21.7 -21.75 Q20.05 -20.45 20.55 -19.45" fill="#ffd754" fill-rule="evenodd" stroke="none"/>
      <path d="M23.25 -25.95 Q24.0 -25.85 24.0 -24.85 24.0 -24.4 23.6 -24.0 L23.25 -23.45 23.15 -23.0 23.3 -22.05 Q23.25 -21.4 22.2 -21.4 21.8 -21.4 21.7 -21.75 L21.6 -22.6 21.9 -23.8 21.6 -24.25 21.55 -24.3 21.3 -24.85 Q21.3 -25.95 22.65 -26.0 L23.25 -25.95" fill="#694519" fill-rule="evenodd" stroke="none"/>
      <path d="M18.35 -19.15 L15.85 -19.75 15.95 -25.2 Q16.65 -28.95 20.55 -29.05 L21.7 -29.0 Q20.2 -28.75 19.4 -27.75 18.7 -26.9 18.35 -25.2 L18.35 -22.5 18.35 -19.75 18.35 -19.15" fill="#b47210" fill-rule="evenodd" stroke="none"/>
      <path d="M24.95 -28.6 L23.25 -25.95 22.65 -26.0 Q21.3 -25.95 21.3 -24.85 L21.55 -24.3 Q19.7 -22.05 18.35 -22.5 L18.35 -25.2 Q18.7 -26.9 19.4 -27.75 20.2 -28.75 21.7 -29.0 L22.55 -29.05 24.95 -28.6 M23.25 -23.45 Q25.1 -26.25 27.0 -25.9 L27.0 -20.5 20.55 -19.45 Q20.05 -20.45 21.7 -21.75 21.8 -21.4 22.2 -21.4 23.25 -21.4 23.3 -22.05 L23.15 -23.0 23.25 -23.45" fill="#e9b32f" fill-rule="evenodd" stroke="none"/>
      <path d="M27.0 -25.9 Q26.6 -27.9 24.95 -28.6 M27.0 -25.9 L27.0 -20.5 20.55 -19.45 18.35 -19.15 15.85 -19.75 15.95 -25.2 Q16.65 -28.95 20.55 -29.05 L21.7 -29.0 22.55 -29.05 24.95 -28.6 M21.7 -29.0 Q20.2 -28.75 19.4 -27.75 18.7 -26.9 18.35 -25.2 L18.35 -22.5 18.35 -19.75 18.35 -19.15" fill="none" stroke="#000000" stroke-linecap="round" stroke-linejoin="round" stroke-opacity="0.3019608" stroke-width="0.30000000000000004"/>
    </g>
  </defs>
</svg>
