<?xml version="1.0" encoding="UTF-8" standalone="no"?>
<svg xmlns:ffdec="https://www.free-decompiler.com/flash" xmlns:xlink="http://www.w3.org/1999/xlink" ffdec:objectType="frame" height="10.2px" width="31.65px" xmlns="http://www.w3.org/2000/svg">
  <g transform="matrix(1.0, 0.0, 0.0, 1.0, 15.4, 2.35)">
    <use ffdec:characterId="602" height="10.2" transform="matrix(1.0, 0.0, 0.0, 1.0, -15.4, -2.35)" width="31.65" xlink:href="#decoration81-shape0"/>
  </g>
  <defs>
    <g id="decoration81-shape0" transform="matrix(1.0, 0.0, 0.0, 1.0, 15.4, 2.35)">
      <path d="M-10.9 -1.55 Q-5.35 -3.0 0.3 -1.0 4.95 -2.35 11.0 -1.0 L0.35 -0.25 Q-5.1 -1.9 -10.9 -1.55 -5.1 -1.9 0.35 -0.25 L11.0 -1.0 Q9.3 0.15 4.55 0.1 L7.55 0.8 Q10.35 1.55 13.35 3.0 16.5 4.55 16.0 5.6 14.9 3.65 4.75 0.9 L0.35 -0.25 4.75 0.9 Q14.9 3.65 16.0 5.6 11.0 5.25 2.45 1.7 2.75 3.85 -1.55 7.4 L-2.65 7.65 -3.5 7.4 Q-4.3 7.15 -4.6 6.8 -4.5 4.35 -2.1 1.15 L-13.5 2.8 Q-14.65 3.2 -15.15 3.65 L-15.2 3.65 Q-14.75 2.55 -13.7 2.0 -11.5 0.85 -7.45 0.3 L-4.05 -0.35 Q-8.9 -0.8 -10.9 -1.55 M-13.5 2.8 Q-9.9 1.4 0.35 -0.25 -3.8 5.85 -3.5 7.4 -3.8 5.85 0.35 -0.25 -9.9 1.4 -13.5 2.8" fill="url(#decoration81-gradient0)" fill-rule="evenodd" stroke="none"/>
      <path d="M11.0 -1.0 Q12.4 0.15 7.55 0.8 L4.55 0.1 Q9.3 0.15 11.0 -1.0 M16.0 5.6 Q13.15 6.55 11.35 6.25 L5.1 4.6 Q2.55 6.55 -1.55 7.4 2.75 3.85 2.45 1.7 11.0 5.25 16.0 5.6 M-4.6 6.8 L-4.9 6.2 Q-4.85 5.05 -4.05 3.55 -11.1 3.95 -15.15 3.65 -14.65 3.2 -13.5 2.8 L-2.1 1.15 Q-4.5 4.35 -4.6 6.8 M-7.45 0.3 Q-12.5 -0.7 -10.9 -1.55 -8.9 -0.8 -4.05 -0.35 L-7.45 0.3" fill="#80330e" fill-rule="evenodd" stroke="none"/>
      <path d="M-10.9 -1.55 Q-5.1 -1.9 0.35 -0.25 L11.0 -1.0 M0.35 -0.25 L4.75 0.9 Q14.9 3.65 16.0 5.6 M-13.5 2.8 Q-14.65 3.2 -15.15 3.65 M-3.5 7.4 Q-3.8 5.85 0.35 -0.25 -9.9 1.4 -13.5 2.8" fill="none" stroke="#000000" stroke-linecap="round" stroke-linejoin="round" stroke-opacity="0.1882353" stroke-width="0.4"/>
      <path d="M-10.9 -1.55 Q-5.35 -3.0 0.3 -1.0 4.95 -2.35 11.0 -1.0 12.4 0.15 7.55 0.8 10.35 1.55 13.35 3.0 16.5 4.55 16.0 5.6 13.15 6.55 11.35 6.25 L5.1 4.6 Q2.55 6.55 -1.55 7.4 L-2.65 7.65 -3.5 7.4 Q-4.3 7.15 -4.6 6.8 L-4.9 6.2 Q-4.85 5.05 -4.05 3.55 -11.1 3.95 -15.15 3.65 L-15.2 3.65 Q-14.75 2.55 -13.7 2.0 -11.5 0.85 -7.45 0.3 -12.5 -0.7 -10.9 -1.55 Z" fill="none" stroke="#000000" stroke-linecap="round" stroke-linejoin="round" stroke-opacity="0.30980393" stroke-width="0.4"/>
      <path d="M1.25 -0.75 Q1.55 -0.4 1.05 -0.1 L0.4 -0.15 0.4 -0.1 0.55 0.0 Q0.9 0.35 0.45 0.8 L-0.4 0.7 Q-0.8 0.2 -0.35 -0.1 L-0.25 -0.15 Q-0.5 -0.5 -0.1 -0.8 0.3 -1.15 0.5 -0.8 L0.55 -0.75 0.55 -0.8 1.25 -0.75 M5.0 -1.15 L5.65 -1.05 Q5.85 -0.65 5.5 -0.45 L4.9 -0.5 Q4.65 -0.85 5.0 -1.15 M3.25 -0.9 Q3.65 -1.15 3.9 -0.7 4.15 -0.2 3.7 0.05 3.25 0.35 3.05 -0.15 2.85 -0.6 3.25 -0.9 M9.7 -1.2 L10.4 -1.15 Q10.7 -0.8 10.2 -0.5 L9.5 -0.6 Q9.2 -0.95 9.7 -1.2 M7.8 -0.45 L7.4 -0.5 Q7.15 -0.8 7.45 -1.0 L7.9 -0.95 7.8 -0.45 M12.8 4.6 Q12.5 4.2 13.0 3.9 13.5 3.6 13.7 4.05 13.9 4.5 13.5 4.75 13.1 5.05 12.8 4.6 M10.8 3.7 Q10.45 3.35 10.95 3.05 11.4 2.75 11.6 3.15 11.8 3.6 11.5 3.85 11.15 4.1 10.8 3.7 M9.45 2.8 L8.65 2.75 Q8.35 2.35 8.85 1.95 9.35 1.55 9.6 1.95 9.9 2.4 9.45 2.8 M6.75 1.4 Q6.95 1.8 6.6 2.05 6.25 2.3 6.0 1.95 5.8 1.6 6.15 1.3 6.55 1.0 6.75 1.4 M5.15 1.3 Q4.75 1.6 4.45 1.15 4.15 0.75 4.65 0.45 5.15 0.15 5.35 0.6 5.55 1.05 5.15 1.3 M2.4 0.65 Q2.1 0.85 1.8 0.5 1.5 0.15 1.9 -0.15 2.35 -0.4 2.55 0.0 2.75 0.4 2.4 0.65 M-8.9 -1.05 Q-9.2 -1.45 -8.7 -1.85 -8.2 -2.25 -7.95 -1.85 -7.65 -1.4 -8.1 -1.0 L-8.9 -1.05 M-7.2 -0.95 Q-7.4 -1.3 -7.05 -1.6 -6.65 -1.9 -6.45 -1.5 -6.25 -1.1 -6.6 -0.85 L-7.2 -0.95 M-4.4 -0.85 Q-4.7 -1.25 -4.2 -1.55 -3.7 -1.85 -3.5 -1.4 -3.3 -0.95 -3.7 -0.7 -4.1 -0.4 -4.4 -0.85 M-2.65 -0.5 Q-2.95 -0.85 -2.55 -1.15 -2.1 -1.4 -1.9 -1.0 -1.75 -0.65 -1.95 -0.45 L-1.85 -0.3 Q-1.65 0.1 -2.0 0.35 -2.3 0.55 -2.6 0.2 -2.9 -0.1 -2.55 -0.4 L-2.65 -0.5 M-3.5 -0.05 Q-3.3 0.4 -3.7 0.65 -4.1 0.95 -4.4 0.5 -4.7 0.1 -4.2 -0.2 -3.7 -0.5 -3.5 -0.05 M-2.3 2.25 Q-2.6 1.85 -2.1 1.5 -1.6 1.15 -1.35 1.6 -1.15 2.05 -1.6 2.35 L-2.3 2.25 M-3.1 5.8 Q-2.9 6.2 -3.3 6.45 -3.7 6.75 -3.9 6.35 -4.15 5.95 -3.75 5.65 -3.3 5.4 -3.1 5.8 M-3.0 3.2 Q-2.6 2.9 -2.35 3.4 -2.05 3.85 -2.5 4.1 -2.9 4.4 -3.15 3.9 -3.35 3.45 -3.0 3.2 M-8.95 1.55 Q-9.25 1.15 -8.75 0.75 -8.25 0.35 -8.0 0.75 -7.7 1.2 -8.15 1.6 L-8.95 1.55 M-6.6 1.15 L-7.2 1.05 Q-7.4 0.7 -7.05 0.4 -6.65 0.1 -6.45 0.5 -6.25 0.9 -6.6 1.15 M-11.0 2.25 Q-11.35 1.9 -10.85 1.6 -10.4 1.3 -10.2 1.7 -10.0 2.15 -10.3 2.4 -10.65 2.65 -11.0 2.25" fill="#f7b158" fill-opacity="0.83137256" fill-rule="evenodd" stroke="none"/>
    </g>
    <linearGradient gradientTransform="matrix(0.0, 0.0038, -0.0048, 0.0, 5.25, 1.4)" gradientUnits="userSpaceOnUse" id="decoration81-gradient0" spreadMethod="pad" x1="-819.2" x2="819.2">
      <stop offset="0.0" stop-color="#cd5e29"/>
      <stop offset="1.0" stop-color="#a6481b"/>
    </linearGradient>
  </defs>
</svg>
