<?xml version="1.0" encoding="UTF-8" standalone="no"?>
<svg xmlns:xlink="http://www.w3.org/1999/xlink" height="18.3px" width="35.45px" xmlns="http://www.w3.org/2000/svg">
  <g transform="matrix(1.0, 0.0, 0.0, 1.0, 18.75, 9.9)">
    <use height="18.3" transform="matrix(1.0, 0.0, 0.0, 1.0, -18.75, -9.9)" width="35.45" xlink:href="#decoration82-shape0"/>
  </g>
  <defs>
    <g id="decoration82-shape0" transform="matrix(1.0, 0.0, 0.0, 1.0, 18.75, 9.9)">
      <path d="M6.45 -7.0 L5.4 -7.1 3.75 -7.3 Q8.65 -7.3 10.5 -8.0 10.75 -8.85 8.0 -9.55 12.95 -9.05 16.4 -7.55 15.3 -5.95 12.65 -5.6 L10.45 -6.2 7.8 -6.8 6.45 -7.0" fill="url(#decoration82-gradient0)" fill-rule="evenodd" stroke="none"/>
      <path d="M5.4 -7.1 L6.45 -7.0 Q2.9 -3.2 1.2 1.2 -2.1 8.9 -5.75 5.25 -4.6 2.4 -3.0 0.05 0.3 -4.85 5.4 -7.1" fill="url(#decoration82-gradient1)" fill-rule="evenodd" stroke="none"/>
      <path d="M6.45 -7.0 L7.8 -6.8 6.6 -5.65 Q3.65 -2.65 2.45 1.4 1.85 3.2 1.6 5.2 L1.45 7.25 Q-4.25 9.35 -6.4 7.05 L-5.75 5.25 Q-2.1 8.9 1.2 1.2 2.9 -3.2 6.45 -7.0 M10.45 -6.2 L12.65 -5.6 Q16.4 -1.95 16.55 1.2 16.6 4.15 13.25 6.6 L9.6 6.9 9.15 5.05 Q13.1 5.05 13.8 2.45 L13.85 1.5 Q14.0 -4.7 10.45 -6.2" fill="url(#decoration82-gradient2)" fill-rule="evenodd" stroke="none"/>
      <path d="M8.0 -9.55 Q10.75 -8.85 10.5 -8.0 8.65 -7.3 3.75 -7.3 L3.35 -7.3 3.15 -7.3 2.35 -7.35 0.55 -7.4 Q1.3 -8.75 4.9 -9.75 L8.0 -9.55" fill="url(#decoration82-gradient3)" fill-rule="evenodd" stroke="none"/>
      <path d="M0.55 -7.4 L2.35 -7.35 Q-3.8 -5.75 -8.2 -1.95 -10.7 0.15 -12.65 2.9 L-14.25 5.6 Q-19.15 5.45 -18.55 2.6 L-18.15 2.05 Q-15.8 4.95 -12.75 1.5 L-9.1 -2.3 Q-5.55 -5.6 -1.7 -7.0 L0.55 -7.4" fill="url(#decoration82-gradient4)" fill-rule="evenodd" stroke="none"/>
      <path d="M-12.65 2.9 Q-10.7 0.15 -8.2 -1.95 -3.8 -5.75 2.35 -7.35 L3.15 -7.3 3.35 -7.3 3.75 -7.3 Q-0.8 -5.1 -4.25 -0.4 -5.45 1.15 -6.5 3.0 -7.9 5.5 -10.65 5.25 -13.35 5.05 -12.65 2.9" fill="url(#decoration82-gradient5)" fill-rule="evenodd" stroke="none"/>
      <path d="M7.8 -6.8 L10.45 -6.2 Q9.0 -2.0 8.9 1.65 8.85 3.4 9.15 5.05 L9.6 6.9 Q4.35 9.0 1.5 7.25 L1.45 7.25 1.6 5.2 Q2.5 6.35 4.35 6.15 6.4 5.05 6.8 3.85 L7.5 1.65 Q10.45 -7.8 6.6 -5.65 L7.8 -6.8" fill="url(#decoration82-gradient6)" fill-rule="evenodd" stroke="none"/>
      <path d="M3.75 -7.3 L5.4 -7.1 Q0.3 -4.85 -3.0 0.05 -4.6 2.4 -5.75 5.25 L-6.4 7.05 Q-12.6 7.35 -14.25 5.6 L-12.65 2.9 Q-13.35 5.05 -10.65 5.25 -7.9 5.5 -6.5 3.0 -5.45 1.15 -4.25 -0.4 -0.8 -5.1 3.75 -7.3" fill="url(#decoration82-gradient7)" fill-rule="evenodd" stroke="none"/>
      <path d="M9.15 5.05 Q8.85 3.4 8.9 1.65 9.0 -2.0 10.45 -6.2 14.0 -4.7 13.85 1.5 L13.8 2.45 Q13.1 5.05 9.15 5.05" fill="url(#decoration82-gradient8)" fill-rule="evenodd" stroke="none"/>
      <path d="M6.6 -5.65 Q10.45 -7.8 7.5 1.65 L6.8 3.85 Q6.4 5.05 4.35 6.15 2.5 6.35 1.6 5.2 1.85 3.2 2.45 1.4 3.65 -2.65 6.6 -5.65" fill="url(#decoration82-gradient9)" fill-rule="evenodd" stroke="none"/>
      <path d="M-1.7 -7.0 Q-5.55 -5.6 -9.1 -2.3 L-12.75 1.5 Q-15.8 4.95 -18.15 2.05 -13.85 -4.75 -1.7 -7.0" fill="url(#decoration82-gradient10)" fill-rule="evenodd" stroke="none"/>
      <path d="M5.4 -7.1 L6.45 -7.0 7.8 -6.8 10.45 -6.2 12.65 -5.6 Q15.3 -5.95 16.4 -7.55 12.95 -9.05 8.0 -9.55 M3.75 -7.3 L5.4 -7.1 Q0.3 -4.85 -3.0 0.05 -4.6 2.4 -5.75 5.25 L-6.4 7.05 Q-4.25 9.35 1.45 7.25 L1.5 7.25 Q4.35 9.0 9.6 6.9 L9.15 5.05 Q8.85 3.4 8.9 1.65 9.0 -2.0 10.45 -6.2 M0.55 -7.4 Q1.3 -8.75 4.9 -9.75 L8.0 -9.55 M2.35 -7.35 L0.55 -7.4 -1.7 -7.0 M-18.15 2.05 L-18.55 2.6 Q-19.15 5.45 -14.25 5.6 L-12.65 2.9 Q-10.7 0.15 -8.2 -1.95 -3.8 -5.75 2.35 -7.35 L3.15 -7.3 3.35 -7.3 3.75 -7.3 M7.8 -6.8 L6.6 -5.65 Q3.65 -2.65 2.45 1.4 1.85 3.2 1.6 5.2 L1.45 7.25 M12.65 -5.6 Q16.4 -1.95 16.55 1.2 16.6 4.15 13.25 6.6 L9.6 6.9 M-6.4 7.05 Q-12.6 7.35 -14.25 5.6 M-18.15 2.05 Q-13.85 -4.75 -1.7 -7.0" fill="none" stroke="#000000" stroke-linecap="round" stroke-linejoin="round" stroke-opacity="0.3019608" stroke-width="0.30000000000000004"/>
      <path d="M5.95 -8.5 Q5.95 -8.1 5.45 -7.8 4.95 -7.5 4.4 -7.5 L3.65 -7.6 3.6 -8.1 4.0 -8.85 Q4.55 -9.35 5.5 -9.1 L5.95 -8.5 M2.8 -4.55 Q2.8 -3.7 1.55 -3.3 L1.1 -3.35 1.05 -3.85 Q1.05 -4.8 1.95 -5.2 2.8 -5.55 2.8 -4.55 M4.85 -2.75 L5.65 -3.0 5.7 -2.95 5.75 -2.7 5.4 -1.6 5.15 -1.5 4.6 -2.25 4.85 -2.75 M-14.15 -0.35 Q-14.15 0.25 -15.2 0.8 -15.6 0.65 -15.6 0.15 -15.6 -0.95 -14.25 -0.7 L-14.15 -0.35 M-11.85 -1.65 Q-12.55 -1.65 -12.55 -2.45 L-12.2 -3.3 -10.85 -3.55 -10.75 -3.25 -11.2 -2.35 Q-11.65 -1.65 -11.85 -1.65 M-7.3 -0.55 L-7.5 0.1 -8.1 0.45 -8.4 0.35 -8.55 0.25 -8.6 -0.05 -8.15 -0.55 -7.35 -0.85 -7.3 -0.55 M-6.15 -1.95 L-6.2 -2.45 -5.6 -3.15 -4.5 -3.55 -4.4 -3.25 Q-4.4 -2.7 -5.6 -1.85 L-6.15 -1.95 M-3.0 2.3 L-2.95 2.7 -2.95 3.1 -3.35 3.3 -3.75 2.7 Q-3.75 2.15 -3.0 2.3" fill="#ffffff" fill-rule="evenodd" stroke="none"/>
    </g>
    <linearGradient gradientTransform="matrix(0.0036, 0.0027, -0.0012, 0.002, 7.85, -8.65)" gradientUnits="userSpaceOnUse" id="decoration82-gradient0" spreadMethod="pad" x1="-819.2" x2="819.2">
      <stop offset="0.058823529411764705" stop-color="#d0a093"/>
      <stop offset="1.0" stop-color="#af9c7f"/>
    </linearGradient>
    <linearGradient gradientTransform="matrix(6.0E-4, -0.0082, 0.0075, 7.0E-4, 1.25, -5.85)" gradientUnits="userSpaceOnUse" id="decoration82-gradient1" spreadMethod="pad" x1="-819.2" x2="819.2">
      <stop offset="0.043137254901960784" stop-color="#d9d4c1"/>
      <stop offset="1.0" stop-color="#d6eef3"/>
    </linearGradient>
    <linearGradient gradientTransform="matrix(0.0053, 0.0142, -0.0078, 0.0035, 5.1, 0.65)" gradientUnits="userSpaceOnUse" id="decoration82-gradient2" spreadMethod="pad" x1="-819.2" x2="819.2">
      <stop offset="0.027450980392156862" stop-color="#d0a093"/>
      <stop offset="1.0" stop-color="#af9c7f"/>
    </linearGradient>
    <linearGradient gradientTransform="matrix(0.003, -0.0058, 0.0012, 7.0E-4, 6.9, -10.85)" gradientUnits="userSpaceOnUse" id="decoration82-gradient3" spreadMethod="pad" x1="-819.2" x2="819.2">
      <stop offset="0.0392156862745098" stop-color="#d9d4c1"/>
      <stop offset="1.0" stop-color="#d6eef3"/>
    </linearGradient>
    <linearGradient gradientTransform="matrix(0.0073, 0.0116, -0.0059, 0.0045, -8.15, -0.9)" gradientUnits="userSpaceOnUse" id="decoration82-gradient4" spreadMethod="pad" x1="-819.2" x2="819.2">
      <stop offset="0.023529411764705882" stop-color="#d0a093"/>
      <stop offset="1.0" stop-color="#af9c7f"/>
    </linearGradient>
    <linearGradient gradientTransform="matrix(0.0026, -0.0107, 0.0068, 0.002, -1.8, -6.2)" gradientUnits="userSpaceOnUse" id="decoration82-gradient5" spreadMethod="pad" x1="-819.2" x2="819.2">
      <stop offset="0.050980392156862744" stop-color="#d9d4c1"/>
      <stop offset="1.0" stop-color="#d6eef3"/>
    </linearGradient>
    <linearGradient gradientTransform="matrix(0.0039, 0.0043, -0.0058, 0.0064, 5.95, 0.65)" gradientUnits="userSpaceOnUse" id="decoration82-gradient6" spreadMethod="pad" x1="-819.2" x2="819.2">
      <stop offset="0.0392156862745098" stop-color="#d0a093"/>
      <stop offset="1.0" stop-color="#af9c7f"/>
    </linearGradient>
    <linearGradient gradientTransform="matrix(0.0075, 0.0103, -0.0062, 0.0055, -4.4, -0.1)" gradientUnits="userSpaceOnUse" id="decoration82-gradient7" spreadMethod="pad" x1="-819.2" x2="819.2">
      <stop offset="0.0196078431372549" stop-color="#d0a093"/>
      <stop offset="1.0" stop-color="#af9c7f"/>
    </linearGradient>
    <linearGradient gradientTransform="matrix(-0.002, -0.0064, 0.0059, -0.0022, 10.2, -4.4)" gradientUnits="userSpaceOnUse" id="decoration82-gradient8" spreadMethod="pad" x1="-819.2" x2="819.2">
      <stop offset="0.027450980392156862" stop-color="#d9d4c1"/>
      <stop offset="1.0" stop-color="#d6eef3"/>
    </linearGradient>
    <linearGradient gradientTransform="matrix(-6.0E-4, -0.0049, 0.0073, -0.001, 5.45, -3.3)" gradientUnits="userSpaceOnUse" id="decoration82-gradient9" spreadMethod="pad" x1="-819.2" x2="819.2">
      <stop offset="0.058823529411764705" stop-color="#d9d4c1"/>
      <stop offset="1.0" stop-color="#d6eef3"/>
    </linearGradient>
    <linearGradient gradientTransform="matrix(0.0015, -0.0109, 0.0057, 0.001, -8.05, -5.8)" gradientUnits="userSpaceOnUse" id="decoration82-gradient10" spreadMethod="pad" x1="-819.2" x2="819.2">
      <stop offset="0.011764705882352941" stop-color="#d9d4c1"/>
      <stop offset="1.0" stop-color="#d6eef3"/>
    </linearGradient>
  </defs>
</svg>
