<?xml version="1.0" encoding="UTF-8" standalone="no"?>
<svg xmlns:xlink="http://www.w3.org/1999/xlink" height="17.65px" width="100.45px" xmlns="http://www.w3.org/2000/svg">
  <g transform="matrix(1.0, 0.0, 0.0, 1.0, 46.65, 15.6)">
    <use height="17.65" transform="matrix(1.0, 0.0, 0.0, 1.0, -46.65, -15.6)" width="100.45" xlink:href="#decoration83-shape0"/>
  </g>
  <defs>
    <g id="decoration83-shape0" transform="matrix(1.0, 0.0, 0.0, 1.0, 46.65, 15.6)">
      <path d="M-7.75 -10.25 L-2.3 -7.65 Q0.5 -5.2 0.8 -3.45 L0.8 -2.7 -11.35 -5.55 Q-12.35 -6.75 -13.1 -7.0 -13.8 -7.25 -16.9 -9.15 L-11.85 -9.5 -7.75 -10.25 M-36.85 1.9 L-36.95 1.9 Q-48.5 -0.25 -46.1 -2.9 L-33.7 -5.4 Q-35.35 -3.95 -36.35 -0.35 L-36.85 1.9 M38.7 0.3 L31.75 0.05 35.95 -2.8 36.35 -3.05 37.2 -4.05 Q38.2 -4.8 39.15 -4.9 L42.15 -4.55 46.95 -5.55 49.55 -5.15 48.95 -4.05 Q48.1 -2.05 48.1 -1.45 L46.35 -1.45 42.4 -1.35 38.7 0.3" fill="#625543" fill-rule="evenodd" stroke="none"/>
      <path d="M2.25 -4.45 L3.0 -5.4 Q5.5 -8.5 7.5 -8.4 L10.3 -7.15 10.3 -4.8 7.1 -2.8 2.25 -4.45" fill="#433827" fill-rule="evenodd" stroke="none"/>
      <path d="M13.9 -0.6 L13.05 -0.35 8.7 -0.95 4.15 -0.7 1.8 -0.7 Q0.8 -1.45 0.8 -1.9 L0.8 -1.95 Q0.8 -2.7 2.25 -4.45 L7.1 -2.8 10.3 -4.8 10.3 -7.15 12.7 -5.9 Q16.0 -3.95 16.75 -2.7 14.15 -1.45 13.9 -0.6" fill="#332a1d" fill-rule="evenodd" stroke="none"/>
      <path d="M10.3 -7.15 Q11.55 -7.6 13.4 -8.9 L19.85 -6.4 19.15 -3.75 17.25 -2.95 16.75 -2.7 Q16.0 -3.95 12.7 -5.9 L10.3 -7.15" fill="#463b2b" fill-rule="evenodd" stroke="none"/>
      <path d="M-8.1 0.65 L-16.9 0.65 -18.05 0.55 -24.45 1.9 -36.85 1.9 -36.35 -0.35 Q-35.35 -3.95 -33.7 -5.4 -24.65 -11.05 -22.75 -12.95 L-19.75 -11.0 -16.9 -9.15 Q-13.8 -7.25 -13.1 -7.0 -12.35 -6.75 -11.35 -5.55 L-9.75 -2.95 Q-8.6 -0.85 -8.1 0.65 M13.4 -8.9 L14.65 -9.85 Q17.25 -11.95 20.35 -10.85 23.45 -9.85 26.65 -7.65 L27.25 -7.25 19.85 -6.4 13.4 -8.9 M49.55 -5.15 L50.05 -4.9 53.65 -1.95 53.65 -0.45 45.0 0.55 38.7 0.3 42.4 -1.35 46.35 -1.45 48.1 -1.45 Q48.1 -2.05 48.95 -4.05 L49.55 -5.15 M-14.3 -3.45 L-15.7 -1.7 Q-17.3 -2.95 -18.65 -3.45 -17.3 -2.95 -15.7 -1.7 L-14.3 -3.45 M-15.7 -1.7 Q-16.65 -0.45 -16.9 0.65 -16.65 -0.45 -15.7 -1.7" fill="#514533" fill-rule="evenodd" stroke="none"/>
      <path d="M-46.1 -2.9 L-44.5 -4.1 -44.4 -4.2 -44.25 -4.3 -44.15 -4.35 -43.95 -4.45 -43.65 -4.65 -36.5 -9.35 Q-28.8 -14.1 -25.85 -15.2 -25.1 -14.55 -22.75 -12.95 -24.65 -11.05 -33.7 -5.4 L-46.1 -2.9 M29.0 -2.2 L31.25 -1.1 Q31.25 -0.2 30.15 0.05 L25.45 0.65 24.95 0.8 19.6 1.05 14.8 1.05 Q13.8 0.8 13.8 -0.35 L13.9 -0.6 Q14.15 -1.45 16.75 -2.7 L17.25 -2.95 19.15 -3.75 21.45 -4.4 Q25.05 -4.4 29.0 -2.2 M24.95 0.8 L21.85 -1.2 24.95 0.8" fill="#796a54" fill-rule="evenodd" stroke="none"/>
      <path d="M27.25 -7.25 Q31.9 -4.35 34.35 -3.55 L34.35 -2.7 Q32.6 -2.05 31.0 -2.05 L29.0 -2.2 Q25.05 -4.4 21.45 -4.4 L19.15 -3.75 19.85 -6.4 27.25 -7.25" fill="#413727" fill-rule="evenodd" stroke="none"/>
      <path d="M0.8 -2.7 Q0.15 0.05 -8.1 0.65 -8.6 -0.85 -9.75 -2.95 L-11.35 -5.55 0.8 -2.7 M-25.85 -15.2 L-25.2 -15.45 Q-16.15 -13.7 -7.75 -10.25 L-11.85 -9.5 -16.9 -9.15 -19.75 -11.0 -22.75 -12.95 Q-25.1 -14.55 -25.85 -15.2" fill="#584c39" fill-rule="evenodd" stroke="none"/>
      <path d="M-7.75 -10.25 L-2.3 -7.65 Q0.5 -5.2 0.8 -3.45 L0.8 -2.7 Q0.15 0.05 -8.1 0.65 L-16.9 0.65 -18.05 0.55 -24.45 1.9 -36.85 1.9 -36.95 1.9 Q-48.5 -0.25 -46.1 -2.9 L-44.5 -4.1 -44.4 -4.2 -44.25 -4.3 -44.15 -4.35 -43.95 -4.45 -43.65 -4.65 -36.5 -9.35 Q-28.8 -14.1 -25.85 -15.2 L-25.2 -15.45 Q-16.15 -13.7 -7.75 -10.25 M2.25 -4.45 L3.0 -5.4 Q5.5 -8.5 7.5 -8.4 L10.3 -7.15 Q11.55 -7.6 13.4 -8.9 L14.65 -9.85 Q17.25 -11.95 20.35 -10.85 23.45 -9.85 26.65 -7.65 L27.25 -7.25 Q31.9 -4.35 34.35 -3.55 L34.35 -2.7 Q32.6 -2.05 31.0 -2.05 L29.0 -2.2 31.25 -1.1 Q31.25 -0.2 30.15 0.05 L25.45 0.65 M24.95 0.8 L19.6 1.05 14.8 1.05 Q13.8 0.8 13.8 -0.35 L13.9 -0.6 13.05 -0.35 8.7 -0.95 4.15 -0.7 1.8 -0.7 Q0.8 -1.45 0.8 -1.9 L0.8 -1.95 Q0.8 -2.7 2.25 -4.45 M10.3 -7.15 L12.7 -5.9 Q16.0 -3.95 16.75 -2.7 L17.25 -2.95 19.15 -3.75 21.45 -4.4 Q25.05 -4.4 29.0 -2.2 M13.9 -0.6 Q14.15 -1.45 16.75 -2.7 M38.7 0.3 L31.75 0.05 35.95 -2.8 36.35 -3.05 37.2 -4.05 Q38.2 -4.8 39.15 -4.9 L42.15 -4.55 46.95 -5.55 49.55 -5.15 50.05 -4.9 53.65 -1.95 53.65 -0.45 45.0 0.55 38.7 0.3 M-33.7 -5.4 Q-35.35 -3.95 -36.35 -0.35 L-36.85 1.9" fill="none" stroke="#000000" stroke-linecap="round" stroke-linejoin="round" stroke-opacity="0.3019608" stroke-width="0.30000000000000004"/>
      <path d="M25.45 0.65 L24.95 0.8 M21.85 -1.2 L24.95 0.8 M-18.65 -3.45 Q-17.3 -2.95 -15.7 -1.7 L-14.3 -3.45 M-16.9 0.65 Q-16.65 -0.45 -15.7 -1.7" fill="none" stroke="#000000" stroke-linecap="round" stroke-linejoin="round" stroke-opacity="0.18039216" stroke-width="0.30000000000000004"/>
    </g>
  </defs>
</svg>
