<?xml version="1.0" encoding="UTF-8" standalone="no"?>
<svg xmlns:ffdec="https://www.free-decompiler.com/flash" xmlns:xlink="http://www.w3.org/1999/xlink" ffdec:objectType="frame" height="64.1px" width="187.7px" xmlns="http://www.w3.org/2000/svg">
  <g transform="matrix(1.0, 0.0, 0.0, 1.0, 110.3, 61.15)">
    <use ffdec:characterId="596" height="64.1" transform="matrix(1.0, 0.0, 0.0, 1.0, -110.3, -61.15)" width="187.7" xlink:href="#decoration84-shape0"/>
  </g>
  <defs>
    <g id="decoration84-shape0" transform="matrix(1.0, 0.0, 0.0, 1.0, 110.3, 61.15)">
      <path d="M-10.15 -32.75 Q-9.75 -28.65 -8.0 -25.8 -7.05 -23.4 -7.45 -21.7 L-8.4 -21.7 Q-7.85 -23.4 -9.0 -26.05 -11.25 -30.55 -10.9 -35.5 -9.65 -40.75 -6.45 -42.1 -10.75 -39.15 -10.15 -32.75" fill="url(#decoration84-gradient0)" fill-rule="evenodd" stroke="none"/>
      <path d="M-10.15 -32.75 Q-9.75 -28.65 -8.0 -25.8 -7.05 -23.4 -7.45 -21.7 L-8.4 -21.7 Q-7.85 -23.4 -9.0 -26.05 -11.25 -30.55 -10.9 -35.5 -9.65 -40.75 -6.45 -42.1 -10.75 -39.15 -10.15 -32.75 Z" fill="none" stroke="url(#decoration84-gradient1)" stroke-linecap="round" stroke-linejoin="round" stroke-width="0.5"/>
      <path d="M-11.25 -33.25 L-7.55 -28.05 Q-5.05 -24.75 -9.05 -21.35 L-11.55 -21.0 Q-7.25 -24.7 -9.8 -28.4 L-13.5 -34.0 Q-14.65 -35.95 -15.35 -39.45 -15.7 -41.2 -15.85 -44.65 -16.25 -53.35 -13.5 -60.1 -15.2 -51.4 -14.7 -45.7 -14.25 -40.05 -13.4 -37.55 -12.5 -35.05 -11.25 -33.25" fill="url(#decoration84-gradient2)" fill-rule="evenodd" stroke="none"/>
      <path d="M-11.25 -33.25 L-7.55 -28.05 Q-5.05 -24.75 -9.05 -21.35 L-11.55 -21.0 Q-7.25 -24.7 -9.8 -28.4 L-13.5 -34.0 Q-14.65 -35.95 -15.35 -39.45 -15.7 -41.2 -15.85 -44.65 -16.25 -53.35 -13.5 -60.1 -15.2 -51.4 -14.7 -45.7 -14.25 -40.05 -13.4 -37.55 -12.5 -35.05 -11.25 -33.25 Z" fill="none" stroke="url(#decoration84-gradient3)" stroke-linecap="round" stroke-linejoin="round" stroke-width="0.5"/>
      <path d="M-11.75 -47.75 Q-14.0 -46.2 -15.15 -43.45 -16.5 -40.15 -16.2 -37.15 -15.8 -33.65 -13.05 -30.4 L-10.8 -27.9 Q-9.95 -26.95 -9.6 -25.65 -9.2 -22.35 -10.85 -21.0 L-13.45 -20.65 Q-11.45 -22.0 -11.15 -23.9 -10.7 -26.3 -13.2 -29.05 -14.65 -30.65 -15.5 -32.35 -16.55 -34.4 -17.0 -37.0 -17.65 -49.1 -5.1 -50.5 -9.65 -49.2 -11.75 -47.75" fill="url(#decoration84-gradient4)" fill-rule="evenodd" stroke="none"/>
      <path d="M-11.75 -47.75 Q-9.65 -49.2 -5.1 -50.5 -17.65 -49.1 -17.0 -37.0 -16.55 -34.4 -15.5 -32.35 -14.65 -30.65 -13.2 -29.05 -10.7 -26.3 -11.15 -23.9 -11.45 -22.0 -13.45 -20.65 L-10.85 -21.0 Q-9.2 -22.35 -9.6 -25.65 -9.95 -26.95 -10.8 -27.9 L-13.05 -30.4 Q-15.8 -33.65 -16.2 -37.15 -16.5 -40.15 -15.15 -43.45 -14.0 -46.2 -11.75 -47.75 Z" fill="none" stroke="url(#decoration84-gradient5)" stroke-linecap="round" stroke-linejoin="round" stroke-width="0.5"/>
      <path d="M-7.15 -30.65 Q-5.6 -28.95 -5.7 -26.95 -5.75 -23.5 -10.95 -20.9 L-11.15 -22.25 Q-7.7 -23.7 -7.0 -25.95 -6.35 -28.0 -8.2 -31.05 -9.1 -32.45 -7.75 -33.8 -6.55 -35.0 -4.35 -35.4 -6.6 -34.6 -7.45 -33.5 -8.5 -32.2 -7.15 -30.65" fill="url(#decoration84-gradient6)" fill-rule="evenodd" stroke="none"/>
      <path d="M-7.15 -30.65 Q-8.5 -32.2 -7.45 -33.5 -6.6 -34.6 -4.35 -35.4 -6.55 -35.0 -7.75 -33.8 -9.1 -32.45 -8.2 -31.05 -6.35 -28.0 -7.0 -25.95 -7.7 -23.7 -11.15 -22.25 L-10.95 -20.9 Q-5.75 -23.5 -5.7 -26.95 -5.6 -28.95 -7.15 -30.65 Z" fill="none" stroke="url(#decoration84-gradient7)" stroke-linecap="round" stroke-linejoin="round" stroke-width="0.5"/>
      <path d="M-11.55 -44.15 Q-13.35 -35.7 -11.7 -29.05 -10.45 -24.65 -11.8 -20.9 L-13.95 -20.5 Q-12.2 -25.5 -13.05 -29.4 -13.95 -36.8 -11.55 -44.15" fill="url(#decoration84-gradient8)" fill-rule="evenodd" stroke="none"/>
      <path d="M-11.55 -44.15 Q-13.35 -35.7 -11.7 -29.05 -10.45 -24.65 -11.8 -20.9 L-13.95 -20.5 Q-12.2 -25.5 -13.05 -29.4 -13.95 -36.8 -11.55 -44.15 L-11.35 -44.7" fill="none" stroke="url(#decoration84-gradient9)" stroke-linecap="round" stroke-linejoin="round" stroke-width="0.5"/>
      <path d="M-10.0 -33.4 Q-12.35 -29.0 -11.15 -25.7 -10.25 -23.55 -11.85 -21.55 L-14.0 -21.25 Q-11.95 -23.85 -12.5 -25.85 -12.85 -29.5 -10.0 -33.4" fill="url(#decoration84-gradient10)" fill-rule="evenodd" stroke="none"/>
      <path d="M-10.0 -33.4 Q-12.35 -29.0 -11.15 -25.7 -10.25 -23.55 -11.85 -21.55 L-14.0 -21.25 Q-11.95 -23.85 -12.5 -25.85 -12.85 -29.5 -10.0 -33.4 L-9.75 -33.7" fill="none" stroke="url(#decoration84-gradient11)" stroke-linecap="round" stroke-linejoin="round" stroke-width="0.5"/>
      <path d="M-106.05 -8.75 L-103.45 -9.15 Q-99.9 -8.15 -98.65 -8.15 L-95.65 -8.5 Q-94.7 -8.4 -93.7 -7.65 L-92.85 -6.65 -92.45 -6.4 -88.25 -3.55 -95.2 -3.3 -98.9 -4.95 -102.85 -5.05 -104.6 -5.05 Q-104.6 -5.65 -105.45 -7.65 L-106.05 -8.75" fill="#625543" fill-rule="evenodd" stroke="none"/>
      <path d="M-95.2 -3.3 L-101.5 -3.05 -110.15 -4.05 -110.15 -5.55 -106.55 -8.5 -106.05 -8.75 -105.45 -7.65 Q-104.6 -5.65 -104.6 -5.05 L-102.85 -5.05 -98.9 -4.95 -95.2 -3.3 M-83.75 -10.85 L-83.15 -11.25 Q-79.95 -13.45 -76.85 -14.45 -73.75 -15.55 -71.15 -13.45 L-69.9 -12.5 -76.35 -10.0 -83.75 -10.85" fill="#514533" fill-rule="evenodd" stroke="none"/>
      <path d="M-85.5 -5.8 L-87.5 -5.65 Q-89.1 -5.65 -90.85 -6.3 L-90.85 -7.15 Q-88.4 -7.95 -83.75 -10.85 L-76.35 -10.0 -75.65 -7.35 -77.95 -8.0 Q-81.55 -8.0 -85.5 -5.8" fill="#413727" fill-rule="evenodd" stroke="none"/>
      <path d="M-85.5 -5.8 Q-81.55 -8.0 -77.95 -8.0 L-75.65 -7.35 -73.75 -6.55 -73.25 -6.3 Q-70.65 -5.05 -70.4 -4.2 L-70.3 -3.95 Q-70.3 -2.8 -71.3 -2.55 L-76.1 -2.55 -81.45 -2.8 -81.95 -2.95 -86.65 -3.55 Q-87.75 -3.8 -87.75 -4.7 L-85.5 -5.8 M-78.35 -4.8 L-81.45 -2.8 -78.35 -4.8" fill="#796a54" fill-rule="evenodd" stroke="none"/>
      <path d="M-69.9 -12.5 Q-68.05 -11.2 -66.8 -10.75 L-69.2 -9.5 Q-72.5 -7.55 -73.25 -6.3 L-73.75 -6.55 -75.65 -7.35 -76.35 -10.0 -69.9 -12.5" fill="#463b2b" fill-rule="evenodd" stroke="none"/>
      <path d="M-58.75 -8.05 L-57.5 -6.2 -57.3 -5.55 -57.3 -5.5 Q-57.3 -5.05 -58.3 -4.3 L-60.65 -4.3 -65.2 -4.55 -69.55 -3.95 -70.4 -4.2 Q-70.65 -5.05 -73.25 -6.3 -72.5 -7.55 -69.2 -9.5 L-66.8 -10.75 -66.8 -8.4 -63.6 -6.4 -58.75 -8.05" fill="#332a1d" fill-rule="evenodd" stroke="none"/>
      <path d="M-66.8 -10.75 Q-64.95 -11.75 -64.0 -12.0 -62.0 -12.1 -59.5 -9.0 L-58.75 -8.05 -63.6 -6.4 -66.8 -8.4 -66.8 -10.75" fill="#433827" fill-rule="evenodd" stroke="none"/>
      <path d="M-106.05 -8.75 L-103.45 -9.15 Q-99.9 -8.15 -98.65 -8.15 L-95.65 -8.5 Q-94.7 -8.4 -93.7 -7.65 L-92.85 -6.65 -92.45 -6.4 -88.25 -3.55 -95.2 -3.3 -101.5 -3.05 -110.15 -4.05 -110.15 -5.55 -106.55 -8.5 -106.05 -8.75 M-83.75 -10.85 L-83.15 -11.25 Q-79.95 -13.45 -76.85 -14.45 -73.75 -15.55 -71.15 -13.45 L-69.9 -12.5 Q-68.05 -11.2 -66.8 -10.75 -64.95 -11.75 -64.0 -12.0 -62.0 -12.1 -59.5 -9.0 L-58.75 -8.05 -57.5 -6.2 -57.3 -7.05 M-83.75 -10.85 Q-88.4 -7.95 -90.85 -7.15 L-90.85 -6.3 Q-89.1 -5.65 -87.5 -5.65 L-85.5 -5.8 Q-81.55 -8.0 -77.95 -8.0 L-75.65 -7.35 -73.75 -6.55 -73.25 -6.3 Q-70.65 -5.05 -70.4 -4.2 L-69.55 -3.95 -65.2 -4.55 -60.65 -4.3 -58.3 -4.3 Q-57.3 -5.05 -57.3 -5.5 M-85.5 -5.8 L-87.75 -4.7 Q-87.75 -3.8 -86.65 -3.55 L-81.95 -2.95 M-81.45 -2.8 L-76.1 -2.55 -71.3 -2.55 Q-70.3 -2.8 -70.3 -3.95 L-70.4 -4.2 M-66.8 -10.75 L-69.2 -9.5 Q-72.5 -7.55 -73.25 -6.3 M-57.3 -5.55 L-57.5 -6.2" fill="none" stroke="#000000" stroke-linecap="round" stroke-linejoin="round" stroke-opacity="0.3019608" stroke-width="0.30000000000000004"/>
      <path d="M-81.95 -2.95 L-81.45 -2.8 -78.35 -4.8" fill="none" stroke="#000000" stroke-linecap="round" stroke-linejoin="round" stroke-opacity="0.18039216" stroke-width="0.30000000000000004"/>
      <path d="M12.9 -34.9 Q13.85 -37.15 16.8 -36.6 L21.65 -37.4 31.05 -39.1 32.0 -38.95 Q34.4 -37.55 36.4 -35.5 37.8 -34.0 39.4 -32.95 L41.65 -31.55 44.5 -23.3 33.1 -23.3 32.55 -23.5 29.65 -29.05 12.9 -34.9 M-49.15 -0.5 L-67.6 -0.85 Q-63.4 -3.25 -59.45 -4.5 L-57.95 -9.2 Q-50.65 -12.25 -44.2 -17.75 L-46.7 -10.5 -42.35 -4.4 -47.7 -1.35 -49.15 -0.5 M-54.4 -7.25 L-52.95 -7.85 -51.7 -8.5 -52.1 -7.8 Q-53.5 -5.25 -54.15 -3.3 -53.5 -5.25 -52.1 -7.8 L-51.7 -8.5 -52.95 -7.85 -54.4 -7.25 M-51.7 -8.5 Q-50.3 -11.15 -49.45 -13.2 -50.3 -11.15 -51.7 -8.5" fill="#796a54" fill-rule="evenodd" stroke="none"/>
      <path d="M21.25 -21.4 L21.25 -12.6 17.45 -9.9 12.8 -17.3 12.8 -33.9 15.75 -29.5 21.25 -21.4" fill="#463b2b" fill-rule="evenodd" stroke="none"/>
      <path d="M54.15 -15.8 L60.0 -15.8 Q62.2 -13.55 64.7 -11.7 L66.05 -7.2 60.8 -4.65 59.9 -5.35 58.45 -3.5 56.95 -2.8 48.15 -6.4 52.45 -12.7 54.55 -12.7 54.15 -15.8 M-67.6 -0.85 L-79.25 -2.3 Q-72.9 -4.9 -70.2 -9.2 -62.2 -11.05 -57.95 -9.2 L-59.45 -4.5 Q-63.4 -3.25 -67.6 -0.85 M-17.95 -23.05 L-10.75 -24.45 -0.4 -16.0 -7.15 -7.45 -8.1 -6.95 -12.25 -11.7 Q-12.25 -16.4 -13.9 -19.7 -15.6 -23.05 -17.95 -23.05 M12.8 -33.9 L12.9 -34.9 29.65 -29.05 32.55 -23.5 15.75 -29.5 12.8 -33.9 M-47.7 -1.35 L-42.35 -4.4 -37.65 -2.15 -47.7 -1.35 M-10.7 -22.65 L-12.0 -21.1 Q-12.7 -19.95 -12.65 -19.45 -12.7 -19.95 -12.0 -21.1 L-10.7 -22.65 -12.15 -23.3 -12.3 -23.35 -12.35 -23.55 -12.65 -23.55 -12.3 -23.35 -12.65 -23.55 -12.35 -23.55 -12.3 -23.35 -12.15 -23.3 -10.7 -22.65 -10.5 -22.55 Q-9.75 -22.2 -9.25 -21.5 -9.75 -22.2 -10.5 -22.55 L-10.7 -22.65" fill="#625543" fill-rule="evenodd" stroke="none"/>
      <path d="M-44.2 -17.75 L-35.9 -23.25 -31.75 -25.6 Q-28.0 -27.25 -24.35 -25.65 L-17.95 -23.05 Q-15.6 -23.05 -13.9 -19.7 -12.25 -16.4 -12.25 -11.7 L-19.55 -3.6 -29.6 -2.8 -37.65 -2.15 -42.35 -4.4 -46.7 -10.5 -44.2 -17.75 M-10.75 -24.45 L-4.0 -31.3 12.05 -35.2 12.8 -33.9 12.8 -17.3 3.1 -18.25 0.85 -19.7 -1.75 -20.65 Q-4.3 -21.3 -6.1 -22.9 -8.1 -24.8 -10.75 -24.45 M58.45 -3.5 L59.9 -5.35 60.8 -4.65 58.45 -3.5 M-37.75 -10.55 Q-35.65 -9.75 -33.75 -7.6 L-29.95 -3.05 Q-32.05 -4.55 -34.7 -4.4 -32.05 -4.55 -29.95 -3.05 L-33.75 -7.6 Q-35.65 -9.75 -37.75 -10.55 M-29.95 -3.05 L-29.7 -2.85 -29.6 -2.8 -29.7 -2.85 -29.95 -3.05" fill="#514533" fill-rule="evenodd" stroke="none"/>
      <path d="M13.65 -7.2 Q17.95 -5.75 20.0 -3.75 L12.2 -1.85 Q10.65 -0.5 8.9 -0.55 L5.7 -0.6 2.8 -1.7 5.65 -8.7 0.85 -19.7 3.1 -18.25 3.4 -18.0 Q8.75 -12.9 13.65 -7.2 M-9.05 0.0 L-22.9 0.15 -19.55 -3.6 -13.35 -4.1 -8.1 -6.95 -6.5 -5.15 -9.05 0.0 M8.65 -5.7 L12.2 -1.85 8.65 -5.7" fill="#4f4333" fill-rule="evenodd" stroke="none"/>
      <path d="M17.45 -9.9 L13.65 -7.2 Q8.75 -12.9 3.4 -18.0 L3.1 -18.25 12.8 -17.3 17.45 -9.9" fill="#352d21" fill-rule="evenodd" stroke="none"/>
      <path d="M67.0 0.55 L54.95 0.95 58.45 -3.5 60.8 -4.65 67.0 0.55 M5.7 -0.6 L5.8 -0.55 -9.05 0.0 -6.5 -5.15 2.8 -1.7 5.7 -0.6" fill="#3f3526" fill-rule="evenodd" stroke="none"/>
      <path d="M0.85 -19.7 L5.65 -8.7 2.8 -1.7 -6.5 -5.15 -8.1 -6.95 -7.15 -7.45 -0.4 -16.0 -10.75 -24.45 Q-8.1 -24.8 -6.1 -22.9 -4.3 -21.3 -1.75 -20.65 L0.85 -19.7" fill="#514535" fill-rule="evenodd" stroke="none"/>
      <path d="M42.85 -13.45 L21.25 -21.4 15.75 -29.5 32.55 -23.5 34.4 -19.95 Q41.1 -16.3 47.75 -12.7 L42.85 -13.45" fill="#433a2c" fill-rule="evenodd" stroke="none"/>
      <path d="M41.65 -31.55 Q46.95 -28.35 52.9 -25.8 L51.85 -25.9 46.3 -19.95 34.4 -19.95 32.55 -23.5 33.1 -23.3 44.5 -23.3 41.65 -31.55 M47.3 0.55 L36.4 -1.3 42.85 -13.45 47.75 -12.7 42.9 -5.9 47.3 0.55" fill="#5f523f" fill-rule="evenodd" stroke="none"/>
      <path d="M52.9 -25.8 L54.15 -15.8 54.55 -12.7 52.45 -12.7 47.75 -12.7 Q41.1 -16.3 34.4 -19.95 L46.3 -19.95 51.85 -25.9 52.9 -25.8" fill="#43392a" fill-rule="evenodd" stroke="none"/>
      <path d="M64.7 -11.7 L66.4 -10.45 Q70.1 -7.95 74.3 -6.2 75.55 -5.65 76.55 -4.35 78.45 -1.85 75.35 -0.7 71.35 0.8 67.0 0.55 L60.8 -4.65 66.05 -7.2 64.7 -11.7 M54.8 0.95 L47.3 0.55 42.9 -5.9 47.75 -12.7 52.45 -12.7 48.15 -6.4 56.95 -2.8 58.45 -3.5 54.95 0.95 54.8 0.95" fill="#463b2d" fill-rule="evenodd" stroke="none"/>
      <path d="M-33.25 0.0 L-49.15 -0.5 -47.7 -1.35 -37.65 -2.15 -33.25 0.0" fill="#4a4032" fill-rule="evenodd" stroke="none"/>
      <path d="M-22.9 0.15 L-26.1 0.1 -26.3 0.1 -33.25 0.0 -37.65 -2.15 -29.6 -2.8 -19.55 -3.6 -22.9 0.15 M-26.3 0.1 L-29.6 -2.8 -26.3 0.1" fill="#3c3324" fill-rule="evenodd" stroke="none"/>
      <path d="M-19.55 -3.6 L-12.25 -11.7 -8.1 -6.95 -13.35 -4.1 -19.55 -3.6" fill="#5b4e3c" fill-rule="evenodd" stroke="none"/>
      <path d="M12.9 -34.9 Q13.85 -37.15 16.8 -36.6 L21.65 -37.4 31.05 -39.1 32.0 -38.95 Q34.4 -37.55 36.4 -35.5 37.8 -34.0 39.4 -32.95 L41.65 -31.55 Q46.95 -28.35 52.9 -25.8 L54.15 -15.8 60.0 -15.8 Q62.2 -13.55 64.7 -11.7 L66.4 -10.45 Q70.1 -7.95 74.3 -6.2 75.55 -5.65 76.55 -4.35 78.45 -1.85 75.35 -0.7 71.35 0.8 67.0 0.55 L54.95 0.95 54.8 1.0 54.8 0.95 47.3 0.55 36.4 -1.3 42.85 -13.45 21.25 -21.4 21.25 -12.6 17.45 -9.9 13.65 -7.2 Q17.95 -5.75 20.0 -3.75 L12.2 -1.85 Q10.65 -0.5 8.9 -0.55 L5.7 -0.6 5.8 -0.55 -9.05 0.0 -22.9 0.15 -26.1 0.1 M-26.3 0.1 L-33.25 0.0 -49.15 -0.5 -67.6 -0.85 -79.25 -2.3 Q-72.9 -4.9 -70.2 -9.2 -62.2 -11.05 -57.95 -9.2 -50.65 -12.25 -44.2 -17.75 L-35.9 -23.25 -31.75 -25.6 Q-28.0 -27.25 -24.35 -25.65 L-17.95 -23.05 -10.75 -24.45 -4.0 -31.3 12.05 -35.2 12.8 -33.9 12.9 -34.9 M15.75 -29.5 L12.8 -33.9 M13.65 -7.2 Q8.75 -12.9 3.4 -18.0 L3.1 -18.25 0.85 -19.7 5.65 -8.7 M2.8 -1.7 L5.7 -0.6 M15.75 -29.5 L21.25 -21.4 M52.9 -25.8 L51.85 -25.9 M46.3 -19.95 L34.4 -19.95 Q41.1 -16.3 47.75 -12.7 L52.45 -12.7 54.55 -12.7 54.15 -15.8 M47.75 -12.7 L42.85 -13.45 M58.45 -3.5 L59.9 -5.35 60.8 -4.65 67.0 0.55 M54.95 0.95 L54.8 0.95 M54.95 0.95 L58.45 -3.5 M47.3 0.55 L42.9 -5.9 M-42.35 -4.4 L-47.7 -1.35 -49.15 -0.5 M-37.65 -2.15 L-42.35 -4.4 M-67.6 -0.85 Q-63.4 -3.25 -59.45 -4.5 M-37.65 -2.15 L-33.25 0.0 M-10.75 -24.45 Q-8.1 -24.8 -6.1 -22.9 -4.3 -21.3 -1.75 -20.65 L0.85 -19.7 M-12.25 -11.7 L-19.55 -3.6 -22.9 0.15 M-6.5 -5.15 L-9.05 0.0 M2.8 -1.7 L-6.5 -5.15" fill="none" stroke="#000000" stroke-linecap="round" stroke-linejoin="round" stroke-opacity="0.3019608" stroke-width="0.30000000000000004"/>
      <path d="M-26.1 0.1 L-26.3 0.1 -29.6 -2.8 -29.7 -2.85 -29.95 -3.05 -33.75 -7.6 Q-35.65 -9.75 -37.75 -10.55 M12.2 -1.85 L8.65 -5.7 M-54.15 -3.3 Q-53.5 -5.25 -52.1 -7.8 L-51.7 -8.5 -52.95 -7.85 -54.4 -7.25 M-49.45 -13.2 Q-50.3 -11.15 -51.7 -8.5 M-34.7 -4.4 Q-32.05 -4.55 -29.95 -3.05 M-12.3 -23.35 L-12.65 -23.55 -12.35 -23.55 -12.3 -23.35 -12.15 -23.3 -10.7 -22.65 -10.5 -22.55 Q-9.75 -22.2 -9.25 -21.5 M-12.65 -19.45 Q-12.7 -19.95 -12.0 -21.1 L-10.7 -22.65" fill="none" stroke="#000000" stroke-linecap="round" stroke-linejoin="round" stroke-opacity="0.14117648" stroke-width="0.30000000000000004"/>
      <path d="M7.1 -13.6 L12.1 -20.65 Q14.0 -23.35 15.35 -27.1 16.6 -30.85 17.3 -39.3 18.05 -47.85 15.5 -60.9 19.6 -50.75 19.0 -37.75 18.8 -32.55 18.25 -29.95 17.2 -24.7 15.5 -21.75 L9.95 -13.4 9.15 -11.95 8.7 -12.4 7.1 -13.6" fill="url(#decoration84-gradient12)" fill-rule="evenodd" stroke="none"/>
      <path d="M9.15 -11.95 L9.95 -13.4 15.5 -21.75 Q17.2 -24.7 18.25 -29.95 18.8 -32.55 19.0 -37.75 19.6 -50.75 15.5 -60.9 18.05 -47.85 17.3 -39.3 16.6 -30.85 15.35 -27.1 14.0 -23.35 12.1 -20.65 L7.1 -13.6" fill="none" stroke="url(#decoration84-gradient13)" stroke-linecap="round" stroke-linejoin="round" stroke-width="0.5"/>
      <path d="M6.1 -2.0 L6.8 -4.65 14.2 -5.5 Q18.85 -2.6 21.3 -1.8 L21.3 -0.95 Q19.55 -0.3 17.95 -0.3 L15.95 -0.45 Q12.0 -2.65 8.4 -2.65 L6.1 -2.0" fill="#413727" fill-rule="evenodd" stroke="none"/>
      <path d="M3.7 -0.95 L4.2 -1.2 6.1 -2.0 8.4 -2.65 Q12.0 -2.65 15.95 -0.45 L18.2 0.65 Q18.2 1.55 17.1 1.8 L12.4 2.4 11.9 2.55 6.55 2.8 1.75 2.8 Q0.75 2.55 0.75 1.4 L0.85 1.15 Q1.1 0.3 3.7 -0.95 M11.9 2.55 L8.8 0.55 11.9 2.55" fill="#796a54" fill-rule="evenodd" stroke="none"/>
      <path d="M6.8 -4.65 L0.35 -7.15 1.6 -8.1 Q4.2 -10.2 7.3 -9.1 10.4 -8.1 13.6 -5.9 L14.2 -5.5 6.8 -4.65 M40.65 -3.6 L40.9 -3.35 42.8 -0.4 42.8 1.1 Q39.75 2.1 38.25 2.1 L35.0 1.85 36.9 0.2 39.0 0.1 39.9 0.1 40.35 -2.5 40.65 -3.6" fill="#514533" fill-rule="evenodd" stroke="none"/>
      <path d="M6.8 -4.65 L6.1 -2.0 4.2 -1.2 3.7 -0.95 Q2.95 -2.2 -0.35 -4.15 L-2.75 -5.4 Q-1.5 -5.85 0.35 -7.15 L6.8 -4.65" fill="#463b2b" fill-rule="evenodd" stroke="none"/>
      <path d="M35.0 1.85 L31.4 1.6 33.55 -1.25 33.75 -1.5 34.2 -2.5 Q34.75 -3.25 35.25 -3.35 L36.8 -3.0 Q37.45 -3.0 39.3 -4.0 40.15 -4.0 40.65 -3.6 L40.35 -2.5 39.9 0.1 39.0 0.1 36.9 0.2 35.0 1.85" fill="#625543" fill-rule="evenodd" stroke="none"/>
      <path d="M-2.75 -5.4 L-0.35 -4.15 Q2.95 -2.2 3.7 -0.95 1.1 0.3 0.85 1.15 L0.0 1.4 -4.35 0.8 -8.9 1.05 -11.25 1.05 Q-12.25 0.3 -12.25 -0.15 L-12.25 -0.2 -12.05 -0.85 -10.8 -2.7 -5.95 -1.05 -2.75 -3.05 -2.75 -5.4" fill="#332a1d" fill-rule="evenodd" stroke="none"/>
      <path d="M-10.8 -2.7 L-10.05 -3.65 Q-7.55 -6.75 -5.55 -6.65 -4.6 -6.4 -2.75 -5.4 L-2.75 -3.05 -5.95 -1.05 -10.8 -2.7" fill="#433827" fill-rule="evenodd" stroke="none"/>
      <path d="M0.35 -7.15 Q-1.5 -5.85 -2.75 -5.4 L-0.35 -4.15 Q2.95 -2.2 3.7 -0.95 L4.2 -1.2 6.1 -2.0 8.4 -2.65 Q12.0 -2.65 15.95 -0.45 L17.95 -0.3 Q19.55 -0.3 21.3 -0.95 L21.3 -1.8 Q18.85 -2.6 14.2 -5.5 L13.6 -5.9 Q10.4 -8.1 7.3 -9.1 4.2 -10.2 1.6 -8.1 L0.35 -7.15 M35.0 1.85 L31.4 1.6 33.55 -1.25 33.75 -1.5 34.2 -2.5 Q34.75 -3.25 35.25 -3.35 L36.8 -3.0 Q37.45 -3.0 39.3 -4.0 40.15 -4.0 40.65 -3.6 L40.9 -3.35 42.8 -0.4 42.8 1.1 Q39.75 2.1 38.25 2.1 L35.0 1.85 M15.95 -0.45 L18.2 0.65 Q18.2 1.55 17.1 1.8 L12.4 2.4 M11.9 2.55 L6.55 2.8 1.75 2.8 Q0.75 2.55 0.75 1.4 L0.85 1.15 0.0 1.4 -4.35 0.8 -8.9 1.05 -11.25 1.05 Q-12.25 0.3 -12.25 -0.15 M-12.25 -0.2 L-12.05 -0.85 -12.25 -1.7 M0.85 1.15 Q1.1 0.3 3.7 -0.95 M-12.05 -0.85 L-10.8 -2.7 -10.05 -3.65 Q-7.55 -6.75 -5.55 -6.65 -4.6 -6.4 -2.75 -5.4" fill="none" stroke="#000000" stroke-linecap="round" stroke-linejoin="round" stroke-opacity="0.3019608" stroke-width="0.30000000000000004"/>
      <path d="M12.4 2.4 L11.9 2.55 8.8 0.55" fill="none" stroke="#000000" stroke-linecap="round" stroke-linejoin="round" stroke-opacity="0.18039216" stroke-width="0.30000000000000004"/>
    </g>
    <linearGradient gradientTransform="matrix(-0.0033, 0.0144, 0.0143, 0.0018, -8.0, -36.55)" gradientUnits="userSpaceOnUse" id="decoration84-gradient0" spreadMethod="pad" x1="-819.2" x2="819.2">
      <stop offset="0.0" stop-color="#ccc845"/>
      <stop offset="0.32941176470588235" stop-color="#c7c737"/>
      <stop offset="0.788235294117647" stop-color="#3c5c0a" stop-opacity="0.8627451"/>
      <stop offset="1.0" stop-color="#6f7d0c" stop-opacity="0.4509804"/>
    </linearGradient>
    <linearGradient gradientTransform="matrix(-0.0019, 0.0109, 0.0145, 0.0012, -7.5, -33.0)" gradientUnits="userSpaceOnUse" id="decoration84-gradient1" spreadMethod="pad" x1="-819.2" x2="819.2">
      <stop offset="0.37254901960784315" stop-color="#7e7e05" stop-opacity="0.84705883"/>
      <stop offset="1.0" stop-color="#6b6b1d" stop-opacity="0.0"/>
    </linearGradient>
    <linearGradient gradientTransform="matrix(0.01, 0.028, -0.0223, 0.0093, -14.05, -52.0)" gradientUnits="userSpaceOnUse" id="decoration84-gradient2" spreadMethod="pad" x1="-819.2" x2="819.2">
      <stop offset="0.0" stop-color="#ccc845"/>
      <stop offset="0.32941176470588235" stop-color="#c7c737"/>
      <stop offset="0.788235294117647" stop-color="#3c5c0a" stop-opacity="0.8627451"/>
      <stop offset="1.0" stop-color="#6f7d0c" stop-opacity="0.4509804"/>
    </linearGradient>
    <linearGradient gradientTransform="matrix(0.0048, -7.0E-4, 0.0019, 0.0239, -11.7, -40.75)" gradientUnits="userSpaceOnUse" id="decoration84-gradient3" spreadMethod="pad" x1="-819.2" x2="819.2">
      <stop offset="0.37254901960784315" stop-color="#7e7e05" stop-opacity="0.84705883"/>
      <stop offset="1.0" stop-color="#6b6b1d" stop-opacity="0.0"/>
    </linearGradient>
    <linearGradient gradientTransform="matrix(9.0E-4, 0.0241, -0.0155, 2.0E-4, -9.25, -45.2)" gradientUnits="userSpaceOnUse" id="decoration84-gradient4" spreadMethod="pad" x1="-819.2" x2="819.2">
      <stop offset="0.0" stop-color="#ccc845"/>
      <stop offset="0.32941176470588235" stop-color="#c7c737"/>
      <stop offset="0.788235294117647" stop-color="#3c5c0a" stop-opacity="0.8627451"/>
      <stop offset="1.0" stop-color="#6f7d0c" stop-opacity="0.4509804"/>
    </linearGradient>
    <linearGradient gradientTransform="matrix(-0.0081, 0.0185, -0.0141, -0.008, -8.5, -37.4)" gradientUnits="userSpaceOnUse" id="decoration84-gradient5" spreadMethod="pad" x1="-819.2" x2="819.2">
      <stop offset="0.37254901960784315" stop-color="#7e7e05" stop-opacity="0.84705883"/>
      <stop offset="1.0" stop-color="#6b6b1d" stop-opacity="0.0"/>
    </linearGradient>
    <linearGradient gradientTransform="matrix(-0.0053, 0.0103, 0.0124, 0.0016, -7.5, -31.65)" gradientUnits="userSpaceOnUse" id="decoration84-gradient6" spreadMethod="pad" x1="-819.2" x2="819.2">
      <stop offset="0.0" stop-color="#ccc845"/>
      <stop offset="0.32941176470588235" stop-color="#c7c737"/>
      <stop offset="0.788235294117647" stop-color="#3c5c0a" stop-opacity="0.8627451"/>
      <stop offset="1.0" stop-color="#6f7d0c" stop-opacity="0.4509804"/>
    </linearGradient>
    <linearGradient gradientTransform="matrix(-0.0015, 0.0056, 0.013, 3.0E-4, -8.15, -26.45)" gradientUnits="userSpaceOnUse" id="decoration84-gradient7" spreadMethod="pad" x1="-819.2" x2="819.2">
      <stop offset="0.37254901960784315" stop-color="#7e7e05" stop-opacity="0.84705883"/>
      <stop offset="1.0" stop-color="#6b6b1d" stop-opacity="0.0"/>
    </linearGradient>
    <linearGradient gradientTransform="matrix(0.0031, 0.0134, -0.0137, 0.0031, -12.85, -37.55)" gradientUnits="userSpaceOnUse" id="decoration84-gradient8" spreadMethod="pad" x1="-819.2" x2="819.2">
      <stop offset="0.0" stop-color="#ccc845"/>
      <stop offset="0.32941176470588235" stop-color="#c7c737"/>
      <stop offset="0.788235294117647" stop-color="#3c5c0a" stop-opacity="0.8627451"/>
      <stop offset="1.0" stop-color="#6f7d0c" stop-opacity="0.4509804"/>
    </linearGradient>
    <linearGradient gradientTransform="matrix(0.0013, 0.0095, -0.0143, 0.002, -10.95, -37.9)" gradientUnits="userSpaceOnUse" id="decoration84-gradient9" spreadMethod="pad" x1="-819.2" x2="819.2">
      <stop offset="0.37254901960784315" stop-color="#7e7e05" stop-opacity="0.84705883"/>
      <stop offset="1.0" stop-color="#6b6b1d" stop-opacity="0.0"/>
    </linearGradient>
    <linearGradient gradientTransform="matrix(0.0021, 0.0066, -0.0138, 0.0025, -11.7, -29.95)" gradientUnits="userSpaceOnUse" id="decoration84-gradient10" spreadMethod="pad" x1="-819.2" x2="819.2">
      <stop offset="0.0" stop-color="#ccc845"/>
      <stop offset="0.32941176470588235" stop-color="#c7c737"/>
      <stop offset="0.788235294117647" stop-color="#3c5c0a" stop-opacity="0.8627451"/>
      <stop offset="1.0" stop-color="#6f7d0c" stop-opacity="0.4509804"/>
    </linearGradient>
    <linearGradient gradientTransform="matrix(7.0E-4, 0.0048, -0.0143, 0.002, -9.8, -30.25)" gradientUnits="userSpaceOnUse" id="decoration84-gradient11" spreadMethod="pad" x1="-819.2" x2="819.2">
      <stop offset="0.37254901960784315" stop-color="#7e7e05" stop-opacity="0.84705883"/>
      <stop offset="1.0" stop-color="#6b6b1d" stop-opacity="0.0"/>
    </linearGradient>
    <linearGradient gradientTransform="matrix(-0.015, 0.042, 0.0334, 0.014, 16.3, -48.75)" gradientUnits="userSpaceOnUse" id="decoration84-gradient12" spreadMethod="pad" x1="-819.2" x2="819.2">
      <stop offset="0.0" stop-color="#ccc845"/>
      <stop offset="0.32941176470588235" stop-color="#c7c737"/>
      <stop offset="0.788235294117647" stop-color="#3c5c0a" stop-opacity="0.8627451"/>
      <stop offset="1.0" stop-color="#6f7d0c" stop-opacity="0.4509804"/>
    </linearGradient>
    <linearGradient gradientTransform="matrix(-0.0072, -0.001, -0.0028, 0.0358, 12.8, -31.9)" gradientUnits="userSpaceOnUse" id="decoration84-gradient13" spreadMethod="pad" x1="-819.2" x2="819.2">
      <stop offset="0.37254901960784315" stop-color="#7e7e05" stop-opacity="0.84705883"/>
      <stop offset="1.0" stop-color="#6b6b1d" stop-opacity="0.0"/>
    </linearGradient>
  </defs>
</svg>
