<?xml version="1.0" encoding="UTF-8" standalone="no"?>
<svg xmlns:xlink="http://www.w3.org/1999/xlink" height="75.0px" width="94.95px" xmlns="http://www.w3.org/2000/svg">
  <g transform="matrix(1.0, 0.0, 0.0, 1.0, 43.45, 73.9)">
    <use data-characterId="563" height="75.0" id="decoration86-Couleur0_BB5631" filter="url(#decoration86-filter0)" transform="matrix(1.0, 0.0, 0.0, 1.0, -43.45, -73.9)" width="94.95" xlink:href="#decoration86-sprite0"/>
  </g>
  <defs>
    <g id="decoration86-sprite0" transform="matrix(1.0, 0.0, 0.0, 1.0, 0.15, 0.15)">
      <use data-characterId="562" height="75.0" transform="matrix(1.0, 0.0, 0.0, 1.0, -0.15, -0.15)" width="94.95" xlink:href="#decoration86-shape0"/>
    </g>
    <g id="decoration86-shape0" transform="matrix(1.0, 0.0, 0.0, 1.0, 0.15, 0.15)">
      <path d="M71.45 32.9 L71.7 34.05 71.4 33.4 71.45 32.9 M61.95 28.1 L62.05 27.15 62.25 26.8 61.95 28.1 M82.4 37.05 L81.95 36.8 81.75 36.2 82.4 37.05" fill="#933918" fill-rule="evenodd" stroke="none"/>
      <path d="M40.7 74.7 L39.3 72.25 38.15 69.85 40.7 74.7 M20.95 32.8 L20.15 31.55 19.75 30.65 20.95 32.8" fill="#bb5631" fill-rule="evenodd" stroke="none"/>
      <path d="M83.4 14.35 L82.35 17.1 80.85 21.55 Q80.7 22.15 80.7 22.8 81.05 23.5 82.05 23.75 L83.65 23.5 84.85 21.55 85.75 20.45 84.8 23.0 83.7 25.35 Q83.0 26.7 82.45 28.15 82.1 29.15 82.1 30.2 82.15 31.5 83.5 31.65 84.05 31.65 84.5 31.15 L87.05 28.45 86.35 29.65 84.6 31.65 Q82.5 33.55 81.75 36.05 L81.7 36.1 81.75 36.2 81.95 36.8 82.4 37.05 83.95 38.45 87.05 35.15 87.75 35.05 85.35 39.95 84.4 39.95 Q83.35 39.95 82.55 39.0 L81.5 37.85 80.5 37.25 80.0 37.5 Q79.35 37.95 79.05 38.8 L77.2 44.1 76.45 45.35 75.35 46.4 Q74.2 47.25 72.9 47.2 L69.6 46.85 66.35 46.6 Q61.7 47.35 59.7 51.35 L58.25 53.75 56.55 55.8 54.1 58.1 Q52.9 59.25 51.85 60.55 L48.75 64.85 49.25 65.7 50.6 65.55 58.5 65.25 Q60.8 62.95 62.55 60.25 L63.4 59.45 Q65.0 58.25 66.7 57.25 66.85 55.8 66.5 54.3 66.25 53.05 66.45 51.85 66.6 51.0 67.1 50.25 67.6 49.4 68.8 49.2 L69.65 49.7 70.25 50.3 67.95 51.55 68.1 53.9 Q68.95 53.35 70.0 53.1 L71.55 53.0 77.2 53.35 79.3 50.75 80.1 49.15 81.0 46.45 81.6 46.15 82.3 47.15 Q81.85 49.9 80.45 52.3 L79.4 53.8 81.05 54.65 81.85 55.0 82.7 55.15 85.1 52.15 Q86.2 50.7 87.7 49.7 88.3 49.3 89.05 49.05 L90.35 49.05 90.5 50.15 86.75 53.1 88.05 54.65 91.35 55.05 91.65 55.2 91.6 55.3 91.35 55.8 89.35 55.5 87.35 54.4 Q86.25 53.65 85.05 54.15 83.7 54.8 83.0 56.0 L81.95 55.75 Q80.75 55.5 79.75 54.8 77.8 53.5 75.35 53.5 L71.35 54.05 Q70.45 54.1 69.75 54.6 L68.45 55.75 66.35 58.15 65.7 59.35 66.45 59.95 Q66.9 60.75 68.5 61.5 L70.35 62.4 70.85 62.6 Q73.5 61.35 75.85 59.9 L76.4 59.8 76.3 60.35 75.3 62.0 73.8 63.4 75.35 64.5 81.1 63.75 81.45 64.35 75.85 64.95 74.8 65.1 73.15 63.85 71.3 62.85 69.5 63.65 Q67.65 63.45 66.5 62.15 65.1 60.55 63.3 61.4 62.7 61.65 62.3 62.15 L60.55 64.1 58.45 65.6 Q55.75 66.6 52.95 66.3 51.55 66.35 50.55 67.45 L49.4 69.2 48.0 71.6 46.95 72.5 45.4 73.0 44.8 71.9 44.2 70.35 42.85 66.65 40.65 61.45 38.25 57.2 36.8 55.15 36.35 55.4 34.35 54.65 30.75 52.7 31.0 52.05 32.6 52.15 33.6 53.25 35.85 52.95 Q37.05 53.7 37.85 54.85 39.6 57.4 40.65 60.35 L42.55 65.35 Q43.05 62.3 42.4 59.3 L43.65 59.7 43.7 59.6 43.45 57.7 Q43.25 56.3 42.3 55.25 L38.45 50.7 36.6 48.5 35.5 47.8 31.85 47.35 29.6 47.3 28.35 47.85 28.2 47.8 28.15 47.95 Q26.45 48.9 25.4 50.6 23.65 50.6 22.2 49.8 21.05 49.2 20.05 50.1 L20.6 48.6 Q22.9 47.9 24.85 49.1 L25.95 48.75 26.3 47.7 Q23.8 46.55 22.5 44.5 L22.15 43.6 22.75 43.2 Q25.15 44.6 27.95 45.25 L30.95 45.7 Q33.6 45.65 36.15 46.85 37.2 47.35 37.65 48.4 L39.0 50.55 42.1 53.9 42.0 53.0 42.4 52.75 Q42.75 52.1 42.6 51.3 L41.4 46.15 Q39.5 44.3 36.7 43.15 L31.35 40.7 Q28.85 39.45 26.1 39.2 L22.45 39.75 Q21.55 39.95 20.75 40.5 L17.9 42.3 Q15.45 43.95 12.55 43.7 L12.55 43.1 Q14.5 42.3 16.85 41.85 L18.7 41.35 19.4 39.9 18.2 39.15 18.0 38.25 17.3 37.95 15.05 38.25 Q13.65 38.25 12.4 37.65 L8.35 35.2 5.3 32.9 Q5.85 31.7 7.15 32.45 L8.45 33.2 11.25 35.55 13.3 36.85 Q15.2 37.7 17.15 37.3 L16.6 35.75 Q17.55 35.1 17.15 33.95 L15.65 30.2 Q14.95 28.65 13.2 28.3 L7.75 27.3 6.4 26.9 5.05 26.45 1.3 20.05 Q3.6 20.7 4.35 23.0 L5.6 26.55 9.15 26.2 Q8.2 23.4 8.15 20.45 L8.55 20.3 9.65 20.65 Q9.75 22.25 10.45 23.95 10.8 24.9 11.55 25.55 12.3 26.2 13.25 26.6 L14.15 26.9 14.5 27.3 15.5 27.4 Q17.05 26.55 16.1 24.95 L14.7 22.7 Q13.65 21.0 13.3 19.1 L13.15 18.1 13.15 18.05 14.65 17.5 Q15.55 19.05 15.7 20.75 15.75 21.65 16.15 22.5 L17.1 24.55 17.75 25.85 Q16.4 31.75 19.7 36.95 20.05 37.55 20.85 37.75 L23.25 38.45 24.55 38.35 24.7 38.35 25.05 38.25 25.05 38.2 25.5 38.0 Q25.8 37.1 25.3 36.3 L24.0 34.3 21.0 29.5 Q22.95 31.45 24.65 33.95 L27.65 38.05 32.7 39.45 32.15 34.95 32.35 34.2 Q32.05 30.55 30.7 26.95 30.3 25.95 29.5 25.35 L26.9 23.45 Q25.6 22.4 25.45 21.05 L25.05 19.95 24.25 19.15 21.95 18.6 20.6 16.8 17.75 12.15 15.5 8.6 16.1 8.3 Q19.15 11.1 20.55 14.8 L21.15 16.3 21.55 17.1 24.55 17.0 Q23.6 14.35 23.6 11.5 L24.2 11.7 25.1 13.0 26.15 11.7 25.2 5.15 25.95 4.65 26.95 4.9 27.5 8.7 27.4 10.8 27.05 11.9 Q26.1 13.35 25.3 15.05 L26.65 18.6 26.75 23.15 27.35 23.35 Q28.1 23.3 28.8 22.8 L29.7 19.95 30.1 19.75 Q30.65 21.5 30.85 23.45 31.05 25.15 31.55 26.85 L32.15 28.4 Q33.15 27.1 33.25 25.5 33.4 23.4 33.2 21.35 L32.7 17.05 Q32.6 15.9 32.85 14.85 32.95 14.3 33.35 13.95 L33.9 13.55 34.25 14.85 Q35.35 20.3 35.3 25.65 34.7 27.7 32.95 29.2 L33.05 31.1 35.3 41.3 Q36.3 41.7 37.3 42.25 L40.9 44.4 42.55 45.75 44.55 38.7 44.55 38.2 44.9 38.15 Q43.75 36.6 42.1 35.95 40.05 35.2 38.65 33.55 38.95 30.8 38.05 28.0 L38.05 27.2 38.65 27.0 Q40.05 27.95 40.35 29.75 L40.8 33.15 Q40.95 34.3 41.9 35.15 L44.75 36.05 42.4 27.05 Q41.55 24.1 41.8 21.2 41.95 19.45 42.45 17.75 L43.15 14.9 43.9 12.6 43.7 12.2 42.6 11.8 41.1 11.8 40.2 11.15 Q38.85 10.05 38.0 8.45 L36.75 3.1 37.1 2.5 38.05 2.5 39.35 6.1 40.35 9.65 41.95 11.2 42.7 11.1 41.55 6.45 41.6 6.15 42.55 5.7 43.6 8.4 44.9 13.4 45.4 15.75 45.9 12.65 45.95 8.55 Q45.9 7.5 46.8 6.9 L47.3 6.6 49.15 12.15 Q49.8 11.3 49.9 10.0 L50.2 3.9 51.2 2.95 50.95 8.5 50.55 11.6 Q50.3 12.8 49.25 13.5 L47.75 13.05 Q46.6 14.0 46.2 15.45 45.85 16.7 45.05 17.55 L43.6 19.35 Q43.35 19.8 43.4 20.3 43.8 22.95 44.6 25.6 L45.6 27.95 46.55 35.0 45.95 37.55 44.75 41.95 Q44.3 43.45 44.0 45.0 43.7 46.5 43.8 48.05 44.5 57.85 44.55 67.55 L45.4 67.95 46.15 67.55 46.35 67.3 46.6 65.2 47.35 62.25 48.2 57.05 48.9 51.4 49.75 45.8 Q50.25 43.05 52.0 40.65 52.75 39.6 53.9 38.8 55.95 37.45 57.6 35.4 58.5 34.25 58.75 32.8 L59.0 32.55 59.2 32.45 59.3 32.2 59.35 31.95 Q59.05 31.6 58.75 31.5 L55.95 31.25 55.55 29.05 54.75 26.95 54.75 26.9 53.6 25.6 Q51.25 23.8 50.85 20.75 51.7 18.7 51.95 16.5 L52.1 15.45 52.75 14.85 53.2 15.3 53.65 16.6 53.75 18.1 54.3 18.05 54.65 15.9 54.7 15.1 56.35 13.8 56.15 15.25 Q55.7 18.25 53.15 20.15 L53.3 20.8 52.05 22.9 55.9 24.7 56.55 23.35 57.2 21.3 57.7 18.7 57.85 18.35 58.15 18.0 58.9 17.95 58.95 18.15 59.2 19.45 Q59.5 20.95 58.95 22.4 L57.8 25.4 56.35 29.95 59.7 29.4 60.3 27.95 Q61.25 26.0 62.5 24.25 64.05 22.15 65.75 20.2 L65.25 20.2 65.35 19.75 Q65.15 19.05 64.6 18.85 L63.25 18.65 62.15 18.6 61.55 15.5 61.1 14.3 58.6 10.95 57.6 9.6 Q56.65 7.8 56.0 5.85 L55.1 2.95 56.95 0.75 Q57.05 0.65 57.25 0.65 L57.55 0.8 57.85 1.15 56.95 3.9 58.05 8.0 59.35 7.7 59.65 6.2 Q59.95 4.95 61.05 4.5 61.2 4.35 61.4 4.35 L63.55 6.6 63.75 6.6 64.2 5.45 Q64.15 4.4 64.4 3.4 64.65 2.4 65.05 1.5 L65.65 0.6 66.4 0.0 65.75 2.9 65.3 6.05 Q65.15 6.8 64.45 7.2 L62.95 7.35 62.25 6.5 60.95 6.6 60.65 9.6 59.95 11.65 Q61.75 12.7 62.7 14.55 L62.85 15.5 62.55 18.1 66.15 18.25 67.65 10.15 68.65 9.45 69.25 9.5 69.95 10.35 69.2 13.6 71.5 14.45 Q72.3 13.0 72.3 11.2 72.35 9.2 72.95 7.25 L74.05 4.55 74.45 4.05 74.0 5.4 Q73.45 7.5 73.25 9.65 73.2 10.3 73.45 11.0 L73.75 11.15 Q74.45 11.25 74.6 10.65 L76.35 11.2 Q77.4 8.85 77.8 6.25 78.1 4.3 80.0 3.8 79.5 7.75 78.0 11.15 L74.2 11.55 73.5 12.25 Q73.2 12.6 73.15 13.05 73.1 14.0 73.4 14.85 L73.7 14.9 73.85 15.55 76.9 15.15 77.6 16.1 76.3 16.4 73.7 15.9 67.75 14.5 67.4 14.85 66.75 20.05 66.4 20.85 63.45 24.75 62.85 25.6 62.35 26.1 62.25 26.8 62.05 27.15 61.95 28.1 61.25 32.35 Q61.05 33.4 60.15 34.35 L60.8 34.4 62.95 34.85 63.6 34.6 Q63.55 32.75 64.05 31.15 64.85 28.55 66.25 26.25 L67.65 24.35 67.85 24.3 67.95 24.4 Q67.85 26.45 66.6 28.2 L68.75 30.2 68.65 30.8 68.25 30.7 65.7 29.6 64.65 30.25 65.3 31.35 65.25 31.8 63.85 34.9 Q63.55 35.75 62.65 36.0 61.1 36.05 59.55 35.4 58.25 36.3 57.05 37.4 55.25 38.95 53.8 40.8 52.8 42.0 52.2 43.45 51.4 45.35 51.05 47.35 50.15 52.7 50.1 58.15 L50.2 58.7 50.65 59.0 51.45 58.95 52.2 57.15 57.55 52.9 57.8 49.9 60.35 48.05 62.8 46.15 64.1 44.95 65.25 43.6 64.55 43.6 63.85 43.4 63.3 43.05 62.65 42.65 62.9 40.85 Q63.1 39.95 63.45 39.2 L63.75 38.7 64.5 38.15 64.95 38.05 65.05 38.3 65.15 38.7 65.1 40.0 64.45 41.05 66.75 41.95 67.2 41.0 67.5 40.05 67.9 37.9 68.55 35.85 Q68.95 35.0 69.65 34.75 L68.45 42.05 65.9 45.2 66.3 46.1 66.75 46.2 67.95 45.75 73.75 46.55 75.45 44.9 75.85 44.4 76.25 43.85 75.95 43.6 Q73.25 42.1 71.55 39.7 L73.3 36.6 72.7 35.8 71.7 34.05 71.45 32.9 Q72.9 30.55 74.8 28.6 L74.95 28.65 74.0 30.25 73.25 32.0 Q72.45 34.1 74.0 35.75 L75.4 35.3 75.3 34.35 77.85 31.45 Q78.25 32.65 77.5 33.85 L75.05 37.75 Q74.05 39.25 73.2 40.85 L73.25 40.95 77.2 42.05 78.4 36.45 80.9 34.25 Q81.65 33.55 81.85 32.5 L81.45 31.1 Q81.25 29.75 81.55 28.55 82.0 26.85 82.75 25.25 81.0 24.75 80.15 23.15 79.85 22.65 79.9 22.1 80.05 20.65 80.6 19.3 81.65 16.75 82.95 14.35 L83.4 14.35 M87.4 40.1 L88.6 40.1 Q89.9 37.35 92.15 35.35 L94.1 33.9 91.05 38.75 89.3 40.8 87.75 40.9 87.2 40.55 87.4 40.1 M10.85 59.2 L10.85 58.75 12.95 57.7 13.3 55.15 12.0 55.15 11.6 56.35 4.35 59.6 4.15 58.45 Q4.15 58.1 4.3 57.8 L4.5 57.55 Q6.2 56.7 7.6 56.25 8.65 56.05 9.5 55.4 L10.35 54.75 9.5 53.95 Q9.25 52.9 7.9 53.0 L4.1 53.3 0.0 53.6 Q0.5 52.9 1.5 52.75 L5.5 52.2 8.8 52.0 3.8 46.55 2.9 45.3 3.35 45.0 4.85 45.55 6.05 46.45 8.5 48.9 10.75 51.45 11.25 52.25 11.5 53.05 14.4 52.9 12.7 51.55 11.05 49.85 10.9 49.4 11.1 48.65 Q12.15 48.6 13.1 49.35 L14.95 51.0 15.95 52.4 16.7 53.3 Q18.7 55.2 20.85 57.0 L26.6 54.2 Q28.3 54.5 29.7 55.2 30.85 55.9 32.1 56.4 L33.35 56.7 34.6 57.1 36.35 58.65 Q37.65 60.25 38.65 62.15 40.3 65.15 41.55 68.2 L42.0 69.3 43.15 73.0 42.65 73.0 40.7 69.75 38.75 66.5 36.85 62.8 Q36.35 61.65 35.65 60.65 34.9 59.55 33.7 58.9 L29.3 56.95 26.75 56.35 24.25 57.1 21.65 57.6 Q20.45 57.4 19.45 56.9 17.95 56.3 16.55 55.5 L14.8 55.4 13.05 58.95 10.85 59.2 M69.7 28.1 Q70.1 25.6 71.05 23.15 L71.55 22.05 72.4 22.7 72.2 25.65 73.2 26.15 73.55 25.85 73.65 25.5 Q73.85 24.55 74.2 23.7 L75.05 22.1 Q74.6 24.8 72.9 26.95 L71.95 26.85 Q70.5 26.95 69.7 28.1" fill="#808080" fill-rule="evenodd" stroke="none"/>
      <path d="M83.65 23.5 L82.05 23.75 Q81.05 23.5 80.7 22.8 80.7 22.15 80.85 21.55 L82.35 17.1 83.4 14.35 83.55 14.35 84.2 14.7 81.55 22.25 83.65 23.5 M75.3 34.35 L75.4 35.3 74.0 35.75 Q72.45 34.1 73.25 32.0 L74.0 30.25 74.95 28.65 Q74.9 30.45 73.95 32.1 L73.1 33.65 74.75 35.05 75.3 34.35 M71.55 39.7 Q73.25 42.1 75.95 43.6 L76.25 43.85 75.85 44.4 Q73.85 44.0 72.3 42.75 71.6 42.1 71.55 41.15 L71.55 39.7 M67.95 45.75 L66.75 46.2 66.3 46.1 65.9 45.2 68.45 42.05 69.65 34.75 70.7 35.15 69.9 40.3 69.7 41.35 Q69.5 42.3 68.65 43.2 L66.2 45.65 67.75 45.75 67.95 45.75 M52.2 57.15 L51.45 58.95 50.65 59.0 50.2 58.7 50.1 58.15 Q50.15 52.7 51.05 47.35 51.4 45.35 52.2 43.45 52.8 42.0 53.8 40.8 55.25 38.95 57.05 37.4 58.25 36.3 59.55 35.4 61.1 36.05 62.65 36.0 63.55 35.75 63.85 34.9 L65.25 31.8 64.45 36.9 64.05 37.1 62.15 37.4 59.4 36.55 58.35 38.4 Q57.35 40.1 55.7 41.45 L54.7 42.25 Q53.65 44.1 53.05 46.1 52.3 48.65 52.0 51.4 L51.6 55.65 51.45 57.75 52.2 57.15 M65.3 31.35 L64.65 30.25 65.7 29.6 68.25 30.7 68.65 30.8 68.75 30.2 69.7 28.1 Q70.5 26.95 71.95 26.85 L72.9 26.95 Q74.6 24.8 75.05 22.1 L75.95 21.65 76.65 22.6 Q76.55 25.1 75.2 27.1 L75.0 27.5 73.5 27.95 72.2 28.2 71.5 27.9 Q71.1 30.3 69.7 32.0 L69.1 32.5 Q67.9 33.1 66.9 32.2 L65.9 31.25 65.4 30.35 65.3 31.35 M62.85 25.6 L63.45 24.75 66.4 20.85 66.75 20.05 67.4 14.85 67.75 14.5 73.7 15.9 76.3 16.4 77.6 16.1 Q77.5 17.05 76.7 17.75 L76.25 18.2 Q73.95 18.1 71.9 16.8 L71.0 16.45 Q69.5 16.3 68.15 15.75 L68.15 19.5 Q68.15 20.45 67.55 21.05 L64.7 23.9 62.85 25.6 M73.7 14.9 L73.4 14.85 Q73.1 14.0 73.15 13.05 73.2 12.6 73.5 12.25 L74.2 11.55 78.0 11.15 Q79.5 7.75 80.0 3.8 L80.7 5.6 77.75 13.1 74.35 13.0 73.7 14.9 M74.6 10.65 Q74.45 11.25 73.75 11.15 L73.45 11.0 Q73.2 10.3 73.25 9.65 73.45 7.5 74.0 5.4 L74.45 4.05 75.2 5.1 Q75.05 7.9 73.8 10.45 L74.6 10.65 M60.65 9.6 L60.95 6.6 62.25 6.5 62.95 7.35 64.45 7.2 Q65.15 6.8 65.3 6.05 L65.75 2.9 66.4 0.0 Q67.0 0.55 66.95 1.5 L66.7 2.9 65.75 6.2 65.05 8.5 63.6 9.05 61.15 8.0 60.65 9.6 M55.1 2.95 L56.0 5.85 Q56.65 7.8 57.6 9.6 L58.6 10.95 61.1 14.3 61.55 15.5 62.15 18.6 63.25 18.65 64.6 18.85 Q65.15 19.05 65.35 19.75 L65.25 20.2 63.2 20.1 61.35 19.9 61.0 19.55 61.05 14.7 Q59.9 14.0 58.95 12.7 L57.2 10.0 56.6 9.85 56.15 9.35 Q56.25 7.0 55.4 4.6 55.1 3.85 55.1 2.95 M53.3 20.8 L53.15 20.15 Q55.7 18.25 56.15 15.25 L56.35 13.8 57.2 14.05 Q57.1 17.2 55.35 19.75 55.05 20.1 54.55 20.15 L53.85 20.35 53.3 20.8 M50.85 20.75 Q51.25 23.8 53.6 25.6 L54.75 26.9 Q52.7 26.15 51.2 24.4 L50.55 23.15 Q50.15 21.9 50.85 20.75 M54.75 26.95 L55.55 29.05 55.95 31.25 58.75 31.5 Q59.05 31.6 59.35 31.95 L59.3 32.2 59.2 32.45 59.0 32.55 58.75 32.8 58.9 32.05 Q56.9 32.0 54.95 31.25 L54.75 26.95 M46.6 65.2 L46.35 67.3 46.15 67.55 45.4 67.95 44.55 67.55 Q44.5 57.85 43.8 48.05 43.7 46.5 44.0 45.0 44.3 43.45 44.75 41.95 L45.95 37.55 46.55 35.0 Q46.8 37.95 46.05 40.9 45.3 43.7 44.95 46.55 44.65 48.85 44.85 51.1 L45.45 56.65 45.9 59.7 46.2 62.75 46.4 65.75 46.6 65.2 M45.6 27.95 L44.6 25.6 Q43.8 22.95 43.4 20.3 43.35 19.8 43.6 19.35 L45.05 17.55 Q45.85 16.7 46.2 15.45 46.6 14.0 47.75 13.05 L49.25 13.5 Q50.3 12.8 50.55 11.6 L50.95 8.5 51.2 2.95 51.35 2.95 52.15 3.65 52.1 5.3 52.05 8.75 Q52.05 10.95 51.1 12.9 50.65 13.8 49.55 14.3 L48.75 14.4 48.25 14.35 48.05 15.65 47.35 17.1 44.4 20.3 45.6 27.95 M38.0 8.45 Q38.85 10.05 40.2 11.15 L41.1 11.8 42.6 11.8 43.7 12.2 43.9 12.6 43.15 14.9 42.65 13.35 Q40.9 12.95 39.5 12.15 L38.65 11.7 38.0 8.45 M38.65 33.55 Q40.05 35.2 42.1 35.95 43.75 36.6 44.9 38.15 L44.55 38.2 44.15 37.9 40.1 35.75 39.25 34.85 38.65 33.55 M33.05 31.1 L32.95 29.2 Q34.7 27.7 35.3 25.65 35.1 28.4 33.55 30.5 L33.05 31.1 M26.65 18.6 L25.3 15.05 Q26.1 13.35 27.05 11.9 L27.4 10.8 27.5 8.7 Q28.65 11.45 27.5 14.25 L26.9 16.2 Q26.65 17.35 26.65 18.6 M15.5 8.6 L17.75 12.15 20.6 16.8 21.95 18.6 24.25 19.15 25.05 19.95 25.45 21.05 Q25.6 22.4 26.9 23.45 L29.5 25.35 Q30.3 25.95 30.7 26.95 32.05 30.55 32.35 34.2 L32.15 34.95 29.2 26.0 27.5 25.8 Q26.05 25.55 25.65 24.15 L24.5 19.65 23.5 19.75 20.4 19.2 19.4 17.35 16.2 10.7 Q15.7 9.7 15.5 8.6 M21.0 29.5 L24.0 34.3 25.3 36.3 Q25.8 37.1 25.5 38.0 L25.05 38.2 20.95 32.8 19.75 30.65 19.75 30.55 19.95 29.7 21.0 29.5 M13.3 19.1 Q13.65 21.0 14.7 22.7 L16.1 24.95 Q17.05 26.55 15.5 27.4 L14.5 27.3 14.15 26.9 15.25 27.2 16.1 26.4 Q14.3 24.6 13.8 22.0 L13.3 19.1 M1.3 20.05 L5.05 26.45 6.4 26.9 7.75 27.3 13.2 28.3 Q14.95 28.65 15.65 30.2 L17.15 33.95 Q17.55 35.1 16.6 35.75 L15.8 32.55 Q15.65 31.3 14.8 30.4 12.75 28.2 9.6 28.45 L5.65 28.25 Q4.85 28.15 4.35 27.55 3.4 26.4 2.75 25.05 L1.1 21.15 0.8 19.95 1.3 20.05 M5.3 32.9 L8.35 35.2 12.4 37.65 Q13.65 38.25 15.05 38.25 L17.3 37.95 18.0 38.25 18.2 39.15 Q15.65 39.85 13.1 39.05 11.8 38.75 10.8 37.75 8.7 35.5 6.05 34.2 5.4 33.9 5.3 32.9 M12.55 43.7 Q15.45 43.95 17.9 42.3 L20.75 40.5 Q21.55 39.95 22.45 39.75 L26.1 39.2 Q28.85 39.45 31.35 40.7 L36.7 43.15 Q39.5 44.3 41.4 46.15 L42.6 51.3 Q42.75 52.1 42.4 52.75 L42.0 53.0 40.85 46.8 38.8 45.7 33.5 42.75 31.85 41.9 Q30.35 41.2 28.85 40.65 L26.2 40.15 21.45 40.45 21.05 41.3 19.85 42.55 19.05 43.05 16.65 43.8 14.0 44.3 13.15 44.25 12.55 43.7 M20.05 50.1 Q21.05 49.2 22.2 49.8 23.65 50.6 25.4 50.6 26.45 48.9 28.15 47.95 L26.85 51.1 21.45 50.85 20.3 50.6 20.05 50.1 M28.35 47.85 L29.6 47.3 31.85 47.35 35.5 47.8 36.6 48.5 38.45 50.7 42.3 55.25 Q43.25 56.3 43.45 57.7 L43.7 59.6 43.65 59.7 42.4 59.3 Q41.95 56.6 40.05 54.75 38.4 53.25 37.25 51.25 L36.1 49.65 Q35.7 49.2 35.15 49.1 L31.35 48.2 28.35 47.85 M30.75 52.7 L34.35 54.65 36.35 55.4 36.8 55.15 38.25 57.2 40.65 61.45 42.85 66.65 44.2 70.35 44.8 71.9 45.4 73.0 46.95 72.5 48.0 71.6 49.4 69.2 50.55 67.45 Q51.55 66.35 52.95 66.3 55.75 66.6 58.45 65.6 L60.55 64.1 62.3 62.15 Q62.7 61.65 63.3 61.4 65.1 60.55 66.5 62.15 67.65 63.45 69.5 63.65 L71.3 62.85 73.15 63.85 74.8 65.1 75.85 64.95 81.45 64.35 81.45 65.15 79.65 65.8 74.95 65.9 Q74.1 65.85 73.5 65.4 L72.3 64.35 68.95 64.65 Q66.85 64.05 65.8 62.0 L62.55 63.4 Q61.2 65.75 59.35 67.0 58.75 67.45 58.0 67.7 L51.4 66.95 48.55 74.7 40.7 74.7 38.15 69.85 33.65 59.35 31.9 59.05 Q29.6 59.35 28.0 57.6 L19.3 58.55 18.45 57.75 Q17.0 56.55 15.2 55.9 L14.9 58.9 13.6 59.8 Q12.75 60.45 11.7 60.2 L11.05 59.9 10.85 59.2 13.05 58.95 14.8 55.4 16.55 55.5 Q17.95 56.3 19.45 56.9 20.45 57.4 21.65 57.6 L24.25 57.1 26.75 56.35 29.3 56.95 33.7 58.9 Q34.9 59.55 35.65 60.65 36.35 61.65 36.85 62.8 L38.75 66.5 40.7 69.75 42.65 73.0 43.15 73.0 42.0 69.3 41.55 68.2 39.85 63.8 38.7 60.55 Q38.0 58.1 36.3 56.35 L36.2 56.25 35.3 55.9 32.5 55.0 Q31.8 54.7 31.4 54.1 L30.75 52.7 M66.45 59.95 L65.7 59.35 66.35 58.15 68.45 55.75 69.75 54.6 Q70.45 54.1 71.35 54.05 L75.35 53.5 Q77.8 53.5 79.75 54.8 80.75 55.5 81.95 55.75 L83.0 56.0 Q83.7 54.8 85.05 54.15 86.25 53.65 87.35 54.4 L89.35 55.5 91.35 55.8 Q90.3 57.05 88.75 56.6 L87.45 56.05 85.6 54.65 Q85.25 55.9 84.3 56.8 L84.0 57.05 82.2 57.4 79.7 56.6 Q78.55 56.15 77.55 55.45 L69.3 55.9 Q68.5 58.4 66.45 59.95 M50.6 65.55 L49.25 65.7 48.75 64.85 51.85 60.55 Q52.9 59.25 54.1 58.1 L56.55 55.8 58.25 53.75 59.7 51.35 Q61.7 47.35 66.35 46.6 L69.6 46.85 72.9 47.2 Q74.2 47.25 75.35 46.4 L76.45 45.35 77.2 44.1 79.05 38.8 Q79.35 37.95 80.0 37.5 L80.5 37.25 81.5 37.85 82.55 39.0 Q83.35 39.95 84.4 39.95 L85.35 39.95 87.75 35.05 87.25 37.45 86.4 39.6 86.4 40.1 87.4 40.1 87.2 40.55 87.75 40.9 89.3 40.8 91.05 38.75 94.1 33.9 94.2 33.85 94.65 35.4 Q92.9 38.0 90.45 40.5 L88.85 42.0 85.8 41.5 83.85 40.85 82.6 40.85 Q81.35 40.5 80.7 39.3 L80.15 38.1 Q79.6 40.9 78.65 43.25 L77.45 45.75 Q76.75 47.15 75.3 47.55 L71.85 48.1 68.7 48.15 Q66.95 48.2 65.4 48.85 63.05 49.55 61.0 50.95 60.1 51.6 59.65 52.85 L58.6 56.15 55.0 58.5 Q53.95 59.1 53.25 60.1 52.6 61.0 52.2 62.15 L51.5 63.85 50.6 65.55 M81.75 36.05 Q82.5 33.55 84.6 31.65 L86.35 29.65 87.05 28.45 87.35 28.85 Q87.2 30.8 86.05 32.2 84.15 34.35 81.75 36.05 M84.5 31.15 Q84.05 31.65 83.5 31.65 82.15 31.5 82.1 30.2 82.1 29.15 82.45 28.15 83.0 26.7 83.7 25.35 L84.8 23.0 85.75 20.45 Q86.25 21.25 86.0 22.25 85.35 25.0 83.85 27.75 L82.75 30.0 83.15 31.05 84.5 31.15 M9.5 53.95 L0.55 54.5 0.0 53.65 0.0 53.6 4.1 53.3 7.9 53.0 Q9.25 52.9 9.5 53.95" fill="#564f4f" fill-rule="evenodd" stroke="none"/>
      <path d="M83.65 23.5 L81.55 22.25 84.2 14.7 83.55 14.35 M83.4 14.35 L82.95 14.35 Q81.65 16.75 80.6 19.3 80.05 20.65 79.9 22.1 79.85 22.65 80.15 23.15 81.0 24.75 82.75 25.25 82.0 26.85 81.55 28.55 81.25 29.75 81.45 31.1 L81.85 32.5 Q81.65 33.55 80.9 34.25 L78.4 36.45 77.2 42.05 73.25 40.95 73.2 40.85 Q74.05 39.25 75.05 37.75 L77.5 33.85 Q78.25 32.65 77.85 31.45 L75.3 34.35 74.75 35.05 73.1 33.65 73.95 32.1 Q74.9 30.45 74.95 28.65 L74.8 28.6 Q72.9 30.55 71.45 32.9 L71.4 33.4 71.7 34.05 72.7 35.8 73.3 36.6 71.55 39.7 71.55 41.15 Q71.6 42.1 72.3 42.75 73.85 44.0 75.85 44.4 L75.45 44.9 73.75 46.55 67.95 45.75 M69.65 34.75 Q68.95 35.0 68.55 35.85 L67.9 37.9 67.5 40.05 67.2 41.0 66.75 41.95 64.45 41.05 65.1 40.0 65.15 38.7 65.05 38.3 64.95 38.05 64.5 38.15 63.75 38.7 63.45 39.2 Q63.1 39.95 62.9 40.85 L62.65 42.65 63.3 43.05 63.85 43.4 64.55 43.6 65.25 43.6 64.1 44.95 62.8 46.15 60.35 48.05 57.8 49.9 57.55 52.9 52.2 57.15 51.45 57.75 51.6 55.65 52.0 51.4 Q52.3 48.65 53.05 46.1 53.65 44.1 54.7 42.25 L55.7 41.45 Q57.35 40.1 58.35 38.4 L59.4 36.55 62.15 37.4 64.05 37.1 64.45 36.9 65.25 31.8 65.3 31.35 65.4 30.35 65.9 31.25 M68.75 30.2 L66.6 28.2 Q67.85 26.45 67.95 24.4 L67.85 24.3 67.65 24.35 66.25 26.25 Q64.85 28.55 64.05 31.15 63.55 32.75 63.6 34.6 L62.95 34.85 60.8 34.4 60.15 34.35 Q61.05 33.4 61.25 32.35 L61.95 28.1 62.25 26.8 62.35 26.1 62.85 25.6 64.7 23.9 67.55 21.05 Q68.15 20.45 68.15 19.5 L68.15 15.75 Q69.5 16.3 71.0 16.45 L71.9 16.8 Q73.95 18.1 76.25 18.2 L76.7 17.75 Q77.5 17.05 77.6 16.1 L76.9 15.15 73.85 15.55 73.7 14.9 74.35 13.0 77.75 13.1 80.7 5.6 80.0 3.8 Q78.1 4.3 77.8 6.25 77.4 8.85 76.35 11.2 L74.6 10.65 73.8 10.45 Q75.05 7.9 75.2 5.1 L74.45 4.05 74.05 4.55 72.95 7.25 Q72.35 9.2 72.3 11.2 72.3 13.0 71.5 14.45 L69.2 13.6 69.95 10.35 69.25 9.5 68.65 9.45 67.65 10.15 66.15 18.25 62.55 18.1 62.85 15.5 62.7 14.55 Q61.75 12.7 59.95 11.65 L60.65 9.6 61.15 8.0 63.6 9.05 65.05 8.5 65.75 6.2 66.7 2.9 66.95 1.5 Q67.0 0.55 66.4 0.0 L65.65 0.6 65.05 1.5 Q64.65 2.4 64.4 3.4 64.15 4.4 64.2 5.45 L63.75 6.6 63.55 6.6 61.4 4.35 Q61.2 4.35 61.05 4.5 59.95 4.95 59.65 6.2 L59.35 7.7 58.05 8.0 56.95 3.9 57.85 1.15 57.55 0.8 57.25 0.65 Q57.05 0.65 56.95 0.75 L55.1 2.95 Q55.1 3.85 55.4 4.6 56.25 7.0 56.15 9.35 L56.6 9.85 57.2 10.0 58.95 12.7 Q59.9 14.0 61.05 14.7 L61.0 19.55 61.35 19.9 63.2 20.1 M65.25 20.2 L65.75 20.2 Q64.05 22.15 62.5 24.25 61.25 26.0 60.3 27.95 L59.7 29.4 56.35 29.95 57.8 25.4 58.95 22.4 Q59.5 20.95 59.2 19.45 L58.95 18.15 58.9 17.95 58.15 18.0 57.85 18.35 57.7 18.7 57.2 21.3 56.55 23.35 55.9 24.7 52.05 22.9 53.3 20.8 53.85 20.35 54.55 20.15 Q55.05 20.1 55.35 19.75 57.1 17.2 57.2 14.05 L56.35 13.8 54.7 15.1 54.65 15.9 54.3 18.05 53.75 18.1 53.65 16.6 53.2 15.3 52.75 14.85 52.1 15.45 51.95 16.5 Q51.7 18.7 50.85 20.75 50.15 21.9 50.55 23.15 L51.2 24.4 Q52.7 26.15 54.75 26.9 L54.75 26.95 54.95 31.25 Q56.9 32.0 58.9 32.05 L58.75 32.8 Q58.5 34.25 57.6 35.4 55.95 37.45 53.9 38.8 52.75 39.6 52.0 40.65 50.25 43.05 49.75 45.8 L48.9 51.4 48.2 57.05 47.35 62.25 46.6 65.2 46.4 65.75 46.2 62.75 45.9 59.7 45.45 56.65 44.85 51.1 Q44.65 48.85 44.95 46.55 45.3 43.7 46.05 40.9 46.8 37.95 46.55 35.0 L45.6 27.95 44.4 20.3 47.35 17.1 48.05 15.65 48.25 14.35 48.75 14.4 49.55 14.3 Q50.65 13.8 51.1 12.9 52.05 10.95 52.05 8.75 L52.1 5.3 52.15 3.65 51.35 2.95 M51.2 2.95 L50.2 3.9 49.9 10.0 Q49.8 11.3 49.15 12.15 L47.3 6.6 46.8 6.9 Q45.9 7.5 45.95 8.55 L45.9 12.65 45.4 15.75 44.9 13.4 43.6 8.4 42.55 5.7 41.6 6.15 41.55 6.45 42.7 11.1 41.95 11.2 40.35 9.65 39.35 6.1 38.05 2.5 37.1 2.5 36.75 3.1 38.0 8.45 38.65 11.7 39.5 12.15 Q40.9 12.95 42.65 13.35 L43.15 14.9 42.45 17.75 Q41.95 19.45 41.8 21.2 41.55 24.1 42.4 27.05 L44.75 36.05 41.9 35.15 Q40.95 34.3 40.8 33.15 L40.35 29.75 Q40.05 27.95 38.65 27.0 L38.05 27.2 38.05 28.0 Q38.95 30.8 38.65 33.55 L39.25 34.85 40.1 35.75 44.15 37.9 44.55 38.2 44.55 38.7 42.55 45.75 40.9 44.4 37.3 42.25 Q36.3 41.7 35.3 41.3 L33.05 31.1 33.55 30.5 Q35.1 28.4 35.3 25.65 35.35 20.3 34.25 14.85 L33.9 13.55 33.35 13.95 Q32.95 14.3 32.85 14.85 32.6 15.9 32.7 17.05 L33.2 21.35 Q33.4 23.4 33.25 25.5 33.15 27.1 32.15 28.4 L31.55 26.85 Q31.05 25.15 30.85 23.45 30.65 21.5 30.1 19.75 L29.7 19.95 28.8 22.8 Q28.1 23.3 27.35 23.35 L26.75 23.15 26.65 18.6 Q26.65 17.35 26.9 16.2 L27.5 14.25 Q28.65 11.45 27.5 8.7 L26.95 4.9 25.95 4.65 25.2 5.15 26.15 11.7 25.1 13.0 24.2 11.7 23.6 11.5 Q23.6 14.35 24.55 17.0 L21.55 17.1 21.15 16.3 20.55 14.8 Q19.15 11.1 16.1 8.3 L15.5 8.6 Q15.7 9.7 16.2 10.7 L19.4 17.35 20.4 19.2 23.5 19.75 24.5 19.65 25.65 24.15 Q26.05 25.55 27.5 25.8 L29.2 26.0 32.15 34.95 32.7 39.45 27.65 38.05 24.65 33.95 Q22.95 31.45 21.0 29.5 L19.95 29.7 19.75 30.55 M25.05 38.2 L25.05 38.25 24.7 38.35 M24.55 38.35 L23.25 38.45 20.85 37.75 Q20.05 37.55 19.7 36.95 16.4 31.75 17.75 25.85 L17.1 24.55 16.15 22.5 Q15.75 21.65 15.7 20.75 15.55 19.05 14.65 17.5 L13.15 18.05 M13.15 18.1 L13.3 19.1 13.8 22.0 Q14.3 24.6 16.1 26.4 L15.25 27.2 14.15 26.9 13.25 26.6 Q12.3 26.2 11.55 25.55 10.8 24.9 10.45 23.95 9.75 22.25 9.65 20.65 L8.55 20.3 8.15 20.45 Q8.2 23.4 9.15 26.2 L5.6 26.55 4.35 23.0 Q3.6 20.7 1.3 20.05 L0.8 19.95 1.1 21.15 2.75 25.05 Q3.4 26.4 4.35 27.55 4.85 28.15 5.65 28.25 L9.6 28.45 Q12.75 28.2 14.8 30.4 15.65 31.3 15.8 32.55 M16.6 35.75 L17.15 37.3 Q15.2 37.7 13.3 36.85 L11.25 35.55 8.45 33.2 7.15 32.45 Q5.85 31.7 5.3 32.9 5.4 33.9 6.05 34.2 8.7 35.5 10.8 37.75 11.8 38.75 13.1 39.05 15.65 39.85 18.2 39.15 L19.4 39.9 18.7 41.35 16.85 41.85 Q14.5 42.3 12.55 43.1 L12.55 43.7 13.15 44.25 14.0 44.3 16.65 43.8 19.05 43.05 19.85 42.55 21.05 41.3 21.45 40.45 26.2 40.15 28.85 40.65 Q30.35 41.2 31.85 41.9 L33.5 42.75 38.8 45.7 40.85 46.8 42.0 53.0 42.1 53.9 39.0 50.55 37.65 48.4 Q37.2 47.35 36.15 46.85 33.6 45.65 30.95 45.7 L27.95 45.25 Q25.15 44.6 22.75 43.2 L22.15 43.6 22.5 44.5 Q23.8 46.55 26.3 47.7 L25.95 48.75 24.85 49.1 Q22.9 47.9 20.6 48.6 L20.05 50.1 20.3 50.6 21.45 50.85 26.85 51.1 28.15 47.95 28.2 47.8 28.35 47.85 31.35 48.2 35.15 49.1 Q35.7 49.2 36.1 49.65 L37.25 51.25 Q38.4 53.25 40.05 54.75 41.95 56.6 42.4 59.3 43.05 62.3 42.55 65.35 L40.65 60.35 Q39.6 57.4 37.85 54.85 37.05 53.7 35.85 52.95 L33.6 53.25 32.6 52.15 31.0 52.05 30.75 52.7 31.4 54.1 Q31.8 54.7 32.5 55.0 L35.3 55.9 36.2 56.25 M81.45 64.35 L81.1 63.75 75.35 64.5 73.8 63.4 75.3 62.0 76.3 60.35 76.4 59.8 75.85 59.9 Q73.5 61.35 70.85 62.6 L70.35 62.4 68.5 61.5 Q66.9 60.75 66.45 59.95 68.5 58.4 69.3 55.9 L77.55 55.45 Q78.55 56.15 79.7 56.6 L82.2 57.4 84.0 57.05 84.3 56.8 Q85.25 55.9 85.6 54.65 L87.45 56.05 88.75 56.6 Q90.3 57.05 91.35 55.8 L91.6 55.3 91.65 55.2 91.35 55.05 88.05 54.65 86.75 53.1 90.5 50.15 90.35 49.05 89.05 49.05 Q88.3 49.3 87.7 49.7 86.2 50.7 85.1 52.15 L82.7 55.15 81.85 55.0 81.05 54.65 79.4 53.8 80.45 52.3 Q81.85 49.9 82.3 47.15 L81.6 46.15 81.0 46.45 80.1 49.15 79.3 50.75 77.2 53.35 71.55 53.0 70.0 53.1 Q68.95 53.35 68.1 53.9 L67.95 51.55 70.25 50.3 69.65 49.7 68.8 49.2 Q67.6 49.4 67.1 50.25 66.6 51.0 66.45 51.85 66.25 53.05 66.5 54.3 66.85 55.8 66.7 57.25 65.0 58.25 63.4 59.45 L62.55 60.25 Q60.8 62.95 58.5 65.25 L50.6 65.55 51.5 63.85 52.2 62.15 Q52.6 61.0 53.25 60.1 53.95 59.1 55.0 58.5 L58.6 56.15 59.65 52.85 Q60.1 51.6 61.0 50.95 63.05 49.55 65.4 48.85 66.95 48.2 68.7 48.15 L71.85 48.1 75.3 47.55 Q76.75 47.15 77.45 45.75 L78.65 43.25 Q79.6 40.9 80.15 38.1 L80.7 39.3 Q81.35 40.5 82.6 40.85 L83.85 40.85 85.8 41.5 88.85 42.0 90.45 40.5 Q92.9 38.0 94.65 35.4 L94.2 33.85 M87.75 35.05 L87.05 35.15 83.95 38.45 82.4 37.05 81.75 36.2 81.7 36.1 81.75 36.05 Q84.15 34.35 86.05 32.2 87.2 30.8 87.35 28.85 L87.05 28.45 84.5 31.15 83.15 31.05 82.75 30.0 83.85 27.75 Q85.35 25.0 86.0 22.25 86.25 21.25 85.75 20.45 L84.85 21.55 83.65 23.5 M94.1 33.9 L92.15 35.35 Q89.9 37.35 88.6 40.1 L87.4 40.1 M87.75 35.05 L87.25 37.45 86.4 39.6 86.4 40.1 M81.45 64.35 L81.45 65.15 79.65 65.8 74.95 65.9 Q74.1 65.85 73.5 65.4 L72.3 64.35 68.95 64.65 Q66.85 64.05 65.8 62.0 L62.55 63.4 Q61.2 65.75 59.35 67.0 58.75 67.45 58.0 67.7 L51.4 66.95 48.55 74.7 40.7 74.7 39.3 72.25 38.15 69.85 33.65 59.35 31.9 59.05 Q29.6 59.35 28.0 57.6 L19.3 58.55 18.45 57.75 Q17.0 56.55 15.2 55.9 L14.9 58.9 13.6 59.8 Q12.75 60.45 11.7 60.2 L11.05 59.9 10.85 59.2 10.85 58.75 12.95 57.7 13.3 55.15 12.0 55.15 11.6 56.35 4.35 59.6 4.15 58.45 Q4.15 58.1 4.3 57.8 L4.5 57.55 Q6.2 56.7 7.6 56.25 8.65 56.05 9.5 55.4 L10.35 54.75 9.5 53.95 0.55 54.5 0.0 53.65 M0.0 53.6 Q0.5 52.9 1.5 52.75 L5.5 52.2 8.8 52.0 3.8 46.55 2.9 45.3 3.35 45.0 4.85 45.55 6.05 46.45 8.5 48.9 10.75 51.45 11.25 52.25 11.5 53.05 14.4 52.9 12.7 51.55 11.05 49.85 10.9 49.4 11.1 48.65 Q12.15 48.6 13.1 49.35 L14.95 51.0 15.95 52.4 16.7 53.3 Q18.7 55.2 20.85 57.0 L26.6 54.2 Q28.3 54.5 29.7 55.2 30.85 55.9 32.1 56.4 L33.35 56.7 34.6 57.1 36.35 58.65 Q37.65 60.25 38.65 62.15 40.3 65.15 41.55 68.2 L39.85 63.8 38.7 60.55 Q38.0 58.1 36.3 56.35 M75.05 22.1 L74.2 23.7 Q73.85 24.55 73.65 25.5 L73.55 25.85 73.2 26.15 72.2 25.65 72.4 22.7 71.55 22.05 71.05 23.15 Q70.1 25.6 69.7 28.1 L68.75 30.2 M75.05 22.1 L75.95 21.65 76.65 22.6 Q76.55 25.1 75.2 27.1 L75.0 27.5 73.5 27.95 72.2 28.2 71.5 27.9 Q71.1 30.3 69.7 32.0 L69.1 32.5 Q67.9 33.1 66.9 32.2 M69.65 34.75 L70.7 35.15 69.9 40.3 69.7 41.35 Q69.5 42.3 68.65 43.2 L66.2 45.65 67.75 45.75 M19.75 30.65 L20.15 31.55 20.95 32.8 25.05 38.2 M42.0 69.3 L41.55 68.2" fill="none" stroke="#000000" stroke-linecap="round" stroke-linejoin="round" stroke-opacity="0.3019608" stroke-width="0.30000000000000004"/>
    </g>
  </defs>
</svg>
