<?xml version="1.0" encoding="UTF-8" standalone="no"?>
<svg xmlns:xlink="http://www.w3.org/1999/xlink" height="81.25px" width="48.8px" xmlns="http://www.w3.org/2000/svg">
  <g transform="matrix(1.0, 0.0, 0.0, 1.0, 22.15, 77.75)">
    <use height="81.25" transform="matrix(1.0, 0.0, 0.0, 1.0, -22.15, -77.75)" width="48.8" xlink:href="#decoration87-shape0"/>
  </g>
  <defs>
    <g id="decoration87-shape0" transform="matrix(1.0, 0.0, 0.0, 1.0, 22.15, 77.75)">
      <path d="M3.35 -22.45 Q3.1 -17.85 1.85 -15.25 L-2.55 -7.55 Q-5.55 -2.45 1.85 1.35 L-2.1 1.35 Q-8.9 -2.15 -5.85 -6.8 L-1.4 -13.95 Q0.05 -16.4 0.8 -19.7 1.6 -23.0 0.95 -30.2 0.4 -37.4 -4.15 -48.1 1.6 -40.05 2.95 -29.1 3.5 -24.7 3.35 -22.45" fill="url(#decoration87-gradient0)" fill-rule="evenodd" stroke="none"/>
      <path d="M3.35 -22.45 Q3.5 -24.7 2.95 -29.1 1.6 -40.05 -4.15 -48.1 0.4 -37.4 0.95 -30.2 1.6 -23.0 0.8 -19.7 0.05 -16.4 -1.4 -13.95 L-5.85 -6.8 Q-8.9 -2.15 -2.1 1.35 L1.85 1.35 Q-5.55 -2.45 -2.55 -7.55 L1.85 -15.25 Q3.1 -17.85 3.35 -22.45 Z" fill="none" stroke="url(#decoration87-gradient1)" stroke-linecap="round" stroke-linejoin="round" stroke-width="0.5"/>
      <path d="M4.2 -21.1 Q-1.15 -13.15 -0.85 -8.3 -0.6 -3.2 5.65 -0.8 L4.55 2.45 Q-4.6 -2.1 -3.05 -10.3 -2.2 -15.1 1.85 -19.8 5.4 -24.0 3.85 -26.85 2.7 -29.1 -1.4 -30.2 2.8 -30.0 4.65 -27.55 6.75 -24.9 4.2 -21.1" fill="url(#decoration87-gradient2)" fill-rule="evenodd" stroke="none"/>
      <path d="M4.2 -21.1 Q-1.15 -13.15 -0.85 -8.3 -0.6 -3.2 5.65 -0.8 L4.55 2.45 Q-4.6 -2.1 -3.05 -10.3 -2.2 -15.1 1.85 -19.8 5.4 -24.0 3.85 -26.85 2.7 -29.1 -1.4 -30.2 2.8 -30.0 4.65 -27.55 6.75 -24.9 4.2 -21.1 Z" fill="none" stroke="url(#decoration87-gradient3)" stroke-linecap="round" stroke-linejoin="round" stroke-width="0.5"/>
      <path d="M21.65 -36.55 Q12.5 -32.1 11.95 -19.65 11.65 -11.65 14.15 -5.65 15.3 -0.75 14.15 2.35 L12.3 2.1 Q13.85 -1.05 12.35 -6.45 9.3 -15.65 11.2 -25.05 15.1 -34.85 21.65 -36.55" fill="url(#decoration87-gradient4)" fill-rule="evenodd" stroke="none"/>
      <path d="M21.65 -36.55 Q12.5 -32.1 11.95 -19.65 11.65 -11.65 14.15 -5.65 15.3 -0.75 14.15 2.35 L12.3 2.1 Q13.85 -1.05 12.35 -6.45 9.3 -15.65 11.2 -25.05 15.1 -34.85 21.65 -36.55 Z" fill="none" stroke="url(#decoration87-gradient5)" stroke-linecap="round" stroke-linejoin="round" stroke-width="0.5"/>
      <path d="M7.05 -29.75 Q8.05 -24.7 9.95 -20.9 L15.65 -9.95 Q19.55 -2.85 11.05 2.5 L6.1 2.5 Q15.35 -3.35 11.4 -11.15 7.5 -19.0 5.85 -22.95 4.15 -26.95 3.8 -33.9 3.6 -37.35 4.2 -44.05 5.75 -60.9 12.9 -73.15 7.3 -56.85 6.7 -45.8 6.05 -34.8 7.05 -29.75" fill="url(#decoration87-gradient6)" fill-rule="evenodd" stroke="none"/>
      <path d="M7.05 -29.75 Q8.05 -24.7 9.95 -20.9 L15.65 -9.95 Q19.55 -2.85 11.05 2.5 L6.1 2.5 Q15.35 -3.35 11.4 -11.15 7.5 -19.0 5.85 -22.95 4.15 -26.95 3.8 -33.9 3.6 -37.35 4.2 -44.05 5.75 -60.9 12.9 -73.15 7.3 -56.85 6.7 -45.8 6.05 -34.8 7.05 -29.75 Z" fill="none" stroke="url(#decoration87-gradient7)" stroke-linecap="round" stroke-linejoin="round" stroke-width="0.5"/>
      <path d="M0.15 -13.9 Q4.9 -26.15 4.25 -42.75 3.3 -68.4 -13.95 -77.5 -1.6 -74.1 5.65 -53.9 9.25 -34.45 3.5 -15.5 0.7 -4.4 3.65 2.1 L0.15 2.65 Q-2.0 -3.75 0.15 -13.9" fill="url(#decoration87-gradient8)" fill-rule="evenodd" stroke="none"/>
      <path d="M0.15 -13.9 Q-2.0 -3.75 0.15 2.65 L3.65 2.1 Q0.7 -4.4 3.5 -15.5 9.25 -34.45 5.65 -53.9 -1.6 -74.1 -13.95 -77.5 3.3 -68.4 4.25 -42.75 4.9 -26.15 0.15 -13.9 Z" fill="none" stroke="url(#decoration87-gradient9)" stroke-linecap="round" stroke-linejoin="round" stroke-width="0.5"/>
      <path d="M-15.45 -38.6 Q-11.2 -38.35 -8.5 -35.25 -5.55 -31.8 -6.9 -26.95 -9.65 -16.8 -7.85 -10.5 -5.9 -4.0 1.05 -0.95 L1.05 3.25 Q-9.6 -2.6 -10.7 -13.1 -11.35 -19.25 -8.85 -25.3 -6.65 -30.65 -9.05 -34.3 -11.0 -37.2 -15.45 -38.6" fill="url(#decoration87-gradient10)" fill-rule="evenodd" stroke="none"/>
      <path d="M-15.45 -38.6 Q-11.2 -38.35 -8.5 -35.25 -5.55 -31.8 -6.9 -26.95 -9.65 -16.8 -7.85 -10.5 -5.9 -4.0 1.05 -0.95 L1.05 3.25 Q-9.6 -2.6 -10.7 -13.1 -11.35 -19.25 -8.85 -25.3 -6.65 -30.65 -9.05 -34.3 -11.0 -37.2 -15.45 -38.6 Z" fill="none" stroke="url(#decoration87-gradient11)" stroke-linecap="round" stroke-linejoin="round" stroke-width="0.5"/>
      <path d="M7.65 -2.85 Q9.2 -7.35 5.1 -13.3 2.75 -16.75 1.55 -20.25 0.1 -24.55 0.0 -29.6 1.95 -53.1 26.4 -52.45 17.35 -51.15 12.9 -48.95 8.15 -46.55 5.25 -41.55 1.7 -35.55 1.55 -29.75 1.35 -22.85 5.75 -15.9 7.4 -13.3 9.4 -10.45 10.7 -8.4 11.1 -5.9 10.9 0.55 7.45 2.75 L2.3 2.75 Q6.5 0.65 7.65 -2.85" fill="url(#decoration87-gradient12)" fill-rule="evenodd" stroke="none"/>
      <path d="M7.65 -2.85 Q6.5 0.65 2.3 2.75 L7.45 2.75 Q10.9 0.55 11.1 -5.9 10.7 -8.4 9.4 -10.45 7.4 -13.3 5.75 -15.9 1.35 -22.85 1.55 -29.75 1.7 -35.55 5.25 -41.55 8.15 -46.55 12.9 -48.95 17.35 -51.15 26.4 -52.45 1.95 -53.1 0.0 -29.6 0.1 -24.55 1.55 -20.25 2.75 -16.75 5.1 -13.3 9.2 -7.35 7.65 -2.85 Z" fill="none" stroke="url(#decoration87-gradient13)" stroke-linecap="round" stroke-linejoin="round" stroke-width="0.5"/>
      <path d="M-13.35 -52.1 L-19.7 -57.0 Q-11.35 -53.3 -6.4 -46.15 -1.1 -38.25 -1.8 -28.65 -2.75 -16.1 -0.95 -8.6 0.9 -0.85 7.4 2.6 L1.55 2.6 Q-6.4 -5.0 -4.0 -27.4 -2.85 -37.75 -6.6 -43.7 -10.4 -49.6 -13.35 -52.1" fill="url(#decoration87-gradient14)" fill-rule="evenodd" stroke="none"/>
      <path d="M-13.35 -52.1 Q-10.4 -49.6 -6.6 -43.7 -2.85 -37.75 -4.0 -27.4 -6.4 -5.0 1.55 2.6 L7.4 2.6 Q0.9 -0.85 -0.95 -8.6 -2.75 -16.1 -1.8 -28.65 -1.1 -38.25 -6.4 -46.15 -11.35 -53.3 -19.7 -57.0 L-13.35 -52.1 Z" fill="none" stroke="url(#decoration87-gradient15)" stroke-linecap="round" stroke-linejoin="round" stroke-width="0.5"/>
      <path d="M17.15 -14.8 Q19.65 -11.05 19.0 -7.25 17.9 -0.7 7.25 2.95 L7.25 0.3 Q14.2 -1.6 16.15 -5.65 17.95 -9.55 15.2 -15.85 13.85 -18.85 16.8 -21.0 19.5 -22.95 23.75 -23.1 19.3 -22.25 17.35 -20.4 14.95 -18.15 17.15 -14.8" fill="url(#decoration87-gradient16)" fill-rule="evenodd" stroke="none"/>
      <path d="M17.15 -14.8 Q14.95 -18.15 17.35 -20.4 19.3 -22.25 23.75 -23.1 19.5 -22.95 16.8 -21.0 13.85 -18.85 15.2 -15.85 17.95 -9.55 16.15 -5.65 14.2 -1.6 7.25 0.3 L7.25 2.95 Q17.9 -0.7 19.0 -7.25 19.65 -11.05 17.15 -14.8 Z" fill="none" stroke="url(#decoration87-gradient17)" stroke-linecap="round" stroke-linejoin="round" stroke-width="0.5"/>
      <path d="M12.35 -41.95 Q6.65 -26.2 8.0 -12.95 9.2 -4.15 5.55 2.7 L1.3 2.8 Q6.05 -6.25 5.45 -14.05 5.75 -28.45 12.35 -41.95" fill="url(#decoration87-gradient18)" fill-rule="evenodd" stroke="none"/>
      <path d="M12.35 -41.95 Q6.65 -26.2 8.0 -12.95 9.2 -4.15 5.55 2.7 L1.3 2.8 Q6.05 -6.25 5.45 -14.05 5.75 -28.45 12.35 -41.95 L12.85 -42.95" fill="none" stroke="url(#decoration87-gradient19)" stroke-linecap="round" stroke-linejoin="round" stroke-width="0.5"/>
      <path d="M-2.1 -0.3 L-2.25 1.3 Q-9.3 -0.95 -9.7 -4.95 -9.95 -7.3 -8.0 -9.6 -6.35 -11.65 -7.8 -13.05 -9.05 -14.15 -12.0 -14.7 -9.1 -14.6 -7.45 -13.4 -5.55 -12.1 -6.6 -10.25 -8.85 -6.35 -7.85 -3.95 -6.75 -1.5 -2.1 -0.3" fill="url(#decoration87-gradient20)" fill-rule="evenodd" stroke="none"/>
      <path d="M-2.1 -0.3 L-2.25 1.3 Q-9.3 -0.95 -9.7 -4.95 -9.95 -7.3 -8.0 -9.6 -6.35 -11.65 -7.8 -13.05 -9.05 -14.15 -12.0 -14.7 -9.1 -14.6 -7.45 -13.4 -5.55 -12.1 -6.6 -10.25 -8.85 -6.35 -7.85 -3.95 -6.75 -1.5 -2.1 -0.3 Z" fill="none" stroke="url(#decoration87-gradient21)" stroke-linecap="round" stroke-linejoin="round" stroke-width="0.5"/>
      <path d="M12.45 -20.9 Q6.75 -13.05 8.1 -6.4 9.3 -2.0 5.65 1.45 L1.4 1.5 Q6.15 -3.05 5.55 -6.95 5.85 -14.15 12.45 -20.9" fill="url(#decoration87-gradient22)" fill-rule="evenodd" stroke="none"/>
      <path d="M12.45 -20.9 Q6.75 -13.05 8.1 -6.4 9.3 -2.0 5.65 1.45 L1.4 1.5 Q6.15 -3.05 5.55 -6.95 5.85 -14.15 12.45 -20.9 L12.95 -21.4" fill="none" stroke="url(#decoration87-gradient23)" stroke-linecap="round" stroke-linejoin="round" stroke-width="0.5"/>
      <path d="M-2.5 -40.15 Q-11.65 -35.45 -12.15 -22.15 -12.5 -13.6 -10.0 -7.25 -8.85 -2.0 -10.0 1.3 L-11.85 1.05 Q-10.3 -2.35 -11.8 -8.1 -14.85 -17.9 -12.9 -27.95 -9.05 -38.4 -2.5 -40.15" fill="url(#decoration87-gradient24)" fill-rule="evenodd" stroke="none"/>
      <path d="M-2.5 -40.15 Q-11.65 -35.45 -12.15 -22.15 -12.5 -13.6 -10.0 -7.25 -8.85 -2.0 -10.0 1.3 L-11.85 1.05 Q-10.3 -2.35 -11.8 -8.1 -14.85 -17.9 -12.9 -27.95 -9.05 -38.4 -2.5 -40.15 Z" fill="none" stroke="url(#decoration87-gradient25)" stroke-linecap="round" stroke-linejoin="round" stroke-width="0.5"/>
      <path d="M-21.9 -33.65 Q-9.55 -32.2 -2.0 -23.4 1.8 -15.0 -3.75 -6.75 -6.45 -1.95 -3.4 0.9 L-6.95 1.1 Q-9.2 -1.65 -7.15 -6.05 -2.5 -11.4 -3.3 -18.55 -4.55 -29.7 -21.9 -33.65" fill="url(#decoration87-gradient26)" fill-rule="evenodd" stroke="none"/>
      <path d="M-21.9 -33.65 Q-4.55 -29.7 -3.3 -18.55 -2.5 -11.4 -7.15 -6.05 -9.2 -1.65 -6.95 1.1 L-3.4 0.9 Q-6.45 -1.95 -3.75 -6.75 1.8 -15.0 -2.0 -23.4 -9.55 -32.2 -21.9 -33.65 Z" fill="none" stroke="url(#decoration87-gradient27)" stroke-linecap="round" stroke-linejoin="round" stroke-width="0.5"/>
      <path d="M-19.2 -21.8 Q-11.9 -14.8 -10.8 -7.35 -11.0 -3.3 -5.75 1.4 L-10.0 1.35 Q-14.05 -2.2 -13.3 -6.75 -12.65 -13.65 -19.2 -21.8" fill="url(#decoration87-gradient28)" fill-rule="evenodd" stroke="none"/>
      <path d="M-19.2 -21.8 Q-12.65 -13.65 -13.3 -6.75 -14.05 -2.2 -10.0 1.35 L-5.75 1.4 Q-11.0 -3.3 -10.8 -7.35 -11.9 -14.8 -19.2 -21.8 L-19.75 -22.3" fill="none" stroke="url(#decoration87-gradient29)" stroke-linecap="round" stroke-linejoin="round" stroke-width="0.5"/>
    </g>
    <linearGradient gradientTransform="matrix(-0.0089, 0.037, 0.0361, 0.0078, -1.5, -38.0)" gradientUnits="userSpaceOnUse" id="decoration87-gradient0" spreadMethod="pad" x1="-819.2" x2="819.2">
      <stop offset="0.0" stop-color="#ccc845"/>
      <stop offset="0.32941176470588235" stop-color="#c7c737"/>
      <stop offset="0.788235294117647" stop-color="#3c5c0a" stop-opacity="0.8627451"/>
      <stop offset="1.0" stop-color="#6f7d0c" stop-opacity="0.4509804"/>
    </linearGradient>
    <linearGradient gradientTransform="matrix(-0.0075, 0.0, 0.0026, 0.0303, -2.45, -23.35)" gradientUnits="userSpaceOnUse" id="decoration87-gradient1" spreadMethod="pad" x1="-819.2" x2="819.2">
      <stop offset="0.37254901960784315" stop-color="#7e7e05" stop-opacity="0.84705883"/>
      <stop offset="1.0" stop-color="#6b6b1d" stop-opacity="0.0"/>
    </linearGradient>
    <linearGradient gradientTransform="matrix(0.0055, 0.023, -0.026, 0.008, 3.05, -22.2)" gradientUnits="userSpaceOnUse" id="decoration87-gradient2" spreadMethod="pad" x1="-819.2" x2="819.2">
      <stop offset="0.0" stop-color="#ccc845"/>
      <stop offset="0.32941176470588235" stop-color="#c7c737"/>
      <stop offset="0.788235294117647" stop-color="#3c5c0a" stop-opacity="0.8627451"/>
      <stop offset="1.0" stop-color="#6f7d0c" stop-opacity="0.4509804"/>
    </linearGradient>
    <linearGradient gradientTransform="matrix(3.0E-4, 0.013, -0.0266, 0.0052, 1.75, -10.0)" gradientUnits="userSpaceOnUse" id="decoration87-gradient3" spreadMethod="pad" x1="-819.2" x2="819.2">
      <stop offset="0.37254901960784315" stop-color="#7e7e05" stop-opacity="0.84705883"/>
      <stop offset="1.0" stop-color="#6b6b1d" stop-opacity="0.0"/>
    </linearGradient>
    <linearGradient gradientTransform="matrix(-0.0103, 0.0268, 0.0269, 0.0072, 17.1, -26.4)" gradientUnits="userSpaceOnUse" id="decoration87-gradient4" spreadMethod="pad" x1="-819.2" x2="819.2">
      <stop offset="0.0" stop-color="#ccc845"/>
      <stop offset="0.32941176470588235" stop-color="#c7c737"/>
      <stop offset="0.788235294117647" stop-color="#3c5c0a" stop-opacity="0.8627451"/>
      <stop offset="1.0" stop-color="#6f7d0c" stop-opacity="0.4509804"/>
    </linearGradient>
    <linearGradient gradientTransform="matrix(-0.0065, 0.0204, 0.0275, 0.0062, 17.1, -19.45)" gradientUnits="userSpaceOnUse" id="decoration87-gradient5" spreadMethod="pad" x1="-819.2" x2="819.2">
      <stop offset="0.37254901960784315" stop-color="#7e7e05" stop-opacity="0.84705883"/>
      <stop offset="1.0" stop-color="#6b6b1d" stop-opacity="0.0"/>
    </linearGradient>
    <linearGradient gradientTransform="matrix(0.0117, 0.0566, -0.0454, 0.0119, 9.7, -57.75)" gradientUnits="userSpaceOnUse" id="decoration87-gradient6" spreadMethod="pad" x1="-819.2" x2="819.2">
      <stop offset="0.0" stop-color="#ccc845"/>
      <stop offset="0.32941176470588235" stop-color="#c7c737"/>
      <stop offset="0.788235294117647" stop-color="#3c5c0a" stop-opacity="0.8627451"/>
      <stop offset="1.0" stop-color="#6f7d0c" stop-opacity="0.4509804"/>
    </linearGradient>
    <linearGradient gradientTransform="matrix(0.0094, 0.0, -0.0028, 0.0464, 11.15, -35.35)" gradientUnits="userSpaceOnUse" id="decoration87-gradient7" spreadMethod="pad" x1="-819.2" x2="819.2">
      <stop offset="0.37254901960784315" stop-color="#7e7e05" stop-opacity="0.84705883"/>
      <stop offset="1.0" stop-color="#6b6b1d" stop-opacity="0.0"/>
    </linearGradient>
    <linearGradient gradientTransform="matrix(0.0193, 0.0552, -0.0506, 0.0149, -5.4, -56.65)" gradientUnits="userSpaceOnUse" id="decoration87-gradient8" spreadMethod="pad" x1="-819.2" x2="819.2">
      <stop offset="0.0" stop-color="#ccc845"/>
      <stop offset="0.32941176470588235" stop-color="#c7c737"/>
      <stop offset="0.788235294117647" stop-color="#3c5c0a" stop-opacity="0.8627451"/>
      <stop offset="1.0" stop-color="#6f7d0c" stop-opacity="0.4509804"/>
    </linearGradient>
    <linearGradient gradientTransform="matrix(0.0123, 0.0421, -0.0516, 0.0127, -5.45, -42.3)" gradientUnits="userSpaceOnUse" id="decoration87-gradient9" spreadMethod="pad" x1="-819.2" x2="819.2">
      <stop offset="0.37254901960784315" stop-color="#7e7e05" stop-opacity="0.84705883"/>
      <stop offset="1.0" stop-color="#6b6b1d" stop-opacity="0.0"/>
    </linearGradient>
    <linearGradient gradientTransform="matrix(0.0129, 0.0295, -0.0234, 0.0102, -8.45, -28.4)" gradientUnits="userSpaceOnUse" id="decoration87-gradient10" spreadMethod="pad" x1="-819.2" x2="819.2">
      <stop offset="0.0" stop-color="#ccc845"/>
      <stop offset="0.32941176470588235" stop-color="#c7c737"/>
      <stop offset="0.788235294117647" stop-color="#3c5c0a" stop-opacity="0.8627451"/>
      <stop offset="1.0" stop-color="#6f7d0c" stop-opacity="0.4509804"/>
    </linearGradient>
    <linearGradient gradientTransform="matrix(0.0045, 0.0167, -0.0249, 0.0067, -5.8, -12.7)" gradientUnits="userSpaceOnUse" id="decoration87-gradient11" spreadMethod="pad" x1="-819.2" x2="819.2">
      <stop offset="0.37254901960784315" stop-color="#7e7e05" stop-opacity="0.84705883"/>
      <stop offset="1.0" stop-color="#6b6b1d" stop-opacity="0.0"/>
    </linearGradient>
    <linearGradient gradientTransform="matrix(-0.0048, 0.0466, -0.0298, -0.0038, 17.05, -43.3)" gradientUnits="userSpaceOnUse" id="decoration87-gradient12" spreadMethod="pad" x1="-819.2" x2="819.2">
      <stop offset="0.0" stop-color="#ccc845"/>
      <stop offset="0.32941176470588235" stop-color="#c7c737"/>
      <stop offset="0.788235294117647" stop-color="#3c5c0a" stop-opacity="0.8627451"/>
      <stop offset="1.0" stop-color="#6f7d0c" stop-opacity="0.4509804"/>
    </linearGradient>
    <linearGradient gradientTransform="matrix(-0.0205, 0.0333, -0.0249, -0.0192, 16.4, -28.15)" gradientUnits="userSpaceOnUse" id="decoration87-gradient13" spreadMethod="pad" x1="-819.2" x2="819.2">
      <stop offset="0.37254901960784315" stop-color="#7e7e05" stop-opacity="0.84705883"/>
      <stop offset="1.0" stop-color="#6b6b1d" stop-opacity="0.0"/>
    </linearGradient>
    <linearGradient gradientTransform="matrix(0.017, 0.0436, -0.0339, 0.0132, -9.4, -43.9)" gradientUnits="userSpaceOnUse" id="decoration87-gradient14" spreadMethod="pad" x1="-819.2" x2="819.2">
      <stop offset="0.0" stop-color="#ccc845"/>
      <stop offset="0.32941176470588235" stop-color="#c7c737"/>
      <stop offset="0.788235294117647" stop-color="#3c5c0a" stop-opacity="0.8627451"/>
      <stop offset="1.0" stop-color="#6f7d0c" stop-opacity="0.4509804"/>
    </linearGradient>
    <linearGradient gradientTransform="matrix(0.0167, 0.0, 0.0, 0.0366, -6.15, -27.2)" gradientUnits="userSpaceOnUse" id="decoration87-gradient15" spreadMethod="pad" x1="-819.2" x2="819.2">
      <stop offset="0.37254901960784315" stop-color="#7e7e05" stop-opacity="0.84705883"/>
      <stop offset="1.0" stop-color="#6b6b1d" stop-opacity="0.0"/>
    </linearGradient>
    <linearGradient gradientTransform="matrix(-0.0129, 0.0184, 0.0234, 0.0063, 16.75, -16.75)" gradientUnits="userSpaceOnUse" id="decoration87-gradient16" spreadMethod="pad" x1="-819.2" x2="819.2">
      <stop offset="0.0" stop-color="#ccc845"/>
      <stop offset="0.32941176470588235" stop-color="#c7c737"/>
      <stop offset="0.788235294117647" stop-color="#3c5c0a" stop-opacity="0.8627451"/>
      <stop offset="1.0" stop-color="#6f7d0c" stop-opacity="0.4509804"/>
    </linearGradient>
    <linearGradient gradientTransform="matrix(-0.0045, 0.0104, 0.0249, 0.0041, 14.1, -7.0)" gradientUnits="userSpaceOnUse" id="decoration87-gradient17" spreadMethod="pad" x1="-819.2" x2="819.2">
      <stop offset="0.37254901960784315" stop-color="#7e7e05" stop-opacity="0.84705883"/>
      <stop offset="1.0" stop-color="#6b6b1d" stop-opacity="0.0"/>
    </linearGradient>
    <linearGradient gradientTransform="matrix(0.0022, 0.0265, -0.0272, 0.0023, 8.05, -29.6)" gradientUnits="userSpaceOnUse" id="decoration87-gradient18" spreadMethod="pad" x1="-819.2" x2="819.2">
      <stop offset="0.0" stop-color="#ccc845"/>
      <stop offset="0.32941176470588235" stop-color="#c7c737"/>
      <stop offset="0.788235294117647" stop-color="#3c5c0a" stop-opacity="0.8627451"/>
      <stop offset="1.0" stop-color="#6f7d0c" stop-opacity="0.4509804"/>
    </linearGradient>
    <linearGradient gradientTransform="matrix(0.0, 0.0186, -0.0281, 0.0, 11.8, -29.7)" gradientUnits="userSpaceOnUse" id="decoration87-gradient19" spreadMethod="pad" x1="-819.2" x2="819.2">
      <stop offset="0.37254901960784315" stop-color="#7e7e05" stop-opacity="0.84705883"/>
      <stop offset="1.0" stop-color="#6b6b1d" stop-opacity="0.0"/>
    </linearGradient>
    <linearGradient gradientTransform="matrix(0.0078, 0.0113, -0.0163, 0.0039, -7.6, -10.8)" gradientUnits="userSpaceOnUse" id="decoration87-gradient20" spreadMethod="pad" x1="-819.2" x2="819.2">
      <stop offset="0.0" stop-color="#ccc845"/>
      <stop offset="0.32941176470588235" stop-color="#c7c737"/>
      <stop offset="0.788235294117647" stop-color="#3c5c0a" stop-opacity="0.8627451"/>
      <stop offset="1.0" stop-color="#6f7d0c" stop-opacity="0.4509804"/>
    </linearGradient>
    <linearGradient gradientTransform="matrix(0.0025, 0.0064, -0.0172, 0.0025, -6.35, -4.8)" gradientUnits="userSpaceOnUse" id="decoration87-gradient21" spreadMethod="pad" x1="-819.2" x2="819.2">
      <stop offset="0.37254901960784315" stop-color="#7e7e05" stop-opacity="0.84705883"/>
      <stop offset="1.0" stop-color="#6b6b1d" stop-opacity="0.0"/>
    </linearGradient>
    <linearGradient gradientTransform="matrix(0.0022, 0.0133, -0.0272, 0.0011, 8.15, -14.7)" gradientUnits="userSpaceOnUse" id="decoration87-gradient22" spreadMethod="pad" x1="-819.2" x2="819.2">
      <stop offset="0.0" stop-color="#ccc845"/>
      <stop offset="0.32941176470588235" stop-color="#c7c737"/>
      <stop offset="0.788235294117647" stop-color="#3c5c0a" stop-opacity="0.8627451"/>
      <stop offset="1.0" stop-color="#6f7d0c" stop-opacity="0.4509804"/>
    </linearGradient>
    <linearGradient gradientTransform="matrix(0.0, 0.0093, -0.0281, 0.0, 11.9, -14.75)" gradientUnits="userSpaceOnUse" id="decoration87-gradient23" spreadMethod="pad" x1="-819.2" x2="819.2">
      <stop offset="0.37254901960784315" stop-color="#7e7e05" stop-opacity="0.84705883"/>
      <stop offset="1.0" stop-color="#6b6b1d" stop-opacity="0.0"/>
    </linearGradient>
    <linearGradient gradientTransform="matrix(-0.0103, 0.0286, 0.0269, 0.0077, -7.05, -29.35)" gradientUnits="userSpaceOnUse" id="decoration87-gradient24" spreadMethod="pad" x1="-819.2" x2="819.2">
      <stop offset="0.0" stop-color="#ccc845"/>
      <stop offset="0.32941176470588235" stop-color="#c7c737"/>
      <stop offset="0.788235294117647" stop-color="#3c5c0a" stop-opacity="0.8627451"/>
      <stop offset="1.0" stop-color="#6f7d0c" stop-opacity="0.4509804"/>
    </linearGradient>
    <linearGradient gradientTransform="matrix(-0.0065, 0.0218, 0.0275, 0.0066, -7.0, -21.95)" gradientUnits="userSpaceOnUse" id="decoration87-gradient25" spreadMethod="pad" x1="-819.2" x2="819.2">
      <stop offset="0.37254901960784315" stop-color="#7e7e05" stop-opacity="0.84705883"/>
      <stop offset="1.0" stop-color="#6b6b1d" stop-opacity="0.0"/>
    </linearGradient>
    <linearGradient gradientTransform="matrix(0.0199, 0.024, -0.0505, 0.0065, -13.1, -24.6)" gradientUnits="userSpaceOnUse" id="decoration87-gradient26" spreadMethod="pad" x1="-819.2" x2="819.2">
      <stop offset="0.0" stop-color="#ccc845"/>
      <stop offset="0.32941176470588235" stop-color="#c7c737"/>
      <stop offset="0.788235294117647" stop-color="#3c5c0a" stop-opacity="0.8627451"/>
      <stop offset="1.0" stop-color="#6f7d0c" stop-opacity="0.4509804"/>
    </linearGradient>
    <linearGradient gradientTransform="matrix(0.0127, 0.0183, -0.0515, 0.0055, -13.0, -18.4)" gradientUnits="userSpaceOnUse" id="decoration87-gradient27" spreadMethod="pad" x1="-819.2" x2="819.2">
      <stop offset="0.37254901960784315" stop-color="#7e7e05" stop-opacity="0.84705883"/>
      <stop offset="1.0" stop-color="#6b6b1d" stop-opacity="0.0"/>
    </linearGradient>
    <linearGradient gradientTransform="matrix(-8.0E-4, 0.0137, 0.0273, 0.0012, -14.25, -15.4)" gradientUnits="userSpaceOnUse" id="decoration87-gradient28" spreadMethod="pad" x1="-819.2" x2="819.2">
      <stop offset="0.0" stop-color="#ccc845"/>
      <stop offset="0.32941176470588235" stop-color="#c7c737"/>
      <stop offset="0.788235294117647" stop-color="#3c5c0a" stop-opacity="0.8627451"/>
      <stop offset="1.0" stop-color="#6f7d0c" stop-opacity="0.4509804"/>
    </linearGradient>
    <linearGradient gradientTransform="matrix(0.001, 0.0097, 0.0281, 0.0, -18.0, -15.45)" gradientUnits="userSpaceOnUse" id="decoration87-gradient29" spreadMethod="pad" x1="-819.2" x2="819.2">
      <stop offset="0.37254901960784315" stop-color="#7e7e05" stop-opacity="0.84705883"/>
      <stop offset="1.0" stop-color="#6b6b1d" stop-opacity="0.0"/>
    </linearGradient>
  </defs>
</svg>
