<?xml version="1.0" encoding="UTF-8" standalone="no"?>
<svg xmlns:ffdec="https://www.free-decompiler.com/flash" xmlns:xlink="http://www.w3.org/1999/xlink" ffdec:objectType="frame" height="43.1px" width="55.75px" xmlns="http://www.w3.org/2000/svg">
  <g transform="matrix(1.0, 0.0, 0.0, 1.0, 36.0, 42.4)">
    <use ffdec:characterId="657" height="43.1" transform="matrix(1.0, 0.0, 0.0, 1.0, -36.0, -42.4)" width="55.75" xlink:href="#decoration88-shape0"/>
  </g>
  <defs>
    <g id="decoration88-shape0" transform="matrix(1.0, 0.0, 0.0, 1.0, 36.0, 42.4)">
      <path d="M6.4 -12.65 L7.45 -15.25 2.15 -22.65 -1.5 -22.65 -4.55 -25.3 -10.0 -21.1 -10.0 -17.2 -4.7 -15.1 -0.9 -9.3 1.45 -14.3 5.3 -9.95 6.4 -12.65 M2.15 -27.95 L3.95 -26.8 Q13.65 -20.15 19.6 0.55 L16.95 0.55 Q-9.9 -2.25 -19.4 -15.0 L-19.75 -15.55 Q-22.15 -19.1 -21.2 -22.6 -24.65 -24.7 -27.25 -27.9 -28.55 -31.6 -26.2 -36.35 L-26.1 -36.4 -22.15 -39.55 -21.6 -37.35 Q-21.0 -35.25 -19.85 -33.4 L-17.85 -30.7 Q-16.35 -29.0 -14.35 -27.6 -8.55 -31.6 -2.2 -29.8 -0.05 -29.2 2.15 -27.95" fill="url(#decoration88-gradient0)" fill-rule="evenodd" stroke="none"/>
      <path d="M-10.0 -17.2 L-10.0 -21.1 -4.55 -25.3 -1.5 -22.65 2.15 -22.65 7.45 -15.25 6.4 -12.65 2.15 -19.3 2.15 -22.65 2.15 -19.3 -1.2 -19.3 -4.35 -22.5 -10.0 -17.2 M-4.55 -25.3 L-4.35 -22.5 -4.55 -25.3 M-1.5 -22.65 L-1.2 -19.3 -1.5 -22.65" fill="#623c18" fill-rule="evenodd" stroke="none"/>
      <path d="M6.4 -12.65 L5.3 -9.95 1.45 -14.3 -0.9 -9.3 -4.7 -15.1 -10.0 -17.2 -4.35 -22.5 -1.2 -19.3 2.15 -19.3 6.4 -12.65" fill="#41270e" fill-rule="evenodd" stroke="none"/>
      <path d="M16.95 0.55 L-11.35 0.55 Q-16.4 -0.95 -19.85 -4.15 -21.75 -5.85 -22.65 -8.3 -28.35 -9.85 -31.3 -12.25 -24.6 -10.6 -26.35 -13.0 -25.1 -12.35 -23.45 -11.8 -23.85 -15.7 -22.7 -20.9 -24.25 -23.05 -26.0 -24.35 -29.6 -22.05 -30.0 -19.35 -30.75 -23.5 -32.85 -21.75 -31.45 -23.8 -28.9 -26.0 L-30.45 -26.4 Q-32.8 -22.85 -35.0 -24.65 L-35.85 -25.6 -35.0 -27.85 Q-33.4 -31.65 -31.3 -34.5 -31.05 -31.8 -26.65 -35.9 -28.6 -34.0 -30.0 -31.85 -31.5 -29.4 -32.3 -26.6 L-30.45 -26.4 -32.3 -26.6 Q-31.5 -29.4 -30.0 -31.85 -28.6 -34.0 -26.65 -35.9 L-26.4 -36.15 -26.2 -36.35 Q-28.55 -31.6 -27.25 -27.9 -24.65 -24.7 -21.2 -22.6 -22.15 -19.1 -19.75 -15.55 L-19.4 -15.0 Q-9.9 -2.25 16.95 0.55 M-19.85 -33.4 Q-19.2 -34.75 -18.05 -35.95 -17.3 -34.0 -11.35 -36.6 -16.0 -34.05 -17.85 -30.7 L-19.85 -33.4 M-1.75 -35.6 L-0.7 -34.25 Q1.9 -31.1 2.15 -27.95 -0.05 -29.2 -2.2 -29.8 -3.2 -32.35 -5.4 -34.0 -1.7 -33.6 -1.75 -35.6 M-22.65 -8.3 Q-23.25 -9.9 -23.45 -11.8 -23.25 -9.9 -22.65 -8.3 M-28.9 -26.0 Q-27.45 -25.4 -26.0 -24.35 -27.45 -25.4 -28.9 -26.0" fill="#623c1a" fill-rule="evenodd" stroke="none"/>
      <path d="M-18.05 -35.95 Q-16.25 -37.85 -13.35 -39.55 -6.05 -40.7 -1.75 -35.6 -1.7 -33.6 -5.4 -34.0 -7.7 -35.8 -11.35 -36.6 -17.3 -34.0 -18.05 -35.95" fill="url(#decoration88-gradient1)" fill-rule="evenodd" stroke="none"/>
      <path d="M-31.3 -34.5 Q-28.8 -38.0 -25.45 -40.15 -22.9 -41.8 -20.7 -42.15 -18.7 -42.45 -18.35 -41.55 -17.9 -40.1 -21.6 -37.35 L-22.15 -39.55 -26.1 -36.4 -26.2 -36.35 -26.4 -36.15 -26.65 -35.9 Q-31.05 -31.8 -31.3 -34.5" fill="url(#decoration88-gradient2)" fill-rule="evenodd" stroke="none"/>
      <path d="M-31.3 -12.25 Q-34.05 -14.55 -34.35 -17.6 -34.2 -19.6 -32.85 -21.75 -30.75 -23.5 -30.0 -19.35 L-30.0 -17.8 Q-30.0 -14.9 -26.35 -13.0 -24.6 -10.6 -31.3 -12.25" fill="url(#decoration88-gradient3)" fill-rule="evenodd" stroke="none"/>
      <path d="M-10.0 -17.2 L-10.0 -21.1 -4.55 -25.3 -1.5 -22.65 2.15 -22.65 7.45 -15.25 6.4 -12.65 5.3 -9.95 1.45 -14.3 -0.9 -9.3 -4.7 -15.1 -10.0 -17.2 -4.35 -22.5 -4.55 -25.3 M2.15 -19.3 L2.15 -22.65 M2.15 -19.3 L6.4 -12.65 M2.15 -27.95 L3.95 -26.8 Q13.65 -20.15 19.6 0.55 L16.95 0.55 -11.35 0.55 Q-16.4 -0.95 -19.85 -4.15 -21.75 -5.85 -22.65 -8.3 -28.35 -9.85 -31.3 -12.25 -34.05 -14.55 -34.35 -17.6 -34.2 -19.6 -32.85 -21.75 -31.45 -23.8 -28.9 -26.0 L-30.45 -26.4 Q-32.8 -22.85 -35.0 -24.65 L-35.85 -25.6 -35.0 -27.85 Q-33.4 -31.65 -31.3 -34.5 -28.8 -38.0 -25.45 -40.15 -22.9 -41.8 -20.7 -42.15 -18.7 -42.45 -18.35 -41.55 -17.9 -40.1 -21.6 -37.35 -21.0 -35.25 -19.85 -33.4 -19.2 -34.75 -18.05 -35.95 -16.25 -37.85 -13.35 -39.55 -6.05 -40.7 -1.75 -35.6 L-0.7 -34.25 Q1.9 -31.1 2.15 -27.95 -0.05 -29.2 -2.2 -29.8 -8.55 -31.6 -14.35 -27.6 -16.35 -29.0 -17.85 -30.7 L-19.85 -33.4 M-11.35 -36.6 Q-16.0 -34.05 -17.85 -30.7 M-2.2 -29.8 Q-3.2 -32.35 -5.4 -34.0 -7.7 -35.8 -11.35 -36.6 M-26.2 -36.35 L-26.1 -36.4 -22.15 -39.55 -21.6 -37.35 M-26.65 -35.9 Q-28.6 -34.0 -30.0 -31.85 -31.5 -29.4 -32.3 -26.6 L-30.45 -26.4 M-26.2 -36.35 L-26.4 -36.15 -26.65 -35.9 M-26.35 -13.0 Q-25.1 -12.35 -23.45 -11.8 -23.85 -15.7 -22.7 -20.9 -24.25 -23.05 -26.0 -24.35 -29.6 -22.05 -30.0 -19.35 L-30.0 -17.8 Q-30.0 -14.9 -26.35 -13.0 M-23.45 -11.8 Q-23.25 -9.9 -22.65 -8.3 M-1.2 -19.3 L-1.5 -22.65 M-4.35 -22.5 L-1.2 -19.3 2.15 -19.3 M-26.0 -24.35 Q-27.45 -25.4 -28.9 -26.0" fill="none" stroke="#000000" stroke-linecap="round" stroke-linejoin="round" stroke-opacity="0.3019608" stroke-width="0.30000000000000004"/>
      <path d="M4.75 -1.85 Q7.3 -8.85 15.05 -12.15 M-3.35 -23.85 Q-2.85 -25.2 -0.5 -27.05 L3.65 -23.7 Q4.7 -24.6 6.15 -25.5 M-15.45 -13.9 L-11.35 -11.1 -7.5 -15.2 -11.15 -18.05 -9.5 -19.85" fill="none" stroke="#ad2e00" stroke-linecap="round" stroke-linejoin="round" stroke-width="1.0"/>
      <path d="M4.15 0.1 L4.75 -1.85 M-17.95 -2.7 Q-17.9 -4.35 -15.45 -6.7 L-19.0 -9.05 Q-18.1 -11.75 -15.45 -13.9" fill="none" stroke="#741f00" stroke-linecap="round" stroke-linejoin="round" stroke-width="1.0"/>
    </g>
    <radialGradient cx="0" cy="0" gradientTransform="matrix(0.0379, 0.0, 0.0, 0.0379, 1.2, -33.9)" gradientUnits="userSpaceOnUse" id="decoration88-gradient0" r="819.2" spreadMethod="pad">
      <stop offset="0.0" stop-color="#c98446"/>
      <stop offset="1.0" stop-color="#916033"/>
    </radialGradient>
    <linearGradient gradientTransform="matrix(0.01, 0.0, 0.0, 0.0036, -13.35, -36.1)" gradientUnits="userSpaceOnUse" id="decoration88-gradient1" spreadMethod="pad" x1="-819.2" x2="819.2">
      <stop offset="0.0" stop-color="#c98446"/>
      <stop offset="1.0" stop-color="#916033"/>
    </linearGradient>
    <linearGradient gradientTransform="matrix(-0.004, 0.0069, -0.0047, -0.0027, -22.5, -41.1)" gradientUnits="userSpaceOnUse" id="decoration88-gradient2" spreadMethod="pad" x1="-819.2" x2="819.2">
      <stop offset="0.0" stop-color="#c98446"/>
      <stop offset="1.0" stop-color="#916033"/>
    </linearGradient>
    <linearGradient gradientTransform="matrix(0.0013, 0.0049, -0.0063, 0.0017, -30.3, -20.75)" gradientUnits="userSpaceOnUse" id="decoration88-gradient3" spreadMethod="pad" x1="-819.2" x2="819.2">
      <stop offset="0.0" stop-color="#c98446"/>
      <stop offset="1.0" stop-color="#916033"/>
    </linearGradient>
  </defs>
</svg>
