<?xml version="1.0" encoding="UTF-8" standalone="no"?>
<svg xmlns:xlink="http://www.w3.org/1999/xlink" height="9.6px" width="29.0px" xmlns="http://www.w3.org/2000/svg">
  <g transform="matrix(1.0, 0.0, 0.0, 1.0, 14.5, 4.85)">
    <use data-characterId="843" height="9.6" transform="matrix(1.0, 0.0, 0.0, 1.0, -14.5, -4.85)" width="29.0" xlink:href="#decoration9-shape0"/>
  </g>
  <defs>
    <g id="decoration9-shape0" transform="matrix(1.0, 0.0, 0.0, 1.0, 14.5, 4.85)">
      <path d="M-7.9 0.3 L-7.95 0.0 Q0.0 -0.65 9.05 -2.3 L9.5 -1.65 -7.9 0.3" fill="#fcefd0" fill-rule="evenodd" stroke="none"/>
      <path d="M9.5 -1.65 L9.8 -1.1 -7.7 1.5 -7.9 0.3 9.5 -1.65" fill="#c2ad7c" fill-rule="evenodd" stroke="none"/>
      <path d="M9.5 -1.65 L9.8 -1.1 -7.7 1.5 -7.9 0.3 -7.95 0.0 Q0.0 -0.65 9.05 -2.3 L9.5 -1.65 Z" fill="none" stroke="#000000" stroke-linecap="round" stroke-linejoin="round" stroke-opacity="0.3019608" stroke-width="0.2"/>
      <path d="M8.6 -1.75 Q8.25 -2.9 8.25 -4.05 9.2 -4.95 11.3 -4.65 L11.9 -4.05 Q11.85 -3.6 11.6 -3.6 L11.15 -3.9 10.8 -4.25 11.0 -3.4 10.8 -3.75 9.45 -3.55 9.8 -2.3 9.8 -2.0 Q9.8 -1.45 9.45 -1.45 9.05 -1.45 8.7 -1.7 L8.6 -1.75" fill="#206eb5" fill-rule="evenodd" stroke="none"/>
      <path d="M8.6 -1.75 L8.7 -1.7 Q9.05 -1.45 9.45 -1.45 9.8 -1.45 9.8 -2.0 L9.8 -2.3 10.55 -0.3 12.75 -0.65 11.0 -3.4 10.8 -4.25 11.15 -3.9 11.6 -3.6 Q11.85 -3.6 11.9 -4.05 13.55 -2.3 14.4 -0.1 11.25 0.95 10.1 0.95 9.05 -0.35 8.6 -1.75" fill="#145998" fill-rule="evenodd" stroke="none"/>
      <path d="M-14.4 1.5 Q-13.35 5.15 -7.15 3.85 L-5.25 1.0 Q-9.6 1.15 -12.85 0.9 L-5.85 -0.2 -5.0 -3.2 -5.1 -0.35 Q-7.25 0.45 -5.25 1.0 L-6.4 4.65 -9.85 4.65 Q-14.05 4.15 -14.4 1.5" fill="#095091" fill-rule="evenodd" stroke="none"/>
      <path d="M-5.0 -3.2 L-5.85 -0.2 -12.85 0.9 Q-9.6 1.15 -5.25 1.0 L-7.15 3.85 Q-13.35 5.15 -14.4 1.5 -13.0 -1.5 -5.0 -3.2" fill="url(#decoration9-gradient0)" fill-rule="evenodd" stroke="none"/>
      <path d="M11.9 -4.05 L11.3 -4.65 Q9.2 -4.95 8.25 -4.05 8.25 -2.9 8.6 -1.75 9.05 -0.35 10.1 0.95 11.25 0.95 14.4 -0.1 13.55 -2.3 11.9 -4.05 M9.45 -3.55 L10.8 -3.75 11.0 -3.4 12.75 -0.65 10.55 -0.3 9.8 -2.3 M-5.0 -3.2 Q-13.0 -1.5 -14.4 1.5 -14.05 4.15 -9.85 4.65 L-6.4 4.65 -5.25 1.0 Q-7.25 0.45 -5.1 -0.35 L-5.0 -3.2 Z" fill="none" stroke="#000000" stroke-linecap="round" stroke-linejoin="round" stroke-opacity="0.3019608" stroke-width="0.2"/>
    </g>
    <radialGradient cx="0" cy="0" gradientTransform="matrix(0.013, 0.0, 0.0, 0.0074, -12.15, -2.25)" gradientUnits="userSpaceOnUse" id="decoration9-gradient0" r="819.2" spreadMethod="pad">
      <stop offset="0.0" stop-color="#4997de"/>
      <stop offset="1.0" stop-color="#206eb5"/>
    </radialGradient>
  </defs>
</svg>
