<?xml version="1.0" encoding="UTF-8" standalone="no"?>
<svg xmlns:xlink="http://www.w3.org/1999/xlink" height="42.35px" width="17.85px" xmlns="http://www.w3.org/2000/svg">
  <g transform="matrix(1.0, 0.0, 0.0, 1.0, 9.05, 41.6)">
    <use height="42.35" transform="matrix(1.0, 0.0, 0.0, 1.0, -9.05, -41.6)" width="17.85" xlink:href="#decoration91-shape0"/>
    <use height="6.1" id="decoration91-Couleur0_E75082" filter="url(#decoration91-filter0)" transform="matrix(1.2286, 0.0, 0.0, 1.0517, -6.9343, -7.1578)" width="10.8" xlink:href="#decoration91-sprite0"/>
    <use height="116.85" transform="matrix(0.012, -0.0207, 0.0347, 0.0122, -2.8206, -5.8045)" width="220.6" xlink:href="#decoration91-sprite1"/>
  </g>
  <defs>
    <g id="decoration91-shape0" transform="matrix(1.0, 0.0, 0.0, 1.0, 9.05, 41.6)">
      <path d="M-2.4 -41.25 L1.1 -41.15 Q1.6 -40.2 0.65 -36.25 L-0.9 -36.4 -2.4 -41.25" fill="#966f36" fill-rule="evenodd" stroke="none"/>
      <path d="M1.1 -41.15 L2.8 -41.35 1.95 -37.4 Q1.6 -36.3 0.65 -36.25 1.6 -40.2 1.1 -41.15" fill="#4d381b" fill-rule="evenodd" stroke="none"/>
      <path d="M2.8 -41.35 L1.1 -41.15 -2.4 -41.25 -3.15 -41.4 -0.5 -41.6 2.8 -41.35" fill="#f0c384" fill-rule="evenodd" stroke="none"/>
      <path d="M-3.15 -41.4 L-2.4 -41.25 -0.9 -36.4 -1.65 -37.0 -3.15 -41.4" fill="#cc9449" fill-rule="evenodd" stroke="none"/>
      <path d="M2.8 -41.35 L-0.5 -41.6 -3.15 -41.4 M0.65 -36.25 Q1.6 -36.3 1.95 -37.4 L2.8 -41.35 M-0.9 -36.4 L-1.65 -37.0 -3.15 -41.4 M-0.9 -36.4 L0.65 -36.25" fill="none" stroke="#000000" stroke-linecap="round" stroke-linejoin="round" stroke-opacity="0.3019608" stroke-width="0.05"/>
      <path d="M2.1 -39.0 L3.55 -38.95 Q4.25 -38.4 3.35 -37.75 L1.95 -37.05 2.2 -14.4 7.55 -3.4 Q9.2 -1.45 7.7 0.35 L-6.25 0.35 -6.9 -0.65 0.05 -0.65 Q5.65 -1.65 5.0 -5.15 L1.4 -12.3 1.05 -14.4 1.05 -36.95 Q2.35 -37.9 2.1 -39.0 M1.95 -37.05 L1.05 -36.95 1.95 -37.05" fill="#7eaaa8" fill-opacity="0.65882355" fill-rule="evenodd" stroke="none"/>
      <path d="M-2.25 -39.0 L2.1 -39.0 Q2.35 -37.9 1.05 -36.95 L1.05 -14.4 1.4 -12.3 5.0 -5.15 Q5.65 -1.65 0.05 -0.65 L-6.9 -0.65 Q-7.15 -1.6 -6.55 -2.6 L-1.45 -11.6 -1.1 -14.4 -1.1 -36.95 Q-2.65 -38.0 -2.25 -39.0 M-1.1 -36.95 L1.05 -36.95 -1.1 -36.95" fill="#c7e3e2" fill-opacity="0.3019608" fill-rule="evenodd" stroke="none"/>
      <path d="M-6.25 0.35 L-8.25 0.35 Q-9.0 -1.5 -8.25 -3.4 L-2.3 -14.4 -1.95 -37.05 -3.3 -37.75 Q-4.15 -38.4 -3.45 -38.95 L-2.25 -39.0 Q-2.65 -38.0 -1.1 -36.95 L-1.1 -14.4 -1.45 -11.6 -6.55 -2.6 Q-7.15 -1.6 -6.9 -0.65 L-6.25 0.35 M-1.95 -37.05 L-1.1 -36.95 -1.95 -37.05" fill="#defffe" fill-opacity="0.7019608" fill-rule="evenodd" stroke="none"/>
      <path d="M2.1 -39.0 L3.55 -38.95 Q4.25 -38.4 3.35 -37.75 L1.95 -37.05 2.2 -14.4 7.55 -3.4 Q9.2 -1.45 7.7 0.35 L-6.25 0.35 -8.25 0.35 Q-9.0 -1.5 -8.25 -3.4 L-2.3 -14.4 -1.95 -37.05 M-3.3 -37.75 Q-4.15 -38.4 -3.45 -38.95 L-2.25 -39.0 2.1 -39.0" fill="none" stroke="#3b5424" stroke-linecap="round" stroke-linejoin="round" stroke-opacity="0.3019608" stroke-width="0.8"/>
      <path d="M-1.95 -37.05 L-3.3 -37.75 M1.05 -36.95 L1.95 -37.05 M1.05 -36.95 L-1.1 -36.95 -1.95 -37.05" fill="none" stroke="#3b5424" stroke-linecap="round" stroke-linejoin="round" stroke-opacity="0.2" stroke-width="0.5"/>
    </g>
    <g id="decoration91-sprite0" transform="matrix(1.0, 0.0, 0.0, 1.0, 0.15, 0.15)">
      <use height="6.1" transform="matrix(1.0, 0.0, 0.0, 1.0, -0.15, -0.15)" width="10.8" xlink:href="#decoration91-shape1"/>
    </g>
    <g id="decoration91-shape1" transform="matrix(1.0, 0.0, 0.0, 1.0, 0.15, 0.15)">
      <path d="M0.5 3.35 L2.15 0.0 8.35 0.0 10.2 3.5 Q10.85 4.65 10.2 5.8 L0.5 5.8 Q-0.45 4.75 0.5 3.35" fill="#808080" fill-rule="evenodd" stroke="none"/>
      <path d="M0.5 3.35 L2.15 0.0 8.35 0.0 10.2 3.5 Q10.85 4.65 10.2 5.8 L0.5 5.8 Q-0.45 4.75 0.5 3.35 Z" fill="none" stroke="#000000" stroke-linecap="round" stroke-linejoin="round" stroke-opacity="0.3019608" stroke-width="0.30000000000000004"/>
      <path d="M2.25 0.65 Q2.25 0.15 5.25 0.15 L8.0 0.45 8.3 0.65 Q8.35 1.05 5.25 1.15 L3.4 1.0 2.25 0.65" fill="#a1a1a1" fill-rule="evenodd" stroke="none"/>
      <path d="M8.3 0.65 L8.0 0.45 5.25 0.15 Q2.25 0.15 2.25 0.65" fill="none" stroke="#000000" stroke-linecap="round" stroke-linejoin="round" stroke-opacity="0.3019608" stroke-width="0.30000000000000004"/>
      <path d="M5.95 2.3 L6.4 2.45 6.55 2.9 6.4 3.25 5.95 3.4 5.55 3.25 5.4 2.9 Q5.4 2.65 5.55 2.45 5.7 2.3 5.95 2.3 M5.15 5.5 L4.95 5.55 4.65 5.5 4.55 5.2 4.65 4.9 4.95 4.8 5.15 4.9 5.3 5.2 5.15 5.5 M8.75 3.95 L9.0 4.4 8.75 4.9 8.3 5.1 7.75 4.9 Q7.6 4.7 7.6 4.4 7.6 4.2 7.75 3.95 L8.3 3.75 8.75 3.95 M2.2 3.95 L2.4 3.25 3.1 3.05 3.7 3.25 4.0 3.95 3.7 4.65 Q3.5 4.95 3.1 4.95 2.7 4.95 2.4 4.65 L2.2 3.95" fill="#a1a1a1" fill-rule="evenodd" stroke="none"/>
    </g>
    <g id="decoration91-sprite1" transform="matrix(1.0, 0.0, 0.0, 1.0, -2.6, 0.05)">
      <use height="116.85" transform="matrix(1.0, 0.0, 0.0, 1.0, 2.6, -0.05)" width="220.6" xlink:href="#decoration91-shape2"/>
    </g>
    <g id="decoration91-shape2" transform="matrix(1.0, 0.0, 0.0, 1.0, -2.6, 0.05)">
      <path d="M216.6 72.9 Q209.6 82.3 197.3 90.5 165.65 111.5 112.85 116.1 61.0 120.6 28.05 95.7 15.85 86.45 8.7 74.85 2.6 65.0 2.6 58.05 2.6 51.0 7.9 41.95 14.25 31.1 25.85 22.35 57.15 -1.2 112.85 0.0 173.9 1.15 201.1 17.6 224.7 31.9 223.1 58.05 222.7 64.7 216.6 72.9" fill="url(#decoration91-gradient0)" fill-rule="evenodd" stroke="none"/>
    </g>
    <radialGradient cx="0" cy="0" gradientTransform="matrix(0.0971, 0.0, 0.0, 0.0572, 109.5, 53.65)" gradientUnits="userSpaceOnUse" id="decoration91-gradient0" r="819.2" spreadMethod="pad">
      <stop offset="0.0" stop-color="#cdfdff" stop-opacity="0.45882353"/>
      <stop offset="0.19607843137254902" stop-color="#dafdff" stop-opacity="0.34117648"/>
      <stop offset="1.0" stop-color="#ffffff" stop-opacity="0.0"/>
    </radialGradient>
  </defs>
</svg>
