<?xml version="1.0" encoding="UTF-8" standalone="no"?>
<svg xmlns:xlink="http://www.w3.org/1999/xlink" height="61.85px" width="79.5px" xmlns="http://www.w3.org/2000/svg">
  <g transform="matrix(1.0, 0.0, 0.0, 1.0, 39.65, 59.7)">
    <use height="54.45" transform="matrix(1.0, 0.0, 0.0, 1.0, -30.45, -52.3)" width="70.3" xlink:href="#decoration93-shape0"/>
    <use height="9.6" id="decoration93-Couleur2_10A61D" filter="url(#decoration93-filter2)" transform="matrix(0.6443, 0.0, 0.0, 0.7731, 18.5034, -18.466)" width="22.4" xlink:href="#decoration93-sprite0"/>
    <use height="61.5" transform="matrix(1.0, 0.0, 0.0, 1.0, -39.65, -59.7)" width="74.8" xlink:href="#decoration93-shape2"/>
    <use height="9.6" id="decoration93-Couleur0_018585" filter="url(#decoration93-filter0)" transform="matrix(1.0, 0.0, 0.0, 1.0, -17.55, -14.9)" width="22.4" xlink:href="#decoration93-sprite0"/>
    <use height="6.5" transform="matrix(1.0, 0.0, 0.0, 1.0, -19.6, -6.4)" width="25.45" xlink:href="#decoration93-shape3"/>
    <use height="9.6" id="decoration93-Couleur1_C26900" filter="url(#decoration93-filter1)" transform="matrix(0.4631, 0.0, 0.0, 0.5249, -11.5195, -53.2287)" width="22.4" xlink:href="#decoration93-sprite0"/>
    <use height="6.1" id="decoration93-Couleur3_A3468E" filter="url(#decoration93-filter3)" transform="matrix(1.0, 0.0, 0.0, 1.0, -38.2, -5.6)" width="10.8" xlink:href="#decoration93-sprite1"/>
    <use height="116.85" transform="matrix(0.0147, -0.0303, 0.0495, 0.0174, -11.0642, -16.4298)" width="220.6" xlink:href="#decoration93-sprite2"/>
    <use height="116.85" transform="matrix(0.0103, -0.0213, 0.0347, 0.0122, 22.6751, -19.156)" width="220.6" xlink:href="#decoration93-sprite2"/>
    <use height="116.85" transform="matrix(0.0103, -0.0213, 0.0347, 0.0122, -34.8249, -3.506)" width="220.6" xlink:href="#decoration93-sprite2"/>
  </g>
  <defs>
    <g id="decoration93-shape0" transform="matrix(1.0, 0.0, 0.0, 1.0, 30.45, 52.3)">
      <path d="M-29.95 -51.8 L-29.95 -30.75 -10.0 -30.75 M-29.95 -30.75 L-29.95 0.45 6.3 0.45" fill="none" stroke="#2a2a2a" stroke-linecap="round" stroke-linejoin="round" stroke-opacity="0.8" stroke-width="1.0"/>
      <path d="M2.7 -23.95 Q5.85 -20.5 5.85 -15.75 5.85 -10.55 2.25 -7.05 -1.3 -3.45 -6.45 -3.45 -11.5 -3.45 -15.1 -7.05 -18.7 -10.55 -18.7 -15.75 L-18.7 -16.15 Q-18.15 -12.7 -15.55 -10.1 -12.15 -6.75 -7.4 -6.75 -2.6 -6.75 0.7 -10.1 4.15 -13.4 4.15 -18.25 4.15 -21.35 2.7 -23.95" fill="#7eaaa8" fill-opacity="0.65882355" fill-rule="evenodd" stroke="none"/>
      <path d="M0.5 -25.9 L2.25 -24.4 2.7 -23.95 Q4.15 -21.35 4.15 -18.25 4.15 -13.4 0.7 -10.1 -2.6 -6.75 -7.4 -6.75 -12.15 -6.75 -15.55 -10.1 -18.15 -12.7 -18.7 -16.15 -16.65 -20.95 -14.5 -22.55 -9.7 -26.05 -6.1 -26.45 L0.5 -25.9" fill="#c7e3e2" fill-opacity="0.3019608" fill-rule="evenodd" stroke="none"/>
      <path d="M-18.7 -16.15 Q-18.55 -20.95 -15.1 -24.4 -11.5 -28.05 -6.45 -28.05 L-3.4 -27.6 Q-1.3 -27.15 0.5 -25.9 L-6.1 -26.45 Q-9.7 -26.05 -14.5 -22.55 -16.65 -20.95 -18.7 -16.15" fill="#defffe" fill-opacity="0.7019608" fill-rule="evenodd" stroke="none"/>
      <path d="M2.7 -23.95 Q5.85 -20.5 5.85 -15.75 5.85 -10.55 2.25 -7.05 -1.3 -3.45 -6.45 -3.45 -11.5 -3.45 -15.1 -7.05 -18.7 -10.55 -18.7 -15.75 L-18.7 -16.15 Q-18.55 -20.95 -15.1 -24.4 -11.5 -28.05 -6.45 -28.05 L-3.4 -27.6 Q-1.3 -27.15 0.5 -25.9 L2.25 -24.4 2.7 -23.95 Z" fill="none" stroke="#3b5424" stroke-linecap="round" stroke-linejoin="round" stroke-opacity="0.3019608" stroke-width="1.0"/>
      <path d="M-9.8 -25.9 Q-8.65 -25.9 -8.1 -24.95 -7.45 -24.15 -7.8 -22.75 -8.2 -21.55 -9.2 -20.7 -10.2 -19.85 -11.3 -19.8 -12.5 -19.95 -13.1 -20.75 -13.65 -21.65 -13.3 -22.85 -13.0 -24.2 -12.05 -25.0 -11.0 -25.9 -9.8 -25.9 M-16.35 -17.0 Q-16.7 -17.45 -16.55 -18.1 L-15.9 -19.0 -14.75 -19.15 Q-14.1 -19.0 -13.9 -18.45 -13.55 -17.95 -13.8 -17.3 -13.95 -16.75 -14.45 -16.4 L-15.5 -16.35 -16.35 -17.0" fill="#ffffff" fill-opacity="0.32156864" fill-rule="evenodd" stroke="none"/>
      <path d="M-7.1 -47.05 L-6.85 -47.6 -6.4 -47.85 -6.25 -47.85 -5.8 -47.6 -5.55 -47.05 -5.55 -21.9 -5.8 -21.35 Q-5.95 -21.2 -6.25 -21.2 L-6.4 -21.2 -6.85 -21.35 -7.1 -21.9 -7.1 -47.05" fill="#c7e3e2" fill-opacity="0.3019608" fill-rule="evenodd" stroke="none"/>
      <path d="M-7.1 -47.05 L-7.1 -21.9 -6.85 -21.35 -6.4 -21.2 -6.25 -21.2 Q-5.95 -21.2 -5.8 -21.35 L-5.55 -21.9 -5.55 -47.05 -5.8 -47.6 -6.25 -47.85 -6.4 -47.85 -6.85 -47.6 -7.1 -47.05 Z" fill="none" stroke="#3b5424" stroke-linecap="round" stroke-linejoin="round" stroke-opacity="0.3019608" stroke-width="0.5"/>
      <path d="M-5.1 -38.95 L-9.45 -39.05 -10.35 -39.3 -7.1 -39.5 -3.1 -39.2 -5.1 -38.95" fill="#f0c384" fill-rule="evenodd" stroke="none"/>
      <path d="M-5.1 -38.95 L-3.1 -39.2 -4.05 -34.3 Q-4.55 -33.0 -5.65 -32.95 -4.55 -37.75 -5.1 -38.95" fill="#4d381b" fill-rule="evenodd" stroke="none"/>
      <path d="M-9.45 -39.05 L-5.1 -38.95 Q-4.55 -37.75 -5.65 -32.95 L-7.6 -33.1 -9.45 -39.05" fill="#966f36" fill-rule="evenodd" stroke="none"/>
      <path d="M-10.35 -39.3 L-9.45 -39.05 -7.6 -33.1 -8.5 -33.9 -10.35 -39.3" fill="#cc9449" fill-rule="evenodd" stroke="none"/>
      <path d="M-3.1 -39.2 L-7.1 -39.5 -10.35 -39.3 M-7.6 -33.1 L-5.65 -32.95 M-3.1 -39.2 L-4.05 -34.3 Q-4.55 -33.0 -5.65 -32.95 M-7.6 -33.1 L-8.5 -33.9 -10.35 -39.3" fill="none" stroke="#000000" stroke-linecap="round" stroke-linejoin="round" stroke-opacity="0.3019608" stroke-width="0.05"/>
      <path d="M-5.25 -25.3 L-8.15 -25.4 -8.15 -35.25 -5.25 -35.25 -5.25 -25.3 M-9.7 -38.0 Q-6.7 -38.2 -3.7 -38.0 -3.4 -36.45 -5.25 -35.25 L-8.15 -35.25 Q-10.2 -36.6 -9.7 -38.0" fill="#c7e3e2" fill-opacity="0.3019608" fill-rule="evenodd" stroke="none"/>
      <path d="M-3.7 -38.0 L-1.8 -37.85 Q-0.8 -37.05 -2.05 -36.3 L-3.55 -35.4 -3.55 -26.2 Q-4.35 -25.6 -5.25 -25.3 L-5.25 -35.25 Q-3.4 -36.45 -3.7 -38.0 M-3.55 -35.4 L-5.25 -35.25 -3.55 -35.4" fill="#7eaaa8" fill-opacity="0.65882355" fill-rule="evenodd" stroke="none"/>
      <path d="M-8.15 -25.4 L-9.75 -26.2 -9.75 -35.4 -11.2 -36.3 Q-12.35 -37.05 -11.45 -37.85 L-9.7 -38.0 Q-10.2 -36.6 -8.15 -35.25 L-8.15 -25.4 M-8.15 -35.25 L-9.75 -35.4 -8.15 -35.25" fill="#defffe" fill-opacity="0.7019608" fill-rule="evenodd" stroke="none"/>
      <path d="M-3.7 -38.0 L-1.8 -37.85 Q-0.8 -37.05 -2.05 -36.3 L-3.55 -35.4 -3.55 -26.2 M-9.75 -26.2 L-9.75 -35.4 -11.2 -36.3 Q-12.35 -37.05 -11.45 -37.85 L-9.7 -38.0 Q-6.7 -38.2 -3.7 -38.0" fill="none" stroke="#3b5424" stroke-linecap="round" stroke-linejoin="round" stroke-opacity="0.3019608" stroke-width="0.8"/>
      <path d="M-3.55 -26.2 Q-4.35 -25.6 -5.25 -25.3 L-8.15 -25.4 -9.75 -26.2 M-5.25 -35.25 L-3.55 -35.4 M-8.15 -35.25 L-5.25 -35.25 M-9.75 -35.4 L-8.15 -35.25" fill="none" stroke="#3b5424" stroke-linecap="round" stroke-linejoin="round" stroke-opacity="0.2" stroke-width="0.5"/>
      <path d="M8.85 -34.9 L11.25 -32.75 13.85 -29.7 12.25 -30.95 Q10.55 -32.5 9.25 -34.15 L8.85 -34.9" fill="#f0c384" fill-rule="evenodd" stroke="none"/>
      <path d="M6.35 -28.6 L6.3 -29.8 8.85 -34.9 9.25 -34.15 6.35 -28.6" fill="#cc9449" fill-rule="evenodd" stroke="none"/>
      <path d="M7.55 -27.15 L6.35 -28.6 9.25 -34.15 Q10.55 -32.5 12.25 -30.95 11.8 -29.75 7.55 -27.15" fill="#966f36" fill-rule="evenodd" stroke="none"/>
      <path d="M13.85 -29.7 L9.7 -26.95 Q8.45 -26.4 7.55 -27.15 11.8 -29.75 12.25 -30.95 L13.85 -29.7" fill="#4d381b" fill-rule="evenodd" stroke="none"/>
      <path d="M6.35 -28.6 L6.3 -29.8 8.85 -34.9 11.25 -32.75 13.85 -29.7 9.7 -26.95 Q8.45 -26.4 7.55 -27.15 L6.35 -28.6 Z" fill="none" stroke="#000000" stroke-linecap="round" stroke-linejoin="round" stroke-opacity="0.3019608" stroke-width="0.05"/>
      <path d="M8.4 -33.55 Q7.0 -33.0 7.55 -30.55 L6.5 -31.8 7.55 -30.55 0.5 -23.6 Q0.1 -24.45 -0.05 -25.35 L6.5 -31.8 6.1 -33.45 Q5.85 -34.9 7.0 -34.7 L8.4 -33.55" fill="#defffe" fill-opacity="0.7019608" fill-rule="evenodd" stroke="none"/>
      <path d="M9.55 -28.5 L7.55 -30.55 9.55 -28.5 2.45 -21.5 Q1.15 -22.25 0.5 -23.6 L7.55 -30.55 Q7.0 -33.0 8.4 -33.55 10.65 -31.6 12.55 -29.3 11.7 -28.05 9.55 -28.5" fill="#c7e3e2" fill-opacity="0.3019608" fill-rule="evenodd" stroke="none"/>
      <path d="M9.55 -28.5 Q11.7 -28.05 12.55 -29.3 L13.75 -27.85 Q13.95 -26.65 12.5 -26.9 L10.85 -27.4 4.3 -20.95 Q3.25 -21.05 2.45 -21.5 L9.55 -28.5 10.85 -27.4 9.55 -28.5" fill="#7eaaa8" fill-opacity="0.65882355" fill-rule="evenodd" stroke="none"/>
      <path d="M7.55 -30.55 L9.55 -28.5 10.85 -27.4 M7.55 -30.55 L6.5 -31.8 M-0.05 -25.35 Q0.1 -24.45 0.5 -23.6 M4.3 -20.95 Q3.25 -21.05 2.45 -21.5 1.15 -22.25 0.5 -23.6" fill="none" stroke="#3b5424" stroke-linecap="round" stroke-linejoin="round" stroke-opacity="0.2" stroke-width="0.5"/>
      <path d="M12.55 -29.3 Q10.65 -31.6 8.4 -33.55 M6.5 -31.8 L-0.05 -25.35 M6.5 -31.8 L6.1 -33.45 Q5.85 -34.9 7.0 -34.7 L8.4 -33.55 M12.55 -29.3 L13.75 -27.85 Q13.95 -26.65 12.5 -26.9 L10.85 -27.4 4.3 -20.95" fill="none" stroke="#3b5424" stroke-linecap="round" stroke-linejoin="round" stroke-opacity="0.3019608" stroke-width="0.8"/>
      <path d="M-27.85 -29.65 Q-27.7 -30.35 -25.3 -32.75 -22.95 -35.2 -22.9 -34.85 L-23.35 -34.05 -26.35 -30.9 -27.85 -29.65" fill="#f0c384" fill-rule="evenodd" stroke="none"/>
      <path d="M-22.9 -34.85 L-20.3 -29.8 -20.4 -28.6 -23.35 -34.05 -22.9 -34.85" fill="#cc9449" fill-rule="evenodd" stroke="none"/>
      <path d="M-21.7 -27.15 Q-22.55 -26.35 -23.75 -27.0 L-27.85 -29.65 -26.35 -30.9 Q-25.95 -29.7 -21.7 -27.15" fill="#4d381b" fill-rule="evenodd" stroke="none"/>
      <path d="M-20.4 -28.6 L-21.7 -27.15 Q-25.95 -29.7 -26.35 -30.9 L-23.35 -34.05 -20.4 -28.6" fill="#966f36" fill-rule="evenodd" stroke="none"/>
      <path d="M-27.85 -29.65 Q-27.7 -30.35 -25.3 -32.75 -22.95 -35.2 -22.9 -34.85 L-20.3 -29.8 -20.4 -28.6 -21.7 -27.15 Q-22.55 -26.35 -23.75 -27.0 L-27.85 -29.65 Z" fill="none" stroke="#000000" stroke-linecap="round" stroke-linejoin="round" stroke-opacity="0.3019608" stroke-width="0.05"/>
      <path d="M-22.5 -33.5 L-21.05 -34.6 Q-19.9 -34.85 -20.25 -33.4 L-20.55 -31.75 -21.6 -30.5 -20.55 -31.75 -14.05 -25.3 -14.55 -23.6 -21.6 -30.5 Q-21.1 -32.95 -22.5 -33.5" fill="#defffe" fill-opacity="0.7019608" fill-rule="evenodd" stroke="none"/>
      <path d="M-16.45 -21.45 L-18.4 -20.9 -24.9 -27.3 -26.6 -26.9 Q-28.05 -26.6 -27.85 -27.8 L-26.65 -29.3 Q-25.8 -27.95 -23.6 -28.45 L-16.45 -21.45 M-23.6 -28.45 L-24.9 -27.3 -23.6 -28.45" fill="#7eaaa8" fill-opacity="0.65882355" fill-rule="evenodd" stroke="none"/>
      <path d="M-22.5 -33.5 Q-21.1 -32.95 -21.6 -30.5 L-23.6 -28.45 -21.6 -30.5 -14.55 -23.6 Q-15.25 -22.15 -16.45 -21.45 L-23.6 -28.45 Q-25.8 -27.95 -26.65 -29.3 -24.75 -31.55 -22.5 -33.5" fill="#c7e3e2" fill-opacity="0.3019608" fill-rule="evenodd" stroke="none"/>
      <path d="M-20.55 -31.75 L-20.25 -33.4 Q-19.9 -34.85 -21.05 -34.6 L-22.5 -33.5 M-20.55 -31.75 L-14.05 -25.3 M-18.4 -20.9 L-24.9 -27.3 -26.6 -26.9 Q-28.05 -26.6 -27.85 -27.8 L-26.65 -29.3 Q-24.75 -31.55 -22.5 -33.5" fill="none" stroke="#3b5424" stroke-linecap="round" stroke-linejoin="round" stroke-opacity="0.3019608" stroke-width="0.8"/>
      <path d="M-21.6 -30.5 L-20.55 -31.75 M-14.05 -25.3 L-14.55 -23.6 Q-15.25 -22.15 -16.45 -21.45 L-18.4 -20.9 M-21.6 -30.5 L-23.6 -28.45 M-24.9 -27.3 L-23.6 -28.45" fill="none" stroke="#3b5424" stroke-linecap="round" stroke-linejoin="round" stroke-opacity="0.2" stroke-width="0.5"/>
      <path d="M33.25 0.35 L31.5 0.9 30.1 -13.7 36.4 1.0 39.35 1.0 M22.25 -13.45 L19.9 0.9 17.9 0.6 M21.4 -13.3 L13.15 1.65 10.05 1.65" fill="none" stroke="#2a2a2a" stroke-linecap="round" stroke-linejoin="round" stroke-opacity="0.8" stroke-width="1.0"/>
      <path d="M17.75 -17.85 Q17.9 -20.7 20.1 -22.8 22.35 -24.9 25.55 -24.9 L27.6 -24.65 Q28.85 -24.4 30.0 -23.65 L25.8 -24.0 Q23.55 -23.8 20.5 -21.7 19.1 -20.7 17.75 -17.85" fill="#defffe" fill-opacity="0.7019608" fill-rule="evenodd" stroke="none"/>
      <path d="M31.45 -22.45 Q33.4 -20.45 33.4 -17.6 33.4 -14.55 31.1 -12.45 28.85 -10.25 25.55 -10.25 22.35 -10.25 20.1 -12.45 17.75 -14.55 17.75 -17.6 L17.75 -17.85 Q18.15 -15.8 19.75 -14.25 21.95 -12.3 24.95 -12.3 28.1 -12.3 30.2 -14.25 32.4 -16.25 32.4 -19.1 32.4 -20.95 31.45 -22.45" fill="#7eaaa8" fill-opacity="0.65882355" fill-rule="evenodd" stroke="none"/>
      <path d="M30.0 -23.65 L31.1 -22.8 31.45 -22.45 Q32.4 -20.95 32.4 -19.1 32.4 -16.25 30.2 -14.25 28.1 -12.3 24.95 -12.3 21.95 -12.3 19.75 -14.25 18.15 -15.8 17.75 -17.85 19.1 -20.7 20.5 -21.7 23.55 -23.8 25.8 -24.0 L30.0 -23.65" fill="#c7e3e2" fill-opacity="0.3019608" fill-rule="evenodd" stroke="none"/>
      <path d="M17.75 -17.85 Q17.9 -20.7 20.1 -22.8 22.35 -24.9 25.55 -24.9 L27.6 -24.65 Q28.85 -24.4 30.0 -23.65 L31.1 -22.8 31.45 -22.45 Q33.4 -20.45 33.4 -17.6 33.4 -14.55 31.1 -12.45 28.85 -10.25 25.55 -10.25 22.35 -10.25 20.1 -12.45 17.75 -14.55 17.75 -17.6 L17.75 -17.85 Z" fill="none" stroke="#3b5424" stroke-linecap="round" stroke-linejoin="round" stroke-opacity="0.3019608" stroke-width="0.5"/>
      <path d="M19.85 -19.9 L20.55 -20.0 21.1 -19.6 Q21.3 -19.3 21.15 -18.9 L20.75 -18.4 20.1 -18.35 19.55 -18.7 Q19.3 -19.0 19.45 -19.4 L19.85 -19.9 M24.8 -23.45 Q25.2 -23.0 25.0 -22.15 24.75 -21.45 24.1 -20.9 L22.75 -20.4 Q22.0 -20.5 21.6 -20.95 21.25 -21.5 21.45 -22.2 21.7 -23.0 22.3 -23.5 22.95 -24.05 23.7 -24.05 24.45 -24.05 24.8 -23.45" fill="#ffffff" fill-opacity="0.32156864" fill-rule="evenodd" stroke="none"/>
    </g>
    <g id="decoration93-sprite0" transform="matrix(1.0, 0.0, 0.0, 1.0, 0.15, 0.15)">
      <use height="9.6" transform="matrix(1.0, 0.0, 0.0, 1.0, -0.15, -0.15)" width="22.4" xlink:href="#decoration93-shape1"/>
    </g>
    <g id="decoration93-shape1" transform="matrix(1.0, 0.0, 0.0, 1.0, 0.15, 0.15)">
      <path d="M0.0 0.65 L3.2 0.15 Q6.45 0.0 11.05 0.0 15.65 0.0 18.9 0.15 L22.1 0.7 22.0 0.8 18.9 1.1 11.05 1.35 3.2 1.1 0.0 0.65 M10.9 3.7 L11.15 4.15 10.9 4.65 10.35 4.9 9.75 4.65 Q9.6 4.5 9.6 4.15 9.6 3.95 9.75 3.7 L10.35 3.45 Q10.75 3.45 10.9 3.7 M12.95 3.55 L13.05 3.2 Q13.2 3.05 13.4 3.05 L13.8 3.2 14.05 3.55 13.8 3.85 13.4 4.0 13.05 3.85 12.95 3.55 M14.1 6.0 Q14.45 6.35 14.45 6.75 14.45 7.2 14.1 7.45 L13.35 7.8 Q12.9 7.8 12.5 7.45 12.2 7.2 12.2 6.75 12.2 6.35 12.5 6.0 12.9 5.7 13.35 5.7 13.75 5.7 14.1 6.0" fill="#989898" fill-rule="evenodd" stroke="none"/>
      <path d="M22.0 0.8 Q21.8 4.15 18.8 6.65 15.55 9.3 10.95 9.3 6.45 9.3 3.2 6.65 0.15 4.1 0.0 0.65 L3.2 1.1 11.05 1.35 18.9 1.1 22.0 0.8 M14.1 6.0 Q13.75 5.7 13.35 5.7 12.9 5.7 12.5 6.0 12.2 6.35 12.2 6.75 12.2 7.2 12.5 7.45 12.9 7.8 13.35 7.8 L14.1 7.45 Q14.45 7.2 14.45 6.75 14.45 6.35 14.1 6.0 M12.95 3.55 L13.05 3.85 13.4 4.0 13.8 3.85 14.05 3.55 13.8 3.2 13.4 3.05 Q13.2 3.05 13.05 3.2 L12.95 3.55 M10.9 3.7 Q10.75 3.45 10.35 3.45 L9.75 3.7 Q9.6 3.95 9.6 4.15 9.6 4.5 9.75 4.65 L10.35 4.9 10.9 4.65 11.15 4.15 10.9 3.7" fill="url(#decoration93-gradient0)" fill-rule="evenodd" stroke="none"/>
      <path d="M0.0 0.65 L3.2 0.15 Q6.45 0.0 11.05 0.0 15.65 0.0 18.9 0.15 L22.1 0.7 22.0 0.8 Q21.8 4.15 18.8 6.65 15.55 9.3 10.95 9.3 6.45 9.3 3.2 6.65 0.15 4.1 0.0 0.65 Z" fill="none" stroke="#000000" stroke-linecap="round" stroke-linejoin="round" stroke-opacity="0.3019608" stroke-width="0.30000000000000004"/>
      <path d="M20.15 1.65 Q21.15 1.5 21.25 2.6 L21.25 3.0 Q20.95 4.2 19.15 6.15 18.55 6.7 16.15 7.6 14.95 7.9 14.6 8.15 L15.7 6.85 Q17.1 5.2 17.9 3.55 18.85 1.75 20.15 1.65" fill="#989898" fill-opacity="0.85882354" fill-rule="evenodd" stroke="none"/>
    </g>
    <linearGradient gradientTransform="matrix(0.0074, -0.0053, 0.0035, 0.0042, 14.25, 3.85)" gradientUnits="userSpaceOnUse" id="decoration93-gradient0" spreadMethod="pad" x1="-819.2" x2="819.2">
      <stop offset="0.00392156862745098" stop-color="#808080"/>
      <stop offset="1.0" stop-color="#3f3f3f"/>
    </linearGradient>
    <g id="decoration93-shape2" transform="matrix(1.0, 0.0, 0.0, 1.0, 39.65, 59.7)">
      <path d="M27.2 -31.8 L26.0 -31.65 23.45 -31.7 22.9 -31.85 24.8 -32.0 27.2 -31.8" fill="#f0c384" fill-rule="evenodd" stroke="none"/>
      <path d="M26.0 -31.65 L27.2 -31.8 26.65 -28.85 Q26.35 -28.1 25.7 -28.05 26.35 -30.9 26.0 -31.65" fill="#4d381b" fill-rule="evenodd" stroke="none"/>
      <path d="M22.9 -31.85 L23.45 -31.7 24.55 -28.15 24.0 -28.65 22.9 -31.85" fill="#cc9449" fill-rule="evenodd" stroke="none"/>
      <path d="M23.45 -31.7 L26.0 -31.65 Q26.35 -30.9 25.7 -28.05 L24.55 -28.15 23.45 -31.7" fill="#966f36" fill-rule="evenodd" stroke="none"/>
      <path d="M27.2 -31.8 L24.8 -32.0 22.9 -31.85 M25.7 -28.05 Q26.35 -28.1 26.65 -28.85 L27.2 -31.8 M24.55 -28.15 L24.0 -28.65 22.9 -31.85 M24.55 -28.15 L25.7 -28.05" fill="none" stroke="#000000" stroke-linecap="round" stroke-linejoin="round" stroke-opacity="0.3019608" stroke-width="0.05"/>
      <path d="M26.9 -31.15 L28.0 -31.05 Q28.55 -30.55 27.8 -30.15 L26.95 -29.65 26.95 -24.15 25.95 -23.55 25.95 -29.45 Q27.05 -30.2 26.9 -31.15 M26.95 -29.65 L25.95 -29.45 26.95 -29.65" fill="#7eaaa8" fill-opacity="0.65882355" fill-rule="evenodd" stroke="none"/>
      <path d="M24.2 -23.55 L23.25 -24.15 23.25 -29.65 22.45 -30.15 Q21.65 -30.55 22.25 -31.05 L23.25 -31.15 Q22.95 -30.3 24.2 -29.45 L24.2 -23.55 M24.2 -29.45 L23.25 -29.65 24.2 -29.45" fill="#defffe" fill-opacity="0.7019608" fill-rule="evenodd" stroke="none"/>
      <path d="M25.95 -23.55 Q25.05 -23.3 24.2 -23.55 L24.2 -29.45 Q22.95 -30.3 23.25 -31.15 L26.9 -31.15 Q27.05 -30.2 25.95 -29.45 L24.2 -29.45 25.95 -29.45 25.95 -23.55" fill="#c7e3e2" fill-opacity="0.3019608" fill-rule="evenodd" stroke="none"/>
      <path d="M26.9 -31.15 L28.0 -31.05 Q28.55 -30.55 27.8 -30.15 L26.95 -29.65 26.95 -24.15 M23.25 -24.15 L23.25 -29.65 22.45 -30.15 Q21.65 -30.55 22.25 -31.05 L23.25 -31.15 26.9 -31.15" fill="none" stroke="#3b5424" stroke-linecap="round" stroke-linejoin="round" stroke-opacity="0.3019608" stroke-width="0.5"/>
      <path d="M26.95 -24.15 L25.95 -23.55 Q25.05 -23.3 24.2 -23.55 L23.25 -24.15 M25.95 -29.45 L26.95 -29.65 M23.25 -29.65 L24.2 -29.45 25.95 -29.45" fill="none" stroke="#3b5424" stroke-linecap="round" stroke-linejoin="round" stroke-opacity="0.2" stroke-width="0.2"/>
      <path d="M27.9 -36.55 L27.9 -35.25 27.85 -35.25 Q25.6 -35.1 25.85 -31.85 25.15 -31.4 24.4 -31.85 24.3 -34.15 25.75 -35.6 26.7 -36.55 27.9 -36.55 M30.95 -31.85 L32.25 -31.85 32.05 -30.5 Q31.1 -26.2 26.9 -25.6 22.8 -25.0 19.25 -27.2 15.9 -29.35 13.25 -32.2 L12.45 -33.15 11.55 -35.0 11.25 -35.7 12.55 -35.7 13.55 -33.8 14.25 -32.7 Q15.2 -31.5 16.85 -30.2 20.1 -27.5 23.4 -26.85 29.5 -25.55 30.8 -30.4 L30.95 -31.85 M13.45 -40.5 L13.45 -41.6 Q14.15 -41.6 15.4 -40.5 L14.75 -39.35 Q14.0 -40.75 13.45 -40.5" fill="#432d0b" fill-rule="evenodd" stroke="none"/>
      <path d="M27.9 -35.25 L27.9 -36.55 Q29.3 -36.6 31.05 -35.45 32.5 -34.6 32.25 -31.85 L30.95 -31.85 30.5 -33.8 Q29.6 -35.25 27.9 -35.25 M12.55 -35.7 L11.25 -35.7 Q10.1 -38.3 11.5 -40.95 12.55 -41.75 13.45 -41.6 L13.45 -40.5 12.95 -40.3 Q11.65 -39.35 12.1 -37.15 12.25 -36.45 12.55 -35.7" fill="#5f400f" fill-rule="evenodd" stroke="none"/>
      <path d="M14.25 -32.7 L13.55 -33.8 Q15.05 -34.55 14.75 -39.35 L15.4 -40.5 Q17.05 -36.05 14.25 -32.7 M12.45 -33.15 L13.25 -32.2 12.1 -31.25 10.95 -32.4 12.45 -33.15" fill="#251701" fill-rule="evenodd" stroke="none"/>
      <path d="M27.9 -36.55 Q26.7 -36.55 25.75 -35.6 24.3 -34.15 24.4 -31.85 25.15 -31.4 25.85 -31.85 25.6 -35.1 27.85 -35.25 L27.9 -35.25 Q29.6 -35.25 30.5 -33.8 L30.95 -31.85 30.8 -30.4 Q29.5 -25.55 23.4 -26.85 20.1 -27.5 16.85 -30.2 15.2 -31.5 14.25 -32.7 L13.55 -33.8 12.55 -35.7 Q12.25 -36.45 12.1 -37.15 11.65 -39.35 12.95 -40.3 L13.45 -40.5 Q14.0 -40.75 14.75 -39.35 15.05 -34.55 13.55 -33.8 M32.25 -31.85 Q32.5 -34.6 31.05 -35.45 29.3 -36.6 27.9 -36.55 M11.25 -35.7 L11.55 -35.0 12.45 -33.15 13.25 -32.2 Q15.9 -29.35 19.25 -27.2 22.8 -25.0 26.9 -25.6 31.1 -26.2 32.05 -30.5 L32.25 -31.85 M13.45 -41.6 Q12.55 -41.75 11.5 -40.95 10.1 -38.3 11.25 -35.7 M15.4 -40.5 Q14.15 -41.6 13.45 -41.6 M15.4 -40.5 Q17.05 -36.05 14.25 -32.7 M12.45 -33.15 L10.95 -32.4 12.1 -31.25 13.25 -32.2" fill="none" stroke="#000000" stroke-linecap="round" stroke-linejoin="round" stroke-opacity="0.3019608" stroke-width="0.30000000000000004"/>
      <path d="M-31.55 -18.15 L-35.05 -18.25 -35.8 -18.4 -33.15 -18.6 -29.85 -18.35 -31.55 -18.15" fill="#f0c384" fill-rule="evenodd" stroke="none"/>
      <path d="M-35.05 -18.25 L-31.55 -18.15 Q-31.05 -17.2 -32.0 -13.25 L-33.55 -13.4 -35.05 -18.25" fill="#966f36" fill-rule="evenodd" stroke="none"/>
      <path d="M-31.55 -18.15 L-29.85 -18.35 -30.7 -14.4 Q-31.05 -13.3 -32.0 -13.25 -31.05 -17.2 -31.55 -18.15" fill="#4d381b" fill-rule="evenodd" stroke="none"/>
      <path d="M-35.8 -18.4 L-35.05 -18.25 -33.55 -13.4 -34.3 -14.0 -35.8 -18.4" fill="#cc9449" fill-rule="evenodd" stroke="none"/>
      <path d="M-29.85 -18.35 L-33.15 -18.6 -35.8 -18.4 M-33.55 -13.4 L-32.0 -13.25 M-29.85 -18.35 L-30.7 -14.4 Q-31.05 -13.3 -32.0 -13.25 M-33.55 -13.4 L-34.3 -14.0 -35.8 -18.4" fill="none" stroke="#000000" stroke-linecap="round" stroke-linejoin="round" stroke-opacity="0.3019608" stroke-width="0.05"/>
      <path d="M-30.55 -16.45 L-29.1 -16.4 Q-28.4 -15.85 -29.3 -15.25 L-30.7 -14.55 -30.7 -10.75 -26.9 -1.95 Q-25.65 -0.2 -26.8 1.4 L-37.4 1.4 -37.9 0.5 -32.6 0.5 Q-28.35 -0.4 -28.85 -3.55 L-31.6 -9.95 -31.6 -14.45 Q-30.3 -15.4 -30.55 -16.45 M-30.7 -14.55 L-31.6 -14.45 -30.7 -14.55" fill="#7eaaa8" fill-opacity="0.65882355" fill-rule="evenodd" stroke="none"/>
      <path d="M-37.4 1.4 L-38.95 1.4 Q-39.5 -0.25 -38.95 -1.95 L-34.65 -10.75 -34.6 -14.55 -35.95 -15.25 Q-36.8 -15.85 -36.1 -16.4 L-34.9 -16.45 Q-35.3 -15.45 -33.75 -14.45 L-33.75 -9.35 -37.65 -1.25 Q-38.1 -0.35 -37.9 0.5 L-37.4 1.4 M-34.6 -14.55 L-33.75 -14.45 -34.6 -14.55" fill="#defffe" fill-opacity="0.7019608" fill-rule="evenodd" stroke="none"/>
      <path d="M-34.9 -16.45 L-30.55 -16.45 Q-30.3 -15.4 -31.6 -14.45 L-33.75 -14.45 -31.6 -14.45 -31.6 -9.95 -28.85 -3.55 Q-28.35 -0.4 -32.6 0.5 L-37.9 0.5 Q-38.1 -0.35 -37.65 -1.25 L-33.75 -9.35 -33.75 -14.45 Q-35.3 -15.45 -34.9 -16.45" fill="#c7e3e2" fill-opacity="0.3019608" fill-rule="evenodd" stroke="none"/>
      <path d="M-30.55 -16.45 L-29.1 -16.4 Q-28.4 -15.85 -29.3 -15.25 L-30.7 -14.55 -30.7 -10.75 -26.9 -1.95 Q-25.65 -0.2 -26.8 1.4 L-37.4 1.4 -38.95 1.4 Q-39.5 -0.25 -38.95 -1.95 L-34.65 -10.75 -34.6 -14.55 M-35.95 -15.25 Q-36.8 -15.85 -36.1 -16.4 L-34.9 -16.45 -30.55 -16.45" fill="none" stroke="#3b5424" stroke-linecap="round" stroke-linejoin="round" stroke-opacity="0.3019608" stroke-width="0.8"/>
      <path d="M-34.6 -14.55 L-35.95 -15.25 M-31.6 -14.45 L-30.7 -14.55 M-31.6 -14.45 L-33.75 -14.45 -34.6 -14.55" fill="none" stroke="#3b5424" stroke-linecap="round" stroke-linejoin="round" stroke-opacity="0.2" stroke-width="0.5"/>
      <path d="M-34.2 -41.1 Q-30.3 -40.5 -27.05 -37.15 L-24.45 -33.3 Q-24.5 -32.35 -25.65 -31.95 -26.1 -33.85 -28.15 -36.25 -30.95 -39.2 -34.2 -39.8 L-34.2 -41.1 M-37.95 -38.75 Q-37.1 -36.75 -36.5 -36.3 L-35.3 -35.45 -33.2 -34.55 Q-31.15 -33.95 -31.1 -35.1 -31.0 -35.75 -31.85 -35.9 L-33.0 -37.3 Q-30.0 -37.7 -29.65 -35.0 -29.4 -34.1 -30.55 -33.3 -32.3 -32.25 -36.05 -34.3 L-37.1 -35.1 -39.1 -37.05 Q-39.5 -37.6 -39.5 -38.6 L-39.5 -38.75 -37.95 -38.75 M-36.5 -32.55 L-36.45 -31.65 Q-36.2 -30.05 -34.9 -28.75 L-34.9 -27.0 -35.2 -27.3 Q-37.75 -29.25 -37.8 -31.25 L-36.5 -32.55 M-31.85 -24.15 L-32.15 -22.25 -32.15 -18.5 -33.6 -18.5 -33.6 -22.15 Q-33.3 -23.25 -33.3 -24.15 L-31.85 -24.15" fill="#432d0b" fill-rule="evenodd" stroke="none"/>
      <path d="M-39.5 -38.75 Q-39.4 -41.25 -35.95 -41.25 L-34.2 -41.1 -34.2 -39.8 -36.2 -39.95 Q-37.5 -39.9 -37.95 -38.75 L-39.5 -38.75 M-34.9 -28.75 L-33.9 -28.0 Q-31.85 -26.7 -31.85 -24.15 L-33.3 -24.15 Q-33.45 -25.75 -34.9 -27.0 L-34.9 -28.75" fill="#5f400e" fill-rule="evenodd" stroke="none"/>
      <path d="M-36.5 -36.3 L-33.0 -37.3 -31.85 -35.9 -33.15 -35.9 -35.3 -35.45 -36.5 -36.3 M-36.05 -34.3 L-36.5 -32.55 -37.8 -31.25 -37.8 -31.4 Q-37.8 -33.85 -37.1 -35.1 L-36.05 -34.3" fill="#2a1c06" fill-rule="evenodd" stroke="none"/>
      <path d="M-39.5 -38.75 Q-39.4 -41.25 -35.95 -41.25 L-34.2 -41.1 Q-30.3 -40.5 -27.05 -37.15 L-24.45 -33.3 Q-24.5 -32.35 -25.65 -31.95 -26.1 -33.85 -28.15 -36.25 -30.95 -39.2 -34.2 -39.8 L-36.2 -39.95 Q-37.5 -39.9 -37.95 -38.75 -37.1 -36.75 -36.5 -36.3 L-33.0 -37.3 Q-30.0 -37.7 -29.65 -35.0 -29.4 -34.1 -30.55 -33.3 -32.3 -32.25 -36.05 -34.3 L-36.5 -32.55 -36.45 -31.65 Q-36.2 -30.05 -34.9 -28.75 L-33.9 -28.0 Q-31.85 -26.7 -31.85 -24.15 L-32.15 -22.25 -32.15 -18.5 -33.6 -18.5 -33.6 -22.15 Q-33.3 -23.25 -33.3 -24.15 -33.45 -25.75 -34.9 -27.0 L-35.2 -27.3 Q-37.75 -29.25 -37.8 -31.25 L-37.8 -31.4 Q-37.8 -33.85 -37.1 -35.1 L-39.1 -37.05 Q-39.5 -37.6 -39.5 -38.6 L-39.5 -38.75 M-35.3 -35.45 L-33.2 -34.55 Q-31.15 -33.95 -31.1 -35.1 -31.0 -35.75 -31.85 -35.9 L-33.15 -35.9 -35.3 -35.45 -36.5 -36.3 M-37.1 -35.1 L-36.05 -34.3" fill="none" stroke="#000000" stroke-linecap="round" stroke-linejoin="round" stroke-opacity="0.3019608" stroke-width="0.30000000000000004"/>
      <path d="M35.0 -14.3 L35.0 -13.3 Q35.0 -12.6 34.35 -12.6 L16.05 -12.6 Q15.4 -12.6 15.4 -13.3 L15.4 -14.3 35.0 -14.3" fill="#7b7b7a" fill-rule="evenodd" stroke="none"/>
      <path d="M35.0 -14.3 L15.4 -14.3 Q15.4 -15.05 16.05 -15.05 L34.35 -15.05 Q35.0 -15.05 35.0 -14.3" fill="#a19f9c" fill-rule="evenodd" stroke="none"/>
      <path d="M15.4 -14.3 L15.4 -13.3 Q15.4 -12.6 16.05 -12.6 L34.35 -12.6 Q35.0 -12.6 35.0 -13.3 L35.0 -14.3 M15.4 -14.3 Q15.4 -15.05 16.05 -15.05 L34.35 -15.05 Q35.0 -15.05 35.0 -14.3" fill="none" stroke="#000000" stroke-linecap="round" stroke-linejoin="round" stroke-opacity="0.3019608" stroke-width="0.30000000000000004"/>
      <path d="M-3.7 -30.9 Q-5.95 -29.5 -10.0 -30.8" fill="none" stroke="#2a2a2a" stroke-linecap="round" stroke-linejoin="round" stroke-opacity="0.8" stroke-width="1.0"/>
      <path d="M-10.0 -30.8 Q-6.7 -32.65 -3.7 -30.9 Z" fill="none" stroke="#2a2a2a" stroke-linecap="round" stroke-linejoin="round" stroke-opacity="0.43137255" stroke-width="0.8"/>
      <path d="M-10.95 -49.4 Q-12.1 -50.65 -12.1 -52.35 -12.1 -54.4 -10.4 -55.9 L-9.9 -56.25 Q-10.2 -58.0 -11.4 -58.85 L-9.95 -58.75 -9.6 -58.65 Q-9.2 -57.7 -7.5 -57.2 L-6.35 -57.35 -4.75 -57.15 Q-11.55 -56.45 -10.95 -49.4" fill="#defffe" fill-opacity="0.7019608" fill-rule="evenodd" stroke="none"/>
      <path d="M-0.5 -59.0 Q-1.95 -57.6 -2.1 -55.75 -0.55 -54.3 -0.55 -52.35 -0.55 -50.9 -2.0 -49.35 -3.8 -47.35 -6.35 -47.4 -8.2 -47.5 -9.65 -48.35 L-10.95 -49.4 Q-8.65 -48.15 -6.2 -48.6 -4.25 -49.0 -3.45 -50.05 -1.8 -52.35 -2.35 -54.05 -2.7 -55.45 -4.7 -57.15 -2.8 -57.4 -3.25 -58.65 L-2.1 -58.75 -0.5 -59.0" fill="#7eaaa8" fill-opacity="0.65882355" fill-rule="evenodd" stroke="none"/>
      <path d="M-10.95 -49.4 Q-11.55 -56.45 -4.75 -57.15 L-6.35 -57.35 -7.5 -57.2 Q-9.2 -57.7 -9.6 -58.65 L-6.05 -58.6 -3.25 -58.65 Q-2.8 -57.4 -4.7 -57.15 -2.7 -55.45 -2.35 -54.05 -1.8 -52.35 -3.45 -50.05 -4.25 -49.0 -6.2 -48.6 -8.65 -48.15 -10.95 -49.4" fill="#c7e3e2" fill-opacity="0.3019608" fill-rule="evenodd" stroke="none"/>
      <path d="M-10.95 -49.4 Q-12.1 -50.65 -12.1 -52.35 -12.1 -54.4 -10.4 -55.9 L-9.9 -56.25 Q-10.2 -58.0 -11.4 -58.85 L-11.55 -59.0 -9.95 -59.3 -6.05 -59.45 -2.1 -59.3 -0.5 -59.0 Q-1.95 -57.6 -2.1 -55.75 -0.55 -54.3 -0.55 -52.35 -0.55 -50.9 -2.0 -49.35 -3.8 -47.35 -6.35 -47.4 -8.2 -47.5 -9.65 -48.35 L-10.95 -49.4 M-9.6 -58.65 L-9.95 -58.75 -11.4 -58.85 M-0.5 -59.0 L-2.1 -58.75 -3.25 -58.65 -6.05 -58.6 -9.6 -58.65" fill="none" stroke="#3b5424" stroke-linecap="round" stroke-linejoin="round" stroke-opacity="0.3019608" stroke-width="0.55"/>
      <path d="M-4.5 -44.85 Q-4.2 -44.85 -4.05 -44.65 L-3.8 -44.1 -3.8 -43.95 -4.05 -43.4 Q-4.2 -43.25 -4.5 -43.25 L-7.7 -43.25 Q-8.0 -43.25 -8.15 -43.4 L-8.4 -43.95 -8.4 -44.1 -8.15 -44.65 Q-8.0 -44.85 -7.7 -44.85 L-4.5 -44.85" fill="#6fa6a4" fill-opacity="0.3882353" fill-rule="evenodd" stroke="none"/>
      <path d="M-3.8 -43.95 L-2.05 -43.95 -2.05 -45.25 M-2.05 -43.95 L-2.05 -42.55" fill="none" stroke="#000000" stroke-linecap="round" stroke-linejoin="round" stroke-opacity="0.47058824" stroke-width="0.30000000000000004"/>
      <path d="M-4.5 -44.85 L-7.7 -44.85 Q-8.0 -44.85 -8.15 -44.65 L-8.4 -44.1 -8.4 -43.95 -8.15 -43.4 Q-8.0 -43.25 -7.7 -43.25 L-4.5 -43.25 Q-4.2 -43.25 -4.05 -43.4 L-3.8 -43.95 -3.8 -44.1 -4.05 -44.65 Q-4.2 -44.85 -4.5 -44.85" fill="none" stroke="#000000" stroke-linecap="round" stroke-linejoin="round" stroke-opacity="0.3019608" stroke-width="0.30000000000000004"/>
    </g>
    <g id="decoration93-shape3" transform="matrix(1.0, 0.0, 0.0, 1.0, 19.6, 6.4)">
      <path d="M-19.45 -3.1 L5.7 -3.1 5.7 -0.75 Q5.7 -0.05 4.85 -0.05 L-18.6 -0.05 Q-19.45 -0.05 -19.45 -0.75 L-19.45 -3.1" fill="#545252" fill-rule="evenodd" stroke="none"/>
      <path d="M-19.45 -3.1 L-19.45 -5.55 Q-19.45 -6.25 -18.6 -6.25 L4.85 -6.25 Q5.7 -6.25 5.7 -5.55 L5.7 -3.1 -19.45 -3.1" fill="#707070" fill-rule="evenodd" stroke="none"/>
      <path d="M5.7 -3.1 L5.7 -5.55 Q5.7 -6.25 4.85 -6.25 L-18.6 -6.25 Q-19.45 -6.25 -19.45 -5.55 L-19.45 -3.1 M5.7 -3.1 L5.7 -0.75 Q5.7 -0.05 4.85 -0.05 L-18.6 -0.05 Q-19.45 -0.05 -19.45 -0.75 L-19.45 -3.1" fill="none" stroke="#000000" stroke-linecap="round" stroke-linejoin="round" stroke-opacity="0.3019608" stroke-width="0.30000000000000004"/>
      <path d="M-16.75 -3.65 L-17.7 -4.55 -16.75 -3.65 M-16.0 -4.2 L-16.0 -5.4 -16.0 -4.2 M-16.0 -5.4 Q-15.1 -5.4 -14.4 -4.7 L-14.1 -4.35 Q-13.7 -3.8 -13.7 -3.1 L-13.7 -2.8 Q-13.8 -2.05 -14.4 -1.5 -15.1 -0.85 -16.0 -0.85 L-16.15 -0.85 Q-17.0 -0.9 -17.6 -1.5 -18.2 -2.05 -18.3 -2.8 L-18.3 -3.1 Q-18.3 -3.95 -17.7 -4.55 L-17.6 -4.7 Q-16.9 -5.4 -16.0 -5.4 M-15.4 -2.8 L-13.7 -2.8 -15.4 -2.8 M-15.25 -3.65 L-14.1 -4.35 -15.25 -3.65 M-17.3 -2.8 L-18.3 -2.8 -17.3 -2.8 M-16.15 -0.85 L-16.15 -2.35 -16.15 -0.85" fill="#d7cdc5" fill-rule="evenodd" stroke="none"/>
      <path d="M-16.0 -5.4 L-16.0 -4.2 M-17.7 -4.55 L-16.75 -3.65 M-16.0 -5.4 Q-15.1 -5.4 -14.4 -4.7 L-14.1 -4.35 Q-13.7 -3.8 -13.7 -3.1 L-13.7 -2.8 Q-13.8 -2.05 -14.4 -1.5 -15.1 -0.85 -16.0 -0.85 L-16.15 -0.85 Q-17.0 -0.9 -17.6 -1.5 -18.2 -2.05 -18.3 -2.8 L-18.3 -3.1 Q-18.3 -3.95 -17.7 -4.55 L-17.6 -4.7 Q-16.9 -5.4 -16.0 -5.4 M-16.15 -2.35 L-16.15 -0.85 M-18.3 -2.8 L-17.3 -2.8 M-14.1 -4.35 L-15.25 -3.65 M-13.7 -2.8 L-15.4 -2.8" fill="none" stroke="#000000" stroke-linecap="round" stroke-linejoin="round" stroke-opacity="0.3019608" stroke-width="0.30000000000000004"/>
      <path d="M4.3 -1.95 L-9.75 -1.95 -9.75 -3.6 4.3 -3.6 4.3 -1.95" fill="#cdaa34" fill-rule="evenodd" stroke="none"/>
      <path d="M4.3 -1.95 L-9.75 -1.95 -9.75 -3.6 4.3 -3.6 4.3 -1.95 Z" fill="none" stroke="#000000" stroke-linecap="round" stroke-linejoin="round" stroke-opacity="0.3019608" stroke-width="0.30000000000000004"/>
    </g>
    <g id="decoration93-sprite1" transform="matrix(1.0, 0.0, 0.0, 1.0, 0.15, 0.15)">
      <use height="6.1" transform="matrix(1.0, 0.0, 0.0, 1.0, -0.15, -0.15)" width="10.8" xlink:href="#decoration93-shape4"/>
    </g>
    <g id="decoration93-shape4" transform="matrix(1.0, 0.0, 0.0, 1.0, 0.15, 0.15)">
      <path d="M0.5 3.35 L2.15 0.0 8.35 0.0 10.2 3.5 Q10.85 4.65 10.2 5.8 L0.5 5.8 Q-0.45 4.75 0.5 3.35" fill="#808080" fill-rule="evenodd" stroke="none"/>
      <path d="M0.5 3.35 L2.15 0.0 8.35 0.0 10.2 3.5 Q10.85 4.65 10.2 5.8 L0.5 5.8 Q-0.45 4.75 0.5 3.35 Z" fill="none" stroke="#000000" stroke-linecap="round" stroke-linejoin="round" stroke-opacity="0.3019608" stroke-width="0.30000000000000004"/>
      <path d="M2.25 0.65 Q2.25 0.15 5.25 0.15 L8.0 0.45 8.3 0.65 Q8.35 1.05 5.25 1.15 L3.4 1.0 2.25 0.65" fill="#a1a1a1" fill-rule="evenodd" stroke="none"/>
      <path d="M8.3 0.65 L8.0 0.45 5.25 0.15 Q2.25 0.15 2.25 0.65" fill="none" stroke="#000000" stroke-linecap="round" stroke-linejoin="round" stroke-opacity="0.3019608" stroke-width="0.30000000000000004"/>
      <path d="M6.55 2.9 L6.4 3.25 5.95 3.4 5.55 3.25 5.4 2.9 Q5.4 2.65 5.55 2.45 5.7 2.3 5.95 2.3 L6.4 2.45 6.55 2.9 M5.15 5.5 L4.95 5.55 4.65 5.5 4.55 5.2 4.65 4.9 4.95 4.8 5.15 4.9 5.3 5.2 5.15 5.5 M8.75 4.9 L8.3 5.1 7.75 4.9 Q7.6 4.7 7.6 4.4 7.6 4.2 7.75 3.95 L8.3 3.75 8.75 3.95 9.0 4.4 8.75 4.9 M2.2 3.95 L2.4 3.25 3.1 3.05 3.7 3.25 4.0 3.95 3.7 4.65 Q3.5 4.95 3.1 4.95 2.7 4.95 2.4 4.65 L2.2 3.95" fill="#a1a1a1" fill-rule="evenodd" stroke="none"/>
    </g>
    <g id="decoration93-sprite2" transform="matrix(1.0, 0.0, 0.0, 1.0, -2.6, 0.05)">
      <use height="116.85" transform="matrix(1.0, 0.0, 0.0, 1.0, 2.6, -0.05)" width="220.6" xlink:href="#decoration93-shape5"/>
    </g>
    <g id="decoration93-shape5" transform="matrix(1.0, 0.0, 0.0, 1.0, -2.6, 0.05)">
      <path d="M216.6 72.9 Q209.6 82.3 197.3 90.5 165.65 111.5 112.85 116.1 61.0 120.6 28.05 95.7 15.85 86.45 8.7 74.85 2.6 65.0 2.6 58.05 2.6 51.0 7.9 41.95 14.25 31.1 25.85 22.35 57.15 -1.2 112.85 0.0 173.9 1.15 201.1 17.6 224.7 31.9 223.1 58.05 222.7 64.7 216.6 72.9" fill="url(#decoration93-gradient1)" fill-rule="evenodd" stroke="none"/>
    </g>
    <radialGradient cx="0" cy="0" gradientTransform="matrix(0.0971, 0.0, 0.0, 0.0572, 109.5, 53.65)" gradientUnits="userSpaceOnUse" id="decoration93-gradient1" r="819.2" spreadMethod="pad">
      <stop offset="0.0" stop-color="#cdfdff" stop-opacity="0.45882353"/>
      <stop offset="0.19607843137254902" stop-color="#dafdff" stop-opacity="0.34117648"/>
      <stop offset="1.0" stop-color="#ffffff" stop-opacity="0.0"/>
    </radialGradient>
  </defs>
</svg>
