<?xml version="1.0" encoding="UTF-8" standalone="no"?>
<svg xmlns:xlink="http://www.w3.org/1999/xlink" height="161.85px" width="105.1px" xmlns="http://www.w3.org/2000/svg">
  <g transform="matrix(1.0, 0.0, 0.0, 1.0, 47.65, 162.3)">
    <use height="7.05" transform="matrix(1.0, 0.0, 0.0, 1.0, -30.8, -7.5)" width="72.6" xlink:href="#decoration94-shape0"/>
    <use height="161.85" id="decoration94-Couleur0_623B2A" filter="url(#decoration94-filter0)" transform="matrix(-1.0, 0.0, 0.0, 1.0, 57.45, -162.3)" width="64.05" xlink:href="#decoration94-sprite0"/>
    <use height="161.85" id="decoration94-Couleur0_623B2A" filter="url(#decoration94-filter0)" transform="matrix(1.0, 0.0, 0.0, 1.0, -47.65, -162.3)" width="64.05" xlink:href="#decoration94-sprite0"/>
    <use height="18.15" transform="matrix(1.0, 0.0, 0.0, 1.0, -23.05, -123.5)" width="4.85" xlink:href="#decoration94-sprite1"/>
    <use height="18.15" transform="matrix(1.0, 0.0, 0.0, 1.0, -18.45, -123.5)" width="4.85" xlink:href="#decoration94-sprite1"/>
    <use height="18.15" transform="matrix(1.0, 0.0, 0.0, 1.0, -13.85, -123.5)" width="4.85" xlink:href="#decoration94-sprite1"/>
    <use height="18.15" transform="matrix(1.0, 0.0, 0.0, 1.0, -9.25, -123.5)" width="4.85" xlink:href="#decoration94-sprite1"/>
    <use height="18.15" transform="matrix(1.0, 0.0, 0.0, 1.0, -4.6, -123.5)" width="4.85" xlink:href="#decoration94-sprite1"/>
    <use height="18.15" transform="matrix(1.0, 0.0, 0.0, 1.0, 0.25, -123.5)" width="4.85" xlink:href="#decoration94-sprite1"/>
    <use height="18.15" transform="matrix(1.0, 0.0, 0.0, 1.0, 4.9, -123.5)" width="4.85" xlink:href="#decoration94-sprite1"/>
    <use height="18.15" transform="matrix(0.001, 1.0, -1.0, 0.001, 32.8999, -110.2001)" width="4.85" xlink:href="#decoration94-sprite1"/>
    <use height="18.15" transform="matrix(0.001, 1.0, -1.0, 0.001, 32.8999, -114.7501)" width="4.85" xlink:href="#decoration94-sprite1"/>
    <use height="18.15" transform="matrix(0.9909, 0.1348, -0.1348, 0.9909, 12.9716, -123.8688)" width="4.85" xlink:href="#decoration94-sprite1"/>
    <use height="40.9" transform="matrix(1.0, 0.0, 0.0, 1.0, -23.0, -101.4)" width="55.85" xlink:href="#decoration94-shape3"/>
    <use height="18.15" transform="matrix(1.0, 0.0, 0.0, 1.0, -0.6, -78.6)" width="4.85" xlink:href="#decoration94-sprite1"/>
    <use height="18.15" transform="matrix(1.0, 0.0, 0.0, 1.0, 4.0, -78.6)" width="4.85" xlink:href="#decoration94-sprite1"/>
    <use height="18.15" transform="matrix(1.0, 0.0, 0.0, 1.0, 8.65, -78.6)" width="4.85" xlink:href="#decoration94-sprite1"/>
    <use height="18.15" transform="matrix(1.0, 0.0, 0.0, 1.0, 13.5, -78.6)" width="4.85" xlink:href="#decoration94-sprite1"/>
    <use height="18.15" transform="matrix(1.0, 0.0, 0.0, 1.0, 18.15, -78.6)" width="4.85" xlink:href="#decoration94-sprite1"/>
    <use height="18.15" transform="matrix(0.001, 1.0, -1.0, 0.001, -4.9001, -45.0001)" width="4.85" xlink:href="#decoration94-sprite1"/>
    <use height="18.15" transform="matrix(0.001, 1.0, -1.0, 0.001, -4.9001, -49.5501)" width="4.85" xlink:href="#decoration94-sprite1"/>
    <use height="18.15" transform="matrix(0.7078, 0.7064, -0.7064, 0.7078, 29.7498, -55.8621)" width="4.85" xlink:href="#decoration94-sprite1"/>
    <use height="18.15" transform="matrix(0.7078, 0.7064, -0.7064, 0.7078, 23.0998, -55.9621)" width="4.85" xlink:href="#decoration94-sprite1"/>
    <use height="17.05" transform="matrix(1.0, 0.0, 0.0, 1.0, -10.5, -57.05)" width="30.05" xlink:href="#decoration94-shape4"/>
    <use height="13.05" id="decoration94-Couleur0_623B2A" filter="url(#decoration94-filter0)" transform="matrix(1.0, 0.0, 0.0, 1.0, -10.8, -30.1)" width="30.0" xlink:href="#decoration94-sprite2"/>
    <use height="4.4" transform="matrix(1.0, 0.0, 0.0, 1.0, 22.85, -99.3)" width="4.95" xlink:href="#decoration94-shape6"/>
    <use height="6.1" id="decoration94-Couleur1_A3468E" filter="url(#decoration94-filter1)" transform="matrix(0.8304, 0.0, 0.0, 0.8304, 20.8754, -88.7246)" width="10.8" xlink:href="#decoration94-sprite3"/>
    <use height="15.65" transform="matrix(1.0, 0.0, 0.0, 1.0, 19.6, -97.95)" width="11.55" xlink:href="#decoration94-shape8"/>
    <use height="90.35" transform="matrix(1.0, 0.0, 0.0, 1.0, -47.5, -162.15)" width="86.85" xlink:href="#decoration94-sprite4"/>
  </g>
  <defs>
    <g id="decoration94-shape0" transform="matrix(1.0, 0.0, 0.0, 1.0, 30.8, 7.5)">
      <path d="M41.65 -0.6 L-30.65 -0.6 -30.65 -7.35 41.65 -7.35 41.65 -0.6" fill="#000000" fill-opacity="0.43137255" fill-rule="evenodd" stroke="none"/>
      <path d="M41.65 -0.6 L-30.65 -0.6 -30.65 -7.35 41.65 -7.35 41.65 -0.6 Z" fill="none" stroke="#000000" stroke-linecap="round" stroke-linejoin="round" stroke-opacity="0.3019608" stroke-width="0.30000000000000004"/>
    </g>
    <g id="decoration94-sprite0" transform="matrix(1.0, 0.0, 0.0, 1.0, 0.15, 0.15)">
      <use height="161.85" transform="matrix(1.0, 0.0, 0.0, 1.0, -0.15, -0.15)" width="64.05" xlink:href="#decoration94-shape1"/>
    </g>
    <g id="decoration94-shape1" transform="matrix(1.0, 0.0, 0.0, 1.0, 0.15, 0.15)">
      <path d="M53.35 32.3 L53.35 37.6 21.75 37.6 21.75 123.4 53.35 123.4 53.35 127.45 53.35 152.6 17.25 152.6 17.25 127.45 17.25 32.3 53.35 32.3 M17.25 127.45 L53.35 127.45 17.25 127.45" fill="#6b6b6b" fill-rule="evenodd" stroke="none"/>
      <path d="M53.35 37.6 L53.35 123.4 21.75 123.4 21.75 37.6 53.35 37.6" fill="#433d3a" fill-rule="evenodd" stroke="none"/>
      <path d="M17.25 127.45 L17.25 32.3 53.35 32.3 M53.35 123.4 L21.75 123.4 21.75 37.6 53.35 37.6 M53.35 127.45 L17.25 127.45" fill="none" stroke="#000000" stroke-linecap="round" stroke-linejoin="round" stroke-opacity="0.3019608" stroke-width="0.30000000000000004"/>
      <path d="M53.35 152.6 L17.25 152.6 17.25 127.45 Z" fill="none" stroke="#000000" stroke-linecap="round" stroke-linejoin="round" stroke-opacity="0.3019608" stroke-width="0.2"/>
      <path d="M19.95 155.6 Q21.7 155.95 22.1 157.75 22.5 159.65 21.0 161.55 L12.95 161.55 Q11.8 160.0 11.85 158.45 12.8 160.35 16.75 160.25 19.8 160.3 21.0 159.0 21.85 157.1 19.95 155.6" fill="#463e3e" fill-rule="evenodd" stroke="none"/>
      <path d="M11.85 158.45 L11.95 157.75 Q12.35 155.95 14.1 155.6 L19.95 155.6 Q21.85 157.1 21.0 159.0 19.8 160.3 16.75 160.25 12.8 160.35 11.85 158.45" fill="#808080" fill-rule="evenodd" stroke="none"/>
      <path d="M19.95 155.6 Q21.7 155.95 22.1 157.75 22.5 159.65 21.0 161.55 L12.95 161.55 Q11.8 160.0 11.85 158.45 L11.95 157.75 Q12.35 155.95 14.1 155.6 L19.95 155.6 Z" fill="none" stroke="#000000" stroke-linecap="round" stroke-linejoin="round" stroke-opacity="0.3019608" stroke-width="0.30000000000000004"/>
      <path d="M63.75 155.6 L18.55 155.6 Q18.05 152.55 13.85 150.85 L63.75 150.85 63.75 155.6" fill="url(#decoration94-gradient0)" fill-rule="evenodd" stroke="none"/>
      <path d="M63.75 150.85 L13.85 150.85 Q18.05 152.55 18.55 155.6 L63.75 155.6" fill="none" stroke="#000000" stroke-linecap="round" stroke-linejoin="round" stroke-opacity="0.3019608" stroke-width="0.30000000000000004"/>
      <path d="M20.25 154.95 Q19.8 152.45 21.95 151.85 25.05 151.55 24.5 154.9 L20.25 154.95" fill="url(#decoration94-gradient1)" fill-rule="evenodd" stroke="none"/>
      <path d="M20.25 154.95 Q19.8 152.45 21.95 151.85 25.05 151.55 24.5 154.9" fill="none" stroke="#000000" stroke-linecap="round" stroke-linejoin="round" stroke-opacity="0.3019608" stroke-width="0.30000000000000004"/>
      <path d="M25.55 154.95 Q25.1 152.45 27.25 151.85 30.35 151.55 29.8 154.9 L25.55 154.95" fill="url(#decoration94-gradient2)" fill-rule="evenodd" stroke="none"/>
      <path d="M25.55 154.95 Q25.1 152.45 27.25 151.85 30.35 151.55 29.8 154.9" fill="none" stroke="#000000" stroke-linecap="round" stroke-linejoin="round" stroke-opacity="0.3019608" stroke-width="0.30000000000000004"/>
      <path d="M30.85 154.95 Q30.4 152.45 32.55 151.85 35.65 151.55 35.1 154.9 L30.85 154.95" fill="url(#decoration94-gradient3)" fill-rule="evenodd" stroke="none"/>
      <path d="M30.85 154.95 Q30.4 152.45 32.55 151.85 35.65 151.55 35.1 154.9" fill="none" stroke="#000000" stroke-linecap="round" stroke-linejoin="round" stroke-opacity="0.3019608" stroke-width="0.30000000000000004"/>
      <path d="M36.05 154.95 Q35.6 152.45 37.75 151.85 40.85 151.55 40.3 154.9 L36.05 154.95" fill="url(#decoration94-gradient4)" fill-rule="evenodd" stroke="none"/>
      <path d="M36.05 154.95 Q35.6 152.45 37.75 151.85 40.85 151.55 40.3 154.9" fill="none" stroke="#000000" stroke-linecap="round" stroke-linejoin="round" stroke-opacity="0.3019608" stroke-width="0.30000000000000004"/>
      <path d="M41.35 154.95 Q40.9 152.45 43.05 151.85 46.15 151.55 45.6 154.9 L41.35 154.95" fill="url(#decoration94-gradient5)" fill-rule="evenodd" stroke="none"/>
      <path d="M41.35 154.95 Q40.9 152.45 43.05 151.85 46.15 151.55 45.6 154.9" fill="none" stroke="#000000" stroke-linecap="round" stroke-linejoin="round" stroke-opacity="0.3019608" stroke-width="0.30000000000000004"/>
      <path d="M46.7 154.95 Q46.25 152.45 48.4 151.85 51.5 151.55 50.95 154.9 L46.7 154.95" fill="url(#decoration94-gradient6)" fill-rule="evenodd" stroke="none"/>
      <path d="M46.7 154.95 Q46.25 152.45 48.4 151.85 51.5 151.55 50.95 154.9" fill="none" stroke="#000000" stroke-linecap="round" stroke-linejoin="round" stroke-opacity="0.3019608" stroke-width="0.30000000000000004"/>
      <path d="M52.2 154.95 Q51.75 152.45 53.9 151.85 57.0 151.55 56.45 154.9 L52.2 154.95" fill="url(#decoration94-gradient7)" fill-rule="evenodd" stroke="none"/>
      <path d="M52.2 154.95 Q51.75 152.45 53.9 151.85 57.0 151.55 56.45 154.9" fill="none" stroke="#000000" stroke-linecap="round" stroke-linejoin="round" stroke-opacity="0.3019608" stroke-width="0.30000000000000004"/>
      <path d="M58.3 154.95 Q57.85 152.45 60.0 151.85 63.1 151.55 62.55 154.9 L58.3 154.95" fill="url(#decoration94-gradient8)" fill-rule="evenodd" stroke="none"/>
      <path d="M58.3 154.95 Q57.85 152.45 60.0 151.85 63.1 151.55 62.55 154.9" fill="none" stroke="#000000" stroke-linecap="round" stroke-linejoin="round" stroke-opacity="0.3019608" stroke-width="0.30000000000000004"/>
      <path d="M14.65 150.75 L19.15 150.75 Q18.55 152.85 20.75 154.9 L13.0 154.8 Q15.45 153.0 14.65 150.75" fill="#463e3e" fill-rule="evenodd" stroke="none"/>
      <path d="M14.65 150.75 L19.15 150.75 Q18.55 152.85 20.75 154.9 L13.0 154.8 Q15.45 153.0 14.65 150.75 Z" fill="none" stroke="#000000" stroke-linecap="round" stroke-linejoin="round" stroke-opacity="0.3019608" stroke-width="0.30000000000000004"/>
      <path d="M16.15 152.2 L14.9 152.2 14.9 44.7 16.15 44.7 16.15 152.2 M17.7 44.7 L19.35 44.7 19.35 152.2 17.7 152.2 17.7 44.7" fill="#808080" fill-rule="evenodd" stroke="none"/>
      <path d="M16.15 44.7 L17.7 44.7 17.7 152.2 16.15 152.2 16.15 44.7" fill="#5f5d5d" fill-rule="evenodd" stroke="none"/>
      <path d="M16.15 152.2 L14.9 152.2 14.9 44.7 16.15 44.7 17.7 44.7 19.35 44.7 19.35 152.2 17.7 152.2 16.15 152.2 16.15 44.7 M17.7 44.7 L17.7 152.2" fill="none" stroke="#000000" stroke-linecap="round" stroke-linejoin="round" stroke-opacity="0.3019608" stroke-width="0.30000000000000004"/>
      <path d="M15.45 35.25 L18.3 35.25 Q17.9 37.35 19.3 39.4 L14.4 39.3 Q15.95 37.5 15.45 35.25" fill="#463e3e" fill-rule="evenodd" stroke="none"/>
      <path d="M15.45 35.25 L18.3 35.25 Q17.9 37.35 19.3 39.4 L14.4 39.3 Q15.95 37.5 15.45 35.25 Z" fill="none" stroke="#000000" stroke-linecap="round" stroke-linejoin="round" stroke-opacity="0.3019608" stroke-width="0.30000000000000004"/>
      <path d="M14.4 43.45 Q15.95 41.65 15.45 39.4 L18.3 39.4 Q17.9 41.5 19.3 43.55 L14.4 43.45" fill="#463e3e" fill-rule="evenodd" stroke="none"/>
      <path d="M14.4 43.45 Q15.95 41.65 15.45 39.4 L18.3 39.4 Q17.9 41.5 19.3 43.55 L14.4 43.45 Z" fill="none" stroke="#000000" stroke-linecap="round" stroke-linejoin="round" stroke-opacity="0.3019608" stroke-width="0.30000000000000004"/>
      <path d="M54.8 59.8 L21.85 59.8 21.85 56.8 54.8 56.8 54.8 59.8 M54.8 82.45 L21.85 82.45 21.85 79.2 54.8 79.2 54.8 82.45 M54.8 101.8 L54.8 105.2 21.85 105.2 21.85 101.8 54.8 101.8" fill="#808080" fill-rule="evenodd" stroke="none"/>
      <path d="M54.8 59.8 L21.85 59.8 21.85 56.8 54.8 56.8 M54.8 82.45 L21.85 82.45 21.85 79.2 54.8 79.2 M54.8 105.2 L21.85 105.2 21.85 101.8 54.8 101.8" fill="none" stroke="#000000" stroke-linecap="round" stroke-linejoin="round" stroke-opacity="0.3019608" stroke-width="0.30000000000000004"/>
      <path d="M55.9 35.7 L55.9 37.95 24.55 37.95 24.55 121.9 57.65 121.9 57.65 124.05 20.75 124.05 20.75 35.7 55.9 35.7" fill="#808080" fill-rule="evenodd" stroke="none"/>
      <path d="M55.9 37.95 L24.55 37.95 24.55 121.9 57.65 121.9 M57.65 124.05 L20.75 124.05 20.75 35.7 55.9 35.7" fill="none" stroke="#000000" stroke-linecap="round" stroke-linejoin="round" stroke-opacity="0.3019608" stroke-width="0.30000000000000004"/>
      <path d="M14.8 44.7 Q20.9 44.25 19.7 42.9 L21.75 42.9 Q22.85 42.95 22.9 43.8 22.95 44.75 21.4 44.8 L17.1 44.7 14.8 44.7" fill="#463e3e" fill-rule="evenodd" stroke="none"/>
      <path d="M19.7 42.9 Q20.9 44.25 14.8 44.7 L12.1 44.65 Q11.25 44.6 11.3 43.8 11.35 42.9 12.55 42.8 L17.1 42.9 19.7 42.9" fill="#808080" fill-rule="evenodd" stroke="none"/>
      <path d="M14.8 44.7 L17.1 44.7 21.4 44.8 Q22.95 44.75 22.9 43.8 22.85 42.95 21.75 42.9 L19.7 42.9 17.1 42.9 12.55 42.8 Q11.35 42.9 11.3 43.8 11.25 44.6 12.1 44.65 L14.8 44.7 Z" fill="none" stroke="#000000" stroke-linecap="round" stroke-linejoin="round" stroke-opacity="0.3019608" stroke-width="0.30000000000000004"/>
      <path d="M15.8 40.2 L13.95 40.15 Q13.4 40.1 13.4 39.3 13.45 38.4 16.1 38.35 L19.1 38.4 Q19.9 39.75 15.8 40.2" fill="#808080" fill-rule="evenodd" stroke="none"/>
      <path d="M19.1 38.4 L20.5 38.4 Q21.25 38.45 21.25 39.3 21.3 40.25 20.25 40.3 L17.35 40.2 15.8 40.2 Q19.9 39.75 19.1 38.4" fill="#463e3e" fill-rule="evenodd" stroke="none"/>
      <path d="M15.8 40.2 L13.95 40.15 Q13.4 40.1 13.4 39.3 13.45 38.4 16.1 38.35 L19.1 38.4 20.5 38.4 Q21.25 38.45 21.25 39.3 21.3 40.25 20.25 40.3 L17.35 40.2 15.8 40.2 Z" fill="none" stroke="#000000" stroke-linecap="round" stroke-linejoin="round" stroke-opacity="0.3019608" stroke-width="0.30000000000000004"/>
      <path d="M55.4 28.9 L55.4 33.7 14.45 33.7 Q14.15 30.75 11.0 28.9 L55.4 28.9" fill="url(#decoration94-gradient9)" fill-rule="evenodd" stroke="none"/>
      <path d="M55.4 28.9 L60.25 28.9 M55.4 28.9 L11.0 28.9 Q14.15 30.75 14.45 33.7 L55.4 33.7" fill="none" stroke="#000000" stroke-linecap="round" stroke-linejoin="round" stroke-opacity="0.3019608" stroke-width="0.30000000000000004"/>
      <path d="M14.6 35.55 Q21.1 34.8 19.8 32.65 L22.05 32.65 Q23.25 32.75 23.25 34.1 23.3 35.6 21.65 35.7 L17.05 35.55 14.6 35.55" fill="#463e3e" fill-rule="evenodd" stroke="none"/>
      <path d="M19.8 32.65 Q21.1 34.8 14.6 35.55 L11.65 35.45 Q10.75 35.35 10.75 34.1 10.85 32.65 12.1 32.5 L17.05 32.65 19.8 32.65" fill="#808080" fill-rule="evenodd" stroke="none"/>
      <path d="M14.6 35.55 L17.05 35.55 21.65 35.7 Q23.3 35.6 23.25 34.1 23.25 32.75 22.05 32.65 L19.8 32.65 17.05 32.65 12.1 32.5 Q10.85 32.65 10.75 34.1 10.75 35.35 11.65 35.45 L14.6 35.55 Z" fill="none" stroke="#000000" stroke-linecap="round" stroke-linejoin="round" stroke-opacity="0.3019608" stroke-width="0.30000000000000004"/>
      <path d="M52.5 14.2 L52.5 27.7 11.95 27.7 11.95 14.2 52.5 14.2" fill="url(#decoration94-gradient10)" fill-rule="evenodd" stroke="none"/>
      <path d="M52.5 11.3 L52.5 14.2 11.95 14.2 11.95 11.3 52.5 11.3" fill="#56504d" fill-rule="evenodd" stroke="none"/>
      <path d="M52.5 27.7 L11.95 27.7 11.95 14.2 11.95 11.3 52.5 11.3" fill="none" stroke="#000000" stroke-linecap="round" stroke-linejoin="round" stroke-opacity="0.3019608" stroke-width="0.30000000000000004"/>
      <path d="M54.45 27.05 L54.45 29.0 6.45 29.0 Q8.25 28.3 8.75 27.05 L54.45 27.05" fill="url(#decoration94-gradient11)" fill-rule="evenodd" stroke="none"/>
      <path d="M54.45 29.0 L6.45 29.0 Q8.25 28.3 8.75 27.05 L54.45 27.05" fill="none" stroke="#000000" stroke-linecap="round" stroke-linejoin="round" stroke-opacity="0.3019608" stroke-width="0.30000000000000004"/>
      <path d="M19.7 154.7 L21.75 154.7 Q22.85 154.75 22.9 155.6 22.95 156.55 21.4 156.6 L17.1 156.5 14.8 156.5 Q20.9 156.05 19.7 154.7" fill="#463e3e" fill-rule="evenodd" stroke="none"/>
      <path d="M14.8 156.5 L12.1 156.45 Q11.25 156.4 11.3 155.6 11.35 154.7 12.55 154.6 L17.1 154.7 19.7 154.7 Q20.9 156.05 14.8 156.5" fill="#808080" fill-rule="evenodd" stroke="none"/>
      <path d="M19.7 154.7 L21.75 154.7 Q22.85 154.75 22.9 155.6 22.95 156.55 21.4 156.6 L17.1 156.5 14.8 156.5 12.1 156.45 Q11.25 156.4 11.3 155.6 11.35 154.7 12.55 154.6 L17.1 154.7 19.7 154.7 Z" fill="none" stroke="#000000" stroke-linecap="round" stroke-linejoin="round" stroke-opacity="0.3019608" stroke-width="0.30000000000000004"/>
      <path d="M15.35 152.65 L13.5 152.6 Q12.95 152.55 13.0 151.75 13.0 150.85 13.85 150.75 L16.95 150.85 18.75 150.85 Q19.55 152.2 15.35 152.65" fill="#808080" fill-rule="evenodd" stroke="none"/>
      <path d="M18.75 150.85 L20.15 150.85 Q20.9 150.9 20.9 151.75 20.95 152.7 19.9 152.75 L16.95 152.65 15.35 152.65 Q19.55 152.2 18.75 150.85" fill="#463e3e" fill-rule="evenodd" stroke="none"/>
      <path d="M15.35 152.65 L13.5 152.6 Q12.95 152.55 13.0 151.75 13.0 150.85 13.85 150.75 L16.95 150.85 18.75 150.85 20.15 150.85 Q20.9 150.9 20.9 151.75 20.95 152.7 19.9 152.75 L16.95 152.65 15.35 152.65 Z" fill="none" stroke="#000000" stroke-linecap="round" stroke-linejoin="round" stroke-opacity="0.3019608" stroke-width="0.30000000000000004"/>
      <path d="M56.45 4.1 L56.45 9.35 8.15 9.35 Q7.6 6.0 3.1 4.1 L56.45 4.1" fill="url(#decoration94-gradient12)" fill-rule="evenodd" stroke="none"/>
      <path d="M56.45 4.1 L3.1 4.1 Q7.6 6.0 8.15 9.35 L56.45 9.35" fill="none" stroke="#000000" stroke-linecap="round" stroke-linejoin="round" stroke-opacity="0.3019608" stroke-width="0.30000000000000004"/>
      <path d="M61.0 9.35 L61.0 12.7 11.45 12.7 Q11.35 10.15 8.1 9.35 L61.0 9.35" fill="url(#decoration94-gradient13)" fill-rule="evenodd" stroke="none"/>
      <path d="M61.0 9.35 L8.1 9.35 Q11.35 10.15 11.45 12.7 L61.0 12.7" fill="none" stroke="#000000" stroke-linecap="round" stroke-linejoin="round" stroke-opacity="0.3019608" stroke-width="0.30000000000000004"/>
      <path d="M0.05 2.65 Q-0.2 1.4 0.9 0.0 L59.05 0.0 59.05 2.65 0.05 2.65" fill="#808080" fill-rule="evenodd" stroke="none"/>
      <path d="M59.05 2.65 L59.05 4.1 0.9 4.1 Q0.2 3.4 0.05 2.65 L59.05 2.65" fill="#463e3e" fill-rule="evenodd" stroke="none"/>
      <path d="M59.05 4.1 L0.9 4.1 Q0.2 3.4 0.05 2.65 -0.2 1.4 0.9 0.0 L59.05 0.0" fill="none" stroke="#000000" stroke-linecap="round" stroke-linejoin="round" stroke-opacity="0.3019608" stroke-width="0.30000000000000004"/>
      <path d="M9.5 8.2 Q9.05 5.4 11.2 4.75 14.3 4.4 13.75 8.15 L9.5 8.2" fill="url(#decoration94-gradient14)" fill-rule="evenodd" stroke="none"/>
      <path d="M9.5 8.2 Q9.05 5.4 11.2 4.75 14.3 4.4 13.75 8.15" fill="none" stroke="#000000" stroke-linecap="round" stroke-linejoin="round" stroke-opacity="0.3019608" stroke-width="0.30000000000000004"/>
      <path d="M14.8 8.2 Q14.35 5.4 16.5 4.75 19.6 4.4 19.05 8.15 L14.8 8.2" fill="url(#decoration94-gradient15)" fill-rule="evenodd" stroke="none"/>
      <path d="M14.8 8.2 Q14.35 5.4 16.5 4.75 19.6 4.4 19.05 8.15" fill="none" stroke="#000000" stroke-linecap="round" stroke-linejoin="round" stroke-opacity="0.3019608" stroke-width="0.30000000000000004"/>
      <path d="M20.1 8.2 Q19.65 5.4 21.8 4.75 24.9 4.4 24.35 8.15 L20.1 8.2" fill="url(#decoration94-gradient16)" fill-rule="evenodd" stroke="none"/>
      <path d="M20.1 8.2 Q19.65 5.4 21.8 4.75 24.9 4.4 24.35 8.15" fill="none" stroke="#000000" stroke-linecap="round" stroke-linejoin="round" stroke-opacity="0.3019608" stroke-width="0.30000000000000004"/>
      <path d="M25.3 8.2 Q24.85 5.4 27.0 4.75 30.1 4.4 29.55 8.15 L25.3 8.2" fill="url(#decoration94-gradient17)" fill-rule="evenodd" stroke="none"/>
      <path d="M25.3 8.2 Q24.85 5.4 27.0 4.75 30.1 4.4 29.55 8.15" fill="none" stroke="#000000" stroke-linecap="round" stroke-linejoin="round" stroke-opacity="0.3019608" stroke-width="0.30000000000000004"/>
      <path d="M30.6 8.2 Q30.15 5.4 32.3 4.75 35.4 4.4 34.85 8.15 L30.6 8.2" fill="url(#decoration94-gradient18)" fill-rule="evenodd" stroke="none"/>
      <path d="M30.6 8.2 Q30.15 5.4 32.3 4.75 35.4 4.4 34.85 8.15" fill="none" stroke="#000000" stroke-linecap="round" stroke-linejoin="round" stroke-opacity="0.3019608" stroke-width="0.30000000000000004"/>
      <path d="M35.95 8.2 Q35.5 5.4 37.65 4.75 40.75 4.4 40.2 8.15 L35.95 8.2" fill="url(#decoration94-gradient19)" fill-rule="evenodd" stroke="none"/>
      <path d="M35.95 8.2 Q35.5 5.4 37.65 4.75 40.75 4.4 40.2 8.15" fill="none" stroke="#000000" stroke-linecap="round" stroke-linejoin="round" stroke-opacity="0.3019608" stroke-width="0.30000000000000004"/>
      <path d="M41.45 8.2 Q41.0 5.4 43.15 4.75 46.25 4.4 45.7 8.15 L41.45 8.2" fill="url(#decoration94-gradient20)" fill-rule="evenodd" stroke="none"/>
      <path d="M41.45 8.2 Q41.0 5.4 43.15 4.75 46.25 4.4 45.7 8.15" fill="none" stroke="#000000" stroke-linecap="round" stroke-linejoin="round" stroke-opacity="0.3019608" stroke-width="0.30000000000000004"/>
      <path d="M47.55 8.2 Q47.1 5.4 49.25 4.75 52.35 4.4 51.8 8.15 L47.55 8.2" fill="url(#decoration94-gradient21)" fill-rule="evenodd" stroke="none"/>
      <path d="M47.55 8.2 Q47.1 5.4 49.25 4.75 52.35 4.4 51.8 8.15" fill="none" stroke="#000000" stroke-linecap="round" stroke-linejoin="round" stroke-opacity="0.3019608" stroke-width="0.30000000000000004"/>
      <path d="M53.05 8.3 Q52.6 5.5 54.75 4.85 57.85 4.5 57.3 8.25 L53.05 8.3" fill="url(#decoration94-gradient22)" fill-rule="evenodd" stroke="none"/>
      <path d="M53.05 8.3 Q52.6 5.5 54.75 4.85 57.85 4.5 57.3 8.25" fill="none" stroke="#000000" stroke-linecap="round" stroke-linejoin="round" stroke-opacity="0.3019608" stroke-width="0.30000000000000004"/>
      <path d="M20.25 20.25 Q20.55 21.1 20.3 21.75 19.6 23.2 18.6 22.6 19.1 24.6 18.5 25.55 18.1 26.45 16.4 26.8 17.85 26.1 18.15 24.55 L18.15 23.15 17.6 21.55 Q19.85 22.9 20.25 20.25 M14.45 22.45 Q13.25 22.15 13.05 21.25 13.7 21.85 15.25 21.5 L14.45 22.45 M18.6 15.8 Q20.1 17.25 19.35 19.1 L18.1 19.2 Q19.05 18.45 18.95 16.8 L18.6 15.8" fill="#000000" fill-opacity="0.36078432" fill-rule="evenodd" stroke="none"/>
      <path d="M14.05 23.4 L14.45 22.45 15.25 21.5 14.8 20.65 15.25 21.5 Q15.95 22.15 16.55 22.15 17.1 22.15 17.6 21.55 L18.1 20.75 17.6 21.55 Q17.1 22.15 16.55 22.15 15.95 22.15 15.25 21.5 13.7 21.85 13.05 21.25 12.45 20.7 12.6 19.4 12.7 20.45 14.8 20.65 14.8 19.65 15.55 19.25 L14.55 18.45 Q13.55 17.55 13.85 16.9 L14.8 15.6 Q14.4 16.95 15.1 17.55 16.05 16.7 16.45 14.5 16.9 17.3 18.05 17.1 19.05 16.9 17.8 14.65 L18.6 15.8 18.95 16.8 Q19.05 18.45 18.1 19.2 L17.55 19.45 18.1 20.75 Q19.6 21.1 20.25 20.25 19.85 22.9 17.6 21.55 L18.15 23.15 Q17.8 22.6 17.15 23.35 L16.6 24.2 Q15.5 22.15 14.05 23.4 M15.55 19.25 Q14.95 20.6 16.3 21.15 17.95 21.2 17.55 19.45 17.1 19.0 16.4 19.05 L15.55 19.25 M16.6 24.2 L16.55 22.15 16.6 24.2 M16.5 16.35 L16.4 19.05 16.5 16.35" fill="#463e3e" fill-rule="evenodd" stroke="none"/>
      <path d="M16.4 26.8 Q14.85 25.95 14.3 24.65 13.95 23.85 14.05 23.4 15.5 22.15 16.6 24.2 L17.15 23.35 Q17.8 22.6 18.15 23.15 L18.15 24.55 Q17.85 26.1 16.4 26.8 M12.6 19.4 Q13.35 18.05 15.55 19.25 L16.4 19.05 Q17.1 19.0 17.55 19.45 17.95 21.2 16.3 21.15 14.95 20.6 15.55 19.25 14.8 19.65 14.8 20.65 12.7 20.45 12.6 19.4 M14.8 15.6 L16.45 13.35 17.8 14.65 Q19.05 16.9 18.05 17.1 16.9 17.3 16.45 14.5 16.05 16.7 15.1 17.55 14.4 16.95 14.8 15.6 M19.35 19.1 Q19.9 19.35 20.25 20.25 19.6 21.1 18.1 20.75 L17.55 19.45 18.1 19.2 19.35 19.1 M16.65 25.45 L16.6 24.2 16.65 25.45" fill="#808080" fill-rule="evenodd" stroke="none"/>
      <path d="M16.4 26.8 Q14.85 25.95 14.3 24.65 13.95 23.85 14.05 23.4 L14.45 22.45 M13.05 21.25 Q12.45 20.7 12.6 19.4 13.35 18.05 15.55 19.25 L14.55 18.45 Q13.55 17.55 13.85 16.9 L14.8 15.6 16.45 13.35 17.8 14.65 18.6 15.8 18.95 16.8 Q19.05 18.45 18.1 19.2 L19.35 19.1 Q19.9 19.35 20.25 20.25 19.85 22.9 17.6 21.55 L18.15 23.15 18.15 24.55 Q17.85 26.1 16.4 26.8 M17.55 19.45 Q17.1 19.0 16.4 19.05 L15.55 19.25 Q14.8 19.65 14.8 20.65 L15.25 21.5 Q15.95 22.15 16.55 22.15 17.1 22.15 17.6 21.55 L18.1 20.75 17.55 19.45 18.1 19.2 M16.55 22.15 L16.6 24.2 16.65 25.45 M15.25 21.5 L14.45 22.45 M16.4 19.05 L16.5 16.35 M15.25 21.5 Q13.7 21.85 13.05 21.25" fill="none" stroke="#000000" stroke-linecap="round" stroke-linejoin="round" stroke-opacity="0.3019608" stroke-width="0.30000000000000004"/>
      <path d="M52.6 15.65 L23.5 15.65 21.2 14.15 52.6 14.15 52.6 15.65" fill="#919191" fill-rule="evenodd" stroke="none"/>
      <path d="M23.5 24.6 L52.6 24.6 52.6 26.4 21.2 26.4 23.5 24.6" fill="#433c3c" fill-rule="evenodd" stroke="none"/>
      <path d="M52.6 15.65 L52.6 24.6 23.5 24.6 23.5 15.65 52.6 15.65" fill="url(#decoration94-gradient23)" fill-rule="evenodd" stroke="none"/>
      <path d="M23.5 15.65 L23.5 24.6 21.2 26.4 21.2 14.15 23.5 15.65" fill="#666464" fill-rule="evenodd" stroke="none"/>
      <path d="M52.6 15.65 L23.5 15.65 23.5 24.6 52.6 24.6 M52.6 26.4 L21.2 26.4 21.2 14.15 52.6 14.15 M21.2 14.15 L23.5 15.65 M21.2 26.4 L23.5 24.6" fill="none" stroke="#000000" stroke-linecap="round" stroke-linejoin="round" stroke-opacity="0.3019608" stroke-width="0.30000000000000004"/>
      <path d="M34.8 21.0 L34.65 20.7 34.45 19.9 Q34.35 19.05 34.65 18.65 35.05 18.1 36.35 18.1 37.55 18.1 37.55 18.8 L37.3 19.35 Q37.95 20.0 38.35 19.1 L38.65 18.1 39.4 18.85 Q39.8 20.05 38.5 20.55 37.15 21.0 36.5 19.95 36.2 19.45 37.0 19.2 36.0 18.55 34.8 19.6 34.6 20.1 34.8 21.0 M33.25 19.75 L33.75 21.0 Q34.5 22.15 36.35 22.45 L39.0 22.45 Q42.6 22.35 44.15 20.95 L46.2 19.65 46.15 21.4 Q41.6 23.3 37.3 22.95 34.2 22.65 33.35 21.4 33.2 21.2 33.2 20.85 L33.1 20.35 Q32.05 18.95 30.45 18.9 L29.15 19.15 Q29.85 18.55 31.4 18.15 32.5 18.55 33.25 19.75 M30.75 20.1 L31.5 20.25 Q32.35 20.5 32.4 21.3 32.5 22.5 30.1 22.45 L27.65 22.1 31.35 21.7 Q31.7 21.1 31.35 20.6 L30.75 20.1" fill="#544d4d" fill-rule="evenodd" stroke="none"/>
      <path d="M34.8 21.0 L35.5 21.55 Q36.6 22.15 38.55 22.25 37.3 21.4 38.8 21.05 39.8 21.55 41.9 21.65 L44.15 20.95 Q42.6 22.35 39.0 22.45 L36.35 22.45 Q34.5 22.15 33.75 21.0 L33.25 19.75 34.15 18.35 Q36.05 17.4 37.65 17.7 L38.65 18.1 38.35 19.1 Q37.95 20.0 37.3 19.35 L37.55 18.8 Q37.55 18.1 36.35 18.1 35.05 18.1 34.65 18.65 34.35 19.05 34.45 19.9 L34.65 20.7 34.8 21.0 M29.15 19.15 L28.9 19.25 Q28.25 19.5 27.7 20.05 27.0 21.05 29.65 21.5 29.25 20.45 29.95 20.15 L30.75 20.1 31.35 20.6 Q31.7 21.1 31.35 21.7 L27.65 22.1 27.55 22.05 Q26.15 21.1 26.6 20.05 L27.15 19.3 Q25.8 18.95 26.55 17.85 L28.0 18.35 29.5 18.3 31.4 18.15 Q29.85 18.55 29.15 19.15" fill="#808080" fill-rule="evenodd" stroke="none"/>
      <path d="M44.15 20.95 L41.9 21.65 Q39.8 21.55 38.8 21.05 37.3 21.4 38.55 22.25 36.6 22.15 35.5 21.55 L34.8 21.0 Q34.6 20.1 34.8 19.6 36.0 18.55 37.0 19.2 36.2 19.45 36.5 19.95 37.15 21.0 38.5 20.55 39.8 20.05 39.4 18.85 L38.65 18.1 37.65 17.7 Q36.05 17.4 34.15 18.35 L33.25 19.75 M44.15 20.95 L46.2 19.65 46.15 21.4 Q41.6 23.3 37.3 22.95 34.2 22.65 33.35 21.4 33.2 21.2 33.2 20.85 L33.1 20.35 Q32.05 18.95 30.45 18.9 L29.15 19.15 28.9 19.25 Q28.25 19.5 27.7 20.05 27.0 21.05 29.65 21.5 29.25 20.45 29.95 20.15 L30.75 20.1 31.5 20.25 Q32.35 20.5 32.4 21.3 32.5 22.5 30.1 22.45 L27.65 22.1 27.55 22.05 Q26.15 21.1 26.6 20.05 L27.15 19.3 Q25.8 18.95 26.55 17.85 L28.0 18.35 29.5 18.3 31.4 18.15 Q32.5 18.55 33.25 19.75" fill="none" stroke="#000000" stroke-linecap="round" stroke-linejoin="round" stroke-opacity="0.3019608" stroke-width="0.30000000000000004"/>
      <path d="M46.3 17.65 Q47.0 17.6 47.75 18.3 L48.75 18.5 49.75 18.05 Q50.45 16.2 52.6 15.95 L52.6 18.25 Q51.55 18.3 50.65 18.7 49.55 19.2 49.55 19.75 49.55 19.2 50.65 18.7 51.55 18.3 52.6 18.25 L52.6 21.85 Q51.5 22.05 50.55 21.4 49.6 20.8 49.55 19.75 49.4 20.05 49.4 20.45 49.45 21.55 50.7 22.15 51.6 22.6 52.6 22.65 L52.6 23.35 Q49.75 23.2 47.8 21.8 44.9 19.4 46.3 17.65" fill="#808080" fill-rule="evenodd" stroke="none"/>
      <path d="M46.3 17.65 Q44.9 19.4 47.8 21.8 49.75 23.2 52.6 23.35 L52.6 24.0 Q45.15 23.8 45.35 19.45 45.2 18.05 45.95 17.75 L46.3 17.65 M52.6 22.65 Q51.6 22.6 50.7 22.15 49.45 21.55 49.4 20.45 49.4 20.05 49.55 19.75 49.6 20.8 50.55 21.4 51.5 22.05 52.6 21.85 L52.6 22.65" fill="#544d4d" fill-rule="evenodd" stroke="none"/>
      <path d="M52.6 15.95 Q50.45 16.2 49.75 18.05 L48.75 18.5 47.75 18.3 Q47.0 17.6 46.3 17.65 L45.95 17.75 Q45.2 18.05 45.35 19.45 45.15 23.8 52.6 24.0 M52.6 22.65 Q51.6 22.6 50.7 22.15 49.45 21.55 49.4 20.45 49.4 20.05 49.55 19.75 49.55 19.2 50.65 18.7 51.55 18.3 52.6 18.25" fill="none" stroke="#000000" stroke-linecap="round" stroke-linejoin="round" stroke-opacity="0.3019608" stroke-width="0.30000000000000004"/>
      <path d="M53.8 149.7 L21.35 149.7 21.35 128.1 53.8 128.1 53.8 149.7" fill="url(#decoration94-gradient24)" fill-rule="evenodd" stroke="none"/>
      <path d="M53.8 149.7 L21.35 149.7 21.35 128.1 53.8 128.1" fill="none" stroke="#000000" stroke-linecap="round" stroke-linejoin="round" stroke-opacity="0.3019608" stroke-width="0.30000000000000004"/>
      <path d="M30.05 130.7 L53.85 130.7 53.85 145.9 30.05 145.9 30.05 143.25 26.9 143.25 26.9 133.15 30.05 133.15 30.05 130.7" fill="url(#decoration94-gradient25)" fill-rule="evenodd" stroke="none"/>
      <path d="M53.85 145.9 L53.85 146.75 29.05 146.75 29.05 143.8 25.6 143.8 26.9 143.25 30.05 143.25 30.05 145.9 53.85 145.9 M30.05 143.25 L29.05 143.8 30.05 143.25 M29.05 146.75 L30.05 145.9 29.05 146.75" fill="#4d4c4c" fill-rule="evenodd" stroke="none"/>
      <path d="M53.85 129.85 L53.85 130.7 30.05 130.7 29.05 129.85 53.85 129.85 M30.05 133.15 L26.9 133.15 25.6 132.55 29.05 132.55 30.05 133.15" fill="#9a9a9a" fill-rule="evenodd" stroke="none"/>
      <path d="M29.05 129.85 L30.05 130.7 30.05 133.15 29.05 132.55 29.05 129.85 M25.6 132.55 L26.9 133.15 26.9 143.25 25.6 143.8 25.6 132.55" fill="#696969" fill-rule="evenodd" stroke="none"/>
      <path d="M53.85 129.85 L54.55 129.85 M53.85 129.85 L29.05 129.85 29.05 132.55 25.6 132.55 25.6 143.8 29.05 143.8 M53.85 146.75 L54.55 146.75 M53.85 146.75 L29.05 146.75 29.05 143.8" fill="none" stroke="#000000" stroke-linecap="round" stroke-linejoin="round" stroke-opacity="0.3019608" stroke-width="0.30000000000000004"/>
      <path d="M30.05 130.7 L53.85 130.7 M26.9 133.15 L30.05 133.15 30.05 130.7 M26.9 133.15 L26.9 143.25" fill="none" stroke="#000000" stroke-linecap="round" stroke-linejoin="round" stroke-opacity="0.21176471" stroke-width="0.2"/>
      <path d="M29.05 129.85 L30.05 130.7 M30.05 133.15 L29.05 132.55 M25.6 132.55 L26.9 133.15 M26.9 143.25 L30.05 143.25 30.05 145.9 53.85 145.9 M26.9 143.25 L25.6 143.8 M29.05 143.8 L30.05 143.25 M30.05 145.9 L29.05 146.75" fill="none" stroke="#000000" stroke-linecap="round" stroke-linejoin="round" stroke-opacity="0.3019608" stroke-width="0.2"/>
    </g>
    <linearGradient gradientTransform="matrix(0.0, -0.0029, -0.0012, 0.0, 40.75, 153.25)" gradientUnits="userSpaceOnUse" id="decoration94-gradient0" spreadMethod="pad" x1="-819.2" x2="819.2">
      <stop offset="0.0" stop-color="#7b7b7b"/>
      <stop offset="0.9882352941176471" stop-color="#312e2d"/>
    </linearGradient>
    <linearGradient gradientTransform="matrix(0.0, -0.0017, 0.0021, 0.0, 22.65, 152.75)" gradientUnits="userSpaceOnUse" id="decoration94-gradient1" spreadMethod="pad" x1="-819.2" x2="819.2">
      <stop offset="0.0" stop-color="#000000" stop-opacity="0.0"/>
      <stop offset="0.9882352941176471" stop-color="#000000" stop-opacity="0.45882353"/>
    </linearGradient>
    <linearGradient gradientTransform="matrix(0.0, -0.0017, 0.0021, 0.0, 27.95, 152.75)" gradientUnits="userSpaceOnUse" id="decoration94-gradient2" spreadMethod="pad" x1="-819.2" x2="819.2">
      <stop offset="0.0" stop-color="#000000" stop-opacity="0.0"/>
      <stop offset="0.9882352941176471" stop-color="#000000" stop-opacity="0.45882353"/>
    </linearGradient>
    <linearGradient gradientTransform="matrix(0.0, -0.0017, 0.0021, 0.0, 33.25, 152.75)" gradientUnits="userSpaceOnUse" id="decoration94-gradient3" spreadMethod="pad" x1="-819.2" x2="819.2">
      <stop offset="0.0" stop-color="#000000" stop-opacity="0.0"/>
      <stop offset="0.9882352941176471" stop-color="#000000" stop-opacity="0.45882353"/>
    </linearGradient>
    <linearGradient gradientTransform="matrix(0.0, -0.0017, 0.0021, 0.0, 38.45, 152.75)" gradientUnits="userSpaceOnUse" id="decoration94-gradient4" spreadMethod="pad" x1="-819.2" x2="819.2">
      <stop offset="0.0" stop-color="#000000" stop-opacity="0.0"/>
      <stop offset="0.9882352941176471" stop-color="#000000" stop-opacity="0.45882353"/>
    </linearGradient>
    <linearGradient gradientTransform="matrix(0.0, -0.0017, 0.0021, 0.0, 43.75, 152.75)" gradientUnits="userSpaceOnUse" id="decoration94-gradient5" spreadMethod="pad" x1="-819.2" x2="819.2">
      <stop offset="0.0" stop-color="#000000" stop-opacity="0.0"/>
      <stop offset="0.9882352941176471" stop-color="#000000" stop-opacity="0.45882353"/>
    </linearGradient>
    <linearGradient gradientTransform="matrix(0.0, -0.0017, 0.0021, 0.0, 49.1, 152.75)" gradientUnits="userSpaceOnUse" id="decoration94-gradient6" spreadMethod="pad" x1="-819.2" x2="819.2">
      <stop offset="0.0" stop-color="#000000" stop-opacity="0.0"/>
      <stop offset="0.9882352941176471" stop-color="#000000" stop-opacity="0.45882353"/>
    </linearGradient>
    <linearGradient gradientTransform="matrix(0.0, -0.0017, 0.0021, 0.0, 54.6, 152.75)" gradientUnits="userSpaceOnUse" id="decoration94-gradient7" spreadMethod="pad" x1="-819.2" x2="819.2">
      <stop offset="0.0" stop-color="#000000" stop-opacity="0.0"/>
      <stop offset="0.9882352941176471" stop-color="#000000" stop-opacity="0.45882353"/>
    </linearGradient>
    <linearGradient gradientTransform="matrix(0.0, -0.0017, 0.0021, 0.0, 60.7, 152.75)" gradientUnits="userSpaceOnUse" id="decoration94-gradient8" spreadMethod="pad" x1="-819.2" x2="819.2">
      <stop offset="0.0" stop-color="#000000" stop-opacity="0.0"/>
      <stop offset="0.9882352941176471" stop-color="#000000" stop-opacity="0.45882353"/>
    </linearGradient>
    <linearGradient gradientTransform="matrix(0.0, -0.0027, 0.0029, 0.0, 33.2, 31.25)" gradientUnits="userSpaceOnUse" id="decoration94-gradient9" spreadMethod="pad" x1="-819.2" x2="819.2">
      <stop offset="0.0" stop-color="#808080"/>
      <stop offset="0.9882352941176471" stop-color="#383735"/>
    </linearGradient>
    <linearGradient gradientTransform="matrix(0.0, 0.0106, -0.01, 0.0, 32.2, 19.5)" gradientUnits="userSpaceOnUse" id="decoration94-gradient10" spreadMethod="pad" x1="-819.2" x2="819.2">
      <stop offset="0.0" stop-color="#939393"/>
      <stop offset="0.9882352941176471" stop-color="#545251"/>
    </linearGradient>
    <linearGradient gradientTransform="matrix(0.0, 0.0026, -0.0012, 0.0, 31.25, 29.4)" gradientUnits="userSpaceOnUse" id="decoration94-gradient11" spreadMethod="pad" x1="-819.2" x2="819.2">
      <stop offset="0.0" stop-color="#808080"/>
      <stop offset="0.9882352941176471" stop-color="#4d4948"/>
    </linearGradient>
    <linearGradient gradientTransform="matrix(0.0, -0.0032, -0.0013, 0.0, 31.85, 6.75)" gradientUnits="userSpaceOnUse" id="decoration94-gradient12" spreadMethod="pad" x1="-819.2" x2="819.2">
      <stop offset="0.0" stop-color="#797979"/>
      <stop offset="0.9882352941176471" stop-color="#3f3b39"/>
    </linearGradient>
    <linearGradient gradientTransform="matrix(0.0, -0.0019, -0.0013, 0.0, 36.2, 11.55)" gradientUnits="userSpaceOnUse" id="decoration94-gradient13" spreadMethod="pad" x1="-819.2" x2="819.2">
      <stop offset="0.0" stop-color="#808080"/>
      <stop offset="0.9882352941176471" stop-color="#4d4948"/>
    </linearGradient>
    <linearGradient gradientTransform="matrix(0.0, -0.0019, 0.0021, 0.0, 11.9, 5.75)" gradientUnits="userSpaceOnUse" id="decoration94-gradient14" spreadMethod="pad" x1="-819.2" x2="819.2">
      <stop offset="0.0" stop-color="#000000" stop-opacity="0.0"/>
      <stop offset="0.9882352941176471" stop-color="#000000" stop-opacity="0.45882353"/>
    </linearGradient>
    <linearGradient gradientTransform="matrix(0.0, -0.0019, 0.0021, 0.0, 17.2, 5.75)" gradientUnits="userSpaceOnUse" id="decoration94-gradient15" spreadMethod="pad" x1="-819.2" x2="819.2">
      <stop offset="0.0" stop-color="#000000" stop-opacity="0.0"/>
      <stop offset="0.9882352941176471" stop-color="#000000" stop-opacity="0.45882353"/>
    </linearGradient>
    <linearGradient gradientTransform="matrix(0.0, -0.0019, 0.0021, 0.0, 22.5, 5.75)" gradientUnits="userSpaceOnUse" id="decoration94-gradient16" spreadMethod="pad" x1="-819.2" x2="819.2">
      <stop offset="0.0" stop-color="#000000" stop-opacity="0.0"/>
      <stop offset="0.9882352941176471" stop-color="#000000" stop-opacity="0.45882353"/>
    </linearGradient>
    <linearGradient gradientTransform="matrix(0.0, -0.0019, 0.0021, 0.0, 27.7, 5.75)" gradientUnits="userSpaceOnUse" id="decoration94-gradient17" spreadMethod="pad" x1="-819.2" x2="819.2">
      <stop offset="0.0" stop-color="#000000" stop-opacity="0.0"/>
      <stop offset="0.9882352941176471" stop-color="#000000" stop-opacity="0.45882353"/>
    </linearGradient>
    <linearGradient gradientTransform="matrix(0.0, -0.0019, 0.0021, 0.0, 33.0, 5.75)" gradientUnits="userSpaceOnUse" id="decoration94-gradient18" spreadMethod="pad" x1="-819.2" x2="819.2">
      <stop offset="0.0" stop-color="#000000" stop-opacity="0.0"/>
      <stop offset="0.9882352941176471" stop-color="#000000" stop-opacity="0.45882353"/>
    </linearGradient>
    <linearGradient gradientTransform="matrix(0.0, -0.0019, 0.0021, 0.0, 38.35, 5.75)" gradientUnits="userSpaceOnUse" id="decoration94-gradient19" spreadMethod="pad" x1="-819.2" x2="819.2">
      <stop offset="0.0" stop-color="#000000" stop-opacity="0.0"/>
      <stop offset="0.9882352941176471" stop-color="#000000" stop-opacity="0.45882353"/>
    </linearGradient>
    <linearGradient gradientTransform="matrix(0.0, -0.0019, 0.0021, 0.0, 43.85, 5.75)" gradientUnits="userSpaceOnUse" id="decoration94-gradient20" spreadMethod="pad" x1="-819.2" x2="819.2">
      <stop offset="0.0" stop-color="#000000" stop-opacity="0.0"/>
      <stop offset="0.9882352941176471" stop-color="#000000" stop-opacity="0.45882353"/>
    </linearGradient>
    <linearGradient gradientTransform="matrix(0.0, -0.0019, 0.0021, 0.0, 49.95, 5.75)" gradientUnits="userSpaceOnUse" id="decoration94-gradient21" spreadMethod="pad" x1="-819.2" x2="819.2">
      <stop offset="0.0" stop-color="#000000" stop-opacity="0.0"/>
      <stop offset="0.9882352941176471" stop-color="#000000" stop-opacity="0.45882353"/>
    </linearGradient>
    <linearGradient gradientTransform="matrix(0.0, -0.0019, 0.0021, 0.0, 55.45, 5.85)" gradientUnits="userSpaceOnUse" id="decoration94-gradient22" spreadMethod="pad" x1="-819.2" x2="819.2">
      <stop offset="0.0" stop-color="#000000" stop-opacity="0.0"/>
      <stop offset="0.9882352941176471" stop-color="#000000" stop-opacity="0.45882353"/>
    </linearGradient>
    <linearGradient gradientTransform="matrix(0.0, 0.009, -0.0055, 0.0, 38.95, 26.4)" gradientUnits="userSpaceOnUse" id="decoration94-gradient23" spreadMethod="pad" x1="-819.2" x2="819.2">
      <stop offset="0.0" stop-color="#808080"/>
      <stop offset="0.9882352941176471" stop-color="#4d4948"/>
    </linearGradient>
    <linearGradient gradientTransform="matrix(0.0, -0.0095, 0.0132, 0.0, 37.45, 134.9)" gradientUnits="userSpaceOnUse" id="decoration94-gradient24" spreadMethod="pad" x1="-819.2" x2="819.2">
      <stop offset="0.0" stop-color="#747272"/>
      <stop offset="1.0" stop-color="#a8a5a5"/>
    </linearGradient>
    <linearGradient gradientTransform="matrix(0.0, -0.007, 0.0093, 0.0, 40.35, 138.3)" gradientUnits="userSpaceOnUse" id="decoration94-gradient25" spreadMethod="pad" x1="-819.2" x2="819.2">
      <stop offset="0.0" stop-color="#808080"/>
      <stop offset="1.0" stop-color="#a8a5a5"/>
    </linearGradient>
    <g id="decoration94-sprite1" transform="matrix(1.0, 0.0, 0.0, 1.0, 0.15, 0.15)">
      <use height="18.15" transform="matrix(1.0, 0.0, 0.0, 1.0, -0.15, -0.15)" width="4.85" xlink:href="#decoration94-shape2"/>
    </g>
    <g id="decoration94-shape2" transform="matrix(1.0, 0.0, 0.0, 1.0, 0.15, 0.15)">
      <path d="M3.3 0.05 L4.55 0.2 4.55 2.8 3.3 2.8 3.3 0.05 M4.55 5.4 L4.55 17.85 0.0 17.85 0.0 13.95 Q0.8 16.95 2.6 16.0 3.35 15.05 3.3 13.8 L3.3 5.4 4.55 5.4" fill="#2a2119" fill-rule="evenodd" stroke="none"/>
      <path d="M4.55 2.8 L4.55 5.4 3.3 5.4 3.3 2.8 4.55 2.8" fill="#8a6010" fill-rule="evenodd" stroke="none"/>
      <path d="M0.0 13.95 L0.0 5.4 3.3 5.4 3.3 13.8 Q3.35 15.05 2.6 16.0 0.8 16.95 0.0 13.95 M0.0 2.8 L0.0 0.2 3.3 0.05 3.3 2.8 0.0 2.8" fill="#413529" fill-rule="evenodd" stroke="none"/>
      <path d="M0.0 5.4 L0.0 2.8 3.3 2.8 3.3 5.4 0.0 5.4" fill="#a37b2e" fill-rule="evenodd" stroke="none"/>
      <path d="M3.3 0.05 L4.55 0.2 4.55 2.8 4.55 5.4 4.55 17.85 0.0 17.85 0.0 13.95 0.0 5.4 0.0 2.8 0.0 0.2 3.3 0.05 M3.3 2.8 L4.55 2.8 M3.3 5.4 L4.55 5.4 M3.3 2.8 L0.0 2.8 M0.0 5.4 L3.3 5.4" fill="none" stroke="#000000" stroke-linecap="round" stroke-linejoin="round" stroke-opacity="0.3019608" stroke-width="0.30000000000000004"/>
    </g>
    <g id="decoration94-shape3" transform="matrix(1.0, 0.0, 0.0, 1.0, 23.0, 101.4)">
      <path d="M13.6 -83.4 Q12.25 -84.2 9.4 -82.95 L8.5 -83.7 11.15 -85.9 14.25 -85.5 13.6 -83.4" fill="#2e2b21" fill-rule="evenodd" stroke="none"/>
      <path d="M13.6 -83.4 L14.25 -85.5 11.15 -85.9 8.5 -83.7 9.4 -82.95 Q12.25 -84.2 13.6 -83.4 Z" fill="none" stroke="#000000" stroke-linecap="round" stroke-linejoin="round" stroke-opacity="0.3019608" stroke-width="0.05"/>
      <path d="M14.5 -85.9 L15.95 -86.6 15.2 -83.95 Q15.35 -85.0 15.15 -85.05 14.55 -85.05 14.3 -83.75 L14.5 -85.9 14.3 -83.75 Q14.1 -84.4 13.7 -84.35 13.2 -84.35 13.2 -83.7 L13.1 -85.25 14.5 -85.9" fill="url(#decoration94-gradient26)" fill-rule="evenodd" stroke="none"/>
      <path d="M14.3 -83.75 Q14.55 -85.05 15.15 -85.05 15.35 -85.0 15.2 -83.95 L14.95 -83.0 14.15 -82.55 13.45 -82.2 13.2 -83.7 Q13.2 -84.35 13.7 -84.35 14.1 -84.4 14.3 -83.75 L14.15 -82.55 14.3 -83.75" fill="#eceae3" fill-rule="evenodd" stroke="none"/>
      <path d="M15.2 -83.95 L15.95 -86.6 14.5 -85.9 14.3 -83.75 14.15 -82.55 13.45 -82.2 13.2 -83.7 13.1 -85.25 14.5 -85.9 M15.2 -83.95 L14.95 -83.0 14.15 -82.55" fill="none" stroke="#000000" stroke-linecap="round" stroke-linejoin="round" stroke-opacity="0.3019608" stroke-width="0.05"/>
      <path d="M12.9 -91.5 L13.15 -90.8 Q13.35 -89.9 14.05 -89.25 L14.0 -89.25 Q13.15 -89.3 13.2 -88.9 L13.3 -88.5 12.6 -88.3 11.95 -87.85 12.15 -87.3 12.35 -87.05 12.95 -86.6 14.0 -86.4 Q15.2 -86.55 15.2 -87.2 15.6 -86.5 15.4 -85.85 15.0 -85.0 13.1 -85.0 11.3 -84.25 10.2 -83.0 7.4 -81.95 4.65 -82.65 0.95 -82.75 0.05 -84.4 -0.6 -88.15 0.9 -91.2 1.45 -92.4 2.3 -93.2 1.75 -91.9 3.2 -91.35 2.35 -90.35 4.0 -90.45 2.75 -90.15 2.5 -87.8 2.65 -86.4 5.45 -85.85 L6.85 -86.0 Q7.95 -86.25 8.0 -87.15 L7.7 -88.25 Q8.75 -87.6 8.25 -89.0 7.8 -90.2 7.15 -90.9 8.75 -89.95 9.25 -89.0 L10.85 -89.1 Q11.6 -89.45 11.7 -90.05 12.6 -90.05 12.85 -90.4 13.05 -90.65 12.9 -91.5 M13.2 -88.9 L12.05 -89.3 11.7 -90.05 12.05 -89.3 13.2 -88.9" fill="url(#decoration94-gradient27)" fill-rule="evenodd" stroke="none"/>
      <path d="M2.3 -93.2 Q3.55 -94.3 5.35 -94.5 6.65 -94.25 7.8 -93.65 L8.3 -93.3 Q6.6 -94.65 7.65 -94.8 8.7 -94.7 9.95 -94.05 12.05 -93.05 12.9 -91.5 13.05 -90.65 12.85 -90.4 12.6 -90.05 11.7 -90.05 L11.4 -90.5 10.8 -89.9 9.95 -89.85 10.8 -89.9 11.4 -90.5 11.7 -90.05 Q11.6 -89.45 10.85 -89.1 L9.25 -89.0 Q8.75 -89.95 7.15 -90.9 7.8 -90.2 8.25 -89.0 8.75 -87.6 7.7 -88.25 7.0 -89.8 4.9 -90.45 L4.0 -90.45 Q2.35 -90.35 3.2 -91.35 1.75 -91.9 2.3 -93.2 M11.4 -90.5 L11.15 -91.0 11.4 -90.5 M6.4 -92.15 L7.55 -92.55 6.95 -93.25 7.8 -93.65 6.95 -93.25 7.55 -92.55 6.4 -92.15 M7.15 -90.9 Q6.05 -92.1 4.2 -91.5 6.05 -92.1 7.15 -90.9 M10.05 -91.75 L9.5 -92.4 10.05 -91.75" fill="url(#decoration94-gradient28)" fill-rule="evenodd" stroke="none"/>
      <path d="M14.0 -89.25 L14.7 -88.75 15.35 -88.25 Q15.15 -87.3 15.65 -87.25 L15.2 -87.2 14.95 -87.65 15.2 -87.2 Q15.2 -86.55 14.0 -86.4 13.65 -87.15 12.35 -87.05 L12.15 -87.3 11.95 -87.85 12.6 -88.3 13.3 -88.5 13.2 -88.9 Q13.15 -89.3 14.0 -89.25 M14.35 -87.95 L13.3 -88.5 14.35 -87.95" fill="#e5e0d2" fill-rule="evenodd" stroke="none"/>
      <path d="M15.35 -88.25 L15.95 -87.7 Q16.05 -87.35 15.65 -87.25 15.15 -87.3 15.35 -88.25 M7.7 -88.25 L8.0 -87.15 Q7.95 -86.25 6.85 -86.0 4.7 -86.15 3.85 -87.7 3.6 -89.45 4.9 -90.45 7.0 -89.8 7.7 -88.25 M14.0 -86.4 L12.95 -86.6 12.35 -87.05 Q13.65 -87.15 14.0 -86.4" fill="#1c1912" fill-rule="evenodd" stroke="none"/>
      <path d="M15.95 -87.7 Q16.4 -87.25 16.2 -86.55 16.0 -86.0 15.4 -85.85 15.6 -86.5 15.2 -87.2 L15.65 -87.25 Q16.05 -87.35 15.95 -87.7 M5.35 -94.5 L7.65 -94.8 Q6.6 -94.65 8.3 -93.3 L7.8 -93.65 Q6.65 -94.25 5.35 -94.5" fill="#bdb6a1" fill-rule="evenodd" stroke="none"/>
      <path d="M6.85 -86.0 L5.45 -85.85 Q2.65 -86.4 2.5 -87.8 2.75 -90.15 4.0 -90.45 L4.9 -90.45 Q3.6 -89.45 3.85 -87.7 4.7 -86.15 6.85 -86.0" fill="#79725e" fill-rule="evenodd" stroke="none"/>
      <path d="M12.9 -91.5 L13.15 -90.8 Q13.35 -89.9 14.05 -89.25 L14.0 -89.25 14.7 -88.75 15.35 -88.25 15.95 -87.7 Q16.4 -87.25 16.2 -86.55 16.0 -86.0 15.4 -85.85 15.0 -85.0 13.1 -85.0 11.3 -84.25 10.2 -83.0 7.4 -81.95 4.65 -82.65 0.95 -82.75 0.05 -84.4 -0.6 -88.15 0.9 -91.2 1.45 -92.4 2.3 -93.2 3.55 -94.3 5.35 -94.5 L7.65 -94.8 Q8.7 -94.7 9.95 -94.05 12.05 -93.05 12.9 -91.5 M11.7 -90.05 L12.05 -89.3 13.2 -88.9 M11.7 -90.05 L11.4 -90.5 10.8 -89.9 9.95 -89.85 M11.15 -91.0 L11.4 -90.5 M13.3 -88.5 L14.35 -87.95 M7.15 -90.9 Q7.8 -90.2 8.25 -89.0 M7.7 -88.25 L8.0 -87.15 Q7.95 -86.25 6.85 -86.0 L5.45 -85.85 Q2.65 -86.4 2.5 -87.8 2.75 -90.15 4.0 -90.45 L4.9 -90.45 Q7.0 -89.8 7.7 -88.25 M15.65 -87.25 Q15.15 -87.3 15.35 -88.25 M14.95 -87.65 L15.2 -87.2 Q15.6 -86.5 15.4 -85.85 M7.8 -93.65 L6.95 -93.25 7.55 -92.55 6.4 -92.15 M5.35 -94.5 Q6.65 -94.25 7.8 -93.65 L8.3 -93.3 M4.9 -90.45 Q3.6 -89.45 3.85 -87.7 4.7 -86.15 6.85 -86.0 M9.5 -92.4 L10.05 -91.75 M4.2 -91.5 Q6.05 -92.1 7.15 -90.9 M14.0 -86.4 L12.95 -86.6 12.35 -87.05 Q13.65 -87.15 14.0 -86.4" fill="none" stroke="#000000" stroke-linecap="round" stroke-linejoin="round" stroke-opacity="0.3019608" stroke-width="0.05"/>
      <path d="M29.0 -77.9 Q30.4 -77.15 31.75 -77.0 29.8 -68.95 27.2 -61.6 24.05 -61.15 24.9 -64.25 L29.0 -77.9" fill="#7b2d10" fill-rule="evenodd" stroke="none"/>
      <path d="M31.75 -77.0 Q30.4 -77.15 29.0 -77.9 L32.75 -77.0 31.75 -77.0" fill="#d0b389" fill-rule="evenodd" stroke="none"/>
      <path d="M24.9 -64.25 Q24.05 -61.15 27.2 -61.6 29.8 -68.95 31.75 -77.0 L32.75 -77.0 27.75 -60.6 Q24.5 -60.5 24.0 -61.45 L24.9 -64.25" fill="#4f1a07" fill-rule="evenodd" stroke="none"/>
      <path d="M31.75 -77.0 Q30.4 -77.15 29.0 -77.9 L24.9 -64.25 M31.75 -77.0 L32.75 -77.0 29.0 -77.9 M32.75 -77.0 L27.75 -60.6 Q24.5 -60.5 24.0 -61.45 L24.9 -64.25" fill="none" stroke="#000000" stroke-linecap="round" stroke-linejoin="round" stroke-opacity="0.30980393" stroke-width="0.2"/>
      <path d="M-21.7 -69.45 L-20.6 -68.4 -7.95 -68.3 Q-7.25 -67.75 -7.95 -67.4 L-21.9 -66.9 Q-22.6 -68.2 -21.7 -69.45 M-22.6 -71.1 L-22.3 -72.4 -7.65 -72.4 Q-8.2 -70.9 -11.65 -70.45 L-13.2 -70.35 -13.7 -70.3 Q-21.95 -69.9 -22.6 -71.1 M-17.95 -60.6 L-21.4 -60.6 Q-21.85 -62.05 -21.4 -63.55 L-19.4 -63.55 Q-19.9 -64.65 -19.6 -65.8 L-6.45 -65.8 Q-6.05 -65.15 -7.0 -64.3 L-17.6 -63.55 -19.4 -63.55 -18.25 -62.9 -13.15 -62.85 Q-11.1 -62.5 -10.0 -62.0 -9.95 -60.8 -17.95 -60.6" fill="#494854" fill-rule="evenodd" stroke="none"/>
      <path d="M-21.9 -66.9 L-7.95 -67.4 Q-7.25 -67.75 -7.95 -68.3 L-20.6 -68.4 -21.7 -69.45 -6.9 -69.45 -6.9 -69.5 -6.9 -69.45 -21.7 -69.45 -22.3 -69.45 Q-22.7 -70.3 -22.6 -71.1 -21.95 -69.9 -13.7 -70.3 L-13.2 -70.35 -11.65 -70.45 Q-8.2 -70.9 -7.65 -72.4 L-6.9 -72.4 -7.2 -71.8 -7.3 -70.9 -7.25 -70.4 -6.9 -69.5 -6.3 -69.5 -6.5 -68.75 -6.6 -68.3 -6.6 -67.9 -6.3 -66.5 -18.95 -66.5 -6.3 -66.5 -5.65 -66.5 -4.0 -66.5 -4.2 -65.5 -4.2 -64.4 -4.0 -63.55 -5.0 -63.55 -6.0 -63.55 -6.2 -62.85 -6.3 -62.1 -6.2 -61.2 -6.0 -60.6 -17.95 -60.6 Q-9.95 -60.8 -10.0 -62.0 -11.1 -62.5 -13.15 -62.85 L-18.25 -62.9 -19.4 -63.55 -17.6 -63.55 -7.0 -64.3 Q-6.05 -65.15 -6.45 -65.8 L-19.6 -65.8 -19.4 -66.5 -18.95 -66.5 -21.7 -66.55 -21.9 -66.9 M-6.0 -63.55 L-17.6 -63.55 -6.0 -63.55" fill="#29292e" fill-rule="evenodd" stroke="none"/>
      <path d="M-6.3 -66.5 L-6.6 -67.9 -6.6 -68.3 -6.5 -68.75 -6.3 -69.5 -6.9 -69.5 -7.25 -70.4 -7.3 -70.9 -7.2 -71.8 -6.9 -72.4 -6.4 -71.85 -6.5 -71.25 -6.55 -70.75 -6.5 -70.2 -6.3 -69.5 -5.65 -68.85 -5.75 -68.35 -5.8 -67.6 -5.75 -67.05 -5.65 -66.5 -6.3 -66.5 -5.75 -67.05 -6.3 -66.5 M-4.0 -66.5 L-3.45 -65.7 -3.45 -64.7 -3.45 -64.2 -3.45 -63.7 -4.0 -63.55 -4.2 -64.4 -3.45 -64.2 -4.2 -64.4 -4.2 -65.5 -4.0 -66.5 M-5.0 -63.55 L-5.0 -62.8 -5.0 -61.85 -5.0 -61.45 -5.0 -60.85 -6.0 -60.6 -6.2 -61.2 -5.0 -61.45 -6.2 -61.2 -6.3 -62.1 -6.2 -62.85 -6.0 -63.55 -5.0 -62.8 -6.0 -63.55 -5.0 -63.55 M-5.8 -67.6 L-6.6 -67.9 -5.8 -67.6 M-5.75 -68.35 L-6.5 -68.75 -5.75 -68.35 M-6.55 -70.75 L-7.3 -70.9 -6.55 -70.75 M-6.5 -70.2 L-7.25 -70.4 -6.5 -70.2 M-6.5 -71.25 L-7.2 -71.8 -6.5 -71.25 M-5.0 -61.85 L-6.3 -62.1 -5.0 -61.85 M-3.45 -64.7 L-4.2 -65.5 -3.45 -64.7" fill="#9c835d" fill-rule="evenodd" stroke="none"/>
      <path d="M-21.7 -69.45 Q-22.6 -68.2 -21.9 -66.9 L-21.7 -66.55 -18.95 -66.5 -6.3 -66.5 -6.6 -67.9 -6.6 -68.3 -6.5 -68.75 -6.3 -69.5 -6.9 -69.5 -6.9 -69.45 -21.7 -69.45 -22.3 -69.45 Q-22.7 -70.3 -22.6 -71.1 L-22.3 -72.4 -7.65 -72.4 -6.9 -72.4 -6.4 -71.85 -6.5 -71.25 -6.55 -70.75 -6.5 -70.2 -6.3 -69.5 -5.65 -68.85 -5.75 -68.35 -5.8 -67.6 -5.75 -67.05 -5.65 -66.5 -4.0 -66.5 -3.45 -65.7 -3.45 -64.7 -3.45 -64.2 -3.45 -63.7 -4.0 -63.55 -5.0 -63.55 -5.0 -62.8 -5.0 -61.85 -5.0 -61.45 -5.0 -60.85 -6.0 -60.6 -17.95 -60.6 -21.4 -60.6 Q-21.85 -62.05 -21.4 -63.55 L-19.4 -63.55 Q-19.9 -64.65 -19.6 -65.8 L-19.4 -66.5 -18.95 -66.5 M-6.9 -69.5 L-7.25 -70.4 -7.3 -70.9 -7.2 -71.8 -6.9 -72.4 M-7.2 -71.8 L-6.5 -71.25 M-7.25 -70.4 L-6.5 -70.2 M-7.3 -70.9 L-6.55 -70.75 M-6.5 -68.75 L-5.75 -68.35 M-6.6 -67.9 L-5.8 -67.6 M-6.3 -66.5 L-5.75 -67.05 M-6.3 -66.5 L-5.65 -66.5 M-6.0 -63.55 L-6.2 -62.85 -6.3 -62.1 -5.0 -61.85 M-4.0 -66.5 L-4.2 -65.5 -3.45 -64.7 M-4.2 -64.4 L-3.45 -64.2 M-4.2 -64.4 L-4.0 -63.55 M-4.2 -65.5 L-4.2 -64.4 M-6.0 -63.55 L-5.0 -62.8 M-6.0 -63.55 L-5.0 -63.55 M-19.4 -63.55 L-17.6 -63.55 -6.0 -63.55 M-6.2 -61.2 L-6.0 -60.6 M-6.2 -61.2 L-5.0 -61.45 M-6.3 -62.1 L-6.2 -61.2" fill="none" stroke="#000000" stroke-linecap="round" stroke-linejoin="round" stroke-opacity="0.30980393" stroke-width="0.2"/>
      <path d="M-19.7 -83.1 L-21.35 -98.25 -11.15 -98.25 -8.55 -82.7 -19.7 -83.1" fill="#251d13" fill-rule="evenodd" stroke="none"/>
      <path d="M-11.2 -98.4 L-10.3 -98.3 -7.65 -82.9 -9.6 -82.7 -9.85 -84.25 -8.8 -83.5 -11.2 -98.4 M-13.9 -98.4 L-12.85 -98.3 -10.15 -82.9 -12.15 -82.7 -12.45 -84.45 -11.15 -83.75 -13.9 -98.4 M-18.4 -98.35 L-17.8 -98.3 -15.1 -82.9 -17.1 -82.7 -17.35 -84.4 -16.4 -84.0 -18.4 -98.35 M-16.15 -98.4 L-15.3 -98.3 -12.6 -82.9 -14.6 -82.7 -14.95 -84.75 -13.6 -83.9 -16.15 -98.4" fill="#483a26" fill-rule="evenodd" stroke="none"/>
      <path d="M-9.85 -84.25 L-12.25 -98.15 -11.2 -98.4 -8.8 -83.5 -9.85 -84.25 M-12.45 -84.45 L-14.8 -98.15 -13.9 -98.4 -11.15 -83.75 -12.45 -84.45 M-17.35 -84.4 L-19.7 -98.15 -18.4 -98.35 -16.4 -84.0 -17.35 -84.4 M-14.95 -84.75 L-17.25 -98.15 -16.15 -98.4 -13.6 -83.9 -14.95 -84.75" fill="#6b593e" fill-rule="evenodd" stroke="none"/>
      <path d="M-11.2 -98.4 L-10.3 -98.3 -7.65 -82.9 -9.6 -82.7 -9.85 -84.25 -12.25 -98.15 -11.2 -98.4 M-12.45 -84.45 L-14.8 -98.15 -13.9 -98.4 -12.85 -98.3 -10.15 -82.9 -12.15 -82.7 -12.45 -84.45 M-17.35 -84.4 L-19.7 -98.15 -18.4 -98.35 -17.8 -98.3 -15.1 -82.9 -17.1 -82.7 -17.35 -84.4 M-14.95 -84.75 L-17.25 -98.15 -16.15 -98.4 -15.3 -98.3 -12.6 -82.9 -14.6 -82.7 -14.95 -84.75" fill="none" stroke="#000000" stroke-linecap="round" stroke-linejoin="round" stroke-opacity="0.30980393" stroke-width="0.2"/>
      <path d="M-20.35 -85.3 L-22.9 -101.0 -21.65 -101.3 -18.9 -84.2 -20.35 -85.3" fill="#212a41" fill-rule="evenodd" stroke="none"/>
      <path d="M-21.65 -101.3 L-20.7 -101.2 -17.65 -82.95 -19.95 -82.7 -20.35 -85.3 -18.9 -84.2 -21.65 -101.3" fill="#141a2a" fill-rule="evenodd" stroke="none"/>
      <path d="M-21.65 -101.3 L-20.7 -101.2 -17.65 -82.95 -19.95 -82.7 -20.35 -85.3 -22.9 -101.0 -21.65 -101.3 Z" fill="none" stroke="#000000" stroke-linecap="round" stroke-linejoin="round" stroke-opacity="0.30980393" stroke-width="0.2"/>
    </g>
    <radialGradient cx="0" cy="0" fx="22.400000000000002" fy="0" gradientTransform="matrix(0.0025, -1.0E-4, -3.0E-4, 0.0023, 14.3, -83.9)" gradientUnits="userSpaceOnUse" id="decoration94-gradient26" r="819.2" spreadMethod="pad">
      <stop offset="0.0" stop-color="#938869"/>
      <stop offset="1.0" stop-color="#bdb6a1"/>
    </radialGradient>
    <radialGradient cx="0" cy="0" gradientTransform="matrix(0.0186, 0.0036, -0.0019, 0.0109, 7.2, -90.8)" gradientUnits="userSpaceOnUse" id="decoration94-gradient27" r="819.2" spreadMethod="pad">
      <stop offset="0.0" stop-color="#938869"/>
      <stop offset="1.0" stop-color="#bdb6a1"/>
    </radialGradient>
    <radialGradient cx="0" cy="0" fx="38.400000000000006" fy="0" gradientTransform="matrix(0.0074, 0.0035, -0.0028, 0.0059, 8.25, -93.6)" gradientUnits="userSpaceOnUse" id="decoration94-gradient28" r="819.2" spreadMethod="pad">
      <stop offset="0.0" stop-color="#fffaec"/>
      <stop offset="1.0" stop-color="#dbd6c5"/>
    </radialGradient>
    <g id="decoration94-shape4" transform="matrix(1.0, 0.0, 0.0, 1.0, 10.5, 57.05)">
      <path d="M2.25 -50.6 L3.15 -49.9 Q2.75 -52.6 1.6 -55.15 0.4 -53.1 0.3 -50.55 L2.25 -50.6 M3.65 -50.2 Q4.85 -51.9 5.95 -52.15 4.95 -53.6 2.85 -54.3 L3.65 -50.2 M8.0 -52.35 Q8.4 -51.05 13.5 -48.7 13.45 -50.15 14.0 -51.15 14.5 -52.0 15.2 -52.3 L9.95 -53.55 Q7.7 -53.3 8.0 -52.35 M6.9 -52.3 Q7.15 -53.4 8.75 -53.9 5.25 -54.85 1.75 -56.05 L6.9 -52.3 M16.1 -52.1 Q14.5 -50.65 14.45 -48.8 L14.75 -47.2 11.0 -47.45 Q7.2 -46.9 6.8 -42.65 L7.1 -41.2 7.4 -40.0 5.1 -43.3 Q3.05 -45.7 0.9 -45.45 -0.55 -45.3 -1.75 -44.05 L-2.7 -41.9 -3.6 -40.25 -3.0 -42.35 Q-2.25 -44.8 -2.35 -45.95 -2.6 -48.25 -4.55 -49.7 -6.25 -51.0 -10.5 -49.45 -7.75 -50.7 -4.15 -52.95 1.15 -56.25 1.65 -57.05 5.3 -54.75 12.25 -53.35 L19.55 -51.85 16.1 -52.1 M6.15 -43.75 Q6.8 -46.65 9.45 -47.65 10.75 -48.2 12.15 -48.15 9.9 -50.4 6.75 -51.6 4.9 -51.35 4.0 -48.8 L6.15 -43.75 M3.7 -48.35 Q2.95 -50.0 1.6 -50.25 0.25 -50.5 -0.45 -48.65 L-1.4 -45.15 Q-0.35 -46.1 1.05 -46.25 2.85 -46.4 4.7 -45.15 4.45 -46.75 3.7 -48.35 M-0.15 -51.2 L1.05 -55.7 -2.8 -53.4 -1.35 -52.5 -0.15 -51.2 M-0.8 -50.65 Q-1.3 -52.9 -4.15 -52.7 L-6.9 -50.7 Q-4.15 -50.6 -2.7 -48.55 -2.1 -47.8 -1.7 -46.3 -0.35 -48.4 -0.8 -50.65" fill="#ffffff" fill-opacity="0.34901962" fill-rule="evenodd" stroke="none"/>
    </g>
    <g id="decoration94-sprite2" transform="matrix(1.0, 0.0, 0.0, 1.0, 0.1, 0.1)">
      <use height="13.05" transform="matrix(1.0, 0.0, 0.0, 1.0, -0.1, -0.1)" width="30.0" xlink:href="#decoration94-shape5"/>
    </g>
    <g id="decoration94-shape5" transform="matrix(1.0, 0.0, 0.0, 1.0, 0.1, 0.1)">
      <path d="M27.45 1.65 Q23.9 -0.05 21.45 1.75 19.3 3.3 21.15 5.1 22.85 7.0 21.6 8.4 L20.2 9.9 Q19.75 11.95 22.65 12.2 25.9 11.8 24.55 10.25 24.25 8.7 25.15 9.05 27.2 9.4 25.9 11.65 24.2 13.25 21.05 12.7 19.1 11.9 18.95 10.5 L17.55 10.65 Q15.15 10.5 14.95 7.8 L14.9 7.45 14.85 7.8 Q14.65 10.5 12.25 10.65 L10.85 10.5 Q10.7 11.9 8.75 12.7 5.6 13.25 3.9 11.65 2.6 9.4 4.65 9.05 5.55 8.7 5.25 10.25 3.9 11.8 7.15 12.2 10.05 11.95 9.6 9.9 8.85 9.35 8.2 8.4 6.95 7.0 8.65 5.1 10.5 3.3 8.35 1.75 5.9 -0.05 2.35 1.65 1.05 2.6 1.15 3.8 1.25 5.05 2.6 5.45 3.8 5.8 4.35 5.45 4.9 5.1 4.65 4.25 5.1 2.3 6.0 3.3 7.45 5.0 4.95 6.35 0.45 7.0 0.05 3.95 -0.25 1.35 2.15 0.45 4.35 -0.4 8.1 0.35 9.1 0.8 9.7 1.4 11.8 -0.15 13.15 1.65 11.7 1.25 10.7 3.05 10.9 4.05 10.5 5.25 9.75 6.05 9.55 7.25 9.45 9.15 12.0 9.8 13.7 9.9 13.95 8.05 14.05 6.2 13.2 6.35 12.4 7.05 12.95 8.05 11.8 7.9 11.65 6.15 12.15 4.9 14.0 5.0 14.75 5.5 14.9 6.5 15.05 5.5 15.8 5.0 17.65 4.9 18.15 6.15 18.0 7.9 16.85 8.05 17.4 7.05 16.6 6.35 15.75 6.2 15.85 8.05 16.1 9.9 17.8 9.8 20.35 9.15 20.25 7.25 20.05 6.05 19.3 5.25 18.9 4.05 19.1 3.05 18.1 1.25 16.65 1.65 18.0 -0.15 20.1 1.4 L21.7 0.35 Q25.45 -0.4 27.65 0.45 30.05 1.35 29.75 3.95 29.35 7.0 24.85 6.35 22.35 5.0 23.8 3.3 24.7 2.3 25.15 4.25 24.9 5.1 25.45 5.45 26.0 5.8 27.2 5.45 28.55 5.05 28.65 3.8 28.75 2.6 27.45 1.65 M14.9 7.45 L14.9 6.5 14.9 7.45" fill="#666666" fill-rule="evenodd" stroke="none"/>
      <path d="M27.45 1.65 Q23.9 -0.05 21.45 1.75 19.3 3.3 21.15 5.1 22.85 7.0 21.6 8.4 L20.2 9.9 Q19.75 11.95 22.65 12.2 25.9 11.8 24.55 10.25 24.25 8.7 25.15 9.05 27.2 9.4 25.9 11.65 24.2 13.25 21.05 12.7 19.1 11.9 18.95 10.5 L17.55 10.65 Q15.15 10.5 14.95 7.8 L14.9 7.45 14.85 7.8 Q14.65 10.5 12.25 10.65 L10.85 10.5 Q10.7 11.9 8.75 12.7 5.6 13.25 3.9 11.65 2.6 9.4 4.65 9.05 5.55 8.7 5.25 10.25 3.9 11.8 7.15 12.2 10.05 11.95 9.6 9.9 8.85 9.35 8.2 8.4 6.95 7.0 8.65 5.1 10.5 3.3 8.35 1.75 5.9 -0.05 2.35 1.65 1.05 2.6 1.15 3.8 1.25 5.05 2.6 5.45 3.8 5.8 4.35 5.45 4.9 5.1 4.65 4.25 5.1 2.3 6.0 3.3 7.45 5.0 4.95 6.35 0.45 7.0 0.05 3.95 -0.25 1.35 2.15 0.45 4.35 -0.4 8.1 0.35 9.1 0.8 9.7 1.4 11.8 -0.15 13.15 1.65 11.7 1.25 10.7 3.05 10.9 4.05 10.5 5.25 9.75 6.05 9.55 7.25 9.45 9.15 12.0 9.8 13.7 9.9 13.95 8.05 14.05 6.2 13.2 6.35 12.4 7.05 12.95 8.05 11.8 7.9 11.65 6.15 12.15 4.9 14.0 5.0 14.75 5.5 14.9 6.5 15.05 5.5 15.8 5.0 17.65 4.9 18.15 6.15 18.0 7.9 16.85 8.05 17.4 7.05 16.6 6.35 15.75 6.2 15.85 8.05 16.1 9.9 17.8 9.8 20.35 9.15 20.25 7.25 20.05 6.05 19.3 5.25 18.9 4.05 19.1 3.05 18.1 1.25 16.65 1.65 18.0 -0.15 20.1 1.4 L21.7 0.35 Q25.45 -0.4 27.65 0.45 30.05 1.35 29.75 3.95 29.35 7.0 24.85 6.35 22.35 5.0 23.8 3.3 24.7 2.3 25.15 4.25 24.9 5.1 25.45 5.45 26.0 5.8 27.2 5.45 28.55 5.05 28.65 3.8 28.75 2.6 27.45 1.65 M14.9 6.5 L14.9 7.45" fill="none" stroke="#000000" stroke-linecap="round" stroke-linejoin="round" stroke-opacity="0.25882354" stroke-width="0.2"/>
    </g>
    <g id="decoration94-shape6" transform="matrix(1.0, 0.0, 0.0, 1.0, -22.85, 99.3)">
      <path d="M22.85 -99.2 L25.05 -99.3 27.8 -99.15 26.35 -98.95 23.5 -99.05 22.85 -99.2" fill="#f0c384" fill-rule="evenodd" stroke="none"/>
      <path d="M22.85 -99.2 L23.5 -99.05 24.7 -95.0 24.05 -95.5 22.85 -99.2" fill="#cc9449" fill-rule="evenodd" stroke="none"/>
      <path d="M26.35 -98.95 L27.8 -99.15 27.1 -95.85 Q26.75 -94.9 26.0 -94.9 26.75 -98.15 26.35 -98.95" fill="#4d381b" fill-rule="evenodd" stroke="none"/>
      <path d="M23.5 -99.05 L26.35 -98.95 Q26.75 -98.15 26.0 -94.9 L24.7 -95.0 23.5 -99.05" fill="#966f36" fill-rule="evenodd" stroke="none"/>
      <path d="M27.8 -99.15 L25.05 -99.3 22.85 -99.2 M27.8 -99.15 L27.1 -95.85 Q26.75 -94.9 26.0 -94.9 L24.7 -95.0 24.05 -95.5 22.85 -99.2" fill="none" stroke="#000000" stroke-linecap="round" stroke-linejoin="round" stroke-opacity="0.3019608" stroke-width="0.05"/>
    </g>
    <g id="decoration94-sprite3" transform="matrix(1.0, 0.0, 0.0, 1.0, 0.15, 0.15)">
      <use height="6.1" transform="matrix(1.0, 0.0, 0.0, 1.0, -0.15, -0.15)" width="10.8" xlink:href="#decoration94-shape7"/>
    </g>
    <g id="decoration94-shape7" transform="matrix(1.0, 0.0, 0.0, 1.0, 0.15, 0.15)">
      <path d="M0.5 3.35 L2.15 0.0 8.35 0.0 10.2 3.5 Q10.85 4.65 10.2 5.8 L0.5 5.8 Q-0.45 4.75 0.5 3.35" fill="#808080" fill-rule="evenodd" stroke="none"/>
      <path d="M0.5 3.35 L2.15 0.0 8.35 0.0 10.2 3.5 Q10.85 4.65 10.2 5.8 L0.5 5.8 Q-0.45 4.75 0.5 3.35 Z" fill="none" stroke="#000000" stroke-linecap="round" stroke-linejoin="round" stroke-opacity="0.3019608" stroke-width="0.30000000000000004"/>
      <path d="M2.25 0.65 Q2.25 0.15 5.25 0.15 L8.0 0.45 8.3 0.65 Q8.35 1.05 5.25 1.15 L3.4 1.0 2.25 0.65" fill="#a1a1a1" fill-rule="evenodd" stroke="none"/>
      <path d="M8.3 0.65 L8.0 0.45 5.25 0.15 Q2.25 0.15 2.25 0.65" fill="none" stroke="#000000" stroke-linecap="round" stroke-linejoin="round" stroke-opacity="0.3019608" stroke-width="0.30000000000000004"/>
      <path d="M6.55 2.9 L6.4 3.25 5.95 3.4 5.55 3.25 5.4 2.9 Q5.4 2.65 5.55 2.45 5.7 2.3 5.95 2.3 L6.4 2.45 6.55 2.9 M5.15 5.5 L4.95 5.55 4.65 5.5 4.55 5.2 4.65 4.9 4.95 4.8 5.15 4.9 5.3 5.2 5.15 5.5 M7.75 3.95 L8.3 3.75 8.75 3.95 9.0 4.4 8.75 4.9 8.3 5.1 7.75 4.9 Q7.6 4.7 7.6 4.4 7.6 4.2 7.75 3.95 M2.2 3.95 L2.4 3.25 3.1 3.05 3.7 3.25 4.0 3.95 3.7 4.65 Q3.5 4.95 3.1 4.95 2.7 4.95 2.4 4.65 L2.2 3.95" fill="#a1a1a1" fill-rule="evenodd" stroke="none"/>
    </g>
    <g id="decoration94-shape8" transform="matrix(1.0, 0.0, 0.0, 1.0, -19.6, 97.95)">
      <path d="M27.2 -97.55 L28.4 -97.5 Q28.95 -97.05 28.25 -96.55 L27.1 -96.0 26.3 -95.9 27.1 -96.0 27.1 -92.8 30.25 -85.5 Q31.25 -84.05 30.3 -82.7 L21.5 -82.7 21.1 -83.45 25.5 -83.45 Q29.0 -84.2 28.6 -86.85 L26.3 -92.15 26.3 -95.9 Q27.4 -96.65 27.2 -97.55" fill="#7eaaa8" fill-opacity="0.65882355" fill-rule="evenodd" stroke="none"/>
      <path d="M27.2 -97.55 Q27.4 -96.65 26.3 -95.9 L26.3 -92.15 28.6 -86.85 Q29.0 -84.2 25.5 -83.45 L21.1 -83.45 Q20.9 -84.15 21.3 -84.9 L24.55 -91.65 24.55 -95.9 Q23.25 -96.7 23.55 -97.55 L27.2 -97.55 M24.55 -95.9 L26.3 -95.9 24.55 -95.9" fill="#c7e3e2" fill-opacity="0.3019608" fill-rule="evenodd" stroke="none"/>
      <path d="M21.5 -82.7 L20.25 -82.7 Q19.75 -84.1 20.25 -85.5 L23.8 -92.8 23.85 -96.0 22.7 -96.55 Q22.0 -97.05 22.6 -97.5 L23.55 -97.55 Q23.25 -96.7 24.55 -95.9 L24.55 -91.65 21.3 -84.9 Q20.9 -84.15 21.1 -83.45 L21.5 -82.7 M24.55 -95.9 L23.85 -96.0 24.55 -95.9" fill="#defffe" fill-opacity="0.7019608" fill-rule="evenodd" stroke="none"/>
      <path d="M27.1 -96.0 L28.25 -96.55 Q28.95 -97.05 28.4 -97.5 L27.2 -97.55 M27.1 -96.0 L27.1 -92.8 30.25 -85.5 Q31.25 -84.05 30.3 -82.7 L21.5 -82.7 20.25 -82.7 Q19.75 -84.1 20.25 -85.5 L23.8 -92.8 23.85 -96.0 M22.7 -96.55 Q22.0 -97.05 22.6 -97.5 L23.55 -97.55 27.2 -97.55" fill="none" stroke="#3b5424" stroke-linecap="round" stroke-linejoin="round" stroke-opacity="0.3019608" stroke-width="0.8"/>
      <path d="M26.3 -95.9 L27.1 -96.0 M23.85 -96.0 L22.7 -96.55 M23.85 -96.0 L24.55 -95.9 M26.3 -95.9 L24.55 -95.9" fill="none" stroke="#3b5424" stroke-linecap="round" stroke-linejoin="round" stroke-opacity="0.2" stroke-width="0.5"/>
    </g>
    <g id="decoration94-sprite4" transform="matrix(1.0, 0.0, 0.0, 1.0, 0.0, 0.0)">
      <use height="90.35" transform="matrix(1.0, 0.0, 0.0, 1.0, 0.0, 0.0)" width="86.85" xlink:href="#decoration94-shape9"/>
    </g>
    <g id="decoration94-shape9" transform="matrix(1.0, 0.0, 0.0, 1.0, 0.0, 0.0)">
      <path d="M86.85 0.0 L81.9 38.35 24.4 38.35 24.4 81.9 26.2 81.9 26.2 90.35 14.9 90.35 14.9 44.7 14.8 44.7 12.1 44.65 Q11.25 44.6 11.3 43.8 11.35 42.9 12.55 42.8 L14.85 42.9 Q15.65 41.65 15.6 40.2 L13.95 40.15 Q13.4 40.1 13.4 39.3 13.45 38.4 14.25 38.3 L15.05 38.35 Q15.75 37.05 15.5 35.55 L14.6 35.55 11.65 35.45 Q10.75 35.35 10.75 34.1 10.85 32.65 12.1 32.5 L14.25 32.6 Q13.55 30.45 11.2 29.0 L6.45 29.0 Q8.25 28.3 8.75 27.05 L11.95 27.05 11.95 12.7 11.45 12.7 Q11.35 10.15 8.1 9.35 L8.15 9.35 Q7.6 6.0 3.1 4.1 L0.9 4.1 Q0.2 3.4 0.05 2.65 -0.2 1.4 0.9 0.0 L86.85 0.0" fill="url(#decoration94-gradient29)" fill-rule="evenodd" stroke="none"/>
    </g>
    <radialGradient cx="0" cy="0" gradientTransform="matrix(0.0876, 0.0, 0.0, 0.074, 13.65, 3.25)" gradientUnits="userSpaceOnUse" id="decoration94-gradient29" r="819.2" spreadMethod="pad">
      <stop offset="0.0" stop-color="#ffffff"/>
      <stop offset="1.0" stop-color="#ffffff" stop-opacity="0.0"/>
    </radialGradient>
  </defs>
</svg>
