<?xml version="1.0" encoding="UTF-8" standalone="no"?>
<svg xmlns:xlink="http://www.w3.org/1999/xlink" height="92.1px" width="136.05px" xmlns="http://www.w3.org/2000/svg">
  <g transform="matrix(1.0, 0.0, 0.0, 1.0, 69.0, 92.05)">
    <use height="7.05" transform="matrix(1.0, 0.0, 0.0, 1.0, -56.75, -7.45)" width="111.7" xlink:href="#decoration95-shape0"/>
    <use height="148.25" id="decoration95-Couleur0_593423" filter="url(#decoration95-filter0)" transform="matrix(0.7521, 0.0, 0.0, 0.6212, -69.0128, -92.0432)" width="94.85" xlink:href="#decoration95-sprite0"/>
    <use height="48.3" transform="matrix(0.4703, 0.0, 0.0, 0.2986, -50.3716, -72.0726)" width="15.45" xlink:href="#decoration95-sprite1"/>
    <use height="27.7" transform="matrix(1.0, 0.0, 0.0, 1.0, -50.5, -58.7)" width="52.85" xlink:href="#decoration95-shape3"/>
    <use height="148.25" id="decoration95-Couleur0_593423" filter="url(#decoration95-filter0)" transform="matrix(-0.7521, 0.0, 0.0, 0.6212, 67.0628, -92.0432)" width="94.85" xlink:href="#decoration95-sprite0"/>
    <use height="48.3" transform="matrix(-0.4703, 0.0, 0.0, 0.2986, 48.4216, -72.0726)" width="15.45" xlink:href="#decoration95-sprite1"/>
    <use height="55.85" transform="matrix(1.0, 0.0, 0.0, 1.0, -16.0, -58.7)" width="64.55" xlink:href="#decoration95-shape4"/>
    <use height="91.9" transform="matrix(1.0, 0.0, 0.0, 1.0, -68.9, -91.95)" width="71.1" xlink:href="#decoration95-sprite3"/>
  </g>
  <defs>
    <g id="decoration95-shape0" transform="matrix(1.0, 0.0, 0.0, 1.0, 56.75, 7.45)">
      <path d="M54.8 -0.55 L-56.6 -0.55 -56.6 -7.3 54.8 -7.3 54.8 -0.55" fill="#000000" fill-opacity="0.43137255" fill-rule="evenodd" stroke="none"/>
      <path d="M54.8 -0.55 L-56.6 -0.55 -56.6 -7.3 54.8 -7.3 54.8 -0.55 Z" fill="none" stroke="#000000" stroke-linecap="round" stroke-linejoin="round" stroke-opacity="0.3019608" stroke-width="0.30000000000000004"/>
    </g>
    <g id="decoration95-sprite0" transform="matrix(1.0, 0.0, 0.0, 1.0, 0.15, 0.15)">
      <use height="148.25" transform="matrix(1.0, 0.0, 0.0, 1.0, -0.15, -0.15)" width="94.85" xlink:href="#decoration95-shape1"/>
    </g>
    <g id="decoration95-shape1" transform="matrix(1.0, 0.0, 0.0, 1.0, 0.15, 0.15)">
      <path d="M94.55 34.35 L94.55 47.65 56.55 47.65 56.55 69.95 43.0 69.95 43.0 47.9 23.1 47.9 23.1 69.95 16.4 69.95 Q15.45 71.55 15.75 73.15 15.95 74.6 17.25 76.05 L17.25 88.8 13.25 88.8 Q13.65 82.6 12.6 81.35 L9.6 81.25 9.55 34.35 94.55 34.35" fill="url(#decoration95-gradient0)" fill-rule="evenodd" stroke="none"/>
      <path d="M94.55 55.35 L94.55 69.95 67.8 69.95 67.8 55.35 94.55 55.35 M39.85 69.95 L27.35 69.95 27.35 52.15 39.85 52.15 39.85 69.95" fill="url(#decoration95-gradient1)" fill-rule="evenodd" stroke="none"/>
      <path d="M94.55 23.6 L94.55 25.85 72.85 25.85 69.75 23.6 94.55 23.6 M94.55 49.15 L94.55 55.35 67.8 55.35 58.85 49.15 94.55 49.15 M39.85 52.15 L27.35 52.15 23.1 47.9 43.0 47.9 39.85 52.15" fill="#959595" fill-rule="evenodd" stroke="none"/>
      <path d="M94.55 47.65 L94.55 49.15 58.85 49.15 58.85 69.95 56.55 69.95 56.55 47.65 94.55 47.65 M94.55 90.7 L94.55 93.45 24.7 93.45 24.7 90.7 94.55 90.7 M19.2 141.7 Q23.0 144.75 19.0 147.95 L8.0 147.95 Q6.4 146.8 6.55 145.1 10.65 147.05 15.6 145.2 17.05 142.1 11.4 141.65 L19.15 141.65 19.2 141.7 M9.45 137.2 Q7.8 136.7 6.4 135.7 3.65 133.7 3.65 130.9 3.65 130.35 4.0 129.6 5.05 135.1 12.55 134.0 18.4 133.2 17.0 127.55 9.95 127.25 6.95 125.7 5.55 125.45 6.0 124.35 L6.5 123.65 Q7.6 124.8 11.55 125.0 15.85 125.3 17.8 124.25 18.25 123.6 16.75 122.95 L13.3 123.15 8.2 122.9 Q9.35 122.65 9.35 118.95 10.35 121.45 13.2 120.9 15.65 119.25 15.45 114.05 L8.55 114.05 Q8.15 113.25 7.55 113.0 L15.7 113.0 18.05 113.0 Q16.0 117.85 17.65 122.75 20.0 122.8 20.15 124.25 20.3 125.6 19.45 125.8 L21.15 127.1 Q22.8 128.8 22.65 130.9 22.55 132.85 21.1 134.55 L19.65 135.85 Q15.7 137.7 13.15 137.7 L9.45 137.2 M15.1 106.85 L15.75 104.4 18.05 104.4 Q20.45 106.75 18.05 113.0 L15.7 113.0 Q14.9 112.3 15.25 110.6 L15.2 110.5 Q14.75 108.9 15.1 106.85 M17.0 106.25 Q17.9 106.2 18.05 107.75 18.15 109.4 17.1 111.05 15.95 112.9 15.25 110.6 15.95 112.9 17.1 111.05 18.15 109.4 18.05 107.75 17.9 106.2 17.0 106.25 M16.75 122.95 L17.65 122.75 16.75 122.95 M19.45 125.8 L17.35 126.05 13.45 126.25 7.0 125.7 6.95 125.7 7.0 125.7 13.45 126.25 17.35 126.05 19.45 125.8" fill="#48443e" fill-rule="evenodd" stroke="none"/>
      <path d="M94.55 9.8 L94.55 11.65 88.4 11.65 88.4 17.5 85.25 17.5 85.25 11.65 81.75 11.65 81.75 17.5 78.0 17.5 78.0 11.65 74.35 11.65 74.35 17.5 70.95 17.5 70.95 11.65 74.35 11.65 70.95 11.65 68.15 11.65 68.15 17.5 61.5 17.5 61.5 9.8 59.85 9.8 Q59.15 9.2 59.85 7.85 L64.6 7.85 Q60.9 7.2 60.9 3.95 60.9 -0.15 64.8 0.0 67.0 0.05 67.9 1.1 68.65 1.95 68.7 3.95 68.75 5.6 67.2 6.8 66.7 7.2 65.6 7.55 L64.6 7.85 69.4 7.85 69.9 8.55 Q70.1 9.2 69.4 9.8 L94.55 9.8 M94.55 102.55 L94.55 104.4 34.7 104.4 18.05 104.4 15.75 104.4 15.1 106.85 6.45 106.8 Q7.25 105.0 6.4 104.4 L3.8 104.2 6.4 104.4 Q7.25 105.0 6.45 106.8 L5.1 107.05 Q1.75 107.45 0.9 105.35 0.95 102.65 2.6 101.9 L5.5 101.35 Q5.9 102.5 8.75 102.55 L94.55 102.55 M12.2 30.4 L12.2 22.9 10.55 22.9 Q9.85 21.95 10.55 20.95 L15.35 20.95 14.9 20.9 Q13.9 20.7 12.9 19.9 11.5 18.7 11.6 17.05 11.65 15.8 12.4 14.75 13.45 13.25 15.5 13.1 17.55 12.95 18.65 14.6 19.55 15.9 19.4 17.05 19.15 18.85 17.75 20.0 16.65 20.9 15.6 20.95 L20.1 20.95 20.6 21.65 Q20.8 22.3 20.1 22.9 L62.85 22.9 62.85 25.35 60.45 25.35 60.45 30.4 58.05 30.4 58.05 25.35 53.35 25.35 53.35 30.4 49.9 30.4 49.9 25.35 43.65 25.35 43.65 30.4 40.4 30.4 40.4 25.35 34.15 25.35 31.6 25.35 34.15 25.35 34.15 30.4 31.6 30.4 31.6 25.35 26.5 25.35 23.25 25.35 26.5 25.35 26.5 30.4 23.25 30.4 23.25 25.35 18.85 25.35 18.85 22.9 20.1 22.9 18.85 22.9 18.85 25.35 18.85 30.4 12.2 30.4 M85.25 11.65 L88.4 11.65 85.25 11.65 M68.15 9.8 L68.15 11.65 68.15 9.8 61.5 9.8 68.15 9.8 69.4 9.8 68.15 9.8 M69.65 30.4 L69.65 23.6 69.75 23.6 72.85 25.85 72.85 30.4 69.65 30.4 M60.45 25.35 L58.05 25.35 60.45 25.35 M49.9 25.35 L53.35 25.35 49.9 25.35 M15.6 20.95 L15.35 20.95 15.6 20.95 M12.2 22.9 L18.85 22.9 12.2 22.9 M43.65 25.35 L40.4 25.35 43.65 25.35 M39.85 69.95 L39.85 52.15 43.0 47.9 43.0 69.95 39.85 69.95 M27.35 52.15 L27.35 69.95 23.1 69.95 23.1 47.9 27.35 52.15 M67.8 55.35 L67.8 69.95 58.85 69.95 58.85 49.15 67.8 55.35 M6.4 104.4 L15.75 104.4 6.4 104.4 M78.0 11.65 L81.75 11.65 78.0 11.65" fill="#56514c" fill-rule="evenodd" stroke="none"/>
      <path d="M88.4 17.5 L94.55 17.5 94.55 21.15 62.85 21.15 Q60.75 17.65 58.0 17.5 L61.5 17.5 68.15 17.5 70.95 17.5 74.35 17.5 78.0 17.5 81.75 17.5 85.25 17.5 88.4 17.5 M94.55 25.85 L94.55 30.4 72.85 30.4 72.85 25.85 94.55 25.85 M94.55 69.95 L94.55 73.15 15.75 73.15 Q15.45 71.55 16.4 69.95 L23.1 69.95 27.35 69.95 39.85 69.95 43.0 69.95 56.55 69.95 58.85 69.95 67.8 69.95 94.55 69.95 M94.55 80.55 L94.55 84.0 59.55 84.0 62.5 80.55 94.55 80.55 M94.55 101.2 L94.55 102.55 8.75 102.55 Q5.9 102.5 5.5 101.35 L6.8 101.2 13.25 101.2 94.55 101.2 M6.55 145.1 Q7.75 142.25 9.05 141.65 L11.4 141.65 Q17.05 142.1 15.6 145.2 10.65 147.05 6.55 145.1 M6.5 123.65 Q7.1 123.1 8.2 122.9 L13.3 123.15 16.75 122.95 Q18.25 123.6 17.8 124.25 15.85 125.3 11.55 125.0 7.6 124.8 6.5 123.65" fill="#808080" fill-rule="evenodd" stroke="none"/>
      <path d="M94.55 73.15 L94.55 76.05 17.25 76.05 Q15.95 74.6 15.75 73.15 L94.55 73.15 M94.55 84.0 L94.55 86.85 60.55 86.85 57.55 86.85 57.55 84.0 59.55 84.0 94.55 84.0" fill="#56514e" fill-rule="evenodd" stroke="none"/>
      <path d="M94.55 76.05 L94.55 80.55 62.5 80.55 59.55 84.0 57.55 84.0 57.55 86.85 60.55 86.85 60.55 89.2 94.55 89.2 94.55 90.7 24.7 90.7 24.7 88.8 17.25 88.8 17.25 76.05 94.55 76.05" fill="url(#decoration95-gradient2)" fill-rule="evenodd" stroke="none"/>
      <path d="M94.55 86.85 L94.55 89.2 60.55 89.2 60.55 86.85 94.55 86.85 M9.05 141.65 Q10.35 140.3 9.45 137.2 L13.15 137.7 Q15.7 137.7 19.65 135.85 L19.05 137.75 18.95 138.6 Q18.75 140.15 19.15 141.65 L11.4 141.65 9.05 141.65" fill="#3c3835" fill-rule="evenodd" stroke="none"/>
      <path d="M94.55 30.4 L94.55 34.35 9.55 34.35 Q6.05 30.55 0.0 30.4 L12.2 30.4 18.85 30.4 23.25 30.4 26.5 30.4 31.6 30.4 34.15 30.4 40.4 30.4 43.65 30.4 49.9 30.4 53.35 30.4 58.05 30.4 60.45 30.4 62.85 30.4 69.65 30.4 72.85 30.4 94.55 30.4" fill="url(#decoration95-gradient3)" fill-rule="evenodd" stroke="none"/>
      <path d="M94.55 21.15 L94.55 23.6 69.75 23.6 69.65 23.6 69.65 30.4 62.85 30.4 62.85 25.35 62.85 22.9 62.85 21.15 94.55 21.15" fill="url(#decoration95-gradient4)" fill-rule="evenodd" stroke="none"/>
      <path d="M24.7 93.45 L24.7 97.85 94.55 97.85 94.55 101.2 13.25 101.2 13.25 88.8 17.25 88.8 24.7 88.8 24.7 90.7 24.7 93.45" fill="url(#decoration95-gradient5)" fill-rule="evenodd" stroke="none"/>
      <path d="M6.8 101.2 L6.8 85.8 Q6.75 84.3 7.45 83.0 8.15 81.6 9.6 81.25 L12.6 81.35 Q13.65 82.6 13.25 88.8 L13.25 101.2 6.8 101.2" fill="url(#decoration95-gradient6)" fill-rule="evenodd" stroke="none"/>
      <path d="M7.55 113.0 L6.2 113.0 Q4.35 110.75 5.1 107.05 L6.45 106.8 15.1 106.85 Q14.75 108.9 15.2 110.5 L15.25 110.6 Q14.9 112.3 15.7 113.0 L7.55 113.0" fill="url(#decoration95-gradient7)" fill-rule="evenodd" stroke="none"/>
      <path d="M9.35 118.95 L9.3 118.2 Q9.2 115.35 8.55 114.05 L15.45 114.05 Q15.65 119.25 13.2 120.9 10.35 121.45 9.35 118.95" fill="url(#decoration95-gradient8)" fill-rule="evenodd" stroke="none"/>
      <path d="M4.0 129.6 Q3.95 129.25 5.45 127.45 L6.95 125.7 Q9.95 127.25 17.0 127.55 18.4 133.2 12.55 134.0 5.05 135.1 4.0 129.6" fill="url(#decoration95-gradient9)" fill-rule="evenodd" stroke="none"/>
      <path d="M19.65 135.85 L21.1 134.55 Q22.55 132.85 22.65 130.9 22.8 128.8 21.15 127.1 L19.45 125.8 Q20.3 125.6 20.15 124.25 20.0 122.8 17.65 122.75 16.0 117.85 18.05 113.0 20.45 106.75 18.05 104.4 L34.7 104.4 34.7 128.1 19.05 137.75 19.65 135.85" fill="url(#decoration95-gradient10)" fill-rule="evenodd" stroke="none"/>
      <path d="M94.55 104.4 L94.55 128.1 34.7 128.1 34.7 104.4 94.55 104.4" fill="url(#decoration95-gradient11)" fill-rule="evenodd" stroke="none"/>
      <path d="M94.55 128.1 L94.55 141.7 19.2 141.7 19.15 141.65 Q18.75 140.15 18.95 138.6 L19.05 137.75 34.7 128.1 94.55 128.1" fill="url(#decoration95-gradient12)" fill-rule="evenodd" stroke="none"/>
      <path d="M94.55 11.65 L88.4 11.65 88.4 17.5 94.55 17.5 M94.55 141.7 L19.2 141.7 Q23.0 144.75 19.0 147.95 L8.0 147.95 Q6.4 146.8 6.55 145.1 7.75 142.25 9.05 141.65 10.35 140.3 9.45 137.2 7.8 136.7 6.4 135.7 3.65 133.7 3.65 130.9 3.65 130.35 4.0 129.6 3.95 129.25 5.45 127.45 L6.95 125.7 Q5.55 125.45 6.0 124.35 L6.5 123.65 Q7.1 123.1 8.2 122.9 9.35 122.65 9.35 118.95 L9.3 118.2 Q9.2 115.35 8.55 114.05 8.15 113.25 7.55 113.0 L6.2 113.0 Q4.35 110.75 5.1 107.05 1.75 107.45 0.9 105.35 0.95 102.65 2.6 101.9 L5.5 101.35 6.8 101.2 6.8 85.8 Q6.75 84.3 7.45 83.0 8.15 81.6 9.6 81.25 L9.55 34.35 Q6.05 30.55 0.0 30.4 L12.2 30.4 12.2 22.9 10.55 22.9 Q9.85 21.95 10.55 20.95 L15.35 20.95 14.9 20.9 Q13.9 20.7 12.9 19.9 11.5 18.7 11.6 17.05 11.65 15.8 12.4 14.75 13.45 13.25 15.5 13.1 17.55 12.95 18.65 14.6 19.55 15.9 19.4 17.05 19.15 18.85 17.75 20.0 16.65 20.9 15.6 20.95 L20.1 20.95 20.6 21.65 Q20.8 22.3 20.1 22.9 L62.85 22.9 62.85 21.15 Q60.75 17.65 58.0 17.5 L61.5 17.5 61.5 9.8 59.85 9.8 Q59.15 9.2 59.85 7.85 L64.6 7.85 Q60.9 7.2 60.9 3.95 60.9 -0.15 64.8 0.0 67.0 0.05 67.9 1.1 68.65 1.95 68.7 3.95 68.75 5.6 67.2 6.8 66.7 7.2 65.6 7.55 L64.6 7.85 69.4 7.85 69.9 8.55 Q70.1 9.2 69.4 9.8 L94.55 9.8 M88.4 11.65 L85.25 11.65 85.25 17.5 88.4 17.5 M85.25 11.65 L81.75 11.65 81.75 17.5 85.25 17.5 M78.0 17.5 L78.0 11.65 74.35 11.65 74.35 17.5 78.0 17.5 81.75 17.5 M74.35 11.65 L70.95 11.65 70.95 17.5 74.35 17.5 M61.5 9.8 L68.15 9.8 69.4 9.8 M68.15 11.65 L68.15 9.8 M61.5 17.5 L68.15 17.5 68.15 11.65 70.95 11.65 M69.75 23.6 L69.65 23.6 69.65 30.4 72.85 30.4 72.85 25.85 69.75 23.6 94.55 23.6 M68.15 17.5 L70.95 17.5 M60.45 30.4 L58.05 30.4 53.35 30.4 49.9 30.4 43.65 30.4 40.4 30.4 34.15 30.4 31.6 30.4 26.5 30.4 23.25 30.4 18.85 30.4 12.2 30.4 M58.05 30.4 L58.05 25.35 53.35 25.35 53.35 30.4 M58.05 25.35 L60.45 25.35 62.85 25.35 62.85 22.9 M60.45 25.35 L60.45 30.4 62.85 30.4 62.85 25.35 M49.9 30.4 L49.9 25.35 43.65 25.35 43.65 30.4 M53.35 25.35 L49.9 25.35 M69.65 30.4 L62.85 30.4 M15.35 20.95 L15.6 20.95 M20.1 22.9 L18.85 22.9 18.85 25.35 23.25 25.35 26.5 25.35 31.6 25.35 34.15 25.35 40.4 25.35 43.65 25.35 M18.85 22.9 L12.2 22.9 M18.85 25.35 L18.85 30.4 M34.15 25.35 L34.15 30.4 M31.6 25.35 L31.6 30.4 M40.4 25.35 L40.4 30.4 M26.5 30.4 L26.5 25.35 M23.25 30.4 L23.25 25.35 M27.35 69.95 L39.85 69.95 39.85 52.15 27.35 52.15 27.35 69.95 23.1 69.95 16.4 69.95 Q15.45 71.55 15.75 73.15 M17.25 88.8 L17.25 76.05 Q15.95 74.6 15.75 73.15 M13.25 88.8 Q13.65 82.6 12.6 81.35 L9.6 81.25 M17.25 88.8 L13.25 88.8 13.25 101.2 94.55 101.2 M24.7 90.7 L24.7 93.45 M24.7 90.7 L24.7 88.8 17.25 88.8 M67.8 55.35 L67.8 69.95 94.55 69.95 M56.55 69.95 L58.85 69.95 58.85 49.15 94.55 49.15 M56.55 69.95 L43.0 69.95 39.85 69.95 M59.55 84.0 L57.55 84.0 57.55 86.85 60.55 86.85 94.55 86.85 M67.8 69.95 L58.85 69.95 M94.55 80.55 L62.5 80.55 59.55 84.0 94.55 84.0 M43.0 47.9 L23.1 47.9 27.35 52.15 M23.1 47.9 L23.1 69.95 M58.85 49.15 L67.8 55.35 94.55 55.35 M43.0 47.9 L39.85 52.15 M43.0 69.95 L43.0 47.9 M94.55 47.65 L56.55 47.65 56.55 69.95 M18.05 104.4 L15.75 104.4 15.1 106.85 Q14.75 108.9 15.2 110.5 L15.25 110.6 Q15.95 112.9 17.1 111.05 18.15 109.4 18.05 107.75 17.9 106.2 17.0 106.25 M6.45 106.8 Q7.25 105.0 6.4 104.4 L3.8 104.2 M6.45 106.8 L5.1 107.05 M18.05 104.4 Q20.45 106.75 18.05 113.0 16.0 117.85 17.65 122.75 20.0 122.8 20.15 124.25 20.3 125.6 19.45 125.8 L21.15 127.1 Q22.8 128.8 22.65 130.9 22.55 132.85 21.1 134.55 L19.65 135.85 19.05 137.75 34.7 128.1 34.7 104.4 18.05 104.4 M17.65 122.75 L16.75 122.95 13.3 123.15 8.2 122.9 M15.7 113.0 L18.05 113.0 M15.7 113.0 L7.55 113.0 M6.8 101.2 L13.25 101.2 M15.75 104.4 L6.4 104.4 M6.95 125.7 L7.0 125.7 13.45 126.25 17.35 126.05 19.45 125.8 M19.15 141.65 Q18.75 140.15 18.95 138.6 L19.05 137.75 M19.15 141.65 L11.4 141.65 9.05 141.65 M19.2 141.7 L19.15 141.65 M9.45 137.2 L13.15 137.7 Q15.7 137.7 19.65 135.85 M81.75 11.65 L78.0 11.65 M94.55 21.15 L62.85 21.15 M94.55 90.7 L24.7 90.7 M34.7 104.4 L94.55 104.4 M34.7 128.1 L94.55 128.1 M17.25 76.05 L94.55 76.05 M72.85 25.85 L94.55 25.85 M72.85 30.4 L94.55 30.4 M9.55 34.35 L94.55 34.35" fill="none" stroke="#000000" stroke-linecap="round" stroke-linejoin="round" stroke-opacity="0.3019608" stroke-width="0.30000000000000004"/>
    </g>
    <linearGradient gradientTransform="matrix(0.0, 0.0361, -0.0332, 0.0, 52.85, 64.8)" gradientUnits="userSpaceOnUse" id="decoration95-gradient0" spreadMethod="pad" x1="-819.2" x2="819.2">
      <stop offset="0.0" stop-color="#808080"/>
      <stop offset="0.9921568627450981" stop-color="#514e4d"/>
    </linearGradient>
    <linearGradient gradientTransform="matrix(0.0, 0.0183, -0.0109, 0.0, 34.35, 71.0)" gradientUnits="userSpaceOnUse" id="decoration95-gradient1" spreadMethod="pad" x1="-819.2" x2="819.2">
      <stop offset="0.058823529411764705" stop-color="#8c8c8c"/>
      <stop offset="0.9921568627450981" stop-color="#332e2c"/>
    </linearGradient>
    <linearGradient gradientTransform="matrix(0.0, -0.0135, 0.0089, 0.0, 55.85, 81.15)" gradientUnits="userSpaceOnUse" id="decoration95-gradient2" spreadMethod="pad" x1="-819.2" x2="819.2">
      <stop offset="0.00784313725490196" stop-color="#696868"/>
      <stop offset="1.0" stop-color="#35312f"/>
    </linearGradient>
    <linearGradient gradientTransform="matrix(0.0, -0.0035, 0.0024, 0.0, 47.15, 32.6)" gradientUnits="userSpaceOnUse" id="decoration95-gradient3" spreadMethod="pad" x1="-819.2" x2="819.2">
      <stop offset="0.0" stop-color="#797979"/>
      <stop offset="0.9882352941176471" stop-color="#3f3936"/>
    </linearGradient>
    <linearGradient gradientTransform="matrix(0.0, 0.0104, -0.0056, 0.0, 78.75, 25.8)" gradientUnits="userSpaceOnUse" id="decoration95-gradient4" spreadMethod="pad" x1="-819.2" x2="819.2">
      <stop offset="0.0" stop-color="#7e7e7e"/>
      <stop offset="0.9921568627450981" stop-color="#4d4947"/>
    </linearGradient>
    <linearGradient gradientTransform="matrix(0.0, 0.0062, -0.0123, 0.0, 9.25, 93.45)" gradientUnits="userSpaceOnUse" id="decoration95-gradient5" spreadMethod="pad" x1="-819.2" x2="819.2">
      <stop offset="0.0" stop-color="#808080"/>
      <stop offset="0.9921568627450981" stop-color="#464241"/>
    </linearGradient>
    <linearGradient gradientTransform="matrix(0.0, 0.0062, -0.0123, 0.0, 9.25, 93.45)" gradientUnits="userSpaceOnUse" id="decoration95-gradient6" spreadMethod="pad" x1="-819.2" x2="819.2">
      <stop offset="0.0" stop-color="#878787"/>
      <stop offset="0.9764705882352941" stop-color="#3c3937"/>
    </linearGradient>
    <linearGradient gradientTransform="matrix(0.0, 0.0029, -0.0038, 0.0, 10.3, 110.65)" gradientUnits="userSpaceOnUse" id="decoration95-gradient7" spreadMethod="pad" x1="-819.2" x2="819.2">
      <stop offset="0.0" stop-color="#a8a8a8"/>
      <stop offset="0.9921568627450981" stop-color="#3f3936"/>
    </linearGradient>
    <linearGradient gradientTransform="matrix(0.0025, 0.0095, -0.0041, 0.0011, 12.0, 116.0)" gradientUnits="userSpaceOnUse" id="decoration95-gradient8" spreadMethod="pad" x1="-819.2" x2="819.2">
      <stop offset="0.03529411764705882" stop-color="#a8a8a8"/>
      <stop offset="0.9921568627450981" stop-color="#3f3936"/>
    </linearGradient>
    <linearGradient gradientTransform="matrix(0.0036, 0.0134, -0.005, 0.0013, 10.95, 127.95)" gradientUnits="userSpaceOnUse" id="decoration95-gradient9" spreadMethod="pad" x1="-819.2" x2="819.2">
      <stop offset="0.03529411764705882" stop-color="#a8a8a8"/>
      <stop offset="0.9921568627450981" stop-color="#3f3936"/>
    </linearGradient>
    <linearGradient gradientTransform="matrix(0.0, -0.0152, 0.0209, 0.0, 55.75, 119.7)" gradientUnits="userSpaceOnUse" id="decoration95-gradient10" spreadMethod="pad" x1="-819.2" x2="819.2">
      <stop offset="0.0" stop-color="#626262"/>
      <stop offset="1.0" stop-color="#151211"/>
    </linearGradient>
    <linearGradient gradientTransform="matrix(0.0, -0.014, 0.0145, 0.0, 64.6, 116.25)" gradientUnits="userSpaceOnUse" id="decoration95-gradient11" spreadMethod="pad" x1="-819.2" x2="819.2">
      <stop offset="0.0" stop-color="#4d4d4d"/>
      <stop offset="1.0" stop-color="#1e1816"/>
    </linearGradient>
    <linearGradient gradientTransform="matrix(0.0, -0.0152, 0.0209, 0.0, 55.75, 119.7)" gradientUnits="userSpaceOnUse" id="decoration95-gradient12" spreadMethod="pad" x1="-819.2" x2="819.2">
      <stop offset="0.0" stop-color="#413e3c"/>
      <stop offset="1.0" stop-color="#191615"/>
    </linearGradient>
    <g id="decoration95-sprite1" transform="matrix(1.0, 0.0, 0.0, 1.0, 7.7, 53.5)">
      <use height="48.3" transform="matrix(1.0, 0.0, 0.0, 1.0, -7.7, -53.5)" width="15.45" xlink:href="#decoration95-shape2"/>
      <use height="0.0" transform="matrix(0.0481, 0.0191, -0.0141, 0.0782, -1.65, -47.2)" width="0.0" xlink:href="#decoration95-sprite2"/>
    </g>
    <g id="decoration95-shape2" transform="matrix(1.0, 0.0, 0.0, 1.0, 7.7, 53.5)">
      <path d="M0.05 -36.7 L0.05 -38.1" fill="none" stroke="#000000" stroke-linecap="round" stroke-linejoin="round" stroke-opacity="0.29803923" stroke-width="1.0"/>
      <path d="M-2.0 -33.45 Q-2.25 -33.95 -1.45 -35.1 L-1.45 -36.55 Q0.15 -36.85 1.75 -36.55 L1.75 -34.85 Q2.4 -32.7 2.25 -31.9 1.75 -31.65 1.4 -32.8 1.45 -31.95 1.75 -31.4 L1.75 -27.95 Q1.3 -5.5 -1.45 -6.05 L-1.45 -33.1 Q-1.05 -33.35 -1.1 -34.2 -1.4 -33.65 -2.0 -33.45" fill="url(#decoration95-gradient13)" fill-rule="evenodd" stroke="none"/>
      <path d="M2.25 -31.9 Q2.15 -31.35 1.75 -31.4 1.45 -31.95 1.4 -32.8 1.75 -31.65 2.25 -31.9 M-1.45 -33.1 Q-1.9 -33.2 -2.0 -33.45 -1.4 -33.65 -1.1 -34.2 -1.05 -33.35 -1.45 -33.1" fill="#b6a68f" fill-rule="evenodd" stroke="none"/>
      <path d="M1.75 -27.95 L1.75 -6.05 Q0.2 -5.35 -1.45 -6.05 1.3 -5.5 1.75 -27.95" fill="#9a876a" fill-rule="evenodd" stroke="none"/>
      <path d="M-2.0 -33.45 Q-2.25 -33.95 -1.45 -35.1 L-1.45 -36.55 Q0.15 -36.85 1.75 -36.55 L1.75 -34.85 Q2.4 -32.7 2.25 -31.9 2.15 -31.35 1.75 -31.4 L1.75 -27.95 1.75 -6.05 Q0.2 -5.35 -1.45 -6.05 L-1.45 -33.1 Q-1.9 -33.2 -2.0 -33.45 Z" fill="none" stroke="#000000" stroke-linecap="round" stroke-linejoin="round" stroke-opacity="0.29803923" stroke-width="1.0"/>
      <path d="M-0.75 -29.1 Q-0.15 -29.0 0.45 -30.5 0.3 -28.75 -0.2 -28.6 -0.8 -28.4 -0.75 -29.1" fill="#b6a68f" fill-rule="evenodd" stroke="none"/>
      <path d="M-0.75 -29.1 L-0.65 -29.75 -0.25 -30.95" fill="none" stroke="#000000" stroke-linecap="round" stroke-linejoin="round" stroke-opacity="0.29803923" stroke-width="1.0"/>
      <path d="M5.5 -50.4 Q7.75 -47.3 7.75 -42.9 7.75 -38.5 5.5 -35.35 3.25 -32.3 0.05 -32.3 -3.2 -32.3 -5.45 -35.35 -7.7 -38.5 -7.7 -42.9 -7.7 -47.3 -5.45 -50.4 -3.2 -53.5 0.05 -53.5 3.25 -53.5 5.5 -50.4" fill="url(#decoration95-gradient14)" fill-rule="evenodd" stroke="none"/>
      <path d="M0.45 -39.8 Q-2.05 -41.05 -0.7 -43.25 -1.05 -41.45 -0.15 -41.15 -0.4 -42.7 -0.1 -44.7 L-0.05 -45.0 -0.05 -44.7 Q0.05 -43.25 1.2 -42.05 1.95 -41.15 1.1 -40.05 L0.45 -39.8" fill="#fff1b4" fill-rule="evenodd" stroke="none"/>
      <path d="M0.45 -39.8 L0.4 -39.8 Q-2.55 -40.3 -2.05 -42.7 L-1.4 -44.7 -0.2 -46.5 Q1.4 -48.95 0.55 -51.75 2.45 -48.2 1.0 -45.45 0.95 -45.05 1.05 -44.7 L1.25 -44.15 2.1 -42.7 Q2.9 -41.35 2.5 -40.7 2.0 -40.1 1.1 -40.05 1.95 -41.15 1.2 -42.05 0.05 -43.25 -0.05 -44.7 L-0.05 -45.0 -0.1 -44.7 Q-0.4 -42.7 -0.15 -41.15 -1.05 -41.45 -0.7 -43.25 -2.05 -41.05 0.45 -39.8" fill="url(#decoration95-gradient15)" fill-rule="evenodd" stroke="none"/>
    </g>
    <linearGradient gradientTransform="matrix(0.0, -0.0173, 0.0187, 0.0, 0.4, -25.45)" gradientUnits="userSpaceOnUse" id="decoration95-gradient13" spreadMethod="pad" x1="-819.2" x2="819.2">
      <stop offset="0.043137254901960784" stop-color="#af9b83"/>
      <stop offset="0.7176470588235294" stop-color="#eee7e0"/>
      <stop offset="1.0" stop-color="#ffc49f"/>
    </linearGradient>
    <radialGradient cx="0" cy="0" gradientTransform="matrix(0.009, 0.0, 0.0, 0.0128, 0.05, -42.9)" gradientUnits="userSpaceOnUse" id="decoration95-gradient14" r="819.2" spreadMethod="pad">
      <stop offset="0.0" stop-color="#fffdf5" stop-opacity="0.8784314"/>
      <stop offset="0.14901960784313725" stop-color="#ffd202" stop-opacity="0.7019608"/>
      <stop offset="0.39215686274509803" stop-color="#f79331" stop-opacity="0.5411765"/>
      <stop offset="0.615686274509804" stop-color="#fcc86f" stop-opacity="0.14117648"/>
      <stop offset="1.0" stop-color="#ffdd87" stop-opacity="0.0"/>
    </radialGradient>
    <linearGradient gradientTransform="matrix(0.0, 0.0048, -0.006, 0.0, -0.05, -42.95)" gradientUnits="userSpaceOnUse" id="decoration95-gradient15" spreadMethod="pad" x1="-819.2" x2="819.2">
      <stop offset="0.0" stop-color="#f35225"/>
      <stop offset="0.9882352941176471" stop-color="#ffe362"/>
    </linearGradient>
    <g id="decoration95-shape3" transform="matrix(1.0, 0.0, 0.0, 1.0, 50.5, 58.7)">
      <path d="M-43.3 -56.55 Q-44.15 -56.55 -44.2 -55.5 L-43.7 -55.7 Q-43.35 -55.75 -43.3 -55.5 -42.95 -55.0 -43.15 -54.35 -43.35 -53.8 -43.85 -53.75 -44.95 -53.7 -44.85 -55.65 -44.65 -57.05 -43.85 -57.15 -42.45 -57.4 -41.9 -55.6 -41.3 -53.8 -42.4 -51.7 -42.85 -50.95 -43.6 -50.65 L-45.25 -50.5 Q-46.15 -50.85 -46.45 -51.65 L-47.4 -52.4 Q-47.45 -53.05 -46.8 -52.7 -47.25 -54.45 -47.15 -56.2 L-47.45 -56.3 Q-47.8 -56.75 -47.75 -58.05 -46.75 -58.35 -45.7 -58.05 -45.8 -56.5 -46.1 -56.3 L-46.4 -56.2 -46.35 -54.55 -46.0 -52.3 Q-44.6 -50.45 -43.3 -51.65 -42.75 -52.2 -42.4 -53.25 -42.1 -54.25 -42.2 -55.0 -42.2 -55.6 -42.5 -56.05 -42.85 -56.5 -43.3 -56.55 M-43.3 -55.5 L-43.55 -54.6 Q-43.6 -54.25 -43.75 -54.25 L-44.1 -54.6 -44.2 -55.5 -44.1 -54.6 -43.75 -54.25 Q-43.6 -54.25 -43.55 -54.6 L-43.3 -55.5 M-46.0 -52.3 L-46.8 -52.7 -46.0 -52.3 M-47.15 -56.2 L-46.4 -56.2 -47.15 -56.2" fill="url(#decoration95-gradient16)" fill-rule="evenodd" stroke="none"/>
      <path d="M-43.3 -56.55 Q-44.15 -56.55 -44.2 -55.5 L-43.7 -55.7 Q-43.35 -55.75 -43.3 -55.5 -42.95 -55.0 -43.15 -54.35 -43.35 -53.8 -43.85 -53.75 -44.95 -53.7 -44.85 -55.65 -44.65 -57.05 -43.85 -57.15 -42.45 -57.4 -41.9 -55.6 -41.3 -53.8 -42.4 -51.7 -42.85 -50.95 -43.6 -50.65 L-45.25 -50.5 Q-46.15 -50.85 -46.45 -51.65 L-47.4 -52.4 Q-47.45 -53.05 -46.8 -52.7 -47.25 -54.45 -47.15 -56.2 L-47.45 -56.3 Q-47.8 -56.75 -47.75 -58.05 -46.75 -58.35 -45.7 -58.05 -45.8 -56.5 -46.1 -56.3 L-46.4 -56.2 -46.35 -54.55 -46.0 -52.3 Q-44.6 -50.45 -43.3 -51.65 -42.75 -52.2 -42.4 -53.25 -42.1 -54.25 -42.2 -55.0 -42.2 -55.6 -42.5 -56.05 -42.85 -56.5 -43.3 -56.55 M-46.4 -56.2 L-47.15 -56.2 M-46.8 -52.7 L-46.0 -52.3 M-44.2 -55.5 L-44.1 -54.6 -43.75 -54.25 Q-43.6 -54.25 -43.55 -54.6 L-43.3 -55.5" fill="none" stroke="#000000" stroke-linecap="round" stroke-linejoin="round" stroke-opacity="0.29803923" stroke-width="1.0"/>
      <path d="M0.55 -31.15 L0.55 -33.9 0.55 -31.15 -2.95 -31.15 -2.95 -33.9 -2.95 -31.15 -6.5 -31.15 -9.35 -31.15 -9.35 -33.9 -6.5 -33.9 -6.5 -31.15 -6.5 -33.9 -2.95 -33.9 0.55 -33.9 2.2 -33.9 2.2 -31.15 0.55 -31.15 M-43.55 -31.15 L-47.05 -31.15 -47.05 -33.9 -47.05 -31.15 -50.35 -31.15 -50.35 -33.9 -47.05 -33.9 -43.55 -33.9 -43.55 -31.15 -43.55 -33.9 -40.3 -33.9 -40.3 -31.15 -40.3 -33.9 -37.35 -33.9 -34.35 -33.9 -34.35 -31.15 -34.35 -33.9 -31.45 -33.9 -31.45 -31.15 -31.45 -33.9 -28.45 -33.9 -25.35 -33.9 -25.35 -31.15 -25.35 -33.9 -22.15 -33.9 -22.15 -31.15 -22.15 -33.9 -18.95 -33.9 -15.65 -33.9 -15.65 -31.15 -15.65 -33.9 -12.4 -33.9 -12.4 -31.15 -12.4 -33.9 -9.35 -33.9 -9.35 -31.15 -12.4 -31.15 -15.65 -31.15 -18.95 -31.15 -18.95 -33.9 -18.95 -31.15 -22.15 -31.15 -25.35 -31.15 -28.45 -31.15 -28.45 -33.9 -28.45 -31.15 -31.45 -31.15 -34.35 -31.15 -37.35 -31.15 -40.3 -31.15 -43.55 -31.15 M-37.35 -31.15 L-37.35 -33.9 -37.35 -31.15" fill="url(#decoration95-gradient17)" fill-rule="evenodd" stroke="none"/>
      <path d="M0.55 -33.9 L0.55 -31.15 2.2 -31.15 M2.2 -33.9 L0.55 -33.9 -2.95 -33.9 -2.95 -31.15 0.55 -31.15 M-47.05 -31.15 L-43.55 -31.15 -43.55 -33.9 -47.05 -33.9 -47.05 -31.15 -50.35 -31.15 -50.35 -33.9 -47.05 -33.9 M-15.65 -31.15 L-15.65 -33.9 -18.95 -33.9 -18.95 -31.15 -15.65 -31.15 -12.4 -31.15 -12.4 -33.9 -15.65 -33.9 M-9.35 -31.15 L-9.35 -33.9 -12.4 -33.9 M-6.5 -33.9 L-9.35 -33.9 M-9.35 -31.15 L-6.5 -31.15 -6.5 -33.9 -2.95 -33.9 M-6.5 -31.15 L-2.95 -31.15 M-12.4 -31.15 L-9.35 -31.15 M-34.35 -31.15 L-34.35 -33.9 -37.35 -33.9 -37.35 -31.15 -34.35 -31.15 -31.45 -31.15 -31.45 -33.9 -34.35 -33.9 M-40.3 -31.15 L-40.3 -33.9 -43.55 -33.9 M-40.3 -31.15 L-37.35 -31.15 M-37.35 -33.9 L-40.3 -33.9 M-25.35 -31.15 L-25.35 -33.9 -28.45 -33.9 -28.45 -31.15 -25.35 -31.15 -22.15 -31.15 -22.15 -33.9 -25.35 -33.9 M-28.45 -33.9 L-31.45 -33.9 M-31.45 -31.15 L-28.45 -31.15 M-22.15 -31.15 L-18.95 -31.15 M-18.95 -33.9 L-22.15 -33.9 M-43.55 -31.15 L-40.3 -31.15" fill="none" stroke="#000000" stroke-linecap="round" stroke-linejoin="round" stroke-opacity="0.3019608" stroke-width="0.30000000000000004"/>
      <path d="M-46.25 -35.3 L-46.25 -33.9 -47.95 -33.9 -47.95 -35.3 -46.25 -35.3" fill="#000000" fill-rule="evenodd" stroke="none"/>
      <path d="M-46.25 -35.3 L-46.25 -33.9 -47.95 -33.9 -47.95 -35.3 -46.25 -35.3 Z" fill="none" stroke="#000000" stroke-linecap="round" stroke-linejoin="round" stroke-opacity="0.3019608" stroke-width="0.30000000000000004"/>
      <path d="M-42.7 -33.9 L-44.35 -33.9 -44.35 -35.3 -42.7 -35.3 -42.7 -33.9" fill="#000000" fill-rule="evenodd" stroke="none"/>
      <path d="M-42.7 -33.9 L-44.35 -33.9 -44.35 -35.3 -42.7 -35.3 -42.7 -33.9 Z" fill="none" stroke="#000000" stroke-linecap="round" stroke-linejoin="round" stroke-opacity="0.3019608" stroke-width="0.30000000000000004"/>
      <path d="M-38.15 -35.3 L-36.45 -35.3 -36.45 -33.9 -38.15 -33.9 -38.15 -35.3" fill="#000000" fill-rule="evenodd" stroke="none"/>
      <path d="M-38.15 -35.3 L-36.45 -35.3 -36.45 -33.9 -38.15 -33.9 -38.15 -35.3 Z" fill="none" stroke="#000000" stroke-linecap="round" stroke-linejoin="round" stroke-opacity="0.3019608" stroke-width="0.30000000000000004"/>
      <path d="M-33.85 -33.9 L-35.55 -33.9 -35.55 -35.3 -33.85 -35.3 -33.85 -33.9" fill="#000000" fill-rule="evenodd" stroke="none"/>
      <path d="M-33.85 -33.9 L-35.55 -33.9 -35.55 -35.3 -33.85 -35.3 -33.85 -33.9 Z" fill="none" stroke="#000000" stroke-linecap="round" stroke-linejoin="round" stroke-opacity="0.3019608" stroke-width="0.30000000000000004"/>
      <path d="M-32.8 -33.9 L-32.8 -35.3 -31.1 -35.3 -31.1 -33.9 -32.8 -33.9" fill="#000000" fill-rule="evenodd" stroke="none"/>
      <path d="M-32.8 -33.9 L-32.8 -35.3 -31.1 -35.3 -31.1 -33.9 -32.8 -33.9 Z" fill="none" stroke="#000000" stroke-linecap="round" stroke-linejoin="round" stroke-opacity="0.3019608" stroke-width="0.30000000000000004"/>
      <path d="M-25.25 -33.9 L-26.9 -33.9 -26.9 -35.3 -25.25 -35.3 -25.25 -33.9" fill="#000000" fill-rule="evenodd" stroke="none"/>
      <path d="M-25.25 -33.9 L-26.9 -33.9 -26.9 -35.3 -25.25 -35.3 -25.25 -33.9 Z" fill="none" stroke="#000000" stroke-linecap="round" stroke-linejoin="round" stroke-opacity="0.3019608" stroke-width="0.30000000000000004"/>
      <path d="M-23.35 -33.9 L-23.35 -35.3 -21.65 -35.3 -21.65 -33.9 -23.35 -33.9" fill="#000000" fill-rule="evenodd" stroke="none"/>
      <path d="M-23.35 -33.9 L-23.35 -35.3 -21.65 -35.3 -21.65 -33.9 -23.35 -33.9 Z" fill="none" stroke="#000000" stroke-linecap="round" stroke-linejoin="round" stroke-opacity="0.3019608" stroke-width="0.30000000000000004"/>
      <path d="M-15.4 -33.9 L-17.1 -33.9 -17.1 -35.3 -15.4 -35.3 -15.4 -33.9" fill="#000000" fill-rule="evenodd" stroke="none"/>
      <path d="M-15.4 -33.9 L-17.1 -33.9 -17.1 -35.3 -15.4 -35.3 -15.4 -33.9 Z" fill="none" stroke="#000000" stroke-linecap="round" stroke-linejoin="round" stroke-opacity="0.3019608" stroke-width="0.30000000000000004"/>
      <path d="M-14.5 -33.9 L-14.5 -35.3 -12.8 -35.3 -12.8 -33.9 -14.5 -33.9" fill="#000000" fill-rule="evenodd" stroke="none"/>
      <path d="M-14.5 -33.9 L-14.5 -35.3 -12.8 -35.3 -12.8 -33.9 -14.5 -33.9 Z" fill="none" stroke="#000000" stroke-linecap="round" stroke-linejoin="round" stroke-opacity="0.3019608" stroke-width="0.30000000000000004"/>
      <path d="M-11.75 -35.3 L-10.05 -35.3 -10.05 -33.9 -11.75 -33.9 -11.75 -35.3" fill="#000000" fill-rule="evenodd" stroke="none"/>
      <path d="M-11.75 -35.3 L-10.05 -35.3 -10.05 -33.9 -11.75 -33.9 -11.75 -35.3 Z" fill="none" stroke="#000000" stroke-linecap="round" stroke-linejoin="round" stroke-opacity="0.3019608" stroke-width="0.30000000000000004"/>
      <path d="M-5.65 -34.0 L-5.65 -35.4 -3.95 -35.4 -3.95 -34.0 -5.65 -34.0" fill="#000000" fill-rule="evenodd" stroke="none"/>
      <path d="M-5.65 -34.0 L-5.65 -35.4 -3.95 -35.4 -3.95 -34.0 -5.65 -34.0 Z" fill="none" stroke="#000000" stroke-linecap="round" stroke-linejoin="round" stroke-opacity="0.3019608" stroke-width="0.30000000000000004"/>
      <path d="M-2.05 -35.4 L-0.35 -35.4 -0.35 -34.0 -2.05 -34.0 -2.05 -35.4" fill="#000000" fill-rule="evenodd" stroke="none"/>
      <path d="M-2.05 -35.4 L-0.35 -35.4 -0.35 -34.0 -2.05 -34.0 -2.05 -35.4 Z" fill="none" stroke="#000000" stroke-linecap="round" stroke-linejoin="round" stroke-opacity="0.3019608" stroke-width="0.30000000000000004"/>
    </g>
    <linearGradient gradientTransform="matrix(0.0102, 7.0E-4, -4.0E-4, 0.0054, -46.95, -54.6)" gradientUnits="userSpaceOnUse" id="decoration95-gradient16" spreadMethod="pad" x1="-819.2" x2="819.2">
      <stop offset="0.00784313725490196" stop-color="#807e7d"/>
      <stop offset="0.3568627450980392" stop-color="#b4b4b4"/>
      <stop offset="0.5254901960784314" stop-color="#646262"/>
      <stop offset="0.796078431372549" stop-color="#959494"/>
    </linearGradient>
    <linearGradient gradientTransform="matrix(0.0, 0.0013, -0.002, 0.0, -42.35, -31.8)" gradientUnits="userSpaceOnUse" id="decoration95-gradient17" spreadMethod="pad" x1="-819.2" x2="819.2">
      <stop offset="0.043137254901960784" stop-color="#ded4cf"/>
      <stop offset="0.9921568627450981" stop-color="#b8a8a1"/>
    </linearGradient>
    <g id="decoration95-shape4" transform="matrix(1.0, 0.0, 0.0, 1.0, 16.0, 58.7)">
      <path d="M44.45 -56.2 L44.15 -56.3 Q43.85 -56.5 43.75 -58.05 44.8 -58.35 45.8 -58.05 45.85 -56.75 45.5 -56.3 L45.2 -56.2 44.45 -56.2 45.2 -56.2 Q45.3 -54.45 44.85 -52.7 45.5 -53.05 45.45 -52.4 L44.5 -51.65 Q44.2 -50.85 43.3 -50.5 L41.65 -50.65 Q40.9 -50.95 40.45 -51.7 39.35 -53.8 39.95 -55.6 40.5 -57.4 41.9 -57.15 42.7 -57.05 42.9 -55.65 43.0 -53.7 41.9 -53.75 41.4 -53.8 41.2 -54.35 41.0 -55.0 41.35 -55.5 41.4 -55.75 41.75 -55.7 L42.25 -55.5 Q42.2 -56.55 41.35 -56.55 L40.55 -56.05 Q40.25 -55.6 40.25 -55.0 40.15 -54.25 40.45 -53.25 40.8 -52.2 41.35 -51.65 42.65 -50.45 44.05 -52.3 L44.4 -54.55 44.45 -56.2 M44.05 -52.3 L44.85 -52.7 44.05 -52.3 M41.35 -55.5 L41.6 -54.6 Q41.65 -54.25 41.8 -54.25 L42.15 -54.6 42.25 -55.5 42.15 -54.6 41.8 -54.25 Q41.65 -54.25 41.6 -54.6 L41.35 -55.5" fill="url(#decoration95-gradient18)" fill-rule="evenodd" stroke="none"/>
      <path d="M45.2 -56.2 L45.5 -56.3 Q45.85 -56.75 45.8 -58.05 44.8 -58.35 43.75 -58.05 43.85 -56.5 44.15 -56.3 L44.45 -56.2 45.2 -56.2 Q45.3 -54.45 44.85 -52.7 45.5 -53.05 45.45 -52.4 L44.5 -51.65 Q44.2 -50.85 43.3 -50.5 L41.65 -50.65 Q40.9 -50.95 40.45 -51.7 39.35 -53.8 39.95 -55.6 40.5 -57.4 41.9 -57.15 42.7 -57.05 42.9 -55.65 43.0 -53.7 41.9 -53.75 41.4 -53.8 41.2 -54.35 41.0 -55.0 41.35 -55.5 41.4 -55.75 41.75 -55.7 L42.25 -55.5 Q42.2 -56.55 41.35 -56.55 L40.55 -56.05 Q40.25 -55.6 40.25 -55.0 40.15 -54.25 40.45 -53.25 40.8 -52.2 41.35 -51.65 42.65 -50.45 44.05 -52.3 L44.4 -54.55 44.45 -56.2 M42.25 -55.5 L42.15 -54.6 41.8 -54.25 Q41.65 -54.25 41.6 -54.6 L41.35 -55.5 M44.85 -52.7 L44.05 -52.3" fill="none" stroke="#000000" stroke-linecap="round" stroke-linejoin="round" stroke-opacity="0.29803923" stroke-width="1.0"/>
      <path d="M-4.15 -33.9 L-2.5 -33.9 1.0 -33.9 4.55 -33.9 7.4 -33.9 10.45 -33.9 13.7 -33.9 17.0 -33.9 20.2 -33.9 23.4 -33.9 26.5 -33.9 29.5 -33.9 32.4 -33.9 35.4 -33.9 38.35 -33.9 41.6 -33.9 45.1 -33.9 48.4 -33.9 48.4 -31.15 45.1 -31.15 41.6 -31.15 38.35 -31.15 35.4 -31.15 32.4 -31.15 29.5 -31.15 26.5 -31.15 23.4 -31.15 20.2 -31.15 17.0 -31.15 13.7 -31.15 10.45 -31.15 7.4 -31.15 4.55 -31.15 1.0 -31.15 -2.5 -31.15 -4.15 -31.15 -4.15 -33.9 M-2.5 -31.15 L-2.5 -33.9 -2.5 -31.15 M45.1 -33.9 L45.1 -31.15 45.1 -33.9 M41.6 -31.15 L41.6 -33.9 41.6 -31.15 M13.7 -33.9 L13.7 -31.15 13.7 -33.9 M10.45 -31.15 L10.45 -33.9 10.45 -31.15 M20.2 -31.15 L20.2 -33.9 20.2 -31.15 M17.0 -31.15 L17.0 -33.9 17.0 -31.15 M1.0 -33.9 L1.0 -31.15 1.0 -33.9 M4.55 -31.15 L4.55 -33.9 4.55 -31.15 M7.4 -33.9 L7.4 -31.15 7.4 -33.9 M35.4 -31.15 L35.4 -33.9 35.4 -31.15 M32.4 -33.9 L32.4 -31.15 32.4 -33.9 M38.35 -33.9 L38.35 -31.15 38.35 -33.9 M29.5 -33.9 L29.5 -31.15 29.5 -33.9 M23.4 -33.9 L23.4 -31.15 23.4 -33.9 M26.5 -31.15 L26.5 -33.9 26.5 -31.15" fill="url(#decoration95-gradient19)" fill-rule="evenodd" stroke="none"/>
      <path d="M-4.15 -33.9 L-2.5 -33.9 1.0 -33.9 4.55 -33.9 7.4 -33.9 10.45 -33.9 13.7 -33.9 17.0 -33.9 20.2 -33.9 23.4 -33.9 26.5 -33.9 29.5 -33.9 32.4 -33.9 35.4 -33.9 38.35 -33.9 41.6 -33.9 45.1 -33.9 48.4 -33.9 48.4 -31.15 45.1 -31.15 41.6 -31.15 38.35 -31.15 35.4 -31.15 32.4 -31.15 29.5 -31.15 26.5 -31.15 23.4 -31.15 20.2 -31.15 17.0 -31.15 13.7 -31.15 10.45 -31.15 7.4 -31.15 4.55 -31.15 1.0 -31.15 -2.5 -31.15 -4.15 -31.15 M26.5 -33.9 L26.5 -31.15 M23.4 -31.15 L23.4 -33.9 M29.5 -31.15 L29.5 -33.9 M38.35 -31.15 L38.35 -33.9 M32.4 -31.15 L32.4 -33.9 M35.4 -33.9 L35.4 -31.15 M7.4 -31.15 L7.4 -33.9 M4.55 -33.9 L4.55 -31.15 M1.0 -31.15 L1.0 -33.9 M17.0 -33.9 L17.0 -31.15 M20.2 -33.9 L20.2 -31.15 M10.45 -33.9 L10.45 -31.15 M13.7 -31.15 L13.7 -33.9 M41.6 -33.9 L41.6 -31.15 M45.1 -31.15 L45.1 -33.9 M-2.5 -33.9 L-2.5 -31.15" fill="none" stroke="#000000" stroke-linecap="round" stroke-linejoin="round" stroke-opacity="0.3019608" stroke-width="0.30000000000000004"/>
      <path d="M44.3 -35.3 L46.0 -35.3 46.0 -33.9 44.3 -33.9 44.3 -35.3" fill="#000000" fill-rule="evenodd" stroke="none"/>
      <path d="M44.3 -35.3 L44.3 -33.9 46.0 -33.9 46.0 -35.3 44.3 -35.3 Z" fill="none" stroke="#000000" stroke-linecap="round" stroke-linejoin="round" stroke-opacity="0.3019608" stroke-width="0.30000000000000004"/>
      <path d="M40.75 -33.9 L40.75 -35.3 42.4 -35.3 42.4 -33.9 40.75 -33.9" fill="#000000" fill-rule="evenodd" stroke="none"/>
      <path d="M40.75 -33.9 L42.4 -33.9 42.4 -35.3 40.75 -35.3 40.75 -33.9 Z" fill="none" stroke="#000000" stroke-linecap="round" stroke-linejoin="round" stroke-opacity="0.3019608" stroke-width="0.30000000000000004"/>
      <path d="M36.2 -35.3 L36.2 -33.9 34.5 -33.9 34.5 -35.3 36.2 -35.3" fill="#000000" fill-rule="evenodd" stroke="none"/>
      <path d="M36.2 -35.3 L34.5 -35.3 34.5 -33.9 36.2 -33.9 36.2 -35.3 Z" fill="none" stroke="#000000" stroke-linecap="round" stroke-linejoin="round" stroke-opacity="0.3019608" stroke-width="0.30000000000000004"/>
      <path d="M31.9 -33.9 L31.9 -35.3 33.6 -35.3 33.6 -33.9 31.9 -33.9" fill="#000000" fill-rule="evenodd" stroke="none"/>
      <path d="M31.9 -33.9 L33.6 -33.9 33.6 -35.3 31.9 -35.3 31.9 -33.9 Z" fill="none" stroke="#000000" stroke-linecap="round" stroke-linejoin="round" stroke-opacity="0.3019608" stroke-width="0.30000000000000004"/>
      <path d="M30.85 -33.9 L29.15 -33.9 29.15 -35.3 30.85 -35.3 30.85 -33.9" fill="#000000" fill-rule="evenodd" stroke="none"/>
      <path d="M30.85 -33.9 L30.85 -35.3 29.15 -35.3 29.15 -33.9 30.85 -33.9 Z" fill="none" stroke="#000000" stroke-linecap="round" stroke-linejoin="round" stroke-opacity="0.3019608" stroke-width="0.30000000000000004"/>
      <path d="M23.3 -33.9 L23.3 -35.3 24.95 -35.3 24.95 -33.9 23.3 -33.9" fill="#000000" fill-rule="evenodd" stroke="none"/>
      <path d="M23.3 -33.9 L24.95 -33.9 24.95 -35.3 23.3 -35.3 23.3 -33.9 Z" fill="none" stroke="#000000" stroke-linecap="round" stroke-linejoin="round" stroke-opacity="0.3019608" stroke-width="0.30000000000000004"/>
      <path d="M21.4 -33.9 L19.7 -33.9 19.7 -35.3 21.4 -35.3 21.4 -33.9" fill="#000000" fill-rule="evenodd" stroke="none"/>
      <path d="M21.4 -33.9 L21.4 -35.3 19.7 -35.3 19.7 -33.9 21.4 -33.9 Z" fill="none" stroke="#000000" stroke-linecap="round" stroke-linejoin="round" stroke-opacity="0.3019608" stroke-width="0.30000000000000004"/>
      <path d="M13.45 -33.9 L13.45 -35.3 15.15 -35.3 15.15 -33.9 13.45 -33.9" fill="#000000" fill-rule="evenodd" stroke="none"/>
      <path d="M13.45 -33.9 L15.15 -33.9 15.15 -35.3 13.45 -35.3 13.45 -33.9 Z" fill="none" stroke="#000000" stroke-linecap="round" stroke-linejoin="round" stroke-opacity="0.3019608" stroke-width="0.30000000000000004"/>
      <path d="M12.55 -33.9 L10.85 -33.9 10.85 -35.3 12.55 -35.3 12.55 -33.9" fill="#000000" fill-rule="evenodd" stroke="none"/>
      <path d="M12.55 -33.9 L12.55 -35.3 10.85 -35.3 10.85 -33.9 12.55 -33.9 Z" fill="none" stroke="#000000" stroke-linecap="round" stroke-linejoin="round" stroke-opacity="0.3019608" stroke-width="0.30000000000000004"/>
      <path d="M9.8 -35.3 L9.8 -33.9 8.1 -33.9 8.1 -35.3 9.8 -35.3" fill="#000000" fill-rule="evenodd" stroke="none"/>
      <path d="M9.8 -35.3 L8.1 -35.3 8.1 -33.9 9.8 -33.9 9.8 -35.3 Z" fill="none" stroke="#000000" stroke-linecap="round" stroke-linejoin="round" stroke-opacity="0.3019608" stroke-width="0.30000000000000004"/>
      <path d="M3.7 -34.0 L2.0 -34.0 2.0 -35.4 3.7 -35.4 3.7 -34.0" fill="#000000" fill-rule="evenodd" stroke="none"/>
      <path d="M3.7 -34.0 L3.7 -35.4 2.0 -35.4 2.0 -34.0 3.7 -34.0 Z" fill="none" stroke="#000000" stroke-linecap="round" stroke-linejoin="round" stroke-opacity="0.3019608" stroke-width="0.30000000000000004"/>
      <path d="M0.1 -35.4 L0.1 -34.0 -1.6 -34.0 -1.6 -35.4 0.1 -35.4" fill="#000000" fill-rule="evenodd" stroke="none"/>
      <path d="M0.1 -35.4 L-1.6 -35.4 -1.6 -34.0 0.1 -34.0 0.1 -35.4 Z" fill="none" stroke="#000000" stroke-linecap="round" stroke-linejoin="round" stroke-opacity="0.3019608" stroke-width="0.30000000000000004"/>
      <path d="M11.65 -5.2 L-12.1 -5.2 -12.1 -9.5 11.65 -9.5 11.65 -5.2" fill="url(#decoration95-gradient20)" fill-rule="evenodd" stroke="none"/>
      <path d="M11.65 -5.2 L-12.1 -5.2 -12.1 -9.5 11.65 -9.5 11.65 -5.2 Z" fill="none" stroke="#000000" stroke-linecap="round" stroke-linejoin="round" stroke-opacity="0.3019608" stroke-width="0.30000000000000004"/>
      <path d="M-6.1 -7.4 Q-7.55 -4.9 -10.85 -4.6 -15.8 -4.5 -14.85 -6.15 L-11.75 -6.6 Q-10.1 -6.6 -9.5 -7.4 L-6.1 -7.4" fill="#70531d" fill-rule="evenodd" stroke="none"/>
      <path d="M-6.1 -7.4 Q-6.05 -6.15 -6.45 -4.9 -7.1 -4.5 -9.1 -4.0 L-11.45 -3.55 Q-13.35 -3.4 -14.85 -4.0 L-15.85 -4.65 -15.55 -5.75 -14.85 -6.15 Q-15.8 -4.5 -10.85 -4.6 -7.55 -4.9 -6.1 -7.4" fill="#4a350c" fill-rule="evenodd" stroke="none"/>
      <path d="M-14.85 -6.15 L-15.55 -5.75 -15.85 -4.65 -14.85 -4.0 Q-13.35 -3.4 -11.45 -3.55 L-9.1 -4.0 Q-7.1 -4.5 -6.45 -4.9 -6.05 -6.15 -6.1 -7.4 M-14.85 -6.15 L-11.75 -6.6 Q-10.1 -6.6 -9.5 -7.4 L-6.1 -7.4" fill="none" stroke="#000000" stroke-linecap="round" stroke-linejoin="round" stroke-opacity="0.3019608" stroke-width="0.30000000000000004"/>
      <path d="M5.8 -7.55 L9.25 -7.55 Q9.9 -6.75 11.55 -6.75 L14.65 -6.3 Q15.6 -4.65 10.6 -4.75 7.3 -5.05 5.8 -7.55" fill="#70531d" fill-rule="evenodd" stroke="none"/>
      <path d="M14.65 -6.3 L15.3 -5.9 15.65 -4.8 Q15.3 -4.45 14.65 -4.15 13.15 -3.55 11.2 -3.7 L8.85 -4.15 Q6.85 -4.65 6.15 -5.05 5.75 -6.3 5.8 -7.55 7.3 -5.05 10.6 -4.75 15.6 -4.65 14.65 -6.3" fill="#4a350c" fill-rule="evenodd" stroke="none"/>
      <path d="M14.65 -6.3 L15.3 -5.9 15.65 -4.8 Q15.3 -4.45 14.65 -4.15 13.15 -3.55 11.2 -3.7 L8.85 -4.15 Q6.85 -4.65 6.15 -5.05 5.75 -6.3 5.8 -7.55 L9.25 -7.55 Q9.9 -6.75 11.55 -6.75 L14.65 -6.3 Z" fill="none" stroke="#000000" stroke-linecap="round" stroke-linejoin="round" stroke-opacity="0.3019608" stroke-width="0.30000000000000004"/>
      <path d="M-3.35 -5.3 L-3.2 -5.4 Q-1.7 -6.4 -2.6 -7.3 L1.75 -7.3 Q1.15 -6.3 2.0 -5.8 L2.4 -5.5 Q3.0 -4.2 -0.15 -4.0 -3.95 -4.3 -3.35 -5.3" fill="#70531d" fill-rule="evenodd" stroke="none"/>
      <path d="M2.4 -5.5 L3.3 -4.4 Q3.65 -2.75 -1.35 -3.05 -6.25 -3.3 -3.35 -5.3 -3.95 -4.3 -0.15 -4.0 3.0 -4.2 2.4 -5.5" fill="#4a350c" fill-rule="evenodd" stroke="none"/>
      <path d="M2.4 -5.5 L3.3 -4.4 Q3.65 -2.75 -1.35 -3.05 -6.25 -3.3 -3.35 -5.3 L-3.2 -5.4 Q-1.7 -6.4 -2.6 -7.3 L1.75 -7.3 Q1.15 -6.3 2.0 -5.8 L2.4 -5.5 Z" fill="none" stroke="#000000" stroke-linecap="round" stroke-linejoin="round" stroke-opacity="0.3019608" stroke-width="0.30000000000000004"/>
    </g>
    <linearGradient gradientTransform="matrix(-0.0102, 7.0E-4, 4.0E-4, 0.0054, 45.0, -54.6)" gradientUnits="userSpaceOnUse" id="decoration95-gradient18" spreadMethod="pad" x1="-819.2" x2="819.2">
      <stop offset="0.00784313725490196" stop-color="#807e7d"/>
      <stop offset="0.3568627450980392" stop-color="#b4b4b4"/>
      <stop offset="0.5254901960784314" stop-color="#646262"/>
      <stop offset="0.796078431372549" stop-color="#959494"/>
    </linearGradient>
    <linearGradient gradientTransform="matrix(0.0, 0.0013, 0.002, 0.0, 40.4, -31.8)" gradientUnits="userSpaceOnUse" id="decoration95-gradient19" spreadMethod="pad" x1="-819.2" x2="819.2">
      <stop offset="0.043137254901960784" stop-color="#ded4cf"/>
      <stop offset="0.9921568627450981" stop-color="#b8a8a1"/>
    </linearGradient>
    <linearGradient gradientTransform="matrix(0.0, -0.0037, 0.0032, 0.0, -0.25, -7.35)" gradientUnits="userSpaceOnUse" id="decoration95-gradient20" spreadMethod="pad" x1="-819.2" x2="819.2">
      <stop offset="0.0" stop-color="#1c1a19"/>
      <stop offset="1.0" stop-color="#0b0706"/>
    </linearGradient>
    <g id="decoration95-sprite3" transform="matrix(1.0, 0.0, 0.0, 1.0, 0.0, 0.0)">
      <use height="91.9" transform="matrix(1.0, 0.0, 0.0, 1.0, 0.0, 0.0)" width="71.1" xlink:href="#decoration95-shape5"/>
    </g>
    <g id="decoration95-shape5" transform="matrix(1.0, 0.0, 0.0, 1.0, 0.0, 0.0)">
      <path d="M64.1 10.85 L64.1 7.25 61.45 7.25 61.45 10.85 64.1 10.85 M71.1 7.25 L66.45 7.25 66.45 10.85 71.1 10.85 71.1 88.0 14.4 88.0 Q17.25 89.9 14.25 91.9 L6.0 91.9 Q4.8 91.2 4.9 90.15 L5.0 89.75 Q5.3 88.55 6.8 88.0 7.75 87.15 7.1 85.25 5.85 84.9 4.8 84.3 2.7 83.05 2.7 81.3 2.7 80.95 3.0 80.5 L3.3 79.9 3.95 79.25 5.2 78.1 Q4.15 77.95 4.5 77.25 4.6 77.0 4.85 76.8 5.3 76.45 6.15 76.35 7.0 76.2 7.0 73.9 L6.95 73.4 Q6.9 71.65 6.4 70.85 6.1 70.35 5.65 70.2 L4.65 70.2 Q3.25 68.8 3.8 66.5 1.3 66.75 0.65 65.45 0.7 63.75 1.95 63.3 L4.1 62.95 5.1 62.85 5.1 53.3 Q5.05 52.35 5.6 51.55 6.1 50.7 7.2 50.45 L7.15 21.35 Q4.55 19.0 0.0 18.9 L9.15 18.9 9.15 14.25 7.9 14.25 7.9 13.0 11.2 13.0 Q10.3 12.85 9.55 12.25 L9.4 12.1 Q8.7 11.45 8.7 10.6 8.7 9.6 9.55 8.85 10.45 8.15 11.65 8.15 12.85 8.15 13.7 8.85 14.55 9.6 14.55 10.6 14.55 11.6 13.7 12.25 12.95 13.0 11.9 13.0 L15.1 13.0 15.45 13.45 Q15.6 13.85 15.1 14.25 L47.25 14.25 47.25 13.15 Q45.65 10.95 43.6 10.85 L46.25 10.85 46.25 6.1 45.0 6.1 45.0 4.9 48.55 4.9 48.25 4.85 Q47.35 4.7 46.65 4.15 L46.45 4.0 Q45.8 3.35 45.8 2.45 45.8 1.45 46.65 0.7 47.5 0.0 48.7 0.0 49.9 0.0 50.8 0.7 51.65 1.45 51.65 2.45 51.65 3.45 50.8 4.15 49.95 4.85 48.8 4.9 L52.15 4.9 52.55 5.3 Q52.7 5.7 52.15 6.1 L71.1 6.1 71.1 7.25 M23.75 18.9 L23.75 15.75 19.9 15.75 19.9 18.9 23.75 18.9 M47.25 15.75 L45.45 15.75 45.45 18.9 47.25 18.9 47.25 15.75 M43.65 18.9 L43.65 15.75 40.1 15.75 40.1 18.9 43.65 18.9 M58.65 7.25 L55.9 7.25 55.9 10.85 58.65 10.85 58.65 7.25 M53.35 10.85 L53.35 7.25 51.25 7.25 51.25 10.85 53.35 10.85 M30.35 15.75 L25.65 15.75 25.65 18.9 30.35 18.9 30.35 15.75 M14.15 15.75 L14.15 18.9 17.45 18.9 17.45 15.75 14.15 15.75 M32.8 15.75 L32.8 18.9 37.5 18.9 37.5 15.75 32.8 15.75" fill="url(#decoration95-gradient21)" fill-rule="evenodd" stroke="none"/>
    </g>
    <radialGradient cx="0" cy="0" gradientTransform="matrix(0.0608, 0.0, 0.0, 0.0643, 19.9, 17.3)" gradientUnits="userSpaceOnUse" id="decoration95-gradient21" r="819.2" spreadMethod="pad">
      <stop offset="0.0" stop-color="#ffffff" stop-opacity="0.8901961"/>
      <stop offset="1.0" stop-color="#ffffff" stop-opacity="0.0"/>
    </radialGradient>
  </defs>
</svg>
