<?xml version="1.0" encoding="UTF-8" standalone="no"?>
<svg xmlns:xlink="http://www.w3.org/1999/xlink" height="87.55px" width="123.15px" xmlns="http://www.w3.org/2000/svg">
  <g transform="matrix(1.0, 0.0, 0.0, 1.0, 57.4, 85.0)">
    <use height="68.15" transform="matrix(1.0, 0.0, 0.0, 1.0, -34.7, -70.2)" width="78.7" xlink:href="#decoration96-shape0"/>
    <use height="128.1" id="decoration96-Couleur0_DBD4CB" filter="url(#decoration96-filter0)" transform="matrix(0.6985, 0.0, 0.0, 0.6747, -57.4048, -85.0012)" width="89.4" xlink:href="#decoration96-sprite0"/>
    <use height="86.1" transform="matrix(1.0, 0.0, 0.0, 1.0, -52.15, -84.8)" width="57.25" xlink:href="#decoration96-shape2"/>
    <use height="128.1" id="decoration96-Couleur0_DBD4CB" filter="url(#decoration96-filter0)" transform="matrix(-0.6985, 0.0, 0.0, 0.6747, 65.7548, -85.0012)" width="89.4" xlink:href="#decoration96-sprite0"/>
    <use height="86.25" transform="matrix(1.0, 0.0, 0.0, 1.0, -34.5, -84.95)" width="95.0" xlink:href="#decoration96-shape3"/>
    <use height="0.0" transform="matrix(0.349, -5.0E-4, -0.0707, 0.3542, -14.25, -35.75)" width="0.0" xlink:href="#decoration96-sprite1"/>
    <use height="23.5" transform="matrix(1.0, 0.0, 0.0, 1.0, -18.65, -20.95)" width="45.05" xlink:href="#decoration96-shape4"/>
  </g>
  <defs>
    <g id="decoration96-shape0" transform="matrix(1.0, 0.0, 0.0, 1.0, 34.7, 70.2)">
      <path d="M43.85 -2.2 L-34.55 -2.2 -34.55 -70.05 43.85 -70.05 43.85 -2.2" fill="url(#decoration96-gradient0)" fill-rule="evenodd" stroke="none"/>
      <path d="M43.85 -2.2 L-34.55 -2.2 -34.55 -70.05 43.85 -70.05 43.85 -2.2 Z" fill="none" stroke="#000000" stroke-linecap="round" stroke-linejoin="round" stroke-opacity="0.3019608" stroke-width="0.30000000000000004"/>
    </g>
    <radialGradient cx="0" cy="0" gradientTransform="matrix(0.0382, 0.0, 0.0, 0.0427, 1.3, -12.55)" gradientUnits="userSpaceOnUse" id="decoration96-gradient0" r="819.2" spreadMethod="pad">
      <stop offset="0.10588235294117647" stop-color="#ffa800"/>
      <stop offset="0.5882352941176471" stop-color="#564e17"/>
      <stop offset="0.9254901960784314" stop-color="#2a251e"/>
    </radialGradient>
    <g id="decoration96-sprite0" transform="matrix(1.0, 0.0, 0.0, 1.0, 0.15, 0.15)">
      <use height="128.1" transform="matrix(1.0, 0.0, 0.0, 1.0, -0.15, -0.15)" width="89.4" xlink:href="#decoration96-shape1"/>
    </g>
    <g id="decoration96-shape1" transform="matrix(1.0, 0.0, 0.0, 1.0, 0.15, 0.15)">
      <path d="M88.4 1.6 L3.5 1.6 Q2.95 0.8 4.3 0.0 L88.4 0.0 88.4 1.6 M88.15 12.7 L88.55 13.85 Q85.1 13.45 85.55 9.3 84.35 9.05 84.65 7.45 L85.05 6.8 85.95 6.7 86.55 7.3 Q87.3 8.4 86.7 9.0 L86.2 8.85 86.15 8.9 Q85.8 9.05 85.55 9.3 85.8 9.05 86.15 8.9 87.95 10.8 88.15 12.7 M88.6 14.75 L88.6 15.65 Q86.2 15.65 83.8 13.7 83.85 14.15 84.25 14.6 L83.5 15.35 Q82.55 15.8 81.6 14.0 80.9 15.8 79.8 15.75 78.85 15.7 78.65 14.95 77.4 12.75 76.45 12.85 75.0 12.65 74.0 15.2 73.8 15.55 73.25 15.45 L72.8 15.3 71.45 15.05 Q72.45 15.15 72.05 16.25 70.8 16.9 70.25 15.65 L70.35 15.05 Q70.65 13.75 72.0 13.5 73.05 13.3 73.8 14.05 73.95 13.35 74.55 12.7 75.3 11.95 76.35 11.9 77.95 11.85 78.6 13.6 L79.4 13.5 Q80.1 13.55 80.4 13.9 L80.05 12.45 Q80.0 11.1 81.15 10.95 81.65 10.9 81.95 11.45 L82.55 13.15 Q82.35 11.4 82.85 9.85 83.85 9.65 84.2 11.0 L84.6 13.3 85.65 13.6 86.9 14.55 88.6 14.75 M9.85 123.6 L9.85 112.4 36.7 112.4 Q26.55 128.9 9.85 123.6 M0.1 40.4 Q-0.3 39.15 1.35 37.9 L12.45 37.9 26.75 37.9 Q29.5 19.05 70.35 16.4 L70.95 17.1 71.45 17.35 Q67.55 18.75 63.85 18.8 48.25 20.1 36.05 27.2 30.85 31.75 29.05 40.4 L0.1 40.4 M82.2 8.15 Q81.65 7.1 81.2 7.05 81.4 8.1 80.35 8.5 L79.2 8.4 78.7 7.95 78.9 7.0 79.55 6.55 Q80.4 6.05 81.1 6.1 82.55 6.2 83.15 6.7 83.25 7.65 82.75 8.0 L82.2 8.15 M78.8 14.45 L78.6 13.6 78.8 14.45 M83.8 13.7 Q83.8 13.2 84.6 13.3 83.8 13.2 83.8 13.7 M84.25 18.15 L84.95 17.8 Q85.65 19.85 85.15 21.6 84.25 23.95 81.15 23.65 79.4 22.4 79.6 20.1 80.3 18.95 81.8 18.95 L82.35 19.05 Q83.4 20.1 82.7 21.15 81.95 21.75 81.05 21.15 81.7 22.65 82.8 22.2 83.85 21.7 83.65 20.5 84.0 20.2 84.2 19.2 L84.25 18.15 M80.2 7.8 Q80.55 6.9 81.2 7.05 80.55 6.9 80.2 7.8" fill="#808080" fill-rule="evenodd" stroke="none"/>
      <path d="M12.45 109.05 L12.45 48.3 35.45 48.3 35.45 98.7 Q33.9 108.0 27.0 110.05 L12.45 110.05 12.45 109.05" fill="url(#decoration96-gradient1)" fill-rule="evenodd" stroke="none"/>
      <path d="M88.05 9.3 L88.15 10.7 88.15 12.7 Q87.95 10.8 86.15 8.9 L86.2 8.85 86.7 9.0 Q87.3 8.4 86.55 7.3 L88.05 9.3 M88.55 13.85 L88.6 14.75 86.9 14.55 85.65 13.6 85.1 11.55 Q84.9 10.0 85.55 9.3 84.9 10.0 85.1 11.55 L85.65 13.6 84.6 13.3 84.2 11.0 Q83.85 9.65 82.85 9.85 82.35 11.4 82.55 13.15 L81.95 11.45 82.15 10.4 81.55 9.45 79.7 9.5 Q78.75 9.0 78.7 7.95 L79.2 8.4 80.35 8.5 Q81.4 8.1 81.2 7.05 81.65 7.1 82.2 8.15 82.2 9.15 81.55 9.45 82.2 9.15 82.2 8.15 L82.75 8.0 Q83.25 7.65 83.15 6.7 L84.3 8.4 84.65 7.45 Q84.35 9.05 85.55 9.3 85.1 13.45 88.55 13.85 M88.6 15.65 L88.8 20.2 86.1 20.2 86.1 21.65 85.95 22.35 85.0 23.7 Q83.7 25.0 82.15 24.9 79.8 24.75 78.9 22.3 78.8 22.05 79.15 21.15 L79.6 20.1 Q79.4 22.4 81.15 23.65 84.25 23.95 85.15 21.6 85.65 19.85 84.95 17.8 L84.25 18.15 Q83.95 17.2 83.05 16.8 81.9 16.25 81.45 15.5 81.25 16.95 80.05 17.1 78.85 17.2 78.35 16.05 77.45 13.75 76.3 13.75 75.2 13.75 75.0 15.4 74.8 16.65 73.8 16.9 L72.8 16.9 73.0 16.05 72.8 15.3 73.0 16.05 72.8 16.9 Q72.3 17.6 71.45 17.35 L70.95 17.1 70.35 16.4 70.25 15.65 Q70.8 16.9 72.05 16.25 72.45 15.15 71.45 15.05 L72.8 15.3 73.25 15.45 Q73.8 15.55 74.0 15.2 75.0 12.65 76.45 12.85 77.4 12.75 78.65 14.95 78.85 15.7 79.8 15.75 80.9 15.8 81.6 14.0 82.55 15.8 83.5 15.35 L84.25 14.6 85.55 15.6 Q85.75 16.1 85.25 16.55 L83.05 16.8 85.25 16.55 Q85.75 16.1 85.55 15.6 L84.25 14.6 Q83.85 14.15 83.8 13.7 86.2 15.65 88.6 15.65 M82.15 10.4 L82.85 9.85 82.15 10.4 M84.2 11.0 L84.3 8.4 84.2 11.0 M88.15 10.7 L86.7 9.0 88.15 10.7 M83.65 20.5 Q83.85 21.7 82.8 22.2 81.7 22.65 81.05 21.15 81.95 21.75 82.7 21.15 83.4 20.1 82.35 19.05 83.45 19.3 83.65 20.5 M85.25 16.55 L86.1 20.2 85.25 16.55" fill="#5f5d5d" fill-rule="evenodd" stroke="none"/>
      <path d="M88.4 1.6 L88.4 5.4 12.45 5.4 88.4 5.4 88.3 6.7 85.95 6.7 85.05 6.8 83.15 6.7 Q82.55 6.2 81.1 6.1 80.4 6.05 79.55 6.55 L78.9 7.0 12.45 7.0 12.45 5.4 5.4 2.8 Q3.9 2.2 3.5 1.6 L88.4 1.6 M88.8 22.35 L89.1 28.75 Q54.1 28.95 45.15 33.3 37.0 37.2 35.45 47.95 L35.45 48.3 12.45 48.3 12.45 45.1 32.45 45.1 Q33.1 23.75 78.9 22.3 79.8 24.75 82.15 24.9 83.7 25.0 85.0 23.7 L85.95 22.35 88.8 22.35 M36.75 127.8 L9.85 127.8 9.85 123.6 Q26.55 128.9 36.7 112.4 L36.75 112.4 36.75 127.8 M3.35 43.1 Q0.5 41.75 0.1 40.4 L29.05 40.4 Q30.85 31.75 36.05 27.2 48.25 20.1 63.85 18.8 67.55 18.75 71.45 17.35 72.3 17.6 72.8 16.9 L73.8 16.9 Q74.8 16.65 75.0 15.4 75.2 13.75 76.3 13.75 77.45 13.75 78.35 16.05 78.85 17.2 80.05 17.1 81.25 16.95 81.45 15.5 81.9 16.25 83.05 16.8 83.95 17.2 84.25 18.15 L84.2 19.2 Q84.0 20.2 83.65 20.5 83.45 19.3 82.35 19.05 L81.8 18.95 Q80.3 18.95 79.6 20.1 32.1 20.55 30.75 43.1 L3.35 43.1 M35.45 98.7 L35.45 110.05 27.0 110.05 Q33.9 108.0 35.45 98.7" fill="#54504f" fill-rule="evenodd" stroke="none"/>
      <path d="M88.8 20.2 L88.8 22.35 85.95 22.35 86.1 21.65 86.1 20.2 88.8 20.2" fill="#4f4a48" fill-rule="evenodd" stroke="none"/>
      <path d="M88.3 6.7 L88.05 9.3 86.55 7.3 85.95 6.7 88.3 6.7 M12.45 37.9 L12.45 7.0 78.9 7.0 78.7 7.95 Q78.75 9.0 79.7 9.5 L81.55 9.45 82.15 10.4 81.95 11.45 Q81.65 10.9 81.15 10.95 80.0 11.1 80.05 12.45 L80.4 13.9 Q80.1 13.55 79.4 13.5 L78.6 13.6 Q77.95 11.85 76.35 11.9 75.3 11.95 74.55 12.7 73.95 13.35 73.8 14.05 73.05 13.3 72.0 13.5 70.65 13.75 70.35 15.05 L70.25 15.65 70.35 16.4 Q29.5 19.05 26.75 37.9 L12.45 37.9 M85.05 6.8 L84.65 7.45 84.3 8.4 83.15 6.7 85.05 6.8" fill="url(#decoration96-gradient2)" fill-rule="evenodd" stroke="none"/>
      <path d="M12.45 45.1 L4.7 45.1 3.35 43.1 30.75 43.1 Q32.1 20.55 79.6 20.1 L79.15 21.15 Q78.8 22.05 78.9 22.3 33.1 23.75 32.45 45.1 L12.45 45.1" fill="#413d3b" fill-rule="evenodd" stroke="none"/>
      <path d="M89.1 28.75 L89.1 31.3 77.05 31.85 Q41.35 34.55 40.6 50.45 L40.6 105.95 42.15 107.55 42.15 122.6 36.75 127.8 36.75 112.4 35.45 110.05 35.45 98.7 35.45 48.3 35.45 47.95 Q37.0 37.2 45.15 33.3 54.1 28.95 89.1 28.75 M40.6 105.95 L35.45 110.05 40.6 105.95 M42.15 107.55 L36.75 112.4 42.15 107.55" fill="#464241" fill-rule="evenodd" stroke="none"/>
      <path d="M9.85 112.4 L12.45 109.05 12.45 110.05 27.0 110.05 35.45 110.05 36.75 112.4 36.7 112.4 9.85 112.4" fill="#9c9c9c" fill-rule="evenodd" stroke="none"/>
      <path d="M3.5 1.6 Q3.9 2.2 5.4 2.8 L12.45 5.4 88.4 5.4 M88.05 9.3 L88.15 10.7 M89.1 31.3 L77.05 31.85 Q41.35 34.55 40.6 50.45 L40.6 105.95 42.15 107.55 42.15 122.6 36.75 127.8 9.85 127.8 9.85 123.6 9.85 112.4 12.45 109.05 12.45 48.3 12.45 45.1 4.7 45.1 3.35 43.1 Q0.5 41.75 0.1 40.4 -0.3 39.15 1.35 37.9 L12.45 37.9 12.45 7.0 12.45 5.4 M88.4 0.0 L4.3 0.0 Q2.95 0.8 3.5 1.6 M85.05 6.8 L85.95 6.7 M84.65 7.45 L85.05 6.8 M83.15 6.7 L84.3 8.4 84.65 7.45 M85.55 9.3 Q85.8 9.05 86.15 8.9 L86.2 8.85 86.7 9.0 88.15 10.7 M86.55 7.3 L85.95 6.7 M82.2 8.15 Q81.65 7.1 81.2 7.05 80.55 6.9 80.2 7.8 M78.7 7.95 Q78.75 9.0 79.7 9.5 L81.55 9.45 Q82.2 9.15 82.2 8.15 M83.15 6.7 Q82.55 6.2 81.1 6.1 80.4 6.05 79.55 6.55 L78.9 7.0 78.7 7.95 M81.95 11.45 L82.15 10.4 81.55 9.45 M81.95 11.45 Q81.65 10.9 81.15 10.95 80.0 11.1 80.05 12.45 L80.4 13.9 Q80.1 13.55 79.4 13.5 L78.6 13.6 78.8 14.45 M82.85 9.85 L82.15 10.4 M85.55 9.3 Q84.9 10.0 85.1 11.55 L85.65 13.6 86.9 14.55 M84.3 8.4 L84.2 11.0 84.6 13.3 85.65 13.6 M84.2 11.0 Q83.85 9.65 82.85 9.85 M82.55 13.15 L81.95 11.45 M88.05 9.3 L86.55 7.3 M84.6 13.3 Q83.8 13.2 83.8 13.7 M84.25 14.6 Q83.85 14.15 83.8 13.7 M72.8 15.3 L73.0 16.05 72.8 16.9 73.8 16.9 Q74.8 16.65 75.0 15.4 75.2 13.75 76.3 13.75 77.45 13.75 78.35 16.05 78.85 17.2 80.05 17.1 81.25 16.95 81.45 15.5 81.9 16.25 83.05 16.8 L85.25 16.55 Q85.75 16.1 85.55 15.6 L84.25 14.6 M84.25 18.15 L84.2 19.2 Q84.0 20.2 83.65 20.5 83.85 21.7 82.8 22.2 81.7 22.65 81.05 21.15 M82.35 19.05 L81.8 18.95 Q80.3 18.95 79.6 20.1 L79.15 21.15 Q78.8 22.05 78.9 22.3 79.8 24.75 82.15 24.9 83.7 25.0 85.0 23.7 L85.95 22.35 86.1 21.65 86.1 20.2 85.25 16.55 M84.25 18.15 Q83.95 17.2 83.05 16.8 M83.65 20.5 Q83.45 19.3 82.35 19.05 M88.8 20.2 L86.1 20.2 M88.8 22.35 L85.95 22.35 M70.25 15.65 L70.35 16.4 70.95 17.1 71.45 17.35 Q72.3 17.6 72.8 16.9 M78.6 13.6 Q77.95 11.85 76.35 11.9 75.3 11.95 74.55 12.7 73.95 13.35 73.8 14.05 73.05 13.3 72.0 13.5 70.65 13.75 70.35 15.05 L70.25 15.65 M71.45 15.05 L72.8 15.3 M89.1 28.75 Q54.1 28.95 45.15 33.3 37.0 37.2 35.45 47.95 L35.45 48.3 35.45 98.7 35.45 110.05 40.6 105.95 M3.35 43.1 L30.75 43.1 Q32.1 20.55 79.6 20.1 M78.9 22.3 Q33.1 23.75 32.45 45.1 L12.45 45.1 M12.45 37.9 L26.75 37.9 Q29.5 19.05 70.35 16.4 M35.45 110.05 L27.0 110.05 12.45 110.05 12.45 109.05 M35.45 110.05 L36.75 112.4 42.15 107.55 M36.75 112.4 L36.75 127.8" fill="none" stroke="#000000" stroke-linecap="round" stroke-linejoin="round" stroke-opacity="0.3019608" stroke-width="0.30000000000000004"/>
      <path d="M36.75 112.4 L36.7 112.4 M9.85 112.4 L36.7 112.4" fill="none" stroke="#000000" stroke-linecap="round" stroke-linejoin="round" stroke-opacity="0.1882353" stroke-width="0.30000000000000004"/>
      <path d="M16.65 64.0 L29.7 64.0 29.7 99.1 Q29.95 103.3 28.5 105.25 27.05 107.2 23.85 107.2 19.6 107.25 17.9 104.95 16.65 103.3 16.65 100.0 L16.65 64.0" fill="url(#decoration96-gradient3)" fill-rule="evenodd" stroke="none"/>
      <path d="M29.7 99.1 Q29.95 103.3 28.5 105.25 27.05 107.2 23.85 107.2 19.6 107.25 17.9 104.95 16.65 103.3 16.65 100.0" fill="none" stroke="#000000" stroke-linecap="round" stroke-linejoin="round" stroke-opacity="0.3019608" stroke-width="0.30000000000000004"/>
      <path d="M29.7 64.0 L29.7 99.1 M16.65 100.0 L16.65 64.0" fill="none" stroke="url(#decoration96-gradient4)" stroke-linecap="round" stroke-linejoin="round" stroke-width="0.30000000000000004"/>
      <path d="M26.3 51.7 L26.75 52.2 Q27.2 52.8 27.05 53.25 25.75 54.3 24.65 52.8 24.7 52.4 25.5 52.0 L26.3 51.7 M22.95 53.25 Q24.8 53.85 23.75 56.0 24.7 55.15 24.9 54.15 L25.9 54.9 Q26.95 57.5 24.55 57.4 L21.8 57.35 24.55 57.4 23.75 56.0 Q22.75 55.85 22.2 55.25 L21.7 54.65 Q22.7 54.1 22.95 53.25 M29.0 56.25 Q30.65 58.25 30.15 62.45 L28.55 60.45 Q27.65 58.4 28.85 58.3 L28.7 57.15 Q28.65 56.0 29.0 56.25 M26.4 68.05 Q26.4 73.9 24.15 77.55 23.15 73.75 23.25 72.1 23.3 71.3 24.1 69.3 23.3 70.3 21.9 70.7 22.1 68.8 22.6 68.05 23.3 67.8 24.3 69.2 25.25 70.5 25.35 71.55 L25.5 69.6 Q25.65 67.7 26.4 68.05 M20.75 67.5 Q21.05 65.0 22.25 63.25 24.3 61.3 24.6 63.15 L25.2 62.2 Q25.65 62.1 26.0 62.75 26.3 63.4 26.05 64.2 25.3 66.5 20.75 67.5 M18.6 63.1 L17.35 64.2 Q16.8 62.45 17.5 60.7 18.0 59.45 18.95 58.5 20.3 58.25 19.4 60.35 L18.5 61.2 Q19.3 61.35 18.6 63.1 M18.15 56.3 Q17.6 54.75 18.9 53.45 19.45 54.4 20.4 54.5 20.55 56.4 18.15 56.3 M19.0 51.7 Q19.95 50.25 21.25 50.2 22.55 51.1 21.75 52.4 19.95 53.25 19.0 51.7 M21.8 59.05 Q22.8 59.75 22.25 60.85 20.65 61.6 20.45 60.05 20.85 59.15 21.8 59.05 M24.55 57.4 Q26.0 58.0 26.65 57.4 27.2 58.3 26.45 59.05 25.05 59.25 24.55 57.4 M29.35 58.85 L28.85 58.3 29.35 58.85" fill="#808080" fill-rule="evenodd" stroke="none"/>
      <path d="M24.65 52.8 Q25.75 54.3 27.05 53.25 27.2 52.8 26.75 52.2 L26.3 51.7 Q28.2 51.6 28.05 53.8 L27.6 54.6 27.15 54.85 25.9 54.9 27.15 54.85 29.0 56.25 Q28.65 56.0 28.7 57.15 L28.85 58.3 Q27.65 58.4 28.55 60.45 L27.45 59.4 27.8 60.9 Q27.85 63.7 26.2 65.95 L26.4 68.05 Q25.65 67.7 25.5 69.6 L25.35 71.55 Q25.25 70.5 24.3 69.2 23.3 67.8 22.6 68.05 22.9 67.5 23.35 67.5 L20.75 67.5 Q25.3 66.5 26.05 64.2 26.3 63.4 26.0 62.75 25.65 62.1 25.2 62.2 L26.8 60.15 25.6 60.3 26.8 60.15 25.2 62.2 24.6 63.15 Q24.3 61.3 22.25 63.25 L24.0 61.55 Q25.35 60.4 25.6 60.3 24.45 59.95 24.45 58.8 L24.0 59.2 23.15 59.65 Q22.55 59.2 21.8 59.05 21.5 58.6 21.8 57.35 L24.55 57.4 Q26.95 57.5 25.9 54.9 L24.9 54.15 Q24.7 55.15 23.75 56.0 24.8 53.85 22.95 53.25 L23.1 52.35 22.95 53.25 Q22.7 54.1 21.7 54.65 L21.65 54.65 21.45 55.95 Q21.2 57.05 20.8 57.2 L21.8 57.35 Q21.5 58.6 21.8 59.05 22.55 59.2 23.15 59.65 23.75 60.95 22.4 62.2 21.2 62.15 20.65 61.5 L18.6 63.1 Q19.3 61.35 18.5 61.2 L19.4 60.35 Q19.9 60.05 20.45 60.05 20.35 60.95 20.65 61.5 20.35 60.95 20.45 60.05 19.9 60.05 19.4 60.35 20.3 58.25 18.95 58.5 19.5 57.9 20.8 57.2 18.65 57.85 18.15 56.3 20.55 56.4 20.4 54.5 L21.65 54.65 20.4 54.5 Q19.45 54.4 18.9 53.45 18.45 52.55 19.0 51.7 19.95 53.25 21.75 52.4 22.55 51.1 21.25 50.2 22.4 50.2 23.1 52.35 24.05 51.7 24.65 52.8 L24.9 54.15 24.65 52.8 M20.45 60.05 Q20.65 61.6 22.25 60.85 22.8 59.75 21.8 59.05 20.85 59.15 20.45 60.05 M24.55 57.4 L24.45 58.8 24.55 57.4 Q25.05 59.25 26.45 59.05 27.2 58.3 26.65 57.4 26.0 58.0 24.55 57.4 M27.15 54.85 Q27.6 55.7 27.35 56.5 27.35 57.15 26.65 57.4 27.35 57.15 27.35 56.5 27.6 55.7 27.15 54.85 M26.8 60.15 L27.45 59.4 26.8 60.15 M27.45 59.4 Q27.85 58.2 26.65 57.4 27.85 58.2 27.45 59.4 M27.35 56.5 L28.85 58.3 27.35 56.5 M26.2 65.95 Q25.7 66.55 25.0 66.95 L23.35 67.5 25.0 66.95 Q25.7 66.55 26.2 65.95 M25.0 66.95 Q25.45 68.25 25.5 69.6 25.45 68.25 25.0 66.95" fill="#5f5d5d" fill-rule="evenodd" stroke="none"/>
      <path d="M22.25 63.25 L22.4 62.2 Q23.75 60.95 23.15 59.65 L24.0 59.2 24.45 58.8 Q24.45 59.95 25.6 60.3 25.35 60.4 24.0 61.55 L22.25 63.25 M21.7 54.65 L22.2 55.25 Q22.75 55.85 23.75 56.0 L24.55 57.4 21.8 57.35 20.8 57.2 Q21.2 57.05 21.45 55.95 L21.65 54.65 21.7 54.65" fill="#2e2d2d" fill-rule="evenodd" stroke="none"/>
      <path d="M26.3 51.7 L25.5 52.0 Q24.7 52.4 24.65 52.8 24.05 51.7 23.1 52.35 L22.95 53.25 M23.75 56.0 Q24.7 55.15 24.9 54.15 L24.65 52.8 M27.15 54.85 L27.6 54.6 28.05 53.8 Q28.2 51.6 26.3 51.7 M25.9 54.9 L27.15 54.85 29.0 56.25 Q30.65 58.25 30.15 62.45 L28.55 60.45 27.45 59.4 27.8 60.9 Q27.85 63.7 26.2 65.95 L26.4 68.05 Q26.4 73.9 24.15 77.55 23.15 73.75 23.25 72.1 23.3 71.3 24.1 69.3 23.3 70.3 21.9 70.7 22.1 68.8 22.6 68.05 22.9 67.5 23.35 67.5 L20.75 67.5 Q21.05 65.0 22.25 63.25 M22.4 62.2 Q21.2 62.15 20.65 61.5 L18.6 63.1 17.35 64.2 Q16.8 62.45 17.5 60.7 18.0 59.45 18.95 58.5 19.5 57.9 20.8 57.2 18.65 57.85 18.15 56.3 17.6 54.75 18.9 53.45 18.45 52.55 19.0 51.7 19.95 50.25 21.25 50.2 22.4 50.2 23.1 52.35 M21.8 57.35 L24.55 57.4 23.75 56.0 Q22.75 55.85 22.2 55.25 L21.7 54.65 21.65 54.65 21.45 55.95 Q21.2 57.05 20.8 57.2 L21.8 57.35 Q21.5 58.6 21.8 59.05 22.55 59.2 23.15 59.65 23.75 60.95 22.4 62.2 M25.9 54.9 L24.9 54.15 M21.65 54.65 L20.4 54.5 M21.7 54.65 Q22.7 54.1 22.95 53.25 M20.65 61.5 Q20.35 60.95 20.45 60.05 19.9 60.05 19.4 60.35 L18.5 61.2 M21.8 59.05 Q20.85 59.15 20.45 60.05 M23.15 59.65 L24.0 59.2 24.45 58.8 24.55 57.4 Q26.0 58.0 26.65 57.4 27.35 57.15 27.35 56.5 27.6 55.7 27.15 54.85 M28.85 58.3 L29.35 58.85 M25.2 62.2 L26.8 60.15 25.6 60.3 Q25.35 60.4 24.0 61.55 L22.25 63.25 M24.6 63.15 L25.2 62.2 M27.45 59.4 L26.8 60.15 M28.85 58.3 L27.35 56.5 M26.65 57.4 Q27.85 58.2 27.45 59.4 M25.6 60.3 Q24.45 59.95 24.45 58.8 M23.35 67.5 L25.0 66.95 Q25.7 66.55 26.2 65.95 M25.35 71.55 L25.5 69.6 Q25.45 68.25 25.0 66.95 M18.9 53.45 Q19.45 54.4 20.4 54.5" fill="none" stroke="#000000" stroke-linecap="round" stroke-linejoin="round" stroke-opacity="0.3019608" stroke-width="0.30000000000000004"/>
      <path d="M26.3 15.7 L27.15 13.65 Q27.85 14.05 27.15 16.4 L26.1 18.95 24.35 20.55 26.1 18.95 26.95 18.45 28.9 17.7 Q31.1 16.9 32.25 16.7 33.45 16.65 33.3 17.35 31.85 17.95 29.35 19.6 26.9 21.2 26.65 21.7 L28.0 21.65 28.65 21.7 29.8 22.2 Q31.0 22.85 31.35 23.45 L31.3 24.15 Q30.65 23.5 28.7 22.85 26.6 22.1 25.6 22.35 24.75 22.55 23.9 23.6 L23.2 24.6 Q24.85 22.8 27.45 23.9 28.05 24.15 28.7 24.55 29.85 27.2 27.8 28.75 27.9 26.45 26.65 25.4 L23.75 25.5 Q22.85 26.15 22.75 27.6 22.65 28.85 23.15 29.7 L23.9 29.4 Q24.4 29.8 25.8 30.6 26.8 31.45 26.0 32.65 24.6 34.7 22.0 33.45 19.4 32.15 19.9 29.55 L19.95 27.15 20.15 23.95 21.95 21.6 Q23.9 17.5 23.3 16.65 L22.15 16.55 23.3 16.65 21.55 20.15 20.05 22.65 Q19.25 27.85 18.65 29.25 17.95 30.8 16.5 30.6 13.0 28.0 15.4 22.5 16.2 21.4 17.0 19.2 16.85 16.2 17.35 15.8 18.4 17.6 17.6 20.45 L16.35 23.65 17.35 22.15 22.15 16.55 Q23.55 14.85 22.6 12.0 21.35 8.15 21.65 7.1 L22.3 6.65 Q25.8 10.8 24.95 15.65 L24.0 18.55 25.35 17.05 26.3 15.7 M21.55 28.55 L20.65 29.0 19.9 29.55 20.65 29.0 21.55 28.55 M17.7 27.25 Q17.9 21.05 20.05 22.65 17.9 21.05 17.7 27.25 M23.2 24.6 Q22.6 25.2 22.15 26.2 22.6 25.2 23.2 24.6 M24.8 32.4 Q22.9 32.2 22.8 31.05 22.65 30.2 23.15 29.7 22.65 30.2 22.8 31.05 22.9 32.2 24.8 32.4" fill="#808080" fill-rule="evenodd" stroke="none"/>
      <path d="M22.3 6.65 Q22.65 6.3 23.35 7.0 26.0 9.7 26.3 15.7 L25.35 17.05 24.0 18.55 24.95 15.65 Q25.8 10.8 22.3 6.65 M27.15 13.65 Q28.85 14.6 28.6 16.15 28.5 16.9 26.95 18.45 L26.1 18.95 27.15 16.4 Q27.85 14.05 27.15 13.65 M33.3 17.35 L32.25 18.8 29.85 20.3 28.0 21.65 26.65 21.7 Q26.9 21.2 29.35 19.6 31.85 17.95 33.3 17.35 M31.3 24.15 Q30.85 24.75 28.7 24.55 28.05 24.15 27.45 23.9 24.85 22.8 23.2 24.6 L23.9 23.6 Q24.75 22.55 25.6 22.35 26.6 22.1 28.7 22.85 30.65 23.5 31.3 24.15 M27.8 28.75 Q27.35 26.2 25.85 26.2 24.65 26.2 24.1 27.3 23.55 28.3 23.9 29.4 26.8 29.5 27.35 31.9 27.95 34.25 24.8 34.95 22.7 35.4 21.3 34.65 L19.6 33.0 Q17.0 34.45 14.7 31.7 12.55 29.2 13.7 25.7 14.3 23.85 15.4 22.5 13.0 28.0 16.5 30.6 17.95 30.8 18.65 29.25 19.25 27.85 20.05 22.65 L21.55 20.15 23.3 16.65 Q23.9 17.5 21.95 21.6 L20.15 23.95 19.95 27.15 19.9 29.55 Q19.55 30.1 19.3 30.95 19.0 32.25 19.6 33.0 19.0 32.25 19.3 30.95 19.55 30.1 19.9 29.55 19.4 32.15 22.0 33.45 24.6 34.7 26.0 32.65 26.8 31.45 25.8 30.6 24.4 29.8 23.9 29.4 L23.15 29.7 Q22.65 28.85 22.75 27.6 22.85 26.15 23.75 25.5 L26.65 25.4 Q27.9 26.45 27.8 28.75 M17.35 15.8 Q17.6 15.55 18.05 16.1 19.5 18.55 17.95 21.3 L17.35 22.15 16.35 23.65 17.6 20.45 Q18.4 17.6 17.35 15.8 M20.15 23.95 L20.05 22.65 20.15 23.95" fill="#5f5d5d" fill-rule="evenodd" stroke="none"/>
      <path d="M22.3 6.65 Q22.65 6.3 23.35 7.0 26.0 9.7 26.3 15.7 L27.15 13.65 Q28.85 14.6 28.6 16.15 28.5 16.9 26.95 18.45 L28.9 17.7 Q31.1 16.9 32.25 16.7 33.45 16.65 33.3 17.35 L32.25 18.8 29.85 20.3 28.0 21.65 28.65 21.7 29.8 22.2 Q31.0 22.85 31.35 23.45 L31.3 24.15 Q30.85 24.75 28.7 24.55 29.85 27.2 27.8 28.75 27.35 26.2 25.85 26.2 24.65 26.2 24.1 27.3 23.55 28.3 23.9 29.4 26.8 29.5 27.35 31.9 27.95 34.25 24.8 34.95 22.7 35.4 21.3 34.65 L19.6 33.0 Q17.0 34.45 14.7 31.7 12.55 29.2 13.7 25.7 14.3 23.85 15.4 22.5 16.2 21.4 17.0 19.2 16.85 16.2 17.35 15.8 17.6 15.55 18.05 16.1 19.5 18.55 17.95 21.3 L17.35 22.15 22.15 16.55 Q23.55 14.85 22.6 12.0 21.35 8.15 21.65 7.1 L22.3 6.65 M24.0 18.55 L25.35 17.05 26.3 15.7 M22.15 16.55 L23.3 16.65 Q23.9 17.5 21.95 21.6 L20.15 23.95 19.95 27.15 M19.9 29.55 L20.65 29.0 21.55 28.55 M26.65 21.7 L28.0 21.65 M23.2 24.6 Q24.85 22.8 27.45 23.9 28.05 24.15 28.7 24.55 M26.1 18.95 L24.35 20.55 M26.1 18.95 L26.95 18.45 M20.05 22.65 L20.15 23.95 M20.05 22.65 Q17.9 21.05 17.7 27.25 M19.9 29.55 Q19.55 30.1 19.3 30.95 19.0 32.25 19.6 33.0 M23.15 29.7 L23.9 29.4 M23.15 29.7 Q22.65 30.2 22.8 31.05 22.9 32.2 24.8 32.4 M22.15 26.2 Q22.6 25.2 23.2 24.6" fill="none" stroke="#000000" stroke-linecap="round" stroke-linejoin="round" stroke-opacity="0.3019608" stroke-width="0.30000000000000004"/>
    </g>
    <linearGradient gradientTransform="matrix(-1.0E-4, -0.0408, 0.0535, -2.0E-4, 52.55, 56.5)" gradientUnits="userSpaceOnUse" id="decoration96-gradient1" spreadMethod="pad" x1="-819.2" x2="819.2">
      <stop offset="0.0392156862745098" stop-color="#808080"/>
      <stop offset="1.0" stop-color="#4f4d4d"/>
    </linearGradient>
    <linearGradient gradientTransform="matrix(0.0, 0.0226, -0.0189, 0.0, 47.3, 24.55)" gradientUnits="userSpaceOnUse" id="decoration96-gradient2" spreadMethod="pad" x1="-819.2" x2="819.2">
      <stop offset="0.0" stop-color="#808080"/>
      <stop offset="1.0" stop-color="#4f4d4d"/>
    </linearGradient>
    <linearGradient gradientTransform="matrix(-0.0013, -0.0142, 0.0288, -0.0021, 21.95, 93.8)" gradientUnits="userSpaceOnUse" id="decoration96-gradient3" spreadMethod="pad" x1="-819.2" x2="819.2">
      <stop offset="0.0" stop-color="#585454"/>
      <stop offset="0.984313725490196" stop-color="#747474" stop-opacity="0.0"/>
    </linearGradient>
    <linearGradient gradientTransform="matrix(0.0046, -0.0123, 0.0206, 0.0077, 23.4, 83.85)" gradientUnits="userSpaceOnUse" id="decoration96-gradient4" spreadMethod="pad" x1="-819.2" x2="819.2">
      <stop offset="0.0" stop-color="#000000" stop-opacity="0.3019608"/>
      <stop offset="1.0" stop-color="#000000" stop-opacity="0.0"/>
    </linearGradient>
    <g id="decoration96-shape2" transform="matrix(1.0, 0.0, 0.0, 1.0, 52.15, 84.8)">
      <path d="M-35.8 -76.7 L-36.3 -78.1 -34.35 -77.6 Q-34.35 -77.4 -34.9 -77.05 -35.5 -76.7 -35.8 -76.7 M-25.05 -78.2 L-20.75 -76.2 -20.75 -75.3 -21.45 -74.35 Q-24.6 -70.55 -29.35 -72.0 L-31.5 -74.0 -28.9 -77.35 -25.05 -78.2 M-9.1 -67.95 Q-7.9 -68.8 -6.75 -69.7 L-3.4 -69.75 -2.8 -67.1 -5.1 -65.4 -6.2 -66.55 -9.1 -67.95 M-34.85 -51.35 Q-32.95 -54.55 -32.5 -58.25 L-32.4 -60.0 -29.0 -60.0 -25.2 -59.85 -29.75 -55.55 -28.05 -54.45 -29.8 -46.4 -31.75 -49.55 -32.75 -48.75 -33.4 -50.55 -34.85 -51.35" fill="#000000" fill-opacity="0.019607844" fill-rule="evenodd" stroke="none"/>
      <path d="M-45.35 -42.75 Q-44.9 -42.75 -44.55 -42.2 L-44.25 -40.95 -45.75 -41.95 -45.35 -42.75" fill="#000000" fill-opacity="0.050980393" fill-rule="evenodd" stroke="none"/>
      <path d="M-2.8 -67.1 L1.7 -66.9 Q2.0 -66.95 2.6 -67.45 L3.3 -68.1 3.1 -69.95 M2.2 -63.95 L2.65 -65.35 1.7 -66.9 M-6.75 -84.8 L-5.75 -82.45 -8.5 -81.3 M-20.75 -75.3 L-13.3 -76.8 -14.35 -79.25 -13.6 -79.7 -13.6 -81.35 -18.3 -82.6 Q-22.5 -83.8 -23.0 -84.25 L-32.8 -82.7 -36.3 -81.15 M-36.3 -78.1 L-39.2 -77.15 M-35.8 -76.7 L-36.3 -78.1 Q-37.05 -79.7 -37.75 -80.65 -41.5 -80.9 -44.4 -83.4 L-52.15 -82.3 M-31.5 -74.0 L-34.35 -74.2 -37.05 -74.5 -35.8 -76.7 Q-35.5 -76.7 -34.9 -77.05 -34.35 -77.4 -34.35 -77.6 L-36.3 -78.1 M-37.85 -84.65 L-32.8 -82.7 M-22.55 -80.4 Q-22.8 -79.85 -23.85 -79.0 L-25.05 -78.2 -20.75 -76.2 -20.75 -75.3 -21.45 -74.35 Q-24.6 -70.55 -29.35 -72.0 -32.0 -67.85 -36.15 -65.35 L-38.25 -64.05 M-25.05 -78.2 L-28.9 -77.35 -31.5 -74.0 -29.35 -72.0 M-28.9 -77.35 L-34.35 -77.6 M-29.0 -60.0 L-29.1 -60.95 -23.7 -65.1 -22.55 -63.8 Q-18.65 -67.55 -13.2 -67.65 L-11.9 -67.65 -9.1 -67.95 Q-7.9 -68.8 -6.75 -69.7 L-3.4 -69.75 -2.8 -67.1 -5.1 -65.4 -2.15 -63.65 M-34.85 -51.35 Q-32.95 -54.55 -32.5 -58.25 L-32.4 -60.0 -29.0 -60.0 -25.2 -59.85 -23.4 -61.65 -22.55 -63.8 M-34.85 -51.35 L-35.45 -49.65 -40.4 -53.05 -46.3 -49.0 Q-45.85 -48.25 -45.75 -46.45 L-45.75 -44.5 -45.35 -42.75 Q-44.9 -42.75 -44.55 -42.2 L-44.25 -40.95 -43.15 -41.7 Q-42.1 -42.5 -42.1 -42.8 M-25.2 -59.85 L-29.75 -55.55 -28.05 -54.45 -29.8 -46.4 -31.75 -49.55 -32.75 -48.75 -33.4 -50.55 -34.85 -51.35 M-13.3 -76.8 Q-12.05 -74.5 -9.55 -73.95 L-8.35 -73.95 M-9.1 -67.95 L-6.2 -66.55 -5.1 -65.4 M-6.2 -66.55 L-8.55 -65.45 -8.0 -64.25 -5.3 -63.1 M-11.9 -67.65 L-16.3 -65.05 -15.6 -63.75 -13.45 -63.2 -12.15 -64.25 -7.3 -63.0 M-23.4 -61.65 L-15.6 -63.75 M-47.5 -80.85 L-43.7 -77.6 -48.7 -75.35 M-44.4 -83.4 L-46.75 -84.5 M-48.5 -54.3 L-47.7 -51.3 Q-44.4 -52.75 -45.45 -56.2 L-45.9 -57.15 -45.4 -59.4 -44.15 -59.4 -43.3 -61.95 M-45.75 -44.5 L-48.45 -45.6 M-48.7 -30.85 L-43.25 -31.05 Q-44.0 -34.65 -41.6 -37.6 L-42.8 -37.3 Q-45.3 -36.7 -47.15 -38.75 -46.85 -39.1 -46.3 -40.55 L-45.75 -41.95 -45.35 -42.75 M-44.25 -40.95 L-45.25 -38.45 -47.15 -38.75 M-44.25 -40.95 L-45.75 -41.95 M-48.85 -14.85 L-45.8 -12.95 -42.0 -16.85 -35.6 -18.5 -32.9 -21.3 M-39.95 1.3 Q-38.9 -0.35 -39.15 -2.4 L-39.3 -3.4 -40.6 -5.65 -43.75 -3.5 -47.25 -4.35 -49.05 -4.6 -50.6 -4.7 M-40.6 -5.65 L-41.9 -9.15 M-45.8 -12.95 L-47.25 -4.35 M-48.5 -25.1 Q-48.2 -20.95 -44.5 -19.25 M-43.25 -31.05 Q-43.15 -26.5 -39.2 -24.25 L-38.3 -23.75 Q-37.55 -25.85 -38.05 -28.0 L-38.35 -29.2 -35.2 -30.75 Q-34.85 -33.75 -37.1 -35.8 L-38.0 -36.55 Q-34.2 -37.85 -32.95 -42.3 L-32.45 -43.3 -28.95 -39.55 M-28.8 -28.3 L-32.6 -35.0 -32.3 -36.2 -29.1 -35.15 M-32.65 -31.15 L-35.2 -30.75 M-28.65 -27.85 L-32.55 -21.75 -29.0 -15.3 -29.4 -15.1 -30.25 -14.5 Q-31.4 -13.4 -31.55 -11.8 M-38.3 -23.75 L-39.1 -21.35 -40.45 -20.75 M-35.6 -18.5 Q-34.05 -14.0 -34.9 -9.45 L-35.35 -7.35 -31.25 -3.6 -29.55 -5.25 -29.2 -10.95 M-35.35 -7.35 L-39.3 -3.4 M-29.95 -1.3 L-29.55 -5.25 M-47.7 -51.3 L-46.3 -49.0" fill="none" stroke="#000000" stroke-linecap="round" stroke-linejoin="round" stroke-opacity="0.101960786" stroke-width="0.05"/>
      <path d="M5.1 -63.8 L-3.35 -63.4 Q-28.3 -61.6 -28.8 -50.85 L-28.8 -13.45 -27.65 -12.1 -27.65 -2.3 -31.55 1.15 -31.55 -9.2 -32.4 -10.65 -32.4 -52.55 Q-31.3 -59.8 -25.6 -62.45 -19.35 -65.4 5.1 -65.5 L5.1 -63.8" fill="url(#decoration96-gradient5)" fill-rule="evenodd" stroke="none"/>
    </g>
    <radialGradient cx="0" cy="0" gradientTransform="matrix(0.0302, 0.0115, -0.0249, 0.0609, -24.6, -30.65)" gradientUnits="userSpaceOnUse" id="decoration96-gradient5" r="819.2" spreadMethod="pad">
      <stop offset="0.0" stop-color="#f35225"/>
      <stop offset="0.21568627450980393" stop-color="#ffe362"/>
      <stop offset="0.5490196078431373" stop-color="#fedb5e" stop-opacity="0.0"/>
    </radialGradient>
    <g id="decoration96-shape3" transform="matrix(1.0, 0.0, 0.0, 1.0, 34.5, 84.95)">
      <path d="M42.7 -77.6 Q42.9 -78.45 44.65 -78.1 45.55 -77.35 45.25 -76.8 45.0 -76.25 44.15 -76.7 42.55 -76.8 42.7 -77.6 M37.25 -77.35 L39.85 -74.0 Q39.4 -72.75 37.7 -72.0 L36.4 -71.55 Q33.55 -70.8 29.1 -75.3 28.95 -76.45 29.55 -76.7 31.4 -77.65 33.4 -78.2 L37.25 -77.35 M40.55 -58.35 Q40.45 -57.5 41.25 -55.65 L43.2 -51.35 41.75 -50.55 41.1 -48.75 40.65 -49.6 40.1 -49.55 38.15 -46.4 37.6 -47.75 Q37.3 -52.65 36.4 -54.45 L38.1 -55.55 33.55 -59.85 37.35 -60.0 40.75 -60.0 40.55 -58.35 M11.75 -69.75 L15.1 -69.7 Q16.3 -68.7 17.45 -67.95 16.7 -67.45 14.6 -66.6 L14.55 -66.55 Q13.6 -66.15 13.45 -65.4 L11.15 -67.1 11.0 -67.6 10.85 -68.4 Q10.85 -68.75 11.2 -69.15 L11.75 -69.75" fill="#000000" fill-opacity="0.019607844" fill-rule="evenodd" stroke="none"/>
      <path d="M54.1 -41.95 L52.6 -40.95 Q52.4 -42.3 53.7 -42.75 L54.1 -41.95 M52.05 -18.85 Q52.2 -18.2 50.35 -17.8 L50.35 -18.65 52.05 -18.85 M48.8 -20.75 Q50.65 -21.2 51.45 -19.65 L49.9 -19.85 48.8 -20.75" fill="#000000" fill-opacity="0.050980393" fill-rule="evenodd" stroke="none"/>
      <path d="M44.65 -78.1 Q44.85 -79.1 45.5 -79.95 L46.1 -80.65 49.2 -81.25 Q49.75 -81.35 52.75 -83.4 L53.8 -83.95 55.1 -84.5 M46.2 -84.65 Q44.95 -83.85 43.5 -83.7 42.2 -83.45 41.15 -82.7 L44.65 -81.15 M42.7 -77.6 Q42.9 -78.45 44.65 -78.1 L46.05 -77.95 47.55 -77.15 M44.65 -78.1 Q45.55 -77.35 45.25 -76.8 45.0 -76.25 44.15 -76.7 L45.4 -74.5 45.7 -74.3 M39.85 -74.0 Q41.75 -73.35 43.55 -74.7 L45.4 -74.5 M44.15 -76.7 Q42.55 -76.8 42.7 -77.6 L37.25 -77.35 39.85 -74.0 Q39.4 -72.75 37.7 -72.0 38.5 -69.9 41.5 -67.95 L44.85 -65.7 46.6 -64.05 M52.75 -83.4 L60.5 -82.3 M55.85 -80.85 Q54.6 -80.3 54.15 -79.05 L53.3 -78.35 52.05 -77.6 Q52.3 -77.4 54.5 -76.5 L57.05 -75.35 M52.05 -77.6 Q51.0 -77.05 49.95 -76.75 M43.2 -51.35 L43.8 -49.65 46.25 -51.3 48.75 -53.05 54.65 -49.0 56.05 -51.3 54.35 -52.85 Q53.05 -54.2 52.9 -55.35 52.8 -56.15 53.85 -56.65 54.75 -57.05 53.9 -59.35 L52.5 -59.4 Q53.1 -61.15 51.65 -61.95 M40.55 -58.35 L40.75 -60.0 37.35 -60.0 33.55 -59.85 38.1 -55.55 36.4 -54.45 Q37.3 -52.65 37.6 -47.75 L38.15 -46.4 40.1 -49.55 40.65 -49.6 41.1 -48.75 41.75 -50.55 43.2 -51.35 41.25 -55.65 Q40.45 -57.5 40.55 -58.35 M46.25 -51.3 Q47.1 -51.2 47.9 -49.95 M56.85 -54.3 L56.05 -51.3 M41.15 -82.7 Q40.6 -83.15 38.75 -83.5 L36.4 -83.65 Q33.75 -83.05 31.35 -84.25 30.6 -82.85 29.1 -82.75 L26.55 -82.9 25.4 -81.85 Q24.25 -80.9 21.95 -81.35 L21.95 -79.7 22.7 -79.25 21.65 -76.8 23.2 -76.9 Q27.05 -75.45 29.1 -75.3 28.95 -76.45 29.55 -76.7 31.4 -77.65 33.4 -78.2 L32.9 -78.35 Q31.5 -79.05 30.9 -80.4 M26.65 -84.95 Q26.25 -84.6 26.2 -84.25 26.1 -83.45 26.55 -82.9 M31.35 -84.25 L31.9 -84.6 32.65 -84.8 M33.4 -78.2 L37.25 -77.35 M15.1 -84.8 L13.95 -82.8 Q14.3 -82.1 15.1 -81.85 L16.5 -81.45 16.85 -81.3 M11.75 -69.75 L11.2 -69.15 Q10.85 -68.75 10.85 -68.4 L11.0 -67.6 11.15 -67.1 13.45 -65.4 Q13.6 -66.15 14.55 -66.55 L14.6 -66.6 Q16.7 -67.45 17.45 -67.95 16.3 -68.7 15.1 -69.7 L11.75 -69.75 M10.5 -63.65 L13.45 -65.4 M14.55 -66.55 L16.8 -65.8 Q17.0 -65.6 16.8 -64.95 L16.35 -64.25 Q15.8 -63.9 15.2 -63.95 14.5 -63.95 13.65 -63.1 M15.65 -63.0 L20.5 -64.25 21.8 -63.2 23.95 -63.75 23.95 -63.85 24.4 -64.5 24.7 -65.3 22.5 -66.55 20.25 -67.65 18.8 -67.35 Q18.35 -67.35 17.45 -67.95 M5.95 -63.8 L6.5 -63.85 6.65 -64.25 6.15 -64.8 5.75 -65.5 6.2 -66.4 6.65 -66.9 5.55 -67.65 Q4.65 -68.6 5.25 -69.95 M11.15 -67.1 L7.45 -67.2 6.65 -66.9 M37.35 -60.0 Q38.55 -61.25 34.35 -63.2 31.55 -66.7 30.9 -63.8 L31.75 -61.65 33.55 -59.85 M29.1 -75.3 Q33.55 -70.8 36.4 -71.55 L37.7 -72.0 M30.9 -63.8 Q27.5 -67.2 23.45 -68.15 L20.25 -67.65 M31.75 -61.65 L23.95 -63.75 M21.65 -76.8 Q21.0 -74.4 16.7 -73.95 M39.9 -11.8 Q39.9 -13.25 39.15 -14.25 38.4 -15.3 37.35 -15.3 L37.0 -14.6 M38.3 -1.3 L37.9 -5.25 37.7 -8.95 37.1 -9.35 36.3 -9.8 M48.3 1.3 L47.2 -1.0 Q47.35 -2.6 47.65 -3.4 L45.1 -6.05 43.7 -7.35 39.6 -3.6 37.9 -5.25 M37.7 -8.95 L37.55 -10.95 M54.65 -49.0 Q53.4 -48.3 53.9 -47.0 54.25 -45.4 54.1 -44.5 54.95 -44.75 55.2 -43.4 L56.8 -45.6 M49.2 -37.4 L49.95 -37.6 Q53.1 -37.2 54.35 -37.6 55.45 -37.95 55.5 -38.75 52.5 -37.55 52.6 -40.95 51.45 -40.45 50.45 -42.8 M55.5 -38.8 Q56.65 -39.6 55.3 -41.9 L54.1 -41.95 Q53.5 -40.6 55.5 -38.75 L55.5 -38.8 M54.1 -41.95 L53.7 -42.75 Q52.4 -42.3 52.6 -40.95 L54.1 -41.95 M54.1 -44.5 L53.7 -42.75 M55.2 -43.4 L55.3 -41.9 M41.0 -31.15 L43.55 -30.75 Q42.85 -32.75 44.3 -34.7 45.4 -36.2 46.35 -36.55 44.3 -36.1 43.35 -39.45 42.35 -42.85 40.8 -43.3 L37.3 -39.55 M37.15 -28.3 L40.95 -35.0 40.65 -36.2 37.45 -35.15 M43.55 -30.75 Q44.1 -30.85 45.35 -30.15 L46.7 -29.2 46.5 -27.05 Q46.1 -25.05 46.35 -24.25 L46.65 -23.75 Q49.3 -24.5 50.45 -27.0 51.25 -28.75 51.6 -31.05 L51.85 -33.75 Q51.95 -34.1 51.25 -35.55 L49.95 -37.6 M47.5 -36.95 L46.35 -36.55 M57.05 -30.85 L53.75 -31.1 52.6 -30.95 51.6 -31.05 M55.5 -38.75 L56.9 -36.9 M56.85 -25.1 Q55.75 -21.5 54.85 -20.2 53.8 -18.75 52.05 -18.9 L52.05 -18.85 Q52.2 -18.2 50.35 -17.8 L50.35 -16.85 54.15 -12.95 57.2 -14.85 M51.45 -19.65 Q52.5 -19.4 52.05 -18.9 M46.65 -23.75 Q47.65 -23.2 47.55 -22.05 L47.45 -21.35 48.8 -20.75 Q50.65 -21.2 51.45 -19.65 L49.9 -19.85 48.8 -20.75 M50.35 -16.85 L44.3 -18.85 44.3 -18.5 43.95 -18.5 43.0 -14.45 Q42.4 -11.95 42.7 -9.4 42.8 -8.75 43.7 -7.35 M43.95 -18.5 L43.15 -18.5 41.25 -21.3 M44.3 -18.85 L43.95 -18.5 M52.05 -18.85 L50.35 -18.65 50.35 -17.8 M58.95 -4.7 L57.7 -4.95 55.6 -4.35 51.9 -3.5 48.95 -5.65 Q48.05 -4.65 47.65 -3.4 M48.95 -5.65 L50.25 -9.15 M54.15 -12.95 L55.6 -4.35 M37.35 -15.3 L40.9 -21.75 37.0 -27.85" fill="none" stroke="#000000" stroke-linecap="round" stroke-linejoin="round" stroke-opacity="0.101960786" stroke-width="0.05"/>
      <path d="M37.15 -50.85 Q36.65 -61.6 11.7 -63.4 L3.25 -63.8 3.25 -65.5 Q27.7 -65.4 33.95 -62.45 39.65 -59.8 40.75 -52.55 L40.75 -10.65 39.9 -9.2 39.9 1.15 36.0 -2.3 36.0 -12.1 37.15 -13.45 37.15 -50.85" fill="url(#decoration96-gradient6)" fill-rule="evenodd" stroke="none"/>
      <path d="M38.25 -26.9 Q38.25 -15.4 27.65 -7.2 17.1 0.8 2.0 0.8 -13.35 0.8 -23.95 -7.2 -34.5 -15.4 -34.5 -26.9 -34.5 -38.45 -23.95 -46.5 -13.35 -54.65 2.0 -54.65 17.1 -54.65 27.65 -46.5 38.25 -38.45 38.25 -26.9" fill="url(#decoration96-gradient7)" fill-rule="evenodd" stroke="none"/>
      <path d="M-13.85 -9.8 L0.95 -11.2 Q4.6 -10.65 4.8 -7.4 5.0 -4.15 2.3 -3.3 L-12.55 -0.8 Q-11.7 -1.05 -11.05 -2.25 -10.35 -3.7 -10.45 -5.5 -10.7 -7.45 -11.7 -8.65 -12.7 -9.85 -13.85 -9.8 M2.3 -7.9 L-8.65 -6.75 2.3 -7.9 M2.5 -5.65 L-1.75 -4.95 2.5 -5.65 M-2.8 -9.65 L-8.4 -8.8 -2.8 -9.65" fill="#3a2711" fill-rule="evenodd" stroke="none"/>
      <path d="M-12.55 -0.8 L-13.0 -0.65 -13.05 -0.65 Q-14.25 -0.6 -15.25 -1.8 -16.3 -3.05 -16.5 -4.95 -16.7 -6.85 -15.9 -8.25 -15.2 -9.65 -13.95 -9.75 L-13.85 -9.8 Q-12.7 -9.85 -11.7 -8.65 -10.7 -7.45 -10.45 -5.5 -10.35 -3.7 -11.05 -2.25 -11.7 -1.05 -12.55 -0.8 M-13.4 -4.55 Q-13.2 -5.45 -14.05 -5.5 L-14.15 -4.95 -13.8 -3.75 Q-13.35 -2.7 -12.85 -2.7 L-12.6 -2.9 -12.5 -3.75 Q-12.5 -7.15 -13.8 -7.15 -14.25 -7.15 -14.65 -6.6 -15.15 -5.85 -15.15 -4.45 -15.15 -3.05 -14.5 -2.0 -13.9 -1.0 -13.1 -0.7 L-13.05 -0.65 -13.1 -0.7 Q-13.9 -1.0 -14.5 -2.0 -15.15 -3.05 -15.15 -4.45 -15.15 -5.85 -14.65 -6.6 -14.25 -7.15 -13.8 -7.15 -12.5 -7.15 -12.5 -3.75 L-12.6 -2.9 -12.85 -2.7 Q-13.35 -2.7 -13.8 -3.75 L-14.15 -4.95 -14.05 -5.5 Q-13.2 -5.45 -13.4 -4.55" fill="#77542d" fill-rule="evenodd" stroke="none"/>
      <path d="M-13.85 -9.8 L0.95 -11.2 Q4.6 -10.65 4.8 -7.4 5.0 -4.15 2.3 -3.3 L-12.55 -0.8 -13.0 -0.65 -13.05 -0.65 Q-14.25 -0.6 -15.25 -1.8 -16.3 -3.05 -16.5 -4.95 -16.7 -6.85 -15.9 -8.25 -15.2 -9.65 -13.95 -9.75 L-13.85 -9.8 Q-12.7 -9.85 -11.7 -8.65 -10.7 -7.45 -10.45 -5.5 -10.35 -3.7 -11.05 -2.25 -11.7 -1.05 -12.55 -0.8 M-13.05 -0.65 L-13.1 -0.7 Q-13.9 -1.0 -14.5 -2.0 -15.15 -3.05 -15.15 -4.45 -15.15 -5.85 -14.65 -6.6 -14.25 -7.15 -13.8 -7.15 -12.5 -7.15 -12.5 -3.75 L-12.6 -2.9 -12.85 -2.7 Q-13.35 -2.7 -13.8 -3.75 L-14.15 -4.95 -14.05 -5.5 Q-13.2 -5.45 -13.4 -4.55 M-8.4 -8.8 L-2.8 -9.65 M-1.75 -4.95 L2.5 -5.65 M-8.65 -6.75 L2.3 -7.9" fill="none" stroke="#000000" stroke-linecap="round" stroke-linejoin="round" stroke-opacity="0.3019608" stroke-width="0.30000000000000004"/>
      <path d="M2.85 -4.85 L6.35 -4.45 2.85 -4.85 M15.35 -1.55 L3.0 -2.95 Q0.75 -3.5 0.9 -6.25 1.1 -8.95 4.1 -9.6 L16.4 -9.05 Q15.4 -9.05 14.6 -8.05 13.8 -6.95 13.6 -5.35 13.45 -3.8 14.05 -2.7 14.6 -1.7 15.35 -1.55 M7.25 -8.45 L11.9 -7.95 7.25 -8.45 M3.0 -6.8 L12.1 -6.3 3.0 -6.8" fill="#3a2711" fill-rule="evenodd" stroke="none"/>
      <path d="M15.35 -1.55 Q14.6 -1.7 14.05 -2.7 13.45 -3.8 13.6 -5.35 13.8 -6.95 14.6 -8.05 15.4 -9.05 16.4 -9.05 L16.45 -9.0 Q17.5 -9.0 18.15 -7.85 18.8 -6.75 18.6 -5.15 18.45 -3.6 17.55 -2.45 16.75 -1.4 15.7 -1.45 L15.35 -1.55 M16.05 -4.75 Q15.85 -5.4 16.55 -5.5 L16.65 -5.05 16.35 -4.05 Q16.0 -3.15 15.6 -3.15 15.35 -3.15 15.35 -3.3 L15.3 -4.05 Q15.3 -6.85 16.4 -6.85 16.75 -6.85 17.1 -6.5 17.45 -5.85 17.45 -4.7 17.45 -3.5 16.9 -2.65 16.45 -1.75 15.8 -1.5 L15.7 -1.45 15.8 -1.5 Q16.45 -1.75 16.9 -2.65 17.45 -3.5 17.45 -4.7 17.45 -5.85 17.1 -6.5 16.75 -6.85 16.4 -6.85 15.3 -6.85 15.3 -4.05 L15.35 -3.3 Q15.35 -3.15 15.6 -3.15 16.0 -3.15 16.35 -4.05 L16.65 -5.05 16.55 -5.5 Q15.85 -5.4 16.05 -4.75" fill="#77542d" fill-rule="evenodd" stroke="none"/>
      <path d="M6.35 -4.45 L2.85 -4.85 M16.4 -9.05 L4.1 -9.6 Q1.1 -8.95 0.9 -6.25 0.75 -3.5 3.0 -2.95 L15.35 -1.55 Q14.6 -1.7 14.05 -2.7 13.45 -3.8 13.6 -5.35 13.8 -6.95 14.6 -8.05 15.4 -9.05 16.4 -9.05 L16.45 -9.0 Q17.5 -9.0 18.15 -7.85 18.8 -6.75 18.6 -5.15 18.45 -3.6 17.55 -2.45 16.75 -1.4 15.7 -1.45 L15.35 -1.55 M15.7 -1.45 L15.8 -1.5 Q16.45 -1.75 16.9 -2.65 17.45 -3.5 17.45 -4.7 17.45 -5.85 17.1 -6.5 16.75 -6.85 16.4 -6.85 15.3 -6.85 15.3 -4.05 L15.35 -3.3 Q15.35 -3.15 15.6 -3.15 16.0 -3.15 16.35 -4.05 L16.65 -5.05 16.55 -5.5 Q15.85 -5.4 16.05 -4.75 M12.1 -6.3 L3.0 -6.8 M11.9 -7.95 L7.25 -8.45" fill="none" stroke="#000000" stroke-linecap="round" stroke-linejoin="round" stroke-opacity="0.3019608" stroke-width="0.30000000000000004"/>
      <path d="M5.0 -49.55 Q4.4 -47.5 7.95 -42.85 7.65 -45.4 10.4 -46.8 12.95 -48.1 12.1 -49.9 14.0 -48.0 11.95 -46.8 10.85 -45.55 10.7 -43.75 10.25 -41.75 11.3 -38.55 L11.7 -37.95 11.75 -37.3 11.55 -35.7 11.4 -34.2 11.4 -33.95 11.65 -33.7 12.3 -35.35 12.65 -36.4 Q14.2 -33.6 14.2 -31.4 L13.95 -28.15 13.6 -26.05 13.6 -25.05 Q14.8 -24.95 16.3 -29.8 17.8 -34.7 21.05 -36.7 18.1 -32.9 18.5 -30.6 L18.85 -27.95 Q18.85 -25.3 16.75 -21.5 14.55 -17.7 14.55 -15.7 14.55 -13.7 14.85 -12.5 L15.2 -11.15 Q15.8 -11.05 16.1 -12.2 16.55 -14.2 17.9 -15.95 L21.25 -19.95 21.35 -20.05 20.85 -17.4 Q20.0 -13.3 20.0 -12.05 20.0 -10.5 20.3 -8.6 L20.5 -8.6 22.6 -9.95 Q24.65 -11.25 25.15 -18.7 26.8 -14.95 25.2 -9.2 24.95 -6.0 21.2 -5.15 L16.1 -3.8 11.95 -3.1 4.05 -4.45 -0.8 -4.0 Q-3.0 -3.75 -4.2 -4.95 -10.05 -5.5 -13.4 -7.0 -18.6 -9.3 -18.6 -14.2 -18.6 -15.35 -18.1 -16.9 L-17.05 -18.05 -16.25 -19.5 Q-15.9 -20.25 -16.15 -21.45 L-17.35 -19.25 -16.9 -21.65 -16.25 -25.1 Q-15.9 -26.75 -21.25 -29.7 -18.55 -29.35 -16.6 -28.2 -14.4 -26.85 -14.4 -24.75 -14.4 -23.95 -14.7 -23.2 L-15.0 -22.15 Q-15.0 -21.45 -13.35 -20.3 L-11.2 -19.0 -12.3 -20.3 Q-12.95 -21.1 -12.95 -22.2 L-11.25 -24.25 -11.05 -23.65 -10.8 -23.15 -9.9 -25.75 Q-8.8 -27.35 -8.6 -29.15 L-8.6 -29.25 Q-7.9 -31.05 -7.9 -31.55 -7.9 -32.6 -9.15 -35.3 L-9.0 -31.6 -10.0 -33.7 Q-11.45 -36.4 -11.45 -38.75 -11.45 -40.15 -10.55 -42.25 L-9.25 -44.9 -9.4 -42.1 Q-9.4 -40.6 -8.4 -38.7 L-7.55 -37.35 -7.15 -38.55 -4.25 -44.75 Q-3.4 -46.45 -3.1 -49.1 L-2.95 -51.3 Q-0.4 -48.55 -2.4 -41.6 -4.1 -35.65 -0.9 -35.2 0.35 -38.65 1.9 -41.15 2.2 -43.65 1.25 -46.1 3.25 -42.5 3.0 -40.15 2.75 -37.6 1.7 -36.15 0.55 -34.65 2.85 -33.05 3.6 -32.55 3.3 -31.2 L0.45 -33.2 Q2.5 -31.7 2.9 -30.2 1.75 -27.9 0.6 -26.65 L5.95 -30.5 Q7.35 -34.95 6.95 -38.1 L8.8 -35.35 Q8.95 -37.1 7.35 -38.8 5.75 -40.55 5.3 -42.05 2.1 -48.9 6.15 -51.7 5.5 -51.05 5.0 -49.55 M-21.25 -29.7 L-19.7 -28.95 -19.7 -29.1 -21.25 -29.7" fill="url(#decoration96-gradient8)" fill-rule="evenodd" stroke="none"/>
      <path d="M23.4 -36.25 L22.8 -32.45 Q22.35 -29.95 21.3 -29.1 L21.3 -28.9 21.2 -29.1 21.15 -30.15 Q21.15 -30.85 22.05 -32.8 23.15 -35.0 23.4 -36.25 M-12.3 -33.5 Q-11.65 -32.75 -11.8 -30.35 L-12.1 -28.1 -12.95 -29.6 -13.6 -31.4 -14.3 -37.8 Q-13.95 -35.25 -12.3 -33.5" fill="url(#decoration96-gradient9)" fill-rule="evenodd" stroke="none"/>
      <path d="M17.4 -46.3 Q16.95 -43.6 17.35 -41.8 17.45 -41.2 17.9 -40.05 L16.85 -41.1 Q16.15 -39.6 16.25 -37.7 16.3 -36.4 16.6 -35.15 16.8 -34.2 16.1 -33.4 L15.3 -36.7 14.3 -39.5 14.1 -37.45 Q13.15 -38.8 13.55 -40.5 13.95 -42.55 15.05 -44.35 14.95 -42.65 15.1 -41.55 L16.25 -45.05 17.95 -48.65 17.4 -46.3" fill="url(#decoration96-gradient10)" fill-rule="evenodd" stroke="none"/>
      <path d="M8.05 -34.4 L8.7 -33.25 Q9.1 -32.6 8.9 -31.9 L8.55 -30.55 7.7 -29.5 7.5 -29.05 Q7.35 -30.15 7.75 -31.35 L8.15 -32.95 8.05 -34.4 M16.0 -16.75 Q15.0 -14.25 16.2 -12.45 17.45 -10.7 17.1 -10.2 L16.8 -9.9 16.75 -9.8 Q15.8 -10.0 15.5 -10.5 15.05 -11.15 15.05 -12.8 15.05 -15.2 16.0 -16.75 M7.85 -28.6 Q7.45 -27.55 6.0 -25.8 L3.35 -22.75 3.35 -20.85 Q4.75 -20.25 5.5 -22.15 L4.15 -19.1 Q2.75 -17.4 2.75 -15.65 L2.85 -14.35 3.25 -12.9 3.45 -14.6 Q3.5 -15.85 4.65 -17.5 4.65 -16.9 4.8 -16.3 5.05 -15.2 5.6 -15.2 L5.55 -16.9 Q5.55 -19.05 6.5 -21.0 7.25 -22.5 9.5 -24.3 11.55 -26.0 11.4 -27.75 11.2 -29.55 10.2 -31.45 L9.6 -32.55 10.85 -30.65 Q12.4 -28.25 12.4 -27.7 12.4 -26.1 10.65 -23.5 8.95 -20.8 9.05 -18.8 6.35 -16.75 8.35 -15.2 L10.6 -19.1 11.0 -16.9 Q11.0 -17.65 13.35 -19.4 15.6 -21.15 17.0 -21.75 L17.15 -21.75 14.1 -17.45 Q12.2 -14.5 12.2 -12.45 12.2 -10.7 13.55 -9.15 14.65 -7.8 16.7 -7.65 18.65 -7.55 19.85 -11.05 L19.85 -10.65 Q19.85 -7.45 18.7 -5.85 16.8 -3.45 11.6 -3.7 L4.3 -3.15 -2.0 -2.45 Q-3.05 -2.45 -6.85 -3.7 -11.4 -5.15 -11.5 -6.5 -11.7 -7.2 -11.4 -8.5 -11.3 -9.7 -12.45 -10.75 L-15.1 -12.75 -15.75 -13.15 Q-13.75 -12.35 -10.35 -11.65 L-10.35 -12.2 -11.0 -14.3 Q-11.7 -16.15 -10.05 -16.5 -8.45 -16.9 -10.35 -19.35 -8.25 -19.8 -7.2 -13.95 L-7.15 -17.15 Q-7.45 -20.5 -9.05 -21.65 L-8.45 -22.55 -7.35 -24.05 Q-6.45 -25.5 -6.05 -27.2 -7.45 -24.25 -8.5 -24.25 -7.3 -24.9 -7.3 -28.85 -7.15 -30.85 -5.55 -32.1 L-3.3 -34.35 -3.75 -33.45 Q-5.6 -29.7 -4.1 -29.25 L-2.45 -29.35 Q-3.4 -26.95 -4.1 -26.0 L-5.0 -24.5 Q-5.15 -23.95 -4.55 -23.2 L-3.25 -21.45 Q-3.75 -22.85 0.75 -24.4 L-0.55 -22.3 Q-0.55 -22.1 0.15 -22.5 L1.6 -23.85 2.65 -25.05 Q7.0 -26.65 7.85 -28.6 M-15.75 -19.5 L-14.6 -18.3 Q-13.8 -17.5 -13.6 -16.6 L-13.3 -14.7 -13.05 -13.95 Q-14.5 -14.7 -15.0 -16.2 L-15.75 -19.5" fill="#fff1b4" fill-opacity="0.85882354" fill-rule="evenodd" stroke="none"/>
    </g>
    <radialGradient cx="0" cy="0" gradientTransform="matrix(-0.0302, 0.0115, 0.0249, 0.0609, 32.95, -30.65)" gradientUnits="userSpaceOnUse" id="decoration96-gradient6" r="819.2" spreadMethod="pad">
      <stop offset="0.0" stop-color="#f35225"/>
      <stop offset="0.21568627450980393" stop-color="#ffe362"/>
      <stop offset="0.5490196078431373" stop-color="#fedb5e" stop-opacity="0.0"/>
    </radialGradient>
    <radialGradient cx="0" cy="0" gradientTransform="matrix(0.0423, 0.0, 0.0, 0.0335, 2.0, -26.9)" gradientUnits="userSpaceOnUse" id="decoration96-gradient7" r="819.2" spreadMethod="pad">
      <stop offset="0.0" stop-color="#fffdf5" stop-opacity="0.8784314"/>
      <stop offset="0.14901960784313725" stop-color="#ffd202" stop-opacity="0.7019608"/>
      <stop offset="0.39215686274509803" stop-color="#f79331" stop-opacity="0.5411765"/>
      <stop offset="0.615686274509804" stop-color="#fcc86f" stop-opacity="0.14117648"/>
      <stop offset="1.0" stop-color="#ffdd87" stop-opacity="0.0"/>
    </radialGradient>
    <linearGradient gradientTransform="matrix(0.0, 0.0123, -0.0303, -1.0E-4, 3.2, -20.6)" gradientUnits="userSpaceOnUse" id="decoration96-gradient8" spreadMethod="pad" x1="-819.2" x2="819.2">
      <stop offset="0.0" stop-color="#f35225"/>
      <stop offset="1.0" stop-color="#ffe362" stop-opacity="0.7607843"/>
    </linearGradient>
    <linearGradient gradientTransform="matrix(0.0, 0.0123, -0.0303, -1.0E-4, 3.2, -20.6)" gradientUnits="userSpaceOnUse" id="decoration96-gradient9" spreadMethod="pad" x1="-819.2" x2="819.2">
      <stop offset="0.0" stop-color="#f35225"/>
      <stop offset="0.9882352941176471" stop-color="#ffe362"/>
    </linearGradient>
    <linearGradient gradientTransform="matrix(0.0015, 0.0057, -0.0094, 0.0025, 16.65, -36.9)" gradientUnits="userSpaceOnUse" id="decoration96-gradient10" spreadMethod="pad" x1="-819.2" x2="819.2">
      <stop offset="0.043137254901960784" stop-color="#f35225"/>
      <stop offset="1.0" stop-color="#ffe362" stop-opacity="0.7607843"/>
    </linearGradient>
    <g id="decoration96-shape4" transform="matrix(1.0, 0.0, 0.0, 1.0, 18.65, 20.95)">
      <path d="M-16.55 -13.9 Q-17.9 -13.7 -18.65 -14.5 -18.05 -17.75 -16.15 -20.45 -13.8 -17.9 -12.6 -14.35 -13.8 -13.4 -15.0 -13.8 L-14.4 -2.45 -16.55 -2.45 -16.55 -13.9" fill="#231712" fill-rule="evenodd" stroke="none"/>
      <path d="M-7.05 -2.45 L-7.05 -13.9 Q-8.4 -13.7 -9.15 -14.5 -8.55 -17.75 -6.65 -20.45 -4.3 -17.9 -3.1 -14.35 -4.3 -13.4 -5.5 -13.8 L-4.9 -2.45 -7.05 -2.45" fill="#231712" fill-rule="evenodd" stroke="none"/>
      <path d="M4.65 -2.45 L2.5 -2.45 2.5 -13.9 Q1.15 -13.7 0.4 -14.5 1.0 -17.75 2.9 -20.45 5.25 -17.9 6.45 -14.35 5.25 -13.4 4.05 -13.8 L4.65 -2.45" fill="#231712" fill-rule="evenodd" stroke="none"/>
      <path d="M14.95 -2.95 L12.8 -2.95 12.8 -14.4 Q11.45 -14.2 10.7 -15.0 11.3 -18.25 13.2 -20.95 15.55 -18.4 16.75 -14.85 15.55 -13.9 14.35 -14.3 L14.95 -2.95" fill="#231712" fill-rule="evenodd" stroke="none"/>
      <path d="M24.0 -14.3 L24.6 -2.95 22.45 -2.95 22.45 -14.4 Q21.1 -14.2 20.35 -15.0 20.95 -18.25 22.85 -20.95 25.2 -18.4 26.4 -14.85 25.2 -13.9 24.0 -14.3" fill="#231712" fill-rule="evenodd" stroke="none"/>
      <path d="M24.35 -1.5 L-16.55 -1.5 Q-17.2 -2.35 -16.55 -3.4 L24.35 -3.4 Q25.2 -2.45 24.35 -1.5" fill="#231712" fill-rule="evenodd" stroke="none"/>
      <path d="M24.35 -1.5 L-16.55 -1.5 Q-17.2 -2.35 -16.55 -3.4 L24.35 -3.4 Q25.2 -2.45 24.35 -1.5 Z" fill="none" stroke="#000000" stroke-linecap="round" stroke-linejoin="round" stroke-opacity="0.101960786" stroke-width="0.05"/>
      <path d="M21.3 -2.35 L21.3 1.75 Q20.4 2.6 19.1 1.75 L19.1 -2.35 21.3 -2.35 M-11.9 -2.2 L-11.9 2.2 Q-13.1 2.95 -13.95 2.2 L-13.95 -2.2 -11.9 -2.2" fill="#231712" fill-rule="evenodd" stroke="none"/>
      <path d="M21.3 -2.35 L21.3 1.75 Q20.4 2.6 19.1 1.75 L19.1 -2.35 21.3 -2.35 M-11.9 -2.2 L-11.9 2.2 Q-13.1 2.95 -13.95 2.2 L-13.95 -2.2 -11.9 -2.2" fill="none" stroke="#000000" stroke-linecap="round" stroke-linejoin="round" stroke-opacity="0.101960786" stroke-width="0.05"/>
    </g>
  </defs>
</svg>
