<?xml version="1.0" encoding="UTF-8" standalone="no"?>
<svg xmlns:ffdec="https://www.free-decompiler.com/flash" xmlns:xlink="http://www.w3.org/1999/xlink" ffdec:objectType="frame" height="124.25px" width="61.7px" xmlns="http://www.w3.org/2000/svg">
  <g transform="matrix(1.0, 0.0, 0.0, 1.0, 20.65, 122.6)">
    <use ffdec:characterId="524" height="124.25" id="decoration98-Couleur0_55300B" filter="url(#decoration98-filter0)" transform="matrix(1.0, 0.0, 0.0, 1.0, -20.65, -122.6)" width="61.7" xlink:href="#decoration98-sprite0"/>
    <use ffdec:characterId="526" height="16.75" id="decoration98-Couleur1_191812" filter="url(#decoration98-filter1)" transform="matrix(1.0, 0.0, 0.0, 1.0, -10.7, -95.6)" width="21.85" xlink:href="#decoration98-sprite1"/>
  </g>
  <defs>
    <g id="decoration98-sprite0" transform="matrix(1.0, 0.0, 0.0, 1.0, 0.15, 0.15)">
      <use ffdec:characterId="523" height="124.25" transform="matrix(1.0, 0.0, 0.0, 1.0, -0.15, -0.15)" width="61.7" xlink:href="#decoration98-shape0"/>
    </g>
    <g id="decoration98-shape0" transform="matrix(1.0, 0.0, 0.0, 1.0, 0.15, 0.15)">
      <path d="M21.8 3.4 L22.85 1.3 Q32.3 0.85 41.9 1.65 L48.4 6.5 Q55.65 23.25 61.4 39.65 L55.9 38.1 Q49.45 20.3 42.7 3.6 L41.15 4.0 21.8 3.4 M57.95 53.3 L50.7 80.0 Q48.7 76.8 45.9 74.75 L53.25 47.95 Q55.7 50.35 57.95 53.3 M40.75 113.8 L40.75 113.9 37.6 121.75 32.6 123.25 29.25 123.15 29.75 120.4 30.95 120.45 35.7 104.1 37.45 105.75 37.5 105.8 Q40.05 109.9 40.75 113.8 M37.45 105.75 L33.55 120.0 37.45 105.75" fill="#464340" fill-rule="evenodd" stroke="none"/>
      <path d="M41.15 4.0 L42.7 3.6 Q49.45 20.3 55.9 38.1 L53.25 47.95 53.2 47.95 Q52.6 47.35 51.55 47.25 L53.85 38.55 Q48.25 21.2 41.15 4.0 M44.1 74.35 L45.9 74.75 37.45 105.75 35.7 104.1 44.1 74.35" fill="#74716d" fill-rule="evenodd" stroke="none"/>
      <path d="M23.7 119.9 L21.8 3.4 41.15 4.0 Q48.25 21.2 53.85 38.55 L51.55 47.25 44.1 74.35 35.7 104.1 30.95 120.45 29.75 120.4 23.7 119.9" fill="#23201e" fill-rule="evenodd" stroke="none"/>
      <path d="M51.55 47.25 Q52.6 47.35 53.2 47.95 L53.25 47.95 45.9 74.75 44.1 74.35 51.55 47.25" fill="#5b5854" fill-rule="evenodd" stroke="none"/>
      <path d="M61.4 39.65 L57.95 53.3 Q55.7 50.35 53.25 47.95 L55.9 38.1 61.4 39.65 M50.7 80.0 L40.75 113.8 Q40.05 109.9 37.5 105.8 L37.45 105.75 45.9 74.75 Q48.7 76.8 50.7 80.0" fill="#585653" fill-rule="evenodd" stroke="none"/>
      <path d="M29.25 123.15 L18.65 122.35 23.7 119.9 29.75 120.4 29.25 123.15" fill="#353432" fill-rule="evenodd" stroke="none"/>
      <path d="M21.8 3.4 L22.85 1.3 Q32.3 0.85 41.9 1.65 L48.4 6.5 Q55.65 23.25 61.4 39.65 L57.95 53.3 50.7 80.0 40.75 113.8 Q40.05 109.9 37.5 105.8 L37.45 105.75 45.9 74.75 53.25 47.95 55.9 38.1 Q49.45 20.3 42.7 3.6 M21.8 3.4 L41.15 4.0 Q48.25 21.2 53.85 38.55 L51.55 47.25 44.1 74.35 35.7 104.1 37.45 105.75 M45.9 74.75 Q48.7 76.8 50.7 80.0" fill="none" stroke="#000000" stroke-linecap="round" stroke-linejoin="round" stroke-opacity="0.24705882" stroke-width="0.30000000000000004" vector-effect="non-scaling-stroke"/>
      <path d="M51.55 47.25 Q52.6 47.35 53.2 47.95 L53.25 47.95 Q55.7 50.35 57.95 53.3" fill="none" stroke="#000000" stroke-linecap="round" stroke-linejoin="round" stroke-opacity="0.16078432" stroke-width="0.30000000000000004"/>
      <path d="M40.75 113.9 L37.6 121.75 32.6 123.25 29.25 123.15 18.65 122.35 23.7 119.9 21.8 3.4 M29.75 120.4 L23.7 119.9 M35.7 104.1 L30.95 120.45 29.75 120.4 M33.55 120.0 L37.45 105.75" fill="none" stroke="#000000" stroke-linecap="round" stroke-linejoin="round" stroke-opacity="0.4" stroke-width="0.30000000000000004" vector-effect="non-scaling-stroke"/>
      <path d="M48.25 81.55 Q53.6 77.75 51.85 69.1 L51.5 70.4 50.45 70.1 52.75 61.75 53.8 62.0 52.9 65.4 Q55.35 79.25 47.55 84.05 47.45 82.75 48.25 81.55" fill="url(#decoration98-gradient0)" fill-rule="evenodd" stroke="none"/>
      <path d="M47.55 84.05 L46.2 89.15 45.15 88.8 47.45 80.4 48.5 80.75 48.25 81.55 Q47.45 82.75 47.55 84.05" fill="#12120c" fill-rule="evenodd" stroke="none"/>
      <path d="M48.25 81.55 Q53.6 77.75 51.85 69.1 L51.5 70.4 50.45 70.1 52.75 61.75 53.8 62.0 52.9 65.4 Q55.35 79.25 47.55 84.05" fill="none" stroke="#000000" stroke-linecap="round" stroke-linejoin="round" stroke-opacity="0.49803922" stroke-width="0.30000000000000004" vector-effect="non-scaling-stroke"/>
      <path d="M47.55 84.05 L46.2 89.15 45.15 88.8 47.45 80.4 48.5 80.75 48.25 81.55" fill="none" stroke="#000000" stroke-linecap="round" stroke-linejoin="round" stroke-opacity="0.4" stroke-width="0.30000000000000004"/>
      <path d="M53.35 23.65 Q55.7 16.6 49.25 12.8 L49.75 13.9 48.65 14.6 45.8 7.4 46.85 6.65 48.0 9.5 Q58.0 16.0 54.2 25.8 53.35 25.05 53.35 23.65" fill="url(#decoration98-gradient1)" fill-rule="evenodd" stroke="none"/>
      <path d="M54.2 25.8 L55.9 30.15 54.85 30.85 52.0 23.65 53.05 22.9 53.35 23.65 Q53.35 25.05 54.2 25.8" fill="#12120c" fill-rule="evenodd" stroke="none"/>
      <path d="M53.35 23.65 Q55.7 16.6 49.25 12.8 L49.75 13.9 48.65 14.6 45.8 7.4 46.85 6.65 48.0 9.5 Q58.0 16.0 54.2 25.8" fill="none" stroke="#000000" stroke-linecap="round" stroke-linejoin="round" stroke-opacity="0.49803922" stroke-width="0.30000000000000004" vector-effect="non-scaling-stroke"/>
      <path d="M54.2 25.8 L55.9 30.15 54.85 30.85 52.0 23.65 53.05 22.9 53.35 23.65" fill="none" stroke="#000000" stroke-linecap="round" stroke-linejoin="round" stroke-opacity="0.4" stroke-width="0.30000000000000004"/>
      <path d="M50.9 38.35 L47.85 38.2 Q42.7 22.55 35.8 4.3 L34.25 0.35 36.75 0.6 Q44.65 20.55 50.9 38.35" fill="#43413e" fill-rule="evenodd" stroke="none"/>
      <path d="M47.85 38.2 L50.9 38.35 Q39.1 82.85 25.85 123.85 L23.6 123.9 27.55 111.35 34.15 89.0 39.15 71.3 47.85 38.2" fill="#353330" fill-rule="evenodd" stroke="none"/>
      <path d="M34.25 0.35 L35.8 4.3 Q35.05 11.6 34.75 18.75 L32.05 11.75 30.7 8.3 Q24.85 7.6 18.9 8.0 L3.8 32.65 6.3 71.65 Q4.1 62.9 1.3 54.15 L0.0 33.8 20.7 0.2 Q27.55 -0.3 34.25 0.35 M39.15 71.3 L34.15 89.0 Q33.15 80.1 31.4 70.6 L36.1 54.05 Q37.2 62.9 39.15 71.3 M27.55 111.35 L23.6 123.9 Q18.15 124.05 13.0 123.8 12.8 111.05 11.25 98.35 L12.45 98.5 Q17.35 98.8 22.7 98.6 L25.7 89.15 Q27.3 103.9 27.55 111.35" fill="url(#decoration98-gradient2)" fill-rule="evenodd" stroke="none"/>
      <path d="M30.7 8.3 L32.05 11.75 30.75 13.15 29.6 10.05 30.7 8.3 M34.7 23.5 L35.9 21.8 41.05 36.0 36.1 54.05 31.4 70.6 29.45 76.95 28.65 79.7 27.45 76.95 33.25 56.75 39.2 35.75 34.7 23.5 M8.5 93.35 L11.75 93.7 Q11.95 96.25 12.45 98.5 L11.25 98.35 8.0 98.05 8.5 93.35" fill="#464646" fill-rule="evenodd" stroke="none"/>
      <path d="M32.05 11.75 L34.75 18.75 35.9 21.8 34.7 23.5 30.75 13.15 32.05 11.75 M27.45 76.95 L28.65 79.7 25.7 89.15 22.7 98.6 22.15 93.85 27.45 76.95 M18.9 8.0 L18.65 9.8 11.05 22.1 4.6 32.65 3.8 32.65 4.6 32.65 6.3 58.8 6.3 58.85 8.5 93.35 8.0 98.05 6.3 71.65 3.8 32.65 18.9 8.0" fill="#353331" fill-rule="evenodd" stroke="none"/>
      <path d="M30.75 13.15 L34.7 23.5 31.6 35.2 Q28.4 48.1 27.75 54.3 26.5 65.85 27.45 76.95 L22.15 93.85 Q16.7 94.1 11.75 93.7 12.6 50.9 30.75 13.15 M4.6 32.65 L11.05 22.1 Q13.2 41.5 6.3 58.8 L4.6 32.65" fill="url(#decoration98-gradient3)" fill-rule="evenodd" stroke="none"/>
      <path d="M35.8 4.3 Q42.7 22.55 47.85 38.2 L39.15 71.3 Q37.2 62.9 36.1 54.05 L41.05 36.0 35.9 21.8 34.75 18.75 Q35.05 11.6 35.8 4.3" fill="url(#decoration98-gradient4)" fill-rule="evenodd" stroke="none"/>
      <path d="M30.7 8.3 L29.6 10.05 Q24.15 9.5 18.65 9.8 L18.9 8.0 Q24.85 7.6 30.7 8.3" fill="#959595" fill-rule="evenodd" stroke="none"/>
      <path d="M34.7 23.5 L39.2 35.75 33.25 56.75 27.45 76.95 Q26.5 65.85 27.75 54.3 28.4 48.1 31.6 35.2 L34.7 23.5 M29.6 10.05 L30.75 13.15 Q12.6 50.9 11.75 93.7 L8.5 93.35 6.3 58.85 6.3 58.8 Q13.2 41.5 11.05 22.1 L18.65 9.8 Q24.15 9.5 29.6 10.05" fill="url(#decoration98-gradient5)" fill-rule="evenodd" stroke="none"/>
      <path d="M34.15 89.0 L27.55 111.35 Q27.3 103.9 25.7 89.15 L28.65 79.7 29.45 76.95 31.4 70.6 Q33.15 80.1 34.15 89.0 M1.3 54.15 Q4.1 62.9 6.3 71.65 L8.0 98.05 11.25 98.35 Q12.8 111.05 13.0 123.8 L5.75 123.1 1.3 54.15" fill="#54504e" fill-rule="evenodd" stroke="none"/>
      <path d="M22.15 93.85 L22.7 98.6 Q17.35 98.8 12.45 98.5 11.95 96.25 11.75 93.7 16.7 94.1 22.15 93.85" fill="#272523" fill-rule="evenodd" stroke="none"/>
      <path d="M50.9 38.35 Q44.65 20.55 36.75 0.6 L34.25 0.35 35.8 4.3 M39.15 71.3 L34.15 89.0 M23.6 123.9 L25.85 123.85 Q39.1 82.85 50.9 38.35 M30.7 8.3 L32.05 11.75 34.75 18.75 M30.75 13.15 L34.7 23.5 39.2 35.75 33.25 56.75 27.45 76.95 22.15 93.85 Q16.7 94.1 11.75 93.7 L8.5 93.35 6.3 58.85 6.3 58.8 4.6 32.65 11.05 22.1 18.65 9.8 Q24.15 9.5 29.6 10.05 L30.75 13.15 M31.4 70.6 L36.1 54.05 M30.7 8.3 Q24.85 7.6 18.9 8.0 L3.8 32.65 6.3 71.65 M1.3 54.15 L0.0 33.8 20.7 0.2 Q27.55 -0.3 34.25 0.35" fill="none" stroke="#000000" stroke-linecap="round" stroke-linejoin="round" stroke-opacity="0.49803922" stroke-width="0.30000000000000004" vector-effect="non-scaling-stroke"/>
      <path d="M35.8 4.3 Q42.7 22.55 47.85 38.2 L39.15 71.3 Q37.2 62.9 36.1 54.05 L41.05 36.0 35.9 21.8 34.75 18.75 Q35.05 11.6 35.8 4.3 M34.15 89.0 L27.55 111.35 23.6 123.9 Q18.15 124.05 13.0 123.8 12.8 111.05 11.25 98.35 L12.45 98.5 Q17.35 98.8 22.7 98.6 L25.7 89.15 28.65 79.7 29.45 76.95 31.4 70.6 Q33.15 80.1 34.15 89.0 M3.8 32.65 L4.6 32.65 M11.05 22.1 Q13.2 41.5 6.3 58.8 M11.75 93.7 Q12.6 50.9 30.75 13.15 M34.7 23.5 L31.6 35.2 Q28.4 48.1 27.75 54.3 26.5 65.85 27.45 76.95 M1.3 54.15 Q4.1 62.9 6.3 71.65 L8.0 98.05 11.25 98.35 M1.3 54.15 L5.75 123.1 13.0 123.8 M25.7 89.15 Q27.3 103.9 27.55 111.35" fill="none" stroke="#000000" stroke-linecap="round" stroke-linejoin="round" stroke-opacity="0.24705882" stroke-width="0.30000000000000004" vector-effect="non-scaling-stroke"/>
      <path d="M56.6 32.05 L57.85 35.6 M10.5 39.65 L9.15 45.35 M25.8 11.65 L24.7 19.05 M22.45 53.15 L19.7 69.15 M24.15 68.4 L20.75 84.6 M45.6 89.0 L44.15 94.05 M53.3 61.9 L54.5 57.5 M17.6 22.65 L10.25 58.4 M41.45 38.5 L35.85 67.2 M17.65 105.15 L15.05 121.8 M12.7 107.05 L12.1 111.2 M22.3 100.75 L20.75 110.65 M42.35 96.5 L41.15 101.6" fill="none" stroke="#000000" stroke-linecap="round" stroke-linejoin="round" stroke-opacity="0.16078432" stroke-width="0.30000000000000004"/>
    </g>
    <linearGradient gradientTransform="matrix(0.0056, -0.0099, 0.2791, 0.1587, -12.1, 38.05)" gradientUnits="userSpaceOnUse" id="decoration98-gradient0" spreadMethod="pad" x1="-819.2" x2="819.2">
      <stop offset="0.0" stop-color="#12120c"/>
      <stop offset="1.0" stop-color="#25231a"/>
    </linearGradient>
    <linearGradient gradientTransform="matrix(-9.0E-4, -0.0111, 0.3254, -0.1458, -22.3, 49.5)" gradientUnits="userSpaceOnUse" id="decoration98-gradient1" spreadMethod="pad" x1="-819.2" x2="819.2">
      <stop offset="0.0" stop-color="#12120c"/>
      <stop offset="1.0" stop-color="#25231a"/>
    </linearGradient>
    <linearGradient gradientTransform="matrix(-0.0046, 0.0549, -0.0504, -0.0043, 35.25, 27.85)" gradientUnits="userSpaceOnUse" id="decoration98-gradient2" spreadMethod="pad" x1="-819.2" x2="819.2">
      <stop offset="0.0" stop-color="#939393"/>
      <stop offset="0.9411764705882353" stop-color="#43403d"/>
    </linearGradient>
    <linearGradient gradientTransform="matrix(0.0, 0.0416, -0.0493, 0.0, 28.0, 38.35)" gradientUnits="userSpaceOnUse" id="decoration98-gradient3" spreadMethod="pad" x1="-819.2" x2="819.2">
      <stop offset="0.027450980392156862" stop-color="#6d6d6d"/>
      <stop offset="1.0" stop-color="#33312e"/>
    </linearGradient>
    <linearGradient gradientTransform="matrix(0.0075, 0.0412, -0.0402, 0.0073, 39.85, 39.5)" gradientUnits="userSpaceOnUse" id="decoration98-gradient4" spreadMethod="pad" x1="-819.2" x2="819.2">
      <stop offset="0.0" stop-color="#8a8a8a"/>
      <stop offset="0.9607843137254902" stop-color="#3a3735"/>
    </linearGradient>
    <linearGradient gradientTransform="matrix(-0.0042, 0.0497, -0.0504, -0.0043, 35.25, 17.5)" gradientUnits="userSpaceOnUse" id="decoration98-gradient5" spreadMethod="pad" x1="-819.2" x2="819.2">
      <stop offset="0.0" stop-color="#a1a1a1"/>
      <stop offset="0.9450980392156862" stop-color="#545252"/>
    </linearGradient>
    <g id="decoration98-sprite1" transform="matrix(1.0, 0.0, 0.0, 1.0, 0.15, 0.15)">
      <use ffdec:characterId="525" height="16.75" transform="matrix(1.0, 0.0, 0.0, 1.0, -0.15, -0.15)" width="21.85" xlink:href="#decoration98-shape1"/>
    </g>
    <g id="decoration98-shape1" transform="matrix(1.0, 0.0, 0.0, 1.0, 0.15, 0.15)">
      <path d="M12.3 7.55 Q13.9 8.7 15.2 4.25 16.15 7.0 17.2 5.4 18.2 3.8 16.95 1.25 25.05 6.0 18.9 14.35 18.85 7.2 15.0 12.9 13.5 9.1 11.3 12.75 11.0 14.55 10.85 16.45 9.8 11.85 7.3 15.35 L8.1 12.35 Q7.2 8.3 4.65 11.6 3.0 5.15 0.65 11.95 -2.15 2.45 6.75 0.0 4.65 2.1 5.1 3.85 5.55 5.65 7.35 3.3 7.0 7.85 8.85 7.15 L9.05 2.1 Q9.6 9.0 13.75 2.65 12.85 4.95 12.3 7.55" fill="#808080" fill-rule="evenodd" stroke="none"/>
      <path d="M12.3 7.55 Q12.85 4.95 13.75 2.65 9.6 9.0 9.05 2.1 L8.85 7.15 Q7.0 7.85 7.35 3.3 5.55 5.65 5.1 3.85 4.65 2.1 6.75 0.0 -2.15 2.45 0.65 11.95 3.0 5.15 4.65 11.6 7.2 8.3 8.1 12.35 L7.3 15.35 Q9.8 11.85 10.85 16.45 11.0 14.55 11.3 12.75 13.5 9.1 15.0 12.9 18.85 7.2 18.9 14.35 25.05 6.0 16.95 1.25 18.2 3.8 17.2 5.4 16.15 7.0 15.2 4.25 13.9 8.7 12.3 7.55 Z" fill="none" stroke="#000000" stroke-linecap="round" stroke-linejoin="round" stroke-opacity="0.38039216" stroke-width="0.30000000000000004" vector-effect="non-scaling-stroke"/>
    </g>
  </defs>
</svg>
